<?xml version="1.0" encoding="utf-8"?>
<svg xmlns="http://www.w3.org/2000/svg" version="1.1" viewBox="0 0 73 101">
	<title>The letter N is decorated with vines.</title>
	<path d="M 18.31531,91.383957 C 15.366032,89.929546 13,85.908559 13,82.350777 13,80.017477 16.878477,77 19.877555,77 c 3.710139,0 5.339061,2.036364 4.940676,6.176487 -0.38366,3.987092 -3.004892,4.918587 -4.541619,1.613934 -0.998216,-2.146613 -1.113115,-2.17201 -1.829998,-0.404498 -1.61321,3.977455 3.038501,6.858905 9.053386,5.608019 2.260875,-0.470184 2.918374,-1.100637 2.668691,-2.558919 -1.340042,-7.826574 -1.371297,-8.678274 -0.29403,-8.012487 C 30.493597,79.80506 31,80.936376 31,81.936572 c 0,1.000196 0.644894,2.353753 1.433098,3.007905 1.155476,0.958959 1.762702,0.686328 3.134521,-1.407332 2.524064,-3.852208 1.504294,-14.032349 -2.005607,-20.021542 -1.471076,-2.510201 -3.044857,-4.335222 -3.497291,-4.055603 -0.987309,0.610191 -0.173003,9.318808 1.102433,11.79 0.496768,0.9625 1.562381,1.75 2.36803,1.75 1.777886,0 1.981198,1.967455 0.214816,2.07878 -0.6875,0.04333 -4.172501,0.0083 -7.744446,-0.07778 -6.443872,-0.15534 -8.772671,-0.825011 -6.130554,-1.762906 3.570498,-1.267449 4.662321,-3.80328 4.954095,-11.506207 0.336168,-8.874977 -1.263228,-10.503555 -2.124068,-2.162821 -0.316128,3.062986 -1.109184,6.212986 -1.762347,7 -1.476403,1.778957 -5.976461,1.857934 -8.3177,0.145979 C 10.053849,64.834989 9.8021562,57.547284 12.099504,51.5 c 1.044718,-2.75 1.899714,-5.975 1.899992,-7.166667 2.77e-4,-1.191666 0.451282,-2.316926 1.002232,-2.500576 0.665231,-0.221743 0.654366,-1.509424 -0.03235,-3.833333 C 13.53276,33.137736 14.027767,23.003043 15.848524,20 21.015179,11.478445 26.030834,8.6300143 36,8.5558188 c 6.500454,-0.04838 8.166364,0.3283456 12.5,2.8267232 2.75,1.585398 6.258798,4.052495 7.79733,5.482436 2.249416,2.090652 2.965807,2.327291 3.65748,1.208142 C 61.273048,15.940165 60.052777,14 57.393011,14 55.507133,14 55,13.470194 55,11.5 55,9.5225476 55.505452,9 57.418213,9 c 4.092621,0 5.501651,1.055917 6.171142,4.624612 0.513029,2.734677 0.112415,4.198233 -1.9728,7.207199 -1.730218,2.496706 -2.621549,5.11245 -2.631297,7.72194 C 58.967932,33.191877 57.29372,36.867874 54.5,38.401844 53.4,39.00583 52.169391,39.95 51.765313,40.5 c -0.404078,0.55 -0.741578,9.083929 -0.75,18.964286 C 50.998361,79.351205 50.841222,79.623263 45.507517,69 39.972709,57.976194 39.155944,56.421224 36.578078,52 35.13499,49.525 33.206222,46.0375 32.291928,44.25 31.377634,42.4625 30.370411,41 30.053655,41 c -0.316757,0 -0.499826,2.987212 -0.406821,6.63825 0.128977,5.063135 0.66563,7.257962 2.261698,9.25 5.12003,6.39026 8.687403,17.309749 7.520904,23.020978 C 37.939823,87.202436 38.068321,89 40.07929,89 c 1.182995,0 2.627989,-1.466058 3.897297,-3.954107 1.615588,-3.166814 2.729966,-4.087817 5.596851,-4.625648 1.968788,-0.369347 4.610693,-0.201749 5.870899,0.37244 2.38679,1.087494 3.799022,5.195518 2.505558,7.288386 -1.006616,1.62874 -4.299432,0.27219 -3.622333,-1.492301 0.294289,-0.766904 0.0035,-2.11308 -0.646246,-2.991501 -1.072737,-1.450332 -1.471265,-1.419994 -4.335886,0.330067 -1.962695,1.199055 -3.403522,3.060669 -3.813478,4.927189 -0.628393,2.861054 -0.852797,2.976648 -4.84543,2.495957 -5.782762,-0.696213 -8.47489,-0.534111 -10.673789,0.642704 -2.743607,1.468334 -8.044336,1.19226 -11.697423,-0.609229 z M 19.405924,62.75 C 21.851291,58.960772 20.732692,45 17.983715,45 16.870502,45 16.136223,53.31813 17.14952,54.45 17.617284,54.9725 18,56.708145 18,58.306989 c 0,2.144961 -0.38481,2.759323 -1.467975,2.343674 -1.763781,-0.676827 -2.924084,0.885265 -2.152023,2.897224 0.829408,2.1614 3.377179,1.756931 5.025922,-0.797887 z M 42.555035,38.487134 c -3.505928,-3.306516 -4.57064,-6.741422 -2.488504,-8.028253 1.425301,-0.880884 1.731709,-0.455161 2.201807,3.059181 C 42.785352,37.383138 46,38.312054 46,34.596377 46,32.979571 45.084935,31.446532 43.5,30.408043 40.518302,28.45436 40.270028,27 42.918213,27 47.953227,27 48.289139,25.88043 44.437574,21.93607 42.07725,19.518879 40.950684,17.570899 41.334555,16.570547 42.008921,14.813177 44,14.422648 44,16.047749 44,17.926208 49.233029,22 51.646023,22 54.618927,22 54.66431,19.951517 51.75,17.306661 47.395054,13.35437 44.302012,12.000902 38.157147,11.358636 c -5.327004,-0.556782 -6.848952,-0.317263 -10.757506,1.69298 -7.536503,3.876166 -11.905337,10.772881 -7.817854,12.341395 0.869984,0.333844 3.457484,0.61388 5.75,0.622302 2.292517,0.0084 4.679137,0.345922 5.303599,0.75 0.624463,0.404078 2.813479,3.884687 4.86448,7.734687 2.051001,3.85 5.140077,9.475 6.864614,12.5 L 45.5,52.5 45.805035,47.169981 c 0.285206,-4.98355 0.07395,-5.547963 -3.25,-8.682847 z M 24.984687,42.690983 C 24.976265,41.485942 24.533156,39.825 24,39 23.291231,37.903259 23.026509,38.658432 23.015313,41.809017 23.005997,44.430398 23.391652,45.87598 24,45.5 c 0.55,-0.339919 0.993109,-1.603976 0.984687,-2.809017 z m -2.523508,-9.344254 c 2.513798,0.964635 0.430345,-3.075124 -2.205292,-4.276 -4.319322,-1.968015 -5.015199,1.386021 -1.95413,9.418648 l 1.13919,2.989377 0.85389,-4.31783 C 20.874971,34.227391 21.5695,33.00456 22.461179,33.346729 Z M 56,32.452001 c 0,-1.3885 -2.479337,-2.63933 -3.402234,-1.716433 C 52.268995,31.064339 52,32.678078 52,34.321654 c 0,2.924979 0.04239,2.949956 2,1.178346 1.1,-0.995486 2,-2.367086 2,-3.047999 z"/>
</svg>
