<?xml version="1.0" encoding="utf-8"?>
<!-- Created with Inkscape (http://www.inkscape.org/) -->
<svg xmlns="http://www.w3.org/2000/svg" xmlns:cc="http://creativecommons.org/ns#" xmlns:dc="http://purl.org/dc/elements/1.1/" xmlns:inkscape="http://www.inkscape.org/namespaces/inkscape" xmlns:rdf="http://www.w3.org/1999/02/22-rdf-syntax-ns#" xmlns:sodipodi="http://sodipodi.sourceforge.net/DTD/sodipodi-0.dtd" xmlns:svg="http://www.w3.org/2000/svg" height="463" id="svg2" version="1.1" viewBox="0 0 985 463" width="985" sodipodi:docname="illustration-the-story-of-the-four-little-children-who-went-round-the-world-10.svg" inkscape:version="0.92.4 (5da689c313, 2019-01-14)">
	<metadata id="metadata8">
		<rdf:RDF>
			<cc:Work rdf:about="">
				<dc:format>image/svg+xml</dc:format>
				<dc:type rdf:resource="http://purl.org/dc/dcmitype/StillImage"/>
				<dc:title/>
			</cc:Work>
		</rdf:RDF>
	</metadata>
	<defs id="defs6"/>
	<sodipodi:namedview bordercolor="#666666" borderopacity="1" gridtolerance="10" guidetolerance="10" id="namedview4" objecttolerance="10" pagecolor="#ffffff" showgrid="false" inkscape:current-layer="svg2" inkscape:cx="497.03917" inkscape:cy="231.5" inkscape:pageopacity="0" inkscape:pageshadow="2" inkscape:window-height="1010" inkscape:window-maximized="1" inkscape:window-width="1920" inkscape:window-x="0" inkscape:window-y="0" inkscape:zoom="1.2462308"/>
	<path d="m 421,450 c 0.825,-0.53316 2.175,-0.94464 3,-0.9144 0.98906,0.0362 0.81874,0.34772 -0.5,0.9144 -2.74909,1.18132 -4.32797,1.18132 -2.5,0 z m -47,-0.95534 c 0,-1.59435 14.59304,-10.22866 24.5,-14.496 7.88276,-3.39544 10.78943,-5.08305 11.97752,-6.95414 1.74058,-2.74119 -0.54861,-3.71917 -6.03355,-2.57765 -2.71918,0.56591 -8.54397,1.21281 -12.94397,1.43755 -4.4,0.22473 -12.95,1.30662 -19,2.40418 -6.05,1.09756 -13.025,2.21562 -15.5,2.48456 -5.89143,0.64019 -12.82205,2.03424 -16.5,3.31888 -3.3319,1.16377 -7.5,1.44082 -7.5,0.49851 0,-5.28944 6.26018,-8.91364 19,-10.99964 3.575,-0.58536 7.625,-1.31764 9,-1.62728 5.51795,-1.24262 19.91607,-3.7378 26.76276,-4.63796 3.99451,-0.52518 8.26951,-1.33055 9.5,-1.78972 1.23048,-0.45917 4.26224,-0.53011 6.73724,-0.15765 3.26067,0.49069 5.82293,0.17615 9.30356,-1.14207 3.50379,-1.327 5.31382,-1.54619 6.68931,-0.81004 1.03717,0.55507 2.12287,0.62556 2.41268,0.15664 0.28981,-0.46892 4.32965,-1.14489 8.97742,-1.50214 C 440.15896,411.97611 443,411.33022 443,410.00964 c 0,-1.01925 -3.69472,-1.97888 -7.6849,-1.99599 -1.7517,-0.008 -4.2267,-0.4072 -5.5,-0.8882 -1.27331,-0.48101 -7.43522,-1.16506 -13.69314,-1.52012 -6.25792,-0.35506 -11.7095,-0.85041 -12.11462,-1.10079 -0.40511,-0.25038 -6.535,-0.43813 -13.62196,-0.41723 -7.08696,0.0209 -15.13538,-0.002 -17.88538,-0.0514 -2.75,-0.0491 -10.175,0.85046 -16.5,1.99912 -6.325,1.14867 -13.075,2.32934 -15,2.6237 -1.925,0.29437 -5.975,1.19157 -9,1.99377 -8.86602,2.35119 -14,2.73095 -14,1.03559 0,-1.7897 1.73586,-3.22881 5,-4.14525 1.375,-0.38605 3.94823,-1.35546 5.71828,-2.15426 3.42672,-1.54641 36.0683,-6.4356 42.78172,-6.40802 2.2,0.009 11.2,-0.2981 20,-0.68254 8.8,-0.38444 19.15,-0.67797 23,-0.65228 10.77856,0.0719 43.69732,1.36345 44.38677,1.74147 1.78029,0.97613 7.42834,1.84651 13.97088,2.15298 4.35939,0.2042 8.02691,0.91099 9,1.73446 0.95437,0.80762 3.31795,1.27833 5.64235,1.12367 8.9582,-0.59604 14.25246,-0.42582 19,0.61091 2.75,0.60052 7.25,0.8513 10,0.55729 2.75,-0.29402 13.1,-0.58912 23,-0.65578 23.98664,-0.16153 43.9669,-1.77815 48.83025,-3.95091 2.97691,-1.32998 4.73136,-1.50875 7.87498,-0.80242 3.01142,0.67662 4.58761,0.55569 6.16975,-0.47335 1.16876,-0.76017 4.30165,-1.62421 6.96198,-1.92008 2.66034,-0.29587 5.26832,-0.9693 5.79552,-1.4965 1.24223,-1.24223 -3.18643,-5.99654 -9.13248,-9.80405 -2.475,-1.58484 -6.84342,-5.0449 -9.70761,-7.68902 -2.86418,-2.64412 -6.52524,-5.07102 -8.13568,-5.39311 -1.66397,-0.33279 -3.4821,-1.62081 -4.21137,-2.98348 C 583.23952,369.07904 582.02005,368 581.23539,368 c -0.78466,0 -2.77233,-0.95821 -4.41706,-2.12936 -1.64472,-1.17115 -4.86419,-3.08734 -7.15437,-4.2582 -2.29018,-1.17087 -6.78915,-4.15016 -9.99772,-6.62064 -3.20857,-2.47049 -7.06428,-5.18216 -8.56826,-6.02593 -3.5939,-2.01627 -12.24749,-8.99648 -13.90468,-11.21587 -0.71869,-0.9625 -1.9028,-1.75 -2.63135,-1.75 -1.97052,0 -7.5505,-6.08443 -8.23473,-8.97919 -0.32771,-1.38644 -1.16559,-3.19581 -1.86194,-4.02081 -1.10653,-1.31094 -4.30204,-8.18938 -4.42184,-9.51815 -0.12004,-1.33142 -0.45707,-3.12308 -1.45612,-7.7408 -0.67103,-3.10153 -0.34013,-4.72601 1.892,-9.28831 2.82483,-5.77374 2.77292,-8.06745 -0.20664,-9.13066 -0.97497,-0.3479 -2.40434,-1.12519 -3.17637,-1.72731 -0.77204,-0.60213 -2.76611,-1.09477 -4.43127,-1.09477 -2.46994,0 -3.66166,0.8826 -6.4702,4.79187 -2.06251,2.87087 -4.0945,4.68487 -5.06873,4.52496 -0.89436,-0.1468 -2.28076,0.14286 -3.08088,0.6437 -0.80013,0.50084 -2.69177,1.04604 -4.20365,1.21155 -1.51187,0.16551 -4.23223,1.20532 -6.04522,2.31069 -1.813,1.10536 -4.07372,2.01144 -5.02382,2.01349 -0.9501,0.002 -4.22275,1.35374 -7.27254,3.00374 -3.04979,1.65 -6.20874,3 -7.01987,3 -0.81114,0 -4.33207,1.35 -7.8243,3 -3.49224,1.65 -6.9455,3 -7.67393,3 -0.72843,0 -2.15045,0.74755 -3.16005,1.66122 -1.00959,0.91367 -2.84502,2.16446 -4.07874,2.77953 -3.13459,1.56277 -2.84406,3.85822 0.50689,4.00491 1.5125,0.0662 2.75,-0.31042 2.75,-0.83695 0,-0.52654 1.0125,-0.0187 2.25,1.12858 1.92925,1.78856 3.82649,2.14454 13.30886,2.49716 6.08237,0.22619 11.56377,0.72331 12.1809,1.10471 0.61712,0.38141 1.37408,0.28567 1.68211,-0.21275 0.30804,-0.49842 4.50164,-0.67968 9.3191,-0.40279 8.86394,0.50944 11.7756,1.75311 12.35305,5.27638 0.56624,3.45479 -4.84031,27.7889 -7.12091,32.05024 -0.53521,1.00005 -0.97311,4.0713 -0.97311,6.825 0,2.7537 -0.45,5.28484 -1,5.62476 -0.55,0.33992 -1,3.23638 -1,6.43657 0,4.19239 -0.46216,6.20211 -1.65367,7.19099 -1.32709,1.1014 -8.68949,1.39626 -37.28052,1.49304 l -35.62685,0.1206 0.96754,-5.85025 c 0.53214,-3.21764 0.65769,-6.16009 0.27901,-6.53878 -0.37869,-0.37868 -1.76994,-0.10976 -3.09166,0.59761 -1.37713,0.73701 -2.97003,0.93576 -3.73092,0.46551 -1.6094,-0.99467 -3.20621,-1.22277 -12.86293,-1.83744 -4.125,-0.26257 -9.075,-0.8447 -11,-1.29364 -6.08999,-1.42026 -42.32916,-0.43488 -45.01321,1.22396 -0.60558,0.37427 -2.08785,0.83272 -3.29392,1.01878 -1.20608,0.18606 -5.56787,1.27116 -9.69287,2.41134 -4.125,1.14018 -9.075,2.36103 -11,2.71301 -6.18204,1.13035 -18.33847,0.64393 -24,-0.96032 -5.72615,-1.62257 -19.82635,-3.13599 -26.1689,-2.8088 -2.0179,0.1041 -3.94089,-0.25081 -4.27331,-0.78868 -0.33242,-0.53787 -2.73142,-1.26677 -5.3311,-1.61978 -6.95166,-0.94397 -8.03285,-1.36463 -11.63402,-4.5265 -1.80176,-1.58196 -4.49985,-3.34163 -5.99577,-3.91038 -2.58353,-0.98226 -2.68616,-1.27224 -2.04756,-5.78546 1.22527,-8.65944 4.14769,-13.67616 7.70066,-13.21923 0.1375,0.0177 2.95,-0.91697 6.25,-2.07701 3.3,-1.16004 8.39084,-2.75117 11.31297,-3.53584 2.92214,-0.78468 7.19714,-2.27141 9.5,-3.30384 2.30287,-1.03244 5.31203,-2.2025 6.68703,-2.60015 4.3105,-1.24658 11.0776,-5.58073 10.40717,-6.66552 -0.37947,-0.61399 -2.3284,-0.78928 -4.7742,-0.42938 -2.27314,0.33449 -5.93297,0.76163 -8.13297,0.9492 -2.2,0.18757 -5.35,0.86367 -7,1.50245 -4.27169,1.65374 -18.4458,5.26746 -22,5.60894 -1.65,0.15854 -4.25735,0.78657 -5.7941,1.39564 -1.53676,0.60907 -3.8808,1.38014 -5.20899,1.71349 -1.32818,0.33335 -2.93843,1.23695 -3.57834,2.00798 -0.6399,0.77104 -1.97958,1.40189 -2.97706,1.40189 -1.66027,0 -6.97419,1.86123 -24.94151,8.73588 -3.575,1.36787 -6.95,2.59391 -7.5,2.72453 -0.55,0.13063 -1.675,0.49285 -2.5,0.80493 -0.825,0.31208 -3.65219,1.34679 -6.28266,2.29937 -2.63046,0.95257 -5.01951,2.1152 -5.30901,2.58362 -0.2895,0.46842 -1.38,0.85167 -2.42334,0.85167 -1.04334,0 -4.12684,1.31477 -6.85222,2.92172 l -4.95525,2.92172 -0.58787,-2.34226 c -0.9547,-3.80385 0.17422,-5.06374 6.20234,-6.92187 3.13941,-0.9677 8.52171,-3.06893 11.96068,-4.66938 3.43897,-1.60046 6.49092,-2.90993 6.78212,-2.90993 0.29119,0 2.20249,-0.74107 4.24733,-1.64683 2.04483,-0.90575 4.21691,-1.75662 4.82684,-1.89081 C 205.41101,346.84586 213,343.01928 213,342.2229 c 0,-1.71991 -1.28323,-2.14169 -3.27417,-1.07617 -2.19346,1.1739 -12.20986,2.62734 -23.22583,3.37019 -3.85,0.25962 -9.25,0.92399 -12,1.47638 -2.75,0.55239 -6.35,0.94198 -8,0.86577 -8.14316,-0.37615 -20.86927,1.53051 -30.74878,4.60687 -5.91183,1.84087 -10.9997,2.94103 -11.30639,2.4448 -0.30668,-0.49623 0.70527,-1.44116 2.24878,-2.09985 1.54352,-0.65869 3.4938,-1.76476 4.33396,-2.45795 1.71336,-1.41361 7.96077,-2.09622 9.64702,-1.05405 0.60434,0.3735 1.62207,0.0486 2.26163,-0.72204 1.37481,-1.65655 7.38813,-3.12001 19.03554,-4.63268 4.65947,-0.60514 8.85365,-1.33627 9.3204,-1.62473 1.28302,-0.79296 12.43509,-2.97824 19.20784,-3.76384 3.3,-0.38278 7.575,-1.08269 9.5,-1.55536 1.925,-0.47266 6.2,-1.38975 9.5,-2.03797 3.3,-0.64822 8.475,-2.14242 11.5,-3.32043 3.025,-1.17801 6.55774,-2.04574 7.85053,-1.92829 2.54208,0.23095 14.91556,-2.14631 15.80598,-3.03673 0.29907,-0.29907 0.27443,-0.97955 -0.0548,-1.51219 -0.74636,-1.20763 -32.52669,-0.69243 -48.9896,0.79419 -6.53832,0.59042 -13.96332,0.82344 -16.5,0.51783 -2.53668,-0.30562 -5.84479,-0.1994 -7.35135,0.23604 -2.33182,0.67396 -21.84036,-0.11679 -29.7608,-1.20631 -1.375,-0.18914 -3.325,-0.38046 -4.33333,-0.42514 -1.00834,-0.0447 -1.64736,-0.64374 -1.42005,-1.33124 0.49177,-1.48737 6.29042,-2.3573 21.45056,-3.21807 10.86552,-0.61692 17.05801,-1.44943 24.30282,-3.26721 3.52628,-0.88477 30.0537,-0.919 31.64466,-0.0408 0.97798,0.53982 11.84097,0.31015 31.35534,-0.66293 15.54788,-0.7753 18.94883,-2.1639 12.05526,-4.92216 C 254.80261,309.73745 251.75532,309 250.28351,309 c -1.4718,0 -4.2752,-1.09299 -6.22976,-2.42888 -2.05464,-1.40428 -5.56953,-2.62917 -8.33229,-2.90369 -2.6282,-0.26115 -5.7782,-1.12777 -7,-1.92584 -2.31054,-1.50921 -12.30016,-3.0304 -19.22146,-2.92699 -25.15122,0.37577 -33.5,-0.38513 -33.5,-3.05314 0,-0.86053 -0.31091,-0.85055 -1.2,0.0385 -1.27068,1.27068 -6.56473,1.61125 -9.21821,0.59301 -1.6794,-0.64444 -2.16815,-3.91258 -0.71907,-4.80817 0.4745,-0.29325 5.987,-0.7544 12.25,-1.02476 6.263,-0.27037 12.92413,-0.9469 14.80251,-1.50341 1.87838,-0.55651 4.35338,-0.80666 5.5,-0.55589 1.14662,0.25076 6.49076,0.65713 11.87585,0.90304 7.56115,0.34528 10.59634,0.92222 13.32677,2.53321 1.94463,1.14736 3.93284,1.84066 4.41824,1.54066 0.48541,-0.29999 1.68836,-0.096 2.67323,0.45336 3.58224,1.99809 11.21611,5.06895 12.60096,5.06895 0.781,0 2.60134,0.92924 4.04521,2.06498 1.44386,1.13575 3.0428,1.8069 3.55321,1.49145 0.93522,-0.578 11.17741,1.76072 13.20862,3.01608 0.60132,0.37164 2.73342,0.88428 4.738,1.13921 2.00457,0.25493 4.54468,1.01447 5.64468,1.68786 1.1,0.67338 5.825,2.71438 10.5,4.53554 4.675,1.82116 8.9275,3.70578 9.45,4.18804 0.5225,0.48226 1.74796,0.87684 2.72325,0.87684 0.97529,0 3.72758,0.94949 6.11621,2.10998 l 4.34297,2.10997 5.18379,-2.62682 C 314.6673,318.14838 317,316.30926 317,315.50621 c 0,-0.80306 1.2375,-2.24717 2.75,-3.20915 1.5125,-0.96198 3.09661,-2.29868 3.52025,-2.97045 0.42364,-0.67177 2.44864,-2.18309 4.5,-3.35849 2.05136,-1.17539 5.07975,-3.91233 6.72975,-6.08207 C 339.85017,292.8506 345.72059,287 347.4297,287 c 1.45402,0 1.58169,-0.80704 0.98871,-6.25 C 347.61425,273.36866 347.45164,273 345,273 c -1.03508,0 -2.15951,-0.44908 -2.49873,-0.99795 -1.04121,-1.6847 2.82941,-7.053 5.48865,-7.61242 1.38055,-0.29043 3.61161,-0.97782 4.95793,-1.52754 3.94881,-1.61237 0.46544,-2.87462 -6.05281,-2.19333 -6.16568,0.64444 -7.74727,-0.33126 -5.74197,-3.54226 1.37283,-2.19824 9.8355,-3.49167 11.05529,-1.68968 0.48507,0.71659 1.07229,0.68253 1.86287,-0.10805 1.59494,-1.59494 0.28265,-3.32877 -2.51946,-3.32877 -1.28161,0 -3.31377,-0.79645 -4.51592,-1.76988 l -2.18571,-1.76989 2.19533,-2.7909 c 1.20743,-1.535 2.70364,-2.6003 3.32493,-2.36735 4.53456,1.7003 5.59866,1.78098 5.06252,0.38381 -0.64687,-1.68572 3.97963,-5.68579 6.57621,-5.68579 2.7385,0 10.3867,2.91485 11.49471,4.38082 0.55211,0.73048 2.12711,1.6617 3.5,2.06936 l 2.49616,0.74122 -2.75,-2.63617 c -3.2427,-3.10848 -3.33857,-3.71261 -0.93438,-5.88837 3.12849,-2.83124 7.63963,-3.16796 9.90243,-0.73912 1.1864,1.27345 2.6226,1.87877 3.58312,1.51019 0.88168,-0.33834 2.18711,-0.24077 2.90094,0.2168 0.71384,0.45758 2.19789,0.92013 3.29789,1.02788 1.1,0.10775 3.25113,0.50331 4.78029,0.87902 2.06066,0.5063 4.42401,-0.1261 9.1309,-2.44329 3.49283,-1.71952 6.96617,-3.8681 7.71852,-4.77463 0.75236,-0.90653 3.84345,-3.46076 6.8691,-5.67606 3.02566,-2.21531 5.72619,-4.29468 6.00119,-4.62084 2.29318,-2.71975 12.55431,-7.70059 17.76376,-8.62267 5.0926,-0.90139 10.23624,-3.37843 10.23624,-4.9295 0,-0.70262 1.76173,-1.98238 3.91495,-2.84393 2.15322,-0.86155 4.1836,-2.00115 4.51196,-2.53245 0.32836,-0.5313 -1.54586,-1.95353 -4.16494,-3.16051 C 459.64288,198.75077 456.825,197.37323 456,196.89654 452.59601,194.9297 447.64383,193 446.00032,193 c -0.96549,0 -2.32466,-0.68587 -3.02038,-1.52417 -0.69572,-0.83829 -1.50493,-1.28417 -1.79825,-0.99085 -0.90379,0.90379 -5.18169,-3.7264 -5.18169,-5.6084 0,-0.97614 -1.6875,-3.02059 -3.75,-4.54324 -5.41968,-4.00108 -10.22704,-8.66242 -10.23935,-9.92835 -0.006,-0.60226 -0.96469,-1.95226 -2.13073,-3 -1.16604,-1.04775 -3.07904,-3.91695 -4.25111,-6.37601 -1.17206,-2.45906 -3.18555,-4.99675 -4.47441,-5.63932 -1.28887,-0.64257 -4.00734,-2.79311 -6.04106,-4.77899 -2.03372,-1.98587 -4.12869,-3.62199 -4.6555,-3.63583 -0.52681,-0.0138 -6.06532,-4.96383 -12.30779,-11 C 381.90757,129.93868 376.32505,125 375.74444,125 c -0.58061,0 -2.52834,-1.12327 -4.32828,-2.49615 -1.94896,-1.48655 -3.93249,-2.24295 -4.90405,-1.87012 -1.08292,0.41555 -1.80786,-0.006 -2.1562,-1.25385 -0.28863,-1.03393 -2.22554,-3.22988 -4.30424,-4.87988 -2.0787,-1.65 -4.8027,-4.55075 -6.05332,-6.44612 l -2.27386,-3.44612 -2.25957,2.83378 c -2.27386,2.85169 -4.33324,4.11211 -18.91668,11.57775 -4.37346,2.23889 -8.42346,4.44143 -9,4.89454 C 319.2912,125.68767 302.73065,134 301.45369,134 c -0.74487,0 -1.74787,0.70325 -2.22889,1.56278 -0.48101,0.85953 -1.51587,1.6618 -2.29969,1.78282 -0.78381,0.12102 -5.75581,2.56777 -11.04888,5.43722 C 280.58316,145.65227 275.07711,148 273.64058,148 c -2.48512,0 -8.6076,1.21735 -15.14058,3.01044 -1.65,0.45287 -6.6,2.24022 -11,3.97189 -15.36827,6.04836 -36.45888,13.01407 -40,13.21102 -0.55,0.0306 -4.375,-0.27714 -8.5,-0.68383 -4.125,-0.4067 -7.95,-0.69266 -8.5,-0.63549 -0.55,0.0572 -3.3625,0.3801 -6.25,0.7176 -3.96051,0.46291 -5.25,0.29368 -5.25,-0.689 0,-1.01316 -0.26667,-1.03596 -1.2,-0.10263 -0.66,0.66 -2.01,1.2 -3,1.2 -1.05933,0 -1.8,0.73261 -1.8,1.78041 0,1.00512 -3.37478,4.55925 -7.75,8.16186 -11.00788,9.06403 -18.79109,17.41163 -22.80914,24.46312 -1.91004,3.35203 -3.80312,6.57628 -4.20683,7.16499 -0.40372,0.58871 -2.63005,3.96371 -4.94741,7.5 C 129.27328,223.19473 121.55811,232 120.20529,232 c -0.34923,0 -1.55078,0.91389 -2.67012,2.03088 -1.11934,1.11698 -5.74767,4.96676 -10.28517,8.55508 -4.5375,3.58831 -8.25,6.89063 -8.25,7.33849 0,0.44786 -1.8,3.075 -4,5.83808 -2.2,2.76309 -4,5.38474 -4,5.82591 0,0.44117 -1.082482,1.95175 -2.405516,3.35684 C 85.407686,268.32974 82,274.57471 82,277.03042 c 0,2.03052 -3.294609,2.73796 -5.608359,1.20427 -2.021034,-1.33967 -0.234042,-8.18842 3.563798,-13.65848 1.556555,-2.24192 5.371297,-7.99781 8.477205,-12.79088 4.980116,-7.68537 14.137636,-18.73152 21.202926,-25.5758 C 110.93601,224.94977 112,223.5265 112,223.0467 c 0,-0.47979 5.35387,-6.2857 11.8975,-12.90201 6.54362,-6.61631 12.05612,-12.39304 12.25,-12.83718 0.19387,-0.44413 3.2775,-3.14807 6.8525,-6.00874 3.575,-2.86068 7.91176,-6.34818 9.63725,-7.75 1.72548,-1.40183 3.51452,-2.54877 3.97565,-2.54877 1.08307,0 8.44333,-8.2771 7.87005,-8.85039 -0.23904,-0.23904 -1.11476,0.12986 -1.94605,0.81976 -0.83129,0.68991 -2.13243,1.01608 -2.89143,0.72482 -0.759,-0.29125 -2.81751,0.7834 -4.57446,2.38813 -3.55396,3.24605 -4.56161,3.63856 -3.72167,1.44971 0.87483,-2.27977 -0.80356,-2.65101 -4.23839,-0.93749 -3.29979,1.64615 -3.32662,3.40546 -0.0519,3.40546 2.86287,0 2.36734,1.31788 -1.30902,3.48138 -1.7875,1.05192 -4.04345,2.91499 -5.01322,4.14014 -0.96977,1.22515 -4.11977,3.92935 -7,6.00932 -2.88023,2.07997 -7.00528,5.26393 -9.16678,7.07546 -2.1615,1.81154 -4.34674,3.2937 -4.85609,3.2937 -0.50936,0 -2.63062,1.35 -4.71391,3 -2.08329,1.65 -4.28555,3 -4.8939,3 -1.30633,0 -7.09511,5.67377 -12.338468,12.09333 -2.052803,2.51329 -6.102803,5.85279 -9,7.42111 -2.897198,1.56831 -8.765906,5.13165 -13.041573,7.91852 -4.275668,2.78687 -10.890379,7.05446 -14.699358,9.48352 -5.054942,3.22365 -7.54633,5.58692 -9.224342,8.75 C 50.53795,258.04992 49.217646,260 48.868348,260 c -1.792176,0 -1.419289,-4.54669 0.699737,-8.53203 l 2.39036,-4.49564 -2.479223,0.62224 c -4.10687,1.03076 -2.800738,-0.91284 2.683442,-3.99312 2.838347,-1.59421 7.900389,-5.19702 11.248983,-8.00627 3.348594,-2.80924 8.176499,-6.16275 10.728677,-7.45225 2.552177,-1.2895 6.827177,-4.08446 9.5,-6.21102 2.672822,-2.12655 7.046963,-5.56869 9.720313,-7.64919 2.67335,-2.08049 7.848353,-6.2618 11.500003,-9.29178 3.65165,-3.02998 9.11436,-6.80529 12.13936,-8.38957 3.025,-1.58429 6.625,-3.87032 8,-5.08006 1.375,-1.20975 3.95032,-3.19391 5.72294,-4.40925 3.82457,-2.6222 17.45634,-16.05982 16.46498,-16.23048 -0.37836,-0.0651 -1.07599,-0.0483 -1.55029,0.0375 -0.4743,0.0857 -1.41811,-0.60415 -2.09736,-1.53307 -0.90435,-1.23678 -1.43355,-1.36767 -1.97665,-0.4889 -0.56781,0.91872 -1.07245,0.92553 -2.15265,0.029 C 138.50373,168.17317 138,168.12966 138,168.80423 c 0,0.57702 -0.7875,1.25492 -1.75,1.50644 -1.6173,0.42265 -1.61283,0.46612 0.059,0.57333 0.99496,0.0638 1.5309,0.566 1.19098,1.116 -0.33992,0.55 0.0835,1 0.94098,1 0.85746,0 1.55902,-0.47656 1.55902,-1.05902 0,-0.58246 0.45,-0.7809 1,-0.44098 2.70552,1.67211 0.86332,2.46137 -9.5,4.07016 -1.65,0.25614 -4.575,0.77277 -6.5,1.14807 -1.925,0.37529 -3.95,0.74821 -4.5,0.82871 -1.50943,0.22093 -4.51206,1.36743 -9.48165,3.62039 C 105.74302,183.55891 90.810115,188 88.043907,188 c -1.05923,0 -2.18111,0.41298 -2.493066,0.91774 C 84.416735,190.75276 72.974429,198 71.211309,198 c -0.99622,0 -2.238809,0.36007 -2.761309,0.80016 -0.999347,0.84172 -10.534592,4.62475 -13.95,5.53455 -1.1,0.29302 -4.025,1.27536 -6.5,2.18299 -2.475,0.90762 -7.084796,1.7801 -10.24399,1.93883 -3.159195,0.15873 -6.421695,0.85105 -7.25,1.53848 C 29.579408,210.76402 29,210.84053 29,210.19387 c 0,-1.99955 2.857257,-3.89333 7.668707,-5.0828 8.853023,-2.18861 15.807317,-4.41723 18.081293,-5.79446 1.2375,-0.7495 2.25,-1.08734 2.25,-0.75077 0,0.33657 1.384526,-0.55305 3.076725,-1.97695 C 61.768924,195.165 64.381498,194 65.882446,194 c 1.500947,0 4.278921,-1.15118 6.173274,-2.55818 1.894354,-1.40699 5.01928,-3.26665 6.94428,-4.13257 1.925,-0.86591 5.3,-2.38333 7.5,-3.37203 16.7018,-7.50596 21.95107,-10.20736 26.81099,-13.79759 5.44318,-4.02111 13.1225,-6.67799 16.05227,-5.55373 0.81425,0.31246 2.32708,0.11501 3.36184,-0.43878 1.47039,-0.78692 2.14467,-0.58529 3.08662,0.923 1.57183,2.5169 4.88013,2.47612 5.68828,-0.0701 0.73702,-2.32214 3.5,-2.71685 3.5,-0.5 0,2.19751 1.68028,1.8306 2.28975,-0.5 0.67683,-2.58822 2.13602,-2.53274 4.66073,0.17723 1.11562,1.19747 2.29461,1.91101 2.61998,1.58564 C 155.3611,164.97223 153.188,161 151.96482,161 151.43417,161 151,159.9875 151,158.75 c 0,-1.61002 0.63998,-2.30438 2.25,-2.44119 5.06657,-0.43053 8.81517,-1.61562 8.47301,-2.67868 -0.20006,-0.62157 -1.86976,-2.03013 -3.71045,-3.13013 -1.84068,-1.1 -5.06563,-3.8 -7.16656,-6 -13.59058,-14.23148 -16.10623,-16.43648 -23.3446,-20.46181 -3.29923,-1.83474 -6.44923,-3.88637 -7,-4.55919 -1.43626,-1.75452 -7.17588,-3.479 -11.57919,-3.479 -2.15184,0 -4.47757,-0.69822 -5.40073,-1.62138 -1.91062,-1.91061 -1.53628,-5.04401 0.53791,-4.50257 0.79234,0.20683 2.34061,0.50933 3.44061,0.67223 1.1,0.1629 5.15,0.98178 9,1.81974 8.49391,1.8487 24.42901,10.23697 24.47173,12.88198 0.0193,1.19246 0.82475,1.75 2.52827,1.75 1.375,0 2.5,0.47889 2.5,1.0642 0,1.31966 15.5916,19.09428 17.85271,20.35232 0.90601,0.50408 3.41579,2.41658 5.57729,4.25 3.86274,3.27643 7.85279,4.30297 9.07,2.33348 1.17116,-1.89498 8.06759,-1.1357 10.09501,1.11143 1.78081,1.97381 2.6798,2.084 13.79149,1.69055 10.3571,-0.36674 12.0941,-0.67675 13.5,-2.4094 2.61782,-3.22625 12.09042,-7.64686 19.1135,-8.91976 4.86288,-0.88138 15.70897,-4.27643 20.50034,-6.41704 2.20019,-0.98296 5.54995,-2.12755 7.44391,-2.54354 1.89396,-0.41598 6.39381,-2.15843 9.99966,-3.8721 3.60585,-1.71368 7.00609,-3.13848 7.55609,-3.16623 1.39342,-0.0703 16.96342,-7.95441 22.96654,-11.62946 2.7316,-1.67226 6.5566,-3.28322 8.5,-3.57991 1.9434,-0.29669 6.01544,-1.75232 9.04896,-3.23473 3.03353,-1.4824 6.82301,-3.02345 8.42108,-3.42454 1.59807,-0.40109 4.01428,-1.60135 5.36936,-2.66726 1.35508,-1.06591 3.24029,-1.93801 4.18937,-1.93801 0.94908,0 3.25089,-1.0343 5.11514,-2.29845 1.86425,-1.26415 4.17705,-2.600032 5.13955,-2.96862 0.9625,-0.368588 1.75,-1.125138 1.75,-1.681221 0,-0.556084 1.82062,-1.939874 4.04583,-3.07509 6.11622,-3.120264 15.72004,-2.187243 18.25386,1.773381 0.43983,0.6875 1.44196,1.25 2.22695,1.25 2.28077,0 4.34422,4.11594 4.60175,9.17906 0.18343,3.60635 0.71182,4.90379 2.3048,5.65932 3.69949,1.75462 6.04254,2.48099 7.33019,2.27243 0.69486,-0.11255 1.52216,0.46971 1.83843,1.29391 0.31628,0.8242 2.11371,2.00635 3.99429,2.627 1.88059,0.62065 3.88163,1.99241 4.44676,3.04837 0.56513,1.05595 1.91167,1.91991 2.99232,1.91991 1.08065,0 1.96482,0.45 1.96482,1 0,0.55 0.675,1 1.5,1 0.825,0 1.5,0.45 1.5,1 0,0.55 0.43452,1 0.96559,1 0.53107,0 4.76257,2.475 9.40333,5.5 4.64076,3.025 8.87615,5.5 9.41197,5.5 0.53582,0 1.51041,0.64607 2.16576,1.43572 0.65535,0.78965 2.44022,1.70998 3.96637,2.04518 1.52616,0.3352 4.30756,2.14983 6.18091,4.03252 1.87334,1.88269 3.94385,3.43737 4.60113,3.45483 0.65728,0.0175 3.2948,2.61925 5.86115,5.78175 2.73007,3.36424 6.95238,7.05618 10.17634,8.89806 4.97735,2.84362 5.78712,3.80436 8.3734,9.93456 1.57475,3.73258 3.32012,7.24345 3.87861,7.80194 0.55849,0.55849 1.01544,2.05484 1.01544,3.32523 0,1.27038 0.9,3.08039 2,4.02224 1.1,0.94185 2,2.20143 2,2.79908 0,0.59765 0.60895,1.91942 1.35322,2.93727 1.25104,1.71089 1.524,1.73102 3.6148,0.26657 1.24387,-0.87124 2.90333,-1.33781 3.68768,-1.03683 0.78435,0.30098 1.3544,0.15454 1.26677,-0.32544 -0.40646,-2.22647 0.37198,-3.29892 4.32753,-5.96199 2.3375,-1.57372 5.375,-4.08258 6.75,-5.57526 1.375,-1.49267 3.4,-2.88051 4.5,-3.08408 1.1,-0.20357 1.89664,-0.87848 1.77031,-1.4998 -0.12632,-0.62132 0.67316,-1.41622 1.77664,-1.76645 1.10349,-0.35023 2.7211,-1.72766 3.5947,-3.06094 0.8736,-1.33329 2.09912,-2.43838 2.72336,-2.45576 1.74262,-0.0485 6.63499,-4.6924 6.63499,-6.29799 0,-0.78404 0.675,-1.98572 1.5,-2.67041 0.825,-0.68469 1.5,-0.93275 1.5,-0.55124 0,0.3815 1.51222,-0.8009 3.36049,-2.62756 3.95743,-3.91115 5.16049,-4.81745 9.05474,-6.8212 1.60338,-0.825 4.34583,-2.85 6.09434,-4.5 1.74851,-1.65 3.81166,-3.14619 4.58477,-3.32488 0.77311,-0.17868 2.33466,-1.19118 3.47011,-2.25 1.13545,-1.05881 2.48545,-1.93664 3,-1.95072 0.51455,-0.0141 3.3897,-1.58907 6.38921,-3.5 2.99952,-1.91092 6.61201,-3.4744 8.02776,-3.4744 1.41575,0 3.3447,-0.9 4.28655,-2 0.94185,-1.1 2.5903,-2 3.66323,-2 1.07292,0 2.21545,-0.42826 2.53895,-0.95169 0.32349,-0.52344 3.61255,-2.42866 7.30901,-4.23384 3.69646,-1.80517 7.59319,-4.07691 8.6594,-5.0483 1.06621,-0.97139 2.71924,-1.76617 3.67341,-1.76617 0.95416,0 3.77406,-1.55658 6.26645,-3.45906 6.86503,-5.2402 11.70194,-8.09832 16.12158,-9.52623 4.62411,-1.49396 8.35285,-3.892163 14.0631,-9.044919 2.2347,-2.016529 6.2847,-4.972177 9,-6.568104 4.37612,-2.572084 5.77393,-2.878673 12.30579,-2.699079 4.64762,0.127786 7.97125,0.723873 9,1.614137 0.89711,0.776342 3.20611,1.477221 5.13111,1.557509 1.925,0.08029 4.625,0.33167 6,0.558627 8.83145,1.457714 13.87761,2.549352 16.5,3.569455 1.65,0.641845 5.925,1.760417 9.5,2.485716 3.575,0.725299 9.425,2.311995 13,3.52599 3.575,1.213996 7.85,2.650118 9.5,3.191388 1.65,0.54127 8.85,2.20221 16,3.69098 7.60005,1.58248 14.45383,3.61846 16.5,4.90148 1.925,1.20705 4.9625,2.27507 6.75,2.37337 1.7875,0.0983 4.4875,0.3062 6,0.46199 10.80602,1.11303 51.09668,1.78969 59.56918,1.00044 2.65055,-0.24692 5.6597,-1.20959 6.68699,-2.13927 1.02729,-0.92969 2.32639,-1.40692 2.88688,-1.06052 3.37058,2.08314 5.04589,-11.579501 1.86383,-15.200052 C 835.72747,90.649179 831.60489,77.8575 831.94665,71 c 0.0411,-0.825 0.0743,-6.067975 0.0737,-11.651056 -10e-4,-9.910501 0.45612,-12.035869 4.49542,-20.901719 0.76496,-1.679026 2.33529,-3.907489 3.48962,-4.952139 l 2.09878,-1.899365 -1.18975,2.952139 C 840.2601,36.171537 839.567,39.75 839.37425,42.5 c -0.19275,2.75 -0.84364,8.375 -1.44641,12.5 -1.20061,8.216176 -0.70002,18.035531 1.15147,22.586951 0.65175,1.602177 2.487,5.691559 4.07832,9.087515 2.1022,4.486178 3.0636,8.382564 3.51606,14.250004 0.34251,4.44154 0.9363,8.07553 1.31954,8.07553 1.10113,0 4.00677,-3.53142 4.00677,-4.8697 0,-0.66673 1.31184,-3.78129 2.91521,-6.921263 1.60336,-3.139971 3.23281,-7.734037 3.621,-10.209037 0.38818,-2.475 1.71792,-6.525 2.95498,-9 1.23705,-2.475 2.75809,-7.46467 3.38008,-11.088156 0.622,-3.623485 1.95938,-9.248485 2.97195,-12.5 1.01258,-3.251514 2.39915,-8.818356 3.08127,-12.37076 0.68212,-3.552403 1.81973,-7.602403 2.52801,-9 0.70829,-1.397596 1.59432,-4.64874 1.96897,-7.224765 1.1514,-7.916773 10.70089,-15.8674099 18.03055,-15.011714 C 897.19931,11.24208 898.42291,13 894.98013,13 c -4.78202,0 -14.4702,8.600575 -15.28131,13.56582 -0.26363,1.613799 -1.18372,5.63418 -2.04464,8.93418 -0.86092,3.3 -1.78843,7.575 -2.06113,9.5 -0.81566,5.757832 -3.21303,15.23341 -4.9336,19.5 -3.10241,7.69319 -4.89809,16.048038 -4.70959,21.912518 0.13046,4.059051 -0.36674,6.946383 -1.58606,9.210523 -0.97685,1.813902 -1.47441,3.599678 -1.1057,3.968391 0.84307,0.843068 7.04567,-2.047596 8.71842,-4.063143 1.87097,-2.254376 12.25529,-9.154157 15.06782,-10.011694 1.35061,-0.4118 3.80566,-1.75074 5.45566,-2.975422 4.81569,-3.57436 29.37723,-16.609181 35,-18.574517 3.31461,-1.158562 6.71421,-2.577539 12.5,-5.217446 3.025,-1.380229 7.075,-3.09772 9,-3.816646 1.925,-0.718927 6.30359,-3.057571 9.7302,-5.196989 7.23995,-4.520287 9.7698,-4.582135 9.7698,-0.238843 0,2.61352 -0.41941,3.040649 -3.5,3.564408 -1.925,0.327287 -5.75,1.776774 -8.5,3.221084 -8.37791,4.400105 -20.52352,9.728266 -23.55935,10.335256 -0.85764,0.171479 -5.80764,2.707492 -11,5.635584 -5.19236,2.928093 -11.03635,6.071561 -12.98665,6.985484 -5.09663,2.388314 -13.99338,7.843249 -18.54025,11.367729 -2.15256,1.66855 -5.49077,3.983148 -7.41824,5.14355 -1.92747,1.160403 -5.30247,3.93383 -7.5,6.163173 -2.19753,2.22934 -4.76718,4.06092 -5.71033,4.07017 -1.47859,0.0145 -3.78518,2.72689 -3.78518,4.45109 0,0.91805 5.51464,0.64564 6.55,-0.32355 1.59633,-1.4943 11.88283,-4.07179 14.01985,-3.51294 1.10556,0.2891 5.25461,-0.37345 9.22013,-1.47235 3.96551,-1.0989 7.21002,-1.83145 7.21002,-1.62788 0,0.20357 4.6125,-1.20361 10.25,-3.12706 5.6375,-1.923443 11.15,-3.686076 12.25,-3.916958 1.1,-0.230882 3.35,-0.694033 5,-1.029223 3.08023,-0.625737 11.44106,-3.137034 15,-4.505469 1.1,-0.422957 4.38638,-1.046389 7.30306,-1.385403 2.91668,-0.339015 6.77831,-1.319886 8.58139,-2.179714 3.05529,-1.456971 3.56176,-1.426382 7.44468,0.449642 2.62558,1.268544 4.39832,1.637633 4.79361,0.998043 0.39264,-0.635306 0.94881,-0.507446 1.48695,0.341839 1.80369,2.846601 0.82246,3.720086 -4.85969,4.326064 -3.1625,0.337267 -8.9,1.445823 -12.75,2.463458 -3.85,1.017635 -7.9,1.844868 -9,1.838295 -3.33478,-0.01993 -18.17146,3.232386 -33.5,7.343456 -22.22915,5.96179 -24.97296,6.62577 -32.5,7.8648 -3.85,0.63374 -8.125,1.33823 -9.5,1.56552 -9.52225,1.57406 -10.36694,2.07582 -7.5,4.45517 0.825,0.68469 1.5,0.92034 1.5,0.52367 0,-0.39667 1.51985,0.17551 3.37744,1.27152 1.85759,1.096 5.22815,2.2516 7.49012,2.56798 2.26198,0.31639 5.52378,1.37661 7.24845,2.35604 1.72466,0.97944 4.09161,2.31174 5.25987,2.96069 2.7422,1.52323 8.80449,2.36149 20.62412,2.85181 15.36493,0.63739 17.70701,1.15527 18.25793,4.03724 0.64234,3.36017 -0.2657,3.69761 -7.96593,2.96026 -8.87373,-0.84972 -17.10116,-0.84324 -21.68707,0.0171 -2.09942,0.39386 -4.72448,0.25537 -5.93474,-0.31308 -4.81388,-2.26104 -14.29122,-6.54097 -16.17019,-7.30241 -1.1,-0.44576 -5.7343,-2.41255 -10.29844,-4.37064 C 862.63742,124.60207 857.82648,123 856.51058,123 c -1.3159,0 -2.64646,-0.41084 -2.9568,-0.91299 -0.31034,-0.50214 -2.4744,-1.2294 -4.80902,-1.61613 -2.33462,-0.38672 -5.06103,-1.13211 -6.05868,-1.6564 -1.01763,-0.53479 -2.3346,-0.5791 -3,-0.10093 -0.65304,0.46928 -8.60144,0.47175 -17.68608,0.005 -9.075,-0.46576 -22.125,-0.99391 -29,-1.17367 -16.88179,-0.44141 -27.63431,-1.2914 -29.74757,-2.35155 -0.96384,-0.48352 -5.2886,-0.97146 -9.61059,-1.0843 -4.67307,-0.12201 -8.72631,-0.7675 -10,-1.59253 -1.17801,-0.76305 -4.97192,-1.67184 -8.4309,-2.01953 -3.45899,-0.34769 -7.78031,-1.25525 -9.60294,-2.01679 -1.82263,-0.76154 -5.51755,-1.66595 -8.21093,-2.00979 -2.69339,-0.34384 -7.11625,-1.26545 -9.82857,-2.04802 C 704.85617,103.64029 700.99367,103 698.98517,103 c -2.00851,0 -3.98874,-0.3369 -4.4005,-0.74867 -0.41177,-0.41176 -3.52427,-1.2447 -6.91667,-1.85097 -3.3924,-0.606264 -8.868,-1.895116 -12.168,-2.864113 -8.49667,-2.494923 -13.11222,-2.578535 -19.46054,-0.352535 -3.0467,1.068309 -5.98946,1.893354 -6.53946,1.833435 -0.55,-0.05992 -3.50335,-0.350059 -6.563,-0.644754 l -5.56301,-0.535809 -9.43699,8.404076 c -5.19035,4.62224 -13.39404,12.30901 -18.23042,17.08171 -4.83638,4.77269 -9.03927,8.67763 -9.33974,8.67763 -1.22764,0 -11.43296,9.85725 -15.32057,14.79802 -2.29278,2.91392 -5.22244,5.69866 -6.51035,6.18832 -1.2879,0.48966 -2.61403,1.33103 -2.94696,1.86971 -0.33292,0.53869 -3.18913,2.74559 -6.34714,4.90423 -3.158,2.15864 -7.3582,5.45816 -9.33378,7.33226 -5.3169,5.0438 -8.83889,7.82034 -11.98113,9.44526 -1.54303,0.79793 -3.39532,2.25849 -4.11621,3.24569 -3.93984,5.39534 -16.47459,13.02728 -28.81868,17.54663 l -4.50798,1.65044 0.35437,4.45556 c 0.27219,3.42239 1.1297,5.25391 3.69799,7.89839 3.76031,3.87187 10.57249,8.66662 16.79561,11.82158 2.2924,1.16219 5.61819,3.37796 7.39066,4.92394 1.77246,1.54598 4.82786,3.25408 6.78976,3.79579 2.19163,0.60514 5.68069,3.13256 9.04845,6.55455 3.01474,3.0633 5.72861,5.56963 6.03083,5.56963 0.30221,0 2.65521,1.71175 5.22888,3.80388 2.57368,2.09213 5.99109,4.45463 7.59426,5.25 3.55138,1.76191 15.79348,14.05325 17.69119,17.76233 1.38755,2.71198 17.44,18.81006 31.59399,31.68379 4.23287,3.85 11.62578,10.6 16.42869,15 4.80292,4.4 10.31915,9.38058 12.25831,11.06795 2.38604,2.07624 3.6778,4.17738 3.99615,6.5 0.81555,5.95013 1.70506,9.40032 2.67664,10.38205 0.5171,0.5225 0.94018,1.88487 0.94018,3.02749 0,1.14263 0.63626,2.98588 1.4139,4.09613 0.77765,1.11025 1.56515,3.34787 1.75,4.97251 0.29773,2.6166 0.67863,2.92206 3.3361,2.67527 1.65,-0.15323 5.12592,-0.28385 7.72426,-0.29027 2.59835,-0.006 6.25369,-0.65071 8.12299,-1.43175 1.86929,-0.78104 3.61684,-1.20195 3.88344,-0.93535 0.90168,0.90167 28.23825,1.17232 32.41155,0.32089 4.12729,-0.84204 10.80872,-1.10258 19.35776,-0.75485 2.475,0.10067 8.28266,-0.18296 12.90591,-0.6303 6.28303,-0.60792 8.22536,-0.52119 7.69098,0.34345 -0.39321,0.63623 -2.18072,1.15678 -3.97225,1.15678 -1.79153,0 -5.70247,0.42467 -8.69098,0.94372 -9.22664,1.60249 -13.937,2.02338 -28.43366,2.54066 -7.7,0.27476 -16.7,0.96905 -20,1.54286 C 691.05646,363.97377 657.92556,368 655.58035,368 c -0.53919,0 -0.41963,0.56072 0.26569,1.24604 1.73451,1.73451 30.67692,2.21003 49.15396,0.80759 14.04482,-1.06603 19.74744,-1.49234 34.5,-2.57912 9.2436,-0.68094 15.1732,-0.64504 19.75927,0.11964 4.27222,0.71236 6.0388,2.39455 2.54975,2.42796 C 747.44838,370.15959 729,371.79376 729,372.92836 c 0,0.43144 3.23615,1.08521 7.19144,1.45282 3.95529,0.3676 7.40529,0.88222 7.66667,1.14359 1.14877,1.14878 -1.21302,1.64943 -8.52289,1.80668 -9.33026,0.20071 -10.25319,2.06745 -1.17851,2.38368 9.72557,0.3389 8.77338,1.82685 -1.18452,1.851 -7.93438,0.0192 -8.97219,-0.18355 -8.97219,-1.75314 0,-1.11031 -1.02968,-2.02086 -2.75,-2.43183 -1.5125,-0.36131 -3.23627,-1.03672 -3.83059,-1.50089 -1.22496,-0.95672 -9.81283,-1.29346 -29.41941,-1.15357 -7.425,0.053 -14.85,0.0928 -16.5,0.0885 -1.65,-0.004 -8.625,-0.68963 -15.5,-1.52294 -6.875,-0.8333 -13.625,-1.49323 -15,-1.4665 -1.375,0.0267 -7.86573,-0.62319 -14.42385,-1.44426 -8.37182,-1.04815 -12.73724,-2.07205 -14.65437,-3.43716 -1.50178,-1.06937 -3.56105,-1.92629 -4.57615,-1.90427 -1.42129,0.0308 -1.21914,0.38002 0.87923,1.51876 3.25324,1.76547 5.35211,5.08221 3.58816,5.67019 -1.74885,0.58295 7.84377,13.77101 10.01663,13.77101 0.55498,0 4.40008,3.39102 8.54466,7.5356 7.15588,7.15588 8.74264,10.4644 5.0187,10.4644 -0.76615,0 -1.39301,0.43875 -1.39301,0.975 0,0.53625 1.2375,0.76718 2.75,0.51317 2.46311,-0.41365 15.22143,-1.5545 17.75,-1.5872 0.55,-0.007 5.275,0.0365 10.5,0.0969 17.18564,0.19875 18,0.12961 18,-1.52825 0,-1.21189 -1.30063,-1.52778 -6.25,-1.51798 -3.4375,0.007 -7.15,0.0721 -8.25,0.14501 -8.58179,0.56913 -18.5,-0.49896 -18.5,-1.99225 0,-0.44272 4.1625,-1.13637 9.25,-1.54143 5.0875,-0.40507 11.95,-1.03496 15.25,-1.39975 9.60977,-1.06228 58.75655,-0.24004 60.00042,1.00383 0.49278,0.49278 -15.31367,1.57124 -32.50042,2.21747 -8.79006,0.33051 -16,1.53636 -16,2.67598 0,0.69059 10.57578,0.89808 42.17209,0.82743 3.66965,-0.008 8.49287,0.53059 10.71827,1.19734 2.54361,0.76208 4.52215,0.86759 5.32791,0.28412 0.70495,-0.51048 3.30673,-0.64502 5.78173,-0.29898 2.475,0.34605 3.52963,0.69676 2.34362,0.77937 -1.63655,0.11398 -2.0303,0.63233 -1.63337,2.15019 0.45358,1.7345 0.01,2.01317 -3.34362,2.09919 -2.12665,0.0546 -5.21663,0.26038 -6.86663,0.45738 -6.2227,0.74297 -17.17173,0.51873 -19.5914,-0.40122 -1.63348,-0.62105 -3.14631,-0.60183 -4.31979,0.0549 -0.99327,0.55586 -3.55709,0.73064 -5.69738,0.38839 -5.52376,-0.88329 -11.88252,0.26101 -11.20866,2.01706 0.29216,0.76137 1.94556,1.43755 3.67422,1.50262 1.72865,0.0651 4.46804,0.40258 6.08753,0.75 1.61948,0.34743 -9.85552,0.66344 -25.5,0.70225 -28.37953,0.0704 -50.62714,0.69707 -71.44452,2.01243 -15.3555,0.97026 -32.90125,0.71325 -33.3016,-0.48779 -0.19531,-0.58592 -1.22938,-0.66981 -2.51504,-0.20405 -1.20085,0.43504 -20.29586,0.6603 -42.43336,0.50056 -33.80822,-0.24394 -40.25,-0.0683 -40.25,1.09766 0,0.90643 -1.64821,1.59294 -4.75,1.97847 -4.83342,0.60076 -15.1413,5.09064 -16.49531,7.18498 -0.40992,0.63406 -2.92907,2.72171 -5.59812,4.63923 -4.56853,3.28216 -6.93051,3.99809 -17.31817,5.24921 -2.01388,0.24256 -4.93888,0.89746 -6.5,1.45533 -2.82343,1.00896 -2.82699,1.00506 -0.67516,-0.74114 1.18977,-0.9655 4.91009,-3.72492 8.26736,-6.13206 4.92977,-3.5346 5.88124,-4.64518 4.94558,-5.77258 -0.71672,-0.8636 -1.96277,-1.13956 -3.26736,-0.72362 -1.15985,0.36979 -3.00882,0.72671 -4.10882,0.79316 -1.85607,0.11212 -11.39899,2.84657 -16,4.58469 -6.63352,2.50593 -10.5,4.4082 -10.5,5.16589 0,0.47694 -1.07583,0.59716 -2.39074,0.26714 -1.52913,-0.38379 -4.35695,0.33013 -7.84649,1.98095 C 408.76211,438.83856 405.8018,440 405.1843,440 c -1.66765,0 -8.86796,3.91391 -10.23863,5.56546 -0.80856,0.97426 -3.31703,1.44591 -7.81811,1.46998 -3.84903,0.0206 -7.67566,0.63458 -9.12756,1.46456 -2.96987,1.69773 -4,1.838 -4,0.54466 z m 42.57119,-23.28252 c 0.346,-0.34599 0.31896,-1.13087 -0.0601,-1.74417 -0.72793,-1.17781 -3.51111,0.42022 -3.51111,2.01599 0,0.89004 2.60782,0.69155 3.57119,-0.27182 z m 220.74702,-13.83355 c 2.1396,-0.59414 4.33776,-0.68702 5,-0.21128 1.92146,1.38037 53.9368,1.00917 54.40414,-0.38824 0.25048,-0.74894 -1.55337,-1.41393 -5.00541,-1.84523 -7.41777,-0.92679 -40.34379,-0.96535 -50.71694,-0.0594 -4.675,0.4083 -11.09566,0.68332 -14.26813,0.61115 -7.09163,-0.16133 -9.89498,1.21157 -4.23187,2.07249 6.54369,0.9948 10.77384,0.94356 14.81821,-0.1795 z M 480.92627,383.04557 c 3.33871,-2.06344 -0.3702,-2.96449 -10.71421,-2.60295 -5.89163,0.20593 -14.42456,0.41558 -18.96206,0.4659 -9.10284,0.10094 -11.30901,1.79916 -3,2.30927 11.51837,0.70715 31.42316,0.60224 32.67627,-0.17222 z M 440.5,382 c -0.33992,-0.55 -1.23992,-1 -2,-1 -0.76008,0 -1.66008,0.45 -2,1 -0.35191,0.5694 0.50929,1 2,1 1.49071,0 2.35191,-0.4306 2,-1 z m 36.35676,-4.89031 c 2.08781,-1.32291 0.26082,-1.83843 -7.14584,-2.01634 -6.99338,-0.16799 -9.16802,0.35802 -8.16821,1.97575 0.72202,1.16826 13.48099,1.20207 15.31405,0.0406 z M 481,370.56739 c 0,-0.78794 -0.91963,-1.72449 -2.04362,-2.08123 -2.23927,-0.71072 -16.85138,0.38115 -18.45638,1.37913 -1.44401,0.89786 4.8589,1.85071 13.25,2.00307 5.68747,0.10327 7.25,-0.17712 7.25,-1.30097 z m -193.98797,-1.57383 c 1.80497,-0.96599 1.78767,-1.10664 -0.43041,-3.5 C 284.64494,363.40386 283.35796,363 278.63533,363 274.51544,363 273,363.37045 273,364.37756 c 0,3.75176 9.6728,6.93829 14.01203,4.616 z M 304.8,368.8 c 2.01174,-2.01174 1.36423,-2.8 -2.3,-2.8 -2.25,0 -3.5,0.47619 -3.5,1.33333 0,2.78257 3.57905,3.68762 5.8,1.46667 z m 19.00118,-0.001 c 0.9349,-0.9349 0.4924,-1.93245 -1.99617,-4.5 -3.59368,-3.70773 -5.31023,-4.05657 -7.99695,-1.62512 -1.78892,1.61895 -1.76084,1.76615 0.85835,4.5 2.86072,2.98594 7.03188,3.72801 9.13477,1.62512 z m 14.73094,-3.24779 C 340.43945,364.75409 342,364.37909 342,364.71769 c 0,0.33861 0.29724,0.3184 0.66054,-0.0449 C 344.06321,363.27012 339.64347,360 336.34501,360 334.03833,360 333,359.53438 333,358.5 c 0,-1.90424 -2.05396,-1.92335 -4.55887,-0.0424 -1.87061,1.40464 -1.79829,1.58628 1.99052,5 2.16241,1.94833 4.08937,3.54241 4.28212,3.54241 0.19276,0 1.91101,-0.65204 3.81835,-1.44897 z m 134.20584,-1.83715 c -0.21312,-0.63936 -1.92885,-1.49015 -3.81273,-1.89064 -4.16694,-0.88585 -14.08919,0.10244 -13.33182,1.3279 0.29963,0.48481 0.87268,0.67884 1.27343,0.43115 0.40076,-0.24768 1.24219,-0.14252 1.86985,0.23369 2.10004,1.25874 14.42492,1.16886 14.00127,-0.1021 z m -173.82842,-1.84423 c 2.84675,-2.65215 1.36469,-3.96111 -4.15954,-3.67372 -3.92671,0.20428 -5.00426,2.14981 -2.55,4.60407 1.7864,1.7864 4.1444,1.45944 6.70954,-0.93035 z M 439,360.96669 c 0,-1.40807 -3.72993,-2.10798 -7.48232,-1.40403 -2.52931,0.4745 -3.29231,1.00397 -2.61787,1.81662 C 429.96713,362.66532 439,362.29634 439,360.96669 Z M 450.5,362 c 0.33992,-0.55 0.16803,-1 -0.38197,-1 -0.55,0 -1.27811,0.45 -1.61803,1 -0.33992,0.55 -0.16803,1 0.38197,1 0.55,0 1.27811,-0.45 1.61803,-1 z m -188.58756,-1.63645 c 0.22684,-0.1953 -0.12609,-1.53705 -0.7843,-2.98165 -1.09508,-2.40344 -1.54673,-2.57058 -5.31705,-1.96768 -2.26618,0.36237 -4.5226,0.90748 -5.01427,1.21135 -1.15831,0.71587 1.05634,3.3711 3.66846,4.39826 1.80014,0.70787 6.32394,0.30678 7.44716,-0.66028 z M 426,361 c 0,-0.55 -0.70156,-1 -1.55902,-1 -0.85746,0 -1.2809,0.45 -0.94098,1 0.33992,0.55 1.04148,1 1.55902,1 0.51754,0 0.94098,-0.45 0.94098,-1 z m -69.62099,-2.54529 c 0.75847,-1.97656 -0.98339,-2.73681 -3.35834,-1.46577 C 351.65755,357.71846 351,357.73351 351,357.03518 351,356.46583 351.45,356 352,356 c 0.55,0 1,-0.62577 1,-1.39059 0,-1.92413 -7.02251,-2.71433 -7.7303,-0.86985 -0.2875,0.74921 0.49013,2.44034 1.72806,3.75806 3.27358,3.48456 8.2178,3.98898 9.38125,0.95709 z m 245.13433,1.52371 c 0.34725,-0.56187 -1.98869,-3.64556 -5.19099,-6.85264 -3.20229,-3.20709 -6.63086,-7.02238 -7.61903,-8.47842 C 587.71514,343.19131 586.4912,342 585.98345,342 c -0.50775,0 0.10407,1.51373 1.35959,3.36385 2.25902,3.32884 12.68652,15.63615 13.24791,15.63615 0.16006,0 0.57513,-0.45971 0.92239,-1.02158 z m -206.58001,-1.63873 c 0.95337,-0.82068 -2.19663,-2.85261 -4.73333,-3.05327 -15.9192,-1.25928 -23.04333,-1.18013 -24.24631,0.26938 -0.77378,0.93235 -0.90939,1.8885 -0.34754,2.45035 1.50415,1.50415 27.62226,1.80119 29.32718,0.33354 z M 279.53812,357.79521 C 280.75964,356.5737 278.78839,350 277.20059,350 c -4.07615,0 -10.84401,7.19594 -7.84443,8.3406 1.57731,0.60192 9.45671,0.17986 10.18196,-0.54539 z M 314.08179,358 c 1.45438,0 1.07031,-2.17445 -0.73678,-4.17126 -2.06357,-2.28022 -6.19559,-2.38171 -7.04315,-0.17298 -0.76895,2.00383 3.34236,5.69474 5.44474,4.88799 C 312.52593,358.24469 313.57677,358 314.08179,358 Z m 134.0952,-2.77652 c 1.17434,-1.17477 -1.82999,-1.27745 -9.48601,-0.32421 -0.44496,0.0554 -0.58296,0.4665 -0.30666,0.91355 0.79205,1.28156 8.37887,0.82497 9.79267,-0.58934 z M 477,356.09508 c 0,-2.01452 -2.92838,-2.88058 -9,-2.66173 -3.575,0.12886 -8.4125,0.30907 -10.75,0.40047 -4.48281,0.17528 -5.82117,1.77414 -2,2.38929 4.81945,0.77586 21.75,0.6762 21.75,-0.12803 z m -74.8231,-2.21792 c 1.4396,0.54733 2.9045,0.70811 3.25534,0.35727 0.35083,-0.35084 3.56594,-0.94095 7.14469,-1.31136 6.34904,-0.65715 8.33553,-1.34395 7.1927,-2.48677 -0.69467,-0.69467 -9.53518,-0.81057 -12.26963,-0.16085 -1.1,0.26136 -2.77074,-0.19827 -3.71275,-1.0214 -0.98164,-0.85776 -2.4574,-1.21087 -3.45719,-0.82721 -0.95944,0.36817 -7.03368,0.36003 -13.4983,-0.0181 -9.60296,-0.5617 -12.13225,-1.04003 -13.8216,-2.6139 -2.20486,-2.05414 -6.67771,-2.06922 -6.26016,-0.0211 0.15813,0.77565 -0.99114,1.22626 -3.12756,1.22626 -3.38977,0 -6.28544,2.11823 -5.23005,3.82589 0.31052,0.50242 5.63676,0.96935 11.83609,1.03762 6.19934,0.0683 12.17152,0.31243 13.27152,0.54257 1.1,0.23015 4.5875,0.74106 7.75,1.13535 3.1625,0.3943 5.75,1.19479 5.75,1.77887 0,0.58408 0.57588,0.2744 1.27972,-0.68817 1.02836,-1.40635 1.79387,-1.55465 3.89718,-0.75497 z m -151.39304,-0.3009 c 2.21943,-0.78306 4.26246,-1.1966 4.54008,-0.91898 1.10952,1.10951 4.58521,-1.73045 3.99624,-3.26529 -0.46118,-1.20183 -1.46446,-1.43451 -4.21276,-0.97706 -1.98408,0.33024 -4.45568,0.74297 -5.49244,0.91717 -2.15517,0.36211 -4.81154,3.54085 -4.02393,4.81522 0.66833,1.08138 0.43727,1.10679 5.19281,-0.57106 z m 44.15652,-0.004 c 0.92419,-1.11358 0.84125,-2.09342 -0.37652,-4.44834 -1.44927,-2.80258 -1.77952,-2.94427 -4.58394,-1.96665 -3.99312,1.39201 -5.50458,4.17564 -3.40651,6.27371 1.95994,1.95994 6.78993,2.0415 8.36697,0.14128 z m 35.92055,-2.00418 c 1.18361,-1.18362 0.9355,-1.62156 -1.68695,-2.97768 -4.0085,-2.07288 -7.13564,-2.01575 -8.75991,0.16003 -3.0817,4.12807 6.54105,6.72345 10.44686,2.81765 z m 149.48602,-2.64697 c -1.01582,-0.37043 -2.47861,-0.16662 -3.25064,0.4529 -0.77204,0.61953 -1.55954,1.01392 -1.75,0.87642 -0.19047,-0.1375 -0.90881,-0.19076 -1.59631,-0.11836 -0.6875,0.0724 0.325,0.43343 2.25,0.80228 3.98771,0.76409 7.50104,-0.86307 4.34695,-2.01324 z M 273.76802,347.7186 c 0.69741,-0.54613 2.27241,-1.04364 3.5,-1.10557 1.50943,-0.0761 2.33543,-0.84099 2.55153,-2.3626 0.3847,-2.70875 -0.79786,-2.81746 -7.14025,-0.6564 -5.04484,1.71896 -6.15202,2.73213 -5.32908,4.87666 0.56001,1.45938 4.12765,1.04129 6.4178,-0.75209 z m 34.66688,1.30658 c 2.88689,-1.09759 3.18025,-2.6276 1.04494,-5.44996 -1.31405,-1.73684 -1.71415,-1.78735 -4.0893,-0.51621 -3.23262,1.73005 -4.00386,3.49749 -2.37997,5.45415 1.45407,1.75206 2.02183,1.80565 5.42433,0.51202 z m 35.25934,-5.58398 c -3.45036,-3.00151 -4.30373,-3.03896 -5.79405,-0.25428 -1.02241,1.91041 -0.80691,2.47615 1.70665,4.4804 l 2.87682,2.2939 2.00817,-2.03962 2.00817,-2.03962 z m 97.08796,3.72765 c 0.27961,-0.84842 -0.23625,-1.22033 -1.42167,-1.02496 -1.02329,0.16864 -2.44861,-0.062 -3.16737,-0.51256 -1.67106,-1.0475 -6.79359,0.18073 -5.5878,1.33978 2.16658,2.08261 9.50862,2.22527 10.17684,0.19774 z m 40.5705,-4.40675 c -0.29966,-0.48487 -3.08911,-0.55911 -6.19877,-0.16498 -3.10966,0.39412 -6.21643,0.7211 -6.90393,0.72662 -2.85497,0.0229 -0.98379,1.68485 2,1.77637 1.7875,0.0548 4.3672,0.41077 5.73267,0.79099 2.6123,0.72741 6.39222,-1.47507 5.37003,-3.129 z m -190.4362,0.28093 c 3.15336,-1.60872 5.0835,-3.69995 5.0835,-5.50776 0,-0.16587 -0.91005,-0.53956 -2.02232,-0.83043 -2.76906,-0.72412 -7.41521,1.76568 -8.74624,4.68698 -1.85967,4.08152 -0.0876,4.59621 5.68506,1.65121 z M 325,340.43723 c 0,-2.10383 -2.86761,-3.68728 -5.48701,-3.02985 -1.93928,0.48673 -2.51299,1.27322 -2.51299,3.44501 0,1.54785 0.27085,3.08513 0.6019,3.41617 0.9045,0.90451 7.3981,-2.4584 7.3981,-3.83133 z m 36.32466,3.90478 C 362.25213,343.41454 360.05153,341 358.27877,341 c -0.81199,0 -2.73744,-1.35 -4.27877,-3 -3.07888,-3.29595 -4.76936,-3.76461 -5.61648,-1.55707 -0.91406,2.38201 5.61754,8.40848 9.19981,8.48834 1.69584,0.0378 3.37943,-0.22737 3.74133,-0.58926 z M 409,342.50833 c 9.13066,-0.4634 14.99253,-1.35866 21.7471,-3.32136 11.49405,-3.33988 12.49117,-5.68258 2.83454,-6.65971 -2.5284,-0.25584 -5.43698,-0.91466 -6.46351,-1.46404 -1.02653,-0.54938 -6.5796,-1.44545 -12.34016,-1.99127 -5.76055,-0.54581 -12.50724,-1.68278 -14.99263,-2.52659 -4.69851,-1.59519 -9.25158,-0.90178 -12.78534,1.94715 -0.825,0.66512 -4.0875,2.25921 -7.25,3.54241 -3.1625,1.28321 -5.75,2.82828 -5.75,3.43349 0,1.59867 4.87731,4.16157 9.5,4.992 2.2,0.39521 4.45,1.07987 5,1.52147 1.35185,1.08541 4.66458,1.83052 6.5,1.46201 0.825,-0.16564 7.125,-0.58664 14,-0.93556 z m -102.82874,-4.16332 c 2.01922,-1.82736 2.44605,-5.84546 0.73339,-6.90394 -1.68391,-1.04071 -5.66696,1.53523 -6.13152,3.96541 -0.88641,4.63692 1.86589,6.13516 5.39813,2.93853 z m 32.06484,-2.55332 C 339.04937,333.3519 335.94704,329 333.39453,329 c -3.56409,0 -4.93956,3.89698 -2.20599,6.25 2.33398,2.00905 6.45291,2.32564 7.04756,0.54169 z m 136.36509,-0.0595 c 0.32949,-0.3295 0.27303,-1.12665 -0.12548,-1.77145 -0.65554,-1.06069 -6.20366,-0.8939 -17.97571,0.54038 -1.1,0.13402 -2.81406,0.3011 -3.80902,0.3713 -0.99496,0.0702 -1.52633,0.58502 -1.18082,1.14405 0.66188,1.07096 21.99848,0.80827 23.09103,-0.28428 z m -153.68091,-6.78257 c 3.56178,-4.43216 3.49809,-7.29134 -0.15078,-6.76972 -2.4422,0.34912 -7.36773,8.04316 -6.27791,9.80654 1.19569,1.93466 3.19092,0.99214 6.42869,-3.03682 z M 348,331.55902 c 0,-1.89244 -1.70391,-2.88662 -3.66051,-2.1358 -1.26466,0.48529 -1.32788,0.88584 -0.32967,2.08861 1.57542,1.89827 3.99018,1.92682 3.99018,0.0472 z m -91.64324,-7.31143 c 1.55704,-0.90429 -1.51557,-2.0037 -4.714,-1.68672 -1.72852,0.1713 -3.70526,0.34018 -4.39276,0.37529 -0.6875,0.0351 -1.25,0.76641 -1.25,1.62511 0,1.29257 0.81752,1.44275 4.75,0.87259 2.6125,-0.37878 5.13554,-0.9126 5.60676,-1.18627 z M 260,323 c 0,-0.55 -0.45,-1 -1,-1 -0.55,0 -1,0.45 -1,1 0,0.55 0.45,1 1,1 0.55,0 1,-0.45 1,-1 z m 73.39301,-0.58179 C 333.72686,321.54823 334,319.9885 334,318.95214 c 0,-1.03636 0.75565,-3.4689 1.67922,-5.40566 0.92358,-1.93675 1.40096,-3.79964 1.06084,-4.13975 -0.34011,-0.34011 -2.78326,0.87949 -5.42922,2.71023 -7.30439,5.0539 -8.22161,5.95198 -7.63641,7.477 0.7135,1.85936 3.23734,1.79954 3.96394,-0.094 C 328.6823,316.77958 331,317.81377 331,321 c 0,3.2057 1.39079,4.02995 2.39301,1.41821 z m 272.33616,-5.02238 c -0.33229,-0.33229 -1.1948,-0.36781 -1.91667,-0.0789 -0.79773,0.31922 -0.56078,0.55618 0.60417,0.60416 1.05416,0.0434 1.64479,-0.19293 1.3125,-0.52522 z M 599,311.19617 c 0,-1.21569 -6.88899,-7.64052 -7.51802,-7.01148 -0.30139,0.30139 0.89967,2.18313 2.66902,4.18165 3.09744,3.49862 4.849,4.52081 4.849,2.82983 z M 431.21497,307.25 c 2.38833,-2.51866 6.55514,-5.51009 21.24193,-15.25 1.24402,-0.825 5.05695,-3.4125 8.47319,-5.75 3.41624,-2.3375 6.70658,-4.25 7.31188,-4.25 0.6053,0 1.81098,-0.60843 2.67929,-1.35207 0.86831,-0.74363 5.17874,-2.82305 9.57874,-4.62094 7.21265,-2.94715 15.34678,-7.00545 18,-8.98059 1.13184,-0.84257 8.98137,-1.40964 18.24949,-1.31838 5.18982,0.0511 7.73325,0.76767 15,4.22597 20.38781,9.7027 19.39087,9.40766 15.77653,4.66901 -1.74259,-2.28465 -4.01644,-3.78037 -7.02957,-4.62399 C 535.74483,268.66863 525.93662,259.694 508,240.26434 c -4.675,-5.06414 -9.67913,-9.70073 -11.12028,-10.30353 -1.44115,-0.60279 -3.08654,-2.11931 -3.65641,-3.37005 -0.56987,-1.25073 -2.65827,-3.04381 -4.64088,-3.98462 -1.98261,-0.94081 -4.32648,-2.81207 -5.2086,-4.15835 -3.00002,-4.57862 -7.55898,-2.7057 -10.30139,4.23205 -0.76512,1.93559 -2.55892,3.79766 -4.58428,4.75876 -1.83003,0.8684 -3.47602,1.98449 -3.65775,2.48018 -0.18172,0.4957 -2.80541,1.1911 -5.83041,1.54534 -3.025,0.35424 -6.85,1.03962 -8.5,1.52307 -1.65,0.48345 -4.94133,1.12491 -7.31407,1.42546 -4.64957,0.58896 -13.44559,4.589 -16.68593,7.58803 -1.1,1.01808 -3.22975,2.15626 -4.73277,2.52927 -3.40412,0.84483 -7.58722,7.05006 -5.89403,8.74325 0.61974,0.61974 1.1268,2.09206 1.1268,3.27181 0,1.17976 0.9,2.9595 2,3.95499 1.1,0.99549 2,2.27078 2,2.83398 0,1.41957 6.96087,7.66602 8.54279,7.66602 0.71027,0 3.39436,0.90143 5.96464,2.00319 2.57029,1.10175 5.0163,1.79116 5.43559,1.53203 0.41928,-0.25914 1.59113,0.13488 2.6041,0.87558 1.78723,1.30685 1.78598,1.43175 -0.0425,4.21797 -1.03634,1.57917 -1.99843,3.93332 -2.13798,5.23143 -0.37411,3.48012 -0.8519,3.60986 -6.53471,1.77452 -6.09553,-1.96864 -8.59645,-0.79275 -4.18885,1.96952 1.57129,0.98474 3.04164,1.92388 3.26744,2.08697 C 434.83457,291.35863 430.55369,295 428.84501,295 427.68537,295 427,295.72102 427,296.94098 c 0,1.06754 -0.41238,2.19585 -0.91641,2.50736 -1.01762,0.62892 -0.78698,6.60454 0.32432,8.40266 1.02031,1.65089 2.8938,1.41666 4.80706,-0.601 z M 381,300 c -0.79314,-0.49019 -1.66708,-0.66625 -1.94208,-0.39125 -0.275,0.275 0.14894,0.90106 0.94208,1.39125 0.79314,0.49019 1.66708,0.66625 1.94208,0.39125 0.275,-0.275 -0.14894,-0.90106 -0.94208,-1.39125 z m 206,0 c 0,-0.55 -0.47656,-1 -1.05902,-1 -0.58246,0 -0.7809,0.45 -0.44098,1 0.33992,0.55 0.81648,1 1.05902,1 0.24254,0 0.44098,-0.45 0.44098,-1 z m -229.59345,-0.8488 c 0.28853,-0.46684 -0.81802,-0.88697 -2.45898,-0.93363 -1.64096,-0.0466 -2.72391,0.33531 -2.40655,0.8488 0.72093,1.1665 4.15997,1.22646 4.86553,0.0848 z m -8.32087,-1.54797 c -0.69868,-0.84185 -2.0385,-1.15506 -3.37245,-0.78837 -2.02986,0.55798 -1.96467,0.66391 0.78677,1.27845 1.65,0.36853 3.1676,0.7233 3.37244,0.78838 0.20485,0.0651 -0.1492,-0.51023 -0.78676,-1.27846 z M 369,297 c 0,-0.55 -0.675,-1 -1.5,-1 -0.825,0 -1.5,0.45 -1.5,1 0,0.55 0.675,1 1.5,1 0.825,0 1.5,-0.45 1.5,-1 z m 194,-13.90217 c 0,-0.4962 -1.35,-1.37279 -3,-1.94799 -3.3563,-1.17001 -3.89079,-0.54653 -1.25,1.45811 2.02888,1.54014 4.25,1.79616 4.25,0.48988 z M 360,246 c 0,-0.55 -0.47656,-1 -1.05902,-1 -0.58246,0 -0.7809,0.45 -0.44098,1 0.33992,0.55 0.81648,1 1.05902,1 C 359.80156,247 360,246.55 360,246 Z M 169.99018,170.51183 c 1.00194,-1.20726 0.92253,-1.60809 -0.42068,-2.12354 -1.85699,-0.71259 -2.85674,-0.0389 -3.17663,2.14065 -0.28001,1.90789 2.00874,1.897 3.59731,-0.0171 z M 158,170 c 0,-0.55 -0.47656,-1 -1.05902,-1 -0.58246,0 -0.7809,0.45 -0.44098,1 0.33992,0.55 0.81648,1 1.05902,1 0.24254,0 0.44098,-0.45 0.44098,-1 z m 53.44721,-7.08541 c -0.32197,-0.52097 -1.01165,-0.68378 -1.53262,-0.3618 -0.52097,0.32197 -0.68378,1.01165 -0.3618,1.53262 0.32197,0.52097 1.01165,0.68378 1.53262,0.3618 0.52097,-0.32197 0.68378,-1.01165 0.3618,-1.53262 z M 165,161.88342 c 0,-0.6546 -1.04422,-0.91696 -2.52387,-0.63411 -1.38812,0.26536 -2.75254,0.11247 -3.03202,-0.33975 -0.62595,-1.0128 -3.44411,-0.033 -3.44411,1.19743 0,0.49115 2.025,0.89301 4.5,0.89301 2.64655,0 4.5,-0.45989 4.5,-1.11658 z m 601.52799,244.16186 c -0.33857,-0.54781 -1.95513,-0.84006 -3.59236,-0.64943 -1.63722,0.19063 -3.2169,-0.0419 -3.51038,-0.5168 -0.29349,-0.47487 3.11408,-0.82435 7.57237,-0.77663 5.20054,0.0557 7.98008,0.46448 7.75472,1.14056 -0.46547,1.39642 -7.43686,2.07649 -8.22435,0.8023 z m 10.78479,-0.6914 c 1.00713,-1.00712 6.72772,-1.22843 6.11471,-0.23655 -0.30004,0.48547 -1.94397,0.88267 -3.65317,0.88267 -1.70921,0 -2.8169,-0.29075 -2.46154,-0.64612 z m 10.94983,-4.4482 c -0.81105,-0.83928 -4.77331,-1.36916 -11.5,-1.53791 -22.19316,-0.55676 -36.99697,-1.2688 -37.53346,-1.80529 -0.30937,-0.30936 8.85002,-0.62094 20.35418,-0.6924 31.76824,-0.19732 49.29988,-1.10103 54.91667,-2.83081 6.71995,-2.06951 19.37823,-3.03858 45.24179,-3.46351 14.98298,-0.24617 27.69469,-0.72749 28.24824,-1.0696 0.55356,-0.34211 2.00738,0.079 3.23072,0.93591 2.78933,1.95372 3.77925,1.9689 3.77925,0.0579 0,-0.825 0.45,-1.5 1,-1.5 1.24245,0 1.27994,3.0092 0.0615,4.93474 -0.73544,1.16224 -5.05356,1.48028 -22.73469,1.67444 -20.2108,0.22195 -30.79435,0.9541 -48.8268,3.37778 -20.28545,2.72649 -34.7183,3.49069 -36.23739,1.91872 z m 9.37913,-15.59859 c -0.10682,-0.10609 -6.93274,-0.41467 -15.16871,-0.68573 -8.23597,-0.27105 -15.71252,-0.77603 -16.61457,-1.12218 -1.48491,-0.56981 -5.35489,-0.84882 -18.85846,-1.35959 -3.21823,-0.12173 -4.07958,-0.43608 -3.02401,-1.10359 0.81179,-0.51335 5.53679,-0.7145 10.5,-0.44699 4.9632,0.2675 14.64901,0.65735 21.52401,0.86633 18.27789,0.55558 38.16679,1.59076 40.75,2.12096 1.2375,0.25399 2.25016,0.79073 2.25036,1.19275 3.1e-4,0.60837 -20.76126,1.13137 -21.35862,0.53804 z M 753.25,377.25749 c -4.34244,-0.2067 -7.25,-0.7811 -7.25,-1.43225 0,-0.73835 2.32599,-0.8936 7.25,-0.48388 3.9875,0.33179 9.05,0.62261 11.25,0.64626 2.9573,0.0318 3.60899,0.2957 2.5,1.01238 -0.825,0.53316 -2.625,0.88685 -4,0.78599 -1.375,-0.10086 -5.7625,-0.33868 -9.75,-0.5285 z M 770,376.96133 c 0,-1.17976 23.65022,-1.1728 26.5,0.008 1.19822,0.4964 -3.71268,0.85361 -12.25,0.89104 -8.49452,0.0373 -14.25,-0.32579 -14.25,-0.89884 z M 24.708658,168.37532 c -0.996187,-0.99618 7.880907,-7.8316 12.021012,-9.25625 6.998079,-2.4081 24.750657,-9.34092 27.414813,-10.70615 3.653114,-1.87202 11.416143,-1.87594 24.215553,-0.0122 5.973019,0.86973 11.19025,1.37724 11.593846,1.1278 0.403598,-0.24943 2.266578,-0.0565 4.139968,0.42879 1.87338,0.48527 5.43115,1.11893 7.90615,1.40812 14.82556,1.7323 21.02675,2.9196 25.26979,4.83821 2.62339,1.18624 4.3936,2.53299 3.9338,2.99279 -0.45979,0.45979 -4.32497,1.04647 -8.58927,1.30372 -4.26431,0.25725 -8.20038,0.74404 -8.74682,1.08176 -0.54644,0.33772 -1.88408,-0.19191 -2.97255,-1.17695 -1.25723,-1.13779 -3.87844,-1.8846 -7.18698,-2.04765 -2.86438,-0.14116 -7.68297,-0.45758 -10.70797,-0.70314 -22.031601,-1.7885 -24.74939,-1.86866 -25.440524,-0.75038 -0.423524,0.68527 -2.009688,0.93905 -3.887457,0.62198 -9.198298,-1.5532 -18.940199,-1.37224 -23.025439,0.4277 -2.280619,1.00484 -6.772626,2.83538 -9.982237,4.06787 -3.209612,1.2325 -6.901658,3.3069 -8.204546,4.60979 -2.220454,2.22046 -6.346441,3.14891 -7.751139,1.74421 z M 842,29.559017 c 0,-1.501164 1.79534,-3.097015 2.59007,-2.302281 C 845.28755,27.954214 843.9067,31 842.89301,31 842.40186,31 842,30.351558 842,29.559017 Z" id="path12" style="fill:#000000" inkscape:connector-curvature="0"/>
</svg>
