<?xml version="1.0" encoding="utf-8"?>
<svg xmlns="http://www.w3.org/2000/svg" version="1.1" viewBox="0 0 1175 632">
	<title>The kangaroo and the duck are having a conversation.</title>
	<path d="m 1055.6632,621.38539 c -0.09,-0.063 -7.5722,-0.41617 -16.6276,-0.78475 -20.1448,-0.81995 -21.4497,-1.08133 -20.938,-4.1941 0.054,-0.3264 -1.14,-1.88513 -2.6525,-3.46384 -2.3527,-2.45572 -2.5579,-3.10183 -1.4204,-4.47248 1.9563,-2.35717 6.1228,-4.13155 8.9753,-3.82232 8.0635,0.87413 13.3105,-2.33076 10.9714,-6.70141 -1.4826,-2.77013 -6.8695,-5.93816 -10.105,-5.94275 -1.8008,-0.003 -3.7765,-1.26866 -6.2474,-4.00374 -1.9876,-2.2 -3.8803,-4 -4.2061,-4 -0.9134,0 -4.3422,-4.36523 -4.3796,-5.57569 -0.043,-1.38379 -4.3268,-5.42431 -5.7511,-5.42431 -1.7234,0 -8.50506,-13.9873 -9.45447,-19.5 -0.47362,-2.75 -1.27762,-9.43459 -1.78668,-14.85464 -0.9211,-9.80714 -0.94452,-9.87088 -4.85884,-13.22139 -3.84685,-3.29276 -6.67348,-9.31659 -7.58774,-16.17025 -0.20204,-1.51455 -1.1817,-6.12872 -2.17703,-10.25372 -2.52639,-10.47031 -2.23189,-15.98272 1.43214,-26.8069 1.73273,-5.11879 3.15042,-9.92333 3.15042,-10.67675 0,-0.75343 -1.2375,-2.02807 -2.75,-2.83254 -17.39221,-9.25056 -20.65087,-11.82018 -20.08238,-15.83595 0.29525,-2.08559 0.98508,-2.40589 6.17547,-2.86734 4.04999,-0.36006 7.15084,-0.0231 10.10457,1.09816 4.77002,1.81066 10.96756,1.44574 10.18269,-0.59958 -0.65998,-1.71989 4.26463,-8.25635 9.2216,-12.23988 3.41882,-2.74744 4.83673,-3.23672 9.33945,-3.22277 6.054,0.0188 11.8724,2.80043 15.1762,7.25547 4.0953,5.52234 1.1136,16.83432 -6.9142,26.231 -4.1742,4.88594 -4.7606,6.13134 -4.7023,9.98755 0.037,2.42307 0.3634,4.88578 0.7261,5.4727 0.8212,1.32872 6.1352,3.58707 10.6294,4.51731 1.8664,0.38632 4.9684,1.70944 6.8934,2.94026 3.658,2.33886 11.8182,4.80966 13.1554,3.98325 0.4268,-0.2638 2.5914,0.44653 4.8103,1.57851 2.2189,1.13198 4.0343,1.85581 4.0343,1.6085 0,-0.6049 14.3739,4.5413 20,7.16046 2.475,1.15222 7.9899,3.67631 12.2553,5.6091 4.2654,1.93279 9.7117,5.11735 12.103,7.0768 2.3912,1.95945 4.6908,3.56264 5.1102,3.56264 0.4194,0 3.9676,2.1375 7.8848,4.75 3.9173,2.6125 8.0278,5.24215 9.1345,5.84366 1.1067,0.60152 4.4872,2.45887 7.5122,4.12744 9.0363,4.98439 11.3295,6.15619 15,7.66507 8.9191,3.66646 20.5839,8.93908 21.3726,9.66071 0.48,0.43912 1.0091,2.83947 1.1759,5.3341 0.2904,4.34436 0.032,4.82824 -6.1169,11.47001 -3.531,3.81387 -8.1102,7.77072 -10.1758,8.79299 -2.0657,1.02228 -5.7146,3.43309 -8.1086,5.35735 -2.3941,1.92427 -4.6623,3.49867 -5.0405,3.49867 -0.3782,0 -2.6095,1.52216 -4.9584,3.38258 -3.8111,3.01841 -4.5474,3.25662 -6.8388,2.21256 -1.4124,-0.64351 -2.6223,-1.04067 -2.6887,-0.88258 -0.066,0.15809 -0.596,1.14962 -1.1768,2.20339 -1.2718,2.30755 -11.4069,5.85971 -12.9842,4.5507 -0.6908,-0.57336 -2.4202,0.20058 -4.7627,2.13149 -2.0229,1.66744 -4.1752,2.72442 -4.7829,2.34884 -0.6077,-0.37558 -2.0745,-0.2169 -3.2596,0.35264 -4.6432,2.23154 -8.8835,3.14824 -10.5175,2.27376 -1.7771,-0.9511 -6.0613,1.33571 -4.8228,2.57428 0.3676,0.36758 0.1835,1.25251 -0.4091,1.96653 -1.7061,2.05578 -0.4437,2.97176 7.3217,5.31248 10.9239,3.29277 12.2229,4.11593 12.5959,7.98168 0.1776,1.84028 -0.1808,3.85124 -0.7964,4.46881 -0.7014,0.70369 -7.667,1.30949 -18.6597,1.62284 -9.6472,0.275 -17.6138,0.44843 -17.7035,0.38539 z m -3.8206,-16.79941 c 1.4149,-1.41489 1.3418,-1.76557 -0.7805,-3.74271 -2.2645,-2.10978 -2.3863,-2.12035 -3.7018,-0.32128 -0.7482,1.02315 -1.3603,2.22426 -1.3603,2.66914 0,0.44488 -0.675,0.80887 -1.5,0.80887 -0.825,0 -1.5,0.85261 -1.5,1.89469 0,1.663 0.4452,1.79428 3.6407,1.07357 2.0024,-0.45161 4.3432,-1.52363 5.2019,-2.38228 z m 7.4264,-20.13457 c 1.5117,-1.40173 4.2071,-2.67948 5.9898,-2.83944 4.4962,-0.40346 4.5664,-2.0457 0.1021,-2.38829 -3.6676,-0.28145 -7.3609,-3.19621 -7.3609,-5.8093 0,-1.8252 3.5698,-2.71501 5.8965,-1.46978 2.1565,1.15412 6.4132,1.41236 7.378,0.44759 0.3343,-0.3343 0.2372,-1.3468 -0.2157,-2.25 -0.453,-0.90321 -1.2221,-2.99219 -1.7092,-4.64219 -0.7235,-2.45061 -1.4982,-3.05892 -4.23,-3.32174 -2.2886,-0.22017 -3.5026,-0.92692 -3.8457,-2.23875 -0.2757,-1.05436 -0.9308,-1.65156 -1.4558,-1.32711 -0.5249,0.32444 -0.7129,1.21938 -0.4177,1.98875 0.3098,0.80714 -0.084,1.39885 -0.9318,1.39885 -0.8077,0 -1.4686,-0.5051 -1.4686,-1.12244 0,-0.78407 -0.4446,-0.75348 -1.4747,0.10145 -1.184,0.98264 -2.3304,0.80965 -5.8157,-0.87756 C 1047.322,558.94565 1044.19,558 1042.7497,558 c -4.7659,0 -17.1427,-3.03432 -20.5308,-5.03336 -1.8333,-1.08165 -3.965,-1.96664 -4.7371,-1.96664 -1.7088,0 -4.8803,-3.22675 -8.0894,-8.23013 -4.6107,-7.18876 -1.9934,-7.85066 5.5574,-1.40544 4.1256,3.52162 6.1024,4.48161 10.2365,4.97123 3.1019,0.36737 5.9757,1.40733 7.2831,2.63557 2.2146,2.08052 6.9692,2.7461 7.9763,1.11657 0.6528,-1.0562 -5.2951,-5.95648 -10.5628,-8.70233 -1.9894,-1.03701 -5.9371,-4.69057 -8.7728,-8.11902 -3.9559,-4.78298 -5.3858,-7.44701 -6.1446,-11.44822 -0.5439,-2.86806 -1.3763,-5.46297 -1.8497,-5.76645 -0.4735,-0.30348 -0.6415,-2.01869 -0.3734,-3.81158 0.3749,-2.50707 1.0959,-3.40491 3.1225,-3.88825 1.4493,-0.34566 3.0591,-0.87129 3.5774,-1.16808 1.7193,-0.98454 12.9819,-1.02721 14.7965,-0.0561 2.1872,1.17056 7.4592,-1.11303 10.8141,-4.68414 1.2627,-1.34401 3.3423,-2.44366 4.6214,-2.44366 4.5371,0 2.2349,-1.74484 -3.9243,-2.97427 -8.1925,-1.63531 -12.3915,-2.87783 -17.1855,-5.08535 -4.3843,-2.01887 -7.5645,-1.20335 -7.5645,1.93982 0,2.06897 -2.1701,4.17307 -6.5,6.30227 -1.65,0.81138 -5.3283,2.70651 -8.1739,4.2114 -4.921,2.60241 -5.3215,2.65985 -8.19327,1.17482 -1.89604,-0.98048 -3.24841,-1.19069 -3.6351,-0.56502 -1.00119,1.61996 0.43869,2.99633 3.13461,2.99633 1.85789,0 2.42526,0.45687 2.17311,1.75 -0.21363,1.09565 -1.26557,1.7572 -2.81334,1.76927 -3.04442,0.0237 -3.92041,3.08145 -1.40892,4.9179 1.76986,1.29415 2.16055,2.33728 3.11694,8.3221 0.28647,1.7926 0.92113,3.50665 1.41037,3.80902 0.4892,0.30236 0.8895,1.43815 0.8895,2.52397 0,1.08583 1.1191,4.18262 2.4868,6.88177 1.7771,3.50686 2.3124,5.77999 1.8755,7.96428 -0.3657,1.82861 -0.1146,3.65527 0.6251,4.54647 0.68,0.81936 0.9626,2.20308 0.6281,3.07493 -0.3346,0.87184 -0.1059,2.56508 0.5081,3.76273 1.5979,3.11675 7.047,8.67756 8.5032,8.67756 1.6851,0 7.7529,3.81266 12.3341,7.75 2.0798,1.7875 4.1869,3.25 4.6825,3.25 0.4955,0 2.6704,1.4586 4.8332,3.24133 2.1628,1.78273 4.6576,3.11845 5.5441,2.96826 0.8866,-0.15018 2.4393,0.64122 3.4506,1.75867 2.7451,3.03336 9.2524,2.77055 12.7977,-0.51685 z m 24.481,-5.69624 c 2.3748,-1.89999 1.2391,-2.65405 -1.967,-1.30599 -3.8802,1.63153 -5.244,4.13672 -1.6513,3.03337 1.3026,-0.40003 2.9308,-1.17735 3.6183,-1.72738 z m 22.25,-7.14818 c 0,-0.94863 -2.9934,-1.42672 -3.527,-0.56332 -0.3251,0.52598 0.3355,0.95633 1.468,0.95633 1.1324,0 2.059,-0.17686 2.059,-0.39301 z m -21.925,-3.88199 c -0.1237,-1.1957 -1.4953,-0.96414 -1.925,0.325 -0.22,0.66 0.14,1.02 0.8,0.8 0.66,-0.22 1.1663,-0.72625 1.125,-1.125 z M 1123,548.51179 c 0,-0.94724 0.8179,-1.40162 2.25,-1.25 1.7836,0.18884 2.3156,-0.33168 2.5664,-2.5113 0.2505,-2.17684 -0.2164,-2.95206 -2.2413,-3.72195 -2.622,-0.99689 -5.5751,-0.46133 -5.5751,1.01106 0,0.45409 0.9,1.11127 2,1.4604 2.9437,0.93431 2.4879,2.83927 -0.5,2.08936 -2.7741,-0.69625 -2.9781,-0.35127 -1.4648,2.47638 1.2266,2.292 2.9648,2.5535 2.9648,0.44605 z m -11,-3.39516 c 0,-0.48585 -0.8417,-1.10348 -1.8705,-1.37252 -1.1618,-0.30381 -2.2038,-1.89291 -2.75,-4.19408 -0.7947,-3.34785 -1.4077,-3.89087 -6.3598,-5.63406 -3.0141,-1.06101 -5.9391,-1.77467 -6.5,-1.5859 -0.5608,0.18876 0.6782,0.90506 2.7534,1.59176 2.7908,0.92347 4.2932,2.26782 5.7704,5.16336 1.0984,2.15314 2.438,3.91481 2.9768,3.91481 0.5388,0 0.9797,0.675 0.9797,1.5 0,0.93333 0.9444,1.5 2.5,1.5 1.375,0 2.5,-0.39752 2.5,-0.88337 z m -15.6072,-6.53538 C 1096.0149,537.59642 1094.5817,537 1092.593,537 c -1.7561,0 -3.733,-0.54 -4.393,-1.2 -0.8791,-0.87908 -1.2,-0.89163 -1.2,-0.0469 0,0.6342 1.575,1.90047 3.5,2.81394 2.3683,1.12383 3.5,2.34266 3.5,3.76943 v 2.10856 l 1.4998,-2.14125 c 0.8249,-1.17769 1.2267,-2.85282 0.893,-3.72251 z M 1087.5,540 c -0.3399,-0.55 -1.2399,-1 -2,-1 -1.9964,0 -2.9856,-2.08185 -1.4424,-3.03559 1.0788,-0.66677 1.0813,-1.09214 0.014,-2.37853 -1.3271,-1.59897 -6.2084,-1.19683 -6.9046,0.56883 -0.445,1.12846 -3.1667,1.08745 -3.1667,-0.0477 0,-0.49116 0.7875,-1.1983 1.75,-1.57142 1.6631,-0.64472 1.6622,-0.74304 -0.017,-1.97993 -1.0557,-0.7775 -1.516,-1.95663 -1.143,-2.92858 0.678,-1.76676 0.1279,-1.92582 -3.3962,-0.98198 -1.4111,0.37793 -2.1026,1.14907 -1.7813,1.98634 0.3348,0.87249 -0.1885,1.36858 -1.4435,1.36858 -1.0827,0 -1.9686,0.225 -1.9686,0.5 0,0.93347 3.9944,4.5 5.0398,4.5 0.5719,0 2.8219,0.90915 5,2.02032 2.1781,1.11118 3.9602,1.77181 3.9602,1.46807 0,-0.30375 1.2375,0.11909 2.75,0.93964 3.1821,1.72633 5.6469,2.02312 4.75,0.57197 z m 3.2586,-8.2243 c -0.4297,-1.28909 -6.7586,-3.01439 -6.7586,-1.84244 0,0.63446 4.466,2.72198 6.3333,2.96036 0.4584,0.0585 0.6497,-0.44455 0.4253,-1.11792 z M 1080,528.5 c -0.6847,-0.825 -1.9199,-1.5 -2.7449,-1.5 -1.2199,0 -1.2676,0.28005 -0.2551,1.5 0.6847,0.825 1.9199,1.5 2.7449,1.5 1.2199,0 1.2676,-0.28005 0.2551,-1.5 z m -26.0098,-0.98817 c 1.0002,-1.20519 0.9284,-1.60583 -0.3776,-2.10699 -0.8869,-0.34035 -1.6126,-1.67984 -1.6126,-2.97665 0,-1.33437 -0.8681,-2.82243 -2,-3.42819 -1.356,-0.7257 -2,-0.73703 -2,-0.0352 0,0.56935 -0.7033,1.03518 -1.5629,1.03518 -0.9042,0 -1.4716,-0.73746 -1.3463,-1.75 0.5172,-4.17933 -3.3789,-7.26872 -4.7292,-3.75 -0.7349,1.91514 -2.7655,1.92314 -4.3474,0.0171 -2.0595,-2.48154 -8.1363,-3.71658 -9.9978,-2.03194 -1.8005,1.62941 -2.3578,5.18579 -0.9491,6.05642 0.517,0.31953 0.6737,1.64203 0.3482,2.93889 -0.7224,2.87848 2.8598,5.60516 8.1264,6.18554 3.6931,0.40697 4.2255,-0.46438 2.2331,-3.65464 -0.9124,-1.46104 -0.9359,-2.25051 -0.092,-3.09437 1.6738,-1.67386 7.6088,0.554 8.8295,3.3144 0.9537,2.15675 4.7954,4.72351 7.1151,4.75384 0.6201,0.008 1.6833,-0.65494 2.3626,-1.47343 z M 1029,519.91667 c 0,-2.43705 2.3368,-2.09257 2.8233,0.4162 0.1914,0.98676 -0.3187,1.66713 -1.25,1.66713 -0.9276,0 -1.5733,-0.855 -1.5733,-2.08333 z M 1099,528 c 0,-0.55 -0.7016,-1 -1.559,-1 -0.8575,0 -1.2809,0.45 -0.941,1 0.3399,0.55 1.0415,1 1.559,1 0.5176,0 0.941,-0.45 0.941,-1 z m -44,-12.5 c -3.272,-1.87047 -5.0448,-1.84843 -2.5589,0.0318 1.0677,0.80751 2.6427,1.45225 3.5,1.43276 0.9992,-0.0227 0.6613,-0.54853 -0.9411,-1.46456 z m 15.8849,-0.32668 C 1068.6863,513.48932 1060.8588,510 1059.2798,510 c -1.7069,0 2.1003,2.49553 6.9136,4.53174 6.6475,2.8121 7.716,2.95823 4.6915,0.64158 z M 1041,509 c 0,-0.55 -0.1984,-1 -0.441,-1 -0.2425,0 -0.7191,0.45 -1.059,1 -0.3399,0.55 -0.1415,1 0.441,1 0.5824,0 1.059,-0.45 1.059,-1 z m -33.6645,-14.8827 c 2.3326,-1.53788 6.6645,-7.09126 6.6645,-8.54364 0,-0.9513 -6.1059,-2.36724 -8.1818,-1.89736 -3.3397,0.75596 -10.55965,4.09634 -11.24272,5.20158 -1.05916,1.71375 0.63075,4.19917 3.80007,5.58891 4.27585,1.87497 5.66845,1.82065 8.95995,-0.34949 z M 1097,618 c 0,-0.55 0.45,-1 1,-1 0.55,0 1,0.45 1,1 0,0.55 -0.45,1 -1,1 -0.55,0 -1,-0.45 -1,-1 z m -919.39604,-7.72916 c -0.12592,-0.12604 -13.08179,-0.40204 -28.79082,-0.61333 -15.70903,-0.2113 -29.13987,-0.74141 -29.84632,-1.17802 -0.70645,-0.43661 -3.67712,-0.92657 -6.6015,-1.08881 -5.60056,-0.31071 -11.81613,-2.11237 -18.607564,-5.39363 -3.24013,-1.56546 -4.382129,-1.72376 -5.534734,-0.76718 -1.167533,0.96897 -1.783285,0.79646 -3.140724,-0.87991 -0.928658,-1.14684 -3.239581,-2.31947 -5.135384,-2.60584 -5.09804,-0.77008 -8.010204,-1.5628 -9.298942,-2.53127 C 70.016587,594.73837 67.475,593.7749 65,593.07181 c -2.475,-0.7031 -5.014831,-1.69742 -5.644069,-2.20961 -0.629237,-0.51219 -3.779237,-2.24799 -7,-3.85732 -9.565851,-4.77981 -15.831097,-11.51141 -17.744333,-19.06513 -2.082571,-8.22228 -2.788878,-18.81335 -1.651674,-24.76686 0.807607,-4.22799 2.051497,-6.48717 6.028814,-10.94962 C 41.744932,529.13089 44,526.30894 44,525.95226 c 0,-0.35668 1.8,-1.4602 4,-2.45226 2.2,-0.99206 4.003075,-2.29791 4.006833,-2.90187 0.0038,-0.60397 1.691258,-2.18144 3.75,-3.50549 2.058742,-1.32404 5.543167,-3.5924 7.743167,-5.04079 2.2,-1.44839 6.25,-3.7348 9,-5.08091 2.75,-1.3461 7.025,-3.83938 9.5,-5.54062 2.475,-1.70123 7.875,-4.70519 12,-6.67546 C 110.043,487.09206 116.88079,484 117.78338,484 c 0.5168,0 4.17923,-1.78073 8.13873,-3.95718 3.95949,-2.17645 8.85931,-4.47713 10.88848,-5.11262 2.02918,-0.63549 5.48941,-1.97412 7.68941,-2.97472 C 159.7737,465.00865 170.05561,461 172.60001,461 c 1.63099,0 6.07531,-1.65135 9.87627,-3.66967 3.80096,-2.01832 8.51124,-3.99984 10.46728,-4.40338 C 194.8996,452.5234 198.975,451.20628 202,450 c 3.025,-1.20628 7.075,-2.52759 9,-2.93624 1.925,-0.40866 5.29334,-1.71518 7.48519,-2.90339 2.19186,-1.1882 4.56881,-2.16037 5.28212,-2.16037 0.71331,0 2.96997,-0.74173 5.01481,-1.64829 4.4087,-1.95455 9.56728,-3.90744 21.66079,-8.20013 4.91859,-1.74589 9.8752,-3.78522 11.01466,-4.53182 1.13947,-0.74661 3.5225,-1.67611 5.29563,-2.06555 1.77313,-0.38945 3.48058,-1.12346 3.79435,-1.63115 0.31377,-0.50768 1.33947,-0.92306 2.27933,-0.92306 0.93987,0 3.27581,-1.06384 5.19099,-2.3641 C 282.61951,417.51175 300.51615,408 301.7927,408 c 0.5509,0 2.40946,-1.2375 4.13013,-2.75 3.25186,-2.85845 10.91134,-7.34138 24.57717,-14.3845 4.4,-2.26768 10.59253,-6.0901 13.76117,-8.49428 3.16864,-2.40417 6.24509,-4.37122 6.83655,-4.37122 0.59146,0 3.84894,-2.62277 7.23883,-5.82838 9.98676,-9.44384 39.90794,-34.73087 43.16345,-36.47835 1.65,-0.88568 7.725,-5.93706 13.5,-11.22529 5.775,-5.28822 11.52403,-10.02513 12.77563,-10.52646 1.25159,-0.50133 2.55999,-1.70576 2.90755,-2.67651 0.34757,-0.97076 3.14853,-4.52332 6.22438,-7.89459 8.40494,-9.21221 14.88136,-17.29427 18.32682,-22.87042 1.6992,-2.75 5.7166,-8.90141 8.92754,-13.6698 3.21094,-4.76838 5.83808,-8.99539 5.83808,-9.39334 0,-0.98521 24.87535,-37.91383 29.85746,-44.3248 1.54386,-1.98663 4.1324,-6.08706 5.75232,-9.11206 1.61992,-3.025 6.75792,-10.13035 11.41777,-15.78967 4.65985,-5.65932 10.13031,-12.83057 12.15658,-15.9361 2.02627,-3.10554 7.03865,-9.27518 11.13862,-13.71033 11.46286,-12.39994 18.97735,-20.93501 21.17725,-24.05341 4.0681,-5.76661 7.89905,-10.26399 17.54121,-20.59266 5.43335,-5.8202 11.58431,-12.67172 13.6688,-15.225598 C 596.56103,93.974034 604.05256,88 606.11823,88 607.06334,88 617.49798,82.435092 623,78.996768 c 2.59199,-1.619789 16.22172,-7.743082 23,-10.332984 7.39064,-2.823878 23.29951,-9.412567 30,-12.424557 7.06532,-3.175988 7.85119,-3.370146 19.5,-4.8177 15.16983,-1.885098 21.24971,-3.064711 26.5,-5.141512 3.90523,-1.544748 7.53994,-1.757898 27.5,-1.612679 17.56646,0.127805 24.65369,0.562138 30,1.83852 3.85,0.919151 8.35,1.918119 10,2.219929 1.65,0.30181 3.88763,1.161976 4.97251,1.91148 1.08487,0.749504 2.88487,1.369626 4,1.378048 2.44729,0.01848 5.21893,1.626584 4.33205,2.513455 -0.35063,0.350633 -3.91391,1.048914 -7.9184,1.551736 -7.92735,0.995394 -9.77257,1.938948 -7.49246,3.831272 1.13107,0.938707 1.98472,0.956066 3.63311,0.07388 1.50839,-0.807269 2.95225,-0.852463 4.81392,-0.150677 1.4626,0.551351 4.00927,1.28286 5.65927,1.625576 1.65,0.342716 4.8,1.461673 7,2.486572 7.97435,3.714955 19.03432,8.057763 20.51481,8.055347 0.83314,-0.0014 3.08314,0.828468 5,1.844061 1.91685,1.015592 4.83519,2.176529 6.48519,2.579859 1.65,0.403329 5.925,3.329227 9.5,6.501994 3.575,3.172768 7.85,6.472164 9.5,7.331993 1.65,0.859828 7.4619,6.44049 12.91533,12.401469 5.45342,5.96098 11.31903,11.58669 13.03468,12.50158 3.73289,1.99059 4.72132,3.78089 8.10611,14.68211 1.42519,4.59005 4.1331,12.00139 6.01757,16.46964 1.88447,4.46826 3.42631,9.62261 3.42631,11.45412 0,1.83151 0.75242,4.77017 1.67204,6.53036 1.1451,2.19178 1.81631,6.59893 2.12986,13.98466 0.50955,12.00256 0.97935,12.79054 7.1981,12.073 4.48894,-0.51794 11.13175,2.81556 14.55541,7.30422 2.30216,3.01829 2.91445,3.28696 6.26849,2.75063 2.09839,-0.33555 6.21816,0.0587 9.46031,0.90537 5.4525,1.42384 5.79464,1.40364 6.75944,-0.39911 0.55894,-1.04437 3.40616,-3.70326 6.32717,-5.90865 4.34319,-3.27914 6.11934,-4.00978 9.74754,-4.00978 7.49527,0 12.59995,5.65414 11.31044,12.52786 L 977.77742,207 h 8.44879 8.44878 l 2.35131,-5.5622 c 3.9013,-9.22888 4.3631,-9.85357 9.0025,-12.17747 6.089,-3.05004 7.9189,-2.85292 12.8718,1.38659 6.1454,5.26022 6.6759,7.37455 3.2184,12.82643 -1.617,2.54985 -3.0781,6.53341 -3.4033,9.27907 -0.3134,2.6461 -2.23,9.24311 -4.2593,14.66003 -2.4365,6.50427 -3.8289,12.09682 -4.1002,16.46824 -0.5343,8.61192 -0.9259,11.36456 -2.6598,18.69719 -1.7476,7.38993 -2.9718,17.03295 -3.1006,24.42212 l -0.096,5.5 12.5,-0.25566 c 6.875,-0.14062 13.7294,-0.75436 15.232,-1.36388 3.1266,-1.26825 5.768,-0.59703 5.768,1.46571 0,3.27462 -3.1294,4.15144 -15.4038,4.31603 -6.6529,0.0892 -13.4306,0.56741 -15.0615,1.06267 l -2.9653,0.90046 4.9309,5.27153 c 2.712,2.89934 6.7706,6.34967 9.0191,7.66739 5.912,3.46466 9.7005,11.09308 7.8736,15.85396 -0.8965,2.33621 -2.0528,1.93119 -3.3352,-1.16821 -2.9215,-7.06078 -8.8445,-13.82111 -11.3712,-12.97887 -1.9852,0.66174 -1.9053,2.85893 0.1233,3.38942 1.1114,0.29063 2.2849,1.58102 2.6078,2.86754 0.3229,1.28652 1.936,3.29964 3.5847,4.47361 3.3051,2.35347 4.2356,6.9983 1.402,6.9983 -2.5157,0 -7.2927,-3.86273 -9.9159,-8.01822 -5.0748,-8.03904 -10.05308,-10.80812 -14.44075,-8.03245 -0.79874,0.50529 -1.86422,0.6641 -2.36774,0.35291 -1.39433,-0.86175 -9.68167,-0.90647 -9.68079,-0.0522 4.3e-4,0.4125 -1.03422,0.75 -2.29922,0.75 -1.265,0 -2.75188,0.45188 -3.30418,1.00418 -0.67224,0.67224 -2.73236,0.17048 -6.23225,-1.51792 -3.74719,-1.8077 -5.71464,-2.25702 -6.94582,-1.58626 -3.18343,1.73436 -8.04922,7.581 -8.38476,10.07497 -0.18315,1.36123 -1.34239,2.97618 -2.5761,3.58878 -1.23372,0.6126 -3.13778,1.92347 -4.23125,2.91304 -1.62723,1.47263 -2.26382,1.57043 -3.50688,0.53878 -2.11291,-1.75356 -2.0177,-2.02728 2.45286,-7.05181 2.18439,-2.45507 3.98439,-4.82902 4,-5.27544 0.083,-2.37465 -12.18135,2.07713 -13.82787,5.0193 -0.85241,1.52316 -3.14375,1.03799 -3.14375,-0.66567 0,-0.46201 1.9125,-1.82891 4.25,-3.03755 2.3375,-1.20864 5.02689,-2.88922 5.97642,-3.73461 3.99736,-3.55897 -1.89465,-4.44306 -8.46256,-1.26979 -5.27633,2.54925 -5.76386,2.51424 -5.76386,-0.41393 0,-1.93463 1.34027,-3.17562 6.75,-6.25 L 944.5,304.5 940,304 c -3.32009,-0.3689 -4.4129,-0.8924 -4.16781,-1.99657 0.84313,-3.79842 2.36394,-4.28676 11.50555,-3.69451 l 8.87219,0.57481 -0.62166,-3.19187 c -0.34192,-1.75552 -0.68915,-3.75436 -0.77163,-4.44186 -0.0825,-0.6875 -1.25507,-1.25 -2.60575,-1.25 -2.06953,0 -2.25998,-0.23592 -1.21089,-1.5 1.00327,-1.20887 0.97851,-1.51442 -0.12756,-1.57431 -0.75484,-0.0409 -2.44389,-0.27204 -3.75345,-0.51372 -1.30955,-0.24167 -2.88455,-0.0957 -3.5,0.32431 -1.74585,1.19156 -22.82382,0.71875 -25.61899,-0.57467 -1.375,-0.63626 -3.28594,-1.71713 -4.24654,-2.40193 -1.39213,-0.99243 -2.15035,-0.99291 -3.73644,-0.002 -1.09443,0.68349 -2.5934,1.24271 -3.33104,1.24271 -0.73764,0 -4.17969,1.1534 -7.64899,2.5631 -3.46931,1.40971 -7.87046,2.76317 -9.78035,3.00769 -1.90988,0.24453 -3.76144,0.61231 -4.11458,0.81729 -0.35313,0.20498 -3.11706,-0.424 -6.14206,-1.39773 -5.41029,-1.74155 -5.5367,-1.73675 -7.75,0.29393 -2.7913,2.56099 -2.85925,4.85438 -0.21473,7.24764 1.11939,1.01304 1.82834,2.38112 1.57544,3.04017 -0.2529,0.65906 0.83477,2.43859 2.41705,3.95451 3.33829,3.19828 8.10862,12.28242 7.60039,14.4734 -0.19138,0.825 -0.70169,3.46365 -1.13403,5.86366 -0.82262,4.56644 -5.57322,11.69787 -8.99412,13.50164 -1.1,0.58 -3.21928,1.86009 -4.70951,2.84463 -1.49023,0.98454 -2.90024,1.79007 -3.13337,1.79007 -0.96824,0 -1.39012,-4.04698 -0.48048,-4.60917 0.54388,-0.33614 1.87112,-2.47409 2.94942,-4.751 1.0783,-2.2769 2.67655,-5.45232 3.55168,-7.05647 1.84554,-3.38299 0.83757,-7.86044 -1.8877,-8.38528 -1.74138,-0.33536 -3.93217,5.85788 -6.82784,19.30192 -1.68169,7.80777 -2.59118,9.5 -5.10579,9.5 -1.73758,0 -1.96673,-0.4243 -1.41545,-2.6208 0.36178,-1.44144 1.30989,-3.27291 2.10691,-4.06993 0.79702,-0.79702 1.68211,-2.65516 1.96688,-4.1292 0.91904,-4.75732 2.26764,-9.57894 3.92163,-14.02086 0.88898,-2.38743 1.97885,-6.9916 2.42194,-10.23149 0.72194,-5.27894 0.51096,-6.55948 -2.03155,-12.33045 -2.30543,-5.23285 -2.64877,-6.93525 -1.83196,-9.08361 2.39158,-6.29034 0.65373,-9.2717 -6.61083,-11.34114 C 849.9686,277.62985 850,277.62272 850,280.39529 c 0,2.43793 5.46083,16.32413 7.10011,18.05471 1.22687,1.29519 1.13991,4.55 -0.12155,4.55 -0.56179,0 -1.53402,-1.125 -2.16051,-2.5 -0.6265,-1.375 -1.51685,-2.5 -1.97857,-2.5 -1.19089,0 -1.04634,6.75412 0.16052,7.5 1.72543,1.06638 1.10237,3.17891 -1.87885,6.3703 -1.58336,1.695 -3.12653,4.10509 -3.42927,5.35576 -0.30273,1.25067 -1.93225,6.01906 -3.62115,10.59642 -1.6889,4.57737 -3.07073,9.22737 -3.07073,10.33333 0,2.85963 2.19908,1.81637 4.11768,-1.95346 0.88972,-1.7482 2.09811,-3.75743 2.68531,-4.46497 1.09224,-1.31606 4.05777,-9.4181 4.73568,-12.93816 0.81687,-4.2417 1.66081,-5.79922 3.14226,-5.79922 1.27376,0 1.42579,0.83684 0.86294,4.75 -1.31278,9.12702 -4.58163,16.46856 -9.69827,21.78145 -2.66508,2.76729 -4.8456,5.57979 -4.8456,6.25 0,0.6702 -0.39199,1.21855 -0.8711,1.21855 -0.4791,0 -1.9416,1.57193 -3.25,3.49317 -2.71892,3.99245 -4.82034,4.4315 -6.71209,1.40234 -1.12579,-1.80269 -0.99343,-2.91413 0.92296,-7.75 1.23047,-3.10503 2.63256,-6.1644 3.11574,-6.79859 1.46548,-1.92351 2.85415,-7.44817 3.85756,-15.34692 1.29234,-10.17319 1.30141,-9.97376 -0.65905,-14.5 -1.81572,-4.19207 -1.99005,-4.83399 -2.85156,-10.5 -0.84978,-5.58888 -2.52456,-7.79334 -8.46997,-11.14872 -3.06883,-1.73194 -6.12825,-3.8695 -6.79872,-4.75013 -1.54431,-2.0284 -4.06089,-10.44178 -4.60145,-15.38353 -0.49694,-4.54293 -1.0379,-5.20973 -3.38919,-4.17753 -0.98622,0.43295 -2.01813,0.82767 -2.29313,0.87716 -1.51921,0.2734 -10,5.79975 -10,6.51632 0,0.4671 -1.76173,1.55417 -3.91495,2.41572 -2.15322,0.86155 -4.18351,2.001 -4.51176,2.53212 -0.32825,0.53112 -2.8134,1.7019 -5.52256,2.60174 -2.70915,0.89984 -6.53573,2.91553 -8.50351,4.47932 -1.96777,1.56379 -6.38339,4.27347 -9.81249,6.0215 -3.4291,1.74804 -9.14511,5.16675 -12.70224,7.59714 -3.55713,2.43039 -7.21453,4.41889 -8.12755,4.41889 -0.91303,0 -2.17965,0.62608 -2.81472,1.39129 -0.63506,0.76521 -3.06462,1.6777 -5.39902,2.02777 -2.3344,0.35006 -5.5824,1.33429 -7.21778,2.18718 -1.63538,0.85288 -5.67342,1.66835 -8.97342,1.81215 -5.36449,0.23375 -9.88197,1.26011 -16,3.63515 -4.18463,1.62448 -15.42497,3.91248 -16.74068,3.4076 -1.23841,-0.47523 -13.59421,12.33961 -17.73258,18.39137 -0.8103,1.18494 -2.2728,2.4082 -3.25,2.71835 -0.97721,0.31015 -1.77674,1.06649 -1.77674,1.68074 0,1.30478 -14.81103,15.94537 -20.31736,20.08356 -2.80235,2.10606 -4.10475,2.55941 -5.06448,1.7629 -0.97691,-0.81076 -2.97789,0.39772 -8.20508,4.95542 -3.80219,3.31522 -10.28808,8.3143 -14.41308,11.10907 -4.125,2.79476 -7.95,5.59519 -8.5,6.22317 -0.55,0.62798 -2.19937,1.90848 -3.66526,2.84556 -3.26496,2.08714 -6.29418,11.04172 -4.72632,13.9713 0.54549,1.01927 1.2047,4.42816 1.4649,7.57532 0.54073,6.54025 4.32266,23.24977 5.58412,24.6721 0.46341,0.5225 0.84256,1.83295 0.84256,2.91211 0,2.13583 2.10229,9.82032 5.17314,18.90939 1.07249,3.17432 2.13569,6.73582 2.36267,7.91443 0.22698,1.17862 1.03912,4.20644 1.80477,6.7285 0.76564,2.52207 2.3876,7.96057 3.60434,12.08557 1.21675,4.125 3.75556,11.1 5.64181,15.5 1.88624,4.4 3.42587,8.6975 3.4214,9.55 -0.004,0.8525 0.40826,1.9775 0.91719,2.5 1.65451,1.69865 6.94314,16.09486 7.41204,20.17639 0.50516,4.39705 2.69632,9.22674 5.08569,11.20975 0.85521,0.70976 1.34875,1.62407 1.09676,2.03181 -0.48073,0.77784 4.32805,5.74725 5.06897,5.23828 0.88456,-0.60765 7.99672,1.07179 10.0905,2.38273 1.2621,0.79022 4.41859,1.28538 7.5,1.17654 2.9264,-0.10336 7.79572,0.31715 10.82072,0.93448 3.025,0.61732 10.45,2.0216 16.5,3.12061 6.05,1.09901 13.025,2.70743 15.5,3.57426 2.475,0.86682 6.17223,1.58259 8.21607,1.5906 2.04384,0.008 5.19384,0.63078 7,1.38395 6.35806,2.6513 9.43089,3.29927 16.77557,3.53748 7.40607,0.24021 11.53357,1.43429 10.53618,3.04811 -0.29051,0.47006 -2.32812,0.61323 -4.52801,0.31816 -2.39186,-0.32082 -3.99981,-0.12841 -3.99981,0.4786 0,1.6076 5.0561,2.16747 10.43988,1.15604 5.11938,-0.96176 7.26582,-0.18914 6.3202,2.27499 -0.38816,1.01148 -4.11485,1.31722 -16.05593,1.31722 h -15.55044 l -0.45778,3 c -0.63587,4.16701 -0.23901,4.5 5.36309,4.5 2.83443,0 4.94098,0.45495 4.94098,1.06709 0,0.68004 -2.62972,0.98018 -7.25,0.82746 -6.63971,-0.21946 -7.27558,-0.0668 -7.55389,1.8134 -0.2426,1.63897 -1.48371,2.28516 -6.15358,3.2039 -10.30323,2.02704 -10.31247,5.62627 -0.0102,3.98973 3.00724,-0.47771 6.27279,-0.61509 7.25678,-0.30528 0.98399,0.3098 5.70899,0.0909 10.5,-0.48653 4.79101,-0.5774 12.24516,-1.29672 16.56476,-1.59849 6.06228,-0.42351 8.90232,-1.16312 12.45015,-3.24229 4.35452,-2.55192 5.36173,-2.70582 19.14617,-2.92546 14.33099,-0.22834 48.65545,-1.37328 50.49046,-1.68417 1.42535,-0.24149 1.87596,3.25428 0.61528,4.77329 -0.62555,0.75375 -3.16892,1.35891 -5.83257,1.38778 -5.67629,0.0615 -14.03506,0.94518 -15.08627,1.59487 -0.41676,0.25757 -2.65605,-0.0135 -4.97618,-0.60244 -3.64296,-0.92468 -4.49735,-0.81832 -6.26305,0.77961 -1.7635,1.59595 -3.94124,1.86932 -15.83908,1.98826 -7.58695,0.0758 -14.23762,0.41179 -14.77928,0.74655 -0.54165,0.33476 -1.83861,-0.0176 -2.88214,-0.78298 -1.62964,-1.1953 -2.13035,-1.18146 -3.54905,0.0981 -1.94668,1.75574 -4.72519,2.09012 -23.34827,2.80985 -23.01801,0.88957 -36.82003,1.6239 -40,2.12817 -1.65,0.26165 -7.95,0.37588 -14,0.25384 -6.05,-0.12205 -13.7,-0.27249 -17,-0.33432 -3.3,-0.0618 -7.69454,0.52707 -9.76565,1.30867 -3.01793,1.13891 -4.3402,1.18309 -6.65927,0.2225 -1.92526,-0.79747 -3.50963,-0.87912 -4.73435,-0.24399 -3.38334,1.75459 -36.11728,3.08706 -38.57176,1.5701 -0.44444,-0.27467 -2.37193,0.0167 -4.28332,0.64753 -2.78748,0.91995 -4.05371,0.85836 -6.39815,-0.3112 -1.9514,-0.97349 -3.25576,-1.12528 -3.92434,-0.4567 -0.66858,0.66858 -2.6071,0.63853 -5.8323,-0.0904 -5.94802,-1.34436 -13.23771,-1.65422 -15.5958,-0.66292 -0.97072,0.40808 -2.65778,0.50848 -3.74901,0.22311 -1.09123,-0.28536 -2.17287,-0.21334 -2.40363,0.16004 -0.34696,0.56139 -8.0967,0.67564 -15.83242,0.2334 -1.16417,-0.0666 -1.75,-0.9217 -1.75,-2.55452 v -2.45448 l 27.25,0.36966 c 14.9875,0.20331 27.95683,0.65002 28.82074,0.99268 0.86391,0.34266 4.68891,0.26563 8.5,-0.17118 3.81109,-0.43681 11.3401,-0.5665 16.73112,-0.2882 5.39102,0.2783 10.56602,0.20013 11.5,-0.17371 0.93398,-0.37385 1.1472,-0.71135 0.47382,-0.75 -0.67338,-0.0387 -1.89517,-1.36756 -2.71509,-2.95312 -0.81992,-1.58556 -2.64308,-3.17204 -4.05147,-3.52552 -5.017,-1.25919 -31.88566,-2.52404 -33.05214,-1.55595 -0.62755,0.52082 -1.43138,0.65657 -1.78629,0.30166 -0.50394,-0.50395 -48.89897,-1.76017 -53.17069,-1.38019 -10.027,0.89192 -16.32614,1.07869 -34,1.00809 -24.9854,-0.0998 -24.1587,-0.10949 -42.5,0.49808 -25.80291,0.85473 -30.97377,0.80332 -32.32901,-0.32143 -0.83492,-0.69292 -1.66785,-0.74505 -2.27077,-0.14213 -1.95948,1.95948 -11.66993,2.6099 -15.09388,1.011 -1.77939,-0.83093 -3.10159,-1.95978 -2.93821,-2.50856 0.16338,-0.54878 3.85989,-1.04716 8.21446,-1.1075 4.35458,-0.0603 9.04241,-0.5664 10.41741,-1.12457 1.45818,-0.59193 3.43566,-0.66548 4.74526,-0.17648 1.23489,0.4611 4.15989,0.61792 6.5,0.34848 2.34011,-0.26945 26.98483,-0.68572 54.76606,-0.92506 39.81226,-0.34299 51.88571,-0.74914 57,-1.91749 3.56877,-0.81528 10.98868,-1.69343 16.48868,-1.95143 11.60412,-0.54436 16.37041,-1.89446 14.52749,-4.11505 -1.01018,-1.21719 -0.61143,-1.33986 2.64014,-0.8122 l 3.83004,0.62153 -4.99883,-5.77058 c -2.74936,-3.17382 -6.34884,-7.25222 -7.99884,-9.06311 -3.47868,-3.81788 -5.93698,-7.58233 -8.1686,-12.50876 -0.87201,-1.925 -2.15134,-4.625 -2.84297,-6 -0.69163,-1.375 -1.58193,-4.075 -1.97844,-6 -0.39652,-1.925 -1.27975,-4.85 -1.96273,-6.5 -4.97605,-12.0216 -10.58975,-27.29717 -10.57046,-28.76357 0.0128,-0.96996 0.54422,-2.59785 1.18102,-3.61753 C 566.64801,489.73273 565.59555,487 563.18637,487 561.17735,487 558,484.07123 558,482.21938 c 0,-0.61773 -1.37811,-5.0823 -3.06246,-9.92126 -1.68435,-4.83897 -3.47383,-10.37312 -3.97662,-12.29812 -0.50279,-1.925 -2.301,-6.87378 -3.99602,-10.99729 -1.69501,-4.12351 -3.469,-10.58062 -3.94219,-14.34914 -0.56804,-4.52389 -1.53387,-7.58261 -2.84272,-9.00271 -2.99042,-3.24458 -7.75872,-14.54492 -8.51073,-20.16945 -0.36631,-2.73977 -1.29437,-6.33141 -2.06236,-7.98141 -2.68965,-5.77863 -3.53258,-8.03596 -4.66773,-12.5 -0.62937,-2.475 -1.64815,-5.4 -2.26397,-6.5 -1.94027,-3.46581 -3.37294,-10.28872 -2.49125,-11.86422 0.46202,-0.82558 3.19714,-2.38507 6.07804,-3.46554 2.88091,-1.08047 7.88669,-3.13807 11.12396,-4.57246 3.23728,-1.43438 6.9818,-2.80669 8.32117,-3.04956 4.06172,-0.73653 10.92231,-5.29253 14.19837,-9.42889 1.70198,-2.14893 3.09451,-4.18592 3.09451,-4.52665 0,-0.34074 -1.58836,0.0441 -3.5297,0.85528 -1.94133,0.81114 -6.32883,1.9598 -9.75,2.55258 -8.43582,1.46165 -11.83177,2.8218 -14.34451,5.74531 -1.50376,1.7496 -3.49222,2.62566 -6.8079,2.99939 -4.14937,0.46769 -4.74649,0.28781 -5.2341,-1.57683 -0.52179,-1.99534 -0.73029,-2.02958 -4.01113,-0.65876 -3.05468,1.27633 -3.73718,1.26485 -5.81682,-0.0978 -2.24617,-1.47175 -2.64885,-1.33075 -8.63105,3.02218 -3.45123,2.51127 -7.00073,4.56595 -7.88778,4.56595 -0.88706,0 -2.93452,1.38152 -4.54992,3.07005 -1.6154,1.68852 -4.51209,4.01772 -6.43709,5.17598 -4.60454,2.77054 -23,20.18917 -23,21.77867 0,0.40296 -1.4625,1.32149 -3.25,2.04116 -1.7875,0.71968 -5.70587,3.52646 -8.70748,6.2373 -3.00162,2.71083 -6.58466,5.4391 -7.96231,6.06281 -1.37766,0.62372 -3.64679,2.20934 -5.04252,3.52361 -1.39573,1.31427 -5.01269,3.9548 -8.03769,5.86784 -3.025,1.91304 -9.775,6.30665 -15,9.76358 -5.225,3.45693 -11.975,7.48046 -15,8.94119 -3.025,1.46072 -6.85,3.56405 -8.5,4.67407 -4.96279,3.33865 -14.62624,8.86669 -21,12.01319 -3.3,1.62909 -7.575,3.78133 -9.5,4.78275 -8.20264,4.26715 -22.22834,9.27064 -56,19.97726 -12.43462,3.94215 -20.51707,6.82453 -25.7391,9.17914 -2.33151,1.05127 -4.97244,1.9114 -5.86873,1.9114 -1.51706,0 -8.70612,2.0963 -19.39217,5.65467 -2.475,0.82416 -5.175,1.65082 -6,1.83703 -0.825,0.18621 -6.45,1.68807 -12.5,3.33747 -6.05,1.6494 -13.25,3.31936 -16,3.71102 -2.75,0.39165 -5.45,1.05337 -6,1.47048 -0.55,0.41711 -2.56023,1.09257 -4.46718,1.50101 -1.90694,0.40845 -4.15694,1.08157 -5,1.49582 C 199.64947,505.16138 176.15408,514 174.81187,514 c -0.85823,0 -3.52949,0.70906 -5.93614,1.57569 -2.40665,0.86663 -5.50073,1.74205 -6.87573,1.94539 -4.70204,0.69534 -14.76484,4.44907 -25.37278,9.46479 C 130.79472,529.74364 125.55401,532 124.9812,532 c -4.11813,0 -23.01401,10.22796 -29.16892,15.78856 -3.284901,2.96771 -3.805482,3.96591 -3.290681,6.30978 0.336351,1.5314 0.115757,3.71075 -0.49021,4.84301 -0.758848,1.41792 -0.78571,2.64919 -0.08631,3.95603 C 92.98227,564.83539 105.06983,572 107.30229,572 c 0.67839,0 2.8004,1.05632 4.71558,2.34737 3.26124,2.19847 18.35347,7.44313 23.27073,8.08675 1.21627,0.1592 3.3364,0.56209 4.7114,0.89531 1.375,0.33322 4.81567,0.78991 7.64593,1.01488 2.83026,0.22496 5.61197,0.69705 6.18158,1.04908 0.5696,0.35204 1.67097,-0.26698 2.44747,-1.3756 1.01341,-1.44684 2.51428,-2.00787 5.31843,-1.98803 8.81436,0.0624 23.55607,-1.38504 29.90659,-2.93632 5.62179,-1.37327 22.4517,-2.0623 25.16601,-1.03032 1.35683,0.51586 2.50124,0.47528 2.85761,-0.10133 0.76469,-1.2373 6.17748,-1.25443 6.93919,-0.022 0.31946,0.5169 2.93352,0.72133 5.80901,0.45428 16.82476,-1.5625 37.05483,-2.62999 52.72818,-2.78233 9.85299,-0.0958 12.23819,0.20818 16.65427,2.12224 6.48193,2.80945 11.51879,6.98653 11.13762,9.23646 -0.72501,4.27957 5.42124,6.41979 11.64301,4.05428 1.48796,-0.56572 3.50992,-0.61858 4.8151,-0.12589 2.3342,0.88115 41.74276,2.40399 59.25,2.28956 5.5,-0.0359 14.00954,0.37491 18.91009,0.91302 6.09693,0.66948 9.23842,0.65005 9.95,-0.0615 C 418.9433,592.4567 423,592.76966 423,594.475 c 0,1.10556 0.75141,1.32472 3,0.875 2.75152,-0.5503 3,-0.37222 3,2.15 0,2.51422 -0.25389,2.69922 -2.96123,2.15775 -1.65517,-0.33103 -3.24863,-0.12721 -3.61286,0.46212 -0.35839,0.5799 -1.61334,0.7587 -2.78877,0.39732 -2.05974,-0.63324 -19.97467,-1.56985 -26.13714,-1.36646 -6.57251,0.21692 -12.54787,-0.41461 -14.2938,-1.51068 -0.7116,-0.44673 -1.8366,-0.38679 -2.5,0.13319 -0.66341,0.51998 -6.3812,0.80734 -12.7062,0.63858 -42.1675,-1.1251 -51.59019,-1.103 -54.4987,0.12776 -4.63009,1.95928 -22.11051,3.64428 -42.5013,4.09686 -10.175,0.22584 -20.525,0.84866 -23,1.38405 -4.81114,1.04074 -13.7084,1.85297 -29,2.64738 -5.72033,0.29718 -10.38447,1.06036 -11.72305,1.91823 -1.52788,0.97917 -5.85381,1.50119 -13.83355,1.6693 -6.38578,0.13453 -11.71353,0.14148 -11.83944,0.0154 z m -42.04479,-6.36659 c 0.87917,-1.42252 -3.44251,-2.78269 -11.67049,-3.67306 C 115.4751,599.32073 114,599.51567 114,601.53802 c 0,1.38931 3.1339,2.2063 10.5,2.73727 8.11199,0.58473 10.51837,0.504 11.05917,-0.37104 z M 196.5,601.51375 c 3.85,-0.28998 10.825,-0.72979 15.5,-0.97735 9.92028,-0.52532 8.2535,-0.40302 23.5,-1.72428 6.6,-0.57196 16.00987,-1.10117 20.91083,-1.17602 5.37574,-0.0821 9.0561,-0.56496 9.27701,-1.21713 0.40455,-1.1943 -4.99454,-3.04223 -11.18784,-3.82923 -5.13558,-0.6526 -9.64753,-1.40522 -16.47576,-2.74825 -3.76945,-0.74141 -15.2991,-0.81818 -37,-0.24636 -17.33833,0.45687 -31.97424,0.90796 -32.52424,1.00242 -0.55,0.0945 -3.25,0.23055 -6,0.30241 -6.48028,0.16935 -7.85376,1.03938 -6.64789,4.21107 0.71393,1.87778 2.40506,2.89292 7.28876,4.37527 10.60957,3.22033 14.43509,3.45283 33.35913,2.02745 z m -83.74745,-1.7561 c -0.2597,-0.7791 -5.89251,-2.0165 -15.106162,-3.31849 -8.952449,-1.26507 -14.560008,-1.68002 -14.354057,-1.06217 0.536297,1.60889 5.539878,2.90318 16.207669,4.19245 2.75,0.33236 5.1875,0.7902 5.41667,1.01742 0.22916,0.22723 2.17916,0.41314 4.33333,0.41314 2.67602,0 3.78549,-0.39353 3.50255,-1.24235 z m 14.03132,-3.60291 c 0.70613,-0.44805 1.00826,-1.53286 0.67141,-2.41068 -0.45828,-1.19426 0.0996,-1.67761 2.21613,-1.92005 4.57968,-0.52459 3.36798,-2.95784 -2.17998,-4.37766 -2.75471,-0.70498 -8.15471,-2.4807 -12,-3.94605 -3.84529,-1.46534 -7.93885,-2.84936 -9.0968,-3.07561 -1.15796,-0.22624 -4.00418,-1.08129 -6.32493,-1.9001 -2.320763,-0.81881 -6.323346,-1.76185 -8.894633,-2.09565 -4.436636,-0.57594 -4.588565,-0.51767 -2.978962,1.14247 0.932858,0.96216 3.407858,2.39404 5.5,3.18196 9.670935,3.64218 15.312775,5.4394 21.542865,6.86254 6.93414,1.58396 9.7987,3.38409 5.38515,3.38409 -1.37166,0 -3.76072,-0.50757 -5.30902,-1.12794 -2.44672,-0.98034 -7.2642,-2.2609 -12.3151,-3.27353 -0.825,-0.1654 -3.284762,-0.66106 -5.466138,-1.10147 -4.917176,-0.99275 -12.227327,-4.15535 -15.504453,-6.70773 -3.076023,-2.39574 -8.019392,-9.73638 -8.025128,-11.91689 -0.0024,-0.89515 -0.725947,-2.22648 -1.607983,-2.95851 -1.138796,-0.94511 -1.461106,-2.39408 -1.111816,-4.99824 C 71.8166,554.94846 76.833304,543 77.966878,543 c 0.381562,0 2.682609,-1.80564 5.113436,-4.01254 C 87.421116,535.04654 104.32146,526 107.34291,526 c 0.84648,0 1.81717,-0.45 2.15709,-1 0.33992,-0.55 1.60398,-0.99777 2.80902,-0.99505 2.2651,0.005 4.60554,-0.67149 20.69098,-5.98154 5.225,-1.72485 10.57312,-3.35554 11.88472,-3.62374 1.3116,-0.2682 3.66938,-1.15197 5.23952,-1.96392 1.57014,-0.81195 2.97202,-1.43811 3.11528,-1.39146 0.14326,0.0466 0.93548,-0.13009 1.76048,-0.39275 0.825,-0.26265 4.65,-1.24368 8.5,-2.18005 7.22942,-1.7583 19.68454,-5.88525 22.73643,-7.53362 0.95504,-0.51583 2.44548,-0.93787 3.3121,-0.93787 1.92531,0 10.81132,-2.70712 15.07522,-4.59266 1.71806,-0.75975 3.96806,-1.5446 5,-1.74412 1.03194,-0.19951 2.55125,-0.63169 3.37625,-0.96039 0.825,-0.32869 3.75,-1.24828 6.5,-2.04352 2.75,-0.79524 7.42982,-2.41388 10.3996,-3.59698 4.86343,-1.93748 19.6817,-6.25502 26.1004,-7.60477 5.17391,-1.08799 13.51084,-3.68383 17.43432,-5.42846 16.2905,-7.24379 21.37686,-9.63841 23.56568,-11.0945 1.375,-0.9147 4.3,-2.23469 6.5,-2.9333 5.18655,-1.647 25.53853,-11.53822 30.07469,-14.61655 1.93277,-1.31161 3.74917,-2.38475 4.03644,-2.38475 0.28727,0 2.02668,-1.14744 3.86535,-2.54986 3.59258,-2.74019 8.52352,-4.15462 8.52352,-2.44495 0,0.57437 -1.0125,1.4821 -2.25,2.01717 -1.2375,0.53508 -2.925,1.354 -3.75,1.81983 -3.01235,1.70089 -6.57968,3.57589 -10,5.25602 -4.57049,2.24511 -9.07963,6.90179 -6.68312,6.90179 2.10681,0 15.05643,-5.68552 19.68312,-8.64185 1.925,-1.23003 4.85,-2.55875 6.5,-2.95272 1.65,-0.39397 4.56696,-1.77136 6.48213,-3.06087 1.91518,-1.28951 4.16518,-2.37418 5,-2.41039 0.83483,-0.0362 4.89287,-1.82563 9.01787,-3.97652 4.125,-2.15088 8.86942,-4.5634 10.54315,-5.36116 4.34075,-2.06896 18.71096,-12.51624 20.26355,-14.73181 0.71869,-1.02557 1.72943,-1.86468 2.24608,-1.86468 0.83405,0 12.11075,-8.38518 24.94722,-18.55036 2.475,-1.95994 10.39833,-7.92541 17.60739,-13.25659 15.28609,-11.30421 14.44049,-10.64828 31.04831,-24.08436 7.06437,-5.71522 14.3024,-11.95448 16.08452,-13.86501 3.08534,-3.30766 3.46772,-3.43983 8,-2.7651 5.67936,0.84549 7.25978,1.96529 7.25978,5.14386 0,2.86338 1.66212,3.0209 8.59107,0.81416 2.69991,-0.85987 7.86145,-1.92344 11.47009,-2.36348 3.60864,-0.44004 8.10864,-1.50072 10,-2.35708 1.89136,-0.85636 4.39631,-1.83065 5.56656,-2.1651 1.17024,-0.33445 3.40533,-1.70591 4.96685,-3.04769 1.56153,-1.34178 4.08639,-2.71354 5.61082,-3.04836 1.52442,-0.33482 3.03044,-1.02746 3.34672,-1.5392 1.08454,-1.75483 8.43987,-4.73055 10.41571,-4.21385 1.48163,0.38745 2.26039,-0.19822 3.11494,-2.34262 0.62668,-1.57257 2.08551,-5.03764 3.24185,-7.70015 1.25883,-2.89849 2.02629,-6.59062 1.91266,-9.2015 -0.1433,-3.29265 0.38315,-5.04592 2.14964,-7.15907 1.28669,-1.53917 2.64531,-3.7763 3.01917,-4.97139 1.19454,-3.81849 7.68131,-16.61623 11.05293,-21.80631 1.79391,-2.76144 4.31561,-7.0458 5.60379,-9.5208 4.6613,-8.95588 8.8929,-14.68112 18.11419,-24.50799 13.91424,-14.82804 18.61552,-18.87474 25.96598,-22.35066 7.4586,-3.52705 8.85703,-3.78984 8.85703,-1.6644 0,1.52079 -1.85809,2.94809 -8.09959,6.22173 -5.1198,2.68532 -11.50619,8.40845 -12.33207,11.05132 -0.38671,1.2375 -1.26605,2.25 -1.95407,2.25 C 630.15448,234 617,248.09491 617,250.73055 c 0,0.56351 -0.65476,1.56796 -1.45501,2.23211 -1.90639,1.58216 -7.89081,12.51334 -9.46419,17.28734 -0.67975,2.0625 -1.67577,3.75 -2.21338,3.75 -0.53761,0 -2.09571,2.5875 -3.46245,5.75 -1.36673,3.1625 -3.99796,8.69129 -5.84717,12.28619 -3.45074,6.70829 -4.41451,11.1354 -3.09432,14.21381 0.41277,0.9625 0.49701,2.41059 0.18718,3.21797 -0.30982,0.80739 -0.0834,1.7646 0.50323,2.12714 2.00243,1.23757 0.0187,7.47141 -3.68047,11.56599 -3.81012,4.21735 -4.08433,5.86188 -0.61628,3.69604 2.61762,-1.63473 3.76321,-0.51218 2.43764,2.38863 -1.97553,4.32315 -11.52672,14.63553 -17.5318,18.92901 -3.32721,2.37887 -7.34789,5.56015 -8.93485,7.0695 -3.55084,3.3772 -8.33741,5.82588 -16.86971,8.63011 -7.81731,2.56924 -10.58078,5.99463 -9.49698,11.77176 0.41188,2.19552 0.20537,4.05039 -0.55264,4.96374 -1.29768,1.5636 -0.46071,3.95401 3.37737,9.64589 1.02204,1.51568 1.68022,3.54068 1.46262,4.5 -0.21759,0.95932 0.21666,2.99175 0.96501,4.51652 0.93017,1.89525 1.05543,3.31764 0.39594,4.49609 -0.71766,1.2824 -0.16209,3.2612 2.16967,7.72771 1.72389,3.30214 3.98214,7.1289 5.01831,8.5039 2.15772,2.86327 4.3013,7.62182 6.19395,13.75 1.10513,3.57826 1.09489,4.25 -0.0648,4.25 -1.57883,0 -1.15286,1.43202 2.9651,9.96815 1.43441,2.97339 2.60802,5.78047 2.60802,6.23796 0,0.4575 2.28787,5.57505 5.08416,11.37234 4.97128,10.30649 5.53926,13.42155 2.44722,13.42155 -2.30305,0 -1.84616,2.89852 1.05683,6.70454 1.42352,1.86633 2.35415,4.00329 2.06807,4.7488 -0.28608,0.74551 0.80485,4.07137 2.4243,7.3908 1.61944,3.31943 3.09892,7.29995 3.28773,8.84559 0.18881,1.54565 1.30366,4.50341 2.47744,6.5728 1.27292,2.24417 2.28835,6.09896 2.51625,9.55222 0.39671,6.01128 1.45025,8.60136 6.58354,16.18525 1.67524,2.475 3.04782,5.33897 3.05018,6.36437 0.006,2.68489 8.98365,17.3921 11.70469,19.17499 1.26477,0.82871 2.29959,2.16752 2.29959,2.97514 0,1.59679 10.7613,8.13379 12.67459,7.69923 0.64603,-0.14672 1.46009,0.19516 1.80902,0.75975 0.34893,0.56459 1.70631,1.02652 3.01639,1.02652 1.31008,0 2.63588,0.41084 2.94622,0.91299 0.31034,0.50214 2.4744,1.20566 4.80902,1.56336 2.33462,0.35771 7.16976,1.26051 10.74476,2.00623 13.72123,2.86213 19.78056,3.59917 27.84839,3.38737 6.27425,-0.16472 8.48853,-0.58438 8.91248,-1.68917 0.77893,-2.02987 -2.73867,-4.39521 -5.71026,-3.83975 -3.01095,0.56283 -7.39136,-0.98067 -6.56728,-2.31406 0.33203,-0.53723 2.49661,-0.77138 4.81018,-0.52032 2.31357,0.25105 11.19533,0.66479 19.73725,0.91942 15.76819,0.47004 20.18781,-0.16836 16.14485,-2.33209 -1.15202,-0.61654 -2.45032,-1.02919 -2.8851,-0.91698 -0.43478,0.1122 -2.14051,-0.11579 -3.79051,-0.50664 -4.54514,-1.07665 -8.98576,-1.6524 -20.5,-2.65792 -5.775,-0.50432 -12.075,-1.2094 -14,-1.56683 -1.925,-0.35744 -4.4,-0.61558 -5.5,-0.57365 -1.1,0.0419 -3.47967,-0.61637 -5.28815,-1.46289 -3.87118,-1.81202 -5.61109,-1.99102 -9.86733,-1.01516 -2.68551,0.61573 -3.6215,0.26792 -6.28448,-2.33522 C 638.33909,562.37641 636.31622,561 635.56476,561 c -3.47291,0 -14.46563,-11.38049 -18.89291,-19.55937 -1.50228,-2.7753 -1.59403,-2.80944 -1.63181,-0.6073 -0.0683,3.97912 -2.34861,1.91201 -6.22958,-5.64709 C 606.78122,531.23381 605.32909,528 605.58352,528 c 0.25442,0 -0.19165,-1.0125 -0.99126,-2.25 -0.79962,-1.2375 -2.6143,-5.4 -4.03262,-9.25 -1.41833,-3.85 -3.00541,-7.9 -3.52686,-9 -0.94748,-1.99873 -8.29502,-24.77564 -9.51633,-29.5 -0.35545,-1.375 -2.16926,-7.45 -4.03068,-13.5 -4.92354,-16.00249 -8.10976,-30.17506 -8.36328,-37.20061 -0.1221,-3.38351 -1.0954,-8.6368 -2.16288,-11.67399 -1.8389,-5.23199 -3.30181,-13.05477 -3.15347,-16.86289 0.0372,-0.95561 -0.87558,-2.39817 -2.02846,-3.20568 -1.55407,-1.08851 -1.82113,-1.8029 -1.03273,-2.76251 0.58488,-0.71188 1.21903,-2.37166 1.40923,-3.6884 0.24813,-1.71781 1.78642,-3.1302 5.44568,-5 2.80492,-1.43326 5.83669,-3.21876 6.73726,-3.9678 0.90058,-0.74903 2.28942,-1.11167 3.08632,-0.80587 0.7969,0.3058 2.56111,-0.31886 3.92047,-1.38813 1.35935,-1.06926 3.65303,-1.94412 5.09706,-1.94412 1.44404,0 4.8456,-1.125 7.55903,-2.5 2.71343,-1.375 5.67711,-2.5 6.58595,-2.5 1.87611,0 12.67803,-6.34107 15.22971,-8.94033 0.92639,-0.94366 4.83434,-4.20484 8.68434,-7.24706 8.52772,-6.73851 29.17039,-27.19875 29.964,-29.69919 0.31587,-0.99521 2.36569,-3.24907 4.55515,-5.00857 2.18947,-1.7595 3.98085,-3.79779 3.98085,-4.52953 0,-0.73174 0.73498,-1.94041 1.6333,-2.68595 0.89831,-0.74553 5.13878,-6.31313 9.42326,-12.37244 4.28448,-6.05931 8.70337,-11.57005 9.81976,-12.24609 C 692.02589,286.96916 700,276.6884 700,275.21872 c 0,-0.47667 1.58762,-3.08339 3.52805,-5.7927 2.99256,-4.17835 3.43727,-5.47919 2.92992,-8.57057 -0.48916,-2.98055 -0.16603,-4.07368 1.77359,-6 4.5294,-4.49832 5.14105,-5.70156 3.7502,-7.37742 -1.03725,-1.24982 -0.79453,-2.63564 1.3574,-7.75 1.44128,-3.42542 3.58135,-9.37803 4.75571,-13.22803 1.17435,-3.85 2.94784,-8.8 3.94108,-11 0.99325,-2.2 2.03842,-5.575 2.32261,-7.5 0.28419,-1.925 1.53349,-6.875 2.7762,-11 2.55081,-8.46697 2.706,-17.47347 0.37865,-21.97406 -1.14663,-2.21734 -1.23389,-3.52931 -0.39485,-5.93619 2.97665,-8.53882 9.07221,1.66695 8.9848,15.0432 -0.0284,4.34604 -0.49791,8.73575 -1.04335,9.75493 -0.54545,1.01917 -1.42078,3.59884 -1.94518,5.73258 -1.07557,4.37641 -5.22837,14.55076 -6.75812,16.55739 -0.55437,0.72718 -2.18218,4.69715 -3.61737,8.82215 -4.51335,12.97224 -5.30834,14.86627 -7.04576,16.7861 -2.20455,2.436 -2.36851,5.01893 -0.20459,3.22304 0.81894,-0.67967 1.24239,-1.63477 0.94098,-2.12245 -0.3014,-0.48768 -0.0771,-0.88669 0.49847,-0.88669 1.38963,0 5.29685,-6.50105 6.91165,-11.5 0.71066,-2.2 1.71151,-4.9 2.2241,-6 0.51259,-1.1 1.57614,-3.8 2.36344,-6 1.8867,-5.27215 1.96748,-1.80668 0.15152,6.50037 -1.72377,7.88536 -4.69027,16.22366 -6.58336,18.50471 -0.76769,0.925 -1.39579,3.21477 -1.39579,5.08837 0,1.8736 -0.34417,3.40655 -0.76482,3.40655 -1.64255,0 -3.04244,4.2496 -2.10053,6.37649 1.36715,3.0871 -0.33787,8.77254 -2.5217,8.40869 -1.20937,-0.2015 -2.73887,1.636 -5.21229,6.26189 -1.92536,3.60089 -6.02811,10.35089 -9.11722,15 -7.34829,11.05919 -11.27919,17.95516 -10.22846,17.94379 0.46476,-0.005 3.09502,-1.11596 5.84502,-2.46873 2.75,-1.35277 6.125,-2.47554 7.5,-2.49504 1.375,-0.0195 4.72119,-1.16234 7.43599,-2.53963 2.83368,-1.43762 5.73752,-2.24978 6.8179,-1.90688 1.16331,0.36922 3.29616,-0.38276 5.58555,-1.96931 2.03699,-1.41163 5.04393,-2.552 6.68209,-2.53413 7.88509,0.086 16.50151,-2.004 20.48242,-4.96814 4.77286,-3.55382 7.05243,-4.98638 9.99605,-6.28186 1.375,-0.60514 3.82637,-2.7263 5.44749,-4.71369 1.62112,-1.9874 5.49881,-5.86106 8.61707,-8.60815 6.44963,-5.68189 6.45744,-6.3115 0.17575,-14.16019 -1.82895,-2.28519 -3.74825,-5.62941 -4.26511,-7.43158 -1.16408,-4.05893 -1.10392,-17.71594 0.0813,-18.44843 1.75466,-1.08444 5.16183,3.61333 4.62925,6.38277 -0.78846,4.1001 2.15974,13.94913 5.70226,19.04947 3.49755,5.0356 10.52447,9.19344 14.0195,8.29537 2.12651,-0.54642 8.25813,-3.64834 12.34252,-6.24394 3.5932,-2.28346 2.74251,-5.71742 -3.52316,-14.22191 C 791.81507,223.88015 788.62254,217.18764 789.56922,210 c 0.95431,-7.24561 2.33992,-10.65875 5.13186,-12.6412 1.43978,-1.02234 4.23354,-3.26297 6.20835,-4.97919 1.97481,-1.71621 5.84057,-4.29277 8.59057,-5.72568 2.75,-1.43292 6.06255,-3.5164 7.36122,-4.62997 2.36732,-2.0299 2.39498,-2.43704 0.68087,-10.02396 -0.0621,-0.275 -0.70622,-1.57018 -1.43131,-2.87818 -0.72509,-1.308 -1.48537,-4.74187 -1.6895,-7.63082 -0.32456,-4.5933 0.18008,-6.36595 4.02024,-14.12182 6.92826,-13.99281 12.67097,-19.49022 17.29307,-16.55437 0.94672,0.60133 0.83604,1.35318 -0.47463,3.22443 -1.90544,2.7204 -1.77236,6.39113 0.34113,9.40854 0.7694,1.09848 1.39891,2.72487 1.39891,3.61421 0,0.88934 1.052,2.0963 2.33778,2.68215 2.86155,1.3038 7.88893,11.49739 7.46521,15.13655 -0.53369,4.58357 -3.11592,3.45801 -6.08803,-2.65368 -1.53178,-3.14986 -2.76928,-6.33705 -2.75,-7.08265 0.0193,-0.74561 -1.08996,-2.69263 -2.46496,-4.32673 -1.375,-1.63409 -2.5,-3.81 -2.5,-4.83534 0,-2.236 -1.65463,-3.51338 -2.25197,-1.73852 -0.33293,0.98925 -0.73606,0.99781 -1.89684,0.0403 -2.17573,-1.79477 -4.05035,4.18466 -3.75615,11.98087 0.19074,5.05446 0.67739,6.65206 2.57013,8.43732 2.42393,2.28629 2.65596,3.48267 2.76775,14.27085 0.0816,7.87227 1.28457,8.50174 7.34543,3.84354 4.08662,-3.14086 5.83782,-6.6508 2.72165,-5.45501 -2.50685,0.96196 -1.70944,-2.05172 1.13486,-4.28905 3.29925,-2.59519 4.06445,-2.59533 4.88789,-9.2e-4 0.40642,1.28052 0.0555,2.73691 -0.91896,3.81366 -1.25218,1.38364 -1.32215,1.99714 -0.34014,2.98233 0.98241,0.98558 0.72287,1.63546 -1.26365,3.16411 -1.375,1.05807 -3.23575,1.93377 -4.13499,1.946 -0.89924,0.0122 -2.40151,1.1921 -3.33837,2.62192 -1.28142,1.9557 -2.31571,2.48263 -4.17527,2.12716 -1.8145,-0.34687 -2.88414,0.15663 -4.02201,1.89324 -0.87004,1.32785 -3.36628,2.88156 -5.68974,3.54143 -2.27679,0.6466 -4.56712,1.54979 -5.08962,2.00707 -0.5225,0.45728 -1.96934,0.83142 -3.2152,0.83142 -2.6227,0 -8.94467,5.19545 -9.87015,8.11138 -0.76647,2.41494 4.59324,9.75297 15.53535,21.2696 4.125,4.34159 8.35597,8.80044 9.40216,9.90856 2.0464,2.16756 1.90338,2.2473 5.29608,-2.95292 1.92455,-2.94989 3.22961,0.0383 2.13819,4.89585 -1.08062,4.80948 -0.64801,5.45834 2.64028,3.96009 3.3465,-1.52476 4.61636,0.82992 3.56074,6.60265 -0.87962,4.81024 0.45541,9.85878 3.51897,13.30733 3.48589,3.92395 15.12429,8.05846 22.34001,7.93622 1.31804,-0.0223 2.94192,0.41212 3.60863,0.96544 0.84611,0.70221 1.98205,0.40048 3.7613,-0.99908 1.402,-1.10282 3.28721,-2.00512 4.18934,-2.00512 0.90213,0 2.69077,-1.22132 3.97476,-2.71405 2.06572,-2.40154 2.62564,-2.58142 4.86262,-1.56218 2.18994,0.9978 2.51877,1.76823 2.45843,5.76 -0.054,3.57074 -0.39207,4.4844 -1.50182,4.05855 -1.90311,-0.73029 -8.42824,2.41707 -7.96155,3.8402 0.54928,1.67498 7.52305,1.95545 13.47448,0.54192 5.81796,-1.38182 8.07429,-3.18205 6.48546,-5.17444 -2.45266,-3.07563 -2.04814,-9.74278 1.36651,-22.52268 0.18703,-0.69998 1.09535,-1.56252 2.01849,-1.91676 1.91325,-0.73419 5.36692,2.87532 5.36692,5.60909 0,0.93395 0.68729,2.5716 1.52731,3.63922 1.43811,1.82775 1.51285,1.72523 1.2797,-1.75523 -0.13619,-2.033 0.0765,-4.0205 0.47269,-4.41667 0.39616,-0.39617 0.7203,-1.54751 0.7203,-2.55854 0,-1.64826 1.3462,-4.71949 6.28052,-14.32843 1.51832,-2.95674 1.36105,-5.7155 -0.83983,-14.73152 -0.85238,-3.49187 0.20645,-7.76848 1.92337,-7.76848 2.04911,0 4.75585,-3.52395 4.07318,-5.30295 -0.92252,-2.40405 -6.54322,-6.34178 -10.19806,-7.14452 -2.51913,-0.55329 -3.38053,-0.34776 -3.86814,0.92294 -0.34502,0.89911 -2.70715,2.54712 -5.24918,3.66224 -8.39909,3.68447 -9.60758,4.59933 -9.96035,7.54035 C 896.73752,216.21286 895.29894,218 892.87756,218 891.8449,218 891,218.40555 891,218.90122 c 0,0.9309 -7.00388,5.42823 -7.57077,4.86134 -0.17529,-0.17529 0.0381,-1.90091 0.47428,-3.83472 C 884.6235,216.7355 883.81738,212 882.55396,212 c -0.28076,0 -3.0231,2.51262 -6.09407,5.58359 -6.95909,6.95909 -11.91084,9.20259 -21.49685,9.73962 -4.10467,0.22995 -8.24675,0.74799 -9.20461,1.1512 -1.94441,0.81848 -3.66751,-1.97769 -2.14121,-3.47467 0.48553,-0.47621 4.93278,-1.63922 9.88278,-2.58448 8.25023,-1.57548 13.59447,-3.20197 17.5,-5.32606 0.92346,-0.50224 1.37109,-1.86976 1.16462,-3.55792 C 871.76514,210.2651 877.50647,198 879.43485,198 c 1.42272,0 2.92253,6.90511 2.01403,9.27261 -0.32223,0.83973 0.4884,2.1115 1.96082,3.07627 2.45846,1.61084 2.56761,1.56922 5.30023,-2.02116 1.53454,-2.01623 4.67738,-5.74703 6.98409,-8.29066 l 4.19402,-4.62478 -0.93338,-9.86564 c -0.5551,-5.8673 -1.50616,-10.51025 -2.34666,-11.45615 -1.53717,-1.72993 -4.88665,-12.14518 -4.14449,-12.88734 0.2512,-0.25119 -0.14019,-1.63717 -0.86974,-3.07993 -0.72956,-1.44277 -1.64293,-4.42322 -2.02971,-6.62322 -2.49397,-14.18554 -7.88377,-23.4549 -21.3632,-36.74037 -6.28321,-6.1928 -12.49086,-12.52221 -13.79478,-14.06537 -2.21622,-2.62284 -11.81535,-9.661781 -13.25657,-9.720905 -0.35723,-0.01466 -3.32753,-2.048713 -6.60068,-4.520129 -3.27314,-2.471417 -7.68718,-5.013609 -9.80898,-5.649316 -2.12181,-0.635707 -4.29711,-1.976649 -4.83402,-2.979871 C 819.36892,76.820818 818.13547,76 817.16482,76 c -0.97065,0 -2.19232,-0.398894 -2.71482,-0.886431 -1.49068,-1.390935 -18.5926,-7.907712 -22.15899,-8.443801 -1.76494,-0.265302 -4.68994,-1.270383 -6.5,-2.233515 -1.81005,-0.963132 -5.54101,-2.024991 -8.29101,-2.359686 -2.91857,-0.35521 -4.90975,-1.080774 -4.7832,-1.742941 0.24542,-1.284179 -0.89489,-1.196415 -23.2168,1.786897 -8.25,1.102608 -17.7,2.601025 -21,3.329815 -3.3,0.72879 -8.1782,1.634282 -10.84045,2.012204 -5.90089,0.837667 -7.28373,1.100066 -16.15955,3.066322 -3.85,0.852889 -9.7,1.7208 -13,1.928693 -3.3,0.207893 -7.125,0.646783 -8.5,0.975312 -2.74849,0.656697 -14.48771,2.524758 -20,3.182599 -1.925,0.229731 -5.75,0.835411 -8.5,1.345957 -4.72892,0.877938 -16.89253,2.330551 -17.98262,2.147536 -0.96992,-0.162841 -13.01099,6.276694 -16.99783,9.090396 -2.21075,1.560236 -6.36123,4.433594 -9.22328,6.38524 -2.86204,1.951646 -5.44912,4.306013 -5.74904,5.231923 -0.7029,2.16996 -9.29258,11.29194 -12.56926,13.34818 -1.38712,0.87046 -5.43712,5.4928 -9,10.27186 -8.64893,11.6012 -13.79599,17.95443 -19.90008,24.56344 -2.79389,3.025 -5.328,6.175 -5.63135,7 -0.30335,0.825 -3.22792,3.67336 -6.49904,6.32969 -3.27113,2.65632 -5.9475,5.60151 -5.9475,6.54485 0,0.94334 -2.25,4.1498 -5,7.12546 -2.75,2.97566 -5,5.79824 -5,6.2724 0,1.13876 -5.67809,8.26724 -9.68219,12.15536 -1.7502,1.69951 -4.08428,5.19452 -5.18684,7.76669 -1.10256,2.57217 -3.15808,5.43243 -4.56781,6.35612 -1.40974,0.9237 -2.56316,2.11922 -2.56316,2.65671 0,0.53749 -0.9,2.12143 -2,3.51985 -1.1,1.39842 -2,3.62839 -2,4.95548 0,1.32709 -1.0661,3.4039 -2.3691,4.61514 -1.30301,1.21124 -2.68763,3.65959 -3.07694,5.44078 -0.38931,1.7812 -1.12964,3.49923 -1.64519,3.81785 -0.51554,0.31863 -1.89003,2.46129 -3.05442,4.76147 -1.16438,2.30018 -3.59865,6.43215 -5.40947,9.18215 -1.81082,2.75 -3.59218,6.20438 -3.95858,7.6764 -0.36639,1.47203 -1.5257,3.45427 -2.57624,4.40499 -1.05053,0.95072 -1.91006,2.48126 -1.91006,3.40119 0,3.03765 -5.07919,14.23948 -8.57802,18.91825 C 465.3885,292.64355 454.0278,304.50667 444.11873,312.5 437.31219,317.99062 429,325.92388 429,326.92951 c 0,0.3516 -1.37684,1.45259 -3.05964,2.44665 -1.6828,0.99405 -3.43492,2.79443 -3.89359,4.00083 -0.83062,2.1847 -4.16025,4.26356 -11.30313,7.05715 -2.32184,0.90808 -4.12637,2.44232 -4.72525,4.01749 -0.53289,1.4016 -1.3997,2.54837 -1.92625,2.54837 -0.52655,0 -1.22122,0.83133 -1.5437,1.84739 -0.32389,1.02046 -2.25643,2.3541 -4.31739,2.9794 -2.46129,0.74676 -4.32951,2.1926 -5.48954,4.24845 -0.96718,1.71404 -2.5766,3.33038 -3.57649,3.59186 -0.99989,0.26148 -2.59143,1.78475 -3.53675,3.38504 -1.49843,2.53664 -17.498,16.33614 -24.62827,21.24169 -1.375,0.94599 -3.55664,2.47255 -4.8481,3.39236 -1.89267,1.34801 -2.71817,1.44126 -4.25617,0.48076 -2.00585,-1.25267 -2.57905,-0.94957 -17.62568,9.32006 -2.87647,1.96325 -5.47984,3.53664 -5.78527,3.49643 -0.30543,-0.0402 -1.72513,0.84706 -3.15491,1.97172 -1.42977,1.12466 -3.17937,2.04484 -3.888,2.04484 -0.70863,0 -2.56211,1.0125 -4.11885,2.25 -4.05616,3.22437 -7.01395,4.75 -9.20896,4.75 -1.0522,0 -4.25352,1.575 -7.11406,3.5 -2.86054,1.925 -5.49326,3.5057 -5.85049,3.51267 -0.6528,0.0127 -9.29052,4.28426 -14.73097,7.28476 C 274.30816,429.66742 250.39463,440 248.70558,440 c -0.97259,0 -2.02737,0.675 -2.34395,1.5 -0.31659,0.825 -1.31496,1.50411 -2.21862,1.50914 -0.90365,0.005 -3.89301,1.11596 -6.64301,2.46873 -2.75,1.35277 -5.9225,2.47366 -7.05,2.49086 -1.1275,0.0172 -2.48842,0.46969 -3.02426,1.00553 C 225.94143,450.45857 211.06705,458 209.62377,458 c -0.69773,0 -3.77482,1.35743 -6.83798,3.0165 -5.08844,2.75602 -10.72672,5.03052 -28.58957,11.53311 -3.46707,1.26212 -6.84207,2.68693 -7.5,3.16624 -0.65792,0.47932 -3.67122,1.69968 -6.69622,2.71191 -3.025,1.01223 -8.65,3.29791 -12.5,5.07928 -3.85,1.78138 -8.125,3.58165 -9.5,4.00061 -1.375,0.41896 -3.38763,1.37613 -4.47251,2.12705 -1.08487,0.75091 -2.56183,1.3653 -3.28211,1.3653 -1.61452,0 -6.7386,2.34847 -10.74538,4.92483 -1.65,1.06094 -3.675,1.9744 -4.5,2.0299 -0.825,0.0555 -3.26766,1.43839 -5.42814,3.07309 -2.16048,1.6347 -4.64352,2.97218 -5.51786,2.97218 -0.87435,0 -3.38169,1.22476 -5.571865,2.72168 -3.752145,2.56449 -6.947001,4.40557 -13.982135,8.05739 -1.65,0.85649 -5.561008,3.24285 -8.69113,5.30302 -3.130121,2.06017 -6.730121,4.06778 -8,4.46135 -5.272182,1.634 -13.665569,7.03067 -18.959992,12.19065 -7.314738,7.12898 -9.400008,12.9314 -7.784636,21.66131 1.009195,5.45396 4.244008,11.6046 6.103221,11.6046 0.435241,0 2.56691,1.9125 4.737043,4.25 2.239038,2.41172 6.032642,5.07371 8.770595,6.15437 2.653695,1.04741 5.427167,2.37302 6.163272,2.94579 2.792092,2.17258 11.857364,4.762 16.661627,4.75926 2.75,-0.002 6.8,0.45504 9,1.0147 2.2,0.55965 6.025,1.42318 8.5,1.91895 2.475,0.49577 8.325,1.99115 13,3.32306 9.62413,2.74193 10.98202,2.93191 12.78387,1.78861 z M 660,572.58333 C 660,571.7125 660.7125,571 661.58333,571 c 0.87084,0 1.40521,0.53437 1.1875,1.1875 C 662.15276,574.04172 660,574.34926 660,572.58333 Z M 520.55577,289.09024 c -1.18836,-1.92281 0.78852,-4.06087 4.29078,-4.6406 4.57303,-0.75698 13.26058,-5.12952 22.34185,-11.2449 3.84257,-2.58761 7.73464,-5.15474 8.64905,-5.70474 0.9144,-0.55 1.88755,-1.24056 2.16255,-1.53458 0.275,-0.29401 2.98023,-2.15936 6.01162,-4.14522 3.45864,-2.26575 6.99357,-5.79147 9.49017,-9.46543 4.38329,-6.45039 7.92053,-10.16531 11.58973,-12.17191 1.32466,-0.72443 3.65479,-2.97443 5.17805,-5 4.11513,-5.47213 6.86705,-8.88603 10.41132,-12.91579 1.74948,-1.98913 3.95649,-5.67546 4.90446,-8.19184 3.28195,-8.71194 9.02021,-15.48425 12.16465,-14.35677 1.91514,0.6867 1.49785,2.83354 -1.16618,5.99956 -1.3289,1.5793 -2.73597,4.57608 -3.12682,6.6595 -0.42035,2.24066 -2.1166,5.28607 -4.15246,7.45526 -3.38748,3.60931 -5.80356,8.00154 -4.89905,8.90604 0.83049,0.83049 2.59451,-0.82068 2.59451,-2.42853 0,-0.86441 3.00469,-5.00036 6.67708,-9.19098 5.84564,-6.67053 10.80033,-13.58811 10.82917,-15.11931 0.0254,-1.34837 3.64066,-7.87703 4.9753,-8.98468 C 630.3167,192.3222 631,191.16554 631,190.44494 c 0,-1.33042 3.73659,-3.04169 4.6491,-2.12918 0.2741,0.27411 -0.22431,1.7777 -1.10759,3.34131 -0.88329,1.56361 -2.73186,4.85531 -4.10794,7.31488 -1.37608,2.45957 -3.43479,5.4649 -4.57493,6.67852 -2.98858,3.1812 -1.94301,4.99034 1.3755,2.38 3.16889,-2.49266 12.63632,-15.84176 15.22574,-21.46833 0.99674,-2.16583 2.19424,-4.41583 2.66111,-5 0.46687,-0.58418 2.01963,-2.52343 3.45056,-4.30945 1.9171,-2.39281 3.17098,-3.11075 4.76508,-2.72836 1.66631,0.39971 2.68245,-0.29019 4.42256,-3.00269 1.60435,-2.50086 2.99028,-3.52164 4.78139,-3.52164 5.08795,0 4.03854,2.87322 -4.00428,10.96348 -10.37269,10.43389 -7.53587,12.21408 3.71658,2.33227 2.06409,-1.81266 4.1225,-3.29575 4.57425,-3.29575 0.45175,0 2.58795,-1.8081 4.74711,-4.018 2.15917,-2.2099 6.85076,-5.46227 10.42576,-7.22747 3.575,-1.76521 8.975,-4.63381 12,-6.37465 4.47938,-2.57783 6.95947,-3.26519 13.36488,-3.7041 7.87277,-0.53947 9.60979,-0.17913 15.04647,3.1213 4.37642,2.6568 5.41655,4.80359 3.33559,6.88455 -1.62555,1.62555 -1.87958,1.56548 -4.66515,-1.10327 l -2.94598,-2.82243 -6.63725,1.31928 c -5.1848,1.03057 -7.05677,1.05728 -8.55433,0.12203 -2.47293,-1.54437 -4.63692,-1.52302 -5.64454,0.0557 C 695.95543,166.35906 685.15533,173 683.0744,173 c -1.076,0 -2.24575,0.46823 -2.59944,1.04052 -0.67583,1.09351 -6.88167,5.41247 -11.43685,7.95948 -1.47546,0.825 -3.77514,2.57073 -5.11038,3.87941 -1.33525,1.30867 -4.95942,4.00867 -8.0537,6 -6.81827,4.3879 -14.82436,11.33305 -28.45501,24.68424 -5.65086,5.53501 -12.89207,11.85708 -16.09157,14.04904 -3.1995,2.19195 -6.26956,4.87343 -6.82236,5.95882 -0.56203,1.10353 -1.76847,1.82257 -2.73684,1.63116 -1.59852,-0.31595 -9.90158,5.47843 -15.72831,10.97617 C 581.80019,253.17921 565.64363,266 564.84217,266 c -0.42039,0 -3.2505,2.025 -6.28913,4.5 -3.03863,2.475 -5.9114,4.5 -6.38392,4.5 -0.47253,0 -1.67363,0.9 -2.66912,2 -0.99549,1.1 -2.26025,2 -2.8106,2 -0.55034,0 -2.47557,1.125 -4.27829,2.5 -1.80272,1.375 -3.55793,2.5 -3.90048,2.5 -0.34254,0 -3.34375,1.35 -6.66934,3 -6.07132,3.01229 -10.23863,3.78414 -11.28552,2.09024 z m 192.80461,-9.59348 c -0.35777,-0.93235 0.063,-2.34875 0.96613,-3.25184 1.46667,-1.46667 1.65282,-1.46235 2.23387,0.0518 0.35778,0.93235 -0.063,2.34875 -0.96613,3.25184 -1.46666,1.46667 -1.65282,1.46235 -2.23387,-0.0518 z M 526.17668,277.25 c 0.18481,-1.00032 3.05227,-3.09323 6.69356,-4.88554 3.50363,-1.72454 6.71409,-3.69189 7.13435,-4.37188 0.42025,-0.67999 1.37865,-1.02111 2.12976,-0.75805 0.75111,0.26307 2.37815,0.10406 3.61565,-0.35336 2.85383,-1.05486 2.92659,0.2152 0.11299,1.97232 C 539.29221,272.95701 527.92555,279 526.77774,279 c -0.50842,0 -0.77889,-0.7875 -0.60106,-1.75 z m 12.00377,-13.42167 C 538.65153,260.62683 541,260.28395 541,263.41667 541,265.09717 540.45147,266 539.43045,266 c -1.04234,0 -1.46221,-0.72946 -1.25,-2.17167 z M 547,260.525 c 0,-1.11759 -0.75464,-1.32407 -3.11432,-0.85214 -2.93939,0.58788 -3.04975,0.50223 -1.96481,-1.525 C 542.55309,256.96654 543.50453,256 544.03518,256 544.56583,256 545,255.325 545,254.5 c 0,-0.825 0.43906,-1.5 0.97569,-1.5 1.57852,0 16.91474,-15.93018 24.88079,-25.84442 C 577.27357,219.16913 581,216.10147 581,218.80525 c 0,0.94751 -10.25478,13.22616 -17.75,21.25312 -2.8875,3.09235 -5.25,6.12674 -5.25,6.74309 0,0.61635 -0.98485,2.03816 -2.18856,3.15958 -1.20371,1.12143 -1.76621,2.02895 -1.25,2.01672 1.48275,-0.0351 4.88215,-3.14633 7.91178,-7.24104 1.53143,-2.0698 3.85145,-4.03109 5.1556,-4.35841 1.30415,-0.32732 2.37118,-1.13715 2.37118,-1.79963 0,-1.39996 5.15981,-6.57867 6.55472,-6.57871 1.63788,-5e-5 11.17125,-13.31222 15.39697,-21.49997 1.85539,-3.595 6.58781,-4.95183 9.29831,-2.6659 2.64385,2.22971 2.14541,4.09029 -2.25,8.39887 -2.2,2.15654 -4,4.1258 -4,4.37612 0,0.25033 -2.46445,3.97218 -5.47657,8.27078 -5.33135,7.60841 -12.43926,13.90822 -14.35583,12.72372 -0.52241,-0.32287 -2.66972,1.32174 -4.7718,3.65469 -2.10209,2.33294 -4.57922,4.69172 -5.50474,5.24172 -4.20102,2.4965 -12.82124,8.71094 -13.92056,10.03554 -1.57146,1.8935 -3.9705,1.88713 -3.9705,-0.0105 z m 289,-31.96598 c 0,-1.74279 1.63967,-2.89975 2.95633,-2.08601 C 840.28727,227.29558 839.08855,230 837.39301,230 836.62686,230 836,229.35156 836,228.55902 Z m 3.66667,-87.22569 C 838.4328,140.09946 838.98663,137 840.44098,137 c 1.89319,0 2.71427,1.43185 1.95528,3.40976 -0.64722,1.68661 -1.63301,2.02016 -2.72959,0.92357 z M 295.09028,590.39122 C 296.42396,588.78423 299,588.52646 299,590 c 0,1.55863 4.61034,1.17443 6,-0.5 2.93403,-3.5353 -4.80825,-6.04394 -21.3862,-6.92953 -7.34546,-0.3924 -18.19133,0.67372 -19.42725,1.90964 -1.28142,1.28143 3.47092,3.50527 6.42496,3.00654 2.08332,-0.35173 3.52818,-0.0233 4.37245,0.99402 0.69351,0.83563 2.89333,1.53528 4.88848,1.55477 1.99516,0.0195 4.66753,0.61252 5.9386,1.31784 2.72976,1.51478 7.64673,1.00499 9.27924,-0.96206 z m 357.34496,0.71356 c 0.3043,-0.49236 -0.0752,-1.13636 -0.84322,-1.43109 -1.46629,-0.56267 -2.59202,0.0857 -2.59202,1.49298 0,1.11676 2.73727,1.06745 3.43524,-0.0619 z M 694.0466,590 c 3.58608,0 5.79455,-3.28155 3.81428,-5.66762 -0.90279,-1.0878 -2.39084,-1.39051 -5.06939,-1.03124 -2.83074,0.37968 -3.79149,0.15256 -3.79149,-0.8963 0,-1.34234 -0.42601,-1.57892 -3.25,-1.80484 -1.76747,-0.1414 -0.99012,6.42841 1.02766,8.68527 0.87788,0.98189 2.22385,1.54439 2.99103,1.25 C 690.53588,590.24087 692.46094,590 694.0466,590 Z m 28.53103,-20.56689 C 721.70993,568.79863 721,567.7469 721,567.09592 c 0,-0.65098 -0.5625,-1.07264 -1.25,-0.93704 -1.51801,0.29942 -8.78005,-2.04705 -10.46261,-3.38061 -0.66693,-0.5286 -3.10471,-1.14334 -5.41729,-1.36609 -2.31257,-0.22275 -4.9169,-1.03311 -5.78739,-1.80082 -1.67518,-1.47737 -9.27253,-2.82131 -17.58271,-3.11031 -2.75,-0.0956 -7.0422,-0.5093 -9.53822,-0.91925 -3.70186,-0.60801 -4.96909,-0.39647 -6.87623,1.14785 -2.053,1.66241 -2.17921,2.14751 -1.03532,3.97917 1.37264,2.19796 9.05852,4.28173 15.86655,4.30168 1.97077,0.006 8.98322,1.14778 15.58322,2.53778 6.6,1.39 12.9,2.67396 14,2.85323 4.6733,0.76165 10.46676,2.73568 11.11712,3.788 0.46599,0.75398 1.3457,0.33968 2.61985,-1.23383 1.72742,-2.13327 1.76131,-2.48377 0.34066,-3.52257 z m 20.18689,-1.92576 c 5.24833,-1.50957 -0.0252,-2.58516 -7.63696,-1.55763 -0.20485,0.0277 0.19618,0.73544 0.89118,1.57286 0.69499,0.83742 1.98759,1.32312 2.87244,1.07934 0.88485,-0.24377 2.62785,-0.73633 3.87334,-1.09457 z m -85.73015,-6.44313 c -1.29784,-2.42504 -4.52415,-3.15916 -6.73789,-1.53315 -1.90356,1.39817 -1.78721,1.48946 4.70352,3.6904 2.26866,0.76928 3.11838,-0.13176 2.03437,-2.15725 z M 644,553.57833 c 0,-0.64723 -2.21776,-6.23396 -4.92835,-12.41495 -2.71059,-6.18099 -5.62836,-14.31586 -6.48393,-18.0775 -0.85556,-3.76164 -2.65261,-9.03231 -3.99344,-11.71261 -1.34082,-2.6803 -3.08204,-6.44827 -3.86937,-8.37327 -4.54288,-11.1072 -6.17177,-14.86885 -7.85342,-18.13615 C 615.84217,482.86396 615,480.36098 615,479.30167 c 0,-1.0593 -0.87466,-3.73635 -1.94369,-5.94898 -1.06903,-2.21264 -2.24525,-6.45966 -2.61383,-9.43783 -0.36858,-2.97817 -1.46844,-7.21486 -2.44413,-9.41486 -1.58869,-3.58221 -3.32955,-9.9827 -5.98372,-22 -0.48589,-2.2 -2.56235,-8.725 -4.61434,-14.5 -3.71076,-10.44336 -4.258,-15.19605 -3.16644,-27.5 0.23953,-2.6999 -0.0483,-3.03055 -2.87692,-3.30538 -1.7287,-0.16796 -5.1037,0.59291 -7.5,1.69083 -2.39631,1.09791 -5.48193,2.13534 -6.85693,2.30538 -2.42384,0.29975 -2.49278,0.52096 -2.26312,7.26164 0.13029,3.82385 0.89583,8.99885 1.70121,11.5 0.80538,2.50114 2.18523,8.14753 3.06634,12.54753 2.40619,12.01592 6.16913,26.41337 8.36765,32.01567 1.07581,2.74138 3.40779,9.70933 5.18217,15.48433 4.57033,14.87486 12.10327,33.93089 19.80351,50.09684 1.72823,3.62827 3.14224,7.34281 3.14224,8.25453 0,1.95283 7.46999,12.92426 13.92245,20.44839 3.62718,4.22959 4.99447,5.18692 6.77123,4.74099 1.59351,-0.39995 2.54174,0.0306 3.33605,1.51481 0.88777,1.65881 1.39583,1.83614 2.54001,0.88656 C 643.35638,555.28927 644,554.22556 644,553.57833 Z m 12,-1.54315 C 656,550.35863 653.4081,548 651.56574,548 c -1.14394,0 -0.51865,2.39455 1.08925,4.17126 2.14476,2.36993 3.34501,2.3211 3.34501,-0.13608 z M 1005,307 c 0,-0.55 -0.45,-1 -1,-1 -0.55,0 -1,0.45 -1,1 0,0.55 0.45,1 1,1 0.55,0 1,-0.45 1,-1 z m -14.21781,-9.75 c 5.46703,-7.837 8.89977,-27.39138 9.69891,-55.24926 0.2603,-9.0754 0.8749,-18.42293 1.3658,-20.77228 0.4908,-2.34934 0.6136,-4.42717 0.2728,-4.6174 -0.3409,-0.19023 -3.7697,-0.91904 -7.6197,-1.61958 -3.85,-0.70054 -8.08038,-1.67488 -9.40085,-2.1652 -1.88792,-0.70102 -2.90272,-0.41999 -4.75,1.31543 -1.29203,1.21381 -2.35529,3.14098 -2.3628,4.2826 -0.0259,3.94216 -1.21963,6.57569 -2.98054,6.57569 -2.48632,0 -3.55744,-1.70325 -5.03098,-8 -1.37966,-5.8956 -5.45929,-13 -7.46512,-13 -1.33795,0 -9.86878,13.86299 -11.61718,18.87844 -2.13459,6.12328 -6.72799,2.0311 -5.31354,-4.73374 1.08498,-5.18906 1.23928,-8.82071 0.43039,-10.12953 -1.17442,-1.90024 -5.96731,0.003 -7.50731,2.98082 -0.78545,1.51891 -2.11737,3.02615 -2.95982,3.34942 -0.84244,0.32328 -2.27233,2.43875 -3.17752,4.70106 -1.31071,3.2758 -2.04724,4.00831 -3.61741,3.5977 -1.75856,-0.45987 -1.89233,-0.17134 -1.23796,2.67012 0.7653,3.32322 0.80127,4.84246 0.19381,8.18571 -1.13042,6.22135 -2.11899,8.91582 -3.93881,10.73564 -1.78693,1.78693 -1.96157,2.87208 -1.44802,8.99763 0.35266,4.20658 1.29546,8.01551 2.38022,9.61619 0.98794,1.45779 2.33865,3.88804 3.00158,5.40054 0.66292,1.5125 1.61029,2.75 2.10527,2.75 0.49498,0 2.3332,1.36968 4.08494,3.04374 l 3.18498,3.04374 2.71334,-2.13556 c 2.03704,-1.60328 2.71333,-3.01702 2.71333,-5.67205 0,-2.70653 0.65783,-4.03087 2.80299,-5.643 l 2.80299,-2.1065 3.40946,3.98482 c 1.87521,2.19164 3.42636,4.71162 3.44701,5.59995 0.0207,0.88833 0.93755,2.75931 2.03755,4.15773 1.1,1.39842 2,2.83914 2,3.20158 0,0.36245 1.15534,2.17372 2.56741,4.02505 4.38889,5.75412 8.8531,3.14365 5.71271,-3.34054 -1.45734,-3.0091 -1.419,-3.10696 2.78386,-7.10504 4.84833,-4.61211 4.93602,-4.65444 4.93602,-2.38266 0,0.91919 0.67755,2.41994 1.50567,3.335 1.33321,1.47318 1.33609,2.00366 0.0252,4.63144 -1.34778,2.7017 -1.29283,3.50074 0.61316,8.915 2.05343,5.83311 7.99361,13.4473 10.49084,13.4473 0.67593,0 2.09223,-1.2375 3.14734,-2.75 z m -21.91022,-40.25771 c -1.21335,-1.77559 -1.8095,-1.88468 -5.15631,-0.94352 -4.91613,1.38247 -8.07484,0.43272 -7.38129,-2.21939 0.3084,-1.17932 -0.26027,-2.75528 -1.40858,-3.90359 C 953.8666,248.8666 953,247.61001 953,247.13335 c 0,-1.68485 4.34489,-11.65417 5.72386,-13.13335 1.23673,-1.32661 1.57115,-1.26881 2.89305,0.5 0.9681,1.29539 1.28819,3.11683 0.90856,5.17007 -0.58341,3.15549 -0.56808,3.16873 3.33295,2.87778 2.15549,-0.16076 4.42316,-0.60384 5.03927,-0.98462 1.97911,-1.22316 5.3192,0.43821 4.57801,2.27711 -0.36792,0.91281 -0.75061,2.10966 -0.85044,2.65966 -0.0998,0.55 -0.54871,1.58808 -0.99752,2.30684 -0.44882,0.71875 -0.53048,2.44452 -0.18149,3.83504 1.3573,5.4079 -1.79981,8.4105 -4.57428,4.35041 z m 1.94758,33.17938 C 970.9953,288.97725 970.6578,288 970.06955,288 969.4813,288 969,288.4132 969,288.91821 c 0,0.50502 -0.29671,1.69142 -0.65935,2.63645 -0.46278,1.20598 -0.23918,1.57967 0.75,1.25346 0.77514,-0.25563 1.55315,-1.44203 1.7289,-2.63645 z M 846.98469,289.25 c -0.008,-0.4125 -0.45153,-1.425 -0.98469,-2.25 -0.78387,-1.21296 -0.9723,-1.06944 -0.98469,0.75 -0.008,1.2375 0.43469,2.25 0.98469,2.25 0.55,0 0.99311,-0.3375 0.98469,-0.75 z m -381.32052,-3.81722 c 0.33077,-0.86197 0.0884,-2.08018 -0.53853,-2.70714 -1.40744,-1.40744 -4.74172,1.4685 -3.68495,3.1784 0.9981,1.61495 3.53139,1.33229 4.22348,-0.47126 z m 373.20471,-0.77479 c 0.61257,-0.7381 0.92003,-1.53574 0.68325,-1.77253 -1.27614,-1.27614 -1.28167,-6.597 -0.01,-9.6405 1.94302,-4.65031 1.83809,-6.5909 -0.46927,-8.67903 -1.05993,-0.95923 -2.23296,-3.61647 -2.60672,-5.90499 -1.67391,-10.24913 -6.16931,-17.23217 -20.0198,-31.09822 -4.42951,-4.4345 -8.78105,-9.124 -9.67008,-10.42113 -0.88903,-1.29712 -2.03398,-2.10034 -2.54434,-1.78492 -1.4498,0.89603 5.05816,19.53775 8.04045,23.03144 6.11722,7.16619 8.77332,11.05047 8.33589,12.19039 -0.25569,0.66631 1.07786,3.60605 2.96343,6.53276 1.88558,2.92671 3.42832,5.9148 3.42832,6.6402 0,0.7254 0.65654,2.32092 1.45899,3.5456 0.80244,1.22468 2.42454,5.37135 3.60466,9.21482 2.85271,9.29079 4.3589,11.09376 6.80523,8.14611 z m 6.11581,-2.90799 c -0.012,-1.75671 -0.21673,-1.9316 -0.93402,-0.79775 -0.50529,0.79874 -0.69684,1.81124 -0.42567,2.25 0.86737,1.40343 1.37543,0.86078 1.35969,-1.45225 z m 164.73661,-76.61317 c 0.6997,-7.71643 -1.0825,-8.97302 -5.6313,-3.97053 -3.9905,4.38852 -4.34991,9.8337 -0.649,9.8337 1.3425,0 2.7433,0.48921 3.1129,1.08713 1.2897,2.0868 2.6108,-0.8122 3.1674,-6.9503 z M 960.075,201.725 c -0.12369,-1.1957 -1.49529,-0.96414 -1.925,0.325 -0.22,0.66 0.14,1.02 0.8,0.8 0.66,-0.22 1.16625,-0.72625 1.125,-1.125 z M 827.2081,172.0355 c 0.24128,-1.64394 0.0682,-3.56195 -0.38471,-4.26224 -1.71675,-2.65472 -2.98239,2.73433 -1.88723,8.03576 0.27778,1.34466 1.92142,-1.3853 2.27194,-3.77352 z m 71.81165,-15.5117 C 897.83697,155.09863 894,154.34702 894,155.54049 c 0,0.29727 1.00492,1.89973 2.23317,3.56101 2.13563,2.8886 2.27286,2.93155 3.14219,0.98331 0.61289,-1.37354 0.49704,-2.53363 -0.35561,-3.56101 z M 447.25,602.33772 c -1.77256,-0.71524 -1.49908,-2.45865 0.82319,-5.2478 1.52236,-1.82844 2.28662,-2.13011 3.16673,-1.25 1.93961,1.93961 7.58566,1.41224 8.99215,-0.83992 1.32384,-2.1198 4.23439,-2.6723 5.26793,-1 0.87632,1.41791 4.24573,1.24191 4.78601,-0.25 0.3361,-0.92807 0.93704,-0.97434 2.33334,-0.17968 1.21063,0.689 4.73082,0.81705 9.88065,0.35944 8.41264,-0.74755 13.5,-0.28781 13.5,1.21999 0,1.29311 -4.7077,2.89965 -6.49132,2.21521 -0.82977,-0.31842 -2.29618,-0.25611 -3.25868,0.13845 -0.9625,0.39456 -4.225,0.8191 -7.25,0.94342 -3.025,0.12432 -8.94878,1.0112 -13.16395,1.97084 -5.66181,1.28899 -8.18148,1.46783 -9.64499,0.68458 -1.50924,-0.80772 -2.27338,-0.70799 -3.2085,0.41876 -1.22231,1.4728 -3.35396,1.77649 -5.73256,0.81671 z M 437.15,601.05 c 0.42971,-1.28914 1.80131,-1.5207 1.925,-0.325 0.0412,0.39875 -0.465,0.905 -1.125,1.125 -0.66,0.22 -1.02,-0.14 -0.8,-0.8 z m -3.60017,-3.96938 C 432.94626,596.10403 435.56284,593 436.98964,593 c 1.92753,0 4.01036,1.29841 4.01036,2.5 0,2.21684 -6.23892,3.54048 -7.45017,1.58062 z M 498.38,596.54789 C 497.61133,594.54475 498.75207,593 501,593 c 2.50006,0 3.46279,1.73744 1.96365,3.5438 -1.55002,1.86766 -3.86773,1.86973 -4.58365,0.004 z m 20.34418,0.31763 C 517.77588,596.33482 517,595.24798 517,594.45031 c 0,-1.43519 1.484,-1.83016 5.64703,-1.50293 1.18086,0.0928 4.75802,-0.51306 7.94923,-1.3464 4.16573,-1.08783 6.16598,-1.21327 7.09196,-0.44477 1.6683,1.38456 1.0096,2.34919 -2.95449,4.32674 -2.16004,1.07757 -4.44245,1.40416 -6.90526,0.98807 -2.02331,-0.34184 -4.51155,-0.17581 -5.52943,0.36894 -1.19601,0.64008 -2.46061,0.64913 -3.57486,0.0256 z M 878,585.079 c -3.36275,-1.81537 -15.7371,-2.48251 -30.5,-1.64436 -5.17578,0.29386 -6.5,-0.22394 -6.5,-2.54163 0,-1.38692 0.73521,-1.90571 2.75,-1.94053 1.5125,-0.0261 7.475,-0.257 13.25,-0.51304 20.83835,-0.92387 35.8967,-1.44877 58,-2.02176 12.375,-0.32079 24.075,-0.65851 26,-0.75047 3.1034,-0.14826 3.53512,0.13678 3.80993,2.51553 0.50677,4.38653 -2.27474,5.15448 -17.30993,4.77913 -1.1,-0.0275 -3.22285,-0.0494 -4.71744,-0.0487 -1.49459,6.7e-4 -2.9844,-0.43073 -3.31069,-0.95868 -0.37706,-0.61009 -1.26719,-0.59921 -2.44266,0.0299 -1.01717,0.54437 -7.85236,1.05632 -15.18931,1.13766 -7.33694,0.0813 -14.2399,0.47127 -15.3399,0.86651 -4.18631,1.50416 -7.05254,1.87187 -8.5,1.09046 z m -132.51598,-5.10485 c -1.00215,-1.62152 -0.75997,-1.691 8.46865,-2.42988 4.64897,-0.37221 8.76431,-0.86936 9.14521,-1.10477 0.94496,-0.58401 2.05198,2.509 1.32121,3.69142 -0.32307,0.52274 -1.53328,0.65023 -2.68935,0.2833 -2.43453,-0.77269 -11.25064,-0.70106 -13.81308,0.11223 -0.96159,0.3052 -2.05628,0.0567 -2.43264,-0.5523 z M 582.49563,568.99294 c -0.75927,-1.22854 1.99283,-2.42712 3.47279,-1.51245 0.58531,0.36174 0.80531,1.07661 0.48887,1.58861 -0.76324,1.23495 -3.18006,1.18848 -3.96166,-0.0762 z"/>
</svg>
