<?xml version="1.0" encoding="utf-8"?>
<svg xmlns="http://www.w3.org/2000/svg" version="1.1" viewBox="0 0 75 104">
	<path d="M 45.220621,93.480258 C 42.880619,92.475282 41.214884,92.348002 39.405521,93.035921 38.010875,93.566164 34.96338,94 32.633309,94 28.955621,94 27.77701,93.397577 23.697816,89.4328 20.181738,86.015345 18.495485,85.025352 16.999407,85.500188 15.868126,85.859243 15,85.679597 15,85.08644 c 0,-1.833033 4.782179,-2.341587 7.810936,-0.830644 2.430015,1.212251 3.314183,1.234538 5.410108,0.136372 2.089879,-1.094998 2.818286,-1.08078 4.392166,0.08574 1.804157,1.337191 1.808639,1.456404 0.102348,2.722034 -1.539476,1.141896 -1.598081,1.578462 -0.426905,3.18014 1.057264,1.445894 2.060105,1.702231 4.533854,1.158905 l 3.176318,-0.697636 -0.637094,-5.420674 C 38.920077,81.662892 39.073642,80 39.862319,80 40.495859,80 41,81.550955 41,83.5 c 0,3.853388 1.356976,4.570018 2.964816,1.565741 C 46.82145,79.728073 44.507108,70.541653 38.720691,64.25 35.637882,60.898018 35,61.445482 35,67.443296 c 0,4.49133 0.388689,5.715545 2.222506,7 2.142044,1.500346 2.042484,1.559198 -2.75,1.625604 -2.734878,0.0379 -6.210006,0.232196 -7.722506,0.43178 -3.431888,0.452861 -3.567731,-0.807067 -0.25,-2.318726 2.395975,-1.09168 2.5,-1.512002 2.5,-10.101498 0,-4.929332 -0.392571,-9.205044 -0.87238,-9.501582 -1.078102,-0.666304 -2.101944,5.192529 -2.116614,12.112109 -0.0061,2.855041 -0.351218,5.401245 -0.767032,5.658233 -0.415815,0.256987 -1.990815,-0.59487 -3.5,-1.893017 C 19.603082,68.614681 19,67.217174 19,64.097656 c 0,-2.302028 -0.574434,-4.33754 -1.354015,-4.797966 -0.744709,-0.439829 -1.859803,-1.764097 -2.477987,-2.942817 -0.917913,-1.750225 -0.74804,-2.621046 0.926595,-4.75 C 17.222405,50.173093 18.787499,49 19.57258,49 c 1.894877,0 1.836914,2.905632 -0.07258,3.638374 -2.300598,0.882822 -1.875322,5.030214 0.581686,5.672736 1.763955,0.461285 2.03488,1.192642 1.775024,4.79164 -0.195007,2.700836 0.139351,4.395937 0.918314,4.655591 C 24.257335,68.252445 24.330609,67.656351 24.036006,57.5 23.847122,50.988296 23.385318,48.941889 21.553683,46.5 9.9538236,31.035367 21.515173,9.1243398 40.112737,11.326946 c 2.804458,0.332147 5.613871,0.961913 6.243139,1.399481 C 46.985144,13.163994 49.75,13.517053 52.5,13.511002 57.108587,13.500861 57.475509,13.323864 57.187142,11.25 56.949746,9.5427048 57.371849,9 58.937142,9 60.071714,9 61,9.4131956 61,9.9182125 c 0,0.5050165 0.259902,1.5955055 0.577559,2.4233075 0.771949,2.011667 -3.219544,4.068591 -8.895653,4.58417 -0.449952,0.04087 0.05009,1.31181 1.111194,2.82431 4.026212,5.738946 4.532673,9.511419 2.621747,19.528584 -1.534087,8.041758 -2.190007,9.633454 -5.127344,12.442327 -2.503597,2.394102 -4.647124,3.390564 -8.350307,3.881808 -2.740147,0.363493 -5.210916,1.031152 -5.490597,1.483686 -0.279681,0.452533 1.021559,2.98072 2.891645,5.618192 4.734289,6.676994 5.909446,9.168248 6.42333,13.617031 C 47.261341,80.648205 45.275902,89 43.747594,89 43.201728,89 43.315311,89.675 44,90.5 c 0.783663,0.944256 2.987423,1.5 5.948131,1.5 5.440664,0 8.956355,-2.834087 8.683516,-7 -0.135999,-2.076538 -0.614098,-2.453238 -2.82256,-2.223928 -2.981547,0.30958 -4.114535,-0.816512 -3.205343,-3.18583 0.725866,-1.891575 4.722129,-2.111571 6.180557,-0.340242 0.908505,1.103422 1.603992,6.084206 1.317016,9.431906 -0.14906,1.738847 -5.352576,5.161594 -8.697634,5.721093 -1.597026,0.267121 -4.379404,-0.148112 -6.183062,-0.922741 z M 46.75,50.426405 C 49.704117,48.493085 49.604173,45.28927 46.5,42.41242 43.920538,40.021855 43.206856,36.608224 45.048558,35.469989 46.965246,34.285411 43.911993,32 40.412739,32 c -2.162877,0 -3.669988,0.61756 -4.270749,1.75 -1.05725,1.992926 -1.478244,16.896913 -0.521037,18.445706 0.822158,1.33028 8.180352,0.160471 11.129047,-1.769301 z M 29,41.535184 C 29,34.189322 28.744277,32.933509 27.065475,32.035041 24.117415,30.457287 20,32.375113 20,35.326026 20,38.491622 21.967263,44 23.097825,44 23.594021,44 24,42.65 24,41 c 0,-1.65 0.45,-3 1,-3 1.122977,0 1.268194,0.884266 1.022249,6.224716 C 25.841604,48.147238 26.495017,50 28.059017,50 28.576558,50 29,46.190833 29,41.535184 Z M 55.159214,31.497069 C 56.2142,27.55233 53.208091,21.052735 48.632389,17.385229 c -6.049275,-4.8486 -15.105805,-4.778427 -21.291344,0.164974 -3.48751,2.787171 -2.691178,4.034487 1.260174,1.973843 C 32.895033,17.284807 40.537427,17.537427 43,20 c 1.743633,1.743633 2.773809,5 1.581787,5 -0.230016,0 -1.168993,0.288102 -2.086614,0.640226 -1.243061,0.477007 -1.588948,0.158333 -1.356746,-1.25 C 41.6617,21.216525 40.092588,20 35.475779,20 c -3.502487,0 -5.131166,0.63654 -7.940983,3.103592 -5.474899,4.807026 -4.791412,5.411597 6.215204,5.497597 9.934325,0.07762 14.264033,1.300941 17.222918,4.866179 1.799175,2.167874 3.263953,1.478469 4.186296,-1.970299 z M 50,68.757647 C 50,66.013051 46.794738,62.623748 42.75,61.091363 41.2375,60.518339 40,59.540219 40,58.917762 c 0,-0.669093 0.715387,-0.854979 1.75,-0.45472 4.292536,1.660646 7.335874,1.710711 9.703135,0.159622 C 55.131479,56.212521 56.13511,56.54779 54.82783,59.75 54.210363,61.2625 53.434001,64.263372 53.102581,66.418604 52.428844,70.79994 50,72.63105 50,68.757647 Z"/>
</svg>
