<?xml version="1.0" encoding="utf-8"?>
<svg xmlns="http://www.w3.org/2000/svg" version="1.1" viewBox="0 0 1179 660">
	<path d="m 1018.3281,19.339844 c -0.9394,-0.01696 -2.1597,0.02264 -3.7715,0.08008 -3.6365,0.129607 -7.1404,0.763502 -7.7851,1.408203 C 1006.1268,21.472824 1005.0738,22 1004.4316,22 c -0.6423,0 -4.43327,1.891658 -8.42574,4.203125 l -7.25977,4.203125 -1.8789,-2.322266 c -1.69862,-2.097702 -2.16716,-2.203375 -4.85547,-1.089843 -2.18985,0.907065 -3.75684,2.888539 -5.9375,7.503906 -2.50601,5.303993 -3.65576,6.604264 -7.46289,8.447265 -12.4076,6.006417 -16.47481,13.727782 -18.61719,35.337891 -0.58797,5.930829 -1.47194,11.8442 -1.96484,13.140625 -1.72468,4.536248 -20.25405,16.790752 -22.90821,15.150392 -0.47126,-0.29126 -1.42321,-4.92795 -2.11328,-10.302736 -1.41497,-11.02094 -4.46317,-17.992234 -9.57422,-21.890625 -4.60348,-3.511245 -12.55121,-2.862205 -22.43359,1.830079 -5.94129,2.821 -8.01957,4.409985 -10,7.646484 -2.35331,3.84587 -2.70537,4.045422 -6,3.40625 -5.66075,-1.098209 -9.94953,-0.41608 -15.13867,2.408203 -2.67974,1.4585 -5.06923,2.454215 -5.31055,2.212891 -0.24133,-0.241324 10e-4,-2.397326 0.53906,-4.791016 1.1358,-5.055058 -0.0595,-15.692416 -2.39062,-21.271484 -0.84284,-2.017196 -2.80681,-4.460368 -4.36524,-5.429688 -1.55844,-0.969319 -3.74762,-2.5631 -4.86328,-3.542969 -3.98748,-3.502155 -9.96732,-4.874048 -16.24023,-3.724609 -3.15185,0.57754 -6.40547,1.632967 -7.23047,2.345703 -0.825,0.712736 -3.3,2.212614 -5.5,3.332031 -4.59687,2.339006 -5.88715,3.751461 -13.0957,14.337891 -6.34148,9.313069 -6.78029,11.571065 -6.07813,31.310545 l 0.52149,14.66797 -2.67383,-0.31055 c -2.06061,-0.23818 -2.58886,-0.76751 -2.30274,-2.30859 0.20423,-1.1 0.4292,-5.93099 0.5,-10.73438 L 791.5,97.033203 787.91016,93.443359 c -4.83731,-4.837217 -9.78592,-5.516212 -17.63086,-2.416015 -7.73456,3.056574 -11.20077,5.675414 -21.47657,16.226566 -8.36357,8.5877 -11.25726,10.09418 -10.43164,5.43164 0.21291,-1.20233 0.7091,-4.11964 1.10352,-6.48438 0.57691,-3.45884 1.43265,-4.77288 4.37305,-6.718748 2.01029,-1.330345 4.55502,-2.588845 5.65429,-2.796875 C 755.90912,95.473025 761,93.59218 761,92.439453 761,90.496735 759.00623,89.591327 755.28711,89.841797 751.68196,90.084591 750.81702,88.510239 754,87.5 c 2.31552,-0.734918 2.69293,-4.296075 0.54297,-5.121094 -0.80105,-0.30739 -3.44482,-0.135495 -5.875,0.382813 -3.2704,0.697508 -5.03507,0.599542 -6.79297,-0.375 -1.30627,-0.724168 -5.075,-1.330225 -8.375,-1.347657 -6.53926,-0.03455 -11.18848,2.030917 -13.9043,6.175782 -1.9776,3.018203 -4.48421,13.947806 -5.03125,21.943356 -0.23864,3.48804 -0.91197,7.91457 -1.49804,9.83594 -1.27862,4.19187 -1.26865,4.00586 -0.22657,4.00586 1.69135,0 3.41579,-5.74837 4.75977,-15.86328 1.22816,-9.24321 1.79173,-10.971536 5.21875,-16.000001 3.12999,-4.592633 4.4302,-5.693992 7.01172,-5.949219 2.81806,-0.278614 3.47348,0.1867 5.91992,4.216797 2.34462,3.862353 3.23002,4.537513 6,4.564453 3.78131,0.03678 4.32942,1.54364 0.87695,2.410156 C 738.61489,97.385869 730,106.202 730,109.30078 c 0,1.58253 0.55221,2.69922 1.33398,2.69922 0.73334,0 1.36194,0.5625 1.39844,1.25 0.0364,0.6875 0.79846,5.975 1.69336,11.75 1.44295,9.31162 1.54969,14.53691 0.66016,32.22656 -0.0478,0.94982 -1.15236,2.42573 -2.45508,3.2793 -2.15497,1.412 -2.63431,1.39872 -5.33008,-0.14844 -3.52058,-2.02054 -5.98375,-1.32326 -7.26953,2.0586 -0.51587,1.35686 -1.74601,2.48797 -2.73437,2.51367 -0.98838,0.0257 -3.54503,0.33322 -5.68165,0.68359 l -3.88476,0.63672 0.61523,-12.875 c 0.33813,-7.08133 1.25517,-14.94192 2.03907,-17.46875 0.8418,-2.71349 1.07713,-5.15893 0.57421,-5.97266 -0.98965,-1.6013 -0.81715,-1.95327 -4.20507,8.56641 -1.23991,3.85 -2.69024,7 -3.22461,7 -0.53437,0 -2.24031,-3.15 -3.79102,-7 -5.17269,-12.84237 -7.12327,-16.92795 -13.12109,-27.5 -5.7755,-10.18018 -10.98393,-17 -12.98438,-17 -0.5363,0 -1.68566,-0.643248 -2.55469,-1.429688 -1.05187,-0.951937 -4.34844,-1.502762 -9.85937,-1.648437 -7.26616,-0.192072 -8.73192,0.07566 -11.99805,2.191406 l -3.7207,2.410157 -5,-3.34961 c -2.75,-1.84206 -5.77026,-4.038535 -6.71094,-4.880859 -3.15894,-2.828658 -18.23831,-9.328006 -27.74414,-11.958985 -9.31892,-2.579249 -13.53535,-2.63805 -21.83203,-0.300781 -9.98659,2.813337 -12.04667,3.838905 -12.80469,6.376953 -0.34329,1.149438 -1.99583,4.789844 -3.67382,8.089844 -4.01823,7.902298 -4.82439,13.36644 -3.22266,21.84766 0.88649,4.694 0.99266,7.83859 0.33594,10 -1.70295,5.60484 -1.19865,15.71532 1.08789,21.78711 2.63312,6.99215 6.39276,11.3107 9.11328,10.46875 1.07329,-0.33216 2.73867,-0.85242 3.70117,-1.15625 1.60599,-0.50695 1.72248,0.32705 1.40625,10.125 -0.26983,8.36 0.1304,12.73325 1.8457,20.15625 1.20483,5.21393 1.80905,9.83132 1.34375,10.26171 -0.46531,0.43038 -3.9957,1.29482 -7.8457,1.91993 -3.85,0.62512 -9.14051,1.66217 -11.75781,2.30468 -6.22112,1.5272 -7.46144,0.4581 -5.65625,-4.87304 0.71553,-2.11313 1.18747,-4.81113 1.04883,-5.9961 -0.13865,-1.18497 0.22416,-2.44859 0.80664,-2.80859 1.59141,-0.98354 1.27271,-5.24067 -0.44141,-5.89844 -0.825,-0.31658 -1.5,-1.27137 -1.5,-2.12109 0,-0.84973 -0.40043,-2.32621 -0.88867,-3.28125 -0.48825,-0.95504 -2.1267,-4.34586 -3.64258,-7.53516 -3.88055,-8.16435 -9.01015,-10.54064 -15.50195,-7.18359 -2.9383,1.51945 -5.9668,6.04307 -5.9668,8.91211 0,0.84076 -0.8582,4.34978 -1.9082,7.79883 -1.05,3.44905 -2.36417,10.9225 -2.91992,16.60742 -0.55578,5.68493 -1.19706,10.52126 -1.42383,10.74804 -0.22678,0.22677 -3.86261,0.70404 -8.08008,1.06055 -6.73876,0.56963 -7.66797,0.44736 -7.66797,-1.01172 0,-0.91317 0.42007,-2.44144 0.93359,-3.39648 1.61866,-3.01038 5.70136,-21.38835 7.60547,-34.23633 2.41544,-16.29817 2.65449,-17.43707 4.07617,-19.4668 0.76201,-1.08792 1.38477,-2.68977 1.38477,-3.56054 0,-0.87076 1.12999,-3.11548 2.51172,-4.98828 3.29117,-4.46094 14.73822,-28.09086 16.70508,-34.48438 0.846,-2.75 2.07501,-7.025 2.73047,-9.5 0.65546,-2.475 1.85101,-6.557298 2.6582,-9.072266 C 550.42443,77.260348 549.68302,75 546.00391,75 c -4.94016,0 -6.85706,2.654275 -15.53125,21.5 -2.0252,4.4 -4.3174,9.76622 -5.09375,11.92383 -2.81901,7.83451 -14.93158,30.84281 -16.94336,32.18555 -1.52684,1.01908 -7.77211,1.51615 -24,1.91406 -37.43747,0.91797 -42.49636,1.613 -54.95313,7.54883 -8.89626,4.23919 -12.93583,8.9119 -20.25195,23.42773 -1.91522,3.79997 -6.23382,8.5 -7.81055,8.5 -1.63221,0 -2.72117,3.09719 -1.51367,4.30469 0.53412,0.53412 4.17909,0.94179 8.10156,0.90429 5.77142,-0.0552 7.50071,0.29954 9.0625,1.86133 1.06144,1.06144 1.92969,2.59017 1.92969,3.39844 0,0.80827 0.97421,3.17077 2.16406,5.25 1.18985,2.07923 2.79684,5.01875 3.57227,6.53125 0.77544,1.5125 1.82622,2.75 2.33594,2.75 0.50972,0 0.92773,0.40786 0.92773,0.90625 0,1.00691 -5.61258,1.84655 -17.17969,2.57031 -4.22332,0.26425 -10.07332,0.69146 -13,0.94922 -4.67589,0.41182 -14.87657,1.23852 -25.82031,2.09375 -1.925,0.15044 -8.45,0.85268 -14.5,1.56055 -15.43951,1.80645 -20.03331,1.78843 -19.86328,-0.0801 0.60868,-6.68898 3.80689,-20.97821 5.14844,-23 0.91237,-1.375 1.58042,-2.77769 1.48242,-3.11719 -0.098,-0.33949 0.9047,-1.63731 2.23047,-2.88281 2.01018,-1.88846 3.78938,-2.32881 10.70703,-2.65625 4.56239,-0.21595 9.41992,-0.67559 10.79492,-1.02148 1.375,-0.34588 6.39933,-0.67337 11.16602,-0.72657 4.76669,-0.0532 9.04169,-0.4718 9.5,-0.93164 0.97362,-0.97688 -3.47729,-4.89898 -4.70118,-4.14258 -0.4547,0.28103 -1.10961,0.0531 -1.45507,-0.50586 -0.59788,-0.96736 0.65173,-1.41223 3.12695,-1.11523 2.31508,0.27778 6.36328,-1.9003 6.36328,-3.42383 0,-1.89323 -7.34295,-5.42418 -11.3457,-5.45508 -3.82141,-0.0295 -7.62656,-2.43124 -10.6543,-6.72656 -5.73902,-8.14171 -13.24143,-12.91599 -16.39258,-10.42969 -0.60876,0.48032 -2.77972,1.41193 -4.82422,2.07032 -5.0377,1.62229 -8.40892,5.94546 -9.77734,12.53711 -0.62714,3.02091 -1.56656,5.75592 -2.08789,6.07812 -0.52133,0.3222 -1.57888,2.09484 -2.34961,3.93945 -0.77072,1.84461 -2.67595,4.17199 -4.23438,5.17188 -15.84919,10.16877 -24.27749,19.86904 -31.82226,36.62109 l -3.88867,8.63282 -4.98438,1.06836 c -6.21458,1.33278 -7.27364,0.46861 -5.60742,-4.58008 0.70425,-2.13389 1.3406,-9.90406 1.46094,-17.8418 0.23461,-15.47536 -0.0328,-14.94848 6.67773,-13.11523 4.0905,1.11747 5.72832,-2.2505 6.17578,-12.68946 0.43859,-10.23183 -1.34804,-14.5043 -7.9082,-18.91015 -3.91784,-2.63126 -4.2462,-2.67782 -11.98242,-1.74805 -9.49365,1.14098 -14.45795,2.94517 -19.86719,7.2207 -9.49656,7.50619 -13.58751,12.10838 -17.57227,19.76758 L 236.89844,191 233.94922,189.47461 C 232.32695,188.6357 231,187.53003 231,187.01758 231,185.97586 220.03308,177.0903 212.77539,172.25195 206.21737,167.88002 195.10616,166.30275 186.5,168.52344 180.00165,170.20025 172.07581,175.00739 169.22461,179 166.49048,182.82869 156,207.79578 156,210.47461 156,213.62724 152.01221,220 150.03906,220 c -2.31967,0 -3.44504,1.54093 -2.37304,3.25 0.43129,0.6875 0.66505,1.97651 0.51953,2.86328 -0.29745,1.81267 3.11049,3.40017 9.31445,4.3418 2.2,0.33392 5.8,1.35059 8,2.25781 4.32716,1.7844 10.5,6.97156 10.5,8.82422 0,1.17806 -3.40668,2.35493 -13,4.49023 -8.81163,1.96131 -31.97219,9.74001 -38.45898,12.91602 -3.2773,1.6046 -6.29534,2.70756 -6.70704,2.45312 -0.41169,-0.25444 0.31043,-3.03511 1.60547,-6.17968 1.29503,-3.14456 3.73911,-10.08639 5.42969,-15.42774 1.69059,-5.34136 4.26592,-12.54136 5.72266,-16 1.45674,-3.45865 3.46498,-8.76406 4.46484,-11.78906 0.99986,-3.025 3.01814,-8.65 4.48438,-12.5 8.33239,-21.87895 10.51125,-36.5 5.43945,-36.5 -1.99785,0 -6.3262,7.79456 -6.66406,12 -0.11046,1.375 -0.48737,3.85 -0.83594,5.5 -0.34856,1.65 -0.85304,4.35 -1.12109,6 -0.45994,2.83106 -4.90602,13.59463 -9.67579,23.42383 C 124.07756,215.29416 118.87595,221 116.58594,221 c -0.92256,0 -2.80615,-1.13037 -4.1875,-2.51172 -1.60236,-1.60236 -3.48695,-2.44474 -5.20508,-2.32812 -1.48115,0.10054 -3.68601,-0.14272 -4.89844,-0.54102 -1.41649,-0.46533 -3.097615,-0.13919 -4.705076,0.91406 -1.375884,0.90151 -2.923695,1.37931 -3.439453,1.06055 -0.515758,-0.31875 -2.545956,0.0908 -4.511719,0.91211 -1.965764,0.82135 -5.052257,1.5098 -6.857422,1.5293 C 80.976084,220.05464 78.375,220.71398 77,221.5 c -1.375,0.78602 -3.648281,1.44534 -5.050781,1.46484 -1.4025,0.0195 -2.9775,0.41004 -3.5,0.86914 -0.5225,0.45909 -3.199219,1.64319 -5.949219,2.63086 -5.797598,2.08222 -10.71821,4.84227 -15.101562,8.46875 -1.706249,1.41163 -4.468394,3.30427 -6.136719,4.20508 -3.251354,1.75555 -9.558767,9.83499 -12.773438,16.36133 -1.083651,2.2 -2.58677,4.76564 -3.339843,5.70117 -1.228737,1.52644 -1.883889,15.39738 -0.779297,16.50195 0.204025,0.20403 -0.281016,3.39175 -1.078125,7.08399 -0.797109,3.69224 -1.794144,9.11314 -2.214844,12.04687 -0.718036,5.00718 -0.62031,5.38802 1.580078,6.22461 1.403408,0.53358 2.34375,1.71189 2.34375,2.93555 0,1.72229 0.432613,1.94063 2.75,1.38672 3.821427,-0.9134 4.245823,-1.23855 5.326172,-4.08008 0.617775,-1.62488 1.47331,-2.3048 2.435547,-1.93555 0.815734,0.31303 4.970254,-1.16923 9.234375,-3.29492 C 55.130271,292.89374 71,287.7283 71,289.52539 c 0,0.3768 -1.145586,2.04756 -2.546875,3.71289 -1.401289,1.66534 -3.480794,4.85663 -4.621094,7.0918 l -2.074219,4.06445 2.677735,2.30274 c 2.003848,1.72364 3.857043,2.28734 7.371094,2.24414 5.168542,-0.0636 24.97423,-1.63808 29.654299,-2.35743 16.79414,-2.58135 24.19076,-3.97457 24.98828,-4.70898 0.5225,-0.48116 1.69216,-0.875 2.59766,-0.875 0.90548,0 2.97409,-0.66272 4.59765,-1.47266 1.62357,-0.80994 5.17197,-1.73881 7.88477,-2.06445 4.77249,-0.57289 9.61133,-1.9885 31.11328,-9.10547 5.5779,-1.84624 11.09765,-3.35742 12.26758,-3.35742 1.16993,0 5.32722,-1.11793 9.23828,-2.48438 l 7.11133,-2.48437 4.61914,3.9043 c 2.54111,2.1471 6.80536,6.13969 9.47461,8.87304 l 4.85351,4.96875 1.46875,11.36133 c 1.49165,11.53603 1.71668,15.15006 2.83594,45.36133 1.1,29.6915 2.4038,37.90175 6.96875,43.88672 3.27012,4.28734 3.97133,3.96991 8.05664,-3.64453 2.83136,-5.27723 3.22044,-7.2967 5.45508,-28.24219 1.99319,-18.68241 2.61615,-21.34756 7.00195,-29.98828 3.10493,-6.11722 3.17379,-6.17455 7.32031,-6.09375 3.99698,0.0779 4.28355,-0.1205 6.3711,-4.41797 1.20227,-2.475 3.37748,-9.9 4.83398,-16.5 1.45649,-6.6 3.09963,-13.76083 3.65235,-15.91211 0.5527,-2.15128 1.17526,-4.85128 1.38281,-6 0.5054,-2.79715 2.30511,-10.16308 3.68554,-15.08789 0.61667,-2.2 1.02486,-4.5385 0.90821,-5.19727 -0.25498,-1.44008 2.20688,-2.80377 6.54492,-3.625 3.59125,-0.67985 3.56635,-0.72458 5.19922,8.47071 1.25362,7.05958 9.76734,24.60921 12.33398,25.42383 2.70879,0.85973 4.13372,-0.72489 9.36914,-10.40821 2.57651,-4.76546 5.79351,-10.11792 7.14844,-11.89453 1.35493,-1.77661 3.46808,-5.70416 4.69727,-8.72851 1.22919,-3.02436 3.33408,-6.36258 4.67578,-7.41797 3.80264,-2.99116 31.37776,-6.3909 61.48437,-7.58008 6.10608,-0.24118 17.69872,-1.16155 25.75977,-2.04492 8.06105,-0.88337 14.9886,-1.41912 15.39648,-1.19141 0.40787,0.22771 3.89219,0.0348 7.74219,-0.42773 6.59812,-0.7926 22.99066,-2.133 41,-3.35352 4.4,-0.29819 10.50009,-0.77508 13.55469,-1.06055 8.04434,-0.7518 20.96655,-1.73369 24.44531,-1.85742 l 3,-0.10742 -0.125,26 c -0.0731,15.25871 -0.63361,29.09845 -1.35742,33.5 -0.67833,4.125 -1.2268,8.175 -1.2168,9 0.01,0.825 -0.5925,4.65 -1.33984,8.5 -2.50735,12.91697 -2.64367,13.97503 -2.63867,20.6543 0.006,7.3944 1.10515,10.33093 4.16406,11.13086 2.766,0.72332 4.9972,-1.73372 5.09179,-5.60743 0.0427,-1.74821 0.20225,-8.35273 0.35547,-14.67773 0.96676,-39.9088 2.26379,-53.63458 5.95508,-63 0.75872,-1.925 2.12904,-6.65 3.04492,-10.5 0.91587,-3.85 2.13663,-8.93981 2.71094,-11.31055 1.21268,-5.00597 2.83251,-5.91407 10.89258,-6.10937 8.49763,-0.20591 23.97023,-1.82672 39.96289,-4.18555 4.125,-0.60841 9.525,-1.30063 12,-1.53906 2.475,-0.23844 5.625,-0.85566 7,-1.37109 3.33644,-1.25076 10.38944,-2.73334 16.38086,-3.44336 2.68403,-0.31808 7.63403,-1.51564 11,-2.66016 3.36597,-1.14453 7.69414,-2.26678 9.61914,-2.49414 1.925,-0.22736 4.4,-0.81729 5.5,-1.31055 1.1,-0.49326 4.05527,-1.8368 6.56641,-2.98633 2.51115,-1.14953 5.26777,-2.08984 6.12695,-2.08984 0.85918,0 3.07892,-0.63184 4.93359,-1.4043 1.85466,-0.77246 4.72305,-1.63806 6.37305,-1.92382 1.65,-0.28578 6.825,-1.71743 11.5,-3.18165 4.675,-1.46422 10.075,-3.11625 12,-3.66992 1.925,-0.55368 3.92672,-1.41517 4.44922,-1.91406 0.5225,-0.49889 1.95887,-0.90625 3.1914,-0.90625 1.23254,0 2.50394,-0.42319 2.82422,-0.94141 0.32028,-0.51822 2.48392,-1.22252 4.8086,-1.56445 7.44307,-1.09478 9.85802,-1.67584 19.27734,-4.63672 3.32776,-1.04605 7.37776,-2.08851 9,-2.3164 5.62025,-0.78953 12.96233,-2.40135 15.72461,-3.45313 1.52637,-0.58119 5.57637,-1.51127 9,-2.06641 6.51006,-1.0556 7.40138,-1.22837 14.72461,-2.85351 2.475,-0.54924 6.71789,-1.28637 9.42969,-1.63672 2.7118,-0.35035 5.36052,-0.90061 5.88476,-1.22461 1.19304,-0.73734 14.15658,-3.39947 18.18555,-3.73437 9.21298,-0.76583 24.13459,-4.24337 31.31641,-7.29688 2.02559,-0.86122 6.38359,-2.14373 9.68359,-2.85156 9.02443,-1.93569 14.61541,-3.48972 18.5,-5.14258 3.91859,-1.66733 3.66569,-1.60212 14,-3.70117 13.61703,-2.76581 17.45148,-3.82683 22,-6.08789 2.475,-1.23032 7.2,-3.01161 10.5,-3.95899 3.3,-0.94738 6.49234,-2.12719 7.09375,-2.62109 0.6014,-0.49391 3.7514,-1.30818 7,-1.81055 3.24859,-0.50237 10.56299,-2.56113 16.25391,-4.57617 5.69091,-2.01504 11.72844,-3.70395 13.41796,-3.75195 5.55174,-0.15785 9.96501,8.00592 8.99219,16.63672 -0.36955,3.27865 -0.0391,5.27547 1.18555,7.14453 2.2761,3.47377 2.45822,4.91889 1.49805,11.875 -1.25866,9.11854 2.36839,15.10327 10.36914,17.11133 2.53941,0.63735 2.68945,1.00381 2.68945,6.58789 0,5.20683 -0.26872,6.01878 -2.25,6.78711 -1.2375,0.4799 -10.35,3.45708 -20.25,6.61718 -9.9,3.16009 -18.45,6.0726 -19,6.47266 -0.55,0.40007 -3.7,1.72269 -7,2.9375 -3.3,1.21482 -7.35,2.7918 -9,3.50586 -2.97643,1.28808 -8.99818,2.97228 -21.5,6.00976 -9.31701,2.26368 -15.84324,4.07783 -21,5.8379 -13.32495,4.54792 -17.66241,5.4533 -20.03125,4.18554 -3.62599,-1.94058 -20.98983,-1.6639 -34.78125,0.55274 -15.18783,2.44107 -20.97459,5.05412 -16.9375,7.65039 1.53746,0.98874 13.09931,4.02556 21.42578,5.62695 6.34345,1.22 9.34167,2.6875 5.49024,2.6875 -1.19167,0 -2.32125,-0.1125 -2.51172,-0.25 -0.19046,-0.1375 -0.97796,0.26331 -1.75,0.89062 -1.89843,1.54263 -20.34353,6.51044 -25.75196,6.93555 -2.39121,0.18796 -4.97871,0.8638 -5.75,1.50391 -0.77129,0.64012 -1.40234,0.85441 -1.40234,0.47461 0,-0.3798 -1.35,0.27041 -3,1.44531 -4.72463,3.36423 -3.94789,5.42029 2.75,7.2793 6.94126,1.92655 23.12148,4.18321 23.96289,3.34179 0.33169,-0.33169 1.15815,-0.14259 1.83594,0.41993 1.49998,1.24488 16.35776,1.88645 18.45117,0.79687 0.825,-0.4294 4.80509,-1.72476 8.84375,-2.87891 4.03865,-1.15416 10.29736,-3.72314 13.91016,-5.70898 3.61279,-1.98584 7.50965,-3.69839 8.6582,-3.80469 2.80507,-0.25961 16.44713,-2.97197 25.08789,-4.98828 3.85,-0.89839 8.80606,-2.01015 11.01367,-2.4707 2.20762,-0.46054 6.48262,-1.73598 9.5,-2.83399 3.01739,-1.098 7.96133,-2.30919 10.98633,-2.6914 3.025,-0.38221 6.4,-0.8876 7.5,-1.12305 1.1,-0.23545 4.35282,-0.69555 7.22852,-1.02148 4.24737,-0.4814 5.34392,-0.29005 5.8457,1.01757 0.54316,1.41544 -3.02283,8.82076 -10.91602,22.66602 -1.09744,1.925 -3.0538,5.525 -4.34765,8 -1.29385,2.475 -3.23612,5.85 -4.31641,7.5 -2.25019,3.43686 -3.99414,7.18887 -3.99414,8.59375 0,1.30316 -5.79732,12.75964 -8.12695,16.06055 -1.03034,1.4599 -1.87782,3.7099 -1.88282,5 -0.005,1.2901 -1.11598,4.5957 -2.46875,7.3457 -1.35277,2.75 -2.47303,6.0556 -2.49023,7.3457 -0.0172,1.2901 -0.95272,3.64137 -2.08008,5.22461 -1.12737,1.58324 -1.94495,3.45263 -1.8164,4.1543 0.12855,0.70167 -0.57367,3.07539 -1.56055,5.27539 -0.98688,2.2 -1.92908,5.42093 -2.09375,7.1582 -0.16466,1.73727 -0.99007,4.66227 -1.83399,6.5 -1.35998,2.96152 -2.36558,6.07964 -5.5957,17.3418 -0.47324,1.65 -1.39415,6.15 -2.04492,10 -0.65078,3.85 -1.86748,9.68346 -2.70508,12.96289 -2.74291,10.73932 -3.26721,22.75017 -1.18164,27.10156 1.32977,2.77449 1.7272,2.91724 8.88672,3.21094 5.69305,0.23354 8.33534,-0.12356 10.99414,-1.48437 3.14568,-1.61002 3.55292,-2.29718 4.01562,-6.79102 0.28316,-2.75 0.13654,-6.50468 -0.32421,-8.34375 -0.46075,-1.83908 -0.60235,-3.5793 -0.31446,-3.86719 0.28789,-0.28789 3.39673,2.39136 6.90821,5.95508 3.9553,4.01416 7.49492,6.69552 9.30078,7.04688 1.60322,0.31194 5.83906,1.25903 9.41406,2.10351 3.575,0.84448 7.7375,1.55101 9.25,1.57031 1.5125,0.0193 2.71974,0.37266 2.68164,0.78516 -0.26758,2.89544 -6.63109,19.73286 -7.43164,19.66406 -0.55,-0.0473 -3.89651,-5.1098 -7.4375,-11.25 C 940.37754,431.04018 938.10029,428 936.69922,428 c -1.72697,0 -1.85624,0.48948 -1.23828,4.75 0.90307,6.22622 6.66959,18.07112 11.40429,23.42578 l 2.36719,2.67578 -3.22461,8.32422 c -3.50428,9.05002 -5.32127,15.38673 -9.99219,34.82422 -0.59474,2.475 -2.64211,8.38716 -4.54882,13.13867 -1.90671,4.75151 -3.4668,9.34302 -3.4668,10.20313 0,1.42616 -0.73029,3.58247 -3.09961,9.1582 -0.46743,1.1 -1.82056,4.7 -3.00781,8 -1.18724,3.3 -2.564,6.51289 -3.0586,7.14062 -1.22882,1.55962 -11.03874,21.54635 -11.23632,22.89258 -0.31476,2.1446 -16.9977,35.87855 -19.02344,38.4668 -0.64571,0.825 -2.05029,3.3 -3.12305,5.5 -3.23544,6.6352 -7.17803,11.12669 -13.21679,15.0625 -3.15438,2.05587 -6.63438,4.52326 -7.73438,5.48242 -1.1,0.95915 -3.9125,2.0561 -6.25,2.4375 -2.3375,0.38139 -4.25,1.07175 -4.25,1.53516 0,0.4634 -0.99624,0.98636 -2.21484,1.16211 -1.2186,0.17575 -3.24367,1.85002 -4.5,3.71875 -3.08436,4.58784 -1.74853,6.20578 4.55468,5.51367 2.56256,-0.28138 5.33516,-0.5216 6.16016,-0.5332 0.825,-0.0116 3.58337,-0.42281 6.13086,-0.91407 2.76048,-0.53233 5.92421,-0.52255 7.82812,0.0234 1.75701,0.5039 6.00808,0.5781 9.44727,0.16406 3.43919,-0.41404 7.56752,-0.35929 9.17383,0.12305 1.60631,0.48234 10.29565,1.0566 19.31054,1.27539 9.01491,0.21878 16.59629,0.60216 16.84766,0.85352 0.25136,0.25134 1.01669,0.24435 1.69922,-0.0176 0.68253,-0.26192 9.97614,-0.69174 20.65234,-0.95313 10.6762,-0.2614 22.56016,-0.70335 26.41016,-0.98242 5.33443,-0.38668 53.4252,-3.17292 62.5,-3.62109 0.825,-0.0408 6.8166,-0.67562 13.3145,-1.41211 6.498,-0.73648 16.848,-1.6023 23,-1.92383 6.1521,-0.32154 15.9105,-1.02655 21.6855,-1.56641 5.775,-0.53987 14.325,-1.17131 19,-1.40429 4.675,-0.23299 11.65,-0.66615 15.5,-0.96094 3.85,-0.2948 9.1565,-0.61358 11.791,-0.70898 2.6344,-0.0954 5.0126,-0.53363 5.2852,-0.97461 0.2725,-0.44098 1.6859,-0.34875 3.1426,0.20507 1.7974,0.68343 3.4732,0.6711 5.2148,-0.0371 1.4113,-0.57393 4.9289,-0.89479 7.8164,-0.7129 4.2671,0.2688 5.2465,0.0342 5.2305,-1.25195 -0.031,-2.43901 -1.814,-14.24951 -2.211,-14.64648 -0.1937,-0.19376 -4.1582,0.26417 -8.8105,1.01562 -4.6523,0.75145 -12.734,1.66487 -17.959,2.03125 -5.225,0.36638 -14.675,1.30523 -21,2.08594 -6.325,0.78071 -13.75,1.38756 -16.5,1.34766 -2.75,-0.0399 -8.15,0.44969 -12,1.08789 -3.85,0.6382 -8.35,1.32113 -10,1.51757 -1.65,0.19644 -5.025,0.80104 -7.5,1.34571 -2.475,0.54467 -7.425,1.01371 -11,1.04101 -3.575,0.0273 -7.9434,0.47188 -9.707,0.98828 -1.7636,0.5164 -4.1519,0.69117 -5.3086,0.38868 -1.1567,-0.3025 -5.0327,0.24366 -8.6133,1.21289 -4.2232,1.14315 -6.8528,1.42071 -7.4844,0.78906 -0.5961,-0.59606 -2.9731,-0.65871 -6.1269,-0.16016 -2.8337,0.44792 -5.3297,0.63714 -5.5469,0.41993 -0.2173,-0.21722 0.3067,-1.66653 1.1641,-3.22071 0.8574,-1.55418 2.4796,-4.70607 3.6054,-7.0039 1.1848,-2.4183 4.9322,-6.62995 8.8965,-10 3.7668,-3.20217 7.4315,-6.71846 8.1445,-7.81446 2.5328,-3.89343 2.9372,-8.77119 1.3164,-15.90625 -1.2721,-5.60029 -1.3441,-7.64125 -0.3828,-10.84961 0.6512,-2.17358 1.1608,-8.16833 1.1328,-13.32031 -0.04,-7.41867 -0.471,-10.15079 -2.0703,-13.13476 -1.1107,-2.07227 -2.0195,-4.63829 -2.0195,-5.70313 0,-1.06484 -0.767,-2.78373 -1.7051,-3.82031 -1.3924,-1.53861 -1.4842,-2.2404 -0.5,-3.81641 1.9436,-3.11222 1.4072,-4.75326 -1.7793,-5.45312 -2.4836,-0.54549 -3.227,-1.43952 -4.4355,-5.33008 -0.7986,-2.57075 -2.6053,-6.88804 -4.0156,-9.59375 -1.4104,-2.70571 -2.5645,-5.41779 -2.5645,-6.02735 0,-0.60955 -0.9,-1.87846 -2,-2.82031 -1.1,-0.94185 -2,-2.39227 -2,-3.22265 0,-0.83039 -0.4187,-1.50977 -0.9316,-1.50977 -0.5129,0 -1.2235,-0.91352 -1.5782,-2.03125 -0.3548,-1.11772 -1.786,-3.25522 -3.1816,-4.75 -1.3955,-1.49477 -4.147,-5.19375 -6.1133,-8.21875 -3.3609,-5.17058 -4.5861,-7.25749 -9.80077,-16.69141 -2.5292,-4.57562 -3.70337,-10.00076 -2.3457,-10.83984 0.54095,-0.33433 0.73446,-1.01078 0.42969,-1.50391 -0.30477,-0.49313 0.32229,-2.61301 1.39257,-4.71093 1.07027,-2.09792 2.69631,-6.39458 3.61331,-9.54883 1.5586,-5.36298 1.5572,-6.06438 -0.02,-10.81055 -1.324,-3.98624 -2.30666,-5.29089 -4.57613,-6.08203 -3.72027,-1.29689 -3.83473,-3.2714 -0.13867,-2.38867 3.543,0.84617 3.9803,0.8492 8.75,0.0664 6.0204,-0.98808 9.2436,-2.44985 10.8672,-4.92773 1.5383,-2.34779 2.3177,-15.52455 1.2461,-21.0625 -1.1106,-5.73908 -1.5698,-41.04833 -0.6309,-48.5 2.2142,-17.57207 2.95,-21.4788 4.2266,-22.46094 0.9225,-0.70976 1.2947,-3.09569 1.1797,-7.53906 -0.093,-3.575 0.2079,-6.9663 0.666,-7.53516 0.458,-0.56886 1.2866,-3.85336 1.8418,-7.30078 0.5552,-3.44741 1.7272,-7.70807 2.6055,-9.46679 0.8783,-1.75873 1.9988,-4.77227 2.4902,-6.69727 0.4915,-1.925 1.408,-5.3 2.0351,-7.5 0.6271,-2.2 1.4883,-6.025 1.9141,-8.5 0.4258,-2.475 1.1112,-5.2875 1.5234,-6.25 0.5935,-1.38607 0.2541,-1.75 -1.6289,-1.75 -2.4828,0 -2.259,-0.52427 -8.0566,19 -0.5716,1.925 -1.4269,3.99119 -1.9004,4.5918 -0.4736,0.6006 -0.5672,1.38594 -0.207,1.74609 0.6076,0.60759 0.037,2.75975 -4.2813,16.16211 -0.8861,2.75 -1.8065,6.575 -2.0468,8.5 -0.2405,1.925 -1.0577,6.425 -1.8145,10 -3.1981,15.10733 -4.7399,53.53561 -3.3047,82.36914 0.477,9.58149 -0.2735,10.63086 -7.6094,10.63086 -4.4296,0 -5.63904,-0.42601 -7.80661,-2.75 C 993.44556,417.64391 992,414.72233 992,411.5332 c 0,-1.42882 -0.67162,-4.20405 -1.49219,-6.16797 -0.82058,-1.96391 -1.48837,-4.76282 -1.48437,-6.21875 0.1005,-36.25675 0.7616,-46.88271 3.77539,-60.64648 1.68604,-7.7 3.7868,-17.375 4.66797,-21.5 0.88117,-4.125 2.43518,-10.2 3.4531,-13.5 5.6184,-18.21255 7.0801,-23.23475 7.0801,-24.32422 0,-0.66296 1.6215,-5.13491 3.6035,-9.93945 1.982,-4.80454 4.9227,-12.06947 6.5352,-16.14258 1.6125,-4.07311 3.551,-8.57311 4.3086,-10 5.638,-10.61948 9.9514,-24.15112 9.2207,-28.92969 -0.4368,-2.85686 -0.075,-4.23501 1.6367,-6.25586 3.5529,-4.1939 13.0625,-9.9082 16.4902,-9.9082 1.6981,0 3.3297,-0.39395 3.627,-0.875 0.2973,-0.48106 5.1629,-2.33643 10.8105,-4.12305 5.6477,-1.78662 14.7676,-5.39495 20.2676,-8.01953 5.5,-2.62458 10.675,-5.03436 11.5,-5.35547 0.825,-0.3211 3.3,-1.71366 5.5,-3.09375 2.2,-1.38009 6.3264,-3.5998 9.1699,-4.93164 2.8435,-1.33183 6.8571,-3.5664 8.918,-4.96679 2.0608,-1.4004 4.1272,-2.30978 4.5937,-2.02149 0.8796,0.54363 3.8184,7.02789 3.8184,8.42578 0,0.83956 -11.7235,8.96094 -12.9355,8.96094 -0.3894,0 -2.4763,1.33796 -4.6368,2.97266 -2.1604,1.6347 -4.4345,2.9847 -5.0547,3 -0.6201,0.0153 -1.7253,0.74576 -2.455,1.625 -1.3434,1.61863 -11.5995,8.53928 -17.7989,12.00976 -6.3302,3.54374 -7.1937,4.11478 -9.4707,6.25391 -1.2524,1.17651 -2.5626,2.13867 -2.9121,2.13867 -0.3495,0 -2.6372,1.35 -5.082,3 -2.4448,1.65 -4.7695,3 -5.166,3 -0.3966,0 -2.8048,1.51224 -5.3535,3.36133 -2.5487,1.84909 -6.6598,4.02519 -9.1348,4.83398 -4.4905,1.46742 -4.5005,1.48243 -5.2188,7.1836 -0.782,6.20816 -7.1501,28.46056 -9.3925,32.82226 -1.954,3.80063 -1.7339,4.9878 0.8574,4.61914 2.2413,-0.31887 5.6247,-5.86492 6.2793,-10.29297 0.5791,-3.9176 5.3229,-17.29578 8.0234,-22.625 3.1332,-6.18303 2.4805,-5.59747 16.9512,-15.21484 13.164,-8.74895 16.107,-10.71398 18.9902,-12.6875 7.2406,-4.95597 10.5853,-7 11.4551,-7 0.5416,0 1.466,-0.9 2.0547,-2 0.5887,-1.1 1.617,-2.00377 2.2852,-2.00977 0.6681,-0.006 3.9061,-2.03078 7.1953,-4.5 3.2892,-2.46922 6.2409,-4.49023 6.5605,-4.49023 0.3196,0 1.4533,-0.7875 2.5195,-1.75 2.1608,-1.95062 13.8899,-9.25 14.8633,-9.25 0.3423,0 -0.065,1.04867 -0.9043,2.33008 -1.8729,2.85841 -1.1743,3.66992 3.1602,3.66992 4.1121,0 5.6558,-0.85852 15.7871,-8.78711 13.5591,-10.61122 13.8796,-11.08536 12.3379,-18.21289 -0.4163,-1.925 -0.7683,-5.1875 -0.7813,-7.25 -0.02,-3.05286 -0.3887,-3.75 -1.9882,-3.75 -1.0807,0 -2.4465,0.9 -3.0352,2 -0.5887,1.1 -1.6449,2 -2.3477,2 -0.7027,0 -2.5994,1.39531 -4.2148,3.09961 -2.9184,3.07904 -12.3396,8.33226 -13.2715,7.40039 -0.2679,-0.26796 0.2058,-1.27827 1.0528,-2.24414 0.8468,-0.96587 2.3216,-3.33086 3.2773,-5.25586 0.9556,-1.925 2.6427,-4.4897 3.748,-5.69922 1.1052,-1.20951 1.7463,-2.88338 1.4258,-3.71875 -0.3206,-0.83537 -0.1529,-1.7843 0.3731,-2.10937 2.11,-1.30406 0.9078,-3.47266 -1.9258,-3.47266 -3.2785,0 -7.356,4.17943 -13.0371,13.36719 -2.0681,3.34453 -4.5674,6.00671 -6.3242,6.73437 -3.5548,1.47246 -18.3999,11.01015 -21.5411,13.83985 -1.2569,1.13226 -3.0569,2.09437 -4,2.13867 -0.9431,0.0443 -3.5148,1.12882 -5.7148,2.4082 -5.9512,3.46088 -18.2087,9.51172 -19.2676,9.51172 -0.5085,0 -2.3646,0.71854 -4.123,1.5957 -1.7583,0.87716 -3.7387,1.70497 -4.4024,1.8418 -3.415,0.70404 -7.3482,2.01461 -9.6406,3.21094 -6.2456,3.25926 -6.7903,0.17644 -1.0664,-6.03321 2.2,-2.38672 4,-4.82511 4,-5.41992 0,-0.5948 0.8335,-1.66998 1.8516,-2.38867 1.8804,-1.32744 5.1484,-6.86662 5.1484,-8.72656 0,-0.56102 1.125,-3.48027 2.5,-6.48633 1.375,-3.00605 2.5,-6.2101 2.5,-7.12109 0,-0.91099 0.9,-2.8008 2,-4.19922 1.1,-1.39842 2,-3.09086 2,-3.75977 0,-0.66891 1.0754,-3.23697 2.3887,-5.70703 2.0189,-3.79701 2.4824,-6.46657 3.0097,-17.27148 0.343,-7.02886 0.8661,-13.73651 1.1602,-14.90821 0.2941,-1.1717 -0.1558,-5.0551 -0.9981,-8.6289 -0.8423,-3.573813 -1.5349,-8.609415 -1.5449,-11.189456 -0.01,-2.580041 -0.4656,-4.968675 -1.0156,-5.308594 -0.55,-0.339919 -1,-1.716053 -1,-3.058594 C 1077,80.098865 1076.541,79 1075.9805,79 c -0.5771,0 -0.7562,-1.043152 -0.4141,-2.40625 0.6918,-2.756326 -0.5414,-5.477073 -4.0898,-9.025391 -1.3621,-1.362153 -2.4766,-3.592836 -2.4766,-4.957031 0,-3.925775 -1.6853,-7.362963 -5.4629,-11.140625 -1.9261,-1.926101 -4.1776,-4.810281 -5.0039,-6.408203 -0.8263,-1.597922 -2.8593,-3.869968 -4.5176,-5.050781 C 1052.3573,38.830906 1051,36.994189 1051,35.931641 1051,34.869093 1050.387,34 1049.6387,34 c -0.7482,0 -3.087,-1.171391 -5.1973,-2.603516 -2.2171,-1.504536 -6.1804,-2.951331 -9.3887,-3.425781 -8.5802,-1.268858 -11.7786,-2.744273 -12.8965,-5.951172 -0.7227,-2.073432 -1.0097,-2.628796 -3.8281,-2.679687 z m -731.90427,4.552734 c -1.77976,0.0025 -3.86268,0.418977 -5.64063,1.291016 -4.22682,2.073149 -6.18181,4.985314 -5.27148,7.853515 0.85966,2.708564 4.2636,2.543394 4.66797,-0.226562 0.23687,-1.622575 1.61405,-2.635016 5.32031,-3.912109 2.75,-0.947591 5,-2.320204 5,-3.050782 0,-1.277479 -1.78791,-1.958316 -4.07617,-1.955078 z M 385.46484,25 c -1.47274,0 -2.04249,3.090321 -0.79882,4.333984 0.84264,0.842638 2.80634,0.861624 3.63281,0.03516 C 389.28773,28.380234 387.09512,25 385.46484,25 Z m 122.80078,0.642578 c -0.72043,0.0786 -0.93164,0.767903 -0.93164,2.441406 0,2.413791 0.25652,2.669362 1.83204,1.826172 C 510.17435,29.370512 511,28.323532 511,27.582031 c 0,-0.741502 -0.82565,-1.56444 -1.83398,-1.828125 -0.36411,-0.09522 -0.66024,-0.137529 -0.9004,-0.111328 z M 562.7793,26 c -0.1933,0 -0.35157,0.849207 -0.35157,1.886719 0,1.119758 0.51915,1.687431 1.27735,1.396484 0.7025,-0.269577 1.5541,0.231216 1.89258,1.113281 C 565.93614,31.278549 566.78557,32 567.48438,32 c 0.69881,0 1.83093,0.675 2.51562,1.5 1.34553,1.62126 3,2.000594 3,0.6875 C 573,32.579835 564.78615,26 562.7793,26 Z m -159.64453,0.238281 c -1.09544,-0.02072 -2.43799,0.06567 -4.04297,0.251953 -4.01759,0.46629 -6.0918,1.155763 -6.0918,2.025391 0,0.725163 0.5625,1.544854 1.25,1.822266 0.6875,0.277413 3.62649,0.540564 6.53125,0.583984 3.92422,0.05866 5.43595,-0.323796 5.88281,-1.488281 0.81154,-2.114839 -0.243,-3.133158 -3.52929,-3.195313 z M 554.92773,27 c -1.05707,0 -1.2768,5.318894 -0.26171,6.333984 C 555.03268,33.700651 555.61846,34 555.9668,34 556.83493,34 559,31.766486 559,30.871094 559,29.825633 556.0272,27 554.92773,27 Z m -317.72265,0.474609 c -0.57722,-0.02892 -1.14292,-0.02879 -1.68164,0.0039 C 231.94521,27.695767 227,30.35069 227,32.054688 c 0,1.919836 3.23526,2.237656 6.02148,0.591796 2.98103,-1.760936 5.4762,-1.395364 6.36914,0.931641 0.6968,1.815849 5.0107,1.84803 6.50391,0.04883 0.62686,-0.755288 0.9001,-1.997073 0.60742,-2.759765 -0.60635,-1.580121 -5.25631,-3.190107 -9.29687,-3.392579 z m 771.30082,0.160157 c 0.3334,-0.01615 0.4346,0.38591 0.4492,1.115234 0.04,1.988756 0.5609,2.25 4.4863,2.25 2.4425,0 4.7187,0.45 5.0586,1 0.3399,0.55 1.7937,1 3.2305,1 1.4367,0 3.4568,0.765992 4.4902,1.701172 1.5986,1.446742 2.3563,1.519343 5.0723,0.49414 2.8787,-1.086579 3.3559,-0.98863 4.8574,1.001954 1.4883,1.973095 1.9546,2.074955 4.4082,0.957031 3.2028,-1.459315 4.1661,-0.766498 4.6152,3.322265 0.2147,1.954904 1.1596,3.390943 2.7539,4.181641 2.8097,1.393399 4.9861,4.874086 5.0371,8.056641 0.02,1.218149 0.9287,2.691534 2.0196,3.27539 1.1914,0.637606 1.8903,1.922433 1.75,3.214844 -0.1677,1.545922 0.4485,2.31932 2.1914,2.75 1.3342,0.329703 2.6098,1.149563 2.834,1.822266 0.2666,0.799824 -0.1916,0.99324 -1.3243,0.558594 -1.5335,-0.588483 -1.672,-0.122892 -1.2011,4.054687 0.2925,2.595125 1.2092,5.256495 2.0371,5.914063 0.8279,0.657567 1.7933,2.840212 2.1445,4.849609 0.3512,2.009397 1.298,3.905762 2.1035,4.214844 0.8054,0.309081 1.4886,1.589181 1.5176,2.845703 0.029,1.256522 0.1892,9.485156 0.3555,18.285156 0.1663,8.8 0.4234,20.3226 0.5722,25.60547 0.2085,7.40386 -0.091,10.15499 -1.3046,12.00781 -0.8663,1.32204 -2.6844,6.9014 -4.0411,12.39649 -1.3567,5.49509 -3.401,11.77238 -4.5429,13.95117 -1.1419,2.17879 -2.0762,4.48132 -2.0762,5.11523 0,1.54681 -6.7622,6.01214 -10.5,6.9336 -6.0797,1.49881 -7.7097,1.40241 -8.2031,-0.48438 -0.4198,-1.60532 -1.754,-1.84712 -11.1367,-2.01562 -5.8628,-0.10529 -12.2352,-0.22628 -14.1602,-0.26758 -8.2553,-0.17732 -10.5255,0.2699 -11.8047,2.31836 -1.09956,1.76066 -0.92696,2.8472 1.1934,7.47851 l 2.4804,5.41797 -2.9355,2.08985 c -6.2585,4.45645 -10.69524,-0.82019 -6.01368,-7.15235 2.74504,-3.71285 2.68467,-5.29919 -0.16992,-4.48633 -6.02442,1.7155 -7.83463,1.76674 -10.08984,0.28907 -2.19482,-1.4381 -2.37398,-2.24472 -2.53321,-11.34571 -0.0943,-5.38834 -0.61074,-10.23575 -1.14843,-10.77344 -1.64892,-1.64891 -1.08829,-6.39909 0.98437,-8.33007 2.82672,-2.63349 6.05484,-10.46407 5.37891,-13.04883 -1.22146,-4.67086 -4.28266,-2.00053 -5.79102,5.05078 -0.87685,4.09908 -3.55078,3.55805 -3.55078,-0.71875 0,-3.10333 -2.45288,-8.86594 -5.22852,-12.28125 -1.77585,-2.18512 -12.12713,-1.49399 -20.04101,1.33789 -3.97717,1.42318 -12.85547,4.33148 -19.73047,6.46289 -6.875,2.1314 -13.85,4.37371 -15.5,4.98242 -1.65,0.60871 -3.45,1.23063 -4,1.38282 -0.55,0.15219 -2.32883,0.81901 -3.95312,1.48242 -1.6243,0.66341 -7.2493,2.3615 -12.5,3.77344 -5.25071,1.41193 -12.40691,3.41309 -15.90235,4.44726 -3.49543,1.03417 -7.69091,1.88086 -9.32226,1.88086 -1.63136,0 -3.63985,0.675 -4.46485,1.5 -0.82599,0.82599 -3.27257,1.5 -5.44336,1.5 -2.16817,0 -4.72269,0.40895 -5.67773,0.9082 -2.68909,1.40573 -12.22711,4.0918 -14.5293,4.0918 -1.13529,0 -3.44767,0.43326 -5.13672,0.96289 -9.96519,3.12474 -27.861,6.83945 -34.57031,7.17578 -1.925,0.0965 -5.975,0.80353 -9,1.57031 -4.90083,1.24227 -18.13294,3.92615 -23.5,4.76758 -1.1,0.17245 -6.5,1.54179 -12,3.04297 -5.5,1.50119 -11.575,3.06917 -13.5,3.48438 -4.78064,1.03114 -26.46677,6.7719 -32,8.4707 -6.1997,1.90341 -26.73331,7.22078 -31,8.02734 -6.08261,1.14982 -29.45627,7.66528 -30.5,8.50196 -1.5546,1.24621 -4.85354,1.53754 -6.4043,0.5664 -0.92982,-0.58228 -1.17923,-0.51353 -0.73632,0.20313 0.78063,1.26309 -0.77608,1.8244 -11.76172,4.23633 -4.45366,0.97782 -11.47266,2.71788 -15.59766,3.86718 -7.98461,2.22466 -15.37688,3.67879 -23.5,4.62305 -5.54948,0.64508 -19.88768,2.4838 -23,2.94922 -1.1,0.16449 -6.95,0.61118 -13,0.99414 -12.30376,0.77883 -14.94733,1.01386 -28.5,2.52734 -17.03225,1.90206 -20.37603,2.18117 -29.62109,2.46875 -5.01674,0.15606 -9.57438,0.56278 -10.12696,0.9043 -0.55259,0.34151 -7.02323,0.84789 -14.3789,1.125 -7.35567,0.27711 -18.77305,0.95476 -25.37305,1.50586 -6.6,0.55109 -17.625,1.24927 -24.5,1.55078 -21.59279,0.94699 -25.39176,1.17932 -29.5,1.81445 -3.85353,0.59576 -10.80931,1.11656 -30,2.24219 -4.95,0.29034 -13.4664,1.17778 -18.92578,1.97266 -14.02414,2.0419 -12.94259,2.46943 -12.16016,-4.80469 0.88583,-8.23553 2.32771,-12.54256 4.60938,-13.76367 1.02498,-0.54855 4.25145,-1.23971 7.16992,-1.53711 2.91848,-0.29739 5.93894,-0.75769 6.71289,-1.02344 2.11418,-0.72592 39.09218,-4.28088 51.09375,-4.91211 5.775,-0.30374 15.57179,-0.74899 21.77148,-0.98828 6.19969,-0.23928 11.59969,-0.62766 12,-0.86328 0.40031,-0.23562 7.89519,-0.72915 16.6543,-1.0957 8.7591,-0.36655 16.1841,-0.82085 16.5,-1.01172 0.58596,-0.35404 11.8521,-1.41582 21.96094,-2.06836 7.54983,-0.48736 28.00118,-2.45265 31.11328,-2.99024 1.375,-0.23752 8.575,-1.16108 16,-2.05273 20.62767,-2.47712 26.06531,-3.24345 31.5,-4.43555 2.75,-0.6032 5.675,-1.12761 6.5,-1.16601 0.825,-0.0384 4.98263,-0.94678 9.24023,-2.01953 4.2576,-1.07275 8.1951,-1.67108 8.75,-1.32813 0.5549,0.34294 1.00977,2.60544 1.00977,5.02734 0,4.9572 3.27738,14.63365 5.61328,16.57227 1.98792,1.64983 3.28714,-0.16377 2.61914,-3.6582 -0.60231,-3.15082 0.48696,-3.07763 3.97656,0.26562 2.52962,2.42353 2.97494,2.54263 4.34766,1.16992 1.24757,-1.24758 1.34286,-2.34527 0.51172,-5.95117 -1.41378,-6.13372 -1.31753,-15.22404 0.18164,-17.11328 1.17614,-1.48216 4.70345,-2.66815 9.25,-3.11133 1.46346,-0.14265 1.93719,0.34123 1.76367,1.80469 -0.4326,3.64847 0.74784,6.50797 4.32617,10.46875 4.14031,4.58283 7.31267,4.67728 4.97071,0.14844 -1.5793,-3.05404 -3.09418,-9.87544 -2.69141,-12.11719 0.33769,-1.87958 3.139,-4.11173 4.27734,-3.4082 0.46897,0.28984 0.85352,2.13533 0.85352,4.10156 0,5.5071 1.99777,10.93002 5.13281,13.93359 1.5654,1.49974 3.14006,2.43221 3.5,2.07227 0.35995,-0.35995 -0.0993,-3.05259 -1.02148,-5.98438 -1.67555,-5.32702 -2.40589,-14.25428 -1.25977,-15.40039 0.59227,-0.59227 5.35008,-1.51833 16.79492,-3.26953 3.10557,-0.47519 6.68155,-1.41831 7.94727,-2.0957 1.26571,-0.67739 4.28748,-1.36312 6.71484,-1.52539 2.42736,-0.16228 6.50138,-0.75079 9.05274,-1.30664 2.55136,-0.55586 6.88867,-1.48179 9.63867,-2.05664 2.75,-0.57485 8.15,-1.93501 12,-3.02344 9.91888,-2.80417 10.5,-2.72312 10.5,1.46289 0,1.925 0.42454,3.5 0.94336,3.5 1.34266,0 4.05664,-4.1241 4.05664,-6.16406 0,-0.94516 0.47982,-2.01441 1.06641,-2.37696 1.90038,-1.1745 2.1186,0.28352 0.50781,3.39844 -2.48286,4.80132 -2.08832,7.18787 1.17578,7.10547 1.5125,-0.0382 3.93267,0.22028 5.37891,0.57617 2.05244,0.50506 3.36519,-0.009 5.98242,-2.34765 3.28529,-2.93541 3.33124,-3.08452 2.20117,-7.31836 -0.63438,-2.37668 -0.97112,-4.61563 -0.74805,-4.97657 0.43415,-0.70246 7.99607,-3.23141 12.93555,-4.32617 1.65,-0.3657 3.78395,-0.89899 4.74219,-1.18359 1.57041,-0.4664 1.68533,0.13142 1.17187,6.04883 -0.47122,5.43054 -0.30925,6.56445 0.93555,6.56445 2.14173,0 5.31349,-4.38765 6.06445,-8.39062 0.35166,-1.87453 1.19034,-3.82538 1.86328,-4.33594 1.55112,-1.17682 9.29146,-3.9376 13.22266,-4.71485 8.20762,-1.62275 7.5,-1.99993 7.5,3.99805 0,6.07615 0.37649,6.30451 6.17969,3.74414 3.17393,-1.40033 4.0275,-2.41138 4.85742,-5.75 1.36251,-5.48111 2.33608,-7.02065 4.57031,-7.2207 1.04045,-0.0932 4.14258,-0.77924 6.89258,-1.52539 7.66914,-2.08083 8.5,-1.61387 8.5,4.76953 0,6.05324 1.67979,7.26051 4.01953,2.88867 1.1287,-2.10899 1.50359,-2.27793 2.21875,-1 1.10403,1.9728 3.76172,1.99885 3.76172,0.0371 0,-0.825 0.45,-1.5 1,-1.5 0.55,0 1,0.45 1,1 0,1.46263 7.31373,1.22293 9.4082,-0.30859 1.55197,-1.13482 1.64535,-1.83489 0.69532,-5.25 -0.93478,-3.36029 -0.8474,-4.12548 0.59179,-5.19141 0.92824,-0.6875 2.61372,-1.31854 3.7461,-1.40234 2.6735,-0.19779 3.73197,-0.41245 5.55859,-1.12891 0.825,-0.3236 3.56991,-0.99858 6.09961,-1.5 5.49707,-1.08957 7.19343,-0.15366 9.43164,5.20313 2.1034,5.03414 3.96875,4.08574 3.96875,-2.01758 0,-6.00628 0.82353,-7.4043 4.35938,-7.4043 1.50752,0 3.26586,-0.52563 3.9082,-1.16797 1.11147,-1.11147 7.80679,-3.78449 9.55859,-3.81641 0.45464,-0.008 0.74634,1.44688 0.64844,3.23438 -0.32596,5.95371 0.0115,7.75 1.45703,7.75 1.87895,0 2.90393,-3.41375 2.70703,-9.02734 -0.14099,-4.01957 0.16844,-4.72158 2.75586,-6.25 1.60314,-0.947 3.60849,-1.72266 4.45703,-1.72266 0.84853,0 3.68287,-1.13838 6.29883,-2.5293 6.1783,-3.28503 7.73507,-2.70978 6.84961,2.53125 -0.52421,3.10274 -0.35905,3.99805 0.74219,3.99805 1.97146,0 4.03127,-4.22007 4.15429,-8.51172 0.10712,-3.73658 0.35278,-3.94333 10.60352,-8.99414 13.09361,-6.45156 20.16609,-11.15853 24.66797,-16.417968 3.2555,-3.803317 3.65689,-4.958677 4.47656,-12.876953 C 954.63977,79.414973 955.66991,73.7 956.43359,71.5 c 0.76368,-2.2 1.65502,-5.593429 1.98243,-7.541016 C 959.34658,58.4235 965.67125,49 968.45508,49 c 1.26527,0 2.88483,-0.70514 3.59961,-1.566406 0.71479,-0.861265 2.68298,-2.2757 4.37304,-3.144532 1.69006,-0.868831 4.63798,-2.865643 6.55079,-4.435546 C 984.94793,38.237169 987.65873,37 989.22852,37 990.75321,37 992.9,36.1 994,35 c 2.36918,-2.369175 3,-2.492487 3,-0.583984 0,3.111996 2.73575,2.04698 7.2051,-2.806641 2.5416,-2.760162 3.745,-3.947684 4.3008,-3.974609 z M 494.43359,28 C 493.1318,28 490,30.144103 490,31.035156 490,31.565805 491.125,32 492.5,32 c 1.83333,0 2.5,-0.533333 2.5,-2 0,-1.1 -0.25525,-2 -0.56641,-2 z m -17.30078,4 c -2.51033,0 -5.56583,2.490445 -4.72461,3.851562 0.73007,1.181278 5.31983,0.592746 6.95508,-0.892578 C 480.59183,33.843068 479.20292,32 477.13281,32 Z M 529,32 c -1.99224,0 -2.60177,1.066193 -1.33398,2.333984 C 528.88395,35.551913 531,35.022411 531,33.5 531,32.666667 530.11111,32 529,32 Z m -230.2793,2.136719 c -0.17178,-0.0068 -0.35055,-0.0049 -0.53515,0.0078 -1.3426,0.09233 -3.00337,0.711821 -4.67578,2.027344 -2.60651,2.050281 -2.66078,2.245628 -0.94532,3.5 2.42343,1.772054 4.39623,1.67493 6.60743,-0.326172 3.17069,-2.869447 2.12564,-5.107676 -0.45118,-5.208984 z M 421.25,35.03125 c -2.55884,-0.02504 -3.25,0.381464 -3.25,1.90625 0,1.435529 0.84095,2.040884 3.25,2.339844 6.12427,0.760016 6.75,0.719811 6.75,-0.417969 0,-1.912395 -3.31902,-3.794545 -6.75,-3.828125 z M 86.009766,35.806641 c -0.325082,-0.003 -0.640361,0.02361 -0.9375,0.08203 -0.785346,0.154407 -2.610688,1.547805 -4.056641,3.095703 -2.488174,2.663599 -3.081454,2.811431 -11.072266,2.775391 -8.685634,-0.03918 -10.192606,0.42313 -16.957031,5.203125 -4.865236,3.437947 -6.001356,5.139626 -4.859375,7.273437 1.278355,2.388628 4.155547,2.221167 6.46875,-0.375 3.852697,-4.32398 13.484382,-7.000165 16.244141,-4.513672 0.913356,0.822918 2.805611,1.781754 4.205078,2.13086 2.127161,0.530634 3.224495,-0.112419 6.691406,-3.921875 C 84.017222,45.050387 86.330619,43 86.876953,43 c 0.546334,0 2.164718,-0.445432 3.597656,-0.990234 2.19044,-0.832804 2.440098,-1.299135 1.566407,-2.931641 -0.964259,-1.801733 -3.75568,-3.250797 -6.03125,-3.271484 z M 437.63281,37 c -3.81853,0 -5.71597,1.685975 -3.51172,3.121094 2.18621,1.423367 6.32417,0.575674 6.69336,-1.371094 0.26506,-1.397647 -0.37492,-1.75 -3.18164,-1.75 z m -108.92773,0.998047 c -0.19391,-0.01855 -0.40804,-0.01853 -0.64063,0.002 -0.85876,0.07564 -1.98086,0.425174 -3.36914,1.123047 C 318.70906,42.13227 317,43.916324 317,47.154297 c 0,3.745761 1.78918,3.658393 7.50586,-0.371094 5.66856,-3.995572 7.10784,-8.506901 4.19922,-8.785156 z M 457.5,38 c -1.55556,0 -2.5,0.566667 -2.5,1.5 0,1.613965 0.91565,1.852809 3.41797,0.892578 C 460.85246,39.458377 460.29295,38 457.5,38 Z m -145.39453,0.01563 c -1.45895,-0.05334 -3.53763,0.830522 -5.41602,2.572266 -2.16504,2.00754 -2.53719,2.890907 -1.66211,3.945312 2.01531,2.428299 8.97266,-1.18236 8.97266,-4.65625 0,-1.212902 -0.75979,-1.819841 -1.89453,-1.861328 z M 341.95117,41 C 339.4046,41 335,44.18401 335,46.025391 c 0,2.467391 0.68251,2.466322 4.75,-0.01367 C 342.8324,44.132342 344.20832,41 341.95117,41 Z m 233.49024,0 C 572.70842,41 572,41.396434 572,42.929688 c 0,1.206874 0.84335,2.094301 2.25,2.365234 4.10537,0.790728 4.53173,0.717227 5.14648,-0.884766 C 580.33315,41.969214 579.20955,41 575.44141,41 Z m 9.3125,0 c -1.38401,0 -1.78813,0.469811 -1.36133,1.582031 0.33385,0.869984 0.60742,1.994984 0.60742,2.5 0,2.022755 1.79727,0.755615 2.24414,-1.582031 0.37884,-1.981786 0.0701,-2.5 -1.49023,-2.5 z m -228.61329,0.560547 c -0.25222,-0.01189 -0.4779,0.016 -0.66015,0.08594 -1.59366,0.611544 -2.70523,3.179022 -1.92383,4.44336 0.82932,1.341862 2.80316,1.109259 5.00195,-0.589844 1.88264,-1.454829 1.88537,-1.543428 0.0937,-2.931641 -0.76197,-0.590418 -1.75499,-0.972153 -2.51172,-1.007812 z m -219.57617,6.673828 c -1.54606,-0.06001 -2.7016,0.302014 -4.35351,1.15625 -2.977,1.539467 -4.16782,4.32046 -2.54492,5.943359 1.01915,1.01915 2.8036,0.796009 4.11328,-0.513672 0.9064,-0.90639 1.7434,-0.879499 3.60937,0.119141 1.56209,0.836006 3.79896,1.056495 6.26953,0.617188 2.11276,-0.375682 5.9793,-0.639871 8.5918,-0.587891 3.44164,0.06848 4.75,-0.290105 4.75,-1.300781 0,-0.914434 -2.15274,-1.814555 -6.25,-2.613281 -3.4375,-0.670116 -8.29274,-1.692243 -10.78906,-2.271485 -1.40089,-0.32506 -2.46885,-0.51282 -3.39649,-0.548828 z m 836.64844,2.683594 c -1.0981,0.0425 -3.21889,2.02416 -5.54687,5.404297 -5.46369,7.933037 -5.38994,8.003695 6.54687,6.162109 1.49187,-0.230162 4.19187,0.247153 6,1.0625 2.07291,0.934748 4.90798,1.293447 7.67578,0.96875 C 990.30294,64.232402 993.79044,64 995.63867,64 998.26913,64 999,63.589221 999,62.107422 999,60.033983 997.14705,59 993.42969,59 c -2.29376,0 -4.40547,-1.296885 -8.63281,-5.302734 -1.51474,-1.435371 -2.81013,-1.667497 -6.34961,-1.136719 C 975.44796,53.010321 974,52.864366 974,52.113281 c 0,-0.833126 -0.28797,-1.214632 -0.78711,-1.195312 z M 161,51 c -0.55,0 -1,0.9 -1,2 0,1.1 0.45,2 1,2 0.55,0 1,-0.9 1,-2 0,-1.1 -0.45,-2 -1,-2 z m 669.95703,8.224609 c 3.3836,0.02925 7.25114,1.116949 10.14258,3.076172 4.16695,2.823498 8.57228,10.046953 9.35156,15.332031 0.60972,4.135178 -0.53211,11.448534 -2.5957,16.617188 -0.60387,1.5125 -1.64643,2.75 -2.31641,2.75 -0.66998,0 -3.87811,-2.47184 -7.1289,-5.492188 C 835.15937,88.487465 831.7125,85.758123 830.75,85.441406 828.90557,84.834487 828.28786,82 830,82 c 0.55,0 1.00122,-0.562499 1.00195,-1.25 7.2e-4,-0.6875 2.25072,-2.246399 5,-3.464844 L 841,75.068359 v -4.998047 c 0,-3.927828 -0.41621,-5.223709 -1.94336,-6.041015 -2.79509,-1.495886 -12.86232,1.745276 -14.85156,4.78125 -1.36089,2.076978 -1.34971,2.662534 0.11328,5.730469 1.11837,2.34525 2.10857,3.232111 3.15625,2.830078 2.37346,-0.910779 1.79493,1.414814 -0.68164,2.740234 -4.84511,2.593024 -12.17006,0.348162 -8.24024,-2.52539 1.06958,-0.782093 1.61906,-1.748141 1.22071,-2.146485 -0.39834,-0.398344 -1.41171,-0.154704 -2.25,0.541016 -1.18188,0.980872 -1.84432,0.998021 -2.95508,0.07617 -0.78784,-0.653854 -3.03641,-1.272057 -4.99609,-1.373047 -1.95969,-0.100991 -3.56636,-0.305786 -3.56836,-0.455078 -0.002,-0.149292 1.12811,-1.981506 2.51171,-4.072266 C 811.06063,66.31049 817.66544,62 821.01367,62 c 1.00345,0 3.1144,-0.741405 4.69141,-1.646484 1.36544,-0.783655 3.22179,-1.146457 5.25195,-1.128907 z m -673.04101,0.898438 c -0.3474,-0.01431 -0.74259,0.04892 -1.10352,0.193359 -0.79773,0.319226 -0.56143,0.557489 0.60352,0.605469 1.05416,0.04342 1.64479,-0.193099 1.3125,-0.525391 -0.16615,-0.166147 -0.46511,-0.259128 -0.8125,-0.273437 z M 186,62 c -0.55,0 -1,0.926135 -1,2.058594 0,1.132459 0.45,1.781325 1,1.441406 0.55,-0.339919 1,-1.266053 1,-2.058594 C 187,62.648865 186.55,62 186,62 Z m 12.32031,2 c -3.92174,0 -6.84418,2.194034 -5.96679,4.480469 0.55222,1.43906 1.41057,1.653542 4.59375,1.144531 3.55554,-0.568554 4.11625,-0.34516 6.10742,2.451172 1.20575,1.693328 3.14883,3.465233 4.31836,3.9375 3.26385,1.317983 4.6306,1.141556 5.33398,-0.691406 0.43288,-1.128076 -0.1488,-2.192802 -1.77344,-3.25 C 209.60468,71.207504 206.88527,69.0375 204.88867,67.25 202.5371,65.144702 200.22328,64 198.32031,64 Z m 636.73828,5 c 0.58246,0 0.78133,0.45 0.44141,1 -0.33992,0.55 -0.81605,1 -1.05859,1 C 834.19887,71 834,70.55 834,70 c 0,-0.55 0.47613,-1 1.05859,-1 z m 211.48241,1.3125 c -1.1665,-0.02655 -2.236,0.590974 -4.4101,2.097656 -2.1135,1.464652 -4.4275,3.884359 -5.1426,5.376953 -3.0357,6.336594 -1.7592,19.700905 1.8164,19.011719 1.401,-0.270044 1.6953,-1.5441 1.6953,-7.353516 0,-15.889891 9.1225,-16.891051 13.082,-1.435546 2.0118,7.852801 1.488,18.364204 -1.039,20.847654 -1.5514,1.52468 -1.8039,1.48153 -3.5176,-0.60742 -2.0532,-2.50288 -4.0191,-2.85784 -5.8262,-1.05078 -1.7726,1.77257 -1.4796,3.20487 1.2539,6.1543 2.3714,2.55886 5.6536,3.30999 8.9453,2.04687 7.8779,-3.02304 8.9258,-30.154348 1.5254,-39.498046 -1.588,-2.005052 -4.2528,-4.20983 -5.9199,-4.900391 -1.029,-0.426227 -1.763,-0.673525 -2.4629,-0.689453 z m -73.83006,0.570312 c -5.7602,-0.162422 -9.69789,2.539499 -11.48633,7.925782 -1.24493,3.749502 -1.24114,4.52719 0.0215,6 2.35945,2.752273 2.87852,5.205772 1.23633,5.835937 C 961.66667,90.957555 961,91.841266 961,92.607422 c 0,1.791472 1.97083,1.73001 4.44141,-0.138672 2.40421,-1.818451 9.45494,-1.864281 11.81054,-0.07617 1.82116,1.382427 6.35229,1.047643 8.47266,-0.626953 1.13567,-0.896922 0.99773,-8.966214 -0.26172,-15.332031 -0.52502,-2.653678 -3.64516,-4.280977 -10.17187,-5.304688 -0.89635,-0.140591 -1.7572,-0.22289 -2.58008,-0.246094 z m -493.52149,0.806641 c -0.6803,-0.01637 -1.54759,0.01538 -2.65429,0.07422 -2.73016,0.145162 -5.40688,0.707662 -5.94922,1.25 C 470.0436,73.556009 468.8374,74 467.90625,74 c -0.93116,0 -1.96751,0.714315 -2.30273,1.587891 -0.52587,1.370399 -0.0245,1.476137 3.64453,0.773437 2.33888,-0.447944 6.19085,-0.749945 8.56054,-0.671875 3.88174,0.127893 4.27796,-0.07214 4,-2.023437 -0.20635,-1.448619 -0.57822,-1.927446 -2.61914,-1.976563 z m 494.99024,3.59375 c 0.80008,0.01514 1.72754,0.393347 3.31054,1.144531 2.15336,1.021836 3.73369,2.618572 4.1211,4.16211 0.89227,3.555091 -0.23341,4.11364 -3.01758,1.498047 -3.32856,-3.127016 -6.92367,-2.496442 -7.58789,1.330078 C 970.48471,86.420287 968,88.314196 968,85.708984 c 0,-4.068156 1.52479,-8.006834 3.63672,-9.390625 1.06986,-0.701001 1.74289,-1.050291 2.54297,-1.035156 z m -70.58789,3.115235 c 0.99394,0.03166 1.94376,0.2565 3.1582,0.644531 8.59714,2.746915 12.51239,10.086788 12.04297,22.570311 -0.28881,7.68066 -0.35293,7.85515 -3.76758,10.15234 -1.9111,1.2857 -4.6111,2.26649 -6,2.17969 -4.98763,-0.31158 -5.99663,0.0984 -7.52539,3.05469 -2.25442,4.35957 -4.1963,3.76191 -5.84766,-1.79883 -1.8907,-6.36667 -7.33835,-17.924087 -10.24609,-21.736326 -2.32753,-3.051543 -2.32966,-3.063378 -0.42383,-6.197266 2.20401,-3.624219 3.41797,-4.371266 11.83789,-7.285156 3.33446,-1.153959 5.11492,-1.636753 6.77149,-1.583984 z m -99.1211,0.509765 c 0.64462,0.04461 1.36395,0.346328 2.09571,0.939453 1.98724,1.610743 1.9975,1.74881 0.27929,3.558594 -0.98269,1.035072 -1.56963,2.231467 -1.30468,2.660156 1.07381,1.737456 6.38687,2.021989 9.33007,0.5 1.90042,-0.982744 3.24383,-1.189958 3.63282,-0.560547 C 819.06206,86.908958 827.16877,91 828.40039,91 c 0.28058,0 3.01351,2.445391 6.07422,5.433594 3.0607,2.988202 6.56852,5.575696 7.79492,5.749996 1.52752,0.21709 2.18031,0.94631 2.07031,2.31641 -0.20891,2.60201 -1.32097,7.66199 -1.88476,8.57422 C 841.73767,114.23501 838,133.93366 838,136.55469 c 0,1.70203 -0.65928,2.53464 -2.25,2.83984 -1.2375,0.23744 -4.725,0.90449 -7.75,1.48438 -3.025,0.57988 -8.81808,1.74473 -12.87305,2.58789 -11.41177,2.37288 -10.68286,2.81516 -11.46679,-6.9668 -0.26446,-3.3 -1.16945,-10.275 -2.00977,-15.5 -2.72086,-16.91787 -3.00954,-24.049615 -1.25195,-30.910156 C 801.27927,86.651631 802,83.029249 802,82.041016 c 0,-2.078101 1.05255,-3.230957 2.4707,-3.132813 z m -588.73632,0.142578 c -0.75544,0 -1.75612,0.317014 -2.73438,0.949219 -1.16887,0.755385 -0.89294,0.972443 1.25,0.984375 C 215.7625,80.992797 217,80.55 217,80 c 0,-0.632205 -0.5102,-0.949219 -1.26562,-0.949219 z m 378.39648,1.791016 c 2.31803,0.0468 4.65621,0.34054 6.80078,0.902344 3.06209,0.802162 6.24512,1.590195 7.07227,1.751953 5.29777,1.036045 9.93657,2.728014 11.00195,4.011718 C 619.68727,88.328867 620.91425,89 621.73242,89 c 3.34898,0 13.74504,6.722113 19.62891,12.69336 4.85303,4.92511 7.53925,8.91997 11.83594,17.58984 3.05743,6.1693 6.12404,13.0168 6.8125,15.2168 0.68846,2.2 1.58389,4.45 1.99023,5 0.40635,0.55 1.75328,4.32455 2.99414,8.38672 1.48087,4.84785 3.41575,8.66922 5.63086,11.12109 1.85611,2.05449 3.38875,4.35494 3.40625,5.11328 0.0175,0.75834 0.6925,2.2527 1.5,3.32032 1.98067,2.61868 1.85276,5.31515 -0.28125,5.91601 -2.32561,0.65479 -8.49389,2.05379 -9.75,2.21094 -0.55,0.0688 -1.675,0.38125 -2.5,0.69531 -0.825,0.31406 -3.42503,0.79257 -5.77734,1.0625 l -4.27735,0.49024 -4.42969,-9.23047 C 644.74214,160.72373 642.18358,155.03946 641.5,153 c -0.0922,-0.275 -0.68671,-1.7496 -1.32031,-3.27734 C 637.99778,144.46159 635,131.15765 635,126.73828 c 0,-5.53555 2.92211,-8.89237 6.04297,-6.94336 3.16134,1.97429 4.2458,1.49471 3.48437,-1.53906 -1.08311,-4.31543 -2.19935,-5.11892 -5.93945,-4.27539 -4.65414,1.04968 -5.58922,1.77947 -7.18945,5.60937 -4.09036,9.78959 0.66039,33.71693 10.60742,53.42188 2.75202,5.45173 2.85104,5.99163 1.24219,6.81445 -0.96104,0.49151 -3.7527,0.78116 -6.20313,0.64453 -2.58588,-0.14417 -5.37434,0.35329 -6.64453,1.18555 -1.20366,0.78866 -6.17401,2.50218 -11.04492,3.80664 -7.6436,2.04699 -9.06984,2.17861 -10.41992,0.9668 -1.64776,-1.47901 -1.57052,-1.50565 -11.43555,3.91015 -8.18979,4.49611 -10.37677,-0.26659 -11.21484,-24.43554 l -0.54102,-15.59571 6.51563,-3.04882 c 5.5802,-2.61129 6.68893,-3.57485 7.72461,-6.71289 0.94752,-2.87077 0.94692,-4.30095 -0.008,-6.60547 C 599.30669,132.32376 598.43259,131 598.03516,131 c -0.39742,0 -3.02897,-2.21153 -5.84766,-4.91406 -2.81868,-2.70253 -6.4597,-5.20642 -8.08984,-5.56446 -1.63014,-0.35804 -5.06489,-2.50157 -7.63477,-4.76367 l -4.67383,-4.11328 0.53906,-6.07226 c 1.10656,-12.489864 2.93806,-16.847913 9.13282,-21.720708 2.57497,-2.02548 7.57026,-3.112721 12.66992,-3.009765 z M 486.5,84.193359 c -0.7155,0.02942 -1.31799,0.226191 -1.71094,0.619141 C 483.12214,86.479418 484.89251,88 488.5,88 c 1.86008,0 3.66008,0.45 4,1 0.33992,0.55 1.06225,1 1.60547,1 0.54322,0 0.17958,-1.101889 -0.80859,-2.449219 C 491.80079,85.51095 488.64649,84.10511 486.5,84.193359 Z m 410.26172,1.941407 c -0.36374,-0.02569 -0.76625,0.03652 -1.19531,0.201172 -1.55697,0.597464 -2.1761,4.722343 -0.90039,5.998046 1.44726,1.447261 3.32796,0.537908 3.9414,-1.90625 0.60323,-2.403467 -0.26949,-4.181646 -1.8457,-4.292968 z M 396.96875,87 c -2.24138,0 -3.5005,2.172668 -2.60742,4.5 0.69516,1.81156 1.82905,1.91118 3.43945,0.300781 C 399.74853,89.853028 399.25386,87 396.96875,87 Z m -34.39063,0.970703 c -2.35646,-0.01026 -5.84149,0.792919 -7.67382,2.097656 -3.12656,2.22631 -3.60478,3.832719 -1.70508,5.732422 1.48809,1.488092 2.63771,1.500195 6.72266,0.07617 C 362.78264,94.879682 365,91.849527 365,88.935547 c 0,-0.659439 -1.00798,-0.958687 -2.42188,-0.964844 z M 586.1582,89.8125 c -1.57574,0.109696 -3.06625,0.70931 -3.83008,1.753906 -1.92345,2.630477 -1.6495,4.230932 1.17188,6.845703 1.375,1.274307 2.5,3.015541 2.5,3.869141 0,0.8536 0.5625,1.77923 1.25,2.05664 2.01246,0.81204 3.59167,0.72682 4.17969,-0.22461 0.30127,-0.48747 -0.44807,-1.14634 -1.66602,-1.46484 l -2.21484,-0.58008 2.22461,-2.072266 c 2.57264,-2.396781 2.95409,-7.146116 0.72265,-8.998047 -1.10214,-0.914696 -2.76215,-1.295243 -4.33789,-1.185547 z M 501.43359,91 C 496.781,91 494,92.556777 494,95.162109 c 0,1.897971 0.39149,2.031066 4.20117,1.421875 C 502.81323,95.846486 505,94.492578 505,92.376953 505,91.464433 503.79561,91 501.43359,91 Z m 227.55664,0.263672 C 728.44631,91.316765 728,91.849808 728,92.916016 728,94.144353 728.64659,95 729.57422,95 c 0.93124,0 1.44138,-0.681205 1.25,-1.667969 -0.27369,-1.411182 -1.13465,-2.136622 -1.83399,-2.068359 z m 140.05079,0.466797 c 0.36397,0.01332 0.67841,0.09545 0.93164,0.251953 0.74064,0.457738 1.89972,0.620909 2.57617,0.361328 1.56125,-0.599108 8.4667,6.431401 8.4082,8.56055 -0.0241,0.87813 -0.69375,3.3957 -1.48633,5.5957 -0.79257,2.2 -1.44706,4.73179 -1.45508,5.62695 -0.008,0.89515 -0.65867,2.16161 -1.44531,2.81446 -1.14215,0.9479 -1.64575,0.78563 -2.5,-0.81055 C 873.48195,113.0315 873,111.20257 873,110.06641 c 0,-2.46781 -3.12772,-2.82237 -5,-0.56641 -0.68469,0.825 -2.0904,1.5 -3.12305,1.5 -2.46822,0 -2.37013,1.65592 0.32813,5.59375 2.74849,4.01117 6.70353,6.40625 10.57812,6.40625 2.43499,0 3.19894,-0.58938 4.21289,-3.25 0.68122,-1.7875 1.81044,-4.6 2.50977,-6.25 0.69934,-1.65 1.58395,-4.03691 1.9668,-5.30469 1.01921,-3.37503 2.75625,-2.18742 4.68554,3.20508 2.8594,7.9922 2.99324,11.57314 0.47461,12.7207 -1.39032,0.63349 -3.05412,0.64526 -4.64843,0.0332 -2.11965,-0.81371 -2.99715,-0.46393 -5.98438,2.38476 -3.91845,3.73673 -16.59406,7.96459 -19.10742,6.37305 -0.7657,-0.48486 -3.08977,-0.88847 -5.16406,-0.89649 -3.06017,-0.0124 -3.98591,0.45586 -4.91016,2.48438 -0.65545,1.43854 -1.97855,2.5 -3.11524,2.5 -2.0811,0 -2.07721,0.21606 -0.19921,-12 0.78846,-5.12882 8.25653,-21.8528 11.5664,-25.902344 3.44463,-4.214421 8.42287,-7.46046 10.97071,-7.367187 z M 908.03516,94 c -2.59169,0 -3.69084,2.504842 -1.9961,4.546875 1.75541,2.115135 3.40189,1.298538 3.77735,-1.873047 C 910.07073,94.525517 909.72126,94 908.03516,94 Z m -130.29102,0.302734 c 1.8418,-0.05015 2.74371,0.596634 4.67578,2.613282 4.0285,4.204844 4.92288,10.681074 2.44727,17.724604 -1.02655,2.92071 -1.86719,6.13262 -1.86719,7.13868 0,1.00606 -1.29878,3.87694 -2.88672,6.38086 -1.58794,2.50392 -3.22647,5.63101 -3.64062,6.94726 -0.41415,1.31626 -3.66613,6.2995 -7.22657,11.07422 -6.62961,8.89063 -6.82401,9.02216 -15.24609,10.27539 -0.275,0.0409 -1.07286,0.43819 -1.77344,0.88281 -0.70059,0.44463 -3.17559,0.98629 -5.5,1.20508 -2.32442,0.2188 -5.22828,0.68561 -6.45312,1.03711 -2.21556,0.6358 -2.22028,0.61637 -0.72852,-3.76172 1.1076,-3.25052 1.37479,-7.13522 1.01953,-14.86133 -0.26453,-5.75296 -0.49789,-11.56408 -0.51757,-12.91406 -0.0507,-3.47454 4.14753,-9.14474 13.87109,-18.73828 8.4334,-8.32064 10.64639,-9.60626 11.7207,-6.80664 0.31659,0.825 1.23703,1.5 2.04688,1.5 1.0938,0 1.31405,-0.72265 0.85547,-2.81055 -0.78447,-3.57166 1.48706,-5.730843 6.9746,-6.628903 0.89611,-0.146649 1.61459,-0.241097 2.22852,-0.257813 z m 118.23047,3.666016 c -0.76827,-0.02849 -0.95811,1.603817 -0.41992,4.47266 0.3834,2.04368 1.1807,3.47907 1.81445,3.26562 1.26935,-0.42751 0.94465,-5.70097 -0.43945,-7.140624 -0.37898,-0.394179 -0.69899,-0.58816 -0.95508,-0.597656 z m -27.87109,0.3125 c -1.54941,0.01714 -3.43512,2.41421 -2.74414,4.21484 0.34855,0.90829 1.4191,1.50088 2.37695,1.31641 2.07156,-0.39894 2.9058,-3.56881 1.34961,-5.125 -0.28608,-0.286076 -0.62487,-0.410206 -0.98242,-0.40625 z M 778.60742,104 c -1.56321,0 -2.91375,2.69353 -2.05078,4.08984 C 777.73776,110.00093 780,108.95642 780,106.5 c 0,-1.47022 -0.57337,-2.5 -1.39258,-2.5 z m -246.58594,4 c 0.53846,0 0.97852,0.20475 0.97852,0.45508 0,0.70469 -9.84162,22.77985 -16.16602,36.25976 -1.08766,2.31826 -1.91433,4.34326 -1.83593,4.5 0.0784,0.15675 -0.29332,1.43247 -0.82617,2.83399 -0.90315,2.37543 -2.49451,13.57449 -2.40821,16.95117 0.0864,3.37848 -5.02988,24.40577 -6.65234,27.33984 -0.9815,1.77496 -3.88647,4.32963 -6.62695,5.82813 -4.93307,2.69739 -9.39846,3.44828 -25.48438,4.28711 -4.125,0.2151 -12.9,0.67831 -19.5,1.0293 -11.80492,0.62776 -12.09723,0.59218 -18,-2.26172 -5.39471,-2.60826 -6.32795,-3.53472 -9.23828,-9.17774 C 423.0297,189.77817 422.86766,188 425.52734,188 c 0.842,0 1.17787,-0.60386 0.83399,-1.5 -0.31659,-0.825 -1.54009,-1.50567 -2.71875,-1.51367 C 420.65663,184.9673 417,183.90591 417,183.05859 c 0,-0.38929 2.13602,-1.37108 4.74609,-2.18164 6.55764,-2.03649 7.12629,-4.87695 0.97657,-4.87695 -2.43326,0 -5.86485,0.50164 -7.625,1.11523 -1.76015,0.61349 -3.42159,0.89287 -3.69336,0.6211 -0.27177,-0.27177 2.17829,-4.03591 5.44531,-8.36524 4.84902,-6.42572 7.41077,-8.75756 13.95117,-12.70117 6.76702,-4.08028 9.23101,-4.99204 15.85547,-5.86328 4.31374,-0.56734 8.29375,-1.36893 8.84375,-1.78125 2.1473,-1.60976 6.90455,-1.97469 28.05859,-2.15039 12.06741,-0.10023 23.17972,-0.60713 24.69336,-1.12695 4.00374,-1.37499 6.4581,-5.15117 16.90235,-25.99805 3.2377,-6.4625 6.32871,-11.75 6.86718,-11.75 z m 451.0625,0 c -3.44504,0 -4.78862,2.56252 -2.60742,4.97266 3.87832,4.28549 -0.59415,8.41747 -9.43164,8.71289 -7.94097,0.26545 -16.01539,1.45802 -16.63281,2.45703 -0.29145,0.47149 -0.27537,1.27172 0.0371,1.77734 0.54577,0.88307 15.38444,0.56136 24.32031,-0.52734 5.61231,-0.68377 9.24681,-3.88026 9.89649,-8.70117 C 989.34412,111.65964 986.99332,108 983.08398,108 Z m -215.98632,1 C 765.41075,109 763,113.2054 763,116.14844 c 0,1.39461 2.21366,0.9694 4.17188,-0.80274 2.48496,-2.24884 2.43672,-6.3457 -0.0742,-6.3457 z m 23.9082,14.18359 c 1.20365,0.0357 2.81317,0.87482 4.75,2.53125 2.86434,2.44967 3.3973,3.71968 4.43164,10.55274 0.90053,5.94926 0.90167,8.04359 0.002,8.94336 -0.64615,0.64615 -5.11516,2.00609 -9.93164,3.02148 -4.81649,1.01539 -9.65781,2.04979 -10.75781,2.29883 -8.53458,1.93221 -8.85748,1.19891 -3.2207,-7.31836 2.4437,-3.69249 5.17102,-7.91815 6.05859,-9.39062 0.88758,-1.47247 2.63567,-2.82247 3.88672,-3 1.86014,-0.26396 2.28346,-0.96005 2.32227,-3.82227 0.0349,-2.57975 0.91143,-3.86228 2.45898,-3.81641 z m -220.19922,0.3125 c 1.34194,0.0813 3.9352,1.11772 8.09766,3.21485 l 7.99023,4.02539 -4.53711,3.25781 c -2.95659,2.12327 -5.19049,4.78289 -6.41211,7.63281 -2.16214,5.04406 -3.23559,5.38519 -5.5957,1.78321 -1.93674,-2.95584 -2.29897,-17.86119 -0.47852,-19.68164 0.18125,-0.18125 0.48824,-0.25954 0.93555,-0.23243 z m 224.03906,3.5625 c -0.34544,-0.01 -0.7804,0.0867 -1.30273,0.28711 -0.84872,0.32568 -1.54297,1.50578 -1.54297,2.62305 0,2.6596 2.67595,2.62526 3.52344,-0.0449 0.59331,-1.86935 0.35858,-2.83665 -0.67774,-2.86524 z m -8.3457,7.125 c -1.65621,0.0936 -3.01056,3.18076 -1.9707,4.86329 0.36178,0.58537 1.40323,0.91963 2.31445,0.74414 2.22938,-0.42938 2.22316,-5.15438 -0.008,-5.58399 -0.11247,-0.0217 -0.22553,-0.0297 -0.33594,-0.0234 z m -193.82617,1.17774 c 0.69812,-0.0203 1.22886,0.14096 1.57617,0.48828 1.74267,1.74267 -3.3919,6.50551 -8.48438,7.87109 -2.34609,0.62911 -5.05312,1.44726 -6.01562,1.81836 -3.53248,1.36196 -1.74032,-2.40448 2.5,-5.2539 4.72232,-3.17332 8.32946,-4.86303 10.42383,-4.92383 z m -50.37695,23.72461 c 1.51688,-0.0595 3.03025,0.66577 4.3789,2.16406 2.92674,3.25145 3.27904,4.9534 1.76563,8.55273 -1.02147,2.42937 -1.9689,3.19727 -3.93946,3.19727 -5.86615,0 -9.8167,-8.59644 -5.67383,-12.3457 1.10707,-1.00187 2.28895,-1.52209 3.46876,-1.56836 z M 1142.7598,161 c 0.7443,0 1.0822,0.4471 0.7441,0.99414 -0.8844,1.43108 -4.5039,3.23125 -4.5039,2.24024 0,-1.29778 2.2519,-3.23438 3.7598,-3.23438 z m 7.3574,0 c 0.55,0 0.7227,0.45 0.3828,1 -0.3399,0.55 -1.0672,1 -1.6172,1 -0.55,0 -0.7227,-0.45 -0.3828,-1 0.3399,-0.55 1.0672,-1 1.6172,-1 z m -869.92189,0.12109 c 6.03935,-0.0703 9.68057,1.5067 11.08203,4.78516 1.20792,2.82571 1.65443,18.09362 0.5293,18.09375 -0.38106,4e-5 -2.25813,-0.92359 -4.17187,-2.05273 -4.6353,-2.73489 -11.46172,-3.07388 -12.9961,-0.64454 -0.91134,1.4429 -0.80002,1.99678 0.55664,2.76954 5.92902,3.37725 7.78481,12.09345 5.83985,27.42773 -0.62785,4.95 -1.14825,9.75612 -1.15625,10.67969 -0.0226,2.62521 -4.73932,5.08491 -12.37891,6.45703 -10.72458,1.92619 -12.39216,1.77945 -13.52539,-1.20117 C 253.43822,226.02475 253,224.44352 253,223.92188 c 0,-0.96945 -0.40904,-1.92275 -3.33008,-7.75196 C 248.75186,214.33785 248,212.464 248,212.00781 c 0,-0.45618 -1.8,-4.00435 -4,-7.88672 -2.2,-3.88238 -4,-7.79442 -4,-8.69336 0,-3.68062 7.73261,-16.13532 13.62109,-21.9375 7.83745,-7.72257 15.29969,-11.55292 23.83789,-12.23828 0.96109,-0.0771 1.87357,-0.12082 2.73633,-0.13086 z m 259.94922,1.02344 c -0.0919,0.0119 -0.19125,0.0364 -0.29883,0.0723 -0.74002,0.24642 -1.50138,1.25021 -1.6914,2.23047 -0.221,1.14002 0.13937,1.62251 1,1.33593 0.74002,-0.24642 1.50138,-1.25021 1.6914,-2.23047 0.16575,-0.85501 0.005,-1.34043 -0.44922,-1.4082 -0.0757,-0.0113 -0.16007,-0.0119 -0.25195,0 z m -186.96875,0.36328 C 353.64323,162.44497 354,163.3224 354,165.30078 354,167.923 354.43694,169 355.5,169 c 1.68305,0 1.75026,0.18291 0.89258,2.41797 -0.73756,1.92206 -1.47169,1.97666 -3.79297,0.2793 -1.31897,-0.96444 -1.64434,-2.16984 -1.25586,-4.63477 0.44769,-2.84067 1.23103,-4.4739 1.83203,-4.55469 z m 318.50781,1.03321 -0.9707,2.17382 c -0.5336,1.19584 -0.70129,2.8751 -0.37305,3.73047 C 670.66807,170.30067 671.41548,171 672,171 c 1.75529,0 2.23637,-2.69058 0.91992,-5.15039 z M 545.55859,165 c -1.85213,0 -2.88994,1.69282 -2.17773,3.54883 0.94898,2.473 3.61914,1.69888 3.61914,-1.04883 0,-1.51005 -0.57103,-2.5 -1.44141,-2.5 z m 599.02931,1.3418 c 0.2444,-0.0292 0.3893,0.0544 0.3809,0.28711 -0.017,0.47958 -1.2026,1.72458 -2.6329,2.76757 -1.6203,1.18141 -2.4362,1.40253 -2.164,0.58594 0.4272,-1.28171 3.3569,-3.51424 4.416,-3.64062 z m -872.84767,0.74414 c -1.97528,0.0301 -2.97096,1.61182 -2.2539,3.87109 1.00232,3.15802 5.01367,2.40337 5.01367,-0.94336 0,-1.62706 -0.64075,-2.60981 -1.85547,-2.84375 -0.32008,-0.0616 -0.62211,-0.0883 -0.9043,-0.084 z m 866.69927,3.90429 c 0.8721,-0.0223 0.3496,0.47048 -1.7403,2.41016 -3.4282,3.18184 -3.8691,3.23609 -2.8086,0.34961 0.4723,-1.28567 1.8525,-2.3995 3.2188,-2.59961 0.5946,-0.0871 1.0393,-0.15272 1.3301,-0.16016 z m -942.42192,1.44532 c 2.5542,-0.0426 4.7869,0.42297 6.61523,1.40039 1.02663,0.54883 3.39087,1.56472 5.25196,2.25781 6.47829,2.41257 21.19057,15.74182 26.93945,24.40625 3.09803,4.66919 8.53661,14.48847 10.80078,19.5 0.86971,1.925 2.43549,5.38798 3.47852,7.69531 1.04302,2.30732 1.89648,5.09369 1.89648,6.19141 0,1.09771 0.4539,2.27485 1.00781,2.61719 1.6617,1.02698 4.29948,6.73059 5.08594,10.99609 0.40563,2.2 1.66939,7.52132 2.80859,11.82422 2.89946,10.95162 3.96825,25.07636 3.5625,47.06836 -0.1917,10.39046 -0.71171,19.21249 -1.15625,19.60547 -1.57889,1.39576 -25.70729,-17.24045 -34.43359,-26.59571 -2.40657,-2.58003 -7.1875,-7.63042 -10.625,-11.22461 -3.4375,-3.59419 -6.25,-7.09488 -6.25,-7.77929 0,-1.7759 -4.7479,-7.18483 -6.91016,-7.8711 -1.00274,-0.31826 -5.68955,-4.39159 -10.41406,-9.05273 C 186.6877,256.58026 184.5184,255 182.04297,255 c -3.89359,0 -4.05457,2.41495 -0.29297,4.39648 1.5125,0.79676 5.20905,3.95845 8.21484,7.0254 4.79071,4.88817 5.28428,5.75612 4,7.02734 -0.80579,0.79759 -3.02131,1.71983 -4.92382,2.05078 -1.90251,0.33095 -3.92751,0.94964 -4.5,1.375 -0.57249,0.42535 -3.96602,1.55649 -7.54102,2.51367 -3.575,0.95718 -7.87387,2.15924 -9.55273,2.66992 -1.67887,0.51068 -5.05387,1.3493 -7.5,1.86329 -2.44614,0.51398 -8.27227,2.05284 -12.94727,3.41992 -7.43843,2.17515 -13.22966,3.78784 -36.5,10.16992 -2.75,0.75421 -7.7,1.88346 -11,2.50976 -3.3,0.62631 -7.887308,1.55288 -10.193359,2.0586 C 81.486632,303.79502 72,302.70008 72,300.08203 c 0,-2.32375 11.688732,-13.26936 20.460938,-19.16015 5.26007,-3.53231 9.894832,-6.44506 10.300782,-6.47266 0.40595,-0.0276 4.33828,-1.88406 8.73828,-4.125 4.4,-2.24095 9.575,-4.4422 11.5,-4.89258 4.99744,-1.16923 7.29042,-1.94304 10.07031,-3.40039 0.86351,-0.45269 4.23851,-1.54451 7.5,-2.42578 3.26149,-0.88128 8.39626,-2.27983 11.41016,-3.10742 3.0139,-0.82758 7.5139,-1.76977 10,-2.09375 2.4861,-0.32397 8.24979,-1.44678 12.80859,-2.4961 12.04494,-2.77246 13.17219,-2.61706 18.76563,2.5918 2.65774,2.475 5.36434,4.5 6.01562,4.5 0.65128,0 1.79619,0.73695 2.54297,1.63672 0.74677,0.8998 2.98015,2.65851 4.96289,3.91016 1.98275,1.25164 4.43072,3.10419 5.44141,4.11523 6.76662,6.76902 13.52866,9.57849 13.44726,5.58789 -0.0354,-1.73464 -9.97409,-9.61496 -23.5664,-18.68555 C 197.48459,252.28528 195,249.72705 195,247.94531 c 0,-1.09415 -2.06318,-2.6866 -5.75,-4.4375 -8.00634,-3.80227 -7.37994,-3.38029 -14.65234,-9.86719 l -6.56836,-5.85937 -6.76563,0.0606 c -6.21507,0.0552 -6.60129,-0.062 -4.76367,-1.43164 1.1,-0.81985 4.25,-3.16078 7,-5.20118 4.30445,-3.19376 4.6971,-3.75207 2.81836,-4.01953 -1.20027,-0.17088 -3.54125,0.39162 -5.20117,1.25 -5.03116,2.60171 -5.59361,1.4679 -1.61719,-3.25781 1.375,-1.6341 2.5,-4.07084 2.5,-5.41602 0,-2.94497 4.75593,-16.6959 7.70117,-22.26562 3.11753,-5.89552 6.96282,-9.06127 15.05078,-12.39648 4.16769,-1.71862 7.98165,-2.61316 11.26563,-2.66797 z m 340.39062,1.06054 c 0.39506,0.0295 0.85257,0.33456 1.50586,0.92579 3.08403,2.791 6.3817,3.44154 9.46094,1.86718 2.55772,-1.30771 3.04807,-1.29569 4.45312,0.10938 2.23091,2.23089 3.02256,19.65064 0.97071,21.35351 -0.7812,0.64834 -5.66762,1.86702 -10.85938,2.70899 -13.37767,2.16953 -13.23232,2.20267 -11.87109,-2.7793 0.47827,-1.75041 1.07683,-5.77928 1.33008,-8.95312 0.48343,-6.05866 2.16408,-12.35023 3.875,-14.50391 0.40672,-0.51199 0.73971,-0.75805 1.13476,-0.72852 z m 476.248,8.60157 c 0.9004,-0.003 1.9262,0.008 3.0938,0.0254 8.3055,0.12169 8.4012,2.18224 0.3086,6.62695 -3.2545,1.7875 -6.324,3.25 -6.8203,3.25 -0.4962,0 -1.3622,-2.01549 -1.9258,-4.47852 -1.0678,-4.66599 -0.958,-5.40381 5.3437,-5.42382 z m 37.2833,1.23632 c 0.039,0.008 0.061,0.0281 0.061,0.0586 0,0.24393 -1.1428,2.71813 -2.5391,5.49804 -1.8155,3.61465 -4.0231,6.03994 -7.75,8.51758 -8.8355,5.87384 -11.4485,9.27069 -12.0761,15.69336 -0.301,3.08122 -1.9587,9.38122 -3.6836,14 -1.725,4.61879 -4.0117,10.87344 -5.0801,13.89844 -1.0683,3.025 -2.4367,6.625 -3.041,8 -1.7522,3.98731 -2.628,6.3555 -3.1465,8.5 -0.2659,1.1 -1.6851,5.15 -3.1543,9 -5.92,15.51214 -18.5293,58.05402 -18.5293,62.51367 0,1.16527 -0.53934,3.1014 -1.19922,4.30274 -0.65987,1.20134 -1.53494,4.88359 -1.94336,8.18359 -0.40842,3.3 -1.20734,8.925 -1.77539,12.5 -0.57921,3.64507 -0.8061,13.51337 -0.51758,22.4668 0.48448,15.03458 0.39948,16.05553 -1.45703,17.5 -1.81235,1.41012 -1.86351,1.844 -0.62109,5.39062 0.74334,2.12196 1.59137,6.17196 1.88281,9 0.87973,8.53663 1.70026,11.92987 4.02539,16.64258 3.87637,7.85685 1.40352,19.21097 -6.81445,31.29492 -1.41926,2.08692 -2.58008,4.00492 -2.58008,4.26172 0,0.25679 -1.75378,3.0488 -3.89648,6.20508 -6.39368,9.4181 -15.86319,27.41369 -17.125,32.54297 -1.07563,4.37245 -5.3628,16.12833 -8.09375,22.19531 -1.23787,2.75 -2.35682,5.675 -2.48633,6.5 -0.42113,2.6827 -8.14067,20.60722 -11.76953,27.32812 -4.97449,9.21313 -5.13621,9.54093 -7.7168,15.67188 -1.27326,3.025 -2.89884,6.20982 -3.61328,7.07812 C 924.5844,578.94645 924,580.3828 924,581.26953 c 0,0.88674 -0.4505,1.8916 -1.00195,2.23242 -0.90606,0.55997 -4.99805,8.66357 -4.99805,9.89844 0,0.28097 -1.41325,2.89299 -3.14062,5.80469 -1.72737,2.91171 -4.25999,7.31992 -5.62891,9.79492 -1.36892,2.475 -3.05286,5.175 -3.74024,6 -2.12093,2.54555 -4.49023,7.79751 -4.49023,9.95117 0,3.84582 2.93529,2.06279 6.91797,-4.20117 2.18559,-3.4375 4.74531,-7.32907 5.6875,-8.64844 0.9422,-1.31937 3.27134,-5.36937 5.17578,-9 1.90445,-3.63063 5.22849,-8.92193 7.38867,-11.75781 2.16019,-2.83588 4.14572,-6.35716 4.41211,-7.82617 0.26638,-1.46902 4.55893,-11.07364 9.53711,-21.34375 4.97818,-10.2701 11.76066,-24.29883 15.07422,-31.17383 3.31357,-6.875 6.42856,-13.175 6.92187,-14 0.49331,-0.825 1.16363,-2.175 1.48829,-3 1.44204,-3.66441 3.99259,-8.5733 5.04101,-9.70117 0.62926,-0.67693 2.13059,-3.26972 3.33789,-5.76367 1.2073,-2.49395 2.57558,-4.53516 3.03906,-4.53516 0.83929,0 4.97852,5.29872 4.97852,6.37305 0,0.31044 1.95883,3.61605 4.35352,7.3457 4.52042,7.04038 6.39134,10.37408 9.11523,16.24414 0.88392,1.90487 2.22223,4.15487 2.97461,5 2.06175,2.31591 11.55664,21.08398 11.55664,22.84375 0,0.84458 0.589,2.24693 1.3086,3.11524 3.1547,3.80674 10.6914,18.25504 10.6914,20.49609 0,1.35518 0.4375,2.73558 0.9727,3.06641 1.6742,1.03467 4.3323,7.544 4.2226,10.34179 -0.2811,7.16889 -4.3689,21.45733 -8.6152,30.11719 -2.5196,5.13834 -4.5801,9.73643 -4.5801,10.21875 0,0.48233 -1.0923,2.60738 -2.4277,4.72266 -2.1672,3.43308 -2.9992,3.9269 -7.75,4.58984 -2.92719,0.40848 -9.41488,0.86611 -14.418,1.01758 -5.00312,0.15147 -10.03308,0.57286 -11.17578,0.93554 -1.1427,0.36268 -4.47317,0.84427 -7.40235,1.07032 -2.92918,0.22606 -7.12617,0.6251 -9.32617,0.88672 -2.2,0.26161 -16.66368,0.76725 -32.14258,1.12304 -27.94855,0.6424 -30.65227,0.39812 -28.80078,-2.59765 1.14478,-1.85235 1.08929,-9.95818 -0.0742,-10.92383 -0.60566,-0.50265 -3.8647,-0.99632 -7.24219,-1.09766 -3.64947,-0.10951 -6.3239,-0.66593 -6.59375,-1.36914 -0.24974,-0.6508 0.85205,-3.28158 2.44922,-5.84765 1.59717,-2.56609 2.9043,-4.92491 2.9043,-5.24024 0,-0.31533 2.64464,-5.37815 5.87695,-11.25195 8.50235,-15.45057 24.03086,-46.14721 28.92578,-57.17969 3.77002,-8.4971 9.7314,-25.35147 10.75586,-30.4082 0.21264,-1.04957 1.45673,-4.87457 2.76368,-8.5 3.37351,-9.35793 4.50897,-13.09663 5.1875,-17.0918 1.25747,-7.40383 7.05442,-25.45293 9.92578,-30.90234 0.7528,-1.42871 2.71591,-5.97266 4.36328,-10.09766 1.64736,-4.125 3.8936,-9.75 4.99023,-12.5 2.66995,-6.6954 3.40212,-10.69718 2.27735,-12.44922 -0.51179,-0.79722 -3.66682,-2.00755 -7.00977,-2.68945 C 951.7878,422.0826 946,418.82931 946,416.58594 c 0,-1.8164 -3.67176,-4.90571 -4.91602,-4.13672 -1.77759,1.09861 -6.94112,-11.33274 -7.45507,-17.94922 -0.88295,-11.36695 3.4387,-31.86547 7.43945,-35.29102 1.16026,-0.99344 2.07488,-3.61318 2.49414,-7.13867 0.58103,-4.88572 2.72441,-11.02375 7.97852,-22.85351 0.80219,-1.80616 1.45898,-3.78873 1.45898,-4.4043 0,-1.70186 5.77311,-13.5542 6.95898,-14.28711 0.57265,-0.35391 1.04388,-1.40394 1.04688,-2.33398 0.003,-0.93004 0.74182,-3.04141 1.64062,-4.69141 0.89879,-1.65 3.94929,-7.51542 6.7793,-13.03516 2.83,-5.51974 6.31312,-11.59474 7.74024,-13.5 C 979.36721,274.02616 989,254.8084 989,253.35547 c 0,-0.26558 1.125,-2.94317 2.5,-5.94922 1.375,-3.00606 2.5,-5.72208 2.5,-6.03516 0,-0.31308 0.61144,-1.98758 1.35938,-3.7207 1.31704,-3.05192 5.51942,-20.21096 6.08792,-24.85937 0.1541,-1.2599 0.7802,-4.09102 1.3906,-6.29102 1.1115,-4.00636 1.4105,-4.23727 9.6621,-7.44531 3.716,-1.44469 8.9813,-3.95468 12.5,-5.95899 6.3045,-3.59114 14.6497,-7.0957 16.8965,-7.0957 1.2117,0 3.5296,-0.68627 5.1523,-1.52539 1.4198,-0.73423 2.6143,-1.19936 2.8907,-1.14063 z m -877.04106,10.85547 c -1.30792,0.11225 -1.15275,4.54998 0.35156,5.10157 2.01838,0.74007 3.34956,-1.11798 2.15625,-3.00977 -0.57693,-0.91463 -1.58032,-1.83863 -2.22852,-2.05469 -0.10024,-0.0334 -0.1921,-0.0446 -0.27929,-0.0371 z M 601.38672,198 c 1.28876,0 1.61328,1.10621 1.61328,5.5 0,3.025 -0.45,5.5 -1,5.5 -0.55,0 -1.01014,-0.1125 -1.02344,-0.25 -0.0133,-0.1375 -0.28936,-2.6125 -0.61328,-5.5 -0.4944,-4.40715 -0.33079,-5.25 1.02344,-5.25 z m 395.19336,7 c 1.24339,0 1.45407,0.88629 1.06054,4.46484 -1.1355,10.32622 -8.17032,35.22092 -12.75585,45.13868 -1.24505,2.69282 -5.7086,10.74648 -9.91797,17.89648 -4.20936,7.15 -8.33613,14.35 -9.16992,16 -0.83381,1.65 -3.79349,7.5 -6.57813,13 -4.75519,9.39203 -5.97208,12.27653 -9.91406,23.5 -0.86929,2.475 -2.15908,5.175 -2.86524,6 -0.70617,0.825 -1.60547,2.85 -2,4.5 -0.39452,1.65 -1.98977,5.8429 -3.54492,9.31641 -1.55516,3.4735 -3.13269,7.9735 -3.50391,10 -0.37121,2.02649 -1.28624,4.57137 -2.0332,5.65625 -0.74697,1.08487 -1.37117,2.88487 -1.38867,4 -0.0175,1.11512 -0.67886,2.88029 -1.46875,3.92382 -0.78989,1.04353 -1.1947,2.28748 -0.90039,2.76368 0.29431,0.4762 -0.21694,3.44824 -1.13672,6.60351 -2.10272,7.21333 -1.26626,21.56591 1.62891,27.93164 1.04939,2.30732 1.9082,4.66982 1.9082,5.25 0,4.22782 -6.24918,-4.66045 -7.69531,-10.94531 -0.44294,-1.925 -0.75732,-8.225 -0.69922,-14 0.10543,-10.47126 1.93804,-20.15201 6.53125,-34.5 4.44364,-13.88077 5.19506,-16.04867 5.89062,-17 0.40213,-0.55 1.47915,-3.60558 2.39258,-6.79102 0.91342,-3.18543 2.54128,-7.23543 3.61719,-9 1.07591,-1.76456 1.95698,-3.74628 1.95898,-4.40234 0.002,-0.65606 1.00371,-2.88581 2.22461,-4.95508 1.2209,-2.06926 2.34533,-4.59198 2.5,-5.60547 0.15466,-1.01348 2.05417,-5.30677 4.22071,-9.54297 2.16653,-4.23619 5.49333,-11.07812 7.39257,-15.20312 1.89923,-4.125 5.56736,-11.98832 8.15235,-17.47461 2.58498,-5.48628 5.72719,-12.68628 6.98242,-16 1.25522,-3.31371 3.91912,-9.37525 5.91992,-13.46875 2.00079,-4.09349 4.12746,-9.25698 4.72461,-11.47461 1.69999,-6.3133 6.7361,-15.58203 8.4668,-15.58203 z m -12.7207,3.54297 c 0.13514,-0.003 0.22815,0.0114 0.27929,0.043 1.73835,1.07436 0.75034,4.63166 -4.09375,14.72461 -2.72566,5.67908 -5.46168,11.64551 -6.08008,13.25781 l -1.125,2.93164 -1.45117,-2.75 c -1.60339,-3.03712 -4.1174,-3.61947 -5.05664,-1.17188 -1.02359,2.66746 -17.78006,8.98913 -31.83203,12.00977 -1.65,0.35469 -6.15,1.67183 -10,2.92773 -3.85,1.2559 -11.4577,3.24612 -16.90625,4.42188 -5.44855,1.17577 -10.30249,2.38213 -10.78711,2.68164 -1.90213,1.17558 -20.08374,1.92764 -22.10352,0.91406 -1.39863,-0.70188 -2.45146,-2.78193 -3.28515,-6.49218 -1.47271,-6.55407 -1.39762,-6.63799 8.92578,-9.94141 3.93602,-1.2595 8.63329,-2.92257 10.43945,-3.69531 1.80616,-0.77274 4.11474,-1.4043 5.12891,-1.4043 1.01417,0 3.38804,-0.645 5.27539,-1.43359 1.88734,-0.78858 8.12877,-2.63397 13.87109,-4.10157 5.74233,-1.46759 10.86813,-3.07258 11.39063,-3.5664 0.5225,-0.49382 1.8725,-0.90963 3,-0.92383 2.03807,-0.0257 7.29877,-1.79889 23.55078,-7.93555 17.46145,-6.59333 28.83205,-10.45565 30.85938,-10.49609 z M 126.10352,220 c 0.82536,0 -0.82564,5.75331 -2.15235,7.5 -0.41776,0.55 -2.56618,6.4 -4.77344,13 -2.20726,6.6 -5.57594,14.91541 -7.48632,18.47852 -2.93433,5.47293 -4.33885,6.9573 -9.05079,9.5664 -3.06766,1.69863 -6.379733,3.75512 -7.35937,4.57031 -0.979638,0.81518 -4.25625,2.53198 -7.28125,3.81446 -13.076208,5.5438 -20.72299,7.4884 -26.207031,6.66601 -3.808315,-0.57109 -4.937202,-0.28252 -8.347657,2.13282 -5.03484,3.56576 -15.418053,9.77891 -17.695312,10.58789 -2.832729,1.0063 -2.060424,-0.45659 3.597656,-6.81641 5.377302,-6.04422 6.114717,-8.5 2.552735,-8.5 C 39.870484,281 31,289.53827 31,291.49219 c 0,0.6237 -1.262092,2.34241 -2.804688,3.82031 -4.834724,4.63196 -4.956803,3.65981 -1.166015,-9.3125 1.044692,-3.575 2.577408,-10.27583 3.40625,-14.89062 0.828843,-4.61481 2.855502,-11.26872 4.501953,-14.78711 5.733027,-12.25119 19.174593,-23.32631 32.0625,-26.41602 3.025,-0.7252 5.725,-1.37511 6,-1.44531 0.275,-0.0702 1.766148,-0.65351 3.314453,-1.29492 C 77.862757,226.5246 79.856494,226 80.744141,226 c 0.887646,0 3.134639,-0.549 4.992187,-1.2207 3.051563,-1.10346 3.838796,-0.96137 8.175781,1.47656 2.64001,1.48403 4.991411,2.50664 5.22461,2.27344 0.417028,-0.41703 5.366561,-1.48267 9.437501,-2.03321 7.25308,-0.98088 13.44612,-2.86046 14.96875,-4.54297 0.97175,-1.07377 2.1244,-1.95312 2.56055,-1.95312 z m 164.8457,13.25195 c 0.18725,0.004 0.31911,0.0206 0.39258,0.0488 1.61648,0.6203 1.49107,4.37001 -0.5,14.85352 l -1.07422,5.65429 -4.63477,0.69336 c -2.54856,0.38215 -5.30781,1.03913 -6.13281,1.45899 -0.825,0.41986 -3.82731,1.02585 -6.67188,1.3457 -5.93948,0.66786 -6.07377,0.54187 -10.79296,-10.02148 -3.02361,-6.76799 -2.8428,-9.24307 0.68359,-9.36133 1.25476,-0.0421 2.95625,-0.24406 3.78125,-0.44922 7.1932,-1.78878 22.14042,-4.28898 24.94922,-4.22266 z m 242.24023,6.82422 c 1.72578,0.004 1.82121,0.39783 1.3125,1.60938 -0.83792,1.99562 -5.40442,16.95556 -5.8789,19.25976 -0.16374,0.79519 -0.82372,1.62158 -1.4668,1.83594 -0.85622,0.28541 -1.10002,-2.64412 -0.91211,-10.94531 L 526.5,240.5 l 4.38086,-0.31445 c 0.97549,-0.0699 1.73333,-0.1107 2.30859,-0.10938 z m 438.54688,0.11914 c 0.0844,0.0839 -0.0514,0.66617 -0.34766,1.80469 -0.35773,1.375 -1.43724,4.3 -2.40039,6.5 -2.3859,5.44983 -4.21269,10.30497 -4.11719,10.94531 0.10637,0.71284 -5.39824,11.28173 -6.68164,12.82813 -0.56024,0.67505 -1.00764,1.45156 -0.99414,1.72656 0.0135,0.275 -1.79259,4.325 -4.01367,9 -2.22109,4.675 -3.97935,8.725 -3.90625,9 0.0731,0.275 -0.604,1.85 -1.50586,3.5 -1.68662,3.08576 -11.2853,23.4309 -12.73828,27 -0.44781,1.1 -2.81152,7.175 -5.25195,13.5 -11.49913,29.80297 -11.45579,29.58724 -12.04688,60.83398 -0.27678,14.63168 -0.92133,26.75532 -1.45117,27.28516 -0.52447,0.52447 -2.26481,1.17649 -3.86719,1.44727 -1.60237,0.27078 -3.46428,0.68386 -4.13672,0.91992 -2.21636,0.77805 -3.77944,-3.08599 -3.68164,-9.10156 0.27324,-16.80523 2.6896,-28.92624 10.94336,-54.88477 0.87438,-2.75 2.44102,-7.925 3.48047,-11.5 4.87893,-16.78034 16.84956,-46.52823 23.93945,-59.49023 2.10896,-3.85569 4.87914,-9.48477 6.15625,-12.50977 2.09192,-4.95495 4.20555,-8.97519 13.40235,-25.5 1.5305,-2.75 3.72775,-6.17641 4.88281,-7.61523 1.15507,-1.43882 2.67066,-3.46382 3.36914,-4.5 0.57836,-0.85797 0.88245,-1.27333 0.9668,-1.18946 z m -116.2793,2.58008 c 4.19717,0.0199 7.69358,0.19998 8.30859,0.58008 0.54577,0.33731 1.18229,3.23508 1.41407,6.43945 0.23947,3.31062 1.37101,7.64856 2.62109,10.04688 1.20995,2.32136 2.19922,4.60562 2.19922,5.07812 0,1.77328 -8.73781,4.99615 -12.14258,4.47852 -1.84664,-0.28074 -6.95742,0.16765 -11.35742,0.99609 -4.4,0.82844 -9.0125,1.80545 -10.25,2.17188 -1.35252,0.40049 -2.25,0.23694 -2.25,-0.41016 0,-0.59207 1.9125,-1.62265 4.25,-2.29102 5.28601,-1.51146 6.75,-2.59397 6.75,-4.98828 0,-2.32532 0.32383,-2.35127 -6.125,0.49219 -8.67976,3.82714 -29.875,7.24552 -29.875,4.81836 0,-1.54963 1.40884,-2.20502 6.75195,-3.14062 2.61101,-0.45721 8.43809,-1.97418 12.94727,-3.3711 4.50918,-1.39693 9.56129,-2.75483 11.22851,-3.01758 4.14796,-0.65373 12.26922,-3.702 13.95899,-5.24023 2.23045,-2.03041 0.57045,-4.41283 -3.10547,-4.45703 -3.83403,-0.046 -20.58032,-3.42602 -21.49219,-4.33789 -1.13476,-1.13476 0.52916,-1.82436 4.39453,-1.81836 2.09917,0.003 4.35883,-0.43959 5.02149,-0.98438 0.81211,-0.66766 9.75666,-1.07803 16.75195,-1.04492 z m 104.45508,6.34961 c 0.30202,-0.0286 0.59965,0.0528 0.83789,0.29102 0.33925,0.33924 0.13563,1.09874 -0.45312,1.6875 -0.71818,0.71815 -1.27906,0.73576 -1.70118,0.0527 -0.53264,-0.86183 0.41033,-1.94529 1.31641,-2.03125 z m -916.330079,3.18945 c -3.141398,0.20609 -6.009146,4.38672 -5.701172,8.93555 0.142308,2.1019 1.688086,2.31433 2.447266,0.33594 0.29858,-0.77809 1.809658,-2.02021 3.357422,-2.75977 3.570581,-1.70612 4.295737,-5.37964 1.251953,-6.3457 -0.451498,-0.1433 -0.906698,-0.19546 -1.355469,-0.16602 z m 228.638669,14 c 2.25176,-0.11367 2.65712,1.7823 1.25586,5.75391 -0.73072,2.07108 -1.63854,5.83371 -2.01758,8.36133 -0.65491,4.3672 -2.31331,7.17512 -2.58593,4.3789 -0.0702,-0.71996 -0.23702,-2.20859 -0.3711,-3.30859 -0.13407,-1.1 -0.41481,-4.66091 -0.62304,-7.91406 -0.36836,-5.75474 -0.30177,-5.94189 2.48632,-6.87305 0.71675,-0.23937 1.33584,-0.3722 1.85547,-0.39844 z m 580.72071,5.72071 c 0.99919,0.0227 0.66102,0.54881 -0.94141,1.46484 -3.27204,1.87047 -5.04449,1.84893 -2.55859,-0.0312 1.06762,-0.80751 2.64262,-1.45309 3.5,-1.43359 z M 214.39258,273 c -1.57216,0 -1.63634,0.19985 -0.78516,2.41797 C 214.12954,276.77859 217,277.7636 217,276.58203 217,274.98521 215.55482,273 214.39258,273 Z m 14.23437,35.48242 c 0.7523,0.11163 2.03344,0.90927 3.32813,2.12696 l 3.07422,2.89062 -0.6211,17 c -0.3413,9.35 -0.79923,17.29729 -1.01758,17.66016 -0.56744,0.9431 0.66873,3.83984 1.63868,3.83984 1.51081,0 3.16481,-7.06932 3.58203,-15.3125 0.9975,-19.70791 0.80551,-19.25064 6.45703,-15.38477 3.9606,2.7092 4.30409,5.95302 1.10937,10.45899 -1.06805,1.50642 -2.6967,4.98828 -3.62109,7.73828 -0.92439,2.75 -2.26972,5.90756 -2.98828,7.01562 -2.40178,3.70376 -2.77126,8.11958 -1.09375,13.06055 1.90365,5.60709 1.44877,14.71365 -1.17578,23.55469 -0.95833,3.22822 -2.03724,5.86914 -2.39844,5.86914 -2.03092,0 -4.2347,-18.26609 -5.42773,-45 -0.23317,-5.225 -0.82568,-15.125 -1.31836,-22 -0.49263,-6.875 -0.53049,-12.90073 -0.084,-13.39062 0.11399,-0.12507 0.30588,-0.16417 0.55664,-0.12696 z M 967.56836,309 c -1.52253,0 -2.064,1.25239 -3.12695,7.25 -0.84098,4.74516 0.65946,4.85872 2.87304,0.2168 2.06264,-4.3254 2.17021,-7.4668 0.25391,-7.4668 z m -5.35547,13.43164 C 961.21644,322.47326 960,323.8659 960,325.60742 c 0,1.31615 0.43419,2.39258 0.96484,2.39258 1.28646,0 2.87578,-3.19278 2.33594,-4.69336 -0.22767,-0.63287 -0.63496,-0.89392 -1.08789,-0.875 z m -441.77148,9.29492 c 0.31637,0.0906 0.56964,0.87776 0.79882,2.42188 0.53901,3.63125 -0.38077,7.37899 -1.52929,6.23047 -0.98488,-0.98487 -0.86514,-6.58784 0.17578,-8.23047 0.1503,-0.23719 0.2882,-0.37718 0.41601,-0.41797 0.0479,-0.0153 0.0935,-0.0169 0.13868,-0.004 z m 433.92187,4.7793 c -1.07103,-0.0218 -2.14732,1.36936 -2.72851,3.74414 -0.51423,2.10116 -0.30985,2.75 0.86718,2.75 1.93077,0 4.21095,-4.68749 2.91211,-5.98633 -0.33714,-0.33714 -0.69377,-0.50055 -1.05078,-0.50781 z m -4.64258,9.10742 c -0.43598,-0.0397 -0.90937,0.12894 -1.39648,0.5332 -0.72808,0.60426 -1.32422,1.95013 -1.32422,2.99024 0,1.04012 -0.53504,2.74704 -1.18945,3.79492 -0.9331,1.49414 -0.90805,2.2463 0.12109,3.48633 2.91232,3.50913 6.06836,0.57024 6.06836,-5.65235 0,-3.0491 -0.97136,-5.03335 -2.2793,-5.15234 z m -6.0039,19.5625 c -1.53906,-0.0639 -2.68218,1.7794 -2.70118,4.57422 -0.0166,2.4425 1.86952,2.96642 3.78516,1.05078 1.70755,-1.70755 1.48316,-4.75498 -0.40234,-5.47851 -0.23386,-0.0897 -0.46178,-0.13737 -0.68164,-0.14649 z M 938,380 c -2.22871,0 -2.5089,1.18131 -0.96484,4.06641 C 938.56738,386.92939 940,386.41376 940,383 c 0,-2.33333 -0.44444,-3 -2,-3 z m 1.62891,16 c -1.9446,0 -2.96736,1.67493 -2.2168,3.63086 0.81433,2.12209 3.02018,1.17803 3.4082,-1.45898 C 941.028,396.7604 940.61067,396 939.62891,396 Z m 47.70117,78 c 0.24216,0 2.40409,3.25063 4.80469,7.22461 2.4006,3.97398 6.05273,9.36086 8.11523,11.9707 2.0625,2.60985 3.75,5.0619 3.75,5.44727 0,0.38537 0.6242,1.41097 1.3867,2.2793 2.866,3.26357 12.575,23.3356 13.9531,28.8457 3.8205,15.27595 4.8017,20.5323 4.2461,22.74609 -0.3864,1.53945 0.1184,3.59467 1.4004,5.69727 1.103,1.8091 2.0098,4.75156 2.0098,6.53906 0,2.55622 -0.4124,3.25 -1.9453,3.25 -1.4105,0 -2.7919,-1.76581 -5,-6.39258 -1.6781,-3.51613 -3.0508,-6.89113 -3.0508,-7.5 0,-0.60887 -0.9,-2.00742 -2,-3.10742 -2.5248,-2.52484 -2.6782,-5.17671 -0.25,-4.32227 1.4286,0.50269 1.5204,0.36927 0.5,-0.73046 -0.6875,-0.74095 -1.25,-2.24279 -1.25,-3.33789 0,-1.92138 -0.048,-1.92694 -1.3574,-0.13672 -1.2424,1.69909 -1.638,1.27364 -4.7051,-5.0586 -1.8418,-3.80274 -5.4672,-10.37417 -8.05664,-14.60351 -2.58944,-4.22933 -5.03531,-8.72933 -5.43555,-10 -0.40025,-1.27066 -1.78861,-3.8778 -3.08593,-5.79297 C 990.06201,505.1024 989,503.21311 989,502.81836 c 0,-0.39476 -1.25648,-2.65251 -2.79102,-5.01758 -4.16569,-6.42029 -6.31802,-11.61573 -5.12109,-12.35547 0.56047,-0.34639 2.09473,-3.06268 3.41016,-6.03711 1.31544,-2.97443 2.58987,-5.4082 2.83203,-5.4082 z M 1029,570.74219 c 1.8136,-0.0411 3,1.47328 3,4.33593 0,4.6544 -2.2261,5.2303 -4.834,1.25196 -1.2695,-1.93664 -2.1652,-3.64087 -1.9883,-3.78906 1.4197,-1.18956 2.7341,-1.77418 3.8223,-1.79883 z m 4.7988,23.26953 c 0.742,-0.0978 1.3534,1.10182 1.8047,3.61523 0.2837,1.57998 0.9399,3.29977 1.457,3.82227 0.5171,0.5225 0.9395,1.27603 0.9395,1.67383 0,1.74198 -5.5436,7.07758 -8.7422,8.41406 -1.9263,0.80488 -3.6571,1.46289 -3.8476,1.46289 -0.5781,0 0.8182,-3.40117 2.0527,-5 0.637,-0.825 1.9371,-4.07304 2.8887,-7.2168 1.3246,-4.37623 2.4933,-6.64576 3.4472,-6.77148 z m -146.53513,39.74805 c 5.24883,-0.0713 6.34403,0.44629 5.12305,2.42187 -0.44711,0.72344 -0.82911,2.18147 -0.84961,3.24024 -0.0638,3.29997 -5.23644,3.63636 -15.78711,1.02539 -3.4232,-0.84714 -3.46388,-1.74986 -0.17578,-3.9043 3.23283,-2.11823 5.68136,-2.7015 11.68945,-2.7832 z m -181.38281,25.36718 c -0.54375,-0.007 -1.12484,0.0529 -1.61133,0.17969 -0.97297,0.25354 -0.41953,0.47765 1.23047,0.49805 1.65,0.0204 2.44656,-0.18701 1.76953,-0.46094 -0.33851,-0.13698 -0.84492,-0.21008 -1.38867,-0.2168 z" id="path12"/>
</svg>
