<?xml version="1.0" encoding="utf-8"?>
<svg xmlns="http://www.w3.org/2000/svg" version="1.1" viewBox="0 0 1155 371">
	<path d="m 1135.5,351.94528 c -2.2,-1.04106 -5.0266,-1.90463 -6.2814,-1.91906 -1.2765,-0.0147 -2.5277,-0.79701 -2.8407,-1.77622 -0.3076,-0.9625 -0.9581,-2.65 -1.4456,-3.75 -0.4875,-1.1 -0.7842,-2.675 -0.6593,-3.5 0.1248,-0.825 -0.223,-1.63032 -0.773,-1.78961 -0.55,-0.15929 -1.1438,0.62821 -1.3196,1.75 -0.3083,1.96799 -2.1804,2.95804 -2.1804,1.15311 0,-1.32029 -6.3061,-2.03525 -7.745,-0.87811 -1.6655,1.33933 -5.6926,-1.32466 -7.5083,-4.96688 -0.7591,-1.52268 -1.96,-2.64022 -2.6687,-2.48342 -0.7087,0.15679 -1.927,-0.24483 -2.7074,-0.8925 -0.7804,-0.64768 -1.7042,-0.89237 -2.0528,-0.54377 -0.3486,0.34861 -1.1809,0.17974 -1.8497,-0.37526 -0.6687,-0.555 -3.47,-1.16703 -6.2251,-1.36008 -2.7551,-0.19305 -5.5955,-0.71331 -6.312,-1.15615 -2.0367,-1.25875 -19.2528,-0.99198 -19.6851,0.30502 -0.3926,1.17788 3.9225,4.46288 5.3878,4.10162 1.5645,-0.38574 14.7976,1.26953 17.9954,2.25097 1.721,0.52819 3.9409,1.85742 4.9331,2.95383 1.5987,1.76647 1.6344,2.16324 0.3134,3.48421 -1.2713,1.27131 -2.9541,1.33173 -11.4332,0.41045 -5.4683,-0.59415 -13.0924,-1.69899 -16.9424,-2.4552 -3.85,-0.75621 -10.15,-1.90676 -14,-2.55677 -3.85,-0.65001 -8.125,-1.5491 -9.5,-1.99799 -1.375,-0.44889 -5.425,-1.11862 -9,-1.48831 -3.575,-0.36968 -7.4,-0.84707 -8.5,-1.06087 -1.1,-0.21379 -4.7,-0.61243 -8,-0.88587 -3.3,-0.27344 -8.25,-0.79159 -11,-1.15144 -2.75,-0.35986 -6.36937,-0.72941 -8.04304,-0.82124 -1.67367,-0.0918 -5.12122,-1.17298 -7.66121,-2.40257 -3.75195,-1.81629 -5.56472,-2.11005 -9.66466,-1.56617 -2.77557,0.36819 -5.85303,0.32982 -6.83879,-0.0853 -0.98577,-0.41509 -3.1423,-0.92141 -4.7923,-1.12516 -1.65,-0.20374 -4.21034,-0.86292 -5.68964,-1.46483 -1.47931,-0.60192 -3.16681,-0.79949 -3.75,-0.43905 -0.5832,0.36043 -1.06036,0.0325 -1.06036,-0.72871 0,-0.8785 -1.18711,-1.41309 -3.25,-1.46358 -8.18589,-0.20032 -18.13825,-1.34774 -19.17856,-2.21112 -1.00424,-0.83345 -2.83785,-1.01143 -12.07144,-1.17171 -1.1,-0.0191 -6.5,-0.2063 -12,-0.41601 -17.92118,-0.68332 -23.57548,-0.59687 -28.82875,0.44076 -2.84419,0.56178 -8.77125,1.2435 -13.17125,1.51491 -4.4,0.27142 -9.35,0.93581 -11,1.47643 -3.74457,1.22688 -14.38361,1.97793 -35,2.47076 -8.8,0.21036 -20.725,0.89078 -26.5,1.51205 -17.0809,1.83753 -53.35079,1.40787 -76.41594,-0.90525 -4.90377,-0.49178 -9.34488,-0.62905 -9.86913,-0.30505 -0.52425,0.32401 -10.46208,0.73203 -22.08406,0.90673 -11.62198,0.17469 -24.28087,0.55582 -28.13087,0.84695 -3.85,0.29114 -13.3,0.49543 -21,0.45397 -7.7,-0.0414 -15.5077,-0.0611 -17.35044,-0.0437 -1.84274,0.0174 -4.18199,0.78423 -5.19834,1.704 -1.49397,1.35203 -3.42286,1.6008 -10.07129,1.29888 -5.34917,-0.24292 -8.36727,-0.80503 -8.635,-1.60823 C 596.01855,326.55565 595.39428,326 594.85765,326 c -0.53663,0 -0.70936,0.43093 -0.38385,0.95761 0.59665,0.9654 -73.61746,0.68647 -75.19569,-0.28262 -0.89361,-0.54871 -21.38705,-2.28611 -38.27811,-3.24514 -6.325,-0.35912 -13.075,-0.81772 -15,-1.01911 -1.925,-0.20138 -6.875,-0.44394 -11,-0.53901 -4.125,-0.0951 -7.91516,-0.40466 -8.42258,-0.68797 -1.40388,-0.78385 -26.07831,-0.39542 -34.64767,0.54542 -4.16363,0.45713 -9.11363,0.51165 -11,0.12115 -1.88636,-0.3905 -9.05475,-1.1549 -15.92975,-1.69867 -9.89189,-0.78239 -12.81297,-0.71982 -14,0.29985 -1.97471,1.69631 -9.14007,1.04959 -10.24492,-0.92468 -1.06714,-1.90687 -3.39721,-1.97701 -4.45539,-0.13412 -0.43983,0.76599 -3.04969,1.69718 -5.79969,2.06931 -14.09657,1.90756 -20.44938,2.29455 -24.99556,1.52262 -9.30148,-1.57937 -25.9302,-3.05242 -40.50444,-3.58807 -7.975,-0.29311 -19.9,-0.72856 -26.5,-0.96767 -6.6,-0.23911 -12.94314,-0.6496 -14.09587,-0.91219 -2.18577,-0.49792 -17.68592,1.92138 -19.50231,3.04397 -0.98929,0.61141 -14.17597,0.53091 -23.90182,-0.14593 -2.475,-0.17223 -9.61397,-0.52249 -15.86439,-0.77834 -11.89847,-0.48705 -14.42288,-1.37854 -12.49883,-4.41393 1.10671,-1.74596 5.92383,-2.22314 20.36322,-2.0172 7.46073,0.10641 9.08852,0.0873 12,-0.14095 6.20006,-0.48603 27.10861,0.30239 27.5641,1.03939 0.27869,0.45092 1.50327,0.47708 2.7213,0.0581 1.21803,-0.41895 7.3896,-0.58812 13.7146,-0.37593 6.325,0.21219 21.175,0.24268 33,0.0678 32.47177,-0.48034 40.70184,-0.41499 76,0.60346 17.875,0.51574 45.325,0.99198 61,1.05831 15.675,0.0663 31.425,0.44341 35,0.83797 13.70564,1.51262 15.67264,1.70886 21.5,2.14506 3.3,0.24701 8.925,0.67366 12.5,0.9481 3.575,0.27444 14.36641,0.9989 23.98091,1.6099 9.6145,0.611 17.92528,1.38554 18.4684,1.72121 1.06555,0.65854 64.79763,0.31451 73.05069,-0.39433 9.03522,-0.77602 11.93709,-1.13074 17.11217,-2.09176 2.81169,-0.52213 5.96169,-0.81969 7,-0.66124 4.74809,0.72457 31.32501,0.35855 44.88783,-0.6182 8.25,-0.59415 17.7,-1.03716 21,-0.98449 19.5229,0.31164 28.78001,0.35259 35,0.15484 3.85,-0.1224 16.675,-0.2407 28.5,-0.26287 22.84563,-0.0428 31.83564,-0.34181 41.5,-1.38011 3.3,-0.35454 10.5,-0.85516 16,-1.1125 5.5,-0.25733 11.125,-0.74724 12.5,-1.08868 1.375,-0.34144 3.4,-0.66975 4.5,-0.72957 3.40548,-0.18522 2.68888,-2.05106 -1.25,-3.25469 -7.62034,-2.3286 -22.14675,-3.8527 -36.25,-3.80332 -14.27351,0.05 -44.00303,1.33432 -44.99324,1.94374 -1.45624,0.89624 -28.31561,1.91704 -48.50676,1.84351 -28.45982,-0.10364 -84.40538,-1.23579 -94.5,-1.91236 -8.74619,-0.5862 -16.56886,-1.01079 -34.5,-1.87255 -7.15,-0.34362 -17.05,-0.88536 -22,-1.20386 -4.95,-0.3185 -11.25,-0.695 -14,-0.83667 -2.75,-0.14167 -9.95,-0.5453 -16,-0.89695 -6.05,-0.35164 -21.575,-0.89396 -34.5,-1.20513 -12.925,-0.31118 -25.3,-0.71387 -27.5,-0.89487 -2.2,-0.181 -4.7875,-0.37107 -5.75,-0.42236 -0.9625,-0.0513 -1.75,-0.72952 -1.75,-1.50717 0,-1.19402 4.70413,-1.36693 30.25,-1.11192 16.6375,0.16609 36.1,0.82878 43.25,1.47264 12.29064,1.10679 29.45122,1.83127 59,2.49087 29.6403,0.66163 96.01069,1.72969 109.5,1.76211 29.03643,0.0698 63,-2.12499 65.54298,-4.23547 0.78211,-0.64909 9.57296,-0.83177 24.58719,-0.51093 23.63243,0.50501 26.21114,0.6946 33.31463,2.44937 2.16964,0.53596 4.31996,0.74261 4.7785,0.45923 0.45853,-0.28339 4.81627,0.41974 9.68387,1.56252 11.90001,2.79379 25.14108,5.30158 27.59283,5.22593 9.82363,-0.3031 18.44081,-2.9741 12.80282,-3.96839 -0.99155,-0.17486 -3.15282,-0.92582 -4.80282,-1.66879 -1.65,-0.74298 -6.15,-2.11976 -10,-3.05953 -3.85,-0.93976 -8.575,-2.28193 -10.5,-2.98258 -1.925,-0.70066 -6.2,-1.81391 -9.5,-2.4739 -3.3,-0.65999 -8.86572,-2.53494 -12.36826,-4.16654 -5.02405,-2.34038 -7.16595,-2.83179 -10.14737,-2.32808 -2.40076,0.40561 -4.03635,0.22228 -4.48437,-0.50264 -0.44677,-0.72289 -2.08087,-0.90871 -4.45861,-0.50699 -3.64087,0.61512 -3.93673,0.42991 -9.8714,-6.17944 -3.36492,-3.74747 -7.10274,-8.83857 -8.30627,-11.31357 -1.20352,-2.475 -2.73499,-5.625 -3.40327,-7 -0.66828,-1.375 -1.52195,-5.0419 -1.89705,-8.14868 -0.46415,-3.84437 -1.34598,-6.24002 -2.76071,-7.5 -1.1433,-1.01822 -2.69765,-3.31382 -3.45413,-5.10132 -0.87472,-2.06693 -2.07708,-3.25 -3.30296,-3.25 -1.06016,0 -2.18156,-0.41098 -2.49201,-0.91329 -0.33109,-0.53572 -11.00077,-0.68596 -25.80901,-0.36341 -13.88452,0.30243 -42.33879,0.60284 -63.23171,0.66758 -34.3527,0.10645 -38.01735,0.2746 -38.30292,1.75748 -0.24942,1.29509 -2.45913,1.88708 -10.51287,2.81641 -5.60839,0.64715 -13.34708,1.54104 -17.19708,1.98641 -10.42426,1.20589 -37.21219,1.25015 -43.5,0.0719 -8.79075,-1.64731 -27.06554,-2.01583 -27.62532,-0.55708 -0.31869,0.8305 -3.28151,1.25108 -9.17271,1.30208 -4.78608,0.0414 -9.99144,0.56919 -11.56747,1.1728 -1.57602,0.6036 -7.87602,1.36477 -14,1.69147 -6.12397,0.32671 -11.52683,0.95792 -12.00636,1.4027 -0.47952,0.44477 -1.5035,0.56629 -2.27552,0.27004 -1.07555,-0.41273 -1.13532,-0.86197 -0.2557,-1.92185 0.68344,-0.8235 0.74332,-1.38322 0.14797,-1.38322 -0.55,0 -1.57788,0.6963 -2.28417,1.54733 -0.84721,1.02082 -1.50924,1.18318 -1.9456,0.47714 -0.45433,-0.73513 -1.80255,-0.59341 -4.30615,0.45266 -2.0046,0.83758 -5.45919,1.52287 -7.67685,1.52287 -4.05555,0 -5.54166,1.4945 -2.28212,2.295 3.18668,0.7826 121.3026,-0.78676 131.25,-1.74387 3.025,-0.29106 13.825,-0.78496 24,-1.09756 10.175,-0.31259 19.75501,-0.70757 21.28892,-0.87772 1.71932,-0.19072 2.64679,0.11893 2.41834,0.80739 -0.20382,0.61422 -1.68384,1.20487 -3.28892,1.31256 -1.60509,0.10769 -6.96834,0.6706 -11.91834,1.25091 -13.9736,1.63819 -27.1981,2.90051 -36.5,3.48404 -11.78446,0.73926 -18.89189,1.43943 -23,2.26579 -1.925,0.38722 -4.175,0.727 -5,0.75507 -2.76981,0.0942 -1.1837,2.03918 2.42592,2.97476 3.94627,1.02283 4.62886,2.93876 1.6206,4.54874 -1.60118,0.85692 -2.63818,0.4578 -5.75,-2.21307 -2.08809,-1.7922 -4.16153,-3.83102 -4.60764,-4.53072 -0.63938,-1.00281 -1.4258,-0.90908 -3.71412,0.44266 -1.59664,0.94316 -3.03164,2.34568 -3.18888,3.11671 -0.40521,1.98701 -7.54182,4.2526 -10.20555,3.23985 -3.50366,-1.33209 -5.06417,-3.74262 -3.58033,-5.53054 1.00795,-1.21451 0.97247,-1.5 -0.18643,-1.5 -2.75532,0 -5.15382,2.59088 -4.54693,4.91163 0.81717,3.12488 -1.6748,3.75733 -6.10753,1.55006 -2.01251,-1.00212 -3.97065,-1.74961 -4.35142,-1.66109 -0.38077,0.0885 -2.07804,-1.2248 -3.77173,-2.91848 -2.11456,-2.11457 -3.62092,-2.86529 -4.80769,-2.39601 -0.95055,0.37588 -7.35327,0.59658 -14.22827,0.49045 -15.46838,-0.23879 -13.64183,-0.23909 -25.1433,0.004 -5.8218,0.1231 -10.50596,-0.25778 -11.82016,-0.96111 -1.46247,-0.78269 -7.81484,-1.09629 -19.3567,-0.95559 -9.44891,0.11518 -17.74234,0.14791 -18.42984,0.0727 -2.32076,-0.2538 -1.27124,-2.1367 1.19098,-2.1367 2.59773,0 4.21166,-1.47861 2.6604,-2.43734 -0.51218,-0.31655 -3.78202,-0.85943 -7.26631,-1.2064 -3.48429,-0.34697 -6.79314,-0.98751 -7.35301,-1.42341 -1.03382,-0.80492 -18.01747,-0.54822 -37.98206,0.57407 -6.05,0.3401 -15.05,0.83583 -20,1.10164 -8.96164,0.48123 -39.55677,1.15549 -59.45,1.31018 -6.26656,0.0487 -10.06969,0.44332 -9.5,0.98566 1.8587,1.76948 41.73764,2.95118 73.95,2.19131 2.75,-0.0649 7.025,-0.0505 9.5,0.0319 5.474,0.18228 25.95701,0.11744 35.35861,-0.11193 5.23713,-0.12777 6.75616,0.14001 6.42527,1.13267 -0.23833,0.71499 -2.1997,1.43166 -4.3586,1.59259 -2.15891,0.16093 -8.87528,0.68375 -14.92528,1.16181 -10.84513,0.85698 -68.97918,0.53717 -70.47565,-0.3877 -0.42342,-0.26169 -4.41845,-0.76901 -8.87785,-1.12739 -6.9609,-0.5594 -8.19659,-0.4207 -8.73424,0.98038 -0.75214,1.96007 -6.9878,2.26728 -7.7528,0.38196 -0.40138,-0.9892 -0.69691,-0.98106 -1.41647,0.039 -0.65531,0.92901 -5.49457,1.41559 -17.32613,1.74212 -9.02927,0.2492 -22.71686,0.70763 -30.41686,1.01874 -7.7,0.3111 -24.575,0.47473 -37.5,0.36361 -12.925,-0.11112 -27.1,-0.16281 -31.5,-0.11488 -93.03386,1.01356 -134.004069,0.74395 -136.662918,-0.89931 -2.921675,-1.80569 1.091247,-2.34149 14.977185,-1.99973 19.567694,0.4816 28.20931,0.41827 50.185733,-0.3678 20.19681,-0.72242 34.93159,-1.10827 77.5,-2.02945 15.4,-0.33326 35.2,-0.8253 44,-1.09342 8.8,-0.26812 20.9961,-0.51471 27.10244,-0.54799 10.68575,-0.0582 14.73871,-0.85311 13.03526,-2.55655 -0.7284,-0.7284 -32.26479,-0.75079 -139.6377,-0.0991 -20.075,0.12184 -42.125,-0.13551 -49,-0.5719 -11.431654,-0.72561 -14.92093,-0.83501 -21.898887,-0.6866 -1.319388,0.0281 -2.935792,-0.39457 -3.59201,-0.93918 -0.656217,-0.54462 -1.452758,-0.73057 -1.770092,-0.41324 -0.317334,0.31734 -1.105118,-0.40988 -1.750631,-1.61603 -0.857895,-1.60299 -0.875904,-2.49077 -0.06694,-3.29974 1.481149,-1.48114 16.680903,-2.43976 21.078555,-1.32938 1.925,0.48605 6.425,0.58172 10,0.2126 17.645105,-1.82189 17.788105,-1.82359 20.050625,-0.23886 1.57885,1.10587 3.68452,1.41124 7.33216,1.06334 6.59322,-0.62884 21.39043,-2.4247 24.61721,-2.98767 1.375,-0.23989 9.475,-0.67784 18,-0.97323 16.54381,-0.57324 18.4794,-0.84064 17.50437,-2.41829 C 179.16205,239.45318 175.33508,239 171,239 c -4.33508,0 -8.1611,-0.45165 -8.50227,-1.00367 -0.34116,-0.55202 -1.60522,-0.77545 -2.80902,-0.49652 -2.187,0.50675 -31.07271,-0.91882 -37.68871,-1.86002 -1.925,-0.27385 -14.24356,-0.76385 -27.374579,-1.08888 -13.131019,-0.32503 -24.557434,-0.97311 -25.392034,-1.44018 -0.834599,-0.46706 -2.374117,-0.62518 -3.42115,-0.35138 -1.141914,0.29862 -2.479061,-0.25391 -3.341533,-1.38076 -1.387981,-1.81345 -1.459785,-1.80058 -2.070901,0.37141 -0.600151,2.13302 -1.159924,2.25616 -10.766434,2.36842 -5.573353,0.0651 -10.503329,0.0543 -10.955503,-0.024 -0.452173,-0.0784 -3.489673,-0.18002 -6.75,-0.22591 C 27.643234,233.80815 26,233.40876 26,232.42769 c 0,-3.36824 11.147579,-4.70703 12.985999,-1.55958 0.873781,1.49595 0.955717,1.49193 0.983592,-0.0483 0.02511,-1.38737 0.550905,-1.53092 3.016924,-0.82368 1.642584,0.47109 3.218129,0.48177 3.501211,0.0237 0.402949,-0.65199 28.607578,-1.57793 33.012274,-1.08378 0.55,0.0617 4.825,0.55606 9.5,1.09858 11.55851,1.34133 26.53268,2.02921 51.5,2.36578 11.55,0.1557 21.675,0.54852 22.5,0.87293 0.825,0.32441 3.075,0.80402 5,1.0658 1.925,0.26178 5.3,0.92029 7.5,1.46334 11.02624,2.72177 10.51485,2.85799 16.01179,-4.2653 2.74352,-3.55522 5.54034,-6.4805 6.21516,-6.50062 0.67482,-0.0201 1.98977,-1.2008 2.9221,-2.62373 1.62633,-2.48209 20.77377,-15.89855 28.22989,-19.78047 1.97294,-1.02718 6.21845,-2.00266 9.43446,-2.16772 3.56663,-0.18307 6.53018,-0.91812 7.5981,-1.88458 0.96294,-0.87145 1.96654,-1.36871 2.23023,-1.10503 1.2061,1.2061 14.16588,2.35015 15.71777,1.38752 1.1978,-0.74299 2.94468,-0.45697 6.47341,1.05991 2.65809,1.14263 5.80809,2.09182 7,2.10931 1.1919,0.0175 3.0406,0.6925 4.10822,1.5 1.06762,0.80751 2.72065,1.4682 3.6734,1.4682 0.95275,0 3.79564,1.575 6.31753,3.5 2.52188,1.925 4.96134,3.5 5.421,3.5 1.453,0 12.40813,10.06679 16.36965,15.04225 4.41339,5.54298 6.77729,10.69494 6.77729,14.77064 0,5.84687 1.55859,6.23614 23.08038,5.76456 23.5218,-0.51541 33.13665,-1.33651 38.41962,-3.28098 2.2,-0.80975 6.025,-1.89304 8.5,-2.40732 2.475,-0.51428 5.4,-1.12854 6.5,-1.36502 1.1,-0.23648 3.8,-0.71203 6,-1.05678 2.2,-0.34475 5.02159,-1.12184 6.27021,-1.72687 1.67069,-0.80956 2.57311,-0.79716 3.41721,0.0469 0.86269,0.86269 0.7957,1.24866 -0.2702,1.55706 -24.76023,7.16392 -27.00386,8.55816 -14.16722,8.80386 4.2625,0.0816 12.47333,0.26464 18.24629,0.40679 5.77297,0.14216 10.94797,-0.0215 11.5,-0.36365 0.55204,-0.34216 2.80371,-0.70957 5.00371,-0.81647 2.2,-0.1069 9.85,-0.61133 17,-1.12095 7.15,-0.50963 16.375,-0.84706 20.5,-0.74986 4.125,0.0972 9.075,-0.31503 11,-0.91608 1.925,-0.60105 4.9625,-0.97551 6.75,-0.83213 4.98478,0.39982 5.40245,0.36896 10.75,-0.79437 4.42837,-0.96337 8.34818,-1.52576 24,-3.44338 2.2,-0.26954 8.275,-0.87092 13.5,-1.33641 5.225,-0.46549 9.95,-1.00524 10.5,-1.19945 1.50968,-0.53307 15.44687,1.12263 15.92205,1.8915 0.22778,0.36855 3.9385,0.53344 8.24605,0.36641 4.30754,-0.16702 8.7319,-0.33024 9.8319,-0.36271 1.1,-0.0325 6.95,-0.49063 13,-1.01814 6.05,-0.52752 15.725,-1.18708 21.5,-1.46569 5.775,-0.27861 12.3,-0.97929 14.5,-1.55707 2.2,-0.57779 13.14026,-1.218 24.31169,-1.4227 11.17142,-0.20471 20.75285,-0.64485 21.29205,-0.9781 0.53921,-0.33324 19.45579,-0.7703 42.03684,-0.97122 38.21111,-0.34001 50.43261,-1.12944 53.11757,-3.43106 0.41699,-0.35745 -0.14948,-4.19876 -1.25882,-8.53624 -1.18679,-4.64028 -1.76987,-9.20354 -1.41662,-11.08654 0.3302,-1.76013 0.12014,-4.09754 -0.46681,-5.19426 -0.58695,-1.09672 -1.10955,-3.2816 -1.16134,-4.8553 -0.19107,-5.80602 1.89845,-21.07369 3.36424,-24.58183 1.59854,-3.82584 4.62288,-6.12278 6.90746,-5.2461 1.49659,0.5743 13.77374,23.7173 13.77374,25.96417 0,4.07711 4.35647,2.25283 5.46506,-2.28852 0.36372,-1.48994 1.77879,-4.33836 3.14461,-6.32982 1.55364,-2.26531 2.58297,-5.31253 2.74951,-8.13965 0.1464,-2.48535 1.05432,-5.72165 2.01759,-7.19178 3.18759,-4.86488 14.04689,-15.22314 18.87323,-18.00244 2.6125,-1.50443 4.75,-3.16554 4.75,-3.69134 0,-0.5258 1.53377,-1.59685 3.40838,-2.38012 1.87461,-0.78326 3.56211,-1.84247 3.75,-2.3538 C 834.51024,143.16249 849.1982,136 850.80996,136 c 0.49634,0 2.96515,-1.575 5.48625,-3.5 2.52109,-1.925 4.87884,-3.5 5.23943,-3.5 0.36059,0 1.85009,-0.84405 3.30999,-1.87566 3.39881,-2.40171 8.60412,-3.53166 10.74639,-2.33278 1.6043,0.89781 15.60835,-1.56129 18.27433,-3.20896 0.61383,-0.37937 3.03252,-0.8564 5.37486,-1.06006 2.34233,-0.20366 6.05879,-0.84381 8.25879,-1.42256 6.63771,-1.74616 16.02036,-1.36227 19.57761,0.80102 2.3991,1.45898 3.82955,1.69922 6.1519,1.03318 1.8955,-0.54363 3.75739,-0.47637 4.98386,0.18001 1.07686,0.57632 2.20609,0.79969 2.5094,0.49638 0.30331,-0.30332 1.72727,0.262 3.16435,1.25625 4.15976,2.87795 16.44835,6.66192 18.1731,5.59596 0.49331,-0.30488 2.27965,0.46796 3.96964,1.71742 2.65315,1.96156 4.33355,2.28067 12.30658,2.33703 10.49189,0.0742 13.95547,1.65131 15.51986,7.06695 0.49,1.6963 2.29779,5.02631 4.01731,7.40004 1.71951,2.37372 3.12639,4.88334 3.12639,5.57692 0,1.78859 5.7906,6.43886 8.0177,6.43886 1.0254,0 2.1649,0.48646 2.5324,1.08103 0.3674,0.59456 1.6315,0.86232 2.809,0.595 2.7801,-0.63112 5.1409,0.43188 5.1409,2.3148 0,0.81996 1.6999,2.59085 3.7775,3.93532 2.1165,1.36963 4.058,3.57217 4.4156,5.00916 0.351,1.41058 1.1847,3.01469 1.8526,3.56469 0.6679,0.55 1.505,2.24948 1.8601,3.77663 0.3551,1.52714 1.7696,5.23389 3.1434,8.23721 1.3737,3.00332 2.9366,7.77468 3.473,10.60302 0.5363,2.82835 1.4753,6.81161 2.0865,8.85169 l 1.1113,3.70924 12.14,1.13712 c 6.677,0.62541 15.515,0.9825 19.64,0.79353 5.2636,-0.24113 7.9629,0.0571 9.0525,1.00026 2.0384,1.76443 12.2952,0.73987 11.5679,-1.15552 -0.7764,-2.02335 3.3416,-2.49118 5.2377,-0.59504 1.6568,1.65675 8.6267,1.89527 25.0467,0.85713 3.537,-0.22363 4.6563,0.84773 3.2329,3.09459 -0.8437,1.33189 -5.9357,1.56458 -57.1377,2.61106 -10.9253,0.22329 -20.7673,0.88915 -22.382,1.51424 -2.8086,1.0873 -2.8359,1.16658 -1.0725,3.11514 1.5069,1.66506 2.9923,1.98077 8.882,1.88774 7.4023,-0.11691 17.8118,0.52995 25.7585,1.60065 3.7635,0.50709 4.5841,0.95913 4.1683,2.29634 -0.4815,1.54911 -0.422,1.54965 0.8564,0.008 0.7557,-0.91143 2.4799,-1.64569 3.8316,-1.63169 6.692,0.0693 32.0209,-0.0451 36.0842,-0.16292 3.4682,-0.1006 4.7857,0.28051 5.2622,1.52223 0.4152,1.08212 1.3447,1.471 2.6807,1.12162 1.4888,-0.38934 2.3458,0.12499 3.1503,1.89077 0.6079,1.33407 0.7719,2.75888 0.3645,3.16625 -0.8188,0.81881 -6.2797,0.75789 -20.5842,-0.22963 -15.1815,-1.04806 -22.9808,-1.17246 -31,-0.49444 -4.125,0.34877 -8.9024,0.32176 -10.6164,-0.06 -1.7139,-0.38177 -3.7389,-0.35404 -4.5,0.0616 -0.761,0.41567 -4.2279,0.31877 -7.7042,-0.21534 -3.4764,-0.53411 -7.0764,-0.64325 -8,-0.24254 -0.9237,0.40071 -2.635,0.63691 -3.803,0.52489 -3.6543,-0.35051 -5.4059,2.41165 -4.717,7.43836 0.3692,2.69362 0.1698,4.96886 -0.5071,5.78444 -0.8594,1.03554 -0.4882,1.90721 1.616,3.79449 l 2.7317,2.45012 23,-0.23454 c 25.3517,-0.25853 26.0044,-0.26031 34.25,-0.0937 3.1625,0.0639 8.225,-0.21275 11.25,-0.61475 3.025,-0.40201 7.3,-0.86021 9.5,-1.01822 2.2,-0.158 5.1584,-0.61154 6.5742,-1.00786 3.2386,-0.90655 5.1956,1.19451 4.7481,5.09752 L 1139.5,258.5 l -11,0.18065 c -11.5432,0.18957 -17.9969,0.23034 -23,0.14532 -7.4157,-0.12601 -24.5577,1.4583 -25.0895,2.31885 -0.3671,0.59395 -1.0505,0.56894 -1.8161,-0.0665 -1.7071,-1.4168 -19.2718,-2.32139 -21.5368,-1.10916 -1.0093,0.54014 -3.1906,1.08536 -4.8474,1.2116 -2.6286,0.2003 -3.2968,0.91607 -5.2464,5.61992 l -2.2342,5.39039 2.9905,2.99052 c 1.9586,1.95864 4.3344,3.15916 6.8852,3.47927 6.2467,0.78392 13.4802,1.43017 19.3947,1.73272 3.025,0.15475 6.85,0.79905 8.5,1.43177 9.4655,3.62976 29.7042,6.25597 46.0101,5.97038 6.6055,-0.11569 12.568,0.13449 13.25,0.55596 0.6819,0.42147 1.233,1.97725 1.2246,3.45729 -0.031,5.50568 0,5.49808 -23.2226,5.27202 -28.1039,-0.27354 -30.3955,-0.43931 -32.5086,-2.35158 -2.4034,-2.17507 -7.1526,-2.90559 -11.2499,-1.73048 -2.4657,0.70715 -4.9753,0.54112 -9.4316,-0.62397 -6.3256,-1.6538 -20.3779,-2.49803 -21.137,-1.26986 -0.8139,1.31689 -4.5551,-0.35878 -6.1144,-2.73862 C 1038.1954,286.6493 1036.8413,286 1034.385,286 c -3.9504,0 -4.5295,-1.99617 -1.217,-4.19556 l 2.168,-1.4395 -2.796,-7.6663 c -3.0466,-8.35307 -4.5781,-10.29401 -7.2773,-9.22287 -0.9695,0.38473 -4.4512,0.92329 -7.7371,1.1968 -3.286,0.2735 -6.7477,0.91113 -7.6929,1.41695 -1.1032,0.59043 -2.6408,0.49942 -4.2948,-0.25422 -1.8696,-0.85184 -4.2859,-0.90238 -8.80718,-0.18423 -6.30292,1.00113 -10.58395,0.99723 -38.97173,-0.0355 -15.5137,-0.56438 -15.76226,-0.54021 -17.21297,1.67386 -1.29723,1.97981 -1.29439,2.76195 0.024,6.58846 0.82276,2.38807 2.61525,5.80946 3.98332,7.60309 2.60453,3.41472 5.86429,4.47078 15.57779,5.04676 2.5471,0.15103 5.51286,0.74652 6.59057,1.32329 1.07772,0.57678 2.81874,1.06552 3.86892,1.08609 4.48532,0.0879 11.44053,1.01584 18.90943,2.52292 4.4,0.88784 9.35,1.79135 10.99995,2.00781 1.65,0.21646 5.025,0.89544 7.5,1.50884 3.8014,0.94215 26.9374,4.47307 43,6.5625 7.072,0.91993 7.7828,1.05123 20.8904,3.85912 6.8147,1.45984 12.5793,2.46531 12.8102,2.23438 0.231,-0.23093 2.6742,0.17478 5.4293,0.90159 2.7552,0.7268 8.0156,1.61426 11.6898,1.97213 3.6742,0.35786 10.5053,1.2779 15.1803,2.04452 4.675,0.76662 12.0362,1.58998 16.3582,1.82967 4.322,0.2397 8.337,0.91464 8.9223,1.49986 1.6234,1.62345 0.9344,12.39425 -0.8812,13.77354 -0.9898,0.75194 -1.1497,1.38221 -0.4591,1.80902 0.5829,0.36026 1.0598,2.20346 1.0598,4.096 0,3.06297 -0.3021,3.45193 -2.75,3.54066 l -2.75,0.0997 2.4947,0.69417 c 3.2344,0.89996 3.7244,3.71211 1.1284,6.47547 -2.0398,2.17124 -2.0406,2.20143 -0.091,3.41926 2.178,1.36024 2.6813,4.25797 0.7174,4.13079 -0.6875,-0.0445 -3.05,-0.93272 -5.25,-1.97377 z M 1110,334.55902 c 0,-0.24254 -0.45,-0.7191 -1,-1.05902 -0.55,-0.33992 -1,-0.14148 -1,0.44098 0,0.58246 0.45,1.05902 1,1.05902 0.55,0 1,-0.19844 1,-0.44098 z m -57,-6.04959 c 0,-0.77553 -0.7838,-1.84866 -1.7417,-2.38474 -0.9579,-0.53608 -1.4188,-1.29756 -1.0241,-1.69219 0.3946,-0.39462 1.3068,-0.22838 2.0272,0.36944 1.4782,1.22687 16.4311,1.50456 17.164,0.31876 0.2611,-0.4225 -1.7199,-1.33065 -4.4022,-2.01811 -4.4596,-1.14297 -8.0739,-1.58292 -21.0232,-2.55903 -3.9852,-0.30041 -4.5113,-0.61983 -4.5989,-2.79233 -0.054,-1.34922 -0.3942,-2.93104 -0.7552,-3.51516 -0.8505,-1.3762 -7.1307,-2.41709 -17.1459,-2.84179 -8.5726,-0.36353 -11.9527,-0.71662 -17.5482,-1.83314 -3.96244,-0.79066 -48.15531,-1.42894 -51.74361,-0.74734 -4.791,0.91007 -1.20377,2.72964 7.53462,3.82185 9.43461,1.17922 17.6013,2.79315 22.75719,4.49735 12.78704,4.22656 21.7458,6.71692 26,7.22752 29.9206,3.59116 37.7876,4.59297 38.0434,4.84462 0.1649,0.16217 1.6851,0.38924 3.3782,0.5046 2.0816,0.14183 3.0784,-0.24685 3.0784,-1.20031 z m 35,-7.49038 c 0,-1.24126 -3.4162,-1.94814 -8.2471,-1.70649 -3.7508,0.18763 -4.8509,1.07772 -2.5029,2.02516 2.2957,0.92635 10.75,0.67573 10.75,-0.31867 z M 881.81025,306.38168 c -0.8916,-0.8916 -2.15843,-1.28453 -2.82105,-0.875 -1.40014,0.86533 0.50502,2.45218 2.97509,2.47801 1.22091,0.0128 1.19531,-0.25366 -0.15404,-1.60301 z M 927.75,301.03084 c 0.1375,-0.017 0.25,-0.65941 0.25,-1.42767 0,-1.51569 -4.56247,-1.94349 -17.85013,-1.67371 C 902.16163,298.09164 900,297.13219 900,293.42435 c 0,-1.79422 1.01648,-2.7804 4.41566,-4.28402 2.42861,-1.07429 5.16204,-3.09238 6.07428,-4.48464 1.56135,-2.38291 1.54026,-2.799 -0.3596,-7.09394 l -2.01823,-4.56255 -15.1878,0.5135 c -10.6668,0.36065 -15.60041,0.17107 -16.57392,-0.63686 -0.8826,-0.7325 -3.55915,-0.95333 -7.36825,-0.60794 C 865.679,272.56742 863,272.40498 863,271.90517 863,271.40733 862.12929,271 861.0651,271 c -1.0642,0 -3.2017,-0.50518 -4.75,-1.12262 -1.54831,-0.61744 -3.9401,-1.24359 -5.3151,-1.39144 -4.13224,-0.44433 -11.33444,-2.51861 -12.71063,-3.66075 C 837.58022,264.23665 837,264.12521 837,264.57756 c 0,0.45234 -0.54,0.28244 -1.2,-0.37756 -0.66,-0.66 -1.94026,-1.2 -2.84501,-1.2 -0.90476,0 -2.41064,-0.84601 -3.34641,-1.88002 -1.13258,-1.25148 -3.51947,-2.03079 -7.13949,-2.33099 -6.35869,-0.52731 -8.9212,-2.41963 -11.56314,-8.53899 -1.99866,-4.62936 -4.21721,-5.75078 -3.49472,-1.7665 0.24769,1.36593 0.74262,2.95642 1.09985,3.53443 1.06762,1.72744 2.69441,13.98776 2.84671,21.45418 l 0.14221,6.97212 4.39006,0.74965 c 2.41453,0.41231 5.11453,1.36893 6,2.12583 1.7514,1.49709 9.40103,3.71543 12.60994,3.65678 2.11369,-0.0386 3.65464,0.19054 18,2.67687 9.39219,1.62786 10.21942,1.74672 20,2.87371 3.3,0.38025 7.72209,1.24546 9.82687,1.9227 2.79448,0.89915 4.87259,0.95221 7.70311,0.1967 4.22887,-1.12874 8.24624,0.21459 10.77672,3.60353 0.79487,1.06453 2.63232,1.75 4.69099,1.75 1.86135,0 3.69538,0.50338 4.07562,1.11862 0.5513,0.89203 10.62755,0.84336 18.17669,-0.0878 z m 57.25,-43.087 c 2.475,0.0536 6.03997,-0.35263 7.92216,-0.90275 2.2745,-0.66479 3.82495,-0.66593 4.62325,-0.003 0.6606,0.54825 1.88785,0.73328 2.72719,0.41119 0.8394,-0.3221 6.709,-0.66736 13.0436,-0.76726 6.3347,-0.0999 11.8196,-0.48375 12.1887,-0.85301 0.3692,-0.36926 -0.2324,-1.94426 -1.3367,-3.5 -2.2756,-3.20567 -4.4255,-12.35454 -3.6758,-15.64222 0.3267,-1.4325 -0.3703,-3.16367 -2.0214,-5.02063 -2.3602,-2.65455 -2.9147,-2.80687 -8.7455,-2.40242 -8.1461,0.56503 -10.72517,1.29269 -12.24575,3.45498 -0.68911,0.97993 -3.75302,3.58168 -6.80869,5.78168 -3.05567,2.2 -6.02169,5.01168 -6.59114,6.24818 C 982.99034,247.11405 973.06107,254 970.73917,254 c -2.34066,0 -5.10949,2.59179 -4.25165,3.9798 0.59101,0.95628 2.47702,1.10275 7.40277,0.57489 3.63534,-0.38957 8.63471,-0.66445 11.10971,-0.61085 z M 446.45729,253.9309 C 445.7102,252.72208 442,252.71857 442,253.92668 c 0,1.01295 3.03759,1.95869 4.26631,1.32829 0.42147,-0.21624 0.50742,-0.81207 0.19098,-1.32407 z M 463,253.99388 c 1.0522,-0.68428 -0.37243,-0.93908 -4.77208,-0.85348 -3.44964,0.0671 -6.5137,0.51298 -6.80901,0.99081 -0.73895,1.19564 9.72217,1.07158 11.58109,-0.13733 z M 89,250.55902 c 0,-0.24254 -0.45,-0.7191 -1,-1.05902 -0.55,-0.33992 -1,-0.14148 -1,0.44098 0,0.58246 0.45,1.05902 1,1.05902 0.55,0 1,-0.19844 1,-0.44098 z m 10.447214,-1.64443 c -0.321976,-0.52097 -1.011657,-0.68378 -1.532624,-0.3618 -0.520968,0.32197 -0.683779,1.01165 -0.361804,1.53262 0.321976,0.52097 1.011657,0.68378 1.532624,0.3618 0.520968,-0.32197 0.683779,-1.01165 0.361804,-1.53262 z M 239.5,247.52738 c 9.35,0.0151 23.3,0.0734 31,0.12958 7.7,0.0562 15.575,0.11096 17.5,0.12167 1.925,0.0107 7.1,0.22934 11.5,0.48585 12.30215,0.71718 17.64036,-1.60757 14.65782,-6.38338 C 313.52102,240.86142 313,239.17613 313,238.13601 c 0,-1.04011 -0.72066,-2.48922 -1.60147,-3.22022 -0.8808,-0.731 -3.11345,-3.69272 -4.96144,-6.58159 -2.37673,-3.71543 -5.49516,-6.66647 -10.65635,-10.08435 -4.013,-2.65752 -8.70494,-5.87327 -10.42654,-7.1461 -1.7216,-1.27283 -5.54308,-2.91425 -8.49219,-3.64759 -2.9491,-0.73334 -7.29503,-2.04083 -9.6576,-2.90554 -3.27698,-1.19938 -4.78421,-1.31069 -6.35614,-0.46942 -1.50343,0.80462 -3.25568,0.80184 -6.48082,-0.0103 -3.04307,-0.76625 -5.01469,-0.79491 -6.32812,-0.092 -1.04932,0.56158 -3.39993,1.02675 -5.22359,1.03372 -3.27917,0.0125 -8.66024,2.43888 -20.31574,9.16049 -11.41714,6.58414 -14.30566,8.7419 -22.42032,16.74822 l -8.15026,8.04145 1.56097,3.01859 c 1.15904,2.24132 2.26489,3.01858 4.29474,3.01858 1.65924,0 3.22932,0.7935 3.99452,2.01876 1.18184,1.89243 1.86964,1.97066 10.99054,1.25 5.3514,-0.42282 17.37981,-0.75644 26.72981,-0.74138 z M 177,247 c 0,-0.55 -0.47656,-1 -1.05902,-1 -0.58246,0 -0.7809,0.45 -0.44098,1 0.33992,0.55 0.81648,1 1.05902,1 0.24254,0 0.44098,-0.45 0.44098,-1 z m 6.74986,-2.58347 c -0.95295,-0.95296 -2.86349,0.5906 -2.1533,1.7397 0.42212,0.683 0.98146,0.66575 1.69964,-0.0524 0.58876,-0.58876 0.79291,-1.34803 0.45366,-1.68727 z M 634.25,240.56619 c 1.5125,-0.1739 3.22656,-0.37244 3.80902,-0.44119 0.58246,-0.0687 0.82657,-0.50111 0.54246,-0.96079 -0.49101,-0.79448 -10.63217,-0.49167 -13.41486,0.40055 -2.7202,0.87219 0.0958,2.61795 3.1818,1.97255 1.72237,-0.36021 4.36908,-0.79721 5.88158,-0.97112 z M 866,230 c 0,-0.55 -0.19844,-1 -0.44098,-1 -0.24254,0 -0.7191,0.45 -1.05902,1 -0.33992,0.55 -0.14148,1 0.44098,1 0.58246,0 1.05902,-0.45 1.05902,-1 z m 229,0 c 0,-0.55 -0.4234,-1 -0.941,-1 -0.5175,0 -1.2191,0.45 -1.559,1 -0.3399,0.55 0.083,1 0.941,1 0.8574,0 1.559,-0.45 1.559,-1 z m -252,-8.5 c 0,-0.825 -0.40186,-1.5 -0.89301,-1.5 -0.49116,0 -1.15203,0.675 -1.46862,1.5 -0.35062,0.91371 -0.002,1.5 0.89301,1.5 0.80774,0 1.46862,-0.675 1.46862,-1.5 z m 271.5,-6.5 c -0.3399,-0.55 -1.0415,-1 -1.559,-1 -0.5176,0 -0.941,0.45 -0.941,1 0,0.55 0.7016,1 1.559,1 0.8575,0 1.2809,-0.45 0.941,-1 z m -99.2336,-0.59977 c 0.6199,-0.61985 -0.9457,-4.94171 -2.5945,-7.16256 -1.5188,-2.04561 -3.6719,0.52552 -3.6719,4.38477 0,3.04203 0.2815,3.37756 2.8333,3.37756 1.5584,0 3.1033,-0.2699 3.4331,-0.59977 z M 824,212 c 0,-0.55 -0.19844,-1 -0.44098,-1 -0.24254,0 -0.7191,0.45 -1.05902,1 -0.33992,0.55 -0.14148,1 0.44098,1 0.58246,0 1.05902,-0.45 1.05902,-1 z m 104,-17.44098 c 0,-0.24254 -0.45,-0.7191 -1,-1.05902 -0.55,-0.33992 -1,-0.14148 -1,0.44098 0,0.58246 0.45,1.05902 1,1.05902 0.55,0 1,-0.19844 1,-0.44098 z M 163,320.5 c 0,-0.825 0.45,-1.5 1,-1.5 0.55,0 1,0.675 1,1.5 0,0.825 -0.45,1.5 -1,1.5 -0.55,0 -1,-0.675 -1,-1.5 z m 4,-4.5 c 0,-0.55 0.45,-1 1,-1 0.55,0 1,0.45 1,1 0,0.55 -0.45,1 -1,1 -0.55,0 -1,-0.45 -1,-1 z m -74.206949,-1.54028 c -0.186205,-0.18621 -2.927829,-0.44331 -6.092498,-0.57135 -7.197938,-0.2912 -14.003694,-3.12866 -13.48841,-5.62358 0.225226,-1.09051 1.11399,-1.66155 2.326172,-1.49457 1.078927,0.14862 4.886685,0.48203 8.461685,0.74092 13.46118,0.97481 18.51001,1.67511 21.70702,3.01091 3.54084,1.47946 4.39556,3.43968 1.54298,3.53869 -0.9625,0.0334 -4.53289,0.21301 -7.934197,0.39913 -3.401309,0.18612 -6.336547,0.18605 -6.522752,-1.5e-4 z M 420.5,289.22579 c -5.64338,-0.51581 -7.47573,-1.25912 -9.05842,-3.67461 -4.15425,-6.34018 6.90929,-12.3388 16.46063,-8.92491 1.97878,0.70727 5.47349,1.3057 7.766,1.32984 6.47552,0.0682 7.33179,0.70607 7.33179,5.46183 0,4.18181 -0.025,4.21022 -4.75,5.39222 -4.30019,1.07573 -9.25796,1.19182 -17.75,0.41563 z m 302.56611,-7.30046 c -2.98864,-1.0607 -5.91364,-1.85452 -6.5,-1.76404 -0.58636,0.0905 -2.3514,-0.19458 -3.92232,-0.63346 -2.66881,-0.74561 -2.81566,-1.05154 -2.23818,-4.6629 0.49881,-3.11938 0.31262,-3.86493 -0.96522,-3.86493 -0.87079,0 -2.28177,0.69853 -3.13553,1.55228 -1.05333,1.05334 -2.47708,1.34917 -4.4294,0.92037 -2.11146,-0.46376 -3.03842,-0.21155 -3.48327,0.94771 C 698.03308,275.35618 696.60691,276 694.89301,276 692.02238,276 688,278.98099 688,281.10841 c 0,1.76645 -5.2893,0.0425 -7.11819,-2.32003 -1.22435,-1.58159 -2.80638,-2.11446 -6.5,-2.18937 -3.7056,-0.0752 -5.39782,-0.64814 -7.02349,-2.37815 -1.791,-1.90596 -2.7911,-2.17529 -6.108,-1.6449 -3.51455,0.562 -4.32813,0.28057 -7.1428,-2.47086 -1.74706,-1.7078 -3.72346,-3.11878 -4.392,-3.13551 -3.17116,-0.0793 2.92566,-2.1392 7.45978,-2.52035 2.82753,-0.2377 5.35186,-0.64306 5.60962,-0.90082 1.01453,-1.01454 6.21508,2.61178 6.21508,4.33374 0,1.39093 0.72024,1.80522 2.99772,1.72432 3.52576,-0.12524 3.70454,-0.89824 1.00228,-4.33361 C 670.053,261.52636 670.43896,260 674.33333,260 c 1.83334,0 3.65035,0.31702 4.03782,0.70448 0.38746,0.38746 1.88795,0.86297 3.33443,1.05668 1.44647,0.19371 4.01696,0.90774 5.71219,1.58673 4.17378,1.67173 21.58223,0.99386 21.58223,-0.8404 0,-3.06263 5.79337,-3.27002 11.68428,-0.41828 3.31645,1.60546 4.31572,2.6474 4.31572,4.5 0,2.45158 -0.39242,2.61312 -7,2.88155 -1.375,0.0559 -2.3875,0.42279 -2.25,0.8154 0.1375,0.39261 0.25,1.12809 0.25,1.63438 0,0.5063 1.4625,1.22877 3.25,1.60548 1.7875,0.37672 4.71221,1.36361 6.49936,2.1931 3.29227,1.52807 12.25064,1.07074 12.25064,-0.62541 0,-1.56293 -3.56703,-3.73968 -6.41949,-3.91743 -3.66237,-0.22823 -4.42847,-0.92877 -1.97364,-1.80474 1.04122,-0.37155 2.65227,-1.32622 3.58012,-2.1215 1.00391,-0.86048 2.21864,-1.11511 3,-0.62886 0.72215,0.44941 2.3687,0.68063 3.65899,0.51382 1.39764,-0.18068 3.33555,0.62636 4.79392,1.99643 1.88887,1.7745 3.46037,2.25565 6.88095,2.10678 3.52797,-0.15354 4.65132,0.21498 5.50233,1.8051 1.53705,2.872 0.41116,3.95669 -4.10695,3.95669 -3.30998,0 -4.1229,0.41339 -4.91623,2.5 -0.52277,1.375 -1.52414,2.55191 -2.22525,2.61535 -0.70111,0.0634 -1.94975,0.17594 -2.77475,0.25 -0.825,0.0741 -3.13702,-0.1332 -5.13783,-0.46056 -2.21149,-0.36184 -4.564,-0.0817 -6,0.71456 -2.8705,1.59164 -2.20885,1.64384 -8.79606,-0.69402 z m -32.06692,-12.42382 c 1.61678,-3.02097 0.8843,-4.0447 -1.8478,-2.58253 -1.11095,0.59456 -2.92293,1.08102 -4.02663,1.08102 -2.98833,0 -3.58853,1.88245 -0.939,2.94507 3.80705,1.52687 5.40489,1.18833 6.81343,-1.44356 z m -55.55591,8.13492 c -1.13119,-0.81349 -3.59177,-1.87685 -5.46796,-2.36302 -2.04973,-0.53114 -3.62359,-1.66014 -3.94328,-2.82868 -2.06874,-7.56175 -12.38712,-8.69198 -10.49407,-1.14948 0.35022,1.3954 0.14578,2.78217 -0.46589,3.1602 -1.6383,1.01253 -5.07208,-0.38434 -5.07208,-2.06333 0,-0.81021 -0.96061,-2.7724 -2.13469,-4.36043 -2.83844,-3.8392 -1.90918,-5.67917 3.31506,-6.5639 8.91461,-1.5097 12.22943,-1.32445 13.9124,0.77749 1.75657,2.19387 5.90723,1.69066 5.90723,-0.71615 0,-1.40878 6.65109,-2.30382 12.75,-1.71577 2.66753,0.2572 3.25,0.73948 3.25,2.69098 0,2.68636 -1.01826,3.564 -4.58988,3.95607 -2.91622,0.32012 -4.44445,1.62263 -2.65389,2.2619 1.79442,0.64066 0.48976,2.27769 -1.81525,2.27769 -1.06754,0 -1.94098,0.45 -1.94098,1 0,1.29656 2.60697,1.28071 5.05744,-0.0307 2.65374,-1.42024 8.34514,0.16713 8.78481,2.45013 0.50424,2.61828 -0.70703,3.33579 -6.84225,4.05309 -4.07946,0.47695 -6.03121,0.26102 -7.55672,-0.83605 z m -506.66694,-1.17536 c -0.15199,-0.14205 -7.39585,-0.47092 -16.09748,-0.73081 -14.567221,-0.43508 -19.383083,-1.35937 -17.402474,-3.33998 0.353679,-0.35368 9.098674,-0.81603 19.433334,-1.02746 10.33465,-0.21142 20.36528,-0.66163 22.29028,-1.00045 6.98547,-1.22955 10.93693,-1.42305 36.5,-1.78746 14.3,-0.20385 27.88036,-0.4166 30.17857,-0.47277 2.46406,-0.0602 4.86814,-0.79171 5.85918,-1.78274 1.54278,-1.54278 1.75501,-1.54766 2.58783,-0.0595 0.7606,1.35912 2.98137,1.62928 13.74002,1.67153 7.05804,0.0277 18.5272,0.324 25.48705,0.65839 7.88861,0.37902 14.44182,0.19383 17.4008,-0.49174 C 276.35813,266.33619 400,266.35917 400,268.1225 c 0,0.48262 -1.125,0.95625 -2.5,1.0525 -4.44546,0.31118 -7.90599,0.69583 -12.5,1.38941 -4.82088,0.72784 -16.22695,1.12004 -35.5,1.22067 -6.6,0.0345 -28.425,0.17543 -48.5,0.31326 -20.075,0.13783 -38.3,0.1638 -40.5,0.0577 -5.38506,-0.2597 -5.32255,-0.26043 -19,0.2223 -6.6,0.23294 -21.675,0.7101 -33.5,1.06035 -11.825,0.35024 -22.32281,0.88636 -23.32847,1.19135 -1.00566,0.305 -9.10566,0.6967 -18,0.87044 -8.89434,0.17374 -20.99718,0.51906 -26.89519,0.76738 -5.89801,0.24832 -10.84801,0.33526 -11,0.19321 z m 638.55263,-1.16905 c -1.74407,-0.86904 -3.38944,-2.41526 -3.65638,-3.43605 C 763.40565,270.83519 762.42708,270 761.49799,270 758.5273,270 754,266.04568 754,263.45096 c 0,-4.28961 4.4148,-4.36944 12.02654,-0.21748 4.80598,2.62151 7.30931,3.42498 9.41622,3.02221 2.07504,-0.39667 3.24203,-0.0397 4.21356,1.28898 2.42916,3.32208 1.60942,5.43249 -2.90632,7.48226 -5.04781,2.29129 -5.33827,2.29946 -9.42103,0.26509 z M 471.74993,268.4166 c -0.32673,-0.32674 -3.55413,-0.61364 -7.17199,-0.63757 -3.61787,-0.0239 -6.57794,-0.434 -6.57794,-0.91127 0,-0.85001 6.04601,-1.43537 11,-1.065 5.60748,0.41923 16.68485,1.0626 19.41667,1.12772 1.60416,0.0382 2.64877,0.33741 2.32135,0.66483 -0.81092,0.81093 -18.24441,1.56497 -18.98809,0.82129 z M 41.986345,264.75 c -0.0075,-0.6875 -0.286743,-2.26919 -0.620518,-3.51486 -0.459389,-1.71448 -0.253563,-2.12929 0.846988,-1.70697 1.521617,0.5839 2.08615,6.47183 0.620518,6.47183 -0.458333,0 -0.839478,-0.5625 -0.846988,-1.25 z M 586.6025,264.40652 c -0.91419,-2.38233 -0.20029,-2.77524 5.16936,-2.84505 4.08196,-0.0531 4.72814,0.21186 4.72814,1.93853 0,1.66845 -0.76655,2.04967 -4.62396,2.29964 -3.60345,0.23352 -4.76733,-0.074 -5.27354,-1.39312 z M 40.442944,254.71191 c -1.214278,-3.16436 -0.03697,-5.20718 3.070751,-5.32827 1.642468,-0.064 4.653469,-0.58461 6.691114,-1.15692 2.873203,-0.80698 3.953913,-0.7404 4.814567,0.29663 1.473208,1.7751 -1.41267,3.33575 -7.118756,3.84972 -2.568062,0.23132 -4.7625,1.08514 -5.547234,2.15832 -1.157995,1.58366 -1.36452,1.60317 -1.910442,0.18052 z M 414,238.10257 c 0,-1.159 3.60361,-3.31048 5.95802,-3.55714 7.53855,-0.78979 14.37023,-1.92694 18.61599,-3.09867 2.79071,-0.77017 7.06571,-1.54316 9.5,-1.71776 2.4343,-0.17459 5.4804,-0.89831 6.76913,-1.60825 2.44844,-1.34882 7.64001,-0.71152 6.69252,0.82155 -0.30038,0.48602 -2.45628,1.184 -4.7909,1.55106 -2.33462,0.36707 -5.59476,1.04671 -7.24476,1.51031 -5.37045,1.50895 -12.88545,2.95404 -18.45453,3.54869 -2.99999,0.32033 -5.82513,0.81146 -6.27809,1.0914 -0.45295,0.27995 -2.20779,0.68417 -3.89964,0.89829 -1.69185,0.21412 -3.92921,0.66007 -4.97191,0.99101 C 414.85312,238.864 414,238.67028 414,238.10257 Z m -59,-1.95348 C 355,235.03036 368.47915,228 370.62407,228 c 0.68426,0 3.86126,-1.0856 7.06002,-2.41244 19.2353,-7.97879 23.38336,-9.42612 28.64265,-9.99396 5.18739,-0.56008 5.78994,-0.43801 5.49135,1.11245 -0.22379,1.16205 -1.68491,1.97193 -4.39109,2.43391 -2.23063,0.3808 -6.05174,1.78389 -8.49135,3.11799 -2.43961,1.33409 -6.68565,3.01665 -9.43565,3.73901 -2.75,0.72236 -5.45971,1.66335 -6.02159,2.09109 -0.56187,0.42774 -6.41187,2.32524 -13,4.21666 -6.58812,1.89142 -12.76591,3.76977 -13.72841,4.17411 -1.03133,0.43325 -1.75,0.29784 -1.75,-0.32973 z m 109.20876,-8.27538 c 0.52465,-1.57393 3.9437,-2.63732 8.91912,-2.77403 1.99533,-0.0548 5.14533,-0.73284 7,-1.50671 4.61936,-1.92744 21.37831,-3.20098 22.30888,-1.69529 0.38579,0.62422 1.12768,0.87151 1.64865,0.54953 0.52097,-0.32197 0.68832,-1.00431 0.37188,-1.51631 -0.85257,-1.37949 1.94423,-1.12938 3.37546,0.30185 0.97701,0.97701 1.35696,0.75781 1.83142,-1.05655 0.44195,-1.69001 1.02239,-2.08479 2.21725,-1.50804 2.82344,1.36286 10.49394,0.84763 14.02222,-0.94187 4.11556,-2.08737 4.09636,-2.08608 4.09636,-0.27598 0,0.79767 0.7875,1.90899 1.75,2.46959 1.38458,0.80644 1.43678,1.03208 0.25,1.08057 -2.22129,0.0907 -15.11319,1.86713 -18,2.48023 -6.51337,1.3833 -15.13657,2.43925 -21.5,2.63278 -3.85,0.11709 -8.35,0.55193 -10,0.96631 -1.65,0.41438 -6.53942,1.05921 -10.86538,1.43295 -6.2886,0.5433 -7.77726,0.41519 -7.42586,-0.63903 z M 143,221.50534 c -3.575,-0.71658 -10.1,-2.03848 -14.5,-2.93754 -4.4,-0.89906 -12.05,-2.06131 -17,-2.58279 -19.818009,-2.08779 -24.368158,-2.98085 -41.659204,-8.17646 -3.662561,-1.10053 -7.487561,-1.74046 -8.5,-1.42207 -1.012438,0.31838 -4.049815,-0.0883 -6.749727,-0.9038 C 51.891157,204.66721 48.514592,204 47.08759,204 c -3.012045,0 -16.109656,-6.11674 -18.01592,-8.41364 -0.712482,-0.85849 -1.03525,-2.23889 -0.717262,-3.06755 0.473168,-1.23306 1.038268,-1.29702 3.111875,-0.35222 C 32.859828,192.80153 34,193.97258 34,194.76892 c 0,1.06083 0.696751,1.27302 2.606315,0.79375 1.807799,-0.45373 2.962255,-0.16736 3.768087,0.93468 0.67831,0.92764 4.275315,2.15391 8.643685,2.94674 4.115052,0.74686 8.958284,1.90133 10.762737,2.56549 1.804454,0.66416 4.186498,0.97072 5.293433,0.68125 1.106934,-0.28947 3.455563,-0.10406 5.219175,0.41201 1.763612,0.51608 4.718231,1.13976 6.565819,1.38597 1.847588,0.2462 4.04762,1.01894 4.888961,1.71719 0.841341,0.69825 3.829678,1.36797 6.640749,1.48827 2.811072,0.12031 9.611039,1.43765 15.111039,2.92744 5.5,1.48979 12.51996,2.80217 15.5999,2.91641 3.07995,0.11423 7.12995,0.69676 9,1.29449 1.87006,0.59774 5.8751,1.34422 8.9001,1.65885 3.025,0.31464 6.9537,1.03977 8.73045,1.6114 1.77675,0.57164 3.64864,0.78088 4.15976,0.465 1.60073,-0.98931 4.10979,0.56085 4.10979,2.53913 0,2.23069 -1.57422,2.2877 -11,0.39835 z m 391.47608,-3.5807 c -0.89065,-2.80619 -0.37028,-3.08843 3.20564,-1.73868 2.47826,0.93544 5.14788,0.74077 14.24495,-1.03877 11.13964,-2.1791 13.07333,-2.14871 13.07333,0.20546 0,0.82516 -4.22846,1.80399 -12.75,2.95143 -16.19478,2.18068 -16.9666,2.1642 -17.77392,-0.37944 z M 344,215.58179 C 344,213.08816 345.17268,211 346.57306,211 c 1.59193,0 8.26066,-2.9156 10.42694,-4.55871 0.825,-0.62575 3.525,-1.83643 6,-2.69039 13.2017,-4.55503 39.01934,-15.33664 40,-16.70424 0.275,-0.38351 2.075,-1.55842 4,-2.61091 1.925,-1.05249 4.175,-2.40699 5,-3.00999 0.825,-0.60301 3.075,-1.69866 5,-2.4348 1.925,-0.73613 4.26766,-2.12013 5.20591,-3.07555 0.93825,-0.95542 3.1556,-2.05554 4.92745,-2.4447 1.77185,-0.38916 5.27919,-1.94746 7.79409,-3.46287 2.5149,-1.51542 5.73045,-3.02572 7.14565,-3.35623 1.41521,-0.3305 4.34021,-1.80436 6.5,-3.27524 2.1598,-1.47088 5.4422,-3.52925 7.29422,-4.57416 3.09953,-1.74875 3.50842,-1.77214 5.14152,-0.29421 2.92397,2.64615 1.28846,5.09072 -5.35052,7.99736 -5.55561,2.43232 -10.12942,4.62087 -15.33496,7.3377 -1.00285,0.52339 -3.84836,1.74601 -6.32336,2.71693 -2.475,0.97092 -5.4,2.79396 -6.5,4.05121 -1.1,1.25725 -3.8,3.02693 -6,3.93263 -2.2,0.90571 -5.35,2.22505 -7,2.93188 -1.65,0.70683 -5.475,2.28951 -8.5,3.51706 -3.025,1.22755 -7.3,3.02365 -9.5,3.99133 -2.2,0.96768 -6.5775,2.70707 -9.72779,3.86531 -3.15028,1.15824 -6.52528,2.54008 -7.5,3.07075 C 375.79745,203.81195 362.37555,210 361.74702,210 c -0.35193,0 -3.3272,1.575 -6.61171,3.5 C 348.90851,217.14943 344,218.06709 344,215.58179 Z m 72.38943,-1.00934 c -0.84734,-2.20813 0.0722,-3.08165 4.81044,-4.56973 2.36507,-0.74276 4.69072,-1.68533 5.16811,-2.09458 0.47739,-0.40926 2.3624,-0.5016 4.18891,-0.20519 2.08387,0.33816 5.29933,-0.21063 8.63202,-1.47326 8.12042,-3.07652 11.56064,-3.99533 21.08114,-5.63032 4.82353,-0.82837 9.24345,-1.7987 9.82204,-2.15629 0.5786,-0.35759 6.10831,-1.69891 12.28824,-2.98071 6.17994,-1.2818 12.33502,-2.78253 13.67796,-3.33494 1.34294,-0.55242 7.84171,-2.18325 14.44171,-3.62407 6.6,-1.44083 13.0125,-3.04351 14.25,-3.56152 1.2375,-0.51801 3.2625,-1.35946 4.5,-1.86987 1.2375,-0.51042 4.05,-1.22569 6.25,-1.58949 2.2,-0.3638 4.45,-1.01251 5,-1.44158 0.87886,-0.68562 4.20344,-1.50666 11,-2.71659 1.1,-0.19582 6.47797,-1.50491 11.95104,-2.90909 7.91908,-2.03172 10.44493,-2.32802 12.36969,-1.45104 1.96373,0.89474 2.31805,0.83987 1.88382,-0.29173 -0.38678,-1.00793 0.89495,-1.69981 4.63031,-2.49945 C 590.10117,168.51044 593,168.1976 593,169.02204 c 0,0.40958 0.9,0.98005 2,1.26771 1.1,0.28766 2,0.0954 2,-0.42721 0,-0.52262 0.74082,-0.81799 1.64626,-0.65638 0.90544,0.16161 1.84294,-0.26866 2.08333,-0.95616 0.24039,-0.6875 -0.27542,-1.25 -1.14626,-1.25 -2.63211,0 -1.77347,-1.99049 0.91667,-2.125 1.375,-0.0687 2.8375,-0.20666 3.25,-0.30646 0.4125,-0.0998 2.2125,-0.5293 4,-0.95445 1.7875,-0.42515 3.25,-1.18725 3.25,-1.69355 0,-0.50629 1.60156,-0.92054 3.55902,-0.92054 1.95746,0 3.30012,0.41891 2.98369,0.9309 -1.10052,1.78067 1.26978,2.04654 5.36473,0.60176 4.25505,-1.50127 4.38103,-1.53266 6.15158,-1.53266 0.58246,0 0.79305,-0.43035 0.46797,-0.95633 -0.32507,-0.52598 -1.36413,-0.71331 -2.30902,-0.41629 -1.20413,0.37851 -1.01187,-0.0832 0.64281,-1.54368 C 631.00686,155.30688 638,155.1326 638,157.83102 c 0,2.01869 -4.69429,4.72501 -10,5.76512 -1.55,0.30385 -8.7833,2.40246 -17.5,5.0773 -5.63124,1.72803 -5.13498,1.6097 -16,3.81496 -4.4,0.89306 -10.61716,2.72352 -13.81591,4.06767 -3.19876,1.34416 -6.8847,2.44393 -8.19099,2.44393 -1.30628,0 -2.67214,0.48068 -3.03523,1.06817 -0.3631,0.5875 -1.27206,0.83337 -2.01992,0.54639 -0.74787,-0.28698 -3.73985,0.15388 -6.64885,0.97968 -2.90901,0.82581 -8.12898,2.15375 -11.59994,2.95099 -3.47096,0.79724 -7.13188,1.88893 -8.13537,2.42598 -1.0035,0.53706 -3.72167,1.21483 -6.04038,1.50616 -2.31871,0.29134 -4.64033,0.79205 -5.15916,1.11271 -0.51883,0.32065 -2.38578,0.72586 -4.14879,0.90045 -4.56238,0.45183 -18.57147,3.30862 -19.72709,4.02284 -1.26049,0.77902 -4.01096,1.33612 -11.97837,2.42615 -6.82394,0.9336 -17.73646,3.45818 -29.5,6.82477 -3.85,1.10182 -10.15,2.52336 -14,3.15898 -7.87431,1.30002 -7.87292,1.29967 -12,3.01977 -1.65,0.68769 -5.33337,1.57756 -8.18528,1.97749 -2.8519,0.39993 -5.7769,1.19437 -6.5,1.76542 -2.4844,1.962 -6.81422,2.47894 -7.42529,0.8865 z M 588.5,171 c 0.33992,-0.55 0.14148,-1 -0.44098,-1 -0.58246,0 -1.05902,0.45 -1.05902,1 0,0.55 0.19844,1 0.44098,1 0.24254,0 0.7191,-0.45 1.05902,-1 z m 4.5,0.55902 c 0,-0.24254 -0.45,-0.7191 -1,-1.05902 -0.55,-0.33992 -1,-0.14148 -1,0.44098 0,0.58246 0.45,1.05902 1,1.05902 0.55,0 1,-0.19844 1,-0.44098 z m -24.27236,43.83528 c -1.70623,-1.70622 -0.1589,-2.13589 10.02236,-2.78302 5.9125,-0.37581 15.925,-1.57983 22.25,-2.67559 6.325,-1.09577 15.325,-1.93042 20,-1.85478 10.92121,0.17669 16.77571,-0.69208 25.77336,-3.82462 5.74908,-2.00154 7.94956,-2.33913 10.5,-1.61088 4.16497,1.18927 5.03059,4.90833 1.45852,6.26643 -4.41705,1.67936 -21.77925,3.39476 -46.73188,4.61715 -7.425,0.36374 -15.3,1.01551 -17.5,1.44838 -5.25284,1.03355 -24.83889,1.35041 -25.77236,0.41693 z m -257.0926,-8.90298 c -0.31841,-0.82978 -0.16787,-2.51728 0.33455,-3.75 0.95676,-2.34753 11.81886,-13.82361 18.5821,-19.63247 2.17157,-1.86514 9.95253,-9.06514 17.29103,-16 7.33849,-6.93487 14.24343,-12.94755 15.34431,-13.36152 1.10088,-0.41396 2.21694,-1.57612 2.48014,-2.58257 0.26319,-1.00646 1.53516,-2.24276 2.8266,-2.74734 1.29143,-0.50458 6.77115,-5.03764 12.17715,-10.07346 C 394.02023,125.90874 418.15545,106.0668 420,106.0109 c 0.825,-0.025 2.61901,-1.22427 3.9867,-2.66505 1.36768,-1.44078 4.20168,-3.702225 6.29777,-5.025428 2.09609,-1.323203 4.10214,-3.164344 4.4579,-4.091425 0.7552,-1.968026 5.77339,-6.413346 8.39713,-7.438521 0.99874,-0.390238 3.05407,-2.92721 4.5674,-5.637716 1.51333,-2.710506 4.33587,-5.965696 6.2723,-7.233756 3.92567,-2.570689 14.26173,-12.760549 17.85371,-17.601172 1.2831,-1.729131 3.6456,-3.687609 5.25,-4.352174 C 478.68731,51.301094 480,50.215395 480,49.552994 480,47.842806 484.32032,44 486.24302,44 488.14831,44 491,46.620795 491,48.371811 491,50.174513 481.64092,60.370088 475.13678,65.652857 467.79496,71.615999 455.0493,83.065287 448.03287,90 c -6.22722,6.154693 -7.095,6.853386 -15.52512,12.5 -7.45343,4.99242 -14.97503,10.95977 -24.00775,19.04683 C 394.19059,134.35815 379.08128,147 378.07884,147 c -0.88388,0 -9.57137,7.97168 -30.07884,27.6005 -5.9309,5.67679 -10.24252,9.12931 -17.40427,13.93643 -4.30291,2.8882 -6.42046,5.1223 -7.80747,8.23721 -1.8461,4.14588 -7.97294,11.22586 -9.7146,11.22586 -0.47283,0 -1.1202,-0.67891 -1.43862,-1.50868 z M 161.72817,192.939 c -2.07451,-1.71633 -5.88463,-4.24399 -8.46694,-5.61701 -2.5823,-1.37303 -5.29799,-3.35717 -6.03487,-4.4092 C 146.48949,181.86076 145.08434,181 144.10381,181 c -2.62787,0 -4.44049,-4.47569 -2.47368,-6.108 1.27185,-1.05554 2.0654,-0.6624 4.89298,2.42407 1.85621,2.02616 4.22812,3.68393 5.27092,3.68393 1.0428,0 2.71048,0.9 3.70597,2 0.99549,1.1 2.49873,2 3.34054,2 0.84181,0 2.55519,0.96259 3.80752,2.1391 1.25233,1.1765 3.30634,2.65229 4.56445,3.27953 2.86,1.42586 3.0503,4.97465 0.28749,5.36117 -1.1,0.15389 -3.69732,-1.12447 -5.77183,-2.8408 z m 114.89599,-1.47603 c -0.37515,-0.97764 1.39529,-5.78017 4.37273,-11.86153 C 283.7486,173.98112 286,169.00836 286,168.55087 c 0,-1.00184 3.21299,-8.1891 6.72833,-15.05087 6.96535,-13.59604 8.36407,-16.41286 10.72389,-21.59649 C 304.8535,128.82544 306,125.5895 306,124.71253 c 0,-0.87697 0.41717,-1.85232 0.92704,-2.16744 0.50988,-0.31512 1.47505,-2.25418 2.14482,-4.30902 0.66978,-2.05484 2.95261,-7.40354 5.07296,-11.88601 C 316.26517,101.8676 318,97.55768 318,96.77247 c 0,-1.776652 4.63096,-13.275782 6.50297,-16.147534 4.18885,-6.425873 22.35496,-42.451223 23.96599,-47.527151 0.77109,-2.429484 3.73277,-2.764562 5.50981,-0.623368 1.00122,1.206395 -0.0129,3.796787 -5.57887,14.25 -11.7096,21.991388 -18.39819,35.607494 -19.81386,40.335501 -0.75094,2.507954 -2.765,7.332622 -4.47569,10.721483 C 322.39966,101.17026 321,104.38559 321,104.92658 c 0,0.9496 -4.62871,11.59472 -7.5678,17.40446 -0.78771,1.55707 -1.4322,3.62705 -1.4322,4.59996 0,0.97291 -1.35,3.63254 -3,5.9103 -1.65,2.27776 -3,4.38308 -3,4.67849 0,1.37593 -7.51199,16.33402 -9.62395,19.16349 -1.30683,1.7508 -2.38268,4.0008 -2.39079,5 -0.008,0.9992 -0.67292,2.94172 -1.47737,4.31672 -3.03297,5.18413 -5.97533,11.74365 -8.52271,19 -2.0064,5.71533 -3.12046,7.57207 -4.68177,7.80287 -1.18832,0.17567 -2.31362,-0.3871 -2.67925,-1.3399 z m -78.15658,-9.15516 c -7.04623,-7.76455 -10.5043,-13.04855 -9.77805,-14.94112 1.12566,-2.93343 4.04774,-0.9592 9.60693,6.49068 7.52139,10.07942 8.90649,12.7293 7.33526,14.03331 -0.85829,0.71232 -2.88362,-0.86599 -7.16414,-5.58287 z m -63.24647,-7.95251 c -1.80339,-0.76154 -5.13341,-2.72802 -7.40004,-4.36996 C 125.55444,168.3434 123.05845,167 122.27443,167 c -0.78401,0 -4.50751,-1.8 -8.27443,-4 -3.76692,-2.2 -7.26319,-4 -7.76949,-4 -0.50629,0 -1.73502,-0.9 -2.73051,-2 -0.99549,-1.1 -2.36013,-2 -3.03254,-2 -0.672415,0 -1.791796,-0.68587 -2.487516,-1.52417 -0.69572,-0.83829 -1.462421,-1.32669 -1.703779,-1.08533 -0.241359,0.24136 -2.04003,-0.64776 -3.997047,-1.97583 C 90.322102,149.0866 88.187793,148 87.536209,148 c -0.651583,0 -5.348672,-2.3625 -10.437974,-5.25 -17.097701,-9.70066 -17.405303,-9.84147 -20.172203,-9.23375 -2.548114,0.55966 -2.661616,0.39061 -3.282041,-4.88824 -0.353456,-3.00736 -0.363609,-6.1951 -0.02256,-7.08386 0.56641,-1.47604 0.847687,-1.46783 3.249328,0.0948 1.446083,0.94091 3.079241,2.22905 3.629241,2.86253 1.576395,1.81567 9.204395,7.49849 10.065164,7.49849 0.427545,0 1.487788,0.61732 2.356095,1.37181 0.868308,0.7545 4.278741,2.83194 7.578741,4.61654 3.3,1.7846 6.675,4.01903 7.5,4.9654 1.429681,1.64002 4.147342,3.06481 12.03966,6.31205 1.94681,0.80101 4.38967,2.30638 5.42857,3.34529 1.0389,1.0389 2.14606,1.89692 2.46034,1.90671 0.69619,0.0217 9.80009,4.18967 12.57143,5.75551 1.1,0.62151 3.48188,1.90064 5.29306,2.84251 1.81118,0.94187 4.96118,2.98715 7,4.54507 2.03882,1.55792 4.1079,2.83405 4.59795,2.83585 0.49006,0.002 1.37995,0.77837 1.97753,1.72574 1.69351,2.68478 -0.3508,3.73607 -4.14743,2.13282 z m 103.3565,-9.22973 c -0.74755,-1.20955 -0.76091,-3.96975 -0.25316,-52.28723 0.24658,-23.463919 0.75341,-43.155304 1.12629,-43.758638 0.86279,-1.396021 1.06547,-39.905239 0.2241,-42.579702 -0.82316,-2.616598 0.25125,-4.192363 3.39681,-4.981847 3.25582,-0.817159 4.82046,2.195275 4.43223,8.533476 -0.26097,4.260647 -0.5453,33.293355 -0.36674,37.448371 0.0473,1.1 -0.43746,5.6 -1.07717,10 -0.63972,4.4 -1.36203,14.525 -1.60513,22.5 -0.2431,7.975 -0.6698,15.8533 -0.94821,17.50734 -0.27842,1.65403 -0.11761,4.36231 0.35735,6.0184 1.09155,3.80598 -0.33053,36.04288 -1.75236,39.72426 -1.0621,2.74996 -2.51655,3.52186 -3.53401,1.87557 z M 181.32276,159.75 c -1.48627,-2.3375 -4.52942,-7.76304 -6.76254,-12.05676 -5.40832,-10.39883 -5.97983,-11.38575 -7.78072,-13.43635 -0.84862,-0.96629 -1.87323,-2.83789 -2.27692,-4.15911 -0.40369,-1.32123 -2.03192,-4.60353 -3.61828,-7.29401 -1.58637,-2.69048 -2.89058,-5.20948 -2.89825,-5.59778 -0.008,-0.38829 -1.8029,-4.08099 -3.9894,-8.20599 -2.1865,-4.125 -4.52322,-8.625 -5.1927,-10 -0.66949,-1.375 -2.39179,-4.3 -3.82734,-6.5 -1.43554,-2.2 -3.41663,-5.8 -4.4024,-8 -4.39668,-9.81225 -6.24959,-13.070489 -9.54615,-16.786375 C 128.04018,64.345686 129.14776,61.5 133.44648,61.5 c 2.32338,0 3.04961,0.747179 4.89102,5.032139 1.18937,2.767677 3.15272,6.405858 4.36299,8.084847 1.21028,1.678989 2.40039,4.155054 2.64471,5.502366 0.39847,2.197467 4.05184,10.173873 8.41872,18.380648 5.01471,9.42424 7.97904,15.51809 9.53408,19.59946 0.96384,2.5297 3.32751,6.43958 5.25259,8.68861 1.92509,2.24904 4.17063,5.6938 4.99009,7.65504 0.81946,1.96124 3.05804,6.01725 4.97462,9.01336 1.91659,2.9961 3.4847,5.67427 3.4847,5.95149 0,0.27721 1.35,2.79363 3,5.59204 3.53865,6.00156 3.87599,9 1.01254,9 -1.24762,0 -2.9934,-1.58207 -4.68978,-4.25 z m 283.2666,-1.25 c 0.48408,-1.92875 0.24089,-2.5 -1.06429,-2.5 -2.05565,0 -1.47865,-2.37982 0.6785,-2.79842 0.89339,-0.17337 1.82302,0.66476 2.21834,2 0.66405,2.24285 0.71846,2.22293 2.25035,-0.82409 1.506,-2.99554 6.75224,-6.37749 9.89305,-6.37749 0.8236,0 1.74718,-0.65076 2.05239,-1.44614 0.56826,-1.48084 10.06195,-6.30294 16.76365,-8.5147 3.2562,-1.07465 3.99341,-1.00998 5.65777,0.49624 2.21668,2.00607 1.57476,3.8584 -1.09516,3.1602 -1.01155,-0.26453 -2.56427,0.33235 -3.471,1.33428 -0.90237,0.9971 -5.31544,3.28295 -9.80682,5.07966 -4.49137,1.7967 -10.19114,4.95333 -12.66614,7.01472 -4.13489,3.4439 -8.72238,5.87574 -11.08415,5.87574 -0.52468,0 -0.6716,-1.125 -0.32649,-2.5 z m 156.22314,0.81689 c 0.72187,-0.28887 1.58438,-0.25335 1.91667,0.0789 0.33229,0.33229 -0.25834,0.56864 -1.3125,0.52522 -1.16495,-0.048 -1.4019,-0.28494 -0.60417,-0.60416 z M 513.75,137.33772 c 0.6875,-0.27741 1.25,-1.36689 1.25,-2.42105 0,-2.26921 1.28607,-2.48183 2.94212,-0.48641 0.9479,1.14215 0.78437,1.64575 -0.81181,2.5 -1.09936,0.58836 -2.59091,1.03421 -3.31457,0.99079 -1.00747,-0.0605 -1.02287,-0.19712 -0.0657,-0.58333 z m 6.43523,-5.08772 c 0.19836,-1.04599 1.41552,-1.87544 3.02555,-2.06181 1.58078,-0.18299 2.94186,-1.09376 3.29438,-2.20445 0.5095,-1.60529 0.96745,-1.72553 3.01641,-0.79196 3.03621,1.38339 2.60488,2.05847 -2.99792,4.6921 -5.47449,2.57331 -6.77121,2.64822 -6.33842,0.36612 z m 15.94625,-6.51852 C 534.82986,124.42986 534.61477,122 535.80116,122 c 0.44065,0 3.47815,-1.73301 6.75,-3.85113 3.27186,-2.11812 7.74884,-4.43721 9.94884,-5.15354 2.2,-0.71633 7.54226,-3.25832 11.8717,-5.64887 4.32943,-2.39055 8.04583,-4.34646 8.25866,-4.34646 0.21282,0 2.25058,-1.35 4.52834,-3 2.27776,-1.65 4.8694,-3 5.7592,-3 0.88981,0 3.31652,-1.154292 5.39271,-2.565093 4.51471,-3.06783 6.81944,-2.849895 8.09076,0.765062 1.26925,3.609118 -0.37275,5.417081 -6.59914,7.266121 -2.72696,0.80982 -11.44699,4.63624 -19.37784,8.50316 C 562.49355,114.83616 555.54468,118 554.98247,118 c -0.56222,0 -2.80433,1.125 -4.98247,2.5 -2.17814,1.375 -4.31336,2.5 -4.74494,2.5 -0.43157,0 -2.40635,0.86916 -4.38839,1.93148 -2.68164,1.43727 -3.89323,1.64196 -4.73519,0.8 z M 529.5,124 c -0.33992,-0.55 0.0835,-1 0.94098,-1 0.85746,0 1.55902,0.45 1.55902,1 0,0.55 -0.42344,1 -0.94098,1 -0.51754,0 -1.2191,-0.45 -1.55902,-1 z" id="path12"/>
</svg>
