<?xml version="1.0" encoding="utf-8"?>
<svg xmlns="http://www.w3.org/2000/svg" version="1.1" viewBox="0 0 1158 729">
	<path d="m 567.38867,12.787109 c -2.23667,-0.13078 -5.15281,1.249718 -9.6289,4.378907 -2.34302,1.637975 -5.68543,3.869227 -7.42774,4.957031 C 545.25114,25.295292 534,41.94739 534,46.294922 c 0,0.838149 -2.75418,4.152794 -6.12109,7.365234 -10.59389,10.107806 -15.91024,25.290237 -16.09571,45.978516 -0.0893,9.964118 0.15165,11.439048 2.90625,17.861328 3.80295,8.86649 9.64157,18.01433 12.83008,20.10352 2.92211,1.91464 2.5541,2.93175 -1.3418,3.71093 -4.10577,0.82115 -17.74921,7.45526 -21.05664,10.23828 -2.33967,1.96871 -4.53761,2.51252 -13.21484,3.27539 -14.92382,1.31208 -20.79918,3.78107 -28.90625,12.14454 -7.79349,8.03997 -8.53258,8.979 -9.52344,12.10351 -1.45579,4.59063 -5.47942,9.88545 -7.99023,10.51563 -1.38168,0.34678 -2.84453,1.14603 -3.25,1.77539 -0.40548,0.62937 -2.4234,2.40142 -4.48438,3.9375 -2.06097,1.53607 -4.59409,4.68346 -5.63086,6.99414 -4.65222,10.36848 -6.54729,22.87458 -3.87109,25.55078 0.73224,0.73224 1.25,3.82838 1.25,7.47461 0,4.95532 -0.4621,6.81214 -2.26758,9.10742 -1.24733,1.58573 -2.96753,5.28837 -3.82226,8.22852 -1.74265,5.99451 -3.33135,7.26221 -8.41016,6.70703 -1.925,-0.21042 -6.65,-0.61692 -10.5,-0.90235 -9.37396,-0.69498 -21.20094,-2.31532 -25.5,-3.49414 -5.0404,-1.38211 -24,-1.26159 -24,0.15235 0,0.82133 -0.3678,0.81673 -1.37305,-0.0176 -1.07984,-0.89619 -2.845,-0.0126 -8.25,4.13281 -3.78193,2.9006 -8.14409,6.08809 -9.69336,7.08399 -1.54928,0.99591 -3.60478,2.56842 -4.56836,3.49414 -7.94627,7.63406 -14.0508,9.95017 -28.11523,10.66601 -14.40361,0.7331 -37.59074,2.59105 -39,3.125 -0.825,0.31257 -5.325,0.97868 -10,1.48047 -4.675,0.5018 -9.625,1.08026 -11,1.28516 -17.56077,2.6169 -28.55957,3.97453 -33.5,4.13672 -3.3,0.10833 -6.675,0.48164 -7.5,0.83007 -0.825,0.34842 -5.1,1.07449 -9.5,1.61328 -4.4,0.53878 -11.15,1.68363 -15,2.54297 -9.728,2.17134 -10.25176,2.26374 -17,3.03516 -3.3,0.37724 -7.81746,1.27499 -10.03906,1.99414 -2.22161,0.71915 -8.52161,1.58897 -14,1.93359 -5.4784,0.34463 -12.43594,1.01324 -15.46094,1.48438 -3.025,0.47113 -9.325,1.39136 -14,2.04492 -11.967309,1.67302 -14.5,2.37962 -14.5,4.04883 0,2.13442 4.946694,2.38021 11.42383,0.56836 5.30866,-1.48497 10.97678,-1.9722 17.57617,-1.51367 1.65,0.11465 7.05,-0.29671 12,-0.91407 4.95,-0.61736 11.925,-1.38692 15.5,-1.70898 3.575,-0.32206 7.98279,-1.05035 9.79492,-1.61914 3.48781,-1.09473 5.29074,-1.3966 28.20508,-4.73438 7.975,-1.16166 17.69683,-2.58654 21.60352,-3.16406 3.90668,-0.57753 7.50668,-0.94395 8,-0.81445 0.49331,0.1295 3.14648,-0.088 5.89648,-0.48438 2.75,-0.3964 7.025,-0.88553 9.5,-1.08593 2.475,-0.20041 6.075,-0.62085 8,-0.93555 1.925,-0.3147 7.55,-0.83915 12.5,-1.16406 4.95,-0.32491 11.925,-1.02761 15.5,-1.5625 6.40757,-0.95869 9.48223,-1.22908 27.75,-2.4375 7.8401,-0.51862 9.25,-0.38298 9.25,0.89258 0,0.82771 -0.9,1.79149 -2,2.14062 -1.1,0.34913 -2,1.03249 -2,1.51758 0,0.4851 -3.4875,2.70337 -7.75,4.93164 -10.28115,5.37459 -19.90271,12.75418 -24.44141,18.74414 -3.97539,5.24654 -8.02074,9.22758 -13.71679,13.50195 C 251.37991,332.98076 231.94682,343 230.25586,343 c -0.52519,0 -2.87958,1.29287 -5.23242,2.87305 -2.35283,1.58019 -5.03987,2.6731 -5.97071,2.42968 -0.93085,-0.24342 -2.27772,0.26372 -2.99414,1.12696 -0.71642,0.86323 -2.53067,1.57031 -4.03125,1.57031 -1.50058,0 -4.03432,0.41858 -5.6289,0.92969 -1.59457,0.51112 -7.39844,2.34945 -12.89844,4.08593 -5.5,1.73652 -11.35,3.75624 -13,4.48829 -1.65,0.73205 -5.90177,2.32863 -9.44922,3.54882 -7.39849,2.5448 -8.92609,4.06783 -12.73633,12.69727 -1.5178,3.4375 -3.08702,6.25 -3.48828,6.25 -0.40126,0 -3.70878,2.1375 -7.34961,4.75 -3.64083,2.6125 -8.72581,6.2193 -11.29883,8.01562 -2.57302,1.79636 -6.92773,5.42967 -9.67773,8.07422 -2.75,2.64454 -6.8,5.87656 -9,7.18164 -2.2,1.30507 -4.225,2.6512 -4.5,2.99024 -0.275,0.33904 -5.225,4.15829 -11,8.48828 -5.775,4.32999 -10.725,8.15741 -11,8.50586 -0.275,0.34846 -3.114664,2.54957 -6.310547,4.89062 -8.755686,6.41375 -9.447423,9.99407 -1.078125,5.58204 8.536215,-4.50002 14.799095,-8.75856 24.980472,-16.98829 11.15364,-9.01564 28.65106,-22.4748 31.1875,-23.99023 7.41501,-4.4302 14.38938,-9.40998 17.92382,-12.79688 3.6786,-3.52501 4.40692,-3.85553 5.84961,-2.6582 0.90653,0.75235 2.2801,1.45916 3.05079,1.57227 0.7707,0.11311 3.31211,1.10084 5.64843,2.19336 13.0545,6.10458 24.22467,8.08542 42.24805,7.49218 7.7,-0.25344 23,-0.58713 34,-0.74023 11,-0.15309 23.29794,-0.83248 27.32812,-1.50977 4.03018,-0.67732 7.59045,-0.96813 7.91211,-0.64648 1.43516,1.43517 -5.99752,12.016 -12.99023,18.49219 -1.5125,1.40078 -2.75,3.31554 -2.75,4.2539 0,0.93836 -1.53195,3.32919 -3.4043,5.31446 -1.87235,1.98527 -4.09024,5.05587 -4.92968,6.82226 -0.83944,1.7664 -2.9075,4.53304 -4.59571,6.14844 -1.68821,1.6154 -3.07031,3.76688 -3.07031,4.78125 0,3.1694 -2.90391,3.24634 -6.14844,0.16211 -5.94393,-5.65026 -6.99228,-10.05023 -4.41601,-18.53906 0.77761,-2.56226 1.1475,-4.92476 0.82226,-5.25 -1.20607,-1.20607 -4.00141,-0.53208 -5.73437,1.38281 -0.98278,1.08596 -2.74129,2.2631 -3.90625,2.61719 -1.16497,0.3541 -2.79219,1.22165 -3.61719,1.92578 -3.64688,3.11259 -9.53891,5.51365 -19.58984,7.98242 -5.94289,1.45972 -12.04272,3.29234 -13.55469,4.07422 -1.51198,0.78187 -3.62944,1.55655 -4.70508,1.7207 -1.07564,0.16416 -2.74202,0.95259 -3.70312,1.75196 -0.9611,0.79935 -3.20539,2.35312 -4.98829,3.45312 -12.43892,7.67446 -21.43702,23.0651 -17.63671,30.16602 1.0937,2.04361 1.06915,2.09707 -4.2793,9.95898 -1.07583,1.58141 -3.21333,4.35352 -4.75,6.16016 C 154.2563,488.59179 153,490.573 153,491.18945 c 0,0.61644 -1.2375,2.73533 -2.75,4.70703 -1.5125,1.9717 -3.22687,4.48854 -3.81055,5.59375 -9.17856,17.37989 -12.97314,24.27461 -14.05468,25.54493 -1.81287,2.1293 -18.35533,32.18571 -28.32618,51.46484 -1.99116,3.85 -4.858705,8.92592 -6.37109,11.2793 -1.512386,2.35338 -3.006517,5.56968 -3.322266,7.14843 -0.473012,2.36506 -0.176314,2.9983 1.6875,3.58985 1.719415,0.54572 2.686457,0.15325 4.035156,-1.63477 0.97591,-1.29379 1.60054,-2.52836 1.38672,-2.74219 -0.61554,-0.61554 3.21522,-7.63774 4.95312,-9.08007 0.8652,-0.71805 1.57227,-1.98931 1.57227,-2.82422 0,-0.83492 0.8568,-3.36673 1.9043,-5.62695 6.54466,-14.12172 9.35213,-19.57802 10.61132,-20.62305 0.78477,-0.65129 2.72573,-3.78156 4.3125,-6.95703 4.24969,-8.50435 13.27955,-24.22813 15.23633,-26.5293 0.93538,-1.1 2.44103,-3.35 3.34571,-5 0.90468,-1.65 2.46512,-4.35 3.46679,-6 C 154.78383,500.47539 161,489.67322 161,488.95703 c 0,-0.47151 0.56286,-1.21837 1.25195,-1.6582 0.6891,-0.43983 2.49925,-2.59883 4.02149,-4.79883 6.47819,-9.36251 7.88466,-9.92575 4.98633,-1.99805 -1.34975,3.69194 -1.46833,4.914 -0.50977,5.24024 0.6875,0.23399 1.25,1.43633 1.25,2.67383 0,3.29972 0.85952,3.67046 4.75,2.04492 6.95887,-2.9076 8.99163,-1.67012 7.18164,4.37109 -0.86523,2.88803 -0.87342,4.4089 -0.0312,5.98242 1.5378,2.87342 4.09961,1.70919 4.09961,-1.86328 0,-3.32968 1.51137,-4.60126 3.50195,-2.94922 0.9198,0.76334 1.20908,2.19093 0.83008,4.08594 -0.44501,2.22502 -0.21184,2.91211 0.98438,2.91211 0.86129,0 1.81699,-0.40788 2.125,-0.90625 0.96216,-1.55681 4.67798,0.0721 5.80468,2.54492 0.59172,1.29868 1.45235,2.36133 1.91407,2.36133 1.59159,0 0.83413,2.90371 -1.41016,5.4043 -1.2375,1.37882 -3.6,4.79186 -5.25,7.58398 -1.65,2.79213 -5.3625,8.39602 -8.25,12.45313 -2.8875,4.05712 -5.25,7.66521 -5.25,8.01953 0,0.35433 -2.38923,4.10835 -5.30859,8.34179 C 171.49244,557.79195 167,565.40851 167,566.92773 c 0,2.66287 3.80088,0.77158 5.87891,-2.92578 1.23605,-2.19926 3.11836,-4.46506 4.18359,-5.03515 1.06522,-0.57009 1.9375,-1.61835 1.9375,-2.32813 0,-0.70978 1.125,-2.34692 2.5,-3.63867 1.375,-1.29175 2.5,-2.74767 2.5,-3.23633 0,-0.48867 3.75572,-6.59821 8.3457,-13.57617 13.18581,-20.04584 14.6956,-22.50672 15.30078,-24.91797 0.3134,-1.24865 1.12964,-2.26953 1.8125,-2.26953 1.56859,0 16.25204,13.62517 18.41993,17.0918 0.89114,1.42499 4.32109,4.85634 7.62109,7.62695 3.3,2.7706 8.53818,7.45576 11.64062,10.41016 6.71629,6.39578 14.28898,11.97982 18.16016,13.39257 5.22391,1.90642 19.04778,15.01957 27.33399,25.92969 4.43171,5.83506 8.3731,9.27234 15.36523,13.39453 6.79593,4.00653 25.53871,13.0331 28.5,13.72657 1.65,0.38639 3.55598,1.14216 4.23633,1.67773 0.68036,0.53558 2.42232,0.67563 3.86914,0.3125 3.09964,-0.77796 6.39453,1.66097 6.39453,4.73242 0,1.09187 -1.06793,5.41033 -2.37305,9.5957 -4.39144,14.08287 -6.42678,21.5849 -7.07226,26.06055 -0.35301,2.44771 -0.99425,4.92271 -1.42383,5.5 C 338.84862,660.17429 337,667.50414 337,670.86523 337,673.6725 337.3091,674 339.96484,674 c 3.64247,0 4.56429,-1.61631 5.41602,-9.5 1.37133,-12.69323 4.03126,-23.9849 6.26367,-26.58203 0.74753,-0.86963 1.09884,-1.84257 0.7793,-2.16211 -0.97408,-0.97409 2.82079,-12.10826 4.94726,-14.51563 2.11315,-2.39228 4.6863,-2.26484 7.70703,0.37891 0.86832,0.75995 2.4666,1.38086 3.55079,1.38086 1.08419,0 2.39937,0.38461 2.92187,0.85352 0.5225,0.46892 3.19922,1.43786 5.94922,2.15429 2.75,0.71642 5.45,1.60466 6,1.97461 1.6437,1.1056 9.68415,3.87005 14.5,4.98438 2.475,0.57268 7.65,1.92585 11.5,3.00781 9.8984,2.78171 10.2322,2.71754 11.57227,-2.22461 0.63381,-2.3375 1.5398,-5.375 2.01367,-6.75 0.47387,-1.375 1.08755,-3.84048 1.36328,-5.47852 1.14746,-6.81668 5.38627,-9.43638 18.55078,-11.46484 4.125,-0.63561 9.44784,-1.52807 11.82812,-1.98437 3.16954,-0.6076 4.45611,-0.49749 4.80665,0.41601 0.26325,0.68602 -2.03247,6.12346 -5.10157,12.08203 -8.13088,15.78586 -8.67679,19.423 -3.125,20.81641 1.74578,0.43817 2.55102,1.41552 2.77539,3.36523 0.30678,2.66575 0.54395,2.76675 7.95313,3.36914 4.20012,0.34148 8.14771,0.93676 8.77148,1.32227 0.62376,0.38551 4.61216,-0.41871 8.86328,-1.78516 4.25112,-1.36646 11.77852,-3.6843 16.72852,-5.15234 12.59508,-3.73537 13.69394,-4.25426 13.30859,-6.26758 -0.3915,-2.04546 -7.59086,-4.10167 -15.55859,-4.44336 -6.32423,-0.27121 -6.54282,-1.12856 -2.26758,-8.88476 1.64004,-2.97537 2.99246,-6.53516 3.00586,-7.91016 0.0241,-2.47825 0.61466,-3.84503 4.93164,-11.41602 1.22835,-2.15424 3.59092,-7.32924 5.25,-11.5 2.64799,-6.65681 2.95448,-8.43913 2.50391,-14.58398 -0.94486,-12.88613 -1.91961,-15.45252 -7.82617,-20.63281 -6.74178,-5.91281 -9.63243,-6.82355 -24.01758,-7.5586 l -11.66797,-0.5957 -2.7168,-4.99023 c -5.96903,-10.96707 -5.22126,-14.78376 5.09961,-26.03321 6.54127,-7.12979 16.48099,-19.80629 17.79102,-22.68945 1.28433,-2.8266 4.47902,-7.73979 8.20508,-12.61914 3.69416,-4.83756 3.77377,-4.87856 8.84375,-4.57227 2.81383,0.16998 6.46523,0.705 8.11523,1.1875 10.14497,2.96663 31.52014,4.27523 33.80469,2.07032 0.44267,-0.42725 1.23283,-3.87955 1.75586,-7.67188 0.52302,-3.79232 1.64761,-9.71673 2.49804,-13.16601 2.45973,-9.97657 4.58433,-24.52006 3.95118,-27.04493 -0.80781,-3.2214 -3.43633,-2.44691 -6.19532,1.82422 -2.08919,3.23422 -6.88375,8.96624 -13.54492,16.19727 -2.32615,2.52515 -3.1993,2.85865 -5.9082,2.26367 -1.74831,-0.38399 -4.67134,-0.83627 -6.4961,-1.00586 -1.82476,-0.16959 -5.01615,-1.19097 -7.09179,-2.26953 C 499.95601,443.79292 496.01021,442 494.24609,442 c -3.12854,0 -19.72429,11.58189 -24.44921,17.0625 -2.36363,2.74165 -7.17488,8.01135 -10.69336,11.71094 -3.51848,3.69959 -8.05791,9.87656 -10.0879,13.72656 -2.02996,3.85 -4.40288,7.13757 -5.27148,7.30664 -0.8686,0.16908 -5.0428,-2.85086 -9.27734,-6.71094 -4.23454,-3.86008 -9.3356,-7.55123 -11.33399,-8.20312 -6.1685,-2.0122 -19.54149,-8.04785 -21.35156,-9.63672 -1.2989,-1.14018 -1.47324,-1.96376 -0.71484,-3.38086 0.55165,-1.03077 0.75234,-1.875 0.44531,-1.875 -0.30703,0 0.1427,-1.06761 0.99805,-2.37305 0.85536,-1.30543 1.82525,-4.79293 2.15625,-7.75 0.331,-2.95706 1.15187,-6.05195 1.82421,-6.87695 C 407.6412,443.5877 416,415.41952 416,412.95312 c 0,-0.62986 0.68748,-3.50941 1.52734,-6.39843 1.38911,-4.77838 1.88854,-5.37206 5.54297,-6.57813 3.18503,-1.05115 5.30443,-1.08829 10.22461,-0.17968 5.89347,1.0883 12.18519,1.53053 38.70508,2.71874 6.325,0.2834 16.45,0.79948 22.5,1.14649 6.05,0.34702 15.725,0.71145 21.5,0.81055 5.775,0.0992 11.79632,0.54772 13.38086,0.99609 2.22865,0.63063 3.09272,0.43851 3.8125,-0.84766 0.51176,-0.91446 1.32912,-1.4164 1.81641,-1.11523 1.348,0.83311 12.93245,1.47131 28.49023,1.57031 16.49682,0.10502 18.2907,0.76103 18.07031,6.60352 -0.0793,2.10118 0.22119,5.17031 0.66797,6.82031 0.44678,1.65 1.20844,5.475 1.69141,8.5 1.04621,6.5526 1.64814,9.1898 3.10351,13.59961 1.13972,3.45341 2.7234,17.68941 3.63477,32.67773 0.37368,6.14561 0.16689,9.21817 -0.68945,10.25 -0.87817,1.05813 -0.92034,1.83595 -0.1504,2.76368 0.61483,0.7408 1.06369,5.75339 1.05469,11.75 -0.009,5.75193 0.5025,13.83398 1.13477,17.95898 0.63227,4.125 1.30082,14.25 1.48633,22.5 0.64915,28.86917 1.52819,54.02137 1.97461,56.5 0.93324,5.18151 2.43329,16.87383 3.51953,27.42969 0.61865,6.01186 1.54941,11.72565 2.06836,12.69531 0.51895,0.96967 1.18655,4.14989 1.48242,7.06836 0.29587,2.91848 1.16809,7.55664 1.93945,10.30664 0.77135,2.75 2.5166,9.95 3.87695,16 3.7888,16.85028 4.3811,18.77842 6.06836,19.72266 0.86144,0.48209 1.56641,2.17736 1.56641,3.76757 0,1.59021 0.45,3.16985 1,3.50977 0.55,0.33992 1,1.33671 1,2.21484 0,2.10585 4.75191,8.28516 6.37109,8.28516 0.69782,0 2.24586,1.125 3.44141,2.5 2.7879,3.20637 3.80688,3.15173 4.66016,-0.24805 0.51655,-2.05807 0.25126,-2.99906 -1.05469,-3.75 -0.95888,-0.55137 -2.62353,-1.84173 -3.69922,-2.86914 -1.56194,-1.49187 -1.6849,-2.03496 -0.61328,-2.69726 1.07393,-0.66373 0.93936,-1.28988 -0.67578,-3.13282 C 624.53423,693.63994 620,685.05625 620,683.63086 c 0,-0.35733 -1.75781,-4.8082 -3.90625,-9.89063 -2.14844,-5.08244 -4.2053,-11.26523 -4.57031,-13.74023 -0.365,-2.475 -1.05781,-5.85 -1.53906,-7.5 -0.48128,-1.65 -1.12207,-4.68503 -1.42383,-6.74414 -0.59672,-4.07183 -1.56893,-8.2604 -3.88867,-16.74024 -0.82516,-3.01631 -1.28183,-5.83684 -1.01563,-6.26757 0.87653,-1.41826 0.43601,-14.14153 -0.68359,-19.74805 -0.60409,-3.025 -1.27152,-9.55 -1.48243,-14.5 -0.21092,-4.95 -0.66541,-11.025 -1.00976,-13.5 -2.26374,-16.27077 -2.59119,-21.14617 -3.03125,-45 -0.22829,-12.375 -0.62681,-27.9 -0.88477,-34.5 -0.25796,-6.6 -0.69799,-19.55092 -0.97656,-28.7793 -0.27857,-9.22839 -0.73659,-17.1535 -1.01953,-17.61132 -0.28295,-0.45783 -0.72954,-2.35691 -0.99219,-4.22071 -0.26264,-1.8638 -0.74092,-4.51367 -1.0625,-5.88867 -0.84742,-3.62336 -2.76453,-13.24757 -2.98828,-15 -0.10534,-0.825 -0.77945,-4.04877 -1.49805,-7.16406 -0.71859,-3.1153 -1.05859,-6.31342 -0.7539,-7.10742 0.63441,-1.65325 4.2717,-2.6067 14.22656,-3.72852 7.62015,-0.85872 21.947,-3.29488 30.21484,-5.13867 4.21201,-0.93932 5.52692,-0.90475 6.83594,0.18164 3.23304,2.68318 9.51699,19.10177 7.56055,19.75391 -1.8622,0.62074 -1.24267,2.04387 1.03711,2.38281 1.70258,0.25312 2.54259,1.67154 4.03515,6.82031 1.03636,3.575 2.54313,7.77301 3.34961,9.33008 0.80648,1.55707 1.4668,3.57512 1.4668,4.48242 0,1.61763 3.31003,10.89128 5.1875,14.53516 0.52351,1.01606 0.73014,2.06867 0.45898,2.33984 -0.27117,0.27117 0.14533,2.30359 0.92579,4.51562 0.78046,2.21207 2.58958,9.70945 4.02148,16.66016 1.4319,6.95072 3.05101,13.47259 3.59766,14.49414 0.66593,1.24447 0.65414,2.19741 -0.0371,2.88867 -0.70893,0.70893 -0.35854,1.57763 1.12304,2.77735 1.66439,1.34774 2.11772,2.72076 1.98633,6.01562 -0.20161,5.05582 1.36265,8.73501 3.01172,7.08594 0.78625,-0.78625 2.01244,1.00555 4.40625,6.43359 1.82473,4.13759 3.33211,8.29225 3.34961,9.23243 0.0175,0.94018 0.6925,2.58277 1.5,3.65039 0.80751,1.06762 1.46875,2.62714 1.46875,3.46484 0,0.83769 2.72855,6.9389 6.0625,13.55859 6.27832,12.46586 6.77642,13.37227 11.0332,20.03516 1.40553,2.2 5.35822,9.27649 8.78321,15.72461 3.42498,6.44812 6.65308,11.98675 7.17382,12.30859 0.52075,0.32183 0.94727,1.38302 0.94727,2.35938 0,0.97636 1.8,4.34573 4,7.48633 2.2,3.14061 4.00928,6.25293 4.02148,6.91601 0.0122,0.66307 0.90298,2.33008 1.97852,3.70508 1.07554,1.375 1.96629,3.2269 1.97852,4.11523 0.0122,0.88833 0.92148,2.75979 2.02148,4.15821 1.1,1.39842 2.01018,2.92151 2.02148,3.38476 0.0113,0.46325 1.98883,3.0918 4.39454,5.8418 4.3153,4.93289 4.40137,4.97603 6.42773,3.14258 l 2.05273,-1.85938 -4.60351,-8.64062 C 742.76024,625.38969 739.17955,618.575 737.33594,615 c -1.84362,-3.575 -4.4543,-8.3 -5.80078,-10.5 -1.34649,-2.2 -2.4848,-4.675 -2.5293,-5.5 -0.10272,-1.90392 -20.75699,-42.35165 -24,-47 -0.9593,-1.375 -2.08922,-3.625 -2.51172,-5 -0.42251,-1.375 -1.98984,-4.3 -3.48242,-6.5 -1.49258,-2.2 -3.95297,-6.25 -5.46875,-9 -1.51578,-2.75 -4.3282,-7.55783 -6.25,-10.68359 -1.92179,-3.12577 -3.72268,-7.37888 -4.00195,-9.45118 -0.27926,-2.07231 -1.10291,-4.68947 -1.83008,-5.8164 -1.73787,-2.69328 -6.48974,-15.36297 -6.95703,-18.54883 -0.20168,-1.375 -0.83375,-5.65 -1.4043,-9.5 -1.45519,-9.81939 -14.09798,-48.80853 -18.48242,-57 -0.88316,-1.65 -1.60733,-3.675 -1.61133,-4.5 -0.004,-0.825 -1.55377,-4.62582 -3.44336,-8.44727 -1.88959,-3.82145 -3.24284,-7.26034 -3.00781,-7.64062 0.23503,-0.38028 1.89294,-0.92296 3.68554,-1.20703 1.7926,-0.28407 6.10447,-1.29748 9.58204,-2.25196 5.3924,-1.48002 6.51457,-1.53042 7.62304,-0.34374 1.29368,1.38492 7.22472,12.84943 9.41407,18.19726 1.374,3.35628 2.65781,2.86137 3.5,-1.34961 0.62554,-3.12776 -1.37515,-8.26834 -5.49024,-14.11133 -4.66203,-6.61959 -2.50807,-7.74662 21.63086,-11.32031 1.65,-0.24428 6.15,-1.39876 10,-2.56641 3.85,-1.16765 8.35,-2.4864 10,-2.92968 2.61784,-0.7033 15.18733,-6.91642 22.4707,-11.10742 2.16841,-1.24777 11.11457,-10.03348 17.01953,-16.71485 1.57511,-1.78223 2.74897,-2.18104 5.26758,-1.78906 5.95455,0.92672 19.08881,1.56706 35.39063,1.72656 20.70254,0.20255 22.43829,-0.69172 28.90039,-14.89453 0.81329,-1.7875 1.84426,-3.25 2.29101,-3.25 1.60258,0 5.0641,4.59083 7.16407,9.5 1.17636,2.75 2.69015,5.675 3.36328,6.5 0.67314,0.825 2.05956,3.975 3.08203,7 3.10441,9.18447 9.4088,20.98303 16.66406,31.1875 3.78786,5.3276 6.88672,9.94743 6.88672,10.26758 0,0.70267 5.80954,8.0004 16.22266,20.37695 7.54147,8.96345 10.61876,11.89781 24.29687,23.16797 C 923.20165,458.56929 946,480.7754 946,483.42969 c 0,1.50617 2.48281,5.13434 11.33789,16.57031 2.34231,3.025 6.48725,8.97816 9.21094,13.22852 3.44268,5.37244 5.83408,8.03945 7.84961,8.75 3.72186,1.31209 3.60156,1.33975 3.60156,-0.84375 0,-1.02583 -0.82684,-2.93833 -1.83789,-4.25 -1.61596,-2.09643 -6.30089,-9.65405 -12.66211,-20.42579 -1.1,-1.86268 -3.74211,-5.21958 -5.87109,-7.46093 -2.12897,-2.24135 -4.99618,-5.73372 -6.3711,-7.75977 C 947.6652,475.94428 935.25821,461.50445 928.2832,454.5 917.32125,443.49178 905.9854,433 905.05469,433 c -0.50615,0 -1.18112,-0.7875 -1.5,-1.75 -0.31889,-0.9625 -4.88087,-6.25 -10.13867,-11.75 -5.25781,-5.5 -11.41407,-12.475 -13.67969,-15.5 -2.26561,-3.025 -5.35004,-6.85 -6.85352,-8.5 -3.71431,-4.07629 -9.4024,-12.14325 -11.98828,-17 -1.17134,-2.2 -3.8861,-6.59584 -6.0332,-9.76953 -2.1471,-3.17369 -4.99454,-8.12369 -6.32617,-11 -4.53776,-9.80154 -11.33007,-21.22283 -14.75196,-24.80469 -2.08253,-2.17989 -5.4502,-4.24091 -8.63086,-5.28125 -2.86863,-0.93829 -7.33838,-3.3344 -9.93359,-5.32617 -7.49455,-5.75189 -22.34889,-11.46857 -46.19531,-17.77539 -6.88772,-1.82164 -15.44844,-4.4377 -19.02344,-5.81445 -3.575,-1.37674 -8.75,-3.2959 -11.5,-4.26368 -2.75,-0.96778 -6.07599,-2.25217 -7.39062,-2.85546 l -2.39063,-1.09766 3.26953,-0.9375 c 2.13965,-0.61365 6.59141,-0.52582 12.89063,0.2539 5.29208,0.65508 11.42109,1.19332 13.62109,1.19532 2.2,0.002 6.72232,0.85531 10.04883,1.89844 3.3265,1.04309 8.2765,2.16598 11,2.49414 2.72349,0.32816 5.62617,0.74403 6.45117,0.92578 1.59647,0.35169 6.58801,1.06801 19.5,2.79687 4.4,0.58914 14.3,2.2036 22,3.58789 7.7,1.38428 16.475,2.85236 19.5,3.26172 3.025,0.40936 10.675,1.99315 17,3.51953 6.325,1.52638 12.7055,2.8897 14.17773,3.0293 1.47224,0.13959 4.84724,0.97031 7.5,1.8457 6.89896,2.2766 19.12119,5.31392 24.81641,6.16797 3.04071,0.45598 5.7534,1.60691 7.19922,3.05274 2.27941,2.2794 2.29181,2.39282 0.64844,6.5 -1.57683,3.94077 -1.57234,4.25497 0.0742,5.45898 1.29077,0.94384 2.51288,1.00994 4.68164,0.25391 2.70773,-0.94392 5.43956,-0.82956 13.4082,0.5625 1.65327,0.28882 6.09281,1.92427 9.86523,3.63476 3.77242,1.7105 8.04482,3.28341 9.49414,3.49414 3.92818,0.57118 9.16468,2.27122 10.56055,3.42969 0.67736,0.56216 2.09552,1.18875 3.15234,1.39062 1.05686,0.20189 3.18802,0.88547 4.73633,1.51954 1.5483,0.63407 3.3483,1.16609 4,1.18359 0.65169,0.0175 2.0385,0.67886 3.08203,1.46875 1.04353,0.78989 2.26434,1.2096 2.71094,0.93359 0.44661,-0.27601 1.61669,-0.0638 2.60156,0.47071 0.98488,0.53451 5.84102,2.54225 10.79102,4.46289 15.233,5.91054 25.0105,10.06223 27.5605,11.69922 1.3414,0.86107 7.0622,3.28237 12.7129,5.38281 5.6508,2.10044 10.5164,4.20956 10.8106,4.68555 0.2941,0.476 1.1619,0.86523 1.9297,0.86523 2.6081,0 22.2088,9.46579 28.9863,13.99805 7.178,4.80003 14.6066,9.00195 15.9121,9.00195 0.7032,0 2.0632,0.86863 3.0234,1.92969 1.7623,1.94727 7.6472,5.11342 10.2012,5.48828 0.7609,0.11166 1.9198,0.73815 2.5742,1.39258 0.6545,0.65444 1.8858,1.19231 2.7383,1.19531 0.8525,0.003 3.3508,1.11374 5.5508,2.46875 2.2,1.35502 4.9863,2.47694 6.1914,2.49414 1.205,0.0172 2.4486,0.44911 2.7637,0.95898 0.3151,0.50988 2.2538,1.46518 4.3086,2.12305 2.0549,0.65787 4.6363,2.00173 5.7363,2.98633 3.0587,2.73783 5.9402,2.87722 6.3066,0.30664 0.3653,-2.56374 -3.2459,-5.47301 -12.8066,-10.31641 -3.575,-1.81107 -7.625,-4.05469 -9,-4.98632 -3.7191,-2.51985 -23.3746,-12.03464 -25.8418,-12.50977 -1.1763,-0.22654 -3.2091,-1.00252 -4.5176,-1.72266 -1.3084,-0.72013 -4.3502,-2.3723 -6.7597,-3.67187 -2.4096,-1.29957 -5.2809,-3.1517 -6.3809,-4.11524 -1.1,-0.96354 -5.375,-3.47601 -9.5,-5.58398 -4.125,-2.10797 -8.625,-4.68714 -10,-5.73242 -2.9043,-2.20783 -13.4974,-7.17558 -20,-9.37891 -4.8591,-1.64645 -7.2399,-2.663 -19.5,-8.32422 C 1010.929,354.58242 984.77922,344 983.42969,344 c -1.8944,0 -16.35844,-4.90594 -18.61719,-6.31445 -1.27181,-0.79308 -5.35,-2.50503 -9.0625,-3.80469 -6.74199,-2.36023 -7.79769,-3.43474 -5.56641,-5.66602 0.65141,-0.65141 1.25078,-1.97812 1.33008,-2.94922 0.0793,-0.97106 0.64884,-4.01562 1.26563,-6.76562 1.02624,-4.57558 2.94768,-16.62668 3.82812,-24 0.19702,-1.65 0.76047,-5.475 1.25196,-8.5 1.28962,-7.93777 1.37113,-30.78917 0.15234,-43 -1.08836,-10.90405 -2.17211,-16.94068 -4.58984,-25.58789 C 952.63945,214.61377 952,211.40698 952,210.28516 c 0,-1.12181 -0.65235,-2.58085 -1.44922,-3.24219 -0.79686,-0.66134 -1.98881,-2.85455 -2.64844,-4.87305 -1.14394,-3.50051 -7.79843,-14.15619 -10.63086,-17.02344 C 934.68381,182.527 932,176.04076 932,172.4082 c 0,-2.01949 0.90515,-5.13726 2.01172,-6.92773 2.16455,-3.50232 12.19163,-12.21806 15.51758,-13.48828 2.04055,-0.7793 10.4707,-8.91848 10.4707,-10.10938 0,-0.35081 -0.69873,-1.21702 -1.55273,-1.92578 -1.29176,-1.07206 -3.18263,-0.726 -11.25,2.0625 -9.10209,3.14614 -10.64861,3.37185 -25.19727,3.67969 -16.68345,0.35301 -24.47323,0.7816 -30,1.64844 -1.925,0.30193 -6.0875,0.76346 -9.25,1.02734 l -5.75,0.48047 v -9.4668 c 0,-7.64851 -0.40734,-10.27649 -2.11719,-13.67773 C 871.31132,118.60654 870.41054,118 863.40234,118 c -5.36455,0 -6.51768,-0.32664 -7.8457,-2.22266 C 854.70046,114.55497 854,112.96021 854,112.23438 c 0,-2.24564 -6.84677,-9.45212 -8.4668,-8.91211 -1.09326,0.36442 -9.74459,10.94893 -11.74804,14.37304 -0.70667,1.20777 -3.01264,5.48277 -5.12305,9.5 -2.11041,4.01723 -4.69791,8.05169 -5.75,8.96485 -1.05209,0.91316 -1.91497,2.03816 -1.91797,2.5 -0.003,0.46184 -2.18289,3.20234 -4.84375,6.08984 -3.91189,4.24509 -5.45449,5.25 -8.05859,5.25 -1.7713,0 -5.32929,0.85246 -7.90625,1.89453 -2.57696,1.04207 -6.11531,2.43351 -7.86328,3.0918 -3.50935,1.32161 -4.95391,3.55656 -2.82618,4.37305 0.75313,0.28899 4.21091,0.81679 7.68555,1.17187 8.37154,0.85553 12.25616,2.74326 18.61914,9.05273 l 5.30274,5.25782 -2.78907,1.33593 c -1.53402,0.73524 -2.94232,2.13081 -3.1289,3.09961 -0.286,1.48508 0.23478,1.68958 3.32226,1.30664 2.45919,-0.30502 4.79374,0.18095 7.10742,1.48047 3.82571,2.14877 6.46677,2.45316 8,0.91993 2.53158,-2.53158 17.43454,-1.03409 16.63672,1.67187 -0.1367,0.46363 -4.39933,2.16633 -9.47265,3.7832 l -9.22461,2.93946 -12.02735,-1.81836 c -6.61499,-1.00044 -14.92579,-2.24179 -18.46875,-2.75782 -6.51447,-0.94881 -10.70802,-2.48534 -9.65429,-3.53906 0.31628,-0.31629 3.6176,-0.68919 7.33593,-0.82812 9.52839,-0.35601 10.21408,-0.52455 6.25977,-1.53321 -1.925,-0.49102 -12.5,-1.41347 -23.5,-2.05078 -18.95141,-1.098 -20.20545,-1.05992 -23.91016,0.74414 -5.4147,2.63677 -6.70844,4.932 -3.89257,6.9043 1.74881,1.22492 2.06531,2.18998 1.61914,4.93945 -0.41366,2.5491 0.009,4.20758 1.66211,6.5293 1.98154,2.78284 2.64972,3.06882 6.32617,2.70117 2.77694,-0.27769 4.57055,-1.10293 5.52539,-2.54101 0.77755,-1.17104 2.07621,-2.12891 2.88672,-2.12891 0.81051,0 2.8706,-0.99507 4.57812,-2.21094 2.82788,-2.01362 4.31418,-2.2142 16.65625,-2.25 12.41755,-0.036 27.4735,1.6611 30.97656,3.49219 1.03494,0.54097 0.28881,1.32706 -2.71093,2.85742 -2.27573,1.16099 -4.71833,2.12357 -5.42774,2.13867 -0.70941,0.0151 -6.46406,2.60822 -12.78906,5.76172 -10.30883,5.13973 -11.53454,6.03094 -11.83008,8.60938 -0.27787,2.42436 -0.0257,2.79622 1.60742,2.36914 3.57042,-0.93368 5.2218,0.96653 5.23828,6.03125 0.0211,6.4664 0.63113,7.10783 6.17969,6.48242 4.04058,-0.45543 4.83226,-0.92258 5.67969,-3.35352 0.88491,-2.53847 1.33395,-2.76899 4.42383,-2.26757 3.32868,0.54017 3.45959,0.43747 4.15429,-3.26563 1.2954,-6.90508 3.0523,-9.13877 7.7754,-9.89062 2.34942,-0.374 7.99929,-1.79836 12.55664,-3.16407 8.53505,-2.55769 13.00247,-2.50644 15.22851,0.17578 1.9619,2.36395 0.68396,4.65943 -4.51367,8.10547 -7.17296,4.7557 -12.06801,8.37066 -16.83203,12.4336 -5.91616,5.04552 -16.89345,13.09709 -18.66797,13.6914 -0.825,0.2763 -4.31918,1.83568 -7.76367,3.4668 -5.88638,2.78746 -8.24059,4.96244 -7.88867,7.28711 0.18233,1.20436 -11.70053,5.32476 -15.6543,5.42773 -4.55599,0.11865 -11.53518,2.17699 -12.88281,3.80079 -1.03992,1.25302 -0.76217,1.89855 1.65039,3.82226 1.59601,1.27262 5.6329,3.29255 8.9707,4.49024 3.3378,1.19769 7.41836,2.7604 9.06836,3.4707 9.4135,4.05238 15.99568,4.65358 16.98047,1.55078 1.05367,-3.31982 7.14707,-7.81525 12.70117,-9.36914 2.92534,-0.81844 10.26836,-1.95895 16.31836,-2.53516 13.62122,-1.29731 10.53477,-1.1459 32.94531,-1.61328 10.41954,-0.2173 20.41808,-0.67158 22.22071,-1.00976 4.46512,-0.83766 7.17678,0.75989 17.83398,10.50781 4.95,4.52767 10.0478,9.1817 11.32812,10.34375 1.28035,1.16204 4.31819,5.15546 6.75,8.87305 2.43183,3.71759 5.32154,7.53051 6.42188,8.47265 2.13703,1.82979 2.64344,4.75188 1,5.76758 -0.55,0.33992 -1,1.85477 -1,3.36719 0,3.14129 -1.4155,5.23878 -5,7.4082 -2.29138,1.3868 -3.16757,1.3036 -10.5,-1.00781 -4.4,-1.38702 -8.675,-2.75889 -9.5,-3.04688 -2.74644,-0.9587 -3.44718,-1.16547 -12.5,-3.69922 -20.9977,-5.87696 -49.30908,-10.82465 -68.5,-11.9707 -3.575,-0.2135 -7.76614,-0.87392 -9.31445,-1.46875 -1.5483,-0.59484 -5.64046,-1.08203 -9.0918,-1.08203 -3.45135,0 -11.85825,-1.09994 -18.68359,-2.44336 -25.50641,-5.0204 -30.62406,-5.78777 -47.41016,-7.11523 -3.85,-0.30446 -10.825,-1.01711 -15.5,-1.58399 -4.675,-0.56688 -10.54365,-1.15887 -13.04102,-1.3164 -3.10898,-0.19611 -7.36559,-1.78882 -13.5,-5.05079 -4.92763,-2.62027 -9.44781,-5.14645 -10.04492,-5.61328 -1.26343,-0.98776 -27.89074,-10.12753 -37.41406,-12.84179 -10.61899,-3.02655 -25.41612,-5.63515 -43,-7.58204 -1.375,-0.15224 -6.325,-0.72776 -11,-1.27929 -4.675,-0.55153 -9.175,-1.02468 -10,-1.05078 -5.6771,-0.17956 -12.81845,-0.88976 -13.58594,-1.35157 -1.24376,-0.7484 -25.91754,-1.97914 -36.41406,-1.8164 -4.675,0.0725 -10.15463,0.57066 -12.17773,1.10742 -2.0231,0.53676 -6.931,1.19196 -10.90625,1.45703 -3.97526,0.26507 -10.64564,1.13167 -14.82227,1.92578 -4.17664,0.79411 -10.51875,1.69393 -14.09375,1.99805 -3.575,0.30412 -9.2,1.01799 -12.5,1.58789 -3.3,0.56991 -8.925,1.30337 -12.5,1.62891 -3.575,0.32555 -6.95651,0.95306 -7.51562,1.39453 -0.55913,0.44147 -5.25494,1.53703 -10.4336,2.43554 -5.17865,0.89851 -10.20426,2.05651 -11.16797,2.57227 -1.84307,0.98638 -6.20094,-0.14849 -7.28125,-1.89648 -0.32551,-0.52668 0.0797,-2.24276 0.89844,-3.8125 0.81869,-1.56974 1.49114,-3.46744 1.49414,-4.21875 0.003,-0.75132 1.52352,-3.45132 3.37891,-6 4.57982,-6.29114 5.01438,-8.23375 3.09375,-13.8418 -2.45762,-7.17598 -2.09015,-17.57933 0.86132,-24.37109 C 436.93786,202.21763 444.32057,195 446.5,195 c 0.68189,0 2.98516,-2.05326 5.11914,-4.5625 2.13397,-2.50923 5.92575,-6.67173 8.42578,-9.25 2.50002,-2.57826 6.17268,-6.9375 8.16016,-9.6875 5.20931,-7.2079 8.0392,-9.53955 12.94922,-10.66797 2.38984,-0.54924 5.2457,-1.23297 6.3457,-1.51953 1.1,-0.28656 2.9,-0.51275 4,-0.50195 4.04027,0.0397 15.50993,-2.01568 16.04102,-2.875 1.8043,-2.91942 17.51948,-9.71464 26.44531,-11.4336 3.27513,-0.63073 7.20292,-3.43483 6.74609,-4.8164 -0.21574,-0.65245 -2.04894,-2.31197 -4.07226,-3.68946 -4.92035,-3.34978 -11.21378,-12.8071 -12.06446,-18.12695 -0.37556,-2.34859 -1.05387,-4.74302 -1.50781,-5.32031 -1.35662,-1.72525 -2.29277,-10.36054 -2.38867,-22.04883 -0.15736,-19.188528 0.7785,-21.909473 10.74414,-31.269531 C 534.50002,56.359558 537,53.713086 537,53.349609 c 0,-0.363476 1.125,-2.136735 2.5,-3.939453 1.375,-1.802718 2.5,-3.73185 2.5,-4.287109 0,-2.108421 4.5789,-8.794758 8.95117,-13.072266 C 555.69621,27.408584 566.61482,20.00097 568.71484,20 c 0.66815,-3.08e-4 1.74025,-0.982946 2.38282,-2.183594 0.99063,-1.851017 0.83827,-2.448591 -0.99805,-3.935547 -0.81828,-0.662606 -1.69427,-1.034304 -2.71094,-1.09375 z M 754.38086,22 c -1.81421,0 -1.77666,4.066454 0.0703,7.669922 0.79809,1.557072 2.41387,4.967578 3.58985,7.580078 1.42581,3.167529 2.74929,4.75 3.9746,4.75 2.60602,0 2.9294,-2.888286 0.80665,-7.210938 C 761.8202,32.748473 761,30.581264 761,29.972656 761,28.168633 755.87843,22 754.38086,22 Z m 9.23242,28.5 c -1.46262,0 -2.33569,1.503482 -3.88086,6.6875 -1.09645,3.678618 -1.72642,7.384765 -1.40039,8.234375 0.94867,2.472191 3.40051,0.763483 5.68945,-3.964844 C 766.61893,56.091417 766.41049,50.5 763.61328,50.5 Z M 753,81 c -0.55,0 -1,0.675 -1,1.5 0,0.825 0.45,1.5 1,1.5 0.55,0 1,-0.675 1,-1.5 0,-0.825 -0.45,-1.5 -1,-1.5 z m -0.31836,12.925781 c -1.26217,-0.09099 -3.07039,0.994365 -3.74609,2.824219 -3.92157,10.61976 -12.18459,21.17556 -20.53125,26.22852 -2.25233,1.36353 -5.16179,3.8845 -6.46485,5.60156 -1.30306,1.71706 -3.56766,3.65293 -5.03125,4.30078 -1.61731,0.71589 -3.86565,3.42142 -5.73242,6.89844 -4.33465,8.07367 -10.31102,13.56214 -19.8125,18.19336 -11.19536,5.45687 -12.9476,6.39769 -14.64844,7.86328 -0.98189,0.84609 -1.5909,2.04348 -1.35351,2.66211 1.46351,3.81382 -14.66135,14.53694 -23.67578,15.74414 -1.35563,0.18154 -3.11709,0.8721 -3.91602,1.53515 -0.79893,0.66303 -1.73246,0.92769 -2.07226,0.58789 -0.3398,-0.3398 -1.99171,-0.77897 -3.67188,-0.97461 -3.0596,-0.35622 -6.03011,1.41046 -16.20898,9.63477 -2.02551,1.63657 -4.38065,2.97461 -5.23438,2.97461 -0.85373,0 -3.69564,1.29633 -6.31641,2.88086 -7.40993,4.48008 -11.45542,5.3933 -21.87695,4.9375 -8.51905,-0.3726 -9.38867,-0.24512 -9.38867,1.38476 0,0.98794 0.3375,1.82764 0.75,1.86524 0.4125,0.0376 2.86944,0.22279 5.45898,0.41211 6.48046,0.47381 12.10465,3.83796 14.14258,8.45703 0.90633,2.05424 1.64844,3.97931 1.64844,4.27734 0,0.29802 0.68129,2.16994 1.51367,4.16211 1.47165,3.52214 3.48733,4.8945 3.48633,2.37305 -10e-4,-2.49035 -4.20668,-12.30182 -6.18359,-14.42578 -1.11394,-1.19679 -1.74261,-2.63528 -1.39649,-3.19531 0.34612,-0.56003 4.33146,-2.89096 8.85547,-5.18164 4.524,-2.29069 8.89961,-4.72073 9.72461,-5.40039 0.825,-0.67969 3.35437,-1.95449 5.62109,-2.83204 2.26672,-0.87754 6.29186,-2.97152 8.94532,-4.65429 3.80131,-2.41072 5.9375,-3.06055 10.07031,-3.06055 2.88486,0 5.52336,-0.45 5.86328,-1 0.33992,-0.55 1.43401,-1 2.43164,-1 4.86724,0 14.26274,-5.5952 23.91406,-14.24023 2.94033,-2.63377 7.44033,-5.97745 10,-7.43165 13.39832,-7.61182 19.28484,-12.77549 28.50391,-25.00585 3.50167,-4.64546 5.95909,-6.77525 9.9043,-8.58594 C 735.06122,128.6941 746.3883,116.1665 750.42969,106 753.75038,97.646496 754,96.909314 754,95.453125 c 0,-0.99409 -0.56106,-1.472752 -1.31836,-1.527344 z m 88.36524,27.296879 c 0.40884,0.005 0.81106,0.24437 1.32617,0.67187 0.89967,0.74685 2.62521,1.07155 3.9375,0.74219 2.11546,-0.53095 2.29421,-0.30635 1.90039,2.37695 -0.32595,2.22083 0.0323,3.14148 1.42773,3.67578 1.024,0.39209 2.5534,1.56722 3.40039,2.61133 0.85893,1.05883 3.07015,2.01559 5,2.16406 2.99536,0.23045 3.50507,0.65365 3.78906,3.15039 0.18148,1.59536 1.6337,4.08811 3.25,5.57813 3.31498,3.05595 3.81113,6.38906 1.08008,7.25586 -1.01301,0.32152 -2.87876,1.68964 -4.14648,3.03906 -1.85032,1.96958 -2.06862,2.73948 -1.10352,3.90234 0.95775,1.15403 0.86391,1.63749 -0.46093,2.37891 -0.91466,0.51186 -2.23401,3.13505 -2.9336,5.83008 -1.4989,5.77429 -4.42239,11.31036 -6.74805,12.77734 -1.17037,0.73826 -3.46491,0.67291 -7.80078,-0.22265 -5.32214,-1.09927 -6.45782,-1.06054 -8.51757,0.28906 -3.14906,2.06334 -3.17985,2.05562 -6.65821,-1.66797 l -3.01172,-3.22656 3.11133,-2.59766 c 4.28393,-3.57638 3.96032,-4.83227 -1.19336,-4.63281 -5.76178,0.22299 -10.19138,-2.52288 -8.66601,-5.37305 1.66111,-3.10381 0.62465,-3.5498 -6.70118,-2.8789 -7.37301,0.67521 -10.62466,-0.36561 -5.17773,-1.65821 11.8428,-2.8104 12.8471,-3.32184 15.65039,-7.96289 1.47704,-2.44533 3.0562,-4.44531 3.50977,-4.44531 1.04094,0 -0.0589,3.77263 -1.99219,6.83398 -1.33002,2.1061 -1.29618,2.46645 0.35352,3.7168 3.56104,2.699 8.17416,2.09371 11.32812,-1.48828 1.375,-1.56161 3.4,-3.00863 4.5,-3.21484 1.2029,-0.22551 2,-1.16667 2,-2.36133 0,-1.66018 -0.77988,-2.03627 -4.75,-2.29102 -2.6125,-0.16764 -4.75,-0.59888 -4.75,-0.95898 0,-0.36009 2.025,-2.51481 4.5,-4.78711 5.15771,-4.73528 5.89371,-8.0618 2,-9.03906 -3.13372,-0.78651 -3.16718,-2.52416 -0.11523,-6.07227 1.27873,-1.48662 1.98068,-2.12429 2.66211,-2.11523 z m 91.15234,29.08789 c 3.93383,0.0511 7.03872,0.26336 7.28516,0.66211 0.34896,0.56462 0.20034,1.02734 -0.33008,1.02734 -3.61055,0 -16.64449,15.01639 -15.8086,18.21289 0.24662,0.94311 -1.53098,4.92343 -3.94922,8.8457 -2.41824,3.92226 -4.39648,7.47061 -4.39648,7.88672 0,0.41612 -3.82803,4.63054 -8.50781,9.36328 -6.67946,6.75506 -9.313,8.75467 -12.25,9.30664 -7.029,1.32099 -23.88958,-2.92865 -24.98047,-6.29687 -0.21061,-0.65026 0.54016,-1.67766 1.66797,-2.28125 1.58987,-0.85086 2.60096,-0.73447 4.50586,0.51367 2.10616,1.38001 2.84256,1.41952 5.15039,0.2793 3.32558,-1.64304 3.30171,-3.22689 -0.0547,-3.64649 C 879.13916,194.00956 878,193.62523 878,193.33008 c 0,-0.29516 2.025,-2.78823 4.5,-5.54102 2.475,-2.7528 4.5,-5.37983 4.5,-5.83789 0,-2.37821 -2.56802,-1.71391 -6.61719,1.71289 -6.1768,5.22742 -14.86306,10.24145 -20.88281,12.05469 -2.75,0.82834 -6.8,2.30243 -9,3.27539 -2.2,0.97296 -7.18649,2.72978 -11.08203,3.9043 -9.93002,2.99395 -16.73872,3.62414 -18.33789,1.69726 -1.05858,-1.27551 -0.72833,-1.83948 2.08008,-3.55273 1.83671,-1.12048 5.58984,-2.78256 8.33984,-3.69336 2.75,-0.9108 5.9,-2.22823 7,-2.92773 2.53622,-1.61281 13.86204,-5.41396 16.21875,-5.44336 C 855.6986,188.96629 857.625,188.07554 859,187 c 1.375,-1.07554 2.9575,-1.96632 3.51758,-1.97852 C 865.19277,184.96306 878,172.3776 878,169.80664 c 0,-1.8704 -3.31719,-0.58415 -5.6543,2.19336 -3.87385,4.60376 -4.54789,3.84515 -3.77734,-4.25 0.76056,-7.99006 1.77044,-10.75 3.93164,-10.75 0.7863,0 1.91869,-0.91193 2.51562,-2.02734 0.59696,-1.1154 1.49711,-1.77295 2.00196,-1.46094 1.07581,0.66489 35.77488,-1.37274 37.98242,-2.23047 1.78117,-0.69207 10.64283,-1.05592 17.19922,-0.9707 z m -71.83399,26.03515 c 0.091,0.0138 0.19866,0.16765 0.31836,0.4668 0.28891,0.72187 0.25225,1.58372 -0.0801,1.91602 -0.33229,0.33229 -0.56879,-0.25834 -0.5254,-1.3125 0.03,-0.7281 0.13554,-1.09327 0.28711,-1.07032 z M 771.4375,183 c 3.9588,0 6.30396,2.14049 4.23047,3.86133 -0.7467,0.61971 -2.7324,1.40234 -4.41211,1.73828 -2.51544,0.50309 -3.17279,0.23998 -3.7207,-1.48633 C 766.58391,184.11615 767.64456,183 771.4375,183 Z m 153.74609,2 c 1.71846,0 13.52995,12.87684 15.33399,16.7168 0.97755,2.08075 2.6207,4.86782 3.65039,6.19336 1.02969,1.32555 2.80059,5.60055 3.93555,9.5 1.13497,3.89946 2.33047,7.76484 2.6582,8.58984 1.10154,2.7729 1.29053,5.41912 1.89258,26.5293 0.61044,21.40445 -0.48064,34.60189 -2.99414,36.20117 -0.63814,0.40603 -3.21801,1.69982 -5.73243,2.875 -5.39112,2.51967 -7.84389,1.7431 -11.88085,-3.76172 -4.6487,-6.33899 -20.32573,-23.98865 -23.1836,-26.10156 -3.9564,-2.9251 -3.58874,-4.47043 1.38086,-5.8086 5.82921,-1.56965 10.226,-3.93237 17.53125,-9.42382 3.83709,-2.8844 6.22461,-5.41305 6.22461,-6.59375 0,-2.81917 -2.60726,-2.36814 -8.39648,1.45312 -9.39011,6.19808 -17.8547,9.80833 -26.10352,11.13477 -2.2,0.35377 -7.825,1.54695 -12.5,2.65039 -7.32575,1.7291 -10.36498,1.91082 -22,1.31445 -10.30577,-0.52824 -15.86609,-0.31316 -23.5,0.91016 -14.16781,2.27037 -22.80338,4.17652 -25.53906,5.64062 -2.19469,1.17456 -2.662,0.9206 -6.64063,-3.62695 -6.19341,-7.07904 -5.87244,-8.15319 3.92969,-13.16797 11.91072,-6.09354 13.72964,-7.22868 21.27148,-13.27539 10.11649,-8.11094 15.77069,-11.91649 17.72852,-11.9336 1.0575,-0.009 1.75,-0.77984 1.75,-1.94726 0,-2.71254 9.7749,-8.96143 11.42969,-7.30664 1.40916,1.40915 4.73483,1.7002 18.65625,1.625 12.14406,-0.0656 15.07369,-0.37872 17.5,-1.86328 3.49123,-2.13614 16.25195,-16.24233 18.5332,-20.48828 2.09151,-3.8928 3.88858,-6.03516 5.06445,-6.03516 z m -23.72656,6.17773 c -0.57078,0.0147 -1.1143,0.26874 -1.46484,0.83594 -0.44361,0.71777 -0.56676,1.93093 -0.27344,2.69531 0.72442,1.88782 3.67801,1.18612 4.09375,-0.97265 0.28271,-1.46799 -1.09975,-2.59097 -2.35547,-2.5586 z m -10.63281,3.91797 c -0.6177,0.10506 -1.19875,0.7356 -1.82422,1.9043 -0.93033,1.73834 -0.75981,2 1.29883,2 3.0429,0 3.97557,-0.96497 2.57031,-2.6582 -0.7726,-0.93093 -1.42722,-1.35115 -2.04492,-1.2461 z M 813.94141,205 c 0.58246,0 1.05859,0.45 1.05859,1 0,0.55 -0.19887,1 -0.44141,1 -0.24254,0 -0.71867,-0.45 -1.05859,-1 -0.33992,-0.55 -0.14105,-1 0.44141,-1 z m -277.47852,45.44727 c 3.6714,-0.004 8.04839,0.0913 14.03711,0.20312 37.12596,0.69341 34.02652,0.34018 33.84766,3.84961 -0.14722,2.88844 -1.23739,13.86641 -1.78711,18 -0.56032,4.21323 -1.85525,8.56462 -2.70508,9.08984 -0.4873,0.30116 -1.53314,2.09693 -2.32422,3.99024 -1.1621,2.78129 -2.73119,4.0402 -8.16797,6.55664 -4.54283,2.10267 -8.54101,4.98831 -12.30664,8.88476 -5.94542,6.15197 -7.84793,6.99051 -20.36523,8.9629 -7.96423,1.25493 -9.34252,1.94009 -16.62305,8.26562 -3.00692,2.6125 -6.22363,4.75 -7.14648,4.75 -2.08918,0 -4.31575,2.55495 -3.44922,3.95703 1.48256,2.39883 7.11361,-0.11324 15.52734,-6.92578 3.18595,-2.57965 13.21069,-6.12755 18.8457,-6.66992 6.0729,-0.58451 11.3568,-3.55058 15.64453,-8.78321 C 563.0965,300.17714 568.89094,296 571.39062,296 c 2.58124,0 14.12352,-13.44392 14.16602,-16.5 0.008,-0.55 0.32073,-3.25 0.69531,-6 0.37458,-2.75 0.95938,-8.15 1.30078,-12 0.3414,-3.85 1.00585,-7.4648 1.47657,-8.0332 1.38907,-1.67731 11.76801,-0.99307 21.9707,1.44922 5.225,1.25074 10.82324,2.49725 12.44141,2.76953 1.61818,0.27229 5.08419,1.33958 7.70117,2.37109 2.61698,1.03152 8.07427,2.28592 12.12695,2.78906 4.05269,0.50315 8.77765,1.6445 10.5,2.53516 1.72235,0.89067 3.76335,1.61914 4.53516,1.61914 0.77182,0 6.82392,1.8 13.45117,4 6.62724,2.2 12.54896,4 13.1582,4 0.60924,0 3.01615,0.86938 5.34766,1.93164 2.3315,1.06227 6.26328,2.6014 8.73828,3.41992 4.04047,1.33625 17.66655,8.36614 20.41602,10.53321 0.59659,0.47022 2.88398,1.42328 5.08398,2.11914 2.2,0.69586 5.8,2.28363 8,3.52734 2.2,1.24371 5.125,2.58525 6.5,2.98242 1.375,0.39717 3.175,1.28749 4,1.97656 0.825,0.68907 4.425,2.24912 8,3.4668 3.575,1.21768 6.96944,2.60217 7.54297,3.07813 0.57354,0.47595 6.42354,1.96459 13,3.30664 11.29104,2.30415 29.80176,8.89111 35.45703,12.61718 1.375,0.90595 4.62995,2.74321 7.23438,4.08399 2.6044,1.34077 4.91593,2.90902 5.13671,3.48437 0.75034,1.95534 -2.48819,9.96345 -4.91797,12.16016 -1.60794,1.45373 -3.68232,2.17715 -6.18554,2.15625 -2.07176,-0.0173 -5.11758,0.49213 -6.76758,1.13281 -1.72976,0.67165 -8.71608,1.18273 -16.5,1.20703 -21.40988,0.0669 -27.94112,-1.2729 -29.45508,-6.04297 -0.33381,-1.05173 -3.63077,-4.13725 -7.32617,-6.85742 -8.42619,-6.20248 -9.00575,-6.53366 -10.17578,-5.81054 -1.67199,1.03335 -0.0418,3.23755 4.5293,6.12695 2.43986,1.54222 5.62736,4.5231 7.08398,6.625 2.4667,3.55944 2.56157,4.08457 1.38281,7.65625 -1.80125,5.45782 -11.54837,15.5365 -16.53906,17.10156 -2.2,0.68991 -7.15,2.5099 -11,4.04297 -18.66141,7.43097 -32.88125,12.24114 -40,13.5332 -14.21012,2.57915 -18.76045,3.48446 -19.3418,3.84375 -1.95793,1.21007 -17.70318,3.80036 -24.6582,4.05664 -4.4,0.16213 -9.19053,0.77082 -10.64648,1.35352 -1.45594,0.58275 -2.88889,0.81814 -3.1836,0.52344 -0.2947,-0.2947 -2.02916,-0.0487 -3.85351,0.54492 -1.82435,0.59364 -8.49141,1.34458 -14.81641,1.66992 -6.325,0.32535 -16.45,1.16987 -22.5,1.87695 -9.10873,1.06459 -66.78044,1.92766 -67.73828,1.01368 -0.78875,-0.75262 -21.57227,-2.21152 -41.76172,-2.93164 -20.71962,-0.73903 -34.38564,-1.43962 -36.5,-1.86915 -1.1,-0.22345 -6.5,-0.70921 -12,-1.08007 -5.5,-0.37086 -14.05,-1.11746 -19,-1.65821 -24.93201,-2.72361 -31.91789,-3.24179 -42.5,-3.15429 -6.325,0.0527 -18.475,0.0506 -27,-0.006 -34.6891,-0.22933 -71.13647,0.0858 -81.5,0.70508 -16.88944,1.00922 -59.33175,0.93701 -65.50586,-0.11133 -3.02852,-0.51423 -6.85352,-1.64356 -8.5,-2.50977 -1.64648,-0.86621 -5.46914,-2.37207 -8.49414,-3.3457 -7.83035,-2.5203 -11.19933,-6.00391 -7.82422,-8.08985 1.6424,-1.01506 14.46779,-0.64912 16.58203,0.47266 4.14382,2.19865 34.87178,5.33523 45.74219,4.66992 4.4,-0.26929 8.20172,-0.49952 8.44922,-0.51172 0.2475,-0.0122 -0.0536,-0.52628 -0.66992,-1.14257 -0.61629,-0.61629 -4.86801,-1.22027 -9.44922,-1.34375 -4.58121,-0.12348 -10.58008,-0.52997 -13.33008,-0.90235 -2.75,-0.37238 -6.8,-0.92466 -9,-1.22851 -2.2,-0.30385 -6.475,-0.85702 -9.5,-1.22852 -3.92202,-0.48166 -5.5,-1.10614 -5.5,-2.17578 0,-1.15573 2.29512,-1.7672 10,-2.66406 5.5,-0.64022 12.1375,-1.2027 14.75,-1.25 3.64553,-0.066 4.75,-0.4574 4.75,-1.68164 0,-1.4013 -1.71934,-1.55319 -14.15234,-1.25 -9.90671,0.24159 -14.27144,0.006 -14.54493,-0.78516 -0.22367,-0.64719 1.23265,-1.4098 3.4043,-1.7832 7.06957,-1.21556 13.77185,-2.84651 19.79297,-4.81836 3.3,-1.08072 7.02311,-2.15693 8.27344,-2.39063 1.25033,-0.2337 4.47812,-1.29292 7.17383,-2.35547 2.6957,-1.06255 5.94759,-2.08892 7.22656,-2.27929 1.27896,-0.19037 3.73242,-1.09329 5.45117,-2.00586 3.08865,-1.63992 3.23114,-1.60673 12.25,2.80859 5.01875,2.45701 9.125,4.90532 9.125,5.44141 0,1.05994 -2.29521,1.69346 -8.5,2.3457 -6.40525,0.6733 -28.78803,3.701 -31.25,4.22656 -1.2375,0.26417 -2.25,1.11513 -2.25,1.89258 0,1.67985 2.63822,2.65676 6.61914,2.45117 1.58447,-0.0818 4.79937,0.56463 7.14453,1.43555 2.34515,0.87091 4.59515,1.62032 5,1.66602 2.18683,0.247 6.56882,1.43995 13.57422,3.69531 5.3204,1.71288 8.16612,2.19716 8.85742,1.50586 1.61031,-1.61031 -3.12851,-4.11546 -11.77539,-6.22461 -4.24817,-1.03622 -8.15495,-2.31706 -8.68359,-2.8457 -1.80267,-1.80253 0.37462,-3.13477 5.12305,-3.13477 2.60754,0 5.18292,-0.44074 5.72265,-0.98047 0.53974,-0.53974 5.52113,-1.10224 11.07031,-1.25 l 10.08985,-0.26953 6.08008,4.71094 C 285.62747,370.70874 296.79271,377 298.9707,377 c 1.83397,0 1.09229,-2.32441 -1.6582,-5.19531 L 294.625,369 h 2.7207 c 3.66561,0 9.59973,2.57676 12.6543,5.49414 4.53457,4.33093 17.45842,6.17305 13.99023,1.99414 C 323.31094,375.66979 322.20562,375 321.5332,375 c -0.67241,0 -2.02325,-0.8836 -3,-1.96289 -0.97675,-1.0793 -3.40829,-2.48653 -5.40429,-3.12891 -1.99599,-0.64238 -4.13323,-1.56772 -4.75,-2.05468 -2.65313,-2.09476 -12.03381,-4.05523 -16.73829,-3.49805 -4.03946,0.47842 -5.669,0.13807 -9.50781,-1.98828 -2.5481,-1.4114 -5.34263,-3.19649 -6.21093,-3.9668 C 275.05356,357.63008 274.04648,357 273.68555,357 c -0.36093,0 -3.01149,-1.4625 -5.89063,-3.25 -2.87914,-1.7875 -7.4941,-4.22087 -10.25586,-5.4082 -6.40582,-2.75395 -7.59234,-4.51347 -4.99609,-7.4043 3.72564,-4.14838 13.22648,-9.96089 15.14258,-9.26367 1.56893,0.5709 6.38567,4.09571 24.01562,17.57617 3.34399,2.55693 6.29883,3.56251 6.29883,2.14258 0,-2.01927 -11.34014,-14.28884 -17.47266,-18.9043 -10.53009,-7.92518 -10.38433,-7.60578 -5.94336,-13.02539 2.07509,-2.53238 5.46277,-5.46626 7.52735,-6.51953 2.06457,-1.05327 4.00683,-2.32527 4.3164,-2.82617 0.87382,-1.41388 8.42342,-5.11719 10.43165,-5.11719 8.01728,0 38.29333,32.27587 52.10742,55.54883 3.97061,6.68942 11.07982,11.98369 11.01172,8.20117 -0.0124,-0.6875 -2.49884,-4.85 -5.52344,-9.25 -3.02461,-4.4 -7.76926,-11.375 -10.54492,-15.5 -2.77566,-4.125 -6.92866,-9.71559 -9.22852,-12.42383 -5.62002,-6.61797 -21.45785,-22.44009 -27.04883,-27.02148 -4.71233,-3.8614 -5.01116,-5.52671 -1.32812,-7.40235 1.20725,-0.61481 4.89531,-2.69774 8.19531,-4.6289 10.97691,-6.42372 10.74668,-6.42876 19.48633,0.47656 15.41989,12.18346 30.21659,31.53035 40.72656,53.25 2.57898,5.32967 4.82994,8.75 5.75977,8.75 1.95635,0 1.97306,-2.38523 0.0273,-4 -0.825,-0.68469 -1.5,-2.0623 -1.5,-3.0625 0,-1.00019 -0.45,-2.09758 -1,-2.4375 -0.55,-0.33992 -1,-1.49421 -1,-2.56445 0,-1.07024 -1.10258,-4.23185 -2.45117,-7.02735 -7.26862,-15.06711 -21.99992,-32.88779 -37.94922,-45.9082 -3.03175,-2.475 -5.78965,-5.29509 -6.12891,-6.26758 -0.77964,-2.2348 3.41103,-8.04204 10.0625,-13.94336 7.07656,-6.27847 11.52144,-8.71803 17.07422,-9.37109 2.66884,-0.31387 5.08722,-0.62009 5.37305,-0.67969 1.08873,-0.22692 17.76423,1.43145 23.01953,2.28906 3.025,0.49365 10.94203,1.13185 17.59375,1.41993 14.55999,0.63058 19.40017,2.20567 19.41797,6.3164 0.0166,3.83905 2.27632,11.72108 5.28906,18.45117 2.0357,4.5475 2.38362,6.38533 1.70508,9 -2.07663,8.00213 -2.20407,13.87236 -0.44336,20.37696 1.49111,5.50861 2.63164,7.3806 7.43945,12.20703 3.12346,3.13556 7.08367,6.73339 8.79883,7.99414 2.65543,1.95188 2.98275,2.64651 2.20899,4.68164 -1.35562,3.56556 -0.41263,15.87256 1.52929,19.96484 1.86086,3.92148 6.77125,8.56055 9.0625,8.56055 1.26271,0 1.2626,-0.36225 -0.01,-2.82227 -0.80286,-1.55256 -2.14779,-3.39424 -2.98828,-4.09179 -2.18984,-1.8174 -5.44964,-11.08992 -5.16602,-14.69532 0.32912,-4.18376 1.37858,-5.58308 3.64648,-4.86328 5.51856,1.75152 -1.40731,-8.85808 -8.77734,-13.44531 -2.40261,-1.49542 -6.12394,-5.05335 -8.26758,-7.90625 -4.66452,-6.2079 -5.87879,-12.8141 -4.125,-22.41992 2.1334,-11.68493 2.07681,-12.69389 -0.88867,-16.10742 -2.79986,-3.22288 -6.61184,-12.59041 -6.55664,-16.11328 0.0381,-2.43552 5.71734,-4.34802 13.24414,-4.45899 2.86687,-0.0423 7.59187,-0.94132 10.5,-1.99805 5.92086,-2.15143 11.5327,-3.18061 19.73828,-3.61914 10.24437,-0.54748 20.48655,-1.65515 29.04883,-3.14257 22.78426,-3.95803 27.44869,-4.85637 38.46289,-4.86914 z m 264.71484,7.05468 1.91211,2.35938 c 2.09414,2.58615 2.44875,6.5942 0.93555,10.57422 -0.53639,1.41081 -1.54889,2.52581 -2.25,2.47851 -1.76408,-0.11894 -14.11713,-6.09748 -16.19922,-7.83984 -1.9226,-1.60889 -0.93618,-2.58092 3.49024,-3.44141 1.33818,-0.26014 4.6118,-1.29702 7.27343,-2.30273 z m -20.72851,5.52149 c 0.7715,0.003 1.63652,0.30743 2.00781,0.9082 0.31644,0.512 0.23007,1.12645 -0.19141,1.36524 -1.09595,0.6209 -3.26562,-0.29715 -3.26562,-1.38086 0,-0.59925 0.67772,-0.89576 1.44922,-0.89258 z M 363.79297,272 c -1.95129,0 -0.36673,2.62312 5.0332,8.33594 7.49036,7.92439 14.45239,17.14121 17.18164,22.74414 1.18438,2.43143 2.58876,5.23676 3.1211,6.23437 0.53234,0.9976 2.5431,5.7226 4.46875,10.5 1.92566,4.77739 4.16417,9.69805 4.97461,10.93555 1.60456,2.45008 3.44718,2.99247 3.39648,1 -0.0175,-0.6875 -0.68116,-2.10785 -1.47461,-3.15625 -0.79345,-1.0484 -2.16725,-4.4234 -3.05273,-7.5 -2.32266,-8.07007 -9.92232,-22.83606 -15.77735,-30.6543 C 376.60005,283.67744 365.28198,272 363.79297,272 Z m 102.11914,0 c -1.42487,0 -0.69421,9.3993 1.40039,18 0.87064,3.575 2.10605,9.2 2.74609,12.5 0.64005,3.3 1.56413,6.78129 2.05274,7.73633 0.4886,0.95504 0.88867,3.58069 0.88867,5.83398 0,2.82986 0.38659,3.96919 1.25,3.68555 1.87894,-0.61724 2.07328,-7.24914 0.36719,-12.55664 C 473.42619,303.4941 467,274.14347 467,272.4082 467,272.18371 466.51096,272 465.91211,272 Z m 482.0332,22.44531 c 0.12229,-0.0112 0.23764,-0.0111 0.34766,0 0.52809,0.0531 0.93842,0.35834 1.45312,0.87305 1.28028,1.28028 1.34516,2.26581 0.39258,6.04883 -0.62587,2.48555 -1.13867,6.0514 -1.13867,7.92578 0,1.87437 -0.41345,4.71401 -0.91797,6.30859 -0.50453,1.59457 -1.18663,4.13594 -1.51758,5.64844 -0.33095,1.5125 -1.20727,2.75 -1.94531,2.75 -0.73804,0 -4.88644,1.125 -9.21875,2.5 -4.33231,1.375 -7.9945,2.5 -8.13867,2.5 -0.91627,0 0.0893,-2.89187 1.73828,-5 1.07554,-1.375 1.96629,-2.921 1.97852,-3.43555 0.0122,-0.51455 0.85868,-1.86455 1.88281,-3 1.02413,-1.13545 2.37152,-4.16622 2.99414,-6.73437 0.62262,-2.56815 1.65871,-5.94315 2.30078,-7.5 0.64206,-1.55685 1.10545,-3.13122 1.03125,-3.5 -0.0742,-0.36878 1.92715,-1.87859 4.44727,-3.35547 2.24878,-1.31788 3.45455,-1.95095 4.31054,-2.0293 z m -246.61719,16.55664 c -1.91475,0.23527 -8.1469,6.24067 -14.0996,13.99805 -1.89922,2.475 -4.05604,4.9848 -4.79297,5.57617 -0.76714,0.61601 -1.09732,2.00401 -0.77149,3.25 0.77308,2.95627 2.56,2.73208 4.60352,-0.57617 2.10753,-3.41187 7.43982,-9.24427 8.46875,-9.26367 0.78199,-0.0147 6.49572,-9.48131 7.08398,-11.73633 0.24182,-0.92699 0.0439,-1.31392 -0.49219,-1.24805 z m 9.42188,5.0293 c -0.6875,0.0175 -1.95073,0.58 -2.80664,1.25 -1.97275,1.54426 -12.90535,17.13463 -19.44336,27.72656 -2.75,4.45515 -7.17614,10.98082 -9.83594,14.50196 -2.65981,3.52113 -4.54616,6.87325 -4.1914,7.44726 1.06186,1.71812 1.84231,1.19025 6.02734,-4.07226 7.0729,-8.89388 25.3297,-35.82863 27.20898,-40.14258 0.6645,-1.52536 1.902,-3.03983 2.75,-3.36524 1.84158,-0.70668 2.07492,-3.3911 0.29102,-3.3457 z m -503.24023,2.41797 c -0.79505,-0.006 -2.54686,0.74843 -5.18165,2.25195 -6.21988,3.54934 -14.09615,8.58806 -17.32812,11.08594 -1.375,1.0627 -3.60047,2.27775 -4.94531,2.70117 -1.34484,0.42341 -4.54534,2.06176 -7.11133,3.64063 -2.56598,1.57887 -5.12232,2.87109 -5.68164,2.87109 -0.55933,0 -1.61404,0.71842 -2.34375,1.59766 -0.7297,0.87924 -4.49791,3.63723 -8.37305,6.12695 -7.0186,4.50936 -8.95629,5.76693 -26.04492,16.90625 -4.95,3.22668 -9.43018,6.0494 -9.95703,6.27148 -1.63529,0.6893 -15.97005,10.43052 -17.36524,11.80078 -0.72678,0.71382 -1.87287,1.29688 -2.54687,1.29688 -0.674009,0 -4.307918,2.025 -8.076172,4.5 -3.768259,2.475 -7.002311,4.5 -7.1875,4.5 -1.00013,0 -10.988382,6.59482 -11.669922,7.70508 -0.441995,0.72002 -2.691995,2.25775 -5,3.41797 -2.308005,1.16021 -4.872266,2.67914 -5.697266,3.375 -0.825,0.69587 -2.625,1.6034 -4,2.01562 -1.375,0.41221 -3.847428,1.70184 -5.494141,2.86719 -2.791075,1.97518 -6.996953,4.32253 -15.505859,8.6543 -4.476834,2.2791 -7.669057,5.72525 -8.535156,9.21484 -0.821294,3.30906 0.884112,3.68091 3.970703,0.86719 1.135448,-1.03507 6.114453,-4.00581 11.064453,-6.60352 4.95,-2.59771 9.675,-5.28801 10.5,-5.97851 0.825,-0.6905 4.425,-2.9115 8,-4.93555 3.575,-2.02404 7.389966,-4.22544 8.476562,-4.89063 9.521028,-5.82849 12.422693,-7.53943 15.023438,-8.85937 5.692183,-2.8889 11.010192,-6.05669 14.18359,-8.44922 1.7508,-1.31999 3.42432,-2.40039 3.71875,-2.40039 0.52241,0 4.50237,-2.58003 19.41602,-12.58789 4.02529,-2.70118 9.75163,-6.48711 12.72461,-8.41211 2.97298,-1.925 9.8049,-6.51791 15.18164,-10.20703 5.37673,-3.68912 13.15039,-8.97676 17.27539,-11.75 16.2825,-10.94674 38.01604,-26.25983 38.5918,-27.19141 0.57571,-0.93153 0.5363,-1.39734 -0.082,-1.40234 z M 107.49219,329 c -0.27978,0 -4.83649,2.49759 -10.125002,5.55078 -5.288515,3.05319 -11.747763,6.36145 -14.353516,7.35156 -2.605753,0.99011 -9.636541,4.70596 -15.625,8.25782 -5.988459,3.55187 -14.038672,7.85581 -17.888672,9.5625 -3.85,1.70669 -9.7,4.36043 -13,5.89843 -3.3,1.53801 -6.839635,2.93328 -7.865234,3.09961 -2.240941,0.36341 -7.842416,3.3818 -8.869141,4.7793 -0.404078,0.55 -0.7416,1.5625 -0.75,2.25 -0.03111,2.53926 3.004804,1.50721 17.220703,-5.85156 C 37.191365,369.40407 38.696929,369 39.582031,369 c 0.885102,0 2.803811,-0.64984 4.263672,-1.44336 C 45.305564,366.76312 50.325,364.44242 55,362.39844 66.461858,357.38716 75.093825,352.69285 83.568359,346.86328 87.456489,344.18866 91.162024,342 91.800781,342 93.886603,342 108,331.93651 108,330.44922 108,329.65246 107.77196,329 107.49219,329 Z m 397.95508,0.38477 c -0.79357,-1.4e-4 -1.78983,0.97167 -2.69922,2.83984 -3.06303,6.29237 -6.55287,14.29405 -7.23828,16.59766 -0.37996,1.27699 -2.6742,4.75858 -5.09961,7.73632 -2.4254,2.97774 -4.41016,5.86997 -4.41016,6.42774 0,1.82048 1.52106,1.07738 5.60156,-2.73633 4.20248,-3.92771 15.77533,-26.0677 15.19336,-29.06641 -0.23495,-1.21062 -0.73044,-1.79872 -1.34765,-1.79882 z m -380.98438,5.93554 c -1.67119,0.23137 -11.21556,6.34998 -19.28906,12.42383 -2.37962,1.79024 -4.88209,3.25586 -5.560549,3.25586 -0.678461,0 -2.556917,1.26493 -4.173828,2.81055 -1.616911,1.54561 -4.739453,4.1305 -6.939453,5.74414 -2.2,1.61363 -4.358999,3.4987 -4.798828,4.18945 C 83.261342,364.43489 82.338272,365 81.650391,365 80.150643,365 69,374.76646 69,376.08008 c 0,1.82709 2.271809,0.84193 7.833984,-3.39844 C 88.099267,364.09345 94.470633,359.47156 97.072266,358 c 1.458557,-0.825 6.143614,-4.2 10.412114,-7.5 4.26847,-3.3 9.16855,-6.95438 10.88867,-8.12109 3.98274,-2.70139 7.1343,-6.20554 6.3164,-7.02344 -0.0387,-0.0387 -0.11515,-0.0506 -0.22656,-0.0352 z m 550.95117,0.98242 c -0.0908,0.0187 -0.19278,0.0598 -0.30468,0.12891 C 674.24153,336.96799 669,346.44922 669,347.48242 c 0,1.7456 2.84505,-0.10763 4.75,-3.09375 2.05056,-3.21437 3.02567,-8.36625 1.66406,-8.08594 z m 39.57032,7.97266 c -0.33673,0.50549 -0.68813,1.0433 -0.98438,1.51563 0.6156,-0.26065 1,-0.74788 1,-1.36524 0,-0.0539 -0.0104,-0.10011 -0.0156,-0.15039 z M 801.9668,361.5 c -1.97937,0 -2.40541,0.44201 -2.15625,2.23633 0.34283,2.46896 7.70879,17.67312 12.43164,25.66015 1.65989,2.80712 7.30282,13.42852 12.53906,23.60352 5.23624,10.175 11.40794,21.65 13.7168,25.5 2.30886,3.85 5.90885,10.15 7.99804,14 4.45565,8.21098 12.63347,20.61838 16.66602,25.28516 1.56112,1.80663 2.83789,3.92833 2.83789,4.71484 0,0.78651 0.7875,1.8581 1.75,2.38281 0.9625,0.52472 3.55,3.53468 5.75,6.6875 2.2,3.15282 6.25,8.33289 9,11.51172 7.46953,8.63431 13.32927,16.10515 15.66406,19.9707 1.14513,1.89593 5.29936,7.04727 9.23047,11.44727 7.0433,7.88338 9.70132,11.07739 16.60547,19.94336 2.66396,3.42093 4.09587,4.44168 5.99219,4.27539 3.29436,-0.28889 3.62059,-2.7331 0.79492,-5.94531 -5.43458,-6.178 -9.82226,-11.96088 -18.00977,-23.73242 C 903.09836,515.1251 897.86991,507.62378 889.04883,495 c -3.26674,-4.675 -9.44524,-13.675 -13.72852,-20 -4.28328,-6.325 -9.59357,-13.83266 -11.80273,-16.68359 -5.65705,-7.30047 -13.0641,-19.03547 -15.52539,-24.59961 -1.14768,-2.59453 -2.47228,-4.7168 -2.94531,-4.7168 -0.68116,0 -12.38311,-18.71628 -23.07227,-36.9043 -0.83876,-1.42718 -2.75126,-4.66027 -4.25,-7.18359 -1.49874,-2.52332 -2.75321,-5.44832 -2.78711,-6.5 -0.0338,-1.05168 -2.41121,-5.28711 -5.2832,-9.41211 -4.10434,-5.89499 -5.74872,-7.5 -7.6875,-7.5 z M 67.3125,378.25586 c -0.540638,-0.008 -1.377881,0.39902 -2.134766,1.08398 C 64.168555,380.25314 62.99452,381 62.568359,381 60.214594,381 39,400.51276 39,402.67773 c 0,2.48364 2.620825,1.07776 9.654297,-5.17773 13.008038,-11.56919 19.807547,-18.37214 19.085937,-19.09375 -0.100119,-0.10012 -0.247521,-0.14768 -0.427734,-0.15039 z m 234.14453,14.03711 c 0.52744,0.012 1.04368,0.0659 1.54297,0.16211 1.375,0.26497 7.45,0.75689 13.5,1.09375 6.05,0.33687 13.025,0.82302 15.5,1.08008 5.73619,0.59579 5.87562,0.5995 16,0.41015 12.7783,-0.23899 39.33254,0.87268 46.85547,1.96094 3.65443,0.52865 8.95132,0.96957 11.77148,0.98047 7.8373,0.0303 8.08263,0.7276 4.31055,12.26953 -0.58418,1.7875 -1.27775,4.375 -1.54102,5.75 -1.51306,7.90265 -4.05549,16.47666 -7.02539,23.69336 -1.8545,4.50637 -3.36823,9.23137 -3.36523,10.5 0.005,2.20937 -2.43704,10.66403 -3.98633,13.80664 -0.53364,1.08245 -2.51729,1.52656 -7.12891,1.59766 -3.51476,0.0542 -7.29062,0.36108 -8.39062,0.68164 -1.1,0.32056 -5.375,1.46326 -9.5,2.53906 -4.125,1.07579 -10.875,3.08043 -15,4.45508 -11.16234,3.71984 -11.82015,2.56247 -7.10156,-12.51172 1.59458,-5.09408 3.18988,-10.61172 3.54492,-12.26172 0.35504,-1.65 1.09374,-4.8 1.64062,-7 1.55868,-6.27029 1.29464,-10.48698 -1.09765,-17.5 -3.51316,-10.29884 -4.85046,-13 -6.43164,-13 C 344.02505,411 340,414.76075 340,416.18945 340,416.63574 338.43576,417 336.52344,417 c -2.58866,0 -3.88782,0.62652 -5.08594,2.45508 -0.88509,1.35082 -1.35908,2.86174 -1.05273,3.35742 0.30635,0.49569 0.11212,3.55392 -0.43165,6.79492 -0.54376,3.241 -1.20349,8.36758 -1.46679,11.39258 -0.2633,3.025 -1.18747,7.975 -2.05274,11 -0.86527,3.025 -2.00814,7.3 -2.53906,9.5 -0.53093,2.2 -1.58549,5.35 -2.34375,7 -0.75826,1.65 -1.49948,4.8 -1.64844,7 -0.29503,4.35745 -3.35194,11.5 -4.92187,11.5 -0.53883,0 -0.99773,-2.5875 -1.01953,-5.75 -0.10549,-15.2923 -1.26426,-38.91404 -1.97461,-40.25781 -0.48727,-0.92177 0.13663,-3.80481 1.60742,-7.41992 2.40668,-5.91549 3.06612,-9.67574 1.65625,-9.45313 -1.8713,0.29547 -2.13151,-0.29842 -1.20312,-2.74023 1.1469,-3.01663 -0.29969,-5.60234 -2.63282,-4.70703 -0.79179,0.30383 -2.08729,0.0144 -2.8789,-0.64258 -0.79223,-0.6575 -2.38146,-0.89547 -3.53516,-0.5293 -1.16607,0.3701 -2.74816,0.12439 -3.56641,-0.55469 -1.17793,-0.97761 -1.84604,-0.88182 -3.35351,0.48242 -2.4067,2.17803 -3.07192,5.87393 -3.16602,17.60547 -0.0418,5.20709 -0.7343,12.8418 -1.53906,16.9668 -0.80475,4.125 -1.60629,8.4 -1.7832,9.5 -1.5031,9.34644 -6.23267,22.80211 -11.125,31.6543 -0.80682,1.45986 -1.48075,3.25986 -1.49805,4 -0.0534,2.28716 -4.6282,4.83173 -9.66406,5.375 -9.57369,1.03282 -13.15673,1.1789 -14.125,0.58008 -0.54271,-0.33567 -1.87263,-3.23276 -2.95508,-6.43946 l -1.96875,-5.83008 2.04883,-1.9082 c 1.12652,-1.04951 2.7581,-2.13305 3.625,-2.4082 2.51816,-0.79923 4.43562,-4.72602 4.21289,-8.625 -0.11315,-1.98078 0.23422,-4.75682 0.77148,-6.16992 0.82053,-2.15816 0.26505,-3.96381 -3.46875,-11.28125 C 255.0005,453.656 253,449.1662 253,448.4707 c 0,-0.69551 2.3625,-4.38086 5.25,-8.18945 2.8875,-3.8086 5.7,-7.6201 6.25,-8.4707 0.90097,-1.39338 4.91993,-6.75026 18.99219,-25.31055 2.50204,-3.3 5.82065,-7.47416 7.37304,-9.27539 2.66849,-3.09625 6.89975,-5.01588 10.5918,-4.93164 z m 382.3457,20.12891 c -0.79966,-0.0581 -0.1099,4.02388 1.80079,10.50195 1.15582,3.91876 1.11636,4.5605 -0.35547,5.63672 -1.52072,1.11198 -1.4464,1.54285 0.88281,5.07812 2.17317,3.29845 11.86914,22.75891 11.86914,23.82227 0,0.77037 24.41228,44.26643 27.13086,48.33984 1.57844,2.36507 2.86914,4.54568 2.86914,4.8457 0,0.30003 0.88032,1.77971 1.95508,3.28907 1.07476,1.50936 3.73114,6.30375 5.9043,10.65429 2.17314,4.35054 5.38691,9.71016 7.14257,11.91016 1.75566,2.2 3.87904,5.35 4.7168,7 0.83776,1.65 2.21272,3.7875 3.05664,4.75 1.89523,2.16154 5.22461,2.29624 5.22461,0.21094 0,-1.73118 -3.56403,-9.16674 -5.49414,-11.46094 -0.69408,-0.825 -4.40355,-7.125 -8.24219,-14 -3.83863,-6.875 -8.02261,-14.3 -9.29883,-16.5 -1.27622,-2.2 -3.47808,-6.09781 -4.89257,-8.66211 -1.41448,-2.56431 -4.70977,-7.8659 -7.32227,-11.78125 -2.6125,-3.91534 -4.75,-7.47306 -4.75,-7.90625 0,-0.43319 -5.33304,-11.33159 -11.85156,-24.21875 -6.51851,-12.88715 -12.43412,-25.21422 -13.14649,-27.39258 -1.63815,-5.00925 -5.7691,-13.27797 -7.01953,-14.05078 -0.0666,-0.0412 -0.12637,-0.0625 -0.17969,-0.0664 z m -448.09375,9.81054 c 1.48174,-0.0592 1.85532,1.98621 1.48829,6.41211 -0.37533,4.526 -1.14943,6.65778 -3.45704,9.5293 -2.56621,3.19331 -3.22893,3.53727 -4.85546,2.52148 C 227.84855,440.04818 227,438.5286 227,437.31836 c 0,-5.3916 -3.96812,-3.67153 -10.98633,4.76172 -7.28802,8.75744 -6.34369,13.08707 2.87305,13.16797 4.74625,0.0417 5.86353,-0.32795 10.61328,-3.51758 3.70351,-2.48703 5.23703,-5.0291 7.90625,-13.09375 0.50417,-1.52329 0.88842,-1.63701 2.10547,-0.62695 0.81849,0.67929 1.48828,1.67799 1.48828,2.21875 0,0.54076 1.12718,2.32246 2.50586,3.96093 1.37867,1.63846 2.34498,3.2786 2.14648,3.64453 -3.81194,7.02733 -12.83831,21.62543 -15.25195,24.66602 -1.74637,2.2 -6.84966,9.5125 -11.33984,16.25 -4.49018,6.7375 -8.53583,12.25 -8.99024,12.25 -2.2246,0 -3.23844,-3.14119 -2.57422,-7.9707 0.81203,-5.90416 -0.73873,-6.85414 -2.49609,-1.5293 -1.32272,4.00787 -2.00756,4.25528 -4.41797,1.5918 -1.59141,-1.75849 -1.60294,-2.1498 -0.1543,-4.95118 0.86498,-1.6727 1.57227,-4.41763 1.57227,-6.0996 0,-2.80781 -0.16371,-2.95538 -2,-1.8086 -1.1,0.68696 -2,2.19606 -2,3.35352 0,1.15746 -0.89081,2.91035 -1.98047,3.89648 -1.91789,1.73566 -2.01036,1.71778 -2.86328,-0.58789 -0.83619,-2.26043 1.00787,-9.6674 3.83203,-15.39453 0.54244,-1.1 1.42428,-6.95 1.95899,-13 1.24099,-14.04135 1.81269,-18.30149 2.63671,-19.63477 0.91149,-1.47484 8.46099,-4.81685 10.94336,-4.84375 2.85269,-0.0309 15.33072,-6.17165 19.23828,-9.46875 1.76653,-1.49053 3.05432,-2.28476 3.94336,-2.32031 z m -43.50195,20.10352 c 0.88353,0.1153 0.91361,1.04488 0.41016,3.05078 -0.34237,1.36409 -1.97209,3.4416 -3.62305,4.61719 -2.67901,1.90762 -3.06902,1.96294 -3.62891,0.5039 -0.94831,-2.47127 1.27981,-6.42292 4.26172,-7.55664 1.21368,-0.46144 2.04997,-0.68442 2.58008,-0.61523 z m -119.302733,3.66601 c -1.087769,-0.0395 -2.75654,0.81292 -3.923828,2.29688 -0.994467,1.26427 -3.759843,3.31016 -6.144531,4.54687 -6.1305,3.17932 -11.281146,7.62622 -10.429688,9.00391 0.901556,1.45875 0.574776,1.50867 5.716797,-0.90625 C 66.005059,457.24162 74,450.26675 74,447.0918 c 0,-0.72208 -0.443042,-1.06616 -1.095703,-1.08985 z m 423.451173,1.36914 c 1.6412,0.008 3.14755,0.70401 5.76758,2.46094 6.18216,4.14562 16.81055,8.16797 21.58203,8.16797 5.96647,0 6.74939,1.47558 5.24414,9.89844 -0.68422,3.82865 -1.52226,7.41035 -1.86133,7.95898 -0.4021,0.65062 -2.88174,0.52155 -7.13086,-0.36914 -3.58307,-0.75107 -10.02576,-1.68345 -14.31641,-2.07226 -6.99583,-0.63395 -7.89432,-0.95374 -8.71093,-3.10157 -0.77811,-2.04658 -1.21129,-2.23458 -2.97071,-1.29297 -1.13245,0.60607 -2.55459,2.19205 -3.1621,3.5254 -0.60753,1.33334 -2.09848,3.07563 -3.3125,3.87109 -1.21405,0.79547 -2.47042,2.7583 -2.79102,4.36133 -0.70896,3.54477 -3.8591,8.75394 -9.19336,15.19922 -2.2,2.65822 -6.1126,8.14201 -8.69531,12.1875 -5.02777,7.87536 -10.24212,13.554 -11.12891,12.11914 -0.29895,-0.48371 -2.28406,-4.90814 -4.41211,-9.83204 -2.98898,-6.91588 -3.71876,-9.67625 -3.20703,-12.13281 0.72191,-3.46556 5.09387,-10.52489 10.41797,-16.82031 1.86056,-2.2 6.13478,-7.46614 9.49805,-11.70312 9.15218,-11.52975 20.31359,-20.83571 26.65039,-22.21876 0.62325,-0.13601 1.18535,-0.20975 1.73242,-0.20703 z m 45.08594,1.95703 c 1.31314,0.002 -0.096,12.70757 -2.60352,22.42188 -0.76585,2.967 -1.62748,4.25 -2.85156,4.25 -2.33615,0 -3.00017,-3.00562 -1.81641,-8.22461 0.53344,-2.35185 1.11889,-5.4195 1.30078,-6.81836 0.32395,-2.49146 3.78479,-9.48047 5.67188,-11.45508 0.11223,-0.11743 0.21128,-0.17395 0.29883,-0.17383 z m -292.25586,3.82227 c 0.6908,0.0621 0.89822,1.62826 0.60351,4.69531 -0.30407,3.16448 -1.47583,6.59436 -3.08203,9.02149 -1.42523,2.15367 -2.31728,4.18859 -1.98242,4.52343 0.33486,0.33486 2.54227,0.60938 4.90625,0.60938 3.33191,0 4.5498,0.4691 5.41406,2.08398 0.88561,1.65478 0.76885,2.46576 -0.56836,3.94336 -2.81199,3.10722 -6.93796,3.43125 -10.46679,0.82227 l -3.09375,-2.28711 -2.92969,3.13281 c -2.06054,2.20477 -3.5575,5.56142 -5.05078,11.32227 -1.16744,4.5038 -3.09722,10.05537 -4.28907,12.33594 -2.51676,4.81573 -4.4866,5.31405 -9.95312,2.52148 -4.65781,-2.37944 -4.47708,-3.33847 2.39844,-12.6875 2.70514,-3.67834 5.8397,-8.0375 6.96484,-9.6875 1.12515,-1.65 5.05983,-7.29487 8.74414,-12.54492 3.68431,-5.25005 7.68162,-11.31567 8.88281,-13.47852 1.63637,-2.94643 2.81115,-4.38828 3.50196,-4.32617 z m -73.2793,0.85742 c 1.28795,0.0446 1.02,1.88005 -0.79102,5.74414 -1.22367,2.6109 -3.0739,5.87078 -4.10937,7.24219 -1.68185,2.22749 -1.95426,2.30611 -2.55664,0.73633 -0.76968,-2.00575 4.23104,-12.67047 6.3164,-13.4707 0.46324,-0.17776 0.84341,-0.26225 1.14063,-0.25196 z m 214.69141,16.08399 c 0.86077,0.0427 1.343,0.47527 1.99804,1.37109 1.46313,2.00095 0.93632,6.35932 -0.97265,8.03711 -0.62578,0.55 -1.00184,1.92481 -0.83594,3.05469 0.2626,1.78847 -0.13772,2.00194 -3.08203,1.6582 C 383.9219,483.77123 381,485.89013 381,489.07227 c 0,1.8206 0.9699,2.35333 3.67383,2.01953 2.01336,-0.24855 2.34901,1.50835 1.34375,7.05273 -1.02076,5.62987 -4.67033,18.11767 -6.17188,21.12109 -0.48535,0.97081 -1.56711,4.72549 -2.40625,8.34376 -0.83913,3.61825 -2.28797,8.33592 -3.21875,10.48437 -0.93078,2.14845 -2.14928,3.87131 -2.70703,3.82813 -0.55776,-0.0432 -3.03867,-1.3465 -5.51367,-2.89649 -2.475,-1.54999 -10.35,-5.82838 -17.5,-9.50586 -7.15,-3.67748 -14.8,-7.7821 -17,-9.12305 -2.2,-1.34095 -4.675,-2.67825 -5.5,-2.9707 C 313.85984,513.1222 307.37119,503.45169 313.25,498.42383 321.3038,491.53582 360.19579,475 368.3418,475 c 1.93452,0 13.0011,-2.47594 19.02539,-4.25586 1.27695,-0.37728 2.16401,-0.60059 2.83593,-0.64648 0.13999,-0.01 0.27157,-0.012 0.39454,-0.006 z m 10.24414,5.98242 c 0.17973,-0.008 0.36801,-0.005 0.56445,0.0117 1.88585,0.15656 4.58398,1.4333 8.89063,3.47851 8.71174,4.1372 8.80814,4.3509 8.83984,19.83399 0.0203,9.9085 -0.81554,16.28532 -2.25,17.17187 -0.48765,0.30139 -0.88672,1.541 -0.88672,2.75586 0,1.21487 -1.11084,3.84541 -2.46875,5.84375 -1.3579,1.99834 -3.53823,6.03863 -4.8457,8.98047 -2.47028,5.55815 -4.29236,8.43102 -11.47657,18.09961 -2.34989,3.1625 -4.64259,5.75 -5.0957,5.75 -0.45311,0 -3.85482,-2.7761 -7.55859,-6.16992 -6.06662,-5.55897 -6.68258,-6.47583 -6.22657,-9.25 0.5895,-3.5861 4.39175,-17.16076 5.625,-20.08008 1.51394,-3.58367 2.80732,-7.87374 4.52344,-15 0.92714,-3.85 2.07671,-7.9 2.55274,-9 0.47603,-1.1 2.28229,-6.6125 4.01562,-12.25 2.18395,-7.10307 3.10089,-10.05011 5.79688,-10.17578 z m -30.6875,9.99805 c -1.16332,-0.0195 -2.48701,0.30365 -3.80274,1.00781 -2.56031,1.37024 -2.91788,2.99392 -1.3164,5.98633 2.25244,4.20872 9.49672,0.72068 8.79492,-4.23438 -0.2472,-1.74535 -1.73693,-2.72731 -3.67578,-2.75976 z M 427.14453,491 c 1.07028,0 5.16947,4.57901 8.35547,9.33203 1.1,1.64103 2.76948,4.13074 3.71094,5.5332 0.94147,1.40246 1.65865,3.96049 1.59375,5.68555 -0.0732,1.94686 0.65673,3.91064 1.92383,5.17774 1.89083,1.89083 6.27148,11.96406 6.27148,14.42187 0,0.59198 0.87514,2.713 1.94531,4.71289 3.01008,5.62507 7.0197,16.38555 6.44922,17.3086 -0.28162,0.45568 -0.95784,0.82812 -1.50195,0.82812 -0.54411,0 -2.88047,0.96491 -5.19141,2.14453 -2.31093,1.17962 -7.57617,3.82427 -11.70117,5.87695 -8.63633,4.2976 -13.79668,8.58028 -12.22852,10.14844 0.7037,0.7037 3.07531,0.0517 7.52149,-2.07031 3.57158,-1.70455 7.11546,-3.09961 7.87695,-3.09961 0.76149,0 2.27255,-0.60637 3.35742,-1.34766 2.27763,-1.55628 7.94194,-3.62996 18.22071,-6.67187 11.99625,-3.55019 28.44881,-1.44941 32.94922,4.20898 4.36952,5.49383 5.05012,21.27902 1.30664,30.31055 -0.45594,1.1 -1.87926,4.65813 -3.16407,7.90625 -1.52396,3.85269 -3.51347,6.80755 -5.7207,8.5 -7.12301,5.46177 -10.11914,8.3537 -10.11914,9.76563 0,1.00652 0.62115,1.2646 1.99023,0.83007 3.67885,-1.16762 4.31644,0.56915 1.34571,3.66993 -3.11426,3.25058 -8.08462,5.70623 -16.98828,8.39453 -7.8394,2.36696 -7.99493,2.38789 -9.22657,1.15625 -0.76372,-0.76372 0.18035,-3.54427 3.27735,-9.64844 8.06785,-15.9017 9.07837,-18.73071 7.73828,-21.67188 -1.33728,-2.935 0.0657,-2.97769 -17.13672,0.52344 -5.775,1.17537 -15.45,2.57377 -21.5,3.10742 -6.05,0.53364 -12.125,1.19913 -13.5,1.48047 -2.97991,0.60971 -5.01973,-2.3427 -8.64258,-12.51367 -1.2734,-3.575 -2.73423,-7.4 -3.24609,-8.5 -0.51186,-1.1 -1.164,-2.675 -1.44922,-3.5 -0.28521,-0.825 -2.11185,-5.27674 -4.06055,-9.89258 -1.9487,-4.61584 -3.25023,-8.89084 -2.89258,-9.5 1.06682,-1.81698 7.47359,-9.81976 11.29493,-14.10742 3.90581,-4.38244 10.51405,-13.79077 13.21093,-18.80859 2.65795,-4.94536 3.57393,-9.21822 4.75782,-22.19141 1.31539,-14.41406 1.87581,-17.5 3.17187,-17.5 z m -77.88672,1.23242 c -0.56152,0.0323 -1.13759,0.25223 -1.67383,0.69727 -1.8921,1.57031 -2.08442,4.69355 -0.33398,5.42578 2.82585,1.18208 5.23319,0.15155 5.24219,-2.24414 0.009,-2.37248 -1.54982,-3.97578 -3.23438,-3.87891 z M 333.14648,502 C 331.48749,502 328,505.75767 328,507.54492 c 0,0.81547 6.25486,-0.52674 7.38281,-1.58398 C 336.76896,504.66171 335.26603,502 333.14648,502 Z m -62.87109,10.38086 c 0.41192,-0.0149 0.72461,0.82902 0.72461,2.06055 0,3.06405 -0.56951,3.31209 -1.28906,0.56054 -0.28751,-1.09946 -0.11556,-2.25253 0.38281,-2.56054 0.0623,-0.0385 0.1228,-0.0584 0.18164,-0.0606 z m -12.99023,0.72461 c 0.74616,-0.0877 0.78133,0.67834 0.25586,3.00976 -0.41948,1.86116 -0.74165,4.17227 -0.71485,5.13477 0.0268,0.9625 -0.16184,1.75 -0.41992,1.75 -1.94949,0 -1.46858,-9.14524 0.51563,-9.80664 0.13605,-0.0453 0.25668,-0.0754 0.36328,-0.0879 z m -15.20704,0.54687 c 0.49072,0.0121 0.90494,1.23327 0.85157,3.65625 -0.0386,1.75504 -0.40905,4.05935 -0.82422,5.11914 -1.12701,2.87689 -1.87056,10e-4 -1.33594,-5.17187 0.24991,-2.41814 0.8179,-3.61566 1.30859,-3.60352 z m 28.64454,12.82618 c 0.6609,0.0531 1.27353,1.1357 1.26172,2.83007 -0.008,1.20504 -0.39835,2.79735 -0.86719,3.53711 -1.08338,1.70944 -2.41211,-2.9134 -1.51172,-5.25976 0.30679,-0.79948 0.72064,-1.13932 1.11719,-1.10742 z m 66.64257,8.86718 c 0.091,0.0138 0.19866,0.16765 0.31836,0.4668 0.28891,0.72187 0.25225,1.58373 -0.0801,1.91602 -0.33229,0.33229 -0.5688,-0.25834 -0.5254,-1.3125 0.03,-0.7281 0.13554,-1.09327 0.28711,-1.07032 z m -42.91406,1.16211 c 0.39783,-0.13063 0.57351,0.85475 0.64453,3.24219 0.15576,5.23644 0.1606,7.94555 0.0156,9.25 -0.0611,0.55 -0.48753,1 -0.94727,1 -1.20668,0 -1.37021,-11.21912 -0.18945,-13 0.18622,-0.28088 0.34395,-0.44864 0.47656,-0.49219 z M 304.10742,542 c 1.01516,0 1.16289,4.38731 0.26172,7.75 C 303.45541,553.1596 302,552.44207 302,548.58203 302,544.61146 302.83635,542 304.10742,542 Z m 7.25,0.46484 c 0.37673,-0.0231 0.789,0.4202 1.03125,1.1836 0.56785,1.78951 6.61133,42.33359 6.61133,44.35351 0,0.54907 -0.35704,0.99805 -0.79297,0.99805 -1.07788,0 -3.18173,-8.16038 -3.85351,-14.94531 C 314.05099,570.99918 312.99314,562.875 312.00195,556 311.01086,549.125 310.55941,543.1163 311,542.64844 c 0.11015,-0.11697 0.23185,-0.17589 0.35742,-0.1836 z m -38.98633,2.25196 c 0.69546,0.0689 1.23852,1.60473 1.41993,4.48437 0.33644,5.34098 -1.23885,7.10262 -2.96485,3.31445 -0.79512,-1.7451 -0.88011,-3.46324 -0.25586,-5.23828 0.62647,-1.78136 1.25987,-2.61413 1.80078,-2.56054 z m 7.16602,7.55859 c 0.0602,0.0134 0.12426,0.0539 0.19531,0.125 0.40317,0.40317 1.25684,2.50551 1.89649,4.67188 1.24361,4.21186 0.16465,6.27789 -1.57813,3.02148 -1.10712,-2.06869 -1.41608,-8.01924 -0.51367,-7.81836 z m 25.25781,4.22461 0.98047,2.5 c 0.53957,1.375 1.26217,4.525 1.60547,7 0.34331,2.475 1.11451,7.00356 1.71484,10.06445 0.60034,3.06089 0.93712,6.57392 0.74805,7.80469 -0.29688,1.9326 -0.57161,2.05892 -2.01367,0.93359 -2.15859,-1.68447 -5.31059,-22.37459 -3.94922,-25.92382 z m -7.73437,2.125 c 0.42226,-0.0637 1.00767,2.52947 1.3457,6.04883 0.36056,3.75399 0.90659,8.51367 1.21289,10.57617 0.83993,5.65579 -1.24799,4.58477 -2.92383,-1.5 -1.41335,-5.13169 -1.25683,-13.43168 0.28321,-15.07617 0.0266,-0.0284 0.0539,-0.0446 0.082,-0.0488 z m 37.30664,1.38867 c 0.68452,-0.0466 2.17457,3.19026 3.15234,7.39649 0.71463,3.07424 0.91204,5.58984 0.4375,5.58984 -1.02395,0 -3.09383,-6.96903 -2.40234,-8.08789 0.26335,-0.42611 0.0199,-1.05688 -0.53907,-1.40234 -0.55896,-0.34546 -1.01562,-1.367 -1.01562,-2.26954 0,-0.83087 0.13901,-1.21101 0.36719,-1.22656 z m -45.99219,2.23047 c 0.0375,-0.0108 0.0802,-0.009 0.12891,0.006 0.1298,0.0391 0.29886,0.16824 0.51171,0.37891 0.62696,0.6205 0.94849,2.4205 0.7129,4 -0.44803,3.00379 -0.58699,2.78919 -1.37305,-2.12891 -0.23504,-1.47049 -0.24296,-2.17998 0.0195,-2.25586 z m 39.11914,0.18359 c 0.0201,-0.003 0.0421,0.003 0.0664,0.0176 0.30234,0.18118 0.92781,1.73135 1.80468,4.72266 0.85613,2.92054 1.19088,5.67632 0.74415,6.12305 -0.44674,0.44673 -1.32932,-1.7612 -1.96094,-4.90625 -0.77978,-3.88278 -0.95564,-5.9107 -0.6543,-5.95704 z m 35.58008,6.03125 c 0.3295,-0.0518 0.72253,0.21389 1.11328,0.91211 0.55145,0.9854 0.54357,2.28477 -0.0195,3.29102 -0.82501,1.47421 -1.00721,1.41929 -1.61328,-0.49023 -0.61866,-1.94918 -0.20538,-3.59886 0.51953,-3.7129 z m -8.28516,2.70508 c 0.73473,0.0718 1.72719,0.68034 1.79297,1.41992 0.16089,1.80879 1.61311,6.98438 2.99414,10.66602 0.86543,2.30712 1.01433,3.75 0.38477,3.75 -0.56281,0 -1.21532,-0.5625 -1.44922,-1.25 -0.23389,-0.6875 -1.3449,-3.9339 -2.46875,-7.21484 C 354.91912,575.25422 354,572.17856 354,571.70117 c 0,-0.43027 0.34823,-0.58016 0.78906,-0.53711 z M 330.9668,578.5 l 1.59179,4 c 1.50899,3.79374 5.36767,17.14751 5.41797,18.75 0.0571,1.82052 -1.67159,0.47361 -3.32031,-2.58789 -1.86679,-3.46641 -2.28949,-5.42984 -3.16602,-14.66211 z m -7.08008,1.5 c 1.16468,0 1.68608,1.90656 2.5293,9.25 0.52125,4.53939 -0.73788,6.66759 -1.7754,3 -1.29669,-4.58379 -1.76898,-12.25 -0.7539,-12.25 z m 59.50586,1 c 0.21616,0 0.65216,0.675 0.96875,1.5 0.31658,0.825 0.14015,1.5 -0.39258,1.5 C 383.43601,584 383,583.325 383,582.5 c 0,-0.825 0.17643,-1.5 0.39258,-1.5 z m -42.18946,3.09766 c 0.13797,0.0279 0.38308,0.21408 0.74415,0.54687 0.68248,0.62908 1.02449,1.97908 0.76171,3 -0.26278,1.02092 -0.52995,1.33001 -0.59375,0.6875 -0.0638,-0.64252 -0.40576,-1.99252 -0.76171,-3 -0.31384,-0.88829 -0.38031,-1.28095 -0.1504,-1.23437 z M 392.05859,586 c 0.58246,0 0.78133,0.45 0.44141,1 -0.33992,0.55 -0.81605,1 -1.05859,1 C 391.19887,588 391,587.55 391,587 c 0,-0.55 0.47613,-1 1.05859,-1 z m -43.6582,0.33008 c 0.4562,-0.13238 1.56313,2.13228 2.58984,5.94922 0.70698,2.62827 1.0721,4.99235 0.81055,5.2539 -0.71488,0.71489 -2.58616,-3.84923 -3.35937,-8.19336 -0.35382,-1.98786 -0.31476,-2.93033 -0.041,-3.00976 z m 6.47461,1.13281 c 0.059,0.0107 0.12096,0.0343 0.18555,0.0742 0.51671,0.31935 0.93945,1.22894 0.93945,2.02148 0,2.22569 -1.55455,1.70346 -1.72656,-0.58007 -0.0733,-0.97291 0.18875,-1.59025 0.60156,-1.51563 z M 392.88281,589 c 0.48585,0 1.11859,0.9 1.40625,2 0.61756,2.36157 -0.80055,2.71405 -1.68164,0.41797 C 391.80187,589.31876 391.83734,589 392.88281,589 Z m -7.00781,1.10156 c 0.38732,-0.0695 1.75011,2.99455 3.47266,8.55078 1.47522,4.75844 2.46314,8.87084 2.19531,9.13868 -0.62119,0.62118 -2.27058,-3.59732 -4.51172,-11.54102 -1.16936,-4.14479 -1.4575,-6.09435 -1.15625,-6.14844 z m -30.68164,2.11133 c 0.21475,0.0638 0.67626,0.5839 1.38086,1.58984 0.86611,1.23655 1.41229,2.73773 1.21289,3.33594 -0.1994,0.59821 -0.90751,-0.109 -1.57422,-1.57226 -1.04669,-2.29725 -1.37745,-3.45978 -1.01953,-3.35352 z m 38.96484,1.7832 c 0.0315,-0.0121 0.0684,-0.0104 0.10938,0.006 0.70966,0.28201 2.74629,4.67354 3.50781,7.99805 0.56693,2.475 2.37189,8.6625 4.01172,13.75 1.63984,5.0875 2.65851,9.25 2.26367,9.25 -1.376,0 -2.05078,-1.35193 -2.05078,-4.10742 0,-1.52587 -0.39653,-3.01902 -0.88086,-3.31836 -0.48433,-0.29933 -1.11226,-1.56296 -1.39648,-2.8086 -0.28422,-1.24563 -1.6797,-6.09062 -3.09961,-10.76562 -1.41991,-4.675 -2.59007,-8.93778 -2.60157,-9.47266 -0.007,-0.3271 0.0424,-0.49485 0.13672,-0.53125 z M 380.83984,599 c 0.46172,0 1.37823,1.18283 2.03711,2.62891 1.58973,3.48909 0.8135,4.07487 -1.24218,0.9375 C 379.79258,599.75488 379.62516,599 380.83984,599 Z m -6.51562,3.46094 c 0.39708,0.14922 1.3033,1.60425 2.17578,3.53906 0.99712,2.21121 1.5875,4.24453 1.3125,4.51953 -0.275,0.275 -1.31538,-1.30832 -2.3125,-3.51953 -0.99712,-2.21121 -1.5875,-4.24453 -1.3125,-4.51953 0.0344,-0.0344 0.08,-0.0408 0.13672,-0.0195 z m 9.89258,5.45508 c 0.34561,0.007 1.30634,1.56114 2.40429,3.96679 1.35134,2.96079 2.26911,5.88579 2.03907,6.5 -0.51896,1.38559 -4.69079,-7.92248 -4.57813,-10.21484 0.008,-0.17192 0.055,-0.25351 0.13477,-0.25195 z M 377.77148,612 c 0.5585,0 1.27326,0.675 1.58985,1.5 0.31653,0.825 0.42086,1.5 0.23047,1.5 -0.19039,0 -0.90711,-0.675 -1.5918,-1.5 -0.71755,-0.86459 -0.81383,-1.5 -0.22852,-1.5 z m 102.89844,25.35156 c 2.04998,0.0366 3.6633,0.23285 4.30274,0.62891 1.29597,0.80278 1.29597,0.96493 0,1.35547 -0.80958,0.24397 -3.67519,1.22993 -6.36719,2.1914 -2.69201,0.96147 -6.29201,2.08534 -8,2.4961 -1.708,0.41076 -3.80448,1.03708 -4.6582,1.39258 -3.58799,1.49404 -4.08401,-3.62413 -0.57422,-5.92383 1.71193,-1.12171 8.05187,-1.98167 13.12109,-2.125 0.76038,-0.0215 1.49246,-0.0278 2.17578,-0.0156 z M 493.05859,639 c 0.58246,0 0.78133,0.45 0.44141,1 -0.33992,0.55 -0.81605,1 -1.05859,1 C 492.19887,641 492,640.55 492,640 c 0,-0.55 0.47613,-1 1.05859,-1 z" id="path12"/>
</svg>
