<?xml version="1.0" encoding="utf-8"?>
<svg xmlns="http://www.w3.org/2000/svg" version="1.1" viewBox="0 0 480 512">
	<path d="m 219.55066,503.32583 c -3.27213,-0.64579 -11.37213,-1.47725 -18,-1.84768 -11.80762,-0.65994 -24.06185,-3.3066 -31.7301,-6.85306 -4.86428,-2.24966 -11.33783,-4.44795 -19.82056,-6.73066 -4.125,-1.11005 -11.325,-3.74675 -16,-5.85933 -4.675,-2.11259 -9.625,-4.16078 -11,-4.55153 -3.6182,-1.02823 -14.00278,-6.512 -17.5,-9.2412 -1.65,-1.28764 -5.4219,-4.23144 -8.381997,-6.54177 -2.960098,-2.31033 -6.106538,-4.6506 -6.99209,-5.2006 -7.134697,-4.43123 -28.959085,-25.27915 -33.628493,-32.12388 -4.128983,-6.05254 -15.253047,-21.26295 -18.27944,-24.99426 -3.899158,-4.80735 -8.785313,-16.31383 -9.799513,-23.077 -0.393554,-2.6244 -1.323708,-6.22716 -2.06701,-8.00613 -0.743301,-1.77897 -1.371055,-5.38645 -1.395008,-8.01661 -0.04294,-4.71514 -0.775458,-8.93504 -2.913145,-16.78212 -3.746886,-13.75417 -5.275052,-65.46142 -2.10947,-71.37637 0.63726,-1.19073 0.901656,-2.5808 0.587547,-3.08903 -0.958997,-1.55169 2.176583,-14.52 4.905509,-20.28848 1.415211,-2.9915 2.582601,-6.29568 2.594202,-7.34261 0.03539,-3.194 4.756754,-15.53392 6.804776,-17.78521 1.059869,-1.16507 2.232493,-3.82963 2.60583,-5.92125 0.819981,-4.59394 7.509412,-17.78797 11.604528,-22.88841 1.630076,-2.03025 2.965456,-4.50525 2.967512,-5.5 0.0021,-0.99475 1.014556,-3.34745 2.25,-5.22821 1.235444,-1.88076 2.751396,-4.27062 3.368783,-5.31079 0.617386,-1.04017 2.079886,-2.99229 3.25,-4.33804 C 62.042634,173.08585 63,171.53821 63,170.99239 63,170.44658 63.859998,170 64.911106,170 c 2.464696,0 6.726144,-5.07193 7.598473,-9.04361 0.373457,-1.70034 1.31158,-3.33427 2.084717,-3.63095 C 75.367433,157.02876 76,156.28891 76,155.68134 c 0,-1.86893 10.911609,-11.38076 19.933323,-17.3762 4.711677,-3.13117 11.200697,-7.62857 14.420057,-9.99421 3.21936,-2.36565 6.24415,-4.05967 6.72176,-3.76449 0.4776,0.29517 1.89358,-0.11815 3.14661,-0.9185 1.25304,-0.80034 4.1835,-2.0131 6.51214,-2.69502 2.32865,-0.68191 4.98589,-2.07079 5.90499,-3.08638 0.9191,-1.0156 2.12842,-1.84654 2.68737,-1.84654 0.55895,0 1.7267,-0.63635 2.59501,-1.41411 0.86831,-0.77776 4.50374,-2.39369 8.07874,-3.59095 3.575,-1.19726 7.07337,-2.65004 7.77417,-3.22839 0.70079,-0.57835 1.55938,-0.76633 1.90799,-0.41773 0.3486,0.34861 1.30678,0.0752 2.12929,-0.6075 0.8225,-0.68272 3.58841,-1.26052 6.14645,-1.28398 2.93471,-0.0269 5.73795,-0.77802 7.59655,-2.03541 1.62005,-1.09602 5.64555,-2.84552 8.94555,-3.887784 3.3,-1.042266 6.675,-2.411195 7.5,-3.042065 5.26449,-4.025703 26.88613,-6.485888 61,-6.940793 10.175,-0.135682 20.75,0.148664 23.5,0.63188 2.75,0.483217 8.6,1.016535 13,1.185153 4.4,0.168617 9.35,0.888769 11,1.600336 1.65,0.711568 3.9,1.401956 5,1.534198 1.1,0.132241 3.53803,0.594552 5.41784,1.027359 3.02516,0.696512 3.33939,0.5825 2.73506,-0.992359 -0.68304,-1.779966 0.42218,-3.584154 17.49615,-28.561204 C 338.08278,49.982006 339.70369,47.973165 351.54723,35.73945 359.29362,27.737859 363,23.176833 363,21.645816 c 0,-3.602063 2.27778,-6.009815 4.89852,-5.178025 1.42583,0.452542 2.04123,1.246839 1.68508,2.174947 -0.30857,0.80413 0.0741,2.450976 0.85047,3.659658 0.77633,1.208682 1.55875,3.728137 1.73872,5.59879 0.30117,3.130518 -0.0309,3.591389 -4.17279,5.791272 -8.25314,4.383493 -11.59684,7.046991 -16.56764,13.197321 -2.7128,3.356516 -5.49486,6.104436 -6.18236,6.106489 C 344.5625,52.99832 344,53.9 344,55 c 0,1.1 -0.60769,2 -1.35043,2 -0.74274,0 -2.43024,1.425045 -3.75,3.166766 -1.31976,1.741721 -3.32998,4.104221 -4.46714,5.25 -8.45656,8.520634 -14.51898,17.896068 -25.91894,40.083234 -10.46939,20.37605 -12.16812,23.22097 -16.86833,28.25 -2.83998,3.03867 -2.89852,3.25 -0.90034,3.25 1.17543,0 2.4198,0.45734 2.76526,1.01631 0.34546,0.55897 1.04702,0.75742 1.55902,0.44098 0.51199,-0.31643 0.9309,0.1534 0.9309,1.04406 0,1.25979 0.83269,1.55046 3.75,1.30902 2.93222,-0.24269 3.81575,-0.771 4.0515,-2.42262 0.16582,-1.16174 1.62832,-3.38343 3.25,-4.93709 C 308.67317,131.897 310,130.03501 310,129.31291 310,128.59081 310.47296,128 311.05103,128 c 0.97266,0 3.65889,-5.33685 4.5025,-8.94533 1.30073,-5.56374 3.42131,-12.26374 4.65284,-14.70074 6.31806,-12.502385 10.5674,-18.842787 18.38419,-27.43091 2.29125,-2.517339 5.41045,-6.567339 6.93156,-9 2.61349,-4.179677 6.48888,-9.050771 12.0096,-15.09524 1.34237,-1.469722 4.77856,-5.722468 7.63598,-9.450547 2.85742,-3.72808 5.88864,-7.588081 6.73604,-8.57778 4.56215,-5.328198 5.89469,2.858129 1.36306,8.373822 -1.50326,1.829699 -3.2613,3.663106 -3.90676,4.074237 -0.64546,0.411132 -3.46299,3.660748 -6.26117,7.221369 C 358.7857,59.957277 348.53034,72.220264 342.1657,79.5 c -0.96173,1.1 -3.52994,4.25 -5.70715,7 -2.1772,2.75 -4.19394,5.225 -4.48165,5.5 -1.56761,1.498389 -3.84911,5.949788 -3.21578,6.274266 0.40638,0.208209 2.76388,0.47414 5.23888,0.590958 6.41787,0.302919 15.00576,2.109216 18.45843,3.882366 1.62714,0.83564 7.7849,2.78561 13.68391,4.33329 14.59039,3.82794 25.1549,8.8632 28.08468,13.38572 1.25014,1.92975 2.88796,3.51421 3.63961,3.52102 0.91373,0.008 1.17615,0.74079 0.79185,2.21034 -0.68015,2.60091 0.86944,4.80204 3.38063,4.80204 0.98682,0 1.94422,0.41047 2.12756,0.91215 0.35612,0.97452 10.59437,8.07645 11.68382,8.10468 1.32695,0.0344 20.67856,21.71374 22.74699,25.48317 2.38497,4.34628 9.4998,18.62709 15.19538,30.5 6.62417,13.80865 9.57864,22.01934 11.26032,31.2933 0.6138,3.38485 1.4731,6.84107 1.90957,7.68049 0.43646,0.83941 1.06114,3.77621 1.38816,6.52621 0.32703,2.75 1.22725,9.275 2.00051,14.5 1.28191,8.66213 1.4178,27.28957 0.28085,38.5 -0.22312,2.2 -0.70605,7.11992 -1.07316,10.93317 -0.36711,3.81324 -0.93753,7.3701 -1.26758,7.90414 -1.18584,1.91874 -4.27149,19.26674 -4.29776,24.16269 -0.0322,6.00204 -8.3583,32.82445 -11.28322,36.34877 -1.46443,1.76453 -2.4919,3.51507 -6.553,11.1646 -3.77358,7.10796 -10.07831,16.9816 -11.80449,18.48663 -0.63081,0.55 -4.62265,5.5 -8.87075,11 -9.45561,12.24214 -21.24516,24.64561 -32.5015,34.19397 -4.66445,3.95669 -9.58374,8.1379 -10.93177,9.29159 -1.34803,1.15369 -4.94803,3.50977 -8,5.23574 -3.05197,1.72597 -7.11407,4.40726 -9.02688,5.95842 -1.91282,1.55115 -3.83426,2.82028 -4.26988,2.82028 -0.43561,0 -2.69558,1.22831 -5.02215,2.72957 -13.74704,8.87053 -17.17567,10.68413 -26.12348,13.8182 -5.00866,1.75435 -10.23165,3.63911 -11.60665,4.18836 -6.82644,2.72688 -16.3458,5.19624 -24,6.22571 -4.675,0.62877 -10.4126,1.62809 -12.75023,2.22072 -2.33763,0.59262 -6.24392,0.85277 -8.68066,0.57812 -2.43673,-0.27466 -4.8386,-0.0912 -5.33749,0.4077 -0.49889,0.49889 -8.29259,1.1233 -17.31934,1.38759 -9.02676,0.26429 -18.21228,0.58481 -20.41228,0.71228 -2.2,0.12746 -6.6772,-0.29662 -9.94934,-0.94242 z m -16.8381,-12.94851 c 0.4616,-1.40357 -3.86241,-2.62747 -5.05818,-1.4317 -0.48406,0.48406 -0.56186,1.39506 -0.17289,2.02443 0.86362,1.39737 4.7203,0.96037 5.23107,-0.59273 z M 304,489 c 0,-1.49075 -2.85649,-1.87785 -3.96862,-0.5378 -0.83185,1.00231 -0.78695,1.45753 0.17688,1.79325 C 301.7866,490.80521 304,490.07236 304,489 Z m -127.75525,-8.5 c -0.4998,-2.61456 -1.6745,-3.2317 -2.77182,-1.4562 -0.65893,1.06618 1.17526,3.9562 2.51084,3.9562 0.40639,0 0.52383,-1.125 0.26098,-2.5 z m 19.29993,-8.4277 c -1.13139,-1.83064 -9.5249,-5.91332 -10.13329,-4.92893 -0.56753,0.91829 2.22736,3.7529 3.77122,3.82483 0.37544,0.0175 0.95908,0.90288 1.29699,1.96752 0.33791,1.06465 1.38073,2.09806 2.31739,2.29647 1.84952,0.39178 3.65763,-1.68758 2.74769,-3.15989 z M 232.5,473 c -0.33992,-0.55 -1.29303,-1 -2.11803,-1 -0.825,0 -1.22189,0.45 -0.88197,1 0.33992,0.55 1.29303,1 2.11803,1 0.825,0 1.22189,-0.45 0.88197,-1 z m 55,0 c 0.33992,-0.55 -0.30852,-1 -1.44098,-1 -1.13246,0 -2.05902,0.45 -2.05902,1 0,0.55 0.64844,1 1.44098,1 0.79254,0 1.7191,-0.45 2.05902,-1 z m 10.5,-1 c 0,-0.43231 -0.675,-1.04504 -1.5,-1.36163 -1.01522,-0.38957 -1.5,0.0505 -1.5,1.36163 0,1.31114 0.48478,1.7512 1.5,1.36163 0.825,-0.31659 1.5,-0.92932 1.5,-1.36163 z m -74,0 c 0,-0.55 -0.675,-1 -1.5,-1 -0.825,0 -1.5,0.45 -1.5,1 0,0.55 0.675,1 1.5,1 0.825,0 1.5,-0.45 1.5,-1 z m -88.5,-2 c -0.33992,-0.55 -1.06803,-1 -1.61803,-1 -0.55,0 -0.72189,0.45 -0.38197,1 0.33992,0.55 1.06803,1 1.61803,1 0.55,0 0.72189,-0.45 0.38197,-1 z m 9.68333,-1.21667 c -0.71756,-0.71756 -1.18333,-0.7766 -1.18333,-0.15 0,1.33478 1.18261,2.51739 1.85,1.85 0.28417,-0.28416 -0.0158,-1.04916 -0.66667,-1.7 z m 63.61552,-2.97734 c 0.51848,-2.69228 -3.38282,-4.21079 -6.03877,-2.35049 -1.68281,1.17868 -1.82245,1.5445 -0.58958,1.5445 0.88854,0 1.88731,0.70826 2.21949,1.57391 0.76805,2.0015 3.98337,1.44147 4.40886,-0.76792 z M 174,462.60765 c 0,-1.25087 -0.3375,-2.61182 -0.75,-3.02432 -0.4125,-0.4125 -0.75,-1.2375 -0.75,-1.83333 0,-0.59583 -0.45,-1.23337 -1,-1.41674 -1.14652,-0.38226 -1.23472,6.66892 -0.10625,8.49482 1.07487,1.73918 2.60625,0.43451 2.60625,-2.22043 z M 200,465 c 0,-0.55 -0.45,-1 -1,-1 -0.55,0 -1,0.45 -1,1 0,0.55 0.45,1 1,1 0.55,0 1,-0.45 1,-1 z m 31.43837,-1.19418 c -0.6555,-2.0653 -4.16934,-5.69949 -5.58138,-5.77255 -0.96362,-0.0499 -1.94614,3.01347 -1.30122,4.05697 0.30925,0.50037 1.22483,0.90976 2.03463,0.90976 0.8098,0 1.73139,0.675 2.04797,1.5 0.96498,2.51469 3.6103,1.85885 2.8,-0.69418 z m 34.89285,0.0356 c 0.34279,-1.31084 -0.16251,-3.08279 -1.28664,-4.51189 -1.01812,-1.29432 -1.63045,-3.19718 -1.36073,-4.22857 0.62751,-2.39963 -1.10126,-3.50787 -2.6191,-1.67899 -0.79535,0.95834 -0.8311,1.60439 -0.11331,2.04801 1.5553,0.96123 1.27188,3.62576 -0.60643,5.70127 C 258.9065,462.7608 258.89048,463 260.22257,463 c 0.8429,0 2.09274,0.675 2.77743,1.5 1.71583,2.06744 2.66755,1.87929 3.33122,-0.65857 z M 284.5,465 c 0.33992,-0.55 -0.11008,-1 -1,-1 -0.88992,0 -1.33992,0.45 -1,1 0.33992,0.55 0.78992,1 1,1 0.21008,0 0.66008,-0.45 1,-1 z m -130.18338,-1.75 c -1.01823,-2.87117 -3.59905,-5.3556 -5.00352,-4.81665 C 148.4475,458.76551 148,458.09593 148,456.46862 148,454.66667 147.45989,454 146,454 c -1.1,0 -2,0.43473 -2,0.96607 0,1.33585 3.24145,8.01646 3.93521,8.11044 2.42214,0.32813 4.33856,0.86392 4.82309,1.34845 1.2096,1.20961 2.15199,0.49906 1.55832,-1.17496 z m -17.49627,-4.96646 C 135.70767,456.94284 133,456.50889 133,457.67126 c 0,0.36919 0.75437,1.50483 1.67638,2.52363 1.25925,1.39146 1.86708,1.54381 2.44279,0.61228 0.42154,-0.68205 0.28707,-1.81769 -0.29882,-2.52363 z m 27.61579,-0.19375 c -1.07768,-2.61619 -1.11334,-5.5078 -0.0849,-6.88411 0.68399,-0.91533 0.33494,-1.73717 -1.19203,-2.80671 C 161.97165,447.56716 161,446.23711 161,445.4433 c 0,-3.1912 -2.77109,-1.27292 -3.33219,2.3067 -0.78361,4.99913 -0.27804,7.74582 1.43004,7.76915 1.88239,0.0257 2.16516,0.63188 1.32098,2.83177 -0.43928,1.14476 -0.19056,2.17212 0.65191,2.6928 1.83364,1.13325 4.19518,-0.93956 3.3654,-2.95393 z M 328,461.16667 c 0,-1.30208 -1.18877,-2.16804 -2.15579,-1.57039 C 324.80999,460.23547 325.70176,462 327.05902,462 327.57656,462 328,461.625 328,461.16667 Z M 354,459.5 c 0,-0.825 -0.45,-1.5 -1,-1.5 -0.55,0 -1,0.675 -1,1.5 0,0.825 0.45,1.5 1,1.5 0.55,0 1,-0.675 1,-1.5 z m -164,-2.0396 c 0,-0.72909 -0.9,-1.61127 -2,-1.9604 -2.41657,-0.76699 -2.52508,-1.83206 -0.40287,-3.95427 1.97473,-1.97474 1.30914,-3.90581 -2.12088,-6.15325 -2.96006,-1.9395 -7.49749,-1.05223 -8.22067,1.60752 -0.33942,1.24836 -0.24424,1.26586 0.56736,0.10428 1.02307,-1.46421 4.17706,-0.86246 4.17706,0.79695 0,0.5302 -0.85032,1.23388 -1.88961,1.56373 -1.03928,0.32986 -2.10393,1.72092 -2.36589,3.09126 -0.50313,2.63198 0.66151,4.2139 1.77543,2.41153 0.81873,-1.32473 3.48007,0.65223 3.48007,2.58514 0,1.3452 3.52848,2.34832 5.75,1.63468 0.6875,-0.22085 1.25,-0.99808 1.25,-1.72717 z m 49.78053,1.38119 c -0.21237,-0.63712 -1.43528,-1.31852 -2.71757,-1.51421 -1.9828,-0.3026 -2.14351,-0.12937 -1.07475,1.15841 1.47225,1.77396 4.3552,2.04444 3.79232,0.3558 z m 67.66572,-2.27052 c -1.2975,-0.95762 -2.27958,-1.1031 -2.94625,-0.43643 -0.66667,0.66667 -0.35125,1.47881 0.94625,2.43643 1.29751,0.95761 2.27959,1.10309 2.94626,0.43642 0.66666,-0.66666 0.35125,-1.47881 -0.94626,-2.43642 z M 283,457 c 0,-0.55 -0.45,-1 -1,-1 -0.55,0 -1,0.45 -1,1 0,0.55 0.45,1 1,1 0.55,0 1,-0.45 1,-1 z m -64.18045,-2.17167 c -0.41927,-2.84935 -2.42322,-3.45189 -3.08346,-0.92713 -0.58709,2.24504 -0.036,3.0988 2.00013,3.0988 0.87128,0 1.28179,-0.82293 1.08333,-2.17167 z m -86.92861,-1.45974 c -0.86644,-1.044 -1.5115,-1.14803 -2.2902,-0.36933 -0.7787,0.7787 -0.67733,1.33537 0.35987,1.9764 2.03286,1.25637 3.37762,0.13681 1.93033,-1.60707 z m 123.87972,0.81944 c 0.21761,-0.65284 -0.33617,-1.46781 -1.23063,-1.81104 -2.08606,-0.8005 -2.75571,-0.10262 -1.94036,2.02215 0.70046,1.82537 2.53282,1.70338 3.17099,-0.21111 z M 229,452.12244 c 0,-0.48265 -0.675,-1.43775 -1.5,-2.12244 -1.21651,-1.00961 -1.5,-0.96975 -1.5,0.21089 0,0.80068 0.3,1.75578 0.66667,2.12244 0.94968,0.94969 2.33333,0.82463 2.33333,-0.21089 z m -108,-2.18146 c 0,-1.13246 -0.43035,-1.79305 -0.95633,-1.46797 -0.52598,0.32507 -0.70283,1.25163 -0.39301,2.05902 0.79323,2.06711 1.34934,1.82352 1.34934,-0.59105 z M 204.5,451 c -0.33992,-0.55 -1.06803,-1 -1.61803,-1 -0.55,0 -0.72189,0.45 -0.38197,1 0.33992,0.55 1.06803,1 1.61803,1 0.55,0 0.72189,-0.45 0.38197,-1 z m 32.72222,-2.22222 c -2.32419,-2.3242 -3.65281,-2.06344 -2.66061,0.52216 0.56844,1.48135 3.38569,2.75935 4.38283,1.98821 0.24445,-0.18904 -0.53055,-1.31871 -1.72222,-2.51037 z m -65.91984,-1.47673 c -0.55456,-1.67235 -0.59733,-8.44243 -0.10612,-16.80105 0.84567,-14.39058 2.51048,-20.5 5.58621,-20.5 1.13637,0 1.30542,0.73338 0.74912,3.25 -0.39513,1.7875 -0.90884,5.05 -1.1416,7.25 -0.23275,2.2 -0.6044,5.4131 -0.8259,7.14021 -0.31135,2.42776 0.21531,3.73232 2.32132,5.75 1.49821,1.43539 3.4869,2.60979 4.41931,2.60979 0.9324,0 1.69528,0.675 1.69528,1.5 0,1.70631 1.7876,1.92976 4,0.5 1.24421,-0.80407 1.15895,-0.9746 -0.5,-1 -1.3725,-0.021 -1.60851,-0.27922 -0.75224,-0.82295 0.79492,-0.50477 1.41106,-4.21915 1.69771,-10.23468 0.54845,-11.50956 1.58958,-16.9091 4.52011,-23.44237 1.99778,-4.4538 2.33277,-4.76596 3.06657,-2.85762 0.52734,1.37145 0.12787,4.79002 -1.11011,9.5 -2.45668,9.3466 -2.29063,24.85762 0.2661,24.85762 0.52525,0 0.87298,-1.0125 0.77273,-2.25 -0.49715,-6.13753 0.0517,-8.75 1.83824,-8.75 1.11852,0 2.25016,1.22945 2.99144,3.25 1.30365,3.55345 9.11645,13.17633 9.98923,12.30356 0.64913,-0.64914 0.86789,-2.81582 1.6713,-16.55356 0.88405,-15.1165 3.27335,-24.90638 5.71093,-23.39987 1.00537,0.62135 0.6688,6.22492 -0.74479,12.39987 -0.31477,1.375 -0.48913,5.875 -0.38747,10 0.10166,4.125 0.18494,9.13137 0.18505,11.12528 2e-4,3.44692 0.15412,3.61316 3.12876,3.37916 2.95214,-0.23223 3.11087,-0.45129 2.81506,-3.88479 -0.28923,-3.35698 -0.0753,-3.68632 2.76394,-4.25416 1.86259,-0.37252 3.11136,-1.25698 3.16337,-2.24049 0.2956,-5.59013 0.676,-7.85232 1.61847,-9.625 0.58484,-1.1 1.36577,-3.82739 1.73542,-6.06087 0.36964,-2.23348 1.57644,-5.38348 2.68178,-7 l 2.0097,-2.93913 -0.51535,4.1006 c -0.28344,2.25532 -0.79083,7.65532 -1.12753,12 -0.3367,4.34467 -0.84953,9.9244 -1.13963,12.3994 -0.77682,6.6276 -0.50448,12.24431 0.64966,13.39845 1.63881,1.63881 4.08959,-1.63595 4.71525,-6.30059 0.44504,-3.318 0.14276,-4.63198 -1.46946,-6.38758 -1.52876,-1.66473 -1.81735,-2.76563 -1.16922,-4.46028 0.47329,-1.2375 1.21253,-2.24443 1.64276,-2.23762 0.9504,0.015 5.28222,6.55399 5.28222,7.9736 0,0.55771 0.45,1.01402 1,1.01402 0.55,0 1,-1.55383 1,-3.45295 0,-1.89912 0.39492,-4.48662 0.8776,-5.75 0.48268,-1.26338 2.61431,-7.80955 4.73695,-14.54705 2.12264,-6.7375 4.26486,-12.25 4.76049,-12.25 1.04168,0 0.0179,11.83639 -1.33059,15.3831 -0.49367,1.29843 -1.43239,6.01841 -2.08605,10.48884 -0.65367,4.47043 -1.52535,8.12806 -1.93708,8.12806 -0.41172,0 -0.74859,1.8 -0.74859,4 0,2.2 0.38863,4 0.86363,4 0.475,0 0.86364,-0.675 0.86364,-1.5 0,-2.46477 2.99342,-1.73201 3.06384,0.75 0.24308,8.56785 1.98899,12.8549 3.9673,9.74164 0.52132,-0.8204 0.70512,-2.14947 0.40845,-2.95349 -0.29668,-0.80401 -1.01106,-4.96651 -1.58753,-9.25 -1.10608,-8.21879 -0.0184,-20.9208 2.35312,-27.47901 1.82295,-5.04128 3.13003,-3.99955 2.43523,1.94086 -0.33772,2.8875 -0.91719,8.625 -1.28769,12.75 -0.60638,6.75096 -0.5165,7.37014 0.89989,6.19969 0.86546,-0.71517 1.88953,-3.64017 2.27573,-6.5 0.3862,-2.85983 1.3073,-6.32469 2.04688,-7.69969 1.66346,-3.09261 1.79857,-1.24395 0.43469,5.94776 -0.64922,3.42331 -0.65167,5.8531 -0.007,7.05745 1.0693,1.998 2.28036,8.01675 2.41352,11.99479 0.046,1.375 0.3584,2.725 0.69416,3 0.33575,0.275 1.35981,1.9625 2.27568,3.75 2.07283,4.04554 3.25818,4.12669 3.82542,0.26187 0.33201,-2.26218 -0.008,-3.12999 -1.40103,-3.572 -1.01177,-0.32112 -1.57018,-1.01977 -1.2409,-1.55254 0.32927,-0.53278 1.49511,-0.68417 2.59075,-0.33642 1.69942,0.53937 1.95872,0.21479 1.76504,-2.20933 C 277.43402,431.191 278.05064,422 278.95469,422 c 0.52507,0 1.25409,1.59598 1.62004,3.54663 1.21673,6.48574 2.11932,2.67201 2.80699,-11.86039 0.24668,-5.21303 0.83426,-8.20169 1.7201,-8.74917 0.7543,-0.46618 1.39692,-2.72201 1.46262,-5.1343 0.24615,-9.0382 0.46277,-10.80277 1.32615,-10.80277 0.48983,0 1.12449,1.4625 1.41036,3.25 1.15339,7.21203 3.31444,11.53461 4.94931,9.89974 0.7533,-0.7533 0.68975,-1.51709 -0.21715,-2.60984 -0.7579,-0.91321 -1.04413,-2.73479 -0.70006,-4.45516 0.34838,-1.74189 0.0927,-3.3164 -0.63673,-3.92181 C 290.83869,389.62123 291.10223,379.5 293,379.5 c 1.167,0 1.55472,1.554 1.74649,7 0.27736,7.87673 1.44001,13.12321 2.82546,12.75 0.51043,-0.1375 0.97305,-1.52543 1.02805,-3.08428 0.055,-1.55886 0.4658,-4.14636 0.9129,-5.75 0.44709,-1.60365 0.71986,-3.47822 0.60616,-4.16572 -0.1137,-0.6875 0.37549,-1.24626 1.0871,-1.24169 0.71161,0.005 3.09384,4.35617 5.29384,9.67021 2.2,5.31405 4.62514,9.86869 5.3892,10.12142 0.84259,0.27872 1.11447,0.015 0.69098,-0.67021 -0.38402,-0.62135 -0.35546,-1.68432 0.0635,-2.36215 0.41892,-0.67783 0.864,-1.91533 0.98905,-2.75 0.12506,-0.83467 0.52494,-3.06927 0.88862,-4.96578 0.59351,-3.09494 0.49575,-3.31085 -0.9542,-2.1075 -1.97815,1.64172 -2.00952,1.6055 -3.3576,-3.87776 -0.87523,-3.55996 -0.81825,-4.64359 0.28922,-5.5 1.16094,-0.89776 1.17082,-1.93692 0.0624,-6.56654 -0.7242,-3.025 -1.79973,-8.2 -2.39005,-11.5 -2.5148,-14.05822 -4.17913,-21.64643 -5.14258,-23.44665 C 302.46285,339.99632 302,338.3269 302,337.34352 c 0,-3.30362 3.78313,1.73637 4.41395,5.88038 0.75095,4.9332 6.22284,22.37704 8.37812,26.7086 1.99538,4.01022 3.9617,4.99404 4.79808,2.40066 0.32516,-1.00824 1.00456,-2.73316 1.50977,-3.83316 1.33747,-2.9121 0.40136,-11.14158 -1.48155,-13.02448 -0.8901,-0.89011 -1.61837,-2.43113 -1.61837,-3.4245 0,-0.99337 -0.62517,-2.32497 -1.38926,-2.95911 -0.76409,-0.63415 -1.62111,-2.15175 -1.90449,-3.37245 -0.48025,-2.0688 -5.67361,-19.89053 -7.17138,-24.60959 -0.38461,-1.21181 -0.2324,-2.10987 0.3576,-2.10987 0.56499,0 1.58057,1.84684 2.25686,4.10409 0.67629,2.25725 1.81936,4.3304 2.54014,4.60699 0.72079,0.27659 1.31218,1.01725 1.3142,1.64591 0.006,1.85679 5.58856,15.63524 6.84328,16.88996 C 321.48113,346.88113 322,347.985 322,348.7 c 0,0.715 0.36313,1.3 0.80696,1.3 0.44383,0 1.29595,1.2375 1.89362,2.75 1.00085,2.53283 1.09506,2.57232 1.19304,0.5 0.0731,-1.5454 0.73073,-2.25 2.10011,-2.25 1.42012,0 1.90704,0.56799 1.69243,1.97423 -0.16571,1.08583 -0.56168,2.23462 -0.87994,2.55288 -0.31826,0.31826 0.0542,2.68161 0.82778,5.25189 0.77354,2.57028 1.1891,5.23962 0.92346,5.93186 -0.26564,0.69225 0.43516,1.75001 1.55734,2.35058 1.21428,0.64986 1.80936,1.69383 1.46984,2.5786 -0.31377,0.81766 0.13962,2.85985 1.00754,4.53821 2.00435,3.876 3.7454,2.48561 2.46741,-1.97046 -0.76735,-2.6756 -0.61388,-3.37596 0.91957,-4.19664 1.07106,-0.57321 2.11858,-2.6302 2.5054,-4.91978 0.36562,-2.16408 1.30617,-4.18082 2.0901,-4.48165 C 343.3586,360.3089 344,359.34332 344,358.464 c 0,-1.16595 -0.56504,-1.41944 -2.08713,-0.93635 -2.28368,0.72482 -6.4943,-2.77786 -5.42302,-4.51123 0.32554,-0.52673 -0.15489,-2.40178 -1.06761,-4.16679 -1.5682,-3.03257 -1.72173,-3.10043 -2.79086,-1.23367 -0.63486,1.10849 -1.89939,1.81348 -2.88138,1.60641 -2.12401,-0.44788 -2.11851,-0.26089 -0.15204,-5.1756 1.51407,-3.78402 1.49219,-4.16571 -0.4168,-7.27023 -1.29829,-2.11136 -1.82594,-4.25005 -1.48376,-6.0141 0.37694,-1.94332 0.0627,-2.91728 -1.0832,-3.35699 -0.88781,-0.34069 -1.61697,-1.35878 -1.62036,-2.26244 -0.003,-0.90365 -0.63598,-2.8502 -1.40575,-4.32565 -1.81673,-3.48219 -2.98083,-8.82295 -1.91755,-8.79752 0.79306,0.019 6.7686,9.39289 6.88592,10.80204 0.25566,3.0709 1.87319,7.26217 3.46,8.96541 1.47448,1.58267 2.55289,1.88748 4.67242,1.32063 4.18204,-1.11845 4.83087,-5.90327 1.91307,-14.10792 -3.35546,-9.43531 -4.41767,-14.5779 -3.3903,-16.41372 1.42628,-2.54862 2.78835,-1.83333 2.78835,1.46432 0,3.99126 5.47971,17.78866 8.5478,21.52257 1.88476,2.29379 2.59982,2.63252 3.30599,1.56613 0.49559,-0.74838 0.68948,-2.16985 0.43086,-3.15881 -0.29738,-1.13719 0.14914,-1.92351 1.21482,-2.1393 2.22408,-0.45034 2.94226,-9.2297 0.89407,-10.92955 -1.6694,-1.38547 -3.44114,-7.62616 -4.09147,-14.41164 -0.53212,-5.55197 0.71498,-5.31024 2.57946,0.5 1.60375,4.99771 5.25483,9.26864 7.26426,8.49755 1.80429,-0.69237 1.89497,-1.25745 2.166,-13.49755 0.10351,-4.675 0.63821,-8.68946 1.18821,-8.92103 1.37076,-0.57713 5.7011,8.2661 5.89034,12.02902 0.0871,1.73185 0.90292,3.47662 1.88171,4.02438 1.66312,0.93073 2.2742,0.0915 1.81128,-2.48763 -0.0844,-0.47039 0.27623,-1.37306 0.80146,-2.00592 1.02551,-1.23566 -1.18167,-14.75483 -2.91837,-17.87525 C 367.67956,274.45139 367.74484,274 369.36608,274 c 0.75134,0 2.25468,2.33861 3.34075,5.19692 2.11376,5.56295 5.10896,8.18958 3.91525,3.43346 -0.80282,-3.1987 0.0135,-3.32137 3.05953,-0.45977 1.27078,1.19384 2.51893,1.96218 2.77368,1.70743 0.25475,-0.25475 -0.21123,-3.04577 -1.0355,-6.20227 -0.82428,-3.1565 -1.22938,-6.17484 -0.90022,-6.70743 1.03363,-1.67245 2.49492,-1.06042 3.44698,1.44369 0.50438,1.32661 2.35317,4.95668 4.10843,8.06682 2.30644,4.0868 3.4941,5.35207 4.28315,4.56302 0.78905,-0.78905 0.75212,-1.63568 -0.13317,-3.05326 -0.67373,-1.07881 -1.22773,-2.53008 -1.23112,-3.22504 -0.003,-0.69496 -0.68644,-2.56802 -1.51789,-4.16235 -0.83144,-1.59433 -1.2479,-3.16261 -0.92544,-3.48506 0.84772,-0.84773 4.25609,3.70003 6.47072,8.63384 1.96355,4.37444 3.97877,5.62114 3.97877,2.46144 0,-0.98371 -0.9,-3.55385 -2,-5.71144 -1.1,-2.15759 -2,-4.43299 -2,-5.05645 0,-0.62347 -0.94607,-1.98976 -2.10238,-3.0362 C 390.02268,265.80556 388,261.65059 388,258.34671 v -2.75261 l 3.88609,3.79467 c 2.67364,2.61074 4.03687,3.37606 4.36935,2.45295 0.39255,-1.0899 0.8806,-1.10711 2.60034,-0.0917 3.47043,2.04906 3.69625,1.43563 0.64422,-1.75 -2.45202,-2.55936 -2.60123,-3 -1.01583,-3 1.02209,0 2.68128,0.74474 3.68709,1.65499 1.00581,0.91024 1.82874,1.2092 1.82874,0.66435 0,-0.54485 -3.15,-3.83855 -7,-7.31934 -3.85,-3.48079 -7,-6.92975 -7,-7.66435 0,-1.823 0.49642,-1.71508 5.44158,1.18298 2.36375,1.38525 4.99048,2.25281 5.83717,1.9279 0.84669,-0.32491 3.15534,-0.14457 5.13034,0.40076 2.03629,0.56224 3.59091,0.60458 3.59091,0.0978 0,-1.21835 -5.58545,-4.02628 -6.39622,-3.21552 -0.35738,0.35738 -1.33995,-0.33557 -2.18348,-1.53988 -0.84354,-1.20432 -2.07069,-2.19968 -2.727,-2.21191 -0.65632,-0.0122 -2.3183,-0.94854 -3.6933,-2.08069 l -2.5,-2.05847 4.70649,0.55561 c 4.83432,0.57069 6.98818,-0.59954 4.9165,-2.67122 -1.26897,-1.26897 -1.54866,-1.35073 -9.70132,-2.83613 -4.02184,-0.73276 -6.47762,-1.7468 -7.25848,-2.99716 -1.05199,-1.6845 -0.87517,-1.8897 1.62834,-1.8897 1.54466,0 3.2691,0.46063 3.8321,1.02363 0.69817,0.69817 1.6059,0.38023 2.85499,-1 1.46204,-1.61554 3.0773,-2.02363 8.0097,-2.02363 3.39809,0 6.48465,-0.3063 6.85901,-0.68067 0.37437,-0.37436 -0.50452,-1.91774 -1.95309,-3.42972 -2.06519,-2.1556 -3.10424,-2.57017 -4.81319,-1.92043 -1.19868,0.45574 -5.30729,1.13529 -9.13024,1.51011 -3.82295,0.37482 -7.73831,0.90064 -8.70081,1.16849 -0.9625,0.26785 -1.75,0.0424 -1.75,-0.50094 0,-0.54336 1.4625,-1.29034 3.25,-1.65995 7.3631,-1.52252 18.75,-5.61027 18.75,-6.731 0,-1.2992 -13.45174,-0.82523 -18.34107,0.64624 -3.71927,1.11934 -4.65893,1.14418 -4.65893,0.12315 0,-1.34811 5.9474,-4.18793 14.79054,-7.06235 2.9098,-0.94581 5.12483,-2.2244 4.92228,-2.8413 -0.66036,-2.01127 -8.52523,-1.83551 -14.28426,0.31921 C 380.56585,206.13441 378,206.5108 378,205.1773 c 0,-1.18812 8.50349,-5.25782 13.81966,-6.61399 5.04446,-1.28685 6.85163,-3.56327 2.82877,-3.56327 -1.38503,0 -3.56003,0.38973 -4.83333,0.86607 -1.27331,0.47635 -5.0151,1.16366 -8.3151,1.52736 l -6,0.66128 3,-2.52325 c 1.65,-1.38779 4.4625,-2.80018 6.25,-3.13865 3.7773,-0.71524 3.87049,-1.04271 1.25,-4.39281 -1.89517,-2.42283 -1.95621,-2.43363 -1.97776,-0.34974 -0.0181,1.75107 -0.96049,2.37534 -5.07622,3.36269 -2.77968,0.66684 -5.31068,0.95572 -5.62443,0.64197 -0.31375,-0.31375 0.54671,-1.89813 1.91214,-3.52084 1.36542,-1.62272 2.99617,-4.99001 3.62388,-7.48288 0.62771,-2.49287 1.59154,-4.81076 2.14184,-5.15086 1.22347,-0.75615 1.24162,-1.57114 0.076,-3.41252 -0.75926,-1.19942 -1.1336,-1.17252 -2.48469,0.17857 -0.87491,0.87492 -1.59075,2.71725 -1.59075,4.09409 0,1.62179 -1.02277,3.23161 -2.90437,4.57143 C 371.51894,182.76667 368,183.71913 368,182.58179 368,180.98497 369.44475,179 370.60699,179 371.37314,179 372,178.34253 372,177.53896 c 0,-0.80358 0.84026,-2.26608 1.86724,-3.25 2.27008,-2.17491 4.53531,-8.79754 3.72839,-10.90034 -1.13103,-2.94743 -4.81619,-1.14645 -6.26789,3.06319 -1.78794,5.18468 -4.04007,6.65059 -7.16991,4.6669 -1.10875,-0.70273 -1.11533,-1.2139 -0.0378,-2.93921 1.73283,-2.77471 0.5105,-3.7878 -2.76788,-2.29407 -3.84117,1.75016 -5.64061,-0.29462 -2.31137,-2.62651 1.3526,-0.9474 2.45927,-1.52633 2.45927,-1.28652 0,0.23982 1.41184,-0.39797 3.13743,-1.4173 2.83872,-1.67687 3.0546,-2.14213 2.26745,-4.88676 -1.23282,-4.29859 -2.03528,-4.78502 -5.94521,-3.60383 -1.90282,0.57483 -4.28312,1.22657 -5.28956,1.44829 -1.00643,0.22172 -2.80643,0.69763 -4,1.05756 -4.31356,1.30082 -0.19515,-1.39672 5.7574,-3.77106 3.26013,-1.30039 6.08962,-2.85068 6.28775,-3.44509 0.59845,-1.79535 -7.73155,-2.39715 -10.85115,-0.78394 -1.52063,0.78635 -3.59714,1.42973 -4.61445,1.42973 -1.01731,0 -2.29534,0.44568 -2.84006,0.9904 -0.54472,0.54472 -3.22222,1.24408 -5.95,1.55413 -4.67921,0.53186 -4.81826,0.48281 -2.4596,-0.86759 1.375,-0.78722 6.4619,-2.71227 11.30421,-4.2779 7.20051,-2.32807 8.51927,-3.05495 7.23988,-3.99046 -1.76727,-1.29226 -7.4379,-0.91477 -8.94834,0.59567 -0.54766,0.54766 -2.2194,0.99575 -3.71498,0.99575 -1.49558,0 -5.47113,0.705 -8.83455,1.56667 -3.36342,0.86167 -6.88727,1.40616 -7.83077,1.20998 -2.84763,-0.5921 8.83185,-6.0506 13.20145,-6.1698 4.47817,-0.12216 5.89501,-2.06076 2.18641,-2.99156 -3.47053,-0.87105 -18.32173,1.55015 -21.10331,3.44048 -4.97421,3.38043 -16.56471,4.37388 -28.74169,2.46352 -4.43843,-0.69631 -4.80744,-0.98802 -5.76953,-4.56098 -0.56531,-2.09939 -1.27951,-5.61636 -1.5871,-7.81549 -0.52892,-3.7814 -0.27814,-4.27367 4.62082,-9.07061 2.84905,-2.78971 5.69701,-5.12412 6.3288,-5.18756 0.63178,-0.0634 1.8237,-0.17594 2.6487,-0.25 0.825,-0.0741 1.3875,-0.69715 1.25,-1.38465 -0.1375,-0.6875 0.15598,-1.25 0.65217,-1.25 1.66397,0 3.22071,-6.14702 1.94578,-7.68321 -1.27658,-1.53818 -12.37441,-1.17358 -23.20178,0.76226 -3.21961,0.57564 -6.10711,0.79334 -6.41667,0.48378 C 271.91999,106.25327 272.40088,106 273.2982,106 c 0.89732,0 2.1209,-0.91449 2.71909,-2.03221 1.22926,-2.2969 1.72309,-2.34768 -11.51724,1.18442 -29.34655,7.82873 -27.5,7.43607 -27.5,5.84779 0,-0.55 0.59048,-1 1.31217,-1 0.72169,0 3.15664,-0.89115 5.41098,-1.98033 2.25435,-1.08918 9.20137,-3.33494 15.43783,-4.99057 C 277.06621,98.275701 278,97.974868 278,96.959858 c 0,-0.527922 -0.5625,-0.991474 -1.25,-1.030116 -8.87252,-0.498696 -13.3127,0.155032 -17.90429,2.636043 C 257.38585,99.354603 255.53197,100 254.72598,100 c -2.09542,0 -13.00678,3.57673 -16.63488,5.45289 -1.68858,0.8732 -3.28942,1.59937 -3.55742,1.61372 -0.26801,0.0144 -4.09877,1.83369 -8.51281,4.04298 -7.7931,3.90058 -15.98132,6.25346 -14.73292,4.23351 0.63088,-1.02077 15.38452,-8.54128 24.71205,-12.59669 11.01798,-4.79038 11.08596,-4.848227 5,-4.254769 -7.42768,0.724292 -16.46925,3.710469 -26.70961,8.821439 -2.31529,1.15557 -4.4867,1.82394 -4.82536,1.48528 -0.33867,-0.33866 0.31816,-0.91216 1.45961,-1.27444 3.29504,-1.04581 2.4225,-2.48387 -0.92464,-1.52392 -1.65,0.47321 -3,0.61505 -3,0.31518 0,-0.29986 -1.10917,0.18155 -2.46482,1.06981 -1.35565,0.88826 -3.65959,1.61501 -5.11987,1.61501 -3.01521,0 -18.74013,5.10585 -19.24864,6.25 -0.49048,1.10357 -3.16667,0.914 -3.16667,-0.22432 0,-1.94232 6.3957,-4.39985 18,-6.91647 1.925,-0.41747 4.625,-1.37869 6,-2.13603 1.375,-0.75735 3.175,-1.48501 4,-1.61704 5.07734,-0.81252 8.93015,-1.68783 12.47019,-2.83306 2.21639,-0.71703 5.26731,-1.586619 6.77981,-1.932433 1.5125,-0.345813 2.75,-1.09775 2.75,-1.670972 0,-1.276202 -6.50705,-0.427714 -17,2.216715 -4.125,1.03958 -10.65,2.33311 -14.5,2.87451 -7.04448,0.99061 -11,1.70588 -11,1.9891 0,0.0842 -0.9,0.31888 -2,0.52161 -2.08063,0.38344 -9.83458,2.66757 -17.38328,5.12071 -2.41081,0.78345 -4.5977,1.21003 -4.85978,0.94796 -0.26207,-0.26207 -2.10793,0.3979 -4.1019,1.46661 -1.99398,1.06871 -3.99842,1.94311 -4.45431,1.94311 -0.45589,0 -3.28839,1.125 -6.29444,2.5 -3.00606,1.375 -5.73406,2.5 -6.06222,2.5 -0.32816,0 -3.35233,1.40426 -6.72037,3.12058 -3.36803,1.71632 -8.24284,3.7533 -10.83289,4.52662 -3.15884,0.94315 -5.24574,2.30263 -6.33896,4.12942 -0.89637,1.49786 -3.50223,3.95548 -5.79081,5.46137 -11.746229,7.72911 -21.700661,16.19774 -30.503709,25.95072 -5.476064,6.06699 -3.990554,6.25989 2.397244,0.31129 2.657736,-2.475 5.195212,-4.5 5.638836,-4.5 2.44,0 -0.623225,4.47202 -10.35567,15.11829 C 67.581524,184.24362 65,187.46884 65,188.90773 65,190.79782 66.575096,190.10584 69.342416,187 71.717193,184.33472 74,183.10799 74,184.49712 c 0,0.27341 -1.512527,2.18591 -3.361171,4.25 C 65.49913,194.4858 56.109697,208.10699 54.782364,211.75 54.131086,213.5375 53.238623,215 52.799112,215 52.3596,215 52,215.74474 52,216.65499 c 0,1.48663 0.204072,1.4703 2.006131,-0.16054 1.103372,-0.99854 2.190071,-1.63078 2.414888,-1.40499 0.224817,0.2258 -1.410689,4.21486 -3.634458,8.86459 -6.230446,13.02739 -6.979403,17.15772 -2.048306,11.29595 l 2.313385,-2.75 -0.511455,3.69386 c -0.673295,4.86272 -3.550051,12.02491 -5.383636,13.4035 -0.888275,0.66785 -1.067921,1.33938 -0.458986,1.71572 0.621499,0.38411 -0.123808,4.05902 -1.967349,9.70047 -2.926077,8.95414 -2.966648,12.39101 -0.100163,8.48488 1.341289,-1.82777 1.407314,-1.61413 0.773131,2.50157 -0.381369,2.475 -1.086034,5.56266 -1.565922,6.86147 -0.599348,1.62213 -0.397373,3.31394 0.645109,5.40364 1.7362,3.4803 1.919078,6.56631 0.517631,8.73489 -0.731818,1.13241 -0.990351,0.64228 -1.054972,-2 C 43.897949,289.075 43.472686,286.6 43,285.5 l -0.859429,-2 -0.182069,2 c -0.100138,1.1 -0.36162,3.575 -0.581073,5.5 -0.280817,2.46327 0.09822,3.86522 1.279632,4.73298 1.473782,1.08251 1.551475,2.0588 0.636641,8 -0.8385,5.44545 -0.773632,7.07534 0.33215,8.34576 C 44.381634,312.94705 45,314.60799 45,315.76972 c 0,1.16174 0.471851,2.40387 1.048558,2.76029 0.717944,0.44371 0.68267,1.08891 -0.111875,2.04628 C 44.601386,322.18523 45.364045,325 47.135282,325 c 0.658928,0 0.896473,-0.30158 0.527877,-0.67017 -0.368596,-0.3686 -0.03944,-1.6328 0.731458,-2.80934 1.445095,-2.20549 2.687618,-22.77159 1.450511,-24.0087 C 49.08461,296.75128 49.962522,293 50.901024,293 c 1.676633,0 4.282996,6.3299 3.734857,9.07059 -1.763172,8.81587 -1.799208,18.00436 -0.102188,26.05581 0.970708,4.60548 2.035235,10.04791 2.365615,12.09428 0.452796,2.80461 0.934933,3.51235 1.958234,2.87452 1.104794,-0.68862 1.141953,-1.7537 0.199584,-5.72068 -2.003878,-8.43549 -2.080727,-9.72881 -0.943259,-15.87452 0.753497,-4.07113 0.800822,-7.66586 0.147208,-11.1819 -0.529809,-2.85004 -0.629486,-5.722 -0.221506,-6.38212 1.366891,-2.21168 2.263593,3.26899 2.464651,15.06402 0.204103,11.97363 2.298343,29.24006 3.459478,28.52244 0.558131,-0.34495 0.544772,-12.70724 -0.02704,-25.02244 -0.07661,-1.65 -0.07395,-4.8 0.0059,-7 l 0.14521,-4 1.585873,4 c 1.098298,2.7702 1.663931,7.99683 1.839761,17 0.139639,7.15 0.498851,14.125 0.798251,15.5 0.299399,1.375 0.865236,4.3 1.257415,6.5 0.725845,4.07176 3.032098,9.5 4.036188,9.5 0.52752,0 0.242413,-4.4915 -1.206064,-19 -0.871806,-8.73234 -0.755721,-10.07206 1.027225,-11.85501 1.791498,-1.79149 3.364519,-0.80296 1.773268,1.11438 -0.699909,0.84334 -0.750511,1.82845 -0.142501,2.77417 0.828089,1.28804 1.057851,1.28748 1.888425,-0.005 0.520095,-0.80907 1.129911,-1.25907 1.355146,-1 1.676167,1.92797 3.992974,11.89417 4.372513,18.80921 0.445918,8.12445 0.40348,8.32097 -1.655752,7.6674 -2.09136,-0.66378 -2.095885,-0.6308 -0.433871,3.16183 1.567555,3.57708 3.115423,8.82029 5.633451,19.0826 1.087725,4.43306 2.999663,5.47196 4.648404,2.52582 0.638292,-1.14056 0.590716,-2.40989 -0.140553,-3.75 C 89.336628,380.98159 88.812733,370 90.079692,370 c 0.516936,0 1.710487,0.9 2.652336,2 0.94185,1.1 2.330479,2 3.085842,2 2.746018,0 7.03307,4.04602 7.69638,7.26365 0.36694,1.77999 1.75503,6.31087 3.08463,10.06861 1.32961,3.75775 2.19375,7.19426 1.92031,7.6367 -0.27344,0.44243 0.17288,1.36051 0.99182,2.04018 0.81894,0.67966 1.48899,1.98064 1.48899,2.89106 0,0.91043 0.79173,2.33322 1.75939,3.16176 0.96767,0.82854 2.69913,2.79648 3.84769,4.3732 1.21897,1.67339 2.35824,2.42996 2.73679,1.81747 0.35667,-0.57711 -0.67673,-2.46796 -2.29646,-4.20188 -1.61973,-1.73392 -3.24808,-4.14217 -3.61857,-5.35167 -0.37049,-1.20949 -1.14794,-2.79085 -1.72766,-3.51413 -0.57972,-0.72328 -1.15789,-2.29828 -1.28481,-3.5 -0.12693,-1.20172 -0.69716,-3.75995 -1.26719,-5.68495 -1.93223,-6.52521 -2.94033,-11 -2.47813,-11 1.3904,0 4.3244,2.24314 4.29698,3.28518 -0.0176,0.66815 1.66991,4.70772 3.75,8.97683 3.29337,6.75921 4.06662,7.69491 5.98528,7.24266 1.86243,-0.43899 2.30171,0.005 2.83935,2.87101 0.50097,2.67044 1.02954,3.28745 2.48921,2.90573 1.51793,-0.39694 2.14406,0.51596 3.46103,5.04616 0.88431,3.04193 2.50782,6.67492 3.6078,8.07332 1.09998,1.3984 1.86481,3.20076 1.69963,4.00525 -0.16518,0.80449 0.14967,1.53659 0.69967,1.6269 2.16994,0.35628 4.5,2.10626 4.5,3.3797 0,0.7383 0.68516,1.911 1.52258,2.606 0.87897,0.72948 1.27319,2.04936 0.93261,3.12244 -0.468,1.47453 -0.0714,1.85882 1.91841,1.85882 3.54079,0 3.97998,-1.36809 1.83488,-5.7157 -1.02694,-2.08137 -1.93337,-5.5843 -2.01428,-7.7843 l -0.14712,-4 1.99771,4 c 3.05468,6.11635 5.73313,9.31085 6.28295,7.49347 1.72173,-5.69097 4.00167,-10.85846 5.73283,-12.99347 l 2.0271,-2.5 -0.58342,8 c -0.32089,4.4 -0.80442,9.42741 -1.07452,11.17202 -0.2701,1.74461 -0.0273,3.45867 0.53959,3.80902 0.56687,0.35035 1.03068,1.35164 1.03068,2.2251 0,1.50029 11.08676,12.46832 11.86562,11.73854 0.20109,-0.18842 -0.0524,-1.60306 -0.56324,-3.14363 z M 272.36971,436.75 c 0.33164,-1.2375 0.60913,-3.73906 0.61664,-5.55902 0.009,-2.1387 0.40063,-3.06985 1.10782,-2.63278 0.60179,0.37193 0.88714,1.75923 0.63411,3.08288 -0.25303,1.32366 -0.0796,2.64178 0.38535,2.92915 0.9755,0.60289 -1.15903,4.42977 -2.47081,4.42977 -0.48184,0 -0.60474,-1.0125 -0.27311,-2.25 z m 1.19458,-11.04313 c 0.37553,-0.98622 0.93469,-1.54122 1.24258,-1.23333 0.30789,0.30789 6.4e-4,1.11479 -0.68278,1.79313 -0.98762,0.98026 -1.10248,0.8654 -0.5598,-0.5598 z m -153.48534,-30.2902 c 0.048,-1.16495 0.28494,-1.4019 0.60416,-0.60417 0.28887,0.72187 0.25335,1.58438 -0.0789,1.91667 -0.3323,0.33229 -0.56864,-0.25834 -0.52522,-1.3125 z M 87.625,364.875 c -1.102528,-5.51264 -0.768109,-6.32665 1.44388,-3.51456 1.320848,1.67918 1.838829,3.35498 1.432613,4.63486 -0.930194,2.93078 -2.162246,2.45094 -2.876493,-1.1203 z M 70,332 c 0,-0.55 0.45,-1 1,-1 0.55,0 1,0.45 1,1 0,0.55 -0.45,1 -1,1 -0.55,0 -1,-0.45 -1,-1 z m 5.21361,-151.19519 c 0.801655,-1.20736 2.026252,-2.38476 2.721327,-2.61646 0.822507,-0.27416 0.665176,0.49232 -0.450592,2.1952 C 76.541444,181.8226 75.316847,183 74.763018,183 c -0.553829,0 -0.351063,-0.98784 0.450592,-2.19519 z M 197.55,123.11239 c 0.5225,-0.48818 2.07147,-1.22809 3.44216,-1.64424 2.23059,-0.67723 2.34894,-0.58407 1.12755,0.8876 -0.75053,0.90434 -2.2995,1.64425 -3.44215,1.64425 -1.25652,0 -1.70213,-0.35078 -1.12756,-0.88761 z m -7.95344,-2.95616 c -0.34605,-0.55992 -0.1419,-1.31919 0.45366,-1.68727 1.53748,-0.95021 2.52947,0.35135 1.24598,1.63484 -0.71818,0.71818 -1.27752,0.73543 -1.69964,0.0524 z M 219,120.38386 c 0,-0.25022 2.07669,-1.34511 4.61487,-2.4331 2.53819,-1.08799 5.88159,-2.88015 7.4298,-3.98257 1.8731,-1.33376 3.0392,-1.6415 3.48526,-0.91976 0.81507,1.31882 0.90541,1.2355 -4.02993,3.71668 -4.17731,2.10009 -11.5,4.40435 -11.5,3.61875 z m -7.56226,328.71688 c 0.30567,-0.49459 -1.01777,-2.28084 -2.94099,-3.96945 C 206.57354,443.44269 205,441.65245 205,441.153 c 0,-1.65264 -3.0234,-3.5296 -4.04304,-2.50996 -0.61103,0.61103 0.74551,2.84231 3.74364,6.15762 4.7794,5.28503 5.7468,5.90249 6.73714,4.30008 z M 260,449 c 0,-0.55 -0.47656,-1 -1.05902,-1 -0.58246,0 -0.7809,0.45 -0.44098,1 0.33992,0.55 0.81648,1 1.05902,1 0.24254,0 0.44098,-0.45 0.44098,-1 z m 76,-2.55902 C 336,445.09844 335.55,444 335,444 c -0.55,0 -1,1.37656 -1,3.05902 0,1.7847 0.41658,2.80156 1,2.44098 0.55,-0.33992 1,-1.71648 1,-3.05902 z m -199.17916,-3.56856 c 0.1695,-4.29224 -0.24216,-6.86648 -1.37439,-8.5945 l -1.61638,-2.4669 -2.22949,2.09449 c -2.58436,2.42788 -3.60058,2.6388 -3.60058,0.7473 0,-0.74095 1.00326,-1.79485 2.22947,-2.342 l 2.22948,-0.99482 -2.33683,-1.25064 c -3.03806,-1.62592 -4.36159,-0.28397 -3.94496,3.99988 0.27231,2.80002 0.83148,3.45042 3.57284,4.15575 1.7875,0.45991 3.25,1.32212 3.25,1.91602 0,0.65246 -0.98942,0.83149 -2.5,0.45236 -1.375,-0.34511 -2.5,-0.34117 -2.5,0.009 0,0.72502 7.21646,8.19238 8.03942,8.31894 0.29668,0.0456 0.64832,-2.67446 0.78142,-6.04463 z M 153,444.12244 c 0,-4.34582 -1.9199,-6.60003 -4.83359,-5.67526 -1.28916,0.40917 -2.14569,0.0492 -2.58077,-1.0846 -0.49633,-1.29342 -0.9288,-1.41942 -1.81842,-0.5298 -0.88963,0.88963 -0.88183,1.45261 0.0328,2.36722 0.66,0.66 1.2,0.86917 1.2,0.46482 0,-0.40435 0.9126,-0.24678 2.02801,0.35017 1.1154,0.59695 1.75161,1.53257 1.4138,2.07916 C 147.72162,443.25944 150.59624,448 152.02305,448 152.56037,448 153,446.2551 153,444.12244 Z m 43.28949,0.87656 c -0.28751,-1.09945 -0.92027,-1.999 -1.40612,-1.999 -1.03094,0 -1.12868,1.19717 -0.27859,3.41247 0.85496,2.22798 2.31634,1.00188 1.68471,-1.41347 z m -77.19571,-2.30522 C 118.30207,441.90207 118,442.16155 118,443.63333 c 0,2.64375 1.39845,4.04704 1.84378,1.85016 0.18908,-0.93276 -0.14842,-2.18813 -0.75,-2.78971 z M 269,445.05902 c 0,-0.51754 -0.45,-1.2191 -1,-1.55902 -0.55,-0.33992 -1,0.0835 -1,0.94098 0,0.85746 0.45,1.55902 1,1.55902 0.55,0 1,-0.42344 1,-0.94098 z m 50.48723,-0.0383 c 0.71237,-1.15265 -1.37721,-5.46402 -2.23332,-4.60792 -0.32122,0.32123 -0.70406,1.70977 -0.85076,3.08565 -0.26741,2.50815 1.83379,3.54528 3.08408,1.52227 z m -101.04002,-3.10608 c -0.32197,-0.52097 -1.01165,-0.68378 -1.53262,-0.3618 -0.52097,0.32197 -0.68378,1.01165 -0.3618,1.53262 0.32197,0.52097 1.01165,0.68378 1.53262,0.3618 0.52097,-0.32197 0.68378,-1.01165 0.3618,-1.53262 z m 8.51292,-2.46263 C 226.29737,438.65338 225.36021,438 224.87756,438 c -1.44585,0 -0.99506,2.21232 0.87244,4.28168 1.55606,1.72427 1.78686,1.75538 2.08258,0.28071 0.18291,-0.91216 -0.20969,-2.31185 -0.87245,-3.11043 z m 60.59372,3.46091 c 1.03052,-1.66742 -1.28721,-3.57951 -2.66672,-2.2 C 283.73321,441.86679 284.45541,444 286,444 c 0.48508,0 1.18431,-0.48921 1.55385,-1.08713 z m 8.61741,-1.56786 C 298.55741,439.18557 298.5072,437 296.07143,437 c -2.53235,0 -5.13642,2.66707 -4.42195,4.52894 0.73836,1.92414 2.26082,1.86221 4.52178,-0.18393 z M 103,441 c 0,-0.55 -0.45,-1 -1,-1 -0.55,0 -1,0.45 -1,1 0,0.55 0.45,1 1,1 0.55,0 1,-0.45 1,-1 z m 6.50611,-7.40695 c 1.02437,-1.70118 1.89206,-4.43625 1.92819,-6.07793 0.0817,-3.7095 -3.44203,-8.10987 -5.77672,-7.21396 C 103.59011,421.09452 103.47885,423 105.5,423 c 0.825,0 1.5,0.6199 1.5,1.37756 0,1.55395 -2.40895,3.88016 -3.19951,3.0896 -1.01152,-1.01153 -3.15755,2.71934 -3.50341,6.09067 -0.348265,3.39484 -0.312494,3.42838 3.49733,3.27909 3.15536,-0.12364 4.18492,-0.70836 5.7117,-3.24387 z m 177.91968,0.73973 c 0.88971,-2.31855 -1.20217,-4.30149 -2.45212,-2.32442 -0.51867,0.8204 -0.94994,2.05414 -0.95836,2.74164 -0.0226,1.8475 2.66773,1.51838 3.41048,-0.41722 z M 295.5,431.9863 c 0,-2.1435 -2.90567,-1.8339 -3.32712,0.35451 -0.25736,1.3364 0.14991,1.74367 1.48631,1.48631 1.01244,-0.19498 1.84081,-1.02335 1.84081,-1.84082 z m 45.5,-3.20868 c 0,-0.50182 -1.0125,-0.60117 -2.25,-0.22078 -2.98062,0.9162 -3.10473,1.07637 -2.35269,3.03615 0.59675,1.5551 0.79071,1.54683 2.62354,-0.11186 C 340.10938,430.49602 341,429.27944 341,428.77762 Z M 356.5,430 c 0.33992,-0.55 0.16803,-1 -0.38197,-1 -0.55,0 -1.27811,0.45 -1.61803,1 -0.33992,0.55 -0.16803,1 0.38197,1 0.55,0 1.27811,-0.45 1.61803,-1 z m -49.67668,-2.66713 C 306.33677,424.8241 304,424.47962 304,426.91667 304,428.145 304.64569,429 305.57332,429 c 0.93124,0 1.44138,-0.68037 1.25,-1.66713 z m -15.14783,-2.82505 C 291.328,423.44569 286,422.44996 286,423.44715 c 0,0.31899 0.52959,1.42799 1.17686,2.46444 0.95446,1.52833 1.52189,1.66898 3.00261,0.74426 1.00416,-0.62711 1.67737,-1.59372 1.49602,-2.14803 z M 351.5,427 c 0.33992,-0.55 0.17828,-1 -0.3592,-1 -0.53747,0 -1.68903,-0.27314 -2.55901,-0.60699 -1.03799,-0.39831 -1.58179,-0.0545 -1.58179,1 0,1.76567 3.49273,2.23679 4.5,0.60699 z M 88.721855,425.87814 C 90.225421,424.37458 89.207674,422 87.059678,422 c -2.494555,0 -3.129941,1.0002 -1.98931,3.13148 1.14873,2.14642 2.064474,2.33368 3.651487,0.74666 z M 329,424 c 2.44536,-2.44536 2.47121,-2.92182 0.25,-4.60795 -2.38709,-1.81206 -2.93135,-1.71859 -3.53975,0.60795 -0.5027,1.92232 0.11329,6 0.90638,6 0.21085,0 1.28337,-0.9 2.38337,-2 z m -201,-1 c -1.05696,-1.97494 -3,-2.75216 -3,-1.2 0,1.05167 2.17195,3.2 3.23518,3.2 0.45935,0 0.35352,-0.9 -0.23518,-2 z m 171,-1 c 0,-0.55 -0.45,-1 -1,-1 -0.55,0 -1,0.45 -1,1 0,0.55 0.45,1 1,1 0.55,0 1,-0.45 1,-1 z m 63,-2 c 0,-1.1 -0.42344,-2 -0.94098,-2 -1.34235,0 -2.28822,1.82013 -1.55902,3 1.04512,1.69104 2.5,1.10908 2.5,-1 z m -41.39928,-1.48526 c 0.11522,-0.78505 -0.38275,-1.91887 -1.10659,-2.51961 -1.88978,-1.56838 -2.85501,0.46204 -1.45935,3.06985 1.16218,2.17157 2.19909,1.94921 2.56594,-0.55024 z m -14.87073,-13.93582 c -3.30286,-11.59441 -5.16405,-11.38049 -4.22488,0.48561 0.64713,8.17634 1.05647,9.63427 3.36581,11.98779 l 2.62908,2.67938 0.24322,-3.61585 c 0.13377,-1.98872 -0.77218,-7.18033 -2.01323,-11.53693 z m -200.1115,9.96157 c -1.66582,-2.54236 -1.69489,-2.54722 -3.75501,-0.62793 -2.172719,2.0242 -1.78821,4.37952 0.56739,3.47559 0.75176,-0.28847 1.68814,-0.005 2.08085,0.63081 0.49246,0.79681 1.03542,0.8339 1.7498,0.11952 0.71438,-0.71438 0.51485,-1.83084 -0.64303,-3.59799 z M 289.5,418 c -0.33992,-0.55 -1.29303,-1 -2.11803,-1 -0.825,0 -1.22189,0.45 -0.88197,1 0.33992,0.55 1.29303,1 2.11803,1 0.825,0 1.22189,-0.45 0.88197,-1 z m 7.5,-0.5 c 0,-0.825 -0.45,-1.5 -1,-1.5 -0.55,0 -1,-0.675 -1,-1.5 0,-1.55843 -1.5525,-2.05954 -2.32357,-0.75 -0.24288,0.4125 -0.0589,1.7625 0.40876,3 0.95032,2.51448 3.91481,3.08242 3.91481,0.75 z m -176.22894,-1.31318 c 0.24358,-0.73075 -0.21359,-0.95424 -1.1875,-0.58051 -0.87096,0.33422 -1.58356,1.04702 -1.58356,1.58401 0,1.31439 2.27278,0.49134 2.77106,-1.0035 z m -20.47274,-5.15406 c -0.28295,-1.08198 -1.14082,-2.48708 -1.906385,-3.12245 C 97.626371,407.27495 97,405.61519 97,404.22195 c 0,-1.39324 -1.169931,-4.06703 -2.599847,-5.94174 -1.54499,-2.02559 -2.396292,-4.18697 -2.098156,-5.32705 0.414044,-1.5833 0.189389,-1.75133 -1.285926,-0.96176 -1.184822,0.6341 -1.711179,1.92839 -1.560935,3.83829 0.242058,3.07704 4.101096,11.77801 5.647699,12.73387 0.511384,0.31605 0.668538,0.99735 0.349232,1.514 -0.319306,0.51664 0.460854,1.35703 1.733688,1.86751 3.373395,1.35294 3.681335,1.26268 3.112565,-0.91231 z m 27.14889,-1.11817 c -0.32197,-0.52097 -1.01165,-0.68378 -1.53262,-0.3618 -0.52097,0.32197 -0.68378,1.01165 -0.3618,1.53262 0.32197,0.52097 1.01165,0.68378 1.53262,0.3618 0.52097,-0.32197 0.68378,-1.01165 0.3618,-1.53262 z M 355,410 c 0.90253,-1.68639 0.76049,-2 -0.9058,-2 -2.22818,0 -3.52293,1.49728 -2.5942,3 0.96974,1.56907 2.33363,1.17939 3.5,-1 z m -32.40642,-0.38327 c 0.70065,-1.82587 -2.29253,-8.92083 -3.45926,-8.19974 -1.17192,0.72428 -2.41673,7.31705 -1.62381,8.60002 0.90685,1.46731 4.47421,1.18639 5.08307,-0.40028 z m 58.17157,-2.41218 C 380.98598,406.54205 380.55429,406 379.80584,406 378.04881,406 374,408.83102 374,410.05957 c 0,1.29303 6.26358,-1.35032 6.76515,-2.85502 z M 339,407.5 c 0,-1.375 -0.39754,-2.5 -0.88342,-2.5 -0.48589,0 -1.09848,1.125 -1.36133,2.5 -0.32047,1.67641 -0.0294,2.5 0.88342,2.5 C 338.42409,410 339,408.94237 339,407.5 Z M 83,408 c 0,-0.55 -0.198442,-1 -0.440983,-1 -0.242541,0 -0.719098,0.45 -1.059017,1 -0.339919,0.55 -0.141476,1 0.440983,1 C 82.523442,409 83,408.55 83,408 Z m 249.43968,-7.1548 c -0.30622,-1.46014 -0.0788,-2.95022 0.50544,-3.31129 0.58422,-0.36106 0.79731,-1.71199 0.47352,-3.00205 -0.32379,-1.29007 -0.11552,-3.22973 0.46282,-4.31036 0.75488,-1.41051 0.70834,-2.70385 -0.16497,-4.58462 -1.53402,-3.30367 -2.90161,-2.92127 -3.24364,0.90696 -0.57219,6.40438 -1.58839,13.83409 -1.9785,14.4653 -0.22602,0.36571 0.30291,1.68409 1.17539,2.92974 1.24922,1.7835 1.77127,1.97752 2.45652,0.91297 0.47861,-0.74352 0.61964,-2.54651 0.31342,-4.00665 z M 398.5,405 c 0.33992,-0.55 0.14148,-1 -0.44098,-1 -0.58246,0 -1.05902,0.45 -1.05902,1 0,0.55 0.19844,1 0.44098,1 0.24254,0 0.7191,-0.45 1.05902,-1 z m -43.04017,-4.16365 c 2.38776,-1.08794 2.4477,-1.28105 0.92119,-2.96782 C 354.37395,395.65074 351,397.00926 351,400.03518 c 0,2.26415 0.89577,2.42506 4.45983,0.80117 z m 15.97915,-2.93508 c -0.39797,-0.64392 -1.11798,-0.58264 -2.02801,0.17262 -2.13363,1.77075 -1.68972,3.14566 0.61704,1.91112 1.1154,-0.59695 1.75034,-1.53463 1.41097,-2.08374 z M 82,398.69113 c 0,-0.71988 -0.606311,-2.13805 -1.347357,-3.15149 -1.826755,-2.49824 -3.142375,-0.29669 -1.445973,2.41968 C 80.65526,400.27888 82,400.63118 82,398.69113 Z M 103,394 c 0,-0.55 -0.47656,-1 -1.05902,-1 -0.58246,0 -0.7809,0.45 -0.44098,1 0.33992,0.55 0.81648,1 1.05902,1 0.24254,0 0.44098,-0.45 0.44098,-1 z m 277.5303,-2.80304 c -0.67194,-0.67193 -3.5303,1.82222 -3.5303,3.08047 0,0.5679 0.90276,0.21556 2.00613,-0.78298 1.10337,-0.99854 1.78925,-2.03241 1.52417,-2.29749 z m -54.05598,-2.1473 C 328.3682,385.3873 328.37066,385 326.5,385 c -1.69817,0 -2.01136,-1.56593 -0.5,-2.5 0.55,-0.33992 1.00689,-1.82898 1.01531,-3.30902 0.008,-1.48004 0.43268,-3.35089 0.9428,-4.15744 1.16557,-1.8429 -0.54749,-4.12834 -2.52548,-3.36931 -0.78163,0.29993 -1.19064,0.91829 -0.90892,1.37413 0.28172,0.45583 -0.16432,2.77118 -0.99119,5.14521 -1.76634,5.0713 -1.93868,9.18899 -0.49734,11.88217 1.36256,2.54596 1.63944,2.46416 3.43914,-1.01608 z M 369,391 c 0,-0.55 -0.64844,-1 -1.44098,-1 -0.79254,0 -1.7191,0.45 -2.05902,1 -0.33992,0.55 0.30852,1 1.44098,1 C 368.07344,392 369,391.55 369,391 Z M 79.770833,389.8125 C 79.152759,387.95828 77,387.65074 77,389.41667 77,390.2875 77.7125,391 78.583333,391 c 0.870834,0 1.405209,-0.53438 1.1875,-1.1875 z M 352,388.44098 C 352,387.64844 351.59814,387 351.10699,387 c -1.10376,0 -2.17899,2.59467 -1.39861,3.37505 0.87532,0.87532 2.29162,-0.32 2.29162,-1.93407 z M 70.5,386 c 0.339919,-0.55 -0.110081,-1 -1,-1 -0.889919,0 -1.339919,0.45 -1,1 0.339919,0.55 0.789919,1 1,1 0.210081,0 0.660081,-0.45 1,-1 z m 288.6125,-6.2875 c -0.81667,-0.81667 -1.42623,-0.79877 -2.29229,0.0673 -0.9064,0.9064 -0.85567,1.78544 0.2189,3.79329 l 1.3987,2.61349 0.89359,-2.68078 c 0.59039,-1.77115 0.51611,-3.05828 -0.2189,-3.79329 z m -13.89686,-2.60369 c 0.1564,-1.86515 -0.20316,-3.56516 -0.79902,-3.77779 -1.10199,-0.39325 -3.41662,5.87817 -3.41662,9.25722 0,3.41269 3.89448,-1.64929 4.21564,-5.47943 z M 381,382.66667 c 0,-2.07545 -1.18357,-2.75921 -2.65799,-1.53555 C 376.40363,382.73983 376.69266,384 379,384 c 1.1,0 2,-0.6 2,-1.33333 z M 95.632402,381.10988 c 2.530826,2.1004 3.461692,-0.169 1.309235,-3.19184 -1.152014,-1.61786 -2.532012,-2.6712 -3.066662,-2.34077 -0.605728,0.37436 -0.530762,1.13256 0.198911,2.01176 C 95.000106,378.70505 94.905737,379 93.622445,379 92.7301,379 92,379.765 92,380.7 c 0,1.30312 0.274598,1.4254 1.176206,0.52379 0.836766,-0.83676 1.545598,-0.86964 2.456196,-0.11391 z M 69,376.22554 c 0,-2.66502 -2.289433,-0.60949 -2.586614,2.32236 -0.282139,2.78344 -0.2168,2.8412 1.14369,1.01097 C 68.350684,378.49125 69,376.99125 69,376.22554 Z m 4.984687,3.02446 c -0.0363,-1.77777 -1.74659,-3.44427 -2.418704,-2.35676 C 71.189774,377.50196 71.160081,378.45 71.5,379 c 0.720886,1.16642 2.507067,1.34614 2.484687,0.25 z M 357.75,373.72232 c 1.89073,-1.46298 1.49895,-5.06468 -0.76143,-7.00008 C 355.88228,365.77501 354.57759,365 354.08926,365 c -0.88066,0 -2.08432,8.85072 -1.38801,10.20633 0.40701,0.79239 3.14803,-0.0133 5.04875,-1.48401 z M 67.527124,370.25205 c -0.799802,-3.18667 -1.277666,-3.83484 -2.169625,-2.94288 -0.353375,0.35337 -0.139082,1.24908 0.476207,1.99046 0.827971,0.99764 0.813028,1.65364 -0.0575,2.52416 C 64.874598,372.7254 65.022192,373 66.408408,373 c 1.473138,0 1.680543,-0.50946 1.118716,-2.74795 z M 36.260801,364.8893 C 35.989066,363.85019 35.158345,363 34.414753,363 c -0.743591,0 -1.141107,0.675 -0.883368,1.5 1.552014,4.96787 1.556887,4.97521 2.399842,3.61128 0.453001,-0.73297 0.601309,-2.18286 0.329574,-3.22198 z M 329,368 c 0,-0.55 -0.45,-1 -1,-1 -0.55,0 -1,0.45 -1,1 0,0.55 0.45,1 1,1 0.55,0 1,-0.45 1,-1 z M 45.213308,363 c -0.242169,-1.65 -0.839232,-3 -1.326807,-3 -1.028575,0 -1.207691,4.34548 -0.219834,5.33333 1.405321,1.40532 1.970267,0.55302 1.546641,-2.33333 z m 304.144672,-1.25 c 2.95447,-4.73444 2.74274,-11.75 -0.35462,-11.75 -1.25938,0 -3.09943,7.15618 -2.81153,10.93441 0.27727,3.63891 1.24821,3.88902 3.16615,0.81559 z m 22.45195,-0.93274 c 0.21385,-1.85107 -0.29611,-3.00709 -1.64499,-3.72899 -2.63726,-1.41142 -4.62161,0.95609 -3.74126,4.46366 0.90941,3.6234 4.94639,3.07277 5.38625,-0.73467 z m 52.87318,-1.00476 c -0.31922,-0.79773 -0.55618,-0.56078 -0.60416,0.60417 -0.0434,1.05416 0.19293,1.64479 0.52522,1.3125 0.33229,-0.33229 0.36781,-1.1948 0.0789,-1.91667 z m -57.72648,-6.71419 c -0.10287,-1.41902 -4.66416,-8.50082 -5.69701,-8.8451 -2.03635,-0.67879 -5.50692,3.72223 -4.80189,6.08924 0.35345,1.18665 0.74521,2.60755 0.87058,3.15755 0.68293,2.9962 1.72234,3.31921 5.67917,1.76493 2.19589,-0.86257 3.973,-1.83755 3.94915,-2.16662 z M 44,355.05902 c 0,-0.51754 -0.45,-1.2191 -1,-1.55902 -0.55,-0.33992 -1,0.0835 -1,0.94098 0,0.85746 0.45,1.55902 1,1.55902 0.55,0 1,-0.42344 1,-0.94098 z M 34,348.94098 C 34,347.32344 33.598784,346 33.108408,346 c -1.131933,0 -2.367597,4.77161 -1.569904,6.0623 C 32.591818,353.7666 34,351.98094 34,348.94098 Z m 311.13148,-1.18666 c 1.81465,-3.39071 1.54483,-13.50658 -0.41247,-15.46388 -1.48576,-1.48576 -1.70332,-1.41898 -2.73194,0.8386 -0.6147,1.3491 -2.10075,2.88782 -3.30235,3.41938 -1.66716,0.73751 -2.11319,1.67539 -1.88277,3.95902 0.16607,1.64591 1.03322,3.55041 1.927,4.23223 0.89378,0.68181 1.3243,1.54041 0.95673,1.90799 -0.89981,0.8998 1.22296,3.35234 2.90158,3.35234 0.73831,0 1.88321,-1.01056 2.54422,-2.24568 z m 28.02805,-0.76024 c -0.18725,-1.276 -1.31225,-3.1317 -2.5,-4.12377 -4.21329,-3.51919 -4.89849,-1.75443 -1.40953,3.6303 2.48802,3.83992 4.43673,4.08589 3.90953,0.49347 z M 30.683114,342.8125 c -0.319226,-0.79773 -0.556183,-0.56078 -0.604167,0.60417 -0.04342,1.05416 0.192928,1.64479 0.52522,1.3125 0.332291,-0.33229 0.367818,-1.1948 0.07895,-1.91667 z m 343.878436,-2.51271 c -0.46448,-1.21039 -0.91884,-1.3425 -1.75195,-0.50939 -0.83312,0.83312 -0.76926,1.55328 0.24623,2.77687 1.55102,1.86887 2.52826,0.39723 1.50572,-2.26748 z m -12.18958,-2.3151 c 0.62042,-0.008 1.731,-0.3975 2.46797,-0.86461 1.04839,-0.66449 0.78056,-1.40867 -1.23089,-3.42012 -1.70442,-1.70442 -2.80544,-2.19121 -3.26699,-1.44441 -0.38289,0.61953 -0.16649,1.30297 0.48089,1.51877 C 362.53351,334.3445 362.26765,337 360.5,337 c -0.825,0 -1.5,0.4132 -1.5,0.91821 0,0.50502 -0.2503,1.74252 -0.55622,2.75 -0.42827,1.41042 -0.17018,1.31422 1.12197,-0.41821 0.92301,-1.2375 2.18581,-2.25689 2.80622,-2.26531 z m -5.95086,-7.27013 c 0.10913,-1.53199 -0.38352,-3.2684 -1.09477,-3.85869 -2.40736,-1.99792 -5.44504,9.09125 -3.22362,11.7679 1.20974,1.45765 1.49712,1.27408 2.73585,-1.74752 0.76127,-1.85694 1.47341,-4.6297 1.58254,-6.16169 z m 32.08442,8.27649 C 389.31038,337.68878 388.14787,334 386.93261,334 386.41968,334 386,335.35 386,337 c 0,2.95131 1.28229,3.97029 2.50553,1.99105 z m -15.59531,-4.60883 c 0.71175,-0.6408 -2.01891,-8.74424 -4.08826,-12.13222 -2.14683,-3.51482 -4.24839,-4.18708 -5.21497,-1.66821 -1.07292,2.79598 -0.65339,5.54357 1.26181,8.26384 1.02785,1.4599 2.18914,3.68568 2.58066,4.94616 0.55637,1.79125 1.18564,2.14633 2.88119,1.62577 1.19314,-0.36631 2.35395,-0.83221 2.57957,-1.03534 z M 48.5,330.91667 C 48.5,328.5463 48.04065,327.5 47,327.5 c -1.601033,0 -2.538265,3.65492 -1.578555,6.15588 1.014298,2.64322 3.078555,0.8065 3.078555,-2.73921 z m 393.56244,-0.0333 c 0.89932,-1.6804 0.81059,-2.43888 -0.43048,-3.67995 -1.4177,-1.4177 -1.64736,-1.337 -2.46622,0.86667 -1.64814,4.43538 0.77112,6.78496 2.8967,2.81328 z M 414,330.62244 c 0,-0.20765 -0.675,-0.93775 -1.5,-1.62244 -1.22851,-1.01957 -1.5,-0.95124 -1.5,0.37756 0,0.89234 0.675,1.62244 1.5,1.62244 0.825,0 1.5,-0.1699 1.5,-0.37756 z m -33.66234,-5.31575 C 381.05172,320.90646 379.00097,317 375.97695,317 c -2.27711,0 -2.62015,2.2213 -0.60174,3.89643 0.75637,0.62773 1.66507,2.95401 2.01934,5.16951 0.7657,4.78837 2.09865,4.4445 2.94311,-0.75925 z m 12.25343,-0.56445 c 0.35694,-0.35694 0.35888,-2.19538 0.004,-4.08542 -0.45058,-2.40181 -1.3095,-3.6103 -2.8528,-4.01388 -2.95987,-0.77402 -4.04711,0.53397 -2.87183,3.45493 0.53159,1.32117 1.20029,3.1539 1.48602,4.07272 0.49891,1.60439 2.8801,1.92586 4.2343,0.57165 z m -25.65351,-9.62561 c 0.79205,-1.47996 0.48853,-2.44382 -1.41707,-4.5 -3.71283,-4.00621 -5.15168,-3.41071 -5.75863,2.38337 -0.21767,2.07793 0.11798,2.44718 1.98812,2.18714 1.2375,-0.17207 2.25,0.16543 2.25,0.75 0,1.7295 1.8493,1.21297 2.93758,-0.82051 z m 7.39229,-1.53387 c 0.29911,-0.77948 -0.10274,-1.66536 -0.89301,-1.96862 C 372.48758,311.24987 372,311.7308 372,313.03138 c 0,2.27548 1.52938,2.63741 2.32987,0.55138 z m 20.47149,-3.48683 c 0.20208,-0.60624 -0.45806,-1.02953 -1.46697,-0.94065 -4.83231,0.42572 -6.06501,-0.23149 -7.84721,-4.18371 -2.06442,-4.57806 -3.74359,-4.75411 -3.9731,-0.41655 -0.18562,3.50823 2.05145,7.34871 4.89289,8.39982 2.23725,0.82762 7.79668,-1.06578 8.39439,-2.85891 z M 364.92971,306.75 c -0.0387,-0.6875 -0.39734,-2.08113 -0.79709,-3.09695 -0.65995,-1.67706 -0.84872,-1.70006 -2.05216,-0.25 -1.06104,1.27848 -1.07709,1.89609 -0.0805,3.09695 1.51388,1.82412 3.02548,1.9531 2.92971,0.25 z m 12.14591,-2.5 c -0.68699,-4.22643 -2.76926,-4.65119 -2.22504,-0.45388 0.4024,3.10357 0.93923,4.20388 2.05102,4.20388 0.43096,0 0.50927,-1.6875 0.17402,-3.75 z m 15.41203,-1.19048 c -1.98044,-1.98105 -2.90935,-0.71599 -1.46118,1.98993 0.94139,1.75901 1.36656,1.93276 2.04485,0.83565 0.53887,-0.87159 0.32248,-1.91914 -0.58367,-2.82558 z M 34,305.55902 c 0,-0.24254 -0.45,-0.7191 -1,-1.05902 -0.55,-0.33992 -1,-0.14148 -1,0.44098 0,0.58246 0.45,1.05902 1,1.05902 0.55,0 1,-0.19844 1,-0.44098 z m -0.355787,-6.05831 c -0.07932,-1.37462 -0.706713,-2.49962 -1.394213,-2.5 -1.376782,-7.8e-4 -1.566928,1.00981 -0.643011,3.4175 0.936362,2.44012 2.198174,1.87184 2.037224,-0.9175 z M 459.28949,294.001 c 0.28751,-1.09946 0.16598,-2.2195 -0.27006,-2.48899 -1.14957,-0.71048 -3.30908,2.2103 -2.5465,3.44419 1.01539,1.64293 2.2463,1.22548 2.81656,-0.9552 z M 33.770691,290.5 C 33.884489,289.125 33.532638,288 32.988798,288 32.444959,288 32,289.125 32,290.5 c 0,1.375 0.351851,2.5 0.781892,2.5 0.430041,0 0.875,-1.125 0.988799,-2.5 z m 352.833479,-0.22917 c -1.01652,-1.01651 -1.85525,0.51389 -1.02122,1.86338 0.63003,1.01942 0.86558,1.02021 1.2043,0.004 0.2316,-0.69479 0.14921,-1.53513 -0.18308,-1.86742 z M 418,283.55902 c 0,-0.24254 -0.45,-0.7191 -1,-1.05902 -0.55,-0.33992 -1,-0.14148 -1,0.44098 0,0.58246 0.45,1.05902 1,1.05902 0.55,0 1,-0.19844 1,-0.44098 z M 36.523893,276.42836 c 0.12408,-3.86211 -0.680157,-5.27758 -1.62611,-2.86198 -1.216988,3.10771 -1.035855,6.64631 0.317123,6.19532 0.668199,-0.22273 1.257243,-1.72273 1.308987,-3.33334 z M 41.5,275 c 0.339919,-0.55 0.141476,-1 -0.440983,-1 C 40.476558,274 40,274.45 40,275 c 0,0.55 0.198442,1 0.440983,1 0.242541,0 0.719098,-0.45 1.059017,-1 z M 405,273 c 0,-1.1 -0.45,-2 -1,-2 -0.55,0 -1,0.9 -1,2 0,1.1 0.45,2 1,2 0.55,0 1,-0.9 1,-2 z m 8,-17.05902 C 413,255.42344 412.325,255 411.5,255 c -1.54641,0 -1.9867,1.17996 -0.86052,2.30615 C 411.43841,258.10508 413,257.20196 413,255.94098 Z M 47.298055,243.96824 c 0.282802,-1.08144 0.125596,-2.20641 -0.349347,-2.49994 -1.031123,-0.63727 -4.141984,5.00509 -3.250835,5.89624 0.890833,0.89083 2.999198,-1.09813 3.600182,-3.3963 z m 359.711085,-2.45723 c -0.67967,-0.81894 -1.64211,-1.23785 -2.13876,-0.9309 -1.27647,0.7889 -0.0558,2.41989 1.81108,2.41989 1.27119,0 1.33244,-0.27832 0.32768,-1.48899 z M 45,231.38197 c 0,-0.825 -0.45,-1.22189 -1,-0.88197 -0.55,0.33992 -1,1.29303 -1,2.11803 0,0.825 0.45,1.22189 1,0.88197 0.55,-0.33992 1,-1.29303 1,-2.11803 z m 367.64326,1.1053 C 413.51188,230.22367 411.13467,228 407.84617,228 c -3.2959,0 -4.71134,2.25261 -2.8356,4.51273 1.61857,1.95027 6.88127,1.93271 7.63269,-0.0255 z M 456,230.55902 c 0,-0.24254 -0.45,-0.7191 -1,-1.05902 -0.55,-0.33992 -1,-0.14148 -1,0.44098 0,0.58246 0.45,1.05902 1,1.05902 0.55,0 1,-0.19844 1,-0.44098 z m -14.55279,-4.64443 c -0.32197,-0.52097 -1.01165,-0.68378 -1.53262,-0.3618 -0.52097,0.32197 -0.68378,1.01165 -0.3618,1.53262 0.32197,0.52097 1.01165,0.68378 1.53262,0.3618 0.52097,-0.32197 0.68378,-1.01165 0.3618,-1.53262 z M 419,223.09301 C 419,221.64057 416.50706,220 414.3,220 c -2.38013,0 -2.79817,0.70823 -1.53469,2.60006 1.40696,2.10665 6.23469,2.48836 6.23469,0.49295 z M 427.5,218 c -0.33992,-0.55 -1.06803,-1 -1.61803,-1 -0.55,0 -0.72189,0.45 -0.38197,1 0.33992,0.55 1.06803,1 1.61803,1 0.55,0 0.72189,-0.45 0.38197,-1 z m -5,-2 c -0.33992,-0.55 -1.04148,-1 -1.55902,-1 -0.51754,0 -0.94098,0.45 -0.94098,1 0,0.55 0.70156,1 1.55902,1 0.85746,0 1.2809,-0.45 0.94098,-1 z m -11.02715,-4.95607 c 0.76745,-1.24175 -4.06231,-4.41569 -5.43158,-3.56944 -1.61242,0.99654 0.6762,4.52551 2.9349,4.52551 1.04819,0 2.17169,-0.43023 2.49668,-0.95607 z M 59,200.53254 c 0,-0.67241 0.9,-2.03705 2,-3.03254 1.1,-0.99549 2,-2.48498 2,-3.30998 0,-1.22815 -0.363803,-1.17076 -2.007431,0.3167 C 57.516081,197.6529 54.186413,205.75003 57.5,203 58.325,202.31531 59,201.20496 59,200.53254 Z M 419.5,201 c 0.33992,-0.55 0.16803,-1 -0.38197,-1 -0.55,0 -1.27811,0.45 -1.61803,1 -0.33992,0.55 -0.16803,1 0.38197,1 0.55,0 1.27811,-0.45 1.61803,-1 z m -8.5,-4 c -1.93876,-1.25292 -3,-1.25292 -3,0 0,0.55 1.0125,0.99311 2.25,0.98469 1.81944,-0.0124 1.96296,-0.20082 0.75,-0.98469 z m -2.5,-7 c -0.33992,-0.55 -1.29303,-1 -2.11803,-1 -0.825,0 -1.22189,0.45 -0.88197,1 0.33992,0.55 1.29303,1 2.11803,1 0.825,0 1.22189,-0.45 0.88197,-1 z m 11.5,-3 c 0,-0.55 -0.19844,-1 -0.44098,-1 -0.24254,0 -0.7191,0.45 -1.05902,1 -0.33992,0.55 -0.14148,1 0.44098,1 0.58246,0 1.05902,-0.45 1.05902,-1 z m -29.14329,-3.32735 c 0.84661,-1.0201 0.40704,-1.84087 -1.89898,-3.54578 C 385.90209,177.86774 384,178.01178 384,180.50231 c 0,1.29116 3.63598,4.49769 5.10006,4.49769 0.36028,0 1.15077,-0.59731 1.75665,-1.32735 z m -0.5713,-11.65607 c 0.75338,-2.88092 -1.13048,-3.60004 -2.17646,-0.83082 -0.93043,2.46332 -0.50112,4.17465 0.83944,3.34614 0.44561,-0.2754 1.04727,-1.4073 1.33702,-2.51532 z M 74,170.5 c 0.717549,-0.86459 0.814738,-1.5 0.229434,-1.5 -0.558501,0 -1.274478,0.675 -1.59106,1.5 -0.316583,0.825 -0.419828,1.5 -0.229434,1.5 0.190394,0 0.906371,-0.675 1.59106,-1.5 z M 386,170 c 0,-0.55 -0.45,-1 -1,-1 -0.55,0 -1,0.45 -1,1 0,0.55 0.45,1 1,1 0.55,0 1,-0.45 1,-1 z m -2.39375,-5.78125 C 384.02606,162.11968 383.85866,161 383.125,161 c -0.61875,0 -1.125,0.39375 -1.125,0.875 0,0.48125 -0.28451,2.39375 -0.63224,4.25 -0.45962,2.45357 -0.32823,3.09345 0.48125,2.34375 0.61242,-0.56719 1.40318,-2.47969 1.75724,-4.25 z M 379,156.65499 c 0,-0.73976 -0.9,-2.1595 -2,-3.15499 -1.7188,-1.55549 -2,-1.58878 -2,-0.23678 0,0.86527 -0.27314,2.28501 -0.60699,3.15499 -0.45784,1.19311 0.0336,1.58179 2,1.58179 1.51714,0 2.60699,-0.56228 2.60699,-1.34501 z m 13,-15.59597 c 0,-0.51754 -0.45,-1.2191 -1,-1.55902 -0.55,-0.33992 -1,0.0835 -1,0.94098 0,0.85746 0.45,1.55902 1,1.55902 0.55,0 1,-0.42344 1,-0.94098 z m -82,-3.37289 c 0,-1.62495 -3.48266,-0.13393 -3.82372,1.63704 -0.30572,1.58748 -0.10029,1.64632 1.73852,0.49797 1.14686,-0.71623 2.0852,-1.67698 2.0852,-2.13501 z m 63,0.37289 c 0,-1.17986 -1.95035,-2.442 -2.66667,-1.72569 C 369.61702,137.04965 370.87916,139 372.05902,139 372.57656,139 373,138.57656 373,138.05902 Z M 366.65556,133.75 c -0.42438,-2.87698 -4.11528,-4.67559 -10.05584,-4.90029 C 352.11736,128.68017 348.74037,127 352.88197,127 c 2.68015,0 3.44719,-1.48193 1.57238,-3.03789 -2.08983,-1.7344 -5.64838,-1.48096 -14.45435,1.02943 -4.125,1.17595 -8.625,2.34254 -10,2.59243 l -2.5,0.45434 2.5,-1.13901 c 4.62669,-2.10793 9.6746,-3.95683 12,-4.39525 0.275,-0.0519 2.3,-0.42686 4.5,-0.83336 8.51312,-1.57299 9.5,-1.85819 9.5,-2.74541 0,-1.6205 -11.21242,-0.77367 -21.47855,1.62219 -5.48821,1.28082 -10.16512,2.1422 -10.39313,1.91418 -0.45675,-0.45675 -0.38806,-0.48343 8.78684,-3.41316 3.52833,-1.12667 7.84083,-2.04849 9.58333,-2.04849 1.7425,0 3.50568,-0.3375 3.91818,-0.75 0.80337,-0.80338 1.10983,-0.87432 5.33333,-1.23457 2.18334,-0.18623 1.82275,-0.42473 -1.75,-1.15746 -4.35975,-0.89414 -7.30506,-0.72385 -17.207,0.99489 -5.86726,1.01841 -5.49,0.23195 1.11435,-2.323 4.88357,-1.88926 6.61391,-3.52986 3.72292,-3.52986 -1.79296,0 -12.98216,3.58277 -15.65262,5.01196 -1.14509,0.61284 -1.98817,1.87335 -1.87351,2.80114 0.11466,0.9278 -0.34922,3.0369 -1.03085,4.6869 -1.73749,4.20589 -1.72771,11.47248 0.0169,12.57692 2.37789,1.50531 13.23648,1.08298 15.65176,-0.60875 1.20284,-0.8425 3.97778,-2.16365 6.16652,-2.93589 3.17966,-1.12185 3.87926,-1.14278 3.4807,-0.10413 -0.5039,1.31313 1.71995,2.02604 10.10714,3.24008 2.19798,0.31816 4.89798,0.94444 6,1.39173 1.10201,0.4473 3.01334,0.84179 4.24739,0.87665 1.77219,0.0501 2.17397,-0.40946 1.91183,-2.18661 z m -18.84306,-5.43311 c 0.72187,-0.28887 1.58438,-0.25335 1.91667,0.0789 0.33229,0.33229 -0.25834,0.56864 -1.3125,0.52522 -1.16495,-0.048 -1.4019,-0.28494 -0.60417,-0.60416 z m 27.30211,4.15811 c -0.0195,-0.53625 -1.04418,-1.13072 -2.27715,-1.32104 -1.96935,-0.30399 -2.07744,-0.14805 -0.88953,1.2833 1.41019,1.69918 3.22777,1.72084 3.16668,0.0377 z M 292.75,129.02502 c 2.66632,-3.93523 2.7785,-4.88499 0.67246,-5.69315 -2.34975,-0.90168 -4.84119,2.20077 -4.98012,6.20146 -0.14749,4.24713 1.19278,4.08897 4.30766,-0.50831 z M 369,126.048 c 0,-1.69735 -3.81382,-4.06249 -5.60538,-3.47618 -1.04204,0.34103 -2.5078,0.8072 -3.25724,1.03595 -1.06425,0.32483 -1.10297,0.72877 -0.17682,1.8447 1.81945,2.19231 9.03944,2.66797 9.03944,0.59553 z m 9.5,0.99185 c 1.86774,-0.76539 1.81872,-0.89114 -0.74132,-1.90166 -3.50941,-1.38527 -6.30315,-0.49917 -4.66176,1.47859 1.27841,1.54039 2.45222,1.6323 5.40308,0.42307 z M 362,119 c 1.16887,-0.75538 0.89294,-0.97275 -1.25,-0.98469 C 359.2375,118.00689 358,118.45 358,119 c 0,1.26441 2.04347,1.26441 4,0 z m -32.48472,-11.97527 c -0.64399,-1.042 -5.85211,0.0215 -6.72866,1.37406 -1.1667,1.80021 2.52799,2.4313 4.95479,0.84633 1.23278,-0.80514 2.03102,-1.80432 1.77387,-2.22039 z M 288.25,102.57389 c 4.34161,-0.9662 3.41524,-2.921272 -0.99238,-2.0944 -4.36064,0.81806 -5.25762,1.26964 -5.25762,2.64691 0,0.55461 0.7875,0.79488 1.75,0.53393 0.9625,-0.26094 2.9875,-0.74984 4.5,-1.08644 z" id="path12"/>
</svg>
