<?xml version="1.0" encoding="utf-8"?>
<svg xmlns="http://www.w3.org/2000/svg" version="1.1" viewBox="0 0 66 102">
	<title/>
	<path d="M 26.450423,93.646711 C 24.773156,92.88682 22.185656,90.820919 20.700423,89.05582 17.295349,85.009119 17.002407,77.875768 20,72 c 2.379022,-4.663268 2.560361,-8.290052 0.5,-10 -1.899848,-1.576734 -1.94683,-4 -0.07755,-4 2.276581,0 5.492618,13.316424 3.511708,14.540694 -1.546651,0.955883 -1.05289,3.478268 0.815844,4.167749 0.9625,0.355121 2.032344,1.065812 2.377432,1.579314 1.010448,1.503579 -0.207218,4.618857 -1.596926,4.085576 C 23.476484,81.58513 22.818984,85.074789 24.529613,87.68554 26.451769,90.61912 29.839635,92 35.11476,92 42.779645,92 49.056078,86.600314 48.929363,80.115141 L 48.858726,76.5 47.026261,80.618396 c -2.642751,5.939483 -9.932275,8.352913 -13.458926,4.456008 -2.116483,-2.338687 -1.710202,-5.423209 0.777424,-5.902282 1.473675,-0.283804 1.758108,0.191715 1.488517,2.488516 -0.284258,2.421748 0.0515,2.884001 2.282813,3.142862 C 41.10956,85.150782 46,80.234536 46,76.877985 46,75.021352 45.459839,74.939151 36.5,75.432295 30.621983,75.755816 27,75.582453 27,74.977584 27,74.439913 27.588992,74 28.30887,74 c 0.719879,0 2.079858,-0.563759 3.022175,-1.252799 2.218271,-1.622039 3.504722,-15.035237 1.6557,-17.263173 -1.949434,-2.348924 -2.64058,-0.981864 -2.8817,5.699889 -0.124457,3.448861 -0.424006,6.468378 -0.665665,6.710037 -1.144787,1.144786 -1.711518,-1.428771 -1.724867,-7.832713 l -0.01459,-7.0012 -4.84996,-4.089546 C 20.182482,46.721245 18,44.441903 18,43.905291 18,43.368679 17.29901,41.859787 16.442244,40.552197 14.671898,37.850307 13.76326,25.752872 15.072101,22.31036 16.524043,18.491462 23.511945,12.351173 28.107414,10.856193 32.985544,9.2692592 42.358403,9.8350614 47.5,12.026847 c 4.256336,1.814411 6.306652,2.095014 7.00863,0.959189 C 55.405204,11.535348 57,11.786273 57,13.378028 c 0,0.757915 -0.989823,2.035246 -2.199607,2.838512 l -2.199606,1.460484 2.199606,2.796347 C 56.128174,22.161371 57,24.676548 57,26.819134 c 0,4.161664 -3.079959,10.988098 -6.501242,14.409381 -6.172698,6.172698 -6.171749,18.50191 0.0012,16.133111 0.922491,-0.353992 1.5,0.0019 1.5,0.924396 0,2.016428 -2.709581,2.939773 -5.011559,1.707792 C 43.902591,58.342317 43.285213,50.591719 45.614875,42.75 46.012891,41.410265 45.54672,41 43.626405,41 c -3.27181,0 -3.469234,0.426323 -4.080245,8.811008 l -0.517792,7.105468 4.622309,4.291762 c 5.10243,4.737548 8.293674,10.636338 8.327361,15.392539 0.04634,6.542552 -4.072369,14.191067 -8.832669,16.402422 -4.050162,1.881467 -13.185266,2.233582 -16.694946,0.643512 z M 45.552898,69.44671 c -0.301205,-4.505538 -3.816614,-10.019793 -5.661037,-8.879877 -1.199165,0.741125 -0.832879,8.795246 0.481107,10.578864 1.026753,1.393725 3.069372,2.57337 4.805679,2.775356 0.373256,0.04342 0.541669,-1.970034 0.374251,-4.474343 z M 33.843707,43.047953 C 33.654668,37.574328 33.00259,32.599418 32.394645,31.992598 30.12011,29.722275 26.288546,31.95593 24.521762,36.582188 23.593815,39.011984 22.532044,41 22.162272,41 21.792501,41 21.492219,37.850579 21.49498,34.001286 l 0.005,-6.998713 4.75,-0.0013 c 5.338182,-0.0014 5.997015,-1.138105 2.128766,-3.672678 C 25.91674,21.715426 25.682278,21.714026 24.518524,23.305555 22.984833,25.403002 21,25.51269 21,23.5 21,21.72179 19.417902,21.514804 18.401122,23.159988 17.459994,24.682766 17.556803,36.935228 18.530228,39.5 19.572433,42.245991 25.100301,48 26.696167,48 28.363891,48 28.445815,41.845815 26.8,40.2 25.866667,39.266667 25.954002,39 27.193011,39 29.2161,39 30,41.061492 30,46.381787 30,50.372778 31.307498,53 33.293707,53 c 0.491539,0 0.739039,-4.478421 0.55,-9.952047 z m 14.055344,-5.426316 c 0.812372,-0.978849 0.848049,-2.156616 0.123088,-4.063407 -0.861459,-2.265809 -1.528396,-2.636109 -4.271495,-2.371636 -2.517389,0.24271 -3.324353,0.83336 -3.577408,2.618448 -0.17972,1.267773 0.21288,2.955273 0.872445,3.75 1.519997,1.831484 5.357693,1.868775 6.85337,0.06659 z m 7.065514,-9.411475 C 55.006133,25.524005 51.376192,18 50.038693,18 49.532331,18 48.83117,18.464156 48.480558,19.031458 48.125637,19.605732 46.875587,18.62725 45.660303,16.82389 42.359649,11.92605 34.57712,10.594993 28,13.803422 23.622752,15.938717 22.504683,20 26.294085,20 c 1.338253,0 3.589883,1.156695 5.003622,2.570434 1.962303,1.962303 3.285321,2.457766 5.592108,2.094212 1.882555,-0.296694 3.4615,0.05374 4.188374,0.929566 C 41.788696,26.45032 44.152071,27 47.122445,27 H 52 l 0.03543,4.25 c 0.03493,4.188679 0.05606,4.213929 1.464565,1.75 0.786021,-1.375 1.445075,-3.530427 1.464565,-4.789838 z"/>
</svg>
