<?xml version="1.0" encoding="utf-8"?>
<svg xmlns="http://www.w3.org/2000/svg" version="1.1" viewBox="0 0 670 584">
	<title>S is for sugar tongs.</title>
	<path d="m 115.39903,574.04179 c -6.24229,-4.7794 -7.97804,-9.61695 -7.11628,-19.83323 0.50251,-5.95728 3.66278,-15.7768 5.53187,-17.18849 0.37871,-0.28604 1.32912,-1.76266 2.11201,-3.28138 2.80622,-5.44376 19.59118,-21.17574 25.73246,-24.11818 3.2125,-1.53919 6.74091,-3.28543 7.84091,-3.88053 2.73038,-1.47714 6.25227,-1.81453 18.31594,-1.75465 5.67377,0.0282 10.84877,-0.28187 11.5,-0.68895 0.65123,-0.40707 1.63406,-0.84271 2.18406,-0.96807 6.30713,-1.43759 15.75737,-7.48001 19.39621,-12.40179 1.19001,-1.60959 2.80283,-2.92652 3.58404,-2.92652 0.7812,0 1.78023,-0.62648 2.22006,-1.39217 0.82664,-1.43907 5.56575,-4.49508 10.79969,-6.96416 1.65,-0.77838 4.85868,-3.15413 7.13039,-5.27945 2.27172,-2.12532 5.50557,-4.76422 7.18634,-5.86422 5.64082,-3.69172 26.66932,-21.33958 27.96598,-23.47005 0.70549,-1.15916 1.71607,-1.83972 2.24574,-1.51236 0.52968,0.32735 1.45851,-0.49225 2.06408,-1.82133 0.60557,-1.32909 2.89543,-3.49196 5.08857,-4.80639 2.19314,-1.31443 4.51209,-2.98462 5.15321,-3.71155 2.64667,-3.00083 13.78034,-12.74001 19.66569,-17.20255 2.475,-1.87666 7.68475,-6.12643 11.57723,-9.44394 3.89247,-3.31751 13.09821,-10.98183 20.4572,-17.03183 7.35899,-6.05 17.50529,-14.6 22.54735,-19 5.04205,-4.4 15.55964,-13.4 23.37242,-20 7.81277,-6.6 15.40671,-13.0388 16.87542,-14.30845 1.46871,-1.26965 5.25788,-4.14735 8.42038,-6.39489 3.1625,-2.24755 5.75,-4.47124 5.75,-4.94155 0,-0.47031 0.60526,-0.85511 1.34501,-0.85511 0.73976,0 2.20226,-0.96588 3.25,-2.1464 1.04775,-1.18052 3.66213,-3.43206 5.80976,-5.00342 3.61875,-2.64776 10.50941,-8.60765 23.03398,-19.92262 2.78369,-2.51485 6.63625,-5.63843 8.56125,-6.9413 1.925,-1.30286 5.99284,-4.64527 9.03964,-7.42755 3.0468,-2.78229 9.7968,-8.49159 15,-12.68734 5.2032,-4.19575 10.65522,-8.74725 12.1156,-10.11443 1.46038,-1.36719 4.16038,-3.53999 6,-4.82844 4.16445,-2.91675 13.18621,-10.60563 21.42691,-18.26127 C 515.35095,229.37898 524.85241,222 526.18061,222 526.63127,222 527,221.31088 527,220.46862 c 0,-0.84227 0.7875,-1.82074 1.75,-2.1744 0.9625,-0.35366 3.07293,-1.91453 4.68984,-3.46862 1.61691,-1.55408 3.48941,-2.8256 4.1611,-2.8256 0.6717,0 2.44196,-1.4625 3.93391,-3.25 1.49195,-1.7875 3.59696,-3.73724 4.6778,-4.33276 1.08083,-0.59552 7.24395,-6.22052 13.69581,-12.5 6.45186,-6.27948 15.07435,-14.45445 19.1611,-18.1666 4.08674,-3.71214 10.74869,-10.46214 14.80433,-15 4.05564,-4.53785 10.58064,-11.73802 14.5,-16.00038 3.91936,-4.26235 7.81226,-8.98735 8.65089,-10.5 2.39276,-4.31587 5.13706,-8.41157 8.54321,-12.75026 3.63277,-4.62736 7.2412,-12.14198 10.45942,-21.781966 1.90328,-5.701153 2.16631,-8.049999 1.65051,-14.738717 -0.5615,-7.281414 -0.95077,-8.403309 -4.58632,-13.218034 -6.54503,-8.66789 -9.40295,-11.62669 -13.2522,-13.719998 -2.01333,-1.094892 -5.15111,-3.352092 -6.97286,-5.015999 -3.33196,-3.043278 -5.30984,-3.735061 -6.26415,-2.190951 -0.28361,0.458884 -3.31011,0.935177 -6.72557,1.058429 -4.37746,0.157966 -6.93829,0.797025 -8.67823,2.165665 C 589.84102,53.126293 588.08815,54 587.30333,54 585.65558,54 570.53661,61.951279 564.19987,66.150438 561.8348,67.717697 559.33677,69 558.6487,69 557.08245,69 545.89704,76.214206 544.09302,78.387913 543.35717,79.274561 542.41003,80 541.98827,80 c -2.91982,0 -50.78547,34.28314 -72.95848,52.25555 -5.85559,4.74627 -28.19102,21.86749 -54.45759,41.74445 -9.65657,7.30751 -40.45363,34.09614 -55.62582,48.38577 -8.78116,8.27037 -18.72567,16.8836 -32.45959,28.11423 -5.38075,4.4 -17.07628,14.075 -25.99006,21.5 -8.91378,7.425 -21.75277,18 -28.53108,23.5 -6.77831,5.5 -17.67194,15.08025 -24.20805,21.28945 -6.53612,6.2092 -13.6914,12.59884 -15.90064,14.1992 -3.62018,2.62245 -13.83536,11.55704 -22.30789,19.51135 -7.20162,6.76113 -26.23373,23.31449 -31.94047,27.78052 -3.35973,2.62929 -7.9086,6.48943 -10.1086,8.57809 -2.2,2.08866 -5.35,4.81135 -7,6.05042 -1.65,1.23907 -5.25,4.3875 -8,6.99652 -2.75,2.60901 -7.53474,6.73509 -10.63275,9.16905 -10.78461,8.47298 -16.41027,13.14115 -23.21517,19.26392 C 103.49351,441.97757 98,447.39257 98,448.69545 c 0,0.75202 -0.7875,1.65787 -1.75,2.01299 -2.226408,0.82145 -3.208683,2.2652 -3.259997,4.79156 C 92.887368,460.55312 76.722738,488.72363 73,490.33709 c -1.375,0.59593 -5.2,2.84349 -8.5,4.99456 -7.003016,4.56486 -12.352001,6.35598 -21.434351,7.17733 -5.477459,0.49535 -7.482835,0.21081 -12.099535,-1.71677 -3.043638,-1.2708 -6.868638,-3.28283 -8.5,-4.47119 -2.829648,-2.06124 -2.982375,-2.55632 -3.319545,-10.76067 -0.194386,-4.73001 -0.08567,-9.66686 0.241595,-10.97078 0.327264,-1.30393 3.716168,-7.0325 7.530896,-12.73017 5.343394,-7.98088 8.464424,-11.5074 13.59333,-15.3594 3.661603,-2.75 6.956744,-5.03365 7.322535,-5.07478 4.114745,-0.46264 11.371664,-1.68537 14.165075,-2.38669 9.157677,-2.29916 13.851381,-2.86143 17.33258,-2.07629 3.783073,0.85322 5.597433,-0.10916 13.841726,-7.34196 0.920868,-0.80789 2.668376,-2.0009 3.88335,-2.65114 1.214974,-0.65023 5.907834,-4.20572 10.428574,-7.90109 4.52075,-3.69537 11.46815,-8.87853 15.43868,-11.51813 3.97052,-2.6396 13.14923,-10.23841 20.39711,-16.88625 15.61656,-14.32368 14.94232,-13.73437 30.17798,-26.37652 6.6,-5.47651 13.575,-11.48902 15.5,-13.36113 1.925,-1.87211 4.45907,-4.08383 5.63126,-4.91493 4.83405,-3.4274 13.42586,-10.69883 22.36874,-18.93112 5.225,-4.80983 11.975,-10.87533 15,-13.47889 3.025,-2.60356 8.2,-7.1058 11.5,-10.00496 3.3,-2.89917 11.85,-10.14059 19,-16.09204 7.15,-5.95146 13.675,-11.56605 14.5,-12.47688 0.825,-0.91082 2.625,-2.35384 4,-3.2067 4.43397,-2.75024 13.08072,-11.03151 18.54681,-17.76288 2.92875,-3.60669 8.72819,-10.60762 12.88765,-15.55762 4.15946,-4.95 7.56331,-9.31853 7.5641,-9.70785 7.9e-4,-0.38931 2.0185,-1.88992 4.48381,-3.33468 2.4653,-1.44477 5.67098,-4.05124 7.12374,-5.79216 1.45276,-1.74092 3.48374,-3.6301 4.51329,-4.19817 2.70983,-1.4952 13.34779,-10.87905 20.90418,-18.4398 9.49543,-9.5009 22.74387,-21.32921 25.54782,-22.80928 1.33573,-0.70506 2.4286,-1.64604 2.4286,-2.09107 0,-0.44502 2.1375,-1.98247 4.75,-3.41656 2.6125,-1.43408 6.96545,-4.6556 9.67323,-7.15893 2.70777,-2.50332 5.16135,-4.5515 5.45239,-4.5515 0.29104,0 1.90059,-1.3234 3.57677,-2.9409 3.06049,-2.95333 4.50788,-4.06416 15.23509,-11.6925 3.19689,-2.27337 6.96605,-5.19837 8.37592,-6.5 3.35159,-3.09428 25.17802,-20.25709 40.75254,-32.04501 C 479.58971,98.694716 490.47509,90.45 497.00568,85.5 c 6.53059,-4.95 13.32644,-9.9 15.10188,-11 1.77545,-1.1 4.70573,-2.920012 6.51174,-4.04447 1.80601,-1.124459 5.08588,-3.711959 7.28861,-5.75 C 528.11064,62.667488 530.18896,61 530.52641,61 c 0.33744,0 3.94938,-2.025 8.02654,-4.5 4.07715,-2.475 7.80998,-4.5 8.29517,-4.5 0.48519,0 2.14911,-1.0125 3.69759,-2.25 6.90251,-5.516255 28.17942,-16.208589 36.49107,-18.337935 3.06542,-0.785325 9.30313,-1.788411 13.86157,-2.22908 7.52195,-0.727155 8.81097,-0.580546 13.94486,1.586047 3.11124,1.312995 6.55679,2.653691 7.65679,2.979326 3.86622,1.144523 12.31686,8.208864 20.51912,17.153032 10.17329,11.093495 12.26502,14.534394 16.341,26.881094 3.19848,9.68864 3.20579,9.758415 2.45991,23.481166 -0.48277,8.88212 -1.43473,15.97548 -2.68408,20 -2.08582,6.71906 -8.22011,18.98796 -11.11788,22.23635 -0.98127,1.1 -2.52775,3.47107 -3.43663,5.26905 -2.94731,5.83048 -41.39627,44.85733 -67.58144,68.59718 -11.71546,10.62141 -40.71725,35.1211 -50.4682,42.63377 -4.8672,3.74996 -20.02494,16.23777 -48.89158,40.27967 -4.47712,3.72882 -10.39022,8.58042 -13.14022,10.78132 -2.75,2.20091 -6.97592,5.67505 -9.39094,7.72033 -2.41502,2.04527 -6.01502,4.81203 -8,6.14835 -1.98498,1.33631 -3.75906,2.79881 -3.94239,3.25 -0.18334,0.45118 -0.90109,0.82033 -1.59502,0.82033 -0.69392,0 -2.11892,0.95472 -3.16666,2.12159 -1.04775,1.16687 -4.60499,3.94589 -7.90499,6.17558 -9.36112,6.32499 -34.32557,25.61387 -40.29114,31.13111 -1.81013,1.6741 -5.23388,4.17509 -7.60833,5.55776 -4.97294,2.89581 -12.70302,8.13162 -20.60053,13.95334 -3.025,2.22991 -6.625,4.83152 -8,5.78137 -1.375,0.94985 -3.625,2.71497 -5,3.92248 -4.9469,4.34432 -15.59807,13.04097 -20.5,16.73818 -2.75,2.07415 -6.60104,5.24999 -8.55788,7.05743 -1.95683,1.80744 -6.68183,5.45875 -10.5,8.11403 -7.04085,4.89644 -16.31261,12.49713 -21.88124,17.93753 -2.91133,2.84429 -5.2479,4.53121 -8.53918,6.16498 -0.81307,0.4036 -2.5333,1.9876 -3.82273,3.52 -1.28943,1.53241 -7.3742,6.36561 -13.5217,10.74045 -6.1475,4.37485 -11.96477,8.65849 -12.92727,9.51922 -0.9625,0.86072 -2.00535,1.56495 -2.31745,1.56495 -0.31209,0 -3.05334,2.025 -6.09166,4.5 -3.03833,2.475 -5.98564,4.5 -6.54958,4.5 -0.56394,0 -2.77219,1.8 -4.90722,4 -2.13503,2.2 -4.49822,4 -5.25155,4 -2.17884,0 -17.52924,15.57369 -26.12004,26.5 -4.32436,5.5 -9.07882,11.35 -10.56546,13 -1.48663,1.65 -4.00354,5.37007 -5.59312,8.26682 -6.16507,11.23485 -12.13743,16.85232 -27.03876,25.43206 -8.89764,5.12301 -15.96066,7.27518 -26.81516,8.17084 -6.95588,0.57397 -7.03215,0.553 -12.10097,-3.32793 z m 21.21829,-4.53311 c 1.05407,-1.44154 1.02427,-2.00994 -0.16788,-3.2021 C 135.65225,565.50939 135,564.53636 135,564.14429 c 0,-0.39206 2.76163,-2.02439 6.13696,-3.6274 3.37533,-1.603 8.56592,-5.13448 11.53466,-7.84773 2.96873,-2.71325 5.58438,-4.74649 5.81256,-4.51831 0.72383,0.72383 -10.82211,12.5737 -14.87373,15.26526 -4.79089,3.18267 -2.19998,3.53178 3.98618,0.53711 6.1735,-2.98854 12.98557,-9.37926 17.42195,-16.34435 C 173.52759,534.24976 180.68594,525 182.5155,525 c 0.73575,0 2.7577,-2.48186 4.49323,-5.51525 1.73553,-3.03339 5.44811,-7.42089 8.25018,-9.75 2.80207,-2.32911 7.60262,-6.51087 10.66788,-9.29279 9.59015,-8.70368 13.69217,-11.43118 18.55946,-12.34049 2.56526,-0.47924 5.86779,-1.96098 7.33894,-3.29274 10.95304,-9.91531 15.25971,-13.40273 22.46541,-18.19183 4.51517,-3.00091 10.30872,-7.17985 12.87455,-9.28655 13.39853,-11.00096 19.30955,-15.69544 29.33485,-23.29744 6.05,-4.58761 14.92708,-11.64676 19.72685,-15.68701 4.79976,-4.04024 8.97443,-7.3459 9.27703,-7.3459 0.3026,0 2.00052,-1.32694 3.77315,-2.94875 1.77264,-1.62181 8.06047,-7.05934 13.97297,-12.0834 5.9125,-5.02406 10.75,-9.55826 10.75,-10.076 0,-0.51774 1.125,-1.36908 2.5,-1.89185 1.375,-0.52277 2.5,-1.41164 2.5,-1.97525 0,-0.56361 0.66463,-1.02475 1.47695,-1.02475 0.81232,0 2.21407,-1.125 3.11501,-2.5 0.90093,-1.375 2.18015,-2.5 2.84271,-2.5 0.66256,0 2.17247,-1.11308 3.35535,-2.47351 1.18287,-1.36043 3.26534,-2.75326 4.6277,-3.09519 1.36236,-0.34193 3.20403,-1.73126 4.0926,-3.08739 0.88857,-1.35614 4.62476,-4.42969 8.30263,-6.83012 3.67788,-2.40043 8.16592,-5.73761 9.97343,-7.41596 1.80751,-1.67835 4.9575,-4.29946 6.99999,-5.82469 2.04249,-1.52523 10.23862,-8.17899 18.21362,-14.78615 14.47591,-11.99305 22.67143,-18.42675 30.40489,-23.86866 2.25232,-1.58491 4.32012,-3.19917 4.59512,-3.58724 0.275,-0.38807 2.56089,-2.24132 5.07975,-4.11833 9.16929,-6.83281 19.44866,-14.87439 20.61647,-16.12832 2.21539,-2.37876 8.74075,-7.86548 19.55378,-16.44142 5.9125,-4.68927 10.75,-8.93478 10.75,-9.43448 0,-0.4997 0.57036,-0.90854 1.26747,-0.90854 0.69711,0 3.29069,-1.9125 5.76352,-4.25 2.47282,-2.3375 8.5184,-7.625 13.43463,-11.75 4.91623,-4.125 10.13386,-8.7375 11.59475,-10.25 1.46089,-1.5125 3.40459,-2.75 4.31933,-2.75 0.91475,0 2.17576,-1.125 2.80225,-2.5 0.6265,-1.375 1.50183,-2.5 1.94519,-2.5 1.18906,0 11.32339,-9.14168 11.66833,-10.52542 0.16251,-0.65191 1.51251,-1.81288 3,-2.57993 1.48749,-0.76706 4.1042,-2.74465 5.8149,-4.39465 9.38574,-9.0527 11.04744,-10.5 12.05543,-10.5 0.6073,0 1.84131,-1.125 2.74224,-2.5 0.90094,-1.375 2.22306,-2.5 2.93806,-2.5 0.71499,0 6.56827,-5.2875 13.00729,-11.75 C 621.67794,162.8659 623,161.43438 623,160.14227 623,159.51402 623.39073,159 623.86829,159 c 0.94308,0 15.28865,-16.53411 18.78159,-21.64688 1.18244,-1.73078 2.44822,-4.20578 2.81285,-5.5 0.36464,-1.29422 1.04284,-3.25312 1.50711,-4.35312 3.11684,-7.38462 4.22132,-11.82927 4.72971,-19.03316 0.48484,-6.87027 0.27934,-8.693991 -1.27644,-11.327723 -2.83059,-4.7918 -7.41602,-3.674102 -7.42927,1.810883 -0.003,1.4025 -0.67839,3.83894 -1.5,5.41431 -0.82161,1.57537 -1.49384,3.4239 -1.49384,4.10785 0,2.17344 -6.73508,14.26193 -11.19695,20.09689 -2.36668,3.09499 -5.20519,7.04558 -6.30781,8.7791 -1.10262,1.73352 -5.31044,6.52685 -9.35071,10.65185 -4.04027,4.125 -8.66343,9.39969 -10.2737,11.72154 -1.61026,2.32185 -4.82744,5.53405 -7.14929,7.13823 -2.32185,1.60417 -5.57154,4.60401 -7.22154,6.6663 -4.34216,5.42715 -10.6111,11.47747 -15.89507,15.34072 -2.53271,1.85174 -4.60493,3.76424 -4.60493,4.25 0,0.48577 -0.675,0.88321 -1.5,0.88321 -0.825,0 -1.5,0.63672 -1.5,1.41493 0,0.77822 -2.3625,3.27462 -5.25,5.54757 -4.61269,3.63096 -12.39389,10.66039 -27.16167,24.5375 -2.34121,2.2 -6.24384,5.21488 -8.67253,6.69972 -2.42869,1.48485 -9.8158,7.48316 -16.4158,13.32957 -6.6,5.84641 -14.87047,12.73153 -18.37883,15.30027 -10.15601,7.436 -18.16222,13.84842 -24.62117,19.71986 -5.52771,5.02491 -11.45704,9.7009 -17.05584,13.45058 -1.23183,0.825 -4.6482,3.62145 -7.59193,6.21433 -9.88356,8.70559 -25.51654,21.23988 -33.40755,26.78567 -4.30423,3.025 -11.75622,9.1 -16.55998,13.5 -8.32314,7.62356 -15.9553,14.07173 -25.18562,21.27854 -2.3095,1.80319 -8.47408,7.28048 -13.69908,12.17176 -12.75951,11.94454 -16.04849,14.86138 -19,16.85019 -2.74101,1.84696 -20.42607,16.46782 -26,21.4951 -7.80468,7.03925 -19.90057,17.29569 -26.5,22.47007 -3.85,3.01866 -7.8381,6.44378 -8.86245,7.6114 -1.02435,1.16762 -6.51697,5.72294 -12.20581,10.12294 -19.88255,15.37802 -44.27357,35.48407 -47.09095,38.81808 -7.04223,8.33359 -29.68377,20.73894 -32.57487,17.84784 -0.75313,-0.75313 -1.6562,-0.75982 -3.03396,-0.0225 -1.0789,0.57741 -3.37246,0.7575 -5.0968,0.40019 -18.92375,-3.92125 -40.17786,10.32166 -52.15927,34.95323 -4.24912,8.73542 -4.46196,9.56192 -3.51536,13.65077 0.55418,2.3938 1.25566,5.61897 1.55883,7.16705 0.40934,2.09021 1.63606,3.32158 4.76593,4.784 5.18503,2.42268 13.3591,2.10812 15.33203,-0.59001 z M 129,559.51342 c 0,-0.26762 1.58133,-1.1473 3.51406,-1.95485 1.93273,-0.80754 3.78087,-2.16358 4.10699,-3.01342 0.32611,-0.84983 1.36634,-1.54515 2.31162,-1.54515 2.42551,0 5.72733,-3.91341 6.53882,-7.75 0.37808,-1.7875 1.05608,-3.25 1.50667,-3.25 1.38786,0 10.52741,-9.42102 13.91224,-14.3407 2.02871,-2.94863 3.94693,-4.6593 5.22459,-4.6593 1.78863,0 1.61273,0.49569 -1.54222,4.34589 -1.95862,2.39023 -3.8468,5.77424 -4.19595,7.52001 -0.82734,4.13672 -10.33222,14.01452 -16.88073,17.54303 -2.74785,1.48062 -6.79609,3.78691 -8.99609,5.1251 -3.91836,2.38341 -5.5,2.95262 -5.5,1.97939 z M 137.71128,548.975 C 141.72052,545.1907 144,544.04257 144,545.8075 c 0,0.88776 -8.62273,7.20762 -9.77924,7.1675 -0.39642,-0.0138 1.17431,-1.81376 3.49052,-4 z m 24.75421,-7.725 c 0.87223,-1.7875 1.79931,-3.25 2.06019,-3.25 0.99447,0 0.35405,1.59298 -1.60811,4 l -2.03796,2.5 z m 3.57544,-5.75 c -0.0171,-0.55 1.07559,-2.35 2.42807,-4 1.35249,-1.65 2.47302,-2.55 2.49007,-2 0.0171,0.55 -1.07559,2.35 -2.42807,4 -1.35249,1.65 -2.47302,2.55 -2.49007,2 z m 3.73057,12.93816 c -0.3352,-0.3352 -1.14849,0.44159 -1.80729,1.72619 -1.14512,2.23286 -1.1183,2.25968 0.60945,0.60946 0.99401,-0.94941 1.53304,-2.00045 1.19784,-2.33565 z m 7.79444,-9.56567 C 178.35467,537.34725 179,535.76197 179,535.34966 c 0,-1.33954 -1.97855,1.18537 -3.93325,5.01941 -1.38399,2.71463 -1.50017,3.4056 -0.42216,2.51093 0.81801,-0.67888 2.13261,-2.48226 2.92135,-4.00751 z"/>
</svg>
