<?xml version="1.0" encoding="utf-8"?>
<svg xmlns="http://www.w3.org/2000/svg" version="1.1" viewBox="0 0 836 748">
	<path d="m 355,740.5647 c 0,-0.98658 1.52695,-4.36793 8.70271,-19.27168 3.00002,-6.23093 4.62101,-11.07952 5.01481,-15 0.32003,-3.18616 1.37099,-6.81087 2.33545,-8.05491 0.96447,-1.24404 1.52105,-3.15107 1.23685,-4.23785 -0.34647,-1.32489 0.0973,-2.20513 1.34673,-2.6715 3.22557,-1.20395 7.33405,-5.57403 12.53088,-13.32876 2.76436,-4.125 5.54507,-7.96128 6.17935,-8.52507 1.14419,-1.01705 1.96222,-2.4107 8.20284,-13.97493 4.1563,-7.70186 7.00273,-20.98566 8.46398,-39.5 1.06748,-13.52518 3.37497,-25.87563 8.22073,-44 1.10287,-4.125 2.13128,-8.4 2.28535,-9.5 0.15408,-1.1 1.82862,-7.4 3.7212,-14 3.70665,-12.92615 5.53219,-20.79649 5.57555,-24.03756 0.0369,-2.75702 3.84283,-18.12059 5.56451,-22.46244 C 436.57318,496.47146 442,478.63835 442,476.96297 c 0,-0.83488 0.63062,-2.41829 1.40137,-3.5187 1.3053,-1.86358 1.95501,-5.55856 1.70459,-9.69427 -0.0694,-1.14699 -0.92637,-1.75 -2.4869,-1.75 -1.30952,0 -5.42207,-1.14468 -9.139,-2.54373 l -6.75807,-2.54373 -2.45831,2.29373 c -2.85937,2.66794 -5.40268,7.3703 -8.38192,15.4975 -1.16862,3.18792 -4.06873,9.84623 -6.44469,14.79623 -4.33134,9.02378 -6.54029,18.5 -4.31243,18.5 0.7762,0 0.90639,1.33319 0.41503,4.25 -0.39378,2.3375 -0.90656,9.65 -1.13952,16.25 -0.23296,6.6 -0.90086,13.45544 -1.48423,15.2343 -0.58336,1.77887 -0.82304,4.02887 -0.53262,5 0.50719,1.69597 0.78458,4.61198 2.54604,26.7657 1.13789,14.31108 0.47953,22.43588 -2.03488,25.11234 -1.11836,1.19045 -1.9233,2.77717 -1.78875,3.52605 0.41605,2.31562 -2.14573,10.09129 -5.26195,15.97142 -1.63513,3.08539 -5.62155,8.33337 -8.85872,11.66217 -3.99273,4.10577 -6.73642,8.09078 -8.53066,12.39019 -6.64246,15.91682 -10.22863,23.21418 -12.72766,25.89904 -1.14602,1.23124 -1.56544,2.73321 -1.18571,4.24616 0.35678,1.42153 0.037,2.79796 -0.81414,3.50435 -1.10645,0.91826 -1.89297,0.64038 -3.73393,-1.31923 l -2.33222,-2.48254 3.54198,-5.25498 c 4.55695,-6.76081 9.88116,-16.89918 12.21245,-23.25497 1.00869,-2.75 3.71966,-7.475 6.02437,-10.5 2.30472,-3.025 4.76204,-6.92335 5.46072,-8.663 0.77459,-1.92867 2.21264,-3.3995 3.68504,-3.76905 1.3281,-0.33333 2.41472,-1.21738 2.41472,-1.96456 0,-0.74717 0.62793,-1.87963 1.39539,-2.51657 0.76747,-0.63694 1.69609,-2.82954 2.06361,-4.87245 0.36751,-2.0429 1.94626,-7.76437 3.50833,-12.71437 2.35509,-7.46301 2.86185,-10.90979 2.96739,-20.18296 0.0957,-8.41008 -0.20657,-11.38555 -1.21912,-12 -2.86267,-1.73716 -4.98613,-54.10425 -2.69008,-66.34072 C 400.2213,484.94484 410.04313,456 412.62663,456 c 2.06348,0 1.73353,1.68596 -2.55949,13.07826 -4.07361,10.81006 -7.68372,24.6385 -6.6913,25.63091 0.31251,0.31251 0.98104,-0.5067 1.48562,-1.82048 1.34552,-3.50333 5.65308,-13.06041 10.84545,-24.06254 2.51103,-5.32062 4.33371,-10.27792 4.0504,-11.01621 -0.28331,-0.7383 -1.79344,-2.01007 -3.35583,-2.82615 -1.56239,-0.81608 -3.65986,-2.28926 -4.66103,-3.27372 -2.74978,-2.70389 -6.45295,-3.77968 -10.68256,-3.10334 -4.50011,0.7196 -5.97049,-0.76549 -3.35891,-3.39249 3.24685,-3.26601 11.57857,-2.83239 21.34149,1.11071 4.65274,1.87918 11.03534,4.23904 14.18356,5.24413 3.14822,1.00509 6.94772,2.9621 8.44334,4.34892 3.61397,3.35106 5.24398,3.44537 6.41284,0.37103 0.53328,-1.40263 1.77983,-3.72897 2.7701,-5.16964 0.99027,-1.44066 2.41077,-4.19439 3.15667,-6.11939 0.74589,-1.925 3.53157,-6.83564 6.1904,-10.91253 3.35695,-5.14735 4.6428,-8.01564 4.20782,-9.38616 -0.55466,-1.74757 -0.29897,-1.89146 2.23214,-1.25619 1.57221,0.39459 3.02654,0.88543 3.23185,1.09073 0.20531,0.20531 -1.48127,2.70252 -3.74795,5.54935 -2.26668,2.84683 -4.12124,5.76991 -4.12124,6.49574 0,0.72582 -0.61403,1.67954 -1.36452,2.11937 -2.56452,1.50296 -9.26716,17.90466 -8.39098,20.53318 0.53597,1.60792 6.54602,-7.90164 10.68235,-16.90243 1.81198,-3.94292 4.5947,-8.41462 6.18383,-9.9371 1.58912,-1.52248 2.88932,-2.52188 2.88932,-2.2209 0,0.30099 -1.8,4.44334 -4,9.20523 -2.2,4.76189 -4,9.57317 -4,10.69173 0,1.11856 -0.97789,3.73287 -2.1731,5.80958 -1.1952,2.07672 -1.90876,4.46469 -1.58569,5.30661 0.50129,1.30634 7.68031,3.42193 10.02666,2.95476 0.42232,-0.0841 2.29812,0.4865 4.16843,1.26797 3.93307,1.64334 5.72834,0.81304 2.34506,-1.08458 -2.10512,-1.18072 -2.01097,-1.22998 1.21864,-0.63763 6.36268,1.16698 8.49854,1.94338 8.625,3.13522 0.0688,0.64793 0.18125,1.35566 0.25,1.57274 0.0688,0.21708 1.71781,0.0354 3.66457,-0.40361 5.03635,-1.13589 11.86111,2.40718 8.56305,4.4455 -2.63711,1.62982 -23.25292,1.70705 -33.99693,0.12735 -6.26687,-0.92142 -11.73574,-1.31275 -12.15305,-0.86962 -0.4173,0.44313 -0.96294,2.83069 -1.21251,5.30569 -0.44331,4.39616 -1.49199,7.91226 -4.47377,15 -0.80984,1.925 -1.44033,3.5 -1.40108,3.5 0.79213,0 -2.95062,9.02845 -3.86976,9.33483 -0.94376,0.31458 -1.08959,-0.0937 -0.51735,-1.44838 0.43828,-1.03755 1.24752,-3.68645 1.79831,-5.88645 0.5508,-2.2 1.56237,-5.35 2.24795,-7 1.7055,-4.10466 4.49423,-16.38788 4.48397,-19.75 -0.0175,-5.716 -3.99317,-1.16489 -5.45982,6.25 -0.38076,1.925 -1.74745,6.875 -3.0371,11 -1.28964,4.125 -2.88671,10.425 -3.54904,14 -0.66232,3.575 -2.31192,9.7913 -3.66576,13.814 -1.35385,4.0227 -2.18469,8.03545 -1.84633,8.91722 0.96311,2.50982 2.16664,0.45173 4.52106,-7.73122 1.18686,-4.125 2.38622,-8.29403 2.66525,-9.26452 0.59541,-2.07085 2.36334,-1.33996 2.36334,0.97705 0,0.87697 -1.15749,4.04121 -2.57219,7.03166 -1.41471,2.99044 -2.33985,6.04264 -2.05588,6.78266 0.28398,0.74003 -0.30748,2.3928 -1.31435,3.67282 -1.00687,1.28003 -2.09254,3.89625 -2.4126,5.81383 -0.32007,1.91757 -1.07706,5.7365 -1.68221,8.4865 -2.27713,10.34795 -4.52024,24.60956 -5.3476,34 -1.32008,14.98256 -4.2604,31.25071 -6.68742,37 -0.46435,1.1 -1.3456,3.96892 -1.95832,6.37537 -0.61272,2.40645 -2.16935,6.68145 -3.45918,9.5 -2.18709,4.77926 -3.79435,9.59545 -9.55264,28.62463 -2.62795,8.68449 -7.44894,20.38753 -9.88664,24 -0.92785,1.375 -2.97959,5.6094 -4.55941,9.40977 -1.57982,3.80037 -4.2721,8.75037 -5.98284,11 -1.71074,2.24963 -4.62732,6.34023 -6.48129,9.09023 -1.85397,2.75 -5.37166,7.25 -7.8171,10 -2.44544,2.75 -6.87267,8.82454 -9.83829,13.49898 C 357.42642,737.67342 355,741.07799 355,740.5647 Z m 61.90826,-127.87518 c 1.14767,-2.37077 2.27914,-5.63327 2.51439,-7.25 0.23524,-1.61674 0.88131,-5.48718 1.4357,-8.60099 0.55439,-3.11381 1.30677,-10.08881 1.67196,-15.5 0.3652,-5.41119 1.29527,-12.67895 2.06684,-16.15058 0.77157,-3.47163 1.40008,-7.52163 1.39669,-9 l -0.006,-2.68795 -1.56492,3 c -0.8607,1.65 -2.40125,6.15 -3.42345,10 -1.78083,6.70733 -2.42185,10.20277 -3.48436,19 -0.26571,2.2 -0.68492,4.98905 -0.93158,6.19789 -0.59549,2.91847 -1.75826,12.80736 -2.09323,17.80211 -0.14753,2.2 -0.59132,4.7875 -0.98618,5.75 -1.53963,3.75291 1.42887,1.5202 3.4043,-2.56048 z M 513.18124,686.75 c -0.0239,-3.4375 -0.49641,-8.25078 -1.0501,-10.69617 -0.55368,-2.44539 -0.77096,-4.8276 -0.48283,-5.2938 0.28813,-0.4662 -0.02,-1.50293 -0.68466,-2.30383 -0.6647,-0.80091 -0.79541,-1.4562 -0.29048,-1.4562 0.50493,0 1.02413,-1.575 1.15377,-3.5 0.12964,-1.925 -0.1509,-3.5 -0.62343,-3.5 -0.92693,0 -1.68759,-11.90198 -1.53385,-24 0.21434,-16.86589 1.006,-34.66619 1.58331,-35.6003 0.33829,-0.54735 0.23439,-1.61114 -0.23089,-2.36397 -0.47649,-0.77098 -0.40868,-2.4971 0.15526,-3.95226 0.55067,-1.42091 1.13117,-5.8811 1.29001,-9.91154 0.15883,-4.03044 0.7608,-7.80008 1.33769,-8.37697 0.65282,-0.65282 0.72297,-1.90618 0.18578,-3.31911 -0.47472,-1.24861 -0.55436,-2.57909 -0.17698,-2.95661 0.37739,-0.37753 0.76751,-2.7863 0.86694,-5.35283 0.5471,-14.12197 1.04399,-19.17318 1.8837,-19.14891 1.30636,0.0378 0.58453,20.35911 -1.14468,32.22592 -1.63812,11.24168 -1.82094,18.39063 -0.49131,19.21239 0.51067,0.31561 1.69272,-2.92034 2.62678,-7.19099 1.80099,-8.23436 3.2563,-12.051 3.53274,-9.26482 0.19074,1.92238 0.27297,0.79768 -0.98706,13.5 -1.09795,11.06831 -2.65894,58.54988 -2.1698,66 0.32068,4.88423 0.2883,7.40299 -0.18637,14.5 -0.20232,3.025 0.053,7.72327 0.56742,10.44059 0.85285,4.50517 0.73835,5.10006 -1.29924,6.75 -1.22899,0.99518 -2.58413,1.80941 -3.01142,1.80941 -0.4273,0 -0.79643,-2.8125 -0.8203,-6.25 z M 394.5,656 c 0.33992,-0.55 0.81648,-1 1.05902,-1 0.24254,0 0.44098,0.45 0.44098,1 0,0.55 -0.47656,1 -1.05902,1 -0.58246,0 -0.7809,-0.45 -0.44098,-1 z m 422.40301,-1.10576 c -1.32166,-1.15817 -4.20301,-3.3783 -6.40301,-4.93361 -2.2,-1.55531 -6.56925,-5.53004 -9.70944,-8.83273 -3.1402,-3.30269 -8.0902,-7.76721 -11,-9.92115 C 786.88075,629.05281 776.85,619.308 767.5,609.55162 c -16.98235,-17.72045 -27.90312,-27.32641 -29.01725,-25.52371 -0.32472,0.5254 0.78382,2.95264 2.46343,5.39386 1.6796,2.44122 3.05382,4.70189 3.05382,5.02372 0,0.32183 2.19279,3.61575 4.87287,7.31982 2.68008,3.70408 6.12238,9.43469 7.64956,12.73469 1.52718,3.3 4.50035,8.93597 6.60706,12.52439 2.10671,3.58841 4.46031,8.53841 5.23024,11 0.76992,2.46158 1.7271,5.26311 2.12706,6.22561 0.52177,1.25565 0.25855,1.75 -0.93182,1.75 -0.94428,0 -2.10956,1.29246 -2.70481,3 -1.11979,3.21222 -2.41029,3.6622 -4.92764,1.7182 -1.67997,-1.29734 -18.28468,-22.66399 -23.59967,-30.36764 -1.74744,-2.53277 -4.48854,-6.01027 -6.09133,-7.72779 -1.6028,-1.71753 -3.9655,-4.69777 -5.25046,-6.62277 -1.28495,-1.925 -3.04385,-4.25232 -3.90867,-5.17181 -6.79256,-7.22206 -39.02566,-40.69203 -49.36226,-51.25645 -7.03443,-7.18946 -13.78443,-14.13887 -15,-15.44313 -2.19094,-2.3508 -11.47244,-9.73106 -14.58938,-11.60087 -0.89141,-0.53474 -4.22238,-2.67224 -7.40214,-4.75 C 633.53884,515.69998 630.41842,514 629.78433,514 c -1.5559,0 -9.5177,-3.89197 -13.56199,-6.62952 -5.4935,-3.71851 -23.44527,-12.20721 -28.22234,-13.34527 -2.475,-0.58962 -6.3,-1.28532 -8.5,-1.546 -2.2,-0.26068 -5.125,-0.74583 -6.5,-1.0781 -1.375,-0.33228 -4.97175,-0.8284 -7.99278,-1.10249 -3.02103,-0.2741 -6.62103,-1.0791 -8,-1.7889 -5.47559,-2.81847 -27.34061,-5.39734 -28.59215,-3.37231 -0.23808,0.38523 -1.66637,0.0972 -3.17397,-0.64001 -5.91463,-2.89233 -6.71146,-2.51533 -7.04617,3.33378 -0.1678,2.93214 0.14304,5.87112 0.69074,6.53106 1.05398,1.26997 1.50359,3.20222 3.17332,13.63776 1.15191,7.19927 1.37747,9.17064 3.03216,26.5 1.31153,13.73556 1.31219,36.33065 10e-4,41.5 -0.62682,2.47161 -0.92283,-1.64194 -1.00745,-14 -0.0711,-10.38551 -0.73369,-21.15888 -1.62981,-26.5 -0.83049,-4.95 -1.77877,-11.7 -2.10729,-15 -0.32851,-3.3 -1.01301,-6.52244 -1.52111,-7.16097 -0.52073,-0.65442 -0.54184,-1.39704 -0.0484,-1.70202 0.49816,-0.30788 0.50379,-2.82426 0.0131,-5.83903 -0.84373,-5.1836 -2.26689,-16.06173 -3.21306,-24.55945 -0.26096,-2.34381 -0.67902,-4.59381 -0.92901,-5 -0.24999,-0.40619 -0.70133,-3.21353 -1.00296,-6.23853 -1.77573,-17.80794 -1.86721,-20 -0.8346,-20 1.61582,0 2.60872,2.10845 2.82551,6 0.10723,1.925 0.45417,4.85 0.77098,6.5 0.31681,1.65 0.81945,5.0174 1.11698,7.48311 0.64736,5.36472 0.86258,5.59585 5.97476,6.41616 3.07147,0.49285 3.59377,0.39341 2.25,-0.4284 -0.9625,-0.58864 -1.74795,-1.38539 -1.74546,-1.77056 0.006,-0.91421 11.49309,-0.88486 15.99546,0.0409 1.925,0.3958 5.75,0.95308 8.5,1.2384 8.39486,0.871 9.94317,1.15434 12.00946,2.19767 1.0948,0.5528 5.59054,1.79502 9.99054,2.76049 7.60991,1.66981 13.20004,3.55803 16.5,5.57331 4.37457,2.67155 12.47877,7.00613 14.00445,7.49036 1.20863,0.38361 1.9193,-0.10183 2.30428,-1.57398 0.66061,-2.52617 2.42768,-1.75091 3.71266,1.62883 0.85401,2.24621 7.43995,6.42316 10.18877,6.46194 0.70941,0.01 3.27006,1.36001 5.69032,3 2.42027,1.63999 5.17766,2.9818 6.12756,2.9818 0.94989,0 2.30495,0.6963 3.01124,1.54733 0.944,1.13745 1.47794,1.23383 2.01563,0.36382 0.51818,-0.83843 1.24285,-0.58626 2.48533,0.86485 0.96462,1.12661 2.27179,1.84963 2.90481,1.60671 0.63302,-0.24291 2.19528,0.66999 3.4717,2.02867 1.27641,1.35868 4.81304,3.73132 7.85918,5.27252 3.04613,1.5412 5.71823,3.48977 5.938,4.33016 0.29574,1.13092 1.42422,1.43025 4.34282,1.15192 2.23971,-0.21359 3.94325,0.0609 3.94325,0.63536 0,0.55628 -0.9408,0.7654 -2.09067,0.4647 -1.37612,-0.35986 -0.009,1.54141 4,5.56289 3.34987,3.36028 6.09067,6.57344 6.09067,7.14034 0,0.5669 0.43103,1.03073 0.95785,1.03073 0.52681,0 2.08681,1.92644 3.46666,4.28097 2.88033,4.91492 8.23979,10.38806 9.21618,9.41167 0.36386,-0.36385 1.23176,0.11824 1.92867,1.07133 2.3407,3.2011 2.70306,0.36292 0.44277,-3.46798 -3.27465,-5.55013 -6.14996,-13.30419 -6.21809,-16.76876 -0.0327,-1.66498 -0.48101,-3.8435 -0.99617,-4.84115 -1.37153,-2.6561 0.76116,-4.64176 4.82153,-4.48911 3.86946,0.14547 9.63233,-4.37738 8.69382,-6.82312 -0.37552,-0.97859 -0.0346,-1.20416 1.13921,-0.75373 1.52741,0.58612 5.0187,-2.75268 5.04027,-4.82012 0.004,-0.385 0.5698,-1.2625 1.2573,-1.95 0.6875,-0.6875 1.25,-2.325 1.25,-3.63889 v -2.3889 l -3.07673,2.5889 C 699.23108,506.835 696.95075,508 695.85589,508 c -1.53559,0 -1.84555,0.45721 -1.35589,2 0.43154,1.35966 0.1797,2 -0.78659,2 -0.78175,0 -2.72457,1.23169 -4.31739,2.73709 -4.87446,4.60696 -12.86049,7.82995 -15.44438,6.23302 -0.86334,-0.53357 0.0819,-1.17132 2.83471,-1.91258 2.9947,-0.80639 3.97379,-1.51902 3.56186,-2.59249 -0.41585,-1.08368 0.0606,-1.41136 1.77801,-1.22273 1.6222,0.17818 2.65616,-0.43937 3.35099,-2.00143 0.5527,-1.24252 1.75485,-2.49715 2.67146,-2.78807 1.48492,-0.47129 3.4902,-3.45281 2.32226,-3.45281 -0.25647,0 -2.7238,1.62185 -5.48296,3.60411 -5.08963,3.65653 -6.3802,3.95138 -15.73797,3.59553 -3.74023,-0.14223 -5.25,-0.60255 -5.25,-1.6007 0,-1.0294 1.28513,-1.36099 4.84464,-1.25 5.99079,0.1868 14.15536,-3.65395 14.15536,-6.65892 0,-0.55 -0.7875,-0.32365 -1.75,0.50299 -2.61968,2.24992 -4.99011,2.84272 -7.49889,1.87534 -2.18401,-0.84216 -2.19149,-0.89089 -0.25111,-1.63495 1.1,-0.4218 3.6888,-2.26687 5.75288,-4.10015 2.06409,-1.83329 4.20159,-3.33325 4.75,-3.33325 0.54842,0 0.99712,-0.65917 0.99712,-1.46482 0,-0.80565 0.87042,-1.93065 1.93426,-2.5 2.60119,-1.39211 3.73984,-1.30928 2.26574,0.16482 -0.66,0.66 -1.2,1.59214 -1.2,2.07143 0,0.47928 0.70369,0.16774 1.56376,-0.69233 0.86006,-0.86007 1.27128,-2.037 0.9138,-2.61541 -0.35747,-0.5784 0.0998,-2.1959 1.01615,-3.59443 3.10855,-4.74426 0.5385,-3.71714 -5.73955,2.2938 -6.74242,6.45556 -16.47496,11.78063 -23.50416,12.86008 -3.23543,0.49685 -4.25,0.32821 -4.25,-0.70644 0,-0.86196 2.11356,-1.76077 5.77814,-2.45719 3.95385,-0.7514 7.74252,-2.44615 12,-5.36785 3.42202,-2.34837 6.22186,-4.67131 6.22186,-5.1621 0,-1.572 -2.97431,-2.09577 -4.5369,-0.79893 -2.58378,2.14434 -2.55731,0.48562 0.0486,-3.04652 1.36856,-1.85497 2.48828,-3.77677 2.48828,-4.27066 0,-0.4939 0.89387,-2.03436 1.98637,-3.42326 1.09251,-1.38889 1.75998,-2.89158 1.48328,-3.33931 -0.27671,-0.44772 0.33741,-1.40733 1.36471,-2.13246 1.0273,-0.72513 2.60486,-2.74897 3.50569,-4.49742 0.97115,-1.88494 2.55828,-3.30967 3.89892,-3.5 1.24356,-0.17655 2.26103,-0.996 2.26103,-1.821 0,-3.36401 -5.07432,-0.72758 -10.94649,5.68739 -10.26216,11.21077 -22.93449,19.38805 -33.64182,21.7086 -1.42357,0.30852 -3.22896,0.008 -4.01198,-0.66752 -0.78301,-0.67566 -1.27865,-1.16385 -1.10143,-1.08488 1.39908,0.62345 11.13109,-3.12198 16.78234,-6.45879 C 671.17963,477.51702 673,476.12513 673,474.45332 673,473.65399 673.39122,473 673.86937,473 c 0.47816,0 3.15516,-1.81997 5.9489,-4.04438 6.53076,-5.19987 8.52825,-8.93733 9.8636,-18.45562 0.50522,-3.60116 0.40611,-3.85044 -0.99402,-2.5 -0.85536,0.825 -1.69754,2.12045 -1.87152,2.87879 -0.32794,1.4294 -4.50017,6.12121 -5.44334,6.12121 -0.29486,0 0.42753,-1.55919 1.6053,-3.46488 1.17778,-1.90568 2.36615,-4.7042 2.64082,-6.21893 0.27467,-1.51474 0.94459,-3.29048 1.48871,-3.9461 0.65743,-0.79216 0.63352,-1.41191 -0.0713,-1.8475 -0.62519,-0.3864 -2.24837,1.99192 -3.95404,5.79354 -1.59142,3.54696 -3.38601,6.75342 -3.98799,7.12546 -1.54521,0.95499 -1.3594,-0.10768 0.5205,-2.97677 0.95417,-1.45625 1.16927,-2.46482 0.52568,-2.46482 -0.59913,0 -1.74273,1.2375 -2.54134,2.75 -2.41973,4.58279 -8.77445,10.85301 -14.81607,14.61906 -6.67643,4.16175 -15.84829,8.98399 -17.28328,9.08694 -1.83525,0.13165 -8.96678,2.78278 -11.65618,4.33315 -2.25266,1.29861 -3.13461,1.33304 -5.80563,0.22667 -4.20295,-1.74092 -2.51584,-3.36522 3.71114,-3.57296 2.96259,-0.0988 7.27557,-1.34115 11.45897,-3.30067 C 646.89786,471.41398 650.21235,470 650.57382,470 651.8682,470 665,460.82734 665,459.9232 665,459.41544 665.4505,459 666.00111,459 c 1.93414,0 8.52915,-7.81921 11.38514,-13.49852 3.16666,-6.2971 4.94805,-16.48621 2.31679,-13.25148 -1.77751,2.18517 -2.70304,2.22884 -2.70304,0.12756 0,-1.2439 -0.31311,-1.36259 -1.34201,-0.50868 -1.85205,1.53707 -2.80665,0.27742 -1.55795,-2.0558 0.56632,-1.05818 0.82978,-2.46151 0.58546,-3.11852 -0.24431,-0.65701 -1.39485,0.97175 -2.55675,3.61946 -1.17274,2.6724 -2.56829,4.53236 -3.13697,4.1809 -0.56342,-0.34821 -0.76551,-1.05202 -0.44907,-1.56402 0.31643,-0.51199 0.12909,-0.9309 -0.41631,-0.9309 -0.54539,0 -1.25966,0.84451 -1.58726,1.8767 -0.87732,2.76418 -9.8664,12.72925 -15.83936,17.55912 -7.19551,5.81845 -17.32589,12.56157 -18.89491,12.57708 -1.6496,0.0163 -11.94927,3.24465 -17.62016,5.52288 -2.84612,1.1434 -4.65216,1.39677 -5.30472,0.74421 -0.65257,-0.65257 0.64638,-1.42073 3.81529,-2.25626 C 618.40981,466.517 626,463.12473 626,462.07746 c 0,-0.40927 0.57637,-0.74413 1.28082,-0.74413 1.79751,0 6.71918,-3.35416 6.71918,-4.57918 0,-1.50817 -6.92545,-0.13159 -9.06101,1.80107 -0.99713,0.90239 -2.29132,1.34506 -2.87598,0.98372 -1.47401,-0.91098 -1.33628,-3.53408 0.18699,-3.56118 0.6875,-0.0122 2.375,-0.90222 3.75,-1.97776 1.375,-1.07554 3.45181,-1.96553 4.61514,-1.97776 1.16333,-0.0122 3.25931,-0.92224 4.65773,-2.02224 1.39842,-1.1 2.93158,-2 3.40702,-2 0.47543,0 2.56511,-1.40185 4.64372,-3.11521 2.07861,-1.71337 3.99173,-2.90278 4.25138,-2.64313 0.94592,0.94592 -0.76328,3.57432 -2.64416,4.06618 -1.06196,0.27771 -1.93083,1.14601 -1.93083,1.92956 0,0.78355 -1.12203,2.02513 -2.49339,2.75906 -2.37974,1.2736 -6.25139,6.00354 -4.91415,6.00354 0.35122,0 3.84909,-2.09578 7.77306,-4.65729 C 651.36399,447.12143 658,441.2284 658,439.34674 c 0,-0.68605 0.60952,-1.60722 1.35448,-2.04705 2.33114,-1.37631 6.64348,-9.13136 6.68941,-12.02982 0.0241,-1.52343 0.66378,-4.50875 1.42141,-6.63404 1.28111,-3.59373 1.24305,-3.89934 -0.54389,-4.36663 -2.24563,-0.58725 -2.20085,-0.40402 -0.92127,-3.76958 0.68496,-1.80158 0.65943,-3.2672 -0.081,-4.65074 -1.30098,-2.43091 -1.68615,-2.12193 -3.52383,2.82671 l -1.42019,3.82441 0.26245,-5.75151 c 0.15987,-3.50355 -0.1284,-5.61957 -0.73755,-5.41392 -0.55,0.18568 -1.021,0.97387 -1.04666,1.75152 -0.0973,2.94698 -4.55324,15.91391 -5.4687,15.91391 -0.52679,0 -1.62704,1.60172 -2.445,3.55938 -2.16141,5.17296 -7.97692,12.12486 -15.63539,18.69062 -3.68882,3.1625 -6.96231,5.75 -7.27442,5.75 -0.3121,0 -3.619,1.94824 -7.34865,4.32943 -10.37942,6.62673 -21.69106,10.64005 -30.65383,10.87587 -6.49884,0.17098 -8.30369,-0.8981 -6.25233,-3.70349 1.31195,-1.7942 1.51431,-1.80434 3.96469,-0.19879 2.33759,1.53165 3.08318,1.55587 7.87124,0.25571 9.79694,-2.66029 11.30554,-3.27427 17.00801,-6.9221 3.12673,-2.00015 5.97933,-3.63663 6.3391,-3.63663 0.35977,0 2.35865,-1.35 4.44194,-3 2.08329,-1.65 4.45545,-3 5.27146,-3 1.47803,0 3.25651,-1.59874 3.8935,-3.5 0.18427,-0.55 0.61993,-0.90504 0.96814,-0.78897 0.79263,0.26421 9.8669,-11.2055 9.8669,-12.47159 0,-0.5112 0.9,-1.74395 2,-2.73944 1.1,-0.99549 2,-2.55571 2,-3.46716 0,-0.91145 0.85233,-3.4292 1.89406,-5.59501 2.64309,-5.49511 4.50106,-18.1198 3.6588,-24.86106 -0.76624,-6.13274 -1.8524,-7.03829 -3.39058,-2.82677 l -1.00439,2.75 -0.0789,-3.25 c -0.11701,-4.81678 -1.69211,-3.94692 -3.62152,2 -2.70573,8.33971 -5.61883,14.75 -6.70302,14.75 -0.6522,0 -0.64339,-0.43418 0.0254,-1.25 0.56357,-0.6875 1.54546,-3.275 2.18197,-5.75 0.63651,-2.475 1.38583,-5.2875 1.66516,-6.25 0.32649,-1.12502 -0.0381,-1.75 -1.02098,-1.75 -0.94205,0 -1.99353,1.6312 -2.73956,4.25 -0.74631,2.61975 -1.3646,3.57872 -1.61187,2.5 -0.58324,-2.54436 -2.2545,-2.14512 -2.2545,0.53856 0,5.72804 -9.70043,20.18816 -18.11036,26.99655 C 609.71542,427.0931 594.54054,437 592.81839,437 c -0.75536,0 -2.48542,0.7789 -3.84457,1.73089 -1.35916,0.95199 -2.92179,1.76521 -3.47251,1.80715 -0.55072,0.0419 -1.67631,0.32084 -2.50131,0.61977 -9.6694,3.50359 -18.9004,6.24101 -24.42203,7.24227 -5.04084,0.91408 -6.48367,1.68208 -5.91995,3.15111 0.69121,1.80127 -1.82438,1.79602 -6.65802,-0.0139 -2.26646,-0.84865 -2.97134,-1.48516 -2,-1.80601 2.91894,-0.96418 9.56995,-2.66276 15,-3.83081 5.14313,-1.10633 13.92801,-3.8606 18.5,-5.8002 2.6529,-1.12545 14.59908,-6.88836 16.5,-7.9597 0.825,-0.46496 3.55988,-1.87251 6.07751,-3.12788 4.71764,-2.35236 13.52108,-10.14036 17.92249,-15.8552 1.375,-1.78531 3.44171,-4.23861 4.5927,-5.45177 1.15098,-1.21316 3.07983,-3.64817 4.28633,-5.41113 1.84486,-2.69576 1.99674,-3.52066 0.95529,-5.18829 -0.91145,-1.45947 -0.95616,-2.59312 -0.16935,-4.29461 0.58793,-1.27144 2.05336,-5.56978 3.2565,-9.55187 2.12579,-7.03582 2.13993,-7.40979 0.50125,-13.25 C 630.49527,366.70443 629.34575,364 628.86822,364 628.3907,364 628,364.5051 628,365.12244 628,365.89795 627.53636,365.8601 626.5,365 625.675,364.31531 625,363.13521 625,362.37756 625,361.6199 624.55,361 624,361 c -0.55,0 -1,1.125 -1,2.5 0,1.375 -0.45,2.5 -1,2.5 -0.55,0 -1,-2.025 -1,-4.5 0,-5.60933 -1.5905,-5.88331 -2.51138,-0.43262 -0.86365,5.11186 -1.2263,4.74292 -2.00138,-2.03612 -1.14336,-10.00006 -4.37485,-12.62559 -3.67774,-2.9881 0.29088,4.02137 -0.13691,7.86818 -1.27868,11.49815 -1.83467,5.83291 -4.37166,8.98509 -3.1045,3.85731 1.44925,-5.86462 2.12285,-21.35932 0.94811,-21.80925 -0.71418,-0.27354 -1.57336,2.34478 -2.35076,7.16387 -1.33737,8.29025 -2.83735,12.47995 -4.1726,11.65471 -0.47106,-0.29113 -0.35023,-1.47526 0.26852,-2.6314 1.82437,-3.40887 2.30995,-16.18487 0.74915,-19.71095 -1.97953,-4.47208 -2.85612,-3.75466 -2.19835,1.79919 0.36828,3.10957 0.17088,5.11527 -0.54711,5.55902 -0.98933,0.61144 -1.62252,-1.26196 -1.2417,-3.67381 C 599.94671,349.3375 599.55,349 599,349 c -0.55128,0 -1.05609,2.91667 -1.125,6.5 -0.0688,3.575 -0.2149,6.8375 -0.32478,7.25 -0.10988,0.4125 -0.54396,3 -0.96464,5.75 -0.42067,2.75 -1.62452,6.21928 -2.67522,7.70951 -1.0507,1.49023 -1.91036,3.00221 -1.91036,3.35995 0,1.19958 -12.71331,21.89559 -15.62358,25.43364 -4.9958,6.07346 -14.672,15.0796 -20.41671,19.0029 -3.04715,2.08103 -6.15824,4.52829 -6.91352,5.43835 -1.38711,1.67136 -4.4388,3.21057 -15.76606,7.95206 C 526.27457,440.32889 526,440.38936 526,439 c 0,-0.55 0.49724,-1 1.10498,-1 0.60773,0 3.11964,-1.35968 5.58201,-3.02152 2.46237,-1.66183 6.35263,-3.96868 8.64502,-5.12634 9.67696,-4.88685 25.90867,-19.21738 34.07049,-30.0799 10.33916,-13.76031 15.65848,-27.97855 17.16569,-45.88288 0.61275,-7.27895 0.49703,-7.87819 -2.65515,-13.75 C 588.10035,336.76271 586.2663,334 585.83738,334 c -0.42892,0 -0.57021,3.4875 -0.31399,7.75 l 0.46586,7.75 -1.2961,-5.66168 c -1.37469,-6.00495 -6.2465,-14.86498 -8.6025,-15.64476 -0.93123,-0.30821 -1.21296,0.0453 -0.83044,1.04214 0.31839,0.82973 0.85275,3.70363 1.18745,6.38645 l 0.60854,4.87785 -1.62615,-4 c -3.67038,-9.02839 -6.66192,-13.60147 -8.01345,-12.24993 -0.29429,0.29429 0.12387,3.05841 0.92923,6.1425 0.80537,3.08409 1.06234,5.60743 0.57106,5.60743 -0.49129,0 -1.18352,-1.81524 -1.5383,-4.03387 C 566.74717,328.01742 561.86481,320 560.0916,320 c -0.49273,0 -0.25842,2.11806 0.52067,4.70679 2.11694,7.03406 1.10126,7.49787 -1.58613,0.72429 -1.29422,-3.26209 -2.7641,-6.46881 -3.2664,-7.12604 -0.5023,-0.65722 -0.76622,-2.23222 -0.5865,-3.5 0.29322,-2.06845 0.78688,-2.27483 4.80949,-2.01072 2.74645,0.18033 5.28903,1.05181 6.56445,2.25 1.14495,1.07562 2.78512,1.95568 3.64483,1.95568 0.8597,0 2.1233,0.675 2.80799,1.5 0.68469,0.825 2.31479,1.5 3.62244,1.5 1.30766,0 2.37756,0.45 2.37756,1 0,0.55 1.06431,1 2.36514,1 1.30083,0 3.50931,0.9 4.90773,2 1.39842,1.1 3.16143,2 3.91779,2 1.36794,0 4.22746,2.00106 10.36029,7.25 1.76719,1.5125 3.73816,2.75 4.37992,2.75 0.64177,0 3.73236,1.74007 6.86799,3.86681 3.13563,2.12675 8.3372,5.38925 11.55905,7.25 6.26376,3.61758 29.7639,27.02426 35.14076,35.00099 1.62464,2.41021 4.12441,5.5072 5.55505,6.8822 2.62164,2.51969 8.94628,11.33686 8.94628,12.47199 0,0.3364 0.88911,1.56599 1.9758,2.73241 1.08669,1.16643 3.61757,5.53511 5.62416,9.70819 2.0066,4.17307 4.68015,8.81506 5.94123,10.31553 1.26107,1.50046 3.46347,5.10046 4.89422,8 1.43075,2.89953 2.99093,5.94688 3.46708,6.77188 3.4361,5.95355 13.09751,41.36593 13.09751,48.00685 0,1.24996 0.7875,2.85448 1.75,3.56559 1.33478,0.98615 1.47357,1.57346 0.58495,2.47529 -0.88712,0.90031 -0.83806,2.10915 0.20564,5.06732 0.75388,2.13672 1.11055,3.88495 0.79261,3.88495 -0.31795,0 -0.009,0.68587 0.68686,1.52417 0.69572,0.83829 0.99376,1.79534 0.66232,2.12678 -0.33144,0.33144 0.0544,1.87322 0.8575,3.42617 0.80307,1.55296 1.46012,3.92041 1.46012,5.26101 0,1.34059 1.575,4.72709 3.5,7.52555 1.925,2.79846 3.5,5.48324 3.5,5.96619 0,1.73 16.2613,16.82202 21.69657,20.13647 3.5152,2.14358 5.66614,4.69146 4.54534,5.38415 -0.47036,0.2907 -3.97971,-1.67765 -7.79855,-4.37411 -7.1331,-5.03663 -10.27094,-6.27761 -8.67862,-3.43228 0.47527,0.84925 5.75849,6.47732 11.74051,12.50682 7.40289,7.46167 11.39571,10.7979 12.50252,10.44661 0.94101,-0.29866 2.60211,0.52276 3.94258,1.94962 1.27404,1.35615 4.1689,3.72156 6.43304,5.25648 2.26414,1.53491 4.34228,3.08762 4.61809,3.45047 2.19493,2.8875 15.15075,16.91816 22.49852,24.36501 4.95,5.01675 11.475,12.17197 14.5,15.90049 3.025,3.72852 6.66991,7.97681 8.0998,9.44066 1.80886,1.85182 2.78462,4.17936 3.20733,7.65064 0.33415,2.744 0.96424,6.7891 1.40021,8.9891 0.91248,4.60464 0.54391,11.5 -0.6147,11.5 -0.43264,0 -1.86797,-0.94759 -3.18963,-2.10576 z M 816,647.55902 c 0,-0.24254 -0.45,-0.7191 -1,-1.05902 -0.55,-0.33992 -1,-0.14148 -1,0.44098 0,0.58246 0.45,1.05902 1,1.05902 0.55,0 1,-0.19844 1,-0.44098 z M 762.36599,636.15637 C 759.63513,631.98532 758,630.90354 758,633.26787 c 0,2.29761 5.14678,8.98535 6.14601,7.98612 0.58832,-0.58832 -0.0791,-2.49968 -1.78002,-5.09762 z M 808,639.5567 c 0,-0.79381 -0.91008,-2.08074 -2.0224,-2.85984 -1.26534,-0.88627 -1.78801,-2.02736 -1.39625,-3.04827 0.38933,-1.01457 0.007,-1.8693 -1.01072,-2.25986 -3.1465,-1.20742 -12.72223,-11.55128 -12.12772,-13.10056 0.36926,-0.96226 1.19506,-1.24614 2.31552,-0.79599 4.31868,1.73506 4.61122,1.72629 2.54183,-0.0762 -1.20986,-1.05381 -5.60925,-5.93197 -9.77643,-10.84037 -4.16717,-4.9084 -8.48355,-9.55955 -9.59194,-10.3359 -2.87048,-2.01056 -7.17565,-9.16214 -6.52936,-10.84632 0.2998,-0.78127 -0.77993,-2.8769 -2.39941,-4.65696 -1.61947,-1.78005 -2.95768,-2.75881 -2.97381,-2.17502 -0.0161,0.58379 0.88822,2.04629 2.00965,3.25 1.26563,1.3585 1.55881,2.18856 0.77299,2.18856 -1.20309,0 -18.09308,-16.2562 -36.62022,-35.24606 -4.69312,-4.81033 -8.75692,-8.52208 -9.03067,-8.24834 -0.27374,0.27375 0.95599,2.52197 2.73275,4.99606 3.28699,4.57705 2.78844,6.46366 -0.5604,2.12065 C 717.45575,538.7029 707.6493,528 706.3546,528 c -0.85022,0 -2.79405,0.88879 -4.31962,1.97509 -1.52557,1.08631 -4.00329,2.44256 -5.50603,3.0139 -2.0346,0.77356 -2.55665,1.48211 -2.04452,2.77491 0.37827,0.95485 0.86973,2.63555 1.09215,3.73489 0.22243,1.09933 1.30928,3.12433 2.41523,4.5 1.10595,1.37566 2.71657,4.14493 3.57915,6.15391 0.86259,2.00899 3.10532,5.05132 4.98385,6.76074 1.87853,1.70943 4.31575,4.87268 5.41606,7.02946 1.1003,2.15677 2.45698,4.20349 3.01484,4.54827 0.55786,0.34477 1.01429,1.4346 1.01429,2.42182 0,0.98723 1.12122,3.00478 2.49161,4.48345 1.37038,1.47867 2.76453,3.77592 3.09811,5.10501 0.88022,3.50706 3.19753,5.21654 4.05221,2.98929 0.59488,-1.55024 0.85937,-1.48253 2.48959,0.63737 2.54951,3.31532 2.31735,0.987 -0.38152,-3.82629 -4.89129,-8.72332 -10.82936,-18.23283 -11.73456,-18.79228 -1.76915,-1.09339 -13.13272,-18.65769 -12.77169,-19.74078 0.19668,-0.59006 3.43717,3.49433 7.20109,9.0764 6.38739,9.47283 9.55516,13.35344 9.55516,11.70535 0,-0.3819 -1.17967,-2.70733 -2.62149,-5.16761 -3.32268,-5.66972 -2.58966,-6.52635 1.55006,-1.81147 5.76296,6.56365 4.02679,3.11843 -3.56354,-7.07143 -9.64971,-12.95451 -10.8378,-15.46113 -3.79186,-8 6.9809,7.39226 13.82563,16.64458 16.64516,22.5 0.6621,1.375 2.23383,3.77203 3.49274,5.32673 1.25891,1.55469 2.28893,3.39989 2.28893,4.10043 0,0.70054 1.35,2.30832 3,3.57284 1.65,1.26452 3,2.87013 3,3.56801 0,0.69788 1.46698,2.17552 3.25996,3.28364 1.79298,1.10812 5.17114,4.14165 7.50703,6.74119 2.33589,2.59953 4.52514,4.44837 4.86499,4.10852 0.33984,-0.33985 -2.47582,-5.1218 -6.25704,-10.62655 -3.78122,-5.50475 -8.2977,-12.16103 -10.03662,-14.79173 -1.73892,-2.63069 -4.10142,-5.97925 -5.25,-7.44124 C 731.80584,557.93654 731.51806,557 732.90779,557 c 0.49929,0 3.40565,3.7125 6.45859,8.25 3.05294,4.5375 8.51591,12.3 12.13994,17.25 3.62403,4.95 7.35289,10.125 8.28636,11.5 0.93347,1.375 2.71199,3.32016 3.95227,4.32258 1.24028,1.00242 2.25505,2.32954 2.25505,2.94916 0,1.812 6.01748,7.9108 26.92323,27.28708 C 800.306,635.40147 806.7185,641 807.17323,641 807.62795,641 808,640.35052 808,639.5567 Z m -25,-29.61572 c 0,-0.58246 0.45,-0.7809 1,-0.44098 0.55,0.33992 1,0.81648 1,1.05902 0,0.24254 -0.45,0.44098 -1,0.44098 -0.55,0 -1,-0.47656 -1,-1.05902 z M 700.5,539 c 0.33992,-0.55 0.81648,-1 1.05902,-1 0.24254,0 0.44098,0.45 0.44098,1 0,0.55 -0.47656,1 -1.05902,1 -0.58246,0 -0.7809,-0.45 -0.44098,-1 z M 813,633.02568 c 0,-0.53588 -1.34576,-1.67024 -2.99058,-2.52081 -1.64482,-0.85057 -3.72158,-2.66213 -4.61501,-4.02568 C 804.50097,625.11564 803.27615,624 802.67258,624 c -0.60357,0 1.11877,2.25 3.82742,5 4.84902,4.92304 6.5,5.94556 6.5,4.02568 z M 743.97222,608.75 C 743.9376,607.19221 738,601.25117 738,602.77432 c 0,0.6092 0.47776,1.40292 1.06168,1.7638 0.58393,0.36089 1.47279,1.73745 1.97525,3.05902 0.95567,2.51358 2.98323,3.30993 2.93529,1.15286 z M 729,589.10699 c 0,-0.49116 -0.73865,-1.17646 -1.64144,-1.52289 -1.37248,-0.52667 -1.43434,-0.38034 -0.37756,0.89301 1.44013,1.73524 2.019,1.91584 2.019,0.62988 z m -16.18786,-14.61226 c -6.03913,-8.21461 -14.14362,-21.8048 -15.4294,-25.87314 -0.36878,-1.16688 -1.65914,-3.47159 -2.86745,-5.12159 -1.20832,-1.65 -2.2139,-3.9 -2.23462,-5 -0.0207,-1.1 -0.37352,-3.46211 -0.784,-5.24913 -0.687,-2.99088 -0.55756,-3.23441 1.6285,-3.06391 3.18738,0.2486 10.49115,-4.51096 12.17128,-7.93152 1.58953,-3.23609 2.13222,-9.25544 0.83444,-9.25544 -0.49548,0 -1.56547,1.0125 -2.37776,2.25 -3.21696,4.90092 -8.36284,8.87138 -13.39286,10.33365 -2.8494,0.82834 -5.44102,2.1844 -5.75916,3.01346 -0.59975,1.56291 4.54256,15.34315 7.95208,21.30981 C 700.00543,562.94834 712.40225,579 715.02201,579 c 0.60624,0 -0.3882,-2.02737 -2.20987,-4.50527 z M 761,574.65499 c 0,-0.18976 -1.0125,-1.20226 -2.25,-2.25 L 756.5,570.5 l 1.90499,2.25 c 1.79022,2.11444 2.59501,2.70524 2.59501,1.90499 z m -36.81667,-13.87166 c -0.71756,-0.71756 -1.18333,-0.7766 -1.18333,-0.15 0,1.33478 1.18261,2.51739 1.85,1.85 0.28417,-0.28416 -0.0158,-1.04916 -0.66667,-1.7 z M 710.5,525 c 0.33992,-0.55 0.14148,-1 -0.44098,-1 -0.58246,0 -1.05902,0.45 -1.05902,1 0,0.55 0.19844,1 0.44098,1 0.24254,0 0.7191,-0.45 1.05902,-1 z m -15.53518,-20.93426 c 2.07948,-3.88555 0.45666,-4.26897 -2.2615,-0.53432 -1.51159,2.07686 -1.55684,2.46858 -0.28519,2.46858 0.83133,0 1.97734,-0.87042 2.54669,-1.93426 z m -3.39753,-5.83178 c -0.90636,-0.90637 -3.69481,0.7507 -3.04164,1.80754 0.44804,0.72494 1.10197,0.68251 2.08754,-0.13544 0.78933,-0.65508 1.21867,-1.40753 0.9541,-1.6721 z M 695.8,491.8 c 1.91186,-1.91186 1.38964,-2.93538 -0.8,-1.56793 -2.02042,1.26178 -2.6734,2.76793 -1.2,2.76793 0.44,0 1.34,-0.54 2,-1.2 z m -8.8,-7.38333 c 0,-1.76593 -2.15276,-1.45839 -2.77083,0.39583 -0.21771,0.65312 0.31666,1.1875 1.1875,1.1875 C 686.2875,486 687,485.2875 687,484.41667 Z m 5.46006,-9.16667 c 0.56916,-1.898 0.29731,-2.25 -1.73768,-2.25 -1.32682,0 -3.1857,0.85448 -4.13084,1.89885 -1.63415,1.80572 -1.60655,1.97723 0.56268,3.49662 2.5664,1.79757 4.09538,0.89115 5.30584,-3.14547 z M 531,477 c 0,-0.55 -0.19844,-1 -0.44098,-1 -0.24254,0 -0.7191,0.45 -1.05902,1 -0.33992,0.55 -0.14148,1 0.44098,1 0.58246,0 1.05902,-0.45 1.05902,-1 z m 131,-79.5 c 0,-0.825 -0.17686,-1.5 -0.39301,-1.5 -0.21616,0 -0.65203,0.675 -0.96862,1.5 -0.31658,0.825 -0.13972,1.5 0.39301,1.5 0.53274,0 0.96862,-0.675 0.96862,-1.5 z m -18.50284,-14.49105 c 0.72549,-2.28582 -0.19175,-4.31574 -1.56626,-3.46624 -1.2134,0.74992 -1.21193,5.45729 0.002,5.45729 0.51294,0 1.21699,-0.89597 1.56455,-1.99105 z m 0.45716,-9.56399 C 642.169,371.29378 641,371.69159 641,374.45031 c 0,3.20542 3.35146,5.33829 3.82676,2.43534 0.17972,-1.09765 -0.21288,-2.64597 -0.87244,-3.44069 z m -5.20705,0.36895 c -0.20011,-1.75236 -0.87727,-3.35724 -1.50479,-3.56642 -0.82615,-0.27538 -0.87905,0.53292 -0.19172,2.92949 0.52208,1.8204 0.94924,3.42529 0.94924,3.56642 0,0.14113 0.25,0.2566 0.55555,0.2566 0.30555,0 0.39182,-1.43374 0.19172,-3.18609 z M 475,588.20423 C 475,586.36727 476.18638,584 477.10699,584 c 1.43081,0 1.02998,2.64144 -0.60699,4 -0.90823,0.75377 -1.5,0.83434 -1.5,0.20423 z m -258.43828,-9.10436 c -0.34485,-0.55798 0.71628,-3.39621 2.35805,-6.30719 1.64178,-2.91097 4.1524,-8.44268 5.57916,-12.29268 1.42677,-3.85 3.21308,-8.35 3.96958,-10 0.75651,-1.65 2.34402,-5.475 3.5278,-8.5 1.18379,-3.025 4.53599,-10.45 7.44935,-16.5 2.91336,-6.05 7.67824,-15.95 10.58862,-22 9.84601,-20.4675 24.71236,-38.85251 35.73097,-44.18797 2.60411,-1.26097 5.11138,-2.17149 5.57172,-2.02336 0.79512,0.25584 -11.65009,11.84981 -17.66099,16.45298 C 270.75654,475.97736 264.47875,484 265.64872,484 c 0.36369,0 -0.0361,0.7875 -0.8883,1.75 -4.33162,4.89193 -17.47635,28.98992 -21.95514,40.24995 -1.64075,4.12498 -4.01977,9.74998 -5.28671,12.5 -1.26693,2.75003 -3.54358,7.92505 -5.05922,11.50005 -1.51563,3.575 -4.05981,9.35771 -5.65373,12.85046 -1.59391,3.49276 -3.48866,8.66776 -4.21055,11.5 -0.98906,3.8805 -1.81695,5.22524 -3.35943,5.45673 -1.12581,0.16895 -2.32907,-0.14935 -2.67392,-0.70732 z m 261.00413,0.007 C 476.83518,577.9243 477.93263,575 479.10699,575 c 1.1835,0 1.15186,3.72198 -0.0379,4.45729 -0.512,0.31644 -1.18846,0.1586 -1.50325,-0.35074 z M 556.32423,572.25 c 0.29387,-2.0625 1.45118,-9.15 2.57179,-15.75 1.12062,-6.6 2.05244,-12.4275 2.07073,-12.95 0.0183,-0.5225 0.55822,-0.42503 1.19985,0.2166 0.88881,0.88881 0.86057,2.53414 -0.1186,6.9095 -0.70686,3.1586 -1.24847,10.14862 -1.20359,15.5334 l 0.0816,9.7905 h -2.56805 c -2.39585,0 -2.53222,-0.25146 -2.03375,-3.75 z m -349.16376,0.87034 c -1.08559,-0.68808 -0.94341,-1.62548 0.75,-4.94485 1.14924,-2.2527 2.08953,-5.40716 2.08953,-7.00993 0,-1.60276 0.60543,-4.65818 1.34539,-6.78983 3.49961,-10.08149 2.73939,-12.55604 -2.49483,-8.12076 -2.48321,2.10417 -5.47515,9.65529 -7.32819,18.49503 -1.19245,5.68849 -3.23938,3.95093 -2.96698,-2.51856 0.32141,-7.63355 1.97728,-13.49853 4.44039,-15.72762 1.10232,-0.99759 2.00422,-2.18799 2.00422,-2.64535 0,-1.20615 7.28981,-7.79945 8.65872,-7.83141 1.03254,-0.0241 9.50925,-9.86367 13.27755,-15.41224 C 232.22302,512.83041 236,506.9462 236,506.49429 c 0,-0.29058 1.94655,-3.78317 4.32566,-7.76131 2.37912,-3.97814 5.09156,-8.80798 6.02765,-10.73298 3.77954,-7.77234 7.93464,-13.08821 17.77022,-22.73451 9.76363,-9.57573 21.6157,-15.62592 33.87647,-17.29311 15.72782,-2.13864 30.96916,-4.88551 32.92972,-5.93477 1.21638,-0.65098 5.4423,-1.30688 9.39094,-1.45754 3.94864,-0.15066 9.65434,-0.60635 12.67934,-1.01265 3.04422,-0.40888 6.60146,-0.31993 7.96684,0.19921 3.02649,1.15073 10.1646,-0.57563 16.84345,-4.0736 5.58378,-2.92445 5.95821,-4.77307 1.18971,-5.87386 -7.28001,-1.68056 -10.59484,-3.13896 -13.59728,-5.9823 -2.56131,-2.42559 -3.51306,-2.77418 -5.5,-2.01445 -5.67031,2.1681 -21.02331,5.85195 -27.40272,6.5751 -1.1,0.12469 -2.9,0.52388 -4,0.88708 -1.1,0.36321 -6.53021,0.87741 -12.06713,1.14267 -5.53693,0.26526 -12.28693,0.99488 -15,1.62137 -2.71308,0.62649 -6.28287,1.35105 -7.93287,1.61013 -1.65,0.25908 -4.8,0.96251 -7,1.56318 -3.90593,1.06644 -14.94961,1.57203 -44.66405,2.04476 -13.40267,0.21322 -14.86498,0.41712 -17,2.37044 -1.28477,1.17543 -4.13595,3.05051 -6.33595,4.16684 -2.2,1.11633 -4.56631,2.96711 -5.25847,4.11285 -0.69216,1.14574 -1.85068,2.08316 -2.57449,2.08316 -0.7238,0 -4.20749,2.50888 -7.74152,5.57529 -3.53404,3.06641 -8.90052,7.25509 -11.92552,9.30817 -6.25229,4.24347 -9.09855,6.61389 -20.43503,17.01871 -12.92035,11.85852 -21.20295,20.95989 -24.55814,26.98584 -8.83793,15.87299 -13.35142,18.24437 -21.26454,11.17236 l -3.24229,-2.89765 2.12272,-2.33136 c 1.16749,-1.28225 1.91749,-2.89386 1.66667,-3.58136 -0.25083,-0.6875 0.20469,-1.25 1.01227,-1.25 1.85945,0 4.48322,-3.94966 4.14047,-6.23283 -0.29009,-1.93249 9.4842,-11.39633 13.60135,-13.16933 C 147.08964,489.28604 157,481.04931 157,479.82937 c 0,-1.74971 6.67328,-6.991 12,-9.42498 5.73345,-2.61983 18.0915,-11.53944 23.79923,-17.17744 1.82244,-1.80017 5.00936,-4.34357 7.08204,-5.652 2.07268,-1.30843 5.48526,-3.99805 7.5835,-5.97695 2.09824,-1.9789 4.20815,-3.598 4.68868,-3.598 1.56614,0 5.23018,-2.44893 7.15995,-4.78549 1.19687,-1.44917 2.53934,-2.07864 3.66867,-1.7202 1.06279,0.33732 2.00944,-0.0298 2.34733,-0.91032 0.47152,-1.22876 2.62419,-1.392 12.86842,-0.9758 27.26246,1.10762 35.45838,1.04732 42.7947,-0.31483 4.12911,-0.76667 11.09335,-1.83503 15.47608,-2.37414 4.38272,-0.53912 10.68272,-1.6614 14,-2.49398 3.31727,-0.83257 7.8314,-1.76176 10.0314,-2.06486 2.2,-0.3031 5.98204,-1.41364 8.40454,-2.46787 2.42249,-1.05422 4.61553,-1.70577 4.87342,-1.44789 0.25788,0.25789 1.90803,-0.62881 3.667,-1.97043 1.75896,-1.34163 7.38383,-4.49176 12.49971,-7.00029 5.11588,-2.50853 9.00943,-4.85313 8.65233,-5.21023 -0.3571,-0.3571 -3.14966,-0.79525 -6.20569,-0.97366 -5.37569,-0.31382 -16.75347,-3.53374 -18.98332,-5.37228 -0.6006,-0.49521 -1.32398,-0.66841 -1.6075,-0.38489 -0.28352,0.28352 -1.08471,-0.17038 -1.78043,-1.00867 -0.69572,-0.8383 -1.8151,-1.52417 -2.48752,-1.52417 -0.67241,0 -2.00406,-0.86354 -2.95921,-1.91897 -1.61239,-1.78167 -5.27185,-2.00342 -7.75326,-0.46983 C 316.36903,392.88996 316,392.40534 316,391.53427 c 0,-0.87108 -1.13998,-2.01719 -2.53328,-2.54692 -3.23189,-1.22877 -17.3977,-1.33856 -24.16307,-0.18728 -2.85799,0.48635 -5.7679,0.53104 -6.46646,0.0993 -0.69856,-0.43174 -1.7904,-0.35318 -2.4263,0.17457 -1.55497,1.29051 -17.54247,2.10846 -19.32899,0.98891 -0.90809,-0.56907 -2.2305,-0.35638 -3.67698,0.5914 -1.70453,1.11685 -3.0912,1.25026 -5.65042,0.54362 -2.52545,-0.69731 -3.8792,-0.57987 -5.30114,0.45989 -1.05028,0.76798 -3.49445,1.3829 -5.43148,1.36648 -4.19328,-0.0356 -8.51737,0.47175 -13.13785,1.54131 -1.86122,0.43084 -4.05903,0.82477 -4.88403,0.8754 -0.825,0.0506 -3.3,0.61625 -5.5,1.25693 -7.22138,2.10301 -15.28509,3.41935 -22.33661,3.64628 -3.81548,0.12278 -7.55062,0.70191 -8.30031,1.28695 -0.74969,0.58503 -3.82342,1.8485 -6.83049,2.80771 -6.34712,2.02463 -12.06004,5.85662 -14.68678,9.85127 -1.90679,2.89979 -7.93352,6.45552 -9.04974,5.3393 C 153.89694,417.23028 169.46177,402 174.31273,402 c 0.69541,0 3.02968,-0.9 5.18727,-2 2.15759,-1.1 4.58648,-2 5.39755,-2 2.77118,0 26.88101,-6.01628 35.10245,-8.75933 2.475,-0.82578 6.92576,-1.64649 9.89057,-1.8238 2.96481,-0.17732 6.80488,-0.99353 8.5335,-1.81381 3.21215,-1.52427 34.06999,-3.65883 37.16833,-2.57109 2.92329,1.02629 16.96372,-0.81206 21.41295,-2.80365 2.47206,-1.10656 5.16965,-2.29057 5.99465,-2.63114 0.825,-0.34056 2.85,-1.48136 4.5,-2.5351 1.65,-1.05375 3.7875,-1.94879 4.75,-1.98899 2.53319,-0.1058 2.14771,-1.97138 -0.62518,-3.02564 -1.30636,-0.49667 -9.96886,-1.19389 -19.25,-1.54938 -42.70908,-1.63586 -42.90584,-1.66065 -53.42803,-6.73195 -5.19573,-2.50415 -12.74888,-5.33413 -16.78476,-6.28884 -4.37882,-1.03583 -8.33521,-2.66005 -9.81088,-4.02765 -2.39559,-2.22015 -8.8616,-4.5123 -22.35115,-7.92329 -6.4487,-1.63063 -12.31729,-2.16123 -33.5,-3.02889 -13.07756,-0.53566 -22.5,-1.53914 -22.5,-2.39622 0,-1.12218 44.31489,-0.3367 49,0.86853 2.475,0.63669 6.45802,1.57387 8.85116,2.08262 2.39313,0.50875 6.05744,1.38446 8.14291,1.94602 2.08546,0.56156 4.50974,0.7455 5.38727,0.40876 1.24862,-0.47914 0.82741,-1.13352 -1.93732,-3.00971 C 201.50096,339.07885 199.25126,338 198.44469,338 c -0.80657,0 -3.37408,-0.87135 -5.70559,-1.93634 -9.77587,-4.46544 -17.3379,-7.26253 -25.64427,-9.48546 -4.85027,-1.29802 -9.67109,-2.81624 -10.71295,-3.37382 -1.04185,-0.55759 -6.15017,-1.74824 -11.35181,-2.64589 -8.3298,-1.43749 -10.95928,-2.54418 -11.01476,-4.63585 -0.0163,-0.61374 7.38425,0.95605 20.48469,4.34518 4.4,1.1383 9.125,2.16471 10.5,2.28091 2.42017,0.20453 4.30848,0.74681 8.5,2.44103 1.1,0.44462 3.575,1.3481 5.5,2.00773 1.925,0.65963 5.075,2.01481 7,3.01151 1.925,0.9967 5.03084,2.04893 6.90186,2.33829 1.87102,0.28935 3.67102,0.91616 4,1.3929 0.32898,0.47675 4.19814,1.89698 8.59814,3.15607 4.4,1.25909 8.45,2.63547 9,3.05861 0.55,0.42315 2.35,1.08976 4,1.48137 1.65,0.39161 3.9,1.50801 5,2.48088 1.1,0.97287 4.925,2.78347 8.5,4.02355 3.575,1.24009 7.4,2.63823 8.5,3.10698 1.1,0.46875 4.925,1.72718 8.5,2.79652 3.575,1.06933 10.94424,3.34228 16.37608,5.05099 13.817,4.34645 26.46933,6.23069 40.62392,6.0499 38.52856,-0.49212 64.69505,-1.67366 70.5,-3.1834 2.2,-0.57218 6.70697,-1.11548 10.01549,-1.20735 4.9265,-0.1368 7.32683,-0.88096 13.25916,-4.11067 13.92378,-7.58046 20.99987,-15.03317 28.43045,-29.94364 7.30954,-14.66758 10.17746,-32 5.2949,-32 -1.62186,0 -2.15807,-0.94535 -2.83605,-5 -0.45983,-2.75 -1.18014,-5.675 -1.6007,-6.5 -0.91932,-1.80339 -13.81745,-8.84808 -16.36291,-8.93708 -0.98981,-0.0346 -3.2285,-0.8018 -4.97486,-1.70488 -1.74636,-0.90308 -7.23652,-2.68075 -12.20034,-3.95038 -4.96383,-1.26963 -11.27514,-2.9825 -14.02514,-3.80637 -7.76073,-2.32506 -20.43455,-5.45346 -26.5,-6.54126 -15.82673,-2.83842 -48.36036,-6.27385 -72,-7.60293 -6.325,-0.3556 -12.0625,-1.10903 -12.75,-1.67427 -0.6875,-0.56525 -1.25,-2.75266 -1.25,-4.86092 v -3.83319 l 3.75,1.321 c 2.0625,0.72655 8.475,1.64915 14.25,2.05022 5.775,0.40106 11.625,0.87232 13,1.04724 1.375,0.17492 6.325,0.80463 11,1.39935 4.675,0.59473 11.2,1.301 14.5,1.56951 3.3,0.2685 10.275,1.00989 15.5,1.64753 5.225,0.63764 10.18291,1.22949 11.01758,1.31523 0.83467,0.0857 2.01478,0.46317 2.62247,0.83874 1.529,0.94498 16.98682,4.79157 21.85995,5.43973 2.2,0.29261 4.88763,1.15094 5.97251,1.90738 1.08487,0.75644 2.97082,1.37535 4.19098,1.37535 1.22016,0 2.5079,0.4683 2.86165,1.04068 0.35375,0.57237 1.41641,0.79526 2.36147,0.49531 0.94507,-0.29995 2.5947,0.11743 3.66585,0.92752 1.07115,0.81008 3.12994,1.48719 4.5751,1.50469 1.44515,0.0175 3.18775,0.7068 3.87244,1.5318 0.68469,0.825 2.73823,1.5 4.56343,1.5 1.82519,0 3.57525,0.41538 3.88902,0.92306 0.31377,0.50769 1.99458,1.23585 3.73514,1.61814 1.74056,0.38229 5.04137,1.74284 7.33514,3.02343 2.56099,1.42979 5.02062,2.10604 6.37334,1.7523 2.89415,-0.75684 9.65168,2.3439 11.60499,5.32502 0.84977,1.29693 2.34467,2.35805 3.32199,2.35805 0.97732,0 2.20445,0.40571 2.72695,0.90158 0.5225,0.49587 4.55,1.67883 8.95,2.6288 4.4,0.94997 8.47122,2.09861 9.04715,2.55252 0.57593,0.45391 2.60093,1.0166 4.5,1.25042 1.89907,0.23383 4.61013,0.88785 6.02459,1.45338 2.71727,1.08644 23.63269,5.77934 32.92826,7.38829 3.025,0.52359 6.51182,1.44909 7.74849,2.05667 1.23667,0.60758 2.53133,0.82185 2.87702,0.47616 0.34569,-0.34568 2.03386,-0.0439 3.75151,0.6706 1.71764,0.71452 3.64424,1.12292 4.28134,0.90756 0.6371,-0.21535 1.45115,0.0822 1.80902,0.66123 0.35786,0.57904 1.7491,1.05279 3.09164,1.05279 1.34254,0 2.44098,0.43588 2.44098,0.96862 0,0.53273 0.63865,0.72354 1.41921,0.42401 0.78057,-0.29953 2.46807,0.12936 3.75,0.95309 1.28194,0.82373 3.83572,1.72536 5.67508,2.00361 3.9141,0.59211 4.44192,0.99873 4.63118,3.56773 0.0776,1.05385 0.64296,2.52071 1.25627,3.25971 0.61331,0.73899 2.0666,4.93903 3.22953,9.33342 1.66418,6.28846 2.0628,10.39505 1.87201,19.28518 -0.23121,10.77344 -0.41518,11.65139 -3.98154,19 -2.05653,4.23755 -3.76447,7.11978 -3.79544,6.40497 -0.031,-0.71481 0.55831,-2.51481 1.30951,-4 2.23832,-4.42537 4.00484,-13.22969 2.88011,-14.35442 -0.65647,-0.65647 -1.26152,-0.0368 -1.7876,1.83086 -1.06734,3.78915 -0.85086,3.21957 -3.29,8.65613 -1.19258,2.65809 -2.16952,5.35809 -2.17098,6 -10e-4,0.6419 -2.19663,4.54209 -4.87814,8.66709 -4.29321,6.60429 -12.53057,15.38161 -20.17737,21.5 -1.37478,1.1 -4.58734,3.6875 -7.13902,5.75 -2.55167,2.0625 -5.32461,3.75 -6.16209,3.75 -0.83748,0 -1.76851,0.39775 -2.06895,0.88388 -0.51911,0.83994 -9.78392,5.51931 -10.33225,5.21849 -0.14326,-0.0786 -1.60576,0.55278 -3.25,1.40305 -1.64424,0.85027 -2.98952,1.17802 -2.98952,0.72835 0,-0.44968 2.5875,-2.0132 5.75,-3.4745 13.36532,-6.1757 30.5191,-19.76213 38.2044,-30.25927 11.60331,-15.84866 15.20879,-27.8663 14.29708,-47.65446 -0.47847,-10.38511 -0.83823,-12.25228 -2.89887,-15.04532 C 543.05867,317.04639 542,315.13211 542,314.54627 c 0,-0.58585 -0.9,-1.62724 -2,-2.3142 -1.8453,-1.15241 -2,-0.99869 -2,1.9873 v 3.23632 l -3.10316,-3.76467 c -2.39702,-2.90801 -3.4058,-3.51351 -4.4331,-2.66093 -1.02041,0.84687 -1.72138,0.50633 -3.01185,-1.46317 -2.86311,-4.36966 -3.1746,-2.88333 -1.14666,5.47157 1.07312,4.42116 1.69839,8.29122 1.38948,8.60013 C 526.57414,324.75919 525,322.82191 525,320.32225 c 0,-1.40784 -0.9855,-5.43128 -2.18999,-8.94098 -1.55971,-4.54473 -2.71091,-6.41725 -4,-6.50627 -2.64534,-0.18269 -3.17864,-0.32218 -4.54142,-1.18784 -0.67727,-0.43022 -3.8313,-0.94967 -7.00894,-1.15433 -3.17765,-0.20467 -6.44851,-0.52078 -7.26859,-0.70248 -1.18126,-0.26171 -1.45515,0.6918 -1.31823,4.58929 l 0.17283,4.91964 -2.33319,-2.91964 c -1.28326,-1.6058 -2.55874,-2.69464 -2.8344,-2.41964 -0.27565,0.275 -0.0483,2.975 0.50515,6 0.90408,4.94107 0.83951,8.53025 -0.43176,24 -0.5218,6.34964 -4.74628,15.81349 -11.60588,26 -10.22463,15.18356 -18.01769,22.53375 -28.64558,27.01766 -4.67949,1.97429 -5.09902,1.16115 -0.71379,-1.38348 7.74273,-4.49288 15.25472,-12.21092 22.89024,-23.5181 4.48602,-6.64319 8.45362,-13.43182 8.81691,-15.08584 0.36328,-1.65402 1.07589,-3.26402 1.58358,-3.57779 0.50768,-0.31377 0.90276,-2.00643 0.87796,-3.76147 l -0.0451,-3.19098 -1.37368,3 c -1.07373,2.34495 -1.38842,2.5633 -1.44124,1 -0.0372,-1.1 0.20626,-3.02198 0.54093,-4.27108 0.47736,-1.78165 0.90184,-2.02761 1.96977,-1.14131 2.35604,1.95534 3.78505,-3.70394 3.93601,-15.58761 0.10086,-7.94053 -0.25049,-11.60343 -1.26324,-13.16957 -0.77162,-1.19326 -1.3216,-2.76826 -1.22216,-3.5 0.51602,-3.79742 -0.3714,-4.87656 -6.30618,-7.66856 -8.59976,-4.04573 -29.2097,-10.0355 -30.4079,-8.8373 -0.3303,0.3303 0.5826,1.13963 2.02867,1.7985 2.79159,1.27193 3.80403,4.54172 1.08297,3.49755 -1.29531,-0.49705 -1.44724,0.0706 -0.9361,3.49765 0.75172,5.04003 -1.29366,5.00199 -2.99658,-0.0557 -0.6142,-1.82419 -2.08857,-4.10366 -3.27637,-5.06549 C 444.91147,290.10773 445.25224,289 448.16667,289 449.175,289 450,288.55 450,288 c 0,-1.16404 -3.31499,-1.35168 -4.41667,-0.25 -0.4125,0.4125 -1.275,0.75767 -1.91666,0.76705 -1.16937,0.0171 -1.22718,1.29124 -0.42069,9.27299 0.23841,2.35952 0.13062,4.47721 -0.23952,4.70597 -0.37015,0.22876 -0.47183,1.78659 -0.22595,3.46185 0.27065,1.84405 -0.2169,4.05921 -1.23561,5.61397 -0.92547,1.41243 -2.29996,4.6192 -3.05445,7.12615 -1.73611,5.76866 -11.37178,21.76995 -15.85727,26.33306 -5.26279,5.35387 -11.35125,10.18637 -16.81749,13.34827 -2.73774,1.58362 -5.21123,3.48788 -5.49666,4.23169 -0.39544,1.03049 -0.99674,1.09667 -2.52635,0.27805 -1.42055,-0.76026 -2.31889,-0.76284 -3.07291,-0.009 -1.73702,1.73702 0.67271,5.6036 4.67629,7.50342 1.97078,0.9352 7.30039,5.40306 11.84359,9.92858 18.45644,18.38467 36.35717,28.84258 56.01035,32.72221 4.24055,0.8371 6.75,1.82193 6.75,2.64902 0,2.15366 -5.13212,1.54166 -15.15289,-1.80699 -13.60037,-4.54484 -22.45876,-8.84065 -34.59128,-16.77478 C 413.74171,390.22593 408,385.2768 408,383.08981 c 0,-0.5994 -0.5625,-1.09088 -1.25,-1.09219 -1.55831,-0.003 -12.29601,-7.22262 -16.02147,-10.77227 l -2.77148,-2.64068 -15.72852,0.24802 c -14.94172,0.23561 -21.61631,0.78681 -23.63027,1.95145 -0.49596,0.2868 -2.29596,0.63258 -4,0.7684 -2.98408,0.23785 -7.61754,1.1416 -10.46088,2.0404 -2.61769,0.82745 0.74554,3.12552 7.33679,5.01317 3.53262,1.01169 5.97593,2.11571 5.42959,2.45337 -0.54634,0.33766 -3.59911,-0.29894 -6.78393,-1.41465 -4.4563,-1.56115 -6.52013,-1.81155 -8.95677,-1.08671 l -3.1662,0.94188 2.28257,2.84423 c 2.47218,3.08049 9.87256,5.17998 12.77789,3.62509 1.53006,-0.81886 9.60823,2.35784 14.40749,5.66568 1.72722,1.19046 1.06214,1.34211 -5.5,1.25409 -13.44456,-0.18035 -17.40762,0.0693 -16.41481,1.03406 0.5225,0.50774 3.875,1.45749 7.45,2.11056 3.575,0.65306 9.00949,2.03337 12.07665,3.06735 4.28739,1.44534 7.47466,1.77504 13.78637,1.42611 8.00734,-0.44267 10.48451,0.66792 3.88026,1.73964 -4.33158,0.70292 -24.22793,10.2764 -28.88718,13.89958 -2.00415,1.55848 -4.34009,2.83361 -5.19099,2.83361 -1.75434,0 -3.19502,1.80342 -2.21977,2.77868 0.35509,0.35508 1.53059,0.0929 2.61222,-0.58255 1.08163,-0.67549 3.09201,-0.94571 4.46751,-0.60048 1.42319,0.3572 3.13698,0.0998 3.97695,-0.59733 0.91569,-0.75995 2.76778,-0.98269 4.87854,-0.5867 3.82427,0.71743 8.02704,-0.4902 23.11944,-6.64315 9.03612,-3.6839 10.91569,-4.09483 19.5,-4.26326 5.225,-0.10252 10.625,0.24497 12,0.77221 1.375,0.52724 3.64563,1.11103 5.04584,1.2973 1.40021,0.18627 3.62264,0.73702 4.93874,1.22387 1.3161,0.48686 3.54547,0.53406 4.95416,0.10489 8.438,-2.57071 11.0861,-3.10792 12.55029,-2.54606 2.46371,0.94541 0.80098,2.64258 -2.58895,2.64258 -1.64004,0 -5.86443,0.93125 -9.38754,2.06945 l -6.40565,2.06945 -2.88031,-2.1295 c -4.7587,-3.51826 -20.79457,-5.35547 -18.81709,-2.15585 0.29494,0.47722 3.28885,1.64001 6.65313,2.58398 3.36428,0.94397 5.94735,1.88583 5.74016,2.09303 -0.2072,0.20719 -3.96008,-0.35005 -8.33975,-1.23832 -10.98853,-2.22867 -18.08048,-2.15179 -22.89088,0.24814 -5.4886,2.73829 -5.51221,4.12774 -0.10947,6.44362 2.54608,1.09138 6.11353,3.11645 7.92767,4.50016 4.09634,3.12443 6.0766,3.15713 10.01526,0.16539 5.13689,-3.90189 12.70879,-7.54288 14.36483,-6.9074 1.026,0.39372 1.31086,0.19841 0.83459,-0.57221 -0.47382,-0.76666 0.0729,-1.15898 1.58595,-1.13814 2.28217,0.0314 2.28577,0.0502 0.30902,1.61262 -1.1,0.86945 -3.8,2.41434 -6,3.43311 -2.2,1.01876 -5.575,3.23257 -7.5,4.91957 -8.06671,7.06939 -30.07908,15.94108 -39.66821,15.98755 -3.66786,0.0178 -6.33179,0.87667 -6.33179,2.04148 0,0.66782 5.63105,1.12619 14,1.1396 2.14811,0.003 17.52292,-3.75285 18.93643,-4.62644 0.65239,-0.4032 2.54409,-0.9471 4.20378,-1.20867 1.6597,-0.26157 5.34462,-1.86013 8.18871,-3.55235 7.55012,-4.49229 15.78928,-8.50295 21.31917,-10.37773 2.66855,-0.90472 5.97691,-2.10909 7.35191,-2.67639 3.55275,-1.46581 4.81358,-1.77985 11,-2.73982 3.025,-0.46939 6.625,-1.1328 8,-1.47423 4.24281,-1.05355 13.65767,-0.80679 15.62857,0.40962 1.49535,0.92291 0.47216,1.07504 -5.09146,0.75704 -3.82958,-0.21889 -8.32958,-0.0729 -10,0.32449 -1.67041,0.39735 -5.51211,1.2873 -8.53711,1.97766 -3.025,0.69035 -6.85,1.83507 -8.5,2.5438 -1.65,0.70874 -5.25,2.08656 -8,3.06184 -2.75,0.97528 -6.19447,2.59273 -7.65437,3.59434 -1.4599,1.00161 -3.08672,1.82111 -3.61514,1.82111 -0.52843,0 -2.15813,0.94184 -3.62157,2.09298 -3.97108,3.12366 -11.77022,7.08972 -14.60892,7.42902 -1.375,0.16435 -5.65,1.02881 -9.5,1.92101 -3.85,0.89221 -8.8,1.86263 -11,2.1565 -2.2,0.29386 -5.39419,0.96655 -7.09819,1.49485 -1.70401,0.5283 -4.40401,0.92828 -6,0.88884 -3.60068,-0.089 -21.99908,0.8419 -29.40181,1.4876 -5.14469,0.44874 -6.77137,0.68771 -14.5,2.13009 -1.65,0.30794 -5.35848,1.41589 -8.24108,2.46212 -4.22597,1.53381 -5.72701,1.68084 -7.75,0.7591 -2.9125,-1.32703 -3.27692,-2.75527 -0.75892,-2.97442 3.18938,-0.2776 3.7416,-0.39541 4.75,-1.01334 0.55,-0.33703 5.275,-1.16806 10.5,-1.84674 5.225,-0.67868 10.49667,-1.85353 11.71482,-2.61078 1.21815,-0.75726 2.90565,-1.37683 3.75,-1.37683 0.84435,0 1.53518,-0.40522 1.53518,-0.90048 0,-0.90193 -1.73793,-0.84697 -12.64899,0.40002 -7.60897,0.86961 -21.16668,3.49946 -24.35101,4.72347 -1.375,0.52853 -3.625,1.15484 -5,1.39182 -4.6165,0.79562 -10.98911,4.67507 -16.26442,9.90129 -5.29868,5.24937 -17.14609,20.65111 -19.53755,25.39901 -0.71608,1.42168 -1.73001,3.25987 -2.25318,4.08487 -1.3969,2.20283 -5.94485,11.76765 -5.94485,12.50264 0,0.8261 -5.28864,7.90238 -6.21823,8.3201 -0.39502,0.17751 -2.16123,2.87751 -3.9249,6 -1.76367,3.12249 -4.25297,6.94929 -5.53177,8.50399 -1.27881,1.55469 -2.3251,3.40999 -2.3251,4.12288 0,1.21373 -2.98312,8.19725 -4.93393,11.55039 -0.47997,0.825 -1.34584,3.3 -1.92416,5.5 -0.57831,2.2 -2.01432,7.15 -3.19114,11 -1.83576,6.00578 -2.55437,9.18504 -2.88187,12.75 -0.0917,0.99862 -2.24082,0.92732 -3.90843,-0.12966 z M 153.6279,494.35301 c 4.87965,-5.30585 11.1221,-11.43288 13.8721,-13.61562 6.97717,-5.53796 13.73265,-11.83808 13.23129,-12.33943 -0.46256,-0.46257 -12.97998,7.9156 -16.58701,11.10204 -1.2452,1.1 -6.98772,6.68258 -12.76116,12.40574 -7.58719,7.5211 -10.13484,10.63554 -9.19014,11.23469 0.71886,0.45592 1.58957,0.83584 1.93492,0.84426 0.34534,0.008 4.62034,-4.32584 9.5,-9.63168 z m 56.02006,-47.4131 c 5.14362,-3.88304 9.35204,-7.47607 9.35204,-7.9845 0,-0.9271 -10.44253,6.45702 -17,12.02104 -6.61633,5.61396 -1.6942,3.0161 7.64796,-4.03654 z M 346.233,444.92723 c -1.50315,-0.31502 -3.633,-0.1176 -4.733,0.43872 -1.91336,0.96767 -1.89214,1.03765 0.4899,1.61547 1.36944,0.33219 3.49929,0.13477 4.733,-0.43872 2.2293,-1.03629 2.22629,-1.04622 -0.4899,-1.61547 z M 225,435.42285 l 2.5,-1.50628 -2.5,0.65411 c -1.375,0.35976 -2.9275,1.05353 -3.45,1.54171 -1.52746,1.42714 0.66379,0.98918 3.45,-0.68954 z m 42.75,-1.03863 c 2.8875,-0.33807 5.25,-0.90193 5.25,-1.25302 0,-0.3511 -3.9375,-0.73776 -8.75,-0.85926 -4.8125,-0.12149 -9.65,-0.39959 -10.75,-0.61799 -1.1,-0.21841 -2.45,-0.0501 -3,0.37401 -0.55,0.42411 -3.44975,0.37965 -6.44389,-0.0988 -6.77211,-1.08217 -13.95735,0.27779 -11.02917,2.0875 1.52074,0.93987 27.48719,1.21474 34.72306,0.36757 z M 296,430.91914 c 0.96435,-0.52137 0.4287,-0.67634 -1.5,-0.43395 -1.65,0.20735 -3.5625,0.40802 -4.25,0.44591 -0.6875,0.0379 -1.25,0.52747 -1.25,1.08795 0,1.05452 4.25039,0.38665 7,-1.09991 z m 7.0066,-0.92819 c 1.92137,-0.55499 7.7684,-1.65347 12.9934,-2.44108 9.93737,-1.49794 17.46169,-3.99382 16.53933,-5.48623 -0.3033,-0.49075 -1.96981,-0.50667 -3.79031,-0.0362 -1.78696,0.4618 -7.52402,1.80105 -12.74902,2.97611 -14.58215,3.2794 -17,3.99551 -17,5.03498 0,1.17428 -0.23317,1.17705 4.0066,-0.0476 z M 254,388.03138 c 0,-0.53273 -0.675,-0.70959 -1.5,-0.39301 -0.825,0.31659 -1.5,0.75246 -1.5,0.96862 0,0.21615 0.675,0.39301 1.5,0.39301 0.825,0 1.5,-0.43588 1.5,-0.96862 z m 26.23104,-1.12742 c 5.35207,-0.63597 9.47947,-1.56334 9.17201,-2.06082 -0.30745,-0.49748 -2.10782,-0.61395 -4.0008,-0.25882 -1.89299,0.35512 -7.78431,0.93143 -13.09182,1.28068 -6.31587,0.4156 -9.79197,1.06409 -10.06087,1.87692 -0.44036,1.33116 -0.1647,1.31831 17.98148,-0.83796 z M 309,383.55902 c 0,-0.24254 -0.45,-0.7191 -1,-1.05902 -0.55,-0.33992 -1,-0.14148 -1,0.44098 0,0.58246 0.45,1.05902 1,1.05902 0.55,0 1,-0.19844 1,-0.44098 z m 9.04966,-3.0847 C 321.44582,378.7181 321.91578,377 319,377 c -1.1,0 -2,0.39752 -2,0.88337 0,0.48585 -0.9,1.11872 -2,1.40638 -2.05988,0.53867 -2.82134,2.71025 -0.95034,2.71025 0.57731,0 2.37731,-0.68656 4,-1.52568 z m 161.83499,190.8347 c -0.42452,-2.97742 -0.32515,-4.03369 0.54649,-5.80902 0.54008,-1.1 1.10001,-3.35 1.24429,-5 0.14428,-1.65 0.53173,-4.8 0.86099,-7 0.52163,-3.48533 1.5273,-37.68223 1.44213,-49.03863 -0.0537,-7.16125 1.77228,-17.05249 3.98102,-21.56504 l 2.15186,-4.39633 -0.64248,4 c -0.35337,2.2 -0.59855,5.20792 -0.54484,6.68426 0.0537,1.47635 -0.37496,2.97635 -0.95259,3.33334 -1.35161,0.83534 -1.16639,29.71883 0.24349,37.97047 1.57989,9.24667 1.3489,17.62642 -0.52363,18.99565 -0.90727,0.66341 -1.85891,3.45224 -2.24655,6.58362 -0.77057,6.22478 -3.26687,14.70464 -4.5649,15.50687 -0.48396,0.2991 -0.93184,0.17977 -0.99528,-0.26519 z M 486,566 c 0,-0.55 0.45,-1 1,-1 0.55,0 1,0.45 1,1 0,0.55 -0.45,1 -1,1 -0.55,0 -1,-0.45 -1,-1 z m 281.5,-6.44739 c -2.75,-0.70251 -6.26679,-1.78924 -7.8151,-2.41495 C 758.1366,556.51195 755.80065,556 754.49392,556 c -2.38853,0 -4.21348,-1.61378 -3.09255,-2.7347 0.3309,-0.33091 1.61347,-0.10835 2.85014,0.49456 2.29146,1.11716 7.55321,2.17792 13.63376,2.74855 1.8619,0.17473 4.3244,1.25682 5.47223,2.40464 2.44987,2.44988 1.59458,2.54327 -5.8575,0.63956 z M 488.15789,553 c 0,-1.375 0.22698,-1.9375 0.50439,-1.25 0.27741,0.6875 0.27741,1.8125 0,2.5 -0.27741,0.6875 -0.50439,0.125 -0.50439,-1.25 z m 27.58727,-11.61787 C 515.48475,540.34696 515.17662,535 515.06044,529.5 c -0.15987,-7.56826 0.0706,-9.72438 0.9476,-8.86656 1.36275,1.33288 2.2297,19.36385 1.02478,21.31346 -0.61924,1.00194 -0.92754,0.86672 -1.28766,-0.56477 z m 46.7613,-2.13213 c 0.39625,-0.9625 0.94688,-2.5375 1.22362,-3.5 0.57575,-2.00238 2.27679,-2.37934 2.25627,-0.5 -0.0326,2.98848 -1.33415,5.75 -2.70997,5.75 -1.02718,0 -1.26645,-0.54388 -0.76992,-1.75 z m 4.7572,-12.5 c 0.85134,-2.38599 1.25877,-2.76923 1.53256,-1.44159 0.46661,2.26268 -0.42015,4.69159 -1.71282,4.69159 -0.60217,0 -0.53275,-1.25169 0.18026,-3.25 z M 669.5,523 c 0.33992,-0.55 1.06803,-1 1.61803,-1 0.55,0 0.72189,0.45 0.38197,1 -0.33992,0.55 -1.06803,1 -1.61803,1 -0.55,0 -0.72189,-0.45 -0.38197,-1 z M 564,521.05902 c 0,-0.51754 0.45,-1.2191 1,-1.55902 0.55,-0.33992 1,0.0835 1,0.94098 0,0.85746 -0.45,1.55902 -1,1.55902 -0.55,0 -1,-0.42344 -1,-0.94098 z m 96.52699,-2.01535 c -0.32507,-0.52598 -1.25163,-0.70283 -2.05902,-0.39301 -0.80738,0.30983 -1.46797,0.0917 -1.46797,-0.48465 0,-1.83175 1.67441,-2.17547 4.9815,-1.02261 2.34732,0.81828 2.84903,1.349 1.86487,1.97271 -1.75964,1.11518 -2.59668,1.09691 -3.31938,-0.0724 z m -146.04835,-1.24578 c -0.85123,-2.20913 0.38658,-4.33267 1.73785,-2.9814 0.65434,0.65434 0.63885,1.6177 -0.0456,2.83713 -0.95532,1.70198 -1.08766,1.71326 -1.69223,0.14427 z M 569,516.7733 c 0,-0.9104 0.45,-1.93338 1,-2.2733 0.55,-0.33992 1,-1.46492 1,-2.5 0,-1.03508 0.44322,-2.15589 0.98494,-2.49069 1.46133,-0.90316 0.0334,5.69943 -1.61229,7.45498 C 569.17221,518.24487 569,518.2209 569,516.7733 Z M 513.87091,512.25 c -0.071,-0.4125 -0.2548,-2.55 -0.40844,-4.75 -0.66747,-9.55769 -7.29502,-35.15289 -9.45044,-36.49708 -0.74526,-0.46476 -1.48616,-18.90886 -1.155,-28.75292 0.25978,-7.72239 2.14297,-4.54693 2.14297,3.61351 0,4.32493 0.47997,10.28743 1.06661,13.25 0.58663,2.96257 1.28776,6.51149 1.55807,7.88649 0.6783,3.45042 1.89548,8.19824 4.35821,17 1.15417,4.125 2.27146,9.75 2.48286,12.5 0.21139,2.75 0.67555,7.5875 1.03146,10.75 0.43069,3.82702 0.28854,5.75 -0.42505,5.75 -0.58969,0 -1.13025,-0.3375 -1.20125,-0.75 z M 626.5,503 c 0.33992,-0.55 0.81648,-1 1.05902,-1 0.24254,0 0.44098,0.45 0.44098,1 0,0.55 -0.47656,1 -1.05902,1 -0.58246,0 -0.7809,-0.45 -0.44098,-1 z m -26.94236,-0.90674 c -0.30822,-0.49871 0.34022,-0.67122 1.44098,-0.38337 2.33499,0.61061 2.63015,1.29011 0.5604,1.29011 -0.79254,0 -1.69316,-0.40803 -2.00138,-0.90674 z m -23.84331,-2.10884 c 0.66181,-2.53077 2.16362,-3.50647 3.43709,-2.233 0.6362,0.6362 0.40642,1.54789 -0.65856,2.61287 -2.22118,2.22118 -3.41601,2.05782 -2.77853,-0.37987 z M 594.5,500.28693 c -1.1,-0.26458 -2.4275,-0.88738 -2.95,-1.38399 -1.60837,-1.52869 2.7855,-0.96376 4.89113,0.62886 1.97043,1.49036 1.6438,1.61742 -1.94113,0.75513 z m -9.6875,-3.97004 c 0.72187,-0.28887 1.58438,-0.25335 1.91667,0.0789 0.33229,0.33229 -0.25834,0.56864 -1.3125,0.52522 -1.16495,-0.048 -1.4019,-0.28494 -0.60417,-0.60416 z m 88.81462,-25.1112 c -0.34779,-0.56275 0.94382,-3.41648 2.87026,-6.34163 C 678.42382,461.93891 680,459.19785 680,458.7728 680,458.34776 680.74474,458 681.65499,458 c 1.53998,0 1.53998,0.12708 0,1.82874 -0.91025,1.00581 -1.65499,2.13214 -1.65499,2.50295 0,1.69112 -5.81114,9.78291 -6.37288,8.874 z m -22.23411,-8.78748 c 0.33385,-0.86998 0.60699,-1.76998 0.60699,-2 0,-0.23001 0.6199,-0.41821 1.37756,-0.41821 0.75765,0 1.94678,-0.68587 2.6425,-1.52417 0.69572,-0.83829 1.50551,-1.28359 1.79954,-0.98956 0.65795,0.65795 -4.83818,6.51373 -6.11368,6.51373 -0.50594,0 -0.64675,-0.7118 -0.31291,-1.58179 z M 660,454.97709 c 0,-0.57192 0.69441,-1.30633 1.54313,-1.63201 2.34537,-0.90001 2.62076,0.0715 0.41139,1.45125 C 660.71745,455.56889 660,455.63525 660,454.97709 Z M 422.69216,440.06917 c 0.5587,-2.13647 2.9417,-3.47061 3.77906,-2.11574 0.93614,1.51471 -0.61841,4.04657 -2.48459,4.04657 -1.28557,0 -1.65521,-0.55135 -1.29447,-1.93083 z M 675.69571,437.75 c 1.68268,-3.13023 1.76056,-3.16203 2.11317,-0.86309 0.20136,1.3128 -0.23577,2.76841 -0.97139,3.23469 -2.5315,1.6046 -2.88477,0.87082 -1.14178,-2.3716 z M 423,434.73518 C 423,433.26535 424.94076,431 426.2,431 c 1.62443,0 0.73512,2.96436 -1.2,4 -1.53583,0.82195 -2,0.76049 -2,-0.26482 z m 21.6875,-7.38101 c -1.21213,-1.21214 -0.74155,-1.92449 1.37673,-2.08406 1.14151,-0.086 1.89583,0.34971 1.6875,0.9747 -0.47072,1.41215 -2.15256,2.02103 -3.06423,1.10936 z M 497,425.5 c 0,-0.825 0.45,-1.5 1,-1.5 0.55,0 1,0.675 1,1.5 0,0.825 -0.45,1.5 -1,1.5 -0.55,0 -1,-0.675 -1,-1.5 z m -10,-2.01458 c 0,-0.23873 1.25357,-1.08231 2.78571,-1.87461 2.50899,-1.29745 2.78565,-1.27516 2.78503,0.22432 -4.5e-4,1.10423 -0.93854,1.7355 -2.78571,1.87461 C 488.25326,423.8251 487,423.72416 487,423.48542 Z m 9.74523,-5.14233 c 1.23487,-1.0137 4.38487,-2.9469 7,-4.29601 2.61512,-1.3491 6.55477,-3.63502 8.75477,-5.07982 5.48529,-3.60233 6.5,-4.16345 6.5,-3.5944 0,0.87631 -16.43931,12.30422 -18.5,12.86041 -1.1,0.2969 -2.9,0.85777 -4,1.24636 -1.78928,0.6321 -1.76344,0.51236 0.24523,-1.13654 z m 23.3381,-14.62606 c 0.22917,-0.15563 1.31667,-0.94313 2.41667,-1.75 1.85001,-1.35701 1.89707,-1.33579 0.62756,0.28297 -0.75485,0.9625 -1.84235,1.75 -2.41667,1.75 -0.57432,0 -0.85672,-0.12734 -0.62756,-0.28297 z M 545,377.05902 c 0,-0.51754 0.44485,-1.21592 0.98855,-1.55194 0.56686,-0.35034 0.7345,0.0511 0.39301,0.94098 C 545.71677,378.18048 545,378.49745 545,377.05902 Z m 82,-7.61804 c 0,-0.85746 0.45734,-1.27636 1.01631,-0.9309 0.55897,0.34546 0.75742,1.04702 0.44098,1.55902 C 627.60006,371.45614 627,371.19751 627,369.44098 Z m -43.44292,-9.34863 c -0.30853,-0.4992 -0.13861,-1.9617 0.37759,-3.25 0.87788,-2.19092 0.94266,-2.13224 1.00194,0.90765 0.0641,3.28617 -0.3557,3.99895 -1.37953,2.34235 z M 35.535629,349.05765 c -1.535076,-2.48381 0.413446,-5.88574 4.060591,-7.08941 1.978416,-0.65293 4.791118,-1.81012 6.25045,-2.57154 1.459331,-0.76141 3.362389,-1.38715 4.229016,-1.39054 C 50.942313,338.00277 52.708255,336.875 54,335.5 c 1.291745,-1.375 3.143629,-2.5 4.115297,-2.5 0.971668,0 2.028715,-0.424 2.348994,-0.94222 0.32028,-0.51822 2.602371,-1.24515 5.071314,-1.61539 2.468943,-0.37024 4.713748,-1.03683 4.988454,-1.48132 0.274706,-0.44448 2.709632,-1.54225 5.410948,-2.43948 2.701315,-0.89724 9.683929,-4.05624 15.51692,-7.02001 5.83299,-2.96378 10.930033,-5.45791 11.326753,-5.54252 0.39673,-0.0846 3.51505,-1.46001 6.92962,-3.05645 3.41456,-1.59643 6.6406,-2.90261 7.16896,-2.90261 0.52836,0 2.23463,-0.66743 3.7917,-1.48318 3.41516,-1.7892 12.51062,-5.43316 25.33104,-10.14851 9.5357,-3.50723 14.57869,-5.11262 25.25,-8.03811 3.1625,-0.86698 5.75,-1.92217 5.75,-2.34486 0,-1.55966 -5.56987,-2.0942 -11.44896,-1.09876 -20.96664,3.55003 -29.61111,4.69433 -30.64338,4.05635 -0.70939,-0.43843 0.0562,-0.99573 1.9348,-1.40833 1.70981,-0.37554 3.52911,-0.42299 4.0429,-0.10545 1.41631,0.87533 4.11464,-0.45995 4.11464,-2.03614 0,-2.02988 -29.59601,-1.95277 -38.80259,0.10109 -3.68358,0.82175 -10.29741,1.9187 -14.69741,2.43766 -17.728052,2.09093 -28.329828,4.91653 -26.932166,7.178 0.845028,1.36728 4.049193,1.05662 5.357183,-0.51941 0.769207,-0.92684 3.123054,-1.38883 6.872444,-1.34885 3.136397,0.0334 9.077539,-0.39855 13.202539,-0.95997 4.125,-0.56143 8.4,-1.05132 9.5,-1.08864 1.1,-0.0373 4.7,-0.32422 8,-0.63754 3.3,-0.31332 8.34176,-0.55952 11.2039,-0.54712 2.86215,0.0124 7.04795,-0.39177 9.30178,-0.89817 3.00101,-0.67428 3.99646,-0.61149 3.719,0.2346 -0.49273,1.50249 -11.50201,3.35549 -24.72468,4.16149 -16.105659,0.98172 -21.234576,1.37989 -24.5,1.90198 -1.65,0.2638 -5.925,0.76637 -9.5,1.11682 -3.575,0.35044 -7.754611,1.03325 -9.288025,1.51734 C 59.678699,299.3156 56,297.40198 56,294.03061 c 0,-4.76589 1.753476,-5.745 11.5,-6.42142 4.95,-0.34353 13.5,-1.30732 19,-2.14175 5.5,-0.83443 12.25,-1.78787 15,-2.11877 2.75,-0.3309 5.5968,-1.07828 6.32622,-1.66085 0.95387,-0.76184 1.55047,-0.69635 2.125,0.23324 0.56253,0.9102 1.00109,0.96512 1.4828,0.1857 0.37621,-0.60872 2.90746,-1.10676 5.625,-1.10676 2.71754,0 4.94098,-0.39188 4.94098,-0.87083 0,-1.36219 -10.70668,-2.08054 -19.25,-1.29154 -4.2625,0.39365 -7.75,0.42419 -7.75,0.0679 0,-0.70478 18.32784,-2.2666 24,-2.04518 5.33114,0.20811 18.93814,2.86726 15.5,3.02909 -1.65,0.0777 -3.675,0.57743 -4.5,1.11059 -1.06471,0.68807 0.1686,0.97382 4.25,0.98469 3.38993,0.009 5.75,-0.41936 5.75,-1.04371 0,-0.58246 -0.45,-0.7809 -1,-0.44098 -0.55,0.33992 -1.00016,0.25398 -1.00035,-0.19098 -1.9e-4,-0.44496 5.70414,-0.74037 12.67631,-0.65646 6.97216,0.0839 13.60982,-0.20853 14.75035,-0.64984 2.05348,-0.79458 2.05419,-0.80969 0.0737,-1.5502 -1.1,-0.41129 -3.575,-1.39785 -5.5,-2.19237 -5.73817,-2.36835 -12.55249,-4.25708 -16.65113,-4.61523 -2.11688,-0.18497 -4.52387,-0.59316 -5.34887,-0.90709 -4.04877,-1.54064 -8.31429,-1.98718 -17.14357,-1.79467 -8.78728,0.19159 -13.12128,-0.86008 -9.41136,-2.28371 1.34193,-0.51494 18.01998,-0.007 23.55493,0.71792 7.52694,0.9853 12.02664,1.97122 16.63893,3.64573 2.82641,1.02614 5.37209,1.63255 5.65707,1.34757 0.28497,-0.28498 2.02246,0.28256 3.86107,1.2612 1.83861,0.97863 3.73278,1.66936 4.20927,1.53495 0.47649,-0.13441 1.88702,0.4244 3.13453,1.24179 2.61649,1.71439 17.29357,3.8847 23.07512,3.41213 5.20428,-0.42539 5.15355,-2.71236 -0.11803,-5.32074 C 173.0203,264.37704 161.94053,259.66749 155,258.00324 c -1.925,-0.4616 -4.85,-1.32666 -6.5,-1.92236 l -3,-1.0831 3.09732,0.44557 c 1.70352,0.24507 6.585,0.76162 10.84772,1.1479 6.04953,0.54819 8.3721,1.22545 10.58332,3.08606 1.5581,1.31106 6.35163,3.6594 10.65228,5.21853 4.30065,1.55913 9.84436,3.72195 12.31936,4.80626 12.74855,5.58525 15.03248,6.07549 31.95802,6.85974 13.01054,0.60285 14.18796,0.8361 13.95002,2.76357 -0.52428,4.24689 2.93517,5.16423 5.52599,1.46532 1.99085,-2.84235 4.02725,-1.2119 2.76114,2.21072 -0.56783,1.53497 -1.11545,1.93655 -1.59118,1.16682 -0.47431,-0.76746 -1.31005,-0.86172 -2.41468,-0.27234 -2.33614,1.24645 -13.77012,0.69686 -15.50796,-0.74542 -0.87633,-0.72729 -2.91248,-0.94493 -5.30202,-0.56673 -4.62724,0.73238 -5.07001,0.96974 -6.38199,3.42118 -0.85637,1.60015 -0.50855,2.12232 2.24463,3.36974 1.79191,0.81188 4.83303,1.78891 6.75803,2.17116 1.925,0.38226 4.85,1.4043 6.5,2.2712 1.65,0.8669 5.475,2.09246 8.5,2.72346 l 5.5,1.14726 -0.0637,4.66981 c -0.035,2.5684 -0.49856,5.10467 -1.03007,5.63618 -0.62182,0.62182 -4.16446,0.60002 -9.9363,-0.0612 -4.93346,-0.56514 -11.89493,-0.73259 -15.46993,-0.37212 -9.50369,0.95829 -10.73629,0.96088 -19.26069,0.0405 -7.2935,-0.7875 -7.79392,-0.99636 -8.31274,-3.46946 -1.2485,-5.95121 -1.25814,-6.69976 -0.10625,-8.2465 1.75578,-2.35762 11.07981,-0.91044 16.10484,2.49964 2.13087,1.44605 5.25689,2.61535 6.99188,2.61535 1.72587,0 4.08103,0.66056 5.23368,1.46791 3.56958,2.50023 9.8634,2.99054 13.88587,1.08175 1.96917,-0.93443 3.42335,-2.22787 3.23152,-2.87431 -0.60422,-2.03614 -11.03604,-6.53785 -16.76811,-7.23605 -3.025,-0.36847 -6.8583,-1.49035 -8.51845,-2.49308 -5.75946,-3.47869 -18.65797,-4.48601 -29.34577,-2.29178 -10.59793,2.17578 -19.47545,4.36182 -21.63578,5.32769 -1.1,0.4918 -4.69406,1.64057 -7.9868,2.55281 -7.56483,2.0958 -11.1704,3.95601 -12.50644,6.45243 -0.91901,1.71718 -0.5759,2.16581 2.70472,3.53655 2.23111,0.93221 3.89045,1.17028 4.08518,0.5861 0.18036,-0.54107 1.18628,-0.24882 2.23539,0.64945 1.0491,0.89827 4.25505,1.80983 7.12433,2.02569 2.86927,0.21586 8.17038,1.43548 11.78024,2.71026 7.11434,2.51235 24.86927,8.00217 29.32283,9.06661 2.98406,0.71321 4.73316,2.43797 2.47239,2.43797 -0.7624,0 -5.40146,-1.30573 -10.30902,-2.90163 -7.31877,-2.38 -13.22109,-4.00156 -20.67282,-5.67949 -0.4125,-0.0929 -0.8625,-0.25956 -1,-0.37039 -0.1375,-0.11083 -0.925,-0.35144 -1.75,-0.53468 -0.825,-0.18324 -5.55,-1.30837 -10.5,-2.50028 -10.64065,-2.56217 -14.53188,-3.47945 -20.24546,-4.77247 -3.7628,-0.85155 -5.17865,-0.57879 -12.45344,2.39908 -4.51439,1.84792 -8.60946,3.35986 -9.10017,3.35986 -0.4907,0 -2.08666,0.82094 -3.54656,1.82431 -1.4599,1.00338 -6.25437,3.08644 -10.65437,4.62904 -4.4,1.54259 -8.9,3.32678 -10,3.96486 -1.1,0.63808 -6.05,2.91875 -11,5.06815 -4.95,2.1494 -10.392476,4.94427 -12.094391,6.21082 C 64.703694,335.96373 62.785088,337 62.14204,337 c -0.643048,0 -2.175572,0.51994 -3.405609,1.15543 -1.230037,0.63548 -2.911431,1.47478 -3.736431,1.86511 -0.825,0.39033 -1.5,1.73125 -1.5,2.97982 0,1.26925 -1.102244,3.07298 -2.5,4.09105 -3.081985,2.24481 -14.402623,3.68418 -15.464371,1.96624 z M 209.88572,302.92937 c -1.60476,-0.99179 -2.33522,-0.46569 -1.41676,1.02041 0.36808,0.59556 1.13619,0.79425 1.7069,0.44153 0.67187,-0.41524 0.56959,-0.93059 -0.29014,-1.46194 z M 62,296.5 c 0.717549,-0.86459 0.814738,-1.5 0.229434,-1.5 -0.558501,0 -1.274478,0.675 -1.59106,1.5 -0.316583,0.825 -0.419828,1.5 -0.229434,1.5 0.190394,0 0.906371,-0.675 1.59106,-1.5 z m 434.43343,41.625 c 0.31161,-1.85625 0.56657,-3.99375 0.56657,-4.75 0,-0.75625 0.43875,-1.375 0.975,-1.375 1.10052,0 0.26509,5.66825 -1.1791,8 -0.63242,1.02108 -0.74815,0.42243 -0.36247,-1.875 z M 518.75,332.46395 C 516.63085,329.63014 516.51054,328 518.42054,328 c 0.7813,0 1.72413,1.38218 2.09517,3.07151 0.86626,3.94406 0.41093,4.30313 -1.76571,1.39244 z m -32.67105,-2.04728 c 0.048,-1.16495 0.28494,-1.4019 0.60416,-0.60417 0.28887,0.72187 0.25335,1.58438 -0.0789,1.91667 -0.33229,0.33229 -0.56864,-0.25834 -0.52522,-1.3125 z M 214.8125,327.31689 c 0.72187,-0.28887 1.58437,-0.25335 1.91667,0.0789 0.33229,0.33229 -0.25834,0.56864 -1.3125,0.52522 -1.16495,-0.048 -1.4019,-0.28494 -0.60417,-0.60416 z M 204.5,326.09331 c -2.49254,-0.55672 -2.66169,-0.75858 -1,-1.19335 1.1,-0.28781 3.8,0.0324 6,0.71152 3.68043,1.13617 3.76032,1.2315 1,1.19335 -1.65,-0.0228 -4.35,-0.34299 -6,-0.71152 z m 303.68609,-3.23421 c -0.13163,-1.7275 -0.63011,-4.88014 -1.10773,-7.00587 -0.54377,-2.42011 -0.50124,-4.09188 0.11375,-4.47196 1.74568,-1.07889 2.61847,0.9792 3.33695,7.86873 0.56962,5.46203 0.43608,6.75 -0.69986,6.75 -0.85629,0 -1.49713,-1.22499 -1.64311,-3.1409 z m 8.48058,1.47423 C 516.3,323.96667 516,321.3725 516,318.56852 c 0,-3.18762 -0.7495,-6.49654 -2,-8.8297 -2.3753,-4.4318 -2.51656,-5.41241 -0.5438,-3.77517 0.8009,0.66469 1.8462,0.96749 2.32287,0.67289 1.10283,-0.68158 4.65952,14.77813 3.87202,16.83033 -0.62068,1.61745 -1.87056,1.98032 -2.98442,0.86646 z M 501.116,318.33179 c -0.0638,-0.64252 -0.40723,-1.99252 -0.76318,-3 -0.50214,-1.42127 -0.36907,-1.57546 0.59378,-0.68801 0.68253,0.62908 1.02596,1.97908 0.76318,3 -0.26278,1.02092 -0.52998,1.33052 -0.59378,0.68801 z M 531.71025,317 c -0.28766,-1.1 -0.11514,-2 0.38337,-2 0.49851,0 0.90638,0.9 0.90638,2 0,1.1 -0.17252,2 -0.38337,2 -0.21085,0 -0.61872,-0.9 -0.90638,-2 z m -65.04358,-3.66667 C 466.3,312.96667 466,312.20167 466,311.63333 c 0,-0.6266 0.46577,-0.56756 1.18333,0.15 0.65084,0.65084 0.95084,1.41584 0.66667,1.7 -0.28417,0.28417 -0.81667,0.21667 -1.18333,-0.15 z m 37.82896,-4.34039 c -0.34231,-0.55389 0.10054,-1.28448 0.98412,-1.62354 1.91464,-0.73472 2.98171,0.0749 2.06137,1.56407 -0.83038,1.34358 -2.23491,1.37101 -3.04549,0.0595 z M 432.232,301 c 0,-1.925 0.2058,-2.7125 0.45733,-1.75 0.25152,0.9625 0.25152,2.5375 0,3.5 -0.25153,0.9625 -0.45733,0.175 -0.45733,-1.75 z m 24.33943,-0.57143 c -0.36782,-1.46551 -0.44377,-2.88957 -0.16877,-3.16457 0.275,-0.275 0.80095,0.69906 1.16877,2.16457 0.36782,1.46551 0.44376,2.88957 0.16876,3.16457 -0.275,0.275 -0.80094,-0.69906 -1.16876,-2.16457 z m 14.50959,0.72282 C 469.77082,298.70326 469.68975,297 470.88342,297 c 0.85511,0 2.27739,5.15751 1.6093,5.83565 -0.18188,0.1846 -0.81714,-0.57331 -1.4117,-1.68426 z M 459.61599,296.25 c -0.3395,-0.9625 -0.87949,-2.3125 -1.19997,-3 -0.32125,-0.68915 0.0594,-1.25 0.84847,-1.25 0.90455,0 1.46254,1.10387 1.51645,3 0.0968,3.40463 -0.26719,3.79519 -1.16495,1.25 z m 4.96696,-0.11579 c -0.43077,-0.697 -0.51316,-1.53733 -0.18309,-1.86741 0.89497,-0.89496 1.87077,0.4213 1.38739,1.87145 -0.33872,1.01617 -0.57427,1.01538 -1.2043,-0.004 z M 87,279.61663 c 0,-0.21085 0.900621,-0.61888 2.00138,-0.90674 1.100759,-0.28785 1.749201,-0.11534 1.440983,0.38337 C 89.904112,279.96417 87,280.4057 87,279.61663 Z m 59.73896,-3.57601 c -4.80517,-0.93186 -6.10999,-2.13911 -1.62762,-1.5059 5.83061,0.82368 6.81088,1.05417 7.52638,1.76967 0.8126,0.81259 -0.69645,0.74512 -5.89876,-0.26377 z m 100.90312,-4.53095 c -0.3892,-1.01426 -0.29368,-2.25807 0.21227,-2.76402 1.29068,-1.29068 2.03324,0.37489 1.19538,2.68124 -0.6713,1.84789 -0.72901,1.85129 -1.40765,0.0828 z m -17.66559,-5.95846 c -3.58793,-1.84273 -12.36293,-5.71132 -19.5,-8.59686 -7.13707,-2.88554 -13.47758,-5.63485 -14.09002,-6.10958 -2.02476,-1.56947 -19.73362,-4.87049 -28.88647,-5.38458 -18.55322,-1.04208 -46.06124,-1.19731 -48.49065,-0.27362 -3.8149,1.45045 -0.75608,2.65122 7.42865,2.91619 5.51019,0.17838 7.33172,0.66586 9.44444,2.52752 2.96253,2.6105 1.75263,3.01917 -3.88904,1.31362 -7.32909,-2.21567 -23.84617,-4.35553 -32.2434,-4.17727 -15.734157,0.33401 -20.232628,0.71707 -21.41126,1.8232 -0.638693,0.59941 -2.575334,0.88229 -4.303646,0.62863 -2.524534,-0.37052 -3.082683,-0.87973 -2.83874,-2.58983 0.248806,-1.74419 1.098466,-2.1855 4.704537,-2.4435 2.843497,-0.20344 4.687401,0.14871 5.210515,0.99513 0.645772,1.04488 1.07059,0.98083 2.099109,-0.31646 1.359909,-1.71529 6.833416,-2.58355 21.789485,-3.45645 4.675,-0.27286 12.55,-0.98858 17.5,-1.59048 8.4015,-1.02161 27.11896,-1.21449 30.5,-0.3143 3.22504,0.85865 26.30309,3.52767 26.73841,3.09235 0.25402,-0.25402 0.18527,-0.9094 -0.15279,-1.45639 -0.72418,-1.17174 -17.94085,-7.97272 -22.08557,-8.7243 C 154.11886,232.8011 153,232.20027 153,230.99767 c 0,-1.4229 9.91532,-0.80463 11.16067,0.69593 0.61693,0.74336 1.93567,1.09321 2.93053,0.77745 0.99487,-0.31575 3.15899,0.12409 4.80916,0.97742 1.65018,0.85334 4.92012,1.55153 7.26655,1.55153 3.73589,0 8.29988,1.19451 15.33309,4.01305 4.16463,1.66896 11.29693,3.15167 13.59281,2.82576 3.62476,-0.51455 3.64723,-3.51736 0.0323,-4.31134 -3.8162,-0.83818 -25.97642,-23.06913 -25.39082,-25.47186 0.12885,-0.52863 -1.02882,-1.70726 -2.57258,-2.61918 -1.54377,-0.91193 -3.29687,-2.95626 -3.89578,-4.54297 -0.59892,-1.58671 -2.47591,-3.67435 -4.17109,-4.63919 -1.69519,-0.96485 -3.085,-2.36749 -3.08848,-3.11698 -0.003,-0.74949 -3.04382,-4.18376 -6.75632,-7.63173 -3.7125,-3.44796 -12.49339,-11.94724 -19.51308,-18.88729 C 135.71723,163.67822 129.52973,158 128.98692,158 128.44411,158 128,157.35052 128,156.5567 c 0,-0.79381 -0.80803,-2.03131 -1.79563,-2.75 -0.9876,-0.71868 -2.58371,-2.9942 -3.54692,-5.0567 -0.96321,-2.0625 -2.41642,-3.75 -3.22937,-3.75 -0.85066,0 -1.73941,-1.30666 -2.09372,-3.07822 -0.39747,-1.98732 -1.45815,-3.39855 -2.99294,-3.98207 -1.30751,-0.49711 -2.78561,-1.97782 -3.28467,-3.29045 -0.49907,-1.31264 -1.9535,-3.23354 -3.23207,-4.26867 -1.27857,-1.03513 -4.87354,-5.03173 -7.988809,-8.88132 C 96.7206,117.64967 88.803252,108.81799 82.241764,101.8733 75.680276,94.928617 69.239239,87.728617 67.92835,85.873302 66.61746,84.017986 61.934808,78.088467 57.522457,72.696594 40.594954,52.011263 37.016796,47.473868 37.008535,46.683278 c -0.0047,-0.449197 -1.022165,-2.249197 -2.261046,-4 C 31.408992,37.965271 30.112614,35.829222 28.567214,32.5 27.801296,30.85 26.010342,28.409059 24.587318,27.075686 21.668726,24.340968 21.271662,22.21672 23.51796,21.354734 c 2.577031,-0.988899 7.492446,1.754267 9.022556,5.035255 2.514602,5.392017 5.376571,9.624098 9.080391,13.427453 1.972402,2.025407 4.675785,5.707558 6.007519,8.182558 5.025976,9.340671 7.861086,13.702624 13.284763,20.439251 3.072746,3.816588 6.036811,7.710133 6.586811,8.652322 0.836487,1.432962 12.761474,15.424548 20,23.465997 1.1,1.22202 5.81037,6.54648 10.467488,11.83214 4.657122,5.28566 8.813582,9.61029 9.236582,9.61029 0.423,0 1.38262,1.4625 2.13248,3.25 1.85505,4.42199 10.06576,14.14712 22.65794,26.83709 5.77803,5.8229 13.98231,14.1479 18.23172,18.5 4.24942,4.3521 12.66141,12.79457 18.69331,18.76103 6.0319,5.96647 11.10511,11.81647 11.27379,13 0.20192,1.41679 0.90704,2.05092 2.06412,1.85634 1.12215,-0.18871 2.11082,0.6339 2.735,2.27562 0.53765,1.41414 1.65931,2.83278 2.49256,3.15253 0.83326,0.31975 1.51501,1.38147 1.51501,2.35937 0,0.9779 1.01644,2.444 2.25877,3.258 1.24232,0.814 2.92982,2.77825 3.75,4.36501 1.62911,3.15175 4.87638,6.29921 6.55317,6.35174 0.58407,0.0183 2.05455,1.37584 3.26773,3.01676 1.21318,1.64092 3.54781,3.67747 5.18806,4.52568 2.27505,1.17647 2.98227,2.23353 2.98227,4.45749 0,3.52849 1.27217,4.49323 4,3.03334 1.12273,-0.60087 2.59399,-0.75093 3.26947,-0.33346 0.67547,0.41747 2.01037,0.77578 2.96644,0.79625 2.78733,0.0597 2.30994,1.89106 -0.99744,3.82645 -2.63426,1.5415 -4.07596,1.66282 -10.41209,0.87619 -4.04495,-0.50219 -10.27314,-2.05638 -13.84042,-3.45376 C 190.22039,239.66971 185,238.48948 185,239.77578 c 0,2.01443 33.3364,17.43289 40.26307,18.62213 1.51969,0.26091 4.145,1.85631 5.83402,3.54533 1.68902,1.68902 3.46056,2.83015 3.93675,2.53584 0.4762,-0.2943 1.33839,0.34792 1.91599,1.42717 2.15848,4.03316 1.50612,3.99995 -6.97334,-0.35504 z M 223.5,248 c 0.33992,-0.55 0.81648,-1 1.05902,-1 0.24254,0 0.44098,0.45 0.44098,1 0,0.55 -0.47656,1 -1.05902,1 -0.58246,0 -0.7809,-0.45 -0.44098,-1 z m 27.79171,-1.97228 C 250.3368,244.91247 249.00708,244 248.33678,244 c -1.89487,0 -2.63383,-1.93715 -1.33565,-3.50136 0.69701,-0.83984 2.25426,-1.22405 3.83609,-0.94645 1.46453,0.25701 4.46278,0.62286 6.66278,0.81299 2.96937,0.25663 4.09422,0.83386 4.36568,2.24026 0.20113,1.04201 0.87613,2.22517 1.5,2.62925 0.62388,0.40408 -0.58276,0.74158 -2.68142,0.75 -2.09866,0.008 -4.67988,0.47778 -5.73605,1.04303 -1.51056,0.80842 -2.29078,0.59504 -3.6565,-1 z M 120.43237,234.59942 C 116.06956,232.33454 110.475,229.1409 108,227.50244 c -6.9833,-4.62296 -10.006671,-5.74179 -11.705616,-4.33179 -1.155151,0.95869 -1.896314,0.62158 -3.827505,-1.74087 -1.851499,-2.26497 -2.403114,-2.53268 -2.430916,-1.17978 -0.04057,1.97404 -0.849738,2.16985 -3.035963,0.73469 -1.317151,-0.86466 -1.320567,-1.10003 -0.02802,-1.9309 1.550252,-0.99652 1.659787,-0.91707 -3.484341,-2.52715 -1.170645,-0.3664 -1.372101,0.0855 -0.891592,2 0.341426,1.36035 0.368164,2.47336 0.05942,2.47336 -1.120225,0 -5.655317,-2.33623 -5.649884,-2.91052 C 77.025415,215.99255 79.256294,210 80.017095,210 c 0.507699,0 3.579714,1.35 6.826701,3 3.246988,1.65 6.414722,3 7.03941,3 0.624687,0 4.97578,2.1375 9.669094,4.75 4.69331,2.6125 10.65154,5.89118 13.2405,7.28595 2.58896,1.39477 7.09027,4.14941 10.00291,6.12141 7.87072,5.32888 3.61901,5.62424 -6.36334,0.44206 z m 27.25723,-3.75325 C 145.43684,229.58546 145.54154,228 147.87756,228 c 2.49506,0 4.71064,2.56031 2.83756,3.27908 -0.73475,0.28195 -2.09624,0.0871 -3.02552,-0.43291 z M 826.5,21 c -0.81551,-1.319515 0.38021,-3.192069 1.5691,-2.457295 C 829.28371,19.293379 829.27582,22 828.05902,22 827.54148,22 826.83992,21.55 826.5,21 Z" id="path12"/>
</svg>
