<?xml version="1.0" encoding="utf-8"?>

<svg xmlns="http://www.w3.org/2000/svg" version="1.1" viewBox="0 0 1117 556">











	<path d="m 959.30469,28.507812 c -1.80854,-0.0136 -3.80339,0.759438 -5.55469,2.28125 -0.9625,0.836374 -1.75,1.199932 -1.75,0.808594 0,-0.391338 -1.2375,-0.06441 -2.75,0.726563 -1.5125,0.790976 -8.375,4.124903 -15.25,7.408203 -26.59608,12.701515 -41.42468,20.320702 -46.54297,23.912109 -1.62655,1.141322 -6.33203,3.7509 -10.45703,5.800781 -4.125,2.049882 -8.93279,4.813165 -10.68359,6.140626 C 864.56561,76.913398 862.4887,78 861.70117,78 c -0.78752,0 -2.50473,0.843526 -3.8164,1.875 -3.64291,2.86471 -15.9642,9.19473 -16.8418,8.652344 C 840.61584,88.263361 839.47201,88.925939 838.5,90 c -0.97201,1.074061 -2.2081,1.68015 -2.74609,1.347656 -0.53799,-0.332493 -1.26424,-0.183117 -1.61524,0.332032 -0.35101,0.515149 -4.01367,2.6534 -8.13867,4.751953 -4.125,2.098553 -10.425,5.446879 -14,7.439449 -6.06324,3.37942 -10.6957,5.42725 -15.5,6.85352 -1.1,0.32656 -2.359,1.19826 -2.79883,1.93555 -0.43983,0.73729 -1.68354,1.33984 -2.76367,1.33984 -1.08013,0 -2.74613,0.41226 -3.70117,0.91602 -0.95504,0.50377 -3.46456,1.66949 -5.57617,2.58984 -2.1116,0.92034 -4.6991,2.53308 -5.75,3.58398 -1.05089,1.05089 -2.57258,1.91016 -3.38282,1.91016 -0.81024,0 -3.39774,1.1325 -5.75,2.51562 -2.35226,1.38313 -7.20234,3.88151 -10.77734,5.55274 -13.86837,6.48314 -17.2322,8.17842 -24,12.10156 -5.36447,3.10966 -8.03143,3.82808 -9.89844,2.66211 -1.61734,-1.01004 -3.64113,-0.32638 -13.2832,4.48828 -6.87051,3.43072 -12.6709,5.67969 -14.64648,5.67969 -1.79902,0 -4.65785,0.71689 -6.35352,1.59375 -4.20688,2.17546 -5.02917,0.69752 -4.38672,-7.88672 0.44388,-5.93097 -0.21791,-11.74137 -2.9707,-26.11133 -1.16148,-6.06312 -4.5809,-8.58744 -7.24219,-5.3457 C 670.69692,121.32186 667,129.5493 667,132.08984 c 0,1.53563 -0.45,3.07024 -1,3.41016 -0.55,0.33992 -1.00928,2.05355 -1.02148,3.80859 -0.0122,1.75504 -0.90298,4.31641 -1.97852,5.69141 -1.07554,1.375 -1.96562,3.175 -1.97852,4 -0.018,1.15213 -1.35779,1.50956 -5.77343,1.53906 -3.16187,0.0211 -6.64805,0.43072 -7.74805,0.91211 -1.1,0.48138 -2.225,0.94254 -2.5,1.02344 -0.275,0.0809 -2.24339,0.90686 -4.37305,1.83594 C 638.49728,155.23963 636.50905,156 636.20703,156 634.83388,156 632,152.50475 632,150.81055 c 0,-1.03411 -0.69455,-2.93952 -1.54297,-4.23438 -0.84842,-1.29485 -1.73801,-4.76655 -1.97656,-7.71484 -0.81299,-10.04768 -2.50771,-16.28413 -5.94336,-21.86133 -1.18583,-1.925 -3.65916,-6.425 -5.49609,-10 -7.87336,-15.322946 -9.32733,-17.678123 -12.95899,-21 -2.10451,-1.925 -4.65823,-4.85 -5.67578,-6.5 -3.25527,-5.27851 -12.0229,-15.822843 -18.09375,-21.759766 -5.88391,-5.75409 -5.89503,-5.759859 -10.68359,-5.103515 -3.34433,0.458392 -5.50807,1.443763 -7.15625,3.259765 -1.29926,1.431545 -5.31244,5.718769 -8.91797,9.527344 C 549.94916,69.232404 547,72.993973 547,73.78125 c 0,0.787277 -1.32037,3.097909 -2.93359,5.134766 -1.61322,2.036857 -3.23817,4.919435 -3.61133,6.40625 -0.37317,1.486815 -1.1903,3.035931 -1.81641,3.441406 -0.62612,0.405475 -2.93769,4.336328 -5.13672,8.736328 -2.19903,4.4 -5.22626,9.575 -6.72656,11.5 -7.6116,9.76629 -9.6129,12.30544 -13.56055,17.19336 -2.35737,2.91886 -5.43895,6.65664 -6.84765,8.30664 -1.40869,1.65 -3.90383,5.12588 -5.54297,7.72461 -3.08599,4.89258 -12.97409,15.07342 -18.4707,19.01758 -1.7302,1.24153 -7.3552,5.67241 -12.5,9.8457 -10.14125,8.22622 -22.30081,15.21852 -33.35352,19.17969 -7.95201,2.84992 -18.15503,7.60311 -20.45312,9.52734 -0.85037,0.71202 -3.51496,2.86006 -5.91993,4.77344 C 404.88369,208.73985 398,217.15441 398,219.39258 c 0,3.17238 3.89741,1.62147 7.37695,-2.93555 1.90757,-2.49826 5.67495,-6.29899 8.37305,-8.44726 5.35966,-4.26741 20.06904,-11.98833 22.94727,-12.04493 0.99113,-0.0195 2.92773,-0.67882 4.30273,-1.46484 1.375,-0.78602 3.4,-1.45719 4.5,-1.49219 1.1,-0.035 4.69033,-1.8507 7.97852,-4.03515 3.2882,-2.18445 6.37711,-3.97266 6.86523,-3.97266 1.69984,0 16.39414,-11.267 28.44727,-21.8125 6.19393,-5.41918 17.04067,-17.81517 20.72656,-23.6875 2.10384,-3.35182 11.96903,-14.71819 20.77539,-23.93555 3.96668,-4.15181 7.20194,-8.96609 10.25781,-15.26367 2.45494,-5.059174 5.28983,-9.784174 6.29883,-10.499999 1.00899,-0.715825 2.01777,-1.7745 2.24219,-2.353515 1.29142,-3.331963 7.12196,-10.640142 12.125,-15.197266 7.4227,-6.761116 10.16833,-6.95462 15.20508,-1.070312 1.96784,2.298999 3.57812,4.586519 3.57812,5.083984 0,0.497466 3.375,4.246994 7.5,8.332031 4.125,4.085038 7.5,7.657211 7.5,7.9375 0,0.280289 1.10701,2.187573 2.45898,4.238281 1.35196,2.050708 3.60876,6.796396 5.01563,10.544926 1.40687,3.74852 4.68735,9.66752 7.29101,13.15429 4.0592,5.43598 7.73644,11.03918 9.04297,13.7793 0.7099,1.48883 -2.04892,0.70545 -4.60937,-1.30859 -1.6223,-1.27611 -3.78002,-1.95809 -5.67383,-1.79493 -1.68029,0.14477 -3.66495,-0.1144 -4.41211,-0.57617 -0.74716,-0.46177 -3.43719,-1.36979 -5.97656,-2.01758 -3.96625,-1.0118 -5.30383,-0.91809 -9.48828,0.67188 -2.67907,1.01797 -7.57315,3.74594 -10.87696,6.0625 -7.34173,5.14786 -24.26512,16.30909 -29.89062,19.71289 -2.27247,1.375 -6.43726,3.9248 -9.25586,5.66602 -2.8186,1.74122 -7.15,4.4012 -9.625,5.9121 -2.475,1.51092 -7.8008,4.96239 -11.83594,7.66797 -4.03513,2.70558 -8.76013,5.39616 -10.5,5.98047 -1.73986,0.5843 -5.03946,2.57249 -7.33203,4.41797 C 497.03947,186.49 494.6339,188 493.98633,188 c -1.35757,0 -6.66811,2.81497 -9.24414,4.90039 -0.96628,0.78225 -2.57896,1.91289 -3.58399,2.51172 -7.87639,4.69302 -25.31093,17.4616 -27.6582,20.25586 -1.30617,1.55491 -24.67127,17.25638 -30.57812,20.54883 -5.61713,3.13096 -7.20568,3.94885 -12.92188,6.65039 -13.5974,6.42628 -26.67411,15.44292 -37.64258,25.95508 C 365.37727,275.51204 363.9231,282 369.4043,282 c 2.63332,0 4.71368,-2.10849 6.69922,-6.78906 0.94602,-2.23007 3.0871,-4.24538 6.64257,-6.25586 2.88484,-1.63126 5.80527,-3.86414 6.49024,-4.96094 0.68496,-1.0968 2.29603,-1.99414 3.58008,-1.99414 1.28404,0 5.33665,-1.82425 9.00781,-4.05273 3.67116,-2.22849 7.35078,-4.43793 8.17578,-4.91211 C 412.73174,251.46505 422.68577,247 423.45508,247 c 0.41578,0 2.09246,-1.125 3.72656,-2.5 1.63409,-1.375 3.61172,-2.5 4.39453,-2.5 0.7828,0 1.42383,-0.45 1.42383,-1 0,-0.55 0.65179,-1 1.44922,-1 0.79743,0 3.38493,-1.29986 5.75,-2.88867 2.36507,-1.58882 6.10078,-3.89289 8.30078,-5.1211 2.2,-1.22821 5.35,-3.31745 7,-4.64062 1.65,-1.32317 5.475,-4.4116 8.5,-6.86328 6.72036,-5.44666 19.30892,-14.30144 23.83789,-16.76758 2.51304,-1.36842 3.67088,-1.54133 4.68555,-0.69922 1.90524,1.5812 5.18811,-0.36053 6.74218,-3.99023 2.3042,-5.38172 22.05802,-18.0293 28.16016,-18.0293 1.90088,0 3.7343,-0.45 4.07422,-1 0.33992,-0.55 1.56206,-1 2.71484,-1 1.99442,0 2.01188,0.0921 0.37891,1.89648 -1.21486,1.3424 -1.36139,2.01496 -0.50391,2.30079 1.23014,0.41005 -0.71205,2.54628 -13.39453,14.74023 -4.37561,4.20707 -6.69531,7.21844 -6.69531,8.69141 0,3.25623 1.23591,3.56989 5.61719,1.42773 2.13515,-1.04409 4.02176,-1.51802 4.1914,-1.05273 0.16964,0.46529 -0.54807,2.56828 -1.59375,4.67187 -2.93529,5.90488 -4.69308,13.24441 -3.46679,14.4707 1.84555,1.84555 5.25195,-0.8426 5.25195,-4.14453 0,-4.35302 3.53634,-12.98963 7.07617,-17.28125 4.86545,-5.89877 9.58987,-7.82598 18.70899,-7.63476 8.27143,0.17344 11.80197,-1.17499 21.89843,-8.35547 4.92653,-3.50369 11.13647,-4.9323 14.23243,-3.27539 1.17722,0.63003 2.91434,2.69836 3.86132,4.5957 1.47132,2.9479 2.23178,3.44922 5.22266,3.44922 4.23816,0 11,3.97037 11,6.45898 0,2.26655 -1.46666,3.43094 -6.5,5.16211 -2.2,0.75667 -4.54535,2.10284 -5.21094,2.99024 -0.6656,0.88739 -2.6906,2.2013 -4.5,2.91992 -1.80941,0.71861 -6.12404,3.25454 -9.58789,5.63672 -3.46385,2.38219 -6.52149,4.33203 -6.79687,4.33203 -0.27538,0 -4.34785,2.3625 -9.04883,5.25 -4.70098,2.8875 -9.74138,5.97486 -11.20117,6.86133 -1.97726,1.2007 -2.59995,2.32541 -2.44336,4.41015 0.46334,6.16869 1.46467,5.94051 17.78906,-4.04882 4.95,-3.02904 10.53271,-6.2094 12.40625,-7.06836 1.87354,-0.85896 5.69221,-3.10075 8.48633,-4.98242 2.79412,-1.88167 5.48296,-3.42188 5.97461,-3.42188 0.49166,0 3.19798,-1.64185 6.01367,-3.64844 7.98489,-5.6904 2.3863,-0.0442 -6.88086,6.93946 -12.11867,9.13254 -15.70059,12.00247 -17.94727,14.3789 -1.12859,1.19377 -8.57773,7.62279 -16.55273,14.28516 -16.64999,13.90952 -23.68068,20.04518 -28.8457,25.17187 -2.00943,1.99451 -7.01964,6.04451 -11.13282,9 -4.11319,2.95548 -8.83819,6.36661 -10.5,7.58203 -1.66182,1.21542 -4.82148,3.18973 -7.02148,4.38672 -4.29323,2.33588 -7.69771,4.94126 -15.22852,11.6543 -2.62226,2.3375 -5.17652,4.25 -5.67773,4.25 -0.5012,0 -3.29707,1.8 -6.21094,4 -2.91388,2.2 -5.71053,4 -6.21679,4 -0.50625,0 -1.44409,0.6313 -2.08399,1.40234 -1.20857,1.45623 -5.97809,3.03559 -6.77148,2.24219 -0.24949,-0.24949 0.3653,-1.43431 1.36718,-2.63281 1.00189,-1.19849 2.83349,-3.37941 4.07032,-4.8457 C 468.16871,313.29627 468.57032,312 467.03516,312 465.45042,312 450,326.07039 450,327.51367 c 0,0.73216 -1.6875,1.87297 -3.75,2.53516 -2.0625,0.66218 -4.49317,1.8519 -5.40039,2.64258 -0.90722,0.79068 -3.06026,1.47639 -4.78516,1.52539 -3.46309,0.0985 -5.04019,1.56142 -3.02539,2.80664 0.97651,0.60351 0.58018,1.5609 -1.61133,3.88281 -1.59908,1.69422 -2.91296,3.71494 -2.91796,4.49219 -0.0105,1.49178 -11.39822,9.60156 -13.48243,9.60156 -1.47147,0 -7.25872,3.12737 -8.19726,4.42969 -0.36879,0.51175 -3.40629,1.12923 -6.75,1.37109 -5.04927,0.36523 -6.08008,0.17376 -6.08008,-1.13281 0,-2.24979 2.23362,-7.02644 3.72461,-7.96485 0.69674,-0.43851 1.5445,-2.53809 1.88477,-4.66601 0.48737,-3.04783 1.77279,-4.89526 6.05273,-8.70313 8.71056,-7.7498 10.88427,-9.62753 15.43359,-13.33398 2.36276,-1.925 5.3431,-4.58873 6.62305,-5.91992 1.27995,-1.33119 4.00459,-3.20294 6.05469,-4.1582 2.0501,-0.95526 5.2777,-3.23958 7.17383,-5.07813 C 445.41775,305.50901 453.14431,300 454.75391,300 c 0.69289,0 2.2077,-1.09031 3.36718,-2.42383 1.15948,-1.33352 2.71326,-2.19211 3.45313,-1.9082 0.73987,0.28392 3.90635,-0.65653 7.03711,-2.08985 6.35208,-2.90807 8.04129,-2.63349 4.33789,0.70704 -4.59731,4.14684 -14.43793,12.27065 -18.44922,15.23046 -4.4825,3.30749 -6.19678,4.66027 -11.38281,8.98438 -1.9789,1.65 -4.05231,3.32859 -4.60742,3.73047 -0.5551,0.40187 -4.9424,3.91334 -9.75,7.80273 -4.80761,3.88939 -10.84484,8.00219 -13.41407,9.13868 -2.56922,1.13648 -6.95964,4.26114 -9.75781,6.94531 -2.79817,2.68418 -5.42539,4.8803 -5.83789,4.88086 -0.4125,5.7e-4 -0.75,0.67695 -0.75,1.50195 0,2.27219 0.76526,1.89544 6.33398,-3.11133 2.8203,-2.53569 8.00432,-5.96804 11.51954,-7.6289 3.51523,-1.66087 8.48152,-5.09969 11.0371,-7.64063 2.5556,-2.54095 8.15213,-7.31914 12.4375,-10.61914 4.28538,-3.3 9.45311,-7.46293 11.48243,-9.25 2.02932,-1.78707 4.01569,-3.24957 4.41406,-3.25 0.39838,-4.3e-4 3.77338,-2.61354 7.5,-5.80859 3.72663,-3.19506 10.41987,-8.57996 14.875,-11.9668 4.45513,-3.38684 8.67334,-6.8483 9.37305,-7.69141 C 489.60076,283.57148 492,283.55157 492,285.5 c 0,2.28511 0.97496,1.84211 4.95117,-2.25 5.80374,-5.97291 13.31421,-12.32212 21.58789,-18.25 4.22207,-3.025 9.9901,-7.4584 12.81836,-9.85156 2.82827,-2.39317 8.40508,-5.91585 12.39258,-7.82813 3.9875,-1.91227 7.25,-3.88508 7.25,-4.38476 0,-0.49969 -1.6875,-1.62206 -3.75,-2.49414 -3.4889,-1.4752 -3.99026,-1.45899 -7.20312,0.23632 -1.89932,1.0022 -4.59931,2.77985 -6,3.94922 -1.40068,1.16937 -4.20401,2.96937 -6.23047,4 -7.88117,4.00824 -16.45423,9.31474 -18.24805,11.29688 -1.03351,1.14202 -2.47749,2.07617 -3.20898,2.07617 -0.73151,0 -3.49848,1.33505 -6.1504,2.9668 -2.65192,1.63174 -7.37526,4.13569 -10.49609,5.56445 -3.12083,1.42876 -5.91644,2.99103 -6.21289,3.4707 -0.29645,0.47967 -1.76796,1.50151 -3.26953,2.27149 -5.8187,2.98374 -10.19643,5.71263 -15.85938,9.88672 -6.18744,4.56068 -8.09679,5.82398 -12.66992,8.3789 -1.53929,0.85998 -7.61429,4.92614 -13.5,9.03711 -16.61861,11.60758 -20.13325,14.03346 -28.48633,19.66992 C 402.55862,328.07493 389.34008,337.72388 373,350.04297 359.70191,360.06864 356.96,362 356.02734,362 c -1.43823,0 -18.87045,18.14259 -20.55859,21.39648 -2.00087,3.85668 -1.91376,13.99436 0.14648,17.13868 0.88826,1.35565 2.49351,2.46484 3.56641,2.46484 1.0729,0 2.87421,0.49502 4.00391,1.09961 1.1297,0.6046 6.01826,1.26967 10.86328,1.47851 4.84502,0.20885 10.52924,0.76296 12.63086,1.23047 5.25099,1.16808 24.15348,0.63799 27.80469,-0.77929 1.64158,-0.63721 7.87171,-1.36177 13.84374,-1.60938 8.87759,-0.36807 11.81609,-0.90357 16.11133,-2.93554 2.88945,-1.36693 5.65932,-2.48629 6.15625,-2.48829 1.8338,-0.008 20.45614,-7.73035 22.15039,-9.18554 0.96418,-0.82813 3.84001,-2.07004 6.39063,-2.75782 2.55061,-0.68778 6.7626,-3.00454 9.35937,-5.15039 2.59677,-2.14585 5.257,-3.90234 5.91211,-3.90234 0.65512,0 1.75391,-0.5625 2.44141,-1.25 0.6875,-0.6875 1.56617,-1.26792 1.95117,-1.29102 2.1614,-0.12942 7.34742,-3.97502 11.95508,-8.86132 2.89109,-3.06591 7.39109,-7.04809 10,-8.84961 2.60892,-1.80153 7.44414,-5.80961 10.74414,-8.90821 3.3,-3.09859 8.13551,-7.39331 10.74609,-9.54296 2.61057,-2.14966 6.83666,-6.35719 9.39063,-9.35157 2.55397,-2.99439 7.61845,-7.43119 11.2539,-9.85937 3.63546,-2.42818 6.75414,-4.7769 6.93165,-5.21875 0.17751,-0.44185 2.54885,-2.43838 5.26953,-4.43555 2.72068,-1.99716 7.5755,-6.17344 10.78711,-9.28125 3.21162,-3.10781 7.46524,-7.00039 9.45312,-8.65039 1.98788,-1.65 7.41459,-7.5 12.05859,-13 4.64401,-5.5 12.34727,-13.9661 17.11915,-18.8125 l 8.67578,-8.81055 1.85937,-11.40234 c 1.02292,-6.27075 2.61746,-12.55623 3.54297,-13.96875 1.89048,-2.88523 2.28307,-2.80276 2.91797,0.60937 0.24411,1.31192 1.59765,3.39146 3.00781,4.6211 2.64655,2.30772 2.8453,3.36021 2.48828,13.20508 -0.20411,5.6283 1.56301,8.54665 4.49414,7.42187 0.71591,-0.27472 1.59702,-0.0239 1.95703,0.5586 0.40741,0.6592 1.66783,0.11874 3.33985,-1.43165 1.4775,-1.37002 2.97831,-2.49023 3.33398,-2.49023 0.35567,0 0.94419,1.98794 1.3086,4.41797 0.3644,2.43003 1.33506,4.977 2.1582,5.66015 2.01053,1.6686 8.11861,1.34157 11.07227,-0.59374 1.31524,-0.86178 2.7983,-1.31595 3.29687,-1.00782 0.84059,0.51951 0.63109,8.54683 -0.4707,18.02344 -0.25578,2.2 -0.74285,9.625 -1.08203,16.5 -1.17074,23.73078 -1.09788,24.72926 1.89257,26.0918 1.81878,0.8287 2.23824,1.71689 1.99805,4.22851 -0.16723,1.74872 -0.34348,11.05469 -0.39258,20.67969 -0.0662,12.97938 -0.4623,18.29387 -1.52929,20.57227 -1.6761,3.57906 -1.64425,5.93074 0.28711,21.42773 1.17861,9.45701 1.81406,11.82281 3.57617,13.31641 1.17853,0.99895 2.92628,1.61197 3.88476,1.36132 2.36494,-0.61845 5.51064,1.74556 6.25196,4.69922 0.38233,1.52335 1.74705,2.82051 3.67382,3.49219 2.92584,1.01995 11.82491,9.6401 11.90821,11.53516 0.0218,0.49685 2.17656,3.28288 4.78906,6.19336 10.75842,11.98552 24.52193,32.46244 22.90625,34.07812 -0.56831,0.56832 0.286,1.6099 8.23242,10.05274 5.33386,5.66707 5.85303,6.61421 5.76953,10.5 -0.17529,8.16236 0.64269,17.28316 1.72657,19.27148 0.59963,1.1 1.14318,3.47752 1.20898,5.2832 0.0672,1.84438 1.05962,4.2828 2.26367,5.56446 1.17879,1.25477 2.14258,2.75573 2.14258,3.33593 0,0.58021 1.71547,3.25121 3.8125,5.93555 2.09702,2.68435 5.13452,7.0174 6.75,9.62891 1.61547,2.61152 3.45345,4.74902 4.08398,4.75 0.63052,9.9e-4 2.48074,1.52176 4.11133,3.3789 1.63059,1.85714 4.59612,3.91428 6.58985,4.57227 1.99373,0.65799 3.89848,1.63937 4.23242,2.17969 1.17945,1.90839 3.93322,0.30512 4.9707,-2.89258 0.57791,-1.78121 1.59041,-3.77791 2.25,-4.4375 2.03601,-2.03601 1.37316,-3.63666 -3.54297,-8.55469 C 763.7226,521.70639 759.9867,519 757.49609,519 c -2.82244,0 -11.03192,-9.02379 -12.54101,-13.78516 -0.64757,-2.04314 -1.81347,-4.72734 -2.58985,-5.96484 -0.77637,-1.2375 -1.10534,-2.25 -0.73242,-2.25 0.37293,0 -0.10806,-0.86857 -1.06836,-1.92969 -1.37527,-1.51966 -1.86306,-4.44422 -2.29297,-13.77539 l -0.54492,-11.8457 -3.49218,-2.47461 C 729.28494,463.46809 725,458.82684 725,456.97266 c 0,-0.86975 -1.4625,-3.77883 -3.25,-6.46485 -1.7875,-2.68602 -4.37635,-6.79469 -5.75195,-9.13086 -1.3756,-2.33617 -3.68661,-5.51451 -5.13672,-7.0625 -1.45012,-1.54799 -2.9481,-3.84266 -3.32813,-5.09961 -0.38002,-1.25696 -4.75008,-6.43196 -9.71289,-11.5 -4.9628,-5.06805 -9.8319,-10.79485 -10.82031,-12.72656 -0.9884,-1.9317 -4.65539,-5.94017 -8.14844,-8.90625 -11.3105,-9.60418 -11.4089,-9.78418 -11.12695,-20.37695 0.13476,-5.06306 0.43627,-11.23008 0.66992,-13.70508 1.53821,-16.29396 1.89472,-23.12564 1.88672,-36 -0.005,-7.975 -0.16241,-17.65713 -0.34961,-21.51562 -0.1872,-3.85849 0.006,-7.57327 0.42774,-8.25586 0.42187,-0.68259 0.95016,-11.83428 1.17382,-24.78125 0.22366,-12.94697 0.68255,-23.98869 1.02149,-24.53711 0.33894,-0.54838 2.94102,-0.82679 5.78125,-0.61914 l 5.16406,0.37695 4.85742,9.41601 c 2.67175,5.17882 5.50228,9.78472 6.28906,10.23633 0.78678,0.4516 2.72769,2.0266 4.31446,3.5 1.58677,1.47339 4.00883,3.46239 5.38281,4.41797 2.36777,1.64675 7.65625,11.22718 7.65625,13.8711 0,1.21024 3.48018,10.61875 6.75391,18.25976 0.9117,2.12796 3.13479,5.72796 4.9414,8 1.80662,2.27204 3.28992,4.65164 3.29492,5.28711 0.005,0.63546 1.47227,2.96413 3.25977,5.17578 3.71963,4.60225 16.63575,21.84369 24.76562,33.05859 3.03388,4.18513 7.08388,10.24656 9,13.47071 1.91614,3.22414 5.39122,7.55014 7.72071,9.61328 2.32949,2.06314 7.47374,7.52596 11.43359,12.13867 3.95985,4.61271 7.81666,8.7599 8.57031,9.2168 2.39555,1.45226 3.46425,5.94261 3.32032,13.94922 -0.0769,4.27814 0.51883,10.57814 1.32422,14 0.80539,3.42186 1.74482,8.22608 2.08593,10.67773 0.89677,6.44531 6.22424,20.95524 9.06055,24.67383 1.33773,1.75387 3.97447,4.82185 5.85742,6.81836 1.88296,1.99652 5.15321,6.14455 7.26758,9.2168 2.11437,3.07225 4.42911,5.81055 5.14453,6.08593 0.71541,0.27537 2.86296,2.5487 4.77344,5.05078 C 834.09824,497.418 838.86793,501 841.48828,501 842.80379,501 845,498.13577 845,496.41992 c 0,-0.39105 -4.3875,-5.10378 -9.75,-10.47265 -10.63274,-10.64538 -22.53726,-23.46051 -24.63086,-26.51563 -0.72792,-1.06221 -1.62805,-3.89188 -2,-6.28711 -0.37194,-2.39524 -1.29916,-5.55888 -2.06055,-7.03125 -0.7614,-1.47238 -1.62807,-5.4139 -1.92578,-8.75976 -0.29771,-3.34587 -1.20132,-7.83223 -2.00781,-9.96875 -1.87176,-4.95859 -4.17303,-17.16878 -3.38477,-17.95704 0.64227,-0.64227 15.76614,11.79948 24.17774,19.89063 7.1616,6.88878 10.35998,9.71286 16.08203,14.19531 8.08059,6.33003 10.61878,8.59879 17.88477,15.98633 6.99372,7.11072 16.12825,18.85192 22.71875,29.20312 1.87967,2.95227 10.12471,9.29688 12.08203,9.29688 0.46379,0 1.73592,-1.4625 2.82617,-3.25 2.8102,-4.60744 2.30196,-8.35955 -4.23828,-31.25 -0.62858,-2.2 -2.11746,-6.26332 -3.30664,-9.0293 -1.18918,-2.76598 -2.48619,-6.75881 -2.88282,-8.87304 -0.39663,-2.11422 -1.09176,-4.57592 -1.54492,-5.47071 -0.86011,-1.69836 -4.10148,-9.39655 -9.3164,-22.12695 -1.68978,-4.125 -4.955,-10.45354 -7.25586,-14.0625 -2.30087,-3.60895 -6.07791,-10.31974 -8.39453,-14.91406 -2.31663,-4.59433 -6.43113,-12.03971 -9.14258,-16.54492 C 846.21823,367.97331 844,363.99922 844,363.64648 c 0,-1.99389 -17.50528,-24.28101 -25.75586,-32.79101 l -5.47266,-5.64453 -0.4414,-7.85547 c -0.24267,-4.3205 -0.88171,-9.65547 -1.41992,-11.85547 -0.53821,-2.2 -1.1423,-5.35 -1.3418,-7 -0.19951,-1.65 -0.84963,-5.925 -1.44531,-9.5 -1.54423,-9.26781 -1.40275,-17.24694 0.3457,-19.55859 0.86662,-1.14578 1.4812,-4.20183 1.5,-7.45703 0.0197,-3.42048 0.73994,-6.83836 1.89844,-9 3.50348,-6.53713 1.20694,-27.36908 -3.66407,-33.23829 -0.92018,-1.10875 -2.25887,-1.24299 -5.94531,-0.59375 -2.61696,0.46089 -7.68281,1.30054 -11.25781,1.86524 -3.575,0.5647 -7.24306,1.25794 -8.15234,1.54101 -5.81536,1.81034 -28.96506,5.16771 -47.69336,6.91602 -8.9898,0.83921 -16.72912,1.7622 -17.19922,2.05273 C 716.71371,232.29455 715,228.60871 715,225.17188 c 0,-1.78213 -0.632,-3.2008 -1.58984,-3.56836 -2.48097,-0.95203 -3.41016,0.20059 -3.41016,4.23242 0,5.48852 -2.15043,7.85196 -8.25781,9.07422 -7.81851,1.56471 -23.30662,1.69607 -25.09375,0.21289 -1.18893,-0.98673 -1.40138,-3.26173 -1.06836,-11.42774 0.22869,-5.60769 0.42846,-11.09531 0.44336,-12.19531 0.0149,-1.1 0.44585,-3.35 0.95703,-5 0.51117,-1.65 1.17125,-8.12542 1.4668,-14.38867 0.29555,-6.26324 0.96807,-11.90675 1.49609,-12.54297 0.52803,-0.63622 0.77925,-3.13036 0.55859,-5.54102 -0.54472,-5.95106 0.10644,-6.53261 3.82227,-3.41601 5.14879,4.31847 17.53562,19.66624 18.1875,22.53515 0.75867,3.33894 3.93683,6.27883 5.95117,5.50586 0.84549,-0.32445 1.53711,-0.96386 1.53711,-1.42187 0,-0.458 -2.42974,-4.94291 -5.39844,-9.9668 -2.96871,-5.02389 -5.14903,-9.38416 -4.8457,-9.6875 1.14855,-1.14854 8.9393,0.83694 13.74414,3.50195 2.75,1.52531 7.61426,3.24611 10.80859,3.82422 7.05614,1.27703 7.12505,1.31804 8.66797,5.04297 1.92766,4.6538 8.55897,5.80773 12.32813,2.14453 1.52011,-1.47737 1.6191,-2.16388 0.625,-4.3457 -1.30069,-2.85472 -1.87223,-3.05888 -13.42969,-4.79297 -9.22813,-1.38459 -17.33911,-3.65553 -19.5,-5.46094 -0.825,-0.68928 -2.5125,-1.56233 -3.75,-1.93945 -1.2375,-0.37711 -2.25,-1.1062 -2.25,-1.61914 0,-1.2764 0.74668,-1.17468 3.8457,0.51953 1.45986,0.79809 8.89777,2.41025 16.5293,3.58203 7.63154,1.17177 14.83154,2.35494 16,2.63086 9.09789,2.14833 36.52138,0.3255 49.125,-3.26562 4.95,-1.4104 9.84684,-2.73715 10.88281,-2.94922 2.78233,-0.56955 10.48556,-3.40701 15.61719,-5.75195 2.475,-1.13097 5.33963,-2.20608 6.36523,-2.38868 1.02559,-0.1826 3.27559,-1.06397 5,-1.96093 18.79333,-9.77544 25.12378,-12.59178 29.88868,-13.29297 6.943,-1.02172 17.02787,-5.85961 23.39062,-11.22071 2.82926,-2.38386 8.67926,-7.31821 13,-10.96679 12.17432,-10.2804 19.28718,-18.97852 25.92188,-31.697268 2.89707,-5.553664 3.57644,-7.71907 2.80664,-8.939453 -1.69561,-2.688111 -3.30379,-2.541644 -4.42383,0.404297 -0.58497,1.538581 -3.60672,7.088404 -6.71484,12.332034 -4.51573,7.61834 -7.9708,11.76647 -17.19336,20.64843 -17.8597,17.20014 -27.95191,25.17544 -30.14454,23.82032 -2.21796,-1.37078 0.0549,-4.96019 4.97071,-7.84766 3.26014,-1.91495 26.98089,-21.05879 27.05859,-21.83789 0.23075,-2.31247 -3.86176,0.0957 -11.04492,6.5 -4.47246,3.9875 -10.21234,8.68669 -12.75586,10.44336 -6.57709,4.54244 -10.09239,7.39062 -13.13477,10.64062 -2.04094,2.18022 -4.36545,3.18221 -10.07226,4.33985 -4.08009,0.82765 -9.07411,1.84746 -11.09766,2.26758 -2.02356,0.42012 -4.27356,0.37205 -5,-0.10743 -1.61032,-1.06287 0.41281,-2.82915 7.26758,-6.34765 2.52328,-1.29518 6.57328,-3.8528 9,-5.68164 2.42672,-1.82883 5.53711,-4.093 6.91211,-5.03321 1.375,-0.94021 4.3,-3.06363 6.5,-4.71875 2.2,-1.65512 4.96227,-3.4399 6.13867,-3.96484 1.1764,-0.52493 3.6514,-2.23894 5.5,-3.80859 1.8486,-1.56966 5.84057,-4.52369 8.8711,-6.56641 5.63286,-3.79681 7.84982,-6.38202 8.53906,-9.96094 0.21417,-1.1121 0.51517,-2.07979 0.66992,-2.15039 0.15475,-0.0706 2.53125,-1.959158 5.28125,-4.19531 2.75,-2.236152 6.35,-4.923854 8,-5.972656 1.65,-1.048802 3.45,-2.399605 4,-3.003906 0.55,-0.604302 3.25,-2.862363 6,-5.015626 2.75,-2.153262 5.359,-4.476562 5.79883,-5.164062 0.43983,-0.6875 1.3185,-1.25 1.95117,-1.25 0.83946,0 0.82496,0.323482 -0.0508,1.199219 -1.61537,1.615366 -1.51433,4.293437 0.21484,5.728515 1.74457,1.447866 3.10136,0.101721 12.61719,-12.507812 3.76847,-4.993642 7.53165,-9.641505 8.36133,-10.330078 0.82968,-0.688573 2.88845,-3.579091 4.57617,-6.421875 1.68772,-2.842785 5.31123,-8.302736 8.05078,-12.134766 5.50002,-7.693332 5.94268,-9.570993 2.96485,-12.548828 -0.97962,-0.97962 -2.27305,-1.465988 -3.67969,-1.476563 z m -13.26367,14.847657 c 1.16722,0.08031 1.95898,0.419923 1.95898,1.046875 0,0.708528 -0.9,2.10217 -2,3.097656 -1.1,0.995486 -2,2.185916 -2,2.644531 C 944,53.17926 918.75487,80 915.89844,80 c -0.61057,0 -1.9908,1.118915 -3.06641,2.486328 C 910.83575,85.024193 896.6133,97 895.5957,97 c -0.30862,0 -4.08281,2.385492 -8.38867,5.30078 -4.30585,2.9153 -9.37632,5.8769 -11.26758,6.58203 -1.89126,0.70513 -4.11445,1.70507 -4.93945,2.22071 -0.825,0.51563 -3.075,1.61003 -5,2.43359 -4.38908,1.87775 -6.56875,2.91822 -21.93359,10.46289 -12.77405,6.2725 -25.51144,11.75128 -32.56641,14.00977 -2.2,0.70428 -8.05,3.03719 -13,5.18359 -5.40826,2.3451 -10.99541,4.03344 -14,4.22852 -2.75,0.17854 -7.80039,0.91766 -11.22266,1.64453 -10.24526,2.17604 -9.68558,-1.41468 0.71094,-4.5625 3.30658,-1.00115 6.01172,-2.19919 6.01172,-2.66211 0,-1.09198 -0.68349,-1.05784 -5.5,0.27929 -2.2,0.61075 -4,0.9928 -4,0.84766 0,-0.14515 -1.89535,0.70148 -4.21094,1.88281 -2.31559,1.18132 -4.82431,2.14844 -5.57617,2.14844 -1.79391,0 -19.92089,5.99676 -21.21289,7.01758 -0.55,0.43456 -3.69782,1.12315 -6.99414,1.53125 -5.42886,0.67211 -5.8663,0.59158 -4.66211,-0.85938 0.73121,-0.881 1.0702,-2.02142 0.75391,-2.5332 -0.71683,-1.15985 1.12602,-2.68442 4.40234,-3.64258 2.20291,-0.64424 8.80878,-3.69006 31.5,-14.52734 3.3,-1.57607 9.15,-4.26576 13,-5.97656 8.80836,-3.9141 20.18564,-9.7692 23.6543,-12.17188 1.4599,-1.01125 3.13732,-1.83789 3.72851,-1.83789 0.59119,0 5.4718,-2.23509 10.84571,-4.9668 5.37391,-2.73171 10.89648,-5.43659 12.27148,-6.01172 1.375,-0.57513 4.075,-2.00543 6,-3.17773 1.925,-1.172308 6.65,-3.676098 10.5,-5.564453 3.85,-1.888355 7.88304,-3.912605 8.96289,-4.498047 6.34213,-3.438384 13.90412,-7.497912 20.03711,-10.757812 3.85,-2.046412 9.38321,-5.140014 12.29492,-6.873047 2.9117,-1.733033 5.6117,-3.156363 6,-3.164063 0.38829,-0.0077 4.08008,-1.803946 8.20508,-3.990234 4.125,-2.186287 8.175,-4.235918 9,-4.556641 0.825,-0.320724 2.175,-0.986466 3,-1.478515 0.825,-0.492049 6.675,-3.520714 13,-6.730469 6.325,-3.209755 12.625,-6.468295 14,-7.240235 2.10696,-1.182871 5.09564,-1.768622 7.04102,-1.634765 z M 917.8418,66.214844 c -1.55996,-0.289903 -14.21332,5.902321 -19.75977,9.777344 C 893.2578,79.362633 878.51497,88.68253 875,90.583984 c -4.38734,2.373373 -7,4.465427 -7,5.605469 0,0.484108 0.8662,0.417592 1.92383,-0.148437 3.47126,-1.857758 17.51166,-10.496546 20.57617,-12.660157 1.65,-1.164935 4.08234,-2.454205 5.4043,-2.865234 1.32197,-0.41103 5.64686,-2.926587 9.61132,-5.589844 3.96447,-2.663256 8.39463,-5.383766 9.84571,-6.044922 C 916.8124,68.219704 918,67.085611 918,66.361328 c 0,-0.07955 -0.0542,-0.127157 -0.1582,-0.146484 z m -52.15821,30.8125 c -0.9992,-0.0148 -3.27058,1.080704 -5.04687,2.435547 -1.77629,1.354839 -6.35908,4.120939 -10.1836,6.146489 -12.31728,6.52352 -23.06787,11.88167 -24.52539,12.22265 -0.78097,0.1827 -1.99559,0.81059 -2.69921,1.39453 C 821.21259,120.89964 804.7284,129 803.33984,129 c -0.68757,0 -2.79499,1.0125 -4.68164,2.25 -1.88665,1.2375 -4.86097,3.03286 -6.60937,3.99023 -1.74841,0.95737 -2.92697,2.14841 -2.61914,2.64649 0.51927,0.8402 8.04532,-2.38375 20.07031,-8.59766 2.75,-1.42107 11.075,-5.71645 18.5,-9.54687 7.425,-3.83042 17.37887,-9.16488 22.11914,-11.85352 4.74027,-2.68863 9.01527,-4.90121 9.5,-4.91601 0.48473,-0.0148 2.45586,-1.35225 4.38086,-2.97266 2.67186,-2.249092 3.07045,-2.952116 1.68359,-2.972656 z m 38.26563,7.087886 c -0.77245,-0.0152 -1.12152,0.9919 -0.53906,2.50977 0.50024,1.30358 0.93264,1.43259 1.82226,0.54297 0.88964,-0.88963 0.88628,-1.44966 -0.0156,-2.35156 -0.47735,-0.47735 -0.91647,-0.69428 -1.26758,-0.70118 z m -13.57031,0.0801 c 0.37484,0.0717 0.20172,0.69295 -0.0859,1.79297 -0.47374,1.81161 -3.73231,4.56492 -14.4668,12.23047 -2.09457,1.49573 -5.0488,3.41876 -6.5664,4.27148 -1.51761,0.85272 -4.78477,3.09271 -7.25977,4.97852 -2.475,1.88581 -6.84865,4.54532 -9.71875,5.91016 -2.8701,1.36484 -7.26568,3.88997 -9.76758,5.61132 -2.50191,1.72136 -5.32826,3.00048 -6.28125,2.84375 -0.953,-0.15674 -2.34724,0.10095 -3.09961,0.57227 -1.90179,1.19139 -7.70336,2.54983 -13.63281,3.19141 -6.33973,0.68596 -7.5,1.06969 -7.5,2.48046 0,0.75774 1.25918,0.93959 3.75,0.54297 6.90088,-1.09885 9.20953,-1.12834 9.33594,-0.12109 0.43475,3.46409 -13.1168,7.79653 -28.29883,9.04688 -5.10741,0.42063 -9.96211,0.85261 -10.78711,0.96093 -0.825,0.10832 -5.2125,0.54757 -9.75,0.97461 -4.5375,0.42704 -8.25,1.13228 -8.25,1.56836 0,0.76521 9.94225,0.54696 24.5,-0.53711 6.4213,-0.47818 6.83689,-0.39385 5.02539,1.00781 -3.70905,2.8699 -23.35475,7.43525 -38.45508,8.9375 C 752.48532,171.11408 749,172.05875 749,173.1875 c 0,0.59821 1.04657,0.76712 2.5,0.40234 4.0453,-1.01531 2.86251,1.21533 -1.25,2.35743 -5.05358,1.40345 -5.3573,1.35588 -5.95703,-0.9375 -0.3903,-1.49251 -1.30483,-1.95994 -3.65625,-1.86524 -7.86594,0.31683 -20.30215,-3.99842 -17.91016,-6.21484 C 723.84274,165.89544 733.48805,164 737.63281,164 c 2.39374,0 3.3937,-0.40335 3.09766,-1.25 -0.24039,-0.6875 -1.22567,-1.10664 -2.18945,-0.93164 -3.68894,0.66986 -0.75309,-2.34536 3.03515,-3.11719 2.15823,-0.43973 5.94883,-1.29131 8.42383,-1.89062 5.34911,-1.29525 11.17761,-2.30907 33,-5.7461 3.575,-0.56306 8.4125,-1.03382 10.75,-1.04492 3.03317,-0.0144 4.25,-0.43382 4.25,-1.4668 0,-1.72515 7.16126,-5.48725 19.5,-10.24414 4.95,-1.90834 11.29546,-4.75002 14.10156,-6.31445 2.80611,-1.56443 7.98111,-4.04035 11.5,-5.50195 3.5189,-1.4616 8.7325,-3.74458 11.58594,-5.07422 2.85345,-1.32964 5.43835,-2.41797 5.74414,-2.41797 0.93727,0 19.77287,-9.25026 24.86328,-12.21094 3.21517,-1.87001 4.60205,-2.68594 5.08399,-2.59375 z M 101.375,109.74414 c -13.529844,-0.0743 -21.405738,4.9819 -16.919922,11.82813 2.412722,3.68228 8.834258,9.71844 12.175781,11.44531 1.578152,0.81557 4.393561,2.49492 6.257811,3.73242 1.86425,1.2375 4.2055,2.25 5.20117,2.25 0.99568,0 3.81103,1.35 6.25586,3 2.44484,1.65 5.65425,3 7.13282,3 1.71709,0 2.53112,0.45159 2.25195,1.25 -0.24039,0.6875 -1.1458,1.12475 -2.00977,0.97266 -0.86396,-0.15209 -1.85615,0.18541 -2.20508,0.75 -0.34893,0.56459 -1.69698,1.02734 -2.99609,1.02734 -1.29911,0 -6.11048,0.88601 -10.69141,1.96875 -4.58093,1.08273 -9.90312,2.15996 -11.82812,2.39453 -1.925,0.23458 -5.075,1.1027 -7,1.92774 -3.569719,1.52995 -11.743149,3.59941 -16.087891,4.07421 C 67.31689,159.75813 58.781375,163.09918 56.5,165.00586 53.458138,167.54812 47.418519,171 46.013672,171 c -0.687473,0 -2.725839,1.2375 -4.529297,2.75 -1.803458,1.5125 -5.189488,3.875 -7.525391,5.25 -4.868826,2.86597 -7.663811,8.02264 -8.476562,15.64258 -0.482296,4.52176 -0.27067,5.11639 3.0625,8.60742 1.969238,2.0625 4.343021,3.75 5.273437,3.75 0.930415,0 3.263102,2.00641 5.185547,4.45898 1.922446,2.45257 3.946094,4.32692 4.496094,4.16602 1.443056,-0.42216 1.508972,-6.94128 0.08203,-8.125 -0.663008,-0.55 -1.505153,-1.79847 -1.871093,-2.77344 -0.365941,-0.97498 -1.462525,-2.02005 -2.4375,-2.32226 -4.174061,-1.29382 -4.780474,-2.18298 -5.28711,-7.77344 -0.486829,-5.37189 -0.332451,-5.87 3,-9.67188 3.313737,-3.78052 3.656302,-3.93061 6.039063,-2.6582 2.825807,1.50899 4.898358,1.19277 6.658203,-1.01562 0.650906,-0.81676 1.657399,-1.19179 2.236328,-0.83399 1.655602,1.02321 0.574423,6.72972 -1.609375,8.49805 -2.316018,1.8754 -3.650123,8.31082 -2.054688,9.90625 0.787807,0.78781 0.765011,1.805 -0.08203,3.66406 C 46.63074,205.90624 46.692204,207 48.431641,207 c 0.787937,0 1.719233,-0.9 2.068359,-2 0.349126,-1.1 1.280422,-2 2.068359,-2 1.682555,0 1.757582,0.42518 0.492188,2.76367 -0.516778,0.95504 -1.211879,3.0202 -1.544922,4.58985 -0.415547,1.95849 -1.532764,3.20334 -3.560547,3.96875 -3.630412,1.37032 -3.728146,2.36834 -0.382812,3.89257 2.017929,0.91943 2.740893,0.89646 3.361328,-0.10742 0.434869,-0.70364 1.677226,-1.13066 2.759765,-0.94726 1.221523,0.20694 3.07486,-0.87291 4.886719,-2.84766 3.850491,-4.19664 9.2369,-7.77409 14.033203,-9.32031 2.137312,-0.68902 4.459241,-1.70654 5.158203,-2.26172 0.698961,-0.55518 3.398961,-1.07605 6,-1.15625 2.601038,-0.0802 5.330985,-0.51766 6.066407,-0.97266 2.598647,-1.60775 3.233053,0.90619 1.888671,7.47071 C 90.362411,214.73332 90.478013,218 92.074219,218 c 0.509672,0 0.963935,-0.3375 1.009765,-0.75 1.233792,-11.10413 3.615962,-18.08741 6.136719,-17.98633 2.820377,0.1131 4.779437,-0.30283 4.773437,-1.01367 -0.004,-0.4125 -2.59122,-0.8722 -5.749999,-1.02148 -5.453418,-0.25771 -8.990083,-2.21173 -7.720703,-4.26563 0.760395,-1.23035 7.568343,-2.18994 14.640622,-2.06445 3.66497,0.065 7.78087,-0.30697 9.14649,-0.82617 1.73575,-0.65993 3.00005,-0.56526 4.20312,0.31445 1.60328,1.17233 1.61057,1.47305 0.0937,4.40625 -1.50421,2.9088 -1.96432,3.12327 -6.03711,2.81836 -4.46909,-0.33457 -7.61722,0.67573 -6.27929,2.01367 0.40311,0.4031 7.58974,0.82931 15.9707,0.94727 8.38097,0.11795 15.68828,0.31547 16.23828,0.43945 0.55,0.12399 5.87565,0.17252 11.83398,0.10742 8.18212,-0.0894 10.73101,-0.42505 10.41602,-1.36914 -0.30447,-0.91255 -4.0396,-1.26916 -13.83398,-1.31836 -23.97736,-0.12052 -25.98375,-0.4546 -24.39844,-4.08008 0.44514,-1.018 0.84898,-2.28082 0.89648,-2.80664 0.4913,-5.43836 56.12552,-6.43969 76.83594,-1.38281 4.03084,0.98421 4.58661,1.89914 2.30469,3.79297 -1.98594,1.64818 -22.60637,5.32976 -30.55469,5.45508 -5.74167,0.0905 -6.49895,0.32828 -6.50195,2.05078 -0.002,1.44999 -0.97274,2.1524 -3.78321,2.73633 -2.07878,0.43191 -5.00341,1.41258 -6.49804,2.17968 -2.8381,1.45664 -10.64244,3.24819 -18.06836,4.14649 -2.39294,0.28948 -7.50156,1.39936 -11.35352,2.46679 -3.85197,1.06744 -7.29334,1.88004 -7.64844,1.80665 -1.10752,-0.22906 -8.44032,1.30567 -13.14648,2.75195 -4.17192,1.28209 -20.226342,3.77975 -22.5,3.5 -0.55,-0.0677 -3.453745,-0.38222 -6.453125,-0.69727 -2.999381,-0.31504 -6.374381,-1.12249 -7.5,-1.79492 -1.12562,-0.67242 -2.609375,-1.12798 -3.296875,-1.01367 -0.6875,0.1143 -2.375,0.26333 -3.75,0.33203 -3.410089,0.1705 -3.184941,2.11586 0.25,2.16016 1.5125,0.0195 3.793643,0.61498 5.068359,1.32226 2.109336,1.17037 2.169281,1.40762 0.683594,2.64063 -0.897831,0.74514 -4.603518,1.84162 -8.236328,2.4375 -3.93613,0.64562 -6.79042,1.64079 -7.064453,2.46289 -0.379831,1.13949 1.172354,1.25809 8.919922,0.68359 C 66.279934,229.19948 73.425,228.2142 77,227.39258 c 10.126683,-2.32734 11.251679,-2.54178 15.251953,-2.91211 2.063611,-0.19103 4.651111,-0.6317 5.75,-0.98047 2.402617,-0.76256 2.677437,1.02002 0.357422,2.31836 -0.974241,0.54522 -1.329371,1.42107 -0.875,2.15625 1.138846,1.84269 26.379205,0.72013 33.503905,-1.49023 3.01821,-0.93637 6.61821,-1.89635 8,-2.13282 1.38179,-0.23648 3.29922,-0.66852 4.26172,-0.95898 1.14696,-0.34614 1.75,0.0118 1.75,1.03906 0,0.86207 0.70629,1.56836 1.56836,1.56836 1.11513,0 1.38179,-0.58103 0.92773,-2.01172 -0.52386,-1.65055 -0.0846,-2.12136 2.45313,-2.6289 1.7004,-0.34009 3.33484,-1.00933 3.63086,-1.48829 0.74311,-1.20238 2.41992,-1.09534 2.41992,0.1543 0,0.56361 -1.18739,1.47556 -2.63867,2.02734 -1.45128,0.55177 -2.35544,1.28519 -2.00977,1.63086 0.34567,0.34567 2.32057,-0.0939 4.38867,-0.97656 11.36213,-4.84957 19.07457,-6.87599 27.25977,-7.16601 7.45784,-0.26425 17.2946,-1.11052 23.5,-2.01954 15.45909,-2.26458 20.62207,-2.7206 23.85938,-2.11328 2.11484,0.39674 3.55571,1.00874 3.20312,1.36133 -2.57975,2.57974 -38.29613,15.24739 -50.0625,17.75586 -3.3,0.70352 -7.125,1.5592 -8.5,1.90039 -15.76604,3.9122 -53.78617,7.81531 -73.75,7.57031 -0.9625,-0.0118 -2.65,0.0217 -3.75,0.0762 -4.29332,0.2125 -5.176616,0.13017 -10.5,-0.98633 -6.167661,-1.29351 -19.778952,-1.25076 -20.591797,0.0644 -0.290928,0.47077 -1.325388,0.43009 -2.296875,-0.0898 -0.971486,-0.51992 -4.204865,-1.25731 -7.1875,-1.63867 -6.098873,-0.7798 -10.404854,-2.6269 -11.248047,-4.82422 -0.399197,-1.0403 0.22916,-1.5678 2.128907,-1.78711 3.173337,-0.36633 3.203822,-2.2553 0.03906,-2.43164 -2.90541,-0.16188 -4.680675,-2.77885 -4.066406,-5.99219 0.450038,-2.35422 0.265181,-2.54172 -1.888672,-1.91992 -1.313302,0.37914 -3.671024,2.06133 -5.238281,3.73828 -2.290172,2.45044 -2.730775,3.643 -2.244141,6.07617 0.816063,4.08031 1.631307,4.91232 9.398438,9.57813 6.336365,3.80632 7.231539,4.04965 16.695312,4.55859 14.88594,0.80052 15.852493,1.18755 13.580078,5.43359 -0.862192,1.61103 -1.768371,1.86593 -5.064453,1.42383 C 65.857384,250.85179 65,251.0608 65,252.25391 c 0,3.27619 8.854087,6.40718 10.515625,3.71875 0.348934,-0.56459 1.164521,-0.94313 1.810547,-0.8418 0.646026,0.10133 2.073828,-0.15283 3.173828,-0.56445 3.353301,-1.2548 6.908513,-2.75379 8.736328,-3.6836 3.756774,-1.91109 11.128852,-0.8935 23.263672,3.20899 1.65,0.55782 4.575,1.18044 6.5,1.38476 1.925,0.20433 4.625,0.66102 6,1.01367 3.35148,0.85955 14.58487,2.21 25,3.00586 11.31059,0.86429 16.60647,2.11038 18.95508,4.45899 1.7703,1.7703 1.81368,2.20066 0.5,4.83398 -2.00276,4.01463 -7.47833,5.58163 -14.60742,4.18164 -9.35459,-1.83703 -14.2489,-3.10393 -17.95704,-4.64648 -1.9847,-0.82563 -4.63735,-1.34806 -5.89648,-1.16211 -2.73999,0.40464 -5.1908,3.84062 -3.24414,4.54883 0.6875,0.25012 1.25,0.80894 1.25,1.24023 0,0.97985 -16.25058,18.06169 -17.17578,18.05469 -0.37217,-0.003 -0.82217,-0.75669 -1,-1.67383 -0.18007,-0.9287 -1.43188,-1.78431 -2.82422,-1.93164 -5.05354,-0.53473 -18.764198,-1.45729 -28.314453,-1.9043 -5.398328,-0.25267 -10.256658,-0.72984 -10.794922,-1.0625 -0.538265,-0.33267 -1.627972,-0.0671 -2.421875,0.5918 -0.793903,0.65887 -2.179477,0.91712 -3.078125,0.57227 -0.909129,-0.34886 -4.462443,0.70975 -8.011719,2.38672 C 50.17278,290.44414 49,291.43547 49,293.37695 c 0,3.89235 2.266407,4.96382 8.751953,4.14063 5.47715,-0.69522 8.299474,-0.77056 23.248047,-0.61719 6.532908,0.067 17.346123,2.00038 22,3.93359 3.32767,1.38233 8.9781,1.41812 12.81641,0.0801 2.19139,-0.76393 4.46383,-3.13267 7.66015,-7.98437 6.27516,-9.52508 7.65008,-10.28127 17.20508,-9.45703 4.25537,0.36708 8.01274,0.83868 8.34961,1.04687 0.33686,0.20819 2.6056,0.47306 5.04102,0.58985 2.43541,0.11678 5.19868,0.59679 6.14062,1.0664 0.94194,0.46961 2.96694,1.064 4.5,1.32031 7.00265,1.17076 15.1162,3.29424 18.61523,4.8711 2.25384,1.01571 5.74847,1.62894 8.5,1.49219 2.56993,-0.12773 8.31764,0.73672 12.77344,1.92187 4.4558,1.18516 11.2058,2.24767 15,2.36133 3.7942,0.11365 7.44245,0.6187 8.10742,1.12109 2.30103,1.73845 7.23856,-0.29393 9.77149,-4.02148 2.41546,-3.55467 6.995,-6.24219 10.63476,-6.24219 1.03685,0 1.88477,-0.45335 1.88477,-1.00781 0,-0.55445 1.8039,-1.7295 4.00781,-2.61133 2.20392,-0.88183 5.55579,-2.39405 7.44922,-3.35938 3.17233,-1.61734 3.85799,-1.63465 8.74219,-0.23437 2.91516,0.83576 7.66975,1.42874 10.56445,1.31836 6.28694,-0.23972 7.77482,1.62634 4.27149,5.35547 -2.82537,3.00747 -2.3375,5.94428 1.05273,6.33984 2.08272,0.24301 3.79106,-1.03982 8.99219,-6.7539 3.53126,-3.87953 7.96828,-9.04814 9.86133,-11.48438 3.35287,-4.31496 3.52101,-4.39535 6.5,-3.15625 1.68195,0.69961 3.67289,1.06385 4.42382,0.81055 0.75094,-0.2533 2.3977,0.83263 3.65821,2.41211 2.49557,3.12705 2.88405,3.20578 18.27344,3.67773 5.6323,0.17273 9.61263,-0.12842 10.0957,-0.76172 2.0572,-2.69698 1.82958,-4.49528 -0.96289,-7.62304 C 345.31835,270.11705 344,267.51858 344,266.14844 c 0,-1.37013 -0.61226,-3.202 -1.35938,-4.07032 -3.18997,-3.7074 -3.69262,-8.26019 -2.08007,-18.81835 0.51122,-3.3472 0.19274,-5.01407 -1.51367,-7.90625 -2.25984,-3.83014 -2.24654,-3.87018 2.13085,-6.38282 1.89939,-1.09026 4.82227,-0.29886 4.82227,1.30664 0,0.58535 -0.71878,1.85893 -1.59766,2.83008 -3.57483,3.95014 2.29978,5.36444 6.67774,1.60742 1.41898,-1.21772 3.65087,-4.01484 4.95898,-6.21484 2.78702,-4.68726 3.96724,-5.72382 9.84571,-8.63672 2.41191,-1.19515 5.11191,-3.45028 6,-5.01172 0.88808,-1.56144 1.95273,-2.8427 2.36523,-2.8457 0.4125,-0.003 0.75,-0.47167 0.75,-1.04102 0,-0.56935 0.7875,-2.22118 1.75,-3.66992 0.9625,-1.44874 2.425,-5.37043 3.25,-8.71484 1.35857,-5.50741 1.76789,-6.11044 4.33398,-6.4043 1.55827,-0.17845 4.47435,0.45428 6.48047,1.40625 2.00612,0.95196 5.23041,1.77272 7.16602,1.82422 2.95813,0.0787 3.57208,-0.27885 3.84961,-2.23828 0.47793,-3.37423 -2.48549,-5.29 -7.07813,-4.57617 -2.73976,0.42584 -3.89597,0.19627 -4.29883,-0.85352 -0.40964,-1.06747 -1.78338,-1.31765 -5.35351,-0.97461 -4.45251,0.42783 -4.96245,0.23761 -6.98828,-2.60742 -1.20183,-1.6878 -2.63022,-4.34904 -3.17578,-5.91406 -1.38975,-3.98662 -6.30839,-6.60255 -12.60157,-6.70508 -2.86895,-0.0467 -5.5422,-0.41135 -5.9414,-0.81055 C 355.99338,170.32737 354.69527,170 353.50781,170 c -2.34631,0 -5.20194,-2.7183 -8.0039,-7.62109 -1.65946,-2.90368 -10.0788,-8.77107 -12.80274,-8.92188 -0.66116,-0.0366 -2.55117,-0.68551 -4.20117,-1.44141 -1.67127,-0.76565 -6.46241,-1.40571 -10.81836,-1.44531 -6.28771,-0.0571 -8.00689,-0.40437 -8.77734,-1.77929 -0.52694,-0.94038 -2.63409,-2.00901 -4.68164,-2.37305 C 302.17512,146.05392 299.15,144.96615 297.5,144 c -1.65,-0.96615 -4.8,-2.07761 -7,-2.46875 -2.2,-0.39115 -4.45,-1.06246 -5,-1.49414 -0.55,-0.43169 -2.35,-1.04175 -4,-1.35547 -1.65,-0.31373 -6.6,-1.30614 -11,-2.20508 -4.4,-0.89893 -9.09712,-1.79398 -10.4375,-1.98828 -1.34038,-0.19429 -4.04038,-0.99908 -6,-1.78906 -1.95962,-0.78997 -5.3625,-2.00931 -7.5625,-2.70899 -2.2,-0.69967 -4.225,-1.57541 -4.5,-1.94531 -0.275,-0.36989 -2.975,-1.1717 -6,-1.7832 -10.6637,-2.15565 -15.5158,-3.49758 -17,-4.69922 -1.41628,-1.14664 -12.15469,-3.37453 -16.5,-3.42383 -1.1,-0.0125 -5.825,-0.52004 -10.5,-1.12695 -4.675,-0.60691 -13,-1.27885 -18.5,-1.49414 -5.5,-0.21529 -12.475,-0.92472 -15.5,-1.57617 -3.025,-0.65145 -8.65,-1.30739 -12.5,-1.45703 -3.85,-0.14965 -7,-0.37308 -7,-0.4961 0,-0.12301 -5.175,-0.4048 -11.5,-0.62695 -6.325,-0.22214 -15.1,-0.79026 -19.5,-1.26172 -2.14406,-0.22973 -4.19217,-0.34485 -6.125,-0.35547 z m -0.74023,6.45117 c 2.89003,-0.10016 5.36523,0.82934 5.36523,2.32422 0,1.98382 1.62945,1.88878 2.4082,-0.14062 0.48511,-1.26418 1.33627,-1.46021 3.85742,-0.88477 1.77903,0.40606 4.94965,0.86606 7.04493,1.02148 2.09528,0.15542 4.6051,1.00224 5.57812,1.88282 2.21419,2.00381 3.72936,2.03856 4.47266,0.10156 0.57042,-1.48649 3.74355,-2.06309 4.91406,-0.89258 0.52889,0.52889 7.94998,1.06175 18.36328,1.31641 2.33994,0.0572 3.10354,0.51711 3,1.81055 -0.10735,1.34104 1.45098,2.15033 6.86133,3.5625 12.33688,3.22007 18.92018,4.40058 28.8125,5.16796 3.19702,0.248 8.52017,1.14618 11.83008,1.99414 3.30991,0.84796 6.68583,1.54102 7.50195,1.54102 2.13378,0 11.52127,4.16819 10.86524,4.82422 -0.6738,0.6738 -3.08254,1.0198 -11.50977,1.65625 -3.575,0.26999 -9.65,0.77551 -13.5,1.12305 -3.85,0.34754 -9.7,0.75529 -13,0.90625 -3.3,0.15096 -10.5,0.57937 -16,0.95312 -5.5,0.37376 -10.9,0.8178 -12,0.98633 -4.99185,0.76483 -21.87277,-1.45159 -25.89844,-3.40039 -2.32814,-1.12703 -5.32912,-2.05169 -6.66797,-2.05469 -1.33886,-0.003 -3.77169,-0.70526 -5.4082,-1.55859 -1.6365,-0.85333 -3.75907,-1.34564 -4.71484,-1.09571 -2.18813,0.57221 -4.04387,-1.56777 -3.22071,-3.71289 0.45542,-1.18683 0.0513,-1.62695 -1.49414,-1.62695 -1.16506,0 -4.83664,-1.85639 -8.160153,-4.125 -5.44039,-3.71358 -6.013981,-4.43342 -5.740235,-7.21875 0.246824,-2.51139 0.90279,-3.26383 3.486329,-4 0.979127,-0.279 1.989781,-0.42755 2.953129,-0.46094 z m 515.77343,4.15039 c 0.36269,0.0431 1.2116,0.94908 2.03711,2.20899 0.94345,1.43988 1.51398,2.81806 1.26953,3.0625 -0.24444,0.24445 -1.21671,-0.73199 -2.16015,-2.17188 -0.94345,-1.43988 -1.51398,-2.81806 -1.26953,-3.0625 0.0305,-0.0306 0.0712,-0.0433 0.12304,-0.0371 z m -459.31836,7.125 c -0.67021,0.0132 -1.36704,0.0447 -2.08007,0.0977 -7.60895,0.56486 -10.24501,1.24154 -9.50586,2.4375 0.51161,0.8278 17.49932,0.19711 18.46679,-0.68555 1.21523,-1.10871 -2.18933,-1.94216 -6.88086,-1.84961 z M 135.16602,129 c -3.6468,0 -6.16602,0.88372 -6.16602,2.16406 0,1.40887 8.27609,0.54492 8.75586,-0.91406 0.26757,-0.81366 -0.63604,-1.25 -2.58984,-1.25 z m -18.61914,2.01953 c -1.77253,0.0107 -3.63623,0.31644 -4.00196,0.9082 -0.31562,0.51067 0.44379,1.08893 1.68946,1.28321 2.92016,0.45543 5.76562,-0.20058 5.76562,-1.32813 0,-0.58957 -1.6806,-0.87401 -3.45312,-0.86328 z m 7.36914,0.10352 c -0.3474,-0.0143 -0.74259,0.0489 -1.10352,0.19336 -0.79773,0.31922 -0.56143,0.55746 0.60352,0.60547 1.05416,0.0434 1.64479,-0.19311 1.3125,-0.5254 -0.16615,-0.16612 -0.46511,-0.25913 -0.8125,-0.27343 z m 470.34375,1.70507 c 3.11966,0.0269 6.85519,0.6729 8.43945,1.71094 2.72813,1.78754 3.14739,7.23965 0.82812,10.7793 -0.81029,1.23667 -1.61117,3.13335 -1.77929,4.21484 -0.54435,3.50176 -1.68519,4.30078 -6.14453,4.30078 -5.10953,0 -9.39064,1.97036 -12.7793,5.88086 -1.32778,1.53226 -4.54463,4.24766 -7.14844,6.03516 -5.94888,4.08389 -5.69779,4.0735 -6.04101,0.25 -0.0762,-0.84845 -1.32927,-1.63743 -2.88477,-1.81641 -3.23997,-0.3728 -3.54922,-1.68549 -0.75,-3.18359 1.1,-0.5887 2,-1.50451 2,-2.03516 0,-1.31181 -4.71944,-1.22851 -5.53906,0.0977 -0.36089,0.58393 -1.78467,1.49043 -3.16602,2.01562 -2.07835,0.79018 -2.30003,1.20994 -1.28125,2.4375 0.84295,1.0157 0.8818,1.48438 0.1211,1.48438 C 556.53323,165 553,161.77465 553,160.3125 c 0,-1.33375 3.37086,-3.51125 4.76172,-3.07617 0.46331,0.14492 2.31511,-1.40866 4.11523,-3.45313 C 565.05016,150.17925 576.32007,142 578.11328,142 578.60061,142 579,141.62535 579,141.16797 c 0,-0.69795 5.47427,-4.54781 10.9082,-7.67188 0.83092,-0.47771 2.47977,-0.68409 4.35157,-0.66797 z m -369.67969,1.59571 c 2.19199,-0.009 4.70113,0.35889 5.77539,1.11133 1.14964,0.80523 3.12077,1.46484 4.38086,1.46484 1.26008,0 3.0723,0.41788 4.02734,0.92773 0.95504,0.50985 2.55147,1.18092 3.54883,1.49219 0.99736,0.31126 1.53372,1.01838 1.19141,1.57227 -0.77103,1.24755 -4.18987,1.32614 -4.93946,0.11328 -0.30401,-0.4919 -2.24264,-1.13035 -4.30859,-1.41797 -5.35066,-0.74494 -13.31686,-3.16227 -13.55469,-4.11328 -0.18906,-0.75601 1.68692,-1.14156 3.87891,-1.15039 z M 612.47266,137.5 c 1.55308,0 2.1413,0.95654 2.76757,4.5 0.94319,5.33666 0.25549,8.89855 -2.05664,10.65625 -4.42204,3.36169 -6.7961,0.33256 -4.39062,-5.60156 0.76794,-1.89443 1.46538,-4.81943 1.55078,-6.5 0.11806,-2.32211 0.63003,-3.05469 2.12891,-3.05469 z m 173.46679,0.01 C 784.71593,137.3469 782,138.94167 782,140.03516 c 0,0.53065 0.61929,0.96484 1.37695,0.96484 1.66192,0 3.85627,-2.43279 2.98243,-3.30664 -0.10163,-0.10162 -0.24514,-0.16033 -0.41993,-0.18359 z m -110.00976,0.63281 c 1.15141,0.0841 1.80855,2.81343 1.97461,8.18554 0.10493,3.39472 0.28338,7.06573 0.39453,8.15821 0.17593,1.729 -0.42125,1.99104 -4.59961,2.02734 -2.64013,0.0229 -5.17356,-0.19595 -5.63086,-0.48633 -0.4573,-0.29039 0.45886,-3.88177 2.03711,-7.98046 2.57946,-6.69881 4.51929,-9.99962 5.82422,-9.9043 z M 619.72656,139 c 1.95467,0 8.95601,20.9854 7.49024,22.45117 -0.30211,0.30211 -1.30261,0.54883 -2.22266,0.54883 -2.12775,0 -4.17624,-4.3445 -4.47852,-9.5 -0.12899,-2.2 -0.57341,-6.1375 -0.98828,-8.75 -0.45672,-2.87605 -0.37875,-4.75 0.19922,-4.75 z m -368.89258,3.5 c 2.76272,0.0426 7.0908,0.6571 12.66602,1.83984 1.1,0.23335 3.92694,0.74536 6.2832,1.13672 2.35626,0.39136 5.58919,1.36085 7.1836,2.15625 1.59441,0.79539 6.15858,2.12634 10.14258,2.95703 3.98401,0.83069 7.61358,1.73967 8.0664,2.01954 1.442,0.89119 0.88806,3.28564 -0.99414,4.29296 -1.0004,0.5354 -3.1379,0.91801 -4.75,0.84961 -3.7838,-0.16048 -12.59971,-2.03574 -14.07422,-2.99414 -0.62814,-0.40827 -2.83533,-0.95947 -4.90625,-1.22461 -6.68995,-0.85653 -21.3152,-6.88718 -22.89258,-9.43945 -0.68442,-1.10741 0.51268,-1.6363 3.27539,-1.59375 z m 589.50782,10.70117 c 2.69869,0.0399 1.69309,1.32218 -3.0918,3.8125 -2.6125,1.35969 -5.425,2.95934 -6.25,3.55469 -1.84299,1.32997 -15.70132,6.71303 -22.5,8.74023 -2.75,0.81998 -7.475,2.25814 -10.5,3.19532 -8.5891,2.66099 -11.94144,3.42683 -20,4.56445 -12.49266,1.76358 -14.88867,1.92142 -15.44727,1.01758 -0.68579,-1.10963 3.92198,-4.14181 7.88868,-5.19141 1.68221,-0.44513 6.43359,-1.68104 10.55859,-2.74609 4.125,-1.06506 8.85,-2.65734 10.5,-3.53711 1.65,-0.87977 3.52802,-1.60247 4.17383,-1.60547 1.88121,-0.01 21.40452,-6.82476 22.75,-7.94141 0.67296,-0.55851 3.2137,-1.23007 5.64844,-1.49218 2.43473,-0.26211 5.77773,-0.75459 7.42773,-1.09375 4.26946,-0.87759 7.22258,-1.30126 8.8418,-1.27735 z m -663.78125,0.75586 c 8.63158,-0.007 17.57615,0.16963 19.93945,0.53711 1.65,0.25657 7.62146,0.76946 13.26953,1.13867 9.3804,0.61319 10.21748,0.83126 9.68164,2.51953 -0.44143,1.39082 -0.0753,1.84766 1.48047,1.84766 1.13707,0 2.06836,0.35415 2.06836,0.78711 0,1.36121 -4.13985,1.16698 -6.37695,-0.29883 -1.31551,-0.86195 -2.67773,-1.07392 -3.52735,-0.54883 -0.78527,0.48533 -2.59509,0.43334 -4.18554,-0.12109 -1.82735,-0.63669 -3.41328,-0.63681 -4.55469,0.002 -2.81067,1.57294 3.97781,2.9926 22.64453,4.73242 9.075,0.84583 18.975,1.97542 22,2.51172 14.09833,2.49948 18.41432,2.34468 15.99023,-0.57617 C 264.31094,165.66979 262.4596,165 260.87695,165 259.29429,165 258,164.49693 258,163.88281 c 0,-0.70686 1.00909,-0.88052 2.75,-0.47461 1.5125,0.35266 5,0.90065 7.75,1.21875 2.75,0.31809 5.79943,1.00443 6.77734,1.52539 2.80051,1.49192 0.9302,2.97778 -2.85546,2.26758 -3.86985,-0.72598 -4.53772,0.691 -1.76758,3.75196 0.91024,1.0058 1.24774,1.86495 0.75,1.91015 -4.48478,0.40754 -40.33319,0.65509 -40.70703,0.28125 -0.26828,-0.26827 -4.24651,-0.46736 -8.8418,-0.44336 -7.57595,0.0396 -12.39478,-0.90502 -20.65235,-4.04687 C 199.93975,169.39235 197.90253,169 196.67578,169 c -1.22674,0 -3.22732,-0.69766 -4.44531,-1.55078 C 189.77776,165.73127 179.511,162 177.23633,162 c -0.87883,0 -1.22361,0.59155 -0.875,1.5 0.39152,1.02029 -0.0536,1.5 -1.39258,1.5 -3.77883,0 -2.08209,2.80452 2.12695,3.51562 4.51756,0.76325 4.13389,2.36912 -0.7207,3.01758 -4.12801,0.55141 -15.36541,0.58272 -18.81641,0.0527 -1.6176,-0.24842 -3.6426,-0.0771 -4.5,0.38086 -0.85741,0.45793 -3.94034,1.089 -6.85156,1.40234 -4.06264,0.43727 -5.42143,0.23533 -5.84375,-0.86523 -0.69019,-1.79859 3.0614,-7.18718 5.55469,-7.97852 1.02656,-0.32582 2.38141,-1.83263 3.00976,-3.34961 1.05071,-2.53665 4.56768,-4.98101 9.57227,-6.65039 1.11037,-0.37037 9.42896,-0.56116 18.06055,-0.56836 z m -54.73828,1.44922 c 1.33376,-0.0901 2.17773,0.38161 2.17773,1.55859 0,0.46605 -0.95066,0.59896 -2.11328,0.29493 -1.79347,-0.46901 -2.01157,-0.22732 -1.4336,1.59375 0.50612,1.59464 0.263,2.14648 -0.94531,2.14648 -0.89452,0 -1.3831,0.3942 -1.08593,0.875 0.29714,0.48081 -0.47787,1.97326 -1.72266,3.31641 -1.24479,1.34315 -4.4497,5.94831 -7.1211,10.23437 -3.54451,5.68695 -5.75628,8.16859 -8.18554,9.1836 -4.368934,1.82546 -5.124225,1.76128 -6.357424,-0.54297 -1.766845,-3.30138 -1.209122,-4.60984 4.546875,-10.67969 3.069789,-3.23717 7.623939,-8.06409 10.121089,-10.72461 3.88262,-4.1366 9.18487,-7.05756 12.11915,-7.25586 z m 16.47265,0.63281 c 1.00494,0.0681 1.85778,0.3983 2.24414,1.02344 0.36137,0.58472 -1.12756,2.72222 -3.30859,4.75 -2.18104,2.02779 -4.26716,4.5875 -4.63477,5.6875 -0.3676,1.1 -1.91628,3.45767 -3.44336,5.23828 -1.57186,1.83284 -4.16022,3.51408 -5.96484,3.875 -3.42792,0.68559 -4.20735,-0.52199 -1.6875,-2.61328 0.825,-0.68469 1.5,-1.77862 1.5,-2.43164 0,-1.01137 4.95335,-7.55495 10.46094,-13.81836 1.06173,-1.20744 3.15909,-1.82449 4.83398,-1.71094 z m 20.95508,0.98047 c -3.16567,-0.0271 -2.80634,1.81559 0.5,2.56445 1.5125,0.34257 4.1,0.98638 5.75,1.42969 4.48824,1.20585 6.71388,1.12992 6.26562,-0.21484 -0.41992,-1.2598 -8.6533,-3.7462 -12.51562,-3.7793 z m 434.71094,0.39453 c 1.2645,-0.0183 2.4459,0.37116 3.21094,1.29297 1.04811,1.2629 0.86804,1.84336 -1.06446,3.4082 -3.1381,2.54126 -8.10742,2.54587 -8.10742,0.008 0,-2.65457 3.17902,-4.66876 5.96094,-4.70899 z M 144.05859,160 c 0.58246,0 0.78133,0.45 0.44141,1 -0.33992,0.55 -0.81605,1 -1.05859,1 C 143.19887,162 143,161.55 143,161 c 0,-0.55 0.47613,-1 1.05859,-1 z m 83.81055,0.41406 c 0.24006,9e-4 0.53246,0.031 0.88086,0.0977 0.9625,0.18426 3.2125,0.37001 5,0.41211 1.7875,0.0421 3.25,0.4731 3.25,0.95898 0,1.36184 -4.26428,1.86308 -7.28711,0.85547 -2.61363,-0.87121 -3.52418,-2.33053 -1.84375,-2.32422 z m -132.865234,0.0254 C 95.633231,160.46468 96,160.63716 96,160.98047 c 0,0.97781 -0.543528,1.59354 -11.103516,12.62305 -6.531416,6.82182 -10.931264,14.45104 -11.251953,19.50586 -0.181461,2.86026 -2.244299,5.88648 -4.017578,5.89648 -0.620155,0.003 -2.33302,0.63548 -3.806641,1.4043 C 62.709771,202.03301 62,201.61371 62,198.1543 c 0,-10.26819 12.790046,-29.52602 22.988281,-34.61328 3.869599,-1.93032 8.127651,-3.17724 10.015625,-3.10157 z m 560.292974,0.16993 c 1.65887,-0.009 2.75992,0.23882 2.82226,0.80859 0.34337,3.13812 -5.74237,17.38861 -9.01953,21.12109 -1.70452,1.94134 -3.09961,4.00396 -3.09961,4.58203 0,0.57806 -1.6875,3.46678 -3.75,6.41993 -3.03596,4.34699 -4.16292,5.26577 -5.91797,4.82617 -1.52141,-0.38108 -2.49472,0.0671 -3.26367,1.5039 -0.60262,1.12601 -1.01406,2.40311 -0.91406,2.83789 0.1,0.43478 -0.16474,2.46296 -0.58985,4.50586 -1.07471,5.16466 -2.93884,6.51585 -4.97461,3.60938 -2.46005,-3.51221 -1.9502,-7.58085 1.49414,-11.92969 1.69622,-2.14164 3.6325,-3.89453 4.30274,-3.89453 0.67025,0 3.05465,-1.81709 5.29883,-4.03906 C 642.89516,185.8029 644.53099,179 640.5625,179 c -2.23313,0 -3.47776,-2.40741 -4.00977,-7.75195 l -0.50976,-5.1211 5.29687,-2.42383 c 3.95503,-1.81066 10.3075,-3.0739 13.95704,-3.09374 z M 729.55859,161 c 0.24254,0 0.44141,0.45 0.44141,1 0,0.55 -0.47613,1 -1.05859,1 -0.58246,0 -0.78133,-0.45 -0.44141,-1 0.33992,-0.55 0.81605,-1 1.05859,-1 z m -576.85351,1.02344 C 151.46557,162.05511 151,162.39061 151,163 c 0,0.55 1.97292,1 4.38477,1 2.41185,0 5.89935,0.65747 7.75,1.46094 4.05899,1.76224 4.57595,1.817 5.34765,0.56836 0.32995,-0.53388 -0.43141,-1.20552 -1.6914,-1.49219 -7.8031,-1.77537 -12.02009,-2.56645 -14.08594,-2.51367 z m 516.09375,0.3789 c 1.903,0.0718 3.14532,2.06283 3.6875,5.92969 0.70037,4.99501 -2.84818,30.19503 -4.53906,32.23242 -0.65524,0.7895 -0.92248,1.43555 -0.59375,1.43555 0.32874,0 0.1592,1.14963 -0.375,2.55469 -0.5342,1.40506 -1.24711,6.91756 -1.58399,12.25 -0.33688,5.33244 -0.77901,9.97372 -0.98242,10.31445 -0.20341,0.34074 -0.63397,3.04074 -0.95703,6 -0.32306,2.95927 -0.76867,5.94336 -0.99024,6.63086 -0.68584,2.12805 -2.46299,1.38196 -3.57422,-1.5 -0.58318,-1.5125 -1.17718,-9.05 -1.32031,-16.75 -0.22531,-12.12071 0.0646,-15.25616 2.16407,-23.35352 1.33372,-5.14406 3.30653,-11.41037 4.38476,-13.92578 2.14386,-5.00142 2.54153,-10.98314 1.05274,-15.83593 -1.06016,-3.45558 -0.58302,-4.69315 2.20507,-5.72461 0.5091,-0.18835 0.98272,-0.27438 1.42188,-0.25782 z M 539.11914,168 c 0.44541,0 1.29216,0.9 1.88086,2 0.98048,1.83205 0.76115,2 -2.61914,2 -3.62683,0 -3.65977,-0.0343 -1.88086,-2 0.99549,-1.1 2.17374,-2 2.61914,-2 z m 16.79297,1.23828 c 0.20214,0.0115 0.40297,0.0515 0.59961,0.12695 1.39311,0.53458 1.48261,0.93662 0.47851,2.14649 -1.28234,1.54513 -4.0014,2.05024 -3.97461,0.73828 0.0345,-1.69205 1.48151,-3.09229 2.89649,-3.01172 z M 575.05859,174 c 2.17686,0 2.56384,1.97913 0.74219,3.80078 -1.59833,1.59833 -2.74219,1.51417 -3.41992,-0.25195 C 571.60546,175.52815 572.75737,174 575.05859,174 Z m 41.33008,2.33984 c 0.3586,-0.0693 0.61133,0.13047 0.61133,0.54297 0,0.55 -0.45,1.27727 -1,1.61719 -0.55,0.33992 -1,0.16719 -1,-0.38281 0,-0.55 0.45,-1.27727 1,-1.61719 0.1375,-0.085 0.26914,-0.13706 0.38867,-0.16016 z m -419.59961,0.73633 c 5.19956,-0.0107 8.91684,0.13492 10.70703,0.44336 1.65187,0.28461 7.95912,0.93259 14.01563,1.43945 16.90453,1.41474 18.32795,2.76043 8.23828,7.78907 -7.23701,3.60689 -15.48507,4.72754 -20.75,2.82031 -1.925,-0.69733 -6.92371,-1.5738 -11.10742,-1.94727 -4.1837,-0.37346 -9.1337,-1.14352 -11,-1.71093 -3.73067,-1.13423 -13.46842,-1.83274 -36.62696,-2.62891 -8.37877,-0.28805 -15.02658,-0.85798 -14.77343,-1.26758 0.25315,-0.40959 1.59894,-0.52769 2.99023,-0.26172 1.39129,0.26596 3.0891,0.0206 3.77344,-0.54492 1.70893,-1.41218 6.49046,-2.15028 18.24414,-2.81836 14.84037,-0.84352 27.62313,-1.29462 36.28906,-1.3125 z m -134.511716,2.10352 c 0.168325,0.018 0.317635,0.0813 0.4375,0.20117 0.366471,0.36647 -0.04157,1.3736 -0.90625,2.23828 -0.935189,0.93519 -1.81843,1.17437 -2.179688,0.58984 -0.634461,-1.02658 1.470158,-3.15539 2.648438,-3.02929 z m 553.249996,1.33984 c 0.0695,-0.0127 0.067,0.0621 -0.0195,0.23438 -0.34619,0.68922 -0.93938,4.05766 -1.31836,7.48632 -0.7006,6.33838 -1.99637,7.84843 -5.04883,5.88282 -1.86101,-1.19839 0.26997,-7.0706 4.14649,-11.42383 1.17541,-1.31996 2.03185,-2.14157 2.24023,-2.17969 z m 4.38282,0.8418 c 0.73367,-0.1334 1.62474,1.0073 2.63672,3.41406 1.21709,2.89462 1.16858,3.30544 -0.49415,4.19531 -2.65553,1.42119 -4.41507,-1.04736 -3.55078,-4.98242 0.36202,-1.64824 0.83757,-2.5232 1.40821,-2.62695 z m -260.25196,2.44336 c 1.82848,0.0592 3.74119,0.98008 4.53516,2.72265 0.80547,1.7677 0.83728,2.84241 0.10156,3.57813 h -0.002 c -0.57849,0.57849 -2.90528,1.30146 -5.17188,1.60547 -4.4296,0.59414 -4.91085,-0.15991 -3.49023,-5.46094 0.45615,-1.70211 2.19887,-2.50448 4.02734,-2.44531 z M 249.1582,184 c 1.0756,0 3.97725,0.50891 6.44727,1.13086 5.06412,1.27516 5.47605,3.03036 1.39453,5.93945 -2.74749,1.95827 -11.8239,3.41845 -13.6582,2.19727 C 241.58654,192.09903 246.66956,184 249.1582,184 Z m -160.419919,1.0293 c 0.53331,-0.0121 1.21701,0.69309 1.554688,1.98437 0.356839,1.36455 -0.13783,2.36742 -1.535157,3.11524 -1.758157,0.94094 -1.965919,0.85454 -1.410156,-0.59375 C 87.706052,188.60119 88,187.19799 88,186.41797 c 0,-0.9362 0.323485,-1.37925 0.738281,-1.38867 z m 650.884769,2.16992 c 1.26673,0.0221 2.37695,0.73807 2.37695,1.75195 0,1.57491 -2.85384,1.93007 -4.03906,0.50195 -0.93515,-1.12678 -0.85515,-1.55574 0.3789,-2.02929 0.42172,-0.16183 0.86096,-0.23198 1.28321,-0.22461 z m -500.51758,1.97266 c 0.68755,-0.004 0.24977,0.81259 -0.69141,2.69921 -1.07014,2.14516 -2.376,3.02613 -5.17187,3.48829 -5.51908,0.91227 -9.04178,0.77381 -9.75781,-0.38477 -0.62769,-1.01563 5.18366,-3.65703 6.91406,-3.14258 0.49392,0.14684 2.63982,-0.43106 4.76953,-1.2832 2.18721,-0.87515 3.40274,-1.37393 3.9375,-1.37695 z M 537.5918,191 c 2.52728,0 0.27708,2.80322 -5.41211,6.74219 -6.22961,4.31312 -9.17969,5.68733 -9.17969,4.27929 0,-0.50334 2.43237,-2.52995 5.40625,-4.5039 2.97388,-1.97395 5.95458,-4.24729 6.62305,-5.05274 C 535.69776,191.65939 536.85141,191 537.5918,191 Z m -207.89453,0.20117 c 0.46841,-0.0302 1.09815,0.18309 1.5957,0.57422 0.66341,0.52151 2.37178,1.22557 3.79492,1.56445 3.90126,0.929 8.28842,4.68425 6.99023,5.98243 -0.75243,0.75243 -0.51735,1.66688 0.80079,3.12109 1.98347,2.18822 3.37842,9.52328 2.17968,11.46289 -1.12279,1.81671 -3.5281,0.33463 -4.76171,-2.93359 -1.55491,-4.11941 -4.41988,-3.90115 -6.93165,0.52734 -0.88834,1.56623 -0.78616,2.59643 0.4668,4.75 0.87999,1.5125 2.17639,2.75 2.88281,2.75 0.70641,0 1.28516,0.45 1.28516,1 0,0.55 -0.86296,1 -1.91797,1 -1.05502,0 -2.51752,0.17922 -3.25,0.39844 -3.77398,1.1295 -13.16648,-4.66617 -15.89453,-9.8086 -1.99113,-3.75331 -2.0772,-4.59648 -1.00977,-9.73828 1.36319,-6.56645 3.19009,-8.56417 8.6211,-9.42383 2.17274,-0.34392 4.30755,-0.84532 4.74414,-1.11328 0.10915,-0.067 0.24816,-0.10319 0.4043,-0.11328 z M 365.43164,192 c 4.69837,0 4.66959,7.2723 -0.0547,13.72266 -1.52121,2.07701 -3.11424,4.19084 -3.53906,4.69531 -1.29256,1.53493 -2.07201,-2.10979 -0.91406,-4.27344 1.57453,-2.94203 1.35509,-3.91579 -1.42383,-6.33203 -1.375,-1.19555 -2.5,-2.7551 -2.5,-3.4668 0,-1.67627 5.17915,-4.3457 8.43164,-4.3457 z m 125.78125,2 c 1.85014,0 0.53973,1.98982 -2.58008,3.91797 -1.85242,1.14486 -3.76492,2.06331 -4.25,2.04101 C 483.3171,199.90987 490.0909,194 491.21289,194 Z m 131.8457,0 c 0.51754,0 0.94141,0.45 0.94141,1 0,0.55 -0.70113,1 -1.55859,1 -0.85748,0 -1.28133,-0.45 -0.94141,-1 0.33992,-0.55 1.04105,-1 1.55859,-1 z m 29.21875,2.17969 c 0.16833,0.018 0.31764,0.0813 0.4375,0.20117 0.36647,0.36647 -0.0416,1.3736 -0.90625,2.23828 -0.93519,0.93519 -1.81842,1.17437 -2.17968,0.58984 -0.63446,-1.02658 1.47015,-3.15539 2.64843,-3.02929 z m -440.12695,1.10742 c 1.77976,-0.0526 2.84961,0.15243 2.84961,0.65234 0,1.25005 -4.47411,2.47554 -6.375,1.7461 -0.75921,-0.29133 -1.77593,-0.13423 -2.25781,0.34765 -1.50875,1.50875 -13.30058,3.88219 -13.96289,2.81055 -0.83711,-1.35447 -0.70988,-1.41937 6.5957,-3.30859 5.24568,-1.35653 10.18413,-2.16042 13.15039,-2.24805 z M 247.13281,198 c 4.52617,0 5.25175,0.87543 3.03907,3.66211 -0.9195,1.15801 -3.32369,2.39588 -5.34376,2.75195 -3.19897,0.56389 -3.76359,0.36357 -4.37304,-1.55664 C 239.5302,199.94338 242.20169,198 247.13281,198 Z m 608.37696,1.30273 c -0.66554,0.001 -1.38403,0.0374 -2.14258,0.10938 -6.45178,0.6122 -39.14482,1.86455 -47.36719,1.81445 -4.07252,-0.0248 -7.36476,0.51047 -8.81641,1.4336 -1.63422,1.03923 -2.68579,1.16801 -3.56836,0.43554 -0.80981,-0.67208 -7.40189,-0.87096 -18.68359,-0.5625 -44.31338,1.21162 -49.63074,1.61338 -51.18164,3.87305 -0.5285,0.77005 -0.9715,0.7785 -1.5,0.0273 -0.4125,-0.58629 -3.43835,-1.81797 -6.72461,-2.73828 -8.14246,-2.28029 -9.22619,-1.279 -7.35742,6.79883 1.38279,5.97712 2.61016,7.27821 5.58203,5.91992 1.81183,-0.8281 2.86564,-1.10187 5,-1.29883 0.6875,-0.0634 1.25,-0.69969 1.25,-1.41406 0,-0.96885 2.60422,-1.34508 10.25,-1.48047 9.42834,-0.16695 17.219,-0.82149 22.25,-1.87109 6.7298,-1.40402 27.37093,-3.19567 35,-3.03711 8.16582,0.16972 8.97199,0.0203 8.69531,-1.61133 -0.28945,-1.70698 -0.11161,-1.70195 3.5,0.10742 3.24319,1.62484 5.72397,1.8751 16.80469,1.68555 7.15,-0.12231 17.82645,0.37202 23.72656,1.09961 9.17218,1.13111 11.22534,1.11556 14.15235,-0.10742 3.8308,-1.60061 3.90428,-1.5492 7.16797,4.83203 1.07384,2.0996 4.87812,6.89126 8.45312,10.64844 3.575,3.75717 9.425,10.10243 13,14.10156 14.64847,16.38629 39.06708,39.37022 51.5,48.47461 4.45677,3.26361 11.68229,9.7173 14.89648,13.30469 1.1569,1.29122 3.74996,3.19108 5.76172,4.22265 2.01177,1.03157 3.81177,2.22515 4,2.65235 0.56808,1.28926 24.24054,20.91837 31.38477,26.02343 2.17614,1.55501 6.58187,4.14003 9.79103,5.7461 3.2091,1.60607 6.8927,4.17837 8.1855,5.71484 1.2929,1.53646 2.7614,2.79297 3.2617,2.79297 0.5002,0 1.7251,0.90159 2.7227,2.00391 0.9976,1.10232 3.6541,2.49609 5.9043,3.09765 2.2502,0.60157 6.3418,2.12446 9.0918,3.38282 7.2456,3.31548 13.1849,5.26801 20,6.57812 3.3,0.63438 6.45,1.49931 7,1.91992 0.55,0.42061 4.4309,0.77526 8.625,0.78906 4.194,0.0138 8.5917,0.54242 9.7715,1.17383 1.1798,0.63145 2.583,0.87708 3.1172,0.54688 0.5343,-0.3302 1.7616,-0.11907 2.7285,0.46875 1.8688,1.13618 4.4377,0.91884 13.2578,-1.11914 6.3665,-1.47107 6.9634,-2.06644 6.9844,-6.96875 0.026,-6.17107 -1.4526,-6.52512 -15.0528,-3.60352 -5.5726,1.19713 -7.2412,1.20482 -11,0.0508 -2.437,-0.74822 -8.0316,-1.29318 -12.4316,-1.20898 -7.5989,0.1455 -8.6522,-0.12118 -21.0215,-5.32227 C 1026.062,342.30662 1024,341.26011 1024,339.90625 c 0,-0.56311 -0.4524,-0.74439 -1.0059,-0.40234 -1.4607,0.90275 -13.2189,-3.36999 -15.0546,-5.47071 -0.8579,-0.98182 -3.018,-2.53898 -4.8008,-3.46093 -1.7829,-0.92195 -3.44802,-2.21625 -3.7012,-2.875 C 998.73448,325.86811 968.83857,303 967.15039,303 c -0.41696,0 -2.30969,-1.62441 -4.20508,-3.60938 -1.89539,-1.98496 -5.05501,-4.64103 -7.02148,-5.90234 -1.96648,-1.26131 -4.89148,-3.60113 -6.5,-5.19922 -1.60853,-1.5981 -3.69241,-3.19589 -4.63281,-3.55078 -0.94041,-0.35488 -3.08274,-2.53844 -4.75977,-4.85351 -2.79974,-3.86492 -6.19914,-6.66692 -16.21484,-13.36329 -2.02621,-1.3547 -4.05121,-3.0815 -4.5,-3.83593 -0.44879,-0.75443 -2.16641,-2.21842 -3.81641,-3.25391 -8.70413,-5.46248 -41.70592,-39.09855 -48.75586,-49.69336 -3.04535,-4.57663 -6.20599,-8.87627 -7.02344,-9.55469 -0.69484,-0.57645 -2.21434,-0.88447 -4.21093,-0.88086 z m -619.38672,0.65625 -0.31055,3.76954 -0.3125,3.77148 -9.43359,0.19531 c -5.18855,0.10688 -11.48855,0.64909 -14,1.20703 -2.51144,0.55794 -10.34491,1.25808 -17.40821,1.55469 -7.06329,0.29661 -13.23656,0.78134 -13.71679,1.07813 -1.91727,1.18494 -21.68553,1.68712 -22.37696,0.56836 -0.3799,-0.61469 -0.0993,-1.32642 0.62305,-1.58204 1.19918,-0.42436 17.36441,-2.37536 25.8125,-3.11523 1.925,-0.16859 7.1,-1.16491 11.5,-2.21289 4.4,-1.04798 9.97981,-1.99111 12.40039,-2.09766 2.42058,-0.10656 7.14558,-0.8001 10.5,-1.54101 3.35442,-0.74091 8.49074,-1.40446 11.41211,-1.47266 z m 246.55273,0.63282 c 0.20356,-0.0163 0.31429,0.0274 0.3125,0.13867 -0.0118,0.73389 -6.38088,5.34855 -8.48828,6.15039 -0.55,0.20927 -1.7425,1.02539 -2.65039,1.81445 -1.01315,0.88054 -1.88669,1.05408 -2.26172,0.44727 -0.33607,-0.54377 0.63143,-1.86531 2.15039,-2.93555 3.55158,-2.50237 9.51256,-5.50125 10.9375,-5.61523 z M 290.5,202 c 0.825,0 1.5,0.45 1.5,1 0,0.55 -0.675,1 -1.5,1 -0.825,0 -1.5,-0.45 -1.5,-1 0,-0.55 0.675,-1 1.5,-1 z m 357.15625,1.44141 c 0.21621,-0.036 0.34375,0.0418 0.34375,0.24804 0,0.55 -0.9,1.81506 -2,2.81055 -1.1,0.99549 -2,1.36055 -2,0.81055 0,-0.55 0.9,-1.81506 2,-2.81055 0.6875,-0.62218 1.2959,-0.99859 1.65625,-1.05859 z m -345.41797,0.62695 c 0.0797,-0.008 0.13848,0.006 0.17188,0.043 0.19579,0.2142 0.83817,2.63867 1.42773,5.38867 0.91971,4.28997 0.83826,5.17751 -0.57422,6.25 -0.90544,0.6875 -1.96924,1.25 -2.36523,1.25 C 299.95341,217 295,211.1004 295,209.97461 c 0,-0.94455 6.04253,-5.78656 7.23828,-5.90625 z M 618.17383,205 c 2.32837,0 3.44545,2.54897 1.92187,4.38477 -0.62042,0.74756 -2.2565,4.59052 -3.63672,8.54101 -1.38022,3.95049 -2.95478,7.94646 -3.49804,8.87891 -0.54326,0.93244 -2.31005,4.96691 -3.92578,8.96484 -1.61574,3.99793 -5.9668,11.87293 -9.66993,17.5 -3.70313,5.62707 -7.83375,11.91398 -9.17968,13.97266 -3.0269,4.62985 -14.81009,15.109 -16.09571,14.31445 -1.38379,-0.85523 0.18762,-5.3921 3.6543,-10.55664 1.66134,-2.475 3.87112,-6.075 4.91211,-8 1.04099,-1.925 2.70872,-4.71677 3.70508,-6.20508 1.83624,-2.74289 1.53314,-4.79492 -0.70899,-4.79492 -0.6768,0 -2.97594,3.2625 -5.10742,7.25 -2.13147,3.9875 -5.08288,8.825 -6.56054,10.75 -1.47766,1.925 -3.31682,4.70519 -4.08594,6.17773 -3.91824,7.50186 -11.75563,19.55709 -14.47266,22.26172 -5.03681,5.01383 -9.70862,9.0446 -13.42578,11.58203 -6.10468,4.16722 -15.56714,12.89657 -19.09375,17.61524 -1.87339,2.50664 -6.78125,7.46152 -10.90625,11.01172 -4.125,3.5502 -8.625,7.46444 -10,8.69726 -5.44535,4.88229 -20.11698,16.20503 -23.70312,18.29297 -3.6956,2.15168 -5.4885,3.06461 -23.29688,11.85352 -4.675,2.30724 -10.75,5.4238 -13.5,6.92578 -2.75,1.50199 -8.33443,3.82588 -12.41016,5.16601 -4.07574,1.34012 -8.02534,2.94588 -8.77539,3.56836 -0.75005,0.62249 -1.64748,0.84665 -1.99609,0.49805 -0.3486,-0.34861 -1.21283,-0.15324 -1.91992,0.43359 -2.73097,2.2665 -12.39425,4.05968 -23.89844,4.4336 -6.6,0.21452 -14.025,0.57878 -16.5,0.81054 -2.475,0.23177 -6.74608,-0.17876 -9.49219,-0.9121 -2.74611,-0.73333 -7.24611,-1.53867 -10,-1.79102 -2.75389,-0.25235 -6.72129,-1.18739 -8.81445,-2.07812 -3.22673,-1.37314 -3.70063,-1.95743 -3.11524,-3.83399 0.37975,-1.21731 1.22443,-2.98527 1.87696,-3.92969 1.39785,-2.02312 8.48332,-7.7832 9.57422,-7.7832 0.41521,0 2.47119,-2.25 4.56836,-5 2.09718,-2.75 4.20186,-5 4.67578,-5 0.47391,0 2.3364,-1.4625 4.14062,-3.25 10.25942,-10.16432 13.24398,-12.57941 14.54492,-11.77539 1.12808,0.69719 1.13767,1.61163 0.0566,5.47266 -1.59834,5.70877 -0.48393,8.73656 3.9336,10.68554 1.70398,0.75178 2.97462,1.99796 2.82422,2.76953 -0.1504,0.77157 -2.67574,3.05624 -5.61133,5.07618 -2.93559,2.01995 -6.02513,5.09154 -6.86523,6.82617 -1.83966,3.79848 -1.0782,6.74529 1.46093,5.65429 0.95786,-0.41157 2.41719,-0.69982 3.24219,-0.64062 3.17365,0.22785 6.57583,0.91247 8.38086,1.6875 2.37169,1.01832 6.85655,-1.32517 13.68555,-7.1543 2.80347,-2.39301 5.67581,-4.35156 6.38281,-4.35156 0.707,0 2.48757,-1.81661 3.95703,-4.03711 1.46946,-2.2205 5.09919,-5.59017 8.06641,-7.48828 2.96722,-1.89811 5.67901,-3.91025 6.02539,-4.4707 0.34638,-0.56045 2.28886,-1.83873 4.3164,-2.8418 2.02753,-1.00308 5.33003,-2.768 7.33985,-3.92188 3.70675,-2.12816 5.68581,-1.95732 3.78906,0.32813 -0.72537,0.87401 -0.70102,1.46332 0.082,1.94726 1.48258,0.9163 5.89556,-3.22554 7.53711,-7.07421 0.71748,-1.68214 3.86197,-5.28214 6.98828,-8 3.1263,-2.71785 6.64358,-6.04665 7.81641,-7.39844 7.04672,-8.12189 12.85335,-13.83853 18.13281,-17.85156 3.3,-2.50841 7.60321,-5.94111 9.5625,-7.62696 1.95929,-1.68586 5.32498,-4.41445 7.47852,-6.06445 2.15354,-1.65 5.55476,-4.4625 7.55859,-6.25 3.54387,-3.16128 5.90039,-4.12123 5.90039,-2.4043 0,0.46476 -0.94694,1.70226 -2.10547,2.75 -1.15852,1.04775 -2.92738,3.51078 -3.92969,5.47461 -1.00232,1.96384 -4.44287,6.4987 -7.64453,10.07617 -3.20166,3.57748 -8.07031,9.1456 -10.82031,12.375 -2.75,3.22941 -8.15464,9.36437 -12.00977,13.63282 -8.26178,9.14755 -11.36617,13.8457 -9.15039,13.8457 1.89856,0 9.66194,-8.14469 19.06446,-20 4.14397,-5.225 9.78494,-11.97716 12.53515,-15.00586 2.75022,-3.02871 6.35818,-7.52871 8.01758,-10 4.60054,-6.85147 13.02129,-17.35774 25.29883,-31.5625 5.39811,-6.24546 7.64757,-8.14202 16.24414,-13.70117 2.7792,-1.79723 5.00572,-3.9957 5.01172,-4.94922 0.006,-0.94351 1.37527,-2.74257 3.04297,-3.99805 1.66769,-1.25549 4.81225,-4.26147 6.98828,-6.67968 6.2675,-6.965 8.64874,-9.10352 10.13476,-9.10352 3.24448,0 2.24022,3.25154 -3.12109,10.10352 -3.09382,3.95403 -5.45989,7.68597 -5.25781,8.29296 0.90006,2.70362 3.44923,1.19609 6.57031,-3.88476 1.85325,-3.01695 4.89075,-7.09894 6.75,-9.07031 1.85924,-1.97137 3.38086,-4.19191 3.38086,-4.93555 0,-0.74364 1.125,-2.69013 2.5,-4.32422 1.375,-1.6341 2.5,-3.67028 2.5,-4.52539 0,-0.85512 1.6875,-2.78972 3.75,-4.29883 2.0625,-1.5091 4.3125,-3.41818 5,-4.24219 0.6875,-0.824 1.25,-1.00348 1.25,-0.40039 0,0.60308 -1.575,2.98109 -3.5,5.28516 -1.925,2.30407 -3.5,4.75761 -3.5,5.45312 0,0.69553 -1.8,3.30927 -4,5.8086 -4.36646,4.96056 -4.79943,6.21683 -2.45312,7.11719 0.85079,0.32648 1.4133,1.38756 1.25,2.35742 -0.16647,0.9886 0.31981,1.76367 1.10742,1.76367 0.77522,0 3.803,-4.67759 6.7539,-10.4375 2.94123,-5.74104 6.21875,-11.36604 7.28321,-12.5 1.06446,-1.13396 2.75109,-3.8625 3.75,-6.0625 3.63909,-8.0147 9.54451,-16.5 11.48242,-16.5 z m 129.05273,1 c 2.25921,0 3.86363,0.2438 3.56641,0.54102 -1.09868,1.09869 -8.98485,1.57988 -8.32227,0.50781 C 742.82709,206.47217 744.96736,206 747.22656,206 Z m -18.41797,1.01562 c 1.28757,-0.009 2.03604,0.42675 1.69141,0.98438 -0.74319,1.2025 -0.63926,1.2025 -2.5,0 -1.20677,-0.77988 -1.04905,-0.97207 0.80859,-0.98438 z m -78.13086,0.22657 c 0.77496,-0.0575 1.10156,0.7592 0.88086,2.50781 -0.1909,1.5125 -0.67424,5.79406 -1.07226,9.51562 -0.39802,3.72157 -1.25607,7.09658 -1.90821,7.5 -0.65213,0.40344 -1.96066,2.40227 -2.9082,4.44141 -2.26456,4.87338 -3.12783,5.26998 -5.06054,2.32031 -2.01744,-3.07894 -2.04128,-5.39149 -0.0801,-7.55859 1.14321,-1.26323 1.2876,-2.3202 0.57617,-4.19141 -0.79476,-2.09038 -0.3971,-3.28078 2.41797,-7.24023 3.32481,-4.67642 5.8627,-7.19906 7.15429,-7.29492 z m -495.26953,3.91406 c 1.0721,0 1.5918,0.28099 1.5918,0.84375 0,0.55 -2.1375,0.94593 -4.75,0.88086 -4.23995,-0.10562 -4.42786,-0.19946 -1.75,-0.88086 2.21162,-0.56276 3.83611,-0.84375 4.9082,-0.84375 z m 311.08789,0.12305 c 0.0802,0.004 0.1426,0.0254 0.1836,0.0664 0.28683,0.28684 0.22237,1.00521 -0.14258,1.59571 -0.92034,1.48914 -6.53711,4.29978 -6.53711,3.27148 0,-1.06319 5.29393,-4.98759 6.49609,-4.93359 z m 159.20703,5.125 c 0.81148,0.0357 1.85577,0.70685 3,2.03711 1.86345,2.16638 2.124,3.06234 1.2129,4.16015 -2.3033,2.77531 -5.91602,0.7952 -5.91602,-3.24218 0,-1.99766 0.6598,-3.00102 1.70312,-2.95508 z m -492.875,2.68359 C 138.56558,219.0746 144,219.38496 144,220.03125 c 0,1.28183 -1.31452,1.85379 -5.60547,2.44141 -2.14156,0.29327 -5.58496,0.93491 -7.65039,1.42578 -2.20904,0.5254 -3.98289,0.52504 -4.30859,-0.002 -0.30453,-0.49274 -1.5391,-0.88886 -2.74414,-0.88086 -1.7408,0.0122 -1.8895,0.20616 -0.72071,0.94532 0.80907,0.51167 1.25907,1.13661 1,1.38867 -0.92043,0.8955 -13.86275,1.33586 -15.15625,0.51562 -0.89176,-0.56548 -0.93571,-0.8392 -0.13672,-0.84961 0.64822,-0.008 1.91911,-0.75699 2.82422,-1.6621 0.90512,-0.90512 2.68145,-1.75949 3.94727,-1.89844 1.26581,-0.13895 3.24142,-0.75515 4.38867,-1.36914 1.21286,-0.64912 7.25278,-0.98476 12.99023,-0.99805 z m 156.25391,1.02344 c 1.0166,0.022 1.91675,0.65918 2.69922,1.91211 1.09317,1.75044 0.93084,2.35628 -1.21289,4.5 -2.44353,2.44354 -3.37503,2.68695 -6.81836,1.78711 -2.36762,-0.61872 -2.20738,-1.61296 0.83984,-5.23438 1.68759,-2.00559 3.18514,-2.99312 4.49219,-2.96484 z M 117.05859,223 C 115.92613,223 115,223.45 115,224 c 0,0.55 0.64887,1 1.44141,1 0.79254,0 1.71867,-0.45 2.05859,-1 0.33992,-0.55 -0.30895,-1 -1.44141,-1 z m 191.76758,0.73242 c 1.82908,0.0791 2.4591,1.26797 1.39844,2.9375 -1.26638,1.99334 -5.87467,2.68446 -6.5293,0.97852 -0.7013,-1.82755 1.16132,-3.51913 4.27539,-3.88086 0.30885,-0.0359 0.59418,-0.0465 0.85547,-0.0352 z m 492.01172,1.20899 c 2.72122,0.0914 4.16255,1.02914 4.1543,2.77734 -0.005,0.98022 0.7743,4.83357 1.73047,8.56445 1.66048,6.47901 1.65675,6.9951 -0.0566,11.5 -6.26906,16.48278 -6.48241,35.76007 -0.66016,59.50977 0.64636,2.63645 0.92262,5.44895 0.61523,6.25 -1.03654,2.70118 -3.23298,1.48726 -9.9414,-5.5 C 791.12681,302.25929 790,300.51327 790,297.70117 c 0,-3.01954 -0.52488,-3.66806 -4.88477,-6.04101 -2.68664,-1.46226 -5.67057,-3.85865 -6.63085,-5.32422 -0.96029,-1.46558 -3.75036,-4.61418 -6.20118,-6.9961 -3.31349,-3.22034 -4.49779,-5.16566 -4.61914,-7.58593 -0.15584,-3.10823 -0.33299,-3.2434 -3.91406,-3.03321 -2.0625,0.12105 -3.75,-0.21645 -3.75,-0.75 0,-0.53356 0.7089,-0.9707 1.57422,-0.9707 4.54946,0 -1.79707,-6.10923 -6.74024,-6.48828 -0.91662,-0.0703 -2.38471,-0.72332 -3.26171,-1.45117 -0.877,-0.72784 -3.0526,-2.10848 -4.83399,-3.06641 -2.49758,-1.34306 -3.23828,-2.39895 -3.23828,-4.61719 0,-2.32383 -0.38434,-2.8111 -2,-2.53515 -1.1,0.18789 -2.15065,0.75039 -2.33398,1.25 -0.49641,1.3528 -2.15617,1.0979 -2.22657,-0.3418 -0.0336,-0.6875 -1.94611,-2.61954 -4.25,-4.29297 -5.96163,-4.33024 -5.67807,-6.77558 0.88086,-7.57617 2.78899,-0.34043 5.93899,-1.08101 7,-1.64648 2.10261,-1.12059 12.61529,-2.73829 24.42969,-3.75782 7.56158,-0.65254 17.80509,-2.79596 21.5,-4.5 1.1,-0.5073 4.74233,-1.533 8.09375,-2.27929 2.51755,-0.56061 4.61141,-0.81071 6.24414,-0.75586 z m -518.66406,5.47265 c 1.83871,0.0717 3.82617,0.99725 3.82617,2.07032 0,0.68776 -1.76171,2.41548 -3.91406,3.83984 -3.27764,2.16903 -4.10026,2.36335 -5.06641,1.19922 -0.88594,-1.0675 -0.77683,-1.96609 0.47266,-3.87305 0.89479,-1.36562 2.23174,-2.71448 2.9707,-2.99805 0.5006,-0.19209 1.09803,-0.26218 1.71094,-0.23828 z M 89.669922,231.01953 C 87.325496,230.94929 85,231.2866 85,231.9375 c 0,0.51515 1.4625,1.11802 3.25,1.33984 1.7875,0.22183 3.786365,0.47448 4.441406,0.5625 1.881361,0.25281 2.467322,-1.56412 0.720703,-2.23437 -0.922863,-0.35414 -2.335532,-0.54379 -3.742187,-0.58594 z m 141.525388,2.57617 c 0.87452,0.0531 1.73193,0.7741 2.25781,2.14453 0.68218,1.77772 -3.98404,7.25977 -6.17968,7.25977 -0.74401,0 -3.11726,0.9 -5.27344,2 -4.14142,2.11279 -7.52125,2.65236 -6.52539,1.04102 0.32627,-0.5279 3.21786,-2.5805 6.42578,-4.56055 3.20793,-1.98004 6.32901,-4.69028 6.93555,-6.02149 0.59345,-1.30247 1.48485,-1.91637 2.35937,-1.86328 z m -23.12109,1.01758 c 2.71344,-0.096 3.04218,1.03875 1.86719,3.47656 -1.39713,2.89871 -11.57763,11.3431 -14.97657,12.42188 -1.33395,0.42338 -3.55967,1.57085 -4.94531,2.55078 -1.85669,1.31306 -5.2813,1.93895 -13.01953,2.37695 -5.775,0.32688 -11.85685,0.84161 -13.51562,1.14453 -1.65878,0.30291 -3.23377,0.34616 -3.5,0.0957 -0.26623,-0.25044 -5.7344,-0.69638 -12.1504,-0.99024 -6.41601,-0.29385 -14.06601,-1.21855 -17,-2.05468 -2.934,-0.83612 -6.90898,-1.93131 -8.83398,-2.43555 -2.14638,-0.56224 -2.91988,-1.11593 -2,-1.43164 4.72605,-1.62203 12.27696,-2.76026 17.67383,-2.66406 3.39532,0.0605 6.59563,-0.15199 7.11133,-0.47071 0.94834,-0.58611 5.1808,-1.09559 17.4707,-2.10547 3.71625,-0.30538 8.66625,-1.19292 11,-1.97265 2.33374,-0.77973 7.16914,-1.92755 10.74414,-2.54883 3.575,-0.62128 9.425,-1.95554 13,-2.9668 5.41044,-1.53046 8.96377,-2.35108 11.07422,-2.42578 z m 112.32422,1.05469 c 0.24714,-0.0191 0.51516,-0.0122 0.8125,0.008 1.54308,0.10401 4.4468,1.94458 7.14844,4.5332 l 4.54882,4.35938 -1.14453,9.77734 c -0.80991,6.92096 -0.83755,10.92331 -0.0976,13.69532 0.57487,2.15385 0.81047,4.15046 0.52343,4.4375 -1.44214,1.44213 -11.30042,-1.31145 -11.97851,-3.34571 C 320.00321,268.5096 319.24558,268 318.52734,268 c -0.71823,0 -2.32556,-0.82642 -3.57226,-1.83594 -1.80241,-1.4595 -2.33354,-3.04707 -2.5918,-7.75 -0.26356,-4.79954 0.29407,-7.51644 2.96094,-14.41406 2.63219,-6.80794 3.3442,-8.19819 5.07422,-8.33203 z m 333.4414,1.83203 0.95313,2.5 c 1.96333,5.15051 2.32119,8.66004 0.99609,9.75977 -0.71503,0.59343 -2.5355,1.38873 -4.04492,1.76757 -2.67864,0.67229 -2.74328,0.58593 -2.73828,-3.66796 0.004,-3.10775 0.69621,-5.22024 2.41797,-7.35938 z m -358.0625,5.33789 c 0.9797,-0.009 1.99734,0.61989 2.58399,1.63867 0.62611,1.08733 1.63739,2.43733 2.24609,3 1.97816,1.8286 4.08358,8.89712 4.29688,14.42383 l 0.20898,5.40039 -6.30664,5.83203 c -5.94487,5.49755 -7.12113,6.07915 -10.80664,5.33203 -0.825,-0.16725 -4.98974,-0.8553 -9.25391,-1.52734 -4.26417,-0.67204 -8.51784,-1.78094 -9.45312,-2.46484 -1.58891,-1.16182 -1.59129,-1.49651 -0.0508,-5.10743 1.51028,-3.54005 3.16929,-10.24335 4.42187,-17.86523 0.85271,-5.18872 2.98118,-7.4831 7.10938,-7.66211 10.74229,-0.46583 12.88059,-0.60474 14.58789,-0.95508 0.13705,-0.0281 0.27606,-0.0436 0.41601,-0.0449 z m 419.31055,0.57031 c 4.70368,0.0779 6.483,0.68608 11.25,3.85157 5.79176,3.84598 7.38011,7.13007 3.91211,8.08789 -2.14637,0.5928 -11.13256,1.83931 -11.49023,1.59375 -0.14245,-0.0978 -2.00316,0.55157 -4.13282,1.4414 -2.12967,0.88984 -4.37967,1.56942 -5,1.51172 -3.24596,-0.30176 -8.85914,-2.68335 -10.72656,-4.55078 -2.11684,-2.11683 -2.1182,-2.12594 -0.13672,-4.10742 1.09236,-1.09236 2.60508,-2.23328 3.36133,-2.53516 1.15176,-0.45973 1.15517,-0.70232 0.0234,-1.49609 -2.07746,-1.45708 6.27352,-3.90734 12.93945,-3.79688 z M 609.02148,246 c 0.43525,0 0.56029,0.88482 0.27735,1.9668 -0.59761,2.28523 -2.70724,4.29079 -3.58789,3.41015 C 604.997,250.66301 607.86785,246 609.02148,246 Z m -529.687496,0.12109 c 0.394847,-0.008 0.922475,0.0189 1.597657,0.0703 2.887664,0.22004 5.668378,1.80859 3.166015,1.80859 -0.561034,0 -1.889747,0.93476 -2.953125,2.07617 -1.134197,1.21741 -2.189891,1.65861 -2.554687,1.06836 -0.342019,-0.5534 -0.142319,-1.30209 0.443359,-1.66406 0.738122,-0.45618 0.698267,-1.09902 -0.128906,-2.0957 -0.750485,-0.90426 -0.754854,-1.23981 0.429687,-1.26368 z m 616.519536,0.0977 c 1.94828,-0.007 2.62518,1.59519 0.79882,3.61328 -0.93526,1.03346 -1.43317,2.57297 -1.10742,3.42188 1.1299,2.94446 -1.46733,2.79575 -3.00195,-0.17188 -2.09596,-4.05313 -1.95761,-4.93494 0.98437,-6.27539 0.88641,-0.40387 1.67675,-0.58564 2.32618,-0.58789 z m -453.84766,0.11133 c 2.16807,-0.075 4.0751,0.42163 6.24219,1.43359 2.47858,1.15742 5.50309,1.80209 7.25195,1.54688 4.0025,-0.5841 6.78733,1.60837 6.70312,5.27539 -0.18487,8.05411 -1.56475,14.33299 -3.74609,17.03906 -2.14227,2.6576 -2.49167,2.76923 -4.63672,1.46094 -1.27585,-0.77815 -4.57031,-1.54109 -7.32031,-1.69336 -2.75,-0.15227 -8.15,-0.76375 -12,-1.35938 -10.79667,-1.67036 -10.90949,-1.66771 -11.2793,0.1543 -0.70741,3.48539 7.81386,6.65449 19.56836,7.27734 2.9089,0.15414 5.54028,0.53051 5.84766,0.83789 0.30737,0.3074 1.18971,0.31744 1.96094,0.0215 0.77122,-0.29595 1.40234,-0.0749 1.40234,0.49023 0,0.56514 -1.42892,1.34094 -3.17578,1.72461 -3.58633,0.78769 -8.82977,3.5735 -16.67383,8.85742 -5.84074,3.93444 -5.93224,3.96192 -8.2207,2.62305 -1.61218,-0.94322 -10.6881,-3.02037 -23.92969,-5.47851 -4.125,-0.76576 -12,-1.67592 -17.5,-2.02344 -11.7527,-0.74261 -16.5,-1.45842 -16.5,-2.48438 0,-0.82753 17.53883,-11.03317 18.96094,-11.0332 1.25518,0 7.53604,-3.96135 11.49414,-7.25 1.8204,-1.5125 3.65656,-2.75 4.08203,-2.75 0.42548,0 2.25001,-1.125 4.05273,-2.5 1.80272,-1.375 4.16867,-2.5 5.25977,-2.5 1.0911,0 4.08419,-0.9 6.65039,-2 2.5662,-1.1 5.69801,-2 6.95898,-2 1.26096,0 4.76627,-1.09287 7.78907,-2.42969 4.75278,-2.1019 7.97028,-3.14377 10.75781,-3.24023 z m 425.00195,9.20312 c 0.0243,-0.004 0.0475,0.001 0.0703,0.0156 0.44241,0.27342 0.6116,2.17473 0.375,4.22461 -0.23659,2.04989 -0.6097,5.75156 -0.83007,8.22656 -0.48698,5.46922 -2.03054,9.76761 -2.96485,8.25586 -0.36951,-0.59788 -0.24385,-2.21384 0.2793,-3.58984 0.52316,-1.376 0.94164,-3.32634 0.93164,-4.33399 -0.0424,-4.29355 1.38447,-12.68928 2.13867,-12.79883 z M 722.05859,259 c 1.06754,0 1.94141,0.45 1.94141,1 0,0.55 -1.15113,1 -2.55859,1 -1.45136,0 -2.29193,-0.43284 -1.94141,-1 0.33992,-0.55 1.49105,-1 2.55859,-1 z M 717,260 c 0.55,0 1,0.45 1,1 0,0.55 -0.45,1 -1,1 -0.55,0 -1,-0.45 -1,-1 0,-0.55 0.45,-1 1,-1 z m 17.0625,2.26758 c 4.23553,-0.0201 8.63707,0.33673 13.19727,1.07031 2.13462,0.34338 10.74023,8.37152 10.74023,10.01953 0,0.64737 -2.01475,3.47876 -4.47656,6.29297 -7.78829,8.90319 -21.69662,13.77014 -26.9336,9.42383 C 725.25212,287.96401 722,288.5755 722,289.9375 c 0,3.17235 14.75844,5.18373 38,5.17773 16.48205,-0.004 22.00078,0.553 22,2.22266 -0.001,2.20856 -9.06216,10.47133 -16.00781,14.59766 -6.30464,3.74552 -7.74925,4.18338 -15.13672,4.59179 -7.82951,0.43284 -9.78346,0.87866 -8.68359,1.97852 1.83017,1.83017 43.72041,2.09029 50.94921,0.31641 2.54198,-0.62378 5.4226,-0.82834 6.40039,-0.45313 1.5095,0.57925 1.12561,1.24432 -2.54492,4.40625 C 788.72918,329.87998 772.97428,337 765.5,337 c -2.28881,0 -3.77391,0.55167 -4.1543,1.54297 -0.85299,2.22285 -0.16664,2.50917 3.71094,1.55078 1.89407,-0.46815 6.14336,-1.40773 9.44336,-2.08984 6.86614,-1.41922 13.42378,-4.22882 21.94141,-9.39844 3.26765,-1.98324 6.47708,-3.60547 7.13281,-3.60547 2.09724,0 2.31544,5.17941 0.75976,18 -0.83422,6.875 -1.45114,14.85946 -1.37304,17.74219 0.0781,2.88273 -0.51427,6.70773 -1.31641,8.5 -0.80215,1.79227 -1.98019,8.17925 -2.61719,14.19531 -0.637,6.01607 -1.59562,11.75357 -2.1289,12.75 -1.19065,2.22474 -0.87813,2.31893 -4.00782,-1.19922 -1.43559,-1.61377 -5.37309,-5.88811 -8.75,-9.49805 -6.49459,-6.94275 -7.39358,-8.62996 -4.14062,-7.77929 3.68131,0.96269 2.23777,-3.16539 -2.75,-7.86328 -4.22538,-3.97981 -12.91269,-13.34325 -24.9082,-26.84766 -2.19846,-2.475 -6.20338,-7.65 -8.90039,-11.5 -2.69701,-3.85 -5.24908,-7.15065 -5.67188,-7.33398 C 737.34673,323.98268 737,323.40339 737,322.87695 c 0,-1.02513 -1.05662,-2.57159 -10.75,-15.72656 -3.4375,-4.66506 -6.25381,-9.42009 -6.25781,-10.56641 -0.008,-2.44246 -4.00071,-14.51614 -6.91797,-20.91992 -1.11801,-2.45417 -3.61206,-5.95215 -5.54297,-7.77344 -4.13915,-3.90414 -3.46527,-5.26412 1.87695,-3.78906 2.99163,0.82603 5.76099,0.68263 12.44922,-0.64453 3.89943,-0.77377 7.96955,-1.16933 12.20508,-1.18945 z M 564.17773,268 c -0.80843,0 -3.54034,3.1005 -10.57226,12 -6.66249,8.43195 -21.39012,24 -22.70508,24 -0.49488,0 -0.90039,0.52972 -0.90039,1.17773 0,0.64801 -3.375,4.64594 -7.5,8.88477 -4.53959,4.66487 -7.5,8.54221 -7.5,9.82227 0,3.01307 1.50574,2.61795 4.14453,-1.08789 2.65638,-3.73055 15.439,-17.27315 28.52539,-30.22266 5.51863,-5.46091 10.19054,-11.11108 11.73438,-14.18945 1.41085,-2.81321 3.24671,-5.68141 4.08008,-6.37305 C 565.09383,270.67599 565.55645,268 564.17773,268 Z m 199.25586,10 c 1.72917,0 14.0583,12.84088 13.17579,13.72266 C 775.15686,293.17395 746,292.56935 746,291.08789 c 0,-0.44467 2.82083,-2.63227 6.26758,-4.86133 3.44674,-2.22906 7.1158,-4.99309 8.1543,-6.14062 C 761.46037,278.93842 762.81544,278 763.43359,278 Z m -286.375,11 c 0.58246,0 0.78133,0.45 0.44141,1 -0.33992,0.55 -0.81605,1 -1.05859,1 C 476.19887,291 476,290.55 476,290 c 0,-0.55 0.47613,-1 1.05859,-1 z m 308.87891,14.07227 c 1.30687,0.0366 3.24975,1.74368 6.49609,5.5039 2.93003,3.39384 4.45438,5.93625 3.89453,6.4961 -0.50594,0.50594 -3.41942,1.38284 -6.47265,1.94726 -6.34711,1.17334 -19.70755,1.93372 -21.67774,1.23438 -0.9729,-0.34535 -0.72873,-1.10226 0.92383,-2.86133 1.23609,-1.31576 2.63763,-2.39258 3.11524,-2.39258 1.06328,0 11.39169,-7.55814 12.26953,-8.97852 0.39409,-0.63765 0.85714,-0.96584 1.45117,-0.94921 z m -272.52734,25.0664 c -0.44807,-0.0363 -1.18736,0.20751 -2.22657,0.76367 -2.26216,1.21067 -9.18359,9.51268 -9.18359,11.01563 0,2.50675 2.88525,0.70668 7.78125,-4.85547 3.6925,-4.1949 4.97311,-6.81502 3.62891,-6.92383 z m 300.00586,5.48633 c 0.7773,-0.0339 1.64376,0.9738 3.7539,3.56836 1.9261,2.36826 4.3526,5.65664 5.39258,7.30664 1.03998,1.65 4.15118,6.13546 6.91406,9.9668 6.87079,9.52786 12.89411,18.9635 16.29883,25.5332 1.5677,3.025 3.38425,6.5125 4.03711,7.75 0.65287,1.2375 1.65987,3.18033 2.23828,4.31836 0.57841,1.13803 4.04451,7.77553 7.70117,14.75 9.49422,18.10863 13.23033,25.84491 15.78711,32.68164 1.23412,3.3 3.64601,9.31709 5.35938,13.37109 1.71337,4.054 3.33605,8.554 3.60547,10 0.26942,1.446 1.16028,5.10391 1.98047,8.12891 0.82018,3.025 1.4969,6.48637 1.5039,7.69141 0.007,1.20504 -0.38586,2.43643 -0.87109,2.73632 -1.59442,0.98541 -8.94287,-5.77161 -16.06641,-14.77148 -7.0203,-8.86943 -15.58459,-17.36208 -22.72656,-22.53711 -2.103,-1.52383 -5.17422,-4.08662 -6.82422,-5.69531 -1.65,-1.60869 -4.8,-4.2408 -7,-5.84961 -2.2,-1.6088 -4.675,-3.52423 -5.5,-4.25586 -0.825,-0.73164 -3.73823,-3.24011 -6.47461,-5.57422 -4.40698,-3.75912 -6.3247,-5.61469 -10.02539,-9.70312 -0.55,-0.60763 -2.82938,-2.7774 -5.06641,-4.82227 -4.65843,-4.25829 -7.25073,-9.52805 -5.64062,-11.46875 0.56997,-0.68701 1.32234,-3.275 1.67187,-5.75 0.34954,-2.475 0.80869,-5.175 1.02149,-6 0.2128,-0.825 0.66613,-4.65 1.00586,-8.5 0.33973,-3.85 1.02964,-8.8 1.5332,-11 0.50356,-2.2 1.39221,-9.625 1.97461,-16.5 0.82477,-9.73593 1.4578,-12.90005 2.86328,-14.30664 0.65239,-0.6529 1.08635,-1.04802 1.55274,-1.06836 z m -367.88868,0.0176 c 0.54946,0.003 1.07533,0.15302 1.52735,0.45117 1.18225,0.77982 0.89792,1.40533 -1.55469,3.42578 -1.65,1.35927 -3.48454,2.47161 -4.07617,2.47461 -0.59162,0.003 -2.13208,1.13086 -3.42383,2.50586 -2.18775,2.32875 -6.57888,3.56193 -5.83398,1.63867 0.4314,-1.11385 9.41104,-8.84209 11.6914,-10.0625 0.54732,-0.29293 1.12047,-0.43646 1.66992,-0.43359 z m 22.28516,22.56445 c -1.19205,0.14562 -2.8125,1.33464 -2.8125,2.40039 0,0.76615 0.39429,1.39258 0.87695,1.39258 1.16161,0 3.54656,-2.90852 2.90821,-3.54688 -0.2264,-0.22639 -0.57531,-0.29463 -0.97266,-0.24609 z m -59.33203,14.23438 c 1.16733,0.019 1.39569,1.03827 -0.0703,2.6582 -1.75188,1.9358 -5.41016,2.62251 -5.41016,1.01562 0,-0.48674 1.1368,-1.6299 2.52734,-2.54101 1.21355,-0.79515 2.25273,-1.14422 2.95313,-1.13281 z" id="path12"/>
</svg>
