<?xml version="1.0" encoding="utf-8"?>
<svg xmlns="http://www.w3.org/2000/svg" version="1.1" viewBox="0 0 671 642">
	<path d="m 260.5,626.30536 c -2.75,-0.15553 -10.05095,-0.76889 -16.22432,-1.36304 -6.17338,-0.59414 -16.60865,-1.08025 -23.18949,-1.08025 -13.64412,0 -13.24028,0.31728 -11.91618,-9.36207 0.37619,-2.75 0.71684,-7.29535 0.75699,-10.10078 0.15146,-10.58317 1.13351,-11.47173 19.70554,-17.82978 16.85062,-5.76874 21.79722,-7.75717 23.86746,-9.59423 2.63118,-2.33483 15.31611,-8.72287 18.5,-9.31647 1.375,-0.25636 4.975,-1.38142 8,-2.50014 5.8488,-2.16303 12.4217,-3.07024 13.61303,-1.8789 1.25537,1.25537 16.88328,0.82399 18.20992,-0.50265 0.67262,-0.67262 2.68651,-1.09685 4.47532,-0.94274 1.78881,0.15412 4.59098,-0.41778 6.22705,-1.27089 1.63608,-0.8531 3.48543,-1.55387 4.10967,-1.55726 1.99692,-0.0108 4.63805,-4.97225 3.42498,-6.4339 -1.00288,-1.2084 -7.18907,-2.3838 -16.55997,-3.14647 -2.2,-0.17905 -6.37556,-1.1356 -9.27901,-2.12567 -6.4183,-2.18861 -7.51831,-4.66946 -4.16104,-9.38432 3.5443,-4.9775 8.95178,-6.79706 21.63545,-7.28008 10.43542,-0.39741 15.3046,-1.55089 15.3046,-3.62559 0,-1.00491 -5.03344,-2.0492 -9,-1.86724 -8.18063,0.37527 -26.59874,-4.3264 -35.77646,-9.13281 l -4.27647,-2.2396 4.77647,-2.55027 C 297.5366,508.65039 314.00948,503 316.68832,503 c 0.79374,0 2.34263,-0.48138 3.44199,-1.06974 3.28539,-1.75829 0.55409,-3.56032 -5.78504,-3.81678 -3.13239,-0.12673 -6.5258,-0.67491 -7.54093,-1.21819 -1.01512,-0.54328 -2.30852,-0.70172 -2.87422,-0.3521 -0.5657,0.34962 -4.2689,-0.0845 -8.22933,-0.96468 -7.39415,-1.64333 -9.64134,-2.10287 -15.70079,-3.21077 -1.925,-0.35196 -5.52142,-1.70369 -7.99204,-3.00383 C 269.53733,488.06376 266.69689,487 265.69585,487 260.93634,487 242.82046,480.37696 237.97088,476.86395 235.79642,475.28878 233.81098,474 233.55879,474 c -0.46458,0 -5.34257,-3.12157 -15.84018,-10.13659 C 214.53884,461.73854 211.57567,460 211.13379,460 c -0.44189,0 -3.91526,-3.69058 -7.71861,-8.2013 -8.45452,-10.02693 -18.19078,-20.87579 -20.20179,-22.51033 -1.68654,-1.37081 -2.83042,-3.25432 -7.15921,-11.78837 -1.67389,-3.3 -5.7367,-9.72869 -9.02848,-14.28597 -9.08722,-12.58077 -14.57934,-26.98988 -18.09017,-47.46132 -0.44778,-2.61102 -1.02275,-5.08602 -1.2777,-5.5 -0.25496,-0.41399 0.0715,-5.79816 0.7254,-11.96482 0.65392,-6.16665 0.86744,-12.08123 0.47448,-13.1435 -0.55778,-1.50783 -2.10082,-2.09029 -7.03609,-2.65595 -5.82297,-0.66741 -24.66403,-7.29577 -27.57162,-9.69981 -0.6875,-0.56844 -1.25,-2.49846 -1.25,-4.28895 0,-4.71189 -3.03214,-11.15814 -11.99434,-25.49968 -0.51555,-0.825 -2.62243,-4.5375 -4.68195,-8.25 -2.059519,-3.7125 -4.081674,-6.75 -4.493676,-6.75 -0.412003,0 -1.828265,-1.16383 -3.147248,-2.5863 -2.212891,-2.3865 -2.698841,-2.50281 -6.290469,-1.50558 -2.140774,0.5944 -7.139159,1.08324 -11.107521,1.0863 -6.652158,0.005 -7.49174,-0.23722 -10.758912,-3.10584 -5.860377,-5.14548 -5.678031,-9.10033 0.681584,-14.78265 2.947562,-2.63364 2.995434,-2.81251 1.515585,-5.66274 -1.913582,-3.68561 -5.370073,-6.22245 -14.018332,-10.28856 -8.421807,-3.95963 -18.191038,-5.53731 -21.373957,-3.45179 -2.012521,1.31866 -2.329401,1.22887 -3.849202,-1.09064 -1.146979,-1.75051 -1.64144,-4.6158 -1.608325,-9.31989 C 21.940314,207.76343 23.030953,207 36.576857,207 c 6.845081,0 11.468466,0.48961 13.639216,1.44438 1.80616,0.79441 4.92621,1.70632 6.933444,2.02646 2.007234,0.32015 4.199835,1.24518 4.872445,2.05562 0.67261,0.81045 2.180327,1.47896 3.350483,1.48559 1.170155,0.007 4.152555,1.18387 6.627555,2.61609 6.465128,3.74124 14.849313,8.37224 19.647839,10.85248 4.010019,2.07268 6.919716,4.2285 15.406891,11.41509 3.644,3.08559 4.25332,3.28496 6.67179,2.18303 1.46386,-0.66697 6.44828,-1.64296 11.0765,-2.16885 9.97196,-1.13309 12.01152,-2.02691 11.68984,-5.12295 -0.13069,-1.25782 -0.36768,-2.51194 -0.52665,-2.78694 -0.15896,-0.275 -0.32889,-3.65 -0.37762,-7.5 l -0.0886,-7 -6.99386,0.29386 c -3.84663,0.16163 -7.3573,0.6573 -7.80149,1.10149 -1.33947,1.33947 -5.66441,1.9e-4 -7.23346,-2.23994 C 110.386,211.25069 112.65238,208 118.80852,208 c 1.61701,0 4.78492,-0.65092 7.0398,-1.44649 2.46822,-0.87084 4.33257,-1.06982 4.68474,-0.5 0.75912,1.22829 4.46693,1.23286 4.46693,0.006 0,-0.51754 -0.42137,-1.2014 -0.93637,-1.51969 -0.515,-0.31829 -0.917,-1.35735 -0.89332,-2.30902 0.0237,-0.95167 -0.53207,-3.13572 -1.23499,-4.85344 -1.21869,-2.97814 -1.10636,-3.29989 2.41956,-6.93041 2.03366,-2.094 3.95956,-4.85109 4.27976,-6.12687 1.0275,-4.0939 4.80077,-2.97502 9.34211,2.77021 4.02081,5.08671 4.86085,7.67155 3.07444,9.4602 -0.52185,0.5225 -1.2649,2.92836 -1.65122,5.34636 l -0.70239,4.39636 2.90121,-0.73761 c 2.3616,-0.60042 10.4736,-1.73304 26.40121,-3.68623 2.70917,-0.33223 5,0.11591 5,0.97811 0,2.13978 -6.50845,7.15301 -9.28643,7.15301 -0.72246,0 -1.81841,0.50484 -2.43545,1.12188 -0.64121,0.64121 -4.97594,1.17677 -10.11731,1.25 -4.9475,0.0705 -9.36552,0.49848 -9.81783,0.95115 -0.4523,0.45267 -1.10688,4.50267 -1.45461,9 -0.49292,6.37516 -0.31531,8.541 0.80603,9.82901 0.79105,0.90862 1.29592,2.46903 1.12193,3.46758 -0.38884,2.23169 2.9445,3.11224 12.18367,3.21851 9.9243,0.11415 15.0716,-1.19053 17.73089,-4.49424 4.37314,-5.43288 18.79808,-21.62301 23.8056,-26.71871 5.19161,-5.28304 23.59,-20.73476 25.74793,-21.62417 2.2361,-0.92163 13.20281,-8.17133 14.21558,-9.39741 0.55,-0.66585 3.67879,-2.10057 6.95286,-3.18827 l 5.95285,-1.97763 -0.27181,-5.1212 c -0.25526,-4.80931 -0.0545,-5.29462 3.29711,-7.96885 2.25728,-1.80108 3.56894,-3.7046 3.56896,-5.17935 6e-5,-4.97227 16.59096,-22.1683 21.38819,-22.1683 1.2291,0 3.10707,-0.81022 4.17328,-1.80049 3.40608,-3.16348 5.8136,-3.89978 16.21395,-4.95874 9.24841,-0.94166 9.68409,-2.0697 1.97461,-5.11251 -2.00912,-0.79297 -2.75,-1.78059 -2.75,-3.66584 0,-1.41925 -0.41891,-2.32156 -0.9309,-2.00513 -0.512,0.31644 -1.19434,0.14909 -1.51631,-0.37188 -0.32198,-0.52097 -0.10622,-1.24337 0.47946,-1.60534 0.69237,-0.42791 0.72707,-1.06514 0.0992,-1.82169 -1.16918,-1.40878 0.14021,-9.41517 2.47905,-15.15838 2.90306,-7.128705 3.82669,-8.725901 7.13418,-12.336837 C 315.5351,80.208464 317,78.319335 317,77.965098 c 0,-0.354237 1.16922,-1.1768 2.59827,-1.827918 1.42904,-0.651117 4.78457,-3.027372 7.45673,-5.280566 4.10202,-3.458879 4.96496,-4.80689 5.54247,-8.658048 0.71385,-4.760239 3.63494,-10.806876 6.25537,-12.948566 2.60996,-2.133127 9.07093,-1.556439 11.2036,1 1.03236,1.2375 1.89199,2.634648 1.91029,3.104773 0.0183,0.470125 1.0894,2.957487 2.38023,5.52747 1.29083,2.569984 2.64644,6.269035 3.01246,8.220115 0.51261,2.732438 1.40657,3.87482 3.8912,4.972529 1.77414,0.783812 3.75772,2.508199 4.40796,3.831971 0.65024,1.323772 2.55238,2.982956 4.22699,3.687075 2.0376,0.856745 3.24739,2.210679 3.65738,4.093142 0.33695,1.547109 1.0118,3.712925 1.49966,4.812925 2.0171,4.548065 4.8977,13.91914 5.48737,17.85137 0.55652,3.7111 0.20803,4.83696 -2.94945,9.52896 -1.96929,2.92636 -3.58053,5.54966 -3.58053,5.82957 0,0.2799 1.575,0.32504 3.5,0.10031 1.925,-0.22474 3.5,-0.049 3.5,0.39059 0,1.306 1.74437,0.91198 3.43144,-0.7751 1.43241,-1.4324 1.62876,-1.4324 2.17842,0 0.33227,0.86586 1.21279,1.5743 1.95673,1.5743 1.63979,0 9.43341,7.46847 9.43341,9.03986 0,0.71507 1.04893,0.88867 2.90562,0.48087 2.68729,-0.59023 3.11222,-0.2586 5.65492,4.41317 2.40438,4.41764 4.95808,6.76638 11.37859,10.46535 2.3951,1.37986 11.31257,12.09074 13.59271,16.32637 5.10695,9.48677 6.71897,11.33444 12.11675,13.888 2.98238,1.41089 6.12233,3.63332 6.97767,4.93873 1.71466,2.61691 17.51493,15.65525 23.24436,19.1812 1.99616,1.22845 5.24109,2.24095 7.21097,2.25 3.18343,0.0146 3.96159,0.5814 7,5.09846 1.88012,2.79511 4.2234,6.64974 5.20728,8.56584 1.20652,2.3497 2.34591,3.35537 3.5,3.08923 0.94112,-0.21704 3.12052,0.63573 4.84311,1.89503 7.47649,5.46569 15.42168,6.71619 17.98525,2.83071 1.17576,-1.78204 0.98505,-2.79639 -1.5228,-8.09922 -2.11464,-4.47141 -3.18669,-8.87609 -4.08568,-16.78659 -1.18031,-10.38598 -1.15233,-10.79527 0.88623,-12.96522 1.15776,-1.23238 2.10502,-3.24806 2.10502,-4.4793 0,-3.97228 4.57443,-9.12781 12.58993,-14.18928 4.30553,-2.71876 8.52165,-5.00064 9.36915,-5.07083 0.84751,-0.0702 2.66592,-0.28613 4.04092,-0.47987 15.23176,-2.14608 31.77331,-0.5728 39.83503,3.78875 11.88152,6.42814 22.05176,16.15747 23.92765,22.8903 0.52537,1.88564 2.10337,6.35344 3.50666,9.92844 1.49675,3.81309 3.00785,10.54837 3.65557,16.29356 0.60727,5.38646 1.18743,10.11146 1.28923,10.5 0.10181,0.38854 -0.20532,4.08144 -0.68251,8.20644 -0.47719,4.125 -0.94513,8.625 -1.03988,10 -0.25408,3.68732 -2.51263,11.93161 -4.52022,16.5 -3.08063,7.01017 -7.09836,15.921 -8.30402,18.41734 -0.64213,1.32954 -3.64251,3.9958 -6.66751,5.92502 -6.17477,3.93803 -18.71072,13.69381 -21,16.3427 -0.825,0.9546 -3.75,2.85197 -6.5,4.21638 -2.75,1.3644 -5.82231,3.45305 -6.82737,4.64144 -1.40097,1.65653 -2.45098,2.00057 -4.5,1.47446 -4.9946,-1.28243 -17.66161,-1.68802 -20.35321,-0.6517 -2.82756,1.08866 -7.32191,9.3825 -6.39426,11.79992 0.26812,0.69871 0.0571,1.53636 -0.46883,1.86143 -1.58416,0.97906 -1.07983,4.05127 0.96951,5.90589 1.89398,1.71403 11.04839,3.17074 16.79848,2.67308 1.55215,-0.13433 4.55739,-5.84112 3.75753,-7.13533 C 549.15191,326.43678 549.35288,326 549.92844,326 c 0.57556,0 2.14771,-1.74448 3.49367,-3.87661 2.23142,-3.5348 2.93944,-3.93812 8.0298,-4.57411 4.41236,-0.55129 6.35155,-0.31513 9.25081,1.12661 6.51041,3.23747 7.76902,6.15338 6.83024,15.82411 -0.21356,2.2 -0.42084,4.61449 -0.46063,5.36552 -0.11463,2.16406 -8.198,9.00317 -11.49773,9.72791 -1.64849,0.36207 -7.42565,2.41371 -12.83814,4.55919 -5.41249,2.14548 -10.2363,3.6565 -10.71958,3.35782 -0.48327,-0.29869 -1.17468,-0.0641 -1.53645,0.52122 -0.60964,0.98643 -5.06164,0.75557 -12.63906,-0.65538 -2.86223,-0.53296 -1.82334,-2.06324 -14.00114,20.62372 -1.62374,3.025 -3.7633,6.85 -4.75456,8.5 -2.16164,3.59812 -4.45502,7.66421 -9.58844,17 -2.11698,3.85 -5.00739,8.57678 -6.42314,10.50395 -1.41575,1.92717 -3.02409,4.23416 -3.57409,5.12665 -9.42786,15.2986 -36.50948,42.08056 -51.83765,51.26405 -1.73929,1.04205 -5.86235,3.58439 -9.16235,5.64963 -12.94075,8.09874 -29.37286,14.25824 -42.5,15.93095 -18.86975,2.40445 -29,5.17833 -29,7.94083 0,1.52236 4.90929,2.79951 18.24443,4.7463 2.05944,0.30066 3.51185,0.92297 3.22759,1.38291 -0.28426,0.45994 1.04581,0.58268 2.95571,0.27274 3.07369,-0.49879 3.5437,-0.28003 4.092,1.90456 0.34069,1.35744 0.47563,4.21104 0.29986,6.34134 -0.24625,2.98442 -0.89329,4.14106 -2.81959,5.04026 -4.15008,1.93727 -9.31699,3.61918 -12.65563,4.11961 -1.73559,0.26015 -4.66059,1.74513 -6.5,3.29995 -3.28347,2.77548 -3.30795,2.85534 -1.34437,4.38539 1.1,0.85714 3.8,2.05609 6,2.66433 2.2,0.60825 6.39791,2.46883 9.32869,4.13464 4.80453,2.73081 5.26529,3.28759 4.68419,5.66032 -0.89837,3.66824 -2.06748,4.52679 -9.78229,7.18377 -3.72317,1.28226 -6.6121,2.80328 -6.41985,3.38005 0.19226,0.57677 1.98229,1.50677 3.97785,2.06666 1.99557,0.5599 4.187,1.5767 4.86985,2.25955 0.68286,0.68286 1.67863,1.24156 2.21282,1.24156 0.53419,0 1.68169,0.62157 2.55,1.38128 1.58023,1.38258 26.744,5.37623 34.81272,5.525 6.28173,0.11582 12.30229,1.69587 17.47237,4.58549 5.3651,2.99861 6.66393,4.37644 7.66935,8.13584 0.68122,2.5472 1.33028,2.8557 8.5866,4.08135 11.8762,2.00597 18.22953,4.14061 21.27929,7.14958 1.51713,1.49683 4.35032,3.46676 6.296,4.37761 1.94567,0.91085 5.1792,3.48474 7.18561,5.71976 3.47572,3.87172 3.58052,4.1931 2.21858,6.80388 -0.7862,1.50712 -1.43223,4.11111 -1.43562,5.78666 l -0.006,3.04645 6.25,-0.30011 c 3.4375,-0.16507 13.45,-0.74075 22.25,-1.27929 8.8,-0.53855 23.2,-1.02602 32,-1.08327 8.8,-0.0573 18.475,-0.2534 21.5,-0.43589 3.025,-0.18248 15.4,-0.6016 27.5,-0.93137 21.22853,-0.57857 46.13198,-2.21749 47.61419,-3.13354 0.39489,-0.24406 1.88074,-0.002 3.30189,0.53867 2.41555,0.91838 2.58392,1.40918 2.58392,7.5319 0,6.16666 -0.15507,6.60846 -2.65289,7.55813 -1.72448,0.65565 -32.74158,0.93741 -88.63004,0.80514 l -85.97714,-0.20349 -3.61997,-3.32511 c -1.99098,-1.82881 -4.14984,-3.32726 -4.79748,-3.32989 -0.64764,-0.003 -2.22804,1.33753 -3.51201,2.97814 -1.94536,2.48571 -3.11663,3.01251 -7.02674,3.16041 -2.64869,0.10018 -5.37835,-0.39193 -6.26761,-1.12995 -1.21312,-1.0068 -2.14348,-1.04857 -4.04615,-0.18165 -1.65236,0.75287 -13.15339,1.15887 -34.72039,1.22568 -17.73727,0.0549 -34.94958,0.2669 -38.24958,0.47101 -7.71439,0.47715 -100.40082,1.15016 -107,0.77694 z m 101.63098,-7.86956 c 6.94704,-0.80188 19.77204,-1.69062 28.5,-1.97498 8.72796,-0.28437 17.21902,-0.72381 18.86902,-0.97654 2.85234,-0.4369 9.59353,-1.12167 19.5,-1.98081 12.65321,-1.09735 31.73831,-3.36956 33.5,-3.9884 6.02327,-2.1158 7.5,-2.84821 7.5,-3.71972 0,-0.52911 -0.5625,-0.76126 -1.25,-0.51589 -0.6875,0.24537 -2.375,-0.11306 -3.75,-0.79652 -1.99889,-0.99356 -6.20822,-0.97232 -21,0.10597 -10.175,0.74174 -20.075,1.66341 -22,2.04817 -1.925,0.38475 -3.79568,0.63775 -4.15706,0.56221 -0.36139,-0.0755 -6.88639,0.26919 -14.5,0.76606 -7.61362,0.49686 -21.71794,1.18794 -31.34294,1.53573 -9.625,0.34779 -19.3,0.82329 -21.5,1.05667 -2.2,0.23338 -6.925,0.65429 -10.5,0.93535 -20.88285,1.64181 -21.42715,1.76547 -20.66136,4.69384 0.3597,1.3755 -0.0379,2.60387 -1.0923,3.37488 -2.23218,1.63221 26.34009,0.89908 43.88464,-1.12602 z m -63.94721,-0.6989 c 0.43208,-0.6803 0.80618,-0.7869 0.83133,-0.2369 0.0251,0.55 0.50439,0.2125 1.065,-0.75 0.5606,-0.9625 1.67192,-1.75 2.46959,-1.75 0.79767,0 1.45012,-0.5625 1.44989,-1.25 -3.2e-4,-0.95566 -5.23951,-1.30397 -22.25,-1.47921 C 269.51231,612.14473 255.45,611.72367 250.5,611.3351 c -13.69625,-1.07513 -31.78232,-0.98236 -32.1484,0.1649 -0.868,2.72022 1.62757,3.67547 10.50318,4.02038 5.02399,0.19524 9.51146,0.58793 9.97216,0.87266 0.46069,0.28473 9.34748,0.78215 19.74841,1.10539 10.62709,0.33027 19.35186,1.03223 19.91772,1.60251 1.4162,1.42729 18.67727,0.23155 19.6907,-1.36404 z M 303,617 c 0,-0.55 -0.19844,-1 -0.44098,-1 -0.24254,0 -0.7191,0.45 -1.05902,1 -0.33992,0.55 -0.14148,1 0.44098,1 0.58246,0 1.05902,-0.45 1.05902,-1 z m 6.84369,-1.93418 c 0.32848,-2.32651 0.24244,-2.36695 -1.9452,-0.91442 -3.26647,2.16886 -3.66362,4.09364 -0.75987,3.68275 1.61891,-0.22909 2.46944,-1.09951 2.70507,-2.76833 z M 398.5,603.44161 c 6.05,-0.29048 14.825,-0.74519 19.5,-1.01045 4.675,-0.26526 13.9,-0.72899 20.5,-1.0305 6.6,-0.30152 12.9,-0.93589 14,-1.40972 1.1,-0.47382 5.03277,-1.15094 8.73948,-1.50469 3.70671,-0.35375 6.98526,-1.04087 7.28566,-1.52693 0.71093,-1.15031 -5.79428,-5.42081 -11.52514,-7.56595 -5.91101,-2.21257 -48.83577,-2.69314 -59,-0.66053 -5.75095,1.15005 -15.33414,1.34694 -50.5,1.03752 -2.2,-0.0194 -5.125,0.0888 -6.5,0.24034 -2.78338,0.30677 -19.65321,-0.85275 -22,-1.51212 -0.825,-0.2318 -7.8,-0.89918 -15.5,-1.48307 -31.728,-2.40593 -32.63489,-2.51678 -36.36334,-4.44484 -1.5857,-0.82 -3.05264,-1.32606 -3.25988,-1.12459 -0.20723,0.20147 -2.85178,0.66273 -5.87678,1.02502 -6.45139,0.77263 -13.08458,2.3887 -14.5,3.53267 -0.55,0.44452 -2.35,1.03887 -4,1.32077 -3.48469,0.59536 -13.32299,3.97518 -16.46296,5.65564 -1.40603,0.75248 -2.05011,1.91587 -1.84772,3.33748 0.26971,1.89453 0.97008,2.19549 5.31068,2.28208 6.38781,0.12742 29.32246,1.37308 36.5,1.98244 10.97512,0.93177 22.68806,1.63356 31.5,1.88734 4.95,0.14255 9.675,0.51888 10.5,0.83629 0.825,0.3174 2.4,0.80601 3.5,1.08581 2.31224,0.58814 73.64755,-0.16485 90,-0.95001 z M 387.23879,586.107 c 2.34367,-0.49858 11.46121,-1.23639 20.26121,-1.63958 20.15063,-0.92326 27.92599,-1.30744 28.27305,-1.39698 0.15018,-0.0387 -0.49886,-1.24853 -1.4423,-2.68841 -2.4546,-3.74619 -9.365,-6.47385 -14.60975,-5.76673 -2.32155,0.313 -8.721,0.0582 -14.221,-0.56617 -5.5,-0.62439 -12.475,-1.3873 -15.5,-1.69534 -3.025,-0.30805 -7.3,-1.22055 -9.5,-2.0278 -2.2,-0.80724 -5.39259,-1.93987 -7.09465,-2.51695 C 370.55379,566.84222 364,558.72989 364,556.16703 c 0,-0.52418 -0.68941,-1.2176 -1.53201,-1.54094 -1.00928,-0.3873 -1.84125,0.22547 -2.43832,1.79587 -1.18426,3.11485 -1.54449,3.29374 -9.10274,4.52058 -4.62379,0.75051 -8.06651,0.72295 -12.27088,-0.0983 -5.68297,-1.11001 -5.90335,-1.07109 -8,1.41293 -3.49526,4.14102 -5.8735,4.80133 -15.86883,4.40593 -8.75559,-0.34635 -21.46703,0.68909 -24.78722,2.0191 -0.825,0.33048 -3.50705,0.79951 -5.9601,1.04228 -2.45306,0.24278 -5.69321,1.07908 -7.20034,1.85845 -1.50713,0.77937 -3.36784,1.41703 -4.13491,1.41703 -0.76707,0 -2.24595,0.94064 -3.28639,2.09032 -1.85636,2.05126 -1.85565,2.11668 0.0378,3.50119 1.06122,0.77599 3.14792,1.31804 4.63711,1.20457 1.48919,-0.11347 3.31495,0.28321 4.05724,0.88153 0.74228,0.59831 3.14961,1.09648 5.34961,1.10704 2.2,0.0106 8.05,0.54418 13,1.18582 4.95,0.64164 13.275,1.34791 18.5,1.56948 10.57019,0.44824 20.23531,1.36203 20.84397,1.97069 0.82771,0.82771 47.32309,0.46255 51.39482,-0.40364 z M 352,556.78096 c 3.4572,-1.27446 1.43037,-2.20087 -8.05907,-3.68361 -9.39025,-1.46724 -13.33984,-0.33315 -9.61262,2.76016 3.31858,2.75417 11.54009,3.1838 17.67169,0.92345 z m -0.5,-12.29561 c 8.25,-0.3139 16.125,-0.85233 17.5,-1.1965 1.375,-0.34418 2.9125,-0.66247 3.41667,-0.70732 0.50416,-0.0448 1.08288,-0.58018 1.28603,-1.18964 0.20794,-0.6238 -2.3278,-1.8649 -5.80176,-2.83965 C 360.71215,536.53517 357,533.3448 357,529.18355 c 0,-2.85036 -0.13052,-2.92073 -6.65706,-3.5894 -6.40923,-0.65664 -6.7722,-0.57318 -9.75,2.24192 -4.72794,4.4696 -6.7952,5.16669 -16.30311,5.49742 -7.47082,0.25987 -9.41498,0.70189 -12.95577,2.94561 -5.34457,3.38673 -5.66074,3.99312 -3.3662,6.45603 1.63841,1.75862 3.23755,2.05805 11.66475,2.1841 5.37132,0.0804 10.00667,0.38671 10.30076,0.68081 0.2941,0.2941 1.89191,0.29202 3.55068,-0.005 1.65877,-0.29663 9.76595,-0.79617 18.01595,-1.11007 z M 364,521.57086 c 6.04332,-1.89022 12.48506,-5.16367 11.38736,-5.78664 -0.48805,-0.27698 -3.13736,-0.36048 -5.88736,-0.18557 -4.10947,0.26139 -44.53173,-1.17728 -57.5,-2.04649 -3.50251,-0.23476 -7.01503,0.88849 -6.98293,2.23302 0.0331,1.38549 11.10312,5.49323 16.75826,6.21845 10.64208,1.36475 37.35297,1.09098 42.22467,-0.43277 z M 370.89843,512 c 8.66483,0 7.11437,-2.32261 -3.901,-5.84374 -9.20741,-2.94321 -13.85317,-4.67867 -14.64543,-5.47092 C 351.97507,500.3084 350.70667,500 349.53333,500 c -1.17333,0 -2.56083,-0.42746 -3.08333,-0.94992 -0.59994,-0.59989 -2.54922,-0.59058 -5.29002,0.0253 -2.38701,0.53635 -5.76201,0.89289 -7.5,0.79231 -2.00419,-0.11598 -6.81757,1.56549 -13.15998,4.5972 -5.5,2.62903 -10.195,4.95746 -10.43333,5.17427 -1.69932,1.54587 4.53165,2.22441 25.92374,2.82303 13.46972,0.37693 24.65349,0.84841 24.85282,1.04774 0.19933,0.19933 1.47044,-0.0589 2.82469,-0.57374 C 365.02217,512.42127 368.2759,512 370.89843,512 Z m 2.03205,-23.95311 c 2.98676,-0.58497 6.13676,-1.70031 7,-2.47855 0.86323,-0.77824 4.65549,-2.12925 8.42723,-3.00225 7.19936,-1.66634 11.58904,-3.47728 8.57043,-3.53568 -0.86452,-0.0167 -3.70141,0.6952 -6.3042,1.58206 -2.60278,0.88686 -4.97922,1.36559 -5.28096,1.06384 -0.30174,-0.30174 -1.67872,-0.11896 -3.05995,0.40618 -2.06914,0.78669 -2.40849,0.68682 -1.92728,-0.56717 0.51626,-1.34535 0.32642,-1.35346 -1.63586,-0.0699 -3.15415,2.06314 -12.56943,3.3503 -16.69219,2.28198 -2.44545,-0.63368 -5.40398,-0.42023 -10.14416,0.73188 -3.75081,0.91163 -11.23882,1.66874 -17.0377,1.72266 C 322.67798,486.29507 317,486.8938 317,488.06372 c 0,1.95882 45.91351,1.94501 55.93048,-0.0168 z m -59.20131,-0.65106 c -0.33229,-0.33229 -1.1948,-0.36781 -1.91667,-0.0789 -0.79773,0.31922 -0.56078,0.55618 0.60417,0.60416 1.05416,0.0434 1.64479,-0.19293 1.3125,-0.52522 z m -17,-2 c -0.33229,-0.33229 -1.1948,-0.36781 -1.91667,-0.0789 -0.79773,0.31922 -0.56078,0.55618 0.60417,0.60416 1.05416,0.0434 1.64479,-0.19293 1.3125,-0.52522 z M 276.5,482 c -0.33992,-0.55 -1.15398,-0.99311 -1.80902,-0.98469 -0.71561,0.009 -0.59227,0.40223 0.30902,0.98469 1.92112,1.24153 2.2673,1.24153 1.5,0 z m 46.5,-0.71552 c 2.03888,-0.49512 1.57775,-0.75391 -2.5,-1.40302 -3.05882,-0.48691 -5.13022,-0.42187 -5.33541,0.16754 -0.18448,0.5299 -0.75432,0.70456 -1.26631,0.38813 -1.71985,-1.06292 0.19124,-2.43699 3.41074,-2.45231 4.28266,-0.0204 12.63487,-2.61723 10.69098,-3.32403 -7.02645,-2.55481 -11.19674,-3.39333 -15.30677,-3.07774 -2.64372,0.203 -5.11872,0.5612 -5.5,0.79601 -1.1104,0.68383 -19.60372,-1.47704 -20.57686,-2.40433 -0.48599,-0.46309 3.06255,-0.65802 7.88565,-0.43318 4.8231,0.22485 9.27073,0.0932 9.88363,-0.29251 0.61289,-0.38573 2.6457,-0.80341 4.51736,-0.92819 1.87165,-0.12478 3.80856,-0.63242 4.30424,-1.1281 0.53498,-0.53498 -3.54983,-1.18288 -10.05133,-1.59428 -7.61307,-0.48173 -13.9564,-1.59417 -20.80425,-3.64847 -10.06268,-3.01873 -8.97798,-3.26666 2.64833,-0.60532 8.75661,2.00444 19.16147,2.80328 21,1.61229 1.26842,-0.82167 1.11834,-1.26726 -0.97204,-2.88612 -1.35962,-1.05293 -2.79103,-1.71728 -3.1809,-1.47633 -0.38988,0.24096 -0.9728,0.011 -1.2954,-0.51093 -0.32259,-0.52197 -2.94119,-1.44124 -5.8191,-2.04283 -5.36517,-1.12151 -8.55893,-2.54773 -7.67796,-3.4287 0.27318,-0.27317 2.5247,-0.60166 5.00338,-0.72996 4.72696,-0.24469 12.68217,2.95013 18.1343,7.28275 2.31616,1.84058 3.87154,2.11744 11.1336,1.98187 4.64273,-0.0867 11.75621,0.45557 15.80772,1.20501 7.96822,1.47392 17.97382,0.88608 25.69077,-1.50938 6.74018,-2.09225 5.09041,-3.33212 -4.57678,-3.43965 -4.81117,-0.0535 -13.00547,-0.63121 -18.20954,-1.28378 C 330.12299,454.87563 314,450.39455 314,448.88214 c 0,-1.42309 2.27754,-1.04268 10.1191,1.69013 8.1475,2.83944 17.0549,4.2981 26.72452,4.37638 5.52594,0.0447 6.41103,-0.20645 6.86663,-1.94865 0.28766,-1.1 1.13141,-2 1.875,-2 0.79092,0 1.11311,0.62249 0.77638,1.5 -0.33078,0.862 0.002,1.54315 0.78138,1.60145 0.74635,0.0558 3.15699,0.2709 5.35699,0.478 5.42145,0.51035 23.5,-4.6365 23.5,-6.69031 0,-0.91049 -4.98729,-0.26075 -9,1.17251 -5.18177,1.85083 -17.65288,3.30902 -18.37045,2.14797 -0.35287,-0.57096 1.79515,-1.30331 5.13177,-1.74964 8.32557,-1.11367 7.96582,-1.05214 17.48868,-2.99101 4.8125,-0.97983 8.75004,-2.04869 8.7501,-2.37524 5e-5,-0.32655 -7.31245,-0.60234 -16.25,-0.61285 -8.93756,-0.0105 -18.7251,-0.34083 -21.7501,-0.73401 -11.27769,-1.46585 -14.03761,-1.9987 -14.53693,-2.80662 -0.28178,-0.45594 7.71125,-0.54636 17.7623,-0.20092 28.08334,0.96515 33.67744,0.81899 41.77463,-1.09149 4.125,-0.97327 9.69437,-2.17406 12.37638,-2.66843 2.68201,-0.49436 5.08958,-1.11203 5.35014,-1.3726 1.64682,-1.64682 -2.05656,-2.04847 -12.89085,-1.39808 C 387.46818,434.31135 368,434.6286 368,433.82529 c 0,-1.69629 3.07251,-2.22355 11.70604,-2.00881 7.23389,0.17993 10.47861,-0.21829 15.01132,-1.8423 3.18045,-1.13952 7.29538,-2.46381 9.14428,-2.94288 1.8489,-0.47907 4.57353,-2.0321 6.05472,-3.45117 1.48119,-1.41907 3.23095,-2.58013 3.88836,-2.58013 0.6574,0 1.19528,-0.45 1.19528,-1 0,-1.29975 -3.46308,-1.21773 -14.5,0.34342 -4.95,0.70016 -11.7,1.1976 -15,1.1054 -3.3,-0.0922 -8.1375,-0.23089 -10.75,-0.30822 -2.6125,-0.0773 -4.75,-0.61641 -4.75,-1.19795 0,-0.63202 2.11189,-0.98404 5.25,-0.87508 7.61231,0.26429 29.38492,-1.0091 35.46934,-2.07445 2.87064,-0.50263 6.92064,-1.79637 9,-2.87498 l 3.78066,-1.96109 -17.22573,0.24549 c -9.47415,0.13502 -17.79915,-0.11842 -18.5,-0.56321 -0.80015,-0.50781 0.028,-0.85091 2.22573,-0.92213 18.7885,-0.60891 25.61166,-1.40467 31.25,-3.64461 3.93819,-1.56451 4.9707,-3.26191 2,-3.2879 -1.46777,-0.0129 -1.51276,-0.16535 -0.27896,-0.94563 0.80907,-0.51167 1.10978,-1.29157 0.66824,-1.73311 -0.44154,-0.44155 -1.37812,-0.016 -2.08128,0.94562 -1.28012,1.75067 -5.558,2.46835 -5.558,0.93244 0,-0.44879 2.50772,-1.85538 5.57272,-3.12575 C 427.19863,397.72645 433,393.59033 433,391.91111 c 0,-1.53545 -3.70659,-1.01512 -7.19284,1.00971 C 421.349,395.51015 404.77722,401 401.41918,401 c -1.48428,0 -3.24855,0.75198 -3.9206,1.67106 -0.67205,0.91908 -1.84666,1.77232 -2.61025,1.89608 -0.76358,0.12376 -2.62583,0.54557 -4.13833,0.93735 -2.33715,0.60539 -2.75,0.40465 -2.75,-1.33706 0,-2.55046 1.13876,-3.28121 5.26334,-3.37756 1.78016,-0.0416 4.12429,-0.68631 5.20917,-1.43273 1.08487,-0.74643 3.29944,-1.35714 4.92126,-1.35714 1.62181,0 3.65918,-0.63362 4.52749,-1.40804 0.86831,-0.77443 5.85374,-2.85039 11.07874,-4.61325 5.225,-1.76286 10.85676,-3.80018 12.51502,-4.52737 1.65825,-0.72719 4.24575,-1.79009 5.75,-2.362 2.81086,-1.06869 3.81597,-4.08934 1.36071,-4.08934 -1.32972,0 -8.03409,2.13247 -12.12573,3.85685 C 422.26314,386.64243 408.16141,391 406.61987,391 405.70653,391 405,390.18765 405,389.13751 c 0,-1.43659 0.62645,-1.79372 2.73951,-1.56176 1.52157,0.16702 3.54933,-0.43216 4.56105,-1.34775 1.54761,-1.40057 1.95356,-1.43486 2.69944,-0.228 0.7346,1.18861 1.22498,1.10637 3.00419,-0.50379 2.00089,-1.81078 2.01924,-1.96648 0.31105,-2.63995 -1.69092,-0.66667 -1.69446,-0.7205 -0.0517,-0.78597 0.96996,-0.0387 2.54496,-0.46535 3.5,-0.94821 0.95504,-0.48285 3.31143,-1.59668 5.23643,-2.47517 6.47861,-2.95657 14.22546,-7.49337 18.06737,-10.58081 2.09844,-1.68635 4.29174,-3.0661 4.87399,-3.0661 1.13917,0 1.42111,-1.3042 0.48443,-2.24088 -0.31582,-0.31582 -3.02572,0.71536 -6.02201,2.2915 -2.99629,1.57613 -5.655,2.90157 -5.90824,2.94542 -0.25324,0.0438 -2.83084,1.18327 -5.72799,2.53207 -2.89715,1.34879 -5.94255,2.42822 -6.76755,2.39873 -0.825,-0.0295 -0.44506,-0.47629 0.84432,-0.99289 1.28937,-0.51661 2.57936,-1.83808 2.86663,-2.93662 0.2873,-1.09853 0.93028,-1.99733 1.42886,-1.99733 1.9514,0 13.46527,-7.76225 18.64586,-12.57038 4.44395,-4.12446 5.33409,-5.47701 4.77137,-7.25 C 454.17653,345.98083 453.19022,345 452.36522,345 c -1.71066,0 -1.14413,-2.93691 1.31881,-6.83676 2.39094,-3.78586 0.75446,-3.60592 -2.32692,0.25584 -2.02641,2.53962 -2.74636,4.43298 -2.51703,6.61935 0.33468,3.19065 -1.40719,6.34714 -2.9697,5.38146 -0.49665,-0.30695 -0.64411,-0.97699 -0.32767,-1.48899 1.17836,-1.90664 -0.84882,-0.82473 -4.81374,2.5691 -4.1442,3.54727 -6.72897,4.44769 -6.72897,2.34407 0,-0.63576 2.25,-3.22446 5,-5.75267 7.44271,-6.84244 6.26497,-10.23133 -1.36887,-3.93887 -3.08095,2.53957 -3.99721,2.87983 -4.71253,1.75 -1.40928,-2.22591 -1.07322,-3.74941 1.0814,-4.90253 1.1,-0.5887 2,-1.95453 2,-3.03518 0,-1.08065 0.3596,-1.96482 0.79911,-1.96482 1.08486,0 3.46498,-6.76367 2.77372,-7.88216 -0.30382,-0.4916 1.3555,-1.18813 3.68738,-1.54784 2.49564,-0.38498 5.67961,-1.85981 7.73979,-3.58511 3.97101,-3.32553 2.9218,-3.7494 -4.59549,-1.85653 -2.46462,0.6206 -4.69948,0.91001 -4.96635,0.64313 -1.32408,-1.32408 1.09332,-3.58774 4.37137,-4.09336 12.54483,-1.93499 22.4391,-5.88845 27.94791,-11.16715 3.73452,-3.57853 4.30577,-4.54949 2.97671,-5.0595 -1.48147,-0.5685 -1.45065,-0.83941 0.31058,-2.72987 1.0754,-1.1543 1.96528,-3.02638 1.97751,-4.16017 0.0122,-1.13379 0.90222,-3.18644 1.97776,-4.56144 2.06233,-2.63654 2.71617,-8 0.97525,-8 -0.56361,0 -1.46381,1.2375 -2.00043,2.75 -0.53663,1.5125 -1.51068,3.65 -2.16457,4.75 -0.65388,1.1 -2.26534,4.025 -3.58101,6.5 -2.52975,4.75888 -7.51323,10.50229 -10.54414,12.15199 -1.93592,1.05371 -4.08806,1.60915 -9.6851,2.49958 -3.4868,0.55471 -3.4796,0.54271 1.91194,-3.183 11.4348,-7.9018 18.53419,-16.95382 22.16767,-28.26475 1.91498,-5.96126 2.12211,-7.65117 1.1321,-9.23643 -1.80256,-2.88636 -1.49737,-4.19283 0.80848,-3.46098 1.62986,0.5173 2.30612,-0.0431 3.5,-2.90049 2.78338,-6.66157 1.68082,-9.39324 -3.0633,-7.58953 -2.39722,0.91142 -2.64711,1.42397 -2.15944,4.42915 0.39085,2.40856 0.13657,3.55767 -0.87298,3.94507 -0.78346,0.30064 -1.42447,1.59574 -1.42447,2.87801 0,1.28226 -0.39564,2.75888 -0.8792,3.28138 -0.48356,0.5225 -1.43153,2.75 -2.1066,4.95 -1.47826,4.81752 -8.14275,16.45802 -9.43668,16.48253 -0.50737,0.01 -3.33892,2.49247 -6.29234,5.51747 -2.95342,3.025 -6.03736,5.5 -6.8532,5.5 -2.51384,0 0.8334,-5.1987 6.28726,-9.76494 6.65128,-5.56876 11.9725,-13.63956 13.35618,-20.25757 0.62987,-3.01262 1.53138,-6.37749 2.00335,-7.47749 3.31048,-7.71557 5.14936,-13.94845 5.90059,-20 0.47793,-3.85 1.15989,-8.65101 1.51546,-10.66891 0.5743,-3.25924 0.23478,-4.12462 -3.04053,-7.75 -5.09769,-5.64254 -6.59033,-5.43179 -4.7376,0.66891 0.79339,2.6125 2.1077,5.98842 2.92067,7.50205 1.45195,2.70331 1.06017,5.29708 -0.64128,4.24553 -1.19147,-0.73637 -5.83274,5.55144 -8.72118,11.81511 C 462.29336,257.77826 455.06545,269 453.88254,269 c -1.38985,0 -1.03985,-1.52495 0.94451,-4.11514 2.49513,-3.25692 6.45651,-11.72252 6.6851,-14.2863 0.20517,-2.30104 1.13765,-5.1658 2.53876,-7.79963 0.94159,-1.76999 0.51496,-13.37416 -0.63007,-17.13798 C 462.54222,222.77284 460.021,220 458.27358,220 c -0.77904,0 -1.94679,-0.5631 -2.59501,-1.25134 C 452.78117,215.67235 447,208.08824 447,207.36354 c 0,-0.43993 -1.02054,-1.71419 -2.26787,-2.8317 -1.24733,-1.11751 -4.12863,-4.18305 -6.40289,-6.81231 -2.27427,-2.62926 -7.55301,-7.47551 -11.73054,-10.76945 -6.11775,-4.82379 -8.0758,-5.86844 -10.06416,-5.36939 -2.35773,0.59175 -2.44667,0.44784 -1.97926,-3.20289 0.6082,-4.75041 1.83796,-6.12625 3.9265,-4.39292 0.86161,0.71507 1.8448,1.02187 2.18489,0.68179 1.41247,-1.41247 -2.32079,-3.72772 -9.99903,-6.20108 -4.4922,-1.44706 -9.09664,-3.4938 -10.23209,-4.5483 -2.27299,-2.11096 -4.95793,-2.49912 -5.96913,-0.86295 -0.43378,0.70187 -1.43535,0.54081 -2.99601,-0.48177 -1.28942,-0.84486 -4.06025,-1.48466 -6.1574,-1.42177 -2.09716,0.0629 -8.31301,-0.21785 -13.81301,-0.62384 -5.5,-0.406 -10.9,-0.65202 -12,-0.54672 -1.1,0.1053 -2.9,0.15473 -4,0.10984 -1.1,-0.0449 -5.6,-0.0908 -10,-0.10208 -4.4,-0.0112 -8.64839,-0.4303 -9.44087,-0.93121 -0.91788,-0.58018 -2.36974,-0.43994 -4,0.38638 -1.40752,0.71342 -4.80913,1.62497 -7.55913,2.02567 -2.75,0.4007 -5.675,1.08932 -6.5,1.53025 -0.825,0.44093 -3.975,1.02584 -7,1.29979 -3.025,0.27395 -6.625,0.80726 -8,1.18513 -1.375,0.37787 -4.075,1.05816 -6,1.51175 -27.04655,6.37304 -32.28239,8.1345 -41.5,13.96156 -1.65,1.04308 -3.9,1.93603 -5,1.98433 -2.32573,0.10214 -3.77858,0.89323 -13.42201,7.30835 -3.9272,2.6125 -7.38323,4.75 -7.68008,4.75 -0.83806,0 -15.12961,12.98052 -19.75587,17.94358 -2.27812,2.44397 -7.20985,7.61595 -10.9594,11.49329 -14.9724,15.48267 -29.62612,37.43434 -35.25124,52.80731 -2.6497,7.2414 -4.42939,10.74607 -5.45889,10.75 -2.47782,0.009 -6.15911,-3.06553 -5.55493,-4.64001 0.64248,-1.67426 -5.64425,-4.67679 -11.8604,-5.66451 -2.68124,-0.42604 -4.78237,-1.61017 -6.56666,-3.70077 -1.60139,-1.8763 -4.51078,-3.64216 -7.46612,-4.53158 -6.05928,-1.82358 -6.5244,-1.81633 -6.5244,0.10171 0,0.85746 -0.47185,1.26739 -1.04856,0.91097 -0.72118,-0.44572 -0.69533,-1.07366 0.0828,-2.01127 1.54512,-1.86176 1.94825,-6.43527 0.57823,-6.56004 -2.48906,-0.22668 -8.17549,0.33422 -9.08741,0.89638 -0.5362,0.33054 -2.07149,0.62438 -3.41174,0.65296 -4.12305,0.088 -3.54017,2.30407 0.79881,3.03714 2.20795,0.37303 4.36847,0.4637 4.80115,0.2015 0.43269,-0.26221 1.34472,0.12724 2.02674,0.86544 0.78057,0.84485 0.8732,1.56889 0.25,1.95405 -0.54452,0.33654 -0.99004,1.48533 -0.99004,2.55287 0,2.45748 -1.03693,2.44175 -5.31197,-0.0806 l -3.42629,-2.02156 0.33402,3.93965 c 0.1837,2.1668 1.25532,5.439 2.38137,7.27156 1.12605,1.83255 2.48463,4.90691 3.01907,6.83191 0.63172,2.27542 2.04381,4.10569 4.03592,5.23113 1.68532,0.95213 2.98922,2.30213 2.89757,3 -0.33158,2.52459 0.12839,3.55733 3.62253,8.13347 3.76346,4.92886 8.65697,7.62898 14.20417,7.83752 1.83029,0.0688 3.57377,0.52307 3.87438,1.00947 0.30061,0.4864 2.5189,0.58859 4.92954,0.2271 4.04458,-0.60653 4.47476,-0.45582 5.57185,1.95202 0.81327,1.78495 1.96746,2.60929 3.65336,2.60929 2.27709,0 2.40394,0.24711 1.6683,3.25 -1.1645,4.75345 -1.30049,16.21771 -0.25607,21.58723 0.49882,2.56453 1.09351,7.36277 1.32154,10.66277 0.74347,10.75959 1.32237,14.1077 3.47495,20.0978 1.16654,3.24621 2.82923,8.12607 3.69485,10.84412 1.31075,4.11572 5.44454,11.68464 12.5747,23.02409 13.57608,21.59074 47.7289,54.94948 58.8055,57.43822 2.24062,0.50344 4.86458,1.63093 5.83102,2.50555 0.96645,0.87462 2.09602,1.59022 2.51017,1.59022 0.41414,0 3.40313,1.5532 6.64218,3.45156 3.23905,1.89835 6.12231,3.07434 6.40725,2.6133 0.64668,-1.04634 -0.88475,-2.23099 -5.79112,-4.47977 -2.10717,-0.9658 -3.60967,-1.97754 -3.33889,-2.24832 0.55883,-0.55883 16.66363,6.31803 18.1201,7.73742 0.5225,0.5092 2.01458,0.92581 3.31574,0.92581 1.30116,0 3.33289,0.5176 4.51496,1.15023 2.47742,1.32587 23.16507,3.64856 33.18163,3.72544 3.73937,0.0287 6.96253,0.21585 7.16257,0.4159 0.43168,0.43167 5.84495,-0.14983 9.3751,-1.00709 z m -39.10586,-10.72367 c -0.24156,-0.24156 -1.72177,-0.67177 -3.28936,-0.95603 -4.40007,-0.79789 -4.60925,-1.96584 -0.23088,-1.28909 3.95619,0.6115 5.34969,1.29406 4.45943,2.18431 -0.275,0.275 -0.69763,0.30236 -0.93919,0.0608 z M 270,466.98608 c -1.05532,-0.69179 -0.46242,-0.79289 2,-0.34104 4.31279,0.79139 5.12629,1.35998 1.91667,1.33965 -1.32917,-0.008 -3.09167,-0.4578 -3.91667,-0.99861 z m -9.1875,-11.66919 c 0.72187,-0.28887 1.58438,-0.25335 1.91667,0.0789 0.33229,0.33229 -0.25834,0.56864 -1.3125,0.52522 -1.16495,-0.048 -1.4019,-0.28494 -0.60417,-0.60416 z M 313,442 c 0,-0.55 0.45,-1 1,-1 0.55,0 1,0.45 1,1 0,0.55 -0.45,1 -1,1 -0.55,0 -1,-0.45 -1,-1 z m 43.5,-9 c -0.33992,-0.55 -0.16803,-1 0.38197,-1 0.55,0 1.27811,0.45 1.61803,1 0.33992,0.55 0.16803,1 -0.38197,1 -0.55,0 -1.27811,-0.45 -1.61803,-1 z m -8.5,-1 c 0,-0.55 0.45,-1 1,-1 0.55,0 1,0.45 1,1 0,0.55 -0.45,1 -1,1 -0.55,0 -1,-0.45 -1,-1 z M 438,312.45779 C 438,311.00041 444.67141,304 446.0603,304 c 0.63317,0 -0.24638,1.30554 -1.95454,2.90121 -3.52175,3.2898 -3.88719,4.74793 -1.35576,5.40946 0.9625,0.25153 0.2875,0.50953 -1.5,0.57333 -1.7875,0.0638 -3.25,-0.12799 -3.25,-0.42621 z M 448.01506,292.25 c 0.0614,-3.05733 3.42417,-8.60617 8.02998,-13.25 3.00023,-3.025 6.23826,-6.99165 7.19563,-8.81478 0.96869,-1.8447 2.21427,-3.02209 2.80855,-2.6548 2.26746,1.40136 -1.83807,11.36061 -4.71519,11.43816 -1.2804,0.0345 -7.33403,7.25773 -7.33403,8.75101 0,1.04979 -4.2579,5.28041 -5.31445,5.28041 -0.37705,0 -0.67877,-0.3375 -0.67049,-0.75 z m -296.93611,-4.83333 c 0.048,-1.16495 0.28494,-1.4019 0.60416,-0.60417 0.28887,0.72187 0.25335,1.58438 -0.0789,1.91667 -0.3323,0.33229 -0.56864,-0.25834 -0.52522,-1.3125 z m 289.58772,-9.08334 C 440.3,277.96667 440,277.20167 440,276.63333 c 0,-0.6266 0.46577,-0.56756 1.18333,0.15 0.65084,0.65084 0.95084,1.41584 0.66667,1.7 -0.28417,0.28417 -0.81667,0.21667 -1.18333,-0.15 z m -0.77488,-7.53553 c -0.88987,-1.66273 -0.89474,-2.29682 -0.0199,-2.58843 1.18582,-0.39527 4.38284,-6.78441 6.57898,-13.14787 1.52661,-4.42346 1.21867,-20.4896 -0.49308,-25.72541 C 443.43224,221.61107 433.07989,209 429.26402,209 c -1.34579,0 -2.5179,-4.62474 -1.76963,-6.98233 0.85489,-2.6935 3.7806,-1.47633 8.24641,3.43072 10.74396,11.8055 16.21613,23.12627 16.218,33.55161 0.002,8.37496 -1.5756,17.49416 -3.84519,22.2338 -1.12358,2.34641 -2.71083,5.9537 -3.52722,8.0162 -1.6933,4.27793 -3.00248,4.70956 -4.6946,1.5478 z M 457.01531,241.75 c 0.008,-0.6875 0.45153,-1.925 0.98469,-2.75 0.75538,-1.16887 0.97275,-0.89294 0.98469,1.25 0.008,1.5125 -0.43469,2.75 -0.98469,2.75 -0.55,0 -0.99311,-0.5625 -0.98469,-1.25 z m -22.94502,-20.5 c 0.0623,-2.43684 0.16815,-2.52225 0.92971,-0.75 1.17371,2.73138 1.17371,3.5 0,3.5 -0.55,0 -0.96837,-1.2375 -0.92971,-2.75 z M 271,480.09783 C 271,479.23389 265.7563,477 263.72833,477 c -0.53527,0 -0.43544,0.64798 0.22185,1.43997 1.03122,1.24255 2.13693,1.66797 6.29982,2.42385 0.4125,0.0749 0.75,-0.2698 0.75,-0.76599 z m 72,-6.17794 c 0,-0.47769 1.36471,-1.57425 3.0327,-2.4368 1.66798,-0.86255 2.74756,-2.02962 2.39906,-2.5935 -1.26132,-2.04087 -16.49326,-0.16491 -16.40905,2.02093 0.076,1.97292 10.97729,4.96146 10.97729,3.00937 z m 19.39473,-4.40824 c 1.59211,-0.44062 3.72961,-1.63599 4.75,-2.65638 C 368.16513,465.83487 369.765,465 370.7,465 c 1.21024,0 1.39093,-0.30907 0.6272,-1.0728 -0.74496,-0.74496 -2.25763,-0.76595 -4.95,-0.0687 -2.13246,0.55225 -6.92535,1.31357 -10.65086,1.69182 -5.61448,0.57005 -6.57696,0.92475 -5.62424,2.07271 1.15335,1.38969 6.52595,3.23105 8.3979,2.87822 0.55,-0.10367 2.30263,-0.54899 3.89473,-0.9896 z M 380,468 c 2.14946,-0.68838 2.21957,-0.83014 0.5,-1.01101 -3.38063,-0.35559 -6.95245,0.13728 -7.95,1.09702 -1.16001,1.11604 3.87822,1.05787 7.45,-0.086 z m -53,-2.22362 c 0,-0.5447 -0.7118,-0.71721 -1.58179,-0.38337 -0.86998,0.33385 -2.02154,0.60699 -2.55901,0.60699 -0.53748,0 -0.72523,0.40775 -0.41722,0.90612 C 323.1519,468.0548 327,467.10101 327,465.77638 Z m 98.13671,-5.56414 c -0.72144,-0.24048 -1.78716,0.0382 -2.36826,0.61931 -0.74207,0.74207 -0.35164,0.87221 1.31171,0.43724 1.3522,-0.35361 1.8055,-0.8069 1.05655,-1.05655 z m 14.83433,-6.17318 c 0.80907,-0.51167 1.13586,-1.2655 0.72619,-1.67516 -0.40967,-0.40967 -1.50556,0.0159 -2.43533,0.94562 -1.80738,1.80739 -0.72543,2.26921 1.70914,0.72954 z m -35.79168,-1.58849 c 2.70061,-1.54347 4.75746,-3.74378 4.25685,-4.55378 -0.28414,-0.45975 -2.66251,0.01 -5.28526,1.04371 -2.62275,1.03379 -6.87966,2.19619 -9.45979,2.58311 -7.40762,1.11084 -5.70449,2.77988 2.2382,2.1934 3.81115,-0.28142 7.52365,-0.85131 8.25,-1.26644 z M 461,445.69002 c 0,-0.55 -0.9,-0.18551 -2,0.80998 -1.1,0.99549 -2,2.25998 -2,2.80998 0,0.55 0.9,0.18551 2,-0.80998 1.1,-0.99549 2,-2.25998 2,-2.80998 z M 438,438 c 0,-0.55 -0.19844,-1 -0.44098,-1 -0.24254,0 -0.7191,0.45 -1.05902,1 -0.33992,0.55 -0.14148,1 0.44098,1 0.58246,0 1.05902,-0.45 1.05902,-1 z m 13.04418,-2.25 c 4.47906,-2.55757 5.00148,-3.75 1.64291,-3.75 -1.2721,0 -3.60629,1.35 -5.18709,3 -3.41014,3.55942 -1.92598,3.87349 3.54418,0.75 z M 474,431.96482 c 0,-1.32439 -1.35417,-1.21065 -2.8,0.23518 -1.88759,1.88759 -1.40261,2.9788 0.8,1.8 1.1,-0.5887 2,-1.50453 2,-2.03518 z m -51.31881,-6.66839 c 0.64965,-0.81977 2.78715,-1.53601 4.75,-1.59164 3.74085,-0.10604 4.81282,-1.26632 1.81881,-1.96865 -0.9625,-0.22579 -0.0555,-0.3944 2.01565,-0.3747 2.22943,0.0212 4.44892,-0.64743 5.44048,-1.639 2.22884,-2.22884 1.21967,-3.02493 -2.19084,-1.72825 -1.51914,0.57757 -4.17288,0.78547 -5.89719,0.46199 -3.71146,-0.69628 -6.58258,0.6366 -12.67306,5.8833 l -4.44504,3.82921 5,-0.69089 c 2.75,-0.37999 5.53154,-1.3616 6.18119,-2.18137 z m 54.97373,1.16044 c 0.93028,-2.42426 -0.36778,-2.86191 -1.60908,-0.54252 -0.77398,1.44619 -0.7892,2.08565 -0.0496,2.08565 0.58661,0 1.33304,-0.69441 1.65872,-1.54313 z m -10.76326,-6.51514 c 1.31542,-1.09546 2.21542,-2.16746 2,-2.38222 C 468.1757,416.8457 462,419.8855 462,420.95173 c 0,1.64161 2.27057,1.1728 4.89166,-1.01 z m 18.76471,-4.68401 c 1.60836,-2.30657 1.13536,-5.86507 -0.63422,-4.77141 -1.39696,0.86337 -5.8352,10.36731 -5.15777,11.04473 0.54212,0.54213 2.57475,-1.65942 5.79199,-6.27332 z M 452.5,415 c 0.33992,-0.55 0.14148,-1 -0.44098,-1 -0.58246,0 -1.05902,0.45 -1.05902,1 0,0.55 0.19844,1 0.44098,1 0.24254,0 0.7191,-0.45 1.05902,-1 z m -17.81819,-16.38682 c -0.36086,-0.94037 0.0319,-1.23932 1.21989,-0.92864 1.15115,0.30104 2.66888,-0.74383 4.42518,-3.04646 3.16177,-4.14529 3.25327,-4.63808 0.86118,-4.63808 -0.99657,0 -2.75893,1.28086 -3.91635,2.84636 -1.15742,1.5655 -3.71705,3.61162 -5.68806,4.54692 -1.97101,0.93531 -3.58365,1.90444 -3.58365,2.15364 0,0.24919 1.62314,0.45308 3.60699,0.45308 2.66453,0 3.46794,-0.36236 3.07482,-1.38682 z M 495,395.88197 c 0,-0.55 -0.45,-0.72189 -1,-0.38197 -0.55,0.33992 -1,1.06803 -1,1.61803 0,0.55 0.45,0.72189 1,0.38197 0.55,-0.33992 1,-1.06803 1,-1.61803 z m -39.3192,-0.31582 c -0.0994,-0.56027 0.78194,-1.16663 1.95863,-1.34747 2.25102,-0.34595 7.48169,-5.48597 8.63124,-8.48166 1.06666,-2.77965 -4.0986,-1.05153 -8.00075,2.67679 -1.77655,1.69741 -3.91405,3.66643 -4.75,4.37562 -2.13335,1.80983 -1.89307,4.11438 0.41088,3.94083 1.06194,-0.08 1.84944,-0.60384 1.75,-1.16411 z M 480,378.88197 c 0,-0.55 -0.45,-0.72189 -1,-0.38197 -0.55,0.33992 -1,1.06803 -1,1.61803 0,0.55 0.45,0.72189 1,0.38197 0.55,-0.33992 1,-1.06803 1,-1.61803 z m -7,-5.32295 c 0,-1.05548 -1.91911,-1.49891 -2.48992,-0.57533 -0.34546,0.55897 0.0734,1.01631 0.9309,1.01631 0.85746,0 1.55902,-0.19844 1.55902,-0.44098 z m 9.54112,-2.62555 c 1.17263,-1.89735 -0.53762,-2.36554 -2.27922,-0.62395 -1.55894,1.55895 -1.56168,1.69048 -0.0352,1.69048 0.9104,0 1.95188,-0.47994 2.31442,-1.06653 z m -8.69562,-2.3815 c 0.221,-1.14002 -0.13937,-1.62085 -1,-1.33427 -0.74002,0.24642 -1.50098,1.25007 -1.691,2.23033 -0.221,1.14002 0.13937,1.62085 1,1.33427 0.74002,-0.24642 1.50098,-1.25007 1.691,-2.23033 z m 11.96137,-3.07843 c -0.30789,-0.30789 -0.86705,0.24711 -1.24258,1.23333 -0.54268,1.4252 -0.42782,1.54006 0.5598,0.5598 0.68342,-0.67834 0.99067,-1.48524 0.68278,-1.79313 z M 455,365 c 0,-0.55 -0.675,-1 -1.5,-1 -0.825,0 -1.5,0.45 -1.5,1 0,0.55 0.675,1 1.5,1 0.825,0 1.5,-0.45 1.5,-1 z m 12.56553,-6.68278 c -0.66388,-1.72338 -0.75099,-1.72645 -1.6869,-0.0593 -1.20512,2.14668 -0.14,4.40345 1.36702,2.89643 0.56095,-0.56095 0.7049,-1.83766 0.31988,-2.83713 z m 8.93779,0.6774 C 476.84975,358.4341 476.00116,358 474.55902,358 472.65192,358 472,358.51847 472,360.03518 c 0,1.70588 0.31461,1.86682 1.94431,0.99463 1.06937,-0.57231 2.22092,-1.48815 2.55901,-2.03519 z M 509.92971,356.25 c -0.0623,-2.43684 -0.16815,-2.52225 -0.92971,-0.75 -1.17371,2.73138 -1.17371,3.5 0,3.5 0.55,0 0.96837,-1.2375 0.92971,-2.75 z M 476,352.44098 c 0,-0.85746 -0.45,-1.2809 -1,-0.94098 -0.55,0.33992 -1,1.04148 -1,1.55902 0,0.51754 0.45,0.94098 1,0.94098 0.55,0 1,-0.70156 1,-1.55902 z m 62.19472,-2.00803 c 4.01274,-2.59372 9.32932,-10.62495 8.48689,-12.82029 -0.595,-1.55054 -5.32529,-1.83665 -7.9052,-0.47815 -1.87055,0.98497 -9.85072,-0.55046 -13.27641,-2.55446 -1.1,-0.6435 -2.62644,-1.14975 -3.39208,-1.12502 -2.19235,0.0708 -5.20547,4.84329 -5.76523,9.13155 -0.45131,3.45748 -0.12239,4.28097 2.82324,7.0682 1.83374,1.73512 4.23407,3.37999 5.33407,3.65526 3.57945,0.89573 9.918,-0.43592 13.69472,-2.87709 z m -55.42389,0.37955 c -0.2177,-0.65313 -0.93051,-1.36573 -1.58401,-1.58356 -0.73075,-0.24358 -0.95424,0.21359 -0.58051,1.1875 0.69752,1.81771 2.76448,2.19592 2.16452,0.39606 z m 70.80103,-0.44574 c 7.17674,-2.37845 15.23415,-8.7169 17.31791,-13.62331 1.53944,-3.62477 1.57577,-4.53411 0.33208,-8.31191 -2.88769,-8.77148 -6.94548,-10.08071 -13.99676,-4.51602 -3.28496,2.59241 -6.22509,9.60041 -6.22509,14.83791 0,1.31474 -1.19336,4.42675 -2.65192,6.91559 -2.18159,3.7226 -2.40328,4.68258 -1.25,5.41276 0.77106,0.48818 1.43426,0.89449 1.47378,0.90291 0.0395,0.008 2.28952,-0.71965 5,-1.61793 z M 487,345.41667 c 0,-1.76593 -2.15276,-1.45839 -2.77083,0.39583 -0.21771,0.65312 0.31666,1.1875 1.1875,1.1875 C 486.2875,347 487,346.2875 487,345.41667 Z m -18,-4.50681 c 0,-0.48189 2.25,-2.01633 5,-3.40986 3.00023,-1.52033 5,-3.20333 5,-4.20798 0,-1.54044 -0.10066,-1.53662 -1.25917,0.0477 -1.32827,1.81653 -5.67391,1.91614 -6.99083,0.16025 -0.47145,-0.62861 -1.10015,-0.45537 -1.6928,0.46646 -0.60581,0.94231 -0.56205,1.92523 0.12245,2.75 0.78734,0.94869 0.66988,1.28354 -0.45022,1.28354 -0.8335,0 -1.7886,0.7118 -2.12244,1.58179 -0.97921,2.55178 -0.70853,3.3944 0.89301,2.77984 0.825,-0.31659 1.5,-0.96988 1.5,-1.45177 z m 25.92886,-8.60268 c 1.51068,-5.91332 1.41236,-7.07697 -0.4413,-5.22331 -1.63007,1.63007 -5.49074,11.41943 -5.48259,13.90201 0.009,2.72914 4.80429,-4.2962 5.92389,-8.6787 z M 452,330 c 0,-0.55 -0.47656,-1 -1.05902,-1 -0.58246,0 -0.7809,0.45 -0.44098,1 0.33992,0.55 0.81648,1 1.05902,1 0.24254,0 0.44098,-0.45 0.44098,-1 z m 19,-12 c 0,-0.55 -0.19844,-1 -0.44098,-1 -0.24254,0 -0.7191,0.45 -1.05902,1 -0.33992,0.55 -0.14148,1 0.44098,1 0.58246,0 1.05902,-0.45 1.05902,-1 z m 24.45729,-4.9309 c 0.73955,-1.1966 -1.14162,-2.38223 -2.4736,-1.55902 C 491.86533,312.20126 492.59952,314 494,314 c 0.48508,0 1.14086,-0.41891 1.45729,-0.9309 z M 483,309.38337 C 483,308.62252 483.45,308 484,308 c 0.55,0 1,-0.82396 1,-1.83102 0,-1.00706 1.07529,-2.4065 2.38954,-3.10987 3.19753,-1.71126 5.07171,-5.79842 3.51757,-7.67103 -0.8744,-1.05359 -0.84718,-1.75537 0.11295,-2.91225 0.69572,-0.83829 1.00576,-1.78335 0.68897,-2.10013 -1.1279,-1.1279 -2.49214,0.65465 -3.1387,4.1011 -0.36657,1.95397 -1.52049,3.96134 -2.61336,4.54623 -1.07633,0.57604 -1.95697,1.64463 -1.95697,2.37465 0,0.73002 -1.34343,3.01779 -2.98539,5.08394 -1.64197,2.06615 -2.76652,4.11078 -2.49901,4.54362 0.77118,1.2478 4.4844,-0.11172 4.4844,-1.64187 z m 45.87017,0.88415 c 0.81843,-1.46246 2.81336,-1.77867 12.79969,-2.02882 13.24444,-0.33177 19.77679,-1.96718 24.6714,-6.17663 1.73731,-1.49411 5.30883,-4.17458 7.93672,-5.95661 2.62789,-1.78202 6.64148,-5.12226 8.91909,-7.42275 2.27762,-2.30049 4.41753,-4.18271 4.75536,-4.18271 0.81535,0 8.04757,-7.25386 8.04757,-8.07164 0,-0.35107 1.41604,-2.72857 3.14677,-5.28334 4.97408,-7.34237 6.89216,-11.09191 8.78472,-17.17273 4.47583,-14.38085 2.30406,-46.2517 -3.89981,-57.23012 -1.62928,-2.88319 -3.90499,-7.26717 -5.05714,-9.74217 -2.73509,-5.87543 -8.08763,-11.33964 -15.23627,-15.55412 -10.48221,-6.17979 -24.86676,-8.8396 -32.95491,-6.0936 -2.53668,0.86122 -5.51266,1.39243 -6.6133,1.18047 -1.10063,-0.21196 -5.52666,1.37177 -9.83561,3.5194 -7.95116,3.96296 -13.59797,9.09755 -12.6686,11.51945 0.28119,0.73278 -0.76609,3.68107 -2.32729,6.55175 -2.43195,4.47175 -2.81517,6.23341 -2.67525,12.29803 0.18868,8.17786 2.03053,13.16761 6.97261,18.88941 3.77306,4.36834 6.36408,9.87877 6.36408,13.53476 0,5.72765 -3.22339,13.60472 -7.77715,19.00521 -5.19073,6.1559 -6.26307,9.68431 -3.23527,10.6453 1.37056,0.435 1.94966,1.2251 1.58825,2.16693 -0.98203,2.55914 2.08817,1.11907 9.94141,-4.66299 8.68313,-6.39307 9.72518,-8.66244 9.8838,-21.52486 l 0.099,-8.02486 -8.35878,-11.37898 c -7.70923,-10.49473 -8.39936,-11.82656 -8.88105,-17.1387 -0.42017,-4.63373 -0.0882,-6.65635 1.69799,-10.34616 1.2211,-2.52254 2.63007,-4.58644 3.13101,-4.58644 1.64493,0 0.95262,3.6771 -1.20992,6.42633 -1.79475,2.28166 -2.01659,3.48097 -1.4433,7.8027 1.00423,7.57022 2.64295,10.49829 10.50531,18.77097 l 7.12801,7.5 -0.62102,-4.24092 C 541.81116,218.90812 539.0788,212.43035 536.01194,208 c -2.81964,-4.07321 -5.76255,-13.38537 -4.91483,-15.55182 0.41928,-1.0715 0.79395,-3.65151 0.8326,-5.73336 0.0387,-2.08185 0.81374,-4.91983 1.72239,-6.30661 2.49709,-3.81104 10.12246,-8.72734 12.1529,-7.83533 0.93225,0.40955 2.145,0.61547 2.695,0.45759 2.86073,-0.82117 12.91644,0.032 19.32001,1.6392 3.66767,0.92053 17.10814,11.3163 21.39611,16.5492 5.65368,6.89957 7.51332,10.75796 8.26635,17.15104 0.38027,3.22846 1.60528,7.95346 2.72223,10.5 2.25258,5.13566 2.61908,15.69724 0.85469,24.63009 -2.18953,11.08531 -12.98379,26.55403 -22.05939,31.61225 -1.925,1.07288 -5.975,3.50884 -9,5.41323 C 562.38064,285.32227 552.09019,290 549.1572,290 c -0.97622,0 -2.6296,0.62494 -3.67418,1.38876 -1.04458,0.76381 -2.41543,1.19067 -3.04633,0.94857 -0.63091,-0.2421 -3.70273,0.69004 -6.82628,2.07142 -4.49386,1.9874 -5.98359,3.24015 -7.13767,6.00224 -0.80216,1.91985 -1.4008,4.52527 -1.3303,5.78982 0.0705,1.26456 -0.20585,3.08669 -0.61412,4.04919 -0.97267,2.29311 1.05985,2.30831 2.34185,0.0175 z M 521.71025,290 c 0.63939,-2.44502 4.47397,-2.65663 9.56844,-0.52802 3.07094,1.28312 3.67685,1.28651 4.72261,0.0265 0.65981,-0.79503 2.73442,-1.73344 4.61023,-2.08534 1.87581,-0.3519 3.65715,-1.03881 3.95853,-1.52646 0.30139,-0.48765 1.56667,-0.88664 2.81174,-0.88664 4.14868,0 21.98105,-9.71266 26.94314,-14.67498 2.87068,-2.8708 10.3873,-14.29253 13.29478,-20.20181 1.45502,-2.95724 2.76465,-7.13321 2.9103,-9.27994 0.14565,-2.14673 0.82589,-6.72593 1.51165,-10.17599 1.06746,-5.37038 1.00637,-7.35373 -0.42464,-13.78586 -1.60782,-7.22686 -1.98411,-7.84757 -9.87936,-16.29683 -8.49187,-9.08775 -12.40138,-11.75152 -19.23767,-13.10771 -9.47443,-1.87955 -14.13814,0.78871 -19.54864,11.18442 -1.40619,2.70185 -1.45657,3.61018 -0.34661,6.25 0.71429,1.69878 1.70526,3.0887 2.20217,3.0887 1.00884,0 5.38705,20.26966 5.72395,26.5 0.49679,9.18713 -0.86991,13.7436 -6.07268,20.24575 -4.0804,5.09949 -6.55154,7.02856 -13.95819,10.89633 -16.21329,8.46662 -15.00458,7.41089 -14.96482,13.07082 0.0354,5.03987 2.95906,13.2871 4.71031,13.2871 0.51796,0 1.1771,-0.9 1.46476,-2 z m -31.28712,-10.91977 2.79732,-2.91976 -2.33079,-4.66696 -2.33079,-4.66696 -1.82318,2.25154 c -1.00275,1.23834 -1.5785,2.88917 -1.27944,3.66851 0.29906,0.77933 0.54375,3.18017 0.54375,5.33519 0,2.15501 0.36581,3.91821 0.81291,3.91821 0.4471,0 2.0717,-1.3139 3.61022,-2.91977 z m -332.92137,-6.48829 c 1.31543,-2.97443 2.86567,-5.70099 3.44497,-6.05902 0.5793,-0.35802 1.05327,-2.63356 1.05327,-5.05675 0,-5.32522 -1.00301,-6.01678 -9.99272,-6.88994 -14.42488,-1.40106 -22.74699,1.63316 -18.32558,6.68146 1.00007,1.14185 1.28689,1.76641 0.6374,1.38789 -0.6495,-0.37851 -1.45914,-0.23801 -1.79921,0.31223 -1.28469,2.07867 10.40469,11.36294 15.69677,12.46714 0.70584,0.14728 2.40834,0.75614 3.78334,1.35303 1.375,0.59688 2.63726,1.11377 2.80503,1.14863 0.16776,0.0349 1.38129,-2.37024 2.69673,-5.34467 z m -49.81934,-13.11032 c 7.99403,-0.85638 10.16387,-2.32881 8.57398,-5.81822 -1.0037,-2.20288 -1.89555,-2.59764 -6.46042,-2.85955 -12.655372,-0.72609 -26.895301,3.45051 -20.04598,5.87953 0.9625,0.34134 2.425,1.18076 3.25,1.86538 1.771532,1.47009 4.898271,2.31687 7,1.89573 0.825,-0.16532 4.28209,-0.59861 7.68242,-0.96287 z m -30.852062,-3.3243 c 0.640539,-4.50267 -6.342775,-8.45814 -8.530668,-4.83191 -0.439829,0.72898 -1.667084,1.64551 -2.727231,2.03675 -1.749965,0.6458 -1.783186,0.85568 -0.360609,2.27826 1.611648,1.61165 7.127865,3.30668 9.78815,3.00772 0.825,-0.0927 1.648661,-1.21358 1.830358,-2.49082 z M 516.76171,248.36818 C 520.66832,245.38847 523,240.65303 523,235.69879 c 0,-3.972 -0.82056,-5.0926 -2.62964,-3.5912 -4.7809,3.9678 -17.5976,2.05513 -19.48447,-2.90772 -1.42925,-3.75921 -3.81463,-6.16444 -5.47985,-5.52544 -2.44116,0.93676 -1.58047,2.75947 5.09396,10.78759 3.575,4.30007 6.5,8.26462 6.5,8.81011 0,1.67952 4.09896,7.72787 5.23717,7.72787 0.59073,0 2.62677,-1.18432 4.52454,-2.63182 z M 151.5,248.39974 c 5.5,-0.84526 12.025,-1.77574 14.5,-2.06774 2.475,-0.292 4.90843,-0.91709 5.40762,-1.38908 1.20104,-1.13559 -1.34239,-4.18193 -2.97007,-3.55733 -0.68311,0.26213 -1.47361,0.24501 -1.75667,-0.038 -0.98427,-0.98426 -20.2517,-1.22389 -31.54122,-0.39227 -8.35598,0.61553 -11.79396,1.27058 -13,2.47695 -1.4435,1.44389 -1.46021,1.75359 -0.13966,2.58863 0.825,0.52169 2.4225,0.95542 3.55,0.96384 1.1275,0.008 2.4775,0.43068 3,0.93836 2.26504,2.20079 10.60442,2.37401 22.95,0.47669 z m 333.66862,-2.929 c -1.6259,-3.56847 -3.27869,-2.2226 -1.86616,1.51962 0.71816,1.90262 1.4725,2.63468 2.08438,2.0228 0.61188,-0.61188 0.5329,-1.89389 -0.21822,-3.54242 z m -392.093012,1.35339 c 0.32469,-0.49516 2.803487,-0.40002 5.686396,0.21825 5.739796,1.23097 9.591756,0.0331 9.043756,-2.81246 -0.41964,-2.17901 -14.479726,-12.61313 -21.007676,-15.58998 -2.036053,-0.92848 -4.961053,-2.74642 -6.5,-4.03988 -4.123017,-3.46532 -16.964428,-9.14484 -23.479682,-10.38462 -3.124879,-0.59463 -8.074879,-0.84953 -11,-0.56644 -2.925121,0.28309 -7.609333,0.59037 -10.409359,0.68285 C 29.966679,214.51161 27,216.15891 27,219.00112 c 0,2.19695 3.363891,3.51896 13,5.10901 11.396122,1.88047 22.5935,8.24059 35.75793,20.31051 2.474127,2.26843 4.079961,2.9317 6.674755,2.75695 1.879253,-0.12656 3.664944,0.17136 3.968202,0.66204 0.648417,1.04916 5.83866,0.25951 6.674721,-1.0155 z M 492,243 c 0,-0.55 -0.47656,-1 -1.05902,-1 -0.58246,0 -0.7809,0.45 -0.44098,1 0.33992,0.55 0.81648,1 1.05902,1 0.24254,0 0.44098,-0.45 0.44098,-1 z m -21,-14 c 0,-1.1 -0.42344,-2 -0.94098,-2 -1.34235,0 -2.28822,1.82013 -1.55902,3 1.04512,1.69104 2.5,1.10908 2.5,-1 z m -10.00836,-15.00836 c -0.8204,-0.5088 -1.49164,-1.72756 -1.49164,-2.70836 0,-1.06256 -0.86815,-1.90703 -2.14806,-2.08947 -1.18144,-0.16841 -2.35732,-1.10639 -2.61308,-2.08441 -0.25576,-0.97802 -1.87663,-2.78337 -3.60194,-4.0119 -3.46739,-2.46901 -4.29152,-1.45237 -1.13692,1.4025 1.1,0.99549 2,2.25853 2,2.80677 0,1.92152 8.461,9.55564 9.49164,8.56404 0.65017,-0.62555 0.478,-1.27264 -0.5,-1.87917 z M 32,210.55902 c 0,-0.24254 -0.45,-0.7191 -1,-1.05902 -0.55,-0.33992 -1,-0.14148 -1,0.44098 0,0.58246 0.45,1.05902 1,1.05902 0.55,0 1,-0.19844 1,-0.44098 z M 144.34664,198.8151 C 145.54486,196.91229 143.51538,192 141.53102,192 c -3.14014,0 -4.72851,5.40251 -2.30183,7.82919 1.57215,1.57215 3.76213,1.13818 5.11745,-1.01409 z M 451,197.31445 C 451,196.27436 446.77718,192 445.74963,192 c -0.49596,0 0.14498,1.3251 1.42431,2.94467 2.2347,2.82902 3.82606,3.81467 3.82606,2.36978 z m -17.58753,-10.91923 c 0.86682,-0.33264 1.37739,-0.92621 1.1346,-1.31906 -0.2428,-0.39285 0.9958,-0.50333 2.75243,-0.24551 2.8754,0.42202 3.05735,0.30426 1.82474,-1.18094 -0.75302,-0.90734 -2.10153,-1.65649 -2.99668,-1.66477 -0.89516,-0.008 -3.42756,-0.66353 -5.62756,-1.4561 -4.64847,-1.67468 -7.80953,-1.93011 -7.33333,-0.59259 0.2476,0.69547 7.31866,6.51369 8.50154,6.99527 0.0925,0.0377 0.87743,-0.20367 1.74426,-0.5363 z M 279.82622,163.71368 c 0.62733,1.01026 5.6869,0.89301 9.1701,-0.21251 1.86476,-0.59185 18.53613,-3.09129 34.00368,-5.09796 14.43327,-1.87249 35.78587,-3.12461 44.5,-2.60949 1.1,0.065 4.025,-0.0653 6.5,-0.28968 2.475,-0.22435 8.53241,-0.61014 13.4609,-0.85732 7.73438,-0.38789 9.20609,-0.7522 10.75224,-2.66161 1.69344,-2.0913 1.92591,-2.12402 4.25391,-0.59866 3.04832,1.99734 4.53295,2.0531 4.53295,0.17025 0,-1.82967 -3.82284,-4.56191 -5.48852,-3.92273 -0.69241,0.2657 -4.02684,-0.96781 -7.40984,-2.74113 -5.03535,-2.63946 -7.55205,-3.29143 -13.87628,-3.59474 -4.24895,-0.20378 -13.02887,-0.78395 -19.51093,-1.28927 -6.48206,-0.50532 -12.33206,-0.73638 -13,-0.51347 -0.66794,0.22292 -4.675,0.60945 -8.90459,0.85897 -4.22959,0.24952 -8.19448,0.76535 -8.81085,1.1463 -0.61638,0.38094 -3.45581,0.83271 -6.30984,1.00393 -2.85403,0.17122 -10.54589,0.62213 -17.09302,1.00202 -6.54712,0.37989 -13.6912,1.32132 -15.87572,2.09207 -2.18453,0.77074 -4.73814,1.40135 -5.67469,1.40135 -0.93656,0 -3.7462,1.35347 -6.24364,3.00771 -3.91986,2.5964 -4.61845,3.58657 -5.10858,7.24072 -0.67417,5.02637 1.54194,8.63099 4.03451,6.56234 1.00914,-0.83752 1.62086,-0.86582 2.09821,-0.0971 z M 326,138.99952 c 6.37209,-1.94139 32.34721,-2.99613 46.5,-1.88816 5.55364,0.43477 9.46027,0.32526 10.20196,-0.28597 0.66108,-0.5448 2.01108,-0.78058 3,-0.52397 1.378,0.35758 1.25863,0.49368 -0.51098,0.58258 -2.28696,0.11489 -2.17372,2.13015 0.11804,2.10069 4.3488,-0.0559 4.21313,-5.49643 -0.16071,-6.44449 -1.45657,-0.31573 -4.44831,-0.76818 -6.64831,-1.00546 -2.2,-0.23728 -6.78634,-0.74104 -10.19187,-1.11946 -7.89931,-0.87777 -24.62535,1.28081 -29.4919,3.80609 -3.45769,1.79421 -3.83874,1.80999 -6.20872,0.25712 -2.12382,-1.39158 -4.0804,-1.54285 -12.31622,-0.95221 -5.38521,0.38621 -9.54336,0.44037 -9.24035,0.12035 0.30302,-0.32002 2.28265,-0.71474 4.39917,-0.87716 4.35634,-0.3343 6.82799,-2.89137 4.77713,-4.94223 -1.50457,-1.50457 -16.49534,0.38164 -20.93562,2.63421 -1.53539,0.7789 -4.47912,2.13984 -6.54162,3.02429 -3.45155,1.48011 -5.22799,4.51426 -2.64301,4.51426 0.60884,0 0.83648,0.70493 0.50586,1.56651 -0.53552,1.39555 1.17163,1.50828 15.64301,1.03293 8.93428,-0.29346 17.81914,-1.01343 19.74414,-1.59992 z m 53,-13.02335 c 0,-0.49819 -0.85275,-1.36218 -1.89499,-1.91997 -1.40512,-0.752 -2.21017,-0.63442 -3.11415,0.45481 -1.00068,1.20575 -0.7955,1.62894 1.145,2.36158 2.48601,0.9386 3.86414,0.61889 3.86414,-0.89642 z m -54.5044,0.0167 C 323.57112,124.49704 318,121.80348 318,122.85235 c 0,1.14881 4.08124,4.02597 5.80902,4.0952 0.71996,0.0288 1.02892,-0.40075 0.68658,-0.95466 z m 29.36915,-1.7461 c 0.97987,-1.25417 1.4969,-1.39427 1.83334,-0.49679 0.63955,1.70608 2.30191,1.58292 2.30191,-0.17054 0,-0.7813 1.34944,-1.71694 2.99876,-2.07919 1.64931,-0.36225 3.56181,-1.44647 4.25,-2.40937 0.68818,-0.9629 2.48874,-2.55403 4.00124,-3.53583 1.5125,-0.9818 2.75,-2.44048 2.75,-3.24151 0,-0.80103 0.675,-2.13142 1.5,-2.95642 2.36333,-2.36333 1.76847,-7.778 -1.65941,-15.104472 -3.63961,-7.779019 -9.81951,-15.673287 -13.93603,-17.80202 -5.25568,-2.717819 -14.341,-3.334098 -20.15182,-1.366944 -2.85858,0.967726 -5.51627,1.562441 -5.90598,1.321587 -0.38971,-0.240853 -1.00837,0.04718 -1.3748,0.64008 -0.36643,0.592897 -1.67573,1.461803 -2.90955,1.930901 -1.23382,0.469098 -4.74391,3.703841 -7.8002,7.188317 -5.91639,6.745269 -8.47279,13.034795 -7.20223,17.719701 0.39016,1.43864 0.77264,3.54825 0.84995,4.68803 0.18732,2.76171 5.87353,9.82724 9.87814,12.2743 5.0411,3.08042 13.75571,5.36194 15.36842,4.02351 1.03837,-0.86178 1.34351,-0.71417 1.34351,0.64988 0,1.56715 0.70029,1.69256 6.25,1.11924 4.17874,-0.43169 6.70228,-1.22455 7.61475,-2.39246 z M 352.7706,66 c 0.14882,-1.375 -0.63633,-3.969519 -1.74479,-5.765598 l -2.01538,-3.265598 -3.75522,1.562473 c -5.87071,2.442693 -6.78075,3.737013 -4.77733,6.794625 1.90649,2.909673 3.55416,3.553688 8.52212,3.330991 2.94431,-0.131983 3.54296,-0.553812 3.7706,-2.656893 z" id="path12"/>
</svg>
