<?xml version="1.0" encoding="utf-8"?>
<svg xmlns="http://www.w3.org/2000/svg" version="1.1" viewBox="0 0 65 98">
	<title>The letter G is decorated with vines.</title>
	<path d="M 23.375712,89.403297 C 21.24407,88.674382 18.539401,86.880649 17.365336,85.417224 14.901228,82.345813 13.744559,75.802059 15.056042,72.352597 15.55239,71.047104 15.76363,68.746204 15.525465,67.239486 15.287299,65.732769 14.959138,63.648433 14.796218,62.607629 14.633298,61.566825 15.01135,60.533875 15.636333,60.312184 16.950876,59.845898 19,65.084906 19,68.912095 c 0,1.748523 0.742822,2.94039 2.244158,3.600777 C 23.88273,73.673489 24.894184,77 22.608508,77 c -2.160157,0 -3.532413,3.075853 -2.541935,5.69764 1.05362,2.788925 6.254697,5.51614 9.749824,5.112375 C 32.395619,87.512058 32.487495,87.295796 32.178495,82.25 31.97843,78.983066 32.261726,77 32.928495,77 33.517823,77 34,78.098442 34,79.440983 c 0,1.342541 0.427422,2.705144 0.949827,3.028008 C 36.20951,83.247518 38,79.782236 38,76.565741 38,74.482291 37.520732,74 35.45034,74 29.26493,74 24.705694,68.832599 21.774574,58.5 c -0.780111,-2.75 -1.276715,-6.490538 -1.103563,-8.312307 0.230308,-2.42313 -0.421506,-4.235116 -2.428095,-6.749895 -1.508604,-1.890673 -2.780623,-3.775135 -2.82671,-4.187693 -0.04609,-0.412558 -0.628328,-2.068822 -1.293868,-3.680587 -3.249957,-7.870542 -1.288328,-18.942792 4.05317,-22.877785 4.304006,-3.1706896 11.331387,-3.2982383 17.982552,-0.326388 3.111933,1.390463 5.950991,3.002086 6.309017,3.581385 0.841802,1.362063 6.219588,1.369273 7.059996,0.0095 0.354809,-0.574093 0.09224,-1.709967 -0.583484,-2.524166 -1.475196,-1.777503 -0.636734,-2.911991 1.535964,-2.078249 2.509395,0.962945 2.912706,3.555297 0.899259,5.780131 -1.557705,1.721245 -2.61798,1.959369 -6.456852,1.450124 l -4.593103,-0.609296 -0.155143,3.959352 c -0.163286,4.167176 1.240663,6.051532 3.113418,4.178777 C 45.507259,23.892741 46,25.143659 46,33 c 0,4.4 -0.388864,8 -0.864142,8 -0.475278,0 -1.635719,-2.020346 -2.578758,-4.489658 -0.943039,-2.469312 -2.102122,-4.72915 -2.57574,-5.021862 -0.473618,-0.292712 -2.296933,0.340964 -4.051811,1.408169 -1.754878,1.067205 -3.77242,1.717142 -4.483426,1.444303 -0.711006,-0.272839 -1.738472,0.336789 -2.283256,1.354729 C 27.067162,39.61154 27.787664,54 30.079455,54 30.585755,54 31,52.70625 31,51.125 c 0,-4.835483 1.210447,-9.268526 2.685318,-9.834487 2.197609,-0.843301 2.792904,0.520904 1.070565,2.453356 -0.897552,1.007046 -1.70601,4.102179 -1.895325,7.256131 -0.285194,4.751296 0.12718,6.294935 3.029319,11.33962 2.866643,4.982982 3.563185,5.63589 4.748264,4.45081 1.77185,-1.77185 2.03643,-11.272695 0.369845,-13.280808 C 40.318904,52.67933 39.135211,52 38.377555,52 37.6199,52 37,51.55 37,51 c 0,-0.588235 3.5,-1 8.5,-1 5,0 8.5,0.411765 8.5,1 0,0.55 -0.642857,1 -1.428571,1 -3.349329,0 -4.697944,3.070933 -4.559678,10.382845 0.220061,11.637476 0.307743,11.216268 -1.915959,9.203846 -3.102429,-2.80766 -5.758021,-0.387429 -6.402917,5.835437 -0.28943,2.79283 -0.839117,6.082353 -1.221527,7.310051 -1.00904,3.239449 3.336481,4.792782 7.980122,2.852545 5.28569,-2.208503 6.143612,-8.274152 0.987245,-6.979986 C 45.431334,81.108558 45,80.843903 45,79.108408 45,77.457923 45.617906,77 47.845012,77 c 4.902222,0 7.507863,4.603613 5.125344,9.055391 -2.212871,4.134787 -10.720527,5.862685 -15.552339,3.158667 -1.239818,-0.693837 -3.090805,-0.61496 -5.981034,0.254871 -3.406369,1.025166 -4.907069,1.012948 -8.061271,-0.06563 z M 37,68.69113 c 0,-0.719879 -0.666449,-2.182379 -1.480997,-3.25 -1.233618,-1.616892 -1.636741,-1.704124 -2.4134,-0.522235 -0.675959,1.028649 -1.123638,0.143646 -1.627715,-3.217778 -0.382421,-2.55017 -1.321391,-5.156273 -2.0866,-5.79134 -2.410913,-2.00088 -1.825685,7.671428 0.676806,11.185853 C 32.208177,70.101099 37,71.204021 37,68.69113 Z M 23.045307,37.831742 c 0.810947,-3.011626 0.821642,-4.828341 0.03854,-6.547053 -1.284898,-2.820045 -1.397477,-8.241658 -0.210032,-10.114765 1.057917,-1.668786 6.314706,-1.148216 6.917375,0.685015 0.324142,0.985994 -0.144444,1.167719 -1.720869,0.667381 C 25.309338,21.646017 23,23.52776 23,26.65383 c 0,3.61501 2.573992,3.952962 5.367956,0.704785 1.979309,-2.301084 3.20021,-2.809854 6.533127,-2.722461 4.563823,0.119668 4.984538,-0.797213 2.9905,-6.517315 C 36.582469,14.363514 32.550743,12 27.453952,12 15.202327,12 10.35431,26.927762 18.545793,39.429545 c 2.324826,3.548132 3.197282,3.238318 4.499514,-1.597803 z m 12.125952,-6.48673 C 37.505458,29.232592 37.499462,28 35.154988,28 c -2.085178,0 -5.514259,3.307396 -4.490503,4.331152 1.093392,1.093392 2.564645,0.771463 4.506774,-0.98614 z"/>
</svg>
