<?xml version="1.0" encoding="utf-8"?>
<svg xmlns="http://www.w3.org/2000/svg" version="1.1" viewBox="0 0 76 102">
	<title>The letter D is decorated with vines.</title>
	<path d="m 20.5,92.197468 c -6.290614,-4.007356 -9.088954,-9.784372 -8.060745,-16.640957 0.789295,-5.263399 4.472559,-8.942183 9.989274,-9.977125 2.357789,-0.442324 3.612288,-1.24931 3.691582,-2.374699 C 26.334498,60.161985 25.876885,50.543551 25.499795,50.166462 24.429506,49.096173 23,51.538032 23,54.436572 23,57.885737 20.854628,60.646223 19.043805,59.527073 17.52784,58.590155 17.764902,57 19.420545,57 c 0.781299,0 1.713535,-1.333975 2.071634,-2.964389 0.663709,-3.021849 0.21234,-4.190524 -4.4642,-11.558608 -2.780063,-4.380106 -2.949787,-4.934702 -3.713263,-12.13357 -0.440009,-4.148877 -0.06073,-6.218465 1.940868,-10.590524 C 18.146438,13.438451 21.415129,10.796166 29.022095,8.6245856 39.4376,5.6512441 47.156057,7.9598451 54.390102,16.212191 L 59.02542,21.5 60.962573,19.201133 c 2.351691,-2.79081 1.694624,-4.998083 -1.744814,-5.861327 l -2.561639,-0.64293 2.220668,-1.798188 c 3.165344,-2.5631402 6.526301,-1.151012 6.933124,2.912997 0.396931,3.965181 -1.112892,6.743716 -4.567956,8.406438 -2.17798,1.048135 -2.759359,2.035565 -2.826566,4.800711 -0.04653,1.914641 -0.40851,5.190436 -0.804389,7.279544 -0.466279,2.460623 -0.129437,6.227266 0.956419,10.694883 2.086217,8.583474 1.372753,14.132679 -2.62817,20.44148 -4.368913,6.88906 -9.117644,8.719592 -21.665962,8.351752 -8.433992,-0.247233 -9.415128,-0.447291 -7.159673,-1.459889 1.437489,-0.645368 2.899989,-1.919672 3.25,-2.831787 C 30.713627,68.582701 31,59.091615 31,48.403514 V 28.970603 L 27.75,26.98904 c -3.497926,-2.132728 -3.486542,-2.136584 6.269912,-2.123778 7.170968,0.0094 14.190719,2.434174 17.385076,6.00515 C 54.398781,34.217177 56,33.572479 56,29.020324 c 0,-3.6747 -0.325433,-4.1457 -4.246616,-6.146138 -4.528418,-2.310227 -6.670055,-4.481318 -6.721581,-6.814024 -0.01904,-0.861924 1.219947,-0.159518 3.086854,1.75 3.340622,3.416868 4.375462,3.817387 5.434745,2.103432 C 54.380925,18.574634 48.411447,12.187193 45,10.761313 38.304705,7.962883 26.324854,9.8964036 22.029389,14.468717 c -2.873983,3.059214 -2.593908,3.115484 2.509169,0.50412 7.549019,-3.863011 16.386299,-1.485633 14.351926,3.860911 -1.086193,2.854629 -3.134318,2.378112 -3.9022,-0.907887 -0.429139,-1.836417 -1.331556,-2.500848 -3.713905,-2.73447 -3.484074,-0.341662 -9.069237,2.110443 -9.932816,4.360894 -0.758607,1.976899 -2.104623,1.821464 -2.617687,-0.302285 -0.752728,-3.115799 -3.72569,5.290829 -3.701914,10.467881 0.02407,5.241538 3.34036,13.79426 4.960439,12.792996 1.422695,-0.879274 1.267452,-4.117048 -0.350523,-7.310537 C 18.334481,32.639593 18.219069,29.447598 19.381837,28.28483 20.761439,26.905228 23,29.188481 23,31.975229 c 0,1.976383 0.854809,3.781244 2.446185,5.164929 2.370448,2.061078 2.447556,2.556255 2.490446,15.993386 L 27.980891,67 h -3.567369 c -5.113457,0 -9.433873,4.46632 -9.35708,9.673077 0.125764,8.527096 3.872179,13.6193 11.242978,15.281685 2.813889,0.634635 4.543935,0.377059 7.590044,-1.130036 2.169976,-1.073619 4.174855,-2.549956 4.455287,-3.280749 1.451283,-3.781983 -1.521146,-7.45996 -4.958828,-6.135875 -1.772124,0.682566 -1.780326,0.785679 -0.135923,1.708838 3.969147,2.228257 0.487969,4.497367 -3.625578,2.363233 C 28.18099,84.731311 27,84.550493 27,85.078355 c 0,1.229631 -5.254179,-0.01958 -6.234687,-1.482327 -1.320062,-1.969307 -0.80679,-2.644542 1.55889,-2.050794 1.51361,0.379892 2.807133,0.0014 3.708903,-1.085124 3.44102,-4.146176 10.456669,-3.649767 14.113078,0.998603 l 2.014029,2.560424 2.554752,-2.009569 C 47.597382,79.742259 54.856008,79.256008 56.8,81.2 c 1.976762,1.976762 1.451292,6.595145 -0.893141,7.849847 C 52.648071,90.793898 49,89.437055 49,86.480948 49,83.986144 51.277753,83.022363 52.5,85 c 0.907512,1.468386 2.5,1.21804 2.5,-0.393011 0,-0.766156 -0.711804,-1.666156 -1.581787,-2 C 49.703561,81.181543 47.336542,82.219142 41.796375,87.7015 36.175274,93.263948 35.881901,93.411605 29.767377,93.755791 24.88068,94.030862 22.839111,93.68757 20.5,92.197468 Z M 47.783205,68.439296 C 51.454651,65.867715 53.054065,61.52222 53.213928,53.684407 53.434043,42.892594 52.279599,42.199836 45.159432,48.851068 41.633775,52.144525 40.798286,57.757776 43.5,60 c 1.848637,1.534232 1.971191,3.118044 0.188334,2.433897 C 42.966918,62.157064 41.83954,60.44516 41.183049,58.629667 39.967963,55.269406 40.890112,50.287729 43.295828,47.215911 43.983959,46.33725 43.885051,45.153732 42.982563,43.467418 41.369549,40.453474 42.398351,39.14317 45.06851,40.810712 47.549353,42.360024 51,40.773452 51,38.083474 51,34.13339 40.060476,26.608522 37.035666,28.477957 c -0.551889,0.341087 -0.835989,2.060581 -0.631334,3.8211 C 36.608988,34.059576 36.826736,43.2625 36.888217,52.75 L 37,70 h 4.277494 c 2.352621,0 5.280191,-0.702317 6.505711,-1.560704 z M 26,43.5 C 26,41.055556 25.547619,40 24.5,40 22.960166,40 22.529809,42.611127 23.606989,45.418213 24.669905,48.188129 26,47.121939 26,43.5 Z"/>
</svg>
