<?xml version="1.0" encoding="utf-8"?>

<svg xmlns="http://www.w3.org/2000/svg" version="1.1" viewBox="0 0 378 297">











	<path d="m 128.14973,278.44044 c -1.84265,-0.78552 -4.38526,-1.16845 -5.65025,-0.85095 -2.74459,0.68885 -12.68071,-1.72408 -19.27106,-4.67987 C 100.62779,271.74323 96.925,270.10058 95,269.25928 85.372792,265.05181 72.554238,258.6971 71.433479,257.57634 c -0.694726,-0.69473 -2.62935,-1.82905 -4.299165,-2.52071 -2.876919,-1.19165 -3.290905,-1.04264 -7.899527,2.84341 C 56.559862,260.15457 53.968466,262 53.476129,262 c -0.492336,0 -2.754309,2.025 -5.026605,4.5 -2.813809,3.06482 -4.940442,4.5 -6.668041,4.5 -2.888057,0 -3.39706,-0.53269 -7.357758,-7.70014 l -2.873571,-5.20014 2.32056,-3.13872 2.320559,-3.13873 -2.309499,-1.61763 c -1.270225,-0.8897 -3.748093,-1.4937 -5.506373,-1.34221 -2.538159,0.21867 -3.339467,-0.17385 -3.888915,-1.90501 -0.42868,-1.35065 -0.17723,-2.64696 0.660735,-3.40633 1.762626,-1.59731 11.799125,-4.70228 12.933486,-4.00121 0.482045,0.29792 2.280685,-0.49143 3.996976,-1.7541 3.101406,-2.28171 3.11648,-2.33722 2.459633,-9.05835 -0.363493,-3.71941 -1.474937,-8.66941 -2.469875,-11 C 41.072502,215.40684 39.492514,210.125 38.556356,206 c -0.936159,-4.125 -2.181379,-8.85 -2.767156,-10.5 -1.962797,-5.52874 -2.657263,-18.73792 -1.577236,-30 1.083018,-11.29327 5.506304,-26.99749 10.280669,-36.5 1.24352,-2.475 2.563254,-5.89926 2.932743,-7.60946 0.369489,-1.7102 1.999934,-4.38189 3.623211,-5.93709 C 52.671864,113.89825 54,112.11517 54,111.49105 c 0,-0.62413 1.337481,-2.90243 2.97218,-5.06291 1.634699,-2.16048 2.984699,-4.4122 3,-5.00383 0.0153,-0.59162 1.208011,-2.166623 2.650466,-3.499996 2.550894,-2.357988 9.259604,-10.722627 12.465058,-15.541843 3.148633,-4.733788 14.472372,-16.614368 17.166593,-18.010753 1.514863,-0.785137 6.365622,-4.366986 10.779463,-7.959664 4.56324,-3.714282 11.64723,-8.221213 16.42156,-10.447614 4.61801,-2.15351 8.68131,-4.37649 9.02955,-4.939956 0.34824,-0.563466 1.39411,-1.027256 2.32415,-1.030645 0.93004,-0.0034 3.04098,-0.734758 4.69098,-1.625267 5.40968,-2.919613 18.89835,-7.59363 24,-8.31634 2.75,-0.38957 6.8,-1.216856 9,-1.838413 4.42165,-1.249231 25.99474,-4.176525 31.5,-4.274296 11.95358,-0.212289 37.83351,3.364389 47.68954,6.590827 14.89776,4.87688 22.60997,8.693938 29.81046,14.754292 3.85,3.240386 7.71671,7.089454 8.5927,8.553484 1.71548,2.867082 5.0567,3.155332 7.55984,0.652194 0.73105,-0.731051 3.02079,-1.874963 5.08832,-2.542028 2.06753,-0.667065 6.37075,-2.728321 9.56272,-4.580569 C 311.49554,45.515475 315.33292,44 316.83107,44 c 1.49815,0 3.61155,-0.613231 4.69642,-1.362735 1.08488,-0.749504 3.32251,-1.62687 4.97251,-1.949701 1.65,-0.322831 5.34352,-1.029483 8.20783,-1.570337 2.86431,-0.540854 6.68931,-1.651779 8.5,-2.468721 4.86744,-2.196074 11.56668,-1.503067 16.18172,1.673929 C 361.5288,39.795096 363.63597,41 364.07216,41 c 2.05614,0 2.01496,4.27836 -0.0625,6.489672 -2.52164,2.684164 -12.11731,4.893408 -20.0097,4.6069 -11.05336,-0.401256 -14.74837,0.301783 -23.59967,4.490247 C 317.59551,57.914069 314.97124,59 314.56863,59 313.16432,59 305,66.250836 305,67.498017 c 0,0.691402 0.65269,1.798779 1.45043,2.460839 2.16155,1.793929 6.99563,10.923652 8.45531,15.968847 0.70456,2.435237 1.86715,5.360237 2.58352,6.5 1.88823,3.004198 2.7836,13.829987 2.65263,32.072297 -0.13003,18.11163 -0.72305,23.7022 -2.97012,28 -0.86269,1.65 -1.44333,3.83258 -1.29032,4.85017 0.26304,1.7493 -0.36521,3.77734 -3.53146,11.39983 -3.53324,8.50599 -4.77296,10.98257 -6.97471,13.93328 -1.3064,1.7508 -2.37528,3.4422 -2.37528,3.75866 0,0.31646 -1.35,2.439 -3,4.71676 -1.65,2.27776 -3,4.52867 -3,5.00202 0,1.2166 -10.82211,18.56878 -12.86671,20.6305 -0.93203,0.93983 -2.35575,3.01431 -3.16383,4.60996 -0.80808,1.59565 -3.15679,4.01795 -5.21935,5.38289 -2.06256,1.36493 -3.75011,2.85048 -3.75011,3.3012 0,1.53398 -10.31472,11.1409 -15.57374,14.50505 -2.88225,1.84376 -5.39477,3.76278 -5.58336,4.2645 -0.30873,0.82131 -6.54746,4.43954 -20.05966,11.63384 C 228.18903,261.8699 225.4384,263 224.67075,263 c -0.76766,0 -3.09449,1.35 -5.17075,3 -2.3973,1.90513 -4.92918,3 -6.9375,3 -1.73938,0 -3.65936,0.49686 -4.26663,1.10413 -0.91655,0.91655 -9.89714,3.11559 -22.29587,5.4595 -1.375,0.25993 -4.62738,0.90753 -7.2275,1.43911 -2.60013,0.53157 -11.15013,1.21013 -19,1.50789 -7.84988,0.29777 -17.4225,0.72514 -21.2725,0.94971 -4.66474,0.2721 -8.11768,-0.0681 -10.35027,-1.0199 z M 204,258 c 0,-0.55 -0.19844,-1 -0.44098,-1 -0.24254,0 -0.7191,0.45 -1.05902,1 -0.33992,0.55 -0.14148,1 0.44098,1 0.58246,0 1.05902,-0.45 1.05902,-1 z m -100.61057,-3.57244 c 0.87401,-2.27764 -0.96399,-5.11308 -3.646865,-5.62594 -4.628423,-0.88478 -5.145488,0.31611 -1.624351,3.77259 3.886606,3.81524 4.443256,4.01095 5.271216,1.85335 z M 194,255 c 0,-0.55 -0.47656,-1 -1.05902,-1 -0.58246,0 -0.7809,0.45 -0.44098,1 0.33992,0.55 0.81648,1 1.05902,1 0.24254,0 0.44098,-0.45 0.44098,-1 z m -65.26033,-2.25 c 2.35161,-2.98562 2.26548,-6.39654 -0.22051,-8.732 -2.18513,-2.05282 -2.75368,-2.1635 -5.42655,-1.05636 -2.56435,1.06219 -2.82382,1.49589 -1.8387,3.07332 0.63084,1.01014 1.95678,2.04838 2.94653,2.30721 1.14922,0.30052 1.79956,1.40789 1.79956,3.06421 0,2.79044 1.15422,3.35651 2.73967,1.34362 z M 215,253 c 0,-0.55 -0.19844,-1 -0.44098,-1 -0.24254,0 -0.7191,0.45 -1.05902,1 -0.33992,0.55 -0.14148,1 0.44098,1 0.58246,0 1.05902,-0.45 1.05902,-1 z m -71.51929,-5.03121 c -0.68595,-1.10989 -7.47751,-3.30532 -8.1487,-2.63413 -0.29369,0.29369 0.72743,2.18779 2.26917,4.20911 l 2.80315,3.67512 1.79248,-2.21361 c 0.98586,-1.21748 1.56361,-2.5839 1.2839,-3.03649 z M 38.5,251 c 0.339919,-0.55 0.141476,-1 -0.440983,-1 C 37.476558,250 37,250.45 37,251 c 0,0.55 0.198442,1 0.440983,1 0.242541,0 0.719098,-0.45 1.059017,-1 z m 76.36061,-0.33204 c 0.8156,-0.98274 0.76217,-1.80159 -0.20375,-3.12256 -1.52815,-2.08987 -5.11245,-1.40648 -6.09835,1.16272 -1.12051,2.92 4.14599,4.55778 6.3021,1.95984 z M 148.8,250.8 c 0.93333,-0.93333 1.46667,-0.93333 2.4,0 1.59912,1.59912 2.8,1.51819 2.8,-0.18871 0,-1.90914 -7.02026,-3.19654 -8.08006,-1.48175 -1.53452,2.48291 0.7453,3.80522 2.88006,1.67046 z m 72.2,-0.99032 c 0,-1.31439 -2.27278,-0.49134 -2.77106,1.0035 -0.24358,0.73075 0.21359,0.95424 1.1875,0.58051 C 220.2874,251.05947 221,250.34667 221,249.80968 Z M 88,250 c 0,-0.55 -0.45,-1 -1,-1 -0.55,0 -1,0.45 -1,1 0,0.55 0.45,1 1,1 0.55,0 1,-0.45 1,-1 z m 124,-2 c 0,-0.55 -0.19844,-1 -0.44098,-1 -0.24254,0 -0.7191,0.45 -1.05902,1 -0.33992,0.55 -0.14148,1 0.44098,1 0.58246,0 1.05902,-0.45 1.05902,-1 z m -38.8,-2.2 c -1.8119,-1.8119 -1.44938,-2.8 1.02727,-2.8 2.17866,0 2.16751,-0.0598 -0.5108,-2.73807 -2.21131,-2.21132 -3.07266,-2.52737 -4.47727,-1.64282 -2.75467,1.73474 -2.6692,4.22785 0.1896,5.5304 1.41416,0.64434 2.5712,1.54929 2.5712,2.01101 0,0.46171 0.54,0.83948 1.2,0.83948 0.93333,0 0.93333,-0.26667 0,-1.2 z M 52.446594,243.16401 c 1.957017,-1.15467 4.232132,-1.84079 5.05581,-1.52471 C 58.435059,241.99719 59,241.63003 59,240.66601 c 0,-2.56673 -2.014805,-2.99531 -4.324028,-0.91979 -3.499644,3.14547 -7.486054,4.04496 -18.425972,4.15765 -1.7875,0.0184 -3.25,0.45608 -3.25,0.9726 0,0.52984 3.462089,0.81879 7.94419,0.66303 5.909484,-0.20538 8.855539,-0.8138 11.502404,-2.37549 z M 82,245.18806 c 0,-0.44657 -1.269396,-1.75045 -2.820879,-2.89751 -1.551484,-1.14706 -5.018995,-4.80107 -7.705579,-8.12002 -5.010409,-6.18975 -8.61343,-7.66485 -4.023613,-1.64729 2.922542,3.83165 3.090432,4.47676 1.165081,4.47676 -0.761745,0 -2.161006,-1.18435 -3.109471,-2.63189 -1.336596,-2.0399 -1.914433,-2.32454 -2.568982,-1.26546 C 61.990643,234.63317 65.472772,239 67.63913,239 c 0.709776,0 1.739138,0.83828 2.287469,1.86285 0.954312,1.78315 4.297095,3.52408 8.573401,4.46506 3.264099,0.71825 3.5,0.70882 3.5,-0.13985 z M 91.928324,243.25 c 6.345293,-5.7585 10.231746,-7.68993 11.972006,-5.94967 0.81861,0.81861 1.53565,0.69227 2.70443,-0.47652 1.27762,-1.27762 1.36367,-2.01428 0.43746,-3.74492 C 105.70183,230.57435 106.53571,227 108.4604,227 c 1.64186,0 2.5396,2.21043 2.5396,6.25305 0,3.11716 2.37492,6.74695 4.41444,6.74695 0.60746,0 1.7078,-0.9661 2.44522,-2.14688 0.9991,-1.59982 1.54154,-1.82199 2.12874,-0.87189 0.4334,0.70125 1.26124,0.98252 1.83964,0.62504 0.98015,-0.60576 -0.25318,-5.03801 -2.67307,-9.60627 -0.43702,-0.825 -0.48561,-2.625 -0.10798,-4 0.67034,-2.44083 0.72557,-2.41124 2.33322,1.25 1.63516,3.72388 2.59741,4.43905 4.03646,3 0.4125,-0.4125 1.05,-0.81053 1.41666,-0.88452 2.65626,-0.53599 5.16667,-1.74201 5.16667,-2.48211 0,-1.1259 4.70923,-1.16286 5.40172,-0.0424 0.70724,1.14435 -4.87241,5.15903 -7.1701,5.15903 -1.01715,0 -2.72287,0.6475 -3.79049,1.43888 -1.79753,1.33244 -1.82022,1.56168 -0.30666,3.09875 1.52256,1.54624 1.83065,1.5381 4.5,-0.11891 1.57604,-0.97833 3.39115,-2.40834 4.03357,-3.1778 0.87226,-1.04473 1.66197,-1.13467 3.11852,-0.35515 2.75548,1.47469 3.09222,0.68267 1.96228,-4.61527 -0.90536,-4.24494 -0.79622,-4.81371 1.24,-6.46255 1.228,-0.99437 2.85788,-1.80795 3.62194,-1.80795 0.76407,0 1.38922,-0.45 1.38922,-1 0,-0.55 0.61431,-1 1.36514,-1 0.75083,0 2.50931,-0.9 3.90773,-2 3.13544,-2.46633 3.72713,-2.49548 3.72713,-0.18362 0,1.14485 -2.41591,3.35659 -6.5346,5.98238 l -6.5346,4.166 1.66636,2.54319 c 2.00271,3.05652 4.43822,2.61052 8.62891,-1.58017 1.64589,-1.64589 4.13561,-2.93217 6.0304,-3.11551 2.32044,-0.22453 3.31614,-0.8742 3.54389,-2.31227 0.71779,-4.53239 1.05977,-4.82167 3.67464,-3.10833 3.10479,2.03433 3.04196,2.04159 5.55098,-0.64167 1.90537,-2.0377 2.19284,-2.09195 3.04668,-0.57498 0.85433,1.51784 1.48163,1.40173 6.68507,-1.23733 3.15825,-1.6018 6.31371,-2.91806 7.01214,-2.92502 1.84302,-0.0184 9.1529,-4.81123 13.22206,-8.66926 4.29961,-4.07654 2.6362,-4.41874 -2.32277,-0.47784 -1.98321,1.57606 -4.85759,3.31328 -6.3875,3.8605 -11.2723,4.03183 -15.58017,4.28158 -18.96721,1.09962 L 171,204.65137 l -2.25,2.05734 c -2.76761,2.53063 -8.7449,5.62972 -9.46647,4.90815 -1.02316,-1.02316 0.68726,-3.65539 2.94084,-4.52577 2.93722,-1.13441 6.36262,-4.85261 7.68427,-8.34109 0.60727,-1.60291 1.79661,-2.75 2.85127,-2.75 5.3979,0 24.24009,-9.44191 24.24009,-12.14683 0,-0.44791 2.23247,-2.48108 4.96104,-4.51815 3.25937,-2.43334 5.1795,-4.6984 5.59793,-6.60352 0.44033,-2.0048 2.05594,-3.79969 5.23474,-5.81563 5.29609,-3.35868 5.23562,-3.34613 7.64169,-1.58677 1.65168,1.20774 1.69196,1.67914 0.44113,5.16251 -1.42644,3.9724 -6.30845,7.91483 -8.68988,7.01745 -1.42152,-0.53567 -6.17199,1.62067 -8.34191,3.78656 -0.73961,0.73824 -3.81974,3.05302 -6.84474,5.14396 -5.6161,3.88197 -8.96421,7.27348 -8.94449,9.06042 0.006,0.55 0.91481,2.08551 2.01944,3.41225 l 2.0084,2.41225 3.70833,-3.57681 c 3.21578,-3.10174 5.49338,-4.59127 13.20832,-8.63813 0.825,-0.43275 4.10652,-2.04957 7.29227,-3.59292 3.18575,-1.54335 6.27877,-3.75346 6.87339,-4.91136 1.10708,-2.15585 4.649,-6.16661 9.36554,-10.60528 15.90386,-14.96688 29.87699,-30 27.88468,-30 -1.1186,0 -6.86428,4.33594 -12.51096,9.44129 -5.89066,5.32596 -14.36907,10.4279 -15.4811,9.31586 C 231.7745,158.10783 237.82207,152 239.11431,152 c 1.06152,0 16.97595,-13.68385 18.58328,-15.97864 0.79914,-1.14092 3.01854,-3.74997 4.932,-5.79788 1.91347,-2.04792 4.38523,-4.96098 5.49281,-6.47348 l 2.01379,-2.75 h -4.15143 c -5.82698,0 -4.68926,-2.06996 2.08042,-3.78509 2.98574,-0.75645 5.57846,-1.52522 5.76162,-1.70837 0.18315,-0.18316 -0.40296,-1.45623 -1.30246,-2.82905 -1.55228,-2.36907 -1.52175,-2.602 0.60013,-4.57882 2.12575,-1.98045 2.32947,-1.99784 4.14588,-0.354 1.81474,1.64231 1.9808,1.63235 3.31997,-0.19907 1.73633,-2.37458 1.77677,-3.98493 0.16488,-6.56598 -1.10204,-1.76464 -0.80257,-2.38667 2.61113,-5.42369 2.12076,-1.886748 4.43805,-4.552487 5.14953,-5.923865 1.19011,-2.293933 1.12122,-2.483923 -0.86113,-2.374783 -1.1851,0.06525 -4.03581,1.384051 -6.33491,2.930675 C 279.02073,91.734581 276.73667,93 276.24414,93 c -2.01654,0 -5.39435,5.008833 -5.81895,8.6287 -0.24975,2.12922 -1.28152,4.56493 -2.29282,5.4127 -1.0113,0.84778 -2.38609,2.56416 -3.05508,3.81419 -0.96392,1.80109 -1.78195,2.14855 -3.9416,1.67421 -2.44918,-0.53793 -4.29085,0.90789 -18.18047,14.27266 -8.50037,8.17917 -17.00785,16.40715 -18.90551,18.28438 C 217.25333,151.81008 205.50824,162 204.5553,162 c -0.53404,0 -2.56495,1.53438 -4.51314,3.40973 C 196.15827,169.14841 189.77847,173 187.46958,173 c -0.80827,0 -1.48197,0.5625 -1.49711,1.25 -0.0151,0.6875 -1.65635,2.375 -3.64713,3.75 -1.99078,1.375 -5.46589,4.23255 -7.72247,6.35012 -2.25658,2.11756 -5.79037,4.71421 -7.85287,5.77032 -2.0625,1.05611 -3.75,2.32295 -3.75,2.81519 0,0.92938 -20.2335,14.65743 -25.5,17.30127 -1.65,0.82832 -5.16131,2.68887 -7.80291,4.13457 -5.24352,2.86966 -7.32178,3.25446 -7.91792,1.46603 -0.221,-0.663 -1.86809,0.31515 -3.83334,2.27652 -1.89521,1.89146 -5.47083,4.39019 -7.94583,5.55273 -2.475,1.16255 -5.35724,3.06311 -6.40499,4.22349 -1.04774,1.16037 -2.39774,2.11253 -3,2.11592 -0.602254,0.003 -2.250003,0.6089 -3.661661,1.34558 -4.866646,2.53967 -8.042066,2.88184 -9.408029,1.01377 -1.170342,-1.60053 -1.35046,-1.56076 -2.478716,0.54741 -1.468547,2.744 -0.808203,5.84915 2.004248,9.4246 2.480963,3.15403 2.420061,3.14264 4.877472,0.91248 z M 237,150 c 0,-0.55 0.47656,-1 1.05902,-1 0.58246,0 0.7809,0.45 0.44098,1 -0.33992,0.55 -0.81648,1 -1.05902,1 C 237.19844,151 237,150.55 237,150 Z m 12,-16.5 c 0,-0.825 0.675,-1.5 1.5,-1.5 0.825,0 1.5,0.675 1.5,1.5 0,0.825 -0.675,1.5 -1.5,1.5 -0.825,0 -1.5,-0.675 -1.5,-1.5 z M 97.5,244 c 0.339919,-0.55 0.141476,-1 -0.440983,-1 C 96.476558,243 96,243.45 96,244 c 0,0.55 0.198442,1 0.440983,1 0.242541,0 0.719098,-0.45 1.059017,-1 z m 12.03455,-1.9441 c -0.5918,-0.95755 -5.60771,-1.09998 -7.03455,-0.19975 -0.55,0.34701 0.575,0.88427 2.5,1.19391 3.79242,0.61003 5.31913,0.27531 4.53455,-0.99416 z M 133.5,242 c 0.33992,-0.55 0.14148,-1 -0.44098,-1 -0.58246,0 -1.05902,0.45 -1.05902,1 0,0.55 0.19844,1 0.44098,1 0.24254,0 0.7191,-0.45 1.05902,-1 z m 12.22234,-0.3284 c 2.09499,-1.29477 0.24713,-3.88075 -2.31377,-3.23801 -4.66888,1.17181 -7.51548,2.58441 -6.9739,3.46071 0.64003,1.03559 7.51859,0.87066 9.28767,-0.2227 z m 10.16534,-6.05438 c -0.98593,-1.15548 -3.78316,-0.0532 -4.48121,1.76592 -0.30149,0.78568 0.25129,2.3622 1.22841,3.50339 1.7735,2.07131 1.77849,2.06931 2.89131,-1.15582 0.6131,-1.77689 0.77577,-3.62796 0.36149,-4.11349 z m -72.620063,4.29815 c -0.643237,-2.45975 -2.979336,-3.60365 -4.419105,-2.16388 -0.689404,0.6894 -0.273913,1.53757 1.289724,2.63278 3.063066,2.14546 3.784772,2.03732 3.129381,-0.4689 z M 185,240 c 0,-0.55 -0.45,-1 -1,-1 -0.55,0 -1,0.45 -1,1 0,0.55 0.45,1 1,1 0.55,0 1,-0.45 1,-1 z m 43,-1 c 0,-0.55 -0.47656,-1 -1.05902,-1 -0.58246,0 -0.7809,0.45 -0.44098,1 0.33992,0.55 0.81648,1 1.05902,1 0.24254,0 0.44098,-0.45 0.44098,-1 z m 9,0 c 0,-0.55 -0.19844,-1 -0.44098,-1 -0.24254,0 -0.7191,0.45 -1.05902,1 -0.33992,0.55 -0.14148,1 0.44098,1 0.58246,0 1.05902,-0.45 1.05902,-1 z m -41.25608,-4.5552 c 0.96494,-0.29273 0.98501,-0.94563 0.0895,-2.91108 -1.42917,-3.13668 -4.08357,-3.25896 -6.15899,-0.28372 -1.85718,2.66238 -2.16921,0.96203 -0.73875,-4.0257 0.82022,-2.85993 0.64853,-3.45064 -1.39145,-4.78728 -2.12649,-1.39333 -2.64085,-1.34858 -5.96609,0.51909 C 179.5767,224.08025 177.05285,225 175.96958,225 174.88631,225 174,225.40122 174,225.89159 c 0,0.49038 -1.125,1.17395 -2.5,1.51905 -3.6752,0.92242 -3.20718,4.0259 0.90113,5.97542 1.87062,0.88767 3.90676,1.61394 4.52475,1.61394 1.50143,0 3.26669,-4.81789 2.56979,-7.01366 -0.32207,-1.01472 0.0462,-1.98028 0.87676,-2.29901 1.76302,-0.67654 2.62757,0.10516 2.62757,2.37574 0,0.95136 1.55009,3.09075 3.44465,4.75419 3.30167,2.8989 4.44748,3.09944 9.29927,1.62754 z M 77.460498,230.45287 C 76.675104,223.91009 75.347242,221 73.147196,221 c -3.266635,0 -4.670459,2.62297 -3.095664,5.78409 1.582773,3.17713 5.96092,8.21591 7.138727,8.21591 0.448841,0 0.570449,-2.04621 0.270239,-4.54713 z M 166.5,232 c -0.33992,-0.55 -1.04148,-1 -1.55902,-1 -0.51754,0 -0.94098,0.45 -0.94098,1 0,0.55 0.70156,1 1.55902,1 0.85746,0 1.2809,-0.45 0.94098,-1 z M 57,229.93261 c 0,-1.64259 0.429835,-1.93096 2.09192,-1.40344 1.667684,0.52931 2.018803,0.28948 1.731375,-1.18261 C 60.606921,226.23839 59.606612,225.5 58.321732,225.5 c -2.766071,0 -3.096926,-0.38587 -3.812258,-4.44622 -0.742392,-4.21395 -1.366238,-5.26034 -2.659599,-4.461 -0.563504,0.34827 -0.713071,1.7957 -0.337517,3.26631 0.370926,1.4525 0.831545,3.84313 1.023598,5.31252 C 52.918027,228.09482 55.036693,232 56.240547,232 56.658246,232 57,231.06968 57,229.93261 Z m 193.38156,0.51545 c 0.34149,-0.88992 0.17385,-1.29132 -0.39301,-0.94098 -0.5437,0.33602 -0.98855,1.0344 -0.98855,1.55194 0,1.43843 0.71677,1.12146 1.38156,-0.61096 z M 49.41655,228.64313 C 49.06976,227.73941 48.368335,227 47.857827,227 c -0.51083,0 -0.426291,0.93781 0.18801,2.08565 1.273339,2.37925 2.323439,2.04024 1.370713,-0.44252 z M 203,230 c 0,-0.55 -0.19844,-1 -0.44098,-1 -0.24254,0 -0.7191,0.45 -1.05902,1 -0.33992,0.55 -0.14148,1 0.44098,1 0.58246,0 1.05902,-0.45 1.05902,-1 z m 24.64729,-2.68604 c -0.30857,-0.30857 -1.36794,-0.23214 -2.35416,0.16984 -1.67226,0.6816 -1.65831,0.782 0.20687,1.48938 1.88323,0.71423 3.37108,-0.43543 2.14729,-1.65922 z M 87.834647,226.66287 c 0.942595,-0.74033 1.144908,-2.31353 0.688727,-5.35557 C 88.130673,218.68859 88.266809,217 88.870633,217 c 1.462328,0 4.916519,5.29489 4.403449,6.75 -0.495878,1.40635 -0.130586,1.5159 2.144131,0.64301 C 96.35287,224.03435 97,222.61025 97,220.91206 c 0,-2.30444 0.544951,-3.00811 2.75,-3.55094 1.5125,-0.37234 5.53527,-2.36143 8.93949,-4.4202 3.40422,-2.05877 8.89413,-5.0252 12.1998,-6.59207 3.89705,-1.84718 6.02795,-3.46416 6.06051,-4.59885 0.0276,-0.9625 0.47072,-1.75 0.98469,-1.75 0.51397,0 4.28767,-2.66466 8.38601,-5.92146 l 7.45153,-5.92145 -0.44672,-4.32855 c -0.6617,-6.41156 2.20393,-11.12411 7.29038,-11.98907 2.13637,-0.3633 5.84048,-1.21662 8.23135,-1.89628 3.12778,-0.88913 5.56801,-0.95634 8.70014,-0.2396 2.72502,0.62357 4.7056,0.64363 5.2956,0.0536 0.59,-0.59 1.68879,-0.5431 2.93791,0.12541 1.69815,0.90882 2.32499,0.58744 4.20789,-2.15736 1.21687,-1.7739 4.52331,-4.80027 7.34764,-6.72527 2.82434,-1.925 6.7166,-4.85 8.64947,-6.5 1.93287,-1.65 5.08931,-4.10494 7.01431,-5.45542 4.94826,-3.47146 5.7544,-4.11603 10.06088,-8.04458 5.45076,-4.9724 6.94432,-6.19293 10.68274,-8.72989 1.82105,-1.2358 5.13436,-4.05213 7.3629,-6.25851 2.22854,-2.20638 4.51562,-4.0116 5.08241,-4.0116 0.56678,0 3.58165,-2.5875 6.69972,-5.75 3.11807,-3.1625 12.76882,-12.62671 21.44612,-21.031586 l 15.77691,-15.281586 3.63793,1.004481 c 2.00086,0.552465 3.69298,0.904179 3.76026,0.781586 0.0673,-0.122592 0.86347,-1.797895 1.76932,-3.722895 1.58099,-3.359744 1.56458,-3.563107 -0.40954,-5.074783 -3.19272,-2.444815 -13.3137,-0.620533 -17.64223,3.179968 C 269.41406,77.697333 266.92553,79 265.69734,79 c -1.22819,0 -3.80003,1.049358 -5.71521,2.331906 -1.91517,1.282549 -5.95713,3.641617 -8.98213,5.242373 -3.025,1.600757 -5.725,3.138899 -6,3.418094 -1.157,1.174654 -7.41998,4.306947 -8.8974,4.449844 -1.56923,0.151777 -12.39696,4.904199 -20.87167,9.160833 -2.34799,1.17933 -4.49618,1.77679 -4.77375,1.32767 C 209.67254,103.66114 216.83368,97 218.9832,97 c 1.0541,0 3.8516,-1.302585 6.21667,-2.894633 2.36507,-1.592049 7.01445,-4.271037 10.33195,-5.953308 3.3175,-1.682272 7.10844,-4.204687 8.42432,-5.605367 C 245.40172,81.007933 247.44362,80 249.1153,80 c 1.52166,0 3.05007,-0.458557 3.39645,-1.019016 C 253.36416,77.601754 262.55579,73 264.45828,73 c 0.83863,0 2.08683,-0.9 2.77379,-2 0.68696,-1.1 1.95078,-2 2.80848,-2 0.8577,0 1.98695,-0.406321 2.50945,-0.902935 0.5225,-0.496615 1.74588,-1.059115 2.71863,-1.25 1.61859,-0.317623 1.57618,-0.62103 -0.5,-3.576644 -1.96046,-2.790867 -2.74408,-3.175003 -5.76863,-2.827816 -7.95352,0.912979 -10.97169,-2.808555 -4.08852,-5.041318 4.11647,-1.335301 2.75326,-2.420455 -3.08972,-2.459506 C 259.44479,52.925895 253.225,52.754245 248,52.560336 c -7.32249,-0.27175 -11.27286,0.123781 -17.23461,1.725611 -7.91272,2.126031 -10.01432,1.923846 -7.79527,-0.749948 1.80207,-2.171355 -0.8781,-2.982668 -6.77568,-2.051067 -2.58194,0.407853 -5.81944,0.886186 -7.19444,1.062962 -5.97584,0.768283 -14.67648,2.738973 -18.04728,4.087699 -2.00839,0.803599 -4.73187,1.586712 -6.05217,1.740251 -1.3203,0.153539 -3.07555,0.551249 -3.90055,0.8838 -0.825,0.332552 -6.45,2.243368 -12.5,4.246258 -6.05,2.002891 -11.675,4.241304 -12.5,4.974252 -0.825,0.732947 -4.73785,2.90156 -8.69522,4.819139 -3.95737,1.917579 -8.67304,4.547203 -10.47926,5.843607 -1.80622,1.296405 -4.01783,2.8071 -4.91469,3.3571 -8.00005,4.906001 -23.56409,17.58715 -28.46538,23.19279 -1.13,1.2924 -3.821973,3.29709 -5.982163,4.45488 -4.497386,2.41046 -6.466799,4.6796 -5.729362,6.60133 0.295837,0.77094 -0.06723,1.21016 -0.861244,1.04189 -0.88341,-0.18721 -1.270412,0.45652 -1.085758,1.80602 0.310369,2.26826 -2.124948,4.86375 -4.586371,4.88802 -0.840607,0.008 -1.977434,1.36507 -2.526281,3.01507 -0.548848,1.65 -2.387587,5.10259 -4.086088,7.67243 -9.212734,13.9389 -18.505157,29.64859 -19.218434,32.49051 -0.325219,1.29578 -0.991457,2.60326 -1.480528,2.90553 C 57.400149,170.87073 57,172.29997 57,173.74457 c 0,1.44459 -0.843639,3.55553 -1.874754,4.69098 -2.466831,2.71644 -5.360381,11.7598 -4.965931,15.52029 0.206633,1.96992 -0.288884,3.41842 -1.463142,4.27706 -1.580847,1.15594 -1.650801,1.88022 -0.637803,6.60366 1.095008,5.10585 1.015494,6.60613 -0.551905,10.41344 -1.214906,2.95108 1.168669,1.95289 3.272992,-1.37066 1.812988,-2.86341 1.866072,-3.53684 0.643983,-8.16956 -1.454575,-5.51404 -1.15323,-6.90823 1.401967,-6.4863 1.084136,0.17902 1.787266,-0.51682 1.994144,-1.97348 0.175753,-1.2375 0.963253,-2.25 1.75,-2.25 C 57.356298,195 58,194.31889 58,193.48643 c 0,-0.83246 0.426941,-2.29496 0.948758,-3.25 0.943667,-1.72711 2.559353,-10.5905 2.369307,-12.99762 -0.05477,-0.69366 1.221749,-2.67568 2.836698,-4.40448 2.209308,-2.36508 3.2204,-2.85917 4.083889,-1.99568 0.863489,0.86349 0.650654,1.83017 -0.859659,3.90448 -3.458642,4.75023 -3.844987,5.61703 -2.057787,4.61687 C 68.34394,177.66839 81,165.60679 81,164.41764 c 0,-2.07044 37.18448,-38.14041 44.31141,-42.98328 2.10691,-1.43168 3.98574,-3.80471 4.68151,-5.9129 0.6392,-1.9368 1.72384,-3.52146 2.41032,-3.52146 0.68647,0 2.33907,-1.18612 3.67245,-2.63583 1.33337,-1.44971 4.67431,-4.0958 7.42431,-5.8802 2.75,-1.78441 5.85724,-4.198284 6.90499,-5.364172 2.68956,-2.992847 3.95007,-2.645107 3.24217,0.894425 l -0.60285,3.014227 2.97785,-1.53991 c 3.38223,-1.749017 3.41135,-1.821511 1.78087,-4.432324 -1.01323,-1.622447 -0.82136,-2.231356 1.25,-3.966922 1.34584,-1.127653 4.35947,-2.999199 6.69697,-4.158992 2.3375,-1.159793 4.25,-2.67134 4.25,-3.358993 0,-1.063495 1.24252,-1.932771 6.25,-4.372555 0.4125,-0.200981 0.74871,0.459579 0.74712,1.467913 -0.003,1.852295 -5.29639,6.045277 -7.04876,5.583333 -1.08028,-0.284776 -1.29271,2.072322 -0.27819,3.086841 0.3686,0.368596 1.65163,0.0271 2.85118,-0.758874 4.66511,-3.056698 19.72977,-10.490208 21.79813,-10.756079 1.19928,-0.154158 4.05625,-1.752147 6.34882,-3.551088 4.7642,-3.738401 7.85694,-4.194271 8.62145,-1.2708 0.85859,3.283257 2.9968,2.405718 2.49351,-1.023361 -0.37204,-2.534928 0.0539,-3.325264 2.6365,-4.892126 1.69413,-1.027821 4.6248,-2.196087 6.5126,-2.596147 1.88779,-0.40006 4.84323,-1.519824 6.56764,-2.488366 2.80123,-1.573356 8.28585,-3.290314 11,-3.443544 0.55,-0.03105 1.40036,-0.967115 1.88968,-2.080143 0.71688,-1.630623 1.78516,-2.007667 5.5,-1.94121 3.95072,0.07068 4.65607,0.396194 4.93007,2.275232 0.25914,1.777062 0.78047,2.077123 2.75,1.582802 C 255.04858,59.021976 256,59.217118 256,59.891592 256,60.501216 255.88607,61 255.74682,61 c -0.13925,0 -3.32694,0.879014 -7.08374,1.953364 -5.42389,1.551092 -6.58216,1.654061 -5.62438,0.5 C 243.70211,62.654014 244.83823,62 245.56343,62 c 0.72519,0 1.60562,-0.464514 1.9565,-1.032253 0.84052,-1.359978 -5.29449,-0.693951 -8.26839,0.897631 -1.2274,0.656885 -2.12361,1.728448 -1.99159,2.381251 0.13203,0.652803 -1.21709,1.929822 -2.99805,2.83782 -1.78095,0.907998 -3.91845,2.21555 -4.75,2.905673 -0.83154,0.690122 -1.51879,0.862167 -1.52721,0.382323 -0.008,-0.479845 -0.34592,-0.370491 -0.75,0.243008 -0.40408,0.613499 -4.33469,2.347266 -8.73469,3.852817 -4.4,1.505551 -8.45,3.05748 -9,3.448732 -0.55,0.391252 -4.15,2.00539 -8,3.586973 -3.85,1.581583 -8.4258,3.661897 -10.16844,4.62292 -1.74264,0.961023 -6.61058,3.180282 -10.81764,4.931687 -4.20706,1.751405 -8.85626,4.175869 -10.33156,5.387699 -1.4753,1.21183 -6.73236,4.615149 -11.68236,7.562919 -8.5764,5.10734 -12.77141,8.15942 -32.6872,23.78154 C 113.95023,137.09585 104,146.50441 104,148.4161 c 0,0.87114 -0.62067,1.5839 -1.37926,1.5839 -1.95542,0 -7.320461,5.7326 -17.781781,19 -4.987252,6.325 -10.350781,13.075 -11.918953,15 C 65.982717,192.51582 62,198.61503 62,200.72309 62,201.99631 61.38948,203 60.61501,203 58.77135,203 56,207.3495 56,210.24303 c 0,3.24925 6.766903,17.01907 7.991693,16.2621 1.432834,-0.88554 1.247717,-3.71831 -0.396376,-6.06558 -1.53925,-2.19759 -2.44399,-8.92421 -1.347762,-10.02044 0.378489,-0.37849 1.248949,1.40856 1.934355,3.97121 0.863711,3.22932 1.665978,4.49829 2.613929,4.13453 C 67.548094,218.23618 69.304194,218 70.698284,218 c 2.52437,0 2.53187,-0.0265 1.838619,-6.5 -0.720611,-6.72897 0.306592,-8.52947 2.513533,-4.40576 1.06408,1.98825 1.418817,1.78202 7.009358,-4.07498 C 87.581279,197.23461 90,196.18056 90,199.55902 90,200.4294 89.010049,201 87.5,201 c -2.034915,0 -2.5,0.49079 -2.5,2.63817 0,1.68962 -1.443683,4.20438 -4.015279,6.99423 -4.208782,4.56599 -4.222475,4.64399 -2.389351,13.61164 0.892483,4.36604 5.293236,5.51815 9.239277,2.41883 z M 96,191.16052 c 0,-1.01581 1.177306,-2.37591 2.629226,-3.03745 1.446074,-0.65887 2.365214,-1.46197 2.042524,-1.78465 -0.32268,-0.32269 0.40666,-1.3921 1.62077,-2.37648 1.21412,-0.98438 1.84877,-2.14973 1.41035,-2.58966 -0.43842,-0.43993 -2.1723,0.67155 -3.853065,2.46997 -3.616228,3.86935 -7.161709,3.98856 -7.688913,0.25851 -0.18651,-1.31958 0.110186,-3.34458 0.659322,-4.5 0.549137,-1.15542 1.22591,-2.82519 1.503939,-3.7106 0.533091,-1.69768 9.083107,-4.37452 10.727147,-3.35846 0.52178,0.32248 0.9487,1.8946 0.9487,3.49359 v 2.90726 l 3.4107,-2.01236 c 1.87588,-1.1068 3.66176,-2.66662 3.96861,-3.46628 0.30686,-0.79965 1.21672,-1.45391 2.02192,-1.45391 0.8052,0 1.73687,-0.85974 2.07038,-1.91054 0.33351,-1.0508 1.60133,-2.58949 2.81738,-3.41933 1.21606,-0.82983 6.22132,-5.37009 11.12281,-10.08946 4.90148,-4.71937 9.28898,-8.58067 9.75,-8.58067 0.46101,0 0.8382,-0.57798 0.8382,-1.28439 0,-0.70642 1.4625,-2.13015 3.25,-3.16385 1.7875,-1.0337 4.87751,-3.26822 6.86669,-4.96561 8.51243,-7.26373 12.16964,-10.14085 13.96846,-10.98896 1.05317,-0.49655 1.91485,-1.4733 1.91485,-2.17055 0,-0.69725 1.37255,-1.56919 3.0501,-1.93764 1.93927,-0.42594 3.85131,-1.91009 5.25,-4.07513 1.20995,-1.87287 2.99572,-3.66512 3.96839,-3.9828 0.97266,-0.31767 3.21045,-1.89461 4.97286,-3.50432 3.78709,-3.45898 7.52626,-4.12876 5.57102,-0.99791 -0.66252,1.06086 -2.30979,2.4324 -3.6606,3.04787 -1.58244,0.72101 -2.11187,1.46319 -1.48847,2.08659 1.07832,1.07832 6.79668,-1.35731 8.07463,-3.43924 0.41914,-0.68283 2.33707,-1.85615 4.26207,-2.60738 1.925,-0.75123 4.69447,-2.1873 6.15437,-3.19128 1.4599,-1.00397 3.1474,-1.8254 3.75,-1.8254 2.80987,0 0.32437,2.24934 -8.65437,7.8321 -5.3625,3.33427 -10.87986,7.21107 -12.26079,8.61511 -1.38094,1.40403 -2.89118,2.55279 -3.3561,2.55279 -0.46491,0 -2.48506,1.28518 -4.48921,2.85596 -2.00414,1.57077 -5.51538,3.93327 -7.80274,5.25 -8.00777,4.60968 -26.12715,19.4164 -45.84116,37.46028 -12.06573,11.04354 -26.947098,23.37188 -28.25,23.40346 -0.6875,0.0167 -1.25,-0.79747 -1.25,-1.80918 z m 86.51216,-72.9817 c -0.79461,-0.79461 -2.51396,1.00926 -1.90347,1.99704 0.41524,0.67187 0.93059,0.56959 1.46194,-0.29014 0.45134,-0.73029 0.65003,-1.49839 0.44153,-1.7069 z M 55,186.5 c 0,-0.825 0.45,-1.5 1,-1.5 0.55,0 1,0.675 1,1.5 0,0.825 -0.45,1.5 -1,1.5 -0.55,0 -1,-0.675 -1,-1.5 z m 51.66667,-30.16667 c -1.03169,-1.03168 -0.78926,-4.67529 0.49128,-7.38397 0.63688,-1.34715 2.93621,-3.79936 5.10963,-5.44936 2.17342,-1.65 5.36484,-4.31744 7.09205,-5.92763 1.7272,-1.6102 4.76067,-3.22499 6.74104,-3.58842 3.41966,-0.62757 3.59524,-0.52605 3.4926,2.01955 -0.16971,4.20933 -3.38448,9.14661 -8.78785,13.4965 -8.84564,7.12103 -12.22014,8.75194 -14.13875,6.83333 z m 91.94032,-13.91512 c -1.17867,-3.07155 -0.56123,-4.55282 3.87439,-9.29484 4.42652,-4.73232 11.15145,-8.08636 13.41204,-6.68924 0.60862,0.37615 1.10658,2.21735 1.10658,4.09155 0,2.56725 -0.8714,4.27905 -3.53333,6.94099 -1.94334,1.94333 -4.30584,3.57083 -5.25,3.61666 -4.72064,0.22916 -6.64957,0.71537 -6.99919,1.76423 -0.54847,1.6454 -1.89961,1.42318 -2.61049,-0.42935 z m 10.21256,-7.17843 c 0.36516,-2.55943 -0.63027,-2.82988 -3.2812,-0.89148 -1.06886,0.78157 -1.53033,1.85566 -1.09789,2.55536 1.17149,1.89551 4.02601,0.8109 4.37909,-1.66388 z M 154,125.5794 c 0,-3.32715 3.08583,-6.83257 4.96024,-5.63469 1.26014,0.80532 1.22589,1.19214 -0.25,2.82298 -0.94063,1.03939 -1.71024,2.36871 -1.71024,2.95406 0,0.58535 -0.675,1.32329 -1.5,1.63988 -1.07196,0.41135 -1.5,-0.0972 -1.5,-1.78223 z m 63.39301,-10.16119 c 0.33385,-0.86998 0.60699,-1.76998 0.60699,-2 0,-0.23001 0.42955,-0.41821 0.95455,-0.41821 0.525,0 2.07954,-1.125 3.45454,-2.5 3.41405,-3.41405 7.12891,-3.34013 4.8256,0.096 -0.40408,0.60281 -1.9592,1.39563 -3.45583,1.76181 -1.49662,0.36617 -3.19995,1.56046 -3.78518,2.65397 -1.25865,2.35181 -3.48042,2.699 -2.60067,0.4064 z M 197,106.05902 C 197,104.92656 197.45,104 198,104 c 0.55,0 1,0.64844 1,1.44098 0,0.79254 -0.45,1.7191 -1,2.05902 -0.55,0.33992 -1,-0.30852 -1,-1.44098 z m 33.69532,-0.11612 c -0.3422,-1.30858 -0.11174,-1.91521 0.63337,-1.66714 1.43833,0.47887 2.18886,3.72424 0.86127,3.72424 -0.52619,0 -1.19877,-0.9257 -1.49464,-2.0571 z m -30.13575,-1.84651 C 199.97733,103.15431 204.52202,99 206.13486,99 c 1.42314,0 0.98278,1.589 -0.88486,3.19291 -2.7781,2.3858 -4.06865,2.90954 -4.69043,1.90348 z m 36.35065,-1.92863 c 0.53932,-1.00774 1.69032,-2.421271 2.55776,-3.141187 0.88517,-0.734628 1.32986,-2.088152 1.01351,-3.08488 -0.43217,-1.36165 -0.12564,-1.661397 1.314,-1.284923 1.25486,0.328153 2.43704,-0.362712 3.56414,-2.082876 1.75012,-2.671023 4.66414,-3.508128 4.60857,-1.323894 -0.0433,1.702026 -1.61092,3.51353 -7.35899,8.503902 -5.20868,4.522078 -7.30174,5.408618 -5.69899,2.413858 z M 212,95.174314 c 0,-1.107626 3.93615,-4.633153 6.85736,-6.141992 4.26747,-2.204197 4.419,0.410859 0.21937,3.785772 C 215.30341,95.850421 212,96.950301 212,95.174314 Z M 226,85.02568 c 0,-0.535876 1.35,-1.672432 3,-2.52568 2.82999,-1.463445 3,-1.442628 3,0.367331 C 232,84.760054 230.18648,86 227.41821,86 226.6382,86 226,85.561556 226,85.02568 Z m 9.05788,-4.455941 c -0.94984,-1.14448 -0.77036,-1.653247 0.89822,-2.546244 2.83118,-1.515204 4.31765,-0.434696 2.78287,2.022865 -1.4548,2.329508 -2.10537,2.422007 -3.68109,0.523379 z M 181.66667,80.333333 C 180.19905,78.865712 181.05781,71.741966 183,69.272871 c 1.1,-1.398424 2,-3.156902 2,-3.90773 0,-1.609868 3.58582,-1.844312 4.54213,-0.296967 0.3631,0.587495 1.27524,0.832148 2.027,0.543674 0.75175,-0.288475 1.63279,-0.09415 1.95786,0.431826 1.0638,1.721258 5.36436,1.027858 6.47301,-1.043674 0.5887,-1.1 1.6237,-2 2.29999,-2 0.6763,0 2.90883,-0.9 4.96119,-2 2.05237,-1.1 3.9582,-2 4.2352,-2 0.27699,0 0.50362,0.9 0.50362,2 0,1.1 -0.45682,2 -1.01515,2 -0.55833,0 -3.5121,1.4625 -6.56393,3.25 -3.05184,1.7875 -6.51358,3.788139 -7.69276,4.445864 -1.17918,0.657725 -2.47911,2.101852 -2.88873,3.209171 -0.40963,1.107319 -3.00111,3.156681 -5.75886,4.554136 -5.58568,2.830482 -5.48655,2.801515 -6.4139,1.874162 z m 4.87445,-6.399864 C 187.71375,72.036115 186.0035,71.567928 184.2619,73.309524 182.70296,74.868465 182.70022,75 184.2267,75 c 0.9104,0 1.95188,-0.479939 2.31442,-1.066531 z M 258.18487,70.25 C 258.61263,67.991893 265,67.120276 265,69.32001 c 0,0.7957 -1.0125,1.718067 -2.25,2.049704 -3.74356,1.003236 -4.91296,0.716411 -4.56513,-1.119714 z M 161,226.03138 c 0,-0.53273 -0.675,-0.70959 -1.5,-0.39301 -0.825,0.31659 -1.5,0.75246 -1.5,0.96862 0,0.21615 0.675,0.39301 1.5,0.39301 0.825,0 1.5,-0.43588 1.5,-0.96862 z m 90.45,-1.14377 C 252.02457,224.35078 251.57896,224 250.32244,224 c -1.14265,0 -2.69162,0.73991 -3.44215,1.64425 -1.22139,1.47167 -1.10304,1.56483 1.12755,0.8876 1.37069,-0.41615 2.91966,-1.15606 3.44216,-1.64424 z m -45.89113,-0.31619 c 1.81727,-1.33742 1.82865,-1.47218 0.1784,-2.11188 -0.96951,-0.37581 -2.43201,-0.12785 -3.25,0.55103 -3.30966,2.74677 -0.48805,4.18059 3.0716,1.56085 z M 234.5,222 c 0.33992,-0.55 -0.0835,-1 -0.94098,-1 -0.85746,0 -1.55902,0.45 -1.55902,1 0,0.55 0.42344,1 0.94098,1 0.51754,0 1.2191,-0.45 1.55902,-1 z m -33.41287,-4.31287 C 200.48921,217.08921 200,216.04668 200,215.3704 c 0,-0.77944 1.67438,-0.29378 4.57345,1.32654 2.53405,1.41631 4.92501,2.16528 5.36183,1.67961 0.43361,-0.4821 1.25271,-2.78905 1.82022,-5.12655 1.13459,-4.67323 0.2488,-5.46886 -2.908,-2.61199 -1.32464,1.19878 -2.15717,1.34987 -3.10473,0.56347 -2.03011,-1.68484 -6.31595,-0.73842 -9.75305,2.15371 C 194.26098,214.80984 192.43108,216 191.92327,216 191.41547,216 191,216.72378 191,217.60841 c 0,1.14467 0.64873,1.46891 2.25,1.12458 1.2375,-0.26611 3.375,-0.16078 4.75,0.23407 3.014,0.86549 4.58232,0.21526 3.08713,-1.27993 z m 59.45399,0.24634 c 0.92034,-1.48915 -0.14673,-2.29879 -2.06137,-1.56407 -0.88358,0.33906 -1.32643,1.06965 -0.98412,1.62354 0.81058,1.31154 2.21511,1.28411 3.04549,-0.0595 z m -43.11115,-0.82016 c 0.90901,-1.4708 -2.33732,-3.60596 -3.58522,-2.35806 -0.58877,0.58877 -0.76814,1.55969 -0.3986,2.15762 0.80999,1.31059 3.22269,1.43198 3.98382,0.20044 z m 29.82003,-3.9203 c 0.9625,-0.82664 1.75,-2.08675 1.75,-2.80025 0,-0.78047 -1.02752,-0.34498 -2.57932,1.09317 -1.41862,1.31473 -3.21862,2.1451 -4,1.84526 C 241.63931,213.03135 241,213.20917 241,213.72634 c 0,2.54742 2.95671,2.29511 6.25,-0.53333 z m -119.42352,0.24367 c 3.11539,-1.55416 5.02856,-3.44009 3.48254,-3.43294 -1.0773,0.005 -7.30902,3.82599 -7.30902,4.48156 0,0.76917 0.40522,0.65812 3.82648,-1.04862 z m 95.06341,-1.804 c 0.86313,-1.04001 0.77275,-1.66778 -0.37756,-2.62245 -0.83178,-0.69031 -1.54983,-1.08752 -1.59566,-0.88267 -0.99092,4.42875 -0.10273,6.00649 1.97322,3.50512 z M 218.075,208.725 c -0.12369,-1.1957 -1.49529,-0.96414 -1.925,0.325 -0.22,0.66 0.14,1.02 0.8,0.8 0.66,-0.22 1.16625,-0.72625 1.125,-1.125 z M 137.5,207 c 0.33992,-0.55 0.16803,-1 -0.38197,-1 -0.55,0 -1.27811,0.45 -1.61803,1 -0.33992,0.55 -0.16803,1 0.38197,1 0.55,0 1.27811,-0.45 1.61803,-1 z M 186,201.97968 C 186,201.44085 185.48711,201 184.86024,201 c -0.62686,0 -1.66157,-0.71363 -2.29935,-1.58584 -1.02848,-1.40653 -1.51855,-1.27085 -4.3343,1.19993 -2.93914,2.57904 -3.05653,2.91634 -1.58203,4.54564 1.51801,1.67739 1.77462,1.66707 5.47406,-0.22024 C 184.25338,203.85041 186,202.5185 186,201.97968 Z M 210.5,206 c -1.15411,-1.86739 0.4999,-3.07042 2.64388,-1.923 1.55384,0.83159 2.40887,0.73274 3.68993,-0.4266 1.22404,-1.10774 2.14879,-1.23964 3.47756,-0.49603 2.74807,1.5379 4.50716,0.32985 5.24475,-3.60181 0.74226,-3.9566 3.79558,-5.1778 3.25674,-1.30256 -0.25994,1.86943 0.10999,2.20628 2.18714,1.99153 3.71143,-0.38372 6.05025,-3.70446 5.32147,-7.55561 -0.78881,-4.16836 -2.29863,-6.10876 -3.67909,-4.7283 -1.50007,1.50007 -2.64238,1.28329 -2.64238,-0.50146 0,-0.91559 0.71214,-1.42426 1.75,-1.25 1.27836,0.21465 1.75,-0.37994 1.75,-2.20616 0,-3.26081 1.90134,-4.197 2.33283,-1.14866 0.35458,2.50497 0.64967,2.5187 9.16717,0.42642 3.12073,-0.76659 3.51084,-1.23085 3.6,-4.28435 C 248.75701,173.6164 248.01354,172 245.38337,172 243.71848,172 243,172.566 243,173.87756 c 0,1.03265 -0.75304,2.49515 -1.67341,3.25 -1.47791,1.21209 -1.608,1.13877 -1.11346,-0.62756 0.30798,-1.1 0.92603,-2.8966 1.37344,-3.99245 0.63252,-1.54923 -0.12083,-1.25247 -3.38654,1.33403 -2.31002,1.82956 -4.20003,3.79115 -4.20003,4.35908 0,0.56793 -0.88345,0.80157 -1.96323,0.51921 -2.07747,-0.54327 -4.28925,1.39271 -4.68697,4.10252 -0.13082,0.89135 -1.38733,2.45796 -2.79224,3.48137 -1.90636,1.38868 -2.40731,2.44672 -1.97464,4.17058 0.47394,1.88833 -0.28255,2.96826 -4.1454,5.91776 -5.0416,3.84955 -5.95871,4.19165 -6.9476,2.59159 C 210.49597,197.37545 209,198.88727 209,201.5 c 0,1.31008 -0.45734,2.66462 -1.01631,3.01008 -1.34718,0.8326 -0.25934,2.48992 1.63434,2.48992 0.825,0 1.22189,-0.45 0.88197,-1 z m 52.5,0 c 0,-0.55 -0.19844,-1 -0.44098,-1 -0.24254,0 -0.7191,0.45 -1.05902,1 -0.33992,0.55 -0.14148,1 0.44098,1 0.58246,0 1.05902,-0.45 1.05902,-1 z m -121,-1.96862 c 0,-0.53273 -0.675,-0.70959 -1.5,-0.39301 -0.825,0.31659 -1.5,0.75246 -1.5,0.96862 0,0.21615 0.675,0.39301 1.5,0.39301 0.825,0 1.5,-0.43588 1.5,-0.96862 z m 5,-3.50755 c 0,-1.56043 -2.10512,-1.19594 -3.02552,0.52386 -1.0332,1.93056 -0.95503,2.01227 0.94983,0.99282 C 146.06594,201.42953 147,200.74702 147,200.52383 Z m -7.63533,-1.25467 c 2.82443,-1.50197 6.12261,-3.63947 7.32928,-4.75 6.02256,-5.54275 7.54941,-6.41463 16.6019,-9.48024 3.18772,-1.07951 7.01272,-2.89346 8.5,-4.031 1.48728,-1.13754 8.23202,-6.16298 14.98831,-11.16766 C 198.70759,161.00806 202.73072,157 199.67269,157 c -1.2625,0 -6.63549,3.63378 -10.7687,7.28293 -2.31603,2.04478 -10.66172,7.71707 -11.3542,7.71707 -2.18438,0 -17.7688,8.6129 -21,11.60589 -2.17262,2.01244 -6.22262,5.03969 -9,6.72723 C 142.17887,193.59648 132,200.98495 132,201.62015 c 0,0.99431 2.68668,0.13665 7.36467,-2.35099 z m 119.16646,-8.07136 c -0.87876,-0.87876 -4.52454,3.00384 -3.84821,4.09818 0.37465,0.60619 1.40201,0.0824 2.50143,-1.27531 1.02611,-1.2672 1.63217,-2.53749 1.34678,-2.82287 z M 244,193.5 c 1.02142,-1.23073 0.94733,-1.5 -0.41274,-1.5 -1.30887,0 -1.44723,-0.39313 -0.65763,-1.86852 1.22514,-2.28919 0.57502,-3.07621 -1.98753,-2.40609 -2.23412,0.58424 -2.48031,2.43994 -0.70155,5.28818 1.48658,2.3804 2.11962,2.46231 3.75945,0.48643 z m 24.46871,-3.55062 c -0.58261,-0.94269 -1.10716,-0.79673 -2.12135,0.59026 -0.74105,1.01344 -1.34736,2.53161 -1.34736,3.37371 0,1.18929 0.47357,1.05752 2.12136,-0.59026 1.27525,-1.27525 1.81264,-2.62086 1.34735,-3.37371 z M 66,186.87756 C 66,185.8449 65.535499,185 64.967776,185 c -1.199007,0 -2.957361,4.12002 -2.261335,5.29856 C 63.460673,191.57566 66,188.93807 66,186.87756 Z m 216.71125,-0.94528 c 1.60528,-3.19373 -0.12696,-5.08745 -2.1757,-2.37853 -1.8114,2.39509 -1.99643,5.76493 -0.28555,5.20061 0.6875,-0.22676 1.79506,-1.4967 2.46125,-2.82208 z M 47.421381,182.15203 c 0.773936,-1.49663 1.710085,-4.33588 2.08033,-6.30946 0.370246,-1.97358 1.966375,-5.0042 3.546955,-6.73471 1.712638,-1.8751 2.634309,-3.77044 2.281097,-4.69089 -0.357347,-0.93124 0.253653,-2.13731 1.538777,-3.03745 C 58.040843,160.55841 59,159.01211 59,157.9433 59,156.82509 59.682297,156 60.606989,156 c 1.064179,0 1.398994,-0.54203 0.991219,-1.60467 C 60.72726,152.12568 63.048109,145 64.658288,145 65.396229,145 66,145.45 66,146 c 0,2.06475 1.587635,0.78857 4.25,-3.41625 3.156517,-4.98525 3.469159,-6.8689 1.063171,-6.40554 -0.927755,0.17866 -2.059881,1.76451 -2.515835,3.52409 -0.455953,1.75958 -1.301819,3.49145 -1.879702,3.84861 -4.452898,2.75204 0.803966,-9.47991 6.238529,-14.51614 0.91089,-0.84412 3.208792,-3.62211 5.10645,-6.1733 1.897657,-2.5512 3.959486,-5.2512 4.581842,-6 0.622355,-0.74881 4.399453,-5.36791 8.39355,-10.26466 11.100115,-13.608723 26.613395,-28.298942 34.472475,-32.643533 3.73424,-2.06433 8.38546,-5.306058 10.33606,-7.203841 2.28764,-2.225705 4.94988,-3.689126 7.5,-4.122725 l 3.95346,-0.672209 -2.35416,2.017389 c -1.29479,1.109564 -2.73397,1.782661 -3.19816,1.495771 -0.4642,-0.28689 -3.22983,1.788969 -6.14584,4.613021 -2.91601,2.824051 -6.66098,5.724042 -8.32214,6.444424 -3.73394,1.619261 -6.98989,5.041545 -5.60866,5.89519 0.97951,0.605372 15.68259,-7.547335 21.62896,-11.993042 1.65,-1.233595 4.9506,-2.761985 7.33468,-3.396422 2.38407,-0.634437 6.48384,-2.475917 9.11059,-4.092178 C 162.57203,61.322395 165.3588,60 166.13809,60 c 0.77929,0 2.30453,-0.59805 3.3894,-1.329001 1.08488,-0.73095 5.57251,-2.131473 9.97251,-3.112273 4.4,-0.9808 9.92823,-2.40775 12.28495,-3.170999 C 194.14167,51.624477 197.23722,51 198.66396,51 c 1.42674,0 5.79851,-1.17383 9.71505,-2.608512 4.82864,-1.768794 9.69631,-2.720438 15.12099,-2.9562 21.24173,-0.923188 22.00972,-1.087282 22.66643,-4.843041 0.24427,-1.397055 -0.46952,-2.131933 -2.66643,-2.745192 -1.65,-0.460592 -3.59102,-0.617781 -4.31338,-0.34931 C 237.3502,38.180267 238.71187,40 241.05902,40 242.15476,40 243,40.682553 243,41.567388 c 0,1.172117 -0.56741,1.385805 -2.25,0.847348 -4.17365,-1.335642 -11.04477,-1.192902 -15.49015,0.321791 -3.15984,1.076666 -4.72512,1.198207 -5.49653,0.426795 -1.74427,-1.744271 0.8775,-3.963322 4.68259,-3.963322 4.08602,0 9.89,-1.19742 9.19119,-1.896234 -1.18729,-1.187293 -7.82879,-1.389565 -9.16672,-0.27918 -0.7947,0.659541 -2.03581,0.972414 -2.75803,0.695274 -0.72221,-0.27714 -2.41544,0.08756 -3.76273,0.810433 -1.34729,0.722879 -3.70589,1.064281 -5.24133,0.758673 -1.65264,-0.328935 -6.14085,0.485974 -11,1.997235 -4.51456,1.404087 -12.25829,3.752613 -17.20829,5.218946 -4.95,1.466333 -11.83271,3.977538 -15.2949,5.580456 -7.2085,3.337375 -7.20898,3.337486 -7.19363,1.664397 0.006,-0.6875 1.81816,-2.115657 4.02632,-3.173682 2.51667,-1.205843 3.66272,-2.275806 3.07122,-2.867311 -0.88354,-0.883534 -9.875,2.99118 -19.10901,8.234694 -1.925,1.093107 -5.70851,2.766211 -8.40781,3.718009 -2.6993,0.951798 -8.46698,3.892286 -12.81708,6.534416 C 124.42501,68.838257 120.6528,71 120.39242,71 c -0.26037,0 -1.69268,0.839383 -3.18291,1.865296 -1.49023,1.025912 -5.28081,3.514214 -8.42351,5.529558 -3.1427,2.015345 -6.2927,4.438462 -7,5.384705 -0.7073,0.946242 -5.719964,5.744345 -11.139253,10.662449 -5.419288,4.918104 -10.144288,9.651082 -10.5,10.517732 -1.228465,2.99303 -7.650572,10.96238 -8.865362,11.00126 -1.592481,0.051 -0.571629,-2.80741 2.038237,-5.70706 1.111879,-1.23533 1.779709,-2.48794 1.484069,-2.78358 -0.295641,-0.29564 -1.933512,1.16508 -3.639714,3.24605 -1.706201,2.08098 -4.058789,4.76997 -5.227971,5.97555 -1.225315,1.26345 -1.809136,2.7043 -1.378253,3.40149 0.545205,0.88216 1.109415,0.71463 2.084558,-0.61896 0.735363,-1.00567 1.55489,-1.61062 1.82117,-1.34434 0.776165,0.77616 -4.53029,10.16131 -7.108392,12.5721 C 60.05979,131.91349 59,133.36984 59,133.93859 c 0,0.56875 -2.638098,7.22774 -5.862441,14.79775 -5.433924,12.7576 -7.64332,19.70339 -8.41544,26.45604 -0.169321,1.48081 -1.107709,3.57621 -2.085307,4.65644 -1.693115,1.87088 -1.694479,2.06097 -0.02875,4.0064 2.020694,2.35999 2.867032,2.06052 4.813321,-1.70319 z M 149,60.520324 c 0,-0.795994 8.15517,-4.698483 8.69354,-4.160114 0.27486,0.274852 -1.42828,1.431245 -3.78473,2.569761 C 149.30545,61.154073 149,61.253032 149,60.520324 Z M 277,183 c 0,-0.55 -0.42344,-1 -0.94098,-1 -0.51754,0 -1.2191,0.45 -1.55902,1 -0.33992,0.55 0.0835,1 0.94098,1 C 276.29844,184 277,183.55 277,183 Z M 69,182.55902 c 0,-1.05548 -1.919113,-1.49891 -2.489919,-0.57533 C 66.164618,182.54266 66.583524,183 67.440983,183 68.298442,183 69,182.80156 69,182.55902 Z m 186.48254,-2.18441 c 1.50052,-1.50053 1.46252,-1.77714 -0.49469,-3.60056 -2.41006,-2.24531 -2.48086,-2.21708 -3.32897,1.32749 -0.95928,4.00923 0.95155,5.14517 3.82366,2.27307 z m 22.35694,-4.92166 c 1.71118,-3.75562 1.43931,-4.06348 -1.30866,-1.4819 -1.35805,1.27582 -2.23149,2.70426 -1.94098,3.17431 0.93191,1.50786 2.05894,0.9209 3.24964,-1.69241 z M 39.575091,174.55684 c 0.337258,-1.34375 0.307043,-2.93853 -0.06714,-3.54398 -0.374187,-0.60545 0.109015,-2.30552 1.073781,-3.77794 0.964767,-1.47242 2.779033,-6.91811 4.031702,-12.10153 1.25267,-5.18342 2.752103,-9.89892 3.332075,-10.4789 C 48.525478,144.07452 49,141.56857 49,139.08571 c 0,-3.79236 -0.20844,-4.28011 -1.303401,-3.05 -0.716871,0.80536 -2.133531,3.93929 -3.148135,6.96429 -1.014603,3.025 -2.227484,5.9954 -2.695291,6.60089 -0.467807,0.60549 -1.138496,3.30549 -1.490422,6 -0.351925,2.69451 -1.030941,5.66343 -1.508923,6.5976 -0.477983,0.93417 -1.070065,3.68497 -1.315739,6.11288 -0.245674,2.42792 -0.520536,4.8136 -0.610805,5.30152 -0.704673,3.80881 1.712493,4.67054 2.647807,0.94395 z M 294.5,175 c 0.33992,-0.55 0.16803,-1 -0.38197,-1 -0.55,0 -1.27811,0.45 -1.61803,1 -0.33992,0.55 -0.16803,1 0.38197,1 0.55,0 1.27811,-0.45 1.61803,-1 z m -8.63112,-2.34201 c 0.61257,-0.7381 0.82158,-1.6342 0.46445,-1.99132 -0.75049,-0.7505 -3.33333,1.15236 -3.33333,2.45577 0,1.31658 1.60662,1.05648 2.86888,-0.46445 z m -27.99644,-2.57466 c 0.20485,-0.0458 -0.0995,-0.65196 -0.67626,-1.34695 -0.78034,-0.94025 0.33993,-2.73195 4.37755,-7.00126 2.98445,-3.1557 5.42627,-6.18707 5.42627,-6.73638 0,-2.31887 -3.06529,-0.70062 -6.15853,3.25126 -1.82963,2.3375 -3.69765,4.41007 -4.15116,4.60571 -0.45352,0.19564 -2.01724,1.3816 -3.47494,2.63546 -2.14377,1.844 -2.42058,2.55664 -1.44819,3.7283 0.97532,1.17519 3.26553,1.49924 6.10526,0.86386 z M 291,159.94098 C 291,159.42344 290.55,159 290,159 c -0.55,0 -1,0.70156 -1,1.55902 0,0.85746 0.45,1.2809 1,0.94098 0.55,-0.33992 1,-1.04148 1,-1.55902 z m -33.45888,-2.00751 c 1.17263,-1.89735 -0.53762,-2.36554 -2.27922,-0.62395 -1.55894,1.55895 -1.56168,1.69048 -0.0352,1.69048 0.9104,0 1.95188,-0.47994 2.31442,-1.06653 z m 37.1138,-2.4766 c 0.80982,-2.11034 -0.54185,-3.2497 -1.69398,-1.42791 -1.22421,1.93575 -1.19966,2.97104 0.0704,2.97104 0.56727,0 1.29786,-0.69441 1.62354,-1.54313 z M 305,153.94098 C 305,152.87344 304.60248,152 304.11663,152 c -1.02742,0 -2.15271,3.63059 -1.36839,4.41491 C 303.69638,157.36305 305,155.93082 305,153.94098 Z M 210.57275,150.25 c 3.43344,-3.1625 8.77651,-7.94515 11.87348,-10.62812 3.09698,-2.68296 5.38383,-5.12516 5.08189,-5.4271 -0.30194,-0.30193 -1.78179,0.56867 -3.28855,1.93467 -1.50676,1.36601 -5.21457,4.34563 -8.23957,6.62138 -9.71574,7.30928 -15.7399,13.16751 -13.58493,13.21075 1.05329,0.0211 4.72424,-2.54908 8.15768,-5.71158 z m 80.06335,1.05277 c -0.40966,-0.40967 -1.16349,-0.0829 -1.67516,0.72619 -1.53967,2.43457 -1.07785,3.51652 0.72954,1.70914 0.92976,-0.92977 1.35529,-2.02566 0.94562,-2.43533 z M 265.5,149 c 1.73762,-1.81368 2.33139,-3 1.50154,-3 -1.51546,0 -6.00154,3.86774 -6.00154,5.17431 0,1.59551 1.65391,0.79637 4.5,-2.17431 z m 9.29651,-3.21691 c 0.93692,-1.7693 2.98089,-4.46211 4.54215,-5.98403 3.76339,-3.66855 3.09852,-5.27083 -1.26394,-3.04596 -2.22687,1.13571 -3.54726,2.60338 -3.77394,4.19487 -0.19176,1.34639 -1.23788,3.27642 -2.32472,4.28896 -2.36945,2.20748 -2.54702,3.76307 -0.42955,3.76307 0.85058,0 2.31308,-1.44761 3.25,-3.21691 z m 34.49822,-4.11522 c -0.70214,-1.13608 -1.9089,0.29212 -2.81549,3.33213 l -0.74555,2.5 2.04075,-2.495 c 1.12242,-1.37225 1.80655,-2.87396 1.52029,-3.33713 z m -4.90104,-4.25143 c 0.37373,-0.97391 0.15024,-1.43108 -0.58051,-1.1875 -1.49484,0.49828 -2.31789,2.77106 -1.0035,2.77106 0.53699,0 1.24979,-0.7126 1.58401,-1.58356 z M 53,137.05902 c 0,-1.17986 -1.950354,-2.442 -2.666667,-1.72569 C 49.617021,136.04965 50.879157,138 52.059017,138 52.576558,138 53,137.57656 53,137.05902 Z m 2.683114,-3.24652 c -0.319226,-0.79773 -0.556183,-0.56078 -0.604167,0.60417 -0.04342,1.05416 0.192928,1.64479 0.52522,1.3125 0.332291,-0.3323 0.367818,-1.1948 0.07895,-1.91667 z M 74.375,134.20225 c 0.271169,-0.43876 0.123038,-1.39641 -0.32918,-2.12811 -1.065034,-1.72326 -3.132885,-0.4646 -2.395157,1.45789 0.615065,1.60283 1.945645,1.93017 2.724337,0.67022 z M 266,134 c 0,-0.55 -0.19844,-1 -0.44098,-1 -0.24254,0 -0.7191,0.45 -1.05902,1 -0.33992,0.55 -0.14148,1 0.44098,1 0.58246,0 1.05902,-0.45 1.05902,-1 z m 10,-1 c 0,-0.55 -0.45,-1 -1,-1 -0.55,0 -1,0.45 -1,1 0,0.55 0.45,1 1,1 0.55,0 1,-0.45 1,-1 z m 10,-2.5 c 1.69921,-2.04743 -0.8637,-2.07033 -3.55887,-0.0318 -1.90305,1.43939 -1.8994,1.46882 0.18643,1.5 1.17015,0.0175 2.68775,-0.6432 3.37244,-1.4682 z m 15.5,-5.5 c 0.33992,-0.55 0.16803,-1 -0.38197,-1 -0.55,0 -1.27811,0.45 -1.61803,1 -0.33992,0.55 -0.16803,1 0.38197,1 0.55,0 1.27811,-0.45 1.61803,-1 z m -9.81615,-4.75 c 0.94088,-2.0625 1.88442,-4.0875 2.09675,-4.5 0.21234,-0.4125 -0.24309,-0.75 -1.01205,-0.75 -1.60261,0 -5.09356,6.6651 -4.2261,8.06868 0.92904,1.50323 1.33666,1.13749 3.1414,-2.81868 z m -42.14273,-5.31653 c 1.07627,-1.74144 -0.14952,-2.11024 -1.52106,-0.45764 -0.78875,0.95039 -0.86462,1.52417 -0.20152,1.52417 0.58488,0 1.36004,-0.47994 1.72258,-1.06653 z m -154.000001,-6 c 1.07627,-1.74144 -0.149522,-2.11024 -1.521063,-0.45764 C 93.231307,109.42622 93.155445,110 93.818538,110 c 0.584886,0 1.360047,-0.47994 1.722581,-1.06653 z m 51.082651,-2.3954 c 0.30854,-0.80407 1.45333,-1.74515 2.54397,-2.09131 1.09064,-0.34615 1.74774,-0.86461 1.46022,-1.15213 -0.51702,-0.51702 -7.62796,3.47934 -7.62796,4.28693 0,1.13122 3.13575,0.22826 3.62377,-1.04349 z M 71.5,105 c 0.339919,-0.55 0.168034,-1 -0.381966,-1 -0.55,0 -1.278115,0.45 -1.618034,1 -0.339919,0.55 -0.168034,1 0.381966,1 0.55,0 1.278115,-0.45 1.618034,-1 z m 6.154923,-0.54313 c 0.930276,-2.42426 -0.367785,-2.86191 -1.609086,-0.54252 C 75.27186,105.36054 75.256642,106 75.996201,106 c 0.586613,0 1.333038,-0.69441 1.658722,-1.54313 z M 106.75,98.005916 c 1.2375,-0.526028 2.25,-1.605231 2.25,-2.39823 0,-0.792999 1.86253,-2.988935 4.13895,-4.879858 2.27642,-1.890923 3.73892,-3.680072 3.25,-3.975887 -0.96388,-0.583181 -18.408444,15.182859 -18.396324,16.626219 0.0041,0.48299 1.469874,-0.31299 3.257374,-1.76884 1.7875,-1.45584 4.2625,-3.077377 5.5,-3.603404 z m 185.75,3.160754 c 0,-1.808659 -1.9573,-1.478468 -2.3455,0.39568 -0.21599,1.04271 0.15888,1.49986 1,1.21948 0.74002,-0.24667 1.3455,-0.9735 1.3455,-1.61516 z M 72.590697,96.257364 C 71.8972,95.563866 70,96.972907 70,98.181462 c 0,0.663093 0.573782,0.587231 1.524166,-0.201518 0.838291,-0.69572 1.31823,-1.470881 1.066531,-1.72258 z M 77.5,98 C 77.839919,97.45 77.641476,97 77.059017,97 76.476558,97 76,97.45 76,98 c 0,0.55 0.198442,1 0.440983,1 0.242541,0 0.719098,-0.45 1.059017,-1 z m 5.915903,-1.641444 C 83.94257,94.986084 83.796239,94.924217 82.522892,95.981001 80.787647,97.421127 80.607052,98 81.893011,98 c 0.491156,0 1.176458,-0.73865 1.522892,-1.641444 z M 297.3618,91.724495 c 0.30738,-1.175435 0.31493,-2.381099 0.0168,-2.679253 C 296.67559,88.342255 294,91.996608 294,93.659745 c 0,2.014474 2.74164,0.436222 3.3618,-1.93525 z M 94.435609,81.895813 c -0.283929,-0.459407 1.165184,-1.537827 3.220251,-2.396489 2.055068,-0.858662 5.19318,-2.672281 6.97359,-4.030264 C 106.40986,74.111077 108.29148,73 108.81083,73 c 0.51936,0 1.53659,-0.713687 2.26052,-1.585971 0.72393,-0.872285 3.18453,-2.464173 5.468,-3.53753 2.28347,-1.073356 5.83215,-3.490736 7.88596,-5.371955 2.05382,-1.881219 4.71082,-3.711059 5.90445,-4.066311 1.19363,-0.355253 4.05037,-1.724185 6.34831,-3.042073 C 138.97601,54.078272 141.48038,53 142.24335,53 c 0.76297,0 5.34537,-2.071154 10.18311,-4.602564 12.29518,-6.433603 21.89532,-10.24451 27.3872,-10.871727 C 188.71707,36.50887 192,35.777579 192,34.811139 c 0,-0.568222 1.34626,-0.686378 3.25,-0.285241 2.47575,0.521665 2.98284,0.404462 2.12857,-0.491974 -1.40435,-1.473667 -10.92915,-1.536899 -14.71249,-0.09767 -1.55865,0.592931 -3.22307,0.837545 -3.6987,0.543588 -0.47563,-0.293958 -3.00023,0.0032 -5.61022,0.660444 -3.60814,0.908539 -4.8387,0.915086 -5.13463,0.02731 -0.54445,-1.633357 -2.73917,-1.454943 -4.23219,0.344045 -1.38693,1.67115 -7.87621,4.746138 -12.41142,5.881234 -1.60659,0.402106 -4.02978,1.603207 -5.38486,2.669113 C 144.83898,45.127895 143.31923,46 142.81684,46 c -0.5024,0 -2.77624,0.9 -5.05298,2 -2.27673,1.1 -4.64134,2 -5.25467,2 -1.60676,0 -17.17709,9.923423 -25.10738,16.001655 -3.72195,2.852717 -7.697469,5.555713 -8.834493,6.006658 -3.112116,1.234267 -9.727614,8.131577 -9.176596,9.567506 0.265561,0.69204 -1.105152,3.29651 -3.046029,5.78771 -5.549319,7.122795 -3.05019,7.993343 3.276309,1.141271 2.931963,-3.175536 5.098537,-6.14958 4.814608,-6.608987 z M 81,88.5 C 84.722845,84.658999 84.623524,84.276312 80.463896,86.434353 77.785726,87.823804 76.046833,89.706177 76.015313,91.25 75.982966,92.834296 77.736892,91.866673 81,88.5 Z m 199.87354,-1.137541 c 0.20544,-0.151912 0.0972,-0.996384 -0.24059,-1.876604 -0.50386,-1.313017 -1.24432,-0.988372 -4.12354,1.80789 C 274.57923,89.168306 273,90.978903 273,91.317294 c 0,0.476797 5.86281,-2.468062 7.87354,-3.954835 z m 19.23123,-23.657693 c 0.82352,0.823521 3.12787,-0.414984 8.75643,-4.706257 4.20134,-3.203144 10.16341,-6.935607 13.24903,-8.294363 C 327.53901,48.313587 340.32714,46 348.11195,46 c 4.2506,0 9.10465,-1.840511 8.29768,-3.146228 -0.75266,-1.217816 -13.6546,-1.056463 -19.21681,0.240328 -12.65134,2.949574 -22.19091,6.521702 -35.02022,13.113449 C 297.04254,58.843397 291.98004,61 290.9226,61 c -2.29015,0 -2.52814,2.25256 -0.4226,4 1.65361,1.372375 2.09871,4.488056 0.5,3.5 -1.153,-0.712591 -1.36275,0.803917 -0.26327,1.903401 0.40521,0.405204 2.42731,-1.187693 4.49357,-3.539771 2.76817,-3.151093 4.05095,-3.982384 4.87447,-3.158864 z m -64.37599,0.62392 c 0.24564,-0.746494 -0.36631,-0.97473 -1.68726,-0.629293 -2.9329,0.766971 -3.74739,2.539621 -0.98084,2.134703 1.25547,-0.183753 2.45611,-0.861187 2.6681,-1.50541 z M 283,62.559017 c 0,-1.055475 -1.91911,-1.498911 -2.48992,-0.575329 C 280.16462,62.54266 280.58352,63 281.44098,63 282.29844,63 283,62.801558 283,62.559017 Z M 107.12756,59.33628 C 108.37204,57.827677 108.29022,57.78434 106.25,58.871464 103.92304,60.111374 103.35007,61 104.87756,61 c 0.48265,0 1.49515,-0.748674 2.25,-1.66372 z m 171.30768,-4.231495 c 0.3043,-0.492369 -0.10473,-1.147715 -0.90896,-1.456326 -1.56267,-0.599654 -2.89724,0.647249 -1.83243,1.712061 0.90401,0.904011 2.09319,0.793077 2.74139,-0.255735 z M 176,44.770566 c 0,-0.585304 -0.63541,-0.488115 -1.5,0.229434 -0.825,0.684689 -1.5,1.400666 -1.5,1.59106 0,0.190394 0.675,0.08715 1.5,-0.229434 0.825,-0.316582 1.5,-1.032559 1.5,-1.59106 z m -30.54575,-3.429564 c 3.82181,-0.452144 5.88742,-2.356438 2.49575,-2.300842 -3.16604,0.0519 -13.26399,4.401799 -13.77462,5.933704 -0.21589,0.647659 1.56884,0.173855 3.96605,-1.052898 2.39721,-1.226752 5.68798,-2.387736 7.31282,-2.579964 z M 250.5,44 c 0.33992,-0.55 -0.0835,-1 -0.94098,-1 C 248.70156,43 248,43.45 248,44 c 0,0.55 0.42344,1 0.94098,1 0.51754,0 1.2191,-0.45 1.55902,-1 z M 186,43.559017 c 0,-0.242541 -0.45,-0.719098 -1,-1.059017 -0.55,-0.339919 -1,-0.141476 -1,0.440983 C 184,43.523442 184.45,44 185,44 c 0.55,0 1,-0.198442 1,-0.440983 z M 253.5,40 c -0.33992,-0.55 -1.82898,-0.993109 -3.30902,-0.984687 C 248.08622,39.02729 247.82677,39.241799 249,40 c 1.97586,1.276897 5.28917,1.276897 4.5,0 z" id="path12"/>
</svg>
