<?xml version="1.0" encoding="utf-8"?>

<svg xmlns="http://www.w3.org/2000/svg" version="1.1" viewBox="0 0 729 632">











	<path d="m 471,615.6025 c -13.516,-1.20498 -15.829,-1.89869 -13.93593,-4.17969 0.91452,-1.10194 0.76553,-1.54015 -0.70145,-2.06298 -1.02444,-0.3651 -2.59177,-1.28737 -3.48295,-2.04947 -1.31292,-1.12275 -2.12862,-1.15405 -4.29941,-0.16498 -1.99085,0.9071 -3.50125,0.94324 -5.87966,0.1407 -1.76033,-0.59398 -5.36968,-1.13117 -8.02078,-1.19375 -2.6511,-0.0626 -6.52176,-0.49611 -8.60147,-0.96339 -2.07972,-0.46728 -7.11064,-0.67873 -11.17982,-0.46988 -4.06919,0.20885 -11.89853,0.53767 -17.39853,0.73072 -5.5,0.19304 -13.15,0.63151 -17,0.97437 -3.85,0.34286 -9.925,0.84636 -13.5,1.1189 -3.575,0.27253 -8.525,0.70809 -11,0.96791 -10.55514,1.10804 -19.75622,1.75068 -23.29403,1.62694 -2.08672,-0.073 -4.42382,0.49709 -5.19355,1.26682 -2.21456,2.21457 -6.51242,0.92021 -6.51242,-1.9613 0,-1.90472 0.55233,-2.4072 2.75,-2.50184 1.5125,-0.0651 3.17099,-0.0373 3.68553,0.0618 0.51454,0.0992 2.04213,-0.0975 3.39464,-0.43693 2.90689,-0.72958 1.50856,-2.92473 -1.47395,-2.31387 -1.02092,0.2091 -2.33131,-0.24126 -2.91197,-1.00081 -0.89493,-1.17063 -1.60338,-1.15216 -4.65107,0.12125 -3.05055,1.2746 -3.98783,1.29859 -6.18562,0.15837 -2.10085,-1.08994 -11.94491,-1.26155 -52.09892,-0.90823 C 222.05314,602.92797 214,602.77607 214,601.62938 c 0,-1.7132 8.1462,-4.08856 11.22538,-3.27323 1.25104,0.33127 4.07462,-0.0197 6.27462,-0.77986 2.2,-0.76019 8.275,-1.8527 13.5,-2.42781 5.225,-0.5751 11.525,-1.54919 14,-2.16465 2.475,-0.61545 9.9,-1.52443 16.5,-2.01995 6.6,-0.49552 14.925,-1.1289 18.5,-1.40751 12.73587,-0.99255 25.53842,-1.69635 28,-1.53924 1.375,0.0878 3.0625,0.19481 3.75,0.23788 0.6875,0.0431 1.25,0.83041 1.25,1.74963 0,1.21425 -0.94503,1.70683 -3.45569,1.80121 -1.90064,0.0715 -6.51314,0.87167 -10.25,1.77826 -8.45412,2.05103 -9.64691,2.22934 -15.60333,2.33256 -3.1901,0.0553 -4.58295,0.44911 -4.13749,1.16987 0.75943,1.22879 19.20108,0.41783 24.39906,-1.07293 1.69645,-0.48654 3.30566,-0.86842 3.57604,-0.84863 0.27037,0.0198 3.63705,-0.27991 7.4815,-0.66599 4.75417,-0.47745 6.98991,-1.12263 6.98991,-2.01715 0,-0.72334 -0.5625,-1.57767 -1.25,-1.89851 -1,-0.46666 -1,-0.7 0,-1.16666 1.56524,-0.73045 1.63491,-3.1217 0.1058,-3.6314 -1.85216,-0.61739 0.83189,-7.28145 3.79665,-9.42647 3.5254,-2.55064 5.09759,-4.10891 5.56728,-5.51799 0.25964,-0.77892 0.89997,-0.87969 1.83929,-0.28946 3.33252,2.09403 15.9991,-0.0319 18.15149,-3.04648 0.9641,-1.35028 3.88482,2.55037 3.42497,4.57409 -0.56868,2.50267 1.49887,4.45462 6.52245,6.15774 2.56186,0.86854 5.51858,2.43981 6.57048,3.49171 1.67064,1.67064 2.7778,1.823 8.75293,1.20455 5.52482,-0.57184 7.1898,-1.16236 8.65728,-3.07048 2.37744,-3.09133 2.32027,-5.00938 -0.2466,-8.27262 -1.36505,-1.73539 -1.93698,-3.57431 -1.62281,-5.21781 0.36987,-1.93485 -0.37678,-3.4341 -3.14202,-6.30909 -1.99496,-2.07413 -4.75219,-5.42339 -6.12719,-7.44281 -1.375,-2.01941 -3.2875,-4.62893 -4.25,-5.79892 -0.9625,-1.16999 -1.75,-2.5277 -1.75,-3.01715 0,-0.48944 -1.76308,-3.23309 -3.91795,-6.09699 -6.69033,-8.89166 -12.98468,-18.04419 -15.09022,-21.94247 -1.10966,-2.05445 -3.13677,-4.46871 -4.50469,-5.365 C 356.11921,509.50332 355,508.28824 355,507.69944 c 0,-0.5888 -1.0125,-2.1479 -2.25,-3.46467 -1.77801,-1.89191 -2.28524,-3.6885 -2.41799,-8.56445 -0.10149,-3.72811 -0.59624,-6.13074 -1.25,-6.07032 -2.75191,0.25433 -3.16166,0.4621 -2.62472,1.3309 0.78769,1.27451 -0.53597,1.94654 -5.0906,2.58451 -3.34929,0.46914 -3.64217,0.36284 -2.18874,-0.79446 2.38325,-1.89766 0.6493,-4.16975 -3.39148,-4.44402 -1.80756,-0.12268 -6.08209,-0.22036 -9.49896,-0.21706 l -6.21249,0.006 -1.68577,-5.78293 C 317.46208,479.10232 316.6577,475.375 316.60174,474 c -0.0732,-1.79796 -0.59317,-2.41749 -1.85174,-2.20616 -0.9625,0.16161 -1.75,-0.17589 -1.75,-0.75 C 313,470.46973 312.1,470 311,470 c -1.1,0 -1.8875,-0.5625 -1.75,-1.25 0.30812,-1.5406 -9.05479,-1.1569 -10.99152,0.45044 -0.696,0.57763 -4.52639,1.15325 -8.51197,1.27915 -3.98558,0.12589 -10.13484,0.77804 -13.66503,1.44922 -5.55807,1.05672 -6.53258,1.0165 -7.26935,-0.30003 -0.86628,-1.54795 -1.24595,-1.36508 -15.63112,7.5288 C 248.45336,482.08053 234.38779,489 233.1738,489 232.52821,489 232,489.44143 232,489.98095 c 0,0.53952 -1.2375,1.28314 -2.75,1.65249 -1.5125,0.36935 -3.82319,1.50292 -5.13486,2.51905 -1.31167,1.01613 -2.8042,1.84751 -3.31672,1.84751 -0.51253,0 -2.40399,1.12285 -4.20326,2.49522 -1.79927,1.37236 -3.51507,2.25153 -3.8129,1.95371 -0.5629,-0.5629 -20.90252,10.20129 -21.78226,11.52766 -0.275,0.41462 -1.625,1.10115 -3,1.52563 -1.375,0.42447 -4.38108,2.06013 -6.68018,3.63478 -2.29909,1.57465 -4.60649,2.863 -5.12755,2.863 -0.52106,0 -1.47094,0.63085 -2.11084,1.40189 -0.63991,0.77103 -2.38251,1.69843 -3.87245,2.06087 C 168.71904,523.82519 165.7,525.30743 163.5,526.7566 157.66715,530.59879 108.86776,555 107.0167,555 c -0.86443,0 -2.45932,0.61751 -3.54419,1.37225 -1.08488,0.75474 -4.22251,1.90666 -6.97251,2.55982 -2.75,0.65317 -5.974453,1.43084 -7.16545,1.72817 -1.647705,0.41134 -2.517255,-0.13085 -3.636856,-2.26769 -1.663537,-3.17497 -1.225276,-4.23393 4.991502,-12.06085 C 92.510138,544.03914 94,541.74638 94,541.23669 c 0,-0.50969 0.9,-1.7412 2,-2.73669 4.96084,-4.4895 0.119407,-4.69909 -8.748886,-0.37875 -3.523816,1.71669 -6.654947,3.76755 -6.958069,4.55747 -0.303121,0.78992 -1.201409,1.18669 -1.996195,0.8817 -0.794786,-0.30499 -3.324217,0.69998 -5.620958,2.23327 -2.296741,1.53329 -7.230179,4.24476 -10.963196,6.0255 -4.769462,2.27515 -6.70189,3.72353 -6.5,4.87186 0.516308,2.9367 -10.442626,7.50188 -20.155145,8.39607 -5.31945,0.48974 -9.142408,0.40265 -10.334658,-0.23542 -2.269381,-1.21454 -4.480279,-6.36587 -4.251909,-9.90683 0.302534,-4.69091 5.988455,-11.30206 15.050019,-17.49899 7.604638,-5.20058 23.650018,-17.55143 31.38691,-24.15992 L 69.5,511.07193 l -3.25,-0.036 C 64.4625,511.01618 63,511.45 63,512 c 0,1.66419 -2.568658,1.12713 -5.450256,-1.13953 -2.35713,-1.85412 -2.634807,-2.62117 -2.081541,-5.75 1.038558,-5.87326 1.458699,-6.75049 3.801019,-7.93626 4.091693,-2.07138 9.414443,-5.60232 21.367014,-14.17421 6.518781,-4.675 14.779903,-10.3835 18.358047,-12.68556 3.578147,-2.30206 6.955717,-4.56954 7.505717,-5.03885 6.10917,-5.21294 29.07428,-21.31149 47.17172,-33.0674 4.48051,-2.91049 8.39819,-5.94799 8.70595,-6.75 0.30776,-0.802 1.02308,-1.45819 1.58961,-1.45819 1.15636,0 20.93747,-12.56876 25.45049,-16.17105 1.60477,-1.28092 5.46493,-4.12895 8.57813,-6.32895 3.1132,-2.2 8.43611,-6.025 11.82869,-8.5 3.39258,-2.475 8.30742,-5.8133 10.92187,-7.41844 2.61445,-1.60515 8.96633,-6.10515 14.11529,-10 12.71816,-9.62047 18.72035,-13.84689 24.67127,-17.3722 2.76816,-1.63985 5.63576,-3.70781 6.37245,-4.59545 0.73668,-0.88765 1.87827,-1.61391 2.53687,-1.61391 0.65859,0 2.74099,-1.37589 4.62755,-3.05754 1.88656,-1.68164 6.31448,-5.61914 9.83982,-8.75 8.96441,-7.96128 11.5457,-10.33606 20.12201,-18.51218 4.14245,-3.94916 12.57995,-11.86529 18.75,-17.59141 C 327.95178,298.36276 333,293.07526 333,292.33887 333,291.60249 333.88417,291 334.96482,291 c 1.08065,0 2.3958,-0.80531 2.92257,-1.78958 0.52676,-0.98427 2.08839,-2.39468 3.47029,-3.13425 1.38189,-0.73957 3.97341,-3.48548 5.75893,-6.10203 1.78552,-2.61655 4.59365,-5.5532 6.24028,-6.52589 2.65197,-1.56656 17.52796,-14.01891 20.14311,-16.86134 0.55,-0.5978 3.25,-2.87034 6,-5.05009 5.74471,-4.55345 12.45075,-11.27049 17.5,-17.52871 4.35641,-5.39947 6.10174,-7.08803 13,-12.5771 5.83419,-4.64236 20.61603,-20.24032 25.52193,-26.93101 5.52907,-7.54057 17.97936,-20.80045 24.47807,-26.0698 11.87807,-9.63108 22.35269,-20.62745 25.17616,-26.4302 1.47189,-3.025 4.76761,-12.025 7.32383,-20 2.55622,-7.975 5.54187,-17.2 6.63478,-20.5 1.09292,-3.3 3.10497,-9.6 4.47124,-14 1.36627,-4.4 2.91384,-8.781394 3.43906,-9.736431 C 507.57028,76.808532 508,75.575635 508,75.023797 c 0,-0.551837 2.09589,-4.270443 4.65754,-8.263568 C 515.21919,62.767103 518.03611,57.925 518.91735,56 c 3.18547,-6.95834 15.42596,-21.944782 20.88353,-25.568409 5.47493,-3.635148 20.70645,-8.241914 28.03691,-8.479754 6.65481,-0.215918 17.56383,1.217891 24.16221,3.175718 17.52814,5.200836 26.19782,8.45411 28.19512,10.580142 C 621.37955,36.968464 622.7002,38 623.1299,38 c 3.18709,0 25.3888,19.348554 26.96533,23.5 2.26821,5.972837 4.01276,9.500127 4.70169,9.506323 1.34648,0.01211 4.11833,5.92802 3.0786,6.570609 -0.6267,0.387326 -0.44525,1.2438 0.48143,2.272345 0.81797,0.907898 1.79714,2.892475 2.17592,4.410171 0.37878,1.517697 1.08884,3.006755 1.57791,3.309017 C 662.59985,87.870728 663,88.8365 663,89.714626 c 0,2.371852 4.8751,8.323727 7.8943,9.63794 1.44983,0.631089 6.59528,3.847434 11.43433,7.147434 4.83905,3.3 9.90305,6.59105 11.25333,7.31344 4.08145,2.18354 5.5919,5.55158 5.76159,12.84729 l 0.15645,6.72623 -3.43417,1.004 c -2.53615,0.74146 -3.53856,0.69086 -3.83334,-0.19348 -0.46459,-1.39378 -8.93217,-1.62864 -12.41739,-0.34441 -2.63403,0.97058 -13.61768,-1.11775 -18.23135,-3.46635 -1.60394,-0.81649 -6.55394,-1.92511 -11,-2.46359 -4.44606,-0.53849 -8.62892,-1.17071 -9.29525,-1.40494 -0.66632,-0.23423 -3.80957,-0.003 -6.985,0.51379 -5.7567,0.93693 -9.22756,3.5015 -9.28126,6.85778 -0.0122,0.76436 -0.77257,1.93841 -1.68965,2.60899 -2.55593,1.86895 -3.1243,8.5484 -1.70194,20.00125 1.02366,8.24252 1.0274,19.76678 0.0113,35 -0.54779,8.21281 -1.34039,12.3936 -3.12807,16.5 -1.31691,3.025 -2.9287,7.75 -3.58175,10.5 -1.61856,6.8158 -4.70668,15.98071 -7.41289,22 C 602.80647,250.98247 602,253.13085 602,255.20307 c 0,1.17437 -1.35,4.52729 -3,7.45092 -1.65,2.92364 -3,5.77643 -3,6.33952 0,0.56309 -1.35,2.88743 -3,5.16519 -1.65,2.27776 -3,4.56459 -3,5.08185 0,0.51725 -2.025,3.31075 -4.5,6.20777 -2.475,2.89702 -4.5,5.71155 -4.5,6.25451 0,0.54296 -0.9,1.80168 -2,2.79717 -1.1,0.99549 -2,2.61767 -2,3.60486 0,2.5575 -5.03591,9.68104 -12.00678,16.98415 -3.29627,3.45338 -5.99322,6.65001 -5.99322,7.10362 0,0.45361 -2.41226,3.44868 -5.36058,6.65571 -2.94831,3.20703 -5.76081,6.46828 -6.25,7.24722 -0.48918,0.77895 -2.58482,2.68003 -4.65697,4.22463 -2.07215,1.5446 -9.72215,9.59545 -17,17.89079 -7.27785,8.29533 -24.11459,25.9289 -37.41499,39.18572 C 463.69173,421.94175 459.40282,426 458.08846,426 c -0.4079,0 -4.2078,3.7125 -8.44422,8.25 -4.23643,4.5375 -8.60783,9.15 -9.71423,10.25 -1.10641,1.1 -6.94328,6.89975 -12.97083,12.88832 C 420.93163,463.3769 416,468.63511 416,469.07323 c 0,0.43811 -0.52479,2.06337 -1.16621,3.61167 -1.59298,3.84529 -1.60931,4.31546 -0.28878,8.3151 0.63555,1.925 0.98309,3.99452 0.77229,4.59894 -0.21079,0.60442 2.10658,4.56926 5.14972,8.81076 3.04314,4.24151 5.53298,8.33211 5.53298,9.09024 0,0.75813 1.8,3.45816 4,6.00006 2.2,2.5419 4,4.96927 4,5.39415 0,0.42489 1.48892,2.31002 3.3087,4.18918 1.81979,1.87917 5.73994,6.34167 8.71146,9.91667 11.45417,13.7804 21.82158,22.97477 22.75351,20.17899 0.21615,-0.64844 1.4512,-1.17899 2.74456,-1.17899 1.29337,0 3.61837,-0.51636 5.16667,-1.14747 1.54831,-0.63112 5.5151,-1.28954 8.8151,-1.46317 12.8467,-0.67594 18.66144,-1.21746 19.23536,-1.79139 0.86549,-0.86548 7.06156,-0.73558 7.61484,0.15965 1.25953,2.03796 1.80196,8.24238 0.7206,8.24238 -1.46726,0 -7.0708,4.11149 -7.0708,5.18806 0,1.0125 3.4061,1.0725 4.40107,0.0775 1.64759,-1.64759 12.79949,-3.141 23.90611,-3.2014 13.99847,-0.0761 19.98694,-1.33794 22.17129,-4.67169 0.8622,-1.31588 2.4301,-2.39251 3.48422,-2.39251 1.49287,0 1.98519,0.82903 2.22694,3.75 0.31642,3.82306 1.22944,4.32748 5.0159,2.77116 2.12366,-0.87287 7.02738,3.70832 6.2204,5.81127 -0.63045,1.64292 -8.74075,4.20907 -10.28547,3.25438 -0.55965,-0.34588 -1.44093,0.12768 -1.95841,1.05237 -0.67687,1.20949 -2.2172,1.66194 -5.48956,1.61247 -3.19407,-0.0483 -4.72238,0.38387 -5.13193,1.45113 -0.40685,1.06023 -0.12616,1.3445 0.9281,0.93995 0.83124,-0.31898 1.51134,-0.21611 1.51134,0.2286 0,0.4447 1.82256,1.41005 4.05013,2.14521 4.79365,1.58205 4.79656,1.58582 5.56599,7.19937 0.53723,3.91957 0.35182,4.49731 -1.75777,5.47717 -2.21265,1.02772 -2.24049,1.14317 -0.45065,1.86866 1.04924,0.4253 4.56561,0.22428 7.81417,-0.44669 5.44405,-1.12445 6.29291,-1.04532 10.8423,1.01075 2.71471,1.22689 4.93583,2.71355 4.93583,3.30368 0,0.67519 -3.59103,1.15325 -9.68677,1.28955 -9.27915,0.20748 -9.78011,0.33365 -11.90481,2.99829 -1.21993,1.52993 -2.03687,3.07484 -1.81544,3.43313 0.22144,0.35829 2.31611,0.48559 4.65482,0.28288 C 578.32756,595.29964 583,595.133 583,595.80019 c 0,1.35519 -6.4009,3.92242 -13,5.21397 -3.575,0.69968 -10.775,2.06984 -16,3.04482 -16.15827,3.01509 -16.42036,3.11657 -16.46273,6.37455 -0.0457,3.51904 -0.30151,3.58519 -16.50441,4.26873 -10.63504,0.44866 -12.29575,0.31943 -11.30085,-0.87936 0.91932,-1.1077 0.74491,-1.66847 -0.82353,-2.64798 -2.22483,-1.38943 -3.90848,-0.7932 -3.90848,1.3841 0,1.75305 -0.46653,1.79109 -2.94944,0.24048 -1.63261,-1.01958 -2.32925,-0.79354 -4.62279,1.5 -3.10669,3.1067 -5.09582,3.20477 -26.42777,1.303 z m 48.77979,-5.78229 c 0.9064,-0.9064 1.73621,-0.88201 3.58084,0.1052 1.32489,0.70906 3.36316,0.97964 4.54763,0.60371 1.99926,-0.63454 1.88839,-0.85651 -1.61529,-3.23417 -3.55729,-2.41405 -4.02568,-2.48526 -8.61306,-1.30955 -3.56602,0.91394 -5.1464,0.94811 -5.96555,0.12896 -0.6129,-0.6129 -1.81186,-1.10747 -2.66436,-1.09905 -0.96905,0.01 -1.14786,0.29068 -0.47706,0.75 0.59012,0.40408 1.38181,1.56992 1.75932,2.59076 0.5101,1.37939 1.3103,1.69947 3.11577,1.24633 1.33617,-0.33536 2.70854,-0.15809 3.0497,0.39393 0.81744,1.32263 1.83808,1.26786 3.28206,-0.17612 z M 492.5,608 c -0.33992,-0.55 -1.37898,-0.99311 -2.30902,-0.98469 -1.45727,0.0132 -1.48367,0.14929 -0.19098,0.98469 1.95837,1.2656 3.28218,1.2656 2.5,0 z m -10.40345,-3.30345 c -1.19171,-1.19171 -12.49712,-1.38904 -13.09655,-0.22859 -0.88662,1.71643 6.90302,3.26398 10.6019,2.10625 1.83151,-0.57326 2.95411,-1.4182 2.49465,-1.87766 z m 18.70627,0.15844 c -0.16655,-0.35476 0.55442,-1.59226 1.60217,-2.75 2.1131,-2.33495 2.07706,-2.35115 -4.7097,-2.11681 -2.64258,0.0912 -5.43032,-0.35331 -6.19495,-0.9879 -1.95675,-1.62395 -5.91508,-0.84042 -6.31345,1.24972 -0.27042,1.41883 0.38998,1.75125 3.48979,1.75659 2.14829,0.004 5.13765,0.88336 6.82332,2.00786 2.76226,1.84269 6.0154,2.35833 5.30282,0.84054 z M 342,604.55902 c 0,-0.24254 -0.45,-0.7191 -1,-1.05902 -0.55,-0.33992 -1,-0.14148 -1,0.44098 0,0.58246 0.45,1.05902 1,1.05902 0.55,0 1,-0.19844 1,-0.44098 z m 20,-2.09988 c 8.57599,-1.51745 29.10973,-2.94022 36.5,-2.52906 17.20869,0.95741 25.53375,0.46073 21.25,-1.2678 -0.6875,-0.27741 -0.2375,-0.53991 1,-0.58333 2.52306,-0.0885 2.97606,-1.56384 0.85338,-2.77926 -0.76814,-0.43983 -2.42061,-2.54316 -3.67216,-4.67406 l -2.27553,-3.87437 -9.57785,0.72007 c -5.26781,0.39604 -12.68293,0.903 -16.47804,1.12658 -3.79511,0.22358 -7.47723,0.8854 -8.18248,1.47071 -1.11847,0.92825 -3.78919,1.48641 -16.54446,3.4577 -1.44493,0.2233 -4.95894,1.32512 -7.80891,2.44847 -2.84997,1.12336 -8.18331,2.23524 -11.85186,2.47084 -9.23818,0.59331 -9.53481,2.31081 -0.46209,2.6755 2.43392,0.0978 3.02174,1.4008 1,2.21659 -2.79157,1.12642 8.31113,0.52614 16.25,-0.87858 z M 348,602 c 0,-0.55 0.45,-1 1,-1 0.55,0 1,0.45 1,1 0,0.55 -0.45,1 -1,1 -0.55,0 -1,-0.45 -1,-1 z m 109.30615,-1.63948 c 1.06481,-1.06481 -0.26976,-2.31172 -1.83243,-1.71206 -0.80423,0.30861 -1.21326,0.96396 -0.90896,1.45632 0.6482,1.04882 1.83738,1.15975 2.74139,0.25574 z M 447,597 c -1.97012,-1.27319 -4.28687,-1.27319 -3.5,0 0.33992,0.55 1.60398,0.99311 2.80902,0.98469 1.78123,-0.0124 1.91046,-0.1966 0.69098,-0.98469 z m -90.50487,-3.57129 c 1.66496,-1.25818 1.75684,-1.65495 0.55522,-2.39759 -0.9635,-0.59548 -2.36806,-0.22902 -4.24513,1.10758 -1.54287,1.09862 -2.80522,2.19185 -2.80522,2.42939 0,1.0495 4.68647,0.22739 6.49513,-1.13938 z m 115.81818,-3.64073 c 2.48559,-0.7447 4.16937,-0.84109 4.36701,-0.25 0.17692,0.52911 2.90872,0.86707 6.07067,0.75102 25.697,-0.94315 31.70266,-1.34265 32.52347,-2.16346 2.55733,-2.55733 -8.26035,-3.91962 -13.43999,-1.69252 -0.91604,0.39387 -2.94104,0.57007 -4.5,0.39155 -2.32212,-0.2659 -2.84277,-0.81489 -2.88041,-3.03718 -0.068,-4.0166 -0.98836,-4.34994 -6.51895,-2.36117 -2.7607,0.99273 -6.68798,2.02787 -8.72729,2.3003 -2.0393,0.27244 -3.93282,0.78292 -4.20782,1.13441 -0.275,0.35149 -2.6229,0.6701 -5.21755,0.70803 -3.78135,0.0553 -5.21064,0.60102 -7.20225,2.75 L 460.0955,591 h 4.08623 c 2.24743,0 5.90664,-0.54541 8.13158,-1.21202 z m 55.13669,0.29559 c -1.04904,-1.01196 -3.14989,-1.4369 -5.45,-1.10237 -0.844,0.12275 -0.40666,0.56831 1,1.0188 3.57965,1.1464 5.59092,1.18418 4.45,0.0836 z m -178.47581,-4.06519 c 4.98234,-3.54774 4.68096,-8.11875 -0.50652,-7.68237 -2.1169,0.17809 -2.88825,0.71811 -2.69062,1.88373 0.17759,1.04741 -0.54044,1.75006 -2,1.95716 -3.24743,0.46079 -3.71247,4.51244 -0.58647,5.10958 1.27018,0.24264 2.46495,0.50244 2.65505,0.57734 0.1901,0.0749 1.59795,-0.75555 3.12856,-1.84544 z m 194.35056,-1.31159 C 544.79614,583.7427 546,582.50014 546,581.94556 c 0,-1.58319 -3.11694,-2.37438 -3.96273,-1.00587 -0.41848,0.67712 -1.143,1.1594 -1.61003,1.07172 -0.46703,-0.0877 -1.1266,0.63152 -1.46569,1.59821 -0.43008,1.22607 -0.83778,1.39966 -1.34806,0.574 -0.869,-1.40607 -5.50128,-1.54014 -7.58942,-0.21966 -1.21884,0.77076 -1.08819,1.07677 0.75007,1.75678 3.64528,1.34848 9.69045,0.8601 12.55061,-1.01395 z M 366.25,584.24507 c 3.33018,-0.57166 3.48014,-1.62025 0.52749,-3.68837 -3.06294,-2.14537 -4.89048,-1.93033 -7.56462,0.89011 -2.14897,2.26652 -2.17918,2.47529 -0.5,3.45582 0.98292,0.57397 2.46213,0.76703 3.28713,0.42904 0.825,-0.33799 2.7375,-0.82696 4.25,-1.0866 z m 47.5,-1.64429 c 3.51498,-0.82163 4.18681,-2.02731 1.66821,-2.99379 -2.42243,-0.92958 -4.1633,-0.74034 -8.0223,0.87205 -6.16663,2.57659 -1.81219,4.0306 6.35409,2.12174 z M 468,579.80351 c 3.31756,-1.24674 8.13696,-2.11385 12.14545,-2.18521 4.55853,-0.0811 7.22784,-0.62689 8.5,-1.73781 1.02,-0.89073 2.52955,-1.90822 3.35455,-2.26109 0.83329,-0.35641 0.52031,-0.46135 -0.70418,-0.23609 -1.49503,0.27503 -2.69556,-0.34445 -3.73149,-1.92547 -0.84002,-1.28203 -2.7399,-2.92201 -4.22197,-3.6444 -1.48207,-0.72239 -2.8779,-1.87594 -3.10185,-2.56344 -0.5451,-1.67341 2.81594,-1.5965 5.28698,0.12097 2.54174,1.76662 11.93228,3.77357 13.97996,2.9878 2.01927,-0.77487 1.41097,-2.64836 -1.08159,-3.33119 -1.05922,-0.29017 -3.05086,-1.25357 -4.42586,-2.1409 -3.36534,-2.17174 -13.87103,-2.38633 -14.67176,-0.29969 -0.38563,1.00495 -1.92114,1.47294 -4.70048,1.4326 -2.27027,-0.0329 -5.59438,0.22585 -7.38692,0.5751 -2.1167,0.41241 -3.83636,0.15657 -4.90578,-0.72985 -1.2269,-1.01694 -5.11181,-1.34047 -15.24084,-1.26922 -7.47682,0.0526 -14.33688,0.42103 -15.24457,0.81875 -1.20611,0.52848 -1.60987,0.24388 -1.5,-1.05731 0.0849,-1.00525 -0.65362,-1.94598 -1.69621,-2.16067 -1.47521,-0.30376 -1.71304,0.0405 -1.18261,1.71169 0.55292,1.74212 0.24552,2.09192 -1.83834,2.09192 -4.33376,0 -7.9115,-1.83052 -7.20028,-3.68395 0.65538,-1.70787 -0.90511,-3.27383 -3.2892,-3.30074 -0.74634,-0.008 -1.11946,0.60369 -0.82914,1.36023 0.30647,0.79865 -0.43553,1.81449 -1.76922,2.42216 -2.85639,1.30146 -2.40765,5.15579 1.14608,9.84401 1.30981,1.72795 2.29378,3.52795 2.18661,4 -0.46977,2.0692 1.43718,4.39324 3.15693,3.84741 0.98858,-0.31376 2.04131,-0.17585 2.3394,0.30647 0.29809,0.48232 2.638,0.95623 5.19979,1.05313 2.5618,0.0969 5.14101,0.47481 5.73158,0.8398 1.66002,1.02595 18.54538,2.14498 24.69496,1.63659 3.025,-0.25008 7.975,-1.3848 11,-2.5216 z m 35.11692,-1.58595 c 0.69987,-1.89575 0.42398,-2.44161 -1.62846,-3.22195 -3.58021,-1.36119 -5.71927,-0.33806 -4.24125,2.02864 0.6342,1.01551 1.50787,1.62712 1.94149,1.35913 0.43361,-0.26799 0.50289,0.25676 0.15394,1.16611 -0.46558,1.21328 -0.15986,1.55982 1.1486,1.30193 0.98067,-0.19328 2.16223,-1.37852 2.62568,-2.63386 z m -95.09218,-7.91324 c -1.04518,-1.32873 -2.86847,-4.41578 -4.05174,-6.8601 C 402.78972,560.9999 401.45386,559 401.00441,559 c -1.24084,0 -0.11951,3.80625 3.22355,10.94203 2.74965,5.86914 3.13717,6.27911 4.35758,4.6101 1.14678,-1.56832 1.06609,-2.17955 -0.5608,-4.24781 z m 109.24429,2.03974 c -0.67703,-0.27392 -2.02703,-0.29059 -3,-0.0371 -0.97297,0.25354 -0.41903,0.47766 1.23097,0.49804 1.65,0.0204 2.44606,-0.18706 1.76903,-0.46099 z M 530.268,569 c 1.88312,-2.2 3.94319,-4 4.57793,-4 0.63474,0 1.15407,-0.3876 1.15407,-0.86133 0,-0.47373 -1.12853,-0.64559 -2.50784,-0.38192 -1.3793,0.26367 -3.80263,-0.0569 -5.38517,-0.71243 -5.43781,-2.25242 -16.53629,-1.59133 -19.53422,1.16357 -2.04343,1.87778 -1.62987,3.04208 1.203,3.3868 0.94833,0.11539 3.97423,0.55133 6.72423,0.96874 2.75,0.41742 5.9776,0.65878 7.17244,0.53635 1.74274,-0.17856 2.06581,0.18515 1.63337,1.83882 -0.84625,3.23605 1.22578,2.42656 4.96219,-1.9386 z M 540,567.5 c 0,-0.825 -0.48214,-1.5 -1.07143,-1.5 -0.58928,0 -1.74643,0.675 -2.57143,1.5 -1.33333,1.33333 -1.21428,1.5 1.07143,1.5 1.61905,0 2.57143,-0.55556 2.57143,-1.5 z m -39,-9.96312 c 2.77346,-1.54454 2.37823,-1.82191 -4.5,-3.15812 -4.69201,-0.91149 -9.60675,-0.59611 -10.95,0.70269 -0.87922,0.85012 3.23089,1.44821 7.60178,1.10619 0.90848,-0.0711 2.20108,0.53261 2.87245,1.34155 1.47617,1.77868 1.7948,1.77917 4.97577,0.008 z m -100,0.0891 c 0,-0.92867 -5.2661,-9.67237 -6.15705,-10.22301 -1.92453,-1.18943 0.002,5.80331 2.26168,8.20843 1.97862,2.10615 3.89537,3.09744 3.89537,2.01458 z m 58,-1.69169 C 459,553.90052 456.92191,551 455.46482,551 454.65917,551 454,551.47656 454,552.05902 c 0,0.58246 0.40285,0.81004 0.89522,0.50574 1.0746,-0.66414 2.34765,2.23325 1.54901,3.52548 C 456.13498,556.59061 456.58352,557 457.44098,557 458.29844,557 459,556.52042 459,555.93426 Z m -20.81955,-2.10593 c 0.43515,-2.95727 2.58794,-3.47113 2.99245,-0.71429 0.37316,2.54323 1.70029,3.24999 3.71245,1.97704 0.91714,-0.58021 1.16418,-1.75761 0.73095,-3.48375 C 445.09417,549.52702 444.35936,549 441.98095,549 440.04328,549 439,548.49242 439,547.54969 c 0,-0.79767 -0.7875,-1.91444 -1.75,-2.4817 -1.41772,-0.83556 -1.49305,-1.2006 -0.39675,-1.92252 1.05509,-0.69479 1.10242,-1.35978 0.21481,-3.0183 C 436.44193,538.95723 435.43457,538 434.82949,538 c -1.4133,0 -4.91699,-3.78748 -7.76181,-8.39049 C 425.84074,527.62428 424.42358,526 423.91844,526 423.4133,526 423,525.60452 423,525.12115 423,523.61308 416.5306,513.41517 412.35655,508.34358 406.84271,501.64411 404,497.41937 404,495.92437 404,494.01127 400.91804,491 398.96002,491 c -0.9515,0 -2.40132,1.02457 -3.22183,2.27682 -2.69556,4.11394 -8.40455,9.22902 -9.9603,8.92411 -2.46774,-0.48364 -2.85468,4.66615 -0.65688,8.74245 1.05468,1.95614 2.36516,5.2029 2.91217,7.21502 0.54702,2.01212 2.10556,4.71212 3.46342,6 1.35787,1.28788 2.47662,3.34322 2.48612,4.56743 0.01,1.22421 0.9156,3.69921 2.01354,5.5 1.09795,1.80079 1.99795,3.90282 2,4.67118 0.002,0.76835 1.57874,3.31909 3.50374,5.66829 1.925,2.34921 3.5,5.15296 3.5,6.23055 0,2.15093 2.29579,4.57503 3.34201,3.52881 0.36189,-0.3619 0.65799,-1.43124 0.65799,-2.37632 0,-3.94071 11.34732,-7.64462 13.9207,-4.54389 0.72831,0.87755 1.8599,1.59555 2.51465,1.59555 0.65476,0 2.46852,1.334 4.03058,2.96444 1.56207,1.63045 3.19016,2.74811 3.618,2.48369 0.42783,-0.26441 1.06053,-0.0234 1.40599,0.53556 1.10757,1.79209 3.36061,1.08675 3.69053,-1.15536 z M 52.356096,543.7663 c 2.279147,-1.77853 7.353603,-6.00944 11.276568,-9.40202 3.922965,-3.39257 8.131019,-6.70262 9.351232,-7.35566 3.463633,-1.85368 15.95054,-10.94401 21.92859,-15.96377 2.976868,-2.49967 7.528834,-6.11985 10.115474,-8.04485 2.58664,-1.925 7.48689,-5.8625 10.88943,-8.75 3.40254,-2.8875 6.88686,-5.25 7.74293,-5.25 1.14729,0 1.39678,-0.63636 0.94898,-2.42054 -1.01793,-4.05577 0.20481,-5.57946 4.47745,-5.57946 5.30092,0 11.36125,-2.60006 12.94115,-5.55213 0.72053,-1.34633 1.6685,-2.44787 2.1066,-2.44787 0.4381,0 2.20857,-1.3803 3.93438,-3.06733 1.7258,-1.68703 3.75191,-2.83168 4.50245,-2.54367 0.75054,0.28801 1.6419,0.075 1.9808,-0.47335 0.3389,-0.54835 1.47831,-0.72338 2.53203,-0.38894 1.13814,0.36123 1.91584,0.13596 1.91584,-0.55495 0,-3.70446 7.09957,-9.56905 11.02112,-9.10399 0.83662,0.0992 3.23707,-1.63044 5.33433,-3.84369 2.09727,-2.21324 4.25529,-4.02408 4.7956,-4.02408 0.54032,0 2.45734,-1.125 4.26006,-2.5 1.80272,-1.375 3.69749,-2.5 4.2106,-2.5 0.51311,0 2.04563,-1.25289 3.40561,-2.7842 1.35997,-1.53132 4.17289,-3.82587 6.25092,-5.09901 3.06992,-1.88085 4.05766,-2.08291 5.26875,-1.07779 1.20635,1.00118 1.86957,0.89399 3.47865,-0.56221 1.09347,-0.98957 2.99753,-2.31404 4.23125,-2.94325 1.6257,-0.82914 2.16465,-1.88082 1.95807,-3.82085 -0.213,-2.00029 0.0834,-2.53544 1.17268,-2.11743 1.30833,0.50205 2.99852,-0.80598 6.16825,-4.77358 2.15118,-2.69267 1.83618,-3.02949 -3.05589,-3.26743 -5.61517,-0.27312 -7.28295,0.35213 -13,4.87371 -4.98814,3.9451 -18.22248,12.13631 -24.5054,15.1673 -2.60267,1.25557 -6.79936,4.07203 -9.32598,6.2588 -2.52661,2.18677 -6.41067,4.99706 -8.63123,6.24508 -2.22057,1.24803 -4.03739,2.86128 -4.03739,3.585 0,0.72372 -0.42223,1.31586 -0.93828,1.31586 -0.51606,0 -2.41345,1.34736 -4.21644,2.99413 -1.80299,1.64678 -3.74574,2.88676 -4.31724,2.75552 -0.57149,-0.13124 -2.00623,0.6589 -3.18829,1.75587 -1.18207,1.09696 -3.32635,2.80997 -4.76506,3.80668 -1.43871,0.99672 -2.35502,2.23422 -2.03625,2.75 0.31878,0.51579 -0.23446,0.95532 -1.22942,0.97673 -2.47458,0.0532 -18.64507,10.2203 -29.15845,18.3331 C 100.86149,493.99675 92,502.10242 92,503.14506 c 0,1.6677 2.945993,0.82437 4,-1.14506 0.588702,-1.1 1.842035,-1.98491 2.785184,-1.96647 2.210086,0.0432 -3.740364,5.07517 -12.106261,10.23756 -7.402437,4.56786 -36.915337,28.91458 -39.109716,32.26363 -3.477606,5.3075 -1.190394,5.89596 4.786889,1.23158 z M 101,498.14217 c 0,-1.02776 3.02888,-2.44663 3.72877,-1.74673 0.24339,0.24339 -0.49602,0.94481 -1.64312,1.55872 C 101.93781,498.56846 101,498.653 101,498.14217 Z m 350,46.91453 c 0,-0.51881 -0.83299,-1.53131 -1.85109,-2.25 -1.01809,-0.71868 -2.57645,-2.71467 -3.46301,-4.43552 -0.88656,-1.72085 -2.30357,-3.39423 -3.14891,-3.71861 -2.26509,-0.8692 -1.95102,-0.12763 2.49455,5.89013 3.75235,5.07936 5.96846,6.75543 5.96846,4.514 z M 388.24294,534.76506 C 381.92215,521.8985 380,517.69656 380,516.74545 c 0,-0.48339 -1.07572,-2.31137 -2.39049,-4.06217 -1.31478,-1.7508 -2.69128,-4.60365 -3.0589,-6.33965 -0.49276,-2.327 -1.37551,-3.33385 -3.3595,-3.8318 C 369.711,502.14035 368.275,501.98571 368,502.1682 c -1.76962,1.17431 2.10957,11.01799 5.42691,13.77114 0.8652,0.71805 1.57309,1.95201 1.57309,2.74212 0,0.79012 0.45,1.15846 1,0.81854 0.55,-0.33992 1,0.0597 1,0.88807 0,1.76764 4.40325,10.29505 6.52877,12.64372 0.80918,0.89413 1.47123,2.24383 1.47123,2.99934 0,1.53785 6.09851,8.2037 6.83325,7.46895 0.25848,-0.25847 -1.35716,-4.18923 -3.59031,-8.73502 z m 48.66241,-7.73321 C 435.12331,524.81433 432.99584,523 432.17765,523 c -1.5743,0 -1.03361,0.82607 4.77729,7.29871 3.74281,4.16904 3.70078,1.39996 -0.0496,-3.26686 z M 141,528 c 0,-0.55 -0.19844,-1 -0.44098,-1 -0.24254,0 -0.7191,0.45 -1.05902,1 -0.33992,0.55 -0.14148,1 0.44098,1 0.58246,0 1.05902,-0.45 1.05902,-1 z m 8.75681,-3.80747 c 5.90623,-2.7932 13.65059,-8.17673 11.74319,-8.16333 -0.55,0.004 -3.475,1.40596 -6.5,3.11576 -3.025,1.70981 -6.72855,3.75515 -8.23012,4.54521 -2.49241,1.31141 -4.55656,3.30983 -3.41869,3.30983 0.25808,0 3.14061,-1.26336 6.40562,-2.80747 z M 139,520.26184 c 3.575,-1.76185 7.175,-3.63468 8,-4.16184 0.825,-0.52717 3.64513,-1.93416 6.26695,-3.12665 5.82166,-2.64789 7.69016,-5.39075 4.74576,-6.96655 C 156.90572,505.41436 156,504.04547 156,502.96482 156,501.88417 155.6915,501 155.31445,501 154.05583,501 150,505.33046 150,506.67431 c 0,0.72913 -0.3375,1.32747 -0.75,1.32964 -0.4125,0.002 -3.015,2.00632 -5.78334,4.45365 -2.76834,2.44734 -6.55864,5.48306 -8.42291,6.74605 -3.00821,2.03799 -5.67224,5.66453 -3.41875,4.65395 0.48125,-0.21581 3.8,-1.83391 7.375,-3.59576 z m 286.9,-6.18323 C 424.64813,512.38537 423.24695,511 422.78626,511 c -1.21334,0 1.93395,5.7345 3.4427,6.27275 2.12598,0.75844 2.05034,0.024 -0.32896,-3.19414 z m -259.3427,0.50315 c 1.06675,-0.78003 1.70854,-1.64925 1.42619,-1.93161 -0.28236,-0.28235 -1.63165,0.34585 -2.99843,1.39601 -2.84655,2.18711 -1.37289,2.68913 1.57224,0.5356 z M 120,509.04896 c 1.925,-1.45502 4.84081,-3.48934 6.47957,-4.5207 1.70156,-1.07089 2.45192,-2.0511 1.74939,-2.28527 -0.67661,-0.22554 -2.91742,0.91259 -4.97958,2.52917 -2.06216,1.61658 -5.66188,4.13482 -7.99938,5.59608 -2.3375,1.46127 -4.25,3.15296 -4.25,3.75931 0,1.15818 2.95414,-0.50881 9,-5.07859 z m 54.69156,0.30926 C 174.07291,508.73958 169,511.16896 169,512.08387 c 0,0.41956 1.37805,0.0754 3.06233,-0.76485 1.68428,-0.84023 2.86743,-1.72259 2.62923,-1.9608 z M 86.457295,509.0691 c 1.00194,-1.62117 -1.175289,-2.11382 -2.466433,-0.55809 C 82.986096,509.72168 83.047345,510 84.318538,510 c 0.859886,0 1.822326,-0.41891 2.138757,-0.9309 z m 334.527715,-1.09711 c -0.59695,-1.1154 -1.58095,-1.72171 -2.18667,-1.34735 -0.72583,0.44858 -0.47309,1.14002 0.7413,2.028 2.48352,1.816 2.72155,1.70391 1.44537,-0.68065 z m -287.44389,-9.03852 c 1.07627,-1.74144 -0.14952,-2.11024 -1.52106,-0.45764 -0.78875,0.95039 -0.86462,1.52417 -0.20152,1.52417 0.58488,0 1.36004,-0.47994 1.72258,-1.06653 z M 415,499 c 0,-0.55 -0.47656,-1 -1.05902,-1 -0.58246,0 -0.7809,0.45 -0.44098,1 0.33992,0.55 0.81648,1 1.05902,1 C 414.80156,500 415,499.55 415,499 Z M 164.54112,497.06653 C 164.17858,496.47994 163.40342,496 162.81854,496 c -0.6631,0 -0.58723,0.57378 0.20152,1.52417 1.37154,1.6526 2.59733,1.2838 1.52106,-0.45764 z m 220.80822,-0.59856 c -0.60279,-1.57082 -1.60851,-1.87547 -2.674,-0.80998 -0.88239,0.8824 1.32329,3.46089 2.39429,2.79897 0.46366,-0.28655 0.58953,-1.1816 0.27971,-1.98899 z M 77.5,496 c 0.339919,-0.55 0.168034,-1 -0.381966,-1 -0.55,0 -1.278115,0.45 -1.618034,1 -0.339919,0.55 -0.168034,1 0.381966,1 0.55,0 1.278115,-0.45 1.618034,-1 z m 291.18311,-1.1875 c -0.31922,-0.79773 -0.55618,-0.56078 -0.60416,0.60417 -0.0434,1.05416 0.19293,1.64479 0.52522,1.3125 0.33229,-0.33229 0.36781,-1.1948 0.0789,-1.91667 z M 138.5,495 c 0.33992,-0.55 0.14148,-1 -0.44098,-1 -0.58246,0 -1.05902,0.45 -1.05902,1 0,0.55 0.19844,1 0.44098,1 0.24254,0 0.7191,-0.45 1.05902,-1 z m 225.46482,-0.93426 C 365.38211,491.41751 365.26274,490 363.62244,490 c -1.97542,0 -3.94769,2.71002 -3.2657,4.48727 0.79784,2.07913 2.36793,1.8957 3.60808,-0.42153 z M 410,489.5 c 0,-0.825 -0.43588,-1.5 -0.96862,-1.5 -0.53273,0 -0.70959,0.675 -0.39301,1.5 0.31659,0.825 0.75246,1.5 0.96862,1.5 0.21615,0 0.39301,-0.675 0.39301,-1.5 z m -36.77358,-4.28575 C 374.8505,483.82053 374.79563,482 373.12954,482 c -1.44353,0 -5.16923,4.12676 -4.58262,5.07593 0.63208,1.02272 1.91146,0.51374 4.6795,-1.86168 z M 151,485.5 c 0.69443,-0.83674 0.80272,-1.5 0.24489,-1.5 -0.55,0 -1.5602,0.675 -2.24489,1.5 -0.69443,0.83674 -0.80272,1.5 -0.24489,1.5 0.55,0 1.5602,-0.675 2.24489,-1.5 z m 44,-3.28911 c 0,-0.84932 0.28411,-1.26011 0.63136,-0.91286 0.34725,0.34725 1.57238,-0.0277 2.72251,-0.83334 C 199.504,479.65911 201.49223,479 202.77217,479 206.0041,479 211,476.25203 211,474.47432 c 0,-2.0953 -1.87663,-1.83843 -7.67367,1.05035 -4.11564,2.05091 -5.56468,2.33521 -7.72197,1.51501 -1.46058,-0.55532 -2.92129,-1.70201 -3.24601,-2.54822 -0.92061,-2.39907 -7.28297,-0.79766 -11.06944,2.78619 -3.60712,3.4141 -3.45235,4.72235 0.55867,4.72235 1.50124,0 4.47702,0.89092 6.61283,1.97982 4.0964,2.08846 6.53959,1.42759 6.53959,-1.76893 z m 163,-3.74607 c 0,-1.22531 -0.4037,-1.31913 -2,-0.46482 -1.1,0.5887 -2,1.27953 -2,1.53518 0,0.25565 0.9,0.46482 2,0.46482 1.13148,0 2,-0.66667 2,-1.53518 z m 26.87264,-4.94248 C 390.55201,467.36096 390.05664,465.9291 384,471 c -2.75,2.30243 -5,4.81933 -5,5.59312 0,2.40593 1.59144,1.57378 5.87264,-3.07078 z m -37.58096,-3.04449 c 1.48958,-3.03719 2.70832,-5.73719 2.70832,-6 0,-1.38383 -2.9173,-0.15815 -4.81305,2.02215 -1.19555,1.375 -2.57792,2.5 -3.07193,2.5 -1.12915,0 -2.37921,4.76352 -1.5866,6.04599 1.53065,2.47664 4.18869,0.68131 6.76326,-4.56814 z M 170.5,472 c 0.33992,-0.55 -0.0835,-1 -0.94098,-1 -0.85746,0 -1.55902,0.45 -1.55902,1 0,0.55 0.42344,1 0.94098,1 0.51754,0 1.2191,-0.45 1.55902,-1 z m 189.86021,-3.5037 c -0.27771,-0.72368 0.20264,-2.68405 1.06744,-4.35638 2.00318,-3.87374 1.97869,-4.13992 -0.38097,-4.13992 -1.07432,0 -2.76182,1.15759 -3.75,2.57242 -0.98817,1.41484 -2.76339,3.7694 -3.94492,5.23236 l -2.14824,2.65993 3.14824,1.08451 c 2.47035,0.85098 3.51054,0.78072 4.8308,-0.32632 0.92541,-0.77594 1.45535,-2.00292 1.17765,-2.7266 z M 377,470.88197 c 0,-0.55 -0.45,-0.72189 -1,-0.38197 -0.55,0.33992 -1,1.06803 -1,1.61803 0,0.55 0.45,0.72189 1,0.38197 0.55,-0.33992 1,-1.06803 1,-1.61803 z m -135.90625,0.0679 c 1.07925,-0.5776 1.69811,-1.4776 1.37524,-2 -0.8878,-1.4365 -2.46899,-1.13752 -2.46899,0.46684 0,0.77916 -0.5625,1.64364 -1.25,1.92105 -0.6875,0.27741 -0.88292,0.53991 -0.43426,0.58333 0.44866,0.0434 1.69876,-0.39363 2.77801,-0.97122 z m 93.0404,-1.69983 c 0.6002,-1.5125 1.75737,-4.01523 2.5715,-5.56163 1.52586,-2.89829 1.06099,-7.68837 -0.74614,-7.68837 -0.55131,0 -1.49116,1.2375 -2.08855,2.75 -0.59739,1.5125 -1.54259,3.61922 -2.10045,4.68161 -1.54856,2.94908 -2.65639,7.34918 -2.01245,7.99312 1.36586,1.36585 3.36542,0.37216 4.37609,-2.17473 z M 225,467.75511 c 0,-0.55783 -0.66326,-0.44954 -1.5,0.24489 -0.825,0.68469 -1.5,1.69489 -1.5,2.24489 0,0.55783 0.66326,0.44954 1.5,-0.24489 0.825,-0.68469 1.5,-1.69489 1.5,-2.24489 z M 253.82874,463 c 1.26669,0 1.56242,-1.27551 0.53414,-2.30379 -0.95469,-0.95468 -6.48294,3.30051 -5.77536,4.4454 0.36905,0.59713 1.29595,0.36884 2.3405,-0.57647 C 251.87922,463.70431 253.18455,463 253.82874,463 Z M 176,463.5 c 0.69443,-0.83674 0.80272,-1.5 0.24489,-1.5 -0.55,0 -1.5602,0.675 -2.24489,1.5 -0.69443,0.83674 -0.80272,1.5 -0.24489,1.5 0.55,0 1.5602,-0.675 2.24489,-1.5 z m 193,-1.27366 c 0,-0.85782 -0.12734,-1.37217 -0.28297,-1.14301 -0.15563,0.22917 -0.89428,1.21447 -1.64144,2.18956 -1.18269,1.54348 -1.14607,1.69139 0.28297,1.14301 C 368.26135,464.06947 369,463.08417 369,462.22634 Z m -94.45888,-1.29287 c 1.07627,-1.74144 -0.14952,-2.11024 -1.52106,-0.45764 -0.78875,0.95039 -0.86462,1.52417 -0.20152,1.52417 0.58488,0 1.36004,-0.47994 1.72258,-1.06653 z m -86.8862,-1.4766 c 0.93028,-2.42426 -0.36778,-2.86191 -1.60908,-0.54252 -0.77398,1.44619 -0.7892,2.08565 -0.0496,2.08565 0.58661,0 1.33304,-0.69441 1.65872,-1.54313 z m 74.66082,0.42314 c 1.20134,-0.616 3.53426,-2.39319 5.18426,-3.94932 1.65,-1.55613 4.63844,-3.51267 6.64097,-4.34787 2.47521,-1.03234 3.97941,-2.48938 4.69798,-4.55069 1.24164,-3.56176 0.30132,-3.86728 -3.62944,-1.17924 -1.49023,1.01909 -5.98355,4.00572 -9.98515,6.63697 -8.15303,5.36102 -9.08018,6.35397 -7.10248,7.60663 1.7429,1.10393 1.60483,1.11106 4.19386,-0.21648 z M 184,457.12533 c 0,-1.08741 4.96323,-3.41251 7.76293,-3.63667 3.48404,-0.27895 3.66762,-1.19847 0.33687,-1.68732 -2.29275,-0.3365 -3.99968,0.35458 -7.29636,2.95407 -4.72252,3.72379 -6.36903,6.15284 -2.91914,4.30651 1.16363,-0.62276 2.1157,-1.49422 2.1157,-1.93659 z m 31.06285,-2.8039 c 0.5271,-1.37798 1.86298,-2.29669 3.63524,-2.5 1.98438,-0.22764 2.83131,-0.90498 2.90269,-2.32143 0.0554,-1.1 0.36328,-3.125 0.68412,-4.5 0.32084,-1.375 0.84346,-4.04608 1.16137,-5.93572 l 0.57802,-3.43573 -2.38141,2.23723 c -1.30978,1.23047 -3.35852,4.13701 -4.55275,6.45897 -1.49741,2.91146 -3.55538,4.956 -6.63073,6.58747 -4.96068,2.63163 -5.44761,4.09957 -2.37804,7.16914 2.02223,2.02223 2.13913,2.02933 4.11476,0.25 1.11837,-1.00725 2.4084,-2.81172 2.86673,-4.00993 z m 141.86457,2.04371 c 1.13992,-1.44917 2.07258,-2.25917 2.07258,-1.8 0,2.03473 2.23311,-1.66484 2.96577,-4.91336 1.10778,-4.91176 -0.71555,-6.42305 -4.3244,-3.58432 C 356.18862,447.2102 355,448.7875 355,449.57258 355,450.35766 354.56583,451 354.03518,451 c -1.8661,0 -3.17737,3.8658 -2.03518,6 1.42071,2.65461 2.44359,2.52282 4.92742,-0.63486 z M 290.18878,456 c 0.56386,0 0.74695,-0.7251 0.40687,-1.61134 -0.44111,-1.14951 -0.18809,-1.44624 0.88282,-1.0353 1.00032,0.38386 1.69702,-0.20439 2.08825,-1.76319 0.32291,-1.28658 1.565,-2.78582 2.7602,-3.33165 C 298.82045,447.11975 307.55857,440 306.46265,440 c -0.82636,0 -5.55257,2.78035 -13.21265,7.7728 -3.84086,2.50327 -5.25,4.04423 -5.25,5.7411 0,1.27569 -0.3375,2.50818 -0.75,2.73887 -0.4125,0.23069 -0.1507,0.26819 0.58179,0.0833 0.73248,-0.18485 1.79313,-0.3361 2.35699,-0.3361 z m 22.24677,-2.5 c 1.71092,-4.09479 4.46016,-4.60169 7.46501,-1.37637 l 1.97846,2.12364 2.05675,-3.37364 c 2.8109,-4.61063 2.63507,-5.06167 -1.68577,-4.32431 -7.79371,1.33 -10.95083,2.50333 -13.2119,4.91013 -1.93454,2.05922 -2.11548,2.74238 -1.06243,4.01123 1.90781,2.29877 2.84993,1.88247 4.45988,-1.97068 z m 84.60624,-1.12331 4.45821,-4.62331 -3,0.66351 c -1.65,0.36493 -3.61472,0.72043 -4.36605,0.78998 -1.28,0.1185 -5.12199,5.39306 -5.13021,7.04313 -0.0109,2.1809 4.11908,0.19079 8.03805,-3.87331 z M 342.73967,454.75 c 1.84776,-2.34593 2.42701,-6.75 0.88779,-6.75 -0.77585,0 -1.68251,1.08319 -2.01479,2.4071 -0.33228,1.3239 -0.8792,3.1239 -1.21539,4 -0.72457,1.88819 0.934,2.13099 2.34239,0.3429 z M 298.8,452.8 c 1.90692,-1.90692 1.39739,-2.99545 -1.05,-2.24316 -2.88973,0.88826 -3.08549,1.09132 -2.29112,2.37663 0.85831,1.38878 1.85884,1.34881 3.34112,-0.13347 z m 75.70544,-6.80862 C 375.87745,443.81798 377,441.8058 377,441.51987 c 0,-1.36049 -3.0041,-0.2271 -6.803,2.56664 -3.27728,2.41014 -4.197,3.73059 -4.197,6.02568 v 2.93917 l 3.00544,-1.55418 c 1.653,-0.85479 4.128,-3.33241 5.5,-5.5058 z M 248.59091,449.5 c 1.375,-1.375 3.12002,-2.5 3.87782,-2.5 0.7578,0 2.64985,-1.0423 4.20454,-2.31622 1.5547,-1.27393 6.29843,-4.49246 10.54162,-7.1523 4.24319,-2.65984 7.45491,-5.25674 7.13714,-5.7709 -0.31776,-0.51415 -1.31446,-0.74008 -2.21489,-0.50206 -2.02705,0.53583 -25.25815,16.97744 -27.06594,19.15568 -2.20055,2.6515 0.70998,1.89553 3.51971,-0.9142 z m -10.4063,-6.96599 c 3.67653,-2.98465 8.61248,-6.41017 10.96878,-7.61226 6.24958,-3.1883 10.73931,-7.03779 10.11273,-8.67064 -0.29639,-0.77238 -1.49002,-1.84434 -2.6525,-2.38215 -1.16249,-0.53781 -3.63456,-1.77976 -5.49348,-2.7599 -1.85893,-0.98014 -4.45083,-1.57734 -5.75979,-1.32712 -2.10018,0.40148 -8.36035,6.90002 -8.36035,8.67869 0,0.37005 -1.06818,2.10529 -2.37373,3.85609 -1.92616,2.58307 -6.62627,13.3794 -6.62627,15.22079 0,1.81036 4.53663,-0.4184 10.18461,-5.0035 z m -35.75761,-0.0555 c 1.05985,-0.80183 1.66417,-1.7207 1.34293,-2.04193 -0.59458,-0.59459 -6.76993,2.22319 -6.76993,3.08908 0,1.02648 3.60569,0.33075 5.427,-1.04715 z m 150.6311,-3.58709 c 1.57223,-2.93774 0.66835,-3.2507 -2.40544,-0.83286 -3.22215,2.53454 -3.74537,5.59659 -0.67558,3.95369 1.0874,-0.58196 2.47386,-1.98633 3.08102,-3.12083 z M 390.5,442 c 0.33992,-0.55 0.16803,-1 -0.38197,-1 -0.55,0 -1.27811,0.45 -1.61803,1 -0.33992,0.55 -0.16803,1 0.38197,1 0.55,0 1.27811,-0.45 1.61803,-1 z m -29.02381,-2.61905 c 0.89048,-0.89047 1.41116,-1.82693 1.15708,-2.08102 -0.6962,-0.69619 -4.63327,1.62806 -4.63327,2.73525 0,1.46798 1.66789,1.15408 3.47619,-0.65423 z M 405,437.94098 C 405,437.42344 404.55,437 404,437 c -0.55,0 -1,0.70156 -1,1.55902 0,0.85746 0.45,1.2809 1,0.94098 0.55,-0.33992 1,-1.04148 1,-1.55902 z m -28.10925,-6.28347 c 5.4413,-6.04663 5.82736,-7.32233 1.90582,-6.29757 -2.36195,0.61721 -10.11381,10.98949 -9.02607,12.07722 0.93166,0.93167 1.48493,0.48257 7.12025,-5.77965 z m -81.36691,2.38106 c -0.51852,-0.83897 -1.0829,-0.81948 -2.1602,0.0746 -1.16706,0.96857 -1.20088,1.36939 -0.16933,2.00692 1.59173,0.98374 3.2875,-0.53149 2.32953,-2.08152 z m 118.01728,1.8949 c 0.92034,-1.48915 -0.14673,-2.29879 -2.06137,-1.56407 -0.88358,0.33906 -1.32643,1.06965 -0.98412,1.62354 0.81058,1.31154 2.21511,1.28411 3.04549,-0.0595 z M 381,433.88197 c 0,-0.55 -0.45,-0.72189 -1,-0.38197 -0.55,0.33992 -1,1.06803 -1,1.61803 0,0.55 0.45,0.72189 1,0.38197 0.55,-0.33992 1,-1.06803 1,-1.61803 z m -61,-1.44099 c 0,-0.85746 -0.45,-1.2809 -1,-0.94098 -0.55,0.33992 -1,1.04148 -1,1.55902 0,0.51754 0.45,0.94098 1,0.94098 0.55,0 1,-0.70156 1,-1.55902 z M 358.08179,430 C 358.5868,430 359,429.325 359,428.5 c 0,-2.10523 -1.24176,-1.86644 -3.39962,0.65375 -1.64018,1.9156 -1.65571,2.08146 -0.14045,1.5 0.937,-0.35956 2.11684,-0.65375 2.62186,-0.65375 z M 401,430 c 0,-0.55 -0.19844,-1 -0.44098,-1 -0.24254,0 -0.7191,0.45 -1.05902,1 -0.33992,0.55 -0.14148,1 0.44098,1 0.58246,0 1.05902,-0.45 1.05902,-1 z m 15.92963,-1.86852 c 0.55,-1.02768 0.71485,-2.15366 0.36634,-2.50218 C 416.5809,424.91423 413,427.85306 413,429.15499 c 0,1.60369 2.93235,0.83994 3.92963,-1.02351 z m -114.40317,-0.93835 c -0.30789,-0.30789 -1.11479,-6.4e-4 -1.79313,0.68278 -0.98026,0.98762 -0.8654,1.10248 0.5598,0.5598 0.98622,-0.37553 1.54122,-0.93469 1.23333,-1.24258 z m 6.56925,-2.90874 c 2.85858,-1.6886 3.81091,-3.28439 1.96005,-3.28439 -1.19383,0 -6.85472,4.92563 -5.71005,4.9684 0.46514,0.0174 2.15264,-0.74042 3.75,-1.68401 z m 87.67512,-0.0969 c 0.59996,-1.79986 -1.467,-1.42165 -2.16452,0.39606 -0.37373,0.97391 -0.15024,1.43108 0.58051,1.1875 0.6535,-0.21783 1.36631,-0.93044 1.58401,-1.58356 z M 190,423.5 c 0.69443,-0.83674 0.80272,-1.5 0.24489,-1.5 -0.55,0 -1.5602,0.675 -2.24489,1.5 -0.69443,0.83674 -0.80272,1.5 -0.24489,1.5 0.55,0 1.5602,-0.675 2.24489,-1.5 z m 99.4203,-1.68967 c 0.84353,-1.20431 1.82035,-1.90302 2.1707,-1.55267 0.67557,0.67557 10.25491,-5.98604 14.33487,-9.96867 1.33422,-1.3024 2.90922,-2.23772 3.5,-2.07849 0.59077,0.15922 5.12413,-3.65053 10.07413,-8.46613 4.95,-4.81559 8.1,-8.45233 7,-8.08164 -1.93542,0.65222 -9.76565,5.65583 -12.19027,7.78972 -0.65464,0.57615 -2.83506,2.17255 -4.84537,3.54755 -4.71861,3.22741 -18.0709,13.84002 -22.4829,17.86975 -3.0899,2.82219 -3.214,3.13025 -1.26103,3.13025 1.19139,0 2.85633,-0.98535 3.69987,-2.18967 z M 361,419.03138 c 0,-0.53273 -0.675,-0.70959 -1.5,-0.39301 -0.825,0.31659 -1.5,0.75246 -1.5,0.96862 0,0.21615 0.675,0.39301 1.5,0.39301 0.825,0 1.5,-0.43588 1.5,-0.96862 z m 26.66813,-1.60892 c 0.33295,-0.86765 -0.13118,-2.31408 -1.03139,-3.21429 -1.51219,-1.51219 -1.63674,-1.51251 -1.63674,-0.004 0,0.89787 -0.27314,2.3443 -0.60699,3.21428 -0.40128,1.04573 -0.0518,1.58179 1.03139,1.58179 0.9011,0 1.91078,-0.70989 2.24373,-1.57754 z m 9.78707,-1.04364 c 1.64044,-0.6295 5.16897,-6.37882 3.91487,-6.37882 -0.37471,0 -2.18626,1.1479 -4.02568,2.55089 -4.49892,3.4315 -4.43693,5.57306 0.11081,3.82793 z M 429,416 c 0,-0.55 -0.19844,-1 -0.44098,-1 -0.24254,0 -0.7191,0.45 -1.05902,1 -0.33992,0.55 -0.14148,1 0.44098,1 0.58246,0 1.05902,-0.45 1.05902,-1 z m -163.02332,-2.51441 c 1.11602,0.68974 5.26418,-2.07824 11.09333,-7.40235 l 3.14276,-2.87047 -2.10639,-2.10639 c -2.38043,-2.38043 -2.64515,-4.82981 -0.92903,-8.59627 1.53037,-3.3588 -0.78486,-6.07642 -4.40307,-5.16831 C 266.85582,388.82724 252.69416,409 257.56981,409 c 0.7866,0 1.43019,0.75207 1.43019,1.67126 0,0.91919 0.77173,2.52401 1.71496,3.56627 1.58692,1.75353 1.80593,1.7706 2.93346,0.2286 0.67018,-0.91652 1.7179,-1.35777 2.32826,-0.98054 z m 58.48061,0.58351 c 0.31644,-0.512 0.16515,-1.18441 -0.33619,-1.49426 -0.50134,-0.30984 -1.16956,0.10906 -1.48493,0.9309 -0.6217,1.62013 0.88076,2.0849 1.82112,0.56336 z m 52.8624,-3.41337 c 7.06378,-7.90562 4.82466,-9.11693 -3.66233,-1.98124 -3.05784,2.57097 -5.3291,5.04762 -5.04725,5.50367 0.98726,1.59742 5.916,-0.39593 8.70958,-3.52243 z M 407.96456,409.75 c 0.0195,-0.4125 -0.42906,-0.75 -0.99678,-0.75 -1.24702,0 -2.94526,4.14214 -2.20785,5.3851 0.4909,0.82746 3.12666,-2.98483 3.20463,-4.6351 z M 196.5,413 c 0.33992,-0.55 0.14148,-1 -0.44098,-1 -0.58246,0 -1.05902,0.45 -1.05902,1 0,0.55 0.19844,1 0.44098,1 0.24254,0 0.7191,-0.45 1.05902,-1 z m 52.5,-6.15278 c 0,-1.93908 -4.40221,-0.62498 -8.04923,2.40278 -5.59963,4.64882 -4.86866,5.21582 2.04923,1.58956 3.3,-1.72981 6,-3.52637 6,-3.99234 z m 33.02006,5.62861 c 0.69572,-0.83829 1.04022,-1.74888 0.76557,-2.02353 -0.90557,-0.90557 -3.78563,0.73369 -3.78563,2.15469 0,1.83458 1.44056,1.77202 3.02006,-0.13116 z M 426.5426,405.75 c 0.52734,-2.15093 0.31916,-2.75 -0.95563,-2.75 -2.02621,0 -4.08076,4.27081 -3.18169,6.61377 0.57802,1.50629 0.85682,1.54864 2.06566,0.31377 0.7686,-0.78515 1.70085,-2.66504 2.07166,-4.17754 z M 292,404.93191 c 0,-1.06907 -1.52495,-1.1659 -4.75,-0.30162 -2.10978,0.5654 -3.0363,3.25008 -1.61288,4.6735 C 286.41225,410.07891 292,406.23961 292,404.93191 Z M 435.36709,405.75 c 1.43703,-3.402 0.51426,-6.03135 -1.43323,-4.08386 C 432.42927,403.17073 431.637,409 432.93709,409 c 0.58145,0 1.67494,-1.4625 2.43,-3.25 z m -40.59819,-3.72433 c 2.34789,-2.68635 3.88649,-5.12062 3.4191,-5.40948 -1.54427,-0.95441 -10.73407,6.0079 -10.90378,8.26083 -0.2709,3.59627 2.90778,2.38532 7.48468,-2.85135 z m -52.05597,-0.69713 c 1.05955,-2.24516 1.01114,-2.35596 -0.5226,-1.19607 -4.10178,3.10199 -5.10988,4.18869 -4.62039,4.9807 0.78121,1.26402 3.81345,-0.96734 5.14299,-3.78463 z m 102.04408,-0.90487 C 443.77282,399.43949 442,400.95036 442,402.7733 c 0,1.52648 0.13153,1.52374 1.69048,-0.0352 0.92976,-0.92977 1.4097,-1.97126 1.06653,-2.31443 z M 224.62072,398.24759 C 232.63583,394.02929 243,383.44199 243,379.47261 c 0,-1.56379 1.17238,-2.97585 3.75,-4.51661 2.0625,-1.23285 3.20305,-2.43461 2.53455,-2.67059 -1.27271,-0.44925 -8.55021,4.21678 -11.50381,7.37577 -2.2101,2.36381 -5.81073,5.31631 -13.28074,10.89019 -5.27402,3.9353 -9.20227,8.39349 -9.42691,10.69863 -0.14799,1.51855 2.59846,0.65488 9.54763,-3.00241 z m 230.80201,-2.37261 c -0.72172,-1.16777 -3.06576,0.5895 -4.59306,3.44328 -0.98894,1.84786 -0.84837,1.83125 2.06636,-0.24423 1.72012,-1.22483 2.85713,-2.6644 2.5267,-3.19905 z M 412,397.38197 c 0,-0.825 -0.45,-1.22189 -1,-0.88197 -0.55,0.33992 -1,1.29303 -1,2.11803 0,0.825 0.45,1.22189 1,0.88197 0.55,-0.33992 1,-1.29303 1,-2.11803 z m 8.82899,-1.6931 c 1.46773,-2.4229 1.48955,-2.87082 0.17937,-3.68203 -1.92337,-1.19086 -2.8124,-0.23666 -3.6414,3.90834 -0.81334,4.06672 0.93048,3.95272 3.46203,-0.22631 z m -67.56268,0.62443 C 354.64157,395.50302 352.93582,394 350.64098,394 348.36894,394 346,395.67397 346,397.27946 c 0,0.80898 5.49309,0.0786 7.26631,-0.96616 z M 241.5,396 c 0.33992,-0.55 0.16803,-1 -0.38197,-1 -0.55,0 -1.27811,0.45 -1.61803,1 -0.33992,0.55 -0.16803,1 0.38197,1 0.55,0 1.27811,-0.45 1.61803,-1 z m 50.5773,-0.62007 c 5.44117,-1.77972 6.91107,-3.14646 4.80082,-4.46389 -2.17834,-1.35994 -7.44965,-0.2927 -10.80423,2.18745 -5.57368,4.1208 -2.8236,5.1636 6.00341,2.27644 z m 137.43722,0.26401 c 0.90024,0.34546 1.92805,-0.7674 2.93539,-3.1783 1.89806,-4.54269 1.89773,-4.46564 0.0187,-4.46564 -0.84227,0 -1.82194,0.7875 -2.17706,1.75 -0.35512,0.9625 -0.95535,1.975 -1.33384,2.25 -0.37849,0.275 -0.96966,1.625 -1.31371,3 -0.34405,1.375 -0.37563,1.96278 -0.0702,1.30618 0.30546,-0.65661 1.17876,-0.95461 1.94068,-0.66224 z M 392.25,393.8465 c 0.9625,-0.50428 1.75,-1.5052 1.75,-2.22427 0,-2.25819 -7.02914,-0.46601 -8.83322,2.25215 l -1.5759,2.37439 3.45456,-0.7427 c 1.90001,-0.40848 4.24206,-1.15529 5.20456,-1.65957 z m 51.18329,-3.35248 c 2.1132,-3.92398 1.73287,-4.99892 -1.41521,-3.99976 -2.20858,0.70098 -4.46014,4.98145 -3.46622,6.58966 1.13805,1.84139 3.03784,0.83344 4.88143,-2.5899 z M 312.5,383.54975 c 1.65,-1.30878 2.70502,-2.67537 2.34448,-3.03687 -0.74121,-0.74318 -7.18219,3.16336 -10.61665,6.43915 -3.37777,3.22171 -1.5949,4.53179 2.10003,1.54313 1.74468,-1.41119 4.52214,-3.63662 6.17214,-4.94541 z m 51.70871,5.20025 c 1.66377,-1.2375 4.73361,-3.84572 6.82187,-5.79605 2.08825,-1.95034 5.41066,-4.41517 7.38312,-5.47741 C 380.38617,376.4143 382,375.45933 382,375.35438 382,374.1609 380.55775,372 379.76118,372 c -0.96281,0 -14.27967,10.21327 -21.14979,16.22069 l -3.11139,2.72068 2.84184,0.0293 c 1.56301,0.0161 4.2031,-0.98319 5.86687,-2.22069 z m 97.74153,-2.33024 c 2.3135,-3.22149 2.97535,-4.89417 2.23106,-5.63846 -1.57119,-1.57119 -7.1813,4.39864 -7.1813,7.64178 0,3.69523 1.20931,3.20583 4.95024,-2.00332 z m -126.4279,-0.54712 c 6.21453,-5.72835 5.60657,-6.78977 -1.02234,-1.78489 -5.23763,3.95445 -6.72038,5.91225 -4.47766,5.91225 0.56229,0 3.03729,-1.85731 5.5,-4.12736 z M 451.36163,388.5 c 0.31658,-0.825 0.13972,-1.5 -0.39301,-1.5 -0.53274,0 -0.96862,0.675 -0.96862,1.5 0,0.825 0.17686,1.5 0.39301,1.5 0.21616,0 0.65203,-0.675 0.96862,-1.5 z M 409.5,388 c 0.33992,-0.55 -0.11008,-1 -1,-1 -0.88992,0 -1.33992,0.45 -1,1 0.33992,0.55 0.78992,1 1,1 0.21008,0 0.66008,-0.45 1,-1 z m 62.04805,-3.07611 c 3.91202,-6.19705 4.25614,-7.86301 1.01707,-4.92389 -2.44746,2.22081 -5.56512,6.95481 -5.56512,8.45034 0,1.7904 2.33419,-0.0195 4.54805,-3.52645 z M 425.21651,384.25 c 2.54647,-2.91932 3.87742,-6.07392 2.83456,-6.71843 -1.60196,-0.99007 -7.47049,4.93306 -6.7494,6.81219 0.81596,2.12636 2.00308,2.09793 3.91484,-0.0938 z m -6.69259,-1.32536 c 0.74935,-2.36099 0.11357,-3.43666 -1.45739,-2.46576 -1.31159,0.81061 -1.4216,4.54112 -0.13392,4.54112 0.51294,0 1.22903,-0.93391 1.59131,-2.07536 z m -16.53374,-1.41281 c 1.00074,-1.20582 0.92669,-1.6065 -0.39029,-2.11187 -1.64767,-0.63227 -4.59989,1.11503 -4.59989,2.72248 0,1.4411 3.65899,0.99338 4.99018,-0.61061 z M 437,381.5 c 0.68469,-0.825 0.93265,-1.5 0.55102,-1.5 -0.38163,0 0.0133,-0.70714 0.87755,-1.57143 1.99433,-1.99433 1.9957,-3.32853 0.004,-4.09274 -2.18279,-0.83761 -3.54075,0.83414 -4.11024,5.06005 -0.50961,3.78156 0.57677,4.6353 2.67746,2.10412 z m -137,-1.60841 c 0,-0.6595 0.93806,-0.87297 2.31617,-0.52709 2.59118,0.65035 6.68383,-1.7011 6.68383,-3.84022 0,-0.8157 -1.8993,-1.76739 -4.73358,-2.37188 -5.1441,-1.09713 -7.26642,-0.26373 -7.26642,2.85341 0,0.96851 -0.94528,2.00812 -2.10062,2.31025 -1.15668,0.30248 -1.8042,1.02893 -1.44098,1.61663 0.87404,1.41422 6.5416,1.37862 6.5416,-0.0411 z m 150.01838,-3.9174 C 452.36907,372.67294 452.54467,371 450.54047,371 448.60744,371 444,376.03412 444,378.14616 c 0,2.48832 3.63375,1.17694 6.01838,-2.17197 z m -33.09994,-1.34222 C 419.35767,370.6852 419.46745,370 417.66052,370 c -0.73672,0 -1.85207,1.125 -2.47857,2.5 -0.62649,1.375 -1.59872,2.5 -2.16051,2.5 -0.56179,0 -1.02144,0.675 -1.02144,1.5 0,2.65407 2.775,1.60012 4.91844,-1.86803 z M 461.99503,369.75 c 0.0109,-1.64924 -2.21622,-0.62017 -2.70528,1.25 -0.28766,1.1 -0.92053,2 -1.40638,2 -0.48585,0 -0.86719,0.7875 -0.84741,1.75 0.0276,1.34287 0.60806,1.05206 2.49504,-1.25 1.35248,-1.65 2.4613,-3.3375 2.46403,-3.75 z m -167.81308,2.75 c 0.6265,-1.375 1.7776,-2.5 2.55802,-2.5 1.07466,0 1.25279,-0.78855 0.73413,-3.25 -0.79858,-3.78997 -2.4741,-6.05453 -2.4741,-3.3439 0,0.99335 -1.38149,3.55037 -3.06998,5.68226 -1.68849,2.13189 -2.78693,4.33415 -2.44098,4.8939 1.13018,1.82867 3.52966,1.07079 4.69291,-1.48226 z m 175.76274,-0.75 c 1.67533,-1.7875 3.04814,-3.5924 3.05068,-4.0109 0.004,-0.62518 3.25122,-8.17094 4.7293,-10.9891 0.21635,-0.4125 -0.0234,-0.75 -0.53277,-0.75 -0.50937,0 -2.11731,1.8 -3.5732,4 -1.45589,2.2 -2.3315,4 -1.9458,4 0.38571,0 -0.45292,1.2375 -1.86362,2.75 -3.11718,3.34213 -4.96201,6.76394 -4.10743,7.61852 0.92231,0.92231 0.9268,0.91953 4.24284,-2.61852 z m -218.34052,-2.47917 c -1.01652,-1.01651 -1.85525,0.51389 -1.02122,1.86338 0.63003,1.01942 0.86558,1.02021 1.2043,0.004 0.2316,-0.69479 0.14921,-1.53513 -0.18308,-1.86742 z m 182.33578,-0.46413 c 0.82873,-1.48132 1.1739,-3.02618 0.76705,-3.43303 -1.01632,-1.01632 -6.12835,2.938 -6.54596,5.06352 -0.54903,2.7944 4.02544,1.50374 5.77891,-1.63049 z m -9.34925,-0.54934 c -0.6935,-0.69349 -2.5907,0.71555 -2.5907,1.9241 0,0.6631 0.57378,0.58723 1.52417,-0.20152 0.83829,-0.69572 1.31823,-1.47088 1.06653,-1.72258 z m 56.97313,-0.65565 c 0.33106,-1.31906 0.41881,-3.45656 0.19499,-4.75 -0.38376,-2.21777 -0.44959,-2.2378 -1.15588,-0.35171 -0.41191,1.1 -1.16609,2.78139 -1.67594,3.73643 -1.33179,2.49466 -1.14502,3.76357 0.55395,3.76357 0.81452,0 1.75182,-1.07923 2.08288,-2.39829 z m -95.14793,-0.24315 c 0.52667,-1.37248 0.38034,-1.43434 -0.89301,-0.37756 -1.73524,1.44013 -1.91584,2.019 -0.62988,2.019 0.49116,0 1.17646,-0.73865 1.52289,-1.64144 z m -27.8252,-2.1012 c -0.6935,-0.69349 -2.5907,0.71555 -2.5907,1.9241 0,0.6631 0.57378,0.58723 1.52417,-0.20152 0.83829,-0.69572 1.31823,-1.47088 1.06653,-1.72258 z m 21.06422,1.19951 c 0.32569,-0.84872 0.35539,-1.7799 0.066,-2.06929 -0.65097,-0.65096 -4.72092,1.80861 -4.72092,2.85297 0,1.44024 4.06408,0.75603 4.65492,-0.78368 z m -10.95434,-4.08963 c -0.96309,-0.96308 -4.78727,2.68348 -4.05564,3.86727 0.33312,0.53901 1.51558,0.0494 2.67086,-1.10587 1.1402,-1.14019 1.76335,-2.38283 1.38478,-2.7614 z M 261.5,364.36477 c 1.94282,-1.5267 1.92853,-1.55116 -0.5,-0.8558 -3.0516,0.87376 -5.0076,2.50436 -2.95,2.45923 0.7975,-0.0175 2.35,-0.73904 3.45,-1.60343 z m 195.81174,-2.74927 c -0.10355,-1.43853 0.23395,-2.6155 0.75,-2.6155 0.51604,0 0.93826,-0.40787 0.93826,-0.90638 0,-1.36093 -4.31857,-0.0652 -5.75,1.72517 -2.2679,2.83663 -1.55625,5.07999 1.5,4.72849 2.27792,-0.26199 2.71768,-0.76528 2.56174,-2.93178 z m -32.78932,-0.65885 c 0.86558,-1.67385 2.67713,-3.54608 4.02568,-4.16052 2.48042,-1.13015 3.32241,-2.79613 1.41318,-2.79613 -1.90424,0 -9.30124,7.64091 -8.55925,8.84148 1.04288,1.68742 1.37768,1.4852 3.12039,-1.88483 z m 68.44214,-2.89778 c -0.0227,-0.99919 -0.54853,-0.6613 -1.46456,0.94113 -1.87047,3.27204 -1.84843,5.04477 0.0318,2.55887 0.80751,-1.06762 1.45225,-2.64262 1.43276,-3.5 z m -175.28128,0.30983 c 1.7508,-1.30278 3.61516,-2.3687 4.14301,-2.3687 1.07635,0 2.57389,-2.93207 2.33053,-4.563 -0.0872,-0.58465 1.41679,-1.68114 3.34229,-2.43665 1.92549,-0.7555 3.50089,-1.79211 3.50089,-2.30357 0,-0.51147 1.125,-0.71488 2.5,-0.45203 1.375,0.26285 2.5,0.0903 2.5,-0.38342 0,-0.47373 0.87883,-0.86133 1.95295,-0.86133 2.72357,0 6.83425,-2.00306 7.46065,-3.63545 0.62244,-1.62204 -2.63036,-1.8541 -5.37789,-0.38366 -1.00804,0.53949 -5.44795,1.0858 -9.86645,1.21403 l -8.03365,0.23315 0.51698,2.58486 c 0.43857,2.19285 -0.55748,3.59844 -6.56781,9.26828 -3.89663,3.67588 -7.08478,6.92496 -7.08478,7.22016 0,1.15582 5.66813,-0.88908 8.68328,-3.13267 z m 87.42376,-2.27282 c 1.43387,-1.42774 4.46695,-4.17088 6.74018,-6.09588 4.03729,-3.41883 5.06606,-5 3.25319,-5 C 413.37951,345 394,359.83806 394,361.15568 c 0,1.45872 8.40656,-2.37088 11.10704,-5.0598 z m 64.33042,2.21097 c 1.38026,-2.03124 2.25929,-3.94343 1.95341,-4.24932 -0.66984,-0.66983 -6.39087,5.5591 -6.39087,6.95825 0,2.07396 2.02913,0.83524 4.43746,-2.70893 z m -30.2662,-0.96184 C 441.53816,355.203 441.51341,353 439.12244,353 c -2.39924,0 -4.51854,2.52539 -3.7657,4.48727 0.7432,1.93674 1.55052,1.90663 3.81452,-0.14226 z m 49.74253,-1.96255 c 1.13243,-1.43964 1.79262,-3.04849 1.46709,-3.5752 -0.72781,-1.17762 -5.38088,3.03112 -5.38088,4.86705 0,2.10333 1.67911,1.5491 3.91379,-1.29185 z m -40.30981,-1.10001 c 2.52959,-2.37371 2.66518,-2.76439 1.07162,-3.08766 -2.06228,-0.41835 -5.6756,2.4212 -5.6756,4.4602 0,2.04523 1.40957,1.62501 4.60398,-1.37254 z M 371,354 c 0,-0.55 -0.45,-1 -1,-1 -0.55,0 -1,0.45 -1,1 0,0.55 0.45,1 1,1 0.55,0 1,-0.45 1,-1 z m 15.75,-4.35893 C 389.46478,347.24036 389.62014,346 387.20606,346 c -1.93437,0 -9.50739,7.36534 -8.55365,8.31908 0.65322,0.65321 4.73633,-1.70562 8.09759,-4.67801 z m 16,-3.33338 c 3.51946,-3.507 5.28245,-6.30769 3.97059,-6.30769 -1.04382,0 -14.56011,13.82715 -14.03227,14.35499 0.72107,0.72107 3.46274,-1.47171 10.06168,-8.0473 z m -88.04761,4.49614 c 1.81369,-1.75789 3.29761,-3.55789 3.29761,-4 0,-1.84968 -2.03277,-0.55026 -5,3.19617 -3.80295,4.80161 -2.87455,5.23998 1.70239,0.80383 z M 498.5,351 c 0.33992,-0.55 0.14148,-1 -0.44098,-1 -0.58246,0 -1.05902,0.45 -1.05902,1 0,0.55 0.19844,1 0.44098,1 0.24254,0 0.7191,-0.45 1.05902,-1 z m -15.10074,-7.16301 c -0.28761,-0.46535 -2.26091,0.61303 -4.38511,2.3964 -2.54197,2.13412 -3.46295,3.48924 -2.69426,3.96432 1.33931,0.82773 7.88647,-5.0548 7.07937,-6.36072 z M 470,347 c 0,-0.55 -0.675,-1 -1.5,-1 -0.825,0 -1.5,0.45 -1.5,1 0,0.55 0.675,1 1.5,1 0.825,0 1.5,-0.45 1.5,-1 z m -105.06126,-7.13967 c 0.95431,-1.56923 2.03349,-2.55476 2.39818,-2.19007 0.3647,0.36469 0.66308,-0.0754 0.66308,-0.97791 0,-0.90255 1.35,-2.3391 3,-3.19235 3.80739,-1.96888 3.84307,-3.5 0.0816,-3.5 -2.21332,0 -3.40444,0.78523 -4.92995,3.25 -1.10633,1.7875 -3.37703,4.55636 -5.046,6.15302 -1.66897,1.59667 -2.82505,3.24192 -2.56906,3.65612 0.9195,1.48779 4.70117,-0.40169 6.40219,-3.19881 z m 56.86796,0.95088 C 422.52539,339.81504 423.90945,339 424.88239,339 c 1.90065,0 6.82457,-4.62637 5.90385,-5.54709 -0.30523,-0.30524 -3.16969,0.32775 -6.36545,1.40663 -4.10016,1.38421 -6.05811,2.63101 -6.65174,4.23575 -1.77998,4.81173 0.96312,5.97748 4.03765,1.71592 z m 48.61039,0.22433 c 2.5206,-1.08046 4.58291,-2.43046 4.58291,-3 0,-0.56955 0.945,-1.98054 2.1,-3.13554 1.40236,-1.40236 1.76723,-2.43277 1.09831,-3.10169 -1.29075,-1.29075 -6.10526,0.99026 -7.60607,3.6036 -0.60073,1.04604 -2.39648,3.18354 -3.99055,4.75 -3.41042,3.35132 -2.45675,3.57219 3.8154,0.88363 z M 454.5,339 c 1.3729,-1.51704 1.4707,-1.99232 0.40499,-1.9682 -1.54561,0.035 -4.90499,2.31461 -4.90499,3.32844 0,1.37756 2.78387,0.53606 4.5,-1.36024 z m 8.70162,-1.25 c 1.26687,-1.7875 2.79378,-4.15 3.39313,-5.25 0.59935,-1.1 2.23279,-2.56169 3.62987,-3.24819 1.39707,-0.68651 4.05557,-3.05504 5.90776,-5.2634 1.85219,-2.20837 5.05512,-5.97201 7.11762,-8.36364 2.0625,-2.39164 3.75,-4.63561 3.75,-4.9866 0,-1.70613 -2.44196,-0.16324 -7.29925,4.61183 -2.93721,2.8875 -6.77147,6.5625 -8.52057,8.16667 -1.7491,1.60416 -3.18018,3.35256 -3.18018,3.88533 0,0.53276 -1.0125,1.95697 -2.25,3.16491 -4.4403,4.33423 -7.73465,8.74891 -7.18832,9.63289 0.99788,1.61461 2.29621,0.9571 4.63994,-2.3498 z M 479.5,340 c 0.33992,-0.55 0.16803,-1 -0.38197,-1 -0.55,0 -1.27811,0.45 -1.61803,1 -0.33992,0.55 -0.16803,1 0.38197,1 0.55,0 1.27811,-0.45 1.61803,-1 z m -35.32664,-5.86359 c 3.13249,-2.79888 3.15778,-2.88882 1.11912,-3.97988 -1.81208,-0.9698 -2.42743,-0.66838 -4.68914,2.29687 -1.43184,1.87724 -2.60334,3.66818 -2.60334,3.97988 0,1.49795 3.30064,0.26991 6.17336,-2.29687 z m 39.19063,-0.35648 c -0.37296,-0.60346 -0.95147,-0.46084 -1.47368,0.36331 -1.36676,2.15703 -1.02722,3.21528 0.59868,1.8659 0.81894,-0.67967 1.21269,-1.68281 0.875,-2.22921 z m -77.97282,-2.27598 c 0.60986,-1.09783 2.38414,-3.68533 3.94286,-5.75 3.09993,-4.10617 2.38103,-4.89086 -1.6069,-1.75395 -1.39842,1.1 -2.82733,2 -3.17535,2 -1.43556,0 -6.43136,4.38583 -5.92642,5.20283 0.30075,0.48663 0.0623,1.46854 -0.52979,2.18202 -0.86104,1.03749 -0.34944,1.17889 2.55508,0.70619 2.15164,-0.35017 4.08359,-1.40451 4.74052,-2.58709 z M 504,327.94943 c 0,-0.56046 -1.35,0.51854 -3,2.39779 -1.65,1.87924 -2.98681,3.8074 -2.97069,4.2848 0.0408,1.20933 5.97069,-5.42754 5.97069,-6.68259 z m -121,2.99155 C 383,330.42344 382.55,330 382,330 c -0.55,0 -1,0.70156 -1,1.55902 0,0.85746 0.45,1.2809 1,0.94098 0.55,-0.33992 1,-1.04148 1,-1.55902 z m 50.15045,-6.71775 c 3.49225,-2.35222 7.17663,-4.82722 8.18751,-5.5 1.01088,-0.67278 2.21306,-1.12251 2.6715,-0.9994 0.45845,0.12311 3.20246,-1.90189 6.09782,-4.5 9.40952,-8.44351 10.41469,-9.54984 9.08069,-9.99451 -1.6804,-0.56013 -4.33259,1.72767 -3.52245,3.0385 0.38213,0.61829 0.15671,0.74034 -0.55499,0.30049 -1.33651,-0.82601 -5.93082,1.82068 -7.86933,4.53337 -0.69233,0.96884 -2.26733,1.91549 -3.5,2.10366 -1.24599,0.19022 -2.11203,0.94114 -1.95031,1.69108 0.18171,0.8426 -0.27723,1.13093 -1.22263,0.76815 -0.84807,-0.32544 -2.07515,0.20535 -2.79089,1.20723 -0.70256,0.98342 -2.51487,2.59133 -4.02737,3.57313 -2.46127,1.59767 -2.75,1.61553 -2.75,0.17008 0,-0.88826 0.64844,-1.61501 1.44098,-1.61501 0.79254,0 1.7191,-0.45 2.05902,-1 1.55781,-2.52058 -3.82763,-0.61738 -7.78158,2.75 -2.42177,2.0625 -5.71163,4.71014 -7.31082,5.88364 -4.08726,2.99929 -2.45291,3.90253 2.21637,1.22489 l 3.87603,-2.22274 -2.25,2.49656 c -4.76447,5.28655 -2.31765,4.32045 9.90045,-3.90912 z M 500,325.786 c 0,-1.40774 -1.86524,0.089 -3.14013,2.51969 -1.1429,2.17907 -1.13599,2.18108 0.99462,0.28932 C 499.03452,327.54727 500,326.28321 500,325.786 Z m 35.96029,-7.25862 c -0.0218,-0.56506 -2.04683,1.15366 -4.5,3.81937 -2.45316,2.66571 -4.44012,5.36571 -4.41548,6 0.0247,0.63429 2.04965,-1.08443 4.5,-3.81937 2.45036,-2.73494 4.43732,-5.43494 4.41548,-6 z M 479.5,327 c 0.33992,-0.55 0.16803,-1 -0.38197,-1 -0.55,0 -1.27811,0.45 -1.61803,1 -0.33992,0.55 -0.16803,1 0.38197,1 0.55,0 1.27811,-0.45 1.61803,-1 z m 14.93812,-3.11415 c 1.68403,-1.16278 4.86188,-4.3626 7.06188,-7.11072 2.2,-2.74812 5.125,-6.1325 6.5,-7.52084 l 2.5,-2.52426 -2.5,0.71504 c -1.375,0.39328 -5.61377,3.854 -9.41948,7.69051 -3.80572,3.8365 -7.74322,7.41631 -8.75,7.95512 -1.00679,0.53882 -1.83052,1.41383 -1.83052,1.94448 0,1.64284 3.22917,1.06637 6.43812,-1.14933 z m -139.94299,-1.48864 c 1.71062,-1.26568 1.78192,-1.61079 0.5,-2.42017 -0.82232,-0.51919 -2.96256,-0.67541 -4.75609,-0.34716 -1.79353,0.32825 -3.81853,0.15786 -4.5,-0.37865 -0.68147,-0.5365 -2.47654,-1.27108 -3.98904,-1.63239 -2.4215,-0.57847 -2.75,-0.36881 -2.75,1.75512 0,2.60168 2.88834,4.42474 4.04505,2.55315 0.52399,-0.84784 0.89165,-0.83855 1.43228,0.0362 0.96094,1.55484 4.55698,2.84354 6.48537,2.32414 0.84552,-0.22773 2.43511,-1.07834 3.53243,-1.89024 z m 70.31133,-5.41524 c 3.80178,-4.57848 2.86787,-5.06402 -2.82633,-1.46943 -3.9195,2.47427 -4.62848,3.50578 -3.31346,4.82079 1.36964,1.36965 2.92431,0.52105 6.13979,-3.35136 z m 87.2895,-0.58098 c 2.38915,-2.46497 2.99815,-3.70688 2.20614,-4.49889 -1.0468,-1.0468 -5.57832,2.54325 -9.10193,7.2109 -2.38802,3.16335 3.4121,0.88226 6.89579,-2.71201 z M 465.5,314 c 0.33992,-0.55 0.16803,-1 -0.38197,-1 -0.55,0 -1.27811,0.45 -1.61803,1 -0.33992,0.55 -0.16803,1 0.38197,1 0.55,0 1.27811,-0.45 1.61803,-1 z M 434,307 c 0,-0.55 -0.19844,-1 -0.44098,-1 -0.24254,0 -0.7191,0.45 -1.05902,1 -0.33992,0.55 -0.14148,1 0.44098,1 0.58246,0 1.05902,-0.45 1.05902,-1 z m 6,-6.26577 c 0,-0.57431 -0.9,-0.22972 -2,0.76577 -1.1,0.99549 -1.98503,2.52773 -1.96673,3.40499 0.0253,1.21206 0.50546,1.02821 2,-0.76577 C 439.11497,302.84078 440,301.30854 440,300.73423 Z M 447.2,304 c 1.07879,0 1.8,-0.73457 1.8,-1.83333 0,-2.91956 -2.97444,-2.12421 -4.67475,1.25 -1.05412,2.09185 -1.13113,2.68138 -0.2395,1.83333 C 444.80859,304.5625 446.21,304 447.2,304 Z m -82.67382,-7.25 c 5.66036,-6.2131 8.27935,-10.27781 7.27157,-11.28559 -0.28993,-0.28992 -1.50756,-0.71594 -2.70585,-0.94671 -1.5461,-0.29775 -2.43015,0.21948 -3.04467,1.78136 -0.47628,1.21052 -3.20264,4.79954 -6.05857,7.97561 -4.28731,4.76789 -4.97914,6.03188 -3.96819,7.25 0.67343,0.81143 1.58156,1.47533 2.01807,1.47533 0.43651,0 3.35595,-2.8125 6.48764,-6.25 z M 376,300.69623 c 2.48975,-1.04896 2.49078,-1.05488 0.25,-1.4443 -2.54905,-0.443 -3.0334,-3.35688 -0.85806,-5.16224 1.47352,-1.22292 2.95622,-5.41936 1.73015,-4.89679 C 376.07801,289.6379 365,301.87125 365,302.57921 c 0,0.79157 7.8354,-0.5497 11,-1.88298 z m 83.84425,-3.03554 c 3.21598,-3.31805 3.22463,-3.35406 1.3595,-5.6574 l -1.87708,-2.31809 -4.28495,4.1584 c -3.57055,3.4651 -4.07754,4.40832 -3.04089,5.6574 1.94533,2.34398 4.33021,1.78441 7.84342,-1.84031 z M 516,297.88197 c 0,-0.55 -0.45,-0.72189 -1,-0.38197 -0.55,0.33992 -1,1.06803 -1,1.61803 0,0.55 0.45,0.72189 1,0.38197 0.55,-0.33992 1,-1.06803 1,-1.61803 z m -3.6155,-6.29584 c 7.49136,-8.32468 13.67738,-16.67699 13.07429,-17.65281 -0.47123,-0.76246 -20.16168,18.83814 -21.76291,21.6636 -1.02613,1.81067 -0.0303,3.46866 1.68738,2.8095 0.72557,-0.27842 3.87613,-3.34756 7.00124,-6.82029 z m -114.88435,3.31078 c 2.78364,-1.23134 5.01252,-1.70967 5.37712,-1.15397 1.12558,1.71553 6.0708,2.37254 7.75581,1.03043 C 414.08431,292.02444 423.94162,282 423.19348,282 c -0.43642,0 -1.2956,0.50212 -1.9093,1.11582 -2.89414,2.89414 -15.17642,8.86755 -15.88285,7.72452 -0.332,-0.53718 -1.20032,-0.74772 -1.9296,-0.46787 -0.72928,0.27985 -2.68621,-0.005 -4.34875,-0.63215 -2.56292,-0.9674 -3.33467,-0.85872 -5.07288,0.71434 -1.12756,1.02042 -2.0501,2.91057 -2.0501,4.20033 0,2.83443 -0.32803,2.82 5.50015,0.24192 z m 85.21677,-5.13334 0.34406,-2.26357 -2.15185,2.14913 c -1.21928,1.21775 -1.83365,2.66399 -1.41762,3.33714 0.97981,1.58536 2.76584,-0.19916 3.22541,-3.2227 z m -44.67964,-5.30848 c 1.59312,-1.9196 1.12911,-2.32994 -3.02436,-2.67454 -3.08294,-0.25578 -3.4418,0.003 -4.06407,2.93594 -0.3754,1.76906 -0.49044,3.40859 -0.25564,3.64339 0.63284,0.63284 5.90427,-2.16994 7.34407,-3.90479 z M 451,285 c 0,-0.55 -0.19844,-1 -0.44098,-1 -0.24254,0 -0.7191,0.45 -1.05902,1 -0.33992,0.55 -0.14148,1 0.44098,1 0.58246,0 1.05902,-0.45 1.05902,-1 z m -45.25,-6.99055 c 2.52521,-1.67286 2.92116,-3.53792 0.91457,-4.30792 -1.66893,-0.64043 -7.66457,3.05964 -7.66457,4.73 0,2.83278 2.0282,2.70595 6.75,-0.42208 z m 12.25,0.54957 c 0,-1.05548 -1.91911,-1.49891 -2.48992,-0.57533 -0.34546,0.55897 0.0734,1.01631 0.9309,1.01631 C 417.29844,279 418,278.80156 418,278.55902 Z M 492.5,278 c 0.33992,-0.55 0.16803,-1 -0.38197,-1 -0.55,0 -1.27811,0.45 -1.61803,1 -0.33992,0.55 -0.16803,1 0.38197,1 0.55,0 1.27811,-0.45 1.61803,-1 z m 57.31595,-11.85716 C 548.61456,265.69537 544,269.9459 544,271.5 c 0,0.63325 -1.125,2.20825 -2.5,3.5 -1.375,1.29175 -2.5,2.82305 -2.5,3.4029 0,0.57984 2.64935,-1.8611 5.88744,-5.42432 3.23809,-3.56322 5.45592,-6.6393 4.92851,-6.83574 z m -67.26732,10.07389 c 2.40393,-2.01446 3.98179,-5.38775 2.15044,-4.59738 -1.57373,0.67919 -6.09528,6.39048 -5.02513,6.34738 0.45433,-0.0183 1.74794,-0.8058 2.87469,-1.75 z M 380.5,276 c 0.33992,-0.55 0.14148,-1 -0.44098,-1 -0.58246,0 -1.05902,0.45 -1.05902,1 0,0.55 0.19844,1 0.44098,1 0.24254,0 0.7191,-0.45 1.05902,-1 z m 110.09076,-2.62409 c -0.51315,-1.33723 -0.92004,-1.44663 -1.86518,-0.50149 -0.94515,0.94515 -0.88978,1.40607 0.25382,2.11285 1.86211,1.15085 2.44691,0.56606 1.61136,-1.61136 z m 6.82035,0.12409 c 1.80272,-1.375 3.59674,-2.5 3.98671,-2.5 1.38487,0 7.60212,-5.52034 7.60215,-6.75 4e-5,-1.58113 -0.0194,-1.57916 -4.09633,0.41403 C 499.11498,267.49408 490.19063,276 493.01002,276 c 0.61788,0 2.59837,-1.125 4.40109,-2.5 z m -17.68749,-3.77124 c 0.31476,-2.06249 0.22193,-2.10288 -1.31076,-0.57019 -0.90723,0.90723 -1.3262,2.17263 -0.93105,2.812 0.39515,0.63937 0.985,0.89596 1.31076,0.57019 0.32577,-0.32576 0.74474,-1.59117 0.93105,-2.812 z M 378.75701,268.42367 C 377.77282,267.43949 376,268.95036 376,270.7733 c 0,1.52648 0.13153,1.52374 1.69048,-0.0352 0.92976,-0.92977 1.4097,-1.97126 1.06653,-2.31443 z m 13.29943,1.32633 c 2.38408,-2.85781 2.40884,-3.75 0.10408,-3.75 -1.84308,0 -4.5545,4.27269 -3.42696,5.40023 0.93996,0.93996 1.31916,0.75164 3.32288,-1.65023 z m 25.59422,0.78203 c -0.72775,-1.8965 1.189,-3.09237 2.63647,-1.6449 2.72414,2.72414 5.22821,-0.12359 7.27315,-8.27129 0.6512,-2.59458 0.51049,-2.75222 -2.1821,-2.44463 -2.09062,0.23882 -2.96503,0.93997 -3.19558,2.56238 -0.1747,1.22935 -2.07594,3.4774 -4.22865,5 C 413.80884,268.66541 413.04121,270 415.5,270 c 0.825,0 1.5,0.45 1.5,1 0,0.55 0.27314,1 0.60699,1 0.33384,0 0.3535,-0.66059 0.0437,-1.46797 z M 493,268.88197 c 0,-0.55 -0.45,-0.72189 -1,-0.38197 -0.55,0.33992 -1,1.06803 -1,1.61803 0,0.55 0.45,0.72189 1,0.38197 0.55,-0.33992 1,-1.06803 1,-1.61803 z m -46.5,-0.7653 c 1.65,-1.03172 3.9,-2.82446 5,-3.98388 1.1,-1.15941 2.86623,-3.0136 3.92497,-4.12041 1.05873,-1.10681 1.50873,-2.00559 1,-1.99729 -1.48425,0.0242 -14.42497,9.87426 -14.42497,10.9798 0,1.45738 1.11173,1.24041 4.5,-0.87822 z m 43.3125,-0.0542 c 0.25,-0.75 -0.125,-1.125 -0.875,-0.875 -0.72188,0.24063 -1.50937,1.02812 -1.75,1.75 -0.25,0.75 0.125,1.125 0.875,0.875 0.72187,-0.24063 1.50937,-1.02813 1.75,-1.75 z M 381.5,267 c 0.33992,-0.55 0.14148,-1 -0.44098,-1 -0.58246,0 -1.05902,0.45 -1.05902,1 0,0.55 0.19844,1 0.44098,1 0.24254,0 0.7191,-0.45 1.05902,-1 z m 158.76936,-0.25 c 0.9084,-0.6875 2.6819,-2.69 3.94113,-4.45001 1.25923,-1.76 6.22701,-7.69386 11.03951,-13.18634 4.8125,-5.49248 8.75,-10.23998 8.75,-10.54999 C 564,238.25365 563.28987,238 562.42194,238 c -1.49675,0 -16.46095,15.00193 -17.33433,17.37805 -0.22682,0.61707 -2.13932,3.41284 -4.25,6.21282 -2.11069,2.79998 -3.83761,5.38748 -3.83761,5.75 0,1.03824 1.46718,0.77308 3.26936,-0.59087 z M 484.75,265.01096 c 1.7875,-1.08986 3.25,-2.74737 3.25,-3.68335 0,-1.35058 -0.67072,-1.09725 -3.25,1.22755 -1.7875,1.61114 -3.6775,3.27033 -4.2,3.68709 -1.98309,1.58177 1.03964,0.69562 4.2,-1.23129 z M 532.5,265 c 0.33992,-0.55 0.14148,-1 -0.44098,-1 -0.58246,0 -1.05902,0.45 -1.05902,1 0,0.55 0.19844,1 0.44098,1 0.24254,0 0.7191,-0.45 1.05902,-1 z m 5.49678,-5.57087 c 0.82677,-1.67459 2.67417,-4.59371 4.10534,-6.48692 2.80779,-3.71429 4.27284,-6.96229 3.1165,-6.90925 C 544.39693,246.07065 533,261.38 533,262.44607 c 0,1.87981 3.67454,-0.33879 4.99678,-3.01694 z m -35.56798,-0.79721 c 4.28342,-4.03979 4.51558,-5.63193 0.8212,-5.63189 -3.44759,4e-5 -8.81089,6.03908 -6.98495,7.86502 1.67209,1.67209 2.2419,1.46565 6.16375,-2.23313 z M 557.5,259 c 1.75133,-1.9352 1.74663,-2 -0.14501,-2 -1.98435,0 -4.35499,1.74192 -4.35499,3.2 0,1.51458 2.69331,0.79636 4.5,-1.2 z m -70.96784,-7.10134 c 0.97602,-3.07516 -0.076,-3.35966 -3.47458,-0.93966 C 481.04341,252.39321 480,253.98932 480,255.63619 v 2.5 l 2.94086,-2.09408 c 1.61747,-1.15174 3.23356,-3.01629 3.5913,-4.14345 z m -48.01929,3.21033 c 0.54292,-1.04006 2.2793,-3.98538 3.85862,-6.54517 3.42294,-5.54795 2.81959,-6.979 -1.24637,-2.95621 -2.53336,2.50646 -7.12512,9.54563 -7.12512,10.92281 0,1.355 3.66636,0.2002 4.51287,-1.42143 z M 453.5,253.81247 c 2.2,-0.647 4.39913,-1.07395 4.88695,-0.94877 0.48783,0.12518 1.83783,-0.62588 3,-1.66904 1.16218,-1.04315 2.96496,-2.19928 4.00618,-2.56919 2.83817,-1.00828 1.12015,-1.97864 -4.03328,-2.27805 -2.52309,-0.14659 -5.6454,-0.95973 -6.93846,-1.80697 -3.3603,-2.20175 -4.04886,-1.98257 -6.88534,2.19168 -2.46172,3.62275 -3.48718,7.97373 -1.60515,6.81058 0.512,-0.31644 1.21356,-0.11799 1.55902,0.44098 0.78847,1.27576 1.12227,1.26626 6.01008,-0.17122 z m 65.91111,-2.8892 C 520.835,249.23108 522,247.19952 522,246.40872 c 0,-2.29447 -7.4388,2.88367 -7.81955,5.44318 -0.47082,3.16496 2.1825,2.6939 5.23066,-0.92863 z M 593.5,251 c 0.33992,-0.55 -0.11008,-1 -1,-1 -0.88992,0 -1.33992,0.45 -1,1 0.33992,0.55 0.78992,1 1,1 0.21008,0 0.66008,-0.45 1,-1 z m -27.58793,-1.39405 c 0.89456,-1.07787 0.78196,-1.76906 -0.49641,-3.04743 -1.53783,-1.53783 -1.78483,-1.5344 -3.53451,0.049 -1.03463,0.93633 -1.88115,2.30767 -1.88115,3.04743 0,1.77385 4.4297,1.7371 5.91207,-0.049 z M 476,249 c 0,-0.55 -0.45,-1 -1,-1 -0.55,0 -1,0.45 -1,1 0,0.55 0.45,1 1,1 0.55,0 1,-0.45 1,-1 z m -58.28227,-7.18 c 1.74433,-4.14853 1.67708,-4.2394 -1.46773,-1.98351 -3.02093,2.16702 -6.55109,7.52909 -5.58974,8.49044 1.0272,1.02719 5.70181,-3.28276 7.05747,-6.50693 z m 63.6439,2.68 c 0.31658,-0.825 0.18787,-1.5 -0.28603,-1.5 -0.47389,0 -1.12064,0.675 -1.43723,1.5 -0.31658,0.825 -0.18787,1.5 0.28603,1.5 0.47389,0 1.12064,-0.675 1.43723,-1.5 z m 68.72888,-2.25 c 1.35557,-1.5125 3.99018,-4.775 5.85467,-7.25 1.86449,-2.475 3.77012,-5.00279 4.23473,-5.61732 0.49452,-0.65408 0.30696,-1.56365 -0.45238,-2.19385 -0.99265,-0.82383 -2.37253,0.26001 -5.87851,4.61732 C 549.75731,236.89142 546,242.94418 546,244.45034 c 0,1.31695 1.81143,0.34256 4.09051,-2.20034 z M 516,240 c 3.37076,-2.83741 3.41006,-2.94719 1.06445,-2.9731 -1.33955,-0.0148 -3.47705,0.95154 -4.75,2.14741 -4.84841,4.55485 -1.60721,5.28098 3.68555,0.82569 z m 26.43529,-0.89804 c -0.62769,-0.62769 -2.41268,1.9121 -2.38817,3.39804 0.009,0.55 0.67253,0.13285 1.47435,-0.927 0.80183,-1.05985 1.21305,-2.17182 0.91382,-2.47104 z M 524.5,241 c 0.33992,-0.55 0.16803,-1 -0.38197,-1 -0.55,0 -1.27811,0.45 -1.61803,1 -0.33992,0.55 -0.16803,1 0.38197,1 0.55,0 1.27811,-0.45 1.61803,-1 z m -26.57037,-1.86852 c 1.19867,-2.23973 0.48273,-3.2094 -1.7774,-2.40734 -2.5961,0.92128 -4.18081,2.4206 -3.5822,3.38917 0.96632,1.56354 4.32683,0.94793 5.3596,-0.98183 z M 576.5,236.92673 c 0,-2.18991 -4.39261,-1.91814 -5.99596,0.37097 -0.78135,1.11553 -1.19256,2.39728 -0.91379,2.84833 0.77708,1.25733 6.90975,-1.59992 6.90975,-3.2193 z M 507,238.5 c 0,-0.825 -0.45,-1.5 -1,-1.5 -0.55,0 -1,0.675 -1,1.5 0,0.825 0.45,1.5 1,1.5 0.55,0 1,-0.675 1,-1.5 z m -61.48992,-2.51631 c 0.34546,-0.55897 1.1054,-0.72134 1.68875,-0.36081 0.60955,0.37673 0.8637,0.0647 0.59757,-0.73368 -0.6645,-1.99349 -4.20606,-1.71607 -4.60603,0.3608 -0.36267,1.88322 1.28683,2.40493 2.31971,0.73369 z m 89.47527,-7.27053 c 1.1554,-2.05548 1.21875,-2.90906 0.28516,-3.84265 -0.93359,-0.93359 -2.08392,-0.23341 -5.17854,3.15206 -2.1881,2.39373 -3.75707,4.71029 -3.48662,5.1479 0.88291,1.42858 6.85793,-1.74953 8.38,-4.45731 z m 37.34296,0.55922 c 2.37529,-1.91065 2.56495,-2.37611 1.18409,-2.906 -1.84502,-0.70799 -8.8133,5.33774 -7.88446,6.84063 0.54395,0.88013 1.17652,0.50866 6.70037,-3.93463 z M 490.73882,231 c 2.05236,-1.1 3.40073,-2.05625 2.99637,-2.125 -0.40435,-0.0687 -1.29769,-0.20978 -1.98519,-0.31341 -0.6875,-0.10362 -1.925,0.34391 -2.75,0.99452 -0.825,0.6506 -2.85,1.65611 -4.5,2.23445 l -3,1.05155 2.75362,0.0789 c 1.5145,0.0434 4.43283,-0.82105 6.4852,-1.92105 z m 36.80071,-6.75 c 3.73157,-4.2625 7.64605,-8.52493 8.69885,-9.47206 1.0528,-0.94714 1.6283,-2.18464 1.27889,-2.75 -1.26608,-2.04856 -3.54303,-0.94739 -5.96093,2.88281 -1.35781,2.15091 -3.50095,5.0203 -4.76254,6.37642 C 517.55366,231.21969 517.01346,232 519.37743,232 c 0.75759,0 4.43053,-3.4875 8.1621,-7.75 z m -96.93536,4.02083 c -1.01652,-1.01651 -1.85525,0.51389 -1.02122,1.86338 0.63003,1.01942 0.86558,1.02021 1.2043,0.004 0.2316,-0.69479 0.14921,-1.53513 -0.18308,-1.86742 z m 150.84304,-0.35624 c -0.32197,-0.52097 -1.01165,-0.68378 -1.53262,-0.3618 -0.52097,0.32197 -0.68378,1.01165 -0.3618,1.53262 0.32197,0.52097 1.01165,0.68378 1.53262,0.3618 0.52097,-0.32197 0.68378,-1.01165 0.3618,-1.53262 z M 566.33911,220.9 C 569.27542,219.52101 581,206.99631 581,205.23861 c 0,-1.65926 -2.64866,-3.31066 -4.29602,-2.67851 -0.85223,0.32703 -2.28038,2.13479 -3.17366,4.01725 -0.89329,1.88246 -2.02674,3.42265 -2.51879,3.42265 -0.78925,0 -8.36038,9.30021 -10.43964,12.82382 -0.60233,1.02075 -0.35657,1.1047 1.07347,0.36668 1.02005,-0.52644 3.13224,-1.55716 4.69375,-2.2905 z M 470,216.39301 c 0,-2.46838 -0.69445,-2.83123 -3.41821,-1.78602 -1.87923,0.72113 -2.11543,4.0402 -0.33179,4.66237 2.2044,0.76894 3.75,-0.41657 3.75,-2.87635 z m 47.76794,0.85699 c 3.02859,-4.37398 3.41668,-5.25 2.32587,-5.25 -1.33091,0 -8.09381,5.9355 -8.09381,7.10359 0,1.9978 3.98875,0.71597 5.76794,-1.85359 z m -74.34079,0.65618 c 0.31073,-0.31073 -0.4822,-1.54872 -1.76206,-2.75109 -2.30406,-2.16455 -2.34447,-2.16686 -4.09402,-0.23362 -0.97185,1.07388 -1.50372,2.37849 -1.18193,2.89915 0.61364,0.9929 6.06441,1.05917 7.03801,0.0856 z m 52.13172,-1.43558 c 1.87978,-1.48106 1.8646,-1.52057 -0.48054,-1.25 -1.33192,0.15367 -2.60692,0.8419 -2.83334,1.5294 -0.56018,1.701 0.96337,1.57255 3.31388,-0.2794 z m -18.02264,-3.41198 c -0.32,-0.51777 0.66594,-0.85527 2.19098,-0.75 2.00149,0.13814 2.77634,-0.27578 2.78554,-1.48804 0.007,-0.92368 0.34452,-2.01118 0.75,-2.41667 1.01193,-1.01193 0.93362,-5.40391 -0.0964,-5.40391 -1.279,0 -9.16639,7.54895 -9.16639,8.77307 0,0.59415 0.7875,1.28608 1.75,1.5376 0.9625,0.25153 1.88906,0.50953 2.05902,0.57333 0.16996,0.0638 0.0472,-0.30762 -0.27279,-0.82538 z m 110.9949,-4.86082 c -0.87876,-0.87876 -4.52454,3.00384 -3.84821,4.09818 0.37465,0.60619 1.40201,0.0824 2.50143,-1.27531 1.02611,-1.2672 1.63217,-2.53749 1.34678,-2.82287 z m -23.35987,1.14721 c 1.00581,-0.91024 1.82936,-2.14774 1.83012,-2.75 7.7e-4,-0.60225 1.78927,-3.10901 3.97445,-5.57056 2.45567,-2.76624 3.61709,-4.83153 3.041,-5.40762 -1.42373,-1.42373 -3.51262,0.8085 -7.93579,8.48039 -4.02138,6.97499 -4.24526,8.26636 -0.90978,5.24779 z M 453.71024,208.6231 c 0.31681,-0.31681 -0.27589,-0.89623 -1.31711,-1.28759 -1.04122,-0.39136 -2.3846,-1.36693 -2.98529,-2.16793 -0.92448,-1.23275 -1.34031,-1.10208 -2.7083,0.851 -0.88887,1.26905 -1.44697,2.58106 -1.24022,2.9156 0.46265,0.74858 7.45488,0.48495 8.25092,-0.31108 z M 459,207.39301 C 459,207.17686 458.325,207 457.5,207 c -0.825,0 -1.5,0.43588 -1.5,0.96862 0,0.53273 0.675,0.70959 1.5,0.39301 0.825,-0.31659 1.5,-0.75246 1.5,-0.96862 z m 30,-0.45203 C 489,206.42344 488.33912,206 487.53138,206 c -0.89208,0 -1.24351,0.5866 -0.89521,1.49426 0.59029,1.53826 2.36383,1.12315 2.36383,-0.55328 z M 542.18346,206.25 c 1.4067,-1.5125 3.34264,-3.9875 4.3021,-5.5 1.68393,-2.65458 1.67712,-2.75 -0.19624,-2.75 -1.06738,0 -2.80663,1.0125 -3.86501,2.25 -5.72348,6.69218 -5.94176,12.12968 -0.24085,6 z M 470.5,206 c 0.33992,-0.55 0.16803,-1 -0.38197,-1 -0.55,0 -1.27811,0.45 -1.61803,1 -0.33992,0.55 -0.16803,1 0.38197,1 0.55,0 1.27811,-0.45 1.61803,-1 z m 22.5,-0.97856 c 0,-0.59841 0.95971,-0.54129 2.47039,0.14702 2.80574,1.27838 4.96141,0.11233 5.81307,-3.1444 0.63931,-2.44475 -2.53647,-5.39926 -4.9618,-4.61608 -3.58667,1.15821 -7.68454,5.20398 -7.02139,6.93212 0.67881,1.76897 3.69973,2.3253 3.69973,0.68134 z m -26.0087,-6.52682 c 0.52248,0.32291 2.29083,-0.10628 3.92967,-0.95375 C 472.55981,196.69339 474.82303,196 475.95034,196 477.07765,196 478,195.415 478,194.7 c 0,-2.32002 -2.31746,-3.7 -6.21357,-3.7 -2.09746,0 -4.74307,-0.5625 -5.87913,-1.25 -1.83645,-1.11135 -2.38956,-0.86596 -4.98643,2.21223 -1.60648,1.90422 -2.92087,3.97295 -2.92087,4.59718 0,1.7902 4.24203,3.32565 6.27067,2.26974 0.97386,-0.5069 2.19815,-0.65744 2.72063,-0.33453 z m 42.27227,-0.65005 c 1.23004,-0.63548 2.91143,-1.54669 3.73643,-2.0249 0.825,-0.47821 3.39386,-1.77108 5.70858,-2.87304 2.31472,-1.10197 4.45471,-2.40183 4.75554,-2.88858 0.30083,-0.48675 2.53306,-1.84645 4.9605,-3.02156 6.44323,-3.11911 7.49064,-4.73801 3.93909,-6.08831 -3.51363,-1.33588 -4.54182,-0.87496 -18.56603,8.32282 -5.40976,3.548 -7.79768,6.20098 -7.79768,8.66326 0,1.3519 0.49984,1.33816 3.26357,-0.0897 z m 54.33576,-2.11056 c 0.35017,-0.35017 -0.54728,-0.93383 -1.99432,-1.29701 -2.77322,-0.69603 -5.60501,0.8538 -5.60501,3.06761 0,1.00091 0.71523,1.01383 3.48133,0.0629 1.91473,-0.65825 3.76783,-1.48333 4.118,-1.83349 z m 25.82856,1.06548 c 1.19348,-1.70394 1.26269,-2.37746 0.3067,-2.98468 -2.02607,-1.28691 -5.48499,-0.92156 -7.16316,0.75662 -2.26015,2.26015 -1.94957,3.23844 1.17857,3.71232 1.5125,0.22912 3.06198,0.48401 3.4433,0.56642 0.38131,0.0824 1.38687,-0.8404 2.23459,-2.05068 z m -54.53539,-5.36781 c 0.21588,-0.21084 -0.16888,-1.05977 -0.855,-1.8865 -0.98927,-1.19199 -1.69154,-1.26823 -3.39251,-0.36828 -3.98408,2.10791 -8.62887,6.04016 -8.11561,6.87064 0.41621,0.67345 10.98935,-3.27411 12.36312,-4.61586 z M 483,190.97237 c 0,-0.50028 -0.67242,-0.65157 -1.49426,-0.3362 -0.82184,0.31537 -1.24074,0.98359 -0.9309,1.48493 0.64806,1.04858 2.42516,0.20682 2.42516,-1.14873 z m 90.00505,-0.97507 c 1.18698,-0.63525 2.09078,-0.65126 2.46629,-0.0437 1.38171,2.23566 8.78577,-3.12004 7.81406,-5.65227 -0.69122,-1.80129 -6.43589,-1.1558 -14.27147,1.6036 -5.62217,1.97992 -6.46635,3.27067 -2.42115,3.70196 1.44519,0.15408 2.87802,0.53056 3.18408,0.83662 0.75531,0.75531 1.06241,0.71285 3.22819,-0.44623 z m -25.46393,-5.06383 c 0.95501,-1.54523 0.37786,-1.81719 -4.5455,-2.1419 -3.54919,-0.23408 -4.49196,0.0535 -4.78155,1.45843 -0.30125,1.4615 0.3835,1.75 4.15359,1.75 2.48287,0 4.81092,-0.47994 5.17346,-1.06653 z m -42.33364,-1.37569 c 1.89845,-0.79323 4.09091,-2.21641 4.87213,-3.16263 1.23638,-1.49752 1.22607,-1.64297 -0.0796,-1.12275 -0.825,0.32871 -3.1875,1.14812 -5.25,1.82091 -2.0625,0.6728 -3.75,1.82704 -3.75,2.56498 0,1.6597 -0.006,1.65984 4.20748,-0.10051 z M 595,179.5 c 0,-0.825 0.7875,-1.50035 1.75,-1.50078 2.72712,-0.001 9.86935,-6.77987 8.54203,-8.10719 -1.82844,-1.82844 -4.68101,-0.13864 -8.57822,5.08152 C 592.75271,180.27929 592.42816,181 594,181 c 0.55,0 1,-0.675 1,-1.5 z m -40,-1.56657 c 0,1.4943 2.75072,0.15856 3.45546,-1.67797 0.90151,-2.34929 -0.62513,-3.30456 -3.88698,-2.4322 -1.90837,0.51037 -2.99908,1.52788 -3.22505,3.00862 -0.2987,1.95727 -0.0911,2.10347 1.65756,1.16759 1.29385,-0.69245 1.99901,-0.71575 1.99901,-0.066 z M 516,177 c 0,-0.55 -0.19844,-1 -0.44098,-1 -0.24254,0 -0.7191,0.45 -1.05902,1 -0.33992,0.55 -0.14148,1 0.44098,1 0.58246,0 1.05902,-0.45 1.05902,-1 z m 27.17126,-0.65499 c 2.61554,-2.36703 2.29958,-3.0341 -1.80151,-3.80347 -4.70611,-0.88287 -6.47935,0.69443 -3.80756,3.38683 2.41515,2.43378 3.30696,2.50003 5.60907,0.41664 z m -46.75103,-1.21593 c 0.29604,-0.47901 -0.32477,-1.86601 -1.37959,-3.08222 -1.05482,-1.21621 -2.20623,-3.5243 -2.5587,-5.12908 C 492.12947,165.313 491.23865,164 490.50233,164 c -0.73631,0 -2.04431,-0.27074 -2.90664,-0.60166 -1.06455,-0.4085 -1.87559,0.20765 -2.52635,1.91929 -0.52716,1.38652 -1.67667,2.92287 -2.55448,3.41412 -3.82169,2.13872 2.71505,7.0016 7.7223,5.74486 1.44146,-0.36178 2.8343,-0.17 3.21276,0.44236 0.8055,1.30332 2.23229,1.40425 2.97031,0.21011 z m 77.11189,-0.57805 c 4.25789,-1.77906 4.7767,-4.50952 0.71788,-3.77816 -3.33855,0.60157 -5.25,2.00315 -5.25,3.84957 0,1.71671 0.26244,1.71257 4.53212,-0.0714 z m -41.03705,-0.54916 c 1.44391,-0.54897 2.34664,-1.44897 2.00609,-2 -0.90623,-1.4663 -1.99347,-1.24024 -4.64038,0.96486 -2.5854,2.15386 -1.46555,2.5939 2.63429,1.03514 z m -29.0471,-4.91768 C 504.34146,167.63849 505.10406,158 504.32496,158 c -0.93122,0 -7.31043,4.36073 -7.31439,5 -0.002,0.275 0.88861,1.9625 1.97847,3.75 1.99766,3.27641 3.41731,4.01957 4.45893,2.33419 z M 543,168 c 0,-0.55 -0.9,-1 -2,-1 -1.1,0 -2,0.45 -2,1 0,0.55 0.9,1 2,1 1.1,0 2,-0.45 2,-1 z m 9.75,-0.75 c 0.28798,-0.86395 -0.84444,-1.25 -3.66667,-1.25 -3.69474,0 -4.96959,0.7804 -3.56666,2.18333 1.03185,1.03185 6.82755,0.28402 7.23333,-0.93333 z m -36.82874,-4.63172 c 0.86831,-0.75995 2.62282,-1.70029 3.89891,-2.08966 1.83837,-0.56093 2.43365,-0.274 2.86663,1.38172 0.30056,1.14931 0.99646,2.08966 1.54646,2.08966 0.55,0 0.76776,-0.8881 0.48391,-1.97355 -0.41952,-1.60423 0.12005,-2.09289 2.88337,-2.61129 4.01074,-0.75242 4.36166,-2.55468 0.93464,-4.80015 -3.27416,-2.14532 -5.5481,-2.03768 -11.45671,0.54228 -3.42606,1.49597 -5.12439,2.88955 -5.54013,4.54599 -1.03024,4.10479 1.27312,5.63671 4.38292,2.915 z M 541,160.11501 C 541,159.05686 536.52758,156 534.97942,156 c -0.60002,0 0.17165,1.11078 1.71482,2.4684 2.95499,2.59969 4.30576,3.11625 4.30576,1.64661 z M 510.5,150 c -0.33992,-0.55 -1.04148,-1 -1.55902,-1 -0.51754,0 -0.94098,0.45 -0.94098,1 0,0.55 0.70156,1 1.55902,1 0.85746,0 1.2809,-0.45 0.94098,-1 z M 504,140 c 0,-0.55 -0.19844,-1 -0.44098,-1 -0.24254,0 -0.7191,0.45 -1.05902,1 -0.33992,0.55 -0.14148,1 0.44098,1 0.58246,0 1.05902,-0.45 1.05902,-1 z m 17,-0.44098 c 0,-0.79254 -0.41891,-1.69988 -0.9309,-2.01631 -1.18889,-0.73478 -2.38461,1.13777 -1.5691,2.45729 0.91956,1.48787 2.5,1.20909 2.5,-0.44098 z m 42.72917,-0.16319 c -0.33229,-0.33229 -1.1948,-0.36781 -1.91667,-0.0789 -0.79773,0.31922 -0.56078,0.55618 0.60417,0.60416 1.05416,0.0434 1.64479,-0.19293 1.3125,-0.52522 z M 525.75525,91.5 c -0.32047,-1.676411 -0.0294,-2.5 0.88342,-2.5 1.80723,0 1.7444,-1.639023 -0.0898,-2.342874 -0.79813,-0.306269 -2.43303,0.238238 -3.63312,1.210015 -1.85179,1.499489 -2.00519,2.097215 -1.01369,3.949863 1.67461,3.129034 4.46801,2.89922 3.85319,-0.317004 z m 77.53659,-16.689073 c 1.71108,-2.291801 1.77477,-2.894514 0.56773,-5.372324 C 601.63483,64.871659 600,65.217954 600,70.256152 c 0,3.773268 -0.37544,4.59388 -2.55639,5.587586 -1.40601,0.640623 -2.30386,1.573362 -1.99522,2.072754 0.95169,1.539864 5.81188,-0.3845 7.84345,-3.105565 z M 658,76.559017 c 0,-0.242541 -0.45,-0.719098 -1,-1.059017 -0.55,-0.339919 -1,-0.141476 -1,0.440983 C 656,76.523442 656.45,77 657,77 c 0.55,0 1,-0.198442 1,-0.440983 z M 593.76793,67 c 0.68696,-1.1 1.9202,-2 2.74054,-2 2.03002,0 1.8902,-1.909787 -0.1985,-2.711295 -0.98936,-0.379653 -1.86878,-0.112271 -2.12118,0.644932 -0.23714,0.711401 -1.27662,2.017369 -2.30997,2.902151 C 590.84547,66.720569 590,67.794473 590,68.222241 590,69.776859 592.55041,68.949557 593.76793,67 Z M 235.02224,581.25 c 0.0122,-0.4125 0.84377,-1.81833 1.84788,-3.12406 l 1.82564,-2.37406 27.28909,-0.40158 c 15.009,-0.22086 27.64091,-0.61901 28.07092,-0.88477 0.43001,-0.26576 8.46837,-0.74212 17.86303,-1.05858 12.18568,-0.41049 17.0812,-0.25756 17.0812,0.53358 0,1.51384 -4.442,3.08504 -8.3151,2.94116 L 317.5,576.76337 320.5,576 c 2.21185,-0.56282 2.47456,-0.82558 1,-1.00017 -2.73056,-0.32329 -4.90025,0.0508 -5.5,0.94828 -0.43144,0.64562 -8.47992,1.55108 -23.5,2.64377 -2.2,0.16005 -10.75,0.5485 -19,0.86323 -8.25,0.31472 -17.925,0.73238 -21.5,0.92813 -3.575,0.19575 -6.96532,-0.01 -7.53404,-0.45688 -1.34788,-1.05947 -4.17266,-0.61966 -5.67608,0.88376 -1.32052,1.32052 -3.80234,1.61028 -3.76764,0.43988 z m 45.24466,-9.64039 c -2.10854,-1.18 -20.11277,-1.60439 -26.54722,-0.62576 -2.62918,0.39988 -5.01926,0.34044 -5.31129,-0.13207 -0.29203,-0.47252 -1.62838,-0.58369 -2.96968,-0.24704 -2.82239,0.70837 -3.07329,-0.25374 -0.88201,-3.38223 1.18302,-1.68899 2.56332,-2.22693 5.75,-2.24094 2.30632,-0.0101 7.95221,-0.68318 12.54643,-1.49567 4.59422,-0.81249 10.89422,-1.4126 14,-1.33358 3.10578,0.079 8.57187,-0.42058 12.14687,-1.11023 8.16139,-1.57439 71.68801,-2.35592 72.59211,-0.89304 0.33449,0.5412 0.4506,1.14004 0.25803,1.33074 -0.31735,0.31426 -17.25251,1.76342 -20.85014,1.78417 -0.825,0.005 -2.00449,0.40427 -2.62109,0.88781 -0.6166,0.48353 -2.10518,0.51512 -3.30795,0.0702 -2.36247,-0.87393 -25.17675,0.93918 -33.95745,2.69869 -2.96257,0.59365 -5.55007,1.07936 -5.75,1.07936 -0.19993,0 -0.36351,0.66643 -0.36351,1.48095 0,2.28105 -11.49347,3.94165 -14.7331,2.12866 z m 35.70644,-0.83672 C 313.513,570.34754 310.825,570.25129 310,570.55901 c -1.16243,0.43357 -1.23199,0.28939 -0.30908,-0.64068 C 311.00534,568.5937 330,567.02541 330,568.24151 330,568.65868 329.325,569 328.5,569 c -0.825,0 -1.5,0.40077 -1.5,0.89059 0,1.30279 -5.87519,1.77289 -11.02666,0.8823 z m 15.83916,-2.456 c 0.72187,-0.28887 1.58438,-0.25335 1.91667,0.0789 0.33229,0.33229 -0.25834,0.56864 -1.3125,0.52522 -1.16495,-0.048 -1.4019,-0.28494 -0.60417,-0.60416 z" id="path12"/>
</svg>
