<?xml version="1.0" encoding="utf-8"?>

<svg xmlns="http://www.w3.org/2000/svg" version="1.1" viewBox="0 0 516 584">











	<path d="m 202.5,564.88937 c -6.05,-0.34921 -16.10514,-0.69218 -22.34476,-0.76215 -7.77898,-0.0872 -13.43658,-0.72158 -18,-2.01821 -6.49402,-1.84519 -17.64811,-4.05413 -21.65524,-4.28858 -2.45355,-0.14355 -11.10087,-2.28344 -14.5,-3.5882 -1.375,-0.5278 -4.74044,-1.28898 -7.47875,-1.69151 -2.73831,-0.40253 -6.91678,-1.81386 -9.28548,-3.1363 C 106.52826,547.89284 103.31235,547 100.5753,547 97.880461,547 95.436506,546.3332 94.161189,545.25 92.08894,543.48992 88,532.76553 88,529.09056 c 0,-1.08489 -0.40028,-2.21991 -0.889512,-2.52227 -0.489232,-0.30237 -1.103106,-2.01642 -1.364166,-3.80902 -0.26106,-1.7926 -1.22412,-6.61461 -2.140133,-10.71557 -0.916013,-4.10097 -1.870997,-9.8715 -2.122185,-12.82341 -0.251189,-2.95191 -0.694684,-5.75216 -0.985544,-6.22278 -0.290861,-0.47062 -0.775384,-3.92509 -1.076718,-7.67659 C 78.89515,478.76502 77.103881,466.5913 74.960254,455 c -0.559425,-3.025 -1.220645,-10.675 -1.469377,-17 -0.248731,-6.325 -0.729425,-12.77273 -1.068208,-14.32829 -1.030329,-4.73086 -1.33509,-7.86378 -1.474836,-15.16124 -0.07362,-3.84424 -0.543213,-7.75443 -1.043546,-8.68931 C 69.335859,398.75904 69.371765,397.88827 70,397.5 c 0.664969,-0.41097 0.632531,-1.31811 -0.0958,-2.679 -0.707441,-1.32187 -1.000736,-7.82595 -0.820227,-18.18931 C 69.238513,367.75926 69.334004,358.475 69.296176,356 69.258349,353.525 68.974877,336.09945 68.66624,317.27655 68.320019,296.16152 68.467981,282.82881 69.05254,282.46753 69.573643,282.14547 70,279.61098 70,276.83533 c 0,-2.77565 0.651883,-7.5866 1.448629,-10.69099 1.657133,-6.45674 2.513498,-10.43786 3.10956,-14.45588 0.229396,-1.54635 1.772647,-5.74025 3.429447,-9.31977 C 79.644436,238.78916 81,235.24861 81,234.5008 81,231.4017 90.044636,214.27034 93.40743,211 c 1.979421,-1.925 5.285012,-5.24063 7.34576,-7.36807 2.06074,-2.12743 6.44681,-5.91157 9.74681,-8.40919 12.89032,-9.75609 23.36227,-22.40784 25.0156,-30.22274 0.17454,-0.825 0.77513,-3.3 1.33464,-5.5 0.55951,-2.2 1.75936,-6.925 2.66632,-10.5 1.20875,-4.76455 1.48269,-8.63594 1.02601,-14.5 -0.75426,-9.6854 -2.07126,-15.8429 -3.48967,-16.3157 -0.57909,-0.19303 -1.0529,-1.18081 -1.0529,-2.19505 0,-1.01425 -1.0125,-2.66617 -2.25,-3.67094 -1.2375,-1.00476 -3.87559,-3.84992 -5.86243,-6.32258 -2.24768,-2.79727 -5.08113,-5.01317 -7.5,-5.86537 C 118.24941,99.377062 115.6,97.99407 114.5,97.057048 c -1.1,-0.937023 -3.3191,-1.784898 -4.93134,-1.884169 -1.61223,-0.09927 -3.89258,-0.810323 -5.06743,-1.580116 -1.17485,-0.769793 -5.2209,-2.352423 -8.991216,-3.516955 -3.770316,-1.164532 -7.339971,-2.495821 -7.932567,-2.95842 C 86.443559,86.232239 79.568752,85.106009 72,84.565493 c -2.475,-0.17675 -6.624635,-0.660696 -9.221411,-1.075434 -4.399721,-0.702692 -5.217331,-0.460547 -12,3.55395 -4.003224,2.369412 -8.786581,5.411414 -10.629683,6.760005 C 37.097115,96.037 36.450103,96.151822 32.904731,95.089603 28.846683,93.873782 26,90.124174 26,85.994796 26,80.324288 37.803899,64 41.904176,64 42.841096,64 45.134217,62.425 47,60.5 48.914959,58.524264 51.380887,57 52.66224,57 53.910688,57 56.409913,56.369764 58.216073,55.599475 62.839368,53.627738 76.47089,50.733777 83,50.337868 c 6.758844,-0.409839 41.37855,-1.268061 57,-1.413029 6.325,-0.0587 16.9,0.391569 23.5,1.00059 6.6,0.60902 16.275,1.302365 21.5,1.540766 5.225,0.238401 11.075,0.67425 13,0.968553 1.925,0.294303 15.875,0.960055 31,1.479448 59.95949,2.059014 56.23902,1.665399 69.5,7.352891 3.85,1.651224 8.35,3.580955 10,4.288292 1.65,0.707338 4.92737,1.570695 7.28305,1.918573 2.35568,0.347877 5.81672,1.537385 7.69119,2.643351 l 3.40813,2.010846 1.6448,-3.180685 c 1.55966,-3.01606 8.58541,-10.240688 19.18759,-19.730748 5.57172,-4.987263 11.99709,-9.111473 19.64662,-12.610445 2.9941,-1.369528 6.07412,-3.389945 6.8445,-4.489815 1.2562,-1.793482 2.83933,-2.048907 15.3474,-2.476177 12.39934,-0.423555 14.40899,-0.258191 18.11324,1.490449 5.26396,2.484922 15.72118,12.416566 15.01401,14.259415 -0.28833,0.751381 -0.1078,1.782582 0.40117,2.291559 0.50898,0.508976 1.61963,3.590691 2.46812,6.848255 1.91572,7.354936 1.29369,20.272374 -2.08835,43.367867 C 421.71848,109.8005 413.91478,134.80903 404.08302,160 c -3.32722,8.525 -6.05703,15.8177 -6.06625,16.20599 -0.009,0.3883 -1.42174,3.0883 -3.13892,6 -1.71719,2.91171 -6.00605,10.91901 -9.53082,17.79401 -3.52476,6.875 -7.8326,14.975 -9.57298,18 -1.74037,3.025 -5.49149,10 -8.33581,15.5 -2.84432,5.5 -7.92806,15.33626 -11.29719,21.85836 -3.36913,6.5221 -6.63237,13.7221 -7.25163,16 -0.61926,2.2779 -2.15799,6.84164 -3.4194,10.14164 -7.38163,19.31124 -7.99772,55.55816 -1.10454,64.98514 1.02024,1.39527 2.09176,1.65166 4.78836,1.14578 4.04579,-0.759 10.40512,-6.73192 9.54734,-8.96724 -0.30986,-0.80748 -0.33598,-1.69555 -0.058,-1.97349 0.93037,-0.93036 1.3059,-18.17184 0.4266,-19.58591 -0.48136,-0.77411 -1.58644,-1.11998 -2.48128,-0.7766 -1.34647,0.51669 -1.52549,1.78161 -1.08207,7.64572 0.53218,7.03788 -0.0931,8.31096 -3.07535,6.26129 C 350.5374,328.9332 347,320.46514 347,317.2335 c 0,-9.73964 4.34885,-20.82692 9.32119,-23.76416 6.06098,-3.58031 18.91125,-0.94368 23.84855,4.89327 0.99437,1.17556 3.0395,4.16239 4.54472,6.63739 2.51711,4.13883 2.74607,5.38287 2.85273,15.5 0.0947,8.97918 -0.22234,11.60265 -1.72561,14.28042 -1.01287,1.80423 -1.84158,3.72574 -1.84158,4.27003 0,0.54429 -1.84416,4.83529 -4.09814,9.53554 -3.66257,7.6376 -4.89182,9.17663 -11.56551,14.47996 -4.10706,3.26373 -8.28294,5.93405 -9.27974,5.93405 -0.9968,0 -3.52069,0.71378 -5.60864,1.58618 -3.31968,1.38706 -4.55508,1.41844 -9.84065,0.25 -8.69677,-1.92253 -19.42211,-9.75533 -22.0852,-16.12899 -0.74636,-1.78629 -2.30817,-4.10858 -3.47069,-5.16065 -1.8316,-1.65757 -2.29945,-1.72159 -3.50563,-0.4797 -1.25859,1.29585 -2.90125,12.20671 -4.16862,27.68878 -0.23663,2.89059 -1.33721,9.41559 -2.44575,14.5 -1.10854,5.08441 -2.87146,13.51938 -3.91761,18.74438 -1.04615,5.225 -2.14799,10.625 -2.44854,12 -0.30054,1.375 -1.47232,7.45 -2.60394,13.5 -1.13163,6.05 -2.47806,12.8 -2.99207,15 -0.51402,2.2 -1.61013,7.375 -2.43582,11.5 -0.82568,4.125 -1.93873,9.075 -2.47344,11 -0.53472,1.925 -1.20349,4.625 -1.48616,6 -0.94479,4.59578 -4.0922,15.48689 -4.79166,16.58081 -1.18583,1.85454 -6.97268,28.64858 -8.18962,37.91919 -0.21659,1.65 -0.71272,4.68275 -1.1025,6.73944 -0.52176,2.75312 -0.35016,3.85681 0.65062,4.18443 0.74762,0.24475 9.45931,0.69887 19.35931,1.00915 9.9,0.31028 19.125,0.67728 20.5,0.81556 3.30102,0.33198 3.36495,-2.45422 0.0741,-3.23108 -1.33422,-0.31497 -2.60922,-1.12275 -2.83333,-1.79508 -0.73298,-2.19894 9.42551,-1.5561 11.72348,0.74187 1.72873,1.72873 2.14066,1.7879 3.43513,0.49343 1.65227,-1.65227 9.75998,-2.59527 11.74828,-1.36643 1.89049,1.16838 0.33215,2.22671 -3.13361,2.12817 -3.74304,-0.10642 -3.94789,1.32936 -0.31959,2.24 2.01957,0.50688 3.08414,0.18761 4.25,-1.27457 1.40352,-1.76023 10.3467,-4.64153 12.6315,-4.06959 0.5082,0.12721 3.399,-0.0926 6.424,-0.48839 3.025,-0.39582 9.55,-0.88499 14.5,-1.08703 4.95,-0.20204 9.5625,-0.40617 10.25,-0.45361 0.6875,-0.0475 1.25,-0.51548 1.25,-1.04008 0,-0.57502 -3.83774,-0.748 -9.6638,-0.43558 -5.31509,0.28502 -23.65439,0.62399 -40.754,0.75327 l -31.09021,0.23504 2.25701,-2.25702 c 1.80933,-1.80933 3.00024,-2.14959 6.00401,-1.71547 7.27657,1.05165 64.91364,1.16884 77.24699,0.15706 10.8261,-0.88814 17.0969,-1.2292 31.5,-1.71329 3.21239,-0.10796 6.31913,-1.5844 5.35746,-2.54607 -1.20059,-1.20059 -14.42268,-2.14395 -16.85746,-1.20273 -0.825,0.31892 -9.6,0.46602 -19.5,0.32688 -9.9,-0.13913 -22.05829,0.0866 -27.01841,0.50174 C 344.31184,530.75424 324,531.19604 324,530.00878 c 0,-0.68848 -0.79589,-0.89095 -2,-0.50878 -1.33561,0.42391 -2,0.1797 -2,-0.73513 0,-1.88056 8.49116,-3.76784 19.5,-4.33417 4.95,-0.25464 13.275,-0.85032 18.5,-1.32374 5.225,-0.47342 18.725,-0.76496 30,-0.64788 16.24297,0.16868 21.12298,0.5347 23.5,1.76263 2.05493,1.06154 4.61019,1.39235 8.11134,1.05011 5.44108,-0.53186 10.73021,1.67454 9.80346,4.0896 -0.28702,0.74797 1.26438,1.67288 4.06035,2.42069 2.82406,0.75532 4.52485,1.77547 4.52485,2.71405 0,0.82711 0.45,1.50384 1,1.50384 0.55,0 1,-0.45 1,-1 0,-0.55 1.43601,-1 3.19113,-1 3.02058,0 3.08739,0.0785 1.25,1.4682 -1.91571,1.44897 -1.91494,1.47 0.0589,1.60596 1.1,0.0758 3.229,0.0571 4.73111,-0.0416 3.25726,-0.2139 6.76889,0.78038 6.76889,1.91653 0,0.44789 -3.9375,1.10919 -8.75,1.46956 -22.36104,1.67447 -25.27045,2.21459 -22.1887,4.11922 1.7005,1.05096 28.09216,0.65946 35.36146,-0.52457 3.25752,-0.53059 6.96467,-0.7032 8.23811,-0.38359 2.1845,0.54828 5.06052,0.77572 15.08913,1.1933 L 488,545 l -0.0153,4.25 c -0.008,2.3375 -0.34592,4.7474 -0.75,5.35532 -0.4442,0.66829 -6.27026,1.3411 -14.73469,1.70162 -7.7,0.32795 -14.9,0.79306 -16,1.03357 -1.1,0.24051 -8.75,0.73048 -17,1.08884 -18.28241,0.79413 -24.25379,1.28397 -36.45558,2.99048 -5.20057,0.72734 -13.72661,1.40859 -18.94674,1.51388 -5.22013,0.10529 -9.92126,0.45726 -10.44695,0.78215 -1.33431,0.82465 -66.29243,0.62361 -67.64018,-0.20934 -0.60391,-0.37323 -8.35371,-0.63836 -17.22178,-0.58916 -13.38719,0.0743 -16.42043,-0.17903 -17.87171,-1.49242 -1.59788,-1.44606 -1.98822,-1.42489 -4.54688,0.2466 -1.58172,1.03329 -4.77142,1.86896 -7.33456,1.92158 -8.7767,0.1802 -44.48876,1.56721 -45.00907,1.7481 -0.2896,0.10069 -5.47655,-0.10265 -11.52655,-0.45185 z M 354,558 c 0,-0.55 -1.15156,-1 -2.55902,-1 -1.45136,0 -2.2915,0.43284 -1.94098,1 0.33992,0.55 1.49148,1 2.55902,1 1.06754,0 1.94098,-0.45 1.94098,-1 z m 20.75,0.36971 c 4.95389,-1.32759 1.78653,-2.357 -6,-1.95003 -12.13153,0.63406 -12.93933,0.85608 -5.75,1.58032 3.575,0.36014 7.175,0.72633 8,0.81375 0.825,0.0874 2.5125,-0.1124 3.75,-0.44404 z M 392,556.61915 c 4.57942,-0.45679 29.44774,-1.92469 35.15964,-2.07537 0.91281,-0.0241 2.03781,-0.43012 2.5,-0.9023 0.89371,-0.91303 -31.05891,-0.22708 -36.15964,0.77626 -1.65,0.32457 -5.5875,0.87585 -8.75,1.22508 -3.1625,0.34923 -5.75,0.99234 -5.75,1.42914 0,0.76812 1.16728,0.72746 13,-0.45281 z m -103.20687,-4.1125 C 287.72298,551.60757 274,551.03713 274,551.89173 c 0,0.55706 2.8125,1.14681 6.25,1.31055 5.62744,0.26806 9.33121,-0.0335 8.54313,-0.69563 z M 305,553 c 0,-0.55 -0.70156,-1 -1.55902,-1 -0.85746,0 -1.2809,0.45 -0.94098,1 0.33992,0.55 1.04148,1 1.55902,1 0.51754,0 0.94098,-0.45 0.94098,-1 z m 149.5,-2.07195 c 0,-1.57272 -2.55363,-1.66541 -11.25,-0.40835 -2.8875,0.41738 -5.25,1.12374 -5.25,1.56969 0,0.99454 10.55491,1.62683 14,0.83866 1.375,-0.31457 2.5,-1.21457 2.5,-2 z m -238.17088,1.08897 c 4.57766,0.054 4.79281,-0.0621 4.13172,-2.23004 -0.38357,-1.25784 -1.39142,-3.07724 -2.23966,-4.04311 -1.7633,-2.00783 -1.80607,-1.93777 2.52882,-4.14237 4.39597,-2.23567 4.24761,-4.01124 -0.26442,-3.16477 -4.00327,0.75102 -9.03168,-1.59299 -9.81109,-4.57348 -0.60707,-2.32146 0.4099,-2.99189 8.82551,-5.81813 3.85,-1.29296 7.53575,-2.76495 8.19056,-3.27109 1.88188,-1.45462 0.35341,-3.76633 -2.54755,-3.85298 -1.45365,-0.0434 -2.08051,-0.30592 -1.39301,-0.58333 0.6875,-0.27741 1.25,-1.61844 1.25,-2.98007 0,-1.38264 0.43802,-2.20497 0.99208,-1.86254 0.54564,0.33722 1.78314,0.13544 2.75,-0.4484 1.48843,-0.89881 1.34214,-1.0151 -0.95427,-0.7586 -1.4917,0.16661 -3.0292,0.61995 -3.41666,1.00741 C 223.98368,515.68298 220.77917,516 217.25,516 c -8.23549,0 -8.09677,-2.1836 0.20517,-3.22936 6.76157,-0.85172 9.17612,-2.30506 7.39504,-4.45113 -0.86643,-1.04398 -3.36916,-1.36676 -9.54238,-1.2307 -4.60236,0.10144 -8.53769,0.0104 -8.74519,-0.20219 -0.20749,-0.21264 -0.53147,-1.94219 -0.71995,-3.84343 L 205.5,499.58638 211,499.34013 c 3.025,-0.13543 8.64805,-1.39237 12.49567,-2.79319 3.84761,-1.40082 7.11011,-2.54694 7.25,-2.54694 1.19928,0 -0.24481,-1.92917 -2.24567,-3 -1.375,-0.73588 -2.5,-1.84652 -2.5,-2.46809 C 226,486.81876 219.97581,485 214.30145,485 c -5.9865,0 -8.67111,-2.05891 -6.07269,-4.65733 1.40927,-1.40927 1.76612,-1.34779 3.76207,0.64816 1.67124,1.67124 2.96823,2.07479 5.35714,1.66684 4.90593,-0.83778 15.98701,-4.08731 17.65203,-5.17646 0.825,-0.53967 2.58377,-0.98121 3.90837,-0.98121 1.3246,0 2.59952,-0.56226 2.83315,-1.24947 0.54893,-1.61461 -2.23563,-2.68011 -4.49152,-1.71867 -1.81258,0.7725 -4.26871,1.34738 -7.8005,1.82576 -1.12777,0.15276 -2.69486,0.67599 -3.48242,1.16272 -0.78755,0.48674 -2.11483,0.94656 -2.9495,1.02184 -0.83467,0.0753 -2.96289,0.46605 -4.72938,0.8684 -1.79158,0.40807 -4.00253,0.28767 -5,-0.27226 -2.04059,-1.1455 -1.85009,-1.26001 5.7118,-3.43309 2.475,-0.71125 4.3875,-1.72339 4.25,-2.2492 -0.1375,-0.52582 -0.5875,-0.96124 -1,-0.9676 -3.30984,-0.0511 -16.24544,-7.34202 -16.24821,-9.15806 -0.002,-1.19479 6.712,-3.68569 12.99821,-4.82248 5.75501,-1.04073 9,-2.64696 9,-4.4549 0,-2.14312 -4.56812,-6.5608 -5.39715,-5.21941 -1.67671,2.71297 -18.32983,-5.14532 -17.32394,-8.17483 0.2116,-0.63731 2.71529,-1.44769 5.56375,-1.80084 2.84846,-0.35316 6.22708,-1.32881 7.50804,-2.16813 1.28096,-0.83932 3.54007,-1.67537 5.02025,-1.8579 4.1335,-0.50974 2.65449,-2.19748 -2.10132,-2.39788 C 216.60566,431.23748 212,428.77454 212,426.47695 c 0,-1.36442 3.0704,-2.04837 6.85606,-1.52724 0.74584,0.10267 1.17145,-0.36719 0.9458,-1.04414 -0.22565,-0.67695 -1.21122,-1.34838 -2.19015,-1.49205 -1.71037,-0.25103 -4.51385,-3.10569 -4.57991,-4.66352 -0.0376,-0.88665 1.15972,-1.05255 6.25267,-0.86637 5.02695,0.18377 8.71553,-3.33022 8.71553,-8.30299 0,-4.40631 -1.9441,-5.55655 -10.28849,-6.08728 -9.35652,-0.5951 -11.73547,-1.08875 -13.43449,-2.78777 -2.18147,-2.18147 -0.88675,-4.69778 2.4416,-4.74528 1.52976,-0.0218 6.06455,-0.61575 10.07732,-1.31982 7.15438,-1.25528 7.2902,-1.23996 7,0.78969 -0.33876,2.3693 -6.02253,3.80266 -9.12408,2.30096 -1.00548,-0.48683 -2.58048,-0.59336 -3.5,-0.23672 -1.5121,0.58646 -1.48637,0.78493 0.26927,2.077 2.29512,1.6891 7.31304,1.85274 11.22342,0.36602 3.33016,-1.26613 4.2944,-2.58666 4.33545,-5.93744 0.0168,-1.375 0.46105,-3.175 0.98712,-4 0.80445,-1.26155 1.23801,-1.10258 2.72739,1 0.97398,1.375 1.77417,2.815 1.77819,3.2 0.0169,1.61766 2.20038,2.69302 4.3348,2.13486 l 2.29301,-0.59964 -2.74735,-2.86761 C 234.19707,389.59626 233.97661,389 235.31291,389 c 0.9279,0 1.68709,0.675 1.68709,1.5 0,2.23117 1.79881,1.82013 4.42212,-1.01047 1.46083,-1.57626 3.21066,-2.41354 4.70225,-2.25 2.21073,0.24239 2.41647,-0.156 2.96402,-5.73953 0.62195,-6.34221 -0.39809,-9.70152 -1.4098,-4.64294 -0.58824,2.94118 -0.70321,2.98964 -8.3875,3.5352 -4.2851,0.30424 -11.99386,0.63933 -17.13058,0.74466 -9.94341,0.20389 -11.38792,-0.4212 -10.39351,-4.49762 0.87958,-3.6057 2.30786,-4.63443 6.60544,-4.75761 2.27016,-0.0651 5.47756,-0.41345 7.12756,-0.77417 2.6343,-0.5759 2.97698,-1.04908 2.81117,-3.88169 -0.10386,-1.7742 0.23364,-3.22583 0.75,-3.22583 0.51636,0 0.93883,0.45 0.93883,1 0,1.29694 3.70306,5 5,5 0.55,0 1,-0.64913 1,-1.4425 0,-0.98216 1.35629,-1.54064 4.25,-1.75 3.82722,-0.27691 4.28206,-0.58708 4.57226,-3.11797 0.17724,-1.54576 -0.20548,-3.44635 -0.85049,-4.22354 -1.60771,-1.93718 -7.82978,-3.00798 -9.24647,-1.59129 -0.61891,0.61891 -1.87668,1.1253 -2.79503,1.1253 -2.68601,0 -13.26182,-3.62289 -16.72652,-5.7299 l -3.18641,-1.93777 2.24133,-2.0412 c 3.02113,-2.75138 5.59304,-3.99088 9.58562,-4.61968 3.82118,-0.6018 3.89081,-0.64631 4.17912,-2.67145 0.68009,-4.77697 -0.0178,-5.92148 -4.27341,-7.00823 -6.60885,-1.6877 -9.75,-3.12396 -9.75,-4.4581 0,-2.44534 3.79142,-4.61567 8.54583,-4.8919 5.41055,-0.31435 6.26623,-1.41236 6.38388,-8.19177 0.0734,-4.22973 -1.25255,-6.43936 -3.87971,-6.46531 -0.8525,-0.008 -2.225,-0.45842 -3.05,-1 -1.33333,-0.87528 -1.33333,-1.0958 0,-1.98469 1.31663,-0.87775 1.32017,-1.1156 0.029,-1.94563 -1.89565,-1.21858 -1.24988,-1.78551 2.47104,-2.16933 1.65,-0.1702 3.54279,-0.7027 4.2062,-1.18334 0.6634,-0.48063 1.77496,-0.52236 2.47012,-0.0927 3.88393,2.4004 12.24832,-0.49484 10.34177,-3.5797 -0.64019,-1.03585 -6.65782,-0.8477 -12.36945,0.38674 -1.29325,0.27951 -5.34325,-0.19151 -9,-1.0467 -3.65675,-0.8552 -7.47209,-1.71923 -8.47853,-1.92007 -1.00643,-0.20085 -2.58143,-0.56726 -3.5,-0.81426 -0.91856,-0.247 -2.90761,-0.72449 -4.42011,-1.06109 -1.86856,-0.41583 -2.75,-1.24694 -2.75,-2.59294 0,-2.43015 0.35814,-2.4365 7.74528,-0.13736 7.90441,2.46013 20.04544,2.86535 20.87759,0.69682 0.70243,-1.83051 -1.42204,-4.78839 -3.02296,-4.20884 -0.60495,0.219 -1.84016,0.0184 -2.7449,-0.44568 -1.08248,-0.5553 -2.06161,-0.34188 -2.86331,0.62411 -0.67007,0.80739 -1.65925,1.19546 -2.19817,0.86239 -0.53893,-0.33307 -2.64656,-0.58258 -4.68363,-0.55447 -3.70513,0.0511 -8.37227,-1.67139 -5.1099,-1.88594 0.825,-0.0543 2.4,-0.23569 3.5,-0.40318 1.1,-0.16749 4.7,-0.64518 8,-1.06153 9.40731,-1.18689 10.15267,-1.66543 10.95794,-7.03537 0.42299,-2.82071 0.31029,-4.95696 -0.28077,-5.32203 -0.54308,-0.33543 -8.11761,-0.49332 -16.83229,-0.35088 -25.98841,0.42479 -33.1325,0.25258 -48.34488,-1.16532 -7.975,-0.74333 -20.57413,-1.44843 -27.99807,-1.56689 -7.42393,-0.11845 -13.72393,-0.35344 -14,-0.52218 -0.27606,-0.16875 -2.08624,-0.55747 -4.02262,-0.86382 -10.61604,-1.67955 -22.135208,-5.46598 -23.539044,-7.73743 -0.719035,-1.16342 1.442296,-3.09396 2.637119,-2.35552 3.054155,1.88757 29.580075,3.04212 52.922615,2.30347 11.275,-0.35678 29.725,-0.92366 41,-1.25973 20.35155,-0.60662 33.66213,-1.3384 37.5,-2.06165 1.1,-0.20729 3.275,-0.41133 4.83333,-0.45341 4.23374,-0.11433 2.72589,-2.50249 -1.60547,-2.54277 -1.99538,-0.0186 -4.19044,-0.59624 -4.87791,-1.28374 -0.99994,-0.99998 -0.84326,-1.25 0.78338,-1.25 1.11834,0 2.3708,-0.3375 2.78325,-0.75 0.41245,-0.4125 2.78299,-0.76267 5.26787,-0.77816 5.69216,-0.0355 6.91471,-1.60856 6.68555,-8.60248 -0.12703,-3.87691 -0.59392,-5.45424 -1.67973,-5.67473 -0.82709,-0.16795 -1.87636,0.28205 -2.33172,1 -0.82962,1.30804 -1.00077,1.85086 -1.23355,3.91236 -0.0687,0.60884 -0.7454,0.86892 -1.50366,0.57794 -0.75827,-0.29097 -2.98507,-0.16674 -4.94846,0.27608 -2.31351,0.52178 -4.37974,0.3883 -5.87133,-0.37929 -1.50502,-0.77451 -4.72412,-0.97374 -9.30155,-0.57569 -11.63588,1.01187 -31.7877,0.62866 -32.20176,-0.61235 -0.25681,-0.76969 3.36904,-1.0953 11.91632,-1.07011 6.75699,0.0199 14.31044,-0.27285 16.78544,-0.6506 10.3223,-1.57544 15.87972,-2.68785 22.5,-4.50375 5.80637,-1.59265 7.0578,-2.3076 7.33896,-4.19276 0.32158,-2.15618 0.10369,-2.24045 -4.25,-1.64371 -3.90253,0.5349 -4.60621,0.37008 -4.70431,-1.10188 -0.0634,-0.95198 -0.17594,-2.40587 -0.25,-3.23087 C 234.48292,222.30969 229,221.26108 229,222.92238 c 0,1.65118 -5.2065,0.90404 -8.26096,-1.18546 -2.36126,-1.61529 -4.35127,-1.85202 -13.74591,-1.63522 -6.13837,0.14165 -11.09704,-0.15576 -11.23903,-0.6741 -0.13976,-0.51018 3.1209,-1.02802 7.2459,-1.15075 9.62025,-0.28623 31.68217,-2.21766 33.55928,-2.93797 2.72858,-1.04706 1.43273,-2.21341 -2.40039,-2.16051 -5.81383,0.0802 -14.22607,-1.26065 -13.65955,-2.1773 0.27567,-0.44604 2.3235,-0.63547 4.55074,-0.42094 2.49527,0.24035 3.81585,0.012 3.44071,-0.59504 C 228.15593,209.44329 225.62102,209 222.85765,209 c -3.57532,0 -4.90398,-0.3605 -4.60707,-1.25 0.22949,-0.6875 1.72949,-1.17654 3.33334,-1.08675 14.08679,0.78864 20.26692,0.64118 23.14836,-0.55236 2.72312,-1.12795 3.0633,-1.62433 2.20819,-3.22213 C 246.38451,201.84994 245.07202,201 244.02383,201 c -1.04819,0 -2.14863,-0.39291 -2.44543,-0.87314 -0.2968,-0.48023 -4.03585,-0.70238 -8.30902,-0.49367 -11.10704,0.5425 -22.97819,0.41578 -24.75018,-0.2642 -2.10454,-0.80759 -1.93304,-5.10452 0.2308,-5.78266 0.9625,-0.30165 6.925,-0.78481 13.25,-1.0737 12.57198,-0.57421 20.80585,-1.2977 22.75,-1.99897 1.75355,-0.63253 1.56296,-4.47866 -0.25,-5.04504 -0.825,-0.25774 -2.2875,-0.73381 -3.25,-1.05792 -0.9625,-0.32412 -5.125,-0.58576 -9.25,-0.58143 -9.33649,0.01 -16.8266,-1.63676 -18.07744,-3.97397 -1.27945,-2.39067 1.55183,-3.8553 7.45268,-3.8553 4.65095,0 6.9239,1.56304 4.50288,3.09649 -0.75797,0.48009 -1.15312,0.93721 -0.87812,1.01582 1.31676,0.37643 4.7933,0.70437 7.5,0.70747 1.65,0.002 5.09842,0.0196 7.66315,0.0393 3.22707,0.0249 4.83869,-0.42153 5.23314,-1.44946 0.80727,-2.10372 -0.92004,-2.49463 -9.1994,-2.08195 -7.35076,0.3664 -9.66783,-0.40516 -6.51516,-2.16948 2.52889,-1.41524 0.19081,-3.79546 -4.46677,-4.54726 -7.90626,-1.2762 -9.35295,-1.61446 -11.25234,-2.63099 -4.10378,-2.19627 -1.25536,-3.70841 5.8242,-3.09189 1.25774,0.10953 3.40849,-0.68317 4.77943,-1.76155 1.37095,-1.07839 4.39188,-2.29818 6.71319,-2.71066 3.81353,-0.67764 3.97946,-0.82068 1.72056,-1.48325 -1.375,-0.4033 -3.9625,-0.77814 -5.75,-0.83296 C 223.2831,157.97801 222.56254,155 226.5,155 c 1.375,0 2.5,-0.45 2.5,-1 0,-0.55 -0.5625,-0.99875 -1.25,-0.99722 -1.6265,0.004 -10.03324,-4.20775 -10.98469,-5.50278 -1.61195,-2.19407 -0.44394,-2.5313 7.22397,-2.0857 5.98546,0.34783 8.33834,0.11523 9.38096,-0.92739 0.76541,-0.76542 1.73184,-1.0756 2.14762,-0.68929 0.41577,0.38631 0.56462,0.0882 0.33077,-0.66244 -0.45158,-1.44956 -7.39735,-4.54058 -14.84863,-6.60796 -2.57493,-0.71443 -4.5,-1.84289 -4.5,-2.63788 0,-1.10201 1.70621,-1.31643 8.25,-1.03679 9.84638,0.42077 10.88574,-1.01817 2.13732,-2.959 -4.79565,-1.06392 -6.30226,-1.85473 -6.99257,-3.67037 -0.48393,-1.27285 -1.44573,-2.2228 -2.13732,-2.111 -0.69158,0.11179 -1.93243,-0.0396 -2.75743,-0.33634 -0.825,-0.29678 -3.26582,-0.93025 -5.42405,-1.40772 -4.10039,-0.90713 -6.07782,-3.27931 -2.90928,-3.49006 1.00833,-0.0671 -0.67652,-0.49119 -3.74412,-0.94249 -3.0676,-0.45129 -6.16135,-0.95892 -6.875,-1.12805 -0.71365,-0.16914 -1.5038,0.25498 -1.75588,0.94248 -0.31928,0.87075 0.78055,1.25 3.625,1.25 2.24583,0 4.08333,0.45 4.08333,1 0,1.43177 -3.68182,1.60431 -7,0.32803 -0.825,-0.31732 -4.875,-0.75242 -9,-0.96689 -4.125,-0.21446 -8.625,-0.53802 -10,-0.71902 -1.375,-0.18099 -3.09282,-0.39951 -3.81739,-0.4856 -0.87682,-0.10417 -1.08956,-0.87433 -0.63614,-2.30293 0.59763,-1.88296 0.39111,-2.06411 -1.68262,-1.47592 -7.06882,2.00498 -7.78752,1.95329 -8.76999,-0.63081 -0.84849,-2.23168 -1.76957,-2.59566 -8.73683,-3.4525 -5.19297,-0.63864 -8.69174,-0.61683 -10.49932,0.0654 -2.53071,0.95524 -2.62308,1.19339 -1.38916,3.58173 4.35415,8.42781 6.13869,30.76072 3.49082,43.68636 -1.27334,6.21583 -3.13528,9.98392 -9.26944,18.75891 -2.57946,3.68996 -4.68993,7.10915 -4.68993,7.5982 0,0.48906 -4.60775,4.855 -10.23945,9.70209 C 107.12405,204.56309 99,212.44633 99,213.83229 c 0,1.8984 2.34517,2.5627 11.98242,3.39421 5.23467,0.45164 12.33308,1.08806 15.77424,1.41426 3.81848,0.36196 6.7532,0.18098 7.53085,-0.46441 0.7008,-0.58161 3.51031,-1.0846 6.24334,-1.11775 9.77598,-0.11856 49.96788,1.10679 50.39759,1.5365 0.24102,0.24103 -0.0369,0.91338 -0.61766,1.49412 -1.41795,1.41795 -63.77363,2.26373 -69.65882,0.94484 -2.38832,-0.53524 -6.99956,-1.24594 -10.24718,-1.57935 -3.24763,-0.3334 -7.92673,-1.04854 -10.398,-1.58919 -4.114476,-0.90014 -4.642319,-0.78839 -6.261939,1.32574 -0.972792,1.26981 -3.023334,3.88374 -4.55676,5.80874 -3.695465,4.63914 -6.758189,13.23384 -7.74966,21.74732 -0.804434,6.90745 -1.820149,10.93851 -3.13028,12.42312 -0.886637,1.00472 -1.625732,4.39224 -1.854546,8.5 -0.209235,3.75626 -0.433893,6.82956 -0.499241,6.82956 -1.578696,0 -1.91082,39.13772 -0.725677,85.51432 0.678335,26.54438 1.358286,38.01506 3.763257,63.48568 1.384161,14.65939 2.316127,27.25428 2.478852,33.5 0.07881,3.025 0.435902,6.175 0.793532,7 0.35763,0.825 1.360567,7.575 2.228749,15 2.451004,20.96185 6.108237,41.69285 7.665178,43.45 C 92.62121,522.9725 93,524.67822 93,526.24049 c 0,5.91845 5.818621,10.92508 16.5,14.19742 3.3,1.01098 6.9,2.31654 8,2.90123 1.1,0.58468 2.9,1.20694 4,1.38278 1.1,0.17584 4.475,1.15999 7.5,2.187 12.52865,4.25356 29.05819,5.75547 59,5.36087 12.925,-0.17034 25.67311,-0.28408 28.32912,-0.25277 z M 174.5,254.92143 c -2.75,-0.46384 -7.61556,-1.07669 -10.81237,-1.36191 -3.1968,-0.28522 -6.2565,-0.79306 -6.79933,-1.12855 -0.90667,-0.56036 -3.42402,-0.78032 -20.13773,-1.75963 -5.21821,-0.30575 -7.76906,-1.08226 -6.66724,-2.02958 0.83919,-0.72153 21.87422,1.13979 38.64887,3.41991 9.55787,1.29916 16.68344,2.69088 16,3.125 -1.45589,0.9248 -3.48913,0.87209 -10.2322,-0.26524 z M 195,255 c 0,-0.55 1.15156,-1 2.55902,-1 1.45136,0 2.2915,0.43284 1.94098,1 -0.33992,0.55 -1.49148,1 -2.55902,1 C 195.87344,256 195,255.55 195,255 Z m 9.30383,-0.31653 c -0.78379,-1.26956 -0.36869,-1.36418 9.02174,-2.05628 7.77706,-0.5732 8.78688,-0.46 8.5,0.95279 -0.26421,1.30108 -1.89867,1.63312 -8.6716,1.76164 -4.59032,0.0871 -8.57288,-0.20906 -8.85014,-0.65815 z M 224.5,251 c -0.33992,-0.55 0.33508,-1 1.5,-1 1.16492,0 1.83992,0.45 1.5,1 -0.33992,0.55 -1.01492,1 -1.5,1 -0.48508,0 -1.16008,-0.45 -1.5,-1 z m -79.79029,-8.62362 c -0.20623,-0.20623 -12.22765,-1.31201 -20.20971,-1.85897 -7.62611,-0.52258 -20.5,-2.7514 -20.5,-3.54912 0,-1.49558 2.35343,-1.59473 8.43475,-0.35534 10.39845,2.11923 36.37094,3.62189 52.81525,3.05567 8.6625,-0.29827 15.75,-0.16991 15.75,0.28524 0,1.0235 -35.33083,3.38197 -36.29029,2.42252 z m -51.401796,-6.69291 c -0.862,-1.38503 0.14926,-1.64582 3.97474,-1.02503 2.022698,0.32824 3.446916,0.97011 3.164936,1.42637 -0.639394,1.03455 -6.449278,0.70796 -7.139676,-0.40134 z m 67.870676,-4.41346 c -6.53029,-0.2161 -10.19466,-0.72179 -9.97634,-1.37675 0.34098,-1.02296 46.65249,-1.37186 47.66525,-0.3591 1.29928,1.29928 -1.87562,1.83004 -7.8675,1.31524 -0.825,-0.0709 -5.55,0.0716 -10.5,0.31664 -4.95,0.24503 -13.64463,0.29182 -19.32141,0.10397 z m -25.79152,-1.21627 c -0.29256,-0.29257 -2.63684,-0.62946 -5.2095,-0.74865 -2.57266,-0.11918 -7.37757,-0.46462 -10.67757,-0.76764 -3.3,-0.30302 -9.02249,-0.77682 -12.71665,-1.05289 -9.183539,-0.68631 -14.054971,-1.79942 -14.564481,-3.32795 -0.318351,-0.95506 0.560305,-1.14776 3.426496,-0.75149 2.120049,0.29311 6.329635,0.78238 9.354635,1.08726 3.025,0.30489 9.325,1.1806 14,1.94604 4.675,0.76543 13.55881,1.70386 19.7418,2.0854 6.43666,0.39719 10.99806,1.08808 10.67156,1.61636 -0.58522,0.94691 -13.06988,0.86996 -14.02629,-0.0864 z m 68.31473,0.31473 c -1.59629,-1.59629 -0.463,-2.37182 3.5482,-2.42808 2.3375,-0.0328 6.5,-0.48877 9.25,-1.01329 5.81752,-1.10961 15.34996,-1.41047 16.24762,-0.51281 0.34048,0.34047 0.064,1.17404 -0.61438,1.85238 -0.8085,0.80844 -4.74733,1.25228 -11.43333,1.28834 -5.60995,0.0303 -11.5716,0.38357 -13.24811,0.78513 -1.67651,0.40157 -3.36401,0.41432 -3.75,0.0283 z m 271.67064,321.77347 c 0.47985,-0.0781 0.29204,-0.8413 -0.41736,-1.69606 -1.06432,-1.28244 -2.70282,-1.43496 -9.37244,-0.87245 -8.60983,0.72614 -9.91929,1.07284 -9.09423,2.40782 0.41211,0.6668 15.0097,0.79102 18.88403,0.16069 z M 356,546.05669 c 0,-0.51883 -2.22941,-0.89253 -4.95424,-0.83047 -2.72483,0.0621 -4.72327,0.48656 -4.44098,0.94332 0.71249,1.15283 9.39522,1.04854 9.39522,-0.11285 z m 30.25,-4.71897 c -0.6875,-0.27741 -1.8125,-0.27741 -2.5,0 -0.6875,0.27741 -0.125,0.50439 1.25,0.50439 1.375,0 1.9375,-0.22698 1.25,-0.50439 z m 22.09912,0.0155 c 4.20799,-0.3557 7.65088,-1.06639 7.65088,-1.57931 0,-0.53518 -2.45026,-0.68806 -5.75,-0.35877 -3.1625,0.31559 -9.32057,0.80935 -13.6846,1.09725 -4.36403,0.28789 -8.15153,0.74037 -8.41667,1.0055 -0.6914,0.6914 11.22198,0.59429 20.20039,-0.16467 z M 390.5,537 c -0.33992,-0.55 -1.26648,-1 -2.05902,-1 -0.79254,0 -1.44098,0.45 -1.44098,1 0,0.55 0.92656,1 2.05902,1 1.13246,0 1.7809,-0.45 1.44098,-1 z m 27.5,0.0282 c 0.275,-0.0489 -0.175,-0.41522 -1,-0.81392 -1.9271,-0.93133 -25.18996,-0.33065 -24.59314,0.63503 0.3377,0.5464 22.65255,0.70238 25.59314,0.17889 z M 429.5,536 c 0.33992,-0.55 -0.0835,-1 -0.94098,-1 -0.85746,0 -1.55902,0.45 -1.55902,1 0,0.55 0.42344,1 0.94098,1 0.51754,0 1.2191,-0.45 1.55902,-1 z m -202.72707,-4.65564 c -1.08716,-1.08716 -2.06253,-1.18475 -4.09974,-0.41021 -3.97727,1.51216 -3.23441,2.67222 1.42655,2.22773 3.55039,-0.33859 3.90859,-0.58212 2.67319,-1.81752 z m 8.04662,-0.17269 C 234.9953,529.97725 234.6578,529 234.06955,529 233.4813,529 233,529.45 233,530 c 0,0.55 -0.675,1 -1.5,1 -1.81621,0 -1.99157,1.63671 -0.25,2.33333 2.07384,0.82954 3.23267,0.12777 3.56955,-2.16166 z M 218.5,532 c -0.33992,-0.55 -1.04148,-1 -1.55902,-1 -0.51754,0 -0.94098,0.45 -0.94098,1 0,0.55 0.70156,1 1.55902,1 0.85746,0 1.2809,-0.45 0.94098,-1 z m 53.22917,-11.60417 c -0.33229,-0.33229 -1.1948,-0.36781 -1.91667,-0.0789 -0.79773,0.31922 -0.56078,0.55618 0.60417,0.60416 1.05416,0.0434 1.64479,-0.19293 1.3125,-0.52522 z M 274,512 c 0,-1.94919 -1.06067,-2.606 -2.26443,-1.40223 C 270.93445,511.39888 271.98295,514 273.10699,514 273.59814,514 274,513.1 274,512 Z m 2,-7.55902 c 0,-1.45136 -0.43284,-2.2915 -1,-1.94098 -0.55,0.33992 -1,1.49148 -1,2.55902 0,1.06754 0.45,1.94098 1,1.94098 0.55,0 1,-1.15156 1,-2.55902 z m -46.16872,-1.58135 c 3.19732,-1.19585 2.187,-3.41794 -1.41463,-3.11134 -1.60416,0.13656 -6.29165,0.50223 -10.41665,0.81258 -9.2357,0.69489 -11.31809,1.30747 -8.5,2.50048 2.56574,1.08619 17.27812,0.94021 20.33128,-0.20172 z M 238,502.16667 c 0,-1.30208 -1.18877,-2.16804 -2.15579,-1.57039 C 234.80999,501.23547 235.70176,503 237.05902,503 237.57656,503 238,502.625 238,502.16667 Z m 34,-7.43997 c 0,-1.98583 -0.12723,-2.02805 -1.61832,-0.53695 -0.89008,0.89008 -1.30899,2.11885 -0.93091,2.7306 C 270.45685,498.54821 272,497.2203 272,494.7267 Z m 8.90687,-5.82962 c 1.22135,-4.4566 2.00977,-8.31378 1.75204,-8.5715 -0.25772,-0.25773 -0.77318,0.91821 -1.14546,2.6132 -0.37229,1.69499 -1.26098,3.66589 -1.97488,4.37979 -1.59867,1.59867 -3.08754,9.68143 -1.78335,9.68143 0.51205,0 1.9303,-3.64631 3.15165,-8.10292 z m 3.71711,-18.60643 c -1.031,-1.031 -1.68236,0.24947 -2.20541,4.33545 l -0.4959,3.8739 1.66265,-3.79269 c 0.91445,-2.08597 1.38185,-4.07347 1.03866,-4.41666 z M 246.5,474 c 0.33992,-0.55 0.14148,-1 -0.44098,-1 -0.58246,0 -1.05902,0.45 -1.05902,1 0,0.55 0.19844,1 0.44098,1 0.24254,0 0.7191,-0.45 1.05902,-1 z M 229,472 c 0,-1.25292 -1.06124,-1.25292 -3,0 -1.21296,0.78387 -1.06944,0.9723 0.75,0.98469 C 227.9875,472.99311 229,472.55 229,472 Z m -2.27842,-8.65876 c 4.27813,-0.91231 8.45342,-2.23024 9.27842,-2.92874 0.825,-0.69849 1.725,-1.27041 2,-1.27094 0.275,-5.3e-4 1.7375,-0.47146 3.25,-1.04651 3.33337,-1.26734 3.75803,-3.59268 0.5,-2.73787 -7.86002,2.06225 -21.00193,4.91348 -25.25,5.47818 -5.21572,0.69332 -6.26561,2.20061 -2.30902,3.31496 3.56692,1.0046 4.22495,0.96211 12.5306,-0.80908 z m 61.04925,-2.15374 c 0.59996,-1.79986 -1.467,-1.42165 -2.16452,0.39606 -0.37373,0.97391 -0.15024,1.43108 0.58051,1.1875 0.6535,-0.21783 1.36631,-0.93044 1.58401,-1.58356 z M 290,452.5 c 0,-1.31008 -0.43681,-2.65193 -0.97068,-2.98188 -1.16887,-0.7224 -2.49488,3.91957 -1.55436,5.44136 C 288.49875,456.61601 290,455.15374 290,452.5 Z m -53.5,-2 c 0,-2.66667 -0.33333,-3 -3,-3 -2.66667,0 -3.03538,0.36872 -3.31846,3.31846 -0.30787,3.20804 -0.20804,3.30787 3,3 C 236.13128,453.53538 236.5,453.16667 236.5,450.5 Z M 291,445.94098 C 291,445.42344 290.55,445 290,445 c -0.55,0 -1,0.70156 -1,1.55902 0,0.85746 0.45,1.2809 1,0.94098 0.55,-0.33992 1,-1.04148 1,-1.55902 z m -49.55279,-3.02639 c -0.32197,-0.52097 -1.01165,-0.68378 -1.53262,-0.3618 -0.52097,0.32197 -0.68378,1.01165 -0.3618,1.53262 0.32197,0.52097 1.01165,0.68378 1.53262,0.3618 0.52097,-0.32197 0.68378,-1.01165 0.3618,-1.53262 z m -15.48501,-0.89436 c 3.87211,-2.07229 0.9069,-3.04906 -5.91901,-1.94978 -6.91153,1.11307 -8.04319,1.53545 -8.04319,3.00207 0,1.29946 11.13617,0.46015 13.9622,-1.05229 z m 10.2878,0.0362 c -2.17111,-1.81121 -3.17569,-3.74658 -1.36331,-2.62647 0.48768,0.30141 1.44278,-0.12204 2.12245,-0.94098 0.99593,-1.20002 0.95957,-1.48899 -0.18733,-1.48899 -2.20217,0 -6.72895,2.35331 -7.28726,3.78839 -0.57078,1.46712 2.75677,3.07028 6.46545,3.11495 l 2.5,0.0301 -2.25,-1.87702 z M 251,443 c 0,-0.55 -0.675,-1 -1.5,-1 -0.825,0 -1.5,0.45 -1.5,1 0,0.55 0.675,1 1.5,1 0.825,0 1.5,-0.45 1.5,-1 z m -12.98635,-11.35699 c 0.008,-0.62865 0.26879,-2.09354 0.58062,-3.2553 0.43204,-1.6096 0.0227,-2.25461 -1.71998,-2.71033 -3.05483,-0.79886 -3.67178,0.019 -1.31456,1.74263 1.82177,1.33212 1.83017,1.49167 0.17481,3.32082 -0.9564,1.05681 -1.46893,2.19145 -1.13896,2.52142 0.89017,0.89016 3.40231,-0.29991 3.41807,-1.61924 z m 57.01815,-3.95203 c 0.0175,-1.20504 0.64716,-3.00249 1.39925,-3.99433 0.88273,-1.16411 1.11181,-2.75923 0.64625,-4.5 -1.06881,-3.99645 -2.42128,-3.27012 -2.66286,1.43006 -0.11666,2.2697 -0.72845,5.0915 -1.35952,6.27067 -1.2107,2.26221 -0.56326,4.53482 1.01418,3.55991 0.51199,-0.31643 0.94521,-1.56127 0.9627,-2.76631 z M 254,429 c 0,-0.55 -0.45,-1 -1,-1 -0.55,0 -1,0.45 -1,1 0,0.55 0.45,1 1,1 0.55,0 1,-0.45 1,-1 z m -32.5,-2 c 0.33992,-0.55 0.14148,-1 -0.44098,-1 -0.58246,0 -1.05902,0.45 -1.05902,1 0,0.55 0.19844,1 0.44098,1 0.24254,0 0.7191,-0.45 1.05902,-1 z m 18,-11.60171 c 0.55,-2.25593 1.49264,-4.73093 2.09477,-5.5 2.6953,-3.44258 2.46585,-4.97501 -0.95916,-6.40607 -2.14986,-0.89828 -4.37813,-1.12146 -6.23982,-0.62499 -2.38475,0.63595 -3.05365,1.512 -3.79031,4.96407 -0.73743,3.45566 -0.58147,4.53775 0.88801,6.16151 1.35866,1.5013 1.51399,2.29326 0.6532,3.33044 -1.55918,1.87869 -0.28733,2.82725 3.31737,2.47414 2.6434,-0.25894 3.16524,-0.82774 4.03594,-4.3991 z m 7.81336,-2.48493 c -1.52682,-1.52682 -4.72384,-0.73597 -5.10896,1.26381 -0.40862,2.12179 2.8273,2.91306 4.75274,1.16216 1.06048,-0.96434 1.15745,-1.62474 0.35622,-2.42597 z M 248.36163,407.5 c 0.65418,-1.70478 -0.18562,-4.5 -1.35199,-4.5 -0.42701,0 -0.98062,0.7875 -1.23025,1.75 -0.9076,3.49942 1.36565,5.92036 2.58224,2.75 z M 293,406.44098 c 0,-0.85746 -0.45,-1.2809 -1,-0.94098 -0.55,0.33992 -1,1.04148 -1,1.55902 0,0.51754 0.45,0.94098 1,0.94098 0.55,0 1,-0.70156 1,-1.55902 z M 299.5,404 c 0.33992,-0.55 0.14148,-1 -0.44098,-1 -0.58246,0 -1.05902,0.45 -1.05902,1 0,0.55 0.19844,1 0.44098,1 0.24254,0 0.7191,-0.45 1.05902,-1 z M 262,397 c 0,-1.1 -0.40186,-2 -0.89301,-2 -1.12404,0 -2.17254,2.60112 -1.37142,3.40223 C 260.93933,399.606 262,398.94919 262,397 Z m 39.49716,-1.99105 c 0.72549,-2.28582 -0.19175,-4.31574 -1.56626,-3.46624 -1.2134,0.74992 -1.21193,5.45729 0.002,5.45729 0.51294,0 1.21699,-0.89597 1.56455,-1.99105 z m -38.49341,-12.4052 c -1.4757,-1.4757 -3.42392,0.86285 -2.56511,3.07903 0.67125,1.7322 0.77122,1.72616 2.13653,-0.12903 0.95845,-1.30235 1.10024,-2.27834 0.42858,-2.95 z M 302.5,381 c 0.33992,-0.55 0.14148,-1 -0.44098,-1 -0.58246,0 -1.05902,0.45 -1.05902,1 0,0.55 0.19844,1 0.44098,1 0.24254,0 0.7191,-0.45 1.05902,-1 z m 3.5,-6.19113 c 0,-1.51274 -1.9257,-0.81622 -2.92963,1.05965 -1.33115,2.48727 0.0277,3.71785 1.65218,1.49624 C 305.42515,376.4039 306,375.25375 306,374.80887 Z m -82.5651,2.21588 c 4.44332,-1.68935 3.10995,-3.37128 -2.10587,-2.65637 -5.36871,0.73586 -6.37309,1.35966 -4.30007,2.67068 1.88726,1.19354 3.23698,1.19053 6.40594,-0.0143 z M 301.53128,367.75 c 0.38269,-2.6125 0.43127,-4.75 0.10794,-4.75 -1.44412,0 -3.75687,6.3951 -3.16524,8.75235 0.87602,3.49036 2.21684,1.73508 3.0573,-4.00235 z m -36.32039,1.06089 c -0.93786,-0.93786 -1.5164,-0.77535 -2.6219,0.73652 -1.80147,2.46366 0.20092,4.09013 2.36815,1.92357 1.13562,-1.13527 1.19161,-1.72223 0.25375,-2.66009 z M 306,369.01435 c 0,-2.93878 2.33247,-11.41817 3.33904,-12.13864 2.68444,-1.92144 3.01245,-20.49287 0.34626,-19.60414 -1.01331,0.33777 -1.52777,4.09554 -1.87948,13.72843 -0.0703,1.925 -0.67694,3.95 -1.34813,4.5 -1.54061,1.26246 -2.88599,15.5 -1.46467,15.5 0.55384,0 1.00698,-0.89354 1.00698,-1.98565 z m -9.72539,-8.95645 c 0.5624,-2.15063 -0.0896,-3.29028 -1.41409,-2.4717 -1.13301,0.70024 -1.11379,4.4138 0.0229,4.4138 0.48585,0 1.11191,-0.87394 1.39124,-1.9421 z m 7.68995,-8.93034 C 303.92998,346.611 303.89485,346.55997 302.5,349 c -0.78602,1.375 -1.44508,4.0176 -1.46456,5.87244 -0.0303,2.88606 0.1809,3.1929 1.46456,2.12756 0.94967,-0.78816 1.487,-2.94267 1.46456,-5.87244 z m 39.82038,4.58469 c 1.00092,-0.79075 0.61411,-1.67099 -1.75,-3.98235 C 340.36572,350.09793 339,348.1666 339,347.43805 c 0,-0.72855 -0.95588,-1.99416 -2.12417,-2.81247 -1.68691,-1.18156 -2.19873,-2.75221 -2.48636,-7.63012 -0.1992,-3.37826 -0.63,-6.57563 -0.95733,-7.10526 -0.65016,-1.05198 -0.61259,-14.04088 0.0749,-25.8902 0.27182,-4.68507 1.41339,-10.12726 3.04156,-14.5 1.43354,-3.85 3.66201,-9.925 4.95217,-13.5 6.12443,-16.97061 5.87947,-16.42353 15.67189,-35 6.53382,-12.39481 17.4034,-30.63913 19.997,-33.56445 1.00669,-1.13545 1.83202,-2.71045 1.83408,-3.5 0.002,-0.78955 0.96848,-3.01055 2.14762,-4.93555 8.27555,-13.51026 16.72031,-31.29179 22.79604,-48 2.30001,-6.325 4.79925,-12.91798 5.55386,-14.65108 1.66061,-3.81383 5.53481,-21.988 8.6012,-40.34892 2.78609,-16.682496 3.03248,-37.618923 0.48841,-41.501659 C 417.71589,53.162955 417,50.89995 417,49.469442 417,45.411459 415.45845,43.449328 410.04744,40.619984 404.73613,37.842778 403,37.424123 403,38.920545 c 0,0.506299 1.34386,1.215705 2.98635,1.576456 5.95053,1.306957 9.11559,9.589203 9.08398,23.770732 C 415.05901,69.34548 414.54301,76.875 413.92366,81 c -0.61935,4.125 -1.273,9.525 -1.45255,12 -1.45087,19.99898 -2.15301,23.9467 -6.49184,36.5 -2.90674,8.4099 -7.27557,17.50389 -13.45145,28 -2.91256,4.95 -5.97498,10.35 -6.80537,12 -4.57607,9.09275 -8.12558,15.5969 -11.18748,20.5 -3.0417,4.87076 -5.51309,8.96875 -9.12375,15.12871 -0.59883,1.02164 -1.7858,2.64812 -2.63771,3.6144 -0.85191,0.96629 -3.0094,4.68189 -4.79442,8.25689 -1.78501,3.575 -5.43554,9.91995 -8.11229,14.09989 -2.67674,4.17994 -4.86966,8.22994 -4.87315,9 -0.003,0.77006 -2.06666,5.45011 -4.58482,10.40011 -3.80935,7.48812 -6.04239,14.1833 -9.8391,29.5 -0.2045,0.825 -1.05639,4.2 -1.8931,7.5 -0.83671,3.3 -1.78199,8.025 -2.10062,10.5 -0.31863,2.475 -0.84333,5.625 -1.16601,7 -0.8711,3.71198 -1.02895,13.58272 -0.32703,20.45095 0.34001,3.32698 0.20684,6.8604 -0.29594,7.85205 -0.64159,1.26546 -0.2989,3.07388 1.14942,6.06573 1.13495,2.34449 2.06355,4.71776 2.06355,5.27393 0,1.68411 10.97751,12.0218 12.80042,12.05437 0.93477,0.0167 2.2778,-0.42646 2.98452,-0.98478 z M 292,354.5 c 0,-0.825 -0.42344,-1.5 -0.94098,-1.5 -1.26098,0 -2.1641,1.56159 -1.36517,2.36052 C 290.82004,356.4867 292,356.04641 292,354.5 Z m -63.19313,-3.74817 c 0.41716,-2.14914 -3.04762,-3.09277 -8.40563,-2.28929 -4.97794,0.74649 -5.75152,2.20155 -1.65124,3.10588 1.5125,0.33359 3.2,0.75647 3.75,0.93975 2.27668,0.75864 6.0211,-0.28411 6.30687,-1.75634 z M 273.075,351.725 c -0.12369,-1.1957 -1.49529,-0.96414 -1.925,0.325 -0.22,0.66 0.14,1.02 0.8,0.8 0.66,-0.22 1.16625,-0.72625 1.125,-1.125 z M 241,350.83179 c 0,-0.36752 0.27169,-1.37623 0.60375,-2.24157 0.9112,-2.37455 -2.06599,-2.98868 -5.04045,-1.03974 -1.7379,1.13872 -2.28951,2.07449 -1.66582,2.82599 0.99384,1.1975 6.10252,1.57867 6.10252,0.45532 z m 56.91844,-2.19982 C 299.0633,346.77955 300,344.42955 300,343.40974 c 0,-1.76458 -0.0955,-1.75871 -1.97569,0.12151 -1.82592,1.82592 -3.96799,8.46875 -2.73087,8.46875 0.29889,0 1.48014,-1.51562 2.625,-3.36803 z M 268,347.55902 c 0,-1.05548 -1.91911,-1.49891 -2.48992,-0.57533 -0.34546,0.55897 0.0734,1.01631 0.9309,1.01631 0.85746,0 1.55902,-0.19844 1.55902,-0.44098 z m -12.43997,-2.13963 c 1.69489,-0.45522 2.07259,-1.38604 2.1309,-5.25141 l 0.0709,-4.69812 -3.76276,0.35884 c -3.28487,0.31326 -3.69402,0.63269 -3.22144,2.51507 0.29774,1.18593 1.14755,2.51776 1.88847,2.95962 1.00297,0.59814 1.08098,1.30071 0.30535,2.75 -1.10173,2.0586 -0.72677,2.25647 2.5886,1.366 z m -13.90433,-2.92973 c 0.63564,-0.19499 1.46982,-1.78467 1.85374,-3.53264 1.03428,-4.70903 -0.82417,-6.06239 -7.27572,-5.29829 L 231,334.27858 v 3.66071 c 0,2.01339 0.54295,4.20366 1.20656,4.86727 1.06764,1.06764 5.41042,0.92199 9.44914,-0.3169 z M 307,336.44098 c 0,-2.37071 -1.35876,-3.28754 -2.39275,-1.61452 -0.78697,1.27335 0.50525,5.22204 1.50644,4.60328 C 306.60116,339.12846 307,337.78352 307,336.44098 Z m 62.45828,1.39608 c 2.60867,-1.1886 3.5851,-3.62685 5.14077,-12.83706 1.26728,-7.50284 1.08193,-16.30036 -0.42137,-20 l -1.42218,-3.5 -1.37122,5 c -2.1978,8.014 -2.50413,9.6729 -2.92373,15.83344 -0.21853,3.2084 -1.08655,7.21503 -1.92893,8.90364 -1.71331,3.4344 -2.03597,7.76292 -0.57867,7.76292 0.52412,0 2.10152,-0.52333 3.50533,-1.16294 z M 294,335.44098 c 0,-0.85746 -0.45734,-1.27636 -1.01631,-0.9309 -0.55897,0.34546 -0.75742,1.04702 -0.44098,1.55902 0.85723,1.38704 1.45729,1.12841 1.45729,-0.62812 z m 7.82115,-6.56538 c 0.0546,-3.95215 -10e-4,-4.02252 -1.85888,-2.34146 -1.05331,0.95323 -1.73041,2.032 -1.50467,2.39725 0.22574,0.36526 0.0159,1.30252 -0.46638,2.08282 -0.52938,0.85655 -0.45066,1.9322 0.19866,2.71458 1.75372,2.11311 3.56861,-0.31248 3.63127,-4.85319 z M 228,329.90392 c 0,-1.41508 -3.98361,-1.62859 -5.10802,-0.27377 -0.98429,1.18601 -0.65654,1.38368 1.96324,1.18406 C 226.58485,330.68242 228,330.27279 228,329.90392 Z M 242.5,330 c 0.33992,-0.55 -0.30852,-1 -1.44098,-1 -1.13246,0 -2.05902,0.45 -2.05902,1 0,0.55 0.64844,1 1.44098,1 0.79254,0 1.7191,-0.45 2.05902,-1 z m 16.5,-0.54051 c 0,-1.16993 -0.96222,-1.48373 -4,-1.30449 -4.36002,0.25726 -5.33476,1.44881 -1.75,2.13927 4.48413,0.86368 5.75,0.6799 5.75,-0.83478 z m 11.44423,0.63075 c 0.96464,-1.56082 -0.616,-4.20364 -2.32006,-3.87912 -0.89329,0.17012 -1.76797,1.31721 -1.94372,2.5491 -0.24011,1.68298 0.18025,2.23978 1.69098,2.23978 1.1058,0 2.26355,-0.40939 2.5728,-0.90976 z M 288,323 c 0,-2.25773 -0.48217,-4 -1.10699,-4 -0.60884,0 -0.87548,0.60331 -0.59252,1.34068 0.28296,0.73738 0.13184,1.95979 -0.33581,2.71647 -0.49649,0.80333 -0.40704,1.90983 0.21497,2.65931 C 287.79054,327.65747 288,327.3449 288,323 Z m 19.61724,2.8103 c 0.4044,-0.65433 0.83687,-2.56683 0.96105,-4.25 1.8189,-24.65361 1.82055,-23.5603 -0.0356,-23.5603 -1.43662,0 -1.62029,0.50459 -1.00099,2.75 0.41716,1.5125 0.68563,3.425 0.5966,4.25 -0.089,0.825 -0.5092,5.55 -0.93372,10.5 -0.42452,4.95 -1.12077,9.5625 -1.54722,10.25 -0.42644,0.6875 -0.32535,1.25 0.22465,1.25 0.55,0 1.33087,-0.53536 1.73527,-1.1897 z m -47.89078,-3.41717 c -0.35211,-0.35211 -1.4345,-0.33541 -2.40531,0.0371 -1.49711,0.57449 -1.54289,0.81466 -0.30148,1.58189 1.53301,0.94746 3.8734,-0.45241 2.70679,-1.61902 z M 246.63299,320.75 c 2.18418,-2.12169 3.34941,-4.20472 3.35636,-6 0.0109,-2.82179 -2.38623,-3.9143 -3.29126,-1.5 -0.33967,0.90611 -0.84405,0.782 -1.83334,-0.45113 -1.04125,-1.2979 -2.71243,-1.64902 -7.05016,-1.48126 -3.12698,0.12093 -5.89363,0.43644 -6.14812,0.70113 -0.46362,0.48221 -1.05313,8.38231 -0.80077,10.73126 0.0913,0.84979 2.10132,1.25 6.27794,1.25 5.57832,0 6.4515,-0.29906 9.48935,-3.25 z m 33.25068,-5.55472 c 1.19038,-3.26482 1.26104,-4.45057 0.32121,-5.3904 -1.9639,-1.9639 -3.65348,0.66224 -3.68076,5.72103 -0.0293,5.43358 1.30577,5.30219 3.35955,-0.33063 z M 304,316.44098 c 0,-0.85746 -0.45,-1.2809 -1,-0.94098 -0.55,0.33992 -1,1.04148 -1,1.55902 0,0.51754 0.45,0.94098 1,0.94098 0.55,0 1,-0.70156 1,-1.55902 z M 254.5,315 c 0,-0.73333 -0.5625,-1.52083 -1.25,-1.75 -0.74359,-0.24786 -1.25,0.46111 -1.25,1.75 0,1.28889 0.50641,1.99786 1.25,1.75 0.6875,-0.22917 1.25,-1.01667 1.25,-1.75 z m 16.2823,0.1545 c 0.28658,-0.86063 -0.19425,-1.221 -1.33427,-1 -0.98026,0.19002 -1.98391,0.95098 -2.23033,1.691 -0.28658,0.86063 0.19425,1.221 1.33427,1 0.98026,-0.19002 1.98391,-0.95098 2.23033,-1.691 z m -11.35651,-0.82172 c 0.97299,-2.53555 -1.04387,-3.91492 -2.29797,-1.57162 -1.01101,1.88909 -0.62267,3.23884 0.93186,3.23884 0.39949,0 1.01424,-0.75025 1.36611,-1.66722 z M 269.5,307 c 0.33992,-0.55 0.16803,-1 -0.38197,-1 -0.55,0 -1.27811,0.45 -1.61803,1 -0.33992,0.55 -0.16803,1 0.38197,1 0.55,0 1.27811,-0.45 1.61803,-1 z m 0.575,-4.275 c -0.12369,-1.1957 -1.49529,-0.96414 -1.925,0.325 -0.22,0.66 0.14,1.02 0.8,0.8 0.66,-0.22 1.16625,-0.72625 1.125,-1.125 z m -4.30417,-4.5375 c 0.22111,-0.66333 -0.52375,-1.1875 -1.6875,-1.1875 -2.07732,0 -2.69993,1.05007 -1.39583,2.35417 0.92647,0.92647 2.59622,0.29467 3.08333,-1.16667 z M 324,294.5 c 0,-0.825 -0.45,-1.5 -1,-1.5 -0.55,0 -1,0.675 -1,1.5 0,0.825 0.45,1.5 1,1.5 0.55,0 1,-0.675 1,-1.5 z m -81,-1.10096 c 1.375,-0.13011 2.63794,-0.27312 2.80654,-0.3178 0.16859,-0.0447 -0.47881,-1.41071 -1.43866,-3.03562 -1.5898,-2.69131 -2.14846,-2.92261 -6.27403,-2.59754 -3.89272,0.30672 -4.65585,0.73793 -5.43322,3.07004 -1.13359,3.40077 0.59817,4.75985 4.83937,3.79791 1.65,-0.37424 4.125,-0.78688 5.5,-0.91699 z m 8,-0.84002 c 0,-0.79254 -0.45,-1.7191 -1,-2.05902 -0.55,-0.33992 -1,0.30852 -1,1.44098 0,1.13246 0.45,2.05902 1,2.05902 0.55,0 1,-0.64844 1,-1.44098 z m 10.77838,-0.40089 c 0.92736,-0.58849 0.58414,-1.12755 -1.25,-1.96325 C 258.52331,289.28131 258,289.3144 258,290.35477 c 0,2.45429 1.57103,3.20412 3.77838,1.80336 z m 47.76608,-5.31747 c -0.29945,-1.56236 -0.81498,-4.23514 -1.14562,-5.9395 -1.09003,-5.61877 -2.5755,-1.58486 -1.83303,4.97771 0.58201,5.14433 0.92666,5.9573 2.10939,4.97573 0.89621,-0.74379 1.21441,-2.21314 0.86926,-4.01394 z m 7.40199,0.40934 c 0.65114,-2.6125 1.7641,-5.65 2.47324,-6.75 0.70915,-1.1 3.10962,-7.175 5.3344,-13.5 4.42112,-12.5692 9.74494,-23.29866 14.61606,-29.4568 1.72142,-2.17625 3.86082,-5.55125 4.75424,-7.5 0.89341,-1.94876 3.81841,-6.47308 6.5,-10.05404 5.22628,-6.97912 12.34935,-18.24603 12.41656,-19.63989 0.0407,-0.84393 2.97147,-4.97694 8.18125,-11.53727 1.49721,-1.88534 4.03919,-7.00181 5.64885,-11.36994 5.1207,-13.89607 8.39619,-21.79889 11.20992,-27.04634 1.50533,-2.80735 3.91194,-9.51882 5.34802,-14.91437 1.43609,-5.39555 3.46892,-11.19862 4.51741,-12.89572 1.04848,-1.6971 2.64897,-7.36063 3.55663,-12.58563 1.57813,-9.08461 1.85593,-10.878534 2.96028,-19.116698 0.26666,-1.989184 0.87727,-4.689184 1.35693,-6 1.48957,-4.070732 -2.21311,-20.062504 -5.78775,-24.997155 C 398.36462,57.583724 397,55.144195 397,54.464971 c 0,-3.725526 -13.6265,-7.108595 -21.04642,-5.22522 -1.99708,0.506912 -5.61612,2.751388 -8.04231,4.987726 -2.4262,2.236337 -5.98627,5.23752 -7.91127,6.669295 -5.9348,4.41418 -9,7.405669 -9,8.783563 C 351,70.406151 350.35776,71 349.5728,71 c -3.93155,0 -14.90249,19.37364 -16.70531,29.5 -0.58751,3.3 -1.40779,8.025 -1.82284,10.5 -0.41505,2.475 -1.24116,5.69123 -1.8358,7.14718 -0.59464,1.45594 -0.83983,2.88851 -0.54487,3.18347 0.29496,0.29496 0.16317,1.12873 -0.29286,1.85282 -1.54702,2.45637 -2.17088,21.26182 -1.08306,32.64733 0.73892,7.73375 3.32552,16.14809 5.58528,18.1692 6.55643,5.86403 9.77149,14.6026 7.40447,20.12544 -0.79547,1.85601 -2.35925,6.29956 -3.47507,9.87456 -3.49572,11.20002 -14.63863,19.93211 -25.49372,19.97804 -7.81663,0.0331 -7.61006,-1.88311 0.38133,-3.53718 3.24319,-0.67128 8.30965,-2.67591 8.30965,-3.28785 0,-0.69448 -14.43378,-0.38031 -16.71982,0.36394 -2.49886,0.81352 0.49429,12.34671 7.26228,27.98305 1.87814,4.33912 2.27751,6.19094 3.01929,14 0.36571,3.85 0.84626,7.30641 1.0679,7.6809 0.22164,0.3745 -0.0556,0.96431 -0.61604,1.31069 -0.62276,0.38489 -0.67846,1.28669 -0.14322,2.3191 0.48168,0.92912 0.80215,6.07681 0.71214,11.43931 -0.09,5.3625 0.13869,9.75 0.5082,9.75 0.36951,0 1.20459,-2.1375 1.85572,-4.75 z M 304,282.44098 C 304,281.64844 303.55,281 303,281 c -0.55,0 -1,0.92656 -1,2.05902 0,1.13246 0.45,1.7809 1,1.44098 0.55,-0.33992 1,-1.26648 1,-2.05902 z m -66.5,-1.12134 c 0,-0.63414 0.3375,-1.49047 0.75,-1.90297 0.4125,-0.4125 0.75,-0.0266 0.75,0.85765 0,2.56618 1.7477,2.98569 7.09468,1.70297 4.33156,-1.03913 5.07739,-1.58763 5.5807,-4.1042 0.52429,-2.62142 0.70423,-2.7362 1.84458,-1.17668 1.06887,1.46176 1.51147,1.52239 2.87183,0.3934 0.88451,-0.73409 1.60821,-2.32912 1.60821,-3.54453 0,-2.07041 -0.36277,-2.18433 -5.75,-1.80573 -8.18876,0.57549 -8.1442,0.54349 -7.58385,5.44587 0.3686,3.22484 0.22434,3.93572 -0.57118,2.81458 -0.58539,-0.825 -1.07124,-2.68502 -1.07966,-4.13337 -0.0195,-3.34889 -3.94764,-4.84141 -4.74248,-1.80192 C 237.75135,276.05882 236,276.77952 236,275 c 0,-0.55 -0.47656,-1 -1.05902,-1 -0.58246,0 -0.80424,0.41224 -0.49284,0.91608 0.31139,0.50385 0.10973,2.11661 -0.44814,3.58392 -0.55787,1.46731 -0.74413,3.10499 -0.41392,3.63928 0.80007,1.29455 3.91392,0.64245 3.91392,-0.81964 z m 25.75,-3.05254 c 0.9625,-0.86739 1.75,-2.29023 1.75,-3.16187 0,-1.1433 -0.70772,-0.82154 -2.54047,1.15499 -1.39726,1.50688 -3.1707,2.73978 -3.94098,2.73978 -0.77028,0 -1.71919,0.51563 -2.10869,1.14584 -1.02928,1.66542 4.63318,0.11015 6.84014,-1.87874 z M 328.36163,273.5 c 0.31658,-0.825 0.18787,-1.5 -0.28603,-1.5 -0.47389,0 -1.12064,0.675 -1.43723,1.5 -0.31658,0.825 -0.18787,1.5 0.28603,1.5 0.47389,0 1.12064,-0.675 1.43723,-1.5 z m -28.00647,-0.98314 c 0.31302,-0.81573 1.14867,-1.26555 1.85699,-0.99961 1.90533,0.71537 4.07927,-4.46118 2.61464,-6.22596 -0.79231,-0.95467 -1.46123,-1.05685 -2.18441,-0.33367 -0.57331,0.57331 -1.90486,1.04238 -2.95901,1.04238 -1.38687,0 -1.78007,0.52221 -1.42257,1.8893 0.27174,1.03912 0.12891,2.48013 -0.31738,3.20226 -0.87099,1.40928 -0.3511,2.90844 1.00861,2.90844 0.4587,0 1.0901,-0.66741 1.40313,-1.48314 z M 312,273 c 0,-0.55 -0.45,-1 -1,-1 -0.55,0 -1,0.45 -1,1 0,0.55 0.45,1 1,1 0.55,0 1,-0.45 1,-1 z m -48,-1 c 0,-0.55 -0.64844,-1 -1.44098,-1 -0.79254,0 -1.7191,0.45 -2.05902,1 -0.33992,0.55 0.30852,1 1.44098,1 1.13246,0 2.05902,-0.45 2.05902,-1 z m -42.5,-3.11202 c 5.5,-0.63598 10.675,-1.25135 11.5,-1.36749 0.9406,-0.1324 1.5,-1.2944 1.5,-3.11582 0,-2.82055 -0.13032,-2.89594 -4.5,-2.60333 -12.5584,0.84097 -63.33484,2.3576 -72,2.15054 -3.575,-0.0854 -7.85,-0.12262 -9.5,-0.0827 -1.65,0.04 -8.0625,0.14549 -14.25,0.23451 -10.45069,0.15036 -13.43417,0.84415 -9.73474,2.26375 0.83339,0.31981 8.37089,0.8213 16.75,1.11444 8.37911,0.29314 18.83474,0.74781 23.23474,1.01038 4.4,0.26256 13.625,0.76293 20.5,1.11192 6.875,0.34899 12.5756,0.69392 12.66801,0.7665 0.53744,0.42215 15.30317,-0.49652 23.83199,-1.48274 z M 310.85725,264.75 c -0.56057,-2.6125 -1.40136,-4.75 -1.86843,-4.75 -0.46706,0 -0.47175,1.31613 -0.0104,2.92473 0.46134,1.6086 0.61384,3.14968 0.33889,3.42464 -0.27495,0.27495 -0.18912,1.47912 0.19073,2.67593 1.27629,4.02122 2.3794,0.52576 1.34922,-4.2753 z m -55.4103,0.60536 c 0.36507,-1.45456 0.26822,-3.04019 -0.21522,-3.52363 -1.24583,-1.24583 -4.60346,2.75718 -3.8844,4.63102 0.93746,2.44298 3.3737,1.78489 4.09962,-1.10739 z m -16.36465,-2.7175 c -2.54449,-2.54449 -3.45483,-1.74788 -2.09371,1.83214 0.88493,2.32752 1.27959,2.55232 2.58251,1.47099 1.36899,-1.13616 1.31529,-1.49904 -0.4888,-3.30313 z M 120.5,265 c 0.33992,-0.55 0.14148,-1 -0.44098,-1 -0.58246,0 -1.05902,0.45 -1.05902,1 0,0.55 0.19844,1 0.44098,1 0.24254,0 0.7191,-0.45 1.05902,-1 z m 152.57971,-0.59604 c 1.15647,-1.39347 1.0233,-1.55212 -1.04923,-1.25 -1.3056,0.19032 -2.55907,0.90854 -2.78549,1.59604 -0.59252,1.79918 2.26862,1.54099 3.83472,-0.34604 z M 281,264 c 0,-1.94919 -1.06067,-2.606 -2.26443,-1.40223 C 277.93445,263.39888 278.98295,266 280.10699,266 280.59814,266 281,265.1 281,264 Z m -16.64689,-0.83769 c 1.55272,-1.71574 1.54642,-1.93561 -0.095,-3.3134 -2.34534,-1.96864 -4.65064,-1.7647 -5.07698,0.44913 -0.34254,1.77864 1.3898,4.70196 2.78634,4.70196 0.39741,0 1.47095,-0.82696 2.38565,-1.83769 z M 303.53966,257.25 c -0.37993,-3.1625 -1.33178,-7.67823 -2.11522,-10.03495 C 299.74798,242.17198 299.62021,240 301,240 c 0.55,0 1,0.45 1,1 0,1.89049 1.76722,0.99814 2.33681,-1.17997 0.85073,-3.25317 -5.57992,-15.48289 -11.07452,-21.06137 C 290.68438,216.1414 288.22077,214 287.78759,214 c -1.42047,0 -0.82347,3.049 0.71241,3.63837 1.92899,0.74023 1.91436,2.33815 -0.0344,3.76316 -1.37843,1.00792 -1.37695,1.32416 0.0145,3.11024 0.85191,1.09353 1.42991,1.53823 1.28444,0.98823 -0.14546,-0.55 0.18552,-1 0.73552,-1 0.55,0 1.03626,1.71482 1.08058,3.8107 0.0563,2.66049 0.91741,4.76437 2.85302,6.97023 2.28835,2.60785 2.5728,3.47917 1.62912,4.99025 -0.82407,1.31954 -0.86368,3.42209 -0.14186,7.52978 0.55081,3.13447 1.26049,7.36607 1.57708,9.40354 0.39362,2.53326 0.99744,3.54264 1.9098,3.19253 0.73379,-0.28158 1.60312,0.18889 1.93183,1.0455 0.32871,0.85661 1.11363,1.55747 1.74427,1.55747 0.80929,0 0.94339,-1.69155 0.45582,-5.75 z M 299,251.05902 C 299,249.92656 299.45,249 300,249 c 0.55,0 1,0.64844 1,1.44098 0,0.79254 -0.45,1.7191 -1,2.05902 -0.55,0.33992 -1,-0.30852 -1,-1.44098 z M 271.8,258.8 c 0.66,-0.66 1.2,-1.977 1.2,-2.92668 0,-0.94967 0.74508,-1.87217 1.65573,-2.05 1.42735,-0.27872 1.45645,-0.48847 0.21094,-1.5207 -2.79834,-2.31915 -8.89628,2.57187 -7.5572,6.06146 0.73916,1.92623 2.80015,2.1263 4.49053,0.43592 z m -15.92756,-2.71876 C 256.07729,256.03656 255.68469,255.325 255,254.5 c -1.26564,-1.52501 -5.12752,-2.03914 -6.32466,-0.84201 -1.79988,1.79989 2.8608,3.36913 7.1971,2.42325 z M 309,250 c 0,-0.55 -0.45,-1 -1,-1 -0.55,0 -1,0.45 -1,1 0,0.55 0.45,1 1,1 0.55,0 1,-0.45 1,-1 z m -48.02896,-0.96094 c 0.80907,-0.51167 1.18048,-1.22087 0.82536,-1.57599 -0.96371,-0.96372 -4.91728,0.53232 -4.2519,1.60893 0.71714,1.16036 1.55236,1.15233 3.42654,-0.0329 z M 258.8,242.8 c 1.59558,-1.59558 1.51921,-2.8 -0.17756,-2.8 -1.69602,0 -3.84836,2.44075 -2.9471,3.34201 0.95524,0.95524 1.76848,0.81417 3.12466,-0.54201 z M 249,242 c 0,-0.55 -0.45,-1 -1,-1 -0.55,0 -1,0.45 -1,1 0,0.55 0.45,1 1,1 0.55,0 1,-0.45 1,-1 z m 23.55887,-0.43268 c 2.99659,-2.21168 0.70038,-3.90226 -3.372,-2.48262 -4.43776,1.54701 -4.16057,2.75472 0.872,3.7993 0.30738,0.0638 1.43238,-0.52871 2.5,-1.31668 z m -21.90379,-5.34081 C 249.12964,234.70107 246,235.1507 246,236.89529 c 0,1.13857 2.95016,1.92288 4.82754,1.28341 1.06569,-0.363 1.03167,-0.74806 -0.17246,-1.95219 z m 19.59492,0.0186 C 273.3585,235.71146 274.03956,233 271.0651,233 267.7172,233 264,234.88474 264,236.58224 c 0,1.17248 0.49254,1.42109 1.75,0.88332 0.9625,-0.41163 2.9875,-0.96085 4.5,-1.22049 z m 16.75,-0.0784 c 0,-1.30208 -1.18877,-2.16804 -2.15579,-1.57039 C 283.80999,235.23547 284.70176,237 286.05902,237 286.57656,237 287,236.625 287,236.16667 Z M 250.78527,230.75 c 1.03942,-1.26123 0.99331,-7.30475 -0.0638,-8.36185 -0.31392,-0.31392 -1.47399,-0.28409 -2.57794,0.0663 -1.48014,0.46978 -1.99051,1.47841 -1.9437,3.84131 C 246.26227,229.44704 247.51549,232 249,232 c 0.41531,0 1.21868,-0.5625 1.78527,-1.25 z M 270.5,229.31366 C 270.5,227.25044 263.69088,220 261.75324,220 c -1.65953,0 -1.87832,0.45252 -1.32961,2.75 0.36123,1.5125 0.71369,3.3125 0.78324,4 0.0695,0.6875 1.35332,1.25 2.85281,1.25 1.56457,0 2.98522,0.67463 3.33386,1.58316 0.64296,1.67554 3.10646,1.46182 3.10646,-0.2695 z m -13.08179,0.0794 C 258.40832,229.01307 259,227.57919 259,225.55968 c 0,-3.97088 -0.39588,-4.39782 -3.5235,-3.79994 -2.02397,0.38691 -2.4765,1.06121 -2.4765,3.69017 0,4.3796 0.98647,5.25999 4.41821,3.9431 z m 18.12291,-4.32648 C 275.17858,224.47994 274.40342,224 273.81854,224 c -0.6631,0 -0.58723,0.57378 0.20152,1.52417 1.37154,1.6526 2.59733,1.2838 1.52106,-0.45764 z m -3.63506,-6.67972 c -1.45303,-1.7508 -2.38084,-1.06645 -1.53666,1.13344 0.33906,0.88358 1.0915,1.31293 1.6721,0.9541 0.72494,-0.44804 0.68251,-1.10197 -0.13544,-2.08754 z m -32.36494,0.54666 c 0.92034,-1.48915 -0.14673,-2.29879 -2.06137,-1.56407 -0.88358,0.33906 -1.32643,1.06965 -0.98412,1.62354 0.81058,1.31154 2.21511,1.28411 3.04549,-0.0595 z m 45.20609,-2.67361 c -0.19988,-2.60479 -0.81219,-3.84128 -2.01711,-4.07332 -1.31602,-0.25344 -1.7301,0.3545 -1.7301,2.54014 0,2.77278 1.52551,5.27332 3.21711,5.27332 0.44942,0 0.68796,-1.68306 0.5301,-3.74014 z M 256.6,214.43567 C 256.6,211.83705 256.17584,211 254.85902,211 c -0.95754,0 -2.0191,-0.45 -2.35902,-1 -0.33992,-0.55 -1.15398,-0.98569 -1.80902,-0.9682 -0.76074,0.0203 -0.64826,0.47187 0.31138,1.25 0.82629,0.67001 1.57424,2.7932 1.66211,4.7182 0.19397,4.24986 -0.0251,3.90706 2.13553,3.34205 1.29272,-0.33805 1.8,-1.43896 1.8,-3.90638 z m 11.12917,-0.0398 c -0.33229,-0.33229 -1.1948,-0.36781 -1.91667,-0.0789 -0.79773,0.31922 -0.56078,0.55618 0.60417,0.60416 1.05416,0.0434 1.64479,-0.19293 1.3125,-0.52522 z m 61.23903,-4.26827 c -0.0267,-1.36732 -0.26656,-1.31719 -1.5,0.31357 -1.91098,2.52654 -1.89075,4.15444 0.0318,2.55887 0.825,-0.68469 1.48569,-1.97729 1.4682,-2.87244 z M 273,212 c 0,-0.55 -0.47656,-1 -1.05902,-1 -0.58246,0 -0.7809,0.45 -0.44098,1 0.33992,0.55 0.81648,1 1.05902,1 0.24254,0 0.44098,-0.45 0.44098,-1 z m 42.4522,-0.40565 c 4.85587,-1.69005 7.44415,-4.68572 6.82897,-7.90382 -0.2531,-1.32401 0.42277,-4.38353 1.50194,-6.79892 1.07916,-2.41538 1.9898,-5.87003 2.02363,-7.67698 0.0338,-1.80696 0.5761,-4.84463 1.20506,-6.75038 0.95729,-2.90063 0.81446,-4.41591 -0.87692,-9.30331 -2.76852,-7.99985 -3.34379,-12.50419 -3.58708,-28.08657 -0.15672,-10.03766 0.2438,-15.33703 1.58714,-21 0.98822,-4.1659 1.81212,-9.64202 1.83091,-12.16914 0.0188,-2.52713 0.92309,-7.25213 2.00956,-10.5 1.08648,-3.247878 1.98648,-6.749563 2,-7.781525 0.0314,-2.395503 5.04893,-12.294157 8.98841,-17.732464 C 340.63372,73.586016 342,71.31209 342,70.838071 c 0,-1.777966 18.44733,-19.870763 24.19572,-23.730711 4.96608,-3.334637 13.20541,-6.689796 18.4534,-7.514452 0.63201,-0.09931 1.91114,-0.812994 2.8425,-1.585956 0.93137,-0.772963 3.2291,-1.468074 5.10607,-1.544691 5.03532,-0.20554 5.13879,-1.157989 0.21969,-2.02216 -6.89304,-1.210948 -10.42231,-0.60288 -18.61991,3.20808 -11.16235,5.189232 -18.55336,10.530979 -28.43619,20.551851 -9.90854,10.046933 -13.60086,15.39784 -20.1128,29.147393 C 323.13412,92.656341 320.55713,97 319.92183,97 c -0.66276,0 -0.93217,-0.852451 -0.63208,-2 0.81615,-3.120984 -1.57731,-2.360555 -3.5659,1.132922 -1.58752,2.788901 -2.14507,3.060408 -5.25,2.556548 -2.33039,-0.378171 -3.47449,-0.172972 -3.47578,0.623401 -10e-4,0.652921 -2.36357,2.757739 -5.25,4.677379 -8.60704,5.72414 -13.98499,10.82304 -15.88026,15.05626 -0.98249,2.19448 -1.77305,4.09425 -1.75678,4.22172 0.0163,0.12748 -0.50861,1.58177 -1.16639,3.23177 -3.72755,9.35039 -5.36202,22.65291 -5.41189,44.04593 -0.0281,12.0627 0.23078,14.44785 1.83363,16.89244 l 1.86638,2.8465 4.8186,-5.24132 c 4.68796,-5.09922 4.93024,-5.22245 8.9366,-4.54558 5.22792,0.88325 8.94407,4.30833 9.69497,8.93561 0.32265,1.98824 0.90265,3.81029 1.28889,4.049 1.45991,0.90228 5.18837,-2.82444 7.38845,-7.385 2.68576,-5.56731 2.77394,-13.37016 0.28484,-25.20449 -0.85524,-4.0662 -1.49921,-8.74309 -1.43104,-10.39309 0.0682,-1.65 0.0269,-4.8 -0.0918,-7 -0.35778,-6.63224 2.53691,-25.17131 4.07907,-26.12442 1.65911,-1.02538 1.68363,0.005 0.22928,9.63903 -1.66537,11.03156 -1.22683,25.46738 1.35765,44.69158 1.41545,10.52855 -2.31934,20.44967 -9.46046,25.13078 -2.56876,1.68387 -3.32778,2.87857 -3.32778,5.23796 0,3.22832 1.25862,6.28051 3.78349,9.17507 1.82001,2.0865 1.68341,2.07945 6.66871,0.34435 z m 0.98681,-101.21384 c 0.39714,-1.58428 0.95644,-4.55077 1.24291,-6.59221 0.28646,-2.04143 1.22501,-4.291428 2.08565,-4.999995 1.38407,-1.139509 1.48709,-0.884063 0.89195,2.211695 -0.37007,1.925 -1.00898,5.26304 -1.4198,7.41787 -0.41082,2.15483 -1.37151,4.12606 -2.13486,4.38051 -1.07178,0.35726 -1.22344,-0.19347 -0.66585,-2.41787 z M 239,210 c 0,-0.55 -0.42344,-1 -0.94098,-1 -0.51754,0 -1.2191,0.45 -1.55902,1 -0.33992,0.55 0.0835,1 0.94098,1 0.85746,0 1.55902,-0.45 1.55902,-1 z m 48,-1.35398 c 0,-2.3024 -5.00226,-7.04376 -6.18429,-5.86173 -1.26453,1.26453 -0.2281,3.21571 1.70812,3.21571 0.77319,0 1.88747,0.9 2.47617,2 1.24359,2.32366 2,2.56799 2,0.64602 z M 277,203.5 c 0,-1.31008 0.43453,-2.65052 0.96561,-2.97875 C 279.2551,199.72431 273.25557,188 271.55827,188 c -2.45259,0 -4.07031,2.95045 -2.76432,5.04167 0.64549,1.03359 0.90777,2.57205 0.58285,3.4188 -0.43662,1.1378 0.0741,1.53953 1.95719,1.53953 3.33265,0 4.27249,1.67237 2.21655,3.94416 -1.52009,1.67967 -1.52141,1.94212 -0.0174,3.44618 C 275.55778,207.41492 277,206.62853 277,203.5 Z m -12.925,-1.775 c -0.12369,-1.1957 -1.49529,-0.96414 -1.925,0.325 -0.22,0.66 0.14,1.02 0.8,0.8 0.66,-0.22 1.16625,-0.72625 1.125,-1.125 z m 69.90969,-2.975 c 0.008,-0.9625 -0.44881,-1.75 -1.01607,-1.75 -1.44814,0 -2.30891,2.67085 -1.52181,4.72197 0.56605,1.47512 0.79423,1.51096 1.59167,0.25 0.51199,-0.80958 0.93779,-2.25947 0.94621,-3.22197 z M 222.58161,196.13205 C 221.82544,194.90854 211,194.78954 211,196.00474 c 0,0.55084 2.70557,0.99526 6.05902,0.99526 3.33246,0 5.81762,-0.39058 5.52259,-0.86795 z m 20.75172,-0.0943 c 1.82423,-0.0243 2.67629,-0.48297 2.39237,-1.28777 -0.24252,-0.6875 -1.29252,-1.13638 -2.33333,-0.99751 -1.0408,0.13887 -3.46737,0.43072 -5.39237,0.64855 -1.925,0.21783 -3.8375,0.44171 -4.25,0.49751 -0.4125,0.0558 -0.75,0.58816 -0.75,1.18303 0,0.67984 1.3929,0.87959 3.75,0.53777 2.0625,-0.2991 5.025,-0.56081 6.58333,-0.58158 z M 264.5,192.66667 c 0,-2.60655 -1.9609,-2.44297 -2.33415,0.19471 -0.22908,1.61892 0.0853,2.22156 1,1.91667 0.73378,-0.24459 1.33415,-1.19472 1.33415,-2.11138 z M 258,193 c 0,-0.55 -0.45,-1 -1,-1 -0.55,0 -1,0.45 -1,1 0,0.55 0.45,1 1,1 0.55,0 1,-0.45 1,-1 z m 78,-1.44098 c 0,-0.79254 -0.45,-1.7191 -1,-2.05902 -0.55,-0.33992 -1,0.30852 -1,1.44098 0,1.13246 0.45,2.05902 1,2.05902 0.55,0 1,-0.64844 1,-1.44098 z m -73,-5.5 c 0,-0.51754 -0.45,-1.2191 -1,-1.55902 -0.55,-0.33992 -1,0.0835 -1,0.94098 0,0.85746 0.45,1.55902 1,1.55902 0.55,0 1,-0.42344 1,-0.94098 z m 9.58485,-3.79169 c -0.73668,-2.32106 -3.26109,-2.55342 -4.09624,-0.37704 -0.715,1.86324 2.46938,4.55172 3.80698,3.21412 0.4967,-0.4967 0.62686,-1.77338 0.28926,-2.83708 z m -0.75667,-12.81839 C 271.40662,165.85902 269,164.91102 269,168.33488 c 0,1.37585 0.28475,3.2436 0.63278,4.15055 0.95539,2.48971 2.5804,0.24213 2.1954,-3.03649 z M 245,170.95217 c 0,-0.9708 -1.7856,-1.45593 -8.96246,-2.43499 -4.87256,-0.66471 -4.73429,0.34734 0.28423,2.08031 3.97474,1.37254 8.67823,1.56477 8.67823,0.35468 z M 264.5,171 c -0.33992,-0.55 -1.06803,-1 -1.61803,-1 -0.55,0 -0.72189,0.45 -0.38197,1 0.33992,0.55 1.06803,1 1.61803,1 0.55,0 0.72189,-0.45 0.38197,-1 z m -19,-6.5 c 0,-1.69052 -0.54159,-1.94194 -3.5,-1.62477 -3.40256,0.36478 -6.45224,0.64735 -10.45,0.96825 -2.99313,0.24025 -0.58689,1.94739 3.45,2.44765 7.29558,0.90409 10.5,0.35747 10.5,-1.79113 z m 11.86163,-2 c 0.31658,-0.825 0.31658,-2.175 0,-3 C 256.55437,157.39632 254,157.62428 254,159.8 c 0,0.99 -0.54,2.34 -1.2,3 -0.93333,0.93333 -0.62378,1.2 1.39301,1.2 1.42616,0 2.85203,-0.675 3.16862,-1.5 z m -12.18737,-6.72574 c -0.55,-0.55 -1.53725,-0.66795 -2.19389,-0.26213 -0.90708,0.56061 -0.87942,0.93223 0.11512,1.54689 1.70594,1.05432 3.38199,0.0185 2.07877,-1.28476 z M 238,156.55902 c 0,-1.05548 -1.91911,-1.49891 -2.48992,-0.57533 -0.34546,0.55897 0.0734,1.01631 0.9309,1.01631 C 237.29844,157 238,156.80156 238,156.55902 Z M 245.5,151.5 c 0,-0.55 -2.925,-1.13626 -6.5,-1.3028 -4.15483,-0.19356 -6.1392,0.042 -5.5,0.65293 2.18878,2.0919 12,2.62324 12,0.64987 z m 27.2794,-2.57833 c 0.27057,-2.34514 0.23106,-2.36032 -1.25,-0.48054 -1.85195,2.35051 -1.9804,3.87406 -0.2794,3.31388 0.6875,-0.22642 1.37573,-1.50142 1.5294,-2.83334 z M 241,139 c 0,-0.55 -0.45,-1 -1,-1 -0.55,0 -1,0.45 -1,1 0,0.55 0.45,1 1,1 0.55,0 1,-0.45 1,-1 z m 159.75496,-11.07701 0.25496,-3.42299 -1.50496,3.36481 c -1.82617,4.08297 -1.84788,4.41443 -0.25496,3.89151 0.6875,-0.22569 1.36473,-1.95069 1.50496,-3.83333 z m 3.83793,-10.70807 c 0.3687,-2.04321 1.09259,-4.53162 1.60865,-5.52982 1.98043,-3.83066 3.64446,-16.731129 1.95597,-15.163715 -0.60515,0.561762 -1.23868,1.911762 -1.40783,3 -0.16914,1.088235 -0.61246,2.466485 -0.98513,3.062775 -0.37267,0.59628 -0.94041,2.62128 -1.26162,4.5 -0.32122,1.87871 -1.01328,4.99084 -1.53791,6.91584 -1.22985,4.51267 -1.23174,8.28287 -0.004,7.52394 0.5287,-0.32676 1.26293,-2.26581 1.63162,-4.30902 z M 214.5,119 c 0.33992,-0.55 0.14148,-1 -0.44098,-1 -0.58246,0 -1.05902,0.45 -1.05902,1 0,0.55 0.19844,1 0.44098,1 0.24254,0 0.7191,-0.45 1.05902,-1 z m -23,-2 c -0.33992,-0.55 -1.06803,-1 -1.61803,-1 -0.55,0 -0.72189,0.45 -0.38197,1 0.33992,0.55 1.06803,1 1.61803,1 0.55,0 0.72189,-0.45 0.38197,-1 z m 46.32368,-4.49035 c 0.29864,-0.29864 -0.01,-1.09547 -0.68476,-1.77073 -0.88987,-0.88987 -6.71943,-1.22159 -21.18333,-1.20541 C 204.98002,109.54579 196,109.26465 196,108.90876 c 0,-1.0757 -7.29487,-1.90876 -8.43677,-0.96347 -1.6444,1.36127 -20.37329,1.64465 -21.68976,0.32818 C 164.66948,107.06948 162,107.64392 162,109.10699 c 0,0.49115 1.05,0.89301 2.33333,0.89301 1.28334,0 2.67084,0.3375 3.08334,0.75 0.4125,0.4125 2.4,0.83513 4.41666,0.93919 6.6557,0.3434 17.65952,1.49606 18.06919,1.89276 0.6132,0.59376 47.29977,-0.45091 47.92116,-1.0723 z m -77.29669,-4.46598 c -0.32507,-0.52598 -1.25163,-0.70283 -2.05902,-0.39301 -2.06711,0.79323 -1.82352,1.34934 0.59105,1.34934 1.13246,0 1.79305,-0.43035 1.46797,-0.95633 z m 111.4127,-3.47431 c 0.79183,-0.50702 3.49283,-0.9941 6.00222,-1.0824 2.50939,-0.0883 5.46153,-0.64519 6.56031,-1.23755 1.09878,-0.59237 4.47278,-1.60382 7.49778,-2.24767 6.29996,-1.340918 15.80578,-5.422469 10.5,-4.508431 -8.17804,1.408848 -9.5,1.350531 -9.5,-0.419083 0,-1.245583 2.85613,-2.91668 10.25,-5.997177 6.86638,-2.86073 11.35081,-5.419557 13.58467,-7.751449 3.24498,-3.387389 3.28601,-3.534774 1.52534,-5.480288 -1.65065,-1.823952 -10.7721,-6.688689 -13.65862,-7.28455 -3.52965,-0.72862 -7.31954,-1.925593 -8.20139,-2.59027 -1.66337,-1.253736 -12.55287,-3.18993 -14.73352,-2.619676 -1.12119,0.293199 -3.88982,-0.07146 -6.15251,-0.810341 C 273.35129,61.801588 264.975,60.930773 257,60.605331 c -16.08839,-0.656533 -22.32224,-1.211012 -29,-2.57945 -2.475,-0.507189 -8.325,-1.184049 -13,-1.504134 -4.675,-0.320085 -11.31291,-0.771291 -14.75091,-1.00268 -3.438,-0.231388 -7.00017,-0.840011 -7.91592,-1.352495 -0.91576,-0.512483 -2.82785,-0.627394 -4.24909,-0.255357 -1.42125,0.372037 -4.60908,0.55944 -7.08408,0.41645 -16.08294,-0.929169 -63.46936,-1.217449 -68.5,-0.416726 -3.3,0.525259 -12.975,1.160529 -21.5,1.411712 -13.057205,0.384721 -16.997197,0.890286 -25,3.207908 -5.225,1.513167 -11.3,3.590264 -13.5,4.615771 -5.916577,2.757952 -16.071687,12.962103 -16.869449,16.950915 -0.933484,4.667419 0.586483,5.599105 4.528329,2.77571 4.992465,-3.575913 7.280905,-4.613794 13.927534,-6.316581 C 62.722347,74.34395 73.740074,74.532568 80,77 c 2.790722,1.1 5.809448,2 6.70828,2 0.898831,0 2.344672,0.630521 3.212979,1.401157 0.868308,0.770636 6.723076,3.102472 13.010601,5.181857 6.28752,2.079384 12.33389,4.682737 13.43638,5.785227 1.5763,1.576299 3.38894,2.018118 8.4849,2.068144 4.41928,0.04338 6.61971,0.481733 6.91849,1.378239 0.24097,0.723043 1.56793,1.744176 2.9488,2.269185 5.14715,1.95694 37.32648,5.861831 52.77957,6.404681 8.8,0.30914 22.49162,0.77981 30.42583,1.04595 7.9342,0.26613 14.61596,0.67401 14.84834,0.9064 0.84571,0.84571 37.76676,0.0242 39.16552,-0.87148 z m -37.07783,-5.829772 c 0.41743,-0.418226 8.83178,-0.9885 18.69855,-1.267275 17.83409,-0.503883 20.83244,-0.7043 29.11214,-1.945918 3.41533,-0.51216 4.32745,-0.342713 4.32745,0.803924 0,0.799076 -1.2375,1.829658 -2.75,2.290182 -3.43552,1.046045 -50.42643,1.159352 -49.38814,0.119087 z M 202.5,86.430672 C 201.95,86.227035 197,85.887257 191.5,85.675609 177.0922,85.121176 166.07534,84.158722 160.42591,82.960917 157.71666,82.386495 151.9,81.533758 147.5,81.065945 c -7.72132,-0.820939 -19.72282,-2.490172 -27.97605,-3.891059 -3.15339,-0.535249 -4.1777,-1.24834 -4.95063,-3.446474 -0.81277,-2.31141 -0.60448,-3.141582 1.25451,-5 1.92418,-1.923592 3.21691,-2.210815 9.45063,-2.099768 3.97185,0.07075 10.37154,0.471769 14.22154,0.891143 5.6137,0.611492 35.72204,0.848269 67.5,0.530831 2.475,-0.02472 14.19851,0.0703 26.05224,0.211164 18.64466,0.221562 22.11855,0.511486 25.75,2.149041 2.30877,1.041109 4.19776,2.274582 4.19776,2.741051 0,0.466469 0,1.185626 0,1.598126 0,0.4125 -0.3375,0.787707 -0.75,0.833794 -1.32692,0.148251 -6.66873,2.384125 -9.48104,3.96839 -1.84488,1.039284 -3.30502,1.244009 -4.5,0.630944 -3.85331,-1.976879 -14.4984,-2.260918 -19.08511,-0.50924 -3.65781,1.396933 -4.1512,1.876815 -2.88304,2.804116 1.09027,0.797226 3.71069,0.842274 9.11762,0.156742 7.1248,-0.903336 9.83317,-0.553012 8.21727,1.062892 -2.14704,2.147032 -29.96959,4.189163 -31.14578,2.28605 -0.34546,-0.558971 -1.03485,-0.764937 -1.53197,-0.457701 -1.1902,0.735588 -7.18329,1.376625 -8.45795,0.904685 z M 159.5,78 c -0.33992,-0.55 -1.26648,-1 -2.05902,-1 C 156.64844,77 156,77.45 156,78 c 0,0.55 0.92656,1 2.05902,1 1.13246,0 1.7809,-0.45 1.44098,-1 z m -5.23108,-3.123138 c 3.97709,0.629836 12.63108,1.174159 19.23108,1.209606 6.6,0.03545 24.68592,0.142992 40.19093,0.23899 15.50502,0.096 29.23002,-0.08059 30.5,-0.39242 6.75918,-1.659629 -16.02826,-4.413937 -33.19093,-4.011771 -4.675,0.109547 -8.95,0.1715 -9.5,0.137674 -0.55,-0.03383 -9.55,-0.287461 -20,-0.563632 -10.45,-0.276172 -21.025,-0.929376 -23.5,-1.451565 -3.39833,-0.716999 -5.64403,-0.58034 -9.17304,0.558215 -5.37993,1.735711 -7.34119,3.626337 -6.36454,6.135306 0.62109,1.595571 0.87058,1.536642 2.63079,-0.621412 1.89926,-2.328523 2.11333,-2.357429 9.17571,-1.238991 z m -2.53975,2.518971 c -0.3323,-0.332291 -1.1948,-0.367818 -1.91667,-0.07895 -0.79773,0.319226 -0.56078,0.556183 0.60417,0.604167 1.05416,0.04342 1.64479,-0.192928 1.3125,-0.52522 z m 161.24452,13.135871 c 1.12862,-1.359903 1.04831,-1.483953 -0.58225,-0.899362 C 309.86882,90.536762 308,92.03698 308,93.157628 c 0,1.170265 3.24499,-0.54297 4.97369,-2.625924 z M 279,541.5 c 0,-0.825 0.45,-1.5 1,-1.5 0.55,0 1,0.675 1,1.5 0,0.825 -0.45,1.5 -1,1.5 -0.55,0 -1,-0.675 -1,-1.5 z m 18.25,0.8595 c -0.6875,-0.28939 -1.25,-1.19083 -1.25,-2.0032 0,-1.0953 0.96917,-1.39682 3.75,-1.16667 2.52873,0.20929 3.75,0.79888 3.75,1.81037 0,1.52164 -3.86668,2.36272 -6.25,1.3595 z m -11.07669,-2.06833 c 1.47827,-1.78121 4.82669,-1.62531 4.82669,0.22471 0,1.06264 -0.88179,1.4487 -2.94913,1.29117 -2.28426,-0.17405 -2.70755,-0.5158 -1.87756,-1.51588 z" id="path12"/>
</svg>
