<?xml version="1.0" encoding="utf-8"?>
<svg xmlns="http://www.w3.org/2000/svg" version="1.1" viewBox="0 0 798 886">
	<path d="m 19.435384,873.69221 c -0.680706,-1.77389 2.108532,-13.43774 3.660672,-15.30795 0.685869,-0.82642 1.366995,-2.62774 1.513614,-4.00293 0.571918,-5.36422 8.477263,-16.8649 22.89033,-33.30081 2.75,-3.13595 6.6875,-7.62364 8.75,-9.97264 2.0625,-2.34899 3.75,-4.65207 3.75,-5.11796 0,-0.46588 0.5625,-1.44231 1.25,-2.16983 2.400751,-2.54052 8.75,-10.6611 8.75,-11.1911 0,-0.66269 12.946775,-18.98518 16.440054,-23.26624 C 87.848024,767.63727 89,765.92395 89,765.55538 89,764.6978 97.655764,752.15705 100.12609,749.43555 101.15674,748.3001 102,747.03791 102,746.63068 c 0,-1.6515 8.361,-12.91232 9.88267,-13.31025 0.90059,-0.23551 3.43292,-3.20279 5.62738,-6.59395 2.19447,-3.39116 6.23995,-8.96797 8.98995,-12.3929 2.75,-3.42493 7.475,-9.67747 10.5,-13.89454 8.77994,-12.23986 9.13817,-12.72294 16.73375,-22.56542 3.97856,-5.15549 9.92006,-12.52362 13.20333,-16.37362 3.28328,-3.85 5.99922,-7.45 6.03544,-8 0.0362,-0.55 1.63222,-2.79508 3.54666,-4.98907 1.91445,-2.19399 3.48082,-4.29935 3.48082,-4.67857 0,-0.37923 0.64933,-1.33883 1.44295,-2.13245 0.79362,-0.79362 2.49082,-2.98708 3.77156,-4.87435 3.07577,-4.5324 8.79847,-11.6221 16.84042,-20.86315 3.60774,-4.14567 8.55705,-10.22067 10.99846,-13.5 6.7238,-9.03149 21.015,-26.55653 24.58533,-30.14856 2.86954,-2.88697 17.55198,-21.37981 26.36128,-33.20258 1.925,-2.5835 6.27965,-8.12046 9.677,-12.30436 3.39735,-4.18389 8.31822,-10.68954 10.93527,-14.457 5.40733,-7.78428 10.08961,-13.67033 22.88773,-28.77189 5.14665,-6.07295 9.5,-12.54043 9.5,-14.11349 0,-0.67898 1.0125,-1.90056 2.25,-2.71462 1.2375,-0.81405 7.875,-8.57123 14.75,-17.23817 19.69347,-24.82648 26.17746,-32.77112 28.53905,-34.96807 1.20825,-1.12402 3.10308,-3.53779 4.21073,-5.36394 1.10765,-1.82615 3.82932,-5.42615 6.04816,-8 2.21885,-2.57385 6.88452,-8.05473 10.36816,-12.17973 3.48365,-4.125 9.7089,-11.47312 13.8339,-16.32916 4.125,-4.85604 8.96762,-10.66128 10.76138,-12.90052 1.79376,-2.23925 5.11987,-6.14112 7.39135,-8.67084 2.27148,-2.52971 6.1495,-6.84948 8.61782,-9.59948 2.46832,-2.75 6.15247,-6.8 8.18699,-9 2.03453,-2.2 6.47851,-7.55128 9.87551,-11.89173 5.48365,-7.00661 19.00572,-21.9225 33.66695,-37.13723 2.75,-2.85382 8.825,-9.22152 13.5,-14.15044 4.675,-4.92893 12.55,-13.2321 17.5,-18.4515 4.95,-5.2194 12.15,-13.03794 16,-17.37455 3.85,-4.33661 12.175,-13.11473 18.5,-19.50694 6.325,-6.3922 16.61337,-17.10441 22.86304,-23.8049 C 573.8269,179.5001 578,176.12614 578,178.75294 c 0,0.74431 -9.76508,11.86197 -18.16457,20.6806 -2.38449,2.50347 -7.03543,7.55936 -10.33543,11.2353 -8.57524,9.55216 -18.42767,20.15697 -30.5,32.82915 -5.775,6.06194 -11.97426,12.59228 -13.77614,14.51186 -1.80188,1.91958 -5.51438,5.7272 -8.25,8.46136 C 494.23824,269.20538 492,271.97956 492,272.63605 492,273.92886 482.88187,281 481.2148,281 c -0.55949,0 -1.91631,1.4625 -3.01516,3.25 -1.09884,1.7875 -7.04793,8.875 -13.22018,15.75 -13.97748,15.56889 -35.85657,40.56805 -42.45613,48.5106 -2.73717,3.29417 -7.98994,9.3644 -11.67283,13.4894 -3.68288,4.125 -9.28707,10.875 -12.45376,15 -3.16668,4.125 -9.0165,11.325 -12.99959,16 -11.63362,13.65451 -27.39201,32.83503 -34.40247,41.87339 -3.57207,4.60536 -10.09468,12.84264 -14.49468,18.30506 -4.4,5.46242 -9.50009,12.04439 -11.33354,14.62661 -1.83345,2.58222 -5.47038,7.16994 -8.08206,10.19494 -9.81478,11.36804 -22.09782,27.16802 -31.5689,40.60788 -5.38439,7.64067 -11.21596,15.46712 -12.95904,17.39212 -1.74308,1.925 -6.0411,7.325 -9.55115,12 -3.51004,4.675 -7.61507,9.85 -9.12227,11.5 -1.50721,1.65 -6.53727,7.77115 -11.17792,13.60256 -14.07334,17.68447 -21.16098,26.36526 -22.06443,27.02401 -0.47262,0.34462 -2.94762,3.54766 -5.5,7.11787 -2.55238,3.57021 -7.04741,9.36325 -9.98896,12.87342 -2.94154,3.51018 -6.76654,8.11395 -8.5,10.2306 -1.73345,2.11666 -5.17673,6.20571 -7.65173,9.08678 -4.13803,4.81695 -12.24289,15.44229 -21.02999,27.56997 -1.94149,2.67959 -4.64155,6.13711 -6.00011,7.68339 -2.15936,2.4577 -4.7045,5.82296 -15.6066,20.63557 -1.28558,1.7467 -2.82468,4.37725 -3.42023,5.84566 -0.59555,1.4684 -1.7549,2.92772 -2.57633,3.24293 -0.82143,0.31521 -1.22738,1.00371 -0.90211,1.53 0.32526,0.52629 -0.34284,1.45688 -1.48468,2.06797 -1.40179,0.75022 -1.88449,1.71467 -1.48622,2.96952 0.41615,1.31116 -0.0235,2.05312 -1.49303,2.51953 -1.2539,0.39797 -2.31526,1.82304 -2.66679,3.58065 C 132.01276,718.68619 131.183,720 130.49001,720 129.19639,720 126,724.18312 126,725.87609 c 0,0.52055 -2.475,3.48151 -5.5,6.5799 -3.025,3.0984 -5.5,6.28832 -5.5,7.08873 0,0.8004 -0.65385,1.45528 -1.453,1.45528 -0.81421,0 -1.8847,1.56351 -2.43497,3.55643 -0.54009,1.95603 -2.38995,5.21853 -4.1108,7.25 -6.38851,7.54163 -9.579142,11.92182 -11.978043,16.44379 -2.529884,4.76888 -2.287897,7.04429 0.502835,4.72818 1.318948,-1.09463 1.850115,-1.00496 3.274166,0.55273 1.081804,1.18333 1.154451,1.45858 0.199812,0.75707 -1.260126,-0.92599 -1.537625,-0.45983 -1.73528,2.915 -0.189788,3.24052 0.02135,3.80427 1.092009,2.9157 0.730009,-0.60585 1.597477,-0.83136 1.927701,-0.50113 1.02858,1.02857 6.71557,-3.65758 6.71557,-5.5337 0,-0.97887 3.2625,-6.11809 7.25,-11.42051 10.89556,-14.48847 17.75,-24.36619 17.75,-25.57897 0,-1.48447 4.73507,-1.37938 5.23358,0.11616 0.29786,0.89358 0.58215,0.90641 1.11134,0.0502 0.40572,-0.65646 -0.15983,-1.61668 -1.31691,-2.23593 -2.81072,-1.50425 -2.59249,-2.32554 1.92027,-7.2268 2.17156,-2.35851 6.33406,-7.73575 9.25,-11.94944 5.44897,-7.87404 15.23855,-20.96571 19.75296,-26.41576 1.40182,-1.69236 3.89876,-4.79573 5.54876,-6.89639 1.65,-2.10065 4.3975,-5.441 6.10556,-7.42299 1.70805,-1.98198 8.31095,-11.47861 14.6731,-21.10361 13.42756,-20.31394 22.08729,-32.80614 25.97134,-37.46526 1.5125,-1.81432 2.75,-3.72518 2.75,-4.24634 0,-0.52117 2.40334,-3.61176 5.34076,-6.86799 2.93741,-3.25622 7.09991,-8.2078 9.25,-11.00349 2.15008,-2.79569 6.96999,-8.87069 10.7109,-13.5 3.74092,-4.62931 8.01592,-9.92644 9.5,-11.77142 1.48409,-1.84497 4.07375,-4.99497 5.75481,-7 1.68106,-2.00502 4.15606,-5.05191 5.5,-6.77085 2.80043,-3.58185 17.38385,-20.76454 19.81851,-23.35086 0.89376,-0.94943 3.87502,-4.70435 6.62502,-8.34426 2.75,-3.63991 5.73721,-6.87122 6.63823,-7.18069 1.46701,-0.50386 5.46319,-5.53814 8.46897,-10.66899 0.60897,-1.03949 3.30897,-4.25654 6,-7.149 2.69104,-2.89245 5.7928,-6.53151 6.8928,-8.0868 1.1,-1.55529 3.4625,-4.61778 5.25,-6.80554 1.7875,-2.18775 3.25,-4.38038 3.25,-4.87251 0,-0.49212 3.51469,-5.06205 7.81041,-10.15538 4.29573,-5.09334 9.77586,-12.18562 12.17807,-15.76062 4.36517,-6.49631 13.68671,-19.06617 22.72013,-30.63754 10.68776,-13.69051 44.20983,-55.21554 45.99496,-56.97568 C 422.79116,363.32842 429,353.7643 429,352.60693 c 0,-0.9473 17.41806,-22.7313 22.38221,-27.99245 2.13522,-2.26296 5.51022,-6.10736 7.5,-8.5431 1.98979,-2.43575 4.98462,-5.81075 6.65519,-7.5 1.67057,-1.68926 5.87284,-6.44638 9.33838,-10.57138 7.10385,-8.45566 12.3534,-14.3114 22.01487,-24.55703 4.0023,-4.24429 6.72757,-8.02482 6.83758,-9.48519 0.1006,-1.33549 0.6529,-2.58482 1.22734,-2.7763 C 505.53001,260.99 506,260.19583 506,259.41667 506,258.6375 506.47639,258 507.05864,258 c 1.5476,0 9.07021,-6.22586 9.80932,-8.11838 1.21706,-3.11635 22.83167,-26.3693 30.69432,-33.02088 4.75966,-4.02655 15.3512,-15.63668 16.74989,-18.36074 0.8472,-1.65 6.07354,-7.93501 11.6141,-13.9667 C 581.46682,178.50162 586,173.21412 586,172.7833 c 0,-1.65098 -1.91633,-0.66917 -3.83509,1.96487 -2.36254,3.24324 -4.07959,2.32945 -2.20491,-1.17342 1.25159,-2.33863 60.95136,-61.97688 72.0743,-72.00003 3.00613,-2.708905 8.64049,-7.883905 12.52079,-11.500001 C 668.43539,86.458624 674.70157,81.025 678.47994,78 c 3.77837,-3.025 9.23434,-7.525 12.12438,-10 2.89004,-2.475 7.56163,-6.075 10.38131,-8 2.81968,-1.925 7.68892,-5.464638 10.82053,-7.865863 6.05129,-4.639945 15.47843,-10.880532 18.10934,-11.98804 C 730.78697,39.77924 735.325,36.977247 740,33.919446 750.73749,26.896322 770.76459,17 774.23973,17 c 3.95298,0 4.15605,1.550112 0.50907,3.885714 -2.91578,1.867322 -3.01816,2.082319 -0.9988,2.097439 C 774.9875,22.992419 776,22.55 776,22 c 0,-1.226819 4.67296,-1.338175 5.42017,-0.129162 0.29602,0.478961 1.88558,1.140311 3.53236,1.469667 4.90251,0.980503 5.07803,4.691819 0.42925,9.076679 -2.08693,1.968454 -4.60157,3.835189 -5.5881,4.148299 C 778.80716,36.878594 778,37.511495 778,37.971929 c 0,0.460435 -2.475,2.233958 -5.5,3.941162 -5.74153,3.240319 -7.08911,4.706292 -3.25,3.535535 2.17435,-0.663079 2.16164,-0.589692 -0.37781,2.182612 -1.4453,1.577819 -3.14863,3.881262 -3.78519,5.118762 -0.63655,1.2375 -1.98978,2.25 -3.00717,2.25 -1.0174,0 -2.58795,1.126541 -3.49012,2.503425 -0.90217,1.376883 -3.37389,3.597788 -5.49271,4.935344 -2.11883,1.337556 -6.63284,5.161015 -10.03113,8.496575 -3.39829,3.335561 -6.71582,6.067428 -7.37229,6.070817 -0.65647,0.0034 0.11165,0.686839 1.70693,1.51878 2.62181,1.367283 3.07594,1.35385 4.72642,-0.139807 1.00425,-0.908835 1.54199,-2.111815 1.19498,-2.673289 -0.36955,-0.597946 -0.13474,-0.714202 0.5668,-0.280627 0.68072,0.420708 2.66106,-0.375907 4.58778,-1.845492 C 752.26132,70.698898 754,70.319813 754,72.381432 754,74.765905 740.74223,89.234234 732.81575,95.5 721.34004,104.57139 700.15143,119.44826 676,135.39129 c -4.125,2.72303 -7.725,5.21145 -8,5.52984 -1.10651,1.28106 -6.71715,4.85996 -10.21163,6.51376 -3.90581,1.84847 -11.37029,8.31652 -10.54739,9.13942 0.68124,0.68124 5.43318,-1.23808 6.2209,-2.51263 0.36088,-0.58392 1.33462,-1.06168 2.16386,-1.06168 0.82924,0 2.98265,-1.125 4.78537,-2.5 1.80272,-1.375 3.61584,-2.5 4.02916,-2.5 0.77314,0 16.10125,-9.73903 20.55973,-13.06306 1.375,-1.02513 7.45,-4.86969 13.5,-8.54346 21.94515,-13.32587 29.042,-17.81284 31.24606,-19.75526 2.56355,-2.25925 3.89381,-1.69696 2.42761,1.02613 C 730.70253,110.39661 715.65565,123 713.86481,123 c -1.17737,0 -10.69596,6.90042 -11.6195,8.42345 -0.40992,0.67601 -3.89531,3.63893 -7.74531,6.58427 -3.85,2.94534 -7.41965,5.71566 -7.93255,6.15627 -1.37317,1.17962 4.72439,-0.70479 7.11848,-2.19992 1.12702,-0.70384 2.79948,-0.99178 3.71657,-0.63986 1.51156,0.58004 1.5274,0.91067 0.16946,3.53664 -0.8239,1.59323 -2.18963,3.1622 -3.03497,3.48658 C 693.69164,148.67182 693,149.51679 693,150.22514 693,151.37099 686.71691,154 683.97844,154 c -0.57917,0 -3.02112,2.025 -5.42655,4.5 -2.40542,2.475 -4.83791,4.5 -5.40553,4.5 C 671.53714,163 665,167.09157 665,168.09878 665,168.59445 664.35953,169 663.57673,169 c -0.78281,0 -2.69531,1.03002 -4.25,2.28893 -1.5547,1.25891 -4.15731,2.86667 -5.78357,3.5728 -1.62627,0.70614 -3.56429,2.15112 -4.30671,3.21108 C 648.49403,179.13276 647.01211,180 645.9433,180 644.87448,180 644,180.43844 644,180.97432 c 0,0.53588 -1.31811,1.65594 -2.92913,2.48903 -1.61102,0.83309 -3.22668,2.4522 -3.59034,3.598 -0.41234,1.29918 -1.21312,1.87151 -2.12755,1.52061 -0.82125,-0.31515 -2.43872,0.48653 -3.67665,1.82227 -1.21566,1.31173 -4.11516,3.37783 -6.44332,4.59133 C 622.90486,196.20907 621,197.6065 621,198.10097 621,198.59544 620.325,199 619.5,199 c -0.825,0 -1.5,0.45 -1.5,1 0,0.55 -0.85186,1 -1.89301,1 -1.76972,0 -3.72013,2.72019 -2.68944,3.75088 0.25555,0.25555 3.75364,-1.56844 7.77354,-4.05331 4.0199,-2.48487 9.10891,-5.57602 11.30891,-6.86923 9.03407,-5.31043 11.025,-6.54933 18.41497,-11.45908 11.03608,-7.33216 17.72437,-8.44007 14.61146,-2.42038 -1.3024,2.51858 -9.52643,10.02322 -9.52643,8.69313 0,-0.63655 -5.63704,2.60712 -12.75932,7.34197 -4.89574,3.25466 -6.42784,5.01602 -4.36312,5.01602 0.48265,0 1.48878,-0.73648 2.23583,-1.63663 1.65731,-1.99693 9.93366,-5.6621 10.77815,-4.77308 0.33465,0.35231 -0.92758,1.82612 -2.80496,3.27513 -1.87738,1.44902 -5.52405,4.54708 -8.10371,6.88458 -2.57965,2.3375 -5.34692,4.25 -6.14948,4.25 -1.69526,0 -6.83339,5.0722 -6.83339,6.7457 0,1.82654 -1.96769,2.526 -3.50856,1.2472 -1.12,-0.92952 -2.06422,-0.72123 -4.45823,0.98345 -1.6705,1.1895 -3.5022,3.03144 -4.07043,4.09319 -0.56823,1.06175 -1.86972,1.93046 -2.89221,1.93046 -1.02248,0 -3.31202,1.35726 -5.08785,3.01614 -1.77584,1.65888 -4.52343,3.78091 -6.10576,4.71561 -1.58233,0.93471 -2.87696,2.04089 -2.87696,2.45818 0,0.41729 -1.4625,1.50767 -3.25,2.42306 -1.7875,0.91539 -4.73944,2.96186 -6.55987,4.5477 -1.82043,1.58584 -3.68371,2.6523 -4.14062,2.36991 -0.45691,-0.28238 -1.56534,0.60771 -2.46318,1.97799 -0.89784,1.37027 -2.56419,2.49141 -3.703,2.49141 -1.21794,0 -2.28237,0.80993 -2.58492,1.96688 -0.28289,1.08179 -1.25326,2.22386 -2.15638,2.53794 -2.55703,0.88928 -10.64172,8.32882 -9.87946,9.09109 0.37455,0.37455 2.6062,-0.75511 4.95922,-2.51036 11.10245,-8.28192 31.40509,-20.43419 32.75023,-19.60284 1.47619,0.91233 -2.64284,5.98691 -4.9729,6.12653 -3.52849,0.21143 -4.98604,1.25763 -4.32293,3.10291 0.35336,0.98332 0.29447,1.47405 -0.13086,1.09052 -0.42533,-0.38353 -3.17781,1.07897 -6.11663,3.25 -2.93881,2.17103 -5.60703,3.94733 -5.92936,3.94733 -0.32234,0 -3.08824,2.44296 -6.14645,5.42881 -3.05821,2.98584 -6.142,5.20561 -6.85288,4.93282 -0.71087,-0.27279 -1.90169,0.36284 -2.64626,1.4125 -0.74456,1.04966 -2.47875,2.5013 -3.85375,3.22587 -1.375,0.72457 -3.08802,2.14598 -3.8067,3.1587 -0.71869,1.01271 -2.11145,1.8413 -3.09502,1.8413 -2.00321,0 -5.09828,2.9859 -5.09828,4.91845 0,1.66017 -3.69097,4.82691 -7.75,6.64926 -1.7875,0.80252 -3.25,1.90309 -3.25,2.44571 0,0.54262 -0.675,0.98658 -1.5,0.98658 -0.825,0 -2.30726,0.7875 -3.2939,1.75 -0.98665,0.9625 -4.13578,3.325 -6.99807,5.25 -5.00976,3.36926 -6.36828,5 -4.16533,5 1.25872,0 10.90602,-7.02836 12.83093,-9.34773 0.75419,-0.90875 1.92364,-1.65227 2.59878,-1.65227 0.67513,0 2.98253,-1.26411 5.12755,-2.80914 2.14502,-1.54503 4.57504,-3.11671 5.40004,-3.49263 0.825,-0.37592 5.29959,-3.1618 9.94354,-6.19086 4.64395,-3.02905 8.80645,-5.50737 9.25,-5.50737 2.87724,0 -3.36263,9.51469 -7.09261,10.81497 -1.49705,0.52187 -3.36969,1.57113 -4.16142,2.33168 -0.79173,0.76055 -3.62307,2.50119 -6.29186,3.86809 -2.66879,1.36689 -5.07943,3.04776 -5.35699,3.73526 -0.27755,0.6875 -1.47325,1.25 -2.6571,1.25 -1.18386,0 -2.71453,0.9 -3.40149,2 -0.68696,1.1 -1.85046,2 -2.58556,2 -0.73509,0 -2.15102,0.9 -3.14651,2 -0.99549,1.1 -2.23797,2 -2.76108,2 -0.52311,0 -2.59087,1.27501 -4.59502,2.83335 -2.00414,1.55834 -6.7939,5.00258 -10.6439,7.65388 -3.85,2.6513 -7.225,5.13392 -7.5,5.51695 -0.275,0.38303 -1.625,1.27758 -3,1.98789 -1.375,0.71031 -8.125,4.96477 -15,9.45435 -6.875,4.48959 -13.7375,8.93616 -15.25,9.88129 -1.5125,0.94512 -2.75,2.15802 -2.75,2.69534 0,1.49583 2.60221,1.16118 3.99197,-0.51337 0.68027,-0.81968 5.34787,-3.82677 10.37244,-6.68243 5.02458,-2.85566 10.52807,-6.23502 12.22998,-7.50968 1.70192,-1.27466 3.36531,-2.31757 3.69642,-2.31757 0.33112,0 3.28937,-1.575 6.57388,-3.5 3.28451,-1.925 6.48024,-3.5 7.10161,-3.5 0.62138,0 3.47066,-1.48986 6.33174,-3.3108 2.86108,-1.82094 5.87696,-3.61852 6.70196,-3.99461 0.825,-0.3761 3.68664,-2.26124 6.35919,-4.1892 4.31171,-3.11044 8.64081,-4.56993 8.64081,-2.91312 0,1.37117 -4.37507,6.02044 -6.97085,7.40773 -6.88333,3.67873 -12.7227,7.53961 -15.02915,9.93698 -3.55086,3.69083 -8.53017,7.06302 -10.42912,7.06302 -0.89121,0 -2.04811,1.125 -2.57088,2.5 -0.52277,1.375 -1.6046,2.5 -2.40405,2.5 -0.79945,0 -3.12353,1.575 -5.16463,3.5 -2.04109,1.925 -4.41313,3.5 -5.2712,3.5 -1.17878,0 -1.27808,0.28204 -0.40625,1.15387 0.87183,0.87183 1.95955,0.55287 4.45,-1.30491 1.81287,-1.35233 5.25547,-3.02867 7.65022,-3.7252 2.39475,-0.69653 4.98225,-1.50746 5.75,-1.80208 0.76775,-0.29461 1.39591,-0.12718 1.39591,0.37207 0,0.96421 -8.99305,5.79477 -10.23108,5.49555 -0.40209,-0.0972 -1.46635,0.94548 -2.36501,2.31701 C 500.50525,346.87784 499.14673,348 498.38499,348 497.62325,348 497,348.45 497,349 c 0,0.55 -0.675,1 -1.5,1 -0.825,0 -1.5,0.45 -1.5,1 0,0.55 0.15586,1 0.34636,1 0.42499,0 6.51121,-2.78247 8.89007,-4.06432 0.95504,-0.51462 2.61621,-0.93568 3.69149,-0.93568 1.98747,0 0.82103,1.34545 -8.17792,9.43302 -1.5125,1.35931 -2.75,2.97329 -2.75,3.58662 0,0.6503 -0.81235,0.8573 -1.94885,0.4966 -1.42018,-0.45075 -3.0478,0.48041 -6,3.43261 -2.22813,2.22813 -4.31918,4.05115 -4.64678,4.05115 -0.3276,0 -2.0151,1.0125 -3.75,2.25 -1.7349,1.2375 -5.29921,3.2452 -7.92069,4.46156 -5.65312,2.62303 -11.32812,6.78919 -12.14394,8.91517 -0.3212,0.83703 0.0791,2.18499 0.88961,2.99548 1.29814,1.29813 2.19926,0.9916 7.56784,-2.57431 3.35183,-2.22634 6.28742,-4.0479 6.52352,-4.0479 1.81832,0 -0.66971,3.23057 -6.82071,8.85633 -10.30082,9.42124 -42.75,42.07261 -42.75,43.01639 0,0.43413 -1.125,1.3914 -2.5,2.12728 -1.375,0.73588 -2.5,1.7617 -2.5,2.27961 C 420,437.52411 398.2385,459 396.97745,459 396.43985,459 396,459.435 396,459.96667 c 0,0.53166 -1.4625,2.46716 -3.25,4.3011 -1.7875,1.83394 -5.1362,5.44894 -7.44157,8.03333 -2.30536,2.5844 -4.66786,4.6989 -5.25,4.6989 -0.58213,0 -1.05843,0.65219 -1.05843,1.44931 0,1.5182 -5.87241,7.53806 -7.36122,7.54606 -0.47367,0.003 -2.94867,1.72258 -5.5,3.8223 -2.55133,2.09971 -6.32628,4.83642 -8.38878,6.08156 -2.0625,1.24514 -3.75,2.66563 -3.75,3.15665 0,0.49102 -1.31899,1.57483 -2.93108,2.40848 C 347.08669,503.52365 338.57889,512 340.49419,512 c 0.8282,0 2.50399,-1.0125 3.72399,-2.25 3.78698,-3.8413 8.99732,-7.75 10.33084,-7.75 0.70071,0 1.12326,0.7875 0.93901,1.75 -0.18426,0.9625 -0.36944,2.23671 -0.41152,2.83159 -0.0421,0.59487 -2.43901,2.58494 -5.32651,4.42237 -2.8875,1.83744 -6.0159,4.05073 -6.95199,4.91842 -2.96189,2.74544 -4.19193,3.61769 -8.54801,6.06155 -2.3375,1.3114 -4.25,2.75149 -4.25,3.20021 0,1.36371 1.59615,0.92137 4.27287,-1.18414 1.39842,-1.1 2.88618,-2 3.30612,-2 0.41994,0 1.47396,-0.62177 2.34227,-1.38172 1.99048,-1.74207 6.07874,-3.02871 6.07874,-1.91307 0,0.46199 -1.48897,1.64185 -3.30882,2.6219 -1.81985,0.98006 -5.08235,3.38271 -7.25,5.33923 -7.08247,6.39263 -16.88363,13.91649 -19.69118,15.11593 -1.5125,0.64617 -2.75,1.6345 -2.75,2.19629 0,0.56179 -0.675,1.02144 -1.5,1.02144 -0.825,0 -1.5,0.675 -1.5,1.5 0,0.825 -0.65917,1.5 -1.46482,1.5 -0.80565,0 -1.9671,0.93854 -2.58102,2.08565 -0.61391,1.1471 -1.37688,1.82496 -1.69549,1.50636 -0.3186,-0.31861 -1.22883,0.34808 -2.02273,1.48153 -0.7939,1.13344 -2.07176,1.8197 -2.83969,1.52502 C 298.59185,554.28988 298,554.6853 298,555.53138 298,556.33912 297.43325,557 296.74055,557 c -0.6927,0 -1.82152,0.9 -2.50848,2 -0.68696,1.1 -1.8077,2.00062 -2.49054,2.00138 -1.72115,0.002 -9.74153,7.26096 -9.74153,8.81681 0,0.69821 -0.57476,1.13749 -1.27726,0.97617 -1.90443,-0.43733 -15.09686,10.44827 -23.57859,19.45564 -1.42424,1.5125 -3.08012,2.75 -3.67974,2.75 -1.44524,0 -6.46441,5.2834 -6.46441,6.80472 0,0.6574 -0.5625,1.20449 -1.25,1.21575 -0.6875,0.0112 -4.13642,3.85526 -7.66426,8.54223 -3.52784,4.68697 -7.00631,8.8531 -7.72994,9.25806 -0.72362,0.40496 -2.38393,2.18424 -3.68959,3.95396 -1.30566,1.76972 -5.84798,6.90256 -10.09405,11.40632 -4.24606,4.50376 -8.59833,9.79298 -9.67171,11.75381 -2.82503,5.16074 -20.57695,28.31819 -27.15045,35.41787 -2.0625,2.22759 -3.75,4.62555 -3.75,5.3288 0,0.70324 -2.67549,4.23092 -5.94554,7.83929 -3.27005,3.60837 -6.22538,7.44234 -6.56739,8.51993 -0.34202,1.07759 -0.99606,1.95926 -1.45343,1.95926 -0.45738,0 -6.52411,8.4375 -13.48164,18.75 -17.03042,25.24263 -21.89435,32.03967 -24.148,33.74535 -1.0472,0.79257 -1.49676,1.45535 -0.99901,1.47285 0.49774,0.0175 0.2199,0.8193 -0.61743,1.7818 C 120.67187,763.18196 114,772.86514 114,773.50377 c 0,0.28835 -1.0125,2.08293 -2.25,3.98795 -1.66729,2.56664 -2.74114,3.31047 -4.14641,2.87212 -1.54187,-0.48096 -1.79364,-0.19859 -1.34672,1.51042 0.32901,1.25815 -0.21437,3.07329 -1.3536,4.52158 -1.0468,1.33079 -1.90327,2.77063 -1.90327,3.19965 0,0.42902 -1.95335,3.28305 -4.340775,6.34227 -2.387427,3.05923 -6.209989,8.67979 -8.494583,12.49012 -4.78318,7.97758 -26.988859,35.45272 -35.215414,43.57212 -3.236645,3.19449 -9.104114,7.38633 -13.997356,10 -4.633625,2.475 -10.787013,6.4125 -13.674195,8.75 -5.560453,4.50181 -7.031967,5.05389 -7.842293,2.94221 z M 290.97991,541.75 c 0.0314,-2.73466 -1.18029,-2.02944 -5.22991,3.04386 -5.21107,6.52836 -4.73571,8.58326 0.72991,3.15524 2.46394,-2.44701 4.48894,-5.2366 4.5,-6.1991 z m 9.94738,-8.25 c 3.70306,-3.575 6.97307,-6.5 7.26668,-6.5 0.29362,0 4.30759,-3.59848 8.91994,-7.99662 4.61235,-4.39815 8.8644,-7.99815 9.449,-8 0.5846,-0.002 2.34163,-1.33808 3.90452,-2.96938 l 2.84161,-2.96601 -2.90452,-1.21252 c -2.7411,-1.14429 -2.77792,-1.23452 -0.65452,-1.60354 1.2375,-0.21507 2.25,-0.8351 2.25,-1.37785 0,-1.35771 5.36542,-6.21575 12.25,-11.09157 3.1625,-2.23976 5.75,-4.68209 5.75,-5.4274 0,-0.74531 0.65934,-1.35511 1.4652,-1.35511 1.6844,0 8.86015,-6.00798 8.09255,-6.77558 -0.28018,-0.28018 -1.20617,0.0688 -2.05775,0.77558 -1.99444,1.65524 -2.26696,1.30955 -3.10651,-3.94068 -0.50909,-3.18368 -0.38612,-4.1728 0.45421,-3.65344 0.63377,0.39168 1.1523,0.1606 1.1523,-0.51353 0,-0.67413 0.25217,-0.97352 0.56037,-0.66531 0.30821,0.30821 2.22071,-0.96114 4.25,-2.82077 2.48319,-2.27558 4.29413,-3.18949 5.53835,-2.79499 1.51303,0.47973 1.72777,0.20508 1.18261,-1.51256 -0.62098,-1.95655 0.20971,-2.62433 2.7465,-2.20787 0.4278,0.0702 1.0587,-0.66397 1.402,-1.63157 C 372.67186,454.46317 375.16355,452 377,452 c 2.46739,0 5.24994,-3.35006 3.90208,-4.69792 -0.76083,-0.76083 -0.39668,-1.54267 1.25845,-2.70196 1.35813,-0.95128 2.47019,-1.20796 2.6676,-0.61573 0.18619,0.55858 0.82604,1.01561 1.42187,1.01561 0.59583,0 0.786,-0.29733 0.42259,-0.66074 -0.3634,-0.36341 0.3491,-1.1642 1.58334,-1.77953 2.63635,-1.31437 3.08428,-5.1226 0.58049,-4.93524 -0.91498,0.0685 -7.95089,5.62199 -15.63536,12.34117 C 360.55072,461.02691 353,466.82072 353,465.46632 c 0,-0.66848 13.26077,-13.46533 13.95808,-13.46977 0.84433,-0.005 14.5008,-11.98572 14.87525,-13.04954 C 382.01667,438.42615 381.62407,438 380.96089,438 c -0.92366,0 -0.9145,-0.35096 0.0391,-1.5 1.65381,-1.99272 3.09653,-1.91513 2.31387,0.12444 -0.55294,1.44094 -0.32148,1.42665 2.04887,-0.12646 1.90329,-1.24708 2.38466,-2.09741 1.67287,-2.95507 -0.72231,-0.87033 1.70499,-3.81549 8.75554,-10.62353 5.36519,-5.18066 10.75704,-10.20248 11.98187,-11.15959 C 410.04036,409.98804 410.81243,407 409.00288,407 407.41124,407 400,414.09305 400,415.61636 c 0,0.761 -0.45,1.38364 -1,1.38364 -2.96745,0 0.86597,-5.21366 8.45553,-11.5 3.98413,-3.3 8.549,-7.76392 10.14417,-9.91983 1.59516,-2.15591 5.7128,-7.07614 9.1503,-10.93385 6.02406,-6.76046 7.94211,-10.50962 4.75,-9.28469 -0.825,0.31658 -1.5,0.18472 -1.5,-0.29301 0,-1.04726 6.89699,-8.06862 7.92569,-8.06862 0.39912,0 1.78256,-1.125 3.07431,-2.5 2.00586,-2.13514 2.09566,-2.5 0.6153,-2.5 -2.2091,0 -1.38639,-1.31474 2.59811,-4.15196 2.55793,-1.82141 3.02993,-1.92455 2.50114,-0.54656 -0.8476,2.20883 -0.16786,2.1418 3.92365,-0.38689 1.85584,-1.14698 3.10178,-2.52629 2.76875,-3.06514 -0.356,-0.57603 -1.3887,-0.27095 -2.50623,0.74039 -1.04539,0.94608 -1.90072,1.26755 -1.90072,0.71438 0,-1.29146 14.65846,-14.5739 17.13047,-15.52241 1.02947,-0.395 2.62008,-0.43103 3.53469,-0.0801 1.14564,0.43963 1.42955,0.26052 0.91269,-0.57579 -1.19502,-1.93359 2.08955,-5.93894 7.72092,-9.41521 4.40583,-2.71974 4.85715,-3.25962 2.95123,-3.5303 -2.44075,-0.34664 -3.16558,-3.63288 -1,-4.53381 0.6875,-0.28601 0.28139,-0.41503 -0.90247,-0.28672 -1.18386,0.12832 -2.87136,0.82993 -3.75,1.55914 -0.87864,0.7292 -1.59753,0.91206 -1.59753,0.40633 0,-1.35694 6.9354,-7.67799 11.24381,-10.24781 2.0591,-1.22818 4.0841,-2.77878 4.5,-3.44579 0.77562,-1.24391 9.42032,-7.85791 17.0543,-13.04814 4.63456,-3.15097 5.74097,-4.37791 4.79808,-5.32079 -0.33224,-0.33224 -1.6148,0.31646 -2.85013,1.44157 -1.23533,1.1251 -3.37106,2.62315 -4.74606,3.32899 -1.375,0.70584 -6.1,3.94414 -10.5,7.19622 -6.60928,4.88499 -7.21772,5.18536 -3.5,1.7279 2.475,-2.30174 9.9,-8.49547 16.5,-13.76383 6.6,-5.26837 14.025,-11.22081 16.5,-13.22765 2.475,-2.00684 5.61773,-4.28268 6.98385,-5.05743 1.36612,-0.77475 5.86612,-4.26034 10,-7.74577 4.13388,-3.48543 8.86615,-7.02553 10.51615,-7.86689 2.68846,-1.3709 8.5,-6.74328 8.5,-7.85769 0,-1.22416 -2.23554,-0.0834 -6,3.06172 -2.30407,1.925 -4.67372,3.5 -5.26587,3.5 -0.59216,0 -1.90234,0.74724 -2.91152,1.66054 -1.00918,0.91329 -2.08655,1.40886 -2.39415,1.10125 -0.71215,-0.71215 8.51318,-9.41522 13.73246,-12.95504 2.18408,-1.48129 5.71377,-4.18129 7.84375,-6 2.12999,-1.81871 6.18913,-5.10675 9.02032,-7.30675 9.92384,-7.7114 10.97562,-8.69 10.37842,-9.65629 -0.36148,-0.58488 -1.26143,-0.39689 -2.25269,0.47056 -0.90789,0.7945 -3.20884,2.23482 -5.1132,3.2007 -1.90437,0.96588 -4.82208,3.11575 -6.48381,4.77748 -3.04917,3.04916 -8.39764,6.69691 -9.82939,6.70381 -0.42662,0.002 -0.12647,-1.23376 0.667,-2.74626 2.02276,-3.85572 21.47785,-21.25 23.76762,-21.25 0.48617,0 1.37563,-1.07914 1.97658,-2.39809 0.60095,-1.31895 1.9339,-2.78145 2.9621,-3.25 3.22109,-1.46785 17.83169,-13.79103 17.86789,-15.07053 0.019,-0.67023 0.67666,-0.97219 1.46153,-0.67101 1.01811,0.39069 1.28228,-0.006 0.92188,-1.38411 -0.37485,-1.4334 0.83853,-3.00159 4.70359,-6.07899 5.39055,-4.29202 8.64205,-5.39964 7.55799,-2.57462 -0.42832,1.11616 -0.0965,1.47502 1.14301,1.2363 0.96057,-0.18499 1.74649,-0.81232 1.74649,-1.39407 0,-0.58176 0.7875,-1.84524 1.75,-2.80774 0.9625,-0.9625 1.75,-2.32062 1.75,-3.01805 0,-0.69743 1.125,-1.78064 2.5,-2.40714 1.375,-0.62649 2.5,-1.87146 2.5,-2.76659 0,-0.89514 1.125,-2.51244 2.5,-3.59402 1.375,-1.08158 2.5,-2.9828 2.5,-4.22494 0,-1.40525 0.97639,-2.78099 2.58455,-3.64165 1.4215,-0.76076 3.109,-2.55248 3.75,-3.98159 0.641,-1.42911 4.31545,-5.48568 8.16545,-9.01461 3.85,-3.52893 7.1455,-6.98825 7.32332,-7.68739 0.17783,-0.69914 0.92533,-1.27116 1.66111,-1.27116 1.96586,0 6.23159,-5.46911 8.64937,-11.08939 1.16187,-2.70084 2.67697,-4.91061 3.3669,-4.91061 2.26323,0 3.89659,-2.81637 2.56433,-4.42164 -1.57652,-1.8996 -0.0842,-4.225 5.10553,-7.95541 3.8001,-2.73157 12.4201,-10.63214 26.48618,-24.275643 C 711.14553,81.963326 714,78.475826 714,77.597307 714,76.718788 714.46412,76 715.03138,76 c 0.56727,0 1.31011,-0.726331 1.65077,-1.614069 0.34065,-0.887738 3.94342,-5.047708 8.00614,-9.244376 5.00379,-5.168764 7.29401,-8.277323 7.09924,-9.635931 -0.18979,-1.323815 -0.91313,-1.898688 -2.1278,-1.691058 -4.50383,0.769861 -14.79455,6.732825 -21.90537,12.693077 C 703.49425,70.078439 699.26173,73 698.34875,73 696.49122,73 691.27656,76.711141 686,81.788287 c -1.925,1.852251 -4.71911,3.820237 -6.20914,4.373302 -1.49003,0.553065 -2.9775,1.851107 -3.3055,2.884537 -0.58082,1.829996 -3.47775,4.738685 -19.96462,20.045664 -21.33731,19.81029 -27.40502,25.61249 -45.27074,43.28978 -10.5875,10.47584 -19.25,19.57046 -19.25,20.21026 0,0.63981 -0.64798,1.70106 -1.43997,2.35835 -0.79198,0.65728 -1.57948,2.15643 -1.75,3.33145 -0.19196,1.32278 -1.2621,2.35795 -2.81003,2.7182 -1.55121,0.36101 -4.89468,3.60245 -8.80983,8.541 -10.41379,13.13588 -21.0167,24.98937 -39.32133,43.95917 -9.55286,9.9 -19.3732,20.475 -21.82298,23.5 -2.44978,3.025 -5.14978,6.20097 -6,7.0577 -0.85022,0.85674 -3.79586,4.39236 -6.54586,7.85693 -2.75,3.46458 -8.5861,10.41361 -12.96911,15.4423 -4.383,5.02869 -8.658,10.03493 -9.5,11.12498 -0.84199,1.09005 -3.10589,3.56929 -5.03089,5.50943 -1.925,1.94014 -6.425,6.89367 -10,11.00784 -3.575,4.11418 -7.05336,7.93493 -7.72969,8.49057 -0.67633,0.55564 -2.37774,2.58525 -3.7809,4.51025 -1.40317,1.925 -4.50119,5.525 -6.88449,8 -2.3833,2.475 -4.67262,5.625 -5.08738,7 -0.41475,1.375 -1.39465,3.23118 -2.17754,4.12484 -0.78289,0.89366 -1.35138,2.01866 -1.2633,2.5 0.63134,3.45023 -1.21241,6.16736 -10.8267,15.95527 -15.16982,15.44377 -20.4182,21.53918 -19.84107,23.04316 0.45931,1.19693 -1.77293,3.12962 -6.91322,5.98553 -1.18778,0.65993 -2.01458,2.18246 -2.04233,3.76091 -0.058,3.29922 -3.13437,6.76324 -4.31317,4.85666 -0.60774,-0.98297 -1.13533,-0.86886 -2.31173,0.5 -2.72129,3.16648 -3.32999,4.91197 -1.00037,2.86864 1.66517,-1.46054 2.17189,-1.57078 2.17189,-0.4725 0,1.75188 -2.15075,4.96744 -7.24918,10.83819 -2.17241,2.50148 -3.68627,5.17813 -3.44673,6.09414 0.26784,1.02422 -1.94704,3.98004 -5.93847,7.92502 -3.50109,3.46036 -6.36562,6.7521 -6.36562,7.31498 0,1.23857 -6.3549,9.55828 -11.93484,15.62485 -2.23584,2.43082 -4.06516,4.96657 -4.06516,5.63499 0,0.66841 -1.161,1.97602 -2.58001,2.90579 -2.55713,1.6755 -5.65901,7.34377 -4.78906,8.75138 0.71156,1.15132 -2.73916,5.8393 -3.81071,5.17704 -1.07151,-0.66223 -7.81821,6.45952 -7.81944,8.25412 -4.3e-4,0.62866 -0.78828,1.4483 -1.75078,1.82142 -1.64701,0.63848 -1.64111,0.75857 0.10014,2.04046 2.19484,1.6158 1.20593,3.87379 -1.39831,3.19277 -2.60356,-0.68085 -5.47369,1.66116 -9.33351,7.61608 -1.84887,2.85244 -7.30511,9.46126 -12.12499,14.68626 -9.91643,10.74994 -18.59586,22.02508 -17.86495,23.20772 0.26931,0.43576 0.0131,0.79228 -0.56936,0.79228 -0.58246,0 -1.05902,0.45 -1.05902,1 0,2.23404 2.53209,0.67405 8.92729,-5.5 z M 350,468 c 0,-0.55 0.47656,-1 1.05902,-1 0.58246,0 0.7809,0.45 0.44098,1 -0.33992,0.55 -0.81648,1 -1.05902,1 C 350.19844,469 350,468.55 350,468 Z M 467,336.16667 C 467,334.83473 467.62507,334 468.62244,334 c 1.3888,0 1.42955,0.25202 0.28297,1.75 -0.73671,0.9625 -1.46681,1.9375 -1.62244,2.16667 -0.15563,0.22916 -0.28297,-0.55834 -0.28297,-1.75 z m 85,-91.99236 c 0,-0.45412 1.1658,-1.91662 2.59067,-3.25 l 2.59067,-2.42431 -1.84067,3.24368 C 553.59618,244.81786 552,245.97922 552,244.17431 Z M 311.5,533 c 0.33992,-0.55 0.14148,-1 -0.44098,-1 -0.58246,0 -1.05902,0.45 -1.05902,1 0,0.55 0.19844,1 0.44098,1 0.24254,0 0.7191,-0.45 1.05902,-1 z m 8.5,-7.24902 c 0,-0.42236 -0.9,-0.20587 -2,0.48109 -1.1,0.68696 -2,1.59459 -2,2.01695 0,0.42236 0.9,0.20587 2,-0.48109 1.1,-0.68696 2,-1.59459 2,-2.01695 z m 8.43333,-3.86342 c 1.47078,-1.34612 0.045,-2.04573 -2.74297,-1.34598 -1.40011,0.3514 -2.79122,1.27887 -3.09136,2.06103 -0.42212,1.10003 0.0711,1.27683 2.17764,0.78065 1.49785,-0.35281 3.14336,-1.02588 3.65669,-1.4957 z m 7.49098,-6.29574 C 337.25769,514.16632 338.01516,513 337.60759,513 336.38552,513 330,518.16533 330,519.15387 c 0,1.3315 3.07824,-0.51932 5.92431,-3.56205 z M 362.30983,483 c 0.75911,0 2.19468,-0.9 3.19017,-2 0.99549,-1.1 1.31679,-2 0.714,-2 -0.60278,0 -1.39304,0.48068 -1.75613,1.06817 -0.3631,0.5875 -1.26093,0.83764 -1.9952,0.55588 -1.49051,-0.57196 -6.46267,2.93907 -6.46267,4.56354 0,0.57334 1.10917,0.31568 2.46482,-0.57258 1.35565,-0.88826 3.0859,-1.61501 3.84501,-1.61501 z m 16.32536,-12.49233 c 0.82078,-0.82078 1.16995,-2.01395 0.77592,-2.65149 -0.49991,-0.80888 -1.12355,-0.60235 -2.06375,0.68346 -2.3857,3.26263 -1.44473,4.70059 1.28783,1.96803 z m -7.55201,-4.79089 c 0.57217,-1.25577 2.25272,-2.81988 3.73456,-3.47581 1.48183,-0.65592 5.02229,-3.41307 7.86767,-6.12699 2.84538,-2.71392 6.04584,-5.21129 7.11212,-5.54972 2.07596,-0.65888 6.07454,-4.56426 4.67318,-4.56426 -1.82701,0 -9.66326,4.3382 -10.15608,5.62247 -0.28831,0.75133 -0.90941,1.12797 -1.38021,0.837 -0.47081,-0.29098 -2.56116,1.10391 -4.64522,3.09974 -2.08406,1.99584 -5.2517,4.7649 -7.0392,6.15348 -1.7875,1.38858 -3.25,3.37128 -3.25,4.406 0,2.59839 1.82452,2.36056 3.08318,-0.40191 z m 20.36626,-5.66091 c 0.96768,-1.06928 2.72493,-2.08178 3.90499,-2.25 C 397.55127,457.49269 399.15463,453 397.06955,453 396.4813,453 396,453.525 396,454.16667 c 0,0.64166 -0.29714,0.86953 -0.66031,0.50636 -0.36316,-0.36317 -1.29395,0.24436 -2.06842,1.35006 -0.77446,1.1057 -1.84704,1.7391 -2.3835,1.40755 -1.25027,-0.77271 -3.88777,1.39264 -3.88777,3.1918 0,1.99597 2.40784,1.68937 4.44944,-0.56657 z M 413,441.05069 c 2.03492,-1.633 2.17444,-2.01035 0.75,-2.02845 -0.9625,-0.0122 -1.75,0.35553 -1.75,0.81724 0,0.46172 -1.125,1.35207 -2.5,1.97857 -1.375,0.62649 -2.5,1.61455 -2.5,2.19569 0,1.21422 2.06593,0.19398 6,-2.96305 z M 405.87659,438.5 c 2.40712,-1.65 6.72561,-5.1375 9.59662,-7.75 2.87102,-2.6125 5.68396,-4.75 6.25097,-4.75 1.56833,0 3.52411,-2.72851 2.43726,-3.40023 -1.5831,-0.97841 -15.36198,6.43526 -14.77986,7.95224 0.33213,0.8655 -8.3e-4,1.14759 -0.93251,0.79007 C 407.65208,431.03625 407,431.28417 407,431.89301 407,432.50186 406.35953,433 405.57673,433 c -0.78281,0 -2.79393,1.15333 -4.46917,2.56295 -2.63338,2.21584 -2.88183,2.82563 -1.83455,4.5026 0.66624,1.06682 1.43986,1.82599 1.71917,1.68706 0.2793,-0.13894 2.47729,-1.60261 4.88441,-3.25261 z m -6.0682,-6.51817 C 403.278,428.69182 406.55505,426 407.09073,426 c 0.53567,0 4.2219,-3.2625 8.19161,-7.25 3.96971,-3.9875 8.7342,-8.375 10.58775,-9.75 6.24064,-4.62943 23.17778,-20.48404 22.22275,-20.80239 -1.04548,-0.34849 -9.58753,5.01173 -18.09284,11.35344 -3.025,2.25549 -6.35191,4.4148 -7.39313,4.79846 -1.04122,0.38366 -1.64226,0.94843 -1.33564,1.25505 0.30661,0.30661 1.46643,0.071 2.57738,-0.52354 4.12293,-2.20652 4.31466,-0.98192 0.30143,1.92525 -2.28252,1.65345 -4.15004,3.45345 -4.15004,4 0,0.54655 -0.9,0.99373 -2,0.99373 -1.1,0 -2,-0.45 -2,-1 0,-0.55 0.45,-1 1,-1 0.55,0 1,-0.73327 1,-1.62948 0,-2.63337 -7.72599,5.50942 -8.39333,8.84614 -0.31798,1.58991 -2.04707,4.3788 -3.84241,6.19754 -1.79534,1.81873 -3.87293,4.07499 -4.61685,5.01391 -0.74393,0.93892 -1.99846,1.45929 -2.78786,1.15637 -0.78939,-0.30292 -1.69038,0.11407 -2.00219,0.92664 -0.31181,0.81256 -0.9974,1.21135 -1.52352,0.88619 -0.52612,-0.32517 0.94597,-2.34764 3.27132,-4.49439 7.64861,-7.06116 2.59889,-5.97202 -5.5715,1.20167 -3.89615,3.42087 -5.05438,6.86207 -1.57914,4.69174 2.54579,-1.58987 3.95815,-0.18418 1.5697,1.5623 -1.64563,1.20332 -1.45183,3.66886 0.2848,3.6232 0.38004,-0.01 3.52975,-2.70999 6.99937,-6 z m 8.21167,-14.506 c 1.92879,-2.32405 0.75351,-2.5722 -2.035,-0.42967 -1.85248,1.42333 -2.07076,1.91503 -0.8575,1.9316 0.89515,0.0122 2.19678,-0.66363 2.8925,-1.50193 z m 10.4466,-18.3425 C 417.80997,398.47664 411,405.1034 411,406.39911 c 0,0.55373 1.79174,-0.7428 3.98164,-2.88119 2.18991,-2.13838 3.75817,-4.11145 3.48502,-4.38459 z M 398,399.5 c 0.69443,-0.83674 0.80272,-1.5 0.24489,-1.5 -0.55,0 -1.5602,0.675 -2.24489,1.5 -0.69443,0.83674 -0.80272,1.5 -0.24489,1.5 0.55,0 1.5602,-0.675 2.24489,-1.5 z m 26.04051,-4.57569 c 1.00995,-1.88711 0.92735,-1.97747 -0.90912,-0.99463 -2.69925,1.4446 -3.61294,3.07032 -1.72559,3.07032 0.83811,0 2.02373,-0.93406 2.63471,-2.07569 z m 31.23701,-2.23403 c 2.07763,-1.39603 3.36689,-2.79201 2.86501,-3.10219 -0.50188,-0.31018 -2.87676,1.28196 -5.27752,3.53809 -2.40075,2.25612 -3.69001,3.6521 -2.86501,3.10218 0.825,-0.54992 3.19988,-2.14206 5.27752,-3.53808 z m -19.04283,-9.1387 C 437.40627,381.87465 437.12234,381 435.40638,381 c -0.87649,0 -1.82897,0.9 -2.11663,2 -0.28766,1.1 -1.0609,2 -1.71832,2 -1.37303,0 -5.57143,5.34037 -5.57143,7.08687 0,1.05644 8.46622,-6.00403 10.23469,-8.53529 z M 452,380 c 0,-0.55 -0.19844,-1 -0.44098,-1 -0.24254,0 -0.7191,0.45 -1.05902,1 -0.33992,0.55 -0.14148,1 0.44098,1 0.58246,0 1.05902,-0.45 1.05902,-1 z m -16,-7 c 0,-0.55 -0.19844,-1 -0.44098,-1 -0.24254,0 -0.7191,0.45 -1.05902,1 -0.33992,0.55 -0.14148,1 0.44098,1 0.58246,0 1.05902,-0.45 1.05902,-1 z m 11,0 c 0,-0.55 -0.19844,-1 -0.44098,-1 -0.24254,0 -0.7191,0.45 -1.05902,1 -0.33992,0.55 -0.14148,1 0.44098,1 0.58246,0 1.05902,-0.45 1.05902,-1 z m -7,-1.44098 c 0,-0.24254 -0.45,-0.7191 -1,-1.05902 -0.55,-0.33992 -1,-0.14148 -1,0.44098 0,0.58246 0.45,1.05902 1,1.05902 0.55,0 1,-0.19844 1,-0.44098 z M 464,370 c 0,-0.55 -0.19844,-1 -0.44098,-1 -0.24254,0 -0.7191,0.45 -1.05902,1 -0.33992,0.55 -0.14148,1 0.44098,1 0.58246,0 1.05902,-0.45 1.05902,-1 z m -7.53407,-3.96444 c 1.56207,-1.63045 3.17411,-2.75803 3.58231,-2.50575 0.4082,0.25229 1.00022,-0.21371 1.31559,-1.03555 C 461.6792,361.67242 461.46921,361 460.89719,361 c -0.57203,0 -0.33219,-0.70786 0.53297,-1.57302 0.86516,-0.86516 2.3598,-1.41473 3.32143,-1.22126 1.94756,0.39181 2.80872,-0.16103 8.10887,-5.20572 2.02248,-1.925 5.24375,-4.69036 7.15839,-6.14524 1.91463,-1.45489 3.16443,-2.9716 2.77734,-3.37048 -0.3871,-0.39888 -2.61325,0.67898 -4.947,2.39524 -2.33376,1.71626 -4.78293,3.12048 -5.4426,3.12048 -0.65967,0 -2.58227,1.575 -4.27245,3.5 -1.69017,1.925 -3.50226,3.5 -4.02686,3.5 -0.52461,0 -2.22586,1.04841 -3.78055,2.32981 -1.5547,1.28139 -3.61423,2.61727 -4.57673,2.96861 -0.9625,0.35135 -1.75,1.32793 -1.75,2.1702 0,0.84226 -0.64844,1.53138 -1.44098,1.53138 -1.76659,0 -2.89606,1.64564 -2.05902,3 1.07515,1.73963 3.03569,1.09407 5.96593,-1.96444 z m 16.39017,0.13058 c 2.00414,-1.55862 4.4314,-3.11949 5.3939,-3.46861 0.9625,-0.34912 1.75,-1.08924 1.75,-1.64471 0,-1.31289 -4.4737,0.62077 -8.75,3.78201 -2.94372,2.17613 -4.20629,4.16517 -2.6439,4.16517 0.33335,0 2.24585,-1.27524 4.25,-2.83386 z M 448,365 c 0,-0.55 -0.70156,-1 -1.55902,-1 -0.85746,0 -1.2809,0.45 -0.94098,1 0.33992,0.55 1.04148,1 1.55902,1 0.51754,0 0.94098,-0.45 0.94098,-1 z m 3.075,-3.275 c -0.12369,-1.1957 -1.49529,-0.96414 -1.925,0.325 -0.22,0.66 0.14,1.02 0.8,0.8 0.66,-0.22 1.16625,-0.72625 1.125,-1.125 z m 6.63964,-5.34369 c -0.95892,-0.95892 -3.8104,1.65472 -3.08531,2.82796 0.36126,0.58453 1.24428,0.34569 2.17947,-0.5895 0.86468,-0.86468 1.27231,-1.87199 0.90584,-2.23846 z m 27.05642,1.80551 c 0.24358,-0.73075 -0.21359,-0.95424 -1.1875,-0.58051 -0.87096,0.33422 -1.58356,1.04702 -1.58356,1.58401 0,1.31439 2.27278,0.49134 2.77106,-1.0035 z m -20.46046,-5.98913 c 2.05218,-2.14201 2.40869,-3.0784 1.51305,-3.97404 -0.89563,-0.89563 -0.48597,-1.80726 1.7386,-3.86892 3.99088,-3.69862 1.4682,-4.26219 -3.02624,-0.67607 -4.08744,3.26137 -4.41608,4.32134 -1.33984,4.32134 2.03371,0 1.94523,0.2589 -1.19617,3.5 -2.2181,2.2885 -2.86998,3.5 -1.88326,3.5 0.82999,0 2.71723,-1.26104 4.19386,-2.80231 z M 484,351.96482 c 0,-1.42064 -0.47868,-1.20285 -2.59501,1.18069 -1.89478,2.13401 -1.89293,2.13918 0.34501,0.96482 1.2375,-0.64939 2.25,-1.61486 2.25,-2.14551 z m -24.97994,-1.48899 c 1.97634,-2.38134 0.52661,-2.74515 -2.1284,-0.5341 -1.8499,1.54056 -2.02298,1.99927 -0.7641,2.025 0.89515,0.0183 2.19678,-0.6526 2.8925,-1.4909 z m 27.99894,0.001 c 1.05678,-1.27335 0.99492,-1.41968 -0.37756,-0.89301 -0.90279,0.34643 -1.64144,1.03173 -1.64144,1.52289 0,1.28596 0.57887,1.10536 2.019,-0.62988 z m 8.231,-14.38346 c 2.6125,-1.179 4.75,-2.55898 4.75,-3.06662 0,-1.44051 -5.13572,0.75131 -8.5,3.62761 -1.65,1.41067 -2.55,2.34386 -2,2.07376 0.55,-0.27011 3.1375,-1.45574 5.75,-2.63475 z M 476.5,336 c 0.33992,-0.55 -0.057,-1 -0.88197,-1 -0.825,0 -1.77811,0.45 -2.11803,1 -0.33992,0.55 0.057,1 0.88197,1 0.825,0 1.77811,-0.45 2.11803,-1 z m 7.25,-5.89343 c 1.2375,-1.05994 2.25,-2.18825 2.25,-2.50736 0,-0.87493 -7.91825,4.77976 -7.96205,5.68597 -0.0458,0.9482 2.63681,-0.54463 5.71205,-3.17861 z M 495.5,322 c 0.33992,-0.55 0.14148,-1 -0.44098,-1 -0.58246,0 -1.05902,0.45 -1.05902,1 0,0.55 0.19844,1 0.44098,1 0.24254,0 0.7191,-0.45 1.05902,-1 z m -4.5,-2.5 c 0,-2.47119 -1.35495,-3.35273 -2.44423,-1.59024 C 487.83301,319.07921 488.94072,322 490.10699,322 490.59814,322 491,320.875 491,319.5 Z m -5.54271,-0.5691 C 484.7147,317.72936 482,317.71818 482,318.91667 c 0,1.08371 2.17036,2.0002 3.26631,1.37929 0.42147,-0.23879 0.50742,-0.85306 0.19098,-1.36506 z m 16.08383,-0.99743 c 1.02606,-1.66021 0.10511,-1.89043 -1.33055,-0.33261 -0.70918,0.76953 -0.84824,1.39914 -0.30901,1.39914 0.53922,0 1.27702,-0.47994 1.63956,-1.06653 z M 494,315.23713 c 0,-0.41958 1.00451,-1.20708 2.23225,-1.75 1.22773,-0.54292 2.69375,-1.92346 3.25782,-3.06786 0.56406,-1.1444 1.52093,-1.9156 2.12637,-1.71379 1.78988,0.59663 13.5887,-9.90034 12.43028,-11.05876 -0.66595,-0.66595 -1.59131,-0.47066 -2.77309,0.58523 -0.9755,0.87158 -4.29942,2.7744 -7.38649,4.2285 -6.64513,3.13005 -11.36897,7.71806 -11.43361,11.10485 -0.0256,1.33909 0.31195,2.4347 0.75,2.4347 0.43806,0 0.79647,-0.34329 0.79647,-0.76287 z m 13.29221,-0.27124 c 0.66428,-0.56875 2.06404,-1.62549 3.11057,-2.34829 1.058,-0.73074 1.58566,-1.82728 1.18851,-2.46989 -0.49469,-0.80043 -1.77128,-0.34947 -4.15278,1.46698 -3.41763,2.60676 -4.3895,4.38531 -2.3963,4.38531 0.57321,0 1.58571,-0.46535 2.25,-1.03411 z M 515.5,308 c 0.78218,-1.2656 -0.54163,-1.2656 -2.5,0 -1.29269,0.8354 -1.26629,0.97149 0.19098,0.98469 0.93004,0.008 1.9691,-0.43469 2.30902,-0.98469 z m 8.18457,-16.11407 c 1.88134,-1.16273 3.19563,-2.33907 2.92063,-2.61407 -0.5015,-0.5015 -7.6052,3.52401 -7.6052,4.3097 0,0.85304 1.35333,0.36319 4.68457,-1.69563 z m -7.27441,-1.78665 c 0.94607,-1.0454 1.33183,-2.14071 0.85724,-2.43402 -1.16276,-0.71862 -2.77114,0.44949 -3.55896,2.58474 -0.85141,2.30763 0.54757,2.22959 2.70172,-0.15072 z M 537,282.38457 c 0,-1.05609 -4.5723,0.91148 -6.75,2.90468 -3.84898,3.52289 -2.4703,3.9584 2.25,0.71075 2.475,-1.70284 4.5,-3.32979 4.5,-3.61543 z M 532.5,279 c 0.33992,-0.55 0.16803,-1 -0.38197,-1 -0.55,0 -1.27811,0.45 -1.61803,1 -0.33992,0.55 -0.16803,1 0.38197,1 0.55,0 1.27811,-0.45 1.61803,-1 z m 13.5,-3.5 c 0.69443,-0.83674 0.80272,-1.5 0.24489,-1.5 -0.55,0 -1.5602,0.675 -2.24489,1.5 -0.69443,0.83674 -0.80272,1.5 -0.24489,1.5 0.55,0 1.5602,-0.675 2.24489,-1.5 z m 18,-27.94098 c 0,-1.05548 -1.91911,-1.49891 -2.48992,-0.57533 -0.34546,0.55897 0.0734,1.01631 0.9309,1.01631 C 563.29844,248 564,247.80156 564,247.55902 Z M 589,220 c 0,-0.55 -0.19844,-1 -0.44098,-1 -0.24254,0 -0.7191,0.45 -1.05902,1 -0.33992,0.55 -0.14148,1 0.44098,1 0.58246,0 1.05902,-0.45 1.05902,-1 z m 30.90522,-7.82056 c 4.62287,-2.44771 9.92518,-5.48186 11.78291,-6.74255 1.85774,-1.26069 3.89256,-2.46379 4.52184,-2.67355 0.62927,-0.20975 0.82528,-0.89728 0.43558,-1.52784 -0.48871,-0.79074 -2.3277,-0.16911 -5.92705,2.00351 -2.87018,1.73249 -7.0185,4.11043 -9.2185,5.28433 -6.88035,3.67127 -13.5,7.93138 -13.5,8.68799 0,1.02517 2.30769,0.0498 11.90522,-5.03189 z m -24.48701,4.21357 C 597.0521,215.76603 597.62251,214 596.19113,214 c -0.44488,0 -1.68238,0.66069 -2.75,1.4682 -1.9817,1.49888 -0.87182,2.01804 1.97708,0.92481 z M 614,190 c 0,-0.55 -0.42344,-1 -0.94098,-1 -0.51754,0 -1.2191,0.45 -1.55902,1 -0.33992,0.55 0.0835,1 0.94098,1 0.85746,0 1.55902,-0.45 1.55902,-1 z m 4.44721,-4.08541 c -0.32197,-0.52097 -1.01165,-0.68378 -1.53262,-0.3618 -0.52097,0.32197 -0.68378,1.01165 -0.3618,1.53262 0.32197,0.52097 1.01165,0.68378 1.53262,0.3618 0.52097,-0.32197 0.68378,-1.01165 0.3618,-1.53262 z m 57.1478,-34.05139 1.90499,-2.13681 -3.25,1.66249 C 670.78046,153.16366 670.17029,154 672.34501,154 c 0.73976,0 2.20226,-0.96156 3.25,-2.1368 z m 6.96229,-4.28144 c 1.06675,-0.78003 1.66651,-1.69128 1.33279,-2.025 -0.33372,-0.33372 -1.68301,0.28951 -2.99843,1.38497 -2.71677,2.26247 -1.29849,2.80746 1.66564,0.64003 z M 683.64242,114 c 0.81159,0 1.1975,-0.45 0.85758,-1 -0.98835,-1.59918 -2.4132,-1.17771 -5.09929,1.50838 -1.37961,1.37961 -2.19061,3.02254 -1.80223,3.65096 0.46301,0.74917 1.37107,0.2298 2.63724,-1.50838 1.0621,-1.45803 2.59512,-2.65096 3.4067,-2.65096 z M 699,103.55902 c 0,-1.05548 -1.91911,-1.49891 -2.48992,-0.57533 -0.34546,0.55897 0.0734,1.01631 0.9309,1.01631 C 698.29844,104 699,103.80156 699,103.55902 Z M 734.5,83 c 0.33992,-0.55 0.14148,-1 -0.44098,-1 C 733.47656,82 733,82.45 733,83 c 0,0.55 0.19844,1 0.44098,1 0.24254,0 0.7191,-0.45 1.05902,-1 z M 724,49.782122 c 3.17637,-1.485075 6,-3.831109 6,-4.98515 0,-0.491179 -1.99358,0.478565 -4.43018,2.154987 C 723.13323,48.628382 720.83569,50 720.46418,50 c -1.2666,0 -6.35545,4.775397 -5.74227,5.388574 0.33605,0.336055 1.9986,-0.52493 3.69455,-1.9133 C 720.11241,52.086905 722.625,50.424986 724,49.782122 Z M 771,30 c 0,-0.55 0.64844,-1 1.44098,-1 0.79254,0 1.7191,-0.45 2.05902,-1 1.0452,-1.691173 -1.14817,-1.10852 -3.63922,0.966731 -1.29843,1.081702 -1.79828,1.981702 -1.11078,2 C 770.4375,30.985029 771,30.55 771,30 Z M 701.70838,142.37505 C 700.928,141.59467 702.00323,139 703.10699,139 c 1.14261,0 1.16842,2.71175 0.0325,3.4138 -0.47329,0.2925 -1.11728,0.27507 -1.4311,-0.0388 z M 740,78 c 0,-0.55 0.47656,-1 1.05902,-1 0.58246,0 0.7809,0.45 0.44098,1 -0.33992,0.55 -0.81648,1 -1.05902,1 C 740.19844,79 740,78.55 740,78 Z" id="path12"/>
</svg>
