<?xml version="1.0" encoding="utf-8"?>
<!-- Created with Inkscape (http://www.inkscape.org/) -->
<svg xmlns="http://www.w3.org/2000/svg" xmlns:cc="http://creativecommons.org/ns#" xmlns:dc="http://purl.org/dc/elements/1.1/" xmlns:inkscape="http://www.inkscape.org/namespaces/inkscape" xmlns:rdf="http://www.w3.org/1999/02/22-rdf-syntax-ns#" xmlns:sodipodi="http://sodipodi.sourceforge.net/DTD/sodipodi-0.dtd" xmlns:svg="http://www.w3.org/2000/svg" height="456" id="svg2" version="1.1" viewBox="0 0 878 456" width="878" sodipodi:docname="illustration-nonsense-alphabet-2-5.svg" inkscape:version="0.92.4 (5da689c313, 2019-01-14)">
	<metadata id="metadata8">
		<rdf:RDF>
			<cc:Work rdf:about="">
				<dc:format>image/svg+xml</dc:format>
				<dc:type rdf:resource="http://purl.org/dc/dcmitype/StillImage"/>
				<dc:title/>
			</cc:Work>
		</rdf:RDF>
	</metadata>
	<defs id="defs6"/>
	<sodipodi:namedview bordercolor="#666666" borderopacity="1" gridtolerance="10" guidetolerance="10" id="namedview4" objecttolerance="10" pagecolor="#ffffff" showgrid="false" inkscape:current-layer="svg2" inkscape:cx="443.04608" inkscape:cy="228" inkscape:pageopacity="0" inkscape:pageshadow="2" inkscape:window-height="1010" inkscape:window-maximized="1" inkscape:window-width="1920" inkscape:window-x="0" inkscape:window-y="0" inkscape:zoom="1.3981063"/>
	<path d="m 129.80078,32.498047 c -1.61889,0.02413 -4.55608,1.858981 -6.77734,4.623047 -1.733,2.156481 -6.1605,5.909708 -9.83789,8.341797 -3.8961,2.576743 -9.3831,7.603095 -13.15039,12.044921 C 93.004952,65.796763 82.005353,81.772291 82.001953,83.699219 81.996461,86.825061 68.702072,102 65.96875,102 c -0.400719,0 -2.857721,3.14418 -5.458984,6.98633 -3.036262,4.48466 -6.16716,7.7964 -8.746094,9.25 -3.494387,1.96959 -7.36762,6.83898 -9.355469,11.76367 -0.333012,0.825 -1.912086,4.25556 -3.507812,7.62305 C 37.304666,140.99055 36,144.45704 36,145.32617 c 0,0.86913 -0.414156,2.61358 -0.919922,3.87695 C 30.034565,161.8066 28.434884,181 32.429688,181 c 0.689596,0 1.816745,1.9125 2.505859,4.25 1.872212,6.35061 4.054457,10.69621 8.15625,16.25 2.031034,2.75 4.180683,7.025 4.777344,9.5 0.596661,2.475 2.174556,8.55131 3.507812,13.50391 1.548895,5.75362 2.610867,12.97449 2.939453,20 0.433994,9.27923 0.934447,11.8494 3.207032,16.46484 1.481073,3.00795 3.092753,6.38295 3.582031,7.5 0.489279,1.11705 1.299789,2.70625 1.800781,3.53125 1.417,2.33342 4.09375,11.95269 4.09375,14.71094 0,1.36444 0.837523,3.67486 1.861328,5.13476 1.023806,1.4599 2.16981,4.34651 2.546875,6.41407 0.398558,2.18541 2.759256,6.4985 5.638672,10.30273 2.72413,3.59908 4.953125,6.98517 4.953125,7.52539 0,1.52123 3.024704,5.98925 7.203125,10.64063 2.088783,2.32521 3.806129,5.02521 3.818359,6 0.05833,4.64913 8.123596,9.46118 9.394536,5.60546 0.33263,-1.00911 2.62452,-3.98466 5.09375,-6.61328 C 109.979,329.09208 112,326.50774 112,325.97852 c 0,-0.52922 0.85527,-1.49575 1.90039,-2.14844 1.04512,-0.65269 1.67155,-1.78084 1.39258,-2.50781 C 115.01401,320.59529 115.231,320 115.77539,320 c 1.39682,0 9.29914,-29.0425 8.61133,-31.64844 -0.31176,-1.18127 -0.0794,-3.05611 0.51562,-4.16797 0.79553,-1.48637 0.77169,-2.12559 -0.0879,-2.41211 -0.74052,-0.24684 -0.84665,-0.90955 -0.29101,-1.80859 1.05914,-1.71372 2.08723,-42.13137 1.11328,-43.76758 -0.22737,-0.38197 -0.72034,-3.36846 -1.0957,-6.63672 -0.71136,-6.19368 -1.33217,-8.25441 -6.13672,-20.40234 -3.09274,-7.81974 -9.3977,-15.22701 -18.7168,-21.98633 -5.520347,-4.004 -10.0467,-11.25501 -9.875,-15.82226 0.06758,-1.79767 -0.294942,-3.5275 -0.806641,-3.84375 -1.268659,-0.78407 0.758995,-5.33036 3.933594,-8.82032 2.89457,-3.1821 13.516247,-9.19179 19.619137,-11.10156 7.42415,-2.32322 20.85773,0.43046 26.15039,5.36133 1.08851,1.0141 3.39901,2.57896 5.13477,3.47656 1.73576,0.89759 3.15625,1.98591 3.15625,2.41992 0,0.43401 1.4625,1.55238 3.25,2.48438 5.24393,2.73417 9.87449,5.6577 11.4375,7.2207 0.80059,0.80059 2.33026,1.45508 3.39844,1.45508 1.06817,0 2.72275,0.39698 3.67773,0.88281 8.56331,4.35618 21.9659,8.37557 23.97461,7.18946 1.6144,-0.95327 1.5735,-1.09413 -0.48828,-1.67383 C 188.06054,175.22052 189.96952,174 196,174 c 6.34012,0 8.0506,-1.33949 3,-2.34961 -3.75981,-0.75196 -3.93735,-2.64554 -0.25,-2.66601 1.5125,-0.008 3.3947,-0.42193 4.18164,-0.91993 1.42711,-0.9031 1.07966,-0.99854 -9.7832,-2.67578 -3.85483,-0.59519 -3.65617,-1.34197 0.48633,-1.82617 1.5761,-0.18423 3.20273,-0.38652 3.61523,-0.44922 0.4125,-0.0627 0.75,-0.73023 0.75,-1.48437 0,-1.41273 -9.21158,-3.23438 -10.94336,-2.16407 -0.48284,0.29841 -4.16831,-1.03385 -8.18945,-2.96093 C 174.84605,154.57683 171.03606,153 170.40039,153 c -0.63568,0 -1.77249,-0.75952 -2.52734,-1.6875 -1.22209,-1.5024 -1.15396,-1.59652 0.62695,-0.85938 8.15838,3.37685 27.00077,4.4465 29.75781,1.68946 1.33794,-1.33796 1.75815,-1.2828 -9.7539,-1.2832 -5.89185,-2.3e-4 -10.0797,-0.51402 -12.13282,-1.48829 -1.72429,-0.81824 -4.54947,-1.66608 -6.27734,-1.88476 -1.72788,-0.21867 -3.58007,-0.66804 -4.11719,-1 -1.26625,-0.78263 -1.26116,-3.22239 0.008,-3.65235 2.30564,-0.78142 39.01089,2.0909 44.20312,3.45899 3.12837,0.82429 5.90018,1.28731 6.1582,1.0293 1.22511,-1.22511 11.7295,5.91523 18.52344,12.59179 3.02196,2.96975 5.36962,9.44679 3.94141,10.875 -0.5811,0.5811 0.80221,1.1321 3.65039,1.45313 3.00739,0.33898 5.39428,1.33273 6.93164,2.88672 1.28963,1.30357 4.20788,3.86142 6.48437,5.68359 5.04666,4.03952 14.11982,15.18434 16.97657,20.85156 3.01015,5.97153 4.40152,12.76412 4.32812,21.12696 -0.0602,6.85183 -0.31085,7.65741 -4.18164,13.32812 -2.26567,3.31921 -6.21765,8.25645 -8.78125,10.97266 -4.47384,4.74016 -15.97097,13.16378 -19.85742,14.54882 -1.02388,0.3649 -2.53633,1.21866 -3.36133,1.89844 -0.825,0.67978 -5.775,3.38043 -11,6 -9.2154,4.62017 -19.68391,11.19542 -31,19.47071 -3.025,2.21213 -7.10988,5.09637 -9.07812,6.41015 -4.61807,3.08247 -14.73496,14.81926 -19.05079,22.10156 -8.42613,14.21778 -11.92238,20.76972 -13.86523,25.97852 -0.41029,1.1 -1.89386,4.925 -3.29688,8.5 -2.60057,6.62649 -2.60662,6.72173 -1.36718,23.66797 0.0872,1.19186 0.4957,2.5037 0.9082,2.91601 0.4125,0.4123 0.75,1.59934 0.75,2.63868 0,1.03933 1.29049,3.10248 2.86719,4.58398 1.5767,1.4815 3.69696,4.04336 4.71289,5.69336 3.07855,4.99998 8.59326,11.5 9.75586,11.5 0.60191,0 2.00956,0.9291 3.1289,2.06445 4.3817,4.44435 23.58959,14.67555 29.86914,15.91016 6.86904,1.35051 14.62028,3.58477 19.16602,5.52539 10.66638,4.55359 14.36118,5.68645 19.59766,6.00586 3.23716,0.19745 7.19419,-0.0161 8.79296,-0.47461 1.82524,-0.52346 3.30004,-0.4402 3.96485,0.22461 0.74506,0.74506 1.51924,0.67783 2.61133,-0.22852 1.7317,-1.43719 5.12772,-1.10863 16.0332,1.54883 5.16611,1.25889 12.18412,1.76415 26.78516,1.93164 10.88131,0.12482 20.05576,0.49913 20.38867,0.83203 0.3329,0.33291 0.91275,0.41618 1.28906,0.1836 0.37632,-0.23258 5.76015,-0.4996 11.96484,-0.5918 15.29889,-0.22722 26.20579,-1.54962 34.57227,-4.19141 3.85,-1.21567 8.125,-2.27346 9.5,-2.35156 1.375,-0.0781 6.775,-0.65376 12,-1.27929 12.04183,-1.44167 23.56854,-1.25298 42.5,0.69531 8.25,0.84904 17.25,1.66247 20,1.80859 2.75,0.14613 5,0.32353 5,0.39453 0,0.0709 1.35,0.29277 3,0.49219 1.65,0.19941 5.25,0.68057 8,1.06836 16.27023,2.29432 60.91522,3.48983 71.89062,1.92578 5.63326,-0.80277 46.62026,-3.50491 60.10938,-3.96289 6.05,-0.2054 17.075,-1.11257 24.5,-2.01758 7.425,-0.90501 15.3,-1.84359 17.5,-2.08398 2.2,-0.24039 7.6,-0.8674 12,-1.39453 8.70812,-1.04326 19.68991,-2.13067 26,-2.57422 9.87827,-0.69435 16.6881,-1.58237 19.06055,-2.48438 1.41349,-0.5374 4.0022,-0.98223 5.7539,-0.99023 1.75169,-0.008 5.13911,-0.69558 7.52735,-1.52735 2.38824,-0.83177 7.00784,-1.677 10.26562,-1.87695 3.25777,-0.19995 6.55615,-0.88895 7.33008,-1.53125 0.77399,-0.64235 3.53335,-1.0289 6.13086,-0.85937 4.86886,0.31778 7.68185,-1.73564 3.24023,-2.36524 C 739.53903,410.64627 738.5,410.05 738.5,409.5 c 0,-0.55588 4.66325,-1.33008 10.5,-1.74414 5.775,-0.40967 11.67204,-1.15179 13.10547,-1.64844 1.43343,-0.49661 3.21868,-0.52486 3.9668,-0.0625 0.7742,0.47848 1.88468,0.40592 2.57617,-0.16797 0.6682,-0.55456 4.41422,-1.16319 8.32422,-1.35351 4.59305,-0.22356 8.05485,-0.96649 9.78125,-2.09766 2.49524,-1.63495 2.54219,-1.7965 0.71484,-2.4375 -1.07629,-0.37752 -3.98475,-0.52776 -6.46289,-0.33398 -2.47813,0.19377 -10.13086,0.53496 -17.00586,0.75781 -6.875,0.22285 -14.975,0.67244 -18,1 -8.84801,0.95809 -28.87862,2.881 -42.5,4.07812 -14.2129,1.2491 -15.53475,1.45427 -33,5.11915 -1.65,0.34622 -6.825,0.76455 -11.5,0.93164 -4.675,0.16708 -9.625,0.59679 -11,0.95507 -2.34936,0.61217 -2.38942,0.56179 -0.6582,-0.84961 1.01323,-0.82605 3.57576,-1.79457 5.69336,-2.15234 2.11761,-0.35776 4.36067,-1.26761 4.98632,-2.02148 1.96404,-2.36652 7.08543,-3.38537 19.47852,-3.87891 6.6,-0.26283 16.05,-0.93017 21,-1.48242 4.95,-0.55224 11.925,-1.26795 15.5,-1.58985 6.93709,-0.62464 11.91305,-1.36942 27,-4.03906 9.2534,-1.63738 11.20091,-1.63106 32.25781,0.0996 2.06656,0.16985 4.09134,0.51501 4.5,0.76758 0.40866,0.25256 2.26792,-0.32859 4.13281,-1.29297 2.73547,-1.41457 4.24247,-1.57324 7.79102,-0.81641 3.08263,0.65746 4.80854,0.59834 5.76953,-0.19921 0.99893,-0.82908 1.55766,-0.83666 2.05664,-0.0293 0.66399,1.07437 13.23257,0.64835 17.99219,-0.60938 2.98627,-0.78912 6.5,-2.64612 6.5,-3.43554 0,-0.38233 -7.3125,-0.72151 -16.25,-0.75391 -8.9375,-0.0324 -19.85,-0.17786 -24.25,-0.32422 -4.4,-0.14636 -13.175,0.10057 -19.5,0.54883 -6.325,0.44826 -14.2,0.93256 -17.5,1.07617 -3.3,0.1436 -8.7,0.60912 -12,1.03516 -5.82993,0.75267 -9.89202,0.89544 -14,0.49219 -1.1,-0.10798 -5.15,0.33916 -9,0.99414 -3.85,0.65498 -8.25139,1.13274 -9.78125,1.06054 -1.52986,-0.0722 -3.76146,0.39231 -4.95898,1.03321 -2.84812,1.52426 -15.95974,1.97099 -15.47852,0.52734 0.19416,-0.58248 1.89712,-1.91653 3.78516,-2.96484 4.82117,-2.67688 13.90677,-10.57474 15.05664,-13.08789 0.52951,-1.15729 1.50604,-3.00352 2.16992,-4.10352 10.34464,-17.14022 11.78767,-22.14272 11.24805,-39 -0.22888,-7.15 -0.69879,-14.35 -1.04493,-16 l -0.63086,-3 2.06836,2.36133 c 1.13689,1.29844 2.09802,3.32344 2.13672,4.5 0.0387,1.17657 0.44839,3.03867 0.91016,4.13867 0.60278,1.43599 0.78934,0.73098 0.66406,-2.5 -0.18603,-4.79767 -2.94404,-10 -5.30273,-10 -0.78585,0 -1.29638,-0.58856 -1.13477,-1.30859 C 709.49434,314.41139 701.9002,305 700.58008,305 c -0.36725,0 -3.37132,-2.25 -6.67578,-5 -3.36411,-2.79964 -7.01681,-5 -8.30078,-5 -1.2612,0 -3.10803,-0.9 -4.10352,-2 -0.99549,-1.1 -2.30548,-2 -2.91211,-2 -0.60664,0 -3.12507,-1.06951 -5.5957,-2.37695 -2.47062,-1.30745 -6.06719,-2.71187 -7.99219,-3.1211 -1.925,-0.40922 -5.3,-1.76212 -7.5,-3.00586 -2.2,-1.24375 -5.904,-2.54238 -8.23047,-2.88671 -2.32646,-0.34434 -6.15146,-1.66301 -8.5,-2.92969 -2.34853,-1.26668 -4.94453,-2.24714 -5.76953,-2.17774 -0.825,0.0694 -2.69755,-0.45467 -4.16016,-1.16601 -1.46262,-0.71134 -5.73762,-1.45721 -9.5,-1.65625 -3.76239,-0.19903 -7.51484,-0.62615 -8.33984,-0.95117 -0.825,-0.32502 -3.075,-0.79171 -5,-1.03711 -9.75205,-1.24318 -24.2343,-5.14062 -29.42383,-7.91797 -1.07907,-0.5775 -3.1092,-2.11357 -4.51172,-3.41406 -2.05338,-1.904 -2.3389,-2.70653 -1.46093,-4.11329 3.07285,-4.92356 23.98108,-17.62616 29.3789,-17.84961 1.38442,-0.0573 5.66758,-0.85451 9.51758,-1.77148 3.85,-0.91696 8.09323,-1.90729 9.42969,-2.19922 1.33646,-0.29193 2.91146,-0.83751 3.5,-1.21289 0.58854,-0.37538 1.29531,-0.72429 1.57031,-0.77539 5.39761,-1.00224 8.83131,-1.87202 10.21875,-2.58789 1.42765,-0.73662 35.70245,-2.37663 42.28125,-2.02344 1.1,0.0591 8.75,0.30195 17,0.54102 14.23748,0.41256 20.54255,0.78438 35.5,2.08789 16.00731,1.39501 34.97706,5.70091 36.99805,8.39844 0.27661,0.3692 4.32132,3.52579 8.98828,7.01562 4.66697,3.48983 9.0664,7.53474 9.77734,8.98828 0.71094,1.45355 1.94851,3.76758 2.75,5.14258 0.80148,1.375 1.46268,3.48637 1.47071,4.69141 0.008,1.20504 0.48635,2.48181 1.0625,2.83789 0.9062,0.56008 0.71458,7.78274 -0.35743,13.4707 -0.32152,1.70593 -4.05984,7.39257 -9.20312,14 -1.92656,2.475 -4.28595,5.62468 -5.24414,7 -0.9582,1.37531 -3.94788,5.30834 -6.64453,8.74023 -8.33781,10.61114 -10.5259,15.41137 -11.50977,25.25977 -1.51728,15.18772 -0.38865,19.55409 6.68359,25.85742 3.1504,2.80788 7.31398,6.69595 9.25196,8.64063 2.48925,2.49786 4.69087,3.68512 7.5,4.04297 8.03883,1.02406 17.09613,2.5066 21.5957,3.5371 3.62275,0.82971 6.21215,0.71214 12,-0.54882 4.05924,-0.88436 8.50586,-1.77626 9.88086,-1.98242 15.208,-2.28058 15.42896,-2.35219 18.59766,-5.98047 3.62037,-4.14545 4.1893,-8.77944 1.41796,-11.55079 -2.06902,-2.06902 -10.70187,-3.08972 -11.83007,-1.39843 -1.85716,2.78406 -17.52748,5.38402 -25.68555,4.26172 -8.72251,-1.19994 -9.78853,-1.43338 -12,-2.64063 -1.1,-0.60049 -2.7133,-1.30691 -3.58594,-1.57031 -2.1572,-0.65115 -7.29493,-11.40299 -7.23633,-15.14453 0.10718,-6.84223 6.4594,-19.30316 14.50782,-28.46289 2.14564,-2.4419 4.5615,-5.8169 5.36914,-7.5 0.80764,-1.6831 3.93841,-6.1276 6.95703,-9.87696 3.01862,-3.74935 5.48828,-7.31453 5.48828,-7.92187 0,-0.60734 0.73117,-1.91273 1.625,-2.90039 2.12791,-2.35132 5.375,-14.16892 5.375,-19.5625 0,-5.40701 -3.97976,-13.89592 -8.52344,-18.18164 C 814.56436,243.31356 813,241.42328 813,240.91797 813,240.41265 812.43293,240 811.74023,240 c -1.59849,0 -4.00145,-3.76826 -3.21484,-5.04102 0.77957,-1.26134 4.18712,-1.23312 4.97461,0.041 1.01922,1.64913 2.5,1.1309 2.5,-0.875 0,-4.48324 -27.2316,-19.36964 -43.5,-23.7793 -6.38877,-1.73172 -24.00086,-4.39875 -32.79102,-4.96679 -5.6152,-0.36286 -12.45898,-0.82687 -15.20898,-1.0293 -18.43119,-1.35674 -27.34123,-1.52146 -50,-0.92578 -30.53607,0.80278 -47.75411,2.62433 -62,6.55664 -10.67597,2.94691 -22.83987,5.85683 -29.12891,6.96875 -6.35914,1.1243 -27.3073,7.59761 -33.37109,10.3125 -18.76746,8.40258 -24.87867,13.36825 -26.82422,21.79687 -1.97158,8.54131 -1.58146,10.57752 3.13477,16.36719 2.37072,2.91031 7.65822,8.15376 11.75,11.65234 4.09178,3.49861 7.88945,6.91758 8.43945,7.59766 1.51706,1.87586 23.39671,12.94559 30.33203,15.3457 3.36087,1.1631 6.91022,2.01438 7.88867,1.89258 0.97844,-0.1218 2.60629,0.13533 3.61719,0.57227 1.0109,0.43694 2.5859,0.87561 3.5,0.97461 0.9141,0.099 2.33711,0.4241 3.16211,0.72265 3.17123,1.14758 10.77563,2.71214 16.02344,3.29688 9.67011,1.0775 27.42883,4.75617 28.97656,6.00195 0.825,0.66405 4.48019,2.57619 8.12305,4.25 7.06481,3.24611 14.15718,8.97516 16.33593,13.19336 1.57048,3.04055 1.8696,13.10945 0.53711,18.07422 -0.51665,1.925 -1.00779,3.95 -1.09179,4.5 -0.56699,3.71221 -8.42658,12.13145 -18.00586,19.28711 C 634.05937,381.63086 632.01109,383 630.625,383 c -0.82219,0 -2.76225,0.52049 -4.31055,1.15625 -1.54831,0.63577 -3.26445,1.22289 -3.81445,1.30469 -0.55,0.0818 -2.125,0.62741 -3.5,1.21289 -2.34546,0.99871 -11.98565,2.51007 -27,4.23242 -5.15783,0.59168 -24.55325,0.64051 -50.5,0.12695 -2.09309,-0.0414 -20.63622,-4.38233 -26.25781,-6.14648 -1.79199,-0.56235 -5.16699,-1.19717 -7.5,-1.41016 -6.56875,-0.59966 -18.02213,-2.58037 -20.24219,-3.50195 -3.01023,-1.24958 -11.47107,-2.78289 -16.12109,-2.91992 -2.26677,-0.0668 -5.64177,-0.57583 -7.5,-1.13281 -11.41707,-3.42222 -38.16441,-5.13446 -47.17188,-3.01954 -2.63575,0.61887 -12.53575,1.10508 -22,1.08008 -9.46424,-0.025 -20.58203,0.23573 -24.70703,0.58008 -4.125,0.34435 -8.4,0.57015 -9.5,0.50195 -6.23758,-0.38666 -15.19044,0.23451 -16.94922,1.17578 -1.11741,0.59802 -6.53561,1.29421 -12.04101,1.54688 -5.5054,0.25267 -10.56396,0.90337 -11.24219,1.44531 -4.22427,3.37535 -45.79976,3.95235 -47.83203,0.66406 -0.3173,-0.5134 -4.11168,-0.81153 -8.4336,-0.66406 -7.45175,0.25428 -8.01375,0.11963 -10.84961,-2.5918 -1.64476,-1.57258 -3.44005,-2.58026 -3.99023,-2.24023 -1.65112,1.02045 -10.86761,-5.35805 -13.50781,-9.34766 -5.03418,-7.60715 -7.20713,-20.7707 -4.53125,-27.45703 3.71331,-9.2786 15.67182,-19.69414 34.55078,-30.0957 3.99303,-2.2 12.48428,-7.6 18.86914,-12 6.38486,-4.4 12.36227,-8.45118 13.2832,-9.00195 14.7808,-8.83986 29.95949,-22.68987 33.42383,-30.49805 1.09811,-2.475 2.89774,-6.50994 3.99805,-8.9668 1.1003,-2.45687 2.34621,-7.26042 2.76953,-10.67382 0.42332,-3.41344 1.0915,-6.72565 1.48437,-7.36133 0.39287,-0.63567 0.16406,-3.11984 -0.50781,-5.51953 -1.02387,-3.65692 -0.9643,-5.12003 0.37305,-9.04493 0.87757,-2.57554 1.35881,-5.06715 1.06836,-5.53711 -0.29045,-0.46996 -0.0421,-1.76364 0.55273,-2.875 0.77685,-1.45157 0.77576,-2.59563 -0.01,-4.0625 -0.60105,-1.12308 -1.14569,-4.31897 -1.20899,-7.0996 -0.0727,-3.19006 -0.60396,-5.24311 -1.44141,-5.56446 C 337.59864,189.0148 337,188.29388 337,187.69141 c 0,-0.60247 -1.43742,-2.58085 -3.19531,-4.39453 C 332.0468,181.48319 331.1187,180 331.74414,180 c 0.62543,0 1.40347,0.43105 1.72852,0.95703 0.32507,0.52598 1.27043,0.69394 2.10156,0.375 1.34249,-0.51515 1.33957,-0.77033 -0.0312,-2.28515 C 334.69413,178.10901 334,176.66902 334,175.8457 c 0,-0.82332 -1.15924,-2.58683 -2.57617,-3.91797 l -2.57617,-2.41992 2.32617,-0.58203 c 2.26134,-0.56611 2.21457,-0.68903 -1.67383,-4.39844 -3.65298,-3.48484 -3.51597,-3.74735 1,-1.91992 1.88762,0.76384 1.87459,-0.52894 -0.0312,-3.04883 C 329.66114,158.49097 329,156.81928 329,155.84375 c 0,-0.97552 -0.9,-2.25505 -2,-2.84375 -1.1,-0.5887 -2,-1.53085 -2,-2.09375 0,-2.11613 -6.48984,-8.97051 -14.50977,-15.32617 C 305.92408,131.96148 301.88619,129 301.51758,129 c -0.36861,0 -3.30113,-2.025 -6.51758,-4.5 -3.21645,-2.475 -6.44456,-4.51204 -7.17383,-4.52734 -0.72928,-0.0153 -2.67617,-1.41597 -4.32617,-3.11133 -1.65,-1.69535 -5.25,-4.53332 -8,-6.30664 -2.75,-1.77332 -5.61821,-3.97263 -6.37305,-4.88867 C 268.3721,104.74997 267.13693,104 266.38086,104 c -0.75607,0 -3.11926,-1.575 -5.25,-3.5 -2.13074,-1.925 -4.18583,-3.5 -4.56836,-3.5 -0.38254,0 -2.12811,-1.069137 -3.87891,-2.375 -1.7508,-1.305863 -5.65859,-3.162154 -8.68359,-4.126953 -3.025,-0.964799 -6.18603,-2.349976 -7.02539,-3.078125 -0.83937,-0.728148 -3.53937,-1.619482 -6,-1.980469 -2.46064,-0.360987 -7.56956,-1.74382 -11.35156,-3.072265 C 210.46597,79.150711 205.16085,78.02348 195.53711,77.25 180.11241,76.010287 153.30065,76.878334 143.5,78.935547 c -23.97515,5.032522 -32.95363,7.324359 -34.75,8.869141 -1.56048,1.341931 -1.75,1.338868 -1.75,-0.0332 0,-1.457628 7.32083,-12.970636 10.98242,-17.271484 4.42893,-5.202159 16.92395,-30.142767 16.29883,-32.533203 -0.26295,-1.005558 -1.10811,-2.071404 -1.87891,-2.367188 C 131.63154,35.303816 131,34.435914 131,33.669922 c 0,-0.819621 -0.46336,-1.182844 -1.19922,-1.171875 z m -8.68945,20.916015 c 0.7891,-0.02897 1.31357,0.359588 1.58008,1.160157 0.83039,2.494436 -13.9389,21.809707 -24.986332,32.675781 -5.955033,5.857272 -8.314496,6.930239 -9.34375,4.248047 -1.095449,-2.854694 0.609521,-6.158884 7.113281,-13.78125 C 109.31004,61.501753 117.69189,53.5396 121.11133,53.414062 Z m 56.97461,77.357418 c 1.93353,0.0154 4.03541,0.17377 6.20312,0.49414 2.83326,0.41875 5.49245,2.28488 4.57032,3.20704 -0.97569,0.97567 -12.80385,2.18027 -14.02149,1.42773 -0.67643,-0.41805 -1.92856,-0.40223 -2.7832,0.0352 -2.17078,1.11071 -4.05469,0.22988 -4.05469,-1.89453 0,-2.06946 4.28534,-3.31569 10.08594,-3.26954 z m -20.96875,2.51368 c 0.39764,0.0475 0.78164,0.21328 1.05664,0.48828 1.30322,1.30326 -0.37219,2.33947 -2.07813,1.28515 -0.99454,-0.61466 -1.02231,-0.98626 -0.11523,-1.54687 0.32832,-0.20291 0.73908,-0.27407 1.13672,-0.22656 z m -11.96289,7.60937 c 4.48544,-0.0218 10.8457,1.55419 10.8457,3.45703 0,0.47458 0.66137,0.60866 1.46875,0.29883 1.8188,-0.69794 3.11786,1.16337 1.75977,2.52149 -0.66396,0.66396 -2.02513,0.46864 -4.06446,-0.58594 -4.14522,-2.14358 -5.05245,-2.0097 -6.16406,0.91406 -1.14547,3.01281 -2.12066,3.12956 -4.4668,0.53711 -0.97675,-1.0793 -3.40829,-2.48793 -5.40429,-3.13086 -4.94529,-1.59292 -5.54819,-2.02848 -4.07422,-2.93945 0.69701,-0.43077 2.10822,-0.26202 3.13672,0.375 1.47912,0.91614 2.05964,0.85135 2.78125,-0.3086 0.49096,-0.7892 2.1428,-1.12877 4.18164,-1.13867 z M 232.81836,146 c 0.58488,0 1.36012,0.47982 1.72266,1.06641 1.07627,1.74144 -0.14995,2.10963 -1.52149,0.45703 C 232.23078,146.57305 232.15526,146 232.81836,146 Z m 5.02539,2.2168 c 0.57831,-0.028 1.23681,0.41845 2.22266,1.40429 1.72509,1.7251 1.82484,2.22422 0.64062,3.20703 -1.96588,1.63156 -5.6758,-2.25972 -3.87305,-4.0625 0.34374,-0.34371 0.66278,-0.53205 1.00977,-0.54882 z m -87.28711,0.26953 c 0.24447,-0.0366 0.56229,0.006 0.94336,0.15234 0.825,0.31659 1.5,0.97759 1.5,1.46875 0,1.0484 -1.37829,1.18226 -2.33398,0.22656 -0.911,-0.91099 -0.84279,-1.73788 -0.10938,-1.84765 z m 124.74414,3.36328 c 0.68189,-0.0528 1.19922,0.37081 1.19922,1.03906 0,1.38285 -4.78707,2.49028 -5.91016,1.36719 -1.07391,-1.07392 -0.6124,-1.82587 1.16016,-1.88867 0.9625,-0.0341 2.425,-0.24361 3.25,-0.46485 0.10312,-0.0277 0.20337,-0.0452 0.30078,-0.0527 z m -27.68945,1.49414 c 0.11953,0.0201 0.25117,0.0713 0.38867,0.15625 0.55,0.33992 1,0.81605 1,1.05859 0,0.24254 -0.45,0.44141 -1,0.44141 -0.55,0 -1,-0.47613 -1,-1.05859 0,-0.43685 0.25273,-0.65795 0.61133,-0.59766 z M 250.5,156 c 0.825,0 1.5,0.45 1.5,1 0,0.55 -0.675,1 -1.5,1 -0.825,0 -1.5,-0.45 -1.5,-1 0,-0.55 0.675,-1 1.5,-1 z m 2.58789,0.80273 2.24219,2.41797 c 2.3482,2.53375 15.01998,8.94271 20.16992,10.20118 1.65,0.40318 3.78644,1.442 4.74805,2.30859 1.30333,1.17454 2.30338,1.32919 3.92968,0.60351 l 2.18165,-0.9746 -2.0918,-2.0918 -2.09375,-2.09375 2.50195,-0.62891 c 2.05801,-0.51653 2.28507,-0.88582 1.28906,-2.08594 C 284.96699,163.25665 285.13752,163 286.92969,163 c 1.52824,0 2.49164,0.91365 3.24414,3.07227 0.59103,1.69543 2.13694,3.47565 3.44922,3.97461 1.98302,0.75394 2.3817,1.61193 2.4082,5.17773 0.0175,2.35111 0.6925,5.14918 1.5,6.2168 0.80751,1.06762 1.46875,2.70654 1.46875,3.64257 0,0.93604 0.72146,1.97988 1.60352,2.31836 0.96496,0.3703 1.36132,1.24548 0.99609,2.19727 -0.33385,0.87 -0.27924,2.10237 0.11914,2.74023 0.39837,0.63787 0.86118,2.04547 1.0293,3.12696 0.16812,1.08149 1.06395,3.10649 1.99023,4.5 0.92627,1.39351 1.7959,2.9832 1.9336,3.5332 1.98329,7.9216 2.48536,10.9764 2.75585,16.76172 0.17537,3.75072 0.575,7.07304 0.88672,7.38476 0.9283,0.92831 -0.48543,10.63675 -1.98047,13.60352 -2.01525,3.99909 -0.74907,3.36714 2.00391,-1 2.37657,-3.77003 4.18506,-11.59989 3.75195,-16.25 -0.12807,-1.375 -0.91975,-5.2 -1.75976,-8.5 -0.84001,-3.3 -1.67837,-6.675 -1.86328,-7.5 -0.30874,-1.37752 -1.75113,-6.81738 -5.91797,-22.33203 C 303.04389,180.06454 303.15489,178 304.96094,178 c 0.9941,0 3.27614,6.0969 2.55273,6.82031 -0.2727,0.27271 -0.11581,0.98729 0.34961,1.58789 2.81381,3.63104 10.55334,34.67342 10.49414,42.0918 -0.0679,8.50773 -7.85006,21.36283 -15.35742,25.36914 -1.925,1.02728 -3.5,2.3594 -3.5,2.95898 0,0.59963 -1.35,2.12991 -3,3.40235 -1.65,1.27243 -5.7,4.94734 -9,8.16601 -8.25161,8.04823 -8.94496,8.60352 -10.76172,8.60352 -0.87708,0 -2.18923,0.5625 -2.91601,1.25 -1.67566,1.58509 -11.72777,7.749 -12.63868,7.75 -0.37595,5.3e-4 -3.83359,1.56916 -7.68359,3.48438 -3.85,1.91521 -7.73179,3.48904 -8.62695,3.49804 -0.89515,0.009 -2.18836,0.69258 -2.87305,1.51758 -0.68469,0.825 -2.02979,1.5 -2.98828,1.5 -0.95848,0 -2.81528,0.80466 -4.12695,1.78906 -3.09093,2.31972 -7.74823,4.44534 -10.81836,4.9375 -5.22682,0.83788 -16.63111,7.69297 -23.78907,14.29883 C 198.50471,318.6613 196.56658,320 195.9707,320 c -0.59587,0 -2.37158,1.4098 -3.94531,3.13281 -2.03134,2.22403 -3.92329,3.21768 -6.52148,3.42383 -3.092,0.24534 -3.54967,0.0308 -2.95313,-1.38281 0.38835,-0.92023 0.93051,-2.79883 1.20508,-4.17383 0.27456,-1.375 1.56638,-3.93279 2.87109,-5.68359 1.30471,-1.7508 2.37305,-3.50188 2.37305,-3.89258 0,-0.72194 4.1189,-5.374 9.43555,-10.65625 1.61429,-1.60384 4.53929,-3.80399 6.5,-4.89063 1.96071,-1.08663 6.71445,-4.20025 10.56445,-6.91797 3.85,-2.71772 7.3806,-4.94421 7.8457,-4.94921 0.4651,-0.005 2.08097,-0.88848 3.58985,-1.96289 1.50887,-1.07442 4.95326,-2.88959 7.65429,-4.03321 2.81488,-1.19182 3.68609,-1.83112 2.04297,-1.49805 -9.32602,1.89054 -9.45705,1.84482 -4.13281,-1.41796 2.75,-1.68524 5.42367,-3.07108 5.94141,-3.08008 0.51773,-0.009 5.53747,-2.26758 11.15429,-5.01758 5.61682,-2.75 10.52778,-5 10.91407,-5 0.38629,0 1.58638,-1.125 2.66796,-2.5 1.08158,-1.375 2.76828,-2.5 3.74805,-2.5 0.97977,0 3.03542,-1.1612 4.56641,-2.58008 1.53099,-1.41887 2.53808,-1.93946 2.23828,-1.1582 -0.29979,0.78125 -0.18516,2.00322 0.25586,2.7168 0.86705,1.40291 0.70777,1.49582 7.31836,-4.26172 5.98373,-5.21156 8.69236,-8.21528 8.69336,-9.63868 6.1e-4,-0.78167 0.61572,-2.13167 1.36523,-3 1.77144,-2.05222 2.84846,-7.82824 1.60352,-8.59765 -0.53199,-0.32879 -0.9668,-1.83228 -0.9668,-3.33985 0,-1.50754 -0.40046,-3.1689 -0.89062,-3.6914 -0.49021,-0.5225 -1.07666,-3.691 -1.30274,-7.04102 -0.28281,-4.19064 -1.06175,-6.91676 -2.49609,-8.74023 -1.14663,-1.4577 -2.37295,-4.18409 -2.72461,-6.05859 -0.35166,-1.87452 -1.30284,-3.95825 -2.11328,-4.63086 C 281.66221,196.30591 281,194.96531 281,194 c 0,-0.96531 -0.675,-2.31531 -1.5,-3 -0.825,-0.68469 -1.5,-2.10619 -1.5,-3.1582 0,-2.1169 -2.42372,-6.37333 -5.19922,-9.13086 C 271.81044,177.72702 271,176.07656 271,175.04297 271,171.22837 269.85456,170 266.29883,170 c -2.67759,0 -3.61043,-0.47729 -4.02344,-2.05664 -0.31189,-1.19266 -1.09989,-1.84041 -1.875,-1.54297 -0.7351,0.28208 -1.64491,0.0136 -2.02148,-0.5957 -0.467,-0.75563 -1.04758,-0.61167 -1.82618,0.45312 -1.01974,1.39458 -1.40371,1.34769 -3.59765,-0.4414 -1.68678,-1.3755 -1.89635,-1.82293 -0.66992,-1.42774 1.56515,0.50433 1.7261,0.0714 1.29492,-3.50586 z m 26.54688,0.14649 c 0.6382,0.0663 1.57194,0.60589 2.86523,1.64062 2.97903,2.38346 2.83963,2.62083 -1,1.69727 -2.70607,-0.65087 -3.55742,-1.57836 -2.70898,-2.95117 0.18331,-0.29661 0.46082,-0.4265 0.84375,-0.38672 z m -14.83594,14.18555 c 0.48127,0.0338 1.24212,0.4765 1.93945,1.17382 1.55894,1.55895 1.56156,1.69141 0.0352,1.69141 -1.82294,0 -3.33379,-1.77362 -2.34961,-2.75781 0.0858,-0.0858 0.21457,-0.11869 0.375,-0.10742 z m 14.46289,4.30078 c -0.18617,0.011 -0.41528,0.0706 -0.68945,0.17578 -0.86496,0.33191 -1.57227,1.26613 -1.57227,2.07812 0,1.96839 2.41175,1.09716 2.82227,-1.01953 0.16875,-0.8701 -0.002,-1.2673 -0.56055,-1.23437 z M 65.251953,189.11133 c 0.201113,0.0468 0.570399,0.32525 1.138672,0.79687 0.923093,0.7661 3.110944,3.791 4.863281,6.72071 2.745291,4.58982 5.33724,7.11197 6.308594,6.14062 0.152212,-0.15221 -1.060114,-2.23858 -2.695312,-4.63672 -1.6352,-2.39813 -2.683637,-4.64599 -2.328126,-4.99609 0.739004,-0.72775 6.845177,6.06988 8.951172,9.96484 1.90352,3.52049 6.388523,6.42007 7.779297,5.0293 0.74125,-0.74125 0.271311,-1.35543 -1.578125,-2.05859 -1.607822,-0.61129 -3.23512,-2.43814 -4.175781,-4.68946 -1.823371,-4.36394 -1.294519,-5.39823 1.478516,-2.88867 C 86.943352,200.25815 87,200.24814 87,198.1543 c 0,-2.92575 1.407339,-2.7085 3.539062,0.54492 1.216697,1.85691 1.405841,2.8198 0.607422,3.08594 -1.248098,0.41603 2.179311,6.05449 4.574219,7.52539 0.726661,0.4463 1.040862,1.26556 0.699219,1.81836 -0.341644,0.55279 0.155068,1.5721 1.103516,2.26562 1.00098,0.73193 2.261705,3.95555 3.003902,7.68359 0.70326,3.5324 1.55905,7.77188 1.90235,9.42188 0.34329,1.65 0.20863,3.62883 -0.30078,4.39648 -1.66287,2.50579 -3.935184,0.34053 -6.220707,-5.92773 -2.101694,-5.76409 -2.41229,-6.11871 -4.929687,-5.61523 -1.477742,0.29554 -3.22189,0.005 -3.875,-0.64844 -1.644064,-1.64406 -3.303566,1.05136 -2.06836,3.35937 0.492331,0.91993 1.105361,4.31998 1.363282,7.55469 0.25792,3.2347 0.914048,7.32952 1.457031,9.09961 1.190929,3.88234 6.264262,9.07902 11.43164,11.70898 4.434771,2.25709 6.734641,6.44669 6.626951,12.07227 -0.0421,2.19963 0.0914,5.8 0.29688,8 0.20546,2.2 -0.0361,4.5594 -0.53711,5.24414 -0.58775,0.80331 -0.29972,2.17949 0.8125,3.87695 1.41982,2.16693 1.48561,2.78279 0.36914,3.49024 -0.74552,0.47239 -1.8694,0.86503 -2.49805,0.87305 C 102.90603,288.0038 102,290.347 102,294.08203 102,296.33357 101.5431,297 100,297 c -1.1,0 -2.051791,-0.3375 -2.115234,-0.75 -0.255665,-1.66232 -0.498629,-3.04874 -1.759766,-10.0293 -0.723395,-4.00406 -1.074092,-7.90951 -0.779297,-8.67773 0.294794,-0.76823 -0.07386,-1.90164 -0.818359,-2.51953 -0.744502,-0.61788 -1.671784,-3.46439 -2.060547,-6.32422 -0.715331,-5.26213 -3.692497,-9.53481 -9.222656,-13.24024 l -2.253907,-1.51171 0.591797,13.27539 0.59375,13.27734 -2.033203,-2.14844 c -3.20307,-3.38701 -4.967562,-8.66867 -4.572266,-13.68554 0.262979,-3.33753 -0.09809,-5.05122 -1.326171,-6.2793 -1.243665,-1.24366 -1.828649,-4.10778 -2.216797,-10.86133 -0.404333,-7.03518 -0.950259,-9.5947 -2.341797,-10.98437 -1.282582,-1.28087 -1.502381,-2.12458 -0.75,-2.87696 1.774571,-1.77457 1.198316,-7.11326 -1.269531,-11.76562 -1.28338,-2.41942 -2.622927,-5.56539 -2.978516,-6.99219 -0.355589,-1.4268 -2.456939,-4.8676 -4.667969,-7.64453 C 57.8085,204.48478 56,201.66047 56,200.98438 c 0,-1.83267 2.796224,0.72109 4.591797,4.19335 C 62.270974,208.4249 64,208.88472 64,206.08398 c 0,-4.47413 6.096044,-2.09036 8.490234,3.32032 L 73.859375,212.5 73.308594,209 C 73.00537,207.075 71.29154,202.8 69.5,199.5 c -1.79154,-3.3 -3.602412,-7.1215 -4.023438,-8.49219 -0.431983,-1.40636 -0.559797,-1.97449 -0.224609,-1.89648 z m -2.640625,8.23242 c 0.119531,0.0201 0.251172,0.0713 0.388672,0.15625 0.55,0.33992 1,0.81605 1,1.05859 C 64,198.80113 63.55,199 63,199 c -0.55,0 -1,-0.47613 -1,-1.05859 0,-0.43685 0.252734,-0.65795 0.611328,-0.59766 z m 38.234372,9.60156 c 1.03968,0.0656 4.92969,5.09081 5.49024,7.23438 C 106.59788,215.18136 106.40476,216 105.90625,216 105.40774,216 105,215.60304 105,215.11719 c 0,-0.48585 -0.83722,-1.10185 -1.85938,-1.36914 -1.7369,-0.45421 -3.61455,-5.59944 -2.46289,-6.74805 0.0422,-0.042 0.0987,-0.0591 0.16797,-0.0547 z M 656,212 c 0.55,0 1,0.45 1,1 0,0.55 -0.45,1 -1,1 -0.55,0 -1,-0.45 -1,-1 0,-0.55 0.45,-1 1,-1 z m -19.41602,0.45508 c 0.0773,-0.0155 0.175,-0.0157 0.29297,0.002 0.15731,0.0234 0.34784,0.0767 0.57032,0.16211 0.85357,0.32755 1.55273,0.77212 1.55273,0.98828 0,0.80991 -1.90493,0.35451 -2.49219,-0.5957 -0.19706,-0.31886 -0.15562,-0.51017 0.0762,-0.55664 z M 642.55859,213 c 0.85748,0 1.28133,0.45 0.94141,1 -0.33992,0.55 -1.04105,1 -1.55859,1 C 641.42387,215 641,214.55 641,214 c 0,-0.55 0.70113,-1 1.55859,-1 z m -78.98632,15.85156 c 2.51127,-0.0758 4.37155,0.79228 4.83203,2.62696 0.5108,2.03521 -0.18337,3.23594 -3.89063,6.7246 -2.48241,2.33608 -4.51367,4.80609 -4.51367,5.48829 0,0.68219 -1.34402,2.61486 -2.98633,4.29492 -1.6423,1.68005 -3.25457,4.12111 -3.58203,5.42578 -0.64918,2.58657 1.48841,7.50794 4.62109,10.64062 1.07075,1.07075 1.94727,2.35199 1.94727,2.84766 0,2.03639 7.14477,4.95897 13.66211,5.58789 3.76105,0.36294 8.94735,1.06035 11.52539,1.54883 2.57805,0.48848 7.94478,0.96984 11.92578,1.07031 3.981,0.10046 8.62154,0.52934 10.3125,0.95313 9.92843,2.48824 19.20613,5.47199 27.57422,8.86718 5.225,2.11993 14,5.54644 19.5,7.61524 21.6865,8.15726 32.59644,14.75027 38.08008,23.01172 1.88103,2.8339 3.41992,5.90906 3.41992,6.83398 0,0.92492 0.64839,2.67834 1.44141,3.89649 2.36986,3.64031 5.19114,21.92815 3.47851,22.54882 -0.50588,0.18334 -0.91992,1.83786 -0.91992,3.67774 0,3.5762 -2.45326,6.94442 -4.25,5.83398 -0.68529,-0.42354 -0.86258,-0.0829 -0.47852,0.91797 0.33577,0.87501 -0.0378,2.1276 -0.83007,2.78516 -0.79231,0.65756 -1.44141,1.62866 -1.44141,2.15625 0,0.52759 -1.51382,2.83439 -3.36523,5.12695 -1.8514,2.29257 -3.5389,4.6529 -3.75,5.24609 -0.21109,0.59322 -4.86194,4.99532 -10.33399,9.78126 -9.88715,8.64746 -21.54489,15.50347 -31.05078,18.26171 -3.52152,1.02181 -7.25167,2.2956 -19,6.49024 -3.90757,1.39517 -22.25618,6.47338 -30.28125,8.38086 -5.88866,1.39967 -30.28048,3.69632 -36.7832,3.46289 -1.6148,-0.058 -9.68555,0.17063 -17.93555,0.50781 -8.25,0.33718 -16.18525,0.79787 -17.63281,1.02539 -1.44757,0.22752 -2.82829,0.21667 -3.07031,-0.0254 -0.24205,-0.24203 -3.78375,-0.70574 -7.86915,-1.0293 -4.08539,-0.32357 -8.77773,-0.76679 -10.42773,-0.98632 -1.65,-0.21952 -9.525,-1.07226 -17.5,-1.89454 -7.975,-0.82228 -15.8547,-1.89528 -17.50977,-2.38476 -1.68504,-0.4983 -4.02144,-0.51585 -5.31054,-0.0391 -1.30348,0.48217 -4.11863,0.44866 -6.49024,-0.0781 -2.30374,-0.51177 -5.98945,-1.14436 -8.18945,-1.40625 -2.2,-0.26188 -7.72266,-0.98745 -12.27148,-1.61133 -7.85648,-1.07753 -37.36469,-0.76635 -46.72852,0.49219 -4.18989,0.56314 -8.25187,0.84414 -28,1.94531 -14.08917,0.78563 -20.8675,1.30271 -25,1.90625 -1.65,0.24098 -7.61196,0.52009 -13.24805,0.6211 -5.63608,0.10101 -10.51127,0.61262 -10.83398,1.13476 -0.3227,0.52218 -1.33573,0.72169 -2.25195,0.44336 -0.91621,-0.27834 -3.69102,-0.58413 -6.16602,-0.67773 -8.19228,-0.30968 -25.44336,-2.87599 -29,-4.31446 -1.925,-0.77857 -7.45725,-2.62522 -12.29492,-4.10351 -4.83768,-1.47829 -10.82576,-3.76593 -13.30469,-5.08399 C 244.92146,404.07846 242.30369,403 241.58203,403 c -0.72167,0 -3.96053,-1.79936 -7.19726,-3.99805 -3.23673,-2.19869 -6.68412,-3.999 -7.66016,-4 -1.03088,-0.001 -2.90705,-1.87617 -4.47656,-4.47461 -2.3109,-3.82584 -3.12817,-4.44082 -5.6543,-4.25 -2.20843,0.16681 -3.09721,-0.28188 -3.52344,-1.77734 -0.81234,-2.85016 -4.11302,-7.5 -5.32422,-7.5 -0.56361,0 -1.6035,0.7875 -2.31054,1.75 -1.18027,1.6067 -1.37462,1.52013 -2.36133,-1.06445 C 202.48314,376.13725 202,373.29666 202,371.375 c 0,-2.07463 -0.40622,-3.24198 -1,-2.875 -0.55,0.33992 -1,1.91492 -1,3.5 0,3.2389 -1.06275,4.29727 -3.41016,3.39648 C 195.40663,374.94243 195,373.39733 195,369.36133 c 0,-4.05118 -0.40592,-5.58025 -1.60156,-6.03906 -0.88051,-0.33788 -1.97126,-0.0155 -2.42383,0.71679 -0.6839,1.10659 -1.09674,1.10492 -2.44922,-0.0176 -2.30358,-1.9118 -1.62088,-7.25966 1.07813,-8.44531 1.23034,-0.54048 3.2595,-3.57674 4.88867,-7.3164 1.53179,-3.51613 3.28506,-6.92547 3.89648,-7.57618 0.61142,-0.6507 2.42687,-2.98359 4.03516,-5.18359 1.60829,-2.2 5.33405,-6.3164 8.27929,-9.14844 2.94525,-2.83205 6.73288,-6.88205 8.41602,-9 1.68314,-2.11796 3.35737,-3.89 3.7207,-3.9375 0.36333,-0.0475 1.42003,-0.42352 2.34766,-0.83398 0.92764,-0.41046 3.83676,-0.82011 6.46484,-0.91211 6.46562,-0.22643 6.9889,2.14111 1.61719,7.30273 -2.15395,2.06971 -4.72582,5.51084 -5.7168,7.64649 -0.99097,2.13566 -2.80242,5.23281 -4.02539,6.88281 -1.22297,1.65 -2.77564,4.68149 -3.44922,6.73633 -0.67356,2.05484 -1.64051,3.99347 -2.15039,4.30859 -0.50987,0.31512 -0.92773,2.03192 -0.92773,3.81446 0,1.78253 -0.48913,3.72936 -1.08594,4.32617 -1.67926,1.67926 1.28384,6.47994 8.61133,13.95312 3.5399,3.61028 7.38191,8.09374 8.53711,9.96289 1.15519,1.86914 2.73939,3.39844 3.51953,3.39844 0.78014,0 1.41797,0.39397 1.41797,0.875 0,0.48103 3.23389,1.91296 7.18555,3.18359 3.95166,1.27063 8.00166,3.12862 9,4.12696 0.99834,0.99834 2.46332,1.81445 3.25586,1.81445 0.79254,0 1.71867,0.45 2.05859,1 0.8047,1.30203 5.5,1.30203 5.5,0 0,-0.55 -0.3375,-0.92965 -0.75,-0.84375 -0.4125,0.0859 -1.875,-0.37527 -3.25,-1.02539 -2.28366,-1.07974 -2.15386,-1.13823 1.5,-0.66797 2.2,0.28315 5.03136,0.51939 6.29297,0.52539 1.62684,0.008 2.20839,0.52058 2,1.76172 -0.21118,1.25773 0.4806,1.839 2.45703,2.06641 1.5125,0.17403 2.75,-0.16347 2.75,-0.75 0,-0.58653 0.47613,-1.06641 1.05859,-1.06641 0.58245,0 0.80589,0.41083 0.4961,0.91211 -0.87383,1.41388 6.70917,2.31943 9.74804,1.16406 1.49185,-0.5672 2.59661,-1.58146 2.45508,-2.25195 -0.26461,-1.25362 13.15653,-3.20458 29.65625,-4.3125 4.35273,-0.29228 9.07773,-0.75359 10.5,-1.02344 4.4393,-0.84229 30.17603,-3.51036 39.08594,-4.05273 4.675,-0.28458 12.55,-0.97687 17.5,-1.53711 12.54325,-1.41964 49.62705,-1.08869 62,0.55273 6.52254,0.8653 21.08392,3.42633 22.5,3.95703 0.825,0.30919 8.025,1.73021 16,3.15821 7.975,1.42801 17.875,3.24373 22,4.03515 16.82616,3.22826 33.61566,5.40624 45.5,5.9043 5.5,0.2305 10.225,0.48706 10.5,0.56836 0.275,0.0814 1.55411,0.0599 2.8418,-0.0469 1.28769,-0.10682 3.67426,0.35787 5.30468,1.03321 2.22556,0.92183 3.25023,0.94309 4.10938,0.084 0.62941,-0.62941 3.46866,-1.14453 6.30859,-1.14453 4.58992,0 7.69566,-0.43336 18.93555,-2.64062 1.65,-0.32405 4.35,-0.68297 6,-0.79688 4.65357,-0.32128 14.72647,-2.60962 17.5,-3.97656 1.375,-0.67767 5.2,-2.07982 8.5,-3.11524 3.3,-1.03543 6.979,-2.73688 8.17578,-3.78125 1.19679,-1.04437 2.64055,-1.61108 3.20899,-1.25976 0.56844,0.35131 2.79388,-0.9528 4.94531,-2.89649 2.15144,-1.9437 4.30767,-3.55287 4.79101,-3.57617 0.48334,-0.0233 2.00391,-1.44451 3.37891,-3.16015 6.79582,-8.47947 7.81304,-9.34158 9.67188,-8.20118 2.42939,1.49047 5.75297,-2.59068 5.06054,-6.21289 -0.37695,-1.97191 0.0352,-2.72388 1.8711,-3.42187 4.33121,-1.64672 9.61643,-9.96094 6.33203,-9.96094 -0.57901,0 -0.77547,0.45 -0.43555,1 0.33992,0.55 0.17311,1 -0.37109,1 -0.54421,0 -1.13285,1.00835 -1.3086,2.24023 -0.17575,1.23189 -1.10781,2.38882 -2.07031,2.57227 -2.03287,0.38745 -2.31538,-2.35771 -0.78906,-7.67969 0.74348,-2.59235 0.62935,-3.68512 -0.50782,-4.82226 -0.80898,-0.80897 -1.1851,-1.93307 -0.83593,-2.49805 0.73558,-1.19019 -2.11779,-11.83284 -4.41992,-16.48633 -0.86378,-1.74603 -2.6125,-3.64882 -3.88477,-4.22851 C 666.04024,315.51802 665,314.58327 665,314.02148 665,313.45969 664.55737,313 664.01562,313 c -0.54172,0 -3.12923,-1.30295 -5.75,-2.89648 -4.40868,-2.68066 -10.18585,-5.12489 -24.26562,-10.26563 -3.025,-1.10448 -6.67403,-2.63289 -8.10938,-3.39648 -1.43533,-0.76362 -2.84984,-1.15016 -3.14257,-0.85743 -0.29273,0.29273 -2.21581,-0.16956 -4.27344,-1.02929 -2.05764,-0.85974 -4.6931,-1.77958 -5.85742,-2.04297 -1.16431,-0.26339 -4.59219,-1.17209 -7.61719,-2.01953 -9.52499,-2.6684 -24.18155,-5.32404 -33,-5.97852 -4.675,-0.34697 -10.92233,-1.51986 -13.88281,-2.60742 C 551.72826,279.55922 544,275.17828 544,273.9043 544,273.40656 543.37928,273 542.62109,273 c -1.67201,0 -10.06498,-9.64312 -11.01562,-12.65625 -1.35061,-4.28089 1.29416,-10.89909 5.98828,-14.98047 2.42311,-2.10682 4.40625,-4.33026 4.40625,-4.9414 0,-1.52682 3.00444,-4.0337 5.89258,-4.91602 1.31625,-0.40211 4.44334,-2.0312 6.94726,-3.61914 3.06052,-1.94093 6.22115,-2.95938 8.73243,-3.03516 z m -274.09961,5.13282 c 0.53785,-0.0907 1.02734,0.27731 1.02734,1.18164 0,0.64166 -0.60568,1.36856 -1.3457,1.61523 -0.84112,0.28038 -1.21599,-0.17604 -1,-1.21875 0.1941,-0.93708 0.78051,-1.48739 1.31836,-1.57812 z M 818.94141,241 c -0.58246,0 -0.78133,0.45 -0.44141,1 0.33992,0.55 0.81605,1 1.05859,1 0.24254,0 0.44141,-0.45 0.44141,-1 0,-0.55 -0.47613,-1 -1.05859,-1 z m -10,24 c 0.51754,0 1.21867,0.45 1.55859,1 0.33992,0.55 -0.0839,1 -0.94141,1 C 808.70113,267 808,266.55 808,266 c 0,-0.55 0.42387,-1 0.94141,-1 z m -8.85743,4.8125 c 0.28674,0.0831 0.45067,1.18028 0.34375,3.38477 -0.1128,2.32605 -0.68125,4.38789 -1.26367,4.58203 -0.68627,0.22875 -0.85705,-0.98988 -0.48242,-3.46289 0.46078,-3.04172 1.03369,-4.61072 1.40234,-4.50391 z m -574.28125,8.70312 c 0.26808,0.0108 0.48499,0.14001 0.63868,0.38868 0.35177,0.56919 -0.89927,1.67737 -2.7793,2.46289 -1.88003,0.78553 -3.72501,1.92513 -4.09961,2.53125 -0.3746,0.60611 -1.39956,1.10156 -2.27734,1.10156 -1.38996,0 -1.3615,-0.25816 0.21484,-2 0.99549,-1.1 2.49222,-2 3.32617,-2 0.83395,0 2.2949,-0.70362 3.2461,-1.56445 0.6926,-0.6268 1.28367,-0.93785 1.73046,-0.91993 z m -143.796871,6.38282 c 0.773128,0.0933 1.964638,2.81257 1.978516,4.85156 0.0084,1.2375 -0.195804,2.25 -0.455078,2.25 -0.651325,0 -2.323258,-6.38858 -1.824219,-6.9707 0.08871,-0.10348 0.190335,-0.1442 0.300781,-0.13086 z M 795.88281,286 c 0.55,0 1.27727,0.45 1.61719,1 0.33992,0.55 0.16719,1 -0.38281,1 -0.55,0 -1.27727,-0.45 -1.61719,-1 -0.33992,-0.55 -0.16719,-1 0.38281,-1 z m -1.98633,3.55664 c 2.3522,0.21741 6.10352,1.82948 6.10352,2.62305 0,0.5292 -1.8,3.09601 -4,5.70508 -2.4893,2.95216 -4,5.7558 -4,7.42187 0,1.59417 -0.80907,3.18203 -2,3.92578 -1.1,0.68696 -2,1.71469 -2,2.28516 0,0.57046 -0.7875,1.78092 -1.75,2.68945 -3.02493,2.85531 -4.25,4.6566 -4.25,6.25 0,0.84822 -0.45,1.54297 -1,1.54297 -0.55,0 -1,0.8748 -1,1.94336 0,1.06856 -0.94528,3.54356 -2.09961,5.5 -1.15432,1.95644 -1.62582,3.55664 -1.04883,3.55664 0.577,0 1.50776,-0.7875 2.06836,-1.75 0.77866,-1.33687 1.04063,-0.33356 1.11133,4.25 0.20312,13.16169 0.91895,15.6718 6.76953,23.76953 3.44241,4.76461 6.28907,6.22737 14.98047,7.69336 9.66233,1.62977 28.86306,-0.051 34.42187,-3.01367 1.81607,-0.9679 3.35776,0.33466 2.3418,1.97851 -0.53033,0.8581 -1.85136,1.33526 -11.54492,4.18165 -4.33987,1.27433 -20.0065,1.69252 -20.70898,0.55273 -0.28377,-0.46041 -1.33908,-0.62211 -2.34375,-0.35938 -1.00467,0.26273 -4.89096,-0.19861 -8.63672,-1.02539 -3.74576,-0.82678 -7.51721,-1.5877 -8.38086,-1.6914 C 781.84736,366.9757 768,357.34874 768,354.42578 c 0,-0.64977 -0.63985,-1.71233 -1.42188,-2.36133 -2.60216,-2.15961 -4.06357,-16.59556 -2.06835,-20.42968 0.8198,-1.57537 1.49023,-3.47207 1.49023,-4.21485 0,-0.74278 0.9,-1.83122 2,-2.41992 1.14999,-0.61546 2,-2.09386 2,-3.47852 0,-1.32446 0.83632,-2.99615 1.85742,-3.71484 1.0211,-0.71868 2.19481,-2.43164 2.60938,-3.80664 0.41458,-1.375 1.99301,-3.85 3.50781,-5.5 1.51479,-1.65 5.58194,-6.6 9.03711,-11 3.45517,-4.4 6.55289,-7.97406 6.88476,-7.94336 z M 240.69727,307 c 1.44941,0 2.44791,0.12757 2.21875,0.2832 -0.22917,0.15563 -1.15056,0.84199 -2.04883,1.52539 -1.33145,1.01297 -1.74152,0.96046 -2.21875,-0.2832 C 238.21499,307.39586 238.74605,307 240.69727,307 Z m -32.00782,16.47656 c 0.0704,-0.008 0.12428,0.003 0.15821,0.0371 0.27143,0.27144 -0.56187,1.61741 -1.85157,2.99024 -1.28971,1.37283 -2.80039,2.49609 -3.35742,2.49609 -0.55702,0 0.27625,-1.34597 1.85156,-2.99023 1.37839,-1.43873 2.70664,-2.47757 3.19922,-2.53321 z M 176.24414,334 c 0.55783,0 0.45029,0.66326 -0.24414,1.5 -0.68469,0.825 -1.69414,1.5 -2.24414,1.5 -0.55783,0 -0.45029,-0.66326 0.24414,-1.5 0.68469,-0.825 1.69414,-1.5 2.24414,-1.5 z m 507.13477,7.38867 c -0.12148,-0.004 -0.25479,0.0347 -0.39453,0.1211 -0.55899,0.34546 -0.75785,1.04659 -0.44141,1.55859 0.85723,1.38704 1.45703,1.12958 1.45703,-0.62695 0,-0.64313 -0.25665,-1.04048 -0.62109,-1.05274 z m 128.84179,9.02149 c -0.12875,0.0357 -0.2207,0.0801 -0.2207,0.14257 0,0.0176 0.0157,0.0403 0.0234,0.0605 0.067,-0.0675 0.12487,-0.13647 0.19726,-0.20312 z m 9.9668,1.40234 c 6e-5,0.0945 -0.005,0.18872 -0.004,0.2832 0.0331,-0.002 0.0703,-0.002 0.10352,-0.004 0.0268,-0.0827 0.0126,-0.17333 -0.0898,-0.27344 -0.002,-0.002 -0.008,-0.004 -0.01,-0.006 z m -645.82227,8.59961 c 0.37043,0.0649 0.63477,0.62852 0.63477,1.4707 0,1.1 -0.45,2.27727 -1,2.61719 -0.55,0.33992 -1,-0.28281 -1,-1.38281 0,-1.1 0.45,-2.27727 1,-2.61719 0.0687,-0.0425 0.13623,-0.0706 0.20117,-0.084 0.0568,-0.0117 0.11115,-0.0131 0.16406,-0.004 z m -1,8.93359 c 0.0909,0.0138 0.19866,0.16765 0.31836,0.4668 0.28891,0.72187 0.25228,1.58373 -0.0801,1.91602 -0.3323,0.33229 -0.56879,-0.25834 -0.5254,-1.3125 0.03,-0.7281 0.13554,-1.09327 0.28711,-1.07032 z m 12.73243,0.60938 c 0.12685,0.005 0.25146,0.06 0.36914,0.17773 0.31672,0.31672 0.19175,1.61471 -0.27735,2.88281 -0.65037,1.75813 -0.98849,1.94936 -1.42773,0.80469 -0.54623,-1.42343 0.44794,-3.89935 1.33594,-3.86523 z m 580.11914,1.0957 c -1.08122,-0.0182 1.49392,2.24559 4.77343,3.83008 2.54756,1.23085 4.19905,1.52947 4.85157,0.87695 0.65252,-0.65252 1.7755,-0.43864 3.29687,0.62696 2.55301,1.7882 3.86133,2.05041 3.86133,0.77539 0,-1.20989 -4.85089,-3.34055 -9.5,-4.17383 -2.2,-0.39431 -4.86134,-1.07917 -5.91406,-1.52149 -0.67514,-0.28367 -1.11963,-0.40986 -1.36914,-0.41406 z m 23.76758,7.54102 c -0.54927,-0.0213 -1.46877,0.29318 -2.34961,0.84179 -2.612,1.6268 -14.83717,2.92212 -23.63477,2.50391 -15.41122,-0.73261 -29.95318,-0.2214 -31.55664,1.10938 -0.88558,0.73496 -2.36072,1.40136 -3.27734,1.48046 -9.32055,0.8045 -15.25855,1.8118 -15.79493,2.67969 -0.44847,0.72563 2.87975,0.82891 10.76953,0.33594 6.27968,-0.39237 25.12967,-0.75571 41.88868,-0.80859 16.75901,-0.0529 37.2207,-0.60004 45.4707,-1.21485 8.25,-0.6148 22.54287,-1.09526 31.76172,-1.06836 15.37288,0.0448 16.81007,-0.10321 17.3418,-1.77734 0.31887,-1.00395 0.34666,-2.05764 0.0625,-2.3418 -1.09661,-1.09661 -43.28404,-1.00684 -48.69532,0.10352 -3.18936,0.65443 -6.99795,0.80476 -9,0.35547 -1.90896,-0.4284 -5.37886,-0.92615 -7.71093,-1.10743 -2.33207,-0.18127 -4.52177,-0.6116 -4.86524,-0.95507 -0.0859,-0.0859 -0.22709,-0.12961 -0.41015,-0.13672 z m -593.45899,1.76758 c 0.16325,-10e-4 0.40007,0.16764 0.72461,0.49218 0.75682,0.75682 0.8129,1.48593 0.16211,2.13672 -0.65079,0.65079 -1.04241,0.25917 -1.14844,-1.14844 -0.0758,-1.00601 -0.0104,-1.47883 0.26172,-1.48046 z M 728,381 c -0.55,0 -1,0.45 -1,1 0,0.55 0.45,1 1,1 0.55,0 1,-0.45 1,-1 0,-0.55 -0.45,-1 -1,-1 z m -352.94141,2 C 374.47613,383 374,383.45 374,384 c 0,0.55 0.19887,1 0.44141,1 0.24254,0 0.71867,-0.45 1.05859,-1 0.33992,-0.55 0.14105,-1 -0.44141,-1 z m -170.99218,0.0859 c 0.15542,0.01 0.331,0.0376 0.53125,0.0762 1.3822,0.26619 1.88023,1.45955 2.11718,5.0918 0.17026,2.61003 -0.12053,4.74609 -0.64453,4.74609 -1.34454,0 -1.74148,-0.90792 -2.55859,-5.84375 -0.55811,-3.37137 -0.53328,-4.13799 0.55469,-4.07031 z m 166.64648,1.14844 c -0.63319,0.0166 -2.01293,0.12637 -4.21289,0.30468 -11.0127,0.89263 -21.8549,2.81038 -19.87695,3.51563 1.03225,0.36807 2.32695,0.51893 2.87695,0.33593 1.54264,-0.51323 6.62403,-1.44468 10.5,-1.92382 1.925,-0.23797 5.525,-0.87864 8,-1.42383 2.74994,-0.60575 3.76822,-0.83622 2.71289,-0.80859 z m -40.79687,4.88867 c -0.3474,-0.0143 -0.74258,0.0489 -1.10352,0.19336 -0.79773,0.31922 -0.56143,0.55744 0.60352,0.60547 1.05416,0.0434 1.64479,-0.19311 1.3125,-0.5254 -0.16615,-0.16612 -0.46511,-0.25913 -0.8125,-0.27343 z m -44.16016,0.0176 c 0.43596,-0.007 0.79465,0.0759 0.9707,0.25196 1.16661,1.16661 -1.17402,2.5666 -2.70703,1.61914 -1.24141,-0.76723 -1.19633,-1.00754 0.30078,-1.58203 0.48541,-0.18626 0.99959,-0.28233 1.43555,-0.28907 z m -69.01563,0.50586 c 1.26802,0.079 2.24523,1.55863 1.31836,3.21485 -0.60912,1.08845 -0.47682,2.14127 0.39453,3.13867 0.72107,0.82535 1.61898,2.5125 1.9961,3.75 0.37736,1.2383 0.25656,2.25 -0.26758,2.25 -0.97245,0 -2.65088,-2.37468 -5.10547,-7.2168 -1.1236,-2.21661 -1.14132,-2.9996 -0.0937,-4.26172 0.54605,-0.65795 1.18144,-0.91089 1.75781,-0.875 z M 267.44141,391 c -0.85748,0 -1.28133,0.45 -0.94141,1 0.33992,0.55 1.04105,1 1.55859,1 0.51754,0 0.94141,-0.45 0.94141,-1 0,-0.55 -0.70113,-1 -1.55859,-1 z m -59.5586,4 c 0.55,0 1.27727,0.45 1.61719,1 0.33992,0.55 0.16719,1 -0.38281,1 -0.55,0 -1.27727,-0.45 -1.61719,-1 -0.33992,-0.55 -0.16719,-1 0.38281,-1 z m 519.7793,13.98828 c 2.76087,0.0525 5.35915,0.44989 5.12891,1.14063 -0.20683,0.62047 -2.49853,1.183 -5.0918,1.25 -5.49452,0.14203 -6.92783,-0.20062 -6.14649,-1.46485 0.42461,-0.68704 3.34851,-0.97824 6.10938,-0.92578 z m -495.33984,0.2168 c 0.20613,0.0261 0.50254,0.21934 0.86132,0.57812 0.65087,0.65084 0.95019,1.41506 0.66602,1.69922 C 233.18222,412.14981 232,410.96759 232,409.63281 c 0,-0.3133 0.11613,-0.45386 0.32227,-0.42773 z m 479.73242,0.91601 c 0.83837,-0.0624 0.94531,0.20597 0.94531,0.75977 0,0.4847 -1.99981,1.3847 -4.44336,2 -5.24621,1.32101 -5.03517,1.30663 -5.91797,0.42383 -0.38253,-0.38252 1.45367,-1.26188 4.08203,-1.95508 2.92535,-0.77154 4.49562,-1.16611 5.33399,-1.22852 z M 465.66016,412.2832 C 464.01121,412.2622 463,412.44231 463,412.85156 c 0,0.56858 1.9125,1.17268 4.25,1.3418 2.3375,0.16913 6.5,0.38156 9.25,0.47266 l 5,0.16601 -4,-0.89648 c -4.57085,-1.02384 -9.09161,-1.61739 -11.83984,-1.65235 z m 225.25586,1.83985 c 0.34739,0.0143 0.64635,0.10729 0.8125,0.27343 0.33229,0.33229 -0.25834,0.56878 -1.3125,0.5254 -1.16495,-0.048 -1.40125,-0.28625 -0.60352,-0.60547 0.36093,-0.14446 0.75612,-0.20767 1.10352,-0.19336 z m -5.83399,0.36914 C 685.61992,414.43334 686,414.6317 686,415.03125 686,415.56399 685.325,416 684.5,416 c -0.825,0 -1.5,-0.17643 -1.5,-0.39258 0,-0.21616 0.675,-0.65216 1.5,-0.96875 0.20625,-0.0791 0.40273,-0.12687 0.58203,-0.14648 z m -201.16601,0.63086 c -0.3474,-0.0143 -0.74258,0.0489 -1.10352,0.19336 -0.79773,0.31922 -0.56143,0.55745 0.60352,0.60547 1.05416,0.0434 1.64479,-0.19311 1.3125,-0.5254 -0.16615,-0.16612 -0.46511,-0.25913 -0.8125,-0.27343 z m 182.86132,2.45507 c 0.71719,-0.0495 1.22266,0.14175 1.22266,0.51563 0,0.49851 -0.9,0.90625 -2,0.90625 -1.1,0 -2,-0.17196 -2,-0.38281 0,-0.21085 0.9,-0.61859 2,-0.90625 0.275,-0.0719 0.53828,-0.11632 0.77734,-0.13282 z M 621.94141,421 c 1.06754,0 2.20822,0.43211 2.53515,0.96094 0.38018,0.61529 1.5126,0.61413 3.14258,-0.006 1.40168,-0.53292 3.0436,-0.66287 3.64844,-0.28906 0.69084,0.42696 0.38072,0.95986 -0.83399,1.43554 -2.44894,0.95901 -8.88734,1.11266 -9.76757,0.23242 C 619.41055,422.0788 620.00029,421 621.94141,421 Z M 635,421 c 1.1,0 2,0.45 2,1 0,0.55 -0.9,1 -2,1 -1.1,0 -2,-0.45 -2,-1 0,-0.55 0.9,-1 2,-1 z m -20.76367,1.73633 c 0.63059,0.006 1.1719,0.0428 1.58398,0.11523 1.27602,0.22432 1.95102,0.7571 1.5,1.1836 -1.20192,1.1366 -16.32031,2.09545 -16.32031,1.03515 0,-0.93906 8.82216,-2.37729 13.23633,-2.33398 z" id="path12" style="fill:#000000"/>
</svg>
