<?xml version="1.0" encoding="UTF-8" standalone="no"?>
<!-- Created with Inkscape (http://www.inkscape.org/) -->

<svg
   xmlns:dc="http://purl.org/dc/elements/1.1/"
   xmlns:cc="http://creativecommons.org/ns#"
   xmlns:rdf="http://www.w3.org/1999/02/22-rdf-syntax-ns#"
   xmlns:svg="http://www.w3.org/2000/svg"
   xmlns="http://www.w3.org/2000/svg"
   xmlns:sodipodi="http://sodipodi.sourceforge.net/DTD/sodipodi-0.dtd"
   xmlns:inkscape="http://www.inkscape.org/namespaces/inkscape"
   version="1.1"
   id="svg2"
   width="1216"
   height="611"
   viewBox="0 0 1216 611"
   sodipodi:docname="illustration-limerick-77.svg"
   inkscape:version="0.92.4 (5da689c313, 2019-01-14)">
  <metadata
     id="metadata8">
    <rdf:RDF>
      <cc:Work
         rdf:about="">
        <dc:format>image/svg+xml</dc:format>
        <dc:type
           rdf:resource="http://purl.org/dc/dcmitype/StillImage" />
        <dc:title></dc:title>
      </cc:Work>
    </rdf:RDF>
  </metadata>
  <defs
     id="defs6" />
  <sodipodi:namedview
     pagecolor="#ffffff"
     bordercolor="#666666"
     borderopacity="1"
     objecttolerance="10"
     gridtolerance="10"
     guidetolerance="10"
     inkscape:pageopacity="0"
     inkscape:pageshadow="2"
     inkscape:window-width="1920"
     inkscape:window-height="1010"
     id="namedview4"
     showgrid="false"
     inkscape:zoom="1.009488"
     inkscape:cx="613.60369"
     inkscape:cy="305.5"
     inkscape:window-x="0"
     inkscape:window-y="0"
     inkscape:window-maximized="1"
     inkscape:current-layer="svg2" />
  <path
     style="fill:#000000"
     d="m 82.035184,586.06574 c -1.197604,-2.23774 -1.355199,-5.41239 -0.320066,-6.44752 0.899676,-0.89968 3.181845,-9.44388 3.240749,-12.13303 0.02427,-1.10814 0.916208,-3.64191 1.982077,-5.63059 1.925437,-3.59245 1.924738,-3.64042 -0.108183,-7.43341 -1.536723,-2.8672 -1.915127,-4.95084 -1.519941,-8.36941 0.757603,-6.55366 1.421766,-8.99318 3.178223,-11.67388 2.572133,-3.92557 4.165428,-43.89598 2.272047,-56.99801 -0.406951,-2.81607 -0.77715,-11.57426 -0.822664,-19.46265 -0.08253,-14.30331 -0.09116,-14.35493 -3.156856,-18.87988 C 74.506114,420.92033 70.782619,408.62524 69.507149,382 c -0.197606,-4.125 -0.768334,-9.61853 -1.268284,-12.20785 -0.49995,-2.58932 -0.562912,-5.26783 -0.139916,-5.95225 0.422997,-0.68443 0.57597,-1.55687 0.339941,-1.93878 -0.236029,-0.3819 -0.474087,-4.22839 -0.529017,-8.54774 C 67.854943,349.03402 67.40409,342.125 66.907977,338 c -0.496112,-4.125 -1.573318,-16.725 -2.393792,-28 -0.820473,-11.275 -1.980907,-25.225 -2.578742,-31 -0.686207,-6.62865 -0.803415,-16.3992 -0.317897,-26.5 0.422993,-8.8 0.812273,-23.425 0.865067,-32.5 0.05279,-9.075 0.46289,-17.73074 0.911324,-19.23497 0.693295,-2.3256 0.462892,-2.87816 -1.539302,-3.69161 -2.258887,-0.91775 -5.620275,-4.10356 -7.279568,-6.89933 -0.43281,-0.72925 -1.999745,-9.69786 -3.482076,-19.93024 l -2.695148,-18.60433 2.37795,-7.06976 c 2.423263,-7.20447 6.228122,-15.07555 9.45997,-19.56976 1.765119,-2.45457 3.176473,-4.18234 10.460261,-12.80534 3.693425,-4.3725 10.200813,-8.80445 14.458402,-9.84709 5.08242,-1.24464 17.212024,-1.38173 20.690134,-0.23385 4.98292,1.64451 10.00291,1.28364 15.40892,-1.1077 4.65871,-2.060765 7.05884,-2.175348 9.77053,-0.46645 2.35216,1.48233 4.97599,6.12462 4.97599,8.80393 0,1.73148 0.83595,2.76012 2.95711,3.63873 1.62641,0.67368 3.12105,1.06578 3.32143,0.87132 0.20037,-0.19445 1.15182,0.43395 2.11432,1.39645 0.9625,0.9625 2.38848,1.75 3.16885,1.75 1.83909,0 13.74918,8.14168 19.10227,13.05821 2.2902,2.10343 4.48277,4.86332 4.87239,6.1331 0.38963,1.26978 1.11663,2.82082 1.61558,3.44677 0.55408,0.69512 0.45006,2.14131 -0.26727,3.71567 -1.02555,2.25084 -0.83915,3.01717 1.47045,6.0452 1.45468,1.90718 2.64487,4.08263 2.64487,4.83433 0,2.0582 2.12139,3.76672 4.67695,3.76672 1.32918,0 2.96321,1.04738 3.92566,2.51626 3.23379,4.93539 0.16735,16.32629 -4.85261,18.02599 -0.9625,0.32589 -1.75,1.06228 -1.75,1.63643 0,2.65509 14.83836,-2.84621 19.56445,-7.25349 C 199.6999,171.86633 201.1694,171 201.83001,171 204.03099,171 221,153.32464 221,151.03204 c 0,-2.05202 -0.40813,-2.14458 -8.75,-1.9845 -4.8125,0.0924 -10.1,-0.16352 -11.75,-0.56862 -3.7796,-0.92795 -8.12634,-4.89648 -10.57338,-9.6534 -3.02587,-5.88213 -7.86923,-10.3131 -16.20767,-14.82762 -12.7629,-6.90999 -15.84578,-13.49648 -8.44211,-18.03636 3.18359,-1.95216 8.88169,-2.06342 16.72316,-0.32652 1.375,0.30457 4.075,0.75047 6,0.99091 4.36214,0.54484 7.29181,1.41985 18,5.37614 4.675,1.72725 10.975,3.89917 14,4.82649 6.19925,1.9004 11,4.79458 11,6.63146 0,0.6765 0.87543,2.02226 1.94539,2.99056 1.87604,1.69779 2.11671,1.61762 6.75,-2.24842 3.91227,-3.26441 5.59021,-4.01522 9.0345,-4.04261 2.32644,-0.0185 4.49504,0.39537 4.8191,0.91972 0.32406,0.52434 1.03369,0.67865 1.57694,0.3429 2.10106,-1.29853 5.53452,0.64258 7.15782,4.04667 0.92614,1.94214 2.14117,3.53116 2.70007,3.53116 0.5589,0 1.01618,0.69796 1.01618,1.55103 0,1.71835 6.50765,4.85188 8.49361,4.0898 0.69307,-0.26596 3.00304,-0.10502 5.13326,0.35765 2.13022,0.46267 6.18317,1.05754 9.00656,1.32193 2.82338,0.2644 6.26419,1.22163 7.64624,2.12718 1.53345,1.00476 4.40454,1.61033 7.36657,1.55377 9.95342,-0.19006 11.69393,-0.0449 16.71445,1.39438 2.82662,0.81031 6.93931,1.46489 9.13931,1.45461 7.94446,-0.0371 10.91294,0.29535 13.94371,1.56168 1.6961,0.70868 6.83141,1.61541 11.41179,2.01496 4.58039,0.39956 10.14327,1.36694 12.36197,2.14974 2.21869,0.7828 6.63991,1.42327 9.82492,1.42327 3.4753,0 5.94423,0.45985 6.17428,1.15 0.27323,0.81971 1.22584,0.86916 3.31683,0.17217 2.03984,-0.67995 4.00476,-0.61009 6.45,0.22932 8.1529,2.79876 10.9679,3.43589 19.5165,4.41726 11.47909,1.31779 13.99358,1.77609 19.5,3.5541 6.51607,2.10402 27.5794,6.44843 34,7.01266 3.025,0.26583 8.68501,1.42164 12.5778,2.56846 5.39656,1.58984 7.89069,1.86731 10.5,1.16812 1.88221,-0.50435 4.5472,-0.6325 5.9222,-0.28477 1.375,0.34774 4.3,0.31015 6.5,-0.0835 10.78331,-1.92956 31.2543,-2.79172 33.48926,-1.41044 0.53868,0.33292 7.39896,0.79972 15.24508,1.03734 16.67532,0.505 40.68288,1.43333 52.76566,2.04036 4.675,0.23487 9.625,0.8663 11,1.40318 1.375,0.53687 5.35749,1.41954 8.84999,1.96148 3.49249,0.54195 6.9846,1.51204 7.76024,2.15577 1.36045,1.12906 10.07132,4.18603 25.04178,8.78807 6.22858,1.91471 7.74788,2.04854 11.767,1.03652 2.53824,-0.63914 4.85889,-1.55672 5.15701,-2.03908 0.29811,-0.48235 1.75841,-0.877 3.24512,-0.877 1.4867,0 6.24772,-1.125 10.58003,-2.5 9.67785,-3.0716 11.59883,-3.15031 11.59883,-0.47527 0,2.11916 -3.37101,3.97907 -8,4.4139 -1.375,0.12916 -3.76679,0.7583 -5.3151,1.39809 -1.5483,0.63979 -3.85585,1.16326 -5.12788,1.16326 -2.68701,0 -9.14959,2.53174 -10.008,3.92068 -0.32325,0.52304 3.05139,4.69235 7.4992,9.26515 11.36779,11.68722 15.28705,20.76737 17.50872,40.56417 0.38576,3.4375 1.04805,6.25 1.47174,6.25 0.42369,0 3.17806,-1.62187 6.12083,-3.60415 2.94277,-1.98228 6.92549,-4.47668 8.85049,-5.5431 1.925,-1.06642 6.425,-3.71772 10,-5.89177 3.575,-2.17404 9.03979,-5.28704 12.14397,-6.91777 3.10419,-1.63072 7.82919,-4.81579 10.5,-7.07791 6.90576,-5.84904 12.31447,-10.3441 16.35603,-13.59312 1.925,-1.54752 6.875,-5.93111 11,-9.7413 10.56779,-9.76131 16.09002,-13.71761 27.22537,-19.50516 26.21368,-13.62443 36.28953,-19.55487 52.03864,-30.6289 l 3.76401,-2.64667 -2.26401,-2.93033 C 845.66639,132.02762 839.6037,125 838.89275,125 c -1.04645,0 -9.67505,5.83874 -10.42726,7.05585 -0.32273,0.52218 -2.69699,1.89695 -5.27613,3.05505 -2.57915,1.15811 -5.58936,2.91192 -6.68936,3.89738 -1.1,0.98546 -3.63863,2.62424 -5.64141,3.64173 -5.39344,2.7401 -17.89497,10.27749 -21.55469,12.99569 -5.17903,3.84665 -16.39048,9.3543 -19.04176,9.3543 -1.34946,0 -3.74664,0.76384 -5.32708,1.69743 -3.20142,1.89113 -4.92358,1.11444 -3.31576,-1.49539 1.07549,-1.74574 2.32652,-2.4406 15.55913,-8.64206 4.22314,-1.97917 9.44121,-5.07125 11.59571,-6.87128 3.40907,-2.8482 8.03256,-5.7384 20.72586,-12.95601 1.65,-0.93822 5.00366,-2.67327 7.45257,-3.85567 6.64809,-3.20988 17.76622,-10.53806 18.2831,-12.05075 0.24924,-0.72945 -0.69417,-2.83983 -2.09648,-4.68973 -3.31828,-4.37742 -3.75812,-11.37842 -1.05775,-16.836349 C 834.56266,94.285199 843.12603,85 845.26994,85 c 0.90702,0 2.69137,1.12402 3.96523,2.497822 2.11315,2.278928 2.5961,2.39214 5.51104,1.291871 2.67028,-1.007919 4.01586,-0.910745 8.19418,0.591759 4.88878,1.757979 5.0607,1.753689 7.77944,-0.194105 1.52909,-1.095497 3.87111,-3.160808 5.20448,-4.58958 C 877.25769,83.168995 878.77894,82 879.30488,82 c 0.52594,0 3.1613,-1.584165 5.85635,-3.520366 6.94467,-4.989246 11.85888,-6.802685 15.09763,-5.571314 1.43033,0.54381 4.23147,0.724091 6.22476,0.400625 3.0716,-0.498452 3.98201,-1.291046 5.97128,-5.198532 1.29092,-2.535727 3.56539,-5.735413 5.05438,-7.110413 1.48899,-1.375 4.67943,-5.25139 7.08986,-8.6142 2.41043,-3.36281 7.75129,-9.314121 11.86857,-13.225135 C 946.52836,29.604031 951,28.516321 951,35.625739 c 0,2.1682 -0.92473,4.723319 -2.42154,6.690983 -2.15648,2.834838 -8.60944,15.594667 -9.19573,18.183278 -0.12457,0.55 -1.41792,4.343581 -2.87412,8.430181 -1.4562,4.086599 -2.43141,8.257015 -2.16714,9.267591 0.26427,1.010575 -0.13368,2.451586 -0.88434,3.202245 -0.75066,0.75066 -3.24479,5.130244 -5.54252,9.732409 -2.29772,4.602166 -4.86323,9.155074 -5.70113,10.117574 -2.1702,2.49292 -5.52596,2.16479 -8.52426,-0.8335 -3.63057,-3.630574 -5.82218,-2.842993 -7.20824,2.59036 -2.52608,9.90222 -5.75099,13.40411 -14.93706,16.22 -6.97455,2.13796 -7.01246,2.16845 -3.84916,3.095 2.79862,0.81974 3.32561,1.5459 4.25,5.85618 0.58038,2.70622 1.05524,6.18757 1.05524,7.73632 0,3.52249 2.9995,7.42858 6.96611,9.0716 1.66864,0.69117 3.03389,1.61349 3.03389,2.04959 0,0.43609 2.18183,2.1354 4.84852,3.77622 2.66668,1.64083 6.46462,4.40228 8.43985,6.13656 4.24949,3.7311 9.9313,7.70884 35.63714,24.94897 1.96597,1.31852 3.93435,3.00602 4.37418,3.75 0.43983,0.74399 1.59248,1.3527 2.56144,1.3527 0.96896,0 2.6341,0.80223 3.70031,1.78272 3.93182,3.61575 9.49057,5.4897 14.51799,4.89428 2.62232,-0.31058 5.58972,-0.99768 6.59422,-1.5269 1.00449,-0.52922 4.6262,-1.74691 8.04824,-2.70597 6.89061,-1.93118 7.12635,-2.27803 9.13721,-13.44413 2.6628,-14.78596 2.5067,-15.59625 -2.387,-12.38976 -1.56784,1.02729 -3.39321,1.37539 -5.0421,0.96155 -2.59659,-0.65171 -10.43,-7.84666 -10.43,-9.57991 0,-0.51003 -2.8125,-2.7899 -6.25,-5.06639 -3.4375,-2.27649 -6.60986,-4.76602 -7.04969,-5.53228 C 969.26048,143.62694 968.09272,143 967.1053,143 c -2.58807,0 -5.24389,-3.35276 -6.53456,-8.24939 -1.43757,-5.45389 -5.50275,-12.37623 -8.07074,-13.74312 -1.50471,-0.80092 -3.95887,-0.5622 -9.90996,0.96398 C 932.66092,124.51782 928,124.63114 928,122.3262 c 0,-0.92059 1.762,-5.30809 3.91556,-9.75 8.90279,-18.362824 8.5184,-17.014666 8.7178,-30.5762 0.17437,-11.859684 0.34214,-12.801764 3.27521,-18.390921 C 945.60886,60.369072 947,57.159129 947,56.475872 c 0,-0.683257 2.07944,-2.757342 4.62097,-4.609079 2.54153,-1.851736 5.71199,-4.379293 7.04545,-5.616793 1.33347,-1.2375 3.05825,-2.25 3.83285,-2.25 0.7746,0 6.23527,-2.475 12.13483,-5.5 5.89956,-3.025 11.32645,-5.5 12.05976,-5.5 0.7333,0 2.11467,-0.403805 3.06971,-0.897344 2.02385,-1.045877 8.20593,-3.355403 13.30743,-4.971443 C 1005.035,26.509046 1008.4475,26 1010.6543,26 c 2.2068,0 4.3208,-0.308402 4.6977,-0.685338 1.2019,-1.201932 7.8126,-3.168569 9.5106,-2.829378 5.7118,1.140926 7.0564,1.90494 8.1965,4.657354 0.9232,2.228756 0.9444,3.253843 0.085,4.112997 -1.6297,1.629708 -1.4159,3.062522 0.3556,2.382739 4.0892,-1.569161 6.4027,4.249859 2.7512,6.919889 -1.5943,1.165791 -1.4965,1.342075 1.1076,1.995658 1.9862,0.498511 3.2984,1.774824 4.3074,4.18958 0.798,1.909969 1.2189,3.704751 0.9352,3.988406 -0.2836,0.283655 0.365,2.242089 1.4414,4.352076 1.0765,2.109988 1.9572,4.733094 1.9572,5.829126 0,2.405567 1.7345,6.602986 4.2744,10.343981 1.7446,2.569564 1.7701,3.104356 0.3752,7.862779 -1.1806,4.027468 -1.2782,6.296161 -0.4622,10.74291 1.4237,7.758302 1.7974,8.281287 6.8593,9.598159 6.3665,1.656312 24.9533,16.363382 24.9533,19.744732 0,0.44816 1.4693,2.94773 3.265,5.55459 6.9777,10.12932 14.735,24.35433 14.735,27.02028 0,0.632 0.9,1.63076 2,2.21946 1.3628,0.72935 2.0004,2.09459 2.0011,4.28518 0,3.32033 1.8854,5.72635 8.9989,11.49075 4.8355,3.91848 14.2513,10.12624 22,14.50448 10.0345,5.66978 11.0659,6.71471 11.2527,11.40038 0.1354,3.39523 -0.4862,4.89819 -3.5952,8.69234 -4.3329,5.28768 -16.9048,14.29879 -25.2862,18.12432 -1.7208,0.78542 -3.4119,2.16596 -3.758,3.06786 -0.3461,0.9019 -0.2123,5.53116 0.2973,10.28725 0.5095,4.75609 0.9099,9.99744 0.8897,11.64744 -0.02,1.65 0,14.025 0.054,27.5 0.05,13.475 0.078,25.175 0.062,26 -0.016,0.825 0.2143,6.57222 0.5117,12.77159 0.6624,13.80856 1.9273,22.04076 4.5639,29.70436 1.1074,3.21871 1.8031,6.06254 1.5461,6.31961 -0.2571,0.25707 -0.021,1.30181 0.5249,2.32163 0.5458,1.01982 1.4167,3.77315 1.9354,6.11851 2.3119,10.45464 4.1071,16.81936 6.8651,24.33906 2.9427,8.02366 3.2788,9.28983 5.0372,18.97993 0.5046,2.78007 1.4722,7.05507 2.1504,9.5 0.6781,2.44492 1.3575,5.57031 1.5096,6.94531 0.527,4.76451 1.4276,9.98331 2.542,14.73031 0.6158,2.62333 1.3492,6.56544 1.6297,8.76025 0.6656,5.20891 4.6544,23.51777 6.6333,30.44773 0.8541,2.99105 1.6513,7.59391 1.7715,10.22856 0.3135,6.87055 0.7891,7.18352 6.419,4.22427 6.8288,-3.58943 9.1246,-2.5557 13.9825,6.296 4.5971,8.37637 5.3436,16.60441 1.8601,20.50006 -1.4638,1.63699 -1.9988,3.44028 -1.8309,6.17118 0.1304,2.1221 -0.4213,5.79075 -1.226,8.15256 -1.3374,3.92503 -2.1106,4.6099 -8.9942,7.96648 -4.1421,2.01976 -7.224,3.97611 -6.8487,4.34744 0.3752,0.37134 3.6358,0.67516 7.2457,0.67516 6.3034,0 6.6009,0.11137 7.5136,2.81251 0.5227,1.54688 0.6496,4.81813 0.282,7.26943 -0.6572,4.38273 -0.7297,4.45462 -4.3542,4.3184 -2.0272,-0.0762 -7.933,0.17577 -13.1241,0.55992 -8.2982,0.61409 -9.2889,0.51844 -8.2015,-0.79187 0.6803,-0.81968 0.8776,-1.70472 0.4384,-1.96675 -1.6463,-0.98217 -6.303,-0.4013 -7.4023,0.92336 -1.4535,1.75134 -3.3366,1.75434 -4.7862,0.008 -1.0825,-1.30424 -5.7164,-1.34537 -9.0778,-0.0806 -1.2578,0.47327 -12.1852,2.19029 -18.5323,2.91198 -1.1,0.12507 -4.581,0.77739 -7.7356,1.4496 -6.3359,1.35009 -7.4557,1.02861 -8.8082,-2.5287 -1.7354,-4.56465 -9.9733,-5.4658 -9.1624,-1.00229 0.3568,1.9637 -4.3942,2.30945 -5.0478,0.36736 -0.3276,-0.97332 -0.7905,-0.94482 -2.091,0.12876 -1.1751,0.97001 -5.2996,1.454 -13.9126,1.63257 -20.0479,0.41563 -50.9165,1.53489 -55.7424,2.02115 -2.475,0.24938 -5.4,0.47292 -6.5,0.49675 -1.1,0.0238 -3.62619,0.47784 -5.61376,1.00891 -1.98758,0.53107 -5.58758,1.02806 -8,1.10443 -2.41243,0.0764 -4.96005,0.59002 -5.66137,1.14144 -0.70132,0.55143 -6.11134,1.09243 -12.02226,1.20222 -5.91092,0.1098 -11.63711,0.67399 -12.72487,1.25375 -1.08776,0.57976 -5.12774,1.34965 -8.97774,1.71086 -3.85,0.36121 -9.025,1.06391 -11.5,1.56157 -2.475,0.49765 -10.35,1.1578 -17.5,1.46699 -7.15,0.30919 -18.7766,1.26096 -25.83689,2.11503 -7.06028,0.85408 -13.53015,1.28683 -14.37747,0.96168 -0.84733,-0.32514 -3.76817,-0.29568 -6.49076,0.0655 -3.87065,0.51346 -5.13556,1.14426 -5.80025,2.89253 C 861.0353,578.03734 856,578.76045 856,576.375 c 0,-0.75625 0.765,-1.375 1.7,-1.375 1.32222,0 1.43333,-0.26667 0.5,-1.2 -2.90516,-2.90516 -0.26879,-5.44944 6.48651,-6.25996 2.09742,-0.25166 8.53849,-0.95933 14.31349,-1.5726 14.20903,-1.50893 17.27635,-1.84694 26,-2.86515 4.125,-0.48146 8.175,-0.88095 9,-0.88775 7.83264,-0.0646 27.23296,-1.53284 30,-2.27042 1.925,-0.51313 5.62167,-0.93548 8.21482,-0.93854 3.63434,-0.004 4.95204,-0.44885 5.75,-1.93984 C 958.53417,556.0019 959,554.9812 959,554.79752 c 0,-0.18368 -7.9875,-0.17573 -17.75,0.0177 -14.73449,0.29189 -17.95966,0.62107 -18.9841,1.9376 -1.12628,1.44741 -1.38837,1.44644 -3,-0.0112 -3.04645,-2.7553 -14.51342,-4.08618 -29.25102,-3.39493 -7.43318,0.34865 -15.31488,1.1219 -17.51488,1.71835 -2.2,0.59645 -6.12364,1.26716 -8.71921,1.49048 -3.90087,0.33563 -5.15755,-1.9e-4 -7.24701,-1.93664 -2.75846,-2.55646 -4.53228,-2.54814 -12.82097,0.0601 -5.66087,1.78134 -7.97878,1.20055 -7.53295,-1.88752 0.22462,-1.55581 1.22549,-2.40142 3.3544,-2.83405 1.66885,-0.33913 3.91885,-1.12961 5,-1.75662 1.61276,-0.93531 0.73686,-1.14547 -4.87788,-1.17042 -5.98884,-0.0266 -6.90894,-0.28021 -7.36663,-2.03041 -0.7657,-2.92805 -2.08615,-2.4594 -4.47415,1.58796 -1.16432,1.97338 -3.06165,3.9754 -4.21628,4.44894 -2.09517,0.85928 -2.09488,0.8623 0.15068,1.52867 2.68683,0.79732 2.98723,3.97461 0.5,5.28853 -1.6847,0.88997 -15.81826,0.66868 -27.25,-0.42665 -9.43719,-0.90423 -29.56871,-0.3616 -38,1.02426 -13.43543,2.20839 -22.71043,3.18561 -23.94737,2.5231 -0.79606,-0.42638 -2.59606,-0.32573 -4,0.22366 -1.40395,0.54939 -5.35084,0.94937 -8.77088,0.88886 -3.42004,-0.0605 -8.37004,0.40638 -11,1.03754 -2.62996,0.63116 -6.35675,1.23887 -8.28175,1.35045 -1.925,0.11159 -6.425,0.53794 -10,0.94745 -3.575,0.4095 -12.575,0.91426 -20,1.12168 -7.425,0.20743 -15.75,0.59162 -18.5,0.85376 -12.99886,1.23913 -26.8491,1.55695 -27.95225,0.64142 -1.33826,-1.11066 -15.38059,0.0622 -30.04775,2.50972 -4.95,0.826 -12.6,1.88871 -17,2.36158 -4.4,0.47287 -12.93812,2.51086 -18.97359,4.52887 -10.31599,3.44925 -11.05067,3.56371 -12.25978,1.91016 -1.03369,-1.41365 -1.03887,-1.98255 -0.0264,-2.89782 1.26867,-1.14689 9.42671,-4.09917 17.75978,-6.42702 2.475,-0.69139 5.625,-1.61785 7,-2.0588 1.375,-0.44095 4.75,-1.05556 7.5,-1.3658 2.75,-0.31024 7.925,-1.01013 11.5,-1.55531 10.10482,-1.54096 41.08965,-3.09029 70.5,-3.52519 20.44649,-0.30235 37.74562,-1.63245 46.13541,-3.54727 2.27448,-0.51911 9.02448,-1.40019 15,-1.95795 5.97553,-0.55775 12.21459,-1.20992 13.86459,-1.44924 1.65,-0.23933 6.825,-0.74619 11.5,-1.12637 4.675,-0.38017 8.95,-0.96433 9.5,-1.29813 0.55,-0.3338 12.32283,-0.68288 26.16183,-0.77574 l 25.16184,-0.16883 6.83816,-3.7761 c 14.17781,-7.82912 20.57729,-12.9739 27.06468,-21.75827 2.57266,-3.48356 3.51225,-5.7231 3.35638,-8 -0.41618,-6.0793 -0.15693,-7.1752 2.12178,-8.96928 11.43841,-9.00573 23.78806,-22.79355 31.96979,-35.69284 1.9187,-3.025 5.36436,-7.66487 7.65704,-10.31082 4.12761,-4.76363 4.53114,-5.79005 4.22048,-10.73534 -0.0917,-1.46036 0.71596,-3.33884 1.89404,-4.40498 1.9517,-1.76628 2.05398,-1.76948 2.05398,-0.0643 0,2.31807 3.78845,-3.25076 6.4523,-9.48456 1.05762,-2.475 2.56106,-5.26296 3.34096,-6.19546 0.7799,-0.93251 2.62319,-4.08251 4.09619,-7 1.473,-2.9175 3.80184,-7.10454 5.1752,-9.30454 C 919.19984,410.4777 924,400.49442 924,398.99623 c 0,-0.62132 1.06751,-2.56215 2.37225,-4.31295 2.29569,-3.08054 7.62775,-15.39572 7.62775,-17.6174 0,-0.60116 0.43504,-1.87441 0.96676,-2.82945 0.53172,-0.95504 2.36972,-4.88643 4.08444,-8.73643 1.71472,-3.85 3.97967,-8.82958 5.03323,-11.06572 C 945.138,352.19813 946,350.10645 946,349.7861 c 0,-0.85025 10.71106,-23.67654 13.03842,-27.7861 1.09018,-1.925 6.08778,-11.825 11.10577,-22 5.018,-10.175 10.09842,-19.85 11.28982,-21.5 1.1914,-1.65 4.23515,-7.275 6.76389,-12.5 2.52874,-5.225 6.1899,-12.12572 8.13593,-15.33493 1.94602,-3.20921 3.29626,-6.46546 3.00054,-7.2361 -0.33027,-0.86066 0.40954,-1.76131 1.91783,-2.33475 1.3505,-0.51346 3.4109,-2.43222 4.5786,-4.2639 1.1677,-1.83167 2.6801,-4.09624 3.3608,-5.03236 0.6807,-0.93612 0.9911,-1.94861 0.6897,-2.24998 -0.7242,-0.72422 -12.11246,1.49082 -13.3313,2.59297 -0.5225,0.47248 -1.96927,0.85905 -3.21505,0.85905 -1.24578,0 -4.25591,0.67591 -6.68918,1.50203 -2.43327,0.82612 -5.4865,1.50255 -6.78495,1.50319 -1.29845,6.4e-4 -4.70097,0.0209 -7.56115,0.0451 -3.93082,0.0332 -6.66071,-0.71607 -11.18251,-3.06941 -3.2902,-1.71236 -6.55555,-3.80425 -7.25633,-4.64864 -0.70078,-0.84438 -3.66918,-3.06734 -6.59646,-4.93989 -2.92728,-1.87256 -7.38712,-5.30791 -9.91075,-7.63411 -2.52363,-2.3262 -5.09809,-4.2546 -5.72102,-4.28532 -2.36906,-0.11685 -6.61825,-2.85243 -7.18003,-4.62242 -0.32223,-1.01526 -1.78112,-2.14591 -3.24198,-2.51256 -3.01973,-0.75791 -6.12791,-4.03008 -6.17732,-6.50325 -0.0427,-2.1369 -11.49196,-10.7765 -15.28694,-11.53549 -2.3741,-0.47482 -2.79459,-0.97086 -2.3442,-2.76534 0.42776,-1.70433 -0.80844,-3.56094 -5.60366,-8.41598 -7.00183,-7.08917 -12.79685,-10.15077 -19.4669,-10.28465 -3.36053,-0.0675 -5.81314,-0.90087 -9.0197,-3.06495 l -4.40412,-2.9723 0.49859,-5.39803 c 0.27422,-2.96891 0.18248,-5.38603 -0.20388,-5.37137 -0.38635,0.0147 -3.40246,2.01868 -6.70246,4.45339 -8.91071,6.57424 -10.3789,7.57341 -11.22756,7.64086 -1.29585,0.10298 -6.27244,3.26573 -6.27244,3.9863 0,0.37179 -1.23299,0.98545 -2.73998,1.36368 -1.50699,0.37823 -2.96949,0.98951 -3.25,1.3584 -0.28051,0.3689 -2.31002,1.51488 -4.51002,2.54662 -2.2,1.03175 -5.8,2.80802 -8,3.94728 -6.74892,3.49489 -8.69572,4.45604 -17.68813,8.73273 -11.74542,5.58599 -18.6358,10.61983 -32.74398,23.92141 -6.56822,6.19271 -14.783,13.24328 -18.25506,15.66794 C 744.34078,224.06991 739.7,227.39533 737.5,229.03509 730.35423,234.36114 724.91714,238 724.10486,238 c -0.43719,0 -1.59404,0.88306 -2.57079,1.96235 -0.97675,1.0793 -3.40899,2.49176 -5.40499,3.13881 -4.18274,1.35593 -9.04469,4.51605 -10.93578,7.10792 -0.71869,0.98501 -2.11145,1.79092 -3.09502,1.79092 -3.82358,0 -5.05071,3.08422 -5.0057,12.58121 0.0234,4.93846 -0.42505,11.89046 -0.99655,15.4489 -0.57151,3.55844 -1.75221,11.64489 -2.62378,17.96989 -0.87157,6.325 -3.0923,16.33695 -4.93495,22.24878 -1.84265,5.91183 -3.05485,10.93128 -2.69379,11.15434 0.36107,0.22306 3.13149,-0.89626 6.15649,-2.48738 3.025,-1.59112 8.425,-4.38167 12,-6.20122 7.84739,-3.99405 15.80668,-9.17297 26.5,-17.24293 4.4,-3.32056 9.125,-6.76271 10.5,-7.64921 1.375,-0.88651 4.3,-3.23385 6.5,-5.21632 2.2,-1.98247 4.45,-3.62992 5,-3.661 0.97408,-0.055 4.89263,-3.01333 15.49122,-11.69506 2.85361,-2.3375 6.06209,-4.25 7.12996,-4.25 1.06788,0 2.1848,-0.6338 2.48206,-1.40844 0.29726,-0.77465 1.86981,-1.95908 3.49456,-2.63207 1.62475,-0.67299 3.89584,-2.54619 5.04688,-4.16267 2.7967,-3.92761 10.80022,-11.87547 14.20544,-14.10666 1.59964,-1.04812 3.55694,-1.53705 4.70039,-1.17413 1.21001,0.38404 2.09538,0.11745 2.31505,-0.69708 0.19563,-0.72542 1.14543,-3.70043 2.11067,-6.61113 0.96523,-2.91069 1.97475,-6.96069 2.24338,-9 1.10138,-8.36104 5.99322,-14.23103 12.94317,-15.53124 3.51646,-0.65786 4.69533,0.29201 5.72913,4.61624 0.36723,1.53605 1.44178,3.0314 2.38789,3.323 0.94611,0.2916 2.50159,0.94733 3.45663,1.45718 0.95504,0.50985 2.44786,0.927 3.31739,0.927 1.0697,0 1.39546,0.58446 1.00733,1.80733 -0.39642,1.24901 0.35506,2.49394 2.43261,4.02994 3.18795,2.35695 3.8817,5.6584 1.9482,9.27118 -0.86111,1.60899 -0.62844,2.32515 1.25,3.84759 l 2.30804,1.87063 -2.25,3.04617 c -2.36607,3.20332 -2.74075,4.20465 -1.5,4.00874 5.81633,-0.91837 5.5379,3.52553 -0.41771,6.66679 -2.29224,1.20904 -5.44224,3.06675 -7,4.12825 -1.55776,1.06149 -6.72874,3.837 -11.49107,6.16779 -4.76233,2.33079 -8.91071,4.8943 -9.21862,5.69669 -0.30791,0.8024 -1.24895,1.4589 -2.09122,1.4589 -0.88135,0 -1.53138,0.87755 -1.53138,2.06739 0,1.55583 -0.45739,1.92221 -1.84849,1.4807 -2.4622,-0.78147 -6.31875,1.32794 -11.4411,6.25791 C 786.5483,302.47382 781.72858,307 781.40135,307 c -0.20143,0 -2.51163,2.06627 -5.13379,4.59172 -2.62216,2.52544 -6.56756,5.49411 -8.76756,6.59703 -2.2,1.10293 -5.125,3.06741 -6.5,4.36552 -8.45594,7.98305 -17.73478,15.42397 -25.75,20.64951 -3.4375,2.24109 -6.25,4.41042 -6.25,4.82073 0,0.64698 -6.90902,5.08955 -17.41167,11.1959 -3.10641,1.8061 -13.50915,6.88405 -19.08833,9.31769 -1.65,0.71973 -5.93241,2.6931 -9.51646,4.38525 C 679.39949,374.61551 675.4325,376 674.168,376 c -5.1538,0 -17.15341,6.9199 -29.82938,17.20193 -27.44479,22.26166 -45.15636,32.23569 -59.34424,33.41892 -4.43152,0.36957 -8.33967,1.12883 -8.68479,1.68724 -0.34511,0.5584 1.13155,2.39289 3.28147,4.07663 8.73066,6.83755 11.40894,10.15596 11.40894,14.1358 0,3.00176 0.81597,4.64104 4.06421,8.16497 2.23532,2.42503 3.91822,5.17535 3.73979,6.11183 -0.39481,2.07204 -4.37488,2.80371 -6.34721,1.16682 -1.1378,-0.94429 -1.56596,-0.84322 -2.07774,0.49045 -0.35454,0.92392 -0.13486,2.1896 0.48817,2.81263 1.72798,1.72798 1.44493,5.07307 -0.36722,4.33977 -0.825,-0.33385 -2.175,-0.88013 -3,-1.21398 -0.825,-0.33384 -1.50689,-0.22134 -1.51531,0.25 -0.008,0.47135 -0.4075,1.47616 -0.88684,2.23291 -0.72888,1.15071 -1.66755,1.0816 -5.73469,-0.42219 -6.37157,-2.35585 -7.1155,-2.99603 -7.87036,-6.77283 -0.34967,-1.74949 -1.10605,-4.6966 -1.68085,-6.54913 l -1.04509,-3.36823 -2.13343,2.47511 c -3.03593,3.52214 -5.94345,4.16951 -9.7908,2.17997 l -3.25732,-1.68442 -4.32301,4.8829 c -2.37765,2.68559 -6.7249,8.4829 -9.66053,12.8829 -5.89817,8.8403 -22.23847,40.86481 -22.7668,44.61947 -0.30127,2.14103 0.0172,2.3648 3.16503,2.22421 8.56848,-0.38271 19.17285,-1.33247 19.90083,-1.78239 0.76918,-0.47538 15.71585,-2.0955 29.09917,-3.15416 3.575,-0.2828 6.9275,-0.94009 7.45,-1.46065 1.32855,-1.32363 4.91608,-1.1804 6.35,0.25352 2.08276,2.08276 1.31151,3.40025 -2.05,3.50195 -4.52301,0.13683 -28.50941,3.08228 -38.75,4.75836 -4.675,0.76516 -11.65,1.63309 -15.5,1.92873 -10.05382,0.77204 -13.42363,2.18394 -15.16615,6.35437 -0.79806,1.91002 -1.31203,3.61174 -1.14216,3.78161 0.16987,0.16987 4.13373,-0.13912 8.80858,-0.68666 4.67485,-0.54753 10.29973,-1.12714 12.49973,-1.28804 2.2,-0.16089 9.85,-1.43398 17,-2.82909 13.94197,-2.72035 19.97587,-3.55538 31,-4.29006 3.85,-0.25657 9.40013,-0.84729 12.33362,-1.31271 4.31682,-0.68489 5.44078,-0.56696 5.89572,0.61859 0.8469,2.20699 -1.58116,3.21313 -8.22934,3.41005 -9.55376,0.28299 -13.3826,0.60174 -17.31803,1.44175 -4.40846,0.94098 -4.77263,1.00455 -13.65516,2.38361 -9.28368,1.44134 -15.55362,3.37304 -21.56123,6.64279 -5.12538,2.78958 -6.67884,5.08243 -2.71558,4.0081 1.2375,-0.33546 8.51538,-1.53452 16.17307,-2.66458 7.65769,-1.13006 14.20592,-2.22947 14.55163,-2.44313 0.34571,-0.21366 7.58033,-1.3056 16.07693,-2.42653 8.4966,-1.12093 19.27337,-2.54476 23.94837,-3.16405 4.675,-0.6193 9.175,-1.35315 10,-1.63078 0.825,-0.27763 4.425,-0.68902 8,-0.91419 3.575,-0.22517 9.65,-0.8764 13.5,-1.44718 3.85,-0.57079 10.375,-1.27303 14.5,-1.56056 4.125,-0.28752 10.50259,-1.08791 14.17242,-1.77863 3.66983,-0.69073 11.72961,-1.35 17.91061,-1.46504 6.181,-0.11504 11.51407,-0.37968 11.85126,-0.58807 0.33719,-0.2084 6.49034,-0.66376 13.67366,-1.01191 10.79775,-0.52334 13.27097,-0.37952 14.27488,0.83011 1.67912,2.02323 0.5333,2.47967 -7.98054,3.17907 -4.07126,0.33445 -8.97729,0.78881 -10.90229,1.00969 -5.07582,0.58241 -25.15161,1.76795 -27.5,1.62397 -1.1,-0.0675 -9.875,0.81612 -19.5,1.96348 -9.625,1.14736 -22.225,2.25081 -28,2.45212 -11.2807,0.39323 -26.37858,2.17917 -42.5,5.02737 -2.2,0.38868 -5.575,0.81222 -7.5,0.94121 -4.34683,0.29126 -8.19661,1.10038 -14,2.94243 -2.475,0.78559 -6.3,1.63456 -8.5,1.88661 -2.2,0.25204 -5.17987,0.91053 -6.62194,1.46331 -1.44207,0.55278 -6.39207,1.50965 -11,2.12639 -4.60793,0.61673 -11.03723,1.81817 -14.28732,2.66986 -4.77738,1.25192 -16.99131,3.39041 -25.59074,4.48059 -3.83635,0.48634 -7,-0.22136 -7,-1.56589 0,-2.32453 -0.13542,-2.27981 18.37334,-6.06711 6.49533,-1.32909 8.42057,-2.18653 11,-4.89906 1.71966,-1.8084 3.80166,-3.51998 4.62666,-3.80352 0.825,-0.28354 1.23805,-0.80157 0.9179,-1.15119 -1.24039,-1.35455 -39.63221,5.57772 -46.71495,8.43515 -1.26338,0.50969 -3.96338,0.93336 -6,0.94149 -2.03662,0.008 -6.62795,0.71101 -10.20295,1.56196 -7.08753,1.68702 -18.08541,3.29353 -27.5,4.01703 -3.3,0.2536 -13.425,1.34277 -22.5,2.42038 -9.075,1.07761 -19.425,2.18118 -23,2.45237 -7.06918,0.53625 -33.26603,3.45122 -36.5,4.06141 -1.1,0.20756 -6.05,1.03228 -11,1.83272 -4.95,0.80044 -10.12263,1.71711 -11.49473,2.03706 -5.8627,1.36705 -8.40513,-2.52358 -2.75527,-4.21634 7.34328,-2.20013 21.73226,-4.96532 29.75,-5.71719 1.375,-0.12894 5.2,-0.50187 8.5,-0.82874 3.3,-0.32687 12.975,-1.06647 21.5,-1.64356 14.1948,-0.96089 25.9233,-2.22476 31.80832,-3.42768 1.26958,-0.2595 5.99458,-0.95166 10.5,-1.53811 17.04593,-2.21881 38.69582,-5.58652 46.19168,-7.18526 2.75,-0.58653 7.72949,-1.2661 11.06553,-1.51017 3.33605,-0.24407 8.28605,-1.00762 11,-1.69677 4.30052,-1.09203 4.97663,-1.61432 5.26265,-4.06527 0.46082,-3.94896 -0.62555,-4.55876 -6.23275,-3.49859 -2.69752,0.51002 -7.64752,1.16097 -11,1.44655 -3.35249,0.28558 -8.12043,0.7819 -10.59543,1.10295 -2.475,0.32104 -5.85,0.74605 -7.5,0.94446 -1.65,0.19841 -5.04324,0.63195 -7.54054,0.96341 -2.4973,0.33146 -13.5223,0.80224 -24.5,1.04618 -10.9777,0.24393 -23.10946,0.63181 -26.95946,0.86195 -6.9146,0.41334 -18.22548,3.7451 -25.8445,7.61284 -2.11448,1.0734 -4.35578,1.95163 -4.98067,1.95163 -0.6249,0 -3.39487,0.87202 -6.1555,1.93782 -5.13557,1.98269 -14.83099,5.05164 -17.51933,5.54549 -3.91833,0.71981 -16.2991,2.57723 -23.44183,3.51686 -4.36801,0.57461 -9.21115,1.67796 -10.76254,2.4519 -1.55139,0.77393 -5.40256,1.69945 -8.55817,2.05671 -3.1556,0.35726 -8.88746,1.45844 -12.73746,2.44708 -3.85,0.98863 -8.575,1.84024 -10.5,1.89246 -1.925,0.0522 -5.75,0.57691 -8.5,1.16597 -2.75,0.58907 -5.9677,1.23229 -7.15045,1.42938 -1.18274,0.1971 -3.20774,0.69821 -4.5,1.11357 -1.29225,0.41537 -3.24955,0.86239 -4.34955,0.99339 -10.5683,1.25853 -27.88542,3.68712 -31.5,4.41761 -4.07127,0.82279 -6.62763,1.15663 -19.57938,2.55692 -2.15634,0.23313 -5.04562,0.66204 -6.42062,0.95312 -1.375,0.29108 -6.49313,0.73988 -11.37362,0.99733 -4.88049,0.25745 -9.69486,0.72874 -10.6986,1.04731 -1.00373,0.31857 -3.7606,0.7137 -6.12637,0.87805 -2.36578,0.16436 -8.91507,1.09124 -14.55399,2.05974 -6.65001,1.14216 -11.56935,1.48714 -14,0.98178 -2.06108,-0.42852 -4.19742,-0.66106 -4.74742,-0.51676 -2.0723,0.54368 -15.24842,0.32036 -21.5,-0.36441 -6.57468,-0.72016 -27.871703,1.36575 -34.993398,3.42739 -5.050482,1.46205 -6.803633,1.25906 -7.971418,-0.92297 z M 123.5,576.89755 c 4.4,-0.0127 15.96467,0.11768 25.69927,0.2897 13.17677,0.23284 18.01886,-0.007 18.95,-0.93725 1.00081,-1.00022 0.81808,-1.25 -0.91447,-1.25 -1.19087,0 -3.64337,-1.24871 -5.45,-2.77491 -1.80664,-1.52621 -5.5348,-3.83982 -8.2848,-5.14137 -2.75,-1.30156 -5.91998,-3.19437 -7.04441,-4.20626 -3.48893,-3.13975 -9.40154,-4.68056 -13.93265,-3.63081 -3.96301,0.91814 -28.96747,0.28747 -31.80725,-0.80225 -1.906222,-0.73149 -4.571627,1.99599 -5.253176,5.37553 -0.297269,1.47404 -1.134544,5.03097 -1.860611,7.90429 -0.726067,2.87333 -1.046023,5.50448 -0.711013,5.847 0.335011,0.34253 5.55911,0.33627 11.60911,-0.0139 6.05,-0.35018 14.6,-0.64707 19,-0.65975 z m 94.50689,-6.88481 c 3.57121,-0.64134 9.7684,-1.80658 13.77153,-2.58941 C 235.78155,566.6405 241.219,566 243.86164,566 c 4.64398,0 8.13161,-0.50243 24.13836,-3.47736 7.6627,-1.42415 16.58845,-2.87296 25.5,-4.13912 2.75,-0.39072 5.675,-0.83309 6.5,-0.98304 0.825,-0.14996 3.42968,-0.55656 5.78819,-0.90356 2.3585,-0.34701 6.8585,-1.53375 10,-2.63722 6.19967,-2.17766 12.01328,-3.18762 31.21181,-5.42225 18.28037,-2.12776 24.81296,-3.25813 28.34763,-4.90517 1.7338,-0.8079 4.88348,-2.04566 6.99928,-2.75059 2.11579,-0.70493 3.69079,-1.73169 3.5,-2.28169 -0.1908,-0.55 -0.67933,-0.88919 -1.08561,-0.75377 -3.27817,1.09273 -38.48264,1.54733 -51.2613,0.66195 -8.73144,-0.60496 -10.57639,-1.47543 -8.87157,-4.1857 1.46861,-2.33475 8.2011,-3.11404 14.05715,-1.62713 8.28563,2.1038 49.56571,0.90431 75.31442,-2.18845 2.475,-0.29728 11.5875,-0.53397 20.25,-0.52599 9.98236,0.009 15.75,-0.3566 15.75,-0.99893 0,-0.55741 -0.51502,-1.97578 -1.14449,-3.15195 -1.52082,-2.8417 -4.82688,-20.06055 -4.94021,-25.73003 -0.0495,-2.475 -0.91202,-8.1 -1.91676,-12.5 -1.00474,-4.4 -2.12268,-10.25 -2.48431,-13 -0.36163,-2.75 -1.03044,-7.80283 -1.48626,-11.22851 -0.45581,-3.42568 -1.82036,-8.37568 -3.03233,-11 -1.21197,-2.62432 -3.03028,-6.57149 -4.04069,-8.77149 -4.3448,-9.46014 -8.34526,-22.5333 -8.20147,-26.80172 0.0928,-2.75441 0.11467,-11.09928 0.0372,-14.19828 -0.0605,-2.4207 3.362,-16.35856 5.14508,-20.95299 1.0773,-2.77586 3.16653,-8.36112 4.64273,-12.4117 3.20939,-8.80634 7.7342,-14.52462 10.87034,-13.7375 1.46625,0.368 2.91974,-0.30721 4.69809,-2.18248 2.87657,-3.03332 16.37556,-7.71953 19.15945,-6.65125 1.18183,0.45351 1.94715,-0.0539 2.57826,-1.70956 0.70097,-1.83889 0.37389,-3.05164 -1.49356,-5.5378 -1.3151,-1.7508 -2.39109,-4.17343 -2.39109,-5.38361 0,-3.407 -8.98273,-11.5237 -17.01143,-15.37135 -3.89183,-1.86511 -8.51886,-4.48033 -10.28231,-5.81161 C 434.98938,309.94416 422.5219,305 419.16305,305 c -1.26199,0 -3.27325,-0.5238 -4.46947,-1.16399 -1.19622,-0.6402 -6.14377,-1.94298 -10.99456,-2.89509 -6.33737,-1.24388 -10.4634,-2.74568 -14.66005,-5.336 C 385.82674,293.62221 382.87524,292 382.48008,292 c -1.77886,0 -14.28849,-8.35185 -28.85703,-19.26593 -8.73233,-6.54185 -16.60733,-12.17447 -17.5,-12.51693 -0.89268,-0.34247 -3.50286,-1.89124 -5.8004,-3.44172 l -4.17735,-2.81905 -4.0988,2.13641 c -2.25433,1.17502 -4.55503,2.9889 -5.11265,4.03083 -0.72734,1.35903 -1.67864,1.72756 -3.36615,1.30403 -1.29376,-0.32472 -3.63826,0.0504 -5.21,0.83367 -1.57173,0.78324 -4.93516,1.51249 -7.47428,1.62055 -2.53911,0.10806 -6.94824,0.56507 -9.79805,1.01556 -8.53373,1.349 -16.49788,0.87616 -16.86342,-1.00119 -0.23853,-1.225 1.11013,-1.90563 5.7104,-2.88187 6.95021,-1.47494 7.08048,-3.00438 0.25863,-3.03632 C 275.22525,257.95479 267,254.8494 267,252.99787 c 0,-1.89827 6.35485,-3.85991 14.58154,-4.50109 4.35515,-0.33944 9.04346,-0.86355 10.41846,-1.16469 l 2.5,-0.54753 -2.39533,-0.91382 c -1.31744,-0.5026 -3.79244,-0.87569 -5.5,-0.82908 -4.94608,0.13499 -14.8227,-1.01149 -18.26624,-2.12034 -4.54557,-1.46372 -4.92622,-3.58915 -1.06756,-5.96096 4.9877,-3.0658 10.43947,-4.19114 19.97913,-4.12402 4.8125,0.0339 8.75,-0.35899 8.75,-0.87299 0,-0.51401 -2.73458,-2.31497 -6.07683,-4.00214 -5.86764,-2.96197 -14.87146,-11.20832 -14.90623,-13.65219 -0.009,-0.65504 0.4238,-1.46338 0.96249,-1.79631 0.94405,-0.58345 7.3879,0.83125 11.52057,2.52926 1.1,0.45196 3.35,1.02732 5,1.27858 1.65,0.25126 5.37472,1.11917 8.27716,1.9287 5.82644,1.62507 6.6854,1.13325 5.71748,-3.27365 -0.76123,-3.46587 -0.0279,-3.64547 7.10033,-1.73896 4.48379,1.19924 6.90645,2.93824 10.75325,7.71879 1.64446,2.04364 2.42642,2.22889 7.09319,1.6804 4.63193,-0.54439 5.76005,-0.28535 9.65178,2.21623 2.42375,1.55797 5.82465,3.6911 7.55756,4.7403 1.73291,1.0492 6.23291,3.77002 10,6.04627 7.14168,4.31533 21.61318,11.80696 29.34925,15.19355 2.475,1.08348 6.075,2.67589 8,3.5387 1.925,0.86281 6.2,2.29919 9.5,3.19195 8.62396,2.33307 24.60087,6.35735 27.3322,6.88446 1.28271,0.24754 4.20771,1.11204 6.5,1.9211 2.29229,0.80906 6.6428,2.21314 9.6678,3.12018 5.74106,1.72143 11.58505,4.1519 18.70961,7.78115 4.48312,2.28371 6.47874,1.85993 4.18289,-0.88823 -0.76587,-0.91677 -2.31667,-3.51514 -3.44622,-5.77417 -1.22192,-2.44376 -3.37626,-4.77865 -5.31905,-5.76482 -1.79593,-0.91162 -4.05719,-2.37412 -5.02502,-3.25 -0.96783,-0.87587 -2.12189,-1.5925 -2.56457,-1.5925 -1.73987,0 -22.98899,-14.75701 -31.737,-22.04059 C 419.11907,234.06154 413.15384,230 412.11058,230 c -0.44033,0 -1.65785,-0.95776 -2.70559,-2.12836 -1.04775,-1.1706 -4.82999,-4.11226 -8.40499,-6.53703 -3.575,-2.42476 -8.975,-6.19039 -12,-8.36806 -7.57311,-5.45181 -25.95015,-15.76892 -32.27579,-18.12004 -2.87331,-1.06796 -7.47421,-2.95996 -10.22421,-4.20444 -7.4409,-3.3673 -21.93804,-7.10741 -23.59053,-6.08612 -0.52172,0.32244 -2.40227,0.12185 -4.17902,-0.44575 -1.77675,-0.56759 -7.05545,-1.32503 -11.73045,-1.68319 -4.675,-0.35816 -8.95,-0.92797 -9.5,-1.26624 -0.55,-0.33827 -3.475,-0.91198 -6.5,-1.2749 -17.89157,-2.14654 -32.52685,-5.88096 -41.23104,-10.52075 -3.23774,-1.72589 -4.98338,-0.98079 -9.0132,3.84714 C 235.32922,179.71355 228,189.94933 228,191.0266 c 0,0.60451 -0.7875,0.97968 -1.75,0.83371 -2.1762,-0.33005 -9.26751,3.02175 -9.90439,4.68143 -0.2589,0.67468 2.04159,3.60274 5.1122,6.5068 5.3687,5.0775 17.54219,20.9973 17.54219,22.94069 0,0.51765 1.35,2.47874 3,4.35799 1.65,1.87924 3,4.00283 3,4.71907 0,0.71624 0.88397,3.13184 1.96438,5.36799 2.2958,4.75168 4.96813,16.52051 5.69163,25.06572 0.2794,3.3 0.84808,7.83262 1.26373,10.0725 0.41565,2.23987 0.39349,5.05173 -0.0493,6.24858 -0.44274,1.19684 -0.57718,7.23921 -0.29877,13.4275 0.31003,6.89097 0.0574,13.1236 -0.65189,16.08228 -0.78861,3.28959 -0.83206,5.1569 -0.1362,5.85276 0.56204,0.56204 5.90316,1.25524 11.86914,1.54044 8.24617,0.39419 11.61003,0.97837 14.0283,2.43619 1.74958,1.05471 5.57458,2.1918 8.5,2.52687 5.09612,0.5837 5.73117,1.01145 15.15961,10.21105 9.16348,8.94108 13.26287,14.47394 13.93854,18.81254 0.15326,0.98411 0.54636,2.23929 0.87356,2.78929 0.32719,0.55 0.61436,4.6 0.63814,9 0.0975,18.04684 2.09264,29.57278 6.64172,38.36971 2.2816,4.41213 1.94715,6.67282 -1.51043,10.20988 l -3.07781,3.14855 2.48057,2.63593 c 1.36431,1.44976 2.65184,3.53593 2.86117,4.63593 0.42473,2.2319 1.35507,2.28145 15.31387,0.8155 4.4,-0.46208 10.475,-0.4829 13.5,-0.0463 3.025,0.43663 7.075,0.93651 9,1.11084 9.39254,0.85057 17,3.52271 17,5.97129 0,2.39844 -4.68283,5.73101 -11.30414,8.04468 -3.61215,1.26218 -8.05891,3.52836 -9.8817,5.03595 -15.2201,12.5882 -26.47307,18.568 -34.94184,18.568 -4.83061,0 -11.46941,-6.93284 -13.47147,-14.06814 -2.13676,-7.61533 -10.43532,-17.39101 -14.00306,-16.49556 -1.25137,0.31407 -2.51843,0.17751 -2.8157,-0.30347 -0.29726,-0.48098 -1.90947,-1.14831 -3.58269,-1.48295 -2.63261,-0.52652 -2.89077,-0.85097 -1.91734,-2.40967 0.91068,-1.45823 0.53391,-2.80351 -1.97859,-7.06472 -1.70691,-2.89493 -3.10347,-6.1437 -3.10347,-7.2195 0,-1.07579 -0.3375,-1.95984 -0.75,-1.96454 -2.16538,-0.0247 -6.4587,-22.59148 -6.75223,-35.49145 l -0.18203,-8 -5.40787,0.3223 c -2.97433,0.17727 -9.23287,0.69276 -13.90787,1.14554 -4.675,0.45277 -10.525,0.71577 -13,0.58444 -2.475,-0.13134 -5.29067,0.1582 -6.25705,0.64342 -0.96637,0.48521 -3.33199,3.90218 -5.25692,7.59325 -3.83127,7.34649 -4.37173,8.2442 -9.4289,15.66146 -1.89358,2.77727 -4.69092,6.89239 -6.21632,9.14471 C 212.56112,408.43772 199.63861,422 198.30412,422 c -1.15736,0 -5.86495,6.21314 -5.52528,7.29234 0.13716,0.43579 -1.08342,1.35274 -2.71241,2.03768 -1.62899,0.68494 -4.59772,3.38784 -6.59717,6.00645 -2.09148,2.73913 -4.3433,4.67512 -5.30232,4.55863 -2.70153,-0.32814 -5.25585,1.20856 -6.21879,3.74128 C 171.37995,447.13085 170.24198,448 168.85349,448 166.3058,448 163,450.669 163,452.72593 c 0,0.77878 -1.96526,7.34653 -4.36724,14.59501 -5.13253,15.48849 -6.6531,21.82975 -8.07587,33.67906 -0.23114,1.925 -1.12112,5.75 -1.97775,8.5 -0.85662,2.75 -1.56723,6.35 -1.57914,8 -0.0119,1.65 -0.63348,5.025 -1.38127,7.5 -0.7478,2.475 -1.68282,9.71547 -2.07782,16.08992 -0.6146,9.91799 -0.48816,11.81998 0.87651,13.18464 1.81753,1.81753 19.18055,10.33545 23.04497,11.30536 1.40608,0.3529 2.80381,1.04179 3.10608,1.53086 0.30226,0.48907 1.31051,0.90449 2.24055,0.92315 0.93004,0.0187 3.49098,0.92318 5.69098,2.01003 3.57055,1.76393 5.55751,1.93094 18.50689,1.55548 7.97879,-0.23133 17.42879,-0.94535 21,-1.5867 z m 62.96838,-143.05895 c -0.6023,-1.12541 -0.93367,-3.48791 -0.73638,-5.25 0.30409,-2.71584 0.47746,-2.89918 1.13835,-1.20379 0.4288,1.1 1.41934,3.19443 2.2012,4.65429 1.78426,3.33151 1.77847,3.84571 -0.0433,3.84571 -0.80565,0 -1.95761,-0.92079 -2.55991,-2.04621 z M 226.5,195 c 0.33992,-0.55 0.81648,-1 1.05902,-1 0.24254,0 0.44098,0.45 0.44098,1 0,0.55 -0.47656,1 -1.05902,1 -0.58246,0 -0.7809,-0.45 -0.44098,-1 z m 754.01758,361.10897 c 9.53946,-0.74437 13.35532,-1.92582 10.01008,-3.09927 -1.01177,-0.35491 -3.9069,-0.30411 -6.43362,0.11289 -2.52672,0.41701 -8.26974,0.78501 -12.76225,0.8178 -9.40467,0.0686 -11.44542,0.59991 -10.61518,2.76348 0.47699,1.24303 1.56876,1.40113 5.68686,0.82356 2.80309,-0.39314 9.15444,-1.03145 14.11411,-1.41846 z M 1002,553 c 0,-0.55 -0.675,-1 -1.5,-1 -0.825,0 -1.5,0.45 -1.5,1 0,0.55 0.675,1 1.5,1 0.825,0 1.5,-0.45 1.5,-1 z m 44,-2.03468 c 5.225,-0.57619 10.4,-1.2435 11.5,-1.48291 1.1,-0.23942 4.475,-0.93056 7.5,-1.53588 3.025,-0.60531 9.229,-1.96591 13.7867,-3.02355 4.5577,-1.05764 9.4595,-1.92298 10.8928,-1.92298 2.5518,0 5.4574,-2.55909 15.3866,-13.55193 7.5869,-8.39966 8.9339,-10.8338 8.9339,-16.14455 0,-8.38898 -5.5183,-29.07645 -10.7507,-40.30352 -1.1535,-2.475 -2.3848,-5.625 -2.7361,-7 -0.3514,-1.375 -1.0018,-3.4 -1.4453,-4.5 -3.357,-8.32581 -5.8278,-14.02886 -8.8815,-20.5 -1.9466,-4.125 -3.4718,-7.80163 -3.3894,-8.17029 0.082,-0.36865 -1.1882,-3.62127 -2.8236,-7.22804 -1.6354,-3.60677 -2.9734,-6.98477 -2.9734,-7.50668 0,-0.52191 -1.575,-4.3587 -3.5,-8.52619 -1.925,-4.16749 -3.5,-7.93448 -3.5,-8.37109 0,-0.43661 -1.7461,-4.37221 -3.8803,-8.74578 -2.1342,-4.37356 -4.1828,-9.35895 -4.5524,-11.07864 -0.3696,-1.7197 -1.7735,-4.61962 -3.1197,-6.44428 -2.6186,-3.5494 -3.1495,-5.92901 -1.3226,-5.92901 1.6025,0 0.5434,-4.38639 -2.9052,-12.03203 -1.6046,-3.55739 -3.523,-8.04297 -4.2633,-9.96797 -0.7403,-1.925 -2.2228,-4.71031 -3.2946,-6.18958 -1.8917,-2.61089 -3.8885,-7.443 -7.7732,-18.81042 -1.0337,-3.025 -3.3054,-8.37372 -5.0481,-11.88605 -2.8878,-5.82047 -3.2868,-6.22423 -4.5045,-4.55887 -0.7349,1.00495 -1.3361,2.40334 -1.3361,3.10754 0,1.56802 -3.9331,9.88375 -8.2738,17.49308 -1.7744,3.11064 -5.2106,9.18564 -7.6359,13.5 -2.4254,4.31437 -6.5166,10.9943 -9.0915,14.8443 -2.575,3.85 -5.3156,7.95506 -6.0903,9.12236 -0.7747,1.1673 -3.25976,4.55269 -5.52241,7.52309 -2.26266,2.9704 -5.13625,7.41534 -6.38577,9.87764 -1.24952,2.4623 -4.91075,7.76611 -8.13608,11.78624 -3.22533,4.02012 -5.86424,7.70758 -5.86424,8.19434 0,0.48677 -1.56544,2.5938 -3.47877,4.68231 -1.91332,2.0885 -4.01346,5.15104 -4.66698,6.80565 -0.65352,1.6546 -2.78361,5.00069 -4.73354,7.43576 -3.42017,4.2711 -13.04263,19.59385 -20.76911,33.07261 -2.04931,3.575 -5.5637,8.75 -7.80975,11.5 -4.93531,6.04265 -9.72069,12.93517 -11.80286,17 -0.84519,1.65 -3.83223,5.86986 -6.63785,9.37746 -2.97865,3.72392 -5.10114,7.38627 -5.10114,8.80202 0,1.78277 -0.77664,2.6953 -2.93402,3.44736 -2.61896,0.91298 -4.11414,2.49455 -7.55385,7.99028 C 893.03903,521.45941 889,528.76161 889,530.1221 c 0,2.01498 -2.06262,2.93579 -4.90887,2.19148 -3.67214,-0.96029 -5.09113,1.3391 -5.09113,8.24985 0,3.47519 0.48697,6.6195 1.08215,6.98734 C 881.61543,548.49839 896,547.01989 896,545.91468 896,545.41161 893.75,545 891,545 c -3.77778,0 -5,-0.36667 -5,-1.5 0,-0.85569 0.89929,-1.5 2.09362,-1.5 1.25641,0 2.30391,-0.80414 2.61949,-2.01094 0.57814,-2.2108 0.99327,-2.33771 13.28689,-4.06181 4.675,-0.65564 9.05677,-1.63283 9.73727,-2.17154 0.68049,-0.5387 1.97922,-0.69474 2.88607,-0.34676 0.90684,0.34799 6.42507,-0.0918 12.26273,-0.97731 5.83766,-0.88552 11.96393,-1.77106 13.61393,-1.96788 1.65,-0.19682 6.6,-0.85357 11,-1.45945 4.4,-0.60587 9.575,-1.26523 11.5,-1.46524 1.925,-0.2 5.3,-0.59817 7.5,-0.88482 2.2,-0.28664 7.15,-0.80882 11,-1.16038 3.85,-0.35157 11.05,-1.25535 16,-2.00841 4.95,-0.75306 13.725,-1.50786 19.5,-1.67733 8.8036,-0.25835 10.5,-0.0658 10.5,1.19187 0,1.54313 -1.5299,1.88739 -17.5,3.93801 -4.125,0.52967 -9.3,1.20124 -11.5,1.49238 -2.2,0.29114 -6.925,0.74476 -10.5,1.00805 -3.575,0.26328 -9.875,0.94289 -14,1.51024 -4.125,0.56735 -9.75,1.24319 -12.5,1.50188 -2.75,0.25868 -8.15,1.11918 -12,1.91222 -3.85,0.79304 -9.36292,1.75313 -12.25094,2.13353 -5.57574,0.73441 -6.48304,2.58446 -0.98753,2.01364 1.78116,-0.18501 8.63847,-0.6136 15.23847,-0.95243 16.8852,-0.86686 27.8798,-1.71025 28.70709,-2.20211 0.86652,-0.5152 66.18441,-0.41747 70.09071,0.10486 2.9654,0.39653 5.7022,2.17432 5.7022,3.70415 0,0.54383 -15.0155,0.89415 -36.75,0.8574 -40.98454,-0.0693 -41.58656,-0.0391 -46.60377,2.34176 -1.96866,0.9342 -6.85693,1.94243 -10.86281,2.24051 -4.00588,0.29809 -8.63342,0.91862 -10.28342,1.37896 -1.65,0.46034 -3.675,0.82636 -4.5,0.81339 -3.6473,-0.0573 -17.30531,1.17553 -17.73024,1.60047 -0.25852,0.25851 -0.17427,0.94857 0.18721,1.53346 0.89692,1.45125 47.66524,0.39232 64.04303,-1.45007 2.2,-0.24748 7.177,-0.45658 11.0601,-0.46467 3.883,-0.008 12.1794,-0.68991 18.4364,-1.51517 13.0954,-1.72719 24.6063,-1.95222 25.5047,-0.49859 1.0689,1.72951 -3.9618,2.8659 -13.6276,3.07835 -5.1284,0.11273 -11.6035,0.73476 -14.3891,1.38231 -2.7857,0.64754 -5.6093,0.99588 -6.2747,0.77408 -0.6654,-0.2218 -1.2098,0.0529 -1.2098,0.61051 0,2.00222 6.5318,1.81642 31,-0.8818 z m -910.825,-5.99077 c 0.0962,-3.836 0.29972,-8.21205 0.45216,-9.72455 0.15245,-1.5125 0.52589,-5.9 0.82988,-9.75 0.304,-3.85 0.9549,-8.575 1.44646,-10.5 2.30403,-9.02279 3.0965,-13.32025 3.0965,-16.79184 0,-2.06973 0.61323,-4.65078 1.36274,-5.73565 1.54537,-2.23687 2.4814,-6.68587 2.9397,-13.97251 0.17296,-2.75 0.83484,-5.95333 1.47084,-7.11852 0.63599,-1.16518 0.88306,-2.39181 0.54904,-2.72583 -0.33403,-0.33403 -0.0428,-1.28746 0.64705,-2.11875 0.68991,-0.83129 0.99316,-2.19216 0.67389,-3.02417 -0.31927,-0.832 -0.13348,-1.51273 0.41288,-1.51273 1.20514,0 3.06373,-4.49311 3.39871,-8.21634 0.13441,-1.49398 0.77785,-3.35912 1.42985,-4.14474 0.65201,-0.78562 1.08053,-1.81327 0.95226,-2.28366 -0.27854,-1.02151 0.84922,-4.89478 2.43276,-8.35526 2.15351,-4.70602 3.87695,-6 7.99136,-6 2.83293,0 4.98236,-0.81024 7.59502,-2.86299 2.00414,-1.57464 5.2189,-3.66501 7.1439,-4.64526 1.925,-0.98025 5.54431,-3.85441 8.04291,-6.38701 2.4986,-2.53261 6.5486,-6.43404 9,-8.66985 4.06222,-3.70496 9.07398,-9.68617 12.95709,-15.46345 0.825,-1.22744 3.02775,-4.08564 4.89499,-6.35157 1.86725,-2.26593 4.02439,-5.61493 4.79366,-7.44224 0.76926,-1.8273 2.95402,-5.53518 4.85501,-8.23974 1.90099,-2.70456 3.45634,-5.30286 3.45634,-5.774 0,-0.47114 0.62592,-2.16325 1.39094,-3.76025 4.90225,-10.23361 9.96042,-25.05078 11.57377,-33.90364 0.6014,-3.3 2.05709,-8.96302 3.23487,-12.5845 3.66275,-11.26234 2.73728,-11.23847 -13.41502,0.34598 -7.85651,5.63471 -16.75956,11.95262 -19.78456,14.0398 -3.025,2.08719 -7.075,4.88508 -9,6.21754 -1.925,1.33245 -5.64287,3.89831 -8.26194,5.70191 -2.61906,1.8036 -8.4971,6.04113 -13.06231,9.41674 -8.42878,6.23242 -13.87714,9.26343 -32.67575,18.17803 -20.3594,9.65477 -36.11241,11.8003 -54.829272,7.46767 -5.1311,-1.18776 -9.993591,-1.90464 -10.805536,-1.59307 -1.079263,0.41416 -1.446526,2.0783 -1.365683,6.1882 0.06082,3.09193 -0.07982,8.6073 -0.312522,12.25637 -0.817826,12.82432 1.78401,20.71584 11.577246,35.11447 2.150655,3.16203 4.468707,6.08703 5.151227,6.5 0.68252,0.41297 2.090277,2.21336 3.12835,4.00086 1.76002,3.03065 1.7785,3.4356 0.27375,6 -0.929227,1.58361 -1.422039,4.02243 -1.161896,5.75 0.248463,1.65 0.440746,3.675 0.427296,4.5 -0.0135,0.825 0.0582,6.45 0.1592,12.5 0.418,25.03641 -0.0411,48.71408 -1.087985,56.11536 -0.613406,4.33655 -1.366006,10.85927 -1.672444,14.49492 -0.538657,6.39073 -0.464574,6.67209 2.230554,8.47141 3.276355,2.18737 8.685315,2.90069 24.037715,3.17004 l 11.25,0.19738 z m 969.575,4.32814 c 2.6309,-0.62655 2.9208,-1.83129 0.6504,-2.70253 -1.9491,-0.74793 -6.5806,1.37272 -7.2104,3.30148 -0.3469,1.06209 0.1197,1.22422 1.9261,0.66927 1.3112,-0.40281 3.3964,-0.97351 4.6339,-1.26822 z M 905.5,546 c 0.36058,-0.58342 -0.65628,-1 -2.44098,-1 -1.68246,0 -3.05902,0.45 -3.05902,1 0,0.55 1.09844,1 2.44098,1 1.34254,0 2.7191,-0.45 3.05902,-1 z m 249,0 c 0.3399,-0.55 -0.1101,-1 -1,-1 -0.8899,0 -1.3399,0.45 -1,1 0.3399,0.55 0.7899,1 1,1 0.2101,0 0.6601,-0.45 1,-1 z M 867.57143,544.57143 C 868.35714,543.78571 869,542.7192 869,542.20139 c 0,-2.84664 -23.44075,-5.05907 -28.09589,-2.6518 -5.47867,2.83312 -3.66777,4.10464 7.34589,5.15792 15.26172,1.45953 17.74329,1.44205 19.32143,-0.13608 z m 45.21625,0.27885 c -1.82645,-0.66789 -3.2962,-0.65204 -4.5,0.0485 -1.42282,0.82803 -0.86923,1.03046 2.71232,0.99182 4.15357,-0.0448 4.29119,-0.12489 1.78768,-1.04036 z m 15.75136,-0.78712 c -0.54138,-0.87597 -7.43167,-1.24755 -8.69181,-0.46874 -1.91555,1.18387 0.21136,1.91533 4.56293,1.56924 2.52104,-0.20051 4.37904,-0.69573 4.12888,-1.1005 z M 946,543 c 1.86214,-1.20341 -8.24235,-1.20341 -12,0 -1.82981,0.58601 -0.75751,0.82326 4,0.88501 3.575,0.0464 7.175,-0.35185 8,-0.88501 z m 181,-8.07681 c 9.1993,-6.2511 14.4029,-11.17061 15.4299,-14.58764 0.6387,-2.12511 0.4607,-2.1634 -9.7984,-2.10637 l -10.449,0.0581 -3.0829,4.10636 c -1.6956,2.25851 -5.3041,7.03137 -8.0189,10.60637 -2.7147,3.575 -4.9685,6.85116 -5.0083,7.28035 -0.04,0.4292 2.7401,0.69899 6.1776,0.59955 5.837,-0.16887 6.8116,-0.56245 14.75,-5.95671 z M 926,539 c 0,-0.55 -0.45,-1 -1,-1 -0.55,0 -1,0.45 -1,1 0,0.55 0.45,1 1,1 0.55,0 1,-0.45 1,-1 z m -55.02581,-4.21595 c 3.86696,-2.41496 3.2654,-3.00778 -10.34658,-10.19641 -5.12836,-2.70834 -7.20349,-3.35459 -8.17711,-2.54656 -1.82271,1.51272 -4.63852,10.1709 -3.63435,11.17507 2.26953,2.26953 19.12477,3.4622 22.15804,1.5679 z M 473,527.48892 c 3.025,-0.31098 6.625,-0.75829 8,-0.99402 1.375,-0.23574 4.975,-0.69577 8,-1.02229 3.025,-0.32652 7.3,-0.91252 9.5,-1.30221 l 4,-0.70852 -0.0815,-10.98094 C 502.37361,506.44142 502.0113,499.025 501.61334,496 c -0.39797,-3.025 -0.87366,-6.90516 -1.0571,-8.62257 -0.18343,-1.71742 -0.64276,-5.37105 -1.02072,-8.11918 l -0.68721,-4.99661 -6.61364,-0.53087 c -5.64857,-0.45342 -6.88999,-0.91027 -8.50756,-3.13083 C 482.68545,469.16997 481.34365,468 480.74533,468 c -0.59831,0 -1.84626,-0.68635 -2.77321,-1.52523 -2.54985,-2.30758 -3.63373,-0.24984 -4.95627,9.4095 -0.63071,4.60639 -2.23164,12.65205 -3.55763,17.87927 -1.32599,5.22721 -2.1892,9.86273 -1.91824,10.30114 0.27095,0.43842 0.0353,1.07978 -0.52367,1.42524 -0.55897,0.34546 -1.01908,1.38906 -1.02247,2.3191 -0.003,0.93004 -0.61506,2.85785 -1.35926,4.28401 -0.74421,1.42617 -1.67417,4.30446 -2.06658,6.3962 -0.39242,2.09174 -1.39454,4.84259 -2.22694,6.11299 -2.11142,3.22244 -0.85963,4.64673 3.51157,3.99551 2.00605,-0.29887 6.12237,-0.79783 9.14737,-1.10881 z M 884.49532,520.75 c 8.38585,-9.23163 9.36876,-10.40008 14.98721,-17.81616 3.03461,-4.00555 5.51747,-8.3293 5.51747,-9.60833 0,-1.53365 0.59589,-2.33843 1.75,-2.36346 0.9625,-0.0209 3.1,-1.90403 4.75,-4.18478 1.65,-2.28076 4.48541,-6.20118 6.30091,-8.71205 4.96037,-6.86029 18.71546,-27.35268 19.50942,-29.06522 0.38249,-0.825 3.58721,-6 7.12161,-11.5 3.53441,-5.5 9.49561,-15.31853 13.24713,-21.81896 3.75151,-6.50043 8.7679,-14.15043 11.14754,-17 2.37963,-2.84957 7.32963,-9.61815 11,-15.04129 8.5979,-12.7038 8.93247,-13.19616 13.67339,-20.12225 3.88517,-5.67591 5.88343,-8.89107 11.8778,-19.11108 1.5827,-2.69853 3.6607,-6.04523 4.6177,-7.4371 0.9571,-1.39188 2.751,-4.54188 3.9865,-7 1.2355,-2.45813 3.2496,-5.81932 4.4758,-7.46932 1.2261,-1.65 3.4777,-6.13421 5.0035,-9.96491 1.5258,-3.83069 3.5087,-8.08667 4.4065,-9.45773 2.4839,-3.79358 2.1789,-16.48102 -0.546,-22.71461 -1.1691,-2.67451 -2.9238,-7.78775 -3.8993,-11.36275 -0.9754,-3.575 -2.0958,-6.95 -2.4896,-7.5 -0.6203,-0.86616 -1.7304,-5.541 -3.4136,-14.37449 -0.4639,-2.43459 -3.1538,-7.12551 -4.086,-7.12551 -0.983,0 -5.044,4.50325 -7.6653,8.5 -1.4429,2.2 -5.1193,8.95 -8.16985,15 -6.95233,13.78821 -26.50781,53.31967 -27.70217,56 -1.15855,2.59996 -2.66715,4.95259 -6.65247,10.37436 -1.79107,2.43663 -3.88707,6.4992 -4.65779,9.02794 -2.67603,8.78013 -9.32759,23.84846 -14.15703,32.07108 -1.13921,1.93964 -3.31936,6.67662 -4.84477,10.52662 -5.36945,13.55205 -14.46122,32.05076 -18.18699,37.00443 -2.7497,3.65592 -4.63397,8.14197 -4.82846,11.49557 -0.0826,1.42455 -0.68456,2.38635 -1.39927,2.23582 -0.68986,-0.1453 -2.03382,1.4297 -2.98659,3.5 -0.95277,2.0703 -2.879,5.56418 -4.28051,7.76418 -1.40152,2.2 -2.87766,4.675 -3.28032,5.5 -4.5898,9.40398 -18.42188,29.89256 -21.60357,32 -0.76729,0.50823 -5.16276,6.58622 -9.46341,13.08588 -1.30498,1.97224 -2.52616,4.67224 -2.71374,6 -0.24253,1.7167 -0.9762,2.41412 -2.53958,2.41412 -2.79951,0 -12.75528,10.87504 -11.92841,13.02983 0.31394,0.81811 1.82093,2.02952 3.34887,2.69203 1.52793,0.66251 3.86914,1.89611 5.20268,2.74135 1.9594,1.24192 11.61299,4.61346 14.18854,4.95539 0.33724,0.0448 2.75921,-2.2811 5.38216,-5.1686 z m 20.17135,-34.41667 C 903.51603,485.1827 903.93843,484 905.5,484 c 0.825,0 1.5,0.675 1.5,1.5 0,1.56157 -1.1827,1.98397 -2.33333,0.83333 z M 1166.5,523.012 c 0,-1.60383 -3.2404,-2.24113 -4.1241,-0.81113 -0.7085,1.14638 1.5785,2.93961 3.1241,2.44954 0.55,-0.17439 1,-0.91168 1,-1.63841 z M 460.1665,505.24413 c 2.23331,-8.65927 5.37086,-21.80301 6.97235,-29.20831 1.60149,-7.40529 3.61716,-14.54069 4.47927,-15.85644 2.18837,-3.33988 6.88885,-2.34454 10.88188,2.30426 l 3,3.49269 1.75,-3.06921 c 0.9625,-1.68806 1.75,-3.97722 1.75,-5.08703 0,-1.10981 0.63545,-3.43584 1.4121,-5.16896 1.67121,-3.72931 3.23541,-10.93222 4.10463,-18.90113 0.57254,-5.24902 0.83873,-5.75 3.05523,-5.75 2.75521,0 2.77526,0.13652 1.3223,9 -0.58604,3.575 -1.21319,7.625 -1.39367,9 -0.18048,1.375 -1.54319,5.875 -3.02825,10 -1.48506,4.125 -2.76136,8.625 -2.83622,10 -0.13329,2.44802 0.003,2.49631 6.56953,2.32257 7.43393,-0.1967 7.87081,0.20554 8.3386,7.67743 0.12052,1.925 0.72021,9.8 1.33265,17.5 0.61244,7.7 1.27307,16.925 1.46807,20.5 0.195,3.575 0.75841,6.725 1.25201,7 0.49361,0.275 1.85792,-2.425 3.0318,-6 5.14253,-15.66128 14.24515,-32.68269 27.62232,-51.65226 3.16189,-4.48375 5.7489,-8.86521 5.7489,-9.73658 0,-0.87138 -1.4625,-2.21181 -3.25,-2.97875 -3.3202,-1.42455 -16.15862,-11.34726 -23.12346,-17.87193 -3.86471,-3.62047 -3.87188,-3.64178 -3.17371,-9.44457 0.7142,-5.93604 2.44532,-12.87864 7.75153,-31.08731 1.64626,-5.64926 2.71682,-10.99163 2.37902,-11.87192 -0.60626,-1.57989 -2.10638,-1.54294 -8.20418,0.20209 -1.69711,0.48567 -2.25473,0.0733 -2.7912,-2.06418 -0.58038,-2.31242 -0.88471,-2.49324 -2.26635,-1.34657 -1.36025,1.12891 -1.81397,0.99614 -3.07231,-0.89902 l -1.47637,-2.22353 -2.854,2.03223 -2.854,2.03223 -2.21282,-2.54497 C 500.6351,374.14523 499.21636,373 498.6994,373 c -1.31648,0 -8.83353,-4.75175 -15.02857,-9.5 -7.79519,-5.9747 -9.43752,-6.71094 -13.52093,-6.06131 -2.00744,0.31937 -5.417,0.79091 -7.57678,1.04787 -4.25847,0.50666 -5.20307,1.13822 -6.9534,4.64903 -0.63176,1.26718 -2.49214,2.95305 -4.13418,3.74638 -1.64205,0.79333 -3.76693,1.81944 -4.72197,2.28023 -0.95504,0.46079 -2.35774,0.8378 -3.11711,0.8378 -1.55345,0 -5.42545,5.48371 -8.12006,11.5 -6.45845,14.41988 -6.68897,15.23681 -7.12488,25.25 -0.33135,7.61124 0.32107,8.72365 2.93245,5 1.31479,-1.8748 1.74038,-2.00885 2.55219,-0.80388 0.60899,0.9039 0.62551,2.09782 0.0441,3.18426 C 433.4186,415.08635 433,417.418 433,419.31181 c 0,1.89382 -0.67065,3.99989 -1.49033,4.68017 -1.42358,1.18146 -1.20066,5.43948 0.3778,7.21638 2.02181,2.27599 7.66628,-9.11384 7.28903,-14.70836 -1.13498,-16.83166 -0.25139,-24.5 2.82303,-24.5 2.56809,0 2.8284,1.31278 2.23071,11.25 -0.802,13.33406 2.89317,11.14807 6.76153,-4 0.84272,-3.30001 1.553,-4.25 3.17762,-4.25 1.81356,0 2.01456,0.43297 1.50883,3.25 -1.19331,6.64692 -1.65229,8.06387 -3.14718,9.7157 -0.84207,0.93048 -1.53104,2.16835 -1.53104,2.75083 0,0.58247 -1.48766,3.24704 -3.30591,5.92126 -1.81825,2.67421 -3.90695,6.43721 -4.64155,8.36221 -0.73461,1.925 -2.45484,6.07955 -3.82273,9.23234 -2.25926,5.20723 -2.36294,6.03167 -1.13187,9 0.74536,1.79721 1.43554,3.81046 1.53372,4.47387 0.0982,0.66342 0.88398,3.36342 1.7462,6 2.03748,6.23038 6.85974,38.4521 8.27518,55.29379 0.30046,3.575 1.42933,8.525 2.5086,11 2.54459,5.83531 2.82981,5.30955 8.00486,-14.75587 z M 462.5,442 c -0.33992,-0.55 -1.43427,-1 -2.4319,-1 -0.99762,0 -3.91827,-0.93088 -6.49032,-2.06862 -3.14727,-1.39219 -5.64131,-1.8567 -7.62712,-1.42054 -5.42204,1.19088 -3.72289,-1.90949 7.81564,-14.26084 2.96965,-3.17884 6.2337,-4.3167 6.2337,-2.17308 0,0.59231 -1.35,2.42693 -3,4.07693 -1.65,1.65 -3,3.85624 -3,4.90275 0,2.60753 6.72055,5.9924 9.68463,4.87775 3.84238,-1.44494 4.94466,-4.87184 5.20574,-16.18435 0.10088,-4.37077 0.30923,-4.75 2.60963,-4.75 2.57751,0 2.74965,0.41486 2.70402,6.51684 -0.0293,3.91482 -5.8654,20.36704 -7.70402,21.71785 -1.42125,1.04417 -3.27691,0.9353 -4,-0.23469 z m 16.45221,-5.9107 c 1.35362,-2.52927 3.32576,-2.77118 2.85963,-0.35078 -0.18414,0.95618 -1.15448,1.89637 -2.1563,2.0893 -1.55997,0.30042 -1.66095,0.0508 -0.70333,-1.73852 z m -23.87326,-54.67263 c 0.048,-1.16495 0.28494,-1.4019 0.60416,-0.60417 0.28887,0.72187 0.25335,1.58438 -0.0789,1.91667 -0.33229,0.33229 -0.56864,-0.25834 -0.52522,-1.3125 z m 677.99265,130.07942 c 3.7886,-0.46834 5.3937,-1.39983 9.3718,-5.43862 l 4.8002,-4.8735 -1.1201,-4.84199 c -0.616,-2.66309 -1.7977,-9.11698 -2.6259,-14.34198 -0.8282,-5.225 -2.179,-11.70902 -3.0017,-14.40893 -0.8228,-2.69991 -1.4959,-5.96852 -1.4959,-7.26357 0,-1.29505 -0.3971,-3.13603 -0.8824,-4.09107 -2.1142,-4.16052 -6.7175,-26.39305 -7.6063,-36.73643 -0.2836,-3.3 -0.6482,-6.9 -0.8102,-8 -0.4624,-3.13942 -4.1116,-11.49209 -5.0226,-11.49625 -0.4518,-0.002 -0.6768,2.34443 -0.5,5.21443 0.2584,4.19433 5e-4,5.28355 -1.3144,5.55136 -1.1059,0.22522 -2.3455,-1.13259 -3.826,-4.19079 -1.2045,-2.48818 -1.9627,-4.89171 -1.6849,-5.34118 0.2778,-0.44947 0.072,-3.9493 -0.457,-7.77739 -0.5291,-3.8281 -1.2157,-12.13518 -1.5258,-18.46018 -0.31,-6.325 -1.1952,-13.95704 -1.9671,-16.9601 -0.7718,-3.00305 -1.4033,-7.55413 -1.4033,-10.11351 0,-2.55938 -0.474,-7.07733 -1.0533,-10.0399 -0.5793,-2.96257 -1.2443,-18.21149 -1.4777,-33.88649 -0.2334,-15.675 -0.6412,-32.1 -0.9062,-36.5 -2.4556,-40.76114 -2.7161,-42.2046 -7.395,-40.97377 -10.8253,2.8477 -17.7043,4.03537 -43.1678,7.45296 -3.575,0.47982 -8.5551,1.33925 -11.067,1.90983 -6.4797,1.47192 -13.6812,2.29323 -19.0687,2.17474 -3.0617,-0.0673 -4.8128,0.35968 -5.1574,1.25767 -0.287,0.7478 0.4981,4.69389 1.7446,8.7691 3.1986,10.45735 4.5286,15.59383 5.6733,21.90947 0.5482,3.025 1.796,7.075 2.7728,9 1.0668,2.10213 1.635,4.99474 1.4227,7.24253 -0.4452,4.71508 1.5127,9.45281 5.9498,14.39703 1.9055,2.12324 3.8016,4.98544 4.2135,6.36044 0.8975,2.99564 3.8149,9.27312 14.1645,30.47822 4.2892,8.78802 7.9351,16.87287 8.102,17.96634 0.1668,1.09347 0.9101,2.91416 1.6517,4.04599 0.7417,1.13182 1.6841,4.52197 2.0943,7.53366 0.4103,3.01168 1.5522,7.27579 2.5375,9.47579 0.9854,2.2 2.3312,5.8 2.9906,8 0.6594,2.2 2.2738,5.96918 3.5874,8.37595 1.3136,2.40678 2.3884,4.81652 2.3884,5.35498 0,0.53846 1.35,2.97934 3,5.42418 1.65,2.44483 3,5.1037 3,5.90859 0,0.80489 0.3975,2.24483 0.8833,3.19987 1.823,3.58347 3.1322,6.94349 5.4665,14.02931 1.3215,4.01108 2.6833,7.57358 3.0264,7.91667 0.3431,0.34308 0.6238,1.26828 0.6238,2.05599 0,1.35154 2.0609,6.63536 4.0841,10.47089 0.5037,0.95504 0.9159,2.2113 0.9159,2.7917 0,0.5804 1.35,3.94274 3,7.47187 1.65,3.52913 3,7.68524 3,9.23579 0,1.55056 0.5948,3.70683 1.3217,4.7917 1.7665,2.63622 5.1976,13.54865 6.5943,20.97251 0.93,4.9431 2.62,11.92529 4.6463,19.19561 0.2042,0.73279 1.6115,1.03496 3.6354,0.78061 1.8163,-0.22826 5.3595,-0.66931 7.8739,-0.98013 z m -56.6255,-246.58322 c -1.0305,-1.66742 1.2873,-3.57951 2.6668,-2.2 1.1539,1.15392 0.4317,3.28713 -1.1129,3.28713 -0.4851,0 -1.1843,-0.48921 -1.5539,-1.08713 z m -497.91363,189.1849 c -1.78747,-5.38158 -4.03475,-8.92883 -5.02763,-7.93594 -0.79688,0.79688 2.41842,12.67271 3.63455,13.42432 0.47333,0.29253 0.86061,1.55533 0.86061,2.8062 0,3.87854 1.48237,4.00226 1.81341,0.15134 0.17237,-2.00519 -0.40405,-5.80586 -1.28094,-8.44592 z m -241.10306,-1.30734 c 2.78883,-1.75329 6.51654,-4.33589 8.28382,-5.73911 7.93986,-6.30428 9.8111,-7.46376 16.5883,-10.27874 3.95916,-1.64447 7.60925,-3.37432 8.11131,-3.84411 3.62445,-3.39143 -21.4608,-4.55 -34.9974,-1.61635 -4.4465,0.96365 -8.7215,1.49864 -9.5,1.18887 -0.77849,-0.30977 -3.42975,-3.24921 -5.89169,-6.5321 C 317.56182,422.686 315.41538,420 315.25388,420 c -1.041,0 -8.43904,5.31894 -8.83567,6.35255 -0.26744,0.69693 1.77614,4.69852 4.54128,8.89242 2.89136,4.38534 4.7828,8.26303 4.45155,9.12625 -0.36487,0.95084 1.4479,3.59051 4.9459,7.202 5.05605,5.22008 5.7952,5.64635 8.76188,5.05302 1.782,-0.3564 5.52177,-2.08251 8.31059,-3.83581 z M 559,451.05902 c 0,-1.06754 -0.45,-2.2191 -1,-2.55902 -0.56716,-0.35052 -1,0.48962 -1,1.94098 0,1.40746 0.45,2.55902 1,2.55902 0.55,0 1,-0.87344 1,-1.94098 z M 550.36163,449.5 c 0.31658,-0.825 0.34636,-2.0974 0.0662,-2.82755 -0.28018,-0.73015 -0.0141,-2.6303 0.59125,-4.22255 0.91256,-2.40022 0.63171,-4.39514 -1.64332,-11.67245 -1.50919,-4.8276 -3.0491,-8.77745 -3.422,-8.77745 -1.04328,0 0.0475,23.1376 1.23747,26.25 1.17123,3.06332 2.30331,3.50966 3.17043,1.25 z m 33.9791,-2.75 c -0.59745,-3.18694 -3.85973,-7.75 -5.54072,-7.75 -0.46826,0 -0.0523,1.40665 0.92431,3.12588 0.97662,1.71924 2.36273,4.19424 3.08025,5.5 1.78481,3.2481 2.25863,2.97794 1.53616,-0.87588 z M 565,443.69113 c 0,-0.71988 -0.66069,-2.18238 -1.4682,-3.25 -1.2665,-1.67447 -1.47256,-1.71196 -1.5,-0.27292 C 561.98695,442.5211 563.0516,445 564.10699,445 564.59814,445 565,444.41101 565,443.69113 Z m -24.49512,-12.05355 c -0.36735,-3.92567 -0.84485,-11.81948 -1.0611,-17.5418 C 538.82779,397.79604 536.94345,386 534.95567,386 c -2.27481,0 -6.18543,9.76246 -7.46177,18.62755 -0.24766,1.72015 -0.96434,4.42015 -1.59263,6 -1.19531,3.00565 -1.76725,5.5366 -2.56991,11.37245 -0.44362,3.22539 -0.10282,3.78895 4.34362,7.18275 2.65376,2.02551 6.39972,5.24523 8.32435,7.15492 1.92462,1.9097 3.876,3.23938 4.3364,2.95484 0.46039,-0.28454 0.53651,-3.72925 0.16915,-7.65493 z m 16.97969,-1.58895 c 0.38033,-1.19834 -0.55841,-4.32515 -2.43262,-8.10263 C 553.37338,418.56282 552,415.25194 552,414.58851 c 0,-0.66344 -0.6962,-2.07976 -1.54712,-3.14738 -1.45072,-1.82019 -1.50303,-1.72306 -0.83952,1.55887 0.38919,1.925 0.78329,4.3743 0.8758,5.44289 0.0925,1.06859 0.69528,2.11859 1.33951,2.33333 0.64423,0.21475 1.17133,1.67365 1.17133,3.24201 0,3.52703 1.62292,7.98177 2.90786,7.98177 0.52655,0 1.23607,-0.87812 1.57671,-1.95137 z M 570.98918,421.25 c -0.0279,-1.93574 -3.16027,-10.80579 -5.31035,-15.03773 -1.31676,-2.59175 -3.69568,-7.38334 -5.28647,-10.64799 -2.02859,-4.16309 -4.88984,-7.70104 -9.58097,-11.84696 -10.2904,-9.09441 -10.35339,-8.08069 -0.91405,14.70874 4.55595,10.99944 5.1094,11.77223 13.40458,18.71673 5.50587,4.60937 7.71151,5.78782 7.68726,4.10721 z m -270.88039,-1.88109 c 0.74453,-0.8971 4.42826,-3.65662 8.18607,-6.13228 3.75781,-2.47566 7.51984,-5.55038 8.36006,-6.83272 1.38186,-2.10898 1.36314,-2.64519 -0.1961,-5.61772 -2.27277,-4.3328 -3.30058,-11.4144 -4.02142,-27.70768 -0.43729,-9.88399 -1.12736,-14.84757 -2.61817,-18.83211 -1.89505,-5.06497 -7.66001,-12.68552 -13.69455,-18.10246 -6.76699,-6.07442 -21.77332,-9.90939 -38.09179,-9.73462 l -8.4671,0.0907 -0.74705,4.5 c -0.79535,4.79091 -4.86682,18.13655 -8.13141,26.6535 -2.92126,7.62124 -2.40925,8.14493 8.33391,8.52401 5.02681,0.17737 9.69755,0.008 10.37944,-0.3766 0.68188,-0.3845 5.02256,-0.8345 9.64594,-1 l 8.40615,-0.30091 1.7031,3.58353 c 2.08341,4.38374 4.55826,13.75893 6.40532,24.26452 0.76233,4.3359 1.92413,8.53179 2.58177,9.32421 0.65765,0.79242 1.34346,2.79028 1.52403,4.43969 0.18057,1.64941 1.56687,5.65798 3.08066,8.90791 2.85681,6.13324 4.88562,7.33188 7.36114,4.34905 z m 299.2335,-1.94179 c 2.66325,-1.33492 5.36325,-2.43185 6,-2.43763 1.18778,-0.0108 10.49152,-6.54532 16.5649,-11.63446 1.87396,-1.57027 4.86081,-3.75503 6.63744,-4.85503 5.69832,-3.52811 16.72024,-12.7814 24.57458,-20.63123 6.25494,-6.25135 8.63011,-9.59654 13.13545,-18.5 3.02491,-5.97782 5.81796,-12.44377 6.20679,-14.36877 1.1645,-5.76517 4.4484,-17.07595 6.96802,-24 3.60345,-9.90249 6.4876,-31.02616 6.96335,-51 0.10688,-4.4872 0.0979,-4.49927 -3.16274,-4.24349 -2.19538,0.17221 -5.31722,-0.86337 -9.5,-3.15137 -3.42655,-1.87433 -11.63008,-5.49772 -18.23008,-8.05197 -6.6,-2.55426 -13.03367,-5.07364 -14.29705,-5.59863 -1.26338,-0.525 -3.09136,-0.95454 -4.06217,-0.95454 -0.97082,0 -3.69307,-0.93148 -6.04945,-2.06996 -6.9837,-3.37416 -7.42905,-2.14324 -2.62243,7.24831 4.68922,9.16216 6.53995,14.33054 9.42542,26.32165 1.66964,6.93847 1.8088,9.59229 1.0488,20 -0.48196,6.6 -1.32847,13.84521 -1.88114,16.10047 C 635.42983,322.26068 632.18124,329 630.60293,329 c -2.94956,0 -2.99593,-5.246 -0.1547,-17.5 3.21228,-13.85431 3.00941,-25.28065 -0.75508,-42.52858 -1.68579,-7.7239 -8.98647,-23.53528 -11.4588,-24.81679 -2.99651,-1.55323 -11.37514,-2.42534 -21.46201,-2.23393 -15.17,0.28786 -19.64291,0.81777 -28.77234,3.4087 -4.675,1.32676 -11.425,2.95957 -15,3.62845 -3.575,0.66888 -8.975,2.02673 -12,3.01745 -3.025,0.99071 -8.0875,2.10894 -11.25,2.48496 -3.99652,0.47517 -5.75,1.11914 -5.75,2.1117 0,0.78542 0.46053,1.42804 1.02341,1.42804 0.56287,0 4.43754,2.34988 8.61038,5.22195 7.82535,5.38602 14.79878,12.40084 16.67904,16.77805 0.59064,1.375 1.61464,3.175 2.27556,4 1.78102,2.22317 6.1331,19.66948 6.48585,26 0.65225,11.70521 -0.17147,32.27248 -1.49281,37.27376 -2.20733,8.35477 -5.70212,16.97735 -8.2361,20.32063 -1.28993,1.70192 -2.34533,3.52166 -2.34533,4.04388 0,0.52222 3.7125,2.69035 8.25,4.81805 4.5375,2.12771 10.15245,5.59546 12.47766,7.70612 2.32521,2.11066 5.19543,3.83756 6.37827,3.83756 2.98169,0 11.75914,-5.19724 15.51373,-9.18587 1.71581,-1.82277 4.36612,-5.48584 5.88957,-8.14015 1.52346,-2.65431 5.44292,-7.60431 8.70992,-11 7.3651,-7.65521 14.32294,-16.51778 15.94192,-20.30606 1.76204,-4.12303 3.87509,-6.36792 5.99392,-6.36792 2.76738,0 2.25807,2.55612 -1.86681,9.36919 -4.83393,7.98418 -8.47182,12.68725 -15.95822,20.63081 -3.36926,3.575 -8.33252,9.40181 -11.02948,12.94846 -4.24304,5.57985 -12.76294,13.09927 -18.8335,16.62193 -1.73219,1.00516 -1.59632,1.55361 2.22951,9 2.24075,4.36128 5.36322,10.4911 6.9388,13.6218 3.21296,6.38418 3.36935,6.41403 11.707,2.23493 z m -8.81387,-22.38113 c -1.64343,-2.65914 2.81556,-9.91859 6.15015,-10.01272 1.6353,-0.0462 4.32143,2.80294 4.32143,4.58361 0,3.90778 -8.64252,8.38859 -10.47158,5.42911 z m 13.51726,-14.49095 c -1.8674,-2.25008 -0.82117,-5.83411 2.19569,-7.52162 3.37627,-1.88855 6.11066,-0.55874 6.56292,3.19172 0.5647,4.68294 -5.8385,7.84842 -8.75861,4.3299 z M 609,377.94098 C 609,377.42344 608.55,377 608,377 c -0.55,0 -1,0.70156 -1,1.55902 0,0.85746 0.45,1.2809 1,0.94098 0.55,-0.33992 1,-1.04148 1,-1.55902 z m -35.75,-6.30089 c -1.2375,-0.61289 -2.25,-1.47347 -2.25,-1.9124 0,-0.43893 0.87042,-0.33222 1.93426,0.23713 1.06384,0.56935 3.28728,1.03518 4.94098,1.03518 1.6537,0 3.28484,0.45 3.62476,1 0.82937,1.34195 -5.35882,1.07198 -8.25,-0.35991 z m 48.11702,-9.18216 c -2.14755,-2.14756 -2.33988,-2.7857 -1.23927,-4.11187 C 623.49831,354.2848 631,355.65071 631,360.32568 c 0,5.07484 -5.47787,6.28736 -9.63298,2.13225 z m 9.23997,-15.03972 c -0.90892,-2.36861 -0.75898,-3.12336 0.96246,-4.8448 1.18468,-1.18468 2.04273,-1.31615 3.5,-0.53624 2.33891,1.25175 2.4738,3.27673 0.35912,5.3914 -2.01155,2.01156 -4.04738,2.00718 -4.82158,-0.0104 z m 8.8697,-13.49165 c -0.44647,-1.40671 -0.0662,-2.52193 1.18261,-3.4682 3.92087,-2.97097 6.87894,-1.11332 5.24152,3.29164 -1.10718,2.97852 -5.49653,3.09916 -6.42413,0.17656 z m 7.08121,-14.70199 C 646.25106,318.91772 646,317.84167 646,316.83333 646,315.54444 646.74242,315 648.5,315 c 1.78173,0 2.5,0.54111 2.5,1.88337 0,1.79504 -3.2666,3.5167 -4.4421,2.3412 z m 1.97632,-15.1692 C 647.56896,302.49355 648.83899,301 651.13234,301 c 1.37504,0 1.90805,0.55174 1.6795,1.73852 -0.38373,1.99254 -3.30435,2.89164 -4.27762,1.31685 z M 648.2,286.8 c -2.10554,-2.10554 -0.74911,-6.8 1.96482,-6.8 1.39836,0 2.95527,4.04627 2.32319,6.03777 -0.70463,2.22011 -2.50933,2.54091 -4.28801,0.76223 z M 676,275.94098 c 0,-0.58246 0.45,-0.7809 1,-0.44098 0.55,0.33992 1,0.81648 1,1.05902 0,0.24254 -0.45,0.44098 -1,0.44098 -0.55,0 -1,-0.47656 -1,-1.05902 z m -28.55385,-7.02811 c -0.87268,-1.41202 1.0547,-3.3394 2.46672,-2.46672 0.59792,0.36954 1.08713,1.32033 1.08713,2.11287 0,1.68362 -2.57364,1.93987 -3.55385,0.35385 z m -5.25799,-11.65139 C 642.69017,254.65475 646,254.36403 646,256.92668 646,258.35777 645.35777,259 643.92668,259 c -1.4311,0 -1.96962,-0.53852 -1.73852,-1.73852 z M 581,415.35493 c 0,-0.90479 -1.59191,-4.95479 -3.53758,-9 C 574.91784,401.06453 573.39533,399 572.03845,399 c -1.79257,0 -1.76022,0.38545 0.65041,7.75 1.39524,4.2625 2.6969,8.3125 2.89259,9 0.54931,1.92994 5.41855,1.57493 5.41855,-0.39507 z m 96.37443,-44.74352 C 680.60537,369.17513 683.99274,368 684.90192,368 c 0.90919,0 2.5407,-0.62012 3.62557,-1.37805 1.08488,-0.75792 5.12251,-3.04709 8.97251,-5.08704 3.85,-2.03995 7.58093,-4.19023 8.29096,-4.77839 0.71003,-0.58817 3.41003,-2.0847 6,-3.32562 8.79852,-4.21559 34.06524,-23.15658 51.47403,-38.58708 2.62075,-2.32293 5.83667,-4.92652 7.14648,-5.78575 3.87216,-2.54009 29.53332,-26.0864 30.59852,-28.07674 0.80134,-1.49732 0.0634,-2.73929 -4.07128,-6.85232 -5.56127,-5.53211 -6.00354,-5.56679 -12.38571,-0.97115 -2.17085,1.56318 -4.33978,2.84214 -4.81983,2.84214 -1.00487,0 -7.0057,4.22498 -14.23317,10.02108 -6.56744,5.26678 -17.98992,13.84059 -22.62022,16.97892 -17.59918,11.92839 -21.6972,14.57449 -26.6813,17.22815 -3.13416,1.66871 -9.29848,4.93468 -13.69848,7.25773 -21.71969,11.46721 -20.52661,10.52602 -23.01034,18.15225 -2.43009,7.4615 -7.07532,16.58577 -11.61217,22.80887 -1.58262,2.17085 -2.87749,4.27452 -2.87749,4.67481 0,1.40534 6.55927,0.0747 12.37443,-2.5104 z m -133.68056,-7.86426 c 3.40663,-5.63593 6.93782,-12.46079 7.8471,-15.16636 2.36345,-7.03246 3.53365,-19.71842 1.97396,-21.39934 -0.98072,-1.05694 -1.35184,-0.26333 -1.87053,4 -0.64184,5.27551 -3.77288,18.70723 -5.14435,22.06855 -0.39272,0.9625 -1.08556,1.75 -1.53965,1.75 -1.91326,0 -1.91271,-4.41986 0.002,-13.81412 2.4885,-12.21128 2.48729,-11.90257 0.0379,-9.68588 -1.1,0.99549 -2,2.39322 -2,3.10606 0,0.71285 -1.67304,4.49897 -3.71786,8.41359 -2.81877,5.39628 -4.3302,7.24286 -6.25,7.63591 -1.59859,0.32729 -3.17733,1.79188 -4.28214,3.97253 -2.28813,4.51626 -2.22059,5.03698 0.75,5.78255 1.375,0.34511 2.5,1.26259 2.5,2.03886 0,1.96237 -3.95518,2.41632 -7.24081,0.83105 -1.50744,-0.72732 -7.05985,-1.5739 -12.33869,-1.88128 -8.9234,-0.5196 -9.57278,-0.43029 -9.24057,1.27093 0.19653,1.00639 1.24894,1.87567 2.3387,1.93174 1.08975,0.0561 3.44387,0.16857 5.23137,0.25 2.15642,0.0982 3.25,0.65279 3.25,1.64806 0,0.825 0.66344,1.5 1.47432,1.5 0.81088,0 2.17243,1.35 3.02568,3 1.54409,2.98593 1.59227,2.99999 10.27568,2.99715 l 8.72432,-0.003 6.19387,-10.24714 z m -443.18379,7.23654 c 0.34546,-0.55897 1.05702,-0.75124 1.58124,-0.42725 1.33072,0.82243 26.68991,-4.39195 30.20857,-6.21152 1.58728,-0.82081 3.10182,-1.27654 3.36564,-1.01273 0.40349,0.40349 17.45712,-5.28219 27.83447,-9.28002 3.29403,-1.26901 9.86551,-4.47486 13,-6.34195 7.98193,-4.75452 16.91094,-10.72792 22,-14.71775 3.3,-2.58719 6.99806,-5.22701 8.21791,-5.86624 1.21985,-0.63924 3.38609,-2.24488 4.81386,-3.56809 1.42777,-1.32321 5.60471,-4.19056 9.28209,-6.37189 3.67738,-2.18132 9.80773,-5.81559 13.623,-8.07615 3.81528,-2.26055 7.45174,-4.1101 8.08102,-4.1101 3.07802,0 3.71022,-4.61914 3.09893,-22.64213 -0.33313,-9.82183 -0.851,-19.14503 -1.15082,-20.71822 -0.68068,-3.57162 -4.31274,-14.30319 -5.97008,-17.63965 -0.68302,-1.375 -1.99247,-4.075 -2.90989,-6 -2.235,-4.68962 -3.57167,-6.862 -6.83602,-11.11006 -1.5125,-1.9683 -2.75,-3.86872 -2.75,-4.22316 0,-0.99133 -9.05224,-12.66668 -9.82153,-12.66756 -0.37316,-4.3e-4 -2.44771,-1.57543 -4.61012,-3.5 -4.50031,-4.00533 -4.77018,-4.06831 -8.09581,-1.88927 -1.35141,0.88547 -3.07958,1.37108 -3.8404,1.07913 -0.76081,-0.29195 -2.50753,0.0524 -3.8816,0.76531 -1.37406,0.71288 -4.91755,1.86586 -7.87442,2.56218 -2.95687,0.69632 -7.62612,2.04938 -10.37612,3.00681 -7.99712,2.78423 -20.21178,3.92027 -47.90943,4.45586 C 102.81971,215.99692 101,215.7751 101,211.99413 c 0,-2.10937 3.56117,-2.98171 10,-2.44959 4.77858,0.39492 54.76958,-1.25233 59,-1.9441 4.47626,-0.73197 23.02008,-5.9327 26.5,-7.43208 8.07141,-3.47772 21.91769,-10.82612 23.95248,-12.7119 1.35665,-1.2573 2.73663,-3.56185 3.06664,-5.12123 0.79274,-3.74598 1.80376,-5.55863 3.54771,-6.3607 4.54166,-2.08878 5.77577,-3.10651 9.16394,-7.5572 l 3.73078,-4.90073 -3.29654,-3.0083 c -1.81309,-1.65457 -4.31614,-4.6958 -5.56233,-6.7583 -1.24619,-2.0625 -2.60281,-3.75 -3.01472,-3.75 -0.41191,0 -2.26701,2.11391 -4.12246,4.69757 -5.78949,8.06172 -9.07028,11.30244 -18.72279,18.49412 -11.56424,8.61605 -14.8649,10.09443 -29.41938,13.17715 -6.36672,1.3485 -12.98154,3.17873 -14.69959,4.06717 -1.71806,0.88844 -3.12374,1.34815 -3.12374,1.02158 0,-0.32658 -1.30697,0.33686 -2.90437,1.47432 -3.97592,2.8311 -7.09563,2.7376 -7.09563,-0.21267 0,-1.63086 0.88089,-2.61326 3.09138,-3.44763 3.94498,-1.48907 2.87786,-3.65532 -1.45949,-2.96277 -1.72254,0.27504 -7.86681,1.1823 -13.65393,2.01613 -11.94166,1.72059 -23.32209,4.46661 -34.09402,8.22665 -13.623284,4.75533 -12.456491,4.69925 -15.910962,0.76482 -2.77862,-3.16467 -2.941907,-3.69263 -1.599141,-5.1705 1.183861,-1.30298 13.333394,-5.92907 20.376163,-7.75847 2.40484,-0.62468 1.14986,-2.91607 -3.49835,-6.38747 -5.979881,-4.46592 -7.576823,-5.79775 -11.52775,-9.61403 -1.773145,-1.71271 -4.003814,-3.38318 -4.957041,-3.71214 -3.064121,-1.05745 -0.800442,-3.44171 3.943,-4.15303 3.761453,-0.56406 5.076341,-0.31565 7.392218,1.39655 1.549316,1.14546 3.39766,2.08339 4.107433,2.08429 1.51157,0.002 8.10608,6.77242 9.08753,9.33005 0.37116,0.96724 2.2254,2.40648 4.12052,3.19831 1.89512,0.79183 3.73254,1.90386 4.08316,2.47116 0.35061,0.56731 1.04569,0.77917 1.54462,0.47082 1.09732,-0.67818 17.55925,-3.42999 20.6657,-3.45452 1.21608,-0.01 3.07914,0.91433 4.14015,2.05319 1.48071,1.58935 3.51048,2.1722 8.73258,2.50759 5.14884,0.33068 7.35204,0.95228 9.05898,2.55587 1.27571,1.19846 2.92919,1.8604 3.80637,1.52379 1.97339,-0.75726 2.00103,-2.54793 0.0509,-3.29627 -2.45432,-0.94181 -1.70594,-3.27996 1.25,-3.90532 1.5125,-0.31999 3.875,-0.80904 5.25,-1.08678 1.375,-0.27774 3.5125,-1.15987 4.75,-1.96031 4.89974,-3.16922 0.97344,-12.2113 -5.45455,-12.56153 -1.5375,-0.0838 -3.47045,-0.22263 -4.29545,-0.30857 -0.825,-0.0859 -4.36607,2.54645 -7.86905,5.84975 -6.01255,5.66981 -6.44635,5.90028 -7.75,4.11743 -1.95457,-2.67304 -1.76313,-3.64491 1.59123,-8.07816 1.6347,-2.16048 2.9847,-4.64064 3,-5.51147 0.0153,-0.87084 0.32605,-1.88156 0.69054,-2.24606 0.3645,-0.3645 0.81967,-2.09628 1.01148,-3.84839 0.19181,-1.75212 1.4835,-5.12197 2.87041,-7.48856 2.43349,-4.15243 2.46166,-4.39446 0.80568,-6.92181 -2.25154,-3.43627 -10.57435,-9.53004 -16.85029,-12.33737 -6.84724,-3.06288 -16.27646,-5.96469 -17.00724,-5.23391 -1.07276,1.07276 -2.46174,-2.24849 -2.47745,-5.9239 -0.008,-1.97084 -0.27692,-3.84495 -0.59666,-4.16469 -0.31975,-0.31974 -2.45725,0.2634 -4.75,1.29588 -4.48161,2.01817 -10.40522,1.75588 -14.16865,-0.62738 -1.22077,-0.77307 -4.33769,-1.1404 -8,-0.94281 -5.87669,0.31706 -6.898875,0.55595 -13,3.03812 -3.300572,1.3428 -12.5,9.11753 -12.5,10.56415 0,0.50048 -2.25,3.20782 -5,6.01631 -2.75,2.80849 -5,5.58783 -5,6.17631 0,0.58848 -0.61679,1.78039 -1.370644,2.6487 -1.688651,1.94503 -2.753051,13.10633 -1.468744,15.40125 0.516322,0.92262 1.765134,1.67749 2.775137,1.67749 1.11799,0 2.490397,1.37826 3.508242,3.52321 0.919531,1.93777 2.013204,3.31226 2.430386,3.05443 0.417181,-0.25783 2.753612,0.85479 5.192067,2.47251 2.438456,1.61771 4.975601,2.94321 5.638101,2.94557 1.919936,0.007 6.295455,4.90659 6.295455,7.04973 0,2.3982 -2.628802,2.55431 -7.654243,0.45455 -1.974503,-0.825 -3.768623,-1.5 -3.986933,-1.5 -0.609065,0 0.810112,5.36292 1.732275,6.54609 0.448428,0.57534 0.786694,1.92534 0.751702,3 -0.03499,1.07465 0.05804,4.33352 0.206735,7.24193 0.212956,4.16529 -0.197954,5.92145 -1.935366,8.27143 -1.213148,1.64087 -1.976995,3.35349 -1.697438,3.80582 0.279557,0.45233 0.09241,2.35519 -0.415879,4.22858 -0.508291,1.87338 -1.106254,4.98115 -1.328808,6.90615 -0.222555,1.925 -0.71025,4.2153 -1.083768,5.08956 -1.87866,4.39721 -0.728222,46.55819 1.784841,65.41044 1.374898,10.31408 2.979813,30.53291 2.778203,35 -0.09706,2.15062 1.484485,16.38767 2.277278,20.5 0.575511,2.98526 1.73069,15.67549 2.007051,22.0485 0.108483,2.50167 0.503063,5.04332 0.876843,5.64811 0.37378,0.60479 3.943879,1.42703 7.933553,1.82721 3.989675,0.40018 8.153954,1.0925 9.253954,1.5385 2.735046,1.10893 3.282763,1.09819 4.01008,-0.0786 z m 125.92394,-73.39055 c -1.05341,-4.19712 3.21003,-8.74067 6.30625,-6.72057 1.72254,1.12385 2.08947,6.15483 0.56042,7.68388 -2.35522,2.35522 -6.16802,1.82033 -6.86667,-0.96331 z M 221,281 c -2.44531,-2.44531 -2.5577,-5.74004 -0.30796,-9.02749 2.31791,-3.38708 3.3005,-3.93948 7.03891,-3.9572 2.62069,-0.0124 3.34977,0.45813 3.86006,2.49126 C 233.75157,279.11493 226.39938,286.39938 221,281 Z m -1.8,-19.2 c -1.92862,-1.92862 -1.43687,-7.56313 0.86058,-9.86058 4.98753,-4.98753 11.30652,0.90393 8.39542,7.8274 C 227.3082,262.49663 226.57526,263 223.74827,263 221.90672,263 219.86,262.46 219.2,261.8 Z m -9.02569,-16.11445 C 205.88775,241.12271 208.75906,234 214.88499,234 c 5.32539,0 7.54824,7.65382 3.51665,12.10868 -2.3089,2.55131 -5.59159,2.38248 -8.22733,-0.42313 z m -8.07967,-15.55797 c -5.33973,-1.49416 -5.28343,-5.8259 0.11843,-9.11096 3.51002,-2.13457 6.46002,-1.8666 8.53693,0.77548 1.79966,2.28939 1.56367,3.5774 -1.20225,6.56188 -2.52741,2.72712 -3.34778,2.92234 -7.45311,1.7736 z M 85.479641,131.31585 C 84.04542,128.29346 83.935143,127.06826 84.8657,124.49486 85.489565,122.76959 86,120.47758 86,119.40151 86,116.55363 88.807098,113 91.056704,113 c 2.146441,0 2.31383,0.56815 1.987784,6.74692 -0.163843,3.10494 0.203389,4.41097 1.365704,4.85699 1.828918,0.70182 2.026254,1.95904 0.578925,3.6883 -0.555986,0.66428 -1.938647,2.44529 -3.07258,3.95779 -2.76874,3.69309 -4.350024,3.46361 -6.436896,-0.93415 z m 17.937189,-2.55862 C 101.56641,126.75221 99,121.03518 99,118.91816 c 0,-1.64128 4.01997,-1.95919 6.77285,-0.53562 4.53004,2.34257 5.35194,3.86397 4.44844,8.2344 -0.96474,4.66671 -3.68361,5.5219 -6.80446,2.14029 z M 515,356.22251 c 0,-0.42763 -0.70107,-1.77841 -1.55793,-3.00176 -1.50543,-2.1493 -1.2403,-4.22075 0.54022,-4.22075 0.47534,0 2.20125,1.125 3.83534,2.5 1.6341,1.375 3.37636,2.5 3.8717,2.5 1.02371,0 4.96345,-9.02789 4.5217,-10.36146 -0.15893,-0.47979 0.21347,-2.39475 0.82755,-4.25545 1.23922,-3.75488 3.85533,-4.50478 4.68236,-1.3422 0.29354,1.12249 1.02682,1.87652 1.62951,1.67563 2.48664,-0.82888 12.06547,-18.97724 15.62273,-29.59932 2.38296,-7.11561 2.10613,-14.71146 -0.76961,-21.1172 -3.06691,-6.83158 -13.84102,-18.41175 -21.05735,-22.63277 -2.00542,-1.17303 -6.34622,-3.78657 -9.64622,-5.80787 -3.3,-2.0213 -7.24686,-3.93218 -8.77081,-4.24639 -1.52394,-0.31421 -3.013,-0.96317 -3.30902,-1.44213 C 505.12416,254.39188 503.95642,254 502.8252,254 c -1.88854,0 -9.5023,-2.18488 -14.3252,-4.11082 -1.1,-0.43927 -6.5,-1.7381 -12,-2.8863 -5.5,-1.1482 -11.2375,-2.34981 -12.75,-2.67025 -3.20306,-0.67862 -3.83504,1.52675 -1.08748,3.79493 0.91438,0.75484 2.53559,3.17244 3.60268,5.37244 4.62684,9.53904 13.10394,22.71412 16.72068,25.98722 1.10777,1.00252 2.01412,2.3934 2.01412,3.09084 0,0.69745 1.38462,2.65271 3.07692,4.34502 1.69231,1.6923 2.73887,3.07692 2.32569,3.07692 -0.41318,0 0.16278,1.0125 1.27992,2.25 2.3275,2.57827 5.49764,8.75207 4.49083,8.74581 -2.32929,-0.0145 -11.17837,-5.7166 -15.71628,-10.12716 -6.48472,-6.30274 -11.69839,-9.60715 -20.95708,-13.28252 -9.35416,-3.71328 -24.26689,-8.48503 -28.5,-9.11939 -0.825,-0.12363 -4.2,-0.99322 -7.5,-1.93241 -3.3,-0.9392 -7.35,-2.0473 -9,-2.46245 -1.65,-0.41515 -4.575,-1.27932 -6.5,-1.92038 -1.925,-0.64106 -6.34238,-2.07725 -9.81641,-3.19153 -3.47402,-1.11428 -7.07402,-2.42329 -8,-2.9089 -0.92597,-0.48561 -3.25859,-1.55559 -5.18359,-2.37771 -10.21579,-4.36296 -19.7471,-9.19368 -25.75826,-13.05498 -3.70796,-2.38183 -9.82188,-5.78868 -13.5865,-7.57079 l -6.84476,-3.2402 -3.02008,2.8463 c -3.13425,2.95391 -6.02834,8.6002 -7.24314,14.13115 -0.6326,2.88021 -0.41727,3.31401 2.12439,4.27971 1.55559,0.59104 5.30335,2.95581 8.32835,5.25504 3.025,2.29922 6.26881,4.63041 7.20846,5.18041 0.93965,0.55 5.45195,3.5875 10.02734,6.75 4.57539,3.1625 8.82094,5.75 9.43455,5.75 0.61362,0 1.36101,0.63935 1.66088,1.42078 0.62281,1.62303 10.12231,8.25714 16.37893,11.43847 2.31559,1.17741 5.54078,2.14075 7.1671,2.14075 1.62631,0 5.13174,0.95464 7.78983,2.12143 2.6581,1.16679 7.30791,2.92567 10.33291,3.90863 5.48898,1.7836 25.15791,10.25359 28,12.05757 0.825,0.52366 4.02728,2.21069 7.11617,3.74896 8.03322,4.00055 18.37332,11.61587 25.64341,18.88596 5.81167,5.81166 6.60578,6.27745 10.70223,6.27745 3.21755,0 4.78881,0.51973 5.75904,1.90493 0.73385,1.04771 3.45937,2.93738 6.05671,4.19926 2.59734,1.26189 4.72244,2.71788 4.72244,3.23554 0,0.51767 0.97976,2.903 2.17726,5.30074 1.83363,3.67149 2.6622,4.37526 5.25,4.45921 1.69,0.0548 4.19774,0.45997 5.57274,0.90032 3.38099,1.08278 5,1.15483 5,0.22251 z m 19,-33.68733 C 534,319.66667 534.37716,319 536,319 c 1.45905,0 2,0.66667 2,2.46482 0,1.44136 -0.83045,2.90926 -2,3.53518 -1.82469,0.97654 -2,0.76049 -2,-2.46482 z m 4.94908,-19.56665 c -1.12996,-0.69836 -1.07037,-1.17703 0.34068,-2.73622 2.09952,-2.31994 2.24498,-4.65149 0.24227,-3.88297 -0.80739,0.30982 -1.7258,0.14616 -2.0409,-0.3637 -0.90615,-1.46618 4.10096,-2.27432 6.41573,-1.03549 2.3255,1.24457 2.82297,5.24024 0.84314,6.77217 -2.12973,1.64791 -4.37165,2.12955 -5.80092,1.24621 z m -6.41261,-14.92824 c -2.02795,-2.24085 -1.47625,-6.46569 0.96675,-7.40315 2.12789,-0.81655 6.23345,1.2479 6.80149,3.42007 0.61691,2.35906 -1.91973,5.94279 -4.20643,5.94279 -0.98357,0 -2.58638,-0.88187 -3.56181,-1.95971 z M 537,286.55902 c 0,-1.59263 -1.81436,-3.07799 -2.69007,-2.20228 C 533.48729,285.17938 534.77145,288 535.96862,288 536.53588,288 537,287.35156 537,286.55902 Z m -18.02292,-10.58194 c -4.11269,-4.11269 2.40044,-8.92542 7.53021,-5.56426 2.74787,1.80047 2.99869,2.77324 1.45753,5.65292 -1.38268,2.58355 -6.36467,2.53441 -8.98774,-0.0887 z m 294.06341,-3.16514 C 814.66822,271.60851 816,269.87368 816,268.95676 c 0,-1.08551 2.88917,-3.12518 8.28152,-5.8465 8.26177,-4.16942 17.76591,-11.34421 16.60717,-12.53696 -1.01439,-1.04416 -5.91167,1.26839 -13.34817,6.30316 -3.87229,2.62167 -7.88689,5.08043 -8.92134,5.46392 -1.7147,0.63567 -1.82089,0.32254 -1.20238,-3.54544 0.37314,-2.33348 1.33201,-4.96488 2.13082,-5.84756 0.79881,-0.88267 1.45238,-1.93695 1.45238,-2.34284 0,-0.40589 1.11617,-2.20136 2.48038,-3.98993 1.36421,-1.78857 3.17104,-5.20947 4.01517,-7.60199 l 1.53478,-4.35005 -2.10786,1.9076 c -1.15933,1.04917 -4.50781,5.58943 -7.44108,10.08945 -3.78021,5.79936 -6.00996,8.27774 -7.6573,8.51112 -1.51948,0.21527 -2.43472,1.10821 -2.64364,2.57926 -0.42682,3.00529 -2.94495,2.86098 -4.3624,-0.25 -1.54355,-3.38771 -2.37347,-3.16451 -5.26499,1.41594 -1.35961,2.15377 -2.94025,4.20533 -3.51254,4.55902 -2.25804,1.39554 -1.02687,3.52504 2.03801,3.52504 2.24485,0 4.18357,1.08322 7.15913,4 2.24434,2.2 4.25222,4 4.46197,4 0.20974,0 1.71313,-0.98463 3.34086,-2.18806 z m -129.0612,-12.77798 c 1.78392,-1.12804 1.59346,-10.71366 -0.42787,-21.53396 -0.71922,-3.85 -1.07983,-9.61114 -0.80136,-12.80253 0.37324,-4.27747 0.0385,-6.84003 -1.27375,-9.75 C 680.49728,213.77636 679.36919,212 678.96945,212 c -0.39975,0 -1.29164,-1.36362 -1.98199,-3.03027 -1.28941,-3.11292 -10.93652,-11.12091 -16.41115,-13.62278 -1.69197,-0.77322 -4.42631,-2.20446 -6.07631,-3.18054 -5.38586,-3.18607 -38.08961,-14.53808 -39.45369,-13.69503 -0.41886,0.25887 -2.28813,-0.008 -4.15394,-0.59252 -2.93021,-0.91835 -15.98382,-1.52741 -38.39237,-1.79134 -3.3,-0.0389 -15,0.18609 -26,0.4999 -23.4531,0.66909 -59.57456,0.48453 -60.86169,-0.31096 -0.49294,-0.30465 -4.32572,-0.92624 -8.51729,-1.38131 -11.41451,-1.23924 -16.42283,-1.96365 -17.29268,-2.50124 -0.43043,-0.26602 -4.95162,-1.15797 -10.04709,-1.9821 -5.09546,-0.82413 -10.26492,-2.15393 -11.48768,-2.95511 -1.22276,-0.80119 -3.47654,-1.47207 -5.00839,-1.49085 -1.53185,-0.0188 -6.37177,-0.8841 -10.75538,-1.92293 -4.38362,-1.03882 -8.31182,-1.67764 -8.72934,-1.4196 -0.41752,0.25804 -1.78093,-0.0937 -3.02979,-0.78174 -1.24887,-0.68799 -3.39567,-1.39514 -4.77067,-1.57143 -4.24187,-0.54387 -16.21734,-2.37587 -22,-3.36555 -7.68445,-1.31516 -11.46147,-1.77223 -28,-3.38834 -16.15773,-1.57891 -20.79543,-2.21534 -23,-3.15629 -0.825,-0.35213 -6.675,-1.48251 -13,-2.51196 -18.75448,-3.05246 -21.7472,-3.61155 -25.20521,-4.70877 -3.39774,-1.07808 -6.37797,-1.56778 -18.16449,-2.9847 l -6.86969,-0.82584 -1.29568,3.101 c -0.75007,1.79516 -3.85795,4.95723 -7.38031,7.509 C 257.4679,152.55882 255,155.08757 255,156.17334 255,157.178 254.39474,158 253.65499,158 c -0.73976,0 -2.15545,0.89552 -3.14597,1.99004 -1.75767,1.9422 -1.71409,2.02633 1.81289,3.5 1.98762,0.83048 4.21331,1.50996 4.94597,1.50996 0.73267,0 1.75962,0.42513 2.28212,0.94472 1.72665,1.71707 22.75867,5.98904 47.45,9.63792 27.22616,4.02349 47.6125,11.03711 68.5,23.56645 1.65,0.98975 4.65697,2.70467 6.68215,3.81094 2.02518,1.10626 3.94651,2.43913 4.26961,2.96192 0.5161,0.83506 12.08083,8.85038 16.70513,11.57805 2.30264,1.35823 13.53396,9.70362 17.84311,13.25828 1.925,1.58794 6.78212,5.06499 10.79361,7.72676 4.01148,2.66177 9.18648,6.488 11.5,8.50273 3.90345,3.39934 16.71111,12.44724 16.70263,11.79949 -0.0103,-0.78362 -5.86494,-11.92412 -6.95976,-13.24331 -1.92463,-2.31903 -0.48211,-6.54478 2.23257,-6.54014 4.10645,0.007 19.13337,2.8889 28.73095,5.51009 5.225,1.427 11.82336,2.99018 14.66301,3.47374 2.83966,0.48355 8.17544,2.08435 11.8573,3.55733 5.13161,2.05297 7.19447,2.44661 8.83699,1.6863 5.33533,-2.46969 10.45839,-4.2209 14.1427,-4.83438 2.2,-0.36633 5.575,-1.22979 7.5,-1.91879 9.13712,-3.27041 21.33035,-6.42905 29.5,-7.64194 10.97176,-1.62889 42.4986,-1.66418 51.5,-0.0576 24.06519,4.29509 27.08681,5.0503 30.44039,7.6082 1.88439,1.4373 4.02673,2.61327 4.76075,2.61327 0.73403,0 2.99018,1.125 5.01367,2.5 2.0235,1.375 4.51296,2.5 5.53214,2.5 1.01918,0 2.28055,0.39804 2.80305,0.88454 1.087,1.01209 10.67408,6.1233 11.44204,6.10015 0.27938,-0.008 1.17364,-0.43625 1.98725,-0.95073 z m -372.64198,-4.39959 c 5.07591,-2.72553 6.09701,-3.78656 7.82827,-8.13437 3.41088,-8.56591 5.22286,-11.85501 8.62488,-15.6558 2.11259,-2.36023 2.89478,-3.9207 2.18511,-4.3593 -1.81871,-1.12403 -7.57247,0.4122 -9.49327,2.53466 -2.45333,2.7109 -3.7294,2.51517 -9.22999,-1.41568 C 306.98321,225.55306 299,221.55025 299,222.46051 c 0,0.19716 -2.19873,-0.22155 -4.88607,-0.93045 -5.174,-1.36488 -8.2589,-0.72519 -5.90877,1.22525 2.07796,1.72455 11.91442,5.35015 13.69628,5.04828 0.89462,-0.15156 2.52028,0.52883 3.61257,1.51198 1.0923,0.98314 3.07353,2.59425 4.40275,3.58023 3.56946,2.64773 2.19756,5.56962 -2.17828,4.63932 -5.2359,-1.11315 -27.97916,-0.81064 -31.15132,0.41435 -6.15409,2.37652 2.40036,4.63125 21.41284,5.64386 5.775,0.30758 11.09102,0.74673 11.81338,0.97589 2.31656,0.7349 0.32783,2.19786 -4.5603,3.35467 -7.66058,1.81293 -9.35817,2.07846 -17.19102,2.68888 -8.89414,0.69313 -12.89334,1.95595 -11.28564,3.56365 1.28553,1.28553 16.88875,1.76921 22.72358,0.70439 4.58328,-0.83641 6.73003,0.39053 3.60736,2.06173 -2.83505,1.51728 -2.72911,3.38097 0.14264,2.50922 1.2375,-0.37566 4.87679,-2.09348 8.08731,-3.81739 z M 522,259 c 0,-0.55 -0.675,-1 -1.5,-1 -0.825,0 -1.5,0.45 -1.5,1 0,0.55 0.675,1 1.5,1 0.825,0 1.5,-0.45 1.5,-1 z m 312.97561,-12.59693 c 3.86683,-3.49345 5.56961,-6.94807 3.92554,-7.96416 -0.5011,-0.3097 -3.38385,1.98998 -6.40612,5.11041 -8.62494,8.90505 -6.68623,11.13541 2.48058,2.85375 z M 817,241.44098 c 0,-0.85746 -0.45,-1.2809 -1,-0.94098 -0.55,0.33992 -1,1.04148 -1,1.55902 0,0.51754 0.45,0.94098 1,0.94098 0.55,0 1,-0.70156 1,-1.55902 z m 1.68311,-6.62848 c -0.31922,-0.79773 -0.55618,-0.56078 -0.60416,0.60417 -0.0434,1.05416 0.19293,1.64479 0.52522,1.3125 0.33229,-0.3323 0.36781,-1.1948 0.0789,-1.91667 z m 220.02789,-4.92113 c 23.1437,-2.74335 21.7264,-2.51991 24.1242,-3.80317 1.1461,-0.61337 2.4395,-1.02522 2.8743,-0.91523 1.6836,0.4259 11.8552,-1.44917 13.0352,-2.40297 0.6845,-0.55332 2.1626,-0.766 3.2846,-0.4726 1.8858,0.49316 5.1634,-0.17251 18.4707,-3.75142 2.75,-0.73959 6.158,-1.60361 7.5733,-1.92005 1.4153,-0.31643 6.4542,-4.33586 11.1976,-8.93206 4.7434,-4.59621 10.1104,-9.54919 11.9267,-11.00663 3.2496,-2.60754 3.2704,-2.67561 1.3024,-4.25915 -1.1,-0.88508 -4.504,-2.83939 -7.5643,-4.34289 -8.5568,-4.20377 -13.6284,-8.05469 -23.6645,-17.96868 -5.0758,-5.01408 -9.6844,-9.11652 -10.2414,-9.11652 -0.9666,0 -5.4764,-7.0809 -9.3355,-14.65791 -0.9932,-1.94993 -2.6379,-4.43854 -3.655,-5.53024 -1.017,-1.0917 -2.1408,-3.53922 -2.4972,-5.43893 -0.3564,-1.89972 -1.4847,-5.34828 -2.5073,-7.66347 -2.1132,-4.78405 -13.8641,-17.43334 -18.859,-20.30099 -3.277,-1.88131 -3.3446,-1.88084 -4.75,0.0327 -0.7842,1.06762 -1.4258,2.70698 -1.4258,3.64301 0,0.93604 -0.675,1.9609 -1.5,2.27749 -0.825,0.31658 -1.5,1.17499 -1.5,1.90757 0,0.73259 -2.0538,2.63016 -4.564,4.21684 -7.29,4.60799 -14.7762,13.40169 -17.4143,20.45587 -2.7369,7.31845 -2.073,8.64294 4.7351,9.44623 5.4991,0.64884 6.24,1.17223 6.2585,4.42088 0.019,3.30373 0.6687,4.23259 4.4459,6.35443 2.3216,1.30415 3.2095,2.76588 4.1107,6.76735 0.6323,2.80715 1.9997,6.04446 3.0388,7.19403 1.0391,1.14957 1.9238,3.50426 1.9661,5.23265 0.042,1.72838 0.4285,4.38002 0.8584,5.89252 0.5162,1.81611 0.4052,2.75 -0.3268,2.75 -0.6096,0 -1.1084,-0.71713 -1.1084,-1.59362 0,-0.87649 -0.9,-1.82897 -2,-2.11663 -2.135,-0.55832 -2.7311,-2.87938 -0.8965,-3.49091 1.2737,-0.42456 -1.4331,-7.79884 -2.8626,-7.79884 -0.4737,0 -2.2216,-1.33006 -3.8844,-2.95569 -2.3328,-2.28081 -2.9258,-3.61863 -2.597,-5.85909 0.5031,-3.42795 -1.9606,-4.56153 -6.8601,-3.15637 -2.7879,0.79955 -11.0294,7.08941 -9.8994,7.55511 0.275,0.11334 -0.2063,1.04081 -1.0695,2.06105 -1.842,2.17712 -5.1281,10.49071 -4.4247,11.19411 0.2663,0.26635 2.399,-0.15099 4.7392,-0.92742 4.3474,-1.44235 17.0452,-1.95481 18.263,-0.73706 1.3637,1.36372 -0.6511,4.82547 -2.8254,4.85448 -1.2004,0.016 -5.3326,0.93932 -9.1826,2.05179 -3.85,1.11247 -8.35,2.40415 -10,2.87041 -5.6714,1.60261 -10.0026,3.33406 -11.5,4.59726 -0.825,0.69595 -3.37469,1.76439 -5.66597,2.37431 -2.29129,0.60992 -5.89129,1.86486 -8,2.78876 -5.88285,2.57747 -12.082,4.03471 -15.75992,3.70468 -4.02553,-0.36122 -26.03445,-14.36904 -34.01267,-21.64774 C 937.49523,180.79587 936.33878,180 935.99155,180 c -0.34723,0 -2.17488,-1.39391 -4.06144,-3.09758 -6.24767,-5.64198 -17.59825,-14.66046 -23.65456,-18.79446 -3.2834,-2.24122 -7.19912,-5.30426 -8.7016,-6.80674 -1.77494,-1.77494 -3.81993,-2.74395 -5.83841,-2.7665 -3.00243,-0.0336 -3.16671,-0.26949 -4.89824,-7.03472 -0.9854,-3.85 -1.8019,-8.0125 -1.81446,-9.25 -0.0126,-1.2375 -0.46526,-2.25 -1.00599,-2.25 -1.04809,0 -6.01685,9.15226 -6.01685,11.08278 0,1.95753 -6.73272,10.43622 -9.43597,11.88295 -4.80265,2.5703 -3.14614,4.50378 3.49934,4.08444 5.0475,-0.3185 14.0069,3.98601 19.41024,9.32559 2.85199,2.81833 10.08182,9.62424 16.06628,15.12424 5.98447,5.5 15.84868,15.02632 21.92048,21.16961 7.75708,7.84841 14.45752,13.44981 22.53444,18.83823 11.409,7.61138 11.54338,7.66845 18,7.64433 8.75802,-0.0327 34.53059,-6.4551 44.00519,-10.96584 2.475,-1.17832 5.104,-2.15229 5.8423,-2.16437 0.7382,-0.0121 2.4864,-0.92196 3.8848,-2.02196 1.3985,-1.1 3.2775,-2 4.1756,-2 0.8982,0 3.2886,-1.125 5.3121,-2.5 2.0235,-1.375 3.9621,-2.5 4.3081,-2.5 1.1536,0 12.3872,-9.03359 13.8749,-11.1576 1.7342,-2.47586 6.2509,-1.90527 6.7828,0.85687 0.6796,3.52891 -21.5169,22.27442 -26.417,22.30987 -0.695,0.005 -3.5136,1.11596 -6.2636,2.46873 -2.75,1.35277 -5.4146,2.47366 -5.9213,2.49086 -1.1776,0.04 -4.5787,3.09648 -4.5787,4.11483 0,0.78734 2.8223,3.91644 3.5325,3.91644 0.2142,0 8.3946,-0.94888 18.1785,-2.10863 z M 319,223.51241 c 0,-2.18276 -3.10246,-4.80995 -4.28437,-3.62804 -0.68392,0.68392 -0.46316,1.85201 0.67965,3.59615 1.6951,2.58706 3.60472,2.60395 3.60472,0.0319 z m 699,-65.95339 c 0,-1.61407 -1.4163,-2.80939 -2.2916,-1.93407 -0.7804,0.78038 0.2948,3.37505 1.3986,3.37505 0.4911,0 0.893,-0.64844 0.893,-1.44098 z m -771.07357,-3.10647 c 1.88454,-1.93939 4.85572,-4.2044 6.60263,-5.03336 C 257.83142,147.37758 264,141.60187 264,139.61513 c 0,-2.24627 -3.76091,-2.05827 -7.77417,0.38861 -3.7117,2.26303 -5.22583,2.51119 -5.22583,0.8565 0,-0.62686 -0.7875,-1.74442 -1.75,-2.48345 -1.60694,-1.23385 -1.34125,-1.71836 3.25,-5.92685 4.78998,-4.39065 4.87399,-4.55636 2,-3.94523 -1.65,0.35087 -4.20989,1.78858 -5.68864,3.19492 -1.95354,1.85788 -3.41077,2.41894 -5.32984,2.05209 -2.23794,-0.42781 -3.15962,0.2015 -6.03657,4.12169 -3.90234,5.3174 -4.27589,8.06462 -1.44495,10.62659 1.1,0.99549 2,2.20845 2,2.69548 0,1.08652 4.15906,6.80863 4.93806,6.79387 0.30907,-0.006 2.10383,-1.59742 3.98837,-3.5368 z m 753.60187,-0.92842 c 2.2925,-2.46172 5.0933,-6.39922 6.2241,-8.75 3.7566,-7.80993 6.047,-13.22186 7.7096,-18.21705 1.801,-5.41074 6.1862,-13.80972 9.672,-18.52449 2.5584,-3.46045 2.163,-4.47286 -1.2453,-3.18822 -4.4098,1.66209 -8.6994,-1.56819 -7.216,-5.433926 0.3977,-1.036266 1.4288,-1.433035 2.9623,-1.139885 3.352,0.64077 4.2297,-0.964857 4.9881,-9.124876 0.6077,-6.53862 0.9338,-7.361573 3.5233,-8.891224 1.5695,-0.927121 2.8536,-1.97519 2.8536,-2.329043 0,-0.353853 -1.8425,-2.16933 -4.0944,-4.034393 C 1017.5854,67.00024 1015,64.212473 1015,62.131923 1015,60.573974 1014.3808,60 1012.7,60 c -1.265,0 -2.7614,-0.461436 -3.3254,-1.025413 -0.564,-0.563977 -2.5015,-1.21222 -4.3056,-1.440539 -1.804,-0.228319 -4.0201,-1.004384 -4.9246,-1.724587 -1.79585,-1.430059 -5.16395,-3.429132 -9.29684,-5.517998 -1.45884,-0.737335 -2.90722,-2.004551 -3.21862,-2.816036 C 987.31755,46.663942 986.20489,46 985.15637,46 c -2.58473,0 -23.92174,8.790206 -27.64286,11.388025 -10.06851,7.029117 -13.79024,16.343561 -10.90731,27.297904 1.90591,7.241895 0.65858,14.384662 -4.2863,24.545281 -1.82595,3.75191 -3.3199,7.08484 -3.3199,7.40652 0,1.00102 7.28937,-0.72699 9.44893,-2.23996 1.50606,-1.05513 2.05107,-2.53635 2.05107,-5.57437 0,-5.75292 1.86516,-5.80324 3.97135,-0.10715 0.97286,2.63106 4.1898,8.43417 7.14875,12.8958 2.95894,4.46162 5.3799,8.41876 5.3799,8.79364 0,0.37488 1.13714,1.89946 2.52697,3.38795 l 2.52697,2.70636 4.47983,-5 c 2.4639,-2.75 5.35197,-6.85484 6.41792,-9.12186 2.63743,-5.60919 6.04831,-6.82832 6.04831,-2.16181 0,3.52863 -4.56917,10.67917 -11.12662,17.41263 -1.70786,1.7537 -1.8742,2.50099 -0.9437,4.23965 0.62129,1.16088 2.35377,2.74691 3.84996,3.5245 1.4962,0.7776 5.11894,3.93226 8.05055,7.01035 2.9316,3.0781 5.82515,5.59654 6.43011,5.59654 0.60496,0 2.97558,-2.01414 5.268,-4.47587 z M 968.39161,97.578141 C 967.56815,95.432234 969.81004,92 972.03518,92 c 2.26313,0 2.42497,0.895982 0.8043,4.452947 -1.26912,2.785422 -3.58588,3.371501 -4.44787,1.125194 z m -12.82648,-0.346345 c -0.61272,-0.612723 3.07631,-7.892163 4.42058,-8.722964 C 960.54357,88.164056 961,87.174645 961,86.310141 c 0,-1.242295 -0.74473,-1.450974 -3.55226,-0.995374 -3.96052,0.642704 -5.08427,-0.642495 -4.07564,-4.661186 1.09317,-4.355556 14.87247,-20.238497 16.62064,-19.158068 1.68193,1.039488 1.15099,3.00599 -1.97765,7.32496 -2.62198,3.619542 -2.90897,4.674601 -2.36034,8.67734 0.34352,2.506235 0.94632,4.755635 1.33956,4.998668 0.39323,0.243033 1.75882,-0.669253 3.03464,-2.027301 C 971.30477,79.111131 972.72019,78 973.17431,78 c 1.88699,0 0.6131,4.17253 -2.2798,7.46736 -1.70801,1.945324 -4.07051,5.448482 -5.25,7.784796 -1.9227,3.808486 -2.53007,4.258768 -5.87223,4.353462 -2.05024,0.05809 -3.94346,-0.11013 -4.20715,-0.373822 z m 32.06731,-31.01751 c -0.26708,-0.432143 0.38136,-0.785715 1.44098,-0.785715 1.05962,0 1.92658,0.353572 1.92658,0.785715 C 991,66.646429 990.35156,67 989.55902,67 c -0.79254,0 -1.65951,-0.353571 -1.92658,-0.785714 z M 874.03527,140.7448 c 2.31518,-4.53464 4.82937,-8.95523 5.58708,-9.82354 1.65508,-1.89667 1.76556,-3.56348 0.29639,-4.47148 C 877.20169,124.77055 866,140.71588 866,146.26277 c 0,2.38381 1.61268,3.96293 3.16292,3.09709 0.3646,-0.20364 2.55716,-4.08041 4.87235,-8.61506 z M 218.3017,138.28086 c -0.10907,-2.87053 -0.67157,-6.10345 -1.25,-7.18426 -0.57844,-1.08082 -1.0517,-3.30494 -1.0517,-4.9425 0,-3.1229 -0.30006,-3.28275 -15.25,-8.12396 -3.5562,-1.1516 -3.48075,-0.10443 0.25,3.46986 1.65,1.5808 3,3.39928 3,4.04107 0,0.64179 1.06766,2.31891 2.37258,3.72694 1.30492,1.40804 2.69136,4.28625 3.08098,6.39603 0.85536,4.63176 4.21545,8.52763 7.00982,8.12755 1.78184,-0.25511 2.01181,-0.9445 1.83832,-5.51073 z m 9.89131,0.96914 c 2.63768,-3.07117 2.76695,-4.94219 0.48476,-7.01627 -1.19778,-1.08854 -2.74027,-1.77394 -3.42777,-1.52312 C 223.2086,131.4554 223.85979,141 225.952,141 c 0.40591,0 1.41437,-0.7875 2.24101,-1.75 z m 635.11454,-3.08602 C 864.2384,134.05417 865,131.88836 865,131.35107 c 0,-0.53729 1.32861,-2.24978 2.95248,-3.80554 2.84956,-2.73006 2.89919,-2.93169 1.42375,-5.78488 -0.8408,-1.62593 -1.70355,-3.69973 -1.91722,-4.60844 C 865.3552,108.2048 864,101.04314 864,98.872818 c 0,-1.445361 -0.66754,-3.181939 -1.48343,-3.859064 -1.23065,-1.021349 -1.65665,-0.77552 -2.5,1.442655 C 859.45746,97.926994 859,99.775904 859,100.5651 c 0,2.02234 -2.63111,1.78892 -3.55177,-0.3151 -0.42116,-0.9625 -0.69431,-2.0875 -0.60699,-2.5 0.40856,-1.930096 -1.91609,-0.431871 -3.50597,2.25958 -2.39788,4.05928 -3.77339,3.28258 -4.14006,-2.337749 C 846.98209,94.405077 846.45576,93 845.44521,93 c -2.43742,0 -2.21271,3.572573 0.61258,9.7391 2.03843,4.44911 2.53809,8.2609 1.08287,8.2609 -0.47263,0 -2.57657,-2.01459 -4.67542,-4.47686 -2.94778,-3.45821 -4.11747,-4.22673 -5.14066,-3.37755 -2.62226,2.17627 -1.41244,6.41978 3.92542,13.76872 2.8875,3.97538 6.27753,8.65845 7.5334,10.40683 3.22045,4.48337 10.96468,12.67886 11.98075,12.67886 0.46802,0 1.61256,-1.72621 2.5434,-3.83602 z M 888.893,114.30091 c 7.37575,-2.07775 9.73201,-4.52024 10.90343,-11.30242 0.69021,-3.996142 0.0513,-13.549357 -1.31696,-19.69022 -0.84981,-3.814151 -6.85876,-1.496447 -14.2139,5.482421 -2.87894,2.731659 -6.75445,5.687945 -8.61224,6.569526 -5.24339,2.488152 -5.99605,3.939672 -5.39671,10.407643 0.29214,3.15268 1.12311,7.01784 1.84659,8.58926 1.23195,2.6758 1.60358,2.82182 5.85611,2.30091 2.49737,-0.30592 7.41753,-1.36662 10.93368,-2.35712 z m 149.1531,-9.16985 c 4.2481,-4.14509 5.375,-6.937492 4.4673,-11.069991 -0.8861,-4.034457 -3.3176,-4.717535 -4.5989,-1.291969 -0.5618,1.501995 -2.1563,4.9809 -3.5433,7.7309 -1.387,2.75 -2.9383,6.04297 -3.4475,7.3177 -0.8299,2.07791 -0.7018,2.24666 1.2377,1.63107 1.1899,-0.37765 3.838,-2.32062 5.8847,-4.31771 z m -5.5494,-16.794235 c -0.6404,-1.500487 -1.0082,-1.104391 -2.0087,2.163175 -1.5373,5.020457 -0.634,6.909101 1.3255,2.771535 0.8837,-1.865901 1.1554,-3.828363 0.6832,-4.93471 z M 909.23061,85.892256 c -0.38764,-6.320169 -0.90102,-7.410677 -2.76178,-5.866391 -1.07296,0.890478 -1.33534,2.292136 -0.91025,4.862624 0.89225,5.39538 1.31928,6.321299 2.69195,5.836925 0.80231,-0.283111 1.15306,-2.01281 0.98008,-4.833158 z M 533.5,567.88549 c -2.2,-1.68237 -4.87285,-3.6845 -5.93967,-4.44918 -1.06681,-0.76467 -1.62181,-1.70816 -1.23333,-2.09664 0.38848,-0.38849 1.23883,-0.17384 1.88967,0.477 0.65083,0.65083 1.90505,1.18333 2.78716,1.18333 1.55419,0 7.99617,5.87919 7.99617,7.29761 0,1.30862 -1.48768,0.65617 -5.5,-2.41212 z m 309.82673,0.76268 c -1.5547,-1.29351 -3.95173,-2.61659 -5.32673,-2.94018 -1.375,-0.32359 -4.75,-1.11268 -7.5,-1.75353 -2.75,-0.64085 -5.41258,-1.55286 -5.91685,-2.02667 -1.50297,-1.41221 8.52368,-0.91134 13.52339,0.67554 4.17455,1.32499 10.89346,6.09635 10.89346,7.73587 0,1.43196 -2.99135,0.54032 -5.67327,-1.69103 z M 521.5,559 c -0.33992,-0.55 0.057,-1 0.88197,-1 0.825,0 1.77811,0.45 2.11803,1 0.33992,0.55 -0.057,1 -0.88197,1 -0.825,0 -1.77811,-0.45 -2.11803,-1 z m 617.5,-4 c 0,-0.55 0.45,-1 1,-1 0.55,0 1,0.45 1,1 0,0.55 -0.45,1 -1,1 -0.55,0 -1,-0.45 -1,-1 z M 556.66667,553.33333 C 556.3,552.96667 556,552.30901 556,551.87188 c 0,-1.34572 11.46111,-3.93432 24,-5.42062 2.475,-0.29338 8.1,-1.16997 12.5,-1.94798 7.91479,-1.39949 24.15959,-2.87179 44.5,-4.03312 9.49562,-0.54215 23.48912,-2.0007 30,-3.12692 1.375,-0.23784 6.325,-0.85061 11,-1.3617 7.81983,-0.8549 11.08563,-1.32556 16.5,-2.37796 1.1,-0.2138 5.6,-0.69133 10,-1.06116 4.4,-0.36983 8.9,-0.87016 10,-1.11183 1.1,-0.24168 4.025,-0.63959 6.5,-0.88424 7.93122,-0.784 20.11848,-2.50157 20.82017,-2.93422 0.95631,-0.58963 15.89519,-1.53849 27.17983,-1.72634 5.225,-0.087 13.41069,-0.78106 18.19041,-1.5424 12.08906,-1.92559 18.80959,-1.5167 18.80959,1.1444 0,0.94124 -2.0543,1.54557 -6.75,1.9857 -3.7125,0.34797 -9.675,1.00369 -13.25,1.45716 -3.575,0.45347 -10.32028,0.91394 -14.98952,1.02326 -4.66924,0.10932 -8.97744,0.60371 -9.57379,1.09864 -0.65697,0.54523 -1.52479,0.45935 -2.20208,-0.21794 -0.82374,-0.82374 -2.74585,-0.7975 -7.30632,0.0997 -3.40368,0.66963 -8.26746,1.41179 -10.8084,1.64924 -2.54094,0.23744 -7.24374,1.10328 -10.45066,1.92408 -7.03897,1.80158 -9.37523,1.87436 -9.89724,0.30832 -0.48375,-1.45126 -17.34302,0.21087 -37.77199,3.7239 -11.21297,1.92822 -18.03465,2.93481 -26.5,3.91031 -0.55,0.0634 -3.25,0.42278 -6,0.79867 -10.65519,1.45643 -19.24196,2.10507 -25,1.88849 -3.3,-0.12413 -14.325,0.71601 -24.5,1.86697 -10.175,1.15096 -20.38566,2.28682 -22.69035,2.52413 -2.30469,0.23732 -7.47065,1.3405 -11.4799,2.45152 -7.92763,2.19686 -9.15602,2.36044 -10.16308,1.35337 z M 703.18045,178.7898 c 0.39188,-2.71048 4.61791,-4.07741 17.94075,-5.803 5.15834,-0.66812 11.6288,-2.04029 14.3788,-3.04929 6.11775,-2.24464 18.5993,-3.01934 19.2317,-1.19366 0.23698,0.68411 -0.83273,1.72426 -2.37712,2.31144 -2.65132,1.00803 -13.88803,3.57355 -19.35458,4.41896 -1.375,0.21264 -4.3,0.65997 -6.5,0.99405 -7.54106,1.14517 -14.59339,2.87379 -15.10562,3.70259 -0.28183,0.45601 -2.31715,0.82911 -4.52295,0.82911 -3.56739,0 -3.97522,-0.24421 -3.69098,-2.2102 z"
     id="path12"
     inkscape:connector-curvature="0" />
</svg>
