<?xml version="1.0" encoding="utf-8"?>
<!-- Created with Inkscape (http://www.inkscape.org/) -->
<svg xmlns="http://www.w3.org/2000/svg" xmlns:cc="http://creativecommons.org/ns#" xmlns:dc="http://purl.org/dc/elements/1.1/" xmlns:inkscape="http://www.inkscape.org/namespaces/inkscape" xmlns:rdf="http://www.w3.org/1999/02/22-rdf-syntax-ns#" xmlns:sodipodi="http://sodipodi.sourceforge.net/DTD/sodipodi-0.dtd" xmlns:svg="http://www.w3.org/2000/svg" height="478" id="svg2" version="1.1" viewBox="0 0 718 478" width="718" sodipodi:docname="illustration-nonsense-alphabet-3-9.svg" inkscape:version="0.92.4 (5da689c313, 2019-01-14)">
	<metadata id="metadata8">
		<rdf:RDF>
			<cc:Work rdf:about="">
				<dc:format>image/svg+xml</dc:format>
				<dc:type rdf:resource="http://purl.org/dc/dcmitype/StillImage"/>
				<dc:title/>
			</cc:Work>
		</rdf:RDF>
	</metadata>
	<defs id="defs6"/>
	<sodipodi:namedview bordercolor="#666666" borderopacity="1" gridtolerance="10" guidetolerance="10" id="namedview4" objecttolerance="10" pagecolor="#ffffff" showgrid="false" inkscape:current-layer="svg2" inkscape:cx="363.05085" inkscape:cy="239" inkscape:pageopacity="0" inkscape:pageshadow="2" inkscape:window-height="1010" inkscape:window-maximized="1" inkscape:window-width="1920" inkscape:window-x="0" inkscape:window-y="0" inkscape:zoom="1.3964619"/>
	<path d="m 216,464.06892 c -0.825,-0.48251 -10.05,-1.20049 -20.5,-1.59552 -10.45,-0.39503 -19.75619,-1.11222 -20.68043,-1.59377 -0.92423,-0.48154 -9.92423,-0.84957 -20,-0.81784 -10.07576,0.0317 -19.44457,-0.22309 -20.81957,-0.56626 -1.375,-0.34317 -4.975,-0.8009 -8,-1.01716 -3.025,-0.21627 -8.425,-0.85744 -12,-1.42482 -3.575,-0.56738 -8.975,-1.27081 -12,-1.56317 -3.025,-0.29237 -8.425,-1.18726 -12,-1.98865 -8.189676,-1.83585 -17.071792,-3.34489 -23.437102,-3.98187 -2.715405,-0.27173 -5.392905,-0.94987 -5.95,-1.50696 C 60.055804,447.4558 57.461174,447 54.847053,447 c -2.614121,0 -5.786621,-0.41439 -7.05,-0.92087 -1.263379,-0.50647 -5.489783,-1.91567 -9.39201,-3.13154 -8.588765,-2.67614 -16.050757,-7.85542 -17.984101,-12.48256 -0.792339,-1.89634 -1.41525,-6.62229 -1.408075,-10.68291 0.02219,-12.55855 5.567411,-20.4175 17.559393,-24.88601 3.260257,-1.21485 7.606298,-3.26346 9.657868,-4.55246 C 48.281699,389.05464 50.635092,388 51.459892,388 c 0.824799,0 3.196242,-0.63719 5.269872,-1.41598 2.07363,-0.77879 6.470236,-2.18351 9.770236,-3.1216 3.3,-0.93809 9.15,-2.74215 13,-4.00903 3.85,-1.26688 9.7,-2.76457 13,-3.32821 17.08331,-2.91782 16.33295,-2.87197 16.81532,-1.02741 0.48815,1.86672 -1.02971,2.33282 -11.31532,3.47473 -3.025,0.33583 -7.428226,1.2444 -9.784947,2.01905 C 85.858332,381.3662 83.256636,382 82.433507,382 c -0.823129,0 -4.294902,0.96652 -7.715052,2.14781 C 71.298305,385.32911 66.7,386.64545 64.5,387.073 c -9.156407,1.77951 -13.136684,3.21062 -19.875372,7.14623 -8.050296,4.70163 -8.322823,4.90122 -13.696304,10.03077 -4.497376,4.29322 -4.983731,7.30625 -1.967206,12.18709 2.197472,3.55558 7.026013,5.45044 20.405173,8.00758 4.32646,0.8269 8.37646,1.91426 9,2.41633 1.177882,0.94844 9.490775,2.68203 10.988969,2.29167 0.470393,-0.12256 1.385825,0.21749 2.034293,0.75567 1.766483,1.46605 23.099107,5.05077 29.365857,4.93462 2.34047,-0.0434 4.81547,0.37047 5.5,0.91966 0.68452,0.5492 10.91959,1.50781 22.74459,2.13025 11.825,0.62243 25.1,1.36959 29.5,1.66034 16.18154,1.06926 21.34143,1.26731 37.5,1.43936 9.075,0.0966 21.675,0.60369 28,1.12682 18.06308,1.49397 65.37804,1.95831 75,0.73604 4.675,-0.59387 16.85468,-1.20518 27.06596,-1.35849 10.21128,-0.1533 21.2004,-0.82564 24.42027,-1.49408 3.21986,-0.66844 7.91518,-0.96094 10.43403,-0.65 7.25978,0.89618 50.33229,-4.02236 73.01962,-8.33826 3.66293,-0.69681 5.76983,-0.70489 6.45,-0.0247 1.50577,1.50575 3.61012,1.2202 3.61012,-0.4899 0,-1.48507 3.57311,-1.96216 11.54874,-1.54204 1.67681,0.0883 6.39277,-0.76608 10.47991,-1.89868 4.08713,-1.1326 8.83699,-2.05928 10.55523,-2.05928 1.94633,0 4.14102,-0.94247 5.82162,-2.5 1.48365,-1.375 3.12436,-2.55625 3.64602,-2.625 0.52166,-0.0688 1.37992,-0.18125 1.90723,-0.25 1.34065,-0.17479 9.0192,-8.53891 9.14257,-9.95885 0.32322,-3.72023 -0.49582,-8.30375 -2.15342,-12.05102 -2.2686,-5.12856 -5.33761,-6.80711 -21.9479,-12.00406 -23.77878,-7.4398 -23.02429,-7.2993 -25.14342,-4.68229 -1.02112,1.26104 -1.87072,3.03044 -1.888,3.932 -0.0438,2.28506 -4.45869,5.26533 -8.27497,5.58603 -1.75649,0.14761 -3.98111,0.33246 -4.94361,0.41079 -0.9625,0.0783 -1.75,0.64248 -1.75,1.25369 0,0.72753 1.20344,0.88553 3.48492,0.45752 2.77533,-0.52066 3.37367,-0.36388 2.93857,0.76997 -0.59689,1.55547 -6.23554,2.40219 -20.92349,3.14197 -4.95,0.24932 -12.6,0.73465 -17,1.07853 -4.4,0.34387 -11.375,0.79411 -15.5,1.00051 -4.125,0.20641 -8.625,0.62485 -10,0.92987 -1.375,0.30502 -5.875,0.77132 -10,1.03622 -7.43681,0.47758 -14.98919,2.72872 -26.14318,7.79249 -3.10375,1.40906 -5.93216,2.27296 -6.28534,1.91977 -1.07907,-1.07906 -7.70945,-0.24303 -9.09989,1.14741 -2.89173,2.89173 -19.08518,3.91924 -57.47159,3.64669 -20.625,-0.14644 -39.3,-0.25844 -41.5,-0.24889 -12.327,0.0535 -24.55191,-0.0838 -28.5,-0.31997 -8.27112,-0.49485 -20.46301,-3.05117 -23.93128,-5.01776 -7.94512,-4.50507 -12.40063,-12.24214 -11.96042,-20.76945 0.14697,-2.8469 0.18272,-7.55873 0.0795,-10.47074 L 159,372.91086 l -9.25,0.63969 c -5.0875,0.35182 -11.95,0.76746 -15.25,0.92364 -3.3,0.15618 -9.9375,0.6166 -14.75,1.02316 -7.69986,0.65049 -8.75,0.54499 -8.75,-0.87907 0,-0.89006 0.5625,-1.65528 1.25,-1.70051 0.6875,-0.0452 2.58597,-0.29881 4.21881,-0.56351 1.63285,-0.26471 8.83011,-0.79021 15.99391,-1.16777 l 13.02509,-0.68649 2.4059,-3.72259 c 1.90425,-2.9464 3.50143,-4.04107 7.66,-5.25 2.88976,-0.84008 5.74735,-1.52741 6.3502,-1.52741 1.57368,0 1.29253,4.15618 -0.43571,6.44113 -2.00773,2.65446 -2.01643,5.25875 -0.012,3.59522 0.8009,-0.66469 1.90916,-0.92858 2.4628,-0.58641 1.03567,0.64008 8.39922,-3.53779 9.56771,-5.42844 0.79281,-1.28279 9.96197,-6.0215 11.65131,-6.0215 0.66247,0 1.91493,-0.58188 2.78324,-1.29306 2.83818,-2.32459 8.87887,-3.81016 17.30335,-4.25535 4.55147,-0.24052 9.55982,-0.71159 11.12967,-1.04681 5.30472,-1.13276 11.39874,-4.37889 13.10271,-6.97948 1.53944,-2.34948 1.55534,-2.87631 0.17371,-5.75575 -0.83645,-1.74325 -3.07121,-4.75341 -4.96612,-6.68925 C 221.20472,328.44571 218,322.22913 218,319.05219 c 0,-3.1866 4.33029,-5.71678 13,-7.59587 4.675,-1.01327 9.62359,-1.79615 10.99686,-1.73973 1.37328,0.0564 2.82205,-0.41924 3.21949,-1.05701 0.54407,-0.87305 1.2129,-0.85577 2.70678,0.0699 1.25247,0.77612 2.20801,0.86732 2.5912,0.2473 0.39688,-0.64217 1.24128,-0.6428 2.43896,-0.002 1.00756,0.53923 3.91909,0.81596 6.47008,0.61496 2.55099,-0.201 6.12543,-0.03 7.94319,0.37995 2.73705,0.6173 3.69499,0.34023 5.5742,-1.61225 1.24804,-1.29672 2.60316,-2.35766 3.01139,-2.35766 0.40822,0 1.14849,-0.87085 1.64504,-1.93523 0.49654,-1.06438 5.17781,-5.56991 10.40281,-10.01229 11.77807,-10.0139 11.19691,-9.55231 13.74123,-10.91399 1.1634,-0.62263 6.47788,-5.1835 11.80996,-10.13527 5.33208,-4.95155 10.10827,-9.003 10.61375,-9.003 0.50549,0 4.18823,-2.8125 8.18387,-6.25 14.69849,-12.64529 16.09811,-13.75 17.42056,-13.75 0.76479,0 1.03976,-0.49982 0.63514,-1.15451 -0.47166,-0.76315 -0.27075,-0.88085 0.59269,-0.34722 0.7882,0.48713 1.74176,0.22966 2.4045,-0.64923 1.73622,-2.30249 11.71608,-9.42575 15.96534,-11.39546 2.12686,-0.9859 8.29793,-5.76627 13.71347,-10.62306 C 388.49606,214.97373 393.16676,211 393.45986,211 c 0.2931,0 3.68616,-2.25 7.54014,-5 3.85398,-2.75 7.24982,-5 7.54632,-5 0.98839,0 11.86346,-8.35141 19.16168,-14.71504 C 431.6724,182.82823 435.41874,180 436.03319,180 437.31001,180 448,171.85872 448,170.88632 c 0,-0.35202 2.25,-1.60796 5,-2.79097 2.75,-1.18302 5,-2.58844 5,-3.12315 0,-0.53471 0.57942,-0.9722 1.28759,-0.9722 0.70818,0 3.50376,-2.25 6.21241,-5 2.70865,-2.75 5.64808,-5 6.53207,-5 0.88399,0 2.51422,-1.0125 3.62273,-2.25 2.86686,-3.20047 7.57391,-6.75 8.95121,-6.75 1.52326,0 16.8393,-9.89376 21.51556,-13.8985 1.99187,-1.70582 3.8914,-3.1015 4.22119,-3.1015 0.32979,0 4.88374,-2.925 10.1199,-6.5 5.23615,-3.575 9.97411,-6.5 10.52881,-6.5 0.55469,0 1.00853,-0.42798 1.00853,-0.95106 0,-0.52308 2.96939,-2.66058 6.59865,-4.75 3.62926,-2.08942 8.01676,-4.62302 9.75,-5.63023 1.73324,-1.0072 4.72635,-3.04974 6.65135,-4.538967 C 559.2755,95.822107 573.48174,87 574.53252,87 c 1.29496,0 10.87084,-6.720025 12.70769,-8.91783 C 588.19733,76.936976 589.62928,76 590.42233,76 c 0.79305,0 5.63496,-2.062592 10.75979,-4.583539 C 606.30695,68.895515 611.625,66.329084 613,65.71328 c 1.375,-0.615803 4.56375,-2.549479 7.08611,-4.297058 2.52237,-1.747579 5.67237,-3.516106 7,-3.930061 1.32764,-0.413955 7.02555,-2.942686 12.66203,-5.619403 C 645.38461,49.190041 650.34062,47 650.76149,47 c 0.42086,0 3.15499,-1.609373 6.07583,-3.576385 C 662.31346,39.735767 675.91258,33 677.88199,33 c 0.61197,0 3.92637,-1.315654 7.36534,-2.923675 7.80348,-3.648815 13.07465,-4.339576 13.57005,-1.778286 C 699.29012,30.742182 697.23195,33 694.53119,33 c -2.00984,0 -6.06714,1.531461 -10.76762,4.064321 C 682.80853,37.578945 681.20704,38 680.2047,38 c -1.00234,0 -2.69595,0.660688 -3.76357,1.468197 -1.70845,1.292205 -1.73721,1.472008 -0.23992,1.5 2.6836,0.05017 13.08565,-2.855062 14.19523,-3.96464 C 690.9484,36.451601 691.82571,36 692.34602,36 c 0.52032,0 -0.26787,1.125 -1.75152,2.5 -1.48365,1.375 -3.27092,2.5 -3.97171,2.5 -0.70079,0 -2.30912,1.101657 -3.57406,2.448127 -1.26494,1.34647 -3.66891,2.748814 -5.34215,3.11632 -2.55354,0.560851 -2.77096,0.820023 -1.35339,1.613333 0.92888,0.519827 1.44546,1.338988 1.14796,1.820356 C 676.70793,51.281603 670.95871,54 669.03749,54 c -0.91038,0 -2.52874,0.696204 -3.59636,1.54712 -1.82217,1.452303 -1.72783,1.505618 1.53925,0.869944 3.12875,-0.608758 3.34462,-0.513597 2.13669,0.94187 -0.73902,0.890475 -1.6302,1.451836 -1.98038,1.247469 -0.35018,-0.204367 -1.66744,0.01784 -2.92724,0.493786 -1.72044,0.649976 -2.21823,1.523599 -2,3.509969 0.27355,2.489871 -0.1874,2.798053 -7.87821,5.267224 -4.49282,1.44244 -8.4642,2.918991 -8.82528,3.281224 -0.36108,0.362234 -1.98523,0.277534 -3.60923,-0.188222 -1.62399,-0.465756 -4.17762,-0.477126 -5.67472,-0.02527 -1.49711,0.451858 -4.61959,1.391163 -6.93887,2.087343 -2.31927,0.69618 -3.9689,1.666983 -3.66584,2.157339 0.30306,0.490356 1.30064,0.683958 2.21686,0.430226 0.91621,-0.253731 2.61743,-0.733027 3.78048,-1.065102 1.71265,-0.488997 2.09284,-0.186158 2,1.593095 -0.0974,1.866593 -1.09184,2.411788 -6.61464,3.626452 -3.575,0.786271 -7.4,1.798664 -8.5,2.249761 -1.1,0.451097 -3.2375,1.088759 -4.75,1.417026 C 611.07456,84.021922 609.84151,86 612.15499,86 c 0.66616,0 0.41057,0.82257 -0.60392,1.943568 -0.9674,1.068962 -5.53714,3.121099 -10.15499,4.560305 C 596.77824,93.943078 593,95.534899 593,96.041253 c 0,1.194056 4.56973,2.342703 5.94316,1.493873 C 599.52442,97.175888 600,97.342691 600,97.905799 c 0,1.41475 -2.76159,2.706121 -7.5,3.507151 -5.71217,0.96563 -17.81857,4.65559 -19,5.79108 -0.6416,0.61665 0.88159,0.72817 4.25001,0.31116 2.88751,-0.35748 6.20208,-0.34778 7.36571,0.0215 2.0323,0.64503 2.00274,0.74595 -0.75002,2.56079 -1.57613,1.03912 -4.26105,1.89227 -5.96648,1.89589 -1.70542,0.004 -4.40542,0.43459 -6,0.95769 -1.59457,0.52311 -4.85714,1.45269 -7.25016,2.06573 -5.60245,1.43523 -4.56604,2.39282 2.64436,2.44325 3.13862,0.022 5.82484,0.48992 5.96938,1.03992 0.14454,0.55 -0.53046,1.0663 -1.5,1.14732 -11.00541,0.91976 -15.92768,1.64648 -16.7628,2.47484 -0.8358,0.82903 9.58896,0.70209 14.04122,-0.17099 2.70935,-0.53129 3.69788,0.0558 2.508,1.48952 -0.76447,0.92113 -1.9105,1.17625 -3.17786,0.70743 C 566.81007,123.3856 552,125.82342 552,126.92525 c 0,0.34518 1.76468,0.45931 3.92152,0.25362 l 3.92152,-0.37397 -1.67152,3.45158 c -1.86828,3.85787 -6.26776,6.21598 -13.52107,7.24723 -2.61065,0.37118 -12.38572,3.25108 -15.15045,4.46358 -1.1,0.48241 -3.35,1.20913 -5,1.61492 -2.10271,0.51713 -2.47658,0.86142 -1.25,1.15112 0.9625,0.22732 1.75,0.90532 1.75,1.50666 0,0.60134 -0.26057,0.83278 -0.57904,0.51431 -0.31847,-0.31848 -2.68097,0.12659 -5.25,0.98904 -5.26796,1.76849 -10.06694,5.73581 -7.96073,6.58112 0.70937,0.28471 0.27727,0.55317 -0.96023,0.59659 -1.25585,0.0441 -2.25,0.71564 -2.25,1.51993 0,2.13007 1.6883,2.7962 3.97933,1.57008 1.59418,-0.85318 2.02067,-0.77648 2.02067,0.3634 0,1.00518 -2.06192,1.79262 -6.77606,2.58777 -8.23762,1.38945 -11.37433,2.95776 -6.22394,3.11187 l 3.5,0.10473 -4.5,1.27763 c -11.56967,3.28481 -21.13451,7.54205 -16.95,7.54433 0.7975,4.3e-4 -0.575,0.98783 -3.05,2.19422 -2.475,1.20639 -4.725,2.44354 -5,2.74921 -1.88653,2.09698 -7.43604,4.93173 -12.75,6.51283 -5.83375,1.73575 -8.46069,3.70463 -4.5,3.37272 4.47446,-0.37497 7.25,0.25462 7.25,1.64455 0,1.54203 -4.84857,4.52568 -7.35444,4.52568 -0.79957,0 -5.3896,2.025 -10.20007,4.5 -4.81047,2.475 -9.54897,4.5 -10.52999,4.5 -2.34077,0 -13.9155,5.0326 -13.9155,6.05035 0,0.4339 -2.19198,1.51698 -4.87107,2.40683 -3.03359,1.00759 -7.16109,3.69025 -10.94177,7.11157 -5.39496,4.88215 -16.37128,12.78921 -37.32552,26.88834 -3.6511,2.45665 -8.32655,6.0588 -10.38988,8.00477 -2.06334,1.94598 -4.08729,3.53814 -4.49769,3.53814 -0.77034,0 -9.44544,5.76387 -16.47407,10.94564 -2.2,1.62192 -7.20319,5.15778 -11.1182,7.85746 -8.3875,5.7838 -12.35127,9.15707 -22.15215,18.85202 -3.99869,3.95548 -7.59869,7.33873 -8,7.51833 -1.61518,0.72286 -7.22965,7.99279 -7.22965,9.36135 0,0.95517 1.02488,1.4652 2.94424,1.4652 1.66916,0 4.15714,1.0433 5.74492,2.40905 l 2.80068,2.40904 -1.70651,6.84096 c -0.93858,3.76252 -1.82205,9.09095 -1.96328,11.84095 -0.25319,4.93038 -0.2067,5.01649 3.33882,6.18396 1.97757,0.65119 4.84154,2.33869 6.36438,3.75 1.52284,1.41132 3.72194,2.56604 4.88689,2.56604 1.16495,0 4.58039,0.9 7.58986,2 3.00947,1.1 7.90351,2 10.87564,2 3.99055,0 5.73825,0.45728 6.68236,1.74843 0.70316,0.96163 1.63974,1.38717 2.08128,0.94562 0.44154,-0.44154 0.14083,-1.22144 -0.66824,-1.73311 -0.93173,-0.58924 -1.02722,-0.93593 -0.26047,-0.94563 0.66582,-0.008 1.79082,0.70208 2.5,1.57888 7.49877,9.27117 10.94076,10.37543 33.98887,10.9044 10.38477,0.23834 19.33813,0.71561 19.89635,1.06061 0.55822,0.345 0.8714,1.37282 0.69595,2.28404 -0.27846,1.44628 -2.12941,1.66486 -14.56913,1.72053 -9.49422,0.0425 -14.64188,0.4555 -15.42389,1.23751 -1.18445,1.18445 -1.27352,7.5373 -0.20265,14.45363 l 0.58139,3.75492 2.66127,-1.86638 c 3.40539,-2.38823 9.21236,-3.64114 18.41127,-3.9724 3.63726,-0.13098 4.75,-0.54975 4.75,-1.78763 0,-1.19723 0.66725,-1.48902 2.57222,-1.12486 2.05888,0.39358 2.76349,-0.0113 3.5306,-2.029 l 0.95837,-2.5207 2.39538,2.25034 c 1.31745,1.23768 2.87869,1.95163 3.4694,1.58655 1.68737,-1.04285 1.25595,-3.68542 -0.6845,-4.19286 -1.81729,-0.47523 -6.79954,-8.12816 -5.88623,-9.04147 1.0405,-1.04049 20.65556,0.23046 25.11001,1.62699 1.66911,0.52329 4.83475,1.21178 7.03475,1.52997 2.2,0.31819 6.475,1.00893 9.5,1.53497 3.025,0.52605 8.0221,1.38729 11.10467,1.91387 3.08257,0.52658 8.44982,2.33563 11.92722,4.0201 3.47739,1.68447 7.75064,3.06268 9.4961,3.06268 3.92093,0 8.87105,1.65347 13.47201,4.5 1.925,1.19096 5.03494,2.69252 6.91098,3.33679 6.41397,2.2027 9.81655,5.66549 11.003,11.19771 1.57002,7.32076 1.34663,19.97539 -0.44212,25.04525 -0.84047,2.38217 -1.32594,4.85812 -1.07882,5.50212 0.54683,1.425 5.4875,0.68949 7.60696,-1.13244 2.47322,-2.12603 16.83066,-5.26108 27.5,-6.00484 5.5,-0.3834 17.32792,-0.7082 26.28427,-0.72178 8.95635,-0.0136 16.5113,-0.39204 16.78879,-0.84102 0.93086,-1.50617 23.60416,0.16474 31.42694,2.31601 4.125,1.13437 8.52978,2.2847 9.7884,2.55627 1.77915,0.38388 5.21792,4.63835 5.21035,6.44627 -6.9e-4,0.16481 -15.98631,0.36587 -35.52359,0.44679 -26.71343,0.11065 -35.8948,0.45625 -37.02431,1.39366 -1.01101,0.83906 -6.31512,1.33903 -16.22641,1.5295 -8.09844,0.15563 -17.87444,0.80979 -21.72444,1.45369 -3.85,0.6439 -8.8276,1.33849 -11.06133,1.54354 -9.5908,0.88042 -26.7496,4.39323 -38.93867,7.97167 -2.75,0.80734 -6.35,1.7129 -8,2.01235 -5.68882,1.03245 -7.00838,1.2926 -9.5,1.87292 -5.27694,1.22904 -22.25643,3.53509 -22.93609,3.11504 -0.39253,-0.2426 -3.19931,0.20799 -6.23728,1.00132 -4.90329,1.28042 -13.84371,1.84798 -46.32663,2.94091 -27.15859,0.91378 -43.32084,1.671 -54.5,2.55338 -17.12795,1.35193 -35.96093,1.94953 -58.5,1.85632 -10.45,-0.0432 -20.575,0.0186 -22.5,0.13749 -1.925,0.11884 -6.65,0.28039 -10.5,0.359 -3.85,0.0786 -7.675,0.46138 -8.5,0.8506 -0.825,0.38923 -2.175,0.3129 -3,-0.1696 z m 43,-9.4057 c 1.925,0.0819 4.85,0.2591 6.5,0.39379 3.57715,0.292 63.61442,-0.99973 71.5,-1.53836 3.025,-0.20663 11.125,-0.658 18,-1.00305 22.20205,-1.11431 44,-3.52807 44,-4.87228 0,-0.55649 -6.05355,-0.62222 -15.25,-0.1656 -19.76477,0.98136 -18.7884,0.97967 -22.15782,0.0385 -2.72708,-0.76176 -2.79289,-0.89628 -1.05887,-2.16423 1.38653,-1.01385 1.48852,-1.3741 0.40782,-1.44043 -2.9949,-0.1838 -22.1958,0.26002 -32.11745,0.74239 -5.67802,0.27605 -11.64407,0.45338 -13.25787,0.39407 -1.61381,-0.0593 -7.28455,0.37085 -12.60165,0.95593 -13.56616,1.49279 -73.53275,1.14841 -90.96416,-0.52238 -3.025,-0.28995 -18.325,-0.73078 -34,-0.97963 -15.675,-0.24884 -30.525,-0.66759 -33,-0.93054 -2.475,-0.26296 -14.175,-1.19316 -26,-2.06712 -11.825,-0.87396 -23.3,-2.06954 -25.5,-2.65686 -2.2,-0.58731 -9.625,-2.11953 -16.5,-3.40494 -6.875,-1.2854 -13.4,-2.55535 -14.5,-2.82211 -1.1,-0.26675 -5.589103,-1.24439 -9.975784,-2.17253 -4.386682,-0.92814 -10.461682,-2.80516 -13.5,-4.17116 -10.780367,-4.84675 -12.784134,-5.47415 -13.546028,-4.24138 -0.322223,0.52137 0.592486,2.12629 2.032689,3.5665 1.440202,1.4402 2.383549,3.23095 2.096326,3.97944 -0.774907,2.01937 1.939369,4.22714 6.687799,5.43978 2.312749,0.59063 5.554998,1.68298 7.204998,2.42745 3.608482,1.62814 16.714977,4.82413 20.958505,5.11069 1.672822,0.11296 7.766495,0.92952 13.541495,1.81457 36.77316,5.6357 67.88924,8.52479 93.5,8.68135 23.12231,0.14135 68.6266,1.8099 69.40888,2.54509 0.22489,0.21135 3.59989,0.0535 7.5,-0.35078 C 252.309,454.8451 257.075,454.58133 259,454.66322 Z M 396.99929,443.25 c -3.8e-4,-0.4125 -1.12538,-0.8149 -2.5,-0.89421 -1.37461,-0.0793 -2.49929,0.25818 -2.49929,0.75 0,0.49181 1.125,0.89421 2.5,0.89421 1.375,0 2.49968,-0.3375 2.49929,-0.75 z m 29.26974,-3.90594 c -0.67703,-0.27392 -2.02703,-0.29059 -3,-0.0371 -0.97297,0.25354 -0.41903,0.47766 1.23097,0.49804 1.65,0.0204 2.44606,-0.18706 1.76903,-0.46099 z m 17.50965,-2.54004 c 2.35327,-0.594 4.06574,-1.29293 3.8055,-1.55318 -0.74471,-0.7447 -17.53376,1.85856 -18.12172,2.8099 -0.6378,1.03198 8.38789,0.23968 14.31622,-1.25672 z M 472,433 c 1.2421,-0.80271 1.15614,-0.96937 -0.5,-0.96937 -1.1,0 -2.675,0.43621 -3.5,0.96937 -1.2421,0.80271 -1.15614,0.96937 0.5,0.96937 1.1,0 2.675,-0.43621 3.5,-0.96937 z m 6.5,-2 c 0.33992,-0.55 0.14148,-1 -0.44098,-1 -0.58246,0 -1.05902,0.45 -1.05902,1 0,0.55 0.19844,1 0.44098,1 0.24254,0 0.7191,-0.45 1.05902,-1 z m 129.5,0.55902 c 0,-0.24254 -0.45,-0.7191 -1,-1.05902 -0.55,-0.33992 -1,-0.14148 -1,0.44098 0,0.58246 0.45,1.05902 1,1.05902 0.55,0 1,-0.19844 1,-0.44098 z m -120.43189,-2.66923 c 0.38735,-0.62674 2.05617,-0.88789 3.83217,-0.59969 3.17374,0.51503 3.73433,-0.0238 6.28396,-6.0401 0.66017,-1.55777 -3.28235,-1.70929 -4.23808,-0.16288 -0.36953,0.59791 -1.54579,0.85858 -2.61391,0.57926 -1.38467,-0.3621 -2.20005,0.17079 -2.84107,1.85681 -0.49447,1.30056 -2.15727,3.04687 -3.69511,3.8807 l -2.79607,1.51603 2.69098,0.04 c 1.48004,0.022 2.99975,-0.45956 3.37713,-1.07017 z M 399.5,387 c 0.33992,-0.55 0.14148,-1 -0.44098,-1 -0.58246,0 -1.05902,0.45 -1.05902,1 0,0.55 0.19844,1 0.44098,1 0.24254,0 0.7191,-0.45 1.05902,-1 z m 5,0 c 0.33992,-0.55 -0.30852,-1 -1.44098,-1 -1.13246,0 -2.05902,0.45 -2.05902,1 0,0.55 0.64844,1 1.44098,1 0.79254,0 1.7191,-0.45 2.05902,-1 z m 27.22917,-1.60417 c -0.33229,-0.33229 -1.1948,-0.36781 -1.91667,-0.0789 -0.79773,0.31922 -0.56078,0.55618 0.60417,0.60416 1.05416,0.0434 1.64479,-0.19293 1.3125,-0.52522 z M 280.5,380 c -0.5406,-1.70328 -0.1797,-2 2.43261,-2 1.68707,0 3.06739,-0.40718 3.06739,-0.90484 0,-1.06883 -8.08935,-0.21858 -9.40762,0.9888 -1.14399,1.04777 1.12471,3.91604 3.09745,3.91604 0.98987,0 1.24503,-0.62989 0.81017,-2 z m 133.05385,-0.91287 C 412.77866,377.83285 410,377.60835 410,378.8 c 0,0.44 0.54,1.34 1.2,2 1.39799,1.39799 3.38351,-0.0468 2.35385,-1.71287 z M 220.5,377.31007 c 1.17894,-0.80026 2,-2.4768 2,-4.08383 0,-2.58375 0.2744,-2.74204 5.25,-3.0285 5.15258,-0.29665 7.58967,-2.19774 2.81739,-2.19774 -1.52582,0 -2.66119,-0.72019 -3.04581,-1.93201 -0.52793,-1.66336 -1.02045,-1.79004 -3.54188,-0.91107 -1.61078,0.56152 -4.3214,2.66843 -6.02362,4.68201 -1.70221,2.01359 -3.96369,4.6245 -5.02551,5.80202 -2.46219,2.7305 -2.42571,3.13982 0.31943,3.58406 2.65645,0.42989 4.52126,-0.0627 7.25,-1.91494 z m 212.5,1.13091 c 0,-0.85746 -0.45,-1.2809 -1,-0.94098 -0.55,0.33992 -1,1.04148 -1,1.55902 0,0.51754 0.45,0.94098 1,0.94098 0.55,0 1,-0.70156 1,-1.55902 z M 272,378 c 1.21296,-0.78387 1.06944,-0.9723 -0.75,-0.98469 C 270.0125,377.00689 269,377.45 269,378 c 0,1.25292 1.06124,1.25292 3,0 z m 17,-1 c 0,-0.55 -0.47656,-1 -1.05902,-1 -0.58246,0 -0.7809,0.45 -0.44098,1 0.33992,0.55 0.81648,1 1.05902,1 0.24254,0 0.44098,-0.45 0.44098,-1 z m 10.67121,-0.5 c 0.18687,-0.57049 -1.67443,-1 -4.33352,-1 -2.94947,0 -4.82312,0.48068 -5.10238,1.309 -0.33176,0.98405 0.744,1.23229 4.33352,1 2.62616,-0.16995 4.92223,-0.759 5.10238,-1.309 z m 7.95536,-0.7048 c 0.33416,-0.54067 -0.40618,-0.8168 -1.68725,-0.6293 -1.25547,0.18376 -2.45611,0.86119 -2.6681,1.50541 -0.45691,1.38856 3.44021,0.60462 4.35535,-0.87611 z m -37.8974,-2.39937 c -0.33229,-0.33229 -1.1948,-0.36781 -1.91667,-0.0789 -0.79773,0.31922 -0.56078,0.55618 0.60417,0.60416 1.05416,0.0434 1.64479,-0.19293 1.3125,-0.52522 z M 312,370.55902 c 0,-0.24254 -0.45,-0.7191 -1,-1.05902 -0.55,-0.33992 -1,-0.14148 -1,0.44098 0,0.58246 0.45,1.05902 1,1.05902 0.55,0 1,-0.19844 1,-0.44098 z m -32.43748,-7.9831 c 2.23438,-0.26744 6.28438,-1.46399 9,-2.65899 2.71561,-1.195 6.28748,-2.47112 7.93748,-2.83583 3.6556,-0.808 4.08163,-3.98278 0.75689,-5.64035 -5.14039,-2.56276 -8.49965,-7.49683 -10.16485,-14.9301 -0.56846,-2.53754 -1.26836,-3.08948 -4.63086,-3.65189 -4.23673,-0.70865 -7.15138,0.55284 -14.60508,6.32124 -2.00415,1.551 -4.19971,2.82 -4.87901,2.82 -0.67931,0 -4.29597,3.21007 -8.03702,7.1335 -8.01217,8.40276 -10.36922,8.7303 -9.783,1.35946 0.19654,-2.47113 0.11526,-4.49296 -0.18063,-4.49296 -0.29588,0 -1.04753,-1.35 -1.67034,-3 -1.16319,-3.08164 -0.56995,-3.86385 1.42068,-1.87322 1.57632,1.57632 5.51765,0.36098 7.09251,-2.18703 0.72561,-1.17398 1.11467,-2.33912 0.86458,-2.58921 -0.25009,-0.25009 -3.90488,-0.14206 -8.12176,0.24006 -7.53754,0.68304 -7.69873,0.7557 -9.54278,4.30209 -1.86069,3.57838 -8.44642,10.96041 -12.84221,14.39498 -1.68776,1.3187 -2.10968,2.36805 -1.60832,4 0.82405,2.68234 0.30491,2.3058 4.20203,3.04786 2.49176,0.47446 3.74225,0.15139 5.25,-1.35636 2.40186,-2.40186 3.35119,-2.46429 5.45661,-0.35888 1.19985,1.19985 3.80866,1.67101 10.05381,1.81572 4.63843,0.10748 8.63907,0.40097 8.89029,0.6522 0.55308,0.55308 19.45872,0.16785 25.14098,-0.51229 z M 262,331 c 0,-0.55 -0.19844,-1 -0.44098,-1 -0.24254,0 -0.7191,0.45 -1.05902,1 -0.33992,0.55 -0.14148,1 0.44098,1 0.58246,0 1.05902,-0.45 1.05902,-1 z m -30.0276,-6.53325 c -0.58218,-0.7015 -0.77949,-2.38719 -0.43845,-3.74599 0.60653,-2.41663 0.54325,-2.44651 -2.8996,-1.36891 -5.7526,1.80053 -5.63615,6.07196 0.24377,8.94127 2.32398,1.13407 2.70885,1.06183 3.38734,-0.63575 0.42874,-1.07269 0.29982,-2.47625 -0.29306,-3.19062 z m 58.41823,-0.87224 c 4.36607,-3.73737 4.18268,-4.9103 -1.11374,-7.12329 -3.15078,-1.31648 -3.85716,-1.32103 -5.81607,-0.0375 -2.07477,1.35945 -3.8883,7.80389 -2.7624,9.81629 1.02243,1.82745 6.07108,0.44422 9.69221,-2.65549 z M 253,315.39301 C 253,315.17686 252.07344,315 250.94098,315 c -1.13246,0 -1.79305,0.43035 -1.46797,0.95633 0.53361,0.8634 3.52699,0.38531 3.52699,-0.56332 z M 258,316 c 0,-0.55 -0.45,-1 -1,-1 -0.55,0 -1,0.45 -1,1 0,0.55 0.45,1 1,1 0.55,0 1,-0.45 1,-1 z m 82.75,-55.41357 c 1.7875,-0.90078 3.25,-2.07623 3.25,-2.61211 0,-0.53588 0.51846,-0.97432 1.15214,-0.97432 0.63367,0 2.99617,-1.35495 5.25,-3.01099 10.71019,-7.86955 28.36923,-20.45682 30.70988,-21.88984 1.43661,-0.87955 5.26161,-3.58724 8.5,-6.01709 3.23839,-2.42986 8.3692,-6.28271 11.40181,-8.5619 3.0326,-2.27918 7.63915,-5.20541 10.23677,-6.50273 2.59762,-1.29731 4.97154,-3.14201 5.27538,-4.09932 0.79156,-2.49396 7.05983,-7.0143 8.80042,-6.34637 0.9452,0.3627 2.48797,-0.86644 4.32176,-3.44319 1.56851,-2.20399 6.90184,-7.15066 11.85184,-10.99259 8.2003,-6.36464 15.74863,-12.7124 12.95521,-10.89466 -0.62657,0.40773 -1.42851,0.45205 -1.78207,0.0985 -0.35356,-0.35356 -1.82899,0.54332 -3.27874,1.99306 -1.44975,1.44975 -3.01524,2.40147 -3.47887,2.11493 -1.14437,-0.70726 -25.4289,16.99325 -47.35118,34.51334 -11.90257,9.51241 -18.87744,14.69226 -31.98579,23.75407 -3.80679,2.63163 -8.11601,6.03687 -9.57604,7.56719 -1.46003,1.53032 -4.58681,3.81588 -6.94841,5.07903 C 345.43976,252.8295 328,267.7467 328,269.22554 c 0,0.49143 2.1375,-0.88283 4.75,-3.0539 2.6125,-2.17108 6.2125,-4.68442 8,-5.58521 z m 131.63571,-98.52816 c 3.63015,-1.85076 6.51391,-4.63542 6.58249,-6.35631 0.0391,-0.982 -8.08395,4.52766 -9.89816,6.71365 -1.69127,2.03785 -1.29956,1.99563 3.31567,-0.35734 z m 31.58626,-2.70098 c 1.23328,-0.38949 1.24822,-0.60317 0.0921,-1.3177 C 502.63885,157.15877 498,158.7096 498,160.0669 c 0,0.69177 2.46044,0.39941 5.97197,-0.70961 z M 488.21479,151 c 0.97338,0 3.01075,-1.3954 4.5275,-3.10089 1.51674,-1.70549 4.63203,-4.20087 6.92286,-5.5453 4.25767,-2.4987 7.28987,-5.35381 5.68588,-5.35381 -0.49162,0 -4.03422,2.29345 -7.87244,5.09655 -3.83823,2.8031 -8.89109,6.22086 -11.22859,7.59502 -2.3375,1.37416 -4.25,2.93123 -4.25,3.46016 0,0.52892 1.00013,0.26116 2.22251,-0.59503 1.22237,-0.85618 3.0189,-1.5567 3.99228,-1.5567 z m 27.12156,-19.64392 c 4.61619,-3.71548 2.89256,-3.49421 -2.83635,0.36412 -3.025,2.03728 -5.5,4.10286 -5.5,4.59018 0,0.93675 3.88789,-1.37382 8.33635,-4.9543 z m 36.69218,-0.33029 3.47147,-2.21419 -3.5,0.50856 c -1.925,0.27971 -5.525,1.4256 -8,2.54643 l -4.5,2.03788 4.52853,-0.33225 c 2.49069,-0.18273 6.09069,-1.32863 8,-2.54643 z m -29.90097,-4.68951 c 1.24448,-1.5086 1.16266,-1.55194 -0.87756,-0.46482 -2.32696,1.23991 -2.89993,2.12854 -1.37244,2.12854 0.48265,0 1.49515,-0.74867 2.25,-1.66372 z M 553.5,123 c 0.78687,-1.27319 -1.52988,-1.27319 -3.5,0 -1.21948,0.78809 -1.09025,0.97224 0.69098,0.98469 1.20504,0.008 2.4691,-0.43469 2.80902,-0.98469 z M 570,96 c 0,-0.55 -0.45,-1 -1,-1 -0.55,0 -1,0.45 -1,1 0,0.55 0.45,1 1,1 0.55,0 1,-0.45 1,-1 z m 43,-14.995462 c 2.13412,-0.600181 3.93592,-1.93172 4.61702,-3.41201 1.29699,-2.818844 0.65253,-2.752295 -6.36702,0.657462 -6.52867,3.171315 -5.49838,4.793017 1.75,2.754548 z M 632,77 c 1.29269,-0.835399 1.26629,-0.971491 -0.19098,-0.984687 C 630.87898,76.006891 629.83992,76.45 629.5,77 c -0.78218,1.265597 0.54163,1.265597 2.5,0 z m 21.5,-10.893089 c 2.2,-0.395991 4.9,-1.243358 6,-1.883039 1.84572,-1.073336 1.76858,-1.167967 -1,-1.226733 l -3,-0.06368 2.25,-1.877023 c 5.34895,-4.462265 -0.16243,-3.492957 -5.94136,1.044932 -2.03025,1.594246 -4.84275,2.89863 -6.25,2.89863 -2.66816,0 -3.47082,1.4482 -1.30864,2.361097 0.6875,0.29027 2.15,0.288821 3.25,-0.0032 1.1,-0.292041 3.8,-0.854975 6,-1.250966 z M 224.75,433.61802 c -0.9625,-0.73618 -1.75,-1.56153 -1.75,-1.83411 0,-0.80908 25.40008,-0.27272 26.75551,0.56499 3.04192,1.88001 0.43084,2.48344 -11.00551,2.5434 -8.7775,0.046 -12.74607,-0.3152 -14,-1.27428 z m 30.25,0.36667 c -1.33333,-0.87528 -1.33333,-1.0941 0,-1.96938 1.81537,-1.19171 4.69911,-1.31118 5.37192,-0.22254 0.26948,0.43602 4.12104,0.63831 8.55902,0.44953 6.77013,-0.28797 8.06906,-0.0936 8.06906,1.20724 0,1.30077 -1.6507,1.54799 -10.25,1.53515 -5.6375,-0.008 -10.925,-0.45842 -11.75,-1 z m -86.25,-1.76372 c -12.17498,-0.26644 -14.29153,-0.80492 -11.5,-2.92576 0.98824,-0.75081 30.93366,-0.96537 52,-0.37259 1.69996,0.0478 2.75,0.631 2.75,1.52727 0,1.19002 -2.73335,1.50368 -15.25,1.75 -8.3875,0.16506 -20.9875,0.17455 -28,0.0211 z m -45.11842,-7.92547 c -0.11398,-0.11247 -5.7091,-0.36635 -12.43359,-0.56418 -19.175324,-0.56412 -17.011628,-2.134 5.05292,-3.66617 22.78297,-1.58206 45.74507,-1.91693 47.49909,-0.69271 0.6875,0.47985 1.25,1.71735 1.25,2.75 0,1.68849 -0.88113,1.88444 -8.75,1.94586 -4.8125,0.0376 -14.07377,0.15006 -20.58059,0.25 -6.50682,0.0999 -11.92385,0.0897 -12.03783,-0.0228 z m -31.854119,-7.48627 c -1.802604,-0.37993 -4.964835,-0.53519 -7.027182,-0.34504 -5.188231,0.47836 -5.679575,-1.13687 -0.749644,-2.46436 5.707117,-1.53677 32.782275,-0.96633 34.181945,0.72017 0.58427,0.704 0.89471,1.3147 0.68986,1.35711 -0.71817,0.14869 -14.41988,1.02691 -19.094979,1.2239 -2.597397,0.10944 -6.197397,-0.11186 -8,-0.49178 z M 69,404.5 c 0,-2.47119 1.354948,-3.35273 2.444227,-1.59024 C 72.166987,404.07921 71.059283,407 69.893011,407 69.401855,407 69,405.875 69,404.5 Z m -12,-1.39301 c 0,-2.33905 2.774161,-3.53931 4.626748,-2.0018 C 64.020106,403.0915 63.222982,405 60,405 c -2.276816,0 -3,-0.45633 -3,-1.89301 z m 19.75,1.20368 c -3.508897,-0.91697 -0.824713,-3.51908 3.75,-3.63533 4.223931,-0.10735 8.5,1.30107 8.5,2.79966 0,1.18775 -1.161038,1.49935 -5.25,1.409 -2.8875,-0.0638 -6.0375,-0.3218 -7,-0.57333 z M 488,172 c 0,-0.55 0.92656,-1 2.05902,-1 1.13246,0 1.7809,0.45 1.44098,1 -0.33992,0.55 -1.26648,1 -2.05902,1 C 488.64844,173 488,172.55 488,172 Z M 615.02896,87.03906 c -2.19838,-1.390302 -0.89043,-2.050236 5.08543,-2.565882 4.76546,-0.411203 5.01137,-0.34676 2.13561,0.559646 -1.7875,0.563398 -3.25,1.461493 -3.25,1.995768 0,1.223738 -2.04406,1.229126 -3.97104,0.01047 z M 643,73.861328 C 643,73.387598 644.125,73 645.5,73 c 1.375,0 2.5,0.17254 2.5,0.383423 0,0.210882 -1.125,0.59848 -2.5,0.861328 -1.375,0.262848 -2.5,0.09031 -2.5,-0.383423 z" id="path12" style="fill:#000000" inkscape:connector-curvature="0"/>
</svg>
