<?xml version="1.0" encoding="utf-8"?>
<svg xmlns="http://www.w3.org/2000/svg" version="1.1" viewBox="0 0 70 101">
	<title/>
	<path d="M 27.5,94.270091 C 23.45969,93.690651 20.330359,90.574502 19.53587,86.33951 18.712061,81.948232 20.225917,80 24.46193,80 c 2.472505,0 3.484217,0.58639 4.371478,2.533717 1.203432,2.641244 1.26193,2.575957 -3.626532,4.04738 -2.171859,0.653729 0.396984,4.110022 3.49486,4.702218 1.519293,0.290431 3.966438,-0.0946 5.438102,-0.855628 2.398633,-1.240381 2.619881,-1.800229 2.136287,-5.405686 -0.59194,-4.413243 1.176351,-5.676321 2.591417,-1.851032 1.238452,3.347854 2.347887,0.547645 2.272825,-5.736595 -0.03564,-2.983557 -0.634408,-6.439337 -1.330601,-7.679512 L 38.54396,67.5 38.202429,69.75 C 37.627137,73.540013 36,72.247127 36,68 c 0,-2.2 -0.4419,-4 -0.982,-4 -0.540101,0 -0.930557,2.283372 -0.867682,5.07416 0.08536,3.788634 0.587491,5.369662 1.982,6.240547 4.15737,2.596321 0.974928,3.347058 -8.6159,2.032489 l -4.762724,-0.652804 2.336,-1.762048 c 2.102719,-1.586085 2.33971,-2.567582 2.373153,-9.82842 0.03771,-8.188333 -1.693913,-11.860455 -2.274975,-4.824354 -0.239192,2.896379 -0.706541,3.714241 -2,3.5 -1.225611,-0.203004 -1.769264,0.551136 -1.98506,2.75362 -0.194848,1.988674 -1.055753,3.366122 -2.5,4 -1.345025,0.590329 -2.326043,2.037825 -2.519271,3.717194 -0.321446,2.793721 -3.58817,5.521964 -4.617546,3.856398 -0.30546,-0.494244 0.12822,-2.182961 0.963733,-3.752704 1.07865,-2.026543 1.470836,-5.449879 1.352607,-11.806716 -0.110737,-5.953991 0.215852,-9.080091 0.975052,-9.333158 0.627859,-0.209286 1.414943,0.331901 1.749076,1.202638 C 16.940596,55.287579 17.615833,56 18.106989,56 19.750308,56 19.023393,50.773918 16.90282,47.34276 10.20924,36.51232 10.684008,22.315992 17.983922,15.016078 26.464475,6.5355249 40.392877,8.1239132 45.584626,18.163649 46.452812,19.842535 47.866453,21 49.048733,21 50.939877,21 50.960519,20.869378 49.436857,18.543976 47.347961,15.355917 48.289225,14 52.591241,14 c 2.687363,0 3.662445,0.509083 4.309582,2.25 1.130167,3.040356 0.402492,4.541789 -3.071983,6.33851 -3.104699,1.605502 -6.191942,1.171198 -8.968161,-1.261615 -1.446997,-1.268009 -1.972964,-1.127335 -4.483193,1.199067 -2.528614,2.34344 -3.400009,2.571029 -7.860679,2.053029 -8.299005,-0.963729 -9.550544,-0.858435 -11.57519,0.973845 C 19.330019,27.011312 19,27.055018 19,25.809975 19,23.405304 22.397225,21 25.793557,21 27.906177,21 29.278946,20.347302 30,19 c 0.637751,-1.191648 2.093823,-2 3.602571,-2 2.077129,0 2.418126,0.35943 1.897429,2 -0.492629,1.552137 -0.1797,2 1.397429,2 3.25111,0 4.441949,-3.359318 2.180739,-6.151795 -1.625071,-2.006877 -2.697261,-2.310412 -7.580064,-2.145901 -6.393568,0.215411 -9.136802,1.646381 -13.08864,6.827507 -2.863261,3.753929 -3.979652,10.008686 -2.181141,12.220189 0.695757,0.855523 0.65556,1.684986 -0.127374,2.628363 -0.801984,0.966332 -0.845985,2.162044 -0.147195,4 C 17.296555,41.910198 19,41.698619 19,38 19,34.264052 19.418612,34.264766 23.160939,38.0071 26.707502,41.553656 28,41.141511 28,36.464036 c 0,-2.542309 -0.640462,-3.837577 -2.5,-5.055993 -3.61993,-2.37187 -3.084409,-3.261281 1.75,-2.906456 2.3375,0.171563 7.496842,0.35389 11.465204,0.405173 6.547364,0.08461 7.535882,0.374799 10.67975,3.135152 4.072015,3.575276 5.133717,7.281037 3.657108,12.764746 -0.841346,3.12452 -1.857126,4.347487 -4.751912,5.721153 l -3.681821,1.747138 2.57807,2.217563 C 51.394693,58.103733 52.547847,61.094753 52.88598,69.25 52.948691,70.7625 53.9,72.9 55,74 c 3.210669,3.210669 2.528924,4.263179 -2.25,3.473657 -2.3375,-0.386176 -4.393245,-0.831475 -4.568322,-0.989553 -0.175077,-0.158078 -0.740933,-3.59417 -1.257458,-7.63576 -1.085489,-8.493497 -3.256424,-13.440449 -6.240726,-14.220861 -2.606373,-0.681582 -2.581896,-0.709316 -3.036166,3.440204 -0.262585,2.398576 0.520595,5.131148 2.616744,9.130013 3.576995,6.823903 3.932468,14.045847 0.957357,19.450081 -1.023583,1.859321 -0.853966,2.36297 1.26291,3.75 3.285447,2.152708 6.827277,2.020356 8.958635,-0.334768 1.934752,-2.137877 1.287651,-4.271215 -1.164638,-3.839533 -2.740917,0.48249 -2.546852,-2.144013 0.252661,-3.419557 2.333595,-1.063257 2.871468,-0.974004 4.07855,0.676779 3.075629,4.206172 1.042501,8.944049 -4.558156,10.622047 -3.382765,1.013501 -4.45259,0.907759 -7.856946,-0.776582 -3.811948,-1.886002 -4.014224,-1.89052 -6.178491,-0.138002 C 33.781211,94.99775 33.140971,95.07909 27.5,94.270091 Z M 18.533468,64.044611 C 18.515061,62.373675 18.05,61.117573 17.5,61.253273 c -1.025082,0.252915 -1.563277,5.564828 -0.719715,7.10349 0.777291,1.417783 1.788896,-1.070374 1.753183,-4.312152 z m 4.908427,-9.227684 c -0.608369,-1.916802 -0.779378,-1.965263 -1.621966,-0.459641 -0.518042,0.92569 -0.635863,2.647294 -0.261824,3.825787 0.608369,1.916802 0.779378,1.965263 1.621966,0.459641 0.518042,-0.92569 0.635863,-2.647294 0.261824,-3.825787 z m 4.367443,-7.584166 c -0.170136,-2.053019 -0.741977,-3.625343 -1.270759,-3.494055 -1.149811,0.285481 -1.645825,4.781243 -0.909904,8.24716 0.469296,2.210209 0.636619,2.291464 1.508913,0.732761 0.539598,-0.964208 0.841885,-3.432847 0.67175,-5.485866 z M 23,48.440983 c 0,-0.857459 -0.45734,-1.276365 -1.016312,-0.930902 -0.558971,0.345464 -0.757414,1.047021 -0.440983,1.559017 C 22.399945,50.456142 23,50.197509 23,48.440983 Z m 22.75,-2.095934 c 2.401361,-2.621834 2.823448,-5.706567 1.321408,-9.657231 -1.011205,-2.659672 -4.855719,-4.371475 -9.565665,-4.259197 L 34.511485,32.5 l -0.28106,7.175336 c -0.303389,7.745379 1.130357,10.723579 2.135723,4.43636 0.686658,-4.294121 2.628151,-6.452025 5.335813,-5.930577 C 44.494388,38.718892 43.906169,41.5 41,41.5 c -2.229502,0 -2.53345,0.463515 -2.809154,4.283899 -0.305122,4.228025 -0.272516,4.275641 2.5,3.650812 C 42.235881,49.086514 44.5125,47.696165 45.75,46.345049 Z"/>
</svg>
