<?xml version="1.0" encoding="utf-8"?>
<svg xmlns="http://www.w3.org/2000/svg" version="1.1" viewBox="0 0 1213 334">
	<path d="m 147.69734,314.79451 c -1.37931,-2.84796 -1.38792,-3.5993 -0.0772,-6.73635 0.81141,-1.94198 2.30209,-4.43701 3.31262,-5.54451 1.01054,-1.10751 2.1656,-3.13865 2.56681,-4.51365 0.40121,-1.375 2.47793,-4.84319 4.61493,-7.70709 2.13701,-2.8639 3.88547,-5.57844 3.88547,-6.03231 0,-1.9395 9.45394,-10.31178 11.33996,-10.04251 1.30949,0.18695 2.51861,-0.69266 3.58951,-2.61128 0.88818,-1.59125 2.97187,-3.62095 4.63043,-4.51045 1.65856,-0.88949 4.29677,-2.62506 5.86269,-3.85681 C 188.98851,262.0078 190.79918,261 191.4463,261 c 0.64712,0 2.04893,-0.81022 3.11514,-1.80049 1.06621,-0.99027 2.72606,-2.10115 3.68856,-2.46861 1.45361,-0.55497 1.75,-1.94963 1.75,-8.2347 0,-5.11505 0.49682,-8.32482 1.53344,-9.9069 0.8434,-1.28718 1.72835,-3.35237 1.96656,-4.5893 0.23821,-1.23693 1.12316,-3.30212 1.96656,-4.5893 2.61884,-3.99686 2.01467,-4.6243 -3.71656,-3.85965 -2.8875,0.38524 -6.825,0.85061 -8.75,1.03416 -1.925,0.18355 -7.55,0.81214 -12.5,1.39688 -4.95,0.58474 -14.85,1.50456 -22,2.04404 -29.61392,2.23443 -41.93357,4.39588 -51.25201,8.99203 -4.76095,2.34825 -8.114238,3.46693 -8.69799,2.9017 -1.762957,-1.70702 -3.024595,-0.94148 -12.493304,7.58076 C 80.862878,254.17528 76.074162,258 75.415104,258 c -0.659059,0 -1.479694,1.12121 -1.823635,2.49158 -0.343941,1.37037 -7.142724,8.9482 -15.108408,16.83963 C 50.517377,285.22264 44,292.38077 44,293.23817 c 0,2.20405 -14.60426,7.50123 -16.822726,6.10185 -2.26362,-1.42785 -4.795376,-6.28462 -5.390776,-10.34134 -0.678546,-4.62323 2.864048,-14.53821 6.977487,-19.52852 C 30.543793,267.31094 32,265.00906 32,264.35486 c 0,-0.65419 2.042265,-1.96939 4.538368,-2.92266 3.952429,-1.50945 5.214602,-1.57099 9.776132,-0.4767 5.333789,1.27956 7.6855,3.80212 7.6855,8.24386 0,2.37722 1.216477,2.28491 2.774938,-0.21059 3.19431,-5.1149 15.690693,-18.14754 20.206667,-21.07379 2.760117,-1.7885 5.023178,-3.73852 5.029023,-4.33339 C 82.016474,242.98671 83.811691,240.25 86,237.5 c 2.188309,-2.75 3.983526,-5.71562 3.989372,-6.59028 0.0058,-0.87465 1.304814,-4.24965 2.886597,-7.5 1.581782,-3.25034 3.385532,-8.59094 4.008332,-11.86799 0.622801,-3.27705 2.207876,-7.55205 3.522389,-9.5 C 103.67682,197.1958 108,188.78643 108,187.27138 c 0,-0.6845 1.4625,-1.87016 3.25,-2.6348 1.7875,-0.76464 4.57169,-2.79568 6.18709,-4.51342 1.6154,-1.71774 3.95134,-3.12316 5.19098,-3.12316 1.23964,0 2.53201,-0.45 2.87193,-1 0.33992,-0.55 1.40148,-1 2.35902,-1 0.95754,0 2.263,-0.52202 2.90101,-1.16003 1.47429,-1.47429 6.07925,-1.69936 13.89316,-0.67901 3.38425,0.44192 9.45925,1.04793 13.5,1.34671 4.04075,0.29877 8.06314,0.7645 8.93866,1.03497 0.87552,0.27046 4.02552,0.69075 7,0.93398 2.97448,0.24323 7.74493,1.0629 10.601,1.8215 2.85607,0.75859 7.80607,1.33935 11,1.29057 5.79966,-0.0886 5.80755,-0.0929 6.12051,-3.33869 0.17235,-1.7875 -0.14197,-3.25 -0.69848,-3.25 -1.6572,0 -5.70083,-4.25032 -7.61099,-8 -0.98062,-1.925 -2.06929,-3.725 -2.41926,-4 -1.78618,-1.40355 -7.08817,-8.96633 -7.11153,-10.1439 -0.0148,-0.74586 -1.32236,-2.91864 -2.90569,-4.82842 -2.72847,-3.29101 -3.22496,-3.47884 -9.50858,-3.5971 -3.64638,-0.0686 -6.85324,0.23676 -7.12634,0.67865 -0.27309,0.44188 -1.13309,0.55916 -1.91109,0.26061 -0.77801,-0.29855 -3.87035,0.1711 -6.87189,1.04367 -3.00153,0.87257 -6.34547,1.58649 -7.43097,1.58649 -1.08551,0 -2.49478,0.62793 -3.13172,1.39539 -0.63694,0.76747 -2.82954,1.70826 -4.87245,2.09065 -4.82338,0.90283 -15.38122,4.18837 -21.71437,6.75739 -12.80705,5.19514 -16.35546,5.91323 -26.892132,5.44213 -7.956328,-0.35572 -10.86433,-0.90185 -13.612784,-2.55652 C 76.072788,157.97176 73.6,156.61918 72.5,156.12331 69.710806,154.86598 65,150.33639 65,148.91182 c 0,-0.84164 1.372518,-0.98558 4.75,-0.49814 2.6125,0.37705 6.775,0.93871 9.25,1.24814 2.475,0.30943 5.175,1.12706 6,1.81695 2.52866,2.11455 16.31295,2.73076 21.52232,0.96213 2.48497,-0.84367 4.9128,-1.29001 5.39519,-0.99188 1.80636,1.11639 7.35139,-0.76128 7.84719,-2.65723 0.27398,-1.0477 1.06234,-1.6884 1.75192,-1.42379 0.68958,0.26462 2.09294,-0.0944 3.11858,-0.79792 1.02564,-0.70348 2.9898,-1.52669 4.3648,-1.82937 1.375,-0.30267 5.875,-1.98271 10,-3.73342 6.63244,-2.81491 8.21036,-3.11318 13.64102,-2.57852 3.83432,0.3775 7.21491,0.15925 9,-0.58104 3.49904,-1.45107 15.42865,-1.93086 17.00372,-0.68386 0.62961,0.49847 1.52961,0.77905 2,0.62352 2.06048,-0.68129 9.35303,5.97454 11.4635,10.46261 1.2285,2.6125 2.8842,4.75 3.67933,4.75 0.93069,0 1.26775,0.68045 0.94618,1.91014 -0.33875,1.29539 1.6879,4.78725 6.29726,10.85 3.73822,4.91693 6.72302,9.79487 6.63288,10.83986 -0.1059,1.22776 0.39826,1.80913 1.42494,1.64317 0.87386,-0.14125 2.40467,0.64466 3.4018,1.74647 1.15324,1.27432 2.21258,1.6749 2.91116,1.10083 1.28072,-1.05244 7.20688,-2.34106 10.09821,-2.19581 18.54392,0.93157 23.5,0.1072 23.5,-3.90888 0,-2.28805 1.29576,-3.19325 3.40976,-2.38204 1.89321,0.7265 2.10667,3.04023 0.34024,3.68793 -0.83963,0.30786 -0.9217,0.80424 -0.25,1.51198 0.67513,0.71135 2.62433,0.75085 6,0.12157 7.87817,-1.46862 8.2855,-1.76996 5.16213,-3.81887 -1.50949,-0.9902 -5.3889,-4.35824 -8.62092,-7.48452 l -5.87641,-5.68415 -0.71089,-7.71884 c -0.43699,-4.74487 -1.38697,-8.68206 -2.46563,-10.21884 -0.96512,-1.375 -1.9198,-3.33778 -2.12152,-4.36173 -0.42906,-2.17796 -4.42575,-2.75045 -18.23912,-2.61258 -6.22568,0.0621 -9.58163,0.55328 -11.25,1.64644 -1.3077,0.85684 -2.37764,1.2653 -2.37764,0.9077 0,-0.35761 -0.85502,-0.19261 -1.90004,0.36667 -1.44815,0.77503 -2.03938,0.65374 -2.48594,-0.50997 C 208.78955,136.28799 202.80958,134 198.01855,134 c -2.22513,0 -4.82708,-0.42526 -5.78212,-0.94501 -0.95504,-0.51976 -6.91143,-1.67624 -13.23643,-2.56994 -6.325,-0.89371 -13.975,-2.53185 -17,-3.6403 -6.89578,-2.52683 -23.66631,-3.24931 -27.63466,-1.19051 -3.21392,1.6674 -6.58355,1.72755 -8.16534,0.14576 -1.97889,-1.97889 -1.38048,-2.7994 2.05,-2.81082 1.7875,-0.006 5.34639,-0.64706 7.90866,-1.42468 2.56226,-0.77762 4.85538,-1.21712 5.09583,-0.97667 0.24045,0.24045 4.96423,-0.0553 10.49729,-0.65724 10.56292,-1.14913 17.80198,-0.1343 25.66786,3.5983 1.74867,0.8298 4.05712,1.68304 5.12988,1.89609 5.52767,1.09779 8.18124,1.95849 10.45048,3.38967 2.04799,1.29163 6.11612,1.59171 22.5,1.65964 17.31603,0.0718 20.3355,-0.14653 22.5,-1.62687 2.01547,-1.37841 3.8964,-1.6008 9.70488,-1.14747 6.97308,0.54424 7.28962,0.68462 9.83894,4.36328 1.66457,2.40198 2.41019,4.5063 2.02582,5.71735 -0.33453,1.05402 0.0727,3.22208 0.9049,4.81791 0.83223,1.59583 1.51591,3.52722 1.5193,4.29198 0.0123,2.7727 4.37884,10.10953 6.01675,10.10953 2.44311,0 3.13621,1.11819 1.73764,2.80336 -1.0079,1.21444 -0.87426,1.69008 0.72828,2.59201 1.07948,0.60755 3.16941,2.34213 4.6443,3.85463 1.47488,1.5125 3.34597,2.75 4.15796,2.75 0.81199,0 1.98574,0.61379 2.60834,1.36398 1.30766,1.57563 6.34674,0.86566 12.30939,-1.73429 2.40613,-1.04917 3.91736,-1.25447 4.32918,-0.58813 0.39466,0.63857 1.94197,0.2145 4.11295,-1.12724 2.7017,-1.66974 4.36608,-2.00928 7.43992,-1.51775 3.57778,0.57211 4.05151,0.39154 4.91228,-1.87245 0.74198,-1.95156 0.48342,-3.30089 -1.16932,-6.10206 -1.16707,-1.97804 -2.47276,-5.2447 -2.90152,-7.25925 -0.42877,-2.01454 -1.33004,-5.63099 -2.00283,-8.03655 -2.15457,-7.70366 2.58311,-17.48503 10.28357,-21.23139 C 325.46751,117.84601 330.07256,116 331.41148,116 c 0.739,0 1.95462,-0.7362 2.7014,-1.63601 1.55343,-1.87178 10.22257,-7.67125 15.38712,-10.29365 1.1,-0.55855 3.51705,-2.34369 5.37123,-3.96698 3.1874,-2.790488 3.38569,-3.35091 3.63631,-10.277394 C 358.81194,81.413298 359.83225,76 361.1135,76 361.60107,76 362,75.369021 362,74.597825 c 0,-0.771196 1.35,-1.872787 3,-2.44798 3.6132,-1.259568 3.77399,-0.450947 1.08693,5.466151 -4.0675,8.9569 -3.57866,12.875734 1.0311,8.26597 3.38969,-3.389683 3.80441,-0.650321 1.24127,8.199018 -1.74987,6.041546 -3.10611,8.713866 -5.55974,10.954906 -1.78491,1.63026 -3.72847,2.96411 -4.31903,2.96411 -1.40029,0 -4.89344,2.58884 -9.78248,7.25 -2.16334,2.0625 -4.07046,3.75 -4.23805,3.75 -0.16758,0 -3.60214,2.24686 -7.63235,4.99301 -4.03021,2.74616 -7.82101,4.99616 -8.42401,5 -2.35662,0.015 -7.4123,3.24165 -7.56831,4.83023 -0.71873,7.31872 -0.26944,12.02202 1.44452,15.12162 1.04768,1.89468 2.15539,5.87204 2.46156,8.83858 0.62711,6.0761 1.81594,7.05213 6.59661,5.41583 5.13339,-1.75703 12.8922,-4.24378 16.84825,-5.39997 4.07486,-1.19092 5.26497,-3.26126 6.28536,-10.93413 0.36404,-2.73742 1.43156,-5.37257 2.60764,-6.43691 1.0952,-0.99114 1.75856,-2.40848 1.47415,-3.14965 -0.28442,-0.74118 1.04425,-3.01957 2.9526,-5.0631 2.65579,-2.84392 3.67501,-3.40178 4.34488,-2.37812 0.71303,1.08964 1.68984,0.96626 5.27293,-0.66602 2.41877,-1.10188 6.30084,-2.28726 8.62682,-2.63418 6.02171,-0.89813 10.70719,-3.06213 16.43757,-7.59173 2.74525,-2.17 5.44133,-3.94546 5.99129,-3.94546 1.23188,0 4.74168,-4.09798 4.78722,-5.58948 0.0395,-1.29235 4.3608,-3.41052 6.95788,-3.41052 1.00677,0 2.3907,-0.675 3.07539,-1.5 0.68469,-0.825 1.61568,-1.5 2.06887,-1.5 0.45319,0 3.53258,-1.58747 6.84309,-3.527703 4.42895,-2.595737 6.68867,-3.359652 8.55357,-2.891592 1.5334,0.384859 2.53447,0.212207 2.53447,-0.437113 0,-1.416118 2.92427,-2.925551 7.08934,-3.659332 1.85064,-0.326037 4.34719,-1.130874 5.54789,-1.788527 10.57062,-5.789819 12.2665,-7.119913 14.42238,-11.31163 1.24808,-2.426676 2.87025,-4.910931 3.60482,-5.520565 C 468.39899,73.253903 469,72.117186 469,71.3375 c 0,-0.779686 1.87325,-3.199586 4.16277,-5.377555 C 476.30656,62.969329 478.14243,62 480.66277,62 482.49825,62 484,62.155863 484,62.346362 c 0,2.291272 -6.05323,11.132826 -12.13176,17.720073 -1.30253,1.41154 -4.03484,4.427199 -6.07179,6.701464 -5.80111,6.476973 -12.07274,10.417224 -24.29645,15.264651 -1.1,0.43621 -6.38102,2.85734 -11.73559,5.38028 -5.35458,2.52294 -10.12737,4.58717 -10.6062,4.58717 -0.47883,0 -2.85842,1.4625 -5.28797,3.25 -6.1816,4.548 -8.0765,5.51047 -12.47267,6.33519 -2.73804,0.51366 -5.24569,2.13385 -8.68998,5.61457 -3.47363,3.51038 -5.3645,4.72652 -6.69317,4.30482 -1.03346,-0.32801 -4.18009,0.53544 -7.12028,1.95384 -2.89764,1.39787 -5.8203,2.54158 -6.49478,2.54158 -1.56022,0 -7.5091,8.01342 -6.80029,9.1603 0.292,0.47246 -0.39834,2.04035 -1.53409,3.48421 -3.18987,4.05527 -2.75126,6.10729 1.18502,5.54415 1.7875,-0.25573 3.53806,-0.91186 3.89014,-1.45807 0.35208,-0.54622 1.70208,-1.10162 3,-1.23423 1.29792,-0.13261 2.69736,-0.29854 3.10986,-0.36874 0.4125,-0.0702 0.75,-1.25262 0.75,-2.62762 0,-1.375 0.47656,-2.5 1.05902,-2.5 0.58246,0 0.76037,-0.48322 0.39535,-1.07382 -0.36501,-0.59061 0.28461,-0.48163 1.4436,0.24217 2.13339,1.33233 2.29615,3.54145 0.22703,3.08165 -0.61875,-0.1375 -1.125,0.425 -1.125,1.25 0,0.825 0.675,1.5 1.5,1.5 0.825,0 1.5,-0.50248 1.5,-1.11663 0,-0.62412 0.8817,-0.88606 1.999,-0.59388 1.09946,0.28751 2.25101,0.115 2.55902,-0.38337 0.30801,-0.49837 1.3836,-0.90612 2.39021,-0.90612 1.00661,0 2.87799,-0.84845 4.15862,-1.88544 1.87059,-1.51471 3.42247,-1.78623 7.89252,-1.3809 4.93919,0.44787 5.91368,0.21038 8.67672,-2.11456 1.71194,-1.44051 3.62428,-2.6191 4.24965,-2.6191 0.62537,0 1.39605,-0.675 1.71263,-1.5 0.31659,-0.825 0.96334,-1.5 1.43723,-1.5 0.4739,0 0.60261,0.675 0.28603,1.5 -0.32536,0.84787 -0.0237,1.5 0.69383,1.5 1.51976,0 10.94454,-5.92192 10.94454,-6.87684 0,-0.67587 4.20772,-2.93714 9.25,-4.97102 1.5125,-0.6101 2.75,-1.84205 2.75,-2.73769 0,-0.98964 0.55252,-1.41641 1.40851,-1.08793 1.47896,0.56753 8.82178,-4.51574 14.65375,-10.14445 1.89076,-1.82486 7.03774,-5.74077 11.43774,-8.70203 11.48436,-7.729106 12.83547,-8.990062 20.33703,-18.98004 5.19725,-6.921284 7.38234,-9.073084 9.46057,-9.316422 2.13505,-0.249992 2.7024,0.100238 2.7024,1.668212 0,1.091549 0.27314,2.696439 0.60699,3.566423 C 500.99965,83.441469 500.66649,84 499.66345,84 c -0.85278,0 -3.03843,1.877161 -4.85699,4.171468 -7.53743,9.509302 -25.08205,25.721832 -31.73829,29.328532 -2.03007,1.1 -4.56339,2.79524 -5.6296,3.76719 -4.4757,4.08003 -9.26586,7.73281 -10.14059,7.73281 -0.51589,0 -2.77802,1.575 -5.02695,3.5 -2.24893,1.925 -4.76288,3.5 -5.58657,3.5 C 434.53227,136 419,147.95456 419,149.61102 c 0,0.98373 1.34025,1.38898 4.59362,1.38898 3.77025,0 4.68846,-0.36266 5.12272,-2.0233 0.44833,-1.71439 0.70121,-1.80107 1.65638,-0.56777 0.94892,1.22522 2.61505,1.29183 10.53026,0.42096 8.03247,-0.88377 9.52457,-0.81728 10.23723,0.45616 1.19472,2.13486 5.52223,2.96621 8.13031,1.5619 1.22621,-0.66024 4.02948,-1.29785 6.22948,-1.41691 14.50324,-0.78484 22.414,-1.81545 36,-4.69008 7.74934,-1.63966 12.32982,-2.12099 15.5,-1.62878 2.475,0.38426 7.425,0.30014 11,-0.18695 9.00095,-1.22636 11,-1.14416 11,0.45233 0,2.13171 -2.29741,3.54593 -6.06647,3.73434 -1.88844,0.0944 -5.68353,0.75386 -8.43353,1.46546 -2.75,0.71161 -6.82713,1.13754 -9.06029,0.94653 -2.23316,-0.19102 -5.83316,0.0363 -8,0.50516 -13.06369,2.82669 -18.27448,3.7724 -20.93971,3.80035 -11.65015,0.1222 -16.10283,0.42601 -16.98605,1.15897 -1.30049,1.07924 -25.42022,3.87643 -29.17148,3.38305 -1.56336,-0.20562 -8.55059,-0.39162 -15.52718,-0.41334 -9.31598,-0.029 -13.67857,0.37578 -16.42705,1.52417 -2.19582,0.91747 -3.35924,1.92052 -2.81529,2.42721 1.35005,1.2576 13.14393,3.08813 20.00896,3.1056 5.44694,0.0138 12.41486,1.64838 14.06609,3.2996 0.37693,0.37694 2.38104,0.68534 4.45357,0.68534 2.07253,0 4.81003,0.39178 6.08333,0.87061 1.27331,0.47884 5.2401,1.16104 8.8151,1.51601 3.575,0.35497 8.3593,0.90631 10.63177,1.2252 2.2988,0.32259 4.40117,0.14391 4.73903,-0.40277 0.37407,-0.60527 3.77955,-0.0425 8.86824,1.46544 4.54353,1.34642 9.16096,2.65988 10.26096,2.91881 6.3766,1.50096 12.77047,2.54048 18.5,3.00774 3.575,0.29155 8.3,0.69975 10.5,0.90712 2.2,0.20737 4.80316,0.40287 5.7848,0.43444 1.38167,0.0444 1.04287,0.69319 -1.5,2.87232 -2.68377,2.29986 -4.10817,2.77415 -7.7848,2.59212 -5.41944,-0.26831 -17.97192,-2.27165 -19.27333,-3.07597 -1.90938,-1.18006 -24.1265,-4.65365 -40.72667,-6.36752 -15.46659,-1.59682 -19.40082,-2.18042 -21.30029,-3.15965 -0.99015,-0.51045 -5.71515,-1.16078 -10.5,-1.44518 -4.78484,-0.2844 -13.03229,-0.82713 -18.32767,-1.20608 -12.08775,-0.86502 -14.93903,-0.25611 -27.53497,5.88026 -5.6077,2.7319 -10.67159,4.9671 -11.25309,4.9671 -2.15187,0 -9.01369,5.58195 -9.83431,8 -1.40783,4.14835 -0.15935,12.29656 2.76128,18.02147 1.70769,3.34734 2.20713,3.63106 6.75735,3.83868 2.70236,0.12331 6.8975,-0.40932 9.32254,-1.18362 2.42504,-0.77429 5.30916,-1.46175 6.40916,-1.52769 6.61286,-0.39637 21.17301,-2.3251 26.15923,-3.46522 4.43498,-1.01409 8.18172,-1.10726 15.56693,-0.38711 8.12461,0.79226 10.94697,0.66093 17.14012,-0.79753 5.4686,-1.28784 9.21395,-1.56299 14.27384,-1.04863 3.77294,0.38354 11.93606,0.62036 18.14027,0.52627 7.72049,-0.11708 11.75103,0.21953 12.77173,1.06664 1.75053,1.4528 22.67204,1.44232 25.39082,-0.0127 1.38111,-0.73915 1.94023,-0.24254 2.98744,2.65346 1.49681,4.13936 0.58243,5.24318 -4.43038,5.34826 -1.65,0.0346 -7.05,0.21753 -12,0.40654 -4.95,0.18901 -12.375,-0.0513 -16.5,-0.53401 -10.29058,-1.20423 -23.75294,-1.4045 -34.5,-0.51325 -4.95,0.41051 -11.475,0.9484 -14.5,1.19532 -3.025,0.24692 -9.23123,0.90587 -13.79162,1.46434 -4.56039,0.55846 -8.7426,0.73667 -9.2938,0.39601 -0.55121,-0.34067 -1.6264,-0.10134 -2.38932,0.53182 -0.76292,0.63317 -4.00571,1.4082 -7.20619,1.72228 -3.20049,0.31408 -6.64706,0.99728 -7.65904,1.51821 -1.56161,0.80386 -4.25577,0.95038 -11.91003,0.64772 -0.6875,-0.0272 -3.95,0.70189 -7.25,1.62016 -8.16679,2.27254 -15.87267,1.63138 -18.9301,-1.57506 -2.61813,-2.74572 -5.55342,-11.17902 -5.60383,-16.10024 -0.0382,-3.73145 -2.94111,-10.39743 -4.46607,-10.25557 -4.48462,0.41719 -10.62477,1.83633 -11.07131,2.55886 -0.3007,0.48653 -1.33017,0.88461 -2.28771,0.88461 -3.07827,0 -4.07492,1.90033 -2.53978,4.84264 0.76256,1.46155 1.40175,3.33236 1.42042,4.15736 0.0187,0.825 1.37144,2.8125 3.00616,4.41667 1.63472,1.60416 2.97222,3.26134 2.97222,3.68261 0,0.42127 0.9,1.05159 2,1.40072 1.112,0.35294 2,1.51303 2,2.61284 0,1.08794 1.125,3.10307 2.5,4.47807 1.375,1.375 2.5,2.91201 2.5,3.41559 0,0.50357 0.95736,1.8075 2.12746,2.89762 2.49807,2.3273 2.46729,2.5266 -2.71691,17.59588 -3.41146,9.91634 -7.754,17.62034 -11.16055,19.79969 -0.6875,0.43983 -1.25,1.38662 -1.25,2.10398 0,0.71736 -1.10093,2.49221 -2.44651,3.94411 l -2.44651,2.63983 1.95144,4.41156 c 1.07329,2.42635 1.68443,5.10737 1.35808,5.95782 -0.71895,1.87356 -6.50008,3.9319 -8.68664,3.09284 -2.8536,-1.09503 -4.99322,-7.20796 -4.25228,-12.14886 1.1512,-7.67679 6.4306,-17.30097 9.49053,-17.30097 1.49392,0 6.78733,-8.58815 7.48866,-12.14979 0.36284,-1.84262 1.1744,-4.39048 1.80348,-5.66192 0.88043,-1.77949 0.84538,-2.78951 -0.15228,-4.38701 -0.71282,-1.14141 -2.19874,-3.70114 -3.30203,-5.68829 C 334.70265,229.12585 332.80455,226.15 331.58795,224.5 329.24941,221.3284 321,204.60854 321,203.04041 c 0,-2.19081 -2.42581,-2.02737 -7.23537,0.48748 -4.12893,2.15896 -6.60917,2.71766 -12.45986,2.80672 -4.01762,0.0612 -7.30477,0.38866 -7.30477,0.72778 0,0.33912 -1.13404,1.13328 -2.52008,1.7648 -1.38604,0.63153 -2.98759,2.37788 -3.559,3.88079 -0.85359,2.24513 -0.72068,2.96527 0.74514,4.0371 1.47034,1.07515 1.5733,1.642 0.5855,3.22371 -0.70076,1.1221 -1.26907,6.30537 -1.36837,12.48006 -0.10815,6.7258 -0.63246,11.19358 -1.44382,12.30318 -0.88714,1.21324 -0.96103,2.1194 -0.24334,2.98417 0.62972,0.75877 0.72659,2.70494 0.249,5.00284 -0.42991,2.06853 -0.66184,4.21096 -0.51539,4.76096 0.14645,0.55 0.47183,2.09983 0.72307,3.44406 0.25123,1.34423 1.33215,5.04254 2.40204,8.21845 1.06989,3.17592 1.94525,6.66742 1.94525,7.75889 0,5.91957 -4.7807,9.28705 -11.60884,8.17716 -4.38138,-0.71217 -13.56293,1.90757 -14.27704,4.07363 -0.24076,0.73029 -1.93994,3.51581 -3.77594,6.19002 -1.836,2.67422 -3.33818,5.26172 -3.33818,5.75 0,1.48772 -3.02408,0.98861 -3.63357,-0.5997 -0.31394,-0.81812 -0.1058,-2.82139 0.46253,-4.45171 1.3922,-3.99365 9.0815,-14.0608 10.73966,-14.0608 0.73059,0 2.54223,-1.125 4.02588,-2.5 1.48365,-1.375 3.47674,-2.5 4.42908,-2.5 0.95234,0 2.29292,-0.67643 2.97907,-1.50319 1.71444,-2.06578 2.02902,-9.45924 0.53172,-12.49681 -0.86607,-1.75699 -1.12197,-6.95808 -0.86103,-17.5 0.45742,-18.47978 1.05418,-23.45821 2.89667,-24.16524 C 280.3565,221.03296 281,220.24429 281,219.58217 281,217.95507 272.30693,210 270.52888,210 c -0.77967,0 -3.09313,1.53501 -5.14103,3.41113 -2.04789,1.87612 -4.88544,3.62404 -6.30565,3.88427 -1.42021,0.26023 -6.6322,1.25522 -11.5822,2.2111 -4.95,0.95587 -9.9,1.69344 -11,1.63903 -3.90605,-0.1932 -12.5,2.86035 -12.5,4.44142 0,0.8421 -0.45435,1.25028 -1.00966,0.90708 -1.58207,-0.97778 -6.01602,3.06752 -8.4922,7.74784 -1.23904,2.34197 -2.5461,6.70695 -2.90457,9.69996 -0.35847,2.99301 -0.87149,6.36801 -1.14005,7.5 -0.26856,1.13199 -0.64854,3.53875 -0.84441,5.34834 -0.19586,1.8096 -0.52554,3.41782 -0.73261,3.57384 -3.64184,2.74391 -6.99836,4.63599 -8.22417,4.63599 -0.84641,0 -2.12694,0.80716 -2.84563,1.79368 -0.71868,0.98652 -2.71934,2.67402 -4.44589,3.75 -8.46817,5.2773 -14.23452,9.64042 -17.97462,13.60052 -2.2626,2.39569 -6.2001,6.51425 -8.75,9.15236 -2.5499,2.63811 -4.63619,5.41311 -4.63619,6.16667 0,0.75355 -0.51687,1.54239 -1.14861,1.75297 -0.96988,0.3233 -2.92333,6.15176 -4.36964,13.03756 -0.63101,3.0042 -1.50568,3.74624 -4.41586,3.74624 -2.17956,0 -3.16699,-0.72455 -4.36855,-3.20549 z M 42.955188,277.25 c 0.02465,-1.2375 -0.368384,-2.25 -0.873401,-2.25 -0.505016,0 -1.595505,-0.2599 -2.423307,-0.57756 -0.932853,-0.35797 -1.969318,0.28985 -2.726081,1.70387 -1.684072,3.14672 -3.846322,11.62643 -3.143777,12.32898 1.021317,1.02132 9.120232,-8.87887 9.166566,-11.20529 z m 75.399842,-56.23177 c 4.90394,-0.46204 8.19567,-1.26195 8.76172,-2.12916 0.49868,-0.76399 0.73986,-3.86407 0.53596,-6.88907 -0.29525,-4.38015 -0.74727,-5.574 -2.22004,-5.86344 C 122.02043,205.46595 119,202.80479 119,200.46902 119,198.2712 125.47105,192 127.73892,192 c 0.52311,0 1.76559,-0.9 2.76108,-2 2.07621,-2.29419 4.76512,-2.59041 6.3357,-0.69796 1.54263,1.85875 0.35832,5.34082 -2.44015,7.17444 -1.31755,0.8633 -2.39555,2.36925 -2.39555,3.34657 0,0.97732 -0.52937,2.30632 -1.17637,2.95332 -0.90183,0.90183 -0.78514,1.60868 0.5,3.02874 0.922,1.01881 1.67637,2.50431 1.67637,3.30112 0,1.66475 2.75619,5.89377 3.84116,5.89377 1.53618,0 10.12211,-11.24963 9.42805,-12.35301 -0.39682,-0.63084 -0.82624,-2.71983 -0.95426,-4.64219 -0.33537,-5.03591 3.42079,-7.92065 10.37603,-7.96884 6.10606,-0.0423 7.26617,1.17229 4.59341,4.80911 C 153.19857,204.48676 149,211.1375 149,212.72012 c 0,1.00918 -0.72708,2.87292 -1.61573,4.14164 -2.57944,3.68268 -0.53456,4.63869 9.91397,4.63493 12.21085,-0.004 23.07452,-1.09064 25.86994,-2.5867 1.28582,-0.68815 7.65613,-1.38638 14.70985,-1.61231 6.84301,-0.21917 13.26986,-0.84165 14.2819,-1.38327 3.16013,-1.69125 2.23558,-5.4331 -2.21297,-8.95641 -2.84225,-2.25111 -3.9625,-3.84457 -3.75,-5.33403 0.29765,-2.08618 1.8751,-2.60298 8.49503,-2.78312 3.43043,-0.0933 8.04292,3.81381 9.35681,7.92598 0.65604,2.05324 1.55643,4.12866 2.00086,4.61203 0.44443,0.48337 3.76576,1.07577 7.38073,1.31643 6.64374,0.44231 19.29824,-2.09451 26.0694,-5.22608 1.65012,-0.76315 5.43596,-1.56945 8.41299,-1.79179 5.64991,-0.42195 8.37348,-2.53904 9.2335,-7.17742 0.58711,-3.16651 5.27298,-3.18312 8.01596,-0.0284 1.84868,2.12616 2.80369,2.47517 5.2829,1.93064 1.66446,-0.36558 3.49991,-1.3124 4.07878,-2.10405 0.57887,-0.79166 1.4853,-1.35432 2.01429,-1.25036 0.52898,0.10396 1.29929,0.0795 1.71179,-0.0544 1.48219,-0.48106 2.34239,-0.62788 8.75,-1.49342 7.6103,-1.028 6.57144,-0.76587 11.15886,-2.81573 2.01237,-0.89922 5.81679,-2.11855 8.45426,-2.70962 2.63748,-0.59107 6.16599,-1.67838 7.84114,-2.41625 1.67516,-0.73786 8.89574,-3.48564 16.04574,-6.10618 7.15,-2.62053 15.475,-6.08232 18.5,-7.69286 3.025,-1.61054 6.32553,-3.09674 7.33451,-3.30267 1.00898,-0.20592 4.23524,-1.96792 7.16947,-3.91555 2.93422,-1.94763 6.22134,-3.54114 7.3047,-3.54114 1.08337,0 3.0321,-0.93419 4.33054,-2.07597 2.28669,-2.01082 2.29364,-2.06174 0.22148,-1.62257 -2.82327,0.59836 -4.4238,-0.4891 -4.6236,-3.14144 -0.20983,-2.78557 -0.62352,-2.7381 -7.21456,0.82779 -3.0374,1.64329 -5.52254,2.82737 -5.52254,2.63128 0,-0.19609 -2.5875,0.26123 -5.75,1.01626 -3.1625,0.75504 -8.9,1.83483 -12.75,2.39954 -11.37061,1.66782 -12.90009,2.0098 -15,3.3539 -3.64811,2.33505 -8.91092,3.79371 -16.73304,4.63777 -4.25317,0.45894 -8.28529,1.17575 -8.96027,1.59291 -0.67497,0.41716 -3.1598,0.87836 -5.52183,1.0249 -2.36204,0.14653 -5.75492,0.92874 -7.53974,1.73824 -1.78481,0.8095 -5.04512,1.68355 -7.24512,1.94235 -5.70335,0.67092 -10.20046,2.00249 -16.5,4.8856 -3.7641,1.72271 -8.02494,2.69526 -13.5,3.08142 -10.24983,0.72292 -40.21201,4.412 -41.30127,5.0852 -0.96083,0.59383 -26.99491,0.77738 -32.19873,0.22702 -13.8336,-1.46306 -17.09678,-2.01778 -21.78751,-3.70374 C 170.30436,185.8552 166.5774,185 164.93037,185 c -1.64703,0 -4.62676,-0.68196 -6.62162,-1.51546 -2.25202,-0.94096 -4.89767,-1.27708 -6.97884,-0.88665 -2.00336,0.37583 -3.91841,0.15859 -4.76015,-0.53999 -1.10664,-0.91843 -1.62218,-0.78665 -2.4067,0.61522 -0.87062,1.55571 -1.51762,1.64543 -5.05563,0.70108 -3.36795,-0.89896 -4.52871,-0.79622 -6.8324,0.60474 -1.52634,0.92822 -3.32209,1.50537 -3.99055,1.28255 -1.39979,-0.46659 -8.77175,4.40841 -11.91954,7.88228 -1.17429,1.29593 -2.44966,3.39249 -2.83415,4.65904 -0.3845,1.26654 -2.23622,5.02227 -4.11494,8.34606 C 106.85921,210.67203 106,213.38373 106,216.9294 c 0,5.25501 0.64226,6.44918 2.94777,5.48086 0.85372,-0.35857 5.08699,-0.98498 9.40726,-1.39203 z m 42.66028,-9.16124 c 0.0221,-4.83797 1.20299,-6.34571 3.85752,-4.92505 2.49473,1.33514 3.06977,7.06806 0.70896,7.06806 -0.78002,0 -2.13002,0.27314 -3,0.60699 -1.25034,0.4798 -1.57858,-0.0965 -1.56648,-2.75 z M 135.5,200 c 0.33992,-0.55 1.04148,-1 1.55902,-1 0.51754,0 0.94098,0.45 0.94098,1 0,0.55 -0.70156,1 -1.55902,1 -0.85746,0 -1.2809,-0.45 -0.94098,-1 z m 121.9309,-5.1118 c -0.7252,-1.1734 1.20838,-2.84703 3.3191,-2.87289 1.80344,-0.0221 1.54004,2.65942 -0.33179,3.3777 -2.09394,0.80352 -2.1886,0.78753 -2.98731,-0.50481 z M 80,154.96862 c 0,-1.93687 -2.502162,-3.79979 -3.612416,-2.68954 C 75.736619,152.93005 78.196188,157 79.240547,157 79.658246,157 80,156.08588 80,154.96862 Z m 1012.7876,103.48566 c -0.2801,-0.28012 -9.0094,-0.65368 -19.3984,-0.83014 -14.6636,-0.24905 -19.8959,-0.69787 -23.3892,-2.00628 -2.475,-0.92701 -6.75,-2.10511 -9.5,-2.61801 -2.75,-0.51291 -6.0192,-1.22693 -7.2649,-1.58672 -1.8704,-0.54024 -2.1474,-0.34817 -1.5906,1.1028 0.4776,1.24469 0.2633,1.62146 -0.7352,1.29219 -0.7751,-0.25563 -1.5563,-1.46627 -1.7359,-2.69033 -0.1796,-1.22405 -1.3046,-2.60601 -2.5,-3.07103 -2.5275,-0.98323 -7.096,-5.74015 -8.0136,-8.34418 -0.3484,-0.98858 -1.9357,-2.25141 -3.5274,-2.80628 -2.3822,-0.83042 -3.1948,-2.01585 -4.5947,-6.70258 -0.9353,-3.13154 -2.1139,-6.99837 -2.6191,-8.59294 -0.5052,-1.59458 -0.9186,-3.75253 -0.9186,-4.79546 0,-2.74423 4.4781,-6.80532 7.5042,-6.80532 1.4273,0 3.8701,-0.65929 5.4283,-1.4651 1.5583,-0.8058 4.3347,-1.72963 6.17,-2.05295 1.8352,-0.32332 3.4938,-0.74489 3.6857,-0.93681 0.4116,-0.41159 -15.6443,-9.54514 -16.7794,-9.54514 -0.4266,0 -1.0109,-0.9 -1.2985,-2 -0.3161,-1.20847 -1.3641,-2 -2.6481,-2 -2.1705,0 -2.4324,-0.39672 -3.5176,-5.32897 -0.6338,-2.88118 -8.14694,-10.53471 -13.59189,-13.84598 -3.76424,-2.28917 -6.94413,-7.45405 -6.94897,-11.28673 -0.003,-2.315 1.25176,-4.141 5.74626,-8.36282 9.501,-8.92463 12.3076,-10.41539 20.6117,-10.94832 5.8459,-0.37516 8.2043,-0.0704 11.815,1.52678 4.0021,1.77032 4.9387,1.84851 8.3001,0.69293 2.0839,-0.71641 4.5167,-1.31553 5.4061,-1.33136 0.8894,-0.0158 4.2902,-0.0643 7.5574,-0.10762 6.659,-0.0884 9.3054,-1.40453 7.4117,-3.68622 -1.8871,-2.27384 -1.1582,-8.3668 1.3159,-11.00042 1.2193,-1.29783 2.6928,-2.1845 3.2745,-1.97038 0.5817,0.21412 2.5751,-0.22724 4.4297,-0.98079 1.8547,-0.75356 4.2654,-1.3701 5.3571,-1.3701 1.0917,0 4.7492,-1.29496 8.1278,-2.8777 7.6708,-3.59341 19.2435,-6.40801 26.3475,-6.40801 4.111,0 6.1808,0.56412 8.5811,2.33875 1.7398,1.28631 3.9295,2.28104 4.8658,2.21051 0.9364,-0.0705 2.7997,0.85381 4.1406,2.0541 2.8267,2.53017 2.8796,2.54599 11.025,3.29742 8.3756,0.77267 22.683,5.532 22.683,7.54545 0,0.46171 0.3375,0.76804 0.75,0.68072 1.859,-0.39351 10.0496,3.72362 18.6041,9.35166 3.2197,2.11828 6.5947,3.97034 7.5,4.11569 0.9052,0.14535 5.5449,1.53898 10.3104,3.09695 6.6175,2.16345 8.7935,3.32577 9.2104,4.91989 0.6617,2.53056 0.1928,3.14728 -1.5584,2.04966 -3.6778,-2.30521 -9.0367,2.1767 -7.8491,6.56458 0.3812,1.40818 0.2734,4.13533 -0.2394,6.06033 -1.7708,6.64659 -1.9637,10.70108 -0.571,11.99794 0.9124,0.84959 1.2495,3.2146 1.0514,7.3763 -0.4379,9.199 -3.4956,14.62576 -8.2409,14.62576 -3.0956,0 -4.513,-1.34109 -5.477,-5.182 -0.3687,-1.46894 -1.4247,-3.35344 -2.3466,-4.18776 -2.3517,-2.12824 -11.164,-4.01019 -12.5038,-2.67032 -0.5721,0.57205 -2.2,1.04008 -3.6176,1.04008 -1.4176,0 -3.4697,0.62496 -4.5603,1.3888 -1.0905,0.76384 -3.3016,1.24403 -4.9136,1.06708 -1.6119,-0.17694 -3.8573,0.19465 -4.9897,0.82577 -1.1324,0.63111 -2.2839,1.19567 -2.5589,1.25458 -0.8006,0.17149 -12.3519,3.5517 -14,4.09678 -0.825,0.27285 -1.725,0.52032 -2,0.54994 -0.275,0.0296 -1.3876,0.67557 -2.4725,1.43545 -1.1332,0.79369 -4.7502,1.43195 -8.5,1.49991 -7.9659,0.14439 -12.2352,0.999 -12.752,2.55262 -0.253,0.76058 1.6456,1.39595 5.4175,1.81306 3.1939,0.35318 8.732,1.26513 12.307,2.02655 3.575,0.76143 7.8887,1.34167 9.586,1.28942 1.6973,-0.0522 5.9048,1.33743 9.35,3.08816 3.7855,1.92364 7.0159,2.94455 8.164,2.58013 1.0936,-0.34708 1.9,-0.12832 1.9,0.51539 0,1.56136 6.8874,4.27907 9.2672,3.65675 1.0798,-0.28238 2.6989,-0.11917 3.598,0.36269 2.2759,1.2197 7.3455,2.3732 9.0913,2.06856 0.801,-0.13978 1.9793,-0.96918 2.6183,-1.84311 1.0309,-1.40981 1.2985,-1.33379 2.3731,0.67421 1.1587,2.16492 1.2949,2.18749 3.1378,0.51969 1.0596,-0.95893 1.6978,-1.97224 1.4182,-2.25181 -0.2795,-0.27958 0.2375,-1.33234 1.1489,-2.33947 1.9593,-2.16494 7.5936,-2.4441 9.242,-0.4579 1.6752,2.01853 0.4591,4.30022 -6.673,12.51933 -5.7642,6.64283 -6.3465,7.70773 -5.7421,10.5 1.5337,7.08486 1.6192,8.9545 0.5296,11.58486 -1.4521,3.50588 -5.1672,5.36227 -7.416,3.7057 -1.2959,-0.95464 -1.4181,-1.83558 -0.6328,-4.56129 1.0833,-3.75955 0.2339,-5.60791 -4.1684,-9.07072 -2.2402,-1.76219 -2.7285,-1.83267 -3.7949,-0.54778 -0.6731,0.81105 -1.5562,1.26923 -1.9624,1.01818 -0.4062,-0.25105 -3.6177,1.01804 -7.1367,2.82019 -3.5189,1.80216 -8.4231,3.87523 -10.8981,4.60682 -2.475,0.7316 -7.2237,2.37124 -10.5527,3.64365 -4.7712,1.82368 -8.8996,2.44235 -19.5,2.92222 -7.396,0.33481 -14.393,0.79785 -15.5488,1.02896 -1.1559,0.23112 -2.3308,0.19102 -2.6109,-0.0891 z M 1094,247.42464 c 1.375,-0.18954 5.425,-0.75457 9,-1.25563 3.575,-0.50106 10.325,-0.99398 15,-1.09538 4.675,-0.1014 8.9275,-0.60944 9.45,-1.12899 0.5225,-0.51955 1.7581,-0.94464 2.7458,-0.94464 0.9876,0 5.2053,-1.5749 9.3725,-3.49979 4.1673,-1.92488 9.4567,-3.7932 11.7543,-4.15181 3.9552,-0.61736 5.6275,-1.72298 5.6621,-3.74344 0.01,-0.49782 -3.0912,-0.63459 -6.9847,-0.30818 -5.3299,0.44684 -7,0.28115 -7,-0.69445 0,-1.41921 -4.1312,-3.60233 -6.8168,-3.60233 -0.9476,0 -4.1889,-1.35159 -7.203,-3.00353 -10.1891,-5.58434 -16.1799,-8.06785 -18.0386,-7.47793 -1.0163,0.32256 -4.6814,0.0571 -8.1447,-0.58987 -3.4633,-0.64699 -13.7716,-1.29616 -22.9073,-1.4426 -9.7258,-0.1559 -17.4699,-0.72629 -18.6842,-1.37617 -2.6817,-1.43515 -3.2054,-1.39863 -3.2054,0.22349 0,0.73336 -1.5394,3.09586 -3.4209,5.25 -2.9002,3.32041 -3.6994,3.74444 -5.25,2.78561 -1.9226,-1.18882 -2.188,-3.30923 -0.9035,-7.21772 0.6707,-2.04098 0.5079,-2.26494 -1.2427,-1.70932 -1.108,0.35167 -2.2969,0.18258 -2.642,-0.37575 -0.7175,-1.16092 -8.9984,-0.4269 -11.7406,1.04067 -0.9863,0.52785 -4.3823,1.43631 -7.5468,2.01881 -3.1644,0.5825 -6.2656,1.4808 -6.8915,1.99622 -1.1711,0.96431 -0.6098,4.83753 1.4506,10.01055 0.9259,2.3245 5.9582,6.86754 7.6072,6.86754 0.336,0 2.9665,1.56386 5.8456,3.47525 2.879,1.91138 6.8096,3.77315 8.7346,4.13726 1.925,0.36411 4.2829,1.34085 5.2398,2.17054 1.3114,1.13698 4.6363,1.54927 13.5,1.67397 6.4681,0.091 12.8852,0.63406 14.2602,1.20679 1.375,0.57274 4.7192,1.11441 7.4316,1.20371 2.7124,0.0893 5.1639,0.39464 5.4478,0.67852 0.2839,0.28389 1.2146,0.22524 2.0684,-0.13032 0.8537,-0.35556 2.6772,-0.80155 4.0522,-0.99108 z m -36.5883,-48.17656 c 2.0025,-1.5751 3.8886,-1.79577 13.2121,-1.54575 5.9819,0.16041 12.0124,0.75564 13.4011,1.32274 1.3887,0.5671 3.6387,0.85002 5,0.62872 1.3613,-0.22131 3.0522,0.0583 3.7575,0.62127 0.8773,0.70025 2.457,0.68079 5,-0.0616 5.962,-1.74041 16.9527,-4.39784 25.611,-6.19242 2.6914,-0.55783 5.4328,-1.46187 6.092,-2.00898 0.6593,-0.5471 1.4807,-0.71268 1.8254,-0.36795 0.3447,0.34473 1.8783,-0.20626 3.408,-1.22443 8.8853,-5.91421 24.4603,-8.9108 34.2566,-6.59086 3.3623,0.79626 4.6642,0.76281 5.2347,-0.1345 0.4176,-0.65689 0.7823,-0.74434 0.8106,-0.19434 0.028,0.55 1.129,2.3184 2.4462,3.92978 1.9586,2.39599 2.662,2.70813 3.8608,1.71323 1.9933,-1.6543 1.0201,-4.67259 -2.4474,-7.5903 -1.5842,-1.33298 -2.8803,-2.90264 -2.8803,-3.48815 0,-0.58551 -0.45,-1.06456 -1,-1.06456 -1.4675,0 -1.2227,-1.99359 0.25,-2.03596 1.6844,-0.0485 5.9803,-3.85865 7.9985,-7.09423 1.632,-2.61644 1.6256,-2.62944 -1.235,-2.48557 -1.5817,0.0795 -3.2067,0.47563 -3.6113,0.88019 -0.4045,0.40456 -1.6794,0.73557 -2.833,0.73557 -1.1536,0 -4.5661,0.90716 -7.5833,2.01592 -3.583,1.31665 -9.1019,2.20076 -15.9103,2.54879 -5.7335,0.29307 -10.6835,0.68862 -11,0.879 -1.1384,0.68459 -12.2708,-1.52414 -14.3997,-2.85696 -1.9692,-1.23289 -6.5138,-2.38168 -12.3324,-3.11743 -1.1861,-0.14997 -5.0111,-1.22681 -8.5,-2.39297 -11.7655,-3.93258 -12.8291,-4.20328 -13.9042,-3.53883 -0.5898,0.36451 -1.6524,-0.13042 -2.3612,-1.09986 -0.8074,-1.10416 -1.9303,-1.51648 -3.0059,-1.10373 -0.9444,0.3624 -2.697,0.10651 -3.8946,-0.56863 -2.4614,-1.38752 -2.7365,-1.43748 -11.6776,-2.12108 -3.575,-0.27333 -8.525,-0.92976 -11,-1.45874 -4.021,-0.85939 -16.8489,-0.66994 -17.7814,0.2626 -0.2013,0.20133 0.3421,1.73553 1.2077,3.40933 2.2529,4.35674 2.0102,10.31794 -0.5528,13.57629 -2.528,3.21377 -10.9476,7.13623 -17.6021,8.20029 -2.6243,0.41961 -5.1188,0.67033 -5.5434,0.55715 -0.4245,-0.11318 -1.2174,0.966 -1.762,2.39818 -0.855,2.24889 -0.6199,2.89761 1.7242,4.75733 8.3094,6.5924 18.8221,11.69085 21.1453,10.25504 0.4341,-0.2683 1.987,0.29789 3.4509,1.25821 3.773,2.47503 10.2296,2.66598 13.1253,0.38818 z m -24.0361,-27.37335 c 1.6627,-0.75758 2.4945,-1.77077 2.163,-2.63464 -0.2962,-0.77201 -0.5386,-2.01154 -0.5386,-2.75449 0,-0.74295 -0.9,-1.63647 -2,-1.9856 -1.1,-0.34913 -2,-1.23131 -2,-1.9604 0,-1.64445 2.7217,-2.79884 3.527,-1.49593 0.8949,1.448 2.473,1.14452 2.473,-0.47558 0,-2.11225 -6.0424,-6.04657 -9.5,-6.18568 -4.3263,-0.17405 -9.1333,2.52157 -11.1394,6.24655 -1.6976,3.15228 -1.8049,3.19265 -4.6182,1.73782 -2.3815,-1.2315 -2.825,-2.02717 -2.5613,-4.59452 0.2764,-2.69149 -0.014,-3.13015 -2.1811,-3.29325 -2.8701,-0.21603 -6.6251,1.95193 -8.07579,4.66261 -2.53345,4.73379 5.14449,11.38907 16.07579,13.93464 4.5286,1.05457 14.9145,0.37546 18.3756,-1.20153 z m 137.8671,-9.23497 c 1.8048,-1.22409 3.6016,-1.64466 5.2544,-1.22984 1.5672,0.39333 3.4344,0.0259 4.9651,-0.97713 2.6788,-1.75522 2.6526,-1.83019 -2.6353,-7.54428 -1.9187,-2.07338 -3.6146,-2.88851 -6.0094,-2.88851 -2.2252,0 -3.7421,-0.64964 -4.5545,-1.95047 -0.6699,-1.07277 -2.9111,-2.2681 -4.9804,-2.6563 -2.0693,-0.3882 -5.5669,-1.5256 -7.7725,-2.52756 -6.0002,-2.72581 -14.5101,-2.23651 -14.5101,0.83429 0,0.81747 -0.5533,1.20878 -1.25,0.88402 -0.6875,-0.32048 -2.0424,-0.86175 -3.0109,-1.20283 -1.8009,-0.63418 -2.9651,-3.71206 -3.1405,-8.30262 -0.092,-2.4135 -0.4396,-2.58961 -5.4272,-2.7517 -2.9307,-0.0952 -5.9391,-0.40746 -6.6854,-0.69382 -0.7462,-0.28636 -1.5258,-0.0136 -1.7324,0.60606 -0.6076,1.82303 -9.9267,-1.18493 -10.5034,-3.39026 -0.6769,-2.58861 -6.0991,-5.04091 -9.496,-4.29482 -1.9708,0.43286 -2.7281,0.24458 -2.5328,-0.62973 0.352,-1.57595 -4.3204,-2.91458 -5.9107,-1.6934 -0.6541,0.50229 -3.4341,1.04344 -6.1777,1.20255 -4.4728,0.2594 -12.8352,3.54927 -14.133,5.56006 -0.816,1.26434 -7.9396,5.00653 -9.5304,5.00653 -0.8083,0 -1.4696,0.3949 -1.4696,0.87756 0,1.35354 2.1365,2.74471 6.25,4.06967 2.0625,0.66433 3.8063,1.62298 3.875,2.13032 0.697,5.14362 1.7568,5.71942 11.4162,6.20274 5.6004,0.28023 10.2435,1.07412 12.2003,2.08605 1.7376,0.89851 4.0957,1.63366 5.2404,1.63366 1.1446,0 4.6973,0.8813 7.8948,1.95845 3.1974,1.07715 7.3273,2.22515 9.1775,2.5511 1.8502,0.32596 3.8324,0.9523 4.4049,1.39186 0.9811,0.75329 11.4798,3.18008 15.2902,3.53437 2.2606,0.21019 10.5382,2.72645 11.4571,3.4828 0.3886,0.31978 5.3386,0.58142 11,0.58142 8.3862,0 10.8018,-0.3447 13.0363,-1.86024 z m -87.7163,-22.25625 c -2.233,-2.23301 -1.3366,-9.16589 1.4922,-11.54085 2.5843,-2.1696 9.7951,-0.95642 8.3229,1.40028 -0.4319,0.69138 -0.8822,1.89836 -1.0006,2.68217 -0.1184,0.78382 -0.9281,1.82397 -1.7991,2.31146 -0.8711,0.48749 -1.3633,1.24328 -1.0937,1.67953 0.2697,0.43625 -0.5639,1.78347 -1.8522,2.99382 -2.2191,2.0847 -2.4335,2.10965 -4.0695,0.47359 z M 844.5,247.00101 c -2.2,-0.44866 -7.825,-1.09655 -12.5,-1.43977 -14.94181,-1.09695 -24.37837,-2.72737 -29,-5.01055 -6.71236,-3.31604 -24.18474,-8.35423 -32.32441,-9.32081 -4.14548,-0.49227 -5.22467,-1.90602 -4.29191,-5.62243 0.69258,-2.75947 8.50063,-8.06705 13.36632,-9.08586 1.7875,-0.37427 3.25,-1.2716 3.25,-1.99406 0,-0.72245 0.75271,-1.6024 1.6727,-1.95543 1.46078,-0.56055 1.38187,-0.84558 -0.62286,-2.24974 -1.26255,-0.88433 -4.60277,-2.48335 -7.4227,-3.55338 -5.22818,-1.98385 -10.59627,-5.81064 -18.62714,-13.27887 -2.475,-2.3016 -6.3,-5.22623 -8.5,-6.49918 -2.2,-1.27296 -4.9,-3.07076 -6,-3.99512 -1.1,-0.92436 -4.7,-2.7361 -8,-4.0261 -3.3,-1.29 -6.33061,-2.82341 -6.73469,-3.40758 -2.11397,-3.05615 1.29761,-8.87119 5.36537,-9.14529 1.30313,-0.0878 3.04432,-0.39292 3.86932,-0.67803 9.26946,-3.20341 12.62847,-4.53796 19.5,-7.74745 4.4,-2.05511 9.8,-4.06018 12,-4.45571 2.2,-0.39553 5.125,-1.30177 6.5,-2.01386 4.10561,-2.12624 13.26204,-4.48134 19.5788,-5.0358 3.25666,-0.28586 7.4962,-0.8238 9.4212,-1.19542 6.74285,-1.3017 29.65105,-0.41583 39,1.50816 4.93616,1.01584 13.9908,0.89509 18.15323,-0.2421 2.01,-0.54914 2.89499,-0.29288 3.65045,1.05705 0.71049,1.26958 2.10405,1.74607 4.84677,1.65725 16.04724,-0.51971 16.64344,-0.43858 19.77271,2.69069 l 2.97659,2.9766 -3.05579,3.78089 c -1.91569,2.37025 -4.88177,4.47433 -7.94988,5.6395 -5.29057,2.00918 -18.54847,3.90311 -20.92872,2.98972 -3.62508,-1.39107 0.0746,-5.89731 5.03464,-6.13218 7.04894,-0.33378 13.5,-1.42717 13.5,-2.28811 0,-0.51042 -1.2375,-0.96504 -2.75,-1.01027 -1.5125,-0.0452 -3.875,-0.22654 -5.25,-0.40291 -1.375,-0.17638 -7.225,-0.8441 -13,-1.48382 -14.65823,-1.62377 -25.84022,-3.80572 -28.2873,-5.51972 -1.46228,-1.02422 -2.4456,-1.14796 -3.3247,-0.41837 -0.68656,0.5698 -8.00404,1.219 -16.26106,1.44268 -11.85839,0.32123 -16.23289,0.83953 -20.81985,2.46681 -3.1939,1.13308 -11.43209,3.65328 -18.30709,5.60046 -6.875,1.94718 -13.175,4.10124 -14,4.7868 -0.825,0.68556 -3.8625,2.33457 -6.75,3.66447 -2.95672,1.36178 -5.24999,3.07929 -5.24997,3.93191 3e-5,1.72248 5.47035,6.39366 8.68071,7.41259 1.17626,0.37333 2.68439,1.33636 3.3514,2.14006 0.66701,0.8037 2.02093,1.46127 3.00871,1.46127 0.98777,0 3.69368,1.82333 6.01312,4.05185 2.31944,2.22852 6.40616,5.1611 9.08159,6.51685 2.67544,1.35574 4.86444,2.85116 4.86444,3.32315 0,0.83268 4.43331,2.19217 8.5,2.60656 1.1,0.11209 4.7,1.37056 8,2.79662 12.26462,5.3 30.60167,7.54617 43.5,5.32848 5.20015,-0.8941 11.40841,-1.61903 15,-1.75155 1.375,-0.0507 2.98479,-0.48328 3.57731,-0.96122 0.59251,-0.47794 4.7779,-2.19162 9.30086,-3.80818 4.52296,-1.61656 9.43817,-3.76345 10.92269,-4.77088 1.48453,-1.00742 3.14914,-2.05947 3.69914,-2.33789 3.57154,-1.80794 11.5,-7.30339 11.5,-7.97098 0,-0.44311 1.6875,-1.54023 3.75,-2.43805 5.66442,-2.46577 12.44171,-6.41623 14.7864,-8.61896 1.15088,-1.08119 2.5709,-1.9658 3.15561,-1.9658 0.5847,0 1.59111,-0.63621 2.23645,-1.4138 0.64535,-0.77759 3.19376,-2.36351 5.66314,-3.52425 6.01756,-2.82859 6.54951,-4.65318 2.42977,-8.33416 -2.93032,-2.61825 -3.8169,-2.8906 -7.68417,-2.36053 -6.08352,0.83384 -9.74471,2.96337 -12.17426,7.08115 -2.08824,3.53931 -3.62032,3.82164 -6.91294,1.27391 -2.25859,-1.74762 -1.48922,-8.28457 1.37579,-11.68944 4.25172,-5.05289 17.29613,-10.51096 19.60424,-8.20285 0.64348,0.64348 2.23034,1.16997 3.52634,1.16997 1.34935,0 3.54263,1.29878 5.13213,3.03907 2.36676,2.59127 3.14312,2.8994 5.26887,2.0912 2.66795,-1.01435 5.84263,-5.1102 5.84263,-7.53793 0,-0.81291 0.92937,-3.05319 2.06527,-4.97839 1.1359,-1.9252 2.10483,-4.89197 2.15319,-6.59282 0.0484,-1.70085 0.43466,-3.30675 0.85844,-3.56866 1.36639,-0.84447 5.00106,10.67239 5.03073,15.94044 0.0284,5.03312 -2.99772,15.56481 -5.25307,18.28233 -0.87772,1.05759 -0.8575,1.95076 0.084,3.70998 1.32132,2.46891 1.80471,5.40951 2.52142,15.33873 0.48446,6.71157 -0.77065,9.27605 -4.53989,9.27605 -1.6515,0 -1.76245,-0.27958 -0.75263,-1.89655 2.54817,-4.08028 -8.93457,-12.96411 -15.8883,-12.29227 -2.1241,0.20522 -4.84819,1.79285 -8,4.66248 l -4.77917,4.3513 4.63983,2.00476 c 2.55191,1.10262 4.91677,2.45285 5.25524,3.00051 0.33848,0.54766 2.52555,1.31311 4.86017,1.70101 2.33462,0.38789 5.48125,1.33808 6.99252,2.11153 2.40342,1.23005 3.05292,1.20632 5.18294,-0.18932 1.88697,-1.23639 2.89732,-1.34826 4.48803,-0.49695 1.6209,0.86749 2.88908,0.67203 6.02722,-0.92892 2.1859,-1.11517 4.87068,-2.02758 5.96617,-2.02758 2.15694,0 7.45493,-6.88588 9.24181,-12.01172 0.57295,-1.64356 1.3352,-2.97667 1.6939,-2.96248 1.01504,0.0401 4.62528,8.23806 4.61268,10.4742 -0.006,1.1 -0.37759,4.49456 -0.82531,7.54346 l -0.81404,5.54346 8.62315,8.41685 c 4.74274,4.62926 8.88875,9.47507 9.21337,10.76846 0.71208,2.83716 -2.30127,9.96666 -4.77121,11.28853 -2.77667,1.48603 -5.89879,1.09711 -6.50853,-0.81076 -1.14037,-3.56816 -2.93976,-6.68861 -5.12794,-8.89271 C 972.0125,220.11078 971,218.62045 971,218.04545 971,217.47045 969.46504,217 967.58898,217 963.78296,217 953,220.79816 953,222.13878 953,222.61245 952.28051,223 951.40113,223 c -0.87938,0 -3.01688,0.60523 -4.75,1.34496 -1.73312,0.73974 -6.30113,2.10685 -10.15113,3.03803 -3.85,0.93119 -12.625,3.73366 -19.5,6.22772 -28.62257,10.38346 -59.38457,16.06501 -72.5,13.3903 z m 18.40262,-8.73673 c 1.0523,0.27519 3.67815,-0.50213 5.83521,-1.72737 2.83683,-1.61134 5.42158,-2.19626 9.34206,-2.11406 3.76973,0.079 7.0736,-0.62448 10.85043,-2.31047 2.98668,-1.33326 7.03668,-2.57387 9,-2.75692 5.16228,-0.48129 6.19559,-0.76664 9.92738,-2.7414 2.00412,-1.06053 4.32279,-1.53459 5.75167,-1.17596 1.4725,0.36957 3.91765,-0.17648 6.35246,-1.41863 C 922.139,222.90876 924.424,222 925.03961,222 c 1.08278,0 11.86213,-3.96705 16.96039,-6.24182 2.97839,-1.32892 2.47098,-1.18777 7.74476,-2.15428 4.88043,-0.89442 6.06005,-2.05413 3.52975,-3.47015 -1.54814,-0.86638 -1.61498,-1.39341 -0.53842,-4.24552 0.67602,-1.79099 1.07907,-3.4064 0.89567,-3.58981 -0.18341,-0.1834 -3.04007,0.35994 -6.34814,1.20743 -5.43309,1.39189 -6.96059,1.38868 -15.79696,-0.0332 -5.38025,-0.86577 -11.04342,-2.22629 -12.58481,-3.02337 C 917.35903,199.65142 913.37596,199 910.04056,199 c -5.36769,0 -6.41683,0.34219 -9.19798,3 -3.46893,3.3151 -5.11038,3.86144 -4.15992,1.3846 0.47258,-1.23155 0.1681,-1.48045 -1.28139,-1.04749 -1.0457,0.31235 -3.25127,0.84839 -4.90127,1.1912 -4.19803,0.87219 -18.60886,5.47916 -20.90442,6.68289 -1.92915,1.01159 -11.1912,4.04028 -17.59558,5.75374 -1.925,0.51503 -7.775,1.22098 -13,1.56878 -12.85771,0.85588 -10.92642,0.91047 -27.81414,-0.78616 -10.36728,-1.04155 -18.11724,-0.22513 -23.92523,2.52043 l -2.23938,1.0586 2.20296,1.5867 c 10.11916,7.28844 16.65279,10.27518 23.1931,10.60235 7.86813,0.3936 11.67097,1.25427 13.71491,3.10401 1.12662,1.01959 3.66638,1.4641 8.0088,1.40172 8.40927,-0.1208 19.62595,0.75902 23.35898,1.83225 1.82182,0.52377 3.48882,0.47916 4.24467,-0.11359 0.68457,-0.53684 2.10565,-0.75093 3.15795,-0.47575 z M 522,214 c -0.79314,-0.49019 -1.21708,-1.11625 -0.94208,-1.39125 0.275,-0.275 1.14894,-0.0989 1.94208,0.39125 0.79314,0.49019 1.21708,1.11625 0.94208,1.39125 -0.275,0.275 -1.14894,0.0989 -1.94208,-0.39125 z m 9.5,-27 c -0.33992,-0.55 -0.14148,-1 0.44098,-1 0.58246,0 1.05902,0.45 1.05902,1 0,0.55 -0.19844,1 -0.44098,1 -0.24254,0 -0.7191,-0.45 -1.05902,-1 z m 658.5,-7.32183 c 0,-3.20059 3.4005,-5.54726 8.5,-5.86582 4.7566,-0.29715 5.0149,-0.18344 5.3066,2.33603 0.2895,2.50078 0.011,2.68593 -5,3.32233 -2.9186,0.37068 -6.0941,0.89673 -7.0566,1.16901 -1.0923,0.309 -1.75,-0.0524 -1.75,-0.96155 z m 3.8477,-14.113 c -0.986,-2.16405 -0.9324,-2.909 0.2974,-4.13885 1.9267,-1.92666 4.2688,-1.00804 5.7569,2.25792 1.3698,3.0064 1.4007,2.9507 -2.129,3.83659 -2.2973,0.57659 -2.9108,0.27095 -3.9253,-1.95566 z M 727.98731,147.65534 c -0.26802,-0.26726 -3.86231,-0.70753 -7.98731,-0.97836 -7.62598,-0.50069 -22.04334,-3.29342 -32,-6.19859 -6.82397,-1.99111 -17.05422,-4.21824 -23,-5.00712 -6.06771,-0.80505 -10.11709,-2.14124 -15.22172,-5.02276 -5.96775,-3.36874 -8.59818,-4.43727 -13.77828,-5.59697 -5.69076,-1.27402 -14.98639,-5.88285 -16.40673,-8.13456 -1.84789,-2.92951 0.43952,-4.74128 9.91601,-7.85406 4.94489,-1.62427 14.47057,-5.6329 21.16817,-8.90807 C 657.37504,96.679683 663.34907,94 663.95306,94 c 0.60399,0 5.24914,-1.961001 10.32256,-4.35778 5.07341,-2.396779 11.41323,-4.682053 14.0885,-5.078386 3.59499,-0.532589 4.99523,-1.221985 5.36663,-2.64222 C 694.00713,80.864726 695.08078,80 696.11663,80 697.15248,80 698,79.4949 698,78.877555 c 0,-0.797711 0.41547,-0.777635 1.43608,0.06939 1.06596,0.884668 1.96801,0.907158 3.5,0.08726 C 705.24983,77.795929 705.69435,76 703.68709,76 c -3.25451,0 -10.02375,-10.611549 -11.31631,-17.73958 -0.25839,-1.424899 -1.38034,-3.869481 -2.49324,-5.432403 -1.15093,-1.616322 -2.26923,-5.223021 -2.59343,-8.364165 -0.31348,-3.037368 -0.9225,-5.740363 -1.35337,-6.006654 -0.84705,-0.523508 0.0725,-4.322894 2.10269,-8.687976 2.11668,-4.551017 5.06143,-4.642554 14.11631,-0.438799 2.94264,1.366131 8.72526,3.029252 12.85026,3.695824 4.125,0.666571 8.4,1.4203 9.5,1.674952 4.33151,1.002751 22.10596,0.193417 26.52002,-1.207552 0.99641,-0.316251 2.07555,-0.148025 2.39808,0.373836 0.33878,0.548153 2.35427,0.0947 4.77277,-1.07379 3.67728,-1.776666 4.80185,-1.887541 9.24774,-0.911768 2.78377,0.610972 8.43639,1.300951 12.56139,1.533287 7.17423,0.40408 11.75006,1.104905 15,2.297374 0.825,0.302709 2.85,0.707471 4.5,0.899472 6.8619,0.79848 16.17969,2.825708 18.7198,4.072782 1.4959,0.73441 3.0709,1.230688 3.5,1.102841 1.15332,-0.343614 6.39584,3.189522 9.43449,6.358251 1.45985,1.522356 3.93485,3.039105 5.5,3.370555 1.56514,0.331449 3.52071,1.031507 4.34571,1.555684 3.1715,2.015063 10.21406,4.913566 10.90342,4.487516 0.39752,-0.245676 2.94436,0.605163 5.65967,1.890753 2.7153,1.28559 7.54495,2.911369 10.73255,3.612843 3.18761,0.701473 6.02667,1.649201 6.30902,2.106061 0.28236,0.456861 2.42917,0.830656 4.7707,0.830656 2.34153,0 6.78886,0.467981 9.88297,1.039958 5.18546,0.958584 6.04098,0.834754 10.93366,-1.582557 2.9194,-1.442383 5.98301,-2.956003 6.80801,-3.3636 0.825,-0.407596 2.95172,-1.586104 4.72605,-2.618906 4.71818,-2.746353 8.53761,-1.220169 9.34276,3.733218 0.66235,4.074835 -2.43899,12.84001 -5.32142,15.039718 -0.90245,0.688693 -2.26966,3.113895 -3.03826,5.389339 -1.25889,3.726951 -1.21536,4.511537 0.43903,7.912774 1.01007,2.076583 2.47988,4.489857 3.26625,5.362831 0.78637,0.872974 1.71601,2.734672 2.06586,4.137105 0.50153,2.01045 0.14662,2.81184 -1.67761,3.78814 -1.95593,1.04678 -3.54992,0.83152 -10.30818,-1.3921 -8.65119,-2.84642 -16.00893,-4.194044 -27.03896,-4.95237 l -7.04449,-0.484315 -1.6983,5.245385 c -0.93406,2.88496 -1.85521,6.59538 -2.04698,8.24538 -0.43046,3.70351 -1.2254,5.99969 -3.6351,10.5 -1.70502,3.18425 -2.21818,3.47089 -5.68829,3.17728 -2.09782,-0.17749 -4.1378,-0.84629 -4.53329,-1.48621 -0.3955,-0.63993 -3.55183,-1.6802 -7.01408,-2.31171 -5.11442,-0.93287 -6.80141,-0.88857 -8.99533,0.23622 -1.48519,0.76143 -3.83242,1.38442 -5.21607,1.38442 -1.38366,0 -4.10745,0.75903 -6.05287,1.68674 -3.38755,1.61541 -3.59909,1.60484 -5.00212,-0.25 -3.6349,-4.8054 0.0885,-7.96688 11.2433,-9.5466 3.64587,-0.51632 8.97393,-2.20019 12.11754,-3.82962 3.08581,-1.59946 6.58149,-3.18454 7.76818,-3.52238 1.8038,-0.51354 4.03362,-3.38415 3.11592,-4.01134 -0.15045,-0.10283 -4.54854,0.38663 -9.77354,1.08768 -11.58211,1.55399 -20.33614,1.70569 -24.429,0.42332 -11.41831,-3.57757 -19.68852,-6.586698 -23.571,-8.576336 -2.475,-1.268353 -6.975,-2.826067 -10,-3.461585 -3.025,-0.635518 -6.175,-1.403629 -7,-1.706914 -0.825,-0.303286 -3.36882,-0.461972 -5.65292,-0.352638 -2.35853,0.112898 -6.24725,-0.683581 -9,-1.84336 C 759.43099,85.761795 748.40704,84.27245 730,84.051346 c -14.74034,-0.17706 -13.94721,-0.227428 -24.5,1.555872 -11.66294,1.970901 -21.40123,5.020052 -29.5,9.236729 -3.575,1.861347 -9.2,4.749792 -12.5,6.418763 -3.3,1.66898 -6.675,3.42049 -7.5,3.89226 -0.825,0.47177 -2.175,1.12482 -3,1.45122 -10.06711,3.98297 -14,5.85402 -14,6.66041 0,0.55192 1.17969,0.67606 2.75,0.28938 8.74391,-2.15315 8.6134,-2.18277 7.96577,1.80808 -0.55528,3.42181 0.41375,4.85342 1.78423,2.63594 0.33992,-0.55 1.68992,-1 3,-1 1.31008,0 2.66008,0.45 3,1 0.33992,0.55 1.68992,1 3,1 1.31008,0 2.64401,0.424 2.96429,0.94222 0.32028,0.51822 2.66301,1.25424 5.20607,1.6356 2.54306,0.38135 5.79507,1.30458 7.22669,2.05162 1.43162,0.74703 3.63584,1.36101 4.89826,1.3644 2.12765,0.006 2.23722,-0.26776 1.5,-3.74384 -1.0066,-4.74624 -0.62385,-15.31617 0.73771,-20.37261 0.98705,-3.665658 3.11631,-5.062812 4.44336,-2.915601 0.38054,0.61572 1.50466,0.61572 3.12412,0 4.29536,-1.633091 6.40019,-1.20897 6.39318,1.288211 -0.004,1.43068 -1.05784,2.84815 -2.89397,3.89263 -5.14362,2.92595 -5.14993,12.55408 -0.012,18.35737 6.27081,7.0829 6.85234,7.5 10.45657,7.5 2.53803,0 4.21079,-0.67908 5.5424,-2.25 l 1.90724,-2.25 2.67087,3 2.67087,3 14.24273,-0.0578 c 14.91304,-0.0605 15.30043,-0.14266 27.92164,-5.9212 2.75,-1.25906 6.14275,-2.55116 7.53944,-2.87132 2.48581,-0.56981 4.84729,-2.46723 7.25652,-5.83054 1.69746,-2.36966 4.73381,-2.64072 6.0714,-0.54199 0.89733,1.40795 0.68983,2.54516 -0.99882,5.47393 -1.17231,2.03323 -2.74731,3.98421 -3.5,4.3355 C 767.82866,128.8389 763,131.46562 763,132.08689 c 0,0.41481 1.33939,1.04838 2.97641,1.40793 2.20104,0.48343 4.61073,-0.1261 9.25,-2.33975 3.45048,-1.64642 8.29859,-3.23713 10.77359,-3.53493 9.17333,-1.10374 17.62406,-3.28088 21.76184,-5.60644 3.43304,-1.92948 4.78836,-2.20629 6.9979,-1.42923 3.18994,1.12184 3.64181,3.71452 0.74464,4.27246 -1.0976,0.21138 -3.07078,1.23004 -4.38486,2.2637 -1.31408,1.03365 -3.42426,1.87937 -4.68928,1.87937 -1.26502,0 -3.56684,0.48374 -5.11514,1.07499 -1.54831,0.59124 -3.9401,1.23198 -5.3151,1.42387 -1.375,0.19189 -5.425,1.0515 -9,1.91024 -3.575,0.85873 -7.625,1.57556 -9,1.59294 -2.47584,0.0313 -14.559,5.55714 -17.5137,8.00933 -0.84337,0.69993 -3.30998,1.39914 -5.48137,1.5538 -2.17138,0.15467 -6.32329,0.74095 -9.22645,1.30286 -7.09942,1.3741 -17.18908,2.38772 -17.79117,1.78731 z M 738.25,140.63506 c 2.77468,0.0786 3.8142,-1.36717 1.5,-2.08622 -3.13306,-0.97347 -21.39296,-1.4592 -22.72104,-0.6044 -2.14812,1.38261 -1.10209,1.89996 4.77926,2.36378 2.88592,0.22759 5.54,0.70667 5.89795,1.06462 0.35795,0.35795 2.258,0.32085 4.22232,-0.0824 1.96433,-0.40329 4.80901,-0.69819 6.32151,-0.65535 z M 745,139 c 0,-0.55 -0.47656,-1 -1.05902,-1 -0.58246,0 -0.7809,0.45 -0.44098,1 0.33992,0.55 0.81648,1 1.05902,1 0.24254,0 0.44098,-0.45 0.44098,-1 z m 14.44374,-3.61678 c 1.20756,-0.46339 1.33407,-0.94602 0.50867,-1.94056 -1.31218,-1.58108 -3.95241,-0.8033 -3.95241,1.16433 0,1.51674 0.95375,1.73172 3.44374,0.77623 z m 79.88362,-37.349176 c 4.13719,-0.677567 6.35654,-0.623887 7.6519,0.185077 1.43309,0.894978 2.38197,0.774209 4.42264,-0.562889 1.42896,-0.936286 2.5981,-2.351131 2.5981,-3.144101 0,-1.99488 3.12531,-3.47521 7.13541,-3.379751 1.85052,0.04405 7.18959,-0.37927 11.86459,-0.940713 9.58451,-1.151048 10.36022,-1.205897 18,-1.272738 4.53149,-0.03965 5.98426,-0.509922 8.25,-2.670616 C 900.7625,84.805941 902,83.035009 902,82.312909 902,81.590809 902.47656,81 903.05902,81 c 0.58246,0 0.78875,-0.437289 0.45844,-0.971754 -0.33032,-0.534465 0.14187,-2.104881 1.04931,-3.489813 1.54677,-2.36066 1.53854,-2.560791 -0.13162,-3.201693 -0.97984,-0.375999 -4.51609,-0.218267 -7.85834,0.350515 -3.34224,0.568783 -7.65181,0.867035 -9.57681,0.662784 -1.925,-0.204251 -4.175,-0.413301 -5,-0.464556 -0.825,-0.05125 -3.67601,-0.708638 -6.33558,-1.460852 -2.65957,-0.752214 -7.60957,-1.839849 -11,-2.416967 -7.76383,-1.321556 -27.26215,-5.888578 -30.94186,-7.247398 -1.52759,-0.564101 -5.35259,-3.462849 -8.5,-6.441663 C 822.07515,53.339789 818.2625,50.643247 816.75,50.326289 815.2375,50.00933 814,49.157808 814,48.434017 c 0,-1.81114 -1.32631,-2.468412 -2.9527,-1.46325 -1.10492,0.682877 -0.97179,1.492033 0.71615,4.352876 1.96878,3.336838 1.98523,3.593822 0.32621,5.095216 -2.57607,2.331315 -3.6849,1.972119 -6.13126,-1.986177 -2.71777,-4.39744 -7.477,-7.610115 -15.9584,-10.772572 -6.72296,-2.506788 -15.46124,-3.340858 -16.54971,-1.579673 -0.34196,0.553298 0.46015,2.449048 1.78246,4.212779 3.17899,4.240207 2.36828,8.016969 -3.13078,14.584995 -3.09005,3.690723 -6.17296,5.936316 -11.88703,8.658509 -8.01127,3.81659 -10.45173,4.874533 -13.5481,5.873128 -3.90485,1.259336 -0.39696,3.823328 5.0336,3.67917 1.21024,-0.03213 2.47884,0.392042 2.8191,0.942597 0.34026,0.550555 1.08047,0.715592 1.64491,0.366749 0.56444,-0.348844 1.99585,-0.193538 3.1809,0.345122 6.39887,2.908572 9.68854,3.391275 15.24729,2.237283 3.06402,-0.636089 6.77164,-0.849759 8.23916,-0.47482 1.46751,0.374938 3.3432,0.845807 4.1682,1.046375 7.45623,1.812705 12.48356,3.575315 13.9293,4.883689 C 801.8798,89.296206 803.22758,90 803.92437,90 c 0.69679,0 2.46556,0.853527 3.93059,1.896726 3.40602,2.425294 17.57701,6.914088 22.14504,7.014644 1.925,0.04237 6.12231,-0.352421 9.32736,-0.877326 z M 727.35748,74.044606 c 1.02161,-0.849533 3.27161,-1.589853 5,-1.645155 12.56186,-0.401931 25.93679,-5.066969 30.85188,-10.760815 4.02683,-4.664855 3.74046,-8.824778 -0.84992,-12.346004 C 760.35713,47.756684 757.76963,45.6 756.60944,44.5 755.44925,43.4 752.925,42.411008 751,42.30224 c -1.925,-0.108768 -4.85,-0.333768 -6.5,-0.5 -2.45516,-0.24735 -3.05762,0.103236 -3.31728,1.930412 -0.4175,2.937911 -6.76685,8.098705 -10.92319,8.878439 -3.59488,0.674402 -8.8177,-1.017319 -9.62347,-3.117132 -0.27921,-0.727609 0.37608,-3.048909 1.45622,-5.158443 L 724.05615,40.5 715.77807,39.489801 c -5.60764,-0.684318 -9.98377,-1.905597 -13.56556,-3.785845 -2.90812,-1.526605 -5.72062,-2.507958 -6.25,-2.180784 -1.13327,0.700395 -1.30118,5.159642 -0.21251,5.643495 C 696.1625,39.35 697.56606,41.975 698.86903,45 c 1.30297,3.025 2.91205,6.625 3.57575,8 0.6637,1.375 1.80716,4.4125 2.54103,6.75 0.73387,2.3375 1.67653,4.25 2.09479,4.25 0.41827,0 1.06899,1.404616 1.44606,3.121369 0.40585,1.847835 1.45828,3.323438 2.57945,3.616631 1.04164,0.272394 1.89389,1.112461 1.89389,1.866814 0,0.823289 1.57428,1.623288 3.93827,2.001305 2.16605,0.346365 4.19637,1.302364 4.51183,2.124442 0.60452,1.575351 0.99812,1.396388 5.90738,-2.685955 z m -66.32686,38.586014 c -1.93945,-1.93945 -1.15593,-6.31849 1.4342,-8.01561 3.35804,-2.20028 8.2103,-2.09058 9.4434,0.21349 1.10788,2.0701 -1.92312,8.10853 -4.14352,8.25483 -0.69559,0.0458 -2.26342,0.19462 -3.48408,0.33063 -1.22065,0.13601 -2.68315,-0.21649 -3.25,-0.78334 z M 499,75.035184 c 0,-1.175791 3.95774,-3.410775 4.70918,-2.659332 0.29585,0.29584 0.27143,1.232299 -0.0543,2.08102 C 503.01501,76.124456 499,76.623268 499,75.035184 Z" id="path12"/>
</svg>
