<?xml version="1.0" encoding="utf-8"?>
<!-- Created with Inkscape (http://www.inkscape.org/) -->
<svg xmlns="http://www.w3.org/2000/svg" xmlns:cc="http://creativecommons.org/ns#" xmlns:dc="http://purl.org/dc/elements/1.1/" xmlns:inkscape="http://www.inkscape.org/namespaces/inkscape" xmlns:rdf="http://www.w3.org/1999/02/22-rdf-syntax-ns#" xmlns:sodipodi="http://sodipodi.sourceforge.net/DTD/sodipodi-0.dtd" xmlns:svg="http://www.w3.org/2000/svg" height="459" id="svg2" version="1.1" viewBox="0 0 952 459" width="952" sodipodi:docname="illustration-calico-pie-4.svg" inkscape:version="0.92.4 (5da689c313, 2019-01-14)">
	<metadata id="metadata8">
		<rdf:RDF>
			<cc:Work rdf:about="">
				<dc:format>image/svg+xml</dc:format>
				<dc:type rdf:resource="http://purl.org/dc/dcmitype/StillImage"/>
				<dc:title/>
			</cc:Work>
		</rdf:RDF>
	</metadata>
	<defs id="defs6"/>
	<sodipodi:namedview bordercolor="#666666" borderopacity="1" gridtolerance="10" guidetolerance="10" id="namedview4" objecttolerance="10" pagecolor="#ffffff" showgrid="false" inkscape:current-layer="svg2" inkscape:cx="480.3871" inkscape:cy="229.5" inkscape:pageopacity="0" inkscape:pageshadow="2" inkscape:window-height="1010" inkscape:window-maximized="1" inkscape:window-width="1920" inkscape:window-x="0" inkscape:window-y="0" inkscape:zoom="1.28943"/>
	<path d="m 634.10507,450.84461 c -1.31721,-0.48806 -3.22971,-0.62244 -4.25,-0.29861 C 626.71819,451.54161 624,450.09623 624,447.43261 624,445.73191 624.55694,445 625.85106,445 c 1.01808,0 3.94308,-1.11234 6.5,-2.47187 2.55692,-1.35952 4.64894,-2.20442 4.64894,-1.87755 0,1.2336 3.36286,-2.26513 5.63177,-5.85932 2.74492,-4.34823 4.71533,-9.53172 7.33322,-19.29126 3.14412,-11.72134 3.08283,-12.61562 -0.96499,-14.08089 -5.77258,-2.0896 -7.53325,-1.71395 -10.63131,2.26829 -1.57778,2.02807 -3.41524,4.61557 -4.08325,5.75 -0.66802,1.13443 -1.23052,1.64091 -1.25,1.12551 -0.0195,-0.5154 -1.27294,0.21106 -2.78544,1.61435 -4.34858,4.03461 -6.83481,4.15207 -10.30436,0.48686 -1.64736,-1.74027 -3.74545,-5.2475 -4.66242,-7.79385 -0.91697,-2.54634 -3.33071,-6.58053 -5.36387,-8.96485 -3.21294,-3.76788 -3.9075,-4.16015 -5.308,-2.99783 C 603.72511,393.6431 603,395.33376 603,396.6646 c 0,1.33085 -0.64627,5.66325 -1.43616,9.62756 -0.78988,3.96431 -1.64774,8.94962 -1.90634,11.07847 -0.2586,2.12885 -1.07483,4.43224 -1.81384,5.11865 -2.21883,2.0609 -7.58468,3.42701 -11.17335,2.84465 -2.51676,-0.40842 -4.36123,0.0769 -7.27124,1.91333 -2.14449,1.35331 -4.94114,2.79101 -6.21478,3.19489 -1.27363,0.40388 -3.88766,2.11453 -5.80894,3.80144 -3.23306,2.83866 -3.61499,2.94534 -5.12797,1.43236 -1.51298,-1.51298 -1.45273,-1.82921 0.80894,-4.24585 1.34403,-1.43611 5.36868,-4.69388 8.94368,-7.23949 5.78091,-4.11633 7.14654,-4.64997 12.34419,-4.82366 7.15816,-0.2392 10.65581,-2.86718 10.65581,-8.00632 0,-1.8099 0.63661,-5.21896 1.41469,-7.57568 2.35526,-7.1338 3.54578,-14.7292 4.11503,-26.25345 0.32527,-6.58494 1.12699,-12.14153 2.00604,-13.90364 0.80533,-1.61432 1.46424,-3.58403 1.46424,-4.37713 0,-0.79309 0.94406,-2.76779 2.0979,-4.38822 4.1236,-5.79106 0.0694,-10.77159 -9.33908,-11.47303 -3.65715,-0.27266 -6.2344,0.12676 -8.46198,1.3114 -3.01669,1.60431 -3.16927,1.95067 -2.62112,5.9499 0.53969,3.93743 0.39488,4.2934 -1.99001,4.89196 -1.41462,0.35505 -3.04762,0.35162 -3.62887,-0.008 -1.53843,-0.9508 -1.29309,-7.17759 0.41278,-10.47637 1.84886,-3.5753 5.89288,-5.05335 15.81276,-5.77939 l 7.78237,-0.56959 4.52499,4.72253 c 4.23334,4.41817 4.6663,4.63088 6.71762,3.30045 1.59749,-1.03609 2.94821,-1.16716 4.97626,-0.48289 4.1358,1.39544 5.55797,-0.25965 4.7189,-5.49176 -0.37558,-2.34196 -1.7155,-6.19991 -2.9776,-8.57321 -1.59956,-3.00788 -1.97731,-4.63251 -1.24695,-5.36287 0.57627,-0.57627 1.52198,-0.75469 2.10157,-0.39648 1.38253,0.85445 5.57851,9.2568 6.52915,13.07445 0.99646,4.00168 5.01952,9.15295 8.5905,10.99958 2.06655,1.06865 4.84378,1.36352 9.6983,1.02971 3.74138,-0.25728 7.13397,-0.48161 7.53909,-0.49853 0.40512,-0.0169 1.36309,-1.5302 2.12882,-3.36286 1.60996,-3.85317 6.022,-7.6679 8.86855,-7.6679 1.08032,0 3.90523,2.05487 6.27757,4.56638 l 4.31336,4.56637 4.0735,-1.22045 c 4.7177,-1.41346 6.63353,-3.8613 7.38323,-9.43351 0.47341,-3.51872 2.194,-11.71843 4.71683,-22.47879 0.45133,-1.925 1.50206,-6.56262 2.33496,-10.30583 1.71939,-7.72722 3.11033,-9.92022 6.02073,-9.49243 2.69937,0.39677 6.95337,9.13571 9.69903,19.92456 1.17207,4.60554 3.30908,10.10925 4.74893,12.23048 l 2.61791,3.85678 2.54,-2.9599 c 3.63741,-4.23874 12.29272,-16.15525 13.93291,-19.18267 0.7661,-1.41405 3.23907,-4.82099 5.4955,-7.57099 4.66443,-5.68473 4.21646,-5.16554 11.77421,-13.64602 7.4658,-8.3773 18.63725,-21.7785 22.12767,-26.54421 1.53465,-2.09537 4.5076,-6.05977 6.60654,-8.80977 2.09894,-2.75 4.65821,-6.79522 5.68725,-8.98938 C 788.81389,239.75614 796.98612,231 799.19372,231 c 3.6441,0 5.534,7.0567 3.1245,11.66655 -1.86435,3.56688 -1.19844,7.97884 1.95926,12.98095 1.34092,2.12417 3.18962,6.44746 4.10822,9.60731 1.78715,6.14758 3.12813,7.15412 4.54973,3.41503 0.98071,-2.57948 14.05205,-14.47094 18.20411,-16.56093 1.45175,-0.73075 3.12242,-2.38843 3.71259,-3.68372 1.34647,-2.95517 10.29573,-8.88062 15.84608,-10.49195 4.89489,-1.42104 9.51661,-0.0612 11.8391,3.48336 2.04486,3.12084 1.30699,11.18354 -1.25822,13.74876 -2.50511,2.50511 -3.9714,1.80138 -5.06853,-2.43257 l -0.8211,-3.16875 -2.40653,4.96798 c -2.57005,5.30553 -2.67677,9.22556 -0.37248,13.68156 0.77456,1.49783 1.6424,6.67503 1.92854,11.50488 0.28614,4.82985 0.95692,11.22669 1.49063,14.2152 0.53371,2.98851 0.98469,7.48851 1.00218,10 0.032,4.59496 1.6915,8.06634 3.85611,8.06634 0.64209,0 6.19989,-2.29905 12.35067,-5.10899 13.1258,-5.99644 21.09658,-8.67787 28.31909,-9.52673 4.84211,-0.5691 5.35779,-0.42293 6.92009,1.96144 0.93858,1.43244 1.41971,3.42195 1.08363,4.48084 -0.33245,1.04747 -4.70652,6.13201 -9.72015,11.29897 -5.01363,5.16696 -10.27536,10.96947 -11.69274,12.89447 -1.41738,1.925 -4.28063,5.40245 -6.36278,7.72766 -6.43511,7.18633 -4.87997,9.53071 3.78129,5.70029 7.47824,-3.30723 10.43299,-2.73556 10.43299,2.01852 0,4.19588 -1.93489,5.84613 -13.45141,11.47254 -9.38329,4.58422 -12.95162,8.32624 -12.22658,12.82173 0.93953,5.82542 2.76272,11.09726 4.68138,13.53644 1.09814,1.39605 1.99661,3.2548 1.99661,4.13055 0,1.08325 0.90951,1.59227 2.84501,1.59227 3.79448,0 6.58854,3.13648 5.75446,6.45971 -0.43025,1.71426 -1.36301,2.57801 -2.86852,2.65629 -1.52814,0.0795 -1.71153,0.25393 -0.58214,0.55384 0.94642,0.25132 1.92822,1.92721 2.3047,3.93402 0.49952,2.6627 1.06005,3.37958 2.35119,3.00704 4.11978,-1.1887 17.05017,-2.51044 20.6953,-2.11546 8.94391,0.96913 10.65345,1.6463 11.69435,4.63223 1.18643,3.4034 1.74506,3.48791 5.99024,0.90627 2.98992,-1.81828 3.36757,-1.84421 5.02417,-0.34501 2.40076,2.17266 2.27215,2.99666 -0.95876,6.14256 -4.00558,3.90019 -8.57977,5.74172 -19.09546,7.68766 -5.14001,0.95116 -10.7555,2.4328 -12.47888,3.29254 -2.94525,1.46928 -11.39609,2.32408 -23.42566,2.36948 -3.2961,0.0124 -5.25,0.45031 -5.25,1.17653 0,0.76384 -1.58931,1.03031 -4.67936,0.78455 -3.27839,-0.26074 -4.99989,0.0628 -5.75,1.08075 -0.6784,0.92063 -3.72729,1.67419 -8.3222,2.05691 -3.98836,0.33219 -7.81336,0.95343 -8.5,1.38053 -0.68664,0.4271 -3.27344,0.8478 -5.74844,0.9349 -2.475,0.0871 -9.225,0.45072 -15,0.80806 -5.775,0.35734 -30.075,0.88313 -54,1.16841 -44.96836,0.5362 -45.63437,0.56341 -57.83242,2.36274 -4.03283,0.59489 -7.70757,0.84975 -8.16608,0.56637 -0.45852,-0.28337 -2.00375,-0.0704 -3.43385,0.47336 -1.4301,0.54372 -6.40382,1.20984 -11.05269,1.48027 -4.64888,0.27042 -9.47906,0.73076 -10.73374,1.02298 -1.25467,0.29221 -4.30622,0.74064 -6.78122,0.9965 -6.6981,0.69244 -17.10248,3.11872 -21.56396,5.02868 -8.4592,3.62137 -10.91514,4.23704 -13.33097,3.3419 z m 9.61328,-8.35989 c 3.15242,-2.20804 17.89097,-6.27094 25.23832,-6.95732 3.48653,-0.3257 6.61009,-0.75953 6.94124,-0.96407 0.33115,-0.20453 2.85209,-0.62515 5.60209,-0.93472 2.75,-0.30956 8.6,-1.21263 13,-2.00681 7.02427,-1.26784 11.67946,-1.81512 26.5,-3.11539 1.925,-0.16889 9.575,-1.00669 17,-1.86178 7.425,-0.8551 18.45,-1.65838 24.5,-1.78509 6.05,-0.12671 11.9,-0.67476 13,-1.2179 1.1,-0.54313 9.2,-1.09801 18,-1.23306 10.31065,-0.15823 18.17655,-0.79308 22.12105,-1.78537 8.34325,-2.09885 20.4167,-2.14664 28.87895,-0.11429 4.78925,1.15021 8.57911,1.45908 12,0.97798 2.75,-0.38675 7.025,-0.87544 9.5,-1.08598 2.475,-0.21054 6.75,-1.02507 9.5,-1.81007 2.75,-0.785 10.82246,-2.13404 17.93881,-2.99787 7.11635,-0.86383 13.3186,-1.95039 13.78278,-2.41457 1.21848,-1.21848 -0.10215,-4.00573 -2.21582,-4.67658 -0.99521,-0.31587 -6.43161,0.11681 -12.0809,0.96151 -9.59282,1.43434 -10.50384,1.42022 -13.7891,-0.21377 C 875.15922,407.27177 869,398.93483 869,395.5301 c 0,-1.96937 -0.65789,-2.33054 -5.25,-2.88212 -2.8875,-0.34683 -9.1324,-0.63451 -13.87756,-0.63929 -9.6508,-0.01 -10.01703,-0.22462 -11.94425,-7.00869 -2.37163,-8.34847 -4.98297,-9.7044 -13.56233,-7.04221 -3.22622,1.0011 -8.11586,2.11246 -10.86586,2.46968 -2.75,0.35723 -8.6,1.3025 -13,2.10059 -4.4,0.7981 -9.78403,1.72388 -11.96451,2.05729 -2.18048,0.33341 -7.35548,1.50932 -11.5,2.61313 -4.14452,1.10381 -9.16671,2.34 -11.16043,2.74708 -3.42241,0.6988 -9.87506,4.48418 -9.87506,5.79311 0,0.33137 2.33095,2.69023 5.17989,5.24192 3.71804,3.3301 4.99688,5.11637 4.53139,6.32942 -0.91765,2.39134 -3.67125,2.09541 -6.65656,-0.71539 -1.4051,-1.32296 -5.24985,-3.8507 -8.54389,-5.6172 -6.17928,-3.31377 -8.5621,-3.49647 -20.01083,-1.53426 -11.37385,1.94938 -27.25344,2.9836 -47.80344,3.11338 -13.09189,0.0827 -24.1656,0.55379 -24.60824,1.0469 -0.44265,0.49311 -1.36851,3.82156 -2.05748,7.39656 -2.93219,15.21486 -6.40837,23.55652 -11.97641,28.73933 -4.44902,4.14122 -4.64786,5.76548 -0.33608,2.74539 z M 781.25,427.33772 c -0.6875,-0.27741 -1.8125,-0.27741 -2.5,0 -0.6875,0.27741 -0.125,0.50439 1.25,0.50439 1.375,0 1.9375,-0.22698 1.25,-0.50439 z M 830,424 c 0,-0.55 -0.675,-1 -1.5,-1 -0.825,0 -1.5,0.45 -1.5,1 0,0.55 0.675,1 1.5,1 0.825,0 1.5,-0.45 1.5,-1 z M 626.40263,399.511 c -0.37051,-8.77741 -0.67667,-9.511 -3.96936,-9.511 -2.01089,0 -2.98337,-1.10375 -5.43911,-6.17334 -2.61749,-5.4035 -2.81204,-6.37042 -1.56006,-7.75384 1.62087,-1.79104 1.43402,-11.69919 -0.27833,-14.75891 -0.91825,-1.64079 -1.11729,-1.54523 -2.08545,1.00119 -0.58868,1.5483 -1.07032,3.43425 -1.07032,4.19098 0,2.26178 -1.73209,2.62643 -2.29269,0.48267 -0.82065,-3.13816 -2.44965,-2.32152 -2.8898,1.44869 -0.25921,2.22028 0.57695,5.8497 2.36144,10.25 1.5195,3.74691 2.77586,7.49977 2.79189,8.3397 0.0563,2.94817 5.71115,7.97286 8.97279,7.97286 1.681,0 3.05637,0.45 3.05637,1 0,0.55 -0.70532,1 -1.56739,1 -1.08883,0 -1.38191,0.58438 -0.95991,1.914 0.33412,1.05269 0.78851,3.64019 1.00978,5.75 0.22126,2.1098 0.42822,3.96433 0.4599,4.12118 0.0317,0.15685 0.89509,-0.16301 1.91866,-0.71081 1.61082,-0.86209 1.81808,-2.0134 1.54159,-8.56337 z M 683,397 c 0,-0.55 -0.9,-1 -2,-1 -1.1,0 -2,0.45 -2,1 0,0.55 0.9,1 2,1 1.1,0 2,-0.45 2,-1 z m 14.44026,-7.382 c -0.36139,-1.4399 -1.05829,-2.618 -1.54867,-2.618 -1.15664,0 -1.12597,0.39149 0.27085,3.45717 1.4372,3.15431 2.16084,2.67907 1.27782,-0.83917 z m -12.30607,-4.00535 c 0.55195,-2.07968 0.21508,-3.96786 -1.20426,-6.75 -1.08382,-2.12446 -2.19757,-3.86265 -2.475,-3.86265 -0.27744,0 -0.93216,1.125 -1.45493,2.5 -1.25059,3.28929 -2.49988,3.15522 -4.65907,-0.5 -0.97468,-1.65 -2.34155,-3 -3.03749,-3 -2.50926,0 -2.92505,-8.14886 -0.7604,-14.90267 0.74822,-2.33451 0.64873,-2.38639 -3.50757,-1.82891 -2.3527,0.31556 -4.74137,1.03748 -5.30816,1.60427 -0.56679,0.56679 -1.24617,6.62829 -1.50973,13.47001 -0.55986,14.53326 -2.09452,12.7904 13.78242,15.65233 7.36922,1.32836 9.2678,0.88203 10.13419,-2.38238 z M 654.77357,384.75 c 0.56016,-0.6875 1.17776,-6.875 1.37245,-13.75 l 0.35398,-12.5 -4.85594,-0.30912 c -6.03633,-0.38426 -8.25419,1.37536 -8.98425,7.12793 -0.29185,2.29966 -0.83493,5.63793 -1.20684,7.41839 -1.02542,4.90896 0.18925,7.94758 4.29123,10.73494 4.05564,2.75588 7.43541,3.2342 9.02937,1.27786 z m 71.3485,-1.425 c -0.87155,-1.49877 -1.06669,-1.54197 -1.09166,-0.24167 -0.0323,1.68408 1.01919,3.2004 1.72792,2.49167 0.23375,-0.23375 -0.0526,-1.24625 -0.63626,-2.25 z m 30.52903,-4.33252 c 4.76446,-3.84871 17.58997,-21.54717 23.98104,-33.09247 C 787.53463,333.43086 792,324.41898 792,322.95774 c 0,-1.09243 2.91516,-7.11649 9.33676,-19.29401 1.98274,-3.75994 3.91368,-8.48494 4.29098,-10.5 0.3773,-2.01505 1.60232,-4.90432 2.72226,-6.4206 1.45504,-1.96995 1.72874,-3.06439 0.95886,-3.83427 -0.76987,-0.76987 -1.52669,-0.43596 -2.65143,1.16984 -0.86571,1.23598 -1.37452,2.57005 -1.13067,2.96459 0.24384,0.39455 -2.44564,3.80872 -5.97664,7.58704 -3.53099,3.77832 -7.88932,9.34467 -9.68518,12.36967 -5.46696,9.20873 -16.56596,26.59701 -28.51391,44.6714 C 755.10796,361.11567 750,369.34965 750,369.96915 c 0,0.61949 -1.18645,2.22591 -2.63655,3.56982 -3.10276,2.87554 -3.87073,7.24301 -1.69614,9.64591 1.45434,1.60702 1.72789,1.60719 4.72102,0.003 1.74748,-0.93659 4.56572,-2.82451 6.26277,-4.19537 z m 105.44495,4.31147 c 0.69899,-0.69899 0.4624,-3.13276 -0.74503,-7.6641 C 859.98125,370.49928 859.16616,369 857.74122,369 c -2.08142,0 -6.94958,2.35493 -10.88913,5.26751 -2.28941,1.6926 -2.53203,2.36169 -1.79201,4.94199 0.47075,1.64138 1.30985,3.53131 1.86467,4.19983 1.22815,1.47983 13.67253,1.39339 15.1713,-0.10538 z M 711.4741,379.75 c -0.81697,-3.87723 -2.48034,-6.04057 -2.46045,-3.2 0.022,3.14045 1.14182,6.45 2.18244,6.45 0.56007,0 0.67636,-1.35949 0.27801,-3.25 z m -78.01284,-4.9315 C 634.30757,371.96867 635,368.52393 635,367.16351 c 0,-2.45139 -0.0188,-2.45647 -2.10641,-0.5685 -2.38496,2.15691 -5.89359,8.5816 -5.89359,10.79183 0,1.26084 1.27824,2.0188 4.21126,2.49716 0.39119,0.0638 1.40369,-2.21568 2.25,-5.0655 z m 62.88808,2.64947 C 696.03951,376.66059 695.38417,376 694.89301,376 c -1.0261,0 -1.20654,2.35313 -0.25353,3.30615 1.06676,1.06675 2.31121,-0.27108 1.70986,-1.83818 z m 35.63535,1.28203 c -0.008,-0.6875 -0.45153,-1.925 -0.98469,-2.75 -0.75538,-1.16887 -0.97275,-0.89294 -0.98469,1.25 -0.008,1.5125 0.43469,2.75 0.98469,2.75 0.55,0 0.99311,-0.5625 0.98469,-1.25 z M 725,377 c 0,-0.55 -0.47656,-1 -1.05902,-1 -0.58246,0 -0.7809,0.45 -0.44098,1 0.33992,0.55 0.81648,1 1.05902,1 0.24254,0 0.44098,-0.45 0.44098,-1 z m 55.83466,-5.97993 c 0.18407,-1.23791 -0.15664,-2.74205 -0.75714,-3.34255 -2.08805,-2.08805 -4.79802,2.89063 -4.18821,7.69445 0.21854,1.72154 4.61794,-2.14993 4.94535,-4.3519 z M 725,373.05902 c 0,-2.28437 -1.57662,-3.55308 -2.51951,-2.02744 -0.84004,1.35919 0.1384,3.96842 1.48813,3.96842 0.56726,0 1.03138,-0.87344 1.03138,-1.94098 z m -99.3444,-1.56615 c 0.66674,-1.43754 0.77171,-2.72878 0.24812,-3.05237 C 625.172,367.98826 623,371.82148 623,373.5651 c 0,1.36079 1.66645,0.0604 2.6556,-2.07223 z m 104.59371,-0.969 C 729.98396,369.13574 729.36931,368 728.88342,368 c -1.01046,0 -1.20999,4.34009 -0.24394,5.30615 1.22306,1.22306 2.08931,-0.27407 1.60983,-2.78228 z m 62.34003,2.33158 c 0.30407,-0.492 0.0312,-2.47532 -0.60648,-4.40737 -0.63763,-1.93205 -1.15933,-6.64825 -1.15933,-10.48045 0,-3.8322 -0.39446,-6.96763 -0.87658,-6.96763 -1.55915,0 -2.91992,3.71229 -3.09931,8.45519 -0.0963,2.54604 -0.55142,4.86174 -1.01137,5.146 -1.10272,0.68152 -1.06191,3.67514 0.0915,6.70871 0.65398,1.72009 1.69212,2.4401 3.51824,2.4401 1.42478,0 2.8393,-0.40255 3.14338,-0.89455 z M 738,372 c 0,-0.55 -0.45,-1 -1,-1 -0.55,0 -1,0.45 -1,1 0,0.55 0.45,1 1,1 0.55,0 1,-0.45 1,-1 z m -20.31689,-2.1875 c -0.31922,-0.79773 -0.55618,-0.56078 -0.60416,0.60417 -0.0434,1.05416 0.19293,1.64479 0.52522,1.3125 0.33229,-0.33229 0.36781,-1.1948 0.0789,-1.91667 z m 84.13259,-0.10578 c 0.17364,-0.89516 -0.40284,-3.14177 -1.28106,-4.99248 -1.05406,-2.22126 -1.67117,-6.65282 -1.8157,-13.03868 -0.14512,-6.41225 -0.60107,-9.67405 -1.35236,-9.67465 -1.63831,-10e-4 -2.19693,4.15564 -2.01878,15.02278 0.1207,7.36226 0.575,10.20954 1.96829,12.33597 1.91082,2.91627 3.97044,3.07513 4.49961,0.34706 z m 8.83618,-1.17544 2.0969,-1.46873 -1.87439,-6.75963 C 809.84348,356.58512 809,350.77615 809,347.39409 c 0,-4.11275 -0.47367,-6.54231 -1.43026,-7.33621 -2.02334,-1.67922 -3.8869,2.11072 -3.89668,7.92472 -0.008,4.8558 1.24548,18.71325 1.87879,20.7674 0.51368,1.66615 2.53262,1.57956 5.10003,-0.21872 z m -107.52584,-6.4643 c 0.1805,-3.55476 -0.13931,-5.5714 -0.92509,-5.83333 -0.66052,-0.22017 -1.25028,0.42468 -1.31058,1.43302 -0.0603,1.00833 -0.26253,3.40833 -0.44941,5.33333 -0.18689,1.925 -0.12281,4.13775 0.1424,4.91722 0.91975,2.70317 2.2656,-0.39339 2.54268,-5.85024 z M 688.23976,363.25 c 0.62695,-5.12699 0.14956,-5.95163 -3.32576,-5.74488 -3.6083,0.21465 -4.67855,1.18873 -4.93868,4.49488 -0.36553,4.64579 -0.0882,5 3.91527,5 3.74761,0 3.90745,-0.13782 4.34917,-3.75 z m 7.60618,-0.75 c 0.16585,-4.38476 -1.04713,-6.02404 -2.21176,-2.98906 -0.69297,1.80584 0.31533,7.48906 1.32869,7.48906 0.39207,0 0.78946,-2.025 0.88307,-4.5 z m 20.28049,-1.77357 c -0.70658,-0.70658 -0.9239,-0.1189 -0.6922,1.87182 0.53905,4.63151 0.8362,5.09773 1.29378,2.02993 0.23559,-1.5795 -0.0351,-3.33529 -0.60158,-3.90175 z M 737,361 c 0,-7.81879 -1.45617,-7.81721 -1.64439,0.002 -0.0794,3.29902 0.25808,5.99821 0.75,5.99821 0.49191,0 0.89439,-2.7 0.89439,-6 z m -28.23997,2.23031 c -0.062,-0.95167 0.21203,-3.41781 0.60894,-5.48031 0.72689,-3.77721 -0.73684,-5.45521 -1.74462,-2 -0.48098,1.64906 -0.94718,7.79022 -0.72567,9.55902 0.19963,1.59404 1.97168,-0.38494 1.86135,-2.07871 z M 823.11842,362.75 c 0.15659,-1.6529 0.17623,-1.57349 -1.65987,-6.71136 -0.87689,-2.45374 -2.00313,-8.04559 -2.50277,-12.42632 -0.49963,-4.38073 -1.30218,-8.35872 -1.78345,-8.83999 -1.39508,-1.39508 -4.60874,4.39083 -4.29215,7.72767 0.30174,3.18027 3.87882,17.30104 4.73271,18.68267 0.27783,0.44953 1.15359,0.81733 1.94613,0.81733 0.79254,0 1.44098,0.45 1.44098,1 0,1.4596 1.97858,1.22611 2.11842,-0.25 z M 730,360.3 c 0,-2.01099 -0.28907,-2.41093 -1.13278,-1.56722 -0.62303,0.62303 -0.86216,1.83803 -0.53139,2.7 C 729.25126,363.81836 730,363.3087 730,360.3 Z m -13.31689,-4.4875 c -0.31922,-0.79773 -0.55618,-0.56078 -0.60416,0.60417 -0.0434,1.05416 0.19293,1.64479 0.52522,1.3125 0.33229,-0.33229 0.36781,-1.1948 0.0789,-1.91667 z m 8.03648,-2.59392 c -0.33407,-1.3836 -0.61667,-1.2313 -1.44986,0.78142 -0.5692,1.375 -0.80047,2.89529 -0.51393,3.37842 0.78407,1.32203 2.4403,-2.18631 1.96379,-4.15984 z m 6.05981,0.70309 c 0.27057,-2.34514 0.23106,-2.36032 -1.25,-0.48054 -1.85195,2.35051 -1.9804,3.87406 -0.2794,3.31388 0.6875,-0.22642 1.37573,-1.50142 1.5294,-2.83334 z m 101.62398,-3.85754 c -0.41221,-1.96027 -0.79604,-6.45271 -0.85296,-9.9832 -0.0951,-5.89753 -0.28538,-6.43248 -2.34227,-6.58401 -2.87629,-0.21191 -3.86847,1.05494 -5.12401,6.54245 -0.78256,3.42032 -0.72201,4.69385 0.25961,5.46063 1.86896,1.45991 2.72231,4.31131 1.42016,4.74536 -1.73083,0.57695 -0.0812,3.69929 2.46392,4.6635 3.47389,1.31608 5.07934,-0.54667 4.17555,-4.84473 z M 843.636,353.964 c 0.6687,-0.6687 0.73664,-2.7073 0.19164,-5.75 -0.46439,-2.5927 -1.12415,-7.639 -1.46611,-11.214 -0.96183,-10.05517 -3.66089,-11.85501 -4.94424,-3.29702 -0.47261,3.15162 -0.12834,7.10276 1.06534,12.22669 2.27046,9.74603 2.72814,10.45956 5.15337,8.03433 z m -89.46892,-7.29965 c 0.54723,-1.0096 0.76725,-2.06335 0.48894,-2.34166 -1.45444,-1.45444 -9.23883,6.92528 -8.11799,8.73884 0.73126,1.18321 5.84409,-3.10405 7.62905,-6.39718 z m 99.6703,1.79136 c 0.18556,-1.58953 -0.20183,-5.60483 -0.86087,-8.92288 -0.65903,-3.31806 -1.16478,-7.94533 -1.12387,-10.28283 0.0528,-3.01795 -0.33279,-4.25 -1.33012,-4.25 -0.77247,0 -1.66239,0.4173 -1.97762,0.92734 -1.04365,1.68866 -0.89233,16.81484 0.19727,19.7194 0.5887,1.56929 1.33778,3.67818 1.66462,4.68642 0.86609,2.67169 3.03831,1.4829 3.43059,-1.87745 z m 10.60632,-0.0423 c 2.98116,-2.98116 6.83602,-8.46706 6.31546,-8.98762 -0.78226,-0.78225 -9.45283,5.3335 -10.15471,7.16259 -1.25763,3.27732 1.21267,4.45161 3.83925,1.82503 z m -162.14477,-7.96564 3.79893,-0.68874 -0.18536,-6.62953 C 705.64426,323.53563 702.77846,310 701.01546,310 c -2.34158,0 -3.6065,3.97914 -6.45202,20.29655 -1.70268,9.76388 -1.32752,12.1 1.8221,11.34612 1.16295,-0.27837 3.82398,-0.81606 5.91339,-1.19487 z m 10.34255,-3.9559 c 0.31829,-0.82946 -0.1951,-3.13879 -1.14087,-5.13186 -2.69784,-5.68528 -4.13538,-1.70869 -1.94847,5.38996 0.53131,1.72463 2.38802,1.56951 3.08934,-0.2581 z m 45.04278,-1.29167 c 1.20134,-0.66009 3.2604,-1.2002 4.57568,-1.2002 2.70392,0 5.23465,-2.45808 9.26599,-9 1.52518,-2.475 3.0559,-4.725 3.4016,-5 C 775.93335,319.19989 787,304.20152 787,303.63847 c 0,-0.28085 3.15,-4.90657 7,-10.27938 3.85,-5.37282 7,-10.1066 7,-10.51952 0,-0.41291 1.15028,-2.44579 2.55618,-4.5175 2.27457,-3.35176 2.38282,-3.89351 0.98256,-4.9174 -0.86549,-0.63286 -2.61667,-3.57031 -3.89151,-6.52767 -4.99975,-11.59835 -6.18394,-13.84359 -7.14723,-13.55129 -0.55,0.1669 -3.13173,3.19939 -5.73718,6.73887 -2.60544,3.53948 -6.44976,8.68542 -8.54293,11.43542 -2.09316,2.75 -5.13643,7.025 -6.76282,9.5 -1.62639,2.475 -3.45694,4.95 -4.06789,5.5 -1.97896,1.78154 -6.98942,9.87086 -9.29089,15 -1.23393,2.75 -2.90219,6.125 -3.70725,7.5 -0.80505,1.375 -2.53775,4.84021 -3.85045,7.70046 -1.31269,2.86026 -3.99634,7.94687 -5.96365,11.30358 -4.00754,6.83783 -4.37621,8.69273 -1.82694,9.19214 2.83328,0.55505 11.56901,-0.69626 13.93426,-1.99595 z m -18.88159,-4.89526 C 741.79053,326.32849 753,306.89187 753,305.68755 c 0,-0.70815 0.40259,-1.71505 0.89465,-2.23755 1.41403,-1.50152 2.32302,-7.19744 1.25403,-7.85811 -0.53262,-0.32918 -2.9933,2.23913 -5.46818,5.70736 -2.47487,3.46823 -5.29447,6.95722 -6.26578,7.75331 -2.51931,2.06485 -13.47868,16.98547 -14.55459,19.81532 -1.37253,3.61004 0.40185,5.08795 4.89261,4.07512 2.03154,-0.45819 4.30401,-1.6453 5.04993,-2.63803 z M 802.5,332.56706 c 2.2,-0.77211 6.17481,-2.34056 8.83291,-3.48545 2.65809,-1.14488 6.19483,-2.08161 7.8594,-2.08161 2.844,0 2.99824,-0.19598 2.55775,-3.25 -0.74868,-5.19076 -7.85593,-24.12853 -9.57004,-25.5 -2.65764,-2.12641 -2.39113,-2.49125 -7.62699,10.44099 -1.15592,2.85504 -2.42822,5.51754 -2.82735,5.91666 -0.39912,0.39913 -0.72568,1.50874 -0.72568,2.4658 0,0.95706 -1.35027,4.7496 -3.00059,8.42787 -3.95746,8.82042 -3.3256,9.81241 4.50059,7.06574 z M 835,321.81029 c 6.8065,-1.89183 12.46664,-3.95268 13.72548,-4.99742 0.70099,-0.58177 1.27061,-3.14016 1.26583,-5.68531 -0.0101,-5.35631 -2.30201,-25.4285 -4.06816,-35.62756 -0.66669,-3.85 -1.29009,-7.92272 -1.38534,-9.0505 -0.32037,-3.79329 -1.45517,-4.53344 -6.09645,-3.97631 -8.02013,0.96274 -12.19397,3.31517 -15.96671,8.99904 -1.91106,2.87913 -3.47465,5.9206 -3.47465,6.75883 0,0.83823 -0.72286,2.12397 -1.60636,2.85721 -1.21237,1.00618 -1.49796,2.56911 -1.16441,6.37244 0.44409,5.06382 4.70282,20.44429 7.21008,26.03929 0.7394,1.65 2.10523,4.72137 3.03517,6.82528 1.28196,2.90033 2.09396,3.65995 3.35816,3.14155 0.91705,-0.37605 3.24236,-1.1215 5.16736,-1.65654 z m 33.59334,-0.13637 c 3.01042,-1.14245 9.40666,-5.9766 9.40666,-7.10936 0,-1.32732 -4.5164,-0.37885 -9.56193,2.00806 -3.81325,1.80396 -5.43807,3.1485 -5.43807,4.5 0,2.17293 1.1315,2.29457 5.59334,0.6013 z m -31.32547,-65.20997 c 4.3337,-2.94483 4.78334,-4.43959 1.22123,-4.05981 -2.78983,0.29745 -7.72537,4.40455 -6.89926,5.74122 0.80924,1.30938 1.63772,1.06405 5.67803,-1.68141 z M 75,433.55289 c 0,-1.33917 0.504064,-2.74638 1.120143,-3.12714 0.616078,-0.38076 7.478578,-0.87045 15.25,-1.0882 14.606747,-0.40927 29.945667,-1.79666 31.674107,-2.8649 2.49629,-1.54279 -0.61237,-2.63211 -5.69806,-1.9967 C 110.40311,425.34343 99,424.16522 99,422.58035 c 0,-0.82447 1.77134,-1.06644 5.80364,-0.79278 3.192,0.21664 11.4045,-0.29636 18.25,-1.13999 6.8455,-0.84364 15.25886,-1.82865 18.69636,-2.18892 11.21091,-1.17497 6.59353,-2.30581 -10,-2.4491 -18.40414,-0.15892 -22.22795,-0.40864 -36.239901,-2.36668 -5.494445,-0.7678 -10.556945,-1.1784 -11.25,-0.91245 C 83.567045,412.99638 83,412.49083 83,411.60699 c 0,-1.30854 1.160761,-1.60009 6.25,-1.56984 5.923519,0.0352 27.20105,1.53911 34.75,2.45613 5.84989,0.71062 13,-0.5418 13,-2.2771 0,-1.32124 0.24554,-1.30394 1.82874,0.12883 2.15682,1.95189 6.53762,2.25406 5.92243,0.4085 -0.22852,-0.68557 -2.40352,-1.93492 -4.83333,-2.77633 -3.44627,-1.19338 -4.48226,-2.07523 -4.71075,-4.00986 -0.37881,-3.20729 -4.49915,-5.55493 -13.23787,-7.54251 -9.33928,-2.12418 -10.12398,-3.31744 -5.70384,-8.67361 5.08107,-6.15706 16.30127,-17.59624 23.23462,-23.68809 6.49903,-5.71024 15.63983,-10.52616 22,-11.59091 2.2,-0.3683 6.63169,-1.32398 9.84821,-2.12374 10.90165,-2.71061 44.05917,-3.74711 63.65179,-1.98974 9.13883,0.81971 20.43596,4.53729 25,8.22682 1.18052,0.95432 2.8844,0.9074 8,-0.2203 9.17279,-2.0221 16.84087,-2.02089 20.75,0.003 1.7875,0.92557 3.25,2.31974 3.25,3.09815 0,2.25274 1.42395,2.54484 4.53573,0.93042 1.86003,-0.96499 4.16856,-1.28494 6.46811,-0.89643 3.28184,0.55446 3.71899,0.33266 5.31811,-2.69826 5.62677,-10.66482 10.09441,-15.28535 19.11852,-19.77279 9.6078,-4.77769 21.60423,-3.97728 28.6588,1.91213 2.92322,2.44042 3.04368,2.77246 1.54831,4.26783 -1.49537,1.49537 -1.9532,1.46099 -5.88455,-0.44192 -6.41458,-3.10488 -11.55791,-3.33041 -19.25346,-0.84424 -5.25174,1.69667 -7.69078,3.20159 -11.34944,7.0028 C 316.1056,354.17766 312,360.29257 312,362.56934 c 0,1.91383 3.36608,1.81002 7.29966,-0.22511 5.06145,-2.61867 12.67417,-4.31948 19.39132,-4.33236 6.31393,-0.0121 7.74811,0.6803 6.7573,3.26232 -0.40504,1.05551 -2.94411,1.60421 -9.25325,1.99967 -5.85015,0.36669 -10.03782,1.21357 -12.79912,2.58842 -4.15948,2.07099 -7.74907,6.31357 -7.70521,9.1069 0.049,3.12304 -7.87931,16.07699 -10.74757,17.56023 -3.6687,1.89716 -7.83903,1.87477 -9.96977,-0.0535 -2.06675,-1.8704 -4.97336,-0.9306 -4.97336,1.60803 0,2.17108 3.21035,4.49841 7.5,5.43708 7.2686,1.59054 12.34467,3.71514 14.32916,5.99751 2.03384,2.33911 2.64808,2.45301 12.40531,2.30018 9.28405,-0.14542 33.50762,0.90067 39.76553,1.71727 1.375,0.17942 3.0625,0.35723 3.75,0.39512 1.57498,0.0868 1.5924,2.48001 0.0491,6.7479 -1.19236,3.29743 -3.44907,4.27104 -5.39328,2.32683 -0.54679,-0.54679 -2.09929,-0.9629 -3.45,-0.9247 -1.3507,0.0382 -4.70583,0.13248 -7.45583,0.2095 -6.31893,0.17698 -15.39181,-0.781 -18,-1.90056 -3.41052,-1.46397 -36.9328,-1.10011 -38.769,0.4208 -0.87044,0.72098 -2.17851,1.19212 -2.90681,1.04698 -0.72831,-0.14515 -3.47891,0.70977 -6.11246,1.89982 -3.6901,1.66749 -5.36955,1.94273 -7.32276,1.20011 -3.49892,-1.33028 -2.74528,-4.20066 1.3213,-5.03236 1.75901,-0.35975 4.79762,-1.41308 6.75248,-2.34072 1.95486,-0.92764 5.80045,-2.22018 8.54577,-2.87231 C 297.75383,410.06026 300,409.18319 300,408.76335 300,408.34351 296.60159,408 292.44798,408 c -7.49206,0 -7.56032,-0.0238 -8.59782,-3 -1.21196,-3.47661 -2.4471,-3.84529 -3.35016,-1 -0.4056,1.27793 -1.51303,2 -3.06739,2 -1.33793,0 -2.43261,0.41425 -2.43261,0.92054 0,1.2587 -3.90519,1.96827 -14.30744,2.59967 -4.84409,0.29402 -9.56909,0.94331 -10.5,1.44287 -0.93091,0.49955 -3.04256,1.56231 -4.69256,2.36169 -1.65,0.79937 -4.78265,2.40332 -6.96144,3.56432 -2.17879,1.161 -4.93619,2.11091 -6.12756,2.11091 -1.19136,0 -2.78222,0.74237 -3.53524,1.64971 -1.24488,1.49998 -1.05178,1.57396 2.12755,0.81516 5.49261,-1.31091 26.76095,-0.90541 28.50678,0.54351 2.85882,2.3726 1.74034,3.99143 -2.76009,3.99481 -2.3375,0.002 -8.075,0.64203 -12.75,1.42282 -4.675,0.78079 -11.65,1.72367 -15.5,2.0953 -4.11543,0.39725 -9.16386,1.69543 -12.25106,3.15031 -6.16889,2.90716 -8.43674,2.74153 -9.26763,-0.67687 -0.70015,-2.88052 -0.66274,-2.87929 -13.98131,-0.45958 -5.225,0.94928 -10.4,1.71775 -11.5,1.70771 -1.1,-0.01 -4.37789,0.62325 -7.2842,1.40731 -2.90632,0.78406 -5.71882,1.15696 -6.25,0.82867 -1.36999,-0.8467 -1.19732,-4.04358 0.2842,-5.26189 1.95381,-1.6067 12.5205,-4.44331 21.97935,-5.90031 4.57216,-0.70428 4.14344,-1.94099 -0.73646,-2.12445 -1.97523,-0.0743 -3.96165,-0.36389 -4.41428,-0.64363 -0.45264,-0.27974 -3.95851,-0.57307 -7.79084,-0.65185 -6.06542,-0.12467 -8.18661,0.3731 -16.37782,3.84334 -9.91792,4.20177 -22.07486,7.13555 -32.90995,7.942 -3.575,0.26609 -7.85,0.81618 -9.5,1.22243 -1.65,0.40625 -10.61268,0.84915 -19.91707,0.98422 -9.304389,0.13507 -18.416889,0.43761 -20.25,0.67231 C 75.351414,435.94275 75,435.73102 75,433.55289 Z m 70.88891,-9.74059 c 2.44923,-0.96856 2.48711,-1.07994 0.61109,-1.7968 -1.1,-0.42033 -2.68506,-0.40976 -3.52236,0.0235 -0.8373,0.43324 -3.7623,1.02 -6.5,1.3039 -2.7377,0.2839 -5.09014,0.54789 -5.22764,0.58664 -0.1375,0.0388 -0.25,0.54322 -0.25,1.12103 0,1.24826 10.89177,0.34243 14.88891,-1.23826 z m 68.37985,-3.26429 C 233.92331,413.41902 230.31607,409.837 207,413.33009 c -12.89922,1.93249 -14.12837,2.82866 -7.67419,5.59525 2.44962,1.05003 4.75499,2.39638 5.12304,2.9919 0.96169,1.55604 2.25037,1.37636 9.81991,-1.36923 z M 356.3949,377.58672 c -0.29827,-0.7773 -0.30576,-2.91427 -0.0166,-4.74882 0.6343,-4.02471 -1.39625,-7.55998 -4.60364,-8.01512 -1.64442,-0.23335 -2.18221,-0.8769 -1.94106,-2.32278 0.5391,-3.23223 1.67067,-3.71058 6.01218,-2.54154 4.91119,1.32245 9.15425,6.30565 9.15425,10.75107 0,5.56955 -6.96947,11.13955 -8.6051,6.87719 z M 77.016673,368.36058 c -3.871349,-3.25753 -4.951302,-9.82318 -2.677069,-16.27543 0.888873,-2.52183 1.895717,-6.41704 2.23743,-8.65603 0.341713,-2.23898 1.589172,-5.99294 2.772131,-8.34213 2.628344,-5.21951 10.507588,-14.74645 12.900835,-15.59863 2.14928,-0.76531 2.304107,-4.7836 0.25,-6.48836 -0.825,-0.68469 -1.5,-1.65562 -1.5,-2.15763 0,-0.502 -0.743863,-2.04801 -1.653028,-3.43558 l -1.653028,-2.52284 -4.096972,3.94929 c -2.253335,2.1721 -5.571527,4.691 -7.37376,5.59755 -7.662178,3.85419 -31.461521,4.44808 -38.795048,0.9681 -4.935434,-2.34202 -7.812084,-7.47744 -7.122562,-12.71525 1.334247,-10.13533 2.247633,-11.35487 13.195927,-17.61901 7.270477,-4.15985 7.758921,-4.28691 18.089593,-4.70589 7.117719,-0.28867 11.073518,-0.052 12.001284,0.71795 1.669908,1.3859 2.090883,0.44506 2.718982,-6.07669 0.869088,-9.02401 2.757341,-13.95064 6.416699,-16.74177 3.698185,-2.82074 4.164893,-2.97723 11.577274,-3.88192 4.155129,-0.50714 5.139861,-1.09197 7.277389,-4.32199 3.83813,-5.7998 26.53813,-22.33505 32.11401,-23.39265 0.99178,-0.18811 3.38292,-0.6688 5.31365,-1.06819 3.67819,-0.76087 8.98959,0.63157 8.98959,2.35673 0,2.12901 -5.93363,13.81008 -9.17938,18.07072 -4.10268,5.38551 -16.40192,25.56992 -19.68349,32.30278 -2.46007,5.04736 -3.69341,12.39589 -2.39607,14.27635 0.41742,0.60503 2.10894,1.5445 3.75894,2.08771 2.07421,0.68287 3.0089,1.6484 3.02886,3.1288 0.05,3.70698 1.64047,4.23482 6.37428,2.11543 7.60065,-3.40291 11.55072,0.26532 4.27996,3.97459 -2.09929,1.07098 -4.41215,2.66447 -5.13968,3.5411 -0.72754,0.87662 -3.28493,2.08793 -5.68311,2.6918 -2.39817,0.60387 -4.36031,1.28037 -4.36031,1.50333 0,0.22297 1.575,2.69504 3.5,5.4935 1.925,2.79846 3.5,5.68331 3.5,6.41079 0,2.09466 -1.86876,6.45289 -2.76693,6.45289 -0.44904,0 -2.03029,-2.475 -3.51389,-5.5 -1.89644,-3.86677 -3.27705,-5.5 -4.6493,-5.5 -1.07351,0 -2.22996,0.45 -2.56988,1 -0.33992,0.55 -1.84147,1 -3.33678,1 -4.10053,0 -5.78598,2.85235 -8.0722,13.66088 -4.545907,21.49163 -5.154462,23.97575 -6.775623,27.65805 -1.746679,3.9674 -5.264781,6.42073 -11.10359,7.74302 -2.688464,0.60884 -3.818385,0.29853 -6.195134,-1.70137 z m 10.269165,-7.37078 c 1.78487,-1.40398 3.00887,-3.89195 4.058728,-8.25 1.230825,-5.10926 4.973347,-18.80443 7.372266,-26.97765 0.306407,-1.04394 -0.151383,-1.99167 -1.146506,-2.37354 -3.658926,-1.40406 -12.172621,10.12264 -15.475012,20.95163 -2.802323,9.1892 -3.011397,15.51674 -0.571651,17.30072 2.416217,1.76678 2.733899,1.73088 5.762175,-0.65116 z M 61.100102,298.5 c 2.103846,-7.97221 2.323905,-10.5 0.914086,-10.5 -1.748671,0 -5.925508,7.38447 -6.412311,11.33669 -1.164999,9.45833 2.946505,8.83266 5.498225,-0.83669 z m -18.500476,4.25 c 0.403921,-1.2375 0.79937,-2.925 0.878776,-3.75 0.07941,-0.825 0.663418,-2.45333 1.297803,-3.61852 C 45.877843,293.35809 45.531918,292 43.914893,292 c -2.056462,0 -5.569663,8.56353 -5.025584,12.25 0.251802,1.70612 3.030508,0.58275 3.710317,-1.5 z M 81.969374,300 c 0,-1.33333 -0.107708,-1.33333 -0.969374,0 -0.533156,0.825 -0.969374,2.175 -0.969374,3 0,1.33333 0.107708,1.33333 0.969374,0 0.533156,-0.825 0.969374,-2.175 0.969374,-3 z M 96.48676,288.02142 c 0.332636,-0.53821 -0.387782,-2.3211 -1.60093,-3.96197 -2.542499,-3.43892 -2.716461,-9.42143 -0.520165,-17.88837 2.134257,-8.22777 -1.110867,-9.0283 -7.39086,-1.82323 -2.829599,3.24641 -3.342648,4.58794 -3.282383,8.58283 0.126831,8.40733 9.842534,19.86686 12.794338,15.09074 z M 110.72955,280.75 c 1.55409,-2.3375 3.60846,-5.825 4.56526,-7.75 0.9568,-1.925 3.06735,-5.525 4.69011,-8 1.62276,-2.475 4.08045,-6.525 5.46153,-9 1.38109,-2.475 3.85277,-6.3 5.49262,-8.5 4.15654,-5.57634 9.07394,-15.82799 8.08297,-16.85116 -1.66744,-1.72164 -6.99929,0.60355 -12.57767,5.48507 -3.15075,2.75715 -8.02718,6.71993 -10.83651,8.80617 -6.72305,4.99262 -8.02796,6.55156 -11.09912,13.25987 -3.60956,7.88431 -4.27774,14.72443 -1.96076,20.07215 3.5192,8.12249 4.27629,8.35179 8.18157,2.4779 z m 389.34202,80.38373 c -1.48578,-2.77621 0.76418,-7.82305 4.10446,-9.20665 1.52068,-0.62988 5.36566,-1.21837 8.54442,-1.30774 3.17875,-0.0894 6.34205,-0.51685 7.02955,-0.94994 1.84182,-1.16025 1.60233,-10.17421 -0.32143,-12.09797 -2.22795,-2.22795 -4.06328,-2.00558 -15.12141,1.83214 -8.24532,2.86154 -32.6725,10.80515 -34.30716,11.15654 -0.275,0.0591 -1.85,0.68367 -3.5,1.3879 -2.91222,1.24295 -9.27061,1.61471 -10.28404,0.60129 -1.16726,-1.16726 2.41524,-3.67693 7.25868,-5.08495 2.86715,-0.8335 6.07078,-2.18752 7.11918,-3.00893 1.74398,-1.36638 1.39562,-1.47749 -4.09382,-1.30576 -3.3,0.10324 -7.35,0.60176 -9,1.10782 -1.65,0.50607 -4.35,1.02167 -6,1.14579 -1.65,0.12412 -4.26679,0.75916 -5.8151,1.4112 -3.9699,1.67185 -4.6849,1.50061 -4.6849,-1.12202 0,-1.73135 0.99882,-2.74823 4,-4.07235 4.88044,-2.15325 5.32805,-4.12083 0.75,-3.2968 -16.42122,2.95575 -17.04098,2.95078 -15.1087,-0.12126 1.07122,-1.70307 15.99824,-5.50212 17.66906,-4.49693 0.44569,0.26814 2.02069,0.006 3.5,-0.58263 1.4793,-0.58858 4.00068,-1.29046 5.60305,-1.55973 4.14974,-0.69733 3.7363,0.0714 9.10485,-16.92849 2.0625,-6.53105 3.09495,-16.63426 1.69986,-16.63426 -0.58674,0 -5.18109,4.09475 -10.20968,9.09945 -5.02858,5.0047 -9.43039,8.81193 -9.7818,8.46052 -1.91654,-1.91654 10.44266,-17.00784 13.09518,-15.98997 1.72954,0.66369 3.67818,-2.269 3.67818,-5.53564 0,-3.04895 -2.49696,-3.52875 -5.86888,-1.12773 -7.00596,4.98869 -8.69118,-0.27079 -1.84576,-5.76052 3.66722,-2.94095 4.69028,-3.28423 8.30946,-2.78817 5.52058,0.75668 7.81976,-0.9815 7.94557,-6.00685 0.053,-2.1181 0.44045,-5.32071 0.86094,-7.11692 l 0.76453,-3.26583 -5.33293,0.55564 c -8.81987,0.91895 -13.50817,2.47029 -14.57623,4.82324 -2.68067,5.90552 -9.64159,19.6919 -12.04353,23.85268 C 434.07289,313.03318 419.78183,327 412.72124,327 c -0.85784,0 -4.38898,0.72483 -7.84698,1.61072 -3.458,0.8859 -7.20685,1.72992 -8.33077,1.87561 -1.12392,0.14568 -3.32553,0.60582 -4.89248,1.02252 -2.45081,0.65177 -2.79846,0.49445 -2.48751,-1.1256 0.41176,-2.14526 8.38162,-6.83937 14.3365,-8.44395 17.58976,-4.73967 16.90437,-4.36401 23.19457,-12.71276 C 436.0623,296.79311 438.14226,293.42712 445,279.60299 l 6.5,-13.10299 10,-2 c 5.5,-1.1 10.5625,-2.36406 11.25,-2.80902 0.6875,-0.44496 1.25,-2.37191 1.25,-4.28212 0,-3.8667 2.4219,-10.42209 4.28879,-11.6085 0.66616,-0.42335 2.7036,-0.77663 4.52763,-0.78505 3.02867,-0.014 3.28897,0.22255 3,2.72614 -0.20991,1.81866 -0.98963,2.85687 -2.31642,3.08436 -1.1,0.1886 -2.49311,0.97106 -3.09579,1.73879 -1.15759,1.4746 -0.45142,8.5537 0.84579,8.47874 0.4125,-0.0238 1.78899,-0.0433 3.05887,-0.0433 1.26988,0 3.18238,-0.66645 4.25,-1.481 1.65312,-1.26126 1.7236,-1.62367 0.47501,-2.44258 -1.19042,-0.78077 -0.97262,-1.14921 1.15826,-1.95937 3.89841,-1.48217 10.67152,-9.11712 11.63641,-13.11705 0.46436,-1.925 1.63007,-6.65 2.59046,-10.5 0.9604,-3.85 1.83502,-7.45 1.9436,-8 0.18645,-0.94444 1.50384,-3.86938 7.32151,-16.25566 3.37888,-7.19389 5.40299,-8.13316 8.56433,-3.97422 2.79514,3.6772 5.75155,9.1442 5.75155,10.63581 0,0.55289 1.13433,2.67677 2.52072,4.71975 1.3864,2.04297 3.70658,7.57545 5.15596,12.2944 1.44938,4.71896 2.74824,8.7256 2.88635,8.90366 0.68661,0.88519 6.51841,-3.17148 9.83209,-6.83933 5.22001,-5.77793 7.20445,-10.79298 12.56845,-31.76276 0.46123,-1.80309 1.29981,-3.83408 1.86351,-4.5133 0.56371,-0.67922 1.55238,-3.47896 2.19705,-6.22165 1.20671,-5.1338 5.47281,-17.80063 6.91084,-20.51952 0.4459,-0.84306 1.1468,-3.09306 1.55755,-5 1.80744,-8.391 11.87679,-25.90765 22.75748,-39.58891 3.7125,-4.66806 6.75,-8.88746 6.75,-9.37644 0,-0.48898 3.0375,-5.62321 6.75,-11.4094 3.7125,-5.786186 7.875,-12.374499 9.25,-14.640695 1.375,-2.266195 4.525,-6.370587 7,-9.120871 4.03132,-4.479713 5.17565,-5.140153 10.98724,-6.34124 6.95723,-1.437855 8.39736,-1.011009 9.61792,2.850681 0.37544,1.187832 1.63318,3.509695 2.79499,5.159695 1.16181,1.65 2.26225,3.876604 2.44542,4.948009 0.40091,2.344944 6.31112,9.213959 11.83415,13.753971 2.20667,1.81391 5.09395,4.77999 6.4162,6.59128 1.32224,1.8113 3.24584,4.42626 4.27467,5.81103 l 1.87058,2.51777 2.37942,-2.23534 C 679.92926,112.65728 681,111.05828 681,110.3334 c 0,-0.72488 1.43988,-2.55894 3.19974,-4.07569 1.75986,-1.51674 4.34736,-3.97157 5.75,-5.45518 1.40264,-1.483604 4.35026,-3.44758 6.55026,-4.364389 2.2,-0.916809 5.19447,-2.515449 6.65437,-3.552533 3.82206,-2.715107 5.9791,-2.344914 9.09563,1.560993 1.5125,1.895598 2.75,3.742823 2.75,4.104946 0,0.362122 1.2375,2.523663 2.75,4.803433 1.5125,2.27976 3.40878,5.49502 4.21396,7.14502 0.80518,1.65 2.37843,4.35 3.49611,6 1.11768,1.65 1.9315,3.225 1.80847,3.5 -0.3849,0.86041 7.9554,13.35204 11.01658,16.5 3.44575,3.54343 15.71488,21.76764 15.71488,23.34243 0,0.59949 1.63487,2.86808 3.63305,5.04133 3.92749,4.27159 5.16372,4.34864 9.36695,0.58381 5.83652,-5.22776 17.939,-8.58759 22.63398,-6.28353 4.28374,2.10224 5.04984,4.15876 3.08453,8.28006 -2.78512,5.84047 -9.69913,7.48645 -9.73382,2.31728 -0.0266,-3.96136 -1.11321,-4.67219 -5.82507,-3.81057 -3.00149,0.54886 -5.5189,1.95059 -8.19348,4.56225 -4.2839,4.18312 -4.36213,3.4344 1.30987,12.53545 6.21728,9.97595 17.84141,23.74774 23.67452,28.04856 3.39603,2.50395 3.85207,2.57653 10.54947,1.67898 3.85,-0.51596 9.18918,-1.58114 11.86483,-2.36708 5.60111,-1.64524 17.21837,-1.91238 18.14245,-0.41719 0.97779,1.58209 -3.76129,6.98112 -5.50728,6.27422 -2.9192,-1.1819 -13.561,-1.06907 -18,0.19084 -16.73404,4.74957 -18.43287,4.82025 -23.47217,0.97659 C 784.31442,215.00244 774,201.28211 774,199.45859 774,198.30386 764.01546,184.36315 761.48746,181.98822 760.11936,180.70295 759,179.05481 759,178.32569 c 0,-0.72913 -0.85105,-2.17674 -1.89122,-3.21691 -1.65154,-1.65154 -2.50698,-1.76477 -6.75,-0.89349 -6.57037,1.34919 -6.94286,1.30914 -15.96508,-1.71673 -7.39311,-2.47949 -9.32637,-3.24066 -17.6437,-6.9467 -7.52437,-3.35271 -18.58719,-11.75524 -29.36278,-22.30186 -1.8263,-1.7875 -3.774,-3.25 -4.32821,-3.25 -0.55421,0 -1.74458,1.4625 -2.64528,3.25 -0.9007,1.7875 -3.02553,4.7125 -4.72185,6.5 -1.69632,1.7875 -2.75636,3.25 -2.35565,3.25 0.40071,0 -1.02232,2.3625 -3.16229,5.25 -2.13997,2.8875 -4.7352,6.825 -5.76719,8.75 -1.03198,1.925 -3.92545,5.975 -6.42992,9 -4.02528,4.8619 -10.19415,13.6637 -13.66687,19.5 -2.77906,4.67053 -4.16507,8.62022 -4.44836,12.67639 l -0.30196,4.32361 5.97018,-0.025 c 7.33081,-0.0307 14.18326,-2.09271 29.97018,-9.01872 2.75,-1.20647 6.575,-2.52187 8.5,-2.92311 1.925,-0.40124 4.4,-1.27796 5.5,-1.94827 1.1,-0.6703 4.7,-2.27471 8,-3.56534 3.3,-1.29063 6.45,-2.64423 7,-3.00801 0.85247,-0.56384 7.81667,-2.84027 11,-3.59563 1.1837,-0.28087 12.4668,-4.53105 21.17056,-7.97462 3.3938,-1.34274 6.6563,-2.44134 7.25,-2.44134 2.24472,0 0.91425,3.65098 -2.77945,7.62713 -7.45437,8.0244 -17.92374,20.97228 -23.34595,28.87287 -3.01973,4.4 -7.24649,9.8 -9.3928,12 -2.1463,2.2 -7.27736,7.99316 -11.40236,12.8737 -15.23145,18.02124 -25.51487,28.62507 -32.16992,33.17226 -3.75654,2.56674 -6.83008,5.15892 -6.83008,5.76042 0,0.7324 0.39636,0.69726 1.2,-0.10638 1.80172,-1.80172 9.8,-1.57242 9.8,0.28095 0,1.51295 -3.97828,2.9906 -7.40943,2.75207 C 659.28441,281.0727 656,282.70771 656,284.01605 c 0,0.54553 1.90416,0.6847 4.5,0.3289 3.57809,-0.49044 4.5,-0.31464 4.5,0.8581 0,1.09783 -2.237,1.77576 -8.75,2.65172 -4.8125,0.64725 -11.675,1.89005 -15.25,2.76179 -3.575,0.87173 -9.2,2.13416 -12.5,2.80539 -3.3,0.67123 -7.26679,1.75089 -8.8151,2.39924 -1.5483,0.64834 -3.65925,1.17881 -4.69098,1.17881 -1.03174,0 -2.12194,0.39812 -2.42266,0.8847 -0.30073,0.48659 -1.78979,1.1253 -3.30902,1.41936 -3.6966,0.71549 -12.9142,4.00748 -13.84872,4.94594 -1.42492,1.43093 5.84727,0.7368 18.93292,-1.80716 7.23446,-1.40643 14.50356,-2.96646 16.15356,-3.46673 1.65,-0.50027 7.00683,-1.39582 11.90407,-1.99011 4.89723,-0.5943 9.64648,-1.47787 10.55388,-1.96349 1.80408,-0.96552 4.96191,0.39096 3.74442,1.60846 -1.49162,1.49161 -8.47282,3.41102 -19.40789,5.33601 -15.10767,2.65951 -16.64341,3.08409 -15.45483,4.27267 0.55521,0.55521 1.57036,0.62133 2.32322,0.15134 1.92379,-1.20099 3.74652,-1.34661 4.36333,-0.34859 0.29378,0.47534 -1.39193,1.35748 -3.74603,1.9603 -2.35409,0.60283 -4.80024,1.26842 -5.43587,1.4791 -0.63564,0.21068 -1.45776,1.75831 -1.82694,3.43916 -0.80047,3.64452 -1.23572,3.96147 -6.752,4.91672 -3.50986,0.60781 -4.21585,1.09558 -3.98581,2.75386 0.23112,1.66612 -0.63503,2.25037 -5,3.37267 -2.90375,0.7466 -6.29205,1.51008 -7.52955,1.69662 -1.2375,0.18654 -3.36558,0.50126 -4.72908,0.69936 -1.36349,0.1981 -3.05099,0.81272 -3.75,1.3658 -0.699,0.55309 -2.62092,1.31519 -4.27092,1.69355 -9.74144,2.23383 -12.77228,2.79381 -20,3.6952 -13.44882,1.67725 -20.74513,1.73523 -23.81014,0.18918 -1.54558,-0.77961 -4.47058,-1.27943 -6.5,-1.1107 L 527.5,332.5 l 0.0318,7 c 0.0175,3.85 0.24251,9.7 0.5,13 l 0.46816,6 -5.84504,0.30274 c -3.94598,0.20438 -6.58757,-0.18379 -8.13047,-1.19473 -2.14397,-1.40479 -2.52493,-1.28431 -6.15496,1.94647 -4.34153,3.86405 -6.82248,4.33621 -8.29796,1.57925 z m -18.39936,-27.07157 c 2.83589,-0.53781 6.54783,-0.57637 8.70256,-0.0904 6.62819,1.49489 5.88761,-1.88439 -3.62937,-16.56092 -10.12327,-15.61153 -10.95345,-16.63488 -12.33875,-15.20982 -0.69451,0.71444 -1.79488,4.22398 -2.44525,7.79898 -0.65038,3.575 -2.03275,9.0212 -3.07195,12.10267 -2.17766,6.45728 -2.44162,11.50786 -0.63945,12.23505 2.08538,0.84147 8.19336,0.71607 13.42221,-0.27556 z M 509.5,330.87793 c 2.2,-0.611 5.2172,-1.19538 6.70489,-1.29861 5.2749,-0.36603 6.79511,-3.00632 6.79511,-11.8017 0,-7.75769 -0.044,-7.89795 -2.25,-7.17359 -3.28923,1.08005 -5.73444,0.72003 -7.79889,-1.14827 -2.31717,-2.09701 -3.61481,-1.28608 -4.48965,2.80571 -0.38082,1.78119 -1.06498,3.70396 -1.52036,4.27282 -0.67956,0.84893 -2.90639,12.01946 -2.93355,14.71571 -0.01,0.99572 0.75386,0.94397 5.49245,-0.37207 z m 38.299,-1.37708 c 0.41497,-0.3685 -3.69337,-7.65254 -5.40736,-9.5872 -1.23157,-1.39013 -1.08951,-1.73028 1.14853,-2.75 1.40466,-0.64001 3.56776,-1.16365 4.80688,-1.16365 1.23912,0 2.79712,-0.54417 3.46222,-1.20927 0.94569,-0.94569 1.54655,-0.72773 2.7567,1 1.61493,2.30563 5.82998,2.99566 6.97563,1.14196 0.36322,-0.5877 -0.2843,-1.31415 -1.44098,-1.61663 C 558.94528,315.01393 558,314.31635 558,313.76588 c 0,-0.64128 2.69349,-0.74845 7.4972,-0.29831 10.68863,1.00161 16.31382,-1.79941 12.09209,-6.02114 -0.7759,-0.77589 -1.57933,-1.91656 -1.78542,-2.53482 -0.25743,-0.7723 -2.7109,-0.42639 -7.83929,1.10525 -6.12873,1.83039 -8.87776,2.12142 -15.36126,1.62624 -4.34317,-0.33172 -8.13089,-0.83733 -8.41715,-1.1236 -0.28626,-0.28626 -0.60545,-1.53276 -0.70931,-2.76999 -0.16042,-1.91104 -0.69275,-2.20714 -3.53787,-1.9679 -1.84197,0.15489 -4.71928,1.14779 -6.39401,2.20645 -2.65537,1.67855 -3.24564,2.92204 -4.61322,9.71839 -2.19125,10.88965 -0.70612,13.97039 5.39469,11.19067 2.97289,-1.35454 6.86391,0.36183 6.61056,2.91598 -0.30523,3.07724 0.0374,3.35128 3.31299,2.64954 1.7875,-0.38295 3.38455,-0.81576 3.549,-0.96179 z m -48.96377,-10.14463 c -0.22124,-1.16558 -1.37233,-1.97395 -3.09378,-2.17264 -3.31278,-0.38237 -3.44271,0.44106 -0.55469,3.51521 2.35202,2.50362 4.24621,1.80659 3.64847,-1.34257 z m 1.94226,-8.91292 c 4.73321,-3.31527 1.3868,-10.66044 -5.48277,-12.03436 -2.63214,-0.52642 -3.38319,-0.20355 -4.89555,2.10461 -1.72364,2.6306 -1.71812,2.85269 0.1572,6.31926 1.64358,3.03819 3.54033,4.32471 7.47112,5.06751 0.29013,0.0548 1.52763,-0.60084 2.75,-1.45702 z m 90.17539,-8.34118 c 3.21239,-1.59383 7.34965,-3.20242 9.19391,-3.57465 5.56463,-1.12312 6.90506,-1.63456 6.40492,-2.4438 -0.48063,-0.77767 -8.24465,0.79829 -18.70271,3.79634 -4.86427,1.39446 -5.52066,1.86362 -4.71481,3.36999 1.19251,2.22915 0.93649,2.26674 7.81869,-1.14788 z M 484.60089,298.1885 c 0.0466,-4.10146 0.67587,-5.59746 4.26442,-10.13732 2.3154,-2.9292 4.04733,-5.81325 3.84875,-6.40901 -0.43029,-1.29087 -6.84691,-2.75994 -9.99001,-2.28718 -1.46541,0.22041 -2.33821,1.15497 -2.55873,2.73977 -0.18407,1.32288 -0.74657,2.83274 -1.25,3.35524 -1.73363,1.79931 -0.92818,6.746 1.58468,9.73237 1.375,1.63409 2.5,4.06155 2.5,5.39436 0,1.3328 0.34791,2.42327 0.77314,2.42327 0.42522,0 0.79771,-2.16518 0.82775,-4.8115 z m 34.36276,3.3553 c 1.225,-1.47603 0.65754,-3.5438 -0.97253,-3.5438 -1.12543,0 -9.73647,-5.77896 -10.53409,-7.06952 -1.3349,-2.15993 -2.19834,0.29649 -1.11853,3.18215 0.79924,2.13588 2.48704,3.72834 5.4115,5.10581 2.3375,1.101 4.25,2.40226 4.25,2.89169 0,1.36613 1.61616,1.0573 2.96365,-0.56633 z m 47.63522,-1.15774 c 3.63221,-1.7236 4.77151,-4.55718 1.48696,-3.69825 -1.95141,0.5103 -7.06885,5.31219 -5.66127,5.31219 0.42525,0 2.30369,-0.72627 4.17431,-1.61394 z M 539,292.11155 c 3.025,-1.91802 5.70526,-3.64552 5.95614,-3.8389 0.25088,-0.19338 -0.34314,-1.8358 -1.32006,-3.64982 -2.0476,-3.80216 -22.28445,-24.30779 -23.14244,-23.4498 -1.56869,1.56868 0.49063,30.56546 2.38885,33.63684 0.37069,0.59978 1.78627,1.50199 3.14574,2.00492 2.89895,1.07245 5.14968,0.25638 12.97177,-4.70324 z m 12.45,1.95633 c -1.51035,-1.48192 -6.68994,-1.71129 -7.17844,-0.31788 -0.30629,0.87365 0.85139,1.25 3.84511,1.25 2.66039,0 3.92338,-0.35318 3.33333,-0.93212 z M 499,290.5 c -0.87682,-1.05651 -1.64857,-1.25143 -2.31524,-0.58476 -0.66666,0.66666 -0.56158,1.52825 0.31524,2.58476 0.87682,1.05651 1.64857,1.25143 2.31524,0.58476 C 499.9819,292.4181 499.87682,291.55651 499,290.5 Z m 61.54112,2.43347 c 1.06021,-1.71546 0.16505,-1.83976 -3.04112,-0.42226 l -3,1.32635 2.69098,0.0812 c 1.48004,0.0447 2.9876,-0.39872 3.35014,-0.98531 z m -43.12148,-9.20182 C 517.17281,279.20424 516.63558,272.8 516.22578,269.5 c -0.65022,-5.236 -0.99853,-5.95936 -2.73543,-5.68085 -1.09469,0.17554 -2.56581,1.06678 -3.26916,1.98053 -0.70334,0.91376 -3.55714,4.02694 -6.34178,6.91818 l -5.06298,5.2568 3.30167,2.76267 c 1.81592,1.51947 5.74105,4.89037 8.7225,7.4909 2.98146,2.60053 5.7824,4.50477 6.22432,4.23165 0.44192,-0.27312 0.60154,-4.20083 0.35472,-8.72823 z m 48.3046,7.59704 c 0.24807,-0.74511 -0.35856,-0.97557 -1.66714,-0.63337 -1.1314,0.29587 -2.0571,0.96845 -2.0571,1.49464 0,1.32759 3.24537,0.57706 3.72424,-0.86127 z M 568,284.03385 c 0,-0.40309 1.32179,-2.70099 2.93731,-5.10644 2.18945,-3.26001 2.66251,-4.70468 1.85798,-5.67408 -0.59364,-0.71528 -1.16382,-3.32829 -1.26706,-5.80667 -0.29636,-7.11396 -1.94736,-7.55066 -4.90555,-1.29756 C 563.65205,272.42848 561,279.69467 561,281.5543 c 0,2.17036 2.83811,4.3008 4.98241,3.74005 1.10967,-0.29019 2.01759,-0.85741 2.01759,-1.2605 z m 38.25991,-0.60674 c 5.28229,-1.79986 7.82486,-4.07362 5.53696,-4.95156 -0.7856,-0.30147 -2.74879,0.14043 -4.36262,0.982 -1.61384,0.84157 -3.42701,1.5329 -4.02926,1.53629 -0.60226,0.003 -1.9095,0.90616 -2.90499,2.00616 -2.29399,2.53483 -0.75981,2.6486 5.75991,0.42711 z m -47.64539,-9.30933 c 1.84881,-5.11383 4.01794,-11.50842 4.82028,-14.21019 l 1.4588,-4.91232 -4.1968,-2.04378 c -3.24136,-1.5785 -5.26484,-1.89992 -8.8882,-1.41186 l -4.6914,0.63193 3.09293,5.66422 c 4.43054,8.11386 6.18066,17.00137 4.37815,22.23319 -0.82809,2.40357 -0.97428,3.89303 -0.36206,3.68896 0.56475,-0.18825 2.53948,-4.52632 4.3883,-9.64015 z M 577,278.10887 c 0,-2.11386 -1.6197,-0.19421 -2.43938,2.89113 -0.6383,2.4026 -0.60372,2.42437 0.8876,0.55887 0.85348,-1.06762 1.55178,-2.62012 1.55178,-3.45 z m -26.59595,1.07668 c 0.93689,-1.81176 1.25733,-4.29123 0.89943,-6.95958 -0.94114,-7.01674 -10.49292,-14.71819 -17.7642,-14.323 -6.38751,0.34715 -4.88968,3.65299 7.40663,16.34703 4.12894,4.2625 7.61867,7.75 7.75495,7.75 0.13628,0 0.90271,-1.2665 1.70319,-2.81445 z m 45.05998,-1.32517 c 1.453,-1.72679 2.90245,-4.44278 3.221,-6.03552 0.31855,-1.59274 1.42034,-3.34607 2.44842,-3.89628 C 603.21233,266.816 608.5731,257 607.10183,257 c -1.49262,0 -9.09074,9.10764 -9.73302,11.66667 -0.32209,1.28333 -1.09934,2.34144 -1.72722,2.35136 -1.3464,0.0213 -7.64159,7.36526 -7.64159,8.91471 0,2.3373 4.89779,0.97744 7.46403,-2.07236 z M 485.1525,274.36199 c 1.39962,-1.26664 2.12674,-1.37513 3.20711,-0.47851 2.26235,1.87759 5.69451,-0.0885 15.37563,-8.80794 8.02469,-7.22752 8.954,-8.42925 9.07845,-11.73981 0.20727,-5.51336 1.48677,-6.09251 6.21733,-2.81423 l 4.10662,2.84589 5.68118,-1.86042 c 3.12465,-1.02322 6.07263,-2.19484 6.55108,-2.60358 1.2901,-1.10218 -4.51394,-9.1976 -7.68816,-10.72338 -2.3957,-1.15156 -2.6687,-1.73259 -2.13949,-4.55354 0.53916,-2.87394 -2.27173,-12.47299 -5.43695,-18.56695 -2.99423,-5.76477 -7.42013,2.68768 -14.20264,27.12378 -0.79766,2.87381 -2.90712,6.43379 -5.45968,9.21387 -2.28788,2.49181 -3.661,4.71397 -3.05138,4.93813 2.25606,0.82956 -1.11631,4.13755 -7.9859,7.83346 -7.36325,3.96151 -11.12969,8.25396 -9.2402,10.53065 1.43728,1.73183 2.80258,1.63945 4.987,-0.33742 z m 137.74322,-3.27638 c 0.76764,-0.48607 1.1281,-1.58114 0.80103,-2.4335 -0.5344,-1.39262 -0.90401,-1.39543 -3.64572,-0.0277 -1.67807,0.83713 -3.05103,1.93909 -3.05103,2.44881 0,1.17359 4.04841,1.18208 5.89572,0.0124 z m -11.33842,-1.50385 c 1.06675,-0.78003 1.66091,-1.69688 1.32035,-2.03744 -0.89165,-0.89165 -5.91778,1.58174 -5.28728,2.60191 0.74579,1.20671 1.73773,1.06556 3.96693,-0.56447 z m -30.00334,-10.01247 c 0.24783,-5.38153 -3.88381,-14.845 -6.27971,-14.38359 -1.02686,0.19776 -2.05322,1.81118 -2.58644,4.06583 -0.75127,3.17671 -0.4939,4.40364 1.71409,8.17129 1.42896,2.43833 2.5981,5.51569 2.5981,6.83858 0,6.26938 4.25086,1.88956 4.55396,-4.69211 z m 9.90769,6.08241 c 1.01414,-0.74156 1.53574,-1.84691 1.1591,-2.45632 -0.9003,-1.45671 -2.85889,-0.64495 -4.40074,1.82393 -1.51002,2.41793 0.31331,2.77364 3.24164,0.63239 z m 33.46826,-2.55667 c 5.90153,-2.95662 7.18517,-7.904 1.32432,-5.10417 -1.51483,0.72366 -3.55008,1.39717 -4.52279,1.49669 -1.94804,0.19931 -4.64975,3.26331 -4.69964,5.32984 -0.0367,1.51896 2.55748,0.95325 7.89811,-1.72236 z m 19.59655,-2.9019 c -0.30789,-0.30789 -1.11479,-6.4e-4 -1.79313,0.68278 -0.98026,0.98762 -0.8654,1.10248 0.5598,0.5598 0.98622,-0.37553 1.54122,-0.93469 1.23333,-1.24258 z m -20.86877,-4.92066 c 2.64153,-0.5758 7.86287,-5.83271 6.58046,-6.62528 -1.4846,-0.91754 -8.19318,1.30784 -10.30308,3.41774 -2.5011,2.5011 -2.62429,5.43875 -0.18507,4.41346 0.9625,-0.40457 2.72096,-0.94723 3.90769,-1.20592 z m 19.12414,-3.11797 C 642.99349,251.51952 642.54417,251 641.78333,251 640.2912,251 638,252.91841 638,254.16778 c 0,1.14836 4.33655,-0.67744 4.78183,-2.01328 z m 13.34573,0.0955 c 1.24387,-1.58606 1.2085,-1.62143 -0.37756,-0.37756 -0.9625,0.75485 -1.75,1.54235 -1.75,1.75 0,0.82304 0.82119,0.29331 2.12756,-1.37244 z m -43.61099,-1.85281 c 2.23222,-1.46261 5.08229,-8.13166 3.95633,-9.25763 -0.2601,-0.26009 -0.59006,-0.28539 -0.73326,-0.0562 -0.14319,0.22917 -1.71819,2.30278 -3.5,4.60803 -4.53491,5.86715 -4.42207,7.78473 0.27693,4.70583 z M 678,250 c 0.5887,-1.1 1.52858,-2 2.08861,-2 2.02054,0 7.91133,-5.54441 7.91136,-7.44617 3e-5,-1.65692 -0.51437,-1.44759 -3.46106,1.40846 -1.9036,1.84504 -3.23022,3.72816 -2.94806,4.18471 0.28216,0.45655 -0.0729,0.62046 -0.78891,0.36425 -0.71607,-0.25622 -2.87694,0.86183 -4.80194,2.48455 -3.16626,2.66907 -3.28881,2.95296 -1.28518,2.9773 C 675.93297,251.98789 677.4113,251.1 678,250 Z m -88.54461,-4.18011 c 1.76792,-4.41846 2.63758,-10.41403 1.81972,-12.54534 -0.78764,-2.05257 -5.00038,-1.47307 -9.37723,1.28992 -2.54999,1.60973 -3.86202,3.0866 -3.5242,3.96694 0.79868,2.08132 7.94533,11.46859 8.7312,11.46859 0.37288,0 1.43061,-1.88105 2.35051,-4.18011 z M 570,245.46778 c 0,-5.26172 -4.66064,-6.60236 -9.25,-2.66079 -0.9625,0.82664 -1.75,1.86887 -1.75,2.31606 0,1.33259 5.29211,3.79385 8.25,3.83691 2.48853,0.0362 2.75,-0.29581 2.75,-3.49218 z M 664.40804,246.5 c 0.90094,-1.375 2.30269,-2.5 3.11501,-2.5 0.81232,0 1.47695,-0.45 1.47695,-1 0,-2.44708 -5.1135,0.60931 -7.11047,4.25 -1.49916,2.73314 0.65698,2.09105 2.51851,-0.75 z m -22.7138,-0.9684 c 2.62781,-2.31184 2.67082,-2.4704 0.6782,-2.5 -1.17015,-0.0174 -2.68775,0.6434 -3.37244,1.4684 -0.68469,0.825 -1.83823,1.5 -2.56343,1.5 -0.72519,0 -1.59665,0.45 -1.93657,1 -1.28656,2.0817 4.50188,0.90023 7.19424,-1.4684 z M 625.15,245.5 c 0,-0.5225 -0.48375,-1.11125 -1.075,-1.30833 -0.59125,-0.19709 -1.075,0.39166 -1.075,1.30833 0,0.91667 0.48375,1.50542 1.075,1.30833 0.59125,-0.19708 1.075,-0.78583 1.075,-1.30833 z M 554,238.27757 c 0,-3.0046 -0.0293,-2.98711 -3.45926,2.06725 -3.14261,4.6309 -2.26262,7.19574 1.11971,3.26354 C 552.9472,242.11242 554,239.71357 554,238.27757 Z M 605,241 c 0,-0.55 -0.45,-1 -1,-1 -0.55,0 -1,0.45 -1,1 0,0.55 0.45,1 1,1 0.55,0 1,-0.45 1,-1 z m 59.63837,-0.5 c 0.31659,-0.825 1.4009,-1.5 2.4096,-1.5 2.16883,0 3.42097,-1.59215 1.96152,-2.49414 -1.1451,-0.70771 -7.00949,3.10922 -7.00949,4.56223 0,1.50206 2.01007,1.06925 2.63837,-0.56809 z M 626,238.80968 c 0,-1.31439 -2.27278,-0.49134 -2.77106,1.0035 -0.24358,0.73075 0.21359,0.95424 1.1875,0.58051 C 625.2874,240.05947 626,239.34667 626,238.80968 Z m 13.79422,0.6219 c 3.23777,-2.26782 1.65593,-3.81056 -1.80867,-1.76397 -1.58223,0.93464 -2.6497,2.06679 -2.37215,2.51587 0.73078,1.18244 1.65698,1.01586 4.18082,-0.7519 z M 692,238 c 0,-0.55 -0.42344,-1 -0.94098,-1 -0.51754,0 -1.2191,0.45 -1.55902,1 -0.33992,0.55 0.0835,1 0.94098,1 0.85746,0 1.55902,-0.45 1.55902,-1 z m -82.36001,-9.26811 c 1.46141,-2.07247 2.41162,-4.01362 2.11156,-4.31368 -0.89422,-0.89422 -8.09207,8.32355 -8.4316,10.79775 -0.31278,2.27919 -0.30922,2.27874 1.67474,-0.21596 1.0935,-1.375 3.18388,-4.19565 4.6453,-6.26811 z m -39.33253,6.63945 c 5.07947,-0.69622 4.4826,0.19876 9.57421,-14.3561 1.96973,-5.63067 3.29306,-7.85776 5.34213,-8.99049 2.47774,-1.3697 2.88426,-1.34573 4.5,0.26535 0.97691,0.97408 2.71605,4.5698 3.86475,7.99048 l 2.08854,6.21942 h 4.20635 c 4.13735,0 4.26599,-0.10661 7.84329,-6.5 2.00032,-3.575 6.07128,-11.225 9.04656,-17 7.97678,-15.48286 12.2008,-22.94748 15.91199,-28.11943 1.8231,-2.54069 3.34819,-5.01569 3.38909,-5.5 0.0409,-0.48431 2.02695,-3.58057 4.41345,-6.88057 2.38649,-3.3 6.44526,-9.02037 9.01948,-12.71194 2.57422,-3.69157 6.73706,-8.86657 9.25077,-11.5 C 667.77122,128.84562 673,122.66813 673,121.46206 c 0,-1.39893 -6.44228,-8.06026 -12.22324,-12.63887 -3.48457,-2.75983 -12.21503,-13.553205 -17.08902,-21.12698 -2.57307,-3.998347 -5.57887,-4.87747 -8.82781,-2.581925 -2.40069,1.696213 -9.44681,14.666336 -11.34633,20.885715 -0.93067,3.04718 -9.83402,24.59758 -13.01395,31.5 -1.26691,2.75 -4.06844,8.825 -6.22561,13.5 -4.09657,8.87804 -15.23631,28.05178 -18.30117,31.5 -4.10433,4.61771 -21.4281,39.47407 -22.96287,46.20253 -1.70648,7.48122 -1.3052,7.84793 7.29746,6.66881 z m 70.42614,-3.97107 c -1.23391,-1.23392 -3.71353,0.48846 -3.08,2.13942 0.56054,1.46073 0.76864,1.46664 2.17362,0.0617 0.85455,-0.85455 1.26243,-1.84504 0.90638,-2.20108 z m -27.31233,-2.31233 c -0.5655,-0.5655 -3.35457,3.089 -3.36723,4.41206 -0.005,0.55 0.84965,-0.11828 1.8998,-1.48506 1.05016,-1.36678 1.7105,-2.68393 1.46743,-2.927 z m 48.88359,2.98853 c 2.30733,-1.05795 5.12973,-2.8029 6.27201,-3.87767 1.14229,-1.07477 3.01415,-2.25161 4.1597,-2.61519 2.42887,-0.77089 5.11337,-3.58361 3.42025,-3.58361 -2.10992,0 -18.98437,9.10822 -19.53556,10.54459 -0.7482,1.94978 0.66393,1.83347 5.6836,-0.46812 z m -13.86996,-0.0517 c 1.41081,-0.53639 2.5651,-1.43639 2.5651,-2 0,-1.70825 -2.57687,-1.14979 -4.5,0.97525 -2.04108,2.25537 -1.73218,2.41897 1.9349,1.02475 z M 586.75,229.01096 c 1.7875,-1.08986 3.24317,-2.55068 3.23482,-3.24626 -0.0306,-2.55147 -2.73217,-10.2647 -3.5952,-10.2647 -1.15939,0 -5.04503,8.08154 -5.88985,12.25 -0.55189,2.72306 -0.36206,3.24939 1.17077,3.24626 1.00621,-0.002 3.29196,-0.89544 5.07946,-1.9853 z m 52.0323,-2.85646 c 0.28658,-0.86063 -0.19425,-1.221 -1.33427,-1 -0.98026,0.19002 -1.98391,0.95098 -2.23033,1.691 -0.28658,0.86063 0.19425,1.221 1.33427,1 0.98026,-0.19002 1.98391,-0.95098 2.23033,-1.691 z M 616.5,226 c 0.33992,-0.55 0.14148,-1 -0.44098,-1 -0.58246,0 -1.05902,0.45 -1.05902,1 0,0.55 0.19844,1 0.44098,1 0.24254,0 0.7191,-0.45 1.05902,-1 z m 10,0 c 0.33992,-0.55 0.14148,-1 -0.44098,-1 -0.58246,0 -1.05902,0.45 -1.05902,1 0,0.55 0.19844,1 0.44098,1 0.24254,0 0.7191,-0.45 1.05902,-1 z m 9.29422,-2.56842 c 1.23158,-0.86263 1.98117,-1.98598 1.66576,-2.49634 -0.68165,-1.10292 -6.45998,1.66142 -6.45998,3.09044 0,1.45739 2.26626,1.17655 4.79422,-0.5941 z m 31.14626,-1.01509 c 2.09835,-1.99405 0.85068,-2.58825 -2.77832,-1.32317 -3.68519,1.28466 -4.54439,4.45595 -0.91216,3.36674 1.2375,-0.37109 2.89821,-1.2907 3.69048,-2.04357 z M 615,220.31854 c 0,-1.27119 -0.27832,-1.33244 -1.48899,-0.32768 -0.81894,0.67967 -1.23785,1.64211 -0.9309,2.13876 0.7889,1.27647 2.41989,0.0558 2.41989,-1.81108 z M 631,220 c 0,-0.55 -0.47656,-1 -1.05902,-1 -0.58246,0 -0.7809,0.45 -0.44098,1 0.33992,0.55 0.81648,1 1.05902,1 0.24254,0 0.44098,-0.45 0.44098,-1 z m 14.78305,-0.83415 c 0.29877,-0.9065 -0.29208,-1.22704 -1.84334,-1 -1.25568,0.18378 -2.48092,0.93452 -2.72276,1.6683 -0.29877,0.9065 0.29208,1.22704 1.84334,1 1.25568,-0.18378 2.48092,-0.93452 2.72276,-1.6683 z m 28.77181,-1.19084 C 676.99969,216.86126 679,215.47376 679,214.89167 c 0,-0.58208 -0.3375,-0.88025 -0.75,-0.6626 -0.4125,0.21766 -2.65792,1.26766 -4.98983,2.33334 -2.33191,1.06567 -4.24441,2.27509 -4.25,2.68759 -0.015,1.10736 0.65158,0.95408 5.54469,-1.27499 z m -56.78403,-1.78751 c 0.59996,-1.79986 -1.467,-1.42165 -2.16452,0.39606 -0.37373,0.97391 -0.15024,1.43108 0.58051,1.1875 0.6535,-0.21783 1.36631,-0.93044 1.58401,-1.58356 z m 15.57851,0.34453 c 0.89168,-2.3237 -1.13079,-2.80891 -2.33435,-0.56004 -0.85486,1.59733 -0.78205,2.02801 0.34284,2.02801 0.7855,0 1.68168,-0.66059 1.99151,-1.46797 z M 664,213.40751 l 2.5,-1.52163 -3,0.62782 c -1.65,0.34531 -3.4275,1.04598 -3.95,1.55706 -1.54082,1.50714 1.67045,1.02852 4.45,-0.66325 z m -37,-2.52554 c 0,-0.55 -0.45,-0.72189 -1,-0.38197 -0.55,0.33992 -1,1.06803 -1,1.61803 0,0.55 0.45,0.72189 1,0.38197 0.55,-0.33992 1,-1.06803 1,-1.61803 z m 46,-1.07193 c 0,-1.32759 -3.24537,-0.57706 -3.72424,0.86127 -0.24807,0.74511 0.35856,0.97557 1.66714,0.63337 1.1314,-0.29587 2.0571,-0.96845 2.0571,-1.49464 z m 13.42009,-2.75792 c 3.25605,-1.13379 7.75605,-3.13738 10,-4.45242 2.24395,-1.31505 4.41741,-2.43795 4.82991,-2.49534 1.48664,-0.20686 1.07047,-1.61154 -0.57111,-1.92768 -0.92339,-0.17783 -1.67889,0.10342 -1.67889,0.625 0,0.52157 -1.2375,1.19683 -2.75,1.50056 -1.5125,0.30373 -4.1,1.10977 -5.75,1.7912 -1.65,0.68144 -3.225,1.2988 -3.5,1.37192 -5.24174,1.39379 -12,4.53399 -12,5.57576 0,1.18084 4.63534,0.37352 11.42009,-1.989 z M 634,202.5 c 1.35129,-1.62821 1.02807,-1.83174 -1.41821,-0.89301 -0.86999,0.33384 -1.58179,1.00884 -1.58179,1.5 0,1.38323 1.62035,1.05539 3,-0.60699 z m 84.18325,-5.00867 C 720.20903,195.5711 722.20503,194 722.61879,194 723.626,194 728,189.85091 728,188.89549 c 0,-1.28936 -13.15305,3.34175 -16.3955,5.77276 -1.5031,1.12694 -1.61355,1.41227 -0.38653,0.99847 2.1427,-0.7226 3.3189,0.98147 1.8768,2.71909 -0.99628,1.20044 -0.54663,2.62587 0.8219,2.60552 0.32083,-0.005 2.24079,-1.57977 4.26658,-3.5 z M 642.35011,190 c 1.25075,-2.50718 1.26856,-3 0.10843,-3 -1.39441,0 -3.45854,2.94487 -3.45854,4.93426 0,2.09763 1.88033,1.01198 3.35011,-1.93426 z m -5.96855,-4.55194 c 0.34149,-0.88992 0.17385,-1.29132 -0.39301,-0.94098 -0.5437,0.33602 -0.98855,1.0344 -0.98855,1.55194 0,1.43843 0.71677,1.12146 1.38156,-0.61096 z m 11.03885,-2.29415 c 0.80947,-1.56535 3.12319,-4.49751 5.14159,-6.51591 2.0184,-2.0184 4.45227,-5.12516 5.4086,-6.90391 5.2949,-9.84837 7.46631,-13.51022 9.9021,-16.69881 1.48534,-1.94441 3.58413,-5.26268 4.66396,-7.37394 1.07984,-2.11127 4.21334,-6.45962 6.96334,-9.663 2.75,-3.20338 6.125,-7.98937 7.5,-10.63553 1.375,-2.64617 3.9697,-7.17496 5.76599,-10.06398 5.05997,-8.13804 5.58203,-10.0536 2.96627,-10.88381 -1.76271,-0.55946 -3.00906,0.24052 -6.5386,4.19688 -2.39842,2.68846 -6.18659,7.5443 -8.41815,10.79078 -2.23157,3.24647 -6.36773,8.64647 -9.19147,12 -2.82374,3.35352 -8.03342,11.04732 -11.57708,17.09732 -3.54365,6.05 -7.24489,11.58802 -8.22498,12.3067 -0.98009,0.71869 -1.78198,1.97202 -1.78198,2.78519 0,2.47494 3.02881,0.1288 8.735,-6.76623 8.94102,-10.80379 9.43802,-11.36707 8.66953,-9.82566 -0.41132,0.825 -2.8081,4.58068 -5.32619,8.34595 -2.51809,3.76528 -5.47834,8.31895 -6.57834,10.11928 -1.1,1.80033 -4.1375,6.49619 -6.75,10.43523 C 644.14322,182.84642 642.96427,186 644.97432,186 c 0.53588,0 1.63662,-1.28074 2.44609,-2.84609 z m -67.38113,-6.70124 c 0.90562,-1.09121 1.49111,-1.21251 1.98616,-0.41151 0.79728,1.29002 11.78632,-13.9913 17.3819,-24.1712 1.97596,-3.59483 3.59266,-7.8898 3.59266,-9.54438 0,-1.65458 1.75927,-6.56721 3.90948,-10.91695 3.71737,-7.52 9.23368,-19.63581 9.17341,-20.14813 -0.0155,-0.13173 0.2401,-0.93864 0.56801,-1.79313 1.63595,-4.26324 -1.01968,-1.72397 -5.98283,5.72068 -3.04774,4.57157 -8.63275,12.50132 -12.41111,17.62166 -7.37941,10.00038 -13.70142,21.75264 -17.31645,32.19029 -1.23819,3.575 -2.63133,6.9275 -3.09588,7.45 -1.11439,1.25341 -1.0889,5.55 0.0329,5.55 0.48265,0 1.45543,-0.6963 2.16172,-1.54733 z m 167.53565,-6.91953 3.5107,-1.46687 -1.67278,-3.28313 c -1.74465,-3.42421 -4.85191,-7.89173 -17.45852,-25.10137 -4.15012,-5.66544 -8.36192,-12.07402 -9.35957,-14.24129 -4.93562,-10.72202 -14.37609,-22.8751 -16.95833,-21.83108 -1.05116,0.42499 -5.80379,7.22165 -11.81091,16.8906 -2.35391,3.7888 -4.82552,9.76693 -4.82552,11.67157 0,0.48021 1.7413,2.77556 3.86955,5.10077 2.12825,2.32521 4.18553,5.24632 4.57173,6.49134 1.31078,4.2257 25.99367,21.65301 32.8414,23.18762 2.34783,0.52616 5.8322,1.63475 7.74305,2.46353 4.38927,1.90375 5.25051,1.91442 9.5492,0.11831 z M 648,160 c 0,-0.55 -0.19844,-1 -0.44098,-1 -0.24254,0 -0.7191,0.45 -1.05902,1 -0.33992,0.55 -0.14148,1 0.44098,1 C 647.52344,161 648,160.55 648,160 Z M 436,348.61663 c 0,-0.21085 0.9,-0.61872 2,-0.90638 1.1,-0.28766 2,-0.11514 2,0.38337 0,0.49851 -0.9,0.90638 -2,0.90638 -1.1,0 -2,-0.17252 -2,-0.38337 z m 206.01365,-15.7833 c 0.0258,-4.40432 1.24449,-6.91546 4.06379,-8.37338 1.55278,-0.80297 3.29559,-1.45995 3.8729,-1.45995 2.01719,0 1.02925,3.05218 -1.33689,4.13026 -1.32544,0.60391 -2.77711,2.44918 -3.26496,4.15022 -1.08053,3.7676 -3.35399,4.82623 -3.33484,1.55285 z M 33.503941,258.25 c -1.417348,-1.5125 -3.520732,-4.775 -4.674186,-7.25 -1.153455,-2.475 -2.937017,-6.13627 -3.963472,-8.13615 -2.605901,-5.07719 -2.770705,-33.21421 -0.223395,-38.14017 0.903589,-1.74734 2.273771,-5.6625 3.044849,-8.70034 0.771079,-3.03783 1.854076,-7.29999 2.406661,-9.47145 0.552585,-2.17145 2.782403,-6.61023 4.955151,-9.86395 C 37.222297,173.43423 39,170.40402 39,169.95414 c 0,-0.44987 1.2375,-1.70565 2.75,-2.79063 1.5125,-1.08497 3.519215,-3.29159 4.459367,-4.9036 1.568798,-2.6899 1.57871,-3.11746 0.120531,-5.1993 -1.502966,-2.14579 -1.455016,-7.67423 0.143637,-16.56061 0.197889,-1.1 0.397298,-3.08218 0.443132,-4.40484 0.05008,-1.44526 1.728675,-3.97001 4.20682,-6.32741 3.320308,-3.15853 4.616606,-3.79881 6.655143,-3.28717 2.869236,0.72013 4.182398,-0.65657 4.206057,-4.40958 0.02781,-4.4113 2.214469,-8.52923 6.144317,-11.571 C 71.756462,107.69228 79,95.765181 79,92.599982 c 0,-1.589179 2.399858,-3.711791 7,-6.191319 1.925,-1.037597 4.225035,-2.467232 5.111189,-3.176967 1.895486,-1.518125 6.491267,-1.947855 9.558161,-0.893739 1.66,0.570556 2.31409,0.289566 2.78583,-1.196753 C 104.62639,77.451066 113,77.240092 113,80.900721 c 0,2.862929 0.9859,3.073032 4.68107,0.997576 1.91923,-1.077966 5.48842,-2.233919 7.93152,-2.568784 2.44311,-0.334865 4.62219,-0.90038 4.84241,-1.2567 0.22022,-0.35632 0.69764,-3.552968 1.06095,-7.103661 0.3633,-3.550693 1.27287,-7.921308 2.02127,-9.712479 C 134.28562,59.465503 134.60763,58 134.25281,58 c -0.35483,0 0.90154,-1.595771 2.79193,-3.546158 3.64819,-3.763982 10.9282,-8.451783 13.13333,-8.456923 0.72706,-0.0017 4.4605,-1.583925 8.29653,-3.516067 5.26892,-2.653863 8.08131,-3.470211 11.5,-3.33808 3.79401,0.146636 13.89926,-1.090565 17.5254,-2.145662 2.05934,-0.599204 9.5,1.303959 9.5,2.429897 0,0.744126 1.24445,1.026109 3.41178,0.773086 2.64453,-0.308735 3.65355,0.05346 4.48691,1.610604 0.64685,1.208649 1.77747,1.833523 2.83822,1.568634 0.9697,-0.242151 3.05424,0.684395 4.63231,2.058989 l 2.86922,2.499264 3.40334,-3.218792 c 4.36075,-4.124282 9.54828,-5.143734 12.87168,-2.529541 2.36866,1.863181 2.43697,1.860324 4.48489,-0.187601 2.92551,-2.925511 8.25962,-5.771818 12.20306,-6.511611 2.53877,-0.476277 3.99081,-0.126681 5.98319,1.440529 2.84588,2.23857 5.33258,2.659661 6.3154,1.069432 0.69092,-1.117936 7.65743,-1.17766 11.5,-0.09859 1.5653,0.439569 4.31667,0.01447 7.35897,-1.137008 3.7534,-1.420618 6.25623,-1.689795 11,-1.183039 12.17033,1.300103 15.79764,2.801962 26.76,11.079784 5.70957,4.311369 10.68527,8.261597 11.05712,8.778284 1.36681,1.899179 -0.45336,14.085274 -2.80304,18.766506 -4.19782,8.363237 -10.38961,12.221904 -21.21827,13.223032 -8.44412,0.780672 -20.96559,3.421839 -24.23302,5.111493 -1.45878,0.75436 -3.8418,1.587259 -5.29562,1.850886 -3.45201,0.62597 -6.64567,1.530236 -9.12614,2.584015 -1.1,0.467314 -4.7,1.883485 -8,3.147047 -3.3,1.26356 -7.125,3.04593 -8.5,3.96083 -1.375,0.91489 -5.3532,3.09746 -8.84044,4.85015 -6.8247,3.4301 -16.60185,9.96415 -24.71453,16.51667 -2.78023,2.24557 -9.38464,6.24603 -14.67648,8.88991 l -9.62151,4.80707 -2.13572,-2.13572 c -1.17465,-1.17465 -2.94468,-4.02294 -3.93341,-6.32955 -0.98872,-2.30661 -2.87323,-4.69127 -4.1878,-5.29924 -9.13276,-4.2238 -18.34181,-5.05904 -21.44724,-1.94522 -3.1047,3.11309 -6.44287,9.37438 -6.44287,12.08467 0,2.8408 2.87553,4.67368 6.69158,4.26527 2.27148,-0.24311 2.78207,0.17693 3.32299,2.73367 0.35152,1.66151 1.39362,4.17243 2.31579,5.57983 0.92216,1.40739 1.37508,2.86048 1.00648,3.22908 -1.08951,1.08951 -4.84143,0.76558 -6.13684,-0.52983 -0.85326,-0.85326 -1.50956,-0.89044 -2.27132,-0.12868 -0.76176,0.76176 -0.28416,1.6905 1.65287,3.21416 2.30861,1.81596 3.49936,2.04002 7.80574,1.46876 6.09509,-0.80855 13.0578,-3.73283 14.82804,-6.22767 1.8787,-2.64769 4.03276,-3.08388 6.15363,-1.24608 1.74082,1.50847 1.97201,1.46525 3.37197,-0.63049 1.20723,-1.80721 2.43888,-2.25 6.2586,-2.25 2.85136,0 5.21982,0.55937 5.91497,1.39698 2.2236,2.67928 12.72016,5.30028 32.5855,8.13665 6.05,0.86382 11.9,1.74369 13,1.95526 10.66441,2.0512 28.7027,5.62488 31.5,6.24065 3.28826,0.72385 3.5,1.01245 3.5,4.77046 0,3.65383 -0.21636,3.98253 -2.5,3.79815 -5.36138,-0.43288 -9.53582,-1.62871 -10.31146,-2.95387 -0.4463,-0.76249 -1.21757,-1.13535 -1.71393,-0.82859 -0.49636,0.30677 -3.7312,-0.1783 -7.18854,-1.07792 -7.92993,-2.06343 -6.58946,-1.76708 -24.28607,-5.36916 -23.56683,-4.79695 -25.54323,-5.31477 -28.16943,-7.38054 -1.95,-1.53387 -2.72256,-1.68475 -3.65189,-0.71318 -0.91157,0.953 -0.75755,1.49205 0.67965,2.37868 6.98154,4.307 9.32397,9.13003 6.14192,12.64615 -2.15761,2.38414 -3.90099,1.68112 -6.42044,-2.58902 -3.14129,-5.3241 -5.20015,-4.54487 -4.85974,1.8393 0.21885,4.10439 -0.0444,5.25 -1.2066,5.25 -0.81758,0 -2.05201,-1.17984 -2.74315,-2.62188 -1.54385,-3.22113 -3.86556,-5.24631 -5.12333,-4.46896 -0.53636,0.33149 -0.95865,9.50125 -0.98256,21.33609 -0.0859,42.5246 0.0444,40.04587 -2.22592,42.31624 -4.99329,4.99329 -10.13383,-1.82893 -7.25475,-9.62805 2.75792,-7.4709 3.37559,-10.97511 3.86607,-21.93344 0.27079,-6.05 0.75842,-15.275 1.08363,-20.5 0.68976,-11.08219 -0.59743,-17.37517 -3.91742,-19.15197 -1.21882,-0.6523 -2.31102,-1.06684 -2.4271,-0.9212 -0.11608,0.14563 -2.67874,1.26773 -5.6948,2.49354 -4.09163,1.66297 -6.57664,2.07347 -9.78893,1.61704 -3.75556,-0.53361 -4.92598,-0.19204 -9.16742,2.67544 -2.67422,1.80793 -5.41697,3.28715 -6.09501,3.28715 -0.67804,0 -1.99253,0.83949 -2.92109,1.86553 -1.60037,1.76839 -1.50288,2.08745 1.87209,6.12702 4.04022,4.83584 4.04665,4.74784 -1.15703,15.83726 -2.87391,6.1245 -3.67771,7.13211 -4.88812,6.12755 -2.11817,-1.75792 -1.7734,-5.48145 0.90067,-9.72723 C 148.01529,181.40939 146.10153,177 139.90921,177 137.03574,177 131.03785,182.80743 124,192.40404 113.94419,206.11585 85.683224,235.72605 74.678307,244.08045 63.34299,252.68568 61.48341,253.93391 59.95,253.96678 c -0.8525,0.0183 -1.993797,0.47702 -2.536216,1.01944 C 55.828381,256.57162 42.31262,261 39.05925,261 c -1.957674,0 -3.861423,-0.9424 -5.555309,-2.75 z M 48.819665,246.49239 C 51.239994,243.70877 51.479539,243 50,243 c -1.296935,0 -5,3.70306 -5,5 0,1.71476 1.549678,1.10311 3.819665,-1.50761 z m 20.672255,-6.48346 c 0.991042,-1.09509 3.732827,-3.12268 6.092855,-4.50574 5.049285,-2.95908 12.89407,-10.42745 20.481864,-19.49908 2.988348,-3.57273 7.941281,-9.19773 11.006521,-12.5 5.14645,-5.5444 15.42594,-16.72939 23.65274,-25.73624 C 134.69013,173.42775 149.74326,162 151.49602,162 c 0.6567,0 1.9501,-0.83548 2.87422,-1.85662 1.49992,-1.65739 1.51655,-1.99244 0.15499,-3.12244 -1.70594,-1.4158 -1.25517,-1.67083 -10.52523,5.95475 -5.82896,4.79491 -9.07817,7.1644 -17.97675,13.10957 -3.03779,2.02956 -6.61419,4.86564 -7.94756,6.30242 -1.33338,1.43678 -2.86744,2.61232 -3.40904,2.61232 -1.26203,0 -8.91332,8.30289 -12.44055,13.5 -2.338796,3.44604 -16.196277,20.60489 -19.574752,24.23819 -0.633241,0.681 -2.81732,2.62122 -4.853507,4.31159 -2.036188,1.69037 -4.001914,4.05818 -4.368281,5.26181 -0.901235,2.96083 -3.443754,5.73217 -6.239734,6.8013 -1.270596,0.48585 -2.031539,1.33421 -1.690983,1.88524 0.921692,1.49133 1.98708,1.2274 3.993077,-0.9892 z m -21.061469,-6.29556 4.735436,-4.28663 -2.561698,-1.37098 c -2.333107,-1.24864 -2.773533,-1.15614 -4.935627,1.03663 -3.047762,3.091 -4.928214,6.67847 -4.155789,7.92828 1.006264,1.62817 1.97947,1.16288 6.917678,-3.3073 z M 74.933838,220.25 c 3.404851,-3.54193 4.593416,-5.57999 4.673322,-8.01342 C 79.730234,208.4885 82.433098,205 85.214005,205 c 1.047216,0 1.705307,-0.3375 1.462425,-0.75 -0.242882,-0.4125 -0.03986,-1.81408 0.451164,-3.11463 0.713507,-1.88983 1.427824,-2.26235 3.557507,-1.85523 2.737393,0.52328 6.209646,-2.27921 6.28163,-5.06998 0.05538,-2.14705 -3.953537,-9.26787 -5.566034,-9.88664 -0.829918,-0.31847 -4.747087,1.01133 -8.70482,2.9551 C 72.081951,192.49147 68.214947,194 65.466073,194 c -1.35634,0 -2.497783,0.1125 -2.53654,0.25 -0.727385,2.58057 -0.80389,9.70962 -0.10881,10.1392 1.058939,0.65446 6.482224,-1.80009 10.064136,-4.55498 C 74.196531,198.8254 76.160261,198 77.248704,198 c 1.088443,0 3.722722,-0.98003 5.853955,-2.17785 4.08439,-2.29556 6.071117,-1.94139 3.885111,0.69259 -0.713477,0.85968 -3.444829,3.00806 -6.06967,4.77416 -2.624841,1.76611 -7.312262,5.64027 -10.416491,8.60926 -4.550315,4.35208 -5.531811,5.84537 -5.064848,7.7059 1.171775,4.66872 2.544365,7.39594 3.722326,7.39594 0.664724,0 3.263362,-2.1375 5.774751,-4.75 z m -33.186606,-1.5 C 42.292899,218.0625 43.306645,215.7 44,213.5 c 0.693355,-2.2 1.648096,-4.4914 2.121647,-5.09201 1.673319,-2.12227 -0.433827,-2.32189 -3.260803,-0.3089 -3.272792,2.33043 -4.336071,4.0588 -5.321987,8.65091 -0.60056,2.79723 -0.425131,3.25 1.259243,3.25 1.076356,0 2.403465,-0.5625 2.949132,-1.25 z m 4.118382,-26.24681 C 47.002428,190.57644 47.530387,189 47.038855,189 45.76298,189 42,193.99894 42,195.69388 c 0,2.06097 1.495244,0.82679 3.865614,-3.19069 z M 71,187.48342 c 5.478625,-0.56199 19.313781,-6.86131 23.057873,-10.49855 1.406831,-1.36668 4.287435,-3.96927 6.401347,-5.78353 5.45367,-4.6806 3.74294,-5.91908 -5.116049,-3.70376 -3.763744,0.94118 -9.093171,2.56403 -11.843171,3.60633 -2.75,1.04229 -5.645424,1.89531 -6.434276,1.89559 -2.780406,9.7e-4 -10.075261,4.20515 -12.009239,6.92117 -2.097764,2.94604 -3.299857,7.50262 -2.254959,8.54752 0.351036,0.35104 1.776798,0.33077 3.168361,-0.045 C 67.361449,188.04734 69.625,187.62446 71,187.48342 Z m 9.25,-8.21406 C 79.5625,179.02954 79,178.16454 79,177.34712 c 0,-1.73748 4.131122,-1.49239 4.713936,0.27967 0.428443,1.30269 -1.634251,2.2808 -3.463936,1.64257 z m -25.050891,-3.27837 c 0.93451,0.005 2.939338,-1.61701 4.455174,-3.60438 2.587502,-3.39239 2.647839,-3.69252 0.986529,-4.9073 -1.879222,-1.37412 -3.127388,-0.9713 -8.789684,2.83675 -3.255987,2.18974 -5.275351,6.77197 -4.316182,9.79405 0.706626,2.22638 0.752738,2.21347 3.340785,-0.9353 1.443348,-1.75606 3.388868,-3.18878 4.323378,-3.18382 z M 123,173.27436 c 4.125,-2.35504 11.26732,-7.78982 15.87183,-12.07729 l 8.37183,-7.79539 -0.70973,-4.20084 C 146.14358,146.89038 145.40914,145 144.90185,145 c -0.5073,0 -3.16313,1.575 -5.90185,3.5 -2.73872,1.925 -5.15458,3.5 -5.36859,3.5 -0.63245,0 -10.73011,6.23568 -16.13141,9.96175 -2.75,1.89707 -6.70733,5.26926 -8.79406,7.49374 -3.0106,3.20932 -3.66512,4.5596 -3.16961,6.53892 1.48355,5.92606 2.63306,5.74702 17.46367,-2.72005 z M 80.190027,168.8983 c 1.132199,-0.60593 3.015115,-1.26174 4.184258,-1.45734 4.534626,-0.75866 11.986538,-2.46979 16.453215,-3.77803 2.56988,-0.75269 5.24986,-1.16731 5.95553,-0.92138 1.7998,0.62723 18.21697,-9.37772 18.21697,-11.10179 0,-1.24335 -4.74767,-0.61413 -11.08484,1.46911 -3.52834,1.15988 -7.53603,2.31333 -8.90597,2.56322 -1.36995,0.2499 -5.635907,1.32591 -9.479905,2.39114 -3.843997,1.06522 -8.123131,1.93928 -9.509186,1.94235 -5.40141,0.0119 -10.100071,2.07769 -12.068379,5.30579 -1.069334,1.75375 -1.945926,3.52613 -1.947982,3.93863 -0.0057,1.14492 5.860757,0.89289 8.186289,-0.3517 z m -7.697106,-14.88685 c 0.350339,-0.56686 -0.05106,-0.7345 -0.940983,-0.39301 C 69.819521,154.28323 69.502551,155 70.940983,155 c 0.517541,0 1.215913,-0.44485 1.551938,-0.98855 z M 114,148.32743 c 0.825,-0.34914 2.26313,-0.54149 3.19585,-0.42743 2.14528,0.26233 6.30674,-1.9891 10.80415,-5.84525 4.38161,-3.75685 2.84387,-3.89134 -7.69838,-0.67327 -12.46696,3.8056 -16.93459,4.84037 -18.93177,4.3849 -1.13578,-0.25902 0.48565,-1.09737 4.13015,-2.13546 19.5608,-5.57165 22.59884,-6.76068 23.52972,-9.20908 0.50643,-1.33201 1.49442,-2.46952 2.19553,-2.5278 3.57971,-0.29756 7.44367,0.43824 8.8384,1.68306 2.09644,1.87111 3.93635,0.0403 3.93635,-3.91686 0,-3.69959 -2.43092,-5.58756 -7.24712,-5.62844 -2.87501,-0.0244 -4.67875,-0.87348 -7.75,-3.64816 C 126.8013,118.39464 125,115.99505 125,115.05123 c 0,-0.94383 -1.9125,-3.39046 -4.25,-5.43697 -3.6311,-3.17906 -4.72964,-3.63255 -7.54371,-3.11408 -1.81155,0.33377 -4.17405,0.32744 -5.25,-0.014 -2.84844,-0.90406 -2.4876,-4.31468 0.5368,-5.07375 1.3712,-0.34415 2.27617,-0.97671 2.01104,-1.40569 -0.84228,-1.362849 -7.16644,-2.087317 -9.63073,-1.103255 -2.566517,1.02488 -18.129232,14.725245 -18.753888,16.509655 -0.209268,0.5978 -0.943542,1.76191 -1.631719,2.58691 -0.688178,0.825 -1.551851,2.48751 -1.919274,3.69447 -0.611302,2.00807 -0.429459,2.12604 2.140944,1.38885 3.206504,-0.91961 6.759603,0.0907 7.54844,2.14638 0.937936,2.44422 -0.432789,6.79353 -2.487633,7.89325 -2.497943,1.33686 -3.755278,0.18542 -4.667381,-4.27426 -0.929498,-4.54474 -3.363083,-4.78349 -4.918332,-0.48253 -1.432302,3.96096 -0.578395,11.54548 1.384663,12.29878 0.70741,0.27145 3.90623,-0.89119 7.10849,-2.58366 8.785815,-4.64351 15.34137,-7.27415 19.52576,-7.8354 2.07179,-0.27788 4.27866,-1.12189 4.90416,-1.87556 0.62549,-0.75368 2.02834,-1.37032 3.11744,-1.37032 1.08909,0 4.16874,-1.23025 6.84365,-2.7339 3.53336,-1.98619 5.16395,-2.43343 5.9621,-1.63528 1.28705,1.28705 -5.54255,7.1974 -9.11091,7.8846 -1.19288,0.22973 -3.12536,1.0186 -4.2944,1.75305 -1.16903,0.73445 -3.97329,1.92516 -6.23168,2.64604 -2.45427,0.78339 -6.001714,3.24109 -8.817947,6.10913 -4.420394,4.50172 -4.578513,4.84075 -2.556913,5.48238 2.100098,0.66655 2.106108,0.71807 0.236499,2.0276 -1.055097,0.73901 -3.119208,1.64506 -4.586914,2.01343 -2.541542,0.63789 -3.268817,1.51935 -2.164622,2.62355 0.52815,0.52815 23.897687,-3.74353 26.496067,-4.84317 z M 92.950415,114.44025 c -0.925607,-1.11528 -1.024875,-2.32635 -0.348363,-4.25 0.740541,-2.10571 1.592716,-2.69025 3.92203,-2.69025 3.755318,0 4.473918,3.05165 1.476274,6.26924 -2.461451,2.64206 -3.319495,2.75607 -5.049941,0.67101 z M 64,146.5 c 0.522774,-1.375 1.411636,-2.55625 1.975249,-2.625 2.518773,-0.30724 2.887652,-0.40457 3.373025,-0.88994 0.283217,-0.28322 -0.334353,-1.63322 -1.372377,-3 -1.660425,-2.18631 -2.137972,-2.33071 -3.972285,-1.20118 C 61.573958,140.28001 60,139.62102 60,137.10765 60,134.62259 58.921285,133.82044 57.342009,135.13112 54.809512,137.23291 56.730964,144 59.860243,144 60.487109,144 61,145.125 61,146.5 c 0,1.375 0.461138,2.5 1.024751,2.5 0.563613,0 1.452475,-1.125 1.975249,-2.5 z m 70.17378,-2.86276 c 0.43962,-0.65809 1.18269,-0.58628 2.13808,0.20662 2.24388,1.86225 6.68814,-0.48725 6.68814,-3.53576 0,-3.89713 -2.63504,-3.80155 -8.0005,0.2902 -2.74973,2.09697 -4.9995,4.15608 -4.9995,4.5758 0,0.98981 3.29689,-0.22416 4.17378,-1.53686 z m 73.08754,-18.48439 C 212.08005,121.76878 216.22256,119 216.46691,119 c 0.65851,0 6.78091,-4.23621 11.3329,-7.84145 2.1934,-1.7372 4.46338,-3.15855 5.0444,-3.15855 0.58103,0 1.41627,-0.5625 1.8561,-1.25 0.43983,-0.6875 4.17469,-2.97014 8.29969,-5.07252 4.125,-2.102392 9.075,-4.655787 11,-5.674215 C 260.56102,92.532134 268.87268,89 270.47978,89 c 0.88199,0 4.49109,-1.35 8.02022,-3 3.52913,-1.65 6.70811,-3 7.06439,-3 0.35629,0 2.42344,-1.406332 4.59367,-3.125183 3.5261,-2.792725 3.87416,-3.457601 3.27186,-6.25 -0.85038,-3.942566 -3.82894,-9.881156 -5.75968,-11.48353 -1.18558,-0.983947 -3.11802,-0.693393 -9.82309,1.476963 C 273.25622,65.104283 267.475,67.257202 265,68.402512 l -4.5,2.082384 4.87431,0.567314 c 5.63996,0.656427 8.02948,3.015357 7.2257,7.133208 -0.41649,2.133698 -0.11293,2.750048 1.47752,3 1.10093,0.17302 2.09637,0.689642 2.21208,1.148049 0.23115,0.915724 -12.16524,7.597924 -19.28961,10.397943 -4.32627,1.700312 -23.31207,11.03942 -27.55138,13.55252 -1.12826,0.66884 -6.53319,4.23105 -12.01095,7.91603 C 207.09677,121.15645 199,124.0313 199,120.74647 c 0,-2.37201 6.01433,-7.72197 11.5,-10.22965 7.5155,-3.43559 14.05628,-8.56081 19.30132,-15.124127 8.84924,-11.07339 10.00799,-13.808213 5.44868,-12.859703 -4.36545,0.90818 -4.5311,0.968726 -8.96016,3.274855 C 223.97425,87.01353 221.61851,88 221.05486,88 c -1.52333,0 -11.13074,5.938898 -14.41591,8.911323 -1.57359,1.423772 -5.53131,6.076177 -8.79495,10.338677 -3.26363,4.2625 -6.35508,7.75 -6.86989,7.75 -2.10062,0 -2.07268,5.19774 0.0629,11.70396 2.90834,8.86041 2.82551,8.75881 5.31848,6.5241 1.17947,-1.05729 6.08709,-4.69113 10.90582,-8.07521 z M 279,79.056704 c 0,-1.407162 4.17719,-4.065231 5.299,-3.371912 0.53519,0.330763 -0.10065,1.42699 -1.41297,2.436062 C 280.22152,80.16966 279,80.463831 279,79.056704 Z m 7.61649,-3.77355 C 285.76106,74.427731 287.98382,72 289.62244,72 290.3801,72 291,72.341754 291,72.759453 c 0,1.109143 -3.67962,3.227594 -4.38351,2.523701 z M 154.16358,117.51917 c 1.07329,-1.36446 2.26305,-2.43617 2.64392,-2.38158 2.9851,0.42784 4.54726,-2.18227 2.18126,-3.64453 -0.95044,-0.58741 -8.98876,6.43341 -8.98876,7.85095 0,1.51038 2.35041,0.48023 4.16358,-1.82484 z m 39.66419,-12.36002 c 1.41578,-1.85618 5.40542,-5.776816 8.86587,-8.712522 3.46044,-2.935705 5.84501,-5.613725 5.29904,-5.951154 -1.74612,-1.079163 -1.0862,-5.375058 0.99697,-6.489935 1.09431,-0.585655 2.73096,-2.513988 3.63701,-4.285183 0.90606,-1.771196 2.92494,-4.846512 4.48642,-6.834035 1.56147,-1.987523 4.45196,-6.600023 6.4233,-10.25 4.17839,-7.736364 3.95575,-7.883444 -6.63969,-4.386321 -7.49901,2.475117 -8.06053,3.234665 -12.38293,16.75 -4.43076,13.854178 -6.78455,19.979845 -8.09521,21.067598 -1.98206,1.64496 -1.86165,0.135886 0.66645,-8.353018 C 199.72679,78.843934 200.0741,77 199.1031,77 c -0.43014,0 -1.25169,1.0125 -1.82568,2.25 -0.57398,1.2375 -3.84024,5.4 -7.25835,9.25 -3.4181,3.85 -6.89609,8.35 -7.72886,10 -0.83276,1.65 -2.91529,4.4762 -4.62784,6.28045 -3.90409,4.11313 -3.14464,5.62419 4.33859,8.63231 l 5.46121,2.19531 1.89573,-3.53702 c 1.04265,-1.94536 3.0541,-5.05571 4.46987,-6.9119 z M 146,108.75511 c 0,-0.55783 -0.66326,-0.44954 -1.5,0.24489 -0.825,0.68469 -1.5,1.69489 -1.5,2.24489 0,0.55783 0.66326,0.44954 1.5,-0.24489 0.825,-0.68469 1.5,-1.69489 1.5,-2.24489 z m -7.01014,-1.2429 c 0.97663,-1.17676 1.03128,-1.89107 0.20768,-2.71467 -0.8236,-0.8236 -1.64571,-0.48354 -3.12435,1.29238 -2.62059,3.14745 -2.75292,5.34423 -0.24095,3.99986 1.00774,-0.53932 2.42867,-1.69923 3.15762,-2.57757 z m 37.58516,-9.093452 c 2.15874,-2.583992 5.74844,-6.7728 7.97712,-9.308463 C 199.22717,72.413898 204,65.236181 204,59.863236 204,55.822718 203.63416,55.352444 199.92993,54.631322 198.59347,54.371146 195.7,53.530079 193.5,52.762284 c -2.75734,-0.962305 -7.70421,-1.316769 -15.92348,-1.140983 -11.16844,0.23886 -12.30098,0.452894 -17.88509,3.380005 C 149.5781,60.302576 140,69.793608 140,74.513743 c 0,0.856143 -0.63582,2.553291 -1.41294,3.77144 -0.77712,1.218149 -1.56462,4.673605 -1.75,7.67879 -0.32753,5.309556 -0.25228,5.490391 2.66294,6.398795 1.65,0.514153 4.41801,1.542866 6.15113,2.286028 C 147.38425,95.391958 149.2051,96 149.69747,96 c 0.49236,0 3.32009,1.528935 6.28384,3.397633 2.96375,1.868697 5.94319,3.184827 6.62098,2.924737 0.67779,-0.26009 2.50384,0.19332 4.0579,1.00757 3.50031,1.834 4.82995,1.17537 9.91483,-4.911182 z M 147.31965,77.790342 c -1.17349,-2.629902 1.27769,-7.79303 3.68035,-7.752216 2.01299,0.03419 4.4634,2.034769 5.33608,4.356492 1.74014,4.629559 -6.99751,7.920289 -9.01643,3.395724 z m 16.34702,-8.457009 C 163.3,68.966667 163,66.932019 163,64.811895 c 0,-3.187471 0.45311,-4.061224 2.61747,-5.047373 2.31016,-1.052576 2.8385,-0.919641 4.5,1.132223 2.70326,3.338382 2.38573,6.362315 -0.82464,7.853255 -3.01549,1.400439 -4.64057,1.568931 -5.62616,0.583333 z M 178.2,58.8 c -1.91146,-1.911465 -1.39993,-3.711717 1.24316,-4.375091 C 182.64022,53.622498 184,54.557728 184,57.559017 184,59.439463 183.47184,60 181.7,60 c -1.265,0 -2.84,-0.54 -3.5,-1.2 z m 15.46667,0.533333 C 192.30706,57.973728 193.07213,57 195.5,57 c 1.55556,0 2.5,0.566667 2.5,1.5 0,1.499896 -3.07536,2.091311 -4.33333,0.833333 z M 83.606481,100.99772 C 83.71822,97.851972 82.345483,96.936111 81.361626,99.5 c -0.655655,1.70861 0.186867,4.50113 1.356989,4.49772 0.429762,-0.001 0.829301,-1.35125 0.887866,-3 z m 47.079069,0.82797 C 133.31361,99.35675 133.64174,98 131.61078,98 c -2.19447,0 -6.01098,3.54344 -5.21087,4.83805 1.00327,1.62332 1.64025,1.47285 4.28564,-1.01236 z m -8.62358,-5.107493 c 0.85909,-0.670009 1.8596,-2.011262 2.22336,-2.980563 0.56158,-1.496394 0.25039,-1.664175 -2.06197,-1.111742 -3.86862,0.924234 -4.09651,1.143183 -3.51285,3.375104 0.59998,2.294315 1.17226,2.416781 3.35146,0.717201 z m 120.54629,-2.289906 c 11.00568,-4.436882 11.95782,-5.145297 9.92884,-7.387291 -2.46999,-2.729318 -3.00434,-7.678952 -1.13671,-10.529319 1.54422,-2.356782 1.53637,-2.510745 -0.12734,-2.4965 -0.97518,0.0083 -3.79805,0.623757 -6.27305,1.367573 -4.42028,1.328435 -4.49448,1.421189 -4.18836,5.235948 0.25793,3.214209 -0.3884,4.86115 -3.75,9.55557 C 233.50099,95.146658 232.15656,98 233.37432,98 c 0.20588,0 4.36116,-1.607269 9.23394,-3.571709 z M 87.5,96 c 0.339919,-0.55 0.168034,-1 -0.381966,-1 -0.55,0 -1.278115,0.45 -1.618034,1 -0.339919,0.55 -0.168034,1 0.381966,1 0.55,0 1.278115,-0.45 1.618034,-1 z m 9.450176,-0.439966 c 0.657286,-0.791981 2.080211,-1.579481 3.162054,-1.75 2.7538,-0.434049 2.84865,-2.244578 0.13777,-2.629585 -1.2375,-0.175753 -2.25,0.109263 -2.25,0.633369 0,0.524105 -0.9,1.188275 -2,1.475931 -1.1,0.287656 -2,1.240141 -2,2.116631 0,1.983112 1.372533,2.054597 2.950176,0.153654 z M 220.1734,84.700616 c 2.37963,-1.814661 5.13544,-3.608727 6.12402,-3.986813 0.98858,-0.378086 2.27011,-2.043363 2.84783,-3.700616 C 229.72297,75.355934 230.8108,74 231.56264,74 c 0.75185,0 1.89518,-1.0125 2.54075,-2.25 C 235.71357,68.663414 244.1797,56 244.63306,56 c 1.13918,0 0.0714,4.935998 -1.62238,7.5 -1.09001,1.65 -2.55083,3.89644 -3.24626,4.99209 -0.69543,1.095649 -2.27692,3.267676 -3.51442,4.826725 -3.28704,4.141136 -2.75551,4.963958 1.38955,2.151048 C 239.6413,74.111438 241.94753,73 242.7645,73 c 1.60583,0 10.42377,-3.582968 19.2355,-7.815906 3.025,-1.453136 5.725,-2.666582 6,-2.696547 0.275,-0.02996 2.6375,-0.888058 5.25,-1.906872 7.43609,-2.899906 6.51685,-4.081338 -4.43584,-5.701016 -14.05389,-2.078283 -15.62151,-2.122249 -18.81773,-0.527767 -2.66822,1.331085 -3.17508,1.346131 -3.65006,0.108353 -0.42348,-1.103573 -2.02412,-1.342805 -6.89243,-1.030144 -3.48747,0.223978 -6.94363,0.781333 -7.68035,1.238566 -1.33384,0.827822 -13.77868,22.44177 -17.0323,29.581333 -2.22302,4.878092 -0.55521,5.016444 5.43211,0.450616 z m 87.39846,-16.333531 c 2.71048,-0.898103 5.35564,-2.023103 5.87814,-2.5 C 313.9725,65.390188 315.2475,65 316.28333,65 c 3.58882,0 1.04763,-2.473505 -3.30447,-3.216465 -3.26722,-0.557757 -4.77518,-0.372851 -6.00016,0.735739 C 306.0788,63.333673 304.87055,64 304.2937,64 c -1.70007,0 -3.56531,2.849815 -2.93696,4.487265 0.70808,1.845217 0.25724,1.853935 6.21512,-0.12018 z m -5.9035,-11.945234 C 302.22544,54.970129 300.42529,52 298.98834,52 c -0.42172,0 -1.73049,0.7875 -2.90836,1.75 -2.0007,1.634868 -2.03699,1.898258 -0.55162,4.003518 1.30422,1.848505 1.94894,2.061404 3.58729,1.184585 1.09853,-0.587912 2.24725,-1.720226 2.55271,-2.516252 z M 209,51.468615 c 0,-1.612079 -2.66157,-3.140377 -3.68563,-2.11632 C 204.60214,50.064525 206.86193,53 208.12244,53 208.6051,53 209,52.310877 209,51.468615 Z m 76.50143,-2.907711 c 2.88188,-2.490485 3.56844,-3.569286 2.48907,-3.911087 -4.66617,-1.477618 -5.99853,-1.288767 -9.08469,1.287675 l -3.24661,2.710392 2.3929,1.676058 C 279.3682,51.245774 280.6873,52 280.98344,52 c 0.29613,0 2.32923,-1.547593 4.51799,-3.439096 z m -59.99588,0.432965 c 0.99854,-1.103372 1.49277,-2.328886 1.09829,-2.723366 -0.89521,-0.895207 -5.79745,1.788029 -6.357,3.479497 -0.66575,2.012521 3.26454,1.447397 5.25871,-0.756131 z m 36.16509,-3.409793 c -0.34476,-0.89841 -1.24162,-1.3022 -2.13279,-0.960228 -1.85033,0.710041 -2.03227,3.0282 -0.28785,3.667819 1.76695,0.647881 3.12524,-0.871426 2.42064,-2.707591 z" id="path12" style="fill:#000000" inkscape:connector-curvature="0"/>
</svg>
