<?xml version="1.0" encoding="utf-8"?>
<!-- Created with Inkscape (http://www.inkscape.org/) -->
<svg xmlns="http://www.w3.org/2000/svg" xmlns:cc="http://creativecommons.org/ns#" xmlns:dc="http://purl.org/dc/elements/1.1/" xmlns:inkscape="http://www.inkscape.org/namespaces/inkscape" xmlns:rdf="http://www.w3.org/1999/02/22-rdf-syntax-ns#" xmlns:sodipodi="http://sodipodi.sourceforge.net/DTD/sodipodi-0.dtd" xmlns:svg="http://www.w3.org/2000/svg" height="472" id="svg2" version="1.1" viewBox="0 0 926 472" width="926" sodipodi:docname="illustration-nonsense-alphabet-1-6.svg" inkscape:version="0.92.4 (5da689c313, 2019-01-14)">
	<metadata id="metadata8">
		<rdf:RDF>
			<cc:Work rdf:about="">
				<dc:format>image/svg+xml</dc:format>
				<dc:type rdf:resource="http://purl.org/dc/dcmitype/StillImage"/>
				<dc:title/>
			</cc:Work>
		</rdf:RDF>
	</metadata>
	<defs id="defs6"/>
	<sodipodi:namedview bordercolor="#666666" borderopacity="1" gridtolerance="10" guidetolerance="10" id="namedview4" objecttolerance="10" pagecolor="#ffffff" showgrid="false" inkscape:current-layer="svg2" inkscape:cx="467.26728" inkscape:cy="236" inkscape:pageopacity="0" inkscape:pageshadow="2" inkscape:window-height="1010" inkscape:window-maximized="1" inkscape:window-width="1920" inkscape:window-x="0" inkscape:window-y="0" inkscape:zoom="1.3256343"/>
	<path d="m 593.84108,440.50775 c -0.24083,-0.24083 -5.14109,-0.70518 -10.88948,-1.03188 -5.74838,-0.3267 -12.9266,-0.80557 -15.9516,-1.06416 -3.025,-0.25859 -9.55,-0.68642 -14.5,-0.95074 -8.61053,-0.45978 -25.4655,-2.30171 -41.5,-4.53517 -4.125,-0.57457 -12.9,-1.67513 -19.5,-2.44568 -6.6,-0.77056 -14.7,-1.81445 -18,-2.31976 -5.54339,-0.84883 -43.98075,-0.66016 -65,0.31905 -13.5409,0.63082 -57.03077,1.82958 -65,1.79166 -3.85,-0.0183 -9.925,-0.34201 -13.5,-0.71931 -3.575,-0.3773 -8.81136,-0.8326 -11.63636,-1.01178 -2.825,-0.17918 -6.875,-0.59307 -9,-0.91974 -2.125,-0.32668 -8.11473,-0.85502 -13.3105,-1.17408 -5.19577,-0.31907 -11.49577,-1.02601 -14,-1.57098 C 271.6825,422.6183 267.91437,421.91855 256,420.03705 244.59003,418.2352 231.87237,415.02514 224.6849,412.13283 223.1366,411.50977 220.60634,411 219.06211,411 216.63842,411 203.35927,406.98962 192,402.82708 c -2.91889,-1.06961 -17.16059,-9.35406 -27,-15.706 -1.375,-0.88764 -3.625,-2.16954 -5,-2.84866 -1.375,-0.67912 -3.175,-1.62547 -4,-2.103 -0.825,-0.47754 -2.70297,-1.49851 -4.17328,-2.26883 -1.4703,-0.77033 -5.3465,-3.87559 -8.61379,-6.90059 -3.26728,-3.025 -9.40266,-8.2 -13.63417,-11.5 -4.23151,-3.3 -9.27865,-7.91948 -11.21587,-10.26552 -1.93722,-2.34603 -4.94887,-4.99641 -6.69255,-5.88973 C 109.92665,344.45142 106.7,342.0356 104.5,339.97626 93.908294,330.06171 75.229865,313.54947 73,312.12938 71.625,311.25372 69.006328,308.86763 67.180728,306.82697 62.913596,302.05714 52,286.95744 52,285.8234 c 0,-0.47745 -1.721695,-2.77053 -3.82599,-5.09574 -7.813112,-8.63337 -17.044973,-23.83917 -18.996594,-31.2893 l -1.849853,-7.06164 2.346806,-4.96666 c 2.3944,-5.06738 5.702006,-7.60736 11.75898,-9.02996 1.613342,-0.37892 4.088342,-1.29169 5.5,-2.02836 1.411658,-0.73668 3.0405,-1.34219 3.619648,-1.34558 0.579149,-0.003 2.829149,-1.27976 5,-2.83637 4.625261,-3.31656 5.821021,-3.78675 22.947003,-9.02309 16.972791,-5.1895 26.33605,-7.42284 28.61817,-6.82605 1.01479,0.26537 3.52348,-0.37321 5.57489,-1.41908 2.0514,-1.04586 4.44467,-1.90157 5.31838,-1.90157 0.87371,0 2.05026,-0.4617 2.61455,-1.02599 1.1637,-1.1637 11.69749,-5.17207 21.37401,-8.13334 3.575,-1.09405 9.92441,-3.08076 14.1098,-4.41492 4.18539,-1.33416 8.37023,-2.42575 9.29966,-2.42575 3.61955,0 7.43666,-3.0526 9.65684,-7.72272 1.24912,-2.6275 3.65188,-6.57728 5.33946,-8.77728 4.07656,-5.31434 28.92428,-30.03227 35.15993,-34.97626 4.88538,-3.87343 9.5111,-8.07406 18.65799,-16.94339 2.59803,-2.51919 5.14295,-4.58035 5.65539,-4.58035 1.24424,0 8.05134,-5.68363 16.62093,-13.87773 C 263.23203,93.685215 276.54933,84 278.66834,84 c 0.56193,0 1.83617,-0.9 2.83166,-2 0.99549,-1.1 2.18634,-2 2.64633,-2 0.46,0 2.75706,-1.4625 5.10458,-3.25 2.34751,-1.7875 6.28891,-4.075004 8.75865,-5.083342 7.45793,-3.044899 17.23744,-8.042444 19.94213,-10.190863 C 320.71106,59.283939 329.12574,55 330.6717,55 c 0.52395,0 2.81543,-0.9 5.09216,-2 2.27674,-1.1 4.62021,-2 5.20771,-2 0.58749,0 2.90401,-1.158912 5.14781,-2.575361 4.61592,-2.913903 9.38062,-3.692878 9.38062,-1.533625 0,1.564642 -0.58151,1.927777 -9,5.620239 -6.59607,2.893126 -6.5979,2.867492 0.54055,7.6016 1.99366,1.322163 2.21073,1.879447 1.20439,3.09201 -1.70133,2.049985 -0.64841,2.73487 3.23555,2.10459 2.88991,-0.468968 3.4731,-0.178587 4.67417,2.327363 0.75476,1.574751 1.91757,2.863184 2.58403,2.863184 0.66645,0 2.54752,1.4625 4.18015,3.25 1.7266,1.890381 3.94478,3.25 5.30228,3.25 2.0764,0 6.42673,2.261047 7.77888,4.043006 0.54328,0.715978 1.57528,0.962876 16.5,3.947503 5.5,1.099883 12.7,2.712884 16,3.584445 3.3,0.871562 8.7,2.239607 12,3.0401 3.3,0.800493 6.675,1.728399 7.5,2.062013 0.825,0.333614 3.78487,0.756019 6.57748,0.938678 2.79262,0.182658 8.86762,1.261903 13.5,2.398321 4.63239,1.136417 10.83675,2.482978 13.78747,2.992354 5.15354,0.88965 10.22987,2.25824 27.63505,7.45048 4.4,1.31258 13.35693,3.62763 19.90428,5.14455 6.54735,1.51692 14.19735,3.98881 17,5.49309 2.80265,1.50428 7.01498,3.24256 9.36074,3.86284 5.33157,1.40982 11.23498,4.83079 11.23498,6.51055 0,0.69871 1.47466,1.50969 3.27701,1.80217 3.19974,0.51925 12.15084,6.16072 24.22299,15.26667 3.3,2.48916 7.38582,5.16069 9.07961,5.93672 1.69378,0.77603 3.66138,2.11196 4.37244,2.96873 0.71106,0.85678 1.73077,1.55778 2.26602,1.55778 0.53526,0 2.16766,0.85006 3.62756,1.88903 1.4599,1.03897 5.52272,3.34623 9.02847,5.12724 3.50576,1.78102 9.58076,5.64742 13.5,8.59199 3.91925,2.94458 9.3759,6.06427 12.1259,6.93263 2.75,0.86836 7.025,2.4166 9.5,3.44052 6.57664,2.72081 8.41368,3.35413 9.23286,3.18306 0.40307,-0.0842 3.18083,0.96669 6.17281,2.33525 2.99197,1.36855 7.6953,2.97197 10.45184,3.56314 2.75655,0.59117 5.54638,1.71887 6.19964,2.506 0.65326,0.78713 2.14514,1.43391 3.31529,1.4373 1.17016,0.003 3.4165,0.67839 4.99187,1.5 1.57537,0.82161 3.60037,1.49661 4.5,1.5 0.89963,0.003 2.92463,0.67839 4.5,1.5 1.57537,0.82161 3.60037,1.49986 4.5,1.50722 0.89963,0.007 5.46069,1.35098 10.13569,2.98583 4.675,1.63484 10.75,3.24244 13.5,3.57242 2.75,0.32999 7.025,1.21088 9.5,1.95755 10.73055,3.23722 31.33209,4.33533 36.47709,1.9443 1.6626,-0.77266 6.17291,-1.89486 10.02291,-2.49379 3.85,-0.59893 8.48822,-1.96437 10.30716,-3.03432 1.81894,-1.06996 3.94095,-1.94537 4.71558,-1.94537 1.31135,0 9.36447,-4.28951 17.45474,-9.29729 6.97187,-4.31551 17.59818,-15.58698 21.35737,-22.65405 C 827.35068,168.259 829,164.43191 829,163.54401 c 0,-0.88791 0.62435,-2.61104 1.38745,-3.82919 3.44149,-5.49371 4.82747,-20.01029 3.2979,-34.54184 -0.42418,-4.02986 -0.49659,-8.19236 -0.16091,-9.25 0.98656,-3.10836 4.68008,-2.34326 7.30624,1.51348 2.18585,3.2101 2.31328,4.21943 2.05062,16.24316 -0.15403,7.05121 -0.71813,13.84509 -1.25355,15.09751 -1.53899,3.59988 0.44422,4.75708 4.69541,2.73976 3.1111,-1.47631 5.22653,-1.56135 17.7966,-0.7154 7.84619,0.52803 15.41655,0.60156 16.82302,0.16338 1.40647,-0.43817 4.68426,-1.04947 7.28398,-1.35846 5.53587,-0.65794 6.27508,0.15754 7.32634,8.08235 0.63397,4.7791 0.49728,5.20144 -2.69261,8.31915 -1.91949,1.87606 -5.71892,4.03783 -8.86049,5.04138 -3.025,0.9663 -7.975,2.71632 -11,3.88892 -7.44474,2.88585 -23.14781,8.23838 -25,8.52148 -0.825,0.12609 -1.62789,1.08675 -1.78421,2.13479 -0.44838,3.00623 -3.41567,12.8013 -4.21249,13.90552 -1.35003,1.87082 -7.1116,21.51574 -6.56816,22.39506 0.2975,0.48136 0.15236,2.16439 -0.32252,3.74007 -0.47489,1.57568 -1.38831,5.33987 -2.02982,8.36487 -1.18789,5.60141 -2.14374,9.58179 -3.8937,16.21432 -0.77232,2.92718 -0.67065,3.97106 0.47974,4.9258 0.84181,0.69865 1.2332,2.11403 0.9246,3.34361 -0.31787,1.26648 0.71926,4.74765 2.55446,8.57421 1.69928,3.54313 4.35733,10.01353 5.90678,14.37866 2.46053,6.93182 2.62719,8.07554 1.3164,9.03401 -1.29741,0.94869 -1.17618,1.44764 0.89457,3.68202 1.64057,1.7702 2.36999,3.69759 2.31485,6.11667 -0.0443,1.94263 -0.418,3.32518 -0.8305,3.07236 -1.79089,-1.09767 -0.42417,0.70997 4,5.29045 11.97992,12.40319 19.25,20.43051 19.25,21.25507 0,1.79037 3.11018,1.98722 15.61229,0.98814 11.86535,-0.94819 12.8014,-0.89367 13.79886,0.80374 3.64388,6.20092 0.39236,8.43854 -13.12063,9.02933 -8.83078,0.38607 -12.33426,0.0825 -19.29052,-1.67162 -4.675,-1.17886 -11.27313,-2.77922 -14.66252,-3.55636 -12.59361,-2.88754 -25.8606,-10.57155 -39.33748,-22.78357 -1.375,-1.24595 -4.14003,-3.50465 -6.14452,-5.01934 -2.00448,-1.51468 -4.19018,-4.07132 -4.8571,-5.68141 -0.66693,-1.6101 -5.16254,-6.30566 -9.99025,-10.43457 -4.8972,-4.18834 -9.04467,-8.57099 -9.38165,-9.91361 -0.44201,-1.7611 -2.08737,-3.00856 -6.13504,-4.65139 -3.04208,-1.23468 -5.9129,-2.9272 -6.37959,-3.76115 -0.55701,-0.9953 -2.52578,-1.56594 -5.7302,-1.66085 -2.68491,-0.0795 -5.3737,-0.44934 -5.97509,-0.82182 -2.26341,-1.40184 -13.13935,0.31936 -20.14221,3.18765 -3.97961,1.63 -8.80108,3.25732 -10.71437,3.61625 -1.9133,0.35894 -3.99986,1.28054 -4.6368,2.04801 C 718.27624,280.37207 716.96531,281 716,281 c -0.96531,0 -2.31531,0.675 -3,1.5 -0.68469,0.825 -1.75229,1.50116 -2.37244,1.50257 -0.62016,0.001 -3.82756,1.65591 -7.12756,3.67666 -3.3,2.02075 -8.0708,4.3821 -10.60177,5.24743 -6.71218,2.29488 -19.34827,9.48298 -32.166,18.29778 -6.17773,4.24843 -18.65723,12.74625 -27.73223,18.88403 -9.075,6.13778 -17.85,12.25771 -19.5,13.59985 -7.18405,5.84363 -21.05204,15.67388 -26.77944,18.98244 -3.42131,1.97639 -6.89556,4.16164 -7.72056,4.85609 -0.825,0.69446 -4.425,2.73177 -8,4.52736 -3.575,1.79559 -8.1875,4.3191 -10.25,5.60779 -2.0625,1.2887 -3.75,2.14098 -3.75,1.89396 0,-0.46868 -18.20759,8.58686 -25.98453,12.9234 -2.4665,1.37535 -5.52445,2.50064 -6.79546,2.50064 -2.54134,0 -7.6597,4.47955 -6.76762,5.92297 0.30804,0.49842 -0.005,1.13539 -0.69616,1.41549 -0.96104,0.38961 -0.91643,0.74575 0.18989,1.51563 0.79536,0.5535 2.14536,0.66825 3,0.255 1.72442,-0.83383 10.59065,-0.69315 14.25342,0.22614 1.29443,0.32488 5.49156,0.25949 9.32698,-0.14531 9.80351,-1.03469 10.5091,-0.80091 9.3874,3.11022 -0.50266,1.75266 -0.91392,3.26723 -0.91392,3.36571 0,0.79282 7.04325,2.20763 9.10166,1.82829 1.73411,-0.31958 3.16784,0.14617 4.29956,1.39671 1.38427,1.5296 2.37088,1.72439 5.341,1.05452 3.17013,-0.71498 3.94265,-0.49843 5.95044,1.66801 2.69068,2.9033 2.87863,3.54307 0.80734,2.74825 -0.825,-0.31659 -1.5,-0.0633 -1.5,0.56277 0,1.53072 1.24738,1.85304 9.84942,2.54511 7.35562,0.59178 15.15058,3.51067 15.15058,5.67326 0,0.74357 0.48385,0.70056 1.48727,-0.1322 1.91962,-1.59315 4.66414,-0.56872 3.88888,1.45158 C 605.95465,430.56058 606.41864,431 608,431 c 1.66519,0 2.06868,-0.43378 1.6278,-1.75 -0.38239,-1.14161 -0.0295,-0.96779 1.01499,0.5 1.31945,1.85414 2.5438,2.25 6.95895,2.25 5.81253,0 13.69946,2.59641 13.12469,4.3207 -0.63913,1.91739 -5.97474,2.75947 -20.622,3.25459 -7.91756,0.26763 -14.71729,0.68545 -15.11052,0.92847 -0.39322,0.24303 -0.91199,0.24482 -1.15283,0.004 z m -62.37742,-14.79653 c -0.35588,-1.41794 -1.16829,-2.39637 -1.80536,-2.17428 -1.58348,0.55202 -5.77013,-3.08312 -5.43185,-4.7163 0.20925,-1.0102 -1.95958,-1.36653 -9.22645,-1.51587 -5.225,-0.10737 -10.35724,-0.21987 -11.40499,-0.25 -1.84118,-0.0529 -1.8444,-0.12172 -0.0961,-2.05358 1.7892,-1.97704 1.74731,-1.99739 -3.84501,-1.86847 -3.10965,0.0717 -5.65391,0.5693 -5.65391,1.1058 0,0.5365 -0.65192,0.72529 -1.44872,0.41953 -0.7968,-0.30576 -2.80166,0.11901 -4.45526,0.94394 -1.6536,0.82492 -5.57307,1.69681 -8.70994,1.93753 -3.13686,0.24072 -6.45493,1.1178 -7.37348,1.94907 -0.91854,0.83128 -2.87215,1.51141 -4.34134,1.51141 -3.00934,0 -3.56524,1.44297 -0.94349,2.44903 3.8054,1.46027 15.72924,2.41658 16.99837,1.36329 0.89604,-0.74364 1.65639,-0.73974 2.56359,0.0132 1.64049,1.36148 11.42776,2.43804 32.61573,3.58757 5.72301,0.31049 10.64301,0.80208 10.93334,1.0924 1.1544,1.15441 2.2341,-1.36681 1.62486,-3.79424 z M 393.84447,421.8754 c 1.83946,0.076 9.89792,-0.98982 17.90769,-2.36857 8.00977,-1.37876 16.17976,-2.51217 18.15553,-2.5187 1.97577,-0.007 6.03112,-0.66093 9.01188,-1.45422 2.98076,-0.79329 5.76217,-1.23061 6.1809,-0.97182 0.41873,0.2588 1.0086,0.0704 1.31082,-0.41856 0.30222,-0.489 2.47082,-0.93644 4.8191,-0.99431 4.87584,-0.12015 16.96783,-3.39918 20.13993,-5.46142 1.17132,-0.7615 3.92968,-1.95592 6.12968,-2.65426 5.15458,-1.63621 10.34643,-3.78876 13.5,-5.59712 1.375,-0.78847 3.74649,-1.98627 5.26997,-2.66178 1.70783,-0.75724 2.56489,-1.76261 2.23514,-2.62193 -0.38234,-0.99636 0.0418,-1.24296 1.48752,-0.86489 1.34846,0.35263 2.52612,-0.19035 3.53412,-1.62948 0.83147,-1.18709 1.7281,-2.04584 1.99251,-1.90834 1.47425,0.76666 3.48074,0.0461 3.48074,-1.25 0,-0.825 0.5625,-1.50777 1.25,-1.51728 0.6875,-0.009 2.30814,-1.13285 3.60143,-2.49633 1.29328,-1.36348 2.74257,-2.23731 3.22063,-1.94185 0.47806,0.29545 2.13547,-0.11762 3.68313,-0.91794 1.54765,-0.80033 4.48587,-1.7688 6.52937,-2.15216 3.33415,-0.62549 3.71544,-0.48035 3.71544,1.41427 0,1.16121 -0.47656,2.11129 -1.05902,2.11129 -0.58246,0 -0.776,0.45792 -0.4301,1.0176 0.38524,0.62333 1.6227,0.23588 3.19387,-1 1.41073,-1.10968 3.55084,-2.0176 4.75579,-2.0176 1.20496,0 3.24771,-1.125 4.53946,-2.5 1.29175,-1.375 2.69763,-2.5 3.12418,-2.5 0.42656,0 2.77588,-1.35 5.22071,-3 2.44484,-1.65 4.93202,-3 5.52708,-3 0.59506,0 1.81905,-1.125 2.71999,-2.5 0.90093,-1.375 2.53852,-2.5 3.63907,-2.5 1.10056,0 4.08631,-1.51819 6.63499,-3.37375 2.54869,-1.85557 9.13398,-6.43734 14.63398,-10.18173 5.5,-3.74438 12.475,-8.53136 15.5,-10.63772 3.025,-2.10637 8.5447,-5.88894 12.26601,-8.40572 3.72131,-2.51678 7.32131,-5.12058 8,-5.78622 0.67869,-0.66564 3.93399,-2.97323 7.23399,-5.12798 3.3,-2.15475 6.225,-4.20872 6.5,-4.56438 0.41682,-0.53906 15.78909,-9.99704 21.81592,-13.4225 0.96768,-0.55 4.29373,-2.6875 7.39122,-4.75 3.09749,-2.0625 6.09422,-3.75 6.65941,-3.75 1.23862,0 8.91851,-4.02277 12.82192,-6.71619 1.54634,-1.06701 5.97924,-3.526 9.85088,-5.46444 3.87165,-1.93843 8.32486,-4.71579 9.89603,-6.1719 1.57116,-1.45611 3.44438,-2.64747 4.16269,-2.64747 0.71831,0 5.8346,-2.30831 11.36952,-5.12958 8.53408,-4.35001 10.66311,-5.04916 14.00884,-4.60041 5.22827,0.70126 6.02653,-0.49049 5.90171,-8.81084 -0.0877,-5.84643 0.20888,-7.11122 2.00948,-8.56925 2.15597,-1.74581 2.82809,-3.88992 1.21937,-3.88992 -2.03977,0 -2.07017,-3.41029 -0.0496,-5.56111 1.70749,-1.81754 1.9052,-2.64024 1.02827,-4.2788 -1.67491,-3.1296 -1.33595,-6.94661 0.66432,-7.48077 1.48206,-0.39577 1.40551,-0.57797 -0.5,-1.18995 -1.2375,-0.39745 -2.25,-1.37171 -2.25,-2.16502 0,-0.79331 -0.36903,-1.21431 -0.82007,-0.93555 -2.11955,1.30995 -6.60352,1.38214 -8.53665,0.13744 -1.1788,-0.75902 -4.95578,-1.95296 -8.39328,-2.65321 -3.75101,-0.76412 -6.25,-1.78532 -6.25,-2.55405 0,-1.51439 -4.32549,-2.79179 -6.55561,-1.93601 -0.85805,0.32926 -3.31612,-0.29721 -5.4624,-1.39216 C 700.83572,211.89587 698.32992,211 697.41354,211 c -0.91637,0 -4.1968,-1.27904 -7.28984,-2.84232 -3.09303,-1.56327 -7.8737,-3.14113 -10.6237,-3.50636 -2.75,-0.36523 -5.45173,-1.2707 -6.00384,-2.01217 -0.55211,-0.74146 -2.12711,-1.69183 -3.5,-2.11191 -1.37289,-0.42009 -3.17116,-1.31718 -3.99616,-1.99352 -2.5832,-2.11774 -5.0382,-2.59776 -5.61384,-1.09765 -0.63238,1.64794 2.33264,6.55467 3.97885,6.5845 0.62424,0.0113 3.38499,1.99837 6.13499,4.41569 l 5,4.39512 -2.90567,1.11875 c -1.59811,0.6153 -4.74811,0.92355 -7,0.68498 -2.25188,-0.23856 -6.24216,0.0506 -8.86728,0.64262 -6.09077,1.37355 -7.08475,0.43795 -6.88809,-6.48347 0.16241,-5.71608 -0.98649,-8.9826 -2.37129,-6.74195 -0.43028,0.69621 -0.88821,4.00676 -1.01763,7.35676 -0.12941,3.35001 -0.28361,6.42843 -0.34267,6.84093 -0.059,0.4125 -1.4488,0.75 -3.08832,0.75 -2.34569,0 -3.11466,-0.53277 -3.60841,-2.5 -0.71441,-2.84647 -2.17858,-3.2683 -3.09102,-0.89054 -0.56453,1.47116 -0.69436,1.4723 -1.51089,0.0132 -0.54489,-0.97367 -0.48678,-2.35576 0.149,-3.54372 1.49289,-2.78949 1.28525,-8.36878 -0.3959,-10.63786 -1.42113,-1.91813 -1.45631,-1.91743 -2.96906,0.0589 -0.84199,1.1 -2.06305,3.575 -2.71346,5.5 -1.71905,5.08783 -3.85979,8 -5.88082,8 -2.3398,0 -3.34311,-5.85039 -1.38545,-8.07874 1.5833,-1.80223 1.85829,-4.92126 0.43388,-4.92126 -0.5242,0 -1.70392,1.58226 -2.6216,3.51613 -3.30547,6.96577 -4.44852,4.51607 -3.23453,-6.93202 0.17007,-1.60374 -0.19319,-3.08371 -0.80723,-3.28882 -0.69812,-0.23319 -1.37974,1.98347 -1.81912,5.9159 C 612.78121,206.22083 609.45998,211 605.37193,211 c -3.5008,0 -3.79484,-1.78224 -0.96724,-5.86247 C 605.83211,203.07776 607,200.62919 607,199.69625 607,197.85427 603.61684,194 602,194 c -0.55,0 -1.01497,-0.7875 -1.03327,-1.75 -0.0382,-2.01099 -3.29443,-6.25 -4.80095,-6.25 -0.58666,0 -0.94341,2.42211 -0.84692,5.75 0.16789,5.79002 -1.28766,10.05133 -5.14677,15.06787 -1.40125,1.82151 -2.36009,2.17305 -4.47759,1.64159 -3.31726,-0.83258 -3.33743,-1.42323 -0.20616,-6.03742 2.61874,-3.85892 2.56032,-7.51623 -0.16356,-10.24011 -0.73583,-0.73584 -1.80076,-2.20279 -2.36651,-3.25991 C 581.65932,186.49493 580,186.43331 580,188.81217 c 0,2.00803 -3.52429,9.77579 -4.79037,10.55827 -1.93755,1.19747 -5.62376,-4.49027 -4.7317,-7.30091 0.31515,-0.99295 0.10409,-3.03871 -0.46904,-4.54614 -0.88729,-2.33375 -1.27266,-2.54937 -2.59499,-1.45194 -0.85412,0.70886 -1.3435,2.08977 -1.08751,3.06868 0.256,0.97892 -0.1108,3.48535 -0.81509,5.56986 -2.18685,6.47245 -12.39152,11.93631 -13.30795,7.12545 -0.18721,-0.98277 0.53235,-1.93417 1.75677,-2.32278 1.14062,-0.36202 2.72557,-2.218 3.52212,-4.12439 1.29607,-3.10194 1.26802,-3.85613 -0.26699,-7.17722 -2.54798,-5.51272 -4.3231,-6.55705 -5.91849,-3.48194 -0.71322,1.37473 -1.29676,4.04936 -1.29676,5.94363 0,2.81705 -0.83615,4.2073 -4.59239,7.63569 -2.52581,2.30537 -5.28344,4.44267 -6.12807,4.74958 -2.42913,0.88266 -7.38605,-0.17199 -7.97083,-1.6959 C 530.55114,199.38791 532.84554,197 535.5,197 c 2.5251,0 4.30178,-1.70214 4.779,-4.57848 0.17533,-1.05684 0.84854,-2.88435 1.496,-4.06114 1.00894,-1.83376 0.89473,-2.21348 -0.79889,-2.65638 C 539.88925,185.41978 539,184.47011 539,183.59362 539,182.71713 538.53027,182 537.95616,182 c -0.57411,0 -0.91161,-0.7875 -0.75,-1.75 0.19294,-1.14907 -0.30709,-1.70231 -1.45616,-1.61111 -0.9625,0.0764 -1.75,-0.51267 -1.75,-1.30902 0,-0.79635 -0.45,-1.16979 -1,-0.82987 -0.55,0.33992 -1,1.56841 -1,2.72999 0,3.11425 -5.83236,14.53918 -8.30701,16.27249 -4.88703,3.42302 -7.22703,0.23302 -3.49363,-4.76269 2.44504,-3.27173 3.13833,-10.02325 1.42123,-13.84059 -0.39603,-0.88044 -0.62501,-2.00544 -0.50884,-2.5 0.29487,-1.25534 -2.06163,-6.78266 -2.64358,-6.2007 -0.26173,0.26173 -0.95693,3.13664 -1.54487,6.38869 -2.44641,13.53152 -6.71386,20.0731 -12.74139,19.53129 -0.92957,-0.0836 -0.67371,-1.02344 0.86801,-3.18859 1.80691,-2.53756 2.10553,-4.04178 1.72158,-8.67175 -0.38906,-4.6916 -0.93623,-5.97908 -3.36802,-7.92492 -4.17849,-3.34352 -5.77693,-3.05981 -5.16527,0.91678 0.66268,4.30827 -0.98649,8.77847 -5.24355,14.21301 -2.83622,3.62071 -4.107,4.46841 -6.74466,4.49913 -4.17706,0.0487 -4.1101,-1.20432 0.24171,-4.52362 3.75669,-2.86536 6.09303,-8.82559 4.99303,-12.73769 -1.84104,-6.54753 -2.63805,-7.55094 -6.51847,-8.20653 -2.11813,-0.35785 -4.38214,-1.29047 -5.03115,-2.07247 -1.63618,-1.97149 -7.83173,-1.85484 -8.60567,0.16202 -0.42861,1.11694 -0.82052,1.23962 -1.32945,0.41615 -0.51109,-0.82695 -0.89579,-0.71396 -1.31835,0.38722 -0.32817,0.85519 0.10519,2.25676 0.96301,3.11458 4.0792,4.0792 0.7735,18.57937 -4.404,19.31775 -2.47025,0.35229 -2.6936,-0.1047 -1.31246,-2.68539 0.51051,-0.95389 1.062,-4.43419 1.22554,-7.73398 0.24134,-4.8698 -0.0747,-6.39143 -1.6782,-8.08015 C 461.16585,168.88762 454,167.66308 454,169.7008 c 0,0.71456 0.45,1.2992 1,1.2992 0.55,0 1,0.675 1,1.5 0,0.825 -0.38534,1.5 -0.85631,1.5 -0.47097,0 -0.77355,1.9125 -0.67241,4.25 0.16116,3.72449 -0.84439,6.32294 -4.11538,10.6346 -0.16047,0.21153 -1.62686,-0.16841 -3.25863,-0.84431 l -2.96685,-1.22891 2.04198,-3.91763 c 1.88244,-3.61154 1.91907,-4.09248 0.46879,-6.15569 -4.69689,-6.68195 -7.9144,-8.8276 -12.03651,-8.02675 -4.1692,0.81 -4.64309,1.79794 -4.14904,8.64973 0.23244,3.22358 0.0484,6.59858 -0.40891,7.5 -0.45734,0.90143 -1.29803,2.82758 -1.8682,4.28033 -1.19501,3.04484 -6.67749,6.15243 -9.35499,5.30263 -2.57691,-0.81789 -2.30326,-1.79294 1.69216,-6.02933 3.13508,-3.32415 3.47428,-4.20974 3.13308,-8.17994 -0.21044,-2.44871 -0.95016,-4.80296 -1.64382,-5.23166 -0.69365,-0.42871 -0.94479,-1.29142 -0.55807,-1.91714 0.43242,-0.69967 -0.48052,-1.55029 -2.37129,-2.20942 -1.94792,-0.67905 -3.66599,-2.31841 -4.68895,-4.47413 -1.80946,-3.81315 -4.13829,-4.34124 -6.57817,-1.49167 -1.27823,1.49287 -1.45095,2.75032 -0.78978,5.75 1.22675,5.56574 1.45318,12.3898 0.52557,15.83929 -0.93004,3.45849 -4.28104,7.5 -6.21858,7.5 -1.56486,0 -1.63192,-0.43797 -0.42315,-2.76357 2.17223,-4.17927 3.43305,-10.30084 2.34558,-11.38831 -0.60051,-0.60051 -0.85385,-1.712 -0.56299,-2.46998 C 402.99923,176.55962 402.56143,176 401.60699,176 400.72314,176 400,175.325 400,174.5 c 0,-0.825 -0.45,-1.5 -1,-1.5 -0.55,0 -1,-0.675 -1,-1.5 0,-0.825 -0.65917,-1.5 -1.46482,-1.5 -0.80565,0 -1.94648,-0.9 -2.53518,-2 -0.5887,-1.1 -1.42933,-2 -1.86806,-2 -1.23322,0 -0.67335,3.16357 1.18578,6.70034 2.24001,4.26136 2.12053,7.28961 -0.47984,12.16131 -1.50104,2.81215 -3.02235,4.23959 -4.9756,4.6686 -4.21714,0.92624 -5.02579,-0.25077 -2.23855,-3.25825 1.83679,-1.98193 2.42988,-3.62296 2.25205,-6.23124 -0.31561,-4.62919 -0.76714,-5.37581 -2.421,-4.00323 -1.78619,1.4824 -3.07688,0.60426 -3.89337,-2.64888 -0.84831,-3.37994 -3.0166,-5.53494 -4.85807,-4.82831 -0.79489,0.30503 -1.71129,-0.13867 -2.03644,-0.98601 -0.32516,-0.84734 -1.23771,-1.29252 -2.0279,-0.9893 -0.79018,0.30323 -1.75189,0.0413 -2.13713,-0.582 -0.49072,-0.794 -1.2695,-0.61831 -2.60115,0.58681 -2.52862,2.28837 -2.40527,3.27409 0.83261,6.65371 2.33914,2.44153 2.73334,3.69398 2.73334,8.68447 0,3.20732 -0.60768,6.96694 -1.3504,8.35472 -1.64763,3.07863 -9.03667,7.06877 -11.40626,6.15948 C 356.9339,195.76066 356.30278,193 357.92308,193 c 0.50769,0 2.30769,-1.38462 4,-3.07692 3.49637,-3.49638 3.96859,-7.24177 1.55445,-12.32919 -1.36387,-2.87415 -6.39888,-5.95486 -9.97753,-6.10484 -0.55,-0.023 -1.60541,-0.42059 -2.34535,-0.88343 -0.79486,-0.49718 -2.35591,-0.30068 -3.81504,0.48022 -2.08604,1.11641 -2.61964,1.0959 -3.43502,-0.13205 -0.67072,-1.0101 -0.76139,-0.53819 -0.29708,1.54621 0.36755,1.65 0.99945,3.45 1.40423,4 0.40479,0.55 1.03213,3.0496 1.3941,5.55466 0.54683,3.78449 0.26702,5.13502 -1.6548,7.9868 -2.99943,4.45086 -7.40049,6.15842 -9.27288,3.59778 -1.10661,-1.51338 -1.09256,-2.48069 0.0845,-5.81682 0.98202,-2.78332 1.11128,-4.56317 0.42459,-5.84625 -1.51421,-2.82935 -1.18023,-4.81461 0.44856,-2.66633 0.91485,1.20662 1.60038,1.44064 2.05681,0.70211 1.87781,-3.03835 -2.63667,-5.46789 -5.26898,-2.83558 -0.90183,0.90183 -1.61981,0.77506 -3.07645,-0.54317 -1.75189,-1.58544 -1.9494,-1.59098 -2.53266,-0.071 -0.38802,1.01115 0.49132,3.17682 2.27438,5.6014 3.52326,4.79089 3.17977,6.87731 -2.18867,13.29442 -2.60988,3.11969 -4.56706,4.54201 -6.25,4.54201 -3.03563,0 -3.1254,-1.65241 -0.25571,-4.70706 3.85652,-4.10507 4.27264,-9.42454 0.80548,-10.29685 -1.67934,-0.42252 -2.3971,-1.20969 -2.18654,-2.39798 0.26269,-1.48253 -0.3041,-1.71468 -3.5,-1.43355 -3.33337,0.29321 -3.77674,0.0837 -3.52176,-1.66456 0.1631,-1.11832 -0.0573,-1.55916 -0.5,-1 -0.43544,0.55 -1.3542,1.045 -2.0417,1.1 -4.29213,0.34337 -4.25,0.27466 -4.25,6.93212 0,8.8428 -1.82039,12.76384 -7.63888,16.45382 -8.06581,5.11518 -10.14697,3.32953 -3.35518,-2.87878 3.96735,-3.62651 5.97128,-7.97746 5.23082,-11.35716 -0.21087,-0.9625 -0.93235,-1.75 -1.60329,-1.75 -0.67093,0 -1.65044,-1.45765 -2.17667,-3.23922 -0.69555,-2.35476 -1.77594,-3.47906 -3.9568,-4.11762 -1.65,-0.48313 -3.82683,-1.30386 -4.8374,-1.82384 -1.54049,-0.79266 -1.73767,-0.6312 -1.2202,0.9992 0.39827,1.25483 0.0745,2.15286 -0.9126,2.53167 -0.84139,0.32287 -1.5298,1.26204 -1.5298,2.08704 0,0.92249 0.57751,1.27839 1.5,0.9244 0.825,-0.31659 1.5,-0.0775 1.5,0.53138 0,0.60885 -0.675,1.10699 -1.5,1.10699 -1.07461,0 -1.5,1.09613 -1.5,3.86514 0,2.35095 -0.78351,4.86122 -2,6.40773 -1.1,1.39842 -2.01497,2.92161 -2.03327,3.38486 -0.0183,0.46325 -0.93626,1.92681 -2.03992,3.25235 -2.43319,2.92239 -4.56887,1.60163 -3.3301,-2.05942 0.43746,-1.29286 0.69523,-2.87923 0.57282,-3.52525 -0.12241,-0.64603 0.23936,-1.46009 0.80395,-1.80902 3.4866,-2.15484 -1.93719,-12.79272 -6.35778,-12.46975 -5.13625,0.37526 -9.02842,-3.18356 -5.12144,-4.68281 0.82184,-0.31537 1.23178,-0.9981 0.91097,-1.51717 -0.35303,-0.57122 -1.10934,-0.50719 -1.9159,0.16219 -0.98036,0.81363 -1.8624,0.77511 -3.33688,-0.14571 -1.57668,-0.98466 -2.5686,-0.99456 -4.64956,-0.0464 -3.50802,1.59836 -2.9432,4.50052 1.00932,5.18611 2.5948,0.45008 3.0143,0.97722 3.18932,4.0077 0.55747,9.65258 0.26549,12.1244 -1.91437,16.20646 L 255.5,206.5 l -0.30493,-4.19753 c -0.21785,-2.9987 -0.68434,-4.05195 -1.63333,-3.68779 -0.88593,0.33997 -1.51004,-0.5935 -1.87372,-2.80246 -1.01149,-6.14364 -1.98048,-9.3083 -3.08705,-10.08216 -0.60553,-0.42346 -3.12597,-0.72097 -5.60097,-0.66114 -6.66396,0.16112 -6.73131,0.13777 -7.41064,-2.56892 -0.72974,-2.90749 -2.19434,-3.16746 -4.76062,-0.84501 -2.29143,2.07371 -2.35067,4.09785 -0.13243,4.52504 1.61046,0.31015 2.08468,3.10572 2.38354,14.0512 0.0752,2.75467 -2.46684,7.26877 -4.09332,7.26877 -1.13242,0 -1.41905,-1.04446 -1.20326,-4.38449 0.3337,-5.16494 -1.32129,-7.49636 -7.28327,-10.26013 -6.71341,-3.11212 -8.15228,-4.58127 -6.72505,-6.86662 1.72002,-2.7542 1.59033,-2.98876 -1.65251,-2.98876 -5.20114,0 -6.97393,5.35524 -4.63455,14 1.77788,6.56982 1.96354,14.60297 0.36041,15.59376 -1.52237,0.94087 -4.00266,-2.53205 -3.32752,-4.65922 0.87897,-2.76941 -1.38952,-7.13033 -5.57093,-10.70946 C 194.6771,193.56777 193.84847,191 196.94098,191 c 1.06754,0 2.20515,-0.42742 2.52801,-0.94983 0.65426,-1.05861 -3.30979,-3.5427 -4.21263,-2.63987 -0.31479,0.31479 -1.14748,0.095 -1.85043,-0.48837 -0.90126,-0.74798 -1.86721,-0.74543 -3.27627,0.009 -1.099,0.58816 -2.87266,1.06939 -3.94147,1.06939 -2.13129,0 -4.46971,2.31047 -4.8312,4.77344 -0.12687,0.86443 0.6409,2.67972 1.70617,4.03398 1.06526,1.35426 1.93961,2.96411 1.943,3.57744 0.003,0.61333 0.67403,2.39568 1.49032,3.96078 1.93706,3.71402 0.318,10.98431 -3.31914,14.90436 -4.50379,4.85413 -7.66455,2.89242 -4.24763,-2.63627 2.5952,-4.19911 2.70056,-9.98346 0.22691,-12.45711 -1.01386,-1.01386 -3.93886,-2.4621 -6.5,-3.21831 -5.17194,-1.52709 -5.58183,-2.17686 -2.66298,-4.2213 C 172.2766,195.11796 171.65721,194 168.48832,194 c -3.42466,0 -5.50974,3.08595 -5.32202,7.87668 0.11413,2.91261 -0.38794,4.74744 -1.62037,5.92177 -1.0018,0.95458 -1.9749,1.26256 -2.21666,0.70155 -2.16407,-5.02186 -4.18001,-7.94936 -5.30048,-7.69721 -0.74003,0.16653 -1.64361,-0.17956 -2.00796,-0.76908 -0.39257,-0.6352 -1.21425,-0.0408 -2.01691,1.45897 -0.98959,1.84906 -1.87933,2.36425 -3.30284,1.91245 -1.0716,-0.34012 -2.45523,-0.72744 -3.07473,-0.86072 -0.61949,-0.13328 -1.91086,-0.58229 -2.8697,-0.9978 -1.89859,-0.82276 -8.7873,2.28091 -12.33173,5.55598 -1.4979,1.38406 -2.90422,1.75155 -5.05601,1.32119 -2.06869,-0.41374 -3.3838,-0.11077 -4.29737,0.99002 -1.85262,2.23227 0.0666,4.28372 5.29495,5.65968 5.90268,1.55344 10.87547,7.36887 12.16108,14.22179 0.8729,4.65297 -3.19933,13.58985 -7.78685,17.08892 -4.66801,3.56046 -12.79376,6.81931 -15.38312,6.16943 -1.22034,-0.30629 -3.28198,-0.15267 -4.58141,0.34137 -1.58719,0.60345 -3.41509,0.45573 -5.5694,-0.45009 C 101.44306,251.70331 100,251.31683 100,251.58607 c 0,0.26924 -2.475,-2.28425 -5.5,-5.67443 -5.562731,-6.23427 -5.969472,-7.36193 -5.558918,-15.41164 0.08415,-1.65 1.481837,-5.59408 3.105962,-8.76462 C 93.67117,218.56484 95,215.75234 95,215.48538 c 0,-1.03644 -3.208378,-0.40069 -7.260898,1.43877 C 74.582372,222.89604 71.683462,224 69.158423,224 c -1.901884,0 -3.451668,0.90536 -4.897621,2.86112 -2.542266,3.4386 -9.284022,7.13468 -13.041596,7.14989 -5.75898,0.0233 -10.300634,1.34315 -12.626989,3.6695 -2.168361,2.16836 -2.285354,2.68235 -1.12127,4.92613 2.01942,3.89244 4.62338,5.32701 9.732,5.36156 5.027568,0.034 8.278463,1.16757 13.6866,4.77244 1.864251,1.24265 4.269784,2.25936 5.345629,2.25936 1.075846,0 3.165744,0.86135 4.644218,1.91412 1.478474,1.05277 4.247941,2.21445 6.15437,2.58152 1.90643,0.36707 4.871041,1.86822 6.588026,3.33588 3.332861,2.8489 5.353507,7.16848 3.353327,7.16848 -0.637812,0 -2.247425,0.85564 -3.576919,1.90142 -2.009652,1.58079 -2.835897,1.70726 -4.899927,0.75 -1.365467,-0.63328 -2.486178,-1.42904 -2.490469,-1.76836 -0.0043,-0.33932 -3.223627,-2.77453 -7.15408,-5.41158 -6.986808,-4.68764 -7.312164,-4.79296 -14.58002,-4.7197 -4.088558,0.0412 -7.702427,0.34361 -8.030819,0.672 C 45.421837,262.24483 51.061481,268 52.687091,268 53.470876,268 54,269.17546 54,270.91667 c 0,1.60416 0.339387,3.06666 0.754192,3.25 1.824234,0.80626 10.240742,13.40415 9.771726,14.62638 -0.286095,0.74556 0.143606,2.01933 0.95489,2.83062 0.811284,0.81128 1.822492,2.02743 2.247127,2.70256 0.424636,0.67512 4.372065,4.28402 8.772065,8.01978 11.237022,9.54063 19.351648,16.7695 21.790512,19.41195 1.314021,1.42371 2.753808,2.04536 3.896898,1.68256 1.4306,-0.45406 1.76016,-0.0899 1.56275,1.72681 -0.20793,1.91358 0.48,2.53579 4.07527,3.68595 2.76034,0.88305 4.71806,2.24544 5.41052,3.76523 0.59679,1.30982 1.58006,2.38149 2.18504,2.38149 0.60498,0 5.10107,3.825 9.99132,8.5 4.89025,4.675 9.69239,8.5 10.67143,8.5 0.97904,0 2.71531,1.31342 3.85838,2.91871 1.14307,1.6053 5.56121,5.82276 9.81809,9.37215 4.25689,3.54939 8.63979,7.4362 9.73979,8.63734 5.07893,5.54595 6.76195,6.92073 9.23105,7.54043 2.40482,0.60357 8.80824,3.60522 16.76895,7.86055 3.27415,1.75017 14.38586,5.69195 30,10.64222 5.5,1.74371 11.35,3.77625 13,4.51676 3.92191,1.76014 23.75627,5.98867 49,10.44643 6.05,1.06837 14.15,2.61955 18,3.44708 3.85,0.82753 13.075,1.74228 20.5,2.03279 7.425,0.2905 17.775,0.9596 23,1.48688 5.225,0.52728 14.60609,0.95878 20.84686,0.95887 6.24078,1e-4 11.64078,0.30867 12,0.68571 0.35923,0.37704 4.70314,0.34931 9.65314,-0.0616 4.95,-0.41094 10.50501,-0.68494 12.34447,-0.6089 z M 468,405.14217 c 0,-1.02776 3.02888,-2.44663 3.72877,-1.74673 0.24339,0.24339 -0.49602,0.94481 -1.64312,1.55872 C 468.93781,405.56846 468,405.653 468,405.14217 Z M 382.33472,350.75 c 0.29486,-2.3375 0.84125,-5.7125 1.21419,-7.5 0.45992,-2.20433 0.30084,-3.25 -0.49443,-3.25 -0.64488,0 -0.88222,0.46971 -0.52741,1.0438 0.82795,1.33965 -1.44444,4.1253 -2.7214,3.3361 -0.53225,-0.32895 -0.65028,-1.7865 -0.2623,-3.23899 0.76364,-2.85885 1.05271,-4.38632 2.0611,-10.89091 0.44462,-2.86802 1.158,-4.25 2.19387,-4.25 0.84424,0 1.19749,-0.3375 0.78499,-0.75 -0.4125,-0.4125 -1.2657,-0.75 -1.89601,-0.75 -0.6303,0 -1.2818,-1.76953 -1.44777,-3.93229 -0.16596,-2.16276 -1.1931,-5.37452 -2.28253,-7.13726 C 376.69739,309.7743 377.25979,307 380.2606,307 c 2.42318,0 9.87848,7.71359 9.61501,9.94812 -0.10064,0.85353 0.0722,2.22688 0.38417,3.05188 1.4711,3.89076 1.54676,8.32159 0.21693,12.70442 -0.80028,2.63757 -1.45993,5.81029 -1.46589,7.05048 -0.006,1.2402 -1.13582,4.58692 -2.51082,7.43716 -1.375,2.85023 -2.5,5.77303 -2.5,6.49509 0,0.72207 -0.49531,1.31285 -1.10069,1.31285 -0.71237,0 -0.91156,-1.49943 -0.56459,-4.25 z m -26.95063,-0.19146 c -0.33383,-0.86995 0.42792,-4.13151 1.69277,-7.24791 2.49579,-6.14923 2.95642,-14.36067 0.94176,-16.78819 -0.70963,-0.85506 -1.01968,-3.12758 -0.74781,-5.4812 0.25543,-2.21131 0.12804,-5.86008 -0.28309,-8.10837 -0.80985,-4.42872 -0.85108,-4.38571 5.1581,-5.38073 3.29827,-0.54613 3.64846,-0.38674 3.67361,1.67209 0.0153,1.25167 0.29636,7.56309 0.62462,14.02537 0.62146,12.23431 -0.3622,17.81074 -4.45405,25.2504 -1.84176,3.34862 -5.65489,4.53687 -6.60591,2.05854 z m -52.65531,-21.48767 c -0.41962,-1.60463 2.17863,-9.14508 6.84145,-19.8548 1.64546,-3.77934 1.90319,-10.80544 0.42977,-11.71607 -0.55,-0.33992 -1,-2.61648 -1,-5.05902 0,-4.93887 1.29399,-5.64408 4.93765,-2.69098 1.90711,1.54567 2.18276,2.85923 2.36079,11.25 0.19352,9.12093 0.0706,9.71946 -3.0814,15 -5.22924,8.76064 -5.60223,9.33913 -7.86275,12.19488 -1.90459,2.40607 -2.19964,2.50452 -2.62551,0.87599 z M 130,315.84343 c -2.475,-1.17086 -5.56699,-2.61982 -6.8711,-3.21992 -1.3041,-0.6001 -2.61146,-1.77338 -2.90523,-2.6073 -1.00453,-2.85147 -2.48775,-4.20696 -3.25138,-2.97137 -0.51872,0.8393 -1.24832,0.79973 -2.76944,-0.15023 -1.76529,-1.10244 -2.03993,-2.19875 -1.89126,-7.54941 0.1076,-3.87257 -0.29999,-6.7336 -1.06883,-7.50244 C 109.79902,290.39902 109.56143,286 110.9272,286 c 1.27857,0 7.0728,7.15926 7.0728,8.73905 0,0.70584 1.0125,3.30077 2.25,5.7665 1.87037,3.72674 2.92489,4.65671 6.25,5.51179 2.2,0.56575 4.78139,1.46829 5.73643,2.00565 0.95504,0.53735 3.29693,0.97701 5.20419,0.97701 2.95494,0 3.99723,-0.69342 7.04805,-4.68896 1.97208,-2.58274 3.33015,-5.34081 3.02341,-6.14016 -0.30628,-0.79816 0.30978,-2.05823 1.36902,-2.80016 3.68169,-2.57875 5.34255,-10.85988 4.80606,-23.96321 -0.47212,-11.53085 -0.92829,-14.55308 -4.00575,-26.53901 -1.52905,-5.95528 -1.36697,-6.71087 1.81859,-8.4779 1.55237,-0.8611 2.02025,-2.20399 2.09048,-6 0.0498,-2.68983 -0.48026,-6.04295 -1.17784,-7.45139 C 150.87746,219.83961 145.05521,214 143.5,214 c -1.61191,0 -7.5,-5.98125 -7.5,-7.61866 0,-0.90572 1.17699,-1.38134 3.41835,-1.38134 2.60368,0 4.67474,1.07244 8.69023,4.5 2.89953,2.475 5.86128,4.5 6.58165,4.5 0.72037,0 1.30977,0.60586 1.30977,1.34636 0,0.7405 0.77382,2.878 1.71959,4.75 0.94578,1.872 1.97348,5.97676 2.28377,9.12168 0.55452,5.62012 0.51651,5.7285 -2.21959,6.32945 -2.47228,0.54301 -2.78377,1.05362 -2.78377,4.56335 0,2.63137 0.51322,4.14887 1.53589,4.5413 1.37746,0.52859 1.37467,0.83542 -0.027,2.97468 -1.16768,1.7821 -1.3397,3.20562 -0.68023,5.62924 0.48547,1.78417 1.34,3.15065 1.89895,3.03663 0.56628,-0.11552 0.99384,1.65565 0.96559,4 -0.0279,2.31402 0.32305,6.23231 0.77982,8.70731 2.25198,12.20209 0.27368,24.86075 -5.12999,32.82561 -1.24092,1.82908 -2.50939,4.12329 -2.81883,5.09824 -0.30944,0.97495 -1.69159,2.28703 -3.07146,2.91574 -1.37986,0.62871 -2.77671,1.84117 -3.10411,2.69436 -0.62736,1.63487 -7.36129,5.47581 -9.55876,5.45218 -0.70941,-0.008 -3.31484,-0.97185 -5.78984,-2.1427 z M 320.88598,298.75 c -0.0627,-0.1375 -0.26472,-1.53916 -0.44891,-3.11481 -0.18419,-1.57564 -1.05485,-3.66035 -1.93479,-4.63267 -1.47173,-1.62625 -1.43681,-2.05825 0.43592,-5.39249 1.1197,-1.99354 2.04167,-3.84634 2.04881,-4.11732 0.007,-0.27099 0.0505,-0.60521 0.0963,-0.74271 0.0458,-0.1375 0.19562,-1.26228 0.33285,-2.49951 0.31198,-2.81275 0.6491,-3.14276 3.55386,-3.47893 2.04368,-0.23651 2.51543,0.37371 3.65553,4.72844 1.37343,5.24598 1.28933,6.78344 -0.6838,12.5 -1.34927,3.90911 -6.22438,8.57294 -7.05579,6.75 z m -84.99462,-20.19198 c -0.46322,-0.46321 -10.89301,-2.37328 -16.89136,-3.0934 -1.925,-0.2311 -9.96678,-0.64514 -17.87062,-0.92007 -13.46703,-0.46845 -17.93356,-1.43435 -16.60125,-3.59007 0.27837,-0.4504 3.05959,-0.6248 6.1805,-0.38755 3.3664,0.25591 5.9392,0.003 6.32545,-0.62207 0.35808,-0.57939 3.36333,-1.09189 6.67832,-1.13889 5.22092,-0.074 5.96618,-0.31909 5.5706,-1.83179 -0.29577,-1.13101 -1.92359,-2.01282 -4.61984,-2.50264 l -4.16316,-0.7563 3.5,-0.75505 c 1.925,-0.41528 4.91697,-1.20673 6.64882,-1.7588 2.10819,-0.67202 3.4809,-0.67167 4.15363,10e-4 0.65677,0.65677 1.60621,0.66823 2.74114,0.0331 1.2016,-0.67245 2.54016,-0.54212 4.34638,0.42319 1.56651,0.8372 5.20881,1.33973 9.11003,1.25692 3.575,-0.0759 7.34711,0.20807 8.38247,0.63101 1.09318,0.44656 2.70039,0.25818 3.83324,-0.4493 1.58525,-0.99001 2.41653,-0.91312 4.43636,0.41032 2.57867,1.68961 7.92287,1.7806 10.09793,0.17193 0.81255,-0.60096 1.25,-0.51937 1.25,0.23313 0,0.8636 0.52974,0.87412 2.08565,0.0414 1.1471,-0.61391 2.33127,-0.87057 2.63148,-0.57036 0.30021,0.30021 1.35936,0.11045 2.35366,-0.42169 1.12875,-0.60408 2.02696,-0.61297 2.39117,-0.0237 0.55814,0.90308 6.23812,3.7564 11.53804,5.7961 2.73403,1.0522 5,0.6548 5,-0.8769 0,-0.53663 -0.38679,-0.73663 -0.85953,-0.44446 -1.51737,0.93778 -6.052,-1.84561 -6.37526,-3.91319 -0.17198,-1.1 -0.91188,-1.87171 -1.64421,-1.71491 -0.73234,0.15679 -1.96857,-0.24362 -2.74718,-0.88981 -0.77862,-0.6462 -2.64375,-1.30779 -4.14474,-1.4702 -1.501,-0.16242 -5.20408,-0.5743 -8.22908,-0.91531 -15.76227,-1.77685 -15.80238,-1.77935 -23.75,-1.47945 -0.9625,0.0363 -5.8,-0.1023 -10.75,-0.30804 -4.95,-0.20574 -9.7875,0.0134 -10.75,0.487 -1.0942,0.5384 -1.75,0.47316 -1.75,-0.1741 C 214,256.46583 213.1,256 212,256 c -1.1,0 -2,-0.45 -2,-1 0,-0.9356 5.74074,-1.35471 17.5,-1.27759 11.43177,0.075 35.66683,1.21826 38.97341,1.83858 3.50454,0.65746 10.24239,-1.17846 8.97538,-2.44559 -0.33844,-0.33847 -5.41537,-0.7412 -11.28207,-0.89496 C 252.47258,251.91395 250,251.74173 250,251.23369 c 0,-0.49568 6.38392,-2.70205 7.16992,-2.47802 0.36845,0.10502 4.47997,0.43535 9.1367,0.73408 7.28497,0.46733 8.55575,0.31128 9.10419,-1.11792 0.36684,-0.95596 -0.10685,-2.48346 -1.11589,-3.59844 -1.6593,-1.83351 -1.6606,-1.98924 -0.0241,-2.90507 0.95106,-0.53223 1.72919,-1.58458 1.72919,-2.33855 0,-1.95848 -5.70916,-3.01604 -7.63837,-1.41493 -1.00217,0.83172 -3.56947,1.16217 -7.20904,0.9279 -11.41939,-0.73503 -23.95862,-0.18638 -30.2231,1.32242 -8.27062,1.99196 -11.11547,2.26853 -12.76662,1.24112 -0.77441,-0.48187 -1.80548,-0.36367 -2.45,0.28085 -0.61208,0.61208 -2.26037,1.11774 -3.66287,1.12369 -1.4025,0.006 -4.75902,0.68096 -7.45893,1.5 -5.50093,1.66877 -11.00888,1.97423 -10.13616,0.56214 0.31512,-0.50988 2.25418,-1.44123 4.30902,-2.06968 2.05484,-0.62844 4.63607,-1.52626 5.73607,-1.99516 1.1,-0.46889 3.20603,-1.11321 4.68007,-1.43182 1.47404,-0.31862 3.27404,-1.15826 4,-1.86587 0.72596,-0.70761 2.6669,-1.17548 4.3132,-1.03971 1.6463,0.13577 6.1463,-0.89945 10,-2.30049 3.8537,-1.40104 8.58173,-2.74486 10.50673,-2.98627 5.26725,-0.66055 12,-3.47698 12,-5.01982 C 250,225.39499 248.56134,225 245.03138,225 c -4.0057,0 -4.85706,-0.2907 -4.39301,-1.5 0.31659,-0.825 1.73301,-1.5 3.14762,-1.5 1.41461,0 3.99853,-0.51583 5.74205,-1.1463 4.65276,-1.68246 8.47196,-0.44509 8.47196,2.74481 0,2.34627 -0.26081,2.50312 -3.11849,1.87546 -2.39067,-0.52507 -3.00917,-0.36858 -2.65007,0.67055 0.33471,0.96854 2.13783,1.29296 6.31656,1.13646 3.21647,-0.12046 6.39907,-0.43043 7.07244,-0.68883 1.82746,-0.70125 0.43109,-4.63754 -1.95874,-5.52159 -2.01499,-0.7454 -2.00625,-0.79709 0.38845,-2.2964 3.15178,-1.9733 9.71363,-2.96539 10.55964,-1.59651 0.81555,1.31958 -1.43274,2.78699 -4.30077,2.80704 -3.02194,0.0211 -3.67419,1.52836 -1.85973,4.29757 1.47225,2.24693 1.83702,2.30727 9.29156,1.53704 4.26753,-0.44095 9.92094,-1.30638 12.56313,-1.9232 5.15547,-1.20354 6.65979,-0.7623 4.8472,1.42174 -1.12443,1.35485 -0.60964,2.68216 1.04024,2.68216 0.47194,0 1.2961,-1.15208 1.83146,-2.56017 0.53536,-1.4081 1.43156,-2.27701 1.99156,-1.93091 0.56,0.3461 0.7471,1.06789 0.41578,1.60398 -1.15883,1.87503 1.63239,3.82458 4.62021,3.22701 4.11664,-0.82332 7.43995,0.26523 8.81799,2.88835 0.70617,1.34421 0.97556,1.52096 0.65981,0.43291 -0.2935,-1.01136 0.28518,-2.87979 1.28595,-4.15207 1.64616,-2.09275 1.92676,-2.15577 2.9439,-0.66117 1.0332,1.51819 1.12907,1.51971 1.18311,0.0187 0.0324,-0.89835 1.07131,-1.97451 2.30881,-2.39147 1.87657,-0.63228 1.51703,-0.8591 -2.16634,-1.36663 -3.62672,-0.49973 -4.15487,-0.82366 -2.95391,-1.81174 0.80433,-0.66177 2.34168,-1.18896 3.41634,-1.17155 4.91449,0.0796 17.07482,-1.49201 18.16011,-2.34708 0.6634,-0.52269 1.67675,-0.65952 2.25187,-0.30408 1.02997,0.63656 3.53427,-4.31507 2.63644,-5.2129 -0.79832,-0.79832 -2.59451,0.79248 -2.59451,2.29784 0,2.08758 -1.31463,1.76808 -2.85162,-0.69304 -1.11156,-1.77988 -1.10999,-2.27519 0.009,-2.98469 1.82393,-1.156 0.23085,-1.07273 29.34217,-1.53368 14.3,-0.22643 26.9,-0.46133 28,-0.52201 2.35515,-0.12992 10.51538,0.96265 15.54544,2.08136 1.95,0.43369 4.62062,0.39079 5.93472,-0.0953 2.91539,-1.07848 5.01984,-0.39181 5.01984,1.63792 0,2.45755 -5.07445,3.24733 -12.75457,1.98511 -5.49305,-0.90278 -17.71589,3.33549 -24.44344,8.47576 -2.5839,1.97426 -6.60122,4.93957 -8.92737,6.58957 -2.32616,1.65 -6.58037,4.88169 -9.4538,7.18153 -2.87344,2.29984 -5.53041,3.87554 -5.90439,3.50157 -0.37397,-0.37398 -1.28203,0.14343 -2.0179,1.1498 C 356.96502,243.43009 342.15741,253 340.4459,253 c -0.62476,0 -1.931,0.87854 -2.90275,1.95232 -1.00404,1.10945 -4.20096,2.41929 -7.40499,3.03396 -3.10099,0.5949 -6.44396,1.53161 -7.42884,2.08156 -0.98487,0.54995 -2.22795,0.72966 -2.7624,0.39936 -0.53445,-0.33031 -2.78353,1.22944 -4.99796,3.46612 -3.89998,3.93914 -4.2335,4.06668 -10.63461,4.06668 -6.14839,0 -6.92483,0.25932 -11.15496,3.72559 -5.15591,4.22488 -8.12887,4.7137 -27.47126,4.51683 -7.09489,-0.0722 -12.20898,0.38289 -14.87573,1.32377 -3.76496,1.32836 -13.91015,2.00273 -14.92104,0.99183 z m 7.25165,-5.54437 c 1.99342,-0.0166 3.30624,-2.9644 1.93215,-4.33849 -0.65386,-0.65386 -1.49175,-0.57431 -2.46585,0.23412 -1.17305,0.97355 -1.95034,0.92776 -3.79239,-0.22341 -3.22771,-2.01712 -7.06701,-2.76737 -8.77135,-1.71404 -0.8633,0.53356 -2.20065,0.48036 -3.34699,-0.13314 -2.86919,-1.53555 -8.9037,-0.13701 -8.49305,1.96832 0.18163,0.93114 1.22272,1.70974 2.31355,1.7302 1.09082,0.0205 2.5493,0.38702 3.24107,0.81455 0.69176,0.42754 2.04122,0.56392 2.9988,0.30309 0.95758,-0.26083 3.76605,0.11081 6.24105,0.82588 2.475,0.71508 5.4,1.13058 6.5,0.92336 1.1,-0.20723 2.73936,-0.38293 3.64301,-0.39044 z m 8.73511,-0.91716 c 1.941,-1.22941 0.47149,-3.09649 -2.43714,-3.09649 -2.67478,0 -3.09434,0.94664 -1.24098,2.8 1.41824,1.41824 1.8519,1.4532 3.67812,0.29649 z M 216,269.03841 c 0,-1.25177 -3.62751,-4.07757 -4.33115,-3.37393 -0.36787,0.36787 -0.66885,1.65645 -0.66885,2.86351 0,1.80175 0.44758,2.10911 2.5,1.71676 1.375,-0.26285 2.5,-0.8057 2.5,-1.20634 z m 75,-5.59743 c 0,-0.85746 -0.45734,-1.27636 -1.01631,-0.9309 -0.55897,0.34546 -0.75742,1.04702 -0.44098,1.55902 0.85723,1.38704 1.45729,1.12841 1.45729,-0.62812 z m 11.95,-5.33428 c 0.2475,-0.0587 -0.0131,-0.56979 -0.5791,-1.1358 -0.566,-0.566 -4.57756,-1.25864 -8.91457,-1.53919 -4.70559,-0.3044 -8.51056,-1.0758 -9.43557,-1.91292 -1.33288,-1.20624 -2.00741,-1.18134 -4.81356,0.17773 -4.06799,1.97018 -3.36353,2.76181 2.62567,2.95058 2.56692,0.0809 5.34213,0.39206 6.16713,0.69145 2.80777,1.01894 11.91812,1.48704 14.95,0.76815 z m 4.40183,-0.63222 c -0.45142,-1.17639 -0.90196,-1.2628 -1.96861,-0.37756 -1.85707,1.54123 -1.74576,1.90308 0.5854,1.90308 1.35367,0 1.78575,-0.47653 1.38321,-1.52552 z M 310.5,258 c 0.33992,-0.55 0.14148,-1 -0.44098,-1 -0.58246,0 -1.05902,0.45 -1.05902,1 0,0.55 0.19844,1 0.44098,1 0.24254,0 0.7191,-0.45 1.05902,-1 z m -3.55942,-6.41201 C 313.49539,251.35694 317,249.83933 317,247.23194 c 0,-1.64325 -4.40706,-2.80755 -9.5,-2.50981 -9.27379,0.54216 -15.54392,0.56728 -16.04691,0.0643 -0.27505,-0.27505 -1.6389,-0.28239 -3.03077,-0.0163 -2.04813,0.39152 -2.47267,0.98393 -2.22649,3.10683 0.31931,2.75367 0.71778,2.8604 6.95806,1.86364 3.09294,-0.49404 3.73507,-0.2732 4.18269,1.43851 0.30272,1.15759 1.00321,1.72895 1.63842,1.33637 0.61029,-0.37718 4.1948,-0.79453 7.96558,-0.92746 z M 327.81477,249.75 c 0.20624,-1.08749 -0.28609,-1.75 -1.30046,-1.75 -0.89779,0 -1.38017,0.40803 -1.07195,0.90674 0.30822,0.49871 -0.34022,0.67122 -1.44098,0.38337 -1.41639,-0.3704 -2.00138,-0.0314 -2.00138,1.15968 0,2.35172 5.35837,1.70686 5.81477,-0.69979 z m 12.6019,-7.5 c 0.4125,-0.4125 1.26883,-0.75 1.90297,-0.75 0.63413,0 1.30463,-0.7875 1.48999,-1.75 0.41097,-2.13399 -1.6445,-2.3439 -2.448,-0.25 -0.31659,0.825 -1.20246,1.5 -1.96862,1.5 -0.76615,0 -1.39301,0.45 -1.39301,1 0,1.17781 1.34928,1.31739 2.41667,0.25 z m -41.05736,-1.39366 c 1.12964,0.18616 1.59703,-0.11797 1.19098,-0.77496 C 300.18271,239.48662 299.00852,239 297.94098,239 296.83693,239 296,238.31729 296,237.41667 c 0,-2.2044 -2.26204,-1.23893 -2.6072,1.11278 -0.31488,2.14543 1.4505,3.6916 3.05945,2.67953 0.57626,-0.36249 1.88444,-0.52117 2.90706,-0.35264 z m 12.0879,-1.94175 c -0.32197,-0.52097 -1.01165,-0.68378 -1.53262,-0.3618 -0.52097,0.32197 -0.68378,1.01165 -0.3618,1.53262 0.32197,0.52097 1.01165,0.68378 1.53262,0.3618 0.52097,-0.32197 0.68378,-1.01165 0.3618,-1.53262 z M 279,237.88197 c 0,-0.55 -0.45,-0.72189 -1,-0.38197 -0.55,0.33992 -1,1.06803 -1,1.61803 0,0.55 0.45,0.72189 1,0.38197 0.55,-0.33992 1,-1.06803 1,-1.61803 z m 59.5562,-1.6591 c -0.83458,-0.83458 -2.55557,0.92852 -2.5244,2.58615 0.0279,1.48465 0.2097,1.45585 1.48967,-0.23602 0.80183,-1.05985 1.26745,-2.11741 1.03473,-2.35013 z m 7.9179,0.52713 c -0.84722,-4.0208 -2.11098,-5.51312 -3.49593,-4.12817 -0.69576,0.69576 -0.37667,1.76569 1,3.35301 1.11201,1.28215 2.02183,2.71233 2.02183,3.17817 0,0.46584 0.26075,0.84699 0.57946,0.84699 0.3187,0 0.27129,-1.4625 -0.10536,-3.25 z M 323,238.55902 c 0,-0.24254 -0.45,-0.7191 -1,-1.05902 -0.55,-0.33992 -1,-0.14148 -1,0.44098 0,0.58246 0.45,1.05902 1,1.05902 0.55,0 1,-0.19844 1,-0.44098 z M 308.05282,236.5 c -0.0784,-1.48429 -2.31562,-1.2116 -2.83465,0.3455 -0.28038,0.84112 0.17677,1.21599 1.21948,1 0.9174,-0.19002 1.64422,-0.7955 1.61517,-1.3455 z M 318,237 c 0,-0.55 -0.45,-1 -1,-1 -0.55,0 -1,0.45 -1,1 0,0.55 0.45,1 1,1 0.55,0 1,-0.45 1,-1 z m -17,-5 c 0,-0.55 -0.45,-1 -1,-1 -0.55,0 -1,0.45 -1,1 0,0.55 0.45,1 1,1 0.55,0 1,-0.45 1,-1 z m -22.5,-3 c 0.33992,-0.55 0.14148,-1 -0.44098,-1 -0.58246,0 -1.05902,0.45 -1.05902,1 0,0.55 0.19844,1 0.44098,1 0.24254,0 0.7191,-0.45 1.05902,-1 z m 51.5,-2.83333 c 0,-3.57679 -0.85471,-4.45481 -2.61905,-2.69048 -1.69579,1.6958 -1.74051,2.76425 -0.18095,4.32381 1.92002,1.92002 2.8,1.40671 2.8,-1.63333 z m 8,-0.10765 c 0,-1.06754 -0.45,-2.2191 -1,-2.55902 -0.56716,-0.35052 -1,0.48962 -1,1.94098 0,1.40746 0.45,2.55902 1,2.55902 0.55,0 1,-0.87344 1,-1.94098 z m 11,0.38196 c 0,-0.85746 0.45,-1.2809 1,-0.94098 0.55,0.33992 1,-0.057 1,-0.88197 0,-0.825 -0.3375,-1.69872 -0.75,-1.9416 -1.47312,-0.86738 -4.98271,1.19345 -5.51793,3.24013 -0.44064,1.685 -0.0846,2.08344 1.86155,2.08344 1.51282,0 2.40638,-0.57891 2.40638,-1.55902 z m 18.5,-0.67539 c 2.2,-0.54787 4.74713,-1.84426 5.66029,-2.88086 0.91316,-1.0366 2.15066,-1.88473 2.75,-1.88473 0.59934,0 1.08971,-0.49814 1.08971,-1.10699 0,-0.60884 -0.62017,-0.86901 -1.37814,-0.57814 -0.75798,0.29086 -1.8413,0.0657 -2.40736,-0.50037 -0.70562,-0.70562 -1.38382,-0.36664 -2.15704,1.07814 -1.34529,2.51369 -2.71404,2.62426 -6.86314,0.55441 -5.50492,-2.74621 -14.23681,0.38698 -11.21746,4.02507 1.07572,1.29616 1.39771,1.29616 2.69388,0 0.80966,-0.80967 2.34855,-1.47212 3.41974,-1.47212 1.61017,0 1.83176,0.46165 1.2789,2.66442 -0.5859,2.33441 -0.43344,2.56738 1.23094,1.88087 1.04483,-0.43096 3.69968,-1.23183 5.89968,-1.7797 z m -6.68816,-10.50411 c -0.48599,-2.52357 -3.34859,-2.76116 -3.53449,-0.29336 -0.10694,1.41971 0.45288,2.03188 1.85812,2.03188 1.37207,0 1.90478,-0.55246 1.67637,-1.73852 z M 365,215 c 0,-0.55 -0.47656,-1 -1.05902,-1 -0.58246,0 -0.7809,0.45 -0.44098,1 0.33992,0.55 0.81648,1 1.05902,1 0.24254,0 0.44098,-0.45 0.44098,-1 z m -15,-0.44098 c 0,-0.24254 -0.45,-0.7191 -1,-1.05902 -0.55,-0.33992 -1,-0.14148 -1,0.44098 0,0.58246 0.45,1.05902 1,1.05902 0.55,0 1,-0.19844 1,-0.44098 z m -161.1875,49.75787 c 0.72187,-0.28887 1.58437,-0.25335 1.91667,0.0789 0.33229,0.33229 -0.25834,0.56864 -1.3125,0.52522 -1.16495,-0.048 -1.4019,-0.28494 -0.60417,-0.60416 z M 195,263.9888 c 0,-0.54384 1.125,-0.9888 2.5,-0.9888 1.375,0 2.5,0.35185 2.5,0.78189 0,0.43004 -1.125,0.875 -2.5,0.9888 -1.375,0.1138 -2.5,-0.23805 -2.5,-0.78189 z m 46,-3.93241 c 0,-0.91602 4.96632,-2.4234 5.66905,-1.72068 0.23817,0.23818 -0.93993,0.91167 -2.618,1.49665 C 242.37297,260.41734 241,260.51815 241,260.05639 Z m -51,-1.60841 c 0,-0.30361 1.35,-1.02263 3,-1.59782 1.65,-0.5752 3,-1.44054 3,-1.92299 0,-0.78809 5.88156,-0.17099 6.927,0.7268 0.23485,0.20168 -0.44015,1.02273 -1.5,1.82456 -1.80268,1.36381 -11.427,2.18032 -11.427,0.96945 z M 245.5,250 c 0.33992,-0.55 0.81648,-1 1.05902,-1 0.24254,0 0.44098,0.45 0.44098,1 0,0.55 -0.47656,1 -1.05902,1 -0.58246,0 -0.7809,-0.45 -0.44098,-1 z m -18,-1.21978 c 3.29931,-2.38853 5.5,-2.88822 5.5,-1.24884 0,0.80774 -0.5625,1.47476 -1.25,1.48227 -0.6875,0.008 -2.375,0.28384 -3.75,0.61406 -2.4049,0.57757 -2.42392,0.54533 -0.5,-0.84749 z M 185,237.69643 c 0,-1.83539 3.76535,-3.63682 8.7494,-4.18591 3.16283,-0.34845 7.3256,-1.26703 9.2506,-2.04129 1.925,-0.77426 5.75,-1.8362 8.5,-2.35987 2.75,-0.52366 6.0125,-1.26498 7.25,-1.64737 1.67653,-0.51805 2.25,-0.29304 2.25,0.88283 0,0.9925 -1.47073,1.97412 -3.96339,2.64532 -2.17986,0.58698 -4.58272,1.95146 -5.33969,3.03218 -0.75697,1.08073 -1.60215,1.73912 -1.87818,1.46309 -0.54434,-0.54435 -16.28698,0.97626 -21.56874,2.08336 -1.7875,0.37468 -3.25,0.43212 -3.25,0.12766 z m 85.07895,-14.27976 c 0.048,-1.16495 0.28494,-1.4019 0.60416,-0.60417 0.28887,0.72187 0.25335,1.58437 -0.0789,1.91667 -0.33229,0.33229 -0.56864,-0.25834 -0.52522,-1.3125 z m 34.6149,0.94385 C 303.65126,223.31793 304.97179,222 307.05902,222 c 2.3363,0 2.56825,1.54531 0.35919,2.39301 -1.95225,0.74915 -1.9426,0.74926 -2.72436,-0.0325 z M 277,217.82595 c 0,-1.37979 2.47734,-2.20381 7.27342,-2.41929 2.67162,-0.12003 6.12467,-0.74313 7.67345,-1.38465 3.17681,-1.31588 9.67112,-1.0208 9.32936,0.42389 -0.12307,0.52025 -1.47307,1.09883 -3,1.28575 -1.52692,0.18692 -5.02623,0.96063 -7.77623,1.71937 -5.11865,1.41225 -13.5,1.64503 -13.5,0.37493 z M 336.5,217 c -0.33992,-0.55 -0.14148,-1 0.44098,-1 0.58246,0 1.05902,0.45 1.05902,1 0,0.55 -0.19844,1 -0.44098,1 -0.24254,0 -0.7191,-0.45 -1.05902,-1 z m -28.87596,-1.86293 c -1.23169,-1.36101 -1.32551,-2.0356 -0.41039,-2.95072 1.43472,-1.43472 5.01818,-1.55452 6.36007,-0.21263 0.63162,0.63162 1.9681,0.45782 3.80407,-0.4947 1.5567,-0.80762 3.23353,-1.21924 3.72629,-0.9147 1.94271,1.20067 0.69997,2.29142 -3.35408,2.94388 -2.3375,0.3762 -5.21282,1.29358 -6.38961,2.03862 -1.85686,1.17561 -2.35062,1.12146 -3.73635,-0.40975 z M 440,188.5 c 0,-0.825 0.45,-1.5 1,-1.5 0.55,0 1,0.675 1,1.5 0,0.825 -0.45,1.5 -1,1.5 -0.55,0 -1,-0.675 -1,-1.5 z m -147,-0.38197 c 0,-0.55 0.45,-1.27811 1,-1.61803 0.55,-0.33992 1,-0.16803 1,0.38197 0,0.55 -0.45,1.27811 -1,1.61803 -0.55,0.33992 -1,0.16803 -1,-0.38197 z M 461.5,421 c -0.33992,-0.55 -1.37898,-0.99311 -2.30902,-0.98469 -1.45727,0.0132 -1.48367,0.14929 -0.19098,0.98469 1.95837,1.2656 3.28218,1.2656 2.5,0 z M 46,259 c 0,-0.55 -0.198442,-1 -0.440983,-1 -0.242541,0 -0.719098,0.45 -1.059017,1 -0.339919,0.55 -0.141476,1 0.440983,1 C 45.523442,260 46,259.55 46,259 Z m 68.53656,-13.0139 c 1.62751,-0.61878 2.46274,-1.54555 2.14324,-2.37814 -0.54584,-1.42244 1.05142,-3.60796 2.63683,-3.60796 0.50415,0 0.66466,0.96355 0.35669,2.14122 -0.46991,1.79695 -0.006,1.60463 2.88337,-1.19617 C 125.37351,238.21489 126,236.86509 126,233.52634 126,229.16739 123.79003,225 121.47848,225 c -0.77446,0 -1.88978,-0.9 -2.47848,-2 -0.81295,-1.51901 -2.08402,-1.99632 -5.28518,-1.98469 -2.31815,0.008 -4.84289,0.41301 -5.61054,0.89908 -1.94211,1.22974 -0.60715,4.08561 1.90979,4.08561 5.12428,0 8.4517,7.24076 6.06728,13.20295 -0.50525,1.26338 -1.19263,3.15362 -1.52751,4.20055 -0.52259,1.63373 -0.78212,1.69824 -1.83136,0.45518 -0.67236,-0.79657 -3.80998,-2.28873 -6.97248,-3.31592 -4.82749,-1.56797 -5.75,-2.24264 -5.75,-4.20518 0,-1.28567 0.1125,-2.49342 0.25,-2.68389 0.1375,-0.19046 -0.38557,-1.11212 -1.162378,-2.04811 -1.285802,-1.5493 -1.530903,-1.36143 -2.734943,2.0963 -0.727412,2.08897 -1.329342,4.11996 -1.337623,4.51332 -0.03822,1.81563 6.370024,7.70514 8.784404,8.07332 5.16532,0.78768 8.08631,0.70541 10.7371,-0.30242 z m 452.3695,-63.59929 c -1.45303,-1.7508 -2.38084,-1.06645 -1.53666,1.13344 0.33906,0.88358 1.0915,1.31293 1.6721,0.9541 0.72494,-0.44804 0.68251,-1.10197 -0.13544,-2.08754 z M 194.75,180.73967 c 0.6875,-0.54151 1.25,-1.55631 1.25,-2.25513 0,-0.69881 0.64063,-1.51639 1.42362,-1.81686 0.78299,-0.30046 3.33375,-3.13194 5.66835,-6.29217 2.3346,-3.16024 4.95647,-6.62679 5.82638,-7.70344 5.19754,-6.4328 7.80215,-9.33572 9.52093,-10.61135 2.07177,-1.53761 3.27475,-2.73532 8.16872,-8.13289 1.7094,-1.88531 5.92492,-5.90283 9.36781,-8.92783 11.47244,-10.07992 14.01929,-12.67096 13.2688,-13.49905 -0.40954,-0.45188 -0.20188,-0.51011 0.46146,-0.12941 0.69865,0.40097 1.84439,-0.28201 2.72328,-1.62337 0.83447,-1.27357 3.55424,-3.60316 6.04393,-5.17688 C 261.18705,112.85594 263,110.96706 263,109.85499 263,108.51208 263.73615,108 265.66667,108 c 1.46666,0 2.40363,-0.26303 2.08215,-0.58452 -0.69993,-0.69992 2.31649,-4.41548 3.58464,-4.41548 0.48894,0 3.11511,-1.86382 5.83593,-4.141825 3.63886,-3.046621 4.65068,-4.434855 3.82651,-5.25 -0.82163,-0.81262 -1.3838,-0.641442 -2.10787,0.641825 -0.54308,0.9625 -1.40631,1.75 -1.9183,1.75 -1.98792,0 -12.037,7.19117 -14.68273,10.50703 -1.53285,1.9211 -3.35394,3.49292 -4.04687,3.49294 -2.25759,5e-5 -15.84392,11.76571 -32.33503,28.00187 -11.93627,11.75174 -15.98775,16.34038 -15.51509,17.57213 0.50897,1.32635 0.19409,1.55053 -1.54063,1.09689 -1.47448,-0.38558 -3.17891,0.26423 -5.26486,2.00723 -5.09762,4.25951 -11.72372,12.51677 -11.18039,13.93268 0.27969,0.72885 0.0978,1.579 -0.40413,1.88923 -0.50196,0.31023 -0.64173,1.27005 -0.31061,2.13295 0.74536,1.94237 -1.56029,3.51734 -4.02522,2.74959 -1.59519,-0.49685 -1.68825,-0.29605 -0.70999,1.53184 0.88324,1.65036 1.70977,1.96425 3.83583,1.45674 1.49049,-0.35579 3.27249,-1.08995 3.95999,-1.63145 z m 3.98557,-8.33744 C 197.96813,171.6348 198.96168,169 200.0185,169 c 0.85306,0 0.73704,2.5778 -0.15622,3.47106 -0.29092,0.29092 -0.79794,0.25995 -1.12671,-0.0688 z M 226.25,167.67944 c 3.1625,-3.36602 5.75,-6.4709 5.75,-6.89974 0,-0.42883 0.65998,-0.7797 1.46662,-0.7797 0.80664,0 3.74666,-2.025 6.53338,-4.5 2.78672,-2.475 5.45984,-4.5 5.94026,-4.5 1.51602,0 9.23699,-9.90418 8.5666,-10.98891 -0.6316,-1.02194 -6.99499,3.55899 -12.83378,9.23891 -1.55481,1.5125 -3.1843,2.75 -3.6211,2.75 -0.4368,0 -1.86468,1.57193 -3.17308,3.49317 -1.30839,1.92124 -2.9414,3.49624 -3.6289,3.5 -0.6875,0.004 -1.25,0.45683 -1.25,1.00683 0,0.55 -0.61674,1 -1.37053,1 C 226.87588,161 215,173.89183 215,175.79543 c 0,2.27838 4.6062,-1.04464 11.25,-8.11599 z m -14.75,4.40214 c 10.09133,-9.82262 10.90052,-10.89406 9.50109,-12.58027 -1.17113,-1.41112 -1.68176,-1.19635 -4.6582,1.95924 C 214.5043,163.4098 213,165.38136 213,165.8418 c 0,0.46045 -1.10336,1.33989 -2.4519,1.95433 -3.69101,1.68174 -6.60506,8.25495 -3.63143,8.1914 0.32083,-0.007 2.38333,-1.76453 4.58333,-3.90595 z m 19.00492,1.91046 c 0.34263,-0.55438 1.72596,-0.80795 3.07408,-0.56349 3.43206,0.62235 28.8037,-3.71777 37.992,-6.49899 1.68905,-0.51126 4.05155,-0.92956 5.25,-0.92956 1.27022,0 2.179,-0.62559 2.179,-1.5 0,-0.825 0.45,-1.5 1,-1.5 0.55,0 1,-0.675 1,-1.5 0,-1.99169 0.60769,-1.89231 2.98877,0.48877 2.58845,2.58845 8.32812,2.31982 8.85469,-0.41442 0.19867,-1.03164 1.66517,-2.9729 3.25888,-4.31392 3.54992,-2.98706 3.90605,-5.7245 0.64766,-4.97834 -1.2375,0.28339 -3.78284,1.12335 -5.6563,1.86658 -2.69371,1.06863 -3.49564,1.08983 -3.83334,0.10133 C 286.74968,152.75515 283,152.5569 283,154.02475 c 0,0.56361 -1.1164,1.44921 -2.4809,1.96799 -1.53618,0.58405 -2.27491,1.48004 -1.93995,2.35293 0.37934,0.98854 -0.44796,1.56022 -2.7691,1.91349 -4.11902,0.62691 -4.57455,0.24308 -2.47059,-2.08177 0.9133,-1.00918 1.66054,-2.49694 1.66054,-3.30613 0,-0.80919 0.5325,-2.00376 1.18333,-2.65459 2.00015,-2.00015 0.17298,-2.45229 -3.0904,-0.76473 -1.81253,0.9373 -3.09293,1.16457 -3.09293,0.54899 0,-0.57774 1.08129,-1.46154 2.40286,-1.964 1.32157,-0.50246 2.69813,-1.39132 3.05902,-1.97525 0.36088,-0.58392 1.35706,-1.06168 2.21371,-1.06168 1.12218,0 1.42397,0.69883 1.07966,2.5 -0.56206,2.94023 -0.52718,2.95054 3.29441,0.97432 2.31355,-1.19638 2.95034,-2.2011 2.95034,-4.65499 0,-2.96828 -0.0941,-3.04414 -1.82874,-1.47432 -1.96072,1.77443 -4.17126,2.19832 -4.17126,0.79988 0,-0.89013 8.94677,-7.46245 17.21326,-12.64489 2.63191,-1.65 7.14811,-4.61711 10.03601,-6.59359 C 317.66762,118.09171 328.67632,111 329.38898,111 c 0.41287,0 2.85675,-1.4591 5.43084,-3.24243 2.5741,-1.78334 6.70518,-4.31664 9.18018,-5.62955 2.475,-1.31291 6.43506,-3.678815 8.80013,-5.257565 C 355.1652,95.291705 357.28272,94 357.50573,94 c 0.223,0 2.91838,-1.760306 5.98972,-3.91179 l 5.58427,-3.91179 -2.88373,-0.633374 c -2.2114,-0.485705 -5.07674,0.426647 -12.28986,3.913216 -5.17337,2.500624 -10.30613,5.066911 -11.40613,5.702859 -2.55433,1.476746 -4.01422,2.246672 -9.30897,4.909409 -2.36994,1.19184 -6.41994,3.60074 -9,5.35311 -2.58007,1.75237 -6.62289,4.17725 -8.98404,5.38861 -2.36116,1.21137 -6.41116,4.25569 -9,6.76516 -2.58885,2.50947 -6.05699,5.26989 -7.70699,6.13426 -1.65,0.86437 -5.025,2.9708 -7.5,4.68096 -10.94386,7.56189 -12.96322,8.20033 -11.08487,3.50455 0.52695,-1.31735 0.98662,-2.00258 1.02148,-1.52274 0.0349,0.47985 0.73344,0.31636 1.55238,-0.3633 0.81894,-0.67967 1.23895,-1.64032 0.93336,-2.13479 -0.3056,-0.49447 -2.43815,0.58801 -4.73899,2.40551 -2.30085,1.8175 -5.4557,3.94274 -7.01079,4.72276 -1.55508,0.78002 -3.26516,2.23613 -3.80017,3.23581 -0.53501,0.99967 -1.38545,1.56252 -1.88987,1.25078 -0.50441,-0.31175 -1.49008,0.35065 -2.19037,1.47199 -0.70029,1.12134 -1.88042,2.0388 -2.62252,2.0388 -0.74209,0 -2.54635,1.08587 -4.00945,2.41304 -1.4631,1.32717 -7.16019,6.42216 -12.66019,11.3222 -14.75197,13.14277 -16.5,14.90838 -16.5,16.66597 0,1.78305 1.54314,2.14702 2.50492,0.59083 z M 317,170.16667 c 0,-1.30208 -1.18877,-2.16804 -2.15579,-1.57039 C 313.80999,169.23547 314.70176,171 316.05902,171 316.57656,171 317,170.625 317,170.16667 Z m 272.41667,0.0833 c 0.4125,-0.4125 1.2375,-0.75 1.83333,-0.75 0.59583,0 1.29474,-0.63421 1.55312,-1.40935 0.32304,-0.96912 -0.0414,-1.2132 -1.16667,-0.78138 C 590.53117,167.7334 590,167.40495 590,166.29736 590,164.3327 587.16894,161 585.5,161 c -0.65451,0 -1.99491,-0.88939 -2.97866,-1.97642 -2.38116,-2.63115 -3.50965,-1.7264 -2.8577,2.29113 0.37094,2.28581 0.0483,3.67946 -1.06584,4.60412 C 577.53733,166.79894 577,166.86742 577,166.12244 577,165.5051 576.325,165 575.5,165 c -1.8196,0 -1.97734,2.37174 -0.25,3.75903 0.6875,0.55215 2.52149,0.85933 4.07553,0.68261 1.55405,-0.17672 3.80405,0.0731 5,0.55514 2.78403,1.12214 4.15408,1.19028 5.09114,0.25322 z m -20.65147,-3.4152 c 0.88694,-0.88694 0.75559,-1.47638 -0.55,-2.4682 -2.05565,-1.56163 -3.22012,-1.64896 -5.21033,-0.39077 -1.28256,0.81082 -1.21147,1.15955 0.5,2.45288 2.42843,1.83512 3.73076,1.93566 5.26033,0.40609 z m -258.12888,-8.82035 c 1.8702,-1.64205 4.62961,-3.28016 6.13202,-3.64023 1.50241,-0.36007 4.66672,-1.94157 7.03179,-3.51444 C 326.1652,149.2869 328.56867,148 329.14117,148 c 0.57249,0 2.88093,-1.575 5.12986,-3.5 2.24893,-1.925 4.48583,-3.5 4.97089,-3.5 1.2664,0 11.63515,-4.95044 15.75808,-7.52351 1.925,-1.20137 4.625,-2.53662 6,-2.96723 1.375,-0.43061 3.71256,-1.79631 5.19458,-3.0349 1.48202,-1.23859 6.52995,-4.34263 11.21761,-6.89788 4.68767,-2.55525 9.10011,-5.41791 9.80542,-6.36147 0.70532,-0.94355 3.92665,-2.59532 7.15852,-3.67058 3.23188,-1.07526 6.90285,-2.76264 8.15773,-3.74973 C 403.78874,105.80762 405.1235,105 405.5,105 c 0.3765,0 1.88052,-0.96243 3.34227,-2.13873 l 2.65773,-2.13873 -5.38715,0.60786 c -2.96293,0.33432 -6.11293,1.24352 -7,2.02045 -1.57283,1.37754 -4.0771,2.37075 -7.78296,3.08678 -1.00644,0.19445 -3.40489,1.02532 -5.32989,1.84636 -3.74939,1.59918 -12.90274,5.34809 -17,6.96265 -1.375,0.54183 -3.175,1.37628 -4,1.85433 -3.16048,1.83138 -8.30578,3.89903 -9.70266,3.89903 -1.52192,0 -11.88819,6.52897 -12.85819,8.09845 C 342.1327,129.5943 341.02436,130 339.97617,130 c -1.04819,0 -2.33127,0.7875 -2.8513,1.75 -0.52002,0.9625 -3.55787,3.325 -6.75079,5.25 -3.19291,1.925 -6.89898,4.5125 -8.23571,5.75 -1.33673,1.2375 -2.96996,2.25 -3.62941,2.25 -0.65944,0 -2.01347,0.9 -3.00896,2 -0.99549,1.1 -2.42935,2 -3.18637,2 -0.75702,0 -1.63542,0.675 -1.952,1.5 -0.31659,0.825 -1.11784,1.5 -1.78056,1.5 -1.52802,0 -5.58107,5.4172 -5.58107,7.45951 0,2.52793 3.96614,1.7774 7.63632,-1.44506 z m 218.74646,-0.0596 c 0.48553,-0.45121 0.6136,-1.52188 0.28459,-2.37926 -0.78824,-2.05411 -5.60225,-1.6527 -6.99883,0.58358 -0.82178,1.31589 -1.49619,1.46829 -2.981,0.67364 -1.48074,-0.79247 -1.8154,-0.71937 -1.46553,0.32011 0.24938,0.74091 1.40246,1.36063 2.5624,1.37715 1.15995,0.0165 2.43793,0.35897 2.83996,0.761 0.79784,0.79783 4.34868,-0.0261 5.75841,-1.33622 z m -15.86895,-2.77432 c -0.84812,-0.84812 -3.50417,2.02611 -2.85018,3.0843 0.39308,0.636 1.15958,0.32985 1.97866,-0.79031 0.73536,-1.00567 1.12755,-2.03796 0.87152,-2.29399 z m -277.75554,-5.72649 c 4.47284,-3.97819 6.47875,-5.64998 14.29991,-11.91804 4.09299,-3.28021 8.85177,-7.33021 10.57508,-9 1.7233,-1.66978 6.30963,-5.51097 10.19185,-8.53597 3.88222,-3.025 6.92264,-5.95 6.75649,-6.5 -0.35242,-1.16661 -4.94568,-0.83489 -5.36768,0.38766 -0.15734,0.45579 -0.94594,1.68003 -1.75246,2.72053 -1.4238,1.83687 -1.44631,1.83372 -0.77516,-0.10819 0.5255,-1.52048 -0.49289,-1.061 -4.24754,1.91642 -2.71633,2.15404 -6.4526,5.41654 -8.30283,7.25 -1.85022,1.83347 -3.98772,3.33358 -4.75,3.33358 -0.76227,0 -1.38595,0.45 -1.38595,1 0,0.55 -0.52181,1 -1.15959,1 -0.63777,0 -3.75436,2.475 -6.92576,5.5 -3.1714,3.025 -6.39854,5.5 -7.17143,5.5 -0.77289,0 -2.01384,1.13714 -2.75766,2.52698 -0.74382,1.38984 -2.33524,2.77366 -3.53649,3.07516 -3.04652,0.76463 -6.71687,5.97874 -5.93738,8.43468 0.59128,1.86296 0.85654,1.80591 5.06442,-1.08919 2.44226,-1.68031 5.67424,-4.15244 7.18218,-5.49362 z M 389,155.47426 c 5.79543,-2.47335 12.59676,-5.5029 22.44049,-9.99578 3.26727,-1.49125 6.41727,-2.816 7,-2.94388 0.58273,-0.12789 1.95951,-0.56949 3.05951,-0.98133 10.60857,-3.97194 11.5,-4.18884 11.5,-2.79818 0,0.4153 -2.8125,1.82613 -6.25,3.13517 -3.4375,1.30904 -8.5,3.39975 -11.25,4.64604 -2.75,1.24628 -6.01903,2.56785 -7.26452,2.93683 -1.24549,0.36897 -2.00643,1.08846 -1.69098,1.59887 0.31544,0.5104 5.5e-4,0.928 -0.69977,0.928 -0.94378,0 -0.89435,0.37747 0.19098,1.45858 0.80536,0.80222 3.48929,1.6717 5.96429,1.93217 2.475,0.26047 6.05313,0.85558 7.9514,1.32247 1.89828,0.46689 6.39828,0.47205 10,0.0115 3.60173,-0.46058 7.2236,-0.77626 8.0486,-0.70152 10.4052,0.9427 16.46248,0.60895 21.129,-1.16419 5.46031,-2.07475 7.4622,-1.78119 4.298,0.63026 -1.72376,1.31368 -0.62475,1.45035 10.41982,1.29575 8.55166,-0.11969 13.16235,-0.61448 15,-1.60971 3.01722,-1.63404 7.95309,-2.87126 25.15318,-6.30487 3.025,-0.60388 5.95,-1.36891 6.5,-1.70007 0.55,-0.33116 4.375,-0.72186 8.5,-0.86822 4.125,-0.14636 8.4,-0.42964 9.5,-0.62951 5.89106,-1.07038 8.54012,-2.05552 8.21613,-3.05542 -0.44604,-1.37659 -8.60854,-5.5927 -10.85502,-5.60686 -0.90139,-0.006 -1.57639,-0.57283 -1.5,-1.26033 0.15079,-1.3571 -0.50669,-1.75 -2.9285,-1.75 -1.10346,0 -1.38263,0.58211 -0.94318,1.96669 0.48604,1.53138 0.048,2.11131 -1.97919,2.62009 -1.43186,0.35938 -2.84338,0.41341 -3.13672,0.12007 -0.29334,-0.29334 -3.61717,0.51553 -7.38629,1.79749 -3.76912,1.28196 -8.12066,2.41561 -9.67009,2.51921 -4.77876,0.31954 -7.68412,0.0101 -6.93536,-0.73867 1.09957,-1.09957 9.72812,-3.19132 13.36822,-3.24075 1.7875,-0.0243 3.25,-0.53852 3.25,-1.14278 0,-2.2378 -29.67957,2.15718 -35.34738,5.23427 -2.55814,1.38884 -3.57855,0.0146 -1.25223,-1.68645 2.24328,-1.64032 8.77342,-3.73334 17.09961,-5.48072 12.23681,-2.56808 23.93732,-5.78042 24.22773,-6.65164 0.16468,-0.49403 -2.38881,-1.49462 -5.67442,-2.22353 -6.07492,-1.34771 -13.53844,-0.74611 -22.05331,1.77761 -1.925,0.57056 -5.525,1.56333 -8,2.20617 -2.475,0.64284 -5.625,1.64754 -7,2.23267 -1.375,0.58513 -3.4,1.12637 -4.5,1.20276 -2.32534,0.16149 -16.18389,4.30708 -18.73643,5.60474 -2.40436,1.22233 -6.43687,1.15607 -5.19543,-0.0854 C 452.6019,138.9981 475,130.91762 475,131.57843 c 0,0.21581 2.32489,-0.524 5.16643,-1.64403 2.84154,-1.12003 6.77904,-2.22803 8.75,-2.46222 C 496.68655,126.54891 506,123.37424 506,121.6489 c 0,-0.47458 -0.69858,-0.59481 -1.5524,-0.26717 -0.85381,0.32764 -2.6078,-0.0958 -3.89774,-0.94102 -2.45651,-1.60957 -9.61387,-1.31033 -16.15337,0.67534 -1.70693,0.5183 -3.95693,1.12197 -5,1.3415 -2.60196,0.54761 -17.70353,6.10122 -20.14786,7.40939 -1.09212,0.58448 -2.20074,0.84762 -2.46361,0.58475 -0.65158,-0.65159 -7.49506,2.27012 -8.27566,3.53316 -0.34506,0.55833 -1.24654,1.01515 -2.00328,1.01515 -0.75673,0 -2.64268,0.52036 -4.19098,1.15636 -1.54831,0.63599 -3.90396,1.33661 -5.2348,1.55693 -2.09254,0.34642 -2.24499,0.19008 -1.12755,-1.15635 0.71068,-0.85632 1.79954,-1.55751 2.41969,-1.55821 0.62016,-6.9e-4 6.64875,-2.24347 13.39688,-4.98394 6.74812,-2.74048 13.35599,-5.17973 14.68416,-5.42058 1.32816,-0.24084 3.90697,-1.0953 5.73068,-1.89881 1.82371,-0.8035 4.89084,-2.00908 6.81584,-2.67908 9.14799,-3.18393 9.66184,-5.11644 1.73112,-6.51047 -7.12556,-1.25249 -9.07955,-1.24461 -13.23112,0.0534 -2.2,0.68781 -6.7,2.0109 -10,2.9402 -3.3,0.92931 -6.4684,2.07411 -7.04089,2.54402 -0.57249,0.46991 -2.51564,1.11419 -4.31811,1.43174 -1.80247,0.31755 -5.71535,1.87843 -8.6953,3.46861 -2.97994,1.59019 -6.88679,3.20522 -8.68189,3.58895 -1.79509,0.38373 -6.45919,2.40012 -10.36465,4.48086 -10.1892,5.42858 -10.25551,5.46298 -17.39916,9.02724 -3.575,1.78372 -7.21043,3.85424 -8.07874,4.60115 -0.86831,0.74692 -2.12442,1.35803 -2.79136,1.35803 -0.66693,0 -3.42958,1.0125 -6.13922,2.25 -3.87704,1.77066 -4.80675,2.6411 -4.36401,4.08583 0.48798,1.59236 0.2848,1.68716 -1.53204,0.71481 -1.50192,-0.8038 -2.66056,-0.81813 -4.09463,-0.0506 -3.059,1.63713 -2.39546,2.84654 1.75,3.18963 2.0625,0.17071 4.65,0.38271 5.75,0.47113 1.1,0.0884 4.475,-0.8955 7.5,-2.1865 z m 82.197,-9.22119 c -0.96205,-0.33599 -0.83121,-0.81283 0.5,-1.82227 2.20811,-1.67439 5.61253,-1.85938 5.08483,-0.2763 -0.48036,1.44108 -3.84613,2.70582 -5.58483,2.09857 z m 77.303,9.75199 c 0,-1.0988 -1.25871,-1.52889 -4.75,-1.62304 -4.49215,-0.12114 -6.02047,1.01418 -4.03628,2.99837 1.37279,1.37278 8.78628,0.21234 8.78628,-1.37533 z m 13.5,-0.0641 C 562,155.42344 561.55,155 561,155 c -0.55,0 -1,0.70156 -1,1.55902 0,0.85746 0.45,1.2809 1,0.94098 0.55,-0.33992 1,-1.04148 1,-1.55902 z m -235.6105,-0.51363 c 0.42084,-1.09668 0.1,-1.475 -1.06014,-1.25 -0.915,0.17746 -1.85092,0.88515 -2.07983,1.57265 -0.6122,1.83866 2.43058,1.526 3.13997,-0.32265 z m 37.93169,-0.96371 c 11.28788,-3.68673 25.1853,-11.08508 26.58232,-14.15121 0.85892,-1.88512 1.46655,-2.2502 2.42345,-1.45604 1.43201,1.18846 5.39612,0.49005 7.67304,-1.35188 0.825,-0.66738 3.975,-2.49477 7,-4.06087 3.025,-1.56609 6.33474,-3.54409 7.35499,-4.39554 1.02024,-0.85146 2.13399,-1.40185 2.475,-1.2231 0.341,0.17875 0.78126,-0.15875 0.97834,-0.75 0.49969,-1.49906 -1.11134,-1.34282 -5.5244,0.53577 C 405.25161,131.03002 403,132.36352 403,133.70131 c 0,0.7625 -0.5625,1.27648 -1.25,1.14218 -2.57989,-0.50397 -9.39483,1.38957 -13.42807,3.731 -2.29794,1.33403 -4.75915,2.42551 -5.46936,2.42551 -0.71021,0 -7.24792,2.93942 -14.52825,6.53205 -9.7552,4.81391 -13.08878,6.91817 -12.67365,8 0.68414,1.78283 -0.50965,1.92993 8.67052,-1.06841 z m 37.50213,0.20349 C 402.01039,153.70256 401.50849,153 400.63234,153 c -1.85773,0 -2.97896,1.63015 -2.09972,3.05279 0.90454,1.46356 2.90118,0.62281 3.2907,-1.38566 z M 340,155.55902 c 0,-0.24254 -0.45,-0.7191 -1,-1.05902 -0.55,-0.33992 -1,-0.14148 -1,0.44098 0,0.58246 0.45,1.05902 1,1.05902 0.55,0 1,-0.19844 1,-0.44098 z m 7.52392,-1.63438 c 0.36228,-1.14145 0.42254,-2.31151 0.13392,-2.60014 -0.89757,-0.89756 -2.72651,0.75537 -2.04892,1.85173 0.40988,0.6632 -0.12589,0.79446 -1.48369,0.36352 -1.16888,-0.37099 -2.12523,-0.2692 -2.12523,0.2262 0,2.88124 4.61771,3.0139 5.52392,0.15869 z M 512.5,153 c 0.33992,-0.55 -0.30852,-1 -1.44098,-1 -1.13246,0 -2.05902,0.45 -2.05902,1 0,0.55 0.64844,1 1.44098,1 0.79254,0 1.7191,-0.45 2.05902,-1 z m -220.03908,-3.49171 c 1.62851,-1.33088 2.69772,-2.68298 2.37603,-3.00467 -0.75181,-0.75181 -7.83695,3.40252 -7.83695,4.59516 0,1.59806 2.42273,0.89245 5.46092,-1.59049 z M 301.5,151 c 0.33992,-0.55 -0.11008,-1 -1,-1 -0.88992,0 -1.33992,0.45 -1,1 0.33992,0.55 0.78992,1 1,1 0.21008,0 0.66008,-0.45 1,-1 z m 264.25249,-3.25 C 563.55028,144.42775 561,144.25424 561,147.42668 561,149.6416 561.43481,150 564.12197,150 c 3.01285,0 3.06984,-0.0787 1.63052,-2.25 z M 362,146.46628 c 0.825,-0.67634 2.45747,-1.5208 3.62772,-1.87658 1.17024,-0.35577 3.40895,-1.74779 4.9749,-3.09337 2.24665,-1.93048 2.58883,-2.70488 1.62229,-3.67142 -0.95271,-0.95271 -1.49158,-0.95824 -2.42491,-0.0249 -0.66,0.66 -2.1799,1.2 -3.37756,1.2 -1.19765,0 -2.71533,0.64798 -3.37262,1.43997 -0.65728,0.79198 -2.12892,1.57948 -3.27031,1.75 -2.55515,0.38172 -4.31006,2.98506 -3.47651,5.15725 0.65819,1.71522 2.96542,1.35845 5.697,-0.88094 z m -50.151,-2.09994 c 3.71993,-4.20173 3.48381,-5.55989 -0.4312,-2.48034 -1.47813,1.1627 -3.30183,2.114 -4.05266,2.114 -0.75083,0 -1.36514,0.9 -1.36514,2 0,3.03837 2.27535,2.40285 5.849,-1.63366 z m -9.54044,-1.39648 c 0.84129,-1.20111 2.03705,-1.77447 2.96115,-1.41986 1.84646,0.70856 14.24847,-6.85203 15.16726,-9.24635 0.44018,-1.14708 0.94424,-1.32244 1.68165,-0.58503 1.20713,1.20713 8.88138,-1.36551 8.88138,-2.9773 0,-0.52541 -0.5625,-0.74391 -1.25,-0.48554 -4.08504,1.5352 -5.75,1.78039 -5.75,0.84679 0,-0.56771 0.9,-1.51387 2,-2.10257 2.23903,-1.19829 2.65987,-3.59867 0.75,-4.27786 -1.56274,-0.55573 -7.91519,2.56704 -9.77119,4.80339 -0.76306,0.91944 -4.33296,3.64344 -7.9331,6.05334 -9.62666,6.44399 -13.42105,10.00062 -12.69307,11.89771 0.7444,1.93987 3.71801,0.68833 5.95592,-2.50672 z M 290.3913,142.42268 C 290.74593,141.49852 290.26809,141 289.02763,141 c -2.14482,0 -3.44898,1.50923 -2.55462,2.95633 0.76986,1.24566 3.21973,0.28677 3.91829,-1.53365 z M 355.5,142 c 3.15046,-3.28837 1.73321,-4.23321 -1.5,-1 -1.71757,1.71757 -2.68023,4 -1.68709,4 0.1721,0 1.60629,-1.35 3.18709,-3 z m -60,-3 c 0.99549,-1.1 2.39014,-2 3.09922,-2 1.91474,0 7.02686,-4.7035 6.11039,-5.62198 -1.24615,-1.2489 -9.29584,3.65152 -11.14764,6.78636 -1.92955,3.26646 -0.72994,3.7837 1.93803,0.83562 z m 88.72856,-2.59723 C 386.27927,135.08125 388.56677,134 389.31189,134 c 0.74513,0 1.65339,-0.29861 2.01836,-0.66358 0.73951,-0.73951 7.38155,-3.23621 18.66975,-7.01782 4.125,-1.3819 7.86278,-3.14913 8.30618,-3.92718 0.4434,-0.77804 2.0184,-1.36301 3.5,-1.29992 3.32437,0.14155 18.23774,-5.02096 27.86569,-9.64618 C 453.6164,109.5504 457.3289,108 457.92187,108 458.51484,108 459,107.325 459,106.5 c 0,-1.97278 -4.85866,-1.98772 -7.66289,-0.0236 -1.36681,0.95735 -4.87295,1.5298 -9.97251,1.6282 -7.27497,0.14039 -8.68931,0.5454 -18.8646,5.402 -6.05,2.88763 -12.32255,5.55986 -13.93901,5.93829 -1.61645,0.37843 -4.09145,1.4991 -5.5,2.49037 -1.40854,0.99128 -3.57397,2.11683 -4.81205,2.50124 -1.23809,0.3844 -2.72316,1.58105 -3.30017,2.6592 -0.57702,1.07816 -1.5245,1.66648 -2.10552,1.30739 -1.49792,-0.92576 -9.00131,1.62481 -11.13221,3.78409 -0.98392,0.99704 -2.55892,1.81968 -3.5,1.8281 -3.29271,0.0295 -4.53176,1.5169 -3.25338,3.90557 1.36343,2.54759 3.50638,2.19669 9.2709,-1.51811 z M 262.05563,133.65563 C 260.69912,132.29912 258,134.72238 258,137.29676 c 0,1.98714 0.0793,1.97738 2.51324,-0.3092 1.62521,-1.52681 2.1702,-2.70412 1.54239,-3.33193 z m 264.44437,2.904 c 2.90674,-1.30819 2.92228,-1.35041 0.5,-1.35807 -4.20695,-0.0133 -7.11323,0.80621 -6.48188,1.82776 0.79481,1.28602 2.35253,1.16371 5.98188,-0.46969 z M 265,132 c 0,-0.55 -0.45,-1 -1,-1 -0.55,0 -1,0.45 -1,1 0,0.55 0.45,1 1,1 0.55,0 1,-0.45 1,-1 z m 10.50233,-4.35293 c 1.10128,-1.18089 3.22991,-2.69588 4.73029,-3.36665 1.95096,-0.87221 2.56429,-1.72669 2.15334,-3 -0.46188,-1.43108 -0.3743,-1.49782 0.44633,-0.34012 0.84874,1.19733 2.00125,0.77561 6.83211,-2.5 8.30518,-5.6314 15.90529,-10.07535 23.01215,-13.45573 3.39711,-1.61583 6.43136,-3.35015 6.74278,-3.85405 0.31142,-0.50389 7.06317,-4.59307 15.00389,-9.087067 16.12204,-9.124167 17.48919,-10.239143 15.49748,-12.639001 -1.93234,-2.328326 -8.08879,-1.054621 -14.8992,3.082489 -3.08118,1.871718 -6.709,3.870077 -8.06182,4.440798 -2.30845,0.973876 -6.11749,3.240234 -12.30643,7.322261 -5.70295,3.761483 -8.05072,5.316462 -10.55228,6.98899 -1.43054,0.95644 -3.27597,2.03403 -4.10097,2.39465 -0.825,0.36061 -2.89473,1.96316 -4.5994,3.56121 -1.70467,1.59805 -3.50467,2.79044 -4,2.64975 -1.83902,-0.52235 -7.4006,3.25478 -7.4006,5.02609 0,2.12503 -3.46015,5.58099 -4.77448,4.76869 -0.49528,-0.3061 -2.63996,1.22482 -4.76596,3.40204 -2.126,2.17722 -4.39403,3.95858 -5.04006,3.95858 -1.49278,0 -3.60055,2.48561 -2.79277,3.2934 1.18007,1.18007 6.8967,-0.52439 8.8756,-2.64633 z m 99.03879,2.2864 c 1.08933,-1.76258 -0.059,-2.0097 -2.11412,-0.45494 -1.69187,1.27997 -1.72067,1.46174 -0.23602,1.48967 0.93004,0.0175 1.9876,-0.44814 2.35014,-1.03473 z m -60.4454,-4.54881 c 1.15986,-1.39754 1.08641,-1.56608 -0.54469,-1.25 -1.03691,0.20094 -2.07259,0.92784 -2.3015,1.61534 -0.59396,1.78389 1.25999,1.54592 2.84619,-0.36534 z M 291.4055,123.5 c 1.50284,-1.39278 2.10894,-2.5 1.36853,-2.5 -1.72982,0 -5.77403,2.84137 -5.77403,4.0567 0,1.61102 1.59598,1.04708 4.4055,-1.5567 z M 337.5,123 c -0.67428,-2.12447 0.44037,-2.65963 2.09444,-1.00556 0.65925,0.65925 2.15918,-0.049 4.45,-2.10123 2.8139,-2.52084 2.95145,-2.79834 0.74074,-1.49444 -1.49315,0.88068 -3.25565,1.60123 -3.91666,1.60123 -1.49724,0 4.21261,-5.93401 5.74662,-5.97222 0.61333,-0.0153 2.24057,-0.91304 3.61609,-1.99503 1.37552,-1.08198 2.71397,-1.75422 2.97432,-1.49386 0.26036,0.26035 1.29036,-0.42939 2.2889,-1.53276 0.99854,-1.10337 2.4349,-2.00613 3.19192,-2.00613 0.75702,0 1.63542,-0.675 1.952,-1.5 0.31659,-0.825 1.1801,-1.5 1.91893,-1.5 0.73883,0 1.70318,-0.62484 2.14301,-1.38853 0.43983,-0.76369 1.6624,-1.55119 2.71682,-1.75 2.54954,-0.48071 3.16529,-2.598918 0.88821,-3.055498 -2.57889,-0.517098 -20.02123,8.657168 -28.91701,15.209688 -4.79658,3.53309 -6.04593,4.33204 -9.07881,5.80578 -3.04851,1.48134 -2.73333,3.21332 0.46822,2.57301 2.40842,-0.48168 3.03736,-0.2095 3.48674,1.50893 0.30156,1.15314 1.29573,2.09662 2.20929,2.09662 1.20593,0 1.48709,-0.54795 1.02623,-2 z m 91.35078,0.90217 c 1.73207,-0.6038 3.14922,-1.48968 3.14922,-1.96861 0,-1.01521 -2.64944,-0.17639 -5.47251,1.7326 -2.39738,1.62115 -1.81873,1.67993 2.32329,0.23601 z M 512,121.55902 c 0,-0.24254 -0.45,-0.7191 -1,-1.05902 -0.55,-0.33992 -1,-0.14148 -1,0.44098 0,0.58246 0.45,1.05902 1,1.05902 0.55,0 1,-0.19844 1,-0.44098 z M 395.76386,119 c 2.27674,-1.1 4.62919,-2 5.22767,-2 1.7427,0 8.51965,-3.70608 9.96787,-5.45108 1.91268,-2.30464 0.77949,-2.81365 -2.48892,-1.11798 -1.55489,0.80669 -3.14023,1.27316 -3.52297,1.03662 -0.38274,-0.23655 -1.90861,0.69382 -3.39082,2.06748 -1.4822,1.37366 -3.07321,2.26377 -3.53556,1.97802 -1.36352,-0.8427 -4.02113,0.58021 -4.02113,2.15295 0,0.79861 -0.34246,1.24037 -0.76103,0.98168 -0.41856,-0.25869 -1.62957,0.16476 -2.69113,0.94099 -2.96469,2.16783 0.26517,1.80331 5.21602,-0.58868 z m -67.7438,-2.52417 c 1.97634,-2.38134 0.52661,-2.74515 -2.1284,-0.5341 -1.8499,1.54056 -2.02298,1.99927 -0.7641,2.025 0.89515,0.0183 2.19678,-0.6526 2.8925,-1.4909 z M 305.5,114 c 0.33992,-0.55 0.16803,-1 -0.38197,-1 -0.55,0 -1.27811,0.45 -1.61803,1 -0.33992,0.55 -0.16803,1 0.38197,1 0.55,0 1.27811,-0.45 1.61803,-1 z m -21.89602,-4.71241 c 1.59281,-1.49183 3.47991,-2.80515 4.19356,-2.91849 0.71365,-0.11335 3.26438,-1.81777 5.6683,-3.78759 C 295.86975,100.61168 298.10298,99 298.42855,99 c 0.32558,0 2.94985,-1.673562 5.83171,-3.719026 C 312.16413,89.67102 328.12596,79 328.61351,79 c 0.23615,0 2.21972,-1.184799 4.40793,-2.632886 C 336.51975,74.052044 337,73.267427 337,69.867114 337,67.662603 336.51492,66 335.87173,66 334.01326,66 323.72051,72.08875 320.5,75.093259 317.34587,78.035841 301.01517,89 299.78644,89 c -0.39358,0 -2.46799,1.2375 -4.60981,2.75 -14.14617,9.98971 -20.17201,16.25 -15.64145,16.25 1.22531,0 1.31913,0.4037 0.46482,2 -1.50891,2.81942 0.19206,2.48318 3.60398,-0.71241 z m 55.92248,-0.0945 c -0.30789,-0.30789 -1.11479,-6.4e-4 -1.79313,0.68278 -0.98026,0.98762 -0.8654,1.10248 0.5598,0.5598 0.98622,-0.37553 1.54122,-0.93469 1.23333,-1.24258 z m 35.6939,-0.1434 c 1.89778,-0.94595 2.62359,-1.99002 2.40035,-3.45285 -0.176,-1.15328 -0.61267,-1.98438 -0.97036,-1.84688 -0.35769,0.1375 -1.07003,0.25 -1.58296,0.25 -0.51294,0 -1.21826,0.9 -1.56739,2 -0.34913,1.1 -1.27945,2 -2.06739,2 -1.48905,0 -1.90112,1.19815 -0.79313,2.30615 0.69583,0.69583 0.62556,0.7151 4.58088,-1.25642 z m 44.63486,-1.52185 c 1.10824,-0.21343 2.92596,-0.87559 4.03937,-1.47147 1.11342,-0.59588 2.38012,-0.97727 2.8149,-0.84753 1.09831,0.32774 6.29051,-3.24121 6.29051,-4.32389 0,-1.362539 -3.27841,-0.989112 -5.39732,0.61478 -1.04353,0.78989 -2.2479,1.2195 -2.67637,0.95468 C 423.91706,101.83071 413,105.9048 413,106.90518 c 0,1.43301 1.35487,2.11696 3.09778,1.56379 0.95835,-0.30417 2.64919,-0.72766 3.75744,-0.94109 z m -28.37615,-5.60693 c 1.63059,-0.78152 2.75235,-1.7222 2.49282,-2.090386 -0.25954,-0.36819 0.61905,-1.83069 1.95242,-3.25 2.22967,-2.373372 2.26982,-2.580501 0.5,-2.579775 -5.4229,0.0022 -18.426,8.569421 -16.85777,11.106871 0.52815,0.85457 7.21017,-0.93293 11.91253,-3.18671 z m -10.7611,-7.600859 c 3.00742,-3.987131 -2.60574,-4.539394 -6.71523,-0.660692 -3.9723,3.749214 -2.98605,5.771583 1.8439,3.781054 2.00935,-0.828095 4.20145,-2.232257 4.87133,-3.120362 z M 296,84 c 0,-0.55 -0.70156,-1 -1.55902,-1 -0.85746,0 -1.2809,0.45 -0.94098,1 0.33992,0.55 1.04148,1 1.55902,1 C 295.57656,85 296,84.55 296,84 Z m 12.5,-8 c 0.33992,-0.55 0.16803,-1 -0.38197,-1 -0.55,0 -1.27811,0.45 -1.61803,1 -0.33992,0.55 -0.16803,1 0.38197,1 0.55,0 1.27811,-0.45 1.61803,-1 z" id="path12" style="fill:#000000" inkscape:connector-curvature="0"/>
</svg>
