<?xml version="1.0" encoding="utf-8"?>
<!-- Created with Inkscape (http://www.inkscape.org/) -->
<svg xmlns="http://www.w3.org/2000/svg" xmlns:cc="http://creativecommons.org/ns#" xmlns:dc="http://purl.org/dc/elements/1.1/" xmlns:inkscape="http://www.inkscape.org/namespaces/inkscape" xmlns:rdf="http://www.w3.org/1999/02/22-rdf-syntax-ns#" xmlns:sodipodi="http://sodipodi.sourceforge.net/DTD/sodipodi-0.dtd" xmlns:svg="http://www.w3.org/2000/svg" height="407" id="svg2" version="1.1" viewBox="0 0 830 407" width="830" sodipodi:docname="illustration-the-table-and-the-chair-2.svg" inkscape:version="0.92.4 (5da689c313, 2019-01-14)">
	<metadata id="metadata8">
		<rdf:RDF>
			<cc:Work rdf:about="">
				<dc:format>image/svg+xml</dc:format>
				<dc:type rdf:resource="http://purl.org/dc/dcmitype/StillImage"/>
				<dc:title/>
			</cc:Work>
		</rdf:RDF>
	</metadata>
	<defs id="defs6"/>
	<sodipodi:namedview bordercolor="#666666" borderopacity="1" gridtolerance="10" guidetolerance="10" id="namedview4" objecttolerance="10" pagecolor="#ffffff" showgrid="false" inkscape:current-layer="svg2" inkscape:cx="418.82488" inkscape:cy="203.5" inkscape:pageopacity="0" inkscape:pageshadow="2" inkscape:window-height="1010" inkscape:window-maximized="1" inkscape:window-width="1920" inkscape:window-x="0" inkscape:window-y="0" inkscape:zoom="1.4789607"/>
	<path d="m 689.61133,27.517578 c -2.85507,-0.09961 -8.18504,2.033749 -10.33789,4.339844 -3.75095,4.017953 -5.21157,15.535839 -3.56836,28.142578 2.19883,16.869428 1.99067,15.946354 8.7832,39 2.01061,6.82395 4.17534,12.51356 8.93945,23.5 6.00516,13.84839 5.78479,13.26801 6.99415,18.5 0.44496,1.925 1.12969,3.95 1.52148,4.5 0.39178,0.55 1.51891,3.25 2.50391,6 0.985,2.75 2.66958,6.54321 3.74414,8.42969 1.07457,1.88648 2.82869,5.71148 3.89843,8.5 l 1.94532,5.07031 -5.42969,5.25 c -8.30884,8.03415 -9.39575,7.54941 -17.36914,-7.75 -7.95822,-15.27031 -9.98059,-18.40764 -12.94141,-20.07617 -1.56044,-0.87937 -2.94742,-2.62615 -3.14062,-3.95313 -0.19039,-1.30764 -2.26922,-4.648 -4.61914,-7.42382 -2.34992,-2.77581 -6.36432,-8.19688 -8.91993,-12.04688 -2.5556,-3.85 -5.01275,-7.4611 -5.46093,-8.02539 -0.44818,-0.5643 -1.67847,-2.35775 -2.73438,-3.98438 -1.05591,-1.62662 -2.70742,-3.75302 -3.66992,-4.72461 -2.6588,-2.68387 -2.1602,-4.23452 2.75,-8.55664 2.475,-2.17859 4.5,-4.472028 4.5,-5.097652 0,-0.625623 0.52507,-1.980358 1.16797,-3.009766 0.89529,-1.433634 0.88683,-2.556827 -0.041,-4.796874 -1.09677,-2.647829 -1.67246,-2.931617 -6.07617,-2.998047 -2.67506,-0.04036 -5.46796,-0.448237 -6.20703,-0.90625 C 645.10468,84.942379 642.25,84.41703 639.5,84.232422 c -2.75,-0.184607 -6.484,-0.803566 -8.29883,-1.376953 -1.81484,-0.573387 -8.11484,-1.232227 -14,-1.462891 C 611.316,81.161915 604.475,80.78267 602,80.550781 c -2.475,-0.231888 -9.45,-0.881141 -15.5,-1.443359 -6.05,-0.562218 -14.825,-1.753381 -19.5,-2.648438 -4.675,-0.895057 -12.55,-1.817517 -17.5,-2.048828 -4.95,-0.231311 -10.24876,-0.583145 -11.77539,-0.78125 -1.53555,-0.199263 -3.0993,0.20285 -3.5,0.900391 -0.39837,0.693486 -3.53587,2.905702 -6.97266,4.914062 -3.43885,2.009569 -6.88819,4.886744 -7.66992,6.398438 -1.52046,2.940245 -8.95551,10.749312 -14.9082,15.658203 -2.00085,1.65 -4.57479,3.81579 -5.71875,4.8125 -1.14396,0.99671 -4.00787,2.63795 -6.36524,3.64844 -2.35737,1.01048 -5.27962,3.12164 -6.49414,4.68945 -1.21451,1.5678 -3.92749,4.19961 -6.02929,5.84961 -7.75826,6.09055 -25.04307,21.36824 -42.06641,37.18359 -29.2149,27.14178 -31.98037,30.74915 -26.64258,34.73438 1.47312,1.09984 4.96607,2.69312 7.76172,3.54101 4.72983,1.43449 5.31603,1.98136 8.45313,7.88282 1.85425,3.48818 3.67021,7.93359 4.03515,9.8789 0.40178,2.14163 1.3511,3.71626 2.40625,3.99219 0.95843,0.25063 2.2307,1.43021 2.82813,2.62109 2.44492,4.87361 7.5869,13.50904 11.25586,18.9043 2.14638,3.15628 3.90234,5.93736 3.90234,6.17969 0,0.24232 1.77837,3.12038 3.95312,6.39453 4.25384,6.40429 7.28827,11.66741 13.07227,22.6875 5.46305,10.40859 10.11095,18.87077 10.98633,20 0.90066,1.16184 4.6875,7.77506 6.71094,11.7207 1.10564,2.15597 1.74641,2.51976 3.08593,1.75 0.93001,-0.53444 5.06641,-2.03462 9.19141,-3.33398 9.26441,-2.91826 9.80401,-4.41336 4.16992,-11.54102 -4.21196,-5.32853 -11.9894,-16.87617 -14.28515,-21.21093 -0.7619,-1.43859 -2.62713,-4.81359 -4.14454,-7.5 -2.6859,-4.75511 -3.2234,-5.7172 -5.5332,-9.88477 -0.60966,-1.1 -2.05304,-4.025 -3.20703,-6.5 -1.15398,-2.475 -2.75074,-5.77301 -3.54883,-7.33008 C 471.65308,239.11285 471,237.02197 471,236.02539 c 0,-0.99659 -0.675,-2.07013 -1.5,-2.38672 -0.825,-0.31658 -1.5,-1.45619 -1.5,-2.53125 0,-1.07506 -1.0571,-3.22656 -2.34961,-4.78125 -2.16697,-2.60654 -2.58037,-3.88928 -2.73242,-8.49609 -0.0303,-0.91805 -0.65138,-1.89781 -1.38086,-2.17774 -1.67937,-0.64444 -5.92386,-13.21649 -4.97852,-14.74609 0.46226,-0.74795 2.29836,-0.92069 5.32422,-0.5 2.53998,0.35315 10.01719,0.90589 16.61719,1.22852 6.6,0.32262 12.46169,0.95844 13.02539,1.41211 0.56371,0.45364 2.2371,0.98712 3.71875,1.18554 2.93511,0.39306 7.44367,4.0916 8.85938,7.26758 0.49033,1.1 1.26599,2.675 1.7246,3.5 0.45862,0.825 1.65312,3.075 2.6543,5 1.00117,1.925 3.86876,7.1 6.3711,11.5 7.83557,13.77769 11.00435,19.66042 16.69726,31 3.03734,6.05 6.46825,12.575 7.625,14.5 1.15675,1.925 3.86841,7.01888 6.02539,11.32031 5.06125,10.09315 14.34387,26.2706 17.46094,30.42774 2.37472,3.16708 2.3911,3.30639 0.63672,5.67383 -1.05028,1.41728 -2.83912,2.44048 -4.29883,2.45898 -1.375,0.0174 -5.2,0.46258 -8.5,0.99023 -3.3,0.52765 -8.475,1.00078 -11.5,1.05079 -3.75693,0.0621 -6.45076,0.7349 -8.5,2.12109 l -3,2.0293 8.78906,-0.67774 c 12.4884,-0.96138 20.41388,-1.01472 21.28906,-0.14453 1.33337,1.32574 0.1009,1.56834 -9.54492,1.87109 -5.20718,0.16344 -11.28218,0.83846 -13.5,1.5 -2.21783,0.66154 -7.8582,2.18654 -12.5332,3.39063 -13.52192,3.48268 -14,3.73876 -14,7.50195 0,1.99405 0.58829,3.49871 1.50781,3.85156 1.75526,0.67355 5.99118,-0.74667 6.97461,-2.33789 0.42685,-0.69067 1.41316,-0.15825 2.66992,1.43946 2.15301,2.7371 4.79134,3.13096 10.73243,1.60351 3.07171,-0.78973 12.12843,-1.80973 31.57031,-3.55469 2.25427,-0.20232 5.2126,0.29458 6.8789,1.15626 3.86925,2.00086 11.61683,2.10555 13.0625,0.17578 2.7441,-3.66299 20.42315,-5.84387 26.8711,-3.31446 0.97167,0.38117 2.93888,0.46948 4.37304,0.19532 3.42329,-0.65441 9.3231,1.014 10.02149,2.83398 0.64471,1.6801 4.33789,1.95927 4.33789,0.32812 0,-0.69501 0.97125,-0.8633 2.60547,-0.45312 1.80879,0.45397 2.96406,0.16672 3.77148,-0.9375 0.90121,-1.23247 3.74989,-1.7136 12.64258,-2.13477 6.31414,-0.29904 13.95547,-0.69124 16.98047,-0.87109 3.025,-0.17984 7.5871,-0.36396 10.13867,-0.41016 3.05149,-0.0552 5.44716,-0.75812 7,-2.05273 l 2.36133,-1.9668 -18.09375,0.12305 c -9.9516,0.0681 -18.5016,-0.10882 -19,-0.39258 -0.49839,-0.28375 -3.15103,-0.58567 -5.89453,-0.67187 -3.88256,-0.12197 -5.49129,-0.69855 -7.25586,-2.60157 -2.1012,-2.26604 -2.13854,-2.50965 -0.51172,-3.33398 0.96538,-0.48916 4.56836,-0.69389 8.00586,-0.45312 l 6.25,0.4375 v -4.01368 c 0,-3.8515 -0.13253,-4.01892 -3.25,-4.07422 -2.81031,-0.0499 -5.69757,-0.28183 -11.62305,-0.93359 -1.14943,-0.12643 -1.15516,-0.41179 -0.0332,-1.76367 1.22161,-1.47195 0.44535,-1.57519 -8.82031,-1.16992 -5.58832,0.24442 -10.13166,0.18244 -10.09766,-0.13672 0.19699,-1.84816 -0.35641,-2.17649 -1.73633,-1.03125 -1.51656,1.25863 -16.43916,2.07594 -16.43945,0.90039 -8e-5,-0.3025 0.54388,-1.09271 1.20898,-1.75781 0.94569,-0.94569 0.72773,-1.54767 -1,-2.75782 C 592.99388,315.5825 592,314.08652 592,313.10938 c 0,-0.97715 -1.33794,-3.0892 -2.97266,-4.69336 -1.63472,-1.60417 -2.9847,-3.39392 -3,-3.97852 -0.0153,-0.5846 -1.41432,-2.3846 -3.10937,-4 -1.69504,-1.6154 -3.71861,-4.2875 -4.49609,-5.9375 -0.77751,-1.65 -3.68382,-6.15 -6.45899,-10 -2.77517,-3.85 -6.31623,-9.475 -7.86914,-12.5 -10.08988,-19.65472 -10.65735,-20.66662 -15.81445,-28.21094 -1.77113,-2.59099 -3.89821,-6.19099 -4.72852,-8 -0.83032,-1.80901 -1.94276,-3.96406 -2.4707,-4.78906 -0.52794,-0.825 -2.05462,-4.01609 -3.39258,-7.0918 -1.33795,-3.07571 -3.32727,-6.45071 -4.41992,-7.5 -1.09264,-1.04929 -2.29657,-3.19828 -2.67578,-4.77539 -0.57829,-2.40503 -0.18158,-3.32046 2.46093,-5.67969 1.73283,-1.54707 2.85344,-3.29515 2.49024,-3.88281 -0.87273,-1.41212 19.22618,-20.00995 23.95703,-22.16797 1.1,-0.50177 4.7,-2.93994 8,-5.41992 3.3,-2.47998 7.70452,-5.64424 9.78711,-7.03125 2.08259,-1.387 5.58094,-4.1444 7.77539,-6.12695 2.19444,-1.98255 4.18259,-3.41115 4.41797,-3.17578 0.23537,0.23537 0.53993,2.07656 0.67578,4.09375 0.19392,2.87951 0.52534,3.43601 1.54492,2.58984 C 592.41541,164.23926 593,162.74031 593,161.5 c 0,-1.24031 0.62326,-2.7723 1.38477,-3.4043 1.10422,-0.91642 2.18778,-0.18248 5.35351,3.62696 2.18323,2.62716 5.17946,6.71045 6.6582,9.07422 1.47874,2.36377 3.34498,4.54985 4.14649,4.85742 0.80152,0.30757 1.45703,1.10945 1.45703,1.78125 0,1.61271 9.0916,15.56445 10.14258,15.56445 0.4489,0 1.77678,1.87957 2.94922,4.17773 1.17243,2.29817 4.56294,6.64989 7.53515,9.66993 2.9722,3.02004 6.57034,7.33424 7.9961,9.58789 3.55646,5.62155 9.5262,9.81649 12.80273,8.99414 1.95979,-0.49188 2.64824,-1.44524 3.08984,-4.28125 0.31245,-2.00649 0.76332,-4.88778 1.00196,-6.40235 0.31412,-1.99364 -0.66271,-4.45098 -3.54102,-8.90429 C 651.7899,202.45861 650,199.31445 650,198.85547 c 0,-0.45897 -3.63731,-4.31027 -8.08398,-8.55859 -4.44667,-4.24834 -8.69469,-8.90352 -9.43946,-10.34376 -1.34359,-2.5982 -6.74159,-9.61294 -10.35156,-13.45312 -1.03406,-1.1 -2.04709,-2.51124 -2.25195,-3.13672 -0.20485,-0.62548 -4.34,-5.31523 -9.18946,-10.42187 l -8.81836,-9.28516 3.30665,-2.57813 c 1.81801,-1.41787 5.45921,-4.48919 8.09374,-6.82421 2.63452,-2.33503 5.90228,-4.97451 7.26172,-5.86524 1.35943,-0.89074 2.47266,-2.44103 2.47266,-3.44531 0,-2.21871 1.65113,-3.44507 2.28711,-1.69922 0.29762,0.817 1.73965,0.0379 4.125,-2.22852 l 3.66797,-3.48632 7.4414,7.48632 c 4.09318,4.1167 8.6886,9.28438 10.21094,11.48438 1.52235,2.2 3.55508,4.58796 4.51758,5.30664 0.9625,0.71869 1.75,2.14383 1.75,3.16602 0,1.02219 1.32294,3.10709 2.93945,4.63281 1.6165,1.52572 3.2149,3.87463 3.55274,5.2207 0.33784,1.34608 1.79121,3.99193 3.23047,5.87891 5.63088,7.38246 8.2645,15.25912 4.27734,12.79492 -1.31686,-0.81386 -1.26139,-0.22535 0.25,2.65039 2.70396,5.14483 5.97749,8.84961 7.81836,8.84961 1.06255,0 1.93164,0.65737 1.93164,1.46094 0,0.80358 0.84154,2.26608 1.87109,3.25 1.02955,0.98393 2.18508,3.93937 2.56641,6.5664 0.56433,3.88779 0.30797,5.39725 -1.37305,8.11719 -1.13587,1.83789 -2.06445,4.56089 -2.06445,6.05078 0,1.65339 -1.1254,3.83438 -2.88867,5.59766 -4.20835,4.20834 -8.80132,10.18402 -10.21875,13.29492 -1.27381,2.79571 -7.527,7.36168 -8.60547,6.2832 -0.33437,-0.33437 0.13944,-1.43418 1.05273,-2.44336 2.11251,-2.33428 2.12702,-3.57103 0.0332,-2.76757 -0.89471,0.34334 -2.13221,0.232 -2.75,-0.24805 -0.61779,-0.48006 -2.13555,-1.12088 -3.37305,-1.42383 -1.73912,-0.42575 -2.25,-0.11805 -2.25,1.35547 0,1.04851 0.675,1.90625 1.5,1.90625 1.59284,0 2.04316,3.42225 1.58789,12.07812 -0.22043,4.19094 0.0836,4.86145 3.58594,7.90626 2.10468,1.82973 4.50117,4.57211 5.32617,6.09374 0.825,1.52164 3.57421,5.83862 6.10938,9.59376 6.55433,9.70846 11.99823,18.26488 14.20507,22.32812 1.04551,1.925 2.97695,4.93279 4.29297,6.68359 1.31601,1.7508 2.39258,3.42263 2.39258,3.71485 0,0.29222 1.36448,2.45942 3.03125,4.8164 1.66678,2.35698 5.34453,7.66016 8.17383,11.78516 6.58411,9.59938 18.8015,24.5 20.08789,24.5 0.54415,0 1.46279,-0.75209 2.04297,-1.67188 1.38329,-2.19296 0.73295,-3.41253 -10.32422,-19.32812 C 706.489,308.23246 694,288.72496 694,287.67969 c 0,-0.26282 -1.52981,-2.75058 -3.39844,-5.52735 -1.86862,-2.77676 -4.16334,-7.20861 -5.10156,-9.84961 -0.93821,-2.64101 -2.46381,-6.37773 -3.38867,-8.30273 -0.92487,-1.925 -1.53172,-4.85865 -1.34961,-6.51953 0.27273,-2.48734 0.97605,-3.22125 3.98828,-4.16406 2.88792,-0.90391 4.05555,-0.86586 5.55664,0.18554 1.24551,0.87241 3.67501,1.16641 7.04688,0.85157 l 5.14648,-0.48047 8.38086,9.49804 c 4.60977,5.22444 9.18514,11.29157 10.16602,13.48243 0.98087,2.19085 4.07032,7.37476 6.86718,11.51953 2.79687,4.14477 5.08594,7.85987 5.08594,8.2539 0,0.39403 0.74844,1.54118 1.66211,2.55078 1.88169,2.07924 3.39704,4.55548 6.32031,10.32227 1.11521,2.2 4.51169,7.825 7.54883,12.5 3.03713,4.675 6.29849,9.73511 7.24609,11.24414 2.23915,3.56577 4.78942,3.49431 6.69336,-0.1875 1.99581,-3.85948 1.06339,-6.2336 -6.26562,-15.95508 -7.00112,-9.28655 -9.50905,-13.16647 -15.58594,-24.10156 -2.59801,-4.675 -6.48892,-11.2 -8.64453,-14.5 -5.24688,-8.03242 -6.6106,-11.22001 -7.4668,-17.44531 -0.5236,-3.80709 -0.30308,-6.25521 0.80078,-8.90235 0.83744,-2.00826 1.79251,-4.32734 2.12305,-5.15234 0.33054,-0.825 1.92635,-3.525 3.54688,-6 1.62053,-2.475 3.59337,-5.9066 4.38281,-7.62695 0.78944,-1.72036 1.87379,-3.40093 2.41015,-3.73243 0.53637,-0.33149 2.19059,-3.08544 3.67579,-6.12109 C 744.0425,218.21506 746,216.44691 746,219.4082 c 0,0.77458 2.025,3.89527 4.5,6.9336 2.475,3.03832 4.5,6.05401 4.5,6.70312 0,0.64911 1.1683,2.59288 2.5957,4.31836 5.25817,6.35623 14.06693,18.49441 19.9043,27.42774 4.63528,7.09369 6.73573,9.42888 9.23438,10.26757 5.5943,1.87779 7.26562,0.61179 7.26562,-5.50195 0,-2.91918 0.28125,-6.71289 0.625,-8.43164 0.54314,-2.71569 0.34667,-3.125 -1.5,-3.125 -1.45833,0 -2.125,0.62745 -2.125,2 0,2.19989 -0.12585,2.27277 -2.4043,1.39844 C 785.50152,260.21109 763,230.67496 763,227.80078 c 0,-0.51423 0.79543,-0.68355 1.76758,-0.375 1.39715,0.44344 2.1315,-0.46437 3.50586,-4.33398 0.9563,-2.69251 1.4623,-5.61517 1.125,-6.49414 -1.69328,-4.41262 4.86593,1.30652 9.63672,8.40234 1.29425,1.925 7.93715,11.0375 14.76172,20.25 8.46028,11.42057 13.01309,16.75 14.30664,16.75 1.04346,0 1.89648,-0.3868 1.89648,-0.85938 0,-0.47257 1.73567,-2.83506 3.85742,-5.25 4.70808,-5.35863 5.46401,-7.56061 4.5918,-13.37695 -0.7259,-4.84062 -1.90617,-5.80054 -2.97852,-2.42187 -0.45101,1.42103 -1.2592,1.93556 -2.52148,1.60547 -1.21772,-0.31844 -2.41361,0.36128 -3.4707,1.97461 -1.3523,2.06386 -1.86136,2.25535 -3.1504,1.18554 -0.8455,-0.7017 -1.94479,-2.1938 -2.44335,-3.3164 -2.4443,-5.50385 -14.38686,-22.30771 -22.13477,-31.14454 -2.6125,-2.97966 -4.75,-6.08707 -4.75,-6.90625 0,-0.81917 -0.5625,-1.49021 -1.25,-1.49023 -1.30369,-3e-5 -6.75,-6.25472 -6.75,-7.75195 0,-0.47253 -1.09302,-2.34255 -2.42969,-4.1543 -1.33667,-1.81176 -2.22686,-3.82623 -1.97656,-4.47852 0.40511,-1.05569 -6.68277,-14.5791 -9.35156,-17.84179 -2.18,-2.66513 -9.45294,-17.87206 -12.38672,-25.90039 C 738.20744,129.15364 732,109.94404 732,108.28125 c 0,-0.81328 -0.72048,-3.12274 -1.60156,-5.13086 -0.88108,-2.00812 -1.99712,-4.55039 -2.47852,-5.65039 -3.14347,-7.182857 -4.8784,-15.216394 -6.90234,-31.941406 -1.27073,-10.500743 -0.54804,-17.07326 2.08008,-18.914063 1.02437,-0.717501 3.02227,-3.92638 4.43945,-7.130859 2.24779,-5.082666 2.4213,-6.20078 1.36133,-8.759766 C 727.73512,27.945402 727.48781,27.84921 723.0918,28.5 717.41365,29.3406 709,32.851749 709,34.380859 c 0,0.624147 -1.16743,3.326528 -2.59375,6.00586 -3.1301,5.879881 -4.6321,17.912393 -2.875,23.023437 1.87561,5.455797 3.6827,15.039027 3.31445,17.576172 -0.44975,3.098746 -4.78205,4.323431 -9.57617,2.705078 -2.89862,-0.97849 -3.87072,-2.066828 -5.44726,-6.105468 -1.17203,-3.002416 -1.80318,-6.699022 -1.6211,-9.5 0.29502,-4.538335 0.3325,-4.58248 3.60938,-4.263672 C 698.03902,64.233653 700,62.5788 700,58.599609 c 0,-3.523281 -2.9189,-6.742079 -5.10938,-5.634765 -0.76536,0.386906 -3.19062,0.6656 -5.39062,0.61914 -3.83074,-0.08091 -4.0117,-0.231643 -4.29492,-3.58789 -0.25275,-2.995194 0.36494,-4.184463 4.25,-8.181641 C 691.95523,39.242149 694,36.234707 694,35.132812 c 0,-3.060744 -1.67564,-6.793323 -3.33398,-7.429687 -0.29034,-0.111412 -0.64683,-0.171317 -1.05469,-0.185547 z m 29.99023,9.1875 c 0.29518,-0.02675 0.5389,0.03695 0.71289,0.210938 0.6752,0.675206 -0.36272,2.333836 -3.15429,5.042968 C 713.55134,45.461218 713,45.719746 713,43.900391 c 0,-2.380843 4.53529,-7.008064 6.60156,-7.195313 z m -6.36914,34.355469 c 0.45915,0.07412 0.9824,1.419548 1.64063,4.164062 1.23617,5.154321 2.38785,8.39064 4.3125,12.123047 0.52389,1.016058 0.72786,2.070963 0.45312,2.345703 -1.49286,1.492858 -8.07506,-16.090357 -6.8457,-18.287109 0.14143,-0.25273 0.2864,-0.37041 0.43945,-0.345703 z M 538.84961,83.527344 c 0.12392,-0.0025 0.22753,0.02021 0.30859,0.07031 0.62638,0.387124 2.73291,0.831861 4.67969,0.986328 1.94678,0.154468 4.46779,0.700652 5.60156,1.214844 2.74455,1.244721 21.52853,4.284838 29.06055,4.703125 3.3,0.183264 12.3,0.60987 20,0.947266 24.262,1.063104 35.5,3.095682 35.5,6.423828 0,0.45511 -2.1375,2.243903 -4.75,3.974613 -2.6125,1.7307 -6.55,4.49794 -8.75,6.15039 -2.2,1.65245 -5.35,3.68553 -7,4.51757 -1.65,0.83204 -6.15,4.53077 -10,8.21876 C 595.87021,128.0431 584.50503,137 582.86133,137 c -0.56768,0 -4.03158,2.61452 -7.69727,5.81055 -3.66569,3.19603 -7.92736,6.59868 -9.4707,7.56054 -1.54335,0.96185 -8.52451,6.78485 -15.51367,12.93946 -6.98916,6.15461 -14.72586,12.75206 -17.19336,14.66211 -2.46749,1.91004 -4.93633,3.82769 -5.48633,4.26172 -0.55,0.43403 -2.7486,2.1339 -4.88672,3.77734 -4.57814,3.5189 -5.9277,3.67386 -8.61328,0.98828 -2.3043,-2.3043 -3.14975,-2.55255 -2.44531,-0.7168 0.72658,1.89344 -4.23117,1.34883 -13.92188,-1.53125 -3.43537,-1.02099 -4.02583,-0.93543 -5.27539,0.77344 -1.18926,1.62641 -1.71465,1.73268 -3.39453,0.68359 -1.093,-0.68261 -3.10553,-0.96031 -4.47266,-0.61718 -1.36712,0.34312 -3.27455,0.29595 -4.23828,-0.10547 -0.96373,-0.40143 -4.00195,-0.69108 -6.75195,-0.64258 -5.30385,0.0936 -20.31749,-2.52134 -22,-3.83203 -1.30481,-1.01647 -9.90943,-2.19455 -15.01172,-2.05469 -2.20696,0.0605 -4.88994,-0.52937 -5.96094,-1.3125 -1.8805,-1.37506 -1.81905,-1.55203 1.76368,-5.13476 2.04046,-2.04046 3.70898,-4.02232 3.70898,-4.4043 0,-0.38199 2.3625,-2.46549 5.25,-4.62891 2.8875,-2.16342 9.81378,-8.21799 15.39258,-13.45508 10.86106,-10.19583 21.04519,-18.58042 23.89453,-19.67382 0.96428,-0.37003 3.82689,-2.63021 6.35937,-5.02149 2.53247,-2.39127 8.55297,-6.8202 13.37891,-9.84375 4.82594,-3.02355 10.67594,-7.41511 13,-9.75781 2.32406,-2.3427 7.14961,-6.721739 10.72461,-9.732422 3.575,-3.010683 8.1917,-7.190847 10.25977,-9.28711 1.87346,-1.898998 3.72237,-3.160454 4.58984,-3.177734 z m 165.10351,8.048828 C 706.19251,91.506965 709,92.938094 709,94.361328 c 0,0.783879 0.60944,1.659037 1.35547,1.945313 0.74602,0.286277 1.83072,2.247359 2.41015,4.357419 0.57944,2.11007 2.03319,6.31094 3.23047,9.33594 1.19728,3.025 2.61243,7.3 3.14453,9.5 0.53211,2.2 2.72299,6.80729 4.86915,10.23828 3.67236,5.87087 3.79102,6.29774 2.01171,7.25 -1.03984,0.55651 -4.60764,1.01172 -7.92968,1.01172 -5.59975,0 -6.14585,-0.20259 -7.48438,-2.79102 C 708.60487,131.33648 705,120.90288 705,118.98047 c 0,-0.87357 -1.05425,-3.81271 -2.34375,-6.5332 -1.2895,-2.72049 -3.13784,-7.61069 -4.10547,-10.86524 l -1.75781,-5.916014 2.35351,-1.779297 c 1.29462,-0.978454 3.04511,-1.96118 3.89063,-2.183594 0.28685,-0.07546 0.5961,-0.117066 0.91601,-0.126953 z m 16.7129,6.544922 c 0.45617,0.117423 1.2551,2.058526 3.09179,7.378906 0.56962,1.65 2.17378,5.8125 3.56446,9.25 1.39069,3.4375 2.10086,6.25 1.57812,6.25 C 728.06276,121 726,116.91011 726,115.25 c 0,-0.34054 -0.86608,-2.44744 -1.92383,-4.68359 -2.17775,-4.60385 -4.24097,-11.733639 -3.58594,-12.388676 0.0532,-0.05317 0.11062,-0.07341 0.17579,-0.05664 z m 2.42773,47.960936 c 0.65943,0.0331 1.49919,0.13762 2.58984,0.28711 4.99216,0.68425 5.75841,1.40652 10.70313,10.07227 3.63154,6.36437 8.75925,18.61875 8.33008,19.90625 -0.17819,0.53457 -3.00605,1.0129 -6.28516,1.0625 -4.67374,0.0708 -6.75193,-0.42194 -9.61523,-2.27539 -3.18232,-2.05998 -3.99308,-3.4562 -6.29883,-10.85157 -1.45555,-4.66844 -2.40818,-8.7266 -2.11719,-9.01758 0.29098,-0.29097 0.0952,-1.34035 -0.43555,-2.33203 -0.62755,-1.17263 -0.60655,-2.7454 0.0606,-4.5 0.72457,-1.90575 1.09006,-2.45097 3.06836,-2.35156 z M 591.55859,154 c 0.24254,0 0.44141,0.45 0.44141,1 0,0.55 -0.47613,1 -1.05859,1 -0.58246,0 -0.78133,-0.45 -0.44141,-1 0.33992,-0.55 0.81605,-1 1.05859,-1 z m 150.47266,3 c 0.53274,0 0.96875,0.675 0.96875,1.5 0,0.825 -0.17643,1.5 -0.39258,1.5 -0.21616,0 -0.65216,-0.675 -0.96875,-1.5 -0.31658,-0.825 -0.14015,-1.5 0.39258,-1.5 z m -3.79492,25.74414 c 0.62269,-0.008 1.52944,0.25882 2.53515,0.77539 1.50021,0.77055 3.96602,1.6517 5.47852,1.95899 3.67303,0.74624 3.45149,2.32689 -0.91406,6.52148 -3.03978,2.92074 -9.70033,12.00869 -13.83594,18.87891 -2.66342,4.42458 -11.05764,18.22405 -14.06445,23.12109 -1.85737,3.025 -3.75686,6.14209 -4.22071,6.92773 -0.52144,0.88316 -1.52847,1.16506 -2.64062,0.73829 -1.4802,-0.568 -1.57775,-0.9567 -0.54492,-2.20118 1.5778,-1.90109 0.98323,-2.54335 -1.70703,-1.83984 -1.43476,0.3752 -1.9388,1.12541 -1.60743,2.39258 0.38325,1.46556 0.052,1.7342 -1.60546,1.30078 -1.14823,-0.30027 -1.84034,-0.94417 -1.53907,-1.43164 0.30128,-0.48747 0.1089,-0.88672 -0.42773,-0.88672 -0.53663,0 -1.12526,0.38989 -1.3086,0.86719 C 700.60557,243.06529 691,240.09394 691,236.51562 691,235.68253 690.52052,235 689.93359,235 c -0.58694,0 -2.60047,-1.62611 -4.47461,-3.61328 -3.73969,-3.96523 -3.75534,-3.85478 1.50586,-10.88672 1.64601,-2.2 3.45097,-5.03996 4.01172,-6.31055 0.56075,-1.2706 1.45413,-2.04255 1.98438,-1.71484 0.53024,0.32771 2.16589,-1.21983 3.63476,-3.43945 1.46887,-2.21961 3.40002,-4.03516 4.29297,-4.03516 2.12543,0 12.46559,-10.83437 14.56836,-15.26562 2.15244,-4.53593 5.08283,-5.73438 14.03125,-5.73438 4.06666,0 7.65486,-0.42405 7.97461,-0.94141 0.12861,-0.2081 0.39982,-0.30993 0.77344,-0.31445 z m 20.33594,16.05078 3.71484,4.76563 c 4.17264,5.35577 4.47713,6.33189 1.96289,6.27539 -0.9625,-0.0216 -3.18032,0.41674 -4.92773,0.97265 -2.60484,0.82869 -3.46041,0.69646 -4.75,-0.72851 -2.26622,-2.50415 -1.94957,-4.62443 1.21484,-8.16602 z m -320.24415,1.60742 c 0.82791,-0.10153 1.93661,1.23256 3.19922,3.91602 0.82335,1.74989 3.28534,6.10664 5.47071,9.68164 2.18536,3.575 5.17461,8.975 6.64257,12 1.46799,3.025 3.5485,6.76616 4.625,8.3125 3.02902,4.35097 6.73438,11.63465 6.73438,13.24023 0,0.7959 0.40914,1.44727 0.9082,1.44727 0.49907,0 2.34319,2.8125 4.09961,6.25 10.18052,19.92444 13.06545,25.50283 14.34571,27.75 0.78337,1.375 2.24049,4.17016 3.24023,6.21094 0.99973,2.04079 1.54573,3.98162 1.21289,4.31445 -1.48442,1.48442 -6.52767,-7.22315 -23.76562,-41.03516 -4.20887,-8.25564 -8.82824,-16.18761 -10.26563,-17.625 -1.43739,-1.4374 -3.83376,-5.03131 -5.32422,-7.98828 -1.49045,-2.95696 -4.1889,-7.62695 -5.99805,-10.37695 -4.13704,-6.28852 -6.85076,-13.02163 -6.06835,-15.06055 0.24862,-0.6479 0.56703,-0.99095 0.94335,-1.03711 z m 329.76954,11.83204 c 0.58867,-0.0251 0.90234,0.34908 0.90234,1.0996 0,2.27864 -1.26904,2.67518 -3.45312,1.07813 C 764.48533,213.63589 764.11642,213 764.72656,213 c 0.61014,0 1.82143,-0.27357 2.69141,-0.60742 0.25564,-0.0981 0.48346,-0.14985 0.67969,-0.1582 z M 755.05859,214 c 0.58246,0 0.78133,0.45 0.44141,1 -0.33992,0.55 -0.81605,1 -1.05859,1 C 754.19887,216 754,215.55 754,215 c 0,-0.55 0.47613,-1 1.05859,-1 z m -239.58007,3.25391 c 0.34895,-0.0451 1.03048,0.58748 1.63086,1.54882 0.68612,1.09868 1.83821,1.77132 2.56054,1.49415 0.72234,-0.27719 1.60242,0.24698 1.95508,1.16601 0.74897,1.95179 -0.68241,3.77493 -2.15625,2.74609 -1.56945,-1.09559 -4.68994,-6.31982 -4.11719,-6.89257 0.0351,-0.0351 0.0771,-0.0561 0.12696,-0.0625 z M 765.05859,224 c 0.58246,0 0.78133,0.45 0.44141,1 -0.33992,0.55 -0.81605,1 -1.05859,1 C 764.19887,226 764,225.55 764,225 c 0,-0.55 0.47613,-1 1.05859,-1 z m -117.875,1.4375 c -1.04841,0.19049 -1.27848,2.65241 -0.68945,7.38867 0.38813,3.12089 0.91156,6.01133 1.16406,6.42383 1.06245,1.73571 1.52233,0.52628 0.95313,-2.50781 -0.33609,-1.79153 -0.19858,-4.69246 0.30469,-6.44727 0.67246,-2.34472 0.56252,-3.48213 -0.41211,-4.29101 -0.53154,-0.44114 -0.97085,-0.62991 -1.32032,-0.56641 z m -123.57226,0.90625 c 0.11953,0.0201 0.25117,0.0713 0.38867,0.15625 0.55,0.33992 1,0.81605 1,1.05859 0,0.24254 -0.45,0.44141 -1,0.44141 -0.55,0 -1,-0.47613 -1,-1.05859 0,-0.43685 0.25273,-0.65795 0.61133,-0.59766 z m 3.71875,10.03906 c 1.37202,-0.003 5.5547,4.21972 5.63476,5.84961 0.0198,0.40281 1.7284,3.55281 3.79883,7 5.36181,8.92723 6.66551,11.67239 5.9043,12.4336 -0.36749,0.3675 -0.80972,0.47916 -0.98242,0.25 -0.17271,-0.22917 -1.74771,-2.6311 -3.5,-5.3379 C 536.43325,253.87133 535,251.93753 535,252.2793 c 0,0.34177 2.2812,5.18555 5.07031,10.76562 2.78912,5.58007 4.84778,10.36902 4.57422,10.64258 -0.27356,0.27357 -1.2102,-0.88048 -2.08203,-2.56641 -0.87183,-1.68594 -2.7058,-4.71893 -4.07617,-6.73828 -1.37036,-2.01935 -3.01303,-5.40651 -3.64844,-7.52734 C 534.20247,254.73464 533.38706,253 533.02539,253 c -1.1663,0 -5.09935,-7.8296 -5.49219,-10.93359 -0.20949,-1.65536 -0.64667,-3.44131 -0.97265,-3.96875 -0.32598,-0.52744 -0.0867,-1.27313 0.5332,-1.65625 0.0644,-0.0398 0.14486,-0.0584 0.23633,-0.0586 z M 546.81836,269 c 0.58488,0 1.36012,0.47982 1.72266,1.06641 1.07627,1.74144 -0.14995,2.10963 -1.52149,0.45703 C 546.23078,269.57305 546.15526,269 546.81836,269 Z m -500.72461,5.69531 c -6.353209,0.0799 -10.375402,1.54713 -12.962891,4.58985 -1.303014,1.53225 -3.58579,3.41491 -5.072265,4.18359 -1.758969,0.9096 -3.114969,2.77635 -3.884766,5.3457 -0.650542,2.17132 -1.855264,4.50687 -2.677734,5.18946 -2.12468,1.76333 -1.885666,7.33386 0.404297,9.40625 1.204307,1.08988 2.135066,1.34042 2.541015,0.68359 1.319807,-2.1355 9.670393,-5.10465 11.541016,-4.10352 0.987372,0.52843 3.307555,1.05072 5.15625,1.16016 1.848695,0.10943 4.129917,0.84837 5.070312,1.64258 1.610217,1.35989 1.602865,1.6563 -0.142578,5.07617 -2.415994,4.73367 -4.491551,6.52788 -10.564453,9.13086 -7.549382,3.23582 -11.090902,6.42125 -13.861328,12.47266 -4.359608,9.52264 -4.403298,13.2552 -0.253906,21.70703 1.976379,4.02565 4.405442,8.22031 5.398437,9.32031 2.087494,2.31244 5.664825,4.5 7.357422,4.5 0.643048,0 2.644548,1.125 4.447266,2.5 1.802718,1.375 3.742532,2.5 4.3125,2.5 0.569968,0 2.737177,0.95572 4.816406,2.125 7.988103,4.49222 24.46285,8.03668 33.337891,7.17188 4.394781,-0.42824 5.910417,-0.18724 7.25,1.15234 2.706033,2.70604 2.064395,5.0319 -1.806641,6.55078 -1.925,0.75531 -3.502101,1.62765 -3.505859,1.9375 -0.0038,0.30984 -1.578758,1.63302 -3.5,2.94141 -4.514956,3.07476 -4.631636,6.20418 -0.330079,8.92773 3.678243,2.3289 5.042818,2.04384 6.910157,-1.44531 0.745378,-1.39275 2.504758,-3.12676 3.910156,-3.85352 2.268736,-1.17321 3.154037,-1.02663 7.896484,1.30664 l 5.341801,2.62891 2.56054,-2.97266 c 2.92769,-3.39795 4.61065,-3.34975 8.40625,0.24219 1.47967,1.40028 3.32981,2.30185 4.11133,2.00195 2.0333,-0.78025 2.66397,-4.15743 1.28516,-6.88086 -0.98025,-1.9362 -0.83109,-2.99418 0.86718,-6.20507 2.22614,-4.20892 6.87907,-8.62891 9.08399,-8.62891 0.76073,0 1.92436,1.80754 2.58594,4.01562 1.20274,4.01442 1.202,4.01459 -3.01367,7.62305 -6.67247,5.71139 -4.08692,11.36226 2.85156,6.23242 3.45648,-2.55548 4.71718,-1.91966 5.21289,2.62891 0.26029,2.38835 0.85931,3.06098 2.94336,3.30273 2.3462,0.27216 2.7351,-0.16285 3.75,-4.19335 1.3288,-5.27717 4.45343,-8.04373 7.33789,-6.5 1.33173,0.71272 2.73933,0.6409 4.73437,-0.24219 2.92693,-1.29558 3.1543,-2.45248 3.1836,-16.09766 0.004,-1.92896 1.39967,-3.06051 4.33984,-3.51758 1.07996,-0.16788 2.87996,-1.12066 4,-2.11718 1.12004,-0.99651 3.38711,-2.34782 5.03711,-3.00391 4.92506,-1.95836 15.61691,-12.83237 18.69531,-19.01367 1.53883,-3.08992 2.79878,-6.1074 2.80078,-6.70703 0.002,-0.59963 1.3463,-3.52463 2.98633,-6.5 1.64004,-2.97537 2.99,-6.36695 3,-7.53711 0.01,-1.17015 0.71555,-2.70825 1.56836,-3.41602 0.86285,-0.7161 1.41725,-2.43226 1.25,-3.87109 -0.26102,-2.24548 -0.72447,-2.55264 -3.51953,-2.33594 -2.5074,0.1944 -3.09088,-0.0817 -2.64258,-1.25 0.31648,-0.82473 0.0497,-1.5 -0.59375,-1.5 -0.64342,0 -1.02949,0.97169 -0.85742,2.1582 0.29208,2.01402 -1.82553,3.95564 -7.08203,6.49414 -1.28267,0.61943 -2.89851,-0.82181 -4.98828,-4.44726 -0.60237,-1.04498 -1.62682,-1.06167 -5.29688,-0.0801 -3.84852,1.02933 -5.53508,0.94941 -10.93554,-0.51758 -3.51163,-0.95389 -7.85194,-1.98013 -9.64454,-2.28125 -1.7926,-0.30112 -3.50622,-0.94827 -3.80859,-1.4375 C 153.12928,312.39944 151.73872,312 150.3418,312 c -1.39692,0 -3.95829,-0.64183 -5.69141,-1.42578 -3.53611,-1.59952 -11.25195,-3.5441 -16.89844,-4.25977 -2.06101,-0.26122 -5.66101,-0.71523 -8,-1.00781 -5.64511,-0.70615 -10.4859,-0.66669 -14.75195,0.11914 -1.925,0.35459 -8.92469,0.74126 -15.554688,0.85938 L 77.390625,306.5 l 0.214844,-5 c 0.118481,-2.75 0.342303,-5.45 0.496093,-6 0.623096,-2.22837 -1.501334,-8.14678 -3.728515,-10.38672 C 73.068027,283.80078 72,282.3466 72,281.88086 72,279.6909 61.667924,275.93808 53.255859,275.07227 50.586651,274.79754 48.211486,274.6687 46.09375,274.69531 Z M 548.08789,279 c 0.53633,0 1.26603,0.7875 1.62109,1.75 0.35505,0.9625 1.69107,3.4289 2.96875,5.48047 1.27768,2.05157 2.32227,3.96407 2.32227,4.25 0,0.98415 -1.75665,0.5174 -2.75,-0.73047 -1.89187,-2.3766 -5.13381,-10.75 -4.16211,-10.75 z m 6.32813,2.19531 c 0.54665,0.0881 1.48196,1.3085 1.86914,2.78907 C 556.57506,285.09294 556.45333,286 556.01367,286 555.18441,286 554,283.56487 554,281.85938 c 0,-0.50935 0.16754,-0.7041 0.41602,-0.66407 z m -498.070317,1.00196 c 1.492383,-0.0564 2.568274,0.31918 3.523438,1.18359 0.983811,0.89033 2.202291,1.64343 2.708984,1.67383 1.773569,0.10652 5.783278,6.22363 6.435547,9.81836 0.486163,2.67931 0.130323,4.60737 -1.361328,7.37695 -1.110829,2.0625 -2.333007,3.75 -2.714844,3.75 -0.381838,0 -2.60373,2.475 -4.9375,5.5 -2.33377,3.025 -4.987897,5.5 -5.898438,5.5 -2.186406,0 -8.394417,5.71519 -7.601562,6.99805 0.340455,0.55087 2.181859,1.00195 4.09375,1.00195 1.911892,0 4.52523,0.68775 5.806641,1.52734 2.558122,1.67614 5.997402,0.91692 9.310547,-2.05273 4.542749,-4.07177 10.934672,-8.45584 12.339843,-8.46484 0.8525,-0.005 2.00485,-0.46384 2.560547,-1.01954 0.555697,-0.5557 4.807416,-1.27574 9.449219,-1.59961 4.641803,-0.32385 11.507223,-0.91226 15.257813,-1.30664 6.09021,-0.6404 15.29991,0.40393 20.22266,2.29297 0.76744,0.29449 1.61654,0.17738 1.88671,-0.25976 0.62009,-1.00332 22.96322,6.22097 31.44922,10.16797 7.48338,3.48066 22.06096,5.24962 24.97657,3.03125 2.13789,-1.62661 5.1535,-1.66571 5.125,-0.0664 -0.0122,0.6875 -0.90298,2.375 -1.97852,3.75 -1.07554,1.375 -1.96632,3.33816 -1.97852,4.36328 C 184.97284,339.43973 175.22273,354 172.54102,354 c -0.72933,0 -1.55039,0.58057 -1.82227,1.28906 -0.74951,1.9532 -12.11969,7.58286 -18.53516,9.17774 -3.12607,0.77714 -6.69105,1.71556 -7.92187,2.08593 -1.57731,0.47465 -2.42103,0.19777 -2.85742,-0.93945 -0.65996,-1.71982 -4.4043,-2.27109 -4.4043,-0.64844 0,1.77122 -3.42056,2.82221 -12.95117,3.97852 -5.19845,0.6307 -10.10576,1.68879 -10.9043,2.35156 -1.94919,1.61776 -20.456057,1.72913 -25.64453,0.1543 -2.2,-0.66776 -5.477246,-1.04333 -7.283203,-0.83399 -4.648209,0.53882 -18.508998,-3.25524 -26.441406,-7.23828 -3.69877,-1.85723 -7.29877,-3.38072 -8,-3.38672 -0.70123,-0.006 -2.80595,-1.58541 -4.675782,-3.50976 -1.869832,-1.92435 -4.072553,-3.38294 -4.896484,-3.24024 -0.89478,0.15497 -2.460201,-1.55241 -3.886719,-4.24023 -5.054552,-9.52371 -0.630568,-22.97249 9.076172,-27.5918 2.809393,-1.33695 5.899836,-3.43848 6.867188,-4.66992 5.917006,-7.5324 6.994917,-8.69872 7.664062,-8.28516 0.408201,0.25229 0.799581,-0.0847 0.869141,-0.74804 0.281476,-2.68428 1.652742,-8.54345 2.429687,-10.38281 0.152546,-0.36114 -0.745429,-0.73212 -1.996094,-0.82422 -1.250665,-0.0921 -3.593785,-1.5179 -5.207031,-3.16797 -2.734564,-2.79698 -2.857022,-3.24703 -1.8125,-6.65039 0.929265,-3.02783 1.695391,-3.7578 4.496094,-4.28321 0.601039,-0.11275 1.145117,-0.1804 1.642578,-0.19921 z M 341.82227,323.3125 c -3.26895,0.0216 -6.54855,0.70703 -13.88477,2.41211 -9.94936,2.31241 -13.74094,3.70228 -18.2207,6.67578 -3.11121,2.06511 -6.13997,3.45674 -6.73047,3.0918 -0.59049,-0.36495 -1.7079,-0.13889 -2.48242,0.5039 -2.17171,1.80236 -5.63385,0.25543 -9.68946,-4.33007 -3.66425,-4.14302 -3.70054,-4.1572 -6.5,-2.5293 -1.54834,0.90038 -3.57552,3.10052 -4.50586,4.88867 -0.93034,1.78815 -4.45533,5.98133 -7.83398,9.31836 C 264.78597,350.44381 262,355.36413 262,360.96094 V 365 h 4.91797 c 7.7845,0 8.27813,0.44233 5.75781,5.16406 -2.10987,3.95277 -2.11265,4.04289 -0.21875,5.42774 1.05913,0.77446 2.627,1.39731 3.48438,1.38281 2.73376,-0.0461 14.77172,-3.49208 16.1914,-4.63477 0.75218,-0.60542 5.13214,-1.38622 9.73438,-1.73437 4.60223,-0.34815 8.80753,-0.90493 9.34375,-1.23633 0.53622,-0.3314 3.63529,-0.70116 6.88672,-0.82226 4.35285,-0.16215 6.74148,0.28423 9.05859,1.69335 3.47326,2.11221 10.7294,2.59562 19.84375,1.32227 4.94033,-0.69021 8.2953,-1.77927 14.5,-4.71094 1.1,-0.51975 3.575,-3.28674 5.5,-6.14844 3.38926,-5.03841 3.5,-5.5037 3.5,-14.70312 0,-6.49332 -0.47931,-10.44948 -1.51367,-12.5 -2.16837,-4.29857 -10.53592,-8.22688 -20.41992,-9.58594 -2.82648,-0.38864 -4.78278,-0.61452 -6.74414,-0.60156 z M 336.5957,331.5 c 10.59994,0 12.73813,0.73384 14.45313,4.96484 0.68951,1.70109 0.83567,1.74821 0.88867,0.28516 0.0781,-2.15763 0.97113,-2.20268 3.83984,-0.19336 2.55881,1.79226 2.9054,3.44336 0.72266,3.44336 -0.825,0 -1.3875,0.5625 -1.25,1.25 0.17536,0.87679 -0.98922,1.15801 -3.89844,0.94336 -3.97253,-0.2931 -4.33061,-0.0698 -8.49609,5.26367 -2.73525,3.5022 -4.87258,5.36779 -5.75977,5.02735 -0.77584,-0.29772 -3.20356,0.64449 -5.39648,2.0957 -2.19293,1.45121 -4.48772,2.71293 -5.09961,2.80273 -1.87646,0.2754 -5.19584,3.02023 -5.88477,4.86719 -0.80823,2.16681 -1.91995,2.23073 -3.2207,0.18555 -0.83019,-1.30531 -4.10413,-1.62509 -19.7793,-1.9336 -16.29538,-0.32072 -23.41628,-1.1651 -26.98046,-3.20117 -0.98049,-0.56012 2.08978,-5.78547 5.01562,-8.53516 1.69308,-1.59114 2.25,-1.75002 2.25,-0.64062 0,0.81087 -0.5012,1.97581 -1.11328,2.58789 -1.55996,1.55996 -0.21042,3.28711 2.56836,3.28711 1.41922,0 3.54462,-1.37528 5.41015,-3.5 3.25135,-3.70312 3.26293,-6.5 0.0274,-6.5 -2.02519,0 -2.54714,-1.47847 -0.88477,-2.50586 0.55457,-0.34275 4.49207,0.0857 8.75,0.95117 7.67902,1.56092 7.80695,1.5517 15.74219,-1.03125 4.4,-1.43221 8.675,-2.70317 9.5,-2.82617 0.825,-0.123 2.68372,-0.72438 4.13086,-1.33594 1.44714,-0.61155 5.27214,-1.06927 8.5,-1.01757 3.22786,0.0517 8.11914,-0.0254 10.86914,-0.17188 4.94111,-0.26317 4.95916,-0.27627 1.51562,-1.08594 -1.91652,-0.45062 -7.46048,-0.81273 -12.32031,-0.80273 -4.85983,0.01 -9.08371,-0.22826 -9.38476,-0.5293 -1.1829,-1.1829 5.67188,-2.14453 15.28515,-2.14453 z m 231.18164,0.0781 c 0.71719,-0.0495 1.22266,0.14175 1.22266,0.51563 0,0.49851 -0.9,0.90625 -2,0.90625 -1.1,0 -2,-0.17196 -2,-0.38281 0,-0.21085 0.9,-0.61859 2,-0.90625 0.275,-0.0719 0.53828,-0.11633 0.77734,-0.13282 z m -494.535152,0.52735 c -0.444353,-0.01 -0.943416,0.19732 -1.441407,0.69531 -0.66,0.66 -2.388126,1.19922 -3.839843,1.19922 -5.623279,0 -6.178124,8.80111 -0.732422,11.61719 2.784434,1.43989 3.771779,1.3626 14.132812,-1.11133 C 87.487918,343.04299 93.625,341.51359 95,341.10742 c 5.47423,-1.61707 25.75481,0.76983 30.27344,3.5625 0.88291,0.54566 -2.80506,3.63657 -5.52344,4.62891 -0.9625,0.35136 -1.75,1.36404 -1.75,2.25 0,1.3153 0.59627,1.46188 3.25,0.80664 1.7875,-0.44136 9.775,-0.81924 17.75,-0.83985 14.47524,-0.0373 16.17322,-0.34274 23.84961,-4.29296 3.51378,-1.80818 6.15039,-4.78542 6.15039,-6.94532 0,-1.93256 -4.353,-1.52862 -6.65625,0.61719 -3.06359,2.85417 -7.84092,5.07134 -13,6.03516 -4.23084,0.79041 -4.83144,0.64831 -6.97266,-1.66211 -1.69604,-1.83005 -3.52003,-2.5922 -6.60742,-2.75781 -4.34918,-0.23329 -7.88712,-1.13181 -15.60937,-3.96875 -7.09076,-2.60495 -23.614992,-2.84105 -32.210941,-0.45899 C 80.913696,340.03005 73,340.4059 73,338.79102 c 0,-0.44993 0.550882,-1.70049 1.224609,-2.7793 1.186935,-1.90058 0.350635,-3.8771 -0.982421,-3.90625 z m 555.203122,1.96094 c 0.37091,0.0169 0.55469,0.27522 0.55469,0.77343 0,0.46172 -1.14599,1.36172 -2.54688,2 -3.73646,1.70245 -4.29234,1.38103 -1.45312,-0.83984 1.68743,-1.31993 2.82713,-1.96183 3.44531,-1.93359 z m -12.22265,1.51171 c 0.23906,0.0165 0.50234,0.0609 0.77734,0.13282 1.1,0.28766 2,0.6954 2,0.90625 0,0.21085 -0.9,0.38281 -2,0.38281 -1.1,0 -2,-0.40774 -2,-0.90625 0,-0.37388 0.50547,-0.56509 1.22266,-0.51563 z m 29.58593,0.008 c -0.24253,0.006 -0.51509,0.0482 -0.80859,0.125 -1.1,0.28766 -2,0.8234 -2,1.1914 0,0.36799 0.9,0.66993 2,0.66993 1.1,0 2,-0.5377 2,-1.19336 0,-0.52484 -0.46381,-0.81198 -1.19141,-0.79297 z m -106.2832,6.71289 c 0.86402,0.0341 1.39346,0.21963 1.7207,0.54687 0.87265,0.87265 0.43296,1.15888 -1.79687,1.17188 C 537.82672,344.027 533.125,344.91885 529,346 c -4.125,1.08115 -7.58637,1.973 -7.69141,1.98242 -0.10504,0.009 -0.44823,-0.39975 -0.76367,-0.91015 -0.66435,-1.07494 0.10121,-1.32403 11.25,-3.65039 3.91899,-0.81776 6.29044,-1.17987 7.73047,-1.12305 z M 280.91211,344.125 c 0.30202,-0.0287 0.59965,0.0528 0.83789,0.29102 0.33925,0.33924 0.13563,1.09874 -0.45312,1.6875 -0.71818,0.71815 -1.27906,0.73573 -1.70118,0.0527 -0.53264,-0.86183 0.41033,-1.94529 1.31641,-2.03125 z m 75.41601,0.3418 c 1.785,-0.0189 3.67188,2.06528 3.67188,4.35547 0,1.08044 0.63071,2.20585 1.40234,2.50195 2.63383,1.0107 1.52303,7.36208 -1.84961,10.57031 -1.8943,1.80196 -4.56998,3.12247 -7.05273,3.48047 -3.58676,0.51719 -4.24371,0.26385 -6.36328,-2.44531 -2.18885,-2.79771 -2.24435,-3.15345 -0.75,-4.80469 0.88757,-0.98076 1.61328,-2.28941 1.61328,-2.91016 0,-0.62074 1.57502,-2.38592 3.5,-3.92187 1.92498,-1.53595 3.49998,-3.5319 3.5,-4.43555 2e-5,-0.90366 0.70836,-1.91578 1.57422,-2.24804 0.245,-0.094 0.49891,-0.13988 0.7539,-0.14258 z M 327,350 c -0.55,0 -1,0.45 -1,1 0,0.55 0.45,1 1,1 0.55,0 1,-0.45 1,-1 0,-0.55 -0.45,-1 -1,-1 z m 10.51367,5.14062 c 0.56134,0.0503 0.50624,0.84078 0.30274,2.60938 -0.33803,2.9378 -2.65075,3.81532 -6.25,2.37109 -2.0845,-0.83642 -1.81611,-1.14958 3.29882,-3.86523 1.40344,-0.74512 2.21185,-1.15433 2.64844,-1.11524 z m -108.46679,6.33399 c -3.66166,0.057 -6.63529,0.70744 -8.55079,1.94922 -1.10234,0.71463 -4.82154,1.50492 -8.26367,1.7539 -5.15083,0.37258 -6.54874,0.13028 -7.90039,-1.36328 -3.51682,-3.88605 -8.11705,-0.83041 -9.0332,6 -0.52781,3.93511 -0.50632,3.96925 2.60351,3.72461 1.72582,-0.13577 3.42979,-0.53722 3.78516,-0.89258 0.35536,-0.35537 1.24518,-0.64648 1.97852,-0.64648 1.49271,0 1.82182,4.0796 0.44726,5.55078 -0.48818,0.5225 -1.19448,1.96172 -1.56836,3.19922 -0.38432,1.27203 -0.25099,2.25 0.30664,2.25 1.27681,0 7.13458,-3.32828 7.14258,-4.05859 0.003,-0.30738 0.69321,-1.43238 1.5332,-2.5 1.50982,-1.91899 1.52409,-1.91985 1.25,0.0215 -0.3934,2.78639 3.14936,3.27144 5.13868,0.70313 0.87107,-1.1246 2.80245,-2.34117 4.29101,-2.70313 2.32713,-0.56587 2.79687,-0.29396 3.35742,1.93945 0.8071,3.21576 4.80891,3.57449 6.66797,0.59766 1.65956,-2.65738 3.55138,-2.53752 3.94727,0.25 0.46995,3.30901 4.69196,3.61324 7.28711,0.52539 1.11864,-1.33102 3.9457,-2.96879 6.2832,-3.63867 3.7536,-1.07571 4.25,-1.5595 4.25,-4.14258 0,-3.58347 -1.00206,-4.14646 -12.27734,-6.90039 -4.66509,-1.13943 -9.01413,-1.67609 -12.67578,-1.61914 z m -101.33594,20.81055 c -0.1582,-0.0447 -0.39454,0.0193 -0.71094,0.21484 -0.55,0.33992 -0.99237,1.37855 -0.98438,2.30859 0.0132,1.45727 0.14898,1.4841 0.98438,0.19141 0.9492,-1.46878 1.18554,-2.58071 0.71094,-2.71484 z" id="path12" style="fill:#000000"/>
</svg>
