<?xml version="1.0" encoding="utf-8"?>
<svg xmlns="http://www.w3.org/2000/svg" version="1.1" viewBox="0 0 1215 664">
	<path d="m 624.77148,34.015625 c -3.04562,0.03665 -5.85334,4.514486 -4.69336,7.484375 1.01707,2.603875 1.11141,12.654109 0.13282,14.193359 -0.72895,1.146595 -7.93798,3.23041 -11.35156,3.28125 -0.97979,0.01459 -2.25689,-1.51205 -3.16797,-3.789062 -0.83949,-2.098098 -3.70165,-6.048259 -6.35938,-8.777344 -2.65773,-2.729084 -6.07041,-6.447388 -7.58398,-8.263672 -2.37307,-2.847695 -3.17352,-3.210047 -5.81055,-2.630859 -4.66642,1.024919 -6.01209,5.80303 -6.19336,21.986328 -0.096,8.56876 0.28903,11.144992 2.69336,18 1.54325,4.4 3.24293,8.546366 3.77734,9.214844 0.78152,0.97757 0.42846,5.956484 -0.73046,10.285156 -0.0736,0.275 -0.49582,2.75 -0.9375,5.5 -0.44169,2.75 -1.30152,5.9 -1.91211,7 -0.61058,1.1 -1.16241,6.725 -1.22461,12.5 -0.15844,14.69758 -0.82728,18.64482 -4.32422,25.5 -1.68339,3.3 -3.06722,6.40312 -3.07422,6.89648 -0.0136,0.9632 -4.71193,6.83425 -10.20703,12.75196 -2.34487,2.5252 -4.11971,6.06656 -5.76172,11.5 -5.41852,17.92989 -10.99527,33.36384 -13.01563,36.01953 -1.18526,1.558 -3.87378,4.18203 -5.97461,5.83203 -2.10083,1.65 -4.61854,4.4613 -5.59375,6.24805 -0.97521,1.78675 -4.17804,5.61175 -7.11718,8.5 -7.98295,7.84472 -9.3418,9.36732 -9.3418,10.45312 0,0.54438 -0.9,1.80334 -2,2.79883 -1.1,0.99549 -2,2.39304 -2,3.10547 0,0.71242 -0.57875,1.65587 -1.28516,2.0957 -0.70641,0.43983 -2.97018,3.12907 -5.03125,5.97656 -2.06106,2.84749 -4.08452,5.32249 -4.49804,5.5 -0.41352,0.17751 -2.95183,3.24727 -5.63867,6.82227 -2.68685,3.575 -7.50769,9.49837 -10.71485,13.16406 -3.20716,3.66569 -5.83203,7.09903 -5.83203,7.62891 0,0.52987 -2.025,4.62514 -4.5,9.09961 -2.475,4.47446 -4.5,8.39673 -4.5,8.7168 0,0.32006 -0.87768,1.81351 -1.94922,3.31835 -1.07154,1.50484 -2.82038,4.94924 -3.88867,7.6543 -1.0683,2.70507 -3.07674,7.39297 -4.46094,10.41797 -3.4357,7.5083 -5.1371,12.84219 -7.66015,24 -1.1815,5.225 -2.79128,11.1753 -3.57618,13.22266 -0.7849,2.04736 -1.65439,4.97236 -1.93164,6.5 -0.44265,2.43903 -2.74826,13.06742 -4.07422,18.77734 -0.25544,1.1 -1.16352,4.7 -2.01757,8 -0.85405,3.3 -2.01071,8.25 -2.57032,11 -0.5596,2.75 -1.66934,6.0125 -2.46679,7.25 -0.79745,1.2375 -1.24288,2.25 -0.99024,2.25 0.25264,0 -0.40873,3.12989 -1.46875,6.95508 -1.91241,6.90116 -5.2428,25.16666 -5.11328,28.04492 0.066,1.46651 -2.41697,12.51389 -5.50781,24.5 -4.29196,16.64399 -6.63735,22.80049 -11.38867,29.9043 -2.71478,4.05894 -4.93555,7.84108 -4.93555,8.40429 0,3.51002 -22.42523,19.96879 -30.84961,22.64258 -1.16768,0.37061 -3.39763,1.94841 -4.95508,3.50586 -1.80275,1.80274 -5.89551,3.82833 -11.26367,5.57422 -4.63773,1.50833 -10.81062,3.58088 -13.71875,4.60547 -2.90813,1.0246 -6.57259,1.86328 -8.14258,1.86328 -1.56998,0 -7.96601,1.31884 -14.21289,2.92969 -6.24689,1.61084 -12.48242,2.92201 -13.85742,2.91601 -3.39927,-0.0151 -11.35866,2.37717 -13.31641,4.00196 -1.90086,1.57757 -3.24468,0.94183 -3.98437,-1.88672 -0.40693,-1.55613 0.0866,-2.30852 1.98242,-3.0293 1.64174,-0.62418 2.32234,-1.47806 1.95117,-2.44531 -0.31365,-0.81735 -0.0218,-1.51679 0.64844,-1.55469 6.13474,-0.34685 16.8932,-4.52334 19.16797,-7.44141 0.57789,-0.74131 2.14073,-1.49351 3.47266,-1.66992 1.33192,-0.17641 2.60756,-0.88281 2.83398,-1.57031 0.29636,-0.8999 -1.15232,-1.25 -5.17188,-1.25 C 312.66732,546 312,545.76119 312,544 c 0,-1.1 0.45,-2 1,-2 0.55,0 0.99996,0.50784 1,1.12891 0,0.79793 1.83341,0.91135 6.25,0.38476 3.4375,-0.40985 7.96428,-0.90708 10.05859,-1.10547 4.74245,-0.44924 5.33633,-0.82085 7.25,-4.52148 1.9083,-3.69025 1.05335,-6.86398 -1.875,-6.95508 -1.20043,-0.0373 -4.20859,-0.16671 -6.68359,-0.28906 -2.475,-0.12234 -6.86031,0.056 -9.74609,0.39844 -4.32952,0.51369 -5.53803,0.30287 -6.90625,-1.20899 C 311.4357,528.82432 309.59731,528 308.26172,528 c -1.50094,0 -2.26654,-0.47739 -2.00586,-1.25 0.27973,-0.82913 1.98392,-1.13654 5.0625,-0.91211 3.54575,0.25849 5.26871,-0.15465 7.29687,-1.75 1.46021,-1.1486 3.49371,-2.08789 4.51954,-2.08789 1.17957,0 1.86523,-0.71388 1.86523,-1.94141 0,-2.38277 -0.49355,-2.70128 -5.36719,-3.47265 -2.12668,-0.3366 -4.28306,-0.87041 -4.79297,-1.18555 -0.50992,-0.31514 -1.47225,-0.1195 -2.13867,0.43359 -1.70095,1.41166 -21.41035,0.85723 -22.91211,-0.64453 -1.58573,-1.58573 -2.78906,-1.5042 -2.78906,0.18946 0,0.75827 -1.2375,1.89082 -2.75,2.51757 -3.91582,1.62264 -13.78283,11.97108 -12.57031,13.1836 1.09191,1.09191 6.09896,1.32299 11.32031,0.52148 4.62255,-0.7096 19.96215,-0.97339 20.58203,-0.35351 0.26751,0.26751 -2.56758,0.80336 -6.29883,1.1914 -3.73126,0.38804 -8.1332,0.93138 -9.7832,1.20703 -1.65,0.27565 -5.90787,0.64017 -9.46094,0.8086 -3.55306,0.16843 -6.61769,0.77886 -6.81054,1.35742 -0.73561,2.20685 3.56319,2.9092 14.11718,2.30664 10.4887,-0.59884 13.53307,-0.15737 9.89844,1.43555 -2.88516,1.26446 -23.01257,2.00891 -24.12891,0.89258 C 270.52821,539.86024 268,542.032 268,543.12305 c 0,0.48266 2.1375,0.88458 4.75,0.89257 6.266,0.0202 8.15361,1.1858 5.06055,3.125 -1.66044,1.04103 -3.57546,1.24406 -6.81055,0.72657 -7.65808,-1.22499 -13.65373,-0.9876 -14.96289,0.58984 -1.9795,2.38515 -0.16785,3.82381 4.0957,3.25195 4.27469,-0.57336 7.86719,0.0561 7.86719,1.37891 0,1.42456 -6.09127,2.53729 -10.42383,1.9043 -5.70944,-0.83416 -9.00634,0.52906 -11.19726,4.63086 -1.82456,3.41583 -1.82495,3.55845 -0.0352,4.87695 1.02549,0.75537 4.28157,1.35742 7.33789,1.35742 4.14253,0 5.83398,0.44696 6.875,1.82031 0.75937,1.00179 1.39461,2.06631 1.41211,2.36524 0.046,0.7866 -83.02001,0.32438 -86.69336,-0.48242 -1.69719,-0.37277 -3.33385,-0.27445 -3.63867,0.21875 -0.31521,0.51002 -3.05203,0.55864 -6.3457,0.11132 -3.18504,-0.43257 -7.36602,-0.45711 -9.29102,-0.0547 -1.925,0.40253 -7.775,0.48053 -13,0.17383 -5.225,-0.30666 -23.43264,-0.47575 -40.46094,-0.375 -27.118558,0.16044 -31.635519,0.41101 -36.398435,2.02343 -6.3016,2.13331 -11.353402,6.93242 -14.804687,14.0586 C 48.204024,592.18403 48.015896,605.18504 51,609 c 1.075541,1.375 1.966286,3.35662 1.978516,4.4043 0.01223,1.04766 1.821484,3.61812 4.021484,5.71093 2.2,2.09281 4,4.23406 4,4.75782 0,0.52375 3.0375,3.12828 6.75,5.78906 6.532175,4.68161 6.952671,4.82892 13.050781,4.58789 4.078337,-0.1612 7.321781,0.28022 9.19336,1.24805 1.735386,0.89741 3.129019,1.11209 3.484375,0.53711 0.376973,-0.60997 1.518204,-0.60828 3.140625,0.01 1.401683,0.53295 2.906709,0.74862 3.34375,0.47852 0.437039,-0.27011 2.086709,0.13522 3.666019,0.90039 2.74841,1.33162 7.3142,1.78783 31.87109,3.18164 6.05,0.34338 11.17446,0.78531 11.38867,0.98242 0.21421,0.19711 0.88921,0.0464 1.5,-0.33398 0.61079,-0.38039 6.96133,-0.79347 14.11133,-0.91797 7.15,-0.12449 15.11667,-0.46695 17.70312,-0.76172 2.66078,-0.30324 4.96958,-0.10341 5.31836,0.46094 0.33905,0.54858 1.14025,0.67425 1.7793,0.27929 0.63906,-0.39496 5.66925,-1.05103 11.17969,-1.45898 18.75401,-1.38841 27.93376,-3.82421 30.08203,-7.97852 1.73418,-3.35354 0.69129,-6.82697 -2.7207,-9.05664 -2.53882,-1.65907 -19.0787,-3.58058 -27.3418,-3.17578 -2.75,0.13472 -7.25,0.34605 -10,0.46875 -8.4308,0.37616 -56.71881,-2.15876 -61.5,-3.22851 -2.475,-0.55376 -6.75,-1.22595 -9.5,-1.49415 -2.75,-0.26817 -5.675,-0.73047 -6.5,-1.02539 -0.825,-0.29492 -3.975,-0.68941 -7,-0.87695 -6.470898,-0.40116 -10.307682,-1.72196 -14.679688,-5.05664 C 87.567071,606.09317 85.668909,605 85.101562,605 83.737212,605 82,601.66205 82,599.04102 c 0,-2.65757 3.114154,-3.87 11.621094,-4.52344 3.599901,-0.27651 6.953416,-0.75562 7.453126,-1.06446 0.7591,-0.46914 12.12817,0.22901 33.42578,2.05079 11.50562,0.98418 27.30198,2.18027 29.5,2.23437 4.96015,0.12203 21.62899,1.25178 27.5,1.86328 10.47127,1.09066 12.60501,1.21263 32,1.8418 10.45,0.33899 22.825,1.07736 27.5,1.64062 16.93109,2.03992 25.22166,2.43032 30.33789,1.42774 4.80675,-0.94193 15.3585,-1.18131 27.16211,-0.61719 7.58075,0.3623 31.22381,-0.88239 38,-2 3.3,-0.54428 8.025,-1.61073 10.5,-2.36914 2.475,-0.75841 9,-1.67311 14.5,-2.0332 9.87227,-0.64634 17.10059,-1.85383 21,-3.50781 2.59328,-1.09997 8.27043,-2.1113 11.7168,-2.0879 1.49459,0.0101 2.98517,-0.413 3.31054,-0.93945 C 407.85271,590.43057 409.4713,590 411.125,590 c 1.6537,0 3.99007,-0.53058 5.19141,-1.17969 7.10662,-3.83986 36.55615,-8.39894 43.21289,-6.68945 2.18358,0.56075 12.22659,1.18275 22.3164,1.38281 15.24911,0.30234 18.54002,0.63067 19.5,1.93945 1.65993,2.26311 11.65572,3.66115 17.95703,2.51172 2.85827,-0.52138 6.54727,-0.92819 8.19727,-0.90429 1.65,0.0239 5.87225,-0.38889 9.38281,-0.91602 4.79471,-0.71996 7.53163,-0.62203 11,0.39258 6.68977,1.95697 11.65213,2.52554 30.11719,3.45312 9.075,0.45587 20.325,1.4138 25,2.12891 5.15535,0.78859 18.14047,1.31835 33,1.34375 15.26252,0.026 26.57372,0.49654 30,1.24805 5.74754,1.26064 8.6041,1.72086 21,3.38867 6.31807,0.85008 23.93431,2.78345 26.17773,2.87305 0.37322,0.0149 1.38572,-0.68064 2.25,-1.54493 2.95976,-2.95975 1.83523,-5.12825 -4.92773,-9.50195 -6.43522,-4.16175 -7.85052,-6.19426 -5.05859,-7.26562 1.66817,-0.64014 8.3293,0.24694 10.62109,1.41406 0.86931,0.44271 5.30458,0.0488 10,-0.88867 L 734.5,581.5 l 0.30273,-3.60742 c 0.27307,-3.26319 -0.013,-3.7314 -3,-4.91211 -1.81602,-0.71785 -6.04366,-2.55789 -9.39257,-4.08789 -3.34891,-1.52999 -8.52391,-3.05488 -11.5,-3.39063 C 705.459,564.88698 697.97778,563.3489 686,560.38477 c -3.575,-0.88471 -7.625,-1.7514 -9,-1.92774 -1.375,-0.17634 -3.85,-0.52509 -5.5,-0.77539 -2.55204,-0.38714 -8.70437,-1.1895 -17,-2.2168 -1.1,-0.13623 -5.825,-0.55356 -10.5,-0.92578 -4.675,-0.37222 -10.975,-1.50651 -14,-2.52148 -3.025,-1.01497 -7.525,-2.15219 -10,-2.52735 -2.475,-0.37517 -5.625,-1.37853 -7,-2.22851 C 610.31187,545.6 599.65139,534.78854 597.45898,531.5 c -1.45798,-2.18693 -2.24037,-12.80491 -1.17968,-16 0.36517,-1.1 0.89552,-4.87534 1.17968,-8.38867 0.57595,-7.12087 3.28739,-19.0969 4.6543,-20.56055 0.48797,-0.5225 0.88672,-2.28295 0.88672,-3.91211 0,-3.4316 1.57499,-9.10445 7.53906,-27.13867 2.36458,-7.15 4.99993,-16.375 5.85547,-20.5 0.85554,-4.125 2.47327,-9.975 3.5957,-13 2.56509,-6.91301 3.003,-8.95057 3.64454,-17 0.28493,-3.575 0.91412,-7.625 1.39843,-9 0.48431,-1.375 1.11782,-4.75 1.40821,-7.5 0.29039,-2.75 0.78255,-6.125 1.09375,-7.5 1.17124,-5.1749 1.14086,-15.87255 -0.0762,-26.67969 -1.2683,-11.26322 -3.88476,-18.48778 -9.61328,-26.53711 -1.14822,-1.6134 -1.95889,-4.45602 -1.99609,-7 -0.15122,-10.32809 0.44155,-27.36867 0.98437,-28.2832 0.32645,-0.55 0.60891,-6.66782 0.62891,-13.5957 0.0216,-7.486 0.47891,-13.16567 1.125,-14 0.59792,-0.77212 1.17428,-4.5543 1.28125,-8.4043 0.21335,-7.67962 2.16537,-15.67817 3.97461,-16.28125 1.26438,-0.42146 1.24448,-0.46779 3.81445,8.53125 2.52739,8.84994 4.69281,8.51197 6.41016,-1.00195 0.52095,-2.88601 1.13469,-5.92305 1.36328,-6.74805 0.22859,-0.825 0.45009,-2.2875 0.49219,-3.25 0.12108,-2.7694 3.07617,-2.11838 3.07617,0.67773 0,1.33572 0.70966,3.13935 1.57617,4.00586 1.36323,1.36323 1.43249,2.74078 0.51563,10.23633 -1.11958,9.15285 -0.56816,11.33008 2.875,11.33008 2.4159,0 4.43573,-2.55078 7.52343,-9.5 3.40587,-7.66528 4.48771,-16.18722 2.16602,-17.07812 -1.37139,-0.52629 -1.55828,-2.00968 -1.2168,-9.66407 0.2302,-5.15981 -0.0586,-10.16254 -0.67187,-11.65039 -0.59107,-1.43406 -1.18138,-3.09988 -1.31055,-3.70117 -0.12917,-0.6013 -1.40938,-2.9552 -2.8457,-5.23047 -1.43632,-2.27528 -2.62061,-4.48282 -2.63281,-4.90625 C 644.96639,201.8461 644.07554,200.375 643,199 c -1.07554,-1.375 -1.96632,-3.71137 -1.97852,-5.19141 C 641.00925,192.32855 640.55,190.83992 640,190.5 c -0.55,-0.33992 -1,-1.31128 -1,-2.1582 0,-0.84692 -0.6209,-2.95829 -1.37891,-4.69141 -0.758,-1.73312 -2.16655,-5.40039 -3.13086,-8.15039 -0.96431,-2.75 -2.14342,-5.42672 -2.62109,-5.94922 C 631.39146,169.02828 631,167.18593 631,165.45703 c 0,-1.7289 -0.90053,-5.76349 -2.00195,-8.96484 -1.10142,-3.20134 -1.79551,-6.02872 -1.54102,-6.28321 0.25449,-0.25449 -0.19303,-1.7322 -0.99609,-3.28515 C 625.65787,145.37087 625,142.97923 625,141.60938 c 0,-1.36986 -0.48383,-2.78942 -1.07422,-3.1543 -0.67136,-0.41492 -0.29593,-1.20812 1.00195,-2.11719 1.14136,-0.79945 2.51507,-1.18191 3.05274,-0.84961 0.53767,0.3323 1.88383,0.11948 2.99023,-0.47266 1.52087,-0.81394 2.73332,-0.70387 4.97071,0.45313 4.44201,2.29705 9.12359,1.86167 15.66797,-1.45703 3.24,-1.64304 7.11164,-2.993 8.60351,-3 4.39133,-0.0205 13.57727,-3.92944 15.76367,-6.70899 2.46415,-3.13266 2.48233,-3.52991 0.27344,-6.18164 l -1.75,-2.10156 -7,1.875 c -3.85,1.03068 -7.75422,2.18636 -8.67578,2.56836 -2.37391,0.984 -4.48372,-2.76443 -5.32617,-9.46289 -0.38045,-3.025 -1.78058,-9.55 -3.11133,-14.5 C 649.05597,91.55 647.31613,84.575 646.51953,81 645.72294,77.425 643.70471,70.5273 642.03516,65.671875 640.36561,60.81645 639,56.005084 639,54.980469 c 0,-1.024615 -0.36165,-2.084816 -0.80273,-2.357422 -0.44109,-0.272605 -1.42717,-2.797639 -2.19336,-5.611328 -1.02327,-3.757755 -2.53003,-6.164807 -5.67579,-9.064453 -2.35541,-2.171165 -4.85685,-3.940041 -5.55664,-3.931641 z m -34.29687,12.857422 c 0.13503,-0.01288 0.27208,-0.01281 0.41211,0 1.86698,0.170841 4.18473,2.627166 7.06055,7.425781 2.01705,3.365667 2.10956,3.992014 0.8164,5.5 -0.80265,0.935983 -1.7302,2.464695 -2.06055,3.398438 -0.33028,0.933743 -1.88541,2.363062 -3.45703,3.175781 -2.66806,1.379707 -2.94708,1.334276 -4.20117,-0.673828 -1.73943,-2.785269 -2.45439,-14.066014 -1.05664,-16.677735 0.71675,-1.339248 1.54111,-2.058298 2.48633,-2.148437 z m 38.57031,3.033203 c 1.01356,-0.02475 2.20562,1.988736 2.95117,5.580078 0.62635,3.017086 0.85849,5.942086 0.51368,6.5 -0.94024,1.521339 -1.99621,1.240076 -4.10547,-1.09375 -1.8131,-2.00613 -1.96242,-3.530228 -0.85352,-8.642578 0.34271,-1.579969 0.88601,-2.328899 1.49414,-2.34375 z m -1.22461,18.140625 C 628.44105,68.019229 629.30238,68.696493 630,70 c 0.5887,1.1 0.94201,1.948566 0.78516,1.884766 -0.15685,-0.0638 -1.07266,-0.322691 -2.03516,-0.574219 -0.9625,-0.251527 -1.75,-1.100094 -1.75,-1.884766 0,-0.910145 0.33752,-1.357404 0.82031,-1.378906 z m -20.0957,1.138672 c 0.95358,0.183643 3.48079,2.974634 5.61719,6.203125 2.3822,3.599926 5.0011,6.292696 6.77148,6.960937 1.58771,0.599294 2.88672,1.700539 2.88672,2.447266 0,0.746727 1.3617,2.719131 3.02539,4.382813 2.40941,2.409413 3.31149,2.78641 4.43555,1.853515 3.69117,-3.063397 11.02566,6.136403 15.46679,19.402347 l 3.16797,9.46484 -2.07226,4.54883 c -3.04995,6.69506 -5.03481,6.08021 -6.2461,-1.9375 -0.46105,-3.05175 -3.60056,-3.10718 -4.75,-0.084 -1.48623,3.90909 -4.36367,3.37547 -13.89062,-2.57421 -1.55869,-0.97342 -2.61031,-1.0489 -3.88672,-0.27735 -1.05377,0.63697 -3.14247,0.75256 -5.25,0.28906 -1.925,-0.42336 -5.81488,-0.50918 -8.64453,-0.1914 -4.68975,0.52667 -5.2885,0.35709 -6.77149,-1.90625 -1.1476,-1.75146 -1.58909,-4.51323 -1.49609,-9.375 0.0725,-3.79079 -0.1984,-8.646255 -0.60351,-10.789064 -0.44169,-2.336151 -0.22286,-6.139709 0.54687,-9.5 1.12347,-4.904574 1.55961,-7.313848 1.88477,-10.392578 0.19772,-1.872136 8.20744,-8.833744 9.80859,-8.525391 z m -0.64844,19.351562 c -0.84182,-0.0166 -1.37595,0.330201 -2.14844,1.029297 -2.8438,2.573604 -0.13499,7.732677 4.50586,8.580078 1.72519,0.315012 5.80356,0.30198 9.31641,-0.0293 0.6875,-0.06483 1.25,-0.714233 1.25,-1.44336 0,-2.008821 -3.98073,-5.12196 -8.93164,-6.986328 -2.00176,-0.753803 -3.15037,-1.13379 -3.99219,-1.150391 z m -0.86523,36.537111 c 0.12954,0.004 0.23943,0.0422 0.3164,0.11914 0.30789,0.30789 -0.24815,0.86666 -1.23437,1.24219 -1.4252,0.54268 -1.54081,0.42707 -0.56055,-0.56055 0.50876,-0.51257 1.08989,-0.81222 1.47852,-0.80078 z m 11.57617,15.63086 c 0.17386,-0.0309 0.34031,0.0239 0.49414,0.17773 0.71118,0.71118 0.67548,1.46328 -0.11523,2.41602 -0.63191,0.76141 -0.96622,1.56857 -0.74219,1.79297 0.22403,0.22439 0.62917,2.97326 0.90039,6.10742 0.27123,3.13417 0.80825,6.20428 1.1914,6.82422 0.38316,0.61995 0.39216,3.55626 0.0215,6.52344 -0.63467,5.07973 -1.02649,5.68929 -6.7207,10.44726 -5.43597,4.54218 -6.39716,4.98761 -9.4961,4.40625 C 596.67589,178.15389 576,189.22828 576,194.0332 c 0,1.08219 0.21942,1.9668 0.48828,1.9668 0.26886,0 3.15184,-2.025 6.40625,-4.5 6.51052,-4.95129 8.1835,-5.51702 7.39453,-2.5 -0.62119,2.37544 -0.21739,2.41186 5.96094,0.53711 5.09454,-1.5459 5.95141,-0.93435 2.75,1.96289 -1.1,0.99549 -2,2.23082 -2,2.74609 0,2.65929 -11.6509,15.42858 -17.5,19.17969 -11.01966,7.06706 -13.13358,8.28035 -16.39844,9.4043 -1.86958,0.64361 -3.52088,1.16992 -3.66797,1.16992 -1.51306,0 0.49498,-20.47722 2.32227,-23.68359 0.68464,-1.20134 1.24414,-2.83863 1.24414,-3.63868 0,-0.80004 0.76951,-1.3928 1.71094,-1.3164 0.98847,0.0802 1.86665,-0.70636 2.07812,-1.86133 1.29938,-7.09677 4.51182,-15.59033 6.24805,-16.51953 1.07915,-0.57754 1.96289,-1.89948 1.96289,-2.93555 0,-2.14067 3.1133,-8.02906 4.25,-8.03906 0.4125,-0.003 0.75,0.66914 0.75,1.49414 0,0.825 0.675,1.5 1.5,1.5 0.825,0 1.5,-0.72474 1.5,-1.60938 0,-1.2093 0.61134,-1.45445 2.46094,-0.99023 1.80095,0.45201 2.72921,0.11476 3.46484,-1.25977 0.55266,-1.03263 0.78076,-2.1001 0.50781,-2.37304 -0.27294,-0.27295 0.59447,-1.54686 1.92774,-2.83008 1.33326,-1.28322 2.21008,-3.03111 1.94922,-3.88477 -0.34593,-1.13197 -0.0644,-1.05227 1.03906,0.29493 0.83212,1.01596 1.27281,2.47333 0.97851,3.24023 -0.29429,0.7669 0.1507,1.65831 0.99024,1.98047 1.77577,0.68143 5.49232,-2.63438 4.91016,-4.38086 -0.21771,-0.65313 0.0406,-1.1875 0.57226,-1.1875 0.53168,0 1.21284,0.94752 1.51563,2.10547 0.68632,2.62448 3.07393,1.98847 3.5039,-0.93359 0.38273,-2.60106 1.45933,-2.74967 3.69922,-0.50977 1.33713,1.33713 1.82151,1.40291 2.47852,0.33984 0.4492,-0.72682 0.6034,-1.87879 0.34179,-2.56054 -0.26161,-0.68174 0.004,-1.53534 0.5918,-1.89844 0.58749,-0.36309 1.06836,-1.91767 1.06836,-3.45313 0,-3.77007 1.57006,-8.16831 2.78711,-8.38476 z m 1.48437,39.41797 c 1.67799,-0.10988 3.1896,0.2762 5.02149,1.12695 4.02935,1.87129 3.30698,2.53598 -2.83594,2.60938 -3.04875,0.0364 -7.09875,0.35816 -9,0.71484 -4.69885,0.88151 -4.3488,-0.26763 0.79297,-2.60156 2.499,-1.13434 4.3435,-1.73974 6.02148,-1.84961 z m -20.28906,3.18554 c 0.27975,0.0141 0.5394,0.0604 0.76367,0.14649 0.93131,0.35738 1.20943,0.95803 0.67188,1.44922 -1.47958,1.35197 -6.41797,2.23708 -6.41797,1.15039 0,-1.31247 3.02418,-2.84479 4.98242,-2.7461 z m 13.46289,5.92188 c 0.70266,0.005 1.52156,0.0953 2.55469,0.23437 6.76832,0.91136 11.29411,3.25921 13.18555,6.8418 4.79364,9.07966 5.75256,11.73551 6.15039,17.03516 0.25229,3.36083 -0.1527,7.72204 -0.96875,10.43359 -0.77123,2.56259 -1.77299,5.0308 -2.22657,5.48438 -1.35302,1.35304 -3.03266,-1.57938 -3.61718,-6.31836 -0.94181,-7.63581 -1.71593,-10.94216 -2.70703,-11.55469 -1.3733,-0.84875 0.0741,-8.65731 1.86523,-10.0625 2.14343,-1.68155 0.77872,-4.99034 -2.47266,-5.99414 -4.39493,-1.35685 -16.73282,-0.9705 -18.60351,0.58203 -0.91006,0.75526 -1.96035,1.06504 -2.33594,0.68945 -0.37559,-0.37559 1.09706,-2.27132 3.27344,-4.21289 2.72543,-2.43138 3.79436,-3.17383 5.90234,-3.1582 z m 0.69531,10.94922 c 1.44678,-0.0508 2.27216,0.77721 2.91602,2.4707 1.46269,3.84718 1.89841,18.91364 0.74024,25.59961 -0.78762,4.54674 -1.37854,5.75 -2.82813,5.75 -2.71886,0 -3.29594,2.63292 -4.8125,22 -0.36608,4.675 -1.00144,9.02031 -1.41211,9.65625 -0.41067,0.63595 -0.99156,7.61095 -1.29102,15.5 -0.29939,7.88906 -0.79364,19.51875 -1.09765,25.84375 -0.72562,15.09676 -0.77106,17.91178 -0.45117,28 0.32442,10.23146 -1.6071,41.71019 -2.94532,48 -0.52658,2.475 -1.14267,6.075 -1.36914,8 -0.22647,1.925 -0.89528,4.74852 -1.48632,6.27539 -0.59104,1.52686 -1.32857,4.00186 -1.64063,5.5 -0.31205,1.49813 -0.73543,3.39961 -0.93945,4.22461 -0.20401,0.825 -0.40517,2.20123 -0.44727,3.05859 -0.0421,0.85735 -1.61937,4.12305 -3.50586,7.25586 -1.88648,3.13281 -4.31837,8.07031 -5.40429,10.97266 -1.08591,2.90236 -3.31003,7.96167 -4.94141,11.24414 -1.63139,3.28248 -4.47032,9.34375 -6.31055,13.46875 -1.84023,4.125 -4.64668,9.65204 -6.23633,12.2832 -2.35572,3.89916 -3.15324,4.56629 -4.30859,3.60742 -1.89226,-1.57042 -2.98602,-0.3387 -1.39844,1.57422 1.0259,1.23613 0.96069,1.62505 -0.35742,2.13086 -0.88694,0.34035 -1.61328,1.4008 -1.61328,2.35742 0,0.95666 -0.70699,3.15808 -1.57227,4.89258 -2.85103,5.71503 -3.73719,3.83858 -3.10937,-6.5957 0.62265,-10.3482 3.53325,-32.32756 6.08789,-45.97461 2.04655,-10.93282 2.10365,-31.65407 0.15625,-56.77539 -0.1279,-1.65 -0.51992,-4.575 -0.87109,-6.5 -0.35117,-1.925 -0.8017,-8.45 -1.00196,-14.5 -0.54531,-16.47422 -3.96447,-22.3305 -15.00195,-25.69336 -3.26298,-0.99415 -4.65324,-0.85714 -9.64648,0.93945 -6.77018,2.43595 -19.11422,12.26484 -26.04102,20.73633 -2.475,3.02693 -5.00946,5.50772 -5.63281,5.51172 -0.62335,0.004 -1.37953,0.94592 -1.67969,2.09375 -0.80614,3.08268 -4.26714,2.0883 -3.92969,-1.12891 0.35352,-3.37054 3.47488,-9.05415 4.72266,-8.5996 2.11818,0.77161 4.26995,-1.42654 5.93555,-6.0625 0.94793,-2.63847 2.59259,-6.52616 3.65429,-8.64063 1.0617,-2.11448 1.92969,-4.32185 1.92969,-4.9043 0,-1.04661 3.38386,-8.69891 7.08984,-16.0332 1.05072,-2.07944 1.91016,-4.37934 1.91016,-5.11133 0,-0.73199 1.34512,-4.29601 2.98828,-7.91992 1.64317,-3.62392 2.72819,-7.26226 2.41211,-8.08594 -0.31607,-0.82369 0.23775,-2.8722 1.23047,-4.55273 1.49258,-2.52674 1.60967,-3.57468 0.67578,-6.04883 -0.62113,-1.64556 -0.75816,-3.21974 -0.30469,-3.5 0.45347,-0.28026 1.13865,-2.42124 1.52344,-4.75586 0.38479,-2.33462 1.06845,-4.91914 1.51953,-5.74414 0.70939,-1.29742 0.90848,-1.27155 1.4707,0.1875 0.71821,1.86382 3.48438,1.33949 3.48438,-0.66016 0,-2.43705 4.06606,-6.48899 6.27734,-6.25586 1.66311,0.17535 2.42753,-0.55987 3.29297,-3.16992 0.67497,-2.03561 1.41254,-2.93823 1.83789,-2.25 1.32669,2.14663 3.63607,1.17516 4.22657,-1.77734 0.35037,-1.75187 1.07838,-2.73753 1.81445,-2.45508 0.67624,0.2595 1.68967,-0.11169 2.25195,-0.82422 0.90222,-1.14331 2.40045,-5.90404 2.29688,-7.30078 -0.17969,-2.42343 4.30538,-7.20707 11.21875,-11.96484 4.55628,-3.13563 11.4332,-8.12697 15.2832,-11.09375 3.85,-2.96679 8.35,-6.09901 10,-6.96094 1.65,-0.86193 5.25,-2.88211 8,-4.48828 3.12625,-1.82594 5.19386,-2.75582 6.64062,-2.80664 z M 566.75,204.01562 c -3.35113,0.0228 -4.26545,0.911 -4.86914,4.73438 -0.0651,0.4125 -0.0651,1.3125 0,2 0.20615,2.17601 3.13037,1.3507 4.08203,-1.15234 0.50246,-1.32157 1.39068,-2.69771 1.97461,-3.0586 1.82596,-1.1285 1.16248,-2.53942 -1.1875,-2.52344 z m -28.125,41.34766 c 0.0556,0.008 0.10458,0.0323 0.14648,0.0742 0.3352,0.3352 -0.20325,1.38653 -1.19726,2.33594 -1.72775,1.65022 -1.7545,1.62348 -0.60938,-0.60938 0.57645,-1.12402 1.27093,-1.85909 1.66016,-1.80078 z M 514.96875,269 c 0.53273,0 0.70916,0.675 0.39258,1.5 -0.31659,0.825 -0.75259,1.5 -0.96875,1.5 C 514.17643,272 514,271.325 514,270.5 c 0,-0.825 0.43601,-1.5 0.96875,-1.5 z m 2.46094,9.79492 c 0.0776,-0.0419 0.16859,0.10975 0.26367,0.47461 0.25349,0.97297 0.23676,2.32297 -0.0371,3 -0.27393,0.67703 -0.48134,-0.11953 -0.46094,-1.76953 0.0127,-1.03125 0.10503,-1.63531 0.23438,-1.70508 z m 8.47851,8.29102 c 0.15542,0.0538 0.0809,0.65007 -0.0801,1.83594 -0.18077,1.33192 -0.89062,2.60756 -1.57812,2.83398 -1.67817,0.55267 -1.52586,-0.81587 0.36133,-3.25586 0.75749,-0.97938 1.14146,-1.46786 1.29687,-1.41406 z m -16.4414,3.375 c 0.0603,0.0225 0.12596,0.11718 0.19531,0.28906 0.27741,0.6875 0.27741,1.8125 0,2.5 -0.27741,0.6875 -0.50391,0.125 -0.50391,-1.25 0,-1.03125 0.12773,-1.60645 0.3086,-1.53906 z M 499.55859,299 c 0.24254,0 0.44141,0.45 0.44141,1 0,0.55 -0.47613,1 -1.05859,1 -0.58246,0 -0.78133,-0.45 -0.44141,-1 0.33992,-0.55 0.81605,-1 1.05859,-1 z m 7.58985,0.13867 c 0.1827,-0.0229 0.3351,0.0109 0.43945,0.11524 0.31619,0.31619 0.0709,1.51305 -0.54297,2.66015 -1.1719,2.1897 -2.56085,2.67828 -3.46289,1.21875 -0.55596,-0.89957 2.2875,-3.83372 3.56641,-3.99414 z m 8.83789,9.85938 c 0.65797,0.0476 0.91621,0.77931 0.47461,2.25195 -0.37109,1.2375 -1.2441,2.85119 -1.93946,3.58594 -0.69537,0.73474 -3.34409,1.55341 -5.88671,1.81836 -3.89313,0.40569 -4.52969,0.23409 -4.02539,-1.08008 0.40485,-1.05503 1.34543,-1.37318 2.90234,-0.98242 1.77805,0.44626 2.82289,-0.12386 4.58398,-2.50586 1.53694,-2.07882 3.04467,-3.14914 3.89063,-3.08789 z m -13.4375,10.3457 c 0.32007,0.0966 0.22421,1.12302 -0.4961,3.01758 C 501.50095,323.81261 500.57774,325 500,325 c -0.61558,0 -0.38847,-1.28122 0.54883,-3.09375 0.94468,-1.82682 1.67992,-2.65913 2,-2.5625 z M 512.05859,320 c 0.58246,0 0.78133,0.45 0.44141,1 -0.33992,0.55 -0.81605,1 -1.05859,1 C 511.19887,322 511,321.55 511,321 c 0,-0.55 0.47613,-1 1.05859,-1 z m -7,5 c 0.58246,0 0.78133,0.45 0.44141,1 -0.33992,0.55 -0.81605,1 -1.05859,1 C 504.19887,327 504,326.55 504,326 c 0,-0.55 0.47613,-1 1.05859,-1 z m -1.66601,3.10547 c 0.42031,0.10002 0.34756,2.02664 -0.48242,4.79687 -0.67518,2.25355 -1.63671,4.09766 -2.13672,4.09766 -0.87617,0 -0.50689,-1.82644 1.38867,-6.88867 0.54994,-1.46866 0.97828,-2.06587 1.23047,-2.00586 z m -5.00391,0.27734 c 0.3586,0.0159 0.61133,0.4155 0.61133,1.0586 0,0.85746 -0.45,1.55859 -1,1.55859 -0.55,0 -1,-0.42387 -1,-0.94141 0,-0.51754 0.45,-1.21867 1,-1.55859 0.1375,-0.085 0.26914,-0.12248 0.38867,-0.11719 z m 42.50391,0.0234 c 0.64917,0.0159 1.31037,0.0814 1.99804,0.19141 5.0911,0.8141 10.62398,6.11283 11.6543,11.16015 2.37166,11.61827 2.12635,84.77811 -0.35937,107.24219 -0.57817,5.225 -1.32201,14.11522 -1.65235,19.75586 -0.33033,5.64065 -0.78313,10.81565 -1.00586,11.5 -0.22273,0.68436 -0.64096,4.10322 -0.92968,7.59766 -0.28871,3.49444 -0.99855,6.92469 -1.57813,7.62304 -0.57958,0.69835 -0.73708,2.11428 -0.34961,3.14649 0.61505,1.6385 0.49534,1.70749 -0.93945,0.54101 -2.17566,-1.76879 -3.72485,-0.67677 -3.75195,2.64453 -0.0121,1.48004 -0.91208,4.65323 -2,7.05079 -1.08792,2.39755 -1.97852,5.65015 -1.97852,7.22851 0,1.57836 -1.08859,6.14155 -2.41797,10.14063 -2.58589,7.779 -4.50593,14.64438 -4.55273,16.27148 -0.0811,2.81761 2.49082,0.24468 5.99804,-6 3.55123,-6.32305 3.94034,-6.70988 4.02344,-4 0.16614,5.41811 1.01889,10.76037 2.01367,12.61914 0.53777,1.00484 1.41058,4.10964 1.93946,6.89844 1.81655,9.57863 5.25334,12.15215 23.49609,17.5957 2.75,0.82059 5.675,1.76139 6.5,2.0918 0.825,0.33041 1.95,0.68999 2.5,0.79687 0.55,0.10689 1.3375,0.31818 1.75,0.47071 1.40283,0.51869 2.24842,0.6718 8.12891,1.48046 4.44957,0.61195 5.99352,1.25687 6.35742,2.64844 0.43013,1.64481 0.7597,1.69659 3.12305,0.4961 1.54186,-0.78321 3.47314,-1.03182 4.64062,-0.59571 1.1,0.41088 2.32218,0.56232 2.71484,0.33594 0.39266,-0.22637 3.31766,0.24882 6.5,1.05664 5.57461,1.41509 21.03909,3.45307 28.28516,3.72656 4.36871,0.16489 17.85719,-1.00647 20.37891,-1.76953 1.03393,-0.31285 3.05893,-0.68251 4.5,-0.82226 1.44108,-0.13976 6.01128,-0.59422 10.15429,-1.00977 7.14383,-0.71654 7.68676,-0.62497 10.53711,1.77344 1.65304,1.39095 4.5648,3.20788 6.46875,4.03711 3.41653,1.488 3.42504,1.50739 0.71094,1.58789 -3.23461,0.096 -3.565,1.55646 -0.75,3.31445 1.1,0.68696 2,1.78898 2,2.44922 0,2.45678 -2.87676,1.93898 -7.14258,-1.28516 -0.76475,-0.57799 -4.84775,-0.87031 -9.35742,-0.66992 -21.85002,0.97092 -62.88485,0.0696 -76,-1.66992 -4.95,-0.65654 -10.35,-1.33945 -12,-1.51562 -1.65,-0.17616 -5.025,-0.60016 -7.5,-0.94336 -5.18419,-0.71887 -15.79502,-1.7678 -18,-1.7793 -0.825,-0.004 -4.2,-0.39263 -7.5,-0.86328 -3.3,-0.47065 -12.05148,-1.09249 -19.44727,-1.38086 -17.22072,-0.67146 -17.8512,-1.11187 -16.05078,-11.21289 1.25556,-7.04413 0.78307,-10.47699 -4.04297,-29.36133 -0.6325,-2.475 -1.15176,-8.73408 -1.15234,-13.9082 -10e-4,-9.29005 -0.0609,-9.52497 -4.88281,-18.9375 -2.68559,-5.24234 -5.59825,-12.71022 -6.47266,-16.59375 -0.87441,-3.88354 -2.52357,-9.08555 -3.66406,-11.56055 -1.14049,-2.475 -2.19365,-6.3 -2.33984,-8.5 -0.28813,-4.33615 -1.3092,-10.46875 -1.9043,-11.43164 -0.20389,-0.3299 -0.84168,-3.97802 -1.41602,-8.10742 -1.20085,-8.63378 -0.13224,-16.56731 4.43555,-32.96094 0.38312,-1.375 1.94103,-5.2 3.46289,-8.5 1.52187,-3.3 3.07903,-7.48568 3.46094,-9.30078 0.38192,-1.81511 3.81908,-8.79011 7.63867,-15.5 7.44709,-13.08237 13.70821,-19.98799 21.57227,-23.79492 2.36626,-1.14549 4.30273,-2.7182 4.30273,-3.49414 0,-2.08226 -4.32233,-1.7315 -7.27344,0.58984 -1.39842,1.1 -3.01181,2 -3.58594,2 -1.62157,0 -16.24674,15.01846 -15.61718,16.03711 0.71699,1.16011 -1.70255,5.83304 -5.125,9.90039 -1.47078,1.74792 -3.2453,4.84058 -3.94336,6.87109 -1.90556,5.54289 -3.94759,4.80428 -3.61914,-1.30859 0.23958,-4.45907 1.57424,-8.87443 4.10156,-13.56055 0.90527,-1.67853 2.56351,-9.66071 3.51953,-16.94336 0.91946,-7.00404 5.6181,-14.07117 14.64258,-22.02343 8.29517,-7.3096 12.24874,-9.67779 16.79297,-9.56641 z m 72.48242,9.10742 c 2.38481,0.1943 7.37704,16.55321 6.04102,20.73828 -0.39466,1.23629 -0.83831,4.27305 -0.98633,6.74805 -0.5855,9.79028 -1.51752,17.61414 -2.55664,21.46289 -0.59958,2.22073 -1.29195,5.16211 -1.53907,6.53711 -0.24712,1.375 -0.90851,4.3 -1.46875,6.5 -0.56025,2.2 -1.43562,6.64469 -1.94531,9.87695 -0.50968,3.23225 -1.6161,7.90798 -2.45898,10.39063 -0.84288,2.48265 -1.68096,5.79546 -1.86328,7.36133 -0.18232,1.56587 -0.84068,3.45927 -1.46289,4.20898 -0.6222,0.74972 -1.39556,3.56916 -1.7168,6.26367 -0.32124,2.69451 -0.94408,6.02344 -1.38477,7.39844 -0.44069,1.375 -1.35082,4.525 -2.02148,7 -0.67067,2.475 -1.80501,6.3 -2.52149,8.5 -0.71648,2.2 -2.07112,6.7 -3.01171,10 -2.41403,8.46949 -4.64613,14.49995 -5.36524,14.50195 -0.33778,8e-4 -0.73932,1.82766 -0.89258,4.06055 -0.15327,2.23288 -0.98653,6.61924 -1.85156,9.74805 -0.86504,3.12881 -1.94934,7.82649 -2.41016,10.4375 -0.46082,2.61102 -1.11464,5.1945 -1.45312,5.74218 -0.33848,0.54767 -1.17988,3.17516 -1.87109,5.83985 -1.02537,3.95291 -1.00945,5.93423 0.0937,10.75781 0.74385,3.25163 1.62113,7.26211 1.94726,8.91211 0.94721,4.79237 4.07956,8.33015 9.64453,10.89062 5.56119,2.55873 8.91214,3.50241 15.10547,4.25196 2.15926,0.26133 4.63426,0.83037 5.5,1.26367 0.86575,0.4333 6.07422,0.91914 11.57422,1.08008 13.08132,0.3828 14.9045,0.5274 16.12109,1.27929 1.59814,0.98771 20.17228,3.97225 21.59961,3.47071 0.70333,-0.24714 2.38012,-0.0411 3.72461,0.45703 1.3445,0.4981 5.8445,1.32659 10,1.8418 4.15551,0.51521 9.35469,1.69861 11.55469,2.63086 3.96937,1.68202 10.5,6.98695 10.5,8.52929 0,1.74312 -6.71426,0.54828 -10.37695,-1.84765 -3.60263,-2.35664 -4.41391,-2.48712 -11.5,-1.8418 -4.19315,0.38187 -8.97305,0.81464 -10.62305,0.96289 -1.65,0.14825 -6.6,0.77395 -11,1.39063 -8.99857,1.26115 -37.00188,0.0713 -41.81445,-1.77735 -1.5481,-0.5946 -4.33468,-1.08203 -6.19141,-1.08203 -1.85674,0 -3.62342,-0.39944 -3.92578,-0.88867 -0.30237,-0.48923 -2.01599,-1.11261 -3.80859,-1.38477 -3.97433,-0.6034 -19.21441,-4.84757 -27.83594,-7.75195 -3.47993,-1.17231 -7.56894,-3.34498 -9.08594,-4.82813 l -2.75781,-2.69726 1.36719,-8.97461 c 1.28443,-8.427 2.29079,-12.19562 4.53125,-16.97461 0.5157,-1.1 1.41991,-3.89275 2.00781,-6.20703 0.5879,-2.31428 1.50596,-4.47987 2.04101,-4.81055 0.53511,-0.33065 0.97266,-1.36346 0.97266,-2.29492 0,-0.93146 1.83404,-6.41587 4.07617,-12.18945 3.22067,-8.29337 8.16376,-23.98002 9.92578,-31.49805 0.49452,-2.10997 -0.0576,-2.58692 -1.41797,-1.22656 -0.77845,0.77845 -1.66241,2.72197 -1.96484,4.32031 -0.63988,3.38165 -3.77108,13.12441 -7.20898,22.42773 -1.32539,3.58667 -2.41016,7.07608 -2.41016,7.75391 0,0.67782 -0.9,2.91052 -2,4.96289 -1.1,2.05236 -2,4.49932 -2,5.4375 0,1.80301 -1.74924,3.40896 -2.68945,2.46875 -0.30593,-0.30592 0.4797,-4.73991 1.74609,-9.85156 1.26639,-5.11165 2.37108,-9.96797 2.45508,-10.79297 0.45954,-4.51218 1.82625,-10.63808 2.58203,-11.57812 0.47687,-0.59319 1.02503,-1.9432 1.21875,-3 0.83234,-4.54073 2.81657,-10.3843 3.71484,-10.93946 0.53506,-0.33069 0.98194,-1.58597 0.99414,-2.79101 0.0122,-1.20504 0.90298,-3.31641 1.97852,-4.69141 1.07554,-1.375 1.96632,-3.43068 1.97852,-4.56836 0.0403,-3.74972 2.93424,-11.96069 4.99609,-14.17383 1.11393,-1.19566 2.03287,-3.20629 2.04297,-4.46679 0.0237,-2.97356 6.43012,-18.5229 8.63476,-20.95899 1.15978,-1.28155 2.02644,-1.55364 2.72461,-0.85547 1.81984,1.81984 2.98704,1.08445 1.27735,-0.80468 -2.04932,-2.26448 -2.08766,-3.56733 -0.1543,-5.17188 0.825,-0.68469 1.5,-2.58366 1.5,-4.2207 0,-1.63703 0.61918,-4.39579 1.37695,-6.12891 4.48109,-10.24893 7.57769,-28.93922 8.3086,-50.15039 0.26533,-7.7 0.82816,-14.36004 1.25,-14.80078 0.13316,-0.13913 0.28046,-0.1985 0.43945,-0.18555 z M 498.05859,344 c 0.58246,0 0.78133,0.45 0.44141,1 -0.33992,0.55 -0.81605,1 -1.05859,1 C 497.19887,346 497,345.55 497,345 c 0,-0.55 0.47613,-1 1.05859,-1 z M 504,346 c -0.55,0 -1,0.45 -1,1 0,0.55 0.45,1 1,1 0.55,0 1,-0.45 1,-1 0,-0.55 -0.45,-1 -1,-1 z m -8.36523,7.33789 c 0.22236,0.0463 0.36523,0.23555 0.36523,0.54492 0,0.55 -0.45,1.27727 -1,1.61719 -0.55,0.33992 -1,0.16719 -1,-0.38281 0,-0.55 0.45,-1.27727 1,-1.61719 0.1375,-0.085 0.26914,-0.13706 0.38867,-0.16016 0.0897,-0.0173 0.17197,-0.017 0.2461,-0.002 z M 499.55859,356 c 0.24254,0 0.44141,0.45 0.44141,1 0,0.55 -0.47613,1 -1.05859,1 -0.58246,0 -0.78133,-0.45 -0.44141,-1 0.33992,-0.55 0.81605,-1 1.05859,-1 z m -1.23047,23.49805 c 0.54337,-0.0296 0.50907,1.27796 0.11329,5.10742 -0.33502,3.24154 -0.85899,6.56953 -1.16602,7.39453 -0.30703,0.825 -0.73347,4.08433 -0.94727,7.24414 -0.34802,5.14425 -2.10694,12.13511 -2.26562,9.00586 -0.0349,-0.6875 -1.1875,-1.25 -2.5625,-1.25 -1.71983,0 -2.49633,-0.54612 -2.48633,-1.75 0.0195,-2.34549 2.50679,-9.5376 5.58203,-16.14062 1.38064,-2.96445 2.2892,-5.96795 2.01758,-6.67579 -0.27162,-0.70783 0.16626,-1.83465 0.97266,-2.5039 0.31755,-0.26355 0.56108,-0.42178 0.74218,-0.43164 z m -17.80664,13.73828 c 0.11727,0.10968 0.009,0.76363 -0.23632,2.04687 -0.28869,1.51017 -0.91997,2.99169 -1.4043,3.29102 -1.3898,0.85895 -1.02542,-1.99242 0.52539,-4.11328 0.65687,-0.89832 0.99797,-1.33429 1.11523,-1.22461 z m -24.15625,4.24805 c 0.39899,-0.0435 1.03992,0.14798 1.63477,0.51562 0.79314,0.49019 1.21641,1.11563 0.94141,1.39062 -0.275,0.27502 -1.14827,0.0996 -1.94141,-0.39062 -0.79314,-0.49019 -1.21641,-1.11563 -0.94141,-1.39062 0.0688,-0.0688 0.17365,-0.11051 0.30664,-0.125 z m 6.49219,4.05664 c 0.0736,0.0383 0.11494,0.18697 0.11914,0.46484 0.0125,0.82863 -0.41991,3.05597 -0.96289,4.94922 -0.70034,2.44194 -0.66025,3.64565 0.14063,4.14062 0.77701,0.48022 0.44086,1.66483 -1.08008,3.80078 -3.43755,4.82761 -3.79955,4.14736 -1.92969,-3.63281 1.15534,-4.80713 3.19799,-9.99082 3.71289,-9.72265 z M 477.05859,402 c 0.51754,0 0.94141,0.45 0.94141,1 0,0.55 -0.70113,1 -1.55859,1 -0.85748,0 -1.28133,-0.45 -0.94141,-1 0.33992,-0.55 1.04105,-1 1.55859,-1 z m -20.27734,0.2793 c 1.26163,0.0858 2.34723,0.83721 1.99805,1.88476 -0.21338,0.64014 -1.31928,1.78362 -2.45703,2.53906 -1.8443,1.22459 -2.12524,1.15525 -2.5918,-0.6289 -0.28783,-1.10065 0.0981,-2.51668 0.85937,-3.14844 0.61328,-0.50897 1.43443,-0.69799 2.19141,-0.64648 z m 11.75391,3.11914 c 0.10158,-0.0242 0.19451,-0.003 0.27148,0.0742 0.30789,0.30789 0.002,1.11658 -0.68164,1.79492 -0.98762,0.98026 -1.10323,0.86465 -0.56055,-0.56055 0.28165,-0.73966 0.66595,-1.23616 0.97071,-1.30859 z M 490.08203,408 c 1.37844,0 1.91797,0.70261 1.91797,2.5 0,1.375 0.45,2.5 1,2.5 1.27751,0 1.31574,6.68595 0.043,7.47266 -0.52598,0.32507 -0.71303,1.22406 -0.41602,1.99804 0.29887,0.77885 -0.38973,1.98878 -1.54297,2.70899 -1.14602,0.71571 -2.09336,2.20534 -2.10546,3.31054 -0.0121,1.1052 -0.89015,3.92227 -1.95118,6.25977 -2.05867,4.53534 -4.02734,5.59289 -4.02734,2.16406 0,-2.77637 6.04964,-15.07659 8.20898,-16.6914 1.04195,-0.77917 1.45971,-1.94921 1.07227,-3 -1.33343,-3.61633 -4.80336,-4.3014 -5.80469,-1.14649 -0.36228,1.14145 -0.9087,1.82568 -1.21289,1.52149 -0.30418,-0.30418 0.22393,-2.58891 1.17383,-5.07618 C 487.65565,409.33141 488.72955,408 490.08203,408 Z m -24.26367,4.46289 c 0.0665,-0.008 0.12998,0.005 0.18555,0.0391 0.4445,0.27472 0.28792,1.6199 -0.34766,2.99024 -1.62371,3.50079 -2.76745,3.12876 -1.50586,-0.49024 0.5031,-1.44318 1.20267,-2.48528 1.66797,-2.53906 z m 2.69726,4.92578 c 0.48015,-0.0306 0.66196,0.70472 0.13868,2.06836 -0.32568,0.84872 -1.0716,1.54297 -1.65821,1.54297 -0.7396,0 -0.725,-0.63975 0.0488,-2.08594 0.54307,-1.01473 1.09726,-1.50157 1.4707,-1.52539 z M 456.91797,419 c 0.85053,0 0.46281,2.3602 -1.72461,10.5 -0.59121,2.2 -1.55142,7.52578 -2.13477,11.83398 -1.02697,7.58455 -3.20194,12.8613 -4.46093,10.82422 -0.33636,-0.54424 -0.12775,-2.26557 0.46484,-3.82422 0.5926,-1.55866 1.01756,-2.83398 0.94336,-2.83398 -0.0742,0 0.17428,-0.80675 0.55273,-1.79297 0.37845,-0.98622 0.43674,-2.04568 0.12891,-2.35351 -0.30783,-0.30783 -0.15791,-1.61834 0.33398,-2.91211 0.49189,-1.29377 1.13057,-5.13792 1.41797,-8.54297 C 452.93426,424.03606 455.00365,419 456.91797,419 Z m 22.78125,2.43164 c 0.34336,0.10331 0.37993,0.63123 -0.1582,1.50195 -0.36254,0.58659 -1.13778,1.06641 -1.72266,1.06641 -0.6631,0 -0.58758,-0.57305 0.20117,-1.52344 0.68577,-0.8263 1.33633,-1.14822 1.67969,-1.04492 z m 3.68945,0.94727 c 0.3586,0.007 0.61133,0.38515 0.61133,1.0039 0,0.825 -0.45,1.77727 -1,2.11719 -0.55,0.33992 -1,-0.0578 -1,-0.88281 0,-0.825 0.45,-1.77727 1,-2.11719 0.1375,-0.085 0.26914,-0.12339 0.38867,-0.12109 z m -21.65039,0.82226 c 0.1802,0.0357 0.23927,0.51612 0.2461,1.49024 0.008,1.20504 -0.43438,2.46867 -0.98438,2.80859 -1.27319,0.78687 -1.27319,-1.52988 0,-3.5 0.29553,-0.45731 0.50583,-0.72512 0.6543,-0.78711 0.0309,-0.0129 0.0582,-0.0168 0.084,-0.0117 z m 3.94922,2.96485 c 0.29819,-0.006 0.29848,0.42858 -0.0176,1.25195 C 465.30155,428.37818 465,429.57701 465,430.08203 465,430.58704 464.59226,431 464.09375,431 c -1.16376,0 -0.18502,-3.82539 1.19727,-4.67969 0.16494,-0.10194 0.29708,-0.15229 0.39648,-0.15429 z m 9.78516,2.63086 c 0.53688,-0.0448 1.02734,0.56586 1.02734,1.86914 0,0.91666 -0.6002,1.86673 -1.33398,2.11132 -0.9147,0.30489 -1.22908,-0.29709 -1,-1.91601 0.18662,-1.31884 0.76976,-2.01972 1.30664,-2.06445 z M 513.89062,430 c -0.49036,0 -0.89629,0.7875 -0.90429,1.75 -0.008,0.9625 -0.64857,3.56463 -1.42188,5.7832 -1.48996,4.27455 -1.45171,5.74802 0.50196,19.9668 0.79427,5.78065 2.07528,10.46228 3.58398,13.08789 1.29192,2.24832 2.34961,5.5244 2.34961,7.28125 0,1.75684 0.74155,4.86727 1.64844,6.91211 0.90688,2.04483 1.83941,7.31875 2.07226,11.71875 0.33719,6.37168 0.85117,8.45797 2.52539,10.25 1.15614,1.2375 2.42503,2.25 2.82032,2.25 C 528.12369,509 529,506.24507 529,502.91797 529,500.72664 528.53148,500 527.11719,500 c -2.58738,0 -3.14102,-3.77505 -1.48828,-10.14648 1.39102,-5.36253 0.69651,-7.85352 -2.18946,-7.85352 -1.8276,0 -2.83616,-7.73699 -1.63867,-12.57031 0.53538,-2.1609 0.86941,-6.85469 0.74219,-10.42969 -0.12722,-3.575 0.16114,-7.28426 0.64258,-8.24219 0.50373,-1.00229 0.49448,-3.12496 -0.0234,-5 l -0.90039,-3.25781 -1.18945,2.9707 c -0.65422,1.63368 -0.98057,3.77118 -0.72461,4.75 0.28328,1.08323 -0.0854,1.7793 -0.94141,1.7793 -1.62789,0 -1.87809,1.59091 -0.39453,2.50781 1.37204,0.84796 0.61852,11.78146 -0.8457,12.26953 -1.75229,0.5841 -2.57249,-2.59103 -1.35743,-5.25781 0.85789,-1.88287 0.76197,-2.4705 -0.48047,-2.94726 -1.24683,-0.47846 -1.41238,-1.52739 -0.8457,-5.33399 0.38797,-2.60617 1.12089,-5.24354 1.62891,-5.86133 1.0698,-1.30096 0.0841,-4.61599 -1.14649,-3.85547 -1.58403,0.97898 -2.09954,-1.58411 -0.99218,-4.93945 C 516.11917,435.10745 515.47532,430 513.89062,430 Z m 369.51172,4.20312 c -2.93443,-0.0434 -5.75892,0.33634 -7.77734,1.17969 -2.12788,0.88908 -4.64421,1.61719 -5.5918,1.61719 -2.20751,0 -4.69225,2.76055 -5.53906,6.1543 -0.36438,1.46034 -1.73411,3.66295 -3.04297,4.89258 -2.02461,1.90203 -3.07451,2.13856 -7.03515,1.5957 -3.90801,-0.53565 -5.45556,-0.20075 -9.64258,2.07812 -5.88532,3.20319 -7.49336,6.25178 -5.16797,9.80078 1.44051,2.19849 1.84188,2.30954 4.24219,1.17383 6.21747,-2.94182 21.71948,0.46411 26.09179,5.73242 0.71805,0.8652 1.70026,1.57227 2.18164,1.57227 1.55579,0 10.87826,7.15021 10.87891,8.34375 3.4e-4,0.6359 2.13784,3.81094 4.75,7.05469 2.61215,3.24374 5.58474,7.29374 6.60547,9 1.02072,1.70625 4.18861,5.57656 7.03906,8.60156 2.85045,3.025 6.18659,6.93304 7.41406,8.68359 1.22746,1.75055 6.15958,6.20991 10.96094,9.91016 4.80136,3.70025 9.17726,7.12281 9.72266,7.60742 1.66637,1.48063 -1.37724,2.59131 -7.30078,2.66211 -3.03587,0.0363 -5.98502,0.53189 -6.55469,1.10156 C 914.309,534.29259 907,534.32221 907,533 c 0,-0.55 0.45,-1 1,-1 0.55,0 1,-0.71137 1,-1.58008 0,-1.18954 -0.67888,-1.44298 -2.75,-1.0293 -1.5125,0.30212 -6.35,0.84069 -10.75,1.19727 -4.4,0.35658 -9.125,0.82 -10.5,1.0293 -1.375,0.20931 -7,0.83102 -12.5,1.38281 -5.5,0.55179 -13.16891,1.47001 -17.04102,2.03906 -5.8025,0.85275 -7.69239,0.76193 -10.75,-0.51562 C 842.66859,533.67092 841,533.25592 841,533.60156 c 0,0.34564 -1.2375,-0.18294 -2.75,-1.17578 -6.12557,-4.02097 -20.54716,-5.00831 -65.03711,-4.44726 -4.00844,0.0506 -7.72576,-0.1778 -8.25977,-0.50782 -1.40841,-0.87045 -4.95312,0.45728 -4.95312,1.85547 0,2.42137 4.13746,3.62679 14.18945,4.13477 5.67107,0.28659 14.01098,0.78938 18.53321,1.11718 4.52223,0.32782 10.82223,0.73082 14,0.89454 12.34655,0.63609 17.7515,1.94764 15.13476,3.67187 -2.3164,1.52634 2.00084,4.04124 5.62305,3.27539 3.41735,-0.72254 3.16101,-0.7031 6.51953,-0.52344 4.3183,0.231 0.0678,2.0706 -4.82422,2.0879 -3.57919,0.0127 -4.26298,0.31683 -3.97461,1.76562 0.26991,1.35604 1.16403,1.67903 3.97266,1.43359 1.99359,-0.17422 3.92254,0.16328 4.28515,0.75 0.40143,0.64953 -0.34226,1.06641 -1.90039,1.06641 -1.5272,0 -2.55859,0.5646 -2.55859,1.40039 0,1.0354 0.97755,1.27793 3.75,0.92969 7.52871,-0.94567 18.22065,-1.18673 18.69336,-0.42188 0.26685,0.43178 -2.76081,1.35189 -6.72852,2.04492 -5.76414,1.00681 -12.30794,3.08323 -14.51367,4.60547 -0.16427,0.11337 -0.0262,1.29089 0.30664,2.61719 0.52115,2.07642 1.54862,2.58608 7.39844,3.66797 3.73654,0.69105 7.19851,1.16064 7.69336,1.04297 0.49485,-0.11767 2.02539,0.0905 3.40039,0.46289 1.375,0.37237 4.3,0.87473 6.5,1.11719 3.99538,0.44032 6.03005,0.74116 14.5,2.14062 2.475,0.40893 5.625,0.86711 7,1.01758 1.375,0.15048 3.4,0.45218 4.5,0.67188 1.1,0.21965 4.25,0.75053 7,1.17968 2.75,0.42914 5.675,0.89371 6.5,1.03321 4.41954,0.74732 9.84813,1.59988 12.5,1.96093 1.65,0.22464 5.21518,0.84102 7.92188,1.3711 2.70668,0.53011 5.5239,0.73234 6.26171,0.44922 0.7378,-0.28313 1.95547,-0.005 2.70508,0.61718 0.74961,0.62212 3.33044,1.331 5.73633,1.57618 2.40589,0.24513 7.75,0.94555 11.875,1.55664 4.125,0.61109 9.975,1.25185 13,1.42382 6.51763,0.37052 10.90357,1.1115 21,3.54688 4.125,0.995 12.225,2.33811 18,2.98437 5.775,0.64626 12.7373,1.74769 15.4727,2.44727 5.206,1.33147 13.2403,1.25922 14.5937,-0.13086 0.4349,-0.44668 0.9345,-1.47047 1.1113,-2.27539 0.2554,-1.16307 -1.012,-1.47694 -6.1777,-1.52344 -6.3579,-0.0572 -13,-1.9036 -13,-3.61523 0,-2.01253 25.29,-4.85642 26.4531,-2.97461 0.437,0.70719 1.1866,0.82751 1.8867,0.30078 2.2976,-1.72865 9.2874,-3.0993 15.9454,-3.125 3.7323,-0.0144 7.2001,-0.28171 7.705,-0.59375 0.5049,-0.31204 3.0751,-0.7386 5.7129,-0.94922 2.6379,-0.21062 7.4404,-0.85752 10.6719,-1.4375 3.8263,-0.68672 6.5076,-0.71823 7.6855,-0.0879 2.7704,1.48266 21.8246,1.15213 32.4922,-0.56445 5.2417,-0.84344 9.9665,-1.2633 10.5,-0.9336 1.2973,0.80175 7.2222,-5.20459 6.6953,-6.78711 -0.2281,-0.68485 -1.2755,-1.40533 -2.33,-1.59961 -1.0544,-0.19428 -2.593,-0.94841 -3.418,-1.67578 -1.3894,-1.22498 -9.3139,-1.22263 -12.7188,0.004 -0.6693,0.24123 -1.4488,0.0625 -1.7324,-0.39649 -0.5604,-0.90661 3.3632,-1.9183 10.4512,-2.69531 2.9122,-0.31924 4.9832,-1.17907 5.8711,-2.4375 0.9566,-1.3559 2.5459,-1.94531 5.25,-1.94531 3.6922,0 5.0362,-1.1667 2.8789,-2.5 -2.3568,-1.4566 -0.572,-2.13482 5.6992,-2.16602 4.1332,-0.0206 6.8475,-0.47414 7.084,-1.18359 0.2109,-0.63252 1.8417,-1.15039 3.625,-1.15039 3.7624,0 7.9748,-3.78233 7.416,-6.66016 -0.2915,-1.50098 -1.3037,-1.83984 -5.5019,-1.83984 -2.8294,0 -5.4847,-0.3375 -5.9004,-0.75 -0.4156,-0.4125 -2.6759,-0.75 -5.0235,-0.75 -2.3475,0 -5.3933,-0.42677 -6.7675,-0.94922 -1.6916,-0.64315 -2.6145,-0.60221 -2.8575,0.12695 -0.4729,1.41873 -11.7734,2.23791 -11.7734,0.85352 0,-0.56759 0.5625,-1.04661 1.25,-1.06641 0.6875,-0.0198 2.6,-1.1436 4.25,-2.49609 l 3,-2.45898 -2.5508,-0.004 c -1.4025,-0.003 -3.09,0.53336 -3.75,1.19336 -0.9333,0.93333 -1.1992,0.93333 -1.1992,0 0,-0.66 -0.7132,-1.19922 -1.584,-1.19922 -0.8709,0 -1.3991,-0.5625 -1.1758,-1.25 0.2445,-0.75269 5.2817,-2.0457 12.6621,-3.25 6.7412,-1.1 12.2028,-2.45 12.1368,-3 -0.066,-0.55 -1.1152,-0.89673 -2.3301,-0.76953 -1.215,0.12721 -4.234,0.40958 -6.709,0.62695 -2.475,0.21736 -6.6375,0.7366 -9.25,1.1543 -7.2615,1.16098 -5.8058,-0.97057 1.5938,-2.33399 3.4882,-0.6428 10.576,-1.42578 15.75,-1.74023 5.1738,-0.31446 11.9556,-1.00483 15.0703,-1.5332 3.1148,-0.52836 8.1605,-0.879 11.2129,-0.7793 6.2129,0.20302 8.623,-1.12491 8.623,-4.74805 0,-2.82357 0.2451,-2.79477 -6.7148,-0.77148 -4.3125,1.25369 -5.9946,1.35377 -7.6739,0.45508 -1.6691,-0.89331 -4.1596,-0.77496 -11.1308,0.5332 -10.2441,1.92233 -20.4805,2.56005 -20.4805,1.27539 0,-0.47818 0.5625,-0.90321 1.25,-0.94531 0.6875,-0.0421 2.15,-0.26857 3.25,-0.50195 1.1,-0.23343 4.025,-0.7221 6.5,-1.08594 2.475,-0.36384 5.85,-1.24484 7.5,-1.95899 l 3,-1.29883 -4.5,-0.0137 c -2.475,-0.008 -6.3,0.38345 -8.5,0.8711 -2.2,0.48766 -6.9891,1.14632 -10.6426,1.46484 -3.6536,0.31853 -7.3661,0.85805 -8.25,1.19727 -0.884,0.33921 -2.3949,0.29549 -3.3574,-0.0977 -2.5354,-1.03513 4.6384,-3.4365 12.25,-4.09961 15.0356,-1.30989 25.6908,-3.26419 27.6973,-5.08008 0.9913,-0.89708 1.8027,-1.34663 1.8027,-1 0,0.34663 1.0367,0.23601 2.3047,-0.24609 1.268,-0.4821 4.1616,-0.53779 6.4297,-0.12305 4.9679,0.90846 6.5528,0.1131 6.1035,-3.06445 -0.3152,-2.22945 -0.7909,-2.39984 -7.207,-2.57617 -3.7781,-0.10382 -7.4382,-0.40527 -8.1329,-0.67188 -0.6948,-0.26661 -3.0243,0.12137 -5.1777,0.86328 -2.2818,0.78615 -10.3936,1.56481 -19.4414,1.86524 -8.5387,0.28353 -15.9413,0.5938 -16.4512,0.6914 -2.1755,0.41646 -2.1643,-0.35871 0.076,-5.875 1.2997,-3.19859 2.6292,-8.88496 2.9551,-12.63671 0.3259,-3.75176 0.8141,-7.17859 1.084,-7.61524 0.2698,-0.43665 0.04,-1.07139 -0.5118,-1.41211 -1.2028,-0.74351 -0.8571,-3.80236 0.6426,-5.67187 3.1167,-3.88516 2.6296,-10.39636 -0.6992,-9.33985 -1.6547,0.52519 -1.8029,0.16528 -1.3125,-3.20703 0.3089,-2.12445 1.4974,-4.59516 2.6953,-5.60351 1.1785,-0.99201 2.9301,-2.45013 3.8926,-3.24024 0.986,-0.80941 1.75,-2.80006 1.75,-4.55859 0,-3.02756 -0.1059,-3.10219 -3.5137,-2.46289 -2.6767,0.50217 -3.6529,0.29065 -4.1054,-0.88867 -0.7139,-1.86017 -6.4265,-2.10284 -8.1817,-0.34766 -0.66,0.66 -1.1992,2.88598 -1.1992,4.94531 0,2.44887 -0.7837,4.65617 -2.2656,6.37891 l -2.2656,2.63281 -2.502,-1.9668 c -5.0067,-3.9383 -14.3413,-6.84011 -18.1328,-5.63672 -1.5844,0.5029 -1.8927,1.37569 -1.6426,4.65235 0.2152,2.81886 -0.143,4.25964 -1.1914,4.78515 -6.075,3.04505 -11.4182,4.94664 -15.6055,5.55469 -2.6915,0.39086 -5.6587,1.10656 -6.5918,1.58985 -1.9067,0.98765 -10.6032,1.69768 -28.3027,2.3125 -21.6799,0.7531 -37.62508,2.71519 -49.5,6.08984 -3.025,0.85966 -8.4595,2.4403 -12.07617,3.51367 -6.24101,1.85224 -17.8146,7.23396 -29.92383,13.91406 -7.78921,4.29695 -11.87347,4.07315 -22.125,-1.21484 -8.83875,-4.55925 -11.67501,-7.86009 -12.03516,-14.00977 -0.10438,-1.78245 -0.84278,-4.01261 -1.64062,-4.95703 -0.85346,-1.00996 -1.20202,-2.65727 -0.84961,-4 0.79199,-3.01762 -2.96976,-14.1931 -6.57422,-19.53125 -1.57787,-2.33679 -4.27111,-4.97341 -5.98437,-5.85937 -2.66097,-1.37604 -6.61584,-2.13359 -10.38868,-2.18946 z m -422.03711,4.14258 c 0.091,0.0138 0.19866,0.16765 0.31836,0.4668 0.28891,0.72187 0.25237,1.58373 -0.0801,1.91602 -0.33229,0.33229 -0.56878,-0.25834 -0.5254,-1.3125 0.03,-0.7281 0.13554,-1.09327 0.28711,-1.07032 z m 27.82032,0.16602 c 1.11946,0.41933 1.05053,25.56816 -0.14649,27.46094 -0.94956,1.50151 -1.11758,1.26127 -2.60351,-3.72266 -0.77118,-2.58658 -2.32621,-1.10998 -2.625,2.49219 -0.21691,2.61495 -0.83753,3.84048 -2.06055,4.07226 -2.39634,0.45413 -2.25073,-2.3026 0.3125,-5.90234 1.13478,-1.59365 1.76537,-3.38212 1.40039,-3.97266 -0.40077,-0.64846 0.07,-0.94724 1.1875,-0.75586 1.64726,0.2821 1.9391,-0.7263 2.67188,-9.18359 0.45271,-5.225 1.24021,-9.92672 1.75,-10.44922 0.0386,-0.0395 0.0772,-0.0526 0.11328,-0.0391 z m -3.45117,4.88867 c 0.2008,0.2008 -0.13716,3.25469 -0.75196,6.78516 -0.75813,4.35348 -1.72516,6.79712 -3.0039,7.5957 -2.54496,1.58936 -3.24187,0.0845 -1.58008,-3.41016 0.75099,-1.5793 2.17628,-4.77585 3.16797,-7.10351 0.99169,-2.32766 1.96716,-4.06799 2.16797,-3.86719 z M 479.56641,445 c 1.19417,0 1.06797,2.38173 -0.31836,6 -0.84169,2.1968 -0.98471,2.80666 -1.12305,4.80859 -0.1593,2.3052 -2.4708,5.51164 -3.34375,4.63868 -0.36504,-0.36503 -0.27962,-1.40149 0.18945,-2.30469 0.46907,-0.90321 1.41516,-4.23008 2.10157,-7.39258 0.70707,-3.25775 1.78782,-5.75 2.49414,-5.75 z m 391.36523,2 c 0.92733,0 1.32433,0.99351 2.49414,6.25 0.3366,1.5125 1.16673,2.75286 1.84375,2.75586 0.67702,0.003 2.52863,0.68427 4.11524,1.51172 2.16158,1.1273 3.22287,1.22195 4.23632,0.38086 0.74388,-0.61739 2.03323,-0.86029 2.86524,-0.54102 1.57017,0.60253 2.07516,3.20955 0.76367,3.94531 -4.74459,2.66177 -11.66386,0.58529 -14.8457,-4.45507 C 870.03138,453.08871 869.12029,447 870.93164,447 Z m 10.00586,0.0508 c 1.34452,0.0936 5.0625,2.18049 5.0625,3.01172 0,0.39822 -0.66272,0.97825 -1.47266,1.28906 -1.42534,0.54695 -4.99912,-3.21181 -4.00195,-4.20898 0.0774,-0.0774 0.22004,-0.10516 0.41211,-0.0918 z m -408.42188,4.33789 c 0.48015,-0.0306 0.66196,0.70472 0.13868,2.06836 -0.32568,0.84872 -1.0716,1.54297 -1.65821,1.54297 -0.7396,0 -0.725,-0.63975 0.0488,-2.08594 0.54307,-1.01473 1.09726,-1.50157 1.4707,-1.52539 z M 449,455 c 0.55,0 1,0.42387 1,0.94141 0,0.51754 -0.45,1.21867 -1,1.55859 -0.55,0.33992 -1,-0.084 -1,-0.94141 C 448,455.70113 448.45,455 449,455 Z m 138.29492,0 c -1.55409,0 -1.89666,0.85192 -2.72265,6.75 -0.36299,2.59192 -0.20106,4.25 0.41601,4.25 0.5565,0 1.01172,-0.87387 1.01172,-1.94141 0,-1.06754 0.39819,-2.18756 0.88477,-2.48828 1.56819,-0.9692 1.91776,-6.57031 0.41015,-6.57031 z m 269.25586,1.00586 c 4.23393,0.008 10.02861,1.78352 11.46289,3.51172 1.03076,1.24199 0.84644,1.46561 -1.14062,1.38281 -3.14378,-0.13101 -10.99548,-2.62243 -12.26563,-3.89258 -0.67713,-0.67713 -0.0386,-1.00595 1.94336,-1.00195 z m 256.03322,3.14258 c 0.074,-0.009 0.1385,-0.005 0.1933,0.01 0.1464,0.04 0.2227,0.16418 0.2227,0.37696 0,0.75074 -0.6034,1.72618 -1.3418,2.16601 -0.7384,0.43983 -2.1531,2.05501 -3.1426,3.58985 -2.258,3.50244 -5.1166,5.16153 -6.1133,3.54882 -0.4128,-0.66794 0.3078,-1.98014 1.6895,-3.07812 1.325,-1.05297 3.8707,-3.19093 5.6582,-4.75195 1.3299,-1.16138 2.3146,-1.80031 2.834,-1.86133 z M 1097.8828,460 c 0.55,0 1.2773,0.45 1.6172,1 0.3399,0.55 0.1672,1 -0.3828,1 -0.55,0 -1.2773,-0.45 -1.6172,-1 -0.3399,-0.55 -0.1672,-1 0.3828,-1 z m -8.5019,0.97852 c 2.775,0.12094 2.3289,2.11573 -0.8457,6.27343 -1.8881,2.47265 -4.019,4.71796 -4.7344,4.99024 -2.2216,0.84554 -5.8008,-1.06961 -5.8008,-3.10352 0,-1.05888 -0.675,-2.18341 -1.5,-2.5 -2.769,-1.06255 -1.5389,-2.18499 4.2988,-3.91797 4.0909,-1.2144 6.917,-1.81475 8.5821,-1.74218 z m -529.11332,0.62304 c -0.88023,0.0874 -1.53529,1.25893 -0.93164,2.83203 0.33077,0.86197 0.99119,1.56641 1.46679,1.56641 1.68736,0 2.11356,-1.28897 1.07032,-3.23828 -0.46787,-0.87422 -1.07734,-1.21259 -1.60547,-1.16016 z m -89.65625,2.74219 c 0.11953,0.0201 0.25117,0.0713 0.38867,0.15625 0.55,0.33992 1,0.81605 1,1.05859 0,0.24254 -0.45,0.44141 -1,0.44141 -0.55,0 -1,-0.47613 -1,-1.05859 0,-0.43685 0.25273,-0.65795 0.61133,-0.59766 z M 476,466 c 0.55,0 0.9928,0.3375 0.98438,0.75 -0.008,0.4125 -0.45122,1.425 -0.98438,2.25 -0.78387,1.21296 -0.97192,1.06944 -0.98438,-0.75 C 475.0072,467.0125 475.45,466 476,466 Z m -10.37305,1.38281 c 0.14489,0.0165 0.2928,0.0683 0.44141,0.16016 0.51199,0.31643 0.93164,1.22308 0.93164,2.01562 0,1.65007 -1.58044,1.92928 -2.5,0.44141 -0.71357,-1.15458 0.11277,-2.73297 1.12695,-2.61719 z m 600.01755,0.63086 c 3.2338,0.0238 6.3557,1.17999 6.3555,2.35352 -2e-4,1.38769 -12.5233,7.26571 -17.4473,8.18945 -1.9667,0.36896 -3.8216,1.06899 -4.123,1.55664 -0.6298,1.01908 -2.4297,1.20116 -2.4297,0.2461 0,-0.35188 0.7875,-1.25151 1.75,-2 1.6431,-1.27777 1.6052,-1.48222 -0.6113,-3.35938 -1.9782,-1.67534 -3.9633,-2.02549 -12.25,-2.16016 -15.7194,-0.25547 -18.0769,-0.19758 -23.6387,0.57813 -3.368,0.46974 -5.25,0.36642 -5.25,-0.28516 0,-2.45209 2.7944,-2.82078 27.75,-3.66601 13.7619,-0.4661 14.25,-0.41357 14.25,1.52539 0,2.73454 2.6869,2.58451 8.8125,-0.49219 2.7375,-1.375 5.8119,-2.49433 6.832,-2.48633 z m 26.9453,3.99219 c 0.5992,-0.004 1.6345,1.18987 2.3008,2.65234 1.1473,2.51805 0.9355,2.90244 -3.9922,7.25 -2.862,2.52503 -6.1471,5.13863 -7.3007,5.80664 -4.112,2.38117 -5.1805,1.11808 -2.7207,-3.21484 0.3122,-0.55 0.6497,-1.55078 0.7519,-2.22461 0.469,-3.08906 8.1144,-10.25233 10.9609,-10.26953 z m -91.6171,0.44726 c 0.6809,0.0333 1.0794,0.19862 1.3515,0.47071 1.0509,1.05093 -2.891,3.04612 -6.13865,3.10742 -0.92669,0.0175 -2.55934,0.6925 -3.62696,1.5 -1.06762,0.80751 -2.19262,1.41732 -2.5,1.35352 -6.30534,-1.30876 -7.1041,-2.5286 -2.43164,-3.71094 6.97784,-1.76571 10.59568,-2.58185 12.56445,-2.70899 0.2953,-0.0191 0.5543,-0.0228 0.7813,-0.0117 z M 1116.0977,473 c 0.7785,0 0.8285,0.40208 0.1582,1.25 -0.5435,0.6875 -1.2883,4.31877 -1.6563,8.06836 -0.368,3.74959 -1.3727,8.92459 -2.2324,11.5 -1.3974,4.18612 -3.1864,7.34179 -3.4746,6.13086 -0.059,-0.2475 -0.2365,-3.08555 -0.3946,-6.30664 -0.2401,-4.89139 0.268,-7.07495 3.0821,-13.25 1.8531,-4.06641 3.8864,-7.39258 4.5176,-7.39258 z M 1028,474.55664 c 2.3914,-0.13581 7,1.55149 7,2.5625 0,0.50799 -1.2375,1.41545 -2.75,2.01758 -1.5125,0.60214 -4.5382,1.97343 -6.7227,3.04687 -2.1845,1.07345 -6.0095,2.36156 -8.5,2.86133 -2.4905,0.49977 -8.7222,1.79104 -13.8496,2.86914 -5.12713,1.0781 -11.08982,2.87993 -13.24997,4.00586 -2.16015,1.12588 -3.92773,1.62143 -3.92773,1.09961 0,-0.52182 0.86581,-1.41227 1.92383,-1.97851 1.05803,-0.56623 3.13567,-3.50705 4.61719,-6.53516 1.48152,-3.02811 2.97821,-5.53993 3.32617,-5.58203 0.34796,-0.0421 1.30781,-0.2334 2.13281,-0.42578 7.2807,-1.69773 20.0503,-3.37633 30,-3.94141 z m -536.78711,0.44727 c 1.11395,0.0682 1.4166,2.49145 0.54883,6.24609 -1.07692,4.65955 -2.34687,5.9957 -3.31055,3.48438 -0.76736,-1.99973 0.11623,-7.70217 1.39063,-8.97657 0.5385,-0.5385 0.99978,-0.77664 1.37109,-0.7539 z m -10.00977,2.41797 c 1.03137,-0.17532 2.40177,2.802 2.95313,6.55468 0.18892,1.28581 -0.18762,2.52015 -0.83789,2.74219 -2.49179,0.85087 -4.65835,-7.7733 -2.31641,-9.2207 0.0654,-0.0404 0.13245,-0.0645 0.20117,-0.0762 z m -24.56835,1.91601 c 0.22236,0.0463 0.36523,0.23555 0.36523,0.54492 0,0.55 -0.45,1.27727 -1,1.61719 -0.55,0.33992 -1,0.16719 -1,-0.38281 0,-0.55 0.45,-1.27727 1,-1.61719 0.1375,-0.085 0.26914,-0.13706 0.38867,-0.16016 0.0897,-0.0173 0.17197,-0.017 0.2461,-0.002 z M 476,480 c 0.55,0 1,0.64887 1,1.44141 0,0.79254 -0.45,1.71867 -1,2.05859 -0.55,0.33992 -1,-0.30895 -1,-1.44141 C 475,480.92613 475.45,480 476,480 Z m 507.62695,0.32422 c 0.33567,-0.008 0.65461,-0.008 0.95703,0.002 1.61292,0.0517 2.7391,0.35795 3.22657,0.94531 1.74494,2.10253 0.66011,4.09956 -4.58594,8.43164 -9.13495,7.5435 -18.26782,12.21472 -22.73633,11.63086 -3.40591,-0.44502 -6.07652,0.90449 -5.05664,2.55469 0.41452,0.67071 3.96635,1.11133 8.95508,1.11133 7.60445,0 8.6538,0.25284 13.03125,3.15234 5.90149,3.90899 7.2273,6.65757 4.39258,9.09766 -1.11817,0.9625 -2.6992,1.75 -3.51563,1.75 -0.81642,0 -3.93203,1.34157 -6.92187,2.98242 -4.16768,2.28725 -7.58658,3.22304 -14.6543,4.00586 -18.93074,2.09677 -18.00079,2.10875 -21.10742,-0.27344 -5.70347,-4.37346 -20.45819,-19.5205 -22.08985,-22.67578 -2.0826,-4.0273 -1.72789,-4.93023 3.31055,-8.42187 4.0247,-2.78912 4.10029,-2.8017 8.86328,-1.27539 2.64235,0.84675 6.15469,1.37303 7.80469,1.16797 9.22086,-1.146 12.23302,-1.81489 14.37695,-3.19336 1.30729,-0.84056 3.55729,-1.89727 5,-2.34766 1.4427,-0.45039 5.09805,-1.78246 8.12305,-2.95898 8.92781,-3.47232 17.59189,-5.56518 22.62695,-5.68555 z m 116.11715,0.39062 c 0.6741,-0.0274 1.315,0.1102 2.0059,0.3711 1.2375,0.46729 2.25,1.07974 2.25,1.36133 0,1.77998 -4.0219,10.05977 -7.6523,15.7539 -4.547,7.13196 -5.2027,7.50968 -16.3477,9.40235 -5.8881,0.99993 -11.0786,1.0781 -11.6367,0.17578 -0.8763,-1.41698 2.6994,-6.72591 6.3847,-9.47852 2.0631,-1.54093 3.9047,-3.14819 4.0918,-3.57226 0.1872,-0.42407 1.7622,-1.50219 3.5,-2.39649 1.7379,-0.89431 5.4102,-3.52453 8.1602,-5.84375 4.8978,-4.13056 7.222,-5.69134 9.2441,-5.77344 z M 469.60742,482 c 0.21615,0 0.39258,0.675 0.39258,1.5 0,0.825 -0.43601,1.5 -0.96875,1.5 -0.53273,0 -0.70916,-0.675 -0.39258,-1.5 0.31659,-0.825 0.75259,-1.5 0.96875,-1.5 z m 606.40428,0.043 c 0.2465,0.0132 0.4436,0.0783 0.5723,0.20703 0.2856,0.28557 -0.5175,1.64907 -1.7832,3.0293 -2.2585,2.46282 -8.1305,5.05699 -9.1465,4.04101 -0.7605,-0.76049 0.4049,-3.32031 1.5117,-3.32031 0.5236,0 0.6739,0.45 0.334,1 -0.3399,0.55 -0.099,1 0.5352,1 0.634,0 1.3785,-0.863 1.6543,-1.91797 0.4289,-1.64003 4.597,-4.13145 6.3222,-4.03906 z m -173.18162,3.25 c 0.47839,-0.0155 0.96342,-0.0136 1.44922,0.008 1.29546,0.055 2.5909,0.24354 3.74023,0.58789 5.28286,1.58279 6.10995,3.74334 2.5918,6.76953 -1.49778,1.28833 -3.26114,2.33989 -3.91797,2.33789 -1.94116,-0.007 -10.19336,-5.86556 -10.19336,-7.23632 0,-1.39439 2.98137,-2.35832 6.33008,-2.4668 z M 493,488 c 0.55,0 1,1.125 1,2.5 0,2.61806 -0.23164,2.93632 -1.33398,1.83398 C 491.62865,491.29661 491.88283,488 493,488 Z m 552.0508,0.28906 c 4.27,0.0438 3.1336,2.59415 -3.9824,6.17774 -6.88,3.4647 -8.8712,5.53425 -5.3184,5.53125 2.0785,-0.002 5.7825,-2.01025 14.1836,-7.69141 3.4102,-2.30613 6.837,-3.949 7.6152,-3.65039 1.994,0.76518 0.7265,2.71851 -6.4609,9.96094 -7.1254,7.18001 -9.5578,8.03318 -25.3984,8.90039 -5.9457,0.32551 -11.3457,0.77015 -12,0.98828 -0.6543,0.21812 -3.4395,0.62364 -6.1895,0.90234 -2.75,0.2787 -7.25,0.96504 -10,1.52539 -2.75,0.56035 -6.0125,1.3082 -7.25,1.66016 -1.54773,0.4402 -2.25125,0.21352 -2.25195,-0.72656 -5.6e-4,-0.75165 -2.1547,-2.5771 -4.78907,-4.05664 -2.63438,-1.47955 -5.62177,-3.60898 -6.63671,-4.73047 -2.19277,-2.42299 -2.32834,-2.35218 8.92773,-4.57031 4.4,-0.86707 9.35,-1.98816 11,-2.49024 1.65,-0.50207 5.7,-1.14386 9,-1.42578 3.3,-0.28192 10.275,-1.19905 15.5,-2.03906 9.8907,-1.59011 10.6191,-1.72845 18,-3.41992 2.6039,-0.59674 4.6274,-0.86031 6.0508,-0.84571 z m -37.502,2.19336 c 0.7016,-0.003 1.4512,0.4165 1.4512,1.07617 0,0.24254 -0.7012,0.44141 -1.5586,0.44141 -0.8579,0 -1.2771,-0.45669 -0.9316,-1.01562 0.214,-0.34635 0.6181,-0.50027 1.039,-0.50196 z M 1002.5,491 c 0.825,0 1.5,0.45 1.5,1 0,0.55 -0.675,1 -1.5,1 -0.825,0 -1.5,-0.45 -1.5,-1 0,-0.55 0.675,-1 1.5,-1 z m -532.08789,1 c 0.77633,0 1.299,0.76263 1.16211,1.69531 C 471.20838,496.18794 469,496.52153 469,494.08398 469,492.93815 469.63577,492 470.41211,492 Z m 6.95312,0.3457 c 0.091,0.0138 0.19866,0.16765 0.31836,0.4668 0.28891,0.72187 0.25237,1.58373 -0.0801,1.91602 -0.33229,0.33229 -0.56878,-0.25834 -0.5254,-1.3125 0.03,-0.7281 0.13554,-1.09327 0.28711,-1.07032 z m 589.76367,0.97852 c 0.8092,0.25867 -4.302,7.6181 -7.2734,10.31055 -1.2959,1.17429 -3.4805,2.43545 -4.8555,2.80273 l -2.5,0.66797 2.1309,-1.80274 c 1.1723,-0.99157 2.9723,-2.31254 4,-2.93554 2.4807,-1.5038 1.1131,-2.83544 -1.4844,-1.44531 -1.1479,0.61437 -2.2651,0.69588 -2.5781,0.18945 -0.6584,-1.06521 3.7109,-4.11133 5.8964,-4.11133 0.8444,0 1.5352,-0.39696 1.5352,-0.88281 0,-0.48585 0.7875,-1.16246 1.75,-1.50196 0.9625,-0.3395 2.374,-0.8986 3.1367,-1.24414 0.109,-0.0494 0.1883,-0.0641 0.2422,-0.0469 z m -581.86328,5.88476 c 0.19221,0.015 0.35136,0.074 0.4629,0.18555 0.30627,0.30627 -0.0133,1.24374 -0.70899,2.08203 -1.44913,1.74609 -2.6426,1.94256 -3.48828,0.57422 -0.56634,-0.91636 2.38905,-2.94664 3.73437,-2.8418 z m 567.31838,2.84571 c 0.2872,0.0173 0.416,0.28337 0.416,0.78515 0,0.46172 -1.2375,1.3966 -2.75,2.07813 l -2.75,1.24023 2.209,-2.08008 c 1.4804,-1.39361 2.3964,-2.05234 2.875,-2.02343 z m -504.834,1.02539 c 0.12038,0.0247 0.14581,0.55515 0.17969,1.61133 0.0387,1.20504 -0.37969,2.46867 -0.92969,2.80859 -1.18278,0.731 -1.18278,-0.24752 0,-3 0.4143,-0.96412 0.62962,-1.44465 0.75,-1.41992 z M 480.10742,504 c 0.60888,0 0.84784,0.675 0.53125,1.5 -0.31658,0.825 -0.14015,1.5 0.39258,1.5 0.53274,0 0.96875,0.45 0.96875,1 0,1.58195 -1.72307,1.16269 -2.39258,-0.58203 -0.89905,-2.34287 -0.74175,-3.41797 0.5,-3.41797 z m -21.30664,1 c 1.3756,0 3.19922,2.32534 3.19922,4.07812 0,1.92974 -2.36304,4.22486 -3.3418,3.2461 C 457.71812,511.38413 457.84247,505 458.80078,505 Z m 7.14063,0 c 0.58246,0 1.05859,0.45 1.05859,1 0,0.55 -0.19887,1 -0.44141,1 -0.24254,0 -0.71867,-0.45 -1.05859,-1 -0.33992,-0.55 -0.14105,-1 0.44141,-1 z m 80.66601,4 c 0.21615,0 0.39258,0.675 0.39258,1.5 0,0.825 -0.43601,1.5 -0.96875,1.5 -0.53273,0 -0.70916,-0.675 -0.39258,-1.5 0.31659,-0.825 0.75259,-1.5 0.96875,-1.5 z m 477.98438,1.90039 c 2.261,10e-4 4.5097,0.0697 6.7207,0.20899 5.9467,0.37461 11.0835,0.95266 11.416,1.28515 0.9839,0.98392 -0.3234,1.72232 -3.8847,2.19141 -1.8397,0.24227 -4.6794,0.66704 -6.3126,0.94531 -1.6329,0.27827 -7.2579,0.77909 -12.5,1.11328 -5.2421,0.33418 -10.2492,0.98108 -11.1269,1.43555 -0.8778,0.45447 -5.6028,1.31543 -10.5,1.91406 -4.89724,0.59863 -10.31164,1.46735 -12.03125,1.93164 -4.89431,1.32144 -6.13101,-0.29517 -2.1211,-2.77344 8.09656,-5.00394 24.51315,-8.26212 40.33985,-8.25195 z m -556.21289,0.48828 c 0.36444,0.0123 0.62109,0.40964 0.62109,1.05274 0,1.75653 -0.5998,2.01399 -1.45703,0.62695 -0.31644,-0.512 -0.1176,-1.21313 0.44141,-1.55859 0.13974,-0.0864 0.27305,-0.12519 0.39453,-0.1211 z M 526.83594,512 c -1.4539,0 0.19841,7.35073 1.96679,8.75 2.0665,1.63517 3.13336,1.57883 3.81641,-0.20117 C 533.20133,519.03166 528.44454,512 526.83594,512 Z m -48.26758,3.38086 c 0.75013,-0.073 1.03125,0.82104 1.03125,3.08984 0,1.94163 -0.0512,3.5293 -0.11328,3.5293 -0.0621,0 -1.40553,-1.35 -2.98633,-3 -2.13377,-2.22718 -2.46129,-3 -1.26953,-3 0.88292,0 2.2283,-0.23767 2.98828,-0.5293 0.12686,-0.0487 0.24245,-0.0794 0.34961,-0.0898 z m -24.65234,1.66016 c 0.65833,0.0615 1.49634,0.51392 2.42382,1.4414 0.81533,0.81532 1.24527,2.39032 0.95508,3.5 -0.7306,2.79381 -2.74283,2.52405 -4.14648,-0.55664 -1.25827,-2.7616 -0.68076,-4.52009 0.76758,-4.38476 z M 463,518 c 0.55,0 1,0.675 1,1.5 0,0.825 -0.45,1.5 -1,1.5 -0.55,0 -1,-0.675 -1,-1.5 0,-0.825 0.45,-1.5 1,-1.5 z m 82.09766,1 c 1.18444,0 1.13957,0.70188 -0.29883,4.67969 C 543.70287,526.71051 542,528.21208 542,526.14844 542,524.21802 544.26119,519 545.09766,519 Z m -237.07618,3.29688 c 0.47323,0.005 0.87991,0.20413 1.2754,0.5996 0.80482,0.80483 0.30367,1.09447 -1.84766,1.07227 -2.58611,-0.0267 -2.72215,-0.16269 -1.10352,-1.10352 0.66163,-0.38458 1.20256,-0.57323 1.67578,-0.56835 z m 200.63282,0.85546 c 0.48317,-0.0641 0.38356,1.10237 -0.28516,3.59766 -0.33163,1.2375 -0.97346,2.25 -1.42773,2.25 -1.07189,0 -0.29252,-4.04928 1.03515,-5.37695 0.29091,-0.29091 0.51668,-0.44935 0.67774,-0.47071 z m 609.3223,2.02344 h 0 c 0.9168,0.0182 0.8653,0.25856 0,0.81836 -1.8127,1.178 -4,1.30131 -4,0.22461 0,-0.43004 1.2375,-0.87571 2.75,-0.99023 0.5264,-0.0399 0.9405,-0.0588 1.2461,-0.0527 z M 438.05859,526 c 0.51754,0 0.94141,0.45 0.94141,1 0,0.55 -0.70113,1 -1.55859,1 -0.85748,0 -1.28133,-0.45 -0.94141,-1 0.33992,-0.55 1.04105,-1 1.55859,-1 z m 557.5,0 c 0.24254,0 0.44141,0.45 0.44141,1 0,0.55 -0.47613,1 -1.05859,1 -0.58246,0 -0.78133,-0.45 -0.44141,-1 0.33992,-0.55 0.81605,-1 1.05859,-1 z m -543.86914,1.14844 c 0.72458,-0.0428 2.70831,3.997 9.08399,16.96289 0.16519,0.33594 -0.79314,1.32662 -2.13086,2.20312 -2.24446,1.47063 -2.47355,1.46349 -2.95899,-0.10937 -0.28933,-0.93744 -1.49044,-4.27897 -2.66797,-7.42383 -1.21847,-3.25426 -2.00585,-7.34749 -1.82812,-9.5 0.10327,-1.25073 0.1726,-2.11337 0.50195,-2.13281 z m -37.31054,0.24023 c 0.36444,0.0123 0.62109,0.40964 0.62109,1.05274 0,1.75653 -0.5998,2.01399 -1.45703,0.62695 -0.31644,-0.512 -0.11758,-1.21313 0.44141,-1.55859 0.13974,-0.0864 0.27305,-0.12519 0.39453,-0.1211 z M 428.83203,528 c 0.52284,0 1.23303,1.125 1.57813,2.5 0.34511,1.375 1.06985,2.5 1.60937,2.5 0.53952,0 0.98047,0.3876 0.98047,0.86133 0,0.47372 -1.125,0.64566 -2.5,0.38281 -1.375,-0.26285 -2.5,-0.0292 -2.5,0.51758 0,1.59047 2.8062,3.47679 4.03906,2.71484 0.78906,-0.48765 1.01898,0.60891 0.76367,3.65625 -0.3797,4.53186 -1.08182,5.04648 -5.6582,4.15821 -2.23231,-0.4333 -2.3193,-0.74007 -1.67773,-5.875 0.45076,-3.60777 0.31944,-5.41602 -0.39453,-5.41602 -2.06235,0 -1.04898,-2.05877 1.48828,-3.02344 1.4081,-0.53536 2.28195,-1.42358 1.9414,-1.97461 C 428.16139,528.45092 428.3092,528 428.83203,528 Z m 561.72656,0 c 0.85748,0 1.28133,0.45 0.94141,1 -0.33992,0.55 -1.04105,1 -1.55859,1 C 989.42387,530 989,529.55 989,529 c 0,-0.55 0.70113,-1 1.55859,-1 z m -553.13281,1.11328 c 0.41016,0.0352 0.57422,0.38672 0.38672,0.94922 -0.24063,0.72187 -1.02813,1.50937 -1.75,1.75 -0.75,0.25 -1.125,-0.125 -0.875,-0.875 0.24063,-0.72187 1.02812,-1.50937 1.75,-1.75 0.1875,-0.0625 0.35156,-0.0859 0.48828,-0.0742 z m 547.00781,0.0117 c 1.5651,0.0122 2.56641,0.0974 2.56641,0.27734 0,0.93098 -4.91568,2.67168 -9,3.1875 -1.925,0.24312 -6.12316,1.10974 -9.33008,1.92578 -6.7585,1.71979 -10.30414,1.88293 -11.15039,0.51368 -0.60829,-0.98424 4.5917,-3.55362 9.36328,-4.62696 3.08034,-0.69289 12.8555,-1.3139 17.55078,-1.27734 z m 132.27731,0.63867 c 1.3654,0.0426 1.9025,0.47693 2.0977,1.48633 0.2294,1.186 -0.3293,1.7903 -1.7344,1.875 -6.2746,0.37829 -8.3757,0.30647 -9.3867,-0.31836 -1.393,-0.86092 2.65,-2.48773 7.3633,-2.96289 0.6573,-0.0663 1.205,-0.0943 1.6601,-0.0801 z m 19.5332,1.63672 c -1.8602,-0.0733 -4.2656,0.28705 -4.9511,0.97266 -0.3446,0.34458 1.2754,0.62695 3.5996,0.62695 2.4913,0 3.9784,-0.39956 3.623,-0.97461 -0.2349,-0.38014 -1.1553,-0.58104 -2.2715,-0.625 z m -642.77926,0.12695 c 0.33051,-0.002 0.60685,0.18965 0.75782,0.64258 0.22993,0.6897 0.22008,2.29735 -0.0234,3.57227 -0.48758,2.5506 -3.71069,4.85688 -4.6543,3.33008 -0.31735,-0.51348 -0.11956,-1.21704 0.43946,-1.5625 0.55896,-0.34546 1.01562,-1.44708 1.01562,-2.44727 0,-1.76526 1.47332,-3.52794 2.46484,-3.53516 z M 1025.5,532 c 0.825,0 1.5,0.45 1.5,1 0,0.55 -0.675,1 -1.5,1 -0.825,0 -1.5,-0.45 -1.5,-1 0,-0.55 0.675,-1 1.5,-1 z m -519.81836,0.25195 c 1.32371,-0.0387 3.37181,1.85251 2.75195,2.85547 -0.29958,0.48472 -1.36461,1.31995 -2.36523,1.85547 -1.53235,0.82009 -1.81836,0.58065 -1.81836,-1.51367 0,-1.36759 0.41263,-2.74042 0.91797,-3.05274 0.14967,-0.0925 0.32457,-0.139 0.51367,-0.14453 z m 396.16797,0.0762 c 1.05256,-0.0404 1.82306,0.0125 2.00781,0.19727 0.26158,0.26153 0.28776,0.65427 0.0586,0.875 -0.81181,0.78194 -10.91602,1.3605 -10.91602,0.625 0,-0.63091 5.69194,-1.57613 8.84961,-1.69727 z M 436.94141,534 c 0.58246,0 1.05859,0.45 1.05859,1 0,0.55 -0.19887,1 -0.44141,1 -0.24254,0 -0.71867,-0.45 -1.05859,-1 -0.33992,-0.55 -0.14105,-1 0.44141,-1 z M 889,534 c 0.55,0 1,0.45 1,1 0,0.55 -0.45,1 -1,1 -0.55,0 -1,-0.45 -1,-1 0,-0.55 0.45,-1 1,-1 z m -442.17773,0.19141 c 0.37251,-0.0332 0.72643,0.0304 1.03125,0.21875 1.48503,0.9178 -0.0555,6.6178 -2.19336,8.11523 -1.15791,0.81102 -2.45519,1.47461 -2.88282,1.47461 -1.17457,0 -0.93087,-2.78745 0.31055,-3.55469 0.5982,-0.36953 0.86314,-1.52518 0.58984,-2.57031 -0.41086,-1.57112 1.53031,-3.53962 3.14454,-3.68359 z m 492.95898,1.02343 c 1.97531,0.0307 3.21875,0.19447 3.21875,0.52735 0,0.95413 -6.30347,2.04198 -16.5,2.8457 -2.75,0.21676 -6.06633,0.64421 -7.36914,0.95117 -1.30281,0.30695 -4.67781,0.78172 -7.5,1.05469 -2.82219,0.27296 -8.8412,1.14044 -13.37695,1.92773 -4.53575,0.7873 -11.51098,1.71055 -15.5,2.05079 -3.98902,0.34025 -7.47868,0.72924 -7.75391,0.86523 -0.27523,0.13598 -1.625,-0.0694 -3,-0.45703 -3.20004,-0.90219 -1.77559,-1.42232 8,-2.92383 4.125,-0.63358 9.67171,-1.58194 12.32617,-2.10547 2.65446,-0.52353 7.84658,-0.95117 11.53906,-0.95117 3.69249,0 9.17078,-0.63215 12.17383,-1.4043 5.30107,-1.36299 17.81625,-2.47282 23.74219,-2.38086 z m -625.66406,0.0293 c 2.29462,0.0338 3.80004,0.17065 3.61133,0.35938 -1.10807,1.10807 -6.57491,2.10864 -7.70508,1.41015 -0.68454,-0.42307 -2.09565,-0.54713 -3.13477,-0.27539 -1.03911,0.27173 -1.88867,0.0696 -1.88867,-0.44922 0,-0.51881 2.96743,-0.98797 6.59375,-1.04297 0.90658,-0.0137 1.75856,-0.0131 2.52344,-0.002 z m 737.28321,0.0859 c 0.3697,0.0525 0.5996,0.2149 0.5996,0.47265 0,0.5155 -2.8125,1.51394 -6.25,2.21875 -7.3808,1.5133 -30.75,2.2626 -30.75,0.98633 0,-0.48646 0.7875,-0.91206 1.75,-0.94726 9.5857,-0.35029 31.6109,-2.04102 33.2109,-2.54883 0.561,-0.17805 1.0698,-0.23418 1.4395,-0.18164 z m -587.66602,0.23633 c 0.57711,-0.004 1.38165,0.56341 2.71679,1.80078 1.50199,1.392 2.43742,3.00383 2.08008,3.58203 -0.87446,1.4149 -3.85144,1.33215 -5.33203,-0.14844 -1.40304,-1.40304 -1.49889,-2.77978 -0.32422,-4.63281 0.24773,-0.39078 0.5131,-0.5992 0.85938,-0.60156 z M 875.25,536.01562 c 3.69151,0.009 5.71644,0.35468 4.94531,0.84376 -1.92878,1.22329 -11.19531,1.354 -11.19531,0.1582 0,-0.58417 2.66482,-1.01092 6.25,-1.00196 z M 499.05859,537 c 1.13246,0 1.78133,0.45 1.44141,1 -0.33992,0.55 -1.26605,1 -2.05859,1 C 497.64887,539 497,538.55 497,538 c 0,-0.55 0.92613,-1 2.05859,-1 z M 330,537.12891 c 0.45312,0 0.90625,0.0703 1.25,0.20898 0.6875,0.27741 0.125,0.50391 -1.25,0.50391 -1.375,0 -1.9375,-0.2265 -1.25,-0.50391 0.34375,-0.1387 0.79688,-0.20898 1.25,-0.20898 z m 787.2246,0.76562 c 2.4001,0.007 2.8686,0.8354 -0.4746,1.54688 -4.6493,0.98941 -10.75,1.26762 -10.75,0.49023 0,-0.44366 0.7875,-0.81873 1.75,-0.83203 0.9625,-0.0133 3.8875,-0.41862 6.5,-0.90234 1.1596,-0.2147 2.1746,-0.30501 2.9746,-0.30274 z m -689.17187,0.35352 c -1.04396,-0.06 -1.17661,0.78519 -0.55859,2.73242 0.37189,1.17172 1.19901,1.95554 1.83984,1.74219 1.8694,-0.62238 1.91855,-3.41256 0.0723,-4.1211 -0.55638,-0.2135 -1.00553,-0.33353 -1.35352,-0.35351 z m 517.06836,0.13867 c 2.56677,-0.10423 4.64439,1.24818 3.36329,2.5293 -0.54972,0.5497 -3.02149,1.25087 -5.49219,1.55859 -2.47071,0.30772 -5.16719,0.76076 -5.99219,1.00586 -0.825,0.24509 -8.25,0.97496 -16.5,1.62305 -21.20936,1.66613 -20.29843,1.57699 -28,2.77148 -11.11013,1.72314 -12.65202,1.31391 -4.75,-1.26172 5.11336,-1.66668 12.87136,-2.81902 34.55859,-5.12695 13.23355,-1.40831 16.12884,-1.80186 21.69141,-2.96094 0.37833,-0.0788 0.75441,-0.12378 1.12109,-0.13867 z m 156.91011,1.29687 c 1.4451,10e-4 2.9688,0.36529 2.9688,0.9336 0,0.21085 -1.4625,0.37519 -3.25,0.36719 -2.2096,-0.0104 -2.8138,-0.29082 -1.8887,-0.87696 0.4654,-0.29486 1.3032,-0.42451 2.1699,-0.42383 z m -32.1152,1.43946 c 0.3474,0.0143 0.6464,0.10729 0.8125,0.27343 0.3323,0.33229 -0.2584,0.5688 -1.3125,0.5254 -1.165,-0.048 -1.4012,-0.28625 -0.6035,-0.60547 0.361,-0.14446 0.7561,-0.20767 1.1035,-0.19336 z m -107.62498,1.24218 c 1.99248,-0.0411 2.90768,0.14831 3.15039,0.54102 0.93207,1.50812 -21.22314,5.44461 -40.44141,7.18555 -6.875,0.62279 -13.21445,1.50884 -14.08789,1.96875 -0.87344,0.4599 -5.36248,1.31036 -9.97461,1.88867 -10.32391,1.29451 -10.07416,1.32075 -6.4375,-0.67383 1.65,-0.90496 5.925,-2.26181 9.5,-3.01367 8.25365,-1.73584 22.03975,-4.05702 24,-4.04102 0.825,0.007 6.9,-0.70771 13.5,-1.58789 11.16017,-1.48832 17.47021,-2.19907 20.79102,-2.26758 z m 137.94338,2.27735 c 0.6474,0.027 1.1487,0.16646 1.3222,0.44726 0.2795,0.45221 1.2411,0.54171 2.1387,0.19727 1.01,-0.3877 1.3847,-0.2244 0.9805,0.42969 -0.3592,0.58111 -2.3455,1.34696 -4.4141,1.70312 -2.0685,0.35616 -4.9559,0.88349 -6.416,1.17188 -1.4601,0.2884 -2.9488,0.049 -3.3086,-0.53321 -0.3936,-0.63691 0.3415,-1.05859 1.8457,-1.05859 1.375,0 2.7437,-0.39653 3.043,-0.88086 0.475,-0.76852 2.5093,-1.36876 4.1191,-1.4668 0.2415,-0.0147 0.4737,-0.018 0.6895,-0.01 z M 284,545.12891 c 0.45312,0 0.90625,0.0703 1.25,0.20898 0.6875,0.27741 0.125,0.50391 -1.25,0.50391 -1.375,0 -1.9375,-0.2265 -1.25,-0.50391 0.34375,-0.1387 0.79688,-0.20898 1.25,-0.20898 z m 692.67773,0.29492 c 0.3231,-0.006 0.54795,0.0104 0.66211,0.0469 0.9133,0.29162 2.41116,0.76947 3.32813,1.0625 3.04245,0.97226 -0.17092,2.59852 -5.80078,2.93555 -7.26979,0.4352 -21.01382,2.55296 -22.86719,3.52344 -0.825,0.432 -4.875,1.05685 -9,1.39062 -4.125,0.33377 -10.425,1.05709 -14,1.60547 -3.575,0.54838 -9.77261,1.42821 -13.77148,1.95703 -3.99886,0.52883 -7.71136,1.23547 -8.25,1.56836 -0.53863,0.3329 -0.97852,0.21054 -0.97852,-0.27148 0,-0.96711 8.51114,-3.79922 14,-4.65821 1.925,-0.30125 4.4,-0.73254 5.5,-0.95898 1.1,-0.22644 5.6,-0.92698 10,-1.55664 4.4,-0.62967 15.24064,-2.49125 24.08984,-4.13672 7.74305,-1.43979 14.82621,-2.46866 17.08789,-2.50781 z m -134.59179,0.59765 c 1.50299,0.0545 2.91406,0.40695 2.91406,1.00977 0,0.56722 -1.54608,0.92803 -3.43555,0.80078 -1.88946,-0.12725 -3.21332,-0.59127 -2.9414,-1.03125 0.36439,-0.58959 1.95989,-0.83383 3.46289,-0.7793 z m 291.17966,0.0293 c 0.7555,0 1.7561,0.31702 2.7344,0.94922 1.1689,0.75538 0.8929,0.97248 -1.25,0.98438 -1.5125,0.008 -2.75,-0.43438 -2.75,-0.98438 0,-0.6322 0.5102,-0.94922 1.2656,-0.94922 z M 1000.6172,547 c 0.825,0 1.2227,0.45 0.8828,1 -0.3399,0.55 -1.2922,1 -2.11719,1 -0.82497,0 -1.22273,-0.45 -0.88281,-1 0.33992,-0.55 1.29217,-1 2.1172,-1 z m 78.8242,0 c 1.4074,0 2.5586,0.17196 2.5586,0.38281 0,0.88773 -4.0463,1.35242 -4.5586,0.52344 -0.308,-0.49837 0.5925,-0.90625 2,-0.90625 z m -779.38281,1 c 1.13246,0 1.78133,0.45 1.44141,1 -0.33992,0.55 -1.26605,1 -2.05859,1 C 298.64887,550 298,549.55 298,549 c 0,-0.55 0.92613,-1 2.05859,-1 z m 820.50001,0 c 0.858,0 1.2813,0.45 0.9414,1 -0.3399,0.55 -1.0411,1 -1.5586,1 -0.5176,0 -0.9414,-0.45 -0.9414,-1 0,-0.55 0.7012,-1 1.5586,-1 z m -241.47462,0.50781 c 0.61645,-0.0563 1.19956,0.14067 1.44336,0.53516 0.32508,0.52598 -0.33629,0.95703 -1.46875,0.95703 -2.41457,0 -2.65695,-0.55638 -0.58984,-1.34961 0.20185,-0.0774 0.40975,-0.12381 0.61523,-0.14258 z m -587,0.49219 c 1.88619,0 2.93269,0.44805 2.69727,1.1543 -0.46043,1.38129 -4.33515,2.95976 -5.18359,2.11132 C 287.97954,550.64751 289.23413,549 292.08398,549 Z m 696.70704,0.56836 c 1.61818,-0.13002 1.63602,1.05326 -0.37305,1.82422 -2.09921,0.80555 -2.41797,0.77008 -2.41797,-0.27539 0,-0.48585 0.9,-1.11859 2,-1.40625 0.2952,-0.0772 0.55985,-0.12401 0.79102,-0.14258 z M 1132.125,550 c 2.3701,0 2.4923,1.8647 0.125,1.9082 -0.9625,0.0177 -3.2125,0.32184 -5,0.67578 -1.9088,0.37796 -3.25,0.23487 -3.25,-0.3457 0,-0.98403 4.5533,-2.23828 8.125,-2.23828 z m -276.23828,0.39648 c 1.50147,0.0217 3.11954,0.27581 3.58789,0.74414 0.33662,0.33664 0.0296,0.80129 -0.68164,1.03126 -1.85585,0.60004 -5.79297,-0.16504 -5.79297,-1.125 0,-0.4616 1.38525,-0.67206 2.88672,-0.6504 z M 968,552 c 0.55,0 1,0.45 1,1 0,0.55 -0.45,1 -1,1 -0.55,0 -1,-0.45 -1,-1 0,-0.55 0.45,-1 1,-1 z m -4.9375,1.2207 c 0.59235,0.002 0.9375,0.21581 0.9375,0.62696 0,2.13816 -2.98081,2.97895 -16.5,4.64843 -2.2,0.27168 -5.125,0.71832 -6.5,0.99414 -1.375,0.27583 -4.075,0.76862 -6,1.09375 -1.925,0.32514 -4.2875,0.80628 -5.25,1.07032 -0.9625,0.26403 -1.75,10e-4 -1.75,-0.58594 0,-0.58707 0.29277,-1.06836 0.65039,-1.06836 1.09662,0 16.60498,-3.02466 20.84961,-4.06641 2.2,-0.53994 5.35,-1.16461 7,-1.38867 1.65,-0.22407 4.0125,-0.71693 5.25,-1.09375 0.51325,-0.15628 0.95709,-0.2314 1.3125,-0.23047 z m 37.6934,0.23242 c 1.4795,0.0402 2.5531,0.2372 2.7832,0.60938 0.6643,1.07486 -0.4991,1.58568 -5.5391,2.42969 -1.925,0.32237 -4.175,0.74662 -5,0.94336 -1.61807,0.38585 -10.01334,1.2583 -19.26562,2.00195 -3.17071,0.25484 -6.11633,0.68117 -6.54688,0.94727 -0.43056,0.2661 -1.4237,0.0876 -2.20703,-0.39649 -1.22366,-0.75623 -1.21792,-0.94919 0.0469,-1.36914 3.66227,-1.21612 11.25381,-2.35797 12.86914,-1.93555 1.65262,0.43217 8.22137,-0.58828 14.10352,-2.1914 2.69617,-0.73482 6.28981,-1.10598 8.7559,-1.03907 z m -704.85551,0.93555 c 1.23887,0.0676 1.55031,0.49461 0.79883,1.2461 -1.03832,1.03831 -7.69922,1.4877 -7.69922,0.51953 0,-0.491 1.66365,-1.16217 3.69727,-1.49219 1.38275,-0.22439 2.4598,-0.31399 3.20312,-0.27344 z M 1064.0586,555 c 0.5825,0 0.7813,0.45 0.4414,1 -0.3399,0.55 -0.8161,1 -1.0586,1 -0.2426,0 -0.4414,-0.45 -0.4414,-1 0,-0.55 0.4762,-1 1.0586,-1 z m 55.6699,0.30469 c 0.2346,0.0435 0.2299,0.32191 0.059,0.84765 -0.5718,1.73457 -4.7871,2.395 -4.7871,0.75 0,-0.67993 0.2836,-0.95083 0.6309,-0.60351 0.3473,0.34732 1.5258,0.15242 2.6171,-0.43164 0.7751,-0.41444 1.2459,-0.60597 1.4805,-0.5625 z m -588.53905,0.36523 c -0.31353,0.003 -0.62741,0.18224 -0.92968,0.5586 -1.429,1.77926 1.73467,14.57451 3.74023,15.12695 3.28379,0.90453 20,0.60732 20,-0.35547 0,-0.56555 -3.14979,-1.04321 -7.25,-1.09961 -11.33465,-0.15584 -12.19393,-0.59022 -12.5625,-6.35937 -0.29504,-4.61812 -1.63939,-7.88527 -2.99805,-7.8711 z M 1056.0586,556 c 0.5176,0 0.9414,0.45 0.9414,1 0,0.55 -0.7012,1 -1.5586,1 -0.858,0 -1.2813,-0.45 -0.9414,-1 0.3399,-0.55 1.0411,-1 1.5586,-1 z m -52.5,1 c 0.2426,0 0.4414,0.45 0.4414,1 0,0.55 -0.4762,1 -1.0586,1 -0.5825,0 -0.7813,-0.45 -0.4414,-1 0.3399,-0.55 0.8161,-1 1.0586,-1 z m 43.668,0.0606 c 0.5076,0 0.7734,0.31299 0.7734,0.93945 0,0.55 -1.0125,0.99234 -2.25,0.98438 -1.8194,-0.0124 -1.963,-0.20051 -0.75,-0.98438 0.9694,-0.62646 1.7189,-0.93945 2.2266,-0.93945 z M 1104,557.29688 c 4.4,-0.0581 8,0.30158 8,0.79882 0,0.49723 -3.6,0.9043 -8,0.9043 -4.4,0 -8,-0.35966 -8,-0.79883 0,-0.43916 3.6,-0.84625 8,-0.90429 z M 1041.5586,558 c 0.2426,0 0.4414,0.45 0.4414,1 0,0.55 -0.4762,1 -1.0586,1 -0.5825,0 -0.7813,-0.45 -0.4414,-1 0.3399,-0.55 0.8161,-1 1.0586,-1 z M 858,558.21875 c 1.97745,-0.0562 3,0.40302 3,1.34766 0,1.43338 -0.96499,1.60261 -4.25,0.74414 -2.78733,-0.7284 -2.02835,-1.9986 1.25,-2.0918 z M 848,559 c 1.16492,0 1.83992,0.45 1.5,1 -0.33992,0.55 -1.01492,1 -1.5,1 -0.48508,0 -1.16008,-0.45 -1.5,-1 -0.33992,-0.55 0.33508,-1 1.5,-1 z m 186,0 c 0.55,0 1,0.45 1,1 0,0.55 -0.45,1 -1,1 -0.55,0 -1,-0.45 -1,-1 0,-0.55 0.45,-1 1,-1 z m 34.123,0.0391 c 0.577,0.0467 0.877,0.32784 0.877,0.84375 0,0.48589 -1.125,1.09848 -2.5,1.36133 -2.754,0.52646 -3.4273,-0.67381 -0.918,-1.63672 1.1104,-0.42611 1.9641,-0.61501 2.541,-0.56836 z m -107.41597,1.16602 c 1.17698,0.0394 0.87744,0.57584 0.0762,2.00586 -0.70548,1.25883 -1.7332,2.61935 -2.2832,3.02344 -1.59234,1.16984 -2.5,0.88839 -2.5,-0.77735 0,-0.84911 -0.5625,-1.47211 -1.25,-1.38281 -0.6875,0.0892 -2.12672,0.11022 -3.19922,0.0449 -3.56923,-0.21687 -0.1909,-1.85255 5.23242,-2.5332 1.98036,-0.24855 3.21764,-0.40452 3.92383,-0.38086 z m -694.6543,0.38281 c 0.0713,0.008 0.13699,0.0304 0.19532,0.0664 0.46662,0.28839 0.32179,1.1595 -0.32227,1.93554 -1.75433,2.1138 -3.12342,1.69884 -1.73437,-0.52539 0.58164,-0.93136 1.36246,-1.53367 1.86132,-1.47656 z m 790.38477,0.0566 c 1.6858,0.0709 1.6918,1.35553 -0.9434,2.35742 -1.4439,0.54897 -3.9088,0.99805 -5.4785,0.99805 -1.5698,0 -5.4786,0.64031 -8.6855,1.42383 -7.7228,1.88685 -21.7624,3.08386 -20.961,1.78711 0.6453,-1.04402 4.5977,-1.99929 11.1309,-2.69141 9.6398,-1.02121 20.2133,-2.64328 22.7285,-3.48633 0.8993,-0.30144 1.6471,-0.41229 2.209,-0.38867 z m -785.3125,0.21875 c 0.60268,6e-4 1.50673,0.47152 2.30078,1.25 1.89875,1.86153 1.89572,1.88672 -0.1914,1.88672 -2.37802,0 -3.91179,-1.75607 -2.59766,-2.97461 0.11864,-0.11001 0.28739,-0.16231 0.48828,-0.16211 z m 734.125,0.15234 c 3.1125,0.0112 3.8485,0.27447 2.75,0.98438 -1.9745,1.27601 -7,1.27601 -7,0 0,-0.55 1.9125,-0.99238 4.25,-0.98438 z m 19,0 c 2.4662,0.0116 2.8883,0.24878 1.75,0.98438 -1.9655,1.2702 -5,1.2702 -5,0 0,-0.55 1.4625,-0.99238 3.25,-0.98438 z m -41.79883,0.73633 C 983.94491,561.72778 985,561.90238 985,562.22266 985,562.6497 984.50143,563 983.89258,563 c -0.60888,0 -0.84784,0.675 -0.53125,1.5 0.78699,2.05086 -1.348,1.84958 -4.27735,-0.40234 l -2.41601,-1.85547 4.16601,-0.39844 c 0.57277,-0.0546 1.11928,-0.0837 1.61719,-0.0918 z M 968.55859,563 c 0.85748,0 1.28133,0.45 0.94141,1 -0.33992,0.55 -1.04105,1 -1.55859,1 C 967.42387,565 967,564.55 967,564 c 0,-0.55 0.70113,-1 1.55859,-1 z m 153.38281,1 c 0.5824,0 1.0586,0.45 1.0586,1 0,0.55 -0.1988,1 -0.4414,1 -0.2425,0 -0.7187,-0.45 -1.0586,-1 -0.3399,-0.55 -0.1411,-1 0.4414,-1 z m -52.9199,1.08398 c 2.4732,0.0823 4.2783,0.57293 5.0137,1.45899 2.016,2.42911 0.1463,3.24567 -8.8887,3.88086 -4.5946,0.32302 -8.6514,0.77019 -9.0137,0.99414 -0.3624,0.22395 -3.3535,0.65158 -6.6465,0.95117 -14.7286,1.33996 -23.1483,1.53861 -25.3808,0.59766 -3.4802,-1.46688 -2.3329,-1.92164 5.9785,-2.36719 9.3578,-0.50164 18.9665,-1.58626 20.916,-2.36133 0.825,-0.328 2.175,-0.72781 3,-0.88672 0.825,-0.1589 3.525,-0.73186 6,-1.27539 3.4071,-0.74822 6.5483,-1.07448 9.0215,-0.99219 z m -704.0508,0.74219 c 2.74249,-0.0337 4.08934,0.75452 8.07032,4.11133 3.51301,2.96221 5.39481,3.97606 5.89062,3.17383 1.13508,-1.83659 3.45967,-0.39636 5.51172,3.41406 1.87158,3.47533 3.85878,4.41471 5.09766,2.41016 0.43163,-0.6984 1.30433,-0.48106 2.53515,0.63281 2.13506,1.93221 1.67979,3.43164 -1.04101,3.43164 -1.01556,0 -3.57693,0.86288 -5.69141,1.91797 -8.55993,4.27127 -16.26433,5.65831 -36.84375,6.62891 -6.05,0.28533 -13.7,0.75703 -17,1.04882 -19.36942,1.71264 -66.23787,2.26873 -78.5,0.93164 -2.475,-0.26988 -12.15,-0.73432 -21.5,-1.03125 -9.35,-0.29694 -19.475,-0.78369 -22.5,-1.08203 -3.025,-0.29833 -10.675,-0.71572 -17,-0.92773 -6.325,-0.212 -14.425,-0.63082 -18,-0.93164 -3.575,-0.30082 -10.775,-0.80131 -16,-1.11133 -5.225,-0.31002 -10.85,-0.77673 -12.5,-1.03711 -1.65,-0.26039 -4.35,-0.6798 -6,-0.93164 -4.4175,-0.67427 -24.85873,-0.64647 -33.5,0.0449 -15.285115,1.22315 -17.62948,1.46552 -23.5,2.43555 -9.440389,1.5599 -12.118927,5.91241 -9.341797,15.18164 1.759799,5.87368 8.723804,10.5615 18.841797,12.68359 14.48551,3.0381 21.87603,4.42961 26,4.89649 2.475,0.28019 5.2088,0.88359 6.07617,1.33984 3.69994,1.94621 31.05564,3.37286 65.42383,3.41406 13.2,0.0158 24.56915,0.39715 25.26562,0.84766 2.31723,1.49887 0.35522,2.39674 -5.48632,2.50781 -3.17831,0.0604 -7.23554,0.54122 -9.01563,1.06836 -1.86881,0.55339 -3.46821,0.58317 -3.78515,0.0703 -0.30769,-0.49782 -1.52223,-0.52065 -2.76368,-0.0508 -1.21803,0.46111 -5.36484,1.14167 -9.21484,1.51172 -6.72903,0.64677 -35.24932,1.45866 -35.75391,1.01758 C 148.61123,633.32572 141.075,632.9848 132,632.6875 113.98868,632.09742 108.57972,631.28712 93.462891,626.9082 87.942391,625.30907 82.504239,624 81.378906,624 c -1.125333,0 -2.382422,-0.3375 -2.794922,-0.75 -0.4125,-0.4125 -1.051302,-0.77554 -1.417968,-0.80664 -4.805898,-0.40698 -8.221086,-2.28709 -12.371094,-6.8125 -2.587534,-2.82159 -4.72503,-5.99603 -4.75,-7.05274 -0.02497,-1.05668 -0.702861,-2.6459 -1.50586,-3.5332 -3.641472,-4.02378 -0.426051,-18.60568 4.957032,-22.48242 3.937599,-2.83575 8.998477,-4.40693 14.248047,-4.42383 2.334166,-0.008 4.701647,-0.29644 5.261718,-0.64258 1.820414,-1.12508 37.467541,-0.44314 48.994141,0.9375 9.60628,1.15063 15.34494,1.56307 21,1.50977 38.72906,-0.36484 114.37279,-0.42988 117.28906,-0.10156 4.9008,0.55175 4.27823,2.38431 -1.17578,3.46289 -3.5966,0.71126 -6.26998,2.92735 -4.98633,4.13281 0.51404,0.48273 14.1958,-2.53648 28.37305,-6.25977 3.84385,-1.00949 30.22454,-0.82356 37.75,0.26563 3.99871,0.57875 5.75,0.4999 5.75,-0.25977 0,-0.6008 -1.6875,-1.36808 -3.75,-1.70507 -8.02005,-1.31039 -9.24778,-1.67297 -8.69922,-2.56055 0.31226,-0.50525 2.50468,-0.91797 4.87305,-0.91797 2.66544,0 5.2152,-0.70559 6.6914,-1.85156 1.31167,-1.01825 3.50977,-2.11702 4.88477,-2.44141 1.375,-0.32439 5.56459,-1.29057 9.31055,-2.14648 3.74596,-0.85592 7.57585,-1.96504 8.50976,-2.46485 0.9339,-0.49981 3.57785,-1.04298 5.87696,-1.20898 0.46051,-0.0332 0.88165,-0.0557 1.27343,-0.0605 z M 952.55859,566 c 0.85748,0 1.28133,0.45 0.94141,1 -0.33992,0.55 -1.04105,1 -1.55859,1 C 951.42387,568 951,567.55 951,567 c 0,-0.55 0.70113,-1 1.55859,-1 z m 50.94141,0 c 0.825,0 1.5,0.17643 1.5,0.39258 0,0.21616 -0.675,0.65216 -1.5,0.96875 -0.825,0.31658 -1.5,0.14015 -1.5,-0.39258 0,-0.53274 0.675,-0.96875 1.5,-0.96875 z m -6.69922,0.5332 c 0.63399,-0.0773 1.21275,0.22466 1.25195,0.9668 0.029,0.55 -0.69783,1.15568 -1.61523,1.3457 -1.04271,0.21599 -1.49913,-0.15888 -1.21875,-1 0.25952,-0.77855 0.94805,-1.23522 1.58203,-1.3125 z M 1016.0586,567 c 1.0676,0 1.9414,0.45 1.9414,1 0,0.55 -1.1512,1 -2.5586,1 -1.4514,0 -2.2919,-0.43284 -1.9414,-1 0.3399,-0.55 1.4911,-1 2.5586,-1 z m -318.29493,0.15039 c 0.47844,5.7e-4 1.20696,0.39251 1.85547,1.04102 0.93519,0.93519 1.17437,1.81842 0.58984,2.17968 -1.17324,0.72509 -3.78704,-2.12701 -2.82812,-3.08593 0.0916,-0.0916 0.22333,-0.13496 0.38281,-0.13477 z m 14.73047,2.46484 c 1.77882,3.8e-4 4.43871,1.14263 9.37695,3.72852 5.67293,2.9706 5.70403,3.68952 0.23047,5.51953 -5.7044,1.90718 -7.70633,1.42661 -10.87695,-2.61328 -2.75037,-3.50445 -2.83359,-3.86273 -1.28125,-5.4668 0.7336,-0.75804 1.48349,-1.16819 2.55078,-1.16797 z M 1001.0586,570 c 0.5825,0 0.7813,0.45 0.4414,1 -0.3399,0.55 -0.8161,1 -1.0586,1 -0.2426,0 -0.4414,-0.45 -0.4414,-1 0,-0.55 0.4762,-1 1.0586,-1 z m 16.8574,2.12305 c 0.3474,0.0143 0.6464,0.10729 0.8125,0.27343 0.3323,0.33229 -0.2584,0.5688 -1.3125,0.5254 -1.165,-0.048 -1.4012,-0.28625 -0.6035,-0.60547 0.361,-0.14446 0.7561,-0.20767 1.1035,-0.19336 z m -613.59373,8.08203 c 0.20613,0.0261 0.50254,0.21934 0.86132,0.57812 0.65087,0.65084 0.95019,1.41506 0.66602,1.69922 C 405.18222,583.14981 404,581.96759 404,580.63281 c 0,-0.3133 0.11613,-0.45386 0.32227,-0.42773 z m 629.78713,3.27344 c -0.062,0.007 -0.1218,0.0286 -0.1797,0.0644 -0.4635,0.28643 -0.5892,1.18089 -0.2793,1.98828 0.8469,2.20705 2.2404,1.76653 1.6426,-0.51953 -0.2503,-0.95709 -0.7519,-1.58369 -1.1836,-1.5332 z"/>
</svg>
