<?xml version="1.0" encoding="utf-8"?>
<svg xmlns="http://www.w3.org/2000/svg" version="1.1" viewBox="0 0 64 104">
	<title>The letter E is decorated with vines.</title>
	<path d="m 17.212361,93.008811 c -4.789099,-2.172175 -7.3880586,-6.638878 -6.516293,-11.199227 1.131637,-5.919775 7.406804,-7.520163 8.735112,-2.22776 0.879794,3.505376 -0.231804,4.908583 -2.361609,2.981137 C 15.046552,80.732154 14,81.424654 14,84.594087 c 0,4.20763 7.37229,8.282242 12.607765,6.968222 2.056547,-0.516161 2.501675,-1.120358 2.105865,-2.858408 C 28.437586,87.491755 27.882842,85.0375 27.480866,83.25 26.992007,81.076154 27.122515,80 27.875,80 c 0.61875,0 1.139312,0.7875 1.156803,1.75 0.01749,0.9625 0.696893,2.629527 1.509781,3.704505 1.309154,1.731251 1.648123,1.784359 2.967539,0.464944 0.819259,-0.819259 1.75486,-3.386287 2.079114,-5.704505 0.663525,-4.743808 1.302366,-4.438511 -8.838237,-4.223725 -3.7125,0.07863 -6.747155,-0.224723 -6.743677,-0.674125 0.0035,-0.449402 1.374243,-1.595582 3.046146,-2.547068 2.972791,-1.691825 3.033293,-1.879265 2.743677,-8.5 C 25.48039,57.051701 23.707147,54.997139 23.189635,61.25 c -0.325911,3.937832 -1.011462,4.528173 -2.97651,2.563125 -0.915833,-0.915833 -1.444897,-0.446711 -2.316738,2.054254 -0.863037,2.475709 -1.63365,3.169276 -3.263125,2.936874 -3.183275,-0.45401 -3.290684,-4.245859 -0.196477,-6.936237 C 18.320544,58.491131 17.965032,53.444404 13.5,48.569725 11.575,46.468115 10,44.130177 10,43.374308 10,41.347475 10.968743,41.690546 13.17866,44.5 c 3.988579,5.070656 5.285801,1.371218 1.838398,-5.24277 -3.339912,-6.407761 -4.250022,-13.612177 -2.341769,-18.537391 2.199844,-5.67781 4.021993,-7.632523 9.197331,-9.866451 8.658413,-3.737392 20.756632,-2.2562267 27.591976,3.378041 4.695067,3.870071 6.645203,7.837037 6.676121,13.580569 0.03008,5.588606 -1.157876,9.009413 -4.025954,11.59299 C 50.951643,40.452731 50,41.915231 50,42.654988 c 0,1.748691 -1.634596,1.739623 -2.307063,-0.0128 -0.286573,-0.746796 -1.885244,-1.630651 -3.552604,-1.964123 -1.66736,-0.333472 -3.542496,-1.560999 -4.166969,-2.727836 C 38.408995,35.027181 39.69269,34.11624 41.579705,36.810332 43.731688,39.882719 47,39.71681 47,36.535184 47,33.284018 44.258253,31.928008 37.206307,31.691433 L 31.5,31.5 l -0.06736,7 C 31.347996,47.296779 31.605179,48 34.906989,48 38.05757,48 40,46.366374 40,43.716667 c 0,-1.035834 0.51972,-1.710094 1.154934,-1.498356 0.728322,0.242774 1.190049,3.228706 1.25,8.083591 0.09215,7.462562 -1.182989,9.902189 -2.416844,4.623959 -0.455646,-1.949179 -1.296192,-2.486848 -4.277583,-2.736226 -3.272545,-0.273732 -3.724492,-0.03767 -3.82899,2 -0.194695,3.796477 0.150984,4.902358 2.768985,8.858424 1.375637,2.078728 2.625732,4.605803 2.777991,5.615723 0.22125,1.467543 1.058767,1.790489 4.171321,1.608461 4.493379,-0.262782 5.984151,-1.850278 6.915769,-7.364476 1.021902,-6.04859 2.28557,-4.628251 2.652358,2.981201 0.504967,10.476143 0.646803,10.259017 -6.474349,9.911066 L 38.553104,75.5 37.914205,79 C 37.56281,80.925 36.763362,83.766795 36.137653,85.3151 34.506101,89.352344 34.694436,90 37.5,90 c 2.011905,0 2.5,-0.49697 2.5,-2.545455 0,-5.990057 9.258319,-10.215875 12.681316,-5.788192 0.649724,0.840425 0.939079,2.159306 0.643012,2.930846 C 52.50673,86.727823 48.89093,86.298919 48.289749,84 48.002093,82.9 47.394738,82 46.940073,82 45.438673,82 43,86.398118 43,89.105875 c 0,3.159303 -2.3084,4.065021 -7.421416,2.911849 -2.306411,-0.520181 -4.074353,-0.366646 -5.274005,0.458013 -3.466359,2.382828 -8.55699,2.590103 -13.092218,0.533074 z M 35.435623,70.104164 c 0.304511,-0.492709 -0.32896,-1.955209 -1.407714,-3.25 L 32.066539,64.5 l -0.03327,2.583333 c -0.04508,3.500395 1.98952,5.306845 3.402354,3.020831 z M 21.984687,57.372445 C 21.993109,56.202289 21.325,54.684689 20.5,54 19.20966,52.929113 19,53.308024 19,56.710889 c 0,2.175678 0.306763,4.26254 0.681695,4.637473 0.936321,0.936321 2.284388,-1.390999 2.302992,-3.975917 z M 26,43.583407 C 26,31.202087 25.9922,31.160984 23.25,29.115087 L 20.5,27.06336 35.25,27.03168 50,27 l 0.118421,4.25 c 0.06513,2.3375 0.06513,4.5875 0,5 -0.244266,1.547021 1.851262,0.675164 2.846395,-1.184259 1.519939,-2.840032 1.261256,-9.787072 -0.502868,-13.504686 -1.687309,-3.55574 -6.358756,-7.463435 -9.6888,-8.104743 C 41.603667,13.231091 40.186284,12.586284 39.623409,12.023409 38.117701,10.517701 30.11104,10.777857 24.232873,12.523485 17.481753,14.528352 11.720322,22 16.925478,22 c 1.782113,0 1.895541,0.638006 1.523414,8.568869 -0.377798,8.051707 -0.252593,8.718339 2.074522,11.045454 C 22.534393,43.625302 23,45.085049 23,49.378788 23,54.543951 23.476464,56 25.166667,56 25.625,56 26,50.412533 26,43.583407 Z m -4.183578,4.743712 C 21.40871,44.88309 19,43.961897 19,47.25 c 0,2.534386 0.723887,3.75 2.233089,3.75 0.494866,0 0.757366,-1.202797 0.583333,-2.672881 z M 17,30.875242 c 0,-4.441479 -1.582325,-8.251414 -3.050173,-7.344233 -1.275585,0.788355 -1.201791,5.44776 0.147584,9.318581 C 15.526621,36.949423 17,35.947226 17,30.875242 Z"/>
</svg>
