<?xml version="1.0" encoding="utf-8"?>

<svg xmlns="http://www.w3.org/2000/svg" version="1.1" viewBox="0 0 956 875">











	<path d="m 570.75391,13.173828 c -0.40416,-0.02573 -0.86726,0.06004 -1.40235,0.236328 C 567.29687,14.087078 561,23.149473 561,25.429688 c 0,0.798929 -0.45,1.730393 -1,2.070312 -0.55569,0.343438 -1,-0.400649 -1,-1.675781 0,-1.262066 -1.20806,-4.685253 -2.68555,-7.605469 -2.09352,-4.137757 -3.14177,-5.243671 -4.75,-5.013672 -1.89691,0.271285 -2.15587,1.350551 -3.1875,13.371094 -0.61727,7.192431 -1.63505,14.038303 -2.26367,15.21289 -1.44614,2.702137 -3.62566,1.931935 -5.3125,-1.878906 -0.70842,-1.600426 -1.74168,-2.915775 -2.29492,-2.921875 -0.55324,-0.0061 -2.69336,-0.289949 -4.75586,-0.630859 -3.50033,-0.578568 -3.75,-0.451608 -3.75,1.886719 0,4.793594 7.36909,21.516971 13.375,30.355468 1.43706,2.114815 3.31362,5.955146 4.16992,8.533203 1.50162,4.520974 1.46914,4.894785 -0.91601,10.527344 C 545.26879,90.87209 541.71447,98.45 538.73242,104.5 c -2.98205,6.05 -6.91745,14.15 -8.74609,18 -1.82863,3.85 -6.09399,10.40322 -9.47852,14.5625 -6.77479,8.32559 -10.88635,14.10244 -14.90234,20.9375 -4.16797,7.09374 -12.25585,23.87457 -14.94141,31 l -2.45117,6.5 -4.2793,0.24805 c -5.76471,0.33344 -8.09123,-1.71361 -6.85351,-6.0293 0.58581,-2.04259 0.50095,-4.36737 -0.24414,-6.67578 -3.32068,-10.28791 -6.70714,-14.3976 -12.81836,-15.55859 -7.54428,-1.43326 -7.29893,-0.62875 -7.05664,-23.15235 0.0525,-4.88038 -0.72223,-9.93124 -2.43164,-15.83008 -3.19189,-11.01452 -2.44833,-9.78612 -11.74024,-19.40625 -7.39978,-7.66117 -17.41179,-9.375025 -26.7539,-4.58008 -3.00515,1.54244 -7.28015,2.94945 -9.5,3.12696 -2.21984,0.17751 -5.7026,0.60359 -7.74024,0.94531 -3.30671,0.55455 -3.76533,0.36679 -4.26367,-1.73437 -0.88149,-3.71662 0.80713,-8.35352 3.04102,-8.35352 1.35995,0 2.02095,0.810283 2.24414,2.75 0.17403,1.5125 0.54178,2.75 0.8164,2.75 C 403.48374,104 415,93.537078 415,90.947266 c 0,-0.894892 1.17429,-2.160591 2.60938,-2.814454 1.92608,-0.877585 2.47054,-1.722038 2.07812,-3.222656 -0.3497,-1.337238 0.0405,-2.234403 1.14062,-2.621094 3.1173,-1.095721 6.20894,-4.596131 5.64063,-6.386718 -0.34187,-1.077146 0.25017,-2.292915 1.56641,-3.214844 C 431.68894,70.128293 439,55.384078 439,50.574219 c 0,-2.453106 -1.00455,-4.132969 -4.40625,-7.375 C 432.17076,40.889968 429.84503,39 429.42383,39 c -0.42121,0 -1.60512,-0.759219 -2.63086,-1.6875 -2.17721,-1.970345 -4.49978,-1.360883 -16.29297,4.273438 -7.68223,3.670262 -11.2865,8.010935 -13.46289,16.214843 -0.62762,2.365823 -1.86359,4.579321 -2.74609,4.917969 -0.88251,0.338649 -3.52689,2.457212 -5.87696,4.708984 -3.90328,3.73999 -4.4959,4.993327 -6.84375,14.482422 -3.0367,12.273149 -3.48402,25.966754 -1.03906,31.818364 2.0113,4.81372 1.42622,5.95019 -3.73047,7.25195 -2.36583,0.59722 -8.57578,2.26431 -13.80078,3.70312 -20.4031,5.61841 -22.99646,8.06775 -26.01367,24.58008 -0.89295,4.88686 0.52023,11.91547 3.5957,17.88477 1.17252,2.27579 1.13845,3.31511 -0.24023,7.36133 -1.76007,5.16552 -9.52013,13.68322 -16.45118,18.05859 -2.23259,1.40938 -4.80843,3.9403 -5.7246,5.62305 -0.91618,1.68275 -3.44522,5.35425 -5.61914,8.16015 -3.32887,4.29657 -4.01732,6.01293 -4.36915,10.87696 -0.69116,9.55525 3.49553,15.66049 9.79297,14.27734 3.62745,-0.79672 11.25873,-8.47801 15.15625,-15.25586 1.66042,-2.8875 3.34121,-5.25 3.73438,-5.25 0.82264,0 5.93563,5.96202 14.90625,17.38281 6.7919,8.64699 13.40317,13.30227 22.98242,16.18164 4.67803,1.40614 5.82197,1.41761 10.5,0.10938 2.8875,-0.80749 6.9808,-1.76849 9.0957,-2.13477 3.30093,-0.5717 15.20708,-5.22722 22.34766,-8.73828 1.37825,-0.67769 4.9076,-0.82613 9.5,-0.40039 4.01888,0.37258 8.64079,0.64467 10.27148,0.60547 8.36348,-0.20089 11.01858,3.26991 11.88672,15.53906 0.83282,11.76998 5.22026,19.05837 21.5293,35.76172 15.01602,15.37905 18.75027,18.23245 24.76953,18.92774 2.23381,0.25803 4.48278,0.72962 4.99609,1.04687 0.51331,0.31724 4.44292,0.0843 8.73243,-0.51758 6.49864,-0.91191 7.94785,-0.85906 8.69336,0.32031 1.24416,1.96821 0.12506,7.1754 -3.31055,15.40821 -1.60828,3.85395 -3.11476,7.98214 -3.34766,9.17383 -0.2329,1.19169 -1.68123,5.01669 -3.21875,8.5 -1.53753,3.48331 -3.38751,8.35898 -4.11133,10.83398 -0.72381,2.475 -1.67764,5.625 -2.11914,7 -0.44151,1.375 -1.05581,3.66984 -1.36523,5.09961 -0.30942,1.42978 -3.4832,7.02946 -7.05273,12.44336 l -6.49024,9.84375 -14.76562,-0.28125 c -8.12108,-0.15427 -15.17738,-0.536 -15.68164,-0.84766 -0.50428,-0.31163 -6.58578,-0.47428 -13.51368,-0.36328 -6.9279,0.11099 -15.4635,-0.10398 -18.96875,-0.47656 l -6.37304,-0.67774 0.60156,-7.11914 c 1.17856,-13.93108 3.43354,-31.47112 4.20703,-32.72265 0.97308,-1.57447 3.01955,-0.97223 5.4375,1.60156 2.60715,2.77518 6,3.33206 6,0.98438 0,-0.83391 1.49195,-2.22857 3.31445,-3.09766 3.18827,-1.52038 3.4575,-1.48053 7.13867,1.01758 C 447.85207,344.3895 451,344.77412 451,342.32812 451,340.18962 453.86716,337 455.78906,337 458.98486,337 465,334.61106 465,333.3418 465,332.60386 464.325,332 463.5,332 c -2.8583,0 -0.73718,-8.48899 2.99805,-11.99805 3.60716,-3.38875 3.15069,-5.53755 -1.79102,-8.43359 -2.36067,-1.38344 -5.2985,-3.87628 -6.5293,-5.54102 C 456.94694,304.3626 455.52537,303 455.01758,303 c -0.5078,0 -1.81924,2.025 -2.91406,4.5 -2.32597,5.25825 -4.25205,5.68916 -8.26172,1.84766 -2.38194,-2.28205 -2.99697,-2.46488 -4.39258,-1.30664 -0.89217,0.74044 -2.53354,3.28636 -3.64844,5.6582 -2.61495,5.56307 -7.19291,9.49182 -10.1875,8.74023 -1.99527,-0.50078 -2.78385,0.54217 -7.36719,9.75 -2.82284,5.67101 -6.09321,13.21343 -7.26757,16.76172 -1.17436,3.54829 -2.8419,7.81712 -3.70508,9.48633 l -1.56836,3.03516 -5.10352,-5.91407 C 397.79541,352.30614 391.7875,345.85573 387.25,341.22266 382.7125,336.58959 379,332.30942 379,331.71289 379,330.14334 374.88495,326 373.32617,326 372.59704,326 372,326.3522 372,326.7832 c 0,2.36924 10.41081,29.77244 13.17383,34.67578 0.60698,1.07716 2.14371,5.12716 3.41601,9 3.0079,9.15593 2.43687,9.80748 -9.375,10.69727 -12.85428,0.96831 -31.35128,2.75164 -34.21484,3.29883 -1.375,0.26274 -5.78098,1.23908 -9.79102,2.16992 -5.61347,1.30303 -7.56358,1.42079 -8.4746,0.50977 -1.77437,-1.77435 -1.34877,-8.99927 0.85742,-14.56641 1.51513,-3.82327 2.84833,-5.40529 5.93164,-7.03906 5.72497,-3.03352 9.12144,-6.82639 9.91797,-11.07227 1.04795,-5.58605 2.4996,-7.27458 9.05859,-10.54883 8.82955,-4.40772 9.856,-5.35548 9.09375,-8.39258 -0.36815,-1.46679 -1.71917,-2.99238 -3.12109,-3.52539 -2.64476,-1.00554 -3.24942,-2.56464 -1.25196,-3.23046 0.67165,-0.22388 2.13504,-2.17454 3.25196,-4.33399 1.64412,-3.17875 2.64964,-3.98458 5.27929,-4.23828 4.13905,-0.39932 4.08841,-1.30905 -0.2539,-4.62109 -4.00584,-3.05541 -5.92383,-6.37326 -6.94727,-12.01563 -0.39396,-2.17191 -1.35326,-4.85968 -2.13281,-5.97266 C 355.63842,296.46518 355,294.75497 355,293.77734 c 0,-2.38463 -3.12279,-2.2845 -5.22266,0.16797 -1.29027,1.50693 -2.46357,1.81762 -5.20312,1.37305 -4.49695,-0.72976 -5.19173,0.80576 -3.31836,7.33203 0.98446,3.42958 1.1105,5.72833 0.43359,7.84961 -2.1166,6.6329 -2.69677,7.21965 -8.04297,8.12695 L 328.5,319.5 l 0.33984,9.04102 0.33985,9.04296 -4.58985,5.10547 C 322.06543,345.4972 320,348.21793 320,348.73633 c 0,0.51841 1.13826,1.46186 2.5293,2.0957 3.34169,1.52258 4.37744,4.6521 3.18164,9.61328 -1.1797,4.89438 -2.99795,7.1172 -4.86524,5.94922 -0.74028,-0.46305 -1.99479,-0.85269 -2.78711,-0.86719 -0.79232,-0.0145 -2.31194,-1.52003 -3.3789,-3.34375 -1.48066,-2.53084 -1.70484,-3.83294 -0.94531,-5.5 1.53133,-3.36111 -0.14478,-6.66192 -3.45313,-6.80273 -1.53022,-0.0651 -3.0651,-0.0824 -3.41211,-0.0391 -0.34701,0.0433 -1.45047,-0.82587 -2.45117,-1.93164 -1.69839,-1.87669 -1.71186,-2.22402 -0.21485,-5.21094 2.34324,-4.67531 3.14017,-7.02883 2.89063,-8.53516 -0.12175,-0.73493 0.26817,-4.49474 0.86719,-8.35547 1.27866,-8.24121 0.54877,-13.46522 -2.07813,-14.87109 -2.56565,-1.37309 -5.15623,0.15031 -7.95312,4.67578 -2.16536,3.50362 -2.62509,6.0857 -4.60157,25.81445 -0.48712,4.86245 -0.80464,5.63915 -1.76757,4.32227 -1.51827,-2.07636 -11.83678,-6.65266 -17.34961,-7.69531 -5.0649,-0.95794 -5.07871,-0.94757 -14.72656,10.29883 -6.67582,7.78193 -6.72766,7.88553 -5.6211,11.5 0.61415,2.00603 1.48528,5.22148 1.93555,7.14648 1.15,4.91662 4.0075,5.07162 9.07422,0.49414 3.38461,-3.05779 4.33024,-3.4554 6.03515,-2.54297 1.73452,0.92829 2.70128,0.42703 6.80664,-3.52539 4.5745,-4.40407 4.98195,-4.57921 9.2461,-4.00586 2.45701,0.33036 6.18471,1.83029 8.30078,3.33985 2.11272,1.50718 4.3799,3.00485 5.03906,3.32812 9.63812,4.72681 16.27502,9.6074 17.5586,12.91211 3.30329,8.50472 1.73105,13.47378 -4.60157,14.53711 -6.30886,1.05933 -9.9204,2.44051 -12.75586,4.87695 -2.32927,2.00148 -3.22176,2.20034 -6.35547,1.42188 -6.75833,-1.67886 -32.8578,-0.70634 -42.51562,1.58398 -34.16099,8.10118 -40.14407,10.33273 -44.36719,16.54492 l -2.23437,3.28907 4.48437,8.43359 c 2.46709,4.63868 4.48633,8.83846 4.48633,9.33398 0,1.54734 -7.4349,2.9915 -15.12695,2.9375 -4.05565,-0.0285 -12.32305,0.0806 -18.37305,0.24219 -8.9087,0.23802 -10.94524,0.0334 -10.70898,-1.07812 0.16045,-0.75487 -0.41572,-2.15494 -1.28125,-3.11133 -1.44661,-1.5985 -1.36854,-1.87339 0.95898,-3.39844 1.39258,-0.91246 2.53125,-2.14653 2.53125,-2.74219 0,-1.89846 -16.45212,-13.84147 -19.0918,-13.85937 -1.79921,-0.0122 -3.86751,5.75946 -3.97851,11.10351 -0.0386,1.86119 -0.4261,4.28477 -0.86133,5.38477 -0.98454,2.48833 -0.29643,4.5 1.53906,4.5 2.2402,0 1.62671,1.31355 -1.94336,4.16211 -3.42468,2.73255 -9.99106,3.98991 -12.55664,2.4043 -2.06737,-1.27771 -0.79636,-8.7879 2.15039,-12.70508 2.17657,-2.89337 2.46538,-4.12612 2.07422,-8.86133 -0.24989,-3.025 -1.13782,-6.55111 -1.97265,-7.83594 -1.30384,-2.007 -2.19108,-2.28866 -6.28321,-2 -2.6368,0.186 -5.39144,-0.1791 -6.16992,-0.81836 -0.77359,-0.63524 -2.27758,-1.31024 -3.3418,-1.5 -2.00982,-0.35837 -2.65396,0.54201 -6.54101,9.1543 -1.11706,2.475 -3.15416,6.02961 -4.52735,7.89844 -2.97959,4.05506 -3.20821,8.14817 -0.58789,10.51953 1.04975,0.95 2.48021,3.10507 3.17774,4.78906 1.11507,2.69203 1.04858,3.22115 -0.55078,4.39063 -1.00047,0.73157 -3.21843,1.32345 -4.92774,1.31445 -1.7093,-0.009 -4.00742,0.19777 -5.10742,0.45898 -1.1,0.26121 -2.566883,0.51064 -3.259766,0.55274 -0.692884,0.0421 -2.000108,0.94007 -2.904296,1.99609 -0.90419,1.05602 -4.60946,2.74352 -8.234376,3.75 -5.415953,1.50378 -7.550044,2.76816 -11.96875,7.0918 -5.610131,5.48942 -8.526186,6.85868 -12.492187,5.86328 -3.551536,-0.89138 -5.287493,1.9093 -5.96875,9.62695 -0.568611,6.44153 -0.480299,6.8275 1.958984,8.42578 2.399715,1.57234 2.758791,1.56748 5.839844,-0.0918 1.805412,-0.97228 4.691939,-1.86516 6.414063,-1.98438 3.623263,-0.25085 4.597926,-1.05582 6.919922,-5.70703 2.15828,-4.32327 5.11668,-4.79927 8.771484,-1.41211 3.754057,3.47914 5.911943,2.93755 5.970703,-1.5 0.04107,-3.1017 0.368425,-3.51915 3,-3.8164 3.399388,-0.38399 6.108695,-2.50537 7.070315,-5.53516 0.87786,-2.76588 5.36551,-9.79584 7.26562,-11.38086 2.61726,-2.18323 7.05226,-1.55102 8.08008,1.15234 0.50246,1.32157 1.39075,2.697 1.97266,3.05664 0.71479,0.44177 0.57146,1.59394 -0.43946,3.54883 -0.82298,1.59147 -1.49609,4.4807 -1.49609,6.42188 0,1.94119 -0.73196,5.36084 -1.62695,7.59765 -1.5076,3.76792 -1.50693,4.15439 0.0234,5.27344 1.48835,1.08831 1.2063,1.94949 -2.85546,8.70313 -2.47935,4.1225 -4.51444,7.88853 -4.52344,8.36718 -0.009,0.47864 1.21992,2.83849 2.73242,5.2461 2.35544,3.74941 3.18043,4.34306 5.75,4.13086 2.88125,-0.23792 3.00449,-0.44596 3.125,-5.24805 0.14085,-5.61201 1.27504,-16.05575 2.04297,-18.81055 0.27765,-0.99602 1.59068,-2.3054 2.91797,-2.91015 1.3273,-0.60476 2.41406,-1.69792 2.41406,-2.42774 0,-0.72982 1.72828,-2.41774 3.8418,-3.75195 3.47782,-2.19545 4.33554,-3.49214 6.67968,-10.09961 0.39025,-1.1 0.88446,-4.43141 1.09766,-7.40234 0.21321,-2.97094 0.87372,-5.98657 1.4668,-6.70118 1.37631,-1.65836 6.25636,-2.26287 22.41406,-2.77929 7.15,-0.22853 16.15,-0.70971 20,-1.06836 4.8701,-0.45367 8.21709,-0.23091 11,0.72851 2.43251,0.83862 5.27359,1.10237 7.25,0.67578 1.7875,-0.3858 3.25,-0.32457 3.25,0.13477 0,0.7369 -5.17777,2.48269 -10.26758,3.46289 -0.97594,0.18795 -3.0297,1.23725 -4.56445,2.33008 -1.53474,1.09283 -4.11207,2.28102 -5.72852,2.64258 -2.16473,0.48419 -11.73314,4.84104 -15.10547,6.87695 -0.0916,0.0553 -0.8302,3.61213 -1.64062,7.9043 -1.46926,7.78159 -1.46639,7.81184 0.93359,10.66406 l 2.40625,2.85937 -3.26562,2.55665 c -2.92081,2.28572 -3.27844,3.11596 -3.36524,7.83593 -0.0534,2.90353 -0.44279,8.31016 -0.86523,12.01563 -0.65548,5.74976 -0.52952,6.82986 0.85547,7.36133 2.67633,1.027 6.43812,-2.2552 7.62109,-6.64844 0.60061,-2.23049 2.08057,-5.03943 3.28906,-6.24414 4.37059,-4.35693 6.74612,-10.28266 6.49805,-16.21094 -0.2039,-4.87269 0.0884,-5.83561 2.43945,-8.01562 1.46962,-1.36271 3.12698,-2.47852 3.68165,-2.47852 0.55466,0 1.48942,-0.9 2.07812,-2 0.5887,-1.1 2.09323,-2 3.34375,-2 1.25053,0 2.987,-0.5625 3.85742,-1.25 1.89786,-1.49902 6.58673,-8.80811 8.9668,-13.97852 2.57655,-5.59725 7.09128,-8.00624 13.58203,-7.24414 5.23621,0.61479 5.25033,0.60946 5.26562,-2.20507 0.008,-1.55208 0.34593,-3.32377 0.75,-3.9375 0.85164,-1.29347 18.32089,-2.73726 35.73438,-2.95313 6.6,-0.0818 16.01396,-0.67611 20.91992,-1.32031 5.9519,-0.78154 9.25207,-0.83777 9.91992,-0.16992 1.141,1.141 -3.05677,5.41544 -12.31445,12.53906 -5.59611,4.30611 -6.18426,4.51953 -12.44922,4.51953 -7.06768,0 -8.25725,1.07944 -3.7539,3.4082 5.84509,3.02261 5.77925,3.77112 -1.03711,11.55078 -5.01431,5.72295 -7.76559,7.88784 -13.60743,10.71094 -4.02673,1.94594 -7.56861,4.18247 -7.87109,4.9707 -0.30247,0.78826 0.26871,2.33942 1.26953,3.44532 2.69186,2.97447 2.59895,4.79525 -0.48242,9.32812 -3.53815,5.20481 -4.29197,8.17635 -2.45703,9.69922 1.10625,0.91811 1.95205,0.90963 3.72461,-0.0391 1.26099,-0.67486 3.83208,-1.07984 5.71484,-0.90039 3.17496,0.30262 3.44734,0.60299 3.73828,4.13281 0.44187,5.36084 2.76907,5.9169 6.61328,1.58008 C 263.86983,509.00366 273.17062,502 274.88477,502 277.70383,502 280,497.96228 280,493.00781 c 0,-4.16435 0.5799,-5.75064 3.5,-9.57617 3.83648,-5.02606 4.34482,-7.84015 1.90234,-10.53906 C 283.70032,471.01187 284.24401,469 286.45508,469 c 2.50618,0 11.38997,-11.82292 9.95898,-13.25391 -0.27875,-0.27875 0.33954,-2.02347 1.375,-3.87695 2.27112,-4.06529 6.2908,-4.71114 7.16602,-1.15234 0.55992,2.27676 6.49284,7.2832 8.63086,7.2832 0.65852,0 1.4815,1.13653 1.83008,2.52539 0.76232,3.03733 7.27102,10.47461 9.16601,10.47461 1.38766,0 3.70877,3.37521 2.88672,4.19727 -0.85167,0.85167 12.04632,10.62583 16.23242,12.30078 2.27931,0.912 4.37735,2.26379 4.66211,3.00586 0.28476,0.74207 2.57044,2.25791 5.07813,3.36718 2.50769,1.10927 4.55859,2.68439 4.55859,3.5 0,0.82457 2.42812,2.59428 5.46875,3.98633 8.01942,3.67141 14.34387,8.3199 14.71094,10.8125 0.18372,1.24761 1.80783,2.99606 3.82031,4.11328 1.925,1.06866 3.76984,2.37057 4.09961,2.89453 0.80084,1.2724 5.78818,3.82227 7.47656,3.82227 2.8937,0 5.30839,4.11118 5.21289,8.875 -0.0597,2.98024 0.67185,6.04159 2.0586,8.60938 1.18372,2.19185 2.15234,4.60566 2.15234,5.36328 0,0.75762 -1.60331,7.74006 -3.5625,15.51562 -4.24307,16.83969 -5.15099,26.9273 -3.10742,34.52734 0.86823,3.22897 1.14369,6.43679 0.6875,8 -1.55874,5.34129 -6.92981,15.17592 -9.92383,18.16993 -1.70182,1.70183 -3.09375,3.40801 -3.09375,3.79297 0,0.38495 -1.82425,2.48859 -4.05273,4.67382 -2.22849,2.18524 -4.49932,4.42266 -5.04688,4.97266 -0.54757,0.55 -2.79455,3.475 -4.99414,6.5 -2.19959,3.025 -7.1156,8.67943 -10.92383,12.56641 -8.79971,8.98166 -12.17871,13.93749 -11.78711,17.28515 0.49554,4.23629 3.87346,5.24358 15.80469,4.71289 11.56486,-0.51439 13.51677,-0.87628 19.73828,-3.66406 2.33151,-1.04471 5.25651,-1.9042 6.5,-1.9082 7.21824,-0.0244 24.53252,-8.56962 30.20899,-14.91016 2.14281,-2.39349 2.27316,-5.47224 0.68164,-16.08203 -0.79588,-5.3057 -0.63944,-7.87804 0.8457,-14 2.92998,-12.07784 4.60455,-15.10859 6.58008,-11.91211 0.36953,0.59786 1.4562,0.88186 2.41601,0.63086 0.95981,-0.251 2.46786,-0.0531 3.35157,0.44141 2.01446,1.12735 27.10335,-1.82678 30.65234,-3.60938 1.38895,-0.69765 4.27578,-1.53883 6.41406,-1.86914 2.13829,-0.33031 5.6774,-1.84125 7.86524,-3.35742 l 3.97656,-2.75586 2.29101,2.66211 c 3.45368,4.01514 9.20727,31.84836 9.97852,48.26953 0.12916,2.75 1.00701,9.275 1.95117,14.5 1.81324,10.0345 3.21966,19.95157 4.09961,28.91211 0.29234,2.97688 0.7314,5.7354 0.97461,6.12891 0.24321,0.39352 0.66475,11.82203 0.9375,25.39843 0.27275,13.5764 0.69639,25.0098 0.94141,25.40625 0.54727,0.8855 -1.3581,10.27345 -2.36524,11.6543 -0.40115,0.55 -1.30447,3.25 -2.00781,6 -0.70334,2.75 -2.3473,8.06527 -3.6543,11.81055 -1.307,3.74528 -2.37695,8.04822 -2.37695,9.5625 0,1.51429 -1.125,5.08531 -2.5,7.93554 -1.375,2.85024 -2.5,6.49776 -2.5,8.10547 0,1.60771 -0.28437,3.66621 -0.63281,4.57422 -0.83518,2.17645 -20.28862,15.00954 -25.10352,16.56055 -2.06986,0.66676 -4.21367,1.5288 -4.76367,1.91601 -3.30819,2.32906 -16.19181,4.97052 -27,5.53516 -25.22121,1.31759 -33.46808,0.68451 -37.32812,-2.86133 -1.9659,-1.80587 -3.52395,-2.13236 -10,-2.10156 -8.32604,0.0397 -8.47995,0.0529 -24.67188,2.14062 -11.97838,1.54448 -18.9675,2.17138 -30.5,2.73438 -4.125,0.20138 -8.85,0.59679 -10.5,0.87891 -1.65,0.28212 -5.68961,0.66972 -8.97656,0.86132 -5.68542,0.3314 -6.04155,0.21326 -7.31055,-2.41406 -2.46991,-5.11368 -11.72304,-7.22351 -18.76953,-4.2793 -1.92082,0.80257 -4.04473,1.24931 -4.71875,0.99219 -0.67403,-0.25712 -4.59961,-0.65768 -8.72461,-0.89062 -4.125,-0.23293 -8.85,-0.68016 -10.5,-0.99414 -1.65,-0.31397 -5.25,-0.83658 -8,-1.16016 -4.59713,-0.54092 -5.22506,-0.35196 -7.79102,2.34961 -3.09225,3.25566 -4.26757,9.01058 -1.70898,8.36719 0.825,-0.20744 2.175,-0.34042 3,-0.29493 0.825,0.0454 9.92826,0.0868 20.23047,0.0918 15.29843,0.007 19.30645,0.30571 21.86523,1.62891 2.52598,1.30623 4.90177,1.49935 12.26758,0.99219 5.02466,-0.34596 16.33672,-0.83004 25.13672,-1.07618 14.8725,-0.41597 34.11635,-2.49151 36.44336,-3.92968 0.55344,-0.34205 4.61725,-0.8486 9.03125,-1.125 7.4472,-0.46633 8.02539,-0.36164 8.02539,1.4375 0,1.06636 0.71204,2.21108 1.58203,2.54492 2.58441,0.99173 27.24061,0.69198 38.8125,-0.47266 11.62965,-1.17045 14.98423,-0.78128 12.5332,1.45703 -1.4554,1.3291 -15.46182,5.62305 -18.34179,5.62305 -2.98986,0 -1.5857,2.50303 2.66406,4.75 5.9286,3.13462 16.25108,4.23578 44.64453,4.75781 13.4169,0.24667 24.53047,0.58321 24.69727,0.75 0.64884,0.64885 15.12155,-1.14628 18.9082,-2.3457 5.20958,-1.65015 32.91071,-1.71478 36.81445,-0.0859 1.65814,0.69185 8.08219,1.17383 15.62891,1.17383 10.38194,0 13.05753,-0.2959 14.10547,-1.55859 1.14536,-1.38002 0.67192,-1.54669 -4.12891,-1.45899 -9.6104,0.17548 -33.02907,-0.93308 -34.13281,-1.61523 -0.58879,-0.36389 -4.27024,-1.04159 -8.17969,-1.50781 -3.90944,-0.46624 -9.35742,-1.18796 -12.10742,-1.60352 -2.75,-0.41556 -6.96043,-0.6153 -9.35547,-0.44336 -3.99016,0.28645 -4.31518,0.5128 -3.89648,2.70312 0.37648,1.96942 -0.0412,2.49999 -2.3711,3.01172 -1.55537,0.34162 -3.18527,0.40021 -3.62109,0.13086 -0.43582,-0.26935 -8.65834,-0.78565 -18.27344,-1.14843 -30.50378,-1.1509 -46.69057,-2.9093 -46.30078,-5.02735 0.0995,-0.54067 3.69951,-1.90905 8,-3.04101 4.3005,-1.13197 9.84336,-2.98534 12.31836,-4.11914 2.475,-1.1338 8.55,-3.55787 13.5,-5.38672 4.95,-1.82885 10.35,-4.0661 12,-4.97071 1.65,-0.9046 7.11676,-3.78212 12.14844,-6.39453 12.85328,-6.67334 13.77555,-7.85273 17.3125,-22.12695 3.45845,-13.95748 4.94467,-23.04576 5.46484,-33.44336 0.20636,-4.125 0.96922,-10.875 1.69727,-15 1.50877,-8.5486 1.50115,-20.28283 -0.0195,-30.5 -0.57303,-3.85 -1.55466,-12.85 -2.18164,-20 -0.62699,-7.15 -1.77518,-14.88961 -2.55274,-17.19922 -1.33294,-3.95929 -2.76062,-24.43519 -2.26953,-32.55078 0.1302,-2.15161 -2.04029,-16.84447 -2.62891,-17.79688 -0.3081,-0.49852 -0.71838,-2.15867 -0.91211,-3.68945 -0.57533,-4.546 -2.50965,-11.32527 -5.29297,-18.55469 -2.4058,-6.24888 -2.48516,-6.91913 -1,-8.40429 1.48517,-1.48515 1.817,-1.48125 4.15821,0.0527 1.39925,0.91683 2.84896,2.89876 3.2207,4.4043 1.15568,4.6805 7.04802,14.72081 8.85156,15.08203 2.65672,0.53209 3.58903,-1.12108 2.18164,-3.86719 -1.04849,-2.04582 -4.33447,-12.03119 -6.30078,-19.14648 -0.3028,-1.09569 0.32779,-1.91703 1.83203,-2.39258 1.26048,-0.3985 3.64102,-1.73263 5.29102,-2.96484 1.65,-1.23221 6.6,-4.12504 11,-6.42774 4.4,-2.3027 9.37068,-5.50427 11.04688,-7.11523 1.67616,-1.61095 3.38316,-2.92969 3.79296,-2.92969 1.24549,0 11.48805,-7.87188 14.69141,-11.29102 7.5531,-8.06186 13.27381,-15.72946 16.19531,-21.70898 1.74668,-3.575 4.42215,-7.96567 5.94727,-9.75586 l 2.77344,-3.25391 1.63671,2.49805 c 0.89992,1.37344 1.35864,3.21985 1.01954,4.10352 -0.33909,0.88367 -0.0882,4.47829 0.55859,7.98828 0.99786,5.4156 0.92439,7.28962 -0.49219,12.38476 -0.91811,3.30228 -1.66992,6.89697 -1.66992,7.98828 0,3.97507 -4.8979,16.84474 -8.89844,23.38086 C 566.84564,597.01965 565,600.35722 565,600.75 c 0,0.39278 -3.55741,4.14396 -7.90625,8.33789 -7.53361,7.26528 -17.53004,13.82097 -23.23437,15.23828 -2.77815,0.69027 -4.51083,3.42081 -3.08008,4.85156 2.24933,2.24933 25.71078,-9.25848 30.22265,-14.82421 C 566.75552,607.25606 578,589.77018 578,587.91992 c 0,-0.48192 1.8,-6.24144 4,-12.79883 4.41336,-13.15462 4.68289,-15.69992 2.53516,-23.98828 -0.80603,-3.11058 -1.41407,-7.90072 -1.35157,-10.64453 0.0625,-2.74381 -0.19271,-6.56328 -0.5664,-8.48828 -0.78154,-4.02599 -0.19763,-5.08014 8.88281,-16.02344 3.3,-3.97699 6.9,-8.69687 8,-10.48828 1.1,-1.79141 2.74968,-4.32179 3.66602,-5.62305 l 1.66601,-2.36523 2.56445,2.50195 c 2.53919,2.47857 2.56354,2.66166 2.64844,19 0.0726,13.96904 -0.3037,18.41373 -2.46094,28.99805 -4.2125,20.66828 -10.62561,38.11926 -17.15625,46.68359 -1.33505,1.7508 -2.44017,3.5508 -2.45507,4 C 587.91708,600.36229 569.32163,624 568.05664,624 c -0.41809,0 -5.43899,4.40285 -11.1582,9.7832 -12.00855,11.29705 -23.24963,19.85581 -30.39844,23.14649 -7.54539,3.47323 -8.35411,5.91774 -3.52734,10.65429 1.63472,1.60417 2.9847,3.41931 3,4.03516 0.0153,0.61585 0.92734,3.93756 2.02734,7.38086 2.80084,8.7674 2.76186,23.99505 -0.0859,33.52148 -5.00024,16.72655 -6.37107,35.2022 -3.93164,52.97852 0.67929,4.95 1.33852,14.175 1.4668,20.5 0.28671,14.13703 0.96986,17.82847 4.73633,25.61719 3.37092,6.97077 7.46159,11.22899 16.96289,17.6582 6.78651,4.59219 22.44204,17.18448 23.02734,18.52149 0.17807,0.40675 1.57649,1.70898 3.10742,2.89257 1.60588,1.24155 2.34626,2.42056 1.75,2.78907 C 573.16134,854.63537 573.95516,856 576.5,856 c 2.72961,0 3.1649,-0.93666 1.30078,-2.80078 -0.93333,-0.93333 -0.82222,-1.19922 0.5,-1.19922 0.935,0 2.63212,0.9329 3.77149,2.07227 2.20181,2.20181 10.26733,3.96729 14.45898,3.16601 2.90947,-0.55618 3.01239,-0.9794 0.83203,-3.38867 -1.52102,-1.68071 -1.50344,-1.8601 0.25,-2.54688 1.95474,-0.76561 5.64395,-0.87704 15.88672,-0.48242 8.5028,0.32758 50.57948,-0.69116 53.0918,-1.28515 2.27994,-0.53904 20.8858,-3.21505 28.9082,-4.15821 6.08936,-0.71589 7.16569,-1.56867 4.87305,-3.86133 -1.46902,-1.46901 -2.66405,-1.62853 -7.31446,-0.97656 -3.05714,0.42861 -10.28359,0.92182 -16.05859,1.09571 -5.775,0.17389 -12.3,0.77654 -14.5,1.33984 -6.33154,1.62118 -21.22422,1.07881 -23.54492,-0.85742 -2.69091,-2.24511 -2.93488,-6.05825 -0.47852,-7.47657 2.64527,-1.52737 3.8163,-3.07953 7.55664,-10.02343 3.79888,-7.05257 3.23494,-9.41981 -2.99414,-12.59766 C 640.42364,810.68525 639,809.27848 639,808.02734 c 0,-3.48993 -2.13854,-6.72347 -5.51172,-8.33203 -1.82451,-0.87004 -3.57765,-2.40367 -3.89648,-3.4082 -0.57188,-1.80184 -5.02097,-4.56746 -9.27539,-5.76563 -2.91052,-0.81968 -11.884,4.27764 -16.70508,9.48829 -2.0304,2.19447 -4.34362,3.99023 -5.14063,3.99023 -0.79701,0 -3.87208,2.19251 -6.83203,4.87305 -2.95994,2.68054 -5.77639,5.04304 -6.25976,5.25 -1.65578,0.70893 -5.15901,10.61669 -4.25196,12.02539 1.29416,2.00989 0.11882,13.82739 -1.64257,16.51562 -1.97171,3.00918 -2.76902,2.94758 -8.63868,-0.66406 -2.6816,-1.65 -5.23441,-3 -5.67187,-3 -0.43746,0 -3.37287,-3.0375 -6.52344,-6.75 -3.15056,-3.7125 -8.29823,-8.56271 -11.43945,-10.77734 -4.74949,-3.34849 -5.71422,-4.52733 -5.72852,-7 -0.0124,-2.13335 -1.2605,-4.27885 -4.41797,-7.59571 -4.9718,-5.22281 -5.13036,-5.8563 -5.49023,-21.87695 -0.29694,-13.21918 -1.02018,-21.85789 -2.89063,-34.53125 -1.61088,-10.91457 -1.00331,-17.10956 3.23243,-32.96875 3.19231,-11.95246 3.2022,-12.06734 2.54882,-29 -0.69145,-17.91907 -0.79343,-22.30404 -0.58984,-25.40039 C 534.02114,660.87697 542.68724,652 544.71094,652 c 0.75939,0 2.4751,-1.09424 3.8125,-2.43164 8.41091,-8.41091 19.32104,-13.71894 34.97656,-17.01563 4.37197,-0.92063 5,-1.36396 5,-3.53125 0,-2.23968 -0.64434,-2.62527 -6.69141,-4 l -6.69336,-1.52148 4.94336,-4.87695 C 582.77679,615.9403 585,613.26931 585,612.6875 c 0,-0.58181 1.0125,-2.13426 2.25,-3.44922 1.2375,-1.31496 4.05,-5.36105 6.25,-8.99023 l 4,-6.59766 6.5,-1.2793 c 10.48397,-2.06181 14,-3.31707 14,-4.99804 0,-1.25416 -1.08491,-1.48156 -5.75,-1.20899 l -5.75,0.33594 -0.33008,-3.47266 c -0.93351,-9.8251 2.35741,-16.17508 10.32422,-19.91992 5.47253,-2.5724 5.79491,-4.12463 0.79492,-3.82812 -4.43077,0.26276 -5.15027,-1.41687 -3.29101,-7.69532 2.06698,-6.97984 2.90701,-8.58398 4.49218,-8.58398 1.22566,0 1.40758,-0.79358 0.90235,-3.95312 -1.00927,-6.31161 0.22906,-10.69232 3.38672,-11.98047 1.49663,-0.61055 3.8457,-1.74052 5.2207,-2.50977 1.375,-0.76926 4.525,-1.93128 7,-2.58203 2.475,-0.65075 5.49698,-1.56904 6.71484,-2.04102 1.32417,-0.51318 2.45294,-0.47194 2.8086,0.10352 0.3271,0.52926 2.05111,0.96289 3.83203,0.96289 3.64789,0 9.73396,5.39575 11.56055,10.25 1.11419,2.96102 3.78907,3.68011 4.71484,1.26758 0.80148,-2.08862 -2.13168,-10.17343 -5.10547,-14.07227 -1.52152,-1.99481 -3.78035,-3.55439 -5.76367,-3.97851 C 649.87887,513.63647 648,512.28154 648,510.3125 648,508.68667 657.56621,499 659.17188,499 c 0.57142,0 2.37566,-1.125 4.00976,-2.5 1.63409,-1.375 3.53377,-2.5 4.2207,-2.5 2.17017,0 5.38598,4.36483 5.89454,8 0.26928,1.925 0.78452,4.21758 1.14453,5.0957 0.56989,1.39008 1.03811,4.19021 1.44531,8.6543 0.18545,2.0331 4.87136,1.42526 7.05078,-0.91406 2.00656,-2.15379 2.98708,-4.59114 5.01758,-12.48242 1.08428,-4.21391 3.38706,-6.11993 5.42187,-4.48633 0.61779,0.49598 2.61675,1.22096 4.44141,1.61133 1.82466,0.39038 3.54185,1.29622 3.81641,2.01171 0.84192,2.19403 -1.66509,9.69393 -4.72852,14.14649 -2.91722,4.24003 -3.74118,7.36328 -1.94141,7.36328 1.59137,0 9.9548,-5.62204 12.58399,-8.45898 1.59894,-1.72528 2.45117,-3.82193 2.45117,-6.03321 0,-3.96498 1.17968,-5.01763 3.95703,-3.53125 3.27324,1.75179 4.23349,4.65666 3.49414,10.57422 -0.49218,3.93927 -1.47308,6.33896 -3.55078,8.69531 -1.57813,1.78977 -2.87575,3.64371 -2.88477,4.1211 -0.009,0.4774 -1.36562,2.40591 -3.01562,4.28515 -2.65227,3.02077 -3,4.14606 -3,9.69922 0,5.92163 -0.20036,6.45763 -3.5,9.37891 -3.84817,3.4069 -4.69789,8.08448 -2.14258,11.79687 0.74674,1.08488 1.90412,3.65291 2.57227,5.70704 1.08022,3.32095 0.97183,4.16848 -0.97852,7.63867 -2.7759,4.93906 -2.30272,6.28283 2.35938,6.70117 5.09943,0.45758 5.27512,0.6505 5.55468,6.11719 0.30172,5.90031 1.30407,7.09091 4.51758,5.37109 1.5505,-0.8298 2.85827,-2.84996 3.63086,-5.60938 1.2859,-4.59275 4.06657,-7.79276 7.73828,-8.90624 3.32406,-1.00807 4.64822,-4.23964 4.83594,-11.79493 0.0922,-3.71164 0.63691,-7.98664 1.20899,-9.5 0.57207,-1.51336 1.2859,-7.09783 1.58789,-12.41015 0.51427,-9.04673 0.39515,-9.88625 -1.87696,-13.23438 -6.15738,-9.07342 -7.91429,-13.50252 -9.13086,-23.00195 -0.20386,-1.59183 -0.87724,-3.50433 -1.49609,-4.25 C 719.02154,505.32005 719.09913,505 720.21094,505 c 0.80068,0 1.78506,0.3375 2.1875,0.75 0.40244,0.4125 3.23453,1.65 6.29297,2.75 l 5.56054,2 1.94727,7.5 c 2.43365,9.37547 3.95097,11.17487 9.26172,10.9707 6.63031,-0.2549 7.57327,-0.0518 8.22265,1.7793 1.20101,3.38658 3.63249,5.25 6.84961,5.25 1.77242,0 3.68046,0.5625 4.24024,1.25 1.24237,1.52583 4.79128,12.89835 5.71289,18.30469 0.36981,2.16941 0.82856,4.62031 1.01758,5.44531 0.18902,0.825 0.37782,2.27674 0.41992,3.22656 0.12231,2.76071 4.51181,5.14546 7.00976,3.8086 1.75393,-0.93867 2.06641,-2.06149 2.06641,-7.41211 0,-3.46824 0.59638,-8.28994 1.32617,-10.71485 0.72979,-2.42491 1.37585,-4.6332 1.43555,-4.9082 0.91633,-4.22044 6.07907,-15 7.18359,-15 2.54392,0 0.83005,-4.61784 -2.59765,-7 -1.9785,-1.375 -4.5621,-3.46688 -5.74219,-4.64844 C 780.57232,516.31588 776,504.15671 776,500.78516 c 0,-1.70915 -2.62321,-3.13542 -4.09375,-2.22657 -0.50239,0.31049 -0.64971,1.61325 -0.32813,2.89453 0.93926,3.74226 -1.411,4.01527 -5.5957,0.65235 -4.66567,-3.74943 -5.75494,-3.85631 -6.56054,-0.64649 -1.2482,4.97322 -3.05937,5.12955 -7.88477,0.68164 C 747.19313,498.13649 744,497.47719 744,500.58398 c 0,0.75347 -1.0125,2.03167 -2.25,2.83985 -1.99368,1.30201 -2.9,1.27584 -7.95703,-0.22266 -4.79887,-1.42201 -5.7538,-2.08883 -6,-4.19531 L 727.5,496.5 l -10.10938,0.36133 c -8.65521,0.30902 -10.66872,0.0687 -14,-1.66602 -2.13995,-1.11438 -6.59062,-2.48134 -9.89062,-3.03711 -3.3,-0.55577 -9.30728,-1.57299 -13.34961,-2.26172 -4.04232,-0.68874 -7.55486,-1.78918 -7.80664,-2.44531 -0.25178,-0.65613 0.58051,-2.77382 1.84961,-4.70703 1.2691,-1.93322 3.04968,-4.80559 3.95898,-6.38086 0.90931,-1.57528 4.31392,-7.36811 7.56446,-12.87305 3.25054,-5.50494 7.16549,-12.6603 8.69922,-15.90234 4.42901,-9.36217 6.05229,-10.6195 15.19921,-11.76562 9.47595,-1.18735 22.88467,-1.11307 27.29688,0.15234 4.88657,1.40132 7.55198,-0.11208 4.88867,-2.77539 -0.93333,-0.93333 -0.76667,-1.19615 0.75,-1.18555 1.0725,0.008 3,0.29509 4.2832,0.63867 2.28089,0.61073 2.31605,0.80616 1.60352,8.73633 -1.33154,14.8193 -0.62944,17.60639 4.43555,17.61719 3.89077,0.008 10.38027,1.97317 12.37695,3.74805 0.9625,0.85558 1.75,2.59483 1.75,3.86523 0,2.94102 1.99883,3.97706 10.57812,5.48047 9.48736,1.66253 10.35314,2.59688 8.1504,8.79883 -2.63334,7.41436 -2.30605,9.58091 1.82617,12.13476 3.24386,2.00482 3.94177,2.0874 8,0.95118 6.23048,-1.74444 5.90074,-3.98438 -0.58594,-3.98438 -6.258,0 -6.90631,-1.27084 -4.22656,-8.29102 1.76629,-4.62717 1.8484,-5.75543 0.73828,-10.11132 -0.6873,-2.69674 -1.02238,-6.60136 -0.74414,-8.67578 C 791.36969,458.19986 788.11037,453 784.51562,453 c -3.1802,0 -11.43393,-3.62206 -12.07812,-5.30078 -1.367,-3.56236 4.72188,-11.66877 10.38086,-13.82031 2.80171,-1.06521 19.05883,-0.10707 20.74805,1.22265 2.33987,1.84188 11.62198,0.77301 14.43554,-1.66211 1.44521,-1.25082 6.28746,-3.48884 8.625,-3.98633 7.22012,-1.53658 6.88346,-4.09063 -0.47851,-3.63085 L 821,426.14258 v -3.51172 c 0,-1.93187 0.39653,-3.7573 0.88086,-4.05664 1.30259,-0.80504 1.99895,-5.53067 0.91406,-6.20117 -0.51501,-0.31829 -3.28647,-0.54993 -6.16015,-0.51563 -4.9348,0.0589 -5.49927,-0.20643 -10.15625,-4.7793 C 802.21994,402.89648 799,401.53486 799,403.91602 c 0,1.62224 8.74174,10.42259 12.00977,12.08984 3.30874,1.68799 3.56229,2.1552 3.77148,6.96289 0.12332,2.83433 -0.26591,6.0696 -0.86523,7.18945 -1.17786,2.20085 -0.45251,2.20277 -15.91602,-0.0801 -4.125,-0.60894 -8.625,-0.86609 -10,-0.57226 -1.375,0.29383 -4.04657,0.72788 -5.9375,0.96484 -1.89093,0.23696 -4.68664,1.35351 -6.21094,2.48047 -1.52429,1.12696 -3.18453,2.04883 -3.68945,2.04883 -0.50493,0 -1.43096,0.61875 -2.05859,1.375 -2.05053,2.47074 -5.87897,1.60776 -8.58008,-1.93359 -3.05852,-4.00989 -3.15049,-4.77506 -0.47461,-3.92579 1.12639,0.35751 2.67017,0.13196 3.43164,-0.5 0.76147,-0.63195 4.03972,-1.52368 7.28515,-1.98242 7.93484,-1.12158 16.43852,-4.80916 15.97071,-6.92578 -0.19536,-0.88393 -1.00258,-1.43986 -1.79492,-1.23437 -0.79234,0.20548 -3.01641,0.78642 -4.94141,1.29101 -1.925,0.50458 -6.2,1.33439 -9.5,1.84375 -3.3,0.50935 -9.375,1.44507 -13.5,2.07813 -4.125,0.63306 -10.65,1.27151 -14.5,1.41992 -3.85,0.1484 -9.3625,0.57712 -12.25,0.95117 -3.74373,0.48497 -5.25,0.34088 -5.25,-0.49805 0,-0.77048 -0.94901,-0.95628 -2.75,-0.54101 l -2.75,0.63281 2.5,-2.00195 c 1.375,-1.1019 2.85892,-2.01515 3.29688,-2.02735 1.35401,-0.0378 18.38808,-8.66143 21.53515,-10.90234 3.68681,-2.62526 4.80195,-2.63388 10.75977,-0.0801 5.30588,2.27436 7.4082,1.99873 7.4082,-0.97265 0,-1.91121 2.39073,-3.81792 4.5,-3.58985 0.55,0.0595 2.44031,0.87661 4.20117,1.81641 2.59371,1.38429 3.68146,1.49024 5.73047,0.55664 1.39107,-0.63381 2.78461,-1.9554 3.0957,-2.93555 0.41709,-1.31415 2.06356,-1.9622 6.26954,-2.46875 3.13698,-0.3778 7.05312,-1.2316 8.70312,-1.89843 1.65,-0.66684 6.15,-1.24671 10,-1.28711 3.85,-0.0404 9.20277,-0.83078 11.89453,-1.75586 2.69177,-0.92508 6.4353,-1.82499 8.31836,-2 4.97737,-0.4626 9.24475,-2.44911 8.64063,-4.02344 -0.6872,-1.79079 -8.28945,-5.2822 -14.125,-6.48633 -2.60081,-0.53666 -8.58357,-1.14501 -13.29493,-1.35156 -4.71135,-0.20654 -9.64171,-0.95037 -10.95703,-1.6543 -2.82244,-1.51053 -7.59613,-1.54894 -9.37304,-0.0742 -2.08607,1.73128 -14.28016,5.14734 -16.00782,4.48438 -3.60722,-1.38422 -8.697,0.75937 -14.86132,6.25976 C 752.37203,400.33529 732.58072,414 730.7207,414 c -1.0722,0 -6.28353,2.36765 -20.88672,9.49023 l -8.66406,4.22657 -0.64453,-3.4336 c -0.39331,-2.0965 -0.18446,-3.98993 0.53711,-4.85937 1.40691,-1.69523 7.06921,-1.89173 8.66016,-0.30078 0.8306,0.8306 1.86011,0.60108 3.95117,-0.88282 1.55487,-1.10341 3.72617,-2.17746 4.82617,-2.38671 1.35918,-0.25856 2,-1.17444 2,-2.85743 0,-1.96455 -0.62016,-2.58765 -3,-3.01757 -2.95746,-0.53427 -2.9958,-0.62403 -2.74219,-6.24024 0.29086,-6.44127 0.92717,-5.97524 -11.1875,-8.16601 -5.37704,-0.97236 -6.0039,-1.35154 -6.74414,-4.07227 -0.44887,-1.65 -0.63439,-3.49175 -0.41211,-4.09375 0.36718,-0.9944 6.04415,-2.92286 11.08594,-3.76563 1.1,-0.18385 3.26614,-0.85421 4.81445,-1.48828 4.24262,-1.73745 5.49613,-1.46173 10.68555,2.34766 2.62237,1.925 5.12168,3.5 5.55469,3.5 0.433,0 1.59476,0.72939 2.58008,1.62109 2.34976,2.12651 4.64348,1.15063 5.4707,-2.32812 1.09458,-4.60312 3.16439,-6.35394 5.99023,-5.06641 1.3222,0.60244 2.4043,1.50394 2.4043,2.00391 0,0.49998 1.0125,0.76559 2.25,0.58984 1.6111,-0.22881 2.33981,-1.10092 2.56641,-3.07031 0.40793,-3.54537 3.11892,-4.94356 8.05468,-4.1543 4.66549,0.74604 5.54563,-0.36376 6.41797,-8.0957 0.66229,-5.87019 5.29092,-16.6727 9.06055,-21.14453 4.65994,-5.52798 3.28263,-7.53487 -4.60547,-6.71289 -2.84323,0.29628 -5.92462,-0.10944 -8.26172,-1.08594 -5.21228,-2.17783 -8.01852,-1.94455 -10.14844,0.8418 -3.02234,3.95381 -5.78263,4.1452 -9.43554,0.65429 C 739.14151,340.37371 737.16179,339 736.5,339 c -0.6618,0 -1.98138,2.87227 -2.93164,6.38281 -2.00282,7.39903 -6.18894,13.05945 -9.68555,13.09375 -1.95646,0.0192 -3.09737,1.43691 -6.44922,8.02344 -3.82293,7.51221 -4.35551,8.09498 -8.74218,9.57227 -2.56933,0.86528 -4.97543,1.87778 -5.34766,2.25 -2.78283,2.78284 -8.70168,-1.85017 -7.77734,-6.08789 1.24327,-5.69991 2.59902,-7.80373 6.45117,-10.01172 6.04599,-3.46546 7.37322,-6.10647 6.27539,-12.47852 -0.86496,-5.02051 -0.5441,-7.38927 2.2168,-16.35547 0.5115,-1.6611 -0.88644,-3.84378 -6.56836,-10.25 C 699.97085,318.66196 695.9387,315 694.98047,315 c -1.24022,0 -2.08314,1.34875 -2.92188,4.67969 -0.64804,2.57358 -2.04992,5.90546 -3.11718,7.40429 -1.08828,1.52835 -1.95631,4.41356 -1.97461,6.57032 -0.018,2.1151 -0.90271,6.3207 -1.9668,9.3457 -2.30121,6.54189 -2.49965,10.83544 -0.62695,13.52734 2.34803,3.37519 2.81447,8.1039 1.59765,16.18555 -1.96261,13.03494 -4.53696,15.46852 -11.64648,11.00781 -2.10363,-1.31988 -5.08712,-2.71245 -6.63086,-3.09375 -2.27124,-0.561 -2.68199,-1.08706 -2.15234,-2.75586 0.36001,-1.13427 1.45043,-7.07172 2.42382,-13.19336 2.81404,-17.69756 1.07089,-29.20585 -6.05078,-39.92773 C 659.76182,321.50974 658,318.56198 658,318.19922 c 0,-2.94759 -25.23567,-37.76103 -29.01953,-40.0332 l -2.22266,-1.33399 3.77149,-3.86133 c 3.69179,-3.78074 3.73661,-3.91589 2.10742,-6.40234 -2.64941,-4.04351 -6.05059,-5.68752 -14.10938,-6.81836 C 614.38683,259.16899 611,258.37097 611,257.97656 c 0,-0.39442 2.1375,-1.27354 4.75,-1.95508 2.6125,-0.68154 6.55,-1.81514 8.75,-2.51757 15.78239,-5.03913 18.5732,-5.47771 21.18945,-3.33399 2.13147,1.7465 6.77801,0.55393 7.11719,-1.82617 0.67923,-4.76639 -11.45222,-10.56787 -24.80664,-11.86328 -9.90095,-0.96041 -11.66513,-1.74201 -13.42383,-5.95117 -1.65327,-3.95683 -5.96245,-8.21265 -9.2207,-9.10547 -1.73739,-0.47607 -2.27459,-1.62432 -2.82617,-6.03906 -1.1717,-9.37797 -6.64467,-13.25715 -12.61133,-8.93946 -1.88018,1.36057 -4.99297,3.35589 -6.91797,4.4336 -5.20887,2.9162 -11.00285,8.76683 -16.45898,16.62109 -7.49511,10.78943 -7.98905,11.43515 -8.79102,11.46875 -0.4125,0.0173 -0.75,-1.5848 -0.75,-3.56055 0,-2.07808 -0.84303,-4.66391 -2,-6.13476 -2.31891,-2.94802 -2.56164,-5.56188 -0.66406,-7.13672 0.73437,-0.60947 1.91701,-3.02767 2.6289,-5.37305 1.45067,-4.77937 2.97415,-8.50568 7.06055,-17.26367 1.53975,-3.3 3.04544,-8.06582 3.3457,-10.58984 0.30026,-2.52403 1.62768,-7.24903 2.94922,-10.5 1.32155,-3.25098 2.96115,-7.71016 3.64258,-9.91016 0.68144,-2.2 3.39906,-8.5 6.04102,-14 2.64197,-5.5 7.58795,-15.85 10.99023,-23 3.40229,-7.15 7.16947,-14.35 8.37109,-16 4.67605,-6.42088 7.79868,-13.47913 7.19727,-16.271484 -0.49437,-2.295433 -0.0978,-3.005838 2.50586,-4.478516 1.70168,-0.9625 3.53276,-1.75 4.06836,-1.75 1.44513,0 10.13235,-4.027725 11.86328,-5.5 0.825,-0.70172 4.67781,-1.832224 8.5625,-2.513672 3.88471,-0.681447 7.86177,-1.823352 8.83789,-2.537109 2.8674,-2.096698 1.5071,-4.741194 -3.36523,-6.541016 -2.44585,-0.903488 -4.61955,-2.159427 -4.83008,-2.791015 C 633.75449,71.765392 644.0123,67 647.37305,67 c 1.27407,0 3.13146,-0.9 4.12695,-2 1.71624,-1.896416 1.71989,-2.098429 0.082,-3.908203 -2.44012,-2.69631 -5.81755,-3.790743 -15.83203,-5.128906 -5.23822,-0.699947 -8.74809,-1.629923 -8.74609,-2.316407 0.005,-1.524941 3.64158,-7.52672 6.45117,-10.646484 3.30219,-3.666729 3.67382,-5.572235 1.47461,-7.5625 -1.86021,-1.683467 -2.3439,-1.545838 -12.50586,3.554688 -10.48042,5.260372 -10.58838,5.288575 -12.52149,3.355468 -1.50341,-1.503411 -2.04601,-3.731634 -2.37109,-9.730468 -0.23188,-4.279064 -0.91155,-8.369026 -1.50977,-9.089844 -1.51901,-1.830286 -5.07736,-2.611592 -5.46289,-1.199219 -0.3307,1.211541 -4.81871,18.737356 -6.83007,26.671875 -0.6274,2.475 -1.16165,5.175 -1.18555,6 -0.0768,2.652743 -6.49446,21.398595 -8.39453,24.519531 -2.23132,3.665023 -6.12272,4.35088 -7.96289,1.404297 -1.06746,-1.709279 -0.88883,-2.733636 1.17968,-6.720703 2.92175,-5.631697 3.44543,-7.058851 5.20704,-14.203125 1.95846,-7.942562 1.83315,-10 -0.60743,-10 -1.84095,0 -1.97835,-0.451782 -1.45898,-4.75 0.75777,-6.271315 -0.53608,-10.660773 -3.25781,-11.060547 -2.42321,-0.355928 -3.00683,-2.342609 -3.70313,-12.601562 -0.41331,-6.089473 -1.03968,-8.302572 -2.79101,-8.414063 z m -2.63868,7.011719 c 0.34272,0.03272 0.68741,0.216701 1.02735,0.556641 1.06973,1.069728 -0.3918,31.10556 -1.75196,36.007812 -0.38639,1.392652 -0.1858,2.25 0.52735,2.25 1.26341,0 4.42355,-6.727084 5.5332,-11.779297 0.3864,-1.759259 1.14463,-3.470382 1.68555,-3.804687 1.44751,-0.894609 -0.004,11.427714 -1.74219,14.789062 -0.78923,1.526187 -1.38396,2.891893 -1.32226,3.035156 0.0617,0.143263 -0.66105,2.190464 -1.60547,4.550782 -0.94441,2.360318 -1.52261,4.487161 -1.28516,4.724609 0.23744,0.237449 2.10246,-1.807702 4.14453,-4.542969 C 575.36823,63.23739 577.47156,61 578,61 c 0.97696,0 -3.19271,8.26329 -5.55078,11 -0.71086,0.825 -1.60695,2.85 -1.99024,4.5 -0.38328,1.65 -1.32931,4.0125 -2.10156,5.25 -1.06274,1.703001 -2.30998,2.235936 -5.13086,2.191406 -5.53537,-0.08738 -10.53814,-3.799991 -12.23828,-9.082031 -1.70973,-5.311847 -5.57827,-13.306108 -8.40039,-17.359375 -2.11051,-3.031204 -2.47897,-3.974223 -3.33203,-8.5 -0.42472,-2.253327 -0.0709,-2.08518 3.59375,1.707031 2.2362,2.31404 4.99459,6.02654 6.12891,8.25 1.13432,2.22346 2.76933,4.042969 3.63476,4.042969 1.2891,0 1.47241,-0.858574 1.01367,-4.75 -0.61763,-5.239328 -1.46386,-17.459903 -1.85351,-26.75 -0.1384,-3.3 0.14359,-6.225 0.62695,-6.5 1.20509,-0.685621 3.78913,7.888261 5.42578,18 l 0.72852,4.5 2.13281,-7 c 1.1727,-3.85 2.69568,-9.592279 3.38477,-12.761719 1.0889,-5.008385 2.55785,-7.694516 4.04296,-7.552734 z m 58.50586,21.453125 C 626.86727,41.610308 627,41.683877 627,41.875 c 0,0.483665 -0.62676,1.399576 -1.39258,2.035156 -0.76583,0.63558 -1.9643,2.603782 -2.66406,4.373047 C 622.24361,50.052467 621.13839,52.175 620.48828,53 618.93586,54.970025 616,65.824923 616,69.59375 c 0,1.629039 -0.67888,3.930914 -1.50977,5.117188 -0.97403,1.390617 -1.14791,2.382126 -0.48632,2.791015 1.24126,0.767137 13.33807,1.005314 14.59961,0.287109 0.49274,-0.280523 2.24648,0.05954 3.89648,0.75586 l 3,1.265625 -4,0.783203 c -2.2,0.430414 -7.6,0.80952 -12,0.84375 -7.41931,0.05773 -8.02251,0.220279 -8.30859,2.228516 -0.20328,1.427005 0.30823,2.310496 1.5,2.59375 1.44855,0.344283 1.51006,0.530582 0.30859,0.933593 -0.825,0.276731 -3.075,1.073254 -5,1.769532 -7.27227,2.630402 -8.11341,2.43058 -14.22461,-3.382813 l -5.72461,-5.445312 2.58789,-5.81836 C 592.06228,71.117041 593.89629,66.25 594.71484,63.5 c 0.81855,-2.75 1.83721,-5.45 2.26172,-6 0.4245,-0.55 1.06535,-3.025 1.42578,-5.5 0.36042,-2.475 1.06822,-5.161631 1.57227,-5.970703 1.77118,-2.84302 2.19218,-0.113194 1.08398,7.029297 -0.61556,3.96772 -0.91444,7.419544 -0.66406,7.669922 0.76821,0.768212 3.15331,-0.961768 10.65625,-7.728516 6.54533,-5.903094 13.84705,-11.16278 15.57031,-11.361328 z M 426.37305,56.552734 c 0.49708,0.028 1.07103,0.277996 1.50976,0.806641 0.83991,1.012027 0.64873,1.755266 -0.78711,3.054687 -1.14158,1.033114 -2.14326,1.320044 -2.51367,0.720704 C 424.24345,60.586942 424.43206,59.851008 425,59.5 c 0.5679,-0.351008 0.79294,-1.026008 0.5,-1.5 -0.57114,-0.92412 0.0446,-1.49393 0.87305,-1.447266 z M 415.55859,58 C 415.80113,58 416,58.45 416,59 c 0,0.55 -0.47613,1 -1.05859,1 -0.58246,0 -0.78133,-0.45 -0.44141,-1 0.33992,-0.55 0.81605,-1 1.05859,-1 z m 225.06836,2.119141 c 4.21483,0.03581 -0.60874,3.743778 -8.62695,5.857421 -2.475,0.652423 -5.4,1.745839 -6.5,2.429688 -5.82803,3.623173 -7.7348,2.463853 -3.70898,-2.255859 2.67589,-3.13712 4.95724,-3.942881 16.45898,-5.806641 0.98806,-0.160107 1.77483,-0.229725 2.37695,-0.224609 z M 420.5,62 c 0.88992,0 1.33992,0.45 1,1 -0.33992,0.55 -0.78992,1 -1,1 -0.21008,0 -0.66008,-0.45 -1,-1 -0.33992,-0.55 0.11008,-1 1,-1 z m -19.16406,2.480469 c 0.0566,-0.008 0.11328,-0.0063 0.16797,0.0039 0.36459,0.06781 0.68704,0.538786 0.96484,1.414063 0.3667,1.155365 1.11281,2.101562 1.6582,2.101562 0.5454,0 0.71297,0.45 0.37305,1 -1.0609,1.716578 -3.33411,1.094935 -4.03125,-1.101562 -0.3667,-1.155367 -0.21797,-2.54961 0.33203,-3.09961 0.1875,-0.1875 0.36523,-0.294235 0.53516,-0.318359 z M 419.03516,69 c 3.5973,0 3.7931,1.227924 0.53711,3.361328 -1.33497,0.874707 -2.60596,2.612233 -2.82422,3.863281 -0.28954,1.659615 -0.55682,1.869819 -0.99219,0.775391 -2.12403,-5.339328 -1.03386,-8 3.2793,-8 z m -21.72071,3.328125 C 398.1217,72.226189 399,73.418374 399,75.058594 399,76.126135 398.59857,77 398.10742,77 c -1.17436,0 -2.27168,-2.925164 -1.54101,-4.107422 0.21802,-0.352771 0.47896,-0.530474 0.74804,-0.564453 z M 411,75.128906 c 0.45312,0 0.90625,0.07028 1.25,0.208985 0.6875,0.277413 0.125,0.503906 -1.25,0.503906 -1.375,0 -1.9375,-0.226493 -1.25,-0.503906 0.34375,-0.138706 0.79688,-0.208985 1.25,-0.208985 z m -18.56641,2.832032 c 0.46435,-0.03568 1.32221,0.552642 2.24024,1.58789 2.36667,2.668835 1.78924,3.241375 -1.1211,1.113281 -1.0058,-0.73546 -1.65263,-1.83806 -1.43945,-2.451171 0.0546,-0.156888 0.16553,-0.238108 0.32031,-0.25 z m 19.12305,5.060546 c 0.76569,0.0073 1.44336,0.299788 1.44336,0.871094 0,1.103762 -2.59457,2.178813 -3.375,1.398438 -0.31377,-0.313819 -0.33152,-0.956402 -0.0391,-1.429688 0.35102,-0.567965 1.20501,-0.847131 1.9707,-0.839844 z m 173.95703,4.21875 c 0.27987,0.0058 0.58455,0.02852 0.92188,0.0625 4.76995,0.480523 9.23749,3.754656 11.61133,8.507813 1.96316,3.930848 2.05038,4.768733 0.91601,8.820313 -0.68936,2.46217 -2.98713,7.35169 -5.10742,10.86719 -2.1203,3.5155 -3.85547,6.81144 -3.85547,7.32422 0,0.51278 -0.62298,1.44981 -1.38477,2.08203 -0.76178,0.63223 -3.73457,5.75042 -6.60546,11.37304 -2.87089,5.62262 -5.83953,11.34766 -6.59766,12.72266 -2.04943,3.71697 -8.4133,17.93139 -8.4043,18.77148 0.004,0.40044 -1.39067,4.32852 -3.10156,8.72852 -1.71088,4.4 -3.9255,10.25 -4.91992,13 -8.43141,23.31654 -14.11933,35.9572 -27.54688,61.21094 -2.59401,4.87867 -3.06984,7.78143 -1.43945,8.78906 0.55,0.33992 1,-0.0261 1,-0.81445 0,-0.78833 1.55509,-3.13077 3.45508,-5.20508 1.89999,-2.07431 4.63488,-6.10648 6.07812,-8.95899 1.44324,-2.8525 3.68425,-6.49869 4.98047,-8.10351 l 2.35742,-2.91797 2.04102,2.00586 c 1.4565,1.43021 2.26902,4.01178 2.82812,9 1.67869,14.9772 -4.29743,29.81664 -16.95117,42.09766 -8.15198,7.91186 -14.2055,11.1695 -22.09961,11.88867 v -0.002 c -3.40387,0.3101 -6.89694,0.78296 -7.76172,1.04883 -0.86479,0.26611 -1.79234,0.2644 -2.06054,-0.004 -0.2682,-0.26821 -3.11382,-0.59809 -6.32422,-0.73243 -5.62632,-0.23544 -6.06972,-0.4605 -12.26367,-6.23046 -3.53429,-3.29236 -7.40425,-6.66962 -8.60157,-7.50586 -3.04647,-2.12772 -6.76649,-6.59995 -9.51953,-11.44532 -1.28781,-2.26654 -3.91034,-5.75182 -5.82812,-7.74414 C 458.2916,262.72052 453,253.27906 453,251.01367 c 0,-0.43367 1.56791,-3.06943 3.48438,-5.85547 1.91645,-2.78605 3.88829,-6.86546 4.38281,-9.0664 0.49452,-2.20094 1.6266,-4.73012 2.51562,-5.61914 0.88902,-0.88903 1.61719,-2.63821 1.61719,-3.88868 0,-1.25047 0.93345,-3.11801 2.07422,-4.15039 1.31106,-1.1865 1.91537,-2.70777 1.64258,-4.13476 -0.28488,-1.49024 0.52571,-3.33156 2.38672,-5.41602 2.11405,-2.3679 2.58939,-3.58759 1.90039,-4.875 -0.69382,-1.29641 -0.25515,-2.35048 1.78906,-4.30469 3.14377,-3.00532 10.79641,-5.14737 11.95703,-3.34765 0.40612,0.62976 0.83618,5.18811 0.95508,10.13086 0.1189,4.94275 0.60372,9.11726 1.07812,9.27539 1.65716,0.55239 3.51228,-2.13427 11.57422,-16.76172 1.3641,-2.475 6.23102,-8.775 10.81641,-14 11.36925,-12.95515 23.43013,-28.65571 34.94922,-45.5 3.38509,-4.95 6.94113,-9.9 7.90234,-11 1.59111,-1.82084 11.07021,-15.44403 13.47461,-19.36523 0.55,-0.89696 3.29819,-5.23191 6.10742,-9.63282 2.80923,-4.400914 6.15511,-9.914831 7.43555,-12.253903 1.79397,-3.277201 2.51166,-4.048643 4.4707,-4.007813 z m -30.18164,1.78711 c 2.74142,-0.03907 6.64209,1.317869 7.09375,2.757812 0.73159,2.332431 -1.54692,10.292814 -5.31055,18.558594 -1.71375,3.76377 -3.11523,7.4078 -3.11523,8.09766 0,0.68986 -2.94263,5.15387 -6.53906,9.92187 -3.59644,4.768 -7.75894,10.63569 -9.25,13.03906 -1.49107,2.40338 -5.18594,8.35938 -8.21094,13.23438 -3.40203,5.48261 -9.47009,12.96385 -15.9082,19.61328 -5.7246,5.9125 -10.98597,10.75 -11.69141,10.75 -2.54652,0 -2.47185,-2.10014 0.25781,-7.25195 2.49108,-4.70153 4.74612,-7.85789 10.18164,-14.24805 0.93567,-1.1 2.58199,-3.6875 3.65821,-5.75 1.07622,-2.0625 2.52859,-3.75 3.22851,-3.75 0.69993,0 1.27344,-0.61929 1.27344,-1.37695 0,-0.75765 0.74997,-1.99515 1.66602,-2.75 0.91604,-0.75484 3.2727,-3.84805 5.23828,-6.87305 4.69851,-7.23096 4.94791,-7.65781 9.4707,-16.18945 2.13161,-4.021 4.22683,-7.76055 4.65625,-8.31055 0.42942,-0.55 1.1003,-3.14245 1.49023,-5.76172 0.38994,-2.61926 1.07695,-4.99041 1.5254,-5.26758 0.44844,-0.27716 2.27166,-4.36496 4.05273,-9.083981 1.78108,-4.719023 3.84003,-8.811265 4.57617,-9.09375 0.45272,-0.173724 1.02362,-0.25661 1.65625,-0.265625 z M 403.44141,91 C 404.29887,91 405,91.45 405,92 c 0,0.55 -0.42387,1 -0.94141,1 -0.51754,0 -1.21867,-0.45 -1.55859,-1 -0.33992,-0.55 0.084,-1 0.94141,-1 z m -15.67774,0.150391 c 0.47844,5.72e-4 1.20696,0.392503 1.85547,1.041015 0.93519,0.935189 1.17437,1.81843 0.58984,2.179688 -1.17324,0.725099 -3.78704,-2.12702 -2.82812,-3.085938 0.0916,-0.09162 0.22333,-0.134956 0.38281,-0.134765 z m -2.29101,15.833989 c 0.53785,-0.0907 1.02734,0.27731 1.02734,1.18164 0,0.64166 -0.60568,1.36856 -1.3457,1.61523 -0.84112,0.28038 -1.21599,-0.17604 -1,-1.21875 0.1941,-0.93707 0.78051,-1.48739 1.31836,-1.57812 z m 40.43554,0.30859 c 1.53574,-0.0104 3.12879,0.2663 5.08203,0.78906 7.45363,1.9949 10.6097,4.50978 14.58985,11.62695 l 3.70312,6.62305 0.39258,19.08399 c 0.42163,20.51206 -0.79517,30.51247 -4.8164,39.58398 -1.09713,2.475 -2.25846,7.57788 -2.58008,11.33984 -0.65348,7.64372 -2.05484,9.12696 -5.58008,5.90235 -1.20952,-1.10637 -3.32422,-2.34744 -4.69922,-2.75586 -1.375,-0.40843 -4.33957,-1.80849 -6.58789,-3.11328 -5.13006,-2.97718 -5.77309,-2.96155 -9.97852,0.24609 -1.8883,1.44028 -3.43359,2.28458 -3.43359,1.87695 0,-0.40762 -0.71902,-0.14521 -1.59766,0.58399 -0.87864,0.72921 -2.34114,1.44169 -3.25,1.58203 -0.90886,0.14033 -4.52405,1.17407 -8.0332,2.29687 -3.50915,1.1228 -7.33415,1.96886 -8.5,1.88086 -7.70588,-0.58178 -8.4044,-0.94214 -12.86914,-6.64453 -5.10275,-6.51723 -9.75,-14.8429 -9.75,-17.46875 0,-0.98454 -0.70444,-3.46297 -1.56641,-5.50781 -0.86197,-2.04483 -1.725,-4.84375 -1.91601,-6.21875 -0.19102,-1.375 -1.73463,-6.61732 -3.43164,-11.64844 C 359.38892,152.32043 358,147.10141 358,145.75195 c 0,-1.34945 -1.09613,-4.51604 -2.43555,-7.03515 -3.4023,-6.39884 -1.61657,-7.42292 17.93555,-10.29297 6.05,-0.88809 11.55208,-2.06699 12.22656,-2.6211 0.87221,-0.71655 2.38817,-0.0889 5.25,2.17774 2.21302,1.75275 4.02344,3.55389 4.02344,4.00195 0,0.44807 3.17729,4.21683 7.06055,8.375 8.04196,8.61125 13.1725,18.09047 15.04687,27.79883 2.88918,14.96458 3.57558,17.34786 5.07813,17.63867 1.99231,0.38561 3.20609,-8.94368 1.80078,-13.84375 C 423.44408,170.06047 423,165.92972 423,162.77148 c 0,-11.149 -4.66665,-24.89179 -11.44531,-33.70117 C 408.98582,125.73188 406.45019,123 405.92188,123 c -2.76198,0 3.55797,-10.87457 6.37695,-10.97266 0.43906,-0.0153 2.68906,-0.96064 5,-2.10156 3.64847,-1.80127 6.04982,-2.61547 8.60937,-2.63281 z M 396.36523,124 c 1.71755,0 9.63477,7.56392 9.63477,9.20508 0,1.73344 -1.79246,0.57432 -6.5,-4.20508 -3.58347,-3.63818 -4.43767,-5 -3.13477,-5 z m -49.41992,15.5 c 0.91163,0 2.13333,2.33535 3.3086,6.32617 1.82418,6.19411 1.82236,6.40344 -0.043,10 -1.89354,3.651 -4.4756,5.17226 -5.625,3.3125 -1.46317,-2.36746 -1.74428,-10.12224 -0.49805,-13.76367 0.72938,-2.13123 1.34564,-4.325 1.36914,-4.875 0.0235,-0.55 0.69342,-1 1.48828,-1 z m 8.58789,18.0625 c 1.2365,0.13347 1.7368,1.98804 1.86133,6.18164 0.13098,4.41073 -1.07585,4.90054 -4.7793,1.9375 -2.50925,-2.00759 -2.73367,-2.59087 -1.72656,-4.47266 0.63685,-1.18996 2.05289,-2.64218 3.14844,-3.22851 0.58896,-0.3152 1.08393,-0.46246 1.49609,-0.41797 z m -5.69336,8.3125 c 0.88387,-0.023 1.16016,2.87443 1.16016,8.55273 0,10.30484 1.31907,12.49285 6.05664,10.04297 1.61078,-0.83297 2.87946,-1.84173 2.81836,-2.24218 -0.31948,-2.09334 0.22382,-5.22852 0.90625,-5.22852 0.42942,0 1.24803,1.23971 1.82031,2.75586 1.91866,5.0831 -1.96258,11.05248 -8.61523,13.24805 -4.86239,1.60473 -5.15708,2.99609 -0.63477,2.99609 4.82521,0 9.47149,-1.86496 10.17578,-4.08398 0.63171,-1.99035 3.47266,-2.7045 3.47266,-0.87305 0,2.07151 8.21129,12.09614 12.30859,15.02734 2.30566,1.64947 5.09141,3.7716 6.19141,4.71485 1.94624,1.66891 4.65047,3.4469 7.30664,4.80468 0.73107,0.37371 3.22666,-0.71053 5.66406,-2.46093 2.3962,-1.72083 4.80985,-3.12891 5.36524,-3.12891 0.55539,0 2.28634,-1.07265 3.8457,-2.38477 3.44566,-2.89933 9.10252,-5.3518 11.81836,-5.12304 2.08676,0.17578 18.16123,5.80757 22.5,7.88281 2.25786,1.07993 2.56406,1.96659 3.16992,9.16016 0.85955,10.20574 0.43946,10.69159 -8.16992,9.44531 -13.61708,-1.9712 -26.9241,-0.0177 -33.94336,4.98047 -1.62559,1.15752 -5.34074,3.19253 -8.25586,4.52344 -11.34738,5.18064 -26.88341,3.58018 -27.625,-2.84571 -0.50637,-4.38771 3.83027,-7.96661 6.46289,-5.33398 0.38259,0.38259 2.0029,0.69531 3.60156,0.69531 5.00603,0 2.8121,-2.84052 -4.90429,-6.35156 -3.94013,-1.79279 -7.79531,-3.78387 -8.56641,-4.42383 -0.7711,-0.63996 -3.97754,-1.46579 -7.12695,-1.83594 -4.70723,-0.55324 -6.12051,-1.18443 -7.93555,-3.54687 -1.21437,-1.58061 -3.21953,-4.16912 -4.45703,-5.75196 -2.78832,-3.56645 -2.80966,-4.58365 -0.14062,-6.45312 2.16025,-1.5131 1.82915,-3.63672 -0.56641,-3.63672 -0.73651,0 -3.07289,1.8425 -5.19141,4.09375 -2.11853,2.25125 -5.76406,6.03547 -8.10156,8.41016 -2.3375,2.3747 -4.25,4.80682 -4.25,5.40429 0,2.20587 -7.22925,9.0918 -9.54492,9.0918 -1.97412,0 -2.4836,-0.76942 -3.49024,-5.26758 -1.13916,-5.09028 -1.07575,-5.43579 1.89258,-10.25 1.68953,-2.74017 3.6965,-6.33945 4.45899,-7.99804 1.66108,-3.61324 8.06731,-9.45779 10.46875,-9.55079 0.94336,-0.0365 3.73984,-1.53558 6.21484,-3.33203 3.88643,-2.82091 4.97823,-4.48212 8.00977,-12.18359 3.04583,-7.73777 4.82836,-11.51687 5.83007,-11.54297 z m 107.50782,5.78711 c 0.70799,0.0262 1.45744,0.15624 2.17187,0.40625 2.70867,0.94783 8.48047,6.08425 8.48047,7.54687 0,0.64368 0.6102,1.40542 1.35547,1.69141 1.78909,0.68654 2.90041,7.68171 1.49023,9.38086 -0.59943,0.72228 -1.47007,1.3125 -1.93359,1.3125 -1.5123,0 -7.44879,-5.76264 -8.92773,-8.66602 -0.79413,-1.55895 -2.46617,-4.22582 -3.71485,-5.92773 C 455.02086,175.70433 454,173.82378 454,173.22852 c 0,-0.88945 1.16345,-1.467 2.65625,-1.5586 0.22392,-0.0137 0.45541,-0.0165 0.69141,-0.008 z m -6.35157,11.86914 c 2.62569,-0.19074 6.69204,4.96088 7.86133,10.2168 1.50751,6.77621 1.29732,12.87846 -0.49414,14.36523 -0.83019,0.68901 -2.36993,2.93998 -3.42187,5.00195 -3.08176,6.04076 -4.84154,5.9991 -4.86524,-0.11523 -0.005,-1.375 -0.29642,-8.39665 -0.64648,-15.60352 -0.57118,-11.759 -0.4628,-13.16935 1.06054,-13.7539 0.16096,-0.0618 0.33082,-0.0986 0.50586,-0.11133 z m 142.1836,28.53711 c 1.66478,-0.0246 2.99841,0.44221 3.79687,1.4043 1.4653,1.76557 -0.0353,9.49345 -3.16015,16.27734 -1.07672,2.3375 -2.37531,4.25 -2.88672,4.25 -1.1893,0 -1.25702,0.36351 1.07031,-5.75977 1.09973,-2.8934 2,-6.6059 2,-8.25 C 594,217.06976 593.8849,217 589,217 c -5.83557,0 -6.36696,-1.12446 -1.59961,-3.38672 2.11835,-1.00522 4.11452,-1.52031 5.7793,-1.54492 z M 354.53125,220 c 1.34333,0 7.29373,2.90714 7.875,3.84766 0.35755,0.57853 -0.26569,1.54171 -1.38477,2.14062 -1.67969,0.89894 -2.46905,0.65398 -4.52734,-1.4043 C 354.21163,222.30147 353.22523,220 354.53125,220 Z m 232.74023,5.32031 c 0.2227,-0.0234 0.38661,0.004 0.47266,0.0898 0.93108,0.93107 -2.02613,4.74786 -4.36914,5.63867 -1.37737,0.52367 -3.22126,0.95117 -4.0957,0.95117 -1.37786,0 -1.34786,-0.26809 0.22656,-2.00781 1.70885,-1.88826 6.20677,-4.50773 7.76562,-4.67188 z m -11.58203,1.28125 c 0.58338,0.004 -0.13327,1.58834 -2.22461,4.66602 -1.39483,2.05267 -3.19483,3.73242 -4,3.73242 -2.34633,0 -1.73285,-1.3324 2.53516,-5.5 1.99536,-1.94842 3.23572,-2.90162 3.68945,-2.89844 z M 604.5,227 c 0.825,0 1.5,0.45 1.5,1 0,0.55 -0.675,1 -1.5,1 -0.825,0 -1.5,-0.45 -1.5,-1 0,-0.55 0.675,-1 1.5,-1 z m -1.78516,4 c 2.53263,0 2.55097,0.0488 0.78516,2 -2.01306,2.22441 -3.07863,2.4908 -4,1 -1.01336,-1.63966 0.44486,-3 3.21484,-3 z m -15.24804,4.15234 c 0.5819,-0.0679 0.5332,0.39923 0.5332,1.32227 0,0.81088 -1.32848,2.16088 -2.95117,3 -3.42238,1.76978 -4.69839,1.89941 -5.52344,0.56445 -0.32635,-0.52804 1.30672,-1.87804 3.62891,-3 2.51891,-1.217 3.7306,-1.81881 4.3125,-1.88672 z m 20.42968,2.48243 c 0.26316,0.0229 0.45492,0.12432 0.56641,0.30468 0.34813,0.56329 -1.84232,2.60798 -4.86719,4.54297 -5.2867,3.38186 -8.5957,4.42234 -8.5957,2.70313 0,-0.44813 1.4625,-1.58253 3.25,-2.52149 1.7875,-0.93896 4.6734,-2.61733 6.41406,-3.72851 1.23878,-0.7908 2.2585,-1.23319 2.94532,-1.29688 0.10302,-0.01 0.19938,-0.0115 0.2871,-0.004 z m 9.60352,2.66992 10.32617,0.72265 c 9.27772,0.64978 13.82427,1.92066 11.51172,3.2168 -0.46042,0.25806 -5.33789,1.72549 -10.83789,3.26172 -5.5,1.53623 -12.00845,3.65085 -14.46289,4.69922 -5.97064,2.55025 -11.30797,2.99512 -13.92773,1.16015 C 598.94871,252.55226 598,251.49417 598,251.01562 598,249.92227 603.76092,247 605.91602,247 c 0.88534,0 3.85499,-1.50629 6.59765,-3.34766 z m -57.21875,10.63867 5.10937,0.57812 c 24.42935,2.76382 48.41535,17.17701 65.21485,39.18555 2.00976,2.63293 4.49689,5.37531 5.52539,6.0957 1.0285,0.72039 1.86914,1.78526 1.86914,2.36524 0,0.57999 1.74717,3.14203 3.88281,5.69336 4.13892,4.94453 9.20586,12.7022 11.53321,17.6582 0.78009,1.66117 2.3392,3.85436 3.46484,4.87305 2.27345,2.05744 4.31048,7.25864 6.15039,15.71289 1.45253,6.67431 0.77017,18.03357 -1.75781,29.29687 l -1.77344,7.9043 -5.1582,2.29297 c -5.8477,2.60017 -5.84425,2.59588 -6.73438,7.53516 -0.59633,3.30894 -0.42395,3.69494 1.91211,4.28125 4.02377,1.00991 3.94004,2.93081 -0.44141,10.19531 -2.24302,3.71899 -4.07812,7.24488 -4.07812,7.83398 0,1.96439 -12.91423,24.76824 -19.10352,33.73242 -1.01697,1.47292 -2.68395,4.87243 -3.70312,7.55469 -1.82606,4.8058 -9.9708,16.02903 -14.2207,19.5957 l -2.17774,1.82813 0.5332,-3.82813 c 0.71245,-5.12589 4.29941,-15.95726 6.16797,-18.625 0.82751,-1.18144 1.50391,-2.94583 1.50391,-3.92187 0,-0.97603 1.4625,-3.46521 3.25,-5.5293 5.52806,-6.38343 7.06894,-10.38022 6.46289,-16.76757 -0.47279,-4.98292 -1.11254,-6.30105 -5.48828,-11.3125 -7.08471,-8.11402 -8.86502,-7.84218 -11.98633,1.82812 -2.23609,6.92775 -4.57987,21.37208 -4.34961,26.80273 0.0537,1.26665 0.63954,3.29165 1.30078,4.5 1.58203,2.89098 1.53948,3.77739 -1.13281,23.69727 -0.94225,7.02379 -5.49898,20.2036 -9.17969,26.55273 C 590.57876,502.51705 583.14891,511 581.97461,511 c -0.34568,0 -1.18461,-4.24428 -1.86328,-9.43164 -0.97646,-7.46347 -3.83969,-20.7005 -7.1543,-33.06836 -0.1474,-0.55 0.72211,-3.13734 1.93359,-5.75 1.81501,-3.9142 2.03125,-5.37545 1.22461,-8.29688 -0.64895,-2.35036 -0.6359,-4.5287 0.0391,-6.46484 0.55998,-1.60635 0.75984,-4.6241 0.44336,-6.70508 -0.31647,-2.08099 -0.79116,-6.58814 -1.05274,-10.01562 -0.55748,-7.3047 -2.24061,-10.99027 -6.75976,-14.80078 -4.6194,-3.89503 -9.50868,-5.74095 -13.3125,-5.02735 -3.33851,0.62631 -6.47266,-0.0776 -6.47266,-1.45312 0,-0.43966 1.0125,-0.55982 2.25,-0.26758 2.17116,0.51274 2.18187,0.47946 0.32812,-0.95508 -1.05656,-0.81764 -2.73024,-1.27463 -3.7207,-1.01562 -2.47924,0.64833 -6.85742,4.84635 -6.85742,6.57617 0,0.78135 -0.94541,3.56016 -2.10156,6.17383 -1.79192,4.05094 -1.91555,5.10238 -0.83203,7.12695 0.69909,1.30626 1.53395,2.38428 1.85351,2.39648 0.31956,0.0122 1.6985,0.8826 3.06641,1.9336 l 2.48828,1.91211 -2.33203,2.48047 c -2.88933,3.07555 -2.17501,6.17817 1.64258,7.13086 5.1757,1.2916 6.22158,3.13759 5.63086,9.94531 -0.64131,7.39083 0.59257,8.97376 7.80664,10.01172 5.49434,0.79053 7.68991,3.04196 10.63086,10.90234 2.43522,6.50871 3.80014,18.14065 2.24218,19.10352 -0.61072,0.37744 -1.37902,-0.019 -1.70898,-0.87891 -0.32996,-0.85986 -1.41894,-1.5625 -2.41797,-1.5625 -0.99903,0 -3.8785,-1.575 -6.40039,-3.5 -5.69692,-4.34856 -6.93346,-4.44221 -6.05859,-0.45898 1.05865,4.82003 -0.7497,6.0889 -8.32227,5.84375 -5.42123,-0.17551 -6.99791,-0.64978 -9.58789,-2.88477 -2.87685,-2.48254 -3.55369,-2.63031 -9.41797,-2.04492 -3.47527,0.3469 -6.48642,0.36095 -6.69141,0.0293 -0.58471,-0.9461 0.16008,-9.60781 0.9336,-10.85938 1.02921,-1.66529 3.75269,-1.37707 9.02929,0.95703 3.7075,1.64 5.75992,1.93795 9.6543,1.40235 3.73096,-0.51315 5.54546,-0.28721 7.38477,0.91796 4.93095,3.23088 7.64532,0.83477 3.39648,-2.99804 -1.71787,-1.54966 -3.41368,-1.85974 -9.08789,-1.66602 -6.41718,0.21909 -7.34882,-0.0204 -11.63867,-2.98437 -2.56462,-1.77194 -5.33351,-3.07186 -6.1543,-2.88868 -0.82079,0.18318 -3.70839,2.54824 -6.41601,5.25586 -2.70762,2.70762 -6.08623,5.17578 -7.50782,5.48438 -4.47483,0.97139 -5.08398,1.29648 -5.08398,2.70508 0,0.7552 1.75339,1.89893 3.89648,2.54101 2.14308,0.64208 4.16084,1.8561 4.48438,2.69922 0.32353,0.84311 2.49705,2.38711 4.83008,3.43164 3.33274,1.49211 5.58679,1.77471 10.51562,1.31446 6.62249,-0.61843 6.99283,-0.4222 5.06055,2.67187 -1.80144,2.88457 -0.53154,3.36197 5.90625,2.22266 7.21824,-1.27743 16.42399,-0.92078 22.21094,0.86132 4.90583,1.51076 7.64771,5.10127 9.8789,12.93946 2.41822,8.49523 2.64025,12.88107 0.75977,14.95898 -2.0673,2.28435 -8.61597,3.57699 -11.19336,2.20899 -1.01756,-0.54009 -4.47966,-2.24146 -7.69336,-3.78125 -3.21371,-1.5398 -6.65213,-3.83069 -7.64258,-5.08985 -1.88299,-2.39383 -4.45885,-2.99579 -5.51367,-1.28906 -0.33992,0.55 -1.33671,1 -2.21484,1 C 536.06111,520 530,515.20766 530,513.44922 c 0,-1.81398 -1.43012,-1.77401 -6.5,0.18164 -4.5258,1.74578 -8.48492,1.82099 -13.30859,0.25195 -3.97348,-1.29248 -10.87802,-1.4995 -17.69141,-0.52929 -2.75,0.39159 -7.20965,0.92483 -9.91016,1.18359 -4.64999,0.44557 -8.32615,2.44801 -13.93164,7.5918 -2.94222,2.69988 -1.75867,5.3653 2.40039,5.4082 2.19012,0.0226 5.5597,1.28714 8.89258,3.33789 4.54703,2.79781 5.72914,3.13684 7.74414,2.21875 2.13819,-0.97423 2.58334,-0.73564 4.41407,2.36719 2.21134,3.74795 5.44571,5.38436 7.1914,3.63867 C 499.90542,538.49497 501.59862,538 503.06445,538 506.00024,538 511,534.58646 511,532.58203 c 0,-0.69984 0.92587,-2.10948 2.05664,-3.13281 1.58521,-1.4346 2.44903,-1.61543 3.77539,-0.78711 2.66785,1.6661 11.20081,1.47054 16.04688,-0.36914 3.91946,-1.48791 4.4958,-1.50157 5.5,-0.13086 1.43647,1.96078 6.21195,4.40183 10.35937,5.29492 1.7812,0.38355 3.49482,1.11145 3.8086,1.61914 0.31376,0.50768 1.35789,0.92383 2.32031,0.92383 0.96242,0 2.62378,0.675 3.6914,1.5 1.73043,1.33718 1.77458,1.63568 0.39649,2.75 -0.85024,0.6875 -2.25678,2.28166 -3.125,3.54297 -2.20463,3.20278 -13.38155,12.74496 -17.17774,14.66601 -3.7564,1.90092 -5.13727,2.73777 -13.70117,8.29102 -3.60476,2.3375 -7.02969,4.25 -7.61133,4.25 -0.58164,0 -3.03429,1.72504 -5.44922,3.83398 -2.41491,2.10893 -6.64062,5.11962 -9.39062,6.68946 -2.75,1.56983 -6.28087,3.90189 -7.8457,5.18164 -1.56483,1.27975 -5.61483,3.6781 -9,5.33008 -3.38517,1.65197 -8.4043,4.67375 -11.1543,6.71679 -5.51144,4.09456 -8.62505,5.46437 -18.93164,8.32422 -8.84616,2.45461 -15.62376,2.02226 -29.31836,-1.86914 -2.3375,-0.66421 -6.1625,-1.70577 -8.5,-2.31641 -4.61763,-1.20627 -11.85867,-5.11192 -13.78711,-7.43554 -0.66386,-0.79991 -1.26564,-3.1424 -1.33594,-5.20508 -0.0703,-2.06268 -0.39193,-4.2 -0.71679,-4.75 -1.10718,-1.87452 0.18282,-12.86846 2.46484,-21 2.33697,-8.32735 4.625,-18.22722 4.625,-20.01172 0,-0.92594 1.74251,-5.35216 3.87305,-9.83594 4.1252,-8.6816 8.12695,-18.11256 8.12695,-19.15429 0,-0.34712 -1.17336,-0.48849 -2.60742,-0.31446 -2.09329,0.25403 -2.9696,1.27513 -4.44531,5.17774 -3.657,9.67116 -7.23993,10.98065 -12.00782,4.38867 -1.69069,-2.3375 -4.17004,-4.82618 -5.50781,-5.53125 C 395.09388,518.51369 394,517.29044 394,516.50195 c 0,-0.96525 -1.63355,-1.64912 -5,-2.0957 -4.82609,-0.6402 -5,-0.77655 -5,-3.88086 C 384,507.0613 381.46886,504 378.60547,504 c -0.95535,0 -2.63697,-0.48195 -3.73633,-1.07031 -1.50012,-0.80284 -1.72808,-1.39456 -0.91602,-2.37305 1.45552,-1.75378 -2.65444,-4.43991 -8.25781,-5.39648 -3.64335,-0.62197 -4.25102,-1.09896 -4.69531,-3.6875 -0.46004,-2.68031 -0.95103,-3.02192 -4.99023,-3.47266 -3.97422,-0.44349 -4.4834,-0.78254 -4.4961,-3 -0.0123,-2.16345 -0.55215,-2.56731 -4.01367,-3 -3.66667,-0.45833 -4,-0.75 -4,-3.5 0,-2.80571 -0.28593,-3.03238 -4.42188,-3.5 -2.43227,-0.275 -4.60794,-1.0625 -4.83398,-1.75 -0.22604,-0.6875 0.076,-1.25 0.67188,-1.25 0.59583,0 1.08398,-0.59802 1.08398,-1.33008 0,-1.65874 -3.44882,-3.44439 -7.84375,-4.05859 -4.25302,-0.59437 -5.20279,-1.52407 -2.32227,-2.27735 2.9557,-0.77293 2.22862,-2.74922 -1.16015,-3.15039 C 322.90944,460.97471 322,460.26872 322,459.10742 322,456.77819 317.89157,453 315.35938,453 313.17486,453 309,449.1389 309,447.11914 c 0,-0.68821 -0.54057,-2.23421 -1.20117,-3.43555 -0.66061,-1.20134 -1.33954,-3.08359 -1.50781,-4.18359 -0.16828,-1.1 -1.32305,-2.9 -2.56641,-4 -1.24336,-1.1 -4.01543,-4.61763 -6.16016,-7.81641 l -3.89843,-5.8164 2.0625,-4.2461 c 1.99214,-4.10044 2.00186,-4.32771 0.27343,-6.61914 -2.168,-2.87417 -1.06822,-6.19636 2.60743,-7.87109 C 299.92372,402.532 301,401.59164 301,401.04102 c 0,-0.55061 1.88306,-1.96208 4.18555,-3.13672 8.80985,-4.49445 16.22241,-6.2044 40.31445,-9.30664 16.41933,-2.11426 42.58518,-3.02441 81,-2.81641 56.18004,0.30419 57.42282,0.47173 50,6.76563 -2.2,1.8654 -5.125,3.66591 -6.5,4 -5.85601,1.42282 -17.56973,10.21738 -15.87109,11.91601 0.58538,0.58538 17.51371,-7.33825 21.93164,-10.26562 7.64921,-5.06844 11.85399,-7.99106 15.21093,-10.57032 C 495.18742,384.6182 505,372.76642 505,371.04492 c 0,-0.54941 1.33936,-3.47581 2.97656,-6.50195 2.92855,-5.41302 3.44089,-7.08113 4.625,-15.04297 0.32719,-2.2 2.34372,-8.1602 4.48047,-13.24414 2.13675,-5.08394 3.97126,-10.70894 4.07617,-12.5 0.1049,-1.79106 0.42167,-3.68534 0.70313,-4.21094 0.28146,-0.52559 0.59412,-2.97061 0.69531,-5.43359 0.16169,-3.93582 0.713,-4.94428 4.5625,-8.32422 2.40895,-2.11511 6.24213,-5.16957 8.51758,-6.78711 5.61722,-3.9931 19.32816,-19.074 19.34766,-21.28125 0.009,-0.97985 0.89527,-4.39357 1.9707,-7.58594 1.07544,-3.19238 2.26353,-8.81547 2.64062,-12.49609 z M 619.5,264 c 1.375,0 2.5,0.45 2.5,1 0,0.55 -1.125,1 -2.5,1 -1.375,0 -2.5,-0.45 -2.5,-1 0,-0.55 1.125,-1 2.5,-1 z m -38.48633,6.01562 C 579.47705,269.92391 579,271.12255 579,273.83398 c 0,2.10834 0.29935,4.13334 0.66602,4.5 1.51031,1.51032 5.19751,0.52289 6.71875,-1.79882 2.10887,-3.21854 2.1052,-3.23029 -1.33594,-5.00977 -1.8105,-0.93624 -3.11319,-1.45474 -4.03516,-1.50977 z m 27.34961,13.09571 c -1.53808,-0.0508 -2.94457,1.09527 -3.17969,3.13867 -0.24565,2.13486 0.10278,2.75 1.5586,2.75 1.03141,0 2.73243,-0.62709 3.77929,-1.39258 1.64196,-1.20062 1.71328,-1.61792 0.52735,-3.04687 -0.79396,-0.95667 -1.7627,-1.41874 -2.68555,-1.44922 z m -40.3418,1.96094 c -0.44588,-0.0192 -0.91213,0.055 -1.38476,0.23632 -2.17374,0.83414 -2.0973,5.32048 0.11328,6.625 2.90219,1.71266 4.75,0.80329 4.75,-2.33789 0,-2.5905 -1.54635,-4.44003 -3.47852,-4.52343 z m -217.69531,14.17578 c 1.54804,-0.0959 2.61765,1.85158 3.66016,6.19726 0.74531,3.10677 1.72759,5.87833 2.18359,6.16016 0.45601,0.28183 0.83008,2.09185 0.83008,4.02148 0,2.68499 -1.08083,4.83525 -4.60547,9.16211 -4.24926,5.21641 -4.56043,5.97714 -4.03125,9.83789 0.54887,4.00447 0.3812,4.34207 -3.89453,7.84571 -3.64028,2.98294 -4.46875,4.2698 -4.46875,6.94531 0,1.8061 -0.47678,4.65351 -1.06055,6.32812 -0.78102,2.24044 -1.81348,3.15545 -3.9082,3.46289 -2.75876,0.4049 -2.86335,0.26042 -3.34375,-4.64648 -0.92898,-9.48864 -0.73359,-11.75146 1.29102,-15.02734 1.40863,-2.27918 1.84054,-4.18986 1.42187,-6.28321 -0.75653,-3.78261 0.91777,-7.01556 3.84766,-7.43164 1.6384,-0.23267 3.14592,-2.09175 5.53125,-6.82031 2.85598,-5.66153 3.19979,-7.14769 2.66406,-11.51758 -0.52188,-4.25698 -0.30487,-5.29779 1.43359,-6.87109 0.94371,-0.85405 1.74557,-1.31967 2.44922,-1.36328 z M 551.81445,301 c -4.41975,0 -4.81956,2.79774 -0.86914,6.0957 3.54814,2.96212 5.61046,2.88137 6.60742,-0.25976 C 558.42005,304.10323 555.36882,301 551.81445,301 Z m 37.19141,4.36133 c -0.67586,0.0132 -1.20873,0.41624 -2.09766,1.2207 -2.50706,2.26886 -2.42864,5.93985 0.16407,7.75586 3.34387,2.34213 7.35753,0.73464 7.73632,-3.09766 0.26101,-2.64067 -0.18036,-3.38058 -2.83984,-4.75585 -1.46678,-0.75852 -2.28703,-1.13624 -2.96289,-1.12305 z m -53.79492,3.71679 c -0.76891,0.0336 -1.67282,0.52829 -2.63867,1.49415 -1.61733,1.61733 -2.0846,4.58337 -0.90625,5.76171 2.21648,2.21648 6.57161,-1.71035 5.67968,-5.12109 -0.38181,-1.46004 -1.14617,-2.17797 -2.13476,-2.13477 z m -79.39844,3.08008 c 0.94103,0.0465 2.0102,0.70071 3.55273,1.91407 3.23553,2.54507 3.27904,4.14076 0.2793,10.05273 -1.29044,2.54322 -2.58769,5.54726 -2.88281,6.67578 -0.31022,1.18627 -2.67839,3.13679 -5.61524,4.625 -5.35225,2.71219 -8.66217,3.17971 -11.14648,1.57422 -0.825,-0.53316 -3.39487,-0.97638 -5.71094,-0.98438 -3.06492,-0.0111 -4.78207,-0.62801 -6.31054,-2.26562 l -2.10157,-2.25 4.8125,-3.99219 c 2.64609,-2.19531 6.16055,-5.38436 7.81055,-7.08789 2.61356,-2.69838 3.53541,-3.04237 7.15039,-2.66406 3.71369,0.38863 4.3893,0.11019 6.4375,-2.66016 1.51712,-2.05201 2.51471,-2.99729 3.72461,-2.9375 z m -151.66016,4.92969 c 0.81679,0.0789 0.87185,1.81449 -0.0605,4.65625 -0.67764,2.06523 -1.3604,6.23086 -1.51758,9.25586 -0.15718,3.025 -0.35059,6.0625 -0.42969,6.75 -0.15124,1.31422 -4.14248,1.79556 -4.14648,0.5 -0.01,-3.54057 3.51857,-19.06111 4.58984,-20.19141 0.66476,-0.70139 1.19319,-1.00655 1.56445,-0.9707 z M 539.4668,322 c -4.49849,0 -5.28475,4.03249 -1.61914,8.29492 2.15576,2.50674 5.42004,1.75396 6.56445,-1.51367 C 545.56145,325.49953 543.00947,322 539.4668,322 Z m 26.97656,0 c -3.14959,0 -5.71323,4.58467 -3.38672,6.05664 2.31715,1.46606 6.67147,1.09248 7.33203,-0.62891 C 571.34138,324.945 569.20111,322 566.44336,322 Z m 79.11523,7 c -1.76659,0 -2.89563,1.64564 -2.05859,3 1.08749,1.7596 3.5,1.07031 3.5,-1 0,-1.1 -0.64887,-2 -1.44141,-2 z m 51.56641,1.03125 2.88867,2.13672 c 3.70793,2.74139 4.22596,4.22209 3.03711,8.68945 -0.5332,2.0036 -1.15237,5.33971 -1.375,7.41406 -0.22263,2.07436 -1.14312,4.58751 -2.04492,5.58399 -2.2617,2.49915 -4.16753,2.26874 -6.38281,-0.77149 -3.42491,-4.70029 -3.45696,-6.05426 -0.26563,-11.70898 1.66272,-2.94618 2.93298,-5.69749 2.82227,-6.11523 -0.11072,-0.41773 0.14037,-1.76551 0.55859,-2.99415 z m -125.16016,6.52734 c -1.34176,0.0921 -2.96484,0.92964 -2.96484,1.93555 0,1.71672 1.993,3.22059 5,3.77344 1.375,0.2528 2.57546,0.5208 2.66797,0.5957 0.0925,0.0749 0.90487,-0.14493 1.80469,-0.49023 1.44203,-0.55335 1.3743,-0.90698 -0.56446,-2.97071 -1.20979,-1.28775 -2.55232,-2.12249 -2.98437,-1.85546 -0.43205,0.26702 -1.04192,0.0698 -1.35547,-0.4375 -0.19948,-0.32277 -0.58512,-0.49245 -1.05078,-0.54297 -0.17463,-0.019 -0.36106,-0.021 -0.55274,-0.008 z m -292.22656,5.8418 c 2.25732,-0.0747 2.69153,0.44754 3.51367,2.25195 1.55086,3.40377 -0.0412,4.54166 -8.7832,6.2793 l -6.69727,1.33008 0.5,3.72266 c 0.43767,3.26305 0.15709,3.92291 -2.28125,5.36328 -2.60919,1.54128 -2.92149,1.52748 -5.06835,-0.21094 l -2.28907,-1.85156 3.80469,-4.64258 C 264.52967,352.08937 266.63735,350 267.12109,350 267.60484,350 268,349.3754 268,348.61133 c 0,-3.03789 3.47726,-5.39666 8.79102,-5.96289 1.23953,-0.13209 2.19482,-0.22315 2.94726,-0.24805 z m 137.88867,2.61914 c 0.63971,0.062 0.23527,1.67515 -1.9375,10.32031 -1.50445,5.98602 -2.79049,8.22513 -4.01757,6.99805 -1.57887,-1.57885 3.04435,-16.40932 5.35546,-17.17969 0.25017,-0.0834 0.45199,-0.15298 0.59961,-0.13867 z m -34.10351,0.86914 c 0.51099,-0.0595 1.51571,0.56468 2.99804,1.69531 3.19207,2.43471 13.14752,16.34827 18.29883,25.57422 1.94544,3.48426 1.9576,3.73293 0.28125,5.25 -1.93251,1.7489 -8.62459,2.17238 -9.59179,0.60742 -0.3345,-0.54124 -1.26186,-3.18352 -2.06055,-5.87304 -0.7987,-2.68951 -3.47691,-9.45662 -5.95117,-15.03711 -3.8328,-8.64456 -5.09879,-12.08593 -3.97461,-12.2168 z m 372.11914,0.30078 c 1.96019,-0.011 4.21689,1.0281 9.12109,3.37696 0.53883,0.25807 -4.99364,11.99606 -6.38867,13.55468 -1.28772,1.43872 -1.92126,1.46512 -5.66211,0.23633 -2.3169,-0.76105 -5.45121,-2.0804 -6.96484,-2.92969 -1.51363,-0.84928 -3.20113,-1.265 -3.75,-0.92578 -1.1806,0.72965 -1.3477,3.49805 -0.21094,3.49805 0.43328,0 2.34578,1.30555 4.25,2.90234 l 3.46289,2.9043 -2.33398,2.50195 c -1.28407,1.37573 -3.98407,2.80568 -6,3.17969 -2.01592,0.37401 -4.37134,1.31206 -5.23243,2.08399 -2.43141,2.17966 -7.12403,2.60167 -10.15429,0.91211 -2.40091,-1.33865 -2.67874,-2.0093 -2.36524,-5.70704 0.30204,-3.56257 1.11038,-4.87103 5.39453,-8.73437 2.7712,-2.499 5.73354,-5.95574 6.58399,-7.68359 1.47868,-3.00426 5.67218,-5.35938 9.54492,-5.35938 0.90164,0 3.40491,-0.9 5.5625,-2 2.27205,-1.15836 3.61799,-1.80202 5.14258,-1.81055 z M 578.125,348 c -2.67993,0 -3.46177,1.5031 -2.10352,4.04102 1.45239,2.71381 3.39465,2.01408 3.79493,-1.36719 C 580.06674,348.55924 579.71311,348 578.125,348 Z m -34.76758,3.01562 c -1.49004,-0.02 -2.45731,2.56156 -1.69922,4.53711 0.81373,2.12053 4.73189,1.41419 5.17969,-0.93359 0.35625,-1.86781 -1.29201,-3.57422 -3.48047,-3.60352 z m -242.90039,0.0684 c 1.35428,0.0358 2.93845,0.70963 4.30274,2.16602 2.19304,2.34109 4.24023,6.83859 4.24023,9.31445 0,0.78919 -0.38456,1.43555 -0.85547,1.43555 -1.42462,0 -9.84867,-6.7875 -10.48633,-8.44922 -1.07988,-2.81414 0.5417,-4.5265 2.79883,-4.4668 z m 348.08008,3.0879 c -0.63637,-0.014 -1.34292,0.25041 -2.05078,0.83789 -1.51974,1.26126 -2.02058,5.12395 -0.82031,6.32421 1.99649,1.9965 5.33398,-0.17655 5.33398,-3.47265 0,-2.27631 -1.06287,-3.65856 -2.46289,-3.68945 z m -375.21484,0.28124 c 0.87406,-0.0576 1.67773,0.30483 1.67773,1.13477 0,0.77634 -0.93815,1.41211 -2.08398,1.41211 -1.14584,0 -1.90847,-0.52266 -1.69532,-1.16211 0.28286,-0.84856 1.2275,-1.3272 2.10157,-1.38477 z M 579.55273,357 c -1.22067,0 -2.49071,0.27197 -2.82226,0.60352 -0.85294,0.85294 1.07065,5.53145 3.08008,7.49218 2.01524,1.96641 3.31854,1.51834 2.55078,-0.87695 -0.45745,-1.42719 -0.3737,-1.4701 0.49023,-0.24805 1.90005,2.68765 2.34536,0.24906 0.61914,-3.38867 C 582.2739,358.05995 581.11574,357 579.55273,357 Z m -41.71875,16 C 535.54413,373 535,373.44196 535,375.30078 c 0,1.265 0.53922,2.84 1.19922,3.5 1.70947,1.70947 2.10131,1.53833 3.96094,-1.73047 C 542.09172,373.67505 541.70621,373 537.83398,373 Z m 45.43555,0.20312 c -0.25681,0.009 -0.51062,0.0602 -0.75586,0.1543 -1.53181,0.58781 -2.07148,3.75274 -0.84765,4.97656 0.36666,0.36667 1.71666,0.66602 3,0.66602 1.61594,0 2.33398,-0.57665 2.33398,-1.87695 0,-2.09934 -1.93279,-3.98581 -3.73047,-3.91993 z m 55.2832,11.39063 c -0.10038,-0.007 -0.20526,-0.005 -0.3125,0.006 -1.8587,0.19318 -4.59745,3.02434 -3.9375,4.74414 0.34945,0.91067 1.33345,1.65625 2.1875,1.65625 2.03428,0 4.22699,-4.68122 2.8418,-6.06641 -0.21196,-0.21195 -0.47814,-0.31841 -0.7793,-0.33984 z m 31.8711,0.94336 c 0.89693,0.006 2.0024,0.35173 3.1289,1.08984 2.97479,1.94916 3.07457,2.96642 0.43165,4.38086 -2.59092,1.38661 -9.98438,2.17055 -9.98438,1.0586 0,-0.46741 1.1504,-1.13925 2.55664,-1.49219 1.919,-0.48164 2.41099,-1.10107 1.9707,-2.48828 -0.5159,-1.62546 0.40161,-2.55869 1.89649,-2.54883 z M 612.5,388 c -1.81631,0 -1.99117,1.63531 -0.25,2.33789 0.6875,0.27741 1.3625,0.54057 1.5,0.58399 0.1375,0.0434 0.25,-0.59688 0.25,-1.42188 0,-0.825 -0.675,-1.5 -1.5,-1.5 z m 186.43164,1.90234 c 7.02678,0.0697 14.94313,0.65887 19.87305,1.6836 l 2.30273,0.47851 -2.73242,2.89649 c -2.63501,2.79181 -3.07982,2.89962 -12.30469,2.96094 -9.11633,0.0605 -21.77931,1.88149 -27.09961,3.89648 -3.52501,1.33506 -16.97129,2.54969 -16.9707,1.5332 2.7e-4,-0.46832 2.23153,-2.772 4.95703,-5.11914 3.44417,-2.96604 6.41605,-4.56421 9.74805,-5.23828 2.63673,-0.53342 6.59492,-1.49933 8.79492,-2.14648 1.98473,-0.58383 5.8964,-0.88808 10.48633,-0.94336 0.95623,-0.0115 1.94149,-0.0119 2.94531,-0.002 z m -112.94922,2.39844 c 2.29539,-0.0694 5.18591,0.98021 5.73242,2.54297 1.23955,3.54445 5.63292,7.15612 8.72266,7.16992 7.24056,0.0323 9.39613,2.69235 6.52734,8.05274 -1.151,2.15065 -1.8051,2.32051 -3.8789,1.00781 -0.77812,-0.49259 -2.32849,-0.71899 -3.44532,-0.50391 -3.49694,0.67345 -12.20015,-4.15885 -14.49414,-8.04687 C 684.00285,400.58514 682.57241,399 681.9668,399 c -1.33625,0 -0.31648,-3.90466 1.52929,-5.85352 0.522,-0.55114 1.44297,-0.81417 2.48633,-0.8457 z m -112.48828,1.50195 c -0.68313,-0.0245 -1.32222,0.0813 -1.80859,0.35352 -1.68734,0.94429 -2.274,3.92327 -1.01953,5.17773 1.95391,1.95392 7.33398,-0.15369 7.33398,-2.87304 0,-1.34915 -2.45646,-2.58473 -4.50586,-2.65821 z M 672.96094,396 c 1.69175,0 1.7649,3.93806 0.10156,5.44336 C 671.21388,403.11634 666,403.59381 666,402.08984 666,401.03731 671.75781,396 672.96094,396 Z m -389.67969,3.83203 c 5.2334,-0.049 5.57644,1.09808 4.56055,4.77735 -0.86039,3.11603 -0.70265,3.90921 1.16797,5.90039 1.76974,1.88381 1.96036,2.67712 1.05273,4.37304 -1.61602,3.01962 -4.04298,3.87083 -8.5625,3.00196 -2.2,-0.42295 -6.03604,-0.79448 -8.52344,-0.82618 -4.04707,-0.0516 -5.12472,-0.61878 -10.25,-5.38867 C 259.57646,408.73826 257,405.82906 257,405.20508 c 0,-2.70897 4.19342,-3.7905 19.28711,-4.97461 2.96193,-0.23237 5.24967,-0.3821 6.99414,-0.39844 z m 125.96289,0.33008 c -0.50984,0.0107 -0.99786,0.19122 -1.39258,0.58594 -0.93852,0.93852 -0.79641,1.65541 0.64844,3.25195 2.13893,2.3635 4,2.14295 4,-0.47461 0,-1.89145 -1.72634,-3.39541 -3.25586,-3.36328 z m 150.67578,0.96875 c -0.11992,-0.0635 -0.64981,0.19667 -1.66992,0.74023 -1.2375,0.6594 -2.25,1.40842 -2.25,1.66407 0,1.05919 1.84912,0.3498 3.12695,-1.19922 0.62224,-0.7543 0.91289,-1.14156 0.79297,-1.20508 z m 67.81055,0.25391 c -0.40035,-0.0519 -0.89422,0.35823 -1.81055,1.1875 -1.90717,1.72597 -2.56892,5.44475 -1.21094,6.80273 0.38987,0.38986 1.62737,0.57867 2.75,0.41797 2.41872,-0.34623 3.1753,-3.73769 1.52344,-6.82422 -0.54509,-1.0185 -0.85161,-1.53214 -1.25195,-1.58398 z m 52.70117,3.08789 c 0.9352,0.0109 1.56836,0.63792 1.56836,1.69336 0,1.11675 -2.73758,1.06874 -3.43555,-0.0605 -0.3043,-0.49236 0.0757,-1.13691 0.84375,-1.43164 0.36658,-0.14067 0.71171,-0.20482 1.02344,-0.20117 z M 370.32227,405 c -3.47909,0 -4.39352,0.65094 -3.64649,2.59766 0.76026,1.9812 2.70877,1.73988 4.82422,-0.59766 1.77161,-1.9576 1.74725,-2 -1.17773,-2 z m 183.48632,0.0156 c -1.85764,0.0123 -2.01536,0.2045 -0.80859,0.98438 1.86074,1.2025 1.75681,1.2025 2.5,0 0.34463,-0.55763 -0.40384,-0.99338 -1.69141,-0.98438 z m -308.53515,2.30079 c 0.53957,-0.004 1.01858,0.0423 1.41797,0.14257 2.63912,0.66237 14.1058,8.38655 16.20507,10.91602 1.61212,1.94248 0.43188,4.25994 -3.36328,6.60547 -3.93474,2.43181 -4.75669,2.38641 -10.5332,-0.5625 -4.40104,-2.24674 -5.71441,-2.58077 -17.02344,-4.3418 -7.99454,-1.2449 -14.08564,-3.24353 -13.6875,-4.49219 0.18999,-0.59586 3.91651,-1.98802 8.2793,-3.09375 4.3628,-1.10572 10.08782,-2.83881 12.72266,-3.84961 2.19938,-0.84374 4.36371,-1.31161 5.98242,-1.32421 z M 329.44336,408 c -3.24844,0 -3.20612,2.69684 0.0977,6.25977 C 332.653,417.61594 335,417.81532 335,414.72266 335,411.33552 332.2431,408 329.44336,408 Z m 330.4082,0.13281 c 0.49257,0.0412 0.9509,0.26926 1.36914,0.6875 0.64888,0.64888 2.75469,1.17969 4.67969,1.17969 2.72222,0 3.23216,0.26589 2.29883,1.19922 -0.66,0.66 -1.19922,3.60847 -1.19922,6.55078 0,2.94231 -0.59111,6.56364 -1.31445,8.04883 -0.72335,1.48519 -1.87533,5.17617 -2.5586,8.20117 -0.68327,3.025 -2.08446,8.425 -3.11523,12 -1.03076,3.575 -2.65976,9.58319 -3.61914,13.35156 -1.33617,5.2484 -2.28809,7.09901 -4.06836,7.91016 -1.27824,0.58241 -2.32422,1.88672 -2.32422,2.89844 0,2.21805 -1.71599,2.28201 -4.73438,0.17578 -1.22892,-0.85755 -4.82893,-2.07533 -8,-2.70703 l -5.76562,-1.14844 0.20898,-3.63672 c 0.12348,-2.15755 3.50104,-10.49033 8.30664,-20.49023 4.45458,-9.26945 9.76004,-20.32313 11.79102,-24.56446 3.11668,-6.50862 5.91048,-9.8346 8.04492,-9.65625 z M 490.49023,409 C 488.94866,409 486,412.75764 486,414.72266 c 0,1.66642 3.1244,1.63824 5.43164,-0.0488 C 493.49962,413.16166 492.80929,409 490.49023,409 Z m 105.8125,1.47266 c -0.13609,-0.0182 -0.27387,0.009 -0.4082,0.0918 -0.49237,0.3043 -0.89453,1.4266 -0.89453,2.49414 0,2.00979 1.45813,2.62538 2.44336,1.03125 0.69881,-1.1307 -0.18798,-3.48986 -1.14063,-3.61718 z m 82.97461,3.2832 c 0.69202,-0.0305 1.85837,0.15221 3.875,0.5293 2.00109,0.37418 4.84766,2.62764 4.84766,3.83789 0,1.66507 -5.05326,0.90186 -5.78125,-0.87305 -0.39478,-0.9625 -1.50625,-1.75 -2.46875,-1.75 -0.9625,0 -1.6375,-0.45 -1.5,-1 0.11776,-0.47103 0.33532,-0.71368 1.02734,-0.74414 z m -68.36914,0.44531 c 1.39103,0.0293 3.33181,2.62768 5.68946,7.64844 3.66881,7.81297 3.30927,11.92306 -1.6836,19.27539 -2.19414,3.23102 -4.12231,5.875 -4.28515,5.875 C 609.77024,447 609,445.43579 609,443.69336 c 0,-1.0852 -0.6888,-2.47773 -1.53125,-3.09375 -1.23968,-0.90647 -1.32756,-1.70787 -0.45703,-4.20508 0.59158,-1.69703 0.9021,-4.78066 0.68945,-6.85351 -0.43981,-4.28718 1.01239,-13.58732 2.33399,-14.94922 0.26077,-0.26873 0.55204,-0.3974 0.87304,-0.39063 z m -482.98437,1.04297 c 0.70728,0.0785 1.14467,0.49575 1.73047,1.29688 2.29573,3.13959 2.6873,8.00639 0.86914,10.78125 -1.12594,1.7184 -1.68097,4.8034 -1.73047,9.59961 -0.0401,3.88749 -0.57588,7.48296 -1.18945,7.99218 -3.31206,2.74877 -9.60352,1.74424 -9.60352,-1.5332 0,-0.83608 -1.39831,-3.55299 -3.10742,-6.03711 l -3.10742,-4.51563 2.99023,-4.16406 c 1.6444,-2.28999 3.67327,-5.80242 4.50977,-7.80468 1.15511,-2.76495 2.42694,-3.93952 5.28515,-4.88282 1.66915,-0.55086 2.64624,-0.81091 3.35352,-0.73242 z m 418.32031,1.38086 c 4.08054,0.09 13.84381,1.79314 16.25586,3.05664 5.95362,3.11867 7.80253,6.68374 8.12891,15.67774 0.16249,4.47757 0.45214,11.45594 0.64453,15.50781 0.25264,5.32047 -0.0344,7.75122 -1.03321,8.75 -0.76063,0.76063 -1.68928,1.32004 -2.0625,1.24414 -11.4836,-2.33646 -11.67258,-2.41639 -11.98828,-5.10156 -0.17097,-1.4542 0.35212,-3.68195 1.16211,-4.95118 1.61273,-2.52711 5.14419,-18.64682 4.27539,-19.51562 -1.30965,-1.30966 -3.62848,0.87072 -3.64257,3.42578 -0.008,1.52976 -0.45482,3.45625 -0.99219,4.28125 -0.79505,1.22063 -2.09564,0.29777 -6.98438,-4.95117 C 544.28226,427.90143 544,427.35878 544,422.4668 c 0,-2.82316 0.21841,-5.35317 0.48633,-5.6211 0.17621,-0.17621 0.81615,-0.24147 1.75781,-0.2207 z m -268.79687,5.62305 c 0.69335,0.001 1.4704,0.0107 2.35156,0.0254 l 7.29883,0.12304 3.36718,4.68555 c 2.47684,3.44758 3.07055,4.98219 2.25,5.80274 -0.70775,0.70775 -5.93381,1.11523 -14.29882,1.11523 -12.82646,0 -13.19964,-0.0613 -13.77149,-2.24805 -0.46218,-1.76737 0.31553,-3.03309 3.63477,-5.92383 3.56732,-3.10647 4.31447,-3.58712 9.16797,-3.58007 z M 676.89648,423 c 1.57217,0 3.37687,0.62413 4.00977,1.38672 0.63289,0.76259 4.05767,1.69755 7.61133,2.07812 6.96439,0.74582 8.08118,1.46461 6.58984,4.24414 -0.52842,0.98488 -2.33521,4.71602 -4.01562,8.29102 -10.51791,22.37641 -30.64842,52.96646 -39.97657,60.75 -2.74839,2.2933 -5.11523,1.36358 -5.11523,-2.00977 0,-1.8288 7.15207,-17.4752 14.5625,-31.85742 1.87524,-3.63949 3.60779,-7.68949 3.84961,-9 0.24182,-1.31051 0.50694,-2.38281 0.58984,-2.38281 0.0829,0 0.30906,-0.9 0.50196,-2 0.19289,-1.1 1.94424,-6.95 3.89257,-13 1.94833,-6.05 3.78963,-12.2375 4.0918,-13.75 0.44561,-2.23051 1.08968,-2.75 3.4082,-2.75 z m -521.60156,0.37891 c 1.06132,0.04 2.46938,0.93888 4.27149,2.68554 3.47471,3.36782 3.93928,5.15712 2.80859,10.81055 -0.85025,4.25127 -2.48173,3.92983 -6.55078,-1.29297 -2.83199,-3.63498 -3.36501,-5.06864 -3.01367,-8.07812 0.32802,-2.80975 1.11982,-4.17649 2.48437,-4.125 z m 299.79492,1.71679 c -0.9831,-0.0839 -2.33165,0.64568 -3.75195,2.29688 -2.18579,2.54113 -2.41365,5.69702 -0.64062,8.85742 1.29921,2.31584 4.58169,-1.68746 5.75195,-7.01562 0.56603,-2.5771 -0.0954,-4.03077 -1.35938,-4.13868 z M 464.82812,426 C 463.16785,426 460,429.05376 460,430.6543 c 0,1.6691 3.18062,1.76664 4.80078,0.14648 1.53859,-1.53863 1.55681,-4.80078 0.0273,-4.80078 z m 254.26368,1.09375 c 0.80243,-0.0264 0.9082,0.25507 0.9082,0.82617 0,0.5063 -1.2375,1.15801 -2.75,1.44727 -7.0242,1.34335 -11.68064,1.78889 -10.9707,1.05078 0.42842,-0.44542 1.32842,-0.90362 2,-1.01953 0.67158,-0.11591 3.2457,-0.6932 5.7207,-1.28125 2.79028,-0.66297 4.28937,-0.99702 5.0918,-1.02344 z m -476.81641,1.23633 c 2.22447,-0.0293 5.54442,0.55064 9.97461,1.74023 3.70869,0.99586 4.92032,2.6324 2.5,3.37696 -0.6875,0.21149 -4.90848,0.62872 -9.38086,0.92773 -7.1295,0.47665 -8.34477,0.31127 -9.84961,-1.35156 -1.91379,-2.11471 -1.26442,-4.24587 1.02539,-3.36719 0.81439,0.31251 2.12205,0.0356 2.90625,-0.61523 0.54911,-0.45573 1.48954,-0.69335 2.82422,-0.71094 z M 418.18945,429 c -2.53498,0 -4.39594,2.29967 -3.58007,4.42578 1.06033,2.76316 4.83608,1.54816 5.20703,-1.67578 0.24916,-2.16543 -0.0962,-2.75 -1.62696,-2.75 z m 173.97266,4.25586 C 590.73074,433.18211 589,435.29158 589,437.62305 c 0,1.46387 0.5866,2.37695 1.52539,2.37695 1.9491,0 3.94273,-4.93227 2.55469,-6.32031 -0.2736,-0.2736 -0.58766,-0.40681 -0.91797,-0.42383 z m -210.56055,0.80469 c -0.66568,0.0158 -1.32068,0.26013 -1.83984,0.77929 -0.56461,0.56461 -0.75655,1.73178 -0.42578,2.59375 0.33274,0.8671 1.76408,1.56641 3.20312,1.56641 2.12219,0 2.54198,-0.41271 2.28125,-2.24023 -0.23772,-1.66624 -1.75426,-2.73399 -3.21875,-2.69922 z m -38.34179,1.01953 c -1.30612,0.0968 -1.44183,1.22461 -0.44336,3.41601 1.5525,3.40737 6.48518,3.63185 6.0039,0.27344 -0.19634,-1.37009 -1.37309,-2.59797 -3.05078,-3.18555 -1.08038,-0.37838 -1.91608,-0.5479 -2.50976,-0.5039 z m 411.10546,0.27344 c 0.67403,-0.0556 2.15244,0.59105 3.54688,1.58398 1.59366,1.13477 3.31163,2.0625 3.81836,2.0625 1.50827,0 5.62832,4.87715 5.96094,7.05664 0.37571,2.46189 3.9386,9.59597 5.17382,10.35938 0.49154,0.30378 3.23876,0.73701 6.10547,0.96093 5.98213,0.46727 6.73156,0.99999 7.19336,5.12305 0.33562,2.99653 0.32927,3.0007 -5.43164,3.30078 -5.61052,0.29225 -5.81474,0.21051 -7.5,-2.96484 -2.61303,-4.92346 -10.0095,-11.84136 -13.38086,-12.51563 -1.64286,-0.32857 -3.58095,-1.54767 -4.30664,-2.70898 -1.61168,-2.57914 -2.64187,-11.43305 -1.41797,-12.18945 0.0609,-0.0376 0.142,-0.0604 0.23828,-0.0684 z M 496.5,439 c -0.825,0 -1.5,0.675 -1.5,1.5 0,0.825 0.675,1.5 1.5,1.5 0.825,0 1.5,-0.675 1.5,-1.5 0,-0.825 -0.675,-1.5 -1.5,-1.5 z m -196.85156,3.71875 c 0.24769,0.0229 0.35156,0.26597 0.35156,0.70508 0,1.01208 -1.60615,3.35654 -3.57031,5.20898 -3.46577,3.26864 -5.42969,4.2001 -5.42969,2.57617 0,-0.43549 2.025,-2.77995 4.5,-5.20898 2.36246,-2.31858 3.6035,-3.33154 4.14844,-3.28125 z m 150.88281,2.39648 c -0.73658,0.15947 -2.24968,2.48532 -4.46289,7.15039 -1.88784,3.97927 -4.34455,8.48386 -5.45898,10.01172 -1.67627,2.29807 -1.84328,3.2639 -0.9668,5.58594 1.11221,2.9466 0.80831,22.88039 -0.51367,33.7168 -0.40804,3.34437 -0.56594,6.60687 -0.35157,7.25 0.6119,1.83568 3.22247,1.3671 3.23047,-0.58008 0.004,-0.9625 0.4548,-5.575 1.00196,-10.25 0.54715,-4.675 1.20562,-13.3584 1.46289,-19.29688 0.25726,-5.93846 0.73213,-11.2242 1.05468,-11.74609 0.32256,-0.5219 1.67551,-4.66349 3.00782,-9.20312 2.48825,-8.47827 3.07264,-12.87174 1.99609,-12.63868 z m -317.21289,4.65039 c 1.07112,0.0641 1.68164,0.67855 1.68164,1.81836 0,0.98611 -1.21569,1.41602 -4,1.41602 -4.73604,0 -4.94297,-0.38334 -1.20898,-2.24609 1.18758,-0.59245 2.21827,-0.91807 3.04101,-0.98243 0.17141,-0.0134 0.33331,-0.015 0.48633,-0.006 z m 153.09375,4.38477 c 0.39508,-0.0212 0.88853,0.46906 1.16797,1.19727 0.82745,2.1563 -2.49327,8.64569 -4.44336,8.68359 -3.3923,0.0659 -5.13672,2.53411 -5.13672,7.26953 0,2.5194 0.45,4.8593 1,5.19922 1.56408,0.96665 1.1811,3.45579 -0.94922,6.16406 -1.0723,1.3632 -2.68783,5.03271 -3.58984,8.15625 -1.63326,5.65578 -4.07218,9.53828 -5.45508,8.6836 -0.39973,-0.24704 -2.33144,1.33842 -4.29297,3.52343 -1.96152,2.18501 -4.18137,3.97266 -4.93359,3.97266 -0.75223,0 -3.00911,-2.15208 -5.01563,-4.7832 -2.82808,-3.70843 -3.70411,-5.8414 -3.89258,-9.48242 -0.13373,-2.58333 -0.0464,-4.83086 0.19336,-4.9961 0.23973,-0.16524 4.34511,-2.85845 9.12305,-5.98437 9.66007,-6.31999 14.22881,-12.27762 14.00391,-18.25977 -0.12738,-3.38832 0.17626,-3.62278 12.05859,-9.30273 0.0515,-0.0246 0.10567,-0.038 0.16211,-0.041 z m -185.32617,1.45508 c 2.0751,0.15685 -0.1206,5.999 -4.794924,9.90625 -3.1939,2.66977 -5.64667,3.86592 -8.324219,4.05664 C 83.577355,469.88101 83,469.50594 83,466.35547 c 0,-2.70004 2.813397,-4.74849 8.619141,-6.27735 2.265699,-0.59663 5.271328,-1.99179 6.679687,-3.0996 1.290175,-1.01486 2.206082,-1.41697 2.787112,-1.37305 z m 95.55468,1.06836 c 0.30377,0.0209 0.53464,0.10104 0.67579,0.24219 1.36108,1.36108 -4.97367,11.8546 -8.15039,13.50195 -1.46665,0.76056 -4.33196,3.00257 -6.36719,4.98242 -2.03524,1.97986 -3.87673,3.59961 -4.09375,3.59961 -0.21701,0 -1.19578,-0.88411 -2.17383,-1.96484 -1.27129,-1.40476 -1.58163,-2.75895 -1.0918,-4.75 0.37685,-1.53177 0.83994,-4.08307 1.03125,-5.66993 0.38694,-3.20937 1.93974,-4.5767 5.22071,-4.59961 1.20504,-0.008 2.46867,-0.46562 2.80859,-1.01562 0.33992,-0.55 1.28831,-1 2.10742,-1 0.81911,0 3.35547,-0.90173 5.63672,-2.00391 1.90191,-0.9189 3.48519,-1.38491 4.39648,-1.32226 z m 326.18165,1.48828 c -0.43139,0.0818 -0.83843,0.50781 -1.42969,1.31641 -1.72627,2.36081 -1.77987,4.73358 -0.14258,6.37109 1.00007,1.0002 1.59991,0.81872 3,-0.91016 2.1746,-2.68525 2.21361,-4.31049 0.14258,-6.02929 -0.6832,-0.56701 -1.13893,-0.82983 -1.57031,-0.74805 z m -393.42579,0.17969 c 0.27686,0.003 0.5777,0.0365 0.9043,0.0977 1.20978,0.22645 2.53672,0.44543 2.94922,0.48633 1.53035,0.15163 0.67862,4.55567 -1.5,7.75586 -3.64121,5.3486 -6.18921,4.04479 -5.48633,-2.80664 0.41749,-4.0696 1.19484,-5.55338 3.13281,-5.5332 z m 294.05469,5.0664 c -0.27321,0.018 -0.55028,0.0765 -0.82422,0.18164 -2.15286,0.82613 -2.07853,4.04813 0.12305,5.32813 2.34941,1.36595 3.68868,0.84208 4.04883,-1.58399 0.32185,-2.16816 -1.43517,-4.05189 -3.34766,-3.92578 z m 276.06445,0.0996 c -2.11445,-0.009 -2.51562,0.39472 -2.51562,1.56641 0,2.42398 1.13248,2.9882 7.2832,3.62695 2.86952,0.298 5.34614,0.65398 5.50391,0.79102 0.15777,0.13703 2.56352,0.29863 5.3457,0.36133 4.90191,0.11044 8.86719,-1.10069 8.86719,-2.70899 0,-0.81622 -12.63193,-2.85149 -21.75,-3.50391 -1.13403,-0.0811 -2.02955,-0.12984 -2.73438,-0.13281 z m -5.76562,1.50781 c -2.29116,0.0281 -4.04948,1.76258 -3.42773,3.38282 0.73197,1.90749 1.8439,2.03695 3.47851,0.40234 1.56865,-1.56865 1.53836,-3.80464 -0.0508,-3.78516 z m -615.990234,5.5586 c 0.105696,0.009 0.177845,0.0314 0.21289,0.0664 0.280361,0.28036 -1.595994,2.49983 -4.171875,4.9336 -5.16432,4.87941 -5.945866,5.16155 -7.871093,2.8418 -2.013104,-2.42564 -0.06451,-4.50555 6.107421,-6.51758 2.611219,-0.85125 4.982781,-1.39029 5.722657,-1.32422 z M 370.4668,472 c -2.71269,0 -2.70854,1.97068 0.0117,4.97656 2.11415,2.3361 3.85903,2.19274 4.35351,-0.35742 C 375.2956,474.22847 373.19032,472 370.4668,472 Z m 261.6582,0.31445 c 0.83618,0.0241 1.73291,0.22483 2.91211,0.57813 2.03261,0.60898 4.92802,1.10742 6.43555,1.10742 1.97144,0 2.58583,0.40258 2.18945,1.43555 -0.30312,0.78989 0.35729,2.59143 1.4668,4.00195 l 2.01757,2.56445 -2.66406,5.44336 c -1.4647,2.99373 -3.7309,6.14219 -5.03711,6.99805 -2.6041,1.70627 -4.45517,1.7747 -11.94531,0.44336 -2.75,-0.4888 -6.4922,-1.13881 -8.31641,-1.44531 -3.12818,-0.52558 -3.28043,-0.73933 -2.66211,-3.75 1.1766,-5.72905 6.65461,-13.71763 10.89844,-15.89453 2.08485,-1.06944 3.31146,-1.52257 4.70508,-1.48243 z M 590.5,474 c -0.83333,0 -1.5,0.88889 -1.5,2 0,1.11111 0.66667,2 1.5,2 0.83333,0 1.5,-0.88889 1.5,-2 0,-1.11111 -0.66667,-2 -1.5,-2 z m -320.54297,11.9668 c -1.13548,-0.0966 -3.05258,1.09275 -4.20703,3.12109 -0.9625,1.6911 -1.75,3.54517 -1.75,4.12109 0,1.57209 6.45056,-3.70608 6.82422,-5.58398 0.21475,-1.07924 -0.1859,-1.60026 -0.86719,-1.6582 z M 561.81836,493 c 0.58488,0 1.36012,0.47982 1.72266,1.06641 1.07627,1.74144 -0.14995,2.10963 -1.52149,0.45703 C 561.23078,493.57305 561.15526,493 561.81836,493 Z M 400,495 c -2.24242,0 -3,0.46361 -3,1.83398 0,1.00834 0.29935,2.13334 0.66602,2.5 0.36666,0.36667 1.71666,0.66602 3,0.66602 1.82222,0 2.33398,-0.54762 2.33398,-2.5 0,-2.11111 -0.46667,-2.5 -3,-2.5 z m 26.70312,1.18945 c -1.71568,-0.0578 -2.79315,1.99768 -1.49609,3.56055 0.60108,0.72426 1.5884,1.15256 2.19336,0.95117 1.81799,-0.60522 1.86853,-3.66031 0.0723,-4.34961 -0.26608,-0.1021 -0.52443,-0.15385 -0.76954,-0.16211 z m 147.67969,1.07032 c 0.83852,-0.0163 1.66088,1.84307 2.15039,5.10742 0.75036,5.00376 0.20273,10.02158 -0.83203,7.63281 -1.26708,-2.9251 -2.72956,-11.14491 -2.15039,-12.08203 0.27164,-0.43953 0.55253,-0.65277 0.83203,-0.6582 z m 41.78321,0.58203 c 3.64374,-0.0533 9.32169,0.44114 13.58398,1.35351 4.70371,1.00687 5.24746,1.39161 5.22656,3.71289 -0.0128,1.42498 -1.25035,4.80096 -2.75,7.5 -1.49965,2.69904 -3.69251,5.25308 -4.87304,5.67774 -2.51638,0.90519 -8.93055,-2.09888 -11.52344,-5.39844 -1.37596,-1.75097 -3.06422,-7.99258 -3.28125,-12.13086 -0.0238,-0.45341 1.43094,-0.68284 3.61719,-0.71484 z m -75.17969,2.80468 c -0.74787,-1.2e-4 -1.53436,0.34847 -2.20899,1.13477 -1.82616,2.12842 -2.94351,5.13925 -2.29687,6.18555 0.26749,0.4328 1.95515,0.4895 3.75195,0.125 2.57931,-0.52324 3.33343,-1.22053 3.57813,-3.31055 0.28614,-2.44398 -1.17892,-4.13449 -2.82422,-4.13477 z m 205.28906,7.91797 c 0.83641,-0.0896 2.07059,0.25976 3.66406,1.05469 2.63784,1.31593 3.95171,1.39333 7.68555,0.45313 3.73022,-0.93927 5.4381,-0.83886 9.93945,0.58007 3.74787,1.18141 5.43555,2.23436 5.43555,3.39454 0,0.92538 0.9,2.82814 2,4.22656 1.1,1.39842 2,3.21806 2,4.04492 0,1.41555 3.38906,4.69853 7.61523,7.375 1.74426,1.10466 1.46487,1.60518 -3.77734,6.75 -3.11413,3.05628 -6.11446,5.55664 -6.66797,5.55664 -0.55351,0 -1.96101,-1.54315 -3.12695,-3.42969 C 768.3062,534.14212 762.43836,529 760.12109,529 c -0.99531,0 -3.05524,-1.07006 -4.57617,-2.37695 -2.32683,-1.99939 -5.70044,-3.42957 -12.15234,-5.1543 -0.6093,-0.16288 -1.41218,-1.79804 -1.7832,-3.63281 -0.53774,-2.65918 -0.26266,-3.67264 1.35742,-4.9961 1.11782,-0.91316 2.0332,-2.12452 2.0332,-2.6914 0,-0.96567 0.43898,-1.49437 1.27539,-1.58399 z M 434.9375,515 c -2.19073,0 -3.31788,1.56505 -2.55664,3.54883 0.63973,1.66709 5.18202,1.96873 6.14648,0.4082 C 439.42014,517.51245 437.14135,515 434.9375,515 Z m 120.50391,0.19141 c -1.5106,-0.0129 -2.83326,0.45526 -3.19727,1.56054 -0.22664,0.68819 0.63832,1.67109 1.92188,2.18555 3.601,1.44328 6.83398,1.25314 6.83398,-0.40234 0,-1.96575 -3.04093,-3.32221 -5.55859,-3.34375 z m -50.76563,1.69921 c 3.78946,-0.0379 4.94445,0.39581 5.82422,1.43165 1.16912,1.37651 8.88767,1.31401 12.5,-0.10157 1.79849,-0.70478 3.25233,-0.59593 5.17969,0.38868 2.8291,1.44525 4.60059,5.03024 3.16992,6.41406 -1.67057,1.61586 -7.93448,1.88108 -12.80469,0.54297 -2.78166,-0.76428 -5.85177,-1.02773 -7,-0.59961 -1.12488,0.41989 -8.11992,0.60499 -15.54492,0.41211 -7.425,-0.19287 -14.0625,-0.35724 -14.75,-0.36524 -1.84625,-0.0214 -1.5177,-3.46855 0.5,-5.24609 1.20451,-1.06115 5.17877,-1.78516 12.75,-2.32617 4.67989,-0.33441 7.9021,-0.52803 10.17578,-0.55079 z m 40.26758,9.46094 c 0.37833,-0.008 0.94867,0.075 1.72266,0.26563 4.31309,1.06203 11.03171,4.08485 11.7832,5.30078 1.13915,1.84318 -3.63895,1.02628 -8.60742,-1.4707 -4.57608,-2.29978 -6.53786,-4.06095 -4.89844,-4.09571 z m 172.35547,3.76367 c 1.47442,0.0103 3.10206,1.16237 5.14844,3.39649 3.26734,3.5671 3.34697,3.86446 3.08007,11.32617 -0.73538,20.55877 -2.58022,28.57593 -8.03515,34.91211 -1.06538,1.2375 -2.48663,2.25 -3.15821,2.25 -2.00564,0 -4.20433,-4.01097 -5.30273,-9.67578 -0.56771,-2.92792 -1.49475,-7.71345 -2.06055,-10.63281 -0.89815,-4.63414 -0.75751,-5.91833 1.10157,-10.1211 1.31941,-2.98275 1.91893,-5.86631 1.57617,-7.58008 -0.37469,-1.87347 0.32017,-4.49467 2.15234,-8.12695 1.96014,-3.88599 3.60237,-5.76122 5.49805,-5.74805 z m -268.37891,3.29883 c -1.50386,-0.0102 -2.17121,1.44832 -1.52734,4.01367 0.77629,3.093 3.60673,3.40448 5.36328,0.5918 1.07321,-1.71848 0.9005,-2.19971 -1.31055,-3.64844 -0.98407,-0.64479 -1.84181,-0.95238 -2.52539,-0.95703 z m 79.88086,5.04883 c -0.64319,-0.0296 -1.4079,0.20247 -2.55273,0.60156 -2.42243,0.84447 -3.24805,1.72969 -3.24805,3.48438 0,1.29386 0.7875,2.80935 1.75,3.36914 1.7089,0.99388 8.06769,0.46243 9.4375,-0.78906 0.37848,-0.34579 -0.52222,-2.10768 -2.00195,-3.91407 -1.58063,-1.92956 -2.31279,-2.7026 -3.38477,-2.75195 z m -107.875,2.21289 c -0.4764,-0.0633 -0.9387,0.29338 -1.55859,1.10938 -1.38519,1.8234 -1.81409,6.4359 -0.70117,7.54882 0.81166,0.81169 0.79337,0.81018 2.75195,0.0586 1.87403,-0.71913 2.16405,-6.41018 0.41601,-8.1582 -0.3326,-0.33262 -0.62236,-0.52061 -0.9082,-0.5586 z m 142.36133,5.07031 c 0.0416,0.008 0.0726,0.0275 0.0918,0.0586 0.30762,0.49775 -0.53115,1.93028 -1.86524,3.18359 -1.33409,1.25331 -3.62287,4.00598 -5.08594,6.11719 -1.46307,2.11121 -6.30043,6.66426 -10.74804,10.11719 -4.44761,3.45293 -9.23203,7.43798 -10.63281,8.85742 -3.13207,3.17375 -10.15955,7.28481 -20.04688,11.72461 -4.125,1.85229 -8.4,3.63193 -9.5,3.95508 -3.4923,1.02597 0.40312,-2.81019 5,-4.92383 2.2,-1.01156 5.8,-3.14636 8,-4.74414 2.2,-1.59778 7.81008,-5.30927 12.4668,-8.24805 8.96299,-5.6564 14.38237,-10.06912 25.19336,-20.51172 3.43398,-3.31698 6.50315,-5.70981 7.12695,-5.58594 z M 467.99414,561 c -3.98556,0 -4.49598,1.46034 -1.36914,3.91992 3.58737,2.8218 9.375,2.85534 9.375,0.0547 C 476,562.707 472.56105,561 467.99414,561 Z m 30.51172,1.04883 c -1.36637,0.061 -2.54441,0.60974 -2.91602,1.57812 -0.68355,1.78128 0.49968,3.696 4.37891,7.08789 3.11661,2.72507 5.53386,3.00942 4.54492,0.53516 -0.3847,-0.9625 -0.79695,-3.02041 -0.91797,-4.57422 -0.12102,-1.55381 -0.86758,-3.23607 -1.6582,-3.73633 -0.85904,-0.54356 -1.87085,-0.83198 -2.83594,-0.88672 -0.20106,-0.0114 -0.40051,-0.0126 -0.5957,-0.004 z m -67.16406,8.04687 c -1.26111,-0.0907 -2.38376,0.70095 -3.13672,2.35352 -0.98,2.15089 -0.78611,2.69651 1.58984,4.48242 1.48795,1.11844 3.38008,1.92459 4.20508,1.79102 2.18109,-0.35311 2.4453,-4.57314 0.42578,-6.80469 -1.03767,-1.14661 -2.10312,-1.75168 -3.08398,-1.82227 z m 24.22265,12.73047 c -0.60922,0.005 -1.13089,0.14066 -1.4414,0.45117 -1.23039,1.23039 -1.51511,4.99857 -0.45703,6.05664 2.04799,2.048 6.33398,-0.73133 6.33398,-4.10742 0,-1.24045 -2.60788,-2.41456 -4.43555,-2.40039 z m -39.27539,4.77344 c -2.21164,0.11284 -3.28906,2.1837 -3.28906,6.26953 0,2.63898 0.29935,5.09818 0.66602,5.46484 1.11742,1.11743 5.1687,0.74178 5.96875,-0.55273 0.41396,-0.66981 0.86741,-3.16747 1.00781,-5.55078 0.21617,-3.66973 -0.0812,-4.46055 -1.94336,-5.16406 -0.72056,-0.27222 -1.37142,-0.42648 -1.95313,-0.46289 -0.15754,-0.01 -0.30958,-0.0114 -0.45703,-0.004 z m -9.88672,22.02734 c 0.39405,-0.0297 0.82633,-0.0282 1.29297,0.006 1.54309,0.11232 3.2809,0.24046 3.86328,0.28516 0.58238,0.0447 1.89528,0.6936 2.91797,1.44141 1.79934,1.31569 1.78653,1.4773 -0.39062,5 -3.27308,5.29594 -6.52546,4.59065 -10.02735,-2.17383 -1.35949,-2.62608 -0.41458,-4.35062 2.34375,-4.5586 z M 397.13281,626 c 1.75965,0 9.16061,4.67978 10.06055,6.36133 1.11049,2.07498 -0.30031,3.59494 -3.36133,3.62305 -0.91752,0.008 -2.26752,0.17156 -3,0.36132 -2.54341,0.6589 -6.95379,-0.49835 -7.51953,-1.97265 C 392.73831,632.87674 395.87598,626 397.13281,626 Z m 9.78125,14.14062 c 2.00423,0.0213 3.08594,1.16277 3.08594,3.35352 0,1.99984 -1.03291,3.14889 -4.74805,5.28125 C 399.84448,651.87908 394,657.46699 394,659.53516 c 0,1.35112 -3.47155,3.82418 -5.5,3.91796 -0.55,0.0254 -2.35,0.54149 -4,1.14649 -1.65,0.605 -4.575,1.66928 -6.5,2.36523 -4.91663,1.77754 -12.73073,2.81976 -14.22461,1.89649 -2.00155,-1.23703 1.50342,-6.21003 11.91992,-16.90625 l 9.29492,-9.54297 7.75586,-0.23828 c 4.26511,-0.13124 9.15875,-0.74389 10.87696,-1.36133 1.27685,-0.45885 2.38,-0.68156 3.29101,-0.67188 z m 212.38086,163.96485 c 0.39042,10e-4 0.81248,0.0154 1.26953,0.0391 4.89127,0.25319 5.43325,1.2912 2.59766,4.9707 -1.01083,1.31167 -3.06968,5.01473 -4.57422,8.22852 -1.50454,3.21379 -2.89261,5.68551 -3.08594,5.49219 -0.19332,-0.19333 0.24869,-2.93541 0.98243,-6.0918 1.27993,-5.50613 0.77271,-7.6391 -1.48438,-6.24414 -0.55,0.33992 -1.00667,1.37855 -1.01367,2.30859 -0.007,0.93004 -1.11222,3.94141 -2.45703,6.69141 l -2.44532,5 0.53516,-7.5 c 0.47778,-6.69573 0.85528,-7.79968 3.52148,-10.29297 2.15375,-2.01407 3.42136,-2.61064 6.1543,-2.60156 z m 6.5586,7.9375 c 0.35074,0.0284 1.44916,0.83245 2.65039,1.96094 3.25144,3.05458 3.26774,7.3143 0.041,10.54101 -2.98741,2.98743 -5.54492,3.19128 -5.54492,0.44141 0,-1.10746 -0.51527,-2.83809 -1.14453,-3.84571 -0.9279,-1.4858 -0.69285,-2.47525 1.24609,-5.23632 1.3149,-1.87243 2.50692,-3.59288 2.64844,-3.82422 0.0177,-0.0289 0.0534,-0.0412 0.10352,-0.0371 z m -27.72071,14.45312 c 0.59614,-10e-4 1.13586,0.11508 1.58985,0.36914 1.61982,0.9065 5.51937,14.55875 4.46093,15.61719 -0.28463,0.28463 -1.33247,0.51758 -2.32812,0.51758 -2.04673,0 -4.02677,-2.74842 -5.94727,-8.25 -0.71997,-2.0625 -1.68451,-3.75 -2.14258,-3.75 -0.45804,0 -1.76265,1.575 -2.89843,3.5 -2.19251,3.71602 -3.86719,4.54073 -3.86719,1.9043 0,-4.16148 6.95982,-9.90007 11.13281,-9.90821 z M 619.11719,837 c 0.55,0 0.72273,0.45 0.38281,1 -0.33992,0.55 -1.06719,1 -1.61719,1 -0.55,0 -0.72273,-0.45 -0.38281,-1 0.33992,-0.55 1.06719,-1 1.61719,-1 z M 591.5,842 c 2.79295,0 3.35246,1.45838 0.91797,2.39258 -1.95858,0.75156 -1.94029,0.75307 -2.75195,-0.0586 C 588.30641,842.97438 589.07213,842 591.5,842 Z m 228.14648,9.54297 c -4.86811,-0.002 -5.64073,0.42427 -7.89648,2.78711 -3.41528,3.57743 -3.42901,4.03377 -0.10547,3.39844 1.45425,-0.278 3.97731,-0.12376 5.60742,0.34375 1.63011,0.46751 10.45233,1.14527 19.60547,1.50585 9.15314,0.3606 16.80468,0.8016 17.00196,0.98047 0.19725,0.17888 4.58474,0.33747 9.75,0.35157 8.64427,0.0236 9.39062,-0.13003 9.39062,-1.91993 0,-2.84174 -4.00938,-5.00649 -10.13086,-5.4707 -9.15736,-0.69442 -32.9954,-1.83485 -40.86914,-1.95508 -0.87886,-0.0134 -1.65807,-0.0212 -2.35352,-0.0215 z m -65.39257,0.0586 c -4.68487,-0.006 -9.61229,0.003 -14.75391,0.0274 -35.24659,0.16442 -41.09413,0.74475 -38.53516,3.82812 0.65003,0.78324 2.38518,1.63633 3.85743,1.89453 1.47225,0.25821 13.47773,0.20268 26.67773,-0.12304 25.85394,-0.63798 24.88778,-0.62867 34.5,-0.35352 9.1087,0.26074 38.13857,-0.79012 40.25,-1.45703 0.9625,-0.30402 1.75,-1.13242 1.75,-1.8418 0,-1.19093 -20.95202,-1.93566 -53.74609,-1.97461 z m 123.74218,4.30469 c -0.16454,0.0126 -0.303,0.0667 -0.4082,0.17187 -0.27953,0.27959 -0.24901,1.50137 0.0684,2.71485 0.6861,2.62365 4.6797,3.16452 4.16797,0.56445 -0.30329,-1.541 -2.67629,-3.53943 -3.82813,-3.45117 z" id="path12"/>
</svg>
