<?xml version="1.0" encoding="utf-8"?>
<svg xmlns="http://www.w3.org/2000/svg" version="1.1" viewBox="0 0 314 313">
	<title>T is for thimble.</title>
	<path d="M 77.664231,300.3309 C 77.334927,300.00159 76.03826,299.61625 74.782748,299.47458 72.323021,299.19703 67.198454,298.35262 62.69868,297.4834 59.468074,296.85935 50.791997,291.11525 46.699314,286.89083 45.158937,285.30087 43.324657,284 42.623136,284 40.291492,284 23.228278,266.63974 20.508123,261.5 17.667302,256.13226 14,238.89356 14,230.9076 c 0,-5.13808 2.151529,-9.07011 12.230409,-22.35166 2.898275,-3.81923 7.119418,-9.67418 9.380319,-13.011 2.2609,-3.33681 5.290626,-7.18698 6.732723,-8.55594 1.442098,-1.36895 2.62977,-3.00336 2.639272,-3.63201 0.0095,-0.62866 0.692277,-1.40203 1.517277,-1.71862 0.825,-0.31658 1.5,-1.25435 1.5,-2.08393 0,-0.82958 1.09133,-2.2234 2.425177,-3.09737 1.333847,-0.87397 2.885439,-2.90935 3.447981,-4.52305 C 54.435699,170.32031 55.36937,169 55.94798,169 56.526591,169 57,168.4986 57,167.88579 57,166.10683 67.048514,155 68.657961,155 c 0.80304,0 1.195834,-0.42755 0.872876,-0.95011 -0.322959,-0.52255 1.04621,-2.43505 3.042598,-4.25 1.996387,-1.81494 4.237971,-4.42489 4.981296,-5.79989 0.743325,-1.375 5.227007,-6.55 9.963738,-11.5 4.736731,-4.95 12.970331,-14.15464 18.296881,-20.45476 5.32656,-6.30011 11.44121,-13.275112 13.58811,-15.499996 C 128.0552,87.579246 147.5455,59.898152 154.13325,47.220256 158.02611,39.728589 168.52758,28 171.34257,28 c 0.65287,0 2.75538,-0.840004 4.67224,-1.866675 1.91685,-1.026671 5.06019,-2.185993 6.98519,-2.576271 1.925,-0.390278 5.37303,-1.396335 7.66228,-2.235683 5.30318,-1.944393 15.45095,-1.260871 25.51624,1.718694 12.27441,3.633517 19.52167,7.715526 38.32148,21.584518 9.05331,6.678808 29.3776,27.568558 33.014,33.932518 1.55342,2.718595 3.34803,5.617899 3.98803,6.442899 0.64001,0.825 3.05242,6.762174 5.36093,13.193721 4.08782,11.388739 4.18318,11.940339 3.65655,21.149559 -0.57014,9.97011 -3.48049,18.78207 -7.70528,23.33011 -2.48528,2.67544 -14.34972,8.62524 -21.94193,11.00349 -2.38964,0.74855 -6.15056,3.65913 -16.95789,13.12374 -2.07288,1.81534 -5.12593,4.29034 -6.78457,5.5 -4.05956,2.96067 -33.94063,29.57794 -34.88275,31.07263 -0.4109,0.6519 -4.57209,4.14978 -9.24709,7.77307 -4.675,3.6233 -13.675,11.48981 -20,17.48115 -6.325,5.99133 -13.74177,12.68865 -16.48172,14.88293 -2.73994,2.19428 -7.46494,6.38134 -10.5,9.30458 -8.93565,8.60643 -27.34354,23.87532 -29.6364,24.58265 -1.16496,0.35939 -2.9222,1.54194 -3.90498,2.6279 -0.98278,1.08596 -2.35752,1.97447 -3.05496,1.97447 -0.69745,0 -2.63039,1.3623 -4.29542,3.02733 -1.66503,1.66503 -5.41215,4.28293 -8.32692,5.81756 -2.91478,1.53463 -7.0996,3.97501 -9.2996,5.42306 -3.055646,2.01124 -5.416531,2.67878 -10,2.8275 -3.3,0.10708 -6.728333,0.56357 -7.618517,1.01443 -0.890184,0.45087 -1.887948,0.55032 -2.217252,0.22102 z M 134,260 c 0,-0.55 -0.19844,-1 -0.44098,-1 -0.24254,0 -0.7191,0.45 -1.05902,1 -0.33992,0.55 -0.14148,1 0.44098,1 0.58246,0 1.05902,-0.45 1.05902,-1 z m -5.56597,-5.20927 c 2.33546,-3.33434 0.0427,-5.06466 -2.40981,-1.81869 -1.81492,2.40206 -1.82376,4.02796 -0.0219,4.02796 0.48636,0 1.58063,-0.99417 2.43172,-2.20927 z M 63,245.55902 c 0,-0.24254 -0.45,-0.7191 -1,-1.05902 -0.55,-0.33992 -1,-0.14148 -1,0.44098 0,0.58246 0.45,1.05902 1,1.05902 0.55,0 1,-0.19844 1,-0.44098 z M 125.5,245 c 0.33992,-0.55 0.14148,-1 -0.44098,-1 -0.58246,0 -1.05902,0.45 -1.05902,1 0,0.55 0.19844,1 0.44098,1 0.24254,0 0.7191,-0.45 1.05902,-1 z M 88,241.21811 c 0,-0.43004 1.201272,-0.88131 2.669493,-1.00283 3.215217,-0.2661 3.00726,-0.0792 3.857631,-3.46733 C 95.085374,234.52371 94.878522,234 93.441741,234 c -0.976291,0 -1.496556,0.27852 -1.156144,0.61893 0.340411,0.34041 -1.202165,2.14041 -3.427947,4 C 86.380826,240.68826 85.42943,242 86.405386,242 87.282424,242 88,241.64815 88,241.21811 Z m 18.36786,-1.33291 c 1.99673,-2.85074 1.09545,-5.20352 -1.46782,-3.8317 -1.04502,0.55928 -1.90004,1.67603 -1.90004,2.48168 0,0.80565 -0.50625,1.35232 -1.125,1.21482 -0.61875,-0.1375 -1.33125,0.3125 -1.58333,1 -0.797607,2.17528 4.47217,1.42525 6.07619,-0.8648 z m 53.6822,-0.91074 c 2.18372,-1.11405 8.35329,-6.33551 13.71017,-11.60326 9.67056,-9.50965 9.71339,-9.57315 6.02793,-8.9363 -2.89996,0.50111 -4.13031,0.22295 -5.625,-1.27174 -1.05224,-1.05224 -2.49042,-2.10558 -3.19595,-2.34076 -0.72922,-0.24307 -1.24198,-1.8632 -1.18821,-3.75431 0.13457,-4.73307 4.14808,-8.43868 12.48809,-11.53002 10.34745,-3.83544 12.52503,-5.80549 32.05497,-28.99994 2.29787,-2.72903 6.42794,-7.22665 9.17794,-9.99472 4.38433,-4.41313 5.00586,-5.55335 5.04757,-9.25992 0.0432,-3.84119 -0.10089,-4.09272 -1.57874,-2.75528 -2.28326,2.06632 -2.79128,1.86033 -3.15241,-1.27821 -0.17403,-1.5125 -0.76642,-2.77212 -1.31642,-2.79916 -2.36664,-0.11633 -5.35774,-1.63774 -5.87623,-2.98891 -0.84462,-2.20104 -3.16826,-1.75708 -4.34728,0.83059 -0.5745,1.26088 -3.23423,4.74838 -5.91052,7.75 -6.31501,7.08267 -12.44869,14.70858 -14.77206,18.3659 l -1.84762,2.90843 3.03122,-2.15843 C 194.44469,167.97129 196.25002,167 196.78936,167 c 0.53934,0 1.65363,-1.0125 2.47621,-2.25 0.82257,-1.2375 4.04616,-3.78066 7.16353,-5.65147 4.42017,-2.65265 5.93246,-3.13609 6.86943,-2.19601 1.26141,1.2656 1.45658,1.04688 -6.33314,7.09748 -1.77021,1.375 -4.0377,3.26359 -5.03885,4.19687 -1.00116,0.93328 -4.20669,3.32139 -7.12341,5.30691 -7.31044,4.97648 -13.05429,10.66103 -17.42367,17.24378 -4.1447,6.24426 -6.87926,9.25244 -8.41084,9.25244 -0.56727,0 -1.29041,0.675 -1.60699,1.5 -0.31659,0.825 -1.0205,1.5 -1.56425,1.5 -0.54375,0 -2.31933,0.94754 -3.94573,2.10564 -2.40262,1.71081 -3.78875,1.98092 -7.39243,1.44052 -8.52494,-1.2784 -9.74576,-5.84207 -3.30342,-12.34881 2.28569,-2.30854 4.98569,-4.19735 6,-4.19735 1.01431,0 3.62027,-1.77607 5.79102,-3.94682 2.17075,-2.17075 5.43325,-4.71478 7.25,-5.65339 4.64211,-2.39833 12.64044,-9.31167 13.34639,-11.53594 0.32536,-1.02512 1.12583,-1.86385 1.77882,-1.86385 0.65299,0 2.76017,-2.08177 4.68261,-4.62615 1.92245,-2.54438 6.02736,-7.24988 9.12203,-10.45666 3.09466,-3.20679 5.3577,-6.09949 5.02896,-6.42823 -0.32874,-0.32874 -0.0483,-0.93728 0.62326,-1.3523 0.93631,-0.57868 0.8707,-1.20713 -0.28142,-2.69563 -1.14025,-1.47317 -1.36284,-1.53839 -0.92347,-0.2706 0.4171,1.20354 -0.0713,1.76268 -1.74755,2.00048 -1.49402,0.21196 -2.27675,0.95605 -2.18756,2.07957 0.17018,2.14375 -1.94637,2.28888 -3.63889,0.24952 -1.80773,-2.17819 -3.92044,-1.83947 -4.91968,0.78874 -0.4786,1.25881 -2.98003,3.37388 -5.55874,4.70016 -2.57871,1.32628 -5.32212,3.31594 -6.09646,4.42146 -0.77434,1.10553 -2.41293,2.54793 -3.64132,3.20535 -2.64282,1.41439 -7.06733,5.139 -13.71009,11.54131 -3.84633,3.7071 -4.73463,5.16595 -4.35494,7.15213 0.5135,2.68623 -2.56017,6.69085 -5.13544,6.69085 -0.77916,0 -1.56666,0.40782 -1.75,0.90628 -0.18333,0.49845 -2.80833,2.53824 -5.83333,4.53286 -4.79927,3.16454 -6.00962,3.54429 -9.5,2.98066 -4.88328,-0.78856 -6.5,-1.99292 -6.5,-4.84208 0,-3.0061 4.68835,-9.96241 8.05455,-11.95087 1.53089,-0.90432 5.3253,-3.71481 8.43202,-6.24553 3.10673,-2.53072 6.79621,-4.66431 8.19885,-4.74131 1.51117,-0.083 3.54135,-1.36233 4.98277,-3.14001 6.53725,-8.06232 11.55033,-14.8045 17.24175,-23.18875 3.43065,-5.05382 6.87935,-9.72142 7.6638,-10.37245 0.78444,-0.65103 1.42626,-1.75215 1.42626,-2.44694 0,-0.69478 0.66317,-2.54151 1.47372,-4.10384 1.98774,-3.83138 0.16112,-5.87103 -2.31881,-2.58924 -1.07782,1.42633 -2.3367,2.06869 -3.31696,1.69253 -0.93914,-0.36038 -1.82225,0.0254 -2.17752,0.95122 -0.32871,0.85661 -1.25217,1.55747 -2.05212,1.55747 -0.79996,0 -2.72658,1.25264 -4.28139,2.78364 -1.5548,1.531 -5.75192,4.98614 -9.32692,7.67809 -3.575,2.69195 -7.21077,5.60181 -8.0795,6.46636 -0.86872,0.86455 -4.20314,3.82191 -7.40982,6.57191 -3.20668,2.75 -7.03579,6.125 -8.50915,7.5 -6.17832,5.76589 -11.21135,10 -11.88687,10 -0.39728,0 -2.20806,1.53289 -4.02396,3.40642 -5.08529,5.24668 -13.5564,10.73584 -15.44789,10.01001 -1.84755,-0.70898 -2.18684,-2.96217 -0.59425,-3.94644 0.72162,-0.44599 0.69699,-1.07165 -0.079,-2.00666 -1.67477,-2.01797 -0.6838,-3.23054 13.64427,-16.6954 14.56711,-13.68951 18.855,-18.42916 44.99795,-49.73878 1.35336,-1.62083 1.87277,-3.19927 1.44626,-4.39504 -0.58699,-1.645716 -1.17002,-1.366419 -4.94085,2.36692 -3.39405,3.3603 -4.15204,4.72404 -3.67721,6.61589 0.59191,2.35836 -0.7472,3.31306 -1.93999,1.38308 -0.33992,-0.55 -1.41304,-1 -2.3847,-1 -0.97167,0 -2.81053,-1.11113 -4.08635,-2.46918 -2.75003,-2.92728 -4.71091,-2.34255 -2.53967,0.75733 2.20998,3.15519 1.86039,5.30534 -1.23928,7.62209 -7.95825,5.94815 -42.35319,39.77747 -45.91539,45.16032 -1.477839,2.23316 -3.880121,4.67729 -5.338405,5.4314 -1.458284,0.75411 -3.741501,2.97159 -5.073815,4.92774 -1.547201,2.27165 -3.223957,3.5591 -4.641005,3.56347 -1.357196,0.004 -2.036061,0.49217 -1.74844,1.25683 0.258597,0.6875 -0.880526,2.01657 -2.531385,2.95349 -3.810095,2.16236 -3.770381,3.50263 0.24844,8.38427 1.7875,2.17127 3.7,4.69038 4.25,5.59802 6.776209,11.18249 26.31725,30.78599 35.15233,35.26469 2.11622,1.07276 4.52267,2.46545 5.34767,3.09488 3.03588,2.31618 10.58966,4.6179 17.81382,5.42806 4.51241,0.50604 8.04624,1.45808 9.01753,2.42937 2.03595,2.03595 2.43472,2.01229 7.21871,-0.42832 z M 215.19037,154.25 c 0.18536,-0.9625 0.99969,-1.75 1.80963,-1.75 0.80994,0 1.62427,0.7875 1.80963,1.75 0.23646,1.22785 -0.30348,1.75 -1.80963,1.75 -1.50615,0 -2.04609,-0.52215 -1.80963,-1.75 z m 4.15471,-2.79313 c -0.32569,-0.84872 -0.3415,-1.79378 -0.0351,-2.10013 0.87571,-0.87571 2.69007,0.60965 2.69007,2.20228 0,1.91885 -1.90756,1.84546 -2.65492,-0.10215 z M 41.5,237 c -0.483824,-0.78284 -1.059069,-0.84093 -1.725735,-0.17426 -0.55,0.55 -0.673419,1.52841 -0.274265,2.17426 0.483824,0.78284 1.059069,0.84093 1.725735,0.17426 0.55,-0.55 0.673419,-1.52841 0.274265,-2.17426 z m 36.227129,0 2.542588,-2 H 77.834859 C 75.446231,235 73,236.61906 73,238.2 c 0,1.39891 2.101282,0.86549 4.727129,-1.2 z m -26.855244,-1.89966 c 0.754536,-0.47797 1.193027,-1.4056 0.974424,-2.06141 -0.256779,-0.77034 -1.062677,-0.45733 -2.276872,0.88434 -1.909568,2.11005 -1.192873,2.75776 1.302448,1.17707 z m 10.642657,-6.91913 c -0.301332,-0.30133 -1.04521,-0.0505 -1.653064,0.55731 -0.607853,0.60786 -1.725353,0.86721 -2.483333,0.57635 C 56.620165,229.024 56,229.20917 56,229.72634 c 0,1.9175 1.295948,2.12585 3.645827,0.58615 1.329124,-0.87087 2.170046,-1.82995 1.868715,-2.13128 z M 45.57356,228.30024 C 45.222641,225.90928 43,225.43407 43,227.75 c 0,1.05417 0.287766,2.20443 0.63948,2.55615 1.035248,1.03524 2.202716,-0.17558 1.93408,-2.00591 z M 87,227.88197 c 0,-0.55 -0.45,-0.72189 -1,-0.38197 -0.55,0.33992 -1,1.06803 -1,1.61803 0,0.55 0.45,0.72189 1,0.38197 0.55,-0.33992 1,-1.06803 1,-1.61803 z m -31,-4.44099 c 0,-0.85746 -0.45,-1.2809 -1,-0.94098 -0.55,0.33992 -1,1.04148 -1,1.55902 0,0.51754 0.45,0.94098 1,0.94098 0.55,0 1,-0.70156 1,-1.55902 z m 17.52387,-0.83478 c 1.759626,-1.28667 1.645533,-1.38069 -1.484445,-1.22327 -1.864817,0.0938 -3.574066,0.72099 -3.798333,1.3938 -0.554366,1.66309 2.928921,1.55066 5.282778,-0.17053 z M 63.4349,221.02475 c 3.760122,-1.42959 3.298284,-3.42139 -0.611983,-2.63933 -3.751174,0.75023 -4.244303,1.12375 -3.364036,2.54805 0.803288,1.29975 0.797844,1.29962 3.976019,0.0913 z m 26.155797,-3.76739 C 88.8972,216.56387 87,217.97291 87,219.18146 c 0,0.6631 0.573782,0.58723 1.524166,-0.20152 0.838291,-0.69572 1.31823,-1.47088 1.066531,-1.72258 z M 79.562909,210.93297 82.5,207.86595 l -2.82385,0.3775 c -2.814502,0.37625 -4.631765,2.13336 -4.660837,4.50655 -0.02484,2.02764 1.417807,1.45122 4.547596,-1.81703 z M 183,211.88337 c 0,-0.6438 -0.8937,-0.88292 -2.11054,-0.56471 -1.52434,0.39862 -2.25111,0.0144 -2.61663,-1.38337 C 177.99448,208.87088 177.36922,208 176.88337,208 c -1.14918,0 -1.11453,0.69955 0.15181,3.06574 1.10435,2.06349 5.96482,2.72974 5.96482,0.81763 z m 8.86602,-2.3033 c 2.54869,-1.88097 6.17952,-5.02556 8.06851,-6.98799 3.09405,-3.21435 3.59841,-3.41975 5.08768,-2.07198 1.47737,1.337 1.84641,1.28255 3.47046,-0.512 1.63185,-1.80317 1.64841,-2.0081 0.16232,-2.0081 -3.00277,0 -1.74465,-1.96312 6.00341,-9.36749 4.21212,-4.02528 7.24465,-7.5744 6.73895,-7.88693 -0.5057,-0.31254 -4.06448,1.88279 -7.9084,4.87852 -3.84392,2.99573 -8.18989,6.2362 -9.65772,7.20104 -5.74341,3.77534 -18.78048,17.14355 -18.19834,18.66058 0.78621,2.04882 0.93755,2.00255 6.23313,-1.90565 z M 137.075,187.725 c -0.12369,-1.1957 -1.49529,-0.96414 -1.925,0.325 -0.22,0.66 0.14,1.02 0.8,0.8 0.66,-0.22 1.16625,-0.72625 1.125,-1.125 z M 223.5,187 c 0.33992,-0.55 0.14148,-1 -0.44098,-1 -0.58246,0 -1.05902,0.45 -1.05902,1 0,0.55 0.19844,1 0.44098,1 0.24254,0 0.7191,-0.45 1.05902,-1 z m -83,-5 c 1.43678,-1.58763 1.50998,-2 0.35499,-2 -1.56849,0 -3.85499,1.89801 -3.85499,3.2 0,1.41695 1.6408,0.85439 3.5,-1.2 z m 6.08333,-6 C 147.3625,176 148,175.32119 148,174.49153 c 0,-1.25815 -0.33189,-1.30121 -2,-0.25946 -1.1,0.68696 -1.96447,1.92828 -1.92105,2.75848 0.0537,1.02648 0.24033,1.10949 0.58333,0.25945 0.27741,-0.6875 1.14189,-1.25 1.92105,-1.25 z m 76.42968,-2.00884 c 3.2468,-2.20486 7.13207,-4.47602 8.63392,-5.04702 1.50186,-0.57101 3.34801,-1.9196 4.10256,-2.99688 0.75456,-1.07727 2.67036,-2.63013 4.25734,-3.45079 C 243.59635,160.64026 248.69569,156 247.14602,156 246.51571,156 246,155.13032 246,154.06739 c 0,-1.06294 -0.7875,-2.17129 -1.75,-2.463 -2.4965,-0.75663 -8.25,-0.44092 -8.25,0.45271 0,0.414 -2.98999,3.83302 -6.64443,7.59782 -5.68172,5.8533 -10.79896,12.22811 -13.72269,17.09508 -1.40258,2.33478 1.44936,1.26868 7.38013,-2.75884 z m 16.11654,0.42166 c 6.9776,-4.69558 15.24374,-12.99981 14.36136,-14.42754 -0.45805,-0.74113 -1.58497,-0.27887 -3.34105,1.3705 -14.29703,13.42824 -17.55966,16.62003 -17.00035,16.63122 0.35723,0.007 3.04825,-1.60123 5.98004,-3.57418 z m -73.68234,-11.49823 c -0.32197,-0.52097 -1.01165,-0.68378 -1.53262,-0.3618 -0.52097,0.32197 -0.68378,1.01165 -0.3618,1.53262 0.32197,0.52097 1.01165,0.68378 1.53262,0.3618 0.52097,-0.32197 0.68378,-1.01165 0.3618,-1.53262 z m 5.86853,-7.06429 c 1.20134,-0.63234 2.40926,-1.43373 2.68426,-1.78087 0.275,-0.34714 3.78096,-2.59255 7.79101,-4.98981 4.01006,-2.39725 7.89302,-5.21813 8.62881,-6.2686 1.01411,-1.44785 1.99874,-1.74407 4.06959,-1.22432 2.39207,0.60037 2.6544,0.44178 2.10944,-1.27526 -0.45513,-1.43397 0.0481,-2.31973 1.87282,-3.29628 2.83601,-1.51779 4.2246,-4.71889 2.70581,-6.23768 -0.56165,-0.56165 -0.80278,-1.59036 -0.53583,-2.28602 0.53996,-1.40711 -4.99195,-5.80783 -6.01486,-4.78492 -0.3561,0.3561 -1.23959,-0.16233 -1.96331,-1.15208 -1.22202,-1.67121 -1.54457,-1.52338 -4.52299,2.073 -1.76392,2.1299 -5.29507,8.09771 -7.84699,13.26181 -2.55192,5.16411 -6.36193,11.37898 -8.46668,13.81082 -4.88029,5.63874 -4.98711,6.50621 -0.51108,4.15021 z M 232.5,149 c -0.33992,-0.55 -1.04148,-1 -1.55902,-1 -0.51754,0 -0.94098,0.45 -0.94098,1 0,0.55 0.70156,1 1.55902,1 0.85746,0 1.2809,-0.45 0.94098,-1 z m 32,-1.90049 3,-0.66386 -5,-2.88399 c -2.75,-1.58619 -5.9,-3.63539 -7,-4.55377 -2.11562,-1.76631 -8.37961,-5.32488 -22.42943,-12.74214 -13.82875,-7.30056 -17.66142,-10.04067 -22.11062,-15.80766 C 208.64821,107.45164 206.36673,105 205.89,105 204.69304,105 194.87124,96.62463 188.37884,90.067651 184.98353,86.638565 183,83.780633 183,82.317651 183,81.042943 182.50963,80 181.91029,80 c -1.16259,0 -4.8214,-3.969008 -4.87702,-5.290493 -0.0183,-0.43477 -0.9384,-2.014747 -2.04467,-3.511058 -2.01923,-2.731149 -2.64228,-4.651344 -3.65659,-11.26928 -0.7166,-4.675572 3.47893,-13.250135 7.40372,-15.131238 1.52035,-0.728684 2.67577,-1.768817 2.56761,-2.311406 -0.5144,-2.580349 9.18148,-5.368464 21.45948,-6.170814 6.89867,-0.450819 7.68245,-0.2715 15.63231,3.576451 4.60322,2.228087 11.89571,5.658014 16.20552,7.622061 4.30982,1.964046 8.60942,4.270902 9.55468,5.126346 0.94525,0.855445 2.22072,1.245051 2.83438,0.865793 0.61365,-0.379258 2.5545,0.686266 4.31301,2.367831 1.7585,1.681566 5.10606,4.696783 7.439,6.700484 2.33295,2.0037 3.97517,4.074382 3.64939,4.601515 -0.32579,0.527133 0.31098,1.194649 1.41505,1.483367 2.0301,0.530885 8.19384,7.426515 8.19384,9.166793 0,0.518995 1.16029,1.70388 2.57842,2.633076 1.48458,0.972735 2.35066,2.282995 2.04154,3.088564 -0.29529,0.769513 0.11703,1.76507 0.91628,2.21235 0.79924,0.447279 1.60951,2.156028 1.8006,3.79722 0.19109,1.641192 0.96289,4.099637 1.7151,5.463211 0.75222,1.363575 1.24341,3.08581 1.09153,3.827189 -0.15187,0.74138 0.39676,2.091498 1.21918,3.000268 1.09496,1.20992 1.58126,4.68727 1.81633,12.98799 0.31992,11.29679 0.31158,11.34381 -2.42898,13.70177 -1.5125,1.30134 -2.75,3.0785 -2.75,3.94923 0,2.56686 -3.06466,6.49601 -6.3985,8.20342 -4.93537,2.52764 -5.7942,4.60068 -2.61162,6.30395 1.56731,0.83879 2.89457,0.568 6.25,-1.27514 8.71069,-4.7848 11.32078,-6.7057 13.01984,-9.58197 2.48831,-4.21238 4.06792,-14.19284 3.90724,-24.68721 -0.12293,-8.02823 -0.5759,-10.12456 -4.01304,-18.571983 C 285.41531,81.232258 275.93635,68 272.3323,68 271.04953,68 270,67.535877 270,66.968615 c 0,-0.567261 -0.7875,-1.315483 -1.75,-1.662715 -0.9625,-0.347231 -3.93862,-2.648962 -6.61361,-5.114956 -3.80806,-3.510544 -4.35063,-4.356572 -2.5,-3.898204 1.99036,0.492975 1.76639,0.06073 -1.41831,-2.737228 -2.08005,-1.827458 -4.53781,-3.262544 -5.46168,-3.189081 -0.93568,0.0744 -1.85917,-0.741328 -2.08475,-1.841498 -0.49803,-2.428839 -3.13351,-4.476797 -4.89249,-3.801814 -0.71755,0.275348 -2.02189,-0.09464 -2.89855,-0.822202 -0.87665,-0.727558 -2.42422,-1.790402 -3.43903,-2.361875 -1.01481,-0.571473 -4.90432,-3.550128 -8.64335,-6.619233 -5.37142,-4.409019 -8.05751,-5.865923 -12.79823,-6.941597 -3.3,-0.748774 -6.225,-1.68021 -6.5,-2.06986 -0.275,-0.389649 -1.175,-0.844091 -2,-1.009871 -2.20793,-0.443672 -14.93389,2.185541 -15.57143,3.217092 C 193.12794,28.602008 191.36008,29 189.5,29 c -1.86008,0 -3.66008,0.45 -4,1 -0.33992,0.55 -1.4102,1 -2.37841,1 -2.98358,0 -12.10381,7.575397 -16.66203,13.839736 -2.38285,3.274725 -4.0638,6.222686 -3.73547,6.551024 0.32834,0.328338 -0.17549,1.450549 -1.11962,2.493802 -1.57247,1.737562 -1.59179,2.304819 -0.2301,6.75613 0.81758,2.67262 2.27517,7.559308 3.23909,10.859308 1.78525,6.111804 3.42917,9.428284 6.44388,13 0.92845,1.1 2.08287,3.147152 2.56538,4.549227 0.4825,1.402075 3.80228,5.220109 7.37728,8.48452 3.575,3.264413 7.5469,7.517263 8.82645,9.450773 2.55687,3.86367 8.06342,8.94626 9.73834,8.98858 0.58563,0.0148 1.81585,1.6019 2.73382,3.5269 0.91797,1.925 2.3167,3.5 3.10829,3.5 0.79159,0 2.75842,1.2375 4.37073,2.75 3.52764,3.30926 11.47676,8.25 13.27336,8.25 0.71034,0 2.00196,0.58453 2.87027,1.29896 1.42302,1.17084 9.43236,4.83895 14.57874,6.67675 16.03802,5.72727 18.7024,6.29609 24,5.1238 z M 141,144.5 c 0.68469,-0.825 1.75229,-1.51666 2.37244,-1.53701 0.62016,-0.0204 5.39983,-3.62036 10.6215,-8 5.22167,-4.37965 10.0733,-7.96299 10.78139,-7.96299 0.70809,0 1.57888,-0.75949 1.93509,-1.68774 0.63357,-1.65108 4.98182,-5.81986 10.23466,-9.81226 2.40195,-1.82559 3.13878,-5.5 1.10292,-5.5 -0.44295,0 -1.36455,-1.35 -2.048,-3 -0.68345,-1.65 -1.61126,-3 -2.06179,-3 -0.45054,0 -2.70721,2.23912 -5.01484,4.97583 -2.30762,2.7367 -4.92191,5.22114 -5.80952,5.52097 -0.88762,0.29984 -2.73885,2.10968 -4.11385,4.02188 -1.375,1.9122 -5.9277,7.0993 -10.11712,11.5269 -4.18941,4.42759 -8.31571,9.82863 -9.16955,12.00229 -1.57773,4.01651 -0.97111,5.17259 1.28667,2.45213 z m 1,-33.94098 c 0,-0.24254 -0.45,-0.7191 -1,-1.05902 -0.55,-0.33992 -1,-0.14148 -1,0.44098 0,0.58246 0.45,1.05902 1,1.05902 0.55,0 1,-0.19844 1,-0.44098 z M 162.58138,91.868323 C 162.96606,91.2459 162.54262,90.32354 161.6404,89.818633 160.73818,89.313726 160,88.24798 160,87.45031 160,86.652639 159.54143,86 158.98095,86 c -0.91623,0 -0.43514,4.197513 0.71633,6.25 0.62032,1.105729 2.0846,0.91195 2.8841,-0.381677 z m 28.96075,-30.936497 c 0.3631,-0.587495 1.24175,-0.845001 1.95257,-0.572234 0.71082,0.272766 2.25529,-0.529015 3.43216,-1.781736 1.899,-2.021394 1.96724,-2.420859 0.60645,-3.55021 -1.24014,-1.029228 -1.82608,-1.029555 -3.06457,-0.0017 -1.2653,1.050112 -1.80052,0.941119 -3.08163,-0.627555 -1.34955,-1.652479 -1.47504,-1.6717 -0.96875,-0.148385 0.3199,0.9625 0.83209,2.36586 1.1382,3.118578 0.33618,0.826681 -0.25775,1.581525 -1.5,1.906381 C 188.92545,59.57075 188,60.30489 188,60.90638 c 0,1.405725 2.67719,1.424957 3.54213,0.02545 z"/>
</svg>
