<?xml version="1.0" encoding="utf-8"?>
<!-- Created with Inkscape (http://www.inkscape.org/) -->
<svg xmlns="http://www.w3.org/2000/svg" xmlns:cc="http://creativecommons.org/ns#" xmlns:dc="http://purl.org/dc/elements/1.1/" xmlns:inkscape="http://www.inkscape.org/namespaces/inkscape" xmlns:rdf="http://www.w3.org/1999/02/22-rdf-syntax-ns#" xmlns:sodipodi="http://sodipodi.sourceforge.net/DTD/sodipodi-0.dtd" xmlns:svg="http://www.w3.org/2000/svg" height="104" id="svg2" version="1.1" viewBox="0 0 69 104" width="69" sodipodi:docname="illustration-nonsense-alphabet-6-12.svg" inkscape:version="0.92.4 (5da689c313, 2019-01-14)">
	<metadata id="metadata8">
		<rdf:RDF>
			<cc:Work rdf:about="">
				<dc:format>image/svg+xml</dc:format>
				<dc:type rdf:resource="http://purl.org/dc/dcmitype/StillImage"/>
				<dc:title/>
			</cc:Work>
		</rdf:RDF>
	</metadata>
	<defs id="defs6"/>
	<sodipodi:namedview bordercolor="#666666" borderopacity="1" gridtolerance="10" guidetolerance="10" id="namedview4" objecttolerance="10" pagecolor="#ffffff" showgrid="false" inkscape:current-layer="svg2" inkscape:cx="35.381356" inkscape:cy="52" inkscape:pageopacity="0" inkscape:pageshadow="2" inkscape:window-height="1004" inkscape:window-maximized="1" inkscape:window-width="1920" inkscape:window-x="0" inkscape:window-y="0" inkscape:zoom="6.4183539"/>
	<path d="M 20.388562,93.095225 C 10.939381,87.333284 10.544629,74.581781 19.682382,70.283772 L 23.5,68.488128 l 0.332064,-7.862 c 0.325556,-7.707912 -0.939147,-12.014821 -2.283919,-7.77782 -0.431503,1.359545 -1.187014,1.843765 -2.243944,1.438183 C 17.231744,53.491215 15,56.552792 15,60.19113 c 0,2.985681 1.675887,3.817071 2.638374,1.30887 0.934946,-2.436432 3.546286,-1.820778 3.181177,0.75 -0.214228,1.508409 -1.125074,2.363701 -2.763523,2.59497 C 14.969586,65.280625 13,62.716355 13,58.26236 c 0,-2.677083 0.603291,-3.699745 2.984344,-5.05887 3.886332,-2.218352 4.497597,-4.031113 2.228544,-6.608947 C 8.395778,35.441483 11.221821,20.667061 24.5,13.725809 c 9.577508,-5.0067022 24.243975,-0.822718 29.128617,8.309682 3.059389,5.719881 2.999476,10.428797 -0.210506,16.545031 -1.59081,3.031097 -2.585139,6.550874 -2.590356,9.169478 -0.0085,4.283759 -1.098357,5.593163 -2.220766,2.668213 -0.96588,-2.517043 -0.706768,-7.105115 0.558033,-9.881051 0.999575,-2.193829 0.857563,-2.884219 -1,-4.861504 -2.780803,-2.960029 -2.996925,-6.191246 -0.318218,-4.757646 4.185549,2.240038 5.561405,-3.903413 2.12091,-9.470251 C 44.333635,12.33163 28.840481,10.638737 21.01998,18.284725 c -3.302519,3.228824 -6.636274,8.715296 -5.29566,8.715246 0.426624,-1.7e-5 2.030143,-1.572232 3.563375,-3.493813 4.084002,-5.118429 7.991501,-6.813593 14.467914,-6.276518 3.137287,0.260168 5.81551,1.045326 6.34548,1.860265 1.496696,2.301482 0.604265,6.354006 -1.486674,6.75098 -1.553514,0.294941 -1.796882,-0.106038 -1.381904,-2.276858 0.67511,-3.531607 -2.075441,-4.964628 -7.863226,-4.096696 -3.691391,0.553558 -4.923964,1.363667 -7.63563,5.01852 -1.77851,2.397121 -3.991401,4.568536 -4.917535,4.825366 -2.857145,0.792325 -3.305812,6.808584 -0.864611,11.593733 2.041082,4.00085 4.321041,4.720404 3.981187,1.25646 -0.08965,-0.913775 -0.111185,-2.752351 -0.04785,-4.085724 L 20,35.651372 22.5,38 C 24.048735,39.454961 25,41.448834 25,43.240055 25,46.490341 26.575821,50 28.035184,50 28.573801,50 29,46.498135 29,42.07258 29,34.807732 28.791051,33.980801 26.5,32.17866 25.125,31.097085 24,29.91797 24,29.558404 c 0,-0.359566 3.6,-0.523805 8,-0.364976 4.4,0.158828 8,0.466181 8,0.683005 0,0.216824 -1.125,1.43684 -2.5,2.711147 -2.213284,2.051202 -2.5,3.129239 -2.5,9.399855 0,6.773055 0.0875,7.036104 2,6.012565 1.494359,-0.799756 2,-2.093823 2,-5.118517 0,-2.807033 0.383236,-3.912956 1.25,-3.607188 0.6875,0.24253 1.135109,1.29253 0.994686,2.333334 -1.318083,9.769546 -1.242555,17.690276 0.196185,20.574299 1.715064,3.437927 1.471033,4.38198 -0.897743,3.472995 C 39.342795,65.194313 39,63.402834 39,57.590402 c 0,-7.068502 -1.089992,-9.978129 -2.97942,-7.95327 -1.183608,1.268448 -2.092463,20.628525 -1.047756,22.318896 0.546785,0.884717 2.359766,1.402575 4.680049,1.336804 4.400676,-0.124741 7.942375,-3.698646 8.952674,-9.034082 1.094514,-5.78018 2.438773,-2.323698 2.163012,5.561737 L 50.5,77.5 42,77.308915 c -4.675,-0.105097 -10.715941,-0.217597 -13.424314,-0.25 L 23.651372,77 26.075686,74.421973 c 2.187595,-2.326298 2.457613,-3.595669 2.765339,-13 C 29.06082,54.704866 28.815186,51 28.150042,51 25.871891,51 25.4392,53.059731 25.156524,65.25 25.018799,71.189318 24.769013,72 23.076725,72 c -1.057801,0 -3.246071,1.11306 -4.862822,2.473466 -2.433488,2.047645 -2.8888,3.113047 -2.64477,6.1886 0.421636,5.313934 2.25727,8.151892 7.113606,10.997894 2.9836,1.748506 4.937935,2.278418 6.536673,1.772399 3.514411,-1.112353 6.714361,-3.755778 6.749163,-5.57537 0.04449,-2.326351 -2.729325,-3.106922 -3.860139,-1.086269 -0.8837,1.579084 -1.067533,1.576272 -2.857599,-0.04371 C 28.19861,85.774752 27.057672,85.275662 26.715419,85.617915 25.81377,86.519563 21,85.14084 21,83.980948 c 0,-0.539521 1.2375,-0.99526 2.75,-1.012751 1.5125,-0.01749 3.623508,-0.692492 4.69113,-1.5 2.981283,-2.25493 6.035668,-1.76061 9.215074,1.491364 2.826308,2.890815 2.985854,2.927321 6.868657,1.571584 3.226514,-1.126584 4.341471,-1.149933 5.920333,-0.123979 2.439897,1.585459 2.79899,2.689018 1.49449,4.592834 -0.879033,1.282879 -1.256204,1.174318 -2.605717,-0.75 -2.19262,-3.126536 -4.305235,-2.822413 -9.139706,1.315715 -6.593801,5.644049 -14.134313,6.987819 -19.805699,3.52951 z" id="path12" style="fill:#000000" inkscape:connector-curvature="0"/>
</svg>
