<?xml version="1.0" encoding="utf-8"?>
<svg xmlns="http://www.w3.org/2000/svg" version="1.1" viewBox="0 0 1163 818">
	<title>A large man is threatening a smaller man with a mallet.</title>
	<path d="m 351,778.73834 c -0.275,-0.27328 -5,-0.81482 -10.5,-1.20341 -5.5,-0.3886 -11.35,-0.88945 -13,-1.11302 -7.71619,-1.04548 -24.80179,-2.60479 -28.5,-2.60103 -1.375,10e-4 -2.95116,-0.37042 -3.50257,-0.82626 -1.30201,-1.07636 -26.02191,-2.50376 -39.49743,-2.28071 -10.61682,0.17573 -32.29878,0.14796 -81.5,-0.10439 -14.85,-0.0762 -28.08418,0.11449 -29.40928,0.42368 -1.3251,0.30919 -5.14749,0.23931 -8.49419,-0.1553 -3.3467,-0.39461 -6.53753,-0.39508 -7.09072,-10e-4 -1.87125,1.33287 -11.96438,0.54833 -15.2214,-1.18316 -5.25498,-2.79365 -3.27529,-4.17193 6.28702,-4.37707 4.70102,-0.10085 12.4581,-0.6444 17.23794,-1.20788 4.77985,-0.56348 12.0731,-0.8395 16.20724,-0.61337 6.40617,0.3504 11.57058,-0.54797 9.95443,-1.73162 -0.25907,-0.18974 -3.66267,-2.4452 -7.56354,-5.01214 -3.90088,-2.56693 -7.65262,-5.34205 -8.33721,-6.16693 -1.20592,-1.45304 -1.04231,-9.56075 0.37504,-18.58469 0.30235,-1.925 0.75609,-6.2 1.00831,-9.5 0.25222,-3.3 0.73937,-7.54588 1.08255,-9.4353 0.51436,-2.8319 0.22177,-3.73867 -1.66582,-5.16248 -2.22785,-1.68047 -2.258,-1.92566 -1.11474,-9.0647 1.04922,-6.55182 1.61409,-18.75068 1.34128,-28.9662 -0.11662,-4.36656 -2.40754,-5.62001 -11.6549,-6.37681 -7.99831,-0.65459 -9.25448,0.36003 -9.91128,8.00549 -0.2835,3.3 -1.13851,8.025 -1.90002,10.5 -0.76151,2.475 -1.32913,4.725 -1.26136,5 0.0678,0.275 -0.89067,2.2184 -2.12986,4.31866 -3.61367,6.12472 -5.74714,4.93889 -10.46853,-5.81866 -7.43667,-16.94422 -9.62023,-28.62124 -6.67962,-35.72052 1.28105,-3.09273 1.35471,-3.11867 14.90866,-5.24932 5.225,-0.82136 12.65,-2.28916 16.5,-3.26177 l 7,-1.76839 -0.0923,-4 c -0.13822,-5.988 -7.17218,-19.8098 -14.67179,-28.83023 -6.89447,-8.29258 -8.7269,-12.54027 -8.75118,-20.28579 -0.0164,-5.2419 -1.12839,-8.03123 -2.7918,-7.00319 -1.59631,0.98657 -7.68954,12.39827 -10.47559,19.61921 -1.37935,3.575 -2.76819,9.26537 -3.08632,12.64527 -0.5723,6.0802 -2.2784,11.35473 -3.672806,11.35473 -0.396438,0 -1.976094,-1.64578 -3.510346,-3.65729 l -2.789549,-3.65729 -2.848303,6.22693 c -2.099292,4.58944 -3.303456,6.1405 -4.579139,5.89829 -1.296315,-0.24613 -1.807354,-1.51885 -2.035628,-5.06963 C 84.027574,620.13345 83.5564,618 83.148157,618 c -0.408244,0 -2.499914,1.8 -4.648157,4 -4.512401,4.62112 -6.623954,4.98596 -8.88499,1.53518 C 67.602356,620.46349 67.569598,618.60209 69.5,617 c 1.531676,-1.27118 2.107638,-5.05694 0.75,-4.92971 -0.4125,0.0386 -1.65,0.43304 -2.75,0.87641 -2.497514,1.00666 -4.589005,-0.53603 -3.755139,-2.76981 0.344288,-0.92229 2.475855,-4.82689 4.736814,-8.67689 6.549912,-11.1533 13.131707,-26.21995 11.964118,-27.38754 -0.749669,-0.74967 -3.377786,2.07807 -6.991944,7.52303 -1.98948,2.99728 -4.518792,5.99295 -5.620693,6.65705 -1.101901,0.66411 -3.097719,3.34496 -4.435152,5.95746 C 62.060571,596.8625 60.556032,599 60.054583,599 58.865229,599 56,596.12287 56,594.92857 56,592.89711 53.330124,594.17113 51.659071,597 c -2.027296,3.43194 -5.222873,3.9497 -6.1597,0.99802 -0.487881,-1.53718 -1.200043,-1.86027 -3.067387,-1.39159 C 40.492345,597.09325 40,596.83047 40,595.30841 c 0,-1.04963 -0.48109,-2.3895 -1.069088,-2.9775 -0.72759,-0.72759 -0.772678,-2.6999 -0.141152,-6.17448 1.038679,-5.7147 0.749302,-6.51529 -1.851797,-5.12323 -2.625379,1.40506 -5.118118,-1.38588 -4.33674,-4.85553 0.331662,-1.47272 2.426416,-5.82767 4.655008,-9.67767 2.228593,-3.85 4.789085,-8.37415 5.689983,-10.05367 0.900898,-1.67952 2.744049,-4.57978 4.095891,-6.44504 7.755539,-10.701 15.902653,-25.50876 25.584638,-46.50129 4.433408,-9.61254 4.688881,-14.26573 1.454923,-26.5 -1.23577,-4.675 -2.382737,-9.4 -2.548814,-10.5 -0.166078,-1.1 -0.793759,-4.025 -1.394848,-6.5 -3.901136,-16.06304 -4.330475,-19.43417 -4.712226,-37 -0.221129,-10.175 -0.628677,-19.625 -0.905662,-21 -0.276984,-1.375 -0.601591,-7.9 -0.721347,-14.5 -0.202342,-11.15138 0.01167,-12.69797 3.026296,-21.86982 C 70.36834,354.84994 70.961232,353.5305 79.319171,337.82527 82.443627,331.95418 85,326.42048 85,325.52817 85,323.19724 92.59281,309.69473 97.134466,303.9491 99.26051,301.25946 101,298.64735 101,298.14443 c 0,-0.50293 1.06692,-1.61348 2.37093,-2.4679 1.30401,-0.85442 3.89151,-2.97079 5.75,-4.70305 4.19107,-3.90641 16.6814,-12.43966 19.37907,-13.23957 1.1,-0.32617 7.175,-2.4585 13.5,-4.7385 6.325,-2.28001 14.875,-4.77389 19,-5.54197 4.125,-0.76807 8.625,-1.65855 10,-1.97885 10.79827,-2.51533 23.99041,-2.89996 32.73518,-0.95444 15.28373,3.40031 25.17048,7.98851 33.69058,15.63498 4.65719,4.17966 6.76084,7.10016 9.82658,13.64228 2.14545,4.57827 4.42886,8.49326 5.07424,8.69996 0.64538,0.20671 7.38498,0.59423 14.97688,0.86116 14.63738,0.51464 16.69654,1.16688 16.69654,5.28867 0,1.71594 -0.7857,2.6829 -2.75,3.3844 -1.5125,0.54016 -4.00728,1.69115 -5.54396,2.55776 -1.60835,0.90702 -5.21532,1.59014 -8.5,1.60979 -4.25719,0.0255 -6.16028,0.51236 -7.495,1.9175 -0.98392,1.03584 -2.86986,1.88335 -4.19098,1.88335 -3.06463,0 -3.21367,0.281 -5.12369,9.66028 -0.87807,4.31185 -2.45147,10.41302 -3.49643,13.55817 C 245.85497,346.3636 245,350.96753 245,353.4494 c 0,3.88985 0.32108,4.59308 2.32696,5.09652 1.27982,0.32122 3.62633,0.44229 5.21445,0.26906 2.1073,-0.22987 2.98463,0.15869 3.24695,1.43804 0.1977,0.96417 -0.3488,1.97667 -1.21445,2.25 -0.86565,0.27334 -2.28563,0.72195 -3.15551,0.99691 -1.38552,0.43795 -1.32353,0.91751 0.5,3.86803 2.91093,4.71 2.7109,6.0079 -0.81717,5.30229 -2.87018,-0.57404 -2.89355,-0.54074 -2.36834,3.375 0.43552,3.24701 0.2299,3.95475 -1.14897,3.95475 -0.92368,0 -2.72203,-1.125 -3.99634,-2.5 -1.27431,-1.375 -2.58591,-2.5 -2.91467,-2.5 -0.32876,0 -2.24208,3.4187 -4.25182,7.59712 -2.54446,5.29016 -5.66889,9.64417 -10.28918,14.33837 -6.59757,6.70312 -6.6332,6.76958 -6.29755,11.74646 0.32029,4.74905 0.0901,5.28842 -4.4984,10.53964 -3.73243,4.27153 -5.22039,7.01265 -6.52064,12.01237 l -1.68469,6.47792 3.41944,6.675 c 1.8807,3.67126 5.81914,10.14859 8.75209,14.39407 2.93296,4.24548 7.01726,10.41905 9.07623,13.71905 4.98959,7.99704 7.94523,12.06347 12.58149,17.30986 3.0586,3.46112 10.86268,17.63701 16.0719,29.19414 2.95456,6.55496 4.23165,16.56627 3.89023,30.496 -0.0934,3.81021 -3.13695,16.83562 -4.88885,20.92264 -0.96795,2.25813 -2.49639,4.71691 -3.39653,5.46397 -0.90015,0.74705 -1.63663,1.90968 -1.63663,2.58361 0,2.19813 -11.7456,12.49181 -16.65504,14.59624 -5.56592,2.38583 -8.32275,2.8151 -21.69069,3.37747 -5.41515,0.2278 -10.06996,0.63842 -10.34402,0.91249 -0.27406,0.27406 2.13151,2.20613 5.34573,4.29349 15.47368,10.04883 30.8981,26.2641 32.89579,34.58243 1.16033,4.8316 -1.32228,12.07176 -5.86547,17.10576 -5.25508,5.82279 -18.26972,12.65361 -24.15866,12.67984 -4.50816,0.0201 -21.13683,2.44806 -23.66023,3.45467 -1.74226,0.69501 -4.22861,7.64355 -5.85212,16.35473 -0.54607,2.93004 -1.24612,5.73714 -1.55567,6.23799 -0.30955,0.50086 -1.22424,3.50356 -2.03264,6.67266 -1.97793,7.75385 -5.66422,16.22395 -7.06999,16.24494 -4.32209,0.0645 -1.69511,15.27624 3.71589,21.51707 0.95374,1.1 3.97643,6.725 6.71709,12.5 2.74067,5.775 5.8216,11.23851 6.84653,12.14113 3.47135,3.05712 8.0791,3.19529 79.8635,2.39478 18.97621,-0.21162 28.16117,0.089 34,1.11274 13.864,2.43085 20.66488,3.22477 32.5,3.79399 10.84414,0.52156 66.20344,1.87051 70.48302,1.71747 2.19431,-0.0785 6.51698,3.5017 6.51698,5.39757 0,0.66498 -1.0125,1.51396 -2.25,1.88661 -2.65912,0.80075 -57.02061,2.01887 -57.75,1.29405 z M 176.94265,758.66832 c -1.059,-1.74258 -2.21139,-3.84332 -2.56088,-4.66832 -3.48013,-8.21533 -6.00171,-12.55327 -9.09524,-15.64681 -3.5387,-3.53869 -3.67222,-3.935 -3.96138,-11.75766 -0.16459,-4.45254 -0.41758,-9.40803 -0.5622,-11.0122 -0.28943,-3.21038 -2.71708,-4.84907 -2.83946,-1.91666 -0.0421,1.00833 -0.26032,2.73333 -0.48496,3.83333 -1.05528,5.16721 -1.50054,9.85174 -1.92371,20.23905 l -0.45786,11.23904 3.22152,1.64881 c 3.49756,1.79009 10.57668,6.54458 14.9986,10.07337 1.52739,1.2189 3.41021,1.97322 4.18405,1.67627 1.15478,-0.44313 1.06184,-1.10781 -0.51848,-3.70822 z M 167.82074,705.25 c 0.75588,-1.48444 2.48491,-7.69748 3.68736,-13.25 0.17867,-0.825 0.84207,-3.525 1.47424,-6 2.22161,-8.69776 2.9195,-11.55855 4.41232,-18.08692 0.82842,-3.62281 3.06071,-11.27281 4.96065,-17 1.89994,-5.72719 3.97774,-13.11308 4.61734,-16.41308 0.6396,-3.3 2.05576,-8.65678 3.14703,-11.90395 1.66458,-4.95313 4.27527,-14.59639 6.56657,-24.25536 0.42622,-1.79674 -0.27453,-2.50733 -4.17342,-4.23199 -4.89772,-2.16649 -23.59472,-19.95767 -25.57009,-24.33128 -0.56574,-1.25258 -1.67103,-3.40242 -2.45621,-4.77742 -2.51645,-4.40681 0.38969,-3.4238 4.80257,1.62448 7.35944,8.41912 16.26999,16.35182 20.94468,18.6462 11.69685,5.74094 21.88247,6.31761 33.27888,1.88413 6.52914,-2.54 9.0427,-4.1852 13.57606,-8.88597 6.41669,-6.65362 8.06111,-9.11439 10.99276,-16.4499 2.71413,-6.79123 3.74703,-24.94466 1.9395,-34.08711 -0.67764,-3.42751 -1.43837,-7.35683 -1.6905,-8.73183 -0.65705,-3.58313 -5.93064,-13.66544 -10.18625,-19.47455 -2.00433,-2.736 -3.64845,-5.211 -3.65361,-5.5 -0.005,-0.289 -3.40272,-5.02545 -7.55014,-10.52545 -11.13139,-14.76162 -19.07051,-27.11351 -26.48176,-41.20102 -2.0817,-3.95693 -3.43142,-5.35371 -5.64266,-5.83938 -3.02632,-0.66469 -11.65829,-4.56311 -37.81606,-17.0787 -18.66939,-8.93266 -17.96005,-8.5529 -30.82268,-16.50172 -5.67747,-3.50855 -12.19199,-7.42735 -14.47671,-8.70844 -4.00067,-2.24326 -4.08281,-2.25055 -2.22487,-0.19754 1.06105,1.17244 4.42557,3.8134 7.47672,5.86878 3.05115,2.05539 9.25672,6.30679 13.79017,9.44755 4.53345,3.14076 8.64085,5.71047 9.12756,5.71047 0.48671,0 1.49591,0.7362 2.24269,1.63601 1.1689,1.40845 4.43128,3.79785 10.73712,7.86399 10.1655,6.55494 22.0398,16.05628 26.63141,21.30941 1.11022,1.27018 3.81859,4.33256 6.01859,6.80528 3.59264,4.03801 6.44886,8.51475 12.36811,19.38531 1.0482,1.925 3.35344,8.675 5.12276,15 2.85522,10.20694 3.1531,12.45574 2.64922,20 -0.51588,7.72399 -4.36367,27.95834 -6.13271,32.25 -0.39675,0.9625 -1.41824,1.75 -2.26998,1.75 -0.85174,0 -3.02357,1.125 -4.82629,2.5 -1.80272,1.375 -3.68546,2.5 -4.18387,2.5 -0.49842,0 -1.41044,1.10667 -2.02673,2.45927 -1.28845,2.82784 -6.37567,5.6665 -14.23061,7.94064 -6.20958,1.79778 -26.2463,2.8257 -29.67439,1.52234 -1.24754,-0.47431 -4.20746,-1.12538 -6.57759,-1.44681 -3.39164,-0.45996 -4.65366,-0.20014 -5.92626,1.22007 -1.76767,1.97271 -6.8352,12.92762 -6.25052,13.51229 0.19944,0.19944 0.7642,5.15633 1.25503,11.01531 0.59563,7.10986 1.44156,11.42163 2.5436,12.96479 0.90814,1.27165 3.91373,5.4621 6.67909,9.3121 2.76536,3.85 6.75646,10.39603 8.86911,14.54673 2.11266,4.1507 4.35581,8.4257 4.98478,9.5 1.87044,3.19474 7.82996,21.60118 8.54882,26.40366 0.36638,2.44771 1.11813,4.99498 1.67055,5.66061 0.67417,0.81232 0.5931,7.50861 -0.24655,20.36651 -0.8618,13.19711 -0.93129,19.67986 -0.22337,20.83938 0.95074,1.55726 6.95504,5.178 8.59262,5.18156 0.39315,8.5e-4 1.11581,-0.78595 1.60592,-1.74845 z m 57.60417,-126.69316 c -0.76294,-3.03979 0.114,-4.55684 2.63411,-4.55684 2.23353,0 2.72149,3.81949 0.74098,5.8 -1.79721,1.79721 -2.695,1.46653 -3.37509,-1.24316 z m 8.92744,-8.60708 c -2.27575,-1.45797 -3.00519,-2.5613 -2.63337,-3.98316 0.28286,-1.08163 0.61965,-1.9666 0.74843,-1.9666 1.83882,0 6.3666,2.50456 7.33707,4.05853 2.53011,4.05134 -0.46092,5.08886 -5.45213,1.89123 z m 3.57562,-13.807 c -2.37657,-1.92443 -2.38383,-1.98156 -0.51429,-4.04737 2.35297,-2.60001 3.78316,-2.64035 6.01899,-0.16979 3.93656,4.34985 -0.83062,8.002 -5.5047,4.21716 z m 4.62873,-9.36527 c -2.70894,-3.86755 -1.92747,-6.94872 1.53287,-6.04382 2.52103,0.65927 4.20097,3.77555 3.39844,6.3041 -0.82594,2.60232 -3.00689,2.48721 -4.93131,-0.26028 z m -3.10967,-13.83603 c -1.42372,-1.57318 -1.61301,-2.45733 -0.80286,-3.75 1.34542,-2.14673 5.36426,-2.78514 6.47743,-1.02895 1.38112,2.17893 0.99741,5.57784 -0.70339,6.2305 -2.41926,0.92836 -2.96039,0.77035 -4.97118,-1.45155 z m 1.1244,-13.51289 c -1.71079,-1.71078 -2.12093,-5.97093 -0.66167,-6.8728 2.49558,-1.54235 6.60249,3.25492 5.57039,6.50678 -0.74384,2.34362 -2.77935,2.4954 -4.90872,0.36602 z m -6.91644,-11.25731 c -2.09067,-2.31016 -2.12313,-4.77764 -0.0732,-5.56427 2.17901,-0.83617 2.10106,-0.86378 4.33751,1.53676 1.52153,1.63318 1.7606,2.58585 1.00377,4 -1.25978,2.35392 -3.15376,2.36381 -5.26808,0.0275 z m -6.60396,-9.57591 C 225.40134,495.51287 226.37219,494 230,494 c 1.58508,0 3.1866,0.49291 3.55893,1.09535 C 234.5442,496.68955 231.94615,501 230,501 c -0.91412,0 -2.24116,-1.08209 -2.94897,-2.40465 z M 118,675.39132 c 0,-1.36985 0.69339,-3.83151 1.54087,-5.47035 0.84747,-1.63884 1.32425,-3.33019 1.05951,-3.75855 -0.26475,-0.42837 0.50436,-2.01301 1.70913,-3.52143 2.66158,-3.33239 7.49885,-4.58487 17.83208,-4.61713 7.22525,-0.0226 7.67445,-0.15475 8.24454,-2.42618 1.2249,-4.88041 -1.45014,-12.53035 -3.76881,-10.77785 -0.95107,0.71884 -6.96023,2.19926 -15.21886,3.74932 -1.15585,0.21694 -2.37743,0.11854 -2.71463,-0.21865 -1.50569,-1.50569 -7.71851,-0.96966 -9.32406,0.80446 -0.91836,1.01477 -2.19656,1.84504 -2.84044,1.84504 -0.64389,0 -2.20929,1.10552 -3.47867,2.45672 -2.72988,2.90583 -2.57649,4.20639 1.98074,16.79374 3.04351,8.40638 4.9786,10.40454 4.9786,5.14086 z m 89.73477,-15.85905 c 10.19958,-1.81334 20.29359,-7.86768 23.36259,-14.01277 2.01804,-4.04072 2.11258,-4.87541 0.9803,-8.65462 -1.72774,-5.76668 -4.79759,-10.18415 -12.76241,-18.36488 -9.29998,-9.55209 -16.39449,-15.64025 -17.71326,-15.20066 -0.60404,0.20134 -1.43954,2.80386 -1.85668,5.78337 -0.41714,2.97951 -1.26315,6.66223 -1.88004,8.18383 -0.99206,2.44699 -0.82272,3.04355 1.46611,5.16477 3.46234,3.20879 4.33507,6.98928 2.27009,9.83351 -0.89254,1.22935 -2.74864,3.92268 -4.12468,5.98518 -1.37603,2.0625 -3.09963,3.75 -3.8302,3.75 -1.94018,0 -5.52897,16.76326 -4.08796,19.09486 0.5677,0.91856 7.64037,0.31053 18.17614,-1.56259 z M 195.5,631 c 0.33992,-0.55 0.31023,-1.49804 -0.066,-2.10676 -0.67212,-1.08751 -2.38241,0.57899 -2.41871,2.35676 -0.0224,1.09614 1.7638,0.91642 2.48469,-0.25 z M 82.381035,607 c 4.243471,-4.69702 6.339576,-5.07898 6.859619,-1.25 l 0.373498,2.75 1.177916,-2.77563 c 1.201521,-2.83124 4.324354,-4.83569 4.914218,-3.15428 0.179424,0.51145 0.768911,1.60491 1.30997,2.42991 0.874439,1.33333 1.095837,1.33333 1.992583,0 0.554862,-0.825 1.297071,-2.625 1.649351,-4 0.35228,-1.375 2.55733,-6.40347 4.90011,-11.17438 2.34279,-4.7709 4.00058,-8.9334 3.68399,-9.25 -1.26318,-1.26317 -6.23317,-0.41806 -16.24229,2.7619 l -10.5,3.33592 -3.189304,5.26747 c -1.754117,2.89711 -3.891617,6.04352 -4.75,6.99202 -2.137484,2.3619 -1.959627,3.08573 0.689304,2.80528 2.090908,-0.22137 2.226489,0.0977 1.917489,4.51179 -0.1833,2.61849 0.101038,4.75 0.633638,4.75 0.531381,0 2.59234,-1.8 4.579908,-4 z M 61,583.4695 C 61,581.18263 65.800443,571 66.878549,571 c 0.543733,0 1.130996,1.2028 1.305029,2.67288 0.174032,1.47009 0.820302,2.83805 1.436155,3.03991 1.759233,0.57665 14.366049,-17.1091 16.36024,-22.95132 0.987778,-2.89381 2.781957,-8.63647 3.987066,-12.76147 1.205109,-4.125 2.756631,-9.09155 3.447828,-11.03677 0.691197,-1.94522 0.92497,-4.19522 0.519496,-5 C 89.853525,516.86365 83.158454,501.93224 82.629044,499.75 81.992455,497.12596 80,495.84128 80,498.05486 c 0,0.58018 -0.917744,3.06944 -2.039431,5.5317 -1.121686,2.46225 -1.789346,4.88147 -1.483688,5.37603 0.305659,0.49457 0.140592,1.15579 -0.366815,1.46939 -0.507407,0.31359 -2.284796,3.4812 -3.949753,7.03913 -2.474344,5.28756 -6.715386,12.74831 -15.993303,28.13508 -0.366855,0.6084 -3.725949,5.72446 -7.464652,11.36902 -3.738703,5.64456 -6.595024,10.46546 -6.347379,10.7131 0.247645,0.24765 1.373619,-0.12638 2.502164,-0.83117 1.128545,-0.70479 2.371504,-0.96183 2.76213,-0.5712 0.390626,0.39063 -0.235774,4.63923 -1.392,9.44133 -1.156227,4.80211 -1.928442,8.90489 -1.716035,9.1173 0.212408,0.21241 1.50572,-0.90323 2.874028,-2.47919 2.391868,-2.75485 2.541935,-2.79247 3.890456,-0.97508 1.258825,1.6965 1.467156,1.72213 2.032067,0.25 1.002651,-2.61287 3.153075,-1.90698 4.420603,1.45108 C 58.863065,586.09748 61,586.34445 61,583.4695 Z m 29.59345,-4.50256 c 3.248602,-1.11819 9.248253,-2.31592 13.33256,-2.66162 6.64319,-0.56229 7.83067,-0.99414 11.26478,-4.09665 4.52114,-4.08458 4.55835,-4.01001 -5.37714,-10.77452 -3.98592,-2.71378 -8.92327,-6.72297 -10.971891,-8.90931 -2.048622,-2.18634 -4.038829,-3.6611 -4.422682,-3.27725 -0.383853,0.38385 -1.280306,2.84768 -1.992119,5.47516 -1.797825,6.63625 -3.262678,10.72758 -6.572503,18.35701 -1.56995,3.61886 -2.854455,6.88136 -2.854455,7.25 0,1.04564 1.245884,0.82204 7.59345,-1.36282 z M 124.57453,554.75 c 3.50868,-6.7546 6.42792,-12.56476 19.98202,-39.77015 2.88271,-5.78608 6.66948,-14.22358 8.41506,-18.75 3.83084,-9.93371 5.57207,-10.75201 4.60021,-2.16188 -0.97221,8.59319 -6.47611,23.68471 -14.63613,40.13178 -5.31367,10.71007 -6.70054,14.33273 -5.7242,14.95236 5.64037,3.57961 22.05996,4.93136 33.06202,2.72183 4.71114,-0.94613 6.3756,-1.91544 10.41678,-6.06625 2.64534,-2.71711 7.11154,-6.2691 9.92489,-7.89331 4.88763,-2.82175 5.16199,-3.20804 6.16755,-8.68375 0.5788,-3.15185 1.566,-7.75112 2.19377,-10.2206 1.48181,-5.829 0.60207,-25.16477 -1.39544,-30.67035 -0.83018,-2.28818 -1.71121,-5.21318 -1.95783,-6.5 -0.50366,-2.62795 -4.61285,-11.36554 -8.08402,-17.18947 -3.4921,-5.85907 -10.38715,-13.75456 -15.87407,-18.17736 -2.7108,-2.18507 -6.78192,-5.5672 -9.04693,-7.51584 -2.26502,-1.94865 -5.09448,-4.19865 -6.28769,-5 -1.19321,-0.80136 -8.17771,-5.79022 -15.52111,-11.08636 -14.18248,-10.22859 -21.99375,-15.73826 -24.627,-17.37065 -3.93053,-2.43659 -19.274517,-15.41429 -25.382237,-21.46788 -7.534305,-7.46754 -11.303588,-9.9287 -12.845067,-8.38723 -0.552465,0.55247 -1.715357,5.02088 -2.584204,9.9298 -0.868847,4.90892 -1.978185,9.69941 -2.465195,10.64554 -0.668116,1.29797 -0.335649,2.00755 1.35441,2.89072 1.231936,0.64377 4.939883,3.27021 8.239883,5.83653 6.049011,4.70415 9.5,6.6118 9.5,5.25146 0,-0.40606 -2.02027,-3.42944 -4.489489,-6.71861 -2.469219,-3.28918 -4.494219,-6.54283 -4.5,-7.23033 -0.02089,-2.48419 2.946491,-1.17006 5.645125,2.5 3.207267,4.36178 14.040794,16.14998 16.594364,18.0567 3.26623,2.43886 1.76879,-0.60932 -3.25,-6.61568 C 96.627052,403.76082 96.24524,403 98.391252,403 99.744774,403 115.98535,418.83057 121,425.03797 c 3.037,3.75935 6.10569,5.90596 24.96292,17.46203 C 173.64932,459.46675 185,469.18655 185,475.92818 c 0,2.94757 -3.02794,2.40021 -4.64302,-0.83932 -1.93722,-3.88567 -8.50331,-10.33047 -15.1411,-14.86138 C 161.80959,457.90237 158.64597,456 158.18562,456 c -0.46034,0 -1.89387,-1.125 -3.18562,-2.5 -1.29175,-1.375 -2.7021,-2.5 -3.13412,-2.5 -0.43202,0 -3.61608,-1.79572 -7.07569,-3.9905 -3.4596,-2.19477 -6.79793,-3.99477 -7.41849,-4 -0.62057,-0.005 -4.76364,-2.02034 -9.20683,-4.47804 -4.4432,-2.4577 -9.56046,-5.16093 -11.3717,-6.00717 C 114.98193,431.67804 111.7,429.89309 109.5,428.55772 105.53116,426.14869 98.190472,421.8812 93.059365,419 c -1.469235,-0.825 -5.961508,-4.2 -9.982829,-7.5 -9.520474,-7.81275 -9.863152,-8.04672 -10.643108,-7.26676 -0.723519,0.72352 -0.686862,23.82404 0.04803,30.26676 0.623227,5.46378 3.933048,19.61359 6.432603,27.5 1.133076,3.575 2.065944,8.10149 2.07304,10.05887 0.0071,1.95738 0.673589,4.43238 1.481098,5.5 0.807508,1.06762 1.482508,2.72467 1.5,3.68233 0.01749,0.95766 1.351072,4.78266 2.963513,8.5 1.61244,3.71734 4.487791,10.79225 6.389668,15.72202 3.365374,8.72325 5.67862,11.83225 5.67862,7.63207 0,-1.13926 1.35144,-6.46426 3.00319,-11.83333 1.65175,-5.36908 3.74043,-12.23696 4.64151,-15.26196 0.90107,-3.025 2.65628,-8.2 3.90047,-11.5 1.24418,-3.3 2.42416,-6.9 2.62218,-8 0.19802,-1.1 1.02888,-2 1.84635,-2 1.66766,0 2.06965,3.07857 0.75421,5.77598 -0.47635,0.97679 -1.07713,3.42435 -1.33507,5.43901 -1.24837,9.75044 -5.24125,25.69419 -12.46794,49.78501 -2.309818,7.7 -4.401349,14.69961 -4.647842,15.55469 -0.715113,2.4807 19.395382,20.92191 22.837202,20.94157 0.35984,0.002 2.34896,-3.25876 4.42027,-7.24626 z m 78.26795,-129.60861 c 1.21292,-5.59718 1.69864,-6.3768 5.03252,-8.07762 4.26965,-2.17821 6.62806,-5.9034 5.66282,-8.94461 -0.78775,-2.48198 -3.27904,-2.65801 -8.96191,-0.63326 C 200.37289,408.9834 197,408.12 197,405.5466 c 0,-0.76066 -0.26786,-2.08105 -0.59524,-2.9342 -0.63242,-1.64806 5.04929,-7.6124 7.25168,-7.6124 0.66589,0 1.35311,1.2375 1.52714,2.75 0.2967,2.57865 0.61148,2.74614 5.05177,2.68808 3.5874,-0.0469 5.36481,-0.65297 7.33189,-2.5 3.77005,-3.53996 9.73545,-12.58434 14.58975,-22.12006 3.99003,-7.83797 4.24227,-8.83742 4.37073,-17.31802 0.14112,-9.31666 1.112,-16.86881 2.51225,-19.54195 0.44424,-0.84807 1.30074,-5.34807 1.90335,-10 1.49409,-11.53402 1.94085,-13.21648 3.36444,-12.67019 0.67322,0.25833 3.91687,-0.10806 7.20813,-0.81421 9.22048,-1.97828 19.16398,-4.41346 21.17125,-5.18487 1.57608,-0.60571 1.48634,-0.78245 -0.68714,-1.35321 -1.375,-0.36108 -4.59202,-0.43701 -7.14893,-0.16872 -2.55691,0.26828 -7.64522,0.16692 -11.30735,-0.22526 -5.97438,-0.63981 -6.76133,-0.98374 -7.66016,-3.34786 -3.9921,-10.50002 -7.96727,-16.92599 -13.0334,-21.06887 C 227.25938,279.55294 216.53072,274 213.28826,274 c -1.03855,0 -2.39206,-0.5038 -3.00783,-1.11957 -2.62866,-2.62866 -19.70185,-4.01632 -30.78043,-2.50174 -13.83114,1.8909 -26.96477,4.7291 -31,6.69917 -1.1,0.53704 -4.25,1.33839 -7,1.78077 -2.75,0.44239 -6.7503,2.00517 -8.88955,3.47286 -2.13925,1.46768 -4.26801,2.66851 -4.73058,2.66851 -4.55002,0 -25.68662,20.04048 -29.908001,28.35701 -1.156615,2.27865 -2.937661,5.49299 -3.957881,7.14299 -4.250024,6.87356 -7.375287,14.17046 -9.982016,23.30614 -4.425673,15.51045 -5.382763,19.83733 -4.751704,21.48184 0.580103,1.51173 20.824502,15.34027 31.719732,21.66711 3.025,1.75661 8.425,4.97138 12,7.14392 3.575,2.17255 8.75,5.09012 11.5,6.4835 2.75,1.39338 6.35,3.40065 8,4.4606 1.65,1.05996 3.99062,2.36442 5.20138,2.89881 1.21076,0.53438 3.98588,2.09811 6.16692,3.47494 2.18104,1.37683 5.24042,2.81189 6.79861,3.18902 1.5582,0.37713 4.40809,1.47047 6.33309,2.42964 4.40011,2.19243 12.9897,6.13662 19.5,8.95405 2.75,1.1901 6.8,2.99976 9,4.02146 2.2,1.02171 4.45,1.7379 5,1.59155 0.55,-0.14635 1.60412,-3.05388 2.34248,-6.46119 z M 185.5,386.04312 c -6.94761,-3.31822 -8.9136,-5.43557 -8.79905,-9.47654 0.0915,-3.22725 -0.29515,-3.80922 -3.54914,-5.34228 -2.18479,-1.02932 -6.06216,-1.72125 -9.65181,-1.72239 l -6,-0.002 -0.0459,-3.5 c -0.0427,-3.25839 -0.28433,-3.51992 -3.5,-3.78854 -5.76951,-0.48195 -6.2321,-0.85757 -4.43463,-3.60085 1.70407,-2.60073 1.44333,-2.98493 -2.69629,-3.97303 -3.29986,-0.78766 -3.97414,-3.25177 -1.90043,-6.94504 1.50592,-2.68204 1.46887,-2.88853 -0.8293,-4.62204 -3.60795,-2.72149 -2.1922,-4.90383 3.18127,-4.90383 3.11504,0 5.25251,0.68282 7.31336,2.33628 l 2.91191,2.33629 -2.5411,0.9762 c -5.60723,2.15421 -6.2361,6.18465 -0.96497,6.18465 6.18505,0 10.79295,3.99335 6.50608,5.63837 -2.90156,1.11344 -1.4502,2.25524 3.25,2.55684 4.40796,0.28284 4.74768,0.49612 4.7178,2.96181 -0.0283,2.33798 0.45196,2.73429 4,3.30054 5.98428,0.95507 7.94219,2.70343 9.52125,8.50223 1.21459,4.46035 2.02705,5.55138 5.76541,7.7422 3.20992,1.88114 4.27209,3.08688 4.04857,4.59578 -0.4176,2.81896 -1.65497,2.96529 -6.30303,0.74535 z m 28.10374,-10.63336 c -0.33562,-0.87464 -0.34503,-2.01935 -0.0209,-2.54381 0.32413,-0.52446 0.0872,-1.55855 -0.52645,-2.29799 -1.10686,-1.33369 -0.45384,-9.22789 0.82495,-9.97253 0.34026,-0.19813 1.98114,-0.65194 3.64641,-1.00848 2.76946,-0.59293 3.1757,-0.3257 4.76179,3.13241 l 1.73402,3.78064 -2.75229,2.22933 c -1.51375,1.22614 -2.78227,2.80114 -2.81893,3.5 -0.21666,4.13043 -3.62591,6.36672 -4.84861,3.18043 z m -93.65842,-1.86025 C 110.06576,369.90981 103.49686,364.01063 98.733165,354.5 97.039333,351.1183 94,337.27391 94,332.94009 94,329.26326 95.953058,325 97.637462,325 c 2.958448,0 5.804228,8.43463 5.460108,16.18325 -0.30466,6.85994 5.24648,17.11017 11.86124,21.90187 4.11626,2.9818 5.59785,2.63361 2.13366,-0.50144 -4.01455,-3.63311 -9.06033,-18.62133 -9.0806,-26.97344 -0.008,-3.38283 -0.52122,-5.2622 -1.66465,-6.09829 C 104.48801,328.15246 105.30219,326 107.67565,326 c 1.09649,0 1.37506,-0.59209 0.94098,-2 -0.33915,-1.1 -0.89411,-2.9 -1.23326,-4 -0.75709,-2.45558 0.90063,-2.56613 8.42921,-0.56213 7.16602,1.90748 10.39024,4.12453 9.99869,6.87533 -0.24013,1.68701 -1.38548,2.45196 -5.01145,3.34699 -2.5851,0.63811 -5.1726,1.45216 -5.75,1.80902 -1.50993,0.93319 -1.29445,5.92757 0.57785,13.39316 2.44034,9.7306 5.69013,15.98955 9.72616,18.73209 3.47818,2.36349 3.65486,2.38002 9.84396,0.92089 7.96263,-1.87724 8.80221,-1.87137 8.80221,0.0616 0,2.8468 -5.4393,7.11816 -11.19542,8.79151 -6.58059,1.91303 -8.09999,1.93443 -12.85926,0.18108 z m 89.32059,-45.93835 c -10.02664,-6.87153 -10.4643,-7.41237 -9.76275,-12.06459 0.33561,-2.22561 0.98341,-4.94657 1.43954,-6.04657 0.45613,-1.1 1.3988,-3.90082 2.09481,-6.22405 1.83216,-6.11557 4.47604,-8.61452 8.34349,-7.8861 3.81957,0.71939 8.80943,6.12709 10.56662,11.45143 1.20215,3.64256 1.10497,4.21284 -1.46531,8.5987 -2.45321,4.18607 -2.68538,5.34304 -2.13292,10.62871 0.77577,7.42218 -0.2499,7.59635 -9.08348,1.54247 z M 209,317.40944 c 0,-0.80989 0.91931,-4.20146 2.04291,-7.53682 1.57984,-4.68968 1.77876,-6.38257 0.87756,-7.46845 -1.88576,-2.2722 -3.19601,-1.63813 -2.48325,1.20172 0.42185,1.68077 0.0742,3.49081 -0.97922,5.09855 -1.74629,2.66518 -2.8754,8.81118 -1.90669,10.37858 0.79365,1.28415 2.44869,0.15299 2.44869,-1.67358 z m -17.30703,-6.10665 C 191.4233,310.86125 190.6436,308.475 189.96029,306 c -1.73186,-6.27303 -1.28928,-12.95124 1.07425,-16.20951 1.081,-1.49023 1.96546,-3.34763 1.96546,-4.12755 0,-0.77993 0.72188,-2.01716 1.60418,-2.7494 0.88229,-0.73224 1.99615,-2.36234 2.47524,-3.62244 1.31749,-3.46525 3.36963,-2.76394 5.732,1.9589 3.97365,7.94409 4.10569,14.75 0.28616,14.75 -1.07926,0 -2.13071,0.94747 -2.49693,2.25 -0.57735,2.05343 -0.72292,2.09712 -1.66632,0.5 -1.79399,-3.03711 -2.93091,-1.91293 -3.03401,3 -0.0548,2.6125 -0.40474,5.84164 -0.77758,7.17586 -0.69871,2.50033 -2.56461,3.79345 -3.42977,2.37693 z M 69.975026,375.57503 c -1.345063,-1.34507 -2.345429,0.0173 -1.54477,2.10382 0.574498,1.49711 0.814669,1.54289 1.581898,0.30148 0.545624,-0.88283 0.530891,-1.83728 -0.03713,-2.4053 z M 561.52824,766.2983 c -6.03447,-0.66093 -14.35947,-1.44275 -18.5,-1.73738 -4.14053,-0.29462 -10.67824,-0.90989 -14.52824,-1.36727 -3.85,-0.45738 -9.3625,-0.70153 -12.25,-0.54256 -3.8184,0.21021 -5.25,-0.0696 -5.25,-1.02605 0,-0.72328 -0.91176,-2.1402 -2.02614,-3.14869 -2.01355,-1.82224 -2.00268,-1.84474 1.75,-3.62106 2.07688,-0.98309 4.67614,-1.79269 5.77614,-1.79912 1.82594,-0.0107 1.783,0.15502 -0.49347,1.90402 -2.24839,1.72742 -2.31845,1.98289 -0.71276,2.59905 1.0996,0.42195 2.53147,0.004 3.74348,-1.09295 1.70141,-1.53975 1.96275,-1.5665 1.96275,-0.20087 0,1.86326 8.07863,2.96734 20,2.73333 4.125,-0.081 11.1,0.15019 15.5,0.51369 4.4,0.36351 26,0.65423 48,0.64604 47.72827,-0.0178 59.41088,0.80643 54.49516,3.84451 -1.34245,0.82968 -7.41854,0.63832 -16.11241,-0.50745 -1.98948,-0.2622 -6.03948,-0.0619 -9,0.4451 -2.96051,0.507 -9.43275,1.21285 -14.38275,1.56854 -4.95,0.3557 -10.35,0.86986 -12,1.14258 -6.21187,1.02672 -35.42083,0.80215 -45.97176,-0.35346 z M 1135.5,764.83829 c -6.1556,-0.77188 -16,-1.29217 -16,-0.84562 0,0.67235 -4.1171,0.69074 -6.4255,0.0287 -4.1673,-1.19515 -19.4063,-2.00048 -47.0745,-2.48771 -13.475,-0.2373 -27.425,-0.66584 -31,-0.95233 -3.575,-0.28648 -11.45,-0.78087 -17.5,-1.09864 -19.12073,-1.0043 -24.80852,-1.54497 -32.17506,-3.05848 -3.94628,-0.81079 -7.54628,-1.37361 -8,-1.25072 -0.45372,0.12289 -3.07494,-0.16792 -5.82494,-0.64626 -2.75,-0.47833 -5.42751,-0.76264 -5.95003,-0.63178 -0.52252,0.13085 -5.47252,-0.44754 -11,-1.28531 -14.00818,-2.12316 -19.25854,-2.56194 -39.40787,-3.29342 -36.5883,-1.32825 -116.84454,-0.31771 -134.6421,1.69534 -13.55783,1.53349 -21.57403,1.98939 -44.80392,2.54807 -30.60378,0.73603 -44.94288,1.53647 -47.01,2.62418 -1.06664,0.56127 -2.30256,0.58864 -3,0.0665 -1.7296,-1.29497 -6.14604,-1.38026 -11.3288,-0.21878 -9.5689,2.14444 -39.47567,-4.24692 -36.02394,-7.69866 0.29349,-0.29348 3.55484,0.22408 7.24745,1.15015 5.86288,1.47036 10.97287,1.61731 40.31652,1.1594 18.48148,-0.2884 38.32769,-0.9785 44.10269,-1.53354 5.775,-0.55505 17.925,-1.50316 27,-2.1069 21.85955,-1.45429 40.68053,-2.98552 45,-3.66109 3.98663,-0.62352 52.02367,-1.27077 87,-1.17224 12.925,0.0364 25.975,-0.01 29,-0.10216 3.025,-0.0926 9.1,0.29598 13.5,0.86353 4.4,0.56754 13.44136,1.21967 20.09192,1.44917 11.99063,0.41377 12.08842,0.39899 11.67462,-1.76566 -0.43041,-2.25155 2.8447,-5.50969 17.23346,-17.14411 6.79528,-5.4945 14.5,-13.32028 14.5,-14.72782 0,-2.88612 3.69461,-8.00447 7.2001,-9.97464 2.1846,-1.22785 5.2446,-4.11807 6.8,-6.42272 2.603,-3.85686 2.6956,-4.29991 1.164,-5.56822 -3.1487,-2.60726 -13.98255,-8.78392 -28.30869,-16.13945 -7.89548,-4.05381 -16.43056,-8.48672 -18.96685,-9.85092 -2.53629,-1.3642 -5.68629,-2.76145 -7,-3.10499 -1.31371,-0.34354 -2.61356,-0.6911 -2.88856,-0.77234 -0.275,-0.0812 -3.92719,-1.89395 -8.11597,-4.02824 C 940.69525,652.74624 936.57937,651 935.73764,651 c -2.57602,0 -15.39744,-5.5732 -20.80633,-9.04408 -6.17496,-3.96246 -11.15408,-8.98857 -14.58921,-14.72689 -1.68195,-2.80969 -4.8818,-5.77506 -9.35234,-8.66703 -7.39673,-4.78492 -14.46875,-11.81724 -17.26365,-17.16674 -2.1042,-4.02748 -3.13204,-4.16298 -7.75415,-1.02218 -1.92076,1.3052 -8.57828,5.0177 -14.79448,8.25 -13.36904,6.95165 -14.54161,7.60431 -16.33297,9.091 -0.75284,0.6248 -4.06333,2.12959 -7.35665,3.34397 -3.29332,1.21438 -6.43786,2.54224 -6.98786,2.9508 -2.15046,1.59746 -22.91291,11.99028 -23.92549,11.97611 -0.88215,-0.0123 -8.36572,3.40974 -17.81094,8.14458 -0.95504,0.47875 -2.35795,0.87046 -3.11758,0.87046 -0.75964,0 -4.40096,2.025 -8.09183,4.5 -3.69087,2.475 -7.3239,4.5 -8.0734,4.5 -0.7495,0 -1.64613,0.45856 -1.99251,1.01902 -0.34638,0.56045 -2.73544,2.1532 -5.30902,3.53942 -8.49679,4.57669 -13.55461,8.68322 -24.67923,20.03749 -9.42964,9.6243 -13.5039,14.37591 -24.66035,28.76014 -1.50608,1.94183 -2.80688,2.17447 -14,2.50393 -13.59124,0.40003 -16.64321,1.52716 -18.58608,6.86405 C 666.50238,727.02823 663.58868,734 663.03346,734 c -0.35671,0 -1.47249,1.9125 -2.4795,4.25 -3.73616,8.67242 -7.46542,10.76745 -14.01189,7.87163 -2.35618,-1.04225 -4.58665,-2.38474 -4.95659,-2.98332 -0.45792,-0.74093 -2.76776,-0.29972 -7.23625,1.38222 -6.64219,2.50011 -18.88061,5.55486 -29.84923,7.45047 -3.3,0.5703 -7.125,1.32038 -8.5,1.66683 -4.8454,1.22087 -27.34678,0.45156 -33,-1.12824 -5.99444,-1.67516 -8.01757,-2.05947 -15.43304,-2.93159 C 542.18192,748.94467 538,746.74662 538,744.54953 c 0,-0.7724 1.16916,-2.32403 2.59812,-3.44805 3.37986,-2.6586 27.30435,-14.3467 34.65388,-16.92985 7.54471,-2.65175 11.33994,-5.47862 13.3907,-9.97402 0.92775,-2.03368 2.58668,-4.70539 3.68653,-5.93713 1.87168,-2.09614 1.89314,-2.35728 0.33524,-4.07874 C 591.74901,703.17017 591,701.89389 591,701.34557 591,700.20933 595.23981,696 596.38428,696 c 2.03326,0 32.33354,-22.5201 37.11572,-27.58554 6.0682,-6.42765 11.6125,-12.97208 12.79029,-15.09753 3.01717,-5.44483 8.46234,-13.13644 21.49785,-30.36692 5.66368,-7.48631 28.32533,-30.60424 35.81514,-36.53625 2.1432,-1.69744 6.14672,-4.32789 8.89672,-5.84545 2.75,-1.51756 5.9,-3.58628 7,-4.59715 1.1,-1.01086 3.125,-2.34095 4.5,-2.95574 1.375,-0.6148 5.65,-2.79689 9.5,-4.8491 3.85,-2.05221 12.0625,-6.37105 18.25,-9.59742 6.1875,-3.22637 11.25,-6.19415 11.25,-6.59507 0,-1.10881 -1.92877,-2.47484 -8.5,-6.02 -3.3,-1.78034 -8.13854,-4.74827 -10.75231,-6.59541 C 741.13391,537.51129 738.78009,536 738.51698,536 c -1.13342,0 -15.54052,-10.29148 -21.23875,-15.17155 -13.08302,-11.20456 -34.04885,-42.87476 -41.91557,-63.3161 -1.72592,-4.48474 -2.28944,-5.04779 -5.58866,-5.58407 -4.30293,-0.69942 -6.774,-2.48532 -6.774,-4.89574 0,-2.58949 -3.2803,-5.04589 -7.62597,-5.71057 C 650.19699,440.53013 648,438.44407 648,434.32026 c 0,-2.6223 -0.52421,-3.56907 -2.36331,-4.26829 -2.45218,-0.93232 -3.59961,-3.56837 -3.62304,-8.32341 -0.01,-1.97828 -0.72912,-3.09743 -2.51365,-3.91051 -1.375,-0.6265 -2.5,-1.72602 -2.5,-2.44338 0,-0.71737 -0.84589,-1.75701 -1.87975,-2.31031 -1.03386,-0.55331 -2.57314,-2.70664 -3.42062,-4.78519 -0.84748,-2.07854 -2.70159,-5.3291 -4.12025,-7.22345 -2.95599,-3.94718 -3.23094,-6.89507 -1.03851,-11.13475 1.90043,-3.67502 1.30751,-4.8058 -2.17121,-4.1408 -2.55097,0.48764 -2.64745,0.35877 -2.03265,-2.71523 0.35499,-1.77494 1.54938,-4.37635 2.65421,-5.78091 2.16562,-2.75314 2.6172,-5.78997 1.00878,-6.78403 -1.9601,-1.21141 -1.08287,-8.48416 1.4779,-12.25267 l 2.4779,-3.64656 -2.9779,-1.25211 C 625.34006,352.66 624,351.50581 624,350.7838 c 0,-0.72201 2.25,-4.09348 5,-7.49216 4.1829,-5.16958 5,-6.8497 5,-10.28099 0,-4.67169 2.95046,-8.40021 8.05552,-10.17985 1.66945,-0.58197 2.86536,-1.56948 2.65758,-2.19447 -0.20779,-0.62498 -4.16574,-2.55746 -8.79545,-4.2944 -8.33604,-3.12745 -8.44674,-3.14043 -11.41765,-1.33845 -4.31557,2.61757 -13.80989,5.16011 -20.88945,5.59412 -3.3608,0.20603 -9.26055,0.80676 -13.11055,1.33495 -7.36575,1.01052 -21.39547,-0.14538 -22.4487,-1.84954 -0.31423,-0.50844 -1.91683,-1.25374 -3.56132,-1.65622 -1.64449,-0.40247 -4.06317,-1.56315 -5.37484,-2.57928 -1.31167,-1.01613 -3.13417,-1.84751 -4.05,-1.84751 -0.91583,0 -2.1522,-0.48706 -2.74749,-1.08235 -1.51477,-1.51477 -13.13879,-3.23296 -23.81765,-3.52058 -4.95,-0.13332 -9.5625,-0.2772 -10.25,-0.31974 -2.92179,-0.18076 -1.21293,-5.77126 3.25,-10.63231 2.475,-2.69579 4.5,-5.0425 4.5,-5.21492 0,-0.17243 -3.3435,-0.0105 -7.43,0.35979 l -7.43,0.67329 -0.70311,-3.74788 c -0.39909,-2.12736 -0.16462,-6.15408 0.54229,-9.31289 1.13147,-5.05592 1.08042,-5.68566 -0.55802,-6.88372 -0.99188,-0.72528 -2.95491,-1.333 -4.36229,-1.35049 -1.40738,-0.0175 -3.41334,-0.67857 -4.45769,-1.46907 -1.04435,-0.79049 -4.19435,-2.18572 -7,-3.10051 -2.80565,-0.91479 -5.55118,-2.00991 -6.10118,-2.4336 -0.55,-0.42369 -4.6,-2.65603 -9,-4.96076 -10.23828,-5.36284 -25.44671,-15.49366 -32.5,-21.64928 -5.61378,-4.89932 -12.79597,-12.76842 -22.2183,-24.34327 -11.77159,-14.46078 -23.09527,-23.3412 -37.95524,-29.76578 -11.72217,-5.06798 -13.32897,-5.12087 -19.83176,-0.65274 -3.02209,2.07649 -6.09229,4.37045 -6.82268,5.09768 -0.73038,0.72722 -2.27704,1.83015 -3.43701,2.45095 -1.15997,0.6208 -2.58738,1.51107 -3.17202,1.97838 -8.8256,7.05437 -8.73502,6.17085 -1.06299,10.36845 9.73234,5.32486 14.02059,7.86723 15.75689,9.34177 0.96628,0.82061 2.6249,1.98197 3.6858,2.5808 3.43613,1.93952 27.9067,19.39648 30.61564,21.84075 1.06792,0.96359 3.85417,3.37845 6.19167,5.36637 2.3375,1.98791 4.25,4.21779 4.25,4.95529 0,2.09918 -8.06427,19.33793 -11.85605,25.34434 -4.1964,6.64735 -20.84284,23.55751 -27.64395,28.0819 -2.75,1.82942 -5.80503,4.15285 -6.78896,5.16317 -0.98392,1.01033 -2.39132,1.83696 -3.12755,1.83696 -0.73623,0 -1.8988,0.675 -2.58349,1.5 -0.68469,0.825 -1.94804,1.5 -2.80745,1.5 -0.85941,0 -4.64806,1.59675 -8.41922,3.54833 l -6.85667,3.54832 -7.20833,-3.68561 C 331.74375,313.38395 323.1,309.03514 316.5,305.74702 c -6.6,-3.28812 -12.9,-6.75351 -14,-7.70087 -1.1,-0.94736 -3.575,-2.33016 -5.5,-3.0729 -1.925,-0.74273 -5.19242,-2.39932 -7.26094,-3.68129 -2.06852,-1.28198 -6.79352,-3.95695 -10.5,-5.94438 -11.83366,-6.34527 -15.7074,-8.53095 -17.03097,-9.60939 -0.71055,-0.57895 -3.18555,-2.03948 -5.5,-3.24562 -2.31445,-1.20614 -7.58309,-4.2262 -11.70809,-6.71125 -4.125,-2.48505 -10.84845,-6.48996 -14.941,-8.8998 -4.09254,-2.40983 -9.26754,-5.51189 -11.5,-6.89345 -2.23245,-1.38156 -5.57821,-3.40656 -7.43502,-4.5 -1.85682,-1.09344 -4.55682,-2.92398 -6,-4.06788 -1.44319,-1.14389 -3.34876,-2.3432 -4.2346,-2.66513 -0.88584,-0.32192 -5.38584,-3.44521 -10,-6.94063 C 186.27522,228.319 180.025,223.71351 177,221.58 c -3.025,-2.13351 -5.90973,-4.57592 -6.41052,-5.42759 -0.50078,-0.85166 -2.39125,-2.92186 -4.20104,-4.60044 -6.24047,-5.78804 -6.56074,-11.44655 -1.53112,-27.05197 6.74152,-20.91696 15.59821,-34.04279 31.63608,-46.88543 C 205.6064,130.31716 217.02345,124 221.09913,124 c 2.24105,0 8.84672,3.45662 14.40087,7.5357 1.65,1.21179 7.5,4.33898 13,6.94931 22.39821,10.63032 25.10005,12.07797 37.69678,20.1981 3.68323,2.37429 7.06709,4.31689 7.51968,4.31689 0.45259,0 3.51404,2.02086 6.80321,4.49079 3.28918,2.46994 7.33747,5.14105 8.99621,5.93582 1.65873,0.79476 4.71621,2.59891 6.7944,4.00921 2.0782,1.4103 3.99768,2.56418 4.26553,2.56418 0.26784,0 3.50555,-2.025 7.19491,-4.5 3.68936,-2.475 7.23071,-4.5 7.86966,-4.5 1.84772,0 10.4971,-10.59941 17.81338,-21.82946 6.93771,-10.64899 6.61932,-10.35731 23.30867,-21.35212 1.40388,-0.92487 5.51916,-2.41305 9.14504,-3.30706 10.61702,-2.61778 13.41529,-3.62214 16.59253,-5.95545 1.65,-1.21173 3.7221,-2.4683 4.60468,-2.79238 0.88257,-0.32407 5.38257,-3.44004 10,-6.92436 4.61742,-3.48432 9.61085,-7.23604 11.0965,-8.33715 1.48564,-1.101111 8.18933,-6.203504 14.89708,-11.338652 6.70774,-5.135148 12.96931,-9.635148 13.91459,-10 1.75556,-0.677593 9.9239,-6.635389 21.64742,-15.789102 4.12438,-3.220314 8.72027,-5.778381 12.36331,-6.881406 5.75288,-1.741831 5.82311,-1.738212 8.9089,0.459065 4.47636,3.187444 6.36423,8.232471 4.99016,13.335375 -3.10607,11.535075 -19.41028,33.59432 -28.24367,38.21309 -1.19843,0.62664 -4.20397,2.43986 -6.67897,4.02939 -2.475,1.58953 -8.1,4.74504 -12.5,7.01225 -12.77447,6.58237 -18.17859,9.71903 -23.18665,13.45797 -6.32531,4.72238 -14.27997,13.02608 -14.92085,15.57555 -0.6899,2.74449 3.22032,9.95119 9.08532,16.74459 4.59846,5.32638 21.67037,20.67986 22.99443,20.67986 0.36707,0 2.62956,1.35 5.02775,3 2.39819,1.65 4.66986,3 5.04816,3 0.3783,0 2.25964,1.38009 4.18077,3.06686 1.92112,1.68677 6.56838,4.56357 10.32723,6.3929 3.75886,1.82932 8.18914,4.29078 9.84508,5.46991 1.65593,1.17913 4.94308,3.05212 7.30477,4.16221 4.41799,2.07661 17.58479,10.2168 24.67253,15.25343 4.56043,3.2407 5.69932,2.96426 6.61959,-1.60678 0.35861,-1.78119 1.71328,-5.48853 3.01039,-8.23853 1.29711,-2.75 2.66663,-6.25549 3.04338,-7.78998 l 0.68499,-2.78999 -6.86845,0.78999 c -16.75091,1.92663 -33.80337,0.42076 -31.80736,-2.80885 1.28287,-2.07572 2.42875,-13.39596 2.72011,-26.87211 0.2824,-13.06157 0.56182,-15.02523 2.76647,-19.44148 3.56003,-7.1313 10.11316,-13.9423 16.35054,-16.99397 4.88259,-2.38883 5.80703,-3.37801 8.96358,-9.59138 6.25444,-12.31129 13.39042,-22.32839 20.36121,-28.58199 C 553.36138,93.773486 568.21815,84 571.72376,84 c 0.68936,0 2.13128,-0.751683 3.20427,-1.670407 1.99791,-1.710662 14.25009,-6.96428 24.07197,-10.321827 4.82968,-1.650995 18.55116,-4.318197 29,-5.63706 9.52762,-1.202587 26.84287,-1.819057 38.5,-1.370706 8.09376,0.311298 17.44354,-0.02821 24.77398,-0.899589 14.22996,-1.691535 16.05562,-1.169277 17.84067,5.10358 1.69116,5.942903 2.10864,6.198095 6.29399,3.84732 2.84067,-1.595508 4.13468,-1.830904 5.63901,-1.025808 1.07379,0.574675 1.99112,1.591532 2.0385,2.259681 0.0474,0.668149 0.15988,2.789816 0.25,4.714816 L 723.5,82.5 h 7 7 l 0.30851,3.184997 0.30851,3.184998 4.06722,-1.434998 C 744.42121,86.645749 746.86988,86 747.62573,86 c 1.99209,0 1.68594,2.753563 -0.67478,6.068881 l -2.04905,2.877622 4.48747,1.129956 c 2.4681,0.621476 5.16501,1.878642 5.99313,2.793702 1.34562,1.486889 1.29902,2.125319 -0.43842,6.005999 -1.06924,2.38823 -1.94408,4.69302 -1.94408,5.12175 0,0.42873 1.6875,1.09486 3.75,1.48029 5.20406,0.9725 6.24562,2.05028 5.26974,5.45296 -0.7085,2.47041 -0.57169,2.76443 1.08475,2.33126 1.54072,-0.4029 1.89551,0.0502 1.89551,2.42095 0,1.60415 -0.47311,3.38974 -1.05135,3.96798 -0.73513,0.73513 -0.28396,1.55415 1.5,2.72305 3.31099,2.16944 3.22193,4.01268 -0.34754,7.1931 -4.07315,3.62919 -3.92085,8.73313 0.34919,11.70187 1.67734,1.16616 6.1997,4.66382 10.0497,7.77257 3.85,3.10875 10.15,7.09831 14,8.8657 6.99886,3.2129 23.73087,12.12726 30.69189,16.3518 2.03054,1.23231 7.3809,4.49056 11.88968,7.24056 4.50879,2.75 9.37244,5.63846 10.80811,6.41879 1.43568,0.78034 9.27576,5.95534 17.4224,11.5 8.14664,5.54467 17.31003,11.75549 20.36307,13.80182 3.05305,2.04634 7.92785,5.64634 10.83289,8 2.90504,2.35367 9.409,7.20439 14.45324,10.77939 5.04423,3.575 12.85653,9.425 17.36066,13 4.50412,3.575 10.66178,8.12806 13.68369,10.11792 17.8559,11.7577 29.36375,19.08361 30.82541,19.6235 0.91793,0.33905 5.04396,2.71144 9.16896,5.27197 4.125,2.56053 14.475,8.27258 23,12.69344 8.525,4.42086 18.9263,9.88158 23.1139,12.13495 4.1877,2.25336 7.8893,3.82166 8.2259,3.48512 0.3365,-0.33655 1.1852,-0.17656 1.886,0.35552 0.7008,0.53208 2.6242,0.75873 4.2742,0.50367 3.8158,-0.58987 13.8066,-0.49684 19,0.17692 2.2,0.28542 4.8735,0.5455 5.9411,0.57797 1.9153,0.0582 1.9155,0.0778 0.013,1.4687 -1.8709,1.36803 -1.8737,1.46949 -0.096,3.43394 1.6577,1.83176 3.4157,2.0747 18.4867,2.55467 20.0615,0.63891 22.1548,0.83164 22.1548,2.03983 0,1.80806 -4.4854,7.462 -6.7317,8.48549 -3.1052,1.41481 -2.852,3.89419 0.4817,4.7172 3.3228,0.82034 10.1268,4.16166 12.4007,6.08977 1.1614,0.98478 1.8533,1.0719 2.3342,0.29389 0.3914,-0.63326 1.609,-0.81234 2.8493,-0.41906 3.7006,1.17343 9.7692,5.41825 9.1586,6.4062 -0.3195,0.51698 -2.9236,2.46795 -5.7869,4.33549 -6.0993,3.97823 -10.9838,5.05507 -28.4819,6.27921 -5.1019,0.35691 -9.4909,0.99645 -9.7534,1.4212 -0.4393,0.71079 10.7219,8.95249 12.1237,8.95249 0.3394,0 1.8777,1.06081 3.4185,2.35735 1.5409,1.29655 4.6175,2.64773 6.837,3.00264 4.7879,0.76562 5.3399,1.44171 4.5207,5.5373 -0.5663,2.83196 -0.9598,3.10271 -4.5091,3.10271 -2.1387,0 -4.6699,0.41715 -5.625,0.927 -0.955,0.50985 -2.4114,1.2025 -3.2364,1.53922 -1.4127,0.57661 -3.7959,1.93485 -6.832,3.89375 -1.0387,0.6702 -0.7405,1.4768 1.3545,3.66347 2.2989,2.39958 2.6766,3.62866 2.6181,8.5208 -0.037,3.14422 -0.2934,5.94194 -0.5687,6.21717 -0.2752,0.27522 -2.047,-0.2335 -3.9373,-1.1305 -1.8903,-0.897 -4.2703,-1.63091 -5.2889,-1.63091 -6.2829,0 -27.397,-8.91879 -34.1729,-14.4349 -5.0486,-4.11002 -18.676,-13.17354 -22.6728,-15.07962 -3.0145,-1.43763 -5.4782,-1.80004 -10,-1.47101 -3.3,0.24012 -9.4875,0.44466 -13.75,0.45454 -4.2625,0.01 -7.75,0.26469 -7.75,0.56626 0,0.78559 7.66285,7.9161 13.3342,12.40789 2.6588,2.10581 6.6497,6.13007 8.8687,8.9428 2.2189,2.81272 6.681,7.97521 9.9158,11.4722 3.2347,3.49699 5.8813,6.71049 5.8813,7.14112 0,0.43062 1.7425,2.89166 3.8723,5.46898 2.1298,2.57731 4.4923,5.88767 5.25,7.35636 0.7577,1.46869 3.0652,5.10858 5.1277,8.08865 2.0625,2.98006 3.75,5.81291 3.75,6.29521 0,0.95577 5.337,8.12998 12.4915,16.79152 2.4986,3.025 4.787,6.18936 5.0853,7.03191 0.2983,0.84256 1.8378,2.40252 3.421,3.46659 1.5832,1.06407 3.3558,2.98207 3.939,4.26223 0.5833,1.28015 1.6236,2.25437 2.3119,2.16493 2.7566,-0.35825 3.7513,0.16086 3.7513,1.95771 0,1.04366 -0.8936,2.11704 -2.0041,2.40746 -1.2159,0.31794 -1.7907,1.08043 -1.4614,1.93851 0.6257,1.63045 -3.3568,3.77066 -7.0165,3.77066 -1.3133,0 -3.6546,0.50368 -5.2029,1.11929 -1.5483,0.61561 -5.2901,1.26313 -8.3151,1.43894 -3.025,0.1758 -8.2046,0.59638 -11.5101,0.93461 l -6.0102,0.61497 -1.9279,4.66136 c -1.7675,4.27335 -10.7197,18.30183 -14.3504,22.48772 -1.4892,1.71692 -2.9223,4.00045 -5.3011,8.44662 -0.6484,1.21193 -1.7431,2.33693 -2.4325,2.5 -0.6895,0.16307 -5.5627,4.29131 -10.8293,9.17388 -5.26662,4.88256 -10.60232,9.44028 -11.85709,10.12827 -1.25478,0.68798 -4.49738,2.45972 -7.20578,3.93719 -2.7084,1.47747 -5.96698,3.50643 -7.2413,4.5088 -1.27431,1.00238 -3.89585,2.11871 -5.82563,2.48074 -1.92979,0.36203 -3.5087,1.04247 -3.5087,1.51209 0,0.46962 2.68954,3.82166 5.97676,7.44898 3.28722,3.62731 6.85017,8.28519 7.91767,10.35083 1.0675,2.06564 3.55296,6.00427 5.52324,8.75251 1.97028,2.74824 3.58233,5.38714 3.58233,5.86422 0,3.15538 22.9909,24.63898 26.3677,24.63898 0.7631,0 1.9476,0.675 2.6323,1.5 0.6847,0.825 1.795,1.5 2.4675,1.5 0.6724,0 2.0798,0.95238 3.1275,2.1164 2.5798,2.8661 8.4094,6.75209 17.405,11.60209 16.2848,8.78004 18.73,10.362 21.6696,14.02 1.6767,2.08643 7.1946,8.19758 12.262,13.58033 11.5942,12.31572 13.1666,15.58086 12.1814,25.29518 -0.062,0.6127 -2.0255,2.40677 -4.363,3.98683 -5.0149,3.38988 -10.5282,7.64692 -15.7343,12.14917 -2.067,1.7875 -4.4254,3.25 -5.2409,3.25 -0.8155,0 -2.6429,1.07515 -4.0608,2.38921 -1.4179,1.31407 -5.1961,4.40924 -8.396,6.87816 -3.1999,2.46892 -6.6752,5.44378 -7.723,6.61079 -1.0477,1.16701 -2.2942,2.12184 -2.7699,2.12184 -0.4756,0 -2.5434,1.03254 -4.595,2.29454 C 1028.5662,733.39376 1006.0676,742 1002.0152,742 999.67305,742 992,745.86765 992,747.04821 c 0,0.817 16.2242,1.83939 39.6998,2.50173 9.4599,0.2669 19.5849,0.70265 22.5,0.96833 2.9151,0.26569 14.5252,0.44671 25.8002,0.40228 11.275,-0.0444 20.95,-0.0651 21.5,-0.0459 33.4047,1.16501 47.3,1.88374 48.2939,2.49797 0.6813,0.42107 0.9208,1.27994 0.5323,1.90859 -0.3885,0.62865 -0.6068,2.62256 -0.485,4.4309 0.1255,1.86337 -0.2563,3.2879 -0.8813,3.2879 -0.6065,0 -1.7778,0.675 -2.6028,1.5 -0.825,0.825 -2.0303,1.43611 -2.6785,1.35803 -0.6482,-0.0781 -4.3286,-0.53697 -8.1786,-1.01974 z M 613,745.40626 c 16.11478,-3.42609 20.68698,-4.60415 25.64302,-6.60709 l 5.14301,-2.07851 2.84677,2.63967 c 1.56572,1.45182 3.39803,2.63967 4.0718,2.63967 1.69009,0 3.48657,-3.6422 3.10819,-6.30158 -0.26957,-1.89467 -1.14178,-2.29094 -6.31279,-2.86803 -12.96824,-1.44729 -18.23203,-2.41239 -34.80146,-6.38071 -5.3908,-1.29108 -10.38415,-2.12382 -11.09633,-1.85053 -0.71218,0.27329 -3.24284,-0.17424 -5.62369,-0.99451 -3.9593,-1.36408 -4.54861,-1.34237 -6.90367,0.25441 -1.41617,0.96019 -7.29985,3.69283 -13.07485,6.07254 -13.49062,5.55907 -27,12.03955 -27,12.95195 0,0.73086 14.43502,2.96373 26,4.02179 10.62647,0.97219 29.96449,0.20933 38,-1.49907 z m 367.5,-5.50373 c 1.65,-0.43378 7.40557,-1.9276 12.79015,-3.31959 21.85515,-5.64988 28.14715,-8.79246 53.20985,-26.57621 3.85,-2.73185 10.0287,-7.02962 13.7304,-9.55062 3.7017,-2.52099 6.9896,-5.00302 7.3064,-5.51561 0.9905,-1.60274 -4.1695,-3.232 -7.975,-2.51808 -1.9751,0.37055 -4.9501,2.00209 -6.611,3.62565 -1.6609,1.62356 -3.8777,2.95193 -4.9263,2.95193 -1.0485,0 -2.185,0.45075 -2.5255,1.00168 -0.9019,1.45924 -11.1541,0.17834 -16.6844,-2.08453 -6.3221,-2.58687 -6.854,-2.48175 -5.5065,1.08826 1.068,2.82938 0.9118,3.18895 -2.6671,6.13897 -2.0908,1.72346 -6.5779,5.81747 -9.9713,9.0978 -6.2803,6.07113 -14.26043,11.45098 -16.29471,10.98516 -0.61876,-0.14169 -3.31876,1.69617 -6,4.08412 -2.68125,2.38795 -6.44999,5.20228 -8.37499,6.25407 -6.57406,3.59196 -9.69477,7.4337 -4.75,5.84747 1.2375,-0.39698 3.6,-1.07669 5.25,-1.51047 z M 659.4276,722.77084 c 1.5484,-3.44896 3.21062,-7.05223 3.69383,-8.00727 1.21857,-2.40842 1.18751,-2.46921 -1.62143,-3.17421 -2.60344,-0.65343 -3.24298,-2.01214 -1.46447,-3.11132 1.98932,-1.22946 13.54708,-2.64041 23.89472,-2.91701 11.68099,-0.31225 9.89549,0.72131 18.56975,-10.74925 4.54263,-6.00702 4.30408,-5.71272 12.81606,-15.81178 5.74461,-6.81571 21.13809,-20.90432 22.91452,-20.97212 0.40182,-0.0153 3.20805,-1.61269 6.23605,-3.54969 3.02801,-1.93699 5.62425,-3.43533 5.76942,-3.32963 0.14517,0.10569 2.06395,-0.92838 4.26395,-2.29792 C 759.90389,645.48659 785.84181,633 787.42592,633 c 1.63385,0 47.93931,-22.75116 56.07328,-27.55037 2.74956,-1.6223 6.34956,-3.72173 8,-4.66541 4.29857,-2.45781 22.15032,-11.28268 27.7508,-13.71839 2.6125,-1.13621 6.6625,-2.93985 9,-4.0081 2.3375,-1.06825 6.05,-2.59153 8.25,-3.38506 2.2,-0.79354 8.5,-3.11719 14,-5.16367 5.5,-2.04649 11.8,-4.19787 14,-4.78086 12.52297,-3.3185 46.1216,-17.44002 51.5,-21.64546 1.925,-1.50519 5.525,-3.9175 8,-5.36068 2.475,-1.44319 8.49095,-6.39818 13.36877,-11.01109 7.51003,-7.10219 8.76023,-8.72899 8.16053,-10.6187 -0.5654,-1.78118 0.099,-2.99924 3.2899,-6.03498 2.199,-2.09187 4.772,-5.32301 5.7179,-7.18031 0.9458,-1.85731 3.7173,-5.73426 6.1588,-8.61546 3.3421,-3.94397 4.3607,-5.92095 4.1216,-8 -0.3243,-2.82071 -1.4754,-3.40425 -12.3175,-6.24435 -1.65,-0.43222 -20.1,-0.59851 -41,-0.36954 -91.46753,1.0021 -114.10474,0.76089 -122.84026,-1.3089 -2.91887,-0.69159 -9.8306,-1.96531 -24.15974,-4.45224 -20.06933,-3.48318 -38.36768,-8.20081 -48,-12.37524 -1.65,-0.71507 -6.18496,-2.43498 -10.0777,-3.82201 C 758.25511,459.7791 743.62004,451.3962 740.07569,447.59797 738.74231,446.16909 737.23528,445 736.72672,445 c -1.37405,0 -17.20124,-16.6335 -18.82408,-19.78307 -0.76995,-1.49431 -2.83849,-5.19193 -4.59676,-8.21693 -4.94973,-8.51574 -6.71762,-14.59238 -6.76419,-23.24998 -0.0409,-7.61049 -0.78559,-9.70765 -2.04169,-5.75002 -0.34913,1.1 -1.01664,2 -1.48336,2 -1.49296,0 -6.81938,-7.46229 -8.6055,-12.05624 -0.95025,-2.44407 -2.06249,-4.89376 -2.47166,-5.44376 -0.40916,-0.55 -1.22873,-2.8139 -1.82125,-5.0309 -0.59253,-2.21699 -1.70229,-4.88559 -2.46614,-5.93022 -1.34199,-1.83528 -1.4325,-1.8177 -2.68437,0.52144 -0.71256,1.33142 -1.41315,3.32502 -1.55688,4.43022 -0.14372,1.1052 -0.72762,5.60946 -1.29755,10.00946 -0.56993,4.4 -1.46417,11.15 -1.9872,15 -3.06419,22.5552 -2.79013,39.66201 0.85709,53.5 0.50736,1.925 1.1495,4.625 1.42697,6 0.66403,3.29053 2.75079,8.73002 4.86006,12.66855 0.9333,1.7427 2.6173,5.62851 3.74222,8.63513 1.12492,3.00662 3.15732,6.66645 4.51644,8.13297 1.35912,1.46652 2.47113,3.11114 2.47113,3.65471 0,4.20158 15.37298,24.06337 23.95744,30.95285 3.2024,2.5701 6.73878,5.52406 7.8586,6.56435 1.11983,1.04029 4.65683,3.43672 7.86001,5.32539 3.20317,1.88867 6.72395,4.1951 7.82395,5.12539 1.1,0.93029 4.7,3.16844 8,4.97367 3.3,1.80522 7.67884,4.33647 9.73076,5.625 2.05192,1.28853 5.50469,3.05257 7.67283,3.92009 4.41298,1.76572 5.58467,3.64105 4.05764,6.49434 -0.68907,1.28755 -2.09902,1.92931 -4.24641,1.93282 -1.76815,0.003 -4.38007,0.7904 -5.80427,1.75 -1.4242,0.95961 -5.9242,3.99163 -10,6.73784 -4.0758,2.7462 -11.75494,7.08766 -17.06474,9.64768 -5.30981,2.56002 -12.37262,6.50062 -15.69514,8.7569 C 718.82816,584.15396 715.32431,586 714.36435,586 710.11323,586 675,624.21558 675,628.84229 c 0,0.51023 -1.04109,1.60984 -2.31353,2.44357 -1.27245,0.83374 -4.30995,4.28189 -6.75,7.66256 -16.03253,22.21289 -27.24961,34.98564 -37.43647,42.62847 -4.18191,3.13753 -15.96909,10.4686 -23.26015,14.46671 -2.5301,1.38741 -3.89402,2.70223 -3.35857,3.23768 0.49588,0.49588 7.81295,1.32597 16.26016,1.84464 8.44721,0.51867 16.93356,1.37502 18.85856,1.90298 1.925,0.52797 4.75985,0.96246 6.29966,0.96552 3.75008,0.007 8.70034,2.66792 8.70034,4.67586 0,1.39559 -0.93122,1.53013 -6.75,0.97524 -3.7125,-0.35403 -14.625,-1.32763 -24.25,-2.16355 -9.625,-0.83593 -18.04633,-1.71601 -18.71407,-1.95574 -1.32303,-0.475 -4.66205,3.70264 -6.20682,7.7657 -1.32345,3.48094 0.0741,4.44058 9.0546,6.21731 7.35663,1.45546 13.49179,2.98635 23.86629,5.95527 3.025,0.86568 6.83633,1.81413 8.46962,2.10768 1.63329,0.29354 3.11671,0.68081 3.29649,0.86059 0.17978,0.17977 3.81872,0.39033 8.08655,0.46789 l 7.75968,0.14102 z M 1008,710.45882 c 0,-0.63186 0.9461,-2.00503 2.1024,-3.05147 1.9549,-1.76917 4.8976,-6.52588 4.8976,-7.91671 0,-1.5382 -2.4516,1.26014 -7.266,8.29362 -7.2216,10.55009 -7.5252,11.20487 -3.3715,7.26957 2.0006,-1.89539 3.6375,-3.96314 3.6375,-4.59501 z m 36.9971,-20.07518 c 2.2016,-1.989 4.0029,-4.19396 4.0029,-4.89992 0,-0.70595 -3.7125,-3.637 -8.25,-6.51344 -4.5375,-2.87644 -9.7346,-6.40898 -11.549,-7.85009 -8.6109,-6.839 -28.8151,-28.59762 -36.94593,-39.78844 -6.43653,-8.85884 -15.10148,-22.89787 -16.6351,-26.9523 -1.79462,-4.74446 -3.04328,-13.38513 -1.93124,-13.36414 1.90225,0.0359 3.17452,1.74604 4.23495,5.69247 0.62187,2.31428 1.56844,4.47833 2.10349,4.80901 0.53506,0.33069 0.97336,1.36219 0.974,2.29223 9.8e-4,1.41051 5.12707,9.73078 13.67182,22.19098 3.01933,4.40289 13.54101,16.34628 18.76511,21.30062 5.3783,5.1007 15.034,12.69938 16.1372,12.69938 0.3634,0 2.271,1.41385 4.2391,3.14188 1.9681,1.72804 5.8525,4.15199 8.632,5.38656 2.7795,1.23457 6.2946,3.64572 7.8113,5.35811 1.5168,1.7124 3.1897,3.11345 3.7176,3.11345 0.528,0 2.7673,-2.3939 4.9764,-5.31978 l 4.0165,-5.31979 -1.9281,-3.78176 c -3.2509,-6.37643 -16.605,-16.89471 -36.7709,-28.96245 -6.177,-3.69643 -11.802,-7.26164 -12.5,-7.92269 -0.6981,-0.66105 -5.0398,-4.57503 -9.6484,-8.69772 -4.60855,-4.1227 -11.47014,-11.65831 -15.24797,-16.74581 -3.77783,-5.0875 -7.28937,-9.25 -7.80342,-9.25 -0.51405,0 -1.19471,-0.81944 -1.51259,-1.82097 -0.31787,-1.00153 -1.85823,-3.13903 -3.42301,-4.75 -1.56479,-1.61097 -3.44765,-4.60882 -4.18413,-6.6619 -0.73649,-2.05308 -3.18841,-5.54786 -5.44872,-7.76619 -3.9125,-3.83982 -4.27495,-3.9812 -7.5553,-2.94696 -1.89511,0.59749 -4.64606,1.7333 -6.1132,2.52401 -1.46715,0.79072 -4.74194,1.72199 -7.27731,2.0695 -2.53536,0.34752 -4.84902,1.01899 -5.14147,1.49218 -0.29244,0.47318 -1.42308,0.86033 -2.51254,0.86033 -1.08945,0 -3.65039,0.83916 -5.69098,1.8648 -2.04059,1.02564 -5.48864,2.18809 -7.66233,2.58324 -2.1737,0.39514 -5.99512,1.80598 -8.49205,3.1352 C 911.55885,582.91246 908.934,584 908.22277,584 c -0.71122,0 -2.2898,0.63717 -3.50795,1.41593 -1.21815,0.77877 -6.93982,2.638 -12.71482,4.13162 -10.90085,2.81936 -14,3.98964 -14,5.28656 0,1.40346 15.71303,17.16583 17.1165,17.17024 2.21655,0.007 14.01631,11.58634 16.98273,16.66555 3.38886,5.80253 7.27002,8.01974 32.40077,18.50971 10.45,4.36199 21.925,9.43868 25.5,11.28152 14.61973,7.5362 28.90103,14.39531 35.5,17.05017 3.85,1.5489 7.45,3.14348 8,3.54349 0.55,0.40002 4.15,2.37087 8,4.37968 3.85,2.0088 9.7,5.18656 13,7.06168 3.3,1.87512 6.1112,3.43058 6.2471,3.45658 0.1359,0.026 2.0484,-1.58009 4.25,-3.56909 z m 33.2783,-4.3664 C 1079.6513,684.05296 1079.3402,674 1077.9035,674 c -0.4969,0 -0.9035,0.90611 -0.9035,2.01357 0,2.1102 -1.3145,4.85188 -4.25,8.86419 -0.9625,1.31558 -1.75,2.70333 -1.75,3.08391 0,1.38296 6.0836,-0.24295 7.2754,-1.94443 z m -6.2832,-12.18778 c 0.012,-1.00517 -5.7792,-2.07911 -7.0329,-1.30428 -0.7381,0.45613 -0.5688,1.24879 0.5245,2.45692 1.3332,1.47312 2.0393,1.58637 4.0573,0.65072 1.3438,-0.62305 2.4468,-1.43457 2.4511,-1.80336 z m -20.1729,-190.44113 c 1.8746,-1.37278 2.1624,-10.46431 0.401,-12.66794 -0.5366,-0.67122 -1.3088,-2.34539 -1.7162,-3.72039 -0.4074,-1.375 -1.2883,-3.175 -1.9577,-4 -0.6693,-0.825 -1.8129,-3.075 -2.5412,-5 -0.7283,-1.925 -2.326,-4.625 -3.5505,-6 -1.2245,-1.375 -2.9764,-3.98591 -3.8931,-5.80202 -2.1432,-4.24599 -12.5241,-20.39693 -16.7778,-26.10346 -1.8061,-2.42301 -4.5823,-6.24801 -6.1694,-8.5 -1.5871,-2.25198 -5.3746,-6.56952 -8.4168,-9.59452 C 1000.4721,395.31239 990,383.23952 990,382.17359 c 0,-1.33431 -8.87812,-5.15759 -10.51656,-4.52886 -0.85737,0.329 -3.45438,-0.0682 -5.77115,-0.88258 -5.5081,-1.93628 -15.80135,-4.98116 -28.21229,-8.34556 -5.5,-1.49096 -11.66982,-3.54475 -13.71071,-4.56399 -2.04089,-1.01924 -4.61679,-1.99143 -5.72423,-2.16044 -1.10744,-0.16901 -2.32512,-0.61888 -2.70596,-0.99972 C 922.97826,360.3116 922.01639,360 921.22161,360 918.41172,360 898.33623,351.54948 886,345.17391 c -17.43138,-9.00883 -17.50534,-9.05035 -27.04451,-15.1818 -4.69948,-3.02066 -9.27382,-5.94211 -10.1652,-6.49211 -0.89138,-0.55 -6.56845,-4.15 -12.61571,-8 C 823.74056,307.58385 821.14257,306.00411 812,300.80031 797.8361,292.73845 774.0408,280.50544 770.95164,279.6976 768.99203,279.18515 768.14985,276 769.97397,276 c 1.3191,0 15.02534,5.46691 23.02603,9.18423 3.575,1.66104 7.50349,3.40954 8.72997,3.88555 1.22649,0.47602 6.62649,3.50718 12,6.7359 5.37352,3.22873 12.84843,7.54862 16.61091,9.59976 3.76249,2.05115 9.61249,5.48918 13,7.64008 3.38752,2.15089 8.18412,5.04967 10.65912,6.44172 2.475,1.39204 7.425,4.37482 11,6.62838 11.81034,7.44485 39.62147,21.29015 45,22.40249 0.275,0.0569 2.24246,0.86357 4.37212,1.79265 2.12967,0.92908 4.30319,1.68924 4.83004,1.68924 0.52686,0 4.66907,1.30987 9.20492,2.91083 4.53585,1.60096 9.89512,3.17276 11.9095,3.49289 2.01437,0.32014 6.40164,1.34362 9.74947,2.2744 7.72074,2.14655 8.16845,1.58315 7.29334,-9.17812 -1.53479,-18.87315 -0.28333,-39.76209 3.11532,-52 2.38107,-8.57382 1.81123,-10.30815 -4.97471,-15.14062 -3.3,-2.35003 -8.87798,-6.65476 -12.3955,-9.56608 -3.51753,-2.91131 -10.29142,-7.9933 -15.0531,-11.2933 -4.76167,-3.3 -10.65869,-7.44983 -13.10449,-9.22185 -2.4458,-1.77202 -6.83117,-4.92202 -9.74526,-7 -2.91409,-2.07798 -8.9411,-6.79127 -13.39335,-10.47397 -4.45226,-3.6827 -11.743,-9.19149 -16.20165,-12.24175 C 871.14799,221.51217 864.125,216.55412 860,213.54456 c -4.125,-3.00957 -8.0625,-5.48829 -8.75,-5.50825 -0.6875,-0.02 -1.25,-0.48066 -1.25,-1.02377 0,-1.02711 -4.87467,-4.33533 -12.84956,-8.72043 C 834.5927,196.8857 829.575,193.81551 826,191.46948 819.25538,187.04343 803.91333,179 802.21571,179 c -0.53395,0 -1.51192,-0.65198 -2.17326,-1.44885 -0.66134,-0.79686 -2.70716,-1.94545 -4.54627,-2.55241 -1.83911,-0.60696 -7.05417,-3.10392 -11.58903,-5.5488 -4.53486,-2.44488 -8.46417,-4.22625 -8.73181,-3.95861 -0.26764,0.26764 -0.61543,2.9592 -0.77287,5.98125 -0.29366,5.63677 -3.62475,12.75654 -10.30586,22.02742 -1.58544,2.2 -5.03578,7.375 -7.66742,11.5 -2.63163,4.125 -7.5498,11.1 -10.92925,15.5 -3.37945,4.4 -8.30512,11.375 -10.94593,15.5 -2.6408,4.125 -5.34286,7.81625 -6.00457,8.20278 -0.66171,0.38653 -2.05485,2.63653 -3.09586,5 -1.04102,2.36347 -3.78066,7.27961 -6.08811,10.92475 C 713.50485,269.38573 704,288.29855 704,290.70186 c 0,0.55488 -1.94675,5.46145 -4.32612,10.9035 -4.4107,10.08809 -5.26803,13.05939 -6.31639,21.89105 -0.32667,2.75197 -0.99075,5.76151 -1.47572,6.68785 -1.33795,2.55561 -1.09733,2.90795 1.53481,2.24732 2.3327,-0.58547 2.39774,-0.45599 1.87393,3.73095 -0.29846,2.38561 -1.45681,5.85529 -2.57412,7.71041 -1.84399,3.06166 -1.91786,3.84611 -0.80045,8.5 1.57977,6.57954 2.6962,9.65435 6.3918,17.60392 l 3.01097,6.47687 2.08351,-2.97687 c 1.14593,-1.63727 4.43967,-5.33936 7.31941,-8.22686 7.68994,-7.71066 12.24323,-6.62573 7.16352,1.70688 C 715.48442,370.89497 712,386.85993 712,393.92153 c 0,4.90468 3.30975,15.95579 6.62884,22.13345 C 723.04235,424.26961 739.64136,442 742.9183,442 c 0.59493,0 1.0817,0.40724 1.0817,0.90498 0,2.05806 20.4694,12.5088 34.5,17.61413 8.36935,3.04536 24.40904,7.60761 40.5,11.51961 1.925,0.468 6.19412,1.14008 9.48692,1.4935 3.29281,0.35343 6.38357,0.88774 6.86834,1.18735 0.48478,0.29961 7.24067,1.25061 15.01308,2.11334 10.83629,1.20281 22.74652,1.50766 51.07512,1.3073 20.3189,-0.14372 37.25103,-0.45139 37.62696,-0.68373 0.99125,-0.61263 35.21774,-0.56434 50.3996,0.0711 13.51088,0.56551 16.28138,0.91643 38.52998,4.88033 14.6967,2.61842 21.2161,2.88677 23.8193,0.98042 z M 671.59886,430.20864 c 0.18087,-14.55322 1.25549,-33.12539 1.9866,-34.33377 0.20802,-0.34382 0.60788,-2.81882 0.88858,-5.5 1.68309,-16.07697 6.22872,-38.02246 8.46015,-40.84414 0.44831,-0.5669 1.57249,-7.47309 2.49817,-15.34708 1.792,-15.24308 7.21536,-34.39291 12.13871,-42.86172 1.33591,-2.29794 2.42893,-5.01712 2.42893,-6.04263 0,-4.2616 22.56493,-45.52396 28.92524,-52.89287 1.00336,-1.16247 3.43686,-4.99711 5.40777,-8.52144 1.97092,-3.52433 5.51477,-8.96142 7.87524,-12.08241 2.36046,-3.121 5.51702,-7.61135 7.01458,-9.97856 4.50199,-7.11637 5.15324,-8.12004 8.30825,-12.80402 7.39369,-10.97682 10.36932,-22.62704 7.21892,-28.26357 -4.50644,-8.06267 -6.54657,-7.72694 -15.28978,2.51614 -3.87188,4.53609 -8.59107,10.27243 -10.48708,12.74743 -1.89602,2.475 -6.97377,8.55 -11.28388,13.5 -4.31012,4.95 -8.98895,11.025 -10.39738,13.5 -1.40844,2.475 -4.63779,7.65 -7.17634,11.5 -2.53855,3.85 -4.93365,7.77428 -5.32245,8.72061 -1.21815,2.96501 -21.44352,31.30599 -36.34797,50.93294 -5.11296,6.733 -12.18915,20.05769 -16.97819,31.97043 -1.90681,4.7432 -3.46693,8.91683 -3.46693,9.27475 0,0.35793 1.125,1.0785 2.5,1.60127 1.8809,0.71512 2.5,1.67546 2.5,3.87801 0,2.4463 -0.92219,3.53963 -5.61029,6.65141 -5.35919,3.55723 -5.58505,3.87939 -5.04652,7.19801 0.51005,3.14302 0.13934,3.86037 -3.88971,7.52714 -4.46185,4.06064 -5.54306,5.97459 -3.20348,5.67078 4.90246,-0.63661 4.99447,2.71253 0.27806,10.12099 l -3.47195,5.45366 3.20443,2.66398 3.20443,2.66399 -2.23249,3.97217 C 633.50134,377.65955 633.48612,378 636,378 c 2.85415,0 2.55923,2.94921 -1,10 -1.65,3.26863 -3,6.48635 -3,7.15048 0,0.66413 1.55194,2.62903 3.44876,4.36645 2.45491,2.24861 3.29539,3.74543 2.91656,5.19409 -0.41626,1.59178 0.13955,2.26933 2.55124,3.11005 2.2757,0.79331 3.08344,1.69618 3.08344,3.44658 0,1.30442 1.125,3.34985 2.5,4.5454 1.77811,1.54605 2.5,3.18627 2.5,5.68034 0,3.26233 0.21816,3.50661 3.13167,3.50661 3.0591,0 3.11773,0.0869 2.5301,3.75 -1.32042,8.231 -1.63699,7.60591 4.33823,8.56605 5.43128,0.87274 9,2.91045 9,5.13894 0,1.43519 2.18543,3.69291 2.89136,2.98699 0.28858,-0.28858 0.60695,-7.14358 0.7075,-15.23334 z m 404.84744,-40.32912 c 1.1923,-1.09877 -1.5744,-3.19038 -6.3655,-4.81231 -14.4401,-4.88846 -18.0808,-6.46262 -18.0808,-7.81779 0,-1.04959 0.6572,-1.30655 2.25,-0.87971 13.0052,3.48521 37.8615,6.15242 38.6246,4.14462 0.2061,-0.54212 -1.4444,-1.94761 -3.6677,-3.12331 -2.2233,-1.1757 -5.5123,-3.20715 -7.309,-4.51433 -4.1763,-3.0384 -7.4649,-4.86311 -17.6479,-9.79192 -4.5375,-2.19626 -8.25,-4.39844 -8.25,-4.89372 0,-0.49529 6.6375,-1.18772 14.75,-1.53873 16.5533,-0.71623 35.3885,-3.56771 36.0168,-5.45263 0.4832,-1.44972 -8.036,-5.42421 -16.1917,-7.55397 -3.4154,-0.89189 -9.7502,-1.42674 -16.1043,-1.3597 -10.7383,0.11329 -13.3038,-0.6729 -12.135,-3.7188 0.411,-1.07105 1.9569,-1.58546 4.8828,-1.62484 8.0806,-0.10874 11.9053,-0.86091 16.0166,-3.14984 6.936,-3.8615 6.1015,-4.7836 -4.4019,-4.86382 -5.1333,-0.0392 -11.1333,-0.25611 -13.3333,-0.48201 -2.2,-0.2259 -6.8416,-0.68275 -10.3146,-1.01523 -6.6224,-0.63397 -8.4965,-2.14681 -6.1548,-4.96838 1.7986,-2.16721 0.6313,-2.8096 -4.7762,-2.62829 -3.8714,0.12981 -5.1714,0.6707 -6.9994,2.9123 -1.2348,1.51409 -2.2473,3.28967 -2.25,3.94573 -0.01,1.59994 -4.0062,8.30716 -4.9536,8.30716 -1.8742,0 -12.3006,19.2704 -11.854,21.90896 0.1664,0.98331 -0.3356,2.98038 -1.1156,4.43794 -1.4664,2.74016 -1.2248,3.64361 1.0766,4.02623 2.3494,0.39062 5.9155,2.69833 5.4167,3.50537 -0.2645,0.42798 1.4104,1.59273 3.722,2.58832 2.3116,0.99559 4.9457,2.45216 5.8536,3.23681 1.1115,0.96059 1.8658,1.07869 2.309,0.36151 0.9681,-1.56635 4.1035,-1.29633 5.5781,0.48037 0.7054,0.85003 1.8433,1.33038 2.5285,1.06744 1.3011,-0.49931 4.4337,2.3359 4.4337,4.01284 0,2.35475 7.9648,8.57713 12.6123,9.85312 4.9681,1.36404 14.0776,1.0192 15.834,-0.59939 z m -80.43636,-21.00834 c 2.68478,0.1225 5.81166,0.40189 6.94866,0.62085 2.6277,0.50605 4.6701,-2.58732 5.4133,-8.19884 0.3065,-2.31374 0.9679,-5.01374 1.4699,-6 0.502,-0.98625 1.466,-3.59319 2.1423,-5.79319 0.6763,-2.2 3.8803,-9.55752 7.12,-16.35004 3.2396,-6.79252 5.6193,-12.7885 5.2881,-13.32441 -0.3312,-0.53591 -8.3175,-4.77781 -17.7472,-9.42644 -9.42975,-4.64864 -17.82,-8.87734 -18.645,-9.3971 -11.22464,-7.07178 -15.20067,-8.96498 -16.90843,-8.05101 -3.58319,1.91766 -6.29067,16.48675 -6.69925,36.049 -0.20104,9.625 -0.57932,20.9467 -0.84063,25.15934 -0.35325,5.69494 -0.12714,7.94812 0.88165,8.78534 0.74621,0.6193 5.6262,2.1832 10.84443,3.47534 5.21822,1.29214 10.3232,2.81692 11.34438,3.3884 1.30156,0.72839 2.25282,0.71031 3.18154,-0.0605 0.72866,-0.60473 3.52147,-0.99929 6.20625,-0.87678 z M 993.32098,355.25 c -0.33894,-0.9625 -1.28201,-3.325 -2.09571,-5.25 -1.75035,-4.14086 -2.40986,-26.26296 -0.88691,-29.75 1.22326,-2.80087 3.67236,-2.925 4.37922,-0.22196 0.39146,1.49692 1.05446,1.8617 2.53161,1.39287 1.22855,-0.38993 1.76052,-0.24564 1.37777,0.37367 -1.10791,1.79263 -1.6917,21.55983 -0.78043,26.42528 0.67373,3.59719 0.54577,5.20274 -0.53797,6.75 -1.74616,2.493 -3.17304,2.59324 -3.98758,0.28014 z M 1021,369.16667 c 0,-1.30208 -1.1888,-2.16804 -2.1558,-1.57039 -1.0342,0.63919 -0.1424,2.40372 1.2148,2.40372 0.5176,0 0.941,-0.375 0.941,-0.83333 z m 42.4573,-43.09757 c 0.3164,-0.512 0.118,-1.21356 -0.441,-1.55902 -0.559,-0.34546 -1.0163,0.0734 -1.0163,0.9309 0,1.75653 0.6001,2.01516 1.4573,0.62812 z M 604.33589,315.33077 c 0.36808,-0.36807 2.3123,-0.83778 4.3205,-1.0438 2.0082,-0.20601 6.4485,-1.72365 9.86734,-3.37253 8.82877,-4.25804 12.51624,-4.67089 16.99514,-1.90278 4.36232,2.69607 4.72278,2.42394 8.96754,-6.77016 l 2.88945,-6.2585 -3.04328,-3.2415 c -4.55771,-4.85457 -4.80328,-6.44542 -1.07931,-6.99198 1.71126,-0.25116 4.52998,-0.13671 6.26381,0.25433 1.88983,0.42623 3.76786,0.26096 4.68906,-0.41263 0.84515,-0.61799 5.25219,-6.74133 9.79343,-13.60742 4.54123,-6.86609 9.1769,-13.49561 10.30148,-14.73226 1.91944,-2.11073 9.33839,-12.39526 17.13365,-23.75154 1.88768,-2.75 5.72319,-8.15 8.52336,-12 5.12063,-7.04044 8.54426,-13.33102 7.70961,-14.16566 -0.24722,-0.24722 -1.49187,1.03892 -2.76588,2.85808 -3.06572,4.37752 -18.57365,21.3905 -33.09014,36.30155 -11.8908,12.21398 -20.57085,22.20453 -27.83403,32.03633 -4.76858,6.45498 -6.49284,7.02961 -5.51913,1.83929 1.392,-7.42003 12.08269,-20.68594 43.00932,-53.36959 7.82179,-8.26617 15.7312,-17.56747 22.61856,-26.59896 C 713.21924,188.42499 725.18441,175 726.72533,175 c 0.80405,0 1.69231,0.88105 1.97391,1.95788 0.40968,1.56662 1.60889,0.41754 6.00083,-5.75 3.01886,-4.23933 6.96841,-9.28288 8.77677,-11.20788 3.15909,-3.36284 4.95005,-6.75011 7.27598,-13.76121 0.89158,-2.68747 0.79094,-3.55217 -0.57202,-4.91513 -1.06216,-1.06216 -1.65873,-3.32838 -1.66736,-6.33384 -0.007,-2.57396 -0.61312,-5.40305 -1.34606,-6.28688 -0.75733,-0.91325 -1.05134,-2.4932 -0.68105,-3.65988 0.44466,-1.40098 0.13694,-2.25039 -0.96899,-2.67478 -1.19612,-0.45899 -1.45696,-1.36669 -0.99595,-3.46568 0.53243,-2.42413 0.005,-3.433 -3.57207,-6.83603 -3.36909,-3.20494 -4.09832,-4.50679 -3.69787,-6.60162 0.39554,-2.06914 0.007,-2.79636 -1.87632,-3.51242 C 733.99148,101.42646 733,100.23242 733,99.092139 c 0,-1.07655 -0.83171,-2.221338 -1.84824,-2.543973 -1.01654,-0.322635 -2.33184,-1.647973 -2.92289,-2.945194 -0.87613,-1.922889 -1.68067,-2.288022 -4.35532,-1.976606 -2.70285,0.3147 -3.94935,-0.270959 -7.07711,-3.325142 C 714.7084,86.262308 713,83.774293 713,82.772301 c 0,-1.008531 -1.08348,-2.233742 -2.4271,-2.744584 -1.3349,-0.507529 -3.60152,-2.926778 -5.03692,-5.376107 -1.51539,-2.585825 -3.53788,-4.650004 -4.8229,-4.922331 -3.50723,-0.743263 -47.52468,-0.251013 -48.31601,0.540321 -0.39218,0.392176 -1.32506,0.205128 -2.07306,-0.415662 -1.01134,-0.839336 -5.00877,-0.808182 -15.59201,0.121516 -13.70955,1.204332 -17.0239,1.959443 -38.232,8.710424 -2.75,0.875383 -10.175,4.290024 -16.5,7.588093 -18.11016,9.44325 -27.58567,16.243139 -32.74335,23.497529 -1.83447,2.58021 -5.04384,6.33293 -7.13195,8.33937 -2.08811,2.00644 -5.26296,6.51481 -7.05523,10.0186 -2.32844,4.55198 -6.15766,9.22647 -13.41407,16.37511 -13.05016,12.85634 -14.70744,16.12082 -15.3972,30.32921 -0.28479,5.86641 -0.96788,11.2328 -1.51799,11.9253 -0.55011,0.69251 -1.17002,4.16746 -1.37758,7.72211 -0.52273,8.95199 0.54893,9.57414 14.63737,8.49758 14.53844,-1.11095 19.46436,-2.52638 23.59543,-6.78001 1.8797,-1.93547 3.19585,-3.74082 2.92477,-4.0119 -0.27108,-0.27108 -2.55962,-0.60401 -5.08565,-0.73986 -3.86315,-0.20774 -5.13151,0.22603 -7.98387,2.73044 C 525.76639,197.4123 524,197.20564 524,193.53976 524,190.32788 529.79628,187 535.39049,187 c 5.36533,0 5.89528,-0.54671 4.02876,-4.15615 -1.81594,-3.51165 -1.00995,-5.18992 2.19797,-4.57669 1.82008,0.34793 2.38278,0.0159 2.38278,-1.40583 0,-3.99213 7.01091,-1.67471 9.50094,3.14049 2.34288,4.53063 0.64207,10.01785 -5.21222,16.81588 -2.69141,3.12526 -5.84647,7.2573 -7.01127,9.1823 C 538.52493,210.54898 534,222.62324 534,225.41906 c 0,1.19952 -0.5038,2.68474 -1.11957,3.30051 -0.61576,0.61576 -1.47413,2.84326 -1.9075,4.95 C 530.53956,235.7763 529.19818,240.65 527.99207,244.5 523.81859,257.8221 518,281.22738 518,284.69308 c 0,1.04881 0.49421,2.40113 1.09826,3.00518 1.75922,1.75922 15.39647,-3.34382 23.40174,-8.7569 3.85,-2.60334 8.70119,-5.68014 10.78042,-6.83735 3.82832,-2.13068 9.17158,-2.7997 10.11886,-1.26698 0.6892,1.11515 -2.31296,5.33435 -3.34278,4.69789 -1.0565,-0.65296 -6.36072,3.30327 -18.21578,13.5865 -5.31261,4.60822 -10.82511,9.18709 -12.25,10.17526 -3.98612,2.76441 -3.13211,3.70332 3.36843,3.70332 10.75278,0 21.27857,1.99976 24.04085,4.56744 1.375,1.27814 5.2,3.52473 8.5,4.99243 5.90949,2.62829 6.22251,2.65816 20.75,1.98008 10.27368,-0.47954 14.75,-0.36246 14.75,0.38579 0,1.18467 2.27949,1.46144 3.33589,0.40503 z M 562.18286,190.944 c -1.77525,-0.71191 -2.24297,-1.57406 -2,-3.68661 0.25428,-2.21082 0.89442,-2.82322 3.2295,-3.08948 1.60179,-0.18265 4.02929,0.26568 5.39443,0.99628 1.36514,0.7306 4.66568,1.33004 7.33454,1.33209 3.7652,0.003 4.85317,0.35987 4.85557,1.5932 0.002,0.87422 -1.14307,2.11172 -2.54395,2.75 -3.00276,1.36815 -12.95957,1.43211 -16.27009,0.10452 z m 124.86824,-5.37107 c -4.59101,-2.54249 -5.49986,-9.39365 -1.58628,-11.95792 4.57642,-2.99859 6.88161,-1.74385 4.32303,2.35308 -1.49146,2.38821 -0.29024,3.83858 1.98864,2.4011 2.34382,-1.47844 3.19125,-6.51242 2.67146,-15.86919 -0.40927,-7.36718 -0.42324,-12.70583 -0.0759,-29 l 0.12791,-6 -3.25,0.32537 c -2.32471,0.23273 -3.25,-0.0883 -3.25,-1.12756 0,-3.69457 7.08383,-5.83438 10.15108,-3.06633 1.87775,1.69457 2.01181,2.60184 1.44008,9.74577 -0.34672,4.33248 -0.83651,8.21072 -1.08841,8.61831 -0.25191,0.40758 0.23725,3.16282 1.087,6.12275 0.84976,2.95993 1.68167,6.50669 1.84869,7.88169 0.16701,1.375 0.36169,2.86406 0.43261,3.30902 0.0709,0.44496 0.54756,0.5503 1.05919,0.23409 1.10012,-0.67991 0.85748,-32.6392 -0.28124,-37.04311 -0.88336,-3.41635 -4.19824,-7.35256 -7.149,-8.48897 -1.20369,-0.46357 -3.07516,-0.22095 -4.70034,0.60936 -3.45047,1.76285 -5.79966,1.76068 -5.79966,-0.005 0,-4.56017 14.77714,-6.66511 19.90638,-2.83558 3.71088,2.77057 5.98138,10.84377 6.19468,22.02638 0.17873,9.37035 -1.9651,27.78739 -4.12046,35.39757 -1.82458,6.44229 -12.20122,17.86477 -16.13497,17.76118 -0.7401,-0.0195 -2.44764,-0.64572 -3.79453,-1.39163 z M 556.18734,147.50418 c -2.04226,-1.71844 -3.6891,-4.45469 -4.67089,-7.76073 -3.58509,-12.0723 -1.67338,-13.65732 17.33057,-14.36899 6.95914,-0.2606 14.62022,-0.92173 17.02462,-1.46917 2.4044,-0.54744 4.59749,-0.76949 4.87354,-0.49345 1.07293,1.07294 -0.78861,3.55926 -3.85025,5.14249 -2.65568,1.37331 -4.09258,1.48125 -8.34628,0.62699 -7.47131,-1.50046 -16.92412,0.44184 -17.3682,3.56868 -0.20508,1.444 0.19884,2.25 1.12755,2.25 0.79591,0 2.02619,0.69775 2.73396,1.55056 1.63798,1.97364 5.92108,1.49101 7.35718,-0.82903 0.83801,-1.35383 0.77181,-1.98374 -0.27726,-2.63819 -1.67795,-1.04679 -0.6156,-3.08334 1.6084,-3.08334 0.88673,0 2.41841,0.72957 3.40373,1.62128 1.631,1.47603 1.66167,1.93196 0.34242,5.08938 -2.96088,7.08639 -8.15583,11.57577 -14.84778,12.83118 -2.64111,0.49548 -3.90662,0.0951 -6.44131,-2.03766 z m 71.46765,-26.33292 c -1.80874,-1.99863 -2.11729,-4.89303 -0.75148,-7.04938 C 627.91143,112.53057 630,113.4601 630,115.5 c 0,2.62323 1.87608,2.531 3.18608,-0.15664 1.57942,-3.24038 3.58451,-4.10476 4.42727,-1.90856 0.93276,2.43073 -1.44029,7.16532 -4.22799,8.43548 -3.29864,1.50296 -3.79208,1.44277 -5.73037,-0.69902 z M 556,121.02568 c 0,-0.53588 1.30934,-1.65141 2.90965,-2.47896 1.60031,-0.82755 3.06281,-1.87983 3.25,-2.3384 0.18719,-0.45857 2.92785,-2.73223 6.09035,-5.05258 3.1625,-2.32036 5.75,-4.93588 5.75,-5.81228 0,-1.22657 0.67065,-1.45933 2.91278,-1.0109 1.91934,0.38386 3.32356,0.0876 4.11718,-0.86865 C 583.83508,100.08393 592.74432,96 597.31271,96 c 4.4618,0 6.75412,1.222626 4.68729,2.5 -0.56794,0.351008 -0.80524,1.006114 -0.52732,1.455791 0.85545,1.384139 -2.52572,3.494409 -7.28094,4.544209 -5.5168,1.21793 -6.47477,3.15677 -2.28193,4.6184 3.33066,1.16108 3.71353,1.85826 1.97514,3.59665 -0.82007,0.82007 -2.17606,0.7407 -5.12573,-0.3 -7.99854,-2.82205 -15.53333,-1.09091 -24.40475,5.60708 -5.09578,3.84735 -8.35447,5.0189 -8.35447,3.00355 z m 61.51985,-3.96313 c -0.76614,-2.4139 0.88996,-5.15323 4.62269,-7.6463 1.578,-1.05394 3.1145,-2.68073 3.41443,-3.6151 0.66505,-2.07178 4.27665,-3.36753 5.6258,-2.01838 1.21164,1.21164 -0.896,4.90833 -3.13321,5.49548 -0.85226,0.22368 -2.20515,1.71507 -3.00643,3.31422 -3.1667,6.3199 -6.3381,8.20425 -7.52328,4.47008 z M 613,108.83665 c 0,-1.15532 0.9367,-3.6162 2.08156,-5.46862 1.72218,-2.78655 2.68613,-3.36803 5.58333,-3.36803 4.03741,0 4.13366,1.7941 0.19927,3.71446 -1.36849,0.66795 -3.08603,2.33159 -3.81675,3.69696 -1.78795,3.3408 -4.04741,4.13644 -4.04741,1.42523 z m -5.02022,-5.87442 c -0.59982,-1.12078 -0.79822,-2.95891 -0.44089,-4.084747 0.51921,-1.635895 1.183,-1.915331 3.30539,-1.391464 4.01109,0.990051 4.57099,2.078389 2.51833,4.895161 -2.26414,3.10697 -3.9345,3.28728 -5.38283,0.58105 z M 344.5,310.96103 c 0.55,-0.42149 4.375,-2.54423 8.5,-4.71719 14.23299,-7.49764 19.92132,-12.41515 32.67106,-28.24384 2.8796,-3.575 6.34796,-7.87321 7.70745,-9.55157 C 396.12027,265.0636 404,250.28639 404,248.52949 c 0,-1.10811 -1.9994,-2.71788 -17.5,-14.08968 -9.56829,-7.01965 -16.73967,-12.03543 -25.5,-17.83509 -15.97731,-10.57758 -19.91346,-12.76696 -21.84868,-12.15275 -1.07362,0.34076 -5.56549,3.03817 -9.98192,5.99427 -4.41644,2.95609 -9.07378,5.69322 -10.34965,6.08251 -1.27586,0.3893 -3.0805,1.37512 -4.01029,2.19071 -0.97169,0.85234 -4.47879,1.67682 -8.24766,1.93893 l -6.55711,0.45604 -4.75235,-4.5108 c -4.1358,-3.9256 -4.59133,-4.74385 -3.51126,-6.30721 0.68259,-0.98803 2.32113,-3.82234 3.64119,-6.29846 2.27558,-4.26843 9.54686,-11.85029 16.11773,-16.80617 2.83095,-2.13516 2.89453,-2.3311 1.1282,-3.47722 -1.02949,-0.66802 -5.23018,-3.46457 -9.33486,-6.21457 -9.00256,-6.03141 -8.16435,-5.54188 -16.79334,-9.80772 -3.85,-1.9033 -10.95807,-5.76268 -15.79572,-8.57641 C 265.86664,156.30214 261.56041,154 261.13489,154 c -0.42552,0 -3.0732,-1.71567 -5.88372,-3.81261 -2.81053,-2.09693 -8.4043,-5.103 -12.43061,-6.68016 -4.02631,-1.57716 -8.67056,-3.83211 -10.32056,-5.01101 -6.16728,-4.40642 -7.91573,-3.52507 -9.92666,5.00378 -0.38904,1.65 -3.71469,8.32766 -7.39034,14.83924 -7.30884,12.94794 -12.46277,18.81029 -33.55035,38.16189 -11.5279,10.5789 -11.80818,10.93486 -9.79887,12.44464 1.13767,0.85483 5.5307,4.23855 9.76229,7.51939 6.4542,5.00407 22.01796,16.01305 35.6608,25.22457 11.59881,7.8314 26.72583,16.439 27.76321,15.79786 0.45571,-0.28164 0.97511,0.2053 1.15424,1.08209 0.41238,2.01855 10.3177,7.686 34.58386,19.78757 5.09199,2.53939 13.55303,7.32285 18.80229,10.62991 5.24927,3.30706 9.86613,6.01284 10.25969,6.01284 0.39356,0 2.40271,1.14644 4.46476,2.54764 5.86552,3.98573 25.53239,14.11566 27.47047,14.14939 0.95954,0.0167 2.19461,-0.3145 2.74461,-0.736 z m 169.55697,-44.02055 c 0.38493,-0.79226 2.18813,-7.70244 4.00712,-15.35595 3.24094,-13.63649 3.26844,-13.94235 1.37158,-15.25549 -1.06462,-0.73701 -5.08567,-3.65777 -8.93567,-6.49059 -8.26633,-6.08233 -27.1208,-17.69818 -37,-22.79492 -3.85,-1.98625 -8.125,-4.31499 -9.5,-5.175 -12.41339,-7.76408 -23.46273,-13.14126 -27.00343,-13.14126 -4.73312,0 -13.38193,5.18347 -15.50765,9.29415 -1.40187,2.71092 -1.31884,2.86094 4.79225,8.65896 3.42036,3.24513 8.24383,8.343 10.71883,11.3286 5.70988,6.88784 11.42483,12.51256 16.41183,16.15274 2.15151,1.57045 4.53361,3.74307 5.29355,4.82804 0.75994,1.08496 4.54538,3.89362 8.41208,6.24145 3.86671,2.34784 8.45962,5.13948 10.20646,6.20366 6.25479,3.81042 13.22706,7.6172 16.1737,8.83067 1.64869,0.67895 6.37369,2.9199 10.5,4.97987 7.81511,3.90154 8.89863,4.08412 10.05935,1.69507 z M 311.54181,208.98765 c 4.377,-2.7568 9.30819,-6.00598 10.95819,-7.2204 1.65,-1.21442 6.6,-4.80222 11,-7.97289 4.4,-3.17066 11.6,-8.48006 16,-11.79865 4.4,-3.31859 10.49313,-7.77792 13.54029,-9.9096 8.40763,-5.8817 8.44494,-5.96602 5.49448,-12.41639 C 367.14065,156.62186 366,153.64932 366,153.06408 c 0,-2.38268 -2.6081,-0.69317 -9.86407,6.38986 -4.19976,4.09966 -9.99843,9.28513 -12.88593,11.52325 -2.8875,2.23813 -5.25,4.46007 -5.25,4.93766 0,0.47758 -1.0125,1.12763 -2.25,1.44455 -2.61591,0.66993 -13.31682,8.35846 -19.68091,14.1406 -16.76154,15.22883 -18.7173,17.80911 -15.9897,21.09565 1.77972,2.14444 2.87809,1.79871 11.46242,-3.608 z M 323.5,208.531 c 3.92518,-3.21743 2.84911,-3.23967 -1.5,-0.031 -1.86371,1.375 -2.96363,2.49776 -2.44428,2.49503 0.51935,-0.003 2.29428,-1.11155 3.94428,-2.46403 z M 330,204 c 0,-0.55 -0.19844,-1 -0.44098,-1 -0.24254,0 -0.7191,0.45 -1.05902,1 -0.33992,0.55 -0.14148,1 0.44098,1 0.58246,0 1.05902,-0.45 1.05902,-1 z m 13.31925,-9.46671 c 5.59941,-4.10668 11.08075,-8.11108 12.18075,-8.89866 1.1,-0.78758 1.72913,-1.71093 1.39807,-2.0519 -0.33107,-0.34096 -6.38415,3.66344 -13.45129,8.89867 -7.06715,5.23523 -12.27762,9.5186 -11.57882,9.5186 0.6988,0 5.85188,-3.36002 11.45129,-7.46671 z m -170.00351,-0.6812 c 4.55983,-2.39636 16.42345,-13.78179 25.89589,-24.85209 9.82139,-11.47811 16.06431,-22.06056 19.43263,-32.9405 2.25218,-7.27469 1.16224,-7.34936 -10.04695,-0.6883 -8.26994,4.91441 -22.48064,18.57899 -26.48192,25.46423 -8.50988,14.64343 -13.91001,28.93025 -12.41129,32.83584 0.62105,1.61843 0.85395,1.63009 3.61164,0.18082 z m 249.28235,-8.00718 8.27344,-8.1551 -5.53533,-7.0949 c -3.04443,-3.9022 -5.92498,-7.23973 -6.40121,-7.41673 -1.02202,-0.37984 -9.25512,5.02645 -13.19113,8.66201 -1.69138,1.56227 -2.55073,3.19295 -2.22443,4.22102 0.33857,1.06675 -0.37289,2.26798 -1.95868,3.30703 -1.36971,0.89747 -2.97963,2.54593 -3.57761,3.66326 -0.98175,1.83443 -0.56331,2.27135 4.31346,4.50401 2.97038,1.35989 6.21355,3.37071 7.20703,4.4685 0.99349,1.0978 2.48465,1.99599 3.31369,1.99599 0.82903,0 5.23038,-3.66979 9.78077,-8.15509 z M 394.05644,178.75 c 1.03236,-1.2375 1.89199,-2.85288 1.91029,-3.58974 0.0183,-0.73686 4.30827,-5.61475 9.53327,-10.83975 9.0219,-9.02189 10.6734,-11.47727 8.58701,-12.76673 -0.50214,-0.31034 -1.22452,-2.40822 -1.60528,-4.66195 -0.38077,-2.25372 -2.04403,-6.27215 -3.69614,-8.92984 -3.57523,-5.75134 -8.34823,-8.07403 -16.09636,-7.83299 -6.62957,0.20624 -9.35184,1.2326 -10.17863,3.83761 -0.44521,1.40273 -2.11131,2.46919 -5.1109,3.27146 -4.44644,1.18924 -8.37311,5.04229 -6.38858,6.2688 0.54388,0.33614 0.98888,2.75008 0.98888,5.36432 0,8.34359 5.38391,16.30332 13.25,19.58918 3.56747,1.49022 5.1629,4.44226 2.5,4.62578 -0.6875,0.0474 -2.825,0.15988 -4.75,0.25 -5.19565,0.24323 -4.33587,2.44362 2,5.11847 7.01233,2.96045 6.8379,2.95476 9.05644,0.29538 z M 368,177.39301 C 368,177.17686 367.325,177 366.5,177 c -0.825,0 -1.5,0.43588 -1.5,0.96862 0,0.53273 0.675,0.70959 1.5,0.39301 0.825,-0.31659 1.5,-0.75246 1.5,-0.96862 z M 365.99368,143.75 c 0.009,-2.50662 -1.52582,-2.16025 -3.9211,0.88486 -2.89805,3.68427 -2.58308,4.56261 0.9211,2.56863 1.64652,-0.93692 2.99652,-2.49099 3,-3.45349 z M 417.5,139 c 0.33992,-0.55 0.14148,-1 -0.44098,-1 -0.58246,0 -1.05902,0.45 -1.05902,1 0,0.55 0.19844,1 0.44098,1 0.24254,0 0.7191,-0.45 1.05902,-1 z m 8.54519,-5.25719 c 1.56428,-1.23354 2.86905,-2.60575 2.89948,-3.04935 0.0775,-1.12938 -5.72648,2.40463 -7.76176,4.72611 -1.58817,1.8115 -1.57874,1.88146 0.16761,1.24281 1.01778,-0.37222 3.13038,-1.68602 4.69467,-2.91957 z m -0.49594,-10.83854 c 23.6232,-15.30708 45.52671,-31.508529 57.84862,-42.789109 3.9742,-3.638338 9.11049,-8.320799 11.41397,-10.405467 4.50284,-4.075093 5.06961,-5.733262 2.64693,-7.743913 -1.27451,-1.057746 -2.35613,-0.877771 -6.25,1.039964 -6.8993,3.39791 -12.91095,7.68327 -19.93355,14.209474 C 467.8516,80.396849 464.5265,83 463.88613,83 c -0.64038,0 -3.91423,2.370534 -7.27523,5.267852 -3.36099,2.897319 -7.3484,5.89836 -8.8609,6.66898 C 446.2375,95.707452 445,96.711919 445,97.16898 445,97.626041 444.54311,98 443.98469,98 c -1.38828,0 -14.16113,9.23334 -21.48469,15.53102 -3.3,2.83774 -7.9125,6.3598 -10.25,7.8268 -2.3375,1.467 -4.25,3.18869 -4.25,3.82598 0,1.78592 3.11714,4.8162 4.95424,4.8162 0.90434,0 6.5721,-3.19308 12.59501,-7.09573 z m 11.97721,2.28886 c -0.30789,-0.30789 -1.11479,-6.4e-4 -1.79313,0.68278 -0.98026,0.98762 -0.8654,1.10248 0.5598,0.5598 0.98622,-0.37553 1.54122,-0.93469 1.23333,-1.24258 z M 460.57665,112 c 0.21148,0 2.75575,-1.52969 5.65393,-3.39931 7.59395,-4.89888 22.10058,-19.261996 25.3515,-25.10069 l 2.78394,-5 -4.93301,4.291617 c -4.86688,4.234084 -7.20647,6.148914 -26.2634,21.495173 -5.31829,4.28273 -11.11773,8.96148 -12.88764,10.39721 -5.05472,4.10032 -2.85505,4.53132 3.83296,0.75104 C 457.45739,113.54577 460.36516,112 460.57665,112 Z m -32.04822,652.1951 c -0.21439,-0.21439 -4.13349,-0.545 -8.70912,-0.73468 -10.16065,-0.42121 -30.67244,-2.31647 -33.06931,-3.05557 -0.9625,-0.29679 -1.75,-1.34474 -1.75,-2.32876 0,-1.89562 -1.48608,-1.68441 27,-3.83739 4.675,-0.35333 10.075,-0.57427 12,-0.49096 1.925,0.0833 12.5,0.14866 23.5,0.14524 11,-0.003 21.35,0.0792 23,0.18357 8.56288,0.54171 30.2289,0.20822 31.75,-0.48871 1.27331,-0.58341 1.75,-0.36408 1.75,0.80517 0,0.88385 -0.45,1.60699 -1,1.60699 -0.55,0 -1,0.675 -1,1.5 0,0.83333 0.88889,1.5 2,1.5 1.11111,0 2,0.66667 2,1.5 0,1.73102 -6.4725,2.16252 -7.5,0.5 -0.33992,-0.55 -0.14148,-1 0.44098,-1 0.58246,0 1.05902,-0.47656 1.05902,-1.05902 0,-0.58246 -0.46963,-0.76877 -1.04362,-0.41402 -1.14216,0.70589 -15.23007,1.56291 -23.95638,1.45735 -3.025,-0.0366 -11.575,0.67402 -19,1.57915 -18.97445,2.31302 -27.01951,3.0837 -27.47157,2.63164 z M 524,753 c 0,-0.55 0.42344,-1 0.94098,-1 0.51754,0 1.2191,0.45 1.55902,1 0.33992,0.55 -0.0835,1 -0.94098,1 C 524.70156,754 524,753.55 524,753 Z M 233,686 c 0,-0.55 0.45,-1 1,-1 0.55,0 1,0.45 1,1 0,0.55 -0.45,1 -1,1 -0.55,0 -1,-0.45 -1,-1 z M 187.5,245 c 0.33992,-0.55 1.04148,-1 1.55902,-1 0.51754,0 0.94098,0.45 0.94098,1 0,0.55 -0.70156,1 -1.55902,1 -0.85746,0 -1.2809,-0.45 -0.94098,-1 z"/>
</svg>
