<?xml version="1.0" encoding="utf-8"?>

<svg xmlns="http://www.w3.org/2000/svg" version="1.1" viewBox="0 0 1188 639">











	<path d="M 721.25,607.33772 C 719.59792,606.67109 719.63793,604 721.3,604 c 1.44095,0 3.7,1.95378 3.7,3.2 0,0.87138 -1.77065,0.93641 -3.75,0.13772 z m 18.77056,-1.46501 c -1.36369,-0.5379 -3.25441,-1.67935 -4.2016,-2.53655 -1.48725,-1.34594 -6.70773,-1.57748 -38.27067,-1.69735 -20.10167,-0.0764 -36.66095,0.15103 -36.79839,0.50528 -0.13745,0.35425 -2.0499,0.33945 -4.2499,-0.0329 -2.2,-0.37234 -6.475,-0.33076 -9.5,0.0924 -3.025,0.42316 -8.65,0.56136 -12.5,0.30711 -3.85,-0.25425 -11.725,-0.76971 -17.5,-1.14546 -14.81216,-0.96376 -54.85157,-1.57501 -56.0163,-0.85516 -0.80622,0.49826 -13.14694,2.56383 -18.4837,3.09376 -5.6045,0.55652 -38.76012,1.61268 -46,1.46532 -10.19622,-0.20754 -37.28098,-0.96936 -52.5,-1.47668 -24.27898,-0.80934 -35.1983,-0.85463 -42,-0.17419 -8.6226,0.86259 -18.67668,1.59385 -23,1.67283 -14.85146,0.27134 -35.02657,-0.30988 -37.5,-1.08034 -1.65,-0.51396 -10.01349,-1.13937 -18.58554,-1.3898 -8.57205,-0.25043 -17.48136,-0.96581 -19.79848,-1.58975 -3.70555,-0.9978 -4.61317,-0.88707 -7.53619,0.91946 -3.06854,1.89646 -4.58539,2.02757 -19.78986,1.71053 -9.05663,-0.18885 -16.98935,-0.66644 -17.62827,-1.06131 -3.13396,-1.93689 0.0337,-6.71235 4.02493,-6.06784 11.11586,1.79499 22.52324,1.96549 30.31341,0.45307 5.29815,-1.02861 46.58041,-0.6079 52.48659,0.5349 5.2413,1.01414 27.88536,1.08941 42.01341,0.13964 6.875,-0.46217 16.12192,-0.94213 20.54871,-1.06658 4.4268,-0.12444 8.4768,-0.48713 9,-0.80596 0.52321,-0.31883 3.40733,-0.1887 6.40917,0.28918 11.39684,1.81434 21.63795,2.23407 57.54212,2.35835 40.21375,0.1392 68.7533,-1.08818 78.58729,-3.37975 4.29293,-1.00036 41.21606,-0.60351 42.9393,0.46151 1.5618,0.96525 44.39192,1.31885 52.9168,0.43688 9.93136,-1.02749 33.46218,-1.19479 56.81882,-0.40397 14.49482,0.49077 16.3309,0.37159 16.89428,-1.09656 0.52466,-1.36724 1.53702,-1.53411 5.95682,-0.98189 2.92861,0.36591 11.42962,0.66023 18.89114,0.65405 9.5989,-0.008 14.79896,0.43053 17.78098,1.49931 3.56449,1.27755 8.07069,1.39318 29.21457,0.74967 13.75,-0.41848 25.33546,-0.67449 25.74547,-0.5689 0.41001,0.10558 7.38501,-0.28147 15.5,-0.86012 23.05835,-1.64419 43.46888,-2.0852 87.87742,-1.89878 22.61759,0.0949 43.00198,-0.14484 45.29866,-0.53287 3.73908,-0.63171 9.07845,-4.56712 9.07845,-6.69131 0,-0.38418 1.35,-2.17656 3,-3.98308 1.65,-1.80652 3,-3.98417 3,-4.83922 0,-0.85504 0.59299,-2.44226 1.31775,-3.52713 1.53933,-2.3042 4.39286,-9.87494 5.07799,-13.47251 1.59896,-8.39601 2.09277,-11.72537 2.00232,-13.5 -0.0561,-1.1 -0.16857,-3.85936 -0.25,-6.13191 -0.16886,-4.71235 -3.46445,-8.7418 -15.64806,-19.13259 -9.32317,-7.95126 -26.06556,-24.79921 -30.83274,-31.02715 -2.108,-2.75394 -5.05848,-7.47255 -6.55661,-10.48581 -1.49814,-3.01325 -3.48591,-6.24066 -4.41727,-7.17202 C 939.76202,471.61916 939,470.01584 939,468.98759 c 0,-1.02826 -0.46193,-2.15504 -1.0265,-2.50397 -0.56458,-0.34893 -2.3983,-3.44789 -4.07494,-6.88658 -1.67665,-3.4387 -4.05728,-7.51737 -5.2903,-9.06373 -2.21605,-2.77919 -2.31014,-2.79898 -8.17506,-1.71976 -3.26326,0.60048 -9.0832,1.83448 -12.9332,2.74221 -3.85,0.90774 -9.7,1.99852 -13,2.42397 -8.52891,1.09957 -32.0906,0.13414 -37.9315,-1.55423 -2.71233,-0.78402 -6.59487,-1.4255 -8.62788,-1.4255 -2.033,0 -5.43883,-0.74366 -7.5685,-1.65257 -5.69971,-2.43257 -20.13996,-3.46959 -23.62212,-1.69642 -1.5125,0.77019 -2.75,1.83879 -2.75,2.37467 0,0.53588 -0.57385,0.97432 -1.27522,0.97432 -1.39518,0 -8.15287,4.24875 -26.24344,16.5 -11.46325,7.76311 -16.02451,10.38998 -31.23134,17.98638 -3.9875,1.99191 -7.25,4.04735 -7.25,4.56764 0,0.52029 -0.59266,0.94598 -1.31702,0.94598 -0.72435,0 -7.61808,2.88141 -15.31939,6.40313 -7.7013,3.52172 -15.54614,6.85855 -17.43298,7.41518 -1.88684,0.55663 -8.71175,3.0467 -15.16647,5.53348 -6.45473,2.48678 -13.87973,4.83172 -16.5,5.21096 -2.62028,0.37925 -5.33872,1.1479 -6.04099,1.70812 -0.70227,0.56023 -3.40227,1.1979 -6,1.41705 -5.23609,0.44173 -11.04122,3.73727 -13.9013,7.89169 -1.76116,2.55816 -12.7597,14.73588 -16.80195,18.60332 -1.08906,1.04196 -2.97382,2.14388 -4.18837,2.44871 -2.63775,0.66203 -8.09495,-2.31089 -8.90041,-4.84868 -0.31148,-0.98136 -2.05214,-2.91759 -3.86814,-4.30272 -3.03795,-2.31716 -4.17135,-2.5259 -14.1824,-2.61193 -5.98432,-0.0514 -11.10558,-0.01 -11.38058,0.0923 -0.275,0.1022 -6.67128,0.40238 -14.21395,0.66708 -14.95166,0.52469 -18.13501,-0.18415 -17.59673,-3.91833 0.3697,-2.56478 5.81761,-5.83358 13.72879,-8.23742 3.07004,-0.93285 7.83189,-2.71693 10.58189,-3.96463 2.75,-1.24771 6.125,-2.57556 7.5,-2.95079 2.74807,-0.74993 6.66942,-2.32745 9,-3.62061 6.4381,-3.57229 9,-4.841 9,-4.45701 0,0.70278 23.73975,-11.36195 27.82772,-14.14227 2.01976,-1.37367 5.92228,-3.58494 8.67228,-4.91394 2.75,-1.32899 5.675,-2.84673 6.5,-3.37275 0.825,-0.52602 5.1,-2.60088 9.5,-4.61081 4.4,-2.00993 8.70731,-4.27815 9.57179,-5.04049 0.86449,-0.76234 4.7015,-2.90921 8.52668,-4.77081 3.82519,-1.86161 7.5203,-4.06603 8.21136,-4.8987 0.69107,-0.83268 2.70406,-2.10243 4.47333,-2.82166 4.21188,-1.71218 12.96267,-7.77966 14.14989,-9.81101 C 714.99136,450.71914 727.65884,440 730.27349,440 c 2.27269,0 5.19035,-3.06783 29.20106,-30.70409 5.04512,-5.80691 7.81848,-8.25085 14.19445,-12.50841 3.75705,-2.50877 7.731,-5.01457 8.831,-5.56845 2.91048,-1.4655 34.0783,-11.89825 40.29802,-13.48888 2.91391,-0.74521 5.34732,-1.77685 5.40758,-2.29255 0.0603,-0.51569 -4.78935,-3.75599 -10.77692,-7.20067 -12.61871,-7.25961 -19.23045,-13.32408 -23.52698,-21.57959 -1.68329,-3.23434 -5.04979,-8.32289 -7.48112,-11.3079 C 783.98926,332.36445 782,329.25504 782,328.43965 c 0,-0.81539 -1.125,-1.99511 -2.5,-2.6216 -1.98533,-0.90458 -2.50315,-1.87805 -2.51531,-4.72857 -0.0175,-4.10211 -1.33955,-6.94235 -2.41871,-5.19624 -0.99962,1.61742 -3.25814,1.35137 -3.95551,-0.46595 -0.33193,-0.865 0.35623,-3.80369 1.52925,-6.53043 2.10894,-4.90238 1.93568,-7.37226 -0.35639,-5.08019 -1.44197,1.44197 -5.43347,1.55843 -6.28333,0.18333 -0.33992,-0.55 -2.50398,-1.02367 -4.80902,-1.05261 -2.30504,-0.0289 -7.56598,-0.70372 -11.69098,-1.49954 -4.125,-0.79581 -8.625,-1.6395 -10,-1.87486 -1.375,-0.23536 -5.875,-1.32342 -10,-2.4179 -4.37005,-1.1595 -10.72602,-1.99442 -15.23019,-2.00064 -4.25161,-0.006 -9.20161,-0.47572 -11,-1.04412 -5.14218,-1.62524 -19.97738,-5.29313 -23.09853,-5.71094 -1.5558,-0.20826 -3.2379,-0.63155 -3.738,-0.94062 -0.50009,-0.30908 -3.46395,-1.22737 -6.58635,-2.04066 -6.78787,-1.76801 -14.89974,-5.68823 -18.34693,-8.8665 -1.95638,-1.80376 -4.13087,-2.44524 -10,-2.95002 -4.125,-0.35477 -9.975,-1.30492 -13,-2.11144 -3.025,-0.80653 -6.75985,-1.47175 -8.29966,-1.47828 -1.53981,-0.007 -4.04863,-0.65774 -5.57515,-1.44713 -2.67622,-1.38393 -9.46311,-8.20778 -10.24465,-10.30045 -0.2093,-0.56041 -4.64248,-3.98184 -9.85151,-7.60318 l -9.47097,-6.58425 -5.63322,0.58878 c -5.07094,0.53002 -5.79154,0.36275 -7.21938,-1.67577 -1.34908,-1.92608 -2.17133,-2.17099 -5.50107,-1.63854 -3.14788,0.50336 -4.26775,0.23614 -5.71575,-1.36389 -0.99047,-1.09445 -4.58688,-3.54795 -7.99204,-5.45222 -7.77426,-4.34761 -8.74329,-5.5376 -8.33015,-10.22959 0.33073,-3.75604 0.29832,-3.79287 -3.82991,-4.35259 -2.2899,-0.31048 -4.82756,-1.11566 -5.63926,-1.78931 -2.94203,-2.44167 -2.50153,-9.14923 0.60241,-9.17287 0.66017,-0.005 3.45031,-1.11596 6.20031,-2.46873 2.75,-1.35277 5.45,-2.49239 6,-2.53248 0.55,-0.0401 2.8,-1.66365 5,-3.6079 3.75423,-3.3178 3.887,-3.61787 2.16087,-4.88379 -1.01152,-0.74184 -2.79136,-1.16541 -3.95519,-0.94128 -2.81626,0.54236 -21.63301,-3.07968 -52.20568,-10.04908 -12.61782,-2.87639 -17.74205,-3.66466 -18.53108,-2.85069 -1.12876,1.16443 -1.47628,15.65928 -0.53569,22.34309 0.4257,3.025 0.7335,6.49933 0.68401,7.72073 -0.0495,1.22141 0.40477,3.47141 1.00948,5 0.6047,1.5286 2.11363,6.60427 3.35317,11.27927 2.29121,8.64148 6.65693,21.08544 8.50286,24.23643 1.93443,3.30204 1.21064,6.4496 -1.73275,7.53522 -10.44528,3.85254 -32.75365,4.02822 -45.25,0.35634 -20.37206,-5.98605 -32.34536,-10.83685 -45.5,-18.43361 -2.2,-1.2705 -5.575,-2.93224 -7.5,-3.69277 -9.52943,-3.76489 -31,-19.08098 -31,-22.11394 0,-2.15665 1.26582,-2.86171 10.5,-5.84854 3.85,-1.24529 7.675,-2.66921 8.5,-3.16426 0.825,-0.49505 3.38619,-1.76715 5.69153,-2.82688 9.11757,-4.19122 21.05147,-11.62746 25.63315,-15.9725 12.57793,-11.92831 22.81978,-23.33103 21.83778,-24.31303 -0.42657,-0.42657 -3.64299,-0.99853 -7.14761,-1.27102 -6.79576,-0.5284 -8.86848,-1.49891 -13.8586,-6.48904 -3.99219,-3.99219 -4.14285,-7.45438 -0.40625,-9.3354 2.46136,-1.23906 3.69465,-1.10189 11.75,1.30685 8.81404,2.63561 10.64357,3.24647 15.29705,5.1075 1.26338,0.50526 3.25576,0.91865 4.42752,0.91865 1.17175,0 5.76307,1.291 10.20294,2.86888 4.43987,1.57789 10.32249,3.57545 13.07249,4.43903 2.75,0.86357 10.175,3.34309 16.5,5.51003 6.325,2.16693 13.3,4.39862 15.5,4.95931 2.2,0.56068 11.2,3.1369 20,5.72494 26.41019,7.76709 28.89603,8.43734 31.5,8.49328 1.375,0.0295 5.15735,0.94264 8.40523,2.02912 3.24787,1.08647 7.1649,1.97541 8.70451,1.97541 1.5396,0 5.76215,1.07546 9.38343,2.38992 7.11187,2.58147 8.54256,2.22357 10.0459,-2.51302 0.58726,-1.85031 1.25546,-2.05501 5.40605,-1.65619 4.10045,0.394 5.39477,1.12953 9.64543,5.48132 4.54032,4.64834 5.36058,5.07397 10.90945,5.66098 3.3,0.3491 11.85,1.33902 19,2.19982 7.15,0.86079 18.92165,2.1595 26.15923,2.88601 7.23758,0.72651 13.65008,1.62429 14.25,1.99506 1.86511,1.1527 1.19895,3.49146 -1.15923,4.06985 -2.44867,0.60058 -9.34834,0.0801 -11.75,-0.88633 -0.825,-0.33199 -4.875,-0.49923 -9,-0.37164 -4.125,0.12758 -14.3625,-0.1354 -22.75,-0.58439 -9.87473,-0.52861 -15.25,-0.46999 -15.25,0.16633 0,0.54047 1.83698,3.30663 4.08217,6.14702 2.24519,2.84038 4.69419,6.62911 5.44222,8.4194 1.57663,3.7734 3.17459,5.20195 5.97561,5.34208 1.1,0.055 5.825,1.737 10.5,3.73772 4.675,2.00072 12.92482,4.51445 18.33294,5.58607 5.40812,1.07162 10.66603,2.39426 11.68426,2.93919 1.01822,0.54494 2.69557,0.9908 3.72745,0.9908 1.03187,0 4.77395,1.15766 8.31574,2.57258 3.54178,1.41492 7.33961,2.706 8.43961,2.86907 1.99405,0.2956 8.30796,2.59384 14,5.09596 5.24164,2.30412 17.75208,5.2904 25.18134,6.01086 6.06475,0.58814 7.85282,0.383 11.5,-1.31934 2.37526,-1.10867 5.44366,-2.26911 6.81866,-2.57875 1.375,-0.30965 2.8256,-0.65521 3.22355,-0.76791 0.39796,-0.11271 3.77296,-0.71496 7.5,-1.33833 5.52309,-0.92378 6.7214,-1.45191 6.47879,-2.85541 -0.62707,-3.62772 6.37464,-19.77133 9.66619,-22.28703 0.79036,-0.60406 1.11878,-1.61321 0.72983,-2.24256 -0.9821,-1.58907 -7.74111,1.96906 -14.18999,7.47001 -5.64729,4.81718 -11.84874,7.85809 -17.90837,8.78146 -8.09265,1.23315 -12.44049,-4.06653 -12.61261,-15.37379 -0.0576,-3.78193 0.21838,-7.39894 0.61321,-8.03779 0.93484,-1.51261 -3.44656,-6.09087 -11.0006,-11.49486 -5.38699,-3.85374 -13.5,-8.05368 -13.5,-6.98868 0,0.77223 -9.49057,-3.64992 -11.25,-5.24196 -2.63884,-2.38778 -2.11567,-5.52944 1.5,-9.00753 5.33178,-5.1289 12.22732,-7.23488 24.32287,-7.4285 6.27511,-0.10045 10.79589,-0.60554 11.21391,-1.2529 1.55409,-2.40667 4.18468,-12.31598 4.19849,-15.81555 0.0167,-4.22863 -0.36677,-4.41773 -10.48527,-5.17048 -17.92796,-1.33373 -26.65136,-6.85936 -22.01058,-13.94208 0.91243,-1.39255 3.31308,-3.39916 5.33477,-4.45915 2.0217,-1.05999 5.25869,-2.82158 7.19332,-3.91464 6.65405,-3.7595 25.50561,-9.57104 34.85868,-10.7462 2.33794,-0.29375 5.00972,-0.92823 5.9373,-1.40995 1.50977,-0.78406 11.32491,-2.44963 15.18651,-2.57705 1.8231,-0.0602 11,-6.30767 11,-7.48866 0,-0.46369 1.83485,-3.02957 4.07744,-5.70196 4.63548,-5.523881 5.6991,-7.767559 6.42644,-13.556421 0.52474,-4.1764 2.65593,-6.713647 5.6871,-6.770656 0.93004,-0.01749 1.95159,0.389866 2.27011,0.90524 1.66297,2.690738 20.82462,-1.17225 25.10336,-5.060838 C 827.6999,79.844292 829.36084,79 830.25543,79 c 0.8946,0 1.87236,-0.397746 2.1728,-0.883881 0.30045,-0.486134 2.55305,-1.827179 5.00579,-2.9801 2.45273,-1.152921 6.03611,-3.672817 7.96306,-5.599769 C 848.72395,66.209386 859.92913,60 862.60578,60 c 0.68825,0 1.87783,0.626467 2.64351,1.39215 0.76569,0.765682 2.26033,1.569496 3.32143,1.786252 1.23703,0.252692 1.81202,1.060515 1.60249,2.251371 -0.44128,2.507884 1.47371,3.501783 5.49097,2.849871 2.925,-0.474662 3.33582,-0.273326 3.33582,1.634827 0,1.962796 0.35815,2.108965 3.653,1.490848 l 3.653,-0.685306 -0.63986,3.199296 -0.63986,3.199296 4.48686,-0.672846 C 893.40433,75.862239 894,76.009862 894,77.557716 c 0,0.981641 -0.74474,2.607736 -1.65499,3.613543 -1.31175,1.449471 -1.3636,1.825565 -0.25,1.813428 0.77275,-0.0084 2.03918,-0.416788 2.81431,-0.90748 C 896.70663,80.93942 899,81.797065 899,83.606989 899,84.373145 899.95246,85 901.11658,85 c 1.73693,0 2.02795,0.463594 1.6225,2.584597 -0.41026,2.146111 -0.17572,2.501345 1.38242,2.09388 1.03208,-0.269894 2.12277,-0.09226 2.42375,0.394736 0.61823,1.000317 -1.27471,5.008075 -2.94495,6.235113 -0.60517,0.444579 1.21367,0.521527 4.04185,0.170994 6.35146,-0.787214 7.2325,0.327769 3.6362,4.60172 l -2.73502,3.25039 2.66705,-0.66938 c 3.05563,-0.76692 4.28545,0.49348 2.99286,3.06728 -0.48908,0.97387 -0.58776,2.89567 -0.21928,4.27067 0.36848,1.375 0.25054,3.7469 -0.2621,5.27089 -0.59957,1.78242 -0.57268,3.20936 0.0754,4 0.6981,0.85169 0.43911,2.30385 -0.84345,4.72911 -3.88338,7.34331 -5.9538,13.19276 -5.9538,16.821 0,2.82889 1.11081,2.75441 3.94707,-0.26466 C 913.6274,138.70326 918.92777,136 921.84157,136 924.51583,136 945,126.2545 945,124.9822 945,124.44199 945.60071,124 946.3349,124 c 0.7342,0 4.8967,-2.16958 9.25,-4.8213 4.35331,-2.65171 9.0401,-5.46421 10.4151,-6.25 1.375,-0.78578 3.625,-2.36757 5,-3.51507 1.375,-1.1475 4.525,-3.29941 7,-4.78202 6.19839,-3.71305 14.50573,-9.776882 18.31791,-13.370924 1.75015,-1.650003 5.22449,-4.170677 7.72069,-5.601497 2.4963,-1.430821 7.6713,-5.314679 11.5,-8.630796 7.3154,-6.335906 14.7458,-10.516965 17.091,-9.617021 1.651,0.633529 14.3616,-11.042957 17.4359,-16.017346 2.4608,-3.981724 2.8366,-4.065527 5.8097,-1.295664 l 2.2523,2.098362 -0.6589,-3.512262 c -0.5442,-2.901122 -0.3058,-3.701245 1.3705,-4.598362 2.1755,-1.164295 6.4562,-1.45746 7.4064,-0.507232 0.7429,0.742827 -3.6732,13.438521 -4.9682,14.283281 -0.5379,0.350818 -1.5111,1.650351 -2.1628,2.887851 -2.473,4.696099 1.1944,2.061671 10.789,-7.75 5.3783,-5.5 10.4987,-10 11.3786,-10 2.2781,0 2.9863,1.629997 1.729,3.979333 -0.7763,1.450368 -0.7753,2.020667 0,2.020667 1.849,0 6.9855,-2.995625 6.9855,-4.073954 0,-1.734296 6.2542,-3.860368 8.236,-2.799759 3.6399,1.948017 2.0988,5.74857 -5.3026,13.076926 -3.8867,3.848284 -6.8819,7.181665 -6.656,7.407511 0.2258,0.225847 2.3374,-0.269174 4.6923,-1.100047 6.0484,-2.133979 7.0303,-1.954703 7.0303,1.283564 0,1.878346 -1.3111,4.200288 -4,7.083853 -2.2,2.359287 -4,4.981978 -4,5.828204 0,1.119347 0.3414,1.255272 1.2528,0.498831 0.8839,-0.733505 1.8191,-0.625727 3.1752,0.365914 1.7418,1.273637 1.7885,1.656195 0.4972,4.072706 -0.7839,1.466866 -2.8586,3.811414 -4.6105,5.210105 -2.5717,2.053193 -3.0809,3.064982 -2.6434,5.252399 0.5902,2.951287 -1.253,4.488792 -7.1478,5.962318 -4.3702,1.092437 -9.125,2.832748 -16.6033,6.076979 -3.6188,1.56995 -7.2616,2.85445 -8.095,2.85445 -0.8334,0 -2.3111,0.87948 -3.2839,1.9544 -1.4195,1.56855 -1.5715,2.52019 -0.7697,4.82017 1.6455,4.7205 -1.4088,9.87938 -9.2749,15.66522 -2.1982,1.61689 -5.3467,4.24309 -6.9967,5.836 -1.65,1.5929 -4.2912,3.57182 -5.8693,4.39758 -3.5614,1.86351 -11.33,7.34939 -18.837,13.30193 -13.54816,10.74277 -16.57228,13.03188 -18.86553,14.28028 -1.33549,0.72702 -4.67817,3.46399 -7.42817,6.08216 -2.75,2.61818 -6.12663,5.36748 -7.50362,6.10957 -1.377,0.74208 -4.37233,3.40257 -6.6563,5.91221 C 966.08013,189.04036 954.74872,197 952.34496,197 c -1.89475,0 -1.71553,0.66083 1.45228,5.35498 1.53848,2.27976 3.07389,4.86615 3.41202,5.74753 0.33813,0.88138 2.75935,4.93138 5.38049,9 2.62115,4.06862 6.97755,11.67249 9.6809,16.89749 2.70335,5.225 6.00495,10.94112 7.33691,12.70248 1.33195,1.76136 2.75264,4.01835 3.15708,5.01553 1.69183,4.17128 14.56476,14.17988 18.43566,14.3336 1.5262,0.0606 7.7997,7.60706 7.7997,9.38221 0,2.30265 -4.6155,5.68124 -13.68162,10.015 -1.74989,0.83648 -3.41351,1.89609 -3.69693,2.35467 -0.28343,0.45859 0.35978,4.17791 1.42935,8.26516 1.06956,4.08724 2.17512,8.65758 2.45678,10.1563 0.28167,1.49872 1.79894,6.44872 3.37173,11 5.04879,14.61014 8.20209,28.48134 10.51949,46.27505 0.2865,2.2 1.0286,7.62965 1.6492,12.06589 0.8769,6.2688 0.8483,9.05381 -0.1283,12.5 -0.6911,2.43876 -1.3657,4.99458 -1.499,5.67961 -0.7441,3.82338 -6.2373,16.47525 -9.0989,20.95646 -1.82699,2.86108 -3.3218,5.59308 -3.3218,6.0711 0,0.47803 -2.01161,2.96857 -4.47025,5.53455 l -4.47024,4.6654 1.93162,4.50629 c 1.06239,2.47845 2.14994,6.19703 2.41678,8.26349 0.69959,5.41776 6.75828,22.59479 10.84869,30.75721 1.9293,3.85 3.8376,8.125 4.2406,9.5 0.403,1.375 1.5031,3.4 2.4448,4.5 0.9416,1.1 3.2072,5.50255 5.0346,9.78345 1.8275,4.2809 3.6624,7.99341 4.0776,8.25003 0.4152,0.25662 2.2604,3.01626 4.1004,6.13253 1.84,3.11627 4.1279,6.82876 5.0844,8.24997 0.9564,1.42121 2.0018,3.25902 2.323,4.08402 0.3212,0.825 1.0011,2.28139 1.511,3.23643 0.5098,0.95504 0.926,2.53004 0.9247,3.5 0,0.96996 2.0887,4.82616 4.6445,8.56932 2.5557,3.74316 4.9622,8.53072 5.3477,10.63902 1.2136,6.63654 -0.6428,9.00593 -14.4899,18.49451 -2.75,1.8844 -6.6878,5.00876 -8.7506,6.94302 -2.0628,1.93425 -5.4378,4.77702 -7.5,6.31726 -7.4771,5.58468 -13.37715,13.09868 -10.4994,13.37156 0.9224,0.0875 25.9805,0.6062 40.25,0.83324 5.775,0.0919 14.55,-0.0942 19.5,-0.41347 25.3239,-1.63347 34.5331,-1.92746 40,-1.27692 3.3,0.39268 15.832,0.79078 27.8488,0.88467 25.6052,0.20005 30.1512,1.03108 30.1512,5.51174 0,2.59156 -0.3094,2.86755 -3,2.67568 -1.65,-0.11766 -5.7,-0.21553 -9,-0.21747 -3.3,-0.002 -15.45,-0.0467 -27,-0.0995 -33.0078,-0.15091 -121.41503,-0.076 -127.5,0.10805 -3.42166,0.10349 -7.01152,-0.50314 -9.5,-1.60536 -3.35903,-1.48781 -7.8458,-1.84085 -28,-2.20318 -41.78778,-0.75126 -105.4364,-0.079 -113.5,1.19879 -5.01854,0.79526 -31.50614,1.68012 -40,1.33626 -1.375,-0.0557 -8.575,0.0447 -16,0.22312 -11.39978,0.27388 -13.69248,0.59275 -14.73726,2.04965 -1.06708,1.48802 -3.13013,1.72869 -15,1.74983 -7.5695,0.0135 -14.87849,-0.41559 -16.24218,-0.9535 z M 758.5,603 c 0.33992,-0.55 0.14148,-1 -0.44098,-1 -0.58246,0 -1.05902,0.45 -1.05902,1 0,0.55 0.19844,1 0.44098,1 0.24254,0 0.7191,-0.45 1.05902,-1 z m 242.6912,-20.12907 c 5.1544,-4.97991 15.5694,-14.20526 25.2558,-22.37093 6.6935,-5.64274 8.0631,-8.60632 6.5217,-14.11182 -0.6699,-2.3926 -1.8452,-4.87072 -2.6118,-5.50694 -0.7666,-0.63622 -2.1092,-2.78227 -2.9835,-4.769 -4.9692,-11.29131 -5.7124,-11.78876 -11.3734,-7.61224 -1.8637,1.375 -4.101,2.5 -4.9718,2.5 -0.8707,0 -2.5406,0.6706 -3.7108,1.49022 -2.0353,1.42561 -2.0651,1.69655 -0.6858,6.25 0.7929,2.61788 1.1621,5.88478 0.8204,7.25978 -0.3417,1.375 -1.0007,6.16586 -1.4644,10.64636 -0.4713,4.55316 -1.8061,10.26008 -3.0263,12.9385 -1.2007,2.63568 -2.7938,6.5233 -3.54034,8.63916 -0.74652,2.11585 -2.04663,4.83116 -2.88913,6.034 -1.50109,2.1431 -1.9671,3.74198 -1.09064,3.74198 0.24266,0 2.83016,-2.30808 5.75001,-5.12907 z M 640.89309,534.78502 c 1.9838,-2.31824 6.7571,-7.60574 10.60733,-11.75 3.85022,-4.14426 8.29305,-8.96739 9.87294,-10.71806 l 2.87252,-3.18304 -2.25721,-3.65225 c -1.24147,-2.00874 -3.45187,-4.96023 -4.912,-6.55886 -2.35736,-2.58099 -2.87446,-2.75657 -4.61572,-1.56727 C 651.38243,498.09217 646.9,500.63218 642.5,503 c -4.4,2.36782 -8.88763,4.91147 -9.97251,5.65256 -1.08487,0.74109 -2.71169,1.34744 -3.61514,1.34744 -0.90345,0 -2.71582,0.80789 -4.02749,1.79532 -1.31167,0.98742 -4.40986,2.61151 -6.88486,3.60908 -2.475,0.99757 -6.3,2.61416 -8.5,3.59243 -2.2,0.97826 -6.35721,2.53858 -9.23824,3.46737 -2.88103,0.9288 -5.49509,2.10431 -5.80901,2.61226 C 594.13882,525.58441 592.98618,526 591.89132,526 589.2808,526 584,528.75674 584,530.11952 c 0,0.70062 1.64876,0.84139 4.79175,0.40912 2.63546,-0.36247 6.12296,-0.8389 7.75,-1.05874 1.62704,-0.21983 7.71507,-0.46396 13.52896,-0.5425 9.5035,-0.12839 11.07788,0.1142 15.59434,2.40287 2.76301,1.40012 5.77906,3.69858 6.70235,5.1077 2.35638,3.5963 4.36737,3.20641 8.52569,-1.65295 z m 367.96711,-11.19675 c 7.9737,-5.03359 8.4474,-7.18705 3.3191,-15.08827 -5.1707,-7.96652 -19.82794,-38.18822 -21.5904,-44.5171 -0.99294,-3.5656 -2.42093,-7.6079 -3.17331,-8.9829 -1.1517,-2.10479 -3.21215,-8.94247 -4.89785,-16.25376 -0.81126,-3.51861 -1.64457,-3.75131 -4.82923,-1.34856 -5.38359,4.06181 -22.16002,10.18256 -30.68851,11.19646 -7.79093,0.92621 -9,1.36243 -9,3.24708 0,1.92418 7.64461,17.07726 10.0616,19.94404 0.79514,0.94311 2.99237,4.18974 4.88273,7.21474 1.89036,3.025 5.6606,7.975 8.3783,11 9.54752,10.62707 27.0013,28 28.13031,28 0.62764,0 2.89882,1.8 5.04706,4 4.69393,4.80702 8.5804,5.23687 14.3602,1.58827 z M 677.91353,512.04628 c 0.98013,-0.52455 4.88805,-1.84684 8.68426,-2.93841 22.29892,-6.41191 19.57282,-5.27053 47.90221,-20.05596 17.40584,-9.08431 25.02655,-13.37949 27.75114,-15.64108 1.51313,-1.256 5.56313,-3.70512 9,-5.44248 3.43688,-1.73737 6.95929,-3.79099 7.8276,-4.5636 C 779.94705,462.63214 781.1074,462 781.6573,462 c 0.99895,0 5.72948,-2.88754 16.62409,-10.14743 3.17977,-2.11891 6.07676,-3.85257 6.43777,-3.85257 0.361,0 3.31736,-2.09059 6.56967,-4.64575 l 5.9133,-4.64576 9.17543,0.0855 c 5.04649,0.047 10.51351,0.60259 12.14894,1.23455 7.79587,3.0125 18.34126,4.94061 29.9735,5.48034 10.24545,0.47539 17.68795,-0.19572 30,-2.70518 8.46252,-1.72484 18.6072,-2.94444 27.5,-3.30607 4.675,-0.1901 10.40846,-0.63182 12.74101,-0.98158 2.33256,-0.34976 4.35756,-0.64882 4.5,-0.66456 6.08999,-0.6733 19.82128,-4.76129 22.63164,-6.73775 1.44504,-1.01626 6.13029,-3.54732 10.41167,-5.62458 4.89787,-2.37638 8.59228,-4.92861 9.96328,-6.88301 1.19843,-1.7084 2.75436,-3.55618 3.45762,-4.10618 2.02566,-1.58422 5.27011,-8.39741 7.61922,-16 1.87997,-6.08426 2.15038,-9.22394 2.06709,-24 -0.0828,-14.69424 -0.47255,-18.69541 -2.8734,-29.5 -1.52766,-6.875 -3.58582,-16.325 -4.57368,-21 -0.98786,-4.675 -2.09062,-9.625 -2.45058,-11 -0.35996,-1.375 -0.66757,-3.175 -0.68359,-4 -0.0263,-1.35379 -0.33144,-2.99934 -2.27162,-12.25 -0.73272,-3.49358 -2.17582,-3.46249 -7.09179,0.15275 -7.18059,5.28067 -27.97966,12.46586 -40.94687,14.1454 -4.4,0.5699 -11.825,1.54178 -16.5,2.15974 -4.675,0.61796 -13.91865,1.13052 -20.54145,1.13903 -10.86412,0.014 -12.45776,-0.21851 -16.29941,-2.37763 -2.34187,-1.31621 -5.1062,-3.76025 -6.14295,-5.4312 -1.03674,-1.67095 -3.48873,-3.89603 -5.44887,-4.94463 -3.19071,-1.70692 -3.7473,-1.74901 -5.3156,-0.402 -3.1281,2.68671 -5.34577,2.91353 -8.63152,0.88283 -4.98399,-3.08028 -7.25622,-6.0743 -10.1799,-13.41361 -2.67112,-6.70532 -2.71144,-7.12655 -2.05811,-21.5 0.81261,-17.87756 1.0162,-20.37645 3.10898,-38.16068 0.22652,-1.925 1.10868,-5.70902 1.96035,-8.40893 0.85166,-2.69991 1.54848,-6.16086 1.54848,-7.69098 0,-1.53013 0.45,-3.06017 1,-3.40009 0.55,-0.33992 1,-1.53597 1,-2.65789 0,-1.12192 0.66211,-3.45786 1.47136,-5.19098 0.80925,-1.73312 2.35264,-5.85113 3.42975,-9.15113 1.07712,-3.3 3.11304,-9.15 4.52428,-13 2.8936,-7.89402 3.0011,-8.5 1.50789,-8.5 -1.05408,0 -7.49671,4.49164 -9.43328,6.57665 -0.55,0.59216 -3.025,2.60612 -5.5,4.47547 -2.475,1.86935 -7.6575,6.23009 -11.51667,9.69053 -6.80337,6.10045 -10.9552,9.08899 -25.01667,18.00735 -10.07615,6.39071 -12.09622,5.57385 -5.9906,-2.42244 3.42992,-4.49203 14.02124,-13.24913 16.08685,-13.30091 0.5846,-0.0147 2.35629,-1.37665 3.93709,-3.02665 2.16646,-2.2613 2.47329,-3 1.24611,-3 -0.89544,0 -1.86746,0.38733 -2.16003,0.86072 -0.29258,0.4734 -4.03163,2.07719 -8.30902,3.56398 -4.27738,1.4868 -10.11338,3.78125 -12.96888,5.09879 -5.67444,2.61822 -6.72596,4.59178 -7.9795,14.97651 -0.33196,2.75 -1.03906,5.55316 -1.57134,6.22925 -1.19659,1.51987 -6.59774,4.27075 -8.3853,4.27075 -2.01178,0 -4.09035,4.87678 -4.68841,11 -0.29545,3.025 -0.96944,6.63346 -1.49775,8.0188 -0.90765,2.38003 -5.95285,7.40449 -13.02374,12.97022 -3.35886,2.64387 -4.22206,4.63169 -1.56924,3.6137 4.70696,-1.80622 6.1379,-1.74014 6.67355,0.3082 0.35311,1.35028 -0.4609,3.31709 -2.36395,5.71176 -3.19,4.0141 -4.10895,7.62348 -1.36012,5.34215 1.13409,-0.94121 1.83747,-0.98498 2.65711,-0.16534 1.03508,1.03508 0.0144,4.77572 -3.67017,13.45051 -0.59986,1.41229 -0.23416,1.75 1.89508,1.75 3.46747,0 4.25486,2.35237 2.21747,6.62482 -2.16175,4.53324 -2.08955,6.0903 0.18687,4.03017 C 777.71703,293.04112 780,293.54661 780,296.8 c 0,1.54 -0.3919,3.2275 -0.87089,3.75 -0.47899,0.5225 -1.15469,2.15611 -1.50155,3.63025 -0.52934,2.24969 -0.26896,2.73161 1.62089,3 2.04443,0.29034 2.25155,0.86169 2.25155,6.2112 0,5.10148 0.29464,6.02391 2.1974,6.87934 1.20857,0.54334 2.33357,1.94219 2.5,3.10855 0.16643,1.16636 0.9776,2.18125 1.8026,2.25531 0.825,0.0741 2.33564,0.18656 3.35699,0.25 1.26711,0.0787 1.66314,0.6205 1.24675,1.70559 -0.92493,2.41035 0.33197,3.708 2.13898,2.20832 1.88902,-1.56775 1.15869,-1.71702 5.00728,1.02342 4.87466,3.47107 4.2363,7.8466 -0.75505,5.17532 -3.8305,-2.05002 -2.69643,0.85409 3.59751,9.21245 9.07154,12.04703 17.84464,19.60183 26.6795,22.97456 11.19993,4.2756 12.16467,4.33918 18.35066,1.20936 3.09593,-1.5664 6.29911,-3.87077 7.11818,-5.12083 0.81907,-1.25006 2.40376,-2.27284 3.52154,-2.27284 1.11777,0 4.77852,-0.92289 8.13499,-2.05087 10.6031,-3.56328 11.71641,-3.84272 13.13749,-3.2974 0.76397,0.29317 1.6889,1.47779 2.05539,2.6325 0.50006,1.57555 -0.0519,2.6806 -2.21193,4.4282 -3.59013,2.90466 -13.12797,7.41141 -20.39728,9.63796 -3.03545,0.92974 -7.08545,2.67196 -9,3.8716 -1.91455,1.19963 -6.34786,3.20736 -9.85181,4.46161 -3.50394,1.25425 -8.39812,3.41354 -10.87595,4.79843 -2.47783,1.38488 -5.25847,2.51797 -6.17919,2.51797 -0.92073,0 -2.10155,0.37562 -2.62405,0.83472 -1.34365,1.18059 -8.82322,3.77266 -16.45,5.70081 -3.575,0.9038 -6.97439,2.03502 -7.55421,2.51382 -0.57981,0.47881 -5.03202,2.22351 -9.8938,3.87713 -8.1074,2.75753 -9.51104,3.65129 -16.94579,10.79005 -4.45841,4.28091 -8.17934,8.00847 -8.26873,8.28347 -0.0894,0.275 -0.43546,1.7375 -0.76905,3.25 -0.33359,1.5125 -1.20095,2.75 -1.92747,2.75 C 756.30459,427 745,439.11995 745,441.62482 c 0,1.28199 -0.88828,2.78021 -2.00165,3.37606 -1.10091,0.58919 -2.65473,2.51752 -3.45295,4.28519 -0.79821,1.76766 -2.78969,4.73266 -4.4255,6.58889 -2.6901,3.05258 -3.32729,3.30872 -6.6708,2.68147 -3.11505,-0.58439 -4.10977,-0.30134 -6.32285,1.79917 -1.44444,1.37096 -4.50959,3.5393 -6.81146,4.81853 C 700.57109,473.36774 697.46412,475 696.61147,475 c -0.5247,0 -1.69101,0.667 -2.59182,1.48222 -2.57141,2.32709 -11.29347,7.08729 -17.51965,9.56162 -11.75817,4.67279 -15.56414,7.56242 -12.4751,9.47155 0.56369,0.34838 2.64076,3.86244 4.6157,7.80901 5.12896,10.24931 5.59675,10.68931 9.27293,8.72188 z M 896.01238,361.25 c 0.007,-0.9625 1.69431,-2.83839 3.75,-4.16863 C 904.85937,353.78307 921,341.83241 921,341.35685 c 0,-0.21119 -0.54634,-1.25882 -1.2141,-2.32807 -1.77041,-2.83488 2.57229,-7.40714 6.32279,-6.65704 1.99708,0.39941 3.28686,-0.17517 5.44149,-2.42412 4.65294,-4.85662 7.97288,-3.1197 5.0043,2.61813 C 934.84814,335.86385 922.25539,349 920.80006,349 c -0.51768,0 -3.04698,1.75265 -5.62065,3.89477 C 910.25091,356.99687 899.66462,363 897.35923,363 c -0.74758,0 -1.35366,-0.7875 -1.34685,-1.75 z m -82.87159,-32.58036 c -1.32711,-1.59907 -0.52267,-4.67762 1.2162,-4.65433 2.18513,0.0293 3.83765,1.73551 3.47992,3.59303 -0.44984,2.33582 -3.13478,2.9426 -4.69612,1.0613 z m -8.98918,-9.57563 c -1.81804,-1.12403 -1.05478,-4.48898 1.1129,-4.90643 0.95785,-0.18447 2.02671,0.40776 2.37526,1.31605 0.81827,2.13237 -1.68271,4.70663 -3.48816,3.59038 z m -9.82233,-13.86934 c -0.64389,-0.40959 -1.47912,-1.9735 -1.85607,-3.47537 -0.95407,-3.80135 1.83672,-4.79901 4.49587,-1.60719 3.46629,4.16065 1.59,7.77318 -2.6398,5.08256 z M 796,287 c 0,-0.55 0.45,-1 1,-1 0.55,0 1,0.45 1,1 0,0.55 -0.45,1 -1,1 -0.55,0 -1,-0.45 -1,-1 z m -13.57889,-11.345 c -0.99395,-2.59019 0.19952,-12.02148 1.94941,-15.405 1.82875,-3.536 5.24842,-4.4151 5.83493,-1.5 0.36461,1.81222 -0.61271,6.8312 -2.67747,13.75 -1.22725,4.11238 -4.06641,5.8664 -5.10687,3.155 z m 17.65018,-8.52179 C 798.67733,264.52857 799.71131,262 802.17035,262 c 1.59662,0 1.89874,0.58347 1.64301,3.17299 -0.37173,3.76401 -2.25011,4.74797 -3.74207,1.96022 z M 797.48134,249.25 c 0.79315,-5.31813 8.67758,-18.25 11.12684,-18.25 2.72803,0 2.62975,3.04224 -0.235,7.27477 -3.41387,5.04381 -5.53581,9.65308 -4.91005,10.66558 0.83747,1.35505 -2.55502,5.05965 -4.63338,5.05965 -1.88653,0 -1.99818,-0.3933 -1.34841,-4.75 z M 807,252.5 c 0,-0.825 0.45,-1.5 1,-1.5 0.55,0 1,0.675 1,1.5 0,0.825 -0.45,1.5 -1,1.5 -0.55,0 -1,-0.675 -1,-1.5 z m -13.75085,-14.27124 c 0.6667,-5.77168 3.84841,-10.90453 5.9531,-9.60376 2.40773,1.48806 -1.87497,13.375 -4.81882,13.375 -1.22601,0 -1.47448,-0.82608 -1.13428,-3.77124 z M 1006,367.55902 c 0,-1.05548 -1.9191,-1.49891 -2.4899,-0.57533 -0.3455,0.55897 0.073,1.01631 0.9309,1.01631 0.8574,0 1.559,-0.19844 1.559,-0.44098 z m -78.5,-62.53104 c 4.95,-0.71388 10.125,-1.43927 11.5,-1.61197 6.18135,-0.7764 22.55671,-5.67347 27.28874,-8.16074 2.86619,-1.50654 6.48558,-3.20745 8.04308,-3.77981 2.99501,-1.10062 19.05189,-14.98553 20.10915,-17.38905 0.40505,-0.92082 -1.80411,-3.62768 -6.33733,-7.76506 -3.82753,-3.49331 -7.97418,-8.0322 -9.21479,-10.08641 -1.24061,-2.05422 -3.57941,-5.27721 -5.19735,-7.16221 -1.61793,-1.885 -3.56644,-4.9225 -4.33002,-6.75 -0.76357,-1.8275 -1.71978,-3.32758 -2.1249,-3.33351 -0.65737,-0.01 -5.72087,-9.42435 -9.40619,-17.48922 -2.66409,-5.83003 -9.93424,-18.3413 -11.33201,-19.50135 -1.80571,-1.4986 -6.47112,-0.54258 -12.90272,2.64398 C 926.24571,208.28419 920,208.06224 920,204.15948 c 0,-1.72938 2.00032,-2.78794 26.5488,-14.04958 13.51443,-6.19977 19.95124,-10.66858 31.72478,-22.02521 5.4651,-5.27158 13.93027,-12.17819 18.81149,-15.34803 15.70103,-10.19618 19.46683,-15.49701 18.10153,-25.48022 -0.7551,-5.522 -1.8149,-7.8051 -8.4916,-18.29404 -1.6284,-2.55815 -2.2399,-4.97769 -2.581,-10.2124 -0.063,-0.9625 -0.8205,-1.75 -1.684,-1.75 -2.68984,0 -16.59982,8.9802 -23.93,15.44909 -7.96451,7.02867 -14.75686,11.18429 -28.5,17.43654 -18.68103,8.49868 -26.32905,12.58254 -31.5,16.82026 -7.66805,6.28416 -15.5,13.74811 -15.5,14.7717 0,0.62154 -1.575,2.65663 -3.5,4.52241 -1.925,1.86578 -3.5,3.91465 -3.5,4.55305 0,0.63839 -2.25,4.17069 -5,7.84954 -2.75,3.67886 -5,7.09571 -5,7.59299 0,0.49729 -1.28436,2.83922 -2.85413,5.20429 -4.22369,6.36356 -12.14494,21.29185 -12.15203,22.90156 -0.003,0.76922 -0.60621,2.54838 -1.3396,3.95371 -0.7334,1.40533 -2.0412,4.63228 -2.90623,7.17101 -1.44447,4.2393 -1.43716,4.88703 0.0896,7.9395 0.97831,1.95594 3.45206,4.30504 6.01147,5.70857 3.89856,2.13789 4.29004,2.68016 3.77912,5.23479 -0.31349,1.56742 -1.8803,5.67161 -3.48182,9.12042 -3.13315,6.74714 -3.73358,9.00611 -4.85624,18.27057 -0.88736,7.3227 -0.61498,15.02792 0.6118,17.30691 0.50126,0.9312 3.48092,3.03293 6.62147,4.67052 3.14054,1.63758 7.19862,4.71644 9.01794,6.84192 1.81933,2.12547 4.82498,4.38562 6.67922,5.02257 4.41062,1.51507 24.82189,1.33844 36.27943,-0.31394 z m -20.65852,-18.47656 c -0.88285,-1.93763 -0.89739,-2.89551 -0.0567,-3.73616 1.58336,-1.58336 4.40384,0.88955 4.01352,3.51891 -0.45057,3.03517 -2.61861,3.15421 -3.95678,0.21725 z m 13.62352,-1.6191 c -2.24891,-4.34891 -1.59399,-7.3595 1.68351,-7.73895 2.08914,-0.24187 2.96108,0.31995 4.12851,2.66011 0.814,1.63171 1.25721,4.13219 0.98491,5.55663 -0.73039,3.82083 -4.71902,3.54044 -6.79693,-0.47779 z m 19.57018,0.13342 c -2.06264,-3.85408 -0.82465,-6.68966 2.38321,-5.45868 2.21246,0.849 3.23419,5.36576 1.46696,6.48496 -2.04264,1.29362 -2.70276,1.11766 -3.85017,-1.02628 z m -53.46375,-2.63717 c -3.1005,-3.10049 -0.96182,-10.02395 2.44586,-7.91789 1.28385,0.79347 3.20598,7.31905 2.49479,8.46977 -0.92275,1.49304 -3.14383,1.24494 -4.94065,-0.55188 z M 883.25,265.9358 c -2.48703,-0.96315 -2.76457,-2.1058 -1.21482,-5.00154 1.3718,-2.56322 4.61178,-2.46243 6.03002,0.18757 1.59202,2.97471 -1.523,6.08893 -4.8152,4.81397 z m 2.40057,-18.20205 c -1.46294,-1.06972 -1.58505,-1.77587 -0.70665,-4.08624 1.17615,-3.09351 3.63299,-3.27291 5.44378,-0.39751 0.78454,1.24578 0.79483,2.23707 0.0357,3.44048 -1.45277,2.30312 -2.68237,2.57189 -4.77287,1.04327 z m -3.72465,-23.87216 c -1.44919,-2.70785 -0.77411,-6.27482 1.26095,-6.66254 2.34534,-0.44683 5.49792,4.49178 4.19047,6.56451 -1.44934,2.29769 -4.24727,2.348 -5.45142,0.098 z m -112.99401,71.23404 c 2.6806,-3.76456 2.60689,-4.43178 -0.42556,-3.85209 -3.86499,0.73884 -4.72352,-1.20994 -3.01466,-6.84297 1.84471,-6.08084 1.84761,-6.40057 0.058,-6.40057 -2.77417,0 -3.44408,-3.1272 -1.43585,-6.70269 2.70026,-4.80757 2.50724,-7.13869 -0.5428,-6.55564 -2.13764,0.40864 -2.46746,0.0622 -2.75,-2.88867 L 760.5,258.5 l -6.40736,0.30355 c -4.03141,0.19099 -8.65546,1.24976 -12.46995,2.85526 -4.80682,2.02316 -7.00094,2.41958 -10.59265,1.91382 -2.49152,-0.35084 -5.88004,-0.81559 -7.53004,-1.03277 -5.62299,-0.74013 -20.77919,-4.679 -25.89621,-6.73004 -2.80708,-1.12515 -6.67879,-2.47135 -8.60379,-2.99154 -1.925,-0.52019 -6.425,-2.03281 -10,-3.36138 -3.575,-1.32856 -7.4,-2.58109 -8.5,-2.78338 -1.1,-0.2023 -3.30293,-0.90034 -4.8954,-1.5512 -4.30342,-1.75885 -13.95396,-2.5409 -16.2423,-1.31622 -1.08519,0.58078 -2.84815,2.7745 -3.91769,4.87493 -1.06953,2.10043 -2.43507,4.26897 -3.03451,4.81897 -0.59945,0.55 -1.88688,3.17078 -2.86096,5.82396 -3.26508,8.8934 -6.65524,7.23095 -5.99116,-2.93791 0.30104,-4.60962 1.17841,-7.54696 3.35885,-11.24499 2.39969,-4.06988 2.70298,-5.2117 1.62253,-6.10839 -0.73086,-0.60656 -1.71371,-0.98167 -2.1841,-0.83357 -0.47039,0.1481 -3.43754,-0.78626 -6.59367,-2.07635 -3.15612,-1.29009 -6.35262,-2.10993 -7.10334,-1.82185 -3.21819,1.23494 -5.80414,8.86197 -6.33275,18.67786 -0.62281,11.56523 -0.54471,11.66698 10.27006,13.38032 1.15256,0.18259 2.51989,0.59424 3.03852,0.91477 0.51863,0.32053 4.97563,0.69075 9.90444,0.82272 9.33719,0.25001 12.71302,1.30786 17.84501,5.59192 4.29706,3.58709 9.93,6.20174 14.63424,6.7928 2.30156,0.28918 4.58742,0.7747 5.07968,1.07894 0.49227,0.30424 1.68422,0.72175 2.64879,0.92782 0.96457,0.20606 5.35376,1.32398 9.75376,2.48426 4.4,1.16028 9.125,2.33384 10.5,2.60791 1.375,0.27407 3.4,0.77653 4.5,1.11658 1.1,0.34004 3.125,0.74519 4.5,0.90033 1.375,0.15514 3.85,0.50362 5.5,0.77441 16.36453,2.68564 24.49497,4.06844 33,5.61254 5.5,0.99853 12.10686,1.86061 14.68191,1.91572 4.0824,0.0874 4.94671,-0.27169 6.75,-2.80417 z m 90.46842,-23.55771 c 0.37468,-4.1347 1.3074,-9.2924 2.07272,-11.46155 1.17383,-3.32698 1.17836,-4.12078 0.029,-5.0747 -2.39882,-1.99085 -3.81722,2.80306 -4.24678,14.35323 -0.46093,12.39354 1.07794,13.9596 2.1451,2.18302 z M 482.77081,256.50121 c 6.63652,-1.54111 4.3516,-2.59319 -4.3808,-2.01713 -9.36853,0.61803 -9.96168,0.78192 -8.92146,2.46503 0.6965,1.12696 7.50805,0.89761 13.30226,-0.4479 z M 460.5,256 c 0.33992,-0.55 -0.30852,-1 -1.44098,-1 -1.13246,0 -2.05902,0.45 -2.05902,1 0,0.55 0.64844,1 1.44098,1 0.79254,0 1.7191,-0.45 2.05902,-1 z m 148.10321,-6.78508 c 0.37437,-2.04321 1.7418,-6.13341 3.03873,-9.08935 1.29693,-2.95594 2.35806,-5.92369 2.35806,-6.59501 0,-0.67132 0.85119,-1.9909 1.89152,-2.93239 2.3533,-2.1297 1.84545,-4.47425 -2.40394,-11.09817 -1.76419,-2.75 -5.28653,-8.2625 -7.82742,-12.25 -2.5409,-3.9875 -5.09407,-7.25 -5.67371,-7.25 -0.57965,0 -1.99451,-1.59421 -3.14414,-3.5427 -2.56017,-4.33915 -2.99997,-4.09023 -1.84231,1.0427 0.48922,2.16912 0.74021,4.09312 0.55777,4.27556 -0.77576,0.77576 -4.67372,0.33835 -14.35172,-1.61048 l -10.29394,-2.07286 -6.5761,2.03115 C 557.88396,202.1162 540,213.09099 540,215.05757 c 0,1.47756 1.92336,1.15998 12.94538,-2.13746 7.10501,-2.1256 10.61599,-2.75874 11.33135,-2.04338 0.71535,0.71535 0.03,1.59219 -2.21181,2.82989 -11.82378,6.52783 -14.62592,9.46964 -8.10895,8.51315 3.71302,-0.54496 4.2354,1.85405 0.79403,3.64657 -2.2435,1.16858 -2.24278,1.17077 0.25,0.75868 1.375,-0.22731 3.9625,-0.74218 5.75,-1.14415 4.3556,-0.9795 4.48234,1.6155 0.15862,3.24752 -3.6602,1.38157 -3.03485,3.35512 0.86888,2.74212 10.44412,-1.64004 11.2225,-1.6834 11.2225,-0.62523 0,0.60974 -1.125,1.84574 -2.5,2.74668 -3.44329,2.25613 -3.13002,3.32239 0.75,2.55273 1.7875,-0.35458 6.85,-0.41969 11.25,-0.14469 7.23117,0.45195 8.02937,0.70604 8.30565,2.64388 0.31497,2.20936 7.18267,10.32808 8.79074,10.39208 0.49699,0.0198 2.22741,1.118 3.84539,2.44049 3.54322,2.89612 4.27517,2.57541 5.16143,-2.26153 z m -139.61773,-0.69994 c 1.8578,-1.91676 3.13115,-3.73168 2.82967,-4.03316 -0.30148,-0.30149 -2.39661,-0.25257 -4.65585,0.1087 -3.26771,0.52253 -4.51506,1.34727 -6.09977,4.03316 L 459.06745,252 h 3.27011 c 2.42176,0 4.14639,-0.9041 6.64792,-3.48502 z m -13.43314,-0.56415 c 3.31181,-3.11128 3.09088,-3.7233 -1.22055,-3.38121 -3.73291,0.29619 -8.35559,3.00179 -9.13773,5.3482 -0.74242,2.22725 7.57495,0.64781 10.35828,-1.96699 z M 484,248.42794 C 484,246.25463 482.83268,244 481.70746,244 480.50833,244 476,247.96567 476,249.02047 c 0,0.36951 1.8,0.67184 4,0.67184 2.55757,0 4,-0.45594 4,-1.26437 z M 776.37004,241.25 c 2.84012,-4.44061 3.73979,-13.41597 1.12748,-11.24794 -0.82364,0.68356 -1.49752,1.83701 -1.49752,2.56322 0,0.72622 -0.94445,2.92112 -2.09878,4.87756 -1.15432,1.95644 -1.81349,3.55716 -1.46481,3.55716 0.34868,0 0.15229,0.9 -0.43641,2 -2.02327,3.78052 1.81622,2.24298 4.37004,-1.75 z m -324.43788,-2.08281 c 4.51934,-3.65781 4.95489,-5.14639 1.38287,-4.7263 -1.54827,0.18209 -3.35472,0.38238 -4.01434,0.44509 -1.38827,0.13198 -7.28919,6.18897 -7.29606,7.48902 -0.009,1.66772 6.50358,-0.43658 9.92753,-3.20781 z m 10.12833,1.58281 c 0.79351,-0.6875 2.76371,-2.7125 4.37822,-4.5 l 2.93547,-3.25 h -2.59248 c -2.36438,0 -10.77638,5.87424 -11.61503,8.11098 -0.5097,1.35939 5.25667,1.05745 6.89382,-0.36098 z m 15.92645,-1.74015 c 2.06029,-1.55408 2.22038,-2.05512 1.09132,-3.41555 -0.72773,-0.87686 -2.16095,-1.5943 -3.18493,-1.5943 -2.3212,0 -8.42688,5.32768 -7.61366,6.6435 0.90014,1.45645 6.9634,0.43606 9.70727,-1.63365 z m 103.57193,1.52195 c 1.86259,-1.40879 1.83225,-1.46948 -0.74985,-1.5 -2.71535,-0.0321 -4.29507,1.14882 -3.11517,2.32872 0.95562,0.95562 1.72364,0.79095 3.86502,-0.82872 z M 419.8,239.8 c 2.08344,-2.08344 1.32402,-2.55413 -2.88043,-1.78529 C 410.99568,239.09797 409.51781,241 414.6,241 c 2.2,0 4.54,-0.54 5.2,-1.2 z m 331.46037,-6.8187 c 2.3267,-1.21274 5.59109,-3.39972 7.25421,-4.85996 5.09953,-4.47744 17.77196,-10.13527 25.6587,-11.45578 8.07318,-1.35172 9.78317,-3.00389 9.81198,-9.48018 0.008,-1.82304 0.96124,-5.51482 2.11808,-8.20395 1.90941,-4.43855 2.57785,-5.04373 7.25,-6.56386 2.83066,-0.92099 5.85818,-2.29269 6.72781,-3.04823 0.86963,-0.75554 1.87194,-1.08292 2.22735,-0.72751 0.83605,0.83605 10.90613,-2.30348 16.6915,-5.20387 2.475,-1.2408 7.2,-3.46179 10.5,-4.93554 6.05353,-2.70344 9.75393,-4.94522 25.80999,-15.63624 4.8455,-3.2264 9.47212,-5.86618 10.28139,-5.86618 2.4475,0 2.77792,2.87414 1.01593,8.83696 -0.92037,3.11467 -1.79808,6.2301 -1.95048,6.92316 -0.15239,0.69307 -0.81252,1.79557 -1.46695,2.45 -0.65444,0.65444 -1.18988,2.13955 -1.18988,3.30027 0,1.16071 -1.15863,5.00821 -2.57474,8.55 -3.44927,8.62686 -7.12308,20.00598 -9.02047,27.93961 -1.91984,8.02753 -3.28018,21 -2.20213,21 0.43854,0 0.83484,-0.5625 0.88067,-1.25 0.0458,-0.6875 0.2258,-2.15 0.39992,-3.25 0.49996,-3.15844 7.50477,-22.58316 9.73656,-27 1.11164,-2.2 3.03883,-6.02518 4.28263,-8.50039 1.2438,-2.47521 5.0696,-9.00021 8.50177,-14.5 3.43217,-5.49979 6.31532,-10.44961 6.40701,-10.99961 0.0917,-0.55 1.35821,-3.025 2.81449,-5.5 4.15878,-7.06797 5.98222,-13.58496 5.60983,-20.04963 -0.18331,-3.18228 0.009,-6.12827 0.42741,-6.54666 0.41839,-0.41838 0.47938,-2.26031 0.13553,-4.09317 -0.35375,-1.88567 -0.15478,-3.89925 0.4583,-4.63798 C 900.54331,126.4355 898.89277,119 895.48768,119 c -0.69708,0 -2.19218,-1.96734 -3.32245,-4.37186 -1.13026,-2.40453 -2.75481,-4.64041 -3.61012,-4.96862 C 887.6998,109.33131 887,108.37365 887,107.53138 887,106.68912 886.55,106 886,106 c -0.55,0 -1,-0.87889 -1,-1.95308 0,-1.2971 -1.25952,-2.5069 -3.75,-3.60196 -2.0625,-0.906885 -4.65,-2.077621 -5.75,-2.601639 -2.7961,-1.332005 -8.5,-6.602394 -8.5,-7.853976 0,-1.333624 -4.84958,-3.200345 -6.17927,-2.378551 -1.44553,0.89339 -5.71705,-1.444525 -10.06919,-5.511144 -3.66348,-3.423136 -3.83351,-3.472438 -7.5,-2.174707 -2.06335,0.730307 -7.12654,2.894319 -11.25154,4.808913 -4.125,1.914595 -9.3,4.14852 -11.5,4.964277 -9.44835,3.503436 -15.33806,7.061761 -20.75,12.536307 -3.1625,3.19908 -5.75,6.70505 -5.75,7.79104 0,2.47895 1.48466,2.54089 3.1933,0.13322 2.96397,-4.17658 8.55377,-5.08788 7.31758,-1.19297 -0.55079,1.73537 1.34765,3.32318 4.1724,3.48973 3.98434,0.23493 12.31672,11.33721 12.31672,16.41112 0,3.48764 -4.33011,5.17364 -17.4162,6.78125 -4.39558,0.53999 -11.5838,3.87384 -11.5838,5.37249 0,1.38521 -4.3601,1.21958 -5.8,-0.22032 -2.05769,-2.05769 -1.44689,-5.69993 1.06145,-6.32948 2.10612,-0.52861 2.27398,-1.14809 2.44392,-9.01906 0.20367,-9.43377 -1.09857,-11.04417 -4.00398,-4.95146 -1.46157,3.06494 -2.13718,3.50657 -5.43521,3.55283 -7.53468,0.10568 -24.84946,4.24743 -31.59722,7.55815 -1.55707,0.76396 -3.80707,1.38702 -5,1.38457 -2.03342,-0.004 -16.75463,4.17992 -21.16896,6.01668 -1.1,0.4577 -3.35,1.12725 -5,1.48788 -3.03041,0.66236 -6.5,3.12827 -6.5,4.61969 0,1.68583 4.29437,2.97012 14.72373,4.40334 5.92695,0.81449 12.66968,1.76167 14.98384,2.10485 l 4.20758,0.62397 -0.58842,-3.62598 C 743.84406,145.65161 744.0432,145 745.4349,145 c 3.20466,0 5.75622,2.17783 7.70008,6.57224 1.07077,2.42065 2.91242,4.91795 4.09256,5.54954 3.07805,1.64732 8.4564,2.19864 9.23045,0.94619 0.98731,-1.59749 5.54201,-1.31548 5.54201,0.34314 0,0.7761 -1.38453,2.5761 -3.07673,4 -4.12921,3.47451 -8.38414,3.3292 -16.26158,-0.55535 -8.77019,-4.32477 -11.1613,-3.68555 -12.07855,3.229 -0.37299,2.81173 -1.38028,6.867 -2.23842,9.01171 -0.85814,2.14471 -1.30088,4.57538 -0.98387,5.4015 0.76087,1.98281 8.00272,1.99068 13.603,0.0148 6.61287,-2.33316 10.3375,0.74501 7.5097,6.20631 -2.33305,4.50579 -4.42899,4.59411 -17.47355,0.7363 -9.89386,-2.92602 -12.42754,-3.40749 -18,-3.42051 -8.46558,-0.0198 -12.73954,0.99441 -15.68181,3.72121 -2.62384,2.4317 -2.6434,2.53333 -0.75587,3.92738 1.06573,0.78709 5.98768,3.44903 10.93768,5.91541 10.04462,5.00481 17.49808,10.62604 17.50374,13.20091 0.002,0.93513 0.8561,3.09803 1.89787,4.80646 1.04177,1.70843 1.59312,3.59327 1.22522,4.18855 -0.81924,1.32557 -0.59768,9.78497 0.37191,14.19946 0.68212,3.10571 0.87484,3.21899 4.62154,2.71645 2.15036,-0.28842 5.8134,-1.51665 8.14009,-2.72939 z m 131.39462,-97.81004 c -2.27775,-2.51689 -2.07522,-4.42785 0.75066,-7.08262 1.93032,-1.81345 2.79623,-2.05097 4.38235,-1.2021 1.87241,1.00208 3.212,3.1688 3.212,5.19525 0,1.39955 -3.82401,4.91821 -5.34501,4.91821 -0.73976,0 -2.08976,-0.82293 -3,-1.82874 z M 425.70568,233.06184 C 431.96207,232.11775 438,228.81819 438,226.34333 c 0,-0.70431 -0.5625,-1.09483 -1.25,-0.86782 -2.23418,0.73771 -9.18139,1.64546 -12.00091,1.56808 -2.85434,-0.0783 -13.14982,6.22235 -12.01758,7.35458 0.34401,0.34402 2.00766,0.39477 3.69698,0.1128 1.68933,-0.28198 5.86407,-0.93409 9.27719,-1.44913 z m 24.66202,-5.0535 4.1323,-4.22685 -4,0.69473 c -3.81063,0.66184 -12.40367,6.08338 -12.46908,7.86701 -0.017,0.46378 1.82205,0.6292 4.08678,0.3676 3.18731,-0.36817 5.05139,-1.4307 8.25,-4.70249 z m 13.82714,-1.25435 c 1.67545,-2.11542 2.78797,-4.10451 2.47228,-4.4202 -1.20777,-1.20777 -5.34305,0.7746 -9.66712,4.63422 l -4.5,4.01665 4.32429,-0.19222 c 3.71603,-0.16518 4.75277,-0.73323 7.37055,-4.03845 z M 475,228.06161 c 2.98992,-2.12113 3.69104,-4.58246 1.54041,-5.40773 -2.34353,-0.8993 -5.97874,0.83995 -7.90721,3.78317 -3.1234,4.76691 0.59865,5.71664 6.3668,1.62456 z m -83.25,-0.9873 c 0.6875,-0.0409 1.25,-0.43395 1.25,-0.87351 0,-0.43956 -1.575,-0.61533 -3.5,-0.39059 -1.925,0.22473 -3.5,0.80655 -3.5,1.29292 0,0.48638 1.0125,0.69558 2.25,0.46491 1.2375,-0.23068 2.8125,-0.45286 3.5,-0.49373 z m 20.93953,-0.60549 C 415.78689,226.21857 425,220.50206 425,218.83048 c 0,-1.12766 -5.73995,-1.06026 -6.44198,0.0756 -0.30801,0.49837 -1.39551,0.68763 -2.41668,0.42059 -1.19259,-0.31187 -3.24887,0.79303 -5.74901,3.0891 -2.14078,1.96605 -4.67983,3.57678 -5.64233,3.57941 -0.9625,0.003 -1.75,0.51103 -1.75,1.12978 0,0.75882 1.05786,0.87706 3.25,0.36326 1.7875,-0.41896 4.68529,-0.87771 6.43953,-1.01944 z m 25.71459,-5.50639 c 5.16598,-0.74671 7.52904,-1.62286 9.38637,-3.48019 2.9681,-2.9681 2.32467,-3.07849 -7.67519,-1.31684 -6.18725,1.09 -10.1153,3.02759 -10.1153,4.98959 0,1.03354 -0.0931,1.03567 8.40412,-0.19256 z M 458.40168,218 c 1.63909,0 7.7631,-5.50189 6.98741,-6.27758 -0.33259,-0.33259 -1.3437,-0.19255 -2.2469,0.31121 -0.90321,0.50376 -3.32969,1.57931 -5.39219,2.39012 -2.23275,0.87774 -3.75,2.14503 -3.75,3.13221 0,1.10105 0.53136,1.45412 1.58179,1.05103 C 456.45177,218.27314 457.72072,218 458.40168,218 Z m -44.84828,-3.75 c 3.72751,-2.97418 4.49702,-4.57804 1.6966,-3.53615 -2.50376,0.93152 -7.25,4.51523 -7.25,5.47421 0,1.54191 2.11864,0.80254 5.5534,-1.93806 z m 60.43603,1.26273 c 1.3286,-1.60086 0.7206,-4.51273 -0.94227,-4.51273 -0.55858,0 -2.48521,1.33681 -4.28138,2.97069 l -3.26578,2.97068 3.62756,0.0293 c 2.02274,0.0163 4.17361,-0.62865 4.86187,-1.45796 z m -41.57939,-3.9107 c 1.84019,-0.76888 3.69463,-1.96237 4.12097,-2.6522 1.3264,-2.14617 -7.54955,-0.37573 -9.89998,1.9747 L 424.55556,213 h 2.25434 c 1.23988,0 3.75995,-0.62908 5.60014,-1.39797 z m 15.45546,-0.65002 c 6.55408,-1.06349 11.04789,-3.41849 11.10308,-5.81864 0.0218,-0.94828 -0.65736,-1.16595 -2.21858,-0.71108 -1.2375,0.36055 -3.825,0.90042 -5.75,1.1997 -5.34452,0.83093 -8.97178,2.45676 -10.0734,4.51516 -1.16214,2.17148 -1.31275,2.15379 6.9389,0.81486 z m 23.31888,-4.61887 C 473.74678,204.0142 473.44362,203 470.18806,203 c -1.99528,0 -3.48911,0.91592 -5.14359,3.15372 l -2.33164,3.15371 3.32797,-0.66559 c 1.83038,-0.36608 4.14499,-1.40499 5.14358,-2.3087 z m -49.1297,-0.60243 c 4.00123,-1.08116 9.94532,-4.6617 9.94532,-5.99076 0,-0.787 -12.12368,2.27265 -15.09628,3.80984 -6.35303,3.28528 -3.46364,4.50865 5.15096,2.18092 z m 21.31634,-4.23815 c 3.81389,-2.49896 3.31506,-3.84246 -1.12102,-3.01924 -3.71777,0.68993 -7.25,3.00011 -7.25,4.74171 0,1.35078 5.36566,0.24671 8.37102,-1.72247 z m 16.40132,-0.48155 c 2.43584,-0.008 4.41696,-1.06608 7.75,-4.13837 2.46271,-2.27005 4.47766,-4.57515 4.47766,-5.12244 0,-0.64904 -0.4347,-0.65626 -1.25,-0.0208 -1.13506,0.88472 -6.27405,2.67479 -15.75,5.4862 -6.73912,1.99943 -8.49769,5.45891 -2.25,4.42623 2.0625,-0.34091 5.22255,-0.62479 7.02234,-0.63084 z M 473,198 c 0,-0.55 -0.19844,-1 -0.44098,-1 -0.24254,0 -0.7191,0.45 -1.05902,1 -0.33992,0.55 -0.14148,1 0.44098,1 0.58246,0 1.05902,-0.45 1.05902,-1 z m -39.06105,-2.46861 c 2.99142,-0.6408 5.61642,-1.69751 5.83333,-2.34824 C 439.98919,192.53242 440.77865,192 441.52663,192 442.79136,192 446,188.35414 446,186.91707 c 0,-0.35085 -2.68737,-0.13822 -5.97194,0.47251 -4.48928,0.83473 -7.09614,2.0538 -10.5,4.91019 -4.58141,3.84454 -6.05292,6.57534 -2.77806,5.15546 0.9625,-0.41731 4.19753,-1.28304 7.18895,-1.92384 z m 23.80791,-7.25605 c 2.33577,-2.53822 4.04194,-4.81987 3.79149,-5.07033 C 460.02777,181.69444 447,189.60689 447,192.03491 c 0,0.3634 1.4625,0.70453 3.25,0.75806 2.64429,0.0792 4.04149,-0.76277 7.49686,-4.51763 z m 12.34096,0.27894 c 1.78374,1.1024 3.91218,-1.71402 3.91218,-5.17672 0,-3.95509 -0.7141,-4.14194 -4.61514,-1.20756 -8.50825,6.39991 -10.40166,9.98845 -3.819,7.23804 1.9372,-0.80942 3.97208,-1.19361 4.52196,-0.85376 z M 430,184.48932 c 1.17385,-0.097 6,-3.79545 6,-4.59806 0,-1.58518 -3.91171,-0.32283 -6.48197,2.0918 -2.60232,2.44476 -3.47418,4.74209 -1.26803,3.34127 0.6875,-0.43654 1.475,-0.81229 1.75,-0.83501 z m 16.62788,-2.07629 c 4.49147,-1.84082 13.30855,-7.56392 13.34633,-8.66303 0.0348,-1.01317 -1.71709,-0.94335 -5.40321,0.21532 -1.68905,0.53092 -4.196,1.20728 -5.571,1.50301 -3.07264,0.66086 -9.31203,6.21778 -8.48462,7.55656 0.81427,1.31752 1.59579,1.23929 6.1125,-0.61186 z m 22.84409,-5.81919 c 1.65194,-0.58759 1.73309,-0.85251 0.5,-1.63232 C 467.6247,173.47708 465.15507,173.84493 463,176 c -2.96674,2.96674 -2.43468,4.072 1.25,2.59661 1.7875,-0.71573 4.13739,-1.61698 5.22197,-2.00277 z M 491.5,177 c -0.33992,-0.55 -1.04148,-1 -1.55902,-1 -0.51754,0 -0.94098,0.45 -0.94098,1 0,0.55 0.70156,1 1.55902,1 0.85746,0 1.2809,-0.45 0.94098,-1 z m -54.29705,-3.89586 c 1.26338,-0.49272 4.21599,-1.46688 6.56136,-2.16478 5.92801,-1.76399 7.26596,-3.59715 3.63341,-4.97825 -3.83106,-1.45656 -6.12868,-0.63051 -11.27633,4.05412 -4.30784,3.92037 -3.91646,5.03816 1.08156,3.08891 z m -13.76771,-16.99936 c 0.3043,-0.49236 -0.18355,-1.17796 -1.08411,-1.52353 -1.94685,-0.74708 -2.80894,-0.13102 -1.89225,1.35222 0.80368,1.30037 2.2279,1.38235 2.97636,0.17131 z M 1038.5,122.5919 c 4.9706,-4.04047 6.4554,-5.56709 6.4847,-6.66711 0.01,-0.31636 -2.0097,-3.18301 -4.4847,-6.37032 -2.475,-3.18731 -4.5125,-6.30347 -4.5278,-6.92479 -0.015,-0.62132 -1.3475,-2.873383 -2.9603,-5.004576 -1.6129,-2.131193 -4.1147,-6.968693 -5.5596,-10.75 C 1026.0074,83.093797 1024.4101,80 1023.9029,80 c -1.1629,0 -14.9707,10.171831 -16.8003,12.376369 -1.4171,1.707538 -1.3729,1.80523 5.2569,11.623631 8.0403,11.90712 8.5903,13.0197 9.7031,19.62803 0.6365,3.77958 1.3281,7.45926 1.5371,8.17706 0.4189,1.43935 6.1711,-2.11734 14.9003,-9.21319 z m -224.70967,3.48677 c -0.33403,-1.81629 -8.55072,-6.26305 -10.79033,-5.83959 -1.42469,0.26939 -2.99148,6.01039 -2.26857,8.31242 0.22774,0.72521 2.3501,0.74963 6.83971,0.0787 5.0746,-0.75839 6.44552,-1.32083 6.21919,-2.5515 z M 912,110 c 0,-0.55 -0.19844,-1 -0.44098,-1 -0.24254,0 -0.7191,0.45 -1.05902,1 -0.33992,0.55 -0.14148,1 0.44098,1 0.58246,0 1.05902,-0.45 1.05902,-1 z m 140.55,-8.91204 c 0.5225,-0.50162 3.7625,-2.330501 7.2,-4.064178 6.0412,-3.046856 7.2528,-4.286006 5.3439,-5.465761 -0.4984,-0.308007 -0.6889,-1.39058 -0.4235,-2.405717 C 1065.1305,87.392979 1060.0938,82 1057.9907,82 c -0.4708,0 -1.1431,-0.904935 -1.4942,-2.010967 -0.351,-1.106033 -1.943,-2.68569 -3.5377,-3.510351 -4.3154,-2.231587 -5.2998,-4.726905 -3.5328,-8.955845 2.1254,-5.086668 0.2709,-4.568122 -7.4334,2.07852 -9.7569,8.417541 -9.9785,8.795018 -8.347,14.216135 0.751,2.495521 2.038,5.280414 2.86,6.188651 0.8219,0.908236 1.4944,2.17276 1.4944,2.810053 0,0.637293 1.6941,2.228157 3.7647,3.535253 2.0706,1.307096 4.3757,3.112741 5.1224,4.012541 1.4941,1.8003 4.1836,2.14413 5.6629,0.72397 z M 1081,86.345012 c 0,-1.635348 -0.2376,-1.649491 -3.4122,-0.203077 -2.0852,0.950081 -2.3317,1.468045 -1.4674,3.082965 0.9892,1.848459 1.1304,1.858144 2.9592,0.203077 1.0562,-0.955874 1.9204,-2.343208 1.9204,-3.082965 z m 0.7457,-9.803986 c 4.1168,-4.374733 4.2057,-6.295137 0.2329,-5.034244 -1.86,0.59034 -6.9786,6.990145 -6.9786,8.725353 0,1.968308 2.9273,0.366541 6.7457,-3.691109 z M 1079.5,62 c 0.3399,-0.55 0.1415,-1 -0.441,-1 -0.5824,0 -1.059,0.45 -1.059,1 0,0.55 0.1984,1 0.441,1 0.2425,0 0.7191,-0.45 1.059,-1 z M 34.75,603.35334 c -2.383598,-0.68101 -2.211281,-4.0361 0.275653,-5.36707 1.114108,-0.59625 4.151608,-1.0445 6.75,-0.9961 2.598391,0.0484 8.324347,-0.10502 12.724347,-0.34093 4.4,-0.23591 16.1,-0.77065 26,-1.18831 11.165727,-0.47105 18.278947,-1.17732 18.734687,-1.86015 0.404078,-0.60543 0.741578,-2.53672 0.75,-4.29176 0.0084,-1.75504 0.464443,-3.46856 1.013373,-3.80782 1.61154,-0.99599 6.19358,-11.38211 5.50965,-12.48873 C 106.16355,572.45561 105.02436,572 103.97617,572 c -3.18609,0 -4.180037,-3.27468 -2.32487,-7.65954 1.53651,-3.63167 4.31113,-12.96637 4.33683,-14.59046 0.007,-0.4125 -1.11313,-0.75 -2.48813,-0.75 -3.795724,0 -3.11412,-2.04129 3.56193,-10.6674 8.01019,-10.34994 12.69306,-17.50824 13.46455,-20.58207 0.34587,-1.37808 2.39391,-4.39845 4.55119,-6.71192 2.25813,-2.42163 3.92233,-5.20384 3.92233,-6.55736 0,-1.29308 0.4243,-3.46705 0.94289,-4.83104 0.59411,-1.56263 0.58633,-3.89863 -0.021,-6.3151 -1.98974,-7.91652 -4.38068,-14.88713 -5.62999,-16.41385 -0.71053,-0.86831 -1.29355,-2.21831 -1.29561,-3 -0.002,-0.78169 -0.96283,-2.99458 -2.13506,-4.91752 -1.17223,-1.92294 -2.99612,-6.13056 -4.05309,-9.35027 -1.05698,-3.2197 -3.71775,-9.74639 -5.91282,-14.50374 -4.37621,-9.48447 -4.22469,-9.20359 -9.34221,-17.31807 -2.727386,-4.32462 -3.668933,-7.00017 -3.971805,-11.28651 -0.218338,-3.08999 -0.906204,-6.23174 -1.52859,-6.98167 -1.436805,-1.73124 -3.111101,-11.97746 -2.794429,-17.10111 0.203824,-3.29782 -0.06684,-3.91535 -1.725543,-3.93686 C 88.371668,388.48452 86.971298,384.34143 87.637078,377 87.97212,373.30556 87.53956,364.67307 86.634909,357 85.759505,349.575 84.975,339.675 84.891563,335 84.691585,323.79511 84.258359,323.07377 77.735103,323.08411 74.855796,323.08867 69.125,322.80795 65,322.46028 c -4.125,-0.34766 -10.329148,-0.70633 -13.786996,-0.79704 -4.179958,-0.10965 -6.57854,-0.63666 -7.156906,-1.57247 -2.81149,-4.54909 -4.497137,-38.65257 -2.846563,-57.59077 0.383486,-4.4 0.966117,-11.15 1.294736,-15 0.818308,-9.58703 3.120644,-18.2203 9.733893,-36.5 2.2447,-6.20458 3.82311,-9.2465 7.86096,-15.14968 0.996829,-1.45733 2.082485,-3.70733 2.412569,-5 0.330084,-1.29268 3.837488,-6.66541 7.79423,-11.93942 9.584245,-12.77499 10.752251,-14.13725 13.79908,-16.094 1.432752,-0.92015 4.227027,-4.11668 6.209502,-7.1034 1.982474,-2.98673 4.635223,-6.08924 5.894997,-6.89448 1.259774,-0.80524 6.568418,-2.25734 11.796978,-3.22689 5.22856,-0.96956 10.37707,-2.39942 11.44113,-3.17748 1.91246,-1.39843 1.91239,-1.43149 -0.006,-2.88285 -1.06762,-0.8075 -2.46901,-1.4825 -3.11421,-1.5 -0.64519,-0.0175 -2.44519,-1.2693 -4,-2.7818 C 108.58474,131.60964 98.953569,124.45547 96.75,123.67923 95.7875,123.34018 95,122.40429 95,121.59948 95,120.10889 99.993942,116 101.80559,116 c 0.54827,0 1.93536,-1.59064 3.08241,-3.53475 1.68426,-2.85461 1.86119,-3.89401 0.91949,-5.4019 -0.93118,-1.49105 -0.81219,-2.40724 0.59072,-4.54834 1.67857,-2.561827 1.6771,-2.739454 -0.033,-3.989888 -1.4206,-1.038771 -1.54393,-1.604891 -0.59793,-2.744754 0.84011,-1.012265 0.9133,-2.407236 0.248,-4.726988 -0.70126,-2.445151 -0.566,-4.021567 0.52629,-6.133834 1.35662,-2.623404 1.31872,-2.923935 -0.4909,-3.892415 -1.11801,-0.598338 -4.12976,-0.785367 -7.005868,-0.435063 C 95.089864,81.073773 94,80.903362 94,79.803258 94,76.636794 96.359648,76 108.09301,76 c 9.4713,0 11.80238,-0.285005 12.26862,-1.5 0.31658,-0.825 1.26472,-1.5 2.10699,-1.5 1.83955,0 2.04216,-1.647506 0.28138,-2.288097 -0.99636,-0.362486 -0.99228,-0.835952 0.0201,-2.333333 0.69856,-1.033214 1.92842,-3.308319 2.73301,-5.05579 0.8046,-1.747471 2.37056,-3.465296 3.4799,-3.817388 C 130.28487,59.092199 131,57.993866 131,56.407612 c 0,-1.93068 0.64322,-2.586257 3,-3.057612 2.76641,-0.553282 4.29553,-2.35 2,-2.35 -1.2082,0 -1.33864,-2.672677 -0.16581,-3.397524 0.4588,-0.283556 3.17767,-0.745214 6.04192,-1.025906 2.86425,-0.280692 5.59264,-0.748242 6.0631,-1.039001 1.96503,-1.214451 7.23966,0.802686 8.11426,3.103076 1.13587,2.98755 2.75344,2.963703 9.54024,-0.140645 3.00606,-1.375 5.99299,-2.5 6.63763,-2.5 2.5586,0 19.35562,-4.401818 20.67231,-5.417374 0.772,-0.595444 3.697,-1.136145 6.5,-1.201557 20.88757,-0.487442 29.5794,-0.510047 30.28199,-0.07876 0.4479,0.274947 2.61436,0.782459 4.81436,1.127804 7.82903,1.228964 23.5,10.240223 23.5,13.513179 0,0.518813 0.88804,1.565306 1.97343,2.325541 3.40046,2.381777 5.99917,12.9609 6.01367,24.481163 0.0119,9.475016 0.15965,10.25 1.95388,10.25 2.68794,0 3.07179,-0.950908 3.50595,-8.685337 0.35199,-6.270486 0.64241,-7.008434 3.9518,-10.041265 C 279.50312,68.512012 282.15968,68.159677 285,71 c 2.01299,2.012987 2.12243,2.575841 2.18748,11.25 0.0349,4.658421 1.74089,6.918771 1.88683,2.5 0.24936,-7.550326 2.84613,-12.010291 6.73092,-11.56038 3.65407,0.423192 5.48345,4.604901 5.31301,12.144848 -0.13783,6.097163 -2.64745,12.205308 -5.74265,13.976992 -0.77971,0.446304 -1.14083,1.25938 -0.80248,1.80684 1.09109,1.76541 -0.40847,5.31233 -3.78179,8.94516 C 287.27286,113.85258 278.81426,119 276.10618,119 c -4.38802,0 -11.22708,6.94891 -16.60618,16.8729 -2.968,5.47571 -13.36246,19.13709 -15.05487,19.78653 -1.23813,0.47512 -1.15255,1.0779 0.54239,3.82038 1.31666,2.1304 2.01248,4.99124 2.01248,8.27428 0,4.72408 -0.19923,5.11257 -3.40113,6.63197 -1.87062,0.88767 -5.64052,1.61394 -8.37755,1.61394 -5.30082,0 -7.7021,1.58354 -6.63158,4.37325 0.65471,1.70617 1.67485,1.9352 7.41026,1.6637 3.83924,-0.18174 5.79276,-0.46645 14,-2.04037 8.70783,-1.66993 28.27518,-2.19117 37.06694,-0.98741 12.93765,1.77141 31.91132,7.34294 40.63554,11.93245 6.55168,3.44661 14.41614,12.88873 16.85764,20.23938 1.40908,4.24234 2.02527,4.89954 5.46134,5.82478 2.44517,0.65841 5.02449,2.41646 6.99622,4.76856 2.72125,3.24622 3.06282,4.29693 2.65425,8.16485 -0.28909,2.73684 -1.17892,4.96892 -2.32042,5.82058 -1.01833,0.75977 -1.74726,1.77487 -1.61985,2.25578 0.12741,0.48091 -1.11009,1.82979 -2.75,2.99751 -1.63991,1.16772 -2.98166,2.92274 -2.98166,3.90005 0,2.32087 -2.8544,4.81643 -6,5.24571 -2.3656,0.32284 -2.52955,0.75781 -3.04973,8.09091 -0.88369,12.4579 -3.97166,12.99195 -9.71475,1.68013 -1.79547,-3.53642 -3.27763,-6.65486 -3.2937,-6.92986 -0.0161,-0.275 -0.25395,-1.4 -0.52863,-2.5 -0.45384,-1.81749 -0.97456,-5.57776 -1.31556,-9.5 -0.1547,-1.77947 -15.08245,-17.49341 -20.09763,-21.1561 -1.925,-1.40587 -4.4,-2.83198 -5.5,-3.16913 -5.49759,-1.685 -24.26955,-0.15552 -42.5,3.46278 -2.475,0.49122 -5.175,1.0232 -6,1.18216 -5.82805,1.12297 -9.98637,2.8955 -9.32989,3.97696 0.40174,0.66183 3.62563,5.47833 7.16418,10.70333 3.53855,5.225 6.86204,10.85 7.38553,12.5 2.55732,8.06036 2.87781,8.50906 5.64722,7.90615 1.44813,-0.31526 3.30796,-0.83425 4.13296,-1.15331 0.825,-0.31906 1.725,-0.63492 2,-0.70191 0.275,-0.067 1.40828,-0.62841 2.51841,-1.24761 1.11012,-0.61919 3.81012,-1.45158 6,-1.84976 2.18987,-0.39818 5.75994,-1.61862 7.93349,-2.71209 5.66622,-2.85056 14.63067,-5.80847 15.66543,-5.16896 1.91374,1.18276 0.70995,4.32185 -2.63606,6.87398 -3.70971,2.82953 -3.90543,4.7387 -0.39161,3.81981 1.88721,-0.49351 2.05781,-0.17243 1.77674,3.34388 -0.33906,4.24186 -0.30417,4.25733 6.65524,2.95174 4.02583,-0.75525 5.65803,1.31948 3.61353,4.59324 -0.93566,1.49823 -0.89564,1.99953 0.19298,2.41727 0.75539,0.28987 1.77809,0.41082 2.27265,0.26876 0.49456,-0.14205 4.2742,0.53387 8.3992,1.50204 15.90354,3.7327 23.20664,6.03169 23.76255,7.48038 0.34045,0.8872 -0.53104,2.44067 -2.15085,3.83397 -1.49778,1.28833 -2.58563,2.3745 -2.41746,2.4137 0.49286,0.11491 7.40242,0.90662 21.30576,2.44127 14.18736,1.566 15.17383,1.70387 24,3.35442 3.3,0.61713 7.35,1.32361 9,1.56997 1.65,0.24636 4.8,0.92959 7,1.51829 2.2,0.5887 7.375,1.50739 11.5,2.04153 8.25913,1.06946 18.12218,2.61587 22,3.44934 1.375,0.29553 3.40175,0.71889 4.5039,0.9408 6.38725,1.28604 10.36392,2.82626 10.8993,4.22144 0.64333,1.67649 5.6731,1.49937 18.5968,-0.65485 3.025,-0.50423 7.075,-1.01056 9,-1.12518 1.925,-0.11462 4.67111,-1.13538 6.10246,-2.26836 1.43136,-1.13297 5.93136,-4.7586 10,-8.05694 4.06865,-3.29834 7.62254,-6.00031 7.89754,-6.00437 1.10053,-0.0163 10.81037,-6.41839 13.46304,-8.87681 3.01998,-2.79882 5.4874,-3.2539 8.6027,-1.58665 2.56768,1.37418 2.43936,3.42544 -0.45549,7.28154 -1.31436,1.7508 -3.8035,6.01094 -5.53141,9.46698 -1.72791,3.45603 -4.97353,9.27663 -7.21249,12.93465 -4.4016,7.19138 -11.8608,21.33568 -11.86423,22.49724 -10e-4,0.39357 -2.52447,4.58521 -5.60734,9.31475 -6.87047,10.54023 -8.17633,11.18631 -18.39478,9.10084 -14.35731,-2.93017 -33.11975,-3.94983 -35.10009,-1.90754 -0.41405,0.427 -1.01755,2.80136 -1.34112,5.27636 -1.26188,9.65227 -2.61503,12.83563 -6.40707,15.07299 -1.98174,1.16926 -6.35397,2.70146 -9.71604,3.4049 -3.36208,0.70344 -7.04194,1.7762 -8.17746,2.38391 -5.93681,3.17729 -32.86501,5.31721 -45.5702,3.62136 -5.01401,-0.66925 -6.45564,-0.45909 -10.5,1.5307 -2.57841,1.26855 -6.32657,3.69689 -8.32925,5.3963 -7.45791,6.32856 -9.04084,7.58984 -9.52542,7.58984 -0.6958,0 -8.98678,6.72421 -14.14308,11.47042 -2.37242,2.18374 -5.39022,4.67676 -6.70623,5.54005 -1.31601,0.86329 -4.62078,3.8016 -7.34392,6.52958 -2.72314,2.72797 -7.55184,6.75995 -10.73043,8.95995 -3.17859,2.2 -7.85962,5.82235 -10.40228,8.04966 -2.54266,2.22731 -6.39701,5.1126 -8.56521,6.41176 -2.16821,1.29916 -4.8422,3.14421 -5.9422,4.10011 -1.1,0.9559 -5.29429,3.40491 -9.32064,5.44224 -4.02636,2.03734 -9.6411,5.23244 -12.4772,7.10024 -2.8361,1.86779 -5.56959,3.39599 -6.07442,3.39599 -0.50483,0 -4.1151,1.51839 -8.02281,3.37419 C 236.69722,459.23 230.35,461.7649 226.5,463.0073 c -9.6341,3.10895 -9.81585,3.30916 -8.99173,9.90522 0.37915,3.03455 0.94703,6.43314 1.26196,7.55242 0.31493,1.11928 0.75533,6.08506 0.97866,11.03506 0.4289,9.50637 -0.34699,13.42187 -4.37925,22.09967 -1.3033,2.80482 -2.36964,5.52534 -2.36964,6.0456 0,0.52026 -2.04659,4.92326 -4.54797,9.78444 -5.67605,11.03081 -12.78618,19.29209 -21.60311,25.1007 -8.51601,5.61038 -10.16616,8.08795 -10.67138,16.02227 -0.36401,5.71678 -0.19185,6.39184 1.9957,7.82518 1.31674,0.86276 3.27893,1.71811 4.36042,1.90077 3.72679,0.62945 7.97892,3.53199 12.53193,8.55441 5.22462,5.76326 8.51769,6.96068 14.63971,5.32329 2.37787,-0.63598 5.89194,-1.15633 7.80905,-1.15633 7.29223,0 2.76026,5.632 -7.61125,9.45869 -4.2031,1.55079 -4.91571,1.56288 -8.3184,0.14115 -3.1786,-1.32811 -7.83264,-1.47719 -31.9031,-1.02195 -15.49988,0.29315 -31.5566,0.75392 -35.6816,1.02393 -18.61521,1.21852 -35.479071,1.05268 -37.854329,-0.37226 C 93.824428,600.83702 78.38188,600.38295 70.722657,601.48202 68.950196,601.73636 62.325,602.14977 56,602.4007 c -6.325,0.25093 -13.3,0.68043 -15.5,0.95444 -2.2,0.27401 -4.7875,0.2732 -5.75,-0.002 z m 90.84378,-8.88812 c 2.25158,-0.35502 5.62658,-0.22604 7.5,0.28663 4.2328,1.15831 5.90622,0.63835 5.90622,-1.83518 0,-1.05417 0.5625,-1.96858 1.25,-2.03202 0.6875,-0.0634 1.925,-0.18372 2.75,-0.26729 0.825,-0.0836 3.91944,0.72758 6.87653,1.80255 5.26311,1.91327 5.40562,1.91471 6.75564,0.0684 1.19888,-1.63957 1.80312,-1.73599 4.62347,-0.7378 C 165.29725,593.18098 191,595.24831 191,594.14296 191,593.07935 186.60251,589 185.45596,589 c -2.54543,0 -14.06544,-4.16714 -18.1703,-6.57274 -2.37252,-1.39039 -4.77716,-2.24153 -5.34364,-1.89143 -0.56649,0.35011 -2.02501,-0.0154 -3.24117,-0.81227 -1.6062,-1.05242 -2.89381,-1.18876 -4.70603,-0.49829 -5.42229,2.06593 -18.68975,-0.75101 -25.14919,-5.33966 -3.23008,-2.29458 -5.48865,-2.36778 -9.94199,-0.3222 -5.9663,2.74054 -6.3494,3.07263 -6.95852,6.03203 -0.3288,1.59751 -1.21648,4.02956 -1.97261,5.40456 -1.38155,2.51231 -2.13121,8.78149 -1.2353,10.33051 0.47458,0.82055 8.91149,0.38746 16.85657,-0.86529 z m 42.60935,-24.97051 c 1.40379,-7.09432 5.06297,-17.94312 6.70186,-19.86978 0.87726,-1.03128 4.87942,-4.09728 8.8937,-6.81332 10.80066,-7.30769 18.17795,-17.93064 23.48106,-33.81161 2.58143,-7.73052 3.01722,-11.93129 3.12427,-30.11648 0.0774,-13.15397 -0.29038,-13.73503 -8.11617,-12.8219 -13.18474,1.53843 -41.65299,-0.91529 -45.76094,-3.9442 -0.5648,-0.41644 -3.05191,-1.34344 -5.52691,-2.05999 -12.32244,-3.56754 -15.11346,-4.62986 -22.81052,-8.68216 -7.69896,-4.05331 -11.88895,-5.43675 -10.97969,-3.62527 3.64568,7.2632 11.27766,23.69022 14.05412,30.25 9.49942,22.44368 8.25121,28.769 -10.41533,52.77993 -5.8367,7.5078 -6.84139,9.39284 -6.8777,12.90433 -0.016,1.54866 -0.93932,5.96574 -2.05179,9.81574 -4.93757,17.08781 -5.67742,16.22917 11.18446,12.98019 2.97053,-0.57237 4.72719,-0.10106 10,2.68297 5.85595,3.09192 7.07246,3.36314 14.39645,3.20963 4.4,-0.0922 9.27559,-0.49717 10.83464,-0.89989 2.04746,-0.52887 3.29465,-0.27218 4.49116,0.92433 2.55642,2.55642 4.50529,1.50448 5.37733,-2.90252 z m 27.36994,-113.40082 c 9.32467,-1.58392 17.43356,-3.55907 29.92693,-7.28955 8.06784,-2.40903 24.52525,-8.61631 26,-9.80649 0.55,-0.44387 3.7,-2.26304 7,-4.0426 3.3,-1.77956 6.675,-3.79427 7.5,-4.47713 0.825,-0.68286 2.50908,-1.54902 3.7424,-1.92482 1.23333,-0.37579 4.38333,-2.36802 7,-4.42718 2.61668,-2.05915 5.4326,-4.0622 6.2576,-4.45122 0.825,-0.38902 3.39356,-1.93751 5.70791,-3.4411 12.44506,-8.08531 16.99937,-11.21537 23.25676,-15.9838 3.78913,-2.8875 7.21302,-5.25 7.60863,-5.25 0.39561,0 2.82188,-1.9125 5.39172,-4.25 13.75553,-12.51192 23.80509,-19.88439 31.11668,-22.82756 4.87862,-1.96382 7.55978,-2.21088 26.9183,-2.48048 11.825,-0.16469 23.3,-0.75623 25.5,-1.31454 2.2,-0.55831 7.52956,-1.89244 11.84346,-2.96473 4.3139,-1.07228 8.31707,-2.42322 8.89593,-3.00208 0.57886,-0.57886 1.20924,-3.66431 1.40084,-6.85654 0.31753,-5.2903 1.48665,-16.08974 1.8733,-17.30407 0.0876,-0.275 0.46004,-1.175 0.82773,-2 0.36769,-0.825 1.54959,-4.425 2.62644,-8 1.07685,-3.575 2.90005,-9.14676 4.05156,-12.38169 1.1515,-3.23493 1.87895,-6.44119 1.61654,-7.12501 -0.27584,-0.71882 -3.35805,-1.53595 -7.30645,-1.93701 -3.75614,-0.38154 -8.40435,-1.09882 -10.32935,-1.59396 -1.925,-0.49514 -5.75,-1.16102 -8.5,-1.47972 -2.75,-0.31871 -6.575,-0.97427 -8.5,-1.4568 -1.925,-0.48252 -7.775,-1.39153 -13,-2.02002 -5.225,-0.62848 -14.675,-1.95493 -21,-2.94767 -17.50589,-2.74762 -25.9079,-3.14528 -38.14274,-1.80523 -7.38396,0.80875 -9.85726,1.52487 -9.85726,2.8541 0,0.49115 -0.5625,0.91003 -1.25,0.93084 -2.02302,0.0612 -13.14502,7.0616 -19.79952,12.46217 -3.3885,2.75 -13.27711,11.37137 -21.97468,19.1586 -8.69757,7.78724 -18.33402,16.02043 -21.41432,18.29599 -6.7032,4.95194 -21.86753,14.48231 -26.06148,16.37892 -1.65,0.74618 -3.6176,2.10139 -4.37244,3.01159 -0.75485,0.91019 -2.15264,1.6549 -3.1062,1.6549 -0.95357,0 -3.79647,1.575 -6.31757,3.5 -8.40255,6.41583 -10.32041,3.47965 -3.73452,-5.71743 4.87591,-6.80914 14.98214,-26.70858 15.49102,-30.50223 0.20512,-1.52919 0.89935,-5.70534 1.54273,-9.28034 1.41618,-7.86907 2.17539,-20.79972 1.372,-23.36733 -0.51986,-1.66147 -1.26068,-1.7908 -6.71975,-1.17318 -3.37451,0.38178 -6.63133,1.10568 -7.23738,1.60865 -0.60605,0.50298 -1.33388,0.68254 -1.6174,0.39902 -0.79429,-0.79429 -2.244,1.51246 -4.7341,7.53284 -1.25118,3.025 -3.61746,7.70846 -5.25842,10.40769 -1.64095,2.69924 -3.15012,5.77268 -3.35372,6.82989 -0.80961,4.20396 -1.96908,6.4876 -10.08406,19.86121 -4.63608,7.64035 -8.70676,14.68121 -9.04593,15.64637 -1.75888,5.00506 -8.4099,12.06449 -13.98513,14.84388 -5.59677,2.79014 -6.2957,2.89404 -16.83913,2.50325 -23.43822,-0.86871 -32.79202,-0.27685 -46,2.91065 -9.86804,2.38147 -12.723,4.13988 -11.994235,7.38741 0.26038,1.16031 0.673205,3.34661 0.917389,4.85846 0.919586,5.69353 3.900116,17.52254 6.291736,24.97039 5.45722,16.99459 22.8863,29.23733 48.11245,33.79571 2.93004,0.52946 5.79934,1.25437 6.37623,1.6109 1.07404,0.6638 27.83419,3.19599 28.8695,2.73179 0.31519,-0.14131 3.24019,-0.70998 6.5,-1.26371 z M 314,384.08216 c 0,-0.50481 1.16584,-3.23897 2.59075,-6.07591 1.42492,-2.83694 2.34931,-5.39953 2.0542,-5.69463 -0.2951,-0.29511 -2.66611,0.18905 -5.26889,1.07591 -2.60279,0.88686 -5.51217,1.61247 -6.46531,1.61247 -2.8809,0 -6.42695,-5.30933 -8.39023,-12.56227 -1.93162,-7.13596 -1.9627,-6.47457 1.07791,-22.93773 l 0.55408,-3 -2.05402,2.5 c -1.12971,1.375 -2.06402,2.8232 -2.07625,3.21823 -0.0122,0.39502 -1.82224,4.40165 -4.02224,8.90362 -2.2,4.50198 -4,8.60304 -4,9.11348 0,1.92691 -7.32068,9.76467 -9.12046,9.76467 -2.38803,0 -2.37573,-1.09948 0.0467,-4.17916 C 281.14797,362.99643 287,350.56781 287,348.67379 c 0,-2.7344 8.11271,-13.46517 14.49582,-19.17379 3.68991,-3.3 8.12536,-7.26715 9.85656,-8.8159 1.73119,-1.54874 5.51012,-4.3853 8.39762,-6.30345 6.55211,-4.35255 6.77778,-5.83684 0.75,-4.93292 -3.41036,0.51141 -4.5,0.3537 -4.5,-0.65132 0,-1.47479 11.92681,-7.95968 13.19626,-7.17512 0.44206,0.27321 0.80374,1.52019 0.80374,2.77106 0,4.19816 -0.11181,4.21923 15.5,-2.92078 2.75,-1.2577 7.34696,-3.10342 10.21547,-4.1016 l 5.21547,-1.81488 6.78453,3.44722 c 7.63506,3.87937 8.88216,5.12377 9.75664,9.73554 0.56854,2.99833 3.97357,6.1498 5.25744,4.86593 0.30705,-0.30704 2.05025,0.75172 3.8738,2.35281 1.82354,1.6011 4.92434,3.67451 6.89067,4.60759 3.47661,1.64977 6.25409,5.02104 5.09313,6.182 -0.31619,0.31619 -1.36515,-0.12105 -2.33102,-0.97164 -2.968,-2.61377 -12.37752,-6.94193 -13.85736,-6.37407 -2.37511,0.91142 -1.55585,4.03659 2.0041,7.6449 2.60517,2.64057 3.18823,3.85014 2.48728,5.15988 -0.68541,1.2807 -0.4096,1.98157 1.09714,2.78795 1.10699,0.59244 2.01271,1.73633 2.01271,2.54198 0,2.00587 -3.22443,1.8416 -6.11514,-0.31154 -1.31167,-0.97699 -3.56282,-2.37117 -5.00254,-3.09816 -1.48156,-0.74812 -4.59963,-4.6537 -7.18419,-8.99864 -4.23034,-7.11168 -4.90368,-7.76701 -9.14667,-8.90183 C 356.07507,314.49284 355,314.64714 355,317.30887 c 0,1.26988 -0.66069,3.18238 -1.4682,4.25 -2.13934,2.82846 -1.86178,4.33366 1.0432,5.65725 3.11721,1.4203 5.425,5.58235 5.425,9.78388 0,3.94903 2.21529,8.23758 5.65134,10.94038 2.1015,1.65304 2.42686,2.38142 1.48463,3.32365 -2.87604,2.87604 -10.30493,-5.70881 -11.67635,-13.49321 -0.69628,-3.95226 -2.69265,-8.27082 -3.82338,-8.27082 -0.96847,0 -3.79395,7.09787 -5.46114,13.7189 -0.63212,2.51037 -2.68913,7.77738 -4.57114,11.70448 -2.86996,5.9886 -4.28785,7.71048 -8.79144,10.67633 -3.96015,2.60797 -6.12477,4.97851 -8.24653,9.03101 C 320.67587,382.06075 318.2272,385 315.92742,385 314.86734,385 314,384.58697 314,384.08216 Z m 5,-16.3886 c 1.925,-0.65646 3.5,-1.86856 3.5,-2.69356 0,-1.18865 -1.71242,-1.56029 -8.25,-1.79044 -7.45013,-0.26229 -8.25,-0.11201 -8.25,1.55 0,4.18593 5.61362,5.45288 13,2.934 z m 5.01576,-9.2033 c 3.68922,-2.28006 -6.53785,-4.1744 -17.51576,-3.2444 -3.58941,0.30407 -4.08384,2.90659 -0.70465,3.70906 3.18308,0.75589 16.80771,0.40844 18.22041,-0.46466 z m 9.97588,-2.46393 c 1.11215,-0.70313 1.20307,-1.23162 0.35736,-2.07733 -1.3625,-1.3625 -5.77055,0.5599 -4.81799,2.10117 0.74219,1.2009 2.53862,1.1913 4.46063,-0.0238 z M 322,350.01905 c 0,-1.73694 -12.31343,-3.38927 -15.5,-2.07994 -1.71232,0.70357 -1.49656,0.90948 1.5,1.43146 3.09569,0.53926 6.35783,0.93055 12.25,1.46939 0.9625,0.088 1.75,-0.28139 1.75,-0.82091 z m 9.7823,-1.86455 c 0.28658,-0.86063 -0.19425,-1.221 -1.33427,-1 -0.98026,0.19002 -1.98391,0.95098 -2.23033,1.691 -0.28658,0.86063 0.19425,1.221 1.33427,1 0.98026,-0.19002 1.98391,-0.95098 2.23033,-1.691 z M 323,342.08156 c 0,-1.08776 -1.41463,-2.79273 -3.26706,-3.93759 -1.79688,-1.11054 -4.35032,-3.17224 -5.67431,-4.58156 -3.31203,-3.52549 -4.51601,-3.23671 -6.94112,1.66488 -1.65679,3.34867 -1.8344,4.47658 -0.8545,5.42669 1.71324,1.66117 7.41652,3.14823 12.48699,3.25583 3.55445,0.0754 4.25,-0.22378 4.25,-1.82825 z m 18.64001,-6.3081 c 0.38005,-0.61493 -0.28603,-0.71616 -1.76478,-0.2682 -3.42802,1.03845 -4.49161,2.33523 -1.43627,1.75116 1.42483,-0.27237 2.8653,-0.9397 3.20105,-1.48296 z m -14.81669,-1.10633 C 327.02182,333.64366 326.49735,333 325.4649,333 c -0.92497,0 -3.59892,-2.08805 -5.94211,-4.64011 -2.57311,-2.80247 -4.72568,-4.35253 -5.4353,-3.91396 -1.64957,1.01949 1.37984,5.56068 6.33326,9.49377 4.13254,3.2813 5.86901,3.47859 6.40257,0.72743 z m 11.43948,-3.94796 c 3.27786,-0.40753 1.86015,-2.09358 -2.7432,-3.26242 -5.14809,-1.30715 -9.05432,-4.46681 -9.95404,-8.05158 -0.69427,-2.76618 -1.79064,-3.04381 -3.56711,-0.9033 -2.92298,3.52198 6.78321,13.98575 12.00155,12.93828 1.375,-0.276 3.29326,-0.60044 4.2628,-0.72098 z M 375.94576,320.25 c -0.93994,-8.60756 -3.76414,-14.64066 -6.38309,-13.63567 -1.00095,0.3841 -0.87215,1.31719 0.57311,4.152 1.02532,2.0111 1.86422,4.40645 1.86422,5.32299 0,2.53171 3.31584,9.91068 4.45349,9.91068 0.0661,0 -0.16239,-2.5875 -0.50773,-5.75 z M 342.8,322.8 c 1.7777,-1.7777 1.46161,-2.8 -0.86574,-2.8 -3.32859,0 -5.64631,-1.73522 -6.82184,-5.10734 -0.9253,-2.65434 -1.33493,-2.95288 -2.60518,-1.89867 -2.15712,1.79026 -1.93546,2.52626 2.10912,7.00313 3.70868,4.10507 6.07202,4.9145 8.18364,2.80288 z m 6.01686,-9.87836 c 1.00209,-1.60459 1.02901,-2.40243 0.11811,-3.5 -1.64514,-1.98226 -3.67692,-1.77232 -4.8962,0.50592 -2.29447,4.28725 2.20838,7.10885 4.77809,2.99408 z M 360,302.5 c 0,-0.825 -0.675,-1.5 -1.5,-1.5 -1.56157,0 -1.98397,1.1827 -0.83333,2.33333 C 358.8173,304.48397 360,304.06157 360,302.5 Z M 99.348871,379.58624 c 1.733119,-0.77756 4.726129,-1.89843 6.651129,-2.49081 4.95739,-1.52555 22.81546,-4.10348 24.34913,-3.51495 0.70479,0.27045 2.34046,0.1 3.63481,-0.37884 1.4342,-0.53054 5.33291,-0.39349 9.98192,0.3509 4.1957,0.6718 11.62835,1.04726 16.51701,0.83434 7.51372,-0.32724 9.26366,-0.7351 11.3142,-2.637 C 174.70318,369.05443 182,358.54501 182,357.05487 182,356.47469 182.40297,356 182.8955,356 c 0.49252,0 1.77371,-1.6875 2.84709,-3.75 2.04146,-3.92268 5.39058,-9.98178 9.25843,-16.75 4.25361,-7.44324 11.74172,-22.32328 12.8868,-25.60803 0.68615,-1.96831 0.77592,-3.62823 0.22596,-4.17819 -1.19159,-1.19159 -17.23053,2.51913 -34.11378,7.89246 -18.41791,5.86175 -27.62814,7.21944 -54.5,8.03391 -8.25,0.25006 -16.30465,0.88332 -17.89922,1.40725 -1.59458,0.52393 -4.126976,0.9526 -5.627559,0.9526 -1.500582,0 -3.250652,0.62936 -3.889043,1.39857 -1.681311,2.02586 -1.50201,16.47429 0.343792,27.70343 2.149447,13.07641 2.560875,19.01359 1.609801,23.23053 -1.148947,5.09428 -0.15228,5.70486 5.3111,3.25371 z m 83.982789,-41.16432 c -0.61565,-1.60436 2.65894,-6.92192 4.26257,-6.92192 1.4779,0 1.67627,3.62605 0.33543,6.13144 -1.45323,2.71538 -3.71043,3.10343 -4.598,0.79048 z M 196,318.60699 c 0,-1.40501 2.87577,-3.06455 3.76667,-2.17366 0.26422,0.26423 0.21394,1.17482 -0.11175,2.02354 C 198.91714,320.37952 196,320.49933 196,318.60699 Z M 233,356 c 1.375,-1.07554 2.87427,-1.96553 3.3317,-1.97776 1.95603,-0.0523 9.84506,-7.59694 12.41542,-11.87344 6.70348,-11.15311 12.00922,-28.05092 12.44931,-39.6488 0.30281,-7.97998 0.29731,-7.99964 -2.19643,-7.85673 -7.81916,0.44809 -13.7183,1.81689 -15.73942,3.65207 -1.96675,1.78582 -2.16387,2.67618 -1.61896,7.31252 1.22825,10.45044 -4.27511,35.33533 -9.8419,44.50274 -2.70252,4.45052 -3.6047,7.91327 -2.04972,7.86716 0.4125,-0.0122 1.875,-0.90222 3.25,-1.97776 z m 7.55577,-14.90976 C 239.72053,339.7388 241.02238,337 242.5,337 c 1.48816,0 2.40191,1.93661 1.76936,3.75 -0.50623,1.45125 -2.89186,1.66983 -3.71359,0.34024 z m 4.61126,-12.38898 c -0.85646,-1.03198 -0.77567,-1.83365 0.33091,-3.2833 1.26976,-1.66343 1.59912,-1.7189 2.4818,-0.41796 2.09569,3.0887 -0.49346,6.49578 -2.81271,3.70126 z m 4.00176,-11.8623 C 249.35096,315.55253 250.175,314.5 251,314.5 c 2.16873,0 1.86998,3.90136 -0.33121,4.32527 -1.42006,0.27348 -1.75684,-0.17249 -1.5,-1.98631 z m -1.56505,-10.4292 C 246.78462,304.27517 247.70284,303 250.05902,303 c 1.40371,0 1.94098,0.692 1.94098,2.5 0,2.88131 -3.37194,3.57909 -4.39626,0.90976 z m 240.78954,23.01069 c 3.2413,-5.45625 7.4506,-12.80037 9.35401,-16.32026 3.88869,-7.19122 5.48965,-9.87132 9.62464,-16.1122 3.49595,-5.27636 7.634,-13.3154 7.11909,-13.83031 -0.64796,-0.64795 -6.48871,3.81459 -16.71022,12.76717 -4.32265,3.78603 -7.03893,8.23891 -6.26154,10.26475 0.77392,2.01679 -8.63012,29.25459 -10.87562,31.50009 -1.10912,1.10913 -0.70167,2.49614 0.60636,2.0641 0.6875,-0.22708 3.90197,-4.87708 7.14328,-10.33334 z M 478.53565,330 c 4.3922,-8.92416 6.67896,-16.73978 6.29065,-21.5 -0.36116,-4.42739 0.23807,-4.27442 -9.8263,-2.50833 -3.025,0.53082 -9.515,1.19413 -14.42222,1.47401 -4.90723,0.27988 -9.68516,0.75101 -10.61764,1.04697 -1.60159,0.50832 -5.96014,11.52 -5.96014,15.05801 0,0.84076 -0.67182,2.82781 -1.49292,4.41565 -2.48805,4.81136 -1.45798,5.48834 8.75499,5.75388 5.08086,0.1321 11.48793,0.87324 14.23793,1.64697 8.42761,2.37115 9.41885,1.96151 13.03565,-5.38716 z m -210.48952,1.4645 c 3.24182,-2.49452 6.24514,-5.08468 6.67405,-5.75591 0.4289,-0.67123 2.57982,-2.54677 4.77982,-4.16787 2.2,-1.62111 6.7,-5.47248 10,-8.55861 3.3,-3.08613 8.25,-7.20605 11,-9.15537 C 311.04167,296.35435 315.99831,293 316.4984,293 c 0.28541,0 2.33167,-1.31315 4.54726,-2.91812 2.91811,-2.11386 3.67364,-3.14738 2.74134,-3.75 -0.70785,-0.45753 -6.88282,-0.92821 -13.72215,-1.04594 -6.83933,-0.11773 -13.06614,-0.45619 -13.83735,-0.75213 -0.79875,-0.30651 -3.77467,1.57647 -6.91497,4.37538 -5.19409,4.62942 -5.99386,4.98502 -13.83511,6.15161 -9.59658,1.42773 -9.44213,1.22125 -9.46377,12.65169 -0.009,4.98054 -0.69397,9.00346 -2.21209,13 -1.20914,3.18313 -2.28518,6.23751 -2.39119,6.78751 -0.10602,0.55 -0.5168,2.6875 -0.91286,4.75 -0.95481,4.97234 0.2255,4.84952 7.54862,-0.7855 z M 99.55,319.08798 c 0.5225,-0.50162 7.7,-1.2061 15.95,-1.56553 17.47128,-0.76116 39.05078,-3.02096 42.92918,-4.49552 C 159.91474,312.46212 162.8109,312 164.8651,312 c 2.05419,0 4.1624,-0.40933 4.6849,-0.90962 1.37349,-1.31512 25.70535,-8.37958 41.11803,-11.93812 3.94241,-0.91024 7.40871,-1.89567 7.70289,-2.18984 0.52503,-0.52504 0.97593,-3.25567 2.26072,-13.69097 0.54554,-4.43095 0.37546,-5.3315 -1.11494,-5.90342 -0.96727,-0.37117 -7.44173,0.75624 -14.38769,2.50536 -19.83458,4.99471 -25.4107,5.81365 -44.62901,6.55446 -7.7,0.29681 -18.725,1.23952 -24.5,2.09491 -5.775,0.8554 -11.175,1.6074 -12,1.67111 -0.825,0.0637 -6.20605,0.89614 -11.95789,1.84983 -14.339711,2.37761 -14.311217,2.39674 -11.03131,-7.40713 3.1023,-9.27299 1.16764,-10.23651 -3.791854,-1.88845 -4.378616,7.3703 -5.833038,8.92549 -8.218946,8.78839 -2.652187,-0.15241 -1.365016,-4.87234 3.162013,-11.59478 4.348577,-6.45746 8.434667,-14.80027 13.195367,-26.94173 2.69899,-6.8834 3.87972,-16.77113 4.04943,-33.9111 0.0964,-9.73838 1.16858,-12.11933 3.49767,-7.76738 3.05526,5.70881 2.55107,31.34643 -0.76065,38.67848 -0.62105,1.375 -1.60509,5.2 -2.18674,8.5 -0.58165,3.3 -1.48494,8.1375 -2.00732,10.75 -1.70234,8.51375 -2.80231,15.20509 -2.87677,17.5 -0.0637,1.9645 0.4263,2.25 3.8619,2.25 2.1642,0 5.01131,-0.40925 6.32692,-0.90944 6.32126,-2.40334 31.34379,-5.61086 51.73818,-6.63208 10.86874,-0.54423 27.8303,-3.52508 33.47235,-5.88248 3.53787,-1.47822 11.31444,-3.07833 13.24587,-2.72548 0.67002,0.12241 2.92002,-0.61218 5,-1.6324 2.07998,-1.02023 6.48178,-2.6714 9.78178,-3.66927 3.3,-0.99787 7.575,-2.40351 9.5,-3.12365 1.925,-0.72013 4.625,-1.59689 6,-1.94836 6.91183,-1.76676 11,-3.83079 11,-5.55368 0,-0.99282 -0.41717,-2.06295 -0.92704,-2.37807 -0.50988,-0.31512 -1.46134,-2.25418 -2.11436,-4.30902 -1.57142,-4.94472 -6.42094,-12.78231 -10.97421,-17.73607 -4.35475,-4.73778 -7.07408,-9.25406 -9.50092,-15.77921 -2.041,-5.48771 -12.94931,-17.29764 -16.89079,-18.28688 -4.10354,-1.02993 -4.97908,0.45443 -2.00823,3.40465 3.31359,3.29057 6.25187,7.87563 10.9317,17.05848 3.24686,6.37105 3.66107,8.08635 4.06847,16.84808 0.24947,5.36518 0.665,11.69378 0.92339,14.06354 0.58322,5.34875 -1.64238,11.19134 -4.26309,11.19134 -1.71428,0 -1.78409,-0.48872 -0.90753,-6.35405 1.57709,-10.55279 -2.28584,-27.80062 -8.87921,-39.64536 -3.07965,-5.53248 -11.05645,-16.02531 -12.55556,-16.51582 -0.87855,-0.28746 -2.90355,-2.16081 -4.5,-4.16298 -5.10656,-6.40438 -11.39582,-12.10925 -15.70941,-14.2497 -3.79591,-1.88358 -4.30449,-1.92986 -5.3677,-0.48854 -2.20142,2.98432 -4.72171,1.20519 -6.78924,-4.79268 -1.08005,-3.13321 -1.61758,-6.04289 -1.19451,-6.46597 0.66585,-0.66584 4.72273,0.50281 10.90824,3.14231 1.23205,0.52575 1.75,0.2913 1.75,-0.79213 0,-2.25645 -5.24323,-5.61341 -12.83356,-8.21663 -3.66654,-1.2575 -8.24144,-2.95521 -10.16644,-3.77269 -6.77955,-2.87905 -20.41314,-4.64842 -39.09533,-5.07381 l -18.59533,-0.42342 -4.687738,4.55654 c -2.578253,2.50609 -4.526976,5.03881 -4.330495,5.62825 0.196481,0.58945 2.931088,1.6999 6.076904,2.46769 8.029109,1.95962 6.742429,3.74904 -4.368011,6.07474 l -3.5,0.73264 4,1.10225 c 2.2,0.60623 9.03669,2.02867 15.19264,3.16096 10.8752,2.00033 13.30475,2.70024 23.80736,6.85843 15.46836,6.12424 34.5,17.2229 34.5,20.11932 0,0.49142 1.81571,1.61999 4.03491,2.50794 2.21919,0.88795 7.01534,4.53681 10.6581,8.10858 3.64276,3.57177 7.01319,6.49413 7.48985,6.49413 1.11388,0 2.69463,-4.16566 3.23548,-8.52631 C 192.94349,208.23973 193.68249,207 195.6812,207 197.91967,207 214,222.98997 214,225.21586 c 0,1.1336 -1.7493,2.92102 -4.4751,4.57262 -5.85551,3.54792 -6.38461,5.40002 -2.85736,10.00207 4.78529,6.24344 8.29517,11.6548 8.31426,12.81853 0.01,0.60999 1.34181,3.73316 2.95956,6.94037 3.09729,6.14041 3.11295,7.45055 0.0891,7.45055 -1.81657,0 -2.53109,-1.13284 -10.09171,-16 -1.53834,-3.025 -4.40388,-7.05078 -6.36786,-8.94617 -5.72792,-5.52789 -4.7759,-9.40496 3.81925,-15.55383 l 2.79568,-2 -4.72914,-4.78792 c -2.60103,-2.63335 -5.1569,-4.64533 -5.67972,-4.47106 -0.52281,0.17427 -1.7439,2.56961 -2.71353,5.32298 -2.60396,7.39421 -3.91606,9.436 -6.06379,9.436 -2.30242,0 -8.65798,-5.34825 -9.49701,-7.9918 C 178.86266,219.99192 162.90892,206 161.24988,206 c -0.55274,0 -1.53476,-0.63833 -2.18225,-1.41851 -1.19772,-1.44316 -15.7018,-9.77514 -22.06763,-12.67692 -3.76488,-1.71616 -22.70589,-7.84195 -32.5,-10.51095 -3.3,-0.89928 -6.569072,-2.09129 -7.264604,-2.64891 -2.004436,-1.60697 -14.955367,-2.222 -16.678365,-0.79204 -0.808182,0.67073 -1.902926,0.95159 -2.432765,0.62413 -0.529839,-0.32746 -2.272848,0.99328 -3.873352,2.93497 -3.131806,3.79942 -13.313638,23.16797 -13.274591,25.2518 0.01302,0.69496 -0.390362,2.04496 -0.89641,3 -3.236751,6.10854 -9.86118,27.7957 -10.915834,35.73643 -1.329496,10.01007 -0.526916,52.88295 1.20744,64.5 0.205279,1.375 0.430665,3.46436 0.500858,4.64301 0.07019,1.17866 0.915123,2.50811 1.877623,2.95435 3.860983,1.79004 45.119284,3.10415 46.8,1.49062 z m 91.7,-44.80559 c -1.78507,-0.64128 -1.59157,-6.93734 0.23475,-7.63816 1.53328,-0.58838 3.51525,2.0433 3.51525,4.66758 0,1.856 -2.13806,3.54967 -3.75,2.97058 z M 189.2,256.8 c -2.97045,-2.97045 0.12029,-7.43892 3.31273,-4.78943 C 194.66836,253.79958 194.44904,258 192.2,258 c -0.99,0 -2.34,-0.54 -3,-1.2 z m -8,-13 c -0.66,-0.66 -1.2,-2.235 -1.2,-3.5 0,-2.97892 3.48423,-3.13224 5.04182,-0.22186 2.02425,3.78235 -0.92458,6.6391 -3.84182,3.72186 z m 54.09737,50.64246 c 2.08856,-0.21064 4.191,-0.62625 4.67209,-0.92358 0.48109,-0.29733 1.86734,-3.52346 3.08055,-7.16917 1.97271,-5.92798 2.07946,-7.19332 1.01002,-11.97208 -0.65771,-2.93894 -1.50898,-5.53706 -1.89173,-5.77361 -0.38274,-0.23655 -4.12012,0.89198 -8.30529,2.50784 -7.29973,2.81837 -7.63447,3.08953 -8.2252,6.66304 -0.80133,4.84741 -0.80055,11.16139 0.002,15.17345 0.57151,2.85753 0.91784,3.12796 3.25,2.53773 1.43568,-0.36335 4.31915,-0.83298 6.4077,-1.04362 z m 22.57759,-3.99748 c 1.99377,-0.18751 7.77945,-0.5974 12.85705,-0.91087 C 280.34567,288.94061 285,287.78776 285,286 c 0,-0.57723 1.125,-1.47723 2.5,-2 1.375,-0.52277 2.5,-1.35993 2.5,-1.86035 0,-0.53258 8.81115,-0.71601 21.25,-0.44236 l 21.25,0.46748 3,-2.50774 c 2.00328,-1.67458 2.66776,-2.8415 2,-3.51228 -1.231,-1.23656 -28.51197,-4.17581 -33.94233,-3.65694 -4.51454,0.43137 -7.95641,-1.00634 -7.19007,-3.00337 0.3474,-0.90532 -0.38122,-1.46653 -2.17244,-1.67331 -2.46414,-0.28446 -2.66935,-0.63793 -2.39408,-4.12365 0.28272,-3.58001 0.17473,-3.7449 -1.77066,-2.70376 -4.36387,2.33547 -5.37841,-1.23717 -1.53042,-5.38922 3.74213,-4.03782 3.06391,-4.63636 -2.75,-2.42694 -2.8875,1.09731 -6.15,2.30012 -7.25,2.6729 -1.1,0.37278 -8.1875,3.13214 -15.75,6.13191 L 249,267.42649 v 3.3525 c 0,1.84387 0.3877,4.11041 0.86155,5.03675 0.47386,0.92634 0.5413,4.38426 0.14989,7.68426 -0.86254,7.27193 -0.44027,8.77088 2.23195,7.92275 1.10359,-0.35027 3.6378,-0.79026 5.63157,-0.97777 z M 333.85898,245 c -0.40687,-2.475 -0.76658,-5.52406 -0.79937,-6.77568 -0.0578,-2.20811 0.0294,-2.22967 2.93696,-0.72609 1.67749,0.86746 3.63591,3.07975 4.44897,5.02568 1.68141,4.02417 2.84207,4.33126 4.95712,1.3116 1.36253,-1.94528 1.34827,-2.44856 -0.14073,-4.96924 -2.01349,-3.40857 -1.09911,-4.65227 2.14422,-2.91649 2.37355,1.27028 4.59385,0.79512 4.59385,-0.98312 0,-0.50341 -1.40171,-1.64015 -3.1149,-2.52608 -4.24046,-2.19282 -2.40382,-4.31229 2.1149,-2.44058 3.81,1.57815 5.54201,0.29569 4.61091,-3.41413 -0.73471,-2.92729 -3.87906,-5.29235 -8.16318,-6.14003 -2.60561,-0.51556 -3.72463,0.17241 -9.64157,5.92764 -7.76715,7.55488 -8.73931,10.41391 -6.78021,19.93993 0.69977,3.40262 1.52349,6.63205 1.83048,7.17651 1.05165,1.86513 1.74274,-3.98729 1.00255,-8.48992 z m -4.04639,-24.6524 c 1.27192,-1.20612 4.08442,-2.4923 6.25,-2.85817 4.29234,-0.72519 5.06352,-2.56712 2.52711,-6.03587 -1.39125,-1.90265 -1.48922,-1.90284 -7.25,-0.0144 -3.21184,1.05287 -6.2672,2.28477 -6.7897,2.73758 -1.38,1.19592 -4.31758,1.00836 -5.14376,-0.32842 -0.95516,-1.54548 1.81829,-3.43654 7.99258,-5.44968 6.94011,-2.26284 8.13918,-3.28919 6.15767,-5.2707 -1.39184,-1.39184 -2.19292,-1.21098 -8.13461,1.83651 -5.29277,2.71465 -6.75731,3.11087 -7.43654,2.01186 -1.14926,-1.85955 0.51297,-4.68432 3.2636,-5.54613 1.23808,-0.3879 3.2877,-1.51463 4.5547,-2.50383 2.15475,-1.68231 2.18707,-1.86094 0.5,-2.76383 -0.992,-0.5309 -2.14488,-1.00166 -2.56195,-1.04613 -0.41708,-0.0445 -4.13945,-1.66385 -8.27194,-3.59861 C 311.33726,189.58299 307.13315,188 306.12729,188 c -1.00586,0 -3.13349,-0.44751 -4.72807,-0.99447 -8.59339,-2.94764 -39.46673,-4.7787 -47.39922,-2.81118 -1.925,0.47746 -7.22575,1.2423 -11.77944,1.69965 -4.55369,0.45735 -8.57552,1.12762 -8.93739,1.4895 -0.36187,0.36187 0.11245,3.68612 1.05404,7.38722 0.9416,3.70111 2.14388,10.24836 2.67174,14.54945 0.52786,4.30109 1.20772,8.2214 1.5108,8.71179 0.31918,0.51644 1.61551,0.48691 3.08075,-0.0702 1.39134,-0.52898 4.10499,-0.96179 6.03034,-0.96179 1.92535,0 4.25856,-0.39509 5.1849,-0.87799 0.92634,-0.48289 5.17341,-1.14294 9.43793,-1.46678 4.26452,-0.32384 8.71048,-1.10086 9.87991,-1.72672 2.33757,-1.25103 21.8273,-1.52833 27.11191,-0.38575 5.89238,1.27399 12.4808,5.30815 17.90881,10.96575 l 5.3457,5.57181 2.5,-3.26988 c 1.375,-1.79843 3.54067,-4.25671 4.81259,-5.46284 z M 231.97078,202.75 c -2.43798,-9.6793 -6.35919,-18.72156 -8.12766,-18.7423 -0.70871,-0.008 -8.84312,9.44093 -8.84312,10.2725 0,0.27645 1.763,1.20805 3.91777,2.07022 2.15478,0.86217 5.77296,3.38603 8.0404,5.60858 4.98943,4.89064 6.08891,5.06414 5.01261,0.791 z m -21.14069,-13.18659 c 2.83929,-4.81225 1.14065,-6.11351 -5.17248,-3.96241 -2.5604,0.87241 -4.89592,1.97558 -5.19004,2.45148 -0.46173,0.74709 5.85695,4.77935 7.68365,4.90332 0.35818,0.0243 1.56367,-1.50227 2.67887,-3.39239 z m -7.46578,-8.06957 C 204.93968,180.67223 208.45676,180 211.18005,180 c 7.68908,0 8.2809,-0.60964 11.40648,-11.75 0.51224,-1.82577 4.20445,-1.52706 7.2591,0.58727 4.34124,3.00488 6.27658,3.36211 8.29899,1.53185 2.05306,-1.858 2.37122,-4.53674 0.87164,-7.33875 -0.75037,-1.40206 -2.18152,-1.84742 -6.03255,-1.87725 -2.77683,-0.0215 -6.37642,-0.70141 -7.99906,-1.51089 -2.83696,-1.41526 -3.04696,-1.35689 -5.46746,1.51971 -1.38446,1.64533 -2.51719,3.40698 -2.51719,3.91479 0,0.5078 -0.9,0.92327 -2,0.92327 -2.93139,0 -2.56519,-3.84314 0.75,-7.87093 C 221.10088,151.62801 230.10836,143 231.54445,143 c 1.95587,0 1.83252,1.24757 -0.40689,4.11514 -2.80825,3.59597 -3.41322,6.41119 -1.6858,7.84482 2.44149,2.02626 11.71532,-1.40016 15.74765,-5.81831 3.94433,-4.32172 8.75597,-11.24573 8.78496,-12.64165 0.0114,-0.55 1.64601,-3.69536 3.63242,-6.98969 3.34845,-5.55319 3.52385,-6.23246 2.40693,-9.32126 -1.01682,-2.81195 -0.95289,-3.60984 0.40989,-5.11569 0.95276,-1.05279 1.34004,-2.49965 0.94478,-3.52967 -0.72544,-1.89047 1.01228,-3.50296 3.80242,-3.52838 1.40141,-0.0128 1.61893,0.81583 1.30855,4.98469 -0.28055,3.7683 -0.0317,5 1.01018,5 0.76033,0 1.66054,-0.45 2.00046,-1 0.33992,-0.55 1.7742,-1 3.18729,-1 5.16217,0 18.42883,-9.38507 16.85846,-11.92597 C 289.18067,103.48331 285.90297,103 282.26198,103 c -6.21804,0 -9.54256,-0.64496 -16.76198,-3.251839 -2.68945,-0.971143 -7.27932,-1.228487 -13,-0.728883 -4.27963,0.373753 -17.3768,-0.173025 -25,-1.043696 -4.4,-0.502538 -9.95478,-1.098476 -12.34395,-1.324307 -2.38917,-0.225831 -5.02394,-1.090593 -5.85504,-1.921693 -1.04134,-1.041344 -2.70011,-1.351611 -5.33594,-0.998071 -2.10367,0.282161 -5.3189,-0.02285 -7.14496,-0.677805 -3.67662,-1.318697 -21.97957,-4.84188 -31.32011,-6.028891 -3.3,-0.41937 -7.95967,-1.301559 -10.35481,-1.960421 -2.39515,-0.658861 -4.88398,-0.99487 -5.53074,-0.746686 -0.64676,0.248185 -4.31209,-0.15523 -8.14519,-0.896476 -10.33212,-1.998033 -10.81929,-1.933783 -10.07532,1.328768 0.3449,1.5125 0.85094,3.733728 1.12454,4.936062 0.27359,1.202334 0.0439,2.466391 -0.51052,2.809017 -1.44865,0.895313 -1.24549,2.757639 0.24204,2.218742 0.6875,-0.249065 2.04813,0.242802 3.02363,1.093038 1.3597,1.185103 2.04817,1.271341 2.95,0.369512 C 139.67077,94.729228 143,94.623546 143,96.024751 c 0,0.563613 1.23655,1.494885 2.74788,2.069493 2.34005,0.889687 2.95182,0.737599 4.12197,-1.024751 C 150.6256,95.931272 151.8993,95 152.7003,95 c 1.20988,0 1.34903,1.421389 0.82219,8.39847 -0.7284,9.64633 0.36807,13.34961 5.33555,18.02061 2.73711,2.57375 3.40234,2.78331 5.62316,1.77144 2.07486,-0.94537 2.5188,-1.84601 2.5188,-5.11006 0,-4.82616 1.26192,-5.81854 3.96353,-3.11693 4.89246,4.89246 -0.23092,14.84468 -8.08463,15.70446 -3.80033,0.41605 -8.10228,-3.4352 -10.77363,-9.64491 C 150.9168,118.26039 149.56412,116 149.09932,116 c -0.4648,0 -2.93948,0.92645 -5.49931,2.05878 -3.13962,1.38881 -5.37761,1.80225 -6.87712,1.27049 -2.2383,-0.79377 -3.17758,-1.00211 -5.47289,-1.21392 -1.66699,-0.15383 -1.57794,-2.25776 0.24341,-5.75104 1.45568,-2.79195 1.42411,-2.87875 -1.25,-3.43592 -3.18053,-0.66268 -5.02764,-0.0311 -3.20446,1.09569 2.00904,1.24165 0.27902,3.94512 -3.54778,5.54405 -3.04062,1.27046 -3.39265,1.74744 -2.50868,3.39916 0.56555,1.05673 1.47585,2.19794 2.02289,2.53603 0.54704,0.33809 0.99462,1.47769 0.99462,2.53244 0,1.11925 2.18085,3.64159 5.23778,6.05796 5.78817,4.57529 8.16813,7.44049 7.32012,8.81259 -0.96001,1.55333 -10.90228,6.79243 -14.3079,7.53959 -8.22651,1.8048 -1.47987,2.47081 22,2.17177 27.93111,-0.35573 34.83762,0.36495 42.96047,4.48279 0.94075,0.47691 2.32133,0.6327 3.06794,0.3462 1.64076,-0.62962 6.72159,3.16638 6.72159,5.02185 0,0.72785 -2.09375,3.09064 -4.65278,5.25065 -5.58026,4.71016 -5.49857,6.3176 0.71779,14.12502 4.3816,5.50305 5.78918,6.00185 10.2993,3.64966 z m -20.57009,-22.06226 c 1.23158,-0.86263 2.02101,-1.92153 1.75428,-2.35311 -0.43918,-0.7106 -7.97824,-2.09958 -19.2985,-3.5555 -5.24346,-0.67438 -5.66966,0.9901 -0.5,1.95272 2.0625,0.38406 6,1.77883 8.75,3.09949 5.9298,2.84774 6.39057,2.8902 9.29422,0.8564 z M 289.4174,99.133647 c 0.7603,-1.230182 -3.07386,-4.463999 -4.35439,-3.672591 C 284.47836,95.822394 284,96.991476 284,98.059017 284,99.450218 284.69141,100 286.44098,100 c 1.34254,0 2.68193,-0.389859 2.97642,-0.866353 z M 259.73561,93.52849 c 2.02879,-0.507621 2.18324,-0.997381 1.66949,-5.29393 C 261.09374,85.630552 260.83681,82.825 260.83416,82 c -0.0156,-4.843015 -2.26035,-13.503727 -4.61279,-17.796979 -1.49675,-2.731617 -5.3163,-7.215014 -8.48789,-9.963103 C 240.19501,47.708053 235.16399,46.5 215.5,46.5 c -12.09761,0 -31.14869,2.0087 -33,3.47944 -0.55,0.436937 -3.025,1.156219 -5.5,1.598406 -2.475,0.442187 -4.725,0.844625 -5,0.894306 -0.275,0.04968 -3.65,1.275373 -7.5,2.723757 -3.85,1.448384 -8.68123,3.154656 -10.73607,3.791714 -2.05484,0.637058 -3.9939,1.575458 -4.30902,2.085332 C 149.13979,61.58283 148.03508,62 147,62 c -2.38756,0 -3.56624,1.833756 -2.11287,3.287132 C 147.17615,67.576147 146.06896,69 142,69 c -4.44613,0 -5.38175,1.615099 -1.5,2.589356 3.84495,0.96502 2.99549,1.954305 -2.55722,2.978155 C 135.1613,75.08038 132.84577,75.95 132.79714,76.5 c -0.10138,1.146574 1.9529,1.545672 23.20286,4.507782 8.525,1.188331 21.75314,3.482391 29.39588,5.097911 7.64273,1.61552 15.29273,2.8501 17,2.74351 1.70726,-0.106589 4.79133,0.424029 6.85347,1.179151 2.91729,1.068265 4.01579,1.106502 4.95,0.172298 1.70693,-1.706929 3.87141,-1.486145 5.35772,0.546505 1.19234,1.630623 1.73329,1.518496 8.11024,-1.681073 3.75798,-1.885527 7.50769,-3.936342 8.33269,-4.557367 1.54284,-1.161386 9.91201,-3.815821 15.85735,-5.029446 3.00754,-0.613931 3.25426,-0.501124 2.36792,1.082673 -0.54418,0.972406 -2.95499,2.494727 -5.35735,3.382936 -4.13516,1.528869 -4.37077,1.826486 -4.42147,5.585023 -0.0295,2.183553 0.0424,4.198863 0.15968,4.478466 0.26983,0.643315 12.14596,0.266626 15.12948,-0.479879 z M 222,81.7 c 0,-1.855058 2.09426,-3.7 4.2,-3.7 2.3022,0 2.2915,1.245225 -0.0287,3.345012 C 223.98104,83.327136 222,83.495729 222,81.7 Z m 7.64018,-6.20471 c 0.61345,-1.59861 7.09534,-5.093107 7.91912,-4.269327 0.99123,0.991233 -0.74387,3.537103 -3.16136,4.638587 -3.4964,1.593062 -5.45251,1.441243 -4.75776,-0.36926 z M 240,76.547053 C 240,74.565303 242.67412,71 244.16052,71 c 2.35755,0 2.36303,2.216218 0.0107,4.345012 C 242.47583,76.879359 240,77.592823 240,76.547053 Z m -3,14.89393 C 237,89.790908 235.41956,89.512129 234.5,91 c -0.81551,1.319515 0.38021,3.192069 1.5691,2.457295 C 236.58109,93.140864 237,92.233524 237,91.440983 Z m 44.63408,-0.657926 c 0.91847,-1.486111 0.86011,-11.174421 -0.0764,-12.689784 -2.69556,-4.361507 -6.57151,5.830436 -4.433,11.656727 0.8946,2.437325 3.30086,2.988568 4.50943,1.033057 z M 224.17668,598.33287 C 224.66323,595.8241 227,595.47962 227,597.91667 227,599.145 226.35431,600 225.42668,600 c -0.93124,0 -1.44138,-0.68037 -1.25,-1.66713 z M 1018.5,582 c 0.3399,-0.55 1.0415,-1 1.559,-1 0.5176,0 0.941,0.45 0.941,1 0,0.55 -0.7016,1 -1.559,1 -0.8575,0 -1.2809,-0.45 -0.941,-1 z" id="path12"/>
</svg>
