<?xml version="1.0" encoding="utf-8"?>

<svg xmlns="http://www.w3.org/2000/svg" version="1.1" viewBox="0 0 692 1401">











	<path d="m 558.65649,1384.7381 c -0.96726,-0.7073 -2.52979,-4.5531 -3.55506,-8.75 -6.33227,-25.9208 -6.35315,-26.0203 -11.22545,-53.4881 -0.58536,-3.3 -1.64138,-6.675 -2.34671,-7.5 -0.70533,-0.825 -1.57651,-4.875 -1.93596,-9 -0.95862,-11.001 -1.09765,-11.804 -3.46265,-20 -1.19029,-4.125 -2.62469,-9.1875 -3.18756,-11.25 -0.56286,-2.0625 -1.5142,-3.75 -2.11408,-3.75 -0.68337,0 -0.88325,-1.2784 -0.53522,-3.423 0.64396,-3.9683 -3.04365,-10.6991 -7.90801,-14.4339 -1.58718,-1.2187 -7.94829,-7.2363 -14.13579,-13.3725 -8.94397,-8.8699 -11.25,-11.7249 -11.25,-13.9285 0,-4.009 3.04706,-5.3795 6.28955,-2.829 2.18524,1.7189 2.57936,1.7709 3.10195,0.4091 0.35432,-0.9234 1.31489,-1.3473 2.35357,-1.0386 6.73022,1.9998 7.25493,1.9437 7.25493,-0.7752 0,-1.6271 0.55248,-2.6084 1.46862,-2.6084 0.89459,0 1.24363,0.5863 0.89301,1.5 -0.31839,0.8297 -0.0288,1.5 0.64801,1.5 0.79651,0 0.9948,-0.7854 0.56807,-2.25 -0.36055,-1.2375 -0.91415,-3.6646 -1.23021,-5.3936 -0.39277,-2.1486 -1.82806,-4.0477 -4.53469,-6 -2.17803,-1.571 -6.0778,-4.4314 -8.66617,-6.3564 -10.63088,-7.9063 -10.82525,-8 -16.59767,-8 -4.44902,0 -5.77654,0.3915 -6.78104,2 -0.68696,1.1 -1.70328,2.0081 -2.25848,2.018 -1.27624,0.023 -7.50945,7.4665 -7.50945,8.9678 0,0.6162 -1.125,2.7759 -2.5,4.7994 -1.375,2.0235 -2.5,4.1945 -2.5,4.8245 0,0.63 -0.675,1.7056 -1.5,2.3903 -0.825,0.6847 -1.5,2.0227 -1.5,2.9733 0,1.8189 -8.19573,12.9975 -12.23982,16.6945 -1.30422,1.1923 -5.12898,3.9995 -8.49947,6.2383 -3.37049,2.2387 -6.41604,4.5362 -6.76788,5.1055 -1.18501,1.9174 -13.62535,6.9373 -18.83097,7.5987 -2.83902,0.3607 -5.61186,0.9916 -6.16186,1.402 -0.55,0.4105 -3.7,1.5105 -7,2.4445 -3.3,0.934 -7.4254,2.5262 -9.16755,3.5383 -5.108,2.9674 -11.72587,3.0068 -13.29273,0.079 -1.50177,-2.8061 -2.14598,-16.6915 -1.0705,-23.0742 0.50971,-3.025 1.16082,-7.8768 1.44693,-10.7818 0.2861,-2.905 1.17595,-6.73 1.97744,-8.5 0.80149,-1.77 1.76778,-4.7932 2.14731,-6.7182 0.37952,-1.925 1.00911,-3.95 1.39908,-4.5 0.38996,-0.55 1.89029,-3.7898 3.33405,-7.1995 1.44376,-3.4098 3.43862,-7.0098 4.43303,-8 1.83305,-1.8254 10.15315,-7.4581 15.98856,-10.8241 1.75759,-1.0139 2.95003,-2.2407 2.64986,-2.7264 -0.30017,-0.4857 0.28626,-1.4915 1.30317,-2.235 1.75007,-1.2797 1.71532,-1.3827 -0.64986,-1.9254 -1.37433,-0.3154 -4.52379,-1.0675 -6.99879,-1.6714 -2.475,-0.6039 -6.75,-1.4129 -9.5,-1.7977 -5.30261,-0.742 -10.5,-4.4471 -10.5,-7.4852 0,-0.9331 -0.80623,-1.6353 -1.87756,-1.6353 -2.69192,0 -4.45032,-2.5575 -3.73044,-5.4257 0.61976,-2.4694 -1.40369,-5.0392 -2.16632,-2.7514 -0.21579,0.6474 -0.83517,1.1771 -1.3764,1.1771 -0.54123,0 -0.71409,-0.8506 -0.38413,-1.8902 0.43962,-1.3851 -0.41082,-2.6855 -3.18261,-4.8665 -2.0804,-1.6369 -4.81026,-3.2965 -6.06637,-3.6879 -1.2561,-0.3914 -3.1686,-1.6613 -4.25,-2.8221 -2.04334,-2.1933 -2.713,-7.6399 -0.96617,-7.8583 0.55,-0.069 1.3375,-0.2161 1.75,-0.3275 0.4125,-0.1114 2.4375,-0.5553 4.5,-0.9863 4.33899,-0.9069 4.95448,-3.1528 1.25,-4.5612 -1.375,-0.5228 -2.50635,-1.2991 -2.51412,-1.7252 -0.008,-0.4262 -1.81934,-2.7766 -4.02573,-5.2232 -2.20639,-2.4466 -4.5915,-5.5966 -5.30024,-7 -2.04131,-4.042 -7.84979,-14.452 -8.67736,-15.5516 -2.15787,-2.8672 -11.45182,-21.4187 -12.49059,-24.9322 -1.52126,-5.1455 -1.00827,-6.5678 2.36887,-6.5678 3.07434,0 5.58494,1.5493 12.58693,7.7673 2.72128,2.4166 6.59869,5.2361 8.61647,6.2655 2.01779,1.0294 5.0978,3.0741 6.84447,4.5438 1.74668,1.4698 3.46711,2.3809 3.8232,2.0248 0.35609,-0.3561 -0.33792,-1.3376 -1.54223,-2.1811 -2.88706,-2.0222 -2.77334,-4.816 0.29424,-7.229 2.32113,-1.8258 2.89455,-1.8648 8.75,-0.5947 6.45381,1.3998 12.73761,3.108 21.01609,5.713 2.6125,0.8221 4.78651,1.2012 4.83112,0.8425 0.0446,-0.3586 0.15712,-2.4438 0.25,-4.6336 0.13863,-3.2683 0.65897,-4.2172 2.90501,-5.2979 4.6409,-2.2329 8.68047,-0.6725 15.78318,6.0968 8.02618,7.6494 20.55828,21.7244 20.25865,22.7527 -0.25491,0.875 8.96576,10.9299 10.023,10.9299 0.38447,0 0.69904,-0.6526 0.69904,-1.4503 0,-0.7977 0.56323,-1.8102 1.25163,-2.25 1.62479,-1.0381 3.77965,-5.2616 4.26513,-8.3595 1.49529,-9.5417 9.98027,-28.9609 15.27357,-34.9559 1.20642,-1.3664 3.51453,-3.9488 5.12912,-5.7388 1.61459,-1.7899 3.0859,-4.0347 3.26957,-4.9885 0.18367,-0.9537 1.22878,-1.8954 2.32246,-2.0926 3.32271,-0.5991 3.89618,-1.8933 2.07236,-4.6768 -0.9424,-1.4383 -1.82963,-3.5989 -1.97162,-4.8013 -0.5445,-4.6112 -1.82105,-7.5434 -3.07461,-7.0624 -0.82674,0.3173 -2.20873,-1.8316 -3.9083,-6.0771 -1.44612,-3.6123 -2.62931,-6.8741 -2.62931,-7.2485 0,-1.4756 2.93842,3.3052 2.9682,4.8293 0.0175,0.8951 0.7351,2.2112 1.59468,2.9246 1.37581,1.1418 1.47591,0.9505 0.83631,-1.5979 -1.20825,-4.814 -4.55087,-9.8214 -5.52769,-8.2806 -0.64663,1.0199 -0.84441,0.9357 -0.85619,-0.3647 -0.008,-0.93 0.39336,-1.9435 0.89285,-2.2522 1.20669,-0.7458 -2.44413,-8.1977 -4.61001,-9.4098 -1.36797,-0.7656 -1.46424,-1.2419 -0.48858,-2.4175 0.96665,-1.1648 0.90588,-1.7208 -0.29724,-2.7193 -0.83948,-0.6967 -1.51399,-2.869 -1.51607,-4.8826 -0.002,-1.9952 -0.90205,-5.10098 -2,-6.90177 C 467.89832,995.42504 467,993.34264 467,992.59828 c 0,-0.74437 -0.675,-1.91359 -1.5,-2.59828 -0.825,-0.68469 -1.5,-2.73823 -1.5,-4.56343 0,-1.82519 -0.42087,-3.57865 -0.93526,-3.89656 -0.5144,-0.31791 -1.87857,-3.15697 -3.03149,-6.30902 -1.15293,-3.15204 -2.75,-7.08099 -3.54905,-8.73099 -0.79905,-1.65 -1.92211,-4.8935 -2.49569,-7.20778 -0.57357,-2.31428 -1.48063,-4.47833 -2.01568,-4.80901 C 451.43777,954.15252 451,953.2035 451,952.37426 c 0,-0.82924 -1.07572,-2.94018 -2.39049,-4.69098 -1.31478,-1.7508 -2.70721,-4.67619 -3.0943,-6.50085 -0.38709,-1.82466 -1.28587,-3.54093 -1.99729,-3.81393 -1.12683,-0.4324 -1.65354,-1.83939 -3.06827,-8.19617 -0.16252,-0.73022 -1.05994,-2.93865 -1.99428,-4.90763 -2.65221,-5.58912 -6.91064,-16.31232 -8.44471,-21.2647 -0.76666,-2.475 -2.67931,-6.4125 -4.25034,-8.75 -1.57102,-2.3375 -2.51978,-4.25 -2.10836,-4.25 0.41142,0 0.20804,-0.54 -0.45196,-1.2 -0.66,-0.66 -1.2,-1.82803 -1.2,-2.59563 0,-0.7676 -0.82011,-2.5901 -1.82247,-4.05 -1.00236,-1.4599 -2.86237,-5.12937 -4.13336,-8.15437 -3.38026,-8.04513 -6.96664,-16.1001 -8.60691,-19.33104 C 406.64677,853.11189 406,851.38864 406,850.83952 c 0,-1.26245 -4.20741,-12.2075 -8.20317,-21.33952 -3.55793,-8.1314 -4.94802,-11.48419 -7.04828,-17 -0.83769,-2.2 -2.29463,-6.025 -3.23763,-8.5 -0.943,-2.475 -2.78425,-6.975 -4.09166,-10 -2.18258,-5.04987 -3.90023,-9.51681 -11.92031,-31 -1.53993,-4.125 -3.55766,-9.3 -4.48384,-11.5 -2.29079,-5.44145 -4.04183,-10.51667 -4.62487,-13.4047 -0.267,-1.32259 -0.98441,-3.337 -1.59424,-4.47648 -0.60983,-1.13947 -1.46585,-3.43236 -1.90228,-5.09529 -0.43642,-1.66294 -2.86653,-8.87353 -5.40023,-16.02353 -2.5337,-7.15 -5.45634,-15.925 -6.49476,-19.5 -1.03842,-3.575 -2.66425,-8.04941 -3.61297,-9.94314 -0.94872,-1.89372 -2.10715,-5.26872 -2.57428,-7.5 -0.46713,-2.23127 -0.96539,-4.50686 -1.10723,-5.05686 -0.24555,-0.95213 -3.98103,-10.75359 -5.71671,-15 -0.44962,-1.1 -1.56187,-5.1414 -2.47168,-8.98088 -0.90981,-3.83949 -2.09476,-7.51172 -2.63321,-8.16052 -0.53846,-0.6488 -2.0992,-5.38241 -3.46832,-10.51912 C 323.0308,618.89684 313.18312,589.22289 310.86565,584 c -0.61011,-1.375 -1.72947,-3.69443 -2.48747,-5.15429 -0.758,-1.45986 -1.38095,-3.25986 -1.38434,-4 -0.006,-1.40129 -0.83142,-3.12964 -5.31334,-11.13119 C 300.20622,561.0825 299,558.1001 299,557.08696 c 0,-1.01314 -0.64344,-2.37608 -1.42986,-3.02875 -0.78642,-0.65267 -2.23047,-4.58271 -3.209,-8.73341 -1.30806,-5.54848 -2.4023,-7.98072 -4.13259,-9.18577 -6.85036,-4.77085 -8.61446,-7.01128 -13.76631,-17.48338 C 273.45801,512.549 271,506.58325 271,505.39845 c 0,-1.18481 -0.68104,-3.78416 -1.51342,-5.77633 C 268.03449,496.14679 268.05603,496 270.01796,496 c 1.12465,0 2.33073,0.7875 2.68018,1.75 0.34945,0.9625 2.02283,3.36558 3.71861,5.34017 1.69579,1.9746 5.769,6.8121 9.05157,10.75 4.80856,5.76854 6.51496,7.15983 8.78139,7.15983 1.57278,0 3.06579,-0.6586 3.38627,-1.49376 1.30677,-3.40539 -15.27956,-30.08437 -24.35326,-39.17202 -2.8695,-2.87392 -5.49162,-6.31835 -5.82692,-7.65429 -0.3353,-1.33595 -1.71265,-2.93156 -3.06078,-3.54581 -1.34813,-0.61425 -2.74862,-1.90821 -3.11219,-2.87547 -1.27724,-3.398 -10.65426,-15.81845 -16.18912,-21.44352 -16.76024,-17.0334 -23.22566,-26.40181 -29.15194,-42.24122 -1.38033,-3.68925 -2.8901,-5.98695 -4.28633,-6.52327 -4.00359,-1.53786 -13.1503,-8.22602 -13.87274,-10.14387 -0.70729,-1.87764 -2.42802,-2.0123 -5.98481,-0.46839 -0.93617,0.40637 -2.08108,0.50463 -2.54426,0.21837 -0.46318,-0.28626 -2.79479,0.35376 -5.18137,1.42226 -8.83654,3.95624 -32.77666,9.09505 -42.07226,9.03093 -8.41846,-0.0581 -27,8.27764 -27,12.11226 0,0.57978 -1.8,3.00691 -4,5.39363 -2.2,2.38671 -4,4.99717 -4,5.80101 0,0.80384 -1.79909,3.54021 -3.99799,6.08083 -3.872774,4.47465 -3.988197,4.52994 -3.685569,1.76559 0.171827,-1.56954 0.565535,-3.28336 0.874909,-3.80849 0.30937,-0.52512 0.88717,-4.07137 1.28399,-7.88055 0.75367,-7.23463 2.65964,-11.24155 8.5247,-17.92148 3.07947,-3.50733 2.69389,-5.55643 -0.72937,-3.87607 -0.97387,0.47803 -6.94567,0.72346 -13.27067,0.5454 -12.234032,-0.34442 -17.225743,-1.65134 -22.157674,-5.80129 -1.535335,-1.2919 -4.311649,-2.8506 -6.169587,-3.46377 -1.93525,-0.63869 -3.858955,-2.17029 -4.503965,-3.58594 C 62.549531,380.11198 61.5823,379 61.019371,379 c -0.562928,0 -3.090076,-2.8125 -5.615884,-6.25 -2.525809,-3.4375 -5.210038,-6.60156 -5.964955,-7.03123 -2.481295,-1.41229 -6.777421,-12.35212 -7.940013,-20.21877 -0.243849,-1.65 -1.01379,-5.25 -1.71098,-8 -1.314703,-5.18572 -1.722669,-44.11934 -0.544883,-52 0.758393,-5.07447 3.532225,-16.80559 4.670328,-19.7518 3.413394,-8.83626 4.74211,-11.64856 6.899745,-14.60368 2.316924,-3.17327 2.334225,-3.29353 0.318612,-2.21481 -3.083658,1.65032 -2.851986,-1.03623 0.351382,-4.07475 1.365498,-1.29523 2.490498,-2.90163 2.5,-3.56978 0.0095,-0.66815 0.865514,-1.66878 1.902249,-2.22362 1.036734,-0.55484 2.160101,-2.10501 2.496371,-3.44482 0.378208,-1.5069 3.187275,-4.24161 7.365028,-7.17008 3.714496,-2.60375 7.203629,-5.27088 7.753629,-5.92697 0.55,-0.65608 3.7,-2.676 7,-4.48871 7.712219,-4.23636 8.5,-4.89608 8.5,-7.11824 0,-2.27106 1.923156,-3.30595 9,-4.84307 3.025,-0.65705 7.5169,-2.15022 9.982,-3.31817 2.4651,-1.16794 6.68467,-2.47173 9.37682,-2.8973 2.69216,-0.42558 5.66069,-1.46687 6.59674,-2.31399 0.93606,-0.84711 2.62945,-1.54021 3.7631,-1.54021 1.13365,0 6.27322,-0.86488 11.42126,-1.92196 16.84085,-3.45802 25.1007,-4.2356 33.63092,-3.16601 4.34316,0.54459 9.20897,1.63944 10.81291,2.433 1.60394,0.79355 4.94125,2.39364 7.41625,3.55575 11.92825,5.60077 15.17943,8.53134 23.40752,21.09922 7.08483,10.82161 9.80524,20.76818 9.70934,35.5 -0.0358,5.5 -0.55126,12.7 -1.14546,16 -0.5942,3.3 -1.48,8.25 -1.96845,11 -1.62483,9.14797 -2.64997,12.97029 -4.35637,16.24321 -0.93001,1.78377 -2.15439,4.46223 -2.72085,5.95214 -1.00085,2.63243 -0.97535,2.65953 0.90288,0.95976 2.23951,-2.02673 12.61287,-17.31561 13.50543,-19.90511 0.36085,-1.04693 1.62019,-1.75 3.13458,-1.75 3.02186,0 3.19794,1.56022 1.11223,9.85566 -0.78053,3.10438 -1.61729,7.44434 -1.85947,9.64434 -0.24218,2.2 -1.10795,5.575 -1.92393,7.5 -0.81598,1.925 -1.85683,5.3 -2.313,7.5 -0.45616,2.2 -0.89558,4.225 -0.97647,4.5 -0.0809,0.275 -0.68342,2.525 -1.33896,5 -2.60228,9.82505 -7.60922,24.58588 -8.84161,26.06575 -0.71715,0.86117 -1.45799,2.97324 -1.64632,4.6935 -0.18832,1.72025 -0.91079,3.8126 -1.60549,4.64966 -2.0543,2.47528 -0.24449,9.45212 4.11853,15.87695 4.4009,6.48062 8.78124,15.36554 8.7961,17.8417 0.005,0.89515 0.68477,2.18775 1.50977,2.87244 0.825,0.68469 1.5,2.10262 1.5,3.15096 0,4.82631 9.43153,19.82062 16.42638,26.11476 8.34834,7.51206 11.80239,11.26239 13.5778,14.74248 1.06829,2.09402 2.29188,3.96132 2.71908,4.14955 1.04652,0.46112 10.30871,11.47983 13.31681,15.84225 1.32737,1.925 3.77388,5.00186 5.43667,6.83748 1.66279,1.83561 3.47326,4.13272 4.02326,5.10469 2.0557,3.63287 11.04203,14.0505 12.12318,14.0541 0.62902,0.002 1.1972,-1.8661 1.29143,-4.24627 0.19178,-4.84412 0.70876,-9.25 1.08539,-9.25 0.14039,0 0.4195,-0.9 0.62025,-2 0.20076,-1.1 0.63614,-3.40621 0.96752,-5.1249 0.48819,-2.53202 -0.0796,-4.09533 -2.99263,-8.23975 C 294.61781,456.32219 293,453.71383 293,453.339 c 0,-0.37484 -0.65746,-1.408 -1.46102,-2.29593 -0.80357,-0.88793 -2.31865,-4.36996 -3.36685,-7.73785 -4.44506,-14.28199 0.1788,-39.27334 9.95495,-53.80522 5.82394,-8.65705 22.33061,-26.50499 26.07574,-28.19455 1.45633,-0.657 3.83436,-3.21913 5.28451,-5.69361 1.45014,-2.47449 3.91157,-5.06342 5.46983,-5.75317 2.74229,-1.21385 6.20762,-7.28941 11.04165,-19.35867 1.7124,-4.27541 9.79066,-21.19469 21.0612,-44.11107 3.817,-7.76108 6.93999,-14.78579 6.93999,-15.61045 0,-0.82466 1.07995,-3.09078 2.39988,-5.03581 4.44887,-6.55577 4.35045,-7.37108 -1.55745,-12.90177 -2.93834,-2.75073 -8.32505,-6.9883 -11.97048,-9.41683 -3.64542,-2.42853 -7.77519,-5.9195 -9.17725,-7.7577 -1.43079,-1.87585 -5.76195,-5.02166 -9.87196,-7.17019 -11.49439,-6.00875 -20.49687,-12.28849 -23.53384,-16.41619 -3.51485,-4.77721 -7.59338,-8.19987 -13.10433,-10.99704 -2.37349,-1.2047 -4.13435,-2.72869 -3.91303,-3.38665 0.4772,-1.41866 11.67133,-1.89188 13.34127,-0.56399 2.09084,1.66256 12.60422,3.13457 13.38339,1.87384 0.39029,-0.63151 -0.17056,-4.37873 -1.24634,-8.32717 -1.55335,-5.70127 -1.85127,-9.18577 -1.44733,-16.92832 0.27984,-5.36383 0.10128,-10.00109 -0.39695,-10.30901 -0.49807,-0.30783 -0.87395,-1.54563 -0.83529,-2.75067 0.0675,-2.1052 0.1022,-2.11267 0.88541,-0.19098 0.76403,1.87461 0.85,1.84327 1.37117,-0.5 0.30582,-1.375 1.04522,-6.1 1.64311,-10.5 0.59789,-4.4 1.59272,-9.575 2.21072,-11.5 1.83525,-5.71653 5.17498,-14.42469 5.94935,-15.51258 0.39642,-0.55693 2.82879,-5.05693 5.40527,-10 2.57648,-4.94308 5.76004,-9.81245 7.07459,-10.82083 C 351.92446,100.65822 353,99.377354 353,98.820225 c 0,-1.613337 7.39556,-12.77367 8.5,-12.826998 0.55,-0.02656 2.0188,-1.498397 3.26401,-3.270756 4.02721,-5.732122 9.4013,-14.146911 10.96787,-17.173574 0.84011,-1.623107 2.14825,-3.571886 2.90699,-4.33062 0.75873,-0.758734 1.10323,-1.82655 0.76555,-2.372924 C 378.62345,57.581713 382.86757,53 384.81907,53 c 0.80875,0 2.41781,-0.929315 3.57569,-2.065145 2.34727,-2.302561 10.75686,-7.843243 14.60524,-9.622693 1.375,-0.635786 6.325,-2.939935 11,-5.120332 14.5036,-6.764406 21.65839,-8.444467 37,-8.688206 13.77082,-0.218783 33.45267,1.569638 39.91177,3.626645 14.27865,4.547266 30.1829,16.833102 44.9079,34.69078 6.9331,8.408096 9.0233,12.679946 14.76646,30.178951 0.81229,2.475 1.92366,5.29892 2.46971,6.27538 2.52947,4.5233 9.57989,29.81183 10.65699,38.22462 0.28167,2.2 0.91345,4.49845 1.40396,5.10766 0.49051,0.60922 1.08682,5.55922 1.32514,11 0.33946,7.75014 0.1013,10.40351 -1.09977,12.25284 -0.84319,1.29827 -1.32762,3.43524 -1.07651,4.74882 0.25111,1.31358 -0.14163,3.17636 -0.87274,4.1395 -0.73112,0.96315 -1.3535,2.87618 -1.38307,4.25118 -0.0296,1.375 -0.89488,4.3522 -1.92291,6.616 -1.02804,2.26379 -2.19971,5.62102 -2.60373,7.46049 -0.40402,1.83947 -1.50964,4.48728 -2.45694,5.884 -0.9473,1.39673 -5.00266,8.05201 -9.0119,14.78951 -4.00925,6.7375 -7.62336,12.25 -8.03137,12.25 -0.408,0 -2.58582,1.6875 -4.83959,3.75 -5.36306,4.90792 -10.76659,9.25 -11.51123,9.25 -0.32633,0 -2.96457,1.50488 -5.86275,3.34418 -5.80475,3.68392 -19.56719,10.94489 -24.26942,12.80437 -7.04782,2.78704 -24.33972,7.06196 -28.31939,7.00114 -4.75873,-0.0727 -5.26088,1.47652 -1.14861,3.54375 1.30574,0.65639 3.0702,2.04637 3.92103,3.08884 2.56664,3.14475 7.69867,6.21772 10.38395,6.21772 2.49647,0 4.67911,3.31725 3.17337,4.82299 -0.9766,0.9766 -15.65381,0.76471 -18.01035,-0.26 -2.19298,-0.9536 -3.12467,-1.18218 -5.75,-1.41068 -0.9625,-0.0838 -1.75,-0.77853 -1.75,-1.5439 0,-0.76538 -1.04382,-1.65358 -2.31959,-1.97377 -1.27578,-0.3202 -3.91418,-2.13083 -5.86312,-4.02361 -3.07339,-2.98484 -8.84592,-5.58752 -12.43243,-5.60545 -0.61333,-0.003 -2.22628,-0.8796 -3.58434,-1.94785 -2.28635,-1.79844 -2.68509,-1.82814 -5.38485,-0.40108 -3.2966,1.74254 -15.97819,1.95132 -17.97286,0.29589 -1.09147,-0.90584 -9.88332,-3.70755 -13.30628,-4.24032 -0.86496,-0.13463 -1.84608,1.64149 -2.68346,4.85789 -2.21682,8.51476 -23.32611,51.68526 -26.57195,54.34214 -1.19415,0.97747 -2.25907,3.6288 -2.77058,6.89792 -0.45698,2.92059 -1.3438,5.82309 -1.97071,6.45 -0.6269,0.6269 -1.13983,1.91842 -1.13983,2.87002 0,1.48873 0.45358,1.59183 3.25,0.73874 6.00134,-1.83079 14.22861,-4.03008 16.75,-4.47757 1.375,-0.24402 3.73791,-0.93667 5.2509,-1.53922 2.02224,-0.80534 3.11577,-0.79272 4.12837,0.0477 1.01743,0.84439 2.12802,0.85426 4.24909,0.0377 5.67833,-2.18592 16.76471,-2.15099 30.05549,0.0947 7.04888,1.19102 14.39115,2.15435 16.31615,2.14074 4.87519,-0.0345 9.9154,1.81006 21.4611,7.85402 13.07962,6.84694 21.87616,12.6726 26.76315,17.72436 2.19502,2.26903 9.63113,12.26195 11.46965,15.41335 4.38597,7.51796 8.26205,27.10229 6.15426,31.09507 -0.51094,0.96787 -1.09544,3.66787 -1.2989,6 -0.20346,2.33213 -0.66869,5.41652 -1.03385,6.85419 -0.77184,3.0388 0.97583,3.83954 8.48459,3.88745 8.02389,0.0512 14.86937,3.64293 14.9682,7.85364 0.0241,1.02789 -0.99426,1.20404 -4.2182,0.72962 -2.3375,-0.34398 -7.3773,-0.63756 -11.19955,-0.65239 -5.74307,-0.0223 -7.90005,0.47081 -12.42451,2.84038 -3.01123,1.57705 -6.14959,3.88341 -6.97414,5.12525 -1.47573,2.22256 -1.44561,2.24802 1.92451,1.62711 7.58538,-1.39753 15.49179,-1.20387 20.42369,0.50026 7.97816,2.75671 14.66772,6.74307 18.85985,11.23873 3.68168,3.94824 3.88434,4.49867 3.75546,10.20001 -0.18698,8.27147 -0.56762,9.05889 -5.7902,11.97784 C 523.85704,477.49802 524,477.47968 524,475.125 c 0,-1.25671 0.92985,-2.06097 2.8198,-2.43896 2.21332,-0.44266 3.10693,-1.434 4.15486,-4.60926 1.29007,-3.90894 1.2454,-4.11584 -1.32519,-6.13787 -1.46314,-1.15091 -3.26009,-2.69239 -3.99322,-3.42552 -0.73312,-0.73312 -3.6452,-2.75569 -6.47129,-4.4946 -5.19004,-3.19347 -11.34343,-4.04829 -18.18496,-2.52623 -1.375,0.30589 -5.98631,0.69402 -10.24736,0.8625 -4.26104,0.16847 -8.01094,0.56991 -8.33311,0.89207 -0.32216,0.32217 1.44817,1.48545 3.93407,2.58508 3.30554,1.4622 5.06128,3.06071 6.53531,5.95003 2.38923,4.68328 6.87937,10.21776 8.28969,10.21776 0.55045,0 1.74795,0.90523 2.66111,2.01162 1.22365,1.48258 3.62097,2.25371 9.11557,2.93215 4.1004,0.50629 7.9254,0.66004 8.5,0.34167 0.5746,-0.31837 0.52338,-0.014 -0.11381,0.67639 -0.64744,0.70148 -5.01891,1.55541 -9.90912,1.93565 -10.18662,0.79209 -11.61684,0.25745 -19.4165,-7.25809 -4.20491,-4.05174 -5.29366,-4.65372 -6.54244,-3.61732 -1.15257,0.95655 -1.23173,1.56421 -0.34324,2.63477 0.63516,0.76532 0.86413,1.6822 0.50882,2.0375 -0.3553,0.3553 0.0244,1.66915 0.84374,2.91965 0.9176,1.40043 1.26608,3.39197 0.90737,5.18553 -0.46143,2.30714 0.0522,3.63462 2.47305,6.39183 2.9298,3.33686 3.28318,3.46106 8.59462,3.02059 6.67311,-0.55338 8.98273,0.83557 8.1675,4.91173 -0.33327,1.66633 -0.0738,2.92778 0.66379,3.22707 2.27916,0.92482 -5.64834,0.64993 -14.72134,-0.51046 -5.78025,-0.73927 -9.46654,-1.70189 -10.16777,-2.65518 -0.60503,-0.8225 -2.85503,-1.6015 -5,-1.7311 -7.62367,-0.46065 -18.74991,-5.24851 -25.53182,-10.9869 -3.50247,-2.96356 -6.60663,-6.38975 -6.89812,-7.61377 -0.55002,-2.30954 -2.36913,-3.09233 -11.33205,-4.87631 -5.69531,-1.1336 -14.28184,0.867 -17.1036,3.98502 -1.58322,1.74943 -2.13597,3.34981 -4.50311,13.03796 -2.84035,11.62487 -3.52997,33.91207 -1.50072,48.5 0.84159,6.05 1.69842,13.025 1.90406,15.5 0.20564,2.475 0.6298,7.56076 0.94258,11.30168 0.31278,3.74093 0.80665,7.18673 1.0975,7.65734 0.29085,0.4706 0.78469,6.85285 1.09742,14.18276 0.31273,7.32991 0.98695,15.53303 1.49826,18.22916 1.21739,6.4193 1.18192,16.62208 -0.0819,23.56886 -0.95859,5.26884 -5.09189,32.599 -6.89035,45.5602 -0.45789,3.3 -1.57372,8.925 -2.47962,12.5 -0.9059,3.575 -2.28919,9.875 -3.07397,14 -0.78479,4.125 -2.13994,10.425 -3.01144,14 -1.43387,5.88191 -2.2351,14.92812 -2.77295,31.30791 -0.2011,6.12429 1.34921,8.6762 3.95638,6.51244 2.34311,-1.9446 1.43237,1.22131 -2.24081,7.78959 -1.9384,3.46617 -3.97074,6.57801 -4.51632,6.91519 -0.54557,0.33719 -0.73875,1.02276 -0.42928,1.52349 0.61028,0.98746 4.46995,-1.00998 4.46995,-2.31327 0,-0.43096 1.575,-3.07321 3.5,-5.87167 3.45302,-5.0198 4.45121,-9.15777 2.5,-10.36368 -1.68949,-1.04416 -1.10896,-3.65874 0.9308,-4.19216 1.1964,-0.31286 1.7164,-1.06363 1.36713,-1.97384 -0.74508,-1.94165 0.86157,-4.99909 8.42888,-16.04008 C 423.19136,716.86189 426.10023,714 429.22251,714 c 2.60859,0 2.1826,2.14116 -1.41258,7.09996 -6.25044,8.6212 -11.03097,18.13904 -11.46339,22.82314 -0.23238,2.51729 -1.30542,6.40648 -2.38453,8.64262 C 412.8829,754.80187 412,757.4073 412,758.35556 c 0,2.30286 -3.43608,8.93154 -5.53109,10.67024 -3.05741,2.53743 -3.6056,5.7871 -1.90925,11.31796 0.86981,2.83593 2.24753,7.63124 3.06162,10.65624 0.81409,3.025 2.68649,7.96744 4.16089,10.9832 1.4744,3.01576 2.71479,5.94076 2.75643,6.5 0.0998,1.34091 1.1195,3.91141 4.04764,10.20385 1.32757,2.85288 2.41376,5.6087 2.41376,6.12405 0,0.51535 1.07796,2.90617 2.39546,5.31295 1.3175,2.40677 2.72654,5.50095 3.1312,6.87595 0.40465,1.375 1.48998,3.625 2.41184,5 0.92186,1.375 2.92358,5.875 4.44825,10 1.52468,4.125 3.81627,9.75 5.09243,12.5 5.19125,11.18665 7.33055,16.19552 8.54204,20 0.70057,2.2 2.59234,6.34833 4.20395,9.2185 3.10798,5.53513 8.0577,18.2815 7.09914,18.2815 -0.31306,0 -0.11036,0.5625 0.45044,1.25 0.9054,1.10995 3.76663,7.91262 17.77052,42.25 2.01877,4.95 4.57045,11.0108 5.67041,13.46844 2.94037,6.56968 3.74559,8.74828 6.295,17.03156 3.5659,11.58598 7.41974,20.301 9.94964,22.5 3.11098,2.7041 5.53968,7.7382 5.53968,11.4826 0,2.2774 0.58733,3.3038 2.25,3.9322 2.90885,1.0994 3.4536,0.7112 4.27964,-3.0497 0.37593,-1.7116 1.50976,-4.519 2.51963,-6.2386 1.5904,-2.7081 1.7774,-4.7896 1.3973,-15.55366 -0.4151,-11.75502 -2.39984,-25.16006 -4.37853,-29.57284 -0.49324,-1.1 -2.28533,-4.88438 -3.98242,-8.40972 C 504.38853,957.56493 503,954.16162 503,953.52737 c 0,-0.63425 -1.2375,-2.34021 -2.75,-3.79101 -1.5125,-1.4508 -3.64982,-4.34749 -4.74959,-6.43709 -1.09978,-2.0896 -3.52781,-5.82427 -5.39563,-8.29927 -1.86783,-2.475 -4.03967,-6.075 -4.82633,-8 -0.78665,-1.925 -2.34983,-5.44053 -3.47372,-7.81229 -1.1239,-2.37175 -2.45745,-5.97175 -2.96345,-8 -0.50599,-2.02824 -1.04693,-4.13771 -1.20209,-4.68771 -0.15515,-0.55 -0.83868,-3.7 -1.51896,-7 -0.68027,-3.3 -1.62445,-7.35 -2.09817,-9 -1.06987,-3.72644 -2.01279,-10.03831 -2.09145,-14 -0.0997,-5.02023 1.83807,-16.66868 2.95939,-17.79 1.15803,-1.15803 4.52398,0.31624 14.08764,6.17035 12.05985,7.38208 16.59939,10.68589 22.70993,16.52796 5.21674,4.98754 6.78501,7.26985 8.65231,12.59169 1.25438,3.575 2.39039,8.525 2.52448,11 0.24813,4.58024 2.82333,9.49964 4.63564,8.85545 0.63652,-0.22625 1.01822,-11.80492 1.05013,-31.85545 0.047,-29.55546 0.18292,-31.88684 2.20122,-37.76656 2.79512,-8.14277 3.10217,-8.59989 4.8193,-7.17481 1.18711,0.98522 1.17397,1.46788 -0.089,3.27107 -0.81489,1.16342 -1.48162,3.16977 -1.48162,4.45855 0,1.28878 -0.5177,3.31057 -1.15045,4.49287 -0.79958,1.49403 -1.13536,11.60729 -1.10097,33.15937 0.0399,25.0119 -0.22111,31.39605 -1.34954,33.00712 -0.76947,1.09857 -1.39904,2.79727 -1.39904,3.7749 0,2.56661 -2.66016,2.18355 -5.21121,-0.75041 C 521.26567,915.57025 517,905.6293 517,902.65112 517,896.41795 510.12867,885.22678 503,879.84967 492.14429,871.66127 484.04149,867 480.6631,867 c -3.15366,0 -3.44656,0.27314 -4.02125,3.75 -1.66622,10.08059 0.0982,20.82652 6.22575,37.91813 4.11979,11.49125 7.12318,17.10591 12.58284,23.52283 1.72719,2.03003 5.7407,8.78003 8.91893,15 3.17822,6.21997 6.37698,12.43404 7.10836,13.80904 2.21046,4.15573 3.34171,7.20246 5.09901,13.73295 1.60323,5.95789 3.68231,9.27496 4.74036,7.56299 0.27233,-0.44065 -0.14417,-2.6 -0.92556,-4.79856 -0.78139,-2.19856 -1.64001,-7.37238 -1.90804,-11.49738 -0.64355,-9.90428 -2.21004,-16.35334 -5.52353,-22.7398 -3.1884,-6.14532 -6.23753,-13.93559 -7.9299,-20.2602 -1.45052,-5.42078 -7.37869,-17.67839 -11.58196,-23.94788 -3.617,-5.39501 -6.7457,-13.30658 -6.24264,-15.78579 0.34435,-1.69702 3.49726,2.9972 10.56765,15.73367 1.37394,2.475 4.0688,7.2 5.98857,10.5 1.91977,3.3 5.18585,10.76154 7.25796,16.5812 2.07211,5.81966 4.75614,12.51916 5.96452,14.88777 2.84526,5.57717 5.03358,13.95158 5.67302,21.70985 0.28009,3.39836 1.07362,9.69836 1.7634,14 l 1.25416,7.82118 2.08412,-4.5 C 530.20207,974.72467 534,963.04204 534,960.80195 c 0,-0.85638 0.68055,-2.12187 1.51233,-2.81218 1.10919,-0.92055 1.22464,-1.60178 0.43309,-2.55554 -0.80193,-0.96627 -0.54815,-1.8315 0.98767,-3.36732 1.15215,-1.15215 2.06691,-3.36851 2.06691,-5.00789 0,-1.61754 0.5107,-3.25662 1.1349,-3.64239 1.46953,-0.90822 0.3215,7.2468 -1.70191,12.0895 C 536.74473,959.54672 536.63019,961 538,961 c 0.55,0 0.92856,-0.3375 0.84124,-0.75 -0.0873,-0.4125 0.18168,-1.65 0.59778,-2.75 0.41609,-1.1 1.44532,-3.8 2.28717,-6 0.84185,-2.2 1.6978,-5.35 1.90212,-7 0.20432,-1.65 0.63511,-3.675 0.95731,-4.5 0.32219,-0.825 0.74095,-2.6592 0.93056,-4.07599 0.332,-2.48069 -0.90431,-26.11528 -1.90532,-36.42401 -0.26703,-2.75 -0.72766,-7.80724 -1.02363,-11.2383 -0.29597,-3.43107 -1.21793,-9.16961 -2.04882,-12.75231 -0.83088,-3.5827 -1.74638,-7.97547 -2.03445,-9.7617 -0.28806,-1.78623 -1.01543,-5.39042 -1.61638,-8.00931 -1.23238,-5.37062 -0.47717,-9.52802 1.19107,-6.55679 0.93589,1.66686 4.6565,13.17456 5.5664,17.21664 0.95414,4.23859 1.98545,16.32482 3.63521,42.60177 0.16665,2.65444 0.66498,3.5 2.06271,3.5 1.19406,0 2.29686,-1.23236 3.13203,-3.5 0.70898,-1.925 2.28175,-6.2 3.49505,-9.5 2.27692,-6.19288 4.71938,-13.96097 8.1316,-25.86202 1.0821,-3.77411 3.0769,-8.31659 4.4329,-10.09439 1.356,-1.7778 2.46545,-4.40084 2.46545,-5.82896 0,-1.42813 0.41851,-2.85525 0.93001,-3.17138 0.51151,-0.31612 1.24819,-3.12133 1.63706,-6.23378 0.48276,-3.86384 1.39962,-6.31732 2.89028,-7.73424 3.72594,-3.54163 8.35152,-14.9723 9.64238,-23.82808 0.66201,-4.54166 1.83516,-8.76565 2.61104,-9.40115 0.95461,-0.7819 1.06076,-1.36917 0.32918,-1.82131 -0.59385,-0.36702 -3.03945,1.3491 -5.43467,3.81359 -2.39521,2.4645 -5.87376,5.25824 -7.73011,6.20833 -5.50396,2.81694 -10.75336,7.38463 -15.19876,13.22496 -5.16974,6.79197 -4.68584,5.96521 -9.64468,16.47843 -4.90461,10.39826 -6.49993,11.02463 -9.79353,3.84525 -2.79041,-6.08251 -4.05202,-11.71626 -2.3943,-10.69172 0.63586,0.39298 1.1561,1.28451 1.1561,1.98117 0,1.86332 4.67455,5.93447 5.92597,5.16105 C 546.51669,847.18067 547,845.81008 547,844.5 c 0,-1.31008 0.41717,-2.63979 0.92704,-2.95491 0.50988,-0.31512 1.46996,-2.25418 2.13352,-4.30902 1.98364,-6.14272 15.27641,-20.71173 24.14575,-26.46398 2.58846,-1.67876 6.31169,-5.35175 8.27383,-8.16219 4.36596,-6.2535 14.3294,-16.56416 16.17136,-16.7349 0.74168,-0.0688 1.911,-0.21233 2.5985,-0.31907 2.822,-0.43815 4.2531,1.38609 4.41175,5.62373 0.15572,4.15947 -2.30005,14.52578 -5.16922,21.82034 -1.77507,4.51291 -2.63564,7.62014 -3.01328,10.87986 -0.68658,5.92651 -3.60938,19.93955 -5.10179,24.45994 -1.17096,3.5468 -1.30125,5.13641 -0.48766,5.95 0.8136,0.8136 1.1102,0.65603 1.1102,-0.5898 0,-1.14667 0.81373,-1.7 2.5,-1.7 2.55105,0 3.45214,1.51595 1.32295,2.22568 -0.64738,0.2158 -0.88207,0.86965 -0.52154,1.453 0.4126,0.6676 2.13684,0.78977 4.65292,0.32967 4.56622,-0.83499 5.89943,0.43381 8.07068,7.68078 0.98332,3.28203 0.95379,4.52554 -0.15662,6.59585 -3.25864,6.0756 -9.66205,15.66094 -14.17252,21.21502 C 588.98312,898.53452 585,906.83627 585,911.70846 v 3.4596 l 4.03596,-3.33403 c 2.21978,-1.83372 6.60728,-5.48276 9.75,-8.10898 6.65127,-5.55815 13.2685,-8.93528 18.21404,-9.29563 1.925,-0.14026 5.3,-0.85973 7.5,-1.59882 3.97994,-1.33707 18.48278,-0.923 23.50533,0.67109 1.62094,0.51447 2.26077,0.19674 2.6573,-1.31958 0.51384,-1.96494 0.5531,-1.96638 2.42982,-0.0897 1.04915,1.04915 3.00326,1.90755 4.34245,1.90755 5.31578,0 7.3153,1.59181 7.76652,6.18288 0.35998,3.66277 -0.0963,5.07497 -3.01006,9.31712 -1.8889,2.75 -4.86845,6.575 -6.62123,8.5 -1.75279,1.925 -5.08926,6.03749 -7.41438,9.13887 -2.32512,3.10138 -6.6049,7.82638 -9.51062,10.5 C 628.3655,947.0974 613.16652,960 612.3042,960 c -0.48071,0 -3.10832,2.24021 -5.83911,4.97825 -2.7308,2.73803 -5.55146,4.98803 -6.26814,5 -0.71668,0.012 -2.94479,1.13734 -4.95136,2.50083 -2.00656,1.3635 -6.82019,3.42691 -10.69694,4.58537 -3.87676,1.15845 -9.42345,3.19286 -12.32599,4.52091 C 569.32013,982.91341 566.50542,984 565.96776,984 561.91563,984 546,994.85641 546,997.62046 546,998.37921 545.17297,999 544.16215,999 c -2.02641,0 -9.43334,7.0642 -11.53375,11 -0.73379,1.375 -2.50222,4.661 -3.92985,7.3022 -2.80024,5.1807 -2.6407,7.6978 0.48789,7.6978 1.63022,0 1.86862,0.4772 1.37395,2.75 -0.32919,1.5125 -0.82209,4.55 -1.09533,6.75 -0.27324,2.2 -0.95064,5.39 -1.50533,7.0889 -0.55469,1.699 -1.06149,4.849 -1.12623,7 -0.0647,2.1511 -0.77051,5.5808 -1.56839,7.6216 -1.13893,2.9132 -1.34366,7.2112 -0.95267,20 0.45274,14.8082 1.28328,21.1962 4.9132,37.7895 0.66174,3.025 1.2786,7.525 1.37078,10 0.0922,2.475 0.88916,6.525 1.77105,9 0.88188,2.475 1.60997,6.0875 1.61798,8.0278 0.009,2.2768 0.72373,4.1349 2.01455,5.2402 2.13527,1.8282 2.64538,3.732 1,3.732 -1.77649,0 -1.06035,3.8973 0.9099,4.9518 1.19069,0.6372 2.17584,2.6275 2.61613,5.2852 0.38843,2.3446 1.09518,5.0045 1.57055,5.9107 0.47538,0.9063 2.01262,7.6563 3.41608,15 1.40346,7.3438 3.04633,15.3773 3.65084,17.8523 0.6045,2.475 1.45607,6.3 1.89237,8.5 0.82496,4.1597 1.64833,7.236 4.41621,16.5 1.87006,6.259 2.10199,7.3291 8.23576,38 2.47485,12.375 5.35774,26.55 6.40644,31.5 2.3445,11.0663 3.89603,19.1988 4.29261,22.5 1.17062,9.7446 2.96486,20.8623 4.64449,28.7788 1.08277,5.1034 2.21425,10.9534 2.5144,13 0.30015,2.0467 1.18483,7.501 1.96595,12.1207 1.27054,7.5143 1.25266,8.7526 -0.1697,11.75 -2.15659,4.5447 -5.31929,4.6028 -5.47295,0.1005 -0.33945,-9.9456 -0.89146,-15.629 -1.8211,-18.75 -0.57341,-1.925 -1.49876,-5.975 -2.05635,-9 -1.19247,-6.4693 -2.10749,-10.6795 -5.54195,-25.5 -1.40201,-6.05 -2.95602,-13.25 -3.45335,-16 -0.49734,-2.75 -1.12847,-5.9 -1.40253,-7 -1.53088,-6.1446 -4.53886,-21.7237 -5.06872,-26.2522 -0.338,-2.8886 -1.47536,-8.7386 -2.52748,-13 -1.05212,-4.2613 -2.16579,-9.9978 -2.47481,-12.7478 -0.30902,-2.75 -0.9848,-6.125 -1.50173,-7.5 -1.0331,-2.748 -5.11246,-19.4296 -8.19216,-33.5 -1.08345,-4.95 -2.15033,-9.675 -2.37085,-10.5 -0.22051,-0.825 -1.32794,-6 -2.46095,-11.5 -2.25521,-10.9476 -8.17057,-37.9326 -10.74125,-49 -0.89425,-3.85 -1.52967,-8.6748 -1.41203,-10.7218 0.22934,-3.991 -4.33931,-23.2667 -11.67974,-49.2782 -1.08647,-3.85 -2.52588,-9.475 -3.19868,-12.5 -0.67281,-3.025 -1.8243,-6.85 -2.55886,-8.5 C 506.99117,1055.0296 504,1046.9423 504,1045.8281 c 0,-0.6038 0.9,0.046 2,1.4448 1.1,1.3984 2,3.0341 2,3.6348 0,0.6008 0.42397,1.0923 0.94215,1.0923 1.27214,0 0.37393,-9.9142 -1.05411,-11.6349 -0.62311,-0.7508 -1.92607,-1.3651 -2.89547,-1.3651 -2.4552,0 -4.40555,-3.3499 -8.55796,-14.6992 -1.97223,-5.3904 -4.88086,-13.1758 -6.46362,-17.3008 -1.58276,-4.125 -3.60623,-9.975 -4.49659,-13 -0.89036,-3.025 -2.23245,-6.91718 -2.98241,-8.64928 -0.74997,-1.73211 -1.66454,-4.75357 -2.03239,-6.71437 -0.36785,-1.9608 -1.29674,-4.08623 -2.06421,-4.72317 -0.76746,-0.63694 -1.40202,-2.11547 -1.41013,-3.28562 -0.008,-1.17016 -0.65374,-3.25256 -1.43473,-4.62756 -4.40466,-7.75473 -9.80047,-20.13814 -11.54682,-26.5 -1.72174,-6.2722 -4.72596,-13.5356 -6.33288,-15.31123 C 456.75187,923.17333 456,921.96007 456,921.49264 456,920.68766 447.49242,902.70768 442.51815,893 c -1.2682,-2.475 -3.88345,-8.325 -5.81166,-13 -1.92821,-4.675 -5.3537,-11.425 -7.6122,-15 -2.2585,-3.575 -4.37305,-7.175 -4.69901,-8 -0.32595,-0.825 -1.84723,-4.2 -3.38061,-7.5 -3.50415,-7.54129 -5.38675,-11.91942 -7.31001,-17 -0.83281,-2.2 -3.18402,-7.6 -5.22491,-12 -9.19559,-19.82498 -10.59752,-22.95583 -13.11169,-29.28153 -1.46866,-3.69516 -3.05228,-6.86847 -3.51917,-7.0518 C 391.382,783.98333 391,783.11291 391,782.23239 c 0,-0.88052 -0.95986,-3.58375 -2.13302,-6.00718 l -2.13303,-4.40624 4.14256,-5.87414 c 3.43538,-4.87137 4.11494,-6.60569 3.98079,-10.15949 -0.16977,-4.49765 0.91276,-27.43092 1.61839,-34.28534 0.22648,-2.2 0.6967,-7.15 1.04493,-11 0.65702,-7.26392 3.14461,-22.14931 3.90789,-23.38433 0.24019,-0.38863 0.7078,-3.16115 1.03913,-6.16114 0.33132,-2.99999 0.80685,-6.13138 1.05673,-6.95863 1.02071,-3.37926 5.60769,-30.81692 5.85055,-34.9959 0.14383,-2.475 0.59945,-9 1.01249,-14.5 1.28575,-17.12103 1.33149,-20.75809 0.36467,-29 -0.51614,-4.4 -1.07053,-11.21579 -1.23199,-15.14619 -0.49172,-11.97034 -1.6858,-23.33819 -2.50461,-23.84424 -0.42645,-0.26356 -1.12115,-4.87354 -1.54379,-10.24439 -0.42263,-5.37085 -0.89151,-10.89018 -1.04195,-12.26518 -0.68379,-6.24975 -0.32498,-33.00488 0.50291,-37.5 0.50648,-2.75 1.85384,-7.65735 2.99411,-10.90523 2.25266,-6.41626 2.55573,-8.59477 1.19568,-8.59477 -1.5085,0 -3.17507,2.66511 -3.55784,5.68953 -0.20204,1.59643 -1.05033,4.53722 -1.88509,6.53508 -0.83476,1.99786 -1.76974,6.02713 -2.07775,8.95393 -2.02814,19.27243 -2.57917,41.25237 -1.22395,48.82146 0.44314,2.475 1.4243,8.775 2.18036,14 0.75606,5.225 1.8377,12.53582 2.40364,16.24626 1.46769,9.62243 2.00568,34.67544 0.97179,45.25374 -0.4838,4.95 -1.104,11.25 -1.37821,14 -0.86682,8.69287 -5.89792,42.78255 -7.96956,54 -0.81259,4.4 -1.47628,10.39083 -1.47486,13.31296 10e-4,2.92213 -0.43751,6.74713 -0.97538,8.5 -0.87739,2.8593 -1.66653,8.29197 -2.71443,18.68704 -0.19406,1.925 -0.41354,6.2 -0.48774,9.5 -0.21351,9.49615 -0.73793,11.17638 -3.89657,12.48474 -5.85371,2.42468 -7.12685,1.3739 -11.12288,-9.18022 -2.01902,-5.33252 -3.99199,-11.40689 -4.3844,-13.4986 -0.39241,-2.09171 -1.75452,-6.27874 -3.02692,-9.30452 -1.2724,-3.02577 -3.00209,-7.9764 -3.84376,-11.0014 -0.84167,-3.025 -3.75737,-12.025 -6.47933,-20 -2.72197,-7.975 -6.16549,-18.325 -7.65227,-23 -1.48678,-4.675 -3.31535,-9.86892 -4.0635,-11.54205 -0.74815,-1.67313 -1.83356,-4.93563 -2.41203,-7.25 -0.57847,-2.31437 -1.52427,-6.09805 -2.10179,-8.40817 -1.31829,-5.27335 -6.00885,-19.9637 -6.80091,-21.29978 -0.32605,-0.55 -0.67967,-1.45 -0.78581,-2 -0.91105,-4.7207 -4.15685,-15.30216 -7.99808,-26.07413 -2.53512,-7.10923 -5.17979,-15.62587 -5.87704,-18.92587 -0.69725,-3.3 -2.43388,-10.275 -3.85918,-15.5 -1.71612,-6.2911 -2.59779,-12.08036 -2.6102,-17.13922 -0.0142,-5.77186 -0.44652,-8.16313 -1.76875,-9.78253 -1.53113,-1.87525 -2.07015,-1.99115 -4.30973,-0.92668 l -2.55973,1.21664 3.04503,2.72073 c 2.88795,2.58038 2.9813,2.89696 1.80973,6.13689 -1.64933,4.56115 -1.55839,8.92605 0.25854,12.40986 0.82161,1.57537 1.49661,3.54566 1.5,4.37843 0.003,0.83276 0.91016,3.98276 2.01505,7 1.80266,4.92268 1.84922,5.60335 0.45351,6.63012 -1.38875,1.02165 -1.27347,2.0394 1.07606,9.5 1.4473,4.59567 4.41565,13.30576 6.59635,19.35576 2.1807,6.05 4.08908,11.45 4.24085,12 0.71706,2.59855 12.25223,40.81351 17.0545,56.5 0.7577,2.475 4.15481,12.375 7.54913,22 3.39432,9.625 6.77657,19.525 7.51611,22 0.73954,2.475 3.0219,9 5.07191,14.5 2.05002,5.5 4.81729,12.925 6.1495,16.5 1.33221,3.575 3.53178,9.57445 4.88794,13.33212 3.90989,10.83355 13.31239,34.69228 15.82979,40.16788 2.95751,6.4329 9.27839,22.08744 16.15093,40 2.32199,6.05201 3.33725,8.62576 9.86168,25 1.97236,4.95 5.12731,12.15 7.011,16 1.88369,3.85 4.30895,9.25 5.38946,12 1.08052,2.75 4.03184,9.40473 6.55849,14.78828 2.52664,5.38356 4.5939,9.98479 4.5939,10.22496 0,0.24017 1.40242,3.48544 3.11648,7.21172 1.71407,3.72627 4.90352,10.82504 7.08768,15.77504 2.18416,4.95 4.99007,11.25 6.23536,14 1.2453,2.75 3.49772,7.925 5.00539,11.5 1.50767,3.575 3.39545,8.02203 4.19506,9.88228 0.79961,1.86025 3.28045,8.38525 5.51299,14.5 2.23254,6.11475 4.6417,12.46772 5.35369,14.11772 0.71199,1.65 1.52693,3.9 1.81097,5 0.95203,3.6869 6.38187,17.8869 11.66262,30.5 2.87839,6.875 5.41611,14.2709 5.63939,16.4354 0.22328,2.1645 1.02513,4.6395 1.78188,5.5 0.75674,0.8605 1.66285,2.9146 2.01357,4.5646 0.35071,1.65 1.9758,5.6509 3.61129,8.8909 1.6355,3.24 2.97363,7.0128 2.97363,8.384 0,1.3712 0.53183,4.2681 1.18184,6.4377 0.93325,3.1149 0.91703,4.1083 -0.0771,4.7227 -0.95862,0.5925 -1.01209,1.7069 -0.22413,4.6714 0.56916,2.1413 1.4706,7.9433 2.00321,12.8933 0.99503,9.2477 4.15184,28.5144 5.98047,36.5 1.51597,6.6203 2.49958,12.3845 2.27557,13.3355 -0.10825,0.4595 0.94101,4.2232 2.33168,8.3638 1.39068,4.1405 2.5285,8.1552 2.5285,8.9215 0,0.7662 1.55517,7.733 3.45593,15.4816 2.00097,8.1571 3.22139,15.261 2.89884,16.8738 -0.34477,1.7238 0.0628,3.7314 1.06938,5.2677 0.89455,1.3653 1.67774,4.2314 1.74042,6.3692 0.0627,2.1378 0.49103,4.3706 0.95188,4.9619 1.28365,1.6468 4.47081,16.0601 7.83341,35.425 1.67132,9.625 3.27924,18.625 3.57316,20 0.67516,3.1586 3.33091,17.7677 4.54465,25 0.50767,3.025 1.11724,6.4 1.35461,7.5 2.1186,9.8178 6.05056,28.7715 7.57195,36.5 2.09609,10.6479 5.16209,22.8533 7.73747,30.8021 1.50307,4.6391 1.53346,5.4186 0.24308,6.2346 -2.04699,1.2945 -4.28416,1.1888 -6.31829,-0.2986 z M 399.76253,1254.2408 c 2.33061,-1.2148 4.23747,-1.9818 4.23747,-1.7044 0,0.2773 1.78207,-0.4049 3.96016,-1.5161 4.3707,-2.2297 7.11148,-2.5487 8.65326,-1.0069 1.24436,1.2444 11.29763,-3.5748 19.70918,-9.4479 3.20244,-2.236 6.72663,-4.5753 7.83155,-5.1984 4.38687,-2.4738 8.93882,-8.0399 12.48945,-15.2719 2.05089,-4.1774 4.99513,-9.1702 6.54276,-11.0952 9.42078,-11.7179 13.83657,-18.6087 13.43266,-20.9616 -0.26111,-1.521 0.20473,-2.9203 1.21921,-3.6621 1.46669,-1.0724 1.36435,-1.3269 -0.95961,-2.3857 -3.415,-1.556 -6.20335,-0.1067 -15.37862,7.9936 -8.65966,7.645 -16.43867,16.8564 -16.4812,19.5158 -0.0411,2.5698 -2.86405,6.8262 -7.69295,11.599 -2.10422,2.0798 -4.62318,4.5959 -5.5977,5.5912 -0.97452,0.9954 -4.14337,4.078 -7.04188,6.8502 -2.89852,2.7723 -5.86828,6.4848 -6.59947,8.25 -0.77767,1.8775 -2.05319,3.2096 -3.07326,3.2096 -0.9591,0 -2.81701,0.8414 -4.12868,1.8697 -1.31167,1.0283 -3.95986,2.1819 -5.88486,2.5636 -5.10209,1.0116 -13,4.8369 -13,6.2965 0,1.6879 2.63861,1.1817 7.76253,-1.489 z M 395,1247.8333 c 0,-0.6416 0.29785,-0.8688 0.66188,-0.5048 0.36404,0.3641 2.13401,-0.4609 3.93328,-1.8333 1.79927,-1.3724 3.75142,-2.4952 4.33812,-2.4952 0.5867,0 1.06672,-0.698 1.06672,-1.551 0,-0.8531 1.55714,-2.2017 3.46032,-2.9969 3.81647,-1.5946 16.21273,-12.8466 17.04623,-15.4727 0.28963,-0.9126 1.53163,-2.2032 2.76002,-2.8681 1.22839,-0.6648 3.58343,-3.4658 5.23343,-6.2244 3.28179,-5.4866 8.04924,-11.928 13.53572,-18.2881 1.94465,-2.2544 4.78005,-5.7863 6.30089,-7.8488 1.52085,-2.0625 3.52977,-3.7625 4.46428,-3.7778 0.93451,-0.015 3.48656,-1.3801 5.67121,-3.0328 3.46474,-2.6211 3.93395,-3.4478 3.67338,-6.4722 -0.30265,-3.5129 1.38784,-4.8469 2.49289,-1.9672 0.69079,1.8001 3.70892,2.0426 3.11218,0.25 -0.48565,-1.4589 -18.46915,-10.6895 -20.89596,-10.7256 -1.35284,-0.02 -12.37145,-5.3462 -26.71861,-12.915 -10.13834,-5.3485 -28.81164,-21.4462 -36.37684,-31.3594 -2.83318,-3.7125 -5.55361,-6.75 -6.04542,-6.75 -0.4918,0 -4.76014,-4.05 -9.48519,-9 -4.72505,-4.95 -9.18444,-9 -9.90976,-9 -0.72532,0 -1.31877,-0.3902 -1.31877,-0.8671 0,-1.0851 -7.53344,-6.1329 -9.15287,-6.1329 -0.68568,0 -0.3373,0.9598 0.81672,2.25 1.10686,1.2375 2.62162,3.825 3.36613,5.75 0.74452,1.925 2.42324,5.1438 3.7305,7.1529 1.30726,2.0092 3.00031,5.7246 3.76234,8.2567 0.76203,2.532 2.64363,6.2732 4.18134,8.3138 4.92157,6.5311 17.66639,18.711 21.74023,20.7766 2.16942,1.1 4.91519,2.9 6.10172,4 1.18653,1.1 3.83423,3.4309 5.88379,5.1799 2.04956,1.7489 3.83546,3.9224 3.96866,4.8299 0.1332,0.9076 0.87249,2.0397 1.64285,2.5158 2.31683,1.4319 0.16149,2.3879 -2.57378,1.1416 -1.39745,-0.6367 -4.88685,-2.925 -7.75423,-5.085 -4.63598,-3.4923 -14.1485,-8.0822 -16.75042,-8.0822 -2.56461,0 -0.20049,3.3833 7.78702,11.1441 10.86499,10.5566 14.5533,12.9638 25.18356,16.4366 15.62029,5.103 19.2334,9.5562 10.46904,12.9033 -6.61741,2.5273 -23.49714,19.638 -27.14444,27.516 -2.52276,5.449 -4.35049,12.5821 -4.7176,18.4113 -0.21213,3.3682 -0.53304,6.7543 -0.71313,7.5246 -0.4387,1.8765 3.84988,4.022 8.17257,4.0885 l 3.5,0.054 -3.47025,1.5052 C 394.77182,1244.8641 390.88518,1249 394,1249 c 0.55,0 1,-0.525 1,-1.1667 z m 126,-9.8102 c 0,-1.3511 -3.89591,-3.7432 -7.5,-4.6051 l -3,-0.7175 2,2.2678 c 2.89789,3.2859 8.5,5.2992 8.5,3.0548 z m -3.36687,-52.5094 c 0.3137,-0.8175 0.0506,-4.08 -0.58476,-7.25 -0.63532,-3.1701 -1.54372,-8.2387 -2.01867,-11.2637 -0.47495,-3.025 -1.56525,-9.325 -2.4229,-14 -0.85765,-4.675 -2.07704,-11.425 -2.70976,-15 -0.63272,-3.575 -1.78252,-8.0512 -2.5551,-9.9472 -0.77258,-1.896 -1.59455,-4.9301 -1.82659,-6.7425 -1.45017,-11.3266 -3.01167,-12.8778 -3.83576,-3.8103 -0.24993,2.75 -1.15505,6.3139 -2.01137,7.9197 -1.07391,2.0139 -1.26507,3.4651 -0.61617,4.6775 0.71223,1.3309 0.27359,2.5506 -1.80564,5.021 -2.24411,2.6662 -2.93487,4.8285 -3.77683,11.8224 -1.64938,13.7009 -0.37061,19.0568 6.58014,27.5594 6.18988,7.5719 9.59563,10.933 11.95028,11.7938 2.801,1.0239 5.06096,0.7109 5.63313,-0.7801 z M 471,1176 c 0,-0.55 -0.70156,-1 -1.55902,-1 -0.85746,0 -1.2809,0.45 -0.94098,1 0.33992,0.55 1.04148,1 1.55902,1 0.51754,0 0.94098,-0.45 0.94098,-1 z m 7.97043,-17.9447 c 0.64304,-1.2016 0.18976,-3.2746 -1.52557,-6.9769 -1.77304,-3.8269 -2.28737,-6.2671 -1.88071,-8.9229 0.30785,-2.0105 0.49436,-4.218 0.41446,-4.9055 -0.74056,-6.3721 0.20588,-16.8438 2.05616,-22.75 0.5169,-1.65 2.10189,-7.5 3.52218,-13 1.4203,-5.5 3.23537,-12.2181 4.0335,-14.9292 2.41479,-8.2026 -1.77593,-9.1317 -7.08506,-1.5708 -5.08491,7.2415 -15.50257,27.9083 -15.53719,30.823 -0.0175,1.4724 -0.6925,3.5505 -1.5,4.6181 -0.80751,1.0677 -1.4682,2.9303 -1.4682,4.1392 0,1.209 -0.86476,3.2605 -1.92168,4.5589 l -1.92168,2.3608 -3.10737,-2.9649 C 450.28705,1125.8995 445,1116.5268 445,1114.2657 c 0,-3.1297 -28.86081,-31.0878 -30.83321,-29.8688 -0.46086,0.2848 1.27168,6.7246 3.85009,14.3105 5.60057,16.4774 5.93597,17.2926 7.11486,17.2926 0.50477,0 1.31081,1.0338 1.79121,2.2974 0.77518,2.0388 6.12145,10.0092 14.92596,22.2521 2.50785,3.4873 15.46765,13.4505 17.49585,13.4505 0.38397,0 2.51059,1.1994 4.72582,2.6654 3.98407,2.6365 10.23444,4.3747 12.7072,3.5338 0.70278,-0.239 1.68947,-1.2037 2.19265,-2.1439 z m 9.88957,-14.3866 c 0.65552,-0.7899 1.82847,-4.7509 2.60653,-8.8024 0.77807,-4.0515 2.17066,-9.1663 3.09464,-11.3663 3.18603,-7.5859 4.23878,-12.5087 4.22205,-19.7429 -0.0233,-10.0818 -2.15634,-23.7469 -3.87673,-24.8361 -2.23518,-1.415 -2.82888,-1.102 -3.46872,1.829 -0.33019,1.5125 -0.99548,3.875 -1.47843,5.25 -0.48295,1.375 -1.21358,4.3 -1.62361,6.5 -0.90644,4.8635 -1.01798,5.3645 -1.33573,6 -0.1375,0.275 -0.34396,0.8375 -0.45879,1.25 -0.11484,0.4125 -0.74564,2.1 -1.40178,3.75 -4.17961,10.5105 -7.2789,24.8898 -6.04474,28.0449 0.4206,1.0753 0.79637,3.1702 0.83502,4.6554 0.0387,1.4852 0.63279,3.0602 1.32029,3.5 2.0125,1.2875 3.75,5.0495 3.75,8.1195 0,4.2857 1.41896,4.8433 2.08406,0.819 0.32124,-1.9437 1.12041,-4.1802 1.77594,-4.9701 z M 439,1147 c 0,-0.55 -0.675,-1 -1.5,-1 -0.825,0 -1.5,0.45 -1.5,1 0,0.55 0.675,1 1.5,1 0.825,0 1.5,-0.45 1.5,-1 z m -5,-7.8333 c 0,-1.3021 -1.18877,-2.1681 -2.15579,-1.5704 -1.03422,0.6392 -0.14245,2.4037 1.21481,2.4037 0.51754,0 0.94098,-0.375 0.94098,-0.8333 z m -6.17512,-4.5044 c 0.38129,-3.3304 -3.74201,-10.1838 -6.68989,-11.1195 -1.0681,-0.339 -2.66833,-2.147 -3.55608,-4.0178 -0.88775,-1.8707 -2.425,-3.6588 -3.41612,-3.9733 -0.99112,-0.3146 -2.5681,-2.0299 -3.5044,-3.8118 -0.9363,-1.782 -2.60037,-4.645 -3.69794,-6.3624 -1.09756,-1.7173 -1.72101,-3.8379 -1.38545,-4.7124 0.55727,-1.4522 0.8214,-1.4515 3.04877,0.01 1.34126,0.8788 2.7621,1.2503 3.15744,0.8255 0.39533,-0.4248 0.11268,-0.9878 -0.62811,-1.2511 -0.7408,-0.2633 -2.7658,-1.7051 -4.5,-3.204 -3.7915,-3.277 -11.42778,-5.4754 -13.38295,-3.8527 -0.96698,0.8025 -1.80742,0.633 -3.22589,-0.6507 -1.05503,-0.9548 -2.38621,-1.4468 -2.95817,-1.0933 -0.89308,0.5519 -4.57033,-0.1171 -11.25252,-2.0472 -3.55732,-1.0275 -1.07957,4.3932 4.67025,10.2173 3.19444,3.2357 8.06149,8.5831 10.81566,11.8831 2.75418,3.3 6.1715,7.1612 7.59405,8.5805 1.42256,1.4192 4.61147,4.7928 7.08647,7.4968 7.08562,7.7412 11.67,10.4866 17,10.1809 4.12684,-0.2368 4.52694,-0.4935 4.82488,-3.0959 z m 60.92498,-65.2458 c -0.95295,-0.9529 -2.86349,0.5906 -2.1533,1.7397 0.42212,0.683 0.98146,0.6658 1.69964,-0.052 0.58876,-0.5888 0.79291,-1.348 0.45366,-1.6873 z M 534.5,996 c 0.33992,-0.55 0.16803,-1 -0.38197,-1 -0.55,0 -1.27811,0.45 -1.61803,1 -0.33992,0.55 -0.16803,1 0.38197,1 0.55,0 1.27811,-0.45 1.61803,-1 z m -11.01124,-6.84458 c -0.22138,-0.22137 -1.1968,-0.0977 -2.16761,0.27484 -1.48326,0.56918 -1.53428,0.81998 -0.31952,1.57075 1.33179,0.82309 3.5269,-0.80581 2.48713,-1.84559 z m 27.25112,-4.01649 c 4.90981,-3.88015 12.97641,-8.1502 23.92168,-12.66292 4.86114,-2.00424 9.78098,-4.51898 10.93298,-5.58831 1.23988,-1.15091 2.77004,-1.68503 3.75,-1.30898 1.05691,0.40557 1.65546,0.12687 1.65546,-0.77084 0,-0.77336 1.52871,-1.95889 3.39714,-2.63453 1.86843,-0.67563 5.11211,-2.5913 7.20818,-4.25704 2.62095,-2.08288 4.49774,-2.85628 6.01012,-2.47669 1.65845,0.41624 4.40957,-1.15644 11.19036,-6.39698 4.9452,-3.8219 10.04335,-8.42642 11.32922,-10.23226 1.28588,-1.80585 3.07204,-4.01744 3.96924,-4.91464 0.89721,-0.89721 3.60329,-4.26352 6.01351,-7.4807 2.41023,-3.21717 5.05723,-6.55203 5.88223,-7.41079 0.825,-0.85876 2.625,-3.23295 4,-5.27598 1.375,-2.04303 2.8375,-3.71768 3.25,-3.72144 0.4125,-0.004 0.75,-0.77183 0.75,-1.70683 0,-1.32222 -0.26667,-1.43333 -1.2,-0.5 -0.66,0.66 -2.35554,1.2 -3.76787,1.2 -1.41232,0 -4.22345,1.125 -6.24694,2.5 -2.0235,1.375 -4.10152,2.5 -4.61783,2.5 -1.69615,0 -6.52524,2.87589 -9.12036,5.43149 C 623.49665,924.89732 608.23851,936 606.2773,936 c -0.81299,0 -6.71472,3.00187 -16.7773,8.53366 -2.75,1.51178 -8.375,4.55191 -12.5,6.75586 -14.97616,8.00159 -17.25175,9.89148 -29,24.08459 -8.28731,10.01194 -9.48007,11.93247 -8.68978,13.99193 0.58517,1.52492 0.96821,1.54446 4.15705,0.21208 1.93187,-0.80719 5.20455,-2.80482 7.27261,-4.43919 z m -3.81993,-14.90152 C 555.77533,961.19363 568.94995,950 570.73887,950 c 0.55893,0 1.57644,-0.675 2.26113,-1.5 1.4522,-1.7498 0.66587,-1.92673 -2.06574,-0.46482 -1.09432,0.58566 -1.93426,0.63561 -1.93426,0.11501 0,-1.0042 3.3905,-3.39019 6.39144,-4.49784 1.6054,-0.59255 1.70031,-0.46783 0.62756,0.82476 -0.69514,0.83759 -0.95142,1.52289 -0.56951,1.52289 1.30056,0 10.03991,-5.36561 13.33531,-8.18734 1.80663,-1.54696 3.83589,-2.81266 4.50945,-2.81266 0.67356,0 1.78672,-0.9 2.47368,-2 0.68696,-1.1 1.89469,-2 2.68384,-2 0.78915,0 2.02284,-0.79443 2.74153,-1.7654 0.71868,-0.97096 2.4317,-2.33481 3.8067,-3.03076 1.375,-0.69595 3.625,-1.89095 5,-2.65556 1.375,-0.7646 4.52001,-1.98327 6.98891,-2.70814 2.46889,-0.72487 5.20831,-2.03736 6.08758,-2.91663 C 624.87883,916.12117 637.03708,910 638.81466,910 c 0.63614,0 4.12545,-1.575 7.75403,-3.5 3.62858,-1.925 7.65848,-3.5 8.95535,-3.5 1.29686,0 2.63656,-0.45084 2.97712,-1.00187 1.12079,-1.81348 -4.82296,-3.13851 -16.63584,-3.7086 -12.62841,-0.60945 -22.40253,1.00064 -30.36532,5.00206 -2.2,1.10553 -4.96151,2.27969 -6.13669,2.60924 -2.45605,0.68873 -10.1886,6.86778 -15.45391,12.34917 -4.42625,4.60788 -8.836,5.21802 -9.0344,1.25 -0.0688,-1.375 -0.16162,-3.0625 -0.20638,-3.75 -0.5122,-7.86738 5.15543,-22.0595 12.63327,-31.63455 7.30977,-9.35984 9.76389,-13.60172 9.36928,-16.19457 -0.32552,-2.13895 -1.05137,-2.50713 -6.23265,-3.16151 -8.24111,-1.04081 -9.78477,-2.84394 -9.81381,-11.46335 -0.0126,-3.73781 0.71596,-9.94602 1.61901,-13.79602 0.90304,-3.85 1.86649,-8.8 2.14098,-11 0.27449,-2.2 1.47199,-6.7 2.66111,-10 3.2966,-9.14858 5.51234,-24.68808 3.45419,-24.225 -0.55,0.12375 -0.89033,0.9 -0.75629,1.725 0.71132,4.37819 -8.18623,32.11693 -15.07586,47 -2.42745,5.24383 -3.25532,7.57057 -4.15229,11.67011 -0.2202,1.00644 -1.336,4.30489 -2.47954,7.32989 -1.14354,3.025 -2.97958,9.09 -4.08009,13.47778 -1.10051,4.38777 -3.14576,10.83942 -4.54501,14.33698 -1.39925,3.49757 -2.9453,8.82436 -3.43567,11.83731 -0.49037,3.01295 -2.03541,7.89593 -3.43342,10.85108 -1.398,2.95515 -2.54183,5.98587 -2.54183,6.73492 0,0.74906 -0.44833,1.81026 -0.99629,2.35822 -0.85068,0.85068 -1.89838,5.26391 -3.30073,13.90371 -0.37697,2.32246 -4.46147,15.92379 -5.79494,19.29705 -0.49942,1.26338 -0.91081,3.06338 -0.9142,4 -0.003,0.93662 -0.69194,3.01802 -1.53012,4.62532 -1.22111,2.34162 -1.26957,3.0883 -0.24384,3.75736 0.9751,0.63603 0.76411,1.25021 -0.88551,2.57763 -2.09539,1.68612 -5.86717,9.24264 -4.61339,9.24264 0.3404,0 4.47994,-3.94317 9.19897,-8.76259 z M 547.5,962 c 0.33992,-0.55 0.81648,-1 1.05902,-1 0.24254,0 0.44098,0.45 0.44098,1 0,0.55 -0.47656,1 -1.05902,1 -0.58246,0 -0.7809,-0.45 -0.44098,-1 z m 2.5,-2 c 0,-0.55 0.45,-1 1,-1 0.55,0 1,0.45 1,1 0,0.55 -0.45,1 -1,1 -0.55,0 -1,-0.45 -1,-1 z m 3.16667,-1.9552 C 553.6894,956.54685 564.20038,949 565.76394,949 c 2.20497,0 0.92106,2.16262 -2.32123,3.90988 -1.62289,0.87457 -4.36837,2.60262 -6.10108,3.84012 -3.37836,2.41283 -4.70915,2.82555 -4.17496,1.2948 z M 389.10359,729.25 c 0.057,-0.9625 0.19651,-3.55 0.31008,-5.75 0.11356,-2.2 0.54466,-7.15 0.95799,-11 0.41334,-3.85 0.95989,-9.025 1.21457,-11.5 0.25467,-2.475 0.68907,-6.70007 0.96532,-9.38904 0.27626,-2.68898 0.70383,-5.21516 0.95016,-5.61373 0.56642,-0.91648 2.27963,-16.00335 3.00893,-26.49723 0.30579,-4.4 0.9737,-9.575 1.48424,-11.5 2.33168,-8.79159 3.21815,-19.33679 3.61474,-43 0.24295,-14.49625 0.0172,-27.01032 -0.52311,-29 -1.31936,-4.85831 -4.03509,-22.31769 -4.55105,-29.25861 -0.23543,-3.16723 -0.71929,-6.22982 -1.07523,-6.80574 -1.14624,-1.85466 -0.50313,-17.95696 1.45521,-36.43565 1.04918,-9.9 1.73685,-18.17307 1.52815,-18.3846 -0.65122,-0.66005 -5.84132,1.82617 -8.67881,4.15742 -2.16169,1.77602 -3.03712,3.84772 -4.32166,10.22718 -1.65935,8.24086 -3.48974,12.08907 -9.03729,19 -3.70411,4.61444 -5.67752,10.89155 -4.80135,15.27238 0.49472,2.47364 0.19254,3.26588 -1.61459,4.23303 -1.78753,0.95666 -2.50852,0.90453 -3.67905,-0.26599 -1.6494,-1.64941 -1.89247,-2.95319 -3.40048,-18.23942 -1.94718,-19.73797 -0.35095,-28.3635 6.84016,-36.96205 1.68155,-2.01065 2.07884,-3.09483 1.23692,-3.37547 -0.68216,-0.22739 -2.38402,1.10553 -3.78191,2.96204 -1.39788,1.85652 -5.95349,6.51637 -10.12357,10.35523 -19.47283,17.92618 -23.47304,22.73737 -23.27542,27.99417 0.0821,2.18487 -0.41218,3.54451 -1.43077,3.93538 -3.28212,1.25947 -3.67938,-0.44433 -2.98624,-12.80761 0.64318,-11.47227 2.22467,-18.5208 5.48135,-24.42983 1.26944,-2.30332 0.91003,-5.34709 -0.59305,-5.02238 -1.69867,0.36697 -16.7999,-6.56716 -17.78962,-8.16856 C 315.16142,471.83414 313,473.03797 313,475.92371 c 0,1.60804 -0.48796,5.09554 -1.08435,7.75 -1.23597,5.50113 0.8749,20.99834 2.80723,20.60964 1.57974,-0.31778 2.46081,4.30893 1.73819,9.12768 -0.40125,2.67573 -0.0436,6.21728 0.98536,9.7567 1.97017,6.77715 2.1384,7.65695 3.0273,15.83227 0.3887,3.575 2.02026,12.35 3.62568,19.5 1.60543,7.15 3.40668,15.25 4.00279,18 0.59611,2.75 1.49381,6.35 1.9949,8 0.50109,1.65 2.26958,7.5 3.92999,13 3.62404,12.00441 5.95464,19.4672 6.71438,21.5 0.30834,0.825 0.67486,1.95 0.81449,2.5 0.13963,0.55 1.71182,6.175 3.49375,12.5 3.02392,10.73349 6.53471,23.54837 7.39697,27 0.81743,3.27214 5.91149,16.80856 8.2791,22 4.35085,9.54007 11.1478,28.32799 11.85607,32.77216 1.02294,6.41865 2.44244,6.14067 2.34505,-0.45923 -0.0472,-3.19711 0.16859,-7.83793 0.47947,-10.31293 0.31089,-2.475 0.77527,-7.15613 1.03196,-10.40252 0.51125,-6.46581 2.12126,-9.46057 2.95262,-5.49212 0.27591,1.31705 0.73794,5.76964 1.02673,9.89464 0.56782,8.11062 0.82463,9.89399 2.52008,17.5 2.37929,10.67386 5.86237,17.87634 6.16583,12.75 z M 308.37042,558.45788 c -1.40093,-4.37683 -2.91196,-8.85788 -3.35786,-9.95788 -0.4459,-1.1 -1.37826,-3.575 -2.07192,-5.5 -1.67223,-4.64068 -2.36876,-5.31628 -4.71366,-4.57204 -1.82593,0.57953 -1.45044,1.68221 4.99553,14.66981 3.83343,7.72375 7.13304,13.88001 7.33247,13.68059 0.19942,-0.19943 -0.78363,-3.94364 -2.18456,-8.32048 z M 300,531 c 0,-0.55 -0.45,-1 -1,-1 -0.55,0 -1,0.45 -1,1 0,0.55 0.45,1 1,1 0.55,0 1,-0.45 1,-1 z m -3.5,-3 c 0.33992,-0.55 -0.24519,-1 -1.30025,-1 -1.05506,0 -3.87959,-1.55203 -6.27673,-3.44896 -5.17732,-4.09696 -6.4672,-3.7878 -2.35012,0.56329 4.05389,4.28431 8.58468,6.05775 9.9271,3.88567 z m 11.73469,-5.5 c 1.14513,-1.55866 0.86208,-8.24665 -0.71948,-17 -1.52825,-8.45838 -2.04118,-28.0569 -0.7551,-28.85174 0.41807,-0.25838 0.90119,-3.31624 1.07361,-6.79524 0.17241,-3.479 0.68348,-6.78166 1.13569,-7.33924 0.45221,-0.55758 1.33588,-4.38878 1.96371,-8.51378 1.14328,-7.51162 2.55728,-13.00116 4.177,-16.21621 0.47554,-0.94391 1.28113,-3.41891 1.7902,-5.5 2.44535,-9.9967 4.38452,-16.09812 7.0446,-22.16522 3.64377,-8.31066 6.46111,-16.17604 8.10187,-22.61857 0.70036,-2.75 2.6009,-8.15 4.22342,-12 4.49083,-10.65603 4.55725,-10.82595 5.27693,-13.5 0.37007,-1.375 3.46489,-8.125 6.87739,-15 3.41249,-6.875 6.79075,-14.075 7.50725,-16 2.15342,-5.78561 4.09947,-10.38338 5.29074,-12.5 0.61909,-1.1 4.55214,-10.5731 8.7401,-21.05133 4.18796,-10.47823 8.78011,-21.05323 10.20478,-23.5 1.42467,-2.44677 4.02578,-7.37367 5.78026,-10.94867 5.09674,-10.38534 6.20547,-12.37932 8.06258,-14.5 0.96329,-1.1 3.34229,-6.05 5.28669,-11 1.94439,-4.95 4.24524,-10.35 5.113,-12 0.86776,-1.65 1.58052,-3.68729 1.58391,-4.52732 0.007,-1.74358 5.00354,-6.40284 9.18528,-8.56531 1.55149,-0.8023 2.82088,-1.87071 2.82088,-2.37424 0,-0.9895 6.77114,-8.05797 14,-14.61476 7.54064,-6.83958 10.97453,-11.0852 14.61539,-18.07027 3.29477,-6.32107 4.19722,-11.95541 1.88461,-11.76635 -0.55,0.045 -2.00982,2.06997 -3.24404,4.5 -3.4406,6.77412 -10.17414,15.61828 -16.21052,21.29168 -3,2.81962 -6.70043,6.45114 -8.22317,8.07006 -1.52274,1.61892 -3.06626,2.64585 -3.43005,2.28207 -1.37878,-1.37879 2.04522,-6.90557 6.68471,-10.78997 2.65296,-2.22118 5.8436,-5.70286 7.09032,-7.73705 1.24671,-2.0342 3.32632,-4.82354 4.62136,-6.19854 1.29503,-1.375 3.25157,-4.36917 4.34786,-6.65372 1.0963,-2.28454 2.86408,-4.94179 3.9284,-5.90499 1.06432,-0.96319 1.93513,-2.29578 1.93513,-2.96131 0,-0.66552 1.79893,-3.85828 3.99762,-7.09501 2.33914,-3.44349 3.9986,-7.06307 4,-8.72468 0.001,-1.65989 0.85949,-3.53375 2.06538,-4.51022 2.08717,-1.69009 4.03915,-10.19508 2.31867,-10.10276 -0.98593,0.0529 -7.26045,7.84098 -12.44957,15.45269 -1.87475,2.75 -5.03316,6.82839 -7.01869,9.0631 -5.35263,6.02437 -9.05685,12.89884 -10.6378,19.74212 -0.80021,3.46379 -2.34748,7.00461 -3.59085,8.21739 -1.20162,1.17207 -3.98476,4.4998 -6.18476,7.39496 -2.2,2.89516 -5.0125,5.66195 -6.25,6.14842 -2.23291,0.87779 -2.63918,2.26577 -2.46867,8.43401 0.0462,1.67221 -0.1455,2.20096 -0.43318,1.19466 -0.68639,-2.40096 -2.54322,-1.6725 -4.15272,1.62918 -0.71751,1.47189 -2.06751,2.70106 -3,2.73149 -0.93248,0.0304 -2.75258,1.39302 -4.04466,3.02797 -1.87308,2.37016 -2.10743,3.26399 -1.15626,4.41009 1.30714,1.575 0.50001,9.08295 -1.08152,10.06039 -0.50215,0.31034 -0.91299,1.25719 -0.91299,2.10411 0,0.84692 -0.62019,2.95786 -1.3782,4.69098 -0.758,1.73312 -2.16748,5.40113 -3.13217,8.15113 -2.32653,6.63217 -8.36927,21.36252 -10.05048,24.5 -2.80321,5.23134 -14.43892,28.89854 -18.68228,38 -2.43604,5.225 -6.3029,13.4103 -8.59302,18.18956 -2.29012,4.77926 -4.16385,8.95434 -4.16385,9.27795 0,0.32361 -2.25,5.28823 -5,11.03249 -2.75,5.74426 -5,10.65724 -5,10.91772 0,0.26049 -2.53355,6.01056 -5.63011,12.77795 -5.11218,11.17241 -9.98858,23.44304 -12.43457,31.28943 -0.51181,1.6418 -1.63569,4.47106 -2.49753,6.28724 -0.86183,1.81618 -1.71736,4.07288 -1.90117,5.0149 -0.18381,0.94202 -1.51086,5.76276 -2.949,10.71276 -1.43814,4.95 -3.297,12.825 -4.1308,17.5 -1.94127,10.88451 -5.14278,25.23567 -6.91559,31 -4.63972,15.08619 -4.23636,23.50709 1.77226,37 2.37693,5.3376 3.52286,15 1.77896,15 -0.63537,0 -1.41129,-0.7875 -1.72427,-1.75 -0.56987,-1.75253 -8.64535,-19.08642 -10.54608,-22.63701 -3.52677,-6.58802 -5.60512,-9.88971 -10.14288,-16.11299 -2.80726,-3.85 -6.80672,-8.97383 -8.8877,-11.38629 -2.08097,-2.41246 -5.07475,-6.33558 -6.65284,-8.71805 -1.57808,-2.38247 -3.13558,-4.06542 -3.46111,-3.73989 -0.94337,0.94336 2.78053,7.39964 7.48891,12.98385 11.73301,13.91554 14.12639,17.50439 18.24643,27.36038 0.34487,0.825 1.70019,3.3 3.01183,5.5 3.85101,6.45929 7.57526,14.25986 7.57526,15.86665 0,3.52765 5.26857,5.80948 7.23469,3.13335 z M 404.69385,213.36052 C 403.89492,212.56159 404.79804,211 406.05902,211 c 0.51754,0 0.94098,0.675 0.94098,1.5 0,1.54641 -1.17996,1.9867 -2.30615,0.86052 z M 371.51251,518.25 c 2.98615,-6.45596 2.95896,-6.40719 6.70755,-12.03311 1.64872,-2.47441 3.12628,-6.57046 3.75143,-10.39959 1.74578,-10.69316 5.50052,-22.40529 8.18283,-25.52466 5.61359,-6.52827 0.75393,-4.85089 -12.49867,4.3141 -2.86085,1.97846 -3.50042,2.87203 -2.5,3.49285 1.02308,0.63487 0.4344,1.71921 -2.46326,4.53733 -5.42506,5.27613 -6.90406,9.38056 -6.97737,19.36308 -0.17551,23.89768 0.88509,26.87048 5.79749,16.25 z m -36.81325,-10 c 0.94253,-2.59146 15.42917,-16.24919 17.2415,-16.25497 0.85758,-0.003 2.75653,-1.01523 4.21989,-2.25 3.23818,-2.73235 9.86795,-10.45664 8.01098,-9.33354 -0.7306,0.44188 -3.4306,1.00319 -6,1.24736 -7.01227,0.66639 -16.36223,3.20367 -18.31375,4.96977 -2.96431,2.68266 -6.11021,10.60342 -6.80013,17.12138 -0.62596,5.91377 0.25196,8.3205 1.64151,4.5 z m 143.90989,-19.0734 c -0.27989,-0.45286 -2.32494,-1.42274 -4.54457,-2.15529 -4.18694,-1.38181 -6.5919,-3.43985 -8.50506,-7.2782 -0.61493,-1.23371 -2.22988,-2.769 -3.58878,-3.41175 -3.42278,-1.61895 -11.2293,-2.05569 -11.6964,-0.65437 -0.46166,1.38498 5.69961,7.31199 7.60763,7.31838 0.76008,0.003 2.92492,0.95823 4.81075,2.12374 5.04582,3.11849 17.26055,6.23233 15.91643,4.05749 z M 393.5,481 c 0.33992,-0.55 -0.057,-1 -0.88197,-1 -0.825,0 -1.77811,0.45 -2.11803,1 -0.33992,0.55 0.057,1 0.88197,1 0.825,0 1.77811,-0.45 2.11803,-1 z m 8.5,-5.40002 C 406.18257,472.5632 408.43123,469 406.1651,469 405.14685,469 396,477.51481 396,478.4627 c 0,1.09231 1.61203,0.32318 6,-2.86272 z m -52,-0.60436 c 3.575,-0.57972 7.85,-1.23472 9.5,-1.45556 1.65,-0.22085 5.475,-1.53409 8.5,-2.91832 3.025,-1.38422 8.21883,-2.9503 11.54185,-3.48017 5.87297,-0.93647 10.80493,-3.19448 16.95815,-7.764 1.65,-1.22533 6.6,-3.43672 11,-4.9142 7.02551,-2.35909 8.97449,-2.61064 16,-2.06507 4.4,0.34168 13.625,1.05632 20.5,1.58807 6.875,0.53175 13.65237,1.23854 15.06082,1.57064 1.70372,0.40172 2.99982,0.0749 3.87244,-0.9766 0.92331,-1.11252 3.05173,-1.58041 7.18918,-1.58041 5.80339,0 7.76598,-1.26586 3.8765,-2.50034 C 469.70817,449.13783 468.90558,443 473.01828,443 475.63766,443 481,440.27881 481,438.94957 c 0,-0.54949 1.125,-1.4268 2.5,-1.94957 1.375,-0.52277 2.5,-1.43312 2.5,-2.023 0,-0.58987 1.09753,-2.08965 2.43895,-3.33284 C 491.16467,429.11805 495,420.24373 495,416.46298 c 0,-4.54506 -1.78738,-2.52163 -3.89136,4.40525 -2.38374,7.84797 -3.82553,9.49191 -7.51299,8.56642 -2.87367,-0.72125 -3.18576,-1.44454 -1.39565,-3.23465 0.66194,-0.66194 0.75294,-1.2 0.20295,-1.2 -0.54838,0 -2.68313,1.7267 -4.74389,3.83711 -2.06076,2.11041 -6.41769,5.11366 -9.68206,6.67388 -5.77169,2.75862 -5.99082,2.78648 -7.95258,1.01111 -1.52265,-1.37798 -1.74725,-2.15115 -0.91588,-3.15288 0.69555,-0.83809 1.70769,-1.02427 2.74647,-0.50521 1.93388,0.96635 6.63817,-0.0289 6.6603,-1.40909 0.0329,-2.05052 1.73861,-3.5091 3.46347,-2.96165 2.0663,0.65581 4.1398,-1.13676 7.5336,-6.51288 1.83618,-2.9087 2.37526,-5.28107 2.52008,-11.09031 0.25904,-10.39086 0.19399,-10.7726 -1.46316,-8.58722 -1.22952,1.62144 -1.43701,1.29441 -2.06203,-3.25 C 478.12505,396.27379 477.46485,394 477.04015,394 c -0.42469,0 -1.74181,-2.5875 -2.92693,-5.75 -2.57803,-6.87953 -6.55147,-14.49902 -10.50956,-20.1532 -3.75123,-5.35869 -2.61743,-6.45146 1.81619,-1.75046 1.89521,2.00951 3.92606,3.65366 4.513,3.65366 0.58693,0 1.06715,0.69293 1.06715,1.53984 0,2.41034 3.54229,8.71462 6.39019,11.37274 1.57193,1.46717 2.25753,2.83871 1.7496,3.5 -0.49328,0.64221 0.0938,2.43092 1.43402,4.36888 2.59052,3.74599 3.94349,2.78952 3.01969,-2.13474 -0.65134,-3.47196 -5.87161,-14.14452 -8.18091,-16.72546 C 474.63566,371.05295 474,370.01389 474,369.61224 c 0,-1.5149 2.31164,0.80547 6.58351,6.6084 4.77776,6.49012 5.22919,6.66018 2.90336,1.0937 -0.83222,-1.99178 -1.35974,-3.77481 -1.17227,-3.96228 0.72639,-0.72638 8.6854,10.01669 8.6854,11.72355 0,0.99349 0.45,2.08447 1,2.42439 1.30288,0.80522 1.24304,-0.21835 -0.26506,-4.53393 -1.48948,-4.26232 -13.18377,-18.65636 -15.84283,-19.50031 -1.04183,-0.33067 -2.35959,-1.47073 -2.92836,-2.53348 C 472.39499,359.86952 471.32557,359 470.58726,359 c -0.7383,0 -1.94148,-0.72188 -2.67372,-1.60418 -0.73224,-0.88229 -2.24984,-2.01922 -3.37244,-2.5265 -1.8614,-0.84113 -13.19615,-6.85862 -18.0411,-9.57782 -2.98631,-1.67605 -15.10509,-5.12097 -24.00567,-6.82394 -8.74172,-1.67256 -20.97841,-1.82221 -26.82066,-0.32799 -2.66792,0.68235 -4.23039,0.64328 -5.16097,-0.12903 -0.92148,-0.76476 -1.53526,-0.78306 -1.98269,-0.0591 -0.35642,0.57671 -1.88149,1.04856 -3.38903,1.04856 -4.17239,0 -5.24436,1.65542 -3.2885,5.07837 2.34502,4.10401 0.82115,5.84899 -6.88377,7.88261 -3.55779,0.93903 -7.08414,1.89446 -7.83633,2.12318 -0.97406,0.29617 -1.4987,-0.87617 -1.82315,-4.07398 -0.25054,-2.4694 -0.54617,-4.58046 -0.65695,-4.69123 -0.11078,-0.11078 -3.07354,1.22213 -6.58391,2.96204 -5.82701,2.88813 -6.59094,3.64454 -8.77758,8.69123 -1.3173,3.04028 -4.3634,9.80278 -6.76911,15.02778 -6.22528,13.52076 -8.96641,20.45095 -9.69063,24.5 -0.0984,0.55 -1.47627,4.6 -3.062,9 -6.62576,18.38487 -14.18115,45.68038 -16.26392,58.75702 -0.5477,3.43878 -0.3615,3.84288 2.19824,4.77064 1.53815,0.55749 3.69663,1.44808 4.79663,1.97909 4.54846,2.19573 17.12418,5.534 19.95573,5.29733 1.67435,-0.13994 5.96927,-0.72875 9.54427,-1.30846 z m 38.37413,-37.53058 c -1.51042,-1.51042 -2.08206,-3.01652 -1.74775,-4.6048 C 388.27439,425.0306 389.40143,422 390.66514,422 c 1.3083,0 6.20608,2.70424 7.33486,4.04984 0.275,0.32783 1.33523,0.90491 2.35607,1.28242 3.98672,1.47429 -1.48979,11.07253 -6.79673,11.9121 -2.13486,0.33774 -3.55572,-0.14983 -5.18521,-1.77932 z m -54.76546,-10.48505 c -1.56287,-3.906 -1.53865,-4.13065 0.85391,-7.92071 3.3382,-5.28805 6.23368,-6.11372 9.22883,-2.63165 2.50508,2.91233 2.96366,7.18745 1.02679,9.57237 -1.00478,1.23721 -7.88583,5 -9.14355,5 -0.19662,0 -1.08131,-1.80901 -1.96598,-4.02001 z m 46.33496,-15.20285 C 378.20935,409.87835 377,407.44597 377,405.85659 c 0,-2.21361 0.56596,-2.82198 3.15405,-3.39042 2.7489,-0.60377 3.58383,-0.23719 6.5,2.85379 4.11724,4.36406 4.20554,6.18417 0.39561,8.15436 -3.85878,1.99545 -3.69833,2.03377 -7.10603,-1.69718 z m 26.71136,0.39412 c -1.0428,-1.15228 -1.65499,-3.55667 -1.65499,-6.5 0,-4.61505 0.0391,-4.67058 3.25,-4.61482 7.36956,0.12799 13.93311,4.73239 8.25,5.78747 -2.69009,0.49942 -4.5294,2.10321 -5.57942,4.86499 -1.0527,2.76879 -2.07775,2.8799 -4.26559,0.46236 z m 55.09501,-1.9751 c -3.81482,-0.32237 -4.23655,-0.95565 -3.79331,-5.69616 0.10286,-1.1 1.05468,-3.82958 2.11516,-6.06572 1.06048,-2.23615 1.92815,-4.74865 1.92815,-5.58334 0,-0.83468 0.2699,-1.7875 0.59977,-2.11738 1.11531,-1.11531 5.44443,1.59435 5.98439,3.74572 0.29491,1.17503 1.63412,2.96091 2.97602,3.96864 2.82138,2.11877 3.00723,3.55415 0.9702,7.49332 -1.68296,3.2545 -5.37498,4.7117 -10.78038,4.25492 z m -19.3239,-2.06427 c -9.15115,-4.9353 -11.19518,-7.09465 -11.48398,-12.13189 -0.2411,-4.20517 1.1159,-6.99639 3.42451,-7.04389 1.17335,-0.0241 3.86365,-0.66082 5.97843,-1.41485 4.44254,-1.58398 9.07097,-0.50093 10.67605,2.49818 1.25142,2.3383 1.26456,6.66597 0.0226,7.43357 -0.52598,0.32507 -0.73465,1.16872 -0.46371,1.87477 0.27094,0.70605 -0.19594,2.60414 -1.03751,4.21797 -0.84157,1.61384 -1.5329,3.44861 -1.53629,4.07726 -0.0106,1.97201 -2.43601,2.1845 -5.58006,0.48888 z M 342,400.68224 C 336.85132,398.02906 340.04024,388 346.03254,388 c 3.22053,0 4.73063,1.56585 5.57326,5.77902 0.49438,2.47189 0.1054,3.60069 -1.9486,5.65469 -2.89414,2.89414 -4.08649,3.08856 -7.6572,1.24853 z m 124.23073,-21.1987 C 464.34397,377.34242 459,369.30247 459,368.60498 459,368.27224 459.3848,368 459.85511,368 460.69919,368 469,379.26359 469,380.40895 c 0,1.04572 -1.46317,0.55677 -2.76927,-0.92541 z m -72.06406,93.61603 c 0.654,-1.76667 14.39479,-11.78884 17.73255,-12.93366 4.40246,-1.51001 5.43162,-1.47044 4.79658,0.18444 -0.33003,0.86005 1.2506,0.43895 4.35329,-1.15976 2.67931,-1.38056 4.60325,-2.9441 4.27542,-3.47453 C 423.72969,453.13558 404,458.04593 404,461.02334 404,461.5605 402.94474,462 401.65499,462 c -1.28976,0 -3.03733,0.7875 -3.88349,1.75 -2.32544,2.64517 -5.94249,10.25 -4.87516,10.25 0.51535,0 1.08699,-0.4052 1.27033,-0.90043 z m 61.18779,-5.67344 c -1.01995,-0.79591 -4.9813,-3.04981 -8.803,-5.00866 -6.35831,-3.25901 -7.45537,-3.51171 -12.91509,-2.97494 -3.28159,0.32263 -6.56152,1.08039 -7.28872,1.68391 -0.7272,0.60352 -1.96063,0.85231 -2.74096,0.55287 C 421.8796,461.01657 419,463.98975 419,466.43573 c 0,1.29702 0.47359,1.58636 1.75,1.0692 2.45898,-0.9963 16.6086,-0.59564 22.13409,0.62674 12.43061,2.75 16.59654,2.5143 12.47037,-0.70554 z m -42.90683,-0.36827 c 0.96669,-1.06817 1.59659,-2.4252 1.39979,-3.01561 C 413.35081,462.55242 409,465.70682 409,467.5567 c 0,2.00044 1.3645,1.80301 3.44763,-0.49884 z m 65.07944,-3.10166 c 0.98759,-1.59795 -1.4859,-3.9562 -4.14951,-3.9562 -2.80711,0 -2.96508,0.69332 -0.72257,3.17126 1.84448,2.03813 3.89354,2.36826 4.87208,0.78494 z M 304.43562,443 c 3.30085,-14.06096 6.56384,-25.24661 10.06404,-34.5 1.45631,-3.85 3.96556,-10.6 5.5761,-15 1.61055,-4.4 3.35719,-8.9 3.88143,-10 1.08815,-2.28324 3.21647,-7.37937 6.645,-15.91103 1.78751,-4.44809 2.09971,-6.24324 1.26144,-7.25328 -0.90096,-1.08559 -1.901,-0.63121 -5.2299,2.37625 -2.26376,2.04517 -5.88723,5.98415 -8.05216,8.75328 -2.16492,2.76913 -6.00777,7.3256 -8.53966,10.12549 -2.71435,3.00166 -7.16081,10.18304 -10.83538,17.5 -5.41981,10.79215 -6.42486,13.69512 -7.71234,22.27627 -1.4571,9.7116 -1.14218,17.63302 0.70101,17.63302 0.51676,0 0.65383,0.90031 0.30458,2.00069 -0.39809,1.25427 0.13639,3.08398 1.43261,4.90437 1.13719,1.59702 2.06761,3.48021 2.06761,4.18486 0,1.78415 4.22252,6.10574 5.05473,5.17332 0.37468,-0.41978 1.89607,-5.93824 3.38089,-12.26324 z m -12.36533,-7.25 c 0.0387,-1.2375 0.42456,-3.15 0.85758,-4.25 0.57406,-1.45831 0.78893,-0.84891 0.79335,2.25 0.003,2.3375 -0.38258,4.25 -0.85758,4.25 -0.475,0 -0.83201,-1.0125 -0.79335,-2.25 z m 11.49533,-38.4396 c -0.95825,-2.49716 4.59405,-9.73468 7.76435,-10.12098 2.71237,-0.3305 6.67003,2.75091 6.67003,5.19323 0,1.44578 -9.56786,6.61735 -12.24268,6.61735 -0.84884,0 -1.8351,-0.76032 -2.1917,-1.6896 z m -51.0245,46.75613 C 252.17858,443.47994 251.40342,443 250.81854,443 c -0.6631,0 -0.58723,0.57378 0.20152,1.52417 1.37154,1.6526 2.59733,1.2838 1.52106,-0.45764 z m -5.56118,-6.5907 c -0.69572,-0.83829 -1.52528,-1.26382 -1.84348,-0.94562 -0.3182,0.31819 0.0834,0.99718 0.8925,1.50885 2.11697,1.33881 2.39358,1.17499 0.95098,-0.56323 z m -6.43882,-6.4093 C 240.17858,430.47994 239.40342,430 238.81854,430 c -0.6631,0 -0.58723,0.57378 0.20152,1.52417 1.37154,1.6526 2.59733,1.2838 1.52106,-0.45764 z M 471.5,431 c 0.33992,-0.55 0.14148,-1 -0.44098,-1 -0.58246,0 -1.05902,0.45 -1.05902,1 0,0.55 0.19844,1 0.44098,1 0.24254,0 0.7191,-0.45 1.05902,-1 z m -237.65894,-6.75 c -1.39322,-1.5125 -4.45247,-5.45 -6.79833,-8.75 -2.51292,-3.53501 -3.96687,-4.97292 -3.53903,-3.5 0.39939,1.375 1.48654,3.4 2.41588,4.5 0.92934,1.1 2.909,3.9125 4.39925,6.25 1.49025,2.3375 3.46235,4.25 4.38245,4.25 1.35533,0 1.19203,-0.52204 -0.86022,-2.75 z m 255.6584,-6 c 1.16702,-7.41636 1.21196,-8.25 0.44473,-8.25 -0.42815,0 -1.26575,2.27215 -1.86133,5.04922 -1.32587,6.18236 -1.34004,6.95078 -0.12817,6.95078 0.52507,0 1.22022,-1.6875 1.54477,-3.75 z m -3.51477,-6.5 C 485.9723,409.93056 485.78387,409.78704 485,411 c -1.25292,1.93876 -1.25292,3 0,3 0.55,0 0.99311,-1.0125 0.98469,-2.25 z m 8.69842,-1.9375 c -0.31922,-0.79773 -0.55618,-0.56078 -0.60416,0.60417 -0.0434,1.05416 0.19293,1.64479 0.52522,1.3125 0.33229,-0.33229 0.36781,-1.1948 0.0789,-1.91667 z m -270.3394,-4.60617 C 224.02637,403.99285 223.34266,403 222.82435,403 c -0.51831,0 -0.76021,0.3375 -0.53756,0.75 0.22265,0.4125 0.7098,1.60191 1.08256,2.64313 0.91203,2.54761 1.69995,1.58789 0.97436,-1.1868 z M 117,398.5 c 0,-0.825 -0.45,-1.5 -1,-1.5 -0.55,0 -1,0.675 -1,1.5 0,0.825 0.45,1.5 1,1.5 0.55,0 1,-0.675 1,-1.5 z m 8.13991,-5 c 2.92297,-1.925 6.11224,-3.5 7.08729,-3.5 2.23343,0 6.05693,-3.73125 5.21668,-5.09081 -0.402,-0.65044 -1.47505,-0.46356 -2.97268,0.51772 C 129.67063,388.57237 124.8953,391 123.50854,391 122.01469,391 118,394.78149 118,396.18856 c 0,1.50543 1.80199,0.82688 7.13991,-2.68856 z M 219,391.05902 c 0,-1.17986 -1.95035,-2.442 -2.66667,-1.72569 C 215.61702,390.04965 216.87916,392 218.05902,392 218.57656,392 219,391.57656 219,391.05902 Z m 268.25133,-6.20769 c -1.05984,-1.05984 -1.40323,1.83868 -0.49149,4.14867 0.42358,1.07319 0.70834,0.82696 1.00077,-0.86534 0.22479,-1.30093 -0.004,-2.77843 -0.50928,-3.28333 z M 144.57959,383.24625 C 143.8733,382.53997 140,384.0621 140,385.04595 c 0,0.50114 1.1269,0.39772 2.50423,-0.22983 1.37732,-0.62755 2.31123,-1.33399 2.07536,-1.56987 z M 203.5,383 c -1.00159,-1.10674 -2.04607,-1.78726 -2.32107,-1.51226 -0.275,0.275 0.31948,1.40552 1.32107,2.51226 1.00159,1.10674 2.04607,1.78726 2.32107,1.51226 0.275,-0.275 -0.31948,-1.40552 -1.32107,-2.51226 z m 11.86163,0.5 c -0.31659,-0.825 -1.03256,-1.5 -1.59106,-1.5 -0.58531,0 -0.48812,0.63541 0.22943,1.5 0.68469,0.825 1.40067,1.5 1.59106,1.5 0.19039,0 0.0872,-0.675 -0.22943,-1.5 z M 159,377.88197 c 0,-0.55 -0.45,-0.72189 -1,-0.38197 -0.55,0.33992 -1,1.06803 -1,1.61803 0,0.55 0.45,0.72189 1,0.38197 0.55,-0.33992 1,-1.06803 1,-1.61803 z m 12.04966,-1.40765 C 173.04817,375.44085 174,374.18978 174,372.59644 c 0,-2.68453 -2.51591,-9.17922 -3.88318,-10.02424 -0.50242,-0.31051 -2.42173,0.84589 -4.26515,2.56977 -1.84342,1.72388 -4.36417,3.79892 -5.60167,4.61119 -3.73268,2.45006 -2.6886,3.49484 2.74561,2.74744 4.25458,-0.58515 5.09711,-0.42255 5.67991,1.0962 0.39873,1.03909 0.19191,1.94739 -0.49561,2.17656 -1.16858,0.38953 -1.68858,2.22664 -0.63025,2.22664 0.30231,0 1.87731,-0.68656 3.5,-1.52568 z M 136,373.82304 C 136,373.37037 136.51289,373 137.13976,373 c 0.62686,0 1.78013,-0.7875 2.56282,-1.75 1.03553,-1.27343 1.56481,-1.4096 1.94357,-0.5 0.76258,1.83132 4.80298,1.52433 6.58058,-0.5 0.84519,-0.9625 1.85683,-2.79895 2.24808,-4.08099 0.505,-1.65474 3.06771,-3.47049 8.83341,-6.25872 4.46712,-2.16025 8.52195,-4.64233 9.01073,-5.51575 0.82776,-1.47911 -0.89274,-15.79028 -3.47372,-28.89454 -2.29141,-11.63407 -2.29565,-11.5 0.36386,-11.5 1.33535,0 4.66892,0.66551 7.40793,1.47891 4.11159,1.22101 5.93066,2.60603 10.4315,7.94244 5.22331,6.19299 7.95148,8.01803 7.95148,5.3192 0,-0.6927 1.0125,-1.89068 2.25,-2.66218 4.87898,-3.0417 10.75,-8.58792 10.75,-10.15527 0,-0.90936 0.84124,-2.72657 1.86942,-4.03824 1.02818,-1.31167 2.81995,-4.63486 3.9817,-7.38486 2.9998,-7.10087 10.15417,-36.99772 9.97117,-41.66781 -0.17359,-4.43015 -1.78194,-3.11566 -1.80698,1.47683 -0.008,1.54496 -0.42306,2.55701 -0.92143,2.249 -0.49837,-0.30801 -0.67277,-1.45234 -0.38756,-2.54297 0.67107,-2.56619 -0.5042,-7.258 -1.64195,-6.55483 -0.48235,0.29811 -1.19439,2.90401 -1.5823,5.7909 -1.38197,10.28466 -2.42065,8.2786 -2.2011,-4.25112 0.18147,-10.35667 -0.0941,-13.15367 -1.60743,-16.31225 -1.61916,-3.37959 -1.68357,-4.40103 -0.56748,-9 0.69243,-2.85326 1.61514,-5.60356 2.05047,-6.11176 0.43532,-0.50821 -0.17934,-2.53321 -1.36592,-4.5 -5.37991,-8.9174 -16.29231,-20.15293 -14.14927,-14.56827 0.31821,0.82925 -0.25296,2.74175 -1.26926,4.25 -1.0163,1.50825 -2.3137,3.64228 -2.88312,4.74228 -0.56942,1.1 -2.23665,2.13991 -3.70496,2.31091 -2.1459,0.24991 -2.99699,-0.32212 -4.3382,-2.91572 -1.58067,-3.05668 -1.60178,-4.24262 -0.2374,-13.33939 0.23675,-1.57851 -0.55481,-2.11238 -4.2084,-2.83836 -2.475,-0.49179 -4.9275,-1.3044 -5.45,-1.8058 -1.30804,-1.25523 -17.15171,-1.10492 -22.05,0.20919 -2.2,0.59021 -6.475,1.4341 -9.5,1.87531 -7.66193,1.11752 -14.19698,3.02881 -16.16948,4.72905 -0.91821,0.79147 -2.71821,1.32548 -4,1.18667 -1.28179,-0.1388 -7.05552,2.10379 -12.83052,4.98353 -5.775,2.87974 -13.65,6.62045 -17.5,8.31267 -8.939481,3.92926 -20.108154,13.12187 -23.960079,19.72084 -1.628043,2.78911 -3.280644,5.0711 -3.672448,5.0711 -0.391803,0 -1.236809,1.58907 -1.877791,3.53126 -0.640982,1.9422 -2.221889,5.4297 -3.513127,7.75 -2.758477,4.95688 -6.398052,16.92741 -7.515597,24.71874 -0.43389,3.025 -1.279536,8.65 -1.879214,12.5 -1.463275,9.39439 -1.393559,38.76412 0.106226,44.75 1.171901,4.67725 2.808461,6.42089 2.815768,3 0.0024,-1.14619 0.709846,-0.5918 2.050222,1.60675 1.125566,1.84622 2.828004,3.56113 3.783195,3.81092 1.013369,0.265 1.827884,1.55577 1.955612,3.09908 C 60.128394,353.82204 62,355.03736 62,351.2 c 0,-1.76 0.45,-3.2 1,-3.2 0.55,0 1,0.64844 1,1.44098 0,0.79254 0.484779,1.7406 1.077286,2.10679 0.746171,0.46115 0.864952,-0.75015 0.386456,-3.94099 C 64.984542,344.41125 65.123651,343 65.917841,343 c 0.629711,0 1.393956,0.7875 1.698323,1.75 1.76035,5.56675 4.091526,9.66541 6.318143,11.10852 1.392976,0.90282 3.327611,2.42898 4.299188,3.39148 C 80.186743,361.185 82,361.54606 82,360 c 0,-0.55 -0.675,-1 -1.5,-1 -1.441939,0 -1.914291,-1.11404 -1.58004,-3.72651 0.08631,-0.67458 -0.607139,-2.39262 -1.540995,-3.81787 -1.830831,-2.7942 -2.067803,-9.16678 -0.402793,-10.83179 C 77.539277,340.06072 78,338.8451 78,337.92244 c 0,-2.9152 2.708054,-4.41664 5.383476,-2.9848 1.273414,0.68151 3.395574,1.08684 4.715911,0.90073 2.201927,-0.31036 2.445672,0.0754 2.945035,4.66163 0.759896,6.97893 2.530219,10.81752 5.909598,12.81377 2.302814,1.3603 3.39338,1.48507 5.31757,0.60835 l 2.42064,-1.10292 -1.84612,-3.62104 c -1.87387,-3.67549 -2.46414,-11.67682 -1.02822,-13.93774 0.51255,-0.80703 1.72105,0.86396 3.46318,4.78852 2.77426,6.24965 7.329,12.95106 8.80244,12.95106 2.09496,0 2.73597,-3.66262 1.19709,-6.84005 -1.32799,-2.74201 -1.368,-3.62813 -0.25746,-5.70318 1.73723,-3.24606 3.673,-3.11672 4.42244,0.29548 0.33248,1.51373 3.06823,5.44206 6.07946,8.72961 3.01123,3.28756 5.47496,6.54905 5.47496,7.24776 0,2.07912 -2.39429,1.45911 -6.57186,-1.7018 C 119.81063,351.53404 118,351.24453 118,354 c 0,1.1 0.62093,2 1.37985,2 0.75892,0 3.24758,2.47378 5.53035,5.49728 6.13661,8.12789 6.60335,10.19577 1.55462,6.88771 C 125.08739,367.48247 124,367.23585 124,367.82597 c 0,0.5808 0.45,1.33411 1,1.67403 0.55,0.33992 1.00031,1.60398 1.0007,2.80902 6.2e-4,1.95263 0.54455,2.19893 5,2.26402 2.74961,0.0402 4.9993,-0.29732 4.9993,-0.75 z M 128.10359,347.4652 C 126.39662,345.52107 125,343.13607 125,342.1652 c 0,-0.97086 -0.54,-2.3052 -1.2,-2.9652 -0.93333,-0.93333 -0.8073,-1.2 0.56715,-1.2 0.97194,0 3.29026,1.61496 5.15182,3.58879 2.13403,2.26273 3.86435,3.31703 4.68285,2.8533 1.04244,-0.5906 1.05193,-0.4702 0.0482,0.61121 -0.6875,0.74068 -1.25,2.3817 -1.25,3.6467 0,3.20219 -1.28527,2.87806 -4.89641,-1.2348 z m -5.90075,-17.72079 c -1.68454,-2.02975 -2.29042,-6.02185 -1.40304,-9.24441 1.02856,-3.73521 7.50205,-7.3243 9.78828,-5.4269 1.89608,1.57361 1.78421,6.30572 -0.24176,10.22656 -2.66975,5.16674 -6.02461,6.99783 -8.14348,4.44475 z m -65.016967,-7.24146 c -6.833045,-5.74963 -3.620173,-12.39339 6.028943,-12.46699 5.864332,-0.0447 7.267491,1.86229 5.887938,8.00223 -0.508832,2.26465 -1.07761,4.195 -1.263952,4.28967 -0.186341,0.0947 -1.345196,0.73464 -2.575233,1.42214 -3.22025,1.79988 -4.734432,1.56612 -8.077696,-1.24705 z m 79.411897,-4.23852 C 136.26899,317.93566 136,316.80014 136,315.74106 c 0,-1.05908 -0.92431,-3.10067 -2.05402,-4.53686 -2.45442,-3.12029 -2.32893,-7.54073 0.32517,-11.4542 2.30214,-3.3945 4.10215,-3.46761 7.2743,-0.29545 2.77774,2.77773 3.28683,7.8851 1.10375,11.07294 -0.74295,1.08488 -1.63906,3.16037 -1.99137,4.61221 -0.62689,2.58333 -2.87289,4.31191 -4.06006,3.12473 z M 116.01531,299.3635 c -0.0116,-1.61408 0.71826,-2.24417 2.98469,-2.57681 3.50061,-0.51378 4.0352,0.75547 0.75,1.7807 -1.2375,0.3862 -2.58061,1.20402 -2.98469,1.81739 -0.43282,0.65701 -0.74098,0.2374 -0.75,-1.02128 z m -50.773436,-5.39767 c -3.224495,-1.29572 -4.610699,-5.02066 -3.823046,-10.2731 0.642501,-4.2845 3.854553,-8.75268 5.272641,-7.33459 2.427499,2.4275 4.147811,13.29116 2.701542,17.06007 -0.683581,1.78139 -0.982636,1.82084 -4.151137,0.54762 z M 190.07258,262.36514 c -4.84831,-6.16363 -0.39304,-15.02709 6.92742,-13.78164 9.18085,1.56197 9.77361,9.94054 1.01923,14.40669 -5.03956,2.57099 -5.45857,2.53803 -7.94665,-0.62505 z m -46.37122,-0.84156 c -2.00935,-1.46927 -3.86544,-6.93241 -3.06445,-9.01977 0.29159,-0.75988 1.83742,-1.66872 3.43516,-2.01964 1.59775,-0.35092 3.16171,-1.05342 3.47548,-1.56111 0.31377,-0.50768 2.16707,-0.92306 4.11846,-0.92306 3.00163,0 3.43104,0.26947 2.7886,1.75 -0.41766,0.9625 -0.9656,3.21731 -1.21765,5.0107 -0.41004,2.91752 -2.19142,4.8939 -6.74799,7.48666 -0.55606,0.31641 -1.81049,-0.009 -2.78761,-0.72378 z M 206,247.5 c 0,-3.33333 0.38889,-4.5 1.5,-4.5 1.64546,0 1.81813,1.15936 0.875,5.875 -0.92554,4.62769 -2.375,3.78853 -2.375,-1.375 z m -130.259591,1.83103 c -0.262779,-0.45707 -1.011654,-2.48788 -1.664167,-4.51292 -1.024512,-3.17951 -0.919263,-4.20284 0.771367,-7.5 2.133851,-4.16154 6.789271,-9.01456 7.737703,-8.06613 0.326259,0.32626 0.797882,4.11553 1.048051,8.42061 0.328997,5.66159 0.07969,8.29329 -0.901021,9.51111 -1.556556,1.93291 -6.281016,3.38386 -6.991933,2.14733 z M 96.5,227 c 0.339919,-0.55 0.816476,-1 1.059017,-1 C 97.801558,226 98,226.45 98,227 c 0,0.55 -0.476558,1 -1.059017,1 -0.582459,0 -0.780902,-0.45 -0.440983,-1 z m 41.87466,-7.23831 c 0.1476,-5.03114 0.31391,-5.3267 4.20519,-7.47325 3.71011,-2.04661 4.23559,-2.10601 6.23583,-0.70499 1.20138,0.84148 2.18432,2.31444 2.18432,3.27325 0,2.18415 -1.87002,4.13041 -3.40328,3.54204 -0.63777,-0.24473 -2.69621,1.14043 -4.57432,3.07814 -1.8781,1.93772 -3.72674,3.52312 -4.10808,3.52312 -0.38134,0 -0.62419,-2.35724 -0.53966,-5.23831 z M 96,223.53518 c 0,-0.25565 1.0125,-1.00432 2.25,-1.66372 2.04022,-1.08712 2.12204,-1.04378 0.877555,0.46482 C 97.84973,223.8853 96,224.59437 96,223.53518 Z m 97.41817,147.94981 c 1.66312,-1.25842 1.75613,-1.80703 0.69952,-4.12604 l -1.21865,-2.67464 -2.44952,3.60479 C 189.10228,370.27174 188,372.14277 188,372.44695 c 0,1.08967 3.53656,0.46178 5.41817,-0.96196 z m -5.27643,-4.47589 c 1.57204,-1.64499 2.85007,-3.78249 2.84006,-4.75 -0.0177,-1.70817 -3.73967,-8.00999 -7.92455,-13.41726 C 181.92576,347.37985 181,345.71787 181,345.14854 c 0,-0.56932 -0.98535,-1.7253 -2.18967,-2.56884 -1.20431,-0.84353 -1.89019,-1.83317 -1.52416,-2.1992 0.36602,-0.36603 1.31131,-0.12952 2.10064,0.52556 2.5046,2.07864 2.86472,-0.64683 0.50685,-3.83602 -3.95034,-5.34312 -4.56006,-4.63612 -4.1242,4.78219 0.33018,7.13477 0.75466,8.95395 2.42615,10.39777 1.11428,0.9625 2.87611,1.75 3.91517,1.75 2.52694,0 2.43604,3.04424 -0.11078,3.71025 -1.1,0.28766 -2,0.94961 -2,1.471 0,1.38513 4.15483,10.81875 4.76488,10.81875 0.28523,0 1.80481,-1.3459 3.37686,-2.9909 z M 110,360.05902 c 0,-0.51754 -0.45,-1.2191 -1,-1.55902 -0.55,-0.33992 -1,0.0835 -1,0.94098 0,0.85746 0.45,1.55902 1,1.55902 0.55,0 1,-0.42344 1,-0.94098 z M 57.1125,349.7125 C 56.295833,348.89583 56,349.00774 56,350.13333 c 0,1.98786 1.344703,3.33256 1.841667,1.84167 0.210833,-0.6325 -0.117292,-1.65063 -0.729167,-2.2625 z m 32.637364,0.70403 c -0.952958,-0.95296 -2.863492,0.5906 -2.153308,1.7397 0.422119,0.683 0.981465,0.66575 1.699645,-0.0524 0.588756,-0.58876 0.792905,-1.34803 0.453663,-1.68727 z M 208,348.05902 c 0,-1.06754 0.39188,-2.18318 0.87084,-2.47919 0.47896,-0.29602 1.1593,-1.98055 1.51187,-3.7434 0.35258,-1.76286 1.39991,-4.04374 2.32742,-5.06863 1.13818,-1.25767 1.60192,-3.23692 1.42656,-6.08858 -0.1429,-2.32383 0.23009,-5.51372 0.82887,-7.08864 0.59879,-1.57492 1.33017,-4.48959 1.62531,-6.47704 0.29513,-1.98745 0.70844,-4.65538 0.91847,-5.92874 0.64784,-3.92774 -1.81124,-1.91593 -4.76066,3.89478 C 208.69259,323.07053 204.2594,350 207,350 c 0.55,0 1,-0.87344 1,-1.94098 z M 201.94646,336.25 c 1.21835,-5.3625 2.58656,-11.21206 3.04046,-12.99902 0.4539,-1.78696 0.52224,-3.4363 0.15187,-3.6652 -0.37037,-0.22891 -3.35866,2.24565 -6.64063,5.49901 -3.28197,3.25337 -6.31168,5.91521 -6.73269,5.91521 -1.58024,0 -0.64345,2.38781 3.37377,8.59957 2.27659,3.52024 4.24112,6.40043 4.36564,6.40043 0.12451,0 1.22322,-4.3875 2.44158,-9.75 z m -31.58231,-12.46828 c -0.10472,-3.14363 -0.66958,-5.38353 -1.42078,-5.63393 -0.90896,-0.30299 -1.07028,0.46768 -0.59516,2.84328 0.35849,1.79241 0.65179,4.32768 0.65179,5.63393 0,1.30625 0.34605,2.375 0.76899,2.375 0.42294,0 0.69076,-2.34823 0.59516,-5.21828 z m 49.89258,-3.65544 c 0.27397,-1.04769 0.11018,-2.5172 -0.36399,-3.26558 -0.70508,-1.11285 -0.86739,-1.08748 -0.89108,0.1393 -0.0159,0.825 -0.31871,2.58287 -0.67284,3.90637 -0.41355,1.54559 -0.27299,2.17716 0.39295,1.76559 0.57025,-0.35244 1.26098,-1.49799 1.53496,-2.54568 z M 223.70005,308.25 c 0.8789,-2.0625 1.74651,-4.875 1.92802,-6.25 0.18151,-1.375 0.56374,-4.075 0.84939,-6 l 0.51937,-3.5 -1.14988,2.95439 c -0.63243,1.62492 -2.02493,3.87492 -3.09444,5 -2.8834,3.03322 -3.84142,6.18157 -2.75251,9.04561 1.27372,3.35013 1.81817,3.16619 3.70005,-1.25 z m 231.41247,-40 c -3.68964,-3.7125 -7.01415,-7.54771 -7.38779,-8.52268 -0.37365,-0.97498 -1.40793,-2.05226 -2.29839,-2.39396 C 442.42543,256.1818 429,241.73358 429,239.65561 c 0,-1.31651 2.31425,-0.60882 3.57885,1.09439 1.0676,1.43787 1.64769,1.53755 3.25243,0.55886 2.17257,-1.325 3.16872,-0.80008 3.16872,1.66975 0,0.9049 1.35,2.64337 3,3.86327 1.65,1.2199 3,2.87952 3,3.68806 0,1.79936 9.30515,2.06775 13.6849,0.39471 l 2.8151,-1.07534 -2.5,-1.38922 c -1.375,-0.76407 -3.9625,-1.40517 -5.75,-1.42465 -3.69063,-0.0402 -4.23611,-1.43733 -1.19636,-3.06415 2.03346,-1.08827 2.02955,-1.11801 -0.39791,-3.02746 -1.34836,-1.06061 -5.75999,-2.65768 -9.80364,-3.54903 -4.04365,-0.89136 -8.43147,-1.86008 -9.75071,-2.15271 -1.64361,-0.36459 -2.17588,-0.17166 -1.69099,0.61292 C 430.82631,236.52798 430.47533,237 429.55902,237 428.70156,237 428,236.33258 428,235.51685 c 0,-0.81574 -2.1375,-2.61975 -4.75,-4.00892 -2.6125,-1.38918 -5.51592,-3.06834 -6.45204,-3.73148 -2.38348,-1.68844 -3.15115,-0.47265 -2.361,3.7392 0.64393,3.43245 3.56818,7.11012 14.60652,18.36981 1.94892,1.988 4.33184,4.86737 5.29538,6.39862 1.05504,1.67663 2.9802,3.02973 4.8398,3.40165 1.81952,0.36391 3.28644,1.3768 3.57125,2.46593 0.26584,1.01659 1.10587,1.84834 1.86672,1.84834 0.76085,0 1.38337,0.82156 1.38337,1.82569 0,3.40825 8.1411,9.05874 13.16047,9.13427 2.46866,0.0371 2.1768,-0.44663 -4.04795,-6.70996 z m -38.58287,-9.29798 c 0.39811,-0.64415 2.34754,-0.79306 5.05902,-0.38645 6.22045,0.93281 5.8312,-0.83608 -2.2031,-10.0116 -6.54298,-7.47236 -7.75206,-8.38803 -8.81178,-6.67337 -0.83091,1.34444 -5.34665,1.94654 -6.43517,0.85802 -1.45512,-1.45512 -2.87693,-0.11864 -5.01442,4.71351 -3.57429,8.08027 -3.57439,8.07917 0.91092,9.55946 2.23583,0.73789 4.29414,1.71215 4.57403,2.16501 0.74404,1.20389 11.15893,1.00768 11.9205,-0.22458 z M 451,256 c 0,-0.55 -0.47656,-1 -1.05902,-1 -0.58246,0 -0.7809,0.45 -0.44098,1 0.33992,0.55 0.81648,1 1.05902,1 0.24254,0 0.44098,-0.45 0.44098,-1 z m 21,-2.96862 c 0,-0.53273 -0.675,-0.70959 -1.5,-0.39301 -0.825,0.31659 -1.5,0.75246 -1.5,0.96862 0,0.21615 0.675,0.39301 1.5,0.39301 0.825,0 1.5,-0.43588 1.5,-0.96862 z m 4.72917,-0.63555 c -0.33229,-0.33229 -1.1948,-0.36781 -1.91667,-0.0789 -0.79773,0.31922 -0.56078,0.55618 0.60417,0.60416 1.05416,0.0434 1.64479,-0.19293 1.3125,-0.52522 z m -88.75076,-10.16339 c 3.62226,-7.74059 5.24348,-13.97727 3.85625,-14.83462 -0.52545,-0.32475 -2.16571,-0.12239 -3.64502,0.44971 -1.4793,0.57209 -6.28964,1.27384 -10.68964,1.55945 -11.14801,0.72363 -14.34947,1.10916 -15.05306,1.81275 -1.0214,1.0214 1.27336,4.3393 5.26485,7.61223 2.08351,1.70844 4.73557,4.02015 5.89345,5.13714 1.15788,1.117 2.3722,2.0309 2.69848,2.0309 0.32628,0 1.80745,1.1253 3.2915,2.50066 3.39498,3.14636 4.29114,2.47629 8.38319,-6.26822 z M 465.5,243.0137 c 0,-1.78023 -3.29848,-2.61522 -4.71909,-1.19461 -0.55365,0.55365 -0.68839,1.52159 -0.29942,2.15096 0.99405,1.6084 5.01851,0.84148 5.01851,-0.95635 z M 481,241 c 0,-0.55 -0.19844,-1 -0.44098,-1 -0.24254,0 -0.7191,0.45 -1.05902,1 -0.33992,0.55 -0.14148,1 0.44098,1 0.58246,0 1.05902,-0.45 1.05902,-1 z m -72,-4.94098 c 0,-4.74995 -1.29374,-5.90452 -2.83233,-2.52766 -0.68804,1.51008 -0.74482,2.46864 -0.14623,2.46864 0.53821,0 0.97856,0.9 0.97856,2 0,1.1 0.45,2 1,2 0.55,0 1,-1.77344 1,-3.94098 z m 109.427,0.41951 c 1.05985,-0.80183 1.72813,-1.65674 1.48506,-1.8998 -0.24307,-0.24307 -1.56022,0.41727 -2.927,1.46743 -1.36678,1.05015 -2.03506,1.90506 -1.48506,1.8998 0.55,-0.005 1.86715,-0.66561 2.927,-1.46743 z M 499,233.86258 c 0,-2.56495 7.73054,-10.07616 9.88155,-9.60118 0.89015,0.19656 1.49465,0.92707 1.34333,1.62335 -0.38675,1.77965 3.64605,0.39361 6.62647,-2.27746 5.7296,-5.13489 6.27558,-5.83414 5.70872,-7.31136 -0.75647,-1.9713 1.13928,-4.29593 3.50336,-4.29593 3.17641,0 3.1228,1.84865 -0.15819,5.45421 -6.75338,7.42146 -7.52663,10.87733 -0.90524,4.04579 1.86578,-1.925 3.73994,-3.5 4.16478,-3.5 1.93421,0 -0.92144,3.31567 -8.22963,9.55537 -7.9224,6.7641 -11.1053,11.1 -4.38622,5.97511 1.95191,-1.4888 4.13759,-2.48102 4.85705,-2.20493 0.71947,0.27608 2.5307,-0.30003 4.02496,-1.28025 2.90015,-1.90247 11.541,-12.82846 11.55855,-14.6153 0.006,-0.5885 1.58551,-2.91004 3.51051,-5.15897 1.925,-2.24893 3.5,-4.36457 3.5,-4.70143 0,-0.33687 1.09878,-2.29033 2.44174,-4.34104 3.70704,-5.6607 8.49744,-21.351 9.48331,-31.06128 0.48398,-4.767 0.66486,-9.0168 0.40194,-9.44399 -0.26292,-0.42719 -0.63392,-3.35219 -0.82445,-6.5 -0.9083,-15.00669 -4.83215,-32.83384 -9.38755,-42.6503 -4.43766,-9.56274 -5.38847,-12.417919 -4.71757,-14.166275 0.49523,-1.290547 0.15514,-1.513323 -1.63612,-1.07172 -2.01004,0.49554 -2.51614,-0.13101 -4.55477,-5.638755 -3.03248,-8.192823 -3.68599,-9.247599 -5.5249,-8.917163 -1.28627,0.231132 -1.48279,-0.645559 -1.14394,-5.103037 0.44017,-5.790298 0.50973,-5.668794 -6.66971,-11.650132 -1.9976,-1.664249 -4.4726,-3.032799 -5.5,-3.041221 -2.1213,-0.01739 -5.66135,-1.944343 -3.61798,-1.969374 2.45123,-0.03003 1.30344,-5.162977 -1.8035,-8.065289 C 507.96895,49.168579 497.96143,44 495.55347,44 c -2.23531,0 -5.62853,4.686271 -6.23183,8.606604 C 488.54612,57.645995 487.3986,59 483.90324,59 c -6.03922,0 -7.66902,-11.05306 -2.36459,-16.036314 1.31984,-1.239923 2.16202,-2.638994 1.87151,-3.109046 C 482.42592,38.262105 481,38.989035 481,41.083333 c 0,2.619372 -2.38882,2.007488 -2.79386,-0.715633 -0.23846,-1.603177 -1.56882,-2.194275 -7.05649,-3.135307 -8.28014,-1.419885 -29.61118,0.0038 -32.07506,2.140793 -0.86602,0.751121 -2.69959,1.595341 -4.07459,1.876045 -1.375,0.280704 -5.34661,1.42789 -8.8258,2.549302 -5.00171,1.612147 -6.21185,1.741966 -5.78139,0.620199 0.80508,-2.098006 -0.80983,-1.721803 -2.98782,0.696031 -1.04775,1.16312 -2.8613,2.480619 -4.03012,2.927776 -1.54593,0.591424 -2.00401,1.446659 -1.68071,3.137883 C 412.30271,54.363877 410.39417,59 408.47509,59 c -0.86593,0 -2.8568,0.663149 -4.42416,1.473664 -2.5141,1.300088 -2.99502,1.298636 -4.08302,-0.01233 -0.85195,-1.026537 -1.60718,-1.175673 -2.4426,-0.48234 -0.66513,0.55201 -1.491,0.721988 -1.83525,0.377729 -0.89952,-0.899518 -6.78276,1.603623 -9.53091,4.055116 -5.42137,4.836133 -11.03688,15.858447 -9.76628,19.169573 0.39051,1.01766 0.032,1.405762 -1.11649,1.208758 -1.47632,-0.253227 -5.51418,5.494649 -9.88064,14.065029 -0.37975,0.745359 -2.19699,2.995361 -4.03832,5.000001 -1.84133,2.00464 -3.35001,4.02984 -3.35264,4.50044 -0.003,0.47061 -1.12978,2.19263 -2.50478,3.82673 -1.375,1.63409 -2.5,3.57941 -2.5,4.32293 0,0.74351 -0.58587,1.94649 -1.30193,2.67327 -1.462,1.4839 -8.69807,15.83597 -8.69807,17.25183 0,0.50197 -1.09014,3.64799 -2.42254,6.99114 -1.3324,3.34315 -2.70206,8.10346 -3.04368,10.57846 -0.34162,2.475 -1.0168,6.975 -1.5004,10 -1.86825,11.6863 -2.24297,22.04344 -0.85721,23.69301 0.72811,0.86673 1.77383,4.77517 2.32383,8.68543 0.97955,6.9642 1.08178,7.14939 5,9.05753 3.25429,1.58481 6.74979,2.02506 18.75,2.36148 8.1125,0.22743 14.75,0.1187 14.75,-0.24163 0,-1.76686 -3.20503,-6.54714 -4.04259,-6.0295 C 371.41719,201.8602 371,200.59293 371,198.61803 c 0,-1.925 -0.43777,-3.77055 -0.97283,-4.10124 -1.59724,-0.98715 -3.07065,-7.96487 -3.53839,-16.75697 -0.24169,-4.5429 -0.75664,-10.95982 -1.14434,-14.25982 -0.79476,-6.76476 -0.77785,-17.49665 0.0347,-22 0.29771,-1.65 1.0448,-5.925 1.66021,-9.5 1.27664,-7.41616 3.89171,-17.66345 5.16772,-20.25 1.11343,-2.25696 3.53805,-2.25696 4.02001,0 0.20554,0.9625 -0.0184,3.55 -0.49756,5.75 -0.77937,3.57815 -0.64711,6.92365 0.45531,11.517 0.62896,2.62065 4.96011,9.27021 9.75909,14.983 2.54112,3.025 6.18079,7.525 8.08816,10 1.90737,2.475 4.59295,5.76938 5.96795,7.32085 3.15283,3.55745 10.8615,17.59942 10.94059,19.92915 0.10212,3.00823 3.06458,1.92824 7.64861,-2.78838 2.42594,-2.49611 4.4108,-4.7455 4.4108,-4.99863 0,-0.25314 1.86539,-4.62337 4.14531,-9.71162 6.55271,-14.62412 18.06418,-28.62163 33.92489,-41.25137 8.53474,-6.79613 12.58497,-9.51149 13.22808,-8.86839 0.88372,0.88373 2.90188,-3.66762 2.31011,-5.20975 C 476.21226,107.38949 476.876,107 479.03141,107 c 2.82548,0 3.94681,1.27741 2.11507,2.40949 -0.46944,0.29013 -3.72429,5.60419 -7.23298,11.80901 -6.30536,11.15048 -8.93242,17.49452 -10.46907,25.2815 -0.43414,2.2 -0.85225,4.225 -0.92913,4.5 -0.0769,0.275 -0.69128,3.01574 -1.36532,6.09053 -0.67404,3.07479 -3.18976,9.03729 -5.59047,13.25 -2.40072,4.21271 -4.11396,7.65947 -3.80722,7.65947 0.30674,0 -0.12017,0.7875 -0.94871,1.75 -0.82853,0.9625 -2.57958,3.775 -3.89122,6.25 -1.31164,2.475 -3.29099,5.69333 -4.39856,7.15185 -1.1076,1.45852 -3.1388,4.12656 -4.5138,5.92897 C 433.78247,204.60935 428.44664,210 427.19187,210 426.53634,210 426,209.01581 426,207.81291 c 0,-2.08687 -0.14092,-2.0525 -3.07529,0.75 l -3.07529,2.93709 4.82529,0.66795 c 2.65391,0.36738 8.20029,1.12926 12.32529,1.69308 9.50701,1.29945 12.35319,2.18883 24.18807,7.5583 3.12845,1.41937 6.12714,2.58067 6.66377,2.58067 0.53663,0 3.602,1.3108 6.81193,2.91289 8.30687,4.14599 14.64501,6.77638 18.22048,7.56169 1.70105,0.37361 3.35407,1.10201 3.67338,1.61867 0.89286,1.44468 2.44237,0.0295 2.44237,-2.23067 z m -16.25,-6.02486 c -1.5125,-0.55241 -2.75,-1.38619 -2.75,-1.85284 0,-0.46665 3.4875,-1.57279 7.75,-2.45809 4.2625,-0.8853 11.36768,-3.39099 15.78929,-5.56821 4.4216,-2.17722 8.52984,-3.95858 9.12941,-3.95858 1.50377,0 9.3313,-7.71847 9.3313,-9.20128 0,-0.66193 1.44906,-2.69855 3.22013,-4.52583 1.77106,-1.82728 4.13356,-5.20065 5.25,-7.49638 1.11643,-2.29572 2.62976,-4.35956 3.36297,-4.58631 1.01456,-0.31376 0.94506,0.33811 -0.29087,2.72814 -0.89318,1.72722 -1.34864,3.58588 -1.01213,4.13037 1.73199,2.80241 -17.12407,22.11133 -26.0301,26.65526 -2.75,1.40307 -5.14157,2.91838 -5.31461,3.36736 -0.17303,0.44897 -0.91501,0.58592 -1.64885,0.30432 -0.73383,-0.2816 -1.63585,-0.024 -2.00449,0.57249 -0.36863,0.59647 -1.03683,0.85792 -1.48488,0.58101 -0.44805,-0.27691 -3.00446,0.16088 -5.6809,0.97287 -2.67645,0.81198 -4.86627,1.44568 -4.86627,1.40821 0,-0.0375 -1.2375,-0.5201 -2.75,-1.07251 z m 28.01132,-33.40973 C 509.98981,193.65647 511.21768,188 512.15666,188 c 0.51132,0 3.00227,-2.25 5.53546,-5 4.33367,-4.7046 7.30788,-6.31553 7.30788,-3.95819 0,0.573 -0.7875,1.88738 -1.75,2.92084 -0.9625,1.03347 -2.63656,4.16465 -3.72014,6.95819 -1.08358,2.79354 -2.20858,5.11016 -2.5,5.14806 -0.29142,0.0379 -1.72733,0.22793 -3.1909,0.4223 -1.46357,0.19436 -2.84851,0.16592 -3.07764,-0.0632 z m 25.71987,-6.45843 c -0.38328,-0.62016 -0.17178,-3.22951 0.47,-5.79856 3.01579,-12.07226 2.94393,-11.9178 5.79864,-12.46351 3.51495,-0.67192 4.25017,-0.16338 4.25017,2.93978 0,2.97303 -5.77168,15.91439 -6.68865,14.99741 -0.34503,-0.34503 -1.19117,-0.15938 -1.88031,0.41255 -0.87438,0.72567 -1.46355,0.69918 -1.94985,-0.0877 z m -53.99916,-3.0514 c -0.72622,-3.30644 0.37125,-4.98058 7.43472,-11.34133 4.33282,-3.90177 6.5967,-4.01483 6.54383,-0.32683 -0.0337,2.35218 0.3641,2.75 2.75,2.75 1.72085,0 2.78942,0.53494 2.78942,1.39641 0,1.85248 -6.60699,7.59501 -8.7848,7.63539 -0.94336,0.0175 -2.58871,0.6925 -3.65633,1.5 -3.36405,2.54444 -6.31117,1.87245 -7.07684,-1.61364 z m 28.49351,-6.44764 c -0.71278,-0.85884 -1.89428,-1.33194 -2.62556,-1.05133 -2.85077,1.09395 -2.91724,-9.92918 -0.0735,-12.19169 0.67295,-0.5354 2.91104,-1.57102 4.97354,-2.30137 2.0625,-0.73035 3.75,-1.68751 3.75,-2.12702 0,-1.08895 3.74742,-1.01681 4.42853,0.0852 0.46746,0.75637 0.69817,6.52338 0.49036,12.25737 -0.0815,2.24981 -4.47072,6.19708 -7.3143,6.57789 -1.2832,0.17184 -2.91627,-0.39025 -3.62905,-1.2491 z m -10.16304,-6.15363 c 0.72187,-0.28887 1.58438,-0.25335 1.91667,0.0789 0.33229,0.33229 -0.25834,0.56864 -1.3125,0.52522 -1.16495,-0.048 -1.4019,-0.28494 -0.60417,-0.60416 z m 13.82236,-21.38947 c -4.04324,-3.18041 -3.46758,-7.4533 1.90312,-14.12601 2.49292,-3.09728 5.55144,-4.16032 9.48449,-3.29647 3.43391,0.75421 3.7747,2.88894 1.81592,11.37485 -1.03928,4.50239 -1.56799,5.19498 -5.02024,6.57629 -4.90036,1.96074 -5.0291,1.95243 -8.18329,-0.52866 z M 467,144.11803 c 0,-0.55 0.45,-1.27811 1,-1.61803 0.55,-0.33992 1,-0.16803 1,0.38197 0,0.55 -0.45,1.27811 -1,1.61803 -0.55,0.33992 -1,0.16803 -1,-0.38197 z m 1.79958,-3.65178 c -0.93462,-0.93462 7.56259,-16.51524 11.88523,-21.79298 1.27336,-1.55469 2.31519,-3.94678 2.31519,-5.31574 0,-1.36896 0.46583,-3.35943 1.03518,-4.42327 1.30046,-2.42992 3.44219,-2.58936 2.47519,-0.18426 -0.38699,0.9625 -0.80012,2.2 -0.91808,2.75 -0.73067,3.40691 -2.14914,6.43215 -4.45434,9.5 -2.92992,3.89924 -4.73349,7.01726 -8.53195,14.75 -2.62869,5.35138 -2.87103,5.65164 -3.80642,4.71625 z M 376.34334,96.452342 c -1.03297,-2.691869 0.41377,-9.55184 2.32194,-11.009868 2.26338,-1.729446 8.34615,-3.553446 9.49087,-2.845966 2.52954,1.563341 -1.21743,10.452174 -5.90643,14.011653 -2.37259,1.801057 -5.18392,1.72689 -5.90638,-0.155819 z M 442.52568,91.04966 C 441.68656,89.426973 441,86.39817 441,84.318986 c 0,-4.725856 3.59117,-13.582572 6.15714,-15.185049 1.68723,-1.053691 2.50566,-0.629029 6.5153,3.380605 4.45023,4.450232 4.56687,4.722819 3.94924,9.228969 -0.71567,5.221378 -3.46313,8.807546 -8.33956,10.885368 -4.46582,1.902862 -5.02315,1.772595 -6.75644,-1.579219 z M 478.0139,79.536556 c -2.11075,-5.551684 -0.1551,-13.152175 3.76791,-14.643699 6.32339,-2.404149 9.51628,3.055856 6.57315,11.240424 C 486.9756,79.969154 486.13454,81 484.38424,81 c -1.22136,0 -2.92622,0.270745 -3.78855,0.601655 -1.07675,0.413185 -1.8855,-0.233716 -2.58179,-2.065099 z M 390.02135,72.25 c 0.016,-2.059486 1.02997,-3.463696 4.03822,-5.592324 6.15988,-4.358718 9.90716,-1.465139 6.44005,4.972888 C 398.86782,74.66063 398.24768,75 394.34253,75 c -4.07581,0 -4.34122,-0.168903 -4.32118,-2.75 z M 436.75,60.911729 c -3.97235,-2.295132 -0.65488,-9.463745 4.85824,-10.498013 2.12186,-0.398064 3.97235,-0.176757 4.88999,0.584812 0.81196,0.673873 2.15703,0.964002 2.98904,0.644732 1.64096,-0.629698 1.93935,1.161597 0.86302,5.181001 -0.48947,1.827877 -1.11181,2.201427 -2.91401,1.749101 -1.32148,-0.33167 -2.87117,0.0044 -3.66059,0.793807 -2.02705,2.027052 -5.04303,2.690097 -7.02569,1.54456 z M 214.60625,232.78125 c -0.35406,-1.77031 -1.14653,-3.68281 -1.76104,-4.25 -0.812,-0.74946 -0.91994,-0.34813 -0.39503,1.46875 0.39725,1.375 0.71143,3.2875 0.69819,4.25 -0.0132,0.9625 0.45421,1.75 1.03878,1.75 0.66366,0 0.82107,-1.2089 0.4191,-3.21875 z m 254.08788,1.85796 c 0.42336,-0.42336 -0.44261,-0.6074 -1.92438,-0.40896 -1.48177,0.19844 -3.04051,0.70718 -3.46388,1.13054 -0.42336,0.42336 0.44261,0.6074 1.92438,0.40896 1.48177,-0.19844 3.04051,-0.70718 3.46388,-1.13054 z M 437.73834,231.75 c -0.0756,-1.2375 -0.97771,-3.77982 -2.0048,-5.64961 -1.28476,-2.33886 -1.52435,-3.61164 -0.76787,-4.07917 0.60502,-0.37393 -0.69068,-1.2704 -2.88085,-1.99323 -3.03627,-1.00206 -5.2381,-1.06413 -9.28262,-0.26169 -3.64525,0.72322 -5.69283,0.72959 -6.5522,0.0204 -1.9185,-1.58327 -1.49749,-0.139 1.20948,4.14912 2.94261,4.66139 2.79847,4.56455 11.295,7.58859 8.40898,2.99287 9.15394,3.01158 8.98386,0.2256 z m 23.51054,1.09888 c -1.41733,-1.41733 -8.71238,-2.58515 -15.3042,-2.44996 -7.66907,0.15728 -5.85835,2.08295 2.10888,2.24275 3.88471,0.0779 7.33686,0.41541 7.67144,0.75 0.33458,0.33458 1.97333,0.60833 3.64167,0.60833 2.28769,0 2.75037,-0.28296 1.88221,-1.15112 z M 387.5,223.49436 c 2.95995,-1.20206 7.20846,-5.1218 6.41054,-5.91444 -0.2258,-0.22431 -2.88554,-0.52793 -5.91054,-0.67472 -3.025,-0.1468 -5.74548,-0.62568 -6.04551,-1.06419 -0.30002,-0.43851 -5.47502,-0.97007 -11.5,-1.18126 -12.83606,-0.44992 -32.5472,-3.22684 -37.23842,-5.24618 -5.5464,-2.38746 -7.21607,-1.92149 -7.21607,2.01385 0,3.57949 3.58893,7.57258 6.80612,7.57258 0.84502,0 2.29561,0.68708 3.22354,1.52684 0.92793,0.83977 5.01336,2.14548 9.07874,2.90159 9.36457,1.74169 38.15499,1.78647 42.3916,0.0659 z m 58.95729,0.57474 c 0.73955,-1.1966 -1.14162,-2.38223 -2.4736,-1.55902 C 442.86533,223.20126 443.59952,225 445,225 c 0.48508,0 1.14086,-0.41891 1.45729,-0.9309 z M 440,222 c -1.93876,-1.25292 -3,-1.25292 -3,0 0,0.55 1.0125,0.99311 2.25,0.98469 1.81944,-0.0124 1.96296,-0.20082 0.75,-0.98469 z m -42.16063,-19.63393 c 0.0508,-2.52866 -0.62611,-6.00798 -1.50413,-7.73182 -1.43404,-2.81545 -9.86535,-16.14652 -14.33063,-22.6587 -0.95203,-1.38844 -2.77378,-5.66344 -4.04833,-9.5 -1.27454,-3.83655 -3.13611,-8.04874 -4.13682,-9.36041 C 372.81876,151.80347 372,149.46753 372,147.92416 c 0,-1.54337 -0.402,-3.05457 -0.89333,-3.35823 -0.96535,-0.59662 -2.46664,4.04261 -1.70633,5.27282 0.25385,0.41073 0.74561,4.9783 1.09281,10.15017 0.34721,5.17187 0.86459,9.7809 1.14975,10.2423 0.28516,0.4614 0.50532,3.59006 0.48924,6.95257 -0.0277,5.79268 1.19576,11.9633 3.92901,19.81621 2.09106,6.00785 9.31179,11.66714 15.54879,12.18649 4.87746,0.40613 6.11149,-0.94498 6.22943,-6.82042 z m 5.72502,-5.38788 C 403.1102,191.32772 403.03619,191 402.21429,191 c -1.22769,0 -1.76575,9.29869 -0.64317,11.11507 1.13681,1.8394 2.31083,-1.18619 1.99327,-5.13688 z M 405.48004,179.75 c -0.46452,-2.83753 -2.33114,-6.41025 -5.61649,-10.75 -7.4493,-9.84008 -18.20343,-21.84764 -19.6393,-21.92832 -2.10073,-0.11803 -0.61807,10.08181 2.24943,15.47485 1.38948,2.61324 2.52632,5.32471 2.52632,6.02549 0,0.70077 1.35,2.62413 3,4.27413 1.65,1.65 3,3.70962 3,4.57693 0,0.8673 0.69887,1.57692 1.55305,1.57692 0.85418,0 3.20864,1.125 5.23214,2.5 2.02349,1.375 4.73917,2.5 6.03484,2.5 2.21396,0 2.31388,-0.25583 1.66001,-4.25 z M 460.76169,146 c 2.00715,-7.99236 1.52413,-10.89135 -0.79144,-4.75 -1.54227,4.09043 -2.84268,12.75 -1.91466,12.75 0.38336,0 1.60111,-3.6 2.7061,-8 z m -74.58541,618.32317 c 0.19068,-0.99011 1.12902,-1.95087 2.0852,-2.13501 2.38543,-0.45939 2.18656,1.05094 -0.34668,2.63298 -1.83881,1.14835 -2.04424,1.08951 -1.73852,-0.49797 z M 511.96421,494.83565 c -1.14512,-2.23286 -1.1183,-2.25968 0.60945,-0.60946 0.99401,0.94941 1.53304,2.00045 1.19784,2.33565 -0.3352,0.3352 -1.14849,-0.44159 -1.80729,-1.72619 z m 15.06475,-60.79659 c -0.80907,-0.51167 -1.13586,-1.2655 -0.72619,-1.67516 0.40967,-0.40967 1.50556,0.0159 2.43533,0.94562 1.80738,1.80739 0.72543,2.26921 -1.70914,0.72954 z M 317.01531,194.75 c 0.0124,-1.81944 0.20082,-1.96296 0.98469,-0.75 1.25292,1.93876 1.25292,3 0,3 -0.55,0 -0.99311,-1.0125 -0.98469,-2.25 z M 370.73333,64.875912 c 0.67834,-0.683418 1.48524,-0.990671 1.79313,-0.682784 0.30789,0.307887 -0.24711,0.867048 -1.23333,1.242579 -1.4252,0.542685 -1.54006,0.427821 -0.5598,-0.559795 z M 376.5,60 c 0.33992,-0.55 0.81648,-1 1.05902,-1 0.24254,0 0.44098,0.45 0.44098,1 0,0.55 -0.47656,1 -1.05902,1 -0.58246,0 -0.7809,-0.45 -0.44098,-1 z" id="path12" inkscape:connector-curvature="0"/>
</svg>
