<?xml version="1.0" encoding="utf-8"?>

<svg xmlns="http://www.w3.org/2000/svg" version="1.1" viewBox="0 0 308.16 382.07999">











	<path d="m 297.58792,381.17465 c -0.89292,-0.28743 -1.08226,-1.10368 -1.423,-6.13466 -0.1524,-2.25027 -0.4552,-3.61421 -1.66832,-7.51469 -0.27279,-0.87709 -0.55742,-1.98454 -0.63251,-2.46105 -0.0751,-0.47648 -0.83714,-3.43088 -1.69342,-6.56532 -0.85629,-3.1344 -1.72307,-6.34694 -1.92619,-7.13894 -1.20296,-4.69062 -3.54145,-11.06803 -4.98691,-13.6 -0.4019,-0.704 -0.98643,-1.928 -1.29896,-2.72 -0.31252,-0.792 -1.01367,-2.232 -1.55809,-3.2 -0.54442,-0.968 -1.63126,-3.344 -2.41519,-5.28 -0.78393,-1.936 -2.02911,-4.35267 -2.76706,-5.3704 -0.73796,-1.01769 -1.43798,-2.1697 -1.5556,-2.55999 -0.27434,-0.91029 -1.05529,-2.76655 -1.5102,-3.58961 -1.57848,-2.85593 -2.7936,-6.40808 -3.01031,-8.8 -0.0937,-1.03478 -0.59215,-2.68301 -1.20955,-4 -1.22211,-2.60692 -1.69861,-3.84885 -1.90307,-4.96 -0.081,-0.44 -0.57343,-1.99754 -1.09439,-3.4612 -0.69166,-1.94328 -0.90766,-3.04057 -0.80065,-4.06746 0.10241,-0.98275 -0.0524,-1.85598 -0.51398,-2.89948 -0.36329,-0.82127 -0.66052,-1.87938 -0.66052,-2.35137 0,-0.47199 -0.21142,-1.13769 -0.46982,-1.47933 -0.2584,-0.34163 -0.4744,-1.12912 -0.48,-1.74995 -0.006,-0.62085 -0.2211,-1.42993 -0.47888,-1.79797 -0.25779,-0.36804 -0.40025,-0.73762 -0.31659,-0.82129 0.14507,-0.14506 -0.4989,-2.25205 -1.10392,-3.61195 -1.12103,-2.51972 -1.73065,-4.25237 -1.68884,-4.8 0.0269,-0.352 -0.15252,-1.072 -0.39866,-1.6 -0.24615,-0.528 -0.88063,-1.896 -1.40996,-3.04 -0.52933,-1.144 -1.32963,-2.872 -1.77845,-3.84 -0.44881,-0.968 -1.39627,-2.74447 -2.10545,-3.94772 -0.70919,-1.20325 -1.29504,-2.42725 -1.30189,-2.72 -0.007,-0.29275 -0.502,-1.32428 -1.10033,-2.29228 -0.59834,-0.968 -1.62735,-2.696 -2.28669,-3.84 -0.65936,-1.144 -1.77968,-2.70058 -2.48961,-3.45908 -0.70994,-0.75849 -1.83167,-2.23449 -2.49272,-3.28 -0.66106,-1.0455 -1.32771,-1.90092 -1.48146,-1.90092 -0.15374,0 -0.5534,-0.61062 -0.88813,-1.35694 -0.33473,-0.74631 -1.04501,-1.93431 -1.5784,-2.64 -1.24587,-1.6483 -3.0302,-4.30785 -3.0302,-4.5165 0,-0.15763 -3.09836,-3.88051 -4.71195,-5.66172 -0.44601,-0.49234 -1.62028,-1.93966 -2.60949,-3.21626 -0.98921,-1.2766 -2.95056,-3.6642 -4.35856,-5.30579 -2.54013,-2.96154 -4.30406,-5.56073 -4.31454,-6.35758 -0.003,-0.22814 -0.48841,-1.45214 -1.07868,-2.72 -1.20315,-2.5843 -2.01998,-4.95484 -2.28289,-6.62521 -0.097,-0.616 -0.39528,-2.01626 -0.66294,-3.11169 -0.26766,-1.09543 -0.53878,-2.46343 -0.60248,-3.04 -0.0637,-0.57657 -0.20331,-1.40831 -0.31024,-1.84831 -0.10692,-0.44 -0.2642,-1.664 -0.34951,-2.72 -0.0853,-1.05599 -0.23089,-2.42399 -0.32352,-3.03999 -0.284,-1.8887 -0.46488,-3.92352 -0.4978,-5.6 -0.0173,-0.88 -0.15585,-2.104 -0.30794,-2.72 -0.1521,-0.616 -0.30694,-2.26559 -0.3441,-3.66574 -0.0372,-1.40016 -0.24288,-3.12827 -0.45716,-3.84026 -0.21427,-0.71198 -0.48764,-2.13399 -0.60749,-3.16001 -0.11984,-1.02603 -0.34048,-2.17791 -0.4903,-2.55975 -0.14982,-0.38183 -0.52465,-1.55824 -0.83295,-2.61424 -0.30831,-1.056 -0.66839,-2.136 -0.8002,-2.4 -0.4696,-0.9406 -1.97729,-4.66627 -2.52519,-6.24 -0.58619,-1.68374 -0.63417,-5.6359 -0.19866,-16.36408 0.10154,-2.50143 0.0432,-5.26449 -0.13042,-6.18019 -0.17275,-0.91086 -0.39921,-3.26703 -0.50325,-5.23593 -0.16382,-3.10012 -1.1518,-10.53368 -1.60928,-12.1082 -0.19538,-0.67243 -2.53131,-0.58569 -4.57069,0.16973 -0.77013,0.28527 -1.70613,0.5192 -2.08,0.51986 -0.37388,6.4e-4 -1.12481,0.27258 -1.66876,0.60428 -0.54394,0.33169 -1.55194,0.67711 -2.24,0.76761 -0.68805,0.0905 -1.7873,0.44915 -2.44276,0.79702 -0.65546,0.34787 -2.23946,0.95822 -3.52,1.35634 -1.28054,0.39811 -2.78201,0.91952 -3.33661,1.1587 -0.5546,0.23917 -1.2301,0.43486 -1.50112,0.43486 -0.27101,0 -0.58175,0.144 -0.69052,0.32 -0.10877,0.176 -0.49151,0.32 -0.85052,0.32 -0.35902,0 -1.10652,0.19883 -1.66112,0.44184 -1.65394,0.72473 -4.87836,1.79816 -5.4014,1.79816 -0.26803,0 -1.26124,0.33671 -2.20714,0.74824 -0.9459,0.41153 -2.72782,1.08037 -3.95982,1.4863 -1.232,0.40593 -2.672,0.91211 -3.2,1.12484 -5.13612,2.06937 -7.28912,2.86439 -9.12,3.36769 -0.792,0.21771 -1.872,0.56962 -2.4,0.78201 -0.85494,0.34391 -2.10068,0.72975 -5.92,1.83359 -0.616,0.17804 -1.971,0.74077 -3.01111,1.25051 -1.04011,0.50975 -2.00578,0.92682 -2.14592,0.92682 -0.14014,0 -0.95665,0.41382 -1.81446,0.9196 -0.85781,0.50579 -2.12415,1.11159 -2.81408,1.34622 -0.68994,0.23464 -1.47043,0.59152 -1.73443,0.79306 -0.264,0.20154 -1.59203,0.82226 -2.95118,1.37937 -1.35916,0.55711 -2.94316,1.28476 -3.52,1.61699 -0.57685,0.33224 -1.84082,0.92916 -2.80882,1.32648 -0.968,0.39733 -2.21023,1.05276 -2.76051,1.45651 -0.55027,0.40375 -1.0827,0.65189 -1.18316,0.55143 -0.10047,-0.10047 -0.65824,0.10703 -1.2395,0.46111 -1.49892,0.91308 -5.15066,2.85079 -7.77683,4.12659 -1.232,0.5985 -2.672,1.32137 -3.2,1.60635 -3.04091,1.64133 -4.07065,2.08185 -5.0077,2.14226 -0.53917,0.0348 -1.83386,1.01993 -4.14498,3.15403 -0.71475,0.66 -1.50831,1.2 -1.76347,1.2 -0.7672,0 -0.86321,0.88072 -0.19935,1.82864 0.74446,1.063 0.60664,1.69136 -0.37099,1.69136 -0.68622,0 -2.11351,-1.50396 -2.11351,-2.22705 0,-0.21234 -1.42008,-0.33396 -3.92,-0.33573 -2.156,-0.002 -4.643069,-0.0897 -5.526822,-0.19591 -1.584455,-0.19044 -1.613408,-0.17815 -2.08,0.88278 -0.372951,0.84801 -0.686954,1.09666 -1.482426,1.17389 -0.906838,0.088 -1.047741,-0.0187 -1.38856,-1.05134 -0.563034,-1.70601 -1.424131,-2.13098 -3.872538,-1.91117 -1.127308,0.10121 -2.783904,0.5172 -3.681321,0.92444 -1.46201,0.66344 -1.652339,0.86781 -1.83048,1.96557 -0.128896,0.79428 -0.05435,1.39913 0.211955,1.71984 0.960621,1.15684 -0.08276,2.29281 -1.611968,1.75502 -0.830518,-0.29208 -1.027555,-0.18057 -2.698691,1.52728 -2.138919,2.18592 -4.173536,3.16061 -6.839149,3.2763 -1.056,0.0458 -2.316,0.24464 -2.8,0.44178 -0.77417,0.31535 -0.88,0.52943 -0.88,1.7802 0,1.87939 -0.246765,2.4362 -1.074237,2.42392 -1.047597,-0.0156 -1.68303,-0.66821 -1.928598,-1.9809 -0.177235,-0.94741 -0.451994,-1.29982 -1.343107,-1.72268 -1.053412,-0.49988 -1.200698,-0.49703 -2.467175,0.0477 -1.546371,0.66517 -4.467622,3.31405 -4.257808,3.86082 0.0775,0.20196 0.01149,0.49663 -0.146697,0.65482 -0.170148,0.17015 0.0361,0.92703 0.505004,1.85322 1.027146,2.02887 1.000724,2.3206 -0.234761,2.59196 -0.811331,0.17819 -1.111219,0.0994 -1.426064,-0.37458 -1.169898,-1.76129 -1.301795,-1.86894 -1.791779,-1.46229 -0.260964,0.21658 -0.553591,1.07515 -0.650285,1.90792 -0.09669,0.83278 -0.255629,1.87735 -0.353191,2.32126 -0.136374,0.62051 -0.01542,0.87945 0.523191,1.12 0.385318,0.17209 0.973001,0.78355 1.305961,1.35881 0.570752,0.9861 0.574714,1.09274 0.06923,1.86421 -0.474054,0.72349 -0.681075,0.79379 -1.787389,0.60687 -1.361878,-0.23008 -1.254211,-0.34509 -2.249619,2.403 -0.230141,0.63536 -1.355907,2.02002 -2.601693,3.19999 l -2.196009,2.08 0.650153,1.33966 c 0.357584,0.73681 0.767319,1.41207 0.910525,1.50058 0.143203,0.0885 0.199191,0.68498 0.124413,1.32551 -0.120477,1.03196 -0.219926,1.14351 -0.873286,0.97953 -0.7545,-0.18937 -2.268256,-1.56194 -2.89946,-2.62904 -0.794723,-1.34355 -2.997465,-0.73731 -3.924659,1.08015 -0.342928,0.67219 -0.667357,1.866 -0.720953,2.65289 -0.0536,0.7869 -0.280708,1.79036 -0.504688,2.22992 -0.376567,0.73901 -0.314249,0.88946 0.827376,1.99752 1.083472,1.05163 1.922534,2.94302 1.495171,3.37039 -0.07968,0.0797 -0.826336,-0.0873 -1.659226,-0.37112 -0.832891,-0.28379 -1.848696,-0.51599 -2.257343,-0.51599 -0.408648,0 -0.742996,-0.15249 -0.742996,-0.33888 0,-0.18639 -0.124688,-0.26183 -0.277085,-0.16764 -0.152397,0.0942 -0.21677,0.49869 -0.143052,0.89889 0.07372,0.4002 -0.07283,1.70354 -0.325659,2.89631 -0.431261,2.03455 -0.423714,2.18794 0.122014,2.48 0.319939,0.17123 0.939397,0.31132 1.376573,0.31132 1.018453,0 1.807209,0.30359 1.807209,0.69559 0,0.16891 -0.385645,0.81272 -0.856989,1.43069 -0.761791,0.99875 -0.975074,1.10141 -1.92,0.92415 C 28.556996,215.66544 28.48,215.71221 28.48,216.4961 c 0,0.4648 0.291858,1.25497 0.648573,1.75593 0.356715,0.50096 0.85862,1.41355 1.115344,2.02798 0.462002,1.10573 0.483983,1.11575 2.151427,0.98138 0.92656,-0.0747 2.173686,-0.2195 2.771389,-0.32185 0.72504,-0.12415 1.176054,-0.0452 1.355101,0.23719 0.527632,0.83218 0.257091,1.26857 -1.180759,1.9046 l -1.458928,0.64536 1.516263,1.81665 c 0.833945,0.99916 1.625059,1.94405 1.758032,2.09976 0.136534,0.15988 0.810825,0.0554 1.549139,-0.24 0.719053,-0.28771 1.808457,-0.52311 2.420896,-0.52311 0.996662,0 1.113523,0.0908 1.113523,0.86477 0,0.53783 -0.383741,1.26068 -1.015014,1.91199 -0.939661,0.96949 -0.984624,1.11315 -0.60569,1.93524 0.225126,0.4884 0.450934,2.22906 0.501795,3.86812 0.05086,1.63906 0.143424,3.01454 0.205693,3.05662 0.339754,0.22957 3.076003,1.47435 3.553216,1.61644 0.853306,0.25407 0.668,1.04884 -0.32,1.37247 -0.484,0.15855 -1.78,0.2628 -2.88,0.23167 -1.1,-0.0311 -2,0.0801 -2,0.24716 0,0.16707 -0.405542,0.26122 -0.901206,0.20923 -0.634173,-0.0665 -1.381712,0.25819 -2.522871,1.09588 -0.891917,0.65473 -1.774957,1.19041 -1.96231,1.19041 -0.187351,0 -0.704557,0.33727 -1.149344,0.74949 -0.905584,0.83926 -0.750365,1.24562 0.855731,2.24028 1.318061,0.81628 1.201331,2.02863 -0.253862,2.63665 l -1.133863,0.47376 -1.890418,-2.01009 c -1.594353,-1.69528 -1.978853,-1.9556 -2.455096,-1.66218 -0.661293,0.40744 -2.026761,2.86962 -2.026761,3.65461 0,0.29801 0.796916,1.17537 1.770926,1.94967 1.410394,1.12121 1.752414,1.57068 1.68,2.20781 -0.08401,0.73918 -0.204909,0.79426 -1.590163,0.7245 l -1.499238,-0.0755 0.0166,3.04903 c 0.0129,2.37011 -0.09805,3.17571 -0.498307,3.61799 -0.478223,0.52843 -0.44669,0.63431 0.442641,1.48635 1.158136,1.10956 1.209861,1.62494 0.188802,1.8812 -0.885706,0.2223 -2.683151,-0.0745 -2.936802,-0.48489 -0.09472,-0.15327 -0.379727,-0.27867 -0.63334,-0.27867 -0.317203,0 -0.461115,0.36427 -0.461115,1.16715 0,1.66105 -1.221915,4.91091 -2.25258,5.99106 l -0.876143,0.91821 0.676345,1.85705 c 0.667867,1.83378 0.668632,1.86558 0.06106,2.53694 -0.949613,1.04931 -2.032586,0.72859 -3.209202,-0.95041 -0.555022,-0.792 -1.313104,-1.48485 -1.684627,-1.53967 -0.735654,-0.10856 -2.13089,1.06067 -1.835682,1.53833 0.100382,0.16242 0.0466,0.55317 -0.119516,0.86833 -0.522296,0.99091 -1.639653,4.00058 -1.639653,4.4165 0,0.21898 0.22328,0.58345 0.496179,0.80994 0.875841,0.72688 0.43974,2.00018 -0.911057,2.66003 -1.144851,0.55926 -1.188552,0.63364 -0.758169,1.29049 0.25119,0.38337 0.544538,1.32495 0.651883,2.09241 0.107347,0.76746 0.556523,1.86913 0.99817,2.44816 0.441646,0.57903 0.802994,1.20549 0.802994,1.39213 0,0.39835 2.338815,2.15002 3.261872,2.44299 0.895721,0.28429 5.742048,3.20449 6.422873,3.87016 0.755348,0.73853 3.868235,7.23671 4.391345,9.16696 0.631813,2.33137 0.259347,6.88254 -0.680615,8.31647 -0.749199,1.14292 -3.273351,2.77556 -3.673109,2.37581 -0.122914,-0.12292 -0.39001,-0.0853 -0.593548,0.0836 -0.309075,0.25651 -3.051199,0.71629 -4.168818,0.699 -4.631685,-0.0717 -7.21939,-0.63635 -8.6444794,-1.88637 -0.7924675,-0.69512 -1.3860371,-3.4391 -1.6054377,-7.42169 -0.089054,-1.61651 -0.1861965,-3.03913 -0.2158727,-3.16137 -0.1219795,-0.50243 0.8396109,-4.09762 1.2148967,-4.54225 1.8950091,-2.24513 2.8762301,-9.17437 1.4260591,-10.07062 -0.7508428,-0.46405 -2.5452588,-4.77632 -2.7778015,-6.6755 -0.067046,-0.54757 -0.8138816,-1.68289 -1.8873559,-2.86912 -2.141934,-2.36691 -2.2129321,-3.15543 -0.3117884,-3.46279 0.7030211,-0.11366 1.6220409,-0.0759 2.0422662,0.0838 1.2135878,0.46141 1.84404,0.0525 2.9295376,-1.90026 0.558139,-1.00405 1.813509,-2.64324 2.789713,-3.64265 l 1.774915,-1.81711 -0.51039,-1.07556 c -0.416499,-0.87771 -0.446186,-1.32852 -0.161377,-2.45057 0.191957,-0.75626 0.545448,-1.45039 0.785535,-1.54252 0.686328,-0.26337 2.040434,0.8059 2.542603,2.00775 0.682122,1.63255 1.232275,1.42685 2.483483,-0.92859 0.561063,-1.05621 0.763348,-1.82702 0.640573,-2.4409 -0.09869,-0.49347 -0.0085,-1.21653 0.200328,-1.60681 0.322943,-0.60343 0.276048,-0.80624 -0.313399,-1.3554 -0.518313,-0.48288 -0.640643,-0.85861 -0.484944,-1.48948 0.32927,-1.33417 0.626364,-1.46272 2.567356,-1.11091 0.980203,0.17767 1.846518,0.21895 1.925143,0.0917 0.07863,-0.12722 0.06459,-1.20502 -0.03119,-2.39512 -0.169846,-2.11039 -0.21342,-2.19911 -1.765148,-3.59425 -1.961881,-1.7639 -2.317749,-2.37117 -1.800827,-3.073 0.300103,-0.40746 0.604312,-0.46467 1.347601,-0.25346 1.367202,0.3885 1.76,0.14812 1.76,-1.07707 0,-1.35459 0.990481,-3.05484 2.410606,-4.13802 1.085707,-0.82811 1.095072,-0.85675 0.897687,-2.74522 -0.163673,-1.56596 -0.113978,-1.90839 0.276958,-1.90839 0.921034,0 2.539502,1.03605 2.835769,1.81529 0.240051,0.63138 0.442302,0.74295 1.019229,0.56225 1.244005,-0.38965 4.578274,-2.01944 4.171288,-2.03893 -0.62383,-0.0299 -1.958496,-2.23231 -1.775904,-2.93055 0.30327,-1.1597 1.252032,-1.35953 2.829424,-0.59593 1.921008,0.92995 2.438125,0.53852 2.21744,-1.67847 -0.209123,-2.10087 -0.349891,-2.26841 -1.720291,-2.04752 -4.081107,0.65779 -3.793331,0.68698 -4.034077,-0.40912 -0.223872,-1.01928 0.511808,-2.66064 1.595738,-3.56023 0.846409,-0.70245 0.511488,-1.51816 -1.203866,-2.93204 -2.72851,-2.24898 -2.910759,-2.30745 -4.285116,-1.37479 -0.651244,0.44195 -1.383676,1.0885 -1.627627,1.43679 -0.271139,0.38711 -0.809651,0.63325 -1.385402,0.63325 -0.829837,0 -0.941855,-0.11238 -0.941855,-0.94494 0,-1.40224 0.540533,-2.31125 1.967108,-3.30808 1.167103,-0.81552 1.258728,-0.98216 1.055709,-1.92 -0.122273,-0.56484 -0.503754,-1.62933 -0.847736,-2.36555 -0.343982,-0.73622 -0.654145,-1.52822 -0.68925,-1.76 -0.154543,-1.02037 -0.587749,-1.26722 -1.849739,-1.05401 -1.359826,0.22974 -2.196511,-0.18435 -2.19552,-1.0866 5.57e-4,-0.50678 2.438276,-2.28082 3.134097,-2.28082 0.58595,0 0.763648,-0.58369 1.054984,-3.46537 0.154282,-1.52605 0.318725,-3.13207 0.36543,-3.56894 0.06982,-0.6531 -0.111676,-0.85887 -1.020886,-1.15741 -1.826767,-0.59982 -1.655469,-1.31131 0.733597,-3.04698 1.036618,-0.75311 1.324639,-0.832 1.849764,-0.50665 0.727009,0.45043 1.229274,-0.0768 1.237542,-1.29899 0.0027,-0.39838 0.134118,-0.97438 0.29205,-1.28 0.157933,-0.30561 0.525448,-1.13166 0.816701,-1.83566 0.309584,-0.7483 1.046373,-1.64845 1.773755,-2.16702 1.165741,-0.83109 1.223239,-0.94716 0.911789,-1.84059 -0.182829,-0.52446 -0.462233,-1.0338 -0.620905,-1.13186 -0.471402,-0.29134 -0.328026,-1.97527 0.214368,-2.51767 0.68622,-0.68622 1.004688,-0.63559 1.869116,0.29715 0.40778,0.44 0.889495,0.8 1.070484,0.8 0.180988,0 0.411955,0.216 0.513264,0.48 0.367139,0.95674 1.614851,0.54233 2.448736,-0.81332 0.437548,-0.71133 1.263542,-1.57047 1.835542,-1.90921 1.316755,-0.77979 1.339363,-1.65203 0.08,-3.08636 -0.837184,-0.9535 -0.96,-1.33759 -0.96,-3.00225 0,-2.10255 0.204448,-2.26476 1.803421,-1.43084 0.504118,0.26292 1.091513,0.47892 1.305321,0.48 0.408301,0.002 1.112103,-1.0713 0.986861,-1.50506 -0.04017,-0.13913 0.329568,-0.88061 0.821645,-1.64774 0.587142,-0.91533 0.832986,-1.64058 0.715197,-2.10988 -0.240461,-0.95808 -1.734371,-2.41534 -2.47608,-2.41534 -0.677379,0 -0.799683,-1.02357 -0.284285,-2.37917 0.404515,-1.06396 0.945718,-1.03661 2.115309,0.10688 0.862128,0.84289 1.58183,1.13119 2.569091,1.02913 0.196064,-0.0202 0.753072,-0.60913 1.237798,-1.30859 1.060788,-1.53072 3.064106,-2.76202 5.538077,-3.4039 2.026909,-0.52587 2.376016,-0.78338 3.230983,-2.38323 0.973814,-1.82223 1.875228,-1.57758 4.107056,1.11472 0.58375,0.70418 0.82207,0.79719 1.336819,0.5217 0.344534,-0.18439 0.823267,-0.25971 1.063853,-0.16739 0.469152,0.18003 1.966265,-0.29334 4.631862,-1.46453 2.095043,-0.9205 2.48401,-1.74382 1.882954,-3.98562 -0.339044,-1.26457 -0.348743,-1.8001 -0.04626,-2.55444 0.374144,-0.93303 0.436467,-0.95554 2.77974,-1.00384 1.611335,-0.0332 2.863053,-0.25776 3.818826,-0.68504 1.230784,-0.55023 2.499955,-0.8958 5.63943,-1.5355 0.983645,-0.20043 1.702378,-1.01274 1.702378,-1.92404 0,-1.19351 1.027242,-0.97449 2.362765,0.50378 0.63648,0.70451 1.157235,1.42807 1.157235,1.60792 0,0.63618 1.662083,0.94187 5.778512,1.06277 4.946579,0.14528 5.075264,0.0618 4.114176,-2.66726 C 97.875709,152.64747 97.6,151.66343 97.6,151.41759 c 0,-0.6137 1.152746,-0.30583 4.25204,1.13561 l 2.49204,1.15902 1.56813,-1.54455 c 0.86248,-0.84951 2.10827,-2.35076 2.76844,-3.33612 0.66016,-0.98535 1.52537,-2.15155 1.92267,-2.59155 0.3973,-0.44 1.02989,-1.52 1.40575,-2.4 0.37586,-0.88 0.87535,-2.032 1.10996,-2.56 1.61311,-3.6303 2.08097,-4.7526 2.08097,-4.99181 0,-0.14969 0.41333,-1.17577 0.91851,-2.28018 1.04975,-2.29493 3.45872,-7.91492 4.90712,-11.44801 0.54113,-1.32 1.23133,-2.976 1.53377,-3.68 1.53047,-3.56259 2.19503,-5.18894 2.39864,-5.87013 0.12332,-0.41257 0.91058,-2.21257 1.74948,-4 0.8389,-1.78743 1.63468,-3.60987 1.76841,-4.04987 0.13372,-0.44 1.16135,-2.71746 2.2836,-5.061014 1.12226,-2.343555 2.04047,-4.311619 2.04047,-4.373472 0,-0.06185 0.31262,-0.808396 0.69472,-1.658985 0.38209,-0.850592 0.86765,-1.978531 1.07901,-2.506531 1.22181,-3.052199 3.71607,-8.820771 4.28394,-9.907661 0.36428,-0.697213 0.66233,-1.423753 0.66233,-1.614534 0,-0.190781 0.62977,-1.636333 1.39948,-3.212339 2.31098,-4.731779 4.21268,-8.788157 5.46895,-11.665466 0.65317,-1.496 1.40133,-3.195561 1.66257,-3.776803 0.26123,-0.581241 0.9523,-2.237241 1.53569,-3.68 0.5834,-1.442758 1.50906,-3.598803 2.05702,-4.791209 0.54796,-1.19241 0.99629,-2.232471 0.99629,-2.311255 0,-0.07878 0.34916,-0.903174 0.77592,-1.831983 0.42676,-0.928813 1.52257,-3.488749 2.43514,-5.688749 2.34261,-5.647475 2.35379,-5.673888 3.46585,-8.185523 0.5517,-1.246035 1.00309,-2.376272 1.00309,-2.511638 0,-0.135364 0.20755,-0.699879 0.46123,-1.254478 0.25368,-0.554598 1.05628,-2.448361 1.78357,-4.208361 0.72729,-1.76 1.67174,-3.867487 2.09877,-4.683305 0.42704,-0.815817 0.77643,-1.65232 0.77643,-1.858894 0,-0.206574 0.5834,-1.580888 1.29644,-3.054032 1.23342,-2.548243 1.93307,-4.963768 1.43774,-4.963768 -0.12625,0 -0.85353,0.448105 -1.61617,0.99579 -1.26328,0.907218 -1.4346,1.198965 -1.92611,3.28 -0.59202,2.506636 -1.64182,5.004209 -2.1034,5.004209 -0.16193,0 -0.71764,0.684 -1.23492,1.52 -0.51728,0.836 -1.55995,2.097779 -2.31704,2.803952 -4.20778,3.924764 -5.37654,4.23552 -5.37654,1.429541 0,-2.013859 -0.4898,-3.053632 -1.66843,-3.541837 -0.51998,-0.215381 -1.08199,-0.750836 -1.24892,-1.1899 -0.24633,-0.647881 -0.16589,-0.945188 0.42692,-1.577881 0.40174,-0.428771 1.1263,-1.014021 1.61015,-1.300557 0.60999,-0.361239 0.82414,-0.696101 0.69843,-1.092146 -0.0997,-0.314144 -0.0507,-0.571171 0.10892,-0.571171 0.15961,0 0.43812,-0.324652 0.61891,-0.721449 0.21076,-0.462552 0.9469,-0.940185 2.05137,-1.330984 0.94746,-0.335245 2.00669,-0.802593 2.35385,-1.038551 0.34716,-0.235959 0.81673,-0.429016 1.04349,-0.429016 0.22676,0 1.02271,-0.27948 1.7688,-0.621066 0.74608,-0.341586 1.71651,-0.665586 2.15651,-0.72 0.53533,-0.0662 0.8325,-0.326962 0.89823,-0.78819 0.11333,-0.795236 0.7879,-1.509464 3.31458,-3.5094421 1.6983,-1.3442775 1.96107,-1.4445306 4.16,-1.5870918 1.29095,-0.083695 2.56319,-0.2303421 2.82719,-0.3258813 0.61718,-0.2233536 18.86917,-0.1727927 19.23497,0.053284 0.15167,0.093737 1.03385,0.3063984 1.9604,0.4725805 2.58461,0.4635648 4.35586,0.8786784 6.80463,1.5947462 1.232,0.3602605 3.392,0.9427446 4.8,1.2944095 4.46796,1.115925 12.72109,4.096419 14.2894,5.160397 C 222.27657,15.740685 222.79715,16 222.96624,16 c 0.1691,0 0.65087,0.266774 1.0706,0.592832 0.41974,0.326057 1.51747,0.841067 2.4394,1.144466 0.92193,0.3034 1.75108,0.672741 1.84256,0.820759 0.0915,0.148017 1.22669,1.067173 2.52268,2.042568 2.80567,2.111602 5.82888,5.046788 6.1098,5.931901 0.1108,0.349105 0.46921,0.719717 0.79646,0.823583 0.32726,0.103865 0.82083,0.533497 1.09684,0.954737 0.276,0.421239 1.27914,1.574878 2.2292,2.563641 0.95006,0.988764 2.25392,2.474498 2.89748,3.301631 3.21804,4.135996 3.70874,4.828691 3.70874,5.235411 0,0.241945 0.33729,0.941331 0.74953,1.554188 1.9955,2.966595 4.11819,8.996538 5.6867,16.154282 0.66732,3.045222 0.77578,3.698079 1.24929,7.519999 0.54982,4.437795 0.17987,15.475843 -0.68106,20.32 -0.18767,1.056 -0.47879,2.703667 -0.64692,3.661484 -0.16814,0.957815 -0.56976,2.253815 -0.89251,2.88 -0.32275,0.626183 -0.74994,1.498516 -0.94932,1.938516 -0.63655,1.404768 -1.4472,2.488969 -2.51571,3.364611 -0.58975,0.483299 -1.03995,1.151676 -1.03988,1.543833 7e-5,0.380355 -0.41727,1.555555 -0.92742,2.611558 -0.51015,1.056 -1.32209,3.144 -1.80431,4.64 -1.02206,3.17074 -1.69418,4.72231 -2.37778,5.48906 -0.26984,0.30266 -0.77861,0.94155 -1.13061,1.41977 -1.78479,2.42476 -3.75073,4.23321 -4.81992,4.43379 -1.43944,0.27004 -2.8682,-0.39659 -2.83784,-1.32408 0.0194,-0.59336 -0.11216,-0.65775 -1.03729,-0.50762 -0.6239,0.10124 -1.258,0.007 -1.54224,-0.22868 -0.4008,-0.33263 -0.48488,-0.29893 -0.49552,0.19858 -0.0195,0.91319 -0.77276,-0.63834 -1.26866,-2.61323 -0.53797,-2.14245 -0.0925,-2.98334 3.37744,-6.37608 1.97412,-1.93017 3.3589,-2.95885 5.32589,-3.95633 1.46198,-0.74138 3.01814,-1.54419 3.45814,-1.78403 0.44,-0.23984 1.16,-0.603453 1.6,-0.808033 0.44,-0.204579 1.16,-0.657174 1.6,-1.005763 l 0.8,-0.633798 -0.96,0.218237 c -1.47849,0.336102 -9.10526,3.440907 -14.4,5.862137 -0.704,0.32194 -1.856,0.76402 -2.56,0.9824 -0.704,0.21839 -1.424,0.51005 -1.6,0.64814 -0.176,0.13808 -1.256,0.564 -2.4,0.94649 -2.20851,0.73838 -3.96377,1.43483 -4.87566,1.93454 -0.30561,0.16747 -0.7167,0.3045 -0.91352,0.3045 -0.19683,0 -1.09879,0.37214 -2.00435,0.82697 -0.90556,0.45484 -1.64647,0.79297 -1.64647,0.75141 0,-0.0416 -1.26,0.40305 -2.8,0.98802 -2.8147,1.06918 -3.3179,1.5877 -2.416,2.4896 0.29867,0.29866 0.27289,0.384 -0.116,0.384 -0.55175,0 -0.55279,0.62129 -0.005,2.72 0.33282,1.27406 0.64551,2.97101 0.88448,4.8 0.069,0.528 0.29025,2.04 0.4917,3.36 0.20145,1.32 0.35515,4.92 0.34156,8 -0.0282,6.38372 -0.0116,11.81843 0.0536,17.61317 0.0387,3.43731 0.13702,4.14905 0.68518,4.96 0.99805,1.47652 1.73724,3.11959 1.74915,3.88794 0.006,0.38561 0.15485,0.79011 0.33085,0.89889 0.176,0.10877 0.32,0.58855 0.32,1.06618 0,0.47763 0.44323,2.01713 0.98495,3.42111 0.83436,2.16242 2.45618,10.4888 2.4606,12.63271 6.4e-4,0.264 0.099,1.632 0.21883,3.04 0.11981,1.408 0.27901,3.712 0.35379,5.12 0.15274,2.87613 0.33165,4.83523 0.61369,6.71999 0.10534,0.704 0.3436,2.36 0.52946,3.68 0.83919,5.9601 3.54105,14.3149 5.36059,16.5762 0.37295,0.4635 0.67809,1.00515 0.67809,1.20367 0,0.19852 0.288,0.62158 0.64,0.94013 0.352,0.31856 0.64,0.7418 0.64,0.94053 0,0.19874 0.80672,1.14842 1.79271,2.11041 2.0416,1.99189 5.67434,6.3013 9.22004,10.93747 0.7691,1.00563 1.59386,2.02465 1.83281,2.26449 1.08329,1.08735 8.27444,11.77955 8.27444,12.3029 0,0.16776 0.28433,0.56232 0.63183,0.87681 0.34751,0.31449 0.724,0.87681 0.83666,1.2496 0.11265,0.37279 0.73724,1.39779 1.38797,2.27779 1.17561,1.58979 4.98708,7.90964 5.69322,9.44 0.20302,0.44 1.2424,2.6246 2.30973,4.85467 1.06733,2.23007 1.94059,4.21486 1.94059,4.41064 0,0.19578 0.36,1.0664 0.8,1.93469 0.44,0.8683 0.80451,1.76351 0.81001,1.98937 0.005,0.22585 0.36419,1.13063 0.79707,2.01063 0.43289,0.88 0.78839,1.7879 0.79,2.01756 0.002,0.22966 0.2804,1.02665 0.61953,1.7711 0.33914,0.74445 0.719,1.78055 0.84413,2.30244 0.12513,0.5219 0.34149,1.09541 0.4808,1.27447 0.1393,0.17906 0.33982,1.08248 0.44559,2.00759 0.37425,3.27325 1.35767,7.37928 2.04702,8.54684 0.10392,0.176 0.20043,0.464 0.21447,0.64 0.036,0.4511 0.46024,1.99171 1.01339,3.68 0.25949,0.792 0.53573,2.07811 0.61387,2.85802 0.0781,0.77991 0.27916,1.58322 0.44673,1.78512 0.16756,0.2019 0.35418,0.64379 0.4147,0.98198 0.0605,0.33818 0.36809,1.19088 0.68347,1.89488 0.31538,0.704 0.98666,2.62856 1.49173,4.27679 0.50506,1.64823 1.41194,4.02423 2.01528,5.28 0.60334,1.25577 1.25237,2.64321 1.44228,3.08321 0.18991,0.44 0.49033,1.052 0.66761,1.36 1.88604,3.27679 3.21022,5.87939 6.30899,12.4 0.96185,2.024 2.30891,4.832 2.99345,6.24 0.68454,1.408 1.61813,3.568 2.07464,4.8 0.45652,1.232 1.01804,2.672 1.24782,3.2 0.22978,0.528 0.66624,1.824 0.9699,2.88 0.30366,1.056 0.8816,2.712 1.28431,3.68 0.40272,0.968 0.83254,2.336 0.95517,3.04 0.12263,0.704 0.7698,3.296 1.43814,5.76 0.66835,2.464 1.38673,5.344 1.59641,6.4 0.20968,1.056 0.50921,2.424 0.66563,3.04 0.67306,2.65066 1.26457,5.35978 1.39736,6.4 0.0786,0.616 0.28848,1.50118 0.46631,1.9671 0.17783,0.46589 0.24167,0.92874 0.14187,1.02855 -0.0998,0.0998 0.0684,0.70803 0.3738,1.35158 0.45719,0.96346 0.48614,1.2993 0.1639,1.90141 -0.39747,0.74269 -1.39821,1.11939 -2.24745,0.84602 z M 15.475396,314.77788 c -0.118274,-0.20784 -0.372623,-0.5809 -0.56522,-0.82902 -0.192597,-0.24812 -0.350176,-0.75212 -0.350176,-1.12 0,-0.91995 -0.619537,-1.02126 -0.726591,-0.11882 -0.104172,0.87816 1.084553,2.92315 1.53674,2.64368 0.17616,-0.10887 0.223521,-0.368 0.105247,-0.57584 z M 10.56,312.95999 c 0,-0.176 -0.144,-0.32 -0.32,-0.32 -0.176,0 -0.32,0.144 -0.32,0.32 0,0.176 0.144,0.32 0.32,0.32 0.176,0 0.32,-0.144 0.32,-0.32 z m 6.4,-2.06111 c 0,-0.0776 -0.144,-0.23011 -0.32,-0.33889 -0.176,-0.10877 -0.32,-0.0453 -0.32,0.14112 0,0.18638 0.144,0.33888 0.32,0.33888 0.176,0 0.32,-0.0635 0.32,-0.14111 z m -0.499117,-3.18113 C 16.259068,306.91366 15.68,306.53293 15.68,307.20433 c 0,0.39681 0.733796,1.60853 0.88346,1.45887 0.05923,-0.0592 0.01307,-0.48468 -0.102577,-0.94545 z M 117.07699,146.15951 c 0.7773,-0.5348 3.80497,-2.17231 6.72815,-3.63891 2.92317,-1.4666 6.48985,-3.30672 7.92594,-4.08916 1.43609,-0.78244 2.67745,-1.35624 2.75858,-1.27512 0.0811,0.0811 0.94856,-0.29212 1.92763,-0.82944 0.97907,-0.53732 3.6977,-1.69639 6.04141,-2.57571 2.34372,-0.87932 4.5493,-1.73462 4.9013,-1.90065 0.352,-0.16603 1.576,-0.68491 2.72,-1.15306 1.144,-0.46816 2.656,-1.10536 3.36,-1.41601 2.85008,-1.25765 6.52021,-2.55183 8.55848,-3.01794 1.18716,-0.27148 3.78162,-1.13557 5.76545,-1.92019 1.98384,-0.78463 4.18052,-1.56812 4.88152,-1.74109 0.701,-0.17297 2.71455,-0.82844 4.47455,-1.45659 1.76,-0.62816 3.62944,-1.22285 4.15431,-1.32153 0.52487,-0.0987 1.18421,-0.38748 1.4652,-0.64177 0.28099,-0.25429 0.8255,-0.46234 1.21003,-0.46234 0.38453,0 0.94919,-0.14 1.2548,-0.3111 0.30562,-0.1711 2.13966,-0.80599 4.07566,-1.41085 4.12196,-1.28783 5.20032,-1.6711 7.36,-2.61594 0.88,-0.385 2.536,-1.01643 3.68,-1.40319 1.144,-0.38676 2.41082,-0.91702 2.81514,-1.17836 1.03017,-0.66585 6.53482,-2.91462 9.02486,-3.68685 3.25226,-1.00861 6.19738,-2.03797 7.2,-2.51649 0.352,-0.168 2.008,-0.75522 3.68,-1.30493 1.672,-0.54971 3.18575,-1.11756 3.36388,-1.2619 0.17814,-0.14433 1.18614,-0.579 2.24,-0.96593 1.05387,-0.38692 2.05292,-0.82972 2.22012,-0.98398 0.1672,-0.15427 0.7432,-0.28185 1.28,-0.28352 0.58003,-0.002 1.77011,-0.50687 2.93335,-1.244902 1.07654,-0.683021 2.30054,-1.348022 2.72,-1.477782 0.41946,-0.12976 2.09869,-0.865555 3.73162,-1.635101 1.63293,-0.769549 3.17124,-1.399177 3.41846,-1.399177 0.64419,0 4.94331,-1.762736 5.391,-2.210429 0.48058,-0.480586 -0.34463,-1.084368 -1.05843,-0.774419 -0.85027,0.369203 -2.88,0.50174 -2.88,0.188054 0,-0.167206 0.28266,-0.559814 0.62813,-0.872461 0.56274,-0.509273 0.58225,-0.656006 0.18742,-1.409597 -0.24239,-0.46263 -2.18546,-2.641148 -4.31794,-4.841148 -5.46394,-5.636938 -6.20539,-6.433882 -9.75026,-10.48 -1.7347,-1.98 -3.24251,-3.600269 -3.35068,-3.600598 -0.10817,-3.2e-4 -0.99632,-0.828333 -1.97367,-1.84 -0.97736,-1.011671 -3.49736,-3.586983 -5.6,-5.722915 -2.10265,-2.13593 -4.20179,-4.29593 -4.66475,-4.8 -1.86885,-2.034774 -4.30108,-4.276486 -4.63994,-4.276486 -0.19797,0 -0.54241,-0.21985 -0.76541,-0.488557 -0.353,-0.425331 -0.48315,-0.360819 -1.00573,0.498499 -0.66036,1.085875 -1.46078,1.891411 -10.48301,10.550057 -3.39272,3.256 -7.70209,7.414227 -9.57637,9.240502 -1.87429,1.826279 -4.05579,3.837133 -4.84779,4.468567 -0.792,0.631433 -3.03984,2.737206 -4.9952,4.679494 -1.95536,1.942291 -4.61038,4.467437 -5.90005,5.611437 -1.28968,1.144 -3.14847,2.872 -4.13067,3.84 -0.9822,0.968 -3.23335,3.148531 -5.00258,4.845625 -1.76922,1.697094 -3.57363,3.509737 -4.0098,4.028097 -0.43617,0.51836 -1.02387,1.07383 -1.306,1.23437 -0.7641,0.43481 -5.03532,4.33311 -5.00559,4.56856 0.0867,0.6864 -0.1263,1.00335 -0.67421,1.00335 -0.34325,0 -0.75034,0.22557 -0.90463,0.50128 -0.15429,0.2757 -0.65683,0.74813 -1.11676,1.04984 -1.70124,1.116 -8.86921,7.91121 -8.87298,8.41156 -9.6e-4,0.11147 -0.3003,0.2808 -0.66547,0.3763 -0.5714,0.14942 -0.61241,0.26992 -0.29418,0.86452 0.43585,0.8144 2.36446,1.74399 4.73121,2.28044 1.25282,0.28397 1.66801,0.51538 1.59664,0.88991 -0.07,0.36717 -0.69094,0.58261 -2.26158,0.78463 -1.94616,0.25031 -2.41053,0.19136 -4.5916,-0.58294 l -2.42648,-0.86141 -0.83879,0.74293 c -1.85457,1.64261 -3.86156,3.79388 -4.41757,4.73513 -0.32351,0.54766 -1.05744,1.2726 -1.63095,1.61098 -0.57352,0.33839 -1.04276,0.81954 -1.04276,1.06923 0,0.2497 -0.396,0.7033 -0.88,1.00801 -1.26236,0.79473 -3.11525,2.80943 -3.01621,3.27959 0.0464,0.22 -0.0368,0.4 -0.18468,0.4 -0.42149,0 -1.67221,0.99684 -3.09526,2.46699 -0.71712,0.74085 -1.87985,1.72697 -2.58385,2.19139 -0.704,0.46441 -1.568,1.11975 -1.92,1.45631 -0.352,0.33656 -0.97148,0.86262 -1.37663,1.16903 -0.40515,0.30641 -0.77529,0.82044 -0.82253,1.14228 -0.0472,0.32185 -0.29175,0.71546 -0.54336,0.87469 -0.48118,0.3045 -1.89748,0.41099 -1.89748,0.14266 0,-0.0862 1.17158,-1.27416 2.60352,-2.64 1.43193,-1.36585 3.41193,-3.34346 4.4,-4.39469 0.98806,-1.05124 3.67745,-3.78724 5.97641,-6.08 2.29896,-2.29277 5.03496,-5.17666 6.08,-6.40866 1.04504,-1.232 1.97703,-2.312 2.0711,-2.4 0.0941,-0.088 0.48152,-0.56455 0.861,-1.059 0.67533,-0.87993 0.67721,-0.91177 0.0883,-1.50071 -0.79199,-0.79199 -1.95405,-4.74633 -1.96919,-6.70091 -0.0118,-1.5233 0.45333,-2.89938 0.98002,-2.89938 0.14774,0 0.59784,1.044 1.00022,2.32 0.9143,2.89932 2.16942,4.88 3.09238,4.88 0.67877,0 3.59735,-2.50688 9.69627,-8.32852 1.672,-1.59598 3.688,-3.41745 4.48,-4.04772 0.792,-0.63027 2.88,-2.54716 4.64,-4.25977 7.664,-7.457618 15.14923,-14.602549 16.48,-15.730786 0.792,-0.671462 3.24,-2.972003 5.44,-5.112316 2.2,-2.140311 4.432,-4.255117 4.96,-4.699568 3.26548,-2.748768 11.57068,-10.964352 16.39825,-16.221322 0.88893,-0.968 2.21569,-2.407999 2.94835,-3.199999 0.73267,-0.792 1.8962,-2.104148 2.58562,-2.915885 l 1.2535,-1.475885 -1.99286,-2.188755 c -2.46089,-2.70279 -22.07234,-22.219475 -22.32736,-22.219475 -0.10168,0 -0.96801,-0.957509 -1.92518,-2.127798 C 180.37539,20.664632 172.54721,12.48 171.93653,12.48 c -0.4035,0 -5.23372,9.71307 -6.12662,12.319999 -0.77997,2.27721 -3.03577,7.657059 -4.65389,11.099027 C 160.52021,37.25149 160,38.695449 160,39.107823 c 0,0.412374 -0.20336,1.040109 -0.45191,1.39496 -0.24855,0.354854 -0.70562,1.430896 -1.0157,2.391203 -0.31009,0.960307 -0.90913,2.299619 -1.33119,2.976246 -0.42207,0.676628 -0.69567,1.301962 -0.608,1.389629 0.0877,0.08767 -0.3226,1.119789 -0.91169,2.293603 -0.5891,1.173811 -1.17038,2.52984 -1.29175,3.013392 -0.12136,0.483555 -0.34871,0.958327 -0.50521,1.055053 -0.1565,0.09672 -0.28455,0.461194 -0.28455,0.809933 0,0.348739 -0.28787,1.02424 -0.63971,1.501113 -0.35184,0.476874 -0.9833,1.947043 -1.40325,3.267043 -0.41995,1.32 -1.13129,3.088919 -1.58076,3.930932 -0.44947,0.842012 -1.05493,2.354012 -1.34546,3.359999 -0.29054,1.005988 -0.78358,2.333069 -1.09565,2.949069 -0.63364,1.250762 -2.25723,5.175133 -3.42745,8.284486 -0.4232,1.124471 -1.26856,3.124749 -1.87858,4.445066 -0.61003,1.32032 -1.10914,2.549494 -1.10914,2.731501 0,0.42864 -2.45429,5.465174 -3.41722,7.012588 -0.40853,0.656503 -0.74278,1.322547 -0.74278,1.480103 0,0.157555 -0.7978,1.971411 -1.77289,4.030793 -0.97508,2.059386 -1.85903,4.201335 -1.96432,4.759895 -0.17302,0.91793 -0.66722,2.09663 -1.43205,3.41557 -0.1531,0.264 -0.86481,1.704 -1.58159,3.2 -0.71679,1.496 -1.93018,4.016 -2.69644,5.6 -1.92576,3.98089 -2.58416,5.57747 -2.83085,6.86461 -0.11644,0.60754 -0.46889,1.39954 -0.78323,1.76 -0.31434,0.36047 -0.91218,1.44739 -1.32853,2.41539 -0.41636,0.968 -1.10875,2.552 -1.53865,3.52 -0.4299,0.968 -0.96749,2.192 -1.19464,2.72 -0.22716,0.528 -0.8778,2.04 -1.44587,3.36 -1.44573,3.35934 -3.43364,7.68114 -5.00229,10.87519 -0.73341,1.49335 -1.26936,2.81894 -1.19098,2.94575 0.1491,0.24126 2.46944,-1.0434 4.87932,-2.70143 z M 194.24,103.33181 c -2.93827,-1.05557 -3.54257,-1.40458 -4.81454,-2.78057 -1.85738,-2.009287 -2.67098,-4.47395 -2.45728,-7.44393 0.17824,-2.477079 2.03236,-7.837661 4.17791,-12.07905 1.01912,-2.014617 7.23653,-7.554492 9.45571,-8.42528 0.41898,-0.164406 1.13898,-0.562422 1.6,-0.884476 0.98619,-0.688938 6.40181,-2.598506 7.36948,-2.598506 0.43886,0 0.66872,0.204803 0.66872,0.595824 0,0.467027 -0.38576,0.673293 -1.78455,0.954211 -2.04148,0.409988 -5.5491,1.982183 -8.17201,3.662871 -2.38017,1.525142 -6.12936,5.205785 -6.83484,6.709865 -0.31028,0.661523 -0.91019,1.525523 -1.33312,1.92 -0.93735,0.874278 -1.6404,2.399037 -2.81293,6.100569 l -0.89435,2.823338 0.55952,2.666173 c 0.36522,1.740352 0.82216,2.971843 1.3159,3.546435 0.41601,0.484141 0.75638,1.06176 0.75638,1.283597 0,0.632419 2.4094,2.381029 4.24935,3.083949 2.28478,0.87285 6.7569,1.11642 8.34157,0.4543 0.64938,-0.27133 1.21408,-0.47892 1.25489,-0.46132 0.0408,0.0176 0.88452,-0.4004 1.87492,-0.9289 0.9904,-0.52851 2.2144,-1.11945 2.72,-1.31321 0.5056,-0.19376 1.58428,-0.754007 2.39707,-1.244995 0.81279,-0.490989 2.49059,-1.502765 3.72844,-2.248394 1.23786,-0.745626 2.94854,-2.005625 3.80152,-2.8 0.85298,-0.794371 1.73132,-1.444313 1.95188,-1.444313 0.22056,0 1.26168,-0.91 2.31361,-2.022221 4.00267,-4.232086 5.01427,-6.420579 4.4831,-9.698723 -0.48976,-3.022544 -2.57622,-6.379267 -4.99918,-8.042758 -1.29401,-0.8884 -4.32968,-1.267482 -5.71717,-0.713933 -0.88649,0.353674 -0.91444,0.411126 -0.36506,0.750317 0.32722,0.202025 1.26322,0.883379 2.08,1.514121 0.81678,0.630743 1.72021,1.231757 2.00761,1.335584 0.91742,0.33144 2.5464,3.618522 2.84695,5.744826 0.44244,3.130134 0.13044,4.424489 -1.49891,6.218368 -0.77653,0.854931 -1.6416,1.914419 -1.92239,2.354419 -0.64704,1.013907 -3.94973,3.77304 -5.66295,4.730944 -0.71901,0.402016 -1.59934,0.982281 -1.95627,1.289478 -2.18501,1.880512 -5.11106,3.376749 -7.3058,3.735814 -0.66925,0.109491 -1.2985,0.411946 -1.39834,0.672116 -0.12068,0.31448 -0.57092,0.45293 -1.34318,0.41303 -0.63891,-0.033 -2.03072,0.0447 -3.0929,0.17274 -1.86221,0.22444 -2.01191,0.18624 -4.18864,-1.068734 -1.24157,-0.715821 -2.51875,-1.590281 -2.83818,-1.943245 -0.82725,-0.914099 -1.34606,-3.255049 -1.41682,-6.392819 -0.0598,-2.653376 -0.0286,-2.775132 1.47688,-5.759999 1.79463,-3.558138 4.65635,-6.712029 6.69211,-7.375363 0.68524,-0.22328 2.36114,-1.175408 3.72422,-2.115844 1.36308,-0.940435 3.29408,-2.145193 4.29111,-2.677238 0.99703,-0.532045 1.96979,-1.093859 2.16167,-1.248473 0.19189,-0.154615 1.28489,-0.38386 2.42889,-0.509428 1.144,-0.125571 2.512,-0.4067 3.04,-0.624732 1.79102,-0.739578 4.79527,-1.310682 5.92,-1.125376 1.09435,0.180297 5.77372,3.474067 6.04979,4.258396 0.0714,0.202803 0.48447,0.836733 0.91798,1.408733 0.4335,0.572 0.70091,1.04 0.59425,1.04 -0.10667,0 0.14003,0.756 0.54823,1.68 1.64477,3.723091 1.23639,6.540499 -1.35717,9.363245 -0.8102,0.881782 -2.26508,2.572079 -3.23308,3.756214 -0.968,1.184134 -1.92771,2.154675 -2.13268,2.156755 -0.20498,0.0022 -1.14098,0.771821 -2.08,1.710528 -2.95493,2.953926 -9.66361,6.72309 -14.5638,8.18243 -1.3679,0.40737 -3.4387,0.71478 -5.25983,0.78081 -2.80704,0.10178 -3.22367,0.0299 -6.36369,-1.09817 z m 8.65026,-4.298069 c 0.96236,-0.26744 2.03774,-0.532784 2.38974,-0.589651 0.352,-0.05686 1.288,-0.443542 2.08,-0.859283 0.792,-0.415738 1.51624,-0.762397 1.60941,-0.770349 0.21905,-0.01869 3.85025,-2.389657 5.91059,-3.859264 4.1689,-2.973616 6.92074,-6.165385 7.3721,-8.550652 0.0754,-0.398499 0.22303,-1.120781 0.32804,-1.605072 0.26532,-1.223523 -0.71664,-4.01351 -1.88631,-5.359472 -1.60241,-1.843926 -3.86947,-3.47535 -5.26519,-3.78895 -2.80153,-0.629463 -6.10397,0.261932 -8.91566,2.406505 -0.57498,0.438563 -1.59162,1.088995 -2.2592,1.445408 -0.66758,0.35641 -1.57378,0.840989 -2.01378,1.076842 -0.44,0.235853 -1.7564,1.218182 -2.92534,2.18296 -2.99949,2.475609 -6.99641,8.599385 -6.54369,10.025759 0.10232,0.322381 0.057,1.036192 -0.10079,1.586244 -0.22374,0.780134 -0.15303,1.220099 0.3215,2.000396 0.33458,0.550167 0.60832,1.15505 0.60832,1.344183 0,0.189132 0.468,0.792956 1.04,1.341827 2.46234,2.362781 4.81878,2.926185 8.25026,1.972569 z M 197.28,97.919997 c -0.10877,-0.176 -0.0453,-0.32 0.14111,-0.32 0.18639,0 0.33889,0.144 0.33889,0.32 0,0.176 -0.0635,0.32 -0.14111,0.32 -0.0776,0 -0.23012,-0.144 -0.33889,-0.32 z m 4.13641,-6.106067 c -0.65593,-0.724796 -1.08848,-3.121033 -0.73558,-4.075001 0.38194,-1.032502 2.73302,-3.228758 4.21907,-3.941248 0.73706,-0.353382 1.8712,-0.928035 2.52033,-1.277008 2.07417,-1.115078 3.17881,-1.119907 4.35729,-0.01904 0.56735,0.52999 1.2342,1.537981 1.48188,2.239978 l 0.45032,1.276361 -1.34097,1.391015 c -0.73754,0.765059 -1.84223,1.6291 -2.45487,1.920099 -0.61263,0.290995 -2.12188,1.025824 -3.35388,1.63295 -2.91009,1.434083 -4.39426,1.679898 -5.14359,0.851898 z m 5.50382,-4.944489 c -0.22254,-0.57992 -1.91249,-0.648086 -1.72163,-0.06944 0.18539,0.562038 1.65223,1.266166 1.79159,0.860013 0.0606,-0.176618 0.0291,-0.532375 -0.07,-0.79057 z m 3.13034,-0.949443 c 0.2883,-0.44 0.45051,-0.8 0.36046,-0.8 -0.28112,0 -1.45103,1.08935 -1.45103,1.351117 0,0.515555 0.58555,0.219651 1.09057,-0.551117 z M 171.15196,73.612011 c -1.91534,-0.119024 -2.95039,-0.333488 -3.36,-0.696205 -0.32558,-0.288304 -1.27596,-0.831904 -2.11196,-1.207997 -0.84965,-0.382233 -1.52,-0.898963 -1.52,-1.17167 0,-0.268323 -0.504,-1.006816 -1.12,-1.641091 -0.616,-0.634275 -1.12089,-1.311136 -1.12197,-1.504138 -9.6e-4,-0.193001 -0.19751,-0.725629 -0.43649,-1.183616 -0.68631,-1.315251 -1.33646,-8.037164 -0.91746,-9.485702 1.98879,-6.875552 1.80047,-6.518752 5.47407,-10.371916 1.87101,-1.96248 3.83385,-3.74898 4.36185,-3.97 0.528,-0.221018 1.52643,-0.852128 2.21873,-1.402464 0.69229,-0.550339 1.44435,-0.929383 1.67124,-0.842317 0.22688,0.08706 0.62525,-0.145418 0.88525,-0.516627 0.30558,-0.436275 0.87054,-0.699075 1.59778,-0.743229 0.61878,-0.03757 1.56212,-0.249344 2.09632,-0.470614 0.69288,-0.287002 1.08908,-0.304532 1.38232,-0.06116 0.22608,0.187632 1.12595,0.335744 1.99971,0.329136 2.15149,-0.01626 5.27706,0.819837 8.02797,2.147517 1.25363,0.605043 2.51028,1.10008 2.79256,1.10008 0.68745,0 2.93866,2.890336 3.4235,4.395433 0.21341,0.662512 0.49577,1.348567 0.62746,1.524567 0.59187,0.791043 0.68034,4.607747 0.1497,6.458409 -0.7013,2.44585 -2.85725,6.787894 -4.11346,8.284432 -2.69307,3.208275 -7.1034,6.910861 -9.79908,8.226563 -0.616,0.300656 -1.336,0.684541 -1.6,0.853075 -0.73937,0.472 -5.60234,1.926544 -6.78583,2.02968 -0.5798,0.05052 -2.29979,0.01446 -3.82221,-0.08015 z M 177.12,71.898654 c 0.88,-0.05756 1.96,-0.222477 2.4,-0.366473 1.09178,-0.357296 5.66059,-3.026823 6.11274,-3.571626 0.20109,-0.242307 0.51316,-0.440557 0.69349,-0.440557 0.27082,0 2.32461,-1.853459 4.60964,-4.16 1.47793,-1.49184 2.99026,-4.078627 3.34332,-5.718617 0.21329,-0.990762 0.70278,-2.449382 1.08775,-3.241382 0.98627,-2.029063 1.15976,-3.25274 0.6111,-4.310288 -0.31824,-0.613402 -0.3632,-1.018413 -0.14256,-1.284259 0.22631,-0.272695 0.13745,-0.555559 -0.29847,-0.950061 -0.3414,-0.308967 -0.7131,-0.982272 -0.82598,-1.49624 -0.32465,-1.478106 -1.51814,-2.619747 -3.80507,-3.639751 -1.34223,-0.598656 -2.06132,-1.094156 -1.96232,-1.352163 0.086,-0.22398 0.0168,-0.407238 -0.15368,-0.407238 -0.17048,0 -0.30996,0.144 -0.30996,0.32 0,0.389069 -1.49431,0.429888 -1.73078,0.04728 -0.14315,-0.231616 -1.86331,-0.473639 -5.62922,-0.792013 -0.44,-0.0372 -1.232,0.05786 -1.76,0.211242 -0.528,0.153379 -1.67095,0.453011 -2.53989,0.665846 -0.86894,0.212832 -1.63215,0.543763 -1.69603,0.735401 -0.0706,0.211773 0.42356,0.146228 1.25989,-0.167107 0.97269,-0.364428 2.40782,-0.510739 4.89603,-0.499145 3.75752,0.0175 5.17379,0.431379 8.36082,2.443264 2.69448,1.70095 4.80769,6.512751 3.89497,8.868879 -0.1718,0.443495 -0.36749,1.238356 -0.43487,1.766356 -0.16806,1.316963 -1.66819,4.844822 -2.72741,6.414015 -1.39799,2.071092 -2.58131,3.169303 -4.29351,3.984717 -0.88,0.419085 -2.40776,1.309651 -3.39503,1.979037 -3.65598,2.478816 -8.65948,3.652637 -11.37498,2.668573 -0.6765,-0.245152 -1.6021,-0.523613 -2.05689,-0.618807 -1.28795,-0.269577 -3.22848,-1.987635 -4.40123,-3.896675 -1.26641,-2.061475 -1.85465,-5.099366 -1.14392,-5.907648 0.25209,-0.286685 0.49406,-1.504691 0.57215,-2.88 0.20211,-3.559392 1.15792,-5.681043 3.77755,-8.385151 1.2003,-1.238996 2.18235,-2.375421 2.18235,-2.525392 0,-0.149968 0.162,-0.236669 0.36,-0.192669 0.198,0.044 0.42603,-0.100099 0.50674,-0.320218 0.099,-0.270067 -0.0441,-0.331645 -0.44,-0.189357 -0.75975,0.273037 -3.6259,2.339488 -3.62951,2.616829 -0.002,0.117011 -0.53797,0.777511 -1.19208,1.467779 -0.65411,0.690269 -1.43996,1.966803 -1.74632,2.836749 -0.30636,0.869942 -0.77175,1.745178 -1.03421,1.944966 -0.26245,0.199789 -0.58631,0.795252 -0.71969,1.323252 -0.40319,1.59614 -0.2983,7.886243 0.15743,9.439999 0.2323,0.792 0.5232,1.8 0.64644,2.24 0.14608,0.521546 0.49593,0.838669 1.0051,0.911098 0.78158,0.111174 1.66678,0.97184 1.41633,1.377069 -0.16133,0.26104 2.47849,1.898902 4.02977,2.500249 0.616,0.238787 1.2474,0.54568 1.40311,0.681984 0.15571,0.136301 1.23571,0.185968 2.4,0.110371 1.16429,-0.0756 2.83689,-0.18455 3.71689,-0.242115 z m 1.09279,-3.770477 c 1.15897,-0.378873 2.39521,-0.940268 2.74721,-1.247542 0.352,-0.30727 1.27985,-0.973117 2.06189,-1.479658 1.57055,-1.017273 6.21323,-5.529174 7.21811,-7.014799 0.71145,-1.051805 1.42778,-2.904535 1.43518,-3.711943 0.003,-0.289171 -0.22373,-0.613465 -0.50307,-0.720659 -0.43153,-0.165597 -0.38342,-0.342819 0.32,-1.17879 1.00913,-1.199277 1.01913,-1.369751 0.11554,-1.969706 -0.62542,-0.415267 -0.66646,-0.573693 -0.33627,-1.298361 0.32534,-0.714051 0.26596,-0.990032 -0.44025,-2.046051 -2.53955,-3.79746 -4.5709,-4.794285 -10.29001,-5.04952 -1.41385,-0.0631 -2.20731,0.112179 -3.72859,0.823657 -1.06289,0.497098 -2.25342,1.182957 -2.64561,1.524131 -0.3922,0.341175 -1.2202,0.933732 -1.84,1.316791 -0.61981,0.383059 -1.12692,0.828726 -1.12692,0.990371 0,0.161645 -0.17072,0.293901 -0.37938,0.293901 -0.45932,0 -1.86062,1.272595 -1.86062,1.689731 0,0.163994 -0.41277,0.822893 -0.91727,1.464221 -0.50451,0.641324 -1.02493,1.526048 -1.15649,1.966048 -0.13157,0.44 -0.53998,1.296224 -0.90759,1.90272 -0.56908,0.938896 -0.66627,1.604454 -0.65422,4.479999 0.0125,2.980612 0.11454,3.588602 0.86881,5.176493 1.13912,2.398074 2.78853,3.544848 6.60676,4.593421 1.74343,0.478784 2.66895,0.392531 5.41279,-0.504455 z M 175.12,59.330229 c -1.14608,-0.963472 -1.35972,-1.327888 -1.35821,-2.316771 0.004,-2.452247 0.55045,-3.493693 2.73552,-5.210871 1.13448,-0.891555 2.06269,-1.751865 2.06269,-1.911798 0,-0.159936 0.252,-0.291328 0.56,-0.291987 0.308,-6.4e-4 1.03148,-0.288656 1.60773,-0.64 1.37661,-0.839315 2.18744,-0.806794 2.78938,0.111875 0.27053,0.412877 0.82741,0.903562 1.23751,1.090419 1.47013,0.669837 1.92508,4.791795 0.73016,6.615466 -0.6967,1.063305 -5.45425,3.333305 -7.40478,3.533094 -1.4781,0.151398 -1.70362,0.07678 -2.96,-0.979427 z m 7.41472,-4.469776 c 0.47875,-0.654726 0.30076,-1.740454 -0.28532,-1.740454 -0.21777,0 -0.78439,0.36 -1.25916,0.8 -0.47477,0.44 -0.98925,0.8 -1.14329,0.8 -0.33395,0 -1.28552,1.814761 -1.06645,2.033833 0.2552,0.255203 3.30949,-1.285177 3.75422,-1.893379 z M 180.16,52.40469 l 1.12,-0.712915 -0.9083,-0.109876 c -0.93659,-0.113296 -2.26314,0.746535 -1.94527,1.260868 0.25339,0.409984 0.49861,0.348016 1.73357,-0.438077 z m -6.75337,-8.879933 c 0.69982,-0.598448 0.87069,-0.870803 0.48,-0.765091 -0.85684,0.231846 -2.6423,1.719904 -2.04663,1.705738 0.264,-0.0063 0.96899,-0.429568 1.56663,-0.940647 z M 237.76,111.33086 c 0,-0.14893 -0.216,-0.18789 -0.48,-0.0866 -0.264,0.1013 -0.48,0.40241 -0.48,0.66913 0,0.39479 0.0892,0.41088 0.48,0.0866 0.264,-0.2191 0.48,-0.52022 0.48,-0.66914 z M 238.4,110.4 c 0,-0.176 -0.144,-0.32 -0.32,-0.32 -0.176,0 -0.32,0.144 -0.32,0.32 0,0.176 0.144,0.32 0.32,0.32 0.176,0 0.32,-0.144 0.32,-0.32 z m 3.78178,-2.4 c 0.20047,-0.44 0.2467,-0.8 0.10273,-0.8 -0.14398,0 -0.42581,0.36 -0.62629,0.8 -0.20047,0.44 -0.2467,0.8 -0.10273,0.8 0.14398,0 0.42581,-0.36 0.62629,-0.8 z m 8.62423,-18.658034 c 0.0693,-0.207917 -0.26914,-0.528269 -0.75211,-0.711892 -1.18961,-0.452288 -1.70079,0.09269 -0.72683,0.774877 0.79798,0.558925 1.27846,0.538461 1.47894,-0.06298 z m 1.53122,-1.68985 c 0.36387,-0.588749 -0.39186,-1.027945 -1.35348,-0.786592 l -0.90312,0.226666 0.79969,0.442563 c 0.98256,0.543773 1.18338,0.559952 1.45691,0.117363 z m -2.62111,-1.58591 c 0.44512,-0.403731 -0.13361,-1.016279 -0.79642,-0.842951 -0.38795,0.10145 -0.72822,-0.06546 -0.93994,-0.461084 -0.18253,-0.341053 -0.46442,-0.53818 -0.62642,-0.438058 -0.41397,0.25585 -2.36787,-0.804902 -2.03011,-1.102125 0.15222,-0.133952 1.35677,-0.421523 2.67677,-0.639053 2.59325,-0.42735 3.25398,-0.664889 3.44522,-1.238592 0.18357,-0.550716 -1.50951,-1.984345 -2.34347,-1.984345 -0.93891,0 -4.30175,-1.285498 -4.30175,-1.64441 0,-0.151574 0.54,-0.292201 1.2,-0.312502 0.66,-0.02029 1.344,-0.07037 1.52,-0.111261 0.176,-0.04089 1.148,-0.09628 2.16,-0.123088 1.62608,-0.04307 1.84,-0.125043 1.84,-0.705069 0,-0.460537 -0.35797,-0.798208 -1.2,-1.131939 -3.17267,-1.257462 -4.36106,-2.43496 -2.64,-2.615782 2.87928,-0.302512 4.21442,-1.318986 3.35123,-2.551363 -0.38957,-0.556186 -0.82767,-0.659914 -2.92001,-0.691367 -3.011,-0.04526 -3.75537,-0.419193 -1.52601,-0.766592 1.11658,-0.173996 3.06349,-1.102912 3.39649,-1.620544 0.12193,-0.189539 0.0683,-0.529449 -0.11919,-0.75535 -0.18748,-0.225904 -0.23361,-0.410733 -0.10251,-0.410733 0.1311,0 0.054,-0.222102 -0.17125,-0.493561 -0.30532,-0.367879 -0.31723,-0.585955 -0.0468,-0.856387 0.69631,-0.696311 -0.15194,-1.145466 -1.62501,-0.860461 -0.74632,0.144397 -1.89816,0.268809 -2.55965,0.276473 -1.09109,0.01264 -1.16843,-0.04097 -0.83329,-0.577606 0.20504,-0.328314 1.3763,-0.906096 2.63212,-1.298426 2.98257,-0.931776 3.36139,-1.251139 2.38878,-2.013878 -0.70489,-0.552781 -0.71426,-0.607728 -0.17455,-1.023002 0.53375,-0.410684 0.50521,-0.493651 -0.44481,-1.29304 -0.55833,-0.469807 -1.21562,-0.77727 -1.46063,-0.683247 -0.24502,0.09402 -1.32646,0.399228 -2.40321,0.678243 -1.5975,0.413955 -2.00532,0.430288 -2.21638,0.08877 -0.34803,-0.56311 -0.0499,-0.806496 1.8127,-1.479734 2.50635,-0.905933 3.66198,-1.624711 3.66198,-2.277671 0,-0.363901 0.30087,-0.672605 0.77039,-0.790448 1.10949,-0.278467 0.7884,-1.440569 -0.33851,-1.225145 -0.55624,0.106332 -0.78044,0.01846 -0.7376,-0.28906 0.0338,-0.243001 0.0445,-0.604131 0.0236,-0.802512 -0.0563,-0.535542 -2.91816,-0.169696 -3.87792,0.495735 -0.7719,0.535193 -2.68767,1.304957 -3.24773,1.304957 -0.14974,0 -0.27225,-0.225296 -0.27225,-0.50066 0,-0.616588 1.50511,-1.912892 3.27398,-2.819779 0.72901,-0.37376 1.4786,-0.967561 1.66575,-1.319561 0.18715,-0.352 0.42671,-0.712 0.53237,-0.8 1.10626,-0.921431 0.8963,-2.851875 -0.38474,-3.537466 -0.84243,-0.450854 -2.97181,-0.213065 -4.30161,0.480362 -0.52016,0.271238 -1.15247,0.494048 -1.40513,0.495133 -0.25265,9.6e-4 -0.79456,0.316864 -1.20423,0.701734 -0.53774,0.505174 -0.84189,0.602736 -1.09379,0.350838 -0.53069,-0.530688 -0.0468,-1.123955 2.64855,-3.247356 2.70745,-2.132912 3.12815,-2.603245 2.32855,-2.603245 -0.442,0 -0.46694,-0.0857 -0.1397,-0.48 0.59466,-0.716522 -0.15366,-1.44 -1.48946,-1.44 -1.36527,0 -2.81559,0.597446 -4.61555,1.901334 -1.30605,0.946093 -1.42571,0.975744 -1.81103,0.448788 -0.52949,-0.724112 -0.5653,-0.657533 1.59604,-2.967028 1.84016,-1.966294 2.19128,-2.70214 1.44,-3.017856 -0.28645,-0.120374 -0.24103,-0.268719 0.16,-0.522566 0.83739,-0.530057 0.67875,-1.176557 -0.42365,-1.726505 -1.12726,-0.562353 -2.33829,-0.415965 -4.38538,0.530102 -1.09088,0.504154 -1.3295,0.757254 -1.17447,1.245722 0.16302,0.513615 0.0737,0.582694 -0.55097,0.426006 -0.63997,-0.160531 -1.13733,0.279481 -3.51251,3.107494 -2.73873,3.260877 -3.62513,4.173411 -7.59521,7.819155 -3.74722,3.441091 -5.7293,5.58729 -5.87789,6.364573 -0.11804,0.617456 0.30568,1.231549 2.13919,3.100371 1.25751,1.281725 3.93665,4.128701 5.95364,6.326614 3.76606,4.103872 4.58649,4.935376 9.4673,9.595098 1.56197,1.491216 3.61281,3.615215 4.55742,4.719999 0.94461,1.104784 1.92395,2.008698 2.17633,2.008698 0.25237,0 0.65954,0.468 0.90482,1.04 0.24528,0.572 1.0401,1.536966 1.76627,2.144368 0.72617,0.607405 1.51969,1.581555 1.76338,2.164777 0.24369,0.583226 0.56737,1.02226 0.7193,0.975632 0.15193,-0.04663 0.78964,0.419223 1.41714,1.035223 0.62751,0.616 1.33765,1.282832 1.5781,1.481846 0.4516,0.37377 2.4656,0.226714 2.95331,-0.215638 z M 252.16,82.906663 c 0,-0.374816 -0.68098,-0.61616 -1.2,-0.425289 -0.69264,0.254713 -0.43442,0.718624 0.4,0.718624 0.44,0 0.8,-0.132 0.8,-0.293335 z m 0.32,-3.866665 c 0,-0.176 -0.2245,-0.32 -0.49889,-0.32 -0.27438,0 -0.40988,0.144 -0.30111,0.32 0.10877,0.176 0.33327,0.32 0.49889,0.32 0.16561,0 0.30111,-0.144 0.30111,-0.32 z m 0.32,-5.101114 c 0,-0.859616 -0.42999,-1.043136 -1.49315,-0.63727 -0.87432,0.333776 -0.88457,0.362557 -0.28569,0.802288 0.89861,0.659818 1.77884,0.57816 1.77884,-0.165018 z M 213.93369,47.839999 c 1.10257,-0.968 2.12654,-1.761283 2.27549,-1.762848 0.14895,-0.0016 1.13482,-0.875155 2.19082,-1.941306 1.056,-1.06615 2.27301,-2.25287 2.70446,-2.637152 2.09166,-1.862969 3.52953,-3.469299 4.00797,-4.477552 0.28981,-0.610729 1.66061,-2.267168 3.04621,-3.680979 2.53295,-2.584514 3.55027,-4.054131 3.2967,-4.762422 -0.0753,-0.210243 0.0347,-0.702843 0.24442,-1.094667 0.30718,-0.573971 0.29181,-0.779514 -0.0791,-1.057741 -0.25319,-0.189933 -0.56112,-0.613551 -0.6843,-0.941372 -0.1679,-0.446855 -0.32819,-0.509533 -0.6404,-0.25042 -0.22905,0.190091 -0.91134,0.279231 -1.51621,0.19809 -1.03413,-0.138724 -1.2239,-0.004 -3.17977,2.256769 -1.15136,1.330868 -2.29266,2.364106 -2.55633,2.314274 -0.92505,-0.174832 -0.68091,-1.255294 0.68319,-3.023412 1.1098,-1.438507 1.37362,-2.030521 1.34757,-3.023973 -0.0178,-0.679409 0.11078,-1.235289 0.28577,-1.235289 0.17524,0 0.13921,-0.215623 -0.0802,-0.48 -0.2191,-0.264 -0.27273,-0.484579 -0.11918,-0.490177 0.69752,-0.02543 -1.05837,-0.949823 -1.80419,-0.949823 -1.11153,0 -3.80908,2.039896 -5.49101,4.152315 -1.21439,1.525208 -1.37773,1.630216 -1.74804,1.123785 -0.34168,-0.467273 -0.29312,-0.768079 0.29697,-1.839358 0.388,-0.7044 0.93288,-1.710356 1.21085,-2.235457 0.27797,-0.525102 0.74597,-1.08936 1.04,-1.253908 0.29403,-0.164548 0.5346,-0.676684 0.5346,-1.13808 0,-2.298868 -2.57487,-2.696066 -5.61883,-0.866758 -2.26914,1.363678 -3.31131,2.284379 -3.6872,3.257461 -0.28374,0.734521 -1.06468,0.965161 -1.40477,0.41488 -0.10372,-0.167816 0.4417,-1.499816 1.21203,-2.96 1.63498,-3.099121 1.64201,-4.175013 0.0334,-5.114469 -0.96747,-0.565032 -1.01504,-0.561041 -2.63643,0.221142 -1.54128,0.743536 -1.73804,0.977673 -2.956,3.517503 -0.71764,1.496519 -1.41171,2.720944 -1.54236,2.720944 -0.13066,0 -0.47669,-0.18 -0.76896,-0.4 -0.49368,-0.371608 -0.48803,-0.563614 0.0796,-2.705098 0.33605,-1.267804 0.77473,-2.611036 0.97485,-2.98496 0.45373,-0.847799 -0.3815,-2.84439 -1.22039,-2.917321 -1.25564,-0.10916 -1.53436,-0.16525 -2.11421,-0.425469 -0.4799,-0.215363 -0.81954,-0.03232 -1.6,0.862286 -1.9996,2.292048 -2.43078,2.873609 -2.43078,3.278565 0,0.623066 -0.81041,1.169315 -1.39944,0.943282 C 193.70505,16.291836 193.6,15.776159 193.6,13.895806 c 0,-2.037298 -0.0699,-2.328907 -0.51693,-2.157356 -0.40643,0.155961 -0.47205,0.05697 -0.30698,-0.463113 0.24526,-0.772762 -0.30389,-1.240022 -0.8878,-0.755414 -0.28413,0.235806 -0.91965,0.197706 -2.14598,-0.128653 -2.47849,-0.6595909 -3.27396,-0.6241669 -3.03299,0.135064 0.25143,0.792209 -0.69027,3.127183 -1.36574,3.386387 -0.80893,0.310416 -1.28347,-0.62851 -1.10736,-2.191012 0.12543,-1.112814 0.0466,-1.427503 -0.40059,-1.599105 -0.73625,-0.2825284 -1.26538,0.197973 -2.28895,2.078627 -0.46662,0.857323 -0.97184,1.558769 -1.12272,1.558769 -0.15087,0 -0.51465,-0.504 -0.8084,-1.12 -0.3506,-0.735213 -0.7611,-1.124235 -1.19483,-1.132327 -0.38783,-0.0072 -0.92793,-0.436777 -1.30766,-1.04 -0.5045,-0.8014003 -0.87208,-1.0300857 -1.66948,-1.03863 -1.16796,-0.012515 -2.32359,0.3488134 -2.32359,0.726511 0,1.122032 11.55392,13.384779 23.74819,25.205127 1.63449,1.584374 4.26781,4.305763 5.85181,6.047526 4.87487,5.360406 7.89647,8.191792 8.74211,8.191792 0.2568,0 1.36901,-0.792 2.47158,-1.76 z m 31.50631,-5.92 c 0,-0.176 -0.216,-0.32 -0.48,-0.32 -0.264,0 -0.48,0.144 -0.48,0.32 0,0.176 0.216,0.32 0.48,0.32 0.264,0 0.48,-0.144 0.48,-0.32 z M 234.59976,30.165607 c 1.02531,-0.605661 1.10329,-1.450777 0.1508,-1.63421 -0.46803,-0.09014 -0.56443,0.02806 -0.43295,0.530828 0.12782,0.488782 -0.0205,0.694384 -0.60732,0.841658 -0.42706,0.107183 -0.69008,0.334657 -0.58449,0.505498 0.25926,0.419495 0.38687,0.398391 1.47396,-0.243774 z m -6.54116,-6.865608 c -0.10216,-0.255274 -0.17798,-0.179448 -0.19334,0.193334 -0.0139,0.337333 0.0617,0.526333 0.16807,0.42 0.10634,-0.106334 0.1177,-0.382334 0.0252,-0.613334 z m -72.5386,-1.22 c 0,-0.176 -0.1355,-0.32 -0.30111,-0.32 -0.16562,0 -0.39012,0.144 -0.49889,0.32 -0.10877,0.176 0.0267,0.32 0.30111,0.32 0.27439,0 0.49889,-0.144 0.49889,-0.32 z m 66.38311,-2.907331 c -0.10303,-0.166709 -0.32373,-0.218809 -0.49044,-0.115777 -0.16671,0.103032 -0.21881,0.32373 -0.11578,0.49044 0.10303,0.166709 0.32373,0.218809 0.49044,0.115777 0.16671,-0.103032 0.21881,-0.32373 0.11578,-0.49044 z M 214.32667,16.06 c 0.0697,-0.209 -0.10134,-0.38 -0.38,-0.38 -0.27867,0 -0.50667,0.228 -0.50667,0.506666 0,0.565097 0.68888,0.466685 0.88667,-0.126666 z M 196.8,10.898885 c 0,-0.536455 -0.56753,-0.669291 -0.75643,-0.177047 -0.11145,0.290451 0.001,0.478162 0.28647,0.478162 0.25848,0 0.46996,-0.135502 0.46996,-0.301115 z" id="path12"/>
</svg>
