<?xml version="1.0" encoding="utf-8"?>
<svg xmlns="http://www.w3.org/2000/svg" version="1.1" viewBox="0 0 1175 648">
	<path d="m 721,0.11132812 c -0.99687,10e-9 -1.99375,0.0573127 -2.75,0.171875 -1.5125,0.22912465 -0.275,0.41796876 2.75,0.41796876 3.025,-10e-9 4.2625,-0.18884412 2.75,-0.41796876 -0.75625,-0.11456231 -1.75313,-0.171875 -2.75,-0.171875 z M 1005.0977,24.503906 c -6.15288,0.03038 -12.17857,0.225325 -15.96293,0.611328 -12.61692,1.28692 -27.5476,7.480608 -33.57813,13.927735 -5.15326,5.509256 -6.04803,8.171236 -1.80664,5.373047 C 960.52532,39.94611 969.60329,35 971.0332,35 c 0.86123,0 1.99508,-0.38232 2.51758,-0.849609 2.0929,-1.87175 10.25935,-4.416839 15.44922,-4.814453 10.7819,-0.826042 28.0945,-0.990803 28.5391,-0.271485 0.3902,0.631293 7.5305,1.602047 17.9179,2.435547 3.2349,0.259579 4.8715,2.5 1.8262,2.5 -1.0358,0 -2.4188,0.536014 -3.0742,1.191406 -0.6734,0.673381 -5.1836,1.382934 -10.3692,1.63086 -7.9468,0.379939 -9.3495,0.200013 -10.4726,-1.335938 -1.9521,-2.66971 -20.95098,-1.665331 -27.93165,1.476563 -2.71477,1.221878 -5.45969,2.313915 -6.09961,2.425781 -3.19406,0.558364 -8.43203,4.37556 -10,7.287109 -2.12213,3.940551 -3.51159,4.587271 -6.99805,3.261719 -1.45451,-0.553003 -5.32512,-1.212041 -8.60156,-1.466797 -5.42522,-0.421832 -6.47275,-0.910267 -11.73242,-5.466797 C 938.82746,40.252094 935.7818,38 935.23633,38 c -0.54547,0 -1.498,-0.611345 -2.11719,-1.357422 -0.66583,-0.802281 -4.29143,-1.621184 -8.87305,-2.005859 -4.26066,-0.357725 -9.47539,-1.128989 -11.58789,-1.714844 -2.1125,-0.585854 -4.5875,-0.746491 -5.5,-0.355469 -0.9125,0.391022 -2.3332,0.806121 -3.1582,0.921875 -0.825,0.115754 -3.975,0.96179 -7,1.88086 -3.025,0.91907 -5.61124,1.673781 -5.74609,1.675781 C 889.23377,37.075378 885,38.451708 885,39.078125 c 0,0.455513 -1.96707,1.698306 -4.37109,2.761719 -2.40402,1.063414 -4.68016,2.434551 -5.0586,3.046875 C 875.19188,45.499042 873.79754,46 872.47266,46 c -1.89674,0 -4.09662,2.261536 -10.34571,10.636719 l -7.93554,10.636719 -1.21875,9.953124 c -0.67061,5.474558 -0.95075,11.909941 -0.62305,14.300782 0.66404,4.844693 1.01726,4.72547 -7.3418,2.474609 -7.55498,-2.034343 -12.20323,-2.019057 -18.32422,0.0625 -5.53173,1.88117 -10.58304,5.984237 -10.65234,8.652347 -0.0236,0.90941 -2.49511,1.07741 -9.78125,0.66406 -13.77372,-0.78139 -13.76073,-0.78241 -34.25,0.0625 -18.00645,0.74252 -22.68924,1.62785 -24.54883,4.63672 -1.23927,2.00519 1.06773,3.05419 4.13672,1.88086 4.26546,-1.63076 11.34008,-2.00459 15.91211,-0.83985 4.27365,1.08873 7.22537,1.66043 9.26367,1.79493 1.98093,0.13071 9.23238,7.39646 9.23438,9.25195 0.003,3.53565 -1.26129,4.74982 -5.63867,5.40625 -4.33157,0.64955 -4.44461,0.75681 -3.8125,3.63476 l 0.65039,2.9668 -5.84766,-0.49219 C 768.13284,131.4131 765.5,131.10025 765.5,130.98828 c 0,-0.11196 -1.35,-0.31241 -3,-0.44531 -1.65,-0.1329 -3.675,-0.49675 -4.5,-0.80859 -0.825,-0.31185 -2.75169,-0.84205 -4.28125,-1.17774 -2.88288,-0.63272 -6.70784,-5.6296 -6.71484,-8.77148 -0.004,-1.95855 2.87281,-3.78516 5.96289,-3.78516 1.15444,0 4.31977,1.125 7.0332,2.5 5.83704,2.95785 8.95232,3.21403 9.11914,0.75 0.18632,-2.75186 -0.21063,-4.67226 -1.17187,-5.66992 -1.24697,-1.29421 -9.68429,-1.45049 -14.44727,-0.26758 -4.74301,1.17796 -8.53155,1.05634 -9.90625,-0.31836 -1.67864,-1.67864 -3.68129,-1.12408 -7.24609,2.00586 -1.87925,1.65 -3.80382,3 -4.27735,3 -0.47353,0 -2.2317,2.1375 -3.90625,4.75 -4.93725,7.7027 -6.73754,23.23115 -3.25976,28.11523 3.49862,4.91336 8.55294,9.82914 13.0957,12.73633 2.475,1.5839 4.76856,3.25047 5.09766,3.70313 0.98376,1.35311 18.42501,2.59704 27.85156,1.98633 6.63515,-0.42988 9.9352,-0.17808 13.48437,1.03125 2.58457,0.88065 5.98467,1.34368 7.55664,1.02929 1.81529,-0.36306 3.69649,0.0166 5.15625,1.03906 1.26409,0.88541 4.21341,1.60938 6.55274,1.60938 2.46624,0 5.61138,0.82656 7.48633,1.9668 1.89392,1.15176 4.14463,1.73708 5.43164,1.41406 1.20858,-0.30333 3.25033,0.0159 4.53906,0.70898 2.66972,1.43575 8.70029,2.86902 13.84375,3.28907 1.925,0.1572 4.2875,0.63427 5.25,1.06054 1.3874,0.61444 1.7568,0.28659 1.7832,-1.58203 l 0.0332,-2.35742 1.84179,2.20508 c 1.5555,1.8635 3.063,2.25914 9.7168,2.54883 8.95989,0.39008 23.18305,0.009 28.375,-0.75977 1.925,-0.2852 6.875,-0.76349 11,-1.0625 4.125,-0.29901 8.4,-0.92332 9.5,-1.38867 1.1,-0.46534 5.375,-1.35658 9.5,-1.97852 7.93863,-1.19693 11.80789,-2.14332 21.5,-5.26367 8.58685,-2.76453 10.09516,-3.43031 19.46094,-8.57617 2.49598,-1.37137 6.22656,-3.34377 8.28906,-4.38281 2.0625,-1.03904 3.75,-2.2795 3.75,-2.75782 0,-2.27097 -3.57494,-1.50177 -14.08398,3.03125 -6.27912,2.70846 -13.35052,5.0898 -15.71485,5.29297 -2.36434,0.20316 -5.15847,1.14891 -6.20898,2.09961 -1.05052,0.9507 -5.64102,2.60336 -10.20117,3.67383 -8.97266,2.10627 -9.63108,2.21247 -23.79102,3.80664 -5.225,0.58825 -11.3,1.32907 -13.5,1.64649 -5.21892,0.75298 -17.1863,0.47671 -21,-0.48438 -1.65,-0.41582 -6.4875,-0.69835 -10.75,-0.62695 -4.2625,0.0714 -7.75,-0.1787 -7.75,-0.55664 0,-0.74696 -8.59233,-1.98278 -16.375,-2.35547 -2.9972,-0.14353 -5.30859,-0.82409 -6,-1.76563 -1.39506,-1.89974 -9.18576,-3.73822 -17.125,-4.04101 -3.3,-0.12585 -6.675,-0.59767 -7.5,-1.04883 -0.825,-0.45115 -3.525,-1.38801 -6,-2.08203 -3.89082,-1.09104 -4.50667,-1.62743 -4.54688,-3.96485 -0.0486,-2.828 0.44585,-3.14296 6.68165,-4.24609 2.22482,-0.39358 3.89835,-0.21966 4.31054,0.44727 1.17486,1.90098 2.55469,1.17802 2.55469,-1.33789 0,-1.9477 -1.04253,-2.91942 -5.27539,-4.92188 -2.90144,-1.3726 -6.15757,-3.47205 -7.23633,-4.66406 -1.84965,-2.04384 -1.8624,-2.23992 -0.22461,-3.4375 0.95519,-0.69846 1.73728,-1.66884 1.73828,-2.15821 0.001,-0.48937 1.25835,-0.93352 2.79297,-0.98632 1.53462,-0.0528 4.12143,-0.74704 5.74805,-1.54297 2.53429,-1.24007 2.91747,-1.9421 2.68359,-4.9043 -0.15012,-1.90128 -1.34996,-5.70703 -2.66601,-8.45703 -1.31605,-2.75 -3.0501,-6.60906 -3.85352,-8.57617 l -1.46094,-3.57617 5.62696,-0.16016 c 3.09458,-0.0873 7.65195,0.47872 10.12695,1.25781 2.475,0.7791 6.525,1.72749 9,2.10742 2.475,0.37992 5.6944,1.53542 7.1543,2.56836 1.4599,1.03293 3.97311,1.87891 5.58398,1.87891 4.06051,0 14.55854,2.09855 15.71094,3.14062 0.5225,0.47248 2.58262,0.85938 4.57617,0.85938 4.46728,0 21.97092,6.06527 25.48828,8.83203 1.419,1.11618 3.94126,2.32784 5.60547,2.69336 1.6642,0.36552 5.80566,2.24705 9.20313,4.17969 3.8738,2.20361 8.97439,4.04383 13.67773,4.93554 8.34935,1.58298 23.38176,1.76106 26.0957,0.3086 0.96737,-0.51772 2.51298,-0.6521 3.4336,-0.29883 1.26705,0.48606 1.57454,0.18074 1.26367,-1.25391 -0.2293,-1.05822 -1.04747,-1.72564 -1.85156,-1.50976 -2.80962,0.7543 -13.47496,1.18581 -15.69141,0.63476 -1.2375,-0.30767 -2.25,-0.9702 -2.25,-1.47265 0,-2.89079 13.17172,-2.98593 21.70312,-0.15625 3.18845,1.05754 6.47188,1.92391 7.29688,1.92383 0.825,-8e-5 5.55,0.26552 10.5,0.59179 8.42949,0.55562 41.58413,1.88039 46,1.83789 5.2591,-0.0507 28.3364,-5.74888 31.584,-7.79882 1.9711,-1.2442 6.829,-3.39034 10.7949,-4.76954 3.9658,-1.3792 8.8745,-3.78465 10.9082,-5.34375 4.0485,-3.10375 10.6078,-6.33398 12.8613,-6.33398 0.7869,0 3.2754,-0.94 5.5293,-2.08984 4.3731,-2.23098 13.6105,-4.91016 16.9317,-4.91016 1.7132,0 1.9654,-0.55661 1.7011,-3.75 l -0.3105,-3.75 -7,-0.082 c -6.7863,-0.079 -8.1972,-0.35811 -13.5,-2.67188 l -2.5,-1.08984 3,-0.71094 c 3.1086,-0.73518 2.9572,-1.105832 -0.5371,-1.32031 -1.12,-0.06875 -2.3575,-0.60706 -2.75,-1.195312 -0.3924,-0.588252 -3.9544,-1.10812 -7.916,-1.15625 l -7.2031,-0.08789 -5.3145,-5.443359 c -2.9236,-2.994464 -6.9946,-6.052778 -9.0469,-6.794922 C 1033.68,84.205121 1032,83.013339 1032,82.298828 c 0,-1.750174 2.0702,-1.638322 4.7773,0.257813 1.2224,0.856187 2.2227,1.154276 2.2227,0.662109 0,-0.492166 2.5875,-1.305119 5.75,-1.806641 5.3294,-0.845158 5.8785,-1.186406 7.5078,-4.662109 1.618,-3.451634 2.7261,-4.273247 5.1504,-3.816406 8.7626,1.651288 13.9471,0.674526 15.0625,-2.839844 0.8034,-2.53116 2.2739,-2.987676 7.0488,-2.185547 2.819,0.473565 4.2817,0.274514 5.0137,-0.683594 0.5685,-0.744114 2.1435,-1.482219 3.5,-1.640625 9.1386,-1.067158 10.9668,-1.742935 10.9668,-4.054687 0,-2.778959 2.268,-3.371696 11.2148,-2.925781 3.4573,0.172316 7.9974,0.0636 10.0899,-0.242188 3.6828,-0.538185 3.7948,-0.67302 3.5,-4.208984 -0.3206,-3.844934 -0.1419,-3.767345 -6.8047,-2.957032 -1.7765,0.216052 -2.7741,-0.317215 -3.4453,-1.845703 -1.222,-2.783047 -8.4952,-4.227046 -18.1524,-3.601562 -5.1417,0.33302 -7.9091,0.04189 -10.041,-1.060547 -1.6187,-0.837049 -5.8499,-2.038845 -9.4023,-2.669922 -11.4394,-2.032194 -21.4193,-4.236226 -22.959,-5.070312 -1.7688,-0.958188 -2.5357,-0.678651 10.5,-3.826172 4.95,-1.195198 10.9125,-2.160845 13.25,-2.146485 3.0231,0.01857 4.25,-0.385224 4.25,-1.398437 0,-1.150684 -2.7384,-1.486985 -14.25,-1.75 -7.8375,-0.179071 -16.4573,-0.0043 -19.1562,0.388672 -5.752,0.837586 -17.2783,-0.637859 -20.4493,-2.617188 -1.183,-0.738455 -11.7921,-1.144387 -22.0468,-1.09375 z M 904.46875,36.482422 c 0.16869,0.0384 0.34488,0.217067 0.53906,0.53125 0.40153,0.649693 2.47691,1.300452 4.61133,1.445312 2.13443,0.14486 4.55586,0.520544 5.38086,0.835938 0.825,0.315394 3.95001,0.84052 6.94531,1.167969 4.29795,0.469856 6.53317,1.435475 10.60157,4.574218 8.24736,6.362789 8.95312,7.451518 8.95312,13.81836 0,5.481594 -0.1514,5.792798 -5.21875,10.789062 -3.29909,3.252803 -6.9503,5.735486 -9.92773,6.75 -5.53865,1.887206 -4.8372,1.878687 -9.78711,0.115235 -2.16363,-0.770817 -4.41363,-1.094983 -5,-0.722657 -2.59572,1.648204 -6.98184,0.955118 -8.83008,-1.394531 C 901.70124,73.076666 899.86633,72 898.6582,72 c -2.1293,0 -2.56738,-0.601652 -10.28711,-14.162109 -2.81101,-4.937808 2.33614,-13.288452 10.38672,-16.84961 2.34571,-1.037617 4.54753,-2.622316 4.89258,-3.521484 0.27809,-0.724709 0.53721,-1.048373 0.81836,-0.984375 z m 118.73435,7.226562 c 0.8253,0.03845 1.241,0.284907 1.418,0.746094 0.3322,0.865787 4.4848,1.299801 14.1738,1.480469 25.4992,0.475473 30.0136,0.953982 31.7012,3.363281 2.0844,2.97591 1.9097,3.521654 -1.2461,3.884766 -3.5963,0.413801 -4.1893,3.864139 -1.1504,6.695312 2.65,2.468898 2.0785,2.803886 -6.5996,3.878906 -5.0314,0.623278 -6.0487,1.081942 -6.2988,2.832032 -0.2414,1.688707 -1.067,2.116508 -4.3242,2.24414 -2.214,0.08675 -4.7793,-0.227102 -5.7012,-0.697265 -0.9219,-0.470163 -3.1383,-1.131985 -4.9258,-1.470703 -4.3004,-0.814894 -4.3742,1.480547 -0.1738,5.404296 3.4626,3.234522 3.1628,4.889303 -0.8594,4.75 -1.4946,-0.05176 -9.2753,0.207071 -17.291,0.574219 l -14.5742,0.666016 -3.8125,-3.029297 C 1001.4417,73.364411 999.34128,72 998.87305,72 996.52234,72 979,56.588803 979,54.521484 c 0,-0.360644 1.14236,-2.153212 2.53906,-3.984375 1.73977,-2.280961 3.7079,-3.550803 6.25,-4.03125 5.33265,-1.007853 19.97814,-1.819465 25.46094,-1.412109 0.6875,0.05108 3.4222,-0.348889 6.0762,-0.886719 1.8173,-0.368268 3.0516,-0.536499 3.8769,-0.498047 z M 907.59766,47 C 905.18263,47 897,54.73763 897,57.021484 c 0,2.600902 5.39493,7.005465 9.36914,7.650391 2.02422,0.328484 3.92074,0.987022 4.21484,1.462891 0.86723,1.403212 3.43985,0.989467 3.94727,-0.634766 0.25774,-0.825 0.75121,-2.2875 1.0957,-3.25 0.34448,-0.9625 0.77732,-4.1125 0.96289,-7 0.2836,-4.412972 0.0636,-5.25452 -1.37695,-5.28125 -0.94255,-0.01749 -2.58668,-0.692492 -3.6543,-1.5 C 910.49097,47.661241 908.70922,47 907.59766,47 Z m 46.42968,5.146484 c 1.07953,-0.0289 1.88748,0.38378 2.53516,1.269532 0.68824,0.941227 2.98007,1.923668 5.09375,2.183593 3.476,0.427452 14.14615,6.690266 16.84375,9.886719 0.55,0.651708 2.9125,2.38926 5.25,3.861328 2.3375,1.472068 4.25,3.112608 4.25,3.644532 0,0.531922 1.9125,1.927563 4.25,3.101562 2.3375,1.174 5.63821,3.175569 7.33594,4.447266 1.74666,1.308337 5.87106,2.813314 9.49996,3.466796 3.5273,0.635183 7.7641,1.758765 9.4141,2.498047 1.65,0.739282 4.5675,1.662638 6.4844,2.050782 4.175,0.845358 8.2129,3.313805 7.4472,4.552734 C 1032.1289,93.599214 1030.1089,94 1027.9414,94 1025.1925,94 1024,94.4313 1024,95.427734 c 0,2.278077 2.9125,4.57109 5.8223,4.583986 1.4732,0.007 5.0129,0.63458 7.8672,1.39453 2.8544,0.75995 5.412,1.15827 5.6835,0.88672 0.2716,-0.27155 1.0227,-0.1664 1.668,0.23242 0.7018,0.43373 0.7887,0.97578 0.2188,1.34961 -1.6156,1.05979 -2.207,5.53916 -0.9512,7.20117 2.1768,2.88087 5.585,3.01499 7.3711,0.28906 1.0679,-1.6298 2.1595,-2.246 3.2187,-1.81835 2.1027,0.84896 4.1454,1.27838 6.6016,1.39062 1.6468,0.0752 1.2937,0.69549 -2,3.51172 -4.2233,3.61111 -5.9172,4.44574 -19.5,9.5957 -4.675,1.77253 -10.975,4.39887 -14,5.83789 -3.025,1.43902 -6.5904,2.70854 -7.9219,2.82031 -1.3315,0.11179 -4.8175,1.17582 -7.748,2.36524 -3.9731,1.61254 -7.4279,2.16216 -13.5801,2.16016 -10.47988,-0.003 -17.56897,-0.69993 -20.75,-2.04102 -1.375,-0.57969 -6.55,-2.25756 -11.5,-3.73047 -4.95,-1.47291 -10.12636,-3.26237 -11.50195,-3.97656 -4.06124,-2.10857 -13.34347,-5.46903 -13.8125,-5 -1.09445,1.09445 0.99987,3.51948 3.52148,4.07812 4.08674,0.90538 21.29297,9.38538 21.29297,10.49414 0,0.96016 -12.86581,1.13146 -16.45898,0.21875 -1.07707,-0.2736 -2.87707,-1.08245 -4,-1.79687 -1.12292,-0.71441 -3.61602,-1.54302 -5.54102,-1.8418 -14.78554,-2.29488 -18.68756,-3.11739 -20,-4.21289 -0.825,-0.68863 -3.525,-2.03969 -6,-3.00195 -2.475,-0.96226 -5.6944,-2.57512 -7.1543,-3.58399 C 903.3858,121.8251 901.66639,121 901.02539,121 c -2.2208,0 -10.15691,-6.19558 -11.32617,-8.8418 -0.64608,-1.4622 -1.8558,-3.18495 -2.6875,-3.82812 -0.83171,-0.64316 -1.51172,-1.76621 -1.51172,-2.4961 0,-0.91826 -1.12628,-1.22968 -3.65625,-1.01171 -2.18257,0.18804 -5.30648,-0.48152 -7.75,-1.66211 C 870.84113,101.58867 870,101.4701 870,102.58984 870,103.36493 869.54095,104 868.98047,104 c -0.564,0 -0.76088,-1.0279 -0.44141,-2.30078 0.44739,-1.782568 -0.0202,-2.61846 -2.07617,-3.718751 -6.53759,-3.498816 -9.65025,-18.141295 -5.23633,-24.628907 2.46669,-3.625548 7.19263,-6.364968 10.92383,-6.330078 4.43307,0.04145 10.35721,3.681942 16.84961,10.355469 8.77351,9.018277 9.28547,10.416883 6.18164,16.902344 -1.35777,2.837079 -3.53023,5.992343 -4.82617,7.011723 -1.29594,1.01939 -2.35547,2.46682 -2.35547,3.21484 0,2.13021 3.78521,2.85151 5.57422,1.0625 0.86259,-0.8626 1.88288,-1.56836 2.26758,-1.56836 0.65933,0 3.64076,-5.451885 6.01562,-11 0.58856,-1.375 1.2246,-4.3 1.41211,-6.5 l 0.33985,-4 4.94531,0.173828 c 2.71974,0.09568 7.77304,0.428026 11.22851,0.738281 3.45548,0.310255 7.05548,0.191075 8,-0.265625 8.68255,-4.198211 10.85391,-5.150837 11.73242,-5.148437 0.55813,0.0015 2.89116,-1.935256 5.18555,-4.302735 4.56699,-4.712489 6.82524,-11.069319 6.10938,-17.201171 -0.36229,-3.103261 -0.10256,-3.633381 2.04297,-4.171875 0.42413,-0.106451 0.81398,-0.166148 1.17382,-0.175782 z m -80.26367,0.320313 c 0.3116,0.03243 0.66671,0.346795 1.16992,0.953125 1.61162,1.941879 1.05562,3.252613 -1.18359,2.792969 -1.93137,-0.396453 -2.13044,-1.064516 -0.89648,-3.009766 0.32964,-0.519658 0.59856,-0.768755 0.91015,-0.736328 z M 1074.3086,55 c 0.7198,0 2.1823,0.661241 3.25,1.46875 1.0676,0.807508 2.7289,1.48251 3.6914,1.5 0.9625,0.01749 1.75,0.36875 1.75,0.78125 0,1.196774 -4.3083,0.868313 -7.2773,-0.554688 C 1072.8745,56.830194 1072.064,55 1074.3086,55 Z m -194.44532,4.238281 c 0.38363,-0.04721 0.70649,-0.0025 0.88086,0.171875 0.25136,0.251354 0.15941,0.936846 -0.20312,1.523438 C 879.74321,62.224476 877,62.35921 877,61.107422 c 0,-0.760266 1.71241,-1.727509 2.86328,-1.869141 z m -9.14648,0.90625 c 0.17097,0.03357 0.2832,0.26795 0.2832,0.658203 0,0.624407 0.675,0.875177 1.5,0.558594 0.825,-0.316582 1.5,-0.103728 1.5,0.472656 0,0.576385 -0.39904,1.2943 -0.88672,1.595704 -1.08943,0.673302 -3.65015,-2.226807 -2.75586,-3.121094 0.13252,-0.132516 0.25679,-0.184206 0.35938,-0.164063 z m 16.67187,1.238281 C 887.74727,61.398696 888,61.798312 888,62.441406 888,63.298865 887.55,64 887,64 c -0.55,0 -1,-0.423865 -1,-0.941406 0,-0.517541 0.45,-1.218675 1,-1.558594 0.1375,-0.08498 0.26914,-0.122482 0.38867,-0.117188 z m 19.23242,0.0059 c 0.12148,-0.0041 0.25479,0.03473 0.39453,0.121094 0.55897,0.345464 0.75785,1.046597 0.44141,1.558593 C 906.5998,64.455403 906,64.197932 906,62.441406 c 0,-0.643094 0.25665,-1.040466 0.62109,-1.052734 z m -42.84961,2.740234 c 0.3667,-0.06744 0.85073,0.09291 1.33204,0.574219 0.71815,0.71818 0.73573,1.279053 0.0527,1.701172 -0.55992,0.346049 -1.31942,0.140485 -1.6875,-0.455078 -0.59388,-0.960928 -0.30842,-1.707913 0.30273,-1.820313 z M 886.91211,69.125 c 0.30202,-0.02865 0.59965,0.05278 0.83789,0.291016 0.33925,0.339241 0.13563,1.098744 -0.45312,1.6875 -0.71818,0.718178 -1.27906,0.735737 -1.70118,0.05273 -0.53264,-0.861826 0.41033,-1.94529 1.31641,-2.03125 z m 4.4707,5.875 c 0.825,0 1.77727,0.45 2.11719,1 0.33992,0.55 -0.0578,1 -0.88281,1 -0.825,0 -1.77727,-0.45 -2.11719,-1 -0.33992,-0.55 0.0578,-1 0.88281,-1 z m 7.5,3 c 1.1,0 2.27727,0.45 2.61719,1 0.33992,0.55 -0.28281,1 -1.38281,1 -1.1,0 -2.27727,-0.45 -2.61719,-1 -0.33992,-0.55 0.28281,-1 1.38281,-1 z m -21.55859,0.193359 c -0.3053,0.01923 -0.60682,0.08581 -0.90234,0.199219 -0.78202,0.30009 -1.42188,1.1958 -1.42188,1.992188 0,0.796388 -1.2375,2.386899 -2.75,3.533203 l -2.75,2.083984 2.27148,1.925781 c 1.44795,1.228307 1.87716,2.170965 1.1836,2.59961 -0.59842,0.369842 -1.67462,-0.128225 -2.39063,-1.107422 -1.2345,-1.688274 -1.3578,-1.67466 -2.40039,0.273437 -1.30115,2.431234 0.34312,4.321084 5.86524,6.736329 4.35538,1.904938 6.47065,1.598966 6.47265,-0.933594 0.002,-2.246321 2.9437,-3.200128 4.88867,-1.585938 0.98103,0.814174 1.57879,0.452511 2.46485,-1.492187 C 889.1177,89.647674 888.64801,88 886.59375,88 c -0.70901,0 -2.11396,-1.827128 -3.12109,-4.060547 -1.69243,-3.753137 -4.01134,-5.880726 -6.14844,-5.746094 z M 885,89 c 0.55,0 1,0.45 1,1 0,0.55 -0.45,1 -1,1 -0.55,0 -1,-0.45 -1,-1 0,-0.55 0.45,-1 1,-1 z m -8.9375,1.056641 c 0.69849,-0.03894 1.73201,0.298478 3.06836,1.013671 1.59618,0.854253 1.75845,1.357849 0.81055,2.5 C 879.28856,94.356956 878.45078,95 878.07812,95 876.93483,95 875,92.675302 875,91.300781 c 0,-0.789694 0.36401,-1.2052 1.0625,-1.24414 z M 883.55859,94 c -0.24254,0 -0.71867,0.45 -1.05859,1 -0.33992,0.55 -0.14105,1 0.44141,1 C 883.52387,96 884,95.55 884,95 c 0,-0.55 -0.19887,-1 -0.44141,-1 z m -29.0664,3.476562 c 0.58028,-0.05537 1.02075,0.613312 1.86914,2.253907 0.82784,1.600871 3.35926,4.537631 5.62695,6.525391 3.84089,3.36677 7.96546,4.66186 16.51172,5.18359 1.76214,0.10758 4.9408,2.92043 9.5293,8.4336 2.45926,2.95483 6.8332,6.88548 9.7207,8.73633 2.8875,1.85083 5.25,3.82207 5.25,4.3789 0,1.3189 -1.78327,1.16528 -5.5,-0.47266 -1.65,-0.72712 -3.35855,-1.1003 -3.79688,-0.83007 -0.43833,0.27023 -2.70365,-0.40498 -5.0332,-1.5 -2.32955,-1.09501 -6.08987,-2.49098 -8.35742,-3.10157 -2.26756,-0.61059 -5.13737,-1.9318 -6.37695,-2.93554 C 871.61823,122.27198 871.95929,120 874.55859,120 875.35113,120 876,119.50143 876,118.89258 c 0,-0.66571 -0.69759,-0.81599 -1.75,-0.37696 -0.9625,0.40152 -3.6905,1.11769 -6.0625,1.58985 -3.72853,0.74218 -5.2038,0.4546 -10.88867,-2.12305 C 853.68225,116.34259 850.14086,115 849.42773,115 c -0.71312,0 -2.56498,-0.51611 -4.11328,-1.14648 -1.54831,-0.63036 -4.05195,-1.04565 -5.56445,-0.92383 -2.18777,0.1762 -2.75,-0.20246 -2.75,-1.85352 C 837,109.37099 836.3757,109 833.5,109 c -3.54666,0 -4.74745,-1.58438 -2,-2.63867 2.36561,-0.90777 1.74999,-2.36133 -1,-2.36133 -3.85807,0 -2.95571,-1.83293 1.25,-2.53906 2.0625,-0.34628 5.08124,-1.23474 6.70898,-1.974612 1.62774,-0.739866 3.32869,-1.118339 3.7793,-0.839844 2.07565,1.282819 9.3617,1.056966 10.93945,-0.339843 0.56745,-0.502372 0.96629,-0.796858 1.31446,-0.830079 z m 123.80469,3.246098 c -3.11848,-0.12497 -6.65194,1.08361 -10.63086,3.6289 -5.67374,3.62945 -6.92386,5.99216 -4.4668,8.44922 1.63667,1.63667 2.11691,1.52378 3.5918,-0.83789 1.73704,-2.78145 5.82429,-4.23857 8.24804,-2.94141 1.31775,0.70523 3.30765,0.66799 6.4336,-0.11914 5.27836,-1.3291 6.05215,-3.85671 1.99414,-6.51562 -1.57833,-1.03416 -3.29884,-1.58908 -5.16992,-1.66406 z m 21.20703,6.51172 c -2.09641,0.0109 -4.14833,0.7804 -8.3086,2.8457 -3.68218,1.82796 -6.8183,3.39331 -6.96875,3.47851 -0.15044,0.0852 0.007,0.88565 0.34961,1.7793 0.47159,1.22893 1.06886,1.38627 2.45117,0.64649 1.00518,-0.53795 2.53554,-0.70492 3.40039,-0.37305 0.99645,0.38238 1.57227,0.0558 1.57227,-0.88867 0,-2.71703 4.23904,-2.82873 8.0137,-0.21289 4.2176,2.92275 10.9863,3.24021 10.9863,0.51562 0,-2.61768 -5.1459,-6.8034 -9.3047,-7.56836 -0.7882,-0.14497 -1.4926,-0.22631 -2.19139,-0.22265 z M 855.10742,119 c 0.49115,0 0.89258,0.64887 0.89258,1.44141 0,1.61407 -1.4157,2.80891 -2.29102,1.93359 -0.78038,-0.78038 0.29468,-3.375 1.39844,-3.375 z M 744,120 c 0.55,0 1,0.45 1,1 0,0.55 -0.45,1 -1,1 -0.55,0 -1,-0.45 -1,-1 0,-0.55 0.45,-1 1,-1 z m -6.28906,2.97656 c 1.41704,0.0344 2.91247,1.51861 2.88672,3.77344 -0.0163,1.42118 -0.63888,2.25 -1.68946,2.25 -2.26628,0 -4.07953,-2.3895 -3.31836,-4.37305 0.44867,-1.16921 1.27087,-1.67104 2.1211,-1.65039 z m 52.19336,6.34571 c 0.4323,-0.0415 0.8633,0.034 1.1875,0.23437 0.79536,0.49156 0.4021,1.15885 -1.20703,2.05078 -2.84874,1.57904 -7.51848,1.79276 -8.38868,0.38477 -0.76556,-1.23871 1.31348,-2.06765 4.00391,-1.59766 1.1,0.19217 2.54362,-0.0827 3.20703,-0.60937 0.3317,-0.26336 0.76497,-0.42138 1.19727,-0.46289 z M 741.05859,131 c 0.51754,0 0.94141,0.675 0.94141,1.5 0,1.54641 -1.18045,1.98751 -2.30664,0.86133 C 738.89443,132.5624 739.79761,131 741.05859,131 Z M 765.5,134 c 0.88992,0 1.33992,0.45 1,1 -0.33992,0.55 -0.78992,1 -1,1 -0.21008,0 -0.66008,-0.45 -1,-1 -0.33992,-0.55 0.11008,-1 1,-1 z m -18.76562,2.49414 c 3.47471,-0.0197 7.514,0.75355 10.21679,2.16406 1.40211,0.73173 3.47504,1.33294 4.60742,1.33594 1.13238,0.003 2.93238,0.6671 4,1.47461 1.06762,0.8075 2.68034,1.4825 3.58399,1.5 0.90366,0.0175 1.90216,0.70625 2.21875,1.53125 0.31658,0.825 1.09998,1.5 1.74023,1.5 1.98704,0 4.89844,4.17083 4.89844,7.01758 0,3.87225 -3.53894,7.98242 -6.87305,7.98242 -1.50008,0 -3.15523,0.39562 -3.67773,0.87891 -1.10849,1.02531 -7.87688,2.35944 -8.55078,1.68554 -0.25238,-0.25238 -1.97799,-0.72575 -3.83399,-1.05273 C 745.83077,160.88497 732,151.14877 732,146.27539 732,144.91999 732.60626,144 733.5,144 c 0.84106,0 1.5,-0.89225 1.5,-2.03125 0,-1.11727 0.7875,-2.27166 1.75,-2.56445 0.9625,-0.2928 3.1,-1.18619 4.75,-1.98633 1.26727,-0.61454 3.14955,-0.91203 5.23438,-0.92383 z M 784,147 c 0.55,0 1,0.45 1,1 0,0.55 -0.45,1 -1,1 -0.55,0 -1,-0.45 -1,-1 0,-0.55 0.45,-1 1,-1 z m 4.69531,3.1582 c 0.45427,-0.003 0.90345,0.0936 1.27344,0.32227 0.58527,0.36174 0.80472,1.07589 0.48828,1.58789 -0.76324,1.23491 -3.17934,1.18847 -3.96094,-0.0762 -0.56945,-0.92141 0.83643,-1.82517 2.19922,-1.83399 z m -11.4375,28 c -2.92748,0.0594 -4.51352,0.43917 -6.0664,1.24219 -1.70104,0.87964 -4.22666,1.59961 -5.61329,1.59961 -3.42242,0 -12.63858,4.21708 -14.98242,6.85547 -1.04774,1.17941 -2.76333,2.14453 -3.81054,2.14453 -1.04722,0 -1.62357,0.45393 -1.28125,1.00781 1.09546,1.7725 -2.03753,2.11503 -5.04883,0.55274 -1.86783,-0.96905 -4.22181,-1.30172 -6.56055,-0.92774 -2.00633,0.32083 -6.83001,-0.14092 -10.71875,-1.02539 C 719.28704,188.72294 714.39436,188 712.30273,188 c -4.81081,0 -15.69189,2.32342 -20.42578,4.36133 -1.99265,0.85782 -3.90921,1.27241 -4.25976,0.92187 -0.35054,-0.35054 -1.29388,0.22922 -2.09571,1.28907 -0.80182,1.05985 -1.47273,1.61015 -1.49023,1.22265 -0.0175,-0.3875 -1.13633,0.4 -2.48633,1.75 -1.35,1.35 -3.1905,2.45508 -4.08984,2.45508 -6.01688,0 -13.63474,20.32079 -10.47656,27.94531 2.91286,7.03226 19.30696,12.31503 37.3125,12.02149 3.18519,-0.0519 7.28398,0.39821 9.10742,1 1.82344,0.60179 7.31761,1.69104 12.20898,2.42187 4.89137,0.73082 11.81758,2.55229 15.39258,4.04688 7.07558,2.95807 18.39201,5.53785 26.88672,6.1289 2.96229,0.20611 5.59177,0.58005 5.84375,0.83203 0.25198,0.25193 2.55255,0.22031 5.11328,-0.0703 2.56073,-0.29061 7.13125,-0.4742 10.15625,-0.4082 3.025,0.066 7.075,0.12676 9,0.13476 4.28122,0.0168 28.35683,-1.9627 32.5,-2.67187 1.65,-0.28243 7.275,-0.91468 12.5,-1.40625 5.225,-0.49158 12.65,-1.56963 16.5,-2.39453 3.85,-0.82489 9.475,-2.02315 12.5,-2.66406 3.025,-0.64092 6.02706,-1.3079 6.67188,-1.48047 0.64482,-0.17257 0.95971,-1.12885 0.69921,-2.125 -0.43367,-1.65831 -1.92681,-1.81235 -17.70117,-1.83985 -14.19355,-0.0247 -18.0683,-0.35106 -21.99219,-1.84961 -2.6196,-1.00044 -7.67079,-1.88073 -11.22461,-1.95703 -3.55381,-0.0763 -6.32067,-0.5614 -6.14843,-1.07812 0.17224,-0.51673 2.9864,-1.92731 6.2539,-3.13282 3.26751,-1.20548 7.29141,-2.92277 8.94141,-3.8164 1.65,-0.89363 4.03311,-1.62786 5.29688,-1.63086 1.26375,-0.003 3.39054,-1.18357 4.7246,-2.62305 1.33406,-1.43947 3.06137,-2.37415 3.8379,-2.07617 0.77653,0.29799 2.24975,-0.0386 3.27539,-0.74805 1.02564,-0.70942 2.99023,-1.63343 4.36523,-2.05468 1.375,-0.42124 3.69981,-1.61025 5.16602,-2.64258 1.46622,-1.03234 4.02442,-2.1502 5.68554,-2.48242 1.66113,-0.33223 3.25984,-1.22696 3.55274,-1.99024 0.2929,-0.76329 1.20767,-1.38867 2.0332,-1.38867 0.82553,0 3.03428,-0.86154 4.9082,-1.91406 1.87392,-1.05251 6.27594,-2.67603 9.78125,-3.60938 3.50531,-0.93335 8.27983,-2.54876 10.61133,-3.58789 2.33151,-1.03913 4.69401,-1.88867 5.25,-1.88867 0.556,0 1.01172,-0.7227 1.01172,-1.60547 0,-1.31493 -0.76817,-1.49714 -4.25,-1.00976 -32.42636,4.53904 -69.13399,5.42331 -89.25,2.15039 -5.5,-0.89486 -13.09557,-1.85509 -16.87891,-2.13477 -3.78333,-0.27968 -8.73333,-0.84736 -11,-1.26172 -2.26666,-0.41438 -5.69609,-0.37813 -7.62109,0.0801 -1.925,0.45821 -5.75,0.97393 -8.5,1.14648 -2.75,0.17254 -6.73681,0.66954 -8.85938,1.10547 -3.72647,0.76534 -3.83645,0.71001 -3.1875,-1.58984 1.01855,-3.60968 2.78654,-6.88086 3.7168,-6.88086 0.45706,0 0.83008,0.42938 0.83008,0.95312 0,0.52375 1.1571,-0.12206 2.57227,-1.43359 1.41516,-1.31153 3.35936,-2.32435 4.32031,-2.25195 0.96095,0.0724 3.44187,-0.67209 5.51172,-1.6543 3.10076,-1.4714 5.63251,-1.71055 14.3789,-1.35351 6.77746,0.27667 10.75457,0.8516 11,1.58789 0.22326,0.6698 2.51891,1.15234 5.47852,1.15234 2.80261,0 6.57388,0.53409 8.38086,1.1875 2.60512,0.94202 3.79469,0.91636 5.74414,-0.12695 1.4406,-0.77099 3.56121,-1.03994 5.12109,-0.64844 2.77759,0.69713 6.49219,-0.0269 6.49219,-1.26563 0,-0.39508 -0.7875,-0.75643 -1.75,-0.80273 -0.9625,-0.0463 -4,-0.34267 -6.75,-0.66016 -2.75,-0.31748 -9.71062,-1.07757 -15.46875,-1.68945 -5.75812,-0.61187 -10.99271,-1.54884 -11.63281,-2.08008 -0.64011,-0.53124 -5.65275,-1.22342 -11.13867,-1.53906 -3.00488,-0.17289 -5.24547,-0.25247 -7.00196,-0.2168 z m -68.5664,17.72657 c 1.42184,-0.0366 2.93922,0.10524 4.30859,0.45507 1.375,0.35128 3.625,0.82414 5,1.04883 1.375,0.22468 4.18354,0.72798 6.24023,1.11914 2.95054,0.56117 3.86894,0.37411 4.35352,-0.88867 0.54433,-1.41851 0.90096,-1.37416 3.14453,0.39063 1.39221,1.09511 3.1366,1.99023 3.87695,1.99023 1.9736,0 2.86652,4.71438 1.25977,6.65039 -0.74113,0.89301 -3.15354,2.39658 -5.36133,3.3418 -6.06277,2.59565 -6.86613,2.66706 -23.01367,2.03515 -12.75999,-0.49935 -15.61653,-0.91353 -19.12695,-2.76562 -2.26966,-1.19748 -4.42917,-2.96441 -4.79883,-3.92774 -1.32344,-3.44882 7.61002,-7.73534 14.54101,-6.97656 1.96805,0.21545 3.78401,-0.16749 4.375,-0.92383 0.72572,-0.92875 2.83143,-1.48782 5.20118,-1.54882 z M 680.11719,196 c -0.55,0 -1.27727,0.45 -1.61719,1 -0.33992,0.55 -0.16719,1 0.38281,1 0.55,0 1.27727,-0.45 1.61719,-1 0.33992,-0.55 0.16719,-1 -0.38281,-1 z m 96.77929,3.7793 c 0.81563,0.0128 1.73867,0.13189 2.57227,0.35547 10.82171,2.90246 23.38091,5.02886 27.17187,4.60156 2.39753,-0.27023 4.35938,-0.1443 4.35938,0.27929 0,1.35078 2.94003,1.95703 5.25781,1.08399 1.23273,-0.46441 3.16289,-0.50025 4.28711,-0.0801 1.12422,0.42016 5.39922,0.1805 9.5,-0.53125 8.55505,-1.48486 19.66907,-1.24643 22.91406,0.49024 1.21993,0.65289 4.09012,1.08998 6.37891,0.9707 2.2888,-0.1193 5.50436,-0.15789 7.14453,-0.084 l 2.98242,0.13477 -3.48242,2.33203 c -1.91517,1.28237 -4.94492,3.08237 -6.73242,4 -1.7875,0.91762 -4.4875,2.31614 -6,3.10742 -2.30389,1.20532 -7.38471,3.43535 -9.25,4.06055 -0.275,0.0922 -1.85,0.73598 -3.5,1.42969 -1.65,0.69372 -7.05,2.32488 -12,3.62695 -4.95,1.30208 -11.7,3.29919 -15,4.4375 -3.3,1.13832 -6.225,2.05586 -6.5,2.03906 -0.275,-0.0168 -1.96819,0.24557 -3.76172,0.58203 -1.93861,0.36369 -3.84086,0.12939 -4.69336,-0.57812 -2.07645,-1.72329 -6.10864,-0.92887 -5.76758,1.13672 0.15203,0.92082 -0.52297,1.90284 -1.5,2.18164 -4.94772,1.41185 -14.33606,3.06271 -18.77734,3.30273 -15.28622,0.82614 -27.65043,0.79293 -28.52148,-0.0781 -1.31229,-1.31229 -1.2388,-3.91941 0.14843,-5.30664 0.70867,-0.70867 0.83631,-2.17361 0.34375,-3.94922 -0.43074,-1.55277 -0.91064,-3.47298 -1.0664,-4.26563 C 742.48792,220.39511 741.79611,219 740.39844,219 c -2.27969,0 -1.16458,-2.29691 1.82226,-3.75391 1.41477,-0.69014 4.8319,-3.50264 7.59375,-6.25 4.14498,-4.12324 5.69018,-5.02271 8.85352,-5.14843 2.10777,-0.0838 4.29565,-0.20398 4.86328,-0.26758 1.63931,-0.18378 9.82208,-2.6989 11.4375,-3.51563 0.4039,-0.20422 1.11211,-0.29792 1.92773,-0.28515 z M 812.53125,200 c 0.80774,0 1.46875,0.675 1.46875,1.5 0,0.825 -0.40143,1.5 -0.89258,1.5 -0.49116,0 -1.15216,-0.675 -1.46875,-1.5 -0.35062,-0.91371 -0.002,-1.5 0.89258,-1.5 z m -68.04883,4.25 c 1.36497,0 2.23687,0.39375 1.93946,0.875 -0.29744,0.48125 -1.41293,0.875 -2.48047,0.875 C 742.87387,206 742,205.60625 742,205.125 c 0,-0.48125 1.11745,-0.875 2.48242,-0.875 z m -66.76367,5.5332 c 0.25897,0.009 0.53716,0.0318 0.8418,0.0684 4.77082,0.57209 5.93188,3.95187 2.18945,6.375 -1.2375,0.80125 -3.4969,1.76511 -5.02148,2.14063 -3.71038,0.91389 -4.5187,-1.33095 -2.01758,-5.60157 1.38777,-2.36958 2.19499,-3.04601 4.00781,-2.98242 z m 8.26563,9.79883 c 0.43906,-0.005 0.8645,0.0281 1.25585,0.10547 2.32627,0.45971 2.64844,0.91248 2.12696,2.99023 l -0.61524,2.44727 8.37305,-0.65039 c 7.95243,-0.61673 8.54749,-0.51944 11.81836,1.9375 1.89435,1.42296 4.30697,2.58789 5.36133,2.58789 1.65653,0 1.82693,-0.48452 1.24804,-3.57031 -0.36846,-1.96406 -0.88869,-4.1426 -1.15625,-4.83985 -0.4711,-1.22764 4.7206,-0.88235 12.54688,0.83399 5.67122,1.24372 6.5548,5.94389 1.34961,7.18164 -1.53605,0.36526 -3.46797,1.23001 -4.29297,1.92187 -0.825,0.69186 -3.75,1.54314 -6.5,1.89258 -9.05691,1.15086 -18.10412,1.44258 -19.42383,0.62696 -0.71387,-0.4412 -2.11948,-0.58716 -3.125,-0.32422 -2.36386,0.61817 -11.70886,-2.48442 -13.83594,-4.59375 -0.90386,-0.89631 -2.89957,-2.19298 -4.43554,-2.88282 C 673.46102,223.80051 673.96787,222 677.59375,222 c 1.36189,0 3.47326,-0.64298 4.69141,-1.42773 0.94893,-0.61131 2.38201,-0.97579 3.69922,-0.99024 z m -51.29688,4.30469 c -8.31203,0.0683 -19.2967,1.03416 -26.08594,2.69336 C 603.15713,227.91063 597.84737,229 596.80273,229 c -1.7454,0 -6.34276,1.93609 -11.30273,4.75977 C 579.93166,236.92978 569.92029,241 567.69141,241 c -1.75411,0 -3.50184,1.23443 -5.73243,4.05078 -2.80763,3.54492 -3.14582,4.60704 -2.70703,8.5 0.54219,4.81029 2.5888,8.32344 3.75196,6.44141 0.48387,-0.78292 1.81427,-0.67345 4.58984,0.37695 2.14892,0.81325 8.25819,1.6741 13.57813,1.91211 7.59202,0.33966 10.71097,0.94759 14.5,2.82617 8.40911,4.16919 6.68373,5.37374 -14.67188,10.23828 -9.58727,2.18386 -18.0875,6.30119 -20.96094,10.1543 -0.82032,1.1 -2.59806,3.02899 -3.95117,4.28711 -3.63098,3.37608 -6.88535,13.77187 -5.77734,18.45703 0.71464,3.02178 1.6468,4.06585 5.0332,5.63867 7.18619,3.33763 17.01898,6.32243 20.65625,6.26953 5.74521,-0.0836 36.31543,-3.03841 38.79492,-3.75 2.46843,-0.70841 5.11393,1.69085 5.17383,4.69336 0.0175,0.87726 0.92767,2.40483 2.02344,3.39649 1.91162,1.72999 19.17343,6.81926 27.50781,8.10937 2.2,0.34055 4.225,0.84091 4.5,1.11328 0.275,0.27237 3.65,0.21244 7.5,-0.13476 3.85,-0.3472 7.45,-0.60376 8,-0.56836 18.98974,1.2208 38.97124,0.6127 50,-1.52344 1.65,-0.31959 3.9,-0.69107 5,-0.82617 1.1,-0.1351 4.79734,-0.87785 8.2168,-1.64844 6.10596,-1.37601 8.38726,-3.31001 6.33008,-5.36719 -1.74736,-1.74736 -14.2715,-4.59359 -20.33594,-4.62109 C 714.93847,319.00825 711.55436,318.30314 709,317 c -2.15618,-1.1 -4.50153,-2.00286 -5.21094,-2.00586 -0.70941,-0.003 -2.48403,-0.62921 -3.94336,-1.39062 -2.83372,-1.47851 -8.33775,-3.4206 -11.44922,-4.03907 -5.52992,-1.09918 -8.06676,-1.98079 -9.64648,-3.35351 -2.03774,-1.77071 -2.29949,-3.32084 -0.5,-2.96094 0.70027,0.14005 1.12064,-0.52327 0.95508,-1.50781 -0.19348,-1.15053 0.66911,-2.123 2.49804,-2.81836 1.53655,-0.58419 3.46892,-1.64654 4.29493,-2.35938 0.82601,-0.71285 2.81862,-1.61054 4.42773,-1.99414 1.60911,-0.3836 5.20911,-2.17498 8,-3.98242 7.94225,-5.14357 14.43751,-8.47421 18.8418,-9.66016 2.22642,-0.59952 5.30729,-2.3483 6.8457,-3.88671 1.53842,-1.53841 3.01694,-2.57876 3.28516,-2.31055 0.26821,0.26822 2.42596,-0.81426 4.79492,-2.40625 2.36897,-1.592 5.88164,-3.51465 7.80664,-4.27344 1.925,-0.75879 4.17594,-1.95035 5.00195,-2.64648 1.23517,-1.04097 5.96461,-3.32845 7.99805,-3.86914 3.06534,-0.81508 4.90979,-1.85499 5.35742,-3.02149 0.91537,-2.38542 -2.9396,-2.7154 -7.5293,-0.64453 -4.79348,2.16282 -10.79096,3.61634 -21.32812,5.16992 -3.85,0.56764 -9.7,1.45238 -13,1.9668 -3.3,0.51442 -11.85,0.89671 -19,0.84961 -25.41218,-0.16737 -41.13631,0.0327 -51.20312,0.64844 l -10.20313,0.62304 -4.29687,-3.89648 c -2.36324,-2.14302 -6.37425,-4.88197 -8.91407,-6.08789 -6.38186,-3.03014 -8.66236,-5.66443 -7.08789,-8.18555 2.03164,-3.25317 1.46994,-6.51576 -1.3418,-7.79687 C 613.05224,240.52187 611.21827,240 610.37695,240 c -0.98852,0 -0.47859,-0.88442 1.44141,-2.5 3.25726,-2.7408 5.16917,-3.11208 6.93555,-1.3457 0.87265,0.87265 1.87065,0.3889 4.08398,-1.98047 3.13648,-3.35762 7.69144,-5.56799 9.80273,-4.75781 0.71255,0.27343 1.57286,0.047 1.91211,-0.50196 0.33924,-0.54891 2.51841,-0.89956 4.8418,-0.77929 4.68653,0.2426 6.60547,-0.53568 6.60547,-2.67969 0,-1.13154 -4.84759,-1.62152 -11.3125,-1.56836 z M 737,227 c 0.55,0 1,0.45 1,1 0,0.55 -0.45,1 -1,1 -0.55,0 -1,-0.45 -1,-1 0,-0.55 0.45,-1 1,-1 z m -122.94141,2 c 0.51754,0 0.94141,0.45 0.94141,1 0,0.55 -0.70113,1 -1.55859,1 -0.85748,0 -1.28133,-0.45 -0.94141,-1 0.33992,-0.55 1.04105,-1 1.55859,-1 z m -5.25195,1.41602 c 0.46426,0.1005 -0.79601,1.71315 -3.14062,3.95703 -2.65877,2.54455 -5.47127,4.62695 -6.25,4.62695 -2.38706,0 -1.6273,3.96842 0.94726,4.94727 1.29998,0.49425 2.636,1.60942 2.96875,2.47656 0.33275,0.86713 1.29445,1.57617 2.13672,1.57617 1.0579,0 1.53628,1.00484 1.54687,3.25 0.0166,3.51208 1.45473,6.6117 2.55665,5.50977 0.86114,-0.86114 7.25163,1.77102 9.71679,4.00195 1.02468,0.92733 3.29167,2.14869 5.03711,2.71289 4.72478,1.52723 4.06537,3.88307 -1.32617,4.73828 -14.23799,2.25842 -13.86467,2.2713 -14.91016,-0.47851 -2.32828,-6.12385 -10.24757,-9.25905 -29.58984,-11.7168 -9.03001,-1.14741 -13.5,-3.35505 -13.5,-6.66797 0,-1.95033 4.35299,-4.42929 11.30078,-6.43555 6.89842,-1.992 18.54501,-6.62467 20.40234,-8.11523 0.66194,-0.53123 3.13694,-1.5622 5.5,-2.28906 2.36306,-0.72686 5.19688,-1.64446 6.29688,-2.04102 0.13857,-0.05 0.24032,-0.0671 0.30664,-0.0527 z m 127.37891,1.80273 c 0.62872,-0.0664 0.78476,0.69421 0.23047,2.13867 -0.6561,1.70977 -1.64161,2.08302 -2.70118,1.02344 -0.34048,-0.34047 0.0559,-1.29414 0.88086,-2.11914 0.66616,-0.66614 1.21261,-1.00311 1.58985,-1.04297 z m 73.54101,6.72266 c 9.9115,0.0771 22.24221,0.92049 23.33789,1.59765 0.57699,0.35658 2.15866,0.37134 3.51367,0.0312 1.35503,-0.34009 3.30793,-0.16659 4.3418,0.38672 1.03387,0.55331 4.40622,1.15383 7.49219,1.33399 3.08597,0.18015 5.59668,0.75023 5.58008,1.26757 -0.0423,1.32011 -3.83166,2.18717 -12.25196,2.80274 -3.98161,0.29108 -9.71523,0.7798 -12.74023,1.08594 -14.63882,1.48152 -25,1.26048 -25,-0.53516 0,-0.52225 -1.0125,-0.7248 -2.25,-0.44922 -3.33981,0.74374 -13.33401,-0.79488 -12.75,-1.96289 0.275,-0.55 2.30783,-1.00663 4.51758,-1.01562 2.56118,-0.0105 5.18241,-0.84579 7.22851,-2.30274 2.47907,-1.76525 4.522,-2.27493 8.98047,-2.24023 z M 743.94141,242 c 0.51754,0 1.21867,0.45 1.55859,1 0.33992,0.55 -0.0839,1 -0.94141,1 C 743.70113,244 743,243.55 743,243 c 0,-0.55 0.42387,-1 0.94141,-1 z m -16.56055,24.46289 c 0.3913,0.0188 0.67025,0.0678 0.80078,0.14844 1.34589,0.83181 -2.12074,4.38867 -4.27734,4.38867 -0.9823,0 -2.0922,0.49545 -2.4668,1.10156 -0.3746,0.60612 -2.31519,1.77761 -4.31055,2.60156 -1.99535,0.82397 -6.1287,3.00796 -9.18554,4.85352 -3.05683,1.84556 -9.35683,4.97736 -14,6.96094 -4.64316,1.98357 -12.17453,5.4196 -16.73829,7.63476 l -8.29882,4.02735 -7.40039,-1.64649 c -4.3694,-0.9721 -11.00673,-1.57137 -16.20313,-1.46289 -4.84083,0.10105 -11.33212,-0.1494 -14.42578,-0.55664 -5.61364,-0.73897 -5.63627,-0.73122 -11.28906,3.87305 -3.11524,2.5374 -5.79706,4.61328 -5.95899,4.61328 -1.09868,0 -1.4359,-1.52695 -0.56836,-2.57227 0.573,-0.69043 1.269,-2.49984 1.54493,-4.02148 0.68555,-3.78063 0.94116,-4.06558 4.24609,-4.72656 1.89837,-0.37968 3.10361,-1.36788 3.50977,-2.87891 0.50215,-1.86819 -0.35015,-3.188 -4.5293,-7.01562 l -5.14844,-4.71485 2.91016,-1.15039 c 1.59985,-0.63304 6.09337,-1.28627 9.98632,-1.45117 3.89296,-0.1649 8.84296,-0.77095 11,-1.34766 2.15706,-0.5767 4.82188,-1.07141 5.92188,-1.09961 4.76347,-0.122 13.6136,-0.71558 21.51172,-1.4414 11.99735,-1.10253 20.2905,-1.56444 37.38281,-2.08203 8.19211,-0.24808 17.35617,-0.90469 20.36524,-1.46094 2.2568,-0.4172 4.44718,-0.63054 5.62109,-0.57422 z M 600.63086,280 c 2.74075,0 10.69442,5.07511 9.62695,6.14258 -0.51761,0.51761 -4.04998,1.41243 -7.84961,1.98828 -3.79963,0.57586 -7.91149,1.68589 -9.13672,2.4668 -2.456,1.56534 -28.27543,2.56414 -28.27343,1.09375 5.8e-4,-0.44496 0.3859,-0.57147 0.85547,-0.28125 0.46958,0.29021 1.3309,-0.52089 1.91406,-1.80078 0.76835,-1.68635 2.25442,-2.53373 5.39648,-3.08204 8.64128,-1.50797 11.84296,-1.35342 13.23828,0.63868 1.67487,2.39121 4.21847,1.48039 5.04297,-1.80469 C 592.06775,282.88137 597.0051,280 600.63086,280 Z m 3.92773,11.13477 c 0.34408,0.001 0.69608,0.017 1.06055,0.0469 3.65775,0.29987 3.86354,0.49078 3.56641,3.31836 -0.32965,3.13706 -2.97369,8.04584 -3.85743,7.16211 -0.28152,-0.28154 -2.6079,0.39217 -5.16992,1.49805 -3.95734,1.70817 -5.88546,1.91084 -12.81445,1.34375 l -8.15625,-0.66797 -1.35156,2.82031 c -1.25874,2.62627 -3.75878,4.08888 -4.95117,2.89648 -0.28442,-0.28441 -2.08266,-0.71791 -3.9961,-0.96289 -4.76982,-0.61069 -8.05504,-2.27477 -10.18555,-5.1582 C 556.9334,301.03651 556.94245,301 559.25391,301 c 1.29067,0 2.82403,-0.47833 3.4082,-1.0625 0.58417,-0.58417 3.48589,-1.20112 6.44922,-1.37109 18.5115,-1.06179 23.25247,-1.87479 27.95312,-4.79688 3.0729,-1.91021 5.0856,-2.64191 7.49414,-2.63476 z m 41.47461,8.30273 c 1.95052,0.0238 4.24107,0.39851 7.2168,1.12891 0.4125,0.10125 1.425,0.23979 2.25,0.30859 0.825,0.0688 1.5,0.74062 1.5,1.49414 0,1.33695 -4.78793,2.96312 -12,4.07422 -6.15532,0.9483 -8.45833,1.11849 -10.25,0.75976 C 632.59669,306.772 632.42071,305 634.53125,305 c 0.84227,0 1.79664,-0.69162 2.12109,-1.53711 0.32445,-0.84549 2.21657,-2.21798 4.20508,-3.04883 1.61418,-0.67444 3.22527,-1.00034 5.17578,-0.97656 z m -22.5625,2.20117 c 1.59251,-0.1129 2.2801,0.81529 1.22461,2.71289 -0.65707,1.18131 -1.64531,2.47873 -2.19531,2.88282 -1.22217,0.89796 -3.39502,0.86279 -5.82227,-0.0938 -1.58062,-0.62291 -1.33766,-1.06195 1.82813,-3.31445 1.94043,-1.38063 3.72623,-2.09969 4.96484,-2.1875 z m 37.4375,6.46094 c 1.73469,0.0271 3.08686,0.80561 4.68946,2.4082 3.05116,3.05116 9.78023,4.73882 18.17968,4.5586 6.12747,-0.13148 9.53711,0.94498 17.22266,5.4414 1.375,0.80445 4.7967,1.46857 7.60352,1.47657 7.08973,0.0205 17.39648,1.16977 17.39648,1.93945 0,0.61918 -6.95764,2.77478 -10,3.09765 -10.27749,1.09071 -38.26117,0.22518 -46.5,-1.4375 -1.65,-0.33299 -5.7,-0.87322 -9,-1.20117 -8.03913,-0.7989 -8.56205,-0.89854 -11.81445,-2.23047 -1.5483,-0.63407 -3.7983,-1.1679 -5,-1.1875 -3.57741,-0.0583 -13.68274,-2.71715 -15.24024,-4.00976 -3.35888,-2.78762 -0.95475,-4.594 5.55469,-4.17383 0.825,0.0532 3.41931,-0.3287 5.76562,-0.84961 2.34631,-0.52091 6.17131,-1.00392 8.5,-1.07422 2.32869,-0.0703 5.75277,-0.74181 7.60743,-1.49219 2.1066,-0.85231 3.68595,-1.28673 5.03515,-1.26562 z m -49.46679,0.82227 c 0.22007,0.0169 0.36341,0.0901 0.41211,0.2246 0.19481,0.53798 0.16263,1.17136 -0.0723,1.40625 -0.2349,0.2349 -1.96862,0.6802 -3.85352,0.99024 l -3.42773,0.56445 3.5,-1.9707 c 1.44375,-0.81217 2.7812,-1.26564 3.44141,-1.21484 z M 593.05859,313 c 0.58246,0 0.78133,0.45 0.44141,1 -0.33992,0.55 -0.81605,1 -1.05859,1 C 592.19887,315 592,314.55 592,314 c 0,-0.55 0.47613,-1 1.05859,-1 z m -8.9082,1.02344 c 1.00718,0.0652 1.85163,0.47246 1.62109,1.16406 -0.2177,0.65312 -0.81836,1.28997 -1.33398,1.41602 -1.58576,0.38763 -3.48213,-0.72292 -2.88477,-1.68946 0.41986,-0.67935 1.59048,-0.95579 2.59766,-0.89062 z m -87.67578,1.49023 c -4.39764,0.0587 -12.41307,1.29595 -13.97461,2.46289 -0.55,0.41102 -3.09795,1.02164 -5.66211,1.35547 -2.56416,0.33384 -8.25921,2.41958 -12.65625,4.63672 C 459.7846,326.1859 455.74362,328 455.20117,328 c -1.21528,0 -2.38173,2.77899 -1.4082,3.35547 0.38848,0.23004 3.3318,0.99887 6.53906,1.70898 4.75052,1.05139 5.97767,1.05131 6.625,0.004 0.64311,-1.04057 2.10648,-0.99806 7.66992,0.2168 3.7807,0.82558 7.54805,1.50476 8.37305,1.50976 0.825,0.005 6.40116,1.48158 12.39062,3.2832 7.71975,2.32209 11.02101,3.78339 11.34376,5.01758 0.37853,1.4475 4.60513,3.9876 7.51562,4.51758 0.4125,0.0751 0.8625,0.22706 1,0.33789 0.62884,0.50687 4.68764,1.13256 9.34375,1.43945 2.80173,0.18467 5.92664,0.80017 6.94336,1.36915 1.68183,0.94121 1.53836,1.22535 -1.59375,3.13476 -1.89345,1.15428 -4.20473,2.09956 -5.13477,2.10156 -0.93004,0.002 -1.96867,0.45391 -2.30859,1.00391 -0.33992,0.55 -1.49105,1 -2.55859,1 -1.06754,0 -1.94141,0.44832 -1.94141,0.99609 0,0.54777 -3.7125,4.84719 -8.25,9.55469 -12.96874,13.45462 -14.35126,19.3557 -5.60742,23.92774 4.69539,2.45514 5.48454,2.55321 16.64258,2.06054 6.44285,-0.28448 14.63984,-0.79973 18.21484,-1.14453 3.575,-0.34481 7.37847,-0.59464 8.45312,-0.55664 1.07466,0.038 2.51135,-0.39263 3.19141,-0.95703 0.68005,-0.56439 2.04963,-0.91294 3.04492,-0.77344 0.9953,0.13949 4.15371,-0.0929 7.01758,-0.51562 4.18962,-0.61842 6.31899,-0.35256 10.89453,1.35937 4.2132,1.57636 6.81223,1.95928 10.03125,1.47656 3.20978,-0.48134 4.48182,-0.29512 4.87305,0.71094 0.3713,0.95484 2.77785,1.42212 8.05273,1.5625 7.91116,0.21053 6.89835,-0.20132 22.22461,8.99414 2.01275,1.20761 3.84446,2.01102 4.07032,1.78516 0.22586,-0.22586 2.30144,0.69791 4.61328,2.05273 2.31184,1.35483 4.45928,2.20869 4.77148,1.89649 0.61456,-0.61456 7.94402,1.17644 11.38281,2.78125 1.16651,0.54438 3.64151,1.33176 5.5,1.75195 1.8585,0.42019 8.10391,0.71299 13.87891,0.65039 10.00462,-0.10851 10.51523,-0.21585 10.8125,-2.30469 0.22675,-1.59333 -0.51183,-2.61784 -2.70117,-3.75 C 667.45455,408.70184 665.35048,408 664.43555,408 c -1.56918,0 -5.0549,-1.54174 -11.93555,-5.27734 -1.65,-0.89581 -5.1375,-2.78115 -7.75,-4.19141 -2.6125,-1.41026 -4.75,-3.21911 -4.75,-4.01758 0,-0.93852 -0.58327,-1.22785 -1.65039,-0.81836 -1.45146,0.55698 -1.57805,-0.02 -1.04492,-4.78125 0.33351,-2.97815 0.36478,-4.85156 0.0684,-4.16406 -0.91073,2.11229 -2.37305,1.38702 -2.37305,-1.17773 0,-3.91931 -2.30845,-5.21157 -12.64258,-7.07227 -7.68284,-1.38333 -10.42159,-1.51749 -12.8789,-0.62891 C 606.06071,377.10698 596,377.42326 596,376.29492 c 0,-1.2987 13.19444,-13.15985 16.36523,-14.71094 1.72358,-0.84337 4.21956,-2.69494 5.54493,-4.11523 1.32536,-1.42028 3.80036,-3.29868 5.5,-4.17383 4.84473,-2.49458 7.58689,-6.28982 7.58789,-10.5 0.001,-3.39145 -0.27284,-3.75496 -3.24805,-4.29883 -5.72636,-1.04678 -42.01084,-0.96855 -48.98438,0.10547 l -6.73632,1.03711 -6.2168,-5.06836 c -3.41986,-2.7882 -7.51121,-6.30781 -9.0918,-7.82031 -1.58059,-1.5125 -3.64996,-2.75 -4.59765,-2.75 -0.9477,0 -2.18561,-0.461 -2.75,-1.02539 -0.56439,-0.56439 -4.36611,-1.22502 -8.44922,-1.46875 -4.08311,-0.24372 -8.77383,-0.68833 -10.42383,-0.98633 -1.65,-0.298 -7.70059,-0.75929 -13.44531,-1.02539 -5.74471,-0.2661 -10.89643,-0.93549 -11.44922,-1.48828 C 505.05269,317.45308 503.655,317 502.5,317 c -1.155,0 -2.59863,-0.49707 -3.20703,-1.10547 -0.28864,-0.28864 -1.35248,-0.40042 -2.81836,-0.38086 z m -7.81445,7.89844 c 3.12556,0.008 5.83625,0.30939 7.16796,0.99805 1.87034,0.96718 3.97204,1.17435 6.75196,0.66601 2.2199,-0.40594 4.91023,-0.39471 5.97851,0.0234 1.06829,0.41815 4.27778,0.79138 7.13282,0.83008 2.85504,0.0387 5.44879,0.4866 5.76367,0.99609 0.31489,0.5095 3.02562,0.67464 6.02344,0.36524 3.12839,-0.32288 6.63733,-0.0825 8.23632,0.5664 1.53225,0.62182 4.51375,1.34411 6.62696,1.60352 2.11322,0.25941 5.88339,1.61219 8.37695,3.00586 2.49355,1.39368 5.33219,2.5332 6.30859,2.5332 1.80746,0 6.44873,6.60265 5.17188,7.35742 -0.38487,0.2275 -3.17422,0.74677 -6.19922,1.1543 -3.025,0.40752 -6.5731,1.58487 -7.88477,2.61523 -3.5496,2.78832 -4.72656,2.33289 -6.76562,-2.61133 -1.67131,-4.0525 -2.35764,-4.64201 -7.13477,-6.14648 -4.16501,-1.31169 -7.57938,-1.54364 -16.10742,-1.09375 -11.4123,0.60205 -10.9717,0.71084 -18.33984,-4.54687 -1.90744,-1.36109 -5.00575,-1.86142 -13.375,-2.16016 -11.42746,-0.40791 -14.71857,-1.08846 -14.10938,-2.91602 0.6176,-1.8528 9.50071,-3.25829 16.37696,-3.24023 z m 27.45703,16.79101 c 0.43259,-0.003 0.98243,0.0729 1.63281,0.23047 1.5125,0.36649 4.775,1.05585 7.25,1.53125 6.00155,1.1528 10,2.75514 10,4.00977 0,0.56361 -0.1125,0.99378 -0.25,0.95508 -0.1375,-0.0387 -1.15,-0.43248 -2.25,-0.875 -1.1,-0.44252 -2.3714,-0.58703 -2.82617,-0.32227 -0.45476,0.26476 -2.70476,-0.19988 -5,-1.03125 -2.29523,-0.83137 -5.41133,-1.78731 -6.92383,-2.125 -1.5125,-0.33769 -2.75,-1.1073 -2.75,-1.71094 0,-0.4326 0.39621,-0.65721 1.11719,-0.66211 z m 70.64258,2.43946 c 1.10718,-0.0175 1.85791,0.1521 2.48242,0.48633 2.11007,1.12927 2.10857,1.13169 -0.31641,2.37695 -1.33454,0.6853 -6.02578,2.46724 -10.42578,3.96094 -4.4,1.49369 -8.42672,3.12528 -8.94922,3.625 C 569.02828,353.59152 567.43,354 566,354 c -2.52871,0 -5,1.58084 -5,3.19922 0,1.27775 3.3311,0.86567 5.34766,-0.66211 1.01596,-0.76977 2.48053,-1.1569 3.25586,-0.85938 0.77532,0.29752 4.89557,-0.86091 9.15429,-2.57421 7.15799,-2.87969 16.96566,-5.48342 25.08203,-6.66016 1.83674,-0.2663 4.62578,-1.15118 6.19922,-1.96484 3.69736,-1.91203 7.37988,-1.88376 9,0.0684 1.00516,1.21115 1.45478,1.27209 2.06836,0.27929 1.20005,-1.94172 2.20984,-0.22875 1.50977,2.56055 -0.34233,1.36396 -1.45095,2.74265 -2.46485,3.06445 -1.0139,0.3218 -4.71523,3.0722 -8.22461,6.11133 C 605.85462,361.82182 592.99187,370 590.79297,370 c -0.56724,0 -3.71371,1.62952 -6.99219,3.62109 -3.27848,1.99158 -7.17726,3.68302 -8.66406,3.75782 -1.4868,0.0748 -3.98636,1.14525 -5.55469,2.3789 -2.39732,1.88572 -8.58203,3.1957 -8.58203,1.81836 0,-0.23269 1.32738,-1.74926 2.94922,-3.37109 3.76115,-3.76115 4.64727,-7.36873 3.02148,-12.29492 C 566.26077,363.75906 565.55546,362 565.4043,362 c -0.15116,0 -1.31655,0.38528 -2.58985,0.85547 -1.27331,0.47019 -4.22695,1.15041 -6.56445,1.51172 l -4.25,0.65625 v -3.3125 C 552,357.82614 550.49741,356 547.30078,356 546.03578,356 545,355.56581 545,355.03516 545,353.57252 548.5124,352 551.7793,352 c 1.67544,0 3.70667,-0.88034 4.78711,-2.07422 1.2794,-1.41372 2.67875,-1.92174 4.39453,-1.59375 1.3845,0.26466 3.3521,0.0347 4.37304,-0.51172 1.02094,-0.54638 6.34295,-2.07855 11.82618,-3.40625 4.91482,-1.19006 7.75429,-1.74227 9.59961,-1.77148 z m -45.05079,18.42773 c 5.18028,0.0602 7.39879,1.8098 2.57032,4.125 -1.4964,0.71752 -3.2431,2.35133 -3.88086,3.63086 -1.37093,2.75044 -7.0287,6.79248 -10.85156,7.75195 -2.46772,0.61936 -4.41226,2.88853 -3.36915,3.93165 0.83547,0.83547 8.42385,-1.99828 13.99024,-5.22461 3.11713,-1.80672 8.46112,-4.00041 11.875,-4.875 5.53961,-1.4192 6.36917,-1.42772 7.71875,-0.0781 0.8317,0.8317 1.245,2.2103 0.91797,3.0625 -1.00456,2.61786 -9.85446,7.44207 -14.9336,8.14063 -2.64687,0.36404 -7.16018,1.55616 -10.02929,2.64843 -8.03212,3.05781 -20.7168,4.13957 -20.7168,1.76758 0,-0.49593 -1.30891,-0.64017 -2.9082,-0.32031 -2.26612,0.45322 -3.14881,0.13148 -4,-1.45898 C 506.41202,381.03317 506.76934,379 509,379 c 1.10058,0 2,-0.66665 2,-1.48242 0,-2.37511 8.21899,-10.28715 11.5,-11.07031 1.64985,-0.39382 3.675,-1.26779 4.5,-1.94141 0.825,-0.67361 3.61231,-1.73771 6.19336,-2.36524 3.19501,-0.77677 6.16095,-1.09766 8.51562,-1.07031 z m 56.16993,22.33399 c 0.12612,0.003 0.22748,0.0361 0.29492,0.10351 0.26974,0.26974 3.82855,0.56119 7.9082,0.64649 4.07965,0.0853 7.84438,0.39204 8.36524,0.68164 0.52086,0.28987 3.01202,0.41527 5.53711,0.28125 5.54976,-0.29456 7.45281,1.39589 8.89453,7.89843 1.23339,5.56293 6.42118,10.45775 12.03515,11.35547 2.12731,0.34017 4.12755,1.29495 4.44532,2.12305 0.66152,1.72388 -2.88058,2.0951 -5.3125,0.55664 -0.79874,-0.50533 -1.76225,-0.72724 -2.14258,-0.49219 -1.04005,0.64279 -8.18262,-2.55766 -9.38868,-4.20703 -0.57967,-0.79275 -2.05828,-1.51697 -3.28515,-1.60937 C 624.00359,400.64978 623,400.22006 623,399.78711 c 0,-0.43296 -1.0125,-0.79474 -2.25,-0.80273 -1.2375,-0.008 -3.375,-0.65366 -4.75,-1.43555 -1.375,-0.78189 -5.7625,-3.08143 -9.75,-5.11133 -3.9875,-2.0299 -7.25,-4.11049 -7.25,-4.62305 0,-0.51256 -0.417,-0.67578 -0.92578,-0.36133 C 596.9685,388.13649 592,386.02457 592,384.87109 c 0,-0.44446 0.68167,-0.54778 1.51367,-0.22851 0.83201,0.31927 2.1107,0.0853 2.8418,-0.52149 0.54833,-0.45507 1.14506,-0.7246 1.52344,-0.71679 z M 588.53125,384 c 0.80774,0 1.46875,0.675 1.46875,1.5 0,0.825 -0.40143,1.5 -0.89258,1.5 -0.49116,0 -1.15216,-0.675 -1.46875,-1.5 -0.35062,-0.91371 -0.002,-1.5 0.89258,-1.5 z m -2.91992,1.34375 c 0.11953,0.0201 0.25117,0.0713 0.38867,0.15625 0.55,0.33992 1,0.81605 1,1.05859 0,0.24254 -0.45,0.44141 -1,0.44141 -0.55,0 -1,-0.47613 -1,-1.05859 0,-0.43685 0.25273,-0.65795 0.61133,-0.59766 z M 484.1875,405.62891 c -5.62312,0.0703 -9.29106,0.87295 -13.6875,2.60937 -5.4225,2.14167 -6.0293,2.67573 -6.3125,5.56445 -0.33876,3.45547 -0.0689,3.69202 2.57617,2.25 4.55346,-2.48243 14.33957,-5.01305 15.9961,-4.13671 4.00629,2.11942 11.31235,5.08398 12.52929,5.08398 0.721,0 1.73922,0.40572 2.26172,0.90234 0.5225,0.49661 1.82546,1.06107 2.89649,1.25391 1.64878,0.29686 2.19429,1.92477 3.5625,10.61719 0.88878,5.64655 1.40069,10.4821 1.13671,10.74609 -0.26399,0.26399 -1.22943,0.48047 -2.14453,0.48047 -0.91509,0 -3.11712,2.025 -4.89453,4.5 -1.77741,2.475 -3.64282,4.5 -4.14453,4.5 -0.5017,0 -1.66031,1.4625 -2.57617,3.25 -0.91587,1.7875 -1.98603,3.475 -2.37695,3.75 -1.48843,1.04706 -3.15188,5.25512 -3.62305,9.16406 -0.57728,4.78938 1.10432,7.18193 6.23437,8.875 2.61812,0.86405 3.37891,1.66852 3.37891,3.57032 0,3.50576 2.49447,9.00119 4.65625,10.25781 2.36704,1.37595 4.05658,1.40505 4.87305,0.084 0.41104,-0.66507 1.07416,-0.70451 1.81054,-0.10742 1.57833,1.2798 9.88156,-0.103 13.03907,-2.17187 1.4032,-0.91943 3.57986,-1.67188 4.83789,-1.67188 2.2429,0 7.80717,-4.39352 16.66601,-13.16211 2.57183,-2.54564 4.56054,-3.8452 4.81446,-3.14453 0.23796,0.65669 1.06164,0.95307 1.83007,0.6582 0.76844,-0.29488 2.87507,0.25727 4.6836,1.22656 2.49087,1.33498 5.83521,1.7897 13.78906,1.875 l 10.5,0.11133 6.5,4.58399 c 10.72229,7.56174 14.59925,8.16181 24.45703,3.77929 5.14105,-2.28558 6.74162,-2.44749 33.47852,-3.38867 7.93913,-0.27946 14.89473,-0.96895 15.45703,-1.53125 1.97872,-1.97872 -1.72279,-3.90071 -8.39258,-4.35937 -3.575,-0.24585 -8.54213,-1.33574 -11.03906,-2.42188 -2.49693,-1.08614 -6.09693,-2.29437 -8,-2.68359 -5.914,-1.20956 -10.22176,-2.74103 -16.96094,-6.03516 -3.575,-1.74747 -7.28482,-2.99554 -8.24414,-2.77148 -0.95932,0.22407 -3.05372,-0.52434 -4.6543,-1.66406 C 597.50098,454.93255 595.68969,454 595.07617,454 c -1.35236,0 -8.66887,-4.53124 -9.50781,-5.88867 -0.46558,-0.75334 -6.06836,-0.82547 -6.06836,-0.0781 0,0.0937 -1.8,0.31994 -4,0.50391 -2.2,0.18397 -5.6875,0.59342 -7.75,0.91016 -2.0625,0.31676 -3.75,0.29627 -3.75,-0.0469 0,-1.99736 13.84379,-14.46549 19.23633,-17.32422 3.44501,-1.82632 7.16367,-4.11642 8.26367,-5.08984 1.1,-0.97343 4.1375,-2.72906 6.75,-3.90235 2.6125,-1.1733 4.75,-2.53607 4.75,-3.02734 0,-0.49127 0.25749,-1.56448 0.57227,-2.38476 0.85639,-2.2317 -3.19982,-3.14584 -5.95313,-1.3418 -1.47493,0.96641 -2.78498,1.17756 -3.70117,0.59765 -2.21677,-1.40312 -3.29116,-1.08232 -1.91797,0.57227 0.68469,0.825 0.8529,1.55675 0.37305,1.62695 -3.21629,0.47049 -5.68784,0.73465 -11.87305,1.26367 -11.45878,0.98009 -16.91899,1.61571 -18.36133,2.13868 -0.74866,0.27146 -4.05344,0.74267 -7.34375,1.04687 l -5.98242,0.55274 0.65234,-2.9668 c 0.59487,-2.70842 0.35424,-3.06734 -2.76172,-4.0957 -2.39708,-0.79115 -4.2229,-0.81889 -6.125,-0.0957 -4.00216,1.52162 -4.57472,1.30707 -4.61132,-1.7207 -0.0183,-1.5125 -0.95326,-3.8553 -2.07813,-5.20703 -1.94361,-2.33562 -2.64992,-2.46984 -14.21679,-2.69336 C 512.97753,407.22024 502.775,406.7239 497,406.24805 c -5.3604,-0.44169 -9.43863,-0.66133 -12.8125,-0.61914 z m 18.26367,3.51757 c 1.07428,-0.0418 2.50812,0.0124 4.29883,0.16407 7.70992,0.65299 15.86481,2.90543 18.76758,5.18554 1.96546,1.54385 1.96294,1.57118 -0.26758,3.15235 -1.2375,0.87724 -2.25,2.47611 -2.25,3.55273 0,1.64389 0.46963,1.85435 2.92773,1.31445 3.23234,-0.70993 8.46114,1.44773 9.39258,3.875 0.74393,1.93866 -1.34635,3.55043 -7.63476,5.89063 -2.85255,1.06156 -7.04325,2.14882 -9.31446,2.41602 -3.48867,0.41043 -4.38095,0.12646 -5.75,-1.82813 C 511.66412,431.50288 511,428.55579 511,425.67188 c 0,-3.88561 -0.59591,-5.63559 -2.91406,-8.5625 -1.60246,-2.02326 -4.07746,-4.30118 -5.5,-5.0625 -3.34259,-1.78891 -3.3576,-2.77511 -0.13477,-2.9004 z m 82.04883,13.69141 -5.87695,5.59375 c -3.23285,3.07658 -6.92687,5.85643 -8.20703,6.17774 -1.28016,0.32129 -3.52755,2.15922 -4.99414,4.08203 -1.94247,2.5467 -3.25896,3.38182 -4.84766,3.07812 -2.76421,-0.52841 -4.91159,1.49466 -3.29883,3.10742 0.83172,0.83172 0.43013,1.12305 -1.54492,1.12305 -1.79449,0 -2.50146,0.43012 -2.16211,1.31445 0.27756,0.7233 -0.56986,2.47394 -1.88281,3.89063 -1.31296,1.4167 -2.67221,3.31755 -3.01953,4.22265 -0.34732,0.9051 -1.98651,2.41698 -3.64258,3.35938 -1.65607,0.9424 -3.01458,2.18894 -3.01758,2.77148 -0.003,0.58254 -1.90348,3.20764 -4.22266,5.83203 -4.71249,5.33268 -6.86353,6.79655 -8.5,5.78516 -1.28859,-0.7964 0.98785,-7.17578 2.56055,-7.17578 0.51683,0 1.66814,-1.82142 2.55859,-4.04688 1.78935,-4.47203 1.08046,-7.08835 -2.42578,-8.96484 C 530.61477,452.25948 530,450.89325 530,448.59961 c 0,-1.87707 -0.92388,-4.50444 -2.11719,-6.02149 l -2.11719,-2.6914 3.18946,-2.84766 c 2.17554,-1.94233 4.04092,-2.74899 5.86719,-2.53906 1.47259,0.16929 3.35273,-0.28653 4.17773,-1.01367 1.83559,-1.61785 16.83315,-5.26821 23,-5.59766 2.475,-0.13223 6.71616,-1.08442 9.42383,-2.11719 2.70766,-1.03278 6.75766,-2.11633 9,-2.40625 z M 514.09766,444 c 3.18897,0 8.87109,3.84308 8.87109,6 0,0.275 -0.4428,1.175 -0.98437,2 -0.87528,1.33333 -1.09549,1.33333 -1.98438,0 -0.87349,-1.31027 -1.11929,-1.31456 -1.93945,-0.0391 -0.81046,1.26041 -1.19695,1.2262 -2.82813,-0.25 -2.80371,-2.53732 -3.59405,-2.18702 -7.29492,3.23633 -2.05973,3.01839 -4.75203,5.54036 -6.90625,6.46875 -3.61807,1.55925 -9.03025,1.72271 -9.03125,0.27343 -9.4e-4,-1.07356 6.97419,-10.17911 7.83203,-10.22461 C 501.50239,451.37636 505,448.80516 505,447.66602 505,446.20972 510.48303,444 514.09766,444 Z m 59.60546,9.01758 c 6.47796,-0.0213 9.64172,1.35055 15.03907,6.51953 4.04899,3.87768 4.55844,4.07211 11.21289,4.30078 4.91622,0.16893 8.67722,0.99726 12.75781,2.80859 3.1826,1.41272 6.68711,2.72199 7.78711,2.91016 5.69769,0.97467 11.5,2.70069 11.5,3.41992 0,0.9818 -5.6152,1.61772 -16.86719,1.91211 -4.90491,0.12832 -9.25001,0.77396 -10.5,1.56055 -1.17284,0.73805 -3.03281,1.60041 -4.13281,1.91601 -2.46893,0.70836 -8.23791,-2.00725 -9.57617,-4.50781 -1.274,-2.38049 -7.4058,-5.49847 -12.03125,-6.11719 -1.98454,-0.26546 -4.4218,-0.93775 -5.41602,-1.49414 -0.99422,-0.5564 -2.97134,-0.67942 -4.39258,-0.27343 -2.35365,0.67234 -7.03888,0.21387 -15.83398,-1.54883 -3.75787,-0.75315 -4.30764,-3.15636 -1.33594,-5.84571 2.5333,-2.2926 15.25399,-5.53904 21.78906,-5.56054 z m -45.37109,6.03711 c 0.48355,-0.0403 0.66797,0.21344 0.66797,0.7539 0,0.44488 -0.5863,1.61006 -1.30273,2.58985 -1.1566,1.58174 -1.44397,1.61183 -2.56446,0.26172 -1.04488,-1.25901 -0.91867,-1.70412 0.73633,-2.58985 1.19612,-0.64014 1.97934,-0.97532 2.46289,-1.01562 z m -9.97461,1.1914 c 2.0567,0.0966 2.56475,1.75772 2.31055,6.16797 -0.14757,2.56018 -0.77608,3.11811 -5.16797,4.58594 -2.78754,0.93164 -5.13444,2.36633 -5.30469,3.24219 -0.43174,2.2212 1.38243,3.03892 3.63086,1.63476 1.04951,-0.65544 2.71403,-0.88392 3.69922,-0.50586 1.62132,0.62216 1.53215,0.96045 -0.95703,3.5586 -3.17927,3.31844 -7.2143,3.72451 -12.375,1.24414 -2.79308,-1.34242 -3.21388,-1.98536 -2.71484,-4.13281 0.84541,-3.63789 3.80443,-9.04102 4.95117,-9.04102 0.53624,0 2.35948,-1.34119 4.05078,-2.98047 1.6913,-1.63927 4.48025,-3.26207 6.19726,-3.60547 0.64929,-0.12985 1.20507,-0.19027 1.67969,-0.16797 z m 158.74414,42.35547 c -3.10755,0.007 -7.49166,0.32293 -9.90429,0.83203 -1.48347,0.31304 -10.57227,0.83669 -20.19727,1.16407 -9.625,0.32738 -19.975,0.76824 -23,0.98046 -20.98824,1.47248 -46.34645,2.12026 -61,1.55665 -1.925,-0.074 -5.3,0.0405 -7.5,0.2539 -2.2,0.21344 -10.63701,0.55088 -18.74805,0.75 -8.11105,0.19912 -14.749,0.69883 -14.75,1.11133 -0.003,0.82484 1.3655,1.05973 4.65235,0.80078 1.18497,-0.0934 2.43136,0.27898 2.76953,0.82617 0.85142,1.37761 -5.32803,2.08133 -22.42383,2.55469 -25.24672,0.69904 -34.90962,1.63856 -34.25977,3.33203 0.45271,1.17976 1.68563,1.33294 6.16211,0.76563 3.07839,-0.39013 11.47765,-0.89251 18.66407,-1.11719 7.18642,-0.22468 14.61142,-0.64506 16.5,-0.93359 1.88858,-0.28852 6.58359,-0.73019 10.43359,-0.98243 3.85,-0.25224 10.375,-0.69438 14.5,-0.98242 8.59094,-0.59989 24.3057,-1.16953 58.5,-2.12305 76.38079,-2.12987 94.71683,-2.23324 103,-0.58007 4.45133,0.8884 13.55371,1.39176 25,1.38476 11.73035,-0.007 18.46998,0.37616 19.34766,1.09961 1.01939,0.84028 1.57329,0.70492 2.27929,-0.55664 0.81882,-1.46316 2.60756,-1.61372 14.65235,-1.24023 7.54627,0.234 18.4457,1.12596 24.2207,1.98242 5.775,0.85645 12.525,1.77694 15,2.04687 9.87543,1.07704 12.90748,1.54801 23,3.56641 20.82057,4.1639 24.49498,4.70376 26.125,3.83594 1.7438,-0.92839 11.72132,-0.13034 13.375,1.07031 0.55,0.39932 2.9064,1.01767 5.23633,1.37305 2.32993,0.35537 5.92993,1.37944 8,2.27539 2.07007,0.89594 4.66367,1.98756 5.76367,2.42578 1.1,0.43822 4.19453,1.72579 6.87695,2.86133 2.68241,1.13554 5.68889,2.06445 6.67969,2.06445 0.9908,0 2.45314,0.65431 3.25195,1.45312 0.79881,0.79882 1.66517,1.23914 1.92383,0.98047 0.25867,-0.25866 3.79983,0.66 7.86914,2.04102 4.06931,1.38102 8.79189,2.51358 10.49414,2.51758 1.87703,0.004 3.84468,0.8405 5,2.12304 1.04775,1.16312 2.90482,2.49743 4.12696,2.96485 1.22214,0.46743 2.52689,2.06655 2.90039,3.55469 0.55877,2.22629 0.12016,3.2048 -2.47266,5.52148 C 927.41725,557.7048 926,559.5699 926,560.30078 926,562.03265 919.73071,565 916.07227,565 c -1.61892,0 -3.10767,0.65065 -3.4336,1.5 -0.31658,0.825 -1.2915,1.5 -2.16601,1.5 -0.87452,0 -3.251,1.31872 -5.28125,2.93164 -4.68331,3.72062 -19.32656,8.03667 -32.19141,9.48633 -4.64316,0.52321 -18.48596,2.53405 -23.5,3.41406 -3.40422,0.59748 -4,1.07235 -4,3.18555 0,2.46263 0.0658,2.47919 8,2.17578 4.4,-0.16826 9.125,-0.54729 10.5,-0.84375 1.375,-0.29646 5.425,-0.72162 9,-0.94336 3.575,-0.22175 8.65926,-0.85326 11.29883,-1.4043 C 886.9384,585.45092 891.5509,585 894.54883,585 897.54676,585 900,584.62187 900,584.16016 c 0,-1.32051 4.60323,-3.07594 6.65625,-2.53907 1.0212,0.26705 4.4418,-0.66032 7.60352,-2.05859 3.16173,-1.39826 6.08421,-2.56977 6.49414,-2.60547 0.40994,-0.0357 0.66806,-1.11975 0.57226,-2.4082 -0.1,-1.34506 0.83587,-3.29134 2.19727,-4.57031 2.18735,-2.05491 2.49716,-2.10245 3.99414,-0.60547 1.49697,1.49698 1.42327,1.69833 -0.94727,2.59961 C 925.15698,572.51 924,573.34194 924,573.82031 c 0,1.1294 3.0097,3.70178 5.26953,4.50391 1.40941,0.50028 1.73333,1.64794 1.5918,5.64648 -0.14617,4.12978 0.231,5.37596 2.13281,7.02539 2.88338,2.50074 3.2538,2.49339 5.60156,-0.10156 1.47262,-1.62766 1.92666,-3.72711 2.00586,-9.25 0.0563,-3.92944 0.35981,-8.11236 0.67383,-9.29492 0.31402,-1.18256 0.6803,-7.25969 0.81445,-13.50391 C 942.35012,546.72974 941.39307,543 938.02344,543 c -1.04819,0 -2.16642,-0.42377 -2.48633,-0.94141 C 934.9749,541.14893 932.71525,540.00431 921,534.69531 915.4962,532.20115 895.31643,527 891.14453,527 c -1.21821,0 -3.21154,-0.63216 -4.42969,-1.4043 -1.21815,-0.77215 -4.23984,-1.72351 -6.71484,-2.11523 -2.475,-0.39173 -5.23083,-1.09554 -6.125,-1.56445 -0.89418,-0.46891 -5.39418,-1.07717 -10,-1.34961 -4.60583,-0.27244 -9.725,-0.72431 -11.375,-1.00586 -1.65,-0.28155 -6.15,-0.99804 -10,-1.5918 -9.37985,-1.44662 -19.01123,-3.26429 -23.5,-4.43555 -1.85208,-0.48327 -10.60859,-1.59367 -16.45703,-2.08593 -3.82632,-0.32205 -7.27313,-0.78034 -7.66016,-1.01954 -0.76479,-0.47267 -7.46362,-1.32046 -15.38281,-1.94726 -2.75,-0.21766 -6.125,-0.68654 -7.5,-1.04102 -1.375,-0.35448 -17.81473,-0.737 -36.5332,-0.84961 -18.71848,-0.11261 -34.55615,-0.52611 -35.19336,-0.91992 -1.32335,-0.81788 -7.60638,-1.6747 -14.43946,-1.96875 -2.56677,-0.11045 -4.91556,-0.44865 -5.21875,-0.75195 -0.24424,-0.24433 -1.64914,-0.35175 -3.51367,-0.34766 z m -170.15625,5.4043 c -1.94687,-0.03 -3.57833,0.0173 -4.44531,0.17578 -2.2,0.40209 -8.6125,0.75139 -14.25,0.77539 -5.6375,0.024 -10.25,0.45907 -10.25,0.96875 0,0.50967 0.74073,1.07217 1.64648,1.25 0.90574,0.17782 3.94324,0.22831 6.75,0.11133 23.84599,-0.99392 34.15036,-1.52792 34.41797,-1.7832 0.64629,-0.6165 -8.02853,-1.4079 -13.86914,-1.49805 z m -59.79492,2.53125 c -0.17507,0.0247 -0.3314,0.074 -0.45508,0.15039 -0.4947,0.30574 -4.23949,0.49111 -8.32226,0.41211 -4.08278,-0.079 -8.19966,0.27239 -9.14844,0.7793 -2.84794,1.52159 -8.74201,2.12066 -11.91406,1.21093 -1.83047,-0.52497 -3.68556,-0.45878 -4.8125,0.17188 -1.00854,0.56441 -7.49581,1.19557 -14.41602,1.4043 -17.34916,0.5233 -17.19977,0.52538 -20.71875,-0.20704 -2.05205,-0.42709 -3.95452,-0.13748 -5.5,0.8379 -1.47678,0.932 -6.30059,1.73441 -12.86328,2.14062 -21.20267,1.3124 -23.70443,1.53707 -34.36523,3.08594 -5.97588,0.86821 -11.06579,1.37952 -11.31055,1.13476 -0.24476,-0.24476 -2.78041,0.1744 -5.63477,0.93164 -2.85436,0.75723 -7.43945,1.40892 -10.18945,1.44922 -5.75207,0.0842 -15.34157,1.4939 -24,3.52735 -3.3,0.77502 -8.25,1.62778 -11,1.89453 -5.05484,0.49033 -17.23872,3.82774 -25.5,6.98437 -2.475,0.9457 -5.625,1.94528 -7,2.22266 -8.52972,1.72076 -21.1966,7.45354 -24.04102,10.88086 -0.66206,0.79774 -1.93688,1.46171 -2.83203,1.47461 -0.89516,0.0128 -3.86457,1.25035 -6.59961,2.75 -3.98896,2.18719 -5.17706,3.4608 -6.00781,6.43554 -0.5696,2.03965 -1.59449,4.26637 -2.27734,4.94922 -1.81553,1.81553 -1.53875,2.54961 1.2207,3.24219 2.71883,0.68238 2.70201,0.28962 0.96094,22.59961 -0.75079,9.62056 -2.49384,12.52341 -6.85938,11.42773 -1.35781,-0.34079 -4.62667,0.0875 -7.26562,0.95313 -2.63895,0.86564 -6.59883,1.81081 -8.79883,2.09961 -15.07991,1.97955 -24.82649,2.78017 -37.5,3.08008 -12.55688,0.29715 -31.927076,2.38572 -37.179688,4.00976 -0.924056,0.28571 -5.874055,0.70875 -11,0.93946 -9.058342,0.4077 -28.257063,2.10081 -34.320312,3.02734 -1.65,0.25214 -5.475,0.74022 -8.5,1.08398 -3.025,0.34377 -5.657293,0.7652 -5.849609,0.93555 -0.533742,0.47278 1.965422,7.76252 3.1875,9.29688 1.215748,1.52642 1.579165,1.48905 22.126953,-2.26954 7.680172,-1.40486 16.756352,-2.51213 20.169922,-2.46093 3.41357,0.0512 6.649317,-0.1806 7.191406,-0.51563 0.87085,-0.53821 31.505408,-2.00016 36.673828,-1.75 5.57991,0.27007 24.06367,-0.0129 32,-0.49023 11.56602,-0.69561 55.61327,-0.59675 75,0.16797 24.50339,0.96655 37.93659,1.52489 39,1.62109 0.55,0.0498 6.175,-0.39128 12.5,-0.97852 6.325,-0.58725 19.375,-1.35762 29,-1.71289 9.625,-0.35527 20.875,-0.77949 25,-0.94336 4.125,-0.16387 12,0.18711 17.5,0.7793 5.5,0.59218 18.1,1.15375 28,1.24805 9.9,0.0943 27.675,0.46148 39.5,0.8164 36.21316,1.08691 70.70463,1.26805 87.5,0.45899 8.8,-0.42391 25.675,-1.00332 37.5,-1.28711 45.18278,-1.08437 50.79609,-1.29324 51.81641,-1.92383 0.57776,-0.35708 2.78125,-0.053 4.89648,0.67578 2.42106,0.83412 7.35452,1.22221 13.31641,1.04883 5.2088,-0.15147 10.1457,-0.28201 10.9707,-0.29101 0.825,-0.009 2.625,-0.0644 4,-0.1211 1.375,-0.0567 3.85,-0.0609 5.5,-0.01 1.65,0.0511 11.775,0.33249 22.5,0.625 10.725,0.2925 22.875,0.92466 27,1.40429 7.58931,0.88242 27.25498,0.71378 65.5,-0.55859 21.23087,-0.70633 39.06076,-0.78531 65.5,-0.28906 7.975,0.14969 18.1,-0.25854 22.5,-0.90821 16.39843,-2.42126 21.07682,-3.24042 24.04102,-4.21093 1.67287,-0.54771 13.59787,-1.21254 26.5,-1.47657 12.90214,-0.26404 36.28398,-0.74291 51.95898,-1.06445 37.30529,-0.76524 88.9937,-0.56825 90.3945,0.34375 0.6079,0.39573 12.3555,0.78413 26.1055,0.86523 13.75,0.0811 27.7,0.39887 31,0.70508 3.3,0.30621 11.625,0.81617 18.5,1.13282 16.2289,0.74744 31.1072,2.22656 34.1895,3.39843 1.9306,0.73403 2.6816,0.55224 3.5644,-0.86133 0.9034,-1.44651 0.6995,-2.16642 -1.0664,-3.74218 -5.4382,-4.85265 -8.1235,-5.90509 -16.1875,-6.34375 -12.3127,-0.66977 -71.852,-0.43951 -82.2852,0.31836 -8.0875,0.58747 -9.6839,0.43081 -12.3867,-1.21289 -2.3559,-1.43271 -3.6977,-1.65996 -5.5722,-0.94727 -3.1563,1.20007 -74.80845,1.25447 -76.94535,0.0586 -1.41183,-0.7901 8.90308,-1.83682 19.93945,-2.02343 1.5125,-0.0256 3.3125,-0.1077 4,-0.1836 2.22878,-0.24604 29.0351,1.11276 29.668,1.50391 0.3375,0.20862 2.8565,-0.0263 5.5976,-0.52149 9.4347,-1.70453 9.4844,-1.72963 9.4844,-4.94726 0,-2.81111 -0.2279,-2.98047 -4,-2.98047 -2.7309,0 -4,0.43646 -4,1.37695 0,0.75765 -0.6955,1.95524 -1.5449,2.66016 -1.2919,1.07216 -1.7952,0.92208 -3.084,-0.91797 -1.0678,-1.52456 -2.1451,-2.00738 -3.5098,-1.57422 -4.3104,1.36807 -18.49294,1.90181 -39.8613,1.5 -6.875,-0.12928 -13.175,-0.0471 -14,0.1836 -3.64425,1.01922 -12.956,2.7044 -18,3.25781 -10.4048,1.14158 -37.82109,1.61133 -38.41016,0.6582 -0.35071,-0.56745 -2.12353,-0.58844 -4.50781,-0.0527 -2.16083,0.48503 -5.76346,0.70622 -8.00586,0.49023 -2.24239,-0.21599 -4.07617,-0.0799 -4.07617,0.30078 0,0.3807 -0.9096,0.75995 -2.02148,0.84375 -1.11189,0.0838 -1.76075,-0.2704 -1.44141,-0.78711 0.88213,-1.42731 -2.20864,-1.12172 -3.71484,0.36719 -1.70137,1.68183 -13.5597,5.00835 -15.37305,4.3125 -0.76165,-0.29227 -1.64104,-0.11824 -1.95313,0.38672 -0.34102,0.55177 -1.60661,0.52284 -3.17187,-0.0723 -2.03875,-0.77514 -3.01164,-0.62205 -4.48242,0.70899 -2.03409,1.84083 3.12202,1.73961 -71.28125,1.41406 -20.17914,-0.0883 -29.35941,-0.475 -30.32617,-1.27734 -1.06328,-0.88244 -1.59442,-0.81587 -2.2754,0.28515 -0.74924,1.21139 -7.57267,1.43555 -43.67382,1.43555 -23.5322,0 -44.13516,-0.24602 -45.78516,-0.54688 -1.65,-0.30087 -5.3625,-0.37073 -8.25,-0.15429 -4.35677,0.32658 -5.25,0.71724 -5.25,2.29687 0,1.32747 -0.70675,1.9043 -2.33398,1.9043 -1.28334,0 -2.59869,-0.26666 -2.92383,-0.5918 -0.32513,-0.32514 -3.43699,-0.77735 -6.91602,-1.00586 -3.47903,-0.22851 -8.57617,-0.86197 -11.32617,-1.4082 -2.75,-0.54623 -7.925,-1.05556 -11.5,-1.13086 -3.575,-0.0753 -7.49805,-0.59266 -8.7168,-1.15039 -1.57266,-0.7197 -2.63174,-0.66995 -3.64843,0.17383 -0.7879,0.65389 -2.93986,1.2015 -4.78321,1.2168 -5.99639,0.0496 -11.12575,0.029 -24.85156,-0.10157 -7.425,-0.0707 -19.8,-0.093 -27.5,-0.0488 -7.7,0.0442 -25.475,-0.2115 -39.5,-0.56835 -28.79103,-0.73255 -28.84277,-0.73265 -35,-0.0762 -13.85419,1.47709 -16.73316,1.54795 -19.68359,0.48438 -2.35181,-0.84777 -3.53689,-0.85421 -4.53321,-0.0273 -0.92679,0.76919 -2.62858,0.83231 -5.4375,0.20118 -2.24858,-0.50522 -6.95858,-0.90517 -10.46679,-0.88868 -3.50821,0.0165 -9.75391,-0.217 -13.87891,-0.51757 -19.36311,-1.4109 -28.62228,-1.74681 -57,-2.06641 -16.775,-0.18894 -33.13769,-0.66094 -36.36133,-1.05078 -5.83479,-0.7056 -11.50348,0.10631 -22.25781,3.19141 -3.99139,1.14502 -6.96583,1.26922 -13.5,0.56445 -4.60938,-0.49716 -11.08086,-0.76629 -14.38086,-0.59961 -3.3,0.16667 -11.625,0.60558 -18.5,0.97656 -15.84739,0.85515 -17.54524,0.79605 -30,-1.06445 -2.475,-0.36971 -5.49003,-0.7643 -6.70117,-0.87695 -1.21115,-0.11265 -2.40532,-0.4144 -2.65235,-0.66993 -0.24702,-0.25552 -0.72885,-7.56317 -1.07031,-16.23828 -0.68522,-17.40824 -0.30511,-18.56035 4.97071,-15.10351 2.74504,1.79863 9.65415,3.0491 21.45312,3.88281 3.575,0.25261 7.55559,0.71115 8.8457,1.01953 1.29011,0.30838 2.95873,0.0527 3.70703,-0.56836 0.7483,-0.62103 1.83499,-0.83565 2.41602,-0.47656 1.94671,1.20314 29.74846,3.88104 52.03125,5.01172 6.325,0.32095 15.00482,1.27438 19.28906,2.11914 6.12765,1.20824 11.14132,1.38507 23.5,0.82617 17.97182,-0.81275 23.27316,-0.72607 28.20508,0.46094 1.92813,0.46406 12.05586,0.93658 22.50586,1.05078 10.45,0.1142 21.04511,0.5933 23.54492,1.06445 4.63648,0.87385 24.62567,0.46122 30.95508,-0.63867 2.67999,-0.46571 30.80402,-0.71086 41,-0.35742 0.825,0.0286 11.625,-0.24917 24,-0.61719 20.18519,-0.60028 41.17923,-0.71489 73.26562,-0.4043 5.92079,0.0573 11.29107,-0.22278 11.93555,-0.62109 0.64447,-0.3983 7.95159,-0.85022 16.23633,-1.00391 8.28474,-0.15369 19.89713,-0.78655 25.80664,-1.40625 5.90951,-0.6197 12.02987,-0.84477 13.59961,-0.5 1.56975,0.34478 5.73511,0.10378 9.25586,-0.53711 3.52074,-0.6409 7.52539,-1.14714 8.90039,-1.12304 14.24735,0.24932 106.22955,0.0624 108.5,-0.22071 5.70084,-0.71093 16.03837,-1.52528 26.5,-2.08593 5.775,-0.30949 10.63275,-0.94518 10.79492,-1.41407 0.16217,-0.4689 1.88835,-0.49394 3.83594,-0.0547 2.85407,0.6437 3.91236,0.42748 5.45508,-1.11524 1.05274,-1.05279 1.91406,-1.49796 1.91406,-0.98828 0,1.54 3.34069,1.80642 6,0.47852 1.375,-0.68659 3.31514,-1.5041 4.3125,-1.81836 5.56538,-1.75358 -5.24297,-2.58794 -15.3125,-1.18164 -1.925,0.26884 -9.575,0.73335 -17,1.03125 -7.425,0.29791 -16.26306,0.77978 -19.64062,1.07031 -3.37756,0.29053 -7.30046,0.0873 -8.7168,-0.45117 -1.97909,-0.75245 -2.94121,-0.61349 -4.1543,0.59961 -1.03161,1.03161 -2.54362,1.38425 -4.36719,1.01953 -1.53464,-0.30692 -3.94833,0.0433 -5.36328,0.77734 -2.06531,1.0715 -3.92282,1.10879 -9.41601,0.19141 -3.76337,-0.62849 -8.4168,-1.01102 -10.3418,-0.84961 -3.84682,0.32269 -12.71678,0.49306 -16.25,0.3125 -1.2375,-0.0632 -7.875,-0.0359 -14.75,0.0606 -6.875,0.0965 -14.975,0.11541 -18,0.041 -3.025,-0.0744 -9.1,0.0707 -13.5,0.32227 -4.4,0.25161 -18.125,0.71416 -30.5,1.02734 -12.375,0.31318 -23.625,0.90166 -25,1.30859 -2.06333,0.61064 -17.43472,0.72695 -23,0.17383 -0.825,-0.082 -3.525,0.1249 -6,0.46094 -2.475,0.33604 -8.775,0.56727 -14,0.51367 -40.65803,-0.41675 -107.06978,-0.42413 -118.84766,-0.0137 -7.89099,0.275 -14.55565,0.16203 -14.81054,-0.25195 -0.25489,-0.41399 -1.38743,-0.25914 -2.51758,0.3457 -1.43737,0.76925 -9.00667,0.88629 -25.18945,0.38867 C 404.9108,585.09115 387.975,584.64877 380,584.5 c -7.975,-0.14878 -22.15,-0.78333 -31.5,-1.41211 -9.35,-0.62877 -21.275,-1.37192 -26.5,-1.65039 -5.225,-0.27847 -11.075,-0.90553 -13,-1.39258 -1.925,-0.48704 -8.45,-1.38856 -14.5,-2.0039 -13.14672,-1.33715 -18.31787,-1.95414 -21,-2.50782 -6.68634,-1.3803 -16.69035,-2.60274 -28.5,-3.48242 -24.83015,-1.84956 -27.48059,-2.11508 -31.32031,-3.14258 -2.1012,-0.56228 -5.21975,-1.87418 -6.92969,-2.91406 -1.70993,-1.03987 -3.41707,-1.70032 -3.79492,-1.4668 -0.37785,0.23353 -1.49281,-0.46375 -2.47656,-1.55078 C 198.74957,561.06614 198.76263,561 200.8457,561 202.03095,561 203,560.65659 203,560.23633 203,559.46577 210.26858,556 211.88477,556 c 0.47888,0 1.4107,-0.65056 2.07031,-1.44531 0.65961,-0.79478 3.75086,-1.9351 6.87109,-2.53516 3.12024,-0.60005 7.15087,-1.74953 8.95703,-2.55469 1.80616,-0.80517 4.18777,-1.46484 5.29102,-1.46484 1.10326,0 3.67425,-0.8429 5.71484,-1.87305 6.45989,-3.26117 21.52085,-8.10471 26.71094,-8.58984 9.62331,-0.8995 12.70274,-1.46089 14.02539,-2.55859 0.73324,-0.60854 4.11493,-1.31473 7.51563,-1.56836 3.4007,-0.25363 6.98197,-0.88638 7.95703,-1.40821 1.76294,-0.9435 6.63719,-1.76476 14.74804,-2.48242 2.33533,-0.20663 6.83533,-1.1744 10,-2.15039 3.16467,-0.976 6.42891,-1.81287 7.25391,-1.85937 0.825,-0.0465 3.75,-0.39701 6.5,-0.78125 5.67448,-0.79286 14.44084,-1.40956 32.5,-2.28125 6.875,-0.33185 13.625,-0.73845 15,-0.9043 6.09396,-0.73503 19.64251,-1.58393 33.30469,-2.08789 8.14292,-0.30037 15.88973,-0.95909 17.21484,-1.46289 1.3251,-0.50381 2.63592,-0.55041 2.91211,-0.10352 0.75599,1.22322 30.41335,0.26539 32.89453,-1.0625 2.06882,-1.1072 2.07302,-1.15997 0.17383,-1.82617 -1.07494,-0.37707 -3.66552,-0.48777 -5.75781,-0.24609 -2.09229,0.24168 -4.35293,-0.015 -5.02344,-0.57032 -0.81422,-0.67432 -2.71327,-0.68048 -5.71875,-0.0195 -6.86299,1.50928 -15.81265,2.05876 -14,0.85938 0.825,-0.54588 3.38637,-0.99981 5.69141,-1.00782 4.33706,-0.0158 6.56058,-1.62286 4.23437,-3.06054 -0.54877,-0.33917 -1.25017,-0.49206 -1.77539,-0.41797 z m 101.58789,16.66406 c -1.68284,0.007 -3.58044,0.0972 -5.63476,0.26953 -4.73228,0.39693 -29.75352,0.96907 -55.60352,1.27149 -25.85,0.30241 -51.275,0.65249 -56.5,0.77734 -31.99062,0.76436 -47.37654,1.50545 -50.88867,2.45117 -2.19537,0.59115 -12.90516,1.95586 -23.80078,3.03321 -10.89561,1.07734 -22.51055,2.37386 -25.81055,2.88281 -3.3,0.50896 -6.675,0.95865 -7.5,0.99805 -2.47182,0.11804 -15.26024,1.87774 -18.74805,2.58007 -1.78661,0.35977 -4.26161,0.76727 -5.5,0.9043 -4.50334,0.4983 -19.62524,5.7442 -22.89648,7.94336 -3.44244,2.31422 -4.47152,5.09518 -3.42774,9.25391 0.64145,2.55573 3.2046,3.52841 14.07227,5.34375 3.3,0.55124 7.125,1.25516 8.5,1.5625 2.38117,0.53224 6.85427,0.77228 38,2.04882 20.61288,0.84484 30.68949,1.42094 40,2.28516 4.675,0.43394 9.1218,0.49117 9.88281,0.12695 0.76101,-0.36423 2.90143,-0.32058 4.75586,0.0977 1.87393,0.42264 3.62222,0.35465 3.93555,-0.15234 0.31008,-0.50171 0.89473,-0.70678 1.29883,-0.45703 0.4041,0.24975 2.58271,0.0388 4.84179,-0.46876 2.25908,-0.50757 8.85903,-1.16623 14.66602,-1.46289 5.80698,-0.29667 12.57033,-0.91562 15.0293,-1.375 2.76758,-0.51704 4.84635,-0.45833 5.45703,0.15235 0.5855,0.5855 2.13495,0.65506 3.81054,0.17187 1.55277,-0.44778 11.82227,-0.89885 22.82227,-1.00195 11,-0.1031 24.725,-0.45675 30.5,-0.78516 9.302,-0.52897 32.58428,-0.7634 77.5,-0.7832 7.7,-0.003 16.025,-0.33274 18.5,-0.73047 2.475,-0.39773 6.26358,-0.34757 8.41797,0.11133 2.15438,0.45889 11.82938,0.55904 21.5,0.22266 45.12455,-1.56961 102.80092,-2.82406 138.58203,-3.01563 18.7,-0.10011 38.5,-0.44596 44,-0.76758 10.26759,-0.60041 24.31639,-3.10545 25.81445,-4.60351 1.67437,-1.67437 0.2424,-6.51146 -2.31445,-7.81836 -2.65598,-1.35758 -16.37838,-0.80327 -20.75,0.83789 -1.90933,0.71679 -2.25349,0.50746 -2.27539,-1.38086 -0.0452,-3.89714 -6.13795,-5.9525 -21.47461,-7.24609 -3.85,-0.32473 -8.125,-0.85161 -9.5,-1.16993 -3.7046,-0.85765 -5.40659,-1.01784 -18,-1.70507 -6.325,-0.34516 -12.85,-0.91893 -14.5,-1.2754 -1.65,-0.35646 -5.7,-0.77426 -9,-0.92773 -3.3,-0.15347 -10.5,-0.53994 -16,-0.85937 -9.20944,-0.53485 -21.50115,-1.21856 -56,-3.11329 -18.51619,-1.01693 -27.89374,-1.30103 -64,-1.93554 -18.71497,-0.32888 -33.41044,-1.01435 -35.39648,-1.65235 -1.35132,-0.4341 -3.5605,-0.65051 -6.36524,-0.63867 z m -9.84375,8.45313 c 10.20682,-0.005 20.1462,0.0288 28.60547,0.10937 7.7,0.0734 18.5,0.0603 24,-0.0273 9.54849,-0.152 46.58139,1.78389 55,2.875 2.2,0.28514 8.275,0.49148 13.5,0.45898 9.03621,-0.0562 43.38355,1.78117 77,4.11719 8.525,0.59241 19.23514,0.98891 23.80078,0.88086 6.60296,-0.15626 9.16605,0.22149 12.5293,1.84961 3.02555,1.46464 5.65907,1.94432 9.25781,1.6875 3.19122,-0.22773 5.71293,0.14094 6.89844,1.00781 1.02758,0.75138 1.67625,1.54656 1.4414,1.76758 -1.24688,1.17347 -13.33711,3.38958 -19.36914,3.55078 -3.81753,0.10202 -7.41753,0.49065 -8,0.86133 -0.58246,0.37069 -21.08359,0.80478 -45.55859,0.9668 -58.76104,0.38897 -146.95133,1.03741 -159.5,1.17187 -15.07908,0.16155 -66.57786,0.25759 -70,0.13086 -1.65,-0.0611 -3.7875,-0.35542 -4.75,-0.6543 -0.9625,-0.29888 -1.74966,-0.17612 -1.75,0.27344 -3.3e-4,0.44957 -9.56283,0.87948 -21.25,0.95508 -11.68716,0.0756 -31.05785,0.45212 -43.04492,0.83594 -16.33322,0.52299 -22.15523,0.39723 -23.23633,-0.5 -0.83355,-0.6918 -2.18653,-0.87459 -3.20508,-0.4336 -0.9695,0.41975 -8.96367,0.90393 -17.76367,1.07617 -8.8,0.17223 -25,0.53168 -36,0.79688 -11.61309,0.27998 -20.69156,0.0864 -21.64844,-0.45899 -0.90637,-0.51657 -3.26801,-1.05373 -5.24804,-1.19531 -2.4093,-0.17228 -3.60559,-0.75395 -3.61719,-1.75781 -0.0141,-1.21999 -0.17756,-1.24711 -0.875,-0.14648 -0.71329,1.12561 -1.25701,1.13132 -3.23438,0.0352 -1.30744,-0.72479 -2.82082,-1.33401 -3.36328,-1.35351 -0.54247,-0.0195 -1.12947,-0.77958 -1.30469,-1.68946 -0.33556,-1.74239 4.44003,-3.87772 8.29102,-3.70703 1.1,0.0488 5.6,-0.68535 10,-1.63086 8.62868,-1.8542 18.88958,-3.46458 24.50195,-3.8457 1.92607,-0.13079 4.12501,-0.62299 4.88672,-1.09375 1.65333,-1.02182 11.20064,-1.43172 49.11133,-2.11133 15.675,-0.281 32.55,-0.75276 37.5,-1.04687 4.95,-0.29411 10.125,-0.54605 11.5,-0.56055 1.375,-0.0145 3.0625,-0.49177 3.75,-1.06055 0.6875,-0.56879 1.25,-0.69875 1.25,-0.28906 0,0.40969 0.63413,0.21831 1.41016,-0.42578 0.99132,-0.8227 1.60935,-0.85103 2.07617,-0.0957 0.36544,0.5913 1.19381,0.99195 1.83984,0.89062 0.64602,-0.10133 1.99259,0.17064 2.99219,0.60547 1.02059,0.44395 2.77441,0.30972 4,-0.30664 1.2004,-0.60369 3.30664,-1.08275 4.68164,-1.06445 1.375,0.0183 4.3,-0.26348 6.5,-0.62696 2.74123,-0.45289 35.77408,-0.80854 66.39453,-0.82226 z M 815.05859,542 c -1.35037,0 -2.28637,1.82226 -1.54882,3.01562 0.34546,0.55897 1.04659,0.75785 1.55859,0.44141 1.21459,-0.75067 1.20703,-3.45703 -0.01,-3.45703 z m 21.45899,42.90234 c -2.16452,-0.0312 -4.72827,0.13177 -6.98633,0.49805 -6.17536,1.0017 -15.74985,1.64718 -31.53125,2.125 -7.975,0.24147 -16.975,0.66682 -20,0.94531 -3.025,0.2785 -20.575,0.71864 -39,0.97852 -18.425,0.25988 -42.5,0.73761 -53.5,1.0625 -11,0.32488 -31.62769,0.75818 -45.83984,0.96289 -14.21215,0.20471 -25.96994,0.51971 -26.12696,0.69922 -0.15702,0.17952 -0.58062,1.29272 -0.94336,2.47461 -0.62805,2.04635 -0.40807,2.12772 4.625,1.69531 2.90692,-0.24974 24.43254,-0.57128 47.83399,-0.71484 23.40145,-0.14355 43.10832,-0.60811 43.79297,-1.03125 0.68466,-0.42314 7.51374,-0.92109 15.17578,-1.10743 7.66204,-0.18633 14.86315,-0.63597 16.0039,-0.99804 1.14075,-0.36206 2.69788,-0.13915 3.46094,0.49414 0.87742,0.72819 3.34795,0.94038 6.7207,0.57617 8.31546,-0.89794 40.24436,-1.02264 41.63672,-0.16211 0.68682,0.42447 2.26694,0.104 3.51368,-0.71289 2.28282,-1.49576 7.18886,-1.23792 8.2207,0.43164 1.04045,1.68348 4.607,0.90653 5.13672,-1.11914 0.60882,-2.32815 1.99137,-2.5439 4.21094,-0.6582 1.25281,1.06436 3.95227,1.16484 13.07812,0.49218 6.325,-0.46621 12.5125,-1.28367 13.75,-1.81836 2.2656,-0.97891 3.01186,-3.42671 1.35742,-4.44921 -0.66076,-0.40837 -2.42532,-0.63285 -4.58984,-0.66407 z M 631.05859,612 c -1.06754,0 -2.21867,0.45 -2.55859,1 -0.35052,0.56716 0.49005,1 1.94141,1 1.40746,0 2.55859,-0.45 2.55859,-1 0,-0.55 -0.87387,-1 -1.94141,-1 z" id="path12"/>
</svg>
