<?xml version="1.0" encoding="utf-8"?>

<svg xmlns="http://www.w3.org/2000/svg" version="1.1" viewBox="0 0 1186 351">











	<path d="m 966.68134,340.348 c -0.3586,-0.3586 -2.7017,-0.79322 -5.20689,-0.96584 -5.65639,-0.38973 -6.0554,-0.64043 -8.43113,-5.29725 -2.07304,-4.06348 -6.63316,-7.71762 -9.00098,-7.2127 -0.80172,0.17096 -3.16422,-0.25237 -5.25,-0.94074 -3.09335,-1.0209 -3.79165,-1.72896 -3.7886,-3.84153 0.002,-1.42447 0.91189,-4.07949 2.02186,-5.90006 2.27363,-3.7292 1.92482,-5.25118 -1.0266,-4.47937 -4.87271,1.27425 -0.94978,-7.42587 7.53486,-16.71051 3.14463,-3.44112 9.07606,-13.23562 17.51355,-28.91987 l 2.91567,-5.41988 -4.23154,-3.56687 c -8.19474,-6.90754 -16.91881,-15.61699 -17.7483,-17.71854 -0.56168,-1.42304 -2.10162,-2.35934 -4.66103,-2.83396 -3.73843,-0.69327 -10.49348,-4.17404 -11.15554,-5.74829 C 925.98333,230.35667 925.39445,230 924.85803,230 c -0.53642,0 -2.72376,-1.4051 -4.86076,-3.12244 -4.6072,-3.70244 -6.41249,-3.5012 -13.72687,1.53021 -7.39677,5.08808 -19.9516,11.21195 -26.7704,13.0578 -9.40585,2.54616 -10.56416,2.73886 -18,2.99454 -3.85,0.13238 -9.89701,0.79313 -13.4378,1.46835 -3.54079,0.67521 -8.49079,1.1169 -11,0.98153 -4.48304,-0.24186 -6.71722,0.23917 -10.43142,2.24594 -3.70519,2.00189 -19.29662,6.73086 -24.44217,7.41344 -5.1534,0.68362 -10.70607,3.78434 -9.69795,5.41552 0.28035,0.45361 2.30964,0.58333 4.50953,0.28826 3.14036,-0.42121 3.99981,-0.21139 3.99981,0.97649 0,1.77931 -6.18192,6.75036 -8.39464,6.75036 -0.84044,0 -3.42906,-1.9125 -5.75249,-4.25 -3.72725,-3.74983 -4.26239,-4.86602 -4.54718,-9.48441 -0.17752,-2.87893 0.081,-7.03152 0.57453,-9.22799 l 0.89729,-3.99358 -8.13875,0.52916 c -11.39022,0.74055 -18.68534,0.47226 -21.01163,-0.77273 -1.83752,-0.98341 -1.86047,-1.15666 -0.30397,-2.2948 2.62447,-1.91906 12.29997,-2.74522 14.80714,-1.26434 1.70237,1.00551 2.22206,1.00726 2.58369,0.009 0.50722,-1.40061 7.60012,-1.59341 10.78601,-0.29319 1.45926,0.59556 2.67592,0.20429 4.5,-1.44718 1.375,-1.24489 7.45,-3.93211 13.5,-5.97159 6.05,-2.03949 12.40312,-4.56989 14.11803,-5.6231 1.71492,-1.05322 4.41492,-1.91981 6,-1.92576 1.58509,-0.006 5.13197,-0.71199 7.88197,-1.56896 3.39228,-1.05712 9.18008,-1.57659 18,-1.61554 15.26926,-0.0674 23.18677,-1.5994 33.28023,-6.43942 4.00413,-1.92006 9.51663,-4.15515 12.25,-4.96688 C 894.7636,208.58697 897,207.4655 897,206.90654 c 0,-0.55896 -2.48939,-2.11721 -5.53197,-3.46279 -9.97714,-4.41236 -8.53947,-7.26735 7.03197,-13.96446 17.96302,-7.72571 30.12055,-19.1239 45.64679,-42.79577 4.75573,-7.25077 10.3418,-15.54936 12.41349,-18.44132 4.57013,-6.37966 16.28799,-18.4916 22.43972,-23.1944 2.475,-1.89206 6.77621,-5.626167 9.55825,-8.298022 2.78204,-2.671856 6.20275,-5.621018 7.60158,-6.553694 1.39883,-0.932676 3.84767,-2.924757 5.44177,-4.426848 1.5941,-1.502091 3.7008,-3.306984 4.6816,-4.010875 1.2292,-0.882192 1.9088,-2.985163 2.1873,-6.768926 0.6954,-9.447249 1.4821,-12.029364 5.4361,-17.841575 4.8839,-7.179253 13.8697,-14.996262 21.896,-19.047923 4.6457,-2.345146 8.3754,-3.370649 14.4776,-3.980716 10.3622,-1.035952 16.0726,0.277358 28.2934,6.507062 8.4488,4.306883 9.2406,4.97774 11.5,9.743015 5.3388,11.260363 0.3916,25.381546 -11.8536,33.834427 -6.4208,4.432272 -16.8659,9.817324 -17.6063,9.07699 -0.3321,-0.332144 -4.4009,-0.039 -9.0417,0.651438 -6.5516,0.974727 -10.5204,0.998685 -17.7549,0.107176 -10.4854,-1.292136 -14.308,-2.460307 -17.5566,-5.365328 -2.2001,-1.967379 -2.2793,-1.969349 -4.5,-0.111927 -1.2433,1.039887 -2.7406,2.437271 -3.3275,3.105298 -0.5868,0.668026 -4.0533,3.176292 -7.7032,5.573923 -3.64993,2.397632 -8.1198,6.218325 -9.93302,8.490435 -1.81323,2.27211 -4.64678,5.14425 -6.29678,6.38254 -2.94465,2.20989 -12.78266,11.2782 -19.07263,17.58044 -1.7535,1.75691 -5.33493,6.93191 -7.95873,11.5 -2.62381,4.56808 -5.10611,8.4401 -5.51625,8.60448 -0.41013,0.16439 -2.7047,3.4853 -5.09904,7.37982 C 942.03319,165.01892 933.40619,176 932.06689,176 c -0.47312,0 -4.20575,3.0375 -8.29474,6.75 -10.94451,9.93679 -14.58973,12.19296 -20.77857,12.86065 -2.94292,0.3175 -6.44972,1.29735 -7.7929,2.17743 l -2.44214,1.60015 6.37073,3.06353 c 3.5039,1.68493 8.53576,5.1842 11.18191,7.77615 4.06753,3.9842 5.09039,4.53826 6.61754,3.58453 2.97944,-1.86069 5.24666,-0.29109 4.88612,3.38267 -0.23609,2.40572 0.19057,3.47033 1.7059,4.2565 1.11141,0.57662 3.36141,1.9998 5,3.16264 1.6386,1.16284 4.77926,2.7192 6.97926,3.45857 2.2,0.73938 4.45,1.65455 5,2.03372 2.50999,1.73038 12.77375,3.99806 20.6389,4.55998 8.12791,0.58069 8.7067,0.4905 9.78518,-1.52466 1.21615,-2.2724 3.99897,-2.81881 5.6988,-1.11898 1.22205,1.22205 14.45225,-11.44545 21.47144,-20.55823 17.15548,-22.27241 35.75608,-58.0216 37.79568,-72.64111 0.8893,-6.37485 0.174,-9.07292 -2.2131,-8.34653 -0.6473,0.19698 -6.5935,0.62747 -13.2138,0.95665 -9.4524,0.47001 -12.4464,0.29903 -13.9444,-0.79634 -1.8299,-1.33804 -1.8364,-1.50347 -0.1603,-4.06162 2.7844,-4.24954 8.8614,-6.19684 7.3925,-2.36883 -0.273,0.71122 -0.6466,1.74313 -0.8304,2.29313 -0.309,0.92475 5.5049,0.95429 16.3071,0.0828 4.0417,-0.32606 6.7724,-2.02166 6.7724,-4.20528 0,-1.80058 3.1715,-1.75056 7.6499,0.12064 1.9722,0.824 4.7702,1.28172 6.2179,1.01714 7.2587,-1.32658 19.1831,-2.83669 23.6322,-2.99278 2.75,-0.0965 8.375,-0.68172 12.5,-1.30054 13.2337,-1.98526 15.3852,-2.27109 21.7406,-2.88828 7.5183,-0.73013 8.7943,-1.9204 7.5709,-7.06207 -0.8001,-3.36261 -1.2181,-3.75567 -3.8545,-3.62415 -3.8326,0.19121 -14.1176,1.24811 -17.957,1.8453 -9.6728,1.50453 -48.6351,2.89048 -57.5,2.04537 -2.475,-0.23595 -5.0625,-0.45357 -5.75,-0.48359 -2.2063,-0.0964 -1.3341,-1.81669 1.25,-2.46524 3.2816,-0.82364 3.1549,-1.98685 -0.5,-4.58936 -3.4169,-2.433063 -3.9289,-5.570392 -1.0578,-6.481651 1.8886,-0.599409 9.1058,3.132326 10.5372,5.448321 0.5632,0.91127 10.9152,0.5176 12.5336,-0.47664 0.2822,-0.17334 3.8822,-0.601861 8,-0.952269 7.2374,-0.615861 14.2019,-1.437782 29.987,-3.538901 13.4958,-1.796402 38.4625,-6.219435 40.1843,-7.118938 2.655,-1.387105 8.4485,-1.027283 9.8066,0.609068 0.6796,0.818944 1.7393,1.177747 2.3548,0.79734 0.6155,-0.380407 1.802,-0.788285 2.6367,-0.906395 2.8419,-0.402137 8.9271,-2.988214 10.725,-4.557857 0.9859,-0.860794 2.882,-2.12988 4.2134,-2.820191 2.0809,-1.078864 2.6075,-0.999858 3.75,0.562631 0.7311,0.999758 1.3292,2.310678 1.3292,2.913157 C 1166,86.710916 1156.614,94 1155.026,94 c -0.5643,0 -1.026,0.480324 -1.026,1.067388 0,1.167324 1.5655,0.824296 9.7358,-2.133344 3.9839,-1.442162 5.8634,-1.65674 7.8605,-0.897429 2.4352,0.925874 2.5203,1.155115 1.1789,3.175505 -0.7953,1.197675 -2.3075,2.651276 -3.3606,3.230224 -4.429,2.434996 -8.4146,5.750626 -8.4146,7.000136 0,1.75578 -4.9677,2.98982 -6.3741,1.58341 -0.7798,-0.77976 -0.247,-1.77084 1.8946,-3.52438 1.6387,-1.34175 3.767,-2.70882 4.7295,-3.03792 1.7716,-0.605742 2.457,-2.46359 0.9089,-2.46359 -0.4626,0 -3.0501,0.670129 -5.75,1.489176 -2.6999,0.819044 -6.1378,1.494044 -7.6398,1.500004 -2.1661,0.009 -2.8527,0.57964 -3.3193,2.76082 -0.3235,1.5125 -1.0071,3.78367 -1.519,5.04705 -1.8548,4.57742 -1.3006,5.25278 4.152,5.05979 4.1114,-0.14552 5.3756,-0.6268 6.615,-2.51837 0.9578,-1.46181 2.52,-2.34421 4.1672,-2.35378 3.2527,-0.0189 5.6081,-1.41018 4.7468,-2.80379 -0.8255,-1.33568 0.036,-1.83659 4.6458,-2.70141 3.3112,-0.62118 3.7424,-0.47131 3.7424,1.30081 0,1.243 -0.8536,2.21723 -2.25,2.56786 -1.2375,0.31074 -3.15,1.23507 -4.25,2.05408 -1.9404,1.44472 -1.9032,1.52342 1.25,2.64125 4.0445,1.43381 4.602,4.95651 0.7845,4.95651 -1.3908,0 -3.8033,1.30769 -5.5345,3 -3.6352,3.55348 -4.8568,3.68712 -8.3789,0.91661 -2.447,-1.9248 -3.504,-2.03731 -13.8848,-1.47795 -22.9806,1.23828 -38.7697,3.2372 -51.7363,6.54985 -2.9841,0.76236 -12.3506,1.66204 -35.1085,3.37225 -2.5347,0.19047 -5.0629,0.62713 -5.6182,0.97033 -0.5553,0.34321 -1.305,2.77162 -1.666,5.39647 -1.4182,10.31306 -1.9614,12.10577 -6.598,21.77244 -2.6381,5.5 -5.5012,11.575 -6.3625,13.5 -2.1533,4.81254 -8.3893,15.49376 -12.8739,22.05067 -8.8475,12.93594 -10.8264,15.44986 -19.4434,24.69956 -4.99553,5.36237 -11.32177,12.4626 -14.05828,15.77828 l -4.97548,6.0285 3.88605,5.9715 c 2.13732,3.28432 4.73509,7.57111 5.77281,9.52619 3.0288,5.70627 1.80261,12.49476 -3.62032,20.04309 -1.83386,2.55259 -3.33428,4.94955 -3.33428,5.32658 0,0.37702 -3.375,5.79655 -7.5,12.04339 -4.125,6.24684 -7.5,11.70562 -7.5,12.13062 0,0.42499 -0.93361,1.7665 -2.0747,2.98113 -1.7468,1.85939 -1.8799,2.52032 -0.84218,4.18199 1.61837,2.59141 0.54985,5.41862 -1.71887,4.54803 -1.33044,-0.51053 -1.5615,-0.26594 -1.03786,1.09865 0.37049,0.96547 0.67361,2.42392 0.67361,3.241 0,1.03052 0.61265,1.29115 2,0.85082 1.56497,-0.4967 2,-0.1797 2,1.45736 0,1.26061 0.9106,2.43835 2.2911,2.96322 1.2601,0.47909 2.91601,1.62405 3.6798,2.54435 1.07695,1.29766 2.41465,1.54521 5.9589,1.10275 2.51361,-0.3138 7.02474,-0.82523 10.02473,-1.1365 2.99999,-0.31128 5.77175,-0.76201 6.15947,-1.00163 0.38771,-0.23962 3.33317,-0.65563 6.5455,-0.92447 3.2123,-0.26884 7.8655,-0.67381 10.3405,-0.89995 2.475,-0.22613 9,-0.71947 14.5,-1.0963 5.5,-0.37684 11.575,-0.88333 13.5,-1.12554 1.925,-0.24221 10.7,-0.61699 19.5,-0.83285 8.8,-0.21586 17.125,-0.81665 18.5,-1.33509 3.1857,-1.20117 16.5118,-2.50088 30,-2.92592 5.775,-0.18199 16.35,-0.53554 23.5,-0.78568 26.5791,-0.92985 27.3124,-0.91614 25.912,0.48425 -0.5434,0.54339 -4.5709,1.03787 -8.95,1.09883 -10.9004,0.15175 -21.2749,1.5863 -31.962,4.4196 -13.7779,3.65271 -14.223,3.71964 -26.5,3.98441 -12.9514,0.27932 -36.6581,2.88168 -44.9842,4.93807 -7.1312,1.76127 -38.2872,3.99769 -50.43203,3.62008 -2.15393,-0.067 -6.41679,0.39735 -9.47302,1.03182 -3.05623,0.63447 -7.03276,1.25218 -8.83675,1.3727 -1.80398,0.12052 -3.54762,0.48677 -3.87475,0.81391 -0.32713,0.32713 -1.18027,0.37011 -1.89587,0.0955 -0.71559,-0.2746 -1.59815,-0.0186 -1.96125,0.5689 -0.74818,1.21058 -1.89897,1.378 -2.86079,0.41617 z M 1109,323.05619 c 0,-0.50678 -0.896,-1.20579 -1.9911,-1.55335 -2.1119,-0.67032 -4.3368,0.15759 -3.6051,1.34154 0.6648,1.07568 5.5962,1.26233 5.5962,0.21181 z m -154.69231,-5.14903 c -2.76046,-5.00717 -6.27651,-7.51684 -9.04352,-6.45504 -2.04142,0.78337 -0.67702,2.29829 2.7473,3.0504 1.64369,0.36101 2.98853,1.11367 2.98853,1.67256 0,1.51723 3.98628,6.82492 5.12578,6.82492 0.54428,0 -0.27387,-2.29178 -1.81809,-5.09284 z m 4.74868,-14.13002 c 1.619,-1.77257 2.94363,-3.73621 2.94363,-4.36364 0,-0.62742 1.03625,-2.21464 2.30278,-3.52714 3.19677,-3.31281 9.98892,-13.55509 13.22836,-19.94781 1.48852,-2.93745 3.59662,-6.54491 4.68466,-8.01657 2.30597,-3.11899 2.02396,-6.56125 -0.50205,-6.12814 -1.95955,0.33598 -2.18828,-1.03866 -0.65083,-3.9114 1.10858,-2.07142 -0.54253,-7.86942 -4.09572,-14.38244 -1.63331,-2.99387 -1.65666,-3.00039 -11.42844,-3.19156 -5.38549,-0.10536 -10.40986,-0.42873 -11.16528,-0.71861 -0.75541,-0.28989 -1.37348,0.0814 -1.37348,0.82519 0,1.69668 7.05868,8.15144 9.90042,9.05338 1.16683,0.37033 2.80314,1.99145 3.63623,3.60247 1.05571,2.04152 2.2645,2.92913 3.98903,2.92913 3.13237,0 3.02617,1.38235 -0.53778,7 -1.57019,2.475 -4.93546,8.46117 -7.47836,13.30261 -2.54291,4.84143 -6.02206,11.14143 -7.73144,14 -1.70938,2.85856 -3.03879,6.20989 -2.95424,7.44739 0.0868,1.27017 -0.41869,2.25 -1.16075,2.25 -1.98366,0 -6.02893,4.65587 -4.73832,5.45352 0.59137,0.36548 1.41271,0.46927 1.82521,0.23063 0.4125,-0.23864 1.65,-0.0718 2.75,0.3707 3.67583,1.47875 5.59102,0.96893 8.55637,-2.27771 z M 810.35203,247.46182 c 1.01861,-0.21246 2.36861,-0.81488 3,-1.33872 2.74658,-2.27875 19.80827,-6.09753 29.34777,-6.56867 5.48663,-0.27097 10.6112,-0.71856 11.38794,-0.99464 1.61629,-0.57449 6.1265,-1.5098 10.19964,-2.11517 1.53306,-0.22784 3.55806,-0.8094 4.5,-1.29234 0.94194,-0.48294 3.71529,-1.18451 6.16301,-1.55904 2.44771,-0.37453 4.92271,-1.02761 5.5,-1.45129 1.85353,-1.36033 13.93463,-5.98244 17.51141,-6.6997 3.54838,-0.71156 11.0382,-5.10274 11.0382,-6.47154 0,-0.41994 -1.61187,-2.17876 -3.58193,-3.9085 -4.15573,-3.64878 -4.35621,-3.62335 -15.95256,2.02295 -7.67327,3.73614 -14.9278,6.1321 -24.22981,8.00238 -2.34536,0.47157 -5.16461,1.33923 -6.26501,1.92815 -1.10039,0.58891 -6.38146,1.26285 -11.7357,1.49764 -5.35425,0.2348 -12.43499,0.85237 -15.73499,1.37238 -3.3,0.52002 -7.72263,1.21711 -9.82806,1.54908 -2.10543,0.33198 -5.48043,1.34179 -7.5,2.24401 -2.01957,0.90223 -3.89694,1.7047 -4.17194,1.78328 -0.275,0.0786 -2.79979,1.16019 -5.61065,2.40359 -4.44334,1.96553 -5.27216,2.79983 -6.34766,6.38953 -1.08464,3.62019 -1.02937,4.28064 0.44865,5.36139 1.35029,0.98736 2.51374,0.93405 5.84766,-0.26795 2.2891,-0.8253 4.99541,-1.67437 6.01403,-1.88682 z m -18.3626,-1.94909 c 0.67888,-0.81799 0.95365,-2.21867 0.61061,-3.11262 -0.50537,-1.31698 -0.90605,-1.39103 -2.11187,-0.39029 -1.60399,1.33119 -2.05171,4.99018 -0.61061,4.99018 0.48265,0 1.43299,-0.66927 2.11187,-1.48727 z M 1161,112.37756 C 1161,111.6199 1160.6582,111 1160.2405,111 c -1.1091,0 -3.2275,3.67962 -2.5237,4.38351 0.8555,0.85543 3.2832,-1.36733 3.2832,-3.00595 z m -27.5819,0.65976 c 5.4243,-2.47109 8.0685,-7.4771 5.0971,-9.64988 -1.0112,-0.73941 -2.7783,-1.11698 -3.9269,-0.83905 -1.1486,0.27793 -4.3982,0.65918 -7.2214,0.84723 -7.7942,0.51913 -8.2083,1.03434 -6.3143,7.85438 0.9505,3.42273 1.3476,3.75 4.5493,3.75 1.9293,0 5.4466,-0.88321 7.8162,-1.96268 z M 1088,105.09128 c 4.675,-0.61766 10.975,-1.34795 14,-1.62287 3.025,-0.27491 7.525,-0.90496 10,-1.4001 8.6104,-1.72255 18.5315,-2.946003 23.529,-2.901526 2.7659,0.02462 6.8159,-0.755245 9,-1.733025 3.6589,-1.638055 3.7787,-1.81105 1.5247,-2.201046 -1.3455,-0.232794 -4.1561,0.141028 -6.2459,0.830716 -3.3116,1.092927 -4.0426,1.034047 -5.6918,-0.458445 -2.4844,-2.24836 -4.5178,-2.161812 -21.616,0.920029 -4.4,0.793074 -10.8068,1.644305 -14.2373,1.891625 -3.4306,0.24732 -6.595,0.670701 -7.0321,0.940846 -0.9211,0.569256 -9.2978,1.447576 -20.7306,2.173656 -4.4,0.27944 -10.3762,0.984 -13.2804,1.56568 -2.9043,0.58169 -7.5168,1.10583 -10.25,1.16475 -4.5916,0.099 -5.7682,0.60652 -4.4535,1.92115 0.9226,0.92269 36.7456,0.0631 45.4839,-1.09144 z m -43.7185,-15.722343 c 1.7702,-0.426876 4.5267,-0.797018 6.1255,-0.822538 5.3926,-0.08607 3.7313,-2.15199 -2.7696,-3.44417 -6.1269,-1.217825 -8.8382,-2.780453 -15.2806,-8.806774 -2.5014,-2.339776 -3.0395,-6.15135 -1.3216,-9.361196 2.0473,-3.825459 7.4407,-1.470109 6.333,2.765699 -0.8801,3.365404 2.2485,6.848909 8.918,9.929708 4.9061,2.266252 7.6344,2.869278 12.9638,2.865314 4.933,-0.0037 6.75,0.350957 6.75,1.317388 0,0.915467 0.6924,1.103529 2.25,0.611133 3.9775,-1.257374 8.8316,-5.649925 12.5532,-11.359508 3.1528,-4.837007 3.6334,-6.373528 3.6784,-11.759774 0.046,-5.494138 -0.2049,-6.312739 -2.2149,-7.228562 C 1081.02,53.507628 1080,52.18833 1080,51.143884 c 0,-2.39247 -2.2866,-4.354858 -4.213,-3.615628 -0.8066,0.309519 -2.0438,-0.132717 -2.7492,-0.982747 -0.7055,-0.85003 -0.8901,-1.5524 -0.4102,-1.560822 2.6199,-0.04599 -2.6663,-1.956545 -5.449,-1.969374 -1.8268,-0.0084 -4.0256,-0.719505 -4.8863,-1.580183 -1.4438,-1.443753 -3.2254,-1.465395 -10.2923,-0.125021 -0.275,0.05216 -2.239,-0.251331 -4.3645,-0.674423 -3.1967,-0.636342 -4.2462,-0.41057 -6.0741,1.306675 -1.2154,1.141762 -2.4714,1.814332 -2.7911,1.494598 -1.0768,-1.076818 -8.2304,4.256434 -13.5958,10.136083 -8.5865,9.409627 -11.6574,17.903681 -9.1832,25.400561 2.8303,8.576042 15.9077,13.38136 28.2902,10.395334 z m 11.5797,-14.723914 c -4.8454,-2.562336 -5.9321,-5.36343 -1.8612,-4.797449 1.375,0.191166 3.0324,0.783773 3.6831,1.316903 0.7922,0.649053 2.0482,0.402491 3.8013,-0.746227 3.2672,-2.140714 5.2993,-0.751201 3.5853,2.451472 -2.0575,3.84446 -4.4305,4.301953 -9.2085,1.775301 z M 1070.3616,67.5 c -0.3166,-0.825 -0.2315,-2.2875 0.1891,-3.25 0.4206,-0.9625 0.6818,-2.278567 0.5805,-2.924593 -0.3382,-2.156044 1.7007,-2.378712 4.9842,-0.544338 3.8849,2.170353 4.8576,4.218931 2.0031,4.218931 -1.1265,0 -2.5298,0.9 -3.1185,2 -1.2612,2.356499 -3.8201,2.632345 -4.6384,0.5 z m -18.8953,-6.705167 c -1.5419,-1.212842 -4.6342,-2.450342 -6.8717,-2.75 -6.0826,-0.814582 -6.0804,-3.551065 0,-5.325263 l 4.7266,-1.378218 -2.372,-1.661406 c -1.7012,-1.191607 -2.066,-1.967382 -1.2899,-2.743472 2.5011,-2.50105 16.3365,3.94763 16.3365,7.614417 0,2.076503 -3.3013,1.786583 -6.2729,-0.550891 -2.8401,-2.234049 -6.0061,-2.878997 -3.9271,-0.8 0.66,0.66 1.2,1.940256 1.2,2.845012 0,0.904757 0.9,2.459502 2,3.454988 4.1771,3.780213 1.0723,4.917892 -3.5337,1.294833 z M 1108.2397,332.75 c 0.522,-1.60567 12.687,-5.23737 21.2603,-6.34696 5.403,-0.69928 19.9341,-2.49759 23,-2.84638 1.65,-0.18771 4.6875,-0.66483 6.75,-1.06027 3.3244,-0.63738 3.75,-0.49168 3.75,1.28391 0,2.61796 -3.4023,3.47911 -13,3.29041 -7.5239,-0.14792 -31.0616,3.82151 -34.9268,5.89013 -2.7581,1.47609 -7.336,1.33484 -6.8335,-0.21084 z m 36.838,0.34981 c -2.4323,-0.3299 -4.5946,-1.12412 -4.8051,-1.76495 -0.5707,-1.73755 3.3387,-2.61326 5.7958,-1.29827 1.6073,0.8602 3.2741,0.86279 6.6594,0.0104 5.3772,-1.35401 6.6548,-0.59036 3.4114,2.03912 -2.4189,1.96108 -3.4083,2.05174 -11.0615,1.01373 z M 723.99664,265.16667 c -1.15535,-0.38642 -1.36051,-3.11285 -0.24664,-3.27759 0.4125,-0.061 3.32387,-0.2651 6.4697,-0.45353 5.68272,-0.34039 8.00665,0.7381 5.97285,2.7719 -0.97233,0.97233 -10.02734,1.68451 -12.19591,0.95922 z M 694,257.56352 c 0,-0.89446 0.5625,-1.84195 1.25,-2.10554 2.12108,-0.81321 23.75217,-1.00415 23.75105,-0.20965 -5.8e-4,0.41159 2.75434,0.47744 6.12203,0.14635 3.86252,-0.37975 5.90123,-0.24303 5.52216,0.37031 -0.87874,1.42183 -6.63509,2.14308 -22.51847,2.82146 C 695.50142,259.12568 694,259.01696 694,257.56352 Z m -159.5,-0.69843 c -3.85,-0.5359 -7.675,-1.00917 -8.5,-1.05171 -0.825,-0.0425 -4.80209,-0.69294 -8.83797,-1.44536 C 513.12615,253.61561 505.16521,253 499.47105,253 c -6.37651,0 -10.61108,-0.41756 -11.0249,-1.08713 -1.09401,-1.77014 0.87325,-2.9006 5.35319,-3.07614 7.76185,-0.30414 4.14183,-2.91711 -3.88237,-2.80233 -2.42933,0.0347 -8.77247,-0.14014 -14.09586,-0.38864 -8.83077,-0.41223 -10.07667,-0.72551 -14.21857,-3.57521 -3.4617,-2.38171 -4.83242,-4.1263 -5.7725,-7.34697 -1.19076,-4.07949 -1.64884,-17.68391 -0.76235,-22.641 0.36464,-2.039 -0.39818,-2.90692 -4.87297,-5.54439 -2.9179,-1.71984 -5.85423,-4.22806 -6.52517,-5.57383 -0.94531,-1.89611 -2.30535,-2.60212 -6.04247,-3.13669 -5.69321,-0.81438 -6.42702,-1.35147 -4.95359,-3.62563 0.87072,-1.34392 2.33426,-1.64303 6.95579,-1.4216 3.85963,0.18493 6.19663,-0.15565 6.86188,-1 1.10554,-1.40317 1.57954,-1.45756 19.00884,-2.18145 6.6,-0.27411 15.6,-0.83274 20,-1.24139 4.4,-0.40865 11.825,-0.81543 16.5,-0.90394 18.87398,-0.35737 17.43059,0.21342 18.63065,-7.36748 0.72429,-4.57537 2.9854,-11.3379 5.72307,-17.11653 1.9217,-4.05632 2.00262,-4.84109 0.77336,-7.5 -0.75511,-1.63331 -2.97092,-4.64382 -4.92402,-6.69002 -4.21076,-4.41149 -4.37859,-3.80045 5.0216,-18.28285 7.15731,-11.0269 13.81958,-17.75303 29.79711,-30.08271 15.50061,-11.961642 13.76093,-11.383747 20.07492,-6.668588 6.46088,4.824858 9.55053,7.696178 10.12014,9.405018 0.25505,0.76513 2.19796,-0.59194 4.93062,-3.4439 2.48034,-2.58863 4.97617,-4.7066 5.54627,-4.7066 0.57011,0 2.24231,0.948439 3.716,2.107643 2.28341,1.796132 2.59817,2.645986 2.12966,5.749997 -1.52002,10.07043 -4.29347,16.70336 -10.51287,25.14236 -2.22937,3.025 -4.83485,6.6389 -5.78996,8.03089 -5.07296,7.39345 -16.33581,19.74611 -21.29389,23.35435 -3.10975,2.26312 -9.82818,7.93976 -14.92983,12.61476 -5.10166,4.675 -10.79158,9.58437 -12.64428,10.90971 -6.59331,4.71657 -5.89887,4.85568 25.13145,5.03453 23.85899,0.13752 33.36577,0.70665 49,2.93341 3.85,0.54835 13.975,1.71693 22.5,2.59684 17.64865,1.82161 21.41845,2.65637 28.7082,6.35691 6.31733,3.2069 8.67465,6.68426 5.90448,8.70987 -2.26225,1.65419 -10.29159,3.43498 -15.9119,3.52902 -6.27833,0.10504 -7.4421,0.91202 -10.73827,7.44614 -3.50108,6.94031 -4.62969,8.8651 -7.73061,13.18411 -1.29613,1.80526 -1.85236,3.416 -1.29795,3.75864 0.53358,0.32977 8.75423,0.38133 18.2681,0.11457 17.33596,-0.48608 30.53747,0.76357 37.43373,3.54347 1.57532,0.63502 9.38922,1.312 17.36422,1.50441 7.975,0.19241 20.575,0.69375 28,1.1141 12.86083,0.72809 13.51478,0.8681 13.81209,2.95731 0.40629,2.85503 -3.37518,3.6203 -14.58039,2.95069 -4.52743,-0.27056 -8.2317,-0.11358 -8.2317,0.34884 0,0.46242 0.5625,1.04166 1.25,1.28719 4.09913,1.46398 -3.66123,2.09817 -18.75,1.5323 -2.9241,-0.10966 -15.77979,1.24282 -16.5935,1.74573 -1.82863,1.13015 -11.43277,1.17883 -14.1565,0.0717 -2.93839,-1.19433 -3.53392,-2.42957 -1.5,-3.11126 1.02265,-0.34274 13.43524,-1.33298 18.55902,-1.48057 0.71996,-0.0207 1.02546,-0.49652 0.67888,-1.05728 -0.91134,-1.47459 -26.81968,-0.42558 -29.7126,1.20304 -1.66543,0.93759 -7.42852,1.2311 -21.50104,1.09505 -17.43137,-0.16853 -19.34467,-0.0194 -20.5,1.59772 -3.63672,5.09035 -10.53625,6.29592 -9.36686,1.63668 0.71175,-2.83584 -0.18036,-3.7048 -2.51872,-2.45335 -1.01659,0.54407 -5.79492,1.23232 -10.61851,1.52946 -4.8236,0.29713 -13.04517,1.23076 -18.27017,2.07472 -5.225,0.84396 -14.225,1.73105 -20,1.97131 -5.775,0.24026 -12.975,0.60954 -16,0.82062 -3.025,0.21108 -8.65,-0.0547 -12.5,-0.59059 z M 543,253 c 0,-0.55 -0.45,-1 -1,-1 -0.55,0 -1,0.45 -1,1 0,0.55 0.45,1 1,1 0.55,0 1,-0.45 1,-1 z m 18.15719,-8.04718 c 10.63855,-0.0306 24.29281,-0.47226 30.34281,-0.98144 9.54394,-0.80323 31.55652,-2.80246 32.2365,-2.92779 0.13007,-0.024 1.86955,-3.48492 3.86551,-7.691 1.99595,-4.20607 4.92703,-9.69418 6.5135,-12.19578 1.58647,-2.5016 2.88449,-5.14345 2.88449,-5.87077 0,-1.0713 -6.12354,-1.30299 -32.25,-1.22023 -42.28393,0.13394 -62.99503,-0.78968 -68.25,-3.04363 -3.13553,-1.34489 -7.44243,-1.75989 -19.92855,-1.92026 -8.7607,-0.11252 -16.36837,-0.47641 -16.90594,-0.80865 -0.53757,-0.33223 -5.29472,-0.76359 -10.57146,-0.95857 -5.27673,-0.19499 -14.02923,-0.80006 -19.45,-1.34461 C 464.22327,205.44554 459.35311,205 458.82147,205 c -0.53165,0 0.012,1.2375 1.20815,2.75 1.99401,2.52142 2.11909,3.46955 1.50479,11.40695 -0.57961,7.48906 -0.40387,9.17541 1.30263,12.5 2.85969,5.57123 6.39765,7.22282 16.79188,7.83875 11.71486,0.69418 20.60612,1.53153 21.38702,2.01415 1.01481,0.62719 16.71541,2.42213 26.44401,3.02317 4.92797,0.30445 9.18942,0.78302 9.46989,1.06348 0.28046,0.28047 1.49422,0.2629 2.69724,-0.039 1.20302,-0.30194 10.89157,-0.57403 21.53011,-0.60464 z m 11.81439,-10.28851 C 572.16509,233.81804 558.19432,233.13827 529,232.5248 502.11223,231.95979 486.28073,230.29417 480.66896,227.43992 479.11189,226.64796 477.2594,226 476.55231,226 473.88348,226 465,221.67671 465,220.37788 c 0,-2.11224 5.11233,-1.30339 8.32673,1.3174 1.55469,1.2676 3.80469,2.30509 5,2.30554 1.1953,4.5e-4 5.54827,0.70771 9.67327,1.5717 4.125,0.86398 8.91782,1.75514 10.6507,1.98034 3.11459,0.40477 42.06019,1.44185 51.97722,1.3841 2.82036,-0.0164 10.02036,0.49214 16,1.13014 11.97493,1.27766 13.4092,1.31549 34.37208,0.90654 11.57135,-0.22573 14.5,-0.0131 14.5,1.05296 0,0.93292 -1.65886,1.38457 -5.5,1.49744 -3.025,0.0889 -12.475,0.50657 -21,0.92818 -8.525,0.42161 -15.73779,0.51705 -16.02842,0.21209 z m 58.40452,-28.02593 c 9.4214,-0.53159 11.60904,-0.98657 10.42699,-2.16862 -1.42548,-1.42549 -22.82611,-2.25024 -26.64501,-1.02686 -1.91166,0.61239 -2.2791,0.42419 -2,-1.02442 0.66719,-3.46289 6.07142,-3.78354 23.05075,-1.36767 8.03215,1.14284 11.45668,2.56211 12.09783,5.01385 0.41529,1.58809 1.28085,1.75711 6.7708,1.32214 6.61851,-0.52439 7.92254,-0.92274 7.92254,-2.42014 0,-0.95247 -5.3882,-4.11121 -8,-4.68985 -3.62935,-0.80409 -21.07594,-3.15947 -27,-3.64514 -13.31479,-1.09158 -26.5956,-2.75325 -29.59087,-3.70235 -1.69998,-0.53866 -7.99998,-0.98611 -14,-0.99432 -6.00002,-0.008 -12.25913,-0.15002 -13.90913,-0.31513 -1.65,-0.16512 -4.125,0.0113 -5.5,0.39195 -2.27224,0.6291 -2.13558,0.75829 1.5,1.41808 2.2,0.39926 4.675,0.96373 5.5,1.25439 0.825,0.29065 7.8,0.62377 15.5,0.74026 14.2985,0.21632 21.37327,1.63323 22.30398,4.46698 0.34985,1.06516 -0.21854,1.23763 -2.42347,0.73536 -5.36564,-1.22226 -8.85504,-1.48158 -19.88051,-1.47746 -25.03927,0.009 -34.33551,-0.10878 -40.5,-0.51473 -11.19604,-0.73729 -69.97189,-0.77011 -71.15366,-0.0397 -0.61883,0.38246 -6.34991,0.64372 -12.73574,0.58059 -6.9991,-0.0692 -11.01483,0.23028 -10.1106,0.754 1.93281,1.11948 36.5349,3.42857 68.5,4.5712 48.36675,1.72892 70.21933,2.57637 71.43699,2.77033 2.39415,0.38138 27.90972,-0.0386 38.43911,-0.63271 z M 487,194 c 0,-0.55 -1.37656,-1 -3.05902,-1 -1.7847,0 -2.80156,0.41658 -2.44098,1 0.33992,0.55 1.71648,1 3.05902,1 1.34254,0 2.44098,-0.45 2.44098,-1 z m 22.75,-0.90832 c 2.3375,-0.0504 4.25,-0.49302 4.25,-0.98355 0,-0.49053 -2.8125,-0.75256 -6.25,-0.58229 -3.4375,0.17027 -8.41406,0.34661 -11.05902,0.39187 -2.64496,0.0453 -4.561,0.48359 -4.25787,0.97407 0.30314,0.49047 3.36719,0.75673 6.80902,0.59168 3.44183,-0.16506 8.17037,-0.34136 10.50787,-0.39178 z m 50.33622,-1.03839 C 558.19074,190.88181 538,190.8638 538,192.03359 c 0,0.54583 4.44321,0.87746 10.49331,0.7832 5.77132,-0.0899 10.79632,0.13951 11.16667,0.50986 0.37034,0.37034 0.92282,0.42388 1.22773,0.11898 0.3049,-0.30491 -0.0558,-0.93146 -0.80149,-1.39234 z m -25.811,-13.82371 c 3.42363,-3.17374 7.79978,-6.86396 9.72478,-8.20049 4.82216,-3.34804 23.98624,-19.74467 26.79752,-22.92773 1.26363,-1.43075 2.94714,-3.95136 3.74112,-5.60136 1.82997,-3.8029 5.4961,-9.95083 12.46136,-20.89709 8.27164,-12.9993 10.88358,-18.41104 7.55115,-15.64536 -0.79686,0.66134 -1.94363,2.70164 -2.54837,4.53401 -0.60473,1.83237 -1.75408,3.58276 -2.5541,3.88976 -0.80003,0.307 -3.88394,4.28429 -6.85315,8.83843 -2.96921,4.55414 -6.79288,9.77052 -8.49705,11.59197 -1.70416,1.82144 -3.09848,3.54571 -3.09848,3.8317 0,2.23075 -9.11651,10.65126 -17.42855,16.09797 -5.5393,3.62978 -11.3736,7.67323 -12.96512,8.98544 -4.35354,3.58949 -5.65065,1.38763 -2.15451,-3.6573 2.77436,-4.00341 8.56679,-9.06953 10.36979,-9.06953 1.0061,0 21.57123,-22.45968 29.51666,-32.23587 2.56395,-3.15473 4.64344,-6.52973 4.62109,-7.5 -0.0223,-0.97027 -1.35535,-3.30176 -2.96221,-5.18108 l -2.92156,-3.41696 -3.6377,3.91696 c -2.00073,2.15432 -8.27766,9.09195 -13.94873,15.41695 -5.67107,6.325 -13.13619,13.975 -16.58916,17 -12.55307,10.9972 -11.48469,9.27298 -9.78291,15.78833 1.39098,5.32544 1.36042,6.04977 -0.45197,10.71167 -3.59076,9.23632 -6.51853,19.5 -5.56248,19.5 0.5213,0 3.74896,-2.59669 7.17258,-5.77042 z M 535.57,137.68753 c 2.1615,-1.82185 4.8481,-3.95935 5.97023,-4.75 1.12212,-0.79064 4.8737,-4.58753 8.33685,-8.43753 3.46314,-3.85 9.74504,-10.76771 13.95977,-15.37269 8.64759,-9.448284 9.72783,-10.985441 8.51677,-12.119206 -1.62388,-1.520249 -5.19116,0.884298 -10.14759,6.840046 -2.73724,3.28913 -8.02202,8.56357 -11.74396,11.721 -9.96113,8.45028 -12.55149,11.52647 -11.94124,14.18085 0.2845,1.2375 0.0587,2.25 -0.50178,2.25 -3.08845,0 -6.01905,1.66162 -6.01905,3.41274 0,0.7383 -0.675,1.90257 -1.5,2.58726 -0.825,0.68469 -1.5,1.63979 -1.5,2.12244 0,1.79912 2.76039,0.77609 6.57,-2.43491 z M 261,255 c 0,-0.55 0.675,-1 1.5,-1 0.825,0 1.5,0.45 1.5,1 0,0.55 -0.675,1 -1.5,1 -0.825,0 -1.5,-0.45 -1.5,-1 z m -17.5,-1.90146 c -2.75,-0.93296 -6.78087,-2.47784 -8.95748,-3.43308 -2.17662,-0.95523 -6.67662,-2.35067 -10,-3.10096 C 210.3583,243.36224 203,240.60513 203,238.49263 c 0,-3.39519 2.9896,-8.43589 5.89406,-9.93785 3.93072,-2.03265 15.66228,-4.26609 26.81978,-5.10591 10.10726,-0.76077 12.58201,-1.99999 21.45277,-10.74236 7.38611,-7.27921 10.8692,-8.07284 18.72649,-4.26687 3.08379,1.49376 7.22107,3.8163 9.19394,5.16121 1.97287,1.34491 5.03461,2.86045 6.80387,3.36786 2.79098,0.80044 3.49835,0.59881 5.3433,-1.52306 2.57522,-2.96177 6.30467,-3.17578 7.76579,-0.44565 0.62592,1.16955 2.09382,2 3.53518,2 2.38667,0 2.46482,0.22352 2.46482,7.04966 0,10.57855 -3.64817,15.81455 -9.01684,12.94133 -2.51155,-1.34414 -6.91328,-1.02962 -8.98316,0.64188 -2.32697,1.87912 -6.68488,2.68602 -7.48804,1.38647 -0.97834,-1.58297 -4.62399,-2.85043 -10.24834,-3.56297 -2.61999,-0.33193 -6.33862,-0.98025 -8.26362,-1.44072 -1.925,-0.46046 -6.14146,-1.14148 -9.36991,-1.51337 -3.22846,-0.37189 -7.87826,-1.53703 -10.33291,-2.58922 -7.81851,-3.3514 -32.68028,-1.53966 -37.4387,2.72826 -4.94723,4.43726 2.71323,7.96196 22.89152,10.53276 0.6875,0.0876 1.25,0.4244 1.25,0.74848 0,0.32407 1.4625,1.18679 3.25,1.91716 1.7875,0.73037 4.15,1.74317 5.25,2.25065 1.1,0.50749 4.17673,1.319 6.83718,1.80335 5.21197,0.94888 7.28564,2.28953 6.21667,4.01915 -0.94666,1.53173 -6.18085,1.17812 -12.05385,-0.81433 z m 52.06086,-22.19701 c 0.77004,-1.24595 5.14303,-1.13037 7.63206,0.20172 2.60551,1.39442 3.93902,-0.32619 3.5676,-4.60325 -0.25532,-2.94008 -0.40033,-3.01525 -7.26052,-3.76327 -7.0813,-0.77213 -14.54154,-2.8328 -19.36284,-5.34842 -1.45044,-0.75679 -3.19966,-1.37876 -3.88716,-1.38215 -0.6875,-0.003 -1.25,-0.8796 -1.25,-1.94714 0,-2.78013 -1.02738,-3.09225 -7.04656,-2.14074 -4.29407,0.6788 -5.92154,1.51301 -8.22121,4.21403 -1.577,1.85223 -4.23537,4.78841 -5.9075,6.52484 -3.02212,3.13834 -3.0275,3.16396 -0.90298,4.30097 1.17549,0.62911 8.08648,1.77525 15.35775,2.547 7.27128,0.77174 15.0205,2.03388 17.2205,2.80475 3.98574,1.39659 8.73849,0.73129 10.06086,-1.40834 z m 58.74943,17.12633 c 0.33293,-2.81101 0.16822,-5.23213 -0.37894,-5.57029 -1.20345,-0.74377 -6.66237,2.56276 -9.87272,5.98002 -5.60904,5.97055 -6.85538,1.35012 -1.46677,-5.43759 4.62255,-5.82275 5.73351,-6.3734 9.85313,-4.88373 2.72098,0.98392 4.59178,0.97529 9.23368,-0.0426 6.85176,-1.50246 17.09302,-4.69081 19.55776,-6.08878 C 382.19147,231.4432 383.47346,231 384.0853,231 c 0.61184,0 2.53045,-0.61388 4.26357,-1.36418 1.73312,-0.7503 5.05137,-2.16311 7.37388,-3.13959 2.32251,-0.97647 4.01322,-2.11443 3.75713,-2.52879 -0.25609,-0.41436 -4.18133,-0.65203 -8.72275,-0.52814 -4.54142,0.12389 -11.01913,0.30073 -14.39492,0.39298 -5.23393,0.14302 -6.88974,0.68497 -11.24407,3.68022 -5.27531,3.62878 -7.16492,3.85016 -16.34184,1.91461 -2.19052,-0.46201 -3.44403,0.12511 -6.4034,2.99921 -2.02384,1.96552 -4.65723,3.57368 -5.85199,3.57368 -2.09548,0 -7.82277,4.90523 -5.94522,5.09189 0.50837,0.0505 2.15655,0.16304 3.66263,0.25 3.94572,0.22782 3.64355,1.82495 -0.83539,4.4155 -12.42335,7.18546 -12.04303,-5.50377 0.44761,-14.9343 4.82147,-3.64025 6.20182,-4.1624 12.04742,-4.55729 3.63112,-0.2453 7.70251,-0.0255 9.04754,0.48849 2.06194,0.78793 2.81838,0.49134 4.823,-1.89101 1.30763,-1.55403 4.03215,-3.25913 6.0545,-3.78911 3.46928,-0.90916 22.34306,-2.51662 26.677,-2.27205 1.1,0.0621 4.42882,0.16835 7.39739,0.23616 2.96856,0.0678 6.56856,0.60283 8,1.18893 1.43143,0.58611 6.21908,1.16354 10.63921,1.28319 8.9987,0.24358 14.4634,2.30819 14.4634,5.46439 0,3.79908 -9.46955,8.88254 -19.5,10.46801 -3.10554,0.49088 -6.65304,2.11924 -10.78408,4.95009 -3.04131,2.0841 -3.89292,2.30943 -4.33861,1.14798 -0.30499,-0.7948 -0.2667,-1.91082 0.0851,-2.48005 1.55173,-2.51075 9.64546,-7.0087 16.05595,-8.92281 7.40627,-2.21143 11.86548,-4.70793 10.977,-6.14551 -0.29595,-0.47886 -4.31708,-0.63021 -8.93585,-0.33634 -7.18063,0.45689 -9.51755,1.10027 -16.12385,4.43908 -4.24935,2.14762 -8.34065,3.90476 -9.09177,3.90476 -1.22672,0 -4.71952,1.38624 -13.84389,5.49441 -1.65,0.7429 -6.06922,1.92443 -9.8205,2.62563 -4.66758,0.87248 -7.1285,1.8504 -7.79624,3.0981 -0.53666,1.00276 -0.78277,2.15139 -0.54692,2.55253 0.98057,1.6677 -1.36468,5.22933 -3.44341,5.22933 -2.01648,0 -2.12947,-0.35497 -1.58264,-4.97214 z M 27.747967,247.86028 C 23.452298,246.25519 22.905914,239.80829 26.14953,229 28.450818,221.33171 34,218.22552 34,224.60566 c 0,1.98311 0.698724,6.30211 1.552719,9.59779 0.853996,3.29568 1.416496,7.86063 1.25,10.14434 -0.279111,3.82839 -0.536683,4.16736 -3.302719,4.3465 -1.65,0.10686 -4.238415,-0.26844 -5.752033,-0.83401 z M 78,245.13877 c -1.375,-0.44373 -7.534794,-0.75124 -13.688431,-0.68334 -9.968859,0.10999 -11.239439,-0.0716 -11.656381,-1.66599 C 52.360244,241.66157 52.737999,241 53.676953,241 c 3.015815,0 0.556865,-2.47019 -2.723786,-2.73624 -3.30473,-0.268 -6.91058,-2.63968 -5.761041,-3.78922 1.039686,-1.03969 8.271087,-1.17826 10.21879,-0.19582 1.541736,0.77767 11.549724,1.95782 16.089084,1.89725 10.897115,-0.14542 34.40755,-2.79525 39.5,-4.452 1.925,-0.62627 3.725,-1.19673 4,-1.26769 0.275,-0.071 1.19165,-0.43901 2.037,-0.8179 0.84535,-0.37889 3.77035,-1.24771 6.5,-1.93073 4.59963,-1.15092 4.94112,-1.44704 4.66421,-4.04453 -0.2014,-1.88917 1.9999,-7.42465 6.7536,-16.98291 8.06365,-16.21353 11.19872,-20.90692 18.36181,-27.48872 9.07755,-8.3409 9.71401,-9.09465 10.34546,-12.25187 0.34226,-1.71133 1.29101,-3.36812 2.10832,-3.68176 1.67991,-0.64464 10.81832,1.48095 13.4796,3.13534 2.73731,1.70166 2.13697,4.57594 -1.19863,5.73874 -4.415,1.53907 -20.8094,24.14353 -29.89681,41.22146 l -3.11468,5.85341 2.73006,-0.67258 c 4.74202,-1.16825 9.29601,-6.60532 14.26754,-17.03423 4.63819,-9.72965 10.92788,-17.6048 16.60837,-20.79491 3.9631,-2.22563 13.82385,-9.07348 17.13895,-11.90221 5.00241,-4.2685 8.2152,-3.43788 8.2152,2.12392 0,2.95433 3.3342,5.25739 6.10316,4.21568 3.74882,-1.41033 8.10478,1.22587 7.70775,4.6647 -0.22417,1.94156 -0.95992,2.78476 -2.63725,3.02237 -1.8594,0.26341 -2.26083,-0.0787 -2,-1.70455 0.17949,-1.11876 -0.12366,-2.06032 -0.67366,-2.09236 -0.55,-0.032 -1.05343,0.89695 -1.11873,2.06441 -0.15233,2.72319 -2.00316,3.84703 -6.38127,3.87476 -10.68556,0.0677 -13.46911,3.81362 -5.60638,7.54473 3.74664,1.7779 6.2523,4.17087 5.33147,5.09171 -0.30795,0.30795 -2.50958,0.80818 -4.8925,1.11161 -6.82364,0.86892 -7.60928,1.62134 -8.38095,8.02658 -0.38124,3.16446 -1.30159,7.24175 -2.04522,9.06064 -1.05711,2.58564 -1.09314,3.7217 -0.16515,5.20765 0.98566,1.57829 0.81148,2.30021 -1.02717,4.25737 -3.05774,3.25482 -2.76915,4.06629 0.79134,2.22508 1.653,-0.85479 4.06679,-3.23545 5.364,-5.29036 1.2972,-2.0549 3.09475,-4.34717 3.99455,-5.09394 C 199.2638,216.3661 200,215.36895 200,214.89697 c 0,-1.46592 7.09817,-12.22433 10.37984,-15.73229 3.92784,-4.19869 7.64405,-6.16468 11.65281,-6.16468 2.40999,0 4.25953,1.12164 8.02337,4.86575 5.33387,5.3059 6.3178,7.22653 7.36896,14.38425 0.67075,4.56741 0.60309,4.75 -1.76011,4.75 -3.52837,0 -9.00583,-6.43605 -8.35867,-9.82147 C 227.91734,203.9816 223.71154,197 221.17455,197 c -2.65017,0 -7.43076,5.71681 -15.67455,18.74423 -0.55,0.86915 -1.675,2.33624 -2.5,3.26021 -0.825,0.92397 -3.1654,3.72272 -5.20089,6.21945 -3.34086,4.09791 -4.33799,4.66615 -10.25,5.84127 -3.60201,0.71597 -6.54911,1.59797 -6.54911,1.96001 0,0.36204 1.8,1.19755 4,1.85668 3.0003,0.89892 4,1.71821 4,3.27818 0,1.98724 -0.34474,2.04883 -7.75,1.38449 -19.32001,-1.73322 -27.26928,-1.38137 -29.98014,1.32696 -1.33059,1.32934 -4.03112,1.64306 -14.69995,1.70764 -13.29602,0.0805 -32.63466,1.09372 -38.06991,1.99464 -6.130547,1.01617 -18.081329,1.34555 -20.5,0.56501 z m 4,-5.2554 c 0,-1.03094 -1.197166,-1.12868 -3.412469,-0.27859 -0.866824,0.33264 -1.35318,0.96539 -1.080792,1.40612 C 78.136994,242.03068 82,241.0613 82,239.88337 Z m 19.17934,-0.49421 c 0.62224,-0.38456 0.64217,-0.96765 0.0532,-1.55662 -1.10409,-1.10409 -14.191041,0.86664 -15.73254,2.36912 -1.087469,1.05995 13.906874,0.28295 15.67934,-0.8125 z m 12.07672,-0.54705 c 2.33417,-0.0178 6.26894,-0.94185 8.74394,-2.05344 3.61817,-1.62503 7.14548,-2.09143 18,-2.38003 7.425,-0.19742 17.22018,-0.53821 21.76707,-0.75732 l 8.26707,-0.39837 2.84024,-3.87648 c 1.56213,-2.13206 4.25445,-5.11744 5.98293,-6.63418 2.01736,-1.77024 3.17009,-3.73967 3.2192,-5.5 0.0421,-1.50826 0.22424,-3.41729 0.4048,-4.24229 1.24651,-5.6955 1.32425,-7.52936 0.36801,-8.68156 -0.80217,-0.96655 -0.60226,-2.02828 0.76508,-4.06343 3.22255,-4.79647 4.3856,-7.41378 4.3856,-9.86932 0,-2.73903 -0.71438,-2.9163 -3.44113,-0.85389 -1.06762,0.80751 -2.67668,1.4682 -3.57569,1.4682 -1.91927,0 -4.76712,3.09577 -7.35934,8 -1.0175,1.925 -3.93661,5.59349 -6.48692,8.15219 -2.5503,2.55871 -6.51588,6.65589 -8.8124,9.10485 -4.16013,4.43629 -12.48051,9.21751 -14.67187,8.43105 -0.63396,-0.22752 -2.35193,0.19137 -3.81772,0.93088 -3.6882,1.86073 -26.08135,9.15495 -30.61754,9.97317 -5.10633,0.92107 -5.81497,1.49773 -3.72156,3.02847 0.98935,0.72343 2.18525,1.0765 2.65755,0.78459 0.47231,-0.2919 2.76852,-0.54529 5.10268,-0.56309 z m 24.37937,-16.39422 C 139.61575,221.20164 145,212.78238 145,210.93204 c 0,-0.83196 9.646,-16.99034 13.39115,-22.43204 1.13559,-1.65 3.39947,-4.46153 5.03085,-6.24784 2.88715,-3.16134 2.91437,-3.28595 1.02208,-4.6784 -2.0337,-1.4965 -2.43907,-1.28033 -8.36209,4.45923 C 153.39282,184.63887 142,200.43655 142,201.55957 c 0,0.31904 -1.32409,2.50458 -2.94242,4.85674 -1.61833,2.35216 -3.26071,5.58324 -3.64973,7.18017 -0.6894,2.82994 -0.65719,2.85917 1.27115,1.15352 5.13102,-4.53848 4.33722,-0.31328 -1.04187,5.54566 -4.35007,4.73813 -3.52419,5.62762 1.9983,2.15223 z m 34.38659,-28.14367 c 4.98319,-7.85767 3.34639,-8.60358 -1.88145,-0.8574 -2.52659,3.74369 -2.99968,5.55318 -1.45188,5.55318 0.19545,0 1.69545,-2.1131 3.33333,-4.69578 z m 17.35466,-11.8965 C 196.67645,181.95512 204,180.83678 204,180.17467 c 0,-0.31088 -1.15038,-1.76598 -2.55641,-3.23355 -2.48416,-2.5929 -2.67273,-2.62824 -6.67188,-1.25042 -2.26351,0.77984 -5.27563,2.22023 -6.69359,3.20087 -1.41797,0.98064 -3.36562,2.06708 -4.32812,2.41432 -0.9625,0.34724 -1.75,1.12202 -1.75,1.72174 0,0.59972 0.50701,0.77706 1.12668,0.39408 0.61968,-0.38299 3.43218,-0.83928 6.25,-1.01399 z m -15.81241,-14.30373 c -0.96383,-1.5595 -4.09808,-1.37064 -5.51122,0.33209 -0.91416,1.1015 -0.91889,1.94608 -0.0203,3.62512 l 1.17155,2.18905 2.52113,-2.52114 c 1.38663,-1.38662 2.2141,-3.01793 1.83884,-3.62512 z M 432,241 c 0,-0.55 0.45,-1 1,-1 0.55,0 1,0.45 1,1 0,0.55 -0.45,1 -1,1 -0.55,0 -1,-0.45 -1,-1 z M 67,226.58333 C 67,225.7125 67.7125,225 68.583333,225 c 1.765927,0 1.45839,2.15276 -0.395833,2.77083 C 67.534375,227.98854 67,227.45417 67,226.58333 Z m 23.049348,-0.0239 c -0.944599,-1.13817 -0.750149,-2.44742 0.926402,-6.23754 1.167068,-2.63835 2.969986,-5.70261 4.006484,-6.80946 C 96.018732,212.40561 97.345676,210.375 97.931,209 c 0.585323,-1.375 1.627799,-3.38836 2.31661,-4.47413 0.68882,-1.08577 2.93989,-4.60509 5.00239,-7.82071 2.0625,-3.21562 3.75,-6.23262 3.75,-6.70445 0,-0.47182 0.64427,-1.50213 1.43172,-2.28957 C 113.07369,185.06916 132,159.71394 132,158.81651 c 0,-1.51568 -3.7166,1.01438 -6.16573,4.19731 -1.28385,1.66851 -4.02177,5.07534 -6.08427,7.57073 -2.0625,2.4954 -3.75,4.91714 -3.75,5.38166 0,0.46451 -1.4625,2.63508 -3.25,4.82348 -1.7875,2.18841 -4.05052,5.26849 -5.02893,6.84462 -0.9784,1.57613 -4.24462,6.69069 -7.25825,11.36569 -3.013628,4.675 -6.893085,11.33475 -8.621014,14.79945 -2.176809,4.36476 -3.581439,6.1307 -4.573535,5.75 C 86.480756,219.24725 85.640649,219 85.401367,219 c -1.540815,0 15.911063,-29.94992 21.559973,-37 1.98311,-2.475 6.90377,-9.1238 10.9348,-14.7751 4.03104,-5.65131 8.14888,-10.71381 9.15077,-11.25 2.36473,-1.26557 7.95309,-1.26132 7.95309,0.006 0,0.53952 1.125,1.2633 2.5,1.60841 3.26649,0.81983 3.27804,3.41064 0.0152,3.41064 -2.60136,0 -2.83093,0.26032 -15.87399,18 -9.13166,12.41984 -23.658579,36.72224 -27.04848,45.25 -1.604679,4.03679 -2.663254,4.57488 -4.543382,2.30946 z M 108.7323,223.0843 c -0.27552,-1.05362 -0.17739,-2.29112 0.21809,-2.75 0.39547,-0.45888 1.53408,-3.08433 2.53024,-5.83433 1.98638,-5.48364 6.98573,-15.09082 9.14756,-17.57874 0.75449,-0.86831 1.37181,-1.91451 1.37181,-2.32489 0,-0.71384 6.22282,-10.20212 11.54045,-17.59637 7.9147,-11.00551 18.1715,-18.47572 22.88448,-16.66718 2.88308,1.10634 1.82772,3.66718 -1.51131,3.66718 -2.44275,0 -4.21532,1.17496 -8.5,5.63426 -2.97749,3.09885 -5.41362,5.9454 -5.41362,6.32569 0,0.38028 -1.16177,1.78236 -2.58172,3.11574 -4.03979,3.79349 -11.82215,15.73809 -17.97751,27.59242 -3.09345,5.95754 -6.0525,11.35135 -6.57567,11.98624 -0.52317,0.63489 -0.65806,2.32239 -0.29975,3.75 0.57075,2.27404 0.34273,2.59565 -1.84031,2.59565 -1.61421,0 -2.66821,-0.67467 -2.99274,-1.91567 z m 854.93437,0.249 C 962.32149,221.98816 963.05294,220 964.89301,220 c 1.56791,0 3.10699,1.77427 3.10699,3.58179 0,0.68233 -3.6095,0.47538 -4.33333,-0.24846 z M 46.835144,219.32707 c -2.125779,-0.563 -2.76195,-2.25913 -2.11557,-5.64045 0.614435,-3.21421 1.837038,-3.49014 2.596487,-0.586 0.302127,1.15533 0.987366,1.82989 1.522751,1.499 0.535385,-0.33089 0.716334,-1.58474 0.402108,-2.78634 l -0.57132,-2.18473 3.4152,2.36188 c 1.87836,1.29904 3.571923,2.47684 3.763474,2.61734 0.19155,0.14049 -0.48345,1.39708 -1.5,2.79241 -1.753141,2.40639 -3.759606,2.92099 -7.51313,1.92689 z M 35.006589,217.32332 C 35.010213,216.8705 35.928907,215.15 37.04813,213.5 l 2.034952,-3 -0.291541,3.49181 c -0.199181,2.38561 -0.84594,3.59683 -2.041541,3.82332 -0.9625,0.18234 -1.747035,-0.039 -1.743411,-0.49181 z M 964.75,217.32111 c -1.96769,-0.52594 -2.12805,-1.17518 -0.8063,-3.26425 0.7481,-1.1824 1.3919,-1.22498 3.56324,-0.23565 4.26045,1.94119 2.02565,4.77825 -2.75694,3.4999 z M 79.785751,214.22642 c -0.814848,-0.94953 -1.792034,-2.27353 -2.171525,-2.94222 -0.988315,-1.74148 2.16155,-11.86497 4.987325,-16.02898 C 83.920698,193.31135 85,191.08401 85,190.30558 c 0,-0.77842 1.720583,-3.97813 3.823518,-7.11045 2.102935,-3.13232 5.255793,-8.2299 7.00635,-11.32796 1.750558,-3.09805 3.880973,-6.21223 4.734262,-6.92039 0.85328,-0.70816 2.163,-2.67339 2.91048,-4.36717 0.74749,-1.69379 3.35095,-5.19343 5.78548,-7.77698 4.73697,-5.02694 6.97395,-5.41148 10.27311,-1.76595 2.1903,2.42026 1.0793,4.36149 -1.65781,2.89663 -3.02855,-1.62083 -1.85271,-3.08497 -22.45748,27.96358 -4.17338,6.28871 -3.859718,5.72432 -8.911352,16.03451 -3.874767,7.90824 -4.519669,10.03152 -3.993249,13.14737 0.715636,4.23582 -0.545147,5.69078 -2.727558,3.14765 z M 976.25,209.33772 c -1.53731,-0.62032 -1.63408,-3.55364 -0.16567,-5.02205 2.43207,-2.43207 7.24729,1.7207 5.4212,4.67538 -0.64979,1.05139 -3.10732,1.21349 -5.25553,0.34667 z M 45.2,206.8 C 44.54,206.14 44,205.0008 44,204.26845 44,201.02455 48.545443,189.90782 52.491864,183.5 57.874561,174.7601 68,155.04224 68,153.30011 c 0,-3.13223 -2.262069,-0.65658 -7.441665,8.14431 C 57.501251,166.63884 55,171.27928 55,171.7565 c 0,1.69686 -8.520735,16.61162 -9.708426,16.9937 -1.969137,0.63347 -0.892317,-5.75825 2.054494,-12.19494 C 48.805731,173.36694 50,170.55627 50,170.30933 c 0,-0.24694 1.251258,-2.33006 2.780574,-4.62915 1.529316,-2.2991 3.441816,-5.52718 4.25,-7.17352 2.469559,-5.03068 11.579949,-18.77215 15.253076,-23.00666 1.908338,-2.2 5.103508,-7.15 7.100376,-11 7.406929,-14.2807 8.119693,-15.2842 11.188693,-15.75256 1.116472,-0.17039 4.931848,-3.36067 8.478615,-7.08951 4.719016,-4.961274 7.320376,-6.913602 9.698666,-7.278869 1.7875,-0.274531 3.25,-0.06403 3.25,0.467778 0,0.531808 -2.23037,2.834294 -4.95637,5.116635 -6.77881,5.675536 -11.304685,12.143536 -14.713337,21.027056 -1.869073,4.87112 -3.486947,7.60854 -4.626514,7.828 -1.526385,0.29396 -1.670921,-0.22064 -1.120823,-3.99053 0.588353,-4.03205 0.527985,-4.18875 -0.882831,-2.29156 -0.832903,1.12004 -1.629467,2.69504 -1.770144,3.5 C 83.50219,128.48428 85.138586,133 86.45342,133 87.658679,133 91,136.09944 91,137.21745 c 0,0.30798 -1.494829,0.8404 -3.321843,1.18315 -4.400649,0.82557 -10.706941,7.70509 -15.006572,16.37065 -1.836251,3.70081 -4.893551,9.42875 -6.794001,12.72875 -1.900451,3.3 -4.074476,7.575 -4.831169,9.5 -0.756692,1.925 -1.958465,4.19029 -2.670607,5.03399 -2.651514,3.14131 -6.472054,13.38055 -6.821906,18.28305 -0.242913,3.40393 -0.948886,5.49861 -2.148959,6.37613 -2.20154,1.6098 -2.689572,1.6222 -4.204943,0.10683 z M 66,205.77121 c 0,-1.22583 1.122465,-5.16333 2.494368,-8.75 2.73348,-7.14634 15.695433,-33.34005 17.68404,-35.73618 1.389205,-1.67389 2.319817,-3.19305 5.527742,-9.02364 C 93.820318,148.41877 99.246803,143 100.98074,143 c 0.455,0 0.84482,-2.26472 0.86626,-5.03271 0.0785,-10.12679 4.45513,-18.88167 17.3889,-34.78377 3.72025,-4.574062 6.7641,-8.523118 6.7641,-8.775679 0,-0.252561 -1.4625,0.295492 -3.25,1.217895 -4.51784,2.331341 -14.24574,12.605384 -19.30981,20.393894 -3.842213,5.90932 -4.917894,8.61153 -6.858961,17.23037 -0.347618,1.54351 -1.295939,2.75 -2.161554,2.75 -1.267901,0 -1.422171,-0.8449 -0.867302,-4.75 0.76488,-5.38313 7.243457,-20.0452 9.775017,-22.12244 0.91993,-0.75485 1.67261,-1.80661 1.67261,-2.33726 0,-1.73411 11.40836,-12.876161 15.21446,-14.8593 2.04296,-1.064464 5.19296,-1.880526 7,-1.813471 1.80705,0.06705 5.06887,-0.559387 7.24848,-1.392093 2.69759,-1.03059 4.71115,-1.229547 6.30621,-0.623107 1.63677,0.622299 3.24587,0.424143 5.33703,-0.657237 C 149.67611,85.599009 153,86.381207 153,89.067388 153,90.537593 152.29929,91 150.07143,91 c -1.61072,0 -3.60357,0.675 -4.42857,1.5 -0.825,0.825 -1.92705,1.5 -2.44899,1.5 -0.52194,0 -1.50918,0.675 -2.19387,1.5 -1.97804,2.383397 2.57732,1.937162 6.14289,-0.601745 2.55718,-1.820873 3.33912,-1.941239 5.85124,-0.900687 2.16077,0.895019 4.6331,0.936424 9.70274,0.162493 3.74172,-0.57121 7.47813,-1.064052 8.30313,-1.095203 4.58729,-0.17321 11.07732,-0.994608 11.9062,-1.506884 0.52558,-0.324829 1.24279,-0.125917 1.5938,0.442026 0.35101,0.567943 1.07101,0.765132 1.6,0.438198 0.52899,-0.326934 10.8467,-0.75698 22.92825,-0.955658 12.08155,-0.198679 22.44114,-0.654604 23.02131,-1.013168 0.58016,-0.358563 16.39578,-0.629503 35.14581,-0.602088 18.78477,0.02747 34.85771,-0.360508 35.79872,-0.86412 0.93926,-0.50268 4.36234,-1.179588 7.60683,-1.504239 3.2445,-0.324651 7.92408,-0.816007 10.39908,-1.091901 6.12463,-0.682728 24.4897,-1.40155 48.5,-1.898326 11,-0.227591 20.45,-0.426835 21,-0.442765 4.27719,-0.123879 36.26815,2.073557 42.20123,2.898773 C 436.79515,87.534118 442.36216,88 445.07236,88 449.37705,88 450,88.259752 450,90.05469 c 0,1.983604 -0.37027,2.03321 -10.70254,1.433837 -5.8864,-0.341468 -11.05022,-0.835725 -11.47515,-1.098347 -2.161,-1.335568 -28.6163,-1.963466 -63.32231,-1.50291 -12.24758,0.162528 -27.6448,1.30194 -26.94629,1.994057 0.34342,0.34027 5.19682,0.664274 10.78534,0.720008 5.58852,0.05573 15.33595,0.156175 21.66095,0.223202 6.325,0.06703 14.2,0.107813 17.5,0.09063 3.3,-0.01718 15.225,0.243779 26.5,0.579902 11.275,0.336124 29.5,0.758432 40.5,0.938463 11,0.18003 21.63597,0.646546 23.63548,1.036702 2.35548,0.459615 3.88319,0.308574 4.33903,-0.428991 0.43524,-0.70423 1.1463,-0.793561 1.86452,-0.234238 2.44442,1.903636 5.83453,1.934897 10.66787,0.09837 6.27364,-2.383796 7.14497,-2.375546 9.9931,0.09462 1.31709,1.14231 3.74136,2 5.65301,2 2.68032,0 3.34699,0.398368 3.34699,2 0,2.086835 -1.32758,2.446345 -7.76796,2.103525 -2.9118,-0.154995 -3.33599,0.16621 -3.89219,2.94721 -0.75594,3.77971 -2.78083,4.76515 -5.23248,2.54644 -2.32075,-2.10025 -4.33561,-1.29778 -7.64911,3.04644 -3.25928,4.27313 -2.73794,7.58369 1.46866,9.32612 1.6238,0.6726 3.38331,0.95657 3.91002,0.63105 1.63342,-1.00952 7.16306,0.57222 7.16306,2.04897 0,2.87927 -9.94477,4.52054 -14.05671,2.3199 -1.41705,-0.75838 -2.71793,-0.62043 -4.92834,0.52262 -1.65171,0.85413 -5.42815,1.78302 -8.39208,2.06419 -4.72844,0.44856 -5.76053,0.19859 -8.42026,-2.03943 l -3.03129,-2.55066 -3.49012,2.05922 c -5.9102,3.48711 -8.96312,3.97429 -11.58756,1.84915 C 444.52935,121.98855 446.03315,120 451.78005,120 c 3.46058,0 5.45556,-0.57084 6.98958,-2 2.67478,-2.49194 3.72057,-2.4992 7.16059,-0.0497 1.50643,1.07267 3.60089,1.90904 4.65437,1.85859 1.05348,-0.0504 2.36541,0.0699 2.91541,0.26733 0.55,0.19748 2.4625,-0.16548 4.25,-0.80657 2.52751,-0.9065 3.25,-1.74009 3.25,-3.74976 0,-3.99662 2.58356,-9.25228 6.14906,-12.50887 1.78086,-1.62656 3.03835,-3.13272 2.79443,-3.347024 -0.24392,-0.214304 -4.63436,-0.648992 -9.75654,-0.965973 -6.96099,-0.430775 -9.2142,-0.276004 -8.92167,0.612819 0.21526,0.654031 1.39456,1.336348 2.62068,1.516248 1.22612,0.17991 2.05184,0.85491 1.83495,1.5 -0.27547,0.8193 -4.4381,1.1729 -13.80764,1.1729 -10.60554,0 -13.35573,0.27729 -13.13838,1.32467 0.15119,0.72857 -1.16971,3.14862 -2.93533,5.3779 -3.04572,3.84553 -3.11625,4.12194 -1.3765,5.39407 1.44847,1.05916 1.58569,1.63969 0.65316,2.76333 -1.31464,1.58403 -4.61697,2.411 -13.85203,3.46881 -3.77652,0.43257 -6.91643,1.39489 -7.96161,2.44007 -1.6344,1.6344 -1.50275,1.81341 2.48581,3.38016 2.31639,0.9099 4.21161,2.26111 4.21161,3.00268 0,2.35237 -4.58189,1.46203 -8.5,-1.65169 -2.07626,-1.65 -3.88899,-3 -4.0283,-3 -0.78519,0 -8.37635,3.8056 -10.67772,5.35296 -2.68233,1.8035 -4.79398,1.55048 -4.79398,-0.57443 0,-1.42543 4.95807,-9.21339 12.20317,-19.16829 3.15816,-4.33937 5.55674,-8.1897 5.33017,-8.55629 -0.22656,-0.36659 -2.03364,-0.4772 -4.01573,-0.2458 -2.8107,0.32813 -4.52371,1.48868 -7.78383,5.27345 -2.29902,2.66899 -4.19213,5.88 -4.20691,7.13556 -0.0182,1.55057 -0.70452,2.37957 -2.13943,2.58438 -1.41624,0.20215 -3.02117,2.09738 -4.86922,5.75 -1.86673,3.68952 -3.36385,5.44846 -4.63745,5.44846 -2.51737,0 -2.497,-4.64041 0.0348,-7.93434 1.48616,-1.93352 1.63739,-2.8086 0.73506,-4.25346 -1.53283,-2.45444 0.1261,-5.00721 4.11878,-6.33801 3.55635,-1.18538 7.23057,-4.23428 7.23057,-6.00001 0,-1.68037 -12.30011,-3.07386 -12.83985,-1.45464 -0.21445,0.64336 -1.75175,2.36466 -3.41622,3.82511 -1.66447,1.46044 -4.76568,4.83694 -6.89158,7.50332 l -3.86527,4.84797 2.50646,2.97875 c 1.37855,1.63832 2.50646,3.64882 2.50646,4.46778 0,2.29592 -1.92337,5.35753 -3.36571,5.35753 -0.71243,0 -3.44525,1.08843 -6.07293,2.41873 -9.19628,4.65574 -11.05306,4.45885 -15.06064,-1.59701 -1.84232,-2.78393 -2.47991,-4.7685 -2.06417,-6.42495 0.33086,-1.31822 0.98933,-2.39677 1.46328,-2.39677 0.47394,0 2.14151,-2.5875 3.70569,-5.75 1.56419,-3.1625 4.31784,-7.59635 6.11923,-9.85299 3.64682,-4.56847 4.10278,-6.39701 1.59514,-6.39701 -3.60005,0 -15.68857,15.39963 -18.25097,23.25 -1.51827,4.65148 -3.06892,4.85611 -3.06892,0.40499 0,-2.00132 -0.75359,-4.027 -1.87599,-5.04276 -1.79257,-1.62226 -1.94183,-1.53269 -3.35653,2.01422 -1.07375,2.6921 -1.23385,4.69582 -0.58271,7.29277 C 343.23783,138.10748 343.35449,141 341.63167,141 340.73425,141 340,140.3801 340,139.62244 c 0,-1.83372 -2.64753,-3.95831 -3.93842,-3.1605 -0.63353,0.39155 -0.0765,2.1383 1.4562,4.56622 1.36522,2.16265 2.48222,4.39104 2.48222,4.95197 0,2.08798 -3.56424,0.91822 -5.357,-1.75812 -1.83442,-2.73853 -1.9882,-2.77275 -12.64632,-2.81418 C 309.04373,141.35747 306,140.04995 306,134.53596 c 0,-1.87986 0.39069,-3.65938 0.86819,-3.9545 0.47751,-0.29511 1.1571,-2.71447 1.51021,-5.37636 0.73447,-5.53665 8.34463,-17.87235 13.52888,-21.92964 3.7596,-2.94233 3.22266,-4.27777 -1.7163,-4.268627 -3.1577,0.0058 -4.04485,0.547652 -6.14022,3.749997 -1.34708,2.05874 -3.8968,5.5728 -5.66604,7.809 -1.76924,2.23621 -3.86366,6.28621 -4.65428,9 -0.93427,3.2069 -2.06174,5.05658 -3.22076,5.28384 -1.57094,0.30803 -1.72542,-0.25258 -1.29733,-4.70779 0.48089,-5.00472 5.25276,-13.53786 9.94553,-17.78476 1.01316,-0.9169 1.84212,-2.04735 1.84212,-2.512108 0,-2.092468 -1.92595,-0.391729 -5.8376,5.154988 -2.32722,3.3 -4.60601,6 -5.06397,6 -1.38589,0 -6.22326,7.99261 -7.49423,12.38243 -1.54444,5.33434 -3.98957,5.50807 -4.41777,0.31389 -0.22315,-2.707 0.43772,-5.08563 2.29216,-8.25 1.43314,-2.44547 2.99454,-4.44632 3.46976,-4.44632 0.47522,0 2.59375,-2.35586 4.70784,-5.23525 5.60527,-7.634357 5.64174,-7.713191 3.88121,-8.38877 -2.98568,-1.145713 -7.08854,1.682122 -11.06233,7.62454 -2.18629,3.26938 -4.32371,5.95673 -4.74982,5.9719 -1.09734,0.0391 -2.62434,4.41164 -3.23335,9.25873 -0.58506,4.65645 -1.10934,5.55141 -2.46054,4.20021 -2.19644,-2.19644 -1.40958,-8.27572 1.92028,-14.83609 1.84117,-3.6274 3.71443,-6.59527 4.16279,-6.59527 1.22598,0 3.06623,-3.898674 2.37113,-5.023371 -1.08917,-1.762302 -4.31519,0.869848 -7.09852,5.791761 -1.47165,2.60239 -3.73577,6.3308 -5.03138,8.28536 -1.29561,1.95456 -2.35817,4.20456 -2.36124,5 -0.0127,3.29281 -2.18303,8.94625 -3.43444,8.94625 -3.70973,0 -2.07822,-9.58777 2.97599,-17.48878 1.99736,-3.12237 3.38697,-5.92162 3.08803,-6.22055 -0.29894,-0.29894 -1.79913,1.52716 -3.33376,4.058 -1.53463,2.53085 -3.60045,4.87527 -4.59071,5.20984 -0.99025,0.33456 -3.24025,3.60827 -5,7.27489 -1.75974,3.66663 -3.63765,6.98035 -4.17314,7.36381 -2.9277,2.09657 -2.1492,-6.05599 1.04753,-10.96978 0.9759,-1.50009 4.8684,-6.43993 8.65,-10.97743 4.21928,-5.062676 6.28572,-8.25 5.34871,-8.25 -1.34291,0 -15.62952,15.72157 -17.94954,19.75242 -0.48231,0.83796 -1.47323,3.78407 -2.20205,6.54692 -1.38953,5.26745 -2.78636,6.88144 -5.16545,5.9685 -1.60178,-0.61466 -1.06742,-5.51067 1.03418,-9.4756 2.10781,-3.97664 9.33373,-13.13781 13.60222,-17.24519 C 267.1514,99.372931 269,97.276016 269,96.887241 c 0,-0.388774 -2.3625,-0.565624 -5.25,-0.393 -5.1488,0.307812 -5.39847,0.471653 -12.95211,8.499689 -8.52511,9.06052 -10.5945,13.28215 -8.89728,18.15081 1.26581,3.63109 0.70017,5.01727 -1.68264,4.12356 -2.57771,-0.96682 -4.1506,-3.43627 -4.18617,-6.57235 -0.0417,-3.6795 5.19776,-13.153 10.08454,-18.2338 4.60782,-4.790764 4.92396,-6.375165 1.13366,-5.681598 -3.90419,0.714407 -16.46821,13.873888 -19.6328,20.563298 -1.40337,2.96647 -2.85226,7.27393 -3.21975,9.57212 -0.49875,3.11898 -1.0776,4.09524 -2.28281,3.85004 -1.27116,-0.25863 -1.59164,-1.51959 -1.5065,-5.92759 0.11475,-5.94116 2.61266,-11.21685 9.86647,-20.83842 1.86594,-2.475 3.42116,-4.725 3.45606,-5 0.0349,-0.275 -1.52273,-0.534283 -3.46139,-0.576184 -2.16187,-0.04673 -3.03075,0.237361 -2.24706,0.734687 0.8642,0.548413 0.90273,0.815828 0.11906,0.826184 -1.48471,0.01962 -10.68839,11.705883 -13.59509,17.262213 -1.22372,2.33921 -2.45473,6.5031 -2.73557,9.2531 -0.36262,3.55083 -0.94537,5 -2.01062,5 -1.18859,0 -1.46494,-1.27281 -1.33112,-6.13083 0.19522,-7.08692 2.61411,-12.59022 8.45722,-19.24127 4.11264,-4.6813 4.26446,-5.99696 0.64854,-5.62017 -1.25105,0.13036 -2.80044,0.29445 -3.44308,0.36465 -0.64264,0.0702 -2.18786,1.81512 -3.43382,3.87762 -1.24596,2.0625 -4.33979,6.225 -6.87519,9.25 -2.5354,3.025 -5.3372,6.65988 -6.22622,8.07752 -1.83621,2.92801 -5.02553,13.02661 -4.33282,13.71933 0.90826,0.90825 -2.55291,6.20315 -4.05488,6.20315 -1.22369,0 -1.4371,-0.87294 -1.039,-4.25 0.78155,-6.62995 4.56247,-16.89986 7.48043,-20.31873 1.45747,-1.70766 4.67494,-5.46248 7.14994,-8.34404 2.475,-2.88156 4.5,-5.73 4.5,-6.32988 0,-4.233731 -7.85335,1.83414 -16.40169,12.67272 C 186.26887,121.55339 180,136.3085 180,141.55227 180,142.97662 179.41818,144 178.60841,144 c -1.50766,0 -2.89828,-4.01645 -2.13643,-6.17054 0.25861,-0.7312 0.66715,-2.50486 0.90787,-3.94146 0.74241,-4.43075 7.78213,-17.64789 11.547,-21.67962 1.96523,-2.10453 4.66409,-5.03736 5.99746,-6.5174 L 197.34863,103 h -2.35425 c -1.59266,0 -4.39879,2.12662 -8.67432,6.57382 -3.47603,3.6156 -6.32006,6.96804 -6.32006,7.44987 0,0.48183 -1.27235,2.81111 -2.82745,5.17618 -3.53067,5.36962 -6.24444,12.53782 -7.65858,20.22949 -0.59957,3.26115 -1.63526,6.11107 -2.30153,6.33316 -4.35467,1.45156 -1.53573,-15.87429 4.11026,-25.26252 0.66153,-1.1 2.53145,-4.22988 4.15537,-6.9553 1.62393,-2.72541 4.43761,-6.356 6.25262,-8.06797 3.56695,-3.36445 3.39907,-4.51013 -0.64736,-4.41776 -3.06616,0.07 -11.11516,9.2269 -15.77032,17.94103 -1.61599,3.025 -3.41726,6.4 -4.00283,7.5 -1.53246,2.87876 -3.18721,8.44977 -3.71284,12.5 -0.68817,5.30266 -1.61267,7 -3.81274,7 -1.58839,0 -1.87639,-0.46433 -1.39557,-2.25 0.33322,-1.2375 1.72779,-6.48505 3.09904,-11.66122 1.37125,-5.17618 3.27382,-10.57618 4.22793,-12 0.9541,-1.42383 2.5907,-4.16378 3.63687,-6.08878 1.04618,-1.925 3.28421,-5.075 4.97341,-7 l 3.07127,-3.5 -3.33923,-0.32383 c -2.071,-0.20085 -3.93621,0.27315 -4.9111,1.24803 -1.76525,1.76526 -6.22773,9.27607 -8.66006,14.5758 -0.88349,1.925 -2.40072,5.075 -3.37163,7 -0.97091,1.925 -1.85188,5.09375 -1.9577,7.04166 -0.40965,7.54017 -1.42618,10.08999 -3.28251,8.23366 -1.13115,-1.13115 -0.7816,-6.64014 0.87406,-13.77532 1.08316,-4.66796 7.40781,-17.58742 10.8597,-22.18328 2.90567,-3.86862 3.02123,-5.31672 0.42425,-5.31672 -3.10937,0 -15.88837,13.99013 -18.25338,19.98335 -4.0817,10.34353 -6.94662,20.16678 -6.94662,23.81864 0,2.90084 -0.48856,4.51221 -1.48388,4.89416 -3.38502,1.29895 -3.67888,-1.36943 -1.36433,-12.38863 2.59182,-12.33923 7.09517,-21.95604 13.74511,-29.35236 2.34837,-2.61196 4.26977,-5.2153 4.26977,-5.78521 0,-0.5699 -1.37601,-0.99706 -3.05779,-0.94924 -2.43908,0.0693 -3.66509,0.96961 -6.05916,4.44927 -1.65075,2.39929 -3.82731,5.14257 -4.8368,6.09618 -2.45215,2.31643 -7.82054,11.55976 -9.98441,17.19125 -0.96001,2.49842 -2.10257,5.44259 -2.53903,6.54259 -0.43647,1.1 -0.84515,2.9 -0.90819,4 -0.14598,2.54723 -1.81769,3.12517 -3.11066,1.07539 -2.27904,-3.61302 7.59783,-24.26724 16.61578,-34.74643 C 139.20375,101.92115 140.03323,100 137.5,100 c -2.18639,0 -7.14887,5.97281 -14.95521,18 -6.22444,9.58997 -8.07769,13.0776 -9.95915,18.74217 -0.93239,2.80715 -2.41858,5.70104 -3.30264,6.43087 -1.4535,1.19991 -1.55177,0.7847 -1.02635,-4.3368 0.45187,-4.4046 1.73788,-7.62823 5.78457,-14.5 2.86193,-4.85993 6.05119,-9.96124 7.08724,-11.33624 4.63492,-6.15129 9.84369,-12.74142 12.25105,-15.5 2.47661,-2.837931 3.25463,-4.5 2.10647,-4.5 -3.26944,0 -15.51544,13.52253 -21.91785,24.20257 -6.83806,11.40676 -7.95006,14.67037 -8.01101,23.51152 -0.0314,4.55718 -0.20176,8.28581 -0.37855,8.28584 -0.17678,4e-5 -1.02536,-0.70386 -1.88571,-1.56422 -1.14982,-1.14981 -1.85953,-1.26904 -2.67857,-0.45 -0.61286,0.61286 -1.125375,1.42929 -1.138924,1.81429 -0.01355,0.385 -1.813331,3.4 -3.999517,6.7 -10.231338,15.44398 -18.34378,31.03735 -23.021046,44.25 C 70.288605,205.86922 69.077896,208 67.767155,208 66.6062,208 66,207.23544 66,205.77121 Z m 263.67446,-70.29357 c 2.71791,-1.78084 3.16337,-6.53741 0.79622,-8.50197 -1.26545,-1.05023 -1.92358,-0.89882 -3.81445,0.87756 -2.76099,2.59382 -3.55972,2.66102 -5.18644,0.43634 -1.06925,-1.46228 -1.6441,-1.53118 -3.96235,-0.47491 -2.21331,1.00845 -2.59751,1.69036 -2.0905,3.71043 0.53621,2.13643 0.28094,2.47491 -1.8665,2.47491 -3.0896,0 -2.45559,2.67321 0.78411,3.30607 3.99978,0.78135 12.99285,-0.29057 15.33991,-1.82843 z m 45.01032,-7.00676 c 2.41703,-1.58369 2.67664,-4.22579 0.36309,-3.69517 -0.66116,0.15164 -2.6398,-0.12125 -4.39696,-0.60643 -6.14968,-1.69801 -9.77418,1.82706 -6.07802,5.91127 1.7562,1.94057 5.63618,1.32293 10.11189,-1.60967 z M 316.55,124.08468 c 0.5225,-0.50343 2.06824,-1.06593 3.43497,-1.25 3.00419,-0.40461 7.49083,-7.76021 6.5471,-10.73363 -0.77907,-2.45465 -3.39113,-3.46291 -5.16254,-1.99277 -2.28732,1.89831 -9.31389,13.17272 -8.76409,14.06233 0.68003,1.10031 2.76041,1.05499 3.94456,-0.0859 z m 22.32075,-4.14377 c 0.93896,-2.69348 0.78019,-3.07006 -1.87275,-4.44194 -4.05422,-2.09652 -4.53198,-1.954 -6.89922,2.05819 -2.66297,4.51339 -2.63732,5.43917 0.15122,5.45815 1.2375,0.008 2.90991,0.43268 3.71646,0.9428 1.88317,1.19103 3.57051,-0.1911 4.90429,-4.0172 z m 35.08897,-4.08579 c 1.39715,-2.00469 4.49468,-5.94219 6.8834,-8.75 L 385.18624,102 h -3.71077 c -3.01521,0 -4.39162,0.72492 -7.34312,3.86743 -5.31837,5.66257 -6.49486,7.22266 -7.88235,10.45245 -1.67484,3.89868 -1.70163,3.85093 1.95972,3.49348 2.3743,-0.2318 3.8709,-1.26204 5.75,-3.95824 z M 425.81305,117.5 C 427.9568,115.03447 432,114.05421 432,116 c 0,2.15935 2.64235,0.81661 5.41173,-2.75003 1.60145,-2.06248 4.18895,-4.79509 5.75,-6.07245 1.56105,-1.27736 2.83827,-2.7404 2.83827,-3.25119 0,-0.53108 -4.43847,-0.80095 -10.36651,-0.63032 l -10.36651,0.29839 -4.51573,5.5441 c -2.48366,3.04925 -4.81451,6.48545 -5.17968,7.63599 -0.5683,1.79057 -0.18913,2.1505 2.63224,2.49867 1.81291,0.22372 3.77754,0.47878 4.36585,0.5668 0.58832,0.088 2.04784,-0.96496 3.24339,-2.33996 z M 350,117.05977 c 0,-0.51712 2.29613,-3.93599 5.10251,-7.59749 3.66131,-4.77691 4.79672,-6.96305 4.01988,-7.73989 -2.11113,-2.111125 -14.12925,12.83946 -12.474,15.5177 0.671,1.08571 3.35161,0.94149 3.35161,-0.18032 z m -2.73204,-9.75215 c 2.53676,-3.1308 4.38767,-6.0558 4.11315,-6.5 C 351.10658,100.36343 349.57037,100 347.9673,100 c -2.13703,0 -4.16129,1.24663 -7.58712,4.67245 l -4.67246,4.67246 2.25693,1.82754 c 1.2413,1.00515 2.80459,1.82755 3.47397,1.82755 0.66938,0 3.29259,-2.56157 5.82934,-5.69238 z m -12.30129,-2.41577 c 2.63127,-3.27427 3.02046,-4.28606 1.91736,-4.984684 -1.9712,-1.248411 -2.10154,-1.206073 -5.80494,1.885664 -2.63507,2.19986 -3.19663,3.26147 -2.64484,5 1.02795,3.23878 2.82142,2.71687 6.53242,-1.90098 z M 171.5,102 c 0.33992,-0.55 -0.0835,-1 -0.94098,-1 -0.85746,0 -1.55902,0.45 -1.55902,1 0,0.55 0.42344,1 0.94098,1 0.51754,0 1.2191,-0.45 1.55902,-1 z m 17.5,-2 c 0,-0.55 -0.45,-1 -1,-1 -0.55,0 -1,0.45 -1,1 0,0.55 0.45,1 1,1 0.55,0 1,-0.45 1,-1 z m 273.91722,-0.557636 c 3.71658,-1.332018 -1.77441,-2.302661 -16.55696,-2.926775 -16.26947,-0.686891 -19.02173,-0.22247 -16.52315,2.788138 0.73184,0.881813 5.22248,1.137833 16.33609,0.931343 8.42974,-0.15663 15.96455,-0.513345 16.74402,-0.792706 z m -52.33999,-1.084922 c 3.79852,-2.488889 2.94475,-3.592617 -2.23557,-2.890078 -5.15925,0.699682 -8.65802,2.211732 -7.91177,3.419197 0.88806,1.436909 7.68794,1.082339 10.14734,-0.529119 z m 12.9039,-0.336593 c 1.63703,-1.808895 1.6497,-2.033415 0.14727,-2.609951 C 421.87331,94.737409 417,97.393129 417,99.023053 c 0,1.747657 4.64218,1.029817 6.48113,-1.002204 z m 45.04586,1.022825 C 468.20192,98.517695 467.27536,98.34084 466.46797,98.650663 464.40086,99.443889 464.64445,100 467.05902,100 c 1.13246,0 1.79305,-0.430347 1.46797,-0.956326 z M 376,96.952028 c 0,-0.458697 -0.50031,-1.143204 -1.1118,-1.521126 -1.19643,-0.73943 -3.0607,1.480971 -2.29019,2.727678 C 373.17626,99.09421 376,98.092741 376,96.952028 Z m 15.7545,-0.153637 c 1.36176,-1.121855 1.04371,-1.371761 -2.33923,-1.838018 C 385.20598,94.380221 383,95.340602 383,97.753287 c 0,1.172544 0.79916,1.378712 3.58923,0.925946 1.97408,-0.320349 4.29845,-1.166728 5.16527,-1.880842 z m -32.8243,-0.214293 c 1.62767,-1.961211 -0.75741,-2.516395 -8.9302,-2.07872 -3.575,0.191451 -7.76406,0.381062 -9.30902,0.421357 -1.54496,0.0403 -2.56149,0.473766 -2.25896,0.963267 0.30253,0.489501 3.77873,0.939149 7.7249,0.999217 3.94616,0.06007 7.4002,0.334566 7.67563,0.609997 0.99807,0.998075 3.94958,0.468227 5.09765,-0.915118 z M 369,96.5 C 370.06136,95.221135 369.78457,95 367.12244,95 365.0136,95 364,95.486929 364,96.5 c 0,0.825 0.8449,1.5 1.87756,1.5 1.03265,0 2.43775,-0.675 3.12244,-1.5 z M 206.66827,96.334933 C 205.59798,95.264645 201,95.048292 201,96.06822 201,96.580699 202.425,97 204.16667,97 c 1.74166,0 2.86738,-0.29928 2.5016,-0.665067 z m 127.0609,-0.9391 c -0.33229,-0.332291 -1.1948,-0.367818 -1.91667,-0.07895 -0.79773,0.319226 -0.56078,0.556183 0.60417,0.604167 1.05416,0.04342 1.64479,-0.192928 1.3125,-0.52522 z M 323.74403,201.4107 c -0.32412,-0.32412 -0.34388,-2.10168 -0.0439,-3.95014 0.48419,-2.98369 0.25464,-3.43381 -2.04556,-4.01113 -1.42502,-0.35765 -6.04786,0.0547 -10.27298,0.91631 -4.22512,0.86163 -8.07186,1.32567 -8.5483,1.03121 -0.47645,-0.29445 -2.08236,-0.75589 -3.5687,-1.02542 -1.48635,-0.26953 -3.28616,-0.97449 -3.99959,-1.56658 -0.80625,-0.66913 -3.38781,-0.83082 -6.82158,-0.42724 -3.23808,0.38057 -6.32948,0.21844 -7.46962,-0.39174 -2.20482,-1.17999 -7.72826,-2.45858 -19.80425,-4.5844 -4.58176,-0.80656 -10.54809,-2.62603 -13.2585,-4.04327 -5.23167,-2.73557 -6.86597,-4.28455 -4.72005,-4.47365 0.71996,-0.0634 1.75902,-0.2199 2.30902,-0.34769 0.55,-0.12778 1.3604,-0.30087 1.80089,-0.38465 0.44049,-0.0838 -0.37533,-1.69442 -1.81294,-3.57922 -2.30696,-3.02458 -3.01543,-3.36175 -6.03438,-2.87184 -4.39832,0.71375 -8.88722,-1.16284 -10.32385,-4.31589 -1.46857,-3.22317 -1.59438,-2.78655 1.97387,-6.85056 3.56286,-4.05788 5.81856,-4.39157 9.79799,-1.44944 2.46032,1.81899 3.31735,1.94743 6.70951,1.00558 8.78375,-2.43887 26.09293,0.0909 33.98178,4.96646 4.42918,2.73738 7.6802,9.38039 7.96159,16.2684 0.10843,2.6542 0.63774,5.2664 1.17623,5.80489 1.6578,1.6578 9.73138,2.04137 19.47266,0.92513 8.77013,-1.00496 9.56347,-0.9376 14.0078,1.18944 4.19478,2.00761 4.71541,2.61816 4.75,5.57048 0.0616,5.25294 -2.86265,8.94942 -5.21712,6.59496 z M 283.8,186.8 c 0.66,-0.66 1.2,-3.06174 1.2,-5.33721 0,-3.22299 -0.87615,-5.36074 -3.96496,-9.6742 -3.58469,-5.00596 -6.09095,-6.73528 -9.81877,-6.77494 -0.70604,-0.008 -2.18693,1.51718 -3.29086,3.3882 -1.10393,1.87102 -3.10141,3.67649 -4.43884,4.01217 -2.08811,0.52408 -2.34727,1.03248 -1.83414,3.59815 0.53314,2.66566 0.33381,2.98783 -1.84853,2.98783 -1.54242,0 -4.20927,-1.68941 -7.2187,-4.57296 -5.1751,-4.95861 -7.13173,-5.43815 -3.27487,-0.80261 1.31589,1.58156 2.93675,3.90961 3.6019,5.17344 1.3843,2.63024 3.74474,3.70771 10.10291,4.61166 2.46667,0.35069 7.63486,1.49994 11.48486,2.55388 8.56539,2.34478 7.85565,2.28094 9.3,0.83659 z m -22.62874,-20.45499 c 1.00581,-0.91024 1.82874,-2.26024 1.82874,-3 0,-1.76449 -6.47266,-1.71307 -10.5,0.0834 l -3,1.33823 3.5,1.57753 c 4.50042,2.02844 5.93061,2.02858 8.17126,8.2e-4 z m -22.28137,-0.71233 c 0.86313,-1.04001 0.77275,-1.66778 -0.37756,-2.62245 -2.11834,-1.75806 -5.11849,0.55447 -3.40222,2.62245 C 235.73424,166.38471 236.58469,167 237,167 c 0.41531,0 1.26576,-0.61529 1.88989,-1.36732 z M 59.295984,199.32894 c -0.781828,-2.03741 1.068336,-9.15267 3.666065,-14.09876 1.077519,-2.0516 2.692954,-5.30518 3.589857,-7.23018 4.704446,-10.09703 9.615692,-19.38324 12.363665,-23.37729 1.696436,-2.46568 3.102296,-4.85198 3.124134,-5.30289 0.02184,-0.4509 2.035476,-2.98831 4.474751,-5.63868 3.567173,-3.87588 4.976448,-4.75646 7.201744,-4.5 1.727449,0.19909 2.89699,1.00544 3.11356,2.14668 0.267247,1.40828 -0.180947,1.75257 -1.952661,1.5 -1.828584,-0.26068 -3.300254,1.00337 -7.185942,6.17218 -4.521509,6.01459 -11.040151,17.58427 -14.671191,26.03931 -0.835981,1.94662 -2.489755,5.09662 -3.675053,7 -1.185298,1.90338 -3.203562,6.71563 -4.48503,10.69389 -2.331612,7.23838 -4.383767,9.67111 -5.563899,6.59574 z M 344.25798,196.2299 c -0.38891,-1.01348 0.25321,-2.15244 1.7802,-3.15761 1.3137,-0.86476 4.34131,-3.25668 6.72802,-5.31539 2.38672,-2.0587 5.32821,-4.25244 6.53664,-4.87496 1.20844,-0.62253 3.1376,-1.98638 4.28703,-3.03078 2.77501,-2.52146 7.64014,-3.86157 9.74421,-2.68408 0.91625,0.51277 1.66592,2.06196 1.66592,3.44265 0,2.22313 -0.34047,2.4567 -2.97568,2.04138 -2.25044,-0.35467 -3.98938,0.30094 -7.13488,2.68996 -5.39242,4.09556 -11.42681,8.00073 -16.20628,10.48791 -3.39743,1.76798 -3.88368,1.81204 -4.42518,0.40092 z m 642.35013,0.47281 c -1.303,-0.95278 -1.64837,-2.0005 -1.16327,-3.52891 1.27336,-4.01202 7.18427,-1.67902 6.37625,2.51668 -0.43996,2.28452 -2.83659,2.74989 -5.21298,1.01223 z M 381.62354,180.46134 c -0.96498,-2.51469 -0.68031,-3.16355 0.49853,-1.13634 0.58369,1.00375 0.8506,2.03566 0.59313,2.29313 -0.25747,0.25747 -0.74872,-0.26309 -1.09166,-1.15679 z m 614.04313,0.87199 C 995.3,180.96667 995,179.39167 995,177.83333 c 0,-3.47073 2.95252,-3.88081 6,-0.83333 3.0786,3.07862 2.5662,5 -1.33333,5 -1.83334,0 -3.63334,-0.3 -4,-0.66667 z m 11.64283,-13.96925 c -0.8623,-2.24702 0.9309,-4.79549 3.658,-5.19874 3.0115,-0.44532 3.9925,0.75473 3.339,4.08466 -0.4411,2.2476 -1.0722,2.75 -3.4545,2.75 -1.776,0 -3.16,-0.6391 -3.5425,-1.63592 z M 1016,153.14393 c 0,-3.79308 0.06,-3.85434 3.6674,-3.75 2.017,0.0583 3.8292,0.59246 4.0269,1.18694 0.5725,1.72069 -3.6486,6.41913 -5.7669,6.41913 -1.57,0 -1.9274,-0.71507 -1.9274,-3.85607 z m -718.64487,0.8844 c -1.17967,-0.48735 -3.36281,-2.48291 -4.85141,-4.43456 -3.9462,-5.17375 -7.40877,-6.67352 -11.4674,-4.96699 C 277.49685,146.11501 274,145.05806 274,142.5 c 0,-2.11159 3.28624,-3.5 8.28422,-3.5 4.85152,0 10.89535,3.57273 13.96245,8.25371 1.62426,2.47893 6.65392,3.89861 14.75333,4.16429 1.51911,0.0498 2.5,0.67053 2.5,1.582 0,1.17074 -1.53654,1.54549 -7,1.70722 -3.85,0.11397 -7.96519,-0.19153 -9.14487,-0.67889 z m 460.88306,-11.19132 c 0.27754,-1.28536 0.83563,-3.12451 1.2402,-4.08701 0.63244,-1.5046 0.15044,-1.75 -3.43714,-1.75 -2.295,0 -5.0119,-0.44911 -6.03755,-0.99802 -1.38192,-0.73958 -2.27787,-0.58496 -3.45995,0.59713 -2.31288,2.31287 -4.97665,1.07828 -3.52517,-1.63383 1.97459,-3.68956 5.39911,-4.50641 9.2837,-2.21444 l 3.42036,2.01806 3.68016,-3.37146 c 6.19088,-5.6716 10.5972,-7.1106 10.5972,-3.4608 0,1.4392 -0.80888,2.01713 -3.14915,2.25 -4.53649,0.45141 -5.93369,3.15588 -3.02863,5.86236 l 2.27029,2.11509 -1.99661,3.16796 c -1.09814,1.74237 -2.9789,3.3196 -4.17947,3.50496 -1.82501,0.28176 -2.10013,-0.0461 -1.67824,-2 z M 694,142 c 0.69448,-1.29765 2.19933,-2.05296 4.28518,-2.1508 7.95492,-0.37315 13.9384,1.32722 11.88747,3.37815 -0.72275,0.72275 -2.2521,0.5579 -4.99098,-0.53798 -3.41925,-1.36812 -4.19925,-1.39045 -5.81529,-0.16651 -1.02651,0.77744 -2.89471,1.42784 -4.15156,1.44534 C 693.23687,143.99572 693.07354,143.7311 694,142 Z m -73.42219,-2.54599 c -0.87628,-3.49139 -0.0353,-4.43576 3.18567,-3.57751 4.60733,1.22763 6.72748,0.80087 6.83846,-1.3765 0.21036,-4.12707 0.46067,-4.5 3.0205,-4.5 2.24971,0 2.44051,0.21922 1.34239,1.54238 -0.96957,1.16826 -0.99927,1.82318 -0.12245,2.7 0.63669,0.63669 1.15762,1.6456 1.15762,2.24201 0,1.59874 -5.57892,4.61442 -7.30862,3.95067 -0.81899,-0.31427 -1.78615,-0.0907 -2.14925,0.49677 -0.36309,0.58749 -1.70982,1.06817 -2.99274,1.06817 -1.66533,0 -2.51536,-0.7283 -2.97158,-2.54599 z M 1028,139.57143 c 0,-1.33572 0.7393,-3.16786 1.6429,-4.07143 1.4658,-1.46585 1.8057,-1.48001 3.1543,-0.13141 1.3486,1.34861 1.3307,1.78728 -0.1659,4.07143 -2.1487,3.27928 -4.6313,3.34972 -4.6313,0.13141 z m -339.5869,-1.06371 c -1.91342,-2.92025 -1.24909,-5.76575 1.13273,-4.85176 1.85175,0.71058 3.42277,4.23584 2.71578,6.09404 -0.73165,1.92302 -2.05426,1.49609 -3.84851,-1.24228 z M 404,138 c 0,-0.55 0.9,-1 2,-1 1.1,0 2,0.45 2,1 0,0.55 -0.9,1 -2,1 -1.1,0 -2,-0.45 -2,-1 z m 313.02135,-0.75 c 0.0209,-1.71322 6.77638,-7.25 8.84579,-7.25 1.6413,0 6.33502,-6.39997 8.19296,-11.17124 1.39222,-3.57529 2.19342,-4.38058 4.60293,-4.62647 2.36139,-0.24098 4.03536,0.75114 8.78457,5.20642 l 5.86727,5.50413 2.91929,-2.45642 C 757.83977,121.10539 759.63895,120 760.23233,120 c 1.98789,0 7.81818,-5.11976 10.29084,-9.0367 3.44333,-5.4546 5.75795,-6.50103 9.49579,-4.29303 4.45459,2.63139 3.88718,4.53289 -1.23753,4.14721 -3.475,-0.26152 -4.28561,0.0144 -4.59895,1.5656 -0.44377,2.19688 -4.79813,6.28096 -7.68248,7.20563 -1.1,0.35264 -2.9,1.41065 -4,2.35113 -2.92307,2.49919 -9.8874,4.43073 -13.08326,3.62862 -1.51858,-0.38114 -4.17804,-2.23996 -5.9099,-4.13072 C 741.77497,119.54698 739.90588,118 739.35331,118 c -1.52848,0 -5.03166,4.18708 -5.85666,7 -0.93514,3.1885 -2.82113,5.35379 -8.83645,10.14505 -5.2501,4.18176 -7.67233,4.84923 -7.63885,2.10495 z m -324.8552,-0.12615 c -1.07393,-0.68077 -1.02522,-0.96395 0.25,-1.4533 0.87112,-0.33428 2.29658,-0.33428 3.1677,0 1.27522,0.48935 1.32393,0.77253 0.25,1.4533 -0.73362,0.46504 -1.55885,0.84552 -1.83385,0.84552 -0.275,0 -1.10023,-0.38048 -1.83385,-0.84552 z M 443,133.45059 c -0.825,-0.17458 -3.1875,-0.59277 -5.25,-0.92931 -2.75831,-0.45009 -3.75,-1.10016 -3.75,-2.45819 0,-2.60828 4.30409,-3.42627 10.14778,-1.92858 4.12374,1.05689 5.62326,1.00067 9.91476,-0.3717 4.45576,-1.42489 5.12431,-1.43946 5.62962,-0.12264 0.76971,2.00584 -0.31757,2.87208 -5.97711,4.76198 -4.52048,1.50954 -7.26632,1.77821 -10.71505,1.04844 z M 639,130 c -1.375,-0.44035 -1.81696,-0.8455 -0.98213,-0.90032 0.83482,-0.0548 3.19822,-1.24152 5.252,-2.6371 2.29936,-1.56245 5.67863,-2.72797 8.79484,-3.03335 4.37657,-0.4289 5.30695,-0.19181 6.88244,1.75383 1.68032,2.07511 2.65872,2.2534 12.60268,2.29655 10.52034,0.0457 13.45017,-0.73326 13.45017,-3.57579 0,-0.52433 1.07466,-1.36191 2.38813,-1.86129 1.49474,-0.5683 3.24976,-2.81445 4.69135,-6.00422 1.55658,-3.44419 3.05162,-5.28409 4.61187,-5.67569 1.63501,-0.41036 2.30865,-1.30293 2.30865,-3.05893 0,-2.33655 0.2294,-2.44073 3.97927,-1.80719 2.27374,0.38414 5.48826,0.17428 7.5,-0.48966 C 713.80102,103.91057 714,103.59495 714,99.422448 714,95.388671 714.21662,95 716.46482,95 c 3.47267,0 4.74746,2.851576 2.94165,6.58017 -1.76365,3.64154 -6.59976,6.20565 -11.72613,6.21721 -4.52537,0.0102 -5.40075,0.62965 -3.73175,2.64068 0.86238,1.03909 3.1335,1.47181 7.54712,1.43793 5.93895,-0.0456 11.42543,1.5362 10.06099,2.90064 -1.07325,1.07325 -3.85653,1.13327 -5.74268,0.12384 -2.19442,-1.17442 -15.85713,-1.6099 -17.55656,-0.55959 -0.66217,0.40924 -1.90668,2.18746 -2.76558,3.9516 -2.25892,4.63971 -4.71679,7.30635 -8.8999,9.65586 -3.11176,1.74777 -5.43253,2.07308 -14.88917,2.08703 -13.74336,0.0203 -14.50058,-0.11581 -16.67369,-2.99677 -1.15638,-1.53304 -1.97923,-1.92835 -2.44505,-1.17463 C 652.19791,126.48879 650.967,127 649.84871,127 c -1.11829,0 -3.17742,0.9 -4.57584,2 -2.76991,2.17881 -2.65115,2.15988 -6.27287,1 z m 142.57143,-1.57143 C 780.70714,127.56429 780,126.45512 780,125.96376 c 0,-1.80185 4.20726,-3.10454 7.97224,-2.46845 4.98443,0.84211 6.10999,-0.98304 1.53697,-2.49227 -4.59447,-1.51631 -4.83242,-4.26468 -0.3001,-3.4662 1.76501,0.31095 3.79001,1.04747 4.5,1.63671 3.18841,2.64614 -0.16691,7.82645 -5.06924,7.82645 -1.48645,0 -2.96166,0.675 -3.27824,1.5 -0.73636,1.9189 -1.8203,1.89847 -3.7902,-0.0714 z M 620.01531,127.75 c 0.0364,-2.97092 3.64649,-5.19509 6.03561,-3.71853 1.12013,0.69228 1.02986,1.22179 -0.49567,2.90748 -2.05324,2.2688 -5.56409,2.7828 -5.53994,0.81105 z m 20.65136,-4.41667 c -1.04997,-1.04996 -0.77829,-4.14631 0.42929,-4.89264 0.60278,-0.37254 1.80162,0.0283 2.6641,0.8908 1.29182,1.29182 1.34144,1.84128 0.28159,3.11832 -1.39413,1.67983 -2.33292,1.92559 -3.37498,0.88352 z m 163.89255,-3.0396 c -0.33346,-0.86899 -0.89669,-1.2896 -1.25161,-0.93468 C 802.44574,120.22092 799,117.03816 799,115.3802 799,114.12007 801.95955,112 803.71865,112 c 1.11763,0 4.28135,5.39237 4.28135,7.2973 0,2.1084 -2.71263,2.89396 -3.44078,0.99643 z m -143.11896,-5.74456 c -2.05243,-3.1324 -1.51623,-5.9637 1.20322,-6.35342 1.59979,-0.22927 2.38788,0.45546 3.19758,2.77817 1.976,5.66835 -1.29054,8.32211 -4.4008,3.57525 z M 1018,108.56268 c 0,-1.01941 1.163,-1.42127 4,-1.38212 4.7652,0.0658 5.2639,1.31665 0.875,2.19444 -4.4134,0.88267 -4.875,0.80575 -4.875,-0.81232 z m -383,-3.99125 c 0,-3.92713 5.43511,-5.697196 10.46149,-3.40702 1.99858,0.91061 3.0983,0.87396 5.04555,-0.16818 3.03681,-1.625251 4.03254,-0.87296 2.5388,1.91812 -1.27256,2.3778 -5.88349,2.82849 -9.00347,0.88004 -1.57601,-0.98424 -2.27656,-0.89243 -3.81517,0.5 C 637.93377,106.36991 635,106.5254 635,104.57143 Z M 99,93.571429 c 0,-1.350138 3.30008,-3.393508 4.64628,-2.876922 1.30711,0.501586 1.16917,0.841965 -0.77894,1.922075 C 100.4284,93.968828 99,94.321499 99,93.571429 Z m 13,-3.572372 C 110.478,89.016424 110.5191,89 114.5,89 c 0.275,0 0.53375,0.32625 0.575,0.725 0.12162,1.175685 -1.46012,1.316657 -3.075,0.274057 z M 125,86 c 1.95837,-1.265597 3.28218,-1.265597 2.5,0 -0.33992,0.55 -1.37898,0.993109 -2.30902,0.984687 C 123.73371,86.971491 123.70731,86.835399 125,86 Z m 20.5,-4 c 0.33992,-0.55 0.81648,-1 1.05902,-1 0.24254,0 0.44098,0.45 0.44098,1 0,0.55 -0.47656,1 -1.05902,1 -0.58246,0 -0.7809,-0.45 -0.44098,-1 z" id="path12" inkscape:connector-curvature="0"/>
</svg>
