<?xml version="1.0" encoding="utf-8"?>
<svg xmlns="http://www.w3.org/2000/svg" version="1.1" viewBox="0 0 1189 601">
	<title>A young girl of Majorca is watching an older woman leap over a fence.</title>
	<path d="m 524.25,581.22254 c -12.51497,-0.24367 -16.16529,-0.9364 -13.5,-2.56192 0.4125,-0.25158 11.55,-0.60791 24.75,-0.79186 13.2,-0.18394 25.35,-0.75319 27,-1.26501 12.41136,-3.84987 15.20212,-5.62607 7.73662,-4.92404 -9.15273,0.86069 -22.79818,0.32068 -28.23931,-1.11755 -4.4637,-1.17988 -5.68533,-1.21131 -6.49731,-0.16719 -1.053,1.35404 -28.0218,2.90978 -54,3.11507 -13.05995,0.1032 -37.26791,1.36422 -41,2.13572 -6.17523,1.27656 -34.32814,2.42563 -49,1.99996 -28.95055,-0.83993 -42.02607,-3.86198 -36.25,-8.37818 2.02228,-1.58119 7.91098,-3.36502 12.75,-3.8623 2.475,-0.25434 6.01908,-0.87891 7.87574,-1.38795 1.85666,-0.50903 11.24285,-0.77474 20.85821,-0.59046 11.99626,0.22991 19.00333,-0.0661 22.32885,-0.9434 5.04535,-1.33094 42.60687,-1.35782 46.7795,-0.0335 1.23713,0.39265 3.07794,-0.007 4.58654,-0.99528 1.39046,-0.91107 4.21235,-1.57883 6.29558,-1.48979 2.07657,0.0888 6.92558,0.12347 10.77558,0.0771 3.85,-0.0463 14.65,0.37187 24,0.92937 17.83474,1.0634 30.78682,1.65003 56.5,2.55902 8.525,0.30137 18.425,1.00883 22,1.57213 6.67931,1.05243 9.64955,1.27763 14,1.06142 1.375,-0.0683 6.1,-0.0752 10.5,-0.0152 4.4,0.06 18.8,-0.21121 32,-0.60265 24.9053,-0.73856 27.75761,-0.84967 51,-1.98674 18.57444,-0.9087 40.96675,-1.55996 69,-2.0068 12.65,-0.20164 24.35,-0.62409 26,-0.93878 1.65,-0.31469 5.7,-0.15272 9,0.35995 10.30093,1.60027 31.82925,2.23177 34.99898,1.02664 3.17755,-1.2081 11.25284,-2.03203 25.00102,-2.55085 4.95,-0.1868 15.075,-0.57789 22.5,-0.86908 34.01262,-1.3339 62.00371,-0.9754 76.76861,0.98323 l 5.23139,0.69397 -1.7e-4,-16.37883 c -2.3e-4,-21.97488 -1.81256,-31.30295 -9.44371,-48.60675 -3.75544,-8.51554 -6.83931,-12.48437 -9.04343,-11.63857 -0.84599,0.32463 -2.22149,0.0231 -3.05668,-0.67002 -1.57085,-1.30369 -2.82162,-0.33032 -5.50808,4.28651 -1.66396,2.85961 -4.69682,2.1698 -5.44541,-1.23853 -0.96212,-4.3805 -2.24793,-4.55656 -3.9271,-0.53772 -3.09149,7.39897 -6.8465,5.53302 -8.54991,-4.24864 -0.64054,-3.6783 -1.63843,-7.2587 -2.21751,-7.95646 C 918.22891,472.57089 918.10496,472 918.53254,472 c 0.42759,0 -0.0467,-0.91063 -1.05392,-2.02363 -1.25712,-1.3891 -1.50822,-2.34677 -0.8008,-3.05419 0.70743,-0.70743 0.4277,-4.07079 -0.8921,-10.72638 -1.75029,-8.82653 -2.8422,-15.54533 -4.33848,-26.6958 -1.14137,-8.50566 -1.63202,-19.2855 -1.29718,-28.5 0.0703,-1.93491 2.56465,-17.14848 3.78252,-23.07044 1.04683,-5.09031 3.49012,-12.04786 5.64817,-16.08385 0.78059,-1.45986 1.41925,-3.50736 1.41925,-4.55 0,-1.04264 0.37788,-2.32321 0.83972,-2.84571 0.46185,-0.5225 1.43597,-2.525 2.1647,-4.45 0.72873,-1.925 1.86197,-4.175 2.5183,-5 0.65634,-0.825 2.70025,-4.425 4.54203,-8 1.84179,-3.575 4.49317,-7.94595 5.89197,-9.71323 C 942.62137,320.12992 944,318.1344 944,317.09184 944,316.49133 944.3902,316 944.86711,316 c 0.47692,0 1.9991,-1.6875 3.38263,-3.75 1.38353,-2.0625 4.81875,-6.225 7.63384,-9.25 2.81508,-3.025 5.37323,-6.2875 5.68476,-7.25 0.31154,-0.9625 0.98611,-1.75 1.49905,-1.75 0.51293,0 0.94758,-0.5625 0.96588,-1.25 0.0476,-1.78668 3.54866,-5.75 5.07942,-5.75 0.71065,0 2.75589,-1.41877 4.54498,-3.15282 l 3.25288,-3.15281 -4.39498,-4.88828 c -2.87967,-3.20288 -4.50197,-5.99465 -4.70528,-8.09718 -0.23961,-2.47792 -0.83695,-3.28355 -2.62222,-3.53658 -2.92182,-0.4141 -6.18286,-5.65284 -5.65009,-9.07666 0.49938,-3.20928 2.01241,-9.0694 2.87916,-11.15128 0.46025,-1.10549 -0.29682,-1.97356 -2.61638,-3 -1.79521,-0.79442 -3.94729,-2.68495 -4.78239,-4.20119 -1.45999,-2.65082 -1.40303,-2.85056 1.48163,-5.19544 1.65,-1.34125 4.575,-3.24594 6.5,-4.23265 1.925,-0.9867 4.52062,-2.67232 5.76803,-3.74581 1.24742,-1.0735 3.20449,-2.09473 4.34905,-2.2694 1.14456,-0.17467 3.71398,-1.6636 5.70981,-3.30874 1.99584,-1.64514 4.12022,-2.99116 4.72085,-2.99116 0.60062,0 2.60414,-1.35 4.45226,-3 1.84812,-1.65 3.97886,-3 4.73497,-3 3.4992,0 10.10053,-4.15308 12.59663,-7.92483 5.452,-8.23858 11.8388,-9.17586 18.5904,-2.7282 2.4035,2.29528 5.2975,3.81571 8.8164,4.63191 2.8811,0.66827 6.2916,2.0435 7.5789,3.05606 1.2873,1.01256 3.7688,1.80041 5.5146,1.75078 3.9758,-0.11304 6.7849,2.3582 7.5961,6.68237 0.3575,1.90567 1.6311,3.99583 2.9687,4.8723 2.2865,1.49816 2.3095,1.66225 0.96,6.84728 -0.7605,2.92178 -1.5547,8.46233 -1.765,12.31233 -0.4788,8.76812 -1.7164,11.08079 -9.4128,17.58941 -5.2886,4.47249 -7.3318,6.91059 -5.7912,6.91059 0.472,0 12.7865,-5.4789 17.5618,-7.81354 3.8132,-1.86424 15.0505,-11.84355 15.0505,-13.3656 0,-0.53005 0.5625,-1.59275 1.25,-2.36158 0.6875,-0.76882 2.825,-3.6568 4.75,-6.41774 1.925,-2.76093 4.0467,-5.02475 4.7148,-5.03071 1.9341,-0.0172 3.3959,3.69803 2.6435,6.71865 -0.5759,2.31208 -0.4558,2.57849 0.7258,1.61001 2.2595,-1.85195 8.4693,-2.6489 10.8233,-1.38904 1.7226,0.92187 1.9224,1.49912 1.0701,3.09154 -0.8204,1.53299 -0.7274,1.95801 0.4283,1.95801 0.8119,0 1.7678,-0.47185 2.1242,-1.04856 1.1458,-1.85398 3.2265,0.87177 2.7135,3.55491 -0.5589,2.92406 -0.1592,3.01853 3.8971,0.92095 2.8148,-1.45561 3.1889,-1.43908 5.0245,0.22207 1.2419,1.12396 1.8204,2.64616 1.5477,4.0727 -0.2395,1.25286 -0.048,2.33418 0.4259,2.40293 0.4737,0.0687 1.4176,0.18125 2.0976,0.25 2.1102,0.21336 1.9969,3.44488 -0.1863,5.31422 l -2.0791,1.7802 2.1706,1.63733 c 2.3251,1.7538 2.012,4.89325 -0.488,4.89325 -1.8024,0 -7.042,2.37403 -12.1535,5.50676 -2.2,1.34832 -6.4312,3.18779 -9.4027,4.08772 -3.7754,1.14339 -6.8348,3.03217 -10.1573,6.27087 -2.615,2.54906 -7.556,7.10224 -10.9801,10.11818 -3.4241,3.01595 -8.8988,8.99525 -12.1661,13.28735 -3.2673,4.2921 -6.8184,8.34951 -7.8912,9.01647 -1.0729,0.66696 -4.2977,4.13765 -7.1662,7.71265 -6.8515,8.53899 -25.5696,27.19948 -30.6676,30.57319 -4.0672,2.69149 -5.2401,5.42796 -4.898,11.42681 0.078,1.375 -0.1085,3.65644 -0.4152,5.06987 -0.3068,1.41344 -0.8855,5.68844 -1.286,9.5 -0.4005,3.81157 -1.6081,8.81821 -2.6835,11.12585 -1.1073,2.37604 -1.6821,5.05649 -1.3254,6.18041 0.3464,1.09158 -0.3394,5.5035 -1.524,9.80428 -1.1847,4.30077 -3.158,11.41959 -4.38514,15.81959 -4.01344,14.39036 -6.40841,25.92618 -6.22835,30 0.17531,3.96648 0.21011,4 4.15365,4 5.21114,0 6.10574,2.75265 1.42497,4.38438 -5.25126,1.8306 -7.31006,1.38742 -9.31396,-2.00492 -1.58176,-2.67771 -1.74416,-4.34512 -1.14439,-11.75 0.38443,-4.7462 1.36174,-11.32946 2.1718,-14.62946 0.81006,-3.3 1.65288,-6.9 1.87293,-8 0.22004,-1.1 1.81067,-6.725 3.53473,-12.5 1.72405,-5.775 3.31323,-11.4 3.53152,-12.5 0.21828,-1.1 1.03884,-4.925 1.82354,-8.5 0.7847,-3.575 1.7456,-9.875 2.1354,-14 0.3898,-4.125 1.1412,-8.03529 1.6699,-8.68953 0.5287,-0.65424 0.8162,-2.45424 0.639,-4 -0.3177,-2.76996 -0.4088,-2.80631 -6.3223,-2.52222 -7.63788,0.36693 -10.13143,-0.27083 -10.78173,-2.75758 -0.40862,-1.56258 0.15763,-2.19525 2.63051,-2.93909 9.31002,-2.80043 17.41922,-6.29101 22.00172,-9.47054 6.2574,-4.34168 20.9539,-19.23818 29.7122,-30.11665 3.5405,-4.39759 13.0748,-14.64533 21.1873,-22.77276 8.6424,-8.65831 14.75,-15.5641 14.75,-16.67766 0,-1.04529 -1.1901,-3.31486 -2.6446,-5.0435 l -2.6447,-3.14298 -4.1053,3.98133 c -2.258,2.18973 -6.2059,5.25704 -8.7732,6.81625 -2.5673,1.55921 -7.7684,4.94952 -11.5579,7.53402 -3.7896,2.58449 -11.364,6.56656 -16.8322,8.84903 -5.4682,2.28246 -12.7631,5.45538 -16.211,7.05091 -3.4479,1.59553 -6.9354,2.90097 -7.75,2.90097 -2.4864,0 -1.6537,-2.74091 1.5189,-5 1.65,-1.1749 3,-2.50603 3,-2.95806 0,-0.45203 -4.9227,-0.72412 -10.9394,-0.60464 -10.76426,0.21375 -14.0606,1.14733 -14.0606,3.9822 0,1.94254 -7.29497,8.39511 -10.33692,9.14324 -2.0067,0.49353 -4.27806,0.0227 -7.76133,-1.60876 l -4.9244,-2.30646 -3.06362,2.92624 c -2.51062,2.39805 -12.32804,15.36638 -15.239,20.12999 -0.48278,0.79002 2.28217,3.22124 8.04484,7.07383 4.82924,3.22854 9.45543,6.16483 10.28043,6.52507 0.825,0.36025 3.3,1.71801 5.5,3.01726 l 4,2.36226 3.5,-1.94257 c 1.925,-1.0684 4.22242,-2.58274 5.10538,-3.36519 C 984.7482,338.91861 988,339.44898 988,341.17273 988,345.07643 979.42178,352 974.58515,352 c -4.19572,0 -8.64311,-2.52786 -21.2484,-12.07742 -12.31841,-9.33223 -11.34356,-9.47276 -17.87912,2.57742 -12.61491,23.25919 -14.54331,29.23463 -17.31022,53.63821 -1.17949,10.4029 -1.51365,17.94424 -1.03515,23.36179 0.96204,10.89226 3.54925,30.02741 4.83662,35.7719 0.5809,2.5921 0.95171,5.05382 0.82401,5.4705 C 922.30253,462.27721 925.37601,481 926.09833,481 927.02986,481 934,469.95791 934,468.48218 934,467.23628 939.63184,465 942.7695,465 c 2.48705,0 17.64414,-5.79052 27.8218,-10.62887 7.70201,-3.66145 10.4087,-4.16458 10.4087,-1.93483 0,1.58075 -15.7242,10.80334 -20.5,12.02371 -2.94449,0.75241 -2.95837,0.78582 -0.75,1.8061 2.64779,1.2233 3.04136,3.09221 0.5,2.37433 -6.01807,-1.69998 -10.2251,-1.7023 -13.40931,-0.007 -1.83738,0.97799 -3.72479,1.67012 -4.19425,1.53805 -3.50618,-0.98635 -6.30712,2.8687 -4.88246,6.71993 0.78961,2.13451 0.85447,2.11633 3.05133,-0.85507 2.64233,-3.57394 3.47296,-3.71626 5.98056,-1.02468 l 1.87377,2.01126 1.85047,-2.04474 c 1.52767,-1.68805 2.59008,-1.93384 6.0902,-1.40897 2.33185,0.34968 5.73596,0.18252 7.56471,-0.37147 1.82874,-0.55399 6.1435,-1.59418 9.58836,-2.31154 4.59748,-0.95738 6.99124,-2.08046 9,-4.22253 l 2.73662,-2.91824 -6.5,0.69603 c -3.575,0.38282 -6.9275,1.11519 -7.45,1.62749 -0.5225,0.5123 -2.5475,0.91714 -4.5,0.89965 -3.3152,-0.0297 -3.42345,-0.12757 -1.63668,-1.47967 1.05232,-0.79632 3.97732,-2.18732 6.5,-3.09111 2.52267,-0.90378 6.55287,-2.51548 8.95599,-3.58154 4.97826,-2.20843 7.13069,-1.82775 7.13069,1.26114 0,1.82538 0.40408,2.0442 2.75,1.4892 2.62285,-0.62051 2.59551,-0.55428 -0.59132,1.43243 -2.19301,1.36715 -3.14198,2.6025 -2.76128,3.59458 0.31903,0.83136 -0.15501,2.63339 -1.0534,4.00451 -1.31754,2.01083 -1.515,4.02887 -1.02101,10.43483 0.33684,4.36803 1.26661,9.20691 2.06615,10.75306 0.79955,1.54615 1.64157,4.13939 1.87116,5.76277 0.2296,1.62338 0.98219,4.3016 1.67243,5.9516 1.78642,4.27042 1.50527,9.64387 -0.76731,14.66469 -3.34144,7.38229 -5.22879,14.99223 -5.8617,23.63494 -0.56384,7.69943 -0.7595,8.27796 -2.70575,8 -1.59539,-0.22785 -2.38578,-1.46582 -3.29941,-5.16774 -2.17184,-8.80009 -3.08288,-7.89021 -4.34851,4.34304 -0.52415,5.06621 -0.6693,9.67032 -0.32256,10.23135 0.93316,1.50988 68.66961,-0.0154 88.87251,-2.00128 4.95,-0.48656 10.575,-0.92188 12.5,-0.96738 1.925,-0.0455 4.85,-0.27974 6.5,-0.52054 1.65,-0.2408 5.475,-0.75818 8.5,-1.14973 3.025,-0.39155 6.85,-0.90245 8.5,-1.13532 7.0596,-0.99638 17.5573,-1.13552 25,-0.33137 9.5781,1.03487 7.1545,0.9946 23.1494,0.38463 l 13.1493,-0.50145 0.9568,2.75808 c 1.3782,3.97289 -0.2578,6.79238 -4.7164,8.12822 -5.063,1.51692 -5.1669,1.4873 -4.4734,-1.27586 0.7584,-3.02177 -1.6745,-3.99706 -6.5108,-2.61003 -1.8696,0.53619 -3.8842,0.62447 -4.4771,0.19617 -1.6279,-1.17612 -46.9302,-0.66988 -56.0778,0.62665 -4.4,0.62363 -11.6765,1.32963 -16.1699,1.56889 -12.2319,0.65129 -14.1896,2.52506 -2.8301,2.70879 4.95,0.0801 9.9,-0.0133 11,-0.20738 2.0112,-0.35493 7.4718,-0.34481 19.5,0.0361 3.575,0.11323 9.875,0.20396 14,0.20162 15.5202,-0.009 21.3336,0.39707 21.7083,1.51552 0.8848,2.64085 -14.2106,3.59541 -54.7083,3.45953 -14.575,-0.0489 -27.4,-0.0453 -28.5,0.008 -8.1643,0.39529 -41.6405,0.14917 -53.5,-0.39334 -64.69496,-2.95941 -91.04111,-2.86926 -114.5,0.39183 -7.85955,1.09257 -12.49189,1.35674 -39.5,2.25253 -7.425,0.24627 -17.775,0.74795 -23,1.11484 -9.72087,0.68259 -17.30373,1.04487 -41,1.95884 -7.425,0.28639 -19.125,1.23272 -26,2.10296 -6.875,0.87025 -14.01851,1.30206 -15.87447,0.95959 -3.11418,-0.57465 -3.22989,-0.72317 -1.5,-1.92551 2.92116,-2.03033 24.86206,-5.02947 44.37447,-6.06564 5.775,-0.30667 13.875,-0.75176 18,-0.9891 4.125,-0.23733 13.0125,-0.73089 19.75,-1.09679 6.7375,-0.36591 12.25,-1.02209 12.25,-1.45819 0,-0.43609 -4.6125,-0.83415 -10.25,-0.88456 -5.6375,-0.0504 -20.49789,-0.26909 -33.0231,-0.48595 -12.5252,-0.21686 -24.0002,-0.0654 -25.5,0.33655 l -2.7269,0.73083 3.40972,0.68345 c 1.87535,0.3759 3.18157,0.9116 2.90271,1.19046 -0.27885,0.27886 -23.18823,0.71815 -50.90972,0.97621 -27.72149,0.25806 -55.35271,0.70707 -61.40271,0.99781 -6.05,0.29073 -22.32457,0.69643 -36.16571,0.90155 -20.04838,0.29711 -25.79084,0.6848 -28.23994,1.90657 -1.69082,0.8435 -4.54125,1.84311 -6.33428,2.22137 -1.79304,0.37826 -7.08507,1.81266 -11.76007,3.18757 -4.675,1.3749 -8.95,2.47572 -9.5,2.44626 -0.55,-0.0295 -3.25,-0.31911 -6,-0.64367 -2.75,-0.32455 -7.025,-0.2356 -9.5,0.19767 -2.475,0.43327 -10.9125,0.6629 -18.75,0.5103 z m -90.63591,-8.8258 c 3.78725,-0.90063 8.4446,-1.77861 10.34966,-1.95108 1.90506,-0.17246 6.40506,-0.90261 10,-1.62256 l 6.53625,-1.309 -4.5,-0.62751 c -7.04253,-0.98205 -58.12094,-0.15606 -72,1.16432 -6.875,0.65405 -14.05315,1.29461 -15.95144,1.42346 -1.89829,0.12885 -3.59115,0.6534 -3.76191,1.16567 -0.34422,1.03267 -0.43501,1.01874 12.18664,1.86884 4.93531,0.3324 9.0927,0.72377 9.23864,0.86972 0.14595,0.14595 9.43431,0.35317 20.6408,0.46051 15.9338,0.15261 21.87651,-0.16181 27.26136,-1.44237 z m 141.78499,-3.55856 c 1.11612,0.0353 1.5284,-0.30695 1,-0.83 -0.84007,-0.83158 -10.60669,-1.22207 -26.81575,-1.07215 -3.80416,0.0352 -6.58119,0.40147 -6.17117,0.81397 0.90932,0.91482 22.90932,2.12071 27.08784,1.48477 1.65,-0.25112 3.85459,-0.42958 4.89908,-0.39659 z m -69.01039,-1.79132 c 1.58878,-0.60655 2.61586,-1.37564 2.2824,-1.7091 -0.78706,-0.78706 -28.99938,-0.54632 -33.62534,0.28693 -1.95016,0.35127 -4.67075,1.27717 -6.04575,2.05754 -2.20648,1.25227 -0.32792,1.363 16,0.94315 10.175,-0.26163 19.79991,-0.97197 21.38869,-1.57852 z m 357.32092,-2.58312 c 0.2726,-1.25336 -10.87973,-0.64985 -12.20961,0.66072 -0.65789,0.64835 1.22371,0.86875 5.5,0.64425 3.575,-0.18768 6.59432,-0.77492 6.70961,-1.30497 z M 761,564 c 0,-0.55 -0.45,-1 -1,-1 -0.55,0 -1,0.45 -1,1 0,0.55 0.45,1 1,1 0.55,0 1,-0.45 1,-1 z m 212.57095,-38.5 c 3.49838,-16.67242 3.57885,-17.45955 2.38217,-23.30151 -1.10694,-5.40388 -2.53964,-9.21311 -7.12165,-18.93482 l -1.99665,-4.23633 -5.53509,0.21122 c -5.99856,0.22891 -7.5826,1.6635 -5.02255,4.54869 2.54246,2.86536 7.85614,13.36955 9.72932,19.23308 0.97244,3.04402 2.0308,8.67223 2.35191,12.50713 0.32111,3.8349 0.8547,8.32254 1.18576,9.97254 0.33105,1.65 0.61684,3.9 0.63507,5 0.0182,1.1 0.30905,3.35 0.64625,5 l 0.61309,3 0.33178,-3 c 0.18248,-1.65 0.99275,-6.15 1.80059,-10 z m 11.12507,-4.51242 c 3.27134,-9.55466 3.48304,-10.82832 2.40712,-14.4818 -0.64883,-2.20318 -1.8314,-6.58968 -2.62794,-9.74777 -0.79653,-3.1581 -1.86219,-6.5331 -2.36811,-7.5 -1.59528,-3.04884 -3.14746,-9.98924 -2.57036,-11.49313 0.30486,-0.79445 -0.11514,-2.00003 -0.93332,-2.67906 -1.19355,-0.99056 -2.19091,-0.90087 -5.04551,0.45373 -1.95685,0.92858 -3.55487,2.42456 -3.55116,3.32439 0.004,0.89983 2.02611,4.76841 4.49423,8.59684 2.46812,3.82843 4.76236,8.55343 5.09832,10.5 0.33595,1.94657 0.93195,5.11422 1.32444,7.03922 0.46632,2.28712 0.0385,6.32506 -1.23469,11.65224 -1.94331,8.13133 -1.72744,15.86056 0.42293,15.14377 0.5485,-0.18283 2.61132,-5.04663 4.58405,-10.80843 z m -3.79149,-221.55034 c 1.33229,-2.25806 1.88468,-4.42893 1.50842,-5.92804 -0.51952,-2.06993 -0.11408,-2.49846 3.2467,-3.43167 2.11219,-0.58651 4.29035,-1.07057 4.84035,-1.07569 0.55,-0.005 2.50277,-0.92551 4.33948,-2.0453 2.74012,-1.67056 3.12299,-2.29684 2.13324,-3.48941 -0.85152,-1.02602 -2.30897,-1.27709 -4.95622,-0.85378 -2.0625,0.32981 -4.67228,0.10605 -5.79952,-0.49723 -1.82404,-0.97619 -2.59716,-0.40004 -7.0267,5.23644 -7.75356,9.86622 -7.8261,10.02812 -5.84651,13.04934 2.37335,3.62219 5.05643,3.27986 7.56076,-0.96466 z m 53.94107,-12.2237 c 1.4599,-0.98255 4.4176,-2.38907 6.5727,-3.12559 2.1551,-0.73653 6.3383,-3.31025 9.2961,-5.71937 2.9578,-2.40913 6.8195,-5.02655 8.5817,-5.81648 3.1509,-1.41249 6.4242,-4.11214 10.0336,-8.27532 1.4684,-1.69361 1.6095,-2.52182 0.7148,-4.19359 -1.3855,-2.58894 -1.7255,-2.58361 -6.0445,0.0947 -3.5507,2.20186 -18.3777,7.47166 -27.5,9.77401 -2.75,0.69406 -7.3748,2.33882 -10.2773,3.65502 -2.9026,1.31619 -5.553,2.39308 -5.8898,2.39308 -0.7549,0 -3.2575,3.22195 -3.3011,4.25 -0.017,0.4125 0.591,0.75 1.3522,0.75 0.7612,0 2.8987,1.76191 4.75,3.91535 3.8423,4.46942 7.4374,5.17488 11.7116,2.29819 z M 1009.25,275.98222 c 4.2436,-2.28915 4.341,-2.63202 2.2014,-7.75272 -0.8517,-2.03845 -1.2997,-4.69781 -0.9955,-5.90969 0.3041,-1.21188 3.5055,-4.8171 7.1142,-8.01161 8.7966,-7.78708 9.6214,-9.55102 9.2979,-19.88408 -0.2589,-8.26815 -0.2057,-8.48045 2.9342,-11.72001 3.7314,-3.84986 4.049,-5.10904 1.0483,-4.15667 -1.9869,0.63062 -2.1058,0.41348 -1.5729,-2.87068 0.8637,-5.32224 -1.0043,-6.39702 -7.5618,-4.35084 -9.7833,3.05274 -15.5496,3.54747 -16.854,1.44602 -1.4417,-2.32268 -2.8598,0.70246 -2.83,6.03708 0.043,7.69413 2.9049,11.38209 5.9682,7.69098 0.6847,-0.825 1.9419,-1.5 2.7937,-1.5 0.8519,0 2.3395,-0.71556 3.3059,-1.59013 2.0744,-1.87729 5.5607,-1.10762 6.3021,1.39128 0.2772,0.93437 0.1516,4.56433 -0.2792,8.06658 -0.8778,7.13712 -3.339,10.07005 -8.4838,10.11003 -2.7426,0.0213 -2.8335,-0.12611 -2.1905,-3.55356 0.803,-4.27988 -0.6234,-6.4242 -4.273,-6.4242 -1.5437,0 -3.8957,-1.27521 -5.85562,-3.17487 -3.04835,-2.95458 -3.3995,-3.06278 -5.0607,-1.55941 -2.44677,2.2143 -9.67127,2.04107 -11.7739,-0.28231 -1.53962,-1.70127 -1.79426,-1.66341 -5.60883,0.83407 -2.90496,1.90193 -3.8618,3.12937 -3.50453,4.49561 0.2762,1.05617 -0.79262,3.96628 -2.4401,6.64379 -2.98246,4.84711 -4.90826,13.32143 -3.25896,14.34075 1.21676,0.752 9.888,-4.71008 10.65642,-6.71256 1.01412,-2.64276 3.2045,-1.78659 4.98581,1.94886 1.66286,3.48706 2.1927,6.46607 1.15003,6.46607 -0.29435,0 -1.59351,-0.69344 -2.88701,-1.54097 -2.261,-1.48147 -2.49135,-1.37797 -5.96482,2.68 -4.16679,4.86796 -4.10794,4.58349 -2.02507,9.78911 1.81141,4.52715 7.27857,9.16402 11.23234,9.52649 1.47386,0.13512 3.12974,0.39883 3.67974,0.58602 0.55,0.18719 2.48557,-0.0112 4.30126,-0.44086 2.8352,-0.67093 3.65267,-0.40204 5.79042,1.90463 2.34792,2.53344 2.61452,2.59548 4.69872,1.09326 1.2153,-0.87593 3.8971,-2.50289 5.9596,-3.61546 z M 998.13112,263.65799 C 996.90746,262.18357 997.59122,261 999.66667,261 1000.4,261 1001,261.9 1001,263 c 0,2.30734 -1.26017,2.59637 -2.86888,0.65799 z m 91.75088,6.15597 c 6.1901,-3.74009 7.9867,-5.98231 6.972,-8.70106 -0.8292,-2.22158 -1.2537,-2.34353 -6.1225,-1.75869 -2.8773,0.34562 -6.8709,0.63232 -8.8745,0.6371 -5.0322,0.012 -5.5421,2.15262 -1.806,7.5828 3.4554,5.02225 4.7411,5.31518 9.831,2.23985 z m -64.4168,-1.91755 c 5.7298,-5.03083 4.9036,-5.53939 -5.4652,-3.36412 -0.825,0.17308 -1.8375,0.34912 -2.25,0.3912 -1.1883,0.12122 -0.8714,3.55512 0.45,4.87651 1.8658,1.86583 3.4426,1.45268 7.2652,-1.90359 z m 18.5826,-21.19147 c 0.9776,-2.2177 0.9757,-3.3538 -0.01,-5.5 l -1.2414,-2.70494 -3.3852,3.9011 c -1.8619,2.14561 -4.3682,4.39561 -5.5696,5 -2.9002,1.45895 -3.4445,3.43737 -1.1756,4.27296 1.0083,0.37132 2.2024,1.2882 2.6536,2.03753 0.6471,1.07455 1.5255,0.77355 4.1578,-1.42459 1.8356,-1.53285 3.8919,-4.04478 4.5696,-5.58206 z m -78.87654,-11.35993 c 2.47042,-2.2357 2.30268,-3.27379 -0.42126,-2.60696 -2.95306,0.72293 -4.86503,2.26681 -4.17997,3.37526 0.83668,1.35378 2.57757,1.06309 4.60123,-0.7683 z m 82.13774,-3.65403 c -0.3074,-0.49748 -0.9231,-0.31545 -1.368,0.40451 -0.445,0.71996 -0.5575,1.71605 -0.25,2.21353 0.3074,0.49748 0.9231,0.31545 1.368,-0.40451 0.445,-0.71996 0.5575,-1.71605 0.25,-2.21353 z m -5.6259,-9.87848 c -0.3192,-0.79773 -0.5562,-0.56078 -0.6042,0.60417 -0.043,1.05416 0.193,1.64479 0.5253,1.3125 0.3323,-0.3323 0.3678,-1.1948 0.079,-1.91667 z M 46,541.01555 c -1.333333,-0.90271 -1.333333,-1.12496 0,-2.00024 0.825,-0.54158 2.277126,-0.99158 3.226947,-1 0.949821,-0.008 2.441608,-1.10602 3.315083,-2.43911 1.443679,-2.20334 1.445776,-2.6991 0.02305,-5.45034 -0.860795,-1.6646 -1.580054,-3.83639 -1.598352,-4.8262 -0.02882,-1.559 -0.292534,-1.48858 -1.972063,0.52662 C 47.009435,528.20829 45,528.01447 45,525.44098 c 0,-2.31867 -1.943837,-1.65835 -3.193753,1.08492 -1.421086,3.11894 -2.957057,2.74173 -3.949723,-0.96999 -0.624476,-2.335 -0.24668,-3.3196 2.220355,-5.78664 2.339126,-2.33912 3.268357,-2.72764 4.35897,-1.82251 0.950516,0.78886 1.589743,0.82085 2.03414,0.1018 1.171854,-1.8961 3.397688,-1.09695 4.73892,1.70144 2.085566,4.35139 3.2613,2.3298 2.942904,-5.0601 -0.263651,-6.11926 -0.108708,-6.77863 1.527386,-6.5 1.237781,0.21081 1.773935,-0.26461 1.674437,-1.48475 -0.176934,-2.16973 4.036584,-5.15312 6.138644,-4.34649 0.829246,0.31822 1.50772,0.14269 1.50772,-0.39004 0,-1.55391 3.006683,-1.11478 3.638374,0.53138 0.939215,2.44756 2.247274,1.72062 3.146205,-1.74847 1.133757,-4.37531 3.756551,-4.79588 4.569191,-0.73268 C 77.239186,504.44593 79,502.73061 79,497.44098 79,493.18607 79.124079,493 81.961456,493 c 2.649134,0 3.074584,0.44821 4.034144,4.25 0.589979,2.3375 1.519117,5.30956 2.064751,6.60457 0.905433,2.14896 1.178761,2.23061 3.130068,0.93499 1.175903,-0.78077 2.257924,-2.23664 2.404492,-3.23527 0.146567,-0.99863 0.777966,-2.31937 1.403108,-2.93499 1.462721,-1.44043 3.988478,1.71056 3.348322,4.17718 -0.243163,0.93693 0.254735,2.60352 1.106439,3.70352 1.53476,1.98219 1.56718,1.97796 3.63982,-0.47432 1.61087,-1.90593 1.95821,-3.3065 1.512,-6.09691 -0.3186,-1.99242 -0.5629,-10.32897 -0.5429,-18.52567 0.02,-8.19671 0.0109,-15.5781 -0.0203,-16.4031 -0.0311,-0.825 -0.23679,-12.75 -0.45699,-26.5 -0.2202,-13.75 -0.68318,-29.725 -1.02883,-35.5 -0.9238,-15.43419 -0.75284,-36.03203 0.32946,-39.69553 0.51923,-1.75754 1.25679,-6.11581 1.63902,-9.68505 0.4389,-4.09838 1.2073,-6.68611 2.08543,-7.02308 0.76475,-0.29346 1.39046,-1.35057 1.39046,-2.34912 0,-3.07789 10.26961,-12.3053 16.16946,-14.52851 8.4829,-3.19656 12.57564,-3.26648 18.45146,-0.31522 4.27007,2.14474 8.69093,5.64623 7.57565,6.0002 -0.16689,0.053 0.39561,1.76936 1.25,3.81419 0.85439,2.04484 1.55343,4.74781 1.55343,6.0066 0,1.2588 0.45594,3.86075 1.01319,5.78212 0.55725,1.92137 1.0659,5.62447 1.13032,8.22912 0.14418,5.82877 1.50051,7.10929 6.53069,6.16562 2.10419,-0.39475 3.8258,-0.5705 3.8258,-0.39055 0,0.17994 1.07843,-0.24999 2.39652,-0.95541 1.31809,-0.70542 6.26809,-1.64385 11,-2.0854 4.73191,-0.44154 9.72848,-1.11139 11.10348,-1.48854 1.375,-0.37716 4.527,-0.99492 7.00444,-1.37281 2.47744,-0.37788 5.13947,-1.07954 5.91562,-1.55922 0.77615,-0.47969 3.02415,-0.93171 4.99556,-1.0045 1.97141,-0.0728 4.5673,-0.67516 5.76864,-1.33862 1.20134,-0.66346 3.95888,-1.20629 6.12787,-1.20629 2.16899,0 5.58718,-0.68672 7.59597,-1.52605 2.00878,-0.83932 6.15937,-1.76387 9.22351,-2.05455 3.06414,-0.29068 7.77554,-1.39739 10.46978,-2.45936 2.69423,-1.06197 4.89861,-1.7487 4.89861,-1.52606 0,0.22264 1.4625,0.009 3.25,-0.47403 1.7875,-0.48336 4.68645,-1.12392 6.44211,-1.42346 1.75567,-0.29954 9.18067,-2.15727 16.5,-4.12829 7.31934,-1.97102 14.65789,-3.81149 16.30789,-4.08994 4.36118,-0.73597 5.16897,-1.76518 5.93851,-7.56625 0.38035,-2.8672 1.94483,-8.14685 3.47662,-11.73255 1.5318,-3.5857 3.32299,-7.89955 3.98044,-9.58632 0.65745,-1.68678 3.77276,-5.69908 6.92293,-8.91622 7.38155,-7.53849 11.04815,-8.71138 20.39628,-6.52444 9.04247,2.11543 13.86167,5.87252 17.32307,13.50524 5.88397,12.97471 6.56732,16.62659 7.01755,37.50228 0.53825,24.95691 1.17069,38.20103 2.62636,55 0.6434,7.425 1.28192,23.37757 1.41894,35.45015 0.22936,20.20834 0.39396,22.0034 2.07422,22.62117 1.00379,0.36906 8.33621,0.73763 16.29426,0.81903 7.95805,0.0814 14.88617,0.565 15.39583,1.07466 0.50966,0.50966 2.25658,0.66067 3.88204,0.33558 1.82598,-0.3652 3.24236,-0.12674 3.70634,0.62399 0.55142,0.89223 2.31844,0.39342 6.65035,-1.87731 3.24467,-1.70081 7.6987,-3.36811 9.89783,-3.70511 2.19914,-0.337 4.8111,-1.31938 5.80437,-2.18306 1.46667,-1.27532 2.17174,-1.34188 3.75315,-0.35427 1.10504,0.69011 4.86521,1.15122 8.69406,1.06615 3.71077,-0.0824 8.69647,0.39021 11.07934,1.05032 2.38287,0.66012 5.30787,1.08318 6.5,0.94015 1.19213,-0.14303 3.06751,0.21413 4.16751,0.7937 1.43236,0.75468 4.12866,0.6771 9.5,-0.27335 9.23427,-1.634 29.63231,-2.34949 30.89799,-1.08381 0.51118,0.51118 3.66772,0.99074 7.01454,1.06571 3.34682,0.075 6.08565,0.5113 6.0863,0.96963 6.4e-4,0.45834 0.56367,0.63968 1.25117,0.40298 0.6875,-0.23669 4.11737,0.64259 7.62194,1.95398 5.58049,2.08817 6.82259,2.23528 10,1.1844 1.99543,-0.65996 4.52806,-1.30188 5.62806,-1.42649 1.1,-0.12461 3.81697,-0.71805 6.0377,-1.31876 3.97993,-1.07657 14.58486,-2.4043 19.4623,-2.43667 6.56765,-0.0436 14.29217,1.45718 22.5,4.37142 7.09828,2.52029 10.73167,3.2209 17.1952,3.31566 7.88854,0.11565 8.32581,0.24678 11.68603,3.50432 3.47191,3.36581 3.51154,3.3761 7.30481,1.89512 2.09768,-0.81898 6.21819,-1.43985 9.15669,-1.37971 2.93851,0.0601 5.58226,-0.27821 5.875,-0.75188 0.29275,-0.47368 0.89004,-0.28234 1.32731,0.42518 0.43728,0.70753 1.61853,1.37377 2.625,1.48054 3.32397,0.3526 11.80592,2.83032 13.17485,3.84858 1.835,1.36496 26.89157,1.83343 27.70456,0.51799 0.39935,-0.64617 1.05202,-0.67174 1.78958,-0.0701 1.28773,1.05038 23.77669,2.61893 33.16097,2.31289 3.3,-0.10763 7.35,-0.17197 9,-0.14298 11.79859,0.20724 51.24253,0.25308 61.5,0.0715 6.875,-0.12171 13.175,-0.16927 14,-0.10567 0.825,0.0636 5.1,0.081 9.5,0.0388 11.34953,-0.10908 27.85607,0.85432 35.67162,2.08196 4.78533,0.75166 7.25345,0.73657 8.72948,-0.0534 2.27453,-1.21729 7.0989,-0.41678 7.0989,1.17792 0,0.64277 0.48468,0.61179 1.32379,-0.0846 0.9667,-0.80229 1.64108,-0.78137 2.5,0.0776 1.49316,1.49316 1.508,3.45312 0.0331,4.36469 -1.62221,1.00258 -19.61688,0.60866 -21.65837,-0.47412 -0.93416,-0.49546 -5.81623,-0.6068 -10.84905,-0.2474 -5.03282,0.35939 -10.63575,0.34969 -12.45097,-0.0216 -1.81521,-0.37126 -15.02245,-0.74479 -29.34942,-0.83008 -76.35061,-0.45452 -101.34902,-0.77367 -102.20857,-1.3049 -0.52297,-0.32322 -2.72602,-0.18265 -4.89566,0.31238 -3.32924,0.7596 -8.21858,0.91528 -27.9163,0.88891 -1.08432,-10e-4 -2.66765,-0.63265 -3.51851,-1.40267 -0.85085,-0.77001 -2.43868,-1.23398 -3.5285,-1.03104 -1.08982,0.20294 -1.98149,0.41739 -1.98149,0.47656 0,0.55779 -12.33639,0.76459 -13.21508,0.22153 -0.63957,-0.39528 -1.39554,-2.00182 -1.67992,-3.57008 -0.71134,-3.92283 -0.92287,-4.01249 -5.80034,-2.45872 -3.83433,1.22147 -4.27294,1.67249 -4.01432,4.12791 0.34644,3.28915 -2.49885,4.99704 -3.96382,2.37929 C 619.85647,475.92111 617,475.35267 617,476.89301 c 0,2.38313 -2.20469,2.63807 -32,3.70023 -27.52452,0.98122 -36.87414,0.5659 -41.80446,-1.85701 -2.00059,-0.98315 -2.59396,-0.77844 -4.5,1.55247 l -2.19554,2.68494 -8,-1.28628 c -4.4,-0.70746 -13.27973,-1.18193 -19.73274,-1.05439 -6.45438,0.12757 -11.992,-0.18759 -12.30902,-0.70054 -0.78026,-1.26248 -5.80601,-1.18466 -7.10062,0.10995 -0.72318,0.72318 -1.40745,0.60251 -2.23452,-0.39405 -0.94201,-1.13506 -0.82999,-1.79859 0.53394,-3.16252 1.42968,-1.42968 2.68056,-1.59643 7.28452,-0.97111 3.05714,0.41523 11.40844,0.71971 18.55844,0.67662 9.69968,-0.0585 13.55791,0.28525 15.1976,1.35388 2.46105,1.60394 4.76664,1.0874 7.96224,-1.78383 1.94761,-1.74991 2.69407,-1.82969 7.59657,-0.81194 2.9902,0.62076 11.01827,1.07726 17.84016,1.01444 19.16177,-0.17645 20.91323,-0.14106 28.52928,0.57646 7.72822,0.72808 11.94884,-0.51813 17.70088,-5.2265 1.55469,-1.2726 3.46719,-2.31383 4.25,-2.31383 1.65471,0 1.89761,-1.58881 0.38574,-2.5232 -0.57064,-0.35267 -4.28314,-0.8064 -8.25,-1.00828 -3.96686,-0.20188 -9.46247,-0.83787 -12.21247,-1.41331 -2.75,-0.57544 -7.475,-1.47207 -10.5,-1.99252 -3.025,-0.52045 -7.07203,-1.42246 -8.9934,-2.00448 -4.82483,-1.46152 -4.80883,-1.4673 -6.38479,2.30449 -1.46891,3.51561 -5.51792,5.25021 -8.61117,3.68904 -1.96887,-0.99369 -28.36502,-0.54177 -38.01064,0.65077 -4.125,0.51 -14.925,0.86059 -24,0.77909 -17.01586,-0.15281 -20.75277,-0.81486 -29.61852,-5.24738 -4.27877,-2.13922 -3.32867,-2.20291 -40.38148,2.70675 -15.5407,2.05921 -25.62207,3.06843 -36,3.60385 -10.50339,0.54189 -16.57078,1.41818 -27.5,3.97171 -7.5564,1.7655 -10.50241,2.2742 -17.99289,3.10695 -3.30391,0.36731 -7.74253,1.27423 -9.86359,2.01539 -2.12106,0.74115 -4.19862,1.13609 -4.61679,0.87765 -0.41817,-0.25844 -4.53276,0.23031 -9.14352,1.08612 C 306.29878,482.30967 291,481.7093 291,478.42994 c 0,-0.81369 -1.18439,-1.92975 -2.63198,-2.48012 -2.54967,-0.96938 -2.57609,-1.06242 -0.84501,-2.97525 0.98283,-1.08601 2.56556,-1.97457 3.51717,-1.97457 2.80388,0 8.33217,-2.65184 7.10692,-3.40909 -0.60817,-0.37587 -2.02016,-0.19403 -3.13775,0.40408 -1.11759,0.59812 -2.58939,0.97771 -3.27066,0.84353 -1.39536,-0.27481 -8.70615,2.00883 -10.23869,3.19822 -0.55,0.42685 -3.25,1.08931 -6,1.47214 -2.75,0.38283 -8.375,1.59612 -12.5,2.69619 -4.125,1.10008 -8.625,2.23935 -10,2.53173 -1.375,0.29237 -3.0168,0.93838 -3.64845,1.43556 -0.63165,0.49718 -2.65665,0.83331 -4.5,0.74694 -2.89056,-0.13543 -14.92359,4.2182 -26.35155,9.53416 -1.65,0.76753 -4.68123,1.91232 -6.73607,2.54398 -2.05484,0.63166 -3.9939,1.56564 -4.30902,2.07552 -0.31512,0.50987 -1.45249,0.92704 -2.5275,0.92704 -1.075,0 -2.73594,0.39838 -3.69098,0.88529 -0.95504,0.48691 -7.13643,3.48348 -13.73643,6.65905 -6.6,3.17556 -13.93414,6.71468 -16.29808,7.86471 -2.36395,1.15002 -5.4655,3.30742 -6.89233,4.79423 -2.26147,2.35651 -2.51597,3.27436 -1.98402,7.15533 0.47829,3.48952 0.27518,4.58062 -0.93946,5.04672 -2.78355,1.06815 -3.46645,0.64531 -5.09595,-3.15533 -1.88749,-4.40236 -3.08568,-17.17122 -3.82386,-40.75 -0.4352,-13.90116 -1.01865,-27.61629 -1.4003,-32.91667 -0.0363,-0.50416 -0.30622,-0.67644 -0.59983,-0.38283 -0.29361,0.2936 -0.68427,5.2061 -0.86815,10.91666 -0.18387,5.71056 -0.65282,13.30784 -1.0421,16.88284 -0.77119,7.0823 -1.24585,15.50604 -2.00035,35.5 -0.57426,15.21758 -1.00428,17.16991 -3.89625,17.68938 -3.7114,0.66666 -5.87725,-0.18821 -5.13513,-2.02684 0.36907,-0.9144 0.86879,-5.26254 1.11048,-9.66254 0.24169,-4.4 1.11421,-14.75 1.93894,-23 1.7499,-17.50491 2.24643,-25.53789 2.84328,-46 0.24064,-8.25 0.73578,-17.98592 1.1003,-21.63537 0.44566,-4.46177 0.29817,-6.86071 -0.45025,-7.32326 -1.22946,-0.75984 -1.5294,-9.03529 -1.14828,-31.68135 0.15669,-9.31057 -0.13179,-14.87371 -0.79247,-15.28203 -0.57136,-0.35312 -0.76792,-1.34804 -0.4368,-2.21094 0.33113,-0.86289 0.003,-1.93919 -0.72937,-2.39176 -1.02975,-0.63642 -1.0652,-1.14363 -0.15648,-2.23858 1.7167,-2.06848 -0.45527,-23.07674 -2.88069,-27.86338 C 135.89667,336.87462 134.40846,336 129.63062,336 c -4.51909,0 -11.24262,7.29473 -16.12968,17.5 l -3.83101,8 -0.29287,15.12371 c -0.16108,8.31804 -0.39491,15.51804 -0.51964,16 -0.12472,0.48196 0.13024,5.93452 0.56658,12.1168 0.43634,6.18228 0.80451,31.51045 0.81815,56.28483 0.0226,41.14805 0.17436,45.23592 1.75388,47.25949 3.13018,4.01017 6.03116,10.63438 6.6571,15.2011 0.33865,2.47077 1.23024,5.00231 1.9813,5.62564 0.75107,0.62333 1.36557,1.75322 1.36557,2.51087 0,0.75766 0.975,1.37756 2.16667,1.37756 3.37896,0 1.32569,1.21849 -2.88429,1.71165 -6.02373,0.70562 -18.38621,0.71711 -23.236872,0.0216 -2.770193,-0.39721 -4.970348,-0.21059 -5.818783,0.49355 -0.75036,0.62274 -5.226597,1.24786 -9.947193,1.38914 -5.76876,0.17266 -8.851713,0.68759 -9.402751,1.57048 -0.618242,0.99056 -1.253791,1.04301 -2.584515,0.2133 -1.300238,-0.81071 -2.557847,-0.77705 -4.778467,0.12789 C 63.85621,539.20311 61.375,539.64716 60,539.51438 58.625,539.38161 56.998172,539.6663 56.384827,540.14704 54.602723,541.54383 47.640346,542.12611 46,541.01555 Z M 72,533 c 0,-0.55 -0.701558,-1 -1.559017,-1 -0.857459,0 -1.280902,0.45 -0.940983,1 0.339919,0.55 1.041476,1 1.559017,1 C 71.576558,534 72,533.55 72,533 Z m -8.723224,-2.81474 c 1.069378,-0.88751 1.443212,-3.13563 1.350881,-8.1238 -0.17186,-9.28478 -2.156501,-11.45632 -3.178062,-3.47734 -0.271913,2.1238 -1.159309,4.23355 -1.971991,4.68835 -1.42103,0.79525 -2.103272,6.76853 -0.909427,7.96237 0.836809,0.83681 3.02275,0.34955 4.708599,-1.04958 z M 69,521 c 0,-0.55 -0.45,-1 -1,-1 -0.55,0 -1,0.45 -1,1 0,0.55 0.45,1 1,1 0.55,0 1,-0.45 1,-1 z m 1.683114,-11.1875 c -0.319226,-0.79773 -0.556183,-0.56078 -0.604167,0.60417 -0.04342,1.05416 0.192928,1.64479 0.52522,1.3125 0.332291,-0.33229 0.367818,-1.1948 0.07895,-1.91667 z m 98.258056,-3.53105 c 2.99265,-1.8048 6.06017,-3.28145 6.81672,-3.28145 0.75656,0 2.8505,-1.125 4.65322,-2.5 1.80272,-1.375 3.69186,-2.5 4.19809,-2.5 0.50623,0 2.57397,-0.88625 4.59498,-1.96945 2.02101,-1.0832 4.77252,-2.16855 6.11446,-2.41189 1.34194,-0.24334 3.73172,-1.0936 5.31063,-1.88948 1.5789,-0.79587 4.50279,-1.69823 6.49753,-2.00525 1.99474,-0.30701 5.59474,-1.53574 8,-2.7305 3.79284,-1.88402 15.43849,-6.58008 18.3732,-7.40892 1.32836,-0.37517 3.97566,-1.3593 9.92053,-3.68798 2.7063,-1.06009 6.7563,-2.18047 9,-2.48973 2.24371,-0.30927 4.97947,-0.93911 6.07947,-1.39964 5.96373,-2.49685 14.50051,-4.57753 39.5,-9.62739 4.675,-0.94434 9.04683,-2.13321 9.71517,-2.64192 1.16136,-0.88397 1.15312,-2.03728 -0.14509,-20.29815 -0.30396,-4.27556 -1.29346,-5.59556 -3.36644,-4.49087 C 299.47002,437.47141 293.17479,440 291.62819,440 c -0.9572,0 -4.52763,1.38384 -7.93428,3.07519 -3.40665,1.69135 -7.99391,3.45986 -10.19391,3.93002 -2.2,0.47015 -7.15,2.00935 -11,3.42045 -3.85,1.41109 -7.79361,2.56759 -8.76357,2.56998 -0.96996,0.002 -2.54496,0.40904 -3.5,0.90364 -3.26324,1.69 -18.36138,7.10072 -19.81395,7.10072 -0.79729,0 -2.23101,0.38379 -3.18605,0.85286 -6.01882,2.95619 -8.99376,4.16817 -10.8889,4.43608 -1.18386,0.16736 -2.75886,0.77066 -3.5,1.34068 -0.74114,0.57001 -5.39753,2.94399 -10.34753,5.27549 -4.95,2.3315 -11.025,5.35698 -13.5,6.72328 -3.93135,2.17027 -12.19401,6.18366 -24.82709,12.05917 -2.0201,0.93953 -4.01282,2.18168 -4.42827,2.76034 -0.73223,1.01989 0.0668,14.27345 0.95367,15.81841 0.24194,0.42147 0.97129,0.43563 1.62079,0.0315 0.64949,-0.40418 3.62943,-2.21152 6.62207,-4.01632 z M 186,473.90159 c 5.225,-2.29308 13.1,-5.88435 17.5,-7.9806 4.4,-2.09625 9.35,-4.33967 11,-4.98538 1.65,-0.6457 2.47938,-1.3689 1.84307,-1.60712 -0.63631,-0.23821 -2.88631,0.33972 -5,1.2843 -2.11369,0.94457 -5.64307,2.2672 -7.84307,2.93918 -2.2,0.67198 -7.15,2.44301 -11,3.93562 -3.85,1.49262 -9.25,3.53858 -12,4.54658 -2.75,1.00801 -6.68535,2.54283 -8.74523,3.41071 -2.05987,0.86788 -4.08487,1.62108 -4.5,1.67376 -0.41512,0.0527 -2.38447,0.9272 -4.37632,1.94337 -3.36807,1.71826 -5.45659,5.19353 -4.27251,7.10941 0.28021,0.45338 4.421,-1.18378 9.20176,-3.63813 4.78077,-2.45435 12.9673,-6.33862 18.1923,-8.6317 z m -10.88869,-4.33222 c 2.53622,-0.75856 5.46122,-1.81347 6.5,-2.34425 C 187.13719,464.40158 193.27849,462 194.97294,462 c 1.05569,0 5.4195,-1.8112 9.69735,-4.02489 4.27785,-2.21369 8.46457,-3.9089 9.30381,-3.76713 0.83925,0.14178 2.63853,-0.52202 3.99841,-1.4751 1.35987,-0.95309 3.15987,-1.74719 4,-1.76468 1.48781,-0.031 6.1254,-2.9682 4.6865,-2.9682 -0.39779,0 -2.39629,0.70525 -4.44113,1.56722 -2.04483,0.86197 -4.94848,1.72833 -6.45255,1.92524 -1.50407,0.19691 -5.55407,1.48277 -9,2.85747 -3.44593,1.3747 -7.61533,2.80206 -9.26533,3.17192 -1.65,0.36987 -6.825,2.14521 -11.5,3.94522 -4.675,1.8 -12.50974,4.56878 -17.41053,6.15283 -8.97646,2.90141 -11.43041,4.74625 -10.28472,7.73189 0.54334,1.41592 1.36323,1.23814 6.40915,-1.3898 3.18235,-1.65738 7.86119,-3.63406 10.39741,-4.39262 z M 643,472 c 0,-0.55 -0.42344,-1 -0.94098,-1 -0.51754,0 -1.2191,0.45 -1.55902,1 -0.33992,0.55 0.0835,1 0.94098,1 0.85746,0 1.55902,-0.45 1.55902,-1 z m -476.33291,-8.08542 c 2.6581,-1.14698 10.90791,-4.10827 18.33291,-6.58064 7.425,-2.47237 16.65,-5.79234 20.5,-7.3777 3.85,-1.58536 9.25,-3.36217 12,-3.94845 5.15566,-1.09915 36.21482,-10.40169 40.29705,-12.06939 1.26338,-0.51612 3.25666,-0.9384 4.42951,-0.9384 2.18001,0 10.19382,-2.37533 21.77344,-6.45375 3.575,-1.25913 8.525,-2.83271 11,-3.49684 9.0252,-2.42177 9.51598,-2.92457 9.36825,-9.59784 -0.20265,-9.15424 -1.44297,-19.84958 -2.4199,-20.86688 -0.52857,-0.55043 -2.54243,-0.2619 -5.05163,0.72374 -2.29496,0.90149 -4.51265,1.42894 -4.92821,1.17211 -0.41555,-0.25683 -2.71597,0.23916 -5.11203,1.1022 -2.39606,0.86304 -5.18989,1.74299 -6.20851,1.95544 -1.01861,0.21246 -2.48662,0.91295 -3.26223,1.55665 -0.77561,0.6437 -2.6422,1.31428 -4.14797,1.49018 -1.50577,0.1759 -6.11277,1.72622 -10.23777,3.44515 -4.125,1.71894 -8.175,3.26978 -9,3.44631 -0.825,0.17653 -4.2,1.30361 -7.5,2.50463 -3.3,1.20102 -7.575,2.62894 -9.5,3.17316 -8.3423,2.35845 -18.90746,6.28886 -26.63168,9.90743 -4.57519,2.14334 -10.46723,4.41746 -13.09342,5.0536 -2.6262,0.63615 -5.2024,1.54545 -5.7249,2.02067 -0.5225,0.47522 -1.8725,0.86681 -3,0.8702 -1.1275,0.003 -3.244,0.62913 -4.70333,1.39054 -1.45933,0.76142 -4.38433,1.94548 -6.5,2.63127 -2.11567,0.68578 -6.32167,2.47026 -9.34667,3.96552 -3.025,1.49525 -6.72142,3.01295 -8.21426,3.37266 -2.66426,0.64197 -2.71394,0.7966 -2.69671,8.39393 0.0204,8.99024 1.40099,15.23992 3.36661,15.23992 0.7582,0 3.55336,-0.93844 6.21145,-2.08542 z m 341.79364,-1.57086 c 8.56457,-0.79198 6.49794,-1.79358 -5.79403,-2.80809 -9.43259,-0.77851 -24.6667,0.1387 -24.6667,1.48512 0,2.72715 10.39404,3.17859 30.46073,1.32297 z m -82.65228,-1.32883 c 3.68035,-0.54181 8.04155,-1.17981 9.69155,-1.41777 1.65,-0.23796 5.3625,-0.46966 8.25,-0.51489 6.04337,-0.0947 6.98603,-1.53883 1.57736,-2.41653 -4.48571,-0.72793 -24.45973,1.14502 -25.77736,2.41712 -0.5225,0.50445 -1.76,0.91718 -2.75,0.91718 -0.99,0 -1.8,0.45 -1.8,1 0,1.25579 2.35736,1.25903 10.80845,0.0149 z m 93.44155,0.32283 c -0.6875,-0.27741 -1.8125,-0.27741 -2.5,0 -0.6875,0.27741 -0.125,0.50439 1.25,0.50439 1.375,0 1.9375,-0.22698 1.25,-0.50439 z m -288.50653,-4.71661 c 6.38132,-2.45878 9.94343,-4.63192 7.56555,-4.61553 -3.92629,0.0271 -19.45122,5.95531 -18.71508,7.14642 0.71204,1.1521 2.85123,0.66652 11.14953,-2.53089 z m 113.48945,0.54597 c 1.26498,-1.26498 1.54481,-93.23283 0.32303,-106.16708 -0.38964,-4.125 -0.85958,-10.96745 -1.04429,-15.20545 -0.93998,-21.56666 -8.57973,-39.41778 -15.91879,-37.196 -2.64996,0.80223 -8.62513,5.24628 -9.08533,6.75724 -0.19168,0.62932 -1.76795,5.01263 -3.50283,9.74069 -1.8773,5.11621 -3.02283,9.95008 -2.82952,11.93995 l 0.32481,3.34346 6.18903,-0.25819 c 6.02364,-0.25129 6.23222,-0.17467 7.80526,2.86726 0.88893,1.71901 1.68905,4.95142 1.77805,7.18316 0.13182,3.30566 -0.35209,4.49973 -2.61103,6.44278 -1.6932,1.45644 -4.03947,2.3851 -6.02594,2.3851 -5.70992,0 -6.63673,1.48724 -6.85816,11.00517 -0.10883,4.67784 0.14833,9.06534 0.57148,9.75 1.03696,1.67785 4.12458,1.56857 7.68374,-0.27194 4.40525,-2.27804 11.1125,-2.90615 13.32322,-1.24767 1.45347,1.0904 1.84054,2.65639 1.78597,7.22554 -0.0907,7.59615 -1.98925,9.6842 -10.36702,11.40197 -9.68863,1.98653 -10.47724,2.47512 -10.99444,6.81164 -0.25092,2.10391 -0.24091,8.02375 0.0222,13.1552 0.45797,8.93001 0.56889,9.30251 2.58804,8.6909 1.16026,-0.35145 4.59137,-0.87445 7.6247,-1.16223 4.90514,-0.46537 5.81763,-0.2429 8.25,2.01134 2.10696,1.95267 2.73486,3.45861 2.73486,6.55928 0,4.7669 -1.3731,5.85592 -10.85066,8.60579 -3.87788,1.12515 -6.86191,2.64519 -7.66368,3.90381 -1.13522,1.78206 -1.4221,11.81766 -0.62177,21.7505 0.1216,1.50916 1.52862,1.65742 13.19567,1.39043 7.86515,-0.17999 13.50258,-0.74187 14.17336,-1.41265 z m 15.05833,-2.17251 c 1.06656,-1.52273 1.33007,-4.95271 1.09476,-14.25 -0.50445,-19.93073 -1.23168,-34.68584 -1.75097,-35.52607 -0.2671,-0.43218 -0.73959,-5.46621 -1.04998,-11.18672 -0.31039,-5.72052 -1.01386,-10.67876 -1.56328,-11.01832 -0.62272,-0.38486 -1.0205,-10.72187 -1.05621,-27.44738 -0.0599,-28.03645 -1.40788,-41.5398 -4.63918,-46.47139 -1.78287,-2.72099 -9.45449,-10.06321 -10.53457,-10.08222 -0.38949,-0.007 0.66452,3.02503 2.34226,6.73753 2.41322,5.33996 3.35471,9.46563 4.507,19.75 2.72529,24.32356 3.12171,29.99323 2.86673,41 -0.5151,22.23542 -0.46886,88.754 0.0623,89.61344 0.30136,0.48761 2.29585,0.88656 4.4322,0.88656 2.75417,0 4.29296,-0.58347 5.28894,-2.00543 z M 249.45,448.87089 c 1.56605,-1.43564 -1.71223,-0.94009 -4.45,0.67268 l -2.5,1.47269 3,-0.63724 c 1.65,-0.35048 3.4275,-1.02914 3.95,-1.50813 z m -81.65948,-14.3356 c 3.45979,-1.45614 11.55979,-4.22358 18,-6.14987 6.44022,-1.92629 12.60948,-3.88015 13.70948,-4.34192 6.50915,-2.73247 9.37456,-3.87735 12.5,-4.99441 1.925,-0.68801 4.4,-1.63715 5.5,-2.10919 7.3804,-3.16714 15.10086,-5.9399 16.53906,-5.9399 0.93183,0 3.89174,-0.87876 6.57759,-1.9528 2.68584,-1.07404 8.34426,-2.97313 12.57425,-4.22021 7.5717,-2.23225 11.67598,-4.29345 10.63065,-5.33877 -1.16646,-1.16646 -28.2664,6.5174 -38.82155,11.00738 -3.025,1.28678 -7.3,2.82 -9.5,3.40715 -2.2,0.58715 -11.2,3.80973 -20,7.16128 -8.8,3.35156 -19.15,7.20509 -23,8.5634 -3.85,1.35832 -7.9,2.88853 -9,3.40048 -1.1,0.51195 -3.26458,1.38926 -4.81017,1.94958 -1.63622,0.59317 -2.5272,1.47664 -2.13279,2.11481 0.84078,1.36041 3.20356,0.82258 11.23348,-2.55701 z m 3.734,-9.6461 c 0.56348,-0.4179 3.26348,-1.50104 6,-2.40698 2.73651,-0.90594 7.90048,-2.91009 11.47548,-4.45367 7.51057,-3.24283 15.0171,-5.62509 16.58883,-5.26461 1.24471,0.28547 4.99449,-3.51394 4.22624,-4.28219 -0.2783,-0.2783 -2.70858,0.46831 -5.40064,1.65913 -2.69205,1.19083 -6.42389,2.10765 -8.29298,2.03738 -1.86909,-0.0703 -4.57354,0.5127 -6.0099,1.29548 C 185.44638,416.01616 177.79024,419 175.9319,419 c -0.99763,0 -2.09198,0.45 -2.4319,1 -0.33992,0.55 -1.68992,1 -3,1 -1.31008,0 -2.62193,0.38827 -2.91522,0.86283 -0.29329,0.47455 -2.61082,1.4445 -5.15006,2.15545 -4.70621,1.31766 -6.09645,2.8149 -5.07802,5.46888 0.47972,1.25013 1.57261,1.06278 6.85699,-1.17549 3.45747,-1.46447 6.74734,-3.00458 7.31083,-3.42248 z m -4.37813,-7.88576 c 4.04448,-1.64812 8.02861,-2.99847 8.85361,-3.00079 0.825,-0.002 4.32311,-1.33977 7.77357,-2.97211 3.45046,-1.63235 8.62546,-3.27985 11.5,-3.66113 2.87454,-0.38128 7.47643,-1.74098 10.22643,-3.02155 2.75,-1.28057 5.75821,-2.33271 6.6849,-2.33808 0.9267,-0.005 2.9517,-0.52892 4.5,-1.16343 1.54831,-0.63451 3.2651,-1.26359 3.8151,-1.39795 0.55,-0.13436 4.45434,-1.41522 8.67632,-2.84634 4.22197,-1.43113 8.73434,-2.60205 10.02749,-2.60205 1.29315,0 3.27245,-0.64529 4.39846,-1.43397 1.126,-0.78868 5.80686,-2.39388 10.40192,-3.5671 4.59505,-1.17322 9.56385,-2.75844 11.04178,-3.5227 1.47792,-0.76427 5.4431,-1.83341 8.81151,-2.37587 5.7716,-0.92949 16.61023,-4.20992 20.32121,-6.15043 1.00397,-0.52499 1.80783,-0.4949 2,0.0749 0.17672,0.52398 1.56678,-0.0548 3.08903,-1.28606 2.53474,-2.05029 2.68205,-2.53282 1.75,-5.73215 -0.55975,-1.92139 -1.01772,-6.05733 -1.01772,-9.191 0,-3.13367 -0.36466,-5.92296 -0.81035,-6.19841 -0.81999,-0.50678 -2.50018,-0.18262 -18.68965,3.60584 -12.04355,2.81828 -31.93837,8.2844 -37.47716,10.29688 -2.46244,0.89472 -5.83744,1.65237 -7.5,1.68368 -1.66256,0.0313 -4.14784,0.62891 -5.52284,1.32802 -2.76723,1.40698 -9.86601,3.45398 -14.5,4.18121 -2.82545,0.44341 -31.86562,9.75244 -45,14.42507 -3.3,1.174 -8.025,2.6893 -10.5,3.36735 l -4.5,1.23282 -0.0907,9.38096 C 155.28579,416.89096 155.79448,420 158.00768,420 c 0.9818,0 5.09422,-1.34846 9.13871,-2.99657 z M 219,406 c 1.21948,-0.78809 1.09025,-0.97224 -0.69098,-0.98469 -1.20504,-0.008 -2.4691,0.43469 -2.80902,0.98469 -0.78687,1.27319 1.52988,1.27319 3.5,0 z m 14,-3.10074 c 4.04699,-1.07244 14.86921,-4.88781 15.91667,-5.61142 1.41603,-0.97823 -1.32457,-1.38422 -3.63461,-0.53842 -1.53013,0.56025 -4.80706,1.57581 -7.28206,2.25682 -10.67467,2.93717 -16.97945,5.21799 -16.51248,5.97356 0.276,0.44659 1.96672,0.42947 3.75715,-0.038 1.79043,-0.46751 5.28033,-1.38664 7.75533,-2.0425 z m 23.72917,-9.50343 c -0.33229,-0.33229 -1.1948,-0.36781 -1.91667,-0.0789 -0.79773,0.31922 -0.56078,0.55618 0.60417,0.60416 1.05416,0.0434 1.64479,-0.19293 1.3125,-0.52522 z M 171,384.85813 c 5.225,-1.76894 12.73191,-4.48596 16.68202,-6.03783 3.95011,-1.55187 9.05565,-3.05699 11.34564,-3.34472 2.28998,-0.28772 5.44823,-1.18743 7.01832,-1.99935 1.57008,-0.81193 3.77705,-1.47623 4.90436,-1.47623 1.12731,0 2.05351,-0.3375 2.05821,-0.75 0.005,-0.4125 2.8172,-1.61155 6.25,-2.66456 7.78237,-2.38724 20.94773,-7.51512 22.11813,-8.61496 0.48217,-0.45311 -1.05679,-0.1577 -3.41991,0.65646 -8.99317,3.0984 -21.19186,6.3458 -21.98839,5.85352 -0.4566,-0.2822 -1.11284,-0.0557 -1.4583,0.50323 -0.34546,0.55897 -1.7,1.01631 -3.01008,1.01631 -1.31008,0 -2.66008,0.45 -3,1 -0.33992,0.55 -1.82898,1.01431 -3.30902,1.0318 -1.48004,0.0175 -3.56449,0.6925 -4.63211,1.5 -1.06762,0.80751 -3.3715,1.4682 -5.11973,1.4682 -1.74823,0 -5.99584,0.9 -9.43914,2 -3.4433,1.1 -6.76442,1.99634 -7.38027,1.99186 -2.66178,-0.0193 -20.91048,6.60225 -21.34969,7.7468 -0.84732,2.20809 0.63123,4.52904 2.49211,3.91198 0.95582,-0.31695 6.01285,-2.02358 11.23785,-3.79251 z M 328.5,380 c 0.731,-1.18278 -0.24752,-1.18278 -3,0 -1.92824,0.82859 -1.92138,0.86195 0.19098,0.92971 1.20504,0.0387 2.4691,-0.37971 2.80902,-0.92971 z m -153,-6.09027 c 9.35,-2.77322 18.46667,-5.28713 20.25927,-5.58646 3.78769,-0.63248 5.37888,-2.32327 2.18641,-2.32327 -1.19479,0 -5.83384,0.86823 -10.30901,1.9294 -4.47517,1.06117 -10.61167,2.19235 -13.63667,2.51373 -17.24458,1.83209 -16.8135,1.73568 -17.37589,3.88626 -0.41022,1.56868 0.81409,4.82256 1.74833,4.64658 0.0702,-0.0132 7.77756,-2.29302 17.12756,-5.06624 z M 238,366 c 0,-0.55 -0.19844,-1 -0.44098,-1 -0.24254,0 -0.7191,0.45 -1.05902,1 -0.33992,0.55 -0.14148,1 0.44098,1 0.58246,0 1.05902,-0.45 1.05902,-1 z m -28.58631,-2.04151 c 0.53257,-0.51635 -0.71881,-0.63813 -3,-0.29195 -2.15253,0.32667 -4.36369,1.03991 -4.91369,1.58499 -0.66119,0.65527 0.35525,0.75419 3,0.29195 2.2,-0.38451 4.41116,-1.09776 4.91369,-1.58499 z m 16.2988,-4.03594 c 3.18313,-1.14259 6.41442,-2.27818 7.18064,-2.52353 0.76622,-0.24536 1.12264,-0.71658 0.79205,-1.04717 -0.33058,-0.33059 -3.43249,0.3389 -6.89312,1.48775 -3.46063,1.14885 -7.64206,2.5194 -9.29206,3.04566 l -3,0.95685 2.71249,0.0789 c 1.49187,0.0434 5.31687,-0.8559 8.5,-1.9985 z M 858,471.94098 c 0,-0.58246 0.45,-0.7809 1,-0.44098 0.55,0.33992 1,0.81648 1,1.05902 0,0.24254 -0.45,0.44098 -1,0.44098 -0.55,0 -1,-0.47656 -1,-1.05902 z M 480.00157,377.28855 C 476.66569,374.952 475.86261,371.48202 475.30608,357 l -0.51879,-13.5 -8.65469,-8.12704 c -4.76008,-4.46987 -10.67472,-9.74715 -13.14365,-11.72729 -4.09748,-3.28628 -21.072,-16.66508 -26.5234,-20.90493 -2.28812,-1.77959 -6.07229,-1.86603 -7.29779,-0.16669 -0.97665,1.35427 -6.75553,4.42628 -8.32205,4.42394 -0.74014,-0.001 -4.30145,-1.91361 -7.91403,-4.25 -3.61257,-2.3364 -8.11257,-5.11094 -10,-6.16565 -3.99927,-2.23484 -6.76812,-4.35992 -16.74877,-12.85463 -4.0244,-3.42524 -9.6494,-8.18462 -12.5,-10.57641 -8.947,-7.50695 -30.6765,-28.59904 -30.67978,-29.77983 -0.005,-1.79397 -10.20715,-9.98278 -13.42529,-10.77586 -5.28928,-1.30348 -9.00684,-6.62218 -10.49917,-15.0211 -0.73096,-4.11385 -1.02512,-8.27166 -0.6537,-9.23957 0.37142,-0.96792 0.91659,-5.15174 1.21149,-9.29739 0.29491,-4.14565 0.90228,-9.11255 1.34973,-11.03755 0.44745,-1.925 0.82247,-4.175 0.83338,-5 0.0109,-0.825 0.32693,-2.625 0.70228,-4 0.37535,-1.375 1.00026,-4.525 1.38869,-7 0.38844,-2.475 1.34474,-5.50293 2.12512,-6.72873 1.18415,-1.86004 1.20513,-2.76989 0.12684,-5.5 -0.71062,-1.7992 -1.436,-4.37475 -1.61195,-5.72345 -0.37285,-2.85795 -5.15495,-7.03816 -8.05055,-7.03728 -1.1,3.4e-4 -3.575,0.42882 -5.5,0.95218 -1.925,0.52336 -7.19112,1.40554 -11.70249,1.96041 -7.68863,0.94564 -8.54607,0.85689 -13.68707,-1.41671 -4.06453,-1.79752 -6.51675,-3.79533 -9.47104,-7.71598 -2.19255,-2.90974 -4.28871,-6.50425 -4.65813,-7.98781 -0.97245,-3.90528 -4.10507,-5.49479 -13.58252,-6.89187 -4.61931,-0.68093 -8.94825,-1.65873 -9.61986,-2.17287 -1.12043,-0.85775 -14.00146,3.21184 -16.77889,5.30107 -1.87824,1.41285 -10.28659,1.99267 -13.14757,0.90664 -1.56884,-0.59554 -4.90461,-3.30192 -7.41284,-6.0142 -2.50823,-2.71227 -5.17678,-4.9314 -5.93011,-4.9314 -2.32398,0 -9.59761,8.68192 -10.89136,13.0001 -0.79886,2.66636 -2.0847,4.48318 -3.69085,5.21499 -2.15244,0.98072 -2.84557,0.75833 -5.46839,-1.75448 -3.37323,-3.23176 -5.6282,-9.37473 -4.45474,-12.13554 0.42665,-1.00379 0.94523,-4.22013 1.15238,-7.14742 0.20716,-2.92729 1.26932,-7.07211 2.36035,-9.21071 1.09103,-2.13859 2.13328,-4.69354 2.31611,-5.67765 0.43479,-2.340321 5.53606,-13.566237 6.47788,-14.255305 C 184.19671,86.020043 186,80.896657 186,77.973183 c 0,-1.61299 0.70386,-4.69184 1.56414,-6.841887 1.29516,-3.236909 1.37538,-4.950182 0.46646,-9.962521 -2.05411,-11.327766 0.85595,-14.541237 13.4694,-14.873766 18.10673,-0.47735 23.1371,-1.01112 25.76668,-2.73409 2.13254,-1.397294 4.1708,-1.638113 10.59761,-1.252104 6.58967,0.39579 8.48818,0.155051 11.04648,-1.400744 C 250.60985,39.8748 252,38.546225 252,37.955681 c 0,-0.590543 0.42035,-0.813927 0.9341,-0.496409 0.51376,0.317518 3.74444,-0.850804 7.1793,-2.596272 6.55467,-3.330848 11.60456,-3.892719 14.75734,-1.641962 0.98533,0.703429 3.29012,2.996067 5.12174,5.094751 2.67655,3.066797 3.29976,4.593496 3.17498,7.77787 -0.18129,4.626731 -3.36726,11.407722 -6.02911,12.832298 -1.02031,0.546056 -2.58696,2.109759 -3.48143,3.474897 -1.55026,2.366002 -1.50455,2.626772 0.9775,5.576524 1.4321,1.701951 3.98172,3.806999 5.66582,4.677885 4.26754,2.206826 16.72786,2.735693 25.91493,1.099934 C 314.06681,72.35721 317,72.840083 317,75.530638 c 0,0.787192 -1.2375,1.705247 -2.75,2.040122 -1.5125,0.334875 -4.21928,1.055584 -6.01506,1.601574 -3.94609,1.199772 -21.24226,1.131138 -26.55805,-0.105386 -2.10271,-0.489118 -4.61315,-1.604275 -5.57874,-2.478127 -5.18871,-4.695712 -5.69441,2.186316 -0.59815,8.140145 7.34655,8.582794 1.98747,9.773982 -6.618,1.471012 -2.67916,-2.584988 -4.87364,-5.205275 -4.8766,-5.82286 -0.003,-0.617585 0.9322,-3.242484 2.07816,-5.833109 2.47128,-5.586742 1.88352,-6.795083 -1.68527,-3.464619 -4.26817,3.983148 -6.59209,7.758262 -5.70608,9.26931 1.20745,2.059248 14.43568,13.029683 16.24129,13.469226 0.86157,0.209736 5.9139,0.595689 11.22738,0.857673 8.19996,0.404305 11.12443,0.0868 19.33913,-2.099631 C 310.82304,91.159185 316.18883,90 317.42397,90 c 1.23515,0 5.13254,-0.949931 8.66087,-2.110958 3.52834,-1.161027 7.37321,-2.218169 8.54416,-2.349204 1.17095,-0.131035 6.34595,-1.240951 11.5,-2.46648 5.15405,-1.225529 11.171,-2.656361 13.371,-3.179627 2.2,-0.523266 4.45,-1.063573 5,-1.200682 0.55,-0.137109 1.53243,-0.58211 2.18318,-0.98889 0.65075,-0.40678 3.12575,-1.143402 5.5,-1.636938 5.69217,-1.183232 22.88856,-7.849126 24.89556,-9.650347 C 397.94705,65.637593 399.205,65 399.8742,65 c 0.66919,0 2.35031,-1.133601 3.73582,-2.519112 1.38551,-1.385512 2.97337,-2.238366 3.52857,-1.895232 0.55521,0.343135 1.98865,-0.250437 3.18544,-1.319049 1.19678,-1.068612 3.65969,-2.529142 5.47313,-3.245622 C 418.95797,54.77216 422,50.678639 422,47.67409 c 0,-0.783876 1.0735,-3.843723 2.38555,-6.79966 1.98031,-4.461475 3.46668,-6.083718 8.75,-9.549899 7.37339,-4.837395 13.25076,-5.773094 18.62561,-2.965264 2.71473,1.418178 3.15792,2.114956 2.64504,4.158454 -0.50488,2.011587 -0.0566,2.773271 2.48252,4.218549 1.70425,0.970052 3.10148,2.294087 3.10496,2.942301 C 460.00118,41.077129 457.25168,44 455.92857,44 455.41786,44 455,45.043849 455,46.319665 c 0,1.275815 -1.125,3.297839 -2.5,4.493386 -1.375,1.195547 -2.5,2.815943 -2.5,3.60088 0,0.784937 -1.38031,1.730326 -3.06736,2.100864 -2.96644,0.65154 -8.94861,3.355959 -7.93264,3.586188 0.275,0.06232 1.625,0.200896 3,0.307952 1.375,0.107056 4.33969,0.536094 6.5882,0.953418 3.241,0.60153 5.41692,0.239875 10.5,-1.745182 22.01999,-8.599301 28.39187,-10.617735 31.61169,-10.013694 4.08479,0.766311 4.31536,3.036518 0.73995,7.285647 l -2.56016,3.042575 2.81016,0.617673 C 496.51738,61.610467 497,61.890881 497,63.634727 c 0,0.933624 -0.68757,2.410247 -1.52794,3.281385 -0.84037,0.871139 -2.52787,3.118446 -3.75,4.994017 -3.45034,5.295134 -7.61258,6.339797 -24.29019,6.096497 -9.83534,-0.143482 -19.36368,1.555 -28.84832,5.142379 -7.97784,3.017462 -19.66503,8.144973 -22.58355,9.908069 -0.825,0.498387 -3.81416,2.049244 -6.64259,3.446349 -2.82842,1.397105 -6.87842,3.727897 -9,5.179547 -2.12157,1.45165 -9.0152,4.99021 -15.31917,7.86347 -6.30397,2.87326 -11.62196,5.70473 -11.81777,6.29214 -0.1958,0.58741 2.93035,2.72301 6.94701,4.74576 7.78749,3.92172 22.2611,15.88485 26.97758,22.29828 4.33136,5.88972 5.73792,16.59339 3.53046,26.86596 -0.92154,4.28841 -1.67552,8.81429 -1.67552,10.05751 0,1.24322 -1.125,4.48048 -2.5,7.19391 -1.375,2.71343 -2.5,5.15725 -2.5,5.43071 0,0.27345 1.6875,1.64153 3.75,3.04016 4.14809,2.81294 12.64434,10.4674 29.93313,26.96746 6.30367,6.01608 14.04852,12.76608 17.21078,15 C 462.90741,243.09931 478,257.0278 478,258.76223 478,260.71398 471.59018,267 469.6,267 c -2.82965,0 -1.71406,1.84885 2.66356,4.41431 4.21592,2.47069 28.11714,25.75431 31.39697,30.58569 0.93343,1.375 3.01698,4.03545 4.63009,5.91211 2.67031,3.10656 2.8651,3.82294 2.17528,8 -0.41671,2.52334 -0.84858,8.86289 -0.95971,14.08789 -0.11113,5.225 -0.70456,10.72493 -1.31875,12.22207 -1.31902,3.21524 -5.26243,4.52042 -8.7949,2.91092 -1.88439,-0.85858 -2.56595,-0.82978 -2.9129,0.12309 -0.24911,0.68415 -1.62201,4.39392 -3.05088,8.24392 -1.42887,3.85 -2.95802,8.35 -3.3981,10 -0.44009,1.65 -1.0548,3.675 -1.36604,4.5 -0.31123,0.825 -1.04155,3.36092 -1.62293,5.63538 -1.20048,4.69651 -3.6993,5.99317 -7.04012,3.65317 z M 486.51603,357 c 3.94163,-15.38057 4.06063,-16.61594 1.66103,-17.24345 -1.3801,-0.3609 -2.96247,0.45857 -5.05569,2.61823 -2.98417,3.07888 -3.05159,3.3703 -3.27758,14.16683 -0.3699,17.67178 2.21538,17.84939 6.67224,0.45839 z m 19.27646,-26 c -1.16141,-7.62569 -2.05561,-9 -5.85592,-9 -4.07649,0 -4.23665,1.13526 -0.90198,6.39349 1.63449,2.57732 3.673,6.35565 4.53002,8.39628 2.26904,5.40274 3.46081,2.30559 2.22788,-5.78977 z M 481.5,336.11736 c 0,-0.66879 -3.24149,-4.90629 -7.2033,-9.41667 -8.10147,-9.22322 -19.04435,-22.39236 -24.2967,-29.2397 -1.925,-2.50956 -4.89868,-6.19553 -6.60819,-8.19102 l -3.10819,-3.62818 -5.14181,4.33564 C 432.31382,292.36204 430,294.74119 430,295.26444 c 0,1.57761 25.35761,25.16203 32.13292,29.88594 1.3019,0.90771 5.6906,4.18738 9.75268,7.28814 7.04368,5.37675 9.6144,6.36041 9.6144,3.67884 z m 14.51604,-1.14732 c 0.87725,-1.63916 0.52218,-3.13118 -1.8443,-7.75 -1.61189,-3.14602 -4.44744,-8.74635 -6.30122,-12.44518 -3.124,-6.23326 -4.11496,-7.23893 -13.5489,-13.75 C 468.7235,297.16119 463.86019,294 463.51424,294 c -0.34594,0 -3.57147,-2.05669 -7.16785,-4.57043 -3.59637,-2.51374 -6.77484,-4.33446 -7.06325,-4.04604 -0.28842,0.28842 1.66738,3.49415 4.34623,7.12384 2.67885,3.62969 5.84666,7.93784 7.03959,9.57367 2.71896,3.72842 21.79917,25.26773 24.83104,28.03132 1.69439,1.54446 8.75564,6.88764 9.10232,6.88764 0.18002,0 0.81619,-0.91348 1.41372,-2.02996 z m 0.75126,-29.97068 2.26729,-3.34646 -3.76729,-3.0176 c -2.07202,-1.65968 -5.57814,-4.84408 -7.79139,-7.07645 -5.2495,-5.29484 -13.07998,-11.5641 -17.47591,-13.9916 -1.925,-1.06302 -4.08558,-2.74704 -4.80128,-3.74227 -1.97791,-2.75039 -4.97472,-4.08667 -6.45161,-2.87678 -5.9884,4.90579 -7.81417,6.0518 -9.64147,6.0518 -1.1581,0 -2.10564,0.45 -2.10564,1 0,0.55 0.40004,1 0.88898,1 0.48893,0 6.22643,3.52615 12.75,7.8359 6.52356,4.30974 13.83259,9.07767 16.24228,10.5954 2.40969,1.51773 6.84229,4.76405 9.85021,7.21403 3.00793,2.44999 5.98636,4.28487 6.61874,4.07751 0.63239,-0.20737 2.17007,-1.88293 3.41709,-3.72348 z m -82.22185,-8.01152 c 0,-3.42396 -0.19268,-3.71182 -1.88008,-2.80875 -2.4295,1.30023 -4.08969,-0.26683 -3.21208,-3.03191 0.78315,-2.46749 8.76842,-10.27935 14.16355,-13.85597 2.13574,-1.41586 6.17473,-4.31059 8.97553,-6.43275 2.80081,-2.12215 5.83831,-3.85846 6.75,-3.85846 0.9117,0 1.65763,-0.43094 1.65763,-0.95765 0,-0.52672 3.09782,-1.88023 6.88404,-3.00781 9.45111,-2.81467 10.21195,-3.99844 5.14776,-8.00935 -4.39599,-3.4817 -5.05206,-6.12355 -2.44501,-9.84564 2.02965,-2.89773 1.27051,-3.85725 -8.05761,-10.18451 -6.55185,-4.44412 -10.32235,-7.66321 -30.87383,-26.3588 -4.31456,-3.92493 -8.46719,-7.49058 -9.22808,-7.92366 -1.38672,-0.7893 -6.42727,1.78389 -6.42727,3.28111 0,1.58169 -6.03869,3.22163 -9.48333,2.57541 -5.0177,-0.94132 -4.53897,-3.26236 1.99385,-9.66684 3.03078,-2.97124 5.78898,-6.27759 6.12933,-7.34743 0.34035,-1.06984 1.86314,-3.99484 3.38398,-6.5 5.71606,-9.41557 8.12672,-28.55373 4.1936,-33.29284 -0.66004,-0.79531 -0.94382,-1.70227 -0.63061,-2.01547 0.98128,-0.98129 -17.56963,-19.07703 -21.63018,-21.09946 -1.47061,-0.73246 -2.5979,-1.4159 -8.95664,-5.43008 -3.50864,-2.21496 -10.38758,-3.01691 -11.42869,-1.33237 -0.30069,0.48654 -2.55214,1.18535 -5.00322,1.55291 -3.8458,0.57671 -4.9206,1.31429 -7.84326,5.38242 -3.53859,4.92546 -13.26628,13.77277 -20.38925,18.54398 -7.40088,4.95736 -7.79354,5.74052 -5.4536,10.87701 3.29635,7.23593 4.45339,7.5689 7.60629,2.18887 1.96886,-3.35961 3.01358,-4.32795 3.81002,-3.53151 0.79644,0.79644 0.48244,2.12618 -1.14512,4.84952 -2.06423,3.45398 -2.89894,5.16616 -6.70433,13.75219 -5.94074,13.40396 -8.25724,22.0582 -8.86216,33.10825 -0.23761,4.34046 -0.74639,8.69601 -1.13063,9.679 -0.82819,2.11873 1.29794,4.74098 7.07618,8.72736 2.21773,1.53 14.59273,13.24207 27.5,26.02682 C 361.9395,263.82618 377,277.83151 382.5,282.16438 c 5.5,4.33287 12.41836,9.78093 15.37413,12.10679 2.95577,2.32585 7.23077,5.16939 9.5,6.31897 5.2179,2.64335 7.17132,1.6621 7.17132,-3.6023 z m 16.35409,-18.36554 c 3.39812,-2.68273 5.94729,-5.10881 5.66482,-5.39127 -0.8331,-0.8331 -18.57419,13.95281 -19.47478,16.23082 -0.22574,0.57098 1.39902,-0.53685 3.61057,-2.46185 2.21154,-1.925 6.80127,-5.69496 10.19939,-8.3777 z m 39.23968,-16.5424 2.36078,-1.9201 -5,-4.66791 c -6.98362,-6.51978 -9.3666,-8.02529 -10.65825,-6.73364 -0.74074,0.74074 -0.2035,1.59382 1.80135,2.86034 5.50273,3.47622 8.58217,7.34773 7.92552,9.96404 -0.73177,2.91561 0.40293,3.07364 3.5706,0.49727 z M 288.15614,144.91644 c 1.11356,-0.59596 4.49031,-1.24187 7.5039,-1.43535 3.01358,-0.19349 6.0104,-0.77135 6.6596,-1.28413 1.53211,-1.21017 10.48912,-0.60056 12.21441,0.8313 1.77716,1.47491 4.77974,-0.53137 9.96595,-6.65909 7.67178,-9.06453 8.304,-11.59817 2.78537,-11.16245 -2.76722,0.21848 -3.79921,-0.11722 -4.04627,-1.31623 -0.44473,-2.15838 3.8841,-3.85518 11.28389,-4.42303 3.25592,-0.24985 8.40771,-1.18099 11.44843,-2.06918 3.04072,-0.8882 6.42858,-1.75566 7.52858,-1.92769 4.33694,-0.67825 7.05082,-1.50925 11.01619,-3.3732 2.27495,-1.06935 6.7771,-2.63389 10.00478,-3.47675 3.22769,-0.84287 7.02399,-2.38676 8.43623,-3.43088 1.41225,-1.04411 5.26211,-3.24652 8.55526,-4.89423 3.29315,-1.647717 7.61339,-3.920959 9.60053,-5.051653 5.07129,-2.885579 6.30732,-3.494441 15.88701,-7.825877 11.59366,-5.242048 11.81713,-5.478003 9.42736,-9.954254 -3.16089,-5.920618 -3.97871,-6.159022 -8.54361,-2.490568 C 411.89118,79.788941 377.29059,96 373.00448,96 c -0.82474,0 -5.55065,1.289424 -10.50201,2.865387 -4.95136,1.575963 -12.60247,3.663133 -17.00247,4.638153 -11.96046,2.6504 -18.4667,4.49696 -23.80374,6.75583 -3.76157,1.59206 -5.06326,1.76987 -6,0.81957 -0.93036,-0.94383 -0.77709,-1.52304 0.68956,-2.60582 1.81596,-1.34066 1.79744,-1.42863 -0.5,-2.37482 -4.92037,-2.02642 -22.65362,-4.83413 -29.80092,-4.71838 l -7.41509,0.12008 -1.12514,5.60539 c -1.38079,6.87901 -3.42684,10.12649 -8.492,13.47845 -4.22709,2.79736 -4.41987,3.79652 -2.10621,10.91616 2.12238,6.53098 8.48857,12.30282 14.96609,13.56884 1.9731,0.38564 3.72953,0.75291 3.90319,0.81616 0.17366,0.0633 1.22684,-0.3726 2.3404,-0.96856 z m 49.1873,-14.28486 c 2.52251,-2.95263 4.32814,-5.62667 4.0125,-5.94231 -0.70983,-0.70983 -6.42528,4.83885 -8.81802,8.56073 -2.99462,4.65808 -0.0318,3.0437 4.80552,-2.61842 z m -154.80352,-7.72076 c 4.73578,-8.1421 12.17684,-12.63998 16.44568,-9.94088 1.12715,0.71267 2.75452,-0.39188 6.74452,-4.57772 7.73194,-8.11143 10.00414,-5.35658 3.8005,4.60778 l -3.42421,5.5 2.69679,2.83606 c 4.15953,4.37432 5.80714,4.96536 8.64965,3.10288 1.36028,-0.89129 5.75237,-2.89332 9.76019,-4.44894 7.15151,-2.77584 7.30555,-2.91075 8.28696,-7.25764 1.14486,-5.07083 7.73461,-16.252368 10.42759,-17.693606 4.04472,-2.164668 4.1443,2.498859 0.1705,7.984536 -2.63616,3.63911 -2.80184,4.33204 -1.80914,7.56653 0.79257,2.58244 0.78994,4.36284 -0.01,6.48105 -0.6063,1.60626 -0.80468,3.05397 -0.44085,3.21712 0.36382,0.16315 4.42779,0.27481 9.03103,0.24812 l 8.36954,-0.0485 1.94718,-6.34297 c 1.66889,-5.43641 2.23224,-6.26843 3.94164,-5.82142 1.19098,0.31145 2.21345,-0.0491 2.53807,-0.89507 0.81336,-2.11958 2.51174,-0.56337 1.80733,1.65604 -0.33444,1.05371 -0.3643,1.91584 -0.0664,1.91584 0.5829,0 3.59127,-5.48214 3.69837,-6.73952 0.0356,-0.41826 0.49836,-1.28292 1.0283,-1.92145 1.36936,-1.64999 0.0848,-2.12615 -5.71013,-2.11661 -6.24253,0.0103 -10.10429,-1.900859 -17.92347,-8.870042 -3.3,-2.941268 -7.40051,-6.015495 -9.11224,-6.831615 -1.71173,-0.81612 -3.70663,-2.200048 -4.4331,-3.075397 C 237.51288,79.708126 230.73279,76 228.99814,76 c -1.02342,0 -12.55926,-4.990856 -16.18495,-7.002244 -0.92774,-0.514675 -4.27386,-1.845052 -7.43583,-2.956393 l -5.74902,-2.02062 -2.7831,3.239628 c -2.81774,3.279951 -6.83747,12.385571 -6.85455,15.527142 -0.005,0.941868 -2.70801,7.739859 -6.00642,15.106647 -4.67013,10.43044 -6.13651,14.89415 -6.62715,20.1732 -1.03902,11.17949 0.60428,12.71519 5.1828,4.84346 z m 18.40536,-25.476757 c -0.71479,-0.861265 -2.5065,-2.190043 -3.98159,-2.952841 -3.27285,-1.692457 -5.35363,-6.252892 -4.23398,-9.279599 C 193.80073,82.306388 202.87418,73 204.62594,73 205.42805,73 206,74.049537 206,75.521439 c 0,1.719114 0.7955,2.883894 2.5,3.660515 1.375,0.626492 2.5,1.546428 2.5,2.044302 0,2.038734 -2.27219,4.926734 -4.5608,5.796861 C 203.48436,88.146544 203.27309,90.540602 206,92 c 1.1,0.588702 2,1.504535 2,2.035184 C 208,95.240956 204.30702,99 203.12244,99 c -0.48265,0 -1.46238,-0.704671 -2.17716,-1.565937 z M 339,100.47649 c 2.475,-0.737116 6.975,-1.646259 10,-2.02032 3.025,-0.374062 5.95,-1.036055 6.5,-1.471097 0.55,-0.435042 5.09265,-1.909022 10.09478,-3.27551 14.39274,-3.931827 40.10389,-14.794948 41.90158,-17.703681 0.35485,-0.574152 2.75083,-2.124461 5.32441,-3.44513 2.57358,-1.320669 5.52625,-3.0371 6.56151,-3.814291 1.80343,-1.353883 1.80908,-1.524774 0.13499,-4.079767 -2.33088,-3.557364 -5.2305,-3.397378 -11.19702,0.617791 -6.57455,4.42435 -13.00837,7.714177 -15.10104,7.721676 -0.94557,0.0034 -3.06921,0.717718 -4.71921,1.587399 -3.12989,1.649699 -14.98786,6.295364 -16.26477,6.372143 -0.40438,0.02431 -2.08523,0.440287 -3.73523,0.924384 -1.65,0.484098 -5.7,1.418059 -9,2.075469 -3.3,0.657411 -8.7,1.902864 -12,2.767674 -3.3,0.86481 -9.6,2.167225 -14,2.894255 -11.94391,1.973543 -11.84263,1.950334 -14.3376,3.2856 -1.27527,0.682507 -2.86958,1.029521 -3.54291,0.771141 -0.67332,-0.258379 -2.77566,0.201228 -4.67186,1.021348 l -3.44763,1.491127 5,1.352969 c 2.75,0.744133 7.475,2.202387 10.5,3.24057 5.74364,1.97121 8.50994,1.91696 16,-0.31375 z M 259.73333,87.266667 c -2.01666,-2.016667 -3.9096,-3.423726 -4.20653,-3.126798 -0.29693,0.296928 1.08601,2.213987 3.0732,4.260131 1.98719,2.046144 3.88013,3.453203 4.20654,3.126797 0.3264,-0.326405 -1.05654,-2.243464 -3.07321,-4.26013 z m -7.7384,-8.753331 c 1.04712,-2.754123 -1.45425,-9.989798 -4.25783,-12.316557 -0.84488,-0.701192 -2.30381,-4.110847 -3.24205,-7.577011 -1.54401,-5.704035 -1.92626,-6.259992 -4.02787,-5.858245 -1.55444,0.297149 -2.72422,-0.200247 -3.5389,-1.50475 -1.14393,-1.831734 -1.58317,-1.869993 -7.3226,-0.637826 -3.35813,0.720937 -11.61818,1.326603 -18.35568,1.345924 -6.7375,0.01932 -12.25,0.385001 -12.25,0.812623 0,2.527795 4.40321,5.965262 12.87063,10.047751 5.29615,2.553492 9.85437,4.663981 10.12937,4.689976 1.77646,0.16792 15.7891,6.013428 17.07874,7.124562 0.86831,0.748119 1.99331,1.386158 2.5,1.417863 0.50669,0.0317 2.49626,1.130764 4.42126,2.442354 4.44386,3.0278 4.84849,3.0287 5.99493,0.01334 z M 441.57186,77.361854 C 447.32631,75.449037 450,73.400399 450,70.904029 c 0,-3.494488 -1.12714,-3.449531 -13,0.518511 -2.69028,0.899122 -3.51755,1.737434 -3.57588,3.623599 -0.14181,4.586236 0.6447,4.809775 8.14774,2.315715 z m 28.827,-3.764837 c -0.28259,-0.736413 0.15213,-1.594474 0.96605,-1.906803 0.92378,-0.35449 1.27731,-1.342368 0.94084,-2.629042 C 471.836,67.26485 472.22387,67 475.32435,67 c 1.95669,0 3.85999,-0.489245 4.22955,-1.087211 0.44629,-0.722111 -0.45227,-0.973971 -2.67579,-0.75 -4.55989,0.459311 -5.01269,-2.218705 -0.87348,-5.166083 1.71078,-1.218189 2.92479,-2.400622 2.69778,-2.627629 -0.22701,-0.227006 -5.09041,1.585099 -10.80757,4.026902 L 457.5,65.835621 l -0.30588,4.049112 c -0.3381,4.475526 0.14871,4.789874 8.30588,5.363437 4.82908,0.339552 5.56728,0.09074 4.89886,-1.651153 z m 9.05843,1.472081 c 1.02169,-1.653129 -1.10518,-2.048529 -3.05997,-0.568868 -1.83494,1.388947 -1.82529,1.437209 0.29366,1.467967 1.20504,0.01749 2.44988,-0.387103 2.76631,-0.899099 z M 260,66.802106 C 260,65.480711 251.90097,55 250.87985,55 c -1.71884,0 -0.83626,3.803581 2.28843,9.862235 3.01046,5.837163 3.25951,6.060592 5,4.485477 C 259.17572,68.435984 260,67.290461 260,66.802106 Z m 11.5,-9.298058 4,-3.466199 -2.20954,-1.768925 C 272.07522,51.296016 269.94339,47.9125 268.55307,44.75 267.16275,41.5875 265.47408,39 264.80046,39 c -0.67362,0 -3.08666,1.827324 -5.36233,4.06072 -3.30903,3.247569 -4.03712,4.586221 -3.63591,6.68497 0.52283,2.735039 8.52196,11.265348 10.53956,11.239433 0.63702,-0.0082 2.95822,-1.574666 5.15822,-3.481075 z m 156.92901,1.610821 c 0.30087,-0.486822 0.0449,-2.325682 -0.56892,-4.086357 -0.99252,-2.847164 -1.28204,-3.035132 -2.61767,-1.699504 -0.98387,0.983868 -1.27802,2.393006 -0.85302,4.086356 0.63099,2.514043 2.93668,3.484074 4.03961,1.699505 z m 13.20871,-5.419258 C 442.02031,53.313025 441.35833,53 440.16667,53 438.975,53 438,53.410182 438,53.911516 c 0,1.016664 2.55691,0.864906 3.63772,-0.215905 z M 242,50 c 0,-0.55 -0.45,-1 -1,-1 -0.55,0 -1,0.45 -1,1 0,0.55 0.45,1 1,1 0.55,0 1,-0.45 1,-1 z m 33.57872,-7.77381 c -1.72194,-1.649287 -1.74325,-1.627977 -0.47833,0.478332 0.72815,1.212486 1.53915,1.989272 1.80223,1.72619 0.26308,-0.263082 -0.33267,-1.255117 -1.3239,-2.204522 z"/>
</svg>
