<?xml version="1.0" encoding="utf-8"?>

<svg xmlns="http://www.w3.org/2000/svg" version="1.1" viewBox="0 0 73 105">











	<path d="M 24.330682,95.063052 C 22.037557,94.02189 19.662667,92.238205 19.053149,91.09931 17.375162,87.963963 16.177234,80.326799 17.128155,78.826881 17.684046,77.950057 18.013693,78.687144 18.100037,81 c 0.193916,5.194336 0.2344,5.330216 2.399963,8.055192 3.471296,4.368009 6.636835,5.943869 11.972506,5.960121 C 36.087231,95.026323 37.078487,95.303028 36,96 33.655062,97.515416 28.88912,97.132751 24.330682,95.063052 Z M 40.24985,92.25 c 2.073813,-2.173368 2.409712,-3.130241 1.601923,-4.563395 -0.838754,-1.488093 -0.692901,-1.757175 0.813059,-1.5 1.420684,0.242613 1.905942,-0.420638 2.148526,-2.936605 0.172348,-1.7875 0.734848,-3.25 1.25,-3.25 1.265764,0 1.186394,3.664817 -0.132752,6.129664 -2.147441,4.01253 4.153615,6.883635 7.159202,3.262123 1.12849,-1.359746 1.070158,-1.801648 -0.377555,-2.860242 C 51.770514,85.842928 51,84.766624 51,84.139757 c 0,-1.723765 3.774555,-1.365023 4.793414,0.455577 2.632409,4.703855 -3.187286,9.913127 -8.414159,7.531605 -2.126468,-0.968884 -2.939344,-0.831534 -5.089799,0.860015 -3.74254,2.943883 -5.087971,2.457749 -2.039606,-0.736954 z m -14.079539,-8 c -1.434968,-2.790041 -0.412895,-4.418444 1.876042,-2.988979 1.442074,0.90059 2.184481,0.908145 3.06147,0.03116 1.919025,-1.919025 0.362767,-4.104792 -2.529006,-3.551995 C 25.832338,78.265205 24.980323,76.605264 27.5,75.638374 30.028977,74.667914 29.165969,73 26.134859,73 c -1.575828,0 -4.163328,1.009764 -5.75,2.243921 L 17.5,77.487842 19.114386,74.993921 c 1.300491,-2.009013 2.661543,-2.591139 7,-2.993921 L 31.5,71.5 V 53.154478 34.808956 l -3,-2.399511 -3,-2.399511 6,-0.136665 c 13.941873,-0.317563 19.121472,0.841006 23.020302,5.149165 1.466873,1.620875 1.979698,3.609633 1.979698,7.677345 0,4.820229 -0.343039,5.763333 -2.812555,7.732457 l -2.812556,2.242653 3.562556,3.562556 C 57.457039,59.257039 58,60.480522 58,64.265141 c 0,8.121069 -6.293153,13.174752 -16.453197,13.212652 -5.84139,0.02179 -5.965164,0.08019 -6.590423,3.109497 -0.350474,1.69801 -0.960593,3.61051 -1.35582,4.25 C 32.4731,86.66156 27.196099,86.244463 26.170311,84.25 Z M 50.463707,70.980738 C 51.962985,69.481459 52.5,67.640486 52.5,64 c 0,-6.560154 -2.322654,-8.938665 -9.352587,-9.577506 -6.057907,-0.550508 -7.567753,1.15265 -4.861847,5.484329 C 41.227828,64.616868 45.042436,72 44.533692,72 44.258692,72 42.89353,69.75 41.5,67 c -3.361248,-6.633104 -4.695195,-6.414577 -4.309263,0.705945 0.278509,5.138533 0.557868,5.767643 2.809263,6.326396 3.309156,0.82127 7.941919,-0.529815 10.463707,-3.051603 z m -6.893035,-7.866389 c -0.30105,-0.487108 0.684893,-1.122371 2.190983,-1.411695 3.092868,-0.594149 3.732342,-0.310975 2.779464,1.230815 -0.797468,1.29033 -4.208062,1.414446 -4.970447,0.18088 z m -1.491725,-4.697682 c 0.04798,-1.164943 0.284941,-1.4019 0.604167,-0.604167 0.288871,0.721875 0.253344,1.584375 -0.07895,1.916667 -0.332292,0.332291 -0.568641,-0.258334 -0.52522,-1.3125 z M 45,49.986631 C 45,49.546965 45.847363,49.40883 46.883029,49.679662 49.465853,50.355086 52,46.485611 52,41.866387 52,36.682857 47.590544,33 41.384342,33 h -4.462208 l 0.288933,8.707408 c 0.277091,8.350524 0.391399,8.733019 2.788933,9.332271 2.73068,0.682521 5,0.20458 5,-1.053048 z m 1,-7.544245 c 0,-1.183319 -0.587629,-1.52198 -2,-1.152637 -1.299863,0.339922 -2,0.03068 -2,-0.883369 C 42,39.632871 42.884167,39 43.964816,39 c 2.254838,0 4.628736,3.515131 3.037888,4.498329 C 46.451217,43.839167 46,43.363992 46,42.442386 Z M 24.25,62.282674 C 22.501292,61.096181 22,59.796562 22,56.449457 22,53.813963 21.371755,51.514612 20.380952,50.52381 18.542355,48.685212 19.147877,47.459032 21.456872,48.345077 22.58528,48.778087 23,50.395052 23,54.361626 c 0,3.846601 0.42699,5.588248 1.467975,5.987711 2.030568,0.779202 2.327431,-0.07036 2.120264,-6.067749 -0.128342,-3.715423 -0.781354,-5.875546 -2.267276,-7.5 -3.598588,-3.934083 -5.565893,-8.963775 -6.097767,-15.589802 -0.43207,-5.38269 -0.13658,-7.154637 1.861136,-11.160542 2.79783,-5.610329 7.259001,-8.842433 13.358963,-9.678526 7.498264,-1.0277515 10.926834,0.214832 17.185445,6.228353 6.161612,5.920322 10.093475,7.008362 9.63305,2.665694 C 60.106179,17.779065 60.562648,17 61.578212,17 c 1.106005,0 1.463321,0.793581 1.23821,2.75 C 62.537489,22.174189 62.085332,22.495765 59,22.46425 57.075,22.444588 54.4875,22.076764 53.25,21.646863 51.541214,21.05324 51,21.242243 51,22.432612 51,23.294676 50.501855,24 49.893011,24 c -0.608844,0 -0.882094,-0.586066 -0.607223,-1.302369 0.799382,-2.083157 -1.899691,-7.398545 -4.68287,-9.222154 -4.25211,-2.786089 -14.427407,-1.5577 -18.814714,2.271364 -6.643603,5.798267 -7.765272,19.53444 -2.278889,27.907719 2.230284,3.403845 3.334435,2.138809 2.739576,-3.13876 C 25.891937,37.348911 26.104653,36 26.96101,36 c 0.86911,0 1.125836,1.852741 0.890589,6.427203 -0.181789,3.534962 -0.04313,6.714602 0.308137,7.065866 0.765306,0.765307 -0.139908,12.726418 -1.033905,13.661577 C 26.781624,63.514702 25.4875,63.122314 24.25,62.282674 Z M 40.5,27.045972 C 39.4,26.590982 37.409059,25.044506 36.075686,23.609359 34.543463,21.960183 32.589869,21 30.766669,21 c -1.867404,0 -2.641608,-0.393336 -2.19537,-1.115364 0.415687,-0.672595 2.396447,-0.922947 4.98967,-0.630654 2.365186,0.266591 4.736246,0.0488 5.269021,-0.483972 0.532776,-0.532776 1.901359,-0.672664 3.041296,-0.310862 1.714805,0.544258 1.877574,0.970129 0.942843,2.466871 -1.675455,2.68283 -0.31218,5.071585 2.904486,5.089294 C 47.88185,26.027222 48.166632,26.246065 47,27 c -1.788349,1.15572 -3.782931,1.169827 -6.5,0.04597 z"/>
</svg>
