<?xml version="1.0" encoding="utf-8"?>
<svg xmlns="http://www.w3.org/2000/svg" version="1.1" viewBox="0 0 72 102">
	<title/>
	<path d="m 28.263634,96.033866 c -3.613086,-0.865982 -9.771308,-5.203328 -11.109353,-7.824514 -3.098871,-6.07059 -1.170646,-14.486461 3.593041,-15.68207 3.042739,-0.763679 5.211221,0.915247 4.532812,3.509486 -0.587154,2.245281 -1.386182,2.457184 -3.037752,0.805614 C 20.628028,75.228028 18,77.529337 18,80.557345 c 0,6.789178 7.230311,13.500196 14.400038,13.365803 6.296189,-0.118018 11.548507,-2.107545 13.324857,-5.047325 1.973495,-3.266044 1.154347,-5.617043 -2.255291,-6.472808 -3.479091,-0.873196 -5.697974,1.193448 -3.235148,3.013182 0.953952,0.704856 1.441452,1.574562 1.083334,1.93268 -0.853291,0.853291 -5.794821,0.840758 -6.652452,-0.01687 -0.367397,-0.367398 -2.540362,-0.704898 -4.82881,-0.75 -2.603897,-0.05132 -4.336022,-0.602546 -4.629049,-1.473136 -0.352159,-1.046273 0.164856,-1.232235 2.085606,-0.750157 1.883958,0.472843 3.324349,-0.0074 5.491313,-1.830748 3.920021,-3.298481 7.039442,-4.371578 10.99334,-3.781769 3.581444,0.53425 4.854197,2.150267 5.337512,6.77705 0.778902,7.456444 -10.298212,13.040057 -20.851616,10.510621 z M 33.10193,75.252503 C 27.4736,72.526622 26.008026,68.92504 26.003738,57.809017 26.001664,52.431341 25.554915,47.842957 25,47.5 24.395421,47.12635 23.976429,48.585841 23.940389,51.190983 23.835544,58.769774 22.399535,64.985046 20.404467,66.495005 13.404456,71.792935 7.7687874,62.141672 12.841759,53.543626 15.457536,49.110213 15.55704,47.132033 13.25,45.427563 11.827984,44.37696 11.739433,43.891962 12.777524,42.839797 c 2.388271,-2.420651 4.706066,0.330897 4.865409,5.775922 0.07861,2.686355 0.464529,6.100629 0.857591,7.587276 0.660967,2.499921 0.500046,2.687744 -2.141917,2.5 -3.631966,-0.258096 -4.40991,3.035614 -1.367333,5.789108 2.037119,1.843567 2.118966,1.842101 4.03331,-0.07224 C 21.906799,61.537645 22.602103,47.371738 20.002308,44.5 15.780449,39.836526 14.733262,27.403336 18.019755,20.961277 c 3.176692,-6.22683 8.82256,-9.363951 17.654975,-9.809967 4.147764,-0.209453 7.894746,0.07642 8.592576,0.655571 1.077687,0.894401 8.057854,1.707415 11.374286,1.324818 C 56.269468,13.059264 57.065541,11.875 57.410644,10.5 58.181593,7.4282928 62,6.9528565 62,9.9285714 62,12.736401 59.290058,15 55.928571,15 54.317857,15 53,15.251387 53,15.558638 c 0,0.307251 1.361848,2.253277 3.02633,4.324501 5.613341,6.985053 4.887441,18.506354 -1.426655,22.643509 -2.120527,1.389422 -2.342347,2.428074 -2.903937,13.597444 -0.647888,12.885727 -1.502765,15.392911 -6.326137,18.553306 -3.531402,2.313863 -8.223365,2.533821 -12.267671,0.575105 z m 11.688358,-5.5729 c 1.37333,-1.517217 1.779423,-4.343891 2.06403,-14.367005 0.333925,-11.759998 0.233206,-12.562993 -1.75,-13.952085 C 43.04681,39.919379 41.978648,34.250736 44,35.5 c 0.55,0.339919 1,1.491476 1,2.559017 C 45,39.126558 45.398925,40 45.886501,40 c 1.268105,0 1.885553,-5.383902 0.917549,-8.000666 -0.650119,-1.757439 -1.335428,-2.082783 -3.331779,-1.581731 -1.38232,0.346941 -3.393763,0.159597 -4.469872,-0.416319 -1.545003,-0.826861 -2.382079,-0.621604 -3.979481,0.975798 -1.112605,1.112605 -2.063732,2.810418 -2.113615,3.772918 -0.04988,0.9625 -0.197753,3.648242 -0.328599,5.968316 -0.130846,2.320074 0.08466,4.740226 0.478894,5.378116 C 34.045443,47.691562 36,46.298013 36,44 c 0,-2.306808 1.817096,-3.582904 3.17223,-2.22777 0.663955,0.663955 0.467446,2.023879 -0.587132,4.063208 -1.81008,3.500309 -2.212673,16.658665 -0.541293,17.691635 0.574093,0.354809 1.65903,0.134515 2.410972,-0.489541 0.939835,-0.779994 1.569726,-0.806903 2.015212,-0.08609 1.707323,2.762506 -3.223846,4.254994 -5.399007,1.634086 C 36.073103,63.383158 35.189843,57.367053 35.039706,50.75 35.017868,49.7875 34.311645,49 33.470323,49 c -1.27571,0 -1.506044,1.579915 -1.387333,9.516044 0.133221,8.906147 0.304411,9.643526 2.671036,11.505113 3.069251,2.414273 7.683941,2.257226 10.036262,-0.341554 z M 26.802031,38.177974 c 0.258864,-4.426634 -0.06272,-5.529572 -2.25,-7.716852 C 23.148414,29.057505 22,27.704545 22,27.454545 22,27.204545 25.375,27 29.5,27 c 4.611974,0 7.5,-0.407796 7.5,-1.059017 0,-0.582459 0.453178,-0.778937 1.007063,-0.436618 1.546241,0.95563 2.375327,-2.338687 1.00433,-3.990638 C 36.727331,18.761601 31.013037,18.490356 26.55923,20.92265 18.865544,25.124293 15.886632,31.682618 19.015952,37.529807 20.796526,40.85684 22,40.643167 22,37 c 0,-1.65 0.45,-3 1,-3 0.55,0 1,2.2875 1,5.083333 0,6.937604 2.388517,6.165854 2.802031,-0.905359 z m 28.281693,1.221144 C 56.478845,37.718101 56.849171,36.564199 57.699051,31.25 58.29043,27.552185 57.90808,27.358897 54.464817,29.61501 52.401845,30.966721 52,32.026432 52,36.11501 c 0,5.09455 0.839338,5.988429 3.083724,3.284108 z M 57,26.407538 c 0,-0.197559 -0.839825,-1.74018 -1.866277,-3.428046 -4.072247,-6.696273 -12.687642,-10.61881 -20.687938,-9.419091 -5.669555,0.850202 -6.192434,3.437858 -0.695785,3.443337 4.650362,0.0046 9.660595,2.955798 11.694084,6.888131 1.151494,2.226745 2.364803,3.0616 4.798548,3.30179 C 53.467493,27.511925 57,27.10097 57,26.407538 Z"/>
</svg>
