<?xml version="1.0" encoding="utf-8"?>
<!-- Created with Inkscape (http://www.inkscape.org/) -->
<svg xmlns="http://www.w3.org/2000/svg" xmlns:cc="http://creativecommons.org/ns#" xmlns:dc="http://purl.org/dc/elements/1.1/" xmlns:inkscape="http://www.inkscape.org/namespaces/inkscape" xmlns:rdf="http://www.w3.org/1999/02/22-rdf-syntax-ns#" xmlns:sodipodi="http://sodipodi.sourceforge.net/DTD/sodipodi-0.dtd" xmlns:svg="http://www.w3.org/2000/svg" height="581" id="svg2" version="1.1" viewBox="0 0 746 581" width="746" sodipodi:docname="illustration-limerick-92.svg" inkscape:version="0.92.4 (5da689c313, 2019-01-14)">
	<metadata id="metadata8">
		<rdf:RDF>
			<cc:Work rdf:about="">
				<dc:format>image/svg+xml</dc:format>
				<dc:type rdf:resource="http://purl.org/dc/dcmitype/StillImage"/>
				<dc:title/>
			</cc:Work>
		</rdf:RDF>
	</metadata>
	<defs id="defs6"/>
	<sodipodi:namedview bordercolor="#666666" borderopacity="1" gridtolerance="10" guidetolerance="10" id="namedview4" objecttolerance="10" pagecolor="#ffffff" showgrid="false" inkscape:current-layer="svg2" inkscape:cx="377.92373" inkscape:cy="290.5" inkscape:pageopacity="0" inkscape:pageshadow="2" inkscape:window-height="1010" inkscape:window-maximized="1" inkscape:window-width="1920" inkscape:window-x="0" inkscape:window-y="0" inkscape:zoom="1.1488964"/>
	<path d="M 54.606989,563.41821 C 53.65141,560.92801 53.884302,560 55.464816,560 56.744689,560 59,562.82889 59,564.43426 c 0,1.31685 -3.83847,0.42906 -4.393011,-1.01605 z M 292,564 c 0,-0.55 0.45,-1 1,-1 0.55,0 1,0.45 1,1 0,0.55 -0.45,1 -1,1 -0.55,0 -1,-0.45 -1,-1 z m 115.74306,0.40972 c -1.55417,-1.55417 -0.62312,-4.83781 2.67236,-9.42487 2.51255,-3.49729 3.12055,-5.04888 2.3,-5.86943 -1.96899,-1.96899 -8.04274,-1.19553 -14.46307,1.84179 -3.4362,1.6256 -7.9362,3.08775 -10,3.24921 -3.41028,0.26682 -3.78049,0.0502 -4.06108,-2.37671 -0.3965,-3.42944 7.26362,-11.90332 13.48093,-14.91307 2.38029,-1.15228 4.33341,-2.61741 4.34027,-3.25585 0.007,-0.63843 1.81525,-3.10194 4.01866,-5.47446 6.36898,-6.85779 7.18992,-8.47473 5.95362,-11.72644 -0.58761,-1.54553 -2.62457,-4.53257 -4.52657,-6.63786 -3.96016,-4.38342 -3.9356,-4.16347 -1.87849,-16.82203 0.84911,-5.225 1.70152,-11.10516 1.89425,-13.06702 0.19274,-1.96187 0.81536,-5.33687 1.38361,-7.5 0.56825,-2.16314 1.31079,-6.18298 1.65009,-8.93298 0.3393,-2.75 0.77952,-5.9 0.97827,-7 0.19875,-1.1 0.87633,-4.925 1.50573,-8.5 2.03732,-11.57189 3.12111,-17.45793 3.5905,-19.5 0.25286,-1.1 0.67739,-6.05 0.94342,-11 0.90064,-16.75804 3.76851,-41.90471 5.4049,-47.39237 1.24754,-4.18362 0.81498,-4.97279 -2.38991,-4.36013 -4.72034,0.90235 -5.53605,-0.0816 -3.93065,-4.74128 0.78232,-2.27068 2.99012,-6.98149 4.90624,-10.46846 1.91613,-3.48697 3.48386,-6.79435 3.48386,-7.34972 0,-0.55537 1.53935,-4.31238 3.42078,-8.34891 1.88142,-4.03652 3.79392,-8.7271 4.25,-10.42352 0.45607,-1.69641 1.95422,-4.39641 3.32922,-6 C 438.93213,314.99603 447.34258,308 448.52139,308 c 0.44848,0 4.00213,-2.33795 7.89701,-5.19543 3.89488,-2.85749 9.31373,-6.67748 12.04188,-8.48887 7.92154,-5.25957 15.03938,-11.667 30.72898,-27.66198 12.36131,-12.60191 14.79107,-15.5778 15.33169,-18.77775 0.35335,-2.09141 0.35412,-4.26909 0.002,-4.83927 -0.35239,-0.57019 -0.28931,-1.5992 0.14018,-2.2867 0.4295,-0.6875 0.8647,-1.7 0.96712,-2.25 0.10243,-0.55 0.4579,-2.45627 0.78995,-4.23616 0.33204,-1.77988 1.52385,-6.95488 2.64847,-11.5 1.12461,-4.54511 2.15343,-8.71384 2.28627,-9.26384 0.53122,-2.1995 3.10687,-6.19337 6.28965,-9.75288 1.84562,-2.06409 3.36129,-4.08909 3.36815,-4.5 0.007,-0.41092 1.80685,-2.67917 4,-5.04058 2.19314,-2.3614 3.98753,-4.6688 3.98753,-5.12755 0,-1.65862 -2.60128,-2.82575 -7.75989,-3.48169 -6.64067,-0.84438 -18.85598,-4.9397 -21.28166,-7.1349 -1.0148,-0.91838 -2.11185,-2.88433 -2.43789,-4.36878 -0.62934,-2.86538 -4.75237,-11.46308 -6.51644,-13.58865 -0.57906,-0.69773 -2.49269,-1.15533 -4.2525,-1.0169 -4.0794,0.32091 -8.54023,-1.22457 -9.67963,-3.35356 -1.43284,-2.67727 -0.25354,-12.65243 2.3905,-20.22026 2.61822,-7.49392 6.59476,-15.0959 12.4331,-23.7684 1.98242,-2.94478 4.11711,-6.2498 4.74374,-7.34449 1.89474,-3.31004 8.58595,-9.729491 13.36067,-12.818052 5.12445,-3.314785 8.85402,-7.685351 11.50583,-13.483308 1.00621,-2.2 2.37027,-4.675 3.03124,-5.5 0.66097,-0.825 2.54227,-3.934701 4.18067,-6.910446 3.04899,-5.537728 4.57981,-6.697175 15.1734,-11.492412 3.99402,-1.807913 5.99326,-2.211394 7.71459,-1.556942 1.41623,0.538449 2.55557,0.507832 2.91789,-0.07841 0.74365,-1.203252 4.47638,-1.27382 4.47638,-0.08463 0,1.226529 9.31664,0.07918 10.32613,-1.271673 0.5902,-0.789783 0.97157,-0.746734 1.33541,0.150741 0.2801,0.690926 0.97116,0.970775 1.53567,0.621884 0.56452,-0.34889 1.35408,-0.104151 1.75457,0.543864 0.4005,0.648016 1.81268,1.235282 3.1382,1.305035 1.32551,0.06975 2.86002,0.455098 3.41002,0.856319 0.55,0.401222 3.14303,1.048533 5.7623,1.438468 2.61926,0.389936 4.95926,1.027674 5.2,1.417196 0.24074,0.389521 3.90322,0.552232 8.13885,0.361579 6.18703,-0.278489 8.86472,0.100258 13.61931,1.926391 5.55497,2.133543 5.89265,2.449904 5.50264,5.155194 -0.22853,1.585189 -0.004,4.960189 0.49815,7.5 1.40623,7.107414 1.67297,9.713908 2.28948,22.371688 0.55044,11.301244 0.48424,11.841564 -1.71912,14.031564 -1.26039,1.25274 -6.42879,3.75409 -11.48533,5.55856 -16.49812,5.88746 -20.23111,12.44371 -18.85815,33.12051 0.90261,13.59318 1.00018,36.41351 0.18828,44.03552 -0.38081,3.575 -1.62932,12.8 -2.77446,20.5 -1.68964,11.36122 -3.09008,30.37991 -3.09267,42 -8.5e-4,3.80436 2.17382,17.01941 3.62032,22 1.92311,6.62166 7.74776,28.39625 8.36326,31.26478 0.26727,1.24563 0.83168,2.47845 1.25424,2.73961 1.38807,0.85787 15.9929,-20.55898 15.9929,-23.45235 0,-0.71278 7.80182,-12.76711 25.2753,-39.05204 6.62655,-9.96816 9.82078,-14.46712 12.06989,-17 1.22095,-1.375 3.99236,-5.17163 6.15869,-8.43695 4.05071,-6.10566 14.08607,-16.91065 18.46863,-19.88501 3.23699,-2.19689 5.60027,-2.11844 8.99467,0.29859 5.19985,3.70262 1.97887,12.02337 -4.65429,12.02337 -4.76451,0 -9.85024,2.36428 -11.93724,5.54944 -1.76626,2.69566 -1.75728,2.73473 1.17222,5.09686 1.62367,1.3092 4.75213,3.59082 6.95213,5.07026 2.2,1.47944 4.675,3.42262 5.5,4.31818 2.29716,2.49364 13.89372,10.96526 15.01002,10.96526 0.54323,0 2.8224,-1.78053 5.06483,-3.95673 7.16836,-6.95665 10.37611,-6.32808 11.55379,2.264 0.58328,4.25551 0.34365,5.15318 -2.26273,8.47615 -1.6033,2.04412 -5.11533,7.09158 -7.8045,11.21658 -2.68917,4.125 -5.94061,9.09919 -7.22541,11.05375 -1.2848,1.95456 -2.336,4.29726 -2.336,5.20599 0,0.90874 -1.35767,3.95486 -3.01705,6.76917 -1.65937,2.81431 -3.64103,6.61032 -4.40367,8.43559 -0.76264,1.82526 -4.57997,9.24846 -8.48295,16.49599 -3.90325,7.24753 -7.0966,13.53964 -7.0966,13.98247 0,0.44282 -1.2375,2.91984 -2.75,5.50449 -1.5125,2.58464 -3.2,5.47077 -3.75,6.41362 -0.55,0.94285 -2.77222,4.37621 -4.93826,7.6297 -2.16605,3.25349 -4.99773,7.96153 -6.29262,10.46233 -1.29489,2.50079 -5.14767,9.12164 -8.56173,14.71299 -12.07026,19.76796 -10.78006,17.49401 -14.65772,25.83391 -1.79007,3.85 -4.60565,9.61777 -6.25685,12.81727 l -3.00217,5.81727 1.57843,6.28378 c 2.64286,10.52126 2.76112,13.42595 3.97285,97.58168 0.27915,19.38701 0.89696,21.56391 6.34591,22.36052 7.06978,1.03356 22.77765,2.02634 27.54718,1.74106 6.95369,-0.41592 14.0065,4.27156 11.79963,7.84235 -0.60831,0.98427 -1.26408,1.00365 -2.97509,0.0879 -1.20714,-0.64603 -4.09521,-1.05775 -6.41794,-0.91491 -2.32273,0.14284 -4.75861,-0.0712 -5.41306,-0.47571 -0.65446,-0.40447 -3.11111,-0.7249 -5.45924,-0.71207 -4.84705,0.0265 -13.58522,-0.55696 -25.26932,-1.68726 -11.67412,-1.12934 -36.38463,-0.75663 -48.6632,0.73399 -10.45094,1.26874 -10.73604,1.24948 -14.3232,-0.9675 -2.25276,-1.39229 -3.30291,-2.6191 -2.73127,-3.19074 1.29399,-1.29399 11.47667,-2.62826 26.20163,-3.43328 16.81094,-0.91906 17.17678,-1.04225 17.58398,-5.92119 0.97676,-11.70313 1.25929,-28.45194 0.48799,-28.92864 -0.94339,-0.58304 -4.2149,-0.94138 -18.55593,-2.03249 -4.95,-0.37661 -10.90131,-1.09304 -13.22514,-1.59207 -2.32382,-0.49903 -7.68877,-1.13644 -11.9221,-1.41646 -4.23334,-0.28003 -9.30703,-0.89875 -11.27487,-1.37493 -1.96784,-0.47619 -6.84747,-0.93335 -10.84363,-1.0159 -7.07432,-0.14615 -7.29394,-0.077 -8.33598,2.62359 -0.58863,1.52554 -1.72954,7.2737 -2.53537,12.7737 -1.41839,9.68097 -3.32321,19.35022 -5.58376,28.34434 -1.35359,5.38553 -0.469,6.12556 6.013,5.03035 5.1259,-0.86609 18.91028,-2.20994 23.70785,-2.31131 2.53718,-0.0536 3,0.31598 3,2.39562 0,2.84447 -2.7278,3.77635 -13.5,4.6119 -3.575,0.27729 -9.65,1.12384 -13.5,1.88121 -3.85,0.75737 -10.375,1.66087 -14.5,2.00779 -4.125,0.34691 -9.525,1.07028 -12,1.60749 -2.475,0.53721 -7.65,1.15122 -11.5,1.36448 -3.85,0.21326 -7.225,0.49863 -7.5,0.63416 -0.59455,0.29302 -2.12145,0.41655 -16.5,1.33489 -6.05,0.38641 -15.76195,0.79659 -21.58211,0.91151 -8.00866,0.15813 -10.9586,0.58542 -12.13021,1.75703 -1.26283,1.26283 -2.93196,1.41591 -9.05803,0.83075 -8.49895,-0.81181 -16.79757,-0.61745 -21.23659,0.49739 -1.65382,0.41535 -3.34132,0.4208 -3.75,0.0121 z M 419.5,558.38506 c 3.15861,-1.68735 9.62567,-2.19801 13,-1.02653 1.71165,0.59425 2.61557,-0.45626 6.26964,-7.28639 4.08331,-7.63247 4.18437,-8.02639 2.31574,-9.02645 C 440.01074,540.47056 438.24256,540 437.1561,540 434.75546,540 415,556.55725 415,558.56925 c 0,1.82624 0.79772,1.79359 4.5,-0.18419 z m 51.927,-3.90653 c 1.05985,-0.80183 1.73485,-1.62233 1.5,-1.82334 -0.96161,-0.82306 -10.43156,-3.65833 -12.35514,-3.69908 -1.13952,-0.0241 -3.76636,-0.64852 -5.83742,-1.38751 -3.68795,-1.31593 -3.81597,-1.2792 -6.2118,1.78209 -1.47473,1.88436 -2.08378,3.48817 -1.53359,4.03836 0.50196,0.50196 5.21424,0.99924 10.47173,1.10507 5.2575,0.10582 9.85461,0.48794 10.21582,0.84915 0.93342,0.93342 1.56656,0.78743 3.7504,-0.86474 z M 482,554.10941 c 0,-0.9061 -7.11047,-2.16665 -7.97104,-1.41312 -0.25907,0.22685 0.19093,0.8311 1,1.34277 1.88122,1.18972 6.97104,1.24108 6.97104,0.0704 z m 23.86611,-9.11821 C 507.58975,541.13636 509,537.29724 509,536.45981 c 0,-0.83742 0.7875,-1.81313 1.75,-2.16825 2.68495,-0.99063 3.153,-2.29339 2.6,-7.23691 -0.41102,-3.6744 0.48054,-7.55023 4.61322,-20.05465 2.81749,-8.525 5.73069,-18.425 6.47376,-22 0.74308,-3.575 2.29499,-10.775 3.4487,-16 1.15371,-5.225 2.45777,-12.91351 2.8979,-17.08558 l 0.80023,-7.58558 -6.45269,-5.66442 c -6.3538,-5.57761 -9.0571,-6.87365 -9.20763,-4.41442 -0.0421,0.6875 -0.30317,2.15 -0.58019,3.25 -0.51037,2.0266 -1.07084,5.55113 -1.74922,11 -0.77255,6.2053 -1.72958,11.91023 -2.09801,12.50635 -0.20983,0.33952 -0.65734,5.31448 -0.99446,11.05548 -0.33713,5.74099 -1.08985,13.36317 -1.67272,16.93817 -0.58286,3.575 -1.13099,15.05 -1.21805,25.5 -0.14543,17.45531 -0.3595,19.56344 -2.63319,25.93042 -1.94777,5.45431 -3.1674,7.339 -5.72627,8.84877 -1.78826,1.0551 -3.25138,2.09891 -3.25138,2.31959 0,0.22067 1.51475,0.40122 3.36611,0.40122 3.20322,0 3.51778,-0.33918 6.5,-7.0088 z M 483.5,544.93801 c 6.19445,-1.16799 6.61648,-1.28914 8.62817,-2.47678 2.17344,-1.28314 6.97523,-8.4849 6.34127,-9.51068 -0.27614,-0.44679 -0.0447,-1.09501 0.51425,-1.44047 1.35494,-0.8374 1.29228,-10.80236 -0.11189,-17.79425 -0.95968,-4.77858 -0.87126,-6.25992 0.59193,-9.91679 0.94607,-2.36447 1.6518,-4.41558 1.56828,-4.55803 -0.0835,-0.14244 0.1343,-2.16744 0.48406,-4.5 1.1866,-7.91356 4.07447,-39.81714 3.64322,-40.24838 -0.23584,-0.23585 -3.5335,2.70683 -7.32813,6.53928 C 490.65317,468.28144 487,469.86755 487,465.73453 c 0,-1.43381 2.19428,-4.46239 5.97732,-8.25 3.28753,-3.29149 5.98753,-6.27094 6,-6.621 0.0125,-0.35006 2.00805,-4.85666 4.43461,-10.01465 4.23987,-9.01245 5.26568,-12.57387 7.73334,-26.84888 1.27929,-7.40046 3.42664,-10.28651 7.88319,-10.59505 12.38413,-0.85737 18.86037,-2.00675 28.47154,-5.05303 17.54531,-5.56102 25.2961,-9.84702 36.13781,-19.98333 4.1006,-3.83379 13.3798,-21.18189 14.92838,-27.90959 1.35359,-5.88063 1.60459,-19.3568 0.48584,-26.08495 -0.62865,-3.78073 -1.31785,-7.99905 -1.53156,-9.37405 -1.29245,-8.31572 -6.22439,-28.00911 -8.21068,-32.78549 -1.57849,-3.79576 -4.20441,-5.03905 -11.47445,-5.43281 l -5.20124,-0.2817 -1.26112,4.27609 c -0.69361,2.35186 -1.45807,5.50186 -1.6988,7 -0.47357,2.94731 -6.03192,17.76677 -8.27946,22.07441 -0.76032,1.45722 -1.38517,3.22205 -1.38856,3.92184 -0.003,0.69979 -1.85707,3.28034 -4.11929,5.73456 -3.12599,3.3913 -5.46596,4.85466 -9.75,6.09739 -20.3875,5.91411 -32.5181,10.11154 -40.63687,14.06116 -12.15222,5.91182 -12.3394,6.1862 -18.44873,27.04369 -2.66639,9.10315 -5.67064,12.81447 -11.07226,13.67823 -2.78214,0.44488 -5.42655,1.90573 -8.38338,4.63125 -5.01369,4.62146 -8.13108,5.09506 -9.77586,1.48517 -0.93231,-2.04621 -0.64828,-4.16438 1.57564,-11.75 1.49214,-5.08958 3.56758,-11.50379 4.61209,-14.25379 1.0445,-2.75 2.19675,-6.35 2.56055,-8 0.90082,-4.0857 6.85854,-14.95833 11.23988,-20.51241 1.97833,-2.50785 8.25556,-8.1435 13.94942,-12.52366 5.69385,-4.38016 11.63021,-8.97643 13.19191,-10.21393 1.5617,-1.2375 3.16339,-2.25 3.55931,-2.25 C 509.64023,307 521,296.90657 521,295.90106 c 0,-2.25426 -5.3062,-0.19869 -23.7143,9.1867 -10.88213,5.54827 -21.3607,10.67293 -23.2857,11.38812 -13.46094,5.00115 -19,8.34001 -19,11.45289 0,1.00484 -0.74891,3.56944 -1.66426,5.69911 -0.91534,2.12966 -1.7333,4.54712 -1.8177,5.37212 -0.0844,0.825 -1.24569,4.3125 -2.58066,7.75 -2.09711,5.40002 -2.77428,6.25 -4.97934,6.25 -1.65093,0 -3.80658,1.3242 -6.10458,3.75 -2.88524,3.04569 -3.88273,5.25253 -5.31102,11.75 -0.96722,4.4 -1.94124,9.42344 -2.1645,11.1632 -0.22325,1.73976 -0.87873,5.33976 -1.45661,8 -0.57788,2.66024 -1.45637,7.66766 -1.95221,11.1276 -0.49583,3.45994 -1.10573,6.62122 -1.35532,7.02507 -0.24959,0.40384 -0.94647,5.15252 -1.54861,10.55261 -0.60215,5.4001 -1.5736,10.71298 -2.15879,11.80642 -0.58519,1.09344 -1.23694,4.9889 -1.44834,8.65658 -0.21139,3.66769 -0.8708,9.81852 -1.46535,13.66852 -0.59455,3.85 -1.51986,10.375 -2.05625,14.5 -1.12456,8.64832 -1.35153,10.17958 -2.81629,19 -0.59368,3.575 -1.29009,7.85 -1.54757,9.5 -0.25749,1.65 -0.76865,4.64507 -1.13592,6.6557 -0.72201,3.95269 -1.34515,3.20381 15.93672,19.15258 2.26963,2.09456 5.7016,5.32532 7.6266,7.17946 6.24402,6.0142 13.12432,10.64471 20.38686,13.72055 13.55448,5.74063 18.41496,6.55835 28.11314,4.72972 z m 2.5,-33.41435 c 0,-1.44264 0.70532,-3.98692 1.56737,-5.65395 1.76889,-3.42065 4.741,-12.41192 7.05616,-21.34642 1.90334,-7.34524 2.04639,-7.58719 4.03471,-6.8242 3.41028,1.30865 -0.52713,19.41826 -6.80286,31.28888 C 489.07248,514.25186 486,515.5824 486,511.52366 Z m 5.35122,-69.05077 c -0.87071,-2.26905 4.37816,-18.43181 6.2146,-19.13652 1.5483,-0.59414 7.43418,4.44913 7.43418,6.36991 0,1.49035 -5.05122,6.29372 -6.61846,6.29372 -0.6264,0 -1.69191,1.33508 -2.36781,2.96684 -1.74423,4.21097 -3.79907,5.75613 -4.66251,3.50605 z m -90.84575,101.08927 c 2.50184,-1.04534 4.33388,-1.18183 6.71128,-0.5 1.79852,0.51581 3.59952,0.93784 4.00222,0.93784 1.22944,0 9.60212,-15.01323 9.34597,-16.75847 -0.13189,-0.89862 -0.97172,-2.09554 -1.8663,-2.65983 -1.30491,-0.82311 -2.35646,-0.17319 -5.31833,3.28709 -3.55525,4.15352 -8.55703,9.02021 -14.88031,14.47843 -3.42555,2.95691 -2.91048,3.26896 2.00547,1.21494 z M 432,534.42428 c 0,-0.10684 -1.09294,-0.91038 -2.42876,-1.78565 -2.39118,-1.56676 -2.47628,-1.51415 -5.5,3.40002 -4.71076,7.65596 -3.88876,8.7824 2.42876,3.32825 3.025,-2.61159 5.5,-4.83577 5.5,-4.94262 z M 615.32236,498 c 1.25196,-1.27838 3.25506,-19.51477 4.02681,-36.6604 0.61153,-13.58606 0.25925,-14.263 -7.89813,-15.17698 -7.67499,-0.85992 -51.95104,-0.0781 -51.95104,0.91739 0,0.0838 -1.94565,0.28965 -4.32366,0.45745 -6.25543,0.44141 -6.99746,0.93935 -7.68934,5.15998 -0.34283,2.09141 -1.22958,6.72756 -1.97054,10.30256 -1.86517,8.9991 -2.91818,17.50426 -2.9714,24 l -0.0451,5.5 10,0.52691 c 5.5,0.2898 10.91888,1.04303 12.04195,1.67384 2.61461,1.46858 17.08402,3.46253 22.93037,3.1599 2.4691,-0.12781 4.68557,-0.0362 4.92549,0.20348 0.60973,0.60925 22.32458,0.5485 22.92455,-0.0641 z M 537,486 c 0,-0.55 -0.19844,-1 -0.44098,-1 -0.24254,0 -0.7191,0.45 -1.05902,1 -0.33992,0.55 -0.14148,1 0.44098,1 0.58246,0 1.05902,-0.45 1.05902,-1 z m 83.90443,-45.59978 c 0.41163,-0.38244 3.00438,-13.07588 3.0435,-14.90022 0.0644,-3.00552 -1.6379,-3.65638 -5.42486,-2.07409 -2.07202,0.86575 -4.97236,1.57409 -6.44519,1.57409 -1.47284,0 -3.10538,0.40536 -3.62788,0.9008 -1.1885,1.12695 -15.11703,4.03679 -22.45,4.69009 -3.025,0.2695 -7.97925,0.92197 -11.00944,1.44993 -7.60283,1.32469 -15.61078,1.88689 -28.27734,1.98523 -10.67393,0.0829 -10.83087,0.05 -15,-3.14556 -2.31727,-1.77612 -5.6766,-4.58995 -7.46517,-6.25295 -2.50613,-2.33019 -3.52367,-2.75192 -4.43675,-1.83884 -0.91308,0.91308 -0.62595,1.78959 1.25194,3.8218 3.5201,3.80935 15.52797,13.30273 17.96782,14.20528 2.01176,0.74421 81.05691,0.343 81.87337,-0.41556 z M 553.55,427.05354 c 0.5225,-0.52055 7.925,-1.45766 16.45,-2.08246 8.525,-0.62481 17.525,-1.55147 20,-2.05926 2.475,-0.50779 6.75,-1.33134 9.5,-1.83012 2.75,-0.49877 7.025,-1.65808 9.5,-2.57624 2.475,-0.91815 5.48557,-1.9048 6.69016,-2.19255 1.20459,-0.28775 2.9519,-1.3649 3.88292,-2.39366 1.61554,-1.78516 1.25273,-2.39198 -7.95365,-13.30311 C 602.22632,389.4837 595.77996,383 594.10475,383 c -0.79092,0 -3.19482,1.53452 -13.10475,8.36537 -10.40558,7.1725 -44.92661,19.55325 -54.69098,19.61459 -1.75504,0.011 -3.4369,0.41793 -3.73746,0.90425 -0.66933,1.083 6.71547,8.00935 12.29449,11.53123 3.11127,1.96406 5.40524,2.58456 9.55506,2.58456 3.00347,0 5.73897,0.45 6.07889,1 0.77555,1.25486 1.82568,1.27329 3.05,0.0535 z m 64.78711,-41.42005 c 2.21335,-2.70112 4.69442,-4.5898 6.5051,-4.95193 2.13547,-0.4271 3.75099,-1.92444 5.97355,-5.53656 3.68699,-5.99211 3.79404,-5.81169 -8.06231,-13.5881 -4.81061,-3.1552 -8.99967,-6.14627 -9.30902,-6.64682 C 612.06794,352.68287 611,354.38417 611,358.80422 c 0,4.97105 -3.27373,11.56352 -8.5392,17.19578 l -2.33719,2.5 6.6882,5.71173 c 3.6785,3.14144 6.97148,5.72894 7.31773,5.75 0.34624,0.0211 2.23965,-1.92666 4.20757,-4.32824 z M 648.35995,368.5 c 1.74217,-2.75 4.46988,-7.475 6.06157,-10.5 1.59169,-3.025 4.35994,-7.75 6.15166,-10.5 5.47895,-8.4093 12.37292,-22.47688 11.77659,-24.03089 C 672.00249,322.5641 672.38467,322 673.34511,322 674.63654,322 682,311.20837 682,309.31568 c 0,-0.71788 11.97086,-24.34053 15.15737,-29.91073 1.28845,-2.25228 4.00966,-6.49088 6.04714,-9.4191 3.44707,-4.95407 3.96494,-6.98585 1.78058,-6.98585 -0.77436,0 -2.76131,3.05202 -11.01817,16.92429 -0.84319,1.41664 -2.70684,4.40188 -4.14143,6.63385 -1.4346,2.23198 -5.05546,8.75698 -8.04637,14.5 -9.47629,18.19598 -13.41443,25.27687 -17.48685,31.44186 -2.17989,3.3 -5.91884,9.375 -8.30878,13.5 -2.38993,4.125 -4.88973,8.175 -5.55511,9 C 648.78326,357.0398 637,379.44703 637,380.53563 c 0,1.64337 8.19359,-7.03757 11.35995,-12.03563 z m -166.60453,-9.25 c 0.54893,-1.5125 1.434,-5.15371 1.96683,-8.09157 0.80337,-4.42954 0.67182,-5.92405 -0.77048,-8.75303 l -1.73926,-3.41146 -2.85626,3.26213 c -1.57094,1.79418 -3.68995,5.28304 -4.70891,7.75303 -1.01896,2.47 -2.25646,5.27229 -2.75,6.22733 -1.48068,2.86524 -1.04065,3.76277 1.85266,3.77888 1.5125,0.008 3.425,0.45153 4.25,0.98469 2.47472,1.59929 3.70405,1.14689 4.75542,-1.75 z m 159.05231,-0.90977 c 0.19432,-1.36385 -0.54272,-2.75257 -2,-3.76836 -7.23776,-5.04504 -15.80677,-11.40562 -19.23773,-14.27972 -5.07347,-4.25003 -6.57,-4.22018 -6.57,0.13105 0,3.12223 0.60405,3.82478 6.87007,7.99042 3.77853,2.51197 9.06603,6.36552 11.75,8.56346 5.30217,4.34202 8.69157,4.8449 9.18766,1.36315 z m 8.6637,-13.57299 c 1.54444,-2.89698 4.45794,-7.51724 6.47445,-10.26724 4.23047,-5.76927 9.05642,-14.23603 9.0491,-15.87595 -0.003,-0.61823 -3.47358,-3.14905 -7.71293,-5.62405 -4.23935,-2.475 -8.84959,-5.44309 -10.24498,-6.59575 -7.20219,-5.94937 -12.89666,-9.27818 -13.864,-8.10445 -0.54403,0.66011 -3.78719,6.6002 -7.20702,13.2002 -3.41982,6.6 -7.06121,13.19447 -8.09196,14.65437 -2.59205,3.67125 -2.40599,4.36069 1.87591,6.95138 5.42212,3.28056 18.27344,12.88977 21.60895,16.15747 3.40804,3.33877 4.1569,2.92375 8.11248,-4.49598 z m -205.42745,-8.12351 c 0.99343,-2.61707 2.24656,-5.29503 2.78475,-5.95102 0.53819,-0.65599 1.29805,-3.7747 1.68859,-6.93047 0.5943,-4.80227 0.44489,-5.83951 -0.91636,-6.36187 -2.43022,-0.93256 -4.39397,1.22806 -7.74665,8.52327 -1.66227,3.617 -3.89274,8.29351 -4.95661,10.39225 -1.06386,2.09874 -1.72848,4.14889 -1.47694,4.55589 0.25153,0.407 2.33826,0.69281 4.63717,0.63513 4.03845,-0.10132 4.24092,-0.26581 5.98605,-4.86318 z m 71.06205,-8.17979 c 5.28889,-1.79887 13.85141,-4.0323 18.89397,-4.92826 0.275,-0.0489 3.01662,-1.29403 6.09248,-2.76704 5.58464,-2.67444 11.06329,-8.20683 14.13005,-14.26864 2.16625,-4.28183 6.41582,-17.04402 7.82507,-23.5 0.66032,-3.025 1.56101,-6.625 2.00153,-8 0.44053,-1.375 1.56155,-6.55 2.49116,-11.5 0.92961,-4.95 2.09176,-9.76431 2.58255,-10.69846 0.4908,-0.93415 1.04573,-3.67925 1.23318,-6.10023 0.18746,-2.42098 0.65809,-4.91512 1.04586,-5.54254 1.0831,-1.7525 4.6419,-19.92209 5.22153,-26.65877 0.37558,-4.36504 1.0724,-6.47686 2.5572,-7.75 2.24351,-1.92368 4.38714,-2.25841 5.27394,-0.82354 0.57999,0.93844 -1.81276,17.64565 -3.44773,24.07354 -2.77926,10.92664 -5.07291,22.49798 -5.3519,27 -0.14673,2.36788 0.12618,2.50226 5.1642,2.54267 2.92552,0.0235 5.48571,-0.22688 5.68932,-0.55632 0.20361,-0.32945 0.46003,-5.07365 0.56983,-10.54267 0.1098,-5.46903 0.57788,-12.86868 1.04018,-16.44368 2.73573,-21.15575 4.56328,-73.63861 2.63182,-75.57944 -0.77605,-0.7798 -11.2574,5.95382 -12.53031,8.04996 -0.39598,0.65207 -4.53775,4.52546 -9.20394,8.60753 -31.58841,27.63417 -43.387,42.78064 -45.56744,58.49734 -1.1428,8.23733 -0.92141,17.72365 0.56786,24.33192 3.29747,14.63174 4.81613,19.59269 5.99777,19.59269 1.42236,0 3.94742,-7.51407 3.97061,-11.81574 0.008,-1.54866 0.4206,-3.57366 0.91611,-4.5 0.4955,-0.92634 1.18997,-3.25926 1.54325,-5.18426 0.76278,-4.15632 3.42825,-20.435 4.50285,-27.5 2.50099,-16.44287 10.59527,-34.44759 16.39541,-36.46953 3.55838,-1.24046 4.73582,-1.26713 6.50277,-0.1473 1.04167,0.66018 0.34741,2.20796 -3.07678,6.8594 -2.4321,3.30377 -4.99734,7.52573 -5.70054,9.38214 -0.7032,1.85641 -2.16245,5.55648 -3.24279,8.22239 -1.08033,2.6659 -1.73666,5.07467 -1.45851,5.35282 0.27815,0.27815 0.0605,1.67665 -0.48358,3.10779 -0.54412,1.43113 -1.38469,5.54736 -1.86794,9.14717 -2.29145,17.06939 -4.28654,28.37627 -6.62159,37.52684 -1.40093,5.48994 -2.72563,11.11494 -2.94377,12.5 -0.81114,5.15023 -1.09745,6.06602 -2.25983,7.2284 -0.65444,0.65444 -1.18988,1.59762 -1.18988,2.09598 0,2.05384 -6.35381,8.70769 -11.25298,11.78436 -2.88586,1.81231 -10.27369,6.60957 -16.4174,10.66057 l -11.17037,7.36546 2.09523,5.19175 c 3.08558,7.64576 3.40447,7.91948 7.0376,6.04072 1.69999,-0.8791 6.11627,-2.62736 9.81395,-3.88502 z M 467.8887,311.88928 c 10.40372,-4.96637 21.18958,-9.96704 26.6113,-12.33786 4.67021,-2.0422 27.27856,-15.3841 27.97302,-16.50776 0.25999,-0.42068 -0.36788,-2.96509 -1.39527,-5.65426 -1.02738,-2.68917 -2.66326,-7.4769 -3.63528,-10.6394 -0.97202,-3.1625 -2.03172,-5.73245 -2.35489,-5.711 -0.32317,0.0215 -2.01413,1.97985 -3.7577,4.35199 -5.36448,7.29845 -34.68638,31.54322 -50.8103,42.01242 -7.19691,4.67293 -7.47333,4.99021 -5.88074,6.75 2.33935,2.58496 3.51134,2.38469 13.24986,-2.26413 z M 670.63845,308.25 c 0.74682,-2.27026 3.14947,-7.3365 4.38677,-9.25 2.13551,-3.30257 8.59208,-15.15953 14.67527,-26.94994 5.71726,-11.08118 6.28864,-12.70186 5.19713,-14.74137 -2.96994,-5.54937 -23.42922,-21.74396 -26.66804,-21.10914 -0.84309,0.16525 -2.7579,2.55045 -4.25511,5.30045 -7.27914,13.36992 -9.65809,17.72539 -14.58106,26.69554 -2.92658,5.33255 -6.03604,11.40672 -6.90989,13.49816 -1.54193,3.69035 -1.52086,3.85703 0.71382,5.64643 3.02362,2.42114 13.7729,11.93697 20.1988,17.88104 5.67423,5.24877 6.41072,5.55678 7.24231,3.02883 z m -45.22682,-5.50632 c 1.0514,-1.78403 3.77787,-6.84368 6.05883,-11.24368 2.28096,-4.4 4.85376,-9.125 5.71733,-10.5 3.97782,-6.33359 10.64606,-20 9.75859,-20 -0.54409,0 -1.5319,1.2375 -2.19513,2.75 -0.66324,1.5125 -2.67859,5.09088 -4.47857,7.95196 -1.79997,2.86108 -3.27268,5.35927 -3.27268,5.55153 0,0.43066 -12.60603,19.8284 -13.86184,21.33013 -0.49839,0.59598 -1.21912,2.50848 -1.60162,4.25 -0.94101,4.28441 1.32815,4.23174 3.87509,-0.0899 z M 649.98738,301.25 c -0.0123,-0.73345 -9.3314,-9.18105 -11.66828,-10.57714 -0.6495,-0.38801 -1.44628,-0.27609 -1.77064,0.24873 -0.32435,0.52482 2.22554,3.23216 5.66643,6.01631 6.0701,4.91155 7.79871,5.87056 7.77249,4.3121 z M 587.81256,265.73479 C 588.10141,264.23492 587.28359,264 581.77332,264 575.97697,264 573,265.06534 573,267.13963 c 0,0.9823 6.61504,1.49104 10.98923,0.84516 2.25007,-0.33224 3.60789,-1.13131 3.82333,-2.25 z M 712.62069,254.75 c 1.11582,-2.14481 1.14993,-2.74165 0.15499,-2.71205 -1.40303,0.0417 -6.77568,7.29684 -6.77568,9.14971 0,1.63487 4.89947,-3.12916 6.62069,-6.43766 z m -24.39814,-13.23451 c -2.21314,-2.51427 -5.3061,-5.5558 -6.87322,-6.75897 -1.56713,-1.20316 -3.07433,-2.43848 -3.34933,-2.74514 -1.80805,-2.01624 -5.97199,-3.86572 -6.56027,-2.91386 -0.63997,1.03548 5.17753,7.90248 6.69472,7.90248 0.40816,0 2.23239,1.39772 4.05383,3.10605 3.77986,3.54511 9.01655,7.02245 9.63863,6.40037 0.23075,-0.23075 -1.39121,-2.47666 -3.60436,-4.99093 z M 559.71932,171.52273 c 6.47937,-5.91746 14.34301,-13.15628 17.47474,-16.08627 3.13173,-2.92998 7.06271,-6.035 8.73551,-6.90004 1.6728,-0.86504 3.24505,-2.57711 3.49389,-3.80461 0.84362,-4.16143 1.37158,-10.60343 0.9071,-11.06792 -0.25422,-0.25422 -2.78483,1.06741 -5.62359,2.93695 C 581.86822,138.47038 578.76902,140 577.81986,140 574.8642,140 571,142.24407 571,143.96052 571,146.2594 572.99978,148 575.64098,148 c 1.23254,0 2.50007,0.41921 2.81673,0.93158 C 579.23331,150.18652 575.0747,153 572.44416,153 570.53245,153 563,146.61447 563,144.99385 563,144.04576 558.26826,142 556.07539,142 c -4.86082,0 -4.86989,-2.71326 -0.0902,-27 2.22957,-11.32905 0.71155,-26.243477 -3.8485,-37.81136 -4.71504,-11.961049 -6.26747,-12.772872 -10.09148,-5.2772 C 539.43984,77.018326 539.4364,77 543,77 c 5.00334,0 3.49769,2.252436 -5.96095,8.917492 -4.92852,3.472896 -9.6469,7.36126 -10.48529,8.640808 -1.43554,2.190902 -1.36498,2.438146 1.21094,4.243471 4.23226,2.966159 9.19922,4.955029 15.4853,6.200639 5.4755,1.08499 7.56145,3.09591 4.5,4.33813 -0.9402,0.38149 -0.87825,0.76685 0.25,1.55486 2.19,1.52959 0.28146,4.02041 -4.52868,5.91035 -4.9852,1.95872 -17.62792,10.75093 -23.18268,16.12209 -2.31625,2.23969 -4.90375,4.07216 -5.75,4.07216 -2.03165,0 -1.94239,-0.67125 0.50254,-3.77948 1.78659,-2.27128 1.84895,-2.7025 0.5,-3.45742 C 514.69353,129.28874 514,128.02298 514,126.95031 514,125.38645 514.69652,125 517.51515,125 c 3.69556,0 12.89226,-4.58273 15.9276,-7.93674 1.63826,-1.81025 1.62058,-1.959 -0.35868,-3.01827 -1.27015,-0.67976 -4.026,-0.85627 -7.06825,-0.4527 -4.62041,0.61292 -5.0515,0.48701 -5.87346,-1.71541 -0.52208,-1.39892 -0.51134,-3.37359 0.0261,-4.79933 1.02065,-2.70758 0.35305,-5.5179 -1.09779,-4.62123 -0.51889,0.3207 -3.98409,4.96172 -7.70044,10.31338 -7.41246,10.67419 -18.55659,34.17118 -18.13184,38.2303 0.38196,3.65012 4.11824,3.66305 11.19463,0.0387 7.41033,-3.79536 8.56698,-3.81612 8.56698,-0.15373 0,1.97384 -0.78956,3.40233 -2.5,4.52305 -3.27718,2.1473 -3.15479,3.86321 0.4946,6.93397 4.27955,3.601 6.78153,4.17057 9.10069,2.07175 1.32231,-1.19667 2.27983,-1.43864 2.96837,-0.7501 0.68853,0.68853 -0.13628,2.72927 -2.55696,6.32638 -1.96535,2.9205 -3.41031,5.79914 -3.21102,6.39699 0.38316,1.14949 24.64096,6.31192 28.42364,6.04899 1.28822,-0.0895 7.16187,-4.66817 14,-10.91329 z m 14.03147,-38.44312 c 9.5088,-3.03769 14.565,-6.05927 23.07386,-13.78891 7.07798,-6.42981 8.00851,-7.69247 8.60616,-11.67789 1.05081,-7.00731 0.75948,-36.388741 -0.38197,-38.521545 -1.01004,-1.887284 -11.40199,-5.851303 -17.29464,-6.597062 -1.59323,-0.201634 -4.1022,-0.599436 -5.57549,-0.884004 C 580.70542,61.325631 575.9,60.829811 571.5,60.508378 c -6.52679,-0.476802 -8.64453,-0.254714 -11.5,1.206005 -2.97385,1.521279 -3.45177,2.235085 -3.17918,4.748349 0.17645,1.626855 1.138,4.775772 2.13677,6.997593 3.60585,8.021434 4.55503,17.910202 2.4757,25.792545 -1.09434,4.14845 -1.10148,5.60612 -0.0399,8.14961 0.88775,2.12706 1.16507,6.50014 0.88513,13.95804 -0.2242,5.97329 -0.16771,11.48579 0.12555,12.25 0.73128,1.90569 4.23231,1.74188 11.34675,-0.53091 z M 544,110.55902 c 0,-1.05548 -1.91911,-1.49891 -2.48992,-0.57533 -0.34546,0.55897 0.0734,1.01631 0.9309,1.01631 0.85746,0 1.55902,-0.19844 1.55902,-0.44098 z m 78.79417,-3.92462 c 1.59779,-1.59779 2.0297,-13.508379 0.97497,-26.886555 C 622.82284,67.744998 622.26254,66 619.3548,66 c -2.9643,0 -6.61011,1.777876 -5.92362,2.888647 1.01237,1.638052 1.42746,29.779934 0.50027,33.917223 -0.53299,2.37833 -0.6784,4.79455 -0.32313,5.36939 0.85542,1.38411 7.35037,0.29462 9.18585,-1.54086 z M 355.25,563.21076 c -2.99094,-0.46507 -2.85973,-1.84091 0.25,-2.6214 1.375,-0.34511 2.5,-1.24575 2.5,-2.00142 0,-0.75568 0.7118,-1.64711 1.58179,-1.98095 2.35742,-0.90463 3.61548,-0.7352 2.91821,0.39301 -0.33992,0.55 -0.14148,1 0.44098,1 0.58246,0 1.05902,-0.41538 1.05902,-0.92308 0,-0.50769 1.35,-2.27307 3,-3.92307 2.52081,-2.52082 3,-2.70226 3,-1.13594 0,1.02523 0.45,2.14217 1,2.48209 0.55,0.33992 1,0.10398 1,-0.52432 0,-0.62829 0.5625,-0.94566 1.25,-0.70527 0.6875,0.24039 1.10374,1.23899 0.92498,2.21911 -0.23651,1.29679 0.12111,1.61084 1.31335,1.15333 0.9011,-0.34578 2.94641,0.0477 4.54513,0.87445 1.59873,0.82674 6.28441,1.78867 10.41263,2.13763 5.46522,0.46198 7.96232,1.13888 9.18487,2.48977 1.58462,1.751 1.56118,1.8553 -0.41696,1.8553 -1.15278,0 -2.33807,-0.39173 -2.63397,-0.87051 -0.94894,-1.53541 -25.76752,-2.42592 -30.66952,-1.10043 -5.15906,1.39499 -7.57006,1.66224 -10.66051,1.1817 z M 319.00033,561 c -0.44582,-0.275 -10.18232,-0.65024 -21.63665,-0.83387 -11.45434,-0.18363 -21.14643,-0.53186 -21.53798,-0.77385 -0.39155,-0.242 -4.18732,-0.64965 -8.43504,-0.9059 -14.57814,-0.87945 -18.08272,-5.13093 -5.88015,-7.13334 10.58204,-1.73648 14.71245,-2.27378 17.79851,-2.31527 1.54496,-0.0208 2.56475,-0.433 2.2662,-0.91606 -0.9264,-1.49896 -26.76281,-0.73904 -29.24402,0.86013 -1.66818,1.07517 -2.49343,1.12841 -3.57519,0.23063 -1.47816,-1.22677 -30.14572,-0.87629 -50.07071,0.61215 -10.14441,0.75781 -34.93479,0.45197 -57.4353,-0.70857 -2.76419,-0.14257 -2.95943,-2.66601 -0.31574,-4.08087 1.06384,-0.56935 6.80134,-1.0425 12.75,-1.05145 5.94866,-0.009 15.76574,-0.43738 21.81574,-0.95206 6.05,-0.51468 16.4,-1.39521 23,-1.95672 6.6,-0.56151 17.175,-1.27132 23.5,-1.57734 6.325,-0.30603 16.50461,-0.98994 22.62135,-1.51981 6.11674,-0.52986 14.83575,-1.2 19.37557,-1.48919 8.85174,-0.56386 11.04754,-1.20905 8.85984,-2.60329 -1.21961,-0.77727 -25.95946,-0.44614 -41.35676,0.55355 -8.04978,0.52263 -26.99343,1.42907 -43.5,2.08144 -7.425,0.29344 -14.625,0.73238 -16,0.9754 -5.71509,1.01012 -25.97483,3.02355 -27.22454,2.7056 -0.3985,-0.10138 -3.58149,0.47823 -7.07332,1.28804 -4.36972,1.01341 -7.33454,1.18967 -9.5111,0.56544 -1.85614,-0.53233 -5.71994,-0.54543 -9.35442,-0.0317 -3.40565,0.48139 -6.62831,0.60565 -7.16147,0.27614 -0.53315,-0.3295 -6.46265,-0.79001 -13.176652,-1.02334 -10.392103,-0.36116 -12.452911,-0.17862 -13.859152,1.22762 -1.535825,1.53583 -1.888033,1.50591 -5.013641,-0.42582 C 76.845604,540.35949 74.635857,540 66.854472,540 59.956643,540 56.851767,539.58448 55.222506,538.4433 54.000128,537.58711 53,536.49786 53,536.02275 c 0,-1.55159 5.574192,-2.13402 11.598646,-1.2119 3.245745,0.49681 8.826354,0.59978 12.401354,0.22884 3.575,-0.37094 8.525,-0.29867 11,0.1606 6.603046,1.22528 30.24941,0.88364 31.58945,-0.45641 0.29096,-0.29096 -1.34122,-1.81486 -3.62707,-3.38645 -4.01317,-2.75917 -20.728521,-19.20932 -24.783624,-24.39041 -3.736519,-4.77404 -2.802102,-11.4298 2.981849,-21.23941 l 2.874285,-4.8748 -4.017445,-1.57809 c -5.192882,-2.03982 -5.21431,-4.23567 -0.107658,-11.03198 2.150383,-2.86189 4.711347,-7.34978 5.691029,-9.97309 0.979683,-2.62331 2.326634,-5.66965 2.993214,-6.76965 0.66659,-1.1 2.87876,-6.5 4.91594,-12 2.03718,-5.5 4.32999,-11.21354 5.09514,-12.69676 0.76516,-1.48322 1.58358,-3.73322 1.81873,-5 C 113.65899,420.53646 113.91826,419.5 114,419.5 c 0.0817,0 0.3344,-1.125 0.56147,-2.5 0.88543,-5.36169 2.80163,-11.56967 4.01268,-13 0.69851,-0.825 1.57484,-2.72144 1.94739,-4.21431 0.37255,-1.49287 2.65761,-4.53964 5.07791,-6.7706 2.4203,-2.23095 4.40055,-4.26287 4.40055,-4.51536 0,-0.2525 -1.79663,-1.37565 -3.99251,-2.49591 C 111.65031,378.67934 83.325592,350.15012 81.407682,341.08201 81.107328,339.6619 80.39337,337.375 79.821108,336 77.952341,331.50983 77.811443,316.50934 79.560068,308.20879 80.453247,303.96895 81.367132,298.475 81.590924,296 c 0.572419,-6.33061 8.062259,-28.19428 12.114375,-35.36321 1.866451,-3.30209 4.833807,-7.6782 6.594121,-9.72469 1.76032,-2.04648 5.22558,-6.26086 7.70058,-9.36528 2.475,-3.10442 6.77553,-8.22394 9.55674,-11.37671 2.78121,-3.15276 6.87602,-8.19331 9.09959,-11.20121 6.2883,-8.50642 25.2945,-27.87227 30.84367,-31.42732 6.39928,-4.09967 18.35486,-14.13438 30.7785,-25.83341 5.37817,-5.06449 12.35368,-10.78317 15.50111,-12.70817 3.14744,-1.925 7.29712,-4.68438 9.2215,-6.13195 1.92439,-1.44757 4.92239,-3.35145 6.66223,-4.23086 1.73983,-0.8794 6.91949,-5.09503 11.51034,-9.36805 8.31763,-7.74179 9.63658,-8.76525 15.32632,-11.89269 3.84799,-2.11511 10.81496,-8.29962 11.62437,-10.31885 0.3434,-0.85668 0.2562,-2.26825 -0.19379,-3.13683 -1.14747,-2.21486 -13.08477,-10.061499 -22.72262,-14.936053 -8.78832,-4.444884 -10.26126,-6.447546 -7.66095,-10.416124 1.60196,-2.444901 1.55741,-2.618023 -1.44708,-5.622506 -1.70496,-1.704963 -3.11424,-4.077818 -3.13173,-5.27301 -0.0175,-1.195192 -0.6925,-3.046585 -1.5,-4.114207 C 220.66069,62.491249 220,60.128749 220,58.30887 220,56.059934 219.52773,55 218.52568,55 c -1.77967,0 -4.8805,-5.632977 -4.14948,-7.537972 2.02941,-5.288557 22.57184,-6.413062 38.1238,-2.08692 10.86056,3.021119 19.15206,5.876483 23.31398,8.028697 4.47373,2.313455 6.36731,1.994941 9.83192,-1.653805 4.38241,-4.615322 24.40797,-14.463226 31.8541,-15.664786 4.05468,-0.654292 10.08186,-3.05018 18.58976,-7.389691 6.92437,-3.531819 13.89937,-6.671106 15.5,-6.976195 1.60063,-0.305089 4.65234,-1.006672 6.78158,-1.559072 4.19416,-1.08812 6.62866,-0.63392 6.62866,1.2367 0,1.154993 -13.66513,7.581154 -16.21504,7.62528 C 348.07823,29.034466 346.375,29.924459 345,31 c -1.375,1.075541 -3.175,1.967217 -4,1.981502 -2.65465,0.04597 -8.3549,4.063594 -7.28437,5.13413 0.64353,0.643531 5.02347,-0.242181 12.69159,-2.566492 C 352.84714,33.597113 359.57503,32 361.35808,32 c 5.62424,0 7.17718,3.592429 3.92954,9.090237 C 363.41831,44.254733 362.15663,44.6207 350,45.5246 c -9.58084,0.712378 -14.61,3.000717 -14.21852,6.469628 0.15482,1.371825 2.17527,4.423848 4.48988,6.782272 5.90755,6.019347 15.75472,9.096028 29.23045,9.132844 7.77145,0.02123 10.15487,0.374973 11.65134,1.729256 1.78414,1.614624 2.02247,1.568271 4.61408,-0.897413 1.50302,-1.429987 4.75777,-3.3002 7.23277,-4.156029 7.69945,-2.662387 12.30395,-1.571875 6.25,1.480223 -2.69728,1.359834 -2.63498,1.396459 3.25,1.910515 5.19365,0.453669 6.04143,0.814942 6.3083,2.688214 0.38786,2.722638 -2.49815,3.779887 -7.02396,2.573122 -7.35732,-1.961766 -17.64185,0.08575 -16.42029,3.269072 0.25028,0.652232 -0.62406,3.840982 -1.94298,7.086112 -2.02429,4.980667 -2.37758,7.459335 -2.26684,15.903909 0.2951,22.501235 0.11362,24.172345 -3.00407,27.661645 -2.75613,3.08464 -2.80696,3.33202 -1.54575,7.5227 1.23122,4.09103 1.18092,4.41349 -0.90016,5.77037 -1.21234,0.79046 -4.67925,1.53001 -7.70425,1.64343 -7.76166,0.29102 -16.77533,4.16329 -25.64353,11.01645 -4.19136,3.23899 -8.34872,5.92658 -9.23856,5.97241 -0.88985,0.0458 -2.74291,0.22753 -4.11791,0.40377 -3.81149,0.48854 -9.72509,-2.78662 -18,-9.96903 -4.125,-3.58039 -7.98762,-6.51166 -8.58361,-6.51394 -0.59599,-0.002 -2.89382,1.68337 -5.1063,3.74587 l -4.0227,3.75 -0.62141,9.5 c -0.34177,5.225 -0.82141,10.4 -1.06587,11.5 -0.24445,1.1 -0.77132,4.20434 -1.17082,6.89853 -0.3995,2.6942 -1.44702,5.6192 -2.32782,6.5 -0.88081,0.88081 -1.63172,2.95147 -1.66869,4.60147 -0.037,1.65 -0.43104,4.2685 -0.8757,5.81889 -0.91951,3.20603 -1.5249,3.20559 14.44292,0.0105 4.125,-0.8254 10.875,-1.70934 15,-1.9643 7.98367,-0.49347 21.3282,-3.16502 32,-6.40632 11.71814,-3.55911 25.82161,-12.8212 28.10734,-18.45876 0.66898,-1.65 1.99859,-3.9 2.95467,-5 0.95608,-1.1 1.90035,-2.9 2.09838,-4 0.20942,-1.1633 1.29638,-2.1336 2.59821,-2.31934 4.42156,-0.63086 5.44449,8.17183 1.83832,15.81934 -2.00142,4.24434 -3.78663,7.31874 -5.32876,9.17689 -2.29493,2.76521 0.15627,4.16048 11.23184,6.39338 1.1,0.22176 3.125,0.84122 4.5,1.37658 2.95643,1.15108 11.49382,2.94278 18.5,3.88251 4.07232,0.54621 5.05614,1.06405 5.30257,2.79103 0.23503,1.64712 -0.5588,2.46503 -3.55662,3.66452 -2.12256,0.84928 -4.45131,2.25761 -5.17501,3.12962 -0.72371,0.87201 -1.95803,1.58547 -2.74295,1.58547 -0.78492,0 -3.04885,1.575 -5.03096,3.5 -1.98211,1.925 -4.5473,3.53072 -5.70043,3.56827 -4.53438,0.14765 -18.92445,-0.215 -22.41101,-0.5648 -15.55716,-1.56079 -18.90607,-1.57464 -23.2607,-0.0962 -4.77685,1.62178 -17.11163,4.42927 -22.81362,5.19255 -1.8638,0.24949 -3.80388,0.7102 -4.31129,1.0238 -0.50741,0.31359 -2.35748,0.78945 -4.11127,1.05745 -1.75379,0.268 -10.51281,2.27573 -19.46449,4.46163 l -16.27579,3.97437 -19.42319,-0.53112 -19.4232,-0.53113 -1.80102,2.42933 c -0.99056,1.33613 -2.84286,3.91129 -4.11622,5.72259 -1.27336,1.81129 -5.19687,7.34326 -8.7189,12.29326 -3.52203,4.95 -6.40836,9.675 -6.41406,10.5 -0.006,0.825 3.6298,5.55 8.07888,10.5 10.97239,12.20774 21.58698,25.62729 22.80529,28.83169 0.55154,1.45067 0.90407,6.62438 0.7834,11.49713 -0.20643,8.33557 -0.49578,9.41583 -4.89231,18.26536 -2.88137,5.79977 -6.86572,11.82682 -10.39254,15.72062 l -5.71965,6.3148 0.87591,8.6852 c 0.48175,4.77686 0.88339,13.4102 0.89254,19.1852 0.0166,10.49395 0.0138,10.50605 -4.88957,21 -2.69841,5.775 -5.84841,11.72954 -7,13.2323 -1.15158,1.50277 -4.34379,5.92722 -7.09379,9.83211 -2.75,3.9049 -7.475,10.17817 -10.5,13.94061 -3.025,3.76244 -7.525,9.40007 -10,12.52807 -5.4689,6.91181 -15.61628,17.32636 -23.02211,23.62825 -3.01284,2.56374 -8.22735,7.28874 -11.5878,10.5 C 154.83764,487.87851 146.11699,495 144.83164,495 c -0.52972,0 -1.8355,-0.46688 -2.90173,-1.03751 -3.05554,-1.63528 -4.53815,2.56487 -3.02566,8.57152 0.64429,2.5587 0.89475,5.52392 0.55659,6.58937 -0.42058,1.32513 0.35734,3.04445 2.46216,5.4417 1.69235,1.92748 3.077,4.12879 3.077,4.89179 0,0.76301 1.84203,2.96399 4.0934,4.89108 3.28097,2.80839 5.51379,3.74804 11.25,4.73441 3.93613,0.67683 7.86103,1.82976 8.722,2.56205 1.28129,1.0898 4.8204,1.13497 19.5,0.2489 28.54638,-1.72309 30.14618,-1.80191 45.9346,-2.26332 8.25,-0.24111 20.71847,-0.98671 27.70772,-1.65691 6.98924,-0.67019 19.75804,-1.02911 28.37511,-0.79759 l 15.6674,0.42095 3.06917,3.435 c 2.96459,3.31795 3.28402,3.42394 9.37488,3.11071 5.83397,-0.30002 6.30572,-0.16784 6.30572,1.76679 0,1.87445 -1.52871,2.65688 -4.29051,2.19598 C 319.3937,537.88533 316,540.00348 316,541.0443 c 0,0.60255 6.19055,0.87513 16.23465,0.71482 14.45033,-0.23064 16.26993,-0.0769 16.55567,1.3992 0.49952,2.58045 -3.3872,2.9681 -30.98964,3.0908 -26.35915,0.11717 -34.79906,0.50556 -34.80303,1.60157 -0.001,0.35712 3.48621,0.52588 7.75,0.37502 8.76546,-0.31013 11.97881,0.87579 8.84885,3.26578 -1.48575,1.13449 -1.59548,1.55288 -0.5,1.90641 1.62638,0.52485 31.41887,1.89482 43.88887,2.01817 6.9214,0.0685 8.54204,0.37735 8.79288,1.67589 0.69611,3.60356 -2.50261,4.40804 -17.5269,4.40804 -7.94224,0 -14.8052,-0.225 -15.25102,-0.5 z M 285.5,554 c 0.33992,-0.55 -0.11008,-1 -1,-1 -0.88992,0 -1.33992,0.45 -1,1 0.33992,0.55 0.78992,1 1,1 0.21008,0 0.66008,-0.45 1,-1 z m 11.41667,-0.62423 c 1.21573,-1.09641 -1.29448,-1.43651 -5.57502,-0.75534 -4.5536,0.72462 -4.66317,0.8106 -1.84165,1.44516 2.71833,0.61135 6.34825,0.27373 7.41667,-0.68982 z m -19.7437,-9.41471 c 17.68375,-0.19851 29.90868,-1.01994 29.32139,-1.97018 -0.48149,-0.77908 -45.05327,-0.19833 -47.46633,0.61846 -1.29597,0.43867 -1.29597,0.61013 0,1.43395 0.80958,0.51464 1.99981,0.74285 2.64494,0.50715 0.64514,-0.23571 7.62014,-0.50093 15.5,-0.58938 z M 142.76069,534.75 c -0.22329,-0.6875 -1.73315,-1.925 -3.35524,-2.75 -2.82939,-1.43903 -4.64023,-2.83693 -10.02554,-7.73933 -7.46636,-6.79682 -16.64711,-13.37212 -17.96479,-12.86647 -2.32304,0.89143 1.84666,8.17867 5.84469,10.21459 1.78211,0.90749 5.35009,3.18483 7.92885,5.06075 4.634,3.37098 15.53095,9.29326 17.14467,9.31779 0.45834,0.007 0.65065,-0.54983 0.42736,-1.23733 z m -1.83378,-10.5 c -0.0402,-0.4125 -0.91411,-2.1 -1.94204,-3.75 -4.8774,-7.8291 -7.31525,-14.18529 -7.52915,-19.63072 -0.12166,-3.0969 0.12089,-6.18422 0.53898,-6.8607 1.34922,-2.18309 -0.10479,-4.81428 -3.33992,-6.04395 -1.73513,-0.65951 -4.50478,-1.78229 -6.15478,-2.49506 -1.65,-0.71277 -4.38766,-1.50896 -6.08369,-1.76931 -2.72722,-0.41864 -3.30508,-0.053 -4.99881,3.16319 -1.05332,2.0001 -2.93482,5.17167 -4.18113,7.04793 -2.86831,4.31813 -1.9074,6.03338 5.74993,10.26369 5.43398,3.00203 10.49471,6.87656 20.96332,16.04969 5.19881,4.55547 7.13798,5.67419 6.97729,4.02524 z m 7.22848,-42.85525 c 5.80244,-4.81499 16.43191,-15.0699 21.24901,-20.50023 C 171.54844,458.47753 178.06296,451.55 183.88112,445.5 193.50413,435.49354 199,428.88379 199,427.31691 c 0,-0.32685 2.475,-3.61946 5.5,-7.31691 3.025,-3.69745 5.5,-7.16044 5.5,-7.69554 0,-0.53509 1.8,-3.54248 4,-6.68308 2.2,-3.14061 4,-5.87053 4,-6.06649 0,-0.19597 1.73868,-4.11348 3.86374,-8.7056 6.32711,-13.67244 7.28516,-17.54869 6.92603,-28.0223 l -0.31982,-9.32699 -2.63908,0.309 c -2.0573,0.24088 -3.26646,-0.513 -5.48498,-3.41976 -2.54963,-3.34058 -2.84589,-4.51787 -2.84589,-11.30899 0,-9.89374 0.83444,-14.97271 3.94391,-24.0054 2.75402,-8.00013 3.11088,-11.16971 1.57968,-14.03077 C 221.42498,298.05705 195.73111,278 193.50322,278 c -0.67197,0 -3.18079,-1.55024 -5.57516,-3.44497 -2.39437,-1.89473 -5.46843,-3.72482 -6.83126,-4.06687 -4.19162,-1.05203 -9.65444,-6.11537 -10.98348,-10.18029 -1.05877,-3.2383 -0.99363,-4.40502 0.43549,-7.80015 0.92427,-2.19576 1.79311,-5.01815 1.93074,-6.27198 0.13764,-1.25383 0.98604,-3.09273 1.88535,-4.08645 0.8993,-0.99373 1.6351,-2.11374 1.6351,-2.48893 0,-2.02296 11.49051,-25.46409 14.08487,-28.73374 2.60887,-3.28793 1.97186,-5.95303 -3.11218,-13.02059 -2.13885,-2.97332 -5.14519,-7.54307 -6.68076,-10.15501 -1.53556,-2.61194 -3.4046,-4.74944 -4.15342,-4.75 -0.74881,-5.6e-4 -4.05704,2.36148 -7.3516,5.24898 -6.62496,5.80639 -24.09338,23.44909 -24.62387,24.86952 -0.18533,0.49624 -3.35716,3.93485 -7.04851,7.64137 -6.47822,6.50483 -19.58562,23.66264 -24.66394,32.28552 -0.57717,0.98003 -2.51754,3.50064 -4.31192,5.60135 -2.83968,3.32446 -9.292865,15.56989 -13.096809,24.85224 -2.598089,6.33984 -5.232129,23.34261 -5.561791,35.90147 -0.290884,11.08158 -0.04876,13.6912 1.716483,18.5 1.130326,3.07919 2.810596,6.49853 3.733934,7.59853 0.923338,1.1 2.842033,3.82779 4.263767,6.06175 5.276436,8.29085 27.277626,28.01107 36.669486,32.86778 3.24498,1.67805 12.13626,11.93998 12.13626,14.00715 0,0.68934 -0.86775,2.03865 -1.92834,2.99847 -2.42356,2.19329 -5.0467,1.43596 -9.11395,-2.63129 l -3.07024,-3.07023 -2.85824,2.73836 c -4.75386,4.55449 -12.08282,21.60627 -15.03559,34.98227 -0.60152,2.72485 -1.70784,6.32485 -2.45849,8 -6.65371,14.84831 -9.82787,20.70419 -13.38811,24.69919 -2.280872,2.5594 -4.14704,4.8673 -4.14704,5.12868 0,1.02445 5.80615,2.59615 11.81753,3.19896 3.47465,0.34843 9.6461,1.96633 13.71435,3.59533 4.06824,1.629 9.6918,3.39706 12.4968,3.92902 2.805,0.53196 5.85855,1.40967 6.78566,1.95047 2.45197,1.43027 2.58842,1.38266 7.34105,-2.56116 z M 136.5,409 c 0.33992,-0.55 1.04148,-1 1.55902,-1 0.51754,0 0.94098,0.45 0.94098,1 0,0.55 -0.70156,1 -1.55902,1 -0.85746,0 -1.2809,-0.45 -0.94098,-1 z m 95.77598,-73.46453 c 6.6005,-7.02477 17.02819,-27.68422 16.53877,-32.76678 -0.28667,-2.97704 -0.58243,-3.24132 -3.31475,-2.96191 -3.66681,0.37498 -9.61339,2.14919 -11.08173,3.30634 -0.59495,0.46885 -1.90225,3.44771 -2.90511,6.61967 -1.00285,3.17197 -2.36107,7.11721 -3.01826,8.76721 -2.92521,7.34432 -3.50986,9.39772 -4.49903,15.80121 -0.57784,3.74066 -0.76582,7.262 -0.41774,7.8252 0.65612,1.06163 3.61224,-1.17842 8.69785,-6.59094 z m 5.92237,-40.21399 c 5.3328,-0.55739 8.65963,-2.20215 6.14779,-3.03943 -1.96956,-0.65652 -21.9227,-21.06712 -26.59614,-27.20591 -5.29046,-6.94926 -5.69044,-8.48585 -2.68577,-10.31767 1.13533,-0.69216 5.29783,-5.69597 9.25,-11.11958 3.95218,-5.42362 8.4077,-11.49862 9.90118,-13.5 1.49347,-2.00139 4.4785,-6.11389 6.6334,-9.13889 2.15489,-3.025 5.019,-6.67818 6.36468,-8.11819 1.34568,-1.44 4.53089,-5.265 7.07824,-8.5 2.54736,-3.23499 5.54882,-6.44812 6.66991,-7.14028 1.1211,-0.69216 2.03836,-2.15466 2.03836,-3.25 0,-1.09534 0.3375,-1.99377 0.75,-1.99651 1.02623,-0.007 9.25,-12.3606 9.25,-13.8954 0,-0.67818 1.08137,-2.66554 2.40305,-4.41634 C 277.94365,170.3178 283,156.75837 283,153.31082 c 0,-2.59232 -7.00979,-7.62803 -9.36192,-6.72543 -1.17991,0.45277 -3.31383,-1.01223 -7.24185,-4.97173 C 263.33327,138.52615 260.42764,136 259.93928,136 c -0.48835,0 -1.57256,-1.32395 -2.40935,-2.94212 -1.26695,-2.45001 -1.32631,-3.78744 -0.35488,-7.99587 0.6416,-2.77957 0.85525,-5.36505 0.47478,-5.74551 -0.38047,-0.38047 -2.59483,1.11119 -4.9208,3.31479 -2.32596,2.20361 -7.81852,6.67554 -12.20567,9.93763 -4.38715,3.2621 -12.43824,9.53108 -17.89132,13.93108 -5.45307,4.4 -11.76358,9.4165 -14.02336,11.14777 -2.25977,1.73127 -7.03368,5.83722 -10.60868,9.12433 l -6.5,5.97656 2.29211,4.37567 c 2.97785,5.68474 4.20325,7.71406 7.07022,11.70854 l 2.36234,3.29139 1.56696,-2.31213 C 212.95035,177.77358 233.42607,158 237.73337,158 c 1.9279,0 1.46141,0.92583 -3.23337,6.41723 -13.50864,15.80081 -16.99925,20.21857 -21.91341,27.73393 C 200.01606,211.37562 190,230.01428 190,234.18205 c 0,0.75889 -2.44748,6.10885 -5.43885,11.8888 -2.99137,5.77995 -5.12697,11.01363 -4.7458,11.63039 0.38118,0.61676 3.84117,3.26183 7.68885,5.87793 15.08049,10.25346 24.95321,18.04833 39.49317,31.18128 1.37645,1.24325 3.14042,2.01598 3.91995,1.71718 0.77952,-0.2988 4.05598,-0.81907 7.28103,-1.15615 z M 284.5,219.99912 c 3.85,-0.57704 10.375,-1.90864 14.5,-2.95912 11.92206,-3.03609 13.45313,-3.37853 14.2802,-3.19397 0.4291,0.0957 2.0601,-0.48777 3.62444,-1.29672 1.56434,-0.80895 5.93825,-1.96369 9.7198,-2.5661 3.78156,-0.6024 7.31085,-1.52785 7.84287,-2.05655 1.57703,-1.56719 1.67914,-8.65648 0.13323,-9.2497 -0.74486,-0.28583 -3.32219,-0.072 -5.72741,0.47518 -2.40522,0.54719 -8.64813,0.9981 -13.87313,1.00202 -8.3591,0.006 -25.76091,2.00094 -27.77287,3.18343 -0.39992,0.23505 -3.18482,0.71942 -6.18866,1.07638 -3.37022,0.4005 -7.19939,1.73566 -10,3.48681 -2.49616,1.56079 -6.89609,3.65876 -9.77762,4.66215 -5.7897,2.01606 -11.77017,6.80396 -10.68727,8.55612 0.80523,1.30289 22.55069,0.58506 33.92642,-1.11993 z m 101.9777,-11.91236 c 1.97026,-0.76977 1.97026,-0.77636 0,-1.75379 -1.08774,-0.53962 -3.8902,-1.58232 -6.2277,-2.31711 -7.00335,-2.20149 -5.12741,-3.35968 4,-2.46956 12.6736,1.23594 14.11886,1.26203 16,0.28876 2.00733,-1.03857 2.36884,-3.82543 0.5,-3.8545 -0.6875,-0.0107 -5.75,-0.67143 -11.25,-1.46829 -5.5,-0.79687 -10.32594,-1.46312 -10.72432,-1.48056 -0.39838,-0.0174 -1.37956,-1.29881 -2.18041,-2.84749 -0.80086,-1.54867 -3.3126,-4.10233 -5.58166,-5.67479 l -4.12556,-2.85902 -3.08858,3.08858 -3.08857,3.08858 2.79545,2.59073 c 2.62229,2.43026 2.69318,2.70374 1.14455,4.41496 -1.63971,1.81186 -2.33658,9.02364 -0.9009,9.32326 0.4125,0.0861 1.875,0.28401 3.25,0.43981 1.375,0.15581 5.425,0.70331 9,1.21667 8.29649,1.19136 8.13953,1.18726 10.4777,0.27376 z M 349.8,204.8 c 1.3301,-1.3301 1.67306,-10.8 0.39113,-10.8 -2.96332,0 -5.03816,5.44352 -4.28802,11.25 0.15026,1.16311 2.56232,0.88457 3.89689,-0.45 z m -76.37858,-5.08954 c 3.92962,-4.13287 10.04428,-14.57809 9.0917,-15.53068 -0.50596,-0.50595 -4.42598,3.88679 -4.47985,5.02009 -0.0758,1.59418 -6.40973,10.00069 -8.63239,11.45703 -1.32048,0.86522 -2.40088,1.97137 -2.40088,2.45811 0,2.00205 2.58267,0.63275 6.42142,-3.40455 z m -74.67401,-4.74794 c -0.68607,-0.91426 -3.90604,-5.56022 -7.15547,-10.32435 -5.62667,-8.24951 -5.99578,-8.58267 -7.75,-6.99513 -2.39339,2.16599 -2.32344,2.99519 0.47702,5.65471 1.27544,1.21124 3.81795,4.45225 5.65003,7.20225 1.83208,2.75 4.26453,6.0365 5.40545,7.30333 1.93955,2.15361 2.15715,2.19017 3.34739,0.56241 1.01868,-1.39312 1.02379,-2.07302 0.0256,-3.40322 z m 138.51948,-44.60054 c 1.55981,-0.8066 3.11458,-2.23052 3.45507,-3.16427 0.34048,-0.93374 2.56733,-4.45486 4.94855,-7.8247 4.90054,-6.93513 5.13347,-7.87236 2.32949,-9.37301 -2.51731,-1.34722 -2.69328,-5.71434 -0.25,-6.20425 0.9625,-0.19299 4.675,-0.008 8.25,0.41216 8.78165,1.0309 8.89765,1.03853 13.80103,0.90724 6.39432,-0.1712 7.4853,-3.43006 6.93939,-20.7287 C 376.32188,91.123456 375.49697,88 372.41274,88 c -0.73831,0 -1.83943,-0.928765 -2.44695,-2.063922 -1.74622,-3.26285 0.39911,-5.06127 5.13433,-4.304078 4.49297,0.718456 5.9153,-1.107978 4.05034,-5.201115 -0.99939,-2.193429 -1.69878,-2.433745 -6.88146,-2.364531 -3.17295,0.04237 -7.94212,-0.353777 -10.59815,-0.880336 -2.65603,-0.52656 -5.6711,-0.737207 -6.70015,-0.468106 -1.02904,0.269102 -3.30267,-0.530169 -5.0525,-1.776158 -2.5542,-1.81875 -3.5006,-2.033864 -4.79985,-1.090984 -3.03211,2.200428 -21.6531,10.108681 -23.8874,10.144872 -0.14798,0.0024 0.0202,-1.148205 0.37378,-2.556892 0.5172,-2.060684 0.22776,-2.669793 -1.48095,-3.116632 -2.86924,-0.750323 -2.69996,-3.898481 0.31587,-5.874535 3.92525,-2.57192 2.22968,-4.811172 -3.09085,-4.081914 -5.43591,0.745075 -5.74867,-0.864942 -0.5988,-3.082456 4.07089,-1.752909 12.0076,-1.925613 13.63648,-0.296732 C 330.94392,61.543916 332.48989,62 333.82197,62 c 2.32198,0 2.35551,-0.09289 0.81219,-2.25 -0.88538,-1.2375 -3.52776,-5.092719 -5.87197,-8.567154 -3.5734,-5.296276 -4.42379,-6.049793 -5.26219,-4.662736 -3.06059,5.0635 -12.49834,16.29898 -19.19606,22.852597 -2.70424,2.64606 -3.33783,4.204465 -4.11735,10.127293 -0.50671,3.85 -0.78095,7.45 -0.60942,8 0.17154,0.55 0.55458,3.7 0.85122,7 1.06483,11.84589 6.17442,34.14399 9.58053,41.80917 2.25707,5.07934 8.82799,11.98713 14.24972,14.98025 3.5547,1.96241 8.03803,1.64276 13.00825,-0.92744 z M 359,128 c 0,-0.55 -0.45,-1 -1,-1 -0.55,0 -1,0.45 -1,1 0,0.55 0.45,1 1,1 0.55,0 1,-0.45 1,-1 z M 266.68555,94.825686 C 267.9585,93.629813 269,91.8905 269,90.960545 269,88.237889 265.56694,84.637656 260.6101,82.162089 258.07455,80.895771 256,79.462414 256,78.97685 c 0,-0.924204 6.29029,-2.961664 9.17327,-2.971273 0.92031,-0.0031 3.05781,1.159425 4.75,2.583317 L 273,81.177787 272.89206,76.338894 c -0.0594,-2.661392 -0.62186,-7.685884 -1.25,-11.165539 C 270.3613,58.078371 270.21205,57.943753 258.81711,53.606098 252.67634,51.268522 231.7901,47 226.49292,47 c -1.23642,0 -2.76139,0.618565 -3.38884,1.374588 -0.89175,1.074501 -0.48186,2.079986 1.87756,4.605755 1.6601,1.777142 3.01836,3.842919 3.01836,4.590616 0,0.747697 1.33719,2.882429 2.97154,4.74385 1.72569,1.965444 3.0127,4.600431 3.06971,6.284796 0.054,1.595217 0.13697,5.19413 0.1844,7.997584 l 0.0862,5.09719 10.77693,5.258776 c 5.92731,2.892326 12.26963,6.314024 14.09406,7.603773 4.14257,2.928529 4.65205,2.94678 7.50268,0.268758 z M 292.40006,88.25 c -0.54758,-13.39789 -0.48881,-23.210463 0.15653,-26.133929 1.19299,-5.404406 -1.66287,-3.427964 -4.27587,2.959178 -2.638,6.448261 -2.80287,10.459602 -0.75891,18.464652 C 289.58934,91.637234 289.749,92 291.24528,92 c 0.8721,0 1.25696,-1.2498 1.15478,-3.75 z M 307.5,58.253356 c 6.78809,-8.477383 10.5,-13.771788 10.5,-14.976444 0,-1.549166 0.35158,-1.570576 -4.5,0.274025 -2.2,0.836454 -4.78032,1.780285 -5.73405,2.097404 -2.45894,0.817609 -6.40323,16.351704 -4.15187,16.35163 0.48725,-1.7e-5 2.23592,-1.685993 3.88592,-3.746615 z M 47.25,558.33772 C 45.290395,557.547 45.786712,556 48,556 c 1.111111,0 2,0.66667 2,1.5 0,1.54095 -0.573924,1.71579 -2.75,0.83772 z m 94.7532,-5.04078 C 137.65369,552.87517 131,549.0366 131,546.94911 c 0,-1.54736 1.49161,-1.10472 5.54376,1.64515 3.22707,2.18995 5.03187,2.61854 11.58038,2.75 4.26664,0.0857 7.44665,0.47021 7.06669,0.85455 -1.0075,1.01914 -7.99873,1.6013 -13.18763,1.09813 z M 605,551.6135 c 0,-0.21258 1.35,-0.58464 3,-0.82681 1.65,-0.24217 3,-0.0682 3,0.3865 0,0.45475 -1.35,0.82681 -3,0.82681 -1.65,0 -3,-0.17393 -3,-0.3865 z M 623.5,551 c -0.36722,-0.59417 0.72487,-0.97148 2.69098,-0.92971 2.75722,0.0586 2.97551,0.2136 1.30902,0.92971 -2.71291,1.16578 -3.27951,1.16578 -4,0 z m -259.86811,-5.70144 c -0.22831,-0.22831 -3.27638,-0.50139 -6.7735,-0.60684 C 351.95837,544.54397 350.5,544.15596 350.5,543 c 0,-2.3202 17.83421,-2.19921 18.28383,0.12404 0.20635,1.06622 -0.55317,1.78988 -2.21126,2.10684 -1.38906,0.26553 -2.71237,0.29599 -2.94068,0.0677 z M 83.509673,526.86566 c 0.05822,-1.30111 0.834504,-3.94066 1.725085,-5.86566 0.890581,-1.925 1.94673,-4.4 2.346998,-5.5 0.683047,-1.87712 0.754659,-1.88634 1.165559,-0.15014 0.730804,3.08793 -0.625661,7.98792 -3.049504,11.0158 -2.256252,2.81852 -2.292243,2.82674 -2.188138,0.5 z M 711,231.5 c 0,-0.825 0.45,-1.5 1,-1.5 0.55,0 1,0.675 1,1.5 0,0.825 -0.45,1.5 -1,1.5 -0.55,0 -1,-0.675 -1,-1.5 z M 370.14102,23.41017 c -0.9008,-1.977061 -0.90223,-2.49724 -0.006,-2.198501 C 371.51216,21.670722 373.31435,26 372.12829,26 c -0.44399,0 -1.33826,-1.165424 -1.98727,-2.58983 z" id="path12" style="fill:#000000" inkscape:connector-curvature="0"/>
</svg>
