<?xml version="1.0" encoding="utf-8"?>
<!-- Created with Inkscape (http://www.inkscape.org/) -->
<svg xmlns="http://www.w3.org/2000/svg" xmlns:cc="http://creativecommons.org/ns#" xmlns:dc="http://purl.org/dc/elements/1.1/" xmlns:inkscape="http://www.inkscape.org/namespaces/inkscape" xmlns:rdf="http://www.w3.org/1999/02/22-rdf-syntax-ns#" xmlns:sodipodi="http://sodipodi.sourceforge.net/DTD/sodipodi-0.dtd" xmlns:svg="http://www.w3.org/2000/svg" height="105" id="svg2" version="1.1" viewBox="0 0 76 105" width="76" sodipodi:docname="illustration-nonsense-alphabet-6-24.svg" inkscape:version="0.92.4 (5da689c313, 2019-01-14)">
	<metadata id="metadata8">
		<rdf:RDF>
			<cc:Work rdf:about="">
				<dc:format>image/svg+xml</dc:format>
				<dc:type rdf:resource="http://purl.org/dc/dcmitype/StillImage"/>
				<dc:title/>
			</cc:Work>
		</rdf:RDF>
	</metadata>
	<defs id="defs6"/>
	<sodipodi:namedview bordercolor="#666666" borderopacity="1" gridtolerance="10" guidetolerance="10" id="namedview4" objecttolerance="10" pagecolor="#ffffff" showgrid="false" inkscape:current-layer="svg2" inkscape:cx="38.889831" inkscape:cy="52.5" inkscape:pageopacity="0" inkscape:pageshadow="2" inkscape:window-height="1004" inkscape:window-maximized="1" inkscape:window-width="1920" inkscape:window-x="0" inkscape:window-y="0" inkscape:zoom="6.3572267"/>
	<path d="m 20.853602,97.704896 c -3.330804,-1.516504 -7.795275,-6.84138 -8.76205,-10.450697 -1.923069,-7.179501 2.961745,-17.126595 9.46441,-19.272668 4.927839,-1.626334 5.187793,-0.768955 0.708105,2.33547 C 10.346836,78.575648 14.89507,96 28.968034,96 32.447525,96 33.804545,95.395455 36.6,92.6 c 5.378937,-5.378937 4.081954,-12.740928 -1.976713,-11.220299 -3.247549,0.815083 -4.273869,3.637407 -1.578989,4.342134 2.495344,0.652547 2.198305,3.480563 -0.405595,3.86154 -3.222176,0.471438 -6.404081,-1.660266 -7.011492,-4.69732 C 25.121928,82.359639 24.61074,82 21.525,82 c -5.03366,0 -4.357808,-1.656913 1.783739,-4.372996 4.877954,-2.157263 5.527124,-2.851331 8,-8.553304 C 32.788932,65.66066 34,62.249391 34,61.493103 34,59.273783 32.079661,58.71929 29.706024,60.253228 23.209361,64.451627 15,61.930642 15,55.737205 15,50.853977 17.418533,48 21.556704,48 24.606611,48 25,48.299901 25,50.625 c 0,2.375695 -0.281237,2.568753 -2.961227,2.032755 -1.628674,-0.325735 -3.206893,-0.194747 -3.507154,0.291084 -0.830791,1.344249 1.239244,6.026003 2.955609,6.684634 2.630458,1.009401 6.537158,-0.592888 7.707296,-3.161061 1.471975,-3.230634 3.183057,-3.133889 4.732878,0.267597 1.201754,2.637563 1.300927,2.668217 2.652478,0.819861 1.190428,-1.628007 1.195399,-2.158995 0.03267,-3.490009 -0.754256,-0.863424 -2.081645,-2.973283 -2.949754,-4.688576 -1.386073,-2.738738 -2.193944,-3.177863 -6.63072,-3.604181 C 21.351643,45.231286 18.733259,43.353677 15.89359,37.789838 11.658283,29.491488 14.377675,20.207132 22.424885,15.491152 29.922514,11.097249 38.62533,12.713261 46.5,19.961621 49.878096,23.071041 55.455599,26 57.99865,26 c 2.500882,0 5.093198,-3.233353 4.004555,-4.994814 -0.757239,-1.225238 -0.997709,-1.183084 -1.556399,0.272839 -0.908774,2.368226 -4.096521,2.169467 -4.741155,-0.295616 C 55.102368,18.675453 57.327221,16 59.848922,16 62.45249,16 66,18.884192 66,21.00094 66,22.039083 64.946219,24.113566 63.658264,25.610903 60.186461,29.647115 56.346962,29.161154 44.75,23.217709 44.3375,23.006302 44,23.701089 44,24.761679 c 0,2.43052 -2.767359,4.952753 -5.921672,5.397146 C 35.374329,30.539775 33.935467,33 36.416667,33 37.2875,33 38,33.45 38,34 c 0,0.55 -0.45,1 -1,1 -1.327117,0 -1.289845,4.702832 0.0438,5.527073 0.574093,0.354809 1.707533,0.09426 2.518757,-0.578995 1.187386,-0.985442 1.873134,-0.863754 3.517245,0.624147 1.749255,1.583054 2.17482,1.638727 2.96593,0.388012 C 47.446743,38.745298 47.179744,36.006205 45.5,35.361626 41.898075,33.979438 44.593822,33 52,33 c 6.444444,0 8,0.291667 8,1.5 0,0.825 -0.831146,1.5 -1.84699,1.5 -2.562412,0 -5.320001,2.689262 -8.306197,8.100388 -2.273857,4.120335 -2.386352,4.798612 -1.078044,6.5 0.871425,1.133245 1.630706,1.452531 1.882046,0.791422 0.231722,-0.609504 1.043291,-1.958797 1.803487,-2.998428 2.208197,-3.019888 3.06793,-0.711726 1.196586,3.212524 -1.695774,3.556075 -1.686657,3.614764 1.320776,8.502466 3.238072,5.262537 3.571185,6.438095 2.084672,7.356811 C 56.53732,67.785952 54.919561,66.012509 53.461314,63.5242 52.003067,61.03589 50.477716,59 50.071645,59 c -1.952414,0 -1.698384,1.644841 1.034027,6.695321 4.782505,8.839788 6.114541,10.498743 9.598732,11.954531 C 66.738432,80.17103 64.579261,81.25 53.5,81.25 c -0.825,0 -3.360686,-0.05625 -5.634859,-0.125 L 43.730283,81 46.365141,78.92742 c 3.168841,-2.49261 3.172032,-2.534002 0.529589,-6.868546 L 44.796936,68.617748 42.936173,71.058874 41.075411,73.5 39.481001,71.25 c -2.050025,-2.892956 -2.893442,-2.834967 -4.320486,0.297053 -1.532536,3.36355 -1.606394,3.171014 1.914969,4.991981 3.087499,1.596608 6.110471,6.812799 5.249119,9.057447 -0.794762,2.071118 1.323851,2.448351 5.037044,0.89688 4.549441,-1.900878 7.967901,-1.891425 11.688013,0.03232 C 61.301511,87.690158 62,88.747197 62,90.990496 c 0,3.208088 -2.741204,5.42978 -5.427558,4.398929 -2.1891,-0.840037 -1.963668,-2.474356 0.427558,-3.099676 2.67415,-0.699306 2.5204,-1.902664 -0.495587,-3.878815 -3.688222,-2.416615 -8.304351,-1.110532 -14.367936,4.06525 -7.200452,6.146195 -15.038403,8.071796 -21.282875,5.228712 z M 43,66.063428 c 0,-1.000196 -0.638675,-2.348592 -1.419278,-2.996435 -2.253645,-1.870359 -3.943392,1.87478 -1.876383,4.158799 C 41.508162,69.218994 43,68.692829 43,66.063428 Z M 48.057457,54.107359 C 47.437153,52.948312 46.495465,52 45.964816,52 c -1.36459,0 -1.199711,3.365105 0.235184,4.8 1.804564,1.804564 3.189682,-0.203355 1.857457,-2.692641 z M 42.64615,44.217578 c -2.071977,-2.071976 -3.961129,-0.674639 -2.579116,1.907677 0.874533,1.63408 1.345648,1.777139 2.552893,0.775214 1.295245,-1.074957 1.298525,-1.410588 0.02622,-2.682891 z M 29.996262,43.25 c -0.01225,-2.458204 -4.278929,-7.188184 -7.418868,-8.224458 -5.234804,-1.727641 -4.381824,-2.673473 2.359035,-2.61583 6.482436,0.05543 7.64044,-0.464031 6.670292,-2.992197 -0.516461,-1.345876 -1.604494,-1.5761 -5.623539,-1.189921 C 23.242432,28.490946 21,28.347988 21,27.909911 21,26.435386 25.422451,24 28.100062,24 29.560339,24 31.315311,23.325 32,22.5 c 1.270935,-1.531383 4.161446,-2.00522 5.29815,-0.868517 0.347315,0.347316 0.196098,1.445006 -0.336038,2.439312 -1.270498,2.373946 0.340766,3.372661 3.077906,1.907788 2.976448,-1.592947 2.125568,-4.96239 -1.944055,-7.698368 C 34.162279,15.635628 30.078245,15.573599 25,18.081308 c -9.208885,4.547479 -9.893116,19.64613 -1.106731,24.421783 2.837371,1.542193 6.108952,1.942583 6.102993,0.746909 z" id="path12" style="fill:#000000" inkscape:connector-curvature="0"/>
</svg>
