<?xml version="1.0" encoding="UTF-8" standalone="no"?>
<!-- Created with Inkscape (http://www.inkscape.org/) -->

<svg
   xmlns:dc="http://purl.org/dc/elements/1.1/"
   xmlns:cc="http://creativecommons.org/ns#"
   xmlns:rdf="http://www.w3.org/1999/02/22-rdf-syntax-ns#"
   xmlns:svg="http://www.w3.org/2000/svg"
   xmlns="http://www.w3.org/2000/svg"
   xmlns:sodipodi="http://sodipodi.sourceforge.net/DTD/sodipodi-0.dtd"
   xmlns:inkscape="http://www.inkscape.org/namespaces/inkscape"
   version="1.1"
   id="svg2"
   width="1189"
   height="697"
   viewBox="0 0 1189 697"
   sodipodi:docname="illustration-limerick-62.svg"
   inkscape:version="0.92.4 (5da689c313, 2019-01-14)">
  <metadata
     id="metadata8">
    <rdf:RDF>
      <cc:Work
         rdf:about="">
        <dc:format>image/svg+xml</dc:format>
        <dc:type
           rdf:resource="http://purl.org/dc/dcmitype/StillImage" />
        <dc:title></dc:title>
      </cc:Work>
    </rdf:RDF>
  </metadata>
  <defs
     id="defs6" />
  <sodipodi:namedview
     pagecolor="#ffffff"
     bordercolor="#666666"
     borderopacity="1"
     objecttolerance="10"
     gridtolerance="10"
     guidetolerance="10"
     inkscape:pageopacity="0"
     inkscape:pageshadow="2"
     inkscape:window-width="1920"
     inkscape:window-height="1010"
     id="namedview4"
     showgrid="false"
     inkscape:zoom="0.95768838"
     inkscape:cx="600.40678"
     inkscape:cy="348.5"
     inkscape:window-x="0"
     inkscape:window-y="0"
     inkscape:window-maximized="1"
     inkscape:current-layer="svg2" />
  <path
     style="fill:#000000"
     d="m 1140.5,676.85699 c -6.9517,-2.38373 -9.8215,-3.01062 -15.3164,-3.34579 -3.1907,-0.19462 -8.4748,-0.79976 -11.7424,-1.34475 -6.5776,-1.09703 -13.3289,-1.52277 -21.0198,-1.32551 -5.5395,0.14209 -9.0988,-1.63316 -8.1632,-4.07144 0.4873,-1.26974 4.5028,-1.64686 24.4125,-2.29272 25.173,-0.81659 26.7307,-0.89541 37.8987,-1.91756 9.8586,-0.90231 12.0018,0.0958 12.8875,6.00181 1.0126,6.75248 -0.2944,7.76509 -11.4569,8.87657 -2.475,0.24645 -5.85,-0.0148 -7.5,-0.58061 z M 1153,670 c 0,-0.55 -0.1984,-1 -0.441,-1 -0.2425,0 -0.7191,0.45 -1.059,1 -0.3399,0.55 -0.1415,1 0.441,1 0.5824,0 1.059,-0.45 1.059,-1 z M 54.690548,675.18688 c -3.675439,-2.49201 -8.59715,-8.28516 -8.65451,-10.18688 -0.02488,-0.825 -1.351463,-4.875 -2.947953,-9 -2.734798,-7.06615 -2.885439,-8.22308 -2.604151,-20 0.558722,-23.39248 2.006007,-26.67323 20.072046,-45.5 12.018598,-12.52468 25.711864,-29.33174 30.145127,-37 3.43528,-5.94204 11.092903,-21.37881 18.354343,-37 9.31022,-20.02858 14.59706,-29.18775 21.29302,-36.88896 2.00857,-2.31011 5.11435,-6.50497 6.90174,-9.3219 6.28006,-9.89744 9.05321,-13.79646 10.36353,-14.57105 1.70015,-1.00503 4.30602,-6.49605 4.87724,-10.27718 0.24436,-1.6175 0.9042,-5.95847 1.46631,-9.64661 0.56212,-3.68813 1.73407,-8.63813 2.60434,-11 0.87027,-2.36186 2.03833,-6.0943 2.5957,-8.2943 0.55736,-2.2 1.40376,-4.9 1.88089,-6 1.11901,-2.57982 4.59525,-14.97401 5.46923,-19.5 1.13582,-5.88197 4.66496,-17.211 7.08691,-22.75 1.26257,-2.8875 2.20785,-5.28754 2.10061,-5.33342 -0.10723,-0.0459 -6.49497,-0.26552 -14.19497,-0.4881 -7.7,-0.22258 -16.475,-0.81769 -19.5,-1.32246 -4.63335,-0.77316 -5.97272,-0.6308 -8.5,0.90348 -1.65,1.00168 -5.12161,2.0507 -7.7147,2.33115 -4.87641,0.52738 -16.29566,2.89198 -23.2853,4.82171 -6.309198,1.74187 -18.639512,2.22994 -19.53968,0.77344 -0.498581,-0.80672 -4.00573,-1.30824 -10.160788,-1.45299 -11.9848,-0.28184 -13.800637,-0.84785 -13.795679,-4.3002 0.0045,-3.13995 6.984026,-9.36345 12.567443,-11.20614 C 73.457083,352.3541 75,351.20479 75,350.42245 c 0,-1.47483 -0.262175,-1.55427 -5.887885,-1.78406 -7.496429,-0.30621 -6.062434,-6.07606 2.152337,-8.66019 2.329551,-0.73281 4.685548,-1.57754 5.235548,-1.87717 0.55,-0.29963 1.546269,-0.62774 2.213931,-0.72913 0.667662,-0.10139 2.55043,-1.13602 4.183929,-2.29917 1.6335,-1.16315 4.87338,-2.78638 7.199735,-3.60716 2.326355,-0.82079 4.718587,-1.88793 5.316071,-2.37143 0.597484,-0.4835 3.911042,-1.6652 7.363464,-2.62601 3.45242,-0.9608 6.48765,-2.08753 6.74495,-2.50386 0.2573,-0.41632 -1.66597,-1.8161 -4.27393,-3.11061 -5.688254,-2.82347 -8.675841,-7.27435 -6.148589,-9.16012 1.874639,-1.39879 30.149379,-1.56229 41.640769,-0.24078 6.84551,0.78724 7.44535,0.69097 11,-1.76544 6.41295,-4.43161 15.42191,-6.62957 31.25967,-7.62658 7.975,-0.50205 15.175,-1.17914 16,-1.50467 1.65694,-0.65379 4,-5.06631 4,-7.53293 0,-0.86797 0.61097,-2.46576 1.35771,-3.55063 0.74674,-1.08488 1.93264,-3.77251 2.63533,-5.97251 0.70268,-2.2 2.10339,-5.64346 3.11268,-7.65213 2.03363,-4.0473 1.40659,-5.29575 -3.13678,-6.24541 -2.79482,-0.58418 -10.11712,-3.15913 -12.73163,-4.4772 -18.77979,-9.46756 -17.916,-9.15796 -21.43025,-7.68111 -1.81888,0.76437 -5.55706,3.49327 -8.30706,6.06421 C 155.4948,271.9272 132.2415,290 130.41463,290 c -0.33324,0 -1.92883,0.94202 -3.54575,2.09337 -3.06554,2.18285 -6.45996,1.88935 -5.55078,-0.47994 0.99522,-2.5935 -1.39388,-3.6256 -4.57937,-1.97832 -1.63007,0.84294 -5.37848,1.78184 -8.3298,2.08644 -6.53907,0.6749 -7.78126,-0.98555 -4.34622,-5.80961 l 2.24944,-3.15906 -4.66754,0.57163 c -2.567153,0.3144 -5.132099,0.85874 -5.699884,1.20965 C 94.526179,285.41087 92,283.1426 92,280.99216 c 0,-1.03747 3.189203,-4.12998 7.75,-7.51502 4.29292,-3.18621 6.63481,-5.43055 5.25,-5.03129 -1.375,0.39644 -4.8625,0.96402 -7.75,1.2613 -5.064164,0.52138 -5.25,0.45294 -5.25,-1.93328 0,-4.20536 5.418046,-10.26851 14.41861,-16.13538 4.71229,-3.07162 10.48335,-7.33298 12.82459,-9.46968 2.34124,-2.1367 5.2693,-4.41462 6.5068,-5.06205 2.7678,-1.44802 2.92732,-3.10676 0.29879,-3.10676 -3.49516,0 -13.44373,-2.96637 -14.92865,-4.45129 -1.24985,-1.24985 -1.25454,-1.68305 -0.0342,-3.16104 1.81394,-2.19698 8.6579,-5.22809 16.9141,-7.49106 3.575,-0.97989 10.5481,-3.15784 15.49578,-4.83991 4.94767,-1.68206 10.57267,-3.33632 12.5,-3.67613 1.92732,-0.33981 5.97922,-1.28147 9.00422,-2.09258 6.09714,-1.63487 16.37444,-3.97308 21.19919,-4.82308 1.72287,-0.30353 3.48517,-0.76983 3.91621,-1.03623 0.43105,-0.2664 6.31892,-1.59254 13.08416,-2.94698 6.76524,-1.35445 14.10044,-2.91036 16.30044,-3.4576 2.2,-0.54723 7.92851,-1.4549 12.73002,-2.01704 4.8015,-0.56214 11.1015,-1.63913 14,-2.39333 2.89849,-0.75419 11.34498,-2.39006 18.76998,-3.63527 8.80801,-1.47715 15.15224,-3.12042 18.25391,-4.72809 4.20818,-2.1812 6.15968,-2.48648 17,-2.65937 l 12.24609,-0.19532 -0.21968,-3.44784 c -0.12082,-1.89631 0.92076,-6.66961 2.31462,-10.60732 1.39387,-3.93772 2.414,-7.76272 2.26697,-8.5 -0.36289,-1.81963 1.92396,-8.58243 4.31569,-12.76258 1.07689,-1.88213 2.16114,-5.00884 2.40945,-6.94824 0.71151,-5.55736 2.61357,-11.32737 4.98743,-15.1297 1.70974,-2.73856 17.21358,-19.73713 21.14534,-23.183953 0.4291,-0.376174 4.87613,-4.538674 9.88229,-9.25 C 364.60827,85.854721 369.06579,82 369.50772,82 c 0.44192,0 2.22457,-1.083903 3.96143,-2.408673 1.73686,-1.32477 4.70434,-3.125174 6.59439,-4.000897 1.89005,-0.875724 5.46146,-2.840405 7.93646,-4.365958 4.74094,-2.922244 22.39003,-10.152076 26.23886,-10.748574 1.24363,-0.192739 5.18614,-1.067915 8.76114,-1.944837 12.43556,-3.050351 14.53776,-3.352684 20.94553,-3.012337 3.54504,0.188294 7.21739,-0.07073 8.16076,-0.575611 0.94338,-0.50488 3.89289,-1.126021 6.55447,-1.380314 2.66158,-0.254293 6.24527,-0.752739 7.96376,-1.107657 3.65784,-0.755456 17.16374,2.655886 22.18264,5.60293 C 490.6261,59.126133 492.9058,60 493.87316,60 c 0.96736,0 3.188,1.4625 4.93475,3.25 1.74674,1.7875 4.30717,4.336652 5.68982,5.664783 1.38266,1.328131 2.95759,4.062441 3.49985,6.076244 0.73593,2.733032 2.19247,4.466697 5.74418,6.837088 2.61703,1.746596 6.86514,5.537286 9.44024,8.423757 2.5751,2.88647 6.30963,7.048128 8.29896,9.248128 1.98933,2.2 5.05743,6.23969 6.818,8.97709 2.94704,4.58216 3.20812,5.66767 3.29026,13.68014 0.0996,9.71125 1.57394,13.24419 6.21308,14.88784 1.48373,0.52568 3.47909,1.4056 4.43413,1.95536 0.95504,0.54976 2.60978,0.99957 3.6772,0.99957 1.80503,0 8.08637,6.43274 8.08637,8.28127 0,0.45407 1.2375,2.37653 2.75,4.27213 2.26627,2.84029 3.41762,3.44655 6.54545,3.44657 8.13331,6e-5 11.42938,9.45689 6.70455,19.23617 -1.1,2.27673 -2,4.54652 -2,5.04396 0,0.49744 -0.92697,2.0829 -2.05994,3.52323 l -2.05994,2.61879 3.97108,3.66676 c 4.99539,4.61258 6.56672,7.72111 8.10209,16.02818 1.13569,6.14467 1.06973,6.9175 -0.92406,10.82564 -1.38891,2.7225 -3.27386,4.67946 -5.33814,5.5421 -1.7551,0.73344 -4.37563,2.2654 -5.8234,3.40436 -1.44777,1.13897 -3.75663,2.49832 -5.13081,3.02078 -2.09391,0.7961 -2.67551,1.95485 -3.59163,7.15575 -0.60123,3.41321 -1.73902,7.19157 -2.52842,8.39635 -0.97828,1.49304 -1.20769,3.28067 -0.7205,5.61424 1.12773,5.40159 -0.27732,10.38262 -4.23196,15.00273 -2.13149,2.49017 -3.86036,5.73009 -4.18019,7.83371 -1.12904,7.42622 -2.86178,14.67618 -4.11515,17.21816 -3.05694,6.19987 -15.37626,13.0164 -25.8923,14.32674 -3.2872,0.4096 -6.73692,1.15041 -7.66604,1.64626 -1.02166,0.54522 -1.91921,0.52955 -2.27099,-0.0396 -0.31993,-0.51765 -1.76537,-0.8502 -3.2121,-0.739 l -2.63042,0.20219 -0.16291,15.98629 c -0.15372,15.08519 -0.34967,16.57814 -3.47624,26.48629 -1.82233,5.775 -3.64109,10.95 -4.04169,11.5 -0.40059,0.55 -3.00628,5.31443 -5.79042,10.58763 C 488.95833,380.06452 479.1392,394.25535 472.14465,402 458.37504,417.24626 453.50721,422.38516 445,430.65622 c -11.58177,11.26026 -16.91527,15.26446 -44,33.03355 -7.975,5.23205 -15.625,10.27763 -17,11.2124 -1.375,0.93478 -4.975,2.96154 -8,4.50391 -3.025,1.54238 -5.84845,3.12793 -6.27433,3.52345 -0.42588,0.39552 0.82378,2.81212 2.77703,5.37021 3.43304,4.49612 15.39055,33.07995 17.00955,40.66049 0.40645,1.90313 1.59683,5.106 2.64528,7.11749 1.04845,2.01149 2.08739,4.59775 2.30876,5.74724 0.64661,3.35758 4.15746,10.76295 7.29713,15.3917 1.59795,2.35584 5.96749,10.35834 9.71007,17.78334 3.74259,7.425 7.64211,14.69447 8.66561,16.15437 1.02349,1.4599 1.8609,2.90242 1.8609,3.20559 0,0.30317 1.10308,2.1767 2.45128,4.16339 2.55012,3.75781 5.86573,6.70563 8.70442,7.73886 2.14993,0.78254 3.40345,6.35913 1.85013,8.23076 -1.69342,2.04045 -0.57273,4.45471 4.24443,9.14366 5.19902,5.06065 19.46818,15.36337 21.27811,15.36337 0.725,0 2.59722,1.07624 4.16049,2.39165 1.56327,1.3154 5.16244,3.08065 7.99815,3.92276 2.83572,0.84212 6.02901,1.99843 7.09621,2.56957 1.0672,0.57115 3.46884,1.20689 5.33698,1.41276 6.5861,0.72578 9.9454,3.88918 9.24226,8.70326 l -0.36515,2.5 22.75134,-0.28812 c 17.86056,-0.22618 23.46007,-0.61724 26.04822,-1.81916 1.81328,-0.84207 4.51328,-1.28959 6,-0.99448 5.30479,1.05299 48.22227,2.23492 63.20313,1.74058 4.10351,-0.1354 23.30325,0.2659 68,1.42131 16.01101,0.41388 19.72309,0.44999 34.5,0.33559 3.85,-0.0298 12.4,0.17445 19,0.45391 13.43105,0.56869 46.77627,1.25612 105.5,2.17493 21.725,0.33992 43.55,0.69845 48.5,0.79674 9.54026,0.18943 17,2.66151 17,5.63362 0,1.96791 -4.18005,2.85739 -8.7374,1.85923 -2.05557,-0.45021 -12.80059,-1.05156 -23.87782,-1.33634 -11.07724,-0.28477 -20.50181,-0.74112 -20.9435,-1.0141 -0.4417,-0.27299 -1.08649,-0.0378 -1.43287,0.52268 -0.40213,0.65067 -1.25815,0.68273 -2.36811,0.0887 -0.95608,-0.51168 -7.11627,-0.93333 -13.68931,-0.937 -59.77217,-0.0334 -135.17209,-0.80724 -136.09686,-1.39684 -0.63022,-0.40181 -8.50522,-0.96506 -17.5,-1.25166 C 670.85936,666.203 658.325,665.71449 652,665.40403 c -13.41165,-0.65832 -38.38342,-1.66163 -42,-1.68747 -1.375,-0.01 -8.125,0.53457 -15,1.20977 -7.56822,0.74328 -16.83996,0.95872 -23.5,0.54604 -11.57405,-0.71717 -53.76994,-0.82743 -64,-0.16723 -3.3,0.21296 -8.45725,0.0146 -11.46057,-0.44081 -3.51798,-0.53345 -6.89758,-0.42856 -9.5,0.29486 -7.13502,1.98339 -55.04884,0.92495 -66.13775,-1.46102 -5.40519,-1.16301 -11.48757,-1.4291 -25.5,-1.11555 -10.12092,0.22647 -49.45168,0.60734 -87.40168,0.84638 -37.95,0.23903 -76.64613,0.65524 -85.99141,0.9249 -11.05685,0.31905 -17.43099,0.12547 -18.25,-0.55425 -3.20827,-2.66263 0.0223,-7.39702 5.96153,-8.73653 1.85149,-0.41758 8.29689,-0.40575 14.32311,0.0263 22.47334,1.61114 62.23065,2.76696 119.95677,3.48738 51.45561,0.64216 60.62997,0.85236 83.75,1.91889 11.99272,0.55322 17.75,0.48619 17.75,-0.20665 0,-1.45216 -11.29321,-4.45327 -19,-5.04915 -3.575,-0.27642 -7.28567,-0.90832 -8.24594,-1.40423 -2.01569,-1.04096 -6.50112,-10.32445 -9.69936,-20.07477 -1.21579,-3.70652 -2.64526,-7.00781 -3.17659,-7.33619 -0.53133,-0.32839 -2.18377,0.22168 -3.67209,1.22237 C 397.66015,630.03115 391.13555,633 389.44188,633 c -0.73684,0 -2.76963,-3.0375 -4.51731,-6.75 -1.74768,-3.7125 -4.47067,-7.79512 -6.05109,-9.07248 C 377.29307,615.90016 376,614.1922 376,613.38207 c 0,-0.81014 -1.15181,-2.62479 -2.55958,-4.03256 -1.40777,-1.40777 -3.54527,-4.44468 -4.75,-6.74869 -4.24381,-8.11614 -9.93578,-19.13477 -11.41678,-22.10082 -2.07216,-4.14997 -6.37225,-10.46998 -8.80347,-12.93879 -1.11641,-1.13366 -2.69141,-2.96121 -3.5,-4.06121 -2.27982,-3.10143 -11.09478,-9.50332 -13.9262,-10.11394 -1.39918,-0.30175 -3.66897,-0.93553 -5.04397,-1.40842 -1.375,-0.47288 -5.2,-1.37452 -8.5,-2.00365 -3.3,-0.62912 -8.925,-1.79289 -12.5,-2.58617 -6.84864,-1.51968 -23.58978,-1.34854 -41.5,0.42424 -4.95,0.48995 -17.325,0.7883 -27.5,0.66298 -10.175,-0.12531 -23.225,-0.2716 -29,-0.32508 -5.775,-0.0535 -12.40194,-0.12929 -14.72654,-0.16847 -11.68476,-0.19689 -24.46538,7.21229 -41.27346,23.92706 -6.875,6.83683 -14.43953,13.92362 -16.81007,15.74841 -10.31396,7.93948 -33.0086,32.90722 -41.283023,45.41793 -2.526202,3.81954 -4.890476,7.24201 -5.253943,7.60548 -0.793714,0.79371 -5.645661,-3.57429 -5.670241,-5.10468 -0.0095,-0.59163 -1.15957,-2.15955 -2.555708,-3.48427 -3.177719,-3.01516 -4.247716,-2.09472 -7.449858,6.40858 -2.896498,7.69166 -3.833025,12.60926 -4.811342,25.26384 -0.436419,5.64511 -1.253601,10.72395 -1.815959,11.2863 -2.050805,2.05081 -7.728844,2.12365 -10.659308,0.13674 z m 5.478677,-18.20963 c 0.909148,-4.26108 0.263352,-6.63247 -2.806058,-10.30398 C 56.063425,645.11858 55,642.54634 55,640.9572 c 0,-1.58914 -0.734947,-4.59211 -1.633216,-6.67327 -0.898269,-2.08116 -2.360769,-5.46627 -3.25,-7.52246 -0.889231,-2.05619 -1.904203,-3.74369 -2.255493,-3.75 -0.792811,-0.0142 -2.120239,6.7506 -1.521829,7.75554 0.240059,0.40314 0.726675,4.05271 1.08137,8.11014 0.354695,4.05744 1.016727,8.10744 1.471182,9 0.454456,0.89257 1.081923,2.97285 1.394372,4.62285 1.312227,6.92968 2.438078,8.49807 5.898785,8.21742 2.815877,-0.22835 3.339689,-0.7201 3.984054,-3.74017 z m 425.999195,1.25433 c 1.73601,-1.73601 0.16568,-2.91394 -4.79023,-3.59322 -2.57203,-0.35254 -5.17181,-1.04809 -5.7773,-1.54567 -0.60549,-0.49757 -2.48634,-1.12059 -4.17967,-1.38447 -3.31136,-0.51602 -8.95078,-3.13801 -9.83844,-4.57428 -0.29923,-0.48416 -2.91526,-2.06035 -5.81341,-3.50263 -8.26655,-4.11392 -19.41636,-12.93607 -24.30369,-19.22998 C 429.00955,621.23833 427,618.32722 427,617.9322 c 0,-1.5207 -3.20522,-1.84705 -5.3024,-0.53989 -1.20868,0.75337 -3.3782,1.64258 -4.82115,1.97604 -1.44295,0.33345 -3.60415,1.40032 -4.80266,2.37081 -2.08162,1.6856 -2.11033,1.92915 -0.6416,5.44431 0.84563,2.02387 1.93588,3.92598 2.42279,4.2269 0.4869,0.30092 1.89503,3.2472 3.12918,6.54728 2.08406,5.57271 2.62038,6.1725 7.52856,8.41954 2.90655,1.33067 6.73333,2.73758 8.50395,3.12647 1.77061,0.38889 6.38305,2.01171 10.24986,3.60625 7.15803,2.95173 14.34701,4.45094 26.46399,5.51887 3.72321,0.32815 6.97062,0.78455 7.21645,1.01423 0.83016,0.7756 8.15566,-0.34564 9.22145,-1.41143 z M 66.755219,635.44396 c 1.330451,-3.26918 3.05434,-7.42076 3.830866,-9.22574 1.27959,-2.97431 1.248007,-3.3382 -0.33711,-3.88402 C 69.287039,622.00297 66.475,619.6113 64,617.01939 c -2.475,-2.59191 -5.673986,-5.46674 -7.108857,-6.38851 -2.3461,-1.50714 -2.73796,-1.52038 -3.890681,-0.13144 -1.061196,1.27867 -0.840993,2.61647 1.279357,7.77253 2.311066,5.61983 5.062134,13.4402 5.181058,14.72803 0.234934,2.5441 3.095961,8.98105 3.876206,8.72097 0.549524,-0.18317 2.087686,-3.00783 3.418136,-6.27701 z m 29.971346,-17.49663 c 3.291135,-4.15397 7.276795,-9.55397 8.857025,-12 7.42744,-11.49696 10.27726,-14.64455 15.63044,-17.26362 3.70459,-1.81249 7.93392,-5.37544 13.5435,-11.4096 13.8548,-14.90345 17.4333,-18.13832 26.92464,-24.33916 15.09841,-9.86402 16.25995,-10.08282 50.29834,-9.47459 15.92394,0.28454 29.30516,0.60155 29.73605,0.70446 0.43089,0.10291 4.15844,-0.10883 8.28344,-0.47054 33.33854,-2.92335 62.19527,-2.65407 74.67845,0.69686 12.65151,3.39612 17.67339,5.96056 23.92396,12.21685 5.18784,5.19257 7.32326,8.57818 14.24837,22.5901 5.32172,10.76768 10.57346,19.6882 15.14759,25.72943 3.8509,5.08603 7.00163,9.74907 7.00163,10.3623 0,1.52945 6.10453,7.71018 7.61513,7.71018 0.67253,0 2.49676,-0.65329 4.05383,-1.45175 C 405.12081,617.21416 414.71798,613 416.13641,613 c 0.89029,0 2.20755,-0.70951 2.92724,-1.5767 1.0856,-1.30806 1.03779,-2.11737 -0.28057,-4.75 -5.36319,-10.7097 -22.913,-46.99513 -24.75047,-51.1733 -1.2094,-2.75 -4.17038,-9.05 -6.57996,-14 -2.40957,-4.95 -5.57628,-12.6 -7.03712,-17 -4.24561,-12.78765 -7.41429,-19.71119 -9.92508,-21.68617 -1.28597,-1.01155 -3.0621,-4.01884 -3.94695,-6.68287 -0.88485,-2.66403 -2.71441,-5.88234 -4.06568,-7.1518 -2.17032,-2.03891 -2.66219,-2.14213 -4.21734,-0.88502 -3.16456,2.55808 -9.0662,5.14396 -10.17535,4.45847 -2.60632,-1.61079 -0.61929,-3.81207 6.66487,-7.38352 4.2625,-2.08992 9.775,-5.0944 12.25,-6.67662 2.475,-1.58221 6.525,-3.95438 9,-5.27147 2.475,-1.3171 5.4,-3.21655 6.5,-4.221 1.1,-1.00445 4.025,-2.90029 6.5,-4.21297 2.475,-1.31268 5.625,-3.08071 7,-3.92896 1.375,-0.84825 6.775,-4.09307 12,-7.21071 10.29005,-6.13984 31.39409,-22.66735 33.89278,-26.54295 1.5425,-2.39248 1.54,-2.39473 -1.92414,-1.7333 -1.90775,0.36426 -4.14364,0.70135 -4.96864,0.74909 -0.825,0.0477 -4.65,0.54687 -8.5,1.10918 -3.85,0.5623 -10.825,1.36407 -15.5,1.7817 -13.57892,1.21303 -15.98515,1.85613 -21,5.61249 -4.62535,3.46462 -14.4643,4.99652 -29,4.51523 -1.925,-0.0637 -5.49206,-0.14396 -7.92679,-0.17828 -4.72045,-0.0665 -13.78455,-1.79592 -23.57321,-4.49765 -3.3,-0.91081 -7.7237,-2.00876 -9.83043,-2.43988 -2.10674,-0.43112 -4.33424,-1.28766 -4.95,-1.90342 -0.61577,-0.61577 -1.81707,-1.12714 -2.66957,-1.13639 -0.8525,-0.009 -4.7,-1.58382 -8.55,-3.49903 -3.85,-1.91522 -7.30743,-3.48265 -7.68318,-3.48318 -0.88854,-10e-4 -21.23334,-13.43612 -25.96072,-17.14339 -2.00415,-1.57167 -4.70415,-2.87255 -6,-2.89085 -3.2791,-0.0463 -4.52623,-1.26469 -20.94954,-20.46673 -7.99695,-9.35 -15.18491,-17.68611 -15.97324,-18.52469 -8.0201,-8.53137 -18.01812,-26.49499 -18.54268,-33.31594 C 207.7975,321.94657 204,314.93077 204,321.54775 c 0,1.46081 -1.11194,3.57826 -2.60634,4.96323 C 197.67469,329.9576 182,370.53829 182,376.71981 c 0,1.16291 -0.9,4.21399 -2,6.78019 -1.1,2.5662 -2.01068,5.416 -2.02374,6.33291 -0.013,0.9169 -1.17444,4.36709 -2.58085,7.66709 -2.25243,5.28506 -3.83827,10.26192 -7.48809,23.5 -0.53074,1.925 -1.21688,4.4 -1.52477,5.5 -0.30789,1.1 -0.79962,3.125 -1.09275,4.5 -2.16614,10.16101 -5.6718,19.81143 -8.17018,22.491 -1.54304,1.65495 -3.76927,4.6259 -4.94718,6.60212 -1.1779,1.97622 -3.51905,5.32636 -5.20255,7.44476 -1.68349,2.11841 -3.7667,5.33901 -4.62934,7.15688 C 141.47791,476.51264 140.37339,478 139.88606,478 139.39873,478 139,478.59487 139,479.32194 c 0,0.72706 -2.1375,4.48279 -4.75,8.34606 -6.60115,9.76154 -6.76094,10.02518 -10.59462,17.47986 -1.88031,3.65633 -4.82199,8.6874 -6.53707,11.18018 C 115.40324,518.82081 114,521.1468 114,521.4969 c 0,0.3501 -1.06423,2.06902 -2.36496,3.81982 -1.30073,1.7508 -4.08492,6.55828 -6.1871,10.68328 -9.32735,18.30264 -21.893996,40.32202 -25.508242,44.69576 C 77.772864,583.31793 76,585.94552 76,586.53486 c 0,0.58933 -3.825,3.92247 -8.5,7.40696 C 60.116872,599.44481 57.095204,603 59.801165,603 c 2.184291,0 13.639553,8.60586 16.003513,12.02277 1.482427,2.14273 4.069071,4.56817 5.748097,5.38988 1.679026,0.8217 3.901348,2.43167 4.938493,3.5777 1.037145,1.14603 2.417999,1.95454 3.068564,1.79667 0.650564,-0.15786 3.875594,-3.68572 7.166733,-7.83969 z m 289.335985,-204.47089 8.03583,0.5611 6.87923,-5.65932 c 7.14778,-5.88026 25.21055,-26.03062 30.64706,-34.18909 7.52553,-11.2934 14.66979,-27.36017 17.01142,-38.25708 1.52177,-7.08166 1.57512,-9.2002 0.4589,-18.22266 -0.69468,-5.61516 -1.33775,-11.0016 -1.42903,-11.96986 -0.0916,-0.97224 -2.18078,-2.83072 -4.66596,-4.15082 -12.93609,-6.87152 -17.74745,-9.70614 -27.65935,-16.29552 -5.96236,-3.96375 -12.03682,-8.12625 -13.49881,-9.25 C 400.37985,274.91943 398.69045,274 398.08761,274 397.05582,274 386.28875,266.28495 379.36275,260.58286 377.63727,259.16229 375.77987,258 375.2352,258 c -0.54467,0 -1.58841,-0.72066 -2.31941,-1.60147 -0.731,-0.8808 -3.5986,-3.14447 -6.37244,-5.03036 -12.09184,-8.22107 -14.93865,-10.52372 -27.48036,-22.22757 -7.28431,-6.79766 -13.62132,-11.97266 -14.08224,-11.5 -0.46093,0.47267 -0.39426,3.1094 0.14814,5.8594 0.5424,2.75 1.14932,14.9 1.34871,27 0.34993,21.23534 -0.4703,32.42437 -3.51873,48 -0.53822,2.75 -1.42579,8.6 -1.97236,13 -0.54658,4.4 -1.42677,10.025 -1.95599,12.5 -1.31865,6.16694 -3.8743,24.00488 -4.6563,32.5 -0.3544,3.85 -1.02171,7.73574 -1.48291,8.63497 -2.13432,4.16141 -10.59411,2.47793 -14.56156,-2.8977 -1.99553,-2.70381 -2.80062,-2.98692 -10,-3.51645 -4.30636,-0.31675 -12.10475,-1.69484 -17.32975,-3.06243 -32.19457,-8.42662 -37.29203,-9.69969 -37.60101,-9.39071 -0.50494,0.50494 6.19117,10.27671 12.15109,17.73232 5.90774,7.39034 26.45062,27.02167 29.75878,28.4383 1.20513,0.51607 5.79114,2.59019 10.19114,4.60917 15.91341,7.30202 17.69675,8.04135 20.8236,8.63296 1.74702,0.33055 3.71378,1.02193 4.37057,1.5364 2.43017,1.90355 15.35125,3.86755 34.80583,5.29047 28.49838,2.08438 28.81588,2.09688 30.76336,1.21056 0.96985,-0.44139 5.37948,-0.55003 9.79919,-0.24142 z M 405.15,393.05 c 0.22,-0.66 0.72625,-1.16625 1.125,-1.125 1.1957,0.12369 0.96414,1.49529 -0.325,1.925 -0.66,0.22 -1.02,-0.14 -0.8,-0.8 z m 27.23404,-62.49159 C 431.21241,327.5052 432.44761,325.5 435.5,325.5 c 2.14369,0 3.07646,0.53927 3.34505,1.9339 0.64805,3.3651 -5.27039,6.22723 -6.46101,3.12451 z M 441,410.87824 c 19.74489,-3.13248 19.24164,-2.94379 25.27864,-9.47822 2.99799,-3.24501 6.57733,-7.25002 7.95408,-8.90002 3.75575,-4.50116 16.05711,-23.43534 18.19134,-28 1.02862,-2.2 2.1843,-4.675 2.56818,-5.5 0.8743,-1.87896 4.22972,-13.28267 6.62038,-22.5 1.8195,-7.01517 2.83811,-23.54869 1.77425,-28.79857 l -0.56712,-2.79857 -12.15987,0.0451 c -6.68794,0.0248 -12.83488,0.05 -13.65988,0.0559 -0.825,0.006 -4.2,0.18287 -7.5,0.3931 -3.3,0.21024 -8.33122,0.43192 -11.18049,0.49263 L 453.13902,306 l 0.58289,11.04896 c 0.45658,8.65496 0.18979,12.8259 -1.23135,19.25 -0.99783,4.51057 -2.19141,8.62854 -2.6524,9.15104 -0.46099,0.5225 -0.83816,1.7028 -0.83816,2.62288 0,4.4109 -16.03095,32.08381 -22.52293,38.87948 -1.86401,1.9512 -4.82873,5.12264 -6.58827,7.04764 -1.75955,1.925 -6.25353,6.71331 -9.98662,10.64069 -3.7331,3.92739 -6.48716,7.44099 -6.12014,7.80802 1.27671,1.2767 25.7919,0.24225 37.21796,-1.57047 z m -20.64326,-5.39097 c -0.55101,-1.4359 1.17533,-4.50466 2.5157,-4.47196 1.96789,0.048 3.27612,1.94124 2.66718,3.85984 -0.78021,2.45823 -4.31429,2.87561 -5.18288,0.61212 z M 427.5,391 c -0.7292,-1.17987 0.21667,-3 1.55902,-3 0.51754,0 0.94098,0.9 0.94098,2 0,2.10908 -1.45488,2.69104 -2.5,1 z m 9.20885,-7.62448 C 436.31898,382.98565 436,381.81178 436,380.76691 c 0,-1.4825 0.604,-1.83026 2.75,-1.58333 1.97786,0.22758 2.75,0.87798 2.75,2.31642 0,2.00916 -3.34722,3.31944 -4.79115,1.87552 z m 7.70211,-10.74697 c -1.1117,-2.89703 0.0208,-5.12855 2.60274,-5.12855 2.09589,0 2.4863,0.47107 2.4863,3 0,2.35154 -0.48731,3.0692 -2.25447,3.32014 -1.32218,0.18775 -2.49436,-0.30501 -2.83457,-1.19159 z M 454,343.08179 c 0,-2.0194 1.2874,-4.08179 2.54797,-4.08179 1.79487,0 2.59225,1.47102 1.84829,3.40976 C 457.75368,344.08429 454,344.6581 454,343.08179 Z M 163.27242,352.5 c 0.75759,-4.90393 1.60127,-11.6442 3.80061,-30.36343 0.70918,-6.036 0.75612,-9.70742 0.13211,-10.33143 -1.40145,-1.40145 -14.16637,3.19779 -15.76383,5.67976 -1.29534,2.01258 -3.77751,15.55457 -4.97683,27.15214 -0.34905,3.37537 -1.24071,7.30525 -1.98147,8.73306 -1.61862,3.1199 -1.35347,3.30772 4.9486,3.50523 2.71239,0.085 5.17131,0.39425 5.46426,0.68721 0.29296,0.29295 2.12373,0.39873 4.06839,0.23505 3.41668,-0.28757 3.56175,-0.46596 4.30816,-5.29759 z m 15.2019,2.54966 C 179.31344,353.42697 180,351.23418 180,350.17678 c 0,-1.73806 2.68877,-8.35504 4.94797,-12.17678 0.48769,-0.825 2.53539,-6.7418 4.55044,-13.14845 2.01504,-6.40665 4.52724,-12.57533 5.58266,-13.70819 2.75108,-2.95294 2.56421,-5.49846 -0.33107,-4.5099 -1.2375,0.42252 -5.625,0.80629 -9.75,0.85282 -10.63931,0.12 -11.56951,0.8471 -12.44211,9.72553 -0.39396,4.0085 -0.81961,13.19836 -0.94589,20.42189 -0.18352,10.499 -0.57718,13.66422 -1.96235,15.77825 -2.25756,3.44548 -1.41492,4.58805 3.38369,4.58805 3.32428,0 4.1456,-0.44536 5.44098,-2.95034 z M 306.34199,351.75 c 0.76346,-1.2375 1.9254,-4.5 2.58209,-7.25 0.65669,-2.75 1.68083,-6.8 2.27587,-9 1.37641,-5.08889 1.77726,-7.3891 2.78826,-16 0.45203,-3.85 1.94952,-12.85 3.32776,-20 3.97315,-20.61186 5.35136,-39.981 3.66449,-51.5 -0.60408,-4.125 -1.31495,-10.08235 -1.57971,-13.23855 -0.26476,-3.1562 -1.14232,-7.61183 -1.95013,-9.9014 -0.8078,-2.28957 -1.73,-6.68222 -2.04932,-9.76145 -0.31932,-3.07923 -0.98396,-6.9486 -1.47697,-8.5986 -0.49301,-1.65 -1.13192,-4.90417 -1.41979,-7.23148 -0.28787,-2.32732 -1.3667,-6.37732 -2.3974,-9 l -1.87399,-4.76852 -7.86658,0.0815 c -10.74874,0.11135 -15.36584,1.07681 -15.36944,3.21382 -0.003,1.74835 3.22083,10.07613 8.01503,20.70469 1.48852,3.3 3.22054,7.575 3.84892,9.5 1.20462,3.69028 5.45687,12.43734 6.98246,14.36322 1.61623,2.04031 7.04189,26.00511 7.07895,31.26725 0.0199,2.82177 0.45007,6.21923 0.956,7.54993 0.50593,1.3307 0.97288,9.70948 1.03766,18.61953 C 313.01221,304.0107 312.77777,307 311.64563,307 c -1.06036,0 -1.55495,-2.65758 -2.09366,-11.25 -0.38794,-6.1875 -1.09605,-13.05 -1.57358,-15.25 -0.47753,-2.2 -1.1184,-5.575 -1.42416,-7.5 -1.21121,-7.6256 -3.88507,-18.77949 -5.75339,-24 -1.08259,-3.025 -2.87912,-8.425 -3.99228,-12 -3.04,-9.76313 -5.95932,-17.3206 -7.33937,-19 -0.67795,-0.825 -1.55856,-2.625 -1.95692,-4 -0.39836,-1.375 -2.18239,-5.425 -3.96452,-9 -1.78213,-3.575 -3.5371,-8.03211 -3.89993,-9.90469 -0.95143,-4.91035 -2.1969,-6.06153 -5.43616,-5.02463 -1.49141,0.4774 -6.45647,2.00826 -11.03346,3.40191 -4.57699,1.39364 -9.07699,2.93238 -10,3.41942 -0.92301,0.48704 -4.3782,1.16158 -7.6782,1.49897 -11.11089,1.13596 -16.66964,2.26548 -17.46246,3.54828 -1.95636,3.16545 -6.58903,23.86148 -7.96005,35.56074 -0.58009,4.95 -1.50983,12.78405 -2.0661,17.409 -1.35978,11.3056 -1.31629,11.85945 0.98861,12.591 1.1,0.34913 2,1.26139 2,2.02725 0,0.79314 1.82923,1.88194 4.25,2.52971 2.3375,0.62549 7.91587,2.21855 12.39638,3.54014 4.57638,1.34988 10.74215,2.4029 14.06967,2.4029 5.07184,0 6.23574,-0.35936 8.097,-2.5 2.70898,-3.11561 6.55572,-3.23929 8.63025,-0.27749 2.32865,3.32461 1.91689,5.4153 -1.87932,9.54218 -2.75588,2.99592 -3.68622,3.48788 -4.7,2.48531 -0.69519,-0.6875 -2.24402,-1.25 -3.44186,-1.25 -1.19783,0 -3.81695,-0.68485 -5.82027,-1.52189 -2.00331,-0.83704 -4.87077,-1.68027 -6.37212,-1.87384 -3.97493,-0.5125 -21.00555,-5.58 -26.12127,-7.77245 -2.41534,-1.03515 -4.64801,-1.62561 -4.96148,-1.31214 -0.66058,0.66059 -6.56757,16.69682 -8.7871,23.85517 -1.49438,4.81959 -1.4761,4.94678 1.61323,11.2221 1.71861,3.49099 4.85864,8.4973 6.97785,11.12515 2.11921,2.62784 6.387,7.9279 9.48399,11.7779 5.04223,6.26822 8.77855,9.02858 13.56505,10.02171 2.4646,0.51137 9.1121,2.2107 15.5,3.96232 13.44196,3.68591 17.39636,4.52386 26,5.50952 4.95,0.56709 11.25,1.41541 14,1.88515 8.98338,1.5345 11.326,1.3286 12.84199,-1.1287 z m -16.74422,-10.48557 c -1.26239,-1.26238 -0.55121,-6.34506 0.96945,-6.9286 2.25664,-0.86595 3.78647,1.11883 3.0682,3.98065 -0.61238,2.43992 -2.88582,4.09979 -4.03765,2.94795 z m -1.56522,-20.72521 c -0.66679,-0.80343 -1.44747,-3.21378 -1.73485,-5.35633 -0.42661,-3.18062 -0.10021,-4.28897 1.77846,-6.03922 3.03196,-2.8247 6.44579,-2.71263 9.46929,0.31088 3.34023,3.34023 3.26408,7.76351 -0.18031,10.47287 -3.06574,2.41151 -7.59267,2.70828 -9.33259,0.6118 z m 6.18412,-6.72255 c -1.52752,-1.52752 -2.65464,-0.40039 -1.80743,1.80742 0.50024,1.30358 0.93392,1.43275 1.82354,0.54313 0.88963,-0.88963 0.88579,-1.44865 -0.0161,-2.35055 z m 1.35476,-22.3881 c -1.88028,-1.88027 -2.07188,-6.77336 -0.32143,-8.20855 1.71391,-1.40523 4.80551,-1.75325 7.5,-0.84428 1.7213,0.58068 2.25,1.52921 2.25,4.03666 0,5.5775 -5.78795,8.65679 -9.42857,5.01617 z m 134.85993,-14.1396 c 2.71999,-12.11697 4.50626,-18.13238 5.58178,-18.79709 0.54277,-0.33545 0.98686,-1.41133 0.98686,-2.39084 0,-1.91587 -0.61448,-2.1623 -17.5,-7.01831 -5.5,-1.58171 -16.89326,-5.84739 -25.31836,-9.47928 -8.42511,-3.6319 -15.85011,-6.60576 -16.5,-6.60857 -0.6499,-0.003 -2.98164,-1.11378 -5.18164,-2.46879 -2.2,-1.35502 -4.98218,-2.47772 -6.18261,-2.49488 -1.22207,-0.0175 -2.43961,-0.84092 -2.76657,-1.8711 -0.32118,-1.01194 -1.589,-2.29609 -2.81739,-2.85367 -1.22839,-0.55759 -4.25843,-1.93446 -6.73343,-3.05972 -2.475,-1.12526 -10.125,-6.58452 -17,-12.13169 -11.47865,-9.26168 -16.25067,-12.19769 -17.6123,-10.83607 -0.28553,0.28554 -0.0449,2.28051 0.53481,4.43327 1.09957,4.0835 8.40085,11.45287 22.21797,22.4252 3.49774,2.77759 8.83452,7.42478 11.85952,10.32709 4.84365,4.6472 18.77485,14.53548 20.47845,14.53548 0.34553,0 3.64174,2.41505 7.3249,5.36677 3.68316,2.95172 8.49665,6.55434 10.69665,8.00582 2.2,1.45149 6.7,4.66153 10,7.13343 3.3,2.4719 7.66201,5.39042 9.69335,6.48559 2.03135,1.09518 6.25362,3.78471 9.38284,5.97673 3.12921,2.19203 6.00836,3.78842 6.3981,3.54755 0.38974,-0.24087 1.49542,-3.94299 2.45707,-8.22692 z m 21.38114,4.77353 c 0.25,-0.75 -0.125,-1.125 -0.875,-0.875 -0.72188,0.24063 -1.50937,1.02812 -1.75,1.75 -0.25,0.75 0.125,1.125 0.875,0.875 0.72187,-0.24063 1.50937,-1.02813 1.75,-1.75 z M 207.49642,247.78566 c 1.02645,-19.54406 1.58207,-41.96659 1.07506,-43.38483 -0.27829,-0.77843 -2.24274,-0.68297 -6.73221,0.32712 -3.4866,0.78445 -7.34806,1.62422 -8.58103,1.86615 -3.156,0.61926 -6.60894,7.95107 -9.14121,19.41004 -1.15415,5.22272 -2.80361,12.19586 -3.66547,15.49586 -0.86187,3.3 -1.80711,6.9529 -2.10055,8.11756 -0.42193,1.67464 0.4373,2.77277 4.10786,5.25 2.55277,1.72284 5.72857,3.13244 7.05734,3.13244 1.32876,0 3.8937,0.62228 5.69986,1.38285 1.80616,0.76057 4.85893,2.05644 6.78393,2.87972 1.925,0.82327 3.76856,1.34203 4.09681,1.1528 0.32824,-0.18923 0.95807,-7.2226 1.39961,-15.62971 z m 4.58009,11.96434 c 0.0896,-2.63511 0.32378,-3.86764 1.75742,-9.25 1.01052,-3.79386 4.31741,-24.21161 5.66865,-35 0.88779,-7.08817 1.48856,-10.73449 2.1007,-12.75 0.67366,-2.21808 -2.27988,-2.36525 -5.28106,-0.26314 -2.21804,1.55358 -2.71783,4.17951 -3.90424,20.51314 -0.29963,4.125 -0.74067,8.85 -0.98009,10.5 -1.08897,7.50477 -1.42795,28.5 -0.46015,28.5 0.56224,0 1.05669,-1.0125 1.09877,-2.25 z M 545,245 c 0,-0.55 -0.19844,-1 -0.44098,-1 -0.24254,0 -0.7191,0.45 -1.05902,1 -0.33992,0.55 -0.14148,1 0.44098,1 C 544.52344,246 545,245.55 545,245 Z M 390.50284,200.25 c -2.85635,-7.02905 -2.26459,-11.59102 1.56242,-12.04478 2.58005,-0.30591 5.66035,-5.22214 4.47433,-7.14116 -0.33404,-0.54049 -0.0466,-1.88055 0.63868,-2.9779 1.75062,-2.8032 0.55282,-3.48254 -3.67827,-2.08616 -5.14708,1.69869 -5.39762,0.59173 -0.5576,-2.46364 2.27224,-1.4344 3.8632,-3.04189 3.53546,-3.57218 C 395.1034,167.74025 387,169.66965 387,172.22083 c 0,0.63275 -1.87336,3.37215 -4.16302,6.08755 l -4.16301,4.93709 2.20108,1.66028 c 2.27253,1.71417 5.68347,13.19639 4.68957,15.78646 -0.34627,0.90236 0.45163,1.30779 2.57375,1.30779 2.53339,0 2.95024,-0.30852 2.36447,-1.75 z M 510,150 c 0,-0.55 -0.42344,-1 -0.94098,-1 -0.51754,0 -1.2191,0.45 -1.55902,1 -0.33992,0.55 0.0835,1 0.94098,1 0.85746,0 1.55902,-0.45 1.55902,-1 z m -9.5,-1 c 0.33992,-0.55 0.14148,-1 -0.44098,-1 -0.58246,0 -1.05902,0.45 -1.05902,1 0,0.55 0.19844,1 0.44098,1 0.24254,0 0.7191,-0.45 1.05902,-1 z m -5.0445,-0.928 c 0.31545,-0.51041 -0.36691,-1.22649 -1.51634,-1.59131 -2.37399,-0.75348 -3.45316,-0.12137 -2.48028,1.45278 0.81134,1.31277 3.21932,1.39623 3.99662,0.13853 z m 38.08562,-3.13853 c 0.79437,-1.28531 0.59861,-1.48837 -2.29112,-2.37663 -1.8308,-0.56276 -2.25,-0.30644 -2.25,1.37577 0,2.22174 3.33262,2.95625 4.54112,1.00086 z M 486,143.7872 C 486,143.35424 485.1,143 484,143 c -1.1,0 -2,0.42203 -2,0.93785 0,0.51582 0.9,0.87006 2,0.7872 1.1,-0.0829 2,-0.5049 2,-0.93785 z m 21.55882,-1.18712 c 1.26328,-0.18162 2.05168,-1.20818 2.2576,-2.93958 0.25665,-2.1579 -0.092,-2.6605 -1.84571,-2.6605 -1.98356,0 -6.44536,2.02514 -9.85344,4.47232 -1.09711,0.78779 -0.89055,1.12566 1,1.6357 1.3105,0.35355 3.3092,0.44669 4.44155,0.20697 1.13235,-0.23971 2.93235,-0.56142 4,-0.71491 z m 6.61738,-14.075 c 4.83541,-2.70256 8.51365,-6.16856 7.5592,-7.12301 -1.17725,-1.17725 -8.32541,2.08822 -11.59945,5.29894 -1.85022,1.81445 -3.76272,3.29899 -4.25,3.29899 -0.48727,0 -0.88595,0.49878 -0.88595,1.10841 0,1.52092 3.69317,0.4812 9.1762,-2.58333 z m 557.5047,543.82246 c -0.3589,-0.35885 -4.3714,-0.78917 -8.9167,-0.95627 -4.5453,-0.1671 -10.0642,-0.55139 -12.2642,-0.85398 -17.2744,-2.37594 -50.4786,-3.96029 -69,-3.29235 -2.75,0.0992 -11.075,-0.23085 -18.5,-0.73338 -14.44768,-0.97784 -38.61909,-1.12854 -46,-0.28679 -2.475,0.28226 -6.3,-0.038 -8.5,-0.71161 -5.63385,-1.72509 -11.52957,-3.31705 -14.75,-3.98278 -1.5125,-0.31267 -2.75,-0.97416 -2.75,-1.46998 0,-2.5055 20.84922,-3.44795 33.05208,-1.49405 4.33849,0.69466 13.8641,1.31141 21.16804,1.37055 7.30393,0.0591 17.32988,0.34475 22.27988,0.63471 4.95,0.28995 13.26794,0.65287 18.48431,0.80647 9.21659,0.27141 9.64,0.18471 14.99999,-3.07162 3.0336,-1.843 7.817,-4.03005 10.6297,-4.86011 2.8127,-0.83006 6.8627,-2.83254 9,-4.44995 2.1373,-1.61742 4.2539,-2.95328 4.7034,-2.96858 0.4496,-0.0153 3.3746,-2.09462 6.5,-4.6207 8.0668,-6.51991 11.1939,-14.06611 11.1022,-26.7912 -0.036,-5.01376 0.2229,-9.8579 0.5755,-10.76477 0.8895,-2.28721 -0.4775,-2.87745 -7.9087,-3.41472 -3.5458,-0.25636 -10.8217,-1.57585 -16.1686,-2.9322 -5.3469,-1.35635 -10.7239,-2.21451 -11.9491,-1.90703 -1.3947,0.35005 -4.983,-0.72144 -9.59806,-2.86602 -4.05385,-1.8838 -8.87101,-3.71528 -10.7048,-4.06996 -1.83378,-0.35469 -4.64628,-1.5792 -6.25,-2.72115 C 979.31213,584.79813 978,584.13101 978,584.45759 c 0,0.32657 -1.39401,-0.1271 -3.09779,-1.00816 -1.70379,-0.88106 -3.96304,-1.76856 -5.02056,-1.97222 -1.05751,-0.20366 -3.24642,-1.31282 -4.86424,-2.46481 C 961.8993,576.79211 948.54105,571 946.53854,571 c -0.65251,0 -4.75312,-1.53195 -9.11246,-3.40433 -4.80604,-2.06424 -9.61757,-3.41757 -12.22311,-3.43797 -2.36337,-0.0185 -5.84207,-0.54355 -7.73045,-1.16677 -1.88838,-0.62322 -3.86112,-0.86879 -4.38387,-0.54572 -0.52275,0.32308 -1.23311,0.13007 -1.57857,-0.4289 C 911.16462,561.45734 909.52894,561 907.87524,561 c -1.6537,0 -3.90489,-0.48069 -5.00266,-1.06819 -1.92552,-1.03051 -33.5017,-1.63602 -34.4766,-0.66113 -0.52464,0.52465 -0.87167,2.13235 -2.85557,13.22932 -0.78662,4.4 -2.14687,10.7767 -3.02276,14.17045 -0.87589,3.39375 -1.78289,7.44375 -2.01554,9 -0.23266,1.55625 -1.09606,4.62955 -1.91867,6.82955 -0.82261,2.2 -1.51541,4.7324 -1.53955,5.62756 -0.11574,4.29165 -5.68855,5.13239 -15.59019,2.35201 -6.40984,-1.79989 -9.63924,-5.1385 -9.83545,-10.16806 l -0.1487,-3.81151 -16.25422,-0.17278 c -17.33562,-0.18428 -25.27536,-1.68749 -35.21047,-6.66629 -5.09899,-2.55527 -6.40726,-5.34989 -2.8213,-6.02664 1.27404,-0.24044 5.91644,-1.23206 10.31644,-2.20359 4.4,-0.97153 9.35,-1.92269 11,-2.11368 5.44358,-0.63012 16.93629,-3.20681 21.50626,-4.82175 2.47156,-0.8734 5.7528,-1.73562 7.29166,-1.91604 2.9606,-0.34712 4.31905,-1.75044 7.2758,-7.51613 1.00497,-1.9597 2.48175,-4.3506 3.28174,-5.3131 1.2841,-1.54496 1.24296,-1.98377 -0.35111,-3.74519 -1.59239,-1.75957 -1.7238,-3.14718 -1.11282,-11.75 1.02158,-14.38414 1.40896,-18.42433 2.08585,-21.75481 0.33535,-1.65 1.25632,-7.275 2.04661,-12.5 0.79029,-5.225 1.84374,-11.75 2.341,-14.5 0.49727,-2.75 1.65015,-9.43066 2.56197,-14.8459 0.91181,-5.41525 2.8035,-14.59993 4.20375,-20.41041 1.40025,-5.81048 2.71942,-11.50482 2.9315,-12.6541 0.81607,-4.42249 10.89422,-36.88736 16.63596,-53.58959 3.30879,-9.625 6.53711,-19.3 7.17405,-21.5 0.63695,-2.2 1.93876,-5.53164 2.89293,-7.40364 0.95417,-1.872 1.73485,-3.92975 1.73485,-4.57278 0,-0.64304 1.40172,-4.0614 3.11494,-7.59637 1.71322,-3.53496 4.46031,-10.25221 6.10465,-14.92721 1.64434,-4.675 4.02593,-10.75 5.29244,-13.5 1.2665,-2.75 3.52214,-8.15 5.01252,-12 3.41368,-8.81828 7.09709,-17.76851 9.56393,-23.2391 1.05133,-2.33151 1.91152,-4.48981 1.91152,-4.79624 0,-0.30643 1.4968,-3.79883 3.32622,-7.7609 1.82943,-3.96207 4.57434,-10.35376 6.0998,-14.20376 1.52547,-3.85 3.20847,-7.82911 3.74,-8.84247 0.78403,-1.49474 0.21398,-2.53277 -3.02041,-5.5 -2.19276,-2.01164 -6.38506,-4.94955 -9.31622,-6.52868 -2.93116,-1.57913 -7.30891,-3.94163 -9.72833,-5.25 C 900.68164,235.07048 897.92451,234 896.9741,234 c -0.95041,0 -5.18683,-1.39656 -9.41427,-3.10346 -4.22744,-1.7069 -7.90869,-2.88101 -8.18056,-2.60914 -0.27187,0.27187 -1.41282,4.93092 -2.53545,10.35345 -1.12262,5.42253 -2.15137,10.30915 -2.2861,10.85915 -0.13473,0.55 -0.56562,2.35 -0.95753,4 -0.39192,1.65 -1.41655,5.925 -2.27697,9.5 -1.6424,6.82415 -1.77015,7.54612 -2.7195,15.36935 -0.325,2.67813 -1.01036,6.50313 -1.52302,8.5 -0.51266,1.99686 -1.17659,7.00565 -1.4754,11.13065 -1.15537,15.94981 -5.75751,35.28063 -9.252,38.86208 -1.2676,1.29914 -2.52291,3.77414 -2.78959,5.5 -1.11521,7.21743 -3.509,21.3177 -4.01299,23.63792 -0.29868,1.375 -0.80601,4.075 -1.12742,6 -1.74875,10.47389 -5.73254,28.36568 -6.75003,30.31539 -2.25211,4.3155 -5.19544,7.32359 -8.18508,8.36518 -3.68774,1.28482 -12.93355,0.17473 -17.28453,-2.07525 -3.82289,-1.9769 -4.43532,-4.67083 -3.96093,-17.4232 0.19064,-5.12483 0.0385,-9.50831 -0.3381,-9.74106 -0.37659,-0.23275 -2.82347,0.77219 -5.4375,2.2332 -3.98741,2.22861 -5.19839,2.48819 -7.51983,1.61195 -2.23716,-0.84443 -3.31091,-0.68244 -5.60717,0.84593 -2.06486,1.37435 -4.1418,1.79125 -7.60864,1.52727 -2.62268,-0.1997 -5.06018,-0.65477 -5.41667,-1.01125 C 779.95834,386.29167 778.88981,386 777.94032,386 c -2.75328,0 -2.96993,-2.40599 -0.87267,-9.69147 2.12041,-7.36593 2.25593,-13.79509 0.32458,-15.39797 -0.82493,-0.68463 -3.44648,-0.46635 -8.21124,0.68369 C 761.57131,363.43094 759,363.08025 759,360.2057 c 0,-2.96231 5.01116,-6.82004 16.78696,-12.92305 9.01455,-4.67195 17.40868,-10.57353 23.01863,-16.18348 4.90731,-4.90731 9.89199,-12.37604 10.52259,-15.76639 0.69129,-3.71665 3.79015,-13.88864 4.7694,-15.6555 0.9312,-1.68018 3.83468,-13.89498 5.86582,-24.67728 0.46624,-2.475 1.52798,-7.65 2.35942,-11.5 0.83144,-3.85 1.74457,-9.71948 2.02918,-13.04329 0.2846,-3.32381 0.97955,-8.94881 1.54433,-12.5 0.56478,-3.55119 1.18782,-12.8969 1.38453,-20.76825 0.34108,-13.64769 0.26168,-14.36075 -1.7116,-15.37219 -1.13809,-0.58335 -3.29284,-2.20151 -4.78832,-3.5959 l -2.71905,-2.53526 -3.8347,2.65744 c -5.84625,4.05146 -10.48233,3.12191 -8.04582,-1.61322 0.94514,-1.83678 0.22855,-4.10071 -1.04821,-3.31162 -0.40076,0.24768 -1.33641,0.0747 -2.07922,-0.38438 -1.11935,-0.69179 -1.06837,-1.54 0.29774,-4.95425 0.90658,-2.26575 1.64832,-4.54211 1.64832,-5.05857 0,-0.51646 -3.49408,1.18014 -7.76463,3.77023 -7.41264,4.49578 -10.75916,6.10559 -19.73537,9.49353 -2.2,0.83036 -8.05,3.13775 -13,5.12754 -5.32799,2.14173 -10.68099,3.61175 -13.12005,3.60299 -3.63765,-0.0131 -4.57433,-0.54348 -8,-4.53012 -2.13397,-2.48343 -6.49149,-7.31722 -9.68336,-10.74176 -4.41425,-4.73601 -5.65162,-6.70714 -5.16927,-8.23467 1.54127,-4.88097 1.45042,-6.40216 -0.77691,-13.00825 l -2.36013,-7 h -4.23114 c -6.89073,0 -6.9678,-0.62121 -2.4192,-19.5 1.39141,-5.775 2.61775,-13.65 2.72521,-17.5 0.12202,-4.37214 1.07217,-9.44016 2.53096,-13.5 1.88469,-5.24514 2.29876,-8.25316 2.14483,-15.581151 -0.18452,-8.784172 -0.089,-9.209307 2.91979,-13 3.19543,-4.025779 2.94303,-3.910435 24.93927,-11.396891 3.025,-1.029564 7.75,-2.304974 10.5,-2.834247 2.75,-0.529272 9.05,-2.191871 14,-3.694664 4.95,-1.502794 13.275,-4.028172 18.5,-5.611952 5.225,-1.583781 12.21019,-3.541039 15.52265,-4.349463 11.29422,-2.756421 18.98411,-6.64949 25.4309,-12.8746 5.82857,-5.628147 6.20721,-5.823036 10.29874,-5.300817 2.33624,0.298184 4.53114,0.565019 4.87756,0.592968 1.58585,0.127946 8.79956,11.157638 9.40375,14.378235 0.37159,1.980729 1.30354,4.122458 2.07101,4.759398 0.76746,0.63694 1.39539,2.535897 1.39539,4.219904 0,1.684007 0.8973,4.915402 1.994,7.180877 1.09669,2.265475 2.51662,6.721416 3.15539,9.902091 0.99205,4.939775 0.90466,6.608904 -0.59934,11.446679 -2.7681,8.903886 -8.32718,18.665733 -13.78987,24.215273 -2.84299,2.88819 -4.63459,5.46634 -4.13729,5.95365 0.48241,0.47274 4.25211,1.14049 8.37711,1.48388 4.125,0.3434 9.75,1.28872 12.5,2.10072 7.35178,2.17078 11.5,2.70168 11.5,1.47179 0,-0.58392 0.45,-1.06168 1,-1.06168 0.55,0 1,0.91412 1,2.03138 0,1.11727 0.7875,2.27277 1.75,2.56779 2.28141,0.69929 9.21461,4.04544 11.69774,5.64565 15.46273,9.96465 18.41814,12.40219 23.79565,19.62592 2.19895,2.95391 4.73126,6.11664 5.62735,7.02829 0.89609,0.91166 3.53908,3.95408 5.87331,6.76093 4.89076,5.88105 15.57241,14.78978 22.58428,18.83582 2.65558,1.53234 5.19384,3.73516 5.64057,4.89515 1.26779,3.29192 6.3944,6.48519 14.80951,9.22455 4.24687,1.38247 8.84659,3.53778 10.22159,4.78958 1.375,1.25179 4.075,2.84203 6,3.53387 4.5766,1.64482 10.0247,4.53394 16.9165,8.97079 3.0709,1.97702 8.2835,4.94362 11.5835,6.59243 8.7289,4.36131 18.9274,15.18738 24.8007,26.32684 2.5846,4.90196 4.6993,9.36191 4.6993,9.911 0,0.54909 2.1375,4.65586 4.75,9.12617 8.796,15.05108 19.25,35.01084 19.25,36.75404 0,0.41159 0.8335,2.57793 1.8521,4.81408 1.0187,2.23614 2.8748,7.44072 4.1247,11.56572 1.2499,4.125 2.8478,9.08752 3.5509,11.02783 0.7031,1.94031 1.5612,5.31531 1.9069,7.5 0.3457,2.18469 1.0858,5.67489 1.6446,7.75599 1.4388,5.35805 2.884,37.94537 1.8802,42.39599 -0.4601,2.04039 -0.6308,4.04286 -0.3792,4.44994 0.2516,0.40708 0,2.80328 -0.57,5.32489 -0.5651,2.52161 -1.2071,6.03838 -1.4266,7.81505 -0.5241,4.24317 -1.733,15.43696 -2.0767,19.23031 -0.1495,1.65 -1.0138,7.5 -1.9207,13 -0.9069,5.5 -1.8441,11.8 -2.0826,14 -0.8178,7.54349 -0.5075,46.02094 0.4356,54.01131 0.7237,6.13129 2.4879,45.32769 2.2949,50.98869 -0.067,1.96759 -1.2523,12.03794 -1.6477,14 -1.1332,5.62219 -3.0125,12.27518 -4.0959,14.5 -1.1758,2.41455 -1.7969,17.17461 -1.6569,39.37715 0.054,8.56229 0.3302,10.12676 2.0748,11.75216 1.1069,1.03126 2.542,3.64207 3.1891,5.80181 1.3128,4.38167 0.1084,8.61419 -4.5517,15.9963 l -2.455,3.88895 2.2046,1.561 2.2046,1.56101 -2.8058,2.53081 c -2.7083,2.44291 -5.6586,3.23308 -7.0133,1.87835 z m -17.1539,-10.30387 c -0.3251,-0.52598 -1.2516,-0.70283 -2.059,-0.39301 -2.0671,0.79323 -1.8235,1.34934 0.591,1.34934 1.1325,0 1.7931,-0.43035 1.468,-0.95633 z m -29.8407,-1.43253 c 2.3025,-0.81262 7.4775,-1.75039 11.5,-2.08393 13.2592,-1.09945 15.8137,-1.58688 15.8137,-3.01752 0,-0.79339 2.2547,-2.02324 5.3692,-2.92863 5.5957,-1.62671 8.5748,-3.87959 6.6794,-5.05105 -0.5767,-0.35642 -1.0486,-1.48567 -1.0486,-2.50943 0,-1.56576 -1.0721,-1.96687 -6.75,-2.52551 -3.7125,-0.36527 -8.1879,-1.03302 -9.9453,-1.48389 -2.8573,-0.73304 -4.2126,-0.16866 -12.8107,5.33453 -12.5179,8.01199 -16.8404,10.45681 -17.6749,9.99691 -0.3745,-0.20639 -0.9636,0.0821 -1.309,0.64107 -0.3455,0.55897 -1.4723,1.01631 -2.504,1.01631 -1.0318,0 -3.1427,0.49956 -4.691,1.11013 -2.5906,1.02161 -2.6557,1.16918 -0.816,1.85047 3.6419,1.34873 13.936,1.15093 18.1872,-0.34946 z m 41.105,-6.4458 c -2.3765,-0.39336 -4.3061,1.19273 -3.3442,2.74901 0.4546,0.73559 1.4338,0.52063 3.0195,-0.66287 2.2573,-1.68471 2.2697,-1.76424 0.3247,-2.08614 z m 4.4279,-17.98574 c 0.3956,-0.39491 0.9842,-7.00937 1.3081,-14.69881 0.3239,-7.68943 0.7204,-16.13334 0.8812,-18.76423 0.1608,-2.63089 -0.085,-5.01687 -0.547,-5.30217 -0.4617,-0.28531 -2.3068,0.13871 -4.1004,0.94225 -4.3883,1.96596 -8.3805,2.85631 -13.6813,3.05122 l -4.4202,0.16254 -0.3526,12.4648 c -0.3376,11.93242 -0.4784,12.64063 -3.2963,16.58163 -1.6191,2.26426 -2.6588,4.40176 -2.3105,4.75 0.3482,0.34824 4.1316,0.63317 8.4074,0.63317 4.6083,0 8.0532,0.45112 8.459,1.10772 0.7147,1.15647 8.2946,0.42765 9.6526,-0.92812 z M 846.04165,605.44981 c 1.85913,-2.24011 -0.52324,-4.24698 -5.50628,-4.63839 -5.26298,-0.41341 -6.03283,2.20153 -1.33044,4.51908 4.13571,2.03826 5.22831,2.05733 6.83672,0.11931 z m 5.98506,-12.03074 c 0.64494,-1.95419 0.90416,-3.82153 0.57604,-4.14965 -0.32811,-0.32812 -2.73546,-1.39582 -5.34966,-2.37268 -2.6142,-0.97686 -8.75526,-3.32829 -13.64681,-5.2254 -7.31265,-2.8361 -9.44593,-3.28479 -12,-2.52393 -1.70845,0.50896 -6.03128,1.55457 -9.60628,2.3236 -3.575,0.76902 -9.2,2.09562 -12.5,2.94799 -3.3,0.85237 -7.43594,1.55679 -9.19098,1.56538 -5.23409,0.0256 -4.59375,1.55576 1.48605,3.55104 4.43465,1.45537 9.05468,1.90587 20.74897,2.02322 14.80887,0.1486 20.577,0.95411 31.45596,4.39275 3.025,0.95615 5.80467,1.57697 6.17704,1.3796 0.37238,-0.19737 1.20473,-1.95773 1.84967,-3.91192 z M 1069,591.76515 c 10.3028,-5.84673 11.8272,-17.57504 8.5481,-65.76515 -0.2433,-3.575 -0.7191,-15.5 -1.0573,-26.5 -0.3382,-11 -0.8061,-20.9548 -1.0397,-22.12177 -0.414,-2.0676 -0.572,-2.08588 -6.188,-0.71587 -16.9326,4.13065 -40.3974,3.66782 -55.2631,-1.09003 -10.0747,-3.22446 -22.62116,-6.59689 -24.5,-6.58548 -1.1,0.007 -4.36733,-0.88763 -7.26073,-1.98735 -2.8934,-1.09973 -6.5766,-1.9995 -8.1849,-1.9995 -1.60829,0 -4.19097,-0.50424 -5.73927,-1.12054 -1.54831,-0.61629 -3.7151,-1.24841 -4.8151,-1.40471 -1.1,-0.1563 -4.025,-0.95348 -6.5,-1.77152 -4.00772,-1.32463 -9.44412,-2.4102 -15.5505,-3.10521 -1.12777,-0.12837 -2.59027,-0.56699 -3.25,-0.97472 -0.65972,-0.40773 -1.61841,-0.48244 -2.1304,-0.16601 -0.512,0.31644 -1.21356,0.11799 -1.55902,-0.44098 C 934.16462,455.45734 931.68508,455 929,455 c -2.68508,0 -5.1074,-0.36476 -5.38293,-0.81057 -0.47056,-0.76139 -13.97671,-1.42478 -28.61707,-1.40561 -8.52946,0.0112 -17.47423,0.7732 -18.81698,1.60307 -0.58955,0.36436 -4.72531,0.81477 -9.19059,1.00092 -4.46528,0.18615 -8.54955,0.76931 -9.07616,1.29592 -0.52662,0.52662 -1.83288,7.45071 -2.90281,15.38687 -1.2602,9.34745 -2.82497,16.56416 -4.44294,20.49073 -1.73141,4.2019 -2.82557,9.53916 -3.56672,17.39832 -0.58801,6.23536 -1.23484,11.60776 -1.4374,11.93868 -0.91005,1.48676 -1.95013,12.42966 -2.00561,21.10167 l -0.0608,9.5 5,0.21658 c 2.75,0.11911 10.35578,-0.46715 16.90174,-1.30281 13.48334,-1.7213 38.20675,-1.09551 45.09826,1.1415 2.2,0.71413 6.25,1.59324 9,1.95358 4.87028,0.63817 22.98379,6.22992 29,8.95248 1.65,0.74668 8.625,3.66094 15.5,6.47612 6.875,2.81518 17.45,7.56803 23.5,10.56187 14.65271,7.25092 27.39201,10.38853 44.76281,11.02482 5.6304,0.20624 12.4872,1.01284 15.2372,1.79245 7.5286,2.13429 16.0944,1.51618 21.5,-1.55144 z M 859.09315,578 c 0.32623,-3.025 1.33873,-6.94015 2.25,-8.70034 0.91127,-1.76019 1.65685,-4.57269 1.65685,-6.25 0,-2.64975 -0.36061,-3.05533 -2.75,-3.0929 -1.5125,-0.0238 -5.50604,-0.1808 -8.87453,-0.34894 -7.38013,-0.36838 -9.42375,0.89398 -12.25796,7.57184 -1.09237,2.57381 -2.91569,5.17715 -4.05182,5.78518 -1.13613,0.60804 -2.06569,1.45276 -2.06569,1.87715 0,0.77703 10.92544,6.04924 16.5,7.96229 1.65,0.56624 4.35,0.95442 6,0.86262 2.87079,-0.15971 3.02555,-0.40378 3.59315,-5.6669 z M 1052.5,469.35197 c 3.85,-0.29268 7.5847,-1.01509 8.2992,-1.60537 0.7146,-0.59028 3.846,-1.17613 6.9587,-1.30188 4.7346,-0.19128 6.034,-0.66399 7.9508,-2.89245 1.2602,-1.46509 2.322,-3.8762 2.3595,-5.35803 0.1626,-6.4303 1.2259,-15.65589 2.9038,-25.19424 2.4561,-13.9628 4.028,-25.06116 4.028,-28.43961 0,-2.03053 0.4814,-4.59129 1.0697,-5.69058 1.04,-1.9433 1.581,-27.62132 0.7347,-34.86981 -0.6469,-5.54003 -4.9961,-27.29325 -5.898,-29.5 -0.4496,-1.1 -2.2387,-6.95 -3.9757,-13 -2.8605,-9.9627 -11.4184,-29.74892 -14.4894,-33.5 -0.6754,-0.825 -3.0179,-4.875 -5.2055,-9 -2.1876,-4.125 -4.9777,-9.27609 -6.2001,-11.44686 -1.2225,-2.17077 -2.3621,-5.44727 -2.5326,-7.2811 -0.3568,-3.83988 -1.7175,-5.77478 -5.2943,-7.52888 -1.3942,-0.68374 -3.9241,-3.75659 -5.6219,-6.82856 -3.9715,-7.18599 -8.9821,-13.26568 -12.383,-15.02527 -1.4769,-0.76413 -5.1645,-3.0076 -8.1946,-4.98549 C 1010.2998,221.52423 979.0295,206 976.91724,206 c -0.83448,0 -1.94474,-0.40826 -2.46724,-0.90724 -0.5225,-0.49898 -2.63307,-1.59917 -4.69016,-2.44486 l -3.74016,-1.53762 -2.6376,4.69486 c -1.45067,2.58217 -3.4801,5.91414 -4.50984,7.40437 -1.02973,1.49023 -1.87224,3.20637 -1.87224,3.81366 0,0.60728 -3.72355,5.463 -8.27455,10.79049 -4.55101,5.32749 -9.01693,10.81134 -9.92427,12.18634 -0.90734,1.375 -2.75936,3.74997 -4.1156,5.27771 -1.35624,1.52773 -3.00259,4.22773 -3.65856,6 -0.65597,1.77226 -1.8304,4.70006 -2.60984,6.50622 -0.77945,1.80616 -1.41718,3.80158 -1.41718,4.43427 0,1.21463 -0.31954,1.92369 -9.91804,22.00784 -3.34508,6.99932 -6.08196,13.1711 -6.08196,13.71505 0,1.39827 -2.85671,9.81593 -4.94088,14.55891 -0.96673,2.2 -2.92132,7.375 -4.34353,11.5 -3.11365,9.03083 -7.32579,19.8539 -11.67545,30 -9.21098,21.48569 -14.51697,37.13977 -22.20141,65.5 -1.6393,6.05 -4.2772,15.48669 -5.86201,20.97042 -1.85399,6.41517 -2.51611,10.19622 -1.85684,10.60367 0.56354,0.34829 4.92961,-0.19537 9.70237,-1.20812 13.90295,-2.95015 18.68416,-3.37308 36.67775,-3.24439 12.83112,0.0918 18.47137,0.54514 23,1.84878 3.3,0.94996 8.7,1.92666 12,2.17044 3.3,0.24378 6.9,0.83859 8,1.32179 1.1,0.48321 4.25,1.19031 7,1.57134 11.92871,1.6528 14.41293,2.1435 15.669,3.09503 0.73205,0.55457 2.66187,1.09261 4.28849,1.19564 4.26282,0.27003 17.14238,4.02013 23.01137,6.70016 6.13404,2.80104 9.01474,3.29626 22.81164,3.92148 5.9293,0.2687 11.5543,0.96515 12.5,1.54766 0.963,0.59315 3.6994,0.80198 6.2195,0.47467 2.475,-0.32146 7.65,-0.82392 11.5,-1.1166 z m -26.9041,-183.8038 c -3.0553,-5.6733 -11.6788,-15.09964 -18.3756,-20.08628 -3.4538,-2.57184 -6.9529,-5.97788 -7.77568,-7.56898 C 998.30489,255.6889 997.24237,255 994.98279,255 c -1.88284,0 -3.42193,-0.73032 -4.21486,-2 -0.68696,-1.1 -2.27692,-2 -3.53323,-2 -1.51635,0 -2.60372,-0.84039 -3.2347,-2.5 -0.76793,-2.0198 -1.63356,-2.5 -4.50663,-2.5 -2.23852,0 -3.76941,-0.55578 -4.13174,-1.5 -0.32585,-0.84914 -1.81563,-1.5 -3.43344,-1.5 -1.78938,0 -3.23995,-0.71401 -3.87992,-1.9098 -0.66084,-1.23479 -1.71098,-1.72966 -2.97113,-1.40012 -1.58992,0.41577 -2.07347,-0.15361 -2.62438,-3.0902 -0.68988,-3.67739 -2.13956,-4.51308 -4.21998,-2.43266 -2.66714,2.66714 -2.79708,-5.9226 -0.19319,-12.77135 1.57413,-4.14028 3.57987,-1.61162 2.09662,2.64324 C 959.0426,227.17624 959.333,229 960.92613,229 c 0.44445,0 1.99928,-1.8 3.45517,-4 2.54081,-3.83942 5.64266,-5.36354 5.59674,-2.75 -0.0121,0.6875 -0.91208,3.21164 -2,5.6092 -2.23577,4.92719 -2.42417,6.1408 -0.95329,6.1408 0.56361,0 1.45248,-1.125 1.97525,-2.5 0.6036,-1.58758 1.72852,-2.5 3.08224,-2.5 1.62147,0 1.96968,0.41889 1.45472,1.75 -1.35368,3.49908 -1.71665,7.02091 -0.78306,7.5979 0.52546,0.32475 1.99923,-0.52067 3.27505,-1.87872 3.05632,-3.2533 3.78187,-3.11704 4.15769,0.78082 0.25265,2.6204 0.70081,3.18408 2.31336,2.90975 1.1,-0.18714 2.79813,-1.05401 3.77363,-1.92638 2.53157,-2.26392 4.75317,-0.10719 2.91745,2.83227 -1.66942,2.67317 -0.72993,3.93436 2.9308,3.93436 2.26194,0 2.95987,0.43222 2.82582,1.75 -0.39792,3.91188 -0.003,4.48073 2.64795,3.81535 2.98765,-0.74984 5.40435,0.81995 5.40435,3.51041 0,1.00698 1.151,2.63938 2.5578,3.62756 4.7051,3.30502 18.7289,17.74447 21.6022,22.24246 2.9741,4.65564 3.7355,9.05422 1.5674,9.05422 -0.6999,0 -2.1091,-1.55333 -3.1315,-3.45183 z m -191.76761,111.0475 1.67171,-8.64776 2.99857,0.27605 c 2.91494,0.26834 3.03221,0.10871 4.2048,-5.72396 0.66342,-3.3 1.39199,-7.575 1.61903,-9.5 0.78533,-6.65857 3.83674,-23.52332 5.31713,-29.3871 1.75941,-6.96897 1.26557,-7.76284 -5.03002,-8.08592 -2.50307,-0.12846 -5.25006,-0.8137 -6.10443,-1.52277 -0.85438,-0.70907 -1.71779,-1.11259 -1.91869,-0.89671 -0.20091,0.21587 -2.94886,4.2175 -6.10657,8.8925 -3.15771,4.675 -6.74119,9.625 -7.96328,11 -1.22209,1.375 -3.97575,5.39947 -6.11926,8.94327 -2.1435,3.5438 -5.52416,8.0438 -7.51256,10 -4.14734,4.08017 -7.41242,8.86236 -6.60329,9.6715 0.72374,0.72373 9.25899,-3.06214 10.14854,-4.50145 0.37843,-0.61233 1.60099,-1.11332 2.71678,-1.11332 1.96476,0 2.00626,0.37626 1.31635,11.93536 -0.73993,12.39734 -0.0193,19.49147 1.5812,15.56464 0.44832,-1.1 0.84676,-3.93823 0.88541,-6.30718 0.091,-5.57403 2.01744,-13.19282 3.33593,-13.19282 0.67132,0 0.83304,3.27126 0.46593,9.42463 -0.40455,6.78082 -0.20807,9.90904 0.70043,11.15149 1.74079,2.38067 2.24945,1.10172 3.01318,-7.57612 0.98446,-11.18596 1.85772,-14.43465 3.99049,-14.84539 1.45223,-0.27967 1.6986,0.0454 1.13214,1.49397 -1.20136,3.07209 -2.88222,20.08969 -2.16811,21.95065 1.18339,3.08386 2.68023,0.0407 4.42859,-9.00356 z m 5.9372,-1.03278 C 839.88215,394.1533 839.58512,393 839.10543,393 c -0.87937,0 -2.06651,3.33276 -2.09178,5.87244 -0.0249,2.50369 2.52447,-0.56238 2.75184,-3.30955 z M 799.71435,376.75 c 3.59768,-3.4375 8.65509,-9.4 11.23869,-13.25 2.58359,-3.85 6.12608,-9.09026 7.8722,-11.64502 1.74612,-2.55477 3.17476,-4.91475 3.17476,-5.2444 0,-0.32965 2.70135,-4.24268 6.003,-8.69561 3.30165,-4.45294 5.74279,-8.51728 5.42475,-9.03187 -0.31803,-0.51459 -2.00688,-0.86888 -3.753,-0.78731 -2.73567,0.12779 -6.1103,-0.62223 -16.17475,-3.59488 -1.54861,-0.4574 -3.19444,0.76931 -7.29233,5.43529 -5.49184,6.25318 -20.24521,17.43581 -25.62566,19.42351 -5.17693,1.91252 -13.55357,6.87729 -13.03075,7.72323 0.27092,0.43836 3.5728,0.53879 7.33751,0.22317 l 6.84493,-0.57386 0.65669,3.38388 c 0.91719,4.72616 0.69364,10.85834 -0.47546,13.04283 -0.67719,1.26534 -0.64401,1.84104 0.10612,1.84104 0.60027,0 1.98716,-2.025 3.08197,-4.5 1.09482,-2.475 2.41951,-4.5 2.94377,-4.5 1.19149,0 1.1708,1.34412 -0.10593,6.88198 -1.33312,5.78247 -0.65337,6.15807 2.14235,1.18376 2.23888,-3.98354 4.91679,-5.43656 4.91679,-2.66781 0,0.76886 -1.11958,3.35636 -2.48795,5.75 -2.92758,5.12108 -3.04318,5.85207 -0.9255,5.85207 0.87261,0 4.53012,-2.8125 8.1278,-6.25 z m 56.03186,-53.82623 c 2.62247,-9.8348 5.53741,-25.48501 7.24978,-38.92377 1.5066,-11.82388 2.35323,-17.2157 4.39658,-28 0.88579,-4.675 2.08991,-11.2 2.67581,-14.5 0.5859,-3.3 1.47162,-7.8 1.96828,-10 0.49665,-2.2 1.09086,-5.575 1.32047,-7.5 0.94597,-7.93077 10.38581,-52.79767 11.4633,-54.48422 0.35692,-0.55868 0.65584,-1.46578 0.66426,-2.01578 0.008,-0.55 1.02781,-1.1438 2.26531,-1.31955 1.83866,-0.26113 2.25,0.15607 2.25,2.28212 0,1.43092 -0.70068,4.27471 -1.55708,6.31955 -0.85639,2.04483 -1.75048,7.09288 -1.98687,11.21788 -0.23639,4.125 -1.07404,9.75 -1.86144,12.5 -2.48997,8.69615 -5.62214,21.9345 -5.60812,23.70308 0.007,0.94274 1.46449,2.3657 3.26351,3.18726 3.97289,1.81429 19.75,6.61677 19.75,6.01181 0,-0.38857 4.07535,1.70373 13.15797,6.75535 1.63907,0.91162 3.81385,2.41201 4.83285,3.3342 1.74625,1.58033 1.93649,1.54254 3.3099,-0.6575 5.47506,-8.77035 19.1514,-31.6667 23.94767,-40.09216 6.79614,-11.93859 7.17155,-10.52084 -5.88953,-22.24204 -4.90298,-4.4 -10.92699,-10.40989 -13.38668,-13.35531 -8.44023,-10.10694 -14.48159,-15.95304 -21.2319,-20.54566 C 903.02244,142.06956 899.60468,140 899.14527,140 c -0.45941,0 -1.64978,-0.9 -2.64527,-2 -0.99549,-1.1 -2.30273,-2.0022 -2.90499,-2.00488 -0.60225,-0.003 -4.24501,-1.6229 -8.09501,-3.60046 -5.003,-2.56982 -10.95243,-4.42433 -20.85426,-6.50054 -7.61984,-1.59772 -14.27761,-3.1666 -14.79504,-3.48639 -1.17086,-0.72364 -9.29142,5.49019 -17.81546,13.63234 -5.85441,5.59212 -6.68201,6.89667 -8.76576,13.81753 -2.83127,9.4036 -3.15499,11.45316 -3.49729,22.1424 -0.27374,8.5484 -0.22738,8.73008 4.3414,17.01368 1.77074,3.21049 12.40799,13.63462 21.21736,20.79225 7.99071,6.49247 8.23601,6.3652 9.17011,-4.75745 0.34867,-4.15166 1.02953,-8.67348 1.51303,-10.04848 0.94484,-2.68701 1.42546,-5.74956 2.98173,-19 1.71784,-14.62603 2.06954,-16.13571 3.6819,-15.80462 1.04704,0.215 1.60381,2.02238 1.89251,6.14343 0.36432,5.20051 -0.22208,9.77129 -3.6129,28.16119 -0.50705,2.75 -1.37889,8.825 -1.9374,13.5 -0.55851,4.675 -1.23336,9.44598 -1.49966,10.60218 -0.26629,1.15619 -0.74597,3.85619 -1.06596,6 -0.31998,2.1438 -0.79822,5.02282 -1.06276,6.39782 -0.41038,2.13308 -3.94169,22.74285 -5.8256,34 -0.32215,1.925 -1.02579,5.525 -1.56363,8 -2.16261,9.95167 -5.28083,29.01127 -6.13514,37.5 -0.49816,4.95 -1.16422,11.34335 -1.48011,14.20744 -0.53617,4.86123 -0.41854,5.2422 1.76929,5.73006 2.91518,0.65006 9.00586,1.27881 10.34364,1.06779 0.55,-0.0868 2.0108,-3.94844 3.24621,-8.58152 z M 836.3746,314 c 6.51509,-36.05835 7.85459,-43.14527 9.07252,-48 0.75889,-3.025 1.92131,-9.77147 2.58316,-14.99217 0.66185,-5.22069 1.55841,-10.426 1.99235,-11.56736 0.43395,-1.14136 1.101,-5.92772 1.48234,-10.63636 0.68515,-8.46 0.66212,-8.58327 -1.94847,-10.43263 -1.45299,-1.02932 -5.88511,-4.41773 -9.84915,-7.52981 l -7.20735,-5.65832 -0.66798,14.65832 c -0.75006,16.45969 -1.28857,22.19297 -2.83266,30.15833 -0.5864,3.025 -1.31197,7.075 -1.61237,9 -0.3004,1.925 -1.63777,8.16256 -2.97192,13.86125 -1.33416,5.69869 -2.66791,11.73582 -2.96389,13.41585 -0.29598,1.68002 -0.72099,3.35045 -0.94448,3.71206 -0.5327,0.86193 -3.4094,14.39612 -4.14704,19.51084 -0.31728,2.2 -1.16886,5.43574 -1.89239,7.19053 -1.00261,2.43163 -1.03624,3.41942 -0.14139,4.15282 1.339,1.09743 18.82424,3.04061 19.84352,2.20526 0.36817,-0.30174 1.36051,-4.37361 2.2052,-9.04861 z m 101.28911,-83 c 1.46293,-3.025 3.72981,-6.85 5.03749,-8.5 15.50464,-19.56335 18.44509,-24.41387 16.33866,-26.95197 C 958.33325,194.69661 957.3452,194 956.8442,194 c -0.501,0 -2.99788,4.3875 -5.54863,9.75 -2.55076,5.3625 -5.91075,11.38976 -7.46665,13.3939 -1.55591,2.00415 -2.82892,3.96117 -2.82892,4.34894 0,0.38777 -3.375,5.41381 -7.5,11.169 -4.125,5.75518 -7.5,11.21084 -7.5,12.12368 0,2.65574 8.66571,-7.58641 11.66371,-13.78552 z M 757.61008,198.08958 c 2.26054,-1.02658 6.08554,-2.19116 8.5,-2.58795 11.10132,-1.82442 27.89695,-9.4812 39.76523,-18.12815 4.05642,-2.95542 7.75308,-5.37348 8.21481,-5.37348 1.66301,0 2.75018,-3.69001 3.37312,-11.44885 0.34884,-4.34494 0.86388,-8.27142 1.14453,-8.72552 0.28064,-0.4541 0.24839,-1.24935 -0.0717,-1.76722 -0.32007,-0.51788 -5.57759,4.00152 -11.68339,10.04312 -11.52426,11.40309 -17.15757,15.23465 -21.62358,14.70756 -2.26376,-0.26718 -3.46531,-2.00415 -8.86069,-12.80909 -3.43299,-6.875 -6.54534,-13.80258 -6.91634,-15.39462 -0.371,-1.59205 -1.97449,-5.09935 -3.56332,-7.79401 -1.58883,-2.69466 -2.89448,-5.21708 -2.90145,-5.60538 -0.0193,-1.07582 -5.27963,-11.17229 -8.30283,-15.93612 C 753.20803,114.9433 752,112.79615 752,112.49843 c 0,-1.92713 -14.64314,-22.147513 -16.57579,-22.889141 -0.863,-0.331164 -2.49839,-0.104774 -3.63419,0.50309 -1.90109,1.017432 -2.01454,1.703359 -1.42844,8.636818 0.49009,5.797873 0.3189,7.787033 -0.74368,8.641203 -0.75918,0.61028 -1.6641,3.0221 -2.01093,5.3596 -0.63054,4.24954 -0.63026,4.25001 2.63121,4.32651 6.08554,0.14275 16.36489,3.44672 17.1586,5.5151 0.29725,0.77461 1.20918,1.40839 2.02652,1.40839 0.91073,0 1.74401,1.37493 2.15231,3.55134 0.527,2.80915 0.27523,3.84744 -1.20469,4.96819 -2.87892,2.18023 -3.62573,1.83637 -7.1076,-3.2726 -1.78018,-2.61206 -4.16502,-5.32896 -5.29965,-6.03755 -2.7934,-1.74451 -10.8599,-3.1863 -11.55293,-2.06495 -0.30361,0.49124 -0.74533,3.24721 -0.98161,6.12437 -0.23628,2.87716 -1.59485,10.03048 -3.01905,15.89627 -3.17345,13.07044 -3.02789,14.35783 1.61315,14.26654 1.91222,-0.0376 4.71427,-0.42389 6.22677,-0.85841 2.12972,-0.61182 2.75,-0.45136 2.75,0.7114 0,0.82578 -0.68214,1.76318 -1.51586,2.08311 -1.17749,0.45185 -1.37125,1.53604 -0.86799,4.85699 1.40929,9.2999 4.16674,12.50953 9.16019,10.66233 1.91438,-0.70817 2.06901,-1.1636 1.18472,-3.48944 -1.16287,-3.05859 -0.73194,-3.90738 1.54096,-3.03519 1.72046,0.6602 4.82538,7.15539 4.24823,8.88684 -0.1949,0.58471 -2.98047,1.20485 -6.19015,1.3781 -3.20968,0.17325 -6.05434,0.53357 -6.32148,0.8007 -1.21446,1.21446 1.06827,3.6952 5.46439,5.93838 7.62519,3.89085 13.53819,8.57354 12.87882,10.19913 -0.32,0.78895 -0.85497,2.10945 -1.18882,2.93445 -0.8141,2.01182 1.17193,1.88071 6.21707,-0.41042 z M 730,143.54969 c 0,-0.79767 0.7875,-1.91444 1.75,-2.4817 1.13983,-0.67178 1.38112,-1.29928 0.69204,-1.79969 -3.95949,-2.87539 -5.92143,-11.38891 -3.24204,-14.0683 2.61765,-2.61765 8.8,-0.0325 8.8,3.67977 0,0.67225 1.63422,1.9051 3.6316,2.73966 2.57171,1.07453 3.32038,1.82859 2.56524,2.58373 -1.27696,1.27696 1.30187,5.79684 3.30739,5.79684 0.70081,0 2.33655,0.93419 3.63499,2.07597 l 2.36078,2.07597 -2.5,-0.70385 c -4.59684,-1.29421 -13.46368,-1.19711 -16.87212,0.18476 C 729.96667,145.31991 730,145.32059 730,143.54969 Z m 88.83746,42.43501 c -1.83062,-5.42075 -3.84605,-7.91104 -3.83188,-4.7347 0.01,2.17384 2.16076,9.19894 3.21169,10.48899 2.22459,2.73074 2.52968,-0.1 0.62019,-5.75429 z m -29.63825,-16.80499 c 0.93457,-0.37384 3.70451,-2.59221 6.15543,-4.92971 2.45091,-2.3375 4.79379,-4.25 5.20639,-4.25 1.90326,0 7.76269,-5.60074 10.77952,-10.30361 3.43208,-5.35019 18.82389,-20.49903 23.83606,-23.45979 3.18573,-1.88185 3.23728,-2.30213 1.74631,-14.2366 -0.58405,-4.675 -1.23652,-10.525 -1.44993,-13 -0.63679,-7.385003 -1.52543,-13.314771 -2.47269,-16.5 -0.4907,-1.65 -1.09701,-4.35 -1.34735,-6 -1.57273,-10.365563 -3.12609,-17.176081 -4.18245,-18.337299 -1.01334,-1.113946 -2.19809,-1.063812 -7.09351,0.300171 -3.23235,0.900608 -8.12699,2.253559 -10.87699,3.006556 -2.75,0.752998 -6.35,1.833454 -8,2.401014 -1.65,0.567559 -8.4,2.899384 -15,5.181833 -6.6,2.282449 -14.475,4.799415 -17.5,5.593257 -15.28273,4.010602 -29.26969,8.395662 -30.5,9.562072 -0.65293,0.619014 0.25675,2.049036 2.62099,4.120229 1.99155,1.744692 5.47255,5.950403 7.73556,9.346025 2.26301,3.395622 7.94606,10.972242 12.629,16.836922 4.68295,5.86469 8.51445,11.29896 8.51445,12.07615 0,1.86144 -2.42676,1.80871 -4,-0.0869 -2.85115,-3.43543 -2.6257,-1.06587 0.49953,5.25 1.83702,3.7125 6.35465,13.5 10.03917,21.75 3.68453,8.25 6.89719,15.3375 7.13924,15.75 0.52829,0.90031 3.17926,0.86656 5.52127,-0.0703 z M 848.74252,113.75 c 5.34055,-5.74622 18.23309,-28.107722 16.94702,-29.393792 -0.30902,-0.309019 -0.15778,-1.624652 0.33609,-2.923629 1.57054,-4.130835 -0.58763,-3.507765 -3.84196,1.109183 C 859.17631,86.808335 856,88.436477 856,85.711442 c 0,-0.708707 0.90338,-3.060487 2.00751,-5.226178 2.23993,-4.393483 4.73059,-15.080496 3.74442,-16.066665 -1.04066,-1.040664 -6.19346,3.168025 -9.2126,7.524649 C 850.95517,74.229187 848.91434,76 847.864,76 c -1.0252,0 -1.86212,-0.3375 -1.85981,-0.75 0.007,-1.328906 4.974,-10.593027 6.81091,-12.704331 3.47893,-3.998602 4.06092,-5.128239 3.28711,-6.380286 -0.54172,-0.876518 -1.83515,0.28271 -4.1928,3.757753 C 848.65115,64.725643 846,66.436162 846,63.735883 846,63.040619 846.9,60.009471 848,57 c 1.1,-3.009471 2,-5.815619 2,-6.235883 0,-1.78379 -1.90845,-0.519985 -4.1211,2.72905 -2.36602,3.474248 -4.88778,4.64308 -4.86913,2.256833 0.005,-0.6875 1.13037,-3.657183 2.5,-6.599297 C 844.8794,46.20859 846,43.522677 846,43.182007 c 0,-0.34067 -2.72911,2.066513 -6.06469,5.349296 -6.66268,6.557218 -6.75708,6.977609 -3.9229,17.468697 1.4087,5.214446 1.43888,5.404574 2.88178,18.150856 0.60087,5.307971 1.36863,10.370471 1.70614,11.25 0.69601,1.813771 1.98445,2.079996 2.89967,0.599144 1.02299,-1.655227 2.3601,-1.143145 4.15067,1.589603 2.23527,3.411457 2.43579,6.505147 0.56135,8.660397 -0.8371,0.9625 -1.21569,1.75 -0.84133,1.75 0.37437,0 -0.006,1.32765 -0.84501,2.95034 -2.71886,5.2577 -1.49922,6.798 2.21684,2.79966 z M 166.63395,666.16093 c -0.20569,-0.36351 0.91752,-1.70766 2.49603,-2.98699 2.93059,-2.37515 3.30441,-2.14068 1.97874,1.24115 -0.73611,1.87785 -3.73747,3.04884 -4.47477,1.74584 z m -67.690075,-1.37871 c -2.653406,-0.97977 -2.449511,-3.63948 0.360917,-4.708 1.267638,-0.48196 16.164128,-0.83646 33.103318,-0.78778 25.31172,0.0727 30.89357,0.33614 31.33196,1.47857 0.29338,0.76454 -0.19431,2.1178 -1.08375,3.00724 -1.41527,1.41527 -5.37193,1.62406 -31.69286,1.67246 -16.54164,0.0304 -30.95045,-0.26771 -32.019585,-0.66249 z M 197.63837,664.5 c -0.31658,-0.825 -0.19482,-1.5 0.27057,-1.5 0.46539,0 1.40637,0.675 2.09106,1.5 1.01343,1.22111 0.96312,1.5 -0.27057,1.5 -0.8335,0 -1.77447,-0.675 -2.09106,-1.5 z M 596,655 c 0,-0.55 0.675,-1 1.5,-1 0.825,0 1.5,0.45 1.5,1 0,0.55 -0.675,1 -1.5,1 -0.825,0 -1.5,-0.45 -1.5,-1 z m 9.63948,0.30615 C 604.68647,654.35313 604.86691,652 605.89301,652 c 1.22681,0 2.21165,2.81728 1.2028,3.44079 -0.44927,0.27766 -1.10462,0.21707 -1.45633,-0.13464 z M 403,556.55902 C 403,555.70156 403.45,555 404,555 c 0.55,0 1,0.42344 1,0.94098 0,0.51754 -0.45,1.2191 -1,1.55902 -0.55,0.33992 -1,-0.0835 -1,-0.94098 z M 778.28098,398.66131 c -1.77046,-0.58161 -3.45827,-1.68094 -3.75068,-2.44295 -0.29241,-0.76201 -0.19385,-1.20059 0.21902,-0.9746 0.41287,0.22598 2.21318,1.03724 4.00068,1.80279 1.7875,0.76556 3.25,1.74327 3.25,2.17269 0,0.42942 -0.1125,0.71748 -0.25,0.64015 -0.1375,-0.0773 -1.69856,-0.61648 -3.46902,-1.19808 z M 756,352 c 0,-0.55 0.47656,-1 1.05902,-1 0.58246,0 0.7809,0.45 0.44098,1 -0.33992,0.55 -0.81648,1 -1.05902,1 C 756.19844,353 756,352.55 756,352 Z M 880.34508,118.45687 c -0.32569,-0.84872 -0.33097,-1.80431 -0.0118,-2.12354 1.00905,-1.00904 3.66667,0.53862 3.66667,2.13529 0,1.99604 -2.88802,1.98677 -3.65492,-0.0118 z"
     id="path12"
     inkscape:connector-curvature="0" />
</svg>
