<?xml version="1.0" encoding="utf-8"?>
<svg xmlns="http://www.w3.org/2000/svg" version="1.1" viewBox="0 0 1159 474">
	<title>A woman is handing a man a stein of beer.</title>
	<path d="m 1080.7251,452.39175 c -0.6983,-0.69833 -41.3309,-1.97553 -48.7251,-1.53158 -12.4356,0.74665 -27.8914,0.5586 -52.5,-0.63874 -30.41228,-1.47973 -36.5542,-2.02152 -38.17608,-3.36757 -0.79739,-0.66177 -1.89093,-0.62077 -3.28066,0.12299 -1.14653,0.6136 -2.41279,0.92044 -2.81393,0.68186 -0.6838,-0.4067 -11.0087,-0.98724 -44.81811,-2.51999 -7.74882,-0.3513 -15.37988,-0.41258 -16.95789,-0.13619 -1.57802,0.27639 -6.93807,0.11964 -11.91123,-0.34833 -4.97315,-0.46797 -12.4171,-0.72015 -16.5421,-0.5604 -4.125,0.15975 -8.85,0.20919 -10.5,0.10987 -21.51803,-1.29519 -52.56137,-0.46888 -73,1.94313 -19.52619,2.30432 -51.83862,1.96603 -77,-0.80616 -6.11394,-0.67361 -5.29079,-0.68068 -15,0.12885 -4.4,0.36686 -9.575,1.08379 -11.5,1.59319 -5.40343,1.42985 -16.12761,1.11922 -19.3481,-0.56043 -1.56645,-0.81699 -4.04145,-1.48106 -5.5,-1.47571 -16.64143,0.061 -47.4771,0.93872 -50.18575,1.42855 -7.28339,1.31711 -106.06393,1.26807 -119.96615,-0.0596 -7.425,-0.70907 -21.375,-1.56257 -31,-1.89667 -9.625,-0.33409 -21.1,-0.82337 -25.5,-1.08729 -4.4,-0.26392 -15.875,-0.42482 -25.5,-0.35755 -20.21806,0.14129 -17.47284,0.2222 -27,-0.79575 -11.09205,-1.18517 -28.65852,-0.78656 -30.4385,0.69069 -0.81854,0.67933 -5.05449,1.47958 -9.41321,1.77833 -7.65639,0.52478 -7.98136,0.45711 -9.58926,-1.99685 -0.91536,-1.39703 -2.70119,-2.80029 -3.9685,-3.11836 -1.26731,-0.31808 -5.47299,-3.91423 -9.34595,-7.99145 -6.33441,-6.66848 -7.30305,-8.24334 -9.64316,-15.67815 -1.43078,-4.54576 -2.60393,-8.75495 -2.607,-9.35375 -0.003,-0.5988 -0.4646,-2.74142 -1.02564,-4.76137 -0.93787,-3.37671 -1.42667,-3.75983 -6.06645,-4.75489 -4.89767,-1.05036 -5.13388,-0.99476 -8.01524,1.8866 -1.63287,1.63287 -5.65046,4.62403 -8.92797,6.64703 -3.27752,2.02299 -5.95912,3.85818 -5.95912,4.07819 0,0.22002 0.69944,3.86856 1.5543,8.10787 2.01146,9.97489 4.12501,15.55794 6.86371,18.13081 2.06556,1.9405 2.72446,2.0052 10.64194,1.04507 4.64203,-0.56293 9.56505,-1.36642 10.94005,-1.78553 4.1216,-1.2563 6.955,-0.22543 9.28982,3.37988 1.41109,2.17894 3.01094,3.41733 4.425,3.42523 1.92891,0.0108 4.28518,2.52067 4.28518,4.56457 0,0.94737 -26.26801,-0.33774 -33,-1.61446 -3.025,-0.57368 -10.0979,-1.20878 -15.71755,-1.41133 -5.61965,-0.20254 -10.59452,-0.60123 -11.05526,-0.88599 -0.79062,-0.48863 -8.96944,-0.14219 -12.22719,0.51792 -0.825,0.16717 -6.52805,-0.0608 -12.67345,-0.50652 -8.77361,-0.63639 -11.30432,-1.15151 -11.78278,-2.39835 -1.3039,-3.39791 1.1405,-3.75572 24.79095,-3.62886 l 23.22945,0.1246 -2.84595,-5.6246 c -2.55283,-5.04526 -2.79888,-6.38049 -2.38891,-12.9633 0.44348,-7.12062 0.39337,-7.32051 -1.68613,-6.72669 -12.66921,3.61782 -21.30322,3.64112 -58.14318,0.15693 -2.75,-0.26008 -11.075,-0.73796 -18.5,-1.06196 -17.25991,-0.75314 -21.00637,-1.05598 -23.66584,-1.91299 -1.19122,-0.38387 -2.41176,-0.30004 -2.71233,0.18628 -0.30056,0.48632 -1.48196,5.34213 -2.62532,10.79068 -1.14337,5.44855 -2.97061,11.56103 -4.06055,13.5833 -1.55193,2.87945 -1.70565,3.85536 -0.70883,4.5 0.70008,0.45273 6.67287,0.61128 13.27287,0.35233 6.6,-0.25896 16.5,-0.48396 22,-0.5 l 10,-0.0292 0.30338,4.16567 c 0.25264,3.469 -0.0397,4.27456 -1.74803,4.81676 -2.33158,0.74002 -18.60855,0.0492 -33.81,-1.43495 -5.64005,-0.55064 -13.74005,-0.80636 -18,-0.56825 -8.17196,0.45677 -9.94703,-0.15492 -12.08201,-4.16349 -1.79219,-3.36497 -1.4082,-5.67681 1.58666,-9.55253 2.96262,-3.83401 8.02852,-5.48729 11.35645,-3.70624 2.14151,1.1461 4.37114,-1.61172 5.30115,-6.55697 0.3103,-1.65 1.20396,-6.6 1.98592,-11 1.67289,-9.4132 5.87715,-19.13374 8.65722,-20.0161 1.07326,-0.34064 2.43092,-1.51537 3.01702,-2.61051 1.43467,-2.6807 -2.78242,-11.65855 -11.03308,-23.48857 -3.40811,-4.88665 -8.29764,-12.20083 -10.86562,-16.25373 -10.36667,-16.36113 -14.75303,-22.86472 -18.66084,-27.66811 -2.25383,-2.77036 -5.787225,-8.05786 -7.851988,-11.75 C 92.591469,304.02084 90.56661,301 90.156545,301 c -0.410065,0 -2.395761,-2.1375 -4.412656,-4.75 -6.112878,-7.91806 -8.083698,-9.83449 -30.940108,-30.08631 -3.132921,-2.77591 -6.845421,-5.80009 -8.25,-6.72041 -2.286765,-1.49834 -3.860278,-4.36877 -1.644023,-2.99905 0.500367,0.30924 1.641515,0.28146 2.535885,-0.0617 1.455187,-0.55841 1.470145,-0.86207 0.14229,-2.88863 C 46.091259,251.20965 46.391555,250 48.455286,250 c 0.617075,0 4.140065,2.67912 7.828868,5.9536 6.365669,5.65069 6.847061,5.89124 9.46138,4.72781 5.857132,-2.60656 9.868595,-5.07926 12.694304,-7.82489 1.616911,-1.57109 3.304411,-2.85652 3.75,-2.85652 0.445589,0 0.816177,-0.5625 0.823529,-1.25 0.0074,-0.6875 2.939473,-3.64553 6.515824,-6.57341 l 6.502458,-5.3234 -1.907897,-2.6766 C 91.249418,230.14418 88.91142,228.38202 84.5,226.92311 c -2.2,-0.72757 -5.475584,-2.39079 -7.279076,-3.69605 -2.415444,-1.74815 -4.027746,-2.20876 -6.121653,-1.74886 -1.563416,0.34338 -4.025332,0.32748 -5.470923,-0.0353 -2.244443,-0.56332 -2.623703,-1.19158 -2.596545,-4.30127 0.03526,-4.03702 1.319598,-6.20301 4.767166,-8.03964 2.648688,-1.41104 8.269963,-0.0556 11.701031,2.82144 1.1,0.92238 3.999729,3.00446 6.443842,4.62683 5.918623,3.92872 12.749342,10.43717 13.748955,13.10029 0.443963,1.18278 5.307203,6.80311 10.807203,12.48964 9.24179,9.5552 11.189,11.89567 13.13689,15.78997 2.50731,5.01275 7.98872,11.98331 12.78453,16.25775 3.06822,2.73465 5.57858,4.56876 5.57858,4.07578 0,-4.18693 -2.69017,-13.30345 -5.53781,-18.76671 C 134.55798,255.84369 133,251.82989 133,250.57738 c 0,-1.25252 -1.34423,-4.13296 -2.98719,-6.40099 -4.84667,-6.69064 -10.03482,-17.69438 -11.02412,-23.38148 -0.5066,-2.9122 -1.63223,-7.2746 -2.50141,-9.69423 -1.30413,-3.63043 -1.4787,-7.34704 -0.99885,-21.26514 l 0.58148,-16.86582 -3.13954,-3.90674 c -2.9015,-3.61052 -3.08683,-4.28995 -2.4444,-8.96098 0.62228,-4.52453 1.31449,-5.62765 6.60458,-10.52535 3.2502,-3.00911 5.90945,-6.06973 5.90945,-6.80137 0,-0.73165 0.61988,-2.2179 1.37751,-3.30277 C 125.71848,137.5523 132,120.44104 132,118.70833 c 0,-0.47698 -1.2375,-0.62053 -2.75,-0.319 -1.5125,0.30154 -4.775,0.82152 -7.25,1.15552 -2.475,0.33401 -7.425,1.20551 -11,1.93667 -3.575,0.73117 -10.775,1.8531 -16,2.4932 -5.225,0.64009 -12.511199,1.58263 -16.191553,2.09454 -9.799923,1.36309 -16.046532,1.15271 -18.585941,-0.62596 -4.721297,-3.30693 -2.525752,-6.33114 10.277589,-14.15669 10.049019,-6.14208 15.431517,-8.98689 27.999905,-14.798791 5.5,-2.54332 10.45,-5.156029 11,-5.806019 1.49833,-1.770726 19.62479,-10.537654 22.5,-10.882209 2.36967,-0.283972 2.50427,-0.638455 2.58195,-6.799591 0.13959,-11.071859 1.8092,-12.883347 19.01786,-20.634024 3.90489,-1.758741 11.77989,-4.400278 17.5,-5.870082 5.7201,-1.469803 12.30779,-3.532663 14.63929,-4.584132 2.33151,-1.051469 4.58151,-1.913394 5,-1.915389 0.4185,-0.002 4.3609,-1.355171 8.7609,-3.007057 16.46623,-6.181897 44.50923,-10.789622 52.82312,-8.67933 3.2151,0.816078 4.23273,1.713142 5.72534,5.046993 0.99839,2.229981 1.59437,4.411925 1.32438,4.848765 -0.81714,1.322168 1.53597,0.894802 4.92682,-0.894796 2.67471,-1.411638 11.67705,-3.210838 29.20034,-5.835951 1.65,-0.247181 9.525,-0.686531 17.5,-0.976333 7.975,-0.289801 16.41977,-0.737943 18.76616,-0.995872 6.06788,-0.667017 18.74734,2.841966 22.48201,6.221799 C 354.13297,37.43031 354.64171,41 353,41 c -0.55,0 -1,0.45 -1,1 0,0.55 1.125,1 2.5,1 1.82362,0 2.5,0.53487 2.5,1.976947 0,2.513299 -2.5433,4.142612 -12.5,8.007883 -8.30116,3.222577 -9.65557,3.836926 -15.5,7.030658 -1.925,1.051931 -5.975,2.697852 -9,3.657602 -3.025,0.95975 -7.87264,3.000929 -10.77254,4.535955 C 306.32756,69.74407 303.47799,71 302.89507,71 c -0.58291,0 -4.08814,1.329129 -7.78939,2.953619 -3.70126,1.62449 -8.85347,3.429597 -11.44936,4.011349 C 278.76768,79.060535 275,80.921489 275,82.240547 275,82.658246 275.6199,83 276.37756,83 c 0.75765,0 1.96238,0.704671 2.67716,1.565937 3.23645,3.899685 6.84439,4.734238 14.67571,3.394647 8.52511,-1.458267 9.93575,-0.792521 10.89908,5.143775 0.49865,3.072812 0.0393,4.047666 -4.05033,8.596351 l -4.61276,5.1305 1.59379,4.69439 c 0.87659,2.58192 1.74611,6.3324 1.93227,8.3344 0.18616,2.002 1.04354,7.465 1.90529,12.14 2.6861,14.57218 2.20363,21.16411 -2.12251,29 -3.3996,6.15764 -4.15851,6.95671 -6.63114,6.982 -3.45487,0.0353 -7.01409,0.61695 -8.89412,1.45339 -0.9625,0.42822 -2.37017,0.54061 -3.12814,0.24974 -0.75798,-0.29086 -1.77555,-0.13144 -2.26125,0.35426 -0.5108,0.5108 -1.93232,0.34434 -3.37186,-0.39484 -2.0393,-1.04716 -2.87328,-1.03368 -4.61799,0.0746 -1.82625,1.16011 -2.21311,1.13403 -2.71862,-0.1833 -0.70686,-1.84205 -2.65307,-2.05202 -2.64988,-0.28589 0.001,0.6875 4.04939,3.25222 8.99589,5.69938 4.9465,2.44716 9.16938,5.14716 9.38419,6 0.80986,3.21545 -0.12097,7.43636 -2.13975,9.70281 -2.61316,2.93374 -1.77392,2.90933 8.75741,-0.2547 4.675,-1.40456 11.11149,-2.9656 14.30332,-3.46897 3.19182,-0.50337 6.73395,-1.41328 7.87139,-2.02202 3.39349,-1.81614 21.80523,-5.15893 29.32529,-5.32422 3.85,-0.0846 7.52245,-0.47706 8.16099,-0.87208 0.63855,-0.39502 3.78855,-0.93751 7,-1.20554 16.94258,-1.41402 16.28403,-1.175 22.83901,-8.28956 3.3,-3.58171 6.75614,-7.64604 7.68031,-9.03183 0.92417,-1.38579 3.56138,-4.00817 5.86047,-5.8275 3.47248,-2.74787 4.52133,-3.1253 6.19534,-2.2294 1.7615,0.94272 1.93601,1.72646 1.38637,6.22606 -0.34584,2.83116 -0.90487,6.16007 -1.24228,7.39757 -0.4245,1.55691 -0.18062,2.25 0.79172,2.25 1.73339,0 7.39135,-2.84078 11.53611,-5.7921 3.64955,-2.59871 4.62742,-2.71355 6.26853,-0.73614 0.98322,1.18472 0.79616,2.1599 -0.95912,5 -2.39777,3.87968 -1.89668,4.22185 3.10371,2.11934 3.32248,-1.397 6.87884,-0.68077 6.87884,1.38536 0,0.49835 -2.44849,2.81838 -5.44109,5.15563 -5.25815,4.10667 -6.34353,6.56786 -2.44705,5.54891 2.33316,-0.61014 3.46856,0.88229 1.30334,1.71317 -0.86532,0.33205 -4.46274,0.88441 -7.99426,1.22746 -7.72066,0.74997 -8.70968,-0.967 -2.5509,-4.42843 3.98421,-2.23925 7.0856,-5.1932 5.4524,-5.1932 -0.50734,0 -1.34994,0.37594 -1.87244,0.83543 -0.5225,0.45948 -3.09309,2.05673 -5.71242,3.54943 -6.56159,3.73931 -7.17279,1.47081 -1.26495,-4.69495 6.61961,-6.90861 5.95746,-8.43814 -1.80568,-4.17099 -3.48317,1.91459 -7.36742,3.48108 -8.63167,3.48108 -2.14445,0 -2.25293,-0.28504 -1.61738,-4.25 0.37468,-2.3375 0.87515,-5.4875 1.11214,-7 0.58724,-3.74776 -1.38751,-3.54183 -4.79481,0.5 -6.4336,7.63172 -9.52777,11.45988 -11.92192,14.75 l -2.54688,3.5 2.11679,6.57826 c 3.68268,11.44456 3.57841,11.37139 16.22257,11.38307 10.19766,0.009 24.88061,-1.6144 26.15922,-2.89301 1.1551,-1.1551 -0.8901,-1.88493 -6.91895,-2.46902 -3.40224,-0.32961 -6.35249,-1.10349 -6.55611,-1.71972 -0.52925,-1.60167 12.4996,-6.99003 13.78751,-5.70212 0.67641,0.67641 0.50064,1.4278 -0.53508,2.28737 -2.6701,2.21599 -1.70542,3.03517 3.57425,3.03517 4.81813,0 5.08146,0.13126 4.51366,2.25 -0.33164,1.2375 -0.60913,2.55557 -0.61664,2.92904 -0.0184,0.91595 -10.18248,3.82096 -13.36877,3.82096 -1.40101,0 -5.1247,0.67133 -8.27485,1.49184 -3.15015,0.82051 -8.6088,1.55431 -12.13032,1.63067 -4.95168,0.10737 -6.51396,0.50584 -6.89339,1.75817 -1.12048,3.69819 -2.20854,4.61973 -5.46766,4.63086 -1.85826,0.006 -4.0255,0.42252 -4.81608,0.92485 -1.9944,1.2672 -12.07567,3.75059 -14.84668,3.65728 -1.25626,-0.0423 -3.95626,0.99879 -6,2.31354 -2.04375,1.31474 -5.2909,2.8461 -7.2159,3.40301 -8.60063,2.4882 -14.79725,4.62202 -18.5,6.37049 -2.2,1.03886 -7.11898,2.54097 -10.93107,3.33802 -3.81208,0.79705 -7.26735,1.99331 -7.67838,2.65836 -0.8149,1.31853 13.66478,15.71751 15.87302,15.78455 0.69496,0.0211 2.1131,0.5689 3.15141,1.21734 1.52907,0.95492 3.5227,0.64717 10.4902,-1.61932 6.31152,-2.05311 8.94859,-2.51095 9.90255,-1.71923 0.98444,0.81701 3.40696,-0.50208 9.97523,-5.43164 4.77126,-3.5809 9.24698,-7.28772 9.94603,-8.23738 2.41741,-3.28405 7.05198,-6.17141 9.90587,-6.17141 2.65046,0 2.86248,0.28098 2.8297,3.75 -0.0195,2.0625 -0.67854,4.875 -1.46456,6.25 -0.78602,1.375 -1.44508,2.8463 -1.46456,3.26956 -0.0492,1.06859 3.74515,0.27511 12.98025,-2.71447 C 403.38007,233.52366 405,233.4117 405,235.79591 c 0,1.11933 -1.97786,2.9248 -5.25,4.79239 -7.19044,4.104 -6.96231,5.90708 0.75,5.92789 3.3,0.009 6.5625,0.37296 7.25,0.80901 1.92065,1.2182 1.4854,4.0467 -0.84684,5.5032 -1.99285,1.24456 -2.008,1.37445 -0.30555,2.61932 1.71512,1.25412 1.71609,1.42457 0.0228,4.00888 -0.97267,1.48449 -3.08517,3.15806 -4.69444,3.71906 -1.60927,0.56099 -2.92595,1.33597 -2.92595,1.72217 0,1.32773 2.40239,3.10217 4.2,3.10217 1.22742,0 1.8,0.75452 1.8,2.37196 0,2.35786 -0.0906,2.37662 -15.25,3.15841 -8.3875,0.43256 -17.61277,0.86199 -20.50059,0.95429 -3.85572,0.12324 -5.8653,0.74531 -7.56446,2.34158 -1.27262,1.19557 -2.79559,2.17376 -3.38439,2.17376 -0.5888,0 -1.73654,1.01644 -2.55054,2.25877 -0.814,1.24232 -2.77825,2.9246 -4.36501,3.73841 C 346.21134,287.65062 329,299.17105 329,299.98062 c 0,0.43391 2.43244,1.09285 5.40543,1.4643 2.97299,0.37145 7.81049,1.61027 10.75,2.75294 2.93951,1.14267 6.91957,2.42678 8.84457,2.85357 6.47504,1.43557 18.47131,6.0164 22,8.40079 1.925,1.30075 5.96765,4.65613 8.98367,7.45639 3.01602,2.80027 5.85994,5.09139 6.31983,5.09139 2.1911,0 24.06807,16.8814 28.20917,21.76765 2.97078,3.50534 11.27435,3.52705 18.56525,0.0485 2.98214,-1.42279 6.64508,-2.86842 8.13985,-3.21251 1.49478,-0.34408 5.54478,-2.58455 9,-4.97882 9.07716,-6.28994 10.23318,-6.78411 13.21676,-5.64975 3.39618,1.29122 3.43194,6.05416 0.0865,11.52489 -1.34532,2.2 -2.86548,4.9 -3.37813,6 -0.51264,1.1 -4.64736,6.05 -9.18825,11 C 448.43212,372.70029 441,384.70446 441,388.6544 c 0,2.51597 -4.08182,2.51911 -8.79842,0.007 -14.68885,-7.82418 -17.33085,-8.75507 -23.98971,-8.45262 l -6.41689,0.29146 2.5454,2.7399 c 2.35473,2.53465 2.52313,3.34176 2.24799,10.77414 l -0.29741,8.03425 3.53179,3.10095 c 4.72679,4.15017 9.8296,6.16073 14.16138,5.57971 3.47119,-0.46558 9.89977,-4.17444 13.07884,-7.54561 0.87308,-0.92584 2.84367,-2.58334 4.3791,-3.68334 5.32254,-3.81314 10.82358,-8.568 12.75857,-11.02794 2.13359,-2.71242 5.33337,-3.14174 8.04936,-1.08001 2.61345,1.98389 2.15627,4.8141 -2.08654,12.91703 -3.62196,6.91721 -6.36287,10.76379 -20.38669,28.61062 -5.2375,6.66529 -6.64636,9.86422 -4.15177,9.42691 0.48125,-0.0844 4.01743,-0.39664 7.85819,-0.69395 5.53712,-0.42863 7.34809,-0.21034 8.74536,1.05418 1.51345,1.36965 5.11506,1.58537 25.51682,1.52833 13.06504,-0.0365 26.22963,-0.3418 29.25463,-0.67838 3.025,-0.33659 21.59177,-0.64943 41.25948,-0.69521 19.66771,-0.0458 35.9372,-0.37087 36.15441,-0.72241 0.2172,-0.35154 7.07544,-0.4835 15.24052,-0.29324 8.16507,0.19027 18.78457,0.27055 23.59889,0.17841 6.18315,-0.11834 9.66494,0.28726 11.85815,1.38137 2.38399,1.18929 3.58323,1.29288 5.16534,0.44616 1.13327,-0.60651 4.34711,-1.27846 7.14185,-1.49322 2.79475,-0.21476 9.17655,-0.73001 14.18178,-1.14502 5.00523,-0.415 10.63023,-0.4245 12.5,-0.0211 1.86977,0.40339 10.82458,0.82236 19.89958,0.93104 9.075,0.10868 17.55507,0.58038 18.84459,1.04823 1.28953,0.46784 5.56453,0.84814 9.5,0.8451 12.596,-0.01 41.98745,-0.95409 47.15541,-1.51511 2.75,-0.29854 11.14751,-0.72133 18.66113,-0.93955 7.51363,-0.21821 14.48863,-0.82318 15.5,-1.34437 1.01138,-0.52119 2.37086,-0.75609 3.02108,-0.52201 3.248,1.16932 13.28474,-7.71097 17.73985,-15.69586 5.589,-10.01712 7.09709,-14.85523 8.72794,-28 2.26218,-18.23342 2.26313,-17.70853 -0.0342,-18.93804 -1.1637,-0.62302 -2.1158,-2.01319 -2.1158,-3.08951 0,-1.25784 -1.29204,-2.58495 -3.61664,-3.71482 -2.6817,-1.30344 -3.96682,-2.79192 -4.9712,-5.75787 -1.55479,-4.59127 -0.78577,-7.79071 3.77619,-15.71068 4.96422,-8.61833 7.04357,-22.54312 4.76465,-31.90755 -0.74255,-3.05129 -1.27205,-10.57815 -1.22277,-17.38177 0.0478,-6.6 -0.26606,-12.45 -0.6975,-13 -1.99303,-2.54074 -11.97552,-22.9442 -13.54701,-27.68907 -0.96743,-2.92101 -2.11247,-6.21093 -2.54454,-7.31093 -1.62924,-4.14783 -2.1546,-8.22943 -2.00282,-15.56011 C 811.11973,223.17988 809.89389,219 807.14344,219 c -1.74284,0 -7.11327,-5.75836 -7.16568,-7.68328 -0.0122,-0.4492 -0.85882,-1.90499 -1.88131,-3.23511 -1.69379,-2.20336 -6.25716,-3.48025 -8.37716,-2.34404 -1.10098,0.59007 -39.08125,0.30285 -47.90237,-0.36225 -4.0243,-0.30343 -8.62356,-1.18701 -10.22056,-1.96351 -1.597,-0.77649 -3.98908,-1.41181 -5.31574,-1.41181 -1.32666,0 -3.23527,-0.44054 -4.24136,-0.97899 -2.12704,-1.13836 -3.2735,-0.0635 -4.72049,4.4255 -0.58148,1.80393 -2.86324,4.26552 -5.88427,6.34803 -4.65577,3.2094 -5.32425,3.37955 -11.83444,3.01234 -6.59929,-0.37224 -7.04977,-0.5617 -10.33855,-4.34804 -2.87713,-3.31243 -3.3623,-4.5394 -2.97129,-7.5144 0.27216,-2.07074 -0.0798,-4.30376 -0.84277,-5.3472 -0.72055,-0.9854 -1.0818,-2.38654 -0.80278,-3.11365 0.27902,-0.72711 -0.15772,-2.37087 -0.97052,-3.6528 -0.81281,-1.28194 -1.77678,-3.76608 -2.14216,-5.52032 -0.65311,-3.13561 -0.75438,-3.18633 -5.98982,-3 -4.0201,0.14307 -5.84227,-0.27742 -7.43382,-1.71546 -4.46807,-4.0371 -1.41434,-10.23091 4.56568,-9.26048 4.75449,0.77154 4.29443,-1.30002 -1.30827,-5.89102 -9.91093,-8.12126 -12.92011,-17.25439 -7.72081,-23.4334 2.34647,-2.78863 3.15761,-3.11181 7.18801,-2.86396 4.21901,0.25944 4.59603,0.0813 5.28567,-2.49732 1.00321,-3.75116 2.29438,-5.14094 7.1063,-7.64905 6.39344,-3.33245 12.7163,-3.69073 18.20889,-1.03181 2.53005,1.22477 5.09868,3.19552 5.70809,4.37944 0.60941,1.18393 1.98773,3.11986 3.06294,4.30208 1.07521,1.18221 1.84199,2.98221 1.70397,4 -0.13803,1.01778 0.26181,3.65051 0.88852,5.85051 0.62671,2.2 1.40347,5.8 1.72614,8 0.32267,2.2 1.06421,5.51529 1.64786,7.3673 0.58365,1.85202 1.03751,5.08318 1.00857,7.18037 -0.0721,5.2217 1.63042,6.31704 9.63,6.19573 4.78253,-0.0725 7.18308,0.34527 8.42103,1.46559 1.33986,1.21256 2.04889,1.30366 3.13443,0.40275 0.77158,-0.64036 4.26752,-1.43386 7.76875,-1.76334 3.50124,-0.32948 8.61588,-1.44243 11.36588,-2.47322 2.89102,-1.08365 7.5835,-1.87438 11.125,-1.87468 6.83951,-5.6e-4 12.375,-0.88033 12.375,-1.96678 0,-0.39396 -4.8375,-5.11979 -10.75,-10.50186 -10.02305,-9.12383 -14.06925,-13.57663 -28.25,-31.08881 -3.025,-3.73565 -8.09413,-9.52606 -11.26473,-12.86757 -3.56799,-3.76031 -5.66386,-6.80059 -5.5,-7.97832 0.38998,-2.80312 -4.81257,-5.28938 -12.63568,-6.0385 -3.67578,-0.35198 -7.75901,-1.048974 -9.07386,-1.548878 -1.36289,-0.518169 -3.66589,-0.543177 -5.357,-0.05817 C 694.72866,99.938207 693,98.736675 693,95.359017 c 0,-1.232541 -0.3375,-2.449196 -0.75,-2.703678 -0.4125,-0.254482 -5.33621,0.452194 -10.94158,1.570391 C 670.41017,96.399786 668,96.197532 668,93.108932 c 0,-3.978786 17.53594,-16.902116 28,-20.634955 6.84301,-2.441102 15.66282,-2.040124 22.59911,1.027434 3.20527,1.417525 7.41922,2.825035 9.36433,3.127798 1.94511,0.302764 5.04744,1.74755 6.89408,3.210636 1.84664,1.463085 5.04686,3.785155 7.1116,5.160155 4.69827,3.128775 19.46987,16.71196 30.86153,28.37865 11.69942,11.98186 21.05348,19.39412 30.82205,24.42372 4.48398,2.3087 8.65718,4.19763 9.27379,4.19763 0.6166,0 -1.40087,-3.35073 -4.48327,-7.44607 -3.08239,-4.09533 -5.70032,-8.09994 -5.81762,-8.89911 -0.11729,-0.79918 -0.69104,-2.06095 -1.275,-2.80394 -2.13759,-2.71972 -2.18335,-5.79379 -0.12519,-8.41031 1.11757,-1.42077 1.63654,-2.92274 1.15327,-3.33772 -0.84467,-0.72531 -11.00285,-5.19709 -14.63733,-6.44357 -0.96726,-0.33173 -2.30108,-1.79364 -2.96404,-3.24869 -1.06817,-2.344371 -0.94073,-2.859839 1.11943,-4.528063 C 787.27927,95.763028 789.79213,95 792.09643,95 c 4.49204,0 10.94506,-1.372056 19.3274,-4.109438 5.97127,-1.950012 11.03452,-5.519336 19.88298,-14.016476 2.64944,-2.544253 6.39252,-5.469253 8.31794,-6.5 5.51536,-2.952573 6.755,-4.89957 6.98896,-10.976925 0.46966,-12.200278 4.39808,-19.832836 11.79951,-22.925347 6.12816,-2.560511 19.88294,0.180018 30.83678,6.143984 1.5125,0.823501 2.75,1.155506 2.75,0.73779 0,-0.417716 1.7471,0.946512 3.88244,3.031617 3.4742,3.39247 4.47904,3.814784 9.55632,4.016333 3.12063,0.123878 5.88093,-0.109792 6.134,-0.519266 0.25307,-0.409474 5.18221,-3.277395 10.95364,-6.373157 15.80049,-8.475281 19.85567,-7.379468 20.95994,5.663915 0.24805,2.929833 0.96627,8.02697 1.59605,11.32697 0.62979,3.3 1.4754,8.475 1.87913,11.5 0.40373,3.025 1.44414,7.093069 2.31201,9.040153 2.09597,4.702327 2.61302,16.186691 0.82573,18.340248 -0.73928,0.890779 -2.07655,1.621279 -2.9717,1.623339 -0.89516,0.002 -3.10094,0.90205 -4.90173,2 C 940.42504,104.10168 937.85949,105 936.52462,105 930.3295,105 918,109.59706 918,111.90692 c 0,0.47344 2.9235,2.31458 6.49666,4.09142 5.52382,2.74684 7.73481,3.2663 14.76498,3.46892 5.3672,0.1547 9.40472,0.82597 11.50709,1.91315 2.41911,1.25096 4.06033,1.45275 6.48502,0.79732 3.84997,-1.0407 8.71979,1.02335 12.93081,5.48069 2.93759,3.10942 6.27669,11.69719 5.41809,13.93468 -0.81215,2.11642 -4.37652,1.69475 -5.10613,-0.60407 -0.70978,-2.23632 -2.76152,-3.43619 -12.99652,-7.60042 -5.79144,-2.35632 -8.55386,-2.86462 -16,-2.94408 -4.95,-0.0528 -11.025,-0.44358 -13.5,-0.86835 -4.32779,-0.74276 -4.43308,-0.70301 -2.75123,1.03881 1.7986,1.86273 7.38939,2.86117 21.75123,3.88451 11.76355,0.83819 19.66711,5.79987 18.8118,11.80964 -0.34248,2.40644 -4.07892,3.54085 -6.11684,1.85711 -0.65723,-0.543 -2.88743,-1.30356 -4.95601,-1.69013 -2.06857,-0.38656 -4.00763,-1.10183 -4.30901,-1.58948 -0.62714,-1.01473 -7.7412,-1.01928 -11.36471,-0.007 -1.33913,0.374 -5.69098,0.36897 -9.67078,-0.0112 -7.15619,-0.68355 -9.98475,-1.95773 -16.14051,-7.27082 -1.23533,-1.06622 -2.5134,-1.67124 -2.84016,-1.34448 -0.32677,0.32676 -0.83853,5.02966 -1.13725,10.4509 l -0.54314,9.85678 4.1436,8.6817 c 2.27898,4.77494 4.59174,9.86039 5.13946,11.301 1.33104,3.50091 3.19963,2.67032 4.76892,-2.1198 1.5566,-4.75138 3.94332,-6.89353 5.88507,-5.28202 0.73399,0.60916 2.61801,0.85086 4.18672,0.53712 1.77194,-0.35439 3.68101,0.0101 5.04048,0.96229 1.76814,1.23845 2.47765,1.29256 3.69551,0.28184 1.22382,-1.01569 1.81428,-0.94385 3.1402,0.38207 1.51062,1.51063 1.48813,1.79605 -0.30019,3.80958 l -1.93316,2.1766 3,-0.64907 c 1.65,-0.35699 7.09063,-0.93428 12.09029,-1.28287 8.04374,-0.56083 9.16661,-0.4349 9.75324,1.09384 1.13997,2.97071 -0.27282,3.59844 -7.16444,3.18331 C 952.39584,179.16733 945,179.89807 945,181.13592 c 0,0.47525 1.2375,0.86431 2.75,0.86458 1.5125,2.8e-4 5.11733,0.90028 8.01073,2 2.8934,1.09973 6.3809,1.9995 7.75,1.9995 1.3691,0 2.48927,0.36 2.48927,0.8 0,1.69505 -2.52608,3.2 -5.37126,3.2 -1.63419,0 -3.71432,0.67246 -4.62251,1.49437 -1.46963,1.32999 -2.30325,1.27677 -7.57874,-0.48385 -3.26012,-1.08801 -10.6412,-2.34576 -16.4024,-2.79499 l -10.47491,-0.81679 -7.39282,6.85472 c -4.06605,3.77009 -8.46484,7.55713 -9.77509,8.41564 -3.04402,1.99452 -3.00708,3.0891 0.15287,4.52886 1.39432,0.6353 4.30812,3.88815 6.4751,7.22856 5.86214,9.03652 7.00539,10.57348 7.865,10.57348 1.20673,0 10.47652,-6.25649 11.81364,-7.97341 1.57895,-2.02745 0.25905,-3.19475 -6.18888,-5.47335 -5.09731,-1.80131 -8.5,-4.66919 -8.5,-7.16402 0,-0.76407 0.675,-1.38922 1.5,-1.38922 0.825,0 1.5,0.40555 1.5,0.90122 0,1.81999 13.89097,8.47791 16.69106,8 2.41129,-0.41155 3.30894,0.38662 3.30894,2.94224 0,2.17315 1.11976,3.77128 4.75,6.77924 2.6125,2.16467 5.875,4.65186 7.25,5.52708 1.375,0.87523 3.74631,2.84474 5.26957,4.3767 l 2.76957,2.78538 2.33034,-2.18924 c 2.05141,-1.9272 2.48058,-2.00821 3.58554,-0.67682 0.96205,1.15921 0.99448,2.26032 0.13883,4.71484 -1.03686,2.97433 -0.79519,3.68113 3.39309,9.92366 2.4802,3.69668 5.84145,9.68999 7.46944,13.31847 2.84789,6.34743 4.22232,7.73514 5.54362,5.59723 0.78401,-1.26855 4.5,-1.31575 4.5,-0.0572 0,0.51856 -0.95458,2.56073 -2.12129,4.53815 -2.00842,3.40403 -2.03939,3.8194 -0.58197,7.80716 3.01312,8.24442 4.71995,17.52895 5.02848,27.35299 0.17211,5.4804 0.64591,10.50313 1.05287,11.16161 1.21613,1.96773 3.59022,1.36091 4.76525,-1.218 0.60525,-1.32838 2.0013,-2.65082 3.10234,-2.93875 1.51221,-0.39545 1.86298,-1.08884 1.43401,-2.83475 -0.31233,-1.27119 -0.87646,-4.6772 -1.25363,-7.56892 -0.56674,-4.3452 -1.14048,-5.47561 -3.30591,-6.51347 -1.96166,-0.9402 -2.62015,-2.00638 -2.62015,-4.24233 0,-2.5232 0.43164,-3.0361 2.78227,-3.30607 2.62688,-0.30169 2.7444,-0.52508 2.10433,-4 -0.37287,-2.02425 -1.52491,-6.60546 -2.5601,-10.18046 -2.78293,-9.61078 -4.38843,-15.82018 -5.73988,-22.19947 -0.66409,-3.13471 -2.19696,-7.18471 -3.40638,-9 -1.20942,-1.81529 -2.77177,-4.59109 -3.47188,-6.16845 -3.14672,-7.08954 -17.71895,-23.49409 -20.95836,-23.59366 -0.6875,-0.0211 -1.25,-0.38489 -1.25,-0.80836 0,-1.34232 -13.54547,-9.18893 -18.36836,-10.6404 L 936,199.19574 v 2.84311 c 0,3.30135 -1.21128,4.34626 -4.00895,3.45831 -2.41517,-0.76655 -2.56878,-3.2013 -0.35621,-5.64616 1.54294,-1.70493 1.36965,-1.92015 -3.0829,-3.82874 C 925.95717,194.91002 923.4215,194 922.91709,194 922.41269,194 922,193.3109 922,192.46867 c 0,-2.77448 8.52259,-1.32805 16.46113,2.79374 1.07862,0.56003 3.16446,1.12064 4.63521,1.24579 2.93307,0.24958 13.04547,6.02684 19.52856,11.15675 2.26869,1.79516 5.29119,3.79533 6.71665,4.44481 1.42547,0.64949 4.73185,3.92799 7.34751,7.28556 2.61565,3.35757 5.25926,6.55468 5.87466,7.10468 1.61482,1.44318 6.43628,10.13233 6.43628,11.59933 0,0.68375 0.60988,1.95362 1.35528,2.82193 1.33841,1.55909 3.37832,7.31572 5.69762,16.07874 2.26704,8.56551 6.2182,20.5052 7.1941,21.73926 1.0871,1.37455 1.3168,23.47818 0.4289,41.26074 -0.3159,6.325 -0.8412,17.67807 -1.1674,25.22904 -0.6114,14.15411 -1.4984,17.7172 -5.73984,23.05699 -1.82928,2.30298 -1.99996,3.08322 -0.98445,4.5 0.67569,0.94269 1.52393,2.38897 1.88498,3.21397 0.36106,0.825 2.08884,3.75 3.83951,6.5 5.2753,8.28657 7.9074,12.80828 9.602,16.49539 0.8859,1.92754 4.5984,6.49084 8.25,10.14068 5.9393,5.93636 6.6393,7.05147 6.6393,10.57569 0,4.20823 -2.4883,7.44898 -6.6988,8.72446 -1.2094,0.36635 -2.4691,1.51754 -2.7994,2.55821 -0.7661,2.41366 -9.1273,13.21651 -11.0715,14.30453 -2.6698,1.49406 -0.5662,2.43654 5.7573,2.57948 6.3034,0.14249 7.2902,-1.40002 1.3124,-2.05149 -1.787,-0.19475 -3,-0.9069 -3,-1.76129 0,-1.11637 1.3301,-1.3746 6,-1.16483 3.3,0.14823 7.35,0.49219 9,0.76435 1.65,0.27215 12.225,0.61546 23.5,0.7629 11.275,0.14745 23.9598,0.80654 28.1884,1.46465 7.9199,1.2326 48.6625,0.93549 50.7753,-0.37028 0.5906,-0.36505 3.2444,-0.84408 5.8972,-1.06451 3.8156,-0.31706 5.2742,0.0192 6.9812,1.60959 2.4377,2.27108 2.7456,4.20721 0.9079,5.70927 -0.81,0.66208 -10.0492,0.86524 -26.25,0.57721 -27.5944,-0.49061 -31.5013,-0.47124 -32.5246,0.16118 -0.383,0.23674 -0.9457,0.18119 -1.2503,-0.12344 z m -91.89803,-6.26371 c 1.98317,-1.25729 -4.6952,-2.10035 -11.26593,-1.42219 -3.03024,0.31274 -5.26959,0.95687 -4.97632,1.43139 0.68514,1.10859 14.49146,1.10076 16.24225,-0.009 z M 172.75,442.31067 c -0.9625,-0.25152 -2.5375,-0.25152 -3.5,0 -0.9625,0.25153 -0.175,0.45733 1.75,0.45733 1.925,0 2.7125,-0.2058 1.75,-0.45733 z m 813.02102,-0.37456 c 7.10683,0.10132 8.3512,-0.13221 8.84068,-1.6591 0.31331,-0.97735 0.97783,-2.67701 1.47671,-3.77701 1.40552,-3.09907 0.34263,-16.36899 -1.88535,-23.53814 -2.72827,-8.77896 -5.91063,-14.4409 -10.87188,-19.34286 -16.67278,-16.47353 -16.99919,-16.74043 -19.65725,-16.0733 -1.41276,0.35458 -3.34579,1.83075 -4.29562,3.28036 -2.49645,3.81007 -5.54409,6.10254 -8.16349,6.14067 -1.25685,0.0183 -3.48701,0.82077 -4.95592,1.78327 -2.5525,1.67253 -4.85694,2.0139 -17.2589,2.55661 -3.025,0.13237 -6.92115,0.83 -8.65811,1.55029 -2.72995,1.13206 -3.50553,1.08199 -5.72058,-0.36937 -2.43638,-1.59638 -2.69284,-1.57642 -5.21248,0.40553 -2.68118,2.10901 -6.35852,2.05159 -9.1461,-0.14282 -0.68049,-0.5357 -1.92332,-0.71072 -2.76184,-0.38895 -0.83853,0.32177 -2.65646,0.0693 -4.03987,-0.561 -1.90304,-0.86709 -2.80075,-0.86056 -3.68815,0.0268 -1.59168,1.59168 -4.68949,1.4648 -8.13718,-0.33329 -1.57537,-0.82157 -4.81131,-1.4938 -7.19098,-1.4938 -2.37967,0 -4.57868,-0.40775 -4.88669,-0.90612 -0.30801,-0.49837 -1.43859,-0.67637 -2.51242,-0.39555 -2.60266,0.68061 -7.92964,-1.75761 -8.62473,-3.94764 C 858.0643,383.62724 856.85284,383 855.03955,383 h -2.82567 l -0.13743,8.25 c -0.0756,4.5375 -0.57447,10.95 -1.10862,14.25 -0.53415,3.3 -1.2606,8.85689 -1.61434,12.34864 -0.60461,5.96826 -0.88312,6.52248 -4.64836,9.25 -2.20286,1.59575 -5.20925,2.90136 -6.68085,2.90136 -1.59625,0 -3.65367,1.05135 -5.09997,2.6061 -1.33337,1.43335 -3.43681,2.99722 -4.67431,3.47525 -1.2375,0.47803 -2.25,1.21779 -2.25001,1.6439 -10e-6,0.42611 11.36249,0.8076 25.25,0.84776 23.8115,0.0688 52.04025,0.84331 75.75001,2.07822 5.775,0.30079 18.57563,0.74045 28.44585,0.97702 9.87022,0.23657 18.17172,0.65599 18.44777,0.93204 0.27605,0.27605 1.20042,0.22201 2.05415,-0.12009 0.85372,-0.3421 5.27419,-0.56894 9.82325,-0.50409 z m 18.57498,-2.34524 c 1.8209,-1.87502 4.9875,-6.60002 7.0369,-10.5 3.4883,-6.63824 5.6435,-8.47516 7.1272,-6.07456 0.977,1.58078 2.4899,0.11479 2.4899,-2.41264 0,-2.54974 -8.3938,-11.09634 -9.9521,-10.13325 -0.5209,0.32191 -0.7242,2.71026 -0.4518,5.30744 0.6305,6.01227 -1.1348,9.53616 -5.1231,10.2263 -2.5779,0.44609 -3.0531,1.04486 -3.5756,4.50515 -0.3314,2.19488 -1.1189,5.25748 -1.75,6.80579 -2.61307,6.411 -0.78138,7.40383 4.1986,2.27577 z M 410,436.56196 c 0,-0.85908 -0.3375,-1.56481 -0.75,-1.56828 -0.4125,-0.003 -1.5273,-1.37218 -2.47734,-3.04156 -0.95004,-1.66938 -3.24091,-3.66765 -5.09082,-4.44059 -1.84991,-0.77294 -4.54487,-2.95424 -5.9888,-4.84733 -2.56519,-3.36313 -2.79218,-3.44241 -9.90918,-3.46101 -4.00612,-0.0105 -8.41708,-0.45968 -9.80212,-0.99825 -1.38505,-0.53857 -5.43505,-1.02805 -9,-1.08772 -5.43485,-0.091 -7.73015,-0.74173 -14.21123,-4.0291 -4.25121,-2.15633 -9.69756,-5.53329 -12.10299,-7.50436 -2.40543,-1.97107 -5.22716,-3.59807 -6.27051,-3.61556 -1.04336,-0.0175 -2.74667,-0.67506 -3.78515,-1.46126 -1.29109,-0.97744 -2.43668,-1.13588 -3.62285,-0.50106 -3.69445,1.97721 -30.64855,3.18253 -38.73901,1.7323 -3.85926,-0.69177 -4.25,-0.57439 -4.25,1.27673 0,1.12119 1.23003,5.68247 2.73339,10.13617 3.0632,9.07467 7.83077,15.3619 14.61551,19.27417 4.06024,2.34124 4.58888,2.38657 24.1511,2.07091 12.53537,-0.20227 23.91893,0.16857 30.5,0.99361 5.775,0.72398 11.85,1.1235 13.5,0.88782 1.65,-0.23569 6.6,-0.0796 11,0.34695 4.4,0.4265 12.8375,0.91584 18.75,1.08742 9.21157,0.26732 10.75,0.0884 10.75,-1.25 z M 427.69609,435.25 c 0.34832,-0.9625 2.3592,-3.65245 4.46861,-5.97766 2.10942,-2.32521 3.8353,-4.61167 3.8353,-5.08102 0,-0.46935 1.07547,-1.42893 2.38993,-2.13241 1.31446,-0.70348 2.98738,-2.3954 3.71759,-3.75982 0.73022,-1.36442 2.74603,-3.98466 4.47957,-5.82276 3.32893,-3.52969 10.92841,-17.29416 10.0392,-18.18337 -0.51962,-0.51963 -4.84367,2.87753 -15.21903,11.95674 -5.70417,4.99157 -11.67392,8.15975 -17.22362,9.14067 -3.78003,0.66813 -13.9862,-2.40153 -18.37482,-5.5265 l -2.77154,-1.97351 -1.96204,3.22632 c -2.4892,4.09315 -1.56647,5.98302 4.31022,8.82787 2.43065,1.17666 6.58838,4.48299 9.2394,7.34741 4.99369,5.39566 10.14685,9.70804 11.6008,9.70804 0.46041,0 1.1221,-0.7875 1.47043,-1.75 z M 827,430.89127 c 1.925,-1.15569 4.48759,-3.00905 5.69464,-4.11857 1.60173,-1.47231 2.91677,-1.83606 4.86759,-1.34644 3.64529,0.91491 6.43777,-1.72292 6.43777,-6.08125 0,-3.83413 -0.92551,-4.18979 -3.5,-1.34501 -2.2321,2.46644 -5.05709,2.57603 -6.44427,0.25 -0.94532,-1.5851 -1.30335,-1.45263 -3.7997,1.4059 C 827.43744,422.88344 822,431.26338 822,432.37973 c 0,1.08769 1.40632,0.66903 5,-1.48846 z M 1006.4285,418.25 c 0.323,-1.5125 0.6963,-5.7347 0.8294,-9.38267 0.2201,-6.03058 -0.042,-7.02912 -2.8905,-11 -1.7229,-2.40203 -3.2271,-4.81733 -3.3427,-5.36733 -0.4781,-2.27566 -6.75124,-12.09658 -9.73248,-15.23676 -2.78744,-2.93605 -3.48759,-3.22905 -5.34314,-2.23599 -1.17445,0.62855 -3.25672,0.86137 -4.62726,0.51738 -4.92843,-1.23695 -8.65936,2.04784 -4.78724,4.21478 5.59379,3.13045 18.17343,18.06098 20.42378,24.24059 5.17424,14.20884 6.50164,17 8.08464,17 0.4389,0 1.0624,-1.2375 1.3855,-2.75 z m -163.77537,-6.7016 3.55399,-3.45159 0.53648,-12.42236 c 0.63752,-14.76183 0.27342,-16.64247 -3.67349,-18.97396 -3.49139,-2.06242 -3.19792,-2.63979 -4.98098,9.79951 -3.57553,24.9442 -3.53946,24.34491 -1.59438,26.4942 0.99837,1.10319 1.99279,2.0058 2.2098,2.0058 0.21702,0 1.99388,-1.55322 3.94858,-3.4516 z m -444.86971,-4.6358 c 1.80588,-3.62307 3.53269,-8.62281 3.83736,-11.11052 0.47969,-3.91683 0.28939,-4.59231 -1.41973,-5.03925 -1.08552,-0.28387 -2.58734,-1.77641 -3.33736,-3.31675 -0.75957,-1.55992 -4.89312,-5.1717 -9.33067,-8.15287 -4.38184,-2.94375 -8.96946,-6.29405 -10.19472,-7.44512 -4.06501,-3.81887 -8.16748,-13.79692 -9.36018,-22.76586 -1.01419,-7.62651 -1.53374,-8.95621 -5.52723,-14.14605 -6.6543,-8.64777 -12.94762,-13.73401 -19.26618,-15.57086 -5.36235,-1.55888 -7.07801,-1.76736 -12.18471,-1.48068 -1.375,0.0772 -4.29859,0.1252 -6.49686,0.10668 -3.16529,-0.0267 -4.3876,0.50273 -5.87488,2.54444 -2.05269,2.8179 -27.99551,28.41961 -33.62826,33.18611 -1.925,1.62895 -5.04578,3.48855 -6.93507,4.13243 -1.88928,0.64388 -4.13928,1.76595 -5,2.4935 -0.86071,0.72755 -3.13993,1.92104 -5.06493,2.6522 -1.925,0.73116 -4.175,1.87158 -5,2.53425 -0.825,0.66267 -4.425,2.59854 -8,4.30194 -3.575,1.7034 -7.78811,4.14509 -9.36246,5.42598 l -2.86245,2.3289 3.49444,2.66534 c 1.92194,1.46594 5.46005,3.3998 7.86245,4.29747 2.40241,0.89768 5.26802,1.98554 6.36802,2.41747 1.1,0.43194 4.25,1.25712 7,1.83375 2.75,0.57662 7.475,1.8539 10.5,2.83839 3.67498,1.19604 8.98412,1.83921 16,1.93831 5.775,0.0816 11.76679,0.65904 13.3151,1.28326 1.5483,0.62422 4.19979,1.13494 5.89219,1.13494 4.31102,0 16.30949,-3.71282 17.79919,-5.50781 2.09147,-2.52006 3.6485,-1.74251 10.69552,5.34111 10.42839,10.48254 13.03203,11.77893 29.43543,14.65624 7.79416,1.36716 14.42293,2.73749 14.73061,3.04516 0.30767,0.30768 2.37573,0.42573 4.59568,0.26235 3.88946,-0.28624 4.15572,-0.53667 7.3197,-6.88445 z m -162.11341,1.9947 c 4.72042,-1.50339 5.99709,-3.47991 3.21087,-4.97105 -3.51912,-1.88338 -35.69905,-1.54666 -37.63955,0.39385 -2.12981,2.12981 -0.68484,3.65523 3.56769,3.76633 2.03004,0.053 6.16598,0.67771 9.19098,1.38817 5.8505,1.37407 16.42774,1.09228 21.67001,-0.5773 z M 188,405.89496 C 188,405.40273 186.95615,405 185.68034,405 c -1.27582,0 -3.22632,-1.04274 -4.33445,-2.3172 -1.6718,-1.92275 -3.70266,-2.52694 -11.93033,-3.54937 C 141.2679,395.63559 140,395.69878 140,400.59939 c 0,3.24166 3.51199,5.20671 9.5,5.3155 2.75,0.05 10.85,0.42705 18,0.83797 14.10873,0.81086 20.5,0.54339 20.5,-0.8579 z m 64.41274,-8.81299 C 253.63163,395.93689 255.1624,395 255.81445,395 c 2.6192,0 0.9228,-1.87458 -3.56445,-3.93885 -2.6125,-1.20183 -7.45,-3.92964 -10.75,-6.06181 -3.3,-2.13216 -6.58424,-3.90426 -7.29831,-3.938 -0.71406,-0.0337 -3.18906,0.87737 -5.5,2.02467 -5.66343,2.81173 -14.49395,5.73379 -18.74243,6.20197 -1.91185,0.21068 -4.50921,0.93598 -5.77193,1.61176 -1.26272,0.67579 -6.20893,1.42508 -10.99159,1.6651 -12.13452,0.60897 -17.96248,1.17296 -19.04702,1.84324 -0.51087,0.31574 -2.35989,-0.88441 -4.10893,-2.667 -2.86584,-2.92083 -3.11814,-3.65794 -2.55333,-7.45988 l 0.62673,-4.21881 -4.8066,2.05077 c -12.80447,5.46313 -12.97235,5.5941 -10.86473,8.47644 2.08123,2.84626 18.88039,5.39262 38.16203,5.78449 8.85715,0.18 16.59512,0.63087 17.1955,1.00193 0.60038,0.37105 5.72863,0.60734 11.39611,0.52508 16.79122,-0.24372 21.08615,-0.0212 22.22515,1.15145 1.6049,1.65234 8.44,0.42699 10.99209,-1.97058 z M 909.29049,387.75 c 1.76523,-1.2375 3.45217,-2.5731 3.74875,-2.968 0.29658,-0.3949 0.52158,-4.8949 0.5,-10 -0.0328,-7.74938 -0.28692,-9.21601 -1.53924,-8.88237 -1.29309,0.3445 -16.24074,0.19563 -25.5,-0.25396 -2.55408,-0.12402 -3.01128,0.22593 -3.07588,2.35433 -0.0417,1.375 0.0918,2.82852 0.29669,3.23004 0.2049,0.40152 0.50276,4.0376 0.66189,8.08017 0.4101,10.41778 1.59339,11.7852 6.04439,6.985 l 2.50802,-2.7048 2.28245,2.12469 c 1.54825,1.44124 3.10617,1.96375 4.84326,1.62438 1.61676,-0.31587 3.04435,0.0823 3.87244,1.08011 1.6556,1.99487 1.53503,2.00993 5.35723,-0.66959 z M 898.5,379 c -0.99549,-1.1 -1.4994,-2 -1.1198,-2 0.37959,0 0.19311,-0.92877 -0.41441,-2.06392 -0.8199,-1.53199 -0.79741,-2.43404 0.0873,-3.5 1.9321,-2.32804 3.74413,-1.66574 5.48608,2.00513 2.80844,5.91835 -0.0961,9.91574 -4.03913,5.55879 z m 37.5962,4.97067 c 0.77209,-0.1032 2.3038,0.10924 3.4038,0.4721 3.11666,1.02809 3.66988,0.84539 4.93487,-1.62977 1.21328,-2.37398 2.40995,-2.64037 6.29593,-1.40156 1.95759,0.62405 2.56486,0.03 4.95832,-4.85015 2.16675,-4.41791 3.21501,-5.56129 5.09865,-5.56129 2.14264,0 2.30811,-0.31319 1.71703,-3.25 -1.16238,-5.77537 -1.539,-6.52568 -3.53792,-7.04841 C 957.3396,360.27605 957,359.31798 957,355.15264 c 0,-2.76903 -0.3375,-5.23794 -0.75,-5.48646 -0.4125,-0.24852 -3,0.63873 -5.75,1.97167 -2.75,1.33293 -5.11292,2.40884 -5.25093,2.39091 -0.138,-0.0179 -2.58472,1.09327 -5.43715,2.46932 -2.85242,1.37606 -5.83324,2.50192 -6.62403,2.50192 -0.79079,0 -4.0331,1.1647 -7.20512,2.58822 -6.50372,2.91869 -5.94781,0.76132 -4.42221,17.16178 l 0.67442,7.25 3.13251,0.0153 c 1.72288,0.008 3.80751,0.45583 4.63251,0.99425 1.09083,0.7119 1.93541,0.45653 3.0962,-0.93616 0.8779,-1.0533 2.2279,-1.99953 3,-2.10273 z m -0.16176,-12.64312 c -1.84466,-4.85182 0.1128,-6.40068 5.50046,-4.3523 2.9181,1.10946 3.291,3.15599 0.99367,5.45332 -2.42893,2.42893 -5.33968,1.93544 -6.49413,-1.10102 z M 877.01287,376 c 0.22025,-12.37689 0.46853,-11.64135 -4.33811,-12.85168 -2.37888,-0.59901 -6.0676,-2.47376 -8.19715,-4.16611 -2.48125,-1.97185 -4.76407,-2.97019 -6.35588,-2.77961 -2.40011,0.28736 -2.49398,0.58438 -2.78026,8.7974 -0.16296,4.675 -0.53311,9.48492 -0.82255,10.68871 -0.60854,2.53094 1.13478,4.05759 2.76821,2.42416 1.99259,-1.99259 3.78637,-1.1812 5.27732,2.38713 1.5165,3.6295 3.17585,4.3597 5.23283,2.30272 0.92971,-0.92971 1.81247,-0.72757 3.95,0.90449 3.95046,3.01627 5.10484,1.32662 5.26559,-7.70721 z M 865.25,373.33772 c -2.11086,-0.85175 -1.48347,-5.12884 0.86151,-5.87311 2.77673,-0.8813 5.00521,1.37305 4.24207,4.29131 -0.558,2.13377 -2.3552,2.69079 -5.10358,1.5818 z m -425.8127,6.99554 c 1.43456,-2.56671 2.89088,-5.79265 3.23626,-7.16877 0.34538,-1.37611 3.8373,-5.91357 7.75981,-10.08325 3.92251,-4.16968 8.28797,-9.15624 9.70102,-11.08124 5.99926,-8.1728 6.91155,-13.03453 1.73315,-9.23615 -1.30215,0.95513 -5.06754,3.05796 -8.36754,4.67297 -3.3,1.61501 -8.12133,3.9967 -10.71408,5.29264 -4.32098,2.15978 -8.23272,2.95438 -17.78592,3.61292 l -3.5,0.24126 0.32993,9.95818 c 0.2799,8.44797 0.64756,10.2994 2.42432,12.20818 1.15191,1.2375 2.64108,2.25 3.30928,2.25 0.6682,0 2.27725,0.88503 3.57569,1.96673 3.65727,3.04682 5.43942,2.48124 8.29808,-2.63347 z m -233.52301,0.21106 C 207.55681,379.69494 209.83148,379 210.96912,379 c 5.94299,0 39.76356,-14.43103 50.68545,-21.62717 4.48502,-2.95506 8.64275,-5.37283 9.23942,-5.37283 0.59666,0 3.45794,-2.14909 6.3584,-4.77577 2.90046,-2.62667 8.98023,-6.91376 13.51059,-9.52687 4.53036,-2.61311 8.23702,-5.18244 8.23702,-5.70961 0,-0.52718 2.43694,-2.87759 5.41541,-5.22313 2.97848,-2.34554 7.01019,-6.58968 8.95936,-9.43143 l 3.54395,-5.16681 -2.12997,-2.70781 c -2.03606,-2.58843 -2.39801,-2.67589 -8.20936,-1.98359 -3.34366,0.39832 -7.40317,0.82575 -9.02113,0.94985 -3.53851,0.2714 -4.23539,1.77034 -2.18443,4.6985 1.32633,1.8936 1.34078,2.52787 0.11174,4.90458 -1.65224,3.19507 -3.2908,3.97209 -8.37623,3.97209 -5.57237,0 -7.54552,-1.86141 -6.70763,-6.32777 0.39127,-2.08566 1.52245,-4.09646 2.64132,-4.69526 3.87941,-2.0762 2.01861,-3.09493 -5.29303,-2.8978 -8.90977,0.24023 -28.34152,-0.70868 -29.52796,-1.44194 -0.47823,-0.29557 -4.59945,-0.81524 -9.15826,-1.15483 -4.5588,-0.33958 -9.40088,-1.04027 -10.76017,-1.55707 -1.3593,-0.5168 -2.85339,-0.70358 -3.32022,-0.41507 -1.0004,0.61829 -18.2924,-4.86702 -22.13768,-7.02244 C 201.38585,295.66952 199.67366,295 199.04084,295 195.80953,295 177.15374,285.43347 165,277.54415 c -5.225,-3.39169 -10.625,-6.88615 -12,-7.76547 -1.375,-0.87931 -4.01496,-3.01178 -5.86657,-4.73881 -1.85161,-1.72704 -3.56386,-2.94278 -3.80499,-2.70164 -0.24113,0.24113 0.93566,4.65117 2.6151,9.80009 2.07626,6.36555 4.32109,10.96189 7.01416,14.36168 2.17836,2.75 5.61464,7.475 7.63618,10.5 2.02154,3.025 4.53438,6.74561 5.58409,8.26802 1.04971,1.52242 2.7611,4.75693 3.80309,7.18781 1.042,2.43087 2.82253,5.34776 3.95674,6.48197 1.13421,1.13421 1.9827,2.3997 1.88554,2.8122 -0.0972,0.4125 0.35204,2.59512 0.99823,4.85026 1.852,6.46339 1.47432,37.46118 -0.51357,42.14966 -0.8745,2.06254 -1.94618,5.10008 -2.38149,6.75008 -0.43532,1.65 -1.07332,3.91295 -1.41778,5.02878 -0.61273,1.98486 -0.29019,2.02371 14.89644,1.79432 11.6754,-0.17635 16.26292,-0.61722 18.50912,-1.77878 z m 33.71239,-26.0748 c -1.16879,-3.04581 -0.63371,-4.41453 2.32366,-5.94384 5.97521,-3.0899 10.24795,-0.57573 7.71155,4.53765 -1.52534,3.07509 -8.99324,4.12154 -10.03521,1.40619 z m 22.41315,-7.92153 c -1.65721,-1.99682 -0.50631,-4.97769 3.09034,-8.00407 3.522,-2.96357 5.10633,-3.16881 6.98521,-0.90489 1.66713,2.00876 1.24176,6.25385 -0.86283,8.61097 -1.89903,2.12688 -7.54336,2.30945 -9.21272,0.29799 z m 15.04234,-15.39446 c -1.4712,-2.74896 -1.35925,-4.67868 0.35391,-6.10048 1.78078,-1.47792 4.99336,0.0123 6.63364,3.07723 1.2871,2.40497 0.5066,3.46251 -3.23755,4.38674 -2.06794,0.51047 -2.91118,0.20386 -3.75,-1.36349 z M 182.5,318.59811 c 1.65,-0.77728 3.1875,-1.22984 3.41667,-1.00568 0.70315,0.6878 -0.28827,1.21906 -3.41872,1.83196 L 179.5,320.01135 Z m -27.33598,61.08521 c 3.1152,-1.26909 8.14944,-4.22492 11.18718,-6.56852 5.18528,-4.00042 5.56407,-4.58846 6.19175,-9.6123 0.36773,-2.94316 0.43174,-5.73444 0.14225,-6.20285 -0.2895,-0.4684 -0.19652,-5.56495 0.20661,-11.32565 0.7537,-10.77043 0.10244,-15.35666 -3.29787,-23.224 -1.85759,-4.2979 -3.15235,-4.70429 -4.7791,-1.5 -1.4342,2.82502 -18.02839,18.16463 -23.10925,21.36211 -2.08692,1.31334 -5.26342,2.38789 -7.05887,2.38789 -1.79545,0 -4.11797,0.6241 -5.16114,1.38688 -1.81125,1.32442 -1.696,1.64519 2.55887,7.12175 6.86538,8.83663 9.74932,13.3663 13.52388,21.24137 1.91123,3.9875 3.57772,7.24792 3.70332,7.24537 0.12559,-0.003 2.77716,-1.04297 5.89237,-2.31205 z m 261.8987,-4.80052 c 0.84513,-1.57913 0.84058,-4.18405 -0.0179,-10.25 -0.63305,-4.47304 -1.38457,-8.92703 -1.67004,-9.89776 C 414.83413,352.89665 401.81603,342 400.16037,342 c -0.52052,0 -1.18807,-0.62981 -1.48346,-1.39958 -0.29539,-0.76977 -3.60604,-3.56305 -7.35699,-6.20729 -3.75096,-2.64423 -10.10471,-7.59122 -14.11946,-10.99331 -4.01474,-3.40208 -8.28974,-6.43102 -9.5,-6.73098 -1.21025,-0.29995 -5.92676,-1.88287 -10.48113,-3.51759 -4.55438,-1.63473 -8.50295,-2.97924 -8.77462,-2.98782 -0.27167,-0.009 -4.09824,-1.21592 -8.50348,-2.683 -4.40525,-1.46708 -8.55667,-2.74839 -9.22538,-2.84735 -0.66872,-0.099 -2.71046,-0.79978 -4.5372,-1.55738 -3.05932,-1.26878 -3.49072,-1.20807 -5.46825,0.76946 -2.03267,2.03267 -2.05514,2.23867 -0.42221,3.8716 0.94858,0.94858 3.18429,1.80184 4.96825,1.89614 1.78396,0.0943 3.24356,0.2273 3.24356,0.29556 0,0.0683 5.75595,2.10271 12.79101,4.52097 16.43977,5.6511 19.81494,8.27153 28.44852,22.08707 3.49981,5.60043 5.27115,9.71911 5.86696,13.64173 0.36271,2.38798 1.22466,5.01677 1.91545,5.84177 0.69078,0.825 2.85789,4.70551 4.81581,8.62336 3.76372,7.53132 4.78488,8.34849 11.16225,8.93248 12.781,1.17038 19.46203,2.07286 20.10496,2.71579 1.2358,1.2358 2.2769,0.81764 3.45776,-1.38883 z m 558.89197,-5.3282 c 1.65414,-1.99313 3.48406,-1.973 5.51774,0.0607 1.48706,1.48706 1.757,1.48706 3.40017,0 0.98169,-0.88841 2.71316,-1.61529 3.84773,-1.61529 2.60946,0 3.48064,-3.1615 3.44447,-12.5 -0.0149,-3.85 0.45609,-10.54641 1.04666,-14.88091 0.85267,-6.25817 1.45115,-7.9796 2.90651,-8.36019 2.05031,-0.53617 3.59319,-6.31079 2.25611,-8.44401 -0.45329,-0.72319 -0.68627,-2.15158 -0.51774,-3.1742 0.18616,-1.12964 -0.11797,-1.59703 -0.77496,-1.19098 -0.59476,0.36758 -1.08138,1.31974 -1.08138,2.11592 0,0.79618 -1.125,2.42577 -2.5,3.62132 -1.375,1.19555 -2.5,2.90257 -2.5,3.79339 0,0.89081 -0.48341,2.10307 -1.07425,2.69391 -0.59084,0.59084 -1.24486,2.14334 -1.45337,3.45 -1.02948,6.45137 -2.17393,9.38717 -3.7799,9.69646 -1.52719,0.29411 -1.65366,-0.29966 -1.08834,-5.10962 0.83697,-7.12134 -0.52071,-7.82978 -5.38989,-2.81242 -2.12078,2.18531 -5.07207,4.27853 -6.55843,4.65158 -1.48636,0.37305 -3.32639,1.56904 -4.08896,2.65775 -1.18999,1.69896 -1.16657,2.49762 0.16527,5.63574 0.92275,2.17422 1.62871,7.13143 1.74165,12.22967 0.10445,4.71537 0.51789,9.10409 0.91875,9.7527 0.82743,1.3388 3.45716,0.26485 5.56216,-2.27151 z M 970,368 c 0,-0.55 0.45,-1 1,-1 0.55,0 1,0.45 1,1 0,0.55 -0.45,1 -1,1 -0.55,0 -1,-0.45 -1,-1 z m 4.55753,-12.25 c -2.53763,-8.35401 -0.33548,-11.22902 4.89095,-6.38533 2.78806,2.58389 3.2072,4.57965 1.35152,6.43533 -1.57606,1.57606 -5.75871,1.54255 -6.24247,-0.05 z m -128.14114,13 c 0.24997,-1.2375 0.68731,-4.29535 0.97185,-6.79521 0.28455,-2.49987 0.79889,-5.27887 1.14298,-6.17556 0.6439,-1.67796 -2.05296,-3.98512 -6.03764,-5.16518 -1.81788,-0.53837 -1.97613,-0.19579 -1.68414,3.64587 0.37981,4.99708 -1.60053,8.41796 -4.27829,7.39041 -1.28662,-0.49372 -1.57121,-1.27473 -1.06128,-2.91248 0.38322,-1.23082 0.92195,-4.48785 1.19717,-7.23785 0.4291,-4.28749 0.20636,-5.17753 -1.56302,-6.2458 -1.78699,-1.0789 -2.25873,-0.94493 -3.52132,1 -2.42455,3.73486 -4.7782,11.83075 -4.15792,14.3021 0.45829,1.82598 1.37674,2.38984 4.28969,2.63357 3.0106,0.2519 3.8163,0.77953 4.29112,2.81013 0.48093,2.05675 1.18236,2.5 3.95616,2.5 1.85437,0 3.55908,0.5625 3.78825,1.25 0.66883,2.00648 2.17304,1.44234 2.66639,-1 z m 64.86245,-10.03926 c 3.13447,-1.35436 3.69003,-2.0231 3.25808,-3.92176 -1.15653,-5.08365 -2.621,-11.40263 -3.07981,-13.28898 -0.26755,-1.1 -0.69445,-3.5421 -0.94867,-5.42688 -0.25421,-1.88479 -0.81011,-3.75348 -1.23532,-4.15265 -0.42522,-0.39916 -3.06072,-0.24604 -5.85667,0.34027 -4.0907,0.85782 -6.37688,0.74116 -11.70552,-0.59736 C 888.06885,330.74852 883.07695,330 880.61781,330 c -5.05433,0 -5.735,1.09236 -4.36178,7 0.44746,1.925 1.36041,7.1 2.02877,11.5 1.18939,7.83011 1.27891,8.00709 4.2152,8.33366 1.65,0.18352 3.675,0.92456 4.5,1.64677 1.98795,1.74025 3.94802,2.03435 12.9382,1.94134 4.62268,-0.0478 9.03056,-0.71287 11.34064,-1.71103 z M 889.36163,345.5 c -1.01321,-2.64036 0.44954,-4.5 3.5396,-4.5 2.99731,0 4.98652,2.75457 3.6043,4.99105 -0.97739,1.58145 -6.49413,1.20224 -7.1439,-0.49105 z m -14.15963,9.96467 c 0.82444,-0.82444 -3.53917,-19.15117 -5.58696,-23.46467 -1.09123,-2.29859 -1.80064,-2.5241 -8.80555,-2.79914 l -7.61869,-0.29914 -0.36644,5.79914 c -0.20154,3.18953 -0.1267,7.35957 0.1663,9.26676 0.51099,3.32607 0.94045,3.63886 10.52104,7.66304 11.00005,4.62041 10.92765,4.59666 11.6903,3.83401 z M 859.2,345.8 c -1.84482,-1.84482 -1.45064,-5.58567 0.65912,-6.25529 3.83933,-1.21855 6.81472,1.75684 5.59617,5.59617 -0.66962,2.10976 -4.41047,2.50394 -6.25529,0.65912 z m 70.52149,7.57805 c 3.17818,-1.44207 10.72851,-4.34117 16.77851,-6.44245 7.15222,-2.48409 11.73904,-4.67882 13.11277,-6.27427 2.03872,-2.36778 2.06191,-2.69402 0.66163,-9.30756 -0.79812,-3.76957 -1.66191,-8.65377 -1.91953,-10.85377 -0.25761,-2.2 -0.95448,-4.98558 -1.54859,-6.19018 -0.59412,-1.2046 -0.80831,-3.54965 -0.476,-5.21123 0.86525,-4.32624 -0.40878,-4.46922 -4.82382,-0.54135 -2.12837,1.89352 -4.19672,3.44276 -4.59634,3.44276 -0.39961,0 -2.74174,1.95852 -5.20473,4.35228 -2.46299,2.39375 -5.84771,4.62618 -7.5216,4.96096 -1.67389,0.33478 -6.45002,2.03865 -10.61361,3.78637 -7.25315,3.04461 -7.57018,3.31573 -7.57018,6.47394 0,1.81294 0.40434,4.35975 0.89853,5.65957 0.81307,2.13852 2.34334,12.65316 2.4766,17.01688 0.0767,2.51244 3.52864,2.22153 10.34636,-0.87195 z m 5.23686,-17.92824 c -2.12509,-2.56057 1.57235,-5.04578 6.79165,-4.56496 1.59174,0.14663 1.62423,3.34092 0.05,4.91515 -1.68062,1.68062 -5.31043,1.49483 -6.84165,-0.35019 z M 849.51014,343.25 c -0.38711,-0.9625 -0.7165,-4.09268 -0.73199,-6.95596 -0.0155,-2.86327 -0.61605,-6.0453 -1.3346,-7.07117 -1.49738,-2.13781 -9.30758,-4.78977 -10.45461,-3.54986 -0.42078,0.45484 -1.06951,3.80162 -1.44163,7.43728 l -0.67657,6.61029 4.31463,2.60069 c 5.17524,3.11943 11.43222,3.68226 10.32477,0.92873 z m -9.09419,-5.60843 c -0.90863,-2.36785 -0.0467,-5.14157 1.59775,-5.14157 0.97534,0 1.4863,1.00269 1.4863,2.91667 0,3.16095 -2.13406,4.70052 -3.08405,2.2249 z m -702.16876,1.00466 c 5.64058,-2.50311 18.69396,-14.31126 23.23797,-21.02117 2.487,-3.67243 2.54575,-4.04016 1.12403,-7.0362 -0.82506,-1.7387 -3.43716,-4.99817 -5.80465,-7.24328 -2.3675,-2.24511 -9.23098,-9.31632 -15.25218,-15.7138 C 135.53116,281.2343 130.07846,276 129.43525,276 c -1.13801,0 -6.23807,6.80713 -7.62717,10.1801 -1.18145,2.86878 -13.84857,12.64123 -18.18625,14.03036 -3.38515,1.08408 -4.077727,1.72804 -3.87507,3.60302 0.244109,2.2585 5.31226,10.29576 13.51789,21.43718 2.32944,3.16286 5.97665,8.27427 8.10491,11.35869 3.79877,5.50544 3.94049,5.59669 7.74719,4.98797 2.1327,-0.34103 6.2414,-1.66902 9.13044,-2.95109 z m 834.46733,-4.22917 c 2.63201,-1.42062 5.94325,-3.89562 7.35831,-5.5 1.41505,-1.60438 3.11049,-2.91706 3.76764,-2.91706 2.03168,0 -0.52979,-29.68431 -3.44281,-39.89792 l -1.53953,-5.39792 -1.84339,3.03121 c -1.01386,1.66716 -2.71053,3.64622 -3.77036,4.39792 -1.05984,0.75169 -2.50257,2.49171 -3.20606,3.86671 -0.70349,1.375 -3.05692,4.075 -5.22984,6 l -3.95077,3.5 1.6416,7.89522 c 0.90288,4.34237 1.78728,10.19237 1.96532,13 0.50074,7.89608 1.7088,14.60478 2.62994,14.60478 0.45895,0 2.98793,-1.16232 5.61995,-2.58294 z m -0.87936,-16.13593 c -2.33727,-2.71884 -2.85554,-5.01933 -1.40247,-6.22527 3.24395,-2.69224 7.40318,3.53684 4.38012,6.5599 -1.26199,1.26199 -1.6418,1.21931 -2.97765,-0.33463 z m -65.93572,7.80218 c 1.06417,-0.67378 1.22222,-2.04769 0.65971,-5.73469 -0.81806,-5.362 -1.10808,-7.39602 -2.1112,-14.80687 -0.37535,-2.77296 -1.32308,-6.29247 -2.10607,-7.82112 C 900.79453,294.69969 901.25703,293 903.6264,293 c 1.09899,0 1.32388,-0.61067 0.82859,-2.25 -1.10915,-3.67115 -1.64205,-3.74915 -8.95499,-1.31076 -9.76147,3.25483 -16.44294,4.5307 -21.23156,4.0543 -5.47968,-0.54514 -6.2389,0.63284 -5.16025,8.00646 1.37357,9.38973 1.80636,11.64968 3.25557,17 1.56474,5.77686 2.34918,6.12423 14.63624,6.48137 4.125,0.11989 8.625,0.57828 10,1.01863 3.44993,1.10486 7.23012,1.14025 8.89944,0.0833 z m -22.32801,-17.65474 c -2.30031,-2.3003 -1.92024,-4.94861 0.89423,-6.23097 2.98671,-1.36084 5.53434,0.60332 5.53434,4.26684 0,3.49333 -3.75278,4.63993 -6.42857,1.96413 z m -15.13724,15.67791 c 0.30373,-0.49144 -0.16483,-2.85394 -1.04124,-5.25 -0.8764,-2.39606 -1.96129,-7.73148 -2.41085,-11.85648 -0.44957,-4.125 -1.29331,-8.7375 -1.875,-10.25 -1.01689,-2.64414 -1.33218,-2.75 -8.19076,-2.75 -6.89394,0 -7.11468,0.0754 -6.58214,2.25 0.51309,2.09517 2.26406,14.97594 3.06915,22.5779 0.48003,4.53262 1.18739,5.00685 8.09665,5.42811 3.3,0.2012 6.53594,0.45091 7.19098,0.55491 0.65504,0.10399 1.43949,-0.213 1.74321,-0.70444 z m -14.02445,-10.4811 c -0.87263,-2.27403 -0.11432,-4.78218 1.81274,-5.99572 2.20493,-1.38853 3.54076,-0.0828 3.95964,3.87034 0.2781,2.62455 -0.027,3.03967 -2.43781,3.31697 -1.75858,0.20228 -2.96514,-0.22887 -3.33457,-1.19159 z M 843.69977,322 h 3.53619 l -0.58643,-5.25 c -1.21596,-10.88588 -1.82893,-14.38293 -3.32773,-18.98484 l -1.54209,-4.73484 -2.83453,2.23484 c -2.55196,2.01206 -2.84004,2.85173 -2.88985,8.4231 -0.0549,6.14193 -0.0347,6.18686 2.69467,6 2.31687,-0.15861 2.75,0.20549 2.75,2.31174 0,1.83124 -0.60188,2.58548 -2.25,2.81955 -1.90905,0.27113 -2.25,0.93137 -2.25,4.35699 0,3.27077 0.30036,3.92218 1.58179,3.43045 C 839.45177,322.27314 841.75486,322 843.69977,322 Z M 927,317.78063 c 11.945,-5.46297 15.24245,-7.24886 15.72996,-8.5193 C 942.99617,308.5676 943.7973,308 944.51024,308 c 0.71295,0 3.4773,-1.98236 6.14301,-4.40524 l 4.84675,-4.40524 -1.75,-2.99905 c -0.9625,-1.64948 -1.75,-3.78113 -1.75,-4.737 0,-0.95588 -1.9658,-5.83645 -4.36844,-10.84571 -2.40264,-5.00927 -4.68608,-10.55975 -5.07432,-12.3344 l -0.70589,-3.22664 -5.17567,3.77972 c -2.84663,2.07884 -6.90246,4.82931 -9.01297,6.11214 -2.11051,1.28284 -4.70836,3.26742 -5.773,4.41018 -1.06465,1.14276 -2.93787,2.14162 -4.16271,2.21969 -1.22485,0.0781 -3.96714,0.88115 -6.09399,1.78461 -3.20726,1.36241 -3.77729,2.02687 -3.34123,3.89479 0.28917,1.23868 1.91223,7.87715 3.6068,14.75215 1.69457,6.875 3.33524,14.21001 3.64593,16.30003 0.65287,4.39188 0.72385,4.38866 11.45549,-0.5194 z m -6.75,-6.44291 c -1.802,-0.72712 -1.53681,-3.07783 0.47418,-4.20324 1.09377,-0.6121 2.37346,-0.61741 3.5,-0.0145 4.07339,2.18001 0.46538,6.00914 -3.97418,4.21774 z m 4.78518,-10.27198 c -1.52387,-2.84739 -1.29954,-3.89229 1.41937,-6.61119 5.54437,-5.54438 10.78106,-1.35984 6.38231,5.09997 -2.64384,3.88263 -6.16727,4.56514 -7.80168,1.51122 z M 292.01106,316.97933 C 293.30782,314.55631 292.54611,313 290.06343,313 c -2.34894,0 -4.45176,2.54565 -3.70669,4.48727 0.83651,2.17992 4.38649,1.86102 5.65432,-0.50794 z m 27.64205,-18.25352 5.1531,-3.7742 -1.32747,-5.03221 c -0.73011,-2.76771 -1.73402,-5.56933 -2.23091,-6.2258 -1.66547,-2.20038 -4.09349,-10.14174 -4.79821,-15.6936 -1.16846,-9.20535 -1.69155,-9.96571 -6.13995,-8.9251 -11.91678,2.7877 -28.54547,2.76945 -40.55706,-0.0445 -4.53893,-1.06334 -10.05261,-2.14279 -12.25261,-2.39878 -2.2,-0.256 -8.15503,-1.03287 -13.2334,-1.7264 -7.54435,-1.03028 -9.67967,-1.02211 -11.67295,0.0447 -3.46034,1.85192 -7.0044,0.63937 -11.61909,-3.97532 -2.18601,-2.18605 -4.66059,-3.9746 -5.49907,-3.9746 -2.30197,0 -13.33606,-7.2802 -18.89423,-12.46626 -2.70531,-2.52419 -6.75531,-5.40722 -9,-6.40674 C 181.97288,225.6297 171,213.07196 171,209.15086 c 0,-5.02514 4.20821,-2.26665 12.83353,8.41241 0.91656,1.1348 3.91647,3.3563 6.66647,4.93666 4.66976,2.68361 22.36462,15.93925 23.5213,17.62036 0.28671,0.41671 1.79554,0.98872 3.35295,1.27113 2.96855,0.5383 5.62579,2.0561 9.35814,5.3453 1.72651,1.52151 4.33254,2.11287 11.5,2.60956 5.09719,0.35323 11.29261,0.85126 13.76761,1.10674 2.475,0.25548 7.56616,0.73813 11.31368,1.07257 3.74753,0.33443 8.58402,1.23267 10.74776,1.99609 4.16245,1.46859 13.42244,2.75185 18.43856,2.55523 6.58081,-0.25796 29.99966,-3.25715 31.35481,-4.01553 1.07342,-0.60072 -0.0712,-1.76687 -4.45513,-4.53894 -3.24482,-2.05179 -8.37468,-6.34345 -11.39968,-9.53703 -5.52058,-5.82824 -20.51873,-14.96772 -24.61619,-15.00047 -2.8415,-0.0227 -9.29505,-2.46761 -10.99154,-4.1641 -1.29615,-1.29615 -2.19205,-1.3204 -6.59419,-0.1785 -2.80184,0.72678 -6.04012,1.118 -7.19617,0.86937 -1.15605,-0.24863 -4.35191,-0.66431 -7.10191,-0.92372 -4.92779,-0.46486 -7.87055,-1.46131 -18.27964,-6.18969 -2.90379,-1.31906 -5.84117,-2.3983 -6.52749,-2.3983 -0.68632,0 -2.24877,-0.70107 -3.47212,-1.55793 -3.28709,-2.30237 -4.52133,-0.93213 -3.7562,4.1701 0.60115,4.00876 0.44395,4.4724 -1.87457,5.52879 -1.72669,0.78673 -2.93731,0.8307 -3.81037,0.13838 -0.70378,-0.55809 -3.75461,-1.80465 -6.77961,-2.77013 -3.025,-0.96548 -6.85,-2.56123 -8.5,-3.5461 -1.65,-0.98488 -5.475,-2.47921 -8.5,-3.32074 -14.68386,-4.08492 -22,-7.47588 -22,-10.19681 0,-2.39934 2.72191,-2.80541 6.56874,-0.97996 1.9539,0.92718 6.56275,2.12062 10.2419,2.65208 3.67915,0.53146 7.81436,1.47314 9.18936,2.09261 2.4618,1.10911 7.26884,2.9937 15.87762,6.22478 2.40769,0.90366 4.54698,1.47366 4.75398,1.26667 0.20699,-0.207 -0.22964,-2.12675 -0.97031,-4.26611 -0.94486,-2.72915 -1.08249,-5.06548 -0.46129,-7.83025 0.94049,-4.1858 0.4172,-7.10487 -1.105,-6.16409 -0.76365,0.47196 -21.74158,1.81215 -28.595,1.82681 -5.36708,0.0115 -22.19765,-3.77228 -24.21063,-5.44291 -1.48979,-1.23641 -1.71677,-4.44301 -0.37329,-5.27333 0.50385,-0.31139 2.19135,-0.0599 3.75,0.55893 3.35323,1.33128 7.34366,2.36222 16.83392,4.34909 5.2902,1.10755 9.19832,1.25675 16,0.61082 4.95,-0.47009 9.35723,-0.63955 9.79385,-0.37659 0.43661,0.26297 4.59911,0.16115 9.25,-0.22627 8.05277,-0.67079 8.45615,-0.8184 8.45615,-3.09421 0,-1.84539 -0.89041,-2.7461 -3.90849,-3.95369 -4.90879,-1.96411 -7.07117,-6.22091 -5.06464,-9.97014 1.43659,-2.6843 3.46691,-3.21137 4.27351,-1.1094 0.31914,0.83167 1.59326,1.18785 3.35699,0.93845 2.71519,-0.38392 2.92538,-0.11899 4.68843,5.9096 1.01519,3.47135 2.57571,7.76603 3.46781,9.54374 1.98538,3.95628 0.6683,6.13127 -2.64051,4.36045 -2.14586,-1.14843 -4.9223,-1.50851 -3.9225,-0.50871 0.32116,0.32116 -0.27277,3.07396 -1.31984,6.11733 -2.12982,6.19043 -1.88719,7.29874 1.59784,7.29874 1.32581,0 3.88675,0.81318 5.69098,1.80708 5.54359,3.05378 25.24993,9.19292 29.50885,9.19292 5.21278,0 6.14174,-1.23552 8.87893,-11.809 2.16718,-8.3716 2.02567,-10.11492 -0.82598,-10.17569 -1.11889,-0.0238 0.32156,-3.37308 2.04949,-4.76531 0.85326,-0.6875 2.98528,-1.25 4.73781,-1.25 1.75254,0 3.70473,-0.62451 4.3382,-1.38779 0.92676,-1.11668 0.21808,-1.93967 -3.62756,-4.21271 C 267.17601,176.20094 262.72767,174 261.34526,174 c -1.89804,0 -4.18583,-3.89367 -3.60125,-6.12909 1.03765,-3.96799 4.69489,-5.16335 17.07139,-5.57977 13.04767,-0.439 19.39538,-2.15701 21.85834,-5.91596 1.93269,-2.94965 2.55535,-11.56856 1.22355,-16.93647 -0.53746,-2.16629 -1.19339,-5.28871 -1.45762,-6.93871 -0.26423,-1.65 -0.94585,-5.925 -1.51471,-9.5 -0.56886,-3.575 -1.68469,-8.71918 -2.47962,-11.4315 -2.05,-6.99462 -1.91224,-7.65628 2.60205,-12.497414 4.21292,-4.517947 4.84464,-7.776914 1.4143,-7.296162 -12.47323,1.748083 -13.30914,1.658981 -18.74675,-1.998253 -7.60509,-5.115031 -7.50443,-5.08742 -10.35945,-2.841656 C 265.91162,88.070757 263.91109,89 262.90986,89 c -2.74123,0 -12.47711,10.04758 -15.11051,15.59429 -3.44697,7.2603 -8.45587,7.25049 -6.8176,-0.0134 0.79914,-3.54331 2.428,-5.854742 8.74801,-12.41384 3.37682,-3.504567 3.78012,-4.266391 2,-3.777904 -1.22637,0.33653 -3.93743,0.897372 -6.02459,1.246315 -3.05107,0.510097 -4.40525,1.521665 -6.9094,5.161325 -1.71302,2.489786 -3.39824,5.913834 -3.74493,7.608984 -0.71636,3.50257 -3.06597,4.4362 -5.36884,2.13333 -1.41433,-1.41434 -1.89478,-1.05753 -5.12137,3.80355 -1.95835,2.95037 -3.56063,6.09613 -3.56063,6.99057 0,2.32094 3.06175,9.66673 4.02912,9.66673 0.44659,0 1.11447,1.37728 1.48419,3.06062 0.51413,2.34079 0.0903,3.94004 -1.80225,6.79982 -1.36097,2.05656 -3.63059,6.02066 -5.04361,8.80912 -2.60825,5.14713 -7.06337,9.68655 -10.61208,10.81286 -1.93406,0.61385 -7.37615,-1.5744 -8.52056,-3.42609 -0.32561,-0.52685 -0.65206,-2.55505 -0.72544,-4.50712 C 199.73598,144.59715 199.55684,143 199.41128,143 c -0.14557,0 -1.37317,2.3625 -2.728,5.25 -2.4352,5.19002 -15.42937,19.75 -17.62606,19.75 -0.61599,0 -1.37585,-0.66676 -1.68857,-1.48169 -0.39483,-1.02891 -1.07279,-1.21322 -2.21861,-0.60315 -0.90752,0.48319 -3.45004,1.03745 -5.65004,1.23169 l -4,0.35315 0.25447,-7.25 c 0.23327,-6.64628 0.0895,-7.25 -1.72695,-7.25 -2.04069,0 -3.0642,1.27347 -7.23348,9 -1.67391,3.10211 -3.84759,5.27661 -6.99736,7 -2.51302,1.375 -4.73283,2.82203 -4.93291,3.21562 -0.20007,0.39358 1.77373,2.07117 4.38623,3.72797 2.6125,1.6568 4.75,3.4864 4.75,4.06577 0,3.48375 -8.29927,0.8829 -11.99608,-3.75936 -1.36438,-1.71332 -2.83079,-2.25089 -6.14784,-2.25374 -2.62147,-0.002 -5.69113,-0.81767 -7.70875,-2.04774 -3.14701,-1.91861 -3.50552,-1.94385 -5.84442,-0.41134 -1.9336,1.26694 -2.32322,2.11765 -1.73935,3.79774 0.41383,1.19079 1.02792,9.59008 1.36465,18.66508 0.3743,10.08755 1.09017,17.34888 1.84201,18.68426 0.67638,1.20134 1.23548,3.90134 1.24245,6 0.021,6.33076 6.28713,17.22132 18.73739,32.56574 4.78726,5.90009 5.89866,6.75 8.82681,6.75 2.69994,0 4.56979,1.13324 9.63654,5.84033 3.45763,3.21218 8.53659,7.10948 11.28659,8.66066 2.75,1.55118 8.02298,4.77303 11.71774,7.15967 3.69476,2.38664 7.06976,4.34966 7.5,4.36227 0.43024,0.0126 4.83226,2.06971 9.78226,4.57133 15.37225,7.76882 21.10191,9.4932 25.5,7.67442 1.375,-0.56862 2.81492,-0.84909 3.19983,-0.62326 0.3849,0.22583 1.18823,-0.50201 1.78518,-1.61741 1.15818,-2.16408 5.42847,-2.78604 6.55985,-0.95542 0.36459,0.58992 4.10365,2.64405 8.30902,4.56473 5.93696,2.71153 9.29844,3.58389 15.03796,3.90258 4.06551,0.22574 7.66466,0.68327 7.99812,1.01672 0.33345,0.33346 10.28213,0.45713 22.10816,0.27483 L 314.5,302.5 Z M 245.55703,145.06301 C 243.52968,142.82282 244.23302,141 247.12476,141 c 4.66927,0 7.87007,4.02053 4.29345,5.39301 -2.63883,1.01262 -4.02602,0.69784 -5.86118,-1.33 z M 242.5192,121.75 c -0.22992,-0.6875 -0.31605,-2.7959 -0.1914,-4.68533 0.17822,-2.70144 0.75489,-3.58571 2.69942,-4.13925 1.36003,-0.38715 4.45503,-1.61287 6.87777,-2.72381 2.42275,-1.11094 5.01025,-1.78763 5.75,-1.50376 1.77459,0.68097 1.7355,3.30215 -0.0492,3.30215 -1.4417,0 -5.44047,3.54159 -9.34915,8.28025 -2.37122,2.87473 -5.039,3.55814 -5.73741,1.46975 z M 253,118.48644 c 0,-0.86084 2.34421,-2.58582 5.43592,-4 6.51652,-2.98071 7.56408,-3.06514 7.56408,-0.60958 0,1.29549 -1.52876,2.5345 -4.93538,4 C 255.23086,120.38647 253,120.5551 253,118.48644 Z m 5.55682,-13.42366 c -1.95999,-2.16576 -2.02117,-7.432517 -0.10481,-9.022954 0.79861,-0.662784 2.37361,-0.91256 3.5,-0.555057 1.76015,0.558649 2.04799,0.218889 2.04799,-2.417381 0,-3.78954 2.2151,-4.085466 3.84266,-0.51336 1.45305,3.189084 0.48,9.868122 -1.71312,11.758972 -2.69062,2.31978 -5.86726,2.6343 -7.57272,0.74978 z M 102.32904,294.59305 c 2.10597,-0.33401 4.58097,-1.01846 5.5,-1.52101 2.82641,-1.54555 8.76611,-8.24289 13.52259,-15.24748 3.94156,-5.8045 4.3362,-6.83875 3.02474,-7.92717 -0.82954,-0.68845 -2.21206,-2.6345 -3.07227,-4.32456 -0.86021,-1.69006 -2.18875,-3.74783 -2.9523,-4.57283 -0.76356,-0.825 -3.90082,-4.65 -6.97169,-8.5 -6.13049,-7.68589 -10.12242,-11.40878 -12.2925,-11.46404 -0.776814,-0.0198 -6.257668,4.68904 -12.179676,10.46404 -5.922008,5.775 -11.55743,10.5 -12.523159,10.5 -0.96573,0 -2.797376,0.97844 -4.070324,2.17431 C 67.807253,266.5297 67.202097,270 69.298558,270 c 0.714207,0 3.751707,2.51044 6.75,5.57875 2.998293,3.06831 7.189741,7.23081 9.31433,9.25 2.124588,2.01919 5.18585,5.58687 6.802804,7.92817 2.337112,3.38408 3.287912,4.07101 4.637112,3.35018 0.933458,-0.49872 3.420266,-1.18004 5.526236,-1.51405 z M 967.75,287.06363 c 3.4375,-3.80434 6.25,-7.47704 6.25,-8.16156 0,-0.68453 0.63432,-1.95502 1.4096,-2.82333 1.23278,-1.3807 0.56546,-3.30606 -5.31964,-15.34839 -3.70109,-7.5733 -7.29246,-14.3233 -7.98082,-15 -0.99489,-0.97803 -1.86968,-0.4643 -4.26556,2.50496 -1.65769,2.05441 -4.96799,5.80392 -7.35621,8.33223 l -4.34221,4.59693 1.49149,4.66777 c 0.82032,2.56727 1.92996,6.11629 2.46585,7.88671 0.5359,1.77042 2.02381,4.47042 3.30647,6 1.28266,1.52958 2.65954,4.35605 3.05973,6.28105 0.77034,3.7055 3.0873,8.00654 4.30435,7.9903 0.39982,-0.005 3.53945,-3.12234 6.97695,-6.92667 z m -9.59539,-11.66789 C 954.15372,272.59341 956.04519,268 961.2,268 c 2.52792,0 2.8,0.33668 2.8,3.46482 0,4.38674 -2.65017,6.16894 -5.84539,3.93092 z M 336.21109,288.70693 C 342.86582,283.30521 350.57772,278 351.77519,278 c 0.50316,0 1.61822,-0.7875 2.47791,-1.75 1.42372,-1.59398 1.35238,-2.41866 -0.80015,-9.25 -1.29977,-4.125 -2.85076,-9.4125 -3.44663,-11.75 -0.91594,-3.59306 -1.47405,-4.25 -3.61061,-4.25 -1.38995,0 -3.51011,0.52879 -4.71145,1.17509 -1.20134,0.64629 -3.98426,1.56896 -6.18426,2.05037 -12.45427,2.72526 -13.53598,3.02374 -14.06592,3.8812 -0.72657,1.17562 3.35557,20.39557 7.14555,33.64334 0.58906,2.05908 2.07648,1.46596 7.63146,-3.04307 z M 840,287.66173 c 0,-0.73605 -1.575,-6.69075 -3.5,-13.23267 -1.925,-6.54192 -3.50689,-13.0272 -3.51531,-14.41173 -0.008,-1.38453 -0.41248,-3.14455 -0.89791,-3.91115 -0.85356,-1.34798 -7.34161,-4.06043 -9.78575,-4.09112 -1.492,-0.0187 -0.30292,2.9588 8.18067,20.48494 3.46098,7.15 6.55433,13.7875 6.87411,14.75 0.68179,2.05209 2.64419,2.35766 2.64419,0.41173 z m 21,-0.0564 c 0,-0.76707 -0.89445,-4.29056 -1.98767,-7.82999 -1.09321,-3.53942 -2.89981,-10.86842 -4.01466,-16.28666 -1.11484,-5.41824 -2.17965,-10.004 -2.36622,-10.19058 -0.92578,-0.92577 -14.86416,1.14475 -15.29685,2.27232 -0.26732,0.69662 0.24007,3.89074 1.12753,7.09807 0.88746,3.20732 1.8001,7.1815 2.02808,8.8315 1.01179,7.32256 3.70549,14.3447 6.23351,16.25 C 849.11225,289.55017 861,289.42971 861,287.60534 Z M 845,274.10699 C 845,271.48295 846.44952,270 849.0144,270 c 1.5021,0 2.19191,4.04649 0.94577,5.54799 C 849.29739,276.34659 847.91021,277 846.87756,277 845.47348,277 845,276.27044 845,274.10699 Z m 43.8151,12.7696 c 1.2733,-0.48213 3.2983,-0.87827 4.5,-0.88033 1.20169,-0.002 3.68733,-0.91972 5.52364,-2.03926 l 3.33874,-2.03553 -2.4341,-3.21074 c -1.33876,-1.7659 -2.68881,-4.33573 -3.00012,-5.71073 -1.21923,-5.38512 -1.63825,-6.67023 -3.74966,-11.5 -3.79449,-8.67973 -4.29013,-9.95143 -4.67694,-12 -0.2077,-1.1 -1.18051,-2.80409 -2.1618,-3.78688 -1.71321,-1.71581 -2.00033,-1.70901 -7.21951,0.17102 -9.03462,3.25441 -16.12592,5.25862 -16.67242,4.71213 -0.28407,-0.28408 -1.77309,0.1333 -3.30893,0.92752 -2.45221,1.26809 -2.68636,1.78102 -1.92184,4.21011 0.47882,1.52136 1.59456,5.4661 2.47944,8.7661 0.88488,3.3 2.65457,8.475 3.93265,11.5 1.27808,3.025 2.71751,6.83066 3.19874,8.45703 0.55476,1.87491 1.78655,3.22484 3.36598,3.68885 2.904,0.85313 15.4343,0.007 18.80613,-1.26929 z m -11.90394,-12.74745 c -2.21451,-1.79319 -2.24122,-1.97646 -0.64348,-4.41493 2.93173,-4.47438 9.26343,-0.44363 6.73232,4.28579 -1.33642,2.49712 -3.11785,2.53491 -6.08884,0.12914 z m 38.59427,2.99884 C 920.41303,275.50784 930,269.40288 930,267.89787 c 0,-0.4197 1.0125,-1.06897 2.25,-1.44283 1.2375,-0.37385 3.46611,-1.81788 4.95248,-3.20894 2.49511,-2.33516 2.59727,-2.72937 1.33135,-5.13766 -1.45324,-2.76468 -7.00784,-9.57977 -16.18936,-19.86316 l -5.58452,-6.25472 -5.33789,3.05403 c -2.93584,1.67972 -6.16893,3.21408 -7.18464,3.40969 -1.01572,0.19561 -3.62215,1.14524 -5.79209,2.11029 -2.16993,0.96505 -4.24533,1.79532 -4.612,1.84504 -1.84922,0.25074 -1.72714,1.89147 0.55946,7.51883 1.37532,3.38468 3.46948,10.15288 4.65368,15.04044 1.38217,5.70461 3.06945,9.99258 4.71236,11.9757 2.74442,3.31275 2.28897,3.30564 11.7466,0.1834 z m -1.12139,-17.56957 c -0.9756,-2.54237 0.0747,-5.04957 2.24582,-5.36088 1.48602,-0.21308 2.28336,0.36261 2.69794,1.94796 0.99095,3.78941 -3.58663,6.94954 -4.94376,3.41292 z m -521.50552,8.22152 C 391.29534,266.81714 390,265.78179 390,265.47916 c 0,-0.30263 2.025,-1.41825 4.5,-2.47916 5.19376,-2.2263 5.81875,-3.94505 1.5,-4.125 -1.65,-0.0688 -3.45,-0.2375 -4,-0.375 -0.55,-0.1375 -1.45,-0.30625 -2,-0.375 -2.63877,-0.32985 -0.46645,-2.14182 4.25,-3.54501 2.8875,-0.85906 5.91239,-1.99178 6.72197,-2.51716 2.05921,-1.33632 0.29008,-1.8397 -8.2713,-2.35346 -8.55428,-0.51334 -9.94875,-1.69617 -6.08397,-5.16061 l 2.8833,-2.58464 -2.5,0.45497 c -12.64944,2.30202 -14.42697,1.33844 -9.91742,-5.37612 4.83217,-7.19492 2.0061,-7.22233 -5.77444,-0.056 -3.74448,3.44887 -9.19188,8.08282 -12.10535,10.29765 -3.76195,2.85986 -5.1132,4.489 -4.66232,5.62118 0.34918,0.87681 1.49338,4.29421 2.54267,7.59421 1.04929,3.3 2.26047,6.54078 2.69151,7.20173 0.85842,1.31628 9.80037,1.96731 25.85387,1.88235 10.08631,-0.0534 10.11653,-0.0609 7.25,-1.80415 z m 557.12293,-17.51891 c 2.29428,-2.60645 4.82731,-6.30876 5.62895,-8.22736 1.44882,-3.46752 1.43486,-3.50947 -2.33643,-7.01818 C 948.52971,230.58294 942.4092,226 941.25381,226 c -0.48379,0 -2.17301,-1.35 -3.75381,-3 -1.5808,-1.65 -3.3773,-3 -3.99222,-3 C 932.3838,220 923,229.28085 923,230.39249 c 0,0.32715 3.04822,4.08517 6.77382,8.35116 3.7256,4.26599 8.26341,9.66885 10.08403,12.00635 1.82061,2.3375 3.90915,4.25 4.64119,4.25 0.73204,0 3.20813,-2.13254 5.50241,-4.73898 z M 937.75,243.24212 c -0.9625,-0.21382 -1.75,-0.76897 -1.75,-1.23366 0,-0.46469 -0.26147,-1.52627 -0.58105,-2.35908 -0.54392,-1.41743 3.9219,-4.64938 6.4244,-4.64938 1.62033,0 2.15179,2.91656 0.99436,5.45684 -1.22599,2.69076 -2.46351,3.36824 -5.08771,2.78528 z m -87.29869,4.70657 c 1.1154,-1.1154 0.88713,-20.02143 -0.25496,-21.11617 -0.60225,-0.57728 -18.13882,0.75009 -18.76727,1.42053 -0.23267,0.24822 1.86219,11.6506 3.16864,17.24695 0.38519,1.65 1.19578,3.33906 1.80131,3.75346 1.48396,1.01556 12.78088,-0.0334 14.05228,-1.30477 z M 829.55824,245.75 c -0.36781,-1.7875 -0.75639,-6.29105 -0.8635,-10.00789 -0.22141,-7.68324 -0.97143,-8.37801 -7.79908,-7.22448 -5.20928,0.8801 -6.30805,3.4567 -4.47976,10.50494 1.61041,6.20831 2.47074,7.1512 7.87368,8.62925 6.038,1.65179 6.00253,1.6646 5.26866,-1.90182 z M 874,243.43469 c 4.675,-1.48689 8.90246,-3.06794 9.39437,-3.51343 0.51908,-0.47012 0.31442,-2.19704 -0.48777,-4.11563 -0.76018,-1.81809 -1.30718,-3.54703 -1.21556,-3.84207 0.0916,-0.29504 -0.64018,-2.99504 -1.62624,-6 -2.08319,-6.34843 -1.91192,-6.31409 -16.0648,-3.22108 l -8.5,1.85762 0.23045,9.44995 c 0.12674,5.19747 0.23924,10.30013 0.25,11.33924 0.0172,1.66557 0.58202,1.82177 4.76955,1.31906 2.6125,-0.31362 8.575,-1.78677 13.25,-3.27366 z m -8.74876,-5.58345 C 863.57603,236.17603 866.45129,231 869.05706,231 c 2.77627,0 3.47958,2.53204 1.52984,5.50772 -1.77177,2.70406 -3.53192,3.14726 -5.33566,1.34352 z m 39.37195,-3.44363 c 4.14868,-2.0225 7.76205,-4.24797 8.02972,-4.94549 0.64304,-1.67574 -2.85148,-8.48722 -8.29726,-16.17289 l -4.40071,-6.21077 -4.81449,2.83873 c -2.64797,1.5613 -6.63348,4.04247 -8.85669,5.51372 l -4.0422,2.67501 2.87559,7.69704 c 1.58158,4.23337 2.87723,8.11161 2.87922,8.6183 0.002,0.50669 0.7146,1.70687 1.58356,2.66706 2.18452,2.41387 5.98045,1.73744 15.04326,-2.68071 z m -11.47227,-6.72576 C 891.58045,225.78954 894.47397,222 897.48932,222 c 2.80082,0 4.29356,3.35176 2.47085,5.54799 -1.50356,1.81169 -5.35395,1.88738 -6.80925,0.13386 z M 328.5,222.03811 c 3.3,-1.20427 7.35,-2.65476 9,-3.22332 1.65,-0.56856 5.77675,-2.10948 9.17056,-3.42427 3.3938,-1.31479 7.30766,-2.39052 8.69746,-2.39052 h 2.5269 l -3.07754,-6.75 c -1.69265,-3.7125 -4.34542,-9.36217 -5.89504,-12.55482 -1.54963,-3.19265 -2.59561,-6.38305 -2.32441,-7.08979 0.2712,-0.70673 -0.21038,-1.86879 -1.07018,-2.58236 -1.84576,-1.53184 -10.91961,-0.77263 -13.17926,1.10271 -0.79186,0.65719 -3.0812,1.13318 -5.08741,1.05776 -2.00622,-0.0754 -4.97982,0.52744 -6.60801,1.33968 -1.62819,0.81225 -3.98965,1.47682 -5.24769,1.47682 -1.25804,0 -2.52573,0.38572 -2.81709,0.85714 -0.29136,0.47143 -3.35542,1.41351 -6.80902,2.0935 -3.4536,0.67999 -8.32467,2.06717 -10.8246,3.08261 -2.49994,1.01544 -8.00856,2.16008 -12.24138,2.54365 -4.61423,0.41813 -8.16067,1.25723 -8.85631,2.09543 -0.63814,0.76891 -1.17335,4.39258 -1.18935,8.0526 -0.027,6.18538 0.14229,6.70786 2.40164,7.41018 1.3369,0.41558 6.2945,1.90993 11.01689,3.32079 4.72239,1.41085 11.43327,4.28671 14.91307,6.39081 l 6.32691,3.82563 7.58693,-2.22233 c 4.17281,-1.22228 10.28693,-3.20764 13.58693,-4.4119 z m 509.5,1.49866 c 7.32362,-0.39329 13.58963,-1.32923 17.25398,-2.57717 3.16469,-1.07778 6.77015,-1.9596 8.01212,-1.9596 6.72996,0 26.4578,-8.60263 31.45797,-13.71773 1.57588,-1.6121 4.45892,-4.02261 6.40674,-5.35668 C 906.84257,196.01358 917,186.42557 917,184.94601 c 0,-0.74934 -1.9125,0.44671 -4.25,2.65788 -7.01602,6.63682 -14.66886,11.89314 -21.75,14.93889 -1.925,0.82798 -6.425,2.99778 -10,4.82178 -3.575,1.82399 -8.70721,3.95065 -11.40492,4.7259 -3.02535,0.8694 -5.08184,2.08014 -5.36663,3.15954 -0.57324,2.17272 -2.80798,2.2881 -3.6144,0.18662 -0.32996,-0.85986 -1.07135,-1.27202 -1.64754,-0.91592 -1.03458,0.6394 -19.52827,3.66469 -35.88766,5.87067 -8.5498,1.1529 -11.24774,2.87075 -6.9851,4.44761 1.24369,0.46007 4.09388,0.49424 6.33375,0.0759 2.23988,-0.41831 9.2475,-1.03847 15.5725,-1.37814 z m -13.5,-7.57941 c 4.4,-0.63427 9.35,-1.54448 11,-2.02269 3.87756,-1.1238 7.11587,-1.64948 17.5,-2.8408 8.02244,-0.92037 14.35521,-2.60299 18.61792,-4.94679 1.03514,-0.56916 8.79511,-4.44216 17.24438,-8.60667 12.71069,-6.2649 16.20291,-8.4753 20.23249,-12.80612 2.6786,-2.87886 4.87807,-5.82681 4.8877,-6.55101 0.01,-0.7242 -1.05328,-2.7492 -2.36202,-4.5 -1.30874,-1.7508 -2.97759,-4.98328 -3.70857,-7.18328 -2.49318,-7.50368 -4.31656,-7.82029 -7.00771,-1.21684 -1.49816,3.67615 -3.62303,5.63904 -6.15419,5.68504 -2.18551,0.0397 -2.28115,-2.76487 -0.1958,-5.74212 2.46372,-3.51746 10.66606,-22.53249 10.60677,-24.58911 -0.0793,-2.75244 -0.66838,-2.94306 -3.91175,-1.26585 -1.61515,0.83523 -4.01947,1.69243 -5.34293,1.90489 -6.38821,1.02553 -15.36359,4.55518 -27.55137,10.83482 C 861.00099,155.89987 854.18783,159 853.21457,159 c -0.97325,0 -2.65719,0.60199 -3.74206,1.33776 -1.08488,0.73576 -5.90071,3.00927 -10.70184,5.05223 -9.14456,3.89117 -17.88367,5.83159 -26.23226,5.82457 -2.72887,-0.002 -6.05485,0.41149 -7.39107,0.91952 -2.27909,0.86651 -24.74025,3.42217 -39.07045,4.44548 -3.53272,0.25227 -8.48272,1.17338 -11,2.04691 -2.56017,0.8884 -7.33084,1.52603 -10.82689,1.44709 -7.08527,-0.16 -6.36111,-1.46081 -6.36111,11.42644 0,3.575 0.025,6.91361 0.0556,7.41914 0.0329,0.54424 10.76221,0.76559 26.30556,0.54268 26.46385,-0.37952 32.93583,-0.77414 40.25,-2.45422 2.2,-0.50534 9.625,-1.91137 16.5,-3.12451 9.46657,-1.67044 13.18597,-2.77325 15.32673,-4.5444 1.55469,-1.28628 3.57148,-2.33869 4.48174,-2.33869 0.91026,0 6.16323,-2.2004 11.67327,-4.88978 20.80462,-10.15445 23.01826,-10.79666 23.01826,-6.6779 0,2.17252 -1.53395,3.1457 -17.5,11.10248 -18.32345,9.13161 -27.89872,12.57109 -41.40542,14.87302 C 806.80492,203.07626 803,204.3226 803,205.86087 c 0,0.43478 1.09965,1.82357 2.44366,3.0862 1.34401,1.26264 3.15842,3.80195 4.03201,5.64291 1.33182,2.80659 2.02736,3.28046 4.30635,2.9339 1.49489,-0.22732 6.31798,-0.93226 10.71798,-1.56652 z m -455,-7.9002 c 1.1,-0.49586 3.26786,-1.17777 4.81746,-1.51535 2.79613,-0.60913 2.8122,-0.65703 2.12261,-6.32779 -0.38217,-3.14271 -1.25932,-6.83902 -1.94922,-8.21402 -0.68989,-1.375 -1.56774,-4.38659 -1.95077,-6.69243 -0.38303,-2.30584 -1.22375,-4.60295 -1.86825,-5.10468 -1.37253,-1.06849 -16.60299,1.32827 -18.12734,2.85262 -1.03897,1.03897 0.98649,7.89747 4.49989,15.23735 0.99854,2.08607 2.12402,5.23607 2.50105,7 1.26363,5.91182 2.32093,6.20542 9.95457,2.7643 z m 337.61674,0.0519 c 1.86079,-1.62591 4.50826,-3.85187 5.88326,-4.94656 1.375,-1.0947 2.275,-2.19251 2,-2.43957 -0.275,-0.24707 -3.95572,-0.012 -8.17939,0.52239 -6.42364,0.81272 -8.20662,0.70858 -10.90364,-0.63687 -4.44901,-2.21946 -4.57391,-2.14614 -4.34609,2.55147 0.24274,5.00522 2.8003,7.35294 8.36804,7.68146 2.9659,0.175 4.53339,-0.42168 7.17782,-2.73232 z M 714.5,195.14273 c 2.6861,-1.56192 3.03088,-2.32404 3.29513,-7.28369 0.39216,-7.3603 -0.7536,-8.30642 -8.61768,-7.11617 -3.26209,0.49373 -9.85829,0.72572 -14.65822,0.51554 -6.87966,-0.30126 -8.63573,-0.10444 -8.29534,0.92972 0.26327,0.79982 2.71295,1.50703 6.27611,1.81187 7.13019,0.61001 8.8733,2.93967 2.33333,3.11848 -2.38333,0.0652 -4.89583,0.0454 -5.58333,-0.0438 -0.6875,-0.0893 -1.25,0.3074 -1.25,0.88151 0,0.57411 0.5625,1.09575 1.25,1.15919 0.6875,0.0634 1.7,0.2199 2.25,0.34769 0.55,0.12778 2.43036,0.30087 4.17857,0.38465 3.64478,0.17465 6.49898,2.52605 5.67442,4.67481 -1.34987,3.51771 7.45012,3.93286 13.14701,0.62023 z m 18.66118,-3.29427 c 0.35481,-6.44193 -1.15646,-11.7986 -3.36291,-11.91974 -0.71405,-0.0392 -3.04174,-0.28256 -5.17264,-0.54078 -3.8129,-0.46205 -3.86318,-0.42521 -3.16884,2.32128 0.38805,1.53493 0.78152,5.25162 0.87438,8.2593 0.14645,4.74375 0.50017,5.63641 2.66883,6.73526 1.375,0.69671 3.69753,1.27337 5.16118,1.28148 2.55835,0.0142 2.67427,-0.22296 3,-6.1368 z M 695,195.04389 l 2.5,-0.75675 -2.5,-0.63954 c -2.06502,-0.52826 -3.85395,-0.45577 -6.80902,0.27589 -0.16996,0.0421 -0.0309,0.52651 0.30902,1.07651 0.7009,1.13408 2.85049,1.1486 6.5,0.0439 z m 259,-6.9765 c 0,-0.51294 -0.9,-1.18794 -2,-1.5 -1.1,-0.31207 -2.95324,-0.83961 -4.11831,-1.17233 -1.51006,-0.43123 -1.98887,-0.21588 -1.6675,0.75 0.37475,1.12633 2.79465,2.06757 7.03581,2.73663 0.4125,0.0651 0.75,-0.30137 0.75,-0.8143 z m -21.63636,-7.70375 c 3.07194,-3.07195 3.64545,-7.70462 0.88807,-7.1736 -1.49479,0.28787 -5.92776,6.79605 -6.1711,9.05996 -0.1783,1.65891 2.80184,0.59482 5.28303,-1.88636 z m -219.06709,-4.27148 c 0.4381,-0.43189 0.28171,-3.66681 -0.34753,-7.18871 -0.62925,-3.5219 -1.34959,-7.75345 -1.60076,-9.40345 -1.22662,-8.05785 -0.4771,-7.50772 -10.11731,-7.42588 -4.80202,0.0408 -10.75595,0.38651 -13.23095,0.76832 l -4.5,0.69419 0.24266,6.98168 c 0.30909,8.89307 2.05635,15.47 4.33599,16.32127 2.38258,0.88971 24.21357,0.24267 25.2179,-0.74742 z M 679.80983,159 c -0.75186,-7.01662 -1.39974,-9.1108 -3.71245,-12 -5.06792,-6.33118 -10.76131,-4.88926 -9.52761,2.41298 0.50658,2.9984 1.98526,5.41751 5.61516,9.18638 2.71012,2.81388 5.6231,6.10925 6.47328,7.32306 0.85018,1.2138 1.66203,2.06531 1.8041,1.89225 0.14208,-0.17307 -0.15154,-4.13967 -0.65248,-8.81467 z m 127.89172,8.04389 c 4.03971,0.0286 4.24165,-0.11925 5.24292,-3.83768 1.31502,-4.88359 6.54928,-11.08775 10.88818,-12.90574 2.77678,-1.16347 3.12804,-1.64291 2.10595,-2.87445 -0.84395,-1.0169 -2.97581,-1.43676 -6.83265,-1.34564 -9.79777,0.23147 -18.87021,-2.55227 -27.89557,-8.55932 -4.45257,-2.96353 -9.80253,-7.33062 -11.8888,-9.70465 -2.08627,-2.37402 -11.78886,-12.23254 -21.56131,-21.90782 C 741.42118,89.73199 739.83713,88.425781 738.06441,89.667436 735.46137,91.490677 730,101.1969 730,103.99992 c 0,1.31397 1.86317,4.18693 4.4607,6.87827 4.81989,4.99397 13.4899,14.78555 17.58563,19.86053 5.77678,7.15797 23.89664,25.73245 29.95367,30.70521 7.49164,6.15055 8.5591,6.54996 16,5.98663 3.025,-0.22901 7.3907,-0.40302 9.70155,-0.38667 z m 24.53649,-4.11088 c 14.39899,-4.76804 20.30725,-8.36811 27.2329,-16.59376 5.38816,-6.39954 9.52906,-9.1484 9.52906,-6.32568 0,1.36404 -2.06996,4.9836 -4.42431,7.73643 -1.22291,1.42988 -1.47083,2.25 -0.68018,2.25 1.48735,0 9.53244,-5.30557 13.26309,-8.74675 2.12204,-1.95737 3.28115,-2.31558 5.74317,-1.77482 2.32537,0.51073 3.73475,0.16604 5.72626,-1.40048 1.45293,-1.14287 3.51277,-2.07795 4.57742,-2.07795 4.21462,0 14.71172,-11.41616 12.51603,-13.61185 -0.20672,-0.20672 -2.14112,1.1273 -4.29866,2.96448 -4.60502,3.92124 -17.36872,10.51436 -19.17282,9.90376 C 881.5625,135.02371 881,133.97083 881,132.91667 881,131.8625 880.37595,131 879.61323,131 c -1.65045,0 -3.56285,-9.24265 -3.96679,-19.17161 -0.14929,-3.66938 -0.76181,-7.26938 -1.36116,-8 -2.19003,-2.66966 -3.60467,-10.583879 -3.81239,-21.32839 -0.22215,-11.490701 -1.70364,-19.267582 -3.8256,-20.081852 -1.34437,-0.515886 -14.32874,4.073332 -16.40962,5.799848 -1.0127,0.840236 -1.01425,1.346287 -0.008,2.558928 1.06858,1.287559 0.94117,1.412124 -0.85973,0.840542 -2.72289,-0.864214 -10.04832,3.889284 -18.91063,12.271195 -6.24771,5.909027 -15.25276,12.226284 -18.45947,12.949757 -4.88151,1.101325 -13.01332,2.381947 -16.2117,2.553068 -2.04144,0.109221 -3.99576,0.482637 -4.34293,0.829814 -0.73472,0.73472 4.53908,3.63627 7.40386,4.07346 1.07564,0.16416 2.63454,0.86184 3.46421,1.55041 0.94953,0.78804 1.73496,0.88553 2.11964,0.26311 0.4011,-0.64899 1.62466,-0.63551 3.56018,0.0392 2.25778,0.78707 3.09987,1.832 3.59247,4.4578 0.35389,1.88637 1.15437,3.36182 1.77885,3.27879 3.17192,-0.42174 7.63542,1.47283 7.63542,3.24092 0,2.34597 -3.56712,2.50054 -8.65424,0.375 -4.95313,-2.06961 -6.3456,-1.89211 -6.3456,0.80888 0,2.7767 1.27221,4.40604 6.33614,8.11479 2.75465,2.01746 3.69535,3.34793 3.33673,4.71928 -0.73541,2.81223 3.32319,7.04331 10.34743,10.7872 4.98269,2.65574 7.36444,3.29264 12.78827,3.41969 5.6233,0.13173 6.72098,0.44583 7.02209,2.00937 0.55071,2.85963 -0.73113,3.44379 -8.98057,4.09258 -4.20745,0.33091 -9.02134,1.28581 -10.69753,2.122 C 820.50659,156.39036 816.51269,166 820.98804,166 c 1.09343,0 6.15593,-1.38014 11.25,-3.06699 z m 18.21651,-56.38756 c -2.7734,-2.77339 -3.24633,-7.027637 -0.88211,-7.934875 1.92643,-0.739238 4.18725,0.414198 7.26744,3.707725 l 2.33988,2.50194 -2.08988,2.08988 c -2.68282,2.68282 -3.64048,2.63019 -6.63533,-0.36467 z m 14.42706,0.20455 c -1.04224,-2.18041 -8.89998,-8.986365 -13.24517,-11.472272 -1.17504,-0.672249 -4.32692,-2.132881 -7.00417,-3.245847 -4.84723,-2.015053 -4.86092,-2.033974 -3.25,-4.492545 C 842.27202,86.181403 843,83.690411 843,82.003798 c 0,-1.836369 0.61669,-3.303213 1.53725,-3.656464 C 846.25847,77.68684 850,80.605175 850,82.608193 c 0,0.71402 2.025,2.193972 4.5,3.288782 3.63096,1.606147 4.5,2.481431 4.5,4.532335 0,1.766449 1.97975,4.605151 6.49029,9.306231 3.56966,3.720449 6.49466,7.326959 6.5,8.014459 0.006,0.72634 -1.25607,1.25 -3.01173,1.25 -2.14801,0 -3.33234,-0.65043 -4.09695,-2.25 z m -164.05894,41.71608 c 7.63636,-0.52884 8.51454,-0.96748 7.12711,-3.55992 -0.92749,-1.73302 -1.80791,-1.90982 -7.25271,-1.4564 -3.40839,0.28384 -7.80252,0.90787 -9.76474,1.38672 -1.96222,0.47886 -4.94643,0.6683 -6.63158,0.42097 -3.46869,-0.5091 -5.07283,1.10732 -3.26303,3.288 0.92023,1.10881 2.67663,1.32625 7.33609,0.90817 3.36941,-0.30232 8.97139,-0.74672 12.44886,-0.98754 z M 168,143.94098 C 168,143.42344 167.55,143 167,143 c -0.55,0 -1,0.70156 -1,1.55902 0,0.85746 0.45,1.2809 1,0.94098 0.55,-0.33992 1,-1.04148 1,-1.55902 z m 12.55385,0.97189 c 0.36954,-0.59793 0.15236,-1.60666 -0.48262,-2.24164 -0.87268,-0.87268 -1.37235,-0.80204 -2.04689,0.28938 C 177.07123,144.50279 177.55184,146 179,146 c 0.48508,0 1.18431,-0.48921 1.55385,-1.08713 z M 691.75,142.42001 c 2.3375,-0.3716 4.25,-1.09587 4.25,-1.6095 0,-0.52907 -1.62551,-0.6496 -3.75,-0.27805 -2.0625,0.3607 -4.83794,0.72595 -6.16765,0.81168 -1.3297,0.0857 -2.62587,0.78187 -2.88037,1.54699 -0.34114,1.02557 0.16277,1.23522 1.91764,0.79782 1.30921,-0.32633 4.29288,-0.89735 6.63038,-1.26894 z m 267.64423,-0.59114 c -1.63138,-2.63964 -8.46601,-4.16791 -21.6646,-4.84438 l -13.77036,-0.70576 -5.01832,-4.23151 c -3.01551,-2.54272 -5.61874,-4.00111 -6.52276,-3.6542 -3.08312,1.1831 2.91589,7.69612 10.78773,11.71203 3.42679,1.74822 5.58702,1.97744 16.61647,1.76317 11.5752,-0.22487 16.59412,0.21496 17.9524,1.57323 0.87508,0.87509 2.28762,-0.53146 1.61944,-1.61258 z M 159.5,142 c -0.33992,-0.55 -1.06803,-1 -1.61803,-1 -0.55,0 -0.72189,0.45 -0.38197,1 0.33992,0.55 1.06803,1 1.61803,1 0.55,0 0.72189,-0.45 0.38197,-1 z m 530,-4.15745 c 2.2,-0.63046 6.3625,-1.09979 9.25,-1.04296 2.8875,0.0568 5.25,-0.29417 5.25,-0.78003 0,-0.48585 -1.4625,-1.92651 -3.25,-3.20147 -2.45241,-1.7492 -4.59977,-2.31809 -8.75,-2.31809 -6.20685,0 -12,3.17083 -12,6.56809 0,2.28885 3.28192,2.5564 9.5,0.77446 z m -482.57389,-4.25352 c 0.80051,-0.96456 0.83925,-1.61601 0.12245,-2.05902 -1.39636,-0.863 -3.04856,0.23665 -3.04856,2.02901 0,1.83608 1.41516,1.85059 2.92611,0.03 z m 757.74111,-4.35039 c -0.91472,-0.91471 -3.71111,-1.6831 -6.73032,-1.84935 -6.14626,-0.33845 -5.75214,0.33545 1.87211,3.20105 5.73688,2.15622 7.79382,1.58392 4.85821,-1.3517 z m -76.18291,-0.23192 c 4.73624,-2.03019 14.45215,-9.02171 17.9486,-12.91573 1.8982,-2.11404 1.90043,-2.3721 0.12466,-14.37184 C 905.56304,94.998618 904.37806,85.9 903.92428,81.5 c -1.01636,-9.855028 -3.63394,-23.639821 -4.66202,-24.551258 -0.41924,-0.371679 -2.33299,-1.201517 -4.25277,-1.844083 -1.91977,-0.642566 -6.91481,-3.416423 -11.10007,-6.164127 -6.489,-4.260151 -8.40475,-5.028568 -13.00949,-5.218179 C 864.52505,43.459854 864.45085,43.946642 869.10472,55.5 872.43819,63.775413 873,65.494937 873,67.422124 c 0,1.197832 0.49971,2.677588 1.11047,3.288347 1.45384,1.453842 3.90911,12.074925 3.21157,13.892699 -0.29807,0.776749 0.21924,2.573977 1.14957,3.993839 1.27255,1.942169 1.53428,3.73593 1.0567,7.24228 -0.6217,4.564451 0.85339,27.849021 2.07178,32.703471 0.74494,2.9681 1.00192,2.98542 6.88422,0.46396 z M 949,127.0567 c 0,-2.08231 -4.18666,-3.93623 -6.71677,-2.97428 -1.52879,0.58124 -3.87052,0.58731 -6.12869,0.0159 -2.01,-0.50864 -6.12954,-1.46355 -9.15454,-2.12203 -3.025,-0.65848 -6.49667,-1.82252 -7.71482,-2.58675 -3.29794,-2.06903 -4.57682,-1.80296 -3.25002,0.67618 1.49992,2.80264 9.17643,6.03132 16.46484,6.92498 8.97047,1.0999 16.5,1.13004 16.5,0.066 z M 92,119.5496 c 14.52233,-2.07041 38.71354,-6.55963 42,-7.79404 1.375,-0.51646 5.25814,-1.33821 8.62921,-1.82611 3.37106,-0.48791 7.42106,-1.40067 9,-2.02836 1.57893,-0.6277 4.84774,-1.33088 7.26401,-1.56264 2.41626,-0.23176 5.19918,-0.85272 6.18425,-1.37991 0.98508,-0.5272 2.91907,-0.95854 4.29777,-0.95854 1.3787,0 2.78484,-0.45 3.12476,-1 0.33992,-0.55 1.55546,-1 2.7012,-1 1.14575,0 5.28169,-0.90923 9.19099,-2.020518 9.48292,-2.695682 12.8204,-3.569844 21.10781,-5.528608 3.85,-0.909964 7.9,-2.010758 9,-2.446208 1.1,-0.43545 6.05,-1.992905 11,-3.46101 4.95,-1.468106 12.375,-3.771665 16.5,-5.11902 9.54048,-3.116223 9.14203,-2.980542 11.5,-3.915983 1.1,-0.436385 7.175,-2.790035 13.5,-5.230332 16.07993,-6.203923 33.94902,-14.2779 37,-16.718101 0.825,-0.659841 6.9,-3.623549 13.5,-6.586017 6.6,-2.962469 12.675,-5.906128 13.5,-6.541466 0.825,-0.635337 3.65069,-2.393107 6.27932,-3.906154 3.85198,-2.217212 4.55545,-3.020741 3.62555,-4.141207 -0.92522,-1.114817 -4.34818,-1.307744 -17.27932,-0.973906 C 314.7565,35.64044 304.575,36.290172 301,36.855321 c -3.575,0.565149 -8.87188,1.274851 -11.77084,1.577117 -2.89897,0.302265 -8.52397,1.228252 -12.5,2.057749 -3.97604,0.829497 -8.57916,1.515435 -10.22916,1.524307 -4.5496,0.02446 -5.75343,1.297688 -5.96206,6.305719 -0.13189,3.165896 -0.99318,5.587856 -2.85537,8.029311 C 255.14261,59.679583 250.05938,63 247.50135,63 c -0.65526,0 -1.95788,0.846979 -2.89472,1.882176 -4.55856,5.037146 -35.29722,15.659625 -58.60663,20.25292 -2.475,0.487718 -5.85,1.328225 -7.5,1.867795 -1.65,0.53957 -7.05,1.200547 -12,1.468838 -4.95,0.268292 -12.39488,0.735091 -16.54418,1.037332 -7.93932,0.578311 -8.8385,0.222211 -12.3286,-4.882462 -1.24741,-1.824489 -1.40287,-1.81943 -5.95404,0.193769 C 128.99641,86.004432 127,87.552369 127,88.44377 127,89.299696 126.60031,90 126.1118,90 c -0.48851,0 -2.93787,2.020673 -5.44302,4.490385 -4.35306,4.291476 -4.7899,4.479823 -9.8618,4.251957 -4.15491,-0.186668 -5.99175,0.249592 -8.46135,2.009618 -1.7349,1.23642 -3.811718,2.24804 -4.615142,2.24804 -0.803424,0 -2.61718,0.90963 -4.03057,2.0214 -1.41339,1.11178 -4.420974,2.67454 -6.683519,3.47281 -2.262546,0.79828 -6.229322,2.91281 -8.815059,4.69897 C 64.364726,122.75116 65.588691,123.31499 92,119.5496 Z M 170.5,116 c 0.33992,-0.55 -0.0835,-1 -0.94098,-1 -0.85746,0 -1.55902,0.45 -1.55902,1 0,0.55 0.42344,1 0.94098,1 0.51754,0 1.2191,-0.45 1.55902,-1 z m 746.63413,-9.54951 c -0.008,-0.52277 -0.44273,-2.75049 -0.96648,-4.95049 -0.52375,-2.2 -1.48077,-6.25 -2.12671,-9 -0.64593,-2.75 -1.43018,-9.725 -1.74277,-15.5 -0.3126,-5.775 -0.87651,-10.95 -1.25314,-11.5 -0.37662,-0.55 -1.28786,-2.9125 -2.02496,-5.25 -0.76979,-2.44116 -1.96006,-4.25 -2.79663,-4.25 -1.20276,0 -1.3306,1.175697 -0.73397,6.75 0.9309,8.697316 1.13393,9.677799 2.55319,12.32971 1.0958,2.047518 1.76396,8.213833 2.37522,21.92029 0.24391,5.46933 0.93309,9.14083 2.05725,10.95976 0.70356,1.13838 4.67932,-0.14956 4.659,-1.50927 z M 930.5,100.04879 c 2.75,-0.979321 6.8,-2.106202 9,-2.504175 2.2,-0.397973 4.5625,-1.188419 5.25,-1.756546 1.82496,-1.50809 1.52708,-7.951575 -0.5,-10.815563 -1.81581,-2.565484 -2.23827,-4.69843 -2.27231,-11.472506 -0.0111,-2.2 -0.9692,-7.6 -2.1292,-12 -2.1129,-8.014448 -2.60966,-10.48465 -2.76516,-13.75 -0.12665,-2.65976 -4.70153,-2.318016 -5.41345,0.404387 -0.55669,2.128781 0.58196,9.45636 2.39563,15.416611 1.26097,4.143921 1.17567,6.787825 -0.26551,8.229002 -1.88551,1.885515 -2.54451,1.445119 -3.06754,-2.05 -0.2675,-1.7875 -1.21673,-5.859456 -2.10941,-9.04879 C 927.73037,57.511875 927,53.785252 927,52.419825 c 0,-3.373139 -2.2444,-3.980106 -7.41524,-2.005344 -5.59604,2.137146 -8.07386,4.780836 -6.79731,7.252332 0.52077,1.008253 1.50749,4.983187 2.19271,8.833187 0.68522,3.85 1.9417,7.552036 2.79218,8.226747 1.21426,0.963317 1.59126,3.754917 1.75559,13 0.1151,6.475289 0.5467,12.574163 0.9591,13.553053 0.81127,1.92567 1.32683,1.86229 10.01297,-1.23101 z M 727.89358,97.75 c 1.13959,-2.3375 3.20473,-5.557493 4.5892,-7.155539 2.85364,-3.293852 2.71221,-2.922742 1.91023,-5.012674 -0.81137,-2.114404 -4.73421,-2.012871 -6.49908,0.168213 -3.53788,4.372224 -5.03385,8.337196 -4.34958,11.528283 1.27816,5.960657 1.65338,6.001357 4.34923,0.471717 z m -9.47444,-3.341859 c 0.56167,-1.049478 2.04714,-3.585993 3.30104,-5.636701 3.77562,-6.174884 3.18349,-6.991628 -7.5121,-10.361661 -3.74614,-1.180356 -7.43836,-1.529663 -12.64014,-1.195833 -6.51428,0.418062 -8.15066,0.966743 -14.41888,4.834687 -3.88886,2.399709 -6.90892,4.524841 -6.71124,4.722517 0.19767,0.197677 3.63457,0.5017 7.63754,0.675607 7.77306,0.337698 10.54045,2.037631 9.36194,5.750786 -0.76938,2.424099 0.77514,2.293186 2.33063,-0.197543 1.48406,-2.376359 3.51384,-2.570335 5.23207,-0.5 0.68469,0.825 2.25969,1.5 3.5,1.5 1.24031,0 2.80704,0.66503 3.48161,1.477845 1.60463,1.933463 5.14511,1.345152 6.43753,-1.069704 z M 162,83.351847 c 3.025,-0.417986 5.8375,-0.668146 6.25,-0.555911 0.4125,0.112235 0.75,-0.193452 0.75,-0.679305 0,-1.405004 -3.89005,-2.042856 -6.81818,-1.11798 -1.475,0.46589 -4.36932,1.127176 -6.43182,1.469524 -2.0625,0.342348 -3.75,1.100844 -3.75,1.685546 0,0.599505 0.98117,0.822165 2.25,0.510598 1.2375,-0.303873 4.725,-0.894486 7.75,-1.312472 z M 175,82 c 0,-0.55 -0.675,-1 -1.5,-1 -0.825,0 -1.5,0.45 -1.5,1 0,0.55 0.675,1 1.5,1 0.825,0 1.5,-0.45 1.5,-1 z m 14,-3.813761 c 8.88921,-2.872042 14.55586,-4.607608 15.16667,-4.645204 0.36666,-0.02257 0.97316,-0.34753 1.34776,-0.722134 0.37461,-0.374604 1.22224,-0.473445 1.88363,-0.219645 1.2311,0.472418 14.26623,-4.076537 16.14283,-5.633471 0.57249,-0.474969 2.55468,-1.130273 4.40488,-1.456231 6.96593,-1.227222 15.71844,-4.814247 20.37328,-8.349543 3.24242,-2.462576 4.30571,-3.765792 3.25,-3.983335 -2.07636,-0.427863 -1.9801,-1.838655 0.32547,-4.769706 1.50175,-1.909165 1.72719,-3.150371 1.08744,-5.986953 -0.44389,-1.968155 -1.0964,-3.867786 -1.45001,-4.221403 -0.35362,-0.353616 -2.53047,0.08481 -4.83745,0.974273 -5.11856,1.973487 -18.09519,7.390142 -22.1945,9.264342 -5.80501,2.654047 -44.5462,13.647312 -45.66608,12.958284 -0.36635,-0.225401 -1.94135,0.07938 -3.5,0.677285 C 170.28394,64.009999 150.81727,68 146.41591,68 c -4.62442,0 -6.2072,1.931496 -4.91615,5.999247 0.50684,1.59691 1.01028,1.798154 2.50165,1 C 145.02832,74.449661 147.62658,74 149.77533,74 c 2.14874,0 6.11583,-0.670129 8.81574,-1.489176 2.69991,-0.819046 6.23184,-1.494046 7.84873,-1.5 4.53557,-0.0167 14.2826,-1.97752 22.5602,-4.538457 C 196.89436,64.029997 211.20714,61 214.84978,61 216.33333,61 217,61.620092 217,63 c 0,1.1 -0.3375,2.037004 -0.75,2.082231 -3.19373,0.350162 -7.37206,1.19565 -10.75,2.175268 -2.2,0.638011 -4.45,1.188436 -5,1.223166 -0.55,0.03473 -2.35,0.566637 -4,1.182013 -6.591,2.458148 -18.59906,5.274059 -29.75,6.976427 -6.4625,0.986603 -11.75,2.194559 -11.75,2.684348 0,0.489789 0.77944,0.591427 1.73208,0.225862 2.59649,-0.996366 20.46679,-0.750445 21.51329,0.296054 0.92374,0.923736 4.43885,0.381456 10.75463,-1.65913 z M 167.5,59.927611 c 2.75,-1.05817 7.25,-2.381372 10,-2.94045 7.99723,-1.625843 8.89398,-1.85295 21.43649,-5.428895 6.56219,-1.870917 13.42351,-4.048663 15.24738,-4.839435 1.82387,-0.790772 4.66613,-1.982605 6.31613,-2.648517 3.74088,-1.509756 14.39814,-8.330719 14.45668,-9.252701 0.0238,-0.375313 -1.64418,-0.513283 -3.70668,-0.306599 -3.3057,0.331266 -6.46025,1.34595 -13.75,4.42279 -2.59968,1.097266 -13.66534,3.959676 -19.81922,5.126734 -2.65564,0.503632 -6.25771,1.552853 -8.00461,2.331601 C 185.12656,48.420311 171.23046,53 169.62601,53 c -0.74596,0 -2.42948,0.841357 -3.74115,1.869682 -1.31167,1.028325 -3.95986,2.205284 -5.88486,2.615464 -4.04533,0.861983 -9.08417,3.569652 -8.47555,4.554421 0.74115,1.199204 10.84001,-0.135858 15.97555,-2.111956 z m 693,0.100969 c 4.34353,-0.128581 4.81993,-1.337876 2.91176,-7.391263 -2.11377,-6.705656 -5.64957,-10.607867 -8.17078,-9.017524 -3.10949,1.961414 -6.7897,16.498153 -4.70464,18.58321 0.29498,0.294985 2.20748,-0.06026 4.25,-0.78944 C 856.82885,60.684385 859.4,60.061143 860.5,60.02858 Z M 37,253.27442 c -0.825,-0.31223 -1.837901,-1.13746 -2.25089,-1.83385 -0.577581,-0.97393 -1.426834,-1.01103 -3.679513,-0.16074 -2.178522,0.8223 -3.594181,0.80218 -5.527174,-0.0786 -2.892162,-1.31775 -4.558433,-4.36261 -2.722333,-4.97464 C 23.46904,246.01032 24,245.06083 24,244.11667 24,243.1725 24.54,241.86 25.2,241.2 c 1.455595,-1.45559 5.445713,-1.58227 6.3,-0.2 0.339919,0.55 1.906861,1 3.482094,1 1.864867,0 3.937515,1.07346 5.940983,3.07692 3.250287,3.25029 4.189917,6.56415 1.576923,5.56145 -1.342055,-0.51499 -1.955736,0.4753 -1.618421,2.61163 0.13463,0.85266 -1.663236,0.86397 -3.881579,0.0244 z m 938.70885,-2.8989 c -1.40483,-1.40483 -0.6687,-5.32664 1.18614,-6.31932 2.41809,-1.29412 4.27889,0.70909 3.77397,4.06279 -0.35137,2.33387 -3.46587,3.75076 -4.96011,2.25653 z m -22.63911,-28.24521 c -1.58554,-2.96261 -1.30599,-4.9335 0.86452,-6.09513 3.17728,-1.70042 5.06717,-1.24583 5.05043,1.21482 -0.0169,2.48165 -0.65226,3.59874 -3.16495,5.56457 -1.43298,1.1211 -1.8377,1.02039 -2.75,-0.68426 z m -37.1272,-5.23767 c -1.33859,-2.50118 -0.0687,-4.25364 2.70124,-3.72787 1.16558,0.22124 1.97395,1.37233 2.17264,3.09378 0.25309,2.19269 -0.0902,2.74145 -1.71481,2.74145 -1.11719,0 -2.53876,-0.94831 -3.15907,-2.10736 z M 424.66667,184.33333 C 424.3,183.96667 424,182.84167 424,181.83333 424,180.54444 424.74242,180 426.5,180 c 2.87644,0 3.58107,3.37118 0.91821,4.39301 -1.95858,0.75158 -1.93988,0.75199 -2.75154,-0.0597 z" id="path12"/>
</svg>
