<?xml version="1.0" encoding="UTF-8" standalone="no"?>
<!-- Created with Inkscape (http://www.inkscape.org/) -->

<svg
   xmlns:dc="http://purl.org/dc/elements/1.1/"
   xmlns:cc="http://creativecommons.org/ns#"
   xmlns:rdf="http://www.w3.org/1999/02/22-rdf-syntax-ns#"
   xmlns:svg="http://www.w3.org/2000/svg"
   xmlns="http://www.w3.org/2000/svg"
   xmlns:sodipodi="http://sodipodi.sourceforge.net/DTD/sodipodi-0.dtd"
   xmlns:inkscape="http://www.inkscape.org/namespaces/inkscape"
   version="1.1"
   id="svg2"
   width="1141"
   height="479"
   viewBox="0 0 1141 479"
   sodipodi:docname="illustration-limerick-43.svg"
   inkscape:version="0.92.4 (5da689c313, 2019-01-14)">
  <metadata
     id="metadata8">
    <rdf:RDF>
      <cc:Work
         rdf:about="">
        <dc:format>image/svg+xml</dc:format>
        <dc:type
           rdf:resource="http://purl.org/dc/dcmitype/StillImage" />
        <dc:title></dc:title>
      </cc:Work>
    </rdf:RDF>
  </metadata>
  <defs
     id="defs6" />
  <sodipodi:namedview
     pagecolor="#ffffff"
     bordercolor="#666666"
     borderopacity="1"
     objecttolerance="10"
     gridtolerance="10"
     guidetolerance="10"
     inkscape:pageopacity="0"
     inkscape:pageshadow="2"
     inkscape:window-width="1920"
     inkscape:window-height="1010"
     id="namedview4"
     showgrid="false"
     inkscape:zoom="1.0758434"
     inkscape:cx="575.75806"
     inkscape:cy="239.5"
     inkscape:window-x="0"
     inkscape:window-y="0"
     inkscape:window-maximized="1"
     inkscape:current-layer="svg2" />
  <path
     style="fill:#000000"
     d="m 1097.3361,457.93612 c -0.5851,-0.58514 -5.5126,-1.22014 -10.95,-1.41111 -5.4373,-0.19098 -13.4861,-0.91992 -17.8861,-1.61987 -8.5612,-1.36192 -38.8842,-1.57248 -54,-0.37499 -4.95,0.39215 -11.025,0.59097 -13.5,0.44184 -2.475,-0.14914 -8.775,-0.42366 -14,-0.61005 -21.20481,-0.75642 -32.52634,-1.27012 -33,-1.49735 -0.275,-0.13192 -3.875,-0.33629 -8,-0.45414 -4.125,-0.11785 -11.775,-0.48933 -17,-0.82552 -5.225,-0.33618 -16.475,-0.81848 -25,-1.07177 -8.525,-0.25329 -17.075,-0.53305 -19,-0.62169 -1.925,-0.0886 -10.025,0.17371 -18,0.58299 -7.975,0.40929 -25.75,0.88769 -39.5,1.06312 -13.75,0.17543 -27.25,0.56166 -30,0.8583 -20.22344,2.18145 -70.18931,3.35796 -85.68242,2.01749 -7.22049,-0.62471 -8.30651,-1.29753 -7.28572,-4.51374 0.40179,-1.26593 0.8096,-3.93224 0.90625,-5.92513 0.20565,-4.24041 2.67174,-8.04382 11.02784,-17.00805 3.34967,-3.59346 7.39576,-8.76846 8.9913,-11.5 1.59555,-2.73155 4.3108,-6.99145 6.0339,-9.46645 1.72309,-2.475 3.44197,-5.32297 3.81973,-6.32881 0.37776,-1.00585 2.20979,-4.15585 4.07118,-7 7.59093,-11.59876 27.40441,-45.47067 29.02158,-49.61352 2.25861,-5.78608 4.75357,-9.22795 12.07996,-16.66471 7.40274,-7.51426 13.14985,-15.69879 17.47961,-24.89296 3.87862,-8.23619 7.31217,-21.46327 5.98625,-23.0609 -0.49705,-0.59891 -3.27652,-2.28687 -6.17659,-3.75104 -7.30566,-3.6884 -17.80638,-3.77769 -21.77609,-0.18515 -1.49302,1.35117 -2.28309,1.50437 -3.32003,0.64378 -0.74842,-0.62114 -1.6584,-0.83171 -2.02216,-0.46794 -0.36377,0.36376 -2.57237,0.73258 -4.90799,0.8196 -2.33563,0.087 -6.9466,0.44386 -10.2466,0.793 -3.3,0.34914 -9.825,0.89432 -14.5,1.21152 -21.42912,1.45392 -24.68363,3.01357 -30.56318,14.64668 -3.18063,6.29309 -5.095,13.70663 -6.1588,23.85045 -0.90231,8.60388 -2.80298,6.99963 -2.36954,-2 0.0662,-1.375 -0.29855,-4.975 -0.8106,-8 -0.79509,-4.69703 -0.6512,-5.98283 0.98556,-8.80716 1.05411,-1.81894 1.91656,-3.94713 1.91656,-4.7293 0,-0.78218 1.51561,-4.24396 3.36802,-7.69284 5.2137,-9.70703 12.21723,-12.33481 35.49612,-13.31838 5.84972,-0.24716 12.88586,-0.88213 15.63586,-1.41104 2.75,-0.52892 9.5,-1.47115 15,-2.09387 5.5,-0.62271 10.1976,-1.32573 10.43912,-1.56226 0.24152,-0.23653 -2.524,-3.32122 -6.14559,-6.85486 -3.9486,-3.8527 -7.76042,-8.77759 -9.52148,-12.30179 -1.61522,-3.23234 -3.25925,-6.39878 -3.6534,-7.03652 C 763.82666,238.91051 742,249.28313 742,250.94097 c 0,0.90337 -3.00645,2.19975 -6,2.5872 -2.47412,0.32022 -5.21605,1.63203 -10.83565,5.18403 -2.9346,1.85489 -7.2096,4.0818 -9.5,4.94868 -5.28266,1.99941 -14.16875,11.11113 -15.02856,15.41016 C 700.28611,280.81947 700,284.21875 700,286.625 c 0,2.83133 -0.44105,4.37632 -1.25,4.37875 -1.25701,0.004 -3.59008,5.0713 -5.75322,12.49625 -0.64094,2.2 -1.60692,5.35 -2.14663,7 -0.53971,1.65 -1.63503,5.475 -2.43405,8.5 -0.79902,3.025 -2.09611,6.85 -2.88242,8.5 -0.78632,1.65 -2.55538,5.475 -3.93125,8.5 -1.37587,3.025 -3.97061,7.43447 -5.76609,9.79883 -3.56038,4.68844 -3.21814,7.39082 1.01579,8.02072 1.33387,0.19845 2.14787,1.04167 2.14787,2.225 0,1.94901 -0.72905,1.98086 -8.70999,0.38056 -3.68944,-0.73978 -5.16903,4.60588 -2.24875,8.1246 1.88296,2.26883 5.7142,1.75313 7.52672,-1.01312 1.52946,-2.33425 1.74039,-2.38065 4.02305,-0.88499 2.77338,1.81719 2.68178,2.04476 2.88009,-7.15569 0.11435,-5.30518 0.8032,-8.38279 2.83992,-12.68807 1.47893,-3.1262 2.68896,-5.90399 2.68896,-6.17288 0,-0.2689 1.49756,-3.78426 3.32791,-7.81193 1.83035,-4.02767 3.91697,-8.80249 4.63693,-10.61072 0.71996,-1.80823 1.8099,-3.10983 2.42209,-2.89244 1.54566,0.54887 1.05292,8.07435 -0.74785,11.42171 -3.58745,6.66853 -10.7845,22.41723 -11.17778,24.45939 -0.23725,1.23191 0.0918,3.68666 0.73126,5.45501 0.88336,2.44289 0.88345,4.14695 3.7e-4,7.0944 -0.97546,3.25582 -1.94615,4.23352 -6.04008,6.08374 -7.09614,3.20706 -8.62613,5.28458 -8.36202,11.35454 0.19688,4.52489 -0.14877,5.46514 -3.2854,8.93701 -1.92799,2.13405 -3.50543,4.35174 -3.50543,4.92819 0,1.86208 -7.43088,7.93644 -9.71482,7.94136 -3.14952,0.007 -4.63253,-3.41455 -3.95602,-9.12664 0.31351,-2.64707 0.16574,-5.06271 -0.32837,-5.36809 -0.49411,-0.30538 -3.89337,-0.0768 -7.55392,0.508 -4.40684,0.70399 -7.05914,0.72826 -7.8501,0.0718 -0.65701,-0.54527 -2.52256,-0.87137 -4.14567,-0.72468 -1.6231,0.1467 -5.4261,-0.27894 -8.4511,-0.94586 -3.025,-0.66692 -9.775,-1.50187 -15,-1.85544 -5.225,-0.35356 -11.975,-0.85899 -15,-1.12316 -3.025,-0.26417 -23.83591,-0.56727 -46.24648,-0.67355 -32.12521,-0.15235 -40.48274,-0.45192 -39.5,-1.41584 0.93716,-0.91921 3.71965,-1.00773 11.21254,-0.35671 5.48134,0.47624 10.31884,0.64787 10.75,0.3814 1.08578,-0.67105 0.98775,-3.36647 -0.12244,-3.36647 -0.49851,0 -0.66014,-0.94164 -0.35917,-2.09253 0.52937,-2.02432 0.27369,-2.07861 -7.84362,-1.66572 -4.61496,0.23475 -9.74083,0.072 -11.39083,-0.36166 -1.65,-0.43366 -12.45,-1.00488 -24,-1.26937 -11.55,-0.26449 -24.0312,-0.96774 -27.73599,-1.56276 -7.39741,-1.18809 -12.66486,-1.14119 -14.36512,0.12791 -1.40525,1.0489 -4.83028,1.1923 -9.89889,0.41446 -2.2,-0.33762 -10.3,-0.83821 -18,-1.11241 -17.20912,-0.61284 -25.7256,-1.62274 -26.21483,-3.10858 -0.55185,-1.67605 3.15645,-2.18259 13.21483,-1.80507 18.16055,0.6816 38.0729,0.65427 40.75871,-0.056 3.25311,-0.86023 3.37404,-1.28329 4.71875,-16.50831 1.28605,-14.56084 1.28954,-23.85856 0.0127,-33.70915 -0.55544,-4.28497 -1.45613,-11.16585 -2.00152,-15.29085 -0.96921,-7.33046 -2.29158,-22.01413 -2.25143,-25 0.0358,-2.66154 -3.67593,-20.01708 -4.68359,-21.89991 -2.15752,-4.03136 0.53769,-5.14574 17.27224,-7.1415 8.65249,-1.03189 16.12365,-2.11834 16.60256,-2.41432 0.47891,-0.29598 4.32441,-0.7666 8.54554,-1.04582 8.82071,-0.58347 10.5427,-1.30092 13.8294,-5.76188 2.70622,-3.67308 7.25937,-14.51697 8.27326,-19.70375 0.37276,-1.90694 1.04543,-4.15694 1.49482,-5 0.84767,-1.59022 4.08281,-12.64792 8.4941,-29.03282 5.837,-21.68041 7.18547,-23.35801 15.78338,-19.63582 1.73312,0.7503 5.17613,2.13485 7.65113,3.07677 2.475,0.94192 6.75,2.78387 9.5,4.09322 2.75,1.30935 6.125,2.67486 7.5,3.03446 1.375,0.35961 4.00929,1.35226 5.85399,2.20589 2.69331,1.24633 3.97369,1.32822 6.5,0.41576 1.7303,-0.62496 4.04601,-0.9174 5.14601,-0.64986 1.39335,0.33888 4.27494,-1.35676 9.5,-5.59017 12.27158,-9.9426 20.42759,-15.64105 21.7538,-15.19898 1.90834,0.63611 1.52332,3.30424 -1.86014,12.8903 -1.70849,4.84051 -3.27508,9.73149 -3.48133,10.86885 -0.20624,1.13737 -1.24616,4.60004 -2.31092,7.69483 -1.06476,3.09479 -1.68576,5.87707 -1.37998,6.18284 0.30577,0.30578 -0.61209,1.00004 -2.0397,1.54281 -1.87385,0.71244 -4.01571,0.56515 -7.70242,-0.52968 -4.20664,-1.24924 -6.10906,-1.31102 -10.79304,-0.35051 -3.12745,0.64133 -6.21281,1.59253 -6.85636,2.11379 -0.64354,0.52126 -4.21035,1.16994 -7.92623,1.44152 -3.71588,0.27158 -7.18382,0.7581 -7.70654,1.08116 -0.52271,0.32305 -4.00735,0.51022 -7.74363,0.41593 -6.88739,-0.17381 -7.74691,0.22779 -8.46471,3.95506 -0.45036,2.33853 -2.2816,29.59076 -2.95272,43.94183 -0.46009,9.8386 -2.76539,18.50193 -6.30372,23.68948 C 516.82134,284.48695 515.55016,288 519.96862,288 c 2.07267,0 2.81065,2.40035 1.06893,3.47679 -0.84496,0.52222 -12.43863,-0.95595 -15.77069,-2.01073 -2.56601,-0.81228 -0.0356,-3.46606 3.30495,-3.46606 2.40034,0 3.68215,-0.60602 4.49523,-2.12527 0.62558,-1.1689 2.62094,-4.0688 4.43414,-6.44422 3.46609,-4.54082 8.88122,-19.50855 9.9574,-27.52281 0.33917,-2.52577 0.78539,-5.67577 0.9916,-7 0.20621,-1.32424 0.66456,-10.25407 1.01855,-19.84409 0.354,-9.59001 0.81882,-17.71985 1.03294,-18.06631 0.65187,-1.05475 0.86875,-34.96021 0.22773,-35.60123 -1.36359,-1.3636 -7.73479,-1.54194 -8.13288,-0.22766 -0.22183,0.73237 -1.1744,4.70659 -2.11682,8.83159 -1.57118,6.87711 -5.59074,21.00474 -11.80749,41.5 -1.33464,4.4 -3.88214,11.45862 -5.66112,15.68582 -3.11533,7.40264 -3.44224,7.7847 -8.8728,10.36957 -9.15873,4.35943 -12.4151,5.23789 -22.27597,6.00929 -10.47206,0.81922 -9.99721,0.77111 -18.64899,1.88938 l -6.28667,0.81257 0.45259,3.61668 c 0.61386,4.9055 1.37945,8.09611 2.72556,11.35885 0.62224,1.5082 0.9018,3.94294 0.62125,5.41054 -0.28055,1.46761 -0.12599,3.83363 0.34347,5.25784 0.46947,1.4242 1.31759,6.86446 1.88472,12.08946 0.56713,5.225 1.26719,10.625 1.55568,12 1.34668,6.41841 -0.35549,54.1789 -1.98914,55.81255 -0.19662,0.19661 0.0804,1.61347 0.6155,3.14857 1.12807,3.23599 4.57396,4.06989 18.86371,4.56497 4.675,0.16197 11.02523,0.51559 14.11161,0.78582 5.5942,0.48981 5.62135,0.47866 8.75,-3.59207 1.72612,-2.24588 3.13839,-4.49464 3.13839,-4.99725 0,-0.50262 0.82265,-2.10832 1.8281,-3.56822 1.00546,-1.4599 2.408,-5.35437 3.11677,-8.65437 0.70876,-3.3 1.86755,-7.13093 2.5751,-8.51317 0.70755,-1.38225 1.60945,-4.66705 2.00422,-7.29955 0.39476,-2.6325 1.30489,-5.37351 2.02251,-6.09112 0.71761,-0.71761 4.15067,-1.62062 7.62902,-2.00668 3.47836,-0.38607 8.12428,-0.90444 10.32428,-1.15194 13.92091,-1.56613 25.13578,-4.98296 45,-13.71013 l 10,-4.39341 -0.29314,-10.917 c -0.16123,-6.00435 -0.51365,-11.65597 -0.78316,-12.55915 -0.53306,-1.78641 -0.0585,-1.88162 -14.9237,2.99419 -8.03981,2.63706 -17.32532,5.06261 -21,5.48558 -1.65,0.18993 -3.675,0.63917 -4.5,0.99832 -2.18446,0.95098 -13.19372,2.2905 -15.30534,1.86224 -0.99294,-0.20138 -1.6324,-0.89085 -1.42103,-1.53216 0.78355,-2.37734 5.19922,-3.76494 10.46287,-3.2879 2.88007,0.26103 5.49413,0.0577 5.80902,-0.45177 0.31488,-0.50949 1.46271,-0.92635 2.55073,-0.92635 1.08802,0 7.92396,-2.01101 15.19098,-4.4689 17.78629,-6.01578 25.26386,-7.66165 29.96021,-6.59445 4.02451,0.91453 9.69271,4.3051 19.25256,11.51636 3.3,2.48928 6.45,4.5407 7,4.55871 0.55,0.018 2.125,0.91274 3.5,1.98828 3.13956,2.4558 5.34948,2.49638 8.79049,0.16142 1.49023,-1.01122 5.63451,-3.78109 9.20951,-6.15528 3.575,-2.37418 7.92362,-5.64741 9.66359,-7.27383 5.70897,-5.33641 6.54598,-1.3173 2.37297,11.39433 -1.06681,3.24967 -2.50615,10.44772 -3.19854,15.99568 -1.16612,9.34392 -1.44524,10.15805 -3.78804,11.04878 -3.9364,1.49661 -8.77951,0.11375 -11.23544,-3.20808 -2.06582,-2.79417 -2.27282,-2.85826 -4.04675,-1.25287 -2.7669,2.50401 -19.72797,2.53406 -22.48845,0.0399 -1.06525,-0.9625 -2.28338,-1.75 -2.70695,-1.75 -0.42357,0 -2.18814,-0.61176 -3.92126,-1.35947 -10.50358,-4.53148 -10.49288,-4.53096 -15.97095,-0.77269 -2.2991,1.57731 -6.20518,3.84185 -8.68018,5.03232 -2.475,1.19047 -5.85,2.96676 -7.5,3.9473 -6.07947,3.61286 -34.5109,10.86812 -38.27418,9.76699 -0.9492,-0.27773 -4.65082,0.0362 -8.22582,0.6976 l -6.5,1.20257 -0.64946,3.99269 c -2.90558,17.86275 -3.60465,20.60205 -5.87418,23.01785 -2.40032,2.55503 -2.74848,3.42887 -3.67541,9.22484 -0.42721,2.67128 -0.18866,3.26362 1.33964,3.32651 1.02268,0.0421 2.75941,0.27662 3.85941,0.52119 1.92577,0.42818 5.94499,0.79405 21,1.91167 3.85,0.2858 9.475,0.71697 12.5,0.95816 4.81287,0.38373 23.82877,0.80751 28,0.624 7.39663,-0.32541 38.71173,1.23648 39.45,1.96763 1.2691,1.25686 -0.89193,3.40378 -2.45424,2.43822 -0.64817,-0.40059 -11.14988,-0.86087 -23.33713,-1.02283 C 569.47138,377.31259 554.1,376.88856 547.5,376.53226 c -9.54713,-0.5154 -12.39092,-0.35896 -13.91248,0.76535 -1.25515,0.92746 -1.67876,2.02225 -1.23247,3.18525 0.60099,1.56617 1.63662,1.70456 8.91248,1.19103 13.46641,-0.95045 38.01043,-0.82286 57.44719,0.29864 10.01809,0.57805 18.56809,0.97188 19,0.87519 0.4319,-0.0967 1.91028,0.11629 3.28528,0.47328 1.375,0.35699 4.975,0.84854 8,1.09233 3.025,0.24379 9.1,0.7542 13.5,1.13425 7.459,0.64427 8.13525,0.54058 10,-1.53328 1.1,-1.22335 1.90045,-2.51453 1.77877,-2.86929 -0.52066,-1.51807 1.92175,-8.1614 4.27596,-11.63052 1.40334,-2.06793 2.91699,-5.71612 3.36367,-8.10709 0.44668,-2.39097 1.66027,-5.53586 2.69687,-6.98864 7.15397,-10.02622 15.10838,-25.55258 18.40178,-35.91876 1.22317,-3.85 2.79588,-8.35 3.4949,-10 0.69903,-1.65 1.83153,-5.14909 2.51668,-7.77576 0.68514,-2.62667 1.63399,-5.01573 2.10854,-5.30902 C 691.61173,295.12193 692,294.0297 692,292.98804 692,290.01295 694.17387,286 695.78552,286 c 1.07724,0 1.31354,-0.7547 0.89365,-2.85414 -0.37615,-1.88078 0.34855,-5.11711 2.125,-9.48971 2.58216,-6.35577 3.05332,-6.8679 11.17396,-12.14585 4.66297,-3.03067 8.80567,-5.5103 9.206,-5.5103 0.40032,0 2.92916,-1.29793 5.61964,-2.8843 2.69048,-1.58636 5.93703,-3.21604 7.21455,-3.62151 1.27752,-0.40547 4.60852,-2.18464 7.40222,-3.9537 2.7937,-1.76907 8.00446,-4.58796 11.57946,-6.26422 3.575,-1.67625 7.33268,-3.97201 8.3504,-5.10168 1.73615,-1.92713 1.75461,-2.35097 0.29901,-6.86427 -0.85327,-2.64568 -1.83728,-6.61032 -2.18671,-8.81032 -0.34942,-2.2 -1.72148,-6.3748 -3.04901,-9.27734 C 753.08616,206.32013 752,202.45763 752,200.63933 c 0,-1.8183 -0.3375,-3.6435 -0.75,-4.056 -0.4125,-0.4125 -0.7813,-1.05 -0.81955,-1.41666 C 750.3922,194.8 749.75928,192.475 749.02396,190 c -0.73532,-2.475 -1.42325,-5.175 -1.52874,-6 -0.35371,-2.76624 -2.73216,-10.46202 -4.48136,-14.5 -0.95301,-2.2 -3.00117,-6.925 -4.55146,-10.5 -4.63416,-10.68645 -7.72144,-13 -17.34764,-13 -3.29151,0 -7.11656,-0.43039 -8.50012,-0.95642 -1.38356,-0.52602 -5.68167,-1.19166 -9.55135,-1.47919 -6.34171,-0.47122 -7.40706,-0.27328 -10.79953,2.00653 -5.3179,3.57372 -17.2558,14.48476 -17.3044,15.81592 -0.0223,0.61224 -1.37235,2.67116 -3,4.57539 -1.62765,1.90422 -2.95936,4.50965 -2.95936,5.78983 0,3.37655 -3.62328,9.955 -6.53313,11.8616 -2.00669,1.31484 -3.93754,1.51634 -9.66895,1.00907 -6.47759,-0.57332 -7.42658,-0.94371 -9.93651,-3.87829 -1.52622,-1.78444 -3.5027,-4.81944 -4.39218,-6.74444 -0.88947,-1.925 -2.70513,-5.57893 -4.0348,-8.11984 -5.03566,-9.62286 -3.17834,-20.15603 7.34426,-41.65055 L 648.5,110.5 l -0.25478,-18 c -0.14839,-10.483088 0.21431,-20.288231 0.86852,-23.479399 1.30449,-6.363218 6.04893,-13.713672 14.56766,-22.569358 8.26295,-8.589791 8.42418,-8.837425 9.89923,-15.20368 2.81009,-12.128249 4.12729,-15.745496 5.85768,-16.086119 2.87784,-0.5665 6.56169,0.784982 6.56169,2.407268 0,1.360616 2.54115,7.147318 3.6962,8.41698 0.24302,0.267131 2.3582,-1.723288 4.7004,-4.423154 2.83837,-3.271799 4.77425,-4.710953 5.80494,-4.315443 C 701.72223,17.830638 707,32.356386 707,35.958155 707,38.01365 713.30347,44 715.46785,44 c 0.76904,0 3.05759,-2.025 5.08566,-4.5 3.89325,-4.751198 5.72256,-5.36213 8.88762,-2.968197 C 730.50875,37.339312 732.58556,38 734.05627,38 c 1.47071,0 3.75237,0.7875 5.07035,1.75 3.79986,2.774959 6.13929,4.182538 9.58731,5.768454 1.76767,0.813036 3.696,2.378989 4.28519,3.479896 C 753.592,50.106161 755.09319,51 756.36087,51 c 1.25978,0 3.34738,1.125 4.63913,2.5 1.29175,1.375 2.90593,2.5 3.58707,2.5 1.11527,0 7.31295,5.292887 15.80776,13.5 2.79956,2.704736 7.61494,10.800372 7.60795,12.790493 -0.002,0.43477 0.89427,2.00977 1.99067,3.5 1.59321,2.165487 2.06769,4.685132 2.36318,12.549158 0.3623,9.642069 0.44332,9.927699 4.03504,14.224549 8.20297,9.81338 17.32928,11.7201 34.10833,7.12612 4.95,-1.35528 10.16615,-2.92676 11.59145,-3.4922 1.4253,-0.56543 3.9003,-1.25995 5.5,-1.54338 4.39935,-0.77945 13.44506,-3.31792 18.44882,-5.17722 2.45285,-0.91144 7.38473,-2.26427 10.95973,-3.0063 3.575,-0.74203 9.2,-2.14935 12.5,-3.12738 3.48826,-1.03382 9.13968,-1.76555 13.5,-1.74795 10.01866,0.0405 24.74642,1.12935 26.03345,1.92478 0.56947,0.35196 3.99681,1.05931 7.61632,1.57189 3.6195,0.51259 7.09151,1.2513 7.71557,1.64159 0.62406,0.39028 1.58466,0.78342 2.13466,0.87364 7.39952,1.21372 24.97905,8.3235 28.47448,11.51608 1.73192,1.58187 3.28638,2.87613 3.45435,2.87613 0.16797,0 1.48386,-1.78078 2.9242,-3.95728 5.58331,-8.43694 9.90745,-7.05088 9.44614,3.02788 -0.14753,3.22318 0.17481,6.2703 0.7163,6.77137 0.54149,0.50107 3.68453,1.89785 6.98453,3.10394 3.3,1.2061 7.125,3.21929 8.5,4.47375 1.375,1.25447 4.374,3.00417 6.6644,3.88823 2.2903,0.88406 6.5653,3.11044 9.5,4.94751 2.9346,1.83707 7.3606,4.20621 9.8356,5.26476 2.475,1.05855 4.725,2.2038 5,2.54499 1.3033,1.61703 7.1265,1.67773 12.0866,0.12598 4.8389,-1.51378 6.7313,-3.07312 17.8311,-14.69232 9.6517,-10.1035 12.9928,-12.99881 15,-12.99881 2.0874,0 2.6441,0.5386 2.9046,2.81047 0.1772,1.54576 -0.2061,3.44704 -0.8518,4.22508 -0.9438,1.13725 -0.6639,1.64702 1.4277,2.60004 2.5981,1.18375 2.9762,1.89574 2.6691,5.02582 -0.09,0.91378 0.3085,1.95283 0.8849,2.30902 1.8817,1.163 1.1026,4.44759 -1.4522,6.12153 -1.375,0.90093 -2.5,2.26131 -2.5,3.02305 0,1.17505 -1.4718,3.19884 -4.8,6.60041 -0.385,0.39348 -3.9625,3.73771 -7.95,7.43161 -8.0071,7.41754 -8.4145,8.61531 -5.5619,16.35297 2.3842,6.46733 2.3473,38.07807 -0.05,42.5 -0.8944,1.65 -1.629,3.48808 -1.6323,4.08462 0,0.59655 -1.8062,5.50847 -4.0062,10.91538 -2.2,5.40691 -4,10.17601 -4,10.59799 0,0.42198 0.8514,1.03746 1.892,1.36774 1.0406,0.33028 2.1441,1.3731 2.4522,2.31739 0.6691,2.05055 7.5009,14.58242 10.0626,18.45829 0.9966,1.50778 2.1648,2.52334 2.5961,2.25679 0.4313,-0.26654 2.622,0.16382 4.8683,0.95636 2.2463,0.79254 5.9264,1.6252 8.1779,1.85035 4.5537,0.45537 7.2394,2.54428 7.6406,5.9427 1.0915,9.2467 2.2755,16.85375 3.152,20.25239 1.1436,4.43374 3.3132,25.64675 3.5817,35.01854 0.095,3.31019 0.5092,6.56339 0.9208,7.22933 0.869,1.40618 2.8033,15.44167 2.6931,19.54149 -0.041,1.53415 1.2385,5.80915 2.844,9.5 3.1177,7.16731 5.3187,16.27355 5.3187,22.00511 0,3.42304 -1.6151,5.29577 -5.0377,5.84115 -0.7358,0.11724 -2.191,0.98534 -3.2338,1.92912 -2.0412,1.8472 -1.8582,4.49652 0.6782,9.81993 0.7634,1.60243 1.1322,4.26943 0.8295,6 -0.652,3.72782 -3.1886,7.8864 -4.3664,7.15844 -0.4633,-0.28634 -1.0883,0.4196 -1.3888,1.56875 -0.3005,1.14916 -1.0229,1.79487 -1.6053,1.43493 -0.5824,-0.35994 -3.0053,0.68474 -5.3843,2.32151 -4.4797,3.08213 -5.6649,3.02343 -7.4368,-0.3683 -1.3575,-2.59832 0.5411,-14.04687 3.6102,-21.76962 2.3213,-5.84133 4.1489,-16.17215 3.6467,-20.61433 -0.287,-2.53883 -0.7141,-10.57238 -0.9492,-17.85235 -0.235,-7.27996 -0.7263,-13.72004 -1.0917,-14.31129 -0.3654,-0.59124 -0.8671,-2.50991 -1.1148,-4.2637 -0.2478,-1.75379 -1.6129,-6.44688 -3.0336,-10.42908 -2.0876,-5.85151 -2.3461,-7.52596 -1.3475,-8.72919 1.0267,-1.23708 0.048,-2.97175 -5.7884,-10.25962 -3.8632,-4.82395 -10.9735,-12.37082 -15.8005,-16.77082 -9.4048,-8.57275 -9.3644,-8.54304 -17.4969,-12.86168 -2.9639,-1.57393 -7.6389,-4.56749 -10.3889,-6.65236 -2.75,-2.08486 -6.4045,-4.62211 -8.121,-5.63831 -1.7166,-1.01621 -7.7683,-5.22265 -13.4483,-9.34765 -5.68,-4.125 -10.9572,-7.88458 -11.7271,-8.35462 -2.1835,-1.33299 -8.14981,2.38865 -10.18743,6.35462 -2.00453,3.90157 -5.68773,20.30918 -6.60827,29.43794 -0.47894,4.74951 -1.14967,6.45072 -3.35129,8.5 C 981.602,310.22234 971.62003,314 968.03801,314 c -2.38365,0 -12.34431,3.18855 -18.03841,5.77437 -3.025,1.37371 -7.25834,2.64229 -9.40742,2.81907 -2.14909,0.17677 -4.37659,0.79057 -4.95,1.36398 C 935.06916,324.53084 933.565,325 932.3,325 c -1.265,0 -3.27911,0.97911 -4.4758,2.1758 -1.19669,1.19669 -5.58419,3.38617 -9.75,4.8655 -4.16581,1.47933 -12.2992,4.94763 -18.0742,7.70732 -5.775,2.75969 -11.625,5.35029 -13,5.75689 -3.73102,1.10329 -4.69728,2.1614 -7.6223,8.34685 -5.11597,10.8186 -6.92407,12.99066 -11.10114,13.33569 -3.03439,0.25065 -3.83913,0.75239 -4.09496,2.55315 -0.17512,1.23267 -1.21581,2.86978 -2.31266,3.63804 -1.36323,0.95485 -2.11065,2.82515 -2.36208,5.91075 -0.88614,10.87471 -3.84421,16.24923 -11.00686,19.99836 -9.98048,5.22406 -15.20671,1.03299 -11.99973,-9.62298 1.62942,-5.41417 6.07397,-13.52213 8.5873,-15.66537 0.96746,-0.825 3.31395,-5.38959 5.21444,-10.14354 C 854.1177,354.31171 859.32927,346 861.49827,346 c 0.7712,0 3.02307,-1.93909 5.00414,-4.30909 3.77386,-4.51474 4.4692,-4.91158 32.86482,-18.75631 11.73244,-5.72034 16.42667,-8.47044 15.42003,-9.03378 -1.32533,-0.74169 -6.8107,-1.65469 -10.99195,-1.82954 -1.12345,-0.047 -1.92186,-1.22895 -2.34165,-3.46659 -0.8864,-4.72492 1.67886,-8.23501 8.19744,-11.21667 5.5536,-2.54027 6.68641,-3.8743 7.65944,-9.01996 0.77349,-4.09047 0.28802,-4.42186 -4.12244,-2.81411 -2.02846,0.73943 -8.28634,2.7665 -13.90642,4.5046 -12.34291,3.81724 -12.54793,4.00803 -13.90582,12.94145 -0.89541,5.89081 -3.73499,10.35317 -7.8393,12.31938 -2.40552,1.15238 -4.14699,1.47019 -4.75028,0.8669 -1.06721,-1.06721 -0.61589,-14.78753 0.5695,-17.31291 0.66792,-1.42297 0.23802,-1.53054 -3.4334,-0.85918 -2.3083,0.42211 -5.57964,0.3709 -7.26964,-0.11378 -1.69001,-0.48469 -5.34074,-0.85201 -8.11274,-0.81628 -2.772,0.0357 -7.46392,-0.41857 -10.42649,-1.00958 -12.18107,-2.43001 -13.27904,-1.91282 -22.13274,10.42545 -2.36801,3.3 -6.2591,8.12002 -8.64687,10.71116 -2.38776,2.59114 -4.88595,5.96614 -5.55153,7.5 -0.66558,1.53386 -2.26959,3.89339 -3.56445,5.2434 -1.98733,2.07195 -6.21792,9.84188 -6.21792,11.41986 0,0.46963 -5.6649,8.81425 -10.40773,15.33101 -1.28308,1.76299 -3.74124,4.39049 -5.46258,5.83889 -1.72133,1.44841 -3.12969,3.2796 -3.12969,4.06932 0,0.78973 -1.04381,1.83272 -2.31957,2.31776 -8.12789,3.09022 -26.5434,29.9733 -32.14066,46.91917 -2.19171,6.63544 -8.82176,16.78677 -11.52395,17.64441 -1.28049,0.40641 -2.01582,1.5118 -2.01582,3.0303 0,1.42163 -1.62197,4.09555 -4.0019,6.59738 -2.20105,2.31378 -3.76014,4.44863 -3.46466,4.74412 0.29549,0.29548 2.65884,0.60261 5.2519,0.68251 2.59306,0.0799 8.53966,0.49123 13.21466,0.91407 4.675,0.42285 9.175,0.71165 10,0.64177 0.825,-0.0699 10.275,-0.27192 21,-0.44897 18.75674,-0.30964 32.52374,-1.24378 34.27421,-2.32563 1.12805,-0.69717 39.20087,-1.44603 66.22579,-1.3026 19.17465,0.10177 35.81025,-0.0412 46,-0.39535 1.65,-0.0573 9.075,0.28521 16.5,0.76124 18.71912,1.2001 19.18937,1.24267 22,1.99155 3.22815,0.86014 49.2025,1.05288 59,0.24735 9.0646,-0.74527 21.261,-0.78703 38,-0.13011 37.88,1.48658 45.0519,1.52761 45.3855,0.25964 2.1262,-8.08117 4.6623,-14.76225 5.6037,-14.76225 0.4106,0 -0.3268,3.0375 -1.6387,6.75 -1.312,3.7125 -2.6666,9.3375 -3.0104,12.5 -0.6101,5.61325 -1.7467,6.94341 -4.004,4.68612 z M 720.88134,441.81016 C 722.5966,440.05575 724,438.21268 724,437.71445 724,436.50245 720.72026,431 719.99785,431 718.95899,431 712,440.91984 712,442.4007 c 0,1.31876 1.59034,2.17149 4.63134,2.4833 0.62224,0.0638 2.53474,-1.31943 4.25,-3.07384 z m 376.93506,-22.17359 c 0.1741,-1.45011 -0.015,-2.63657 -0.4212,-2.63657 -1.7305,0 -4.3952,3.50248 -4.3952,5.77696 0,2.33181 0.1233,2.38559 2.25,0.98158 1.2375,-0.81697 2.3924,-2.67186 2.5664,-4.12197 z M 733,419 c 0,-3.99784 -1.27247,-5.33829 -2.36496,-2.49132 C 730.05916,418.00941 731.47393,423 732.47525,423 732.76386,423 733,421.2 733,419 Z m 6.61188,-5.92373 c 0.9615,-5.39536 6.94395,-17.82215 10.62674,-22.07396 1.79376,-2.0709 5.0328,-6.30083 7.19786,-9.39984 2.16507,-3.09901 8.23478,-9.56484 13.48825,-14.36851 13.11746,-11.99437 15.09393,-14.13295 17.31385,-18.73396 1.06146,-2.2 2.6191,-5.35 3.46142,-7 2.31551,-4.53583 12.14479,-19.1263 13.82358,-20.51957 0.81203,-0.67393 1.47642,-1.77547 1.47642,-2.44789 0,-0.67241 0.92899,-2.06329 2.06442,-3.09084 1.13543,-1.02755 4.14649,-4.8098 6.69124,-8.40499 C 818.30041,303.44152 822.94753,297.575 826.08259,294 833.95175,285.02658 843,272.16557 843,269.95392 c 0,-2.40798 1.84969,-3.50919 2.60188,-1.54902 0.68984,1.79771 -2.25965,10.29438 -4.47931,12.90364 -3.48143,4.09249 2.2627,6.79471 18.37743,8.6453 11.33528,1.30173 16.56543,0.73523 32,-3.4661 5.5,-1.49712 12.59519,-3.11409 15.7671,-3.59328 8.37249,-1.26486 13.7137,-4.22992 13.80721,-7.66478 0.10588,-3.88924 0.8321,-7.39832 1.79042,-8.6512 1.08233,-1.41499 2.72602,-8.37349 4.03419,-17.07848 1.60446,-10.67666 3.85571,-30.94992 3.72098,-33.50864 -0.17725,-3.36618 -4.4366,-5.98449 -13.08858,-8.04581 -7.89733,-1.88153 -8.76015,-1.78579 -14.53132,1.61237 -3.55176,2.09134 -14.87333,1.56875 -17.23775,-0.79567 -2.80583,-2.80583 -2.39724,-4.8938 4.74782,-24.26225 C 894.96274,172.42993 897,165.35133 897,161.95027 c 0,-1.55104 0.46548,-4.04437 1.0344,-5.54074 1.20103,-3.15897 2.5546,-40.92661 1.60271,-44.71926 -0.35297,-1.40634 -1.42821,-2.80501 -2.38943,-3.10818 -0.96123,-0.30316 -7.37268,1.04811 -14.24768,3.00282 -18.17985,5.16893 -26.9757,7.53637 -31.5,8.47834 -2.2,0.45805 -7.92658,1.91713 -12.72572,3.24239 -4.79915,1.32527 -8.91623,2.21908 -9.14906,1.98624 -0.23284,-0.23283 -2.38126,0.12786 -4.77428,0.80154 -6.02091,1.695 -17.46104,1.16519 -22.35094,-1.03511 -6.16092,-2.77222 -15.53329,-12.06708 -20,-19.83459 -2.23632,-3.88891 -5.6966,-8.227495 -7.84787,-9.839822 -2.11632,-1.586144 -4.68123,-4.509191 -5.6998,-6.495661 -2.25435,-4.396595 -15.31777,-17.765121 -23.26428,-23.807642 -3.19658,-2.430673 -6.42525,-5.295001 -7.17482,-6.365174 -2.02994,-2.898146 -6.98211,-5.602498 -13.24762,-7.234457 -3.06721,-0.798905 -6.34166,-2.144796 -7.27656,-2.99087 -0.9349,-0.846073 -2.42269,-1.260923 -3.3062,-0.921888 -0.88351,0.339035 -3.04272,-0.100116 -4.79825,-0.97589 C 708.12907,45.716542 704.60186,45 702.04636,45 696.04513,45 694.61203,43.650929 696.57692,39.851244 698.199,36.714504 699.00094,36.40094 700.8,38.2 c 0.93333,0.933333 1.2,0.725578 1.2,-0.9349 0,-2.627935 -1.40837,-6.114622 -3.54047,-8.7651 -1.58188,-1.96648 -1.65944,-1.94134 -4.62807,1.5 -1.66058,1.925 -4.07954,5.075 -5.37546,7 -4.82812,7.171817 -6.35647,8.630839 -7.38266,7.047746 -0.51775,-0.79874 -0.71951,-1.81124 -0.44834,-2.25 C 680.89617,41.358986 680.59074,41 679.94626,41 c -2.4457,0 -19.93397,15.702855 -19.94147,17.905609 -0.003,0.773085 -1.24229,3.023085 -2.75479,5 -4.51455,5.900742 -5.37473,10.927579 -4.05022,23.669036 1.62437,15.626005 0.33983,22.527115 -7.05925,37.925355 -8.05817,16.76988 -10.44534,23.13046 -10.94575,29.16478 -0.40634,4.89989 -0.22242,5.42271 2.91588,8.28911 1.84227,1.68265 3.80852,2.92261 4.36946,2.75547 0.56093,-0.16715 3.04488,-4.30556 5.51988,-9.19647 4.32669,-8.55008 7.06637,-11.77985 8.64947,-10.19675 0.40997,0.40996 0.0529,1.96905 -0.79354,3.46463 -0.84641,1.49557 -2.58091,5.64423 -3.85444,9.21923 -1.27353,3.575 -3.14486,7.429 -4.1585,8.56445 -1.01365,1.13545 -1.84299,2.73295 -1.84299,3.55 0,0.81705 -0.47715,1.9627 -1.06034,2.54589 -0.74711,0.74711 -0.13491,1.83902 2.07246,3.6964 2.44183,2.05467 3.54082,2.4177 4.98278,1.64599 2.29847,-1.2301 6.0051,-5.85426 6.0051,-7.49157 0,-1.35976 4.88066,-6.96383 5.51363,-6.33086 0.89649,0.89649 -2.39549,12.03508 -4.14054,14.00975 l -1.87309,2.11955 2.58456,-1.66141 c 3.34805,-2.15219 4.64845,-4.90061 5.47798,-11.57777 0.58991,-4.74839 1.19287,-5.87532 4.806,-8.98236 2.2723,-1.95402 7.40377,-6.8206 11.40325,-10.81461 7.32631,-7.31628 15.03241,-12.10555 18.72821,-11.6394 10.86865,1.37085 34.16704,6.84473 36.15484,8.49446 2.00836,1.66679 4.55301,6.84828 7.78146,15.84484 1.47501,4.11034 3.29234,8.83534 4.03852,10.5 0.74617,1.66466 2.5013,6.85165 3.90029,11.52665 2.44813,8.18094 5.21354,16.86104 6.37184,20 0.30443,0.825 0.71174,2.31146 0.90513,3.30324 0.19339,0.99178 1.02579,3.10693 1.84977,4.70034 0.82398,1.5934 1.49815,3.75842 1.49815,4.81115 0,2.76125 7.28179,21.64564 11.05407,28.66733 3.3536,6.24235 14.24786,17.41419 17.04589,17.4802 0.87998,0.0207 3.35498,1.29633 5.5,2.83461 5.01175,3.59413 10.29518,5.75299 11.25153,4.5975 1.29789,-1.56816 2.96863,-7.71934 3.63809,-13.39437 0.35685,-3.025 1.03656,-6.85 1.51046,-8.5 0.47391,-1.65 1.10293,-5.96201 1.39782,-9.58224 0.59742,-7.33433 1.33107,-9.91776 2.81647,-9.91776 0.96153,0 0.25945,18.42438 -0.76525,20.08239 -0.45438,0.7352 -2.36663,10.12091 -4.97485,24.41761 -2.52142,13.82086 -10.17688,35.95749 -13.71388,39.65526 -0.70746,0.73961 -2.06476,2.56154 -3.01623,4.04875 -0.95148,1.48721 -5.67064,6.91513 -10.48704,12.06204 -7.45097,7.9623 -9.12009,10.39283 -11.19096,16.296 -1.33863,3.81587 -2.3434,8.30604 -2.2328,9.97815 0.16385,2.47739 -0.61353,3.73457 -4.19935,6.79112 -2.59475,2.21177 -4.63336,4.91561 -4.96809,6.58927 -0.31221,1.56108 -1.30521,3.57588 -2.20665,4.47733 C 757.55394,374.3032 751,383.6872 751,384.50992 c 0,0.30698 -2.25,3.85981 -5,7.89518 -2.75,4.03537 -5,7.854 -5,8.48584 0,0.63184 -1.125,2.93092 -2.5,5.10906 -1.86745,2.95823 -2.49195,5.29365 -2.4682,9.23013 0.0292,4.83011 0.15326,5.10934 1.48728,3.34614 0.80051,-1.05806 1.74227,-3.53306 2.0928,-5.5 z M 671,102 c 0,-0.55 0.70156,-1 1.55902,-1 0.85746,0 1.2809,0.45 0.94098,1 -0.33992,0.55 -1.04148,1 -1.55902,1 C 671.42344,103 671,102.55 671,102 Z m -3.9682,-3.138709 c 0.0175,-0.74871 0.6925,-2.234799 1.5,-3.302421 2.11766,-2.799786 1.81554,-4.254877 -1.0318,-4.969514 -2.78561,-0.699143 -3.07307,-2.66662 -1.54622,-10.582727 0.6248,-3.239313 1.79878,-5.283644 4.20645,-7.324964 4.60286,-3.902495 10.58617,-6.901015 11.33919,-5.682608 0.63097,1.020932 -2.67684,4.650434 -6.0582,6.647372 -1.29936,0.767366 -1.61057,1.481484 -0.94122,2.159756 0.67483,0.683828 3.03966,0.508107 7.27269,-0.540405 3.44998,-0.854552 6.59998,-1.223606 7,-0.82012 1.18789,1.198179 -5.04861,5.543992 -7.96367,5.549373 -3.54936,0.0066 -4.34666,1.535481 -2.37216,4.548943 1.95117,2.97786 3.66462,3.12443 5.33107,0.456024 C 685.71951,81.875022 688,82.479862 688,86.122445 c 0,2.594458 -0.24185,2.921728 -1.43026,1.935433 -1.14024,-0.946316 -1.64004,-0.795032 -2.46482,0.746072 -0.569,1.063196 -0.81535,2.152284 -0.54744,2.420195 0.45442,0.454426 -5.18053,2.784481 -10.30748,4.262146 -3.20532,0.923821 -2.79344,2.478809 0.5,1.887669 1.80717,-0.32437 2.40715,-0.156922 1.75,0.488404 -0.55,0.540103 -2.6875,1.292102 -4.75,1.671111 -2.84062,0.521995 -3.74229,0.358993 -3.7182,-0.672184 z M 1104.354,395.54775 c 2.7129,-2.5143 3.2808,-4.42244 1.8146,-6.09775 -0.9887,-1.1297 -3.3385,-8.91282 -3.7588,-12.45 -0.1634,-1.375 -0.726,-4.525 -1.2503,-7 -1.3812,-6.52008 -3.4795,-18.20133 -3.652,-20.32996 -0.082,-1.00647 -0.7626,-2.20967 -1.5136,-2.67378 -1.0999,-0.67983 -1.1221,-1.13692 -0.1138,-2.35184 0.9469,-1.14091 0.9935,-2.43748 0.1913,-5.32621 -0.5831,-2.10002 -1.0628,-5.00061 -1.0658,-6.44577 -0.01,-2.36901 -2.8907,-6.33604 -3.0878,-4.24488 -0.045,0.47984 -0.2876,2.12452 -0.5386,3.65484 -0.251,1.53032 0.2101,5.58032 1.0245,9 3.4828,14.62356 5.3346,23.34848 5.3524,25.2176 0.01,1.1 0.5126,7.4 1.1157,14 0.6031,6.6 1.1037,13.2375 1.1124,14.75 0.019,3.38998 0.9638,3.45432 4.3698,0.29775 z m -440.48136,-5.02541 c 5.4695,-5.9337 5.48192,-7.85817 0.0573,-8.8722 -1.33646,-0.24982 -3.05275,-0.6108 -3.81398,-0.80218 -0.94041,-0.23643 -1.74965,1.25472 -2.52463,4.65204 -1.31866,5.7807 -1.3437,6.5543 -0.26699,8.25 1.25759,1.98057 2.15548,1.538 6.54831,-3.22766 z m 184.97814,2.02536 c 1.13333,-1.10809 1.07351,-1.90498 -0.3716,-4.95033 -3.18608,-6.71417 -5.55391,-5.76476 -5.99465,2.40362 -0.27671,5.12851 -0.26037,5.15968 2.36842,4.51578 1.45588,-0.35661 3.2549,-1.24269 3.99783,-1.96907 z m 4.33255,-9.76437 c -0.71756,-0.71756 -1.18333,-0.7766 -1.18333,-0.15 0,1.33478 1.18261,2.51739 1.85,1.85 0.28417,-0.28416 -0.0158,-1.04916 -0.66667,-1.7 z m -184.73476,-11.4359 c -1.34193,-3.79702 -3.07906,-3.96267 -4.88723,-0.46604 -1.4783,2.85871 -1.44539,3.08641 0.65901,4.56039 1.95618,1.37017 2.38803,1.37841 3.69589,0.0706 1.11247,-1.11247 1.24491,-2.14864 0.53233,-4.1649 z m 187.94444,2.07078 C 856.72686,372.54823 857,371.02833 857,370.04066 c 0,-0.98768 0.74425,-2.41337 1.65389,-3.16822 0.90965,-0.75484 2.93895,-4.23647 4.50956,-7.73695 2.42213,-5.3983 3.08193,-6.17673 4.34611,-5.12756 0.81974,0.68033 1.49044,1.85686 1.49044,2.61451 0,0.75766 0.79013,1.37756 1.75585,1.37756 2.62335,0 6.51193,-9.05569 5.7143,-13.30743 -0.43634,-2.32588 -0.17736,-3.69068 0.8644,-4.55526 1.0252,-0.85084 1.6919,-0.90353 2.14552,-0.16956 0.36197,0.58568 1.08437,0.80144 1.60534,0.47946 0.52097,-0.32197 0.69883,-0.98731 0.39524,-1.47852 -0.60194,-0.97396 7.24315,-6.57823 8.06209,-5.75929 0.27614,0.27615 -1.07993,1.5795 -3.0135,2.89634 -1.93356,1.31684 -3.51865,2.68904 -3.52241,3.04933 -0.0157,1.50359 24.92572,-6.56763 28.49317,-9.2206 C 914.41503,327.76668 924.03884,323 925.50052,323 c 0.92999,0 2.88533,-0.6545 4.34519,-1.45445 1.45986,-0.79994 6.02929,-2.86521 10.15429,-4.58948 4.125,-1.72427 9.20136,-3.99477 11.28079,-5.04555 2.07944,-1.05079 4.57694,-1.91052 5.55,-1.91052 0.97307,0 2.28182,-0.51261 2.90834,-1.13913 0.62653,-0.62653 3.30403,-1.68883 5.95,-2.36067 6.5865,-1.67237 5.1962,-3.04066 -2.85076,-2.80564 -5.26034,0.15364 -8.20529,0.92342 -14,3.65945 -4.0361,1.90568 -9.31043,3.98901 -11.72073,4.62961 -2.41029,0.64061 -5.11029,1.54554 -6,2.01095 -7.42414,3.88361 -23.35359,10.50171 -31.18603,12.95664 -1.41262,0.44275 -3.43762,1.28734 -4.5,1.87686 -1.06239,0.58952 -5.87535,2.94466 -10.69548,5.23364 -7.78721,3.69799 -11.78433,6.58576 -15.31783,11.06659 -0.59494,0.75443 -2.52655,2.46615 -4.29247,3.80381 -3.91593,2.96627 -11.64825,15.30697 -12.507,19.96105 -0.85727,4.64607 2.28298,8.41107 3.77418,4.52505 z m 36.18183,-40.29711 c -0.30984,-0.50134 0.10906,-1.16956 0.9309,-1.48493 0.82184,-0.31537 1.49426,-0.16408 1.49426,0.3362 0,1.35555 -1.7771,2.19731 -2.42516,1.14873 z M 639.3888,313.17993 c 0.27876,-0.45104 0.72416,-2.01859 0.98979,-3.48344 1.84075,-10.15113 3.99351,-19.3428 5.21481,-22.26578 0.78839,-1.88689 1.00531,-3.43071 0.48204,-3.43071 -0.52328,0 -4.41504,3.36395 -8.64836,7.47544 -4.23332,4.11149 -8.58337,7.75678 -9.66676,8.10063 -2.03474,0.6458 -9.37093,-0.90064 -13.76032,-2.90063 -1.375,-0.62651 -4.62845,-3.00788 -7.22989,-5.29195 C 602.9689,288.04602 593.25499,282 591.69402,282 c -0.18853,0 -0.32545,3.4875 -0.30427,7.75 0.0212,4.2625 -0.2808,8.92771 -0.67108,10.36714 -0.61338,2.26225 -0.18578,2.98015 3.15335,5.29417 2.12463,1.47237 4.26009,2.58449 4.74547,2.47138 0.48538,-0.11311 2.23251,0.39727 3.88251,1.13418 1.65,0.73692 6.98881,1.53127 11.86403,1.76524 7.83477,0.376 9.19443,0.18112 11.70951,-1.67836 3.46503,-2.5618 4.797,-2.6458 5.60984,-0.35375 1.48166,4.17795 6.18868,6.88407 7.70542,4.42993 z M 611.7543,306.75 c -0.75077,-2.04154 0.28343,-3.75 2.27002,-3.75 2.47844,0 3.43291,1.74414 1.93933,3.5438 -1.4825,1.78631 -3.59031,1.88956 -4.20935,0.2062 z m -8.5043,-1.41091 c -1.2375,-0.87067 -2.25,-2.20315 -2.25,-2.96106 0,-1.78393 1.62982,-1.78508 2.31419,-0.002 0.34197,0.89114 1.47241,1.1959 3.20643,0.86442 2.2121,-0.42287 2.61543,-0.18579 2.31733,1.36212 -0.46752,2.42763 -2.75542,2.72903 -5.58795,0.73616 z m 15.75,0.2679 c 0,-1.87297 2.48316,-2.72383 3.87814,-1.32885 C 624.66592,306.06592 624.19297,307 621.5,307 c -1.47022,0 -2.5,-0.5738 -2.5,-1.39301 z M 632,306 c 0,-0.55 0.675,-1 1.5,-1 0.825,0 1.5,0.45 1.5,1 0,0.55 -0.675,1 -1.5,1 -0.825,0 -1.5,-0.45 -1.5,-1 z m -34.70185,-6.63148 c 0.34732,-0.34732 0.1961,-1.44501 -0.33604,-2.43931 -1.12097,-2.09456 0.0788,-3.23446 2.44765,-2.32547 0.87463,0.33563 1.59024,1.68709 1.59024,3.00325 0,1.7877 -0.54805,2.39301 -2.16667,2.39301 -1.19166,0 -1.8825,-0.28417 -1.53518,-0.63148 z m 342.67296,8.6463 C 953.9841,302.51806 957,300.98466 957,299.35669 c 0,-1.59366 2.16929,-1.56291 13.56931,0.19236 3.76473,0.57966 4.30739,0.35541 7.25,-2.99604 1.74938,-1.99243 3.18069,-4.70328 3.18069,-6.02411 0,-1.32084 1.35,-5.90741 3,-10.1924 4.89963,-12.72415 3.96161,-15.30754 -4.3041,-11.85391 -1.95159,0.81543 -6.12675,1.78564 -9.27814,2.15602 -6.405,0.75278 -9.41776,2.9518 -9.41776,6.87405 0,2.99793 -3.65286,16.5563 -4.73854,17.58807 -0.4188,0.39802 -4.58646,2.63677 -9.26146,4.975 -4.675,2.33824 -9.49563,5.14034 -10.71251,6.2269 -1.21689,1.08656 -3.20635,2.47547 -4.42103,3.08647 -1.21469,0.61099 -2.42974,1.7859 -2.70011,2.6109 -0.37884,1.15595 -0.16759,1.25202 0.92103,0.41886 0.77694,-0.59463 5.22462,-2.57645 9.88373,-4.40404 z M 880.21789,309.25 c 1.67027,-1.91312 3.02019,-10.98483 1.7513,-11.76904 -1.45052,-0.89648 -4.02914,0.73429 -5.42291,3.42954 -1.10131,2.1297 -1.14537,3.41697 -0.21832,6.37882 1.31527,4.20222 1.74418,4.4184 3.88993,1.96068 z m 202.28511,-5.81898 c -1.8319,-8.64748 -1.8651,-11.55353 -0.1588,-13.88709 1.2217,-1.67077 1.4563,-1.39317 2.574,3.04557 0.6764,2.68615 1.5945,5.33989 2.0403,5.8972 0.4458,0.55732 1.1088,2.3633 1.4733,4.0133 0.7486,3.38834 3.2427,7.15881 4.1412,6.26035 0.3265,-0.32651 0.5126,-5.24366 0.4135,-10.927 -0.099,-5.68334 -0.1576,-11.21261 -0.1301,-12.28726 0.074,-2.86991 -1.7571,-4.57763 -4.734,-4.4163 -1.4423,0.0782 -3.7474,-0.28387 -5.1224,-0.80454 -5.8853,-2.22858 -6.1658,-1.40228 -4.6138,13.59152 0.646,6.24075 4.2758,17.75453 5.2805,16.74983 0.1675,-0.16751 -0.3561,-3.42352 -1.1637,-7.23558 z M 915,308 c 2.40751,-2.40751 2.44663,-2.91734 0.4433,-5.77749 -2.87804,-4.10898 -6.93886,-2.07592 -8.88075,4.44616 -0.47221,1.58598 -0.16433,2.29369 1.14588,2.634 3.6536,0.94896 5.34149,0.64741 7.29157,-1.30267 z m 13.79831,-0.84616 c 5.98226,-2.98357 17.38101,-10.1954 21.75146,-13.76186 3.11912,-2.54531 4.34869,-4.47106 5.3505,-8.37991 C 957.31063,279.50913 956.744,275 954.64212,275 c -0.72587,0 -6.9048,1.79754 -13.73094,3.99453 -6.82615,2.197 -13.43333,3.997 -14.68262,4 -1.54397,0.004 -2.62094,0.8862 -3.36271,2.75547 -0.6002,1.5125 -1.71555,3.94443 -2.47856,5.40429 -1.7125,3.27652 -1.77441,5.55 -0.16572,6.08623 0.70875,0.23625 1.23688,2.26531 1.25804,4.83334 0.0378,4.58895 0.92452,6.92614 2.62771,6.92614 0.54411,0 2.65505,-0.83077 4.69099,-1.84616 z M 1076.5166,305.75 c -0.8855,-5.74314 -1.6512,-6.75 -5.1332,-6.75 -2.5615,0 -3.3797,0.42514 -3.3681,1.75 0.021,2.41802 1.2925,4.19882 4.0996,5.74239 3.592,1.97518 4.7896,1.77319 4.4017,-0.74239 z m -488.58689,-12 c -0.0589,-2.72353 -0.2095,-2.92602 -0.92971,-1.25 -1.18717,2.7627 -1.18717,4.5 0,4.5 0.55,0 0.96837,-1.4625 0.92971,-3.25 z m 483.81709,0 c 0.5454,-0.6875 1.222,-3.4035 1.5036,-6.03556 0.5354,-5.00524 -1.0691,-8.50928 -6.7381,-14.71444 -1.2562,-1.375 -3.0664,-4.075 -4.0227,-6 -2.4366,-4.90489 -8.3532,-12 -10.0069,-12 -0.7608,0 -1.8277,0.7875 -2.3707,1.75 -0.7099,1.25807 -1.2951,1.44584 -2.0817,0.66798 -0.7904,-0.78146 0.5968,-4.43244 4.994,-13.14376 7.7286,-15.3114 9.9448,-24.93724 10.4237,-45.27422 0.2036,-8.64622 -0.071,-15.27559 -0.68,-16.42117 -1.4787,-2.78084 -1.056,-11.12114 0.7395,-14.59329 0.8485,-1.64087 4.2489,-5.55997 7.5564,-8.7091 8.8859,-8.46031 10.3573,-12.80211 6.3321,-18.68447 -1.2266,-1.79247 -1.6415,-1.56129 -6.8508,3.81722 -3.0499,3.14889 -5.5452,6.39656 -5.5452,7.21705 0,0.82049 -0.421,1.23162 -0.9355,0.91363 -0.5145,-0.31799 -2.5925,0.3525 -4.6177,1.48999 -2.0251,1.13748 -3.9302,1.82011 -4.2333,1.51696 -0.3032,-0.30315 -1.2627,0.0829 -2.1323,0.85797 -3.4926,3.11265 -14.0812,4.31121 -14.0812,1.5939 0,-0.4766 -6.7629,-4.24876 -15.0287,-8.38258 -8.2657,-4.13382 -16.159,-8.40518 -17.5405,-9.49191 -1.3816,-1.08673 -4.6906,-2.44312 -7.35347,-3.01419 -2.66283,-0.57108 -6.48649,-2.00889 -8.49702,-3.19513 -3.51585,-2.0744 -3.73077,-2.08869 -5.62534,-0.37413 -3.37811,3.05715 -5.26518,7.69627 -6.08503,14.95925 -0.43459,3.85 -1.23788,9.925 -1.78508,13.5 -0.54721,3.575 -1.51418,14.15 -2.14883,23.5 -1.16657,17.18661 -2.63651,23.34668 -6.29575,26.38358 -2.18534,1.81367 -13.78314,2.75606 -23.11006,1.87784 -5.8791,-0.55358 -8.28678,-0.42397 -9.17823,0.49407 -0.66555,0.68541 -1.48221,5.48674 -1.81782,10.68736 -0.33516,5.19357 -1.04491,9.96762 -1.57721,10.60901 -0.53231,0.6414 -0.92526,4.49211 -0.87323,8.55716 0.052,4.06504 -0.39552,8.65777 -0.99456,10.20608 -0.59904,1.5483 -1.09686,4.0233 -1.10627,5.5 -0.009,1.47669 -0.83148,5.92916 -1.82683,9.89436 -2.21353,8.81805 -1.4594,9.49165 6.53097,5.83354 2.99103,-1.36934 8.89755,-3.1907 13.1256,-4.04746 13.74774,-2.78582 18.64892,-4.02341 20.87162,-5.27026 1.20134,-0.6739 3.19759,-1.22528 4.43611,-1.22528 1.23852,0 5.2056,-0.70201 8.81574,-1.56001 3.61014,-0.85801 9.11469,-2.16854 12.23234,-2.91229 3.76871,-0.89906 7.41605,-2.73363 10.88285,-5.47401 7.493,-5.92288 7.2501,-5.54664 16.417,-25.42895 3.6968,-8.01813 5.6719,-13.55395 6.1098,-17.12474 0.2023,-1.65 0.6217,-4.575 0.932,-6.5 0.4306,-2.67171 0.3076,-3.14502 -0.5197,-2 -0.8135,1.12601 -0.9828,0.1287 -0.679,-4 0.4887,-6.63966 1.2305,-9.74307 2.7733,-11.60203 1.6383,-1.97406 3.2649,-1.73869 2.4328,0.35203 -0.383,0.9625 -0.8701,6.475 -1.0823,12.25 -0.2123,5.775 -0.8234,12.525 -1.358,15 -3.043,14.08599 -4.0983,17.43426 -9.7087,30.80211 -0.7622,1.81616 -3.4069,5.46283 -5.8772,8.10371 -2.4702,2.64087 -4.4913,5.08087 -4.4913,5.4222 0,0.60929 5.4885,3.73198 6.4895,3.69224 0.2808,-0.0111 0.8526,-0.0203 1.2707,-0.0203 0.4181,0 1.9045,1.06103 3.3031,2.35783 1.3985,1.29681 5.4276,4.32702 8.9536,6.7338 3.5259,2.40679 7.9127,6.03839 9.7483,8.07024 2.2118,2.4482 5.9343,4.76866 11.0362,6.87955 4.2342,1.7519 8.168,3.56211 8.7417,4.02268 0.5738,0.46058 2.7101,1.00842 4.7475,1.21743 2.0373,0.20901 4.0054,0.68117 4.3735,1.04924 0.9989,0.99889 1.9754,0.81491 3.0827,-0.58077 z M 588,286 c 0,-0.55 -0.47656,-1 -1.05902,-1 -0.58246,0 -0.7809,0.45 -0.44098,1 0.33992,0.55 0.81648,1 1.05902,1 0.24254,0 0.44098,-0.45 0.44098,-1 z m 361.05528,-78.6454 c 0.55318,-1.45497 1.27993,-5.39247 1.615,-8.75 0.33507,-3.35753 1.22133,-7.31975 1.96947,-8.80494 0.74814,-1.48519 1.36025,-3.79273 1.36025,-5.12788 0,-1.33514 0.63033,-3.94499 1.40073,-5.79966 0.7704,-1.85466 1.70657,-6.52212 2.08039,-10.37212 0.37381,-3.85 0.89881,-7.7875 1.16666,-8.75 0.26785,-0.9625 0.007,-1.75 -0.58039,-1.75 -0.58707,0 -1.06739,1.41551 -1.06739,3.14557 0,7.07822 -6.78421,32.04888 -10.5,38.64735 -2.53634,4.50402 -3.96396,4.95482 -5.97439,1.88651 -1.70795,-2.60666 -1.89154,-0.81636 3.68677,-35.95226 0.59141,-3.72506 0.77485,-7.07328 0.40764,-7.44048 -1.57489,-1.57489 -4.12531,3.25394 -5.77715,10.93815 -0.97839,4.55134 -2.45247,11.20016 -3.27575,14.77516 -1.85566,8.05807 -2.03223,21.00747 -0.31712,23.25785 0.6875,0.90207 3.05,1.81243 5.25,2.02303 2.2,0.2106 4.79864,0.45856 5.77475,0.55102 1.08737,0.10299 2.1643,-0.85649 2.78053,-2.4773 z M 897.5457,202.25 c 1.02881,-3.1625 2.395,-6.425 3.036,-7.25 2.20299,-2.83539 3.24681,-8.52509 3.87244,-21.10821 0.34478,-6.93451 0.86309,-13.90951 1.1518,-15.5 3.81248,-21.00289 4.84316,-25.04211 8.39287,-32.89179 1.4923,-3.3 3.03338,-7.0125 3.42462,-8.25 0.39124,-1.2375 1.1811,-2.25 1.75525,-2.25 1.40029,0 0.16431,6.38739 -2.11953,10.95349 -2.54298,5.08417 -6.23227,17.77897 -6.69765,23.04651 -0.21866,2.475 -0.78133,7.425 -1.25037,11 -0.46905,3.575 -1.19492,9.14466 -1.61306,12.37703 -1.00494,7.76848 0.33621,7.17486 5.37034,-2.37703 5.66124,-10.74182 6.66469,-10.54097 8.78953,1.75927 0.30967,1.7926 0.90758,3.47221 1.32869,3.73247 0.68816,0.4253 3.79807,-3.60114 6.94496,-8.99174 0.95355,-1.63342 1.08024,-0.90188 0.69122,3.9912 -0.86213,10.84371 1.46039,15.81719 2.92273,6.2588 1.10887,-7.24801 1.12973,-7.37892 2.42948,-15.25 0.63575,-3.85 1.54694,-11.07909 2.02487,-16.06465 C 939.0196,134.79815 939.85541,131 941.17647,131 c 0.57406,0 0.69692,2.10955 0.30578,5.25 -2.48759,19.97262 -2.45622,20.28354 1.93553,19.18128 3.30317,-0.82904 3.81874,-2.09371 6.18902,-15.18128 1.02101,-5.6375 2.25968,-10.25 2.7526,-10.25 0.49292,0 0.62819,1.6875 0.3006,3.75 -0.32759,2.0625 -0.86769,6.225 -1.20022,9.25 -1.48154,13.47729 -4.82427,31.07026 -8.2503,43.42172 -2.44857,8.82755 -2.34613,10.98786 0.54052,11.39783 1.6147,0.22932 2.26239,-0.19421 2.29389,-1.5 0.0241,-1.00075 0.71835,-3.61955 1.54268,-5.81955 0.82433,-2.2 1.7258,-5.125 2.00328,-6.5 0.27747,-1.375 0.93748,-4.13873 1.46668,-6.14163 0.99994,-3.78448 3.7078,-21.02882 4.53161,-28.85837 1.53305,-14.57031 3.2778,-21.4674 4.99593,-19.74926 0.24806,0.24805 0.0209,3.55561 -0.50476,7.35013 -1.31738,9.50948 -1.6129,18.43099 -0.60088,18.1407 0.4632,-0.13286 0.99677,-2.04157 1.18572,-4.24157 0.18894,-2.2 1.00549,-6.25 1.81456,-9 0.80907,-2.75 1.59484,-6.08975 1.74616,-7.42167 0.15132,-1.33192 0.90811,-2.63042 1.68175,-2.88554 1.14848,-0.37874 1.28914,0.61624 0.76642,5.42167 -0.35211,3.23705 -0.87081,7.01054 -1.15266,8.38554 -0.44338,2.163 -1.37296,7.13416 -3.1789,17 -0.25169,1.375 -0.90715,4.3 -1.45657,6.5 -0.54942,2.2 -1.84215,7.375 -2.87274,11.5 -1.03058,4.125 -2.53768,9.29882 -3.34911,11.49738 -1.60102,4.338 -0.96227,7.43743 0.70932,3.44184 0.56126,-1.34157 2.05708,-4.77289 3.32404,-7.62514 1.26697,-2.85226 2.31047,-6.00226 2.31889,-7 0.0221,-2.61889 1.57488,-4.68539 2.90357,-3.86421 1.2565,0.77656 0.76062,5.18254 -1.41248,12.55013 -1.35082,4.57977 -2.74459,15 -2.00634,15 1.87395,0 5.40652,-2.71807 7.30797,-5.62297 1.89747,-2.89881 2.38559,-5.24717 2.744,-13.20154 0.47817,-10.61223 2.04576,-24.42842 3.48045,-30.67549 0.50524,-2.2 0.92963,-6.21045 0.94307,-8.91211 0.0135,-2.70166 0.77322,-7.28747 1.68838,-10.19069 l 1.66392,-5.27858 -2.79575,-3.66542 c -2.76229,-3.62156 -7.67765,-6.4465 -12.52747,-7.19976 -1.37245,-0.21317 -3.17245,-0.97364 -4,-1.68994 -0.82755,-0.7163 -2.62963,-1.55481 -4.00463,-1.86335 -1.375,-0.30855 -4.3,-1.0707 -6.5,-1.69367 -14.57674,-4.12767 -15.04215,-3.95764 -15.80335,5.77373 -1.48647,19.0034 -5.61256,43.50946 -7.24187,43.01156 -0.52513,-0.16047 -0.88029,-0.96677 -0.78924,-1.79177 0.091,-0.825 0.69505,-5.775 1.34222,-11 2.90528,-23.45616 3.36947,-39.02423 1.22742,-41.16536 -0.86164,-0.86127 -4.77763,-1.27549 -12.28501,-1.29946 L 903.92998,107.5 903.62236,126 c -0.19783,11.89767 -0.87176,21.17662 -1.88837,26 -0.86942,4.125 -1.82433,9.75 -2.12204,12.5 -0.70924,6.55147 -3.49891,16.55919 -8.19171,29.38708 l -3.79988,10.38709 2.3006,1.86291 c 3.98831,3.22954 5.57232,2.42201 7.62474,-3.88708 z M 960,124 c 0,-0.55 0.45,-1 1,-1 0.55,0 1,0.45 1,1 0,0.55 -0.45,1 -1,1 -0.55,0 -1,-0.45 -1,-1 z m -50.7239,78.5 c 5.93742,-3.99849 7.34409,-4.27204 8.19423,-1.59349 0.61729,1.94492 7.06672,5.09349 10.43333,5.09349 1.16482,0 2.03261,-0.88627 2.31519,-2.3645 0.74464,-3.89536 -1.19688,-17.02705 -2.74793,-18.5859 -1.26011,-1.26644 -1.80064,-1.1079 -4.26175,1.25 C 919.57614,189.78026 919,189.70127 919,185.72251 919,182.48325 916.6931,178 915.0263,178 c -0.47316,0 -3.82718,5.88562 -7.45339,13.07915 -8.14253,16.15283 -7.88525,17.87808 1.70319,11.42085 z m -346.62653,-9.92656 c 5.03226,-0.76756 9.98226,-1.8116 11,-2.32008 2.18666,-1.0925 9.70531,-1.01177 13.60043,0.14604 2.61715,0.77793 2.75,0.65485 2.75,-2.54787 0,-1.85091 1.5743,-7.37539 3.49845,-12.27663 1.92414,-4.90124 3.28819,-9.1216 3.0312,-9.37858 -0.66083,-0.66083 -3.85841,1.61612 -12.91982,9.20004 -4.33959,3.632 -8.44699,6.60364 -9.12755,6.60364 -0.68057,0 -1.75852,0.62793 -2.39546,1.39539 -1.89631,2.28492 -14.5309,4.31312 -15.64445,2.51137 -0.40129,-0.6493 -1.12983,-0.58111 -2.06265,0.19307 -1.15002,0.95442 -1.71789,0.81995 -2.80276,-0.6637 -1.17041,-1.60062 -1.5912,-1.6692 -3.01113,-0.49076 -2.21001,1.83414 -4.49986,-0.11501 -2.69291,-2.29225 1.43779,-1.73243 5.93333,-2.73438 6.37144,-1.42005 0.17277,0.51831 1.65096,0.77064 3.28488,0.56075 l 2.97076,-0.38163 -3,-1.3959 c -1.65,-0.76774 -5.53976,-2.91998 -8.64392,-4.78275 -3.74842,-2.24939 -6.60312,-3.27715 -8.5,-3.0602 L 535.5,172.5 l -0.2861,9.14247 c -0.22146,7.07681 0.0525,9.48106 1.2125,10.64107 1.99476,1.99477 14.16388,2.1293 26.22317,0.2899 z M 541,179.96862 c 0,-1.28894 2.84907,-2.45288 3.76417,-1.53779 0.37285,0.37286 0.0159,1.09656 -0.79313,1.60823 C 542.03529,181.26327 541,181.23872 541,179.96862 Z M 782.41655,86.643128 C 782.06976,85.739408 781.36833,85 780.85783,85 c -0.51083,0 -0.42629,0.937815 0.18801,2.085646 1.27334,2.379257 2.32344,2.040246 1.37071,-0.442518 z M 749.75047,56.75 c -0.22891,-0.6875 -1.26459,-1.414403 -2.3015,-1.615339 -1.6311,-0.31608 -1.70455,-0.147537 -0.54469,1.25 1.5862,1.911254 3.44015,2.149229 2.84619,0.365339 z M 736.5,49 c -0.33992,-0.55 -1.06803,-1 -1.61803,-1 -0.55,0 -0.72189,0.45 -0.38197,1 0.33992,0.55 1.06803,1 1.61803,1 0.55,0 0.72189,-0.45 0.38197,-1 z M 727,45 c 0,-0.55 -0.45,-1 -1,-1 -0.55,0 -1,0.45 -1,1 0,0.55 0.45,1 1,1 0.55,0 1,-0.45 1,-1 z M 681.68615,33.884951 c 3.02465,-1.869336 3.34545,-2.464596 2.76137,-5.123903 -0.82582,-3.759924 -1.27223,-6.042772 -1.37101,-7.011048 -0.17372,-1.702911 -2.11861,-0.565876 -3.42098,2 -1.58447,3.121669 -3.13803,12.25 -2.08484,12.25 0.38128,0 2.23324,-0.951772 4.11546,-2.115049 z M 558.29658,455.33048 c -0.30918,-0.8057 -0.16489,-1.86125 0.32064,-2.34566 1.34351,-1.34042 12.58383,-2.85678 14.8686,-2.00583 2.38021,0.8865 27.82066,0.56766 29.334,-0.36763 0.57309,-0.35419 1.32539,-0.18543 1.67177,0.37503 0.38878,0.62907 1.27624,0.67906 2.3191,0.13064 0.92912,-0.48861 4.61431,-0.93427 8.18931,-0.99037 46.17108,-0.7245 80.93601,-0.92207 82.75,-0.47025 2.2506,0.56056 3.03611,2.73971 1.36079,3.77512 -0.48907,0.30226 -20.62657,0.77813 -44.75,1.05749 -40.28153,0.46648 -54.33686,0.78282 -84.68143,1.9059 -8.84226,0.32725 -10.92342,0.13264 -11.38278,-1.06444 z m -17.1747,-1.23399 C 539.63823,453.15676 540.40704,451 542.22568,451 c 0.60921,0 0.81156,0.2961 0.44966,0.65799 -0.36189,0.3619 -0.15679,1.2619 0.45578,2 1.25303,1.50981 0.0847,1.76479 -2.00924,0.4385 z m -159.8198,-12.89615 c -0.65885,-0.4147 -6.95885,-0.87944 -14,-1.03275 -7.04114,-0.15331 -14.37708,-0.46895 -16.30208,-0.70142 -1.925,-0.23246 -6.2,-0.66586 -9.5,-0.96311 -3.3,-0.29725 -6.675,-0.79538 -7.5,-1.10695 -0.825,-0.31158 -22.2,-0.78207 -47.5,-1.04555 -25.3,-0.26347 -57.25,-0.72513 -71,-1.02592 -13.75,-0.30078 -25.9,-0.52608 -27,-0.50066 -13.3736,0.309 -29.71692,-0.0253 -32.5,-0.6647 -4.38724,-1.00801 -22.6019,-0.49371 -26.13502,0.73794 -1.49866,0.52244 -14.02611,0.69587 -29.00163,0.4015 C 86.363505,435.0137 73.15,434.78437 71.5,434.78909 c -2.535922,0.007 -5.084142,-0.46698 -15,-2.79151 -2.190205,-0.51344 -3.5,0.08 -3.5,1.58575 0,2.39486 -2.374852,1.1073 -3.42203,-1.8553 -0.659757,-1.86653 -0.535732,-3.074 0.436015,-4.24488 1.332714,-1.60582 5.594988,-1.57583 16.261049,0.11443 1.526269,0.24187 6.251269,0.61881 10.5,0.83763 25.725806,1.32499 31.940606,1.70967 33.809736,2.09271 1.14662,0.23499 3.62162,-0.0292 5.5,-0.58711 1.87838,-0.5579 6.34891,-1.01959 9.93452,-1.02598 11.30187,-0.0202 11.51626,-1.8092 1.00644,-8.3987 -3.63943,-2.28186 -8.3435,-6.65525 -12.22131,-11.36216 -7.51451,-9.12119 -12.33098,-14.53702 -20.038953,-22.53263 -3.153994,-3.27168 -5.97395,-6.70285 -6.266571,-7.62482 -0.729806,-2.29941 -4.839933,-4.34044 -7.219625,-3.58516 -1.077476,0.34198 -2.536853,1.70142 -3.24306,3.02098 -1.76773,3.30303 -3.948801,3.62266 -8.880736,1.30145 C 64.935055,377.74746 58,370.71286 58,368.4182 c 0,-0.67199 -1.298121,-2.05349 -2.884714,-3.07 -3.706279,-2.37457 -16.76381,-16.76784 -18.821382,-20.74675 -0.86745,-1.67746 -1.690067,-5.31152 -1.828038,-8.07569 -0.137971,-2.76417 -1.235372,-7.27576 -2.43867,-10.02576 -1.59273,-3.64001 -2.021925,-6.0502 -1.577928,-8.86106 0.592176,-3.74895 6.229183,-15.45768 8.949577,-18.58934 0.740354,-0.85228 3.173544,-5.3746 5.407089,-10.0496 2.233546,-4.675 4.739104,-9.625 5.567908,-11 0.828805,-1.375 2.270347,-5.0875 3.203428,-8.25 1.375252,-4.66116 2.098447,-5.75 3.819073,-5.75 2.233294,0 3.920822,2.05429 6.777094,8.25 1.334292,2.89429 2.307959,3.75 4.266944,3.75 3.969516,0 12.014202,3.42929 17.511911,7.46498 3.40807,2.50175 5.634617,3.48352 6.952012,3.06539 1.06597,-0.33832 4.499636,-3.74606 7.630366,-7.57275 3.13074,-3.82669 6.2616,-6.95762 6.95747,-6.95762 1.89492,0 3.36583,4.47927 4.76151,14.5 1.25027,8.97673 1.2632,9.00474 4.99993,10.83236 3.4309,1.67804 3.74771,2.18335 3.76173,6 0.0209,5.69623 1.04085,7.03385 4.74317,6.22069 2.72212,-0.59788 3.11456,-0.356 4.12492,2.54233 0.61413,1.76169 1.1166,4.08225 1.1166,5.15681 0,1.72745 11.07456,15.77048 13.05275,16.55146 C 145.241,334.27276 152,323.55826 152,321.20551 c 0,-1.14811 0.45,-2.36559 1,-2.70551 0.55,-0.33992 1,-1.35633 1,-2.25868 0,-1.7138 5.44573,-17.37532 7.1629,-20.59997 1.82392,-3.42512 4.90594,-14.08248 5.82471,-20.14135 0.50042,-3.3 1.15843,-7.125 1.46225,-8.5 0.30382,-1.375 0.76113,-6.55 1.01625,-11.5 0.36411,-7.06494 0.0318,-10.50505 -1.54559,-16 -1.10518,-3.85 -3.09096,-11.17923 -4.41285,-16.28717 -2.21603,-8.56306 -7.19594,-19.2841 -9.66674,-20.81114 -3.26047,-2.01508 -8.47126,-13.45806 -6.09093,-13.37576 0.67843,0.0235 8.83676,12.57946 12.05457,18.55248 1.43962,2.67229 3.62116,3.01982 7.88033,1.25538 1.54831,-0.64141 3.0401,-1.23602 3.3151,-1.32135 0.275,-0.0853 1.625,-0.6544 3,-1.26459 1.375,-0.61019 3.625,-1.34604 5,-1.63521 3.8551,-0.81077 6.45655,-3.06702 5.43171,-4.71094 -2.64556,-4.24364 -2.27261,-19.59342 0.60676,-24.97359 0.93869,-1.75396 0.81814,-1.8199 -1.44334,-0.7895 C 180.08128,175.73963 178,174.60575 178,171.0904 c 0,-4.09965 -1.51977,-4.66399 -2.99153,-1.11085 -2.55711,6.17342 -6.51489,6.26382 -7.61261,0.1739 -0.3622,-2.0094 -0.88069,-4.03899 -1.1522,-4.51021 -0.8908,-1.54602 -2.21272,1.78007 -2.22835,5.60676 -0.0166,4.05568 -2.41229,5.30668 -3.83012,2 -1.40488,-3.27645 -4.68278,-8.23733 -5.44701,-8.24368 -0.419,-0.003 -0.47423,1.90618 -0.12275,4.24368 0.35149,2.3375 0.6351,4.475 0.63024,4.75 -0.12773,7.23422 -0.13828,7.2575 -2.99567,6.60982 -1.5125,-0.34284 -4.25835,-0.91162 -6.10189,-1.26396 l -3.35189,-0.64061 1.60189,3.09771 c 1.92636,3.72517 2.02612,5.19785 0.35189,5.19466 -1.98632,-0.004 -7.04039,-10.50732 -6.25165,-12.99241 0.57322,-1.80608 1.15095,-2.01668 3.83822,-1.39918 6.61513,1.52007 7.17902,1.26977 6.99746,-3.10603 -0.555,-13.37544 -0.47434,-14.11072 1.95456,-17.81769 C 153.04072,149.00822 156,148.93603 156,151.56739 156,153.91863 159.37776,164 160.16554,164 c 0.41467,0 0.71283,-1.2375 0.66258,-2.75 -0.0887,-2.67016 0.74227,-9.3561 1.74809,-14.06492 0.36375,-1.70291 1.07336,-2.23166 2.6841,-2 3.02771,0.43546 4.70752,4.30131 4.72495,10.87379 0.008,3.05738 0.59112,6.34712 1.29559,7.31053 1.15852,1.58437 1.43165,1.38774 2.85994,-2.05887 0.86851,-2.09579 2.0942,-5.66965 2.72376,-7.9419 1.40937,-5.08681 3.35973,-7.00824 5.0484,-4.97352 1.52105,1.83275 3.06143,11.50269 1.9425,12.19423 -0.4705,0.29078 -0.85545,1.41836 -0.85545,2.50573 0,1.86952 0.20295,1.83912 3.73213,-0.55902 6.97534,-4.73986 7.51255,-3.58872 3.80915,8.16233 -2.49825,7.92708 -4.7284,22.04399 -3.74794,23.72456 0.29615,0.50761 0.88313,2.53261 1.30441,4.5 1.35391,6.32288 4.5735,14.5038 7.27408,18.48333 1.44549,2.13005 2.62817,4.28886 2.62817,4.79735 0,0.5085 1.09047,3.30853 2.42326,6.22231 1.33279,2.91378 2.68858,7.72245 3.01286,10.68593 0.32429,2.96348 1.0038,7.86314 1.51001,10.88814 1.07471,6.42207 0.40863,35.46481 -0.86835,37.86282 -1.16953,2.19623 -2.0427,12.04082 -1.11862,12.61194 1.20087,0.74218 11.34728,-4.93149 24.94251,-13.94735 7.01482,-4.65197 13.61914,-8.76712 14.67627,-9.14477 1.05713,-0.37765 2.59706,-1.25459 3.42206,-1.94875 0.825,-0.69416 4.2,-2.1829 7.5,-3.30832 3.3,-1.12541 8.475,-2.9677 11.5,-4.09398 3.025,-1.12627 6.10509,-1.81691 6.84464,-1.53475 1.61084,0.61459 9.17703,-2.59134 10.81932,-4.58432 1.88337,-2.28556 3.17265,-14.86512 2.67652,-26.11505 -0.53727,-12.18297 0.34125,-14.04766 5.3886,-11.43757 2.78061,1.43791 4.83495,4.63388 7.31328,11.37739 1.21681,3.31091 2.85773,3.60025 2.79601,0.49302 -0.0977,-4.91805 3.7353,-15.11982 7.60089,-20.23031 5.74469,-7.59475 7.07766,-7.30892 6.99527,1.5 -0.036,3.85 -0.40384,8.0125 -0.81739,9.25 -0.41355,1.2375 -0.37392,2.25 0.0881,2.25 1.26927,0 4.08506,-5.8994 5.39459,-11.30227 0.97812,-4.03555 1.50213,-4.75401 3.28208,-4.5 1.87167,0.2671 2.13281,1.00039 2.24441,6.30227 0.0695,3.3 -0.21472,6.45 -0.6315,7 -0.41678,0.55 -0.94575,2.6875 -1.17548,4.75 -0.53199,4.77599 1.59063,5.07631 3.53397,0.5 1.75392,-4.13028 7.39809,-10.02169 8.78182,-9.16651 0.57928,0.35802 0.82999,1.6107 0.55714,2.78373 -1.00663,4.32758 -5.76567,16.05666 -7.12914,17.5704 -0.774,0.85931 -1.7238,2.91238 -2.11065,4.56238 -0.68595,2.92571 -0.57644,2.87711 4.42209,-1.96241 5.96649,-5.77669 6.68161,-4.49628 2.12546,3.80562 -1.65,3.00653 -3,5.87338 -3,6.3708 0,0.51038 7.0795,0.81628 16.25,0.70214 8.9375,-0.11124 17.25799,0.0223 18.48997,0.29669 2.88463,0.64254 3.85514,4.4887 4.74061,18.78716 0.37466,6.05 0.82787,12.575 1.00713,14.5 0.79559,8.54343 1.63744,22.40086 2.00478,33 0.36424,10.50985 1.85126,18.1866 5.18618,26.77373 0.95707,2.46436 -0.7001,18.8339 -2.14299,21.16854 -0.46636,0.75459 -0.79106,2.88472 -0.72155,4.73364 0.15955,4.24394 -2.92997,7.15471 -12.42082,11.70221 -7.94517,3.80689 -12.27072,5.27837 -17.89331,6.087 -2.2,0.3164 -5.49265,1.06103 -7.317,1.65474 -1.82435,0.59371 -3.53404,0.86244 -3.7993,0.59718 -1.11989,-1.1199 -19.50876,4.7165 -22.8837,7.26301 -0.55,0.41499 -3.925,1.72736 -7.5,2.91638 -3.575,1.18903 -7.4,2.5621 -8.5,3.05129 -1.1,0.48918 -5.15,1.62368 -9,2.52111 -6.94287,1.61837 -13.37432,3.32338 -23,6.09742 -8.56146,2.46734 -19.64947,4.57555 -28.5,5.41882 -8.6349,0.82272 -11.93,1.41348 -17.75,3.18229 -3.45467,1.04995 -4.42842,2.75914 -1.5,2.63291 2.91427,-0.12563 32.46589,1.22602 36.75,1.68088 4.23926,0.45011 23.2149,1.13274 58.5,2.1045 36.27846,0.99911 54.59658,1.32421 106,1.88118 67.90309,0.73576 77.54439,1.05147 101.91947,3.33737 23.10835,2.16711 -5.8654,3.19459 -85.91947,3.04691 -25.42816,-0.0469 -47.65045,0.24965 -49,0.65391 -0.825,0.24713 -2.03906,0.11002 -2.69792,-0.30468 z M 190.83354,427.57782 c 7.83523,-0.13247 10.89783,-0.65755 16.16646,-2.77174 3.575,-1.43457 8.99579,-3.58261 12.0462,-4.77343 3.05041,-1.19082 7.77541,-4.17765 10.5,-6.63741 2.72459,-2.45976 6.5288,-5.6898 8.4538,-7.17786 1.925,-1.48806 3.81079,-3.18304 4.19065,-3.76663 0.37986,-0.58358 6.88469,-5.76124 14.45519,-11.50591 15.74958,-11.95113 19.06429,-15.07815 25.45412,-24.01286 C 288.09728,358.5461 302,334.59542 302,332.64951 c 0,-0.83219 1.3361,-5.13676 2.96911,-9.56572 3.12281,-8.46952 5.82975,-23.5596 4.73706,-26.40711 C 309.3523,295.7545 308.32915,295 307.43251,295 c -0.89664,0 -3.04826,-0.60698 -4.78138,-1.34884 -1.73312,-0.74187 -6.06325,-2.07145 -9.62252,-2.95464 -7.65992,-1.90071 -8.94837,-1.24769 -10.98907,5.56959 -1.13495,3.79147 -6.61753,12.15155 -17.00224,25.92573 -1.94552,2.58051 -4.80239,6.63051 -6.3486,9 -1.54622,2.36949 -3.91795,5.8509 -5.27051,7.73647 -2.73758,3.8164 -2.05632,5.0292 2.84028,5.05638 2.50711,0.0139 2.64466,0.19756 1.50946,2.01531 -0.68696,1.1 -1.97103,2 -2.85349,2 -0.88246,0 -2.41895,0.9 -3.41444,2 -1.70697,1.88618 -1.71302,2.10713 -0.10642,3.88241 2.38643,2.63697 1.23878,7.52639 -1.43119,6.09746 -1.007,-0.53893 -2.10913,-0.97987 -2.44917,-0.97987 -0.34004,0 -0.52869,3.38407 -0.41922,7.52015 0.10947,4.13608 -0.0937,7.81285 -0.45142,8.17061 -0.35776,0.35775 -1.68054,-0.31724 -2.93952,-1.49999 C 241.44044,371.06514 239,361.12796 239,354.04046 c 0,-1.60734 -0.3375,-3.11781 -0.75,-3.35662 -0.4125,-0.2388 -3,0.86307 -5.75,2.44862 -2.75,1.58555 -6.125,3.44358 -7.5,4.12896 -1.375,0.68538 -5.72851,3.15695 -9.67447,5.49237 -3.94596,2.33541 -7.82836,4.24621 -8.62756,4.24621 -0.79919,0 -2.01328,0.675 -2.69797,1.5 -0.68469,0.825 -1.76458,1.5 -2.39976,1.5 -0.63518,0 -2.33948,1.35 -3.78733,3 -1.44785,1.65 -3.582,3 -4.74255,3 -1.16056,0 -3.89222,1.125 -6.07036,2.5 -2.17814,1.375 -4.22206,2.5 -4.54205,2.5 -1.21604,0 -11.44464,5.16945 -11.99699,6.06317 -0.31845,0.51526 -1.90244,0.93683 -3.51998,0.93683 -4.74445,0 -3.88317,-3.44653 1.7548,-7.02202 2.58268,-1.63789 5.30413,-2.97798 6.04768,-2.97798 2.16498,0 35.34845,-16.52972 41.03204,-20.43934 2.84696,-1.95836 5.4213,-3.56066 5.72077,-3.56066 0.29947,0 4.35115,-1.8 9.00373,-4 4.65258,-2.2 8.8543,-4 9.33714,-4 1.53504,0 14.57685,-15.21606 19.68191,-22.96317 2.70488,-4.10474 6.70633,-9.19871 8.89212,-11.31994 4.43745,-4.3064 4.95191,-5.10534 10.1207,-15.71689 2.00925,-4.125 4.24121,-8.175 4.95991,-9 1.59583,-1.83184 2.65806,-16.81013 1.36517,-19.25 -1.12824,-2.12917 -3.18332,-2.22184 -6.70266,-0.30223 -1.45986,0.79628 -7.37929,2.87887 -13.15429,4.62799 -14.57058,4.41311 -31.03509,13.53004 -44.22448,24.48852 -2.74781,2.28304 -5.85874,3.87714 -22.27552,11.4144 -8.6872,3.98846 -11.19821,5.26745 -22,11.20575 -2.75,1.51182 -6.8,3.68314 -9,4.82517 -10.57603,5.49007 -19.34525,12.1009 -21.69876,16.358 -3.55123,6.42355 -7.04132,10.65455 -9.24502,11.20765 -4.99609,1.25394 -6.33751,-2.60275 -1.73339,-4.98363 4.7868,-2.47535 5.63321,-4.12612 4.33587,-8.45627 -0.62638,-2.09066 -2.3049,-5.11388 -3.73005,-6.71827 -5.29075,-5.95618 -7.75145,-10.45053 -7.62104,-13.91947 0.0707,-1.88047 -0.33545,-3.7058 -0.90255,-4.05629 -1.44351,-0.89213 -4.60489,2.20376 -4.40341,4.31219 0.0918,0.96057 0.50099,4.47579 0.90935,7.81159 0.65762,5.37213 0.47661,6.48089 -1.58427,9.70417 -2.57464,4.0268 -4.53267,4.33888 -3.94978,0.62952 0.55391,-3.52497 0.5389,-20.48602 -0.0242,-27.29765 -0.45761,-5.53599 -0.73942,-6.08128 -4.58115,-8.86421 -3.32568,-2.40911 -5.09503,-2.96413 -9.43259,-2.95887 -2.93647,0.004 -6.12654,-0.20036 -7.08904,-0.45318 -2.937169,-0.77148 -1.957918,-2.19674 2,-2.91091 2.0625,-0.37215 4.2,-0.95505 4.75,-1.29531 0.55,-0.34026 1.9,-0.61866 3,-0.61866 1.72615,0 2.0355,-0.7531 2.2593,-5.5 0.41663,-8.83739 -0.66342,-9.17082 -7.4019,-2.28508 -7.669286,7.83688 -10.01249,8.22935 -18.526456,3.10303 C 76.250023,282.85553 73,282.0399 73,284.35078 73,287.19853 75.258381,292 76.597825,292 77.58915,292 78,293.29458 78,296.41821 78,301.80567 77.238317,304 75.36826,304 c -1.873997,0 -2.894865,-2.911 -4.394542,-12.53102 -0.683261,-4.38294 -1.617112,-8.38173 -2.075223,-8.8862 -1.692466,-1.86373 -2.138483,2.7334 -0.944915,9.7393 1.263159,7.41438 1.677961,20.72391 1.044615,33.518 l -0.363356,7.34008 5.182179,4.65992 c 5.725427,5.14842 7.611773,8.88423 9.075601,17.97377 0.761433,4.72807 2.117366,7.7732 6.06849,13.62852 C 94.171897,377.16442 100.31,384 102.03333,384 102.565,384 103,384.4753 103,385.05623 c 0,0.58093 2.00636,1.94374 4.45858,3.02847 2.45222,1.08474 4.72878,2.40943 5.05902,2.94377 0.77945,1.26119 4.18866,1.25583 4.96963,-0.008 0.33289,-0.53864 0.058,-2.00114 -0.6108,-3.25 -3.2152,-6.00356 -4.29455,-27.85196 -1.37643,-27.86204 0.55,-0.002 1.74295,4.18038 2.651,9.29396 2.21773,12.48892 2.60549,14.43627 3.39621,17.05599 1.18792,3.93565 7.37379,16.57456 8.43227,17.22874 1.5548,0.96092 1.21654,4.51268 -0.42979,4.51268 -0.79767,0 -1.81017,-0.62018 -2.25,-1.37817 C 126.22583,404.77115 119.06442,400 117.36045,400 c -2.35249,0 -1.52159,1.30575 5.40892,8.5 6.9077,7.17058 16.76622,14.53397 23.1442,17.28656 3.57727,1.54386 27.99128,3.31848 32.91997,2.39291 1.28345,-0.24102 6.68345,-0.51176 12,-0.60165 z m -55.53225,-26.38417 c -3.87975,-5.24764 -8.61776,-30.72261 -6.35802,-34.18529 2.18093,-3.3419 4.91539,4.16716 5.01318,13.76662 0.024,2.35124 0.89891,6.70864 1.94435,9.6831 2.37463,6.75626 3.56479,13.54192 2.37516,13.54192 -0.49492,0 -1.83351,-1.26286 -2.97467,-2.80635 z M 243,387 c 0,-0.55 0.675,-1 1.5,-1 0.825,0 1.5,0.45 1.5,1 0,0.55 -0.675,1 -1.5,1 -0.825,0 -1.5,-0.45 -1.5,-1 z M 102.30931,366.53407 C 98.515506,364.88413 93,357.66538 93,354.34996 c 0,-2.98615 1.776632,-3.04675 2.930618,-0.1 0.484615,1.2375 2.708257,4.01397 4.941432,6.16992 4.1396,3.99647 4.46251,3.9414 5.39413,-0.91992 0.31427,-1.63989 0.71414,-1.33345 2.22086,1.70197 1.51483,3.05176 1.61193,3.97386 0.55282,5.25 -1.55374,1.87215 -2.58565,1.88474 -6.73055,0.0821 z M 100,320.89301 c 0,-1.41932 -0.468206,-1.92732 -1.434558,-1.5565 -0.908201,0.34851 -2.176485,-0.70698 -3.456641,-2.87668 -1.751028,-2.96777 -2.409343,-3.34972 -4.911071,-2.84938 -2.656318,0.53127 -3.066803,0.19952 -5.096862,-4.11925 -2.199702,-4.67966 -2.461934,-8.16324 -0.587173,-7.80022 0.542468,0.10504 1.232023,1.23004 1.532345,2.5 0.488589,2.06608 0.620106,2.11629 1.25,0.47723 C 87.683218,303.66073 88,302.02137 88,301.0252 c 0,-2.69356 2.797093,-3.28504 4.749835,-1.0044 C 93.68189,301.10936 95.019473,302 95.722241,302 96.425008,302 97,302.675 97,303.5 c 0,0.825 0.45,1.5 1,1.5 0.55,0 1,-0.64844 1,-1.44098 0,-0.79254 0.403803,-1.69055 0.897341,-1.99557 0.493539,-0.30503 1.415339,3.38092 2.048449,8.19098 0.63312,4.81006 1.36289,9.75807 1.62172,10.99557 0.36514,1.7458 0.0181,2.25 -1.54846,2.25 C 100.63249,323 100,322.33996 100,320.89301 Z m 149,93.31018 c 3.025,-0.61981 9.1,-1.86511 13.5,-2.76733 4.4,-0.90222 10.25,-2.46221 13,-3.46665 C 283.95853,404.87974 300.85046,400 303.0866,400 c 0.75404,0 4.30552,-1.06465 7.89219,-2.36588 3.58666,-1.30123 8.77121,-2.83303 11.52121,-3.40399 7.52286,-1.5619 18.57403,-4.71478 22.50703,-6.42122 1.92114,-0.83353 5.96797,-2.56814 8.99297,-3.85468 7.26391,-3.08935 7.89155,-3.74449 8.61204,-8.98929 0.33735,-2.45572 1.0318,-5.25865 1.54323,-6.22874 2.23939,-4.24774 3.0315,-35.83525 1.46036,-58.2362 -0.38576,-5.5 -0.92,-15.4 -1.18721,-22 -0.84798,-20.94482 -1.20375,-26.32746 -1.80435,-27.29925 -0.93799,-1.5177 -29.27935,-0.1306 -33.83323,1.65589 -1.49003,0.58454 -3.91233,2.88093 -5.38288,5.10308 -1.47055,2.22215 -3.05238,4.04028 -3.51517,4.04028 -2.6069,0 -4.58173,8.66688 -5.46863,24 -0.65684,11.3556 -2.17487,20.2935 -4.40963,25.96313 -1.10799,2.811 -2.01453,5.82548 -2.01453,6.69884 0,2.20449 -4.98593,13.40805 -7.0484,15.83803 -0.93364,1.1 -3.13134,4.925 -4.88378,8.5 -3.2395,6.60863 -6.62428,11.89457 -9.92521,15.5 -1.00709,1.1 -2.96695,3.8 -4.35523,6 -3.3541,5.31522 -25.12835,25.5 -27.50802,25.5 -0.49785,0 -2.22687,1.39158 -3.84227,3.0924 -1.6154,1.70082 -5.52459,4.91602 -8.68709,7.14489 -3.1625,2.22887 -5.75,4.40599 -5.75,4.83805 0,1.06604 4.14318,1.68253 6,0.89277 0.825,-0.35089 3.975,-1.14511 7,-1.76492 z M 68.5,365 c 0.339919,-0.55 0.141476,-1 -0.440983,-1 C 67.476558,364 67,364.45 67,365 c 0,0.55 0.198442,1 0.440983,1 0.242541,0 0.719098,-0.45 1.059017,-1 z m 5.556034,-6.40933 c -2.414966,-3.9075 -9.639321,-10.07505 -10.384833,-8.8657 -1.125749,1.82615 2.196155,6.52685 6.828799,9.66316 2.75,1.86176 5.16383,3.23473 5.364068,3.05104 0.200237,-0.18368 -0.613378,-1.91551 -1.808034,-3.8485 z m -15.348024,-8.1737 c 1.80373,-13.31429 4.966072,-31.49189 6.104874,-35.0917 0.552381,-1.7461 0.848012,-3.33104 0.656957,-3.5221 -0.191054,-0.19105 -0.57061,-6.05763 -0.843458,-13.03685 -0.329545,-8.42947 -1.014217,-13.79345 -2.039463,-15.9779 -0.848857,-1.80863 -1.903944,-5.05534 -2.344638,-7.21492 -0.440694,-2.15957 -1.257714,-4.07864 -1.8156,-4.26461 -0.956341,-0.31878 -3.453997,5.11003 -4.112842,8.93952 -0.35698,2.07492 -8.712665,18.09858 -11.421165,21.90231 C 41.851704,303.61263 41,305.23898 41,305.76482 c 0,0.52585 -1.079947,2.54748 -2.399883,4.49251 -4.217021,6.21413 -4.23617,7.57896 -0.130403,9.29446 4.65537,1.94514 5.532394,4.18372 2.527182,6.45055 l -2.315287,1.74643 2.159196,3.49365 c 2.689529,4.35175 2.735204,6.37369 0.159195,7.04733 -1.1,0.28766 -2,1.15454 -2,1.9264 0,2.68968 15.620096,20.0769 17.479959,19.4575 0.561022,-0.18685 1.563645,-4.35235 2.228051,-9.25668 z M 169.5,317.59664 c 26.60053,-12.79605 25.63755,-12.16384 27.66983,-18.16543 0.9184,-2.71216 1.7059,-5.97329 1.75,-7.24695 0.0441,-1.27366 0.56806,-3.22737 1.16437,-4.34158 0.66625,-1.2449 1.1406,-10.18214 1.23054,-23.18426 0.12639,-18.27393 -0.0896,-21.62243 -1.5842,-24.56206 -0.9518,-1.872 -1.73331,-4.122 -1.7367,-5 -0.003,-0.878 -0.62913,-2.79036 -1.39054,-4.24969 -0.76142,-1.45933 -1.915,-4.38433 -2.56352,-6.5 -1.51704,-4.94906 -3.11041,-8.42935 -4.8,-10.48437 -1.24231,-1.51098 -1.63251,-1.49056 -5.04313,0.26388 C 178.44939,217.08259 169.24454,221 168.04502,221 c -1.15509,0 -0.75033,2.62892 1.46269,9.5 1.14134,3.54372 2.40697,11.92304 2.96625,19.6387 0.20681,2.85308 -1.09134,18.7856 -1.8627,22.8613 -1.91422,10.11445 -2.94449,14.05178 -6.06207,23.16705 -1.94372,5.68312 -4.6676,13.4051 -6.05305,17.15994 -1.38545,3.75484 -2.23977,7.27881 -1.89848,7.83103 0.87663,1.41841 4.80369,0.33444 12.90234,-3.56138 z m 140.89301,-27.17843 c 1.22345,-3.18825 1.48147,-2.95985 -9.73203,-8.61487 -4.36982,-2.20372 -11.22985,-3.30994 -12.07236,-1.94673 -0.31057,0.50251 -0.10549,2.20284 0.45574,3.77852 0.86401,2.42579 2.20322,3.26323 8.73802,5.46405 9.31252,3.13632 11.81291,3.39786 12.61063,1.31903 z m 3.10594,-12.03085 c 0.66491,-2.26195 2.87127,-6.80584 4.90302,-10.09753 3.22982,-5.23273 3.55112,-6.29869 2.55648,-8.48167 -1.17266,-2.57371 -1.36347,-1.98504 6.66375,-20.55816 2.25847,-5.22557 0.7298,-3.74809 -2.833,2.73813 -1.80906,3.29348 -3.80292,5.99348 -4.43079,6 -1.84402,0.0192 -2.38048,-4.21097 -1.33989,-10.56537 0.53344,-3.25752 0.9725,-6.58539 0.97569,-7.39527 0.009,-2.20257 -2.71732,2.01151 -3.59272,5.55395 C 315.46886,239.35553 312.02788,246 311.00602,246 c -1.44278,0 -1.85986,-2.70166 -1.02305,-6.62687 1.12599,-5.28168 1.79474,-16.35378 0.95647,-15.8357 -0.73037,0.45139 -3.55343,8.2664 -6.48871,17.96257 -3.08585,10.19353 -4.22329,10.53192 -6.89116,2.05009 -0.9538,-3.03239 -2.7074,-6.94949 -3.89688,-8.70467 -4.45326,-6.57116 -4.69393,-5.6304 -4.62202,18.06685 0.0642,21.15232 0.14899,22.08773 2.00245,22.08773 2.91505,0 11.47798,3.47813 14.5905,5.92644 4.00517,3.15047 6.42223,2.3702 7.86533,-2.53908 z M 178.36552,212.74138 c 3.77603,-1.32155 7.28789,-3.15757 7.80412,-4.08002 1.18535,-2.11811 0.1048,-4.12905 -1.50867,-2.80769 -0.63853,0.52293 -3.0055,1.44382 -5.25993,2.04643 -4.65083,1.24316 -10.5198,4.90951 -11.20783,7.00154 -0.51605,1.5691 -0.43315,1.5515 10.17231,-2.16026 z M 107,424.44098 c 0,-0.85746 0.45,-1.2809 1,-0.94098 0.55,0.33992 1,1.04148 1,1.55902 0,0.51754 -0.45,0.94098 -1,0.94098 -0.55,0 -1,-0.70156 -1,-1.55902 z m 424,-30.5643 c -29.16231,-1.73119 -33,-2.25725 -33,-4.52352 0,-0.93637 0.64871,-1.30699 1.75,-0.9998 0.9625,0.26848 5.125,0.7484 9.25,1.06649 4.125,0.31809 11.1,0.85696 15.5,1.19747 4.4,0.34052 9.8,0.51595 12,0.38984 2.2,-0.1261 4.45,-0.2178 5,-0.20377 19.3347,0.49319 72.89134,-0.0295 75.31338,-0.73498 2.84763,-0.82948 3.26848,-0.73201 2.99396,0.69346 -0.42054,2.1837 -4.8383,3.01486 -16.68626,3.13937 -49.35615,0.5187 -63.04823,0.51404 -72.12108,-0.0246 z m -84,-11.86816 c -1.375,-0.45847 -3.7375,-1.10651 -5.25,-1.4401 -1.61023,-0.35514 -2.75,-1.27385 -2.75,-2.21664 0,-1.38817 0.86153,-1.50704 6.25,-0.86235 3.4375,0.41127 9.4,0.9379 13.25,1.1703 3.85,0.2324 9.025,0.57221 11.5,0.75513 2.475,0.18292 11.9025,0.38941 20.95,0.45886 10.97857,0.0843 16.11703,0.45925 15.44891,1.12737 -1.07494,1.07494 -37.3934,1.47369 -48.08428,0.52793 -3.69254,-0.32666 -6.43671,-0.14051 -6.80902,0.4619 -0.71506,1.157 -1.08412,1.15844 -4.50561,0.0176 z M 114,55 c 0,-0.55 0.45,-1 1,-1 0.55,0 1,0.45 1,1 0,0.55 -0.45,1 -1,1 -0.55,0 -1,-0.45 -1,-1 z"
     id="path12"
     inkscape:connector-curvature="0" />
</svg>
