<?xml version="1.0" encoding="utf-8"?>
<!-- Created with Inkscape (http://www.inkscape.org/) -->
<svg xmlns="http://www.w3.org/2000/svg" xmlns:cc="http://creativecommons.org/ns#" xmlns:dc="http://purl.org/dc/elements/1.1/" xmlns:inkscape="http://www.inkscape.org/namespaces/inkscape" xmlns:rdf="http://www.w3.org/1999/02/22-rdf-syntax-ns#" xmlns:sodipodi="http://sodipodi.sourceforge.net/DTD/sodipodi-0.dtd" xmlns:svg="http://www.w3.org/2000/svg" height="322" id="svg2" version="1.1" viewBox="0 0 1037 322" width="1037" sodipodi:docname="illustration-calico-pie-3.svg" inkscape:version="0.92.4 (5da689c313, 2019-01-14)">
	<metadata id="metadata8">
		<rdf:RDF>
			<cc:Work rdf:about="">
				<dc:format>image/svg+xml</dc:format>
				<dc:type rdf:resource="http://purl.org/dc/dcmitype/StillImage"/>
				<dc:title/>
			</cc:Work>
		</rdf:RDF>
	</metadata>
	<defs id="defs6"/>
	<sodipodi:namedview bordercolor="#666666" borderopacity="1" gridtolerance="10" guidetolerance="10" id="namedview4" objecttolerance="10" pagecolor="#ffffff" showgrid="false" inkscape:current-layer="svg2" inkscape:cx="523.2788" inkscape:cy="161" inkscape:pageopacity="0" inkscape:pageshadow="2" inkscape:window-height="1010" inkscape:window-maximized="1" inkscape:window-width="1920" inkscape:window-x="0" inkscape:window-y="0" inkscape:zoom="1.183739"/>
	<path d="m 919.75,298.28975 c -0.9625,-1.07098 -1.75,-2.66897 -1.75,-3.5511 0,-1.81641 1.39328,-2.3453 8.5,-3.22658 6.36418,-0.78921 11.05944,-2.38675 21.79198,-7.41462 4.73859,-2.21988 9.8739,-4.32216 11.41182,-4.67173 1.53791,-0.34957 3.8149,-1.82586 5.05998,-3.28065 1.63341,-1.90853 2.48204,-2.30213 3.04761,-1.41351 0.47541,0.74694 1.74886,0.98226 3.23623,0.59801 1.34881,-0.34844 5.37738,-0.72246 8.95238,-0.83115 10.70226,-0.32537 10.29289,-0.19532 9.57818,-3.04295 -0.40575,-1.61665 -0.009,-3.61106 1.08902,-5.46924 0.95022,-1.60858 1.48943,-3.16293 1.19826,-3.4541 -0.29117,-0.29117 -2.90487,-0.76587 -5.80821,-1.05487 -2.90335,-0.28901 -6.24146,-1.06306 -7.41803,-1.72013 -1.47366,-0.82297 -9.91733,-1.24918 -27.13922,-1.3699 -13.75,-0.0964 -27.7,-0.4533 -31,-0.79315 -11.3637,-1.1703 -23.5,-1.43472 -23.5,-0.51201 0,1.47871 -3.64226,1.0539 -5.00101,-0.58329 -2.01686,-2.43017 -21.26398,-1.92564 -26.46137,0.69364 -3.39813,1.71251 -6.4598,2.05246 -21.5,2.38719 -9.64569,0.21467 -19.78762,0.68399 -22.53762,1.04294 -5.59957,0.73089 -9.98493,0.84036 -19.5,0.48677 -7.44348,-0.2766 -26.80491,0.50203 -32,1.28691 -1.925,0.29083 -7.775,1.22682 -13,2.07999 -10.77019,1.75862 -21.75217,2.18473 -23.00426,0.89259 -0.46304,-0.47785 -0.60755,-2.06181 -0.32114,-3.51991 0.43888,-2.23433 1.19159,-2.75171 4.78805,-3.29103 2.34701,-0.35195 5.08289,-1.23629 6.07971,-1.96519 1.73818,-1.27098 1.74025,-1.47734 0.0508,-5.0377 -1.69749,-3.57718 -1.83168,-3.64906 -3.68352,-1.97317 -1.05703,0.9566 -2.0316,1.55452 -2.16573,1.32873 -0.13413,-0.2258 -0.74183,-1.31054 -1.35045,-2.41054 -0.76939,-1.39058 -2.59767,-2.20225 -6,-2.66373 -5.91248,-0.80196 -18.07624,-5.04195 -19.95381,-6.95542 C 706.50191,233.84875 702,228.03816 702,226.69719 c 0,-2.83723 -1.40926,-3.18829 -16.63825,-4.14474 -3.37603,-0.21203 -7.51619,-1.09807 -9.20034,-1.96898 C 674.47726,219.71256 672.54348,219 671.86411,219 c -2.24857,0 -5.66658,-4.03936 -5.13573,-6.06933 0.27769,-1.06187 0.8973,-1.93067 1.37693,-1.93067 0.47963,0 4.61815,-2.66235 9.19671,-5.91632 4.57857,-3.25398 11.33366,-7.57028 15.01132,-9.59177 3.67767,-2.0215 6.68666,-4.2953 6.68666,-5.05289 0,-1.22556 1.09699,-3.77639 5.34945,-12.43902 0.89482,-1.82283 2.02486,-2.5 4.17193,-2.5 2.59572,0 3.01277,0.4188 3.51912,3.53397 1.06201,6.5336 1.74167,6.493 8.13672,-0.48606 3.29998,-3.60135 6.8234,-6.54791 7.82981,-6.54791 2.27345,0 5.91035,5.71602 6.6887,10.51244 0.40224,2.47867 1.00562,3.4324 1.94379,3.0724 0.95902,-0.36802 1.36048,0.35392 1.36048,2.44654 0,3.58304 0.18535,3.59703 6.5,0.49075 2.75,-1.35277 5.5625,-2.47366 6.25,-2.49086 C 751.4375,186.01407 752,185.55 752,185 c 0,-0.55 0.51592,-1 1.14649,-1 0.63058,0 3.66808,-1.67475 6.75,-3.72167 3.211,-2.13265 6.54981,-3.59836 7.81984,-3.43285 1.21898,0.15885 5.04398,-1.03898 8.5,-2.66185 10.44499,-4.90473 13.06858,-5.42802 24.77047,-4.94058 10.37807,0.43229 11.18578,0.63135 19.49072,4.80344 9.27478,4.65931 19.93841,14.27507 25.5711,23.05834 1.55024,2.41734 3.52349,5.18267 4.385,6.14517 0.86151,0.9625 1.56638,2.65 1.56638,3.75 0,1.1 0.9,2.9 2,4 1.1,1.1 2,2.46583 2,3.03518 0,0.56935 0.62449,2.03185 1.38776,3.25 0.76327,1.21815 1.67517,3.8571 2.02646,5.86434 0.35129,2.00723 1.3018,4.19983 2.11224,4.87244 0.81045,0.67261 1.47354,2.13785 1.47354,3.25609 0,1.11824 1.125,3.50812 2.5,5.31084 1.375,1.80272 2.5,3.7204 2.5,4.26152 0,1.29859 8.65059,3.15064 18,3.85371 4.125,0.31019 8.04279,0.9924 8.7062,1.51602 0.6634,0.52362 1.62602,0.69257 2.13914,0.37544 0.51313,-0.31712 3.12034,-0.11094 5.79381,0.45818 2.67347,0.56913 5.31085,0.99403 5.86085,0.94423 8.57004,-0.77599 12.67277,-0.60542 16.5,0.68595 4.802,1.62029 18.97063,1.28437 33.5,-0.79422 9.57439,-1.36973 40.92888,-2.75719 41.30243,-1.82767 0.16634,0.4139 2.79207,2.01222 5.83507,3.5518 6.6125,3.34561 9.2988,7.74844 9.9037,16.23159 0.6369,8.93229 -0.8053,11.55738 -7.9645,14.49682 -6.9218,2.842 -12.59367,4.05798 -17.37673,3.72537 -1.81501,-0.12622 -3.92733,0.29114 -4.69405,0.92746 -1.09526,0.90898 -1.6719,0.712 -2.69052,-0.91908 -1.70424,-2.72892 -4.40443,-2.61988 -10.39592,0.4198 -2.70571,1.3727 -5.65188,2.4977 -6.54704,2.5 -0.89515,0.002 -2.18775,0.67919 -2.87244,1.50419 -0.68469,0.825 -2.48731,1.5 -4.00581,1.5 -1.8226,0 -2.92168,0.61471 -3.23392,1.80873 -0.33387,1.27671 -2.20652,2.18684 -6.36663,3.09426 -3.2415,0.70704 -6.86036,1.89849 -8.0419,2.64766 -1.18154,0.74917 -6.13154,1.66007 -11,2.02423 -7.989,0.59757 -9.0223,0.47232 -10.60174,-1.28513 z M 1006.8,270.8 c 2.0255,-2.02551 1.4888,-5.8 -0.8248,-5.8 -1.8285,0 -3.9752,3.27519 -3.9752,6.0651 0,1.34081 3.3808,1.1541 4.8,-0.2651 z M 998,256 c 0,-0.55 -0.47656,-1 -1.05902,-1 -0.58246,0 -0.7809,0.45 -0.44098,1 0.33992,0.55 0.81648,1 1.05902,1 0.24254,0 0.44098,-0.45 0.44098,-1 z m -190,-2.00259 c 0,-0.81092 -13.29468,-2.4694 -16.5,-2.05834 -2.58416,0.33141 -3.22798,0.99334 -1.81427,1.8653 1.53081,0.9442 18.31427,1.1211 18.31427,0.19304 z M 785,253 c 0,-0.55 -0.45,-1 -1,-1 -0.55,0 -1,0.45 -1,1 0,0.55 0.45,1 1,1 0.55,0 1,-0.45 1,-1 z m 187,-1 c 0,-0.55 -0.45,-1 -1,-1 -0.55,0 -1,0.45 -1,1 0,0.55 0.45,1 1,1 0.55,0 1,-0.45 1,-1 z m 13,0 c 0,-0.55 -0.47656,-1 -1.05902,-1 -0.58246,0 -0.7809,0.45 -0.44098,1 0.33992,0.55 0.81648,1 1.05902,1 0.24254,0 0.44098,-0.45 0.44098,-1 z m -5.45888,-1.06653 c 1.07627,-1.74144 -0.14952,-2.11024 -1.52106,-0.45764 -0.78875,0.95039 -0.86462,1.52417 -0.20152,1.52417 0.58488,0 1.36004,-0.47994 1.72258,-1.06653 z m -132.17057,-3.41023 c -0.35965,-0.93722 0.35018,-1.89451 1.9429,-2.6202 2.17206,-0.98965 2.47155,-1.69889 2.22672,-5.27324 -0.15558,-2.27139 -1.73438,-7.2798 -3.50845,-11.1298 -1.77407,-3.85 -4.06371,-9.3799 -5.0881,-12.28868 -1.02438,-2.90877 -2.75084,-6.53621 -3.83658,-8.06099 -1.08573,-1.52478 -2.30474,-4.09487 -2.7089,-5.71132 -0.68158,-2.726 -0.43273,-2.59034 3.43351,1.87181 5.13747,5.92931 5.38266,4.96962 0.53033,-2.07574 -2.7884,-4.04864 -4.07286,-5.14423 -5.5,-4.69127 C 833.83789,197.86884 833,197.65445 833,197.06739 833,196.48032 832.33912,196 831.53138,196 c -0.89459,0 -1.24363,-0.58629 -0.89301,-1.5 0.42754,-1.11415 -0.1593,-1.50782 -2.28138,-1.53041 -2.42405,-0.0258 -2.5918,-0.18487 -1.10699,-1.04969 2.74977,-1.60159 2.088,-3.51287 -2.5,-7.2203 -8.74135,-7.06361 -25.42107,-9.82062 -37.3605,-6.17536 -3.23922,0.98898 -6.5645,2.35053 -7.3895,3.02566 -0.825,0.67513 -2.95734,1.53722 -4.73853,1.91574 -3.57719,0.7602 -5.40164,2.53436 -2.6062,2.53436 1.69682,0 1.69692,0.0755 0.002,1.75 -1.67596,1.65617 -1.82351,1.65732 -2.75202,0.0214 -0.91066,-1.60449 -1.31956,-1.55329 -5.69339,0.71282 -4.60321,2.38495 -7.91683,3.75574 -9.49873,3.92945 -0.43257,0.0475 -1.10757,0.53637 -1.5,1.08637 -0.39244,0.55 -2.01197,1.09306 -3.59896,1.20681 -3.29447,0.23612 -6.1491,2.85724 -6.30931,5.79319 -0.29801,5.46144 -7.10247,17.25074 -11.23235,19.46098 -1.7423,0.93245 -2.06125,0.82467 -1.99982,-0.6758 0.0402,-0.98185 0.93524,-3.13518 1.98899,-4.78518 3.01277,-4.71754 3.31052,-5.65169 2.04977,-6.43087 -0.64878,-0.40097 -0.8912,-1.48055 -0.53873,-2.39908 0.50011,-1.30326 0.0134,-1.7035 -2.21613,-1.82236 -4.23934,-0.22602 -4.73532,-0.32443 -6.17516,-1.22527 -0.725,-0.4536 -1.07662,-1.4542 -0.78139,-2.22357 0.59655,-1.55459 0.16099,-1.65577 -3.2247,-0.74914 -1.83905,0.49246 -2.2025,1.10754 -1.74099,2.94633 0.4258,1.69651 0.0307,2.61969 -1.46351,3.41935 -2.59229,1.38735 -5.61283,0.46318 -6.23263,-1.90696 -0.67911,-2.5969 -5.53609,-3.35535 -6.76634,-1.05661 -0.5263,0.9834 -2.56359,2.31826 -4.52729,2.96634 -3.00204,0.99076 -3.85189,0.92357 -5.33883,-0.4221 -2.20852,-1.99868 -3.39201,-0.99871 -1.96772,1.6626 0.80596,1.50595 0.73598,2.20988 -0.28518,2.86851 -0.94742,0.61108 -1.02335,1.09775 -0.25319,1.62283 0.60503,0.4125 1.30442,1.38568 1.5542,2.16263 0.51472,1.60101 2.3954,2.07951 8.84574,2.25063 5.85774,0.15541 10,2.97265 10,6.80124 0,4.89774 8.44305,10.87242 20.5,14.50671 6.56418,1.97863 6.43862,2.00333 7.66239,-1.50719 0.68362,-1.96104 2.42143,-3.73138 4.90814,-5 4.44026,-2.26525 6.69039,-2.41554 12.06345,-0.80573 3.92853,1.17702 4.7582,2.54953 2.75315,4.55458 -1.22651,1.22651 -0.26368,3.63788 1.11287,2.78713 0.47399,-0.29294 1.14446,-0.0753 1.48992,0.48369 0.34546,0.55897 0.15156,1.01631 -0.4309,1.01631 -0.58246,0 -1.05902,0.75344 -1.05902,1.67431 0,1.49168 0.24543,1.46441 2.25,-0.25 3.81933,-3.26648 6.05551,-4.09941 11.5,-4.28352 5.04737,-0.17067 5.25,-0.076 5.25,2.45213 0,2.48795 0.20209,2.59453 3.75,1.97775 4.90132,-0.85206 9.25,-2.58777 9.25,-3.69199 0,-1.49897 3.75316,-0.96432 4.36163,0.62132 0.31658,0.825 1.23331,1.5 2.03718,1.5 1.17288,0 1.27784,-0.64065 0.53138,-3.2434 -1.22392,-4.26757 -1.18056,-4.7566 0.42179,-4.7566 0.98638,0 1.5173,-2.36613 1.96334,-8.75 0.92163,-13.19064 1.681,-15.52875 6.19722,-19.0812 3.30792,-2.60201 11.65534,-3.75612 15.53727,-2.14817 3.91134,1.62013 3.7534,3.17658 -0.29981,2.95467 -6.79243,-0.37188 -8.23603,0.0102 -9.38264,2.48319 -1.30405,2.81257 -0.66127,4.03032 1.2779,2.42096 1.48838,-1.23525 4.35474,-0.50769 4.35474,1.10534 0,0.57616 -1.55705,1.79007 -3.46011,2.69758 -4.20067,2.00316 -6.12812,6.30083 -3.84831,8.58064 1.10468,1.10468 1.2381,1.99986 0.50284,3.37372 -1.37057,2.56092 1.29213,7.50051 5.80558,10.76997 8.46529,6.13211 11.33752,7.69558 19.17728,10.43897 4.57749,1.60182 8.4211,2.96683 8.54134,3.03336 0.12023,0.0665 -0.0364,-0.54357 -0.34807,-1.35579 z M 759,238.62244 c 0,-1.70547 -2.56395,-3.93446 -3.98199,-3.46178 -0.64835,0.21612 -0.4485,1.20742 0.52308,2.59454 1.76651,2.52205 3.45891,2.94638 3.45891,0.86724 z m 49,0.43658 c 0,-0.51754 -0.45,-1.2191 -1,-1.55902 -0.55,-0.33992 -1,0.0835 -1,0.94098 0,0.85746 0.45,1.55902 1,1.55902 0.55,0 1,-0.42344 1,-0.94098 z M 685.08179,214 C 686.1368,214 687,213.55 687,213 c 0,-1.10265 -3.93666,-1.34527 -6.41247,-0.39522 -0.86682,0.33264 -1.30811,1.03831 -0.98064,1.56818 0.32748,0.52986 1.2617,0.70771 2.07605,0.39521 C 682.49729,214.25568 684.02677,214 685.08179,214 Z M 73.721044,294.38771 c -1.031348,-1.03135 -11.134112,-1.67582 -22.514811,-1.43626 l -11.293767,0.23773 0.293767,-7.84016 0.293767,-7.84015 12,-1.17179 c 6.6,-0.64449 15.15,-1.65626 19,-2.24838 3.85,-0.59213 13.861752,-1.37474 22.248338,-1.73914 13.053942,-0.5672 15.500422,-0.43749 17.000002,0.9013 2.21064,1.9736 7.50071,1.73815 9.91143,-0.44113 1.54195,-1.39391 3.84849,-1.93774 11.59023,-2.73271 0.4125,-0.0424 0.75,-0.60012 0.75,-1.23947 0,-2.69289 6.23933,-10.72533 9.1078,-11.72529 l 3.00096,-1.04614 -2.19616,-2.97047 C 140.71466,250.12278 138.12315,248.73273 132.5,247.51049 129.06839,246.7646 120,241.24033 120,239.89575 120,239.40309 119.51998,239 118.93328,239 c -5.77677,0 -20.513027,-21.99569 -20.768794,-31 -0.02343,-0.825 -0.571887,-3.525 -1.218783,-6 -0.646896,-2.475 -1.177381,-5.175 -1.178855,-6 -0.005,-2.81376 -5.658797,-20.90546 -7.330301,-23.4565 C 87.519935,171.14458 87.05588,170 87.405314,170 c 0.816823,0 -3.134314,-7.80079 -5.459838,-10.77944 -0.978795,-1.25369 -2.081497,-4.06619 -2.450449,-6.25 C 79.126074,150.78675 78.474737,149 78.047611,149 c -0.427126,0 -2.300072,-1.35047 -4.162102,-3.00105 -2.306628,-2.04469 -3.010904,-3.24386 -2.210005,-3.76298 0.646528,-0.41906 1.321528,-2.55331 1.5,-4.74279 0.296943,-3.64285 0.842025,-4.32103 6.419564,-7.98702 3.352287,-2.20339 6.87193,-4.79366 7.821428,-5.75616 0.949499,-0.9625 2.314118,-1.75 3.032488,-1.75 3.423907,0 3.372632,-2.5566 -0.200705,-10.00719 C 88.271808,107.87176 86.282388,104.35 85.827347,104.16667 85.372306,103.98333 85,103.38665 85,102.84071 85,101.48537 76.091656,90 75.04042,90 74.576942,90 72.240744,88.022646 69.848867,85.605881 65.437938,81.149054 64.747895,80.858903 50.5,77.470039 37.292767,74.328696 34.240184,72.002811 33.481281,64.502799 33.213945,61.860798 32.433792,59.023071 31.747608,58.196739 31.061423,57.370407 30.449382,55.26574 30.387515,53.519702 30.325648,51.773663 29.295588,47.514908 28.098491,44.0558 c -1.762398,-5.092595 -1.97741,-6.89265 -1.130007,-9.460304 1.109438,-3.361631 4.252104,-4.48724 6.747073,-2.4166 2.61888,2.173478 5.019651,9.627795 5.598633,17.383584 0.325903,4.365636 0.895355,9.402877 1.26545,11.193869 0.8729,4.224204 6.964679,8.765735 13.693611,10.208833 5.327333,1.142508 16.206786,5.97298 21.226749,9.424667 4.210514,2.895115 10.5,8.839399 10.5,9.9237 0,0.49921 1.979769,3.739739 4.399487,7.201178 2.419718,3.461443 4.682696,7.582963 5.028841,9.158953 0.346144,1.57598 1.461813,4.13444 2.479264,5.68545 l 1.849911,2.82003 1.568047,-5.33958 c 0.86243,-2.93677 1.84289,-7.05647 2.17882,-9.15489 0.33592,-2.098422 2.01645,-7.498422 3.73451,-12.000001 2.38755,-6.255746 4.25509,-9.30489 7.92416,-12.937811 2.64023,-2.614217 5.10438,-5.989217 5.47589,-7.5 1.0034,-4.080471 8.45971,-17.140172 11.58751,-20.295486 4.68126,-4.722441 9.36463,-21.408595 8.00504,-28.520792 -0.6047,-3.163292 2.16638,-4.285505 4.76812,-1.930962 1.05881,0.95821 2.4507,3.375287 3.09308,5.371281 1.9398,6.027315 2.83365,6.573842 5.91825,3.618606 1.48584,-1.423521 3.28825,-4.366014 4.00536,-6.538873 C 159.01336,16.929488 159.84184,16 161.53761,16 c 1.21963,0 2.7396,0.629087 3.37771,1.397972 1.12718,1.358166 1.37405,2.231995 2.71274,9.602028 1.51033,8.314984 2.11136,10.644592 3.33721,12.935103 1.44016,2.690965 1.96555,2.622034 6.82046,-0.894844 7.69575,-5.574773 13.71626,-7.402603 15.44896,-4.690309 1.49787,2.344709 0.6681,3.491085 -2.98469,4.123523 -3.88174,0.672078 -9.51195,3.315843 -7.75,3.639151 1.54326,0.283181 3.80138,0.573395 6,0.77112 1.97396,0.177521 1.97473,0.198978 0.0589,1.648059 C 187.49125,45.339312 184.97349,46 182.96386,46 c -4.4398,0 -7.47583,2.834559 -6.65671,6.214959 0.30453,1.256772 0.93026,3.860041 1.39049,5.785041 1.23089,5.14837 0.53278,9.190246 -1.5198,8.799212 -0.92281,-0.175804 -1.82164,-1.327546 -1.99739,-2.559428 C 174.0047,63.007903 173.4422,62 172.93045,62 c -1.24703,0 -1.19088,2.721009 0.0722,3.501671 1.60777,0.993657 -0.69577,4.31465 -3.25051,4.686217 -1.2387,0.18016 -2.78833,-0.350913 -3.44362,-1.180162 -1.5609,-1.975276 -4.67322,-0.216124 -5.13578,2.902856 -0.40756,2.748088 -3.48363,2.429422 -4.03193,-0.417688 -0.21016,-1.091277 -1.24514,-3.0813 -2.29995,-4.422275 -1.89283,-2.406348 -1.89206,-2.46391 0.0592,-4.415153 1.49056,-1.490565 3.17165,-1.934735 6.8322,-1.805174 2.75574,0.09754 5.65123,-0.410242 6.69613,-1.174291 1.69763,-1.241339 1.73576,-1.756556 0.48977,-6.618127 -1.01711,-3.968567 -1.94369,-5.497271 -3.74777,-6.183179 -1.99822,-0.759723 -2.28461,-1.365275 -1.72291,-3.642941 1.63987,-6.649551 1.656,-8.130903 0.12089,-11.099474 C 162.67753,30.409526 161.55886,29 161.08247,29 c -0.47639,0 -3.11845,2.025 -5.87125,4.5 -2.75279,2.475 -5.5126,4.5 -6.1329,4.5 -0.6203,0 -1.55555,-1.125 -2.07832,-2.5 -1.68388,-4.428929 -4,-2.425862 -4,3.459343 0,1.537672 -0.675,3.355968 -1.5,4.040657 -0.825,0.684689 -1.5,1.658011 -1.5,2.162937 0,0.504927 -0.85448,2.137326 -1.89884,3.627556 -1.04437,1.490229 -4.47435,6.759507 -7.62219,11.709507 -3.14784,4.95 -6.66138,10.028019 -7.80787,11.284487 -5.17277,5.668974 -12.6516,22.183249 -14.28728,31.548243 -0.75243,4.30801 -1.62978,8.25623 -1.94968,8.77383 -1.15047,1.86151 -1.50021,16.9321 -0.47857,20.62254 1.66179,6.00288 2.41483,6.61606 8.72163,7.10173 10.18219,0.78411 29.58386,0.30811 30.64379,-0.75182 0.67322,-0.67322 0.70674,-3.14823 0.0988,-7.29883 C 144.91392,128.32608 144.725,123.25 145,120.5 c 0.67734,-6.77345 0.0724,-9.66832 -2.14155,-10.24727 -3.47633,-0.90908 -2.02262,-4.21161 2.53797,-5.76572 3.61686,-1.23252 5.07597,-3.46904 4.29426,-6.582233 -1.08988,-4.340556 -3.22584,-6.208456 -7.79695,-6.818451 -3.39121,-0.452544 -4.45807,-1.042667 -4.67571,-2.586326 -0.16328,-1.158055 0.57782,-2.532528 1.76044,-3.264996 1.71962,-1.065063 2.68829,-0.935499 6.12889,0.819761 2.24755,1.146617 4.32842,1.842794 4.62416,1.547061 0.89641,-0.896417 -1.74206,-6.263111 -4.22684,-8.597439 -2.81151,-2.641277 -5.30829,-2.106476 -9.5574,2.047157 C 133.15158,83.784417 130,84.148277 130,81.738175 c 0,-1.791555 7.66574,-8.441123 10.31488,-8.947539 6.25331,-1.195394 10.7536,3.457277 14.68615,15.183433 1.86763,5.568899 2.00957,7.036952 1.01521,10.5 -0.63579,2.214261 -1.47755,5.150931 -1.87057,6.525931 -0.79993,2.79862 0.34156,9.07529 2.41255,13.26579 0.75179,1.52119 1.11059,3.43369 0.79735,4.25 -0.35796,0.93283 0.0274,1.48421 1.03744,1.48421 0.88385,0 1.60699,-0.45 1.60699,-1 0,-0.55 0.42033,-1 0.93406,-1 0.51373,0 4.22623,-2.51568 8.25,-5.59039 4.02377,-3.07472 9.02222,-6.86441 11.10768,-8.42155 5.30377,-3.96014 27.29268,-14.650512 32.7101,-15.902706 2.47399,-0.571844 6.52316,-1.529501 8.99816,-2.128127 2.475,-0.598627 5.55945,-1.190992 6.85433,-1.316368 2.24413,-0.217287 5.45742,-4.32742 4.54162,-5.809212 C 233.16024,82.450249 233.43206,81.851008 234,81.5 c 0.56794,-0.351008 0.77007,-1.063016 0.44917,-1.582239 -0.32089,-0.519223 0.0891,-3.300629 0.91114,-6.180902 0.82203,-2.880272 1.80668,-7.396654 2.18812,-10.036404 1.00931,-6.985009 4.24168,-9.56564 6.83395,-5.456037 0.72486,1.149147 0.64163,2.3422 -0.28406,4.071878 -0.80765,1.509092 -1.04688,3.641427 -0.62437,5.5651 C 244.00442,70.296629 243.81891,71 242.65141,71 c -1.46065,0 -1.65348,0.865654 -3.21378,14.426832 -0.18521,1.609758 -1.48931,4.079391 -2.89799,5.488073 -2.05162,2.051624 -2.9049,2.344465 -4.28842,1.471765 -1.34804,-0.850324 -3.15663,-0.446447 -8.2392,1.839899 -3.58161,1.611156 -9.21202,3.615094 -12.51202,4.453196 -3.3,0.838101 -7.57328,2.715515 -9.49618,4.172025 -5.57649,4.22395 -9.84581,7.02588 -13.81207,9.06479 C 179.97088,116.14263 165,132.61864 165,137.43996 c 0,1.87893 3.88394,2.5744 13.5,2.41735 13.51228,-0.22069 22.5,-2.76632 22.5,-6.37277 0,-3.03487 -7.36063,-2.27813 -11.14392,1.14571 -1.02759,0.92995 -2.15084,1.40832 -2.49612,1.06304 -0.34528,-0.34528 -1.79426,0.28977 -3.21995,1.41122 -1.6139,1.26949 -2.7324,1.61833 -2.96373,0.92433 -0.58177,-1.7453 0.75036,-6.02884 1.87489,-6.02884 0.55719,0 2.68611,-0.73184 4.73095,-1.62631 2.04483,-0.89447 6.94322,-1.81316 10.8853,-2.04154 l 7.16742,-0.41524 2.73372,3.58408 c 2.5584,3.35425 3.06069,3.57137 7.83257,3.38582 6.67077,-0.25939 14.65775,-2.68556 16.82093,-5.10963 0.94714,-1.06136 2.14654,-1.66741 2.66533,-1.34678 0.5188,0.32064 2.29114,-0.55119 3.93855,-1.93739 1.6474,-1.3862 4.57973,-3.18239 6.51629,-3.99154 1.93655,-0.80914 3.80106,-1.9243 4.14334,-2.47813 0.97406,-1.57605 -13.99489,-0.15551 -21.64081,2.0537 -7.70208,2.22544 -7.84476,2.24259 -7.84476,0.94328 0,-2.09703 7.72689,-4.82302 15.5,-5.46829 10.21997,-0.84838 16.08168,-2.92623 17.73173,-6.28552 0.69755,-1.42012 1.94327,-2.88426 2.76827,-3.25365 0.825,-0.3694 3.36392,-1.63388 5.64204,-2.80997 6.21558,-3.20881 12.434,-5.17206 16.43365,-5.18834 2.50706,-0.0102 4.27648,-0.760518 5.92061,-2.510607 1.2897,-1.372831 2.15565,-2.623676 1.92431,-2.779655 -0.23134,-0.155979 -2.12517,-1.05861 -4.20853,-2.005846 -3.6803,-1.673321 -3.87002,-1.661549 -6.67781,0.414344 -4.38463,3.241697 -8.08144,1.057237 -4.41522,-2.608976 1.85823,-1.858237 1.92219,-1.76415 -2.35708,-3.467581 -2.59258,-1.032022 -3.20395,-1.813917 -3.06711,-3.922589 0.094,-1.448502 0.0886,-5.027438 -0.012,-7.953191 -0.15799,-4.595239 -0.43782,-5.276041 -2.05517,-5 -2.29028,0.390894 -12.1065,11.688007 -12.11883,13.947106 -0.0129,2.365518 2.57519,4.139228 4.94312,3.387676 C 258.52506,87.015963 259,87.305472 259,88.763633 c 0,2.418907 -3.84042,4.498199 -7.51438,4.068456 -2.60481,-0.304685 -2.93853,-0.827208 -4.04411,-6.332089 -1.25801,-6.263868 -1.10159,-9.779975 0.45821,-10.299907 1.44888,-0.482961 9.2536,-8.603418 13.0808,-13.609978 3.74581,-4.900094 5.95089,-6.319129 7.0517,-4.537975 0.38067,0.615933 0.9749,4.118674 1.32052,7.783869 1.04653,11.098349 1.32096,12.285443 3.27019,14.145433 1.03239,0.985124 3.47315,2.070546 5.42392,2.412048 3.13126,0.54816 3.94516,0.209964 6.94617,-2.886288 C 286.86264,77.578241 288.85073,76 289.411,76 c 1.26872,0 2.85942,-1.437502 14.089,-12.732109 4.95,-4.978663 9.76551,-9.303103 10.70113,-9.609866 0.93563,-0.306763 2.68262,0.237006 3.88221,1.208376 l 2.18107,1.766126 -3.97751,2.933737 C 310.00562,64.199205 300.68778,73.021116 301.36275,73.696088 302.04087,74.374205 314.6202,69.378254 317,67.485671 319.19237,65.742145 325.09375,63 326.65364,63 c 2.13821,0 1.56288,2.812978 -0.90364,4.418219 -2.86075,1.86181 -18.9681,8.174383 -24.31513,9.529254 -2.23582,0.56653 -5.00738,2.047611 -6.15902,3.291291 L 293.18197,82.5 l 2.04517,4.303468 c 3.04742,6.412426 1.2441,9.231998 -8.47714,13.254322 -3.2038,1.32563 -3.62635,2.94221 -0.76905,2.94221 1.33672,0 2.19243,0.89433 2.63124,2.75 0.35766,1.5125 1.43217,3.65 2.38781,4.75 2.8631,3.29562 3.35251,7.24098 1.051,8.47271 -1.58375,0.84759 -2.17006,0.67335 -3.00901,-0.89426 C 288.46889,117.00762 288,115.2019 288,114.06574 288,112.92958 287.37748,112 286.61663,112 c -0.76085,0 -1.6203,-0.90602 -1.90988,-2.01337 -0.7309,-2.79499 -7.10244,-5.38041 -9.7576,-3.95942 -2.04469,1.09429 -1.80744,2.97279 0.37547,2.97279 0.66362,0 2.70612,0.80421 4.53888,1.78713 2.96213,1.58861 3.37503,2.3294 3.71693,6.66859 0.23202,2.94468 -0.10439,5.47073 -0.8479,6.36667 -0.67789,0.81687 -1.245,3.69013 -1.26024,6.38501 -0.0284,5.03137 -1.22364,6.74667 -4.72229,6.77729 -1.87342,0.0164 -2.40476,-2.91429 -0.82216,-4.53469 1.5414,-1.57822 -1.53437,-7.23968 -5.12129,-9.42657 -4.10202,-2.50094 -12.35869,-2.72585 -15.64206,-0.42609 -2.09337,1.46625 -2.14234,1.69837 -0.59677,2.82852 1.53597,1.12313 1.4533,1.41245 -0.94199,3.29658 -2.79853,2.20133 -3.4307,3.48544 -1.37573,2.79451 0.6875,-0.23115 2.91018,-0.66024 4.93929,-0.95352 3.16039,-0.4568 3.99601,-0.14117 5.8288,2.20166 1.17672,1.5042 3.11654,2.97784 4.3107,3.27476 5.29227,1.31586 1.82317,15.28872 -5.27963,21.26533 -1.67704,1.41113 -3.04916,3.25097 -3.04916,4.08853 0,0.83756 -2.45163,3.90411 -5.44807,6.81456 -2.99644,2.91045 -5.58394,5.92923 -5.75,6.7084 -0.16606,0.77916 -1.07798,2.23022 -2.02649,3.22456 -2.26112,2.37038 -3.46537,7.12879 -1.93338,7.63946 1.678,0.55933 1.42215,2.21931 -0.34206,2.21931 -1.92777,0 -1.88888,0.52295 0.22224,2.98857 0.94723,1.10629 2.76958,2.01143 4.04966,2.01143 1.28008,0 3.65507,0.68656 5.27776,1.52568 2.28584,1.18205 2.97703,2.25189 3.06882,4.75 0.23476,6.38864 -0.91901,8.40928 -6.28578,11.00848 -4.28417,2.07489 -10.41995,0.53837 -14.03948,-3.51577 C 234.25695,205.04766 233,203.04583 233,202.31989 c 0,-1.66713 -1.44054,-1.70334 -2.78057,-0.0699 -0.564,0.6875 -2.04553,4.625 -3.29228,8.75 -2.98808,9.88635 -6.19048,15.4999 -13.4407,23.56049 C 208.1211,240.52555 200.17384,246 196.87974,246 194.93687,246 185,250.98349 185,251.95787 c 0,0.4946 0.70714,1.60642 1.57143,2.4707 1.42857,1.42857 1.4232,1.57143 -0.059,1.57143 -0.89674,0 -1.35233,0.45 -1.01241,1 0.33992,0.55 1.49148,1 2.55902,1 1.06754,0 1.94098,0.35062 1.94098,0.77916 0,0.42853 1.62632,2.45353 3.61405,4.5 1.98772,2.04646 3.22522,3.73886 2.75,3.76088 -0.47523,0.022 0.38412,0.71698 1.90966,1.54436 1.52554,0.82738 3.23276,1.22062 3.79381,0.87387 0.56105,-0.34675 1.71893,-0.0505 2.57306,0.6584 1.29225,1.07247 1.71816,0.99367 2.53692,-0.46936 0.77192,-1.37935 1.28703,-1.50667 2.39049,-0.59089 0.7736,0.64203 2.06419,0.91497 2.86799,0.60652 0.80381,-0.30845 2.84955,0.13166 4.54611,0.97801 1.69656,0.84636 4.75714,1.64344 6.80128,1.7713 2.04415,0.12785 4.51971,0.59152 5.50124,1.03038 1.0136,0.45319 3.81749,0.22874 6.48999,-0.51951 2.58795,-0.72458 6.95988,-1.34121 9.71538,-1.37027 3.29022,-0.0347 4.93211,-0.45823 4.78305,-1.23377 -0.26604,-1.38418 8.45442,-2.64407 13.72697,-1.98321 2.24921,0.28192 4.11869,-0.1064 5.23124,-1.0866 1.33051,-1.17223 2.05346,-1.25788 3.12325,-0.37003 0.76561,0.6354 2.06598,0.89664 2.88972,0.58054 1.34328,-0.51546 3.41155,2.21779 2.42485,3.20449 -0.20791,0.20791 -4.156,1.0672 -8.77354,1.90952 C 245.04327,276.9249 238.51336,278 235.93809,278 c -1.55103,0 -3.09817,0.45 -3.43809,1 -0.7899,1.27808 6.78206,1.31398 11.5,0.0545 1.925,-0.51388 5.88743,-1.18406 8.80541,-1.48928 2.91797,-0.30522 6.29297,-0.78445 7.5,-1.06495 1.20702,-0.2805 5.79459,-0.9564 10.19459,-1.50199 4.4,-0.5456 10.7,-1.48009 14,-2.07666 7.90378,-1.42883 33.50455,-1.75118 33.48637,-0.42164 -0.0322,2.35401 -1.29631,5.5 -2.20999,5.5 -0.5447,0 -0.73204,-0.67318 -0.41631,-1.49595 0.48442,-1.26238 -0.39662,-1.41211 -5.64301,-0.95899 -15.19073,1.312 -31.9884,3.52979 -33.70888,4.45056 -1.03218,0.55243 -3.04573,1.0044 -4.47456,1.0044 -2.76692,0 -10.14259,2.72436 -9.39625,3.4707 0.24444,0.24445 4.70104,-0.26214 9.90354,-1.12574 10.88942,-1.80763 12.72477,-2.00699 26.95909,-2.9284 5.775,-0.37382 10.99508,-1.06962 11.60017,-1.54622 1.34691,-1.06088 7.93666,2.01542 6.7344,3.14383 -0.45901,0.43082 -4.20957,1.07192 -8.33457,1.42466 -12.61393,1.07866 -13.37145,1.17932 -17.5,2.32561 -2.2,0.61083 -6.19985,1.32553 -8.88855,1.58823 -2.68869,0.2627 -5.25746,1.07456 -5.70835,1.80412 -0.65291,1.05643 -1.0726,1.07371 -2.06146,0.0849 -1.54949,-1.54949 -4.5683,-1.57453 -10.14083,-0.0841 -3.5786,0.95713 -5.16088,0.87371 -9.13922,-0.48184 -2.64622,-0.90166 -5.15798,-1.42514 -5.58167,-1.16328 -0.42369,0.26186 -1.00884,-0.14538 -1.30032,-0.90497 -0.41986,-1.09413 -2.88283,-1.3024 -11.85478,-1.00245 -15.37885,0.51414 -32.69163,2.25336 -35.06279,3.52237 -1.10017,0.58879 -3.10489,0.71367 -4.60517,0.28685 -3.44995,-0.98147 -4.21457,-0.9818 -13.38487,-0.006 -4.25041,0.45236 -8.47416,0.53615 -9.38612,0.1862 -1.52637,-0.58573 -1.51731,-0.79186 0.11413,-2.59458 1.65179,-1.82521 1.65722,-2.00244 0.0799,-2.6077 -2.58493,-0.99193 -8.1004,0.96827 -7.95645,2.82772 0.0713,0.92076 -0.84141,1.77965 -2.1587,2.03146 -1.75281,0.33507 -2.14259,0.0725 -1.68036,-1.13211 0.429,-1.11794 -0.21035,-0.9295 -2.22615,0.65613 -3.13455,2.46563 -5.55821,2.89055 -5.55841,0.9745 -2e-4,-1.87233 -8.891,-1.51115 -12.66472,0.51448 -1.98031,1.06298 -6.38385,1.8743 -11.7654,2.16767 -4.73031,0.25787 -8.93113,0.64451 -9.33516,0.8592 -0.40402,0.21469 -4.55959,0.34946 -9.23459,0.29949 -6.78577,-0.0725 -8.4382,-0.37707 -8.19358,-1.51011 0.25017,-1.1587 0.0278,-1.18802 -1.21129,-0.15968 -1.19238,0.98959 -2.28459,1.00651 -5.09513,0.079 -2.496601,-0.82395 -3.957166,-0.86548 -4.834396,-0.13744 -0.691346,0.57377 -4.83643,1.33375 -9.211298,1.68885 -4.374868,0.3551 -8.22904,0.81406 -8.564826,1.01992 -0.335786,0.20587 -0.861582,0.12323 -1.168436,-0.18362 z M 58.5,290.5328 c 7.553093,-0.0413 9.307144,-0.98343 6.861713,-3.68561 -1.410051,-1.55808 -2.538208,-1.82422 -5.565143,-1.31282 C 57.585621,285.90791 56,285.77365 56,285.2129 c 0,-0.5296 1.0125,-0.96428 2.25,-0.96597 2.926082,-0.004 17.75,-4.51755 17.75,-5.4045 0,-0.37467 -1.4625,-0.30358 -3.25,0.15798 -3.566085,0.92081 -12.28923,2.18171 -14.907558,2.15483 -2.222794,-0.0228 -5.808652,3.97383 -4.101371,4.57122 2.39066,0.8365 -1.457959,3.27354 -5.169642,3.27354 -3.399645,0 -4.406819,0.83128 -2.86963,2.36847 0.38599,0.38599 2.07349,0.36324 3.75,-0.0505 C 51.12831,290.90414 55.2,290.55083 58.5,290.5328 Z m 38.291976,-3.07416 c -0.766998,-0.767 -4.751303,0.79815 -4.22004,1.65775 0.309194,0.50029 1.434869,0.41515 2.574399,-0.19471 1.113727,-0.59604 1.854265,-1.25441 1.645641,-1.46304 z M 102,287 c 0,-0.55 -0.7875,-0.99311 -1.75,-0.98469 -1.495547,0.0131 -1.531897,0.15626 -0.25,0.98469 1.88721,1.21961 2,1.21961 2,0 z m -29.5,-1 c 0.339919,-0.55 -0.08352,-1 -0.940983,-1 C 70.701558,285 70,285.45 70,286 c 0,0.55 0.423442,1 0.940983,1 0.517541,0 1.219098,-0.45 1.559017,-1 z m 184.9138,0.13948 c 0.2925,-0.47329 0.293,-1.09934 0.001,-1.39124 -0.78432,-0.78432 -4.41491,0.34097 -4.41491,1.36839 0,1.13664 3.71356,1.15586 4.4138,0.0229 z M 84.6849,284.83379 c 1.548305,-0.64141 3.1151,-1.20391 3.481767,-1.25 0.366666,-0.0461 0.993574,-0.4107 1.393128,-0.81025 1.284274,-1.28428 -2.532047,-2.04146 -4.028725,-0.79933 -0.793903,0.65889 -1.882078,0.92689 -2.418167,0.59557 -0.536088,-0.33132 -1.257358,-0.14506 -1.602822,0.41391 C 81.164618,283.54266 80.008524,284 78.940983,284 77.873442,284 77,284.45 77,285 c 0,1.3549 4.234161,1.26333 7.6849,-0.16621 z M 188.5,283.87268 c 3.85,-1.13799 8.67026,-2.29551 10.7117,-2.57226 2.04143,-0.27675 4.28994,-1.19993 4.99668,-2.05151 1.12312,-1.35327 0.90748,-1.47876 -1.71169,-0.99615 -18.54399,3.41694 -24.76053,5.03875 -25.27928,6.59502 -0.56842,1.70525 3.36454,1.36535 11.28259,-0.9751 z M 46,283.55902 c 0,-1.05548 -1.919113,-1.49891 -2.489919,-0.57533 C 43.164618,283.54266 43.583524,284 44.440983,284 45.298442,284 46,283.80156 46,283.55902 Z M 97.5,281 c 0.339919,-0.55 0.168034,-1 -0.381966,-1 -0.55,0 -1.278115,0.45 -1.618034,1 -0.339919,0.55 -0.168034,1 0.381966,1 0.55,0 1.278115,-0.45 1.618034,-1 z m 84.14283,-11.11854 c 1.06965,-0.88773 1.05107,-1.57271 -0.10323,-3.80488 -2.35865,-4.56113 -4.28615,-5.48762 -11.89833,-5.71921 C 162.01332,260.1253 152,261.70049 152,263.13251 c 0,0.47712 0.5625,0.88117 1.25,0.8979 0.69022,0.0168 0.46276,0.48885 -0.50792,1.05412 -0.96686,0.56304 -2.17326,0.76702 -2.6809,0.45328 -1.77249,-1.09546 -2.24332,1.60344 -0.59708,3.42252 1.21342,1.34082 3.15812,1.8522 7.22846,1.90082 3.06264,0.0366 5.75187,0.24995 5.97606,0.47414 0.86467,0.86467 17.73843,-0.42822 18.97421,-1.45383 z m 1.34186,-18.19048 C 182.99311,251.24602 182.55,251.16008 182,251.5 c -0.55,0.33992 -0.99311,1.37898 -0.98469,2.30902 0.0132,1.45727 0.14929,1.48367 0.98469,0.19098 0.53316,-0.825 0.97627,-1.86406 0.98469,-2.30902 z M 154.5,243 c -1.1,-0.47269 -3.35,-0.88417 -5,-0.9144 -2.29109,-0.042 -2.64555,0.17409 -1.5,0.9144 0.825,0.53316 3.075,0.94464 5,0.9144 2.85984,-0.0449 3.13419,-0.21216 1.5,-0.9144 z m -8.5,-0.44098 c 0,-0.24254 -0.45,-0.7191 -1,-1.05902 -0.55,-0.33992 -1,-0.14148 -1,0.44098 0,0.58246 0.45,1.05902 1,1.05902 0.55,0 1,-0.19844 1,-0.44098 z m -4.27083,-1.16319 c -0.3323,-0.33229 -1.1948,-0.36781 -1.91667,-0.0789 -0.79773,0.31922 -0.56078,0.55618 0.60417,0.60416 1.05416,0.0434 1.64479,-0.19293 1.3125,-0.52522 z M 193.81291,239 c 1.44785,-1.65 3.61901,-3 4.82479,-3 2.55389,0 10.08373,-8.04189 11.019,-11.76833 0.33613,-1.33925 2.06668,-5.20175 3.84568,-8.58333 4.00248,-7.6081 8.24415,-20.58316 10.18269,-31.14834 2.02904,-11.05837 3.63308,-30.58185 2.59767,-31.61726 -0.47152,-0.47152 -3.18392,0.0318 -6.05938,1.12439 -12.09986,4.59758 -36.87915,9.28123 -47.64684,9.00594 -12.63776,-0.3231 -16.46494,-0.2514 -22.07652,0.41356 -8.8991,1.05452 -14.09497,2.69517 -15.46056,4.88182 -1.14224,1.82902 -0.99818,1.90639 2.37224,1.2741 3.16757,-0.59424 3.58832,-0.43335 3.58832,1.37214 0,1.23009 -0.69752,2.09884 -1.75,2.17961 -2.63846,0.20247 -10.36115,-0.26015 -13.75,-0.82369 -1.65,-0.27438 -4.45199,-0.596 -6.22664,-0.71472 -1.77466,-0.11871 -3.53716,-0.52635 -3.91667,-0.90587 -1.14523,-1.14522 -6.54807,-0.8087 -5.82407,0.36277 0.35787,0.57903 1.17192,0.86577 1.80902,0.6372 0.6371,-0.22857 2.28336,0.13924 3.65836,0.81736 1.375,0.67812 4.75,1.55313 7.5,1.94446 13.06562,1.85928 14.38519,2.40809 15.46914,6.43359 0.55198,2.04988 0.95027,6.09376 0.8851,8.9864 l -0.11849,5.25935 -3.61787,-0.56654 c -1.98984,-0.3116 -5.64288,-0.79651 -8.11788,-1.07758 -2.475,-0.28107 -6.075,-0.79034 -8,-1.1317 -5.67007,-1.00547 -2.86786,0.52746 5.10757,2.79407 4.06584,1.1555 9.30493,2.02386 11.64243,1.92968 4.40198,-0.17736 5.32185,0.78648 2.77101,2.90348 -1.20361,0.99891 -1.25257,1.62682 -0.26294,3.37245 1.45424,2.56515 1.83329,8.64499 0.53898,8.64499 -2.04859,0 0.37084,1.78358 3.18214,2.34584 2.03689,0.40738 3.02081,1.19859 3.02081,2.42916 0,2.40556 1.90554,4.22131 4.45,4.24031 2.94375,0.022 5.2635,1.67444 4.04164,2.87902 -1.27261,1.25461 -10.7432,1.61614 -16.24164,0.62001 -2.82471,-0.51174 -4.25,-0.41228 -4.25,0.29658 0,0.58659 2.1375,1.38704 4.75,1.77877 2.6125,0.39173 5.2,1.3098 5.75,2.04017 1.13067,1.50145 6.11328,2.01195 8.75,0.8965 1.0198,-0.43143 1.75,-0.30615 1.75,0.30023 0,0.57231 1.2375,1.18296 2.75,1.35699 2.21848,0.25526 2.72901,0.79962 2.64141,2.81642 -0.20306,4.67502 3.47345,6.06042 16.10859,6.0701 3.85,0.003 8.575,0.39233 10.5,0.86527 1.925,0.47295 3.8781,0.90597 4.34023,0.96227 0.46213,0.0563 2.02483,-1.24764 3.47268,-2.89764 z m -51.3812,-9.1105 c -0.30624,-0.4955 -2.55562,-0.82532 -4.99862,-0.73291 -5.0078,0.18942 -5.07989,0.741 -0.23384,1.7892 3.68342,0.79672 6.07882,0.31316 5.23246,-1.05629 z M 141,219 c 0,-0.55 -1.4625,-1.03775 -3.25,-1.0839 -5.10239,-0.13172 -13.1254,-0.9081 -14.5,-1.40315 -0.6875,-0.2476 -1.25,-0.0408 -1.25,0.45959 0,0.50037 1.9125,1.33805 4.25,1.86152 5.78079,1.29457 14.75,1.39547 14.75,0.16594 z m -8.27083,-6.60417 c -0.3323,-0.33229 -1.1948,-0.36781 -1.91667,-0.0789 -0.79773,0.31922 -0.56078,0.55618 0.60417,0.60416 1.05416,0.0434 1.64479,-0.19293 1.3125,-0.52522 z M 134,208 c -1.96549,-1.2702 -5,-1.2702 -5,0 0,0.55 1.4625,0.99311 3.25,0.98469 2.46622,-0.0116 2.88826,-0.24909 1.75,-0.98469 z m -2,-5 c 0,-0.55 -0.92656,-1 -2.05902,-1 -1.13246,0 -1.7809,0.45 -1.44098,1 0.33992,0.55 1.26648,1 2.05902,1 0.79254,0 1.44098,-0.45 1.44098,-1 z m 116.64326,-0.51273 c 0.87879,-2.2901 -1.32436,-4.27089 -4.14961,-3.73081 -2.93907,0.56184 -3.04185,0.98031 -0.83866,3.4148 2.01109,2.22223 4.20349,2.36111 4.98827,0.31601 z M 125,202 c 0,-0.55 -0.45,-1 -1,-1 -0.55,0 -1,0.45 -1,1 0,0.55 0.45,1 1,1 0.55,0 1,-0.45 1,-1 z m 116.5,-8 c 0.33992,-0.55 0.14148,-1 -0.44098,-1 -0.58246,0 -1.05902,0.45 -1.05902,1 0,0.55 0.19844,1 0.44098,1 0.24254,0 0.7191,-0.45 1.05902,-1 z m -109.13631,-4.03631 c -0.56997,-0.56997 -2.79747,-1.24895 -4.95,-1.50885 L 123.5,187.9823 l 3,1.46375 c 3.57207,1.74287 7.42944,2.08339 5.86369,0.51764 z m 0.20428,-5.62373 c -2.08943,-0.72338 -4.09159,-1.13438 -4.44925,-0.91333 -0.35767,0.22105 -3.10376,-0.23452 -6.10244,-1.01236 -2.99867,-0.77785 -6.81657,-1.38575 -8.48421,-1.35088 l -3.03207,0.0634 2.5,1.07127 c 1.375,0.5892 4.975,1.49752 8,2.01849 3.025,0.52098 7.3,1.27671 9.5,1.67941 5.45986,0.9994 6.71696,0.0535 2.06797,-1.55598 z M 237.79002,180.25 c 3.54452,-5.45052 10.61474,-14.55437 17.36954,-22.36561 3.75009,-4.33659 4.91193,-6.61012 5.95251,-11.64812 1.50809,-7.30145 0.65167,-8.91352 -5.24362,-9.87019 -2.96055,-0.48043 -4.39331,0.0638 -9.39865,3.57005 -3.24808,2.27529 -7.27005,5.79178 -8.9377,7.81443 l -3.0321,3.67754 -0.16628,14.3843 c -0.0915,7.91136 -0.43752,15.46504 -0.76905,16.78595 -0.959,3.82095 0.87696,2.80057 4.22535,-2.34835 z M 99.045837,177.91435 c 0.613912,-1.1471 0.967243,-2.17444 0.785183,-2.28296 -0.182061,-0.10853 -1.11852,-0.80009 -2.08102,-1.5368 -2.201476,-1.68505 -4.95069,0.18397 -4.013501,2.72852 1.29775,3.52351 3.739087,4.02528 5.309338,1.09124 z m 34.788703,1.05286 c -2.43607,-1.4217 -14.18319,-2.90169 -15.22918,-1.91869 -0.50232,0.47207 0.37473,1.12267 2,1.4836 1.59205,0.35355 3.34464,0.79293 3.89464,0.9764 0.55,0.18347 3.25,0.35543 6,0.38212 3.69676,0.0359 4.5659,-0.2048 3.33454,-0.92343 z m -18.0491,-2.1109 C 115.4268,175.78041 110,174.60239 110,175.60044 c 0,0.4984 3.95643,2.23144 5.33333,2.33617 0.45834,0.0349 0.66178,-0.45127 0.45211,-1.0803 z m 16.95671,-8.44749 c -0.78208,-0.78208 -13.89487,-3.27428 -17.65882,-3.35621 -6.96096,-0.15153 5.24077,3.22116 13.57521,3.75233 2.63157,0.16771 4.46919,-0.0105 4.08361,-0.39612 z M 112,165 c 0,-0.55 -0.70156,-1 -1.55902,-1 -0.85746,0 -1.2809,0.45 -0.94098,1 0.33992,0.55 1.04148,1 1.55902,1 0.51754,0 0.94098,-0.45 0.94098,-1 z m 19,0.10941 c 0,-0.48983 -1.575,-1.07447 -3.5,-1.2992 -3.41029,-0.39814 -4.75679,0.516 -2.25,1.52751 2.11921,0.85512 5.75,0.71095 5.75,-0.22831 z M 117,163 c 0,-0.55 -0.47656,-1 -1.05902,-1 -0.58246,0 -0.7809,0.45 -0.44098,1 0.33992,0.55 0.81648,1 1.05902,1 0.24254,0 0.44098,-0.45 0.44098,-1 z m 4.25,0.33772 c -0.6875,-0.27741 -1.8125,-0.27741 -2.5,0 -0.6875,0.27741 -0.125,0.50439 1.25,0.50439 1.375,0 1.9375,-0.22698 1.25,-0.50439 z m -7.67621,-1.21832 C 112.85851,160.96205 108,160.04655 108,161.06912 c 0,0.67767 1.31609,1.12257 5.30902,1.7947 0.44496,0.0749 0.56411,-0.26009 0.26477,-0.74442 z M 180.5,155.6001 c 3.3,-0.24746 7.0125,-0.48371 8.25,-0.52501 1.29996,-0.0434 2.25,-0.70845 2.25,-1.57509 0,-1.69817 1.56593,-2.01136 2.5,-0.5 1.04185,1.68575 4.31587,1.11401 6.39398,-1.11658 2.15049,-2.30827 9.29405,-4.16146 15.60602,-4.04852 4.90838,0.0878 12.10427,-3.21363 12.79955,-5.87239 C 228.60334,140.80083 229.6671,140 230.90638,140 232.13593,140 233,139.35657 233,138.44098 c 0,-0.85746 -0.37501,-1.32725 -0.83335,-1.04397 -0.77532,0.47917 -13.01731,2.93014 -28.09687,5.62529 -3.53662,0.63209 -12.76162,1.3771 -20.5,1.65558 -7.73838,0.27847 -14.63228,0.96997 -15.31978,1.53666 -0.88141,0.72653 -1.25,0.66623 -1.25,-0.20448 0,-0.96146 -4.81498,-1.09368 -21.75,-0.59726 -24.75503,0.72566 -36.24492,0.70837 -37.48235,-0.0564 -0.47039,-0.29072 -1.51804,0.0215 -2.3281,0.69377 -1.21072,1.00481 -2.10134,0.57521 -5.00433,-2.41391 C 98.492895,141.63632 96.2542,140 95.460336,140 c -0.793863,0 -2.005448,-0.9 -2.692409,-2 -1.653111,-2.64705 -4.143269,-2.53652 -5.63229,0.25 -3.359084,6.28612 0.971143,9.94788 13.864363,11.7241 3.025,0.41673 10.45,1.46001 16.5,2.3184 6.05,0.85838 14.6,1.86275 19,2.23193 4.4,0.36917 10.7,0.9647 14,1.3234 6.1292,0.66621 19.2575,0.5578 30,-0.24773 z m 99.42971,-37.79921 c 0.0387,-0.93451 -1.44823,-2.85734 -3.30421,-4.27296 -2.81629,-2.1481 -3.8088,-2.40874 -6,-1.57565 -3.8486,1.46324 -3.37816,4.54989 1.1245,7.37798 6.40596,4.02354 7.96205,3.7326 8.17971,-1.52937 z m 11.47062,-32.200026 c -0.68684,-1.789889 -2.52893,-1.715076 -3.14317,0.127654 -0.20231,0.606936 0.44456,1.283479 1.4375,1.503431 2.33855,0.518029 2.47887,0.383846 1.70567,-1.631085 z M 169.5,68 c 0.33992,-0.55 0.14148,-1 -0.44098,-1 C 168.47656,67 168,67.45 168,68 c 0,0.55 0.19844,1 0.44098,1 0.24254,0 0.7191,-0.45 1.05902,-1 z M 289,269.0798 c 0,-2.0094 3.92353,-4.05219 7.56835,-3.94047 2.16241,0.0663 5.80514,-0.14357 8.09496,-0.46633 4.51269,-0.6361 7.72165,1.34204 5.60718,3.45651 -0.60388,0.60388 -1.28198,0.66092 -1.6069,0.13518 -0.33114,-0.53579 -3.15144,-0.56261 -6.86287,-0.0653 C 290.00044,269.78071 289,269.84952 289,269.0798 Z m 148.86951,-23.46685 c -0.98468,-2.16113 -0.90393,-2.91743 0.47401,-4.44004 0.91346,-1.00937 1.35986,-2.13619 0.992,-2.50406 -1.73327,-1.73327 -31.00783,-0.37565 -38.83552,1.80101 -1.1,0.30588 -2.675,0.11311 -3.5,-0.42839 -2.60157,-1.70756 0.18852,-4.44387 5.5968,-5.48894 2.69676,-0.5211 5.39431,-1.59808 5.99456,-2.39329 0.94572,-1.25287 1.69994,-1.21341 5.65155,0.29573 3.31193,1.26483 6.16107,1.58879 10.40864,1.18347 3.21665,-0.30694 14.96095,-0.68305 26.09845,-0.83581 11.1375,-0.15275 20.25,-0.57276 20.25,-0.93333 0,-0.36058 -2.73432,-1.13724 -6.07626,-1.72591 -6.39902,-1.12717 -20.00268,-5.03103 -28.42374,-8.15679 -6.46938,-2.40134 -14.18608,-3.2213 -16.8846,-1.79411 -3.07048,1.6239 -6.57812,5.10995 -6.59812,6.55751 -0.01,0.6875 -0.97616,1.25 -2.14812,1.25 -1.84896,0 -2.06053,-0.43332 -1.5993,-3.27555 0.30207,-1.86142 -7.3e-4,-4.00349 -0.70137,-4.96167 -1.10991,-1.51789 -1.44757,-1.53578 -3.38423,-0.17929 -1.18322,0.82876 -4.36381,1.76887 -7.06797,2.08914 -3.89217,0.46097 -5.58981,1.29598 -8.14717,4.00726 -2.08497,2.21047 -3.97839,3.31772 -5.3396,3.12253 -3.2446,-0.46524 -3.23375,-3.72955 0.0214,-6.45288 3.52562,-2.94956 8.34903,-5.65053 8.34903,-4.67522 0,0.39912 0.49169,0.23399 1.09264,-0.36696 0.79019,-0.79019 0.76776,-1.69969 -0.081,-3.28565 -1.37821,-2.57521 -0.64606,-3.79314 1.30622,-2.17289 1.77211,1.47072 2.68216,0.48713 2.68216,-2.89891 0,-3.53743 -3.12238,-4.21306 -12.32036,-2.66591 l -6.82036,1.14723 0.56245,5.72087 c 0.43916,4.46683 0.20993,6.07338 -1.04571,7.32903 -1.82914,1.82913 -3.5692,1.59509 -3.98019,-0.53534 -2.08445,-10.80509 -2.82802,-11.90517 -8.06404,-11.93048 -1.74252,-0.008 -3.88002,-0.28845 -4.75,-0.6223 -2.46389,-0.94548 -1.97283,-6.92366 0.91821,-11.1782 2.97331,-4.37561 3.23646,-9.58402 0.9333,-18.4722 -1.7748,-6.84919 -2.56473,-15.15292 -1.75919,-18.49261 0.37016,-1.53463 1.28384,-2.25 2.87375,-2.25 2.15732,0 2.38754,0.54029 3.08919,7.25 0.41698,3.9875 0.66328,7.75247 0.54734,8.3666 -0.11594,0.61413 0.42794,1.6467 1.20862,2.2946 1.38235,1.14725 2.80859,-3.44157 6.08938,-19.5921 0.85751,-4.2213 2.97648,-6.01309 5.06312,-4.28133 0.88921,0.73798 1.26492,1.95776 0.88475,2.87244 -0.79827,1.92063 -2.10956,6.70111 -3.86486,14.08979 -0.71863,3.025 -1.63862,6.7375 -2.04441,8.25 -0.63418,2.36376 -0.44168,2.75 1.3706,2.75 1.15963,0 2.10841,-0.45 2.10841,-1 0,-1.45921 6.75748,-1.22627 7.25235,0.25 0.44241,1.31982 6.41635,-0.38978 15.6084,-4.46676 3.61077,-1.60149 4.84205,-1.73477 7.15927,-0.77495 2.03257,0.84192 3.35277,0.86257 4.82351,0.0755 3.49825,-1.8722 8.93358,-1.36136 9.65363,0.90731 0.34756,1.09508 0.33454,2.47224 -0.0289,3.06036 -0.98332,1.59103 1.481,6.7977 3.52429,7.44622 1.83588,0.58268 6.20866,-0.30776 14.00748,-2.85239 9.84492,-3.21223 20.79514,-5.70058 26.3747,-5.99344 6.37736,-0.33474 22.73831,1.58373 29.07186,3.40894 5.44138,1.5681 12.78587,7.30656 24.97966,19.51732 5.37676,5.38423 15.41836,10.80255 18.10757,9.7706 0.82042,-0.31483 2.14124,-0.0333 2.93514,0.62555 0.7939,0.65889 1.94311,0.88917 2.5538,0.51174 0.61069,-0.37742 1.6429,0.0402 2.2938,0.9281 1.16048,1.58295 5.97817,2.41223 17.22758,2.96539 2.77427,0.13642 5.50137,0.53063 6.06023,0.87603 0.55886,0.34539 14.48597,0.64425 30.94914,0.66412 16.46316,0.0199 32.63606,0.29629 35.93977,0.61426 10.19779,0.98149 18.45383,3.63699 21.11929,6.79288 1.3131,1.55469 2.38746,3.19943 2.38746,3.65497 0,0.45554 -1.95685,1.97504 -4.34855,3.37667 -4.00282,2.34582 -5.33448,2.55429 -16.75,2.62221 -13.53007,0.0805 -37.21254,-1.70054 -40.40145,-3.03841 -1.1,-0.46149 -2.9,-0.9924 -4,-1.17981 -1.4632,-0.24928 -1.95276,-1.04427 -1.824,-2.96195 0.16606,-2.47326 -0.14617,-2.65861 -5.53152,-3.28364 -3.13913,-0.36434 -6.14333,-0.5395 -6.67599,-0.38926 -0.53267,0.15025 -5.24349,-0.26139 -10.46849,-0.91475 -9.60569,-1.20115 -20.00504,-2.30224 -25.5,-2.69998 -1.65,-0.11943 -5.18725,-0.56722 -7.86056,-0.99509 -3.70148,-0.59242 -5.06902,-0.44882 -5.73469,0.60219 -1.43268,2.262 -1.05806,5.88012 0.60882,5.88012 0.83246,0 2.29496,0.42919 3.25,0.95375 2.3521,1.29192 14.24209,4.04625 17.46699,4.04625 1.43152,0 2.78578,0.54901 3.00945,1.22003 0.58319,1.74957 8.64019,3.50697 12.75999,2.78321 8.30731,-1.45941 48.17902,1.18658 60.76435,4.03247 2.34539,0.53036 5.38289,0.96429 6.75,0.96429 3.35296,0 3.24852,2.75946 -0.15338,4.05286 -2.61621,0.99468 -6.81945,0.75204 -19.36097,-1.11768 -5.58681,-0.83289 -33.59877,-3.1749 -36.5,-3.05168 -5.73536,0.2436 -14.25512,1.56165 -15.25,2.35925 -0.6875,0.55118 -1.25,0.74404 -1.25,0.42859 0,-0.31546 -1.9125,0.29456 -4.25,1.35559 -5.51222,2.50209 -8.9883,2.47222 -11.3136,-0.0972 -1.39514,-1.54161 -2.6477,-1.93239 -4.90499,-1.5303 -6.37104,1.13487 -31.33811,0.45612 -33.55201,-0.91215 -0.51594,-0.31887 -1.78931,-0.12419 -2.82972,0.43262 -1.0404,0.55681 -4.9872,1.24826 -8.77066,1.53655 -6.74119,0.51366 -10.8722,1.34337 -16.87902,3.39015 -4.58579,1.56258 -16.68552,3.06439 -30.22183,3.75113 l -12.22182,0.62005 -1.18684,-2.60482 z M 446,239 c 1.1647,-0.75269 0.87209,-0.9728 -1.30902,-0.98469 -1.62108,-0.009 -2.54765,0.40759 -2.19098,0.98469 0.76737,1.24163 1.57871,1.24163 3.5,0 z m 41.5,-1.39474 c 2.75,-0.87099 6.4625,-1.58848 8.25,-1.59444 1.7875,-0.006 3.25,-0.49114 3.25,-1.07821 0,-0.58706 -0.82579,-0.80529 -1.83509,-0.48495 -1.00929,0.32034 -4.04679,0.79477 -6.75,1.05429 -2.7032,0.25952 -9.41491,0.9455 -14.91491,1.5244 -5.5,0.57891 -12.475,0.84934 -15.5,0.60096 -6.19473,-0.50865 -11,0.16617 -11,1.54475 0,1.57495 32.79417,0.24036 38.5,-1.5668 z m 49.5,-1.61633 c 0.275,-0.12406 -0.85,-0.56908 -2.5,-0.98893 -4.43883,-1.12949 -21.09334,-1.18901 -19.95,-0.0713 0.5225,0.51079 2.525,1.07329 4.45,1.25 3.68345,0.33814 17.14437,0.19622 18,-0.18977 z m -25,-2.01656 c 0,-0.50028 -0.67242,-0.65157 -1.49426,-0.3362 -0.82184,0.31537 -1.24074,0.98359 -0.9309,1.48493 0.64806,1.04858 2.42516,0.20682 2.42516,-1.14873 z m -31,-2.36203 c 1.375,-0.32556 6.325,-0.86373 11,-1.19594 4.675,-0.3322 10.075,-0.76042 12,-0.95159 1.925,-0.19117 3.96674,-0.37351 4.5372,-0.40519 1.76748,-0.0982 1.424,-3.62066 -0.36549,-3.74807 -0.91944,-0.0655 -3.6103,-0.40703 -5.9797,-0.75903 -4.15761,-0.61768 -7.76931,0.11746 -24.95486,5.07935 -3.04462,0.87906 -4.99678,1.95004 -4.63158,2.54094 0.59427,0.96155 2.50497,0.83398 8.39443,-0.56047 z m 161.84456,-3.44765 2.34457,-0.432 -2.54823,-2.36285 c -3.21265,-2.97894 -11.80051,-4.32086 -27.8258,-4.34803 -12.36708,-0.021 -18.83558,1.2699 -15.55718,3.10463 0.96686,0.54109 2.11465,0.76333 2.55066,0.49386 0.43601,-0.26946 4.36994,0.58701 8.74208,1.90328 6.53146,1.96635 9.91135,2.36467 18.94934,2.23316 6.05,-0.088 12.05505,-0.35445 13.34456,-0.59205 z M 648,226 c 0,-0.55 -0.19844,-1 -0.44098,-1 -0.24254,0 -0.7191,0.45 -1.05902,1 -0.33992,0.55 -0.14148,1 0.44098,1 0.58246,0 1.05902,-0.45 1.05902,-1 z m -169,-2.09445 c 1.98146,-0.75405 2.54022,-1.71721 2.6939,-4.6436 0.10665,-2.03071 -0.25764,-4.23629 -0.80953,-4.90128 -1.73457,-2.09003 0.11937,-8.18603 3.3047,-10.86631 5.08972,-4.28271 15.83021,-3.06465 21.5831,2.4477 1.2497,1.19744 2.01166,2.59869 1.69325,3.11389 C 506.82466,210.09273 501,207.46112 501,206.13483 c 0,-0.44759 -1.0125,-1.26917 -2.25,-1.82574 -2.65095,-1.19226 -7.51626,0.18272 -10.89306,3.07848 -2.1555,1.84843 -2.16129,1.91698 -0.27904,3.30571 1.05715,0.77998 1.79767,2.03414 1.64558,2.78702 -0.15209,0.75289 0.22419,1.67834 0.83618,2.05657 1.70198,1.05188 26.39531,2.34481 27.30375,1.42961 1.23944,-1.24866 -1.46029,-9.50355 -4.23888,-12.96115 C 511.40604,201.8669 510,199.4537 510,198.64267 c 0,-1.67169 -5.76902,-6.47931 -11,-9.16685 -1.925,-0.98902 -2.96801,-1.97801 -2.31779,-2.19775 0.65021,-0.21975 2.56271,0.31434 4.25,1.18687 1.68728,0.87253 3.06188,1.23736 3.05465,0.81074 -0.0256,-1.51107 -12.17292,-6.58893 -16.29904,-6.81337 -2.3033,-0.12529 -7.33782,-0.53666 -11.18782,-0.91416 -4.18003,-0.40985 -9.01426,-0.23597 -12,0.43164 -2.75,0.61489 -6.575,1.4672 -8.5,1.89401 -1.925,0.42682 -4.625,1.38264 -6,2.12404 -6.96734,3.75682 -22.25998,4.94341 -32.42545,2.51595 -3.259,-0.77822 -6.24551,-1.21715 -6.63669,-0.97538 -0.39119,0.24176 -1.26733,-0.23048 -1.947,-1.04942 C 408.3112,185.67005 407.00021,185 406.07756,185 c -0.92266,0 -2.17835,-0.50079 -2.79043,-1.11287 -1.52867,-1.52867 -3.20452,-0.28722 -2.62155,1.94203 0.33836,1.29392 -0.84668,2.82582 -4.06053,5.24901 -2.49609,1.88201 -4.40596,3.87183 -4.24415,4.42183 0.1618,0.55 2.50539,1.225 5.20796,1.5 3.94172,0.40109 4.97265,0.89565 5.21139,2.5 0.83078,5.58289 1.56684,6.76417 5.94476,9.54056 4.68545,2.97143 10.31317,3.85491 13.14157,2.06306 0.89162,-0.56486 3.96192,0.33337 8.83397,2.58439 8.49311,3.92406 21.97793,8.61657 24.47144,8.51569 0.91959,-0.0372 3.33408,0.77974 5.36553,1.81543 2.88128,1.46896 5.04263,1.76814 9.82802,1.36044 3.37395,-0.28745 7.25946,-0.95076 8.63446,-1.47402 z M 476.63837,214.5 c 0.31659,-0.825 0.75246,-1.5 0.96862,-1.5 0.21615,0 0.39301,0.675 0.39301,1.5 0,0.825 -0.43588,1.5 -0.96862,1.5 -0.53273,0 -0.70959,-0.675 -0.39301,-1.5 z M 386.25,200.30934 c -0.6875,-0.26181 -1.25,-1.09938 -1.25,-1.86129 0,-0.76257 0.61628,-1.14879 1.37096,-0.85919 1.50229,0.57648 2.99796,-2.18291 2.03113,-3.74728 -0.33241,-0.53786 -1.23387,-0.73637 -2.00324,-0.44114 -0.76937,0.29524 -2.09328,0.27031 -2.94202,-0.0554 -2.68348,-1.02975 1.00963,-3.9438 7.60242,-5.99871 6.42931,-2.00396 7.28956,-2.96972 3.49386,-3.92238 -4.09765,-1.02844 -9.73468,1.60759 -15.79094,7.38429 -6.16431,5.87975 -7.23398,8.19575 -3.45135,7.47266 1.27095,-0.24296 2.81139,0.15694 3.4232,0.88867 0.61181,0.73172 2.83444,1.39461 4.93918,1.47308 2.10474,0.0785 3.2643,-0.0715 2.5768,-0.33333 z M 405.5,223 c -0.33992,-0.55 -0.14148,-1 0.44098,-1 0.58246,0 1.05902,0.45 1.05902,1 0,0.55 -0.19844,1 -0.44098,1 -0.24254,0 -0.7191,-0.45 -1.05902,-1 z m 354,-47 c 0.33992,-0.55 1.37898,-0.99311 2.30902,-0.98469 1.45727,0.0132 1.48367,0.14929 0.19098,0.98469 -1.95837,1.2656 -3.28218,1.2656 -2.5,0 z m 7.0573,-2.41824 c 1.06675,-0.78003 2.15223,-1.20556 2.41217,-0.94563 0.55036,0.55036 -2.02834,2.32607 -3.4106,2.34856 -0.51762,0.008 -0.0683,-0.6229 0.99843,-1.40293 z M 170.1414,97.670381 c -0.60691,-0.73129 -1.27545,-4.274646 -1.48563,-7.874126 -0.45414,-7.777417 -0.85734,-8.564703 -5.34707,-10.440631 -4.41559,-1.844952 -3.78413,-3.700729 1.50412,-4.420385 2.28252,-0.310618 4.46885,-0.883577 4.85852,-1.273243 0.38966,-0.389665 1.75531,2.076156 3.03477,5.479601 3.81972,10.160696 1.9144,23.925773 -2.56471,18.528784 z M 148.75,52.251829 c -2.1816,-0.496753 -2.27754,-3.569119 -0.16618,-5.321396 1.83705,-1.524614 4.71756,-0.224334 5.22651,2.359279 0.36231,1.839195 -2.53743,3.536586 -5.06033,2.962117 z" id="path12" style="fill:#000000" inkscape:connector-curvature="0"/>
</svg>
