<?xml version="1.0" encoding="utf-8"?>

<svg xmlns="http://www.w3.org/2000/svg" version="1.1" viewBox="0 0 1070 695">











	<path d="M 590.95787,672.62501 C 590.70604,672.37343 585.325,671.92044 579,671.61835 c -13.23864,-0.63229 -31.81667,-2.36778 -33.96767,-3.17313 -3.48636,-1.30532 -19.05289,-3.07113 -34.03233,-3.86051 -23.34765,-1.23037 -31.64598,-1.88151 -33.64268,-2.63984 -1.17847,-0.44757 -3.09337,-0.56515 -4.25532,-0.26129 -1.16196,0.30386 -2.73234,0.0382 -3.48973,-0.5904 -0.75739,-0.62858 -2.66749,-1.08658 -4.24467,-1.01778 -1.57718,0.0688 -4.6676,-0.16484 -6.8676,-0.5192 -10.0272,-1.61512 -29.58494,-2.36851 -40,-1.54085 -1.1,0.0874 -12.8,-0.11175 -26,-0.44258 -13.2,-0.33084 -37.275,-0.81247 -53.5,-1.07031 -37.78532,-0.60046 -48.31544,-1.17314 -55.37321,-3.01145 C 280.47839,652.67095 276.35851,652 274.47152,652 c -1.887,0 -6.92754,-0.63728 -11.20121,-1.41619 -4.27367,-0.7789 -10.92031,-1.96956 -14.77031,-2.6459 -3.85,-0.67634 -8.79718,-1.85779 -10.99374,-2.62545 -3.98747,-1.39354 -14.44239,-3.71493 -22.00626,-4.88621 -2.2,-0.34067 -5.35,-1.16345 -7,-1.8284 -1.65,-0.66495 -6.6,-2.03132 -11,-3.03638 -4.4,-1.00507 -9.69661,-2.44256 -11.77024,-3.19443 C 183.65613,631.61517 181.13143,631 180.11931,631 c -1.01212,0 -3.51721,-1.13804 -5.56687,-2.52897 -2.8364,-1.92484 -4.48972,-2.38582 -6.92095,-1.92972 -2.41011,0.45214 -3.62478,0.12358 -4.94779,-1.33832 -1.41888,-1.56785 -2.81956,-1.87604 -7.34043,-1.61511 -3.07282,0.17736 -5.82822,0.56374 -6.1231,0.85862 -0.29488,0.29488 -1.06969,0.0933 -1.72179,-0.44784 -0.6521,-0.5412 -4.5185,-1.19112 -8.59201,-1.44429 -4.0735,-0.25316 -13.25607,-1.11906 -20.40571,-1.92422 -7.14964,-0.80516 -13.22464,-1.44803 -13.5,-1.42862 -1.83235,0.12923 -3.23635,-0.29918 -2.70894,-0.82658 0.34378,-0.34378 3.23128,-0.78529 6.41666,-0.98115 3.18539,-0.19585 9.05052,-0.57182 13.03362,-0.83548 10.15438,-0.67218 13.9851,-3.02845 9.13954,-5.62172 -1.16515,-0.62357 -4.66081,-3.06724 -7.76813,-5.43038 -8.19358,-6.23126 -13.50192,-8.73825 -18.38515,-8.68282 -2.32554,0.0264 -6.02826,-0.0141 -8.22826,-0.09 -7.751654,-0.26735 -30.105551,0.13852 -39,0.7081 -5.103507,0.32682 -9.636877,0.16306 -10.47104,-0.37823 -2.211259,-1.43491 -1.192226,-1.80562 6.47104,-2.35407 3.85,-0.27555 12.625,-1.04219 19.5,-1.70365 6.875,-0.66147 14.650968,-0.99809 17.279928,-0.74805 2.628961,0.25004 5.018019,0.0694 5.309017,-0.40147 C 95.879944,591.38524 95.216443,591 94.114498,591 c -1.185507,0 -3.761433,-2.09627 -6.309017,-5.13424 -2.368015,-2.82384 -5.103961,-5.86134 -6.079881,-6.75 C 76.402317,574.26841 75,572.52026 75,570.73153 c 0,-1.4953 -0.312454,-1.71711 -1.283538,-0.91118 -0.813677,0.67529 -1.820364,0.72572 -2.75,0.13776 -0.806554,-0.51012 -2.703962,-0.93438 -4.216462,-0.9428 -1.5125,-0.008 -2.75,-0.41285 -2.75,-0.89873 0,-1.172 5.225787,-2.14065 6.5,-1.20484 0.55,0.40393 2.005099,0.78551 3.233552,0.84795 1.792253,0.0911 2.19296,-0.37694 2.028099,-2.36891 -0.112999,-1.36534 -1.030198,-3.22882 -2.03822,-4.14107 -1.770728,-1.60249 -1.758476,-1.71467 0.361955,-3.31412 l 2.194724,-1.65548 -2.232509,-2.23251 c -1.563259,-1.56326 -2.879287,-2.03571 -4.390055,-1.57603 -4.172906,1.26968 -5.15452,1.04292 -5.482505,-1.26653 -0.298283,-2.10031 0.01743,-2.2747 3.722282,-2.0561 4.507254,0.26595 5.337099,-0.21464 5.818595,-3.36969 0.182075,-1.19306 1.445478,-4.16315 2.807563,-6.60018 C 77.885567,536.74203 79,534.15229 79,533.42409 79,532.29387 87.688866,513.71599 89.787154,510.35981 96.343492,499.87305 113.7734,479.77553 136,457.0742 c 4.125,-4.2131 11.1,-11.60773 15.5,-16.43251 7.54692,-8.2755 18.60288,-18.04246 32.76291,-28.94312 3.4304,-2.64079 7.91289,-6.18178 9.96108,-7.86888 2.04819,-1.6871 7.22319,-5.09515 11.5,-7.57346 4.27681,-2.4783 8.67601,-5.29984 9.77601,-6.27008 1.1,-0.97023 3.8,-2.65014 6,-3.73313 5.86608,-2.88768 8.67075,-4.49687 12.01407,-6.8931 1.64226,-1.17704 3.21093,-2.15791 3.48593,-2.1797 0.275,-0.0218 1.76679,-0.52126 3.3151,-1.10992 1.5483,-0.58867 3.04223,-1.0703 3.31982,-1.0703 0.2776,0 2.46689,-1.35 4.86508,-3 2.39819,-1.65 4.6598,-3 5.0258,-3 0.366,0 1.85993,-0.83754 3.31983,-1.86119 1.4599,-1.02366 4.45437,-2.43055 6.65437,-3.12643 2.2,-0.69588 4.675,-1.80884 5.5,-2.47324 C 272.13958,359.01071 283.0236,354 285.37613,354 c 1.35193,0 4.52203,-0.88472 7.04466,-1.96605 2.52263,-1.08132 6.94744,-2.26662 9.83291,-2.634 2.88546,-0.36737 5.9737,-1.04132 6.86274,-1.49766 1.92218,-0.98664 14.32394,-3.45078 41.88356,-8.32196 16.39072,-2.89707 23.6292,-3.59159 39,-3.74196 16.40461,-0.16048 41.48427,1.41411 51.5,3.23336 14.43556,2.62206 23.40924,4.01015 29,4.48583 9.23183,0.78547 16.79409,2.58639 19,4.52478 1.21544,1.06803 2.9807,1.57526 4.5,1.29303 1.375,-0.25542 6.1,-0.0548 10.5,0.44589 4.54637,0.51731 8.47833,0.53454 9.10802,0.0399 0.97688,-0.76737 26.11692,-4.37174 45.89198,-6.57961 12.93398,-1.44407 56.13823,-0.47748 72.5,1.62201 4.675,0.59988 14.8,1.55093 22.5,2.11344 7.7,0.5625 17.15,1.2602 21,1.55044 3.85,0.29023 8.575,0.93045 10.5,1.42271 1.925,0.49226 5.975,1.12518 9,1.4065 3.025,0.28132 9.325,0.9553 14,1.49773 4.675,0.54244 10.75,1.22663 13.5,1.52042 5.14014,0.54914 10.10097,1.37987 24,4.01902 4.4,0.83548 14.40875,2.65679 22.24166,4.04737 7.83291,1.39058 15.93291,3.17072 18,3.95585 7.92535,3.01028 29.25834,5.78931 29.25834,3.81146 0,-3.51776 -4.82162,-10.7614 -8.54572,-12.83847 -1.07485,-0.59949 -4.11578,-2.29147 -6.75761,-3.75996 -6.20075,-3.44677 -21.27244,-8.99002 -27.52683,-10.12416 -1.29659,-0.23512 -4.45273,-1.09128 -7.01364,-1.90259 -2.56091,-0.8113 -10.0562,-2.43904 -16.6562,-3.6172 -10.23465,-1.82698 -22.68282,-4.40311 -32.5,-6.72584 -1.375,-0.32532 -3.4,-0.74948 -4.5,-0.94257 -7.87626,-1.38259 -13.64066,-2.85578 -18.90453,-4.83135 -3.35251,-1.25822 -7.69954,-2.50118 -9.66006,-2.76212 -1.96053,-0.26094 -5.11053,-1.15362 -7,-1.98372 -1.88948,-0.8301 -5.40119,-2.04983 -7.80382,-2.71051 C 664.14328,316.6783 642.01952,303.78626 640.7447,301.50829 640.28046,300.67873 638.77411,300 637.39726,300 c -1.37685,0 -4.15895,-1.125 -6.18245,-2.5 -2.02349,-1.375 -4.02971,-2.5 -4.45825,-2.5 -0.42855,0 -3.36159,-1.74532 -6.51787,-3.8785 -3.15628,-2.13317 -7.10538,-4.57018 -8.77577,-5.41557 -3.2252,-1.63229 -14.32229,-11.49788 -23.45267,-20.85001 -3.49474,-3.57963 -6.2418,-7.55715 -7.51025,-10.87426 -1.1,-2.8766 -3.575,-6.87373 -5.5,-8.88251 -3.56165,-3.71668 -4.81492,-5.86539 -7.05699,-12.09915 -0.69236,-1.925 -2.08389,-5.37928 -3.09228,-7.67618 -1.0084,-2.29689 -2.02275,-7.24689 -2.25411,-11 -0.23136,-3.7531 -0.66151,-8.62382 -0.95589,-10.82382 -0.29437,-2.2 -0.83327,-7.6 -1.19755,-12 -0.36427,-4.4 -1.1182,-8.56261 -1.6754,-9.25025 -0.62047,-0.76573 -0.74631,-3.86605 -0.3247,-8 0.37861,-3.71236 0.83262,-8.14344 1.00892,-9.84684 0.74187,-7.16811 1.82675,-12.03946 3.1441,-14.11773 0.77214,-1.21815 1.4039,-2.82601 1.4039,-3.57304 0,-1.94278 8.67525,-15.23752 13.11515,-20.09884 C 589.07342,113.51999 595.44151,107 596.2715,107 c 0.51689,0 2.31919,-1.16069 4.00513,-2.57931 1.68593,-1.41862 6.69022,-4.36932 11.12063,-6.557108 4.43041,-2.187787 8.29097,-4.311891 8.57902,-4.720232 0.58953,-0.835723 10.20198,-4.62809 17.02372,-6.716309 11.15273,-3.413988 35.37019,-8.638221 44,-9.491757 4.125,-0.407985 9.42219,-1.176676 11.77154,-1.708201 2.34934,-0.531526 4.46777,-0.648886 4.70762,-0.260801 0.23985,0.388085 8.21766,0.534879 17.72847,0.326208 9.5108,-0.20867 18.86737,-0.323856 20.79237,-0.255968 12.14089,0.428166 33.73899,-0.111421 39.13293,-0.977661 3.50189,-0.562386 8.96115,-2.380697 12.13169,-4.04069 C 790.43516,68.358177 793.71996,67 794.56418,67 c 0.84422,0 3.15668,-1.575 5.13879,-3.5 1.98211,-1.925 4.37157,-3.5 5.30992,-3.5 1.71058,0 17.38242,-13.824821 24.03394,-21.201394 3.2412,-3.594513 3.92386,-3.906104 7.92228,-3.616031 2.4065,0.174584 4.56164,0.883575 4.78921,1.575537 0.22756,0.691961 -2.54996,4.327989 -6.17228,8.080061 C 831.96372,48.590245 829,52.131495 829,52.707617 c 0,0.576121 -0.73648,1.65872 -1.63663,2.405775 -2.09019,1.734701 -4.66376,7.703175 -9.00621,20.886608 -1.9022,5.775 -3.99824,11.620273 -4.65786,12.989496 C 810.85007,94.903887 803.80704,105.66077 801.57961,107.5 799.04708,109.59116 790,123.63009 790,125.46882 c 0,0.58344 -0.8625,2.67004 -1.91667,4.63688 -1.05416,1.96685 -1.97585,5.56019 -2.04819,7.98519 -0.0723,2.42501 -0.19218,7.10911 -0.26631,10.40911 -0.31482,14.01333 5.48115,26.66589 14.10346,30.78775 3.27528,1.56573 4.72504,2.89985 4.96074,4.56507 0.31159,2.20143 0.0864,2.31483 -3.5,1.76238 -7.76186,-1.19564 -10.85665,-1.8846 -11.83303,-2.63426 -1.30606,-1.00278 -11.28312,-6.39203 -19.5324,-10.5507 -4.3352,-2.18549 -8.50912,-5.41841 -12.40931,-9.61169 -3.23231,-3.4752 -7.60523,-8.17262 -9.7176,-10.43871 C 745.72831,150.11376 744,147.7185 744,147.05705 c 0,-1.9551 -20.674,-21.89481 -24.23236,-23.37168 -17.68207,-7.33882 -60.59468,-6.31673 -70.54856,1.68032 -1.49549,1.2015 -4.0351,2.84824 -5.64357,3.65942 C 640.21838,130.71818 630,140.61342 630,142.17131 c 0,0.57249 -1.27955,2.68064 -2.84345,4.68479 -1.63101,2.09015 -3.54979,6.50311 -4.5,10.34942 -3.97078,16.07323 -0.61606,26.89781 11.64097,37.56147 C 639.71527,199.48046 649.4403,205 652.32734,205 c 0.69996,0 1.70016,0.38089 2.22266,0.84642 0.92278,0.82217 7.47723,2.34058 23.95,5.54826 27.68285,5.39059 58.74168,7.02774 73.5,3.87427 10.04314,-2.14596 55.7494,-2.24147 59.51368,-0.12437 0.54247,0.3051 3.30817,0.64278 6.14598,0.75039 14.76858,0.56003 47.98637,7.43255 55.91885,11.5692 1.60682,0.83793 3.73732,1.52628 4.73444,1.52967 1.81129,0.006 7.43619,2.44414 19.68705,8.53288 3.575,1.7768 8.219,3.78045 10.32001,4.45257 2.10101,0.67211 4.04227,1.80123 4.31393,2.50915 0.27165,0.70792 1.80081,1.54851 3.39812,1.86797 1.59731,0.31946 5.28104,2.0726 8.18607,3.89586 7.18926,4.51214 8.69518,5.4089 12.99883,7.74073 4.57627,2.47953 20.90438,13.84902 22.27938,15.51344 0.55201,0.6682 4.84655,4.108 9.54343,7.644 12.98367,9.77465 22.79489,19.10315 27.71305,26.34956 2.71696,4.00316 4.99738,6.83004 8.74718,10.84317 3.3359,3.57015 6.407,8.49322 12.2131,19.57782 3.0476,5.81845 5.889,11.02901 6.3141,11.57901 2.7924,3.6128 9.7692,25.85315 13.4891,43 0.7159,3.3 2.2539,9.6 3.4177,14 3.4188,12.92521 4.1199,17.27614 5.0077,31.07916 1.691,26.28988 -4.2382,57.2179 -15.5133,80.92084 -6.5394,13.74732 -19.2696,32.26095 -27.1451,39.47745 -4.2135,3.86091 -5.97463,6.09528 -5.18766,6.58166 1.32761,0.82051 33.27796,2.30622 44.81136,2.08376 l 7.4071,-0.14287 0.3134,4.692 c 0.3956,5.92303 -0.7219,6.3523 -14.3563,5.51495 -2.8232,-0.17339 -4.4011,0.18924 -4.7471,1.09097 -0.4291,1.11805 -0.7644,1.10463 -1.947,-0.0779 -1.8107,-1.81079 -13.9486,-3.12673 -16.4571,-1.78422 -1.0214,0.54661 -2.0655,0.78534 -2.3204,0.5305 -0.9467,-0.9467 -23.36736,-1.1843 -25.12716,-0.26628 -1.00516,0.52436 -1.59607,1.55662 -1.31314,2.29392 0.28293,0.73731 -0.13217,1.58867 -0.92244,1.89193 -3.70557,1.42196 -0.35199,2.35825 12.31314,3.43773 7.5625,0.64458 14.65,1.36353 15.75,1.59767 1.1,0.23414 3.0391,0.46015 4.309,0.50223 1.27,0.0421 2.1005,0.41401 1.8456,0.82651 -0.255,0.4125 -3.094,0.65618 -6.3091,0.54151 -3.215,-0.11467 -10.5705,-0.38831 -16.3455,-0.60809 -5.775,-0.21978 -13.13931,-0.0899 -16.36513,0.28853 -6.45416,0.75724 -7.76969,1.97884 -8.63487,8.01837 -0.5959,4.15974 -3.9789,5.69778 -4.0318,1.833 -0.0312,-2.27917 -0.0603,-2.28568 -1.52891,-0.34266 -3.25392,4.30493 -2.34029,4.49098 24.56071,5.00174 26.7385,0.50766 41.6555,1.18668 42.8947,1.95255 0.4054,0.25051 4.6449,0.56318 9.4212,0.69482 7.6924,0.21201 8.6841,0.45033 8.6841,2.08701 0,2.93405 -3.4001,3.45727 -14.1299,2.17439 -5.5061,-0.65833 -17.7419,-1.18827 -27.1906,-1.17767 -13.91144,0.0156 -17.75019,-0.28703 -20.1795,-1.59095 -3.51262,-1.88538 -10.4002,-2.05654 -19.5,-0.4846 -3.575,0.61756 -7.625,1.05098 -9,0.96316 -2.62472,-0.16764 -15,5.67565 -15,7.08262 0,0.44895 -0.70156,0.81627 -1.55902,0.81627 -0.85746,0 -1.30174,0.41627 -0.9873,0.92505 0.31444,0.50877 -1.07374,2.47743 -3.08485,4.37479 -2.58241,2.43636 -5.30341,3.81232 -9.26269,4.68397 -8.5589,1.88427 -8.4882,1.8509 -7.20272,3.39981 0.9009,1.08553 0.4878,1.48814 -2.0471,1.99512 -1.74667,0.34933 -2.97573,0.83518 -2.73125,1.07966 0.24448,0.24449 11.67886,1.14559 25.40972,2.00245 13.73087,0.85686 26.31521,1.76029 27.96521,2.00763 1.65,0.24734 8.85,0.7451 16,1.10614 7.15,0.36103 13.1576,0.7995 13.3501,0.97437 0.1926,0.17487 0.014,0.8614 -0.3962,1.52561 -0.56482,0.91388 -4.17736,1.01159 -14.85014,0.40166 -7.75707,-0.4433 -17.47876,-0.89109 -21.60376,-0.9951 -32.14304,-0.81043 -55.13205,-1.64329 -58.53428,-2.12062 -3.59894,-0.50493 -13.59074,2.17874 -27.46572,7.37695 -0.825,0.30908 -2.625,0.70087 -4,0.87065 -6.40327,0.79064 -9.74329,1.86916 -12.66004,4.08804 -2.05204,1.56107 -3.39423,2.02502 -3.82798,1.32321 -0.4104,-0.66404 -2.0838,-0.82498 -4.33996,-0.41741 -4.47652,0.80867 -4.3683,0.72296 -3.5629,2.82178 0.47645,1.24161 1.64707,1.65017 4.27354,1.49154 3.6417,-0.21996 17.04506,0.82384 22.61734,1.76134 2.96183,0.49831 5.32358,0.67057 23,1.67756 20.57917,1.17235 42.50247,1.86921 63.02421,2.00331 16.94773,0.11074 21.90323,0.43328 22.24261,1.4477 0.35124,1.0499 -4.03336,1.28857 -22.41508,1.2201 -12.56846,-0.0468 -28.02674,-0.009 -34.35174,0.0845 -12.49471,0.18428 -61.13407,-1.13647 -62.08493,-1.68586 -0.32172,-0.18588 -5.04672,-0.40788 -10.5,-0.49333 -5.45329,-0.0854 -10.36022,-0.42289 -10.90429,-0.74987 -0.54408,-0.32697 -4.36908,-0.63093 -8.5,-0.67548 -4.13093,-0.0445 -8.46602,-0.61164 -9.63354,-1.26022 -2.2156,-1.23081 -3.24923,-1.16443 -9.94547,0.63868 -5.88604,1.58494 -16.82271,3.31612 -31.43177,4.97536 -4.675,0.53097 -9.175,1.20066 -10,1.4882 -0.825,0.28754 -8.025,0.81474 -16,1.17157 -22.14886,0.99101 -23.57714,1.10175 -24.92097,1.93229 -0.6883,0.42539 -4.02516,0.92635 -7.41524,1.11325 -3.39009,0.18689 -8.18879,0.61184 -10.66379,0.94433 -9.47674,1.27309 -11.8189,1.48017 -22.5,1.98934 -6.05,0.2884 -14.825,0.7582 -19.5,1.04399 -11.80746,0.72182 -82.48104,1.64346 -83.04213,1.08294 z m 111.94508,-12.74102 c 2.03519,-0.70947 5.73407,-0.89001 9.76771,-0.47675 4.09677,0.41973 6.27153,0.30824 5.89429,-0.30215 -0.34925,-0.5651 1.17612,-0.96903 3.66862,-0.97147 7.73695,-0.008 48.09662,-1.27648 50.70772,-1.59422 1.40729,-0.17125 3.21121,-0.36267 4.00871,-0.42538 0.91029,-0.0716 1.0964,-0.46174 0.5,-1.04822 -0.5225,-0.51381 -8.825,-1.42878 -18.45,-2.03327 -9.625,-0.60449 -19.3,-1.2825 -21.5,-1.50668 -2.2,-0.22419 -8.725,-0.6786 -14.5,-1.00981 -14.52186,-0.83287 -54.01399,-4.31126 -62.5,-5.50488 -3.85,-0.54154 -9.475,-1.18582 -12.5,-1.43174 -9.86758,-0.8022 -15.38369,-1.76567 -22.5,-3.92995 -5.73817,-1.74515 -6.47878,-2.19026 -4.10851,-2.46926 1.59032,-0.1872 3.17063,0.11128 3.51179,0.66329 0.57672,0.93315 12.69237,2.86715 23.09672,3.6869 2.475,0.195 7.65,0.61506 11.5,0.93347 10.5119,0.86937 22.6562,1.401 47,2.05749 20.12139,0.54262 27.47729,0.97302 33,1.93087 1.1,0.19078 4.7,0.82375 8,1.4066 3.3,0.58285 14.31894,1.32104 24.48653,1.64042 13.87721,0.4359 19.05089,0.95047 20.75,2.06377 1.9286,1.26367 2.26347,1.27265 2.26347,0.0607 0,-1.37388 3.83075,-2.2498 13,-2.97252 1.925,-0.15173 4.75735,-0.80673 6.2941,-1.45557 3.69177,-1.5587 5.91421,-1.98208 13.87684,-2.64357 3.66902,-0.3048 7.26902,-0.75696 8,-1.0048 1.34657,-0.45655 4.28841,-0.91719 13.32906,-2.08709 8.50042,-1.1 16.6166,-3.25575 18.42744,-4.89454 0.95152,-0.86111 2.70711,-1.56566 3.9013,-1.56566 3.34472,0 2.57006,-1.7043 -1.07874,-2.37329 -1.7875,-0.32774 -8.425,-0.58583 -14.75,-0.57355 -7.11746,0.0138 -13.28026,-0.51739 -16.17149,-1.39392 -3.15656,-0.95697 -5.00025,-1.0875 -5.68524,-0.40251 -1.47711,1.47711 -49.46601,2.01845 -62.14327,0.70102 -5.775,-0.60015 -13.65,-1.03571 -17.5,-0.96792 -3.85,0.0678 -15.55,-0.34804 -26,-0.92407 -10.45,-0.57603 -25.525,-1.28084 -33.5,-1.56625 -7.975,-0.28542 -20.35,-0.78338 -27.5,-1.10658 -7.15,-0.32321 -16.825,-0.72364 -21.5,-0.88985 -4.675,-0.16622 -10.75,-0.38739 -13.5,-0.4915 -2.75,-0.10412 -5.45,-0.078 -6,0.058 -1.35832,0.33591 -12.60321,0.88894 -26.5,1.30329 -7.63895,0.22777 -12.33936,-0.0647 -14,-0.87105 -1.71993,-0.83515 -3.43608,-0.92303 -5.5,-0.28164 -3.23139,1.0042 -23.13723,1.27636 -30.5,0.41701 -2.475,-0.28887 -10.125,-0.82348 -17,-1.18802 -6.875,-0.36455 -14.3,-0.95384 -16.5,-1.30955 -2.2,-0.3557 -6.24661,-0.42013 -8.99246,-0.14318 -4.17374,0.42098 -5.20037,0.93938 -6.26027,3.16113 -1.03227,2.16384 -2.18389,2.78357 -6.19871,3.33575 -3.52596,0.48494 -5.34884,1.31603 -6.39773,2.91683 -1.122,1.71239 -3.5454,2.69086 -10.30883,4.1623 -4.8631,1.058 -9.87017,1.79253 -11.12681,1.63229 -1.25665,-0.16024 -3.50665,0.57559 -5,1.63519 -1.49336,1.0596 -3.61438,2.0976 -4.71339,2.30666 -1.18528,0.22547 -1.99894,1.17503 -2,2.33405 -9.9e-4,1.07466 -1.05411,2.48 -2.34026,3.12296 -2.96373,1.48161 -1.403,2.51746 3.56112,2.36348 5.28839,-0.16404 15.36138,0.81918 20.7389,2.02431 8.47894,1.90017 18.0242,3.13175 23.37008,3.01533 2.9324,-0.0639 5.8574,0.30963 6.5,0.82997 0.6426,0.52034 6.79336,1.24497 13.66836,1.61028 6.875,0.36532 17.80097,1.08589 24.27993,1.60128 6.47896,0.51539 28.07896,0.9421 48,0.94826 19.92104,0.006 40.27007,0.40111 45.22007,0.87768 12.38804,1.19269 60.25218,0.45676 64.40295,-0.9902 z M 367,644.97783 c 3.025,-0.47045 9.72782,-0.89673 14.89516,-0.94729 5.16734,-0.0506 9.74867,-0.31042 10.18074,-0.57745 0.43207,-0.26703 3.60053,-0.70439 7.04103,-0.9719 5.7767,-0.44916 9.79055,-1.37303 15.68012,-3.60908 1.26338,-0.47966 4.49932,-0.87211 7.19099,-0.87211 2.69166,0 5.17929,-0.46173 5.52807,-1.02607 0.34878,-0.56434 1.61284,-0.91986 2.80902,-0.79005 2.81976,0.306 14.65573,-0.93846 21.67487,-2.27895 8.15662,-1.55772 25,-7.60755 25,-8.97954 0,-1.35962 -7.76029,-1.68934 -41.25792,-1.753 -18.56686,-0.0353 -34.10638,-0.2795 -34.53226,-0.54272 -1.02505,-0.63351 -10.32205,-0.80973 -35.51692,-0.67321 -11.4439,0.062 -22.2439,-0.12318 -24,-0.41153 -1.75609,-0.28835 -13.5429,-0.76381 -26.1929,-1.05659 -23.63009,-0.54691 -28.39179,-0.79661 -44.16085,-2.31578 -5.03846,-0.4854 -11.24199,-0.56671 -13.78562,-0.18068 -2.54362,0.38602 -4.8603,0.32077 -5.14817,-0.14501 C 252.11749,617.38109 250.59533,617 249.02277,617 c -5.63588,0 -6.39682,-1.00613 -2.80518,-3.70907 3.22889,-2.42994 3.51069,-2.46054 17.28241,-1.87671 17.70597,0.75063 25.66383,1.57957 27.25,2.83853 0.77356,0.61398 1.72644,0.63977 2.5,0.0676 1.95597,-1.44664 7.69604,-1.61006 9.31644,-0.26525 0.98392,0.81658 3.24107,1.00779 6.86665,0.58167 3.87848,-0.45584 5.5438,-0.2827 5.90779,0.61421 0.39852,0.98202 0.69272,0.9872 1.3764,0.0242 0.47825,-0.67361 1.75,-1.36163 2.82613,-1.52893 1.07612,-0.1673 2.52312,-0.65771 3.21554,-1.0898 0.69242,-0.43209 2.26057,-0.46771 3.48478,-0.0792 1.2242,0.38854 4.70767,0.82296 7.74105,0.96536 5.94985,0.27933 12.76916,2.26863 8.2062,2.39389 -3.38344,0.0929 -1.5995,2.06339 1.86804,2.06339 1.96876,0 2.94098,-0.50405 2.94098,-1.52475 0,-2.44604 4.83766,-3.65182 11.70196,-2.91672 3.45053,0.36952 6.02761,1.07002 5.72685,1.55666 -0.30077,0.48665 -1.45779,0.88481 -2.57116,0.88481 -1.17779,0 -1.84789,0.52272 -1.60243,1.25 0.29382,0.87055 3.03563,1.25 9.03218,1.25 5.43727,0 8.26063,-0.35009 7.66145,-0.95 -2.27978,-2.28255 -0.64096,-2.81745 6.72451,-2.19484 4.22035,0.35675 8.38285,1.23711 9.25,1.95635 2.24208,1.85963 15.08787,2.28548 16.17668,0.53627 0.67465,-1.08385 1.22748,-1.10701 2.82309,-0.11826 1.32282,0.81971 2.19593,0.88686 2.61954,0.20144 0.42042,-0.68026 1.03824,-0.69373 1.82617,-0.0398 1.37455,1.14077 12.29214,1.7812 13.29354,0.7798 C 430.0314,618.30193 429.55678,618 428.60765,618 c -0.94913,0 -1.47368,-0.40775 -1.16567,-0.90612 0.81198,-1.31382 4.50444,-0.11782 3.96625,1.28468 -0.26447,0.68919 0.59771,1.26848 2.06919,1.39026 1.38742,0.11483 2.52258,-0.23618 2.52258,-0.78002 0,-0.54384 0.675,-0.9888 1.5,-0.9888 0.825,0 1.5,0.45 1.5,1 0,0.55 2.27656,1 5.05902,1 3.11803,0 4.82189,-0.38367 4.44098,-1 -0.85025,-1.37574 3.73378,-1.26511 7.1849,0.1734 3.18579,1.3279 15.03638,2.10957 17.3151,1.1421 2.42067,-1.02774 7,-1.15758 7,-0.19848 0,1.47656 5.67043,0.98502 6.99086,-0.60601 0.67967,-0.81894 1.65613,-1.22918 2.16991,-0.91165 2.98199,1.84297 20.41577,-5.52354 22.44027,-9.48196 1.62865,-3.18442 2.2035,-3.5245 3.76585,-2.22788 1.1294,0.93733 2.02754,0.5622 4.44724,-1.85749 1.66761,-1.66762 3.51664,-3.03203 4.10895,-3.03203 0.5923,0 1.07692,-0.41425 1.07692,-0.92054 0,-1.43921 -5.46523,-2.28208 -10.2008,-1.57321 -2.36456,0.35395 -9.9242,0.84551 -16.7992,1.09235 -6.875,0.24684 -14.975,0.61014 -18,0.80734 -8.264,0.53873 -19.9171,0.63245 -35.5,0.28551 -22.55295,-0.50213 -22.51147,-0.49797 -21.86163,-2.19145 0.33079,-0.86202 -0.002,-1.54309 -0.78138,-1.60132 -4.0092,-0.29934 -8.47108,0.45758 -10.48816,1.77922 -1.25448,0.82197 -2.78123,1.18526 -3.39277,0.80731 -0.61154,-0.37796 -7.71882,-0.85836 -15.79397,-1.06758 -14.18693,-0.36755 -20.21944,-0.70522 -36.18209,-2.02525 -10.49774,-0.86811 -62.05392,-1.0264 -76.5,-0.23488 -13.6043,0.7454 -32.69289,1.08142 -52.5,0.92418 -24.77843,-0.19671 -55.9979,0.41033 -55.99896,1.08886 -5.7e-4,0.3688 1.34896,0.96706 2.99896,1.32946 4.15144,0.91181 3.94624,3.5 -0.27749,3.5 -3.73253,0 -8.37549,2.74702 -6.98803,4.13448 1.37741,1.37741 14.32824,4.86552 18.06493,4.86552 5.73578,0 17.28949,3.06809 17.94029,4.76406 0.33194,0.86502 -0.14869,2.88345 -1.06808,4.4854 -0.91939,1.60194 -1.67162,3.46112 -1.67162,4.1315 0,0.68054 2.76044,1.83154 6.25,2.60601 8.16333,1.81176 8.40554,1.8531 14.20885,2.42504 2.72737,0.26879 7.00237,0.92701 9.5,1.4627 2.49763,0.5357 7.46615,1.5254 11.04115,2.19933 3.575,0.67394 6.95,1.54581 7.5,1.9375 0.55,0.39169 3.25,1.0288 6,1.41579 2.75,0.387 5.9,0.87679 7,1.08841 5.93861,1.1425 18.40308,2.57985 24.28297,2.80021 3.69437,0.13845 7.29957,0.61294 8.01157,1.05443 1.83015,1.13483 5.77128,1.40789 31.20546,2.16213 12.375,0.36697 22.6919,0.85168 22.92644,1.07713 0.51175,0.49191 11.41702,-0.44107 19.07356,-1.63181 z m 534.32034,-16.32138 c 2.91106,-0.16148 5.28335,-2.87064 4.13737,-4.72488 -0.36083,-0.58383 -3.39095,-0.97886 -6.80412,-0.88703 -12.99199,0.34951 -49.35466,-1.56274 -54.18438,-2.84947 -1.63307,-0.43508 -4.31921,-0.63946 -5.96921,-0.45417 -3.93574,0.44198 -7.31538,0.55283 -11,0.36081 -7.28489,-0.37963 -9.9075,-0.39975 -25.5,-0.19557 -9.075,0.11884 -19.65,0.24893 -23.5,0.28909 -3.85,0.0402 -14.2,-0.26841 -23,-0.68571 -8.8,-0.41731 -21.85,-0.88327 -29,-1.03548 -7.15,-0.15221 -13,-0.32609 -13,-0.38641 0,-0.14716 -14.70811,-0.73677 -39,-1.56338 -11,-0.37431 -20.675,-0.9394 -21.5,-1.25576 -0.825,-0.31635 -2.13626,-0.61868 -2.91391,-0.67184 -0.77765,-0.0532 -1.57414,-0.57361 -1.76997,-1.15655 -0.61962,-1.84449 61.49291,-0.70471 78.66797,1.44358 4.36263,0.54568 8.17306,0.5674 9.13596,0.0521 1.81128,-0.96937 20.00671,-2.2824 26.37995,-1.90364 2.2,0.13074 4.675,0.20251 5.5,0.15949 10.53461,-0.54937 78.95785,1.43262 85.5,2.47665 2.2,0.35108 6.475,0.74366 9.5,0.87239 3.025,0.12873 12.025,0.72335 20,1.32138 30.97943,2.32308 29.88107,2.39607 40.29321,-2.67745 5.06373,-2.4674 9.43179,-4.69251 9.70679,-4.94469 0.91066,-0.83509 -4.09712,-3.57682 -7.14191,-3.91015 -1.64635,-0.18024 -3.92015,0.1683 -5.0529,0.77453 -1.54692,0.82788 -2.2494,0.79502 -2.82236,-0.13204 -1.81257,-2.9328 -99.36944,-3.2367 -120.48283,-0.37531 -2.2,0.29815 -8.725,0.71167 -14.5,0.91892 -5.775,0.20725 -13.425,0.67616 -17,1.04202 -4.276,0.4376 -8.03969,0.21796 -11,-0.64195 -6.44144,-1.87111 -6.94362,-1.92185 -23.5,-2.37439 -12.2878,-0.33586 -22,-0.98036 -22,-1.45991 0,-0.0496 -4.5,-0.28682 -10,-0.52706 -18.68116,-0.81598 -33.97668,-1.55157 -42.5,-2.04389 -4.675,-0.27004 -17.5,-0.72973 -28.5,-1.02154 -11,-0.29181 -23.825,-0.73661 -28.5,-0.98846 -4.675,-0.25185 -16.825,-0.70738 -27,-1.01231 -10.175,-0.30492 -20.16034,-0.76551 -22.18964,-1.02354 -2.02931,-0.25802 -3.96837,-0.0182 -4.30902,0.53303 -0.34066,0.5512 -1.68567,1.00217 -2.98893,1.00217 -1.30325,0 -3.04455,0.675 -3.86955,1.5 -0.825,0.825 -1.9922,1.5 -2.59377,1.5 -0.60158,0 -2.99622,1.71237 -5.32143,3.80528 -2.32521,2.0929 -6.61336,5.3047 -9.52921,7.13732 -4.04418,2.54179 -5.23004,3.83312 -5,5.44473 0.22345,1.56554 1.07848,2.15697 3.30155,2.28372 8.10838,0.46231 78.51858,0.35261 82,-0.12776 5.9699,-0.82372 71.08092,-1.42033 72.30705,-0.66254 0.58203,0.35971 3.67604,0.4212 6.87559,0.13664 3.38965,-0.30147 7.90397,0.038 10.81736,0.81357 2.75,0.73202 10.175,1.49154 16.5,1.68781 6.325,0.19627 17.35,0.67458 24.5,1.0629 7.15,0.38832 20.65,0.81342 30,0.94467 9.35,0.13124 24.425,0.50792 33.5,0.83706 9.075,0.32914 23.925,0.85489 33,1.16833 21.88278,0.7558 32.54532,1.4302 38,2.40349 3.6878,0.65803 18.69625,0.53246 33.32034,-0.27877 z M 635,614.52403 c 0,-1.78607 -2.07428,-2.47241 -4.18935,-1.38618 -0.92914,0.47718 -3.87627,0.77245 -6.54917,0.65615 -4.27444,-0.18599 -4.88266,-0.48745 -5.04945,-2.50273 -0.22189,-2.6811 0.54288,-2.85166 3.49982,-0.78055 1.18627,0.8309 2.38547,1.14083 2.66488,0.68874 0.93663,-1.51551 20.62327,0.37283 20.62327,1.97818 0,0.54601 -1.21982,0.72108 -2.75,0.3947 -1.5821,-0.33747 -3.9179,0.0283 -5.5,0.86124 -2.27158,1.19594 -2.75,1.21167 -2.75,0.0905 z m -27.44625,-1.09766 c -1.30235,-0.95948 -2.27834,-1.10178 -2.95,-0.43012 -1.3121,1.3121 -7.91178,1.29572 -9.23041,-0.0229 -1.06814,-1.06814 -2.84434,-1.15797 -12.87334,-0.65106 -6.80088,0.34375 -8.5,-0.009 -8.5,-1.76366 0,-0.93233 4.50755,-1.18612 18.75,-1.05571 23.47881,0.21498 22.25,0.0711 22.25,2.6055 0,1.73037 -0.43341,1.99963 -2.41724,1.50172 -1.32948,-0.33368 -2.56698,-0.18891 -2.75,0.3217 -0.18302,0.51062 -1.20857,0.28316 -2.27901,-0.50546 z m -61.617,-3.00259 c -1.08413,-1.30629 -1.06229,-1.73178 0.12755,-2.48468 0.78964,-0.49966 1.6607,-0.90847 1.9357,-0.90847 0.275,0 1.14606,0.40881 1.9357,0.90847 1.18984,0.7529 1.21168,1.17839 0.12755,2.48468 C 549.34377,611.2907 548.41531,612 548,612 c -0.41531,0 -1.34377,-0.7093 -2.06325,-1.57622 z m 12.67024,-0.006 C 557.69098,608.03114 557.73024,608 561.65499,608 c 3.59164,0 3.62362,0.0347 1.84501,2 -2.17754,2.40615 -4.06816,2.56774 -4.89301,0.41821 z M 566.5,610 c -0.33992,-0.55 0.0835,-1 0.94098,-1 0.85746,0 1.55902,0.45 1.55902,1 0,0.55 -0.42344,1 -0.94098,1 -0.51754,0 -1.2191,-0.45 -1.55902,-1 z M 359,617.55902 c 0,-0.24254 -0.45,-0.7191 -1,-1.05902 -0.55,-0.33992 -1,-0.14148 -1,0.44098 0,0.58246 0.45,1.05902 1,1.05902 0.55,0 1,-0.19844 1,-0.44098 z m 585.26682,-17.39089 c -0.20276,-1.83585 0.15187,-2.03439 2.71726,-1.52131 1.62275,0.32455 4.94397,0.29114 7.3805,-0.0742 4.07087,-0.61047 4.4821,-0.94178 5.07202,-4.08631 0.35308,-1.88209 1.36036,-4.14037 2.2384,-5.01841 2.52778,-2.52779 0.43341,-3.47338 -8.74728,-3.94933 -4.63525,-0.24031 -15.17772,-0.78638 -23.42772,-1.21351 -18.10854,-0.93753 -59.11387,-0.98586 -62.25376,-0.0734 -1.23957,0.36023 -2.67097,0.91282 -3.1809,1.22797 -0.50993,0.31515 -1.14021,0.22816 -1.40062,-0.19331 -0.45945,-0.74362 -39.6531,-0.8643 -42.66472,-0.13136 -0.99835,0.24296 -1.60245,-0.51968 -1.80634,-2.28042 -0.2554,-2.2056 -1.03569,-2.82912 -4.69282,-3.75 C 808.19494,577.76849 805,577.68899 805,578.89301 c 0,1.09464 2.47688,2.10699 5.15511,2.10699 1.35663,0 1.88559,0.5579 1.65922,1.75 -0.24996,1.31632 -1.49879,1.82519 -5.03929,2.0534 -2.58883,0.16687 -5.59497,-0.17185 -6.68031,-0.7527 -1.19565,-0.6399 -2.20057,-0.68846 -2.54991,-0.12322 -0.31711,0.51309 -6.43113,0.9377 -13.58671,0.94358 -7.15559,0.006 -13.92004,0.29947 -15.03212,0.65243 -1.11208,0.35296 -2.67462,0.10009 -3.4723,-0.56192 -0.90127,-0.74799 -4.4796,-1.14862 -9.45201,-1.05826 -4.88932,0.0889 -8.00168,-0.25302 -8.00168,-0.87894 0,-0.5634 2.5875,-1.09481 5.75,-1.1809 3.1625,-0.0861 12.05,-0.33018 19.75,-0.54241 7.7,-0.21224 16.56647,-0.37352 19.70326,-0.3584 3.13679,0.0151 6.73679,-0.38728 8,-0.89421 2.10411,-0.84438 2.00319,-0.94204 -1.20326,-1.16443 -9.39698,-0.65176 -30.26789,-1.21605 -31.5,-0.85168 -0.55,0.16266 -2.23649,-0.0516 -3.74776,-0.47615 -1.51127,-0.42454 -3.53627,-0.43587 -4.5,-0.0252 -2.62432,1.11831 -5.27043,1.24859 -5.86368,0.28869 -0.28972,-0.46877 -0.89779,-0.623 -1.35127,-0.34274 -1.39286,0.86084 -13.29293,1.42663 -43.51351,2.06886 -15.93692,0.33868 -29.25655,0.78903 -29.59917,1.00078 -0.34262,0.21175 -8.67832,0.64292 -18.52378,0.95814 -9.84545,0.31523 -18.57583,0.76785 -19.40083,1.00583 -1.26299,0.36432 -54.48649,0.80239 -59,0.48561 -0.825,-0.0579 -4.92378,0.20441 -9.1084,0.58291 -5.26874,0.47656 -7.82384,0.33958 -8.30901,-0.44545 -1.10144,-1.78216 -9.79894,-1.37062 -12.61008,0.59668 -4.46294,3.12324 -11.3002,10.27534 -10.54476,11.03031 1.08284,1.08215 62.51576,0.46795 73.07225,-0.73057 12.04033,-1.36699 39.90728,-1.15879 54.5,0.40718 3.575,0.38364 11.225,0.8433 17,1.02146 5.775,0.17816 15.225,0.60126 21,0.94022 5.775,0.33896 16.125,0.85731 23,1.15188 11.13465,0.47709 115.42379,1.2261 182.54685,1.31106 24.06765,0.0305 25.12035,0.11293 26.927,2.10926 2.26017,2.49745 4.11412,2.10497 3.79297,-0.80298 z m -186.86588,-3.32841 c -0.28543,-0.46184 -0.15492,-0.87005 0.29004,-0.90712 5.74807,-0.47891 11.15182,-0.38078 10.55898,0.19175 -1.12099,1.08258 -10.25003,1.68455 -10.84902,0.71537 z m 17.34906,-1.502 c 0.6875,-0.27741 1.8125,-0.27741 2.5,0 0.6875,0.27741 0.125,0.50439 -1.25,0.50439 -1.375,0 -1.9375,-0.22698 -1.25,-0.50439 z m -115.21382,-7.27917 c -0.42736,-0.69149 1.18671,-1.07902 4.6548,-1.11757 2.91996,-0.0325 7.10902,-0.21562 9.30902,-0.40702 2.2,-0.1914 10.3,-0.67447 18,-1.0735 7.7,-0.39903 15.575,-0.82263 17.5,-0.94132 1.925,-0.1187 8.9,-0.53191 15.5,-0.91825 6.6,-0.38634 14.1375,-0.89949 16.75,-1.14035 5.34505,-0.49277 6.5096,0.99343 1.5,1.91429 -3.98938,0.73333 -21.18411,1.60852 -61.75,3.14299 -8.525,0.32248 -16.69466,0.81423 -18.1548,1.0928 -1.46014,0.27856 -2.9492,0.0301 -3.30902,-0.55207 z m -134.90829,7.99237 c 5.63656,-0.0977 7.48874,-0.52231 8.85262,-2.02938 0.9486,-1.0482 1.51227,-2.49435 1.2526,-3.21368 -0.25967,-0.71932 0.18823,-2.067 0.99534,-2.99485 0.80711,-0.92784 1.18609,-2.14227 0.84217,-2.69874 -0.81844,-1.32426 -12.43272,-0.4736 -14.26203,1.04458 -1.0546,0.87525 -1.67479,0.87495 -2.55097,-10e-4 -1.73032,-1.73032 -4.81619,-1.47383 -4.11925,0.34238 0.73728,1.92132 -1.52051,1.90372 -4.0795,-0.0318 -3.02758,-2.28995 -11.12392,-1.92727 -12.87788,0.57687 -1.18032,1.68513 -1.53409,1.78014 -2.01005,0.53979 -0.42498,-1.10747 -1.581,-1.37356 -4.37429,-1.00684 -8.1946,1.07582 -12.21745,1.13309 -17.40028,0.24772 -2.968,-0.50702 -8.76175,-0.93725 -12.87498,-0.95607 -4.11324,-0.0188 -7.82382,-0.24757 -8.24575,-0.50833 -0.42192,-0.26076 -6.05655,-0.66386 -12.52139,-0.89577 -6.46484,-0.23191 -15.35425,-0.72413 -19.75425,-1.09382 -4.4,-0.36969 -12.8375,-0.57392 -18.75,-0.45384 -6.36654,0.12929 -10.75,-0.17387 -10.75,-0.74347 0,-0.60195 -1.5431,-0.5701 -4.12449,0.0851 -3.50222,0.88896 -4.26408,0.79748 -5.04969,-0.60633 C 381.67137,579.59036 380,579.49972 380,581.5 c 0,1.2 -1.5,1.5 -7.5,1.5 -6.7297,0 -9.62406,-1.05982 -6.25,-2.28854 0.6875,-0.25037 -0.41256,-0.78327 -2.44457,-1.18423 -2.60585,-0.51419 -4.64023,-0.25726 -6.90364,0.87188 -4.00227,1.99659 -4.99882,2.01732 -4.2587,0.0886 0.46263,-1.20559 -0.30428,-1.51653 -3.78138,-1.53313 -6.08953,-0.0291 -9.92186,-0.42319 -13.01752,-1.33869 -1.88462,-0.55735 -3.42335,-0.28251 -5.29905,0.9465 -1.76974,1.15958 -2.54441,1.31411 -2.34419,0.4676 0.3663,-1.54864 -1.67058,-2.03365 -10.70095,-2.548 -3.85,-0.21929 -9.925,-0.63347 -13.5,-0.9204 -11.23532,-0.90173 -27.44765,-1.02458 -28.75,-0.21785 -0.6875,0.42587 -1.25,0.38904 -1.25,-0.0818 0,-0.47088 -6.8625,-0.95267 -15.25,-1.07063 -25.5476,-0.35932 -33.2016,-0.67369 -34.34385,-1.41059 -0.60161,-0.38813 -2.82701,-0.22714 -4.94532,0.35776 -3.36339,0.92867 -3.61747,1.1944 -2.00494,2.09682 1.61054,0.9013 1.30367,1.2169 -2.40085,2.46915 -2.33607,0.78967 -4.85333,1.20324 -5.59392,0.91905 -0.74059,-0.28419 -2.64628,-0.14394 -4.23487,0.31166 -2.15195,0.61717 -3.47241,0.38781 -5.17919,-0.89961 -1.96391,-1.48138 -2.05937,-1.8168 -0.66895,-2.35035 0.89204,-0.34231 1.62189,-1.0865 1.62189,-1.65377 0,-1.63963 -12.06667,-1.28102 -13.93997,0.41429 -1.24493,1.12665 -2.52457,1.23736 -5.79878,0.50169 -3.20333,-0.71974 -5.32229,-0.5634 -8.92028,0.65815 -4.35623,1.47898 -5.3223,1.47177 -12.56854,-0.0939 -4.3409,-0.9379 -8.61457,-1.35116 -9.56101,-0.92453 -3.07708,1.38708 -5.54835,1.18949 -8.93857,-0.71468 -2.88114,-1.61824 -3.41367,-1.66901 -3.91105,-0.37287 -0.31668,0.82525 -1.54013,1.51476 -2.71879,1.53225 -3.30313,0.049 -5.63401,2.28663 -4.98142,4.78211 C 130.64827,583.58698 141,588.32177 141,585 c 0,-0.55 0.45,-1 1,-1 0.55,0 0.92733,0.3375 0.83852,0.75 -0.0888,0.4125 0.33826,1.95649 0.94905,3.43109 0.90134,2.17607 1.92067,2.77492 5.41148,3.17927 6.63201,0.76819 8.62502,0.8281 18.30095,0.55017 8.15778,-0.23432 24.23585,-0.26556 58,-0.11267 12.02848,0.0545 19.89104,-0.21028 37.38349,-1.25874 6.08159,-0.36452 9.84318,-0.18093 10.68984,0.52174 1.25803,1.04407 9.18406,0.94499 25.68925,-0.32112 3.71943,-0.28532 9.56943,-0.0469 13,0.5299 3.43058,0.57676 12.53742,1.1702 20.23742,1.31876 7.7,0.14855 16.025,0.5302 18.5,0.8481 4.04897,0.52006 58.2357,1.41747 83.5,1.38287 18.16653,-0.0249 30,0.0566 30,0.20659 0,0.0813 4.64465,0.29089 10.32144,0.46572 5.6768,0.17483 10.477,0.47322 10.66713,0.6631 0.30525,0.30484 18.32278,0.25703 39.13932,-0.10386 z M 335.32262,582.30378 c -1.19756,-0.23312 -2.71516,-1.07183 -3.37244,-1.86381 C 330.9611,579.2482 331.21254,579 333.40894,579 c 1.45961,0 2.87875,0.58613 3.15365,1.30251 0.34426,0.89713 2.04626,1.19471 5.46862,0.95613 3.0063,-0.20957 4.96879,0.0659 4.96879,0.69749 0,1.0149 -7.15532,1.22793 -11.67738,0.34765 z M 348,582 c 0,-0.55 0.45,-1 1,-1 0.55,0 1,0.45 1,1 0,0.55 -0.45,1 -1,1 -0.55,0 -1,-0.45 -1,-1 z m -159.5,-4 c -0.37381,-0.60483 1.00929,-1 3.5,-1 2.49071,0 3.87381,0.39517 3.5,1 -0.33992,0.55 -1.91492,1 -3.5,1 -1.58508,0 -3.16008,-0.45 -3.5,-1 z m 35,-1 c -0.33992,-0.55 0.0835,-1 0.94098,-1 0.85746,0 1.55902,0.45 1.55902,1 0,0.55 -0.42344,1 -0.94098,1 -0.51754,0 -1.2191,-0.45 -1.55902,-1 z m 62.76903,0.30701 c 0.97297,-0.25354 2.32297,-0.23687 3,0.0371 0.67703,0.27393 -0.11903,0.48137 -1.76903,0.46099 -1.65,-0.0204 -2.20394,-0.2445 -1.23097,-0.49804 z m -53.23132,-0.61775 c 0.98075,-0.8528 6.96229,-1.59909 6.96229,-0.86865 0,0.42384 -1.67053,0.88312 -3.71229,1.02063 -2.04176,0.1375 -3.50426,0.0691 -3.25,-0.15198 z M 372.5,581 c 0.33992,-0.55 -0.11008,-1 -1,-1 -0.88992,0 -1.33992,0.45 -1,1 0.33992,0.55 0.78992,1 1,1 0.21008,0 0.66008,-0.45 1,-1 z m 599.65624,-1.91284 c 1.28771,-3.38428 -0.30085,-4.55936 -5.83795,-4.31837 -2.55651,0.11126 -5.24897,-0.2963 -5.98325,-0.90569 C 959.35651,573.05099 959,573.05485 959,573.87756 959,574.4949 958.325,575 957.5,575 c -0.825,0 -1.5,-0.405 -1.5,-0.9 0,-1.19755 -13.49952,-1.7286 -31.5,-1.23915 -3.3,0.0897 -8.475,-0.0321 -11.5,-0.27073 -3.025,-0.23863 -9.325,-0.68529 -14,-0.99257 -4.675,-0.30728 -13.20693,-1.07165 -18.95984,-1.6986 -7.23545,-0.78852 -10.56723,-0.81774 -10.80822,-0.0948 -0.22972,0.68917 -1.45635,0.58218 -3.60152,-0.31412 -2.26645,-0.94699 -7.63244,-1.33641 -17.69178,-1.28393 -14.6846,0.0766 -46.3205,-0.7714 -64.43864,-1.72728 -5.5,-0.29017 -16.975,-0.69417 -25.5,-0.89779 -8.525,-0.20361 -17.075,-0.65438 -19,-1.00172 -7.76586,-1.40122 -13.21771,-1.69088 -56.5,-3.0019 -9.9,-0.29987 -21.6,-0.79019 -26,-1.0896 -8.47089,-0.57644 -38.91573,-0.56584 -46.5,0.0162 -2.475,0.18993 -7.425,0.63922 -11,0.99841 -3.575,0.3592 -8.3,0.83396 -10.5,1.05502 -2.2,0.22107 -8.92083,0.49441 -14.93518,0.60744 -9.18718,0.17264 -11.23512,0.50542 -12.81149,2.08179 -2.01219,2.01219 -1.94118,5.42653 0.10372,4.98744 0.68105,-0.14623 4.92932,-0.47331 9.44061,-0.72683 4.51129,-0.25352 12.70234,-0.74875 18.20234,-1.10051 20.35901,-1.3021 77.2104,-0.36427 79.80214,1.31644 1.16556,0.75584 22.22522,1.15114 71.13321,1.33518 20.85474,0.0785 24.39413,0.31971 27.5,1.87424 3.12178,1.5625 6.00992,1.75069 23.24673,1.51471 10.82515,-0.1482 20.54912,-0.54464 21.60882,-0.88097 1.14757,-0.36423 2.43774,0.004 3.19036,0.91105 0.695,0.83742 1.82633,1.52258 2.51407,1.52258 0.68774,0 3.22014,0.85769 5.62755,1.90599 2.99349,1.30349 5.64154,1.73447 8.37712,1.3634 2.2,-0.29843 6.025,-0.39361 8.5,-0.21152 2.475,0.18208 9.9,0.28284 16.5,0.2239 16.59493,-0.1482 40.48029,-0.0812 63,0.17683 10.45,0.11972 19.91944,-0.11297 21.04321,-0.51709 1.13726,-0.40897 3.3722,-0.17597 5.0405,0.5255 1.64851,0.69315 5.64115,1.32122 8.87254,1.39571 3.23139,0.0745 6.11778,0.37798 6.4142,0.6744 0.29643,0.29643 2.75043,0.40934 5.45333,0.25092 4.14096,-0.24271 5.05886,-0.66777 5.83246,-2.70088 z M 539.8,579.8 c 0.93333,-0.93333 1.2,-0.93333 1.2,0 0,2.14893 4.02592,1.29675 4.96048,-1.05 0.72097,-1.81041 0.39003,-2.70738 -1.69388,-4.59108 -1.9854,-1.79466 -2.28158,-2.53163 -1.26893,-3.15748 0.72653,-0.44902 1.85217,-0.61255 2.50143,-0.36341 1.39183,0.53409 2.97999,-1.23762 3.95272,-4.40952 l 0.6966,-2.2715 -31.32421,0.44137 c -17.22832,0.24275 -33.24509,0.7238 -35.59283,1.069 -2.34774,0.3452 -4.82274,0.28178 -5.5,-0.14094 -1.82115,-1.13669 -4.94272,-1.46951 -6.69256,-0.71355 -3.25032,1.40419 -12.90632,1.80243 -21.53882,0.8883 -6.01366,-0.6368 -29.64996,-0.69291 -32.45238,-0.077 -1.36498,0.29998 -2.7746,0.0176 -3.17906,-0.63684 -0.94535,-1.52961 -20.21164,-2.20926 -22.83454,-0.80553 -1.34121,0.7178 -2.67675,0.68249 -4.43181,-0.11718 -1.94488,-0.88614 -3.25002,-0.83892 -5.78025,0.20913 -4.08918,1.6938 -6.38953,1.7508 -10.82196,0.26813 -1.925,-0.64392 -5.075,-1.17009 -7,-1.16925 -10.47352,0.005 -29.13886,-1.16472 -30.69847,-1.92304 -0.99084,-0.48177 -2.92653,-0.72546 -4.30153,-0.54153 -3.11347,0.41647 -2.65227,0.41945 -13.68622,-0.0884 -5.05242,-0.23254 -9.6761,-0.72555 -10.27484,-1.09559 -0.59873,-0.37004 -4.78993,-0.82033 -9.31377,-1.00064 -4.52385,-0.18031 -11.15017,-0.86697 -14.72517,-1.52591 -3.575,-0.65895 -9.425,-1.17003 -13,-1.13574 -3.575,0.0343 -9.14909,-0.40155 -12.38687,-0.96854 -5.92265,-1.03715 -8.12628,-1.15634 -45.61313,-2.46712 -29.72847,-1.0395 -38.14961,-1.16697 -41.33066,-0.6256 -3.91133,0.66566 -1.32912,2.11042 3.04529,1.70386 2.23025,-0.20728 3.25646,0.08 3.00154,0.84033 -0.48691,1.45219 -4.66211,1.23231 -12.84131,-0.67629 -8.97346,-2.09394 -31.18456,-2.08982 -35.60243,0.007 -1.81758,0.8625 -3.59197,2.033 -3.94307,2.6011 -0.35439,0.5734 -0.15514,0.73425 0.44789,0.36156 0.59744,-0.36924 0.39003,0.72428 -0.46092,2.43006 -0.88023,1.76445 -1.17123,3.47737 -0.67506,3.97354 0.47966,0.47966 3.8964,0.98378 7.59274,1.12026 5.47611,0.20218 7.23764,-0.13412 9.51265,-1.8161 4.36114,-3.22434 7.15841,-3.81884 7.83127,-1.66438 1.98712,6.36267 3.43215,8.35469 5.66573,7.81038 1.24099,-0.30242 9.23134,-0.71202 17.75634,-0.91022 17.86257,-0.41529 24.30899,-1.83449 24.83212,-5.46689 0.28847,-2.00307 0.74837,-2.22996 3.5,-1.72673 1.74233,0.31864 3.80532,0.17642 4.58441,-0.31605 0.83506,-0.52786 2.39006,-0.52527 3.78818,0.006 3.45234,1.31258 11.25183,1.43334 15.33279,0.23741 1.94562,-0.57017 7.92715,-1.04942 13.2923,-1.06499 9.72186,-0.0282 9.75025,-0.0211 8.40863,2.11072 -1.90214,3.02244 -1.07025,5.42588 2.07216,5.98676 1.47917,0.26402 7.26516,0.51595 12.85774,0.55985 5.59258,0.0439 11.21758,0.47106 12.5,0.94925 1.28242,0.47818 5.48167,0.91347 9.33167,0.9673 3.85,0.0538 8.8,0.40273 11,0.77532 2.2,0.3726 7.15,0.80765 11,0.96678 3.85,0.15914 13.525,0.75882 21.5,1.33262 7.975,0.57381 19.225,1.24129 25,1.48329 5.775,0.242 11.25234,0.73967 12.17186,1.10593 0.91952,0.36627 2.63579,0.15006 3.81392,-0.48046 1.60077,-0.8567 2.48825,-0.85909 3.51203,-0.009 1.30119,1.0799 13.05618,1.73048 43.05935,2.38315 6.63144,0.14425 12.52905,0.55392 13.1058,0.91037 0.57675,0.35645 5.25905,0.0191 10.40512,-0.74963 5.14607,-0.76874 9.59846,-1.25432 9.8942,-1.07907 0.29575,0.17525 10.43772,0.63366 22.53772,1.01868 12.1,0.38502 23.575,0.89168 25.5,1.12591 1.925,0.23423 12.69382,0.64966 23.9307,0.92318 11.23689,0.27351 20.64939,0.71598 20.91667,0.98327 0.78273,0.78273 1.67056,0.56803 2.95263,-0.71404 z M 519,567.44098 c 0,-0.85746 0.45,-1.2809 1,-0.94098 0.55,0.33992 1,1.04148 1,1.55902 0,0.51754 -0.45,0.94098 -1,0.94098 -0.55,0 -1,-0.70156 -1,-1.55902 z m -251.5,-5.10326 c -6.34377,-0.51714 -18.49189,-2.67916 -17.97247,-3.19858 0.48817,-0.48817 12.01611,-0.25364 14.54542,0.29592 6.23362,1.35442 7.92705,1.92907 7.92705,2.68994 0,0.48125 -0.1125,0.79935 -0.25,0.7069 -0.1375,-0.0925 -2.05,-0.31484 -4.25,-0.49418 z M 178,555 c 0,-0.55 0.45,-1 1,-1 0.55,0 1,0.45 1,1 0,0.55 -0.45,1 -1,1 -0.55,0 -1,-0.45 -1,-1 z m 431.13572,23.26428 c 0.66126,-0.66126 2.13974,-0.75887 3.89018,-0.25685 1.55296,0.44538 3.07169,0.56164 3.37498,0.25836 0.30328,-0.30328 16.42465,-0.6969 35.82527,-0.87469 19.40062,-0.1778 39.77385,-0.56147 45.27385,-0.8526 5.5,-0.29113 18.4375,-0.5567 28.75,-0.59016 11.04532,-0.0358 18.75,-0.44864 18.75,-1.00459 0,-0.51906 -0.7875,-0.9863 -1.75,-1.0383 -0.9625,-0.052 -4.9,-0.26572 -8.75,-0.47493 -22.07733,-1.19966 -136.75216,-2.05513 -141.93928,-1.05886 -1.6166,0.3105 -9.9416,0.84056 -18.5,1.17792 -18.20371,0.71755 -18.49388,0.77253 -17.16653,3.25272 0.8744,1.63382 2.51346,1.8457 15.15393,1.95897 7.79541,0.0699 14.34321,0.29672 14.55065,0.50417 0.89074,0.89073 21.5634,-0.0276 22.53695,-1.00116 z M 208.5,575 c 0.33992,-0.55 -0.0835,-1 -0.94098,-1 -0.85746,0 -1.55902,0.45 -1.55902,1 0,0.55 0.42344,1 0.94098,1 0.51754,0 1.2191,-0.45 1.55902,-1 z m 832.5,-3 c 0,-0.55 -0.45,-1 -1,-1 -0.55,0 -1,0.45 -1,1 0,0.55 0.45,1 1,1 0.55,0 1,-0.45 1,-1 z m -23,-1 c 0,-0.55 -0.4766,-1 -1.059,-1 -0.5825,0 -0.7809,0.45 -0.441,1 0.3399,0.55 0.8165,1 1.059,1 0.2426,0 0.441,-0.45 0.441,-1 z m -80.71469,-3.96031 c 0.96348,-1.02297 0.90447,-1.19035 -0.28531,-0.80936 -0.825,0.26419 -3.52047,-0.11802 -5.98994,-0.84934 -3.77864,-1.11903 -4.70831,-1.11131 -5.86833,0.0487 -0.75811,0.75812 -1.12404,1.78991 -0.81319,2.29288 0.8456,1.36822 11.55664,0.8037 12.95677,-0.68288 z m -23.71152,-1.15909 c 0.62028,-1.00362 -2.62222,-1.18298 -4.98626,-0.27582 -0.86682,0.33264 -1.36437,0.94729 -1.10565,1.3659 0.58862,0.95241 5.35691,0.0992 6.09191,-1.09008 z M 218.74346,564.75 c -0.39571,-1.16877 -6.62112,-1.76456 -9.49346,-0.90855 -3.16016,0.94179 -0.71748,2.15855 4.33333,2.15855 4.02572,0 5.46527,-0.34872 5.16013,-1.25 z m 771.07566,-2.02796 c 0.21905,-1.90686 0.82455,-2.6908 1.93093,-2.5 0.8865,0.15288 2.55367,-1.07204 3.70483,-2.72204 4.39709,-6.30252 14.55822,-20.13429 16.99712,-23.13725 1.4014,-1.72548 2.548,-3.57046 2.548,-4.09996 0,-0.52949 1.35,-2.82633 3,-5.10409 1.65,-2.27776 3,-4.95528 3,-5.95004 0,-0.99476 0.4593,-2.26796 1.0207,-2.82933 0.5613,-0.56137 1.8692,-3.23887 2.9062,-5.95 1.0371,-2.71113 3.2212,-8.30433 4.8536,-12.42933 2.7532,-6.95695 3.9822,-11.94298 4.8038,-19.4886 0.1804,-1.65627 0.5794,-4.5864 0.8868,-6.5114 0.3073,-1.925 0.7609,-7.775 1.0079,-13 0.247,-5.225 0.6748,-14.37027 0.9506,-20.32282 0.2759,-5.95256 0.083,-12.92756 -0.4282,-15.5 -0.5113,-2.57245 -1.9063,-10.07718 -3.0999,-16.67718 -2.3044,-12.74143 -5.3638,-23.9596 -8.7433,-32.05937 -1.1338,-2.71735 -3.6483,-9.25144 -5.5878,-14.5202 -6.6133,-17.96532 -20.20754,-37.34339 -40.44201,-57.64846 -15.41514,-15.46892 -19.16545,-18.84793 -29.62289,-26.69004 -8.22186,-6.16563 -9.26305,-6.84251 -17.4267,-11.32918 -2.51834,-1.38406 -6.6987,-4.01874 -9.28969,-5.85485 -2.59099,-1.83611 -6.19099,-3.96668 -8,-4.7346 C 912.9801,252.89537 906.775,250.00969 901,247.25067 891.62685,242.77262 882.44657,239.01426 880.27757,238.767 879.8499,238.7183 877.7,237.86061 875.5,236.86114 c -2.2,-0.99947 -5.1625,-1.8271 -6.58333,-1.83918 -1.42084,-0.0121 -2.87449,-0.31312 -3.23035,-0.66897 -0.97515,-0.97515 -10.92744,-4.28303 -12.99842,-4.32034 -0.99666,-0.018 -3.92166,-0.65889 -6.5,-1.4243 -6.40593,-1.90166 -22.00848,-4.63067 -36.1879,-6.32956 -6.85829,-0.82172 -11.795,-0.84393 -64.5,-0.29024 -34.08215,0.35805 -52.93275,-0.64583 -70,-3.72781 -4.95,-0.89387 -10.35,-1.72637 -12,-1.85001 -8.96733,-0.67196 -24.39281,-3.41576 -27,-4.80261 -1.65,-0.87769 -3.50176,-1.59857 -4.11503,-1.60196 -0.61327,-0.003 -3.74762,-1.7929 -6.96523,-3.9767 -5.77177,-3.91731 -13.33363,-13.37525 -13.49625,-16.88034 -0.11811,-2.54574 -0.62126,-4.84103 -2.96633,-13.53197 -2.43529,-9.02534 -2.28655,-12.62716 0.95768,-23.18995 2.17487,-7.0811 5.73078,-11.64694 16.82155,-21.59912 3.82839,-3.43535 20.84222,-12.89591 24.19424,-13.45322 1.41315,-0.23495 3.69437,-0.83308 5.06937,-1.32917 9.58479,-3.45813 53.53545,-3.06421 61.88265,0.55464 13.25397,5.74612 15.68314,7.22535 21.16444,12.88802 C 744.88371,135.5181 752,144.32437 752,145.51734 c 0,0.35052 2.08821,3.64002 4.64047,7.30999 5.66963,8.15253 14.37934,15.83164 19.52919,17.21836 2.10669,0.56727 3.83034,1.36703 3.83034,1.77725 0,0.41021 1.42488,1.58754 3.1664,2.61629 2.93031,1.73097 3.1164,1.74012 2.49574,0.1227 -0.36887,-0.96125 -0.96237,-2.94343 -1.3189,-4.40483 -0.35652,-1.46141 -1.44228,-3.68285 -2.41281,-4.93654 -0.97052,-1.25369 -2.04147,-4.17869 -2.37988,-6.5 -0.33841,-2.32131 -1.07858,-6.92056 -1.64482,-10.22056 -0.99069,-5.77373 -0.89598,-6.29263 2.51147,-13.75953 1.94754,-4.26774 3.55578,-8.09274 3.57385,-8.5 0.10123,-2.28062 1.86892,-5.61872 7.0115,-13.24047 C 796.56619,104.75422 804,92.400332 804,91.400185 c 0,-0.270964 1.56356,-3.832283 3.47457,-7.914043 1.91102,-4.08176 3.663,-8.460483 3.89329,-9.730495 0.2303,-1.270013 1.14765,-4.053677 2.03856,-6.185921 0.89091,-2.132243 1.39229,-4.104353 1.11417,-4.382467 -0.27811,-0.278113 -4.44652,1.903671 -9.26312,4.848408 -10.96603,6.704323 -19.25208,10.935212 -21.44845,10.951666 -0.93004,0.007 -1.94002,0.415607 -2.24439,0.908089 -0.30437,0.492482 -4.26843,1.217352 -8.80901,1.610822 -4.54059,0.393471 -8.81812,1.170631 -9.50562,1.727023 -0.79313,0.641875 -1.25,0.653826 -1.25,0.0327 0,-0.538409 -1.2375,-0.949839 -2.75,-0.914289 -1.5125,0.03555 -10.625,-0.304213 -20.25,-0.755029 -9.625,-0.450815 -22,-0.823765 -27.5,-0.828777 -12.24336,-0.01116 -35.81894,1.82664 -40.2685,3.139066 -1.79767,0.530235 -3.59767,0.993804 -4,1.030152 -6.76916,0.611561 -28.68648,6.521521 -37.12469,10.010598 -4.06625,1.681336 -9.58551,4.405927 -12.26502,6.054642 -2.67951,1.64872 -5.05782,2.99767 -5.28514,2.99767 -2.14263,0 -13.61601,8.45474 -18.71702,13.79257 C 586.97434,124.9766 579,135.26272 579,136.93425 c 0,0.5608 -1.125,1.75677 -2.5,2.65771 -1.375,0.90093 -2.5,2.24604 -2.5,2.98912 0,0.74309 -0.62904,2.82883 -1.39787,4.63499 -0.76883,1.80616 -2.36575,7.78393 -3.54872,13.28393 -1.18296,5.5 -2.8576,12.1611 -3.72142,14.80245 -1.48191,4.53135 -1.44236,5.40635 0.70063,15.5 1.24916,5.88365 2.19484,11.37255 2.10151,12.19755 -0.86184,7.61826 0.16653,10.52722 10.9591,31 2.75445,5.225 5.62893,11.15518 6.38773,13.17818 1.53143,4.08286 14.52677,19.75414 24.43956,29.47206 3.53129,3.46187 8.93129,7.59036 12,9.17443 3.06872,1.58407 7.96178,4.29654 10.87349,6.02773 2.9117,1.73118 5.6361,3.1476 6.05422,3.1476 0.41811,0 2.98581,1.44376 5.70599,3.20836 5.93225,3.84829 6.35464,4.08869 18.55145,10.55853 5.28311,2.80245 12.03311,5.76448 15,6.58229 2.96688,0.81781 11.24433,3.28606 18.39433,5.48499 7.15,2.19893 17.275,4.7566 22.5,5.6837 5.225,0.92711 17.15,3.19395 26.5,5.03743 9.35,1.84348 18.35,3.56584 20,3.82747 3.56138,0.5647 24.68347,6.68403 32.50264,9.41641 16.54629,5.78206 24.93146,13.91894 21.38603,20.75278 -0.80368,1.54909 -1.27178,3.31026 -1.04022,3.9137 1.17543,3.06312 17.8283,4.10887 22.83581,1.43402 0.92634,-0.49483 3.17634,-0.90651 5,-0.91486 5.07468,-0.0232 11.66593,-2.32592 13.28844,-4.64238 0.80118,-1.14385 1.23499,-2.30142 0.96402,-2.57239 -0.27097,-0.27097 -0.0103,-1.76152 0.57935,-3.31233 2.89942,-7.62604 -6.47005,-24.44986 -15.54711,-27.91642 -2.50137,-0.95529 -5.81759,-2.80522 -7.36939,-4.11097 -2.93376,-2.4686 -7.97308,-4.89728 -9.45483,-4.55672 -0.47039,0.10811 -1.37039,-0.18696 -2,-0.65571 -0.62961,-0.46875 -3.84474,-1.7032 -7.14474,-2.74321 -3.3,-1.04002 -6.71043,-2.47229 -7.57874,-3.18282 C 811.05295,315.58134 809.56087,315 808.60552,315 c -0.95535,0 -2.60951,-0.46695 -3.67592,-1.03767 -1.0664,-0.57073 -4.29931,-1.26044 -7.18425,-1.5327 -2.88494,-0.27226 -5.92035,-0.68773 -6.74535,-0.92327 -0.825,-0.23554 -7.8,-0.69895 -15.5,-1.02979 -7.7,-0.33083 -16.85022,-0.99481 -20.33382,-1.4755 -3.4836,-0.48068 -6.92558,-0.64689 -7.64885,-0.36935 -0.72326,0.27755 -1.59139,0.0575 -1.92917,-0.48908 -0.33779,-0.54654 -1.99272,-0.81924 -3.67763,-0.60601 -1.68492,0.21324 -4.94157,-0.22355 -7.23701,-0.97065 -4.52494,-1.47274 -10.42472,-2.66578 -15.17352,-3.06837 -6.01692,-0.5101 -12.74013,-1.67518 -17.81127,-3.08657 -2.8538,-0.79427 -6.27658,-1.68414 -7.60618,-1.9775 -1.3296,-0.29336 -4.7046,-1.60321 -7.5,-2.91076 -2.7954,-1.30756 -8.90755,-3.47758 -13.58255,-4.82226 -4.675,-1.34469 -10.6375,-3.4024 -13.25,-4.5727 C 647.95384,280.84359 645.98787,280 645.4692,280 c -0.30393,0 -3.34634,-1.29723 -6.7609,-2.88273 -3.41457,-1.58551 -7.76358,-3.21664 -9.66448,-3.62475 -6.32209,-1.35728 -17.68261,-7.54877 -22.08891,-12.03846 -5.34711,-5.44831 -4.52648,-6.95044 1.26969,-2.32411 9.83715,7.85172 12.85722,9.41378 20.46281,10.58387 1.75308,0.26971 3.96032,1.34443 4.90499,2.38828 0.94467,1.04384 2.55633,1.8979 3.58148,1.8979 1.02515,0 4.39375,1.35 7.48578,3 3.09203,1.65 6.23964,3 6.99468,3 0.75504,0 2.15419,0.41217 3.10923,0.91593 4.44891,2.34672 9.42906,4.18653 10.42962,3.85301 1.17871,-0.39291 -16.92377,-9.80026 -18.82075,-9.78061 -0.62015,0.006 -1.66865,-0.64031 -2.32999,-1.43718 -0.66134,-0.79686 -2.85394,-1.97619 -4.87244,-2.62071 -4.78246,-1.52709 -27.24691,-12.71955 -29.11049,-14.50372 -0.79226,-0.75851 -1.10243,-1.71714 -0.68927,-2.13031 0.83025,-0.83025 11.62975,4.66574 11.62975,5.91852 0,0.43179 0.6327,0.78507 1.40599,0.78507 0.77329,0 5.61079,2.07194 10.75,4.6043 5.13921,2.53237 10.24401,4.97149 11.34401,5.42028 3.28589,1.34061 12.88771,5.85711 14.5,6.82052 4.57452,2.73343 21.75618,9.79757 27,11.10089 1.925,0.47844 7.325,2.28028 12,4.00407 4.675,1.7238 12.55,3.74289 17.5,4.48688 4.95,0.74398 11.7,2.04601 15,2.89338 3.3,0.84737 8.25,2.05756 11,2.6893 5.03812,1.15738 25.23227,2.80643 37.76943,3.08425 3.72319,0.0825 6.9428,0.43038 7.15468,0.77306 0.21189,0.34269 3.69064,0.56264 7.73057,0.48878 9.14769,-0.16723 20.8315,1.50999 22.92406,3.29077 0.86831,0.73894 2.21831,1.34792 3,1.35329 0.78169,0.005 3.67126,1.05279 6.42126,2.32759 2.75,1.27481 7.19798,2.86712 9.88439,3.53847 8.05291,2.01248 11.66334,4.44201 22.81365,15.35173 11.55028,11.30106 11.8553,11.89532 11.94538,23.27244 0.069,8.71494 -1.08245,14.54824 -3.00555,15.22641 -0.90083,0.31768 -2.42847,1.25674 -3.39476,2.08681 -0.96628,0.83007 -2.73075,1.99917 -3.92103,2.598 -3.43365,1.72747 -3.47783,3.67052 -0.0776,3.41142 2.90549,-0.22139 8.55613,3.08413 20.61588,12.0599 4.26905,3.17734 14.63961,16.55493 14.63961,18.88447 0,0.47153 0.9,2.72012 2,4.99685 2.79028,5.77522 2.60613,7.23614 -0.9121,7.23614 -2.64605,0 -2.97761,-0.38773 -3.62911,-4.24391 -1.21213,-7.17453 -6.28108,-14.69385 -17.08065,-25.33755 -7.93406,-7.81954 -10.58561,-9.88194 -11.81809,-9.19221 -1.07578,0.60204 -2.47251,0.29373 -4.32452,-0.95458 -5.83617,-3.93374 -7.72647,-4.48333 -11.82339,-3.4375 -5.7254,1.46153 -21.05051,1.34713 -26.33637,-0.1966 -2.51668,-0.73499 -6.24165,-1.13244 -8.27772,-0.8832 -2.36927,0.29001 -6.86918,-0.54482 -12.5,-2.31902 -8.6468,-2.7245 -14.86229,-4.19925 -20.79805,-4.93474 -2.76194,-0.34222 -6.99338,-1.60883 -12,-3.592 -1.79023,-0.70912 -4.95751,-1.45271 -11,-2.58249 -3.81091,-0.71254 -24.02771,-3.34076 -30,-3.90005 -3.3,-0.30904 -7.35,-0.77188 -9,-1.02853 -1.65,-0.25664 -6.375,-0.88742 -10.5,-1.40172 -4.125,-0.51429 -8.625,-1.15347 -10,-1.4204 -15.71646,-3.05098 -39.3681,-3.47705 -51.5,-0.92772 -5.07373,1.06616 -18.25484,0.3526 -21.94155,-1.1878 C 622.63663,354.65699 619.08136,354 616.65785,354 c -2.42352,0 -6.37547,-0.69569 -8.78212,-1.54597 -3.7546,-1.32652 -7.058,-1.45731 -11.37573,-0.45039 -0.55,0.12826 -1.225,0.15338 -1.5,0.0558 -3.34945,-1.18829 -35.58426,-1.72585 -49.10968,-0.81896 C 537.23612,351.82075 525,354.6162 525,356.01307 c 0,2.23921 26.73447,18.09402 35.24802,20.90375 1.96632,0.64894 3.81674,1.80955 4.11206,2.57912 0.29531,0.76957 2.4726,1.90435 4.83842,2.52174 2.36583,0.61738 8.19798,3.11597 12.96035,5.55241 4.76236,2.43644 9.32501,4.42989 10.13921,4.42989 0.81421,0 2.46586,0.798 3.67035,1.77334 l 2.18999,1.77334 -2.0792,1.88165 c -1.20067,1.08659 -2.0792,1.38317 -2.0792,0.70191 0,-0.64886 -1.0125,-1.63822 -2.25,-2.19858 -1.2375,-0.56035 -4.5,-2.32342 -7.25,-3.91791 -2.75,-1.5945 -5.76369,-2.92488 -6.69709,-2.95642 -0.93339,-0.0315 -3.85839,-1.23906 -6.5,-2.68339 -4.32204,-2.36314 -6.07585,-2.66407 -17.51688,-3.00569 -13.87404,-0.41426 -13.68558,-0.34732 -23.83895,-8.46827 -5.95577,-4.76359 -20.15078,-12.89701 -22.53497,-12.91203 -1.05166,-0.007 -3.87054,-1.13162 -6.26418,-2.5 C 498.75429,358.11958 495.70233,357 494.36581,357 c -1.33653,0 -4.10309,-0.72969 -6.14793,-1.62153 -3.63547,-1.58558 -16.48271,-4.41736 -28.96992,-6.38551 -3.43862,-0.54197 -8.36962,-1.45996 -10.95779,-2.03998 -2.58817,-0.58003 -8.37467,-1.25651 -12.85889,-1.50329 -4.48423,-0.24679 -10.5673,-0.90655 -13.51794,-1.46613 -6.50654,-1.23393 -43.87148,-1.17524 -52.91334,0.0831 -3.575,0.49753 -11.9,1.59217 -18.5,2.43252 -6.6,0.84035 -16.725,2.62638 -22.5,3.96894 -5.775,1.34257 -12.8217,2.89796 -15.65932,3.45644 -2.83763,0.55847 -7.78763,1.87211 -11,2.9192 -3.21238,1.04708 -7.86568,2.46901 -10.34068,3.15983 -8.65655,2.41623 -18.35693,6.00903 -19.92179,7.37858 -0.86801,0.75968 -2.70321,1.72521 -4.07821,2.14561 -1.375,0.4204 -4.075,1.74268 -6,2.93839 -3.27253,2.03272 -10.24111,5.09551 -12.5,5.49392 -1.35676,0.2393 -11.18412,6.60736 -21.5,13.93184 -4.675,3.31935 -11.13807,7.73907 -14.36237,9.82161 -3.22431,2.08254 -7.27431,4.95073 -9,6.37377 -1.7257,1.42303 -6.22472,4.68366 -9.99783,7.24584 -3.7731,2.56218 -11.03316,8.4963 -16.13346,13.18693 -5.1003,4.69064 -11.01322,9.80491 -13.13981,11.36506 -6.20454,4.55186 -31.19823,30.07339 -39.36653,40.19791 -4.125,5.11289 -9.91891,12.02333 -12.87536,15.35654 -2.95644,3.33321 -5.84117,7.07288 -6.41051,8.31038 -0.56934,1.2375 -1.43589,2.25 -1.92567,2.25 -0.48978,0 -1.50189,1.4625 -2.24914,3.25 -0.74724,1.7875 -2.731484,4.97699 -4.409434,7.08776 -1.677949,2.11076 -3.346833,4.81076 -3.708632,6 -0.361798,1.18923 -1.195675,2.83724 -1.85306,3.66224 -0.657385,0.825 -2.694288,4.875 -4.52645,9 -1.832163,4.125 -4.035683,8.31497 -4.896711,9.31105 -1.346568,1.55777 -1.364917,1.93502 -0.131202,2.6975 1.672284,1.03353 38.223099,0.48019 48.486169,-0.73403 7.91535,-0.93646 41.38735,-0.83428 52,0.15874 8.63321,0.8078 13.64804,1.10719 51,3.04468 17.18465,0.89139 26.03247,1.6412 32,2.71183 8.52589,1.52961 9.53121,1.60913 34.5,2.72885 12.375,0.55495 25.875,1.28054 30,1.61242 20.05952,1.6139 103.81381,2.57628 104.66394,1.20265 0.26084,-0.42147 0.90038,-0.50296 1.4212,-0.18107 1.58997,0.98265 31.38435,1.83657 72.41486,2.07543 21.45,0.12487 39.9,0.37214 41,0.54949 1.41854,0.22871 1.91806,-0.17113 1.71816,-1.37531 -0.15502,-0.93378 0.64391,-2.19323 1.77539,-2.79878 1.95508,-1.04633 2.0342,-1.75655 1.59325,-14.30223 -0.2552,-7.26067 -0.96315,-14.59917 -1.57322,-16.30777 -0.61007,-1.7086 -1.00439,-3.5086 -0.87628,-4 0.77419,-2.96952 -4.50342,-20.72145 -9.27332,-31.19204 -1.1174,-2.45284 -2.28759,-6.03699 -2.60043,-7.96477 -1.01795,-6.27292 2.02899,-3.17643 4.77975,4.85746 1.39882,4.0854 2.90173,8.00794 3.33981,8.71677 0.43808,0.70882 1.31859,3.3692 1.9567,5.91196 0.6381,2.54275 1.7862,4.829 2.55132,5.08055 1.07683,0.35404 1.22518,-0.19339 0.65662,-2.423 -0.40399,-1.58421 -0.89472,-4.00538 -1.09052,-5.38038 -0.1958,-1.375 -0.82877,-4.92392 -1.40661,-7.88649 C 549.7519,484.45502 549.73591,483 550.96146,483 c 0.5288,0 1.47279,1.9125 2.09777,4.25 0.62497,2.3375 1.49947,4.7 1.94332,5.25 0.44385,0.55 1.05593,2.575 1.36019,4.5 0.30425,1.925 1.24711,6.79192 2.09523,10.81538 0.84811,4.02345 1.58071,8.52345 1.62798,10 l 0.086,2.68462 0.94166,-3 c 0.51792,-1.65 0.75149,-5.3625 0.51904,-8.25 -0.23245,-2.8875 -0.0594,-5.25 0.38448,-5.25 0.76073,0 1.9132,5.72049 1.81316,9 -0.0252,0.825 0.21439,6 0.53234,11.5 0.31795,5.5 0.0809,14.31243 -0.52677,19.58318 -0.90954,7.88907 -0.8556,10.09882 0.30515,12.5 1.14758,2.37395 1.96362,2.86883 4.38452,2.65897 1.63598,-0.14181 7.02451,-0.41134 11.97451,-0.59895 4.95,-0.18761 9,-0.45139 9,-0.58618 0,-0.13478 6.3,-0.40519 14,-0.6009 7.7,-0.19572 20.3,-0.6902 28,-1.09885 20.88534,-1.10843 59.31896,-0.51822 80.99747,1.24384 23.04581,1.8732 63.68857,2.73118 94.1855,1.9883 5.60063,-0.13643 12.46816,0.0451 15.26118,0.40342 2.79301,0.35832 5.33641,0.39401 5.65199,0.0793 0.31559,-0.31468 2.44806,-0.65493 4.73883,-0.75611 2.29076,-0.10118 10.01503,-0.51471 17.16503,-0.91894 15.55597,-0.87949 33.84934,-0.80202 45.5,0.19268 13.04931,1.11412 14.47683,1.0677 14.48904,-0.47108 0.006,-0.75971 1.55464,-2.20918 3.44136,-3.22104 1.88672,-1.01186 4.17887,-3.09027 5.09366,-4.6187 6.7127,-11.21549 16.8571,-29.36302 17.96986,-32.14667 0.74043,-1.85224 3.50912,-6.57724 6.15264,-10.5 2.64352,-3.92276 4.81699,-7.88526 4.82992,-8.80556 0.0129,-0.92031 1.14852,-3.01027 2.52352,-4.64436 1.375,-1.6341 2.5,-3.20644 2.5,-3.4941 0,-1.08276 9.23581,-16.08971 12.94671,-21.03667 6.46325,-8.61608 10.04594,-12.05895 11.27241,-10.83248 0.78279,0.78279 0.62653,1.73004 -0.55825,3.38399 -0.90495,1.26329 -3.23984,4.61756 -5.18865,7.45394 -1.94882,2.83638 -4.20231,5.70398 -5.00776,6.37245 -0.80545,0.66846 -1.46446,1.56342 -1.46446,1.9888 0,0.61281 -7.03026,12.45051 -13.05466,21.9817 -0.52146,0.825 -2.01723,3.75 -3.32394,6.5 -9.55621,20.1113 -16.12513,33.14952 -17.12988,34 -0.64977,0.55 -2.23889,2.575 -3.53138,4.5 -1.29249,1.925 -3.82362,5.25255 -5.62473,7.39457 -1.80111,2.14201 -3.03684,4.27951 -2.74606,4.75 1.18103,1.91095 3.76212,0.58516 8.7043,-4.47101 14.98093,-15.32649 31.72997,-30.83235 32.88753,-30.4465 0.81991,0.2733 -1.37233,3.22478 -5.83465,7.85537 -3.93142,4.07966 -10.01517,10.60379 -13.51943,14.49807 -3.50427,3.89427 -8.04893,8.55339 -10.09925,10.35359 -2.05032,1.8002 -3.72785,3.63159 -3.72785,4.06976 0,1.36275 9.00382,2.86742 21,3.50941 6.325,0.33849 16.225,1.22104 22,1.96121 5.775,0.74017 12.525,1.27372 15,1.18565 4.13075,-0.14698 4.52619,-0.38806 4.81912,-2.93808 z M 618,526.54879 c 0,-0.79817 0.63926,-3.9055 1.42058,-6.90519 2.49209,-9.56779 3.00725,-15.68514 3.04374,-36.1436 0.0381,-21.35135 -1.03821,-29.48286 -6.06238,-45.80162 C 613.60599,428.61701 613.54082,428 615.37756,428 c 2.13557,0 3.7125,2.49957 4.2164,6.68336 0.25282,2.09915 0.75762,4.71664 1.12177,5.81664 0.84127,2.54123 0.98233,3.32226 2.34799,13 1.93421,13.70676 2.08802,15.63628 2.35168,29.5 0.24311,12.78287 -2.2583,41.31875 -3.8473,43.88982 C 620.57371,528.49877 618,528.25279 618,526.54879 Z M 599.53332,524 c 0.31221,-1.925 0.94743,-6.9536 1.4116,-11.17468 0.46417,-4.22107 1.11393,-8.11153 1.44392,-8.64545 0.53246,-0.86155 2.71884,-27.56685 2.67552,-32.67987 -0.10214,-12.05549 -1.41929,-18.33664 -5.76669,-27.5 -6.69903,-14.12008 -8.41638,-18.8086 -7.17127,-19.57812 1.58015,-0.97658 4.20259,2.11191 5.39162,6.34982 1.14872,4.09421 3.09311,4.5633 2.79372,0.674 -0.27401,-3.55952 2.0824,-3.01009 3.46282,0.80741 3.76859,10.42185 9.80201,49.8884 8.65284,56.60104 -0.34329,2.00522 -1.19106,5.67085 -1.88395,8.14585 -0.69289,2.475 -1.13939,5.28102 -0.99222,6.23559 0.14716,0.95458 -0.56968,3.93906 -1.59298,6.63218 -1.02331,2.69312 -1.65307,5.10407 -1.39948,5.35767 0.2536,0.2536 -0.55588,1.5678 -1.79884,2.92044 -1.24296,1.35265 -3.05516,4.01068 -4.0271,5.90674 L 598.96566,527.5 Z M 629,521.65364 c 0,-0.1905 0.64853,-1.653 1.44118,-3.25 0.79265,-1.597 1.65247,-4.02864 1.91072,-5.40364 0.25824,-1.375 0.72251,-3.175 1.0317,-4 0.97672,-2.6061 3.69141,-27.18328 3.18982,-28.87864 -0.26384,-0.89175 -0.72495,-4.32136 -1.02469,-7.62136 -1.27556,-14.04313 -5.27526,-29.75301 -9.92235,-38.9726 -1.93298,-3.83494 -3.33409,-7.15303 -3.11357,-7.37354 0.8811,-0.8811 3.40924,0.87739 5.83645,4.05962 2.31571,3.03606 3.87878,8.11881 8.69876,28.28652 3.52401,14.74511 3.72858,24.73233 0.92175,45 -1.73688,12.54177 -2.20665,14.23436 -4.51006,16.25 C 631.19776,521.72935 629,522.66747 629,521.65364 Z M 645.28776,506.75 c 0.2865,-1.2375 1.47728,-5.4 2.64618,-9.25 2.02759,-6.67825 4.03144,-24.99418 3.47868,-31.79646 -0.14318,-1.76195 -0.35421,-6.09053 -0.46897,-9.61907 -0.19034,-5.85274 -4.52385,-23.56303 -6.81156,-27.83766 -0.52076,-0.97305 -1.88852,-2.6214 -3.03947,-3.66299 -3.00831,-2.72248 -2.70803,-4.78793 0.63972,-4.40024 2.239,0.25929 3.25319,1.39975 5.61705,6.31642 3.56753,7.42025 7.02264,22.26111 6.79395,29.18236 -0.0942,2.8503 0.23397,5.4328 0.72923,5.73888 2.23996,1.38438 -0.5978,31.11354 -3.73022,39.07876 -1.08147,2.75 -2.21679,5.7875 -2.52294,6.75 -0.86673,2.72488 -3.97043,2.25909 -3.33165,-0.5 z m 16.11145,-13.34794 c 0.33725,-0.87887 0.85144,-3.91637 1.14263,-6.75 0.29119,-2.83363 0.74213,-6.52574 1.00209,-8.20469 0.25995,-1.67895 0.70952,-9.54643 0.99904,-17.48329 0.48216,-13.21809 0.33878,-14.93622 -1.70634,-20.44737 -1.22801,-3.30919 -3.49361,-7.77173 -5.03468,-9.91675 -3.10737,-4.32515 -3.90626,-7.76134 -1.30195,-5.59996 0.825,0.68469 1.5,1.72329 1.5,2.30799 0,0.58471 0.95969,2.08465 2.13264,3.3332 1.17296,1.24856 2.25736,3.40621 2.40979,4.7948 0.15243,1.38859 1.10524,4.67105 2.11736,7.29436 2.64563,6.85723 2.63772,38.00804 -0.0118,46.51965 -0.98444,3.1625 -2.2561,5.75 -2.82592,5.75 -0.56981,0 -0.76009,-0.71907 -0.42284,-1.59794 z m 277.38378,-0.0936 c -0.2124,-0.99466 0.25613,-3.38347 1.04118,-5.30847 0.78504,-1.925 2.28589,-6.65 3.33522,-10.5 1.04933,-3.85 2.62277,-8.8 3.49654,-11 0.87376,-2.2 1.67795,-4.675 1.78708,-5.5 0.10913,-0.825 0.47501,-2.175 0.81306,-3 7.11597,-17.36623 10.74627,-55.24913 6.14959,-64.17222 -0.75711,-1.46972 -2.07861,-4.74003 -2.93666,-7.26735 -0.85805,-2.52733 -2.8896,-6.56509 -4.51455,-8.97281 C 946.3295,375.1799 945,372.87531 945,372.46629 c 0,-0.40901 -2.53694,-3.84455 -5.63765,-7.63454 -7.00156,-8.55799 -18.63605,-18.03006 -25.02956,-20.37751 -2.65803,-0.97592 -5.44854,-2.33418 -6.20111,-3.01836 -1.52772,-1.38886 -0.7365,-3.43588 1.32804,-3.43588 1.88388,0 10.42688,4.06247 14.19465,6.75 1.7349,1.2375 3.6474,2.25 4.25,2.25 0.6026,0 1.09563,0.4645 1.09563,1.03222 0,0.56773 0.82401,1.35523 1.83113,1.75 1.99481,0.78194 7.83476,7.36914 15.66887,17.67377 2.75,3.61723 6.0125,7.87187 7.25,9.45475 1.2375,1.58288 2.25,3.36347 2.25,3.95686 0,0.5934 0.85499,3.00344 1.89997,5.35565 5.47314,12.31976 8.94322,29.98538 6.62643,33.73403 -0.94536,1.52962 -3.49229,13.68797 -3.44243,16.43323 0.0532,2.9284 -3.97102,18.49039 -5.59211,21.62523 -0.73319,1.41784 -2.21432,6.15682 -3.2914,10.53107 -1.07708,4.37426 -2.95895,10.42819 -4.18193,13.45319 -1.22298,3.025 -2.80774,7.075 -3.52169,9 -1.45266,3.91677 -5.05926,5.37389 -5.71385,2.30847 z M 677.48095,479.5 c 0.28548,-1.375 0.80003,-3.7375 1.14345,-5.25 2.37514,-10.46069 1.87421,-24.88535 -1.19272,-34.34561 -4.23173,-13.0532 -14.30511,-26.45307 -22.68168,-30.17178 -1.5125,-0.67146 -2.75,-1.78598 -2.75,-2.47672 0,-2.05197 2.48419,-1.43385 5,1.24411 1.29175,1.375 2.88331,2.5 3.53681,2.5 3.19578,0 10.3772,7.53728 15.72099,16.5 6.33111,10.61868 8.0279,15.63396 8.52872,25.20867 0.67264,12.8597 -1.75962,26.23802 -5.18622,28.52602 -1.99504,1.33212 -2.64554,0.79968 -2.11935,-1.73469 z m 18.61825,-38.88336 c 0.0171,-4.61085 -0.47359,-11.16661 -1.09045,-14.56836 -1.51898,-8.37671 -7.15902,-20.40277 -12.06436,-25.72443 -6.43189,-6.97778 -2.75455,-9.13401 4.02146,-2.358 4.6772,4.6772 8.47191,11.77799 10.54248,19.72745 1.48611,5.70555 2.10624,26.54159 0.88468,29.72491 -1.41974,3.6998 -2.32285,1.02193 -2.29381,-6.80157 z m 20.51878,6.278 C 716.34698,445.57759 715.89682,439.775 715.61761,434 714.81624,417.42462 708.78594,401.95724 700.84956,396.12075 698.5156,394.40434 696.09809,393 695.47731,393 694.85654,393 693.29175,391.875 692,390.5 690.70825,389.125 689.05481,388 688.32569,388 687.59656,388 687,387.51425 687,386.92054 c 0,-0.69531 1.15656,-0.8294 3.25,-0.37678 12.79126,2.76553 25.59672,17.06762 28.10073,31.38497 1.49195,8.53065 1.42618,28.69436 -0.0986,30.21911 -0.85526,0.85526 -1.26499,0.54106 -1.63418,-1.2532 z M 736.5,435.25051 c 0,-12.58372 -2.37522,-21.24808 -8.03059,-29.29402 C 726.56124,403.2417 725,400.76451 725,400.45162 c 0,-1.63177 -7.03511,-8.97294 -10.60309,-11.06438 -4.80736,-2.81791 -8.02205,-6.09543 -6.99043,-7.12705 0.97841,-0.97842 7.99567,3.14164 13.89386,8.15754 4.71968,4.01366 10.73848,11.88909 14.19574,18.57469 4.26887,8.25508 6.83202,22.88316 5.08305,29.00934 -1.2629,4.4236 -2.8049,7.99823 -3.45045,7.99875 -0.34577,2.7e-4 -0.62868,-4.83723 -0.62868,-10.75 z m 22.15774,2.99949 c -0.25315,-0.4125 -0.31988,-2.325 -0.14828,-4.25 0.61607,-6.91083 -1.69016,-21.35286 -4.20939,-26.35996 C 751.64195,402.3569 740.44572,390 738.31693,390 737.59262,390 737,389.325 737,388.5 c 0,-2.27283 2.37078,-1.79868 5,1 1.29175,1.375 2.76793,2.5 3.28041,2.5 1.54165,0 8.58178,5.96601 9.94655,8.42899 7.86575,14.19518 9.12641,18.28448 9.05078,29.35877 -0.0419,6.13442 -3.68346,11.61765 -5.62,8.46224 z M 319.5,436.35148 c -1.1,-0.22909 -3.90945,-0.90952 -6.24323,-1.51207 -3.21446,-0.82993 -4.59691,-0.80201 -5.70201,0.11514 -2.09572,1.7393 -5.06997,0.45694 -8.44952,-3.64305 -1.77492,-2.15327 -3.99797,-3.68452 -5.60532,-3.86097 -1.4651,-0.16082 -3.18998,-1.01198 -3.83307,-1.89146 -1.06805,-1.46065 -1.62755,-1.46294 -6.46468,-0.0265 -2.91249,0.86492 -6.22068,1.27891 -7.35155,0.91999 -1.13087,-0.35893 -3.69112,-0.65259 -5.68944,-0.65259 -8.00213,0 -16.31112,-9.91428 -13.19257,-15.74135 C 258.37761,407.4259 261,407.38775 261,410 c 0,1.1 0.39752,2 0.88337,2 0.48585,0 1.1203,0.90602 1.40988,2.01337 0.3026,1.15718 2.15953,2.65629 4.36663,3.52523 2.11206,0.83152 4.61274,1.94502 5.55705,2.47445 1.1192,0.62748 2.68582,0.59422 4.5,-0.0955 1.53069,-0.58196 2.78307,-0.92954 2.78307,-0.7724 0,0.15714 2.925,-0.76244 6.5,-2.04353 4.36575,-1.56444 7.64921,-3.55921 10,-6.07519 1.925,-2.06028 4.9142,-4.42548 6.64268,-5.256 3.12917,-1.50354 3.14656,-1.49663 4.04815,1.60978 0.73547,2.53408 1.35403,3.05512 3.29461,2.77523 3.07418,-0.44339 6.59856,-3.05555 7.90283,-5.85731 2.14531,-4.60846 6.35146,-5.63428 23.11173,-5.63664 14.15153,-0.002 16.06055,0.21533 21.94323,2.49787 3.54378,1.37503 6.60618,2.9889 6.80534,3.58638 0.49242,1.47727 -2.71851,2.08028 -5.61388,1.05428 -1.30092,-0.461 -6.70092,-1.02355 -12,-1.25013 -10.12304,-0.43284 -18.95209,0.88044 -25.35257,3.77105 -2.04484,0.9235 -4.02641,1.67909 -4.40351,1.67909 -1.81925,0 -11.71314,5.37148 -10.59499,5.75212 0.70599,0.24033 1.83099,0.0151 2.5,-0.50053 1.24502,-0.95957 8.08257,-1.67871 15.21638,-1.60039 2.2,0.0241 7.825,1.25915 12.5,2.74444 4.675,1.4853 9.62567,2.85697 11.00149,3.04818 1.37582,0.1912 4.04947,0.97928 5.94145,1.75129 l 3.43996,1.40365 -3.44145,1.27898 c -8.77115,3.25971 -18.59074,7.57716 -20.05449,8.8175 -0.88717,0.75176 -2.46217,1.54029 -3.5,1.75227 -1.03783,0.21199 -3.91196,0.86202 -6.38696,1.44452 -4.61278,1.08562 -6.99317,1.18978 -10.5,0.45945 z m 20.49058,-8.33399 c 11.85036,-5.52834 11.83637,-5.58776 -1.99058,-8.4523 -3.575,-0.74063 -7.175,-0.99052 -8,-0.55529 -0.825,0.43522 -3.16336,0.79104 -5.19636,0.79071 -2.033,-3.4e-4 -5.13964,0.71939 -6.90364,1.59939 -1.764,0.88 -3.83107,1.6 -4.59348,1.6 -0.76241,0 -3.22607,0.93863 -5.4748,2.08585 -3.62316,1.8484 -3.91888,2.25556 -2.59774,3.5767 0.81997,0.81997 3.37703,1.74384 5.68235,2.05305 4.01362,0.53834 4.16825,0.46082 3.64359,-1.8267 -0.55085,-2.40177 1.46467,-6.15985 3.07771,-5.7386 0.4743,0.12386 2.74118,-0.11814 5.03751,-0.53779 7.19306,-1.31453 9.78862,1.64627 5.67068,6.46864 -1.49283,1.74821 -0.85738,2.9246 1.57085,2.90807 0.87083,-0.006 5.40409,-1.79321 10.07391,-3.97173 z M 299.5,422 c 0.33992,-0.55 -0.11008,-1 -1,-1 -0.88992,0 -1.33992,0.45 -1,1 0.33992,0.55 0.78992,1 1,1 0.21008,0 0.66008,-0.45 1,-1 z m 10.62756,-4.75 c 1.21431,-1.54837 1.18902,-1.60698 -0.21957,-0.50868 -0.8756,0.68273 -1.8881,0.94523 -2.25,0.58334 C 307.2961,416.96276 307,417.19167 307,417.83333 c 0,1.71208 1.5548,1.42209 3.12756,-0.58333 z m 471.44821,14.5 c -0.28318,-1.7875 -0.74882,-5.22317 -1.03477,-7.63483 -0.28595,-2.41165 -0.88256,-4.88665 -1.32581,-5.5 -0.44325,-0.61334 -1.86328,-3.81517 -3.15563,-7.11517 -1.29235,-3.3 -3.52194,-7.51607 -4.95464,-9.36905 -1.43271,-1.85298 -3.31094,-4.55298 -4.17386,-6 -0.86291,-1.44702 -4.20231,-4.43666 -7.42089,-6.64363 C 753.50758,385.37135 751.63689,383 754.3925,383 c 1.83632,0 6.08177,2.49764 10.19871,6 3.59643,3.05954 14.40879,16.34584 14.40879,17.7056 0,0.54143 0.84782,1.7517 1.88405,2.68947 1.03623,0.93778 2.41594,3.82002 3.06603,6.40499 0.65008,2.58497 1.81079,7.12279 2.57936,10.08404 1.56072,6.01339 0.70329,9.1159 -2.51931,9.1159 -1.39331,0 -2.06064,-0.89092 -2.43436,-3.25 z m 29.70589,1.59827 c -0.67009,-0.27161 -1.51738,-2.14858 -1.88288,-4.17105 -0.3655,-2.02247 -1.95474,-6.55196 -3.53166,-10.06554 C 804.2902,415.59811 803,412.10652 803,411.35258 c 0,-0.75393 -1.40623,-2.82919 -3.12496,-4.61168 -1.71873,-1.7825 -4.19622,-4.9234 -5.50554,-6.97979 -1.30931,-2.05639 -3.84057,-4.3507 -5.62503,-5.09846 -1.78446,-0.74777 -4.59447,-2.4773 -6.24447,-3.84341 -1.65,-1.36611 -4.4625,-3.33133 -6.25,-4.36715 C 773.0123,384.57591 771.77299,381 774.36045,381 c 1.51054,0 7.48374,3.85022 12.22318,7.87885 1.69599,1.44163 5.20581,4.42115 7.7996,6.62115 6.92549,5.87407 17.61677,23.87392 17.61677,29.65961 0,1.05092 0.71379,3.00013 1.5862,4.3316 2.14998,3.28128 1.00456,5.19835 -2.30454,3.85706 z M 830.35923,415.25 c -4.96979,-11.29182 -7.42164,-15.47967 -12.44264,-21.25243 -3.11465,-3.581 -4.94674,-6.56065 -4.71935,-7.67543 0.29773,-1.45957 1.70697,-0.54791 7.08235,4.58169 3.69087,3.52211 7.77603,8.24711 9.07814,10.5 3.00246,5.19484 6.99025,17.22411 6.1569,18.57249 -1.31186,2.12264 -2.70187,0.84832 -5.1554,-4.72632 z m 89.81139,2.98988 c -0.4889,-0.95693 -1.15486,-3.14644 -1.47991,-4.86558 -0.51269,-2.71158 -6.29032,-15.36031 -10.10181,-22.11551 -0.69551,-1.23267 -3.09262,-3.56545 -5.3269,-5.18395 -2.23428,-1.61851 -4.36573,-3.43367 -4.73657,-4.03369 -0.37083,-0.60002 -3.77323,-2.65157 -7.56088,-4.559 C 884.95687,374.45673 882,371.80982 882,369.45733 c 0,-1.18125 5.37584,0.5877 9,2.96151 1.925,1.26086 5.75,3.54489 8.5,5.07561 6.45358,3.59223 7.9149,4.8867 12.88338,11.41239 7.00791,9.20431 9.37913,12.76666 10.13397,15.22453 0.40009,1.30275 1.07867,2.81863 1.50796,3.36863 0.80732,1.03431 1.2782,4.50912 1.08538,8.00945 -0.0609,1.1052 -0.99729,2.56315 -2.08092,3.23989 -1.64845,1.02947 -2.11541,0.94627 -2.85915,-0.50946 z m -55.12722,-8.13509 c -1.6092,-3.88497 -13.87318,-16.10734 -15.52583,-15.47316 -1.21333,0.4656 -4.51757,-3.08481 -4.51757,-4.85414 0,-2.94546 9.7231,2.03706 16.83929,8.62915 3.12948,2.899 8.16071,11.25906 8.16071,13.56012 0,2.32982 -3.81372,0.89717 -4.9566,-1.86197 z m 76.93185,-0.66989 C 941.43886,408.0241 941,405.12565 941,402.99392 c 0,-2.13174 -0.42049,-4.13576 -0.93441,-4.45339 -0.51393,-0.31762 -1.67802,-3.13539 -2.58686,-6.26171 -0.90885,-3.12632 -2.51336,-6.77868 -3.56559,-8.11637 C 932.86091,382.82476 932,381.28946 932,380.75068 c 0,-0.53878 -3.4875,-4.44568 -7.75,-8.68199 -5.56425,-5.53008 -9.93575,-8.80574 -15.5,-11.61449 -6.24327,-3.15151 -7.75,-4.35362 -7.75,-6.18314 0,-2.78269 0.59848,-2.81323 4.81012,-0.24546 1.82056,1.10997 3.68591,1.78587 4.14521,1.50201 0.45931,-0.28387 1.06682,0.0877 1.35003,0.82577 0.28322,0.73804 2.54625,2.29672 5.02896,3.46374 8.22209,3.86484 24.784,22.94522 26.84159,30.92324 2.79234,10.82687 4.10139,18.09461 3.52822,19.58828 -0.96419,2.51263 -3.62497,2.00975 -4.72888,-0.89374 z M 729.54053,385.06559 c -0.31762,-0.51393 -3.04418,-1.6515 -6.05901,-2.52794 C 720.00269,381.52633 718,380.39935 718,379.45301 c 0,-1.11258 0.69811,-1.33134 2.75,-0.86172 4.52264,1.0351 13.25,5.21988 13.25,6.35339 0,1.30438 -3.6666,1.40379 -4.45947,0.12091 z M 90.711268,563.68415 c 2.060775,-1.28333 3.02737,-9.59703 1.038732,-8.93415 -0.4125,0.1375 -0.75,-0.22286 -0.75,-0.8008 0,-1.6041 -7.522575,-0.56948 -9.382476,1.29042 C 80.727886,556.12926 80,557.76273 80,558.86955 c 0,1.10683 -0.471851,2.30404 -1.048558,2.66046 -0.679391,0.41989 -0.709217,1.05679 -0.08472,1.80902 1.063712,1.28127 9.926592,1.53951 11.844542,0.34512 z m 911.862932,61.55717 c -0.408,-0.40772 -4.19162,-0.7875 -8.40802,-0.84393 -10.85147,-0.14525 -36.02306,-2.20071 -37.41618,-3.05533 -0.4125,-0.25305 -0.75,-0.92264 -0.75,-1.48798 0,-1.37914 27.04858,-0.19554 37,1.61907 4.125,0.75218 8.7375,1.12597 10.25,0.83065 1.5159,-0.296 2.75,-0.0908 2.75,0.45718 0,1.47605 -2.5693,3.33628 -3.4258,2.48034 z M 943,621 c 0,-0.55 0.45,-1 1,-1 0.55,0 1,0.45 1,1 0,0.55 -0.45,1 -1,1 -0.55,0 -1,-0.45 -1,-1 z M 26.301356,571.79828 c -4.338698,-1.12427 -7.443939,-8.80939 -3.551356,-8.78921 0.9625,0.005 7.570153,0.69428 14.683673,1.53175 7.11352,0.83746 13.63852,1.45656 14.5,1.37577 4.901768,-0.45971 9.200308,0.18147 8.822155,1.31593 -0.278118,0.83435 -3.616273,1.34178 -10.333333,1.57077 -5.839274,0.19906 -10.74717,0.86956 -11.926509,1.62936 -2.610393,1.68177 -8.450649,2.3358 -12.19463,1.36563 z M 21.55746,554.22413 c -0.832252,-0.83226 -0.673216,-7.04245 0.19254,-7.51847 0.4125,-0.22681 6.767441,0.1577 14.12209,0.85445 7.35465,0.69675 14.83426,1.13092 16.621356,0.96483 6.661967,-0.61916 7.198836,2.68753 0.714332,4.39973 -4.112668,1.08593 -30.769409,2.18037 -31.650318,1.29946 z" id="path12" inkscape:connector-curvature="0"/>
</svg>
