<?xml version="1.0" encoding="UTF-8" standalone="no"?>
<!-- Created with Inkscape (http://www.inkscape.org/) -->

<svg
   xmlns:dc="http://purl.org/dc/elements/1.1/"
   xmlns:cc="http://creativecommons.org/ns#"
   xmlns:rdf="http://www.w3.org/1999/02/22-rdf-syntax-ns#"
   xmlns:svg="http://www.w3.org/2000/svg"
   xmlns="http://www.w3.org/2000/svg"
   xmlns:sodipodi="http://sodipodi.sourceforge.net/DTD/sodipodi-0.dtd"
   xmlns:inkscape="http://www.inkscape.org/namespaces/inkscape"
   version="1.1"
   id="svg2"
   width="1167"
   height="519"
   viewBox="0 0 1167 519"
   sodipodi:docname="illustration-limerick-84.svg"
   inkscape:version="0.92.4 (5da689c313, 2019-01-14)">
  <metadata
     id="metadata8">
    <rdf:RDF>
      <cc:Work
         rdf:about="">
        <dc:format>image/svg+xml</dc:format>
        <dc:type
           rdf:resource="http://purl.org/dc/dcmitype/StillImage" />
        <dc:title></dc:title>
      </cc:Work>
    </rdf:RDF>
  </metadata>
  <defs
     id="defs6" />
  <sodipodi:namedview
     pagecolor="#ffffff"
     bordercolor="#666666"
     borderopacity="1"
     objecttolerance="10"
     gridtolerance="10"
     guidetolerance="10"
     inkscape:pageopacity="0"
     inkscape:pageshadow="2"
     inkscape:window-width="1920"
     inkscape:window-height="1010"
     id="namedview4"
     showgrid="false"
     inkscape:zoom="1.0518744"
     inkscape:cx="588.87788"
     inkscape:cy="259.5"
     inkscape:window-x="0"
     inkscape:window-y="0"
     inkscape:window-maximized="1"
     inkscape:current-layer="svg2" />
  <path
     style="fill:#000000"
     d="m 468.41778,500.90653 c -1.90676,-2.10955 -1.89767,-2.13882 1.58222,-5.09431 1.925,-1.63491 7.6625,-5.70175 12.75,-9.03742 5.0875,-3.33567 9.25,-6.42853 9.25,-6.87303 0,-0.4445 1.96693,-1.67825 4.37095,-2.74166 2.40402,-1.06341 4.69774,-2.46223 5.09714,-3.10848 0.61804,-1 4.79754,-3.19904 6.591,-3.46784 1.19048,-0.17842 13.4933,-8.37632 21.51114,-14.33379 4.62634,-3.4375 8.75313,-6.26877 9.17065,-6.29171 0.41752,-0.0229 4.58412,-2.70148 9.25912,-5.9523 4.675,-3.25082 11.24379,-7.49065 14.5973,-9.42183 3.35352,-1.93119 6.67112,-4.20266 7.37245,-5.04771 C 570.67108,428.6914 571.659,428 572.16514,428 c 0.50614,0 3.26354,-1.72657 6.12756,-3.83682 2.86401,-2.11024 7.4573,-5.0782 10.2073,-6.59544 2.75,-1.51725 5.929,-3.61568 7.06445,-4.66319 1.13545,-1.0475 2.36421,-1.90455 2.73058,-1.90455 0.36638,0 3.26237,-1.67711 6.43555,-3.72692 3.17318,-2.0498 7.34442,-4.57306 9.26942,-5.60725 1.925,-1.03418 4.93248,-2.95706 6.68328,-4.27308 1.7508,-1.31601 3.42248,-2.39275 3.71484,-2.39275 0.29236,0 4.70988,-2.53973 9.81672,-5.64384 5.10684,-3.10411 10.63516,-6.26844 12.28516,-7.03185 1.65,-0.76342 4.35,-2.25935 6,-3.32431 1.65,-1.06496 4.38137,-2.56876 6.06971,-3.34179 1.68834,-0.77302 4.83834,-2.51976 7,-3.88163 2.16166,-1.36187 7.08029,-4.18239 10.93029,-6.26783 3.85,-2.08543 7.675,-4.35268 8.5,-5.03832 0.825,-0.68564 3.61021,-2.1958 6.18936,-3.3559 2.57914,-1.16009 4.98864,-2.59353 5.35444,-3.1854 0.3658,-0.59188 3.65559,-2.99515 7.31064,-5.34062 3.65506,-2.34546 7.26316,-5.01239 8.018,-5.9265 0.75485,-0.9141 2.04456,-1.66201 2.86603,-1.66201 0.82147,0 3.57887,-1.50076 6.12755,-3.33501 3.96209,-2.85146 8.52152,-5.77412 18.63398,-11.94461 1.1,-0.67121 4.08529,-2.68288 6.63398,-4.47038 2.54868,-1.7875 5.08386,-3.25 5.63373,-3.25 0.54986,0 3.95719,-2.025 7.57183,-4.5 3.61463,-2.475 6.85078,-4.5 7.19143,-4.5 0.34065,0 3.64922,-1.8 7.35237,-4 C 780.6221,300.99657 784,300.03031 784,302.10608 c 0,1.7117 -14.07171,12.21029 -18.75005,13.98899 -1.3207,0.50213 -4.3608,2.26115 -6.75579,3.90895 -2.39498,1.64779 -4.94843,3.00035 -5.67434,3.00569 -0.7259,0.005 -3.29565,1.58033 -5.71055,3.5 -2.4149,1.91966 -5.00431,3.49029 -5.75423,3.49029 -0.74992,0 -4.58943,2.475 -8.53222,5.5 -3.9428,3.025 -7.71776,5.5 -8.38879,5.5 -0.67103,0 -1.44378,0.5625 -1.71722,1.25 -0.27345,0.6875 -2.23409,2.15 -4.35699,3.25 -2.1229,1.1 -6.40499,3.9125 -9.51576,6.25 -3.11077,2.3375 -6.03577,4.25303 -6.5,4.25674 -0.46423,0.004 -3.86709,1.9162 -7.5619,4.25 -3.69481,2.33379 -10.53947,6.65793 -15.21035,9.60919 -4.67088,2.95127 -10.42285,6.36278 -12.78216,7.58113 -5.55421,2.86822 -11.64032,6.35144 -14.78965,8.46447 -1.375,0.92255 -4.75,2.76201 -7.5,4.0877 -2.75,1.32568 -7.25,3.84976 -10,5.60907 -2.75,1.7593 -7.3078,4.47965 -10.12844,6.04522 -7.79542,4.32675 -14.3565,8.59865 -17.04274,11.09648 -1.33085,1.2375 -2.60172,2.25 -2.82414,2.25 -0.86971,0 -9.2911,6.03772 -10.56889,7.57737 -0.74448,0.89704 -2.27209,2.03303 -3.39469,2.52442 -2.25376,0.98652 -2.64575,1.22963 -13.5411,8.39821 -4.17966,2.75 -8.47702,5.57196 -9.54969,6.27103 -1.07267,0.69907 -3.97531,2.27933 -6.45031,3.5117 -5.50677,2.74197 -14.84628,9.09189 -19.81131,13.46967 -2.02878,1.78882 -4.58869,3.53391 -5.68869,3.87798 -1.1,0.34406 -6.5,3.58753 -12,7.20771 -5.5,3.62018 -12.8428,8.07789 -16.31733,9.90602 -3.47453,1.82813 -7.87703,4.88358 -9.78333,6.78988 -1.9063,1.90631 -3.86426,3.46601 -4.35102,3.46601 -0.48676,0 -3.25736,2.025 -6.1569,4.5 -2.89953,2.475 -5.72415,4.5 -6.27693,4.5 -0.55278,0 -2.15468,1.07445 -3.55977,2.38766 -3.81374,3.56434 -6.38016,4.01566 -8.63694,1.51887 z m -120.31259,-5.27978 c -1.8747,-2.25888 -0.26136,-4.31461 5.21635,-6.64672 C 356.1697,487.76744 360.525,485.85997 363,484.74121 377.57892,478.15115 380.2806,477 381.16811,477 c 0.53992,0 4.21048,-2.10234 8.15678,-4.67186 3.94631,-2.56953 10.55011,-6.44335 14.67511,-8.6085 4.125,-2.16515 7.95,-4.29773 8.5,-4.73907 1.52485,-1.22358 13.54892,-7.85406 17.5,-9.65009 8.68017,-3.94573 23.85919,-11.96535 25.45,-13.44617 0.5225,-0.48637 1.7196,-0.88431 2.66021,-0.88431 2.11563,0 11.8624,-4.61039 17.87942,-8.45727 2.4693,-1.5787 5.3943,-2.99027 6.5,-3.13682 1.1057,-0.14655 7.28864,-2.99783 13.73985,-6.33618 C 502.68069,413.73138 508.44822,411 509.0462,411 c 0.59798,0 2.51972,-1.04928 4.27052,-2.33173 1.7508,-1.28245 7.68328,-4.30866 13.18328,-6.72491 5.5,-2.41625 11.575,-5.31432 13.5,-6.44016 1.925,-1.12584 5.75,-3.07787 8.5,-4.33783 5.25816,-2.40913 6.53927,-3.07341 12.38701,-6.42292 1.98714,-1.13822 8.56299,-4.6317 14.61299,-7.7633 15.54478,-8.04628 23.78248,-12.46763 26.58156,-14.2669 1.33014,-0.85503 4.89344,-2.33228 7.91844,-3.28278 3.025,-0.95049 6.175,-2.24895 7,-2.88546 2.01232,-1.55256 5.37674,-2.94173 14.68778,-6.06463 4.29672,-1.44111 10.51222,-3.90212 13.81222,-5.46891 7.84486,-3.72463 16.13501,-7.37193 20.5,-9.0191 1.925,-0.72642 4.19734,-1.9098 5.04965,-2.62973 0.8523,-0.71994 3.42836,-1.97183 5.72457,-2.78198 2.2962,-0.81015 5.86582,-2.622 7.93248,-4.02633 C 686.77337,325.149 689.07784,324 689.82776,324 c 0.74993,0 2.55797,-0.84737 4.01787,-1.88305 1.4599,-1.03568 4.90437,-2.8683 7.65437,-4.07247 8.86863,-3.88343 12.8005,-5.7014 23.61985,-10.92106 C 730.96077,304.30554 736.00993,302 736.34021,302 c 1.56964,0 44.40581,-20.20392 52.65979,-24.83728 5.90129,-3.31268 17.06846,-8.26807 19.83824,-8.80313 3.04669,-0.58856 3.30871,-0.44812 3,1.60802 -0.33041,2.20073 -4.30678,4.65321 -23.83824,14.70253 -3.025,1.55642 -5.65,3.16736 -5.83333,3.57986 -0.18334,0.4125 -1.08334,0.75411 -2,0.75914 -0.91667,0.005 -3.91667,1.11596 -6.66667,2.46873 -2.75,1.35277 -5.39773,2.47366 -5.88385,2.49086 C 767.13003,293.98593 761.22776,296.7 754.5,300 c -6.72776,3.3 -12.94097,6 -13.80713,6 -0.86616,0 -1.82013,0.39689 -2.11993,0.88199 -0.29981,0.48509 -4.26387,2.35304 -8.80902,4.15101 -4.54516,1.79796 -12.31392,5.17041 -17.26392,7.49433 -4.95,2.32392 -11.7,5.44984 -15,6.94648 -10.60941,4.81168 -22.94292,10.61552 -25,11.76437 -3.99105,2.22896 -20.54506,10.14029 -21.5,10.27508 -0.275,0.0388 -2.02018,0.88059 -3.87818,1.87062 -1.858,0.99003 -5.683,2.46919 -8.5,3.28702 -2.817,0.81784 -8.40149,3.02645 -12.40998,4.90804 -4.00848,1.88158 -7.65132,3.42106 -8.09518,3.42106 -0.68472,0 -9.719,4.83557 -33.11666,17.72561 -2.475,1.36351 -4.725,2.77054 -5,3.12675 -0.76921,0.99634 -4.85111,3.14764 -5.97238,3.14764 -2.1277,0 -23.88823,11.19437 -24.41156,12.55815 -0.30431,0.79302 -1.12991,1.4438 -1.83468,1.44618 -1.45812,0.005 -14.2772,6.38576 -20.28138,10.09527 -2.2,1.3592 -7.825,4.23038 -12.5,6.3804 -4.675,2.15001 -10.75,5.28406 -13.5,6.96456 -2.75,1.68049 -5.9,3.1871 -7,3.34802 -2.22577,0.32561 -10.34814,3.7252 -21.10493,8.83341 -3.90771,1.85571 -7.73271,3.38402 -8.5,3.39625 -0.76729,0.0122 -2.52007,0.90222 -3.89507,1.97776 -1.375,1.07554 -2.89701,1.96553 -3.38223,1.97776 -1.61915,0.0408 -26.57225,12.89484 -31.16047,16.05162 -2.48818,1.71191 -6.42147,4.01489 -8.74064,5.11772 -2.31916,1.10283 -6.91666,3.50928 -10.21666,5.34766 -3.3,1.83838 -6.54252,3.37912 -7.20559,3.42387 -0.66308,0.0447 -2.81552,1.1739 -4.78321,2.50921 -1.96769,1.33531 -4.9256,2.7239 -6.57313,3.08576 -1.64752,0.36186 -6.87624,3.09433 -11.61938,6.07216 -4.74313,2.97783 -9.35075,5.41424 -10.23915,5.41424 -0.8884,0 -3.20966,1.08342 -5.15836,2.40759 -3.43181,2.33198 -10.3818,5.59241 -11.92086,5.59241 -0.41549,0 -1.26829,-0.61796 -1.89513,-1.37325 z m -180.08988,-7.74952 c 0.008,-0.75748 0.34592,-1.83639 0.75,-2.39758 0.94977,-1.31907 5.86883,-3.47965 7.92221,-3.47965 0.87638,0 3.44271,-0.87655 5.70295,-1.94788 8.26147,-3.91586 21.00283,-9.05301 22.53561,-9.08605 0.86565,-0.0187 3.37392,-0.90339 5.57392,-1.96607 2.2,-1.06268 4.39373,-1.94741 4.87495,-1.96607 0.7419,-0.0288 7.5501,-2.79309 15.12505,-6.1412 1.1,-0.4862 4.76225,-1.75118 8.13834,-2.81108 3.37609,-1.05989 7.97067,-2.86186 10.21017,-4.00436 2.2395,-1.14251 4.60739,-2.07729 5.26198,-2.07729 1.20001,0 7.23254,-2.65519 18.52858,-8.15527 3.37648,-1.64402 6.75148,-3.08675 7.5,-3.20605 0.74851,-0.1193 2.48593,-0.9542 3.86093,-1.85533 1.375,-0.90113 3.85,-2.1657 5.5,-2.81016 1.65,-0.64446 5.7,-2.44362 9,-3.99812 8.83031,-4.15962 15.52467,-7.06236 19.68489,-8.53555 2.0267,-0.71767 5.4017,-2.21285 7.5,-3.32262 2.09831,-1.10976 4.67864,-2.28011 5.73406,-2.60077 1.66905,-0.5071 1.27835,-1.20192 -3,-5.33525 -5.1622,-4.98722 -10.72467,-13.29374 -10.94996,-16.35175 -0.0729,-0.98997 -0.84896,-2.59401 -1.72451,-3.56454 -0.87555,-0.97052 -1.84794,-4.01459 -2.16085,-6.76459 -0.31292,-2.75 -0.83426,-6.81858 -1.15853,-9.0413 -0.61257,-4.19879 0.76409,-16.22532 2.59584,-22.67729 1.04546,-3.68243 5.65055,-8.91178 13.89751,-15.78141 l 4.20173,-3.5 0.33387,-20 c 0.32371,-19.3915 -0.0932,-29.18574 -2.44785,-57.5 -0.61746,-7.425 -1.28838,-18.10555 -1.49094,-23.73456 -0.3301,-9.17351 -1.58145,-28.75917 -3.13234,-49.02647 -0.4369,-5.70948 -0.95534,-7.47495 -2.42624,-8.26215 -1.02884,-0.55062 -2.16506,-2.57066 -2.52494,-4.48897 -0.35988,-1.91832 -1.16674,-3.56165 -1.79303,-3.65184 -9.29471,-1.3386 -44.03069,-1.09314 -89.13871,0.62989 -8.8,0.33615 -21.22255,0.76824 -27.60567,0.96021 -6.38311,0.19197 -12.59886,0.88058 -13.81277,1.53024 -1.21392,0.64967 -3.41637,1.08125 -4.89434,0.95906 -3.41464,-0.28228 -10.04729,1.04915 -10.73009,2.15396 -0.28643,0.46345 -1.47635,0.48915 -2.64427,0.0571 -1.24234,-0.45958 -3.67283,-0.25174 -5.8573,0.50088 -4.10441,1.41408 -8.18292,1.97102 -20.95556,2.8616 -4.71769,0.32895 -9.88061,1.30785 -11.60265,2.1999 -3.30554,1.71234 -5.87861,6.89341 -4.80846,9.68219 0.3438,0.89592 0.22207,1.62895 -0.2705,1.62895 -0.52144,0 -0.82283,33.37036 -0.72141,79.87612 0.0958,43.93186 -0.11183,80.29545 -0.4614,80.80796 C 125.24315,352.9925 120.73504,356 119.6662,356 c -0.48883,0 -0.59331,-1.575 -0.23218,-3.5 0.41021,-2.18657 0.26434,-3.5 -0.38871,-3.5 -0.57492,0 -1.04531,0.58635 -1.04531,1.303 0,0.71665 -1.31681,3.09359 -2.92626,5.28208 -1.60944,2.1885 -3.24648,5.31465 -3.63788,6.94701 -0.3914,1.63235 -1.06965,3.42795 -1.50723,3.99022 -2.398,3.08136 -4.52745,15.47565 -4.29179,24.97999 0.52208,21.05548 1.24288,23.78479 5.74029,21.73564 2.28058,-1.0391 2.46127,-1.71663 2.91313,-10.92288 0.26495,-5.39828 1.19378,-14.54006 2.06405,-20.31506 0.87028,-5.775 1.60347,-12.525 1.62932,-15 0.0605,-5.79789 0.67188,-6.59012 5.57893,-7.22981 l 4.06255,-0.52959 2.97434,5.6297 c 2.58335,4.88966 3.38297,5.65059 6.08294,5.78859 1.70973,0.0874 3.94312,0.582 4.9631,1.09916 4.68539,2.37559 83.70954,1.73959 94.8793,-0.7636 2.58965,-0.58036 5.66585,-0.75133 6.83598,-0.37995 2.28672,0.72578 37.99683,0.68839 40.58279,-0.0425 0.85604,-0.24195 3.66933,-0.70393 6.25175,-1.02662 2.58242,-0.3227 7.04773,-1.67661 9.92291,-3.0087 3.94823,-1.82925 5.68857,-2.17528 7.11117,-1.41392 2.85546,1.52819 3.12763,3.37552 1.22957,8.34552 -1.86507,4.88363 -3.42632,5.56435 -6.26088,2.72979 -1.43271,-1.43271 -3.12308,-1.74586 -8.25,-1.52836 -3.54644,0.15046 -12.07308,0.4655 -18.94808,0.70009 -38.32175,1.30761 -43.36352,1.98476 -61,8.19279 -5.225,1.83919 -12.99974,4.24602 -17.2772,5.34849 -4.27746,1.10247 -8.20479,2.26876 -8.7274,2.59175 -1.22651,0.75803 -12.88337,5.08991 -20.13675,7.48315 -3.10275,1.02375 -6.47775,2.26848 -7.5,2.76608 -15.51004,7.54968 -20.83426,9.55536 -25.72273,9.68993 -2.81818,0.0776 -4.4422,0.78955 -6,2.63037 -2.3191,2.74047 -6.60189,4.92763 -9.64905,4.92763 -1.05546,0 -3.51379,0.76049 -5.46296,1.68999 -2.56001,1.22078 -3.84688,1.38704 -4.6351,0.59882 -0.74465,-0.74465 -2.09112,-0.78726 -4.23999,-0.13417 -1.73185,0.52635 -4.695442,1.17159 -6.585758,1.43388 -1.890316,0.26228 -3.994036,0.93923 -4.674933,1.50432 -0.680897,0.5651 -3.072532,1.20996 -5.314743,1.43302 -2.242212,0.22306 -4.878902,0.83487 -5.859312,1.35957 -0.98041,0.5247 -6.042153,1.95006 -11.248319,3.16746 -5.206165,1.21741 -11.884249,3.27854 -14.840185,4.58029 C 53.169633,435.93493 50.187501,437 49.498611,437 c -0.688891,0 -4.674566,1.38171 -8.857055,3.07046 -4.18249,1.68875 -8.062858,2.78719 -8.623041,2.44098 -1.659566,-1.02567 -1.16031,-5.36661 0.731485,-6.36013 0.9625,-0.50548 3.775,-1.24719 6.25,-1.64825 2.475,-0.40105 5.014557,-1.14362 5.643461,-1.65015 0.628903,-0.50653 2.428903,-1.08415 4,-1.28361 3.207659,-0.40723 11.350771,-2.78517 18.856539,-5.50647 2.75,-0.99704 7.925,-2.59359 11.5,-3.54789 3.575,-0.9543 9.388284,-2.58555 12.918409,-3.62501 C 95.448534,417.85047 99.311034,417 100.50174,417 c 3.23753,0 3.49701,-0.77966 1.77732,-5.34041 -2.22495,-5.90073 -2.682787,-25.56147 -0.75248,-32.3135 0.81038,-2.83465 1.47342,-6.09057 1.47342,-7.23538 0,-1.78847 4.27062,-11.43583 7.13177,-16.11071 0.50492,-0.825 1.79361,-3.335 2.86375,-5.57778 1.07014,-2.24279 2.74643,-5.17098 3.7251,-6.5071 3.89462,-5.31715 4.38455,-7.10421 4.31416,-15.73606 -0.17247,-21.14853 -0.20306,-28.53875 -0.17256,-41.67906 0.048,-20.69336 -0.8939,-85.46918 -1.41051,-97 -0.24641,-5.5 -0.4292,-11.71158 -0.4062,-13.8035 l 0.0418,-3.80351 -3.54366,0.6648 -3.54367,0.66479 v -5.08561 c 0,-4.62024 0.26998,-5.22522 2.95034,-6.61129 4.29121,-2.21907 5.73846,-1.88778 3.26321,0.747 l -2.13507,2.27269 3.84372,-0.36656 c 2.11405,-0.20161 4.14795,0.12568 4.51978,0.72732 0.37183,0.60163 1.78862,1.09387 3.14842,1.09387 1.3598,0 2.75023,0.72409 3.08983,1.60909 0.50913,1.32675 1.51252,1.48227 5.71862,0.88638 6.13283,-0.86887 8.81043,-1.14702 18.60115,-1.93232 4.125,-0.33086 11.325,-1.10649 16,-1.72363 4.675,-0.61714 9.85,-1.22922 11.5,-1.36018 3.40777,-0.27046 10.02284,-1.11578 19.5,-2.49184 3.575,-0.51909 7.625,-0.93314 9,-0.92014 1.375,0.013 5.2,-0.18707 8.5,-0.44462 3.3,-0.25755 10.275,-0.72178 15.5,-1.03163 5.225,-0.30984 11.64545,-1.06638 14.26766,-1.6812 2.62221,-0.61483 5.99721,-0.78372 7.5,-0.37531 4.66399,1.26749 10.38235,1.38844 19.73234,0.41733 4.95,-0.51411 17.92965,-1.13202 28.84367,-1.37312 16.98615,-0.37525 20.11818,-0.68681 21.75,-2.16358 1.04848,-0.94886 1.9213,-2.21796 1.9396,-2.82022 0.13408,-4.41317 8.83865,-8.37581 14.46673,-6.58579 1.65,0.52479 8.70797,1.38076 15.68438,1.90217 6.97642,0.5214 13.50142,1.36795 14.5,1.88121 2.1717,1.11622 8.4488,2.15092 17.31562,2.85427 3.575,0.28358 7.8566,0.92899 9.51466,1.43425 2.68047,0.81681 17.57277,1.3118 21.48534,0.71412 0.825,-0.12602 8.475,0.0998 17,0.50187 8.525,0.40206 22.7,0.9129 31.5,1.13521 8.8,0.2223 17.20304,0.86673 18.67342,1.43207 1.47037,0.56533 6.38527,1.11734 10.92198,1.22668 4.53671,0.10935 9.85868,0.54789 11.82658,0.97454 4.51859,0.97966 13.80207,2.10018 17.07802,2.06134 1.375,-0.0163 4.525,0.6005 7,1.37069 7.28152,2.2659 21.75649,4.47182 32.5,4.95286 5.5,0.24626 11.575,0.6693 13.5,0.94009 3.46111,0.48688 11.43852,1.13405 26,2.10924 4.125,0.27625 10.65,0.73059 14.5,1.00964 3.85,0.27905 9.9819,1.56567 13.62643,2.85916 5.3966,1.91532 7.53095,2.20322 11.5,1.5512 9.07058,-1.49007 15.31662,-1.07981 19.51904,1.28209 4.31358,2.42436 4.92457,3.90146 4.67339,11.29808 -0.15969,4.70244 0.76554,12.41773 1.58775,13.23994 0.20445,0.20445 2.63954,-0.7223 5.41131,-2.05945 7.62349,-3.67769 10.9594,-3.99343 17.69785,-1.67507 3.23886,1.11434 6.8103,2.86726 7.93654,3.89539 1.12623,1.02812 2.98008,2.15094 4.11967,2.49514 1.13958,0.3442 3.08088,2.42092 4.31398,4.61494 1.23311,2.19401 2.61443,3.98911 3.06962,3.98911 0.45518,0 1.10996,1.125 1.45506,2.5 1.09708,4.37111 2.37014,2.71799 3.65794,-4.75 0.68761,-3.9875 1.68198,-7.81057 2.20971,-8.49572 0.52772,-0.68515 1.07575,-3.83515 1.21784,-7 0.26303,-5.85863 3.05044,-41.25814 4.03583,-51.25428 0.2982,-3.025 0.66694,-6.78304 0.81943,-8.3512 0.16395,-1.68611 -0.53546,-3.88438 -1.71159,-5.37959 -1.83876,-2.3376 -1.88134,-2.8323 -0.56432,-6.55574 0.78349,-2.21504 2.09952,-4.35241 2.92452,-4.74972 0.825,-0.39731 4.425,-1.94497 8,-3.43923 3.575,-1.49427 8.16415,-3.57357 10.19812,-4.62068 2.03396,-1.04711 4.20181,-1.90384 4.81744,-1.90384 1.74231,0 12.39642,-9.003751 13.2236,-11.175211 0.53332,-1.400047 0.046,-2.582779 -1.75,-4.247258 C 762.71647,90.934661 762,89.224278 762,86.635329 762,82.520111 762.88255,82.107751 765.5,85 c 1.00851,1.114391 3.07997,2 4.67804,2 2.79334,0 2.82731,0.06221 1.30381,2.387364 -1.42318,2.172047 -1.41882,2.532807 0.0484,4 2.4063,2.406296 3.22531,2.022009 5.43414,-2.549727 2.32236,-4.806739 1.35153,-7.13728 -2.76506,-6.637711 -2.32431,0.282066 -5.34479,-2.387773 -4.10452,-3.628039 0.28822,-0.288222 3.42231,-0.647305 6.96463,-0.797963 3.59498,-0.152898 6.36493,-0.715749 6.26934,-1.273924 -0.0942,-0.55 -2.69619,-1.65853 -5.78223,-2.463399 -4.02427,-1.049572 -5.52792,-1.89468 -5.31726,-2.988517 0.69072,-3.586623 9.61097,-1.694429 15.59977,3.309078 3.22579,2.695071 4.91729,3.352051 9.00268,3.496648 5.01478,0.177492 7.33837,-1.003602 4.9346,-2.508281 -0.69647,-0.435967 -1.71631,-0.820784 -2.26631,-0.85515 -1.58145,-0.09881 -9.89514,-2.768064 -11,-3.531739 -2.44852,-1.692403 -20.75147,-7.09456 -21.41428,-6.320476 -1.13281,1.322976 -3.50855,9.398712 -3.35696,11.411151 0.14171,1.881274 -2.25187,3.363456 -3.8433,2.379897 -1.07531,-0.664583 -0.70253,-3.702382 0.94662,-7.7139 0.62964,-1.531578 1.07856,-3.106578 0.9976,-3.5 -0.23593,-1.146533 1.3451,-4.564988 3.00368,-6.49445 1.27608,-1.484498 2.53437,-1.679016 7.598,-1.174565 4.06753,0.405218 5.60841,0.283232 4.67292,-0.369937 C 775.27337,59.89799 776.42826,57 778.76862,57 c 1.00726,0 2.32998,-0.498604 2.93939,-1.10801 1.24938,-1.24938 7.6703,-0.745846 13.79199,1.081578 5.29943,1.581968 27.74452,5.395567 38.5,6.541456 7.67054,0.817219 11.65214,-2.021279 4.16451,-2.968893 -1.70959,-0.216361 -3.64912,-0.727603 -4.31007,-1.136094 -0.66096,-0.408491 -4.61109,-1.317658 -8.77809,-2.020371 -8.28078,-1.396454 -8.67515,-1.482194 -17.90319,-3.892289 -3.47975,-0.908812 -7.00301,-1.39291 -7.82946,-1.075773 -0.82644,0.317136 -2.61273,0.297995 -3.96951,-0.04254 -2.34577,-0.58875 -2.38336,-0.711455 -0.76555,-2.499109 2.10576,-2.326844 11.94948,-2.608726 16.74023,-0.479369 5.28628,2.349606 7.5812,2.512377 12.94869,0.918406 2.83542,-0.84203 8.00383,-1.48823 11.48535,-1.436 5.45046,0.08177 6.66958,-0.244575 8.77357,-2.348562 1.41712,-1.417127 2.44762,-3.617748 2.45329,-5.238978 0.0156,-4.464377 4.72067,-13.477976 9.12243,-17.476028 5.08601,-4.619556 15.38919,-8.80398 23.41465,-9.509381 7.31044,-0.642555 10.54524,0.621797 9.71487,3.797143 -0.50857,1.944783 -1.02567,2.078386 -5.84975,1.511411 -3.15259,-0.370526 -5.54213,-0.21702 -5.91093,0.379723 C 877.16055,20.549245 876.04583,21 875.02389,21 c -3.05851,0 -17.94487,7.388575 -18.14889,9.00787 -0.23315,1.850492 -0.49552,2.486394 -3.43107,8.315625 -2.87948,5.717903 -2.89649,5.844707 -0.93829,6.993299 2.51339,1.47424 8.87215,3.977403 18.49436,7.280409 13.10063,4.497039 13,4.441988 13,7.112015 0,2.355476 -0.19143,2.432038 -4.25,1.699748 -2.3375,-0.421756 -6.05,-0.845931 -8.25,-0.942611 -3.59894,-0.158157 -7.62848,-0.92007 -18.5,-3.498014 -11.03793,-2.617403 -16.05884,-3.576171 -16.48678,-3.148232 -0.78381,0.783814 2.82637,3.113587 4.87823,3.148088 1.0403,0.01749 5.6528,1.810923 10.25,3.985403 6.34796,3.00259 8.35855,4.431652 8.35855,5.940983 0,1.093061 -0.36867,2.215233 -0.81926,2.493717 -0.4506,0.278483 -7.3131,-0.384305 -15.25,-1.472862 C 835.99383,66.826881 828.15,65.804623 826.5,65.643753 c -1.65,-0.160869 -4.125,-0.590926 -5.5,-0.955682 -1.375,-0.364755 -4.41557,-0.869131 -6.75683,-1.120835 -2.34126,-0.251704 -4.64437,-0.69716 -5.11804,-0.989903 -0.47367,-0.292742 -3.7331,-0.709848 -7.24317,-0.926902 -6.35825,-0.393177 -6.36918,-0.389247 -2.94219,1.057764 1.89187,0.798824 4.47651,1.25422 5.74365,1.011992 1.26713,-0.242229 2.81184,0.171636 3.43267,0.919699 C 808.7614,65.417431 811.16949,66 813.73823,66 c 2.47134,0 6.57874,0.651963 9.12756,1.448806 2.54881,0.796843 7.78421,1.965324 11.63421,2.596625 3.85,0.631301 10.04115,2.024481 13.75812,3.095957 5.08375,1.465473 7.56131,1.716467 10,1.013066 3.70225,-1.067858 15.25178,-6.549458 18.24777,-8.660701 1.29171,-0.910254 2.52139,-1.094924 3.45378,-0.518676 2.31444,1.430402 -0.54917,5.776822 -4.35297,6.606983 -1.70869,0.372912 -4.9067,1.903401 -7.1067,3.401087 -6.40955,4.363403 -16.05219,7.266119 -21.60199,6.502826 -3.68743,-0.507151 -4.89592,-0.31212 -5.57401,0.899558 -0.84157,1.503803 -3.14635,1.646898 -25.824,1.603316 -6.57166,-0.01263 -14.8176,1.029851 -16.01652,2.024863 -0.76773,0.637159 -1.88929,0.85352 -2.49236,0.480804 -1.92152,-1.18757 -11.37309,4.189233 -13.4022,7.624238 -4.3284,7.327398 -9.90438,13.763808 -12.91605,14.909118 -6.50271,2.47293 -10.28151,4.31369 -14.17287,6.90399 -6.00271,3.99573 -8.14743,4.79399 -14.85978,5.53073 -2.12289,0.233 -4.09669,0.66055 -4.38624,0.9501 -0.28955,0.28954 0.44488,2.78436 1.63206,5.54404 1.18718,2.75967 1.93006,6.03587 1.65085,7.28043 -0.27921,1.24456 -0.77577,8.33784 -1.10347,15.76284 -0.81662,18.50319 -1.088,23.37443 -1.351,24.25 -0.43346,1.44308 -0.36393,9.48682 0.0896,10.36434 0.25175,0.48711 0.34486,2.23566 0.20692,3.88566 -0.13794,1.65 -0.45248,8.96606 -0.69899,16.25792 -0.28351,8.3864 -0.89932,13.8015 -1.67594,14.73727 -0.67527,0.81364 -0.94464,2.21711 -0.59862,3.11882 0.34602,0.90172 0.17222,2.19003 -0.38623,2.86291 -0.70309,0.84718 -0.51577,2.22486 0.60913,4.47976 1.33349,2.67306 1.42271,3.92975 0.4981,7.01585 -1.3143,4.38672 -1.47666,9.69295 -0.3185,10.40874 0.44434,0.27461 4.60684,-1.07828 9.25,-3.00642 4.64317,-1.92814 9.34212,-3.77523 10.44212,-4.10464 1.1,-0.32941 3.0783,-1.29484 4.39622,-2.14539 3.0925,-1.99581 5.82038,-2.39239 6.69721,-0.97364 0.8274,1.33875 -3.35599,4.79497 -5.84206,4.82658 -0.96175,0.0122 -5.68675,1.77193 -10.5,3.91043 -4.81325,2.13851 -10.4326,4.42134 -12.48744,5.07296 -2.05484,0.65162 -3.97468,1.57084 -4.26631,2.04271 -1.05,1.69892 1.546,2.07186 4.74131,0.68112 1.79359,-0.78065 6.41107,-2.67389 10.26107,-4.20721 7.06958,-2.81556 13.44355,-5.58013 23.5,-10.19262 6.05783,-2.77848 11.05297,-3.44881 11.71448,-1.57203 0.23605,0.66968 -0.75921,1.51099 -2.22175,1.87806 -1.45714,0.36572 -4.9766,1.82651 -7.82104,3.2462 -2.84443,1.41969 -5.84669,2.66965 -6.67169,2.7777 -0.825,0.10804 -5.775,2.0971 -11,4.42013 -5.225,2.32303 -11.75,4.98457 -14.5,5.91453 -4.00814,1.35543 -5.36349,2.42079 -6.83236,5.37055 -1.66662,3.34688 -2.20932,3.68259 -6,3.71151 -2.2922,0.0175 -5.01432,0.67288 -6.04915,1.45641 -1.03483,0.78353 -4.40983,1.91764 -7.5,2.52025 -3.09017,0.60261 -6.51849,1.49599 -7.61849,1.98528 -1.1,0.4893 -4.025,1.34217 -6.5,1.89527 -4.48517,1.00233 -8.1683,1.96001 -19.44656,5.05649 -5.26181,1.44465 -6.03861,1.9879 -6.746,4.71781 -0.9938,3.83521 -3.01714,5.58851 -5.95872,5.16345 -1.75818,-0.25405 -2.50353,-1.32515 -3.34966,-4.81358 -1.12847,-4.65242 -2.79249,-4.36173 -1.9401,0.33892 0.26583,1.46599 -0.23436,4.05331 -1.11155,5.7496 -0.87719,1.69629 -1.32713,3.35191 -0.99988,3.67916 0.32724,0.32725 3.39793,-0.42612 6.82373,-1.67415 3.42581,-1.24803 6.90374,-2.37557 7.72874,-2.50565 0.825,-0.13007 3.075,-1.06946 5,-2.08753 1.925,-1.01806 5.075,-2.18992 7,-2.60412 4.05673,-0.87289 14.95778,-4.92142 22.36612,-8.30651 7.41122,-3.38642 26.34576,-10.694 30.54512,-11.78856 1.97382,-0.51448 8.84342,-3.19317 15.26578,-5.95265 6.42237,-2.75948 12.27237,-5.12172 13,-5.24943 0.72764,-0.12771 3.32,-1.21771 5.76081,-2.42223 2.44081,-1.20451 5.22675,-2.19003 6.19098,-2.19003 0.96424,0 1.99002,-0.38325 2.27952,-0.85167 0.2895,-0.46842 2.67855,-1.65598 5.30901,-2.63903 2.63047,-0.98305 7.70766,-3.14814 11.28266,-4.81132 3.575,-1.66318 10.32344,-4.66204 14.99654,-6.66412 5.26505,-2.2557 8.62083,-4.28552 8.82332,-5.33701 C 823.9996,227.76358 823.60275,227 822.93799,227 821.40246,227 817,222.29889 817,220.65919 c 0,-1.59228 10.50578,-7.64926 13.33998,-7.69099 2.59447,-0.0382 4.59012,-1.53422 6.93319,-5.19739 0.96012,-1.50105 3.20393,-3.48306 4.98625,-4.40445 5.09052,-2.6316 10.74058,-7.54159 10.74058,-9.33372 0,-0.89795 -0.50975,-2.14239 -1.13278,-2.76542 -0.62303,-0.62303 -0.83984,-1.89619 -0.4818,-2.82923 0.5361,-1.39704 1.39785,-1.5681 4.88278,-0.96926 9.34329,1.60554 9.64906,1.50327 14.85515,-4.96873 2.65453,-3.3 6.08999,-7.8 7.63435,-10 1.68779,-2.40432 3.77461,-4.13825 5.23117,-4.34655 7.05941,-1.00959 18.01113,6.87564 18.01113,12.96799 0,3.49747 -2.92924,9.60266 -5.89359,12.28355 -1.15853,1.04774 -2.10641,2.47571 -2.10641,3.17327 0,0.69756 -1.125,2.60528 -2.5,4.23937 -2.62036,3.11413 -3.18726,5.63959 -1.5,6.68237 2.14263,1.32422 1.05691,5.5177 -1.75,6.75924 -3.29837,1.45892 -5.17498,3.61292 -5.2182,5.98956 -0.0175,0.96183 -1.5746,4.78683 -3.46025,8.5 -1.88565,3.71316 -3.7477,8.1012 -4.13789,9.7512 -0.39019,1.65 -1.05712,3.45 -1.48206,4 -1.77543,2.29791 -2.06099,8.00281 -0.50056,10 1.51947,1.94477 1.7074,1.84365 6.80579,-3.66199 2.88374,-3.1141 7.71817,-7.80554 10.74317,-10.42542 3.025,-2.61989 7.92186,-7.49699 10.8819,-10.83801 2.96005,-3.34102 9.73509,-10.58208 15.05564,-16.09125 5.32055,-5.50917 10.53322,-11.47167 11.5837,-13.25 C 930.47692,194.92263 934,193.80803 934,196.5 c 0,2.3902 1.43278,1.76324 4.57053,-2 3.57954,-4.29309 5.42947,-4.48356 5.42947,-0.55902 0,1.61754 0.42726,3.20505 0.94947,3.52779 1.42113,0.87831 2.5254,-6.3939 1.17583,-7.74347 -1.36169,-1.36169 -1.50684,-6.7253 -0.182,-6.7253 1.46991,0 4.0567,4.20859 4.0567,6.60006 0,1.18528 0.64362,2.68921 1.43026,3.34206 2.0333,1.68749 3.14756,-0.89381 3.96084,-9.17576 1.10934,-11.29667 1.11019,-11.29763 9.71977,-10.93665 12.43882,0.52153 20.7379,3.68881 27.30181,10.41951 l 3.91267,4.0121 -1.19041,9.11934 c -1.76094,13.48997 -5.12735,16.73848 -13.65401,13.17582 -2.38906,-0.99821 -6.81976,-1.55869 -12.35305,-1.56264 -5.68404,-0.004 -9.60169,-0.51405 -11.48196,-1.49469 -3.49681,-1.82375 -4.30864,-1.38777 -5.14364,2.76232 -0.35838,1.78119 -0.88831,4.07324 -1.17762,5.09344 -0.472,1.66438 -0.10483,1.78375 3.57466,1.1621 3.26677,-0.55192 4.10068,-0.39165 4.10068,0.7881 0,0.8145 -0.66693,1.73684 -1.48206,2.04963 -0.81514,0.3128 -1.77192,2.38136 -2.12618,4.59681 -0.35427,2.21544 -1.64057,5.04516 -2.85845,6.28827 -1.21788,1.2431 -2.64601,3.05575 -3.17361,4.02812 -0.52761,0.97236 -3.23208,4.12236 -6.00994,7 -3.92381,4.06474 -5.20073,6.19598 -5.72328,9.55246 -0.36995,2.37622 -1.36385,5.37534 -2.20868,6.66471 -0.84483,1.28937 -1.70138,4.15048 -1.90344,6.35804 -0.42643,4.65866 -1.47817,6.90913 -4.51205,9.65476 -2.12859,1.92635 -2.21708,1.92885 -3.55388,0.10067 -1.06929,-1.46234 -1.11663,-2.33953 -0.21513,-3.98672 2.12535,-3.88336 6.72609,-17.86855 6.17278,-18.76382 -0.30048,-0.4862 -1.75228,0.0412 -3.22621,1.17211 -1.47393,1.13087 -5.48223,4.09448 -8.90734,6.58581 C 911.84286,263.0101 896,278.1533 896,279.85071 c 0,0.65933 -1.13307,1.62958 -2.51793,2.15611 -1.38487,0.52652 -2.96738,2.13944 -3.5167,3.58427 -0.88414,2.32546 -0.19347,3.9345 6.01793,14.01989 3.85919,6.26611 7.0167,12.04469 7.0167,12.84129 0,0.79659 0.61143,1.80821 1.35873,2.24804 0.7473,0.43983 1.63032,2.82469 1.96226,5.29969 0.33194,2.475 1.3457,6.975 2.25281,10 0.9071,3.025 1.79383,9.325 1.97051,14 0.36212,9.58229 -0.55864,11.93487 -5.46685,13.96791 -1.6926,0.7011 -3.07746,1.85319 -3.07746,2.56019 0,0.70701 1.38375,4.36491 3.07499,8.12868 C 910.2743,380.22755 917,401.90632 917,407.09434 c 0,1.06304 0.38574,2.71419 0.85721,3.66923 2.41301,4.88797 4.55383,8.79002 5.06748,9.23643 2.12838,1.84976 7.08562,9.19289 7.60619,11.267 0.56565,2.25374 0.16386,2.68416 -3.9844,4.2684 -2.53741,0.96905 -4.96721,2.39398 -5.39954,3.16652 -0.43233,0.77253 -0.20164,4.19314 0.51266,7.60134 2.25787,10.77327 2.40884,10.41726 -5.63157,13.28021 -2.92708,1.04224 1.26735,2.3564 6.01317,1.88399 2.50344,-0.2492 15.55581,-0.68645 29.00526,-0.97167 13.44945,-0.28522 25.12854,-0.58434 25.95354,-0.66472 3.30672,-0.32216 5,0.24283 5,1.66833 0,1.04668 -0.98128,1.46743 -3.25,1.39353 -1.7875,-0.0582 -10.675,0.3941 -19.75,1.00518 -9.075,0.61108 -23.025,1.3384 -31,1.61627 -14.85369,0.51754 -30.85197,1.32352 -41.5,2.09072 -5.13596,0.37005 -36.4996,0.64559 -44.71744,0.39285 -1.49459,-0.046 -2.99716,-0.53616 -3.33903,-1.08932 -0.4114,-0.66566 -1.05847,-0.64317 -1.9136,0.0665 -0.7106,0.58975 -6.40804,1.25163 -12.66097,1.47085 -6.25293,0.21921 -13.00893,0.65693 -15.01335,0.97269 -2.69942,0.42526 -3.79328,0.18612 -4.21861,-0.92229 C 804.32117,467.67339 802.92365,467 801.53138,467 c -3.03923,0 -3.53865,-2.93705 -0.53138,-3.125 1.1,-0.0688 3.2375,-0.28164 4.75,-0.4731 10.06064,-1.27348 21.7194,-2.22983 22.35965,-1.83413 0.61878,0.38243 7.39351,0.50006 20.89035,0.36272 0.825,-0.008 6.02728,0.0652 11.56063,0.16365 5.53335,0.0984 10.94497,-0.29436 12.02582,-0.87282 1.29156,-0.69122 2.55898,-0.71944 3.69743,-0.0823 0.95273,0.53317 5.09313,1.14131 9.2009,1.35141 l 7.46867,0.38201 4.03429,-4.6862 c 4.30124,-4.99628 6.10517,-9.75432 6.62703,-17.47938 0.2285,-3.38244 -0.0815,-4.94868 -1.05312,-5.32155 -3.25504,-1.24907 -12.8717,-28.58999 -14.03788,-39.91078 -0.75276,-7.3075 -2.52161,-13.52726 -5.55728,-19.54087 -3.19823,-6.33566 -3.80483,-6.71457 -7.25167,-4.52973 -1.21815,0.77215 -4.08031,1.70376 -6.36035,2.07025 -3.86279,0.6209 -4.31537,0.43989 -6.63578,-2.6539 -1.36963,-1.82614 -3.46244,-5.25559 -4.65068,-7.621 l -2.16044,-4.30075 -6.20378,0.20516 c -3.41209,0.11283 -8.67879,1.08654 -11.70379,2.16378 -3.025,1.07725 -7.525,2.15934 -10,2.40466 -2.475,0.24532 -5.175,0.7159 -6,1.04573 -0.825,0.32983 -1.82406,0.53272 -2.22014,0.45088 -0.39608,-0.0818 -1.19941,0.74672 -1.78519,1.84124 -0.58577,1.09453 -1.6117,2.00208 -2.27985,2.01678 -0.66815,0.0147 -3.09721,1.70221 -5.3979,3.75 -7.01517,6.24405 -9.4571,8.22308 -10.15187,8.22746 -0.36578,0.002 -2.87882,1.1273 -5.58453,2.5 -2.70571,1.37269 -6.08071,2.49878 -7.5,2.5024 -1.41929,0.004 -3.70552,0.80189 -5.08052,1.77394 -4.17222,2.9495 -13,11.65312 -13,12.81715 0,0.60079 -0.81457,1.82952 -1.81015,2.73051 -1.67995,1.52033 -2.1906,1.4991 -7.09938,-0.29512 -2.90908,-1.06331 -6.25701,-2.52915 -7.43985,-3.25744 -1.18284,-0.72829 -4.73812,-2.17383 -7.90062,-3.21232 -3.19304,-1.04851 -5.75,-2.48296 -5.75,-3.22573 0,-0.73567 0.65502,-1.33758 1.45559,-1.33758 0.80058,0 3.02244,-1.06329 4.93748,-2.36288 1.91505,-1.29958 5.76003,-2.66508 8.54441,-3.03444 3.57596,-0.47437 5.06252,-1.11924 5.06252,-2.19614 0,-0.83852 0.43359,-1.2566 0.96353,-0.92908 0.52993,0.32752 1.6503,-0.20842 2.48969,-1.19099 9.13795,-10.69651 9.45046,-10.94724 16.27544,-13.05859 19.25847,-5.95773 25.53091,-10.06103 28.22017,-18.46105 1.1504,-3.59335 3.74261,-6.04005 9.05117,-8.54313 1.375,-0.64834 4.14547,-2.2014 6.15659,-3.45125 2.01113,-1.24985 5.83613,-3.57241 8.5,-5.16124 2.66388,-1.58883 5.66532,-3.60222 6.66987,-4.47419 1.00456,-0.87196 3.22771,-2.04701 4.94033,-2.61121 l 3.11387,-1.02581 0.31459,-9.32493 c 0.17302,-5.12871 0.76237,-10.16162 1.30967,-11.18426 C 847.55221,303.96818 848,300.82232 848,298 c 0,-2.82232 0.49045,-6.0479 1.0899,-7.16797 0.98719,-1.84459 2.71104,-10.94744 3.43618,-18.14495 0.15587,-1.54711 0.80876,-4.08125 1.45086,-5.63142 0.64211,-1.55017 1.02247,-4.33436 0.84526,-6.18708 -0.31584,-3.30208 -0.43078,-3.37906 -5.8222,-3.89944 -6.3338,-0.61134 -9.04944,-1.89323 -11.69,-5.51813 l -1.87938,-2.57998 -3.96531,1.99234 c -8.25105,4.14568 -28.18175,12.3383 -33.46531,13.7561 -6.7565,1.81305 -22.1983,7.7435 -27.17854,10.43797 -2.02319,1.09461 -4.04819,1.90804 -4.5,1.80762 -0.4518,-0.10042 -1.49646,0.0995 -2.32146,0.4443 -2.24011,0.93619 -15.23952,5.73969 -17.23785,6.36968 -2.05019,0.64634 -3.5599,-2.28129 -1.98734,-3.85385 0.5722,-0.5722 3.89446,-2.0651 7.38278,-3.31754 5.91469,-2.1236 18.44231,-6.75623 25.34241,-9.37147 1.65,-0.62537 3.79285,-1.59401 4.7619,-2.15252 0.96904,-0.55851 3.89404,-1.71365 6.5,-2.56699 2.60595,-0.85334 6.0881,-2.14869 7.7381,-2.87857 1.65,-0.72987 6.24028,-2.48184 10.20063,-3.89326 3.96034,-1.41143 8.01034,-2.9803 9,-3.48639 2.50867,-1.28289 10.15566,-4.62289 14.08759,-6.15308 1.80852,-0.70382 3.76358,-2.16789 4.34458,-3.2535 0.8843,-1.65234 0.45927,-2.58531 -2.60953,-5.72804 l -3.66589,-3.75422 -5.17869,2.75982 c -2.84828,1.51789 -8.10369,3.7878 -11.67869,5.04424 -3.575,1.25644 -7.38763,2.87886 -8.47251,3.60538 -1.08487,0.72652 -2.57524,1.32095 -3.31192,1.32095 -0.73668,0 -3.6808,1.10765 -6.54248,2.46144 -2.86168,1.35379 -6.99631,3.09579 -9.18807,3.8711 -2.19176,0.77531 -9.16002,3.65013 -15.48502,6.38847 -6.325,2.73835 -13.3,5.44695 -15.5,6.01913 -4.77339,1.24147 -9.41154,2.90059 -15.46844,5.53324 -8.15125,3.54297 -9.52428,4.05127 -10.3979,3.84932 -0.47649,-0.11014 -1.82649,0.42101 -3,1.18033 -1.17351,0.75933 -3.48366,1.71148 -5.13366,2.1159 -1.65,0.40441 -4.35,1.34526 -6,2.09076 -1.65,0.7455 -5.25,2.09336 -8,2.99523 -2.75,0.90187 -5.7875,2.35196 -6.75,3.22241 -0.9625,0.87046 -1.75,1.31471 -1.75,0.98723 0,-0.61415 -8.25607,2.13137 -20.5,6.81719 -10.7209,4.10295 -31.69815,11.4228 -34.5,12.03851 -1.375,0.30216 -2.9275,0.97246 -3.45,1.48956 -0.5225,0.5171 -1.6475,0.94653 -2.5,0.95429 -0.8525,0.008 -5.825,1.60107 -11.05,3.54069 -5.225,1.93962 -10.175,3.70145 -11,3.91519 -1.76905,0.45832 -13.13845,5.02415 -17.65113,7.0885 -1.73312,0.79283 -3.47745,1.44151 -3.87629,1.44151 -0.39885,0 -3.25584,1.2654 -6.34888,2.81199 -3.09303,1.5466 -9.6737,4.05956 -14.6237,5.58436 -4.95,1.5248 -10.575,3.66022 -12.5,4.74538 -3.79327,2.13833 -6.52194,3.35427 -18,8.02109 -4.125,1.67716 -9.87247,4.12664 -12.77215,5.44328 -2.89969,1.31665 -5.86805,2.3939 -6.59637,2.3939 -0.72831,0 -2.63084,0.65015 -4.22784,1.44478 -1.597,0.79463 -4.25402,1.6813 -5.90447,1.97037 -1.65046,0.28907 -4.80046,1.38609 -7,2.43781 -2.19955,1.05173 -5.57417,2.24022 -7.49917,2.6411 -1.925,0.40087 -5.75,1.73796 -8.5,2.97131 -2.75,1.23334 -11.975,4.58086 -20.5,7.43892 -8.525,2.85807 -17.13627,6.07381 -19.13615,7.1461 -1.99989,1.07228 -4.26015,1.94961 -5.02281,1.94961 -1.54342,0 -16.35802,5.4367 -19.07747,7.0011 -0.95504,0.54939 -2.43002,0.9989 -3.27773,0.9989 -0.84772,0 -4.79132,1.62115 -8.76357,3.60255 -7.30002,3.64133 -13.66414,6.22467 -17.09676,6.93996 -1.03096,0.21483 -2.86584,1.04017 -4.07751,1.83408 -1.21167,0.79392 -4.59956,2.15518 -7.52865,3.02502 -2.92909,0.86985 -6.85743,2.48533 -8.72963,3.58996 -1.87221,1.10463 -5.5158,2.52414 -8.09687,3.15447 -2.58107,0.63033 -5.908,1.75534 -7.39319,2.50001 -1.48519,0.74467 -3.51685,1.35395 -4.51481,1.35395 -0.99796,0 -3.51756,0.9128 -5.59912,2.02845 -2.08155,1.11565 -4.15584,1.79904 -4.60952,1.51865 -0.45368,-0.28039 -3.24393,0.82365 -6.20054,2.45343 -2.95662,1.62978 -6.2144,2.97139 -7.23952,2.98135 -1.02511,0.01 -3.50011,0.875 -5.5,1.92229 C 317.76162,429.76605 304.16262,436 303.1127,436 c -0.59546,0 -3.27668,1.35 -5.95828,3 -2.68159,1.65 -5.36459,3 -5.96222,3 -0.59763,0 -7.52593,3.13084 -15.39622,6.95742 -7.87029,3.82659 -17.28197,7.87549 -20.91485,8.99758 -3.63289,1.12208 -7.89382,3.05374 -9.46874,4.29257 -1.57492,1.23884 -3.00521,2.09506 -3.17841,1.90271 -0.17321,-0.19234 -2.65921,0.54599 -5.52445,1.64074 -6.91728,2.64296 -17.45579,6.17725 -21.33117,7.15382 -1.7169,0.43265 -5.0919,1.70465 -7.5,2.82668 -2.4081,1.12202 -6.89821,3.20744 -9.97803,4.63426 -3.07982,1.42682 -6.4114,2.59422 -7.40351,2.59422 -0.99211,0 -4.32226,1.19714 -7.40033,2.66031 -6.55727,3.11701 -15.10516,4.37355 -15.08118,2.21692 z m 749.77402,-36.3983 c 0.15914,-0.12335 -0.87535,-3.31855 -2.29885,-7.10045 -4.13763,-10.99267 -5.59211,-11.18889 -6.23718,-0.84141 -0.22392,3.59196 -1.04475,7.75306 -1.82406,9.24688 -0.7793,1.49383 -1.41969,3.02865 -1.42308,3.41073 -0.005,0.53331 10.36563,-3.61702 11.78317,-4.71575 z m 3.62888,-20.08592 c 2.30628,-0.885 1.95427,-2.41046 -1.34888,-5.8454 -5.42832,-5.64491 -9.43017,-16.57739 -11.53115,-31.50147 -0.61096,-4.33987 -4.00991,-15.51383 -6.55401,-21.54614 -4.36315,-10.34547 -3.84423,-9.74775 -7.82575,-9.01422 -9.15157,1.68603 -10.16496,3.88418 -5.76927,12.51422 1.26064,2.475 3.08033,8.1 4.04377,12.5 1.9653,8.97547 4.51575,19.23408 5.34524,21.5 0.69614,1.90164 0.67745,1.83415 1.66162,6 0.45478,1.925 1.66687,5.06834 2.69355,6.98519 1.02667,1.91686 1.86667,4.0278 1.86667,4.69098 0,1.87972 2.04193,2.75169 8,3.41629 3.025,0.33742 6.0257,0.67966 6.66821,0.76052 0.64252,0.0809 1.88002,-0.12612 2.75,-0.45997 z M 344.5,410.44066 c 1.1,-0.43441 2.37703,-1.41695 2.83785,-2.18343 0.48616,-0.80864 2.16514,-1.30396 4,-1.18004 5.71373,0.38586 7.71644,-0.053 8.33819,-1.82719 0.33729,-0.9625 1.96145,-3.18671 3.60923,-4.94269 1.87562,-1.99877 2.98976,-4.24249 2.97935,-6 -0.0264,-4.47011 -1.11342,-13.67919 -2.1692,-18.37814 -0.53404,-2.37683 -0.74545,-4.68641 -0.46982,-5.1324 0.90405,-1.46277 -2.21514,-1.90154 -6.20803,-0.87327 -2.15466,0.55488 -9.04655,2.39672 -15.31531,4.09298 C 330.45716,377.16753 328,377.25178 328,374.5 c 0,-1.60621 0.52627,-1.90047 5.25,-2.93553 2.02012,-0.44264 2.75,-1.20796 2.75,-2.88352 0,-4.33633 5.2941,-6.44136 8,-3.18095 1.30835,1.57647 5.53952,2.0541 6.36496,0.7185 0.26565,-0.42982 1.85408,-0.88597 3.52985,-1.01366 4.32749,-0.32975 8.11077,-1.93729 8.07254,-3.43009 -0.0179,-0.70111 -0.82897,-3.57868 -1.80227,-6.39459 -1.99824,-5.78127 -8.03986,-12.12237 -12.43589,-13.05233 -1.52394,-0.32239 -3.013,-0.97803 -3.30902,-1.45699 -0.69593,-1.12605 -7.50668,-1.10212 -9.29829,0.0327 -1.62049,1.0264 -0.64699,3.09649 1.45619,3.09649 1.09626,0 1.28515,0.68517 0.7581,2.75 -0.38606,1.5125 -0.6422,3.60924 -0.56919,4.65943 0.29518,4.24602 -1.49631,5.58142 -7.04452,5.25108 -3.93042,-0.23401 -5.30245,-0.72529 -5.54578,-1.98573 -0.58486,-3.02951 -1.68193,-1.75651 -3.08112,3.57522 -4.5031,17.15947 1.49577,41.97927 12.66221,52.38881 2.31902,2.16183 4.8863,2.11448 10.74223,-0.19815 z m -216.52812,-2.33307 c 2.71512,-1.3877 3.98637,-3.06411 5.83225,-7.69104 1.2982,-3.2541 3.42514,-7.04195 4.72654,-8.41744 l 2.36618,-2.50088 -3.77162,-3.74912 c -6.33056,-6.29279 -12.00024,-4.54897 -17.07212,5.25089 -1.8061,3.48975 -2.83285,16.92934 -1.46271,19.14627 0.75655,1.22413 4.65524,0.37691 9.38148,-2.03868 z M 141.60795,403.25 c 1.41307,-1.86148 1.91465,-9.25 0.62795,-9.25 -0.63791,0 -2.80684,4.26404 -4.95941,9.75 -0.74957,1.91035 2.81402,1.49898 4.33146,-0.5 z M 376.5,400.0407 c 2.2,-1.01308 5.8,-2.38683 8,-3.05278 2.2,-0.66595 5.03301,-1.85948 6.29558,-2.65229 1.26257,-0.79281 3.17507,-1.16233 4.25,-0.82116 1.07493,0.34117 1.95442,0.21221 1.95442,-0.28657 0,-0.49878 1.1584,-1.43467 2.57422,-2.07976 l 2.57423,-1.1729 -3.17372,-4.00715 C 395.85469,382.02873 395.56734,379 398.31363,379 c 0.75702,0 2.0929,0.7875 2.96863,1.75 0.87573,0.9625 3.19547,2.60836 5.15499,3.65747 3.50514,1.87663 3.62147,1.87663 7.19452,0 2.31567,-1.21623 4.14384,-3.17582 5.04482,-5.40747 0.77718,-1.925 1.81946,-4.4 2.31618,-5.5 2.38042,-5.27157 3.95671,-19.15469 2.45137,-21.59038 -0.53127,-0.85962 -2.89217,-0.22108 -12.93981,3.49975 -8.59206,3.1818 -9.73589,3.22896 -9.32388,0.3844 0.45098,-3.11364 8.74891,-6.63945 19.25474,-8.18138 2.7287,-0.40049 2.85206,-1.474 0.94831,-8.25226 C 419.30997,331.97734 414.7234,326 411.13192,326 c -1.78664,0 -2.14125,0.60734 -2.18955,3.75 -0.1076,7.00161 -1.37039,11.70875 -3.23758,12.06834 -1.61467,0.31095 -1.70641,-0.36005 -1.07857,-7.88843 0.60774,-7.28734 0.47745,-8.38094 -1.13938,-9.56319 -1.7627,-1.28892 -1.75947,-1.40796 0.0938,-3.45486 1.5517,-1.71385 1.98338,-3.96772 2.25347,-11.7659 0.18374,-5.30528 0.5029,-13.02096 0.70924,-17.14596 0.20634,-4.125 0.44115,-8.85 0.5218,-10.5 0.35475,-7.25761 -1.33955,-63.94712 -2.18178,-73 -0.51169,-5.5 -0.92592,-11.125 -0.9205,-12.5 0.005,-1.375 0.0524,-6.70104 0.10452,-11.83565 0.0521,-5.1346 -0.13806,-9.56837 -0.42251,-9.85282 -0.28444,-0.28445 -0.0974,-1.6212 0.4156,-2.97055 0.67105,-1.76501 0.50029,-3.28972 -0.60861,-5.4341 -1.3386,-2.58856 -1.96308,-2.91318 -4.74662,-2.46743 -1.76288,0.2823 -17.38023,0.74651 -34.70523,1.03157 -27.75345,0.45665 -31.64486,0.71486 -32.71797,2.17096 -0.66988,0.90896 -0.99428,2.01459 -0.72089,2.45694 1.06946,1.73043 3.97223,41.67282 5.04365,69.40108 0.75994,19.66725 1.05879,25.50749 1.89336,37 0.35946,4.95 0.73193,20.20727 0.8277,33.90504 0.15959,22.82274 0.31963,24.92636 1.91413,25.16005 5.77263,0.84601 15.50493,4.88723 17.49555,7.26481 3.55629,4.24762 6.93949,10.32012 8.3125,14.9201 1.43311,4.80135 1.42463,4.79884 9.29066,2.75 3.16739,-0.825 6.61576,-1.5 7.66305,-1.5 1.04728,0 2.94824,-0.47572 4.22435,-1.05715 2.24656,-1.0236 2.30814,-1.38297 1.94021,-11.3224 -0.35162,-9.49887 -0.18411,-10.65179 2.2437,-15.44285 1.44303,-2.84768 3.06611,-5.1776 3.60685,-5.1776 1.46794,0 1.1867,5.26858 -0.49625,9.29645 -0.81367,1.94738 -1.56746,6.95196 -1.6751,11.12128 -0.1709,6.61964 0.087,7.88154 2.03467,9.95472 2.09058,2.22532 2.12486,2.47966 0.54696,4.05756 -1.33883,1.33883 -1.5373,2.64416 -0.96955,6.37671 1.72376,11.33262 1.69375,13.36907 -0.19167,13.00601 -1.95796,-0.37703 -4.20004,-6.0833 -4.78277,-12.17251 -0.20316,-2.12289 -0.63415,-4.12457 -0.95777,-4.44818 -0.32362,-0.32362 -2.48672,-0.0396 -4.80688,0.63113 -2.32017,0.67074 -5.34349,1.4467 -6.71849,1.72434 -1.375,0.27765 -3.751,1.00323 -5.28001,1.6124 -2.56361,1.02138 -2.73624,1.42799 -2.21784,5.22384 0.30918,2.26394 0.83518,8.68701 1.16888,14.2735 0.56408,9.44323 0.44401,10.42054 -1.70798,13.90254 l -2.31472,3.74529 2.92584,-0.71121 C 371.18337,402.2027 374.3,401.05378 376.5,400.0407 Z M 396.67303,281.75 c -1.1847,-0.8664 -5.62904,-1.20359 -14.48232,-1.09876 C 367.82136,280.82139 364,280.35888 364,278.44957 c 0,-1.02179 3.05022,-1.33247 13.59814,-1.38505 7.47897,-0.0373 14.02582,-0.33212 14.54855,-0.65518 0.56686,-0.35034 0.44486,-1.19656 -0.30229,-2.09682 -1.04231,-1.25591 -3.47573,-1.42506 -14.48848,-1.00712 -7.27967,0.27627 -13.62179,0.74088 -14.09359,1.03247 -0.4718,0.29159 -1.50757,0.12859 -2.30172,-0.36221 -3.30218,-2.04086 1.34618,-3.21052 17.18896,-4.32523 L 394.5,268.5 394.6259,263 c 0.59643,-26.0566 0.23228,-39.00013 -1.39265,-49.5 -0.70645,-4.56491 -1.00719,-5 -3.45598,-5 -1.47994,0 -3.30729,-0.85212 -4.07678,-1.90108 -1.19655,-1.6311 -2.65892,-1.89177 -10.29754,-1.83555 -9.97202,0.0734 -16.1517,0.65205 -17.10097,1.60131 -0.34942,0.34943 -1.53531,0.63532 -2.63531,0.63532 -2.89634,0 -1.40203,1.05839 4.14615,2.93663 4.1896,1.41832 5.30429,1.4581 8.16371,0.29134 4.05522,-1.65471 9.02347,-0.0792 9.02347,2.86141 0,1.01571 1.21341,2.48252 2.69648,3.25957 1.93052,1.01151 2.99573,2.6539 3.75,5.78194 0.95451,3.9585 1.36434,4.39896 4.36086,4.68674 4.27213,0.4103 5.06107,2.62824 2.06917,5.81711 -1.95673,2.08557 -2.31758,3.38156 -2.04286,7.33703 0.21351,3.07431 -0.25511,5.94257 -1.30153,7.96611 -0.89934,1.73914 -1.35666,4.03959 -1.01626,5.1121 0.34901,1.09962 0.15475,1.95002 -0.44546,1.95002 -0.5854,0 -4.3805,3.15 -8.43355,7 -6.59896,6.26836 -7.78666,7 -11.36344,7 -7.28009,0 -13.32634,-1.23016 -14.21167,-2.89148 -0.47146,-0.88469 -1.15123,-11.73352 -1.51061,-24.10852 -0.53822,-18.53325 -1.05432,-28.77771 -1.70573,-33.85854 -0.0452,-0.3528 -0.029,-2.79308 0.0362,-5.42284 0.14121,-5.70154 2.37403,-7.35612 5.2065,-3.85817 1.73295,2.14011 1.99915,2.16433 10.84408,0.98671 11.86899,-1.58025 29.4555,0.1671 32.56784,3.23585 1.91425,1.88744 2.01091,3.47524 2.25451,37.03189 0.212,29.20361 0.50431,35.41653 1.75,37.195 3.17594,4.53429 0.51454,7.61845 -3.83148,4.4401 z m -31.89381,-17.97671 c 5.15492,0.0922 5.34009,-0.004 7.86495,-4.08944 1.42216,-2.30112 3.54651,-4.94705 4.72078,-5.87986 1.70888,-1.35747 1.88554,-1.94631 0.88505,-2.95 C 376.23235,248.8299 376.80915,247 379.46482,247 c 3.69059,0 5.08269,-3.31099 3.45972,-8.22865 -1.03428,-3.13391 -1.04852,-4.34318 -0.0696,-5.91069 1.03919,-1.66401 0.91451,-2.23449 -0.80114,-3.66568 -1.11753,-0.93224 -2.39187,-3.49498 -2.83188,-5.69498 -0.70637,-3.53174 -1.16238,-4.03567 -3.89534,-4.30473 -3.769,-0.37106 -7.32659,3.50353 -7.32659,7.97943 0,1.59774 -0.9,4.66912 -2,6.8253 -1.1,2.15618 -2.01497,4.50075 -2.03327,5.21016 -0.0672,2.60435 -3.45871,5.40706 -6.4719,5.34827 L 354.5,244.5 354.4051,253 c -0.12391,11.10532 0.17584,12.27146 2.9255,11.38123 1.19314,-0.38629 4.545,-0.65987 7.44857,-0.60794 z m 3.55387,-28.34764 c -0.86477,-2.25358 1.7064,-9.37642 3.78651,-10.48966 1.91067,-1.02255 3.45852,0.31957 2.3804,2.06401 -0.33992,0.55 0.30852,1 1.44098,1 1.50134,0 2.05902,0.64395 2.05902,2.37756 0,2.66885 -2.35931,5.13644 -3.96326,4.14515 -0.57798,-0.35721 -1.32083,0.0541 -1.65079,0.91391 -0.77609,2.02245 -3.27515,2.01569 -4.05286,-0.011 z M 357,241.55902 c 0,-0.24254 -0.45,-0.7191 -1,-1.05902 -0.55,-0.33992 -1,-0.14148 -1,0.44098 0,0.58246 0.45,1.05902 1,1.05902 0.55,0 1,-0.19844 1,-0.44098 z m 1.70973,-8.32045 c 2.0292,-4.28851 2.0797,-4.81377 0.61811,-6.4288 -1.35413,-1.49631 -1.40227,-2.21587 -0.32258,-4.82247 0.69797,-1.68505 2.10732,-3.51237 3.13189,-4.0607 2.79388,-1.49524 2.26665,-2.85993 -1.75388,-4.53982 -5.77965,-2.41489 -6.40798,-1.61905 -5.78018,7.32111 0.30095,4.28566 0.49066,9.92961 0.42157,12.54211 -0.0691,2.6125 0.23461,4.72944 0.67487,4.70432 0.44026,-0.0251 1.79485,-2.14721 3.0102,-4.71575 z M 148.46407,399.75 c 0.2762,-1.2375 0.62227,-4.5 0.76905,-7.25 0.23604,-4.42229 0.0358,-5 -1.73312,-5 -1.46886,0 -1.89203,0.53114 -1.59343,2 0.22362,1.1 0.44862,4.36259 0.5,7.2502 0.0962,5.40669 1.17067,6.97324 2.0575,2.9998 z m 11.31805,-3.42542 c 2.04483,-0.92149 4.39288,-1.78113 5.21788,-1.91033 2.05765,-0.32223 13.56067,-4.37514 18.79074,-6.62061 2.35991,-1.0132 5.50991,-2.00254 7,-2.19853 1.49009,-0.19598 4.85255,-1.29655 7.47213,-2.4457 2.61958,-1.14915 4.86958,-2.0129 5,-1.91943 0.13042,0.0935 2.38622,-0.43178 5.01289,-1.1672 8.36515,-2.3421 6.84972,-3.40389 -3.87775,-2.71697 -19.10077,1.2231 -35.02398,1.38313 -48.67682,0.48922 -15.44114,-1.011 -17.31093,-0.62409 -15.37513,3.18155 1.10526,2.17285 1.83157,2.44788 5.80774,2.1992 3.03273,-0.18968 4.9438,0.1969 5.74483,1.16208 1.39074,1.67573 1.79165,8.09786 0.70993,11.37214 -0.61281,1.85491 -0.37467,2.25 1.35617,2.25 1.15473,0 3.77255,-0.75394 5.81739,-1.67542 z m 610.43234,-7.6062 c 3.14296,-3.42011 5.58067,-6.66838 5.41714,-7.21838 -0.66458,-2.23517 -3.37754,-1.27098 -7.741,2.75116 -7.27347,6.70451 -8.17294,7.23139 -12.8727,7.54041 -7.04375,0.46313 -6.91991,2.08708 0.25067,3.28698 6.82291,1.14172 8.8412,0.28284 14.94589,-6.36017 z m -330.90404,-13.6288 c 0.51308,-0.51308 -0.67315,-1.94348 -2.82352,-3.40469 -2.03959,-1.38594 -4.63273,-4.01951 -5.76255,-5.85239 l -2.05422,-3.3325 -0.84461,3.5 c -0.46454,1.925 -1.27457,5.075 -1.80006,7 -0.5255,1.925 -1.22066,4.49401 -1.5448,5.70891 l -0.58935,2.20891 7.26715,-2.47172 c 3.99694,-1.35944 7.66532,-2.86988 8.15196,-3.35652 z M 794.16977,376.75 c 8.71834,-4.63534 8.89518,-4.75331 15.42023,-10.28676 3.2505,-2.75653 6.6641,-5.59081 7.58577,-6.2984 0.92168,-0.70759 4.29518,-1.48565 7.49668,-1.72902 3.49747,-0.26587 7.98802,-1.50276 11.25015,-3.09878 4.05873,-1.98575 6.89944,-2.64243 11.25332,-2.60142 3.20325,0.0302 5.82408,-0.19302 5.82408,-0.49599 0,-0.30297 -1.12445,-2.02507 -2.49877,-3.8269 -2.99966,-3.93276 -4.55955,-7.75506 -4.99384,-12.23676 -0.17716,-1.82821 -0.55221,-3.55412 -0.83344,-3.83535 -0.28123,-0.28123 -3.3689,1.70637 -6.86148,4.41688 -3.49259,2.71052 -8.81668,5.73544 -11.83132,6.72204 -9.7802,3.20079 -13.35165,5.86859 -15.36983,11.48094 C 808.47355,360.90544 805.47379,365 803.25616,365 c -0.87927,0 -2.30911,0.61738 -3.17742,1.37195 -0.86831,0.75457 -5.40374,2.64268 -10.07874,4.1958 -4.675,1.55311 -9.175,3.4322 -10,4.17576 -1.3176,1.18752 -1.196,1.58661 1,3.28197 3.51021,2.70995 6.1557,2.45374 13.16977,-1.27548 z m -341.14581,-8 c 5.62883,-3.81503 7.21698,-7.88808 6.82024,-17.49157 -0.35747,-8.65277 -1.55703,-10.98582 -4.79032,-9.31674 -2.35721,1.21683 -12.78836,4.70177 -19.80388,6.61627 -3.96513,1.08206 -6.25,2.22941 -6.25,3.13843 0,2.65316 4.30377,11.78025 6.87505,14.58007 4.49408,4.89351 11.98436,5.9739 17.14891,2.47354 z M 876.5,365.13747 c 3.20025,-1.42831 15.61957,-7.20428 20.22623,-9.40681 8.8973,-4.25397 9.5398,-6.88874 5.78687,-23.73066 -0.34932,-1.56766 -2.00037,-6.01707 -3.52518,-9.5 -0.96314,-2.2 -2.3236,-5.575 -3.02324,-7.5 -1.29459,-3.56199 -9.60667,-20.62335 -14.25581,-29.26147 -3.45934,-6.42747 -2.32441,-10.48394 6.21432,-22.21104 2.79224,-3.83488 5.07681,-7.32238 5.07681,-7.75 0,-0.42762 0.59336,-0.77749 1.31857,-0.77749 0.72522,0 1.97314,-1.38212 2.77316,-3.07138 0.80002,-1.68926 4.45179,-6.30176 8.11505,-10.25 C 921.56504,224.04777 924,220.71226 924,215.9349 c 0,-4.197 -3.91247,-1.91983 -10.85017,6.3151 -3.82271,4.5375 -14.79572,15.9 -24.38446,25.25 -9.58874,9.35 -17.84612,17.675 -18.34972,18.5 -0.50361,0.825 -1.96259,2.38842 -3.24219,3.47426 l -2.32654,1.97425 -1.85758,-2.46264 -1.85757,-2.46264 -1.06589,2.80348 c -1.50858,3.96787 -1.32844,5.64246 0.68412,6.35991 4.02026,1.43316 4.33398,2.42487 1.74168,5.50564 -1.37043,1.62866 -2.49168,3.37666 -2.49168,3.88447 0,0.5078 -0.675,0.92327 -1.5,0.92327 -1.98353,0 -1.92568,2.6624 0.0823,3.7861 1.02379,0.57294 1.46499,1.91408 1.25,3.79969 -0.26767,2.34762 -0.81833,2.91744 -2.83227,2.93084 -2.15429,0.0143 -2.67952,0.70575 -3.79816,5 -0.71399,2.74085 -1.06786,7.16168 -0.78638,9.82407 0.35919,3.39735 0.0507,5.54447 -1.03476,7.20103 -1.02786,1.56872 -1.28369,3.13138 -0.76278,4.65931 0.43107,1.26443 0.82197,2.52396 0.86866,2.79896 0.0467,0.275 1.60056,3.63445 3.45305,7.46543 3.17767,6.57148 4.05307,9.12698 6.00657,17.53457 0.44727,1.925 2.20871,6.50857 3.91431,10.1857 l 3.10109,6.6857 3.2692,-0.92065 c 1.79806,-0.50636 4.1692,-1.32234 5.2692,-1.81328 z m -22.03666,-39.25298 c -0.50446,-1.58939 -0.18091,-2.61784 1.12367,-3.57177 2.58505,-1.89024 3.91299,-1.11966 3.91299,2.27061 0,3.78362 -3.92679,4.79806 -5.03666,1.30116 z m -0.1572,-18.5291 C 853.58718,305.48182 856.37078,303 859.19113,303 c 1.34319,0 1.80887,0.77233 1.80887,3 0,2.67357 -0.32985,3 -3.03138,3 -1.89054,0 -3.2689,-0.61894 -3.66248,-1.64461 z M 467,365.5 c 1.375,-0.78602 3.4,-1.45197 4.5,-1.47988 4.71635,-0.11967 4.87333,-1.63314 0.62357,-6.01223 -2.51002,-2.58641 -4.51977,-5.84064 -5.16903,-8.36981 -1.89429,-7.37919 -2.60489,-9.14431 -3.53787,-8.78808 -0.50417,0.1925 -0.75997,0.8675 -0.56844,1.5 0.19152,0.6325 0.59107,4.60455 0.88787,8.82678 0.40549,5.76828 0.13447,8.68942 -1.09013,11.75 -1.53232,3.82966 -1.52562,4.0711 0.11213,4.03778 0.95804,-0.0195 2.8669,-0.67854 4.2419,-1.46456 z m 23.98832,-9.28946 c 2.66794,-2.16037 3.42679,-7.8444 2.29598,-17.19758 -0.81537,-6.74403 -2.06129,-8.07999 -6.09271,-6.53298 -0.93038,0.35701 -1.80202,0.62561 -1.93698,0.59688 -0.13497,-0.0287 -2.60997,0.79766 -5.5,1.83642 -2.89004,1.03876 -6.49211,2.16679 -8.00461,2.50674 -3.41472,0.76748 -3.53471,2.86797 -0.65156,11.40545 2.4713,7.31792 4.88337,9.07484 12.54078,9.13449 3.49491,0.0272 5.84627,-0.5325 7.3491,-1.74942 z m 11.33634,-2.86853 C 503.22592,352.44075 501.07358,350 499.37756,350 498.6199,350 498,350.9 498,352 c 0,1.9456 2.83982,2.82684 4.32466,1.34201 z M 858,349.72251 c 0,-0.70263 -0.7209,-2.30673 -1.602,-3.56467 -0.8811,-1.25795 -1.35038,-2.53879 -1.04284,-2.84633 0.30753,-0.30753 -0.35803,-2.35697 -1.47903,-4.55431 -1.35707,-2.66009 -2.37193,-3.6614 -3.03692,-2.99641 -0.92252,0.92252 0.51009,5.16678 4.38437,12.98921 1.21673,2.45665 2.77642,3.00297 2.77642,0.97251 z m -343.48197,-1.73747 c 1.84875,-1.53433 2.03038,-13.42256 0.29364,-19.2193 -1.11,-3.70484 -1.39388,-3.93294 -4.3065,-3.46029 -3.05154,0.4952 -7.98079,2.53061 -12.0392,4.9713 -1.76369,1.06067 -1.93358,1.80673 -1.27823,5.61331 0.73383,4.2625 1.47837,5.51763 6.76836,11.40986 2.02553,2.25613 3.15138,2.714 5.79685,2.35749 1.80571,-0.24335 3.94999,-0.99591 4.76508,-1.67237 z M 442.5,340.83532 c 11.34746,-3.27197 15.5014,-4.92735 15.47776,-6.16803 C 457.96553,334.02528 457.07554,332.375 456,331 c -1.07554,-1.375 -1.96553,-2.97456 -1.97776,-3.55458 C 453.99182,326.0028 447.48432,319 446.17415,319 c -1.66649,0 -2.32709,1.72291 -2.7564,7.18894 C 443.0328,331.09019 441.71399,334 439.87756,334 439.3949,334 439,331.3 439,328 c 0,-4.49868 -0.35309,-6 -1.41111,-6 -2.18187,0 -6.43561,5.66604 -7.16246,9.54048 -0.35924,1.91489 -1.05214,3.7282 -1.53979,4.02958 -1.02647,0.6344 -1.17283,4.52057 -0.25985,6.89976 0.71229,1.85619 2.49606,1.64604 13.87321,-1.6345 z m 94.64809,-1.85397 c 1.32969,-1.57425 1.46078,-2.67858 0.67855,-5.71628 -0.53325,-2.07079 -1.36008,-5.90135 -1.8374,-8.51236 -0.47732,-2.61102 -1.13012,-5.17164 -1.45066,-5.69028 -0.60832,-0.98429 -6.22952,0.47512 -7.98858,2.07405 -0.5225,0.47494 -1.895,0.86352 -3.05,0.86352 -4.60593,0 -5.44465,3.08968 -2.90866,10.71505 2.91034,8.75101 3.8566,9.61091 9.75753,8.86695 3.27377,-0.41275 5.75179,-1.36057 6.79922,-2.60065 z m 8.92608,-2.28086 C 546.03338,336.31522 545.1,335.1 544,334 l -2,-2 v 3.46778 c 0,3.08905 0.22652,3.38398 2.07417,2.70049 1.14079,-0.42201 2.04079,-1.08251 2,-1.46778 z M 464.86542,333.25 c 0.51469,-0.9625 0.93552,-3.36722 0.93519,-5.34382 -7.7e-4,-4.52476 3.37684,-11.23243 7.69761,-15.28686 3.25636,-3.05563 3.33637,-3.33371 3.91843,-13.61932 0.3268,-5.775 0.81944,-12.525 1.09474,-15 0.27531,-2.475 0.68597,-11.57078 0.9126,-20.21284 0.22662,-8.64205 0.71152,-16.1974 1.07754,-16.78964 0.36603,-0.59225 0.86217,-16.92147 1.10254,-36.28717 0.24037,-19.36569 0.50137,-37.13927 0.58,-39.49684 0.0786,-2.35756 -0.26812,-4.68003 -0.77056,-5.16103 -0.50243,-0.481 -4.93079,-1.16645 -9.84081,-1.52322 -4.91001,-0.35677 -9.67476,-1.0487 -10.58833,-1.53762 -0.91356,-0.48893 -2.63048,-0.63544 -3.81537,-0.32558 -2.08132,0.54428 -2.15276,1.0456 -2.10747,14.79056 0.0258,7.82496 -0.42186,16.21084 -0.99477,18.63529 -0.5729,2.42445 -1.9535,16.33309 -3.06798,30.90809 -1.11449,14.575 -2.27465,29.75586 -2.57814,33.73525 -0.30348,3.97938 -0.94825,8.61763 -1.43282,10.30722 -0.48457,1.68959 -0.52942,4.02247 -0.0997,5.18418 0.42974,1.1617 0.39193,3.94845 -0.084,6.19277 -0.74477,3.51193 -1.7641,16.86305 -2.18035,28.55808 -0.12415,3.48821 1.03859,4.58183 9.17262,8.62732 1.50869,0.75035 5.61651,8.64507 6.5796,12.64518 0.74807,3.10702 3.08444,3.62744 4.48943,1 z m 5.38943,-71.5 c -1.15931,-1.46372 -5.90143,-20.21552 -6.76478,-26.75 -1.22007,-9.23444 -1.60026,-11 -2.36872,-11 -0.43341,0 -0.80915,0.5625 -0.83497,1.25 -0.16758,4.46144 -1.48364,19.63903 -1.86428,21.5 -0.25311,1.2375 -1.12663,2.25 -1.94115,2.25 -1.24951,0 -1.49946,-2.8521 -1.59937,-18.25 -0.0651,-10.0375 -0.0392,-18.66515 0.0575,-19.17255 0.0968,-0.5074 0.48756,-3.38407 0.86843,-6.39259 0.77917,-6.15482 2.90051,-8.4728 5.98891,-6.54407 0.99184,0.61942 4.39394,1.70596 7.56024,2.41455 3.88379,0.86915 6.11026,1.94862 6.84297,3.31769 0.72551,1.35562 0.85512,6.02949 0.39041,14.07816 -0.38261,6.62685 -0.93195,18.79494 -1.22075,27.04021 C 474.89114,259.14266 474.14885,263 472,263 c -0.41531,0 -1.20063,-0.5625 -1.74515,-1.25 z m 2.37519,-33.91187 0.4076,-20.33943 -4.00307,-1.24935 c -5.73187,-1.7889 -5.99724,-1.66729 -5.45679,2.50065 0.26745,2.0625 0.68624,5.775 0.93066,8.25 1.21011,12.25365 2.05964,18.18022 3.44023,24 0.58713,2.475 1.31378,5.57759 1.61478,6.89464 0.38414,1.68091 0.86197,2.07994 1.60313,1.33878 0.64326,-0.64326 1.21515,-9.00404 1.46346,-21.39529 z m -46.25753,102.89188 c 0.7944,-4.38085 5.76381,-10.4621 9.87749,-12.08746 3.22049,-1.27244 3.77252,-1.95193 3.90951,-4.8121 0.0877,-1.83175 0.31849,-5.80545 0.51279,-8.83045 0.1943,-3.025 0.55619,-8.65 0.8042,-12.5 0.24801,-3.85 0.70457,-9.11347 1.01457,-11.69659 0.64715,-5.39236 2.76242,-29.12276 5.2416,-58.80341 0.94179,-11.275 1.72471,-29.23093 1.73984,-39.90207 l 0.0275,-19.40207 -15.5,0.0238 c -8.525,0.0131 -17.6601,0.15314 -20.30021,0.31121 l -4.80021,0.28741 0.57664,28.09085 c 0.31715,15.44997 0.73349,50.53434 0.9252,77.96526 l 0.34857,49.87441 4.26574,3.37559 c 2.34615,1.85658 4.56954,3.3756 4.94086,3.3756 0.37132,0 1.70341,1.82958 2.9602,4.06574 2.54015,4.51958 2.74933,4.55979 3.45572,0.66427 z m 7.15944,-64.67831 c -0.35999,-0.58247 -1.70915,-0.79434 -2.99815,-0.47083 -1.87452,0.47048 -2.61825,0.0208 -3.7156,-2.24633 -1.06951,-2.20965 -2.0274,-2.81608 -4.34508,-2.75083 -1.63522,0.046 -3.70255,0.40941 -4.59408,0.80748 -2.64464,1.18082 -3.26734,-2.37471 -0.962,-5.49285 1.1825,-1.59941 1.8186,-3.6718 1.55148,-5.0546 -0.24902,-1.28906 -0.53668,-11.64285 -0.63925,-23.00844 -0.22918,-25.39483 -0.42025,-24.9115 10.25704,-25.9466 8.73537,-0.84685 11.82288,-0.30841 12.76015,2.22528 0.60053,1.62338 -0.002,12.35998 -1.20014,21.38602 -0.35471,2.67217 -0.90178,11.5766 -2.08889,34 -0.27589,5.21113 -0.75397,7.07804 -1.87077,7.30537 -0.8251,0.16795 -1.79472,-0.1712 -2.15471,-0.75367 z m 0.52987,-18.8017 c 0.034,-5.9125 0.49662,-14.125 1.02804,-18.25 0.53141,-4.125 1.22754,-10.75784 1.54695,-14.73964 0.64554,-8.04739 -0.11378,-9.17011 -4.95666,-7.32885 l -2.66476,1.01314 0.50918,15.77767 c 0.28004,8.67773 0.55559,19.37768 0.61232,23.77768 0.097,7.52414 0.94317,10.5 2.98555,10.5 0.48266,0 0.90538,-4.8375 0.93938,-10.75 z m -8.38577,-11.73899 C 425.49966,223.69206 425.0504,213.71706 424.67767,213.34434 424.30495,212.97162 424,211.54167 424,210.16667 c 0,-1.375 -0.3375,-2.1626 -0.75,-1.75021 -0.78971,0.78948 -1.34045,46.54141 -0.5758,47.83354 0.24411,0.4125 1.09154,0.75 1.88319,0.75 1.21777,0 1.38999,-3.30818 1.11866,-21.48899 z m 129.20078,94.61408 c 1.22013,-2.43742 0.68852,-6.08562 -1.65756,-11.37509 C 551.50538,314.88586 550.6395,314 548.57647,314 544.96648,314 538,316.97519 538,318.51691 c 0,1.56751 8.39245,12.04371 10.66862,13.31751 2.11282,1.1824 5.18394,0.33681 6.20821,-1.70933 z m -79.80309,0.97273 c 0.57048,-4.62527 0.4939,-14.247 -0.1164,-14.62419 -0.44021,-0.27206 -1.4493,0.74758 -2.24245,2.26586 -0.79314,1.51828 -2.11545,4.00119 -2.93846,5.51757 -0.82301,1.51638 -1.28794,3.84746 -1.03318,5.18018 0.36817,1.92595 1.05757,2.40622 3.35998,2.34076 1.59322,-0.0453 2.92995,-0.35138 2.97051,-0.68018 z m 89.48513,-1.56602 c 1.86259,-1.40879 1.83225,-1.46948 -0.74985,-1.5 -2.71535,-0.0321 -4.29507,1.14882 -3.11517,2.32872 0.95562,0.95562 1.72364,0.79095 3.86502,-0.82872 z m -76.45809,-2.66828 c 5.17494,-1.73017 5.3888,-2.35241 2.50166,-7.27894 -2.65165,-4.52469 -5.8654,-7.15813 -7.50151,-6.14696 -2.718,1.67982 -5.28075,12.04923 -3.43426,13.89571 1.0047,1.0047 4.62741,0.8029 8.43411,-0.46981 z M 568.23772,323.75 c 0.24843,-0.6875 -0.18453,-4.0625 -0.96213,-7.5 -1.30652,-5.77564 -1.6173,-6.24759 -4.09471,-6.2182 -6.56428,0.0779 -8.00734,5.2967 -3.10808,11.24036 3.10085,3.76186 7.24633,5.01991 8.16492,2.47784 z M 506,322 c 1.375,-0.46059 3.7375,-1.10758 5.25,-1.43777 3.29389,-0.71907 3.42325,-1.80799 0.67353,-5.66962 C 509.59609,311.62401 508,311.89511 508,315.55902 508,317.06211 507.42366,318 506.5,318 c -1.04762,0 -1.5,-1.05556 -1.5,-3.5 0,-3.98591 -1.70336,-4.59025 -4.43383,-1.57311 -1.83184,2.02415 -3.79874,8.88779 -2.94351,10.27158 0.50351,0.8147 3.75684,0.34927 8.37734,-1.19847 z m 71.51838,-4.75 c -0.83151,-5.57299 -3.02405,-11.25 -4.34491,-11.25 -1.2803,0 -2.8357,2.23491 -2.60982,3.75 0.10249,0.6875 0.24428,2.2625 0.31509,3.5 0.18418,3.21904 3.79992,8.75 5.72011,8.75 1.37526,0 1.51813,-0.738 0.91953,-4.75 z M 529.25,316.11252 c 2.22947,-0.86181 2.7471,-1.68288 2.73469,-4.33777 -0.0254,-5.42495 -1.09122,-6.21354 -5.54217,-4.1005 -4.03082,1.91358 -8.09459,7.46166 -6.89139,9.40848 0.75748,1.22563 5.15677,0.78556 9.69887,-0.97021 z M 587,314.12212 C 587,310.31566 584.30866,304 582.68658,304 c -2.69936,0 -3.46881,2.01524 -2.41488,6.32471 C 581.517,315.41665 582.66758,317 585.12244,317 586.52425,317 587,316.27077 587,314.12212 Z m -90.96908,-1.49456 c 0.017,-0.62016 2.02855,-2.63229 4.4701,-4.4714 3.86489,-2.91126 4.43239,-3.81683 4.38664,-7 -0.13715,-9.54465 1.65749,-58.81169 2.37343,-65.15616 0.031,-0.275 -0.20797,-1.175 -0.53112,-2 -0.32316,-0.825 -0.5071,-2.625 -0.40876,-4 0.14218,-1.98808 -0.23075,-2.43169 -1.82121,-2.16643 -1.1,0.18347 -2.37762,0.69609 -2.83915,1.13916 -0.46154,0.44307 -1.09093,6.27024 -1.39866,12.94928 -0.30772,6.67904 -0.98181,12.40471 -1.49798,12.72371 -1.95681,1.20938 -3.1062,-1.79969 -2.87272,-7.52067 0.13807,-3.38291 -0.2158,-6.20745 -0.82484,-6.58386 -0.68347,-0.42241 -1.07156,0.70912 -1.0803,3.14979 -0.0188,5.23414 -0.96527,8.30902 -2.55767,8.30902 -2.00894,0 -2.80261,-5.94779 -2.86896,-21.5 -0.0494,-11.57565 -0.31237,-14 -1.51872,-14 -2.24607,0 -2.82854,4.93871 -3.53689,29.98911 -0.83738,29.61337 -1.279,40.37512 -2.0112,49.01089 -0.32643,3.85 -0.68337,8.11978 -0.79321,9.48839 -0.15031,1.87293 0.30535,2.51686 1.84228,2.60349 3.11659,0.17566 6.09245,2.08598 8.48608,5.44753 1.73015,2.42977 2.44993,2.80878 3.56954,1.87959 0.77132,-0.64014 1.41631,-1.67129 1.43332,-2.29144 z M 593,314.55902 c 0,-0.79254 -0.45,-1.7191 -1,-2.05902 -0.55,-0.33992 -1,0.30852 -1,1.44098 0,1.13246 0.45,2.05902 1,2.05902 0.55,0 1,-0.64844 1,-1.44098 z m 11.38701,-1.37619 c 0.27777,-0.44945 -0.17732,-2.79772 -1.01131,-5.21839 -0.87384,-2.53635 -1.26168,-5.75866 -0.91534,-7.60485 0.77321,-4.12152 -0.46424,-4.80225 -4.89168,-2.69095 -3.85622,1.8389 -4.43989,3.36343 -2.04779,5.3487 0.83649,0.69422 2.74899,3.44886 4.25,6.12142 2.70136,4.8098 3.63653,5.62908 4.61612,4.04407 z m -77.55106,-9.83359 c 1.83477,-0.34849 3.49496,-1.13213 3.68932,-1.74143 0.19435,-0.6093 0.62796,-6.50781 0.96357,-13.10781 0.33561,-6.6 0.79564,-15.15 1.02228,-19 1.66464,-28.27702 1.99285,-54.23327 0.74606,-59 -0.43158,-1.65 -0.5535,-11.38959 -0.27093,-21.64354 L 533.5,170.21292 528,169.52597 c -3.025,-0.37782 -7.48,-0.89089 -9.90001,-1.14016 -2.42,-0.24926 -4.75141,-0.67038 -5.1809,-0.93582 -1.83339,-1.13309 -2.25459,3.1635 -2.51869,25.6922 -0.27021,23.05062 0.66273,31.79346 1.93677,18.15001 0.34157,-3.65772 1.07119,-7.10056 1.62139,-7.65076 1.63057,-1.63057 10.49057,3.75387 10.78055,6.55163 0.13151,1.26881 0.35651,12.76948 0.5,25.55705 0.18785,16.74117 -0.0548,23.25008 -0.86667,23.25 -2.42391,-2.5e-4 -3.79101,-3.4571 -4.09234,-10.34787 -0.17202,-3.93374 -0.52723,-7.74327 -0.78937,-8.46563 -0.89002,-2.45262 -2.58575,-0.0276 -2.10661,3.01264 0.26213,1.66323 0.004,5.70898 -0.57437,8.99054 -0.96454,5.47577 -1.23509,5.92026 -3.28961,5.40461 -2.09168,-0.52498 -2.28224,-0.15267 -2.90309,5.67187 -0.36545,3.42854 -0.916,12.53372 -1.22344,20.23372 -0.30743,7.7 -0.68121,15.8 -0.83062,18 -0.23159,3.41026 0.25833,4.55853 3.32299,7.78826 l 3.59463,3.78826 4.0097,-4.54683 c 2.69456,-3.05552 5.10384,-4.75465 7.34564,-5.18045 z m 17.41405,8.21938 c 3.33087,-0.95134 3.46295,-1.95584 0.52749,-4.01192 -3.1631,-2.21552 -5.48619,-1.93091 -7.34063,0.89932 -2.72308,4.15594 -0.45989,5.18988 6.81314,3.1126 z m 69.97673,-1.12868 c 0.30803,-0.30803 -0.11393,-1.91109 -0.93768,-3.56235 -0.8424,-1.68863 -1.2857,-4.39707 -1.01313,-6.18994 0.53883,-3.54424 -0.83136,-7.08044 -2.37407,-6.12699 -0.91738,0.56697 -0.74273,3.91777 0.68745,13.18934 0.45119,2.92495 2.14777,4.1796 3.63743,2.68994 z m -50.25133,-5.65476 c 0.0135,-0.39315 -0.93023,-1.22582 -2.09723,-1.85038 -1.74827,-0.93565 -2.47697,-0.78044 -4.13895,0.88154 -1.16172,1.16172 -1.76014,2.68675 -1.41115,3.59621 0.54583,1.4224 0.95409,1.40586 4.11434,-0.16673 1.92961,-0.9602 3.51945,-2.06749 3.53299,-2.46064 z M 553,305 c 0,-0.55 -0.45,-1 -1,-1 -0.55,0 -1,0.45 -1,1 0,0.55 0.45,1 1,1 0.55,0 1,-0.45 1,-1 z m 36.36163,-1.5 c -0.31659,-0.825 -0.75246,-1.5 -0.96862,-1.5 -0.21615,0 -0.39301,0.675 -0.39301,1.5 0,0.825 0.43588,1.5 0.96862,1.5 0.53273,0 0.70959,-0.675 0.39301,-1.5 z M 633,304.62244 c 0,-0.20765 -0.675,-0.93775 -1.5,-1.62244 -1.22851,-1.01957 -1.5,-0.95124 -1.5,0.37756 0,0.89234 0.675,1.62244 1.5,1.62244 0.825,0 1.5,-0.1699 1.5,-0.37756 z m -13.01531,-7.94576 c 0.0129,-4.05768 -0.26248,-4.7707 -1.73469,-4.49181 -2.15925,0.40903 -2.80099,5.23572 -1.24149,9.33751 1.50821,3.96689 2.95568,1.61017 2.97618,-4.8457 z m -73.05656,3.86049 2.61537,-1.35246 0.36715,-25.34236 c 0.64218,-44.32651 -0.15925,-97.83517 -1.49697,-99.94778 -0.48568,-0.76701 -0.88995,-1.84457 -0.89837,-2.39457 -0.022,-1.43629 -3.70473,-1.75868 -6.7713,-0.59277 l -2.6249,0.99798 -0.085,12.2974 c -0.0468,6.76356 -0.12874,16.34739 -0.18216,21.29739 -0.17296,16.02492 0.13127,23.62842 0.92576,23.1374 0.42773,-0.26435 0.90828,-3.77841 1.0679,-7.80902 0.30724,-7.75798 1.29893,-10.08259 3.40442,-7.98026 1.31439,1.31241 2.72486,26.12933 1.72242,30.30562 -0.8231,3.42911 -2.72423,3.30193 -4.93877,-0.33038 l -2.02617,-3.32336 -0.004,3.16667 c -0.002,1.74166 0.55876,3.35598 1.24626,3.58738 0.95797,0.32242 0.97786,0.75073 0.0851,1.83333 -1.23648,1.49946 -1.70547,5.89803 -3.3493,31.41262 -0.56696,8.8 -1.29619,17.75217 -1.62051,19.89371 l -0.58968,3.89371 5.26856,-0.6989 c 2.89771,-0.38439 6.44548,-1.3075 7.88393,-2.05135 z m 26.72679,0.9197 c 0.32569,-0.84872 0.32244,-1.81284 -0.007,-2.1425 -0.86466,-0.86466 -3.7309,1.74199 -3.07767,2.79894 0.85349,1.38097 2.43195,1.04509 3.08489,-0.65644 z M 644.25,300.81163 c 3.14921,-1.20732 3.39808,-2.02888 1.17378,-3.87488 -1.25491,-1.04149 -1.73396,-1.0529 -2.3501,-0.056 -0.42564,0.6887 -1.40385,1.34741 -2.17379,1.46381 -2.31569,0.35009 -3.89989,1.68321 -3.89989,3.2818 0,1.56997 1.45652,1.40629 7.25,-0.81477 z m -17.48862,-4.20539 c -1.40859,-4.23014 -2.55359,-5.31131 -3.37047,-3.18256 -0.90365,2.35487 2.43906,9.46947 3.581,7.62177 0.4531,-0.73314 0.35837,-2.73078 -0.21053,-4.43921 z m -59.2913,-3.15557 c 1.73496,-19.39516 2.4219,-69.06492 1.01642,-73.49319 -0.83347,-2.62603 -2.33981,-33.27764 -1.77938,-36.20748 0.33339,-1.74286 1.16229,-2.75 2.26333,-2.75 1.48832,0 1.72255,0.96739 1.63436,6.75 -0.12427,8.14867 1.04386,27.30349 1.98271,32.51221 0.56483,3.13364 0.91928,3.56207 2.12152,2.5643 2.06322,-1.71232 2.924,0.10056 3.57347,7.52607 C 579.3982,243.1086 579.20858,248 577.59839,248 c -1.45514,0 -3.58078,-5.47262 -3.59281,-9.25 -0.003,-0.9625 -0.46728,-1.75 -1.03158,-1.75 -0.66826,0 -0.81102,2.87663 -0.40943,8.25 0.82362,11.02039 0.56967,27.14747 -0.6077,38.59209 -0.52859,5.13816 -0.74214,9.69634 -0.47455,10.1293 1.11104,1.7977 4.62484,1.73216 6.99273,-0.13042 l 2.49882,-1.96558 0.0823,-27.68769 c 0.0453,-15.22824 0.10838,-31.5127 0.14028,-36.1877 0.0319,-4.675 -0.0391,-13.225 -0.15767,-19 -0.38997,-18.98716 -0.29065,-20 1.96124,-20 2.01306,0 2.46408,2.04934 2.2008,10 -0.37106,11.20564 -1.32777,63.44902 -1.22694,67 0.0703,2.475 0.21741,9.225 0.32696,15 0.1872,9.86855 0.31849,10.4791 2.1831,10.15245 1.09115,-0.19116 2.93696,-1.31616 4.1018,-2.5 2.00488,-2.0376 2.12645,-3.2342 2.27851,-22.42614 0.15033,-18.97491 0.03,-20.4504 -1.87884,-23.0322 -1.74585,-2.36139 -2.07157,-4.46718 -2.26243,-14.62666 -0.15444,-8.22063 0.13027,-11.99089 0.92636,-12.26756 0.71536,-0.24862 1.41487,1.53142 1.85264,4.71436 1.2235,8.89592 1.99314,4.35819 2.14792,-12.664 0.0824,-9.06584 0.40053,-16.73399 0.70687,-17.04034 0.30635,-0.30634 1.2198,-0.30265 2.02989,0.008 1.2348,0.47383 1.37941,2.66726 0.89457,13.56876 l -0.57832,13.00357 2.23319,-0.58399 c 3.01388,-0.78815 3.18718,-1.50273 3.38878,-13.97274 0.14306,-8.84955 0.44786,-10.83373 1.66421,-10.83373 1.24721,0 1.43894,1.78664 1.18049,11 -0.24447,8.71484 0.0109,11.41548 1.22913,13 0.84574,1.1 1.55891,3.125 1.58482,4.5 0.0348,1.8489 0.27807,2.13523 0.93389,1.09942 0.48772,-0.77032 0.71207,-7.18282 0.49856,-14.25 C 609.08737,196.97355 609.256,195 610.51387,195 c 1.74418,0 1.69252,-0.32962 1.95918,12.5 0.11431,5.5 0.27964,11.11263 0.3674,12.47251 l 0.15955,2.4725 1.55181,-2.21552 c 1.14689,-1.63742 1.57487,-4.95921 1.64018,-12.7304 0.0486,-5.78318 0.30275,-11.63632 0.56477,-13.00698 0.59204,-3.09705 2.80993,-3.25711 3.59386,-0.25936 0.70624,2.70068 2.3263,1.41558 2.8147,-2.23275 0.18833,-1.40681 0.99059,-2.5 1.83468,-2.5 1.62457,0 1.65778,0.47805 2.21692,31.91578 0.30125,16.93728 0.82431,18.54299 4.75874,14.60856 1.72227,-1.72227 1.96939,-2.76924 1.3719,-5.8125 -0.40081,-2.04151 -0.75548,-12.26184 -0.78816,-22.71184 -0.0508,-16.24862 0.15781,-19 1.4406,-19 1.5447,0 1.5844,0.71188 1.96366,35.21104 0.0557,5.06608 0.48566,9.44862 0.95549,9.73899 3.37456,2.0856 4.18957,-10.253 2.61685,-39.61702 l -0.7262,-13.55872 -7.1549,-0.60003 c -3.93519,-0.33002 -13.2299,-1.27775 -20.6549,-2.10607 -11.21154,-1.25074 -45.78497,-4.3388 -55,-4.91254 -2.49424,-0.15529 -2.49931,-0.13721 -2.20142,7.84435 0.51692,13.85029 0.35906,85.26374 -0.22681,102.60269 l -0.56098,16.60269 4.86467,-0.46744 c 3.18243,-0.30579 5.12343,-0.0488 5.61293,0.74328 1.37065,2.21776 3.51352,-1.29685 3.98169,-6.53055 z m -7.94811,-40.41512 c -0.90654,-1.46681 -1.05026,-30.21784 -0.16389,-32.78555 0.81128,-2.35019 3.06031,-3.00008 4.16978,-1.20492 0.8968,1.45104 0.90964,23.31464 0.0174,29.70492 -0.69292,4.96301 -2.44876,6.83328 -4.02334,4.28555 z m 23.30736,45.61215 c 0.25442,-1.32108 -0.15595,-1.73145 -1.47703,-1.47703 -1.00613,0.19376 -1.98787,1.1755 -2.18163,2.18163 -0.25442,1.32108 0.15595,1.73145 1.47703,1.47703 1.00613,-0.19376 1.98787,-1.1755 2.18163,-2.18163 z m 72.47045,-4.74792 c -0.81933,-0.81933 -1.39456,-0.59121 -2.17196,0.86138 -1.36738,2.55497 -0.19138,3.73097 1.7698,1.76979 1.11499,-1.11499 1.2215,-1.81183 0.40216,-2.63117 z m -21.21081,-1.56765 c -0.32791,-2.01733 -1.20454,-3.87065 -1.94806,-4.11849 -1.04647,-0.34883 -1.18852,0.31035 -0.62879,2.91787 0.83987,3.91258 1.30903,4.86849 2.38948,4.86849 0.43096,0 0.51528,-1.65054 0.18737,-3.66787 z m -34.19325,1.75348 c 1.83612,-1.16263 0.60173,-4.33086 -1.52322,-3.90952 -0.89845,0.17815 -2.30469,1.33641 -3.12499,2.57391 -1.40573,2.12068 -1.35512,2.24912 0.88052,2.23469 1.30458,-0.008 3.00004,-0.41301 3.76769,-0.89908 z M 649,292 c 0,-0.55 -0.45,-1 -1,-1 -0.55,0 -1,0.45 -1,1 0,0.55 0.45,1 1,1 0.55,0 1,-0.45 1,-1 z m -47.48731,-9.38849 c -0.28929,-1.71133 -0.72535,-10.47637 -0.96902,-19.47786 -0.24367,-9.0015 -0.69818,-16.6215 -1.01002,-16.93334 -2.19285,-2.19285 -3.52388,9.05858 -3.6947,31.23188 -0.05,6.49553 0.26111,8.16781 1.71793,9.23306 2.62747,1.92125 4.62057,-0.12119 3.95581,-4.05374 z m 7.325,-14.72516 c 0.0925,-7.91249 0.42232,-16.63635 0.73293,-19.38635 0.40685,-3.602 0.14525,-5.5592 -0.93562,-7 -3.08729,-4.1154 -3.73908,-0.55809 -4.23437,23.11018 l -0.47899,22.88982 2.37393,-2.61365 c 2.24784,-2.47483 2.38286,-3.37774 2.54212,-17 z m 7.62919,-4.0624 c 0.11813,-11.17817 -0.17943,-21.11145 -0.66123,-22.07395 -1.4555,-2.90763 -2.67165,-1.97538 -2.60907,2 0.0325,2.0625 -0.27831,10.5 -0.69062,18.75 -0.88876,17.78311 -0.80755,20.43169 0.68153,22.22591 2.43472,2.93366 3.07031,-1.11739 3.27939,-20.90196 z m 9.75056,14.26486 c 0.25955,-2.70116 0.0911,-7.53866 -0.37442,-10.75 -0.99635,-6.87382 -2.0451,-22.2558 -1.87992,-27.5726 0.0912,-2.9369 -0.20445,-3.61082 -1.38548,-3.15762 -2.17449,0.83443 -2.46254,2.60193 -2.50835,15.39141 -0.0828,23.11148 0.0274,29.34733 0.53279,30.16514 0.28379,0.45917 1.55716,0.83486 2.82973,0.83486 2.0402,0 2.36954,-0.58065 2.78565,-4.91119 z M 633.07523,264.5 c -0.37036,-24.71796 -0.14066,-23 -3.07523,-23 -2.76218,0 -2.66634,-1.31056 -1.53573,21 0.1951,3.85 0.41682,10.066 0.4927,13.81333 0.12845,6.34346 0.28451,6.79172 2.26297,6.5 2.08799,-0.30787 2.1203,-0.62679 1.85529,-18.31333 z m 8.0895,15.03779 c 0.83126,-1.8244 0.82452,-4.35 -0.026,-9.75 C 640.5074,265.77951 640.01831,259.125 640.05186,255 c 0.0814,-10.00712 -0.0949,-16.37644 -0.46365,-16.74514 -0.16606,-0.16607 -1.01982,-0.0265 -1.89723,0.31023 -1.38575,0.53177 -1.5947,3.19462 -1.59082,20.27354 0.002,10.81375 0.23625,20.44887 0.51955,21.41137 0.74666,2.53678 3.24293,2.14562 4.54504,-0.71221 z M 892.69351,275 c 3.2305,-3.025 7.43353,-6.72105 9.34007,-8.21345 1.90653,-1.4924 6.84142,-5.39799 10.96642,-8.67909 6.95868,-5.53507 10.97987,-8.64627 24.73768,-19.13961 4.1862,-3.19289 5.19439,-4.51791 5.02206,-6.60022 -0.1186,-1.43294 -0.77256,-2.81906 -1.45326,-3.08027 -1.22461,-0.46992 -11.30648,5.4755 -11.30648,6.6676 0,0.67432 -8.59928,7.34478 -13.59423,10.54504 -10.78681,6.9111 -19.40484,14.17259 -19.40865,16.35359 -0.002,0.90553 -1.35028,2.54641 -2.99712,3.64641 -1.64684,1.1 -2.99554,2.80162 -2.99712,3.78138 -0.002,0.97977 -0.69452,2.0468 -1.53987,2.37119 -1.58284,0.60739 -4.46301,5.37073 -4.46301,7.3811 0,1.77812 1.39065,0.86825 7.69351,-5.03367 z M 653.2917,269.89382 C 652.83546,255.88914 650.81102,241 649.36308,241 c -1.13481,0 -1.2988,1.74234 -0.87063,9.25 0.29015,5.0875 0.69391,12.69288 0.89725,16.90084 0.38991,8.06913 1.05378,10.21592 2.95194,9.54577 0.7453,-0.26314 1.08408,-2.68893 0.95006,-6.80279 z m 38.2083,-0.8928 c 2.2,-0.51814 6.7,-1.59755 10,-2.39867 11.80522,-2.86587 20.04359,-4.78773 22.71783,-5.29965 3.81751,-0.73076 4.49262,-1.92234 5.27057,-9.3027 0.64588,-6.12744 0.53689,-6.63895 -1.90162,-8.92431 -1.42273,-1.33338 -2.58678,-3.02088 -2.58678,-3.75 0,-1.81573 -0.65782,-1.66787 -3,0.67431 -2.73411,2.73411 -3.3839,2.5657 -6.8148,-1.76616 -2.20562,-2.78483 -3.17239,-5.32536 -3.71025,-9.75 -0.75497,-6.21063 -0.81509,-6.53758 -2.34481,-12.75158 -1.45559,-5.91283 -7.37626,-10.97318 -16.39816,-14.01537 -4.40346,-1.48484 -5.11128,-1.48055 -9.25764,0.0562 -2.4693,0.91519 -5.6905,2.62151 -7.15822,3.79183 -2.56271,2.04343 -2.68355,2.58028 -3.04596,13.53147 -0.4576,13.82753 -0.47286,9.87624 0.12306,31.85915 0.47862,17.65597 0.59738,18.52876 2.74105,20.14574 2.01907,1.52299 2.6921,1.5493 6.80324,0.26601 2.50937,-0.7833 6.36249,-1.84812 8.56249,-2.36627 z m -9.05385,-11.08815 c -1.03052,-1.66742 1.28721,-3.57951 2.66672,-2.2 C 686.26679,256.86679 685.54459,259 684,259 c -0.48508,0 -1.18431,-0.48921 -1.55385,-1.08713 z M 699.2,257.8 c -1.64308,-1.64308 -1.50456,-3.30235 0.40821,-4.88981 1.3647,-1.13259 1.81309,-1.05451 2.96126,0.5157 0.96283,1.31675 1.06567,2.38734 0.3566,3.71225 -1.15943,2.16641 -2.06132,2.32661 -3.72607,0.66186 z m -10.39291,-14.55 c -2.57525,-2.99869 -2.85197,-4.00176 -1.83899,-6.66608 1.82254,-4.79366 10.0319,-2.84618 10.0319,2.37984 0,5.25914 -5.07655,7.91501 -8.19291,4.28624 z m -43.12398,26.5625 c -0.31922,-0.79773 -0.55618,-0.56078 -0.60416,0.60417 -0.0434,1.05416 0.19293,1.64479 0.52522,1.3125 0.33229,-0.33229 0.36781,-1.1948 0.0789,-1.91667 z m 223.65402,-9.39754 c 1.75079,-2.40366 1.75701,-2.7194 0.13242,-6.71858 -3.2337,-7.96022 -3.49448,-9.7287 -1.81301,-12.29495 0.86542,-1.32079 1.33342,-2.40143 1.04,-2.40143 -0.29341,0 1.67984,-4.07345 4.38499,-9.05211 2.70516,-4.97866 4.91847,-9.6771 4.91847,-10.44098 0,-0.76388 0.38965,-1.62969 0.86589,-1.92403 C 879.94928,216.91331 879.08464,212 877.88342,212 877.39754,212 877,212.40478 877,212.89951 c 0,0.96492 -5.60673,9.88647 -8.96081,14.25865 -1.12156,1.46199 -2.03919,4.04949 -2.03919,5.75 0,3.64044 -2.3293,4.21356 -4.05091,0.99672 -0.83003,-1.55093 -0.82345,-3.82366 0.0254,-8.75 0.98418,-5.71207 1.74016,-7.26882 5.33609,-10.98846 4.07698,-4.21721 4.13577,-4.37268 2.18947,-5.79017 -1.1,-0.80113 -4.1615,-3.05246 -6.80333,-5.00295 -5.33514,-3.939 -6.87717,-3.85872 -9.11805,0.47466 -1.76403,3.41127 -1.42029,3.85677 5.17138,6.70228 2.3375,1.00906 4.25,2.1715 4.25,2.58319 0,1.7002 -2.13148,1.83847 -5.65377,0.36677 -2.51128,-1.04928 -5.12619,-1.35582 -7.9515,-0.93214 -3.5428,0.53127 -4.26422,0.34816 -4.55387,-1.15589 -0.29631,-1.53862 -0.84905,-1.34387 -3.97453,1.40033 -1.9967,1.75313 -4.3319,3.1875 -5.18933,3.1875 -0.85743,0 -1.83708,0.45 -2.177,1 -0.33992,0.55 -1.82898,1.01431 -3.30902,1.0318 -3.27485,0.0387 -6.65518,2.40809 -5.68201,3.98272 0.39009,0.63117 2.03648,1.95472 3.65864,2.94122 1.62217,0.98649 3.76302,3.31072 4.75745,5.16495 1.12464,2.09701 2.92227,3.69086 4.75583,4.21672 2.84905,0.8171 2.94973,1.05427 3.00644,7.08245 0.0323,3.43037 0.59776,7.24431 1.25663,8.47542 1.09738,2.05048 1.7271,2.19481 7.50113,1.71928 7.28506,-0.59998 9.48775,0.47584 9.95543,4.86236 0.17241,1.61705 0.94032,3.2253 1.70647,3.57389 0.76616,0.34859 2.29301,1.1283 3.39301,1.73269 2.72572,1.49763 2.75561,1.48917 4.83713,-1.36854 z m -20.13788,-39.46049 c -3.93108,-0.86063 -4.90201,-1.65171 -3.61132,-2.9424 1.69352,-1.69352 12.41207,-1.72612 12.41207,-0.0377 0,1.90067 -5.39181,3.72647 -8.80075,2.98015 z m -336.26501,32.27584 c 0.85507,-24.05619 0.50431,-31.00219 -1.46607,-29.03182 -0.53054,0.53055 -0.87095,18.47245 -0.55231,29.11053 0.0887,2.9617 1.91284,2.89056 2.01838,-0.0787 z m 142.05251,-11.97599 c -0.89165,-1.39981 -1.00544,-0.946 -0.56311,2.24568 0.30489,2.2 0.64254,5.35 0.75034,7 0.10779,1.65 0.36119,0.63945 0.56311,-2.24568 0.20192,-2.88512 -0.13573,-6.03512 -0.75034,-7 z M 918.5,239.09289 c 2.75,-1.93094 6.84635,-4.99178 9.10299,-6.80185 2.25665,-1.81007 4.45211,-3.29104 4.8788,-3.29104 0.4267,0 2.51915,-1.575 4.64989,-3.5 2.13074,-1.925 4.28608,-3.5 4.78964,-3.5 1.63417,0 4.83902,-6.34762 6.47811,-12.83077 1.99673,-7.89772 2.03174,-7.53635 -0.64943,-6.70397 -1.2375,0.38419 -3.03167,0.80275 -3.98704,0.93014 -2.19056,0.29209 -6.76296,4.52434 -6.76296,6.25986 0,2.2402 -4.8478,2.79246 -7.04643,0.80273 -1.08121,-0.97849 -2.23313,-1.51176 -2.55984,-1.18506 -0.87332,0.87332 0.51532,2.72707 2.04284,2.72707 0.7252,0 1.86003,0.65245 2.52185,1.4499 0.97423,1.17388 0.33945,2.78526 -3.33452,8.46464 -2.4958,3.85811 -5.47445,7.59316 -6.61922,8.30011 C 919.92777,231.49723 911,242.2546 911,243.47456 c 0,0.77069 0.96546,0.20665 7.5,-4.38167 z M 539,238 c 0,-0.55 -0.47656,-1 -1.05902,-1 -0.58246,0 -0.7809,0.45 -0.44098,1 0.33992,0.55 0.81648,1 1.05902,1 0.24254,0 0.44098,-0.45 0.44098,-1 z m 193,-0.80887 c 0,-0.99488 -0.66069,-2.68238 -1.4682,-3.75 -1.43666,-1.89944 -1.46888,-1.89457 -1.5,0.22708 C 728.9906,236.47431 729.97367,239 731.10699,239 731.59814,239 732,238.18601 732,237.19113 Z M 574,231.8 c 0,-2.06109 -0.34425,-2.85575 -0.96725,-2.23275 -0.53198,0.53198 -0.7045,1.97198 -0.38337,3.2 C 573.47304,235.9169 574,235.53952 574,231.8 Z m -34,0.2 c 0,-0.55 -0.45,-1 -1,-1 -0.55,0 -1,0.45 -1,1 0,0.55 0.45,1 1,1 0.55,0 1,-0.45 1,-1 z m 83.5723,-10.87035 c -0.35899,-3.50399 -0.72278,-6.65412 -0.80841,-7.00027 -0.0856,-0.34616 0.178,-3.12214 0.58586,-6.16886 0.81053,-6.05475 -0.14242,-10.32472 -2.0422,-9.15059 -1.05199,0.65016 -1.95356,20.38946 -1.40173,30.69007 l 0.16072,3 2.07924,-2.49973 c 1.81297,-2.1796 1.99565,-3.3156 1.42652,-8.87062 z m -127.96724,2.38245 c 0.3235,-7.11874 -0.97686,-8.84208 -1.97271,-2.6144 -0.6259,3.91414 0.17697,10.62631 1.15416,9.64912 0.28744,-0.28744 0.65579,-3.45306 0.81855,-7.03472 z m 24.60304,3.5234 c 0.41593,-2.8339 -0.57409,-6.01946 -1.55595,-5.00654 -0.56546,0.58335 -0.92007,3.71681 -0.7673,6.78006 0.15715,3.15119 1.78256,1.91039 2.32325,-1.77352 z M 655.8159,226.75 c 0.28196,-23.08775 -0.0613,-35.33457 -1.04078,-37.13389 -0.63357,-1.16386 -1.17965,-3.91611 -1.21353,-6.11611 -0.0498,-3.23707 -0.45004,-4.05562 -2.09821,-4.29159 -1.13864,-0.16302 -2.95903,0.71881 -4.12867,2 -1.90501,2.0867 -2.00966,2.87276 -1.1705,8.79159 1.00923,7.1184 1.69609,16.79224 1.93479,27.25 0.0847,3.7125 0.54713,6.75 1.02754,6.75 0.79821,0 1.53607,-13.47861 0.93063,-17 -0.14184,-0.825 -0.32523,-5.73568 -0.40753,-10.91262 -0.10355,-6.51368 0.21769,-9.53631 1.04305,-9.81423 0.65598,-0.22089 1.17362,0.41479 1.15032,1.41262 -0.0233,0.99783 0.24032,5.86423 0.58582,10.81423 0.3455,4.95 0.80726,13.5 1.02614,19 0.49429,12.4209 0.37904,11.5 1.43924,11.5 0.49182,0 0.90658,-1.0125 0.92169,-2.25 z m -149.77034,-2.83513 c 1.4964,-2.79606 0.48335,-17.67721 -1.40977,-20.70867 -0.45049,-0.72138 -0.31211,-1.89129 0.31278,-2.64423 0.7181,-0.86526 1.06718,-5.96911 0.97164,-14.2062 -0.082,-7.07067 0.16385,-14.04418 0.54636,-15.49668 0.85465,-3.24528 0.21597,-3.66647 -6.57753,-4.33778 -2.96397,-0.29288 -6.81279,-0.79781 -8.55294,-1.12205 -4.86258,-0.90605 -5.26914,0.87039 -5.19869,22.71503 0.0344,10.66214 -0.23814,20.12769 -0.60562,21.03456 -0.36747,0.90687 -0.22374,1.9235 0.31942,2.25919 1.25991,0.77867 4.14879,-2.06779 4.14879,-4.08788 0,-1.11572 0.64674,-1.37466 2.35965,-0.94474 1.64292,0.41234 2.92319,-0.0305 4.21496,-1.45786 2.97493,-3.28726 4.01128,-0.48557 3.75313,10.14626 -0.1241,5.11081 0.003,9.66223 0.28233,10.11428 0.97777,1.58206 4.32964,0.80307 5.43549,-1.26323 z M 644.5,219 c 0.33992,-0.55 0.14148,-1 -0.44098,-1 -0.58246,0 -1.05902,0.45 -1.05902,1 0,0.55 0.19844,1 0.44098,1 0.24254,0 0.7191,-0.45 1.05902,-1 z m 344.3821,-21.56544 c 0.61484,-4.13394 1.1179,-8.16723 1.1179,-8.96286 0,-1.65238 -5.39997,-5.19926 -12,-7.882 -2.475,-1.00602 -5.4,-2.22205 -6.5,-2.70229 -4.1212,-1.79923 -9.46042,-1.8314 -10.39174,-0.0626 -0.89381,1.69753 -4.10826,16.31062 -4.10826,18.6764 0,0.708 1.28845,2.66657 2.86322,4.35236 2.4868,2.66214 3.34335,2.98717 6.51549,2.4724 3.52461,-0.57197 14.55328,1.14607 17.61071,2.74338 2.52202,1.31759 3.72935,-0.81316 4.89268,-8.63479 z m -105.23569,1.20818 c 5.96114,-7.0133 6.92346,-8.2589 9.60122,-12.42747 1.5138,-2.3566 2.75237,-4.69629 2.75237,-5.19931 0,-1.46909 -6.35313,-7.00627 -8.04451,-7.01133 -1.55362,-0.005 -8.19724,7.93569 -9.66674,11.55351 -0.43381,1.06802 -2.09725,3.87129 -3.69653,6.22947 -2.84815,4.1997 -2.99681,4.27426 -7.25,3.63646 C 864.954,195.06593 863,195.03745 863,195.36078 c 0,1.42191 12.13909,6.19824 16.64641,6.5498 0.63052,0.0492 2.43052,-1.42135 4,-3.26784 z m -219.7167,-8.47607 c 0.0451,-2.13657 -0.35252,-3.1924 -1.10736,-2.94079 -1.08418,0.3614 -1.3947,3.26398 -0.88518,8.27412 l 0.2034,2 0.85943,-2 c 0.47269,-1.1 0.89106,-3.5 0.92971,-5.33333 z M 363.54786,153.07743 c -0.47825,-0.77382 -10.79411,-2.17093 -19.5385,-2.64617 -2.46985,-0.13423 -5.29496,0.1864 -6.27801,0.71252 -3.79766,2.03244 -0.23696,2.90155 11.415,2.7862 6.599,-0.0653 12.25343,0.13646 12.5654,0.44843 0.79994,0.79995 2.42356,-0.35046 1.83611,-1.30098 z M 836,77.5 c 0,-0.825 -0.3375,-1.53443 -0.75,-1.576511 -0.4125,-0.04208 -1.65,-0.293452 -2.75,-0.558602 -1.1,-0.265149 -2.675,-0.489826 -3.5,-0.499281 -0.825,-0.0095 -3.75,-0.420335 -6.5,-0.913066 -2.75,-0.492732 -6.8,-1.071831 -9,-1.286889 -2.2,-0.215057 -4.675,-0.641513 -5.5,-0.94768 -0.825,-0.306167 -3.975,-0.845712 -7,-1.198988 -6.58732,-0.769304 -5.80064,0.429457 2,3.047662 3.025,1.01531 6.01451,2.218442 6.64336,2.673627 1.97389,1.428782 9.54152,2.536412 18.10664,2.650162 C 834.46536,78.979619 836,78.720975 836,77.5 Z M 782,63 c 0,-0.55 -0.70156,-1 -1.55902,-1 -0.85746,0 -1.2809,0.45 -0.94098,1 0.33992,0.55 1.04148,1 1.55902,1 C 781.57656,64 782,63.55 782,63 Z m 82,-8.447375 C 864,53.835441 853.97049,49 852.48294,49 c -2.1937,0 -6.81338,2.002897 -6.14992,2.666349 C 847.43564,52.768975 864,55.475113 864,54.552625 Z M 886,486 c 0,-0.55 0.45,-1 1,-1 0.55,0 1,0.45 1,1 0,0.55 -0.45,1 -1,1 -0.55,0 -1,-0.45 -1,-1 z m 3.57924,-2.6541 c -0.83403,-2.17346 -0.88136,-2.12239 2.67076,-2.88192 1.7875,-0.38221 3.81289,-1.14839 4.50088,-1.70262 0.68798,-0.55424 5.41298,-1.18797 10.5,-1.4083 5.08701,-0.22032 18.47412,-1.29153 29.74912,-2.38046 11.275,-1.08892 22.975,-2.18171 26,-2.42841 3.025,-0.2467 10,-0.92314 15.5,-1.5032 5.5,-0.58006 17.2,-1.27121 26,-1.5359 8.8,-0.26468 17.125,-0.7448 18.5,-1.06693 1.375,-0.32214 4.1875,-0.62174 6.25,-0.66578 2.0625,-0.044 3.7787,-0.34834 3.8138,-0.67623 0.035,-0.32788 0.2949,-2.17115 0.5773,-4.09615 0.7422,-5.0601 0.678,-6.66008 -0.6019,-15 -2.2688,-14.78269 -1.6334,-47.30898 1.345,-68.8636 0.8084,-5.85002 1.4742,-11.3114 1.4797,-12.1364 0.017,-2.54517 0.7314,-6.53589 1.3507,-7.5423 0.3241,-0.52674 0.698,-8.1577 0.831,-16.9577 0.1329,-8.8 0.6302,-21.4 1.105,-28 1.0262,-14.26586 1.7315,-29.55255 2.3067,-50 0.2321,-8.25 0.9029,-20.175 1.4907,-26.5 0.5877,-6.325 1.3151,-18.25 1.6165,-26.5 0.3013,-8.25 0.8815,-18.48892 1.2893,-22.75316 0.6873,-7.18649 0.6101,-7.71146 -1.0562,-7.18261 -1.0255,0.3255 -1.7976,0.0719 -1.7976,-0.59046 0,-0.63856 0.8146,-1.37404 1.8103,-1.63442 1.551,-0.40559 1.8472,-1.75369 2.0682,-9.41161 0.2734,-9.47977 0.1994,-9.63392 -4.8785,-10.16586 -1.9008,-0.19911 -2.4296,0.15757 -2.2062,1.48812 0.3599,2.14343 -0.5425,2.16965 -7.2785,0.21143 -2.9108,-0.84621 -8.1551,-1.74833 -11.6539,-2.00471 -3.4988,-0.25639 -8.571,-0.74008 -11.2715,-1.07487 -4.3678,-0.54147 -5.1071,-0.34763 -6.693,1.75472 -2.0172,2.67395 1.7841,2.53758 -40.3969,1.44927 -13.2,-0.34057 -26.925,-0.82611 -30.5,-1.07897 -13.08888,-0.92578 -20,-1.782 -20,-2.47779 0,-0.39188 -1.72296,-1.22872 -3.8288,-1.85964 -3.05066,-0.914 -4.03691,-1.82523 -4.85281,-4.4837 -2.18269,-7.11184 0.30527,-26.3094 3.87185,-29.87598 1.92587,-1.92587 2.8459,-1.98356 21.66053,-1.35817 10.80708,0.35922 23.11687,1.06445 27.35509,1.56718 7.10964,0.84332 24.30455,0.39871 26.04279,-0.67339 0.97499,-0.60135 36.61765,-0.46895 43.72565,0.16242 3.6886,0.32764 6.8681,-0.046 9.7468,-1.14537 3.0906,-1.18034 6.2072,-1.4932 11.2678,-1.13111 4.3894,0.31406 7.5145,0.0848 8.3885,-0.6154 0.7662,-0.61375 1.6982,-3.57691 2.0713,-6.58479 1.3868,-11.18224 4.5385,-24.548624 6.0487,-25.652909 1.299,-0.949794 1.365,-1.921294 0.4279,-6.291066 -0.6096,-2.842297 -0.7554,-5.937165 -0.324,-6.877484 0.4314,-0.940319 0.8368,-2.159671 0.9008,-2.709671 0.064,-0.55 0.4575,-2.0125 0.8745,-3.25 0.7975,-2.366742 3.618,-3.143519 3.631,-1 0,0.6875 0.4557,5.075 1.0035,9.75 0.8924,7.616011 0.8136,8.655998 -0.7576,10 -1.303,1.11465 -1.8212,3.298298 -2.0172,8.5 -0.145,3.85 -0.8973,8.35 -1.6717,10 -3.6626,7.80355 -5.3767,13.06207 -4.5358,13.91543 0.4961,0.50349 7.8288,1.12067 16.2948,1.37151 14.9672,0.44348 15.4353,0.39543 16.9297,-1.73815 1.0406,-1.48566 1.3644,-3.48047 1.0026,-6.17726 -0.2938,-2.19066 -0.057,-4.97043 0.526,-6.17727 1.0152,-2.10101 1.8818,-7.672723 2.7945,-17.965332 0.2326,-2.624089 0.8317,-6.590032 1.3312,-8.813207 0.6493,-2.889861 0.5429,-4.746191 -0.3731,-6.511935 -0.7399,-1.42604 -1.0786,-4.268557 -0.8016,-6.726121 0.3523,-3.126188 0.053,-4.61029 -1.1266,-5.589438 -2.2548,-1.871364 -2.0165,-5.798332 0.4315,-7.108442 2.0866,-1.116753 5.9622,-0.489174 5.9622,0.965479 0,0.445768 0.7586,2.552944 1.6858,4.682612 0.9271,2.129668 1.5439,4.322124 1.3705,4.872124 -0.1733,0.55 -0.4547,7.311634 -0.6253,15.025854 -0.1705,7.71422 -0.7873,15.281015 -1.3705,16.8151 -0.5833,1.534085 -1.0605,5.332406 -1.0605,8.440716 0,3.1083 -0.7297,7.56204 -1.6215,9.89719 -2.6705,6.99274 -1.8287,7.68124 8.6608,7.08315 4.9481,-0.28213 9.215,-0.1596 9.4819,0.27227 0.8511,1.37707 -0.6233,3.82646 -2.352,3.90752 -12.7837,0.59943 -40.2493,0.48028 -42.1274,-0.18276 -2.2688,-0.80098 -9.6369,-0.89143 -27.5418,-0.33811 -3.85,0.11898 -9.7,0.77915 -13,1.46705 -7.8904,1.64478 -9.799,1.84844 -11,1.17376 -0.55,-0.30896 -3.7,-0.63023 -7,-0.71394 -8.5845,-0.21775 -35.4233,-0.43777 -46,-0.3771 -4.95,0.0284 -15.3,-0.16998 -23,-0.44083 -20.93907,-0.73655 -29.64991,-0.65042 -34.64159,0.34251 -2.16437,0.43053 -3.62401,24.25133 -1.5889,25.93023 1.71904,1.41814 12.36785,2.12891 40.23049,2.68523 13.2,0.26355 28.30335,0.76361 33.56301,1.11124 8.36856,0.5531 9.78577,0.40929 11.34648,-1.15143 1.52597,-1.52597 3.39391,-1.75393 12.93701,-1.57881 6.1344,0.11256 12.5911,0.45852 14.3481,0.7688 1.8469,0.32615 4.3781,-0.0227 6,-0.82695 3.68,-1.82477 12.0192,-2.29311 13.8453,-0.77758 0.789,0.65485 2.1853,0.90258 3.1028,0.5505 1.0073,-0.38652 2.5238,0.16366 3.8277,1.38861 1.7266,1.62204 3.6,2.05069 9.3446,2.13813 7.1808,0.10931 7.185,0.11102 7.185,2.91618 0,3.50406 -1.3276,3.97121 -6.3592,2.23768 -2.1816,-0.75164 -5.3442,-1.23108 -7.0278,-1.06542 l -3.0612,0.30121 0.2438,8 c 0.1341,4.4 0.2458,8.45 0.2483,9 0,0.55 -0.423,5.5 -0.9456,11 -0.5226,5.5 -1.4606,16.975 -2.0844,25.5 -0.6239,8.525 -1.2885,17.3 -1.4771,19.5 -0.1885,2.2 -0.011,4.87941 0.3949,5.95425 0.4266,1.1299 0.1695,3.0281 -0.6093,4.5 -0.7409,1.40016 -1.2843,4.34575 -1.2075,6.54575 0.077,2.2 -0.1685,11.2 -0.5451,20 -0.3766,8.8 -0.8763,21.625 -1.1105,28.5 -0.7682,22.54819 -1.4758,39.41425 -1.8671,44.5 -0.6036,7.8464 -1.8182,30.89115 -1.6865,32 0.5647,4.75615 0.6009,10.39777 0.096,14.98392 -0.3316,3.01259 -0.2071,6.18469 0.2766,7.04911 0.5086,0.90885 0.5029,2.07678 -0.014,2.76933 -0.4912,0.6587 -0.7893,4.12264 -0.6625,7.69764 0.1268,3.575 0.3246,13.37685 0.4394,21.78188 0.1885,13.79553 0.3912,15.37947 2.0835,16.28519 1.7554,0.93944 1.8801,0.50782 1.9594,-6.78189 0.089,-8.21711 0.4748,-20.41553 1.3994,-44.28518 0.3089,-7.975 0.7735,-20.575 1.0326,-28 1.2898,-36.97702 1.7156,-47.87294 2.0321,-52 0.1897,-2.475 0.6497,-14.625 1.0221,-27 0.3724,-12.375 0.7785,-25.875 0.9024,-30 0.4204,-13.99095 2.5508,-46.4324 4.0714,-62 0.8328,-8.525 1.4833,-17.01485 1.4455,-18.86633 -0.1051,-5.16179 1.8954,-10.30476 3.8555,-9.91182 1.4563,0.29196 1.6298,2.00406 1.4495,14.3049 -0.1127,7.68529 -0.9644,19.82325 -1.8927,26.97325 -0.9284,7.15 -1.8343,15.7 -2.0133,19 -0.1789,3.3 -0.5193,8.925 -0.7564,12.5 -0.2371,3.575 -0.7201,13.25 -1.0732,21.5 -0.5481,12.80335 -2.2347,48.34255 -3.0847,65 -1.0811,21.18429 -2.9458,92.73751 -2.5671,98.5 0.054,0.825 0.2819,6.94309 0.5058,13.59576 0.224,6.65266 0.829,13.62766 1.3446,15.5 0.5155,1.87233 0.7516,5.38464 0.5247,7.80513 -0.2746,2.92851 0.027,4.68271 0.9022,5.24323 2.1101,1.35173 29.8616,0.92167 30.3371,-0.47013 0.2206,-0.64569 0.6075,-7.92399 0.8597,-16.17399 0.2522,-8.25 0.6939,-15.675 0.9815,-16.5 0.2875,-0.825 0.7708,-8.4012 1.0739,-16.836 0.303,-8.4348 0.8186,-15.76899 1.1456,-16.29819 0.3271,-0.5292 0.759,-28.953 0.9597,-63.164 0.2008,-34.21099 0.7952,-66.92681 1.321,-72.70181 0.5258,-5.775 1.003,-17.62461 1.0604,-26.33247 0.058,-8.70785 0.4929,-17.70785 0.9677,-20 0.4747,-2.29214 0.9444,-6.61529 1.0438,-9.607 0.099,-2.9917 0.3721,-5.74924 0.6061,-6.12785 0.234,-0.37862 0.6635,-6.70586 0.9545,-14.06054 0.573,-14.48346 2.3914,-28.87214 3.6489,-28.87214 2.0231,0 2.8529,4.92369 2.895,17.17883 0.051,14.78979 -0.7298,34.96687 -1.502,38.82117 -0.4993,2.49271 -1.9106,21.63238 -3.1336,42.5 -0.3546,6.05 -0.8569,11.36114 -1.1161,11.80253 -0.2592,0.44139 -0.7179,15.51639 -1.0194,33.5 -0.6682,39.85799 -0.6825,33.43937 0.1689,76.19747 0.8396,42.16542 0.9092,32.56296 -0.5295,73 -0.1346,3.78281 1.771,8.49062 3.3286,8.22348 0.8868,-0.15209 1.8978,0.18541 2.2467,0.75 0.3489,0.56459 0.1579,1.02652 -0.4246,1.02652 -0.5824,0 -1.059,0.88417 -1.059,1.96482 0,2.04957 2.7029,4.03518 5.4929,4.03518 0.8934,0 3.398,1.42531 5.5657,3.16736 2.8799,2.3143 3.9414,3.91439 3.9414,5.94099 0,1.52549 -0.4317,3.04042 -0.9593,3.36651 -0.9476,0.58563 -4.0883,-0.82911 -7.0801,-3.18922 -0.8466,-0.6679 -3.0966,-1.42844 -5,-1.69009 -1.9033,-0.26165 -7.9606,-1.23191 -13.4606,-2.15614 -5.5,-0.92422 -10.9,-1.61066 -12,-1.52541 -6.6184,0.51291 -13.7394,0.95971 -18.815,1.18053 -4.5738,0.19898 -6.1258,0.69616 -7.271,2.32923 -2.1987,3.13551 -12.3372,2.93648 -15.7929,-0.31003 -2.3703,-2.2267 -3.0684,-2.31335 -17.7941,-2.20844 -16.55123,0.11793 -24.64039,0.81879 -26.51308,2.29716 -0.73023,0.57648 -1.88321,0.58051 -3,0.0105 -1.06187,-0.54199 -5.13069,-0.59389 -9.81392,-0.12517 -4.4,0.44038 -12.275,1.0833 -17.5,1.42872 -5.225,0.34541 -12.425,1.08672 -16,1.64735 -3.575,0.56062 -10.1,1.24356 -14.5,1.51763 -13.38264,0.8336 -15.95911,1.02977 -17,1.29437 -0.55,0.13982 -3.7,0.17455 -7,0.0772 -3.3,-0.0974 -7.87684,0.49333 -10.17076,1.31266 -3.70835,1.32453 -4.23498,1.32234 -4.75,-0.0198 z M 883,482 c 0,-0.55 0.45,-1 1,-1 0.55,0 1,0.45 1,1 0,0.55 -0.45,1 -1,1 -0.55,0 -1,-0.45 -1,-1 z m -261.06167,-2.5743 c -0.78936,-0.95112 -0.59471,-1.52888 0.7471,-2.21763 3.90621,-2.00503 8.3152,-2.48173 20.95385,-2.26552 7.25925,0.12419 13.39561,-0.18999 13.71207,-0.70203 1.44147,-2.33235 54.16463,-1.8269 64.64865,0.61978 2.27866,0.53177 4.37239,0.39874 6,-0.38123 1.375,-0.65892 4.63894,-1.47786 7.2532,-1.81986 2.61426,-0.34201 6.43926,-1.4747 8.5,-2.5171 3.8087,-1.92658 6.52491,-2.02515 19.7468,-0.71664 11.40755,1.12895 20.85484,5.61969 17.94462,8.52991 -0.68058,0.68058 -2.9584,0.63248 -6.97753,-0.14734 -7.97303,-1.54697 -25.21348,-1.14787 -33.37222,0.77253 -8.81114,2.07396 -25.1066,2.4846 -36.40218,0.91731 -5.05598,-0.70153 -9.63478,-1.00934 -10.17511,-0.68403 -1.51092,0.90966 -4.90273,1.02109 -6.01758,0.19769 -0.99583,-0.73548 -2.29464,-0.6631 -8,0.44583 -1.65,0.32071 -15.2612,0.73418 -30.2471,0.91882 -21.31447,0.26262 -27.47953,0.0557 -28.31457,-0.95049 z M 785,478 c 0,-0.55 0.62515,-1 1.38922,-1 0.76406,0 2.45156,-0.89086 3.75,-1.97968 2.01792,-1.69218 2.14293,-2.12787 0.86078,-3 -1.33333,-0.90695 -1.33333,-1.12973 0,-2.00501 4.23867,-2.78251 5.79566,-0.16216 2.23552,3.76228 C 789.515,477.87881 785,480.19368 785,478 Z m 94.44615,-4.08713 c -0.94503,-1.52909 1.1059,-3.29874 2.98663,-2.57704 0.86197,0.33077 1.56722,1.29052 1.56722,2.13279 0,1.74768 -3.53514,2.09255 -4.55385,0.44425 z M 221.5,418.83302 c -1.1,-0.60839 -2.98953,-2.00156 -4.19895,-3.09594 -2.06314,-1.8669 -3.49897,-1.97862 -23.25,-1.80911 C 176.26293,414.08063 173,413.8843 173,412.66131 173,410.87902 175.13349,410 179.45934,410 c 1.81268,0 3.81068,-0.62043 4.44001,-1.37872 1.39464,-1.68044 17.6665,-2.66447 23.60065,-1.42725 4.82333,1.00563 11.62276,2.05954 13,2.01499 0.55,-0.0178 5.95,-0.32908 12,-0.69176 6.05,-0.36268 19.775,-0.88581 30.5,-1.16252 10.725,-0.2767 20.85,-0.71426 22.5,-0.97235 1.65,-0.25808 4.575,-0.6486 6.5,-0.8678 6.20307,-0.70636 10.02315,-1.41086 11.03237,-2.03459 1.31241,-0.81112 4.96763,0.39517 4.96763,1.63941 0,0.54154 -1.4057,1.47466 -3.12378,2.07359 -4.58788,1.59934 -1.65712,2.74843 6.18096,2.42341 6.3655,-0.26395 9.94282,0.58868 9.94282,2.3698 0,0.52613 -9.52476,0.93098 -22.38325,0.9514 -12.31078,0.0196 -22.99828,0.26039 -23.75,0.53518 -0.75171,0.2748 -4.29175,0.71244 -7.86675,0.97254 -3.575,0.2601 -9.65,0.95372 -13.5,1.54137 -5.03895,0.76913 -30,4.06563 -30,3.96197 0,-0.005 -0.9,-0.50726 -2,-1.11565 z m 9.90343,-4.67676 c 0.74865,-1.21135 -5.93514,-3.06371 -7.52012,-2.08414 -1.41745,0.87603 -0.76189,1.28446 3.61669,2.25333 3.242,0.71737 3.35863,0.71232 3.90343,-0.16919 z m 70.63175,-14.09052 c -0.56935,-1.06384 -1.03518,-2.41384 -1.03518,-3 0,-1.51598 3.15709,-1.26169 5.39838,0.43481 1.5697,1.18814 1.67835,1.70207 0.62756,2.96819 -1.73135,2.08615 -3.74565,1.9235 -4.99076,-0.403 z M 820.44615,263.91287 c -0.91966,-1.48804 0.31204,-2.36468 5.3269,-3.79134 C 831.12089,258.60014 842,259.6034 842,261.61796 c 0,0.7478 -1.0125,1.35507 -2.25,1.34948 -5.91768,-0.0267 -12.6795,0.62872 -13.34423,1.29346 -1.12141,1.12141 -5.19861,0.8833 -5.95962,-0.34803 z M 739.3793,241.28736 c 0.95308,-0.95308 9.79287,-4.28552 11.3707,-4.28655 2.67589,-0.002 1.04603,1.80537 -3.03343,3.36333 -4.32229,1.6507 -9.65529,2.24124 -8.33727,0.92322 z M 111.01531,178.25 c 0.008,-0.4125 0.45153,-1.425 0.98469,-2.25 0.78387,-1.21296 0.9723,-1.06944 0.98469,0.75 0.008,1.2375 -0.43469,2.25 -0.98469,2.25 -0.55,0 -0.99311,-0.3375 -0.98469,-0.75 z m 884.44357,-0.31653 c -0.36253,-0.58659 -0.41903,-1.30665 -0.12555,-1.60014 0.71632,-0.71631 2.66667,0.54583 2.66667,1.72569 0,1.27797 -1.72641,1.19267 -2.54112,-0.12555 z m 81.76762,-30.19242 c -1.8555,-1.97509 -2.0027,-2.79076 -1.1714,-6.49098 0.523,-2.32761 0.8963,-4.57358 0.8295,-4.99104 -0.067,-0.41747 -0.068,-2.04901 0,-3.62566 0.1031,-2.49641 0.409,-2.77586 2.3684,-2.16378 1.2375,0.38657 3.1293,0.68511 4.2039,0.66342 3.5268,-0.0712 4.4699,1.66476 3.9077,7.19287 -0.7187,7.06688 -2.1221,10.37551 -4.6935,11.06525 -3.107,0.83342 -3.1091,0.83279 -5.4416,-1.65008 z m 2.9902,-7.92438 c -1.5275,-1.52752 -2.6547,-0.40039 -1.8075,1.80742 0.5003,1.30358 0.934,1.43275 1.8236,0.54313 0.8896,-0.88963 0.8858,-1.44865 -0.016,-2.35055 z M 1117,149.268 c -5.7782,-1.06236 -6.3971,-4.06528 -2.0278,-9.83986 1.6347,-2.16048 2.9847,-4.5136 3,-5.22917 0.036,-1.66572 6.4253,-4.36739 8.4719,-3.58205 1.4648,0.56209 1.9933,1.76972 1.6379,3.74221 -0.085,0.47252 0.7958,2.8227 1.9576,5.22261 3.2064,6.62354 0.064,9.18248 -4.1977,3.41826 -3.6782,-4.97502 -6.1152,-3.72308 -6.0212,3.09317 0.03,2.14876 -0.03,3.84555 -0.1334,3.77065 -0.103,-0.0749 -1.3123,-0.34302 -2.6873,-0.59582 z m -16.845,-2.58123 c -0.6096,-0.7345 -0.8353,-2.88193 -0.5122,-4.87287 0.5603,-3.45279 -0.8266,-5.94357 -2.1327,-3.83021 -1.3363,2.1622 -3.5101,1.00361 -3.5101,-1.87084 0,-2.87567 0.029,-2.88896 7.25,-3.34085 3.9875,-0.24953 7.8125,-0.0202 8.5,0.5096 1.7912,1.38037 1.6344,7.7184 -0.191,7.7184 -0.7925,0 -1.7191,-0.45 -2.059,-1 -1.1298,-1.82806 -2.6469,-1.03295 -2.385,1.25 0.6021,5.24966 -2.3917,8.53133 -4.96,5.43677 z M 958.5,146.28693 c -3.10095,-0.74587 -3.34294,-1.31884 -3.68083,-8.71534 -0.3115,-6.81881 -0.27302,-6.94004 2.43216,-7.66352 3.68123,-0.98451 8.16877,0.32106 8.58832,2.49862 0.27464,1.42546 -0.24693,1.70132 -2.72517,1.44137 -1.68565,-0.17681 -3.07019,0.12254 -3.07676,0.66523 -0.007,0.54269 0.7703,1.00346 1.72637,1.02392 4.39337,0.0941 5.15906,4.0478 0.90136,4.65432 -2.71448,0.38668 -2.41317,2.26796 0.38841,2.42513 2.58316,0.14492 4.39374,1.85009 3.49999,3.29621 -0.67651,1.09462 -4.34904,1.26519 -8.05385,0.37406 z m 19.61001,-0.17556 c -3.88866,-0.7013 -4.66612,-2.21933 -5.01318,-9.78858 -0.19433,-4.23826 0.11259,-5.3645 1.69231,-6.20994 1.72204,-0.92161 7.372,-0.67454 11.07348,0.48424 2.54981,0.79823 -0.88317,3.40291 -4.48506,3.40291 -4.32896,0 -4.44704,1.96103 -0.12756,2.11842 1.7875,0.0651 3.62276,0.0534 4.07835,-0.0261 0.4556,-0.0795 0.67657,0.65472 0.49106,1.63158 -0.24513,1.29077 -1.56455,1.91275 -4.82835,2.27612 -4.71151,0.52454 -4.49674,1.78368 0.30061,1.76239 3.50254,-0.0155 4.42826,0.87273 3.10152,2.97605 -1.26241,2.00134 -1.95703,2.15312 -6.28318,1.37293 z m -41.45502,-1.94011 C 935.74474,143.16545 935,141.81545 935,141.17126 935,140.52707 934.74286,140 934.42857,140 933.44726,140 931,142.80415 931,143.92857 931,144.51786 930.13512,145 929.07805,145 c -1.35478,0 -2.83028,-1.81773 -5,-6.15972 C 922.38512,135.45243 921,132.52743 921,132.34028 921,132.15312 922.11463,132 923.47695,132 c 1.54925,0 3.10051,0.95169 4.14188,2.54102 l 1.66494,2.54102 2.17257,-2.04102 c 2.93263,-2.75507 4.96865,-2.56754 7.07812,0.65191 l 1.76448,2.69294 3.22928,-3.84645 c 2.19731,-2.61724 3.74739,-3.64763 4.85054,-3.22432 2.1974,0.84322 2.04015,2.99581 -0.37876,5.1849 -1.1,0.99549 -2,2.37523 -2,3.06609 0,1.28643 -5.53777,6.43391 -6.92174,6.43391 -0.42256,0 -1.51303,-0.82293 -2.42327,-1.82874 z m 62.12897,0.72771 c -1.21335,-0.67902 -1.62234,-2.5023 -1.65993,-7.4 -0.0468,-6.0987 0.0895,-6.49897 2.21305,-6.49897 1.24462,0 2.76672,-0.50376 3.38242,-1.11947 2.0981,-2.09815 7.1859,1.15664 9.3212,5.96299 2.1775,4.90162 1.4553,7.63719 -2.4036,9.10435 -2.9352,1.11597 -8.819,1.08946 -10.85314,-0.0489 z m 8.86874,-4.43622 c 0.7256,-1.89107 -2.4879,-5.6428 -4.4967,-5.24977 -1.5221,0.29778 -2.4428,3.35958 -1.6652,5.53702 0.6347,1.77717 5.4559,1.55242 6.1619,-0.28725 z m 13.0973,4.821 c -2.5658,-0.38869 -2.75,-0.74224 -2.75,-5.27874 0,-4.62776 1.7177,-8.00501 4.0714,-8.00501 1.4713,0 4.9151,3.83434 5.9951,6.67491 1.0888,2.86381 -1.0481,7.45509 -3.3396,7.17526 -0.6748,-0.0824 -2.4644,-0.3373 -3.9769,-0.56642 z m 2.8384,-7.02869 c -1.0924,-1.0924 -1.8415,0.64486 -1.0572,2.45181 0.7437,1.71337 0.7976,1.71181 1.212,-0.0351 0.2385,-1.00555 0.1688,-2.09305 -0.1548,-2.41667 z m 8.7866,4.61994 c 0.3438,-1.71875 0.625,-4.86875 0.625,-7 0,-5.05229 2.1303,-5.13016 7.1176,-0.2602 3.9172,3.82512 5.4017,3.77965 6.9193,-0.21194 0.6317,-1.66144 1.6926,-2.40286 3.4383,-2.40286 3.0399,0 3.0441,0.0384 0.5186,4.75046 l -2.0063,3.74321 4.6357,1.18257 c 8.6446,2.20527 7.7726,3.56374 -1.9689,3.06736 -8.229,-0.41931 -9.0007,-0.64517 -11.0696,-3.2398 l -2.2239,-2.78907 -1.3017,3.14264 c -0.847,2.04478 -2.0017,3.14263 -3.3054,3.14263 -1.7108,0 -1.9123,-0.4568 -1.3787,-3.125 z M 875.5,46 c -0.9233,-1.493938 0.36137,-3 2.55902,-3 C 879.12656,43 880,42.325 880,41.5 c 0,-0.825 -0.8632,-1.5 -1.91821,-1.5 -4.64096,0 -7.08839,-3.239886 -3.33179,-4.410596 3.22034,-1.00359 15.5937,-2.495017 16.42697,-1.98003 1.40274,0.866943 0.90748,3.608387 -0.88922,4.922171 -1.41606,1.035447 -1.49055,1.519169 -0.43061,2.79632 0.96553,1.163388 1.0092,2.053361 0.17707,3.608213 C 889.09471,46.691554 887.97231,47 882.52383,47 879.00064,47 875.83992,46.55 875.5,46 Z"
     id="path12"
     inkscape:connector-curvature="0" />
</svg>
