<?xml version="1.0" encoding="utf-8"?>
<svg xmlns="http://www.w3.org/2000/svg" version="1.1" viewBox="0 0 1141 479">
	<path d="m 680.54688,15.035156 c -0.37616,0.01409 -0.74965,0.05614 -1.10938,0.126953 -1.73039,0.340623 -3.04733,3.957689 -5.85742,16.085938 -1.47505,6.366255 -1.63549,6.613334 -9.89844,15.203125 -8.51873,8.855686 -13.26387,16.207094 -14.56836,22.570312 -0.65421,3.191168 -1.01558,12.995428 -0.86719,23.478516 l 0.25391,18 -6.7207,13.73047 c -10.5226,21.49452 -12.38137,32.02753 -7.34571,41.65039 1.32967,2.54091 3.14569,6.19414 4.03516,8.11914 0.88948,1.925 2.86636,4.9597 4.39258,6.74414 2.50993,2.93458 3.45991,3.30559 9.9375,3.87891 5.73141,0.50727 7.66128,0.30507 9.66797,-1.00977 2.90985,-1.9066 6.5332,-8.48478 6.5332,-11.86133 0,-1.28018 1.33133,-3.88484 2.95898,-5.78906 1.62765,-1.90423 2.9777,-3.96393 3,-4.57617 0.0486,-1.33116 11.98679,-12.24269 17.30469,-15.81641 3.39247,-2.27981 4.45712,-2.47708 10.79883,-2.00586 3.86968,0.28753 8.16917,0.9525 9.55273,1.47852 1.38356,0.52603 5.20849,0.95703 8.5,0.95703 9.6262,0 12.7135,2.31355 17.34766,13 1.55029,3.575 3.59777,8.3 4.55078,10.5 1.7492,4.03798 4.12871,11.73376 4.48242,14.5 0.10549,0.825 0.79203,3.525 1.52735,6 0.73532,2.475 1.368,4.79935 1.40625,5.16602 0.0382,0.36666 0.40781,1.00546 0.82031,1.41796 0.4125,0.4125 0.75,2.23639 0.75,4.05469 0,1.8183 1.08653,5.68146 2.41406,8.58399 1.32753,2.90254 2.69941,7.07734 3.04883,9.27734 0.34943,2.2 1.33228,6.16487 2.18555,8.81055 1.4556,4.5133 1.43732,4.93615 -0.29883,6.86328 -1.01772,1.12967 -4.77461,3.42531 -8.34961,5.10156 -3.575,1.67626 -8.78638,4.49656 -11.58008,6.26563 -2.7937,1.76906 -6.12482,3.54765 -7.40234,3.95312 -1.27752,0.40547 -4.52241,2.03473 -7.21289,3.62109 -2.69048,1.58637 -5.22078,2.88477 -5.6211,2.88477 -0.40033,0 -4.5421,2.4791 -9.20507,5.50977 -8.12064,5.27795 -8.59167,5.79071 -11.17383,12.14648 -1.77645,4.3726 -2.50115,7.60945 -2.125,9.49023 C 697.09958,285.24592 696.8624,286 695.78516,286 694.17351,286 692,290.01319 692,292.98828 c 0,1.04166 -0.38872,2.13445 -0.86328,2.42774 -0.47455,0.29329 -1.42228,2.68192 -2.10742,5.30859 -0.68515,2.62667 -1.81855,6.12539 -2.51758,7.77539 -0.69902,1.65 -2.27097,6.15 -3.49414,10 -3.2934,10.36618 -11.24838,25.89175 -18.40235,35.91797 -1.0366,1.45278 -2.25058,4.59926 -2.69726,6.99023 -0.44668,2.39097 -1.95994,6.03754 -3.36328,8.10547 -2.35421,3.46912 -4.79605,10.11279 -4.27539,11.63086 0.12168,0.35476 -0.6793,1.64579 -1.7793,2.86914 -1.86475,2.07386 -2.541,2.17747 -10,1.53321 -4.4,-0.38005 -10.475,-0.88903 -13.5,-1.13282 -3.025,-0.24379 -6.625,-0.73676 -8,-1.09375 -1.375,-0.35699 -2.85326,-0.56935 -3.28516,-0.47265 -0.43191,0.0967 -8.98191,-0.29695 -19,-0.875 -19.43676,-1.1215 -43.98085,-1.24928 -57.44726,-0.29883 -7.27586,0.51353 -8.31112,0.37476 -8.91211,-1.19141 -0.44629,-1.163 -0.0227,-2.2581 1.23242,-3.18554 1.52156,-1.12431 4.36498,-1.27908 13.91211,-0.76368 6.6,0.3563 21.97095,0.7794 34.1582,0.94141 12.18725,0.16196 22.68972,0.62285 23.33789,1.02344 1.56231,0.96556 3.72223,-1.1826 2.45313,-2.43946 -0.73827,-0.73115 -32.05259,-2.2922 -39.44922,-1.96679 -4.17123,0.18351 -23.18713,-0.24127 -28,-0.625 -3.025,-0.24119 -8.65,-0.67123 -12.5,-0.95703 -15.05501,-1.11762 -19.07423,-1.48393 -21,-1.91211 -1.1,-0.24457 -2.8367,-0.47939 -3.85938,-0.52149 -1.5283,-0.0629 -1.76705,-0.65489 -1.33984,-3.32617 0.92693,-5.79597 1.27546,-6.66958 3.67578,-9.22461 2.26953,-2.4158 2.96747,-5.15483 5.87305,-23.01758 L 511.5,330.51562 518,329.3125 c 3.575,-0.6614 7.27736,-0.975 8.22656,-0.69727 3.76328,1.10113 32.19397,-6.15471 38.27344,-9.76757 1.65,-0.98054 5.025,-2.7568 7.5,-3.94727 2.475,-1.19047 6.38059,-3.45589 8.67969,-5.0332 5.47807,-3.75827 5.46712,-3.75803 15.9707,0.77343 1.73312,0.74771 3.49831,1.35938 3.92188,1.35938 0.42357,0 1.64178,0.7875 2.70703,1.75 2.76048,2.49416 19.72138,2.46499 22.48828,-0.0391 1.77393,-1.60539 1.98105,-1.54222 4.04687,1.25195 2.45593,3.32183 7.29993,4.70559 11.23633,3.20899 2.3428,-0.89074 2.62099,-1.70491 3.78711,-11.04883 0.69239,-5.54796 2.13241,-12.74643 3.19922,-15.9961 4.17301,-12.71163 3.33592,-16.73094 -2.37305,-11.39453 -1.73997,1.62642 -6.08906,4.89926 -9.66406,7.27344 -3.575,2.37419 -7.71875,5.14503 -9.20898,6.15625 -3.44101,2.335 -5.65146,2.29369 -8.79102,-0.16211 -1.375,-1.07554 -2.95,-1.97028 -3.5,-1.98828 -0.55,-0.018 -3.7,-2.0693 -7,-4.5586 -9.55985,-7.21125 -15.22744,-10.60109 -19.25195,-11.51562 -4.69635,-1.0672 -12.17465,0.57797 -29.96094,6.59375 C 551.02009,283.98914 544.18372,286 543.0957,286 c -1.08802,0 -2.2359,0.41629 -2.55078,0.92578 -0.31489,0.50947 -2.92852,0.71416 -5.80859,0.45313 -5.26365,-0.47704 -9.67934,0.90977 -10.46289,3.28711 -0.21137,0.64131 0.42893,1.32987 1.42187,1.53125 2.11162,0.42826 13.12023,-0.91035 15.30469,-1.86133 0.825,-0.35915 2.85,-0.80812 4.5,-0.99805 3.67468,-0.42297 12.96019,-2.84927 21,-5.48633 14.8652,-4.87581 14.39077,-4.78055 14.92383,-2.99414 0.26951,0.90318 0.62197,6.5562 0.7832,12.56055 l 0.29297,10.91601 -10,4.39258 c -19.86422,8.72717 -31.07909,12.14481 -45,13.71094 -2.2,0.2475 -6.84586,0.76627 -10.32422,1.15234 -3.47835,0.38606 -6.91131,1.28825 -7.6289,2.00586 -0.71763,0.71761 -1.62868,3.4593 -2.02344,6.0918 -0.39477,2.6325 -1.29636,5.91658 -2.00391,7.29883 -0.70755,1.38224 -1.86546,5.21367 -2.57422,8.51367 -0.70877,3.3 -2.11172,7.1944 -3.11719,8.6543 -1.00544,1.4599 -1.82812,3.06574 -1.82812,3.56836 0,0.50261 -1.41255,2.75216 -3.13867,4.99804 -3.12865,4.07073 -3.1558,4.08161 -8.75,3.5918 -3.08638,-0.27023 -9.43633,-0.62514 -14.11133,-0.78711 -14.28975,-0.49508 -17.73521,-1.32846 -18.86328,-4.56445 -0.5351,-1.5351 -0.81186,-2.95183 -0.61524,-3.14844 1.63365,-1.63365 3.33497,-49.39409 1.98829,-55.8125 -0.28849,-1.375 -0.98756,-6.775 -1.55469,-12 -0.56713,-5.225 -1.4153,-10.66564 -1.88477,-12.08984 -0.46946,-1.42421 -0.6243,-3.79021 -0.34375,-5.25782 0.28055,-1.4676 10e-4,-3.90195 -0.62109,-5.41015 -1.34611,-3.26274 -2.1127,-6.45388 -2.72656,-11.35938 l -0.45313,-3.61523 6.28711,-0.81446 c 8.65178,-1.11825 8.17833,-1.06945 18.65039,-1.88867 9.86087,-0.7714 13.11666,-1.65033 22.27539,-6.00976 5.43056,-2.58487 5.75772,-2.9665 8.87305,-10.36914 1.77898,-4.2272 4.32551,-11.28555 5.66016,-15.68555 6.21675,-20.49526 10.23741,-34.62289 11.80859,-41.5 0.94242,-4.125 1.8934,-8.09966 2.11523,-8.83203 0.39809,-1.31428 6.76923,-1.13509 8.13282,0.22851 0.64102,0.64102 0.4253,34.54682 -0.22657,35.60157 -0.21412,0.34646 -0.6792,8.47639 -1.0332,18.0664 -0.35399,9.59002 -0.81332,18.51951 -1.01953,19.84375 -0.20621,1.32423 -0.65107,4.47423 -0.99024,7 -1.07618,8.01426 -6.49094,22.98067 -9.95703,27.52149 -1.8132,2.37542 -3.80996,5.27641 -4.43554,6.44531 -0.81308,1.51925 -2.0938,2.125 -4.49414,2.125 -3.34055,0 -5.8707,2.65452 -3.30469,3.4668 3.33206,1.05478 14.92457,2.53198 15.76953,2.00976 1.74172,-1.07644 1.00431,-3.47656 -1.06836,-3.47656 -4.41846,0 -3.1474,-3.51302 6.26367,-17.31055 3.53833,-5.18755 5.84265,-13.85085 6.30274,-23.68945 0.67112,-14.35107 2.50276,-41.60288 2.95312,-43.94141 0.7178,-3.72727 1.57746,-4.12888 8.46484,-3.95507 3.73628,0.0943 7.22144,-0.093 7.74415,-0.41602 0.52272,-0.32306 3.99115,-0.81045 7.70703,-1.08203 3.71588,-0.27158 7.28224,-0.92015 7.92578,-1.44141 0.64355,-0.52126 3.72802,-1.47195 6.85547,-2.11328 4.68398,-0.96051 6.58633,-0.89963 10.79297,0.34961 3.68671,1.09483 5.82927,1.24369 7.70312,0.53125 1.42761,-0.54277 2.34483,-1.23719 2.03906,-1.54297 -0.30578,-0.30577 0.3161,-3.0888 1.38086,-6.18359 1.06476,-3.09479 2.10431,-6.55794 2.31055,-7.69531 0.20625,-1.13736 1.77393,-6.02864 3.48242,-10.86915 3.38346,-9.58605 3.76772,-12.25256 1.85938,-12.88867 -1.32621,-0.44207 -9.48233,5.25467 -21.75391,15.19727 -5.22506,4.23341 -8.10665,5.93068 -9.5,5.5918 -1.1,-0.26754 -3.41618,0.0235 -5.14648,0.64843 -2.52631,0.91246 -3.80669,0.83227 -6.5,-0.41406 -1.8447,-0.85363 -4.47852,-1.84742 -5.85352,-2.20703 -1.375,-0.3596 -4.75,-1.72581 -7.5,-3.03516 -2.75,-1.30935 -7.025,-3.14987 -9.5,-4.09179 -2.475,-0.94192 -5.91727,-2.32783 -7.65039,-3.07813 -8.59791,-3.72219 -9.9462,-2.04369 -15.7832,19.63672 -4.41129,16.3849 -7.64647,27.44298 -8.49414,29.0332 -0.44939,0.84306 -1.12334,3.09306 -1.4961,5 -1.01389,5.18678 -5.56722,16.03005 -8.27344,19.70313 -3.2867,4.46096 -5.00741,5.17825 -13.82812,5.76172 -4.22113,0.27922 -8.06797,0.75089 -8.54688,1.04687 -0.47891,0.29598 -7.94907,1.38217 -16.60156,2.41406 -16.73455,1.99576 -19.43096,3.10927 -17.27344,7.14063 1.00766,1.88283 4.7194,19.23885 4.6836,21.90039 -0.0401,2.98587 1.28274,17.66954 2.25195,25 0.54539,4.125 1.44651,11.00605 2.00195,15.29102 1.27684,9.85059 1.27241,19.14814 -0.0137,33.70898 -1.34471,15.22502 -1.46564,15.64758 -4.71875,16.50781 -2.68581,0.71027 -22.59726,0.73828 -40.75781,0.0566 -10.05838,-0.37752 -13.76669,0.12864 -13.21484,1.80469 0.48923,1.48584 9.00572,2.49654 26.21484,3.10938 7.7,0.2742 15.8,0.7737 18,1.11132 5.06861,0.77784 8.49319,0.63484 9.89844,-0.41406 1.70026,-1.2691 6.96782,-1.31504 14.36523,-0.12695 3.70479,0.59502 16.18633,1.29801 27.73633,1.5625 11.55,0.26449 22.35,0.83587 24,1.26953 1.65,0.43366 6.77567,0.59608 11.39062,0.36133 8.11731,-0.41289 8.37312,-0.35831 7.84376,1.66601 -0.30098,1.15089 -0.13914,2.0918 0.35937,2.0918 1.11019,0 1.20883,2.69614 0.12305,3.36719 -0.43116,0.26647 -5.26866,0.0934 -10.75,-0.38281 -7.49289,-0.65103 -10.27573,-0.56179 -11.21289,0.35742 -0.98274,0.96392 7.37479,1.26366 39.5,1.41601 22.41057,0.10628 43.22109,0.40966 46.24609,0.67383 3.025,0.26417 9.775,0.76949 15,1.12305 5.225,0.35357 11.975,1.18855 15,1.85547 3.025,0.66692 6.82807,1.09201 8.45117,0.94531 1.62311,-0.14669 3.48948,0.17934 4.14649,0.72461 0.79096,0.65646 3.44277,0.63175 7.84961,-0.0723 3.66055,-0.5848 7.05862,-0.81319 7.55273,-0.50781 0.49411,0.30538 0.64359,2.72207 0.33008,5.36914 -0.67651,5.71209 0.80556,9.13395 3.95508,9.12695 2.28394,-0.005 9.71484,-6.07932 9.71484,-7.9414 0,-0.57645 1.57787,-2.79564 3.50586,-4.92969 3.13663,-3.47187 3.48204,-4.41066 3.28516,-8.93555 -0.26411,-6.06996 1.26518,-8.14841 8.36132,-11.35547 4.09393,-1.85022 5.06556,-2.82816 6.04102,-6.08398 0.88308,-2.94745 0.88336,-4.65086 0,-7.09375 -0.63946,-1.76835 -0.96967,-4.22317 -0.73242,-5.45508 0.39328,-2.04216 7.59028,-17.79045 11.17773,-24.45898 1.80077,-3.34736 2.29371,-10.87301 0.74805,-11.42188 -0.61219,-0.21739 -1.70192,1.08435 -2.42188,2.89258 -0.71996,1.80823 -2.80637,6.58171 -4.63672,10.60938 -1.83033,4.02767 -3.32812,7.5436 -3.32812,7.8125 0,0.26889 -1.21052,3.04762 -2.68945,6.17382 -2.03672,4.30528 -2.7255,7.38232 -2.83985,12.6875 -0.19831,9.20045 -0.10552,8.97344 -2.8789,7.15625 -2.28266,-1.49566 -2.49398,-1.44948 -4.02344,0.88477 -1.81252,2.76625 -5.64438,3.28055 -7.52734,1.01172 -2.92028,-3.51872 -1.4414,-8.86283 2.24804,-8.12305 7.98094,1.6003 8.71094,1.56815 8.71094,-0.38086 0,-1.18333 -0.81457,-2.02616 -2.14844,-2.22461 -4.23393,-0.6299 -4.576,-3.33304 -1.01562,-8.02148 1.79548,-2.36436 4.38975,-6.77383 5.76562,-9.79883 1.37587,-3.025 3.14532,-6.85 3.93164,-8.5 0.78631,-1.65 2.0838,-5.475 2.88282,-8.5 0.79902,-3.025 1.89388,-6.85 2.43359,-8.5 0.53971,-1.65 1.50554,-4.8 2.14648,-7 2.16314,-7.42495 4.4969,-12.49209 5.75391,-12.49609 0.80895,-0.002 1.25,-1.54758 1.25,-4.37891 0,-2.40625 0.28704,-5.80626 0.63672,-7.55469 0.85981,-4.29903 9.74468,-13.41074 15.02734,-15.41015 2.2904,-0.86688 6.5654,-3.09238 9.5,-4.94727 5.6196,-3.552 8.36182,-4.86533 10.83594,-5.18555 2.99355,-0.38745 6,-1.68256 6,-2.58593 0,-1.65784 21.82715,-12.03147 22.61914,-10.75 0.39415,0.63774 2.03712,3.80477 3.65234,7.03711 1.76106,3.5242 5.57289,8.45003 9.52149,12.30273 3.62159,3.53364 6.388,6.61699 6.14648,6.85352 -0.24152,0.23653 -4.93945,0.93979 -10.43945,1.5625 -5.5,0.62272 -12.25,1.56483 -15,2.09375 -2.75,0.52891 -9.787,1.16494 -15.63672,1.4121 -23.27889,0.98357 -30.28239,3.61133 -35.49609,13.31836 -1.85241,3.44888 -3.36719,6.90923 -3.36719,7.69141 0,0.78217 -0.86191,2.91153 -1.91602,4.73047 -1.63676,2.82433 -1.78141,4.10961 -0.98632,8.80664 0.51205,3.025 0.87674,6.625 0.81054,8 -0.43344,8.99963 1.46683,10.60388 2.36914,2 1.0638,-10.14382 2.97953,-17.55652 6.16016,-23.84961 5.87955,-11.63311 9.13338,-13.19452 30.5625,-14.64844 4.675,-0.3172 11.2,-0.86179 14.5,-1.21093 3.3,-0.34914 7.91046,-0.70597 10.24609,-0.79297 2.33562,-0.087 4.54444,-0.4546 4.90821,-0.81836 0.36376,-0.36377 1.27306,-0.15435 2.02148,0.46679 1.03694,0.86059 1.82729,0.70664 3.32031,-0.64453 3.96971,-3.59254 14.47169,-3.50285 21.77735,0.18555 2.90007,1.46417 5.67873,3.15304 6.17578,3.75195 1.32592,1.59763 -2.10771,14.82436 -5.98633,23.06055 -4.32976,9.19417 -10.07579,17.37832 -17.47851,24.89258 -7.32641,7.43676 -9.82147,10.87993 -12.08008,16.66601 -1.61717,4.14285 -21.43056,38.01452 -29.02149,49.61329 -1.86139,2.84413 -3.6945,5.99414 -4.07226,7 -0.37776,1.00583 -2.09723,3.85312 -3.82032,6.32812 -1.7231,2.475 -4.43765,6.73525 -6.0332,9.4668 -1.59554,2.73154 -5.64056,7.90654 -8.99023,11.5 -8.3561,8.96423 -10.82365,12.7674 -11.0293,17.00781 -0.0966,1.99289 -0.50446,4.65985 -0.90625,5.92578 -1.02079,3.21621 0.0666,3.88896 7.28711,4.51367 15.49311,1.34047 65.4582,0.16387 85.68164,-2.01758 2.75,-0.29664 16.25,-0.68394 30,-0.85937 13.75,-0.17543 31.525,-0.65321 39.5,-1.0625 7.975,-0.40928 16.075,-0.67257 18,-0.58399 1.925,0.0886 10.475,0.36976 19,0.62305 8.525,0.25329 19.775,0.73413 25,1.07031 5.225,0.33619 12.875,0.70833 17,0.82618 4.125,0.11785 7.725,0.32315 8,0.45507 0.47366,0.22723 11.79519,0.73968 33,1.4961 5.225,0.18639 11.525,0.46219 14,0.61133 2.475,0.14913 8.55,-0.0512 13.5,-0.44336 15.1158,-1.19749 45.4388,-0.98692 54,0.375 4.4,0.69995 12.4494,1.43011 17.8867,1.62109 5.4374,0.19097 10.3641,0.82502 10.9492,1.41016 2.2573,2.25729 3.3938,0.9277 4.0039,-4.68555 0.3438,-3.1625 1.6978,-8.7875 3.0098,-12.5 1.3119,-3.7125 2.0493,-6.75 1.6387,-6.75 -0.9414,0 -3.4773,6.68055 -5.6035,14.76172 -0.3336,1.26797 -7.5048,1.22681 -45.3848,-0.25977 -16.739,-0.65692 -28.9354,-0.61441 -38,0.13086 -9.7975,0.80553 -55.77185,0.6121 -59,-0.24804 -2.81063,-0.74888 -3.28088,-0.79014 -22,-1.99024 -7.425,-0.47603 -14.85,-0.81902 -16.5,-0.76172 -10.18975,0.35415 -26.82535,0.4963 -46,0.39453 -27.02492,-0.14343 -65.09851,0.60557 -66.22656,1.30274 -1.75047,1.08185 -15.5167,2.01653 -34.27344,2.32617 -10.725,0.17705 -20.175,0.37932 -21,0.44922 -0.825,0.0699 -5.325,-0.21973 -10,-0.64258 -4.675,-0.42284 -10.62178,-0.83416 -13.21484,-0.91406 -2.59306,-0.0799 -4.95647,-0.38616 -5.25196,-0.68164 -0.29548,-0.29549 1.2638,-2.43036 3.46485,-4.74414 2.37993,-2.50183 4.00195,-5.17603 4.00195,-6.59766 0,-1.5185 0.73514,-2.62484 2.01562,-3.03125 2.70219,-0.85764 9.33173,-11.00909 11.52344,-17.64453 5.59726,-16.94587 24.01274,-43.82775 32.14063,-46.91797 1.27576,-0.48504 2.32031,-1.52863 2.32031,-2.31836 0,-0.78972 1.40758,-2.61995 3.12891,-4.06836 1.72134,-1.4484 4.17981,-4.07685 5.46289,-5.83984 C 792.33466,350.18839 798,341.84463 798,341.375 c 0,-1.57798 4.23142,-9.34797 6.21875,-11.41992 1.29486,-1.35001 2.89887,-3.71028 3.56445,-5.24414 0.66558,-1.53386 3.16302,-4.90886 5.55078,-7.5 2.38777,-2.59114 6.27848,-7.41094 8.64649,-10.71094 8.8537,-12.33827 9.95174,-12.85579 22.13281,-10.42578 2.96257,0.59101 7.65378,1.04546 10.42578,1.00976 2.772,-0.0357 6.42327,0.33172 8.11328,0.81641 1.69,0.48468 4.96122,0.53539 7.26954,0.11328 3.67141,-0.67136 4.10151,-0.56359 3.43359,0.85938 -1.18539,2.52538 -1.63557,16.24529 -0.56836,17.3125 0.60329,0.60329 2.34448,0.28714 4.75,-0.86524 4.10431,-1.96621 6.94248,-6.4295 7.83789,-12.32031 1.35789,-8.93342 1.56334,-9.12417 13.90625,-12.94141 5.62008,-1.7381 11.87779,-3.76447 13.90625,-4.5039 4.41046,-1.60775 4.89654,-1.27797 4.12305,2.8125 -0.97303,5.14566 -2.10656,6.48121 -7.66016,9.02148 -6.51858,2.98166 -9.08365,6.49188 -8.19727,11.2168 0.41981,2.23764 1.21835,3.41784 2.3418,3.46484 4.18125,0.17485 9.66686,1.08839 10.99219,1.83008 1.00664,0.56334 -3.68748,3.31482 -15.41992,9.03516 -28.39562,13.84473 -29.09138,14.24112 -32.86524,18.75586 -1.98107,2.37 -4.2327,4.30859 -5.0039,4.30859 -2.169,0 -7.37963,8.31267 -11.19532,17.85742 -1.90049,4.75395 -4.24738,9.31758 -5.21484,10.14258 -2.51333,2.14324 -6.95847,10.25185 -8.58789,15.66602 -3.20698,10.65597 2.01952,14.8471 12,9.62304 7.16265,-3.74913 10.12167,-9.12529 11.00781,-20 0.25143,-3.0856 0.9981,-4.9553 2.36133,-5.91015 1.09685,-0.76826 2.13738,-2.40601 2.3125,-3.63868 0.25583,-1.80076 1.06131,-2.30208 4.0957,-2.55273 4.17707,-0.34503 5.98364,-2.51734 11.09961,-13.33594 2.92502,-6.18545 3.89203,-7.24241 7.62305,-8.3457 1.375,-0.4066 7.225,-2.99812 13,-5.75781 5.775,-2.75969 13.90841,-6.2277 18.07422,-7.70703 4.16581,-1.47933 8.55331,-3.66855 9.75,-4.86524 1.19669,-1.19669 3.21156,-2.17578 4.47656,-2.17578 1.265,0 2.76878,-0.46955 3.3418,-1.04297 0.57341,-0.57341 2.80013,-1.18651 4.94922,-1.36328 2.14908,-0.17678 6.3832,-1.4466 9.4082,-2.82031 C 955.6941,317.18762 965.65346,314 968.03711,314 c 3.58202,0 13.56532,-3.7781 16.01953,-6.0625 2.20162,-2.04928 2.87262,-3.75049 3.35156,-8.5 0.92054,-9.12876 4.60289,-25.53593 6.60742,-29.4375 2.03764,-3.96597 8.00398,-7.68846 10.18748,-6.35547 0.7699,0.47004 6.0466,4.23047 11.7266,8.35547 5.68,4.125 11.7326,8.33145 13.4492,9.34766 1.7165,1.0162 5.3711,3.55381 8.1211,5.63867 2.75,2.08487 7.4248,5.07841 10.3887,6.65234 8.1325,4.31864 8.0913,4.28858 17.4961,12.86133 4.827,4.4 11.9375,11.94753 15.8007,16.77148 5.8364,7.28787 6.8158,9.02269 5.7891,10.25977 -0.9986,1.20323 -0.7399,2.87701 1.3477,8.72852 1.4207,3.9822 2.7854,8.67589 3.0332,10.42968 0.2477,1.75379 0.7498,3.67244 1.1152,4.26367 0.3654,0.59126 0.8568,7.03059 1.0918,14.31055 0.2351,7.27997 0.6622,15.31273 0.9492,17.85156 0.5022,4.44218 -1.3252,14.77391 -3.6465,20.61524 -3.0691,7.72275 -4.9688,19.17121 -3.6113,21.76953 1.7719,3.39173 2.9578,3.45127 7.4375,0.36914 2.379,-1.63677 4.8024,-2.68221 5.3848,-2.32226 0.5824,0.35993 1.303,-0.28639 1.6035,-1.43555 0.3005,-1.14915 0.9273,-1.8547 1.3906,-1.56836 1.1778,0.72796 3.7132,-3.43038 4.3652,-7.1582 0.3027,-1.73057 -0.067,-4.39757 -0.83,-6 -2.5364,-5.32341 -2.719,-7.97312 -0.6778,-9.82032 1.0428,-0.94378 2.4986,-1.81244 3.2344,-1.92968 3.4226,-0.54538 5.0371,-2.41681 5.0371,-5.83985 0,-5.73156 -2.2006,-14.83855 -5.3183,-22.00586 -1.6055,-3.69085 -2.8848,-7.96585 -2.8438,-9.5 0.1102,-4.09982 -1.8245,-18.13483 -2.6933,-19.54101 -0.4118,-0.66594 -0.825,-3.92028 -0.92,-7.23047 -0.2685,-9.37179 -2.4384,-30.58384 -3.582,-35.01758 -0.8765,-3.39864 -2.0608,-11.00525 -3.1523,-20.25195 -0.4012,-3.39842 -3.087,-5.48799 -7.6407,-5.94336 -2.2515,-0.22515 -5.9314,-1.05707 -8.1777,-1.84961 -2.2463,-0.79254 -4.4378,-1.22357 -4.8691,-0.95703 -0.4313,0.26655 -1.5992,-0.74808 -2.5958,-2.25586 -2.5616,-3.87587 -9.3934,-16.40844 -10.0624,-18.45899 -0.3081,-0.94429 -1.4126,-1.98808 -2.4532,-2.31836 -1.0406,-0.33028 -1.8906,-0.9452 -1.8906,-1.36718 0,-0.42198 1.8,-5.19075 4,-10.59766 2.2,-5.40691 4.0059,-10.31947 4.0059,-10.91602 0,-0.59654 0.7384,-2.43398 1.6328,-4.08398 2.3973,-4.42193 2.4328,-36.03267 0.049,-42.5 -2.8526,-7.73766 -2.4446,-8.93598 5.5625,-16.35352 3.9875,-3.6939 7.5642,-7.03816 7.9492,-7.43164 3.3282,-3.40157 4.8008,-5.42456 4.8008,-6.59961 0,-0.76174 1.125,-2.1225 2.5,-3.02343 2.5548,-1.67394 3.3348,-4.9581 1.4531,-6.1211 -0.5764,-0.35619 -0.9767,-1.39481 -0.8867,-2.30859 0.3071,-3.13008 -0.07,-3.84359 -2.668,-5.02734 -2.0916,-0.95302 -2.3715,-1.46236 -1.4277,-2.59961 0.6457,-0.77804 1.0288,-2.67885 0.8516,-4.22461 -0.2605,-2.27187 -0.8169,-2.81055 -2.9043,-2.81055 -2.0072,0 -5.3483,2.89455 -15,12.99805 -11.0998,11.6192 -12.9932,13.17958 -17.8321,14.69336 -4.9601,1.55175 -10.7826,1.49007 -12.0859,-0.12696 -0.275,-0.34119 -2.525,-1.48637 -5,-2.54492 -2.475,-1.05855 -6.9013,-3.4266 -9.8359,-5.26367 -2.9347,-1.83707 -7.2097,-4.06321 -9.5,-4.94727 -2.2904,-0.88406 -5.2891,-2.6342 -6.6641,-3.88867 -1.375,-1.25446 -5.2,-3.26851 -8.5,-4.47461 -3.3,-1.20609 -6.44288,-2.60244 -6.98438,-3.10351 -0.54148,-0.50107 -0.86432,-3.54831 -0.71679,-6.77149 0.46131,-10.07876 -3.862,-11.46428 -9.44531,-3.02734 -1.44034,2.1765 -2.75586,3.95703 -2.92383,3.95703 -0.16797,0 -1.72316,-1.29508 -3.45508,-2.87695 -3.49543,-3.19258 -21.07509,-10.30191 -28.47461,-11.51563 -0.55,-0.0902 -1.51071,-0.48276 -2.13477,-0.87304 -0.62406,-0.39029 -4.09534,-1.12999 -7.71484,-1.64258 -3.61951,-0.51258 -7.04772,-1.21836 -7.61719,-1.57032 -1.28703,-0.79543 -16.01454,-1.88528 -26.0332,-1.92578 -4.36032,-0.0176 -10.01174,0.71423 -13.5,1.74805 -3.3,0.97803 -8.925,2.38492 -12.5,3.12695 -3.575,0.74203 -8.50613,2.09442 -10.95898,3.00586 -5.00376,1.8593 -14.04987,4.39829 -18.44922,5.17774 -1.5997,0.28343 -4.0747,0.97754 -5.5,1.54297 -1.4253,0.56544 -6.6418,2.1369 -11.5918,3.49218 -16.77905,4.59398 -25.90445,2.68838 -34.10742,-7.125 -3.59172,-4.29685 -3.67286,-4.58254 -4.03516,-14.224606 -0.29549,-7.864026 -0.77007,-10.383341 -2.36328,-12.548828 -1.0964,-1.49023 -1.99419,-3.06523 -1.99219,-3.5 C 788.00874,80.300895 783.19409,72.204736 780.39453,69.5 771.89972,61.292887 765.70316,56 764.58789,56 763.90675,56 762.29175,54.875 761,53.5 759.70825,52.125 757.62111,51 756.36133,51 755.09365,51 753.59288,50.105858 753,48.998047 752.41081,47.89714 750.48251,46.330614 748.71484,45.517578 745.26682,43.931662 742.92681,42.524959 739.12695,39.75 737.80897,38.7875 735.52735,38 734.05664,38 c -1.47071,0 -3.54761,-0.661241 -4.61523,-1.46875 -3.16506,-2.393933 -4.99543,-1.782448 -8.88868,2.96875 -2.02807,2.475 -4.31494,4.5 -5.08398,4.5 C 713.30437,44 707,38.014479 707,35.958984 c 0,-3.601769 -5.27814,-18.127394 -6.79883,-18.710937 -1.03069,-0.39551 -2.96632,1.042654 -5.80469,4.314453 -2.3422,2.699866 -4.45815,4.690959 -4.70117,4.423828 C 688.54026,24.716666 686,18.928975 686,17.568359 c 0,-1.4195 -2.8201,-2.631852 -5.45312,-2.533203 z m 1.92187,5.908203 c 0.32656,0.02055 0.55313,0.274481 0.60742,0.806641 0.0988,0.968276 0.54528,3.251795 1.3711,7.011719 0.58408,2.659307 0.26293,3.253711 -2.76172,5.123047 C 679.80333,35.048043 677.95159,36 677.57031,36 c -1.05319,0 0.50147,-9.128331 2.08594,-12.25 0.89538,-1.76404 2.09407,-2.851842 2.8125,-2.806641 z m 14.41016,6.238282 c 0.48427,-0.02138 0.888,0.458024 1.58007,1.318359 2.1321,2.650478 3.54102,6.13769 3.54102,8.765625 0,1.660478 -0.26589,1.866927 -1.19922,0.933594 -1.79906,-1.79906 -2.60253,-1.484397 -4.22461,1.652343 C 694.61128,43.651247 696.04563,45 702.04688,45 c 2.55548,0 6.08236,0.716023 7.83789,1.591797 1.75553,0.875774 3.91531,1.315597 4.79882,0.976562 0.88351,-0.339035 2.36979,0.0758 3.30469,0.921875 0.9349,0.846074 4.21014,2.19133 7.27734,2.990235 6.26551,1.631959 11.21811,4.336229 13.24805,7.234375 0.74957,1.070173 3.97725,3.934561 7.17383,6.365234 7.94651,6.042521 21.01127,19.411999 23.26562,23.808594 1.01857,1.98647 3.5829,4.90995 5.69922,6.496094 2.15127,1.612327 5.61134,5.950934 7.84766,9.839844 4.46671,7.76751 13.83908,17.06176 20,19.83398 4.8899,2.2003 16.33065,2.73016 22.35156,1.03516 2.39302,-0.67368 4.5406,-1.03556 4.77344,-0.80273 0.23283,0.23284 4.34929,-0.66106 9.14844,-1.98633 4.79914,-1.32526 10.52656,-2.78414 12.72656,-3.24219 4.5243,-0.94197 13.32015,-3.30959 31.5,-8.47852 6.875,-1.95471 13.28682,-3.30511 14.24805,-3.00195 0.96122,0.30317 2.0357,1.70108 2.38867,3.10742 0.95189,3.79265 -0.40053,41.56174 -1.60156,44.72071 -0.56892,1.49637 -1.03516,3.98997 -1.03516,5.54101 0,3.40106 -2.03756,10.47876 -6.49023,22.54883 -7.14506,19.36845 -7.55388,21.45589 -4.74805,24.26172 2.36442,2.36442 13.68652,2.88821 17.23828,0.79687 5.77117,-3.39816 6.63392,-3.49481 14.53125,-1.61328 8.65198,2.06132 12.91064,4.6807 13.08789,8.04688 0.13473,2.55872 -2.11624,22.83115 -3.7207,33.50781 -1.30817,8.70499 -2.95088,15.66315 -4.03321,17.07812 -0.95832,1.25289 -1.68513,4.76311 -1.79101,8.65235 -0.0935,3.43486 -5.43415,6.3992 -13.80664,7.66406 -3.17191,0.47919 -10.26758,2.09663 -15.76758,3.59375 -15.43457,4.20133 -20.66472,4.76658 -32,3.46484 -16.11473,-1.85059 -21.85838,-4.55204 -18.37695,-8.64453 2.21966,-2.60926 5.16835,-11.10658 4.47851,-12.90429 C 844.84937,266.44413 843,267.54514 843,269.95312 c 0,2.21166 -9.04881,15.07346 -16.91797,24.04688 -3.13506,3.575 -7.78142,9.44192 -10.32617,13.03711 -2.54475,3.59519 -5.55598,7.37675 -6.69141,8.4043 -1.13543,1.02755 -2.06445,2.41938 -2.06445,3.09179 0,0.67242 -0.66453,1.77334 -1.47656,2.44727 -1.67879,1.39327 -11.50871,15.9837 -13.82422,20.51953 -0.84232,1.65 -2.39948,4.8 -3.46094,7 -2.21992,4.60101 -4.19699,6.74 -17.31445,18.73438 -5.25347,4.80367 -11.32321,11.26817 -13.48828,14.36718 -2.16506,3.09901 -5.40351,7.32949 -7.19727,9.40039 -3.68279,4.25181 -9.66545,16.67886 -10.62695,22.07422 -0.35053,1.96694 -1.29129,4.44194 -2.0918,5.5 -1.33402,1.7632 -1.45908,1.48441 -1.48828,-3.3457 -0.0237,-3.93648 0.6013,-6.27224 2.46875,-9.23047 1.375,-2.17814 2.5,-4.47753 2.5,-5.10938 0,-0.63182 2.25,-4.45095 5,-8.48632 2.75,-4.03537 5,-7.58755 5,-7.89453 0,-0.82272 6.55369,-10.20605 8.45898,-12.11133 0.90144,-0.90145 1.89483,-2.91744 2.20704,-4.47852 0.33473,-1.67366 2.374,-4.37612 4.96875,-6.58789 3.58582,-3.05655 4.36306,-4.31362 4.19921,-6.79101 -0.1106,-1.67211 0.8938,-6.16265 2.23243,-9.97852 2.07087,-5.90317 3.74043,-8.33456 11.1914,-16.29688 4.8164,-5.1469 9.53485,-10.57528 10.48633,-12.0625 0.95147,-1.48719 2.30817,-3.30921 3.01563,-4.04882 3.537,-3.69777 11.19342,-25.83344 13.71484,-39.6543 2.60822,-14.2967 4.52023,-23.68277 4.97461,-24.41797 1.0247,-1.65801 1.72715,-20.08203 0.76562,-20.08203 -1.4854,0 -2.21898,2.58364 -2.8164,9.91797 C 814.10355,241.5382 813.47391,245.85 813,247.5 c -0.4739,1.65 -1.15292,5.475 -1.50977,8.5 -0.66946,5.67503 -2.34078,11.82637 -3.63867,13.39453 -0.95635,1.15549 -6.2402,-1.00352 -11.25195,-4.59765 -2.14502,-1.53828 -4.62002,-2.81329 -5.5,-2.83399 -2.79803,-0.066 -13.69132,-11.23812 -17.04492,-17.48047 C 770.28241,237.46073 763,218.5757 763,215.81445 c 0,-1.05273 -0.67407,-3.21714 -1.49805,-4.81054 -0.82398,-1.59341 -1.65622,-3.7094 -1.84961,-4.70118 -0.19339,-0.99178 -0.60182,-2.47773 -0.90625,-3.30273 -1.1583,-3.13896 -3.92296,-11.81906 -6.37109,-20 -1.39899,-4.675 -3.15422,-9.86268 -3.90039,-11.52734 -0.74618,-1.66466 -2.56405,-6.38966 -4.03906,-10.5 -3.22845,-8.99656 -5.77289,-14.17696 -7.78125,-15.84375 -1.9878,-1.64973 -25.28565,-7.12329 -36.1543,-8.49414 -3.6958,-0.46615 -11.40221,4.32239 -18.72852,11.63867 -3.99948,3.99401 -9.13004,8.86043 -11.40234,10.81445 -3.61313,3.10704 -4.21673,4.23403 -4.80664,8.98242 -0.82953,6.67716 -2.13047,9.42594 -5.47852,11.57813 l -2.58398,1.66211 1.87305,-2.1211 c 1.74505,-1.97467 5.03711,-13.11327 4.14062,-14.00976 C 662.8807,164.54672 658,170.15196 658,171.51172 c 0,1.63731 -3.70739,6.26013 -6.00586,7.49023 -1.44196,0.77171 -2.54059,0.41014 -4.98242,-1.64453 -2.20737,-1.85738 -2.81938,-2.95015 -2.07227,-3.69726 0.58319,-0.58319 1.06055,-1.72788 1.06055,-2.54493 0,-0.81705 0.8301,-2.41533 1.84375,-3.55078 1.01364,-1.13545 2.88467,-4.98945 4.1582,-8.56445 1.27353,-3.575 3.00711,-7.72318 3.85352,-9.21875 0.84644,-1.49558 1.20489,-3.05488 0.79492,-3.46484 -1.5831,-1.5831 -4.3237,1.64718 -8.65039,10.19726 -2.475,4.89091 -4.9586,9.02816 -5.51953,9.19531 -0.56094,0.16714 -2.52687,-1.0732 -4.36914,-2.75586 -3.1383,-2.86638 -3.32236,-3.38917 -2.91602,-8.28906 0.50041,-6.03432 2.88714,-12.39418 10.94531,-29.16406 7.3991,-15.39824 8.68297,-22.29978 7.0586,-37.925781 -1.32451,-12.741457 -0.46377,-17.767227 4.05078,-23.667969 1.5125,-1.976915 2.75091,-4.226915 2.75391,-5 C 660.01141,56.703496 677.49961,41 679.94531,41 c 0.64448,0 0.95086,0.358115 0.67969,0.796875 -0.27117,0.43876 -0.0685,1.45126 0.44922,2.25 1.02619,1.583093 2.55274,0.124942 7.38086,-7.046875 1.29592,-1.925 3.71637,-5.075 5.37695,-7 1.66986,-1.935754 2.42424,-2.790875 3.04688,-2.818359 z M 726,44 c 0.55,0 1,0.45 1,1 0,0.55 -0.45,1 -1,1 -0.55,0 -1,-0.45 -1,-1 0,-0.55 0.45,-1 1,-1 z m 8.88281,4 c 0.55,0 1.27727,0.45 1.61719,1 0.33992,0.55 0.16719,1 -0.38281,1 -0.55,0 -1.27727,-0.45 -1.61719,-1 -0.33992,-0.55 -0.16719,-1 0.38281,-1 z M 115,54 c -0.55,0 -1,0.45 -1,1 0,0.55 0.45,1 1,1 0.55,0 1,-0.45 1,-1 0,-0.55 -0.45,-1 -1,-1 z m 631.51172,1 c 0.21814,0.0068 0.52972,0.05575 0.9375,0.134766 1.03691,0.200936 2.07187,0.927734 2.30078,1.615234 0.59396,1.78389 -1.2595,1.54602 -2.8457,-0.365234 C 746.0344,55.336613 745.85731,54.979566 746.51172,55 Z M 680.625,66.730469 c -1.98447,0.156027 -6.68906,2.749906 -10.46484,5.951172 -2.40767,2.04132 -3.58222,4.084905 -4.20704,7.324218 -1.52683,7.916107 -1.23873,9.884842 1.54688,10.583985 2.84734,0.714637 3.14891,2.168964 1.03125,4.96875 -0.8075,1.067622 -1.4825,2.554024 -1.5,3.302734 -0.0241,1.031177 0.87813,1.193872 3.71875,0.671875 2.0625,-0.379009 4.2,-1.129819 4.75,-1.669922 0.65715,-0.645326 0.0572,-0.814604 -1.75,-0.490234 -3.29344,0.59114 -3.70532,-0.962898 -0.5,-1.886719 5.12695,-1.477665 10.76106,-3.807293 10.30664,-4.261719 -0.26791,-0.267911 -0.0202,-1.356725 0.54883,-2.419921 0.82478,-1.541106 1.3246,-1.69241 2.46484,-0.746094 C 687.75872,89.044889 688,88.717505 688,86.123047 688,82.480464 685.71916,81.875022 683.76758,85 c -1.66645,2.668406 -3.37891,2.522782 -5.33008,-0.455078 -1.9745,-3.013462 -1.17827,-4.544181 2.37109,-4.550781 2.91506,-0.0054 9.15274,-4.35065 7.96485,-5.548829 -0.40002,-0.403486 -3.55002,-0.03424 -7,0.820313 -4.23303,1.048512 -6.59861,1.224844 -7.27344,0.541016 -0.66935,-0.678272 -0.35795,-1.392791 0.94141,-2.160157 C 678.82277,71.649546 682.13097,68.020932 681.5,67 c -0.0941,-0.152301 -0.27097,-0.240586 -0.51562,-0.267578 -0.10704,-0.01181 -0.22708,-0.01235 -0.35938,-0.002 z M 780.85742,85 c 0.5105,0 1.21181,0.738858 1.5586,1.642578 0.95273,2.482764 -0.0978,2.822615 -1.3711,0.44336 C 780.43062,85.938107 780.34659,85 780.85742,85 Z M 672.55859,101 C 671.70113,101 671,101.45 671,102 c 0,0.55 0.42387,1 0.94141,1 0.51754,0 1.21867,-0.45 1.55859,-1 0.33992,-0.55 -0.0839,-1 -0.94141,-1 z m 231.3711,6.5 11.01953,0.0352 c 7.50738,0.024 11.42351,0.43755 12.28516,1.29882 2.14205,2.14113 1.67871,17.70986 -1.22657,41.16602 -0.64717,5.225 -1.25079,10.175 -1.34179,11 -0.091,0.825 0.26393,1.63055 0.78906,1.79102 1.62931,0.4979 5.75572,-24.00832 7.24219,-43.01172 0.7612,-9.73137 1.22599,-9.90111 15.80273,-5.77344 2.2,0.62297 5.125,1.38481 6.5,1.69336 1.375,0.30854 3.17636,1.14893 4.00391,1.86523 0.82755,0.7163 2.62755,1.47629 4,1.68946 4.84982,0.75326 9.76505,3.57765 12.52734,7.19921 l 2.79687,3.66602 -1.66406,5.27734 c -0.91516,2.90322 -1.67595,7.48975 -1.68945,10.19141 -0.0134,2.70166 -0.43617,6.71211 -0.94141,8.91211 -1.43469,6.24707 -3.0023,20.06355 -3.48047,30.67578 -0.35841,7.95437 -0.84667,10.30236 -2.74414,13.20117 C 965.90714,201.28181 962.37395,204 960.5,204 c -0.73825,0 0.65504,-10.42023 2.00586,-15 2.1731,-7.36759 2.66861,-11.77422 1.41211,-12.55078 -1.32869,-0.82118 -2.88024,1.24634 -2.90235,3.86523 -0.008,0.99774 -1.05138,4.14774 -2.31835,7 -1.26696,2.85225 -2.76296,6.28343 -3.32422,7.625 -1.67159,3.99559 -2.31196,0.8966 -0.71094,-3.4414 0.81143,-2.19856 2.31903,-7.37305 3.34961,-11.49805 1.03059,-4.125 2.32363,-9.3 2.87305,-11.5 0.54942,-2.2 1.20534,-5.125 1.45703,-6.5 1.80594,-9.86584 2.73435,-14.837 3.17773,-17 0.28185,-1.375 0.80219,-5.14772 1.1543,-8.38477 0.52272,-4.80543 0.3809,-5.80061 -0.76758,-5.42187 -0.77364,0.25512 -1.53032,1.55286 -1.68164,2.88476 -0.15132,1.33192 -0.93702,4.67188 -1.74609,7.42188 -0.80907,2.75 -1.62552,6.8 -1.81446,9 -0.18895,2.2 -0.72234,4.10933 -1.18554,4.24219 -1.01202,0.29029 -0.71582,-8.63115 0.60156,-18.14063 0.52566,-3.79452 0.75196,-7.10351 0.5039,-7.35156 -1.71813,-1.71814 -3.46304,5.17969 -4.99609,19.75 -0.82381,7.82955 -3.53131,25.07294 -4.53125,28.85742 -0.5292,2.0029 -1.18933,4.76758 -1.4668,6.14258 -0.27748,1.375 -1.17957,4.3 -2.0039,6.5 -0.82433,2.2 -1.51887,4.81956 -1.54297,5.82031 -0.0315,1.30579 -0.67827,1.72932 -2.29297,1.5 -2.88665,-0.40997 -2.98959,-2.57089 -0.54102,-11.39843 3.42603,-12.35147 6.76846,-29.94459 8.25,-43.42188 0.33253,-3.025 0.87359,-7.1875 1.20118,-9.25 0.32759,-2.0625 0.19213,-3.75 -0.30078,-3.75 -0.49293,0 -1.73095,4.6125 -2.75196,10.25 -2.37028,13.08757 -2.88628,14.3526 -6.18945,15.18164 -4.39175,1.10226 -4.42314,0.79098 -1.93555,-19.18164 0.39114,-3.14045 0.26742,-5.25 -0.30664,-5.25 -1.32106,0 -2.15607,3.79835 -3.17578,14.43555 -0.47793,4.98556 -1.38964,12.21445 -2.02539,16.06445 -1.29975,7.87108 -1.32082,8.00199 -2.42969,15.25 -1.46234,9.55839 -3.784,4.58394 -2.92187,-6.25977 0.38902,-4.89308 0.26214,-5.62365 -0.69141,-3.99023 -3.14689,5.3906 -6.25715,9.41749 -6.94531,8.99219 -0.42111,-0.26026 -1.01846,-1.93982 -1.32813,-3.73242 -2.12484,-12.30024 -3.12782,-12.50159 -8.78906,-1.75977 -5.03413,9.55189 -6.37603,10.14543 -5.37109,2.37695 0.41814,-3.23237 1.14423,-8.80195 1.61328,-12.37695 0.46904,-3.575 1.03134,-8.525 1.25,-11 0.46538,-5.26754 4.15428,-17.96269 6.69726,-23.04688 2.28384,-4.5661 3.51943,-10.95312 2.11914,-10.95312 -0.57415,0 -1.36266,1.0125 -1.7539,2.25 -0.39124,1.2375 -1.93348,4.95 -3.42578,8.25 -3.54971,7.84968 -4.5801,11.88969 -8.39258,32.89258 -0.28871,1.59049 -0.80561,8.56549 -1.15039,15.5 -0.62563,12.58312 -1.67006,18.27203 -3.87305,21.10742 -0.641,0.825 -2.0083,4.0875 -3.03711,7.25 -2.05242,6.30909 -3.63475,7.11626 -7.62304,3.88672 l -2.30079,-1.86328 3.79883,-10.38672 c 4.6928,-12.82789 7.48217,-22.83525 8.19141,-29.38672 0.29771,-2.75 1.25362,-8.375 2.12305,-12.5 1.01661,-4.82338 1.69084,-14.10233 1.88867,-26 z M 961,123 c -0.55,0 -1,0.45 -1,1 0,0.55 0.45,1 1,1 0.55,0 1,-0.45 1,-1 0,-0.55 -0.45,-1 -1,-1 z m 26.16016,9.30664 c 0.73003,0.0486 1.66199,0.57022 3.41992,1.60742 2.01053,1.18624 5.83522,2.62424 8.49804,3.19532 2.66288,0.57105 5.97188,1.92889 7.35348,3.01562 1.3815,1.08673 9.2734,5.35641 17.5391,9.49023 8.2658,4.13382 15.0293,7.90622 15.0293,8.38282 0,2.71731 10.5894,1.5189 14.082,-1.59375 0.8696,-0.77507 1.8277,-1.16058 2.1309,-0.85742 0.3031,0.30314 2.2093,-0.3801 4.2344,-1.51758 2.0252,-1.13749 4.1027,-1.80823 4.6172,-1.49024 0.5145,0.31799 0.9355,-0.0916 0.9355,-0.91211 0,-0.82049 2.495,-4.0679 5.5449,-7.21679 5.2093,-5.37851 5.625,-5.61083 6.8516,-3.81836 4.0252,5.88236 2.5539,10.22523 -6.332,18.68554 -3.3075,3.14913 -6.7082,7.06812 -7.5567,8.70899 -1.7955,3.47215 -2.2189,11.81096 -0.7402,14.59179 0.609,1.14559 0.8833,7.77566 0.6797,16.42188 -0.4789,20.33698 -2.6953,29.96204 -10.4239,45.27344 -4.3972,8.71132 -5.7825,12.36307 -4.9922,13.14453 0.7866,0.77786 1.3702,0.5901 2.0801,-0.66797 0.543,-0.9625 1.6103,-1.75 2.3711,-1.75 1.6537,0 7.5712,7.09511 10.0078,12 0.9563,1.925 2.7653,4.625 4.0215,6 5.669,6.20516 7.2737,9.7096 6.7383,14.71484 -0.2816,2.63206 -0.9585,5.34766 -1.5039,6.03516 -1.1073,1.39568 -2.0831,1.57897 -3.082,0.58008 -0.3681,-0.36807 -2.3358,-0.83982 -4.3731,-1.04883 -2.0374,-0.20901 -4.1742,-0.75622 -4.748,-1.2168 -0.5737,-0.46057 -4.508,-2.27153 -8.7422,-4.02343 -5.1019,-2.11089 -8.8234,-4.43071 -11.0352,-6.87891 -1.8356,-2.03185 -6.2221,-5.66352 -9.748,-8.07031 -3.526,-2.40678 -7.5566,-5.43757 -8.9551,-6.73438 -1.3986,-1.2968 -2.8846,-2.35742 -3.3027,-2.35742 -0.4181,0 -0.9888,0.008 -1.2696,0.0195 -1.001,0.0397 -6.4902,-3.08211 -6.4902,-3.69141 0,-0.34131 2.022,-2.781 4.4922,-5.42187 2.4703,-2.64088 5.1147,-6.28736 5.8769,-8.10352 5.6104,-13.36785 6.666,-16.71674 9.709,-30.80273 0.5346,-2.475 1.1451,-9.225 1.3574,-15 0.2122,-5.775 0.6991,-11.2875 1.0821,-12.25 0.8321,-2.09072 -0.7953,-2.32562 -2.4336,-0.35156 -1.5428,1.85896 -2.2848,4.9619 -2.7735,11.60156 -0.3038,4.1287 -0.1338,5.12601 0.6797,4 0.8273,-1.14502 0.9502,-0.67171 0.5196,2 -0.3103,1.925 -0.7294,4.85 -0.9317,6.5 -0.4379,3.57079 -2.4125,9.10687 -6.1093,17.125 -9.1671,19.88231 -8.925,19.50485 -16.418,25.42773 -3.4668,2.74038 -7.11412,4.57555 -10.88283,5.47461 -3.11765,0.74375 -8.62228,2.0541 -12.23242,2.91211 -3.61014,0.858 -7.57594,1.56055 -8.81446,1.56055 -1.23852,0 -3.23616,0.55071 -4.4375,1.22461 -2.2227,1.24685 -7.12335,2.48566 -20.87109,5.27148 -4.22805,0.85676 -10.13397,2.67754 -13.125,4.04688 -7.99037,3.65811 -8.74478,2.98406 -6.53125,-5.83399 0.99535,-3.9652 1.81717,-8.41784 1.82617,-9.89453 0.009,-1.4767 0.50838,-3.9517 1.10742,-5.5 0.59904,-1.54831 1.04614,-6.14004 0.99414,-10.20507 -0.052,-4.06506 0.34074,-7.91525 0.87305,-8.55665 0.5323,-0.64139 1.24101,-5.4158 1.57617,-10.60937 0.33561,-5.20062 1.15281,-10.00209 1.81836,-10.6875 0.89145,-0.91804 3.29864,-1.04772 9.17774,-0.49414 9.32692,0.87822 20.926,-0.0652 23.11132,-1.87891 3.65924,-3.0369 5.12836,-9.1962 6.29493,-26.38281 0.63465,-9.35 1.60122,-19.925 2.14843,-23.5 0.5472,-3.575 1.35057,-9.65 1.78516,-13.5 0.81985,-7.26298 2.70783,-11.90183 6.08594,-14.95898 0.94728,-0.85728 1.47504,-1.28293 2.20508,-1.23438 z m -822.46289,12.82813 c -1.21987,-0.0307 -1.80282,0.56073 -2.1211,2.05078 -1.00582,4.70882 -1.83673,11.39429 -1.74805,14.06445 0.0503,1.5125 -0.24743,2.75 -0.6621,2.75 C 159.37824,164 156,153.9196 156,151.56836 c 0,-2.63136 -2.95881,-2.56081 -4.71094,0.11328 -2.4289,3.70697 -2.51008,4.44292 -1.95508,17.81836 0.18156,4.3758 -0.38291,4.62554 -6.99804,3.10547 -2.68727,-0.6175 -3.26467,-0.40569 -3.83789,1.40039 -0.78874,2.48509 4.26563,12.98819 6.25195,12.99219 1.67423,0.003 1.5748,-1.47015 -0.35156,-5.19532 l -1.60156,-3.09765 3.35156,0.64062 c 1.84354,0.35234 4.58906,0.92084 6.10156,1.26368 2.85739,0.64767 2.86836,0.62484 2.99609,-6.60938 0.005,-0.275 -0.27937,-2.4125 -0.63086,-4.75 -0.35148,-2.3375 -0.29595,-4.24714 0.12305,-4.24414 0.76423,0.006 4.04239,4.96769 5.44727,8.24414 1.41783,3.30668 3.81347,2.05568 3.83007,-2 0.0156,-3.82669 1.33772,-7.15344 2.22852,-5.60742 0.27151,0.47122 0.79014,2.50232 1.15234,4.51172 1.09772,6.08992 5.05422,5.99959 7.61133,-0.17383 1.47176,-3.55314 2.99219,-2.99028 2.99219,1.10937 0,3.51535 2.08185,4.64985 5.5957,3.04883 2.26148,-1.0304 2.38205,-0.9649 1.44336,0.78906 -2.87937,5.38017 -3.25298,20.73097 -0.60742,24.97461 1.02484,1.64392 -1.57654,3.90017 -5.43164,4.71094 -1.375,0.28917 -3.625,1.02458 -5,1.63477 -1.375,0.61019 -2.725,1.17837 -3,1.26367 -0.275,0.0853 -1.76614,0.68085 -3.31445,1.32226 -4.25917,1.76444 -6.44124,1.41645 -7.88086,-1.25586 -3.21781,-5.973 -11.37626,-18.52923 -12.05469,-18.55273 -2.38033,-0.0823 2.83133,11.36187 6.0918,13.37695 2.4708,1.52704 7.44998,12.24749 9.66601,20.81055 1.32189,5.10794 3.30693,12.43711 4.41211,16.28711 1.57739,5.49495 1.91099,8.93506 1.54688,16 -0.25512,4.95 -0.71376,10.125 -1.01758,11.5 -0.30382,1.375 -0.96052,5.2 -1.46094,8.5 -0.91877,6.05887 -4.00225,16.71551 -5.82617,20.14062 C 159.44494,298.86527 154,314.52839 154,316.24219 c 0,0.90235 -0.45,1.91789 -1,2.25781 -0.55,0.33992 -1,1.55697 -1,2.70508 0,2.35275 -6.75902,13.06676 -7.94727,12.59765 C 142.07454,333.02175 131,318.9794 131,317.25195 c 0,-1.07456 -0.50306,-3.39456 -1.11719,-5.15625 -1.01036,-2.89833 -1.40288,-3.14085 -4.125,-2.54297 -3.70232,0.81316 -4.72128,-0.52447 -4.74219,-6.2207 -0.014,-3.81665 -0.33081,-4.32196 -3.76171,-6 -3.73673,-1.82762 -3.74973,-1.8553 -5,-10.83203 -1.39568,-10.02073 -2.8668,-14.5 -4.76172,-14.5 -0.69587,0 -3.82629,3.13034 -6.95703,6.95703 -3.130738,3.82669 -6.564893,7.2359 -7.630863,7.57422 -1.317395,0.41813 -3.543102,-0.56466 -6.951172,-3.06641 C 80.455416,279.42915 72.408969,276 68.439453,276 c -1.958985,0 -2.931333,-0.85571 -4.265625,-3.75 -2.856272,-6.19571 -4.54405,-8.25 -6.777344,-8.25 -1.720626,0 -2.443107,1.08884 -3.818359,5.75 -0.933081,3.1625 -2.376273,6.875 -3.205078,8.25 -0.828804,1.375 -3.33286,6.325 -5.566406,11 -2.233545,4.675 -4.667851,9.19655 -5.408203,10.04883 -2.720394,3.13166 -8.357043,14.84089 -8.949219,18.58984 -0.443997,2.81086 -0.0146,5.22132 1.578125,8.86133 1.203298,2.75 2.301482,7.26122 2.439453,10.02539 0.137971,2.76417 0.958722,6.39871 1.826172,8.07617 2.057572,3.97891 15.115986,18.37153 18.822265,20.7461 C 56.701827,366.36417 58,367.74598 58,368.41797 c 0,2.29466 6.93583,9.33007 11.15625,11.31641 4.931935,2.32119 7.113129,2.00029 8.880859,-1.30274 0.706207,-1.31956 2.164712,-2.67755 3.242188,-3.01953 2.379692,-0.75528 6.488944,1.28457 7.21875,3.58398 0.292621,0.92197 3.113584,4.35332 6.267578,7.625 7.707975,7.99561 12.524555,13.41202 20.039065,22.53321 3.87781,4.70691 8.58127,9.07948 12.2207,11.36132 10.50982,6.5895 10.29601,8.37824 -1.00586,8.39844 -3.58561,0.006 -8.05717,0.46945 -9.93555,1.02735 -1.87838,0.55791 -4.35338,0.82092 -5.5,0.58593 -1.86913,-0.38304 -8.08278,-0.7668 -33.808589,-2.09179 -4.248731,-0.21882 -8.973731,-0.59602 -10.5,-0.83789 -10.666061,-1.69026 -14.929005,-1.72106 -16.261719,-0.11524 -0.971747,1.17088 -1.095304,2.37957 -0.435547,4.2461 1.047178,2.9626 3.421875,4.25032 3.421875,1.85546 0,-1.50575 1.309795,-2.09937 3.5,-1.58593 9.915858,2.32453 12.464078,2.79801 15,2.79101 1.65,-0.005 14.863437,0.22475 29.36328,0.50977 14.97552,0.29437 27.50329,0.12009 29.00195,-0.40235 3.53312,-1.23165 21.74753,-1.74433 26.13477,-0.73632 2.78308,0.6394 19.1264,0.97306 32.5,0.66406 1.1,-0.0254 13.25,0.19922 27,0.5 13.75,0.30079 45.7,0.76192 71,1.02539 25.3,0.26348 46.675,0.73529 47.5,1.04687 0.825,0.31157 4.2,0.81018 7.5,1.10743 3.3,0.29725 7.575,0.73043 9.5,0.96289 1.925,0.23247 9.26159,0.54786 16.30273,0.70117 7.04115,0.15331 13.34115,0.6185 14,1.0332 0.65886,0.4147 1.87227,0.55182 2.69727,0.30469 1.34955,-0.40426 23.57184,-0.7012 49,-0.6543 80.05407,0.14768 109.02827,-0.87976 85.91992,-3.04687 -24.37508,-2.2859 -34.01683,-2.60213 -101.91992,-3.33789 -51.40342,-0.55697 -69.72154,-0.88175 -106,-1.88086 -35.2851,-0.97176 -54.26074,-1.65536 -58.5,-2.10547 -4.28411,-0.45486 -33.83573,-1.80532 -36.75,-1.67969 -2.92842,0.12623 -1.95467,-1.58286 1.5,-2.63281 5.82,-1.76881 9.1151,-2.36087 17.75,-3.18359 8.85053,-0.84328 19.93854,-2.95063 28.5,-5.41797 9.62568,-2.77404 16.05713,-4.47929 23,-6.09766 3.85,-0.89743 7.9,-2.0323 9,-2.52148 1.1,-0.48919 4.925,-1.86176 8.5,-3.05079 3.575,-1.18902 6.95,-2.50102 7.5,-2.91601 3.37494,-2.54651 21.76292,-8.38357 22.88281,-7.26367 0.26526,0.26526 1.97643,-0.004 3.80078,-0.59766 1.82435,-0.59371 5.11641,-1.3379 7.31641,-1.6543 5.62259,-0.80863 9.94741,-2.27904 17.89258,-6.08593 9.49085,-4.5475 12.58142,-7.45919 12.42187,-11.70313 -0.0695,-1.84892 0.25435,-3.97978 0.72071,-4.73437 1.44289,-2.33464 3.09964,-18.70361 2.14257,-21.16797 -3.33492,-8.58713 -4.8213,-16.26359 -5.18554,-26.77344 -0.36734,-10.59914 -1.20832,-24.45657 -2.00391,-33 -0.17926,-1.925 -0.63315,-8.45 -1.00781,-14.5 -0.88547,-14.29846 -1.85561,-18.14457 -4.74024,-18.78711 -1.23198,-0.27439 -9.55273,-0.40811 -18.49023,-0.29687 -9.1705,0.11414 -16.25,-0.1908 -16.25,-0.70118 0,-0.49742 1.35,-3.36456 3,-6.37109 4.55615,-8.3019 3.84149,-9.58333 -2.125,-3.80664 -4.99853,4.83952 -5.10781,4.8886 -4.42188,1.96289 0.38687,-1.65 1.33538,-3.70319 2.10938,-4.5625 1.36347,-1.51374 6.12228,-13.24273 7.12891,-17.57031 0.27285,-1.17303 0.0226,-2.42519 -0.55664,-2.78321 -1.38373,-0.85518 -7.02733,5.03574 -8.78125,9.16602 -1.94334,4.57631 -4.0652,4.27599 -3.53321,-0.5 0.22973,-2.0625 0.75705,-4.2 1.17383,-4.75 0.41678,-0.55 0.70231,-3.7 0.63281,-7 -0.1116,-5.30188 -0.37247,-6.03563 -2.24414,-6.30273 -1.77995,-0.25401 -2.30508,0.46445 -3.2832,4.5 C 318.79008,223.10014 315.97435,229 314.70508,229 c -0.46202,0 -0.50143,-1.0125 -0.0879,-2.25 0.41355,-1.2375 0.7804,-5.4 0.8164,-9.25 0.0824,-8.80892 -1.24945,-9.09475 -6.99414,-1.5 -3.86559,5.11049 -7.69926,15.31242 -7.60156,20.23047 0.0617,3.10723 -1.57811,2.81677 -2.79492,-0.49414 -2.47833,-6.74351 -4.53384,-9.93905 -7.31445,-11.37695 -5.04735,-2.6101 -5.92595,-0.74549 -5.38868,11.4375 0.49613,11.24992 -0.79241,23.82967 -2.67578,26.11523 -1.64229,1.99298 -9.20947,5.19857 -10.82031,4.58398 -0.73955,-0.28216 -3.81875,0.40889 -6.84375,1.53516 -3.025,1.12628 -8.2,2.96834 -11.5,4.09375 -3.3,1.12542 -6.675,2.61443 -7.5,3.30859 -0.825,0.69416 -2.36474,1.57157 -3.42188,1.94922 -1.05713,0.37765 -7.66096,4.49256 -14.67578,9.14453 -13.59523,9.01586 -23.74249,14.68945 -24.94336,13.94727 -0.92408,-0.57112 -0.0504,-10.4151 1.11914,-12.61133 1.277,-2.39801 1.9419,-31.44121 0.86719,-37.86328 -0.50621,-3.025 -1.18547,-7.92519 -1.50976,-10.88867 -0.32428,-2.96348 -1.67893,-7.77177 -3.01172,-10.68555 C 199.09105,225.512 198,222.71162 198,222.20312 c 0,-0.50847 -1.18342,-2.66682 -2.62891,-4.79687 -2.70058,-3.97953 -5.91952,-12.15954 -7.27343,-18.48242 -0.42128,-1.96739 -1.00854,-3.99239 -1.30469,-4.5 -0.98046,-1.68057 1.2498,-15.79753 3.74805,-23.72461 3.7034,-11.75105 3.16674,-12.90392 -3.8086,-8.16406 C 183.20324,164.9333 183,164.96522 183,163.0957 c 0,-1.08737 0.38497,-2.21508 0.85547,-2.50586 1.11893,-0.69154 -0.42231,-10.36256 -1.94336,-12.19531 -1.68867,-2.03472 -3.63751,-0.1122 -5.04688,4.97461 -0.62956,2.27225 -1.8561,5.84562 -2.72461,7.94141 -1.42829,3.44661 -1.70085,3.64296 -2.85937,2.05859 -0.70447,-0.96341 -1.28887,-4.25317 -1.29687,-7.31055 -0.0174,-6.57248 -1.6969,-10.43758 -4.72461,-10.87304 -0.20135,-0.029 -0.38824,-0.0464 -0.5625,-0.0508 z m 779.29101,12.85546 c 0.22369,0.004 0.434,0.10002 0.63086,0.29688 0.36721,0.3672 0.18516,3.71439 -0.40625,7.43945 -5.57831,35.1359 -5.39545,33.34647 -3.6875,35.95313 2.01043,3.06831 3.43827,2.6173 5.97461,-1.88672 3.71579,-6.59847 10.5,-31.56827 10.5,-38.64649 0,-1.73006 0.48129,-3.14648 1.06836,-3.14648 0.58739,0 0.84793,0.7875 0.58008,1.75 -0.26785,0.9625 -0.79416,4.9 -1.16797,8.75 -0.37382,3.85 -1.30968,8.51839 -2.08008,10.37305 -0.7704,1.85467 -1.40039,4.46369 -1.40039,5.79883 0,1.33513 -0.61123,3.64176 -1.35938,5.12695 -0.74814,1.48519 -1.63563,5.44911 -1.9707,8.80664 -0.33507,3.35753 -1.06205,7.29503 -1.61523,8.75 -0.61623,1.62081 -1.69193,2.57955 -2.7793,2.47656 -0.97611,-0.0925 -3.57539,-0.34018 -5.77539,-0.55078 -2.2,-0.2106 -4.5625,-1.12137 -5.25,-2.02344 -1.71511,-2.25038 -1.53925,-15.19974 0.31641,-23.25781 0.82328,-3.575 2.29895,-10.22405 3.27734,-14.77539 1.44536,-6.72368 3.57873,-11.2601 5.14453,-11.23438 z m -347.83203,8.10157 c 0.16838,-0.0138 0.29044,0.0229 0.37305,0.10547 0.25699,0.25698 -1.10711,4.47571 -3.03125,9.37695 C 591.5739,180.47546 590,186.00065 590,187.85156 c 0,3.20272 -0.13285,3.32481 -2.75,2.54688 -3.89512,-1.15781 -11.41295,-1.23703 -13.59961,-0.14453 -1.01774,0.50848 -5.96774,1.55275 -11,2.32031 -12.05929,1.8394 -24.22985,1.70375 -26.22461,-0.29102 -1.16,-1.16001 -1.4324,-3.56381 -1.21094,-10.64062 L 535.5,172.5 l 2.85547,-0.32617 c 1.89688,-0.21695 4.75158,0.81114 8.5,3.06055 3.10416,1.86276 6.99453,4.0135 8.64453,4.78124 l 3,1.39649 -2.9707,0.38086 c -1.63392,0.20989 -3.11239,-0.0422 -3.28516,-0.56055 -0.43811,-1.31433 -4.9333,-0.31251 -6.37109,1.41992 -1.80695,2.17724 0.48335,4.12711 2.69336,2.29297 1.41993,-1.17844 1.83935,-1.11038 3.00976,0.49024 1.08487,1.48365 1.65272,1.61848 2.80274,0.66406 0.93282,-0.77418 1.66121,-0.84266 2.0625,-0.19336 1.11355,1.80175 13.74822,-0.2268 15.64453,-2.51172 0.63694,-0.76746 1.71591,-1.39453 2.39648,-1.39453 0.68056,0 4.78735,-2.97152 9.12696,-6.60352 7.92872,-6.63593 11.36824,-9.20788 12.54687,-9.30468 z M 915.02539,178 c 1.6668,0 3.97461,4.4834 3.97461,7.72266 0,3.97876 0.57595,4.05683 4.20898,0.57617 2.46111,-2.3579 3.00161,-2.51644 4.26172,-1.25 1.55105,1.55885 3.49269,14.69058 2.74805,18.58594 C 929.93617,205.113 929.06912,206 927.9043,206 c -3.36661,0 -9.81631,-3.14883 -10.4336,-5.09375 -0.85014,-2.67855 -2.25789,-2.40474 -8.19531,1.59375 -9.58844,6.45723 -9.84565,4.73291 -1.70312,-11.41992 C 911.19848,183.88655 914.55223,178 915.02539,178 Z m -371.23633,0.10352 c -1.18736,0.002 -2.78906,0.89853 -2.78906,1.86523 0,1.2701 1.03495,1.29453 2.9707,0.0703 0.80903,-0.51167 1.16582,-1.23456 0.79297,-1.60742 -0.22877,-0.22877 -0.57882,-0.3287 -0.97461,-0.32812 z M 185.74414,205.4375 c 0.92902,0.10741 1.31479,1.63603 0.42578,3.22461 -0.51623,0.92245 -4.02866,2.75853 -7.80469,4.08008 -10.60546,3.71176 -10.68792,3.72925 -10.17187,2.16015 0.68803,-2.09203 6.5562,-5.75879 11.20703,-7.00195 2.25443,-0.60261 4.62124,-1.52394 5.25977,-2.04687 0.40336,-0.33034 0.77431,-0.45182 1.08398,-0.41602 z m 1.78711,7.33203 c 0.67917,-0.0355 1.08783,0.33631 1.70898,1.0918 1.68959,2.05502 3.28179,5.53531 4.79883,10.48437 0.64852,2.11567 1.80304,5.04067 2.56446,6.5 0.76141,1.45933 1.38762,3.372 1.39062,4.25 0.003,0.878 0.78453,3.128 1.73633,5 1.4946,2.93963 1.71037,6.28857 1.58398,24.5625 -0.0899,13.00212 -0.56422,21.9387 -1.23047,23.1836 -0.59631,1.11421 -1.11996,3.06813 -1.16406,4.34179 -0.0441,1.27366 -0.8316,4.53589 -1.75,7.24805 -2.03228,6.00159 -1.06939,5.36801 -27.66992,18.16406 -8.09865,3.89582 -12.02571,4.98091 -12.90234,3.5625 -0.34129,-0.55222 0.51298,-4.07719 1.89843,-7.83203 1.38545,-3.75484 4.10902,-11.47508 6.05274,-17.1582 3.11758,-9.11527 4.14828,-13.05352 6.0625,-23.16797 0.77136,-4.0757 2.07009,-20.00825 1.86328,-22.86133 -0.55928,-7.71566 -1.82546,-16.09495 -2.9668,-19.63867 -2.21302,-6.87108 -2.61798,-9.5 -1.46289,-9.5 1.19952,0 10.40509,-3.91664 16.15235,-6.87305 1.70531,-0.87722 2.65481,-1.32188 3.33398,-1.35742 z m 123.48242,10.75195 c 0.72182,0.18342 0.0596,10.73494 -1.03125,15.85157 -0.83681,3.92521 -0.41934,6.62695 1.02344,6.62695 1.02186,0 4.46385,-6.64388 5.39648,-10.41797 0.8754,-3.54244 3.6008,-7.75726 3.5918,-5.55469 -0.003,0.80988 -0.44312,4.13702 -0.97656,7.39454 -1.04059,6.35439 -0.50224,10.5856 1.3418,10.5664 0.62786,-0.007 2.62062,-2.70652 4.42968,-6 3.5628,-6.48622 5.09246,-7.96385 2.83399,-2.73828 -8.02722,18.57312 -7.83673,17.98488 -6.66407,20.55859 0.99464,2.18298 0.67318,3.24774 -2.55664,8.48047 -2.03175,3.29169 -4.23938,7.83571 -4.90429,10.09766 -1.4431,4.90928 -3.86007,5.68953 -7.86524,2.53906 C 302.52029,278.47747 293.95802,275 291.04297,275 c -1.85346,0 -1.93775,-0.93557 -2.00195,-22.08789 -0.0719,-23.69725 0.16783,-24.63757 4.62109,-18.06641 1.18948,1.75518 2.94268,5.67269 3.89648,8.70508 2.66787,8.48183 3.80673,8.14275 6.89258,-2.05078 2.93528,-9.69617 5.75791,-17.5115 6.48828,-17.96289 0.0262,-0.0162 0.0509,-0.0215 0.0742,-0.0156 z m 43.00781,37.04297 c 1.28707,-0.0172 2.48803,-0.0169 3.56055,0.004 2.86006,0.0555 4.80847,0.25339 5.04297,0.63281 0.6006,0.97179 0.95475,6.35401 1.80273,27.29883 0.26721,6.6 0.80174,16.5 1.1875,22 1.57114,22.40095 0.77846,53.98859 -1.46093,58.23633 -0.51143,0.97009 -1.20562,3.77279 -1.54297,6.22851 -0.72049,5.2448 -1.34742,5.90089 -8.61133,8.99024 -3.025,1.28654 -7.07105,3.01998 -8.99219,3.85351 -3.933,1.70644 -14.98495,4.85998 -22.50781,6.42188 -2.75,0.57096 -7.93482,2.10307 -11.52148,3.4043 C 307.39185,398.936 303.83998,400 303.08594,400 c -2.23614,0 -19.12741,4.87928 -27.58594,7.96875 -2.75,1.00444 -8.6,2.56458 -13,3.4668 -4.4,0.90222 -10.475,2.14778 -13.5,2.76757 -3.025,0.61983 -6.175,1.41474 -7,1.76563 -1.85682,0.78976 -6,0.17346 -6,-0.89258 0,-0.43206 2.5875,-2.61097 5.75,-4.83984 3.1625,-2.22887 7.0721,-5.44371 8.6875,-7.14453 1.6154,-1.70082 3.34395,-3.0918 3.8418,-3.0918 2.37967,0 24.15371,-20.18478 27.50781,-25.5 1.38828,-2.2 3.34838,-4.9 4.35547,-6 3.30093,-3.60543 6.68628,-8.89137 9.92578,-15.5 1.75244,-3.575 3.94917,-7.4 4.88281,-8.5 C 303.01364,342.07002 308,330.8666 308,328.66211 c 0,-0.87336 0.90568,-3.88822 2.01367,-6.69922 2.23476,-5.66963 3.75332,-14.60729 4.41016,-25.96289 0.8869,-15.33312 2.86185,-24 5.46875,-24 0.46279,0 2.04507,-1.81887 3.51562,-4.04102 1.47055,-2.22215 3.89279,-4.51702 5.38282,-5.10156 2.98848,-1.17238 16.22097,-2.1726 25.23046,-2.29297 z m -71.61914,5.51563 c 1.09472,0.0494 1.89096,0.60534 2.45508,1.66992 1.29289,2.43987 0.2306,17.41816 -1.36523,19.25 -0.7187,0.825 -2.95169,4.875 -4.96094,9 -5.16879,10.61155 -5.68169,11.4104 -10.11914,15.7168 -2.18579,2.12123 -6.1877,7.21557 -8.89258,11.32031 C 254.41447,330.78422 241.37293,346 239.83789,346 c -0.48284,0 -4.68531,1.8 -9.33789,4 -4.65258,2.2 -8.70444,4 -9.00391,4 -0.29947,0 -2.87374,1.60219 -5.7207,3.56055 C 210.0918,361.47017 176.90912,378 174.74414,378 c -0.74355,0 -3.46615,1.34063 -6.04883,2.97852 -5.63797,3.57549 -6.49835,7.02148 -1.7539,7.02148 1.61754,0 3.20108,-0.42224 3.51953,-0.9375 0.55235,-0.89372 10.78005,-6.0625 11.99609,-6.0625 0.31999,0 2.36483,-1.125 4.54297,-2.5 2.17814,-1.375 4.90975,-2.5 6.07031,-2.5 1.16055,0 3.29434,-1.35 4.74219,-3 1.44785,-1.65 3.15193,-3 3.78711,-3 0.63518,0 1.7157,-0.675 2.40039,-1.5 0.68469,-0.825 1.89808,-1.5 2.69727,-1.5 0.7992,0 4.68294,-1.91068 8.6289,-4.24609 3.94596,-2.33542 8.29883,-4.80681 9.67383,-5.49219 1.375,-0.68538 4.75,-2.54336 7.5,-4.12891 2.75,-1.58555 5.3375,-2.68802 5.75,-2.44922 0.4125,0.23881 0.75,1.75009 0.75,3.35743 0,7.0875 2.44051,17.02476 4.70312,19.15039 1.25899,1.18275 2.5817,1.85775 2.93946,1.5 0.35772,-0.35776 0.56064,-4.0358 0.45117,-8.17188 -0.10947,-4.13608 0.0799,-7.51953 0.41992,-7.51953 0.34004,0 1.44222,0.44154 2.44922,0.98047 2.66997,1.42893 3.81807,-3.46069 1.43164,-6.09766 -1.6066,-1.77528 -1.6015,-1.99663 0.10547,-3.88281 0.99549,-1.1 2.5316,-2 3.41406,-2 0.88246,0 2.16656,-0.9 2.85352,-2 1.1352,-1.81775 0.99734,-2.00174 -1.50977,-2.01562 -4.8966,-0.0272 -5.57742,-1.24025 -2.83984,-5.05665 1.35256,-1.88557 3.72526,-5.36683 5.27148,-7.73632 1.54621,-2.36949 4.40214,-6.41949 6.34766,-9 10.38471,-13.77418 15.867,-22.1343 17.00195,-25.92579 2.0407,-6.81727 3.33032,-7.46906 10.99024,-5.56835 3.55927,0.88319 7.88797,2.21125 9.62109,2.95312 1.73312,0.74186 3.88461,1.34961 4.78125,1.34961 0.89664,0 1.92152,0.7536 2.27539,1.67578 1.09269,2.84751 -1.61547,17.93868 -4.73828,26.4082 -1.63301,4.42896 -2.96875,8.73422 -2.96875,9.56641 0,1.94591 -13.90307,25.89537 -19.90039,34.28125 -6.38983,8.93471 -9.70355,12.06254 -25.45313,24.01367 -7.5705,5.74467 -14.07521,10.92228 -14.45507,11.50586 -0.37986,0.58359 -2.26641,2.27757 -4.19141,3.76563 -1.925,1.48806 -5.72853,4.71797 -8.45312,7.17773 -2.72461,2.45976 -7.44961,5.44785 -10.5,6.63867 -3.05043,1.19082 -8.47188,3.33887 -12.04688,4.77344 -5.26863,2.11419 -8.33079,2.63902 -16.16602,2.77148 -5.31655,0.0899 -10.71655,0.36055 -12,0.60157 -4.92869,0.92557 -29.34265,-0.84872 -32.91992,-2.39258 -6.37798,-2.75259 -16.23683,-10.11653 -23.14453,-17.28711 -6.93051,-7.19425 -7.76069,-8.5 -5.4082,-8.5 1.70397,0 8.86364,4.77061 9.9375,6.62109 0.43983,0.75799 1.45233,1.37891 2.25,1.37891 1.64633,0 1.98449,-3.55275 0.42969,-4.51367 -1.05848,-0.65418 -7.24372,-13.29287 -8.43164,-17.22852 -0.79072,-2.61972 -1.17876,-4.56576 -3.39649,-17.05469 -0.90805,-5.11356 -2.10039,-9.29692 -2.65039,-9.29492 -2.91812,0.0101 -1.83825,21.85777 1.37695,27.86133 0.6688,1.24886 0.94227,2.71136 0.60938,3.25 -0.78097,1.26383 -4.1893,1.27073 -4.96875,0.01 -0.33024,-0.53434 -2.60638,-1.86058 -5.0586,-2.94532 C 105.00676,386.99902 103,385.63757 103,385.05664 103,384.47571 102.56487,384 102.0332,384 c -1.72333,0 -7.861475,-6.83654 -13.072262,-14.55859 -3.951124,-5.85532 -5.306927,-8.89889 -6.06836,-13.62696 -1.463828,-9.08954 -3.350745,-12.82619 -9.076172,-17.97461 l -5.18164,-4.66015 0.363281,-7.33985 c 0.633346,-12.79409 0.218237,-26.10319 -1.044922,-33.51757 -1.193568,-7.0059 -0.747153,-11.60397 0.945313,-9.74024 0.45811,0.50447 1.39291,4.50378 2.076171,8.88672 C 72.474286,301.08877 73.495144,304 75.369141,304 77.239198,304 78,301.80543 78,296.41797 78,293.29434 77.588981,292 76.597656,292 75.258212,292 73,287.19931 73,284.35156 c 0,-2.31088 3.249187,-1.49562 9.830078,2.4668 8.513966,5.12632 10.85806,4.73336 18.527342,-3.10352 6.73848,-6.88574 7.81898,-6.55223 7.40235,2.28516 -0.2238,4.7469 -0.53362,5.5 -2.25977,5.5 -1.1,0 -2.45,0.27888 -3,0.61914 -0.55,0.34026 -2.6875,0.92277 -4.75,1.29492 -3.957918,0.71417 -4.937169,2.13868 -2,2.91016 0.9625,0.25282 4.15337,0.45712 7.08984,0.45312 4.33756,-0.005 6.10596,0.54988 9.43164,2.95899 3.84173,2.78293 4.12443,3.32924 4.58204,8.86523 0.5631,6.81163 0.57737,23.77191 0.0234,27.29688 -0.58289,3.70936 1.37458,3.39789 3.94922,-0.62891 2.06088,-3.22328 2.24161,-4.33295 1.58399,-9.70508 -0.40836,-3.3358 -0.81641,-6.84997 -0.90821,-7.81054 -0.20148,-2.10843 2.95884,-5.20463 4.40235,-4.3125 0.5671,0.35049 0.97304,2.17617 0.90234,4.05664 -0.13041,3.46894 2.33034,7.96374 7.62109,13.91992 1.42515,1.60439 3.10409,4.62614 3.73047,6.7168 1.29734,4.33015 0.45087,5.98168 -4.33593,8.45703 -4.60412,2.38088 -3.26172,6.23831 1.73437,4.98437 2.2037,-0.5531 5.69291,-4.78543 9.24414,-11.20898 2.35351,-4.2571 11.12319,-10.86735 21.69922,-16.35742 2.2,-1.14203 6.25,-3.31436 9,-4.82618 10.80179,-5.9383 13.3128,-7.21661 22,-11.20507 16.41678,-7.53726 19.52758,-9.13103 22.27539,-11.41407 13.18939,-10.95848 29.65403,-20.07517 44.22461,-24.48828 5.775,-1.74912 11.69444,-3.83262 13.1543,-4.6289 1.75967,-0.95981 3.15333,-1.41655 4.24804,-1.36719 z m 702.14258,1.00781 c 3.52125,-0.13398 3.1298,3.70493 -0.54492,13.24805 -1.65,4.28499 -3,8.87252 -3,10.19336 0,1.32083 -1.43226,4.031 -3.18164,6.02343 -2.94261,3.35145 -3.48527,3.57576 -7.25,2.9961 C 959.16834,297.79356 957,297.76376 957,299.35742 c 0,1.62797 -3.01631,3.16145 -17.0293,8.6582 -4.65911,1.82761 -9.10587,3.80772 -9.88281,4.40235 -1.08862,0.83316 -1.30071,0.73798 -0.92187,-0.41797 0.27037,-0.825 1.48648,-2.00034 2.70117,-2.61133 1.21468,-0.611 3.20303,-1.99938 4.41992,-3.08594 1.21688,-1.08656 6.03789,-3.88832 10.71289,-6.22656 4.675,-2.33823 8.84292,-4.57659 9.26172,-4.97461 C 957.3474,294.06979 961,280.50965 961,277.51172 c 0,-3.92225 3.01297,-6.12027 9.41797,-6.87305 3.15139,-0.37038 7.32575,-1.34082 9.27734,-2.15625 2.06643,-0.86341 3.67586,-1.34987 4.84961,-1.39453 z m -926.119139,4.2207 c 0.557886,0.18597 1.375712,2.10606 1.816407,4.26563 0.440693,2.15958 1.496846,5.40621 2.345703,7.21484 1.025246,2.18445 1.709517,7.54711 2.039062,15.97656 0.272848,6.97923 0.652696,12.84606 0.84375,13.03711 0.191055,0.19106 -0.105822,1.77734 -0.658203,3.52344 -1.138802,3.59981 -4.299786,21.77556 -6.103516,35.08985 -0.664406,4.90433 -1.667493,9.07096 -2.228515,9.25781 C 54.620606,360.29323 39,342.90648 39,340.2168 c 0,-0.77186 0.9,-1.64008 2,-1.92774 2.576009,-0.67364 2.529373,-2.69512 -0.160156,-7.04687 l -2.158203,-3.49414 2.314453,-1.7461 c 3.005212,-2.26683 2.128026,-4.50408 -2.527344,-6.44922 -4.105767,-1.7155 -4.086162,-3.08079 0.130859,-9.29492 C 39.919545,308.31278 41,306.29148 41,305.76562 c 0,-0.52582 0.851607,-2.15332 1.892578,-3.61523 2.7085,-3.80373 11.064895,-19.82742 11.421875,-21.90234 0.658845,-3.82949 3.154987,-9.25824 4.111328,-8.93946 z M 954.64258,275 c 2.10188,0 2.66817,4.50878 1.25781,10.01172 -1.00181,3.90885 -2.23244,5.83555 -5.35156,8.38086 -4.37045,3.56646 -15.76774,10.77815 -21.75,13.76172 -2.03594,1.01539 -4.1473,1.8457 -4.69141,1.8457 -1.70319,0 -2.58915,-2.33683 -2.62695,-6.92578 -0.0212,-2.56803 -0.55102,-4.59774 -1.25977,-4.83399 -1.60869,-0.53623 -1.54648,-2.80941 0.16602,-6.08593 0.76301,-1.45986 1.87831,-3.8918 2.47851,-5.4043 0.74177,-1.86927 1.81932,-2.75186 3.36329,-2.75586 1.24929,-0.003 7.85744,-1.803 14.68359,-4 C 947.73825,276.79715 953.91671,275 954.64258,275 Z m -663.39649,4.26953 c 2.60776,0.1131 6.54637,1.08701 9.41407,2.5332 11.2135,5.65502 10.95587,5.42699 9.73242,8.61524 -0.79772,2.07883 -3.29686,1.81796 -12.60938,-1.31836 -6.5348,-2.20082 -7.87427,-3.03905 -8.73828,-5.46484 -0.56123,-1.57568 -0.7676,-3.27484 -0.45703,-3.77735 0.21063,-0.3408 0.79902,-0.52847 1.62891,-0.58203 0.3112,-0.0201 0.65676,-0.022 1.02929,-0.006 z m 788.33201,0.13086 c 0.8297,0.002 1.9506,0.36864 3.4219,0.92578 1.375,0.52067 3.6807,0.88094 5.123,0.80274 2.9769,-0.16133 4.8065,1.54804 4.7325,4.41797 -0.027,1.07465 0.032,6.60376 0.1308,12.2871 0.099,5.68334 -0.088,10.59928 -0.414,10.92579 -0.8985,0.89846 -3.3921,-2.87143 -4.1407,-6.25977 -0.3645,-1.65 -1.0268,-3.45635 -1.4726,-4.01367 -0.4458,-0.55731 -1.3646,-3.21034 -2.041,-5.89649 -1.1177,-4.43874 -1.3525,-4.71764 -2.5742,-3.04687 -1.7065,2.33356 -1.6718,5.24119 0.1601,13.88867 0.8076,3.81206 1.3296,7.06687 1.1621,7.23438 -1.0047,1.0047 -4.6333,-10.50925 -5.2793,-16.75 -1.164,-11.24535 -1.2976,-14.52058 1.1914,-14.51563 z M 591.69336,282 c 1.56097,0 11.27496,6.04534 15.07617,9.38281 2.60144,2.28407 5.85547,4.66646 7.23047,5.29297 4.38939,1.99999 11.72503,3.54619 13.75977,2.90039 1.08339,-0.34385 5.43464,-3.99007 9.66796,-8.10156 4.23332,-4.11149 8.12516,-7.47461 8.64844,-7.47461 0.52327,0 0.30597,1.54475 -0.48242,3.43164 -1.2213,2.92298 -3.37409,12.1145 -5.21484,22.26563 -0.26563,1.46485 -0.71148,3.03138 -0.99024,3.48242 -1.51674,2.45414 -6.22342,-0.25174 -7.70508,-4.42969 -0.81284,-2.29205 -2.14434,-2.20828 -5.60937,0.35352 -2.51508,1.85948 -3.87617,2.05373 -11.71094,1.67773 -4.87522,-0.23397 -10.21328,-1.02675 -11.86328,-1.76367 -1.65,-0.73691 -3.39743,-1.24788 -3.88281,-1.13477 -0.48538,0.11311 -2.62147,-0.99833 -4.7461,-2.4707 -3.33913,-2.31402 -3.76572,-3.03267 -3.15234,-5.29492 0.39028,-1.43943 0.69309,-6.10469 0.67187,-10.36719 -0.0212,-4.2625 0.11421,-7.75 0.30274,-7.75 z m -4.75195,3 c 0.58246,0 1.05859,0.45 1.05859,1 0,0.55 -0.19887,1 -0.44141,1 -0.24254,0 -0.71867,-0.45 -1.05859,-1 -0.33992,-0.55 -0.14105,-1 0.44141,-1 z m 0.71679,6.43359 c 0.17622,0.051 0.23836,0.78442 0.27149,2.31641 0.0387,1.7875 -0.37969,3.25 -0.92969,3.25 -1.18717,0 -1.18717,-1.7373 0,-4.5 0.31509,-0.73326 0.52114,-1.10607 0.6582,-1.06641 z m 10.21289,2.85547 c -1.28424,0.0353 -1.74893,1.06971 -0.9082,2.64063 0.53214,0.9943 0.68326,2.09213 0.33594,2.43945 -0.34732,0.34731 0.34349,0.63086 1.53515,0.63086 1.61862,0 2.16602,-0.60488 2.16602,-2.39258 0,-1.31616 -0.71521,-2.66827 -1.58984,-3.0039 -0.59222,-0.22725 -1.11098,-0.32622 -1.53907,-0.31446 z m 283.17774,2.94532 c 0.33604,2e-5 0.64795,0.078 0.91992,0.24609 1.26889,0.78421 -0.0797,9.85641 -1.75,11.76953 -2.14575,2.45772 -2.57534,2.24128 -3.89063,-1.96094 -0.92704,-2.96185 -0.88257,-4.2492 0.21876,-6.3789 1.13242,-2.18989 3.04575,-3.67594 4.50195,-3.67578 z M 90.007812,298.61133 C 88.885876,298.65918 88,299.51026 88,301.02539 c 0,0.99617 -0.315947,2.6351 -0.703125,3.64258 -0.629894,1.63906 -0.761411,1.58952 -1.25,-0.47656 -0.300322,-1.26996 -0.990735,-2.39496 -1.533203,-2.5 -1.874761,-0.36302 -1.611811,3.11916 0.58789,7.79882 2.030059,4.31877 2.439386,4.65237 5.095704,4.1211 2.501728,-0.50034 3.161081,-0.12012 4.912109,2.84765 1.280156,2.1697 2.54883,3.22547 3.457031,2.87696 0.966352,-0.37082 1.433594,0.13732 1.433594,1.55664 0,1.44695 0.63297,2.10742 2.01953,2.10742 1.56656,0 1.91397,-0.5042 1.54883,-2.25 -0.25883,-1.2375 -0.98993,-6.18603 -1.62305,-10.99609 -0.63311,-4.81006 -1.55529,-8.49644 -2.048826,-8.19141 C 99.402946,301.86752 99,302.76605 99,303.55859 99,304.35113 98.55,305 98,305 c -0.55,0 -1,-0.675 -1,-1.5 0,-0.825 -0.574577,-1.5 -1.277344,-1.5 -0.702768,0 -2.040601,-0.88996 -2.972656,-1.97852 -0.854325,-0.99778 -1.869569,-1.44737 -2.742188,-1.41015 z M 1071.3828,299 c 3.482,0 4.2473,1.00686 5.1328,6.75 0.3879,2.51558 -0.8084,2.71737 -4.4004,0.74219 -2.8071,-1.54357 -4.0786,-3.32417 -4.0996,-5.74219 -0.012,-1.32486 0.8057,-1.75 3.3672,-1.75 z m -159.50194,1.10352 c 1.23781,-0.0994 2.48323,0.57827 3.5625,2.11914 2.00333,2.86015 1.96415,3.36983 -0.44336,5.77734 -1.95008,1.95008 -3.63742,2.25169 -7.29102,1.30273 -1.31021,-0.34031 -1.61869,-1.04878 -1.14648,-2.63476 1.21368,-4.0763 3.25535,-6.39877 5.31836,-6.56445 z m -309.98047,0.93554 c -0.493,4e-4 -0.90039,0.44788 -0.90039,1.33985 0,0.75791 1.0125,2.09026 2.25,2.96093 v -0.002 c 2.83253,1.99287 5.12037,1.69326 5.58789,-0.73437 0.2981,-1.54791 -0.10431,-1.78616 -2.31641,-1.36329 -1.73402,0.33148 -2.86506,0.0279 -3.20703,-0.86328 -0.34218,-0.89154 -0.92106,-1.33828 -1.41406,-1.33789 z M 614.02344,303 c -1.98659,0 -3.0203,1.70846 -2.26953,3.75 0.61904,1.68336 2.72648,1.57928 4.20898,-0.20703 C 617.45647,304.74331 616.50188,303 614.02344,303 Z m 7.01367,0.5918 C 619.96905,303.6651 619,304.43682 619,305.60742 c 0,0.81921 1.02978,1.39258 2.5,1.39258 2.69297,0 3.16669,-0.93488 1.37891,-2.72266 -0.52312,-0.52311 -1.20096,-0.72954 -1.8418,-0.68554 z m 344.50391,0.0879 c 5.56689,0.12732 5.91162,1.35699 0.14843,2.82031 -2.64597,0.67184 -5.32464,1.7348 -5.95117,2.36133 -0.62652,0.62652 -1.93513,1.13867 -2.9082,1.13867 -0.97306,0 -3.46939,0.85937 -5.54883,1.91016 -2.07943,1.05078 -7.15625,3.3226 -11.28125,5.04687 -4.125,1.72427 -8.69444,3.78795 -10.1543,4.58789 C 928.38584,322.34486 926.42999,323 925.5,323 c -1.46168,0 -11.08497,4.7658 -14,6.93359 -3.56745,2.65297 -28.50984,10.7243 -28.49414,9.22071 0.004,-0.36029 1.58988,-1.73199 3.52344,-3.04883 1.93357,-1.31684 3.28981,-2.62034 3.01367,-2.89649 -0.81894,-0.81894 -8.66444,4.78581 -8.0625,5.75977 0.30359,0.49121 0.12644,1.15655 -0.39453,1.47852 -0.52097,0.32198 -1.2435,0.10521 -1.60547,-0.48047 -0.45362,-0.73397 -1.12129,-0.68092 -2.14649,0.16992 -1.04176,0.86458 -1.29962,2.23076 -0.86328,4.55664 C 877.26833,348.9451 873.37921,358 870.75586,358 869.79014,358 869,357.38071 869,356.62305 c 0,-0.75765 -0.67049,-1.93491 -1.49023,-2.61524 -1.26418,-1.04917 -1.92358,-0.27134 -4.34571,5.12696 -1.57061,3.50048 -3.60011,6.98344 -4.50976,7.73828 -0.90964,0.75485 -1.6543,2.18029 -1.6543,3.16797 0,0.98767 -0.27357,2.50697 -0.60742,3.37695 -1.4912,3.88602 -4.63071,0.12068 -3.77344,-4.52539 0.85875,-4.65408 8.58993,-16.99467 12.50586,-19.96094 1.76592,-1.33766 3.69803,-3.0483 4.29297,-3.80273 3.5335,-4.48083 7.53115,-7.36842 15.31836,-11.06641 4.82013,-2.28898 9.63292,-4.64486 10.69531,-5.23438 1.06238,-0.58951 3.08738,-1.4342 4.5,-1.87695 7.83244,-2.45493 23.76141,-9.07342 31.18555,-12.95703 0.88971,-0.46541 3.58971,-1.36917 6,-2.00976 2.4103,-0.64061 7.6846,-2.72518 11.7207,-4.63086 5.79471,-2.73603 8.73966,-3.50457 14,-3.65821 1.00587,-0.0294 1.90785,-0.0338 2.70313,-0.0156 z M 633.5,305 c -0.825,0 -1.5,0.45 -1.5,1 0,0.55 0.675,1 1.5,1 0.825,0 1.5,-0.45 1.5,-1 0,-0.55 -0.675,-1 -1.5,-1 z m 458.7754,23.03906 c 0.8191,-0.0719 2.7223,2.90917 2.7305,4.83399 0,1.44516 0.4833,4.34529 1.0664,6.44531 0.8022,2.88873 0.7555,4.18526 -0.1914,5.32617 -1.0083,1.21492 -0.9867,1.67173 0.1132,2.35156 0.751,0.46411 1.4317,1.66736 1.5137,2.67383 0.1725,2.12863 2.2712,13.81 3.6524,20.33008 0.5243,2.475 1.0866,5.625 1.25,7 0.4203,3.53718 2.7691,11.31952 3.7578,12.44922 1.4662,1.67531 0.8984,3.58336 -1.8145,6.09766 -3.406,3.15656 -4.3501,3.0931 -4.3691,-0.29688 -0.01,-1.5125 -0.5102,-8.15 -1.1133,-14.75 -0.6031,-6.6 -1.1052,-12.9 -1.1152,-14 -0.018,-1.86912 -1.8688,-10.59324 -5.3516,-25.2168 -0.8144,-3.41968 -1.2764,-7.46968 -1.0254,-9 0.251,-1.53032 0.4941,-3.17641 0.5391,-3.65625 0.037,-0.39209 0.1684,-0.57129 0.3574,-0.58789 z m -197.82032,3.44141 c -0.11081,-0.0133 -0.23519,-0.0129 -0.36914,0.004 -0.17861,0.0223 -0.37462,0.0735 -0.58008,0.15234 -0.82184,0.31537 -1.24148,0.98303 -0.93164,1.48437 0.64806,1.04858 2.42578,0.20712 2.42578,-1.14843 0,-0.28141 -0.21249,-0.45223 -0.54492,-0.49219 z M 63.884766,349.58203 c 1.416818,-0.30458 7.907844,5.34453 10.171875,9.00781 1.194656,1.93299 2.006877,3.66593 1.80664,3.84961 C 75.663043,362.62314 73.25,361.25043 70.5,359.38867 c -4.632644,-3.13631 -7.953874,-7.83791 -6.828125,-9.66406 0.04659,-0.0756 0.118436,-0.12227 0.212891,-0.14258 z m 30.148437,2.49219 C 93.444797,352.09429 93,352.85653 93,354.34961 c 0,3.31542 5.514794,10.53365 9.30859,12.18359 4.1449,1.80264 5.17673,1.79009 6.73047,-0.082 1.05911,-1.27614 0.9621,-2.19824 -0.55273,-5.25 -1.50672,-3.03542 -1.90643,-3.34106 -2.22071,-1.70117 -0.93161,4.86132 -1.25493,4.91639 -5.39453,0.91992 -2.233167,-2.15595 -4.456787,-4.93242 -4.941402,-6.16992 -0.576994,-1.47338 -1.308079,-2.19586 -1.896485,-2.17578 z M 68.058594,364 c 0.582459,0 0.781325,0.45 0.441406,1 -0.339919,0.55 -0.816053,1 -1.058594,1 C 67.198865,366 67,365.55 67,365 c 0,-0.55 0.476135,-1 1.058594,-1 z m 61.935546,2.20312 c -0.35563,0.0258 -0.71001,0.28252 -1.05078,0.80469 -2.25974,3.46268 2.47767,28.93791 6.35742,34.18555 1.14116,1.54349 2.47969,2.80664 2.97461,2.80664 1.18963,0 -3.7e-4,-6.78476 -2.375,-13.54102 -1.04544,-2.97446 -1.91936,-7.33235 -1.94336,-9.68359 -0.0825,-8.09954 -2.0425,-14.71136 -3.96289,-14.57227 z m 536.18555,2.17579 c 0.82804,0.079 1.59856,1.07024 2.26953,2.96875 0.71258,2.01626 0.57927,3.05159 -0.5332,4.16406 -1.30786,1.30781 -1.73914,1.29985 -3.69532,-0.0703 -2.1044,-1.47398 -2.13845,-1.70184 -0.66015,-4.56055 0.90408,-1.74832 1.79109,-2.58092 2.61914,-2.50195 z m -225.27539,8.73437 c -1.56795,-5.6e-4 -1.9043,0.37068 -1.9043,1.23828 0,0.94279 1.13977,1.86166 2.75,2.2168 1.5125,0.33359 3.875,0.98098 5.25,1.43945 3.42149,1.14084 3.7908,1.13944 4.50586,-0.0176 0.37231,-0.60241 3.11605,-0.78759 6.80859,-0.46093 10.69088,0.94576 47.00905,0.54759 48.08399,-0.52735 0.66812,-0.66812 -4.47065,-1.0446 -15.44922,-1.1289 -9.0475,-0.0694 -18.47422,-0.27607 -20.94922,-0.45899 -2.475,-0.18292 -7.65,-0.5215 -11.5,-0.7539 -3.85,-0.2324 -9.8125,-0.75866 -13.25,-1.16993 -2.02068,-0.24175 -3.40494,-0.37661 -4.3457,-0.37695 z m 218.86523,3.72656 c 0.11364,-0.0248 0.22815,-0.0219 0.3457,0.008 0.76123,0.19138 2.478,0.55291 3.81446,0.80273 5.42462,1.01403 5.41282,2.93739 -0.0566,8.87109 -4.39283,4.76566 -5.29124,5.20909 -6.54883,3.22852 -1.07671,-1.6957 -1.05108,-2.4693 0.26758,-8.25 0.6781,-2.97266 1.38224,-4.48668 2.17773,-4.66016 z m 192.55274,1.36524 c 0.20613,0.0261 0.50254,0.21934 0.86132,0.57812 0.65087,0.65084 0.95019,1.41506 0.66602,1.69922 C 853.18222,385.14981 852,383.96759 852,382.63281 c 0,-0.3133 0.11613,-0.45386 0.32227,-0.42773 z m -7.46289,0.94336 c 0.9878,0.041 2.22523,1.51177 3.61914,4.44922 1.44511,3.04535 1.50637,3.84111 0.37304,4.94922 -0.74293,0.72638 -2.54216,1.61409 -3.99804,1.9707 -2.62879,0.6439 -2.64586,0.61288 -2.36914,-4.51563 0.24791,-4.59471 1.10494,-6.90618 2.375,-6.85351 z m -345.84766,5.09961 c -0.64706,0.0185 -1.01172,0.40319 -1.01172,1.10547 0,2.26627 3.83769,2.79224 33,4.52343 9.07285,0.53864 22.76494,0.54218 72.12109,0.0234 11.84796,-0.12451 16.26501,-0.95497 16.68555,-3.13867 0.27452,-1.42547 -0.14651,-1.52284 -2.99414,-0.69336 -2.42204,0.70548 -55.9778,1.22756 -75.3125,0.73437 -0.55,-0.014 -2.8,0.079 -5,0.20508 -2.2,0.12611 -7.6,-0.0501 -12,-0.39062 -4.4,-0.34051 -11.375,-0.87918 -15.5,-1.19727 -4.125,-0.31809 -8.2875,-0.79792 -9.25,-1.0664 -0.27532,-0.0768 -0.5226,-0.11165 -0.73828,-0.10547 z m 232.85156,26.74414 C 732.5028,415.04121 733,416.50135 733,419 c 0,2.2 -0.23678,4 -0.52539,4 -1.00132,0 -2.41572,-4.99146 -1.83984,-6.49219 0.40968,-1.06761 0.8448,-1.54504 1.22851,-1.51562 z M 1097.3945,417 c 0.4062,0 0.596,1.18661 0.4219,2.63672 -0.174,1.45011 -1.3289,3.30412 -2.5664,4.12109 -2.1267,1.40401 -2.25,1.35134 -2.25,-0.98047 0,-2.27448 2.664,-5.77734 4.3945,-5.77734 z m -377.39645,14 c 0.72241,0 4.00195,5.50284 4.00195,6.71484 0,0.49823 -1.40388,2.3413 -3.11914,4.09571 -1.71526,1.75441 -3.62776,3.13802 -4.25,3.07422 C 713.58986,444.57296 712,443.71915 712,442.40039 712,440.91953 718.95919,431 719.99805,431 Z m -37.05469,18.41602 c -14.68591,0.0113 -39.08644,0.25812 -67.94336,0.71093 -3.575,0.0561 -7.26033,0.50163 -8.18945,0.99024 -1.04286,0.54842 -1.92958,0.49821 -2.31836,-0.13086 -0.34638,-0.56046 -1.09879,-0.72919 -1.67188,-0.375 -1.51334,0.93529 -26.95377,1.25369 -29.33398,0.36719 -2.28477,-0.85095 -13.52563,0.66544 -14.86914,2.00586 -0.48553,0.48441 -0.62949,1.54 -0.32031,2.3457 0.45934,1.19708 2.54055,1.3917 11.38281,1.06445 30.34457,-1.12308 44.40011,-1.43977 84.68164,-1.90625 24.12343,-0.27936 44.26093,-0.75438 44.75,-1.05664 1.67532,-1.03541 0.88927,-3.21483 -1.36133,-3.77539 -0.68025,-0.16943 -5.99509,-0.24698 -14.80664,-0.24023 z M 542.22656,451 c -1.81864,0 -2.58912,2.15597 -1.10547,3.0957 2.09394,1.32629 3.2628,1.07231 2.00977,-0.4375 -0.61257,-0.7381 -0.81697,-1.6381 -0.45508,-2 0.3619,-0.36189 0.15999,-0.6582 -0.44922,-0.6582 z" id="path12"/>
</svg>
