<?xml version="1.0" encoding="utf-8"?>

<svg xmlns="http://www.w3.org/2000/svg" version="1.1" viewBox="0 0 804 541">











	<path d="m 222.46862,519.5 c -0.25774,-0.825 -0.63449,-2.0625 -0.83722,-2.75 -0.20273,-0.6875 0.008,-2.2625 0.46778,-3.5 0.65327,-1.75742 1.61853,-2.25 4.40909,-2.25 C 230.30313,511 236,507.58607 236,505.31194 236,504.59037 235.1,504 234,504 c -1.1,0 -2.00689,0.5625 -2.01531,1.25 -0.0113,0.92222 -0.24018,0.89515 -0.87283,-0.10325 -0.65573,-1.03481 -1.33878,-1.09567 -2.90282,-0.25862 -2.35022,1.2578 -8.36625,0.37548 -9.41856,-1.38135 -0.54422,-0.90857 -2.17234,-0.88309 -6.98842,0.10939 -8.44423,1.74015 -30.47429,2.62962 -32.90533,1.32856 -1.0432,-0.5583 -1.89673,-1.84751 -1.89673,-2.8649 0,-2.12687 4.58656,-5.57983 7.41168,-5.57983 3.56432,0 2.71024,-2.21853 -1.09159,-2.83548 -2.55521,-0.41466 -4.49922,-0.12194 -6.08326,0.91596 -2.49966,1.63784 -6.34413,1.06346 -5.96652,-0.89142 0.14265,-0.73847 -0.81096,-1.08021 -2.51646,-0.90181 -1.51038,0.15798 -3.75336,-0.25181 -4.98441,-0.91064 -2.62569,-1.40523 -32.06531,-1.04785 -34.43718,0.41804 -1.42243,0.87911 -22.77975,1.16486 -24.14189,0.32301 -1.58075,-0.97696 -1.52117,-5.09823 0.0931,-6.43793 0.70589,-0.58584 3.51839,-1.14366 6.25,-1.23961 2.73161,-0.0959 6.70123,-0.60177 8.82137,-1.12405 2.12015,-0.52228 4.59515,-0.62659 5.5,-0.2318 3.0935,1.34972 4.01431,1.2178 5.82906,-0.83513 1.79718,-2.03304 1.78142,-2.04778 -1.50921,-1.41174 -2.46441,0.47633 -4.40618,0.05 -7.5,-1.64663 -3.22304,-1.7675 -5.04156,-2.14108 -7.97766,-1.63887 -4.8703,0.83305 -8.697,0.0989 -8.697,-1.66848 0,-1.56142 1.95763,-1.73626 15.75,-1.40665 5.25225,0.12552 9.25,-0.1845 9.25,-0.71734 C 131,472.96787 126.43531,471 123.43938,471 c -1.35659,0 -3.24791,-0.41715 -4.20295,-0.927 -0.95504,-0.50985 -2.63643,-1.21699 -3.73643,-1.57142 -1.96844,-0.63425 -1.9696,-0.6668 -0.073,-2.06267 2.19044,-1.61214 2.15628,-1.6653 -1.927,-2.99916 C 109.49494,462.13143 108.63297,458 112.36507,458 c 4.26865,0 16.59145,2.90806 25.52514,6.02369 4.69382,1.63697 9.35284,2.97631 10.35339,2.97631 1.00054,0 2.07819,0.675 2.39477,1.5 0.31659,0.825 1.76496,1.51258 3.21862,1.52795 1.45365,0.0154 6.4509,1.33297 11.10499,2.928 4.65409,1.59503 8.83303,2.67074 9.28652,2.39047 1.17582,-0.7267 12.05508,2.80311 13.2515,4.29949 0.55,0.68789 3.57895,2.20311 6.73099,3.36714 3.15205,1.16403 6.01534,2.5765 6.36287,3.13882 1.51403,2.44976 -4.75222,4.66888 -7.34386,2.60074 -1.82469,-1.45611 -1.63779,1.68067 0.19056,3.19806 0.79231,0.65756 1.20139,1.81881 0.90908,2.58057 -0.57041,1.48647 2.29371,2.489 6.65036,2.32783 6.32137,-0.23387 19.90525,0.46564 19.83804,1.02155 -0.22474,1.85897 0.32481,2.22911 1.66196,1.11938 1.17461,-0.97484 1.81589,-0.98272 2.9562,-0.0364 0.8009,0.66469 1.96435,0.89447 2.58544,0.51061 0.62109,-0.38385 4.10295,-0.68076 7.73746,-0.65979 6.7828,0.0391 9.15729,-1.20926 9.15729,-4.81447 0,-1.20787 -0.25871,-1.15918 -1.32844,0.25 -1.72236,2.26893 -3.03969,2.21204 -4.73598,-0.20455 -0.75458,-1.075 -2.68346,-2.26735 -4.28639,-2.64967 -2.56373,-0.61149 -2.83418,-0.46654 -2.24755,1.20454 0.62165,1.77086 0.56264,1.76483 -0.87023,-0.0889 -0.84542,-1.09369 -2.08402,-2.03765 -2.75246,-2.09768 -0.66844,-0.06 -2.42252,-0.1777 -3.89795,-0.26148 -1.77976,-0.10105 -2.91037,-0.86989 -3.35933,-2.28444 -0.48452,-1.52661 -0.8979,-1.77422 -1.45558,-0.87188 -0.46174,0.74711 -1.31365,0.92973 -2.09228,0.44851 -0.72237,-0.44645 -3.02268,-0.71087 -5.1118,-0.5876 C 210.69061,486.98127 209,486.6179 209,486.04051 209,485.46823 207.43357,485 205.51905,485 c -2.87902,0 -3.58945,-0.4323 -4.10841,-2.5 -1.49804,-5.96869 2.15241,-9.91304 6.80159,-7.34917 1.25827,0.6939 3.73512,1.36731 5.50409,1.49647 1.76898,0.12916 4.91094,1.38635 6.98214,2.79377 2.07119,1.40741 4.30705,2.55893 4.96857,2.55893 0.66153,0 2.46957,0.50489 4.01787,1.12197 1.54831,0.61709 4.0563,1.24006 5.57332,1.38438 1.51702,0.14432 3.39646,0.7921 4.17653,1.4395 2.15607,1.78937 20.21612,2.09605 25.21393,0.42816 2.69336,-0.89885 4.9692,-1.08099 6.48773,-0.51925 2.56232,0.94786 2.54047,0.95492 11.76227,-3.79919 C 291.2047,477.77358 299.37349,471.49168 305,465.05938 311.58291,457.53371 322.02527,447 322.90275,447 c 0.41761,0 1.33017,-1.06669 2.02791,-2.37043 0.69773,-1.30374 5.54263,-6.14124 10.76642,-10.75 C 344.64984,425.98088 352,417.54457 352,415.16754 c 0,-0.58547 1.125,-2.27839 2.5,-3.76204 1.67936,-1.81206 2.5,-3.84959 2.5,-6.20712 0,-3.19144 -1.25848,-4.74188 -13.8832,-17.10398 -17.45649,-17.09335 -28.8134,-26.6919 -36.00338,-30.42905 -3.08738,-1.60474 -6.28842,-3.47005 -7.11342,-4.14515 -0.825,-0.67509 -2.85,-1.9184 -4.5,-2.76291 -5.71799,-2.9266 -10.02031,-5.36128 -14.23013,-8.05279 C 278.9433,341.21703 276.65055,340 276.17486,340 c -0.47569,0 -1.67937,-0.9 -2.67486,-2 -0.99549,-1.1 -2.41964,-2 -3.16478,-2 -0.74513,0 -2.1254,-0.9 -3.06725,-2 -0.94185,-1.1 -2.26248,-2 -2.93473,-2 -0.67225,0 -4.66133,-2.92265 -8.86462,-6.49477 -4.20329,-3.57213 -8.95383,-7.2695 -10.55677,-8.21637 -1.60293,-0.94688 -3.16917,-2.52423 -3.48052,-3.50523 C 241.11997,312.80264 240.19469,312 239.37515,312 c -1.34471,0 -6.38079,-4.57996 -24.46587,-22.25 -3.23678,-3.1625 -6.15449,-5.75 -6.48379,-5.75 -0.32931,0 -3.02722,-2.48741 -5.99537,-5.52757 -4.80963,-4.92632 -11.07825,-13.41089 -16.93012,-22.91489 -1.1,-1.78651 -3.17361,-4.7803 -4.60801,-6.65287 -1.43441,-1.87257 -3.822,-6.10467 -5.30576,-9.40467 -1.48376,-3.3 -3.77143,-8.25 -5.08372,-11 -1.31229,-2.75 -3.58621,-7.7 -5.05316,-11 -5.79421,-13.03447 -6.92845,-15.1343 -10.1295,-18.75288 C 153.49393,196.68303 152,194.37774 152,193.62425 c 0,-2.17261 -14.14468,-15.02715 -20.87714,-18.97294 -3.36861,-1.97429 -8.65595,-5.516 -11.74964,-7.87046 -3.09369,-2.35447 -7.03077,-5.26738 -8.74906,-6.47314 -1.71829,-1.20576 -3.79916,-2.80744 -4.62416,-3.55929 -0.825,-0.75185 -3.75,-3.13274 -6.5,-5.29087 -2.75,-2.15813 -8.200873,-6.74394 -12.113051,-10.19071 C 83.474771,137.82008 79.400209,135 78.332367,135 c -1.732878,0 -4.873457,-2.65432 -11.569918,-9.77855 -1.177954,-1.2532 -3.068895,-2.43799 -4.202092,-2.63286 -1.133196,-0.19488 -5.944662,-1.08204 -10.692147,-1.97146 C 47.120726,119.72771 42.192992,119 40.91769,119 36.99041,119 27,115.62915 27,114.30405 c 0,-1.76935 4.605428,-3.93579 11.020175,-5.18401 23.284963,-4.53092 32.463396,-7.41749 31.507353,-9.908899 -0.404357,-1.053737 -0.01451,-1.310248 1.420842,-0.934894 2.480748,0.648731 3.790022,-0.891478 4.519899,-5.317135 1.295413,-7.854822 3.80494,-16.367118 6.094958,-20.674049 1.340225,-2.520618 2.4387,-5.078419 2.441054,-5.684002 0.0068,-1.759427 5.710839,-9.871024 6.286374,-8.939789 0.286879,0.464181 -0.03161,2.453138 -0.707752,4.419906 -0.676143,1.966768 -0.94396,4.389527 -0.59515,5.38391 0.484368,1.380826 2.155452,-0.605929 7.073224,-8.40937 7.934113,-12.589719 9.570993,-14.750838 10.483853,-13.841475 0.39434,0.392833 -0.0169,2.260841 -0.91392,4.151129 -3.50253,7.381026 -1.07617,6.410451 4.74509,-1.898097 2.10021,-2.997587 3.55534,-1.985238 3.64049,2.532725 0.046,2.442185 0.0812,2.453748 1.52231,0.5 3.83764,-5.202898 6.1145,-7.723158 7.83188,-8.669126 1.41739,-0.78073 1.68655,-0.732488 1.1108,0.19909 -0.49143,0.795151 -0.26911,1.067453 0.62932,0.770799 0.76406,-0.252285 1.92511,-1.52475 2.58011,-2.8277 0.655,-1.302949 2.7925,-3.190663 4.75,-4.194921 L 136,33.952221 v 2.564382 c 0,1.41041 -0.96232,3.865986 -2.13848,5.456835 -1.98273,2.681781 -2.01894,3.012001 -0.49713,4.533809 1.48077,1.480766 1.70046,1.487326 2.24547,0.06705 C 135.94213,45.708436 136.78835,45 137.49036,45 c 0.70201,0 1.52047,-0.933396 1.8188,-2.074213 0.29833,-1.140817 1.47581,-2.318301 2.61663,-2.616631 C 143.0666,40.010826 144,39.144221 144,38.383369 c 0,-1.473188 0.107,-1.504964 5.5,-1.633369 4.41712,-0.10517 4.79382,0.30775 3.52253,3.861312 L 151.98909,43.5 l 2.0162,-2.374048 C 156.29594,38.428733 165,36.728569 165,38.978356 c 0,0.840977 0.85217,1.02458 2.65514,0.572062 1.68317,-0.422448 2.93643,-0.211265 3.42354,0.576887 0.6092,0.985709 1.61349,0.964379 4.84754,-0.102957 3.81829,-1.260148 4.42669,-1.17607 9.51352,1.314705 2.9889,1.463521 6.16544,2.660947 7.05898,2.660947 2.60554,0 16.09014,6.933463 18.52476,9.524993 1.57433,1.675803 2.28455,3.775907 2.42556,7.17233 0.16024,3.859794 0.63892,5.023272 2.43818,5.926302 2.41243,1.210776 2.86709,2.788045 0.85424,2.963519 -0.6828,0.05953 -2.16889,0.176769 -3.30241,0.260542 -2.67403,0.197624 -5.37908,9.314721 -3.45246,11.636158 1.43651,1.730891 0.48787,3.635455 -1.44192,2.894923 -0.78287,-0.300416 -1.88876,0.395654 -2.52888,1.591731 -0.79537,1.486153 -1.72095,1.940469 -3.07669,1.510172 C 201.84702,87.13406 201,87.331474 201,87.932612 201,88.519676 201.45,89 202,89 c 0.55,0 1,1.289978 1,2.866618 0,2.090761 1.55625,4.57624 5.75,9.183292 7.78581,8.55312 15.38418,15.95009 16.38435,15.95009 0.4522,0 3.29717,2.475 6.32217,5.5 3.025,3.025 6.16895,5.5 6.98656,5.5 0.8176,0 1.96822,0.9 2.55692,2 0.5887,1.1 1.75035,2 2.58144,2 0.83108,0 5.61675,2.025 10.63481,4.5 5.01806,2.475 9.71137,4.5 10.42958,4.5 0.71821,0 2.77921,0.89832 4.58,1.99626 1.80079,1.09795 4.31136,1.99795 5.57903,2 1.26768,0.002 4.19268,0.84543 6.5,1.87417 2.30733,1.02874 7.27233,3.08392 11.03335,4.56707 3.76101,1.48315 15.23601,6.75943 25.5,11.72505 10.26398,4.96563 21.58679,10.36112 25.16179,11.98999 12.06916,5.49903 22.46055,11.05726 30.5,16.31409 4.4,2.87707 12.05,7.86009 17,11.07338 4.95,3.21329 11.40375,7.78132 14.34167,10.15117 2.93792,2.36985 5.73148,4.30882 6.20792,4.30882 0.47644,0 4.82269,3.19376 9.65833,7.09725 4.83565,3.90349 9.46708,7.36127 10.29208,7.68395 0.825,0.32268 4.58378,3.09142 8.35284,6.15275 3.76906,3.06133 10.51906,8.40373 15,11.87201 33.99684,26.31382 41.37924,32.16649 48.64716,38.56679 0.825,0.72652 4.425,3.00504 8,5.06339 3.575,2.05834 7.625,4.76309 9,6.01054 3.65766,3.31836 14.44142,8.64943 20.5,10.13439 1.65,0.40442 3.9,1.28315 5,1.95275 1.1,0.66959 4.925,1.76287 8.5,2.42952 3.86234,0.72022 8.29419,2.39386 10.92144,4.12436 2.4318,1.60177 5.0709,2.9123 5.86468,2.9123 0.79377,0 3.52912,1.0757 6.07855,2.39044 3.23866,1.67018 7.67644,2.71604 14.72829,3.47105 9.4046,1.00691 22.9349,4.48625 29.90704,7.69065 1.65,0.75834 4.21904,1.66349 5.70898,2.01144 1.48994,0.34796 3.23254,1.2635 3.87245,2.03453 0.6399,0.77104 1.67086,1.41601 2.29101,1.43327 0.62016,0.0173 3.82756,1.38037 7.12756,3.02912 4.71469,2.35556 7.82086,3.12169 14.5,3.5764 4.675,0.31826 9.25792,0.98016 10.18426,1.47088 0.92634,0.49072 3.10136,0.89222 4.83339,0.89222 1.73202,0 6.8241,0.94297 11.31574,2.09548 11.69857,3.00175 11.69543,3.00102 16.9139,3.93421 2.61102,0.46691 5.12389,1.08168 5.58416,1.36614 0.46027,0.28447 2.35559,0.78477 4.21182,1.11179 1.85622,0.32702 3.87867,1.01263 4.49433,1.52358 0.61565,0.51095 2.20905,1.12951 3.54088,1.37459 1.33184,0.24507 2.42152,0.50165 2.42152,0.57018 0,0.0685 1.95066,0.29282 4.33479,0.49844 2.38414,0.20562 6.65914,1.48462 9.5,2.84222 6.40026,3.05857 12.61507,5.06684 13.36357,4.31834 0.3104,-0.3104 1.50538,0.0947 2.65551,0.90034 1.15013,0.80558 2.70545,1.46469 3.45628,1.46469 0.75082,0 6.04897,2.31061 11.77367,5.13468 9.3737,4.62418 10.96209,5.81981 15.97629,12.02579 4.23913,5.24668 5.49284,7.54118 5.25382,9.61531 -0.28839,2.50262 -0.6393,2.70652 -4.31393,2.50657 -2.2,-0.1197 -5.51485,-0.21458 -7.36633,-0.21084 -1.85148,0.004 -4.77648,-0.42952 -6.5,-0.96282 -1.72352,-0.5333 -6.73367,-1.25154 -11.13367,-1.5961 -4.4,-0.34455 -10.7,-1.04744 -14,-1.56197 -3.3,-0.51453 -7.9635,-0.93891 -10.36333,-0.94307 -2.39983,-0.004 -8.02483,-0.87572 -12.5,-1.93683 -7.19947,-1.70705 -14.4109,-2.78579 -24.13667,-3.61052 -3.1897,-0.27049 -12.64478,-2.81361 -14.32771,-3.85372 -0.55304,-0.3418 -4.98055,-0.86767 -9.83891,-1.16862 C 654.09828,383.4322 635.955,379.66175 626,375.22471 c -1.925,-0.858 -6.65,-1.66224 -10.5,-1.78721 -8.40799,-0.27293 -18.99835,-1.89434 -26.5,-4.05723 -12.25952,-3.53469 -20.50807,-5.37839 -23.90996,-5.34431 l -3.59004,0.036 2.75,2.2516 c 1.5125,1.23838 2.75,2.78961 2.75,3.44719 0,1.67666 10.3128,6.79089 10.7924,5.35207 0.63004,-1.89012 2.03228,-1.25763 3.40303,1.53497 0.71752,1.46177 2.20457,3.14927 3.30457,3.75 1.1,0.60073 2.35986,1.65474 2.79969,2.34224 0.43983,0.6875 1.46816,1.25 2.28518,1.25 0.81702,0 2.66046,0.76987 4.09654,1.71082 1.43607,0.94095 3.55774,1.84935 4.71481,2.01868 1.15708,0.16932 2.57763,0.93923 3.15678,1.7109 0.57916,0.77167 1.70416,1.36738 2.5,1.32379 3.35849,-0.18396 4.947,0.3165 4.947,1.55855 0,0.72751 2.09492,2.369 4.65538,3.64776 4.48471,2.23977 4.70467,2.25759 6,0.48612 1.24801,-1.70676 1.34462,-1.6446 1.34462,0.86525 0,2.21433 0.81508,3.10012 4.5,4.89039 2.475,1.20245 4.5,2.78572 4.5,3.51839 0,0.73267 0.675,1.59114 1.5,1.90772 0.825,0.31659 1.5,1.68822 1.5,3.04807 0,2.15807 -0.34969,2.40559 -2.75,1.94654 -1.5125,-0.28926 -4.775,-0.86092 -7.25,-1.27036 -2.475,-0.40944 -4.725,-0.80468 -5,-0.87831 -0.275,-0.0736 -2.75,-0.47968 -5.5,-0.90235 -2.75,-0.42266 -11.3,-2.73254 -19,-5.13306 -28.86901,-9.00008 -43.69169,-13.44909 -44.82799,-13.45506 -0.64461,-0.003 -2.46251,-0.6792 -4.03979,-1.5018 -1.57727,-0.8226 -3.93235,-1.68868 -5.2335,-1.92463 -1.30115,-0.23594 -2.93565,-0.78498 -3.63222,-1.22008 -0.69658,-0.4351 -1.7165,-0.89287 -2.2665,-1.01728 -0.55,-0.1244 -4.7125,-1.54783 -9.25,-3.16319 -4.5375,-1.61535 -8.25,-2.74789 -8.25,-2.51675 0,0.23114 -0.89442,-0.0584 -1.98759,-0.64347 -1.09318,-0.58505 -5.48068,-1.96788 -9.75,-3.07296 -7.91035,-2.04753 -9.0549,-2.35632 -13.01241,-3.51066 -2.26701,-0.66124 -3.19246,0.87647 -1.25,2.07698 0.55,0.33992 1,1.49148 1,2.55902 0,1.06754 0.59037,1.94098 1.31194,1.94098 2.4259,0 6.12959,6.27404 6.2152,10.52853 0.1049,5.21294 0.63122,5.95792 7.1596,10.13407 3.46919,2.21922 5.27337,3.99897 4.93849,4.87164 -0.30985,0.80747 1.10323,2.66666 3.42357,4.50441 2.17316,1.72117 3.9512,3.68815 3.9512,4.37107 0,0.68291 1.125,2.29853 2.5,3.59028 3.1869,2.99394 3.31136,5.99198 0.25,6.02224 l -2.25,0.0222 L 521,425 c 1.375,1.07554 3.03186,1.96553 3.68191,1.97776 0.65004,0.0122 2.14319,1.37224 3.31809,3.02224 1.1749,1.65 2.76471,3 3.53291,3 0.7682,0 1.91362,0.96584 2.54539,2.14631 1.01855,1.90318 0.9218,2.08698 -0.85412,1.62257 -1.10153,-0.28806 -2.5972,-0.15637 -3.32372,0.29264 -1.05276,0.65064 -0.94696,1.22962 0.52119,2.8519 1.01316,1.11954 2.57904,2.26941 3.47972,2.55528 0.90068,0.28586 2.52883,2.19894 3.61812,4.25128 1.08928,2.05233 2.65551,4.42486 3.48051,5.27227 2.03195,2.08716 5,6.73262 5,7.82577 0,1.21945 -10.16959,0.19725 -11.88391,-1.1945 -0.76114,-0.61794 -4.13614,-2.47748 -7.5,-4.13232 -3.40576,-1.67545 -6.54657,-3.98579 -7.0875,-5.21348 -0.68136,-1.54642 -1.57709,-2.05461 -3,-1.70205 -2.01439,0.49912 -3.86559,-0.61051 -25.93719,-15.54697 -4.89973,-3.31579 -9.17898,-6.0287 -9.50945,-6.0287 -0.33047,0 -1.18366,-0.93322 -1.89599,-2.07383 -0.71232,-1.14061 -2.73306,-2.72173 -4.49054,-3.5136 -3.98073,-1.7936 -14.20537,-8.22085 -24.41216,-15.34559 -4.28079,-2.98815 -7.84852,-5.23815 -7.92827,-5 -0.0798,0.23816 -0.97976,-0.24198 -2,-1.06698 -5.01928,-4.05874 -5.69428,-4.05602 -12.18693,0.0492 -4.03074,2.54858 -5.94811,4.36042 -5.59318,5.28535 0.84383,2.19897 -2.62117,2.97407 -4.17013,0.93283 -0.73763,-0.97205 -1.35545,-1.2394 -1.37295,-0.5941 -0.0175,0.64531 -1.1634,2.51811 -2.54646,4.16178 -1.38306,1.64368 -2.17056,3.17946 -1.75,3.41283 0.42056,0.23338 0.24444,0.30343 -0.39138,0.15566 -1.4953,-0.3475 -4.34396,2.80202 -4.34396,4.80276 0,0.85184 -0.63085,2.07237 -1.40189,2.71227 -0.77103,0.63991 -1.67481,2.2509 -2.00839,3.57998 -0.33358,1.32909 -1.75714,3.65807 -3.16347,5.17553 -1.40633,1.51745 -3.47371,4.89005 -4.59419,7.49467 -1.12047,2.60461 -3.11606,5.44254 -4.43464,6.30651 -1.31858,0.86396 -2.39742,2.0405 -2.39742,2.61451 0,0.57402 -1.06122,2.47615 -2.35826,4.22695 -1.29704,1.7508 -2.98189,4.64578 -3.74411,6.43328 -0.76222,1.7875 -1.73185,3.25 -2.15474,3.25 -0.42289,0 -1.75163,2.0228 -2.95277,4.4951 -1.20114,2.47231 -2.99529,4.75263 -3.98701,5.06739 -0.99171,0.31476 -1.80311,1.07546 -1.80311,1.69045 0,0.61499 -0.85976,2.04716 -1.91057,3.18261 -1.05081,1.13545 -2.06331,3.18945 -2.25,4.56445 -0.31562,2.32462 -0.0281,2.51026 4.09812,2.64625 2.89634,0.0955 4.87028,0.73803 5.68347,1.85014 0.68525,0.93714 1.72003,1.41087 2.2995,1.05273 0.57947,-0.35813 2.07005,0.29583 3.3124,1.45325 1.71918,1.60166 3.21539,2.01216 6.26294,1.71831 2.20228,-0.21235 5.2161,0.21198 6.69739,0.94295 1.51792,0.74905 2.93759,0.93369 3.25314,0.42311 0.92631,-1.4988 9.89109,-0.96855 11.80361,0.69816 0.9625,0.83879 1.75,2.84109 1.75,4.44954 0,2.78652 0.15331,2.88911 3.25,2.17479 1.7875,-0.41233 9.775,-0.62391 17.75,-0.47017 18.45618,0.35578 18.85008,0.35811 29,0.17181 9.1104,-0.16723 10.91954,0.0577 18.27986,2.27284 3.66517,1.10306 5.42747,1.17557 7.70225,0.31694 2.53457,-0.95669 3.2711,-0.81691 5.23378,0.99332 2.28816,2.11044 3.45348,2.345 20.45173,4.11674 4.83795,0.50426 9.26617,1.57111 10.86235,2.61697 2.42878,1.5914 2.6321,2.17556 2.0601,5.91899 -1.0913,7.14196 -6.65645,9.77975 -11.39983,5.40333 l -2.43866,-2.25 0.71669,2.32905 c 0.68941,2.24041 0.53038,2.31916 -4.17877,2.06921 -2.6925,-0.1429 -5.40302,0.0539 -6.02338,0.43727 -0.62036,0.3834 -1.38611,0.27934 -1.70167,-0.23125 -0.31556,-0.51059 -2.03416,-0.7403 -3.8191,-0.51047 -1.78494,0.22983 -4.88682,0.6382 -6.89305,0.90749 -2.00624,0.26929 -5.12501,0.19416 -6.9306,-0.16696 -3.00096,-0.60019 -3.09563,-0.72586 -1.1023,-1.46324 1.19933,-0.44366 2.1806,-1.32926 2.1806,-1.968 0,-1.12304 -4.90279,-0.94831 -21.5,0.76624 -6.00474,0.62031 -5.57275,0.59547 -7.80902,0.44908 -3.38701,-0.22172 -0.75308,-1.85132 3.82664,-2.36752 2.50995,-0.2829 5.33278,-1.20053 6.27296,-2.03917 1.46643,-1.30805 1.89271,-1.32486 2.99885,-0.11826 2.03695,2.22195 9.78557,1.78062 13.2118,-0.7525 1.60613,-1.18746 2.68181,-2.5448 2.3904,-3.01631 -0.2914,-0.47151 -0.9734,-0.58314 -1.51555,-0.24807 -0.54215,0.33506 -8.27355,0.75608 -17.1809,0.93559 -8.90735,0.17951 -18.22018,0.84136 -20.69518,1.47079 -11.25741,2.8629 -15.66694,3.35063 -13.84803,1.53172 0.77924,-0.77923 19.75427,-4.26478 26.80425,-4.92371 3.55092,-0.33188 6.90342,-1.05062 7.45,-1.5972 1.20858,-1.20858 1.81416,-1.20994 -12.40622,0.0279 -18.04485,1.57071 -24.00046,1.7881 -23.42378,0.85502 1.17011,-1.89327 -41.6771,2.33319 -57.24271,5.64644 -5.1704,1.10055 -0.0481,-1.36239 6.23931,-3.00006 6.55384,-1.70706 7.96043,-2.69104 7.08986,-4.9597 -0.54317,-1.41548 -1.02677,-1.40043 -4.88278,0.15193 -4.63554,1.86618 -18.50098,2.24103 -28.7799,0.77805 -3.025,-0.43055 -16.34873,-0.8606 -29.60828,-0.95568 -23.26929,-0.16685 -24.24373,-0.25355 -28,-2.49117 -9.91306,-5.90521 -10.0879,-5.96915 -13.64015,-4.98833 -1.87005,0.51634 -4.49167,2.10315 -5.82583,3.52624 -1.33416,1.42308 -4.67574,3.71662 -7.42574,5.09675 -2.75,1.38013 -6.8,3.57319 -9,4.87346 -6.97072,4.11991 -10.78407,5.51254 -16.46865,6.01434 -9.98233,0.88117 -12.72958,1.393 -15.64904,2.91556 -3.65539,1.90635 -5.32161,1.91072 -5.91369,0.0155 z M 491.5,515 c 0.33992,-0.55 -0.0835,-1 -0.94098,-1 -0.85746,0 -1.55902,0.45 -1.55902,1 0,0.55 0.42344,1 0.94098,1 0.51754,0 1.2191,-0.45 1.55902,-1 z m -250.74238,-5.15762 c 0.79646,-0.79646 1.56082,-0.83991 2.45,-0.13927 0.89438,0.70474 2.32751,0.58444 4.65367,-0.39066 3.22391,-1.35142 3.29093,-1.48677 1.63961,-3.31145 -1.56554,-1.72991 -1.92935,-1.76638 -4.01143,-0.40214 -1.81101,1.18662 -2.3797,1.23045 -2.71997,0.20965 -0.32587,-0.97763 -0.83659,-0.88428 -2.10578,0.38491 -0.92156,0.92156 -2.5729,1.96037 -3.66964,2.30846 -1.09674,0.34809 -1.99408,1.05257 -1.99408,1.56551 0,1.32785 4.37577,1.15684 5.75762,-0.22501 z M 497,509 c 0,-0.55 -0.42344,-1 -0.94098,-1 -0.51754,0 -1.2191,0.45 -1.55902,1 -0.33992,0.55 0.0835,1 0.94098,1 0.85746,0 1.55902,-0.45 1.55902,-1 z m 12.26903,0.34406 c -0.67703,-0.27392 -2.02703,-0.29059 -3,-0.0371 -0.97297,0.25354 -0.41903,0.47766 1.23097,0.49804 1.65,0.0204 2.44606,-0.18706 1.76903,-0.46099 z M 477,506 c 0,-0.55 -1.575,-1 -3.5,-1 -1.925,0 -3.5,0.45 -3.5,1 0,0.55 1.575,1 3.5,1 1.925,0 3.5,-0.45 3.5,-1 z m -217.45081,-1.585 c 2.08638,-0.87175 5.72607,-3.00925 8.08819,-4.75 8.7923,-6.47944 9.90155,-7.165 11.59325,-7.165 0.95185,0 1.71105,-0.45 1.6871,-1 -0.0613,-1.40888 -3.62154,-0.8179 -9.10677,1.5117 -9.00104,3.82277 -10.31658,4.30999 -11.13663,4.12456 -1.56773,-0.35451 -6.17504,4.41249 -6.41254,6.6348 -0.28342,2.65194 0.30892,2.72408 5.2874,0.64394 z m 139.93057,0.61775 c 0.32878,-0.53198 2.01629,-0.68354 3.75001,-0.3368 l 3.15223,0.63045 -2.10387,-2.25824 C 401.91209,500.52851 398,500.96422 398,503.76739 c 0,1.26981 -0.26667,1.36594 -1.2,0.43261 -1.63321,-1.63321 -2.8,-1.50819 -2.8,0.3 0,1.67979 4.50044,2.11733 5.47976,0.53275 z M 439.45,501.87381 c 0.55887,-0.51405 -0.47041,-0.90531 -2.5,-0.95032 -1.8975,-0.0421 -4.35,-0.2949 -5.45,-0.56182 -1.1,-0.26692 -6.03472,-0.4319 -10.96604,-0.36663 -8.43198,0.1116 -12.17761,1.1545 -10.99851,3.06232 0.66436,1.07496 28.66348,-0.0328 29.91455,-1.18355 z M 445.5,502 c 0.33992,-0.55 -0.0835,-1 -0.94098,-1 -0.85746,0 -1.55902,0.45 -1.55902,1 0,0.55 0.42344,1 0.94098,1 0.51754,0 1.2191,-0.45 1.55902,-1 z m -79.90851,-2.37782 c 0.39472,-1.02863 2.35088,-1.31255 7.71861,-1.1203 3.95445,0.14164 7.6399,0.36495 8.1899,0.49624 1.86431,0.44505 3.5,0.006 3.5,-0.93967 0,-1.2476 -11.08041,-9.7029 -13,-9.92012 -0.825,-0.0934 -3.3422,-0.42823 -5.59378,-0.74417 -2.25158,-0.31594 -5.76233,-0.11373 -7.80167,0.44936 -3.39785,0.93819 -3.79641,0.8295 -4.76663,-1.2999 -0.92868,-2.03823 -1.56728,-2.25673 -5.19833,-1.77862 -4.72857,0.62261 -8.63959,2.81815 -8.63959,4.85001 0,1.84488 -0.67936,1.74949 -3.90662,-0.54852 -4.06941,-2.89767 -7.58183,-3.46817 -10.96418,-1.78083 -2.19435,1.09468 -3.25662,1.18692 -4.08854,0.355 -0.83192,-0.83192 -1.34046,-0.7736 -1.9573,0.22446 -0.60546,0.97966 -1.02754,1.03422 -1.54341,0.19951 -0.39053,-0.63189 -2.47178,-1.85379 -4.625,-2.71534 C 310.29371,484.30048 309,483.15781 309,481.89142 309,480.85114 308.69793,480 308.32874,480 307.08713,480 304,483.29741 304,484.6236 c 0,0.7225 -0.62831,1.07253 -1.39625,0.77784 -0.77073,-0.29576 -2.11472,0.48998 -3,1.75389 -2.07265,2.95913 -2.09233,5.24613 -0.0384,4.45795 1.14386,-0.43894 1.42334,-0.13115 1.03788,1.14301 -0.93434,3.08856 12.67728,7.86925 15.63827,5.49249 0.78353,-0.62894 7.48533,-0.84905 17.75846,-0.58326 20.20087,0.52266 25.00533,0.93981 26.35373,2.28821 1.49145,1.49145 4.61405,1.2938 5.23776,-0.33155 z M 396.5,498.30208 c 5.34671,-0.53753 9.53505,-2.12687 6.25,-2.37167 -4.10042,-0.30556 -6.35198,-0.1607 -7.92186,0.50967 -0.91952,0.39266 -2.61632,0.20847 -3.77067,-0.40932 -2.49379,-1.33464 -3.62128,-0.80676 -4.36691,2.04453 -0.48711,1.86272 -0.24072,2.02679 2.1293,1.41796 1.47407,-0.37867 4.93014,-0.9147 7.68014,-1.19117 z m -144.62676,-2.68866 2.37324,-1.3157 -2.21969,-0.58046 C 249.2096,492.98054 247,493.8112 247,495.60699 c 0,1.72652 1.76637,1.72886 4.87324,0.006 z M 190.5,495 c 0.33992,-0.55 -0.0835,-1 -0.94098,-1 -0.85746,0 -1.55902,0.45 -1.55902,1 0,0.55 0.42344,1 0.94098,1 0.51754,0 1.2191,-0.45 1.55902,-1 z m -3.5,-4.87756 c 0,-1.64071 -2.76159,-3.31721 -3.49895,-2.12413 -0.45958,0.74362 -1.77449,0.44789 -4.09425,-0.9208 -3.24651,-1.91548 -8.6691,-2.49753 -12.78893,-1.37273 -3.13734,0.85657 0.0336,2.05724 7.38213,2.79522 3.65982,0.36754 7.29451,1.07351 8.07711,1.56882 1.82934,1.1578 4.92289,1.1915 4.92289,0.0536 z m -23.36306,-4.42605 C 164.72489,484.60844 162.85729,483 160.50608,483 c -1.30673,0 -3.58491,0.45967 -5.06262,1.0215 -1.90863,0.72565 -3.08592,0.69019 -4.0651,-0.12245 C 150.31457,483.01618 150,483.08734 150,484.21089 c 0,0.80068 0.18794,1.64372 0.41765,1.87343 0.61895,0.61894 12.56292,0.26844 13.21929,-0.38793 z M 140.32722,483.5 c -0.095,-0.55 -0.87014,-1.43989 -1.72248,-1.97752 -1.85086,-1.1675 -4.21329,0.68385 -3.12325,2.44757 0.84722,1.37083 5.09264,0.95901 4.84573,-0.47005 z M 146.5,484 c 0.33992,-0.55 -0.11008,-1 -1,-1 -0.88992,0 -1.33992,0.45 -1,1 0.33992,0.55 0.78992,1 1,1 0.21008,0 0.66008,-0.45 1,-1 z m 169.95943,-5.57842 c 1.01952,-1.55599 2.26975,-2.35575 3.15286,-2.01686 0.80488,0.30886 1.71953,-0.10585 2.03255,-0.92158 0.77161,-2.01077 3.34631,-1.87152 4.93401,0.26686 1.09253,1.47146 1.62521,1.55104 3.34668,0.5 2.61771,-1.59824 6.32232,-1.60215 7.91611,-0.008 0.98886,0.98886 1.41131,0.96712 2.075,-0.10676 0.58137,-0.94067 1.04019,-1.01374 1.51738,-0.24164 C 342.28618,477.27207 349,477.3668 349,476 c 0,-0.55 1.73285,-1 3.85078,-1 4.60852,0 10.08123,-1.69481 12.14922,-3.76242 1.33328,-1.33303 1.24992,-1.43998 -0.75,-0.96227 -1.52153,0.36344 -2.25,0.0821 -2.25,-0.86893 0,-0.77351 0.43844,-1.40638 0.97432,-1.40638 0.53588,0 1.63247,-1.27272 2.43688,-2.82828 0.80441,-1.55555 3.51596,-5.00213 6.02568,-7.65907 C 373.9466,454.85571 376,452.07843 376,451.34093 376,450.60342 376.39593,450 376.87985,450 c 1.04693,0 8.91314,-10.23416 9.79786,-12.74728 1.81872,-5.16624 4.49737,-10.25272 5.3993,-10.25272 0.56487,0 1.49764,-1.35 2.07283,-3 0.5752,-1.65 1.45179,-3 1.94799,-3 0.49619,0 0.90217,-1.125 0.90217,-2.5 0,-1.375 0.46412,-2.5 1.03138,-2.5 0.56727,0 1.32438,-0.7875 1.68247,-1.75 0.87218,-2.34427 4.42642,-7.42522 6.28615,-8.98634 C 408.3171,403.3186 403.02914,399 398.33039,399 395.0087,399 387.76788,402.14341 385.5,404.56997 383.60526,406.59729 379.06598,409 377.13064,409 c -1.29877,0 -2.92556,1.74681 -4.92317,5.28637 -1.64089,2.90751 -4.72135,6.49233 -6.84546,7.96628 C 360.21692,425.8229 346,440.67216 346,442.47585 c 0,1.87591 -8.06956,7.38806 -11.95279,8.16471 C 332.37125,450.97575 331,451.78595 331,452.441 c 0,0.65505 -1.57546,2.58581 -3.50102,4.29057 -2.49307,2.2072 -3.30679,3.6057 -2.82639,4.8576 0.49998,1.30294 0.28262,1.60762 -0.83967,1.17696 -2.1146,-0.81145 -2.73524,-0.20889 -8.21116,7.97197 -4.67507,6.98441 -5.39948,10.2619 -2.26815,10.2619 0.779,0 2.17662,-1.16029 3.10582,-2.57842 z M 336,447.44098 c 0,-0.85746 -0.45734,-1.27636 -1.01631,-0.9309 -0.55897,0.34546 -0.75742,1.04702 -0.44098,1.55902 0.85723,1.38704 1.45729,1.12841 1.45729,-0.62812 z m 188.5,-2.97672 c -5.91899,-4.86108 -36.12255,-21.17479 -33.6687,-18.18531 1.21711,1.48279 4.25958,3.34965 17.1687,10.53476 2.475,1.37757 7.2,4.19006 10.5,6.24999 6.85979,4.28203 10.56034,5.14583 6,1.40056 z m -6.66571,-12.34069 c 1.02569,-0.65017 0.71126,-1.33588 -1.3594,-2.96466 -2.61785,-2.0592 -4.74022,-3.14963 -20.47489,-10.5196 -4.125,-1.9321 -14.87086,-7.36636 -23.87968,-12.07612 C 463.11149,401.85344 455.48534,398 455.17331,398 c -1.03176,0 7.23173,5.73722 12.82669,8.90538 3.025,1.71292 10,5.41048 15.5,8.21681 5.5,2.80632 11.125,5.87615 12.5,6.82184 1.375,0.94569 5.97416,3.39154 10.22035,5.43522 4.24619,2.04368 7.98525,4.1444 8.30901,4.66826 0.71916,1.16362 1.55877,1.18294 3.30493,0.0761 z M 516,419.97525 c 0,-0.56361 -1.0125,-1.42385 -2.25,-1.91163 -1.2375,-0.48779 -4.95,-2.12853 -8.25,-3.64609 -6.59335,-3.03207 -10.5,-3.98643 -10.5,-2.56505 0,0.96575 17.58635,9.09354 19.75,9.12775 0.6875,0.0109 1.25,-0.44137 1.25,-1.00498 z m -148.0078,-8.69007 c 0.009,-2.45961 -3.44911,-4.97293 -4.50072,-3.27139 -0.96445,1.56051 -1.61344,5.97986 -1.01932,6.94117 1.00302,1.62292 5.51195,-1.37466 5.52004,-3.66978 z M 476,403.52032 c 0,-0.85962 -8.17748,-4.67617 -8.76357,-4.09008 -0.31337,0.31337 -0.38226,0.68226 -0.1531,0.81976 5.77337,3.46402 8.91667,4.61687 8.91667,3.27032 z M 496.47457,400.5 c -0.0592,-2.32866 -22.04142,-12.76732 -31.97457,-15.18374 -1.71997,-0.41841 -1.64997,-0.19417 0.5,1.60158 1.375,1.14846 3.625,2.3523 5,2.6752 4.56412,1.07181 11.5016,5.06034 11.39349,6.5504 -0.077,1.06128 0.68498,1.35189 2.75,1.04881 2.13498,-0.31335 2.85651,-0.0117 2.85651,1.19425 0,0.93048 0.82165,1.6135 1.94098,1.6135 1.06754,0 2.23501,0.47573 2.59436,1.05719 0.80247,1.29841 4.97445,0.82777 4.93923,-0.55719 z m 93.65557,-2.84319 c -0.6131,-0.73875 -3.9307,-2.80391 -7.37244,-4.58925 -7.03314,-3.64832 -5.63742,-1.42873 1.87036,2.9744 5.34564,3.13509 7.22043,3.68534 5.50208,1.61485 z M 479,397.12244 c 0,-0.48265 -0.675,-1.43775 -1.5,-2.12244 -0.825,-0.68469 -1.5,-0.95721 -1.5,-0.6056 0,0.35161 -2.28562,-0.51892 -5.07914,-1.93451 -2.79353,-1.41558 -5.57188,-2.40955 -6.17411,-2.20881 -0.60223,0.20075 1.07339,1.38423 3.7236,2.62998 2.6502,1.24574 5.46069,2.90713 6.24553,3.69196 1.57738,1.57738 4.28412,1.92451 4.28412,0.54942 z M 379.36163,393.5 c 0.31658,-0.825 1.60222,-1.51431 2.85699,-1.5318 1.25476,-0.0175 3.15489,-0.6925 4.22251,-1.5 2.22213,-1.68074 3.97398,-1.94888 3.05887,-0.4682 -0.33992,0.55 0.1462,1 1.08027,1 1.4478,0 1.6119,-0.7296 1.1125,-4.94624 -0.59921,-5.0594 -1.88791,-7.93843 -6.26407,-13.99436 -2.73088,-3.77909 -4.06278,-7.76008 -2.96291,-8.85597 1.06377,-1.05993 10.05047,9.47014 13.99107,16.39387 4.05973,7.13306 5.56713,8.62394 7.50718,7.42492 0.96376,-0.59563 1.46571,-3.2377 1.61865,-8.5198 l 0.22167,-7.65643 -5.98078,-4.673 c -3.28944,-2.57014 -7.77028,-5.69267 -9.95742,-6.93894 -2.18715,-1.24627 -5.84001,-4.05645 -8.11748,-6.24484 -2.27746,-2.1884 -4.92969,-4.22927 -5.89385,-4.53528 -0.96415,-0.30601 -3.17166,-1.88161 -4.90558,-3.50134 -1.73392,-1.61973 -3.56605,-2.68942 -4.07139,-2.3771 -0.50534,0.31231 -2.27624,-0.57436 -3.93534,-1.9704 -1.6591,-1.39604 -5.81238,-3.89931 -9.22953,-5.56282 -3.41714,-1.66351 -9.55258,-5.72855 -13.6343,-9.03342 C 335.99697,322.70398 332.32488,320 331.91849,320 c -0.40639,0 -2.94874,-1.74678 -5.64967,-3.88174 -2.70092,-2.13496 -6.29358,-4.59682 -7.98368,-5.47081 -1.69009,-0.87398 -4.43604,-2.9522 -6.1021,-4.61825 C 310.51698,304.36314 308.8965,303 308.58196,303 c -0.31454,0 -3.38665,-2.28286 -6.82692,-5.07303 -3.44027,-2.79016 -7.84299,-5.85123 -9.78383,-6.80237 C 285.15658,287.78497 264.36888,270.36598 251.5,257.21187 233.34862,238.65819 226.66058,231.31475 225.80313,228.99685 225.39686,227.89858 224.48451,227 223.7757,227 222.43991,227 220,220.54805 220,217.01575 220,215.90709 219.3801,215 218.62244,215 c -0.75765,0 -1.86406,-0.58621 -2.45868,-1.30268 -1.34072,-1.61547 0.80059,-6.26393 4.23674,-9.19732 1.28853,-1.1 2.86638,-3.0125 3.50633,-4.25 0.63994,-1.2375 1.77456,-2.25 2.52136,-2.25 0.74681,0 1.62371,-0.69287 1.94867,-1.53971 0.44303,-1.15452 1.59555,-1.4186 4.60699,-1.05561 2.20888,0.26624 4.01615,0.0874 4.01615,-0.39743 0,-1.10514 7.05427,-0.0809 8.77417,1.27401 1.94051,1.52867 0.95922,1.86469 -5.98426,2.04917 -6.6679,0.17715 -11.33397,2.22091 -12.50638,5.47784 -0.33494,0.93045 -1.36896,2.81673 -2.29783,4.19173 -2.46874,3.65448 -3.33632,9 -1.4607,9 1.39787,0 1.90963,1.64896 1.55178,5 -0.1132,1.06014 0.0777,1.15223 0.65096,0.31403 0.5481,-0.80137 2.54678,0.89743 6.1633,5.23854 4.72978,5.67743 5.65779,6.3484 7.98055,5.77009 2.27408,-0.56619 2.45866,-0.44823 1.36921,0.87502 -1.05414,1.28035 -0.62702,2.22102 2.62277,5.77624 2.41608,2.64316 4.14111,3.82753 4.56822,3.13645 0.37743,-0.6107 1.3385,-1.11037 2.1357,-1.11037 1.17868,0 1.2256,0.35845 0.25115,1.9188 -1.35986,2.17748 0.27614,5.0812 2.86282,5.0812 0.79012,0 1.20628,0.37263 0.92481,0.82806 -0.58539,0.94718 8.94601,10.3782 14.85822,14.70173 2.18047,1.59456 5.66797,4.60267 7.75,6.6847 2.08203,2.08203 4.08526,3.78551 4.45162,3.78551 0.83635,0 2.41972,1.40797 9.45489,8.40748 3.09154,3.07589 6.37792,5.59252 7.30305,5.59252 0.92513,0 3.3201,1.11308 5.32216,2.47351 3.60545,2.44997 5.08016,2.6726 3.7812,0.57084 -0.37007,-0.59879 -3.20683,-2.96067 -6.30391,-5.24861 -3.18125,-2.35013 -5.07238,-4.34611 -4.34692,-4.58793 0.70626,-0.23542 2.48546,0.69153 3.95377,2.05989 3.40868,3.17665 6.93676,4.99427 8.19032,4.21953 0.53863,-0.3329 0.97933,-0.11757 0.97933,0.4785 0,0.59608 1.125,1.5115 2.5,2.03427 1.375,0.52277 2.5,1.36056 2.5,1.86175 0,1.89135 5.82792,1.8201 7.46448,-0.0913 1.98784,-2.32162 1.41031,-3.28356 -3.46448,-5.77049 -2.12537,-1.08428 -4.19198,-2.54035 -4.59248,-3.23571 -0.40049,-0.69536 -0.35993,-0.93069 0.0902,-0.52297 0.45007,0.40773 1.47091,0.19972 2.26853,-0.46225 1.16121,-0.96371 1.72554,-0.82706 2.83168,0.68568 0.7598,1.03908 1.7229,1.54781 2.14022,1.13049 0.41731,-0.41732 0.0331,-1.28938 -0.85383,-1.93791 -3.84955,-2.81486 -9.60695,-8.49227 -10.21269,-10.07079 -0.54022,-1.40779 -0.25459,-1.59516 1.58471,-1.03954 1.23404,0.37279 2.67121,1.07721 3.19371,1.56539 0.5225,0.48819 1.71742,0.88761 2.65539,0.88761 0.93796,0 3.63899,1.61549 6.0023,3.58997 5.43305,4.53919 12.02764,7.47624 25.84923,11.51254 3.55131,1.03708 6.79873,2.49638 7.2165,3.24289 1.06542,1.9038 10.12498,5.25939 10.57276,3.91607 0.24134,-0.72402 1.82539,-0.66802 5.05269,0.17862 2.74844,0.72103 6.98564,0.98084 10.20113,0.6255 3.025,-0.33428 7.3,-0.30315 9.5,0.0692 2.2,0.37233 4.4275,0.26932 4.95,-0.2289 0.5225,-0.49823 1.73344,-0.90587 2.69098,-0.90587 1.62475,0 3.49239,-1.70761 2.70916,-2.47701 -0.19258,-0.18918 -2.06003,0.24543 -4.1499,0.96579 -4.54655,1.56717 -4.4636,0.4882 0.20593,-2.6787 1.8734,-1.27054 3.8984,-3.21008 4.5,-4.31008 1.62268,-2.96697 2.87109,-3.54705 4.57099,-2.12395 2.1264,1.78016 6.02284,1.82749 6.02284,0.0732 C 414,281.42691 393.46086,267 387.73442,267 c -2.25676,0 -3.19077,-1.88765 -1.29413,-2.61546 0.86188,-0.33074 3.5855,0.34744 6.05249,1.50706 2.46698,1.15962 5.27783,2.09343 6.24632,2.07513 1.53991,-0.0291 1.49227,-0.24872 -0.37959,-1.75 -1.17726,-0.9442 -3.63648,-2.61673 -5.46492,-3.71673 -1.82844,-1.1 -4.46523,-2.776 -5.85952,-3.72445 -4.04227,-2.74971 -13.85811,-7.7726 -15.25655,-7.80697 -0.70319,-0.0173 -2.12371,-1.19092 -3.15673,-2.60808 -1.86571,-2.55951 -1.86401,-2.57215 0.25493,-1.89963 1.50252,0.47688 2.32216,0.18443 2.77255,-0.98926 0.71568,-1.86505 -4.02083,-6.37449 -6.75972,-6.43565 -0.88575,-0.0198 -3.23637,-1.13934 -5.22361,-2.48791 -1.98723,-1.34857 -5.42502,-2.9948 -7.63954,-3.65829 -2.21452,-0.66348 -4.0264,-1.78355 -4.0264,-2.48903 0,-1.77005 -1.69774,-2.65531 -5.70154,-2.973 C 338.83925,227.15326 336,225.52252 336,223.81017 c 0,-0.51972 1.0125,-0.66355 2.25,-0.31962 4.10297,1.1403 9.75,3.80132 9.75,4.59444 0,0.42968 1.27708,0.74493 2.83795,0.70055 l 2.83795,-0.0807 -1.84822,-3.82537 c -1.67193,-3.46051 -2.13338,-3.76834 -4.83795,-3.22743 -3.15326,0.63066 -3.35292,0.45798 -2.38547,-2.06315 0.41866,-1.09102 1.3401,-1.38999 3,-0.97338 3.86192,0.96928 2.79309,-0.23908 -3.35426,-3.79213 -3.1625,-1.82786 -6.65,-3.86393 -7.75,-4.52459 -5.44095,-3.26783 -25.43206,-12.53539 -35.25,-16.34135 -7.19771,-2.79022 -8.46808,-4.41351 -1.71379,-2.18991 2.49491,0.82136 4.78914,1.24045 5.09827,0.93131 0.75308,-0.75307 -2.85229,-5.62761 -4.19181,-5.66743 -0.58154,-0.0173 -4.14676,-1.5858 -7.92273,-3.4856 -3.77597,-1.8998 -8.92517,-3.89747 -11.44267,-4.43928 -2.5175,-0.5418 -6.15227,-1.66981 -8.07727,-2.50668 -3.29987,-1.43457 -3.34943,-1.52381 -0.86663,-1.56072 1.73319,-0.0258 2.80461,-0.69398 3.13433,-1.95481 C 275.89474,170.68651 274.28076,169 271.35902,169 c -1.23254,0 -2.51154,-0.43777 -2.84223,-0.97283 -0.33068,-0.53505 -2.49473,-1.44211 -4.80901,-2.01568 C 261.3935,165.43792 257.925,164.5541 256,164.04745 244.6876,161.07011 243.41446,160.89192 240.73435,161.9109 239.23046,162.48268 238,162.54739 238,162.0547 c 0,-1.51988 5.82021,-2.27194 12.01675,-1.55276 5.56696,0.64612 6.05057,0.52846 8.4442,-2.05431 3.24065,-3.49672 3.19098,-4.14553 -0.37741,-4.92928 -1.60405,-0.35231 -3.18935,-1.35172 -3.52289,-2.2209 -0.46491,-1.21154 -0.30155,-1.32731 0.7,-0.4961 0.71853,0.59634 1.87514,0.73276 2.57022,0.30318 1.43957,-0.88971 0.61684,-1.7124 -4.04678,-4.04664 -2.16574,-1.08399 -3.0178,-1.10882 -4.2062,-0.12254 -0.81965,0.68026 -1.94358,0.95668 -2.49761,0.61427 -0.55403,-0.34242 -1.88968,0.25978 -2.96811,1.33821 -2.71305,2.71305 -5.95556,4.32699 -7.17681,3.57222 -0.56282,-0.34784 -2.0869,0.0644 -3.38684,0.9162 -2.62876,1.72243 -8.4524,2.41922 -10.36094,1.23968 -0.71603,-0.44253 -4.82914,0.95088 -9.77026,3.3099 -7.8018,3.72478 -9.2262,4.07417 -16.60946,4.07417 -4.4417,0 -9.70303,-0.44339 -11.69184,-0.98532 -1.98881,-0.54192 -8.54208,-2.12958 -14.56283,-3.52813 -6.02074,-1.39856 -12.77074,-3.40318 -15,-4.45472 -2.22925,-1.05154 -7.20319,-3.33176 -11.05319,-5.06717 -10.49591,-4.73108 -13.72816,-6.34289 -16.70602,-8.3307 -1.48832,-0.99349 -3.17582,-1.51601 -3.75,-1.16114 -0.57419,0.35487 -1.05558,0.0562 -1.06977,-0.6638 -0.0142,-0.71996 -2.37668,-2.84925 -5.25,-4.73176 -2.87331,-1.88251 -7.08792,-5.37001 -9.36578,-7.75 C 106.01333,122.87702 103.29367,121 102.08856,121 c -1.17057,0 -3.897748,-1.117 -6.060401,-2.48222 -2.244325,-1.41678 -4.188574,-2.06724 -4.529626,-1.51541 -0.612512,0.99107 5.096772,4.98717 7.134836,4.99389 1.014255,0.003 2.711111,3.99259 2.000531,4.70318 -0.15773,0.15772 -2.143143,-0.61013 -4.412033,-1.70633 -6.401706,-3.09297 -8.094763,-2.38055 -4.221867,1.77652 1.1,1.18071 2,2.38774 2,2.68228 0,1.07397 -3.959466,-0.10525 -5.728292,-1.70602 -1.173031,-1.06158 -2.313534,-1.33807 -3.216754,-0.77985 -1.087177,0.67191 -0.301254,1.97339 3.522839,5.83379 2.707214,2.73291 5.979131,5.29039 7.270927,5.68327 2.232509,0.679 6.15128,3.90173 6.15128,5.05871 0,1.30269 3.93735,4.45683 9.33682,7.47954 3.21025,1.79716 6.10736,3.99006 6.43803,4.87311 0.8885,2.37275 3.49716,4.09264 5.36024,3.53399 2.55474,-0.76604 6.97561,1.64607 6.39384,3.48861 -0.35491,1.12405 1.68363,2.95996 7.03189,6.33294 4.14243,2.6125 7.88857,4.75 8.32476,4.75 1.74431,0 16.11442,18.29049 16.11442,20.51067 0,0.32949 1.7377,3.16188 3.86157,6.2942 2.12386,3.13232 5.10787,8.17013 6.63114,11.19513 1.52327,3.025 3.08089,5.725 3.46138,6 0.38048,0.275 1.00706,1.35191 1.39239,2.39313 0.38533,1.04122 0.99099,1.60274 1.34591,1.24782 0.87782,-0.87783 4.30761,2.33528 4.30761,4.03548 0,0.75155 1.11455,3.05065 2.47678,5.10911 1.36222,2.05847 3.37779,6.4873 4.47903,9.84185 2.52281,7.68484 9.14385,18.81628 18.56627,31.214 4.66583,6.13916 15.38296,17.44646 17.83812,18.82043 0.93993,0.52602 3.8309,2.97696 6.42438,5.44654 2.59348,2.46959 7.86542,6.67244 11.71542,9.33967 3.85,2.66723 8.35,6.26706 10,7.99964 3.68181,3.86606 11.46824,9.55233 13.08037,9.55233 0.6525,0 1.42113,0.89773 1.70806,1.99495 0.28693,1.09723 1.35191,2.30418 2.36663,2.68211 1.01472,0.37794 4.03294,2.18021 6.70715,4.00505 4.98563,3.40211 6.63779,4.00234 6.63779,2.41151 0,-1.38134 3.77182,-0.0938 5.16901,1.76444 1.03927,1.38223 1.01281,1.44423 -0.16724,0.39194 C 287.35357,334.78025 284,334.58036 284,335.95186 c 0,1.87739 7.15933,7.92423 8.68772,7.33773 0.83277,-0.31956 1.80621,-0.16879 2.1632,0.33505 1.01672,1.43494 6.19715,3.46369 7.22402,2.82905 0.50878,-0.31445 0.92506,-0.13962 0.92506,0.38852 0,0.52813 1.4625,1.89432 3.25,3.03599 6.32171,4.03762 7.14318,4.64459 9.30022,6.8718 1.19852,1.2375 2.57752,2.26497 3.06445,2.28327 1.32308,0.0497 5.38533,3.64179 5.38533,4.76201 0,0.53609 1.2375,1.75264 2.75,2.70346 1.5125,0.95082 4.1,3.06413 5.75,4.69625 3.27124,3.23579 17.81028,14.06956 23.65407,17.62584 2.96731,1.80578 4.09662,2.02207 6.00876,1.15084 1.94779,-0.88747 3.39002,-0.5479 8.34593,1.96506 6.81133,3.45377 8.04389,3.67142 8.85287,1.56327 z m -22.9205,-6.9682 c -1.90167,-1.43834 -1.89756,-1.46884 0.20188,-1.5 1.17866,-0.0175 2.40203,0.6432 2.71862,1.4682 0.73026,1.90304 -0.4298,1.91567 -2.9205,0.0318 z M 351.5,383 c -1.00159,-1.10674 -1.59607,-2.23726 -1.32107,-2.51226 0.275,-0.275 1.31948,0.40552 2.32107,1.51226 1.00159,1.10674 1.59607,2.23726 1.32107,2.51226 -0.275,0.275 -1.31948,-0.40552 -2.32107,-1.51226 z m -6,-5 c -0.33992,-0.55 -0.14148,-1 0.44098,-1 0.58246,0 1.05902,0.45 1.05902,1 0,0.55 -0.19844,1 -0.44098,1 -0.24254,0 -0.7191,-0.45 -1.05902,-1 z m -51.25,-35.66228 c -0.6875,-0.27741 -1.25,-0.87476 -1.25,-1.32743 0,-1.02195 3.83152,-0.0919 4.5746,1.11042 0.57812,0.93542 -1.24868,1.05466 -3.3246,0.21701 z M 281.66667,331.33333 C 281.3,330.96667 281,330.20167 281,329.63333 c 0,-0.6266 0.46577,-0.56756 1.18333,0.15 0.65084,0.65084 0.95084,1.41584 0.66667,1.7 -0.28417,0.28417 -0.81667,0.21667 -1.18333,-0.15 z M 244,234.94098 c 0,-0.58246 0.45,-0.7809 1,-0.44098 0.55,0.33992 1,0.81648 1,1.05902 0,0.24254 -0.45,0.44098 -1,0.44098 -0.55,0 -1,-0.47656 -1,-1.05902 z M 238,227.5 c 0,-0.825 0.45,-1.5 1,-1.5 0.55,0 1,0.675 1,1.5 0,0.825 -0.45,1.5 -1,1.5 -0.55,0 -1,-0.675 -1,-1.5 z m 89.75,-7.16228 c 0.6875,-0.27741 1.8125,-0.27741 2.5,0 0.6875,0.27741 0.125,0.50439 -1.25,0.50439 -1.375,0 -1.9375,-0.22698 -1.25,-0.50439 z m -95.46811,-8.73882 c 0.25693,-3.41739 4.44833,-7.02339 7.01761,-6.03747 2.47463,0.94961 2.0811,2.43857 -0.64451,2.43857 -2.32041,0 -4.83433,2.09751 -5.99262,5 -0.32923,0.825 -0.50045,0.1945 -0.38048,-1.4011 z M 132.55887,163.4682 C 131.49125,162.66069 131.06774,162 131.61774,162 c 0.55,0 1.87351,0.66069 2.94113,1.4682 1.06762,0.8075 1.49113,1.46819 0.94113,1.46819 -0.55,0 -1.87351,-0.66069 -2.94113,-1.46819 z M 390,393.44098 c 0,-0.85746 -0.45,-1.2809 -1,-0.94098 -0.55,0.33992 -1,1.04148 -1,1.55902 0,0.51754 0.45,0.94098 1,0.94098 0.55,0 1,-0.70156 1,-1.55902 z m 33,-3.30809 C 423,388.92922 415.38174,384 413.52144,384 412.68465,384 412,384.60526 412,385.34501 c 0,2.18766 3.24711,4.46842 7,4.91677 1.925,0.22998 3.6125,0.49016 3.75,0.57818 0.1375,0.088 0.25,-0.23016 0.25,-0.70707 z m 15,0.31088 c 0,-0.83841 -9.08855,-4.68855 -9.67747,-4.09963 -0.28119,0.28119 1.2187,1.4239 3.33311,2.53936 3.80906,2.00949 6.34436,2.63299 6.34436,1.56027 z m 19.01494,-4.39761 c -1.36678,-1.05016 -2.66841,-1.72603 -2.8925,-1.50193 -0.78282,0.78281 2.1363,3.45558 3.75,3.43353 1.21326,-0.0166 0.99498,-0.50827 -0.8575,-1.9316 z m 30.41195,-3.0955 c -2.23576,-0.81175 -2.8875,-0.50495 -1.995,0.93913 0.34769,0.56258 1.37235,0.73883 2.27702,0.39167 1.44596,-0.55487 1.41186,-0.71579 -0.28202,-1.3308 z M 481,382.08037 c 0,-1.20453 -9.46124,-4.33387 -11.73658,-3.88192 -1.00309,0.19924 0.8236,1.26845 4.23658,2.47979 7.11055,2.52367 7.5,2.59648 7.5,1.40213 z m 245.43333,-0.99168 c -0.51333,-0.48289 -2.44915,-1.19786 -4.30182,-1.58882 -2.60829,-0.55041 -3.26542,-0.40492 -2.91175,0.64465 0.25121,0.74551 1.63761,1.37606 3.0809,1.40122 1.44328,0.0252 2.94107,0.36266 3.32841,0.75 0.38735,0.38734 0.93676,0.47176 1.22093,0.18759 0.28417,-0.28416 0.0967,-0.91175 -0.41667,-1.39464 z m -243.4711,-4.04805 c -1.90423,-1.62765 -3.79973,-2.97765 -4.21223,-3 -1.55357,-0.0842 -0.67523,3.04523 1,3.5629 0.9625,0.29742 2.425,0.93183 3.25,1.4098 3.26234,1.89008 3.24206,0.83076 -0.0378,-1.9727 z m 203.6092,0.38793 c -1.05899,-0.77435 -2.18257,-1.15076 -2.49686,-0.83648 -0.31428,0.31429 0.29502,1.20499 1.354,1.97934 1.05899,0.77435 2.18257,1.15076 2.49686,0.83648 0.31428,-0.31429 -0.29502,-1.20499 -1.354,-1.97934 z M 749.2,378.8 c -0.93333,-0.93333 -1.46667,-0.93333 -2.4,0 -0.93333,0.93333 -0.66667,1.2 1.2,1.2 1.86667,0 2.13333,-0.26667 1.2,-1.2 z M 715,378.06739 c 0,-1.22304 -3.69247,-2.37549 -5.00736,-1.56284 -0.5639,0.34851 -0.76637,1.05255 -0.44993,1.56455 0.74992,1.2134 5.45729,1.21193 5.45729,-0.002 z M 733.5,378 c -0.55063,-0.89094 1.56949,-1.4906 3.84375,-1.08717 0.46406,0.0823 0.67781,-0.34814 0.475,-0.95658 -0.20281,-0.60844 -0.5825,-1.03456 -0.84375,-0.94695 -0.26125,0.0876 -2.725,-0.96606 -5.475,-2.34151 -2.75,-1.37544 -6.8,-2.79576 -9,-3.15626 -2.2,-0.36051 -4.9,-1.06078 -6,-1.55617 -1.1,-0.49539 -5.49974,-1.79402 -9.7772,-2.88583 -4.27746,-1.09182 -8.21814,-2.25763 -8.75706,-2.59071 -0.53893,-0.33307 -1.2592,0.12235 -1.60061,1.01205 -0.55492,1.44611 -0.84575,1.41358 -2.74294,-0.30677 -1.1672,-1.05842 -2.79719,-1.94811 -3.62219,-1.97709 -0.825,-0.029 -6.9,-1.25808 -13.5,-2.73133 -6.6,-1.47324 -13.8,-3.05878 -16,-3.52341 -2.2,-0.46464 -5.2375,-1.14643 -6.75,-1.51511 -4.16951,-1.01632 -3.36253,0.94518 2,4.86135 3.39881,2.48209 6.31454,3.67745 10.25,4.20216 3.025,0.40332 6.4,0.95984 7.5,1.2367 1.1,0.27686 3.125,0.48894 4.5,0.47129 1.375,-0.0176 2.97765,0.36286 3.56143,0.84558 0.58379,0.48271 3.73379,1.16012 7,1.50535 3.26622,0.34523 6.46101,1.05741 7.09954,1.58261 0.74596,0.61356 1.39263,0.58009 1.80902,-0.0936 0.9039,-1.46255 2.58314,-1.31419 2.28001,0.20144 -0.14554,0.7277 0.84586,1.29143 2.37269,1.34916 1.44247,0.0545 4.71635,1.11269 7.27528,2.35145 2.55893,1.23875 6.43335,2.31913 8.60982,2.40084 2.29847,0.0863 4.1791,0.71972 4.48655,1.51117 0.40229,1.03559 0.85846,1.08947 1.90071,0.22448 1.0477,-0.86952 1.50302,-0.79511 1.92911,0.31526 0.30674,0.79937 1.8218,1.64343 3.36678,1.87569 1.54498,0.23226 3.17312,0.48971 3.61808,0.57212 0.44496,0.0824 0.5309,-0.30017 0.19098,-0.85017 z m -25.5078,-1.75 c -0.0128,-1.23166 -5.17604,-3.25 -8.31401,-3.25 -2.43075,0 -2.7218,0.24253 -1.72801,1.43997 1.63855,1.97434 10.05952,3.49218 10.04202,1.81003 z m -230.65863,-1.67689 c 0.30115,-0.78478 0.0118,-1.85052 -0.64301,-2.3683 -2.40741,-1.90362 -8.26074,-4.09882 -10.69056,-4.00933 -2.9037,0.10695 -8.82991,-0.7598 -11,-1.60882 -0.825,-0.32277 -2.85,-0.77226 -4.5,-0.99886 -10.70833,-1.47063 -13.16174,-1.98413 -14.5,-3.03485 -0.825,-0.64773 -3.525,-1.97858 -6,-2.95744 -2.475,-0.97886 -6.87247,-2.86329 -9.77215,-4.18763 -11.51869,-5.26078 -10.31591,-1.77882 1.64084,4.75011 4.19722,2.29187 8.82578,4.99391 10.28568,6.00453 C 435.3737,368.39109 436,368.44606 436,366.5 c 0,-2.17108 1.22571,-1.89553 8.32771,1.87216 3.49604,1.85468 7.89,3.61281 9.76436,3.90695 1.87436,0.29414 5.15066,0.99174 7.28067,1.55022 2.13001,0.55848 4.80289,0.67133 5.93974,0.25078 1.23803,-0.45798 3.09378,-0.22879 4.62726,0.57147 3.2904,1.71713 4.71274,1.69644 5.39383,-0.0785 z M 675.5,374 c -0.33992,-0.55 -1.06803,-1 -1.61803,-1 -0.55,0 -0.72189,0.45 -0.38197,1 0.33992,0.55 1.06803,1 1.61803,1 0.55,0 0.72189,-0.45 0.38197,-1 z M 420.60699,372.41821 C 420.27314,371.54823 420,370.64823 420,370.41821 420,370.1882 419.32119,370 418.49153,370 c -1.25815,0 -1.30121,0.33189 -0.25946,2 1.48222,2.37341 3.24427,2.6837 2.37492,0.41821 z m 265.89528,0.57812 c 0.34116,-0.55202 1.71772,-0.72824 3.05902,-0.39159 3.49353,0.87682 3.00841,-0.26558 -0.81129,-1.91046 -3.24061,-1.39552 -17.90245,-5.76538 -20.75,-6.1844 -3.17249,-0.46684 -7.54886,-1.82394 -8.64063,-2.67944 -0.62735,-0.49159 -2.42735,-0.85336 -4,-0.80393 -1.57265,0.0494 -5.22187,0.0676 -8.10937,0.0403 -3.53256,-0.0333 -5.25501,0.35657 -5.26531,1.19182 -0.0118,0.95342 -0.20451,0.94316 -0.83101,-0.0442 -0.87459,-1.37841 -1.13307,-1.43646 -14.40896,-3.23583 -4.81541,-0.65267 -9.00446,-1.58985 -9.30902,-2.08263 -0.30455,-0.49278 -1.53968,-0.90106 -2.74472,-0.9073 -2.0114,-0.0104 -28.22838,-7.18414 -31.69098,-8.67157 -2.07144,-0.88983 -2.01827,-0.8753 -6.5,-1.7763 -2.2,-0.44229 -5.125,-1.39537 -6.5,-2.11797 -2.22075,-1.16705 -1.4584,-1.3072 6.82498,-1.25472 6.98514,0.0443 9.45846,0.40697 9.85698,1.4455 0.29261,0.76252 1.41346,1.3864 2.49077,1.3864 1.07731,0 2.80186,0.45122 3.83232,1.0027 1.14125,0.61078 2.0984,0.63892 2.44878,0.072 0.31637,-0.51189 -0.33132,-1.21843 -1.43931,-1.57009 C 592.90653,344.15295 592,343.44555 592,342.93261 592,342.41968 590.90156,342 589.55902,342 c -1.34254,0 -2.7489,-0.49821 -3.12523,-1.10713 -0.44321,-0.71713 -0.0237,-0.91333 1.19098,-0.55696 1.03138,0.30259 4.00814,0.85121 6.61502,1.21914 2.60688,0.36794 4.55929,0.96103 4.33867,1.31799 -0.22061,0.35696 0.13525,1.38254 0.79081,2.27906 0.82263,1.12502 2.73154,1.6334 6.16132,1.64087 6.02671,0.0131 11.46941,1.11432 11.46941,2.32053 0,1.42374 2.735,1.01946 3.31419,-0.48989 0.34391,-0.89621 1.4734,-1.19571 3.2375,-0.85848 2.00928,0.3841 2.59614,0.15837 2.27128,-0.8736 -0.57271,-1.81931 -20.15034,-7.79563 -30.52602,-9.31845 -0.68148,-0.10002 -1.55209,-0.49488 -1.93467,-0.87747 -0.38259,-0.38259 -3.65811,-0.69901 -7.27895,-0.70316 -6.10838,-0.007 -17.25784,-1.36467 -21.33333,-2.59775 -0.9625,-0.29121 -1.75,-0.0491 -1.75,0.53791 0,0.58707 0.765,1.06739 1.7,1.06739 1.02824,0 1.32461,0.34556 0.75,0.8745 -2.32725,2.14228 -22.49117,-2.22563 -27.50854,-5.95891 -0.30719,-0.22857 -1.99953,0.79693 -3.76074,2.27889 -3.01809,2.53955 -3.3925,2.61498 -6.51152,1.31177 -1.82012,-0.76049 -4.62778,-1.35839 -6.23925,-1.32867 -1.61147,0.0297 -3.37995,-0.0751 -3.92995,-0.23301 -0.55,-0.15788 -3.05815,0.0542 -5.57366,0.47129 -3.26632,0.54158 -5.60119,0.32901 -8.16844,-0.74365 -1.97713,-0.8261 -3.79407,-1.30271 -4.03765,-1.05913 -0.24358,0.24358 -1.68502,-0.0294 -3.2032,-0.6066 -1.87833,-0.71414 -3.15287,-0.72368 -3.98886,-0.0299 -0.85265,0.70764 -2.18876,0.54058 -4.36691,-0.54603 -1.7261,-0.86109 -4.38103,-1.42274 -5.89983,-1.2481 -2.66078,0.30595 -2.5749,0.43902 2.35565,3.64983 3.89112,2.53393 5.43189,4.28611 6.43098,7.31339 1.50851,4.57082 6.80333,9.71277 8.00289,7.77184 0.46938,-0.75947 1.43536,-0.90986 2.59811,-0.40449 1.018,0.44246 2.24474,0.71426 2.72608,0.604 0.48134,-0.11026 1.74631,0.5879 2.81105,1.55148 1.5817,1.43141 2.08922,1.50387 2.77391,0.396 0.54878,-0.88793 1.4769,-1.07828 2.68896,-0.55148 1.018,0.44246 2.18842,0.73304 2.60092,0.64572 0.4125,-0.0873 0.75,0.34002 0.75,0.94965 0,0.68296 0.9596,0.86756 2.5,0.48095 1.375,-0.34511 2.5,-0.21997 2.5,0.27809 0,1.1827 5.93269,2.05047 6.60305,0.96582 0.72482,-1.17279 4.16142,-1.03987 4.56692,0.17664 0.40887,1.22662 3.54263,1.94674 10.83003,2.48869 10.10297,0.75134 12.49272,1.05455 13.55725,1.72014 0.58148,0.36357 3.73148,0.87183 7,1.12947 3.26851,0.25764 6.46025,0.62219 7.09275,0.81012 0.6325,0.18792 1.22057,-0.10833 1.30683,-0.65833 0.0863,-0.55 -2.45625,-1.65256 -5.65,-2.45013 -7.14339,-1.7839 -7.26559,-1.87564 -4.85085,-3.64134 1.87399,-1.37029 1.82345,-1.47678 -1.25157,-2.63748 C 558.44198,348.10581 557,347.253 557,346.87592 c 0,-1.05431 8.16344,0.22982 11.20034,1.76184 1.48519,0.74923 3.55554,1.36224 4.60078,1.36224 1.04524,0 3.35513,0.50711 5.1331,1.12691 2.437,0.84955 3.1121,1.58794 2.74284,3 -0.2694,1.0302 0.0306,1.87923 0.66656,1.88674 0.63601,0.008 2.24478,0.30485 3.57505,0.66074 2.03148,0.5435 2.30875,0.36064 1.73204,-1.14224 -0.5924,-1.54376 -0.27324,-1.70666 2.32546,-1.18692 1.65666,0.33134 4.89926,1.5142 7.20579,2.6286 2.30654,1.11439 5.00272,2.02617 5.99152,2.02617 2.50562,0 10.46239,1.86579 15.82652,3.71117 2.475,0.85146 6.075,1.67166 8,1.82268 1.925,0.15102 7.775,1.02718 13,1.94703 8.66529,1.5255 12.33454,2.0872 15.71104,2.4051 0.66608,0.0627 2.0264,0.9892 3.02295,2.05886 3.23988,3.47761 7.81191,1.44411 4.67655,-2.07999 l -1.91054,-2.1474 4,0.73192 c 4.7827,0.87513 16.39153,4.37508 18.5,5.57755 2.03283,1.15934 2.77083,1.1529 3.50227,-0.0306 z M 546.5,345 c -1.90836,-0.82005 -1.8969,-0.86265 0.25,-0.92971 1.2375,-0.0387 2.25,0.37971 2.25,0.92971 0,0.55 -0.1125,0.96837 -0.25,0.92971 -0.1375,-0.0387 -1.15,-0.45702 -2.25,-0.92971 z m -36.75,-1.66228 c 0.6875,-0.27741 1.8125,-0.27741 2.5,0 0.6875,0.27741 0.125,0.50439 -1.25,0.50439 -1.375,0 -1.9375,-0.22698 -1.25,-0.50439 z m 28.0625,-0.0208 c 0.72187,-0.28887 1.58438,-0.25335 1.91667,0.0789 0.33229,0.33229 -0.25834,0.56864 -1.3125,0.52522 -1.16495,-0.048 -1.4019,-0.28494 -0.60417,-0.60416 z M 541.5,343 c 0.33992,-0.55 0.81648,-1 1.05902,-1 0.24254,0 0.44098,0.45 0.44098,1 0,0.55 -0.47656,1 -1.05902,1 -0.58246,0 -0.7809,-0.45 -0.44098,-1 z m -41,-0.98415 c -1.1,-0.46684 -2.81602,-1.1082 -3.81338,-1.42526 -0.99736,-0.31705 -1.54283,-1.01424 -1.21214,-1.54929 0.66621,-1.07796 7.52552,1.78764 7.52552,3.14391 0,0.93512 0.12195,0.94338 -2.5,-0.16936 z M 532,342 c -1.20677,-0.77988 -1.04862,-0.97237 0.80902,-0.98469 1.28757,-0.009 2.03561,0.42706 1.69098,0.98469 -0.74319,1.2025 -0.63926,1.2025 -2.5,0 z m -43.57311,27.95066 c -2.23576,-0.81175 -2.8875,-0.50495 -1.995,0.93913 0.34769,0.56258 1.37235,0.73883 2.27702,0.39167 1.44596,-0.55487 1.41186,-0.71579 -0.28202,-1.3308 z M 412,365.05902 c 0,-1.17986 -1.95035,-2.442 -2.66667,-1.72569 C 408.61702,364.04965 409.87916,366 411.05902,366 411.57656,366 412,365.57656 412,365.05902 Z M 405.97761,360.227 C 400.99701,356.64561 396,353.91904 396,354.78281 c 0,0.49289 1.0125,1.42803 2.25,2.07808 1.2375,0.65006 3.7841,2.3007 5.6591,3.66808 1.87501,1.36739 3.64786,2.2474 3.93967,1.95559 0.29181,-0.29181 -0.55021,-1.30771 -1.87116,-2.25756 z m 186.45763,1.87778 c 0.72614,-1.17491 -2.02012,-2.20131 -3.9295,-1.46861 C 586.55886,361.38326 587.58086,363 590,363 c 1.03508,0 2.13094,-0.40285 2.43524,-0.89522 z M 466.25,360.60795 c 4.39297,-3.33474 1.23627,-4.97302 -11.75,-6.0981 -14.05208,-1.21742 -25.55125,-3.11724 -28,-4.62598 -0.55,-0.33886 -4.15,-1.64387 -8,-2.9 -3.85,-1.25614 -9.28639,-3.56639 -12.08086,-5.13388 C 403.62467,340.2825 400.58717,339 399.66914,339 398.75111,339 398,338.55 398,338 c 0,-0.55 -0.59015,-1 -1.31144,-1 -0.72129,0 -2.27747,-0.9 -3.45819,-2 -1.18071,-1.1 -2.76556,-2 -3.52189,-2 -0.75633,0 -1.6663,-0.29116 -2.02216,-0.64701 -0.54002,-0.54002 -10.37682,-4.21674 -11.55876,-4.32034 -1.68289,-0.14751 3.22925,3.62002 6.60828,5.06844 4.47411,1.91783 5.87663,3.62247 2.01416,2.44803 -12.82157,-3.89857 -11.01675,-1.03139 3.48312,5.53336 1.50322,0.68058 3.56152,2.00919 4.57402,2.95247 1.01249,0.94328 3.04109,1.71505 4.50799,1.71505 1.46691,0 3.9086,0.50232 5.42599,1.11627 1.51738,0.61394 3.65888,1.26599 4.75888,1.44899 1.1,0.18299 3.74246,1.08692 5.87212,2.00873 2.12967,0.92181 4.60467,1.68589 5.5,1.69797 0.89534,0.0121 3.65288,0.97072 6.12788,2.13032 2.475,1.1596 6.975,2.75428 10,3.54375 3.025,0.78946 7.75,2.03106 10.5,2.7591 6.69932,1.77359 18.5004,1.86051 20.75,0.15282 z M 389,337 c -1.29269,-0.8354 -1.26629,-0.97149 0.19098,-0.98469 0.93004,-0.008 1.9691,0.43469 2.30902,0.98469 0.78218,1.2656 -0.54163,1.2656 -2.5,0 z m 100.36187,22.30567 c -0.47192,-1.88029 -0.16637,-2.97546 1.08558,-3.8909 2.45295,-1.79364 1.27571,-6.25364 -2.92056,-11.06463 -2.39889,-2.75031 -3.67189,-3.54625 -4.45635,-2.78634 -1.64136,1.59003 -1.62759,11.47389 0.0174,12.49055 1.88835,1.16707 0.82894,1.91897 -4.68602,3.32585 -2.62206,0.66889 -4.93804,1.72816 -5.14663,2.35392 -0.37693,1.13079 2.08966,1.53705 12.00404,1.97715 4.66909,0.20726 4.74688,0.16164 4.10254,-2.4056 z M 586,360.05902 c 0,-1.38636 -0.98198,-1.78674 -6.35432,-2.59084 -4.73059,-0.70804 -4.82528,-0.67228 -3.71482,1.40263 C 576.83221,360.555 578.00352,361 581.53518,361 583.99083,361 586,360.57656 586,360.05902 Z m -6.82061,-7.27963 c -0.49795,-0.49795 -2.42952,-0.93764 -4.29238,-0.97709 -1.86285,-0.0395 -4.59897,-0.68446 -6.08026,-1.43335 -1.48129,-0.74889 -2.93992,-0.96249 -3.24141,-0.47467 -0.7605,1.23052 3.87346,4.10243 6.64948,4.12103 1.25685,0.008 2.94509,0.43268 3.75164,0.9428 1.77486,1.12254 4.59907,-0.79258 3.21293,-2.17872 z M 407.10389,352.75 c -0.47116,-1.2747 -2.4175,-2.85435 -4.4902,-3.64423 -6.64534,-2.53247 -5.45987,0.33729 1.87798,4.54618 3.02807,1.73686 3.52427,1.56553 2.61222,-0.90195 z m 47.63209,-2.45795 c 0.3555,-1.06649 -8.37839,-2.31631 -9.35587,-1.33882 -0.56183,0.56182 6.68072,2.92017 8.05739,2.62368 0.51562,-0.11105 1.09994,-0.68924 1.29848,-1.28486 z M 470.5,351 c 0.33992,-0.55 0.14148,-1 -0.44098,-1 -0.58246,0 -1.05902,0.45 -1.05902,1 0,0.55 0.19844,1 0.44098,1 0.24254,0 0.7191,-0.45 1.05902,-1 z m 1.93524,-6.10478 C 471.73727,343.76588 469,343.71657 469,344.83333 c 0,1.40725 1.12573,2.05565 2.59202,1.49298 0.76807,-0.29473 1.14752,-0.93873 0.84322,-1.43109 z m -20.86393,-0.77983 c -0.30069,-0.48654 -2.68975,-1.20595 -5.30901,-1.5987 -2.61927,-0.39274 -5.52249,-1.12089 -6.45161,-1.61809 -1.01897,-0.54528 -1.91749,-0.53481 -2.26433,0.0264 -0.31627,0.51173 2.24392,1.59822 5.68931,2.41444 7.57217,1.79387 9.04976,1.93142 8.33564,0.77596 z M 423,341 c -1.97586,-1.2769 -5.28917,-1.2769 -4.5,0 0.33992,0.55 1.82898,0.99311 3.30902,0.98469 2.10476,-0.012 2.36421,-0.22649 1.19098,-0.98469 z m -54.29816,-6.57565 C 367.21583,333.04644 366,331.28883 366,330.51855 c 0,-2.02123 -1.6903,-2.768 -2.35349,-1.03976 -0.63202,1.64701 5.96457,9.24346 7.06834,8.1397 0.37886,-0.37887 -0.52699,-1.81623 -2.01301,-3.19414 z m 89.54054,0.41803 C 459.91763,336.51763 463,336.26363 463,334.45034 463,331.94682 460.06611,327 458.58131,327 c -0.75203,0 -1.58925,-0.5783 -1.86047,-1.2851 -0.27123,-0.70681 -2.45687,-2.618 -4.85699,-4.2471 -2.40012,-1.62909 -4.6956,-3.47557 -5.10108,-4.10328 -0.40547,-0.62771 -1.86797,-1.42509 -3.25,-1.77196 C 442.13075,315.2457 441,314.52047 441,313.98095 441,313.44143 440.12656,313 439.05902,313 c -1.06754,0 -2.24333,-0.48921 -2.61287,-1.08713 -0.47374,-0.76653 -0.98483,-0.77419 -1.73305,-0.026 -0.74823,0.74823 -0.27259,1.79201 1.61286,3.53939 1.47072,1.36302 2.67404,2.9497 2.67404,3.52596 0,0.57626 0.8449,1.04775 1.87756,1.04775 1.03265,0 2.43775,0.675 3.12244,1.5 0.68469,0.825 1.97729,1.50669 2.87244,1.51488 0.89516,0.008 3.42756,1.60322 5.62756,3.54453 l 4,3.52966 -3,-0.50666 c -1.65,-0.27866 -5.25,-0.81116 -8,-1.18333 -5.37967,-0.72805 -6.46084,-1.60014 -6.48469,-5.23064 L 439,320.83688 l -3.75,2.2416 c -5.37978,3.21581 -5.83007,3.74145 -4.41619,5.15533 1.14091,1.14091 4.84296,1.85391 9.63769,1.85618 1.08432,5.2e-4 2.65932,0.6054 3.5,1.34418 2.33126,2.0487 8.01401,3.02858 8.09189,1.39529 0.0349,-0.73121 0.48936,-0.26559 1.01,1.03468 0.7952,1.986 1.19172,2.16073 2.47899,1.09239 1.16069,-0.96329 1.81318,-0.99097 2.69,-0.11415 z M 400,330.24348 c 0,-0.41609 -1.79291,-1.31609 -3.98425,-2 -7.24726,-2.26186 -9.52755,-1.12698 -2.71726,1.35236 3.85688,1.40413 6.70151,1.67904 6.70151,0.64764 z m -27.49583,-3.86409 c -0.98935,-0.72343 -2.25069,-1.03605 -2.80298,-0.69471 -0.58885,0.36393 -0.26019,1.16462 0.79464,1.93593 0.98935,0.72343 2.25069,1.03605 2.80298,0.69471 0.58885,-0.36393 0.26019,-1.16462 -0.79464,-1.93593 z m 128.43801,0.051 c -0.88591,-1.06746 -6.67766,-3.60239 -8.94218,-3.9138 -0.93305,-0.12832 -4.50429,-2.45553 -3.8151,-2.48613 0.3767,-0.0167 1.81188,0.39807 3.18929,0.92176 4.36425,1.65928 17.69158,2.04002 18.27407,0.52206 0.52167,-1.35944 5.10894,-1.33856 10.60174,0.0483 4.04998,1.02254 3.49462,-1.31343 -0.73213,-3.07948 -1.91518,-0.80021 -4.04199,-1.33975 -4.72626,-1.19898 -0.68427,0.14078 -1.39092,-0.69788 -1.57034,-1.86369 -0.39772,-2.5843 2.52168,-3.60126 6.80868,-2.37176 3.66017,1.04972 5.07085,-0.63957 1.62736,-1.94878 -1.35467,-0.51504 -2.73176,-1.37125 -3.0602,-1.90269 -0.32845,-0.53143 -2.96104,-2.30032 -5.8502,-3.93087 -2.88917,-1.63054 -8.69107,-5.83599 -12.89312,-9.34544 C 490.15531,287.78088 478.29565,279 477.05417,279 c -0.52513,0 -1.31465,-0.60942 -1.75448,-1.35427 -1.58382,-2.68218 -32.93631,-28.20558 -40.29969,-32.80712 -1.375,-0.85927 -4.01009,-2.97447 -5.85576,-4.70046 C 427.29858,238.41217 425.01108,237 424.06091,237 c -0.95017,0 -2.05934,-0.33176 -2.46482,-0.73725 -0.40549,-0.40548 -1.49182,-0.74298 -2.41408,-0.75 -0.92226,-0.007 -1.69846,-0.68775 -1.72488,-1.51275 -0.0264,-0.825 -0.59008,-1.3875 -1.25258,-1.25 -0.6625,0.1375 -1.09205,-0.28577 -0.95455,-0.94061 0.1375,-0.65484 -0.60266,-1.37538 -1.6448,-1.60121 -3.82459,-0.82878 -8.16645,-3.93335 -10.52274,-7.52409 -2.35637,-3.59087 -5.89178,-5.23552 -4.72645,-2.19872 0.47754,1.24445 0.25001,1.28553 -1.40288,0.25329 -1.08508,-0.67765 -1.54601,-1.37437 -1.0243,-1.54827 0.52171,-0.1739 10e-4,-1.40577 -1.15672,-2.73748 -1.4622,-1.68167 -2.46685,-2.12121 -3.28896,-1.43893 -1.36269,1.13094 -22.58882,-12.54099 -26.06764,-16.79038 -1.20967,-1.47762 -2.57659,-2.24208 -3.25706,-1.82153 -0.66284,0.40966 -1.43242,0.0476 -1.7703,-0.83294 -0.32874,-0.85671 -0.97828,-1.32245 -1.4434,-1.03498 -1.17287,0.72487 -9.38078,-3.25349 -11.46586,-5.55748 C 346.08748,187.43918 306.06546,167 304.4463,167 c -0.25745,0 -2.37569,-0.85502 -4.7072,-1.90005 -5.0207,-2.25038 -9.99397,-3.99698 -14.54125,-5.10687 -4.874,-1.18964 -3.6112,0.88611 2.87048,4.71836 2.98742,1.76629 5.97518,3.67879 6.63946,4.25 0.66429,0.57121 1.63483,1.03856 2.15677,1.03856 0.86837,0 9.30224,4.25904 32.13544,16.22817 15.58451,8.16937 27.47773,14.96328 29.59348,16.90505 1.15142,1.05673 3.17642,2.12468 4.5,2.37322 1.32359,0.24854 3.53152,1.00033 4.90652,1.67066 4.53121,2.209 17.46043,10.13782 19.56445,11.99785 1.13545,1.00378 2.82295,1.82505 3.75,1.82505 0.92705,0 1.68555,0.675 1.68555,1.5 0,1.68139 -2.54515,2.04499 -3.5,0.5 -0.33992,-0.55 -1.35648,-1 -2.25902,-1 -1.27632,0 -1.37431,0.26667 -0.44098,1.2 1.53233,1.53233 1.56559,3.14398 0.0455,2.20451 -0.7153,-0.44208 -0.88306,-0.27432 -0.44098,0.44098 0.39244,0.63498 1.36197,1.15451 2.15451,1.15451 0.79254,0 1.45529,0.5625 1.47278,1.25 0.0194,0.76339 0.54895,0.56875 1.36025,-0.5 1.71675,-2.26154 2.54657,-2.23127 1.94453,0.0709 -0.33879,1.29553 0.69697,2.59728 3.58974,4.51163 2.23626,1.47988 4.01438,3.02297 3.95138,3.42907 -0.063,0.40611 -0.0278,0.96338 0.0782,1.23838 0.94506,2.45175 0.85448,5.52299 -0.18499,6.2724 -0.88734,0.63973 -0.72301,0.73879 0.54449,0.32822 1.45586,-0.47158 1.69007,-0.19319 1.18261,1.40567 -0.48405,1.52513 -0.17565,1.99371 1.31217,1.99371 1.06972,0 2.50514,0.675 3.18983,1.5 0.68469,0.825 1.81371,1.5 2.50895,1.5 1.97873,0 2.45552,5.89633 0.57426,7.10169 -1.2456,0.79808 -1.29993,1.13198 -0.25476,1.56583 0.73065,0.3033 2.6053,1.96468 4.16589,3.69196 1.56059,1.72729 4.45029,4.92177 6.42155,7.09886 5.09242,5.62413 4.84721,7.28932 -0.51152,3.47357 C 418.30697,271.79445 417,271.19445 417,271.59857 c 0,0.40412 -1.65,-0.91524 -3.66667,-2.9319 C 411.31667,266.65 409.16668,265 408.55557,265 c -0.6111,0 -1.9111,-0.93435 -2.8889,-2.07633 -1.42327,-1.66226 -2.06586,-1.83726 -3.22224,-0.87755 -1.89084,1.56926 -1.83992,2.95388 0.10862,2.95388 0.85418,0 3.20864,1.125 5.23214,2.5 2.02349,1.375 4.24962,2.5 4.94694,2.5 0.75592,0 1.26787,1.27395 1.26787,3.15499 0,2.91065 -0.13553,3.03859 -1.75,1.652 -1.76317,-1.5143 -4.61949,-2.87789 -7.08408,-3.38189 -0.73374,-0.15005 -1.90255,-1.05025 -2.59736,-2.00045 -0.87634,-1.19847 -1.4795,-1.37777 -1.96922,-0.58538 -0.43588,0.70526 0.74909,1.81528 3.09735,2.90149 2.09182,0.96758 4.39133,2.54674 5.11001,3.50924 0.71869,0.9625 1.80826,1.75 2.42126,1.75 0.61301,0 1.93749,0.74474 2.9433,1.65499 1.19191,1.07866 1.82874,1.23223 1.82874,0.44098 0,-2.548 2.16134,0.30377 5.03716,6.64626 1.66677,3.67597 2.73321,7.40592 2.40927,8.42656 -0.31966,1.00716 -0.10088,1.83121 0.48618,1.83121 0.58707,0 1.06739,0.50248 1.06739,1.11663 0,0.61415 -0.87443,0.88796 -1.94318,0.60848 -2.60848,-0.68213 -5.90776,2.82395 -4.23319,4.49852 0.90183,0.90183 1.45643,0.89631 2.37637,-0.0236 1.77538,-1.77538 4.25417,-1.46061 6.3,0.8 0.99549,1.1 2.38594,2 3.08989,2 0.70395,0 2.54671,0.53793 4.09501,1.19539 1.54831,0.65747 3.2651,1.24661 3.8151,1.30922 2.50738,0.28541 6.01976,1.90171 7.86169,3.61773 1.10849,1.03271 2.58302,1.87766 3.27674,1.87766 1.76719,0 10.12418,5.76824 11.31502,7.80996 0.54215,0.92952 0.99942,1.32598 1.01614,0.88102 0.0167,-0.44496 0.59291,-0.45373 1.28041,-0.0195 0.6875,0.43423 3.40645,0.83973 6.04211,0.90112 2.63565,0.0614 5.31315,0.63266 5.95,1.26951 1.52361,1.52361 4.48331,1.48162 5.00084,-0.0709 0.30611,-0.91835 1.022,-0.82869 2.83333,0.35485 1.85416,1.21153 2.97024,1.33896 4.74939,0.54226 1.61179,-0.72175 2.53266,-0.72182 3,-2.1e-4 1.25793,1.94235 6.39619,4.01218 8.81311,3.55016 1.8681,-0.35711 2.15932,-0.75657 1.3034,-1.78788 z M 503,312 c 0,-1.17371 0.76862,-1.17371 3.5,0 1.77225,0.76156 1.68684,0.86743 -0.75,0.92971 C 504.2375,312.96837 503,312.55 503,312 Z m -58.5,-10 c -0.33992,-0.55 0.0835,-1 0.94098,-1 0.85746,0 1.55902,0.45 1.55902,1 0,0.55 -0.42344,1 -0.94098,1 -0.51754,0 -1.2191,-0.45 -1.55902,-1 z m -5.34454,-2.31065 c -1.65726,-1.99938 -1.17313,-3.94689 0.69293,-2.78748 0.74162,0.46078 1.19162,1.64144 1,2.62368 -0.31914,1.63597 -0.46127,1.64972 -1.69293,0.1638 z m -25.08157,-39.10032 c -0.88728,-1.0691 -0.88986,-1.58473 -0.0106,-2.12812 1.07572,-0.66483 2.88621,1.06364 2.92144,2.78909 0.0252,1.23246 -1.65627,0.85064 -2.9108,-0.66097 z m -0.23454,-19.37605 c -2.01336,-1.49214 -4.15467,-3.50048 -4.75848,-4.46298 -0.90974,-1.45019 -0.75373,-1.75 0.91066,-1.75 1.3418,0 2.00847,0.66385 2.00847,2 0,1.1 0.3375,2.00224 0.75,2.00497 0.4125,0.003 2.1,1.11155 3.75,2.46403 4.07235,3.33807 1.90786,3.12979 -2.66065,-0.25602 z m -11.45531,-6.65457 c -0.30425,-0.79287 -0.40263,-2.19526 -0.21861,-3.11643 0.30227,-1.51316 0.56712,-1.48617 2.74368,0.27964 1.37504,1.11555 2.10086,2.45323 1.69098,3.11643 -1.0018,1.62096 -3.55162,1.45184 -4.21605,-0.27964 z m 163.41429,92.33658 c -0.42235,-1.26706 -6.81859,-3.73181 -11.40973,-4.39667 -1.71128,-0.24782 -5.08628,-1.29106 -7.5,-2.31831 -5.5658,-2.36873 -12.56668,-3.5099 -13.38726,-2.18218 -0.34066,0.5512 0.32302,1.00217 1.47483,1.00217 1.15181,0 3.09086,0.65211 4.30901,1.44914 1.21815,0.79702 4.68982,2.12688 7.71482,2.95524 3.025,0.82836 7.525,2.17114 10,2.98397 5.44118,1.78695 9.29915,2.00911 8.79833,0.50664 z M 388.25,325.5 c -0.1375,-0.55 -0.5875,-1.0203 -1,-1.04511 -3.08837,-0.18576 -9.12976,-1.84728 -10.92989,-3.00598 -1.19894,-0.77173 -5.02394,-2.37316 -8.5,-3.55873 -3.47606,-1.18558 -6.86099,-2.58304 -7.52207,-3.10547 -0.66108,-0.52242 -1.9237,-0.8002 -2.80583,-0.61729 -1.95047,0.40445 5.7288,5.62629 9.50779,6.46522 1.375,0.30525 3.97379,1.21426 5.77509,2.02001 1.8013,0.80575 4.7263,2.10671 6.5,2.89103 3.54479,1.56747 9.37061,1.53912 8.97491,-0.0437 z m -28.36364,-3.77395 c -3.33918,-3.18188 -10.82338,-8.12237 -11.41226,-7.53348 -1.08768,1.08768 9.03019,9.80743 11.37996,9.80743 h 2.41867 z m 67.45927,-1.90221 c 1.7349,-1.19689 3.331,-2.31102 3.54687,-2.47584 0.21588,-0.16482 -0.1588,-0.96395 -0.83262,-1.77585 -0.67381,-0.81189 -0.95278,-2.33424 -0.61992,-3.38298 0.96892,-3.05281 -1.84758,-4.70654 -5.89843,-3.4633 -2.12868,0.65331 -3.7294,0.68626 -4.32661,0.089 -0.59721,-0.59721 -2.17357,-0.20253 -4.26076,1.06676 -1.82207,1.10807 -3.65105,1.80565 -4.06441,1.55018 -0.41335,-0.25546 -1.03421,-0.007 -1.37967,0.55183 -0.34546,0.55897 -1.61406,1.03062 -2.8191,1.04811 -1.20504,0.0175 -3.08879,0.71026 -4.18611,1.53949 -1.71147,1.29333 -1.78256,1.64206 -0.5,2.45288 0.82232,0.51986 2.72352,0.9521 4.22489,0.96052 1.50137,0.008 4.53796,0.73881 6.74797,1.62308 2.21002,0.88427 4.67971,1.35392 5.48822,1.04367 0.8085,-0.31025 1.73597,-0.13375 2.06104,0.39223 0.95852,1.55092 3.44794,1.10557 6.81864,-1.21983 z M 415,315.1 c 0,-0.96281 6.04704,-2.38629 6.82639,-1.60694 0.76399,0.76398 -0.003,1.15803 -3.57639,1.8383 C 416.4625,315.67161 415,315.5675 415,315.1 Z m 11,-3.15902 c 0,-0.58246 0.45,-0.7809 1,-0.44098 0.55,0.33992 1,0.81648 1,1.05902 0,0.24254 -0.45,0.44098 -1,0.44098 -0.55,0 -1,-0.47656 -1,-1.05902 z m -82.58754,-4.3085 C 342.77813,305.97942 334.91348,300 333.37358,300 c -1.26346,0 -8.44966,-5.25725 -7.91586,-5.79105 0.27167,-0.27168 1.19889,0.0911 2.0605,0.80617 1.05364,0.87444 1.89689,0.96977 2.57551,0.29115 0.67862,-0.67862 0.24377,-1.51034 -1.32815,-2.5403 -2.14049,-1.4025 -2.53994,-1.3671 -4.74794,0.42083 -1.99023,1.61159 -2.15845,2.11183 -0.96423,2.86737 1.21221,0.76692 1.17693,0.91769 -0.21773,0.93052 -1.25092,0.0115 -0.87833,0.82433 1.5,3.27232 2.56646,2.64164 3.51965,3.06675 5.04497,2.25 1.36219,-0.72939 2.0071,-0.65748 2.33929,0.26085 0.25225,0.69732 1.10952,1.91875 1.90506,2.71428 0.79554,0.79554 1.31786,1.75939 1.16071,2.1419 -0.40126,0.97674 7.54252,3.20557 8.49707,2.38407 0.43053,-0.37052 0.48889,-1.43956 0.12968,-2.37563 z m 63.11269,0.79257 3.76939,-1.57496 -2.08786,-2.08785 c -1.87966,-1.87966 -3.41501,-2.11178 -15.39727,-2.32778 -16.5126,-0.29767 -19.47717,-0.65426 -28.63811,-3.44472 -5.0866,-1.5494 -7.64774,-1.9133 -8.37155,-1.18949 -1.62016,1.62016 10.87105,7.3778 16.70025,7.69773 0.55,0.0302 1.53588,0.39059 2.19084,0.80091 0.65497,0.41031 3.35497,0.96253 6,1.22714 2.64504,0.26462 6.83416,0.87319 9.30916,1.35238 7.1645,1.38714 12.46847,1.24162 16.52515,-0.45336 z m -49.96628,-1.95685 c -1.06762,-0.80751 -2.53012,-1.4682 -3.25,-1.4682 -0.71988,0 -1.53387,0 -1.80887,0 -1.52889,0 -0.27286,1.59722 1.69098,2.15032 4.22383,1.18961 5.50065,0.93101 3.36789,-0.68212 z M 347,302.96862 c 0,-0.56727 -0.7875,-1.32959 -1.75,-1.69405 -0.9625,-0.36446 -2.34464,-1.25034 -3.07143,-1.96862 C 340.6685,297.81357 338,297.55547 338,298.9018 c 0,1.10708 6.02607,5.05812 7.75,5.08135 0.6875,0.009 1.25,-0.44727 1.25,-1.01453 z m -5,-9.4096 c 0,-0.24254 -0.45,-0.7191 -1,-1.05902 -0.55,-0.33992 -1,-0.14148 -1,0.44098 0,0.58246 0.45,1.05902 1,1.05902 0.55,0 1,-0.19844 1,-0.44098 z m -8,-2.51687 C 334,290.1338 326.06596,285 324.66214,285 c -1.92422,0 -0.26992,3.18851 2.08786,4.02415 1.5125,0.53606 3.425,1.39846 4.25,1.91644 1.97905,1.24257 3,1.27713 3,0.10156 z m 64.96013,-32.59019 C 398.29737,257.65338 396.94771,257 395.96089,257 c -0.98682,0 -2.00277,-0.5625 -2.25766,-1.25 -0.33192,-0.89527 -0.99409,-0.71308 -2.33333,0.64197 -1.55976,1.57817 -1.59599,1.79697 -0.21844,1.3192 1.08941,-0.37784 1.82331,0.0844 2.15638,1.35803 0.29018,1.10964 1.37023,1.9308 2.53952,1.9308 1.11903,0 2.38811,0.5625 2.82016,1.25 0.57104,0.90865 0.88279,0.75899 1.14159,-0.54804 0.19582,-0.98892 -0.18622,-2.45142 -0.84898,-3.25 z m 7.28987,-3.11424 c -0.6875,-0.27741 -1.8125,-0.27741 -2.5,0 -0.6875,0.27741 -0.125,0.50439 1.25,0.50439 1.375,0 1.9375,-0.22698 1.25,-0.50439 z M 390,253.53518 c 0,-1.77984 -3.63706,-3.93145 -4.44256,-2.62813 -0.31016,0.50186 -0.28932,1.62807 0.0463,2.50271 0.76661,1.99773 4.39626,2.10129 4.39626,0.12542 z M 381.28975,251 C 380.78805,249.0815 379,248.14442 379,249.8 c 0,0.69662 2.03899,3.2 2.60638,3.2 0.11351,0 -0.029,-0.9 -0.31663,-2 z M 388,243 c 0,-0.55 -0.47656,-1 -1.05902,-1 -0.58246,0 -0.7809,0.45 -0.44098,1 0.33992,0.55 0.81648,1 1.05902,1 0.24254,0 0.44098,-0.45 0.44098,-1 z m -8.39889,-5.54973 C 377.71478,236.07095 376,236.32771 376,237.98947 c 0,0.89112 4.09765,1.8901 4.99843,1.21858 0.27413,-0.20436 -0.35466,-0.99536 -1.39732,-1.75778 z M 395,238.22224 c 0,-1.18039 -4.10825,-4.44732 -4.76577,-3.7898 -0.31661,0.3166 0.28867,1.44708 1.34506,2.51217 2.03263,2.04936 3.42071,2.56781 3.42071,1.27763 z M 386,232 c 0,-0.55 -0.70156,-1 -1.55902,-1 -0.85746,0 -1.2809,0.45 -0.94098,1 0.33992,0.55 1.04148,1 1.55902,1 0.51754,0 0.94098,-0.45 0.94098,-1 z m -18,-20.44098 c 0,-0.24254 -0.45,-0.7191 -1,-1.05902 -0.55,-0.33992 -1,-0.14148 -1,0.44098 0,0.58246 0.45,1.05902 1,1.05902 0.55,0 1,-0.19844 1,-0.44098 z m -17.6087,-10.9817 C 349.79594,199.02586 347,197.58643 347,198.83138 c 0,0.99476 2.17386,3.16862 3.16862,3.16862 0.42273,0 0.52294,-0.64021 0.22268,-1.42268 z m -32.41136,-4.10149 c -0.69572,-0.83829 -1.47088,-1.31823 -1.72258,-1.06653 -0.69349,0.6935 0.71555,2.5907 1.9241,2.5907 0.6631,0 0.58723,-0.57378 -0.20152,-1.52417 z M 309.5,193 c -0.33992,-0.55 -1.06803,-1 -1.61803,-1 -0.55,0 -0.72189,0.45 -0.38197,1 0.33992,0.55 1.06803,1 1.61803,1 0.55,0 0.72189,-0.45 0.38197,-1 z M 293.54112,179.06653 C 292.73189,177.75717 290,177.64928 290,178.92668 c 0,0.50967 0.7875,1.10184 1.75,1.31593 2.18229,0.48541 2.63447,0.1885 1.79112,-1.17608 z M 290,176 c 0,-0.55 -0.19844,-1 -0.44098,-1 -0.24254,0 -0.7191,0.45 -1.05902,1 -0.33992,0.55 -0.14148,1 0.44098,1 0.58246,0 1.05902,-0.45 1.05902,-1 z m -11.5,-11 c -0.33992,-0.55 -1.26648,-1 -2.05902,-1 -0.79254,0 -1.44098,0.45 -1.44098,1 0,0.55 0.92656,1 2.05902,1 1.13246,0 1.7809,-0.45 1.44098,-1 z m -1.32205,-5.62255 c -2.06178,-1.52079 -2.87038,0.0833 -1.11076,2.20351 0.96724,1.16545 1.43255,1.22847 2.02249,0.27393 0.45,-0.72811 0.0737,-1.75056 -0.91173,-2.47744 z M 261,161.16667 c 0,-1.30208 -1.18877,-2.16804 -2.15579,-1.57039 C 257.80999,160.23547 258.70176,162 260.05902,162 260.57656,162 261,161.625 261,161.16667 Z m 9.94212,-1.59693 C 272.46121,157.73935 269.55736,156 264.98241,156 c -3.67371,0 -3.62625,1.8358 0.0966,3.73526 3.15851,1.61153 4.41783,1.57598 5.86315,-0.16552 z M 280,158.55902 c 0,-0.24254 -0.45,-0.7191 -1,-1.05902 -0.55,-0.33992 -1,-0.14148 -1,0.44098 0,0.58246 0.45,1.05902 1,1.05902 0.55,0 1,-0.19844 1,-0.44098 z M 195.8291,152 c 1.5257,0 1.79205,-0.53423 1.37103,-2.75 -0.47199,-2.48406 -0.35954,-2.61534 1.16284,-1.3575 1.96363,1.62242 3.57197,0.64244 1.82036,-1.10917 -2.01991,-2.01991 -1.31005,-2.97007 1.72147,-2.30424 1.68539,0.37017 3.18367,0.18678 3.5691,-0.43686 0.36536,-0.59117 1.10291,-0.80377 1.639,-0.47245 1.24962,0.7723 4.04432,-1.50637 3.30824,-2.69738 -0.30626,-0.49554 -2.3606,-1.82119 -4.56519,-2.94589 -2.95585,-1.50796 -4.35155,-1.76009 -5.31537,-0.96019 -0.96029,0.79697 -1.44532,0.72431 -1.82836,-0.27389 -0.28675,-0.74724 -3.0393,-2.15061 -6.11679,-3.11859 C 189.51794,132.60585 187,131.38032 187,130.85045 c 0,-0.5403 2.47941,-0.82881 5.64561,-0.65693 5.88185,0.3193 8.56694,-1.41677 4.15944,-2.68933 C 192.13789,126.15666 186,122.9575 186,121.87243 c 0,-0.78133 0.43789,-0.75391 1.4562,0.0912 0.8009,0.66469 1.96048,0.89686 2.57684,0.51593 0.61636,-0.38093 2.99857,0.004 5.29381,0.85436 C 200.58555,125.2833 207,126.2631 207,125.117 c 0,-2.88571 -12.96594,-6.90918 -16.73347,-5.19258 -1.67333,0.76242 -2.18779,0.71376 -2.0081,-0.18995 0.15327,-0.77088 -2.07139,-1.58601 -6.08638,-2.2301 C 175.90499,116.49901 174.70466,115 180.16667,115 181.725,115 183,114.61411 183,114.14246 c 0,-0.86851 -9.29144,-2.1297 -15.89669,-2.15777 -1.98182,-0.008 -4.27831,-0.47013 -5.10331,-1.02601 -1.05852,-0.71322 0.78099,-0.92945 6.25005,-0.73468 4.26253,0.1518 7.75003,-0.0756 7.75,-0.50538 -1.2e-4,-1.85821 -8.09834,-2.98686 -22.50005,-3.13584 -6.6,-0.0683 -12.5926,-0.49749 -13.31688,-0.95381 -0.8621,-0.54314 -1.25632,-0.36333 -1.14152,0.52068 0.0965,0.74269 -0.15574,2.38125 -0.56044,3.64124 -0.81807,2.54701 -3.06031,2.42984 -2.84227,-0.14852 0.17092,-2.02118 3.1e-4,-2.02427 -3.78148,-0.0686 -1.6738,0.86555 -3.28886,1.32814 -3.58903,1.02797 -0.30017,-0.30016 0.73891,-1.03418 2.30905,-1.63115 2.20624,-0.83881 2.53257,-1.28454 1.43643,-1.96199 -0.7801,-0.48213 -1.72637,-0.68625 -2.10281,-0.4536 -0.37644,0.23266 -1.24052,-0.24704 -1.92019,-1.06598 C 127.3112,104.67005 125.96531,104 125,104 c -0.96531,0 -2.33891,-0.70343 -3.05244,-1.56319 -1.16133,-1.39932 -1.38717,-1.40266 -2.15431,-0.0319 -0.74616,1.33333 -1.11145,1.27685 -2.82511,-0.43681 C 114.64091,99.640905 114.51419,99 116.38131,99 c 0.75972,0 2.57038,-1.558943 4.02368,-3.464317 2.74614,-3.600387 6.81896,-5.929179 12.29337,-7.029223 3.60513,-0.724424 8.75251,2.285646 9.62698,5.629638 0.41663,1.593198 0.90212,1.727921 3.14872,0.873765 C 146.93494,94.454438 151.87776,94 156.45811,94 c 6.95722,0 8.43667,0.28342 8.9887,1.721975 0.46635,1.215306 0.8768,1.372445 1.39495,0.534056 0.94457,-1.528334 8.96677,0.75938 13.17792,3.757979 3.87907,2.76215 13.96455,5.40176 15.34907,4.01724 C 196.8462,102.5538 198,102.75934 198,104.5 c 0,1.90839 1.88669,1.95884 2.61157,0.0698 0.9973,-2.5989 -13.10308,-13.62017 -15.51682,-12.128399 -0.46373,0.286598 -1.97547,-0.528322 -3.35943,-1.810934 -4.4654,-4.138389 -9.57855,-6.81504 -11.72017,-6.135315 C 168.90682,84.846963 168,84.699334 168,84.167128 c 0,-1.180889 -9.0157,-3.493884 -14.5,-3.72 -2.2,-0.09071 -6.11198,-0.511084 -8.69328,-0.934173 -3.8681,-0.634003 -5.01094,-0.451595 -6.5,1.037467 -0.9937,0.993696 -1.69422,1.951364 -1.55672,2.128149 C 136.8875,82.855357 137,83.675 137,84.5 c 0,2.149483 -2.67363,1.856049 -3.25234,-0.356949 -0.41905,-1.602455 -1.45708,-1.842291 -7.57414,-1.75 -5.80743,0.08762 -7.3472,0.460836 -8.51978,2.065057 -0.78719,1.07696 -1.17206,2.65196 -0.85527,3.5 0.47494,1.271384 0.3077,1.324115 -0.95325,0.300568 -1.98937,-1.614823 -2.96101,-0.568211 -2.2186,2.389782 0.40093,1.597434 0.15457,2.362211 -0.76821,2.384811 -2.05371,0.0503 -6.09963,3.767409 -5.37568,4.938794 0.53866,0.871569 -0.40728,1.343892 -2.48273,1.239671 -0.275,-0.01381 -1.23967,0.966646 -2.14372,2.178786 -1.42073,1.90492 -1.45945,2.53663 -0.28543,4.65668 l 1.35828,2.4528 0.0354,-2.64301 c 0.0202,-1.50329 0.74327,-2.91463 1.67688,-3.27289 1.43274,-0.54979 1.46452,-0.41557 0.25,1.05563 -1.08082,1.30925 -1.11239,1.77943 -0.14144,2.10622 0.6875,0.2314 1.25,1.22697 1.25,2.21238 0,1.24445 -0.76357,1.79167 -2.5,1.79167 -1.375,0 -2.5,-0.36824 -2.5,-0.81832 0,-0.45008 -1.80491,-1.89464 -4.01091,-3.21014 -3.84458,-2.29263 -3.934621,-2.46086 -2.17126,-4.05668 C 97.844295,99.830936 99.471864,99.427491 98.5,101 c -0.948017,1.53392 1.099902,1.18702 2.42611,-0.41097 0.76137,-0.917399 0.81949,-1.628227 0.16612,-2.032027 -0.55268,-0.341579 -0.75139,-1.281642 -0.44157,-2.089028 0.68717,-1.790726 -0.79345,-1.925185 -2.492301,-0.226334 -0.988854,0.988854 -1.399218,0.986675 -2.015631,-0.0107 -0.570852,-0.923657 -1.37479,-0.612822 -3.063128,1.184332 -1.259026,1.340171 -1.990434,2.919987 -1.625352,3.510697 C 91.845181,101.55851 91.271663,102 90.059017,102 88.369036,102 88,102.63293 88,105.53138 c 0,2.40844 0.543438,3.73993 1.70897,4.18718 0.939933,0.36069 2.664941,1.76718 3.83335,3.12554 1.521374,1.7687 3.0757,2.44269 5.475852,2.37445 2.071598,-0.0589 3.830458,0.54947 4.605748,1.59308 0.99349,1.33733 1.6367,1.45548 3.09361,0.56827 1.59907,-0.97379 2.09688,-0.58191 3.8109,3 2.38059,4.97485 6.30963,9.6201 8.13687,9.6201 0.73408,0 1.33986,0.3375 1.34617,0.75 0.006,0.4125 1.88876,1.65 4.18322,2.75 4.42077,2.11939 4.62204,2.1798 7.9123,2.375 1.43771,0.0853 1.92415,0.60147 1.53138,1.625 -0.31721,0.82663 -0.0285,1.5025 0.64301,1.50558 3.08003,0.0141 8.71862,2.22112 8.71862,3.41259 0,0.83244 1.8415,1.56845 4.9589,1.98199 2.7274,0.3618 5.22895,1.09478 5.55902,1.62883 0.33006,0.53406 1.79601,0.97101 3.25766,0.97101 1.46166,0 4.4726,0.63887 6.69099,1.41971 9.37787,3.30086 15.44501,4.95325 22.03343,6.00081 6.3661,1.01221 7.065,0.95301 7.71778,-0.65376 C 193.61255,152.79504 194.78765,152 195.8291,152 Z m -23.42308,-10.68207 c 1.36783,-1.47514 2.25948,-3.05014 1.98145,-3.5 C 174.10944,137.36807 174.35852,137 174.94098,137 175.52344,137 176,137.38931 176,137.86514 176,139.18326 171.98553,144 170.88695,144 c -0.53234,0 0.15124,-1.20693 1.51907,-2.68207 z M 94,108.18146 c 0,-1.20855 1.8972,-2.61759 2.590697,-1.9241 0.251699,0.2517 -0.22824,1.02686 -1.066531,1.72258 C 94.573782,108.76869 94,108.84456 94,108.18146 Z M 89,106 c 0,-0.55 0.45,-1 1,-1 0.55,0 1,0.45 1,1 0,0.55 -0.45,1 -1,1 -0.55,0 -1,-0.45 -1,-1 z M 116,91.559017 C 116,90.701558 116.45,90 117,90 c 0.55,0 1,0.423442 1,0.940983 0,0.517541 -0.45,1.219098 -1,1.559017 -0.55,0.339919 -1,-0.08352 -1,-0.940983 z M 130,85.5 c 0,-0.825 0.45,-1.5 1,-1.5 0.55,0 1,0.675 1,1.5 0,0.825 -0.45,1.5 -1,1.5 -0.55,0 -1,-0.675 -1,-1.5 z m 107.1574,58.18705 c 2.0291,-3.75241 -10.05556,-15.01454 -12.31393,-11.4758 -0.45235,0.70881 -0.54211,1.96375 -0.19945,2.78875 0.34266,0.825 0.59316,2.25749 0.55667,3.1833 -0.0365,0.92582 0.57843,2.21842 1.36648,2.87245 0.78806,0.65403 1.43283,2.16904 1.43283,3.36669 0,3.71785 1.91787,4.73667 5.2498,2.78883 1.60999,-0.9412 3.36841,-2.5271 3.9076,-3.52422 z M 76.711307,118.3811 c 0.232216,-0.70613 -0.568943,-0.93981 -2.171672,-0.63343 C 73.142836,118.01469 72,118.66199 72,119.18613 c 0,1.31002 4.254844,0.58298 4.711307,-0.80503 z m -11.108629,-0.88087 c -1.043527,-0.78989 -2.32907,-1.16933 -2.856763,-0.8432 -1.156256,0.71461 1.118245,2.31933 3.254085,2.29585 1.153536,-0.0127 1.061764,-0.34821 -0.397322,-1.45265 z m 8.239421,-3.95011 c 5.021354,-1.59372 1.018398,-4.67556 -5.449703,-4.19568 -4.315574,0.32018 -4.927337,0.64987 -5.188754,2.79633 -0.27707,2.275 -0.01075,2.422 4.092099,2.2588 2.413651,-0.096 5.359512,-0.48276 6.546358,-0.85945 z M 84.6,108.4 c -0.355892,-0.92744 -0.872077,-1.46126 -1.147077,-1.18626 -0.275,0.275 -0.208815,1.25882 0.147077,2.18626 0.355892,0.92744 0.872077,1.46126 1.147077,1.18626 0.275,-0.275 0.208815,-1.25882 -0.147077,-2.18626 z m 71.99738,-4.51225 c 1.70355,-0.51816 3.84105,-0.65674 4.75,-0.30794 C 162.27086,103.93418 163,103.72557 163,103.10699 163,102.49814 161.90156,102 160.55902,102 c -1.34254,0 -2.68328,-0.39204 -2.97941,-0.87119 -0.78502,-1.270181 -8.80981,-0.15956 -10.65835,1.47511 -0.86831,0.76784 -2.44331,1.40297 -3.5,1.41139 -1.44445,0.0115 -1.5879,0.2266 -0.57801,0.86665 1.52341,0.96552 9.11538,0.41673 13.75413,-0.99421 z M 173,104.66667 c 0,-2.07545 -1.18357,-2.75921 -2.65799,-1.53555 C 168.40363,104.73983 168.69266,106 171,106 c 1.1,0 2,-0.6 2,-1.33333 z m -1,-6.725687 C 172,97.423442 171.325,97 170.5,97 c -1.54641,0 -1.9867,1.179963 -0.86052,2.306147 C 170.43841,100.10508 172,99.201961 172,97.940983 Z M 88.416392,91.75 c 0.249973,-1.2375 0.70245,-4.275 1.005505,-6.75 0.303055,-2.475 0.850344,-5.572746 1.216198,-6.883881 0.498572,-1.786763 0.314104,-2.267337 -0.736453,-1.918604 -1.351509,0.448634 -2.411563,4.605165 -3.456338,13.552485 -0.516263,4.421215 1.142106,6.103908 1.971088,2 z M 109,91.559017 c 0,-1.59263 -1.81436,-3.077992 -2.69007,-2.202281 C 105.48729,90.179376 106.77145,93 107.96862,93 108.53588,93 109,92.351558 109,91.559017 Z M 96.881685,86.25 C 96.816612,84.7375 96.458369,82.15 96.085589,80.5 95.415448,77.533815 95.399884,77.547009 94.704794,81.670532 93.977499,85.985108 94.554275,89 96.106989,89 c 0.491156,0 0.839769,-1.2375 0.774696,-2.75 z M 195,87 c 0.9787,-1.828727 0.76049,-2 -2.54815,-2 -2.47259,0 -3.47337,0.395855 -3.16018,1.25 0.25208,0.6875 0.96458,1.1375 1.58333,1 0.61875,-0.1375 1.125,0.2 1.125,0.75 0,1.719522 1.87992,1.092881 3,-1 z m -91.4116,-6.744936 c -1.0924,-1.092399 -1.84148,0.644857 -1.05718,2.451808 0.74368,1.713366 0.79759,1.711803 1.21194,-0.03514 0.2385,-1.005548 0.16886,-2.093048 -0.15476,-2.416668 z M 188,78 c 0,-0.55 -0.19844,-1 -0.44098,-1 -0.24254,0 -0.7191,0.45 -1.05902,1 -0.33992,0.55 -0.14148,1 0.44098,1 C 187.52344,79 188,78.55 188,78 Z m -21,-3 c 0,-2.478586 0.74022,-2.842635 6.37275,-3.134197 2.60916,-0.135061 4.96923,-0.610119 5.2446,-1.055684 0.27538,-0.445566 2.38663,-0.838643 4.69167,-0.873505 3.53306,-0.05344 3.83636,-0.20588 1.93207,-0.971073 -2.28223,-0.917056 -5.22628,-0.765935 -15.24749,0.78267 C 164.93472,70.529974 158,73.589256 158,75.039242 c 0,0.768463 7.24141,2.710898 8.25,2.212981 C 166.6625,77.048581 167,76.035081 167,75 Z m 26,2 c 0,-0.55 -0.45,-1 -1,-1 -0.55,0 -1,0.45 -1,1 0,0.55 0.45,1 1,1 0.55,0 1,-0.45 1,-1 z M 119.35545,69.312103 C 120.25995,66.458759 121,63.399772 121,62.514354 c 0,-0.885419 1.16582,-2.690294 2.5907,-4.010834 2.62359,-2.43146 2.60123,-4.501491 -0.0444,-4.113191 -0.79518,0.116708 -2.40106,1.426628 -3.56861,2.910933 C 117.62088,60.297431 116,60.785911 116,58.5 c 0,-0.825 0.47656,-1.5 1.05902,-1.5 0.58246,0 0.76739,-0.471851 0.41097,-1.048558 -1.00069,-1.619153 -2.99039,0.524409 -3.23548,3.48567 C 114.11785,60.8467 114.46736,62 115.0112,62 c 1.48417,0 1.18956,3.588498 -0.40314,4.910314 -2.41925,2.007804 -2.60359,5.094156 -0.43385,7.263899 2.43774,2.437742 3.04907,1.864071 5.18124,-4.86211 z m 30.01107,3.432017 c -0.0881,-1.108655 0.52973,-1.605324 1.81833,-1.461685 1.4393,0.160436 2.29681,-0.767129 3.26565,-3.532435 1.67022,-4.767236 0.21062,-4.943767 -4.04605,-0.489352 -3.70856,3.880839 -5.1353,8.039823 -2.57606,7.509264 0.91939,-0.190598 1.61154,-1.102204 1.53813,-2.025792 z M 173.5,66 c 0.33992,-0.55 0.16803,-1 -0.38197,-1 -0.55,0 -1.27811,0.45 -1.61803,1 -0.33992,0.55 -0.16803,1 0.38197,1 0.55,0 1.27811,-0.45 1.61803,-1 z m 27.47637,-5.585031 c 1.37676,-1.410394 1.13804,-1.492134 -2.47637,-0.847954 -5.29973,0.944548 -8.5,2.179147 -8.5,3.279129 0,1.391714 9.24311,-0.655556 10.97637,-2.431175 z m -11.98124,-1.390797 c 1.28233,-0.810673 1.21117,-1.157747 -0.5,-2.438553 -1.78266,-1.334314 -2.12824,-1.318175 -3.24506,0.151544 -0.9999,1.315864 -0.9999,1.803651 0,2.438553 1.59187,1.010776 1.92801,0.997174 3.74506,-0.151544 z M 104,56.881966 c 0,-0.55 -0.45,-0.721885 -1,-0.381966 -0.55,0.339919 -1,1.068034 -1,1.618034 0,0.55 0.45,0.721885 1,0.381966 0.55,-0.339919 1,-1.068034 1,-1.618034 z m 51,-2 c 0,-0.55 -0.45,-0.721885 -1,-0.381966 -0.55,0.339919 -1,1.068034 -1,1.618034 0,0.55 0.45,0.721885 1,0.381966 0.55,-0.339919 1,-1.068034 1,-1.618034 z m -31.78194,-3.328631 c 0.70507,-1.345666 1.73194,-2.358166 2.28194,-2.25 0.55,0.108166 1.1438,-0.815835 1.31955,-2.053335 0.47138,-3.319074 -1.0397,-2.755282 -4.8784,1.820149 -1.87813,2.238581 -3.60821,4.263581 -3.84463,4.5 C 117.8601,53.806567 118.62729,54 119.8014,54 c 1.24866,0 2.66682,-1.015538 3.41666,-2.446665 z m 60.20015,1.839676 c 2.50931,-0.962913 1.8358,-2.164224 -0.91821,-1.637762 -1.375,0.262848 -2.5,0.875446 -2.5,1.361328 0,1.031822 1.19736,1.128654 3.41821,0.276434 z M 129.5,52 c 0.33992,-0.55 -0.0835,-1 -0.94098,-1 C 127.70156,51 127,51.45 127,52 c 0,0.55 0.42344,1 0.94098,1 0.51754,0 1.2191,-0.45 1.55902,-1 z m 2.94721,-4.08541 c -0.32197,-0.520968 -1.01165,-0.683779 -1.53262,-0.361804 -0.52097,0.321976 -0.68378,1.011657 -0.3618,1.532624 0.32197,0.520968 1.01165,0.683779 1.53262,0.361804 0.52097,-0.321976 0.68378,-1.011657 0.3618,-1.532624 z M 150,46 c 0,-0.55 -0.45,-1 -1,-1 -0.55,0 -1,0.45 -1,1 0,0.55 0.45,1 1,1 0.55,0 1,-0.45 1,-1 z m 329.5,473 c -0.33992,-0.55 0.11008,-1 1,-1 0.88992,0 1.33992,0.45 1,1 -0.33992,0.55 -0.78992,1 -1,1 -0.21008,0 -0.66008,-0.45 -1,-1 z m -53.98992,-5.01631 c 0.34546,-0.55897 1.04702,-0.75742 1.55902,-0.44098 1.38704,0.85723 1.12841,1.45729 -0.62812,1.45729 -0.85746,0 -1.27636,-0.45734 -0.9309,-1.01631 z M 187.72061,475.55116 c -1.63987,-1.21155 -1.64825,-1.36495 -0.10687,-1.95643 2.02056,-0.77536 2.67623,-0.25667 2.22466,1.75989 -0.28459,1.27088 -0.62133,1.30213 -2.11779,0.19654 z M 193,474.5 c 1.35856,-1.63697 4,-2.0378 4,-0.60699 0,0.92061 -2.36727,2.10699 -4.20423,2.10699 -0.63011,0 -0.54954,-0.59177 0.20423,-1.5 z M 178,473 c 0,-0.55 0.45,-1 1,-1 0.55,0 1,0.45 1,1 0,0.55 -0.45,1 -1,1 -0.55,0 -1,-0.45 -1,-1 z m -9.5,-2 c -1.78583,-0.7674 -1.71184,-0.86696 0.69098,-0.92971 1.48004,-0.0387 2.9691,0.37971 3.30902,0.92971 0.73784,1.19384 -1.22178,1.19384 -4,0 z m 380.08345,-11.64313 c -0.9187,-2.39409 -0.20261,-2.57794 1.21288,-0.31139 0.67134,1.07499 0.81495,1.95452 0.31913,1.95452 -0.49581,0 -1.18522,-0.73941 -1.53201,-1.64313 z M 613.5,393 c -0.33992,-0.55 0.0835,-1 0.94098,-1 0.85746,0 1.55902,0.45 1.55902,1 0,0.55 -0.42344,1 -0.94098,1 -0.51754,0 -1.2191,-0.45 -1.55902,-1 z M 215.57026,78.11369 c -0.59049,-0.955447 2.68436,-2.097682 5.92974,-2.068232 1.97335,0.01791 1.97413,0.03772 0.0589,1.486345 -2.16984,1.641188 -5.15468,1.931211 -5.98861,0.581887 z" id="path12" inkscape:connector-curvature="0"/>
</svg>
