<?xml version="1.0" encoding="utf-8"?>
<!-- Created with Inkscape (http://www.inkscape.org/) -->
<svg xmlns="http://www.w3.org/2000/svg" xmlns:cc="http://creativecommons.org/ns#" xmlns:dc="http://purl.org/dc/elements/1.1/" xmlns:inkscape="http://www.inkscape.org/namespaces/inkscape" xmlns:rdf="http://www.w3.org/1999/02/22-rdf-syntax-ns#" xmlns:sodipodi="http://sodipodi.sourceforge.net/DTD/sodipodi-0.dtd" xmlns:svg="http://www.w3.org/2000/svg" height="77.120003" id="svg2" version="1.1" viewBox="0 0 404.79999 77.120003" width="404.79999" sodipodi:docname="illustration-limerick-158b.svg" inkscape:version="0.92.4 (5da689c313, 2019-01-14)">
	<metadata id="metadata8">
		<rdf:RDF>
			<cc:Work rdf:about="">
				<dc:format>image/svg+xml</dc:format>
				<dc:type rdf:resource="http://purl.org/dc/dcmitype/StillImage"/>
				<dc:title/>
			</cc:Work>
		</rdf:RDF>
	</metadata>
	<defs id="defs6"/>
	<sodipodi:namedview bordercolor="#666666" borderopacity="1" gridtolerance="10" guidetolerance="10" id="namedview4" objecttolerance="10" pagecolor="#ffffff" showgrid="false" inkscape:current-layer="svg2" inkscape:cx="204.16768" inkscape:cy="38.560001" inkscape:pageopacity="0" inkscape:pageshadow="2" inkscape:window-height="1004" inkscape:window-maximized="1" inkscape:window-width="1920" inkscape:window-x="0" inkscape:window-y="0" inkscape:zoom="3.2001474"/>
	<path d="m 312.68676,69.722224 c -0.5736,-0.683223 -1.20083,-1.242221 -1.39385,-1.242221 -0.19301,0 -1.2542,-0.426768 -2.35818,-0.948378 -1.10398,-0.521606 -2.53204,-0.983718 -3.17346,-1.026915 -0.64142,-0.0432 -1.22815,-0.178743 -1.30384,-0.301213 -0.0757,-0.122467 -0.72719,-0.165882 -1.44777,-0.09647 -2.03312,0.195831 -8.22467,-1.922829 -10.84967,-3.712598 -1.72535,-1.176381 -10.64255,-1.698378 -13.92,-0.814855 -0.97393,0.262551 -2.51638,0.374029 -3.94194,0.284903 -1.48321,-0.09273 -2.50204,-0.01354 -2.77858,0.215965 -0.32943,0.273395 -0.61871,0.247334 -1.17806,-0.106132 -0.65833,-0.416006 -1.8935,-0.593459 -7.30142,-1.048966 -2.51173,-0.211562 -4.30858,-0.522813 -4.6741,-0.809645 -0.19475,-0.152832 -0.98675,-0.411894 -1.76,-0.575693 -0.77324,-0.163801 -2.25064,-0.593462 -3.28311,-0.9548 -1.03246,-0.361337 -1.98488,-0.590432 -2.11648,-0.509101 -0.21584,0.133402 -2.16726,-0.651465 -3.60594,-1.45032 -0.49795,-0.276496 -10.64267,-0.457027 -40.37384,-0.718476 -5.26068,-0.04626 -7.69038,-0.17816 -7.77153,-0.421888 -0.19103,-0.573796 2.73637,-0.76209 11.78592,-0.758087 11.88092,0.0052 30.33621,0.277827 31.47908,0.464931 0.528,0.08644 1.15338,0.03478 1.38972,-0.1148 0.31194,-0.197424 -0.42591,-0.942355 -2.69214,-2.717958 -1.71703,-1.345296 -3.34141,-2.768535 -3.60973,-3.162749 -0.26833,-0.394215 -0.96486,-1.282672 -1.54786,-1.974352 -0.58299,-0.69168 -1.05999,-1.444359 -1.05999,-1.672624 0,-0.228263 -0.33756,-0.636202 -0.75013,-0.906531 -0.65274,-0.42769 -1.51611,-0.449741 -6.6494,-0.169815 -3.2446,0.176935 -7.76704,0.32193 -10.04987,0.322215 -2.28283,2.84e-4 -6.8866,0.07805 -10.2306,0.172816 -12.73649,0.360931 -17.55745,0.342134 -16.58352,-0.06466 0.58798,-0.245587 3.13868,-0.3816 7.30353,-0.389453 3.52,-0.0066 7.98399,-0.09529 9.91999,-0.197008 3.7019,-0.194499 6.81707,-0.305289 18.08,-0.643027 3.784,-0.113469 7.05519,-0.26024 7.2693,-0.326157 0.47394,-0.14591 0.24718,-4.919562 -0.25769,-5.424749 -0.19121,-0.191337 -3.09366,-0.361341 -7.1074,-0.416301 -5.31427,-0.07277 -6.88225,-0.190627 -7.23672,-0.543939 -0.34669,-0.345574 -0.36605,-0.555216 -0.0828,-0.896547 0.20335,-0.245027 0.28037,-0.534864 0.17116,-0.64408 -0.10922,-0.109216 0.18921,-0.375264 0.66318,-0.591219 0.62628,-0.285351 1.19218,-0.304448 2.07096,-0.06989 0.66507,0.177517 3.683,0.350006 6.70651,0.383309 5.43628,0.05988 5.50043,0.05253 5.77938,-0.662093 0.15515,-0.397456 0.80004,-1.218896 1.43309,-1.825421 0.63305,-0.606525 1.151,-1.273729 1.151,-1.482677 0,-0.845953 -1.74131,-0.764116 -4,0.187989 -0.79855,0.336617 -7.00137,0.729421 -7.27038,0.460409 -0.10868,-0.108676 -2.8373,-0.162311 -6.06361,-0.119187 -3.2263,0.04312 -6.22601,0.08326 -6.66601,0.0892 -1.19503,0.01612 -10.70992,-0.434598 -13.27999,-0.629072 -3.41697,-0.258555 -3.17476,-0.695279 0.3717,-0.670209 1.73157,0.01224 3.86829,-0.166703 4.74829,-0.397652 1.78001,-0.467148 11.32446,-0.716468 11.84988,-0.309541 0.28011,0.216944 1.23708,0.287663 3.99012,0.294867 0.264,7.04e-4 3.80576,0.03667 7.87057,0.07995 5.64932,0.06016 7.50753,-0.01832 7.88697,-0.333069 0.52677,-0.436967 0.41625,-1.514948 -0.19616,-1.913221 -0.19876,-0.129257 -2.23338,-0.237015 -4.52138,-0.239461 -3.79044,-0.0041 -4.30213,-0.07543 -5.76,-0.803438 -1.89652,-0.947063 -2.24503,-1.899551 -0.99479,-2.718745 0.81632,-0.534871 2.24249,-0.529575 6.83479,0.02538 0.924,0.111661 1.69424,0.08112 1.71163,-0.06787 0.0174,-0.148986 0.067,-0.846884 0.11022,-1.550884 0.1652,-2.690282 0.72302,-3.850048 2.5005,-5.198722 1.58092,-1.199538 3.53335,-2.118918 3.84275,-1.809515 0.23183,0.231826 4.48426,-0.759162 5.54676,-1.292619 1.09834,-0.551449 2.89537,-0.716806 10.68814,-0.983493 10.42771,-0.35686 12.01165,-0.43881 12.5618,-0.649921 0.30775,-0.118094 0.5582,-0.06667 0.5582,0.114608 0,0.52601 -1.32363,0.654173 -8.96,0.867567 -6.52732,0.182403 -9.55852,0.345662 -11.84,0.637698 -0.44,0.05632 -0.9368,0.114102 -1.104,0.1284 -0.55218,0.04722 0.36578,0.710872 1.14376,0.826899 2.88892,0.430844 5.73639,2.57093 6.35354,4.775145 0.43693,1.560587 0.2825,3.466063 -0.34189,4.218413 -0.20877,0.251544 -0.83483,0.673385 -1.39126,0.937426 -0.7904,0.375071 -1.14127,0.861331 -1.60417,2.22316 -0.82425,2.424914 -0.49475,2.777412 2.51412,2.689555 1.24641,-0.03639 3.05903,-0.262227 4.02805,-0.50185 2.0447,-0.505624 5.06766,-1.354201 5.76185,-1.617416 0.59739,-0.226509 1.25151,-0.394293 2.08,-0.533526 0.352,-0.05915 1.864,-0.399467 3.36,-0.756249 4.82066,-1.149678 7.57372,-1.445663 13.6,-1.46215 5.30483,-0.01451 5.82488,0.04075 9.20768,0.978452 1.8971,0.525869 3.19438,0.713869 4,0.579675 0.65578,-0.109234 1.60909,-0.264122 2.11848,-0.344196 0.50939,-0.08007 1.11955,-0.306094 1.35593,-0.502265 0.24229,-0.201088 0.67582,-0.249812 0.99384,-0.111695 0.31024,0.134739 0.8499,0.208067 1.19924,0.162951 1.22099,-0.157685 4.6863,-3.75516 4.01616,-4.16933 -0.42811,-0.264586 -3.66471,-0.138244 -6.80957,0.265815 -1.45297,0.18668 -4.22576,0.416869 -6.16176,0.511531 -1.936,0.09466 -4.672,0.312895 -6.08,0.48496 -1.408,0.172066 -3.208,0.334812 -4,0.361658 -0.792,0.02685 -3.384,0.24649 -5.76,0.488097 -7.21221,0.733384 -9.00446,0.953818 -11.52,1.416875 -0.968,0.178189 -3.11689,0.458408 -4.77532,0.62271 -1.65843,0.164302 -3.67443,0.375578 -4.48,0.469502 l -1.46468,0.17077 0.96,-0.465026 c 0.528,-0.255765 1.608,-0.47254 2.4,-0.481723 0.792,-0.0092 2.808,-0.241572 4.48,-0.516421 1.672,-0.274849 3.54007,-0.558278 4.15125,-0.629842 0.61119,-0.07156 1.83519,-0.270591 2.72,-0.442283 0.88482,-0.171692 3.1853,-0.472392 5.1122,-0.668222 1.9269,-0.19583 3.59837,-0.41472 3.71438,-0.486422 0.11602,-0.0717 1.49147,-0.147455 3.05656,-0.168339 1.56509,-0.02088 3.92561,-0.180714 5.24561,-0.355177 1.32,-0.174464 3.696,-0.38253 5.28,-0.462369 7.62841,-0.384499 10.40433,-0.722033 10.62292,-1.29168 0.20853,-0.543413 1.91755,-0.569004 2.09805,-0.03141 0.19722,0.587381 1.77076,-0.317436 2.03686,-1.171236 0.42237,-1.355191 1.56491,-1.50849 2.89762,-0.388785 1.48915,1.25114 3.87933,1.358063 22.34455,0.999563 12.85805,-0.249638 13.29645,-0.249756 13.54256,-0.0036 0.0961,0.09612 -0.003,0.352371 -0.22006,0.569438 -0.30243,0.302328 -4.16666,0.395644 -16.51616,0.398843 -8.86675,0.0023 -16.21001,0.09283 -16.31836,0.201184 -0.10836,0.108354 0.30241,1.403487 0.91282,2.878074 1.04811,2.531968 1.47064,4.648902 1.58808,7.956566 l 0.0511,1.44 3.2,0.01069 c 1.76,0.0059 3.34544,-0.09106 3.52317,-0.215424 0.5143,-0.35984 6.47408,-0.641801 13.75683,-0.650845 3.696,-0.0046 6.864,0.03069 7.04,0.07841 0.176,0.04772 0.968,-0.01274 1.76,-0.134339 1.38445,-0.21257 7.88928,-0.694234 13.92,-1.030734 1.584,-0.08838 3.456,-0.224852 4.16,-0.303262 0.704,-0.07841 2.432,-0.221194 3.84,-0.317297 1.408,-0.0961 4.144,-0.340345 6.08,-0.54276 1.936,-0.202416 4.528,-0.327045 5.76,-0.276954 2.20317,0.08958 4.45178,0.159483 9.04,0.281044 1.8255,0.04837 2.32,0.16416 2.32,0.543251 0,0.409288 -0.66208,0.470602 -4.4,0.407473 -2.42,-0.04087 -4.56678,0.03066 -4.77066,0.158972 -0.20387,0.128306 -4.19203,0.291588 -8.86256,0.362848 -4.67052,0.07126 -8.67363,0.241902 -8.89577,0.379205 -0.58877,0.363872 -1.4856,0.438515 -6.99101,0.581859 -2.728,0.07103 -4.96,0.161062 -4.96,0.200077 0,0.03901 -0.72,0.105328 -1.6,0.147366 -0.88,0.04203 -2.896,0.179677 -4.48,0.305866 -5.77805,0.460313 -14.25504,0.71976 -21.70211,0.664214 l -7.62209,-0.05685 -0.39922,0.978394 c -0.21958,0.538118 -0.34163,1.279709 -0.27123,1.647981 l 0.128,0.669584 19.25334,-0.113888 c 10.58931,-0.06264 22.20531,-0.117623 25.81331,-0.122186 10.10653,-0.0128 24.12528,0.391478 24.464,0.705478 0.75277,0.697844 -0.74058,0.788106 -7.184,0.434234 -3.90467,-0.214445 -12.62304,-0.335344 -20.16,-0.279565 -19.86025,0.146986 -25.60006,0.146771 -34.488,-0.0013 l -8.08798,-0.134736 -0.64411,1.262564 c -0.35426,0.694409 -0.5472,1.419366 -0.42876,1.611014 0.14896,0.241018 1.31199,0.274947 3.77211,0.110042 8.81716,-0.591028 34.10685,-0.61281 45.63674,-0.03931 2.024,0.100675 4.75779,0.222605 6.07507,0.270953 2.03059,0.07453 2.41239,0.177482 2.50896,0.676496 0.10371,0.535834 -0.0823,0.575943 -2.07507,0.447498 -2.13117,-0.137363 -5.97027,-0.338608 -15.46896,-0.81087 -2.552,-0.12688 -7.952,-0.200042 -12,-0.162576 -9.30633,0.08613 -13.64768,0.08733 -17.28,0.0048 -4.22328,-0.09597 -11.43065,0.392841 -11.93242,0.809273 -0.76877,0.638023 -1.69781,2.746842 -1.3145,2.983744 0.19158,0.1184 1.16251,0.124384 2.15762,0.01328 4.25479,-0.474985 38.00709,-0.877414 43.08793,-0.513737 1.83564,0.131392 2.25516,0.264384 2.3464,0.74383 0.10361,0.544659 -0.13751,0.573866 -3.59408,0.435261 -2.12426,-0.08518 -3.63005,-0.02707 -3.52916,0.136166 0.0968,0.156608 0.59949,0.284743 1.11709,0.284743 0.55258,0 0.94112,0.169536 0.94112,0.410656 0,0.330099 -3.82864,0.403849 -19.51737,0.375949 -10.73456,-0.0191 -19.61458,-0.131888 -19.73335,-0.25066 -0.11877,-0.118768 0.34806,-0.230291 1.03739,-0.24782 0.68933,-0.01754 2.76533,-0.09463 4.61333,-0.171332 1.848,-0.0767 4.68007,-0.170355 6.29347,-0.208124 3.02148,-0.07073 4.51501,-0.513847 1.99988,-0.593338 -4.80973,-0.152013 -15.41361,0.170627 -17.31187,0.526746 -1.08892,0.204281 -1.7399,0.664886 -5.90742,4.179827 -0.72927,0.615075 -1.91347,1.543914 -2.63154,2.064086 -0.86163,0.624157 -1.24242,1.110391 -1.11982,1.429888 0.12057,0.314208 -0.004,0.484122 -0.35382,0.484122 -0.68311,0 -5.92888,2.314887 -5.92888,2.616333 0,0.425168 3.05035,0.730685 7.36,0.737168 l 4.32,0.0065 2.4181,-1.2 c 1.32995,-0.66 2.58013,-1.2 2.77817,-1.2 0.76128,0 4.34398,-2.107735 4.48744,-2.64 0.0872,-0.323466 0.45618,-0.56 0.87361,-0.56 0.39748,0 1.18727,-0.09292 1.7551,-0.206483 0.89118,-0.178237 1.01665,-0.124618 0.91716,0.391961 -0.0634,0.329146 -0.40197,0.748189 -0.75241,0.931207 -0.35044,0.183017 -1.37826,0.873433 -2.28404,1.534253 -2.42677,1.770483 -2.51918,2.999488 -0.35361,4.702928 1.25284,0.985481 3.47231,1.911177 4.60131,1.919107 1.21725,0.0085 1.79997,0.637898 1.66231,1.795402 -0.16544,1.391046 -1.01872,1.696963 -2.44829,0.87776 -1.47603,-0.84584 -2.46715,-1.025143 -6.73077,-1.217664 -1.82375,-0.08235 -3.47975,-0.279088 -3.68,-0.437194 -0.20024,-0.158106 -1.15608,-0.47303 -2.12408,-0.699837 -0.968,-0.226806 -2.24356,-0.614099 -2.83459,-0.860653 -0.59102,-0.246553 -1.15703,-0.365827 -1.25781,-0.265052 -0.10077,0.100774 -0.55702,-0.174893 -1.01388,-0.612592 -0.58239,-0.557968 -1.30632,-0.842049 -2.42218,-0.950497 -0.87535,-0.08507 -3.31954,-0.316848 -5.43154,-0.515059 l -3.84,-0.360384 -1.52,0.853757 c -0.836,0.469568 -1.52,0.98545 -1.52,1.1464 0,0.160954 0.54,0.296163 1.2,0.300467 0.66,0.0043 1.848,0.161428 2.64,0.349168 0.792,0.187741 2.16,0.465735 3.04,0.617767 0.88,0.152032 2.44572,0.43168 3.47937,0.621443 1.03365,0.189763 3.40965,0.393491 5.28,0.45273 5.2466,0.166169 7.72063,0.746736 7.72063,1.811747 0,0.320666 -0.30044,0.793466 -0.66764,1.050662 -0.64976,0.455111 -0.62177,0.501517 1.04487,1.732736 0.94188,0.695805 2.04256,1.36986 2.44597,1.497895 0.58351,0.1852 1.62921,1.75687 1.26576,1.90241 -0.0489,0.01958 -0.38378,0.198617 -0.74412,0.39784 -0.57116,0.315776 -0.78888,0.202947 -1.69807,-0.88 z m -5.16677,-4.087985 c 0,-0.3191 -0.77226,-0.674236 -1.46617,-0.674236 -0.6447,0 -0.56367,0.564368 0.10617,0.739414 0.95887,0.250579 1.36,0.231354 1.36,-0.06518 z m -3.04,-0.354236 c 0.10878,-0.176 -0.0352,-0.32 -0.32,-0.32 -0.28477,0 -0.42877,0.144 -0.32,0.32 0.10878,0.176 0.25278,0.32 0.32,0.32 0.0672,0 0.21123,-0.144 0.32,-0.32 z m -5.1767,-1.407613 c 0.12284,-0.320135 -0.1636,-0.489472 -1.00577,-0.594586 -1.50943,-0.188397 -1.6069,-0.0832 -0.48582,0.524342 1.13788,0.616657 1.27935,0.623316 1.49159,0.07024 z m 9.1767,0.1239 c 0,-0.562755 -2.37377,-0.939024 -5.09581,-0.807744 -3.23078,0.155818 -3.90101,0.346775 -2.21689,0.63162 2.08473,0.352598 7.3127,0.478512 7.3127,0.176124 z m -32.16,-3.676528 c 0.528,-0.03578 1.536,-0.217865 2.24,-0.404643 0.704,-0.186777 2.072,-0.514672 3.04,-0.728653 0.968,-0.213977 3.02273,-1.040342 4.56606,-1.836365 2.46724,-1.272556 2.90373,-1.402806 3.61505,-1.078707 1.22888,0.559914 1.90213,0.456954 4.02749,-0.615923 1.24122,-0.626563 1.83904,-1.095827 1.64423,-1.290637 -0.37042,-0.370422 -13.87484,-0.436202 -24.41283,-0.118915 -4.136,0.124531 -9.104,0.268445 -11.04,0.319805 -1.936,0.05136 -3.7,0.107088 -3.92,0.123833 -0.22,0.01675 -0.4,0.318445 -0.4,0.670445 0,0.352 -0.144,0.64 -0.32,0.64 -0.176,0 -0.31887,0.108 -0.3175,0.24 0.003,0.322304 1.58397,1.04 2.29044,1.04 0.31095,0 1.03823,0.198493 1.61621,0.441095 2.67415,1.122467 5.14131,1.711145 7.6525,1.825929 0.94509,0.0432 2.02917,0.190218 2.40906,0.326704 0.37989,0.13649 1.67589,0.342468 2.88,0.457732 1.20411,0.115264 2.25377,0.272316 2.33258,0.349008 0.0788,0.07669 0.36681,0.04154 0.64,-0.07811 0.27319,-0.119652 0.92871,-0.24682 1.45671,-0.282596 z m 37.52979,-0.07976 c -1.1202,-2.176185 -1.22011,-2.651821 -0.7486,-3.563625 0.26031,-0.50338 0.39619,-0.99233 0.30196,-1.086557 -0.38855,-0.388551 -4.13428,1.210976 -5.35674,2.287465 -0.32648,0.287495 -0.65048,0.486717 -0.72,0.442717 -0.34753,-0.219949 -1.40641,-0.03925 -1.40641,0.24 0,0.176 0.3312,0.32 0.736,0.32 0.4048,0 0.8728,0.120816 1.04,0.26848 0.1672,0.147668 1.168,0.451876 2.224,0.67602 1.056,0.224147 2.064,0.451961 2.24,0.506256 0.6566,0.20256 1.80892,0.140668 1.68979,-0.09076 z m -58.39966,-5.830086 c 0.11041,-0.422227 0.62248,-0.625223 2.0165,-0.799396 3.72885,-0.465888 38.77632,-0.908041 39.33337,-0.496224 0.52179,0.385748 2.13871,-0.480864 3.6991,-1.982582 0.8025,-0.77233 1.95696,-1.71193 2.56546,-2.088003 1.58466,-0.97937 2.65006,-2.203463 2.426,-2.787341 -0.13403,-0.349283 0.13193,-0.63088 0.89826,-0.951075 1.11954,-0.467773 2.26698,-2.14562 1.97956,-2.894621 -0.0963,-0.250832 -0.48022,-0.349956 -0.98316,-0.253815 -0.48844,0.09337 -0.82522,0.01194 -0.82522,-0.199552 0,-0.196518 0.108,-0.367225 0.24,-0.379353 0.95912,-0.08811 2.15471,-0.288845 2.49256,-0.418493 0.437,-0.167693 1.27631,-2.377264 1.00576,-2.647805 -0.091,-0.09101 -0.75038,-0.24392 -1.46528,-0.339808 -1.68597,-0.226135 -1.36828,-0.731847 0.45975,-0.731847 1.28358,0 1.43293,-0.08174 1.60784,-0.88 0.10606,-0.484 0.23287,-1.024 0.28182,-1.2 0.0489,-0.176 -0.004,-0.581404 -0.11825,-0.900902 -0.17315,-0.48536 -0.63017,-0.594874 -2.77867,-0.665859 -1.4143,-0.04673 -2.7686,-0.206807 -3.00956,-0.355731 -0.24097,-0.148929 -1.09464,-0.237226 -1.89705,-0.196218 -0.99342,0.05077 -1.35508,-0.02989 -1.13349,-0.252791 0.46954,-0.472316 4.09057,-0.540508 4.2441,-0.07993 0.078,0.233926 0.93901,0.371427 2.32588,0.371427 2.78717,0 2.99617,-0.302147 2.7996,-4.047339 -0.10903,-2.077294 -0.2816,-2.829124 -0.77834,-3.390874 -0.35103,-0.396983 -0.90824,-1.369787 -1.23822,-2.161787 -1.19284,-2.862914 -1.45829,-2.862914 -3.57824,0 -1.88207,2.541677 -2.99119,3.125266 -6.70731,3.529215 -1.55809,0.169368 -3.44485,0.384618 -4.19279,0.478335 -0.77862,0.09756 -2.07802,-0.03488 -3.04,-0.309854 -4.61239,-1.318419 -11.21367,-1.414454 -20.84059,-0.30319 -1.65264,0.190769 -5.31952,1.38917 -5.31952,1.738514 0,0.152635 1.692,0.266903 3.76,0.253928 4.79763,-0.0301 12.02308,0.258306 13.68,0.546044 0.704,0.122255 1.568,0.21057 1.92,0.196255 0.352,-0.01432 1.20399,0.124758 1.89331,0.309052 0.68933,0.184294 1.96807,0.400032 2.84165,0.479419 0.87358,0.07939 1.84812,0.283376 2.16565,0.45331 0.31752,0.169935 1.19878,0.311177 1.95836,0.313872 1.43209,0.0051 2.49445,0.428348 2.09007,0.832729 -0.12783,0.127834 -1.77966,0.05855 -3.67073,-0.153958 -1.89107,-0.212512 -5.13686,-0.452375 -7.21287,-0.533029 -4.2272,-0.16423 -5.6154,-0.35075 -6.19585,-0.83248 -0.47268,-0.392292 -5.00512,-0.627081 -12.33818,-0.639141 -5.61339,-0.0092 -6.9092,0.231683 -10.65141,1.980298 -0.704,0.328956 -2.09927,0.693984 -3.10059,0.811171 -1.59902,0.187133 -1.99159,0.112861 -3.22551,-0.610269 -0.77271,-0.452834 -1.5641,-1.015133 -1.75865,-1.249555 -0.2627,-0.316532 -1.44601,-0.42422 -4.59802,-0.418443 l -4.24429,0.0078 -0.39673,2.08 c -0.21821,1.144 -0.40562,2.165776 -0.41647,2.270617 -0.0108,0.104839 1.74426,0.288672 3.90026,0.408519 2.156,0.119846 4.568,0.359648 5.36,0.532896 0.792,0.173245 2.304,0.38719 3.36,0.475433 1.056,0.08824 2.424,0.260612 3.04,0.383037 0.616,0.122426 1.75503,0.228647 2.53117,0.236045 0.84141,0.008 1.46648,0.1768 1.54819,0.418035 0.10672,0.315091 -0.4865,0.362698 -2.68181,0.215223 -1.55037,-0.104151 -2.90394,-0.241956 -3.00795,-0.306237 -0.10401,-0.06428 -1.69221,-0.204816 -3.52935,-0.312301 -1.83714,-0.107488 -3.77225,-0.271808 -4.30025,-0.365155 -2.35777,-0.416839 -4,-0.483143 -4,-0.161498 0,0.185011 0.51476,0.432954 1.14391,0.550983 0.7626,0.143065 1.03723,0.321264 0.8239,0.534598 -0.19578,0.195779 -0.79511,0.219462 -1.5439,0.06101 -0.67315,-0.142441 -1.65591,-0.268486 -2.18391,-0.280096 l -0.96,-0.02112 0.053,1.9637 c 0.0538,1.991657 0.73989,3.850867 1.53352,4.155411 0.23818,0.0914 0.84265,0.19744 1.34326,0.235638 1.37471,0.104903 1.39652,0.671485 0.0302,0.78457 -1.39786,0.11569 -1.49131,0.490368 -0.52906,2.121258 0.83017,1.40704 1.88724,1.733664 5.08906,1.572473 3.43445,-0.172902 3.9768,-0.241561 4.1896,-0.530381 0.10428,-0.141532 1.86759,-0.262176 3.91848,-0.268102 2.05089,-0.0059 3.81007,-0.142125 3.90929,-0.302669 0.0992,-0.160544 -0.008,-0.308509 -0.23848,-0.328809 -1.41419,-0.124618 -2.49272,-0.552813 -3.73171,-1.481549 -1.31989,-0.989376 -1.94114,-2.373658 -1.66694,-3.71432 0.24958,-1.220317 1.18523,-1.411936 1.05077,-0.215194 -0.0933,0.830685 0.49105,2.567975 0.86381,2.567975 0.45229,0 0.98518,-0.795005 0.98518,-1.469764 0,-0.602262 0.57026,-1.124393 1.3353,-1.222598 0.40041,-0.05139 2.82469,-2.850984 2.82469,-3.261986 0,-0.627146 0.56923,-0.83528 0.86058,-0.314669 0.15068,0.269248 0.86383,0.507427 1.69691,0.56673 1.06429,0.07577 1.46454,0.247539 1.54322,0.662298 0.0793,0.418329 -0.10673,0.56 -0.73554,0.56 -1.32629,0 -3.62838,0.665996 -4.04743,1.170921 -0.29899,0.360269 -0.26919,0.695575 0.13768,1.548784 0.64691,1.356589 1.42946,1.875191 4.3058,2.853498 1.93851,0.659331 2.69,0.750493 5.09629,0.618224 3.68415,-0.202512 9.89219,-1.636858 15.30249,-3.535587 1.232,-0.432365 2.672,-0.898503 3.2,-1.03586 0.528,-0.137356 1.5,-0.478694 2.16,-0.758531 0.66,-0.279837 1.2,-0.439075 1.2,-0.353862 0,0.08521 0.252,0.02029 0.56,-0.144272 0.308,-0.164563 1.08035,-0.381725 1.71634,-0.482579 0.63598,-0.100855 1.54536,-0.33128 2.02083,-0.512055 0.47547,-0.180774 1.25916,-0.328682 1.74153,-0.328682 1.26868,0 4.93034,-1.268662 5.41232,-1.875219 0.56655,-0.712969 -0.35506,-1.390525 -1.50276,-1.104813 -0.7439,0.185191 -0.78352,0.151895 -0.38908,-0.326889 0.50898,-0.617792 2.29491,-0.710989 2.85682,-0.149079 0.56527,0.565264 0.46712,2.001594 -0.17658,2.584132 -0.96135,0.870003 -3.81345,1.790912 -5.99942,1.937136 -0.528,0.03532 -1.104,0.151168 -1.28,0.257446 -0.176,0.106275 -0.896,0.29609 -1.6,0.421805 -0.704,0.125718 -3.584,1.016054 -6.4,1.978522 -5.77003,1.972118 -11.82894,3.770857 -14.95326,4.439257 -0.3043,0.0651 -0.8083,0.266832 -1.12,0.448301 -0.72731,0.423424 -1.26709,0.392355 8.68848,0.500093 7.21905,0.07812 8.34451,0.157197 8.67527,0.609539 0.20904,0.285872 0.54419,0.51977 0.74479,0.51977 0.2006,0 0.36472,0.201673 0.36472,0.44816 0,0.339094 -0.72036,0.49145 -2.96,0.626035 -3.70635,0.222727 -3.05332,0.218723 -6.8,0.0417 -3.92084,-0.185245 -19.76049,-0.490916 -22.4,-0.432269 -1.85812,0.04129 -3.69594,0.02566 -10.65297,-0.09063 -1.84199,-0.03078 -3.43359,0.08557 -3.6121,0.264077 -0.40285,0.402854 2.31889,2.982928 3.14672,2.982928 0.31677,0 0.87619,0.210298 1.24315,0.467325 0.97956,0.686112 3.9329,1.799107 5.20669,1.962192 0.60849,0.07791 1.15101,0.186317 1.20561,0.240912 0.32353,0.323533 1.98725,-0.25952 2.11303,-0.740515 z m 88.46987,-8.698154 c 0.396,-0.01072 0.71997,-0.112231 0.71991,-0.225613 -4e-5,-0.113379 -2.80804,-0.227254 -6.24,-0.253053 -3.43194,-0.02579 -6.23991,0.05277 -6.23991,0.174599 0,0.121824 0.53456,0.2575 1.18794,0.301504 0.65334,0.044 1.21731,0.10943 1.25321,0.145401 0.0521,0.05217 4.79284,-0.02048 9.31885,-0.142838 z M 238.72953,45.137823 c -0.18314,-0.342199 -0.4762,-0.710695 -0.65126,-0.818884 -0.45077,-0.278595 -0.39646,0.594874 0.0657,1.057063 0.59744,0.597433 0.95493,0.452019 0.58554,-0.238179 z m 93.02381,0.428844 c -0.10634,-0.106332 -0.38234,-0.117699 -0.61335,-0.02525 -0.25526,0.102151 -0.17945,0.177978 0.19335,0.193332 0.33731,0.01389 0.52633,-0.06174 0.42,-0.168071 z m 18.27481,0.03482 c -0.0872,-0.08718 -1.1912,-0.249916 -2.45334,-0.361625 -1.61248,-0.142717 -2.29482,-0.09558 -2.29482,0.158518 0,0.237389 0.84285,0.361626 2.45335,0.361626 1.34931,0 2.38198,-0.07133 2.29481,-0.158519 z M 223.99999,36.160001 c 0,-0.176 -0.252,-0.32992 -0.56,-0.342048 -0.308,-0.01213 -0.98128,-0.077 -1.49618,-0.14416 -1.05309,-0.13736 -1.56464,0.06419 -1.29015,0.50832 0.24864,0.402314 3.34633,0.381844 3.34633,-0.02211 z m 22.80398,-6.426319 c 1.30907,-0.08446 2.01215,-0.653139 1.72681,-1.396718 -0.10225,-0.266452 0.56938,-1.604902 1.54571,-3.080369 1.34938,-2.039229 1.7739,-2.988411 1.94343,-4.345243 0.26777,-2.143142 -0.11455,-2.654912 -3.00543,-4.023124 -1.88115,-0.89032 -2.20043,-0.944272 -4.48,-0.757035 -5.81298,0.477459 -6.05376,0.527931 -7.20342,1.509942 -1.39039,1.187639 -1.71232,2.051785 -1.94627,5.224317 -0.10324,1.399999 -0.33106,2.688799 -0.50626,2.864001 -0.4164,0.416406 -0.41219,0.926192 0.006,0.668029 0.17824,-0.110159 0.77636,0.02534 1.32916,0.301115 0.55279,0.275772 1.20252,0.501404 1.44384,0.501404 0.24131,0 0.56266,0.324 0.71411,0.72 0.72132,1.886107 2.24177,2.213119 8.43278,1.813681 z m -7.1319,-4.954513 c -0.17164,-0.451457 -0.31208,-1.052119 -0.31208,-1.334803 0,-0.282684 -0.24149,-0.78082 -0.53665,-1.106969 -0.50373,-0.556609 -0.49715,-0.646521 0.1072,-1.465197 0.74095,-1.003709 3.40625,-2.459068 5.07775,-2.772644 1.00557,-0.188645 1.25563,-0.09317 2.08708,0.796902 1.39937,1.498034 1.37116,2.585567 -0.11999,4.626147 -1.15863,1.585538 -2.20775,2.077396 -4.43106,2.077396 -1.38029,0 -1.59615,-0.09463 -1.87225,-0.820832 z m 4.52844,-1.266837 c 0.85222,-0.550138 1.20226,-1.031155 1.3177,-1.810739 0.19324,-1.305012 0.0973,-1.55351 -0.8738,-2.262941 -1.08252,-0.790849 -2.2759,-0.224031 -2.54467,1.208643 -0.11529,0.614551 -0.52545,1.26561 -0.98841,1.568954 -0.84462,0.553421 -1.08752,1.928377 -0.39134,2.215237 0.68378,0.281748 2.26848,-0.136749 3.48052,-0.919154 z m -10.45292,2.747732 c 0.0993,-0.160742 -0.64406,-0.532001 -1.65201,-0.82502 -1.42461,-0.414147 -2.29829,-0.472903 -3.92411,-0.263903 -2.21714,0.285015 -2.72432,0.775796 -1.13148,1.094893 1.56924,0.314367 6.51234,0.309967 6.7076,-0.006 z M 80.401041,66.396182 c -0.214064,-0.382509 -1.172249,-0.513495 -4.5759,-0.625533 -4.557588,-0.150022 -6.292378,-0.311824 -8.625143,-0.804464 -0.792,-0.167258 -2.592,-0.464973 -4,-0.66159 -2.890527,-0.403642 -7.398457,-1.452775 -8.235657,-1.916689 -0.305613,-0.169347 -0.823293,-0.307904 -1.150403,-0.307904 -0.327111,0 -0.856183,-0.288883 -1.175715,-0.641961 -0.319533,-0.353079 -0.639664,-0.583267 -0.711402,-0.511527 -0.298323,0.298324 -8.272499,-3.271174 -13.576195,-6.077142 -1.162573,-0.615069 -1.488483,-0.57273 -2.699072,0.35063 -0.57687,0.44 -1.27446,0.8 -1.550204,0.8 -0.275744,0 -0.512368,0.252 -0.525834,0.56 -0.01347,0.308 -0.09051,0.848 -0.171206,1.2 -0.0807,0.352 -0.155844,1.864 -0.166989,3.36 -0.01114,1.496 -0.178557,2.913037 -0.372019,3.148967 -0.272202,0.331958 -0.988772,0.37855 -3.168526,0.206029 -2.816741,-0.222938 -8.775167,0.07328 -8.429389,0.419059 0.181582,0.181581 -1.554395,1.025946 -2.109304,1.025946 -0.158641,0 -0.529339,-0.505175 -0.823774,-1.122612 l -0.535336,-1.122611 1.679965,-1.645046 c 0.923981,-0.904778 2.096137,-2.469482 2.604792,-3.477121 1.055041,-2.090025 1.616918,-2.453785 2.419819,-1.566588 0.438573,0.484617 0.818121,0.580185 1.710066,0.430592 2.546916,-0.427165 7.720019,-2.647607 9.279207,-3.9829 l 0.772822,-0.661846 -1.408227,-1.434877 c -1.53432,-1.56336 -2.246816,-1.691258 -2.536413,-0.455312 -0.120762,0.515392 -0.524508,0.911728 -1.139227,1.11832 -0.523696,0.176 -1.411715,0.649446 -1.973376,1.052106 -0.56166,0.402659 -1.998697,1.086659 -3.193415,1.52 -3.302767,1.197961 -8.814342,1.059561 -10.894986,-0.273581 -0.747891,-0.479203 -0.423425,-2.92881 0.94986,-7.171127 1.628423,-5.030486 1.793841,-5.124803 4.502804,-2.567398 3.054977,2.884061 8.344295,5.094704 10.867335,4.541942 0.484,-0.106035 0.88,-0.259088 0.88,-0.340115 0,-0.273322 -1.281781,-2.66241 -2.233959,-4.16384 -0.519986,-0.81993 -1.177362,-2.189072 -1.460836,-3.042531 -0.283475,-0.853463 -0.756113,-1.693949 -1.050306,-1.867748 -0.411841,-0.243302 -0.44201,-0.37744 -0.13114,-0.583062 0.263559,-0.17433 0.333006,-0.620823 0.2,-1.285856 -0.199148,-0.995735 -0.243286,-1.018791 -1.950425,-1.018791 -1.256154,0 -1.708674,-0.112332 -1.611379,-0.4 0.08086,-0.239091 0.70305,-0.4 1.546666,-0.4 h 1.411379 l 0.100759,-1.408284 c 0.06483,-0.906103 -0.04784,-1.500122 -0.315946,-1.665825 -0.229187,-0.141644 -1.533983,-0.255081 -2.899547,-0.25208 -2.6693,0.0059 -3.125266,-0.122249 -3.125266,-0.878122 0,-0.363003 0.22344,-0.438816 0.88,-0.298582 1.191299,0.254447 5.103094,0.383806 5.312691,0.175685 0.182364,-0.181081 0.454632,-1.374235 0.746924,-3.273231 0.184582,-1.199209 0.183755,-1.200235 -0.807548,-1.001974 -0.545776,0.109155 -1.248763,0.08581 -1.562193,-0.05188 -0.7641,-0.335664 -5.380763,-0.192603 -6.930579,0.214763 -1.340457,0.352336 -1.94572,0.07345 -1.62943,-0.750787 0.159316,-0.415172 0.914378,-0.499878 4.57049,-0.512732 2.408805,-0.0085 4.900131,-0.02475 5.53628,-0.03618 1.109547,-0.01993 1.204063,-0.115227 2.321652,-2.340778 0.64076,-1.276 1.893424,-3.366844 2.783697,-4.64632 1.496771,-2.151114 2.218016,-2.637186 2.218016,-1.494795 0,0.855432 0.568125,0.470347 2.76839,-1.876464 2.737204,-2.919511 3.0557,-3.129604 2.928298,-1.931621 -0.09059,0.851853 -0.01594,0.914579 1.183312,0.994493 2.304221,0.153544 2.77097,0.351068 2.660774,1.126017 -0.08514,0.598737 -0.366556,0.741128 -1.813849,0.917766 -1.75905,0.214686 -2.506099,0.617405 -2.166026,1.167655 0.113152,0.183089 2.612759,0.324522 6.036115,0.341538 3.4044,0.01692 7.312067,0.23711 9.362986,0.527584 1.936,0.274199 3.952,0.55815 4.48,0.631002 0.528,0.07285 1.967999,0.27516 3.199999,0.44957 1.232,0.174411 3.392,0.397659 4.8,0.496107 4.442794,0.310643 7.649811,0.717366 8.56,1.085604 0.484,0.195813 0.88,0.284661 0.88,0.19744 0,-0.283538 2.688957,1.195166 3.886048,2.137007 0.641328,0.50458 1.323894,0.917417 1.516816,0.917417 0.192922,0 0.784198,-0.955918 1.313949,-2.124261 1.103539,-2.433802 1.095616,-2.400991 0.563187,-2.331852 -0.22,0.02857 -1.236499,0.03488 -2.258886,0.01403 -2.752605,-0.05614 -1.926832,-0.581915 0.913952,-0.581915 2.30118,0 2.492089,-0.05546 3.434371,-0.997744 0.548758,-0.548759 0.885091,-1.110359 0.747408,-1.248 -0.137687,-0.137641 -1.786301,-0.250256 -3.663591,-0.250256 -1.877289,0 -3.413254,-0.130994 -3.413254,-0.291097 0,-0.160104 2.016,-0.349203 4.48,-0.420221 3.234454,-0.09323 4.683011,-0.260862 5.210198,-0.602962 1.434976,-0.93118 0.461968,-1.145488 -4.846892,-1.067545 -10.246202,0.150432 -24.843305,-0.06077 -24.843305,-0.359446 0,-0.399967 -0.305156,-0.392701 19.039999,-0.45335 9.328,-0.02925 18.976,-0.145931 21.440002,-0.259304 5.18005,-0.238342 19.50534,-0.630571 22.56,-0.617697 3.11043,0.01311 3.52,0.04937 3.52,0.311622 0,0.132 -2.124,0.242359 -4.72,0.245243 -5.07772,0.0056 -15.83168,0.396391 -16.88,0.613341 -0.352,0.07285 -1.252,0.143466 -2,0.156932 -0.748,0.01347 -1.36,0.162413 -1.36,0.330994 0,0.168581 0.63015,0.675804 1.40033,1.127161 1.05539,0.618498 1.58747,0.754686 2.16,0.552864 1.16024,-0.40899 17.23967,-0.516552 17.23967,-0.115324 0,0.18206 -0.108,0.394603 -0.24,0.472318 -0.28257,0.166359 -13.44914,0.694141 -15.2,0.609292 -1.29509,-0.06276 -1.50864,0.232658 -0.67084,0.927996 0.63498,0.527003 11.46586,0.712019 13.60079,0.232333 1.73131,-0.389001 1.84482,-0.187528 0.39808,0.706606 -1.1076,0.684534 -1.5395,0.734322 -6.56256,0.756502 l -5.37694,0.02374 0.18705,0.8 c 0.27411,1.172394 0.54019,1.35499 2.56312,1.758925 1.45773,0.291078 2.19787,0.275656 3.60764,-0.07517 0.97551,-0.242759 2.15574,-0.442941 2.62273,-0.444849 0.89413,-0.0037 3.24269,1.054348 4.19093,1.887974 0.77476,0.681111 0.70709,2.275295 -0.1346,3.171234 -0.38203,0.406649 -0.61951,0.814449 -0.52774,0.906221 0.0918,0.09177 1.73635,0.03208 3.6546,-0.132659 3.95294,-0.339468 5.04909,-0.262867 6.76125,0.472491 1.4383,0.617737 3.06324,0.653886 15.68649,0.348964 6.2983,-0.152139 9.36,-0.119302 9.36,0.100387 0,0.179565 -0.38493,0.326482 -0.85539,0.326482 -4.46712,0 -10.88029,0.42063 -11.26362,0.738764 -0.25264,0.20968 -0.50923,0.345236 -0.57017,0.301236 -0.0609,-0.044 -0.14682,-0.06898 -0.19082,-0.05552 -0.85938,0.263007 -7.45773,0.504453 -20.88,0.764036 -4.51443,0.08731 -8.16,0.632087 -8.16,1.219394 0,0.270521 12.45335,0.08949 13.66843,-0.198688 1.1018,-0.26132 11.8655,-0.6356 17.37157,-0.604053 6.22964,0.03569 6.08001,0.02794 6.07993,0.314827 -4e-5,0.132 -0.98355,0.24 -2.18558,0.24 -2.03361,0 -5.28954,0.159383 -12.37435,0.605744 -3.88398,0.244701 -14.20497,0.608768 -15.2,0.536173 -0.44,-0.0321 -2.41755,0.03589 -4.39455,0.151085 -3.42604,0.199632 -3.579,0.23849 -3.26305,0.828861 0.34071,0.636627 1.53472,0.652278 9.9776,0.130781 0.836,-0.05164 1.52,0.01494 1.52,0.147968 0,0.13302 -2.268,0.346988 -5.04,0.475484 -4.89003,0.226679 -6.37935,0.510109 -5.99008,1.139959 0.10332,0.167171 0.61985,0.303945 1.14785,0.303945 0.55851,0 0.87729,0.133828 0.76223,0.32 -0.10878,0.176 -0.47728,0.32 -0.81889,0.32 -0.34161,0 -0.62111,0.144 -0.62111,0.32 0,0.274986 0.37375,0.424836 0.96,0.384887 2.05693,-0.140163 8.80664,-0.421907 10.72,-0.447469 1.408,-0.01882 2.72248,-0.15952 2.92107,-0.312688 0.20694,-0.159606 0.7088,-0.146285 1.17564,0.0312 0.48991,0.186269 4.23582,0.24793 9.39892,0.154717 10.45202,-0.188695 19.29662,-0.381335 19.94437,-0.434397 1.90548,-0.156096 11.93719,-0.132278 41.20013,0.09782 3.21207,0.02525 5.84007,0.136614 5.84,0.247462 -3.2e-4,0.534679 -7.21727,0.579434 -21.98218,0.13632 -3.37262,-0.101216 -4.29792,-0.03528 -4.59918,0.327719 -0.45386,0.546864 -1.31513,0.59007 -1.81419,0.09101 -0.52618,-0.526186 -6.78578,-0.504781 -7.11279,0.02432 -0.28309,0.458054 -2.58642,0.547004 -5.83547,0.22536 -2.7383,-0.271085 -5.13032,-0.289613 -12.25632,-0.09493 -3.168,0.08655 -9.741,0.187132 -14.60666,0.22352 -4.86566,0.03639 -9.03678,0.18366 -9.26916,0.327273 -0.53461,0.330407 0.94071,0.937866 2.27776,0.937866 0.50616,0 1.00401,0.135469 1.10634,0.301046 0.10972,0.177533 -0.25742,0.229079 -0.89485,0.125636 -0.93414,-0.151588 -1.17411,-0.04453 -1.76717,0.788355 -0.37745,0.530067 -0.68625,1.013529 -0.68623,1.074361 2e-5,0.06083 7.12802,0.103508 15.84,0.09484 8.71198,-0.0087 15.83997,0.09933 15.83997,0.24 0,0.140669 -0.612,0.250592 -1.36,0.244269 -14.02115,-0.118506 -40.00586,0.562201 -44.1323,1.156108 l -1.4923,0.214784 -1.00878,2.40322 c -0.57424,1.368 -0.88852,2.523488 -0.72959,2.682416 0.15893,0.158931 4.40672,0.05839 9.86108,-0.233395 17.1404,-0.916944 33.70756,-1.296973 58.06189,-1.331866 5.544,-0.0079 10.512,-0.01699 11.04,-0.02013 1.40863,-0.0084 4.39297,0.294048 4.25579,0.431229 -0.10332,0.103321 -32.5663,0.479065 -38.97579,0.451129 -2.76094,-0.01203 -29.55022,0.828266 -30.07831,0.943466 -0.0871,0.01901 -2.31907,0.108355 -4.96,0.198579 -2.64093,0.09022 -5.23369,0.25722 -5.76169,0.371098 -0.528,0.113882 -1.32,0.228013 -1.76,0.253622 -0.44,0.0256 -1.16,0.07644 -1.6,0.112941 -0.52246,0.04334 -1.33988,0.681917 -2.35615,1.840624 -1.47682,1.683808 -1.52575,1.797683 -0.96,2.233869 0.46446,0.358087 1.26769,0.419245 3.63615,0.276864 1.672,-0.100512 3.256,-0.264282 3.52,-0.363933 0.55569,-0.209757 7.61331,-0.168115 7.96133,0.04697 0.12822,0.07924 0.80137,0.01805 1.49589,-0.13601 0.69453,-0.154044 6.66278,-0.358019 13.26278,-0.453273 12.59986,-0.181847 12.67677,-0.185671 13.44,-0.668426 0.26967,-0.170573 4.54628,-0.323747 9.76,-0.349568 32.50738,-0.160985 29.78648,-0.0917 30.66259,-0.780841 0.67509,-0.531031 1.45013,-0.654103 4.90953,-0.779604 2.25933,-0.08196 4.53987,-0.276028 5.06787,-0.431254 0.528,-0.155226 1.248,-0.23633 1.6,-0.180234 1.56876,0.250013 3.63673,0.151716 10.08,-0.479136 5.60258,-0.548537 13.76,-0.775369 13.76,-0.382617 0,0.189673 -0.468,0.36503 -1.04,0.38968 -0.572,0.02464 -1.616,0.07582 -2.32,0.113705 -0.704,0.03789 -3.224,0.169594 -5.6,0.292676 -2.376,0.123084 -4.752,0.290022 -5.28,0.370972 -1.34654,0.206442 -6.62088,0.730164 -7.2,0.714928 -0.81215,-0.02138 -7.3956,0.369508 -9.69128,0.575392 -1.73713,0.155792 -2.10194,0.278292 -1.82447,0.612631 0.50879,0.613043 0.1255,0.716579 -2.88424,0.779091 -3.66697,0.07616 -25.07852,0.02822 -30.13318,-0.06748 -3.59149,-0.06799 -4.84912,0.08764 -4.3931,0.543658 0.16235,0.162346 6.02263,0.584925 7.56628,0.545597 0.67657,-0.01725 1.04,0.1256 1.04,0.408749 0,0.536125 -1.81589,0.787885 -3.08326,0.427469 -1.55172,-0.441284 -7.90051,-0.69273 -16.27674,-0.64465 -4.4,0.02525 -9.08,0.0447 -10.4,0.04322 -7.00948,-0.0079 -10.07039,0.08203 -10.37794,0.304858 -0.18814,0.136304 -2.07006,0.204937 -4.18206,0.152512 -2.112,-0.05242 -4.128,-0.08305 -4.48,-0.06806 -0.352,0.01501 -2.91493,0.06573 -5.6954,0.112752 -5.36138,0.09067 -5.98772,0.236224 -7.7446,1.799821 -0.528,0.469911 -2.24979,1.828685 -3.8262,3.019498 -2.368561,1.7892 -3.076942,2.165114 -4.080001,2.165114 -0.66759,0 -1.213801,0.124361 -1.213801,0.276361 0,0.152 -0.486413,0.276365 -1.080922,0.276365 -1.250563,0 -3.111238,0.707597 -3.687949,1.40249 -0.218857,0.263708 -0.624217,0.39263 -0.9008,0.286496 -0.284294,-0.109095 -0.670646,0.03646 -0.888844,0.334867 -0.438365,0.599501 -2.604122,0.984928 -2.894484,0.515117 -0.273072,-0.44184 -0.840803,-0.01197 -0.585276,0.443142 0.162332,0.289133 0.116822,0.289811 -0.193773,0.0029 -0.49385,-0.456182 -1.287952,-0.203865 -1.287952,0.409251 0,0.536151 -0.381376,0.576388 -0.866355,0.09141 -0.259139,-0.259139 -0.451328,-0.173155 -0.715258,0.32 -0.422774,0.789962 -1.775638,0.908346 -2.177344,0.190535 z m 6.158957,-3.631597 c 3.097891,-0.547981 4.117881,-0.812787 6.88,-1.786176 1.32,-0.465175 3.12,-1.075664 4,-1.35664 0.88,-0.280976 1.967878,-0.85082 2.41751,-1.266317 0.449632,-0.415498 0.953632,-0.759325 1.120002,-0.764058 0.56683,-0.01613 2.53941,-1.861139 2.27382,-2.126771 -0.29683,-0.296883 -6.145025,-0.285309 -9.811332,0.01942 -1.32,0.109715 -3.696,0.273187 -5.28,0.363277 -1.584,0.09009 -3.037059,0.219974 -3.229018,0.288637 -0.565542,0.202281 -1.082064,-0.272612 -0.79743,-0.733162 0.177098,-0.286547 1.011926,-0.41865 2.62311,-0.415082 1.299837,0.0029 4.091338,-0.132064 6.203338,-0.299875 2.112,-0.167811 5.507251,-0.338307 7.545002,-0.37888 l 3.705,-0.07377 2.12039,-1.597594 c 1.16622,-0.878675 2.12697,-1.777594 2.135,-1.997594 0.0135,-0.369593 -1.08477,-0.586156 -2.22539,-0.438819 -0.264,0.0341 -2.136,0.133818 -4.16,0.221591 -2.024,0.08777 -4.688002,0.305843 -5.920002,0.484601 -2.628839,0.38144 -9.253424,0.912829 -13.68,1.097341 -2.581923,0.107619 -3.12,0.04944 -3.12,-0.337331 0,-0.352896 0.45071,-0.473207 1.84,-0.491162 1.012,-0.01309 2.128,-0.06979 2.48,-0.126019 0.352,-0.05623 2.728,-0.189616 5.28,-0.29641 2.552,-0.10679 4.928,-0.249104 5.28,-0.316249 2.054038,-0.391824 3.51776,-0.572183 5.47758,-0.674944 7.527482,-0.394688 9.930332,-0.605664 10.307382,-0.905011 0.23373,-0.185562 0.79014,-1.066433 1.23648,-1.957489 0.44633,-0.891052 1.02048,-1.857804 1.27588,-2.148329 0.36801,-0.418624 0.38025,-0.580218 0.059,-0.778759 -0.50786,-0.313875 -1.87769,-0.2464 -7.31633,0.360388 -2.376,0.265091 -5.544002,0.614182 -7.040002,0.77576 -1.496,0.161577 -3.296,0.377814 -4,0.480528 -0.704,0.102713 -2.36,0.322537 -3.68,0.488502 -1.32,0.165962 -3.624,0.462835 -5.12,0.659715 -1.496,0.196883 -3.584,0.344928 -4.64,0.328989 -5.052339,-0.07626 -6.190013,-0.01638 -8.8,0.463168 l -1.44,0.264579 1.76,0.368106 c 0.968,0.202457 1.976,0.266755 2.24,0.142883 0.264,-0.123875 0.768,-0.118032 1.12,0.01299 0.352,0.131014 2.188,0.168432 4.08,0.08315 2.408397,-0.108557 3.44,-0.0481 3.44,0.20159 0,0.196157 -0.18,0.368017 -0.4,0.381911 -0.32,0.02022 -0.32,0.05754 0,0.186666 0.93441,0.377043 0.257469,0.616764 -1.76,0.623257 -1.188,0.0038 -2.664,0.171303 -3.28,0.372173 -2.285277,0.7452 -8.172749,0.486048 -12.96,-0.57047 -0.88,-0.194208 -2.392,-0.506288 -3.36,-0.693504 -1.17686,-0.227613 -2.201945,-0.698727 -3.093855,-1.421892 -0.73362,-0.594838 -1.440535,-1.08151 -1.570922,-1.08151 -0.318477,0 -3.652346,-2.528237 -4.455222,-3.378615 -0.352,-0.372825 -1.004272,-0.912928 -1.449491,-1.200227 -0.735322,-0.474506 -0.896576,-0.477008 -1.76,-0.0273 -0.647748,0.337366 -1.358221,0.430659 -2.230509,0.29289 -0.704,-0.111191 -2.18,-0.278484 -3.28,-0.371757 -1.1,-0.09328 -2,-0.301306 -2,-0.462288 0,-0.342906 -0.259994,-0.321037 4.693472,-0.394752 2.141408,-0.03187 3.972646,-0.137181 4.069417,-0.234029 0.3976,-0.397907 -0.351027,-2.06536 -0.94727,-2.109898 -0.338589,-0.02528 -0.751142,-0.06129 -0.916781,-0.08 -0.165638,-0.01872 -0.03999,-0.224989 0.279216,-0.4584 0.755072,-0.552121 0.411927,-1.729603 -0.553184,-1.898214 -0.678269,-0.118499 -0.673078,-0.136541 0.137527,-0.478058 0.649171,-0.273504 0.877488,-0.635254 0.995388,-1.577126 0.08415,-0.672221 0.09375,-1.328308 0.02134,-1.457972 -0.110377,-0.197654 -3.818256,-0.187164 -17.459129,0.0494 -1.393061,0.02416 -1.52,0.09191 -1.52,0.811302 0,0.431719 0.167114,1.151719 0.371365,1.6 0.317296,0.696387 0.58519,0.817616 1.840002,0.832631 2.275824,0.02723 6.572451,0.339577 6.721494,0.48862 0.07359,0.07359 -0.898195,0.145805 -2.159527,0.160471 -1.261334,0.01466 -3.099062,0.03867 -4.083843,0.05333 -1.958706,0.02918 -2.253204,0.302531 -1.750472,1.624816 0.358129,0.941949 1.473544,1.152528 2.548594,0.481149 0.463923,-0.289725 0.834499,-0.276461 1.64401,0.05885 0.911564,0.377581 0.967363,0.463376 0.436729,0.671543 -0.334592,0.131264 -1.211853,0.248781 -1.949465,0.261149 -1.504794,0.02525 -1.881623,0.363126 -1.402791,1.25783 0.295693,0.552502 0.681082,0.602422 4.183507,0.541904 2.121799,-0.03666 3.744957,0.0462 3.607018,0.184138 -0.137936,0.137936 -1.401856,0.276326 -2.808707,0.307532 -4.18448,0.09282 -4.160109,-0.0207 -0.86241,4.017386 2.894656,3.544567 5.160813,5.347575 8.904128,7.08433 0.682201,0.316515 1.743609,0.891872 2.358678,1.278567 0.615072,0.386697 2.991072,1.638585 5.28,2.781974 3.949565,1.972931 5.950291,2.681255 9.601689,3.399322 0.88,0.173056 1.816,0.358781 2.08,0.412723 0.264,0.05394 1.272,0.320874 2.24,0.593184 5.264227,1.480893 14.630582,2.084765 19.36,1.248186 z M 37.359797,39.008296 c 0.453037,-0.471271 9.524215,-0.999015 10.293635,-0.598864 0.574007,0.298522 -1.476777,0.547267 -6.693433,0.811866 -3.277075,0.16622 -3.927744,0.127724 -3.600202,-0.213002 z M 42.918732,36.0146 c 0.250208,-0.250205 2.487235,-0.315299 2.723292,-0.07924 0.123552,0.123555 -0.47136,0.224643 -1.322025,0.224643 -0.850666,0 -1.481235,-0.06543 -1.401267,-0.145401 z M 26.297321,61.87943 c 0.471528,-0.237824 0.960247,-0.757988 1.086044,-1.155917 0.125797,-0.39793 0.567313,-1.168199 0.981147,-1.711709 0.903827,-1.18704 0.752456,-1.415344 -0.79309,-1.196167 -2.266183,0.32138 -3.689674,1.207552 -4.479226,2.788477 -0.40365,0.808231 -0.652496,1.601239 -0.552992,1.76224 0.235659,0.381306 2.659305,0.06728 3.758117,-0.486924 z m 3.765799,0.217452 c 0.586439,-0.586438 1.06806,-1.921152 1.420593,-3.93688 0.175651,-1.004342 0.177238,-1.003401 -0.880292,-0.521558 -0.878808,0.400409 -2.966237,4.174512 -2.61934,4.735802 0.337205,0.545609 1.397522,0.404153 2.079039,-0.277364 z m -6.373141,-8.550774 1.920317,-0.533898 -0.693363,-0.738051 c -0.644734,-0.686285 -1.405043,-1.025239 -4.525042,-2.017306 -1.846656,-0.587181 -3.001972,-0.19952 -3.449856,1.157584 -0.570142,1.727546 0.249426,2.214093 4.422796,2.625642 0.222657,0.02195 1.268974,-0.20033 2.325148,-0.493971 z M 155.04,53.120002 c -0.10878,-0.176 -0.33328,-0.32 -0.49889,-0.32 -0.16561,0 -0.30111,0.144 -0.30111,0.32 0,0.176 0.2245,0.32 0.49888,0.32 0.27439,0 0.40989,-0.144 0.30112,-0.32 z m 2.6435,0.136838 c -0.36398,-0.363984 -2.1635,-0.493785 -2.1635,-0.156051 0,0.186567 0.528,0.339213 1.17333,0.339213 0.64533,0 1.09091,-0.08242 0.99017,-0.183162 z M 27.023999,49.949279 c -0.1672,-0.159901 -1.304149,-0.836589 -2.526555,-1.503754 -1.222405,-0.667162 -3.022405,-1.754819 -4,-2.417011 -2.056747,-1.393178 -2.445139,-1.223997 -2.427947,1.057606 0.0097,1.28457 0.07324,1.389875 0.810503,1.3428 0.955588,-0.06102 4.826992,0.744122 6.399999,1.331015 1.361311,0.507907 2.168779,0.595571 1.744,0.189344 z m 56.175999,-4.671725 c 5.016,-0.0777 9.696,-0.211632 10.4,-0.297626 0.704,-0.08599 2.936,-0.304678 4.96,-0.485961 C 100.584,44.31268 102.672,44.081247 103.2,43.979663 c 0.528,-0.101581 1.536,-0.248772 2.24,-0.327095 5.21624,-0.58031 7.01761,-0.819846 7.25122,-0.964221 0.48966,-0.30263 0.30073,-2.287609 -0.2374,-2.494109 -0.87755,-0.336748 -1.73382,-0.211424 -1.73382,0.253764 0,0.298665 -0.37334,0.448 -1.12,0.448 -0.616,0 -1.12,-0.1296 -1.12,-0.288 0,-0.1584 0.24,-0.288 0.53333,-0.288 0.29333,0 0.44242,-0.09091 0.3313,-0.202029 -0.20173,-0.201738 -6.95707,-0.168746 -9.984632,0.04877 -3.135696,0.225276 -36.468825,0.872825 -40.479999,0.786387 -2.288784,-0.04933 -4.457978,0.331926 -4.295632,0.754985 0.300118,0.782096 3.510182,2.639757 5.696528,3.296577 2.056742,0.617884 2.841078,0.671484 8.039103,0.549411 3.168,-0.0744 9.864,-0.198848 14.88,-0.276544 z m -11.84,-2.725664 c 0,-0.327456 1.105277,-0.380064 6.88,-0.327469 1.936,0.01763 4.528,-0.116765 5.76,-0.298663 1.232,-0.181897 4.112,-0.396665 6.4,-0.477264 2.288,-0.0806 5.384,-0.222275 6.88,-0.314838 1.600771,-0.09904 2.522489,-0.0543 2.24,0.108733 -0.50752,0.292912 -4.602116,0.607933 -11.160627,0.858653 -2.178346,0.08327 -4.072979,0.220844 -4.210301,0.305712 -0.514323,0.317872 -12.789072,0.457168 -12.789072,0.145136 z M 101.28,40.941643 c 1.67581,-0.34663 6.48659,-0.329379 5.12,0.01837 -0.528,0.134352 -2.184,0.244755 -3.68,0.245341 -2.2513,9.6e-4 -2.49944,-0.04456 -1.44,-0.263699 z m 24.89054,1.161427 c 0.84179,-0.05362 1.58508,-0.152739 1.65174,-0.220275 0.3526,-0.357229 -0.28513,-1.845504 -0.85462,-1.994429 -0.35685,-0.09332 -3.10707,-0.131664 -6.11159,-0.08521 l -5.46276,0.08447 -0.25512,0.936186 c -0.47286,1.735216 -0.3799,1.765645 4.77419,1.5628 2.60019,-0.102336 5.41636,-0.22993 6.25816,-0.283542 z M 129.6,41.778888 c 0,-0.07761 -0.144,-0.230112 -0.32,-0.338886 -0.176,-0.108775 -0.32,-0.04527 -0.32,0.141113 0,0.186387 0.144,0.338887 0.32,0.338887 0.176,0 0.32,-0.0635 0.32,-0.141114 z M 60.959998,40.185765 c 1.056,-0.127847 2.208,-0.261591 2.56,-0.29721 0.352,-0.03562 0.822151,-0.178941 1.044781,-0.318496 0.369107,-0.231376 3.345229,-0.173853 14.795219,0.285959 7.442486,0.29888 20.309792,0.04786 23.857062,-0.465408 0.88938,-0.128688 3.26538,-0.270487 5.28,-0.315104 2.01461,-0.04462 3.78524,-0.200362 3.93473,-0.346103 0.14948,-0.145737 0.17578,-0.567472 0.0584,-0.93719 -0.19158,-0.60361 -0.48057,-0.678484 -2.83179,-0.733674 -2.84003,-0.06667 -3.14842,-0.05988 -6.39243,0.140666 -1.1957,0.07392 -2.24819,0.01434 -2.33888,-0.132404 -0.0907,-0.146739 0.0681,-0.2668 0.35288,-0.2668 0.28477,0 0.42877,-0.144 0.32,-0.32 -0.10878,-0.176 -1.40478,-0.32 -2.880002,-0.32 -1.475226,0 -2.758506,-0.12342 -2.851735,-0.274265 -0.09323,-0.150848 1.446272,-0.262816 3.421114,-0.248819 4.161673,0.0295 11.487913,-0.411959 11.812933,-0.711812 0.12228,-0.112806 -0.30972,-0.649312 -0.96,-1.192233 -1.15749,-0.966404 -1.22934,-0.981908 -3.42231,-0.73849 -1.232,0.136749 -4.76,0.34216 -7.840002,0.456471 -3.08,0.11431 -6.392,0.352515 -7.36,0.529344 -2.450071,0.447568 -3.520333,0.432611 -4.686746,-0.06549 -0.811661,-0.346608 -1.431744,-0.357674 -3.2,-0.05711 -1.206288,0.20504 -4.065254,0.449555 -6.353254,0.543366 -2.288,0.09381 -4.592,0.226551 -5.12,0.294976 -0.528,0.06843 -1.968,0.224656 -3.2,0.347178 -1.232,0.122525 -2.672,0.282784 -3.2,0.356134 -0.528,0.07335 -3.84,0.219338 -7.359999,0.324416 -3.52,0.105082 -6.521341,0.302784 -6.669645,0.439341 -0.148304,0.136557 -0.100262,0.564781 0.106762,0.95161 0.362652,0.677625 0.501132,0.696009 3.789644,0.503145 4.558922,-0.267366 7.878742,-0.492579 11.721024,-0.795136 1.753283,-0.138057 3.553283,-0.149452 4,-0.02531 0.885881,0.246167 -1.077178,0.479972 -6.707786,0.798912 -5.030166,0.284932 -11.140108,0.889002 -11.549193,1.141831 -0.519136,0.320842 -0.132426,1.223136 0.647011,1.509642 0.775591,0.285094 4.628765,0.252054 7.222182,-0.06192 z m 27.571193,-2.820864 c -0.419318,-0.265581 -0.04774,-0.280746 6.787443,-0.276992 2.705248,0.0016 4.997246,0.08131 5.093336,0.177395 0.32299,0.322995 -11.373255,0.421043 -11.880779,0.0996 z M 72.377294,36.63604 c 0.07952,-0.07952 1.707952,-0.219952 3.61873,-0.312064 1.91078,-0.09211 3.368393,-0.06173 3.239139,0.06753 -0.129255,0.129255 -1.757683,0.269683 -3.61873,0.312064 -1.861049,0.04238 -3.318662,0.012 -3.239139,-0.06753 z m 7.55679,-0.196535 c -0.178208,-0.110272 0.663719,-0.302032 1.870948,-0.426134 3.242127,-0.33329 13.234966,-0.452755 13.234966,-0.158227 0,0.139715 -2.7,0.326848 -6,0.415849 -3.3,0.089 -6.625926,0.208439 -7.390947,0.265415 -0.765024,0.05698 -1.536759,0.01338 -1.714967,-0.0969 z M 127.39,39.023947 c 1.34785,-0.72135 0.0624,-0.878662 -5.44334,-0.666147 -1.64399,0.06346 -0.93669,0.429107 1.32823,0.68664 3.03778,0.345414 3.4351,0.343437 4.11511,-0.02048 z m -23.07,-2.543946 c 0,-0.176 -0.3515,-0.32 -0.78112,-0.32 -0.42961,0 -0.87011,0.144 -0.97888,0.32 -0.11539,0.186695 0.21001,0.32 0.78111,0.32 0.53839,0 0.97889,-0.144 0.97889,-0.32 z m 1.44,0 c 0.10877,-0.176 0.0538,-0.32 -0.12223,-0.32 -0.176,0 -0.409,0.144 -0.51777,0.32 -0.10878,0.176 -0.0538,0.32 0.12223,0.32 0.176,0 0.40899,-0.144 0.51777,-0.32 z m 5.92,-0.282678 c 0,-0.36919 -1.21514,-0.682125 -1.79087,-0.461197 -0.8365,0.320995 -0.45512,0.743875 0.67087,0.743875 0.616,0 1.12,-0.127206 1.12,-0.282678 z M 55.455298,35.145249 c 1.795584,-9.6e-4 4.344701,-0.123238 5.6647,-0.27152 1.32,-0.148281 3.84,-0.372579 5.6,-0.498435 1.76,-0.125856 3.488,-0.258265 3.84,-0.294243 0.876643,-0.0896 7.413555,-0.474877 10.658774,-0.628218 3.078026,-0.14544 3.688346,-0.457453 3.146304,-1.608484 l -0.365078,-0.775251 -6.24,0.140521 c -3.432,0.07729 -6.964681,0.208964 -7.850406,0.292616 -1.432784,0.135321 -8.419914,0.421144 -15.669593,0.640998 -3.773149,0.114426 -3.523408,0.0045 -3.493296,1.537367 0.03691,1.878899 0.05093,1.908672 0.788595,1.674547 0.360413,-0.114394 2.124413,-0.208845 3.92,-0.209898 z M 103.52,32.500056 c 2.288,-0.07173 4.16,-0.258013 4.16,-0.413968 0,-0.709756 -1.76452,-2.326087 -2.53934,-2.326087 -0.45137,0 -0.78466,-0.149683 -0.74066,-0.33263 0.044,-0.182946 -0.49333,-0.728087 -1.19407,-1.211425 -1.71897,-1.185674 -1.77188,-2.154448 -0.23587,-4.319383 0.64642,-0.911109 1.4306,-1.844728 1.74262,-2.074707 0.7966,-0.58714 0.70548,-1.240834 -0.19701,-1.413355 -0.87348,-0.166978 -4.654655,-0.05618 -4.853042,0.142202 -0.07232,0.07233 0.04157,0.590006 0.253091,1.1504 0.294141,0.779263 0.297301,1.250165 0.01344,2.002221 -0.204141,0.540828 -0.292304,1.188828 -0.19592,1.44 0.121869,0.31762 -0.0593,0.456677 -0.595005,0.456677 -0.913788,0 -1.538236,0.545597 -1.538236,1.344 0,0.374381 -0.252026,0.587364 -0.72,0.608465 -0.396,0.01786 -1.296,0.0974 -2,0.176756 -1.193332,0.134521 -2.672659,0.209104 -7.287376,0.367407 l -1.847379,0.06337 0.524182,0.8 c 0.582752,0.889393 1.562627,1.059225 1.846294,0.32 0.244349,-0.636764 1.363952,-0.615128 1.611952,0.03115 0.172317,0.449046 0.652759,0.479464 3.954237,0.250357 3.13191,-0.21734 6.426612,-0.267762 9.438092,-0.14444 0.308,0.01261 0.56,0.136413 0.56,0.275112 0,0.138699 -1.95776,0.246699 -4.350566,0.24 -2.392809,-0.0067 -4.408406,0.08142 -4.479107,0.19582 -0.0707,0.1144 -0.630697,0.208 -1.244438,0.208 -1.929731,-1e-6 -4.965891,0.435457 -4.965891,0.712226 0,0.145963 0.464752,0.62911 1.032781,1.073661 1.01398,0.793559 1.111555,0.805546 5.359999,0.658426 C 97.41275,32.697901 101.232,32.57178 103.52,32.500052 Z m 9.76,-0.321168 c 0,-0.07761 -0.144,-0.230113 -0.32,-0.338887 -0.176,-0.108774 -0.32,-0.04527 -0.32,0.141115 0,0.186386 0.144,0.338885 0.32,0.338885 0.176,0 0.32,-0.0635 0.32,-0.141113 z M 42.399999,31.543819 c 3.696,-0.08738 8.592,-0.23051 10.88,-0.318056 2.288,-0.08755 7.4,-0.244493 11.359999,-0.348769 3.96,-0.104276 7.558832,-0.265744 7.997405,-0.358817 0.438573,-0.09307 2.994573,-0.153826 5.68,-0.135006 3.941238,0.02762 4.882595,-0.05044 4.882595,-0.40488 0,-0.760398 -1.065027,-1.433287 -2.636314,-1.665634 -1.245731,-0.184207 -1.552275,-0.1305 -1.717843,0.300968 -0.18615,0.485096 -0.230649,0.48537 -0.582941,0.0036 -0.34712,-0.474714 -0.696915,-0.481645 -3.891119,-0.07709 -1.930346,0.244481 -3.86568,0.345324 -4.300749,0.224097 -0.435069,-0.121227 -2.219034,-0.234767 -3.964368,-0.25231 -1.745331,-0.01754 -3.097674,-0.107558 -3.0052,-0.200031 0.150374,-0.150375 13.589798,-0.599764 16.178534,-0.54098 1.111018,0.02523 1.407197,-0.461378 0.48,-0.788614 -0.308,-0.108702 -0.89695,-0.500183 -1.308774,-0.869957 -0.651332,-0.58482 -1.099018,-0.663327 -3.44,-0.603247 -1.669264,0.04284 -2.691226,-0.05547 -2.691226,-0.258884 0,-0.180375 0.108,-0.267493 0.24,-0.193595 0.132,0.0739 0.661133,-0.04309 1.17585,-0.259966 0.867353,-0.365464 0.890777,-0.41783 0.32,-0.715464 -0.338717,-0.176627 -1.62385,-0.491659 -2.85585,-0.700072 -1.232,-0.208413 -2.96,-0.58383 -3.84,-0.834259 -1.762963,-0.501725 -2.997452,-0.654428 -7.519999,-0.93023 C 47.969317,20.892706 43.820373,20.813401 36.812953,21.176474 l -3.987047,0.20658 -0.890341,1.548473 c -0.489689,0.851661 -0.891518,1.88925 -0.892954,2.305753 -0.0026,0.740021 0.04378,0.752311 2.032787,0.539306 2.544988,-0.272545 12.743634,-0.545895 17.004601,-0.455767 4.023632,0.08511 7.014028,0.07518 14.959244,-0.04969 3.475587,-0.05462 6.415587,-0.003 6.533334,0.11478 0.117748,0.117748 -0.421913,0.236074 -1.199244,0.262947 -1.631091,0.05639 -2.089322,0.066 -17.253334,0.362048 -16.628474,0.324636 -22.183526,0.556646 -22.652798,0.946108 -0.281627,0.23373 -0.384238,1.018759 -0.320674,2.453348 l 0.09347,2.109636 2.034685,0.06135 c 1.119078,0.03374 2.116659,0.143327 2.216854,0.24352 0.100192,0.100192 0.408583,0.113691 0.685316,0.03 0.276729,-0.08369 3.527145,-0.223665 7.223145,-0.31105 z m 73.905431,-1.120242 c 0.10259,-0.165992 0.56852,-0.18687 1.05888,-0.04745 0.48163,0.136936 1.16369,0.207531 1.51569,0.156878 2.52256,-0.363003 3.47853,-0.447882 5.6,-0.497216 1.32,-0.03069 2.832,-0.250701 3.36,-0.488902 0.9167,-0.413561 0.88062,-0.425455 -0.8,-0.263739 -0.968,0.09314 -3.22373,0.228952 -5.01273,0.301793 -8.25572,0.336145 -13.76524,1.070278 -8.36616,1.114776 1.35361,0.01115 2.54356,-0.113108 2.64432,-0.276141 z M 116.88,28.933374 c 0.836,-0.106386 1.52,-0.33362 1.52,-0.504965 0,-0.171345 -0.252,-0.2351 -0.56,-0.141679 -0.76873,0.233167 -3.14454,0.259785 -4.88,0.05467 -1.64237,-0.19411 -2.73584,0.242759 -1.92,0.767091 0.46208,0.296975 2.64445,0.231534 5.84,-0.175119 z m -9.75802,-1.493373 C 106.97091,26.979899 105.28,26.691113 105.28,27.125413 c 0,0.482944 0.38899,0.714588 1.2,0.714588 0.47538,0 0.72273,-0.154112 0.64198,-0.4 z M 91.719367,26.861046 c 0.392048,-0.146755 0.816612,-0.117064 1.003882,0.07021 0.208445,0.208444 0.393398,0.213055 0.517107,0.01289 0.442822,-0.716501 -0.889414,-1.123399 -4.098873,-1.251898 -3.604698,-0.144325 -4.273808,0.122009 -3.005895,1.196468 0.639315,0.541772 1.038058,0.6023 2.82441,0.428737 1.144,-0.111151 2.385715,-0.316532 2.759369,-0.456402 z M 120.16,25.922519 c 0,-1.037029 -2.35649,-1.719258 -5.92,-1.713906 -4.10668,0.0062 -7.64961,0.147334 -8.4,0.334694 -0.99531,0.24851 -0.64344,1.053384 0.48,1.097957 1.56424,0.06206 2.52225,0.201738 3.76,0.548195 0.616,0.172424 3.136,0.290332 5.6,0.26202 3.73539,-0.04292 4.48,-0.130839 4.48,-0.52896 z M 94.904026,24.178188 c 0.107924,-0.429997 0.112253,-0.917681 0.0096,-1.083742 -0.26992,-0.43674 0.671789,-1.119205 1.242279,-0.900288 0.685878,0.263196 0.600029,1.081267 -0.155927,1.485843 -1.527356,0.817416 -0.123212,1.520346 1.499143,0.750487 1.527305,-0.724754 1.937939,-1.691172 1.198256,-2.820072 -0.845165,-1.289883 -1.999399,-1.63335 -2.756826,-0.820349 -0.33304,0.357463 -0.742813,0.649934 -0.910617,0.649934 -0.447677,0 -1.909968,1.337142 -1.909968,1.746505 0,0.490841 0.934454,1.773495 1.292048,1.773495 0.162668,0 0.384057,-0.351816 0.49198,-0.781813 z m -3.122028,-1.137416 c 0.0561,-0.785518 0.234854,-1.58829 0.397225,-1.783936 0.489812,-0.590189 -0.0256,-0.776835 -2.14518,-0.776835 -2.246506,0 -2.540672,0.234449 -3.419408,2.725238 l -0.449728,1.274762 2.757545,-0.0055 2.757546,-0.0055 0.102,-1.428217 z m 3.265766,-3.74548 c 1.320982,-0.469172 1.659754,-0.484994 2.442947,-0.114096 0.500109,0.236837 1.557287,0.38472 2.349287,0.328629 0.792002,-0.05609 1.941842,-0.112748 2.555192,-0.125904 1.35993,-0.02917 1.69572,-0.895843 0.58411,-1.507618 -0.84539,-0.465266 -6.997536,-0.616981 -9.768848,-0.240906 -1.636685,0.222103 -3.290454,1.197332 -3.290454,1.940384 0,0.472862 3.554016,0.278457 5.127766,-0.280489 z M 170.24,54.685765 c 0,-0.483344 0.1433,-0.619244 0.50617,-0.48 0.27839,0.106832 0.71039,0.194237 0.96,0.194237 0.2496,0 0.45383,0.216 0.45383,0.48 0,0.32 -0.32,0.48 -0.96,0.48 -0.76292,0 -0.96,-0.138419 -0.96,-0.674237 z m 26.72,-7.005763 c -0.10878,-0.176 0.0267,-0.32 0.30111,-0.32 0.27439,0 0.49889,0.144 0.49889,0.32 0,0.176 -0.13551,0.32 -0.30112,0.32 -0.16561,0 -0.39011,-0.144 -0.49888,-0.32 z m -35.84,-3.84 c -0.10878,-0.176 0.0267,-0.32 0.30111,-0.32 0.27439,0 0.49889,0.144 0.49889,0.32 0,0.176 -0.1355,0.32 -0.30112,0.32 -0.16561,0 -0.39011,-0.144 -0.49888,-0.32 z m 1.28,0 c -0.25254,-0.408608 0.80772,-0.408608 1.44,0 0.37543,0.242624 0.29241,0.311267 -0.38112,0.315101 -0.47361,0.0027 -0.95011,-0.139101 -1.05888,-0.315101 z m 2.32,0.10807 c 0.22,-0.08877 0.58,-0.08877 0.8,0 0.22,0.08877 0.04,0.161405 -0.4,0.161405 -0.44,0 -0.62,-0.07263 -0.4,-0.161405 z m 2.46928,-0.07905 c 0.3461,-0.135299 2.2901,-0.254966 4.32,-0.265929 2.9455,-0.0159 3.36765,0.03264 2.09072,0.240454 -2.05605,0.334608 -7.25434,0.355264 -6.41072,0.02547 z m 9.24104,-0.109017 c -0.0814,-0.132 0.9044,-0.247456 2.19079,-0.256567 1.28639,-0.0091 6.35769,-0.07992 11.26957,-0.15735 4.91188,-0.07743 8.84231,-0.05241 8.73429,0.0556 -0.4456,0.445607 -21.9268,0.7924 -22.19465,0.358314 z m -7.36448,-1.52 c -11.53255,-0.285895 -7.25488,-0.602516 7.77988,-0.575844 16.02508,0.02843 30.19427,-0.324777 30.19427,-0.752668 0,-0.149319 -0.42022,-0.271488 -0.93382,-0.271488 -1.07594,0 -1.94618,-0.280948 -1.94618,-0.628311 0,-0.345501 -0.53563,-0.338512 13.6,-0.177437 12.7352,0.145117 11.64756,0.08823 11.01192,0.575924 -0.27945,0.214403 -0.45829,0.537308 -0.39742,0.717564 0.0723,0.214157 -2.02515,0.358487 -6.05192,0.416445 -5.67211,0.08164 -8.50707,0.202743 -11.44258,0.488794 -1.18981,0.115942 -1.92,-0.03797 -1.92,-0.404707 0,-0.122791 0.93537,-0.221956 2.0786,-0.220362 1.14323,0.0016 2.21607,-0.134538 2.38409,-0.302509 0.19392,-0.193875 -0.76965,-0.286627 -2.6386,-0.253993 -3.68369,0.06432 -3.43902,0.01734 -3.20917,0.616307 0.14083,0.366985 0.0272,0.483353 -0.41004,0.419821 -0.33268,-0.04834 -1.54088,0.01731 -2.68488,0.145888 -2.54631,0.286192 -26.55365,0.42623 -35.41415,0.206576 z m 47.25415,-1.28 c 0,-0.176 -0.51249,-0.32 -1.13888,-0.32 -0.67777,0 -1.05881,0.129561 -0.94112,0.32 0.10878,0.176 0.62128,0.32 1.13889,0.32 0.51761,0 0.94111,-0.144 0.94111,-0.32 z m 0.96,0 c 0,-0.176 -0.15249,-0.32 -0.33888,-0.32 -0.18639,0 -0.24989,0.144 -0.14112,0.32 0.10878,0.176 0.26128,0.32 0.33889,0.32 0.0776,0 0.14111,-0.144 0.14111,-0.32 z m 2.4,0 c 0.11793,-0.19081 -0.26963,-0.32 -0.96,-0.32 -0.69036,0 -1.07792,0.12919 -0.96,0.32 0.10878,0.176 0.54078,0.32 0.96,0.32 0.41923,0 0.85123,-0.144 0.96,-0.32 z m 2.56,0 c 0.10878,-0.176 -0.10722,-0.32 -0.48,-0.32 -0.37277,0 -0.58877,0.144 -0.48,0.32 0.10878,0.176 0.32478,0.32 0.48,0.32 0.15523,0 0.37123,-0.144 0.48,-0.32 z M 137.28,40.006098 c 0,-0.179354 0.108,-0.338589 0.24,-0.35386 1.75569,-0.2031 2.32,-0.203251 2.32,-6.4e-4 0,0.132944 -0.18258,0.241716 -0.40573,0.241716 -0.22314,0 -0.79914,0.09874 -1.28,0.21943 -0.52396,0.13153 -0.87427,0.08879 -0.87427,-0.106646 z m 26.73672,0.06396 c -0.0599,-0.05987 -5.32381,-0.113244 -11.69764,-0.118611 -7.73106,-0.0065 -11.48218,-0.116349 -11.26856,-0.329971 0.39146,-0.391462 19.4613,-0.529869 24.54948,-0.178179 1.936,0.133814 5.01917,0.312992 6.8515,0.398173 5.49354,0.255382 4.09886,0.507062 -2.32398,0.419382 -3.30107,-0.04507 -6.05093,-0.130922 -6.1108,-0.190794 z m 36.27969,-0.100902 c 0.42703,-0.17065 1.00303,-0.273117 1.28,-0.227702 0.27697,0.04541 0.6974,-0.03887 0.93429,-0.187306 0.27124,-0.169955 0.62245,-0.07814 0.94857,0.247987 0.47716,0.477149 0.34267,0.516269 -1.7107,0.497578 -1.77299,-0.01613 -2.06985,-0.08371 -1.45216,-0.330557 z M 133.76,39.673906 c 0,-0.193588 0.35758,-0.240311 0.88,-0.114986 1.25631,0.301392 1.29854,0.441082 0.13333,0.441082 -0.55733,0 -1.01333,-0.146743 -1.01333,-0.326096 z M 362.1503,35.18436 c 0.68604,-0.623815 2.90985,-0.921325 6.96969,-0.932448 2.464,-0.0068 5.128,-0.09261 5.92,-0.190807 1.48029,-0.183523 2.63542,-0.237254 13.6,-0.632614 4.69168,-0.169171 6.53485,-0.347911 6.90518,-0.669629 1.11328,-0.967089 1.44343,-0.501962 1.04781,1.47616 l -0.20701,1.035021 -3.39299,-0.233501 c -4.26832,-0.293741 -5.58969,-0.315875 -5.97085,-0.100019 -0.16617,0.09412 -1.52614,0.113834 -3.02214,0.04381 -3.30314,-0.154605 -2.88266,-0.158387 -5.6,0.05035 -3.63162,0.27896 -16.52157,0.400864 -16.24969,0.15368 z M 126.72,34.529393 c 0.44,-0.194569 1.88,-0.407628 3.2,-0.473462 1.32,-0.06583 3.624,-0.196077 5.12,-0.289427 4.50802,-0.281303 31.34839,-0.595037 44.22103,-0.516896 8.50464,0.05163 12.26087,-0.03374 12.73876,-0.289498 0.70014,-0.374704 2.56021,-0.149014 2.56021,0.310643 0,0.142944 -0.612,0.26562 -1.36,0.272608 -0.748,0.007 -6.688,0.09568 -13.2,0.197085 -6.512,0.101402 -18.824,0.240384 -27.36,0.308842 -14.59236,0.117033 -23.55698,0.356838 -25.76,0.689088 -0.94233,0.142115 -0.94527,0.138265 -0.16,-0.208983 z m 212.33852,-2.819409 c -0.29066,-0.470271 0.19206,-0.633814 2.29862,-0.778776 1.06589,-0.07335 2.06061,-0.208358 2.21044,-0.300016 0.48985,-0.299671 13.18214,-0.933086 14.2032,-0.708819 0.54723,0.120192 0.93769,0.275828 0.86764,0.345858 -0.19254,0.192559 -6.05926,0.741239 -9.6976,0.906959 -1.77052,0.08065 -3.96652,0.227219 -4.88,0.32572 -0.91347,0.0985 -2.37014,0.254633 -3.23708,0.346962 -0.86695,0.09233 -1.66128,0.03028 -1.76522,-0.137888 z m 20.1656,-1.270927 c -0.2097,-0.339295 0.89574,-0.595142 2.85587,-0.660985 0.704,-0.02365 2.11258,-0.157908 3.13021,-0.298356 1.30025,-0.179459 2.00701,-0.140676 2.37785,0.13048 0.42765,0.312699 -0.19606,0.428099 -3.2902,0.608772 -2.09981,0.122613 -4.05773,0.291363 -4.35091,0.375 -0.29322,0.08364 -0.61847,0.01393 -0.72282,-0.154911 z m -205.9355,-4.52162 c 1.69684,-0.417625 34.23138,-1.03808 34.23138,-0.652815 0,0.258048 -10.46074,0.799573 -12.64,0.654339 -0.704,-0.04692 -1.496,-0.06498 -1.76,-0.04014 -2.3434,0.22049 -20.71571,0.256265 -19.83138,0.03862 z M 188.48,25.280001 c 0,-0.176 0.504,-0.32 1.12,-0.32 0.616,0 1.12,0.144 1.12,0.32 0,0.176 -0.504,0.32 -1.12,0.32 -0.616,0 -1.12,-0.144 -1.12,-0.32 z m -65.14089,-1.246198 c 0.18705,-0.302662 0.76576,-0.400914 5.62089,-0.954308 5.52676,-0.629948 10.65067,-1.052127 16.10015,-1.326557 2.95908,-0.149016 5.76708,-0.346193 6.24,-0.438172 0.47292,-0.09198 4.53185,-0.246889 9.01985,-0.344245 4.488,-0.09736 9.84828,-0.261641 11.91173,-0.365079 5.62914,-0.282178 46.64827,-0.322137 46.64827,-0.04544 -1e-5,0.132 -0.39601,0.243427 -0.88001,0.247617 -0.484,0.0042 -2.392,0.06742 -4.24,0.140521 -3.29548,0.130352 -14.67399,0.187325 -27.99999,0.140199 -6.06714,-0.02146 -12.70736,0.133078 -21.76,0.506409 -1.76,0.07258 -5.072,0.209038 -7.36,0.303235 -8.96337,0.369023 -17.03441,0.863567 -18.56,1.137243 -0.88,0.157863 -3.544,0.371473 -5.92,0.474689 -2.376,0.103215 -5.256,0.324814 -6.4,0.492441 -2.59155,0.379734 -2.63651,0.380318 -2.42089,0.03145 z m 0.36804,-3.509875 c -0.28743,-0.465068 0.0259,-0.583496 3.02504,-1.143353 2.65308,-0.495259 9.53739,-0.964598 12.54805,-0.855467 0.83614,0.03031 3.64414,-0.104947 6.24,-0.300567 7.12988,-0.537298 7.12023,-0.536776 14.31976,-0.774004 3.696,-0.121784 7.296,-0.279675 8,-0.350868 0.704,-0.07119 5.024,-0.215083 9.6,-0.319756 4.576,-0.104674 9.184,-0.239519 10.24,-0.299656 2.42635,-0.138177 9.94297,-0.166254 24.79999,-0.09264 6.424,0.03183 12.112,-0.04211 12.64,-0.164304 0.96639,-0.223658 2.09639,0.186965 1.67477,0.608584 -0.12468,0.124684 -10.12851,0.25905 -22.23073,0.298592 -20.86562,0.06817 -34.67215,0.293953 -36.66506,0.599587 -0.49557,0.076 -3.66357,0.232361 -7.04,0.34747 -8.71649,0.297158 -11.29398,0.412639 -13.65897,0.61197 -1.144,0.09642 -4.08807,0.264398 -6.54238,0.373282 -2.45431,0.108885 -4.70046,0.243823 -4.99146,0.299864 -0.291,0.05604 -2.22486,0.189776 -4.29747,0.297188 -3.45649,0.179132 -5.66537,0.493597 -6.9619,0.991122 -0.27613,0.105961 -0.59097,0.04879 -0.69964,-0.127047 z m 132.64653,-0.163703 c 0.35258,-0.390039 4.56496,-1.153678 7.16631,-1.299139 3.23843,-0.181085 1.65049,0.259892 -2.72,0.75536 -1.672,0.189548 -3.4,0.437652 -3.84,0.551342 -0.44,0.11369 -0.71283,0.110286 -0.60631,-0.0076 z m 14.04631,-1.774799 c 0,-0.189984 0.108,-0.34669 0.24,-0.348235 0.132,-0.0015 2.184,-0.138117 4.56,-0.303494 2.376,-0.165376 6.192,-0.393559 8.48,-0.507072 2.288,-0.113514 4.736,-0.247016 5.44,-0.296673 0.704,-0.04966 2.864,-0.186056 4.8,-0.30311 1.936,-0.117055 4.528,-0.352667 5.76,-0.523583 1.232,-0.170915 5.12,-0.377666 8.64,-0.459445 3.52,-0.08178 7.084,-0.237605 7.92,-0.34628 0.88249,-0.114717 1.52,-0.07048 1.52,0.105483 0,0.417451 -3.94091,0.712511 -9.88828,0.740345 -2.74544,0.01285 -5.78372,0.155027 -6.75172,0.315953 -1.649,0.274138 -7.06277,0.696084 -14.08,1.097387 -1.672,0.09562 -3.976,0.243905 -5.12,0.329525 -1.144,0.08562 -3.808,0.230356 -5.92,0.321634 -2.112,0.09128 -4.236,0.246293 -4.72,0.344476 -0.52676,0.106859 -0.88,0.03986 -0.88,-0.166911 z m -11.52,-0.665425 c 0,-0.176 0.144,-0.32 0.32,-0.32 0.176,0 0.32,0.144 0.32,0.32 0,0.176 -0.144,0.32 -0.32,0.32 -0.176,0 -0.32,-0.144 -0.32,-0.32 z m 4.8,-0.268142 c -1.31322,-0.233251 3.27465,-1.279599 6.56,-1.496131 3.85802,-0.254274 5.01408,-0.449346 4.79205,-0.808598 -0.10774,-0.174329 -2.36233,-0.257618 -5.36889,-0.198337 -2.85074,0.05621 -4.82316,0.04803 -4.38316,-0.01818 0.44,-0.06621 1.16,-0.249847 1.6,-0.408088 1.2531,-0.450663 7.68,-0.732492 7.68,-0.336779 0,0.568689 2.02527,0.36867 3.32601,-0.328483 0.81087,-0.434605 1.3449,-0.554355 1.55137,-0.347882 0.4344,0.434391 0.0146,1.010619 -0.73626,1.010619 -0.34162,0 -0.62112,0.144 -0.62112,0.32 0,0.552501 7.095,0.405867 7.90779,-0.163432 0.44763,-0.313527 0.76188,-0.367454 0.89415,-0.153439 0.12313,0.19924 0.98732,0.264671 2.181,0.165133 3.62337,-0.302141 7.04756,-0.480257 12.53706,-0.652139 2.992,-0.09368 6.412,-0.24014 7.6,-0.325462 1.33936,-0.09619 2.16,-0.0327 2.16,0.167104 0,0.184567 -0.92514,0.322235 -2.16546,0.322235 -1.191,0 -4.395,0.136724 -7.12,0.303832 -2.72499,0.167108 -6.61054,0.383975 -8.63454,0.481928 -2.024,0.09795 -4.256,0.244984 -4.96,0.326737 -0.704,0.08175 -3.28291,0.230545 -5.7309,0.330649 -2.448,0.100104 -4.55121,0.243996 -4.6738,0.319761 -0.12259,0.07576 -1.85696,0.211248 -3.85416,0.301075 -3.87847,0.17444 -8.43752,0.715433 -9.24771,1.097366 -0.27138,0.127933 -0.85343,0.168662 -1.29343,0.09051 z m 13.92,-2.291858 c 0.1188,-0.192216 -0.28896,-0.318044 -1.02111,-0.3151 -0.90481,0.0036 -1.0952,0.08483 -0.73889,0.3151 0.62582,0.404434 1.51005,0.404434 1.76,0 z m -16.56,2.02807 c 0.22,-0.08877 0.58,-0.08877 0.8,0 0.22,0.08877 0.04,0.161403 -0.4,0.161403 -0.44,0 -0.62,-0.07263 -0.4,-0.161403 z M 133.17365,16.757744 c 0.0969,-0.503259 0.47431,-0.595018 2.66961,-0.649078 1.40621,-0.03463 3.49274,-0.135987 4.63674,-0.22524 4.08803,-0.318944 20.11819,-0.962508 22.08,-0.886447 1.96588,0.07622 5.30004,0.01052 7.04,-0.138724 2.90705,-0.249349 11.40325,-0.395714 21.76,-0.374862 4.84,0.0097 9.42328,0.01248 10.18507,0.0061 0.78113,-0.0066 1.26418,0.109272 1.1078,0.265646 -0.1525,0.152504 -4.01579,0.274981 -8.58508,0.272172 -4.56929,-0.0028 -9.45979,-0.0038 -10.86779,-0.0021 -1.408,0.0016 -4.25269,0.0045 -6.32153,0.0062 -2.06884,0.0018 -4.73284,0.142989 -5.92,0.313769 -1.18716,0.17078 -6.98247,0.387102 -12.87847,0.480716 -5.896,0.09361 -11.368,0.237787 -12.16,0.320384 -0.792,0.0826 -3.6,0.306016 -6.24,0.496487 -2.64,0.19047 -5.20933,0.426136 -5.70962,0.523701 -0.75693,0.147616 -0.89066,0.07901 -0.79673,-0.408725 z M 16.64,15.200001 c 0,-0.634843 0.161258,-0.8 0.781114,-0.8 1.035181,0 1.383596,0.629649 0.646612,1.168545 C 17.169066,16.225662 16.64,16.089092 16.64,15.200001 Z m 326.20332,0.422111 c -0.32842,-0.534983 0.95763,-0.6915 5.40954,-0.658357 2.62518,0.01954 4.83136,0.09382 4.90262,0.165052 0.0712,0.07123 -2.18979,0.260395 -5.02445,0.420356 -2.83469,0.15996 -5.21414,0.192788 -5.28771,0.07295 z m -85.855,-0.0771 c 0.0742,-0.07424 0.99824,-0.206223 2.05333,-0.293286 1.19662,-0.09874 1.67756,-0.05642 1.27834,0.112499 -0.64455,0.272721 -3.58306,0.432173 -3.33167,0.180787 z m 4.13167,-0.246347 c 0,-0.142264 0.672,-0.258662 1.49334,-0.258662 0.82133,0 1.40683,0.0865 1.3011,0.192232 -0.29825,0.298249 -2.79444,0.357589 -2.79444,0.06643 z m 92.59335,-0.01415 c -0.0831,-0.134483 0.90137,-0.224904 2.18777,-0.200936 2.40829,0.04487 2.22445,0.175497 -0.48889,0.347395 -0.85127,0.05393 -1.61578,-0.01198 -1.69888,-0.146459 z m 35.88665,-0.268911 c -1.73939,-0.202113 -10.37578,-0.6542 -12.16,-0.636537 -0.176,0.0017 -1.184,0.0175 -2.24,0.03503 -3.39459,0.05633 -13.26688,-0.34251 -20.16,-0.81447 -1.584,-0.108453 -9.828,-0.18743 -18.32,-0.175503 -9.54073,0.0134 -15.44,-0.09433 -15.44,-0.281959 0,-0.176097 1.98266,-0.319475 4.72,-0.341333 2.596,-0.02073 5.296,-0.156837 6,-0.302461 1.19962,-0.248147 1.13936,-0.270404 -0.96,-0.354488 -5.91069,-0.236735 -11.44624,-0.131478 -11.5812,0.220215 -0.0771,0.200847 -0.44135,0.286407 -0.8095,0.190132 -0.45572,-0.119172 -0.59631,-0.05681 -0.44045,0.195363 0.28871,0.46714 1.23383,0.479729 1.69103,0.02252 0.25052,-0.25051 0.41174,-0.244551 0.57606,0.02129 0.29513,0.477573 -0.81047,1.321035 -1.43594,1.095454 -1.29381,-0.466622 -4.04761,-0.791364 -7.98255,-0.941339 -2.3856,-0.09092 -5.27345,-0.285817 -6.41745,-0.433098 -1.144,-0.147281 -3.016,-0.149691 -4.16,-0.0054 -1.144,0.144336 -5.104,0.335947 -8.8,0.425804 -3.696,0.08986 -7.08,0.239515 -7.52,0.332575 -0.44,0.09306 -1.50773,0.263655 -2.37274,0.379099 -1.42503,0.190185 -1.55203,0.155942 -1.35228,-0.364601 0.40188,-1.047285 -0.6293,-1.751927 -2.31086,-1.579097 -0.81626,0.0839 -6.88412,0.214535 -13.48412,0.290309 -11.67875,0.134084 -18.60247,0.369259 -19.46324,0.6611 -0.25814,0.08752 -0.38297,-0.05971 -0.32,-0.377434 0.091,-0.458973 0.94062,-0.531753 7.14324,-0.611886 3.872,-0.05002 9.704,-0.20063 12.96,-0.334681 6.14791,-0.253115 7.21846,-0.248433 14.4,0.06298 2.376,0.103029 7.2,0.178626 10.72,0.167993 3.52,-0.01063 9.4313,-0.0234 13.13622,-0.02836 5.15281,-0.0069 6.87569,-0.111014 7.32956,-0.442891 0.50581,-0.369857 -0.62953,-0.444165 -7.69622,-0.503719 -4.55926,-0.03842 -12.46556,-0.159795 -17.56956,-0.269716 -5.104,-0.109921 -13.456,-0.176609 -18.56,-0.148195 -25.81874,0.14373 -29.64857,0.109709 -30.10298,-0.2674117 -0.47096,-0.3908701 -3.63494,-0.4219811 -17.73702,-0.1744057 -6.87638,0.1207213 -10.24,0.3922044 -10.24,0.8264884 0,0.307872 -5.41441,0.607505 -13.43999,0.743768 -7.99306,0.135711 -14.89911,0.455376 -15.76326,0.729644 -0.86561,0.274736 -0.12072,0.757619 1.20326,0.780016 0.528,0.0089 1.32,0.226707 1.76,0.483946 0.74181,0.43369 0.57889,0.467896 -2.24,0.47031 -1.672,0.0014 -3.4,-0.0143 -3.84,-0.03496 -0.44,-0.02066 -1.016,-0.02837 -1.28,-0.01713 -0.264,0.01124 -4.584,0.0874 -9.6,0.16925 -9.67107,0.157803 -23.15943,0.489683 -28.08,0.690906 -1.628,0.06658 -2.96,0.0068 -2.96,-0.132937 0,-0.959452 10.0389,-1.523993 25.12,-1.412632 5.02402,0.0371 13.50006,-0.06766 14.864,-0.183715 0.30915,-0.0263 0.35727,-0.146206 0.14417,-0.359298 -0.5937,-0.593709 -14.60294,-0.886246 -24.60817,-0.513862 -2.112,0.07861 -7.224,0.0048 -11.36,-0.164062 -9.64816,-0.393858 -10.25129,-0.404884 -17.12,-0.312998 -7.29546,0.0976 -9.58488,0.06895 -9.39833,-0.117601 0.0816,-0.08159 1.58159,-0.234789 3.33334,-0.340446 3.57505,-0.215631 3.98499,-0.299107 3.98499,-0.811463 0,-0.3533115 -1.19476,-0.3214885 -7.84,0.208822 -1.232,0.09832 -4.688,0.234769 -7.68,0.303226 -6.188562,0.141595 -14.102767,0.412783 -19.040002,0.652425 -1.848,0.0897 -3.576,0.158841 -3.84,0.153652 -2.240621,-0.04404 -15.004992,0.07115 -16.64,0.150163 -4.755535,0.229821 -24.950085,0.809052 -27.679999,0.793933 -1.018659,-0.0056 -8.976253,-0.367593 -12.8,-0.582207 -3.63637,-0.204098 -4.615583,-0.166211 -5.199999,0.201197 -0.396,0.248955 -0.72,0.341766 -0.72,0.206247 0,-0.13552 -0.273704,0.0013 -0.608232,0.304042 -0.785296,0.710684 -1.080836,0.219751 -0.63596,-1.05642 0.205691,-0.590044 0.62967,-1.064677 1.036168,-1.15996 1.350191,-0.316483 4.889264,-0.349678 7.408023,-0.06948 4.903708,0.545503 37.261199,0.14984 46.559999,-0.5693297 0.968,-0.074865 3.416,-0.1188544 5.44,-0.097754 2.024,0.021101 4.4,0.017987 5.28,-0.00692 C 85.835006,9.5541786 104.2557,9.2135485 112,9.1040333 c 15.49411,-0.2191078 20.32365,-0.1913837 21.33591,0.1224797 0.55875,0.1732474 1.07505,0.2558608 1.14732,0.1835853 0.0723,-0.072275 2.49512,-0.1132071 5.38409,-0.090958 2.88897,0.02225 5.97268,0.045382 6.85268,0.051407 1.184,0.00811 8.96,-0.3491021 8.96,-0.4115994 0,-0.00504 3.888,-0.078107 8.64,-0.1623792 4.752,-0.084273 8.784,-0.1642348 8.96,-0.1776934 0.176,-0.013459 1.85313,0.00348 3.72696,0.037631 1.87383,0.034156 3.56485,-0.035478 3.75782,-0.1547424 0.19298,-0.119264 1.93589,-0.2125328 3.87315,-0.207264 1.93725,0.00527 3.91823,-0.1476762 4.40217,-0.3398775 0.958,-0.3804755 12.45929,-0.7005965 19.59989,-0.5455328 1.496,0.032487 5.24,-0.1056294 8.32,-0.3069254 3.08,-0.2012957 6.608,-0.3789664 7.84,-0.3948237 6.73434,-0.08668 47.8177,0.3529955 49.66287,0.5314931 1.19742,0.1158359 2.89713,0.1714995 3.77713,0.123697 0.88,-0.047802 2.536,-0.084025 3.68,-0.080494 1.144,0.00353 4.6,0.014006 7.68,0.023283 5.48287,0.016509 16.82282,-0.079119 47.36,-0.399383 8.36,-0.087677 17.2689,-0.2519783 19.79751,-0.365114 4.42825,-0.1981273 4.63334,-0.179224 5.57017,0.513409 0.90602,0.6698407 1.00007,0.681616 1.3728,0.1718634 0.332,-0.4540436 0.90934,-0.54072 3.38986,-0.5089242 1.64432,0.021078 5.72566,0.04558 9.06966,0.054451 3.344,0.00887 8.168,0.031635 10.72,0.050589 2.552,0.018954 5.828,0.023958 7.28,0.011126 l 2.64,-0.023334 v 1.56292 c 0,1.4094747 -0.0864,1.5962087 -0.88,1.9019802 -0.62301,0.240044 -1.53414,0.236531 -3.12,-0.01203 -2.28794,-0.3586004 -11.64528,-0.8382276 -15.68,-0.8037063 -1.232,0.010541 -5.12,0.1349952 -8.64,0.2765645 -8.54137,0.3435218 -31.99715,0.3799128 -36.78569,0.057072 -2.10413,-0.1418595 -6.56813,-0.3117341 -9.92,-0.3774996 -3.35187,-0.065766 -9.04631,-0.1994144 -12.65431,-0.2969971 -3.608,-0.097582 -6.92,-0.1674874 -7.36,-0.155344 -0.44,0.012144 -5.79174,0.052445 -11.89277,0.089558 -6.10103,0.037114 -11.20103,0.1754794 -11.33334,0.3074794 -0.1323,0.132 0.46745,0.2670144 1.33278,0.3000323 0.86533,0.033018 2.07733,0.085562 2.69333,0.1167642 2.52369,0.1278342 4.88223,0.172118 9.44,0.1772448 12.10251,0.013613 23.28069,0.2737048 23.62394,0.5496778 0.20684,0.166291 1.81606,0.329232 3.57606,0.362091 3.82352,0.07138 3.06531,0.06935 10.49485,0.02814 3.30816,-0.01835 6.14029,0.04416 6.2936,0.138913 0.15331,0.09475 3.24278,0.18509 6.86544,0.200753 3.62269,0.01566 6.66707,0.158506 6.76531,0.31743 0.0989,0.160062 -0.79334,0.30296 -2.00032,0.320355 -2.32931,0.03357 -6.55424,0.194109 -6.81888,0.259102 -0.088,0.02161 0.006,0.145091 0.20848,0.274396 0.20266,0.129305 4.01866,0.118982 8.48,-0.02294 9.47043,-0.301268 28.96835,0.0445 31.80595,0.564033 0.53597,0.09812 3.55891,0.261505 6.71773,0.363069 3.83862,0.12342 5.82301,0.308404 5.98371,0.557798 0.29331,0.455172 -0.89286,1.510289 -1.63133,1.451083 -0.28851,-0.02313 -1.53254,-0.159183 -2.76454,-0.302338 z M 176.32,12.48 c 0,-0.176 -0.216,-0.32 -0.48,-0.32 -0.264,0 -0.48,0.144 -0.48,0.32 0,0.176 0.216,0.32 0.48,0.32 0.264,0 0.48,-0.144 0.48,-0.32 z m 161.57334,-0.12656 c -0.28996,-0.275215 -2.41869,-0.389088 -3.17335,-0.169752 -0.55165,0.160336 -0.16256,0.242419 1.25335,0.264415 1.12931,0.01754 1.99331,-0.02506 1.92,-0.09466 z m 2.02665,-0.08537 c -0.22,-0.08877 -0.58,-0.08877 -0.8,0 -0.22,0.08877 -0.04,0.161403 0.4,0.161403 0.44,0 0.62,-0.07263 0.4,-0.161403 z m -129.68,-3.3423071 c 0,-0.3295741 -0.10106,-0.3404061 -4.16,-0.4458689 -3.24162,-0.084227 -6.21347,0.1333002 -5.91389,0.432873 0.21095,0.2109562 9.07764,0.593106 9.67389,0.4169405 0.22,-0.065 0.4,-0.2467747 0.4,-0.4039446 z M 204.79987,13.36 c 7e-5,-0.132 0.46812,-0.260896 1.04012,-0.286435 1.58172,-0.07062 2.88107,-0.13312 7.76,-0.373258 2.464,-0.121276 6.712,-0.295457 9.44,-0.387067 2.728,-0.09161 6.4,-0.271567 8.16,-0.399903 3.33342,-0.243066 11.6806,-0.179412 11.95115,0.09114 0.47433,0.474331 -0.84082,0.554523 -15.79115,0.962878 -3.696,0.100954 -8.592,0.248586 -10.88,0.328073 -8.11246,0.281834 -11.68024,0.301559 -11.68012,0.06457 z M 109.12,11.52 c 0.62895,-0.406464 1.6,-0.406464 1.6,0 0,0.176 -0.468,0.317795 -1.04,0.3151 -0.78919,-0.0037 -0.92425,-0.07971 -0.56,-0.3151 z" id="path12" style="fill:#000000;stroke-width:0.31999999" inkscape:connector-curvature="0"/>
</svg>
