<?xml version="1.0" encoding="utf-8"?>

<svg xmlns="http://www.w3.org/2000/svg" version="1.1" viewBox="0 0 1179 723">











	<path d="m 210.26903,722.30701 c 0.97297,-0.25354 2.32297,-0.23687 3,0.0371 0.67703,0.27393 -0.11903,0.48137 -1.76903,0.46099 -1.65,-0.0204 -2.20394,-0.2445 -1.23097,-0.49804 z m 224.98097,0.004 c 0.9625,-0.25152 2.5375,-0.25152 3.5,0 0.9625,0.25153 0.175,0.45733 -1.75,0.45733 -1.925,0 -2.7125,-0.2058 -1.75,-0.45733 z m 23.01903,-0.004 c 0.97297,-0.25354 2.32297,-0.23687 3,0.0371 0.67703,0.27393 -0.11903,0.48137 -1.76903,0.46099 -1.65,-0.0204 -2.20394,-0.2445 -1.23097,-0.49804 z M 1069,716.23664 c -8.3648,-0.88119 -11,-1.49157 -11.0001,-2.54791 0,-1.1149 23.4025,-1.25981 64.662,-0.4004 9.9271,0.20678 12.6605,-0.36589 10.7701,-2.25634 -1.2459,-1.24591 -6.8191,-1.33662 -32.932,-0.53601 -24.4902,0.75086 -22.7166,0.74716 -27.5,0.0572 -13.33,-1.92261 -28.4483,-3.05792 -34,-2.55322 -3.025,0.275 -8.6701,0.35419 -12.5447,0.17599 -5.9541,-0.27385 -7.1927,-0.64236 -8,-2.38028 -0.9038,-1.94537 -1.7148,-2.04679 -15.0387,-1.88077 -19.86738,0.24756 -20.26011,-0.20982 -17.58408,-20.47849 0.58553,-4.43495 1.78949,-10.19863 2.67545,-12.80818 1.22595,-3.61095 1.50774,-7.3456 1.17934,-15.63013 -0.23732,-5.98703 -0.21891,-11.99759 0.0409,-13.35679 0.25983,-1.3592 2.93693,-5.32204 5.94911,-8.80631 3.01219,-3.48427 6.08418,-7.70438 6.82658,-9.37802 2.3152,-5.21895 2.8173,-14.98716 1.5038,-29.2549 -1.9852,-21.56406 0.7055,-54.18191 4.9628,-60.16074 3.1443,-4.41572 3.5611,-7.83938 1.2598,-10.34674 -3.9803,-4.33649 -4.5576,-14.59066 -1.2225,-21.71131 2.2392,-4.78078 5.2967,-7.47223 11.9922,-10.55649 1.375,-0.63339 4.5248,-3.01354 6.9996,-5.28923 5.9436,-5.46557 10.8971,-5.84992 5.8261,-0.45206 -2.384,2.53761 -1.3563,2.96895 2.6858,1.12726 2.1307,-0.97081 3.5878,-0.85333 7.9946,0.64459 4.4802,1.52286 5.44,2.26971 5.6914,4.42864 0.194,1.66546 1.0198,2.73108 2.3025,2.97109 3.6307,0.67937 4.7773,4.6027 1.6364,5.59957 -1.3593,0.43143 -2.0189,1.90365 -2.4379,5.44116 -0.3159,2.66733 -1.5006,6.36899 -2.6327,8.22591 -2.7549,4.51878 -2.639,5.20168 1.4067,8.28745 l 3.4725,2.6486 3.9253,-2.47792 c 2.1589,-1.36286 5.2088,-4.34782 6.7775,-6.63324 1.5687,-2.28542 3.9888,-5.57131 5.3781,-7.30198 1.3892,-1.73068 3.1168,-4.31702 3.8391,-5.74745 2.3651,-4.68387 8.672,-12.37896 10.422,-12.71598 1.259,-0.24247 1.713,0.35209 1.713,2.24343 0,3.03453 1.5041,3.25429 6.3752,0.93145 7.6117,-3.62979 8.737,1.0041 2.1248,8.75045 -2.475,2.89953 -4.5,5.585 -4.5,5.96771 0,0.3827 -1.575,1.44321 -3.5,2.35669 -1.925,0.91347 -3.5,2.10796 -3.5,2.65443 0,0.54647 -0.8459,2.21285 -1.8798,3.70308 -1.0339,1.49023 -3.325,5.01852 -5.0914,7.84063 -1.7664,2.82212 -4.2954,5.62497 -5.6202,6.22856 -3.729,1.69907 -2.8809,3.54384 2.7165,5.90866 l 5.125,2.16527 8.125,-2.59829 c 10.0331,-3.20852 11.7942,-4.00896 15.3228,-6.96463 3.7023,-3.10122 10.185,-7.37069 11.1915,-7.37069 0.4404,0 1.6151,-0.9 2.6106,-2 1.9605,-2.16629 4.9875,-2.63831 6.0363,-0.94128 0.3599,0.5823 -0.5136,2.74398 -1.941,4.80375 -2.9937,4.31985 -3.168,5.13753 -1.0953,5.13753 0.825,0 1.495,0.7875 1.489,1.75 -0.01,1.58818 -3.0574,3.87416 -15.9545,11.9682 -5.9152,3.7123 -13.1537,6.88371 -21.0345,9.21584 -4.125,1.2207 -8.1132,2.41524 -8.8626,2.65454 -0.9477,0.3026 -1.057,0.81212 -0.3588,1.67325 2.8478,3.51271 3.9442,10.30839 3.1846,19.73817 -1.0013,12.43041 -1.9015,15.80295 -6.1393,23 -0.4858,0.825 -1.8824,3.59012 -3.1036,6.14471 -1.3063,2.73274 -3.4552,5.31943 -5.2203,6.28379 -1.65,0.9015 -5.9083,4.32079 -9.4628,7.59843 -7.1034,6.54995 -6.7927,5.47059 -5.4604,18.97307 0.2443,2.475 -0.067,6.75 -0.6918,9.5 -1.5533,6.83712 -5.9597,19.66887 -7.3832,21.5 -0.6413,0.825 -2.3125,3.75 -3.7137,6.5 -1.4012,2.75 -3.4909,6.575 -4.6437,8.5 -4.1621,6.94983 -7.1444,12.96262 -7.1444,14.40437 0,1.18715 2.1365,1.53112 11.0764,1.78325 6.092,0.17181 11.8868,0.01 12.8773,-0.35999 0.9904,-0.36981 3.5436,-0.26699 5.6736,0.22847 5.131,1.19355 12.6965,1.90336 25.4142,2.3844 5.7522,0.21757 11.8085,0.85976 13.4585,1.42708 1.65,0.56732 10.425,1.26107 19.5,1.54165 13.2196,0.40874 28.74,1.02442 38.6334,1.53256 1.7303,0.0889 2.2499,4.77974 0.7645,6.90055 -1.1848,1.69151 -3.0582,1.91789 -18.6077,2.24854 -20.3375,0.43247 -60.2038,0.52356 -63.7902,0.14576 z M 1015.6413,695.5 c 0.6628,-2.2 1.2396,-5.11545 1.2818,-6.47879 0.071,-2.28037 1.8085,-7.4704 7.3732,-22.02121 1.1569,-3.025 2.4635,-5.9275 2.9035,-6.45 0.4401,-0.5225 0.8155,-1.6475 0.8341,-2.5 0.019,-0.8525 0.9034,-3.35 1.9661,-5.55 2.6497,-5.48563 2.4628,-11.10137 -0.5327,-16 -1.3453,-2.2 -2.8897,-5.0125 -3.4319,-6.25 -0.5422,-1.2375 -1.4416,-2.25 -1.9986,-2.25 -1.0551,0 -12.1501,13.50382 -14.2264,17.31504 -0.6546,1.20173 -1.3033,6.00996 -1.4415,10.68496 -0.2515,8.5102 -0.4208,9.77034 -1.8138,13.5 -1.5079,4.0373 -1.7768,5.06945 -2.2149,8.5 -0.6008,4.70415 -2.2431,8.74878 -3.7942,9.34397 -0.69897,0.26822 -2.66944,2.76066 -4.37881,5.53874 -3.91601,6.36433 -3.28203,6.82953 9.14061,6.70719 l 9.1285,-0.0899 z m -22.75996,-6.68984 C 996.4438,685.1664 996.76355,684 994.2,684 c -0.99,0 -2.28921,-0.48921 -2.88713,-1.08713 -0.73653,-0.73653 -1.29229,-0.75519 -1.72327,-0.0579 -0.95694,1.54837 -1.43505,9.14498 -0.57556,9.14498 0.41176,0 2.15204,-1.43543 3.8673,-3.18984 z m 38.87596,-14.86187 c 10.1137,-19.39988 10.6362,-21.29261 10.693,-38.73352 0.052,-15.96772 0.4882,-17.56662 4.5065,-16.51581 3.4711,0.9077 22.9176,-23.15793 20.5921,-25.48337 -0.2407,-0.24075 0.4422,-2.78959 1.5177,-5.66408 2.5793,-6.89378 3.8837,-20.52967 2.4892,-26.02176 -1.2414,-4.88889 -6.3656,-11.14396 -11.2927,-13.78472 -3.3628,-1.80234 -3.5222,-1.79804 -7.6644,0.20718 -2.3266,1.12628 -5.1271,2.04779 -6.2233,2.04779 -4.3841,0 -5.4801,2.02049 -4.6117,8.50126 0.4882,3.64325 0.3599,9.33639 -0.3266,14.49874 -0.6218,4.675 -0.9438,9.01698 -0.7156,9.64885 0.2282,0.63187 -0.046,1.43367 -0.6093,1.78178 -0.5632,0.34811 -1.5602,3.35821 -2.2155,6.6891 -1.0522,5.34796 -2.9595,8.15077 -4.4991,6.61124 -0.2838,-0.28386 0.2062,-3.15195 1.0891,-6.37354 0.8828,-3.22159 2.2209,-8.10037 2.9735,-10.84174 0.8624,-3.14133 1.3076,-9.42717 1.2041,-17 L 1038.5,551.5 h -6.9765 c -5.6013,0 -7.0394,-0.31598 -7.295,-1.60284 -0.2524,-1.27025 0.884,-1.73039 5.4765,-2.21751 6.3197,-0.67033 20.1961,-4.01365 23.0245,-5.54744 0.9738,-0.52805 3.0922,-2.34882 4.7076,-4.04615 1.6154,-1.69733 3.3496,-3.08606 3.8538,-3.08606 0.5042,0 3.795,-2.77912 7.3129,-6.17581 7.3268,-7.07434 8.18,-10.00671 3.3967,-11.67417 -2.7243,-0.94971 -3.3903,-0.70644 -7.2601,2.65218 -2.3434,2.03379 -5.2686,4.7103 -6.5005,5.9478 -1.232,1.2375 -2.8452,2.25 -3.5849,2.25 -0.7398,0 -2.1427,0.88141 -3.1176,1.9587 -1.9128,2.11362 -8.6157,4.55562 -15.0374,5.47843 -9.2008,1.32218 -13.7545,1.61688 -15.6564,1.01324 -4.0743,-1.29315 1.381,-3.22433 11.1815,-3.9582 11.8164,-0.88483 16.3719,-2.27243 16.7771,-5.11021 0.2896,-2.02867 -3.9011,-6.58078 -7.0153,-7.62022 -0.9111,-0.30413 -0.447,-1.64198 1.5895,-4.58186 2.242,-3.23636 2.9426,-5.47941 3.1762,-10.16852 0.3304,-6.63245 -0.7323,-8.54071 -5.3725,-9.64775 -1.4741,-0.35166 -3.1301,-0.96571 -3.6801,-1.36455 -0.55,-0.39884 -4.084,-0.99921 -7.8534,-1.33414 -6.3432,-0.56365 -7.1106,-0.41279 -10.3089,2.0267 -3.1523,2.40435 -7.2509,8.30838 -5.7677,8.30838 0.3418,0 1.8782,-0.74239 3.4142,-1.64976 2.8601,-1.68945 6.0158,-1.30894 6.0158,0.72536 0,0.62611 -0.5948,0.91013 -1.3218,0.63117 -0.7269,-0.27897 -1.8348,0.31434 -2.4619,1.31847 -0.6271,1.00412 -2.1395,1.97172 -3.3609,2.15022 -3.016,0.44075 -4.013,4.70632 -2.6668,11.40942 1.143,5.69167 3.3326,8.01474 8.1637,8.66172 4.4846,0.60056 3.9447,1.52487 -1.3129,2.24798 -5.8587,0.80578 -7.0973,2.40647 -8.9021,11.50542 -0.6001,3.025 -1.3701,6.85 -1.7112,8.5 -0.3411,1.65 -0.6118,4.125 -0.6016,5.5 0.025,3.35758 0.019,32.2358 -0.01,33.5 -0.011,0.55 0.3109,7.58784 0.7161,15.63965 0.7286,14.47798 0.7098,14.67677 -1.6991,18 -1.3397,1.84819 -3.0625,4.61849 -3.8286,6.15622 -0.766,1.53773 -2.8313,4.27707 -4.58948,6.08743 -6.1543,6.33688 -8.01817,12.88503 -6.55702,23.03618 0.50304,3.4948 0.4661,7.59091 -0.0902,10 -0.51822,2.24429 -1.15173,5.17399 -1.40781,6.51045 -0.25607,1.33646 -0.65649,2.73882 -0.88982,3.11635 -0.89694,1.45128 3.43288,4.09434 6.19017,3.77868 2.41269,-0.27622 2.96807,-0.92493 3.70276,-4.32496 0.4754,-2.2 1.2346,-4.9 1.6872,-6 1.5925,-3.87078 1.9836,-6.25306 2.4388,-14.85511 0.5246,-9.91328 1.061,-11.23649 7.3973,-18.25081 2.5368,-2.80826 6.1003,-6.97076 7.9189,-9.25 1.8185,-2.27925 3.9138,-4.14408 4.6562,-4.14408 1.3897,0 7.8335,8.03833 10.595,13.21683 1.8965,3.55632 1.5562,10.1626 -0.7964,15.45862 -0.9344,2.1035 -1.7564,4.27455 -1.8267,4.82455 -0.1763,1.37881 -1.3946,4.65155 -2.5076,6.73643 -0.5098,0.95504 -0.9371,2.30504 -0.9494,3 -0.012,0.69496 -1.3522,3.96357 -2.9776,7.26357 -2.9044,5.89693 -3.6711,9.49555 -2.3125,10.85417 1.4487,1.44873 2.7939,-0.28579 8.0698,-10.40588 z M 1065,559 c 0,-0.55 0.675,-1 1.5,-1 0.825,0 1.5,0.45 1.5,1 0,0.55 -0.675,1 -1.5,1 -0.825,0 -1.5,-0.45 -1.5,-1 z m -40,-39.58842 -4.5,-2.43678 4.25,0.42677 c 4.3203,0.43383 5.1358,-0.11578 3.1371,-2.11444 -1.581,-1.58101 -0.2558,-3.19631 2.1139,-2.57662 2.0162,0.52726 2.8551,3.28949 0.999,3.28949 -0.55,0 -1,0.50008 -1,1.11129 0,0.72845 1.2058,0.88509 3.5,0.45469 4.2692,-0.80092 4.9281,1.46231 0.9529,3.2735 -3.3897,1.54447 -4.1859,1.4242 -9.4529,-1.4279 z m 8,-17.3764 c 0,-1.19263 3.9629,-3.40564 4.7281,-2.64037 0.826,0.82594 -1.757,3.60519 -3.3505,3.60519 -0.7577,0 -1.3776,-0.43417 -1.3776,-0.96482 z m 47.6279,47.3611 c 12.7253,-5.27045 21.1112,-9.47174 22.9601,-11.5029 1.2611,-1.38542 1.2671,-1.76876 0.043,-2.78436 -1.0957,-0.90933 -2.298,-0.8569 -5.2753,0.23006 -8.8282,3.22305 -19.2723,5.91243 -21.0028,5.40824 -1.0193,-0.29699 -3.9002,-1.32513 -6.4021,-2.28476 -4.5089,-1.7295 -4.581,-1.72384 -8.2376,0.64633 -2.0289,1.31511 -3.6944,2.70699 -3.7012,3.09307 -0.013,0.73277 8.3229,6.79707 10.966,7.97775 2.6279,1.1739 6.6354,0.87908 10.6495,-0.78343 z M 1080.1633,513.5 c 1.1731,-1.41057 1.3607,-2.36515 0.6367,-3.23899 -0.5646,-0.68144 -1.4453,-0.9802 -1.9571,-0.66391 -0.5118,0.31629 -1.5858,0.0312 -2.3867,-0.63345 -1.1403,-0.94637 -1.7816,-0.93849 -2.9562,0.0364 -2.0001,1.65993 -1.8965,3.9806 0.25,5.59891 2.2882,1.72515 4.3599,1.37016 6.4133,-1.09891 z m 9.2455,-10.3844 c 2.5588,-2.68878 2.7011,-3.1362 1.1825,-3.71893 -0.9494,-0.36433 -2.7672,-0.10528 -4.0396,0.57566 -1.2724,0.68095 -3.2291,0.94744 -4.3484,0.5922 -3.023,-0.95947 -3.3898,0.70105 -0.9222,4.17448 2.468,3.47399 3.4665,3.27455 8.1277,-1.62341 z M 938.45817,673.13178 c 0.64658,-2.03718 0.35187,-2.13648 -6.64078,-2.23774 -4.02457,-0.0583 -8.54471,-0.0254 -10.04477,0.073 -1.50007,0.0984 -3.20942,-0.11895 -3.79856,-0.48306 C 916.33015,669.46798 918.82786,667 921.5,667 c 3.22882,0 4.23075,-1.66878 6.32136,-10.52862 l 1.85595,-7.86538 -2.22327,-6.053 c -4.53101,-12.33602 -6.69464,-19.3143 -9.16297,-29.553 -3.05384,-12.66741 -3.65723,-13.64533 -7.0484,-11.42335 -1.36127,0.89194 -4.33525,1.81199 -6.60885,2.04456 -17.66773,1.80723 -32.91145,5.6833 -41.63382,10.58638 -3.025,1.70043 -5.725,3.00239 -6,2.89325 -0.275,-0.10914 -1.46646,-0.83168 -2.6477,-1.60566 -1.89625,-1.24247 -2.40125,-1.18732 -4.3134,0.47108 -2.7128,2.3528 -6.63017,1.77897 -10.0389,-1.47054 -1.375,-1.31077 -4.075,-2.64375 -6,-2.96217 -6.77392,-1.12049 -9.13362,-2.57521 -8.80261,-5.42666 0.27794,-2.39434 0.66952,-2.59939 4.80261,-2.51493 2.475,0.0506 6.075,0.30765 8,0.57127 2.42903,0.33263 5.02995,-0.26379 8.5,-1.94915 2.75,-1.33564 6.35,-3.02059 8,-3.74432 10.15024,-4.45217 16.49159,-8.1309 21.50973,-12.47819 5.86772,-5.08329 12.24994,-8.38685 18.44972,-9.54994 1.9473,-0.36532 3.54055,-0.88352 3.54055,-1.15157 0,-0.26805 -3.15,-3.41663 -7,-6.99684 -3.85,-3.58021 -7,-7.34798 -7,-8.37283 0,-1.02485 -1.04995,-4.23869 -2.33323,-7.14188 -3.88961,-8.79955 -4.1356,-13.09451 -1.11559,-19.47828 2.18108,-4.61043 2.42615,-5.94074 1.50436,-8.16614 -1.6087,-3.88376 -5.2996,-8.20228 -7.25442,-8.48803 -2.35989,-0.34495 -13.45975,-13.45519 -15.0449,-17.76979 -0.3281,-0.89305 -2.19168,-1.92298 -4.1413,-2.28873 -4.12494,-0.77385 -4.41316,-1.11425 -5.00868,-5.91564 -0.24596,-1.98305 -0.70303,-4.01949 -1.01571,-4.52542 -1.47004,-2.37857 6.31295,-5.07159 8.51571,-2.94656 0.76657,0.73952 3.95765,3.03044 7.09129,5.09095 3.13363,2.06051 8.01304,6.40858 10.84311,9.66239 2.83007,3.2538 6.34119,6.35475 7.80247,6.89099 2.86632,1.05184 7.6624,5.23777 8.4242,7.35248 0.32513,0.90255 1.4476,0.3856 3.65063,-1.68128 2.55407,-2.39624 3.04597,-3.4804 2.49543,-5.5 -1.19275,-4.37547 -0.41458,-9.15725 2.22252,-13.65711 1.40478,-2.39709 3.29889,-4.41025 4.20913,-4.47369 0.91024,-0.0634 2.10498,-0.2199 2.65498,-0.34769 0.55,-0.12778 1.82043,-0.30087 2.82317,-0.38465 1.00274,-0.0838 3.41721,-1.92797 5.36549,-4.09822 2.97452,-3.31342 6.63694,-5.21331 10.59781,-5.49763 0.43257,-0.031 1.10757,-0.51562 1.5,-1.07681 0.93597,-1.33845 5.85338,-3.47965 7.99126,-3.47965 3.4538,0 12.20429,4.368 12.85449,6.4166 0.35911,1.13144 1.69166,3.63806 2.96124,5.57028 3.19722,4.86598 4.73092,11.95141 2.7514,12.71103 C 951.89389,497.63843 948,495.26828 948,492.83589 c 0,-1.21384 -0.97844,-3.24849 -2.17431,-4.52144 L 943.65137,486 h 2.23333 c 1.23425,0 1.95685,-0.44735 1.6153,-1 -0.33992,-0.55 -1.37898,-1.00129 -2.30902,-1.00288 -0.93004,-0.002 -2.59098,-1.35079 -3.69098,-2.99824 -2.48968,-3.72877 -7.35456,-4.91459 -10.66104,-2.59864 -1.25618,0.87987 -3.09349,1.59976 -4.08291,1.59976 -2.16989,0 -9.4032,4.6381 -10.11137,6.48356 -0.27798,0.72441 -2.44926,1.63922 -4.82505,2.03291 -6.13713,1.01696 -7.29098,1.85168 -8.77486,6.34787 -1.60903,4.87541 -0.9313,7.18025 1.89406,6.44141 2.40534,-0.62902 2.72371,0.8995 0.56117,2.69425 -0.825,0.68469 -1.5,1.54277 -1.5,1.90684 0,1.0295 5.73526,4.1664 7.06382,3.86355 0.6524,-0.14871 1.39243,0.29211 1.64451,0.97961 0.5719,1.55971 -2.74972,1.64389 -6.02267,0.15264 -3.15322,-1.4367 -6.50351,0.28546 -13.35383,6.86431 -4.22374,4.05636 -5.54811,6.19345 -7.24727,11.69469 -3.55982,11.52538 -2.57256,21.53939 3.10932,31.53836 2.53771,4.46586 11.90782,12.2476 19.45079,16.15358 3.22043,1.66764 6.41783,3.49541 7.10533,4.06169 1.54034,1.26877 3.8668,-0.43255 4.85679,-3.55174 0.37633,-1.18572 1.40626,-2.70422 2.28873,-3.37444 1.42581,-1.08288 1.27041,-1.4969 -1.39552,-3.71787 -1.65,-1.37461 -3.3755,-2.51548 -3.83445,-2.53526 -0.45895,-0.0198 -3.57061,-2.17346 -6.91481,-4.78596 -7.27951,-5.6868 -13.38143,-14.60448 -14.33243,-20.94621 -1.24045,-8.2719 3.97453,-21.71627 9.93482,-25.61222 3.76511,-2.46107 6.64687,-3.01515 6.64687,-1.27801 0,0.85158 -1.0125,1.80512 -2.25,2.11897 -1.36864,0.34711 -3.37401,2.59302 -5.11945,5.73351 -2.35711,4.24106 -2.93415,6.62177 -3.23185,13.33375 -0.34468,7.77128 -0.22034,8.34964 2.54258,11.82632 5.10613,6.42523 10.47846,11.29028 15.58722,14.11541 2.73433,1.51208 6.41785,4.21987 8.1856,6.01732 3.31286,3.36852 18.52024,10.0324 20.33501,8.91081 1.29868,-0.80263 -0.59637,-4.2325 -4.4376,-8.03165 -3.06664,-3.03304 -3.096,-3.16071 -3.10372,-13.5 -0.007,-9.18141 -0.27566,-10.81353 -2.23288,-13.55739 -1.22381,-1.71567 -2.68362,-4.3254 -3.24404,-5.79941 -0.9812,-2.58076 -1.22284,-2.65619 -6.5249,-2.03688 -7.12899,0.8327 -7.18944,-0.68932 -0.15948,-4.01502 5.92112,-2.80114 7.31176,-3.05455 7.85295,-1.43097 0.21988,0.65963 3.86874,1.19877 9.13533,1.34979 l 8.76922,0.25146 1.52036,-2.94004 c 3.18077,-6.15094 -0.56856,-7.07478 -17.02804,-4.19575 -8.00912,1.40093 -9.05809,1.403 -10.44047,0.0206 -0.84524,-0.84524 -1.18895,-1.88501 -0.76382,-2.3106 0.42514,-0.4256 8.80062,-0.85162 18.61218,-0.94672 10.4837,-0.10162 18.66903,-0.61702 19.85176,-1.25 4.0614,-2.1736 8.92326,-0.45631 6.25691,2.21004 -1.58581,1.58581 -1.38292,2.40899 0.72994,2.96151 3.1364,0.82019 1.1698,8.41587 -2.5446,9.82808 -3.63601,1.38241 -10.43064,1.10267 -13.61981,-0.56072 -3.20462,-1.67146 -15.14478,-1.44962 -16.90855,0.31415 -0.74514,0.74514 -0.30171,2.63074 1.49668,6.36435 2.81153,5.83695 4.58582,14.06655 4.39946,20.40579 -0.10465,3.56 0.50237,4.79311 4.60674,9.35815 C 955.66046,574.83866 957.57627,580 955,580 c -0.55,0 -1,1.125 -1,2.5 0,2.8766 -0.97448,3.08168 -4.92825,1.0371 -2.54579,-1.31648 -2.97495,-1.29146 -4.2879,0.25 -0.80243,0.9421 -1.98977,4.19063 -2.63854,7.21896 -0.64876,3.02834 -1.88485,6.85334 -2.74686,8.5 -1.85887,3.55092 -1.33638,9.50378 1.49165,16.99474 1.03802,2.74956 2.10425,6.7992 2.36939,8.9992 0.26513,2.2 0.94555,5.125 1.51203,6.5 1.7362,4.21424 4.22848,13.12295 4.22848,15.11483 0,1.1994 -0.70608,1.88517 -1.94098,1.88517 -2.82647,0 -3.35192,1.548 -1.894,5.57982 1.21358,3.35609 1.14301,3.68039 -1.18738,5.45657 -1.3627,1.03863 -3.71514,2.16609 -5.22764,2.50547 -1.5125,0.33938 -2.75,1.20946 -2.75,1.93351 0,0.92884 2.42918,1.51105 8.25,1.97731 13.08239,1.04792 24.17369,2.61511 25.13278,3.55124 0.48553,0.47391 0.60101,1.59594 0.25662,2.49341 -0.53649,1.39808 -2.3099,1.60196 -12.38279,1.42362 -6.46613,-0.11448 -13.49326,0.14077 -15.61582,0.56723 -3.62946,0.72922 -3.81893,0.64847 -3.18262,-1.3564 z M 939.75,658.87832 c 2.78867,-1.02724 2.90237,-3.97795 0.24594,-6.382 -2.80398,-2.53756 -6.25567,-0.81498 -7.68247,3.83397 -0.60058,1.95684 -0.84999,3.79986 -0.55425,4.09559 0.56194,0.56194 4.15119,-0.13318 7.99078,-1.54756 z M 943.31165,642.5 c -0.10359,-1.1 -0.94427,-4.475 -1.86817,-7.5 -2.86263,-9.37264 -6.27558,-23.14379 -6.94864,-28.03749 -0.45853,-3.33397 -0.16318,-5.78889 1.03081,-8.56771 0.92043,-2.14214 2.52544,-6.80698 3.56669,-10.36632 1.50041,-5.12888 1.63536,-6.703 0.65043,-7.58726 -1.94276,-1.74418 -11.86015,-5.48671 -12.87586,-4.85896 -0.50142,0.30989 -2.30244,3.31854 -4.00227,6.68589 -2.91918,5.78286 -3.0621,6.59695 -2.57679,14.67715 0.56427,9.39483 0.62835,9.72165 3.71524,18.94836 2.68402,8.02253 4.598,10.96812 7.61962,11.72649 2.6195,0.65746 3.25444,2.37985 0.87729,2.37985 -0.825,0 -1.5,0.27254 -1.5,0.60566 0,1.08417 3.16526,12.85272 3.68153,13.68807 0.27612,0.44676 2.37323,0.67594 4.66025,0.50928 3.46758,-0.25268 4.12694,-0.63519 3.96987,-2.30301 z m -94.74931,-30.60087 c 1.33283,-2.15657 -3.09851,-5.08507 -7.93755,-5.24562 -2.54466,-0.0844 -4.62624,0.0953 -4.62572,0.39943 0.001,0.7508 9.20158,5.8194 10.69191,5.89036 0.65504,0.0312 1.49715,-0.43869 1.87136,-1.04417 z m 20.59828,-3.49616 C 878.02233,604.99701 895.24576,601 901.06059,601 c 2.52796,0 13.70011,-4.21239 14.00182,-5.2793 0.0343,-0.12138 0.29311,-2.24803 0.57505,-4.72588 0.60947,-5.35612 -1.15727,-7.43157 -9.13746,-10.7341 -4.5887,-1.89899 -5.53469,-1.96561 -11.5,-0.80984 -7.70341,1.49251 -12.75483,4.27798 -19.36662,10.67921 -2.67664,2.5914 -6.02419,5.00217 -7.439,5.35726 -1.41482,0.3551 -3.7943,1.51571 -5.28776,2.57914 C 861.41317,599.12992 859.65519,600 859,600 c -1.65723,0 -7,3.91916 -7,5.13482 0,0.54924 1.19472,2.56499 2.65494,4.47943 1.84519,2.41917 3.14144,3.27289 4.25,2.7991 0.87728,-0.37494 5.49234,-2.17961 10.25568,-4.01038 z M 833,607 c 0,-0.55 -0.45,-1 -1,-1 -0.55,0 -1,0.45 -1,1 0,0.55 0.45,1 1,1 0.55,0 1,-0.45 1,-1 z m 131,-79.20578 c 0,-3.48249 -1.88629,-3.35714 -3.69738,0.24569 -0.86207,1.71493 -0.89492,2.74641 -0.11732,3.68336 1.61346,1.9441 3.8147,-0.32313 3.8147,-3.92905 z m -76.31445,-8.96853 C 890.33158,516.33987 890.64009,515 888.56642,515 c -0.82053,0 -1.56889,-1.176 -1.75,-2.75 -0.25479,-2.21442 -1.47768,-3.36663 -6.27908,-5.91618 -3.27946,-1.7414 -7.44473,-4.8317 -9.25615,-6.86734 -2.73554,-3.07413 -3.54658,-3.49112 -4.78735,-2.46137 -0.82161,0.68188 -1.49384,1.62258 -1.49384,2.09046 0,0.46787 3.60726,4.80027 8.01614,9.62755 4.40888,4.82728 8.68388,9.56438 9.5,10.52688 1.90162,2.24269 2.37157,2.20412 5.16941,-0.42431 z M 892,662.01842 c 0,-0.87015 5.37321,-1.96656 11.82745,-2.4134 2.05755,-0.14245 3.17255,0.23982 3.17255,1.08767 0,1.54515 0.30394,1.47542 -8.25,1.89249 -3.7125,0.18101 -6.75,-0.074 -6.75,-0.56676 z m 8.88842,-5.39347 C 897.57338,654.89517 886.16563,653.46653 872.25,653.03845 870.64837,652.98918 870.59919,650 872.2,650 c 0.82232,0 0.87623,-0.32377 0.1713,-1.0287 -0.60973,-0.60973 -8.06939,-1.10684 -18.31602,-1.22056 -12.97661,-0.14403 -17.40975,-0.51091 -17.77829,-1.47131 C 836.00696,645.57575 834.70917,645 833.39301,645 832.07686,645 831,644.61268 831,644.13929 c 0,-2.05746 16.19509,-2.36533 40,-0.76039 8.30455,0.5599 10.50669,1.13243 17.5,4.54975 4.4,2.15009 10.1375,4.82042 12.75,5.93407 2.6125,1.11365 4.75,2.50012 4.75,3.08105 0,1.43984 -1.9776,1.3165 -5.11158,-0.31882 z M 859.5445,654.072 c -0.72675,-1.17591 3.06156,-2.4335 4.55331,-1.51155 0.78481,0.48504 0.71331,0.94452 -0.24105,1.54924 -1.78501,1.13104 -3.59975,1.11518 -4.31226,-0.0377 z M 638.67582,638.5976 c -0.32366,-0.84345 -0.23492,-1.75206 0.1972,-2.01912 1.0111,-0.62489 12.8606,-2.35551 16.12698,-2.35535 6.07539,3.1e-4 26.77764,-1.43783 29.5,-2.0493 5.02882,-1.12953 15.5,-0.27366 15.5,1.2669 0,1.60654 -2.25261,2.6402 -3.74127,1.71675 -1.33764,-0.82976 -19.06702,0.21454 -30.25873,1.78231 -4.675,0.65489 -10.88545,1.35067 -13.801,1.54618 -2.91555,0.19551 -7.01859,0.64565 -9.11785,1.00032 -2.92782,0.49465 -3.95392,0.28766 -4.40533,-0.88869 z M 737.5,632.01389 c -1.1,-0.48032 -4.55821,-0.90495 -7.6849,-0.9436 C 723.71304,630.99484 719,629.67448 719,628.04042 c 0,-1.02564 11.13146,-0.8081 16,0.31269 8.26685,1.90311 21.20016,0.99408 40,-2.81144 4.96418,-1.00487 10.37393,-1.33946 16,-0.98961 5.76796,0.35868 10.4285,0.0537 14.5,-0.94892 5.26379,-1.2962 6.27608,-1.29832 8.25,-0.0173 2.70569,1.75596 2.83207,2.31534 0.5,2.2131 -13.2237,-0.57979 -51.3322,3.30164 -55.1158,5.61366 -1.46173,0.89321 -19.79853,1.40282 -21.6342,0.60125 z M 475.39774,603.6657 c -2.03292,-1.74865 -2.87833,-3.61689 -3.36961,-7.44644 -0.79885,-6.22702 0.27485,-8.51354 5.66772,-12.06973 13.67775,-9.01946 13.53242,-8.88361 14.06649,-13.14953 0.17215,-1.375 0.72981,-3.85 1.23925,-5.5 1.12902,-3.6567 1.90649,-10.91512 2.5211,-23.53672 C 496.00543,532.04975 494.82897,528 491.46635,528 c -0.78113,0 -2.14587,-1.10745 -3.03276,-2.46101 -1.42454,-2.17412 -3.66848,-3.49803 -6.96056,-4.10668 -0.56483,-0.10443 -2.81483,-1.40316 -5,-2.88607 -2.18516,-1.48291 -5.21053,-2.94371 -6.72303,-3.24622 -1.5125,-0.30251 -2.75,-0.91922 -2.75,-1.37045 0,-0.81676 -0.98293,-1.41576 -10.5,-6.39867 -13.16822,-6.89457 -15.33592,-8.98041 -16.62201,-15.99433 -4.00705,-21.85313 -4.5579,-26.52296 -4.67925,-39.66785 -0.0729,-7.9028 0.23281,-18.86872 0.67947,-24.36872 0.44665,-5.5 0.48995,-10.36932 0.0962,-10.82071 -0.39373,-0.4514 -2.06599,1.3486 -3.71613,4 -3.18579,5.11881 -5.85091,8.47186 -10.83653,13.63369 -1.69302,1.75286 -5.72138,6.26541 -8.9519,10.02789 C 406.44667,451.35589 399.35759,457 396.56982,457 c -2.24352,0 -1.97548,1.83579 1.55564,10.65434 1.719,4.293 3.50166,10.7395 3.96147,14.32556 0.75089,5.85624 0.61564,6.82555 -1.32841,9.5201 -3.47112,4.81115 -8.70691,8.51728 -13.85972,9.81055 -1.35734,0.34067 -4.59775,2.66016 -7.20091,5.15443 -2.60315,2.49426 -5.0955,4.53502 -5.53855,4.53502 -0.44305,0 -3.12186,2.16325 -5.95292,4.80722 -5.60061,5.2305 -8.20642,10.18455 -8.20642,15.60164 0,4.45948 -1.36183,5.23829 -4.64451,2.65612 C 353.91162,532.92924 352.16411,532 351.47213,532 c -2.85326,0 -3.4002,-8.22999 -0.7942,-11.95057 3.00098,-4.2845 7.76585,-7.98999 10.32207,-8.02714 1.51881,-0.0221 5.44357,-2.39174 10,-6.03771 8.1557,-6.52604 14.18801,-10.07015 17.82019,-10.46972 3.00995,-0.33112 3.90598,-1.30111 6.61411,-7.15998 L 397.67835,483.5 395.4066,477 c -3.39613,-9.71707 -5.12876,-13.52452 -6.77699,-14.89243 -1.69467,-1.40645 -3.4323,-0.67382 -15.12961,6.37908 -8.54893,5.15458 -32.98362,17.17948 -36.70898,18.06538 -1.48994,0.35431 -3.23254,1.27505 -3.87245,2.04608 -0.6399,0.77104 -2.34586,1.41527 -3.79101,1.43162 -2.89333,0.0327 -21.06029,4.85323 -28.06787,7.44763 -2.44217,0.90416 -5.52271,1.37226 -6.84565,1.04022 -1.32294,-0.33203 -2.9248,-0.18587 -3.55969,0.32481 -0.63489,0.51068 -4.52935,1.48699 -8.65435,2.16956 -4.125,0.68258 -8.51848,1.62526 -9.76329,2.09485 -2.06818,0.7802 -4.66179,1.30287 -19.73671,3.97737 -7.81635,1.38673 -10.15912,1.6417 -23.5,2.55763 -14.54339,0.99849 -18.92024,0.91998 -32.5,-0.58295 -5.5,-0.60871 -13.66166,-1.50292 -18.13702,-1.98715 -4.47536,-0.48422 -8.97536,-1.29132 -10,-1.79356 -1.02464,-0.50224 -4.78798,-1.0139 -8.36298,-1.13702 -3.575,-0.12312 -7.9537,-0.68723 -9.73045,-1.25359 -1.77675,-0.56635 -3.60854,-0.79606 -4.07065,-0.51046 -0.46211,0.28561 -2.28436,-0.35896 -4.04943,-1.43237 -2.92782,-1.78051 -3.41348,-1.81782 -5.53845,-0.42549 -2.74617,1.79936 -5.61102,1.01441 -5.61102,-1.53738 0,-1.47891 -1.03666,-1.88322 -5.75,-2.24253 -3.1625,-0.24109 -9.125,-1.80167 -13.25,-3.46794 -4.125,-1.66628 -10.2,-3.57857 -13.5,-4.24954 -3.3,-0.67096 -8.025,-1.64331 -10.5,-2.16077 -2.475,-0.51746 -7.186151,-1.3801 -10.469225,-1.91698 -3.379962,-0.55273 -6.329454,-1.61985 -6.79969,-2.46011 C 70.274329,481.66778 69.092117,481 68.103948,481 c -0.98817,0 -3.103309,-0.61896 -4.70031,-1.37548 C 61.806637,478.86801 59.15,477.67377 57.5,476.97064 53.391966,475.22006 45,464.89803 45,461.59577 45,460.1681 45.427464,459 45.94992,459 c 0.522456,0 3.52335,-1.55022 6.668654,-3.44492 4.420154,-2.66267 6.134585,-3.22237 7.55008,-2.46482 C 61.652932,453.88462 62,453.70059 62,452.11921 c 0,-1.97679 3.079616,-4.73908 12.957515,-11.62235 5.712812,-3.98089 39.790855,-21.37065 43.145135,-22.01663 1.06615,-0.20532 3.23617,-1.29737 4.82227,-2.42677 1.5861,-1.1294 3.40828,-2.05346 4.04928,-2.05346 0.641,0 3.27153,-1.4591 5.84562,-3.24243 2.5741,-1.78334 6.70518,-4.31315 9.18018,-5.62181 2.475,-1.30866 5.21043,-2.99956 6.07874,-3.75757 0.86831,-0.758 2.22189,-1.37819 3.00796,-1.37819 0.78607,0 3.64637,-1.18029 6.35624,-2.62286 4.60889,-2.4535 8.48546,-3.92197 12.93155,-4.89853 1.03096,-0.22645 2.92888,-1.10259 4.21759,-1.94698 1.2887,-0.8444 4.61901,-2.43234 7.40068,-3.52878 2.78166,-1.09643 8.13452,-4.02061 11.89524,-6.49818 3.76071,-2.47757 7.16888,-4.50467 7.5737,-4.50467 1.50106,0 11.72767,-4.74477 22.5383,-10.45695 3.575,-1.88898 11.98042,-6.13835 18.67871,-9.44305 6.69828,-3.3047 14.79828,-7.98301 18,-10.39625 5.20883,-3.92607 19.6455,-13.19985 25.57343,-16.42777 3.38494,-1.8432 25.03916,-19.61095 25.45826,-20.88905 0.20074,-0.61219 -1.11448,-1.7087 -2.92271,-2.4367 -5.80328,-2.33641 -20.03885,-12.72675 -28.74202,-20.97839 -10.00536,-9.48627 -13.94452,-11.12039 -23.92317,-9.92426 -8.71811,1.04504 -17.05976,-0.32176 -23.60742,-3.86812 l -5.48913,-2.97304 -2.99974,3.41651 c -3.16343,3.60295 -7.47434,5.80282 -9.69866,4.94927 -2.29574,-0.88096 -1.46289,-2.46168 2.67245,-5.0722 4.36534,-2.75572 4.91243,-3.93589 2.29089,-4.94187 -1.21032,-0.46444 -2.64642,0.45281 -4.92085,3.14301 -3.2011,3.78627 -3.22112,3.79328 -6.04089,2.11586 -4.31257,-2.56546 -5.22575,-4.63881 -2.82915,-6.42346 1.1,-0.81912 2.85886,-1.26623 3.90857,-0.99358 1.04972,0.27266 3.0229,-0.3808 4.38486,-1.45211 4.76055,-3.74465 17.84713,-1.78784 38.70657,5.78771 2.2,0.79898 7.375,1.70231 11.5,2.00741 8.57503,0.63423 14.68734,3.13282 22.90499,9.3631 5.42483,4.11288 24.75983,13.89393 27.46527,13.89393 0.79484,0 3.75308,1.19739 6.57387,2.66087 l 5.12871,2.66087 3.21358,-3.01802 c 1.76747,-1.6599 5.80108,-4.93636 8.96358,-7.28101 l 5.75,-4.263 v -8.72092 c 0,-4.79651 0.63096,-10.81745 1.40213,-13.37986 0.77863,-2.58717 0.98343,-4.65893 0.46055,-4.65893 -0.51787,0 -3.27665,1.57253 -6.13063,3.49451 -7.0187,4.72667 -16.91642,8.01237 -19.6803,6.53318 -2.79659,-1.49668 -4.73952,-6.54811 -5.99755,-15.59301 -2.23353,-16.0585 0.45764,-22.6163 18.98914,-46.27232 3.04239,-3.8837 3.88157,-5.63745 3.08077,-6.43825 -1.43869,-1.43869 -15.89329,-1.451 -23.77643,-0.0203 -4.65949,0.84568 -7.95924,2.348 -13.59914,6.19144 -8.21623,5.59914 -12.24854,6.81476 -12.24854,3.69256 0,-1.3664 2.11354,-3.00372 7.40533,-5.73677 4.07294,-2.10354 8.50333,-4.54406 9.84533,-5.42337 5.29028,-3.46632 13.90302,-5.42641 24.42842,-5.5594 5.67651,-0.0717 10.99592,0.041 11.82092,0.25063 1.63151,0.41446 1.63134,0.43101 0.10399,-10.09726 -0.5169,-3.56307 -0.66743,-6.91904 -0.33452,-7.4577 0.33291,-0.53866 0.72238,-2.07754 0.86548,-3.41973 0.7374,-6.91638 4.59295,-16.23466 8.81495,-21.30443 C 357.62134,141.02759 372.56225,127 374.84192,127 c 2.42948,0 3.02664,3.23138 0.90808,4.91384 -8.80411,6.99181 -19.54821,17.83168 -21.64324,21.83616 -0.97698,1.86743 -0.9161,2.25 0.35806,2.25 2.02666,0 1.95797,0.60804 -0.85601,7.57759 -1.31516,3.25733 -2.64229,7.94741 -2.94919,10.42241 -0.30689,2.475 -0.58085,4.64282 -0.6088,4.81739 -0.0279,0.17456 -0.92621,0.0396 -1.99612,-0.30003 -1.61071,-0.51122 -2.05964,-0.008 -2.61006,2.92604 -0.84007,4.47798 0.14872,8.5566 2.07441,8.5566 0.81452,0 1.48095,-0.43748 1.48095,-0.97217 0,-0.5347 2.79643,-2.35963 6.2143,-4.05541 3.41786,-1.69578 6.68036,-3.45145 7.25,-3.90149 0.56963,-0.45004 3.9607,-1.8481 7.5357,-3.10681 5.48094,-1.92976 8.63545,-2.30232 20.12073,-2.37634 l 13.62074,-0.0878 9.62926,4.90819 c 7.96382,4.05929 9.62927,5.30649 9.62927,7.21105 0,1.26657 -0.82908,3.10788 -1.84241,4.0918 -1.01332,0.98393 -3.57175,3.73584 -5.68539,6.11537 -2.95983,3.33215 -3.5323,4.51841 -2.49106,5.16193 0.74355,0.45954 2.41183,0.43255 3.70728,-0.06 1.44057,-0.5477 6.7162,-0.44374 13.58347,0.26769 15.27222,1.58215 28.07563,1.27758 31.15662,-0.74117 2.16666,-1.41965 2.35478,-2.09508 1.88437,-6.76598 -0.28742,-2.8539 -1.39797,-8.7889 -2.4679,-13.1889 -3.25621,-13.39089 -4.98966,-22.68058 -4.48002,-24.00869 0.26629,-0.69394 -0.18352,-2.21495 -0.99957,-3.38003 -1.16799,-1.66754 -1.88274,-1.90477 -3.35882,-1.1148 C 449.02453,155.59242 447,155.18947 447,153 c 0,-1.35156 0.66667,-2 2.05623,-2 1.45713,0 2.60472,-1.23827 3.93876,-4.25 1.03539,-2.3375 4.09542,-6.54392 6.80008,-9.34761 3.90735,-4.05041 5.35793,-6.54744 7.06124,-12.15524 1.17903,-3.88169 2.14369,-8.02261 2.14369,-9.20205 0,-1.76758 2.29013,-7.45657 3.59443,-8.92902 0.3964,-0.44751 4.82188,-1.21406 8.37811,-1.4512 3.56534,-0.23775 3.97229,3.0254 0.54005,4.33033 -2.88498,1.09687 -2.53802,3.00479 0.54643,3.00479 3.32098,0 2.13904,1.8188 -2.52171,3.88047 -3.32627,1.47137 -4.63464,2.69288 -5.13789,4.7968 -0.37136,1.5525 -1.0045,3.27273 -1.40698,3.82273 -0.40249,0.55 -1.29501,2.8 -1.9834,5 -0.68838,2.2 -2.11794,5.43697 -3.17681,7.19326 -1.05886,1.75629 -2.09191,4.00629 -2.29566,5 -0.20376,0.99371 -0.78437,3.83174 -1.29026,6.30674 -1.3583,6.6453 -0.68684,13.41063 2.3324,23.5 1.48129,4.95 3.47211,12.6 4.42405,17 l 1.7308,8 4.38322,-0.28253 c 7.30294,-0.47073 24.85284,-5.59388 32.24653,-9.41338 1.02483,-0.52941 2.59983,-1.13193 3.5,-1.33892 2.30648,-0.53035 26.27197,-10.18959 28.374,-11.43607 1.92105,-1.13915 6.53189,-2.86589 17.66312,-6.61476 4.07023,-1.37081 8.57023,-3.29432 10,-4.27447 1.42976,-0.98014 4.84957,-2.61468 7.59957,-3.6323 2.75,-1.01762 7.16004,-3.17559 9.80008,-4.79548 2.64004,-1.6199 5.04385,-2.7015 5.34178,-2.40356 0.55072,0.55072 4.77158,-1.09662 14.46764,-5.6465 5.57185,-2.61459 10.15607,-4.21139 27.6405,-9.62791 5.6375,-1.74644 10.30304,-3.70608 10.36787,-4.35474 0.0648,-0.64866 0.20647,-2.52938 0.31474,-4.17938 0.10828,-1.65 0.57988,-4.35 1.048,-6 0.77297,-2.72448 0.69814,-2.87395 -0.81474,-1.62756 -0.91623,0.75485 -1.66587,2.02535 -1.66587,2.82333 0,2.50999 -3.40428,0.93947 -4.45795,-2.05663 -1.06404,-3.02559 -0.64616,-3.54482 8.44367,-10.4917 4.07621,-3.11523 6.89325,-8.81468 6.29968,-12.745583 -0.2573,-1.703979 0.26043,-5.243161 1.15052,-7.86485 C 656.64686,85.024833 655.63941,84 647.02678,84 c -8.62107,0 -12.84981,-1.446713 -13.65959,-4.673142 -0.74541,-2.969925 -0.60082,-3.123952 7.63281,-8.131142 5.7059,-3.469983 6.48112,-4.303698 6.34544,-6.824309 C 646.89389,55.982277 655.42832,38 659.86136,38 c 0.94367,0 3.49841,-0.914738 5.6772,-2.032751 2.17879,-1.118013 7.78644,-3.160744 12.46144,-4.539402 4.675,-1.378659 9.175,-2.85442 10,-3.279471 3.22526,-1.661699 24.65784,-0.0334 30.17305,2.292332 6.47595,2.73088 12.42372,11.894772 14.4305,22.233467 0.46186,2.379461 1.40232,3.466358 3.75628,4.341188 6.96054,2.586822 7.71225,3.048721 8.78181,5.396167 0.61171,1.342543 0.82151,3.59917 0.46622,5.014728 C 745.09827,69.456639 744.34503,70 742.03996,70 c -1.60706,0 -3.22264,0.486567 -3.59018,1.08126 -0.80022,1.294778 4.33443,6.91874 6.31677,6.91874 0.99684,0 1.22296,0.781185 0.79604,2.75 -0.32798,1.5125 -0.81383,3.875 -1.07967,5.25 -0.26583,1.375 0.23163,4.75 1.10548,7.5 2.23097,7.02087 3.12556,10.43518 3.85548,14.71492 0.79423,4.65684 1.84807,5.30722 6.4127,3.95761 2.00388,-0.59249 6.34342,-1.81108 9.64342,-2.70798 3.3,-0.8969 6.79324,-2.05074 7.76275,-2.56408 3.58053,-1.89582 15.73033,-3.8157 27.31684,-4.31653 6.55622,-0.28339 14.54237,-1.00989 17.74698,-1.61444 4.87234,-0.91916 6.21155,-0.84693 8.17722,0.44103 5.40213,3.53961 3.88558,6.57324 -11.00379,22.01147 -12.5961,13.06042 -17.59084,18.75626 -18.49102,21.08658 -0.42675,1.10472 -3.84909,5.82972 -7.6052,10.5 -3.7561,4.67028 -7.55839,9.84142 -8.44951,11.49142 -2.2306,4.13016 -12.35338,14.84055 -18.24788,19.30711 C 744.95687,199.25686 728.26112,210 725.10858,210 c -3.86416,0 -4.34383,2.41102 -1.67865,8.43747 1.37423,3.10739 3.1995,8.66766 4.05614,12.35616 0.85665,3.68851 2.05859,8.25663 2.67099,10.15139 2.75686,8.52983 0.67765,50.18892 -2.78348,55.7698 -0.75547,1.21815 -1.37358,3.32909 -1.37358,4.69098 0,1.36189 -0.42137,2.73658 -0.93637,3.05487 -0.515,0.31829 -0.88868,1.35735 -0.8304,2.30902 0.1964,3.20675 -5.25696,20.22909 -8.25737,25.77493 -1.63672,3.02525 -2.97586,6.41818 -2.97586,7.53984 0,3.21064 -4.79315,12.5214 -9.9134,19.25692 -6.4374,8.46817 -9.34553,13.43065 -8.58851,14.65553 0.75905,1.22818 7.13218,4.00309 9.19386,4.00309 2.88397,0 10.18284,6.07532 13.21057,10.99599 2.50429,4.06999 3.10205,6.13235 3.12134,10.76903 0.0131,3.15424 0.46131,7.53498 0.99598,9.73498 1.04386,4.29519 2.68887,26.55858 3.49138,47.25213 0.2719,7.01133 0.8026,14.54787 1.17933,16.74787 0.37673,2.2 0.58719,4.37735 0.46769,4.83855 -0.1195,0.46119 1.14601,5.13571 2.81224,10.38781 1.66624,5.25209 3.02952,10.82159 3.02952,12.37666 0,3.61912 -5.1162,9.54395 -8.97281,10.39101 -1.58895,0.34899 -3.38298,1.22975 -3.98675,1.95724 -1.54563,1.86237 3.89871,6.28135 8.739,7.09315 6.35357,1.06559 9.90557,2.44933 11.84964,4.61622 3.06385,3.415 13.53567,9.80878 18.46343,11.27321 2.52588,0.75065 6.47197,2.32364 8.76909,3.49554 3.63978,1.85688 4.0418,2.3826 3.12785,4.09032 -2.13243,3.98449 -8.72056,5.42821 -16.48945,3.6135 -5.63574,-1.31644 -18.26913,-3.92534 -20.17171,-4.16563 -1.19445,-0.15085 -3.66945,-0.6143 -5.5,-1.02987 -1.83056,-0.41558 -7.60329,-0.89233 -12.82829,-1.05945 -15.66889,-0.50115 -21.24541,-1.37675 -23.84182,-3.74355 -4.09592,-3.73367 -4.41009,-5.2206 -2.0716,-9.80443 4.1522,-8.13897 2.87023,-16.8064 -2.49157,-16.84559 -2.63872,-0.0193 -4.05355,-0.97807 -4.92638,-3.33844 -0.45917,-1.24173 -1.24797,-1.63792 -2.38917,-1.19999 -0.93703,0.35957 -6.67074,1.11291 -12.74157,1.6741 -6.07084,0.56118 -11.36534,1.33862 -11.76555,1.72765 -0.40021,0.38902 -0.95413,2.49486 -1.23093,4.67965 C 652.3021,524.30956 650.48394,528 646.90403,528 c -0.9823,0 -2.05594,0.43678 -2.38588,0.97063 -1.16066,1.87799 5.9212,13.14502 13.67533,21.75703 2.09359,2.32521 3.80652,4.86095 3.80652,5.63499 0,0.77403 1.0125,2.07238 2.25,2.88523 3.49829,2.29782 11.40319,13.05494 10.9907,14.95633 -0.32274,1.4877 -1.40962,1.64084 -8.55521,1.20539 -4.50202,-0.27435 -9.53549,-0.91651 -11.18549,-1.42702 -1.65,-0.51051 -6.375,-1.87218 -10.5,-3.02594 -4.125,-1.15375 -8.50407,-2.58752 -9.73128,-3.18615 -2.07195,-1.01069 -14.55313,-13.52401 -18.50893,-18.55659 -1.10782,-1.40937 -2.83397,-2.2139 -4.75,-2.2139 -5.98465,0 -8.7663,-6.46641 -5.88685,-13.6849 0.61762,-1.54831 1.72964,-4.75599 2.47116,-7.12818 l 1.34821,-4.31308 -3.51467,-1.46852 c -4.5693,-1.90918 -5.07212,-3.51947 -3.07615,-9.85142 0.90668,-2.87633 1.64851,-5.74108 1.64851,-6.36611 0,-1.70766 -4.77524,-3.79559 -11.5,-5.02827 -5.29931,-0.9714 -17.11287,-3.58969 -27.5,-6.09495 -3.71887,-0.89695 -13.51358,-4.85545 -18.5,-7.47672 -1.65,-0.86737 -4.46747,-1.85548 -6.26105,-2.19581 -1.79357,-0.34032 -3.50763,-1.01775 -3.80901,-1.5054 C 537.12855,481.39899 535.81008,481 534.5,481 c -1.31008,0 -2.66008,-0.45 -3,-1 -0.33992,-0.55 -1.37898,-1.00109 -2.30902,-1.00243 -3.12538,-0.004 -24.61434,-11.46069 -29.76388,-15.86774 -2.98582,-2.55531 -11.15582,-8.60806 -14.34813,-10.62983 -11.85412,-7.50751 -21.02418,-15.64708 -31.45256,-27.91809 -4.99199,-5.87403 -7.66385,-6.44079 -5.67255,-1.20326 0.5655,1.48738 1.52079,10.21207 2.12285,19.3882 1.08188,16.48912 0.88734,19.02651 -2.05048,26.74407 -0.42448,1.1151 0.0454,7.11057 1.05475,13.45845 1.96791,12.37623 2.33107,12.98544 9.91902,16.63946 1.925,0.927 4.4,2.15388 5.5,2.7264 1.1,0.57253 6.725,3.46076 12.5,6.41829 5.775,2.95753 11.429,6.24789 12.56445,7.31191 1.13545,1.06401 2.48545,1.94025 3,1.94719 0.51455,0.007 3.03883,2.4112 5.60951,5.3428 4.341,4.95047 4.72344,5.83235 5.36859,12.37959 0.82539,8.37641 -0.77318,21.73105 -3.85435,32.19966 -1.79245,6.09007 -2.99889,8.21511 -6.67073,11.75 -2.46539,2.37343 -4.97685,4.31533 -5.58102,4.31533 -2.14884,0 -3.67577,4.62403 -2.94846,8.92892 0.60534,3.58297 1.1123,4.24114 3.65917,4.75051 2.29933,0.45987 2.88916,1.06132 2.65364,2.70593 -0.23585,1.64693 -0.93358,2.06989 -3.1546,1.9123 -3.59596,-0.25513 -7.73495,-2.92104 -8.38308,-5.39951 C 478.99011,595.85417 478.36922,595 477.88337,595 c -1.3727,0 -0.981,3.28682 0.64843,5.44113 1.6481,2.17898 1.96668,5.55887 0.52396,5.55887 -0.51933,0 -2.16544,-1.05044 -3.65802,-2.3343 z M 660,567.33393 c 0,-1.5254 -9.13207,-15.17063 -10.50573,-15.69775 C 648.67242,551.3208 648,550.12819 648,548.98593 c 0,-4.1484 -4.00959,-6.5905 -13.0514,-7.94915 -5.32169,-0.79965 -11.19412,-2.53552 -15.86672,-4.69013 -8.12015,-3.74435 -9.32899,-3.44996 -8.8424,2.15335 0.24504,2.8217 0.55769,3.02972 5.26052,3.5 4.47824,0.44782 5.17691,0.85438 6.69537,3.89603 3.87183,7.75575 16.04057,17.06131 24.94323,19.07435 2.94877,0.66676 6.7114,1.57525 8.3614,2.01887 4.0362,1.08517 4.5,1.12069 4.5,0.34468 z m 91.45,-26.21043 c -0.5225,-0.48207 -3.2,-2.10785 -5.95,-3.61284 -2.75,-1.50499 -6.84757,-4.43498 -9.10571,-6.5111 -6.4212,-5.90358 -7.34679,-6.15849 -23.95642,-6.5975 l -15.33363,-0.40528 -2.63785,3.45839 c -1.45081,1.90212 -2.35136,3.92193 -2.00122,4.48847 0.99398,1.60829 10.28265,3.84094 18.53483,4.45508 15.38308,1.14484 29.59339,2.99925 32.5,4.24117 3.431,1.46598 9.40889,1.82962 7.95,0.48361 z m -111.52389,-5.53447 c 0.674,-0.81212 0.78079,-1.65214 0.25161,-1.97919 -0.50567,-0.31252 -1.1703,-1.82275 -1.47696,-3.35606 -0.52398,-2.61989 -1.16979,-2.9337 -10.7195,-5.20872 -10.53861,-2.5106 -12.15634,-2.36084 -14.41443,1.33442 -2.34569,3.83862 5.12837,7.03642 24.56073,10.50839 0.34515,0.0617 1.1545,-0.52281 1.79855,-1.29884 z m 6.58011,-15.60105 c 0.82158,-1.58876 1.49559,-5.04851 1.4978,-7.68832 0.002,-2.63981 0.66568,-8.87907 1.47436,-13.86503 0.80869,-4.98595 1.6586,-12.86095 1.88868,-17.5 0.23009,-4.63904 1.11576,-12.25963 1.96817,-16.93463 0.8524,-4.675 2.04895,-12.55 2.65901,-17.5 0.61005,-4.95 1.52893,-12.15 2.04195,-16 2.40714,-18.06453 -2.32835,-32.9932 -13.53619,-42.67289 -2.75,-2.37505 -5.63436,-4.92248 -6.4097,-5.66096 -4.30753,-4.10277 -15.12426,-8.97388 -21.20671,-9.55003 -9.87608,-0.9355 -13.57858,-3.14653 -9.13359,-5.45434 2.71741,-1.41086 14.56163,0.45968 19.9434,3.14964 2.64363,1.32135 5.9316,2.68582 7.3066,3.03213 1.375,0.34632 5.50963,2.99819 9.18807,5.89306 8.38075,6.5955 15.01074,11.17653 16.31193,11.27082 1.07774,0.0781 6.86425,-2.90494 8.80998,-4.54168 0.65451,-0.55057 3.08326,-2.33197 5.39721,-3.95866 2.31396,-1.62669 5.99898,-5.33125 8.18893,-8.23235 2.18995,-2.90111 5.2904,-6.84974 6.88989,-8.77474 1.59949,-1.925 3.75127,-4.81007 4.78175,-6.41127 l 1.87359,-2.91127 -4.47067,0.7783 c -6.86359,1.19488 -25.85541,1.53976 -26.50952,0.4814 C 665.14261,356.42172 663.76296,356 662.39529,356 c -3.53637,0 -18.39223,-4.91971 -21.54966,-7.13645 C 639.38573,347.8386 637.87569,347 637.48999,347 c -0.38571,0 -2.06031,-1.14355 -3.72135,-2.54122 -2.74393,-2.30887 -3.17578,-2.4003 -4.72309,-1 -2.72822,2.46901 -4.37453,1.93808 -3.74824,-1.20878 0.6328,-3.17955 -0.41794,-5.34787 -5.35531,-11.05133 l -3.55801,-4.11006 -5.44199,3.94784 c -2.9931,2.1713 -6.117,4.2586 -6.942,4.63843 -2.37021,1.09124 -9,6.57746 -9,7.44758 0,0.43326 -1.33236,3.62044 -2.96079,7.08264 -6.51543,13.85238 -8.88895,24.90108 -6.92659,32.24317 1.34779,5.04271 2.52553,6.50128 6.63738,8.22005 1.7875,0.74719 3.25,1.74842 3.25,2.22495 0,1.46545 11.0314,9.28863 17.43574,12.36498 3.33534,1.60214 7.03562,3.37849 8.22284,3.94742 3.74878,1.79649 8.22884,6.49759 8.95704,9.39897 0.38597,1.53784 0.17591,5.34202 -0.46681,8.45374 -0.64271,3.11172 -1.42289,10.10906 -1.73373,15.54965 -0.64916,11.36221 -2.46467,21.5333 -4.72501,26.47104 -0.8613,1.88151 -2.97735,7.92093 -4.70235,13.42093 -1.725,5.5 -3.58528,11.35 -4.13396,13 -0.54868,1.65 -1.8866,5.925 -2.97314,9.5 -1.08655,3.575 -2.2216,7.24897 -2.52232,8.16438 -0.6854,2.08632 2.22256,3.73834 7.47011,4.24379 2.14441,0.20655 4.79473,0.85496 5.8896,1.44091 1.09486,0.58596 5.09371,1.37503 8.88633,1.7535 3.79261,0.37847 7.70626,0.9787 8.697,1.33384 3.92503,1.40697 5.72087,0.92131 7.20488,-1.94844 z M 679,363.07332 C 679,361.64223 679.64223,361 681.07332,361 c 1.4311,0 1.96962,0.53852 1.73852,1.73852 -0.50201,2.60673 -3.81184,2.89745 -3.81184,0.3348 z m -16.75,0.2644 c -1.75974,-0.71007 -1.55551,-3.00651 0.33179,-3.73073 2.74798,-1.0545 6.41821,-0.6582 6.41821,0.69301 0,2.87174 -3.3855,4.39532 -6.75,3.03772 z M 647.19037,358.25 c 0.18536,-0.9625 1.22469,-1.75 2.30963,-1.75 1.08494,0 2.12427,0.7875 2.30963,1.75 0.25243,1.31075 -0.32729,1.75 -2.30963,1.75 -1.98234,0 -2.56206,-0.43925 -2.30963,-1.75 z m 64.25777,161.83392 c 0.31139,-0.50385 0.12409,-2.07885 -0.41624,-3.5 C 710.12724,514.20446 709.57812,514 704.09214,514 c -5.17426,0 -6.04501,0.27613 -6.62409,2.10066 -0.74494,2.34712 0.0713,3.47415 3.03195,4.18627 3.58162,0.8615 10.36801,0.73565 10.94814,-0.20301 z M 712,508.50702 c 3.575,-0.67235 8.24023,-1.96055 10.36717,-2.86267 3.31278,-1.40507 3.76609,-1.96307 3.16207,-3.89228 -0.38781,-1.23864 -0.66569,-3.32361 -0.61752,-4.63327 0.0482,-1.30966 -0.84788,-5.35966 -1.99124,-9 -2.40583,-7.65994 -3.81396,-15.71862 -4.4765,-25.6188 -0.25765,-3.85 -0.72838,-7.675 -1.04606,-8.5 -0.31768,-0.825 -0.76228,-9.825 -0.988,-20 -0.50089,-22.5787 -2.22256,-32.15117 -7.93843,-44.13746 C 706.84861,386.45932 700.59937,382 697.45301,382 c -0.90791,0 -3.1455,-0.7093 -4.97242,-1.57623 -3.3172,-1.57412 -3.32901,-1.57043 -8.79542,2.75 -5.91371,4.67395 -12.8768,9.07172 -14.91525,9.42022 -0.69845,0.11941 -2.39492,0.66114 -3.76992,1.20384 l -2.5,0.98673 2.5,0.53234 c 11.89843,2.53363 16.78931,3.45653 18.5,3.49092 4.50435,0.0906 7.49255,2.18437 9.86276,6.91077 1.31878,2.62977 3.64176,7.25641 5.16217,10.28141 1.5204,3.025 3.59928,7.16415 4.61972,9.19812 1.02044,2.03396 1.85535,5.04217 1.85535,6.6849 0,1.64273 0.4569,4.18852 1.01534,5.65732 0.55843,1.46879 1.21821,12.41059 1.46617,24.3151 0.3842,18.44553 0.2059,22.30965 -1.20637,26.14456 -2.64802,7.19052 -4.05796,8.74002 -11.88342,13.05977 -4.06544,2.24418 -7.39172,4.70341 -7.39172,5.46496 0,0.82186 1.52417,1.63957 3.75,2.01185 2.0625,0.34496 4.2,0.77947 4.75,0.96558 2.02505,0.68523 10.18059,0.19335 16.5,-0.99514 z M 242.5,502.3754 c 8.8,-0.79236 18.25,-1.89429 21,-2.44874 2.75,-0.55445 7.33709,-1.39751 10.19353,-1.87346 2.85644,-0.47595 5.56232,-1.09329 6.01307,-1.37187 0.45075,-0.27858 3.37862,-0.78285 6.50637,-1.1206 3.12776,-0.33775 7.40282,-1.21953 9.50014,-1.95951 2.09732,-0.73998 5.83237,-1.68118 8.3001,-2.09156 2.46773,-0.41039 5.70358,-1.36879 7.19076,-2.12979 2.50541,-1.28202 3.44569,-2.8005 6.73713,-10.87987 0.67219,-1.65 2.76043,-5.32626 4.64053,-8.16947 1.8801,-2.8432 3.41837,-5.47405 3.41837,-5.84632 0,-0.37226 2.40942,-3.446 5.35427,-6.83053 2.94485,-3.38452 6.65735,-7.9675 8.25,-10.1844 3.68054,-5.12313 9.83897,-12.64213 14.61,-17.83775 5.3922,-5.87206 6.54763,-9.13255 4.16762,-11.76056 -2.80366,-3.0958 -2.4475,-18.11349 0.56036,-23.62748 0.52309,-0.95892 1.86266,-4.44349 2.97682,-7.74349 1.11417,-3.3 3.17007,-9.07697 4.56867,-12.83771 l 2.54291,-6.83771 -3.64113,-9.16229 c -2.00262,-5.03926 -3.81129,-9.35156 -4.01927,-9.5829 -0.54006,-0.60072 -5.37025,4.08186 -5.37025,5.20614 0,0.5153 -1.72758,3.02436 -3.83906,5.57569 -2.11148,2.55133 -6.67168,8.91378 -10.13378,14.13878 -8.99672,13.57785 -13.2526,18.61209 -23.70762,28.04349 -3.46489,3.12565 -17.77757,18.86687 -22.70549,24.9717 -1.99112,2.46665 -5.98132,7.13876 -8.86713,10.38247 -2.88581,3.24371 -6.14692,7.12458 -7.24692,8.62416 -5.30917,7.23774 -10.99764,14.57838 -11.99447,15.47818 -2.42125,2.18555 -12.27125,15.1684 -18.01897,23.75 -2.51992,3.76235 -4.48656,4.85037 -4.48656,2.48213 0,-0.69732 1.165,-2.98232 2.5889,-5.07777 1.42389,-2.09544 2.36172,-4.03708 2.08405,-4.31474 -0.65646,-0.65647 -6.22081,4.09553 -10.66904,9.11147 -7.25631,8.18237 -11.02706,11.20041 -10.9934,8.79891 0.0157,-1.1181 8.44716,-12.14648 12.93352,-16.91702 2.15533,-2.29186 4.61767,-5.51851 5.47186,-7.17034 0.8542,-1.65182 3.55061,-4.64014 5.99203,-6.6407 2.44143,-2.00056 6.37045,-6.19891 8.73116,-9.32966 2.36072,-3.13076 6.78267,-8.42613 9.82657,-11.7675 13.10651,-14.3874 18.36152,-20.4235 24.74894,-28.42756 10.59061,-13.27106 15.28674,-19.60313 15.2701,-20.58959 -0.008,-0.4992 -0.34592,-0.39945 -0.75,0.22166 -0.59492,0.91446 -9.31592,6.64173 -17.23469,11.3184 -2.52931,1.49376 -8.89237,4.13511 -15.67728,6.50775 -4.8576,1.69867 -7.24515,3.22778 -9.6065,6.15252 -1.72829,2.14062 -7.15763,8.16704 -12.06521,13.39204 -4.90759,5.225 -9.63899,10.625 -10.51424,12 -1.4806,2.32599 -7.44061,9.06895 -14.72096,16.65477 -4.92858,5.13539 -13.98151,16.60618 -15.67282,19.85874 -0.85413,1.64257 -2.72072,4.07743 -4.14798,5.4108 L 208,488.34863 v -2.6153 c 0,-1.43841 0.46823,-2.90468 1.04052,-3.25837 0.57229,-0.35369 2.09717,-2.31692 3.38863,-4.36272 4.52056,-7.16104 21.19902,-26.58322 41.32085,-48.11842 4.5375,-4.85621 8.25,-9.08901 8.25,-9.40621 0,-0.78465 -6.4265,0.23986 -12.4315,1.98183 -2.71233,0.78681 -7.26203,1.43056 -10.11045,1.43056 -7.55402,0 -11.4193,2.97709 -29.45805,22.68898 -11.2819,12.32833 -14.91322,16.64318 -19.2653,22.89162 -6.49163,9.32026 -15.96229,20.39678 -16.9289,19.79938 -0.47596,-0.29416 -2.44264,0.85 -4.37039,2.54259 -1.92775,1.69259 -3.93934,3.07743 -4.47021,3.07743 -1.82971,0 -0.95862,-2.65744 1.66379,-5.07569 C 168.07493,488.59094 172.627,483 176.74471,477.5 c 4.11771,-5.5 8.67217,-11.16203 10.12102,-12.5823 1.44885,-1.42026 5.10927,-5.4611 8.13427,-8.97964 3.025,-3.51854 12.14424,-12.9315 20.26498,-20.9177 C 228.01379,422.48277 232.26336,417 229.23213,417 227.72899,417 207.78052,431.81807 205,435.00004 c -0.275,0.31471 -6.125,5.34187 -13,11.17147 -13.05223,11.06753 -18.21925,16.18163 -26.95586,26.67972 -3.43822,4.13144 -5.74108,6.09531 -6.71102,5.7231 -2.0514,-0.78719 -7.63956,3.7129 -12.01881,9.67864 -3.47539,4.73442 -3.57663,5.08205 -1.84824,6.34588 1.00572,0.7354 2.16447,1.12949 2.57502,0.87576 0.41054,-0.25373 2.25675,0.13229 4.10268,0.85782 1.84592,0.72553 6.72904,1.44303 10.85137,1.59445 4.30555,0.15814 8.77387,0.9373 10.5,1.83093 1.65267,0.85559 4.80486,1.74598 7.00486,1.97864 15.17404,1.60468 20.56764,1.93178 33,2.0013 7.7,0.0431 21.2,-0.57 30,-1.36235 z M 142.78167,485.12373 C 148.15915,478.1863 156.0302,470.11337 176,451.05339 c 3.025,-2.88718 7.75,-6.95314 10.5,-9.03546 2.75,-2.08232 6.35,-5.23132 8,-6.99778 3.94951,-4.22826 21.53908,-16.85733 28.5,-20.46261 7.56804,-3.91973 8.92988,-5.25317 11.69553,-11.4517 2.64676,-5.93205 6.89704,-12.50905 11.95559,-18.50041 1.80852,-2.14201 3.05823,-4.2667 2.77712,-4.72153 -0.40097,-0.64879 -13.91321,5.86265 -27.3807,13.19453 -0.85115,0.46338 -4.92254,2.26759 -9.04754,4.00935 -9.08348,3.83547 -38.82419,18.52462 -48.5,23.9545 -3.85,2.16055 -9.61432,5.30491 -12.8096,6.98747 -3.19528,1.68257 -7.92028,4.56745 -10.5,6.41086 -5.57442,3.98334 -11.51689,6.58646 -14.51996,6.36052 -3.83188,-0.2883 -24.85274,15.0347 -39.628959,28.88723 l -7.458518,6.99228 2.474096,1.62109 c 1.360753,0.8916 4.042086,1.85661 5.958518,2.14448 4.076288,0.61228 29.511213,8.13571 31.278673,9.25194 1.13964,0.71975 12.3693,2.99921 15.79398,3.20597 0.87352,0.0527 4.33557,-3.44844 7.69344,-7.78039 z M 328.5,484.77417 c 1.1,-0.52942 2.99958,-2.14887 4.22128,-3.59878 2.14862,-2.54996 2.26691,-2.5738 3.61591,-0.72893 1.26814,1.73429 1.70154,1.78323 4.77872,0.53965 7.54098,-3.04755 26.42608,-12.16594 27.85531,-13.44953 0.84083,-0.75515 4.90378,-3.15699 9.02878,-5.33742 5.00586,-2.64605 7.60108,-4.62899 7.80396,-5.96281 0.19633,-1.29078 -2.06542,-4.78476 -6.38743,-9.86737 -3.68026,-4.32794 -7.39727,-8.99398 -8.26001,-10.36898 -0.86275,-1.375 -2.81409,-3.9647 -4.33632,-5.75489 l -2.76769,-3.25489 -1.46133,2.25489 c -0.80374,1.24019 -6.37018,11.90643 -12.36986,23.70276 -5.99968,11.79632 -11.42889,21.62132 -12.06492,21.83333 -1.37029,0.45676 -1.55962,-2.96331 -0.23976,-4.3312 C 338.9377,469.39178 355,438.48111 355,437.57438 c 0,-1.54753 -2.75,-0.27296 -4.51265,2.09152 -2.2871,3.06799 -4.16629,5.32597 -11.92949,14.3341 C 330.07848,463.83917 321,477.60038 321,480.61431 321,481.37644 320.60248,482 320.11663,482 c -1.05589,0 -2.14256,3.64074 -1.32937,4.45392 0.70799,0.708 7.01954,-0.38354 9.71274,-1.67975 z M 87.125612,464.57758 c 6.229408,-6.00733 15.162038,-13.78204 19.850288,-17.27713 4.68826,-3.49509 10.0991,-7.57812 12.0241,-9.0734 9.37245,-7.28022 29.43251,-18.72236 34.40409,-19.62388 1.29494,-0.23482 3.79939,-1.17415 5.56543,-2.08741 1.76605,-0.91326 3.80436,-1.43277 4.52959,-1.15447 0.72523,0.27829 3.38462,-0.80424 5.90975,-2.40563 2.52513,-1.60138 4.59114,-2.6919 4.59114,-2.42335 0,0.40191 12.60334,-5.93241 20.5,-10.30312 1.1,-0.60884 5.6,-2.7391 10,-4.73392 13.22926,-5.99771 16.49783,-7.75649 16.54463,-8.90249 0.0245,-0.60103 4.41204,-3.10044 9.75,-5.55425 5.33795,-2.45381 10.83037,-5.20844 12.20537,-6.12139 1.375,-0.91295 5.72609,-3.0088 9.66909,-4.65745 3.943,-1.64864 9.118,-4.21734 11.5,-5.70821 2.382,-1.49088 8.38091,-4.97464 13.33091,-7.74169 9.36202,-5.23339 11.84655,-6.8906 30.82356,-20.55979 C 314.623,331.7125 320.21616,328 320.7528,328 321.98061,328 332,318.20202 332,317.00133 332,315.60495 327.76836,313 325.5,313 c -1.13024,0 -3.0811,-0.71872 -4.33523,-1.59715 -2.20634,-1.54538 -2.48095,-1.40995 -8.47251,4.17838 -3.40574,3.17654 -6.64226,6.25775 -7.19226,6.84715 -0.55,0.58939 -3.1622,2.64662 -5.80489,4.57162 -2.6427,1.925 -7.1427,5.6338 -10,8.24177 -2.85731,2.60797 -5.48739,4.74547 -5.84462,4.75 -0.35723,0.005 -2.88313,1.47073 -5.61311,3.25823 -2.72998,1.7875 -6.48229,4.15 -8.33847,5.25 -1.85618,1.1 -5.40528,3.23958 -7.88689,4.75462 -2.48161,1.51505 -8.41306,4.72094 -13.181,7.12422 -4.76794,2.40327 -9.94294,5.25778 -11.5,6.34334 C 234.68148,368.56941 217.63139,377 216.54508,377 c -0.27225,0 -3.44253,1.35 -7.04508,3 -3.60255,1.65 -6.71204,3 -6.90998,3 -0.19794,0 -3.89917,2.02165 -8.22496,4.49256 -4.32578,2.47091 -8.58919,4.49591 -9.47423,4.5 -1.79715,0.008 -17.10797,6.85962 -17.89083,8.00581 -0.275,0.40264 -1.625,1.07632 -3,1.49706 -1.375,0.42075 -5.2,2.01211 -8.5,3.53637 -3.3,1.52425 -7.8,3.55156 -10,4.50513 -5.65683,2.45189 -17.59877,7.97336 -27.15233,12.55415 -4.48378,2.14991 -8.38366,3.90892 -8.66641,3.90892 -0.28275,0 -4.7142,2.40964 -9.847672,5.35475 C 80.605506,442.38603 70.464823,449.08401 68.938457,451.76116 64.560406,459.43997 62.675862,462 61.401224,462 60.505216,462 60,460.89796 60,458.94346 v -3.05653 l -3,1.77214 c -1.65,0.97468 -2.985029,2.46262 -2.966731,3.30654 0.05376,2.47941 3.509467,5.93363 8.147902,8.1444 2.375356,1.13214 6.118829,3.10711 8.318829,4.38883 2.2,1.28171 4.292368,2.25631 4.649708,2.16577 0.357339,-0.0905 5.746496,-5.0797 11.975904,-11.08703 z m 171.321598,1.33701 c -0.32197,-0.52097 -1.01165,-0.68378 -1.53262,-0.3618 -0.52097,0.32197 -0.68378,1.01165 -0.3618,1.53262 0.32197,0.52097 1.01165,0.68378 1.53262,0.3618 0.52097,-0.32197 0.68378,-1.01165 0.3618,-1.53262 z M 523,461.55902 c 0,-0.24254 -0.45,-0.7191 -1,-1.05902 -0.55,-0.33992 -1,-0.14148 -1,0.44098 0,0.58246 0.45,1.05902 1,1.05902 0.55,0 1,-0.19844 1,-0.44098 z m -14.95416,-3.47337 C 506.99608,456.12416 505,455.19724 505,456.67126 c 0,0.99868 3.25388,4.4082 3.74156,3.92052 0.23126,-0.23127 -0.0818,-1.35903 -0.69572,-2.50613 z M 400.20217,447.25828 C 405.96243,442.88559 413,435.43052 413,433.70121 c 0,-0.51633 2.00477,-3.47283 4.45505,-6.57 C 437.37482,401.95253 436.54,403.8401 431.2235,396 c -2.95471,-4.35723 -4.45174,-4.42311 -5.6803,-0.25 -1.2697,4.31288 -2.80799,4.17838 -1.99146,-0.17413 0.58254,-3.10516 0.34987,-3.57539 -2.49764,-5.0479 -1.72701,-0.89307 -3.62658,-2.83971 -4.22127,-4.32587 -3.39022,-8.4724 -5.10378,-13.0849 -6.01914,-16.2021 -0.56527,-1.925 -1.31021,-3.95 -1.65542,-4.5 -0.3452,-0.55 -0.63454,-1.3375 -0.64296,-1.75 -0.008,-0.4125 -0.46531,-0.75576 -1.01531,-0.7628 -1.84864,-0.0237 -1.35914,4.45019 1.57964,14.43752 2.95603,10.04597 3.70957,16.96949 1.96429,18.04813 -0.52584,0.32498 -1.65381,-0.47401 -2.5066,-1.77554 -0.8528,-1.30153 -2.56889,-2.91143 -3.81354,-3.57754 -2.21992,-1.18807 -3.81904,-4.64987 -5.82947,-12.61977 -1.66089,-6.58421 -2.5854,-6.34872 -6.22384,1.58536 -3.33192,7.26565 -4.89492,11.14788 -4.70365,11.68303 0.0528,0.14761 -1.04319,2.21215 -2.43545,4.58786 -1.39226,2.3757 -2.53138,4.95918 -2.53138,5.74106 0,0.78188 -0.83569,1.94349 -1.85709,2.58137 C 379.12926,404.93622 369,419.3105 369,420.91049 c 0,0.5382 2.8125,4.3517 6.25,8.47443 6.74193,8.08589 9.20659,11.46253 13.808,18.91726 1.96454,3.18275 3.38194,4.54631 4.20307,4.04343 0.68141,-0.41731 3.8049,-2.70661 6.9411,-5.08733 z m 159.06226,4.14395 c 0.90144,-0.90143 -0.3398,-3.47368 -1.36921,-2.83747 -0.49237,0.3043 -0.89522,1.20172 -0.89522,1.99426 0,1.47259 1.19141,1.91624 2.26443,0.84321 z M 486.75501,444.75 c -0.22642,-0.6875 -1.50142,-1.37573 -2.83334,-1.5294 -2.34514,-0.27057 -2.36032,-0.23106 -0.48054,1.25 2.35051,1.85195 3.87406,1.9804 3.31388,0.2794 z M 246.90517,418.45349 c 4.07284,-0.84968 9.24784,-2.36762 11.5,-3.37319 2.25216,-1.00557 5.8907,-2.40567 8.08564,-3.11134 5.08511,-1.63482 20.21001,-9.14758 25.10833,-12.47167 2.27481,-1.54374 4.11299,-2.18516 4.66895,-1.6292 0.9849,0.9849 4.35015,-0.85804 12.99782,-7.11809 2.84914,-2.0625 5.55687,-3.75 6.01717,-3.75 1.54272,0 10.19449,-7.03272 12.21692,-9.9307 4.91579,-7.04394 12.42143,-17.9887 15.47745,-22.5693 4.68134,-7.01674 8.91186,-11.36049 13.23421,-13.58839 2.9162,-1.50313 3.95094,-2.80176 4.82816,-6.05949 0.61407,-2.2805 0.91517,-4.91624 0.6691,-5.85721 -0.24607,-0.94096 -0.0288,-2.45884 0.48283,-3.37306 1.40739,-2.51488 0.0117,-5.62624 -2.50914,-5.59355 -2.32266,0.0301 -12.97908,8.36441 -27.4542,21.4717 -4.85917,4.4 -13.53591,11.66806 -19.28163,16.15125 -5.74573,4.48319 -11.57178,9.36923 -12.94678,10.85787 -1.375,1.48864 -4.94216,3.79354 -7.92703,5.12201 -2.98486,1.32847 -7.89598,4.44797 -10.91358,6.93223 -3.01761,2.48426 -6.73088,5.25187 -8.25172,6.15025 -1.52084,0.89838 -2.9795,2.45307 -3.24147,3.45486 -0.26198,1.00179 -1.30654,2.11961 -2.32126,2.48404 -1.01472,0.36443 -4.61849,3.2917 -8.00839,6.50505 -3.38989,3.21334 -6.53989,5.84279 -7,5.84322 -0.4601,4.3e-4 -2.63655,1.61757 -4.83655,3.59363 -2.2,1.97607 -5.30436,4.62696 -6.89857,5.89087 -1.8982,1.50491 -2.68556,2.8531 -2.28138,3.90637 0.33945,0.88459 0.7438,1.60798 0.89857,1.60753 0.15476,-4.5e-4 3.61371,-0.69601 7.68655,-1.54569 z M 371.38902,405.58246 C 375.02506,400.12781 378,395.29031 378,394.83246 378,394.37461 378.39038,394 378.86751,394 380.22527,394 385,378.51896 385,374.11669 c 0,-4.62688 -0.85294,-7.32561 -2.07631,-6.56953 -0.70556,0.43606 -4.90177,8.60023 -5.37254,10.45284 -0.0699,0.275 -0.94336,2.3 -1.94106,4.5 -0.99771,2.2 -2.31441,5.125 -2.92601,6.5 -0.61161,1.375 -1.85189,3.625 -2.7562,5 -2.46327,3.74542 -7.20518,18.83499 -6.49802,20.67782 0.75503,1.96756 0.04,2.78463 7.95916,-9.09536 z m -121.68663,-4.77863 c 1.81369,-1.75789 3.29761,-3.9947 3.29761,-4.97068 0,-2.29857 6.24264,-8.7385 17.5,-18.05308 C 280.1518,369.79397 293.34795,360 294.45641,360 c 0.37237,0 2.15198,-1.125 3.9547,-2.5 1.80272,-1.375 3.7426,-2.5 4.31084,-2.5 0.56824,0 1.56091,-0.6359 2.20593,-1.4131 2.01267,-2.42512 13.44764,-8.81827 16.07212,-8.98572 3.42735,-0.21869 4.70169,-1.06831 13.65074,-9.10118 4.2891,-3.85 10.13551,-9.025 12.99202,-11.5 2.85651,-2.475 5.23046,-4.74871 5.27544,-5.05269 0.045,-0.30399 -2.39613,-0.27995 -5.42471,0.0534 -4.60636,0.50702 -6.19743,1.25126 -9.73307,4.55269 -2.3246,2.17063 -4.38417,4.28409 -4.57682,4.69659 -0.19265,0.4125 -0.82892,0.75 -1.41394,0.75 -0.58502,0 -2.91002,1.49767 -5.16667,3.32815 -2.25664,1.83049 -7.47799,4.97733 -11.60299,6.99298 -4.125,2.01566 -8.175,4.08407 -9,4.59649 -0.825,0.51241 -3.22734,1.92689 -5.33853,3.14329 -2.75215,1.5857 -3.46789,2.4407 -2.52896,3.02099 1.59204,0.98393 1.9259,0.68363 -6.63251,5.96585 -3.85,2.37621 -7.675,4.90036 -8.5,5.60923 -0.825,0.70886 -4.875,4.18917 -9,7.734 -12.73712,10.94571 -25.54352,24.69783 -27.80564,29.85902 -2.4709,5.63753 -1.25907,6.17429 3.50803,1.55383 z m 293.34299,-8.36979 c 1.72781,-2.51128 5.01193,-8.23265 7.29804,-12.71416 2.28612,-4.4815 4.71908,-8.31432 5.40658,-8.51737 2.11667,-0.62514 1.45586,6.54356 -0.99586,10.80352 -1.66836,2.89884 -1.95553,4.19258 -1.11681,5.0313 0.83872,0.83872 1.96856,-0.69231 4.39389,-5.95414 1.79567,-3.89576 3.69776,-7.08319 4.22687,-7.08319 0.58036,0 0.75134,3.19643 0.43099,8.05699 -0.83467,12.66423 1.73783,9.51811 6.99684,-8.55699 0.80012,-2.75 1.64128,-6.25432 1.86925,-7.78738 0.22796,-1.53306 0.91254,-3.71803 1.52129,-4.85549 0.97715,-1.82583 0.42316,-2.69931 -4.72882,-7.45599 -3.20961,-2.96334 -8.07575,-6.4965 -10.81365,-7.85147 l -4.97799,-2.46358 -3.028,2.45595 C 541.94199,351.69492 534.92507,357 534.37281,357 533.20977,357 524,364.17863 524,365.08517 c 0,1.94586 4.49181,0.76088 10.154,-2.67872 4.52538,-2.74903 6.23132,-3.33155 7.25893,-2.47871 1.09719,0.91059 0.61166,2.53083 -2.65013,8.84355 -2.19638,4.25079 -4.61653,8.43914 -5.37811,9.30745 -0.76158,0.86831 -1.38469,2.30425 -1.38469,3.19098 0,0.88674 -0.48921,1.91459 -1.08713,2.28413 -0.78054,0.4824 -0.7816,0.97742 -0.004,1.75527 1.26007,1.26007 1.61167,0.86149 9.7557,-11.05912 3.63985,-5.32774 6.2914,-8.25 7.48574,-8.25 2.25674,0 2.29092,0.64924 0.23689,4.5 -5.08255,9.52845 -8.37972,16.57673 -9.79012,20.92814 -1.93001,5.95454 -1.92003,5.57186 -0.14537,5.57186 0.79858,0 2.86562,-2.05468 4.59342,-4.56596 z M 268,386.49282 c 9.67848,-6.74173 10.38037,-7.21351 17.50747,-11.76781 3.85411,-2.46282 8.87582,-5.99596 11.15936,-7.85143 2.28354,-1.85547 6.88754,-5.59121 10.23112,-8.30165 11.0267,-8.93869 4.50971,-6.68495 -11.64243,4.02623 -6.18614,4.1023 -13.61199,9.35842 -16.5019,11.68028 -2.88991,2.32186 -7.00865,5.53302 -9.15277,7.13592 C 264.51633,385.21546 256,393.35291 256,394.41015 c 0,0.45497 1.4625,-0.27829 3.25,-1.62948 1.7875,-1.3512 5.725,-4.18073 8.75,-6.28785 z M 584.46639,347.25 c 4.13562,-5.3625 8.94191,-12.45 10.68064,-15.75 1.73873,-3.3 4.02187,-7.23649 5.07365,-8.74776 1.05177,-1.51126 3.44086,-5.73257 5.30909,-9.38067 1.86822,-3.64811 4.04626,-7.36161 4.84009,-8.25224 1.57031,-1.76181 23.34655,-39.21121 24.38972,-41.94391 0.35176,-0.92148 1.00842,-2.12542 1.45923,-2.67542 0.45082,-0.55 3.33802,-5.275 6.41601,-10.5 3.07798,-5.225 9.3258,-15.15222 13.88404,-22.06048 4.55824,-6.90827 10.4172,-16.58327 13.01991,-21.5 2.60271,-4.91674 5.47757,-10.06452 6.38857,-11.43952 4.05263,-6.11674 7.05614,-13.7558 7.22675,-18.38035 0.17761,-4.81437 0.0832,-4.97476 -6.98703,-11.86537 C 669.50329,158.25976 667.85394,156 669.77749,156 c 2.01417,0 15.23764,12.13971 17.08445,15.68426 1.2797,2.45611 1.40792,10.76927 0.21308,13.81574 -0.55403,1.41261 -0.11698,2.88108 1.48812,5 2.05375,2.71119 2.90214,6.52503 3.44797,15.5 0.14305,2.35217 0.23808,2.30293 1.60706,-0.83266 0.87305,-1.99967 1.6978,-8.40814 2.06199,-16.02203 0.65946,-13.78666 -0.17425,-17.2767 -4.9214,-20.60173 -1.23897,-0.86781 -3.42107,-3.70762 -4.84911,-6.3107 -2.35782,-4.29793 -3.55279,-5.2062 -13.00304,-9.88328 -14.40269,-7.12812 -14.21382,-7.11804 -20.57838,-1.09871 C 649.3977,154.02247 647,156.8692 647,157.57696 c 0,0.70777 -1.33422,2.2369 -2.96493,3.39807 -1.63071,1.16117 -5.38434,5.80431 -8.34139,10.31809 -2.95706,4.51378 -6.68534,10.17522 -8.28507,12.58096 -1.59974,2.40575 -3.73514,5.66416 -4.74535,7.24091 -1.01021,1.57675 -3.32625,7.03341 -5.14676,12.12592 C 615.69599,208.33341 611.49399,218.125 608.17872,225 601.58287,238.67804 596,252.21313 596,254.52603 c 0,2.3729 1.55686,1.69895 2.94769,-1.27603 1.75812,-3.76061 2.84936,-5.7783 6.89566,-12.75 1.91529,-3.3 4.2134,-7.35 5.10691,-9 4.17398,-7.70783 11.86853,-19.21275 15.76018,-23.56467 1.76574,-1.97458 6.29257,-8.77809 10.05962,-15.1189 3.76706,-6.34082 8.82078,-14.18098 11.23051,-17.42259 C 654.52299,166.61974 666,158.02725 666,161.91821 c 0,0.50502 0.24369,1.55325 0.54152,2.3294 0.36021,0.93869 -0.85739,2.04201 -3.6365,3.29522 -5.52694,2.4923 -8.84712,5.95352 -15.664,16.32938 -4.87222,7.41592 -15.32449,26.24078 -18.13899,32.66889 -0.49152,1.1226 -1.61556,2.6402 -2.49785,3.37244 -0.8823,0.73224 -1.60418,1.78371 -1.60418,2.33659 0,0.55288 -2.25,4.04032 -5,7.74987 -2.75,3.70955 -5,7.11063 -5,7.55796 0,0.44733 -1.8,2.94802 -4,5.55709 -2.2,2.60907 -4,5.23175 -4,5.82819 0,1.11952 -3.46565,8.37104 -8.68486,18.17215 -1.64464,3.08847 -3.74761,7.36347 -4.67325,9.5 -1.89344,4.37035 -8.34145,16.51275 -14.134,26.61605 -2.12265,3.70229 -5.4787,8.42729 -7.4579,10.5 -1.9792,2.07271 -4.89337,5.99017 -6.47595,8.70546 -1.58258,2.7153 -4.60915,6.81562 -6.72573,9.11183 -2.11657,2.29621 -3.84298,4.79961 -3.83646,5.5631 0.007,0.76349 2.36901,3.02786 5.25,5.03193 7.57039,5.2661 14.73815,11.80311 14.73815,13.44123 0,3.01503 2.22184,1.05875 9.46639,-8.33499 z m 104.26221,2.83153 c 1.22573,-2.43016 3.3244,-6.07433 4.66371,-8.09816 7.38446,-11.15868 15.54687,-31.17374 17.66933,-43.32703 1.96783,-11.26784 2.06283,-14.10141 0.72606,-21.65634 -0.76286,-4.31142 -1.02433,-9.20058 -0.615,-11.5 1.06744,-5.9965 0.96001,-11.38351 -0.27295,-13.68733 -1.07067,-2.00055 -1.15091,-1.97862 -2.98399,0.81575 -1.7527,2.67184 -3.91576,3.8438 -3.91576,2.12158 0,-0.4125 0,-1.65965 0,-2.77144 0,-1.14827 1.00963,-2.48145 2.33735,-3.0864 2.21801,-1.0106 2.28101,-1.30306 1.23395,-5.72857 -0.60687,-2.56497 -1.74878,-5.78859 -2.53759,-7.16359 -0.7888,-1.375 -1.767,-4.75 -2.17377,-7.5 -1.11035,-7.50641 -4.27252,-18.58528 -5.3676,-18.80574 -0.53072,-0.10684 -1.09789,0.70574 -1.26037,1.80574 -0.68395,4.63041 -3.57462,14.14556 -4.85239,15.97251 -0.75877,1.08487 -1.37958,2.62457 -1.37958,3.42154 0,1.85967 -4.88088,14.18021 -6.32372,15.9626 -0.60401,0.74616 -1.56577,2.16147 -2.13724,3.14513 C 676.22542,259.14796 653.58633,285 650.89047,285 c -1.44793,0 -18.64053,20.91016 -20.91485,25.43728 -0.81159,1.6155 -3.68373,5.06148 -6.38253,7.65772 l -4.90692,4.72044 3.65692,4.27228 c 2.0113,2.34975 3.65691,4.61237 3.65691,5.02804 0,1.42774 14.69279,12.7609 19.09534,14.72903 15.54911,6.95116 19.98669,7.9352 34.90466,7.74018 l 6.5,-0.085 2.2286,-4.41847 z M 688,333.57143 C 688,331.53061 690.8074,329 693.07143,329 c 2.18669,0 2.62709,2.90148 0.72857,4.8 -1.68064,1.68064 -5.8,1.5183 -5.8,-0.22857 z m 6.66667,-13.2381 c -1.042,-1.042 -0.79717,-2.05997 0.90476,-3.7619 C 697.68126,314.4616 700,314.58128 700,316.8 c 0,3.06285 -3.49102,5.37565 -5.33333,3.53333 z M 697,305.69113 c 0,-1.76123 2.11294,-4.27752 4.19881,-5.00036 2.16634,-0.75073 3.45842,2.81239 1.76136,4.85722 C 701.45936,307.35636 697,307.46346 697,305.69113 Z M 704,286.2 c 0,-1.03498 2.16502,-3.2 3.2,-3.2 0.44,0 0.8,0.9 0.8,2 0,1.33333 -0.66667,2 -2,2 -1.1,0 -2,-0.36 -2,-0.8 z m 1,-18.07756 c 0,-2.53804 2.73988,-4.78256 4.13502,-3.38742 0.73368,0.73368 0.7103,1.68548 -0.0776,3.15762 -1.39893,2.61392 -4.05746,2.7645 -4.05746,0.2298 z M 699,238 c 0,-1.11111 0.66667,-2 1.5,-2 1.68305,0 1.75069,0.18315 0.89301,2.41821 C 700.53559,240.65261 699,240.38425 699,238 Z m 0.71193,112.67804 c 0.47293,-0.29229 2.55744,-4.05192 4.63224,-8.35474 3.4804,-7.21783 4.43918,-9.31854 7.45,-16.3233 2.50706,-5.83274 8.11559,-24.35319 8.60021,-28.39954 0.13836,-1.15525 0.51775,-3.22546 0.84309,-4.60046 2.72796,-11.52939 4.02004,-22.85697 3.96706,-34.77925 -0.0327,-7.35989 -1.22007,-13.50867 -4.29097,-22.22075 -0.48467,-1.375 -1.59312,-5.425 -2.46322,-9 -0.87009,-3.575 -1.97475,-8.05016 -2.45479,-9.9448 -0.48004,-1.89464 -0.65703,-3.79393 -0.39331,-4.22063 0.26372,-0.42671 -0.15856,-2.02655 -0.93841,-3.5552 C 713.88399,207.75072 712.2365,202 711.00275,196.5 c -1.23375,-5.5 -2.5147,-10.45 -2.84654,-11 -0.33184,-0.55 -0.65234,-1.45 -0.71221,-2 -0.43007,-3.95042 -1.98348,-7.74904 -3.33619,-8.1581 -3.50217,-1.05906 -4.50654,-2.124 -5.56929,-5.90516 -0.60857,-2.1652 -1.38645,-3.48556 -1.72863,-2.93412 -0.34218,0.55144 0.0474,2.80144 0.8658,5 0.81837,2.19856 1.69098,8.72238 1.93914,14.49738 0.54145,12.60037 1.29228,21.77811 2.00435,24.5 0.28777,1.1 0.73433,3.53102 0.99235,5.40227 0.25803,1.87125 1.40162,4.71183 2.54132,6.31239 1.51126,2.12236 1.90411,3.75052 1.45128,6.01468 -0.41864,2.0932 0.0183,4.43467 1.34123,7.18761 1.07918,2.24568 2.19904,5.45856 2.48859,7.13973 0.28955,1.68118 1.27216,4.55147 2.18357,6.37844 2.22989,4.46992 2.8326,10.78349 1.48935,15.60129 -0.87617,3.14252 -0.75872,5.64043 0.56697,12.0583 1.56334,7.5684 1.56312,8.54368 -0.004,15 -0.92156,3.79791 -1.67438,7.89199 -1.67294,9.09795 0.005,3.8485 -6.62664,22.49164 -11.3909,32.02457 -2.53357,5.06948 -4.60649,9.4985 -4.60649,9.84227 0,0.34377 -0.9,1.76921 -2,3.16763 -2.97677,3.78435 -2.62711,5.9309 0.92603,5.68491 1.60931,-0.11141 3.31297,-0.44171 3.7859,-0.734 z M 380.5,350 c 0.33992,-0.55 0.16803,-1 -0.38197,-1 -0.55,0 -1.27811,0.45 -1.61803,1 -0.33992,0.55 -0.16803,1 0.38197,1 0.55,0 1.27811,-0.45 1.61803,-1 z m 167.00437,-11.00706 c 0.34231,-0.55389 -0.10054,-1.28448 -0.98412,-1.62354 -1.91464,-0.73472 -2.98171,0.0749 -2.06137,1.56407 0.83038,1.34358 2.23491,1.37101 3.04549,0.0595 z M 607.11264,327.25 c 3.33308,-3.1625 8.34885,-8.9 11.14615,-12.75 6.036,-8.30749 14.37746,-18.24114 17.41286,-20.73657 1.94068,-1.59545 11.60942,-12.31299 27.18534,-30.13422 2.94634,-3.37106 5.87295,-7.25421 6.50359,-8.62921 1.36367,-2.97328 3.97718,-6.98263 8.25253,-12.6601 4.26587,-5.66488 13.33009,-25.0961 11.87879,-25.4649 -0.27054,-0.0687 -1.0544,-0.2017 -1.7419,-0.29545 -0.6875,-0.0937 -1.17553,-0.6 -1.08451,-1.125 0.091,-0.525 0.46562,-2.97004 0.83244,-5.43342 0.36682,-2.46338 0.89161,-4.8424 1.1662,-5.2867 0.91749,-1.48452 -0.7419,-8.20454 -2.64748,-10.72154 l -1.88296,-2.48711 -2.31685,2.19332 c -1.27426,1.20633 -3.43083,4.35053 -4.79237,6.98712 -1.36154,2.63658 -2.76048,5.01878 -3.10876,5.29378 -0.34827,0.275 -1.7199,2.525 -3.04805,5 -2.81229,5.24066 -4.57659,8.11819 -10.42324,17 -5.0744,7.70866 -16.61057,27.92629 -16.84461,29.52088 -0.0902,0.61462 -1.77127,3.33635 -3.7357,6.0483 -4.12646,5.69669 -10.15965,17.2391 -11.84794,22.66689 -0.63914,2.05484 -1.58144,3.99525 -2.09398,4.31202 -1.35194,0.83554 -9.05227,12.27227 -11.4137,16.95191 -1.11016,2.2 -3.27318,5.93438 -4.80671,8.29862 -1.53354,2.36424 -3.17996,5.28924 -3.65871,6.5 -0.47875,1.21076 -2.0343,3.75131 -3.45677,5.64566 -2.47492,3.29595 -3.19197,5.05572 -2.06005,5.05572 0.28944,0 3.25331,-2.5875 6.58639,-5.75 z m 27.94041,-44.68608 C 633.60119,280.81454 635.27878,277 637.5,277 c 2.22122,0 3.89881,3.81454 2.44695,5.56392 C 639.29144,283.35377 638.19031,284 637.5,284 c -0.69031,0 -1.79144,-0.64623 -2.44695,-1.43608 z m 15.51838,-17.13535 c -1.74137,-1.74137 -1.79205,-2.00472 -0.97302,-5.05667 0.56849,-2.11838 4.16126,-4.3719 6.97008,-4.3719 0.81091,0 2.00861,1.17248 2.66154,2.60552 1.0892,2.39052 0.90177,2.84213 -2.27144,5.4731 -4.05084,3.35862 -4.32132,3.41579 -6.38716,1.34995 z m 13.92489,-26.43263 c -3.64407,-4.02666 2.46135,-9.69451 7.5242,-6.98496 2.60453,1.3939 2.51369,4.41342 -0.20908,6.95006 -2.76464,2.57566 -5.00609,2.58635 -7.31512,0.0349 z M 676.557,215.66533 c -2.41735,-1.7676 -1.06781,-6.52062 2.20469,-7.76482 1.85539,-0.70542 3.12386,-0.5503 4.87329,0.59597 3.38697,2.21923 2.92946,4.17492 -1.50603,6.43773 -3.17129,1.61788 -4.17851,1.75004 -5.57195,0.73112 z M 554.53194,326.96471 c 1.79447,-1.98287 1.78558,-2.09163 -0.34501,-4.22223 L 552,320.55556 v 2.61523 c 0,1.44928 -0.697,2.8827 -1.56338,3.21516 -1.74806,0.67079 -1.0289,2.61405 0.96741,2.61405 0.7073,0 2.11486,-0.91588 3.12791,-2.03529 z M 557,319.05902 c 0,-1.17986 -1.95035,-2.442 -2.66667,-1.72569 C 553.61702,318.04965 554.87916,320 556.05902,320 556.57656,320 557,319.57656 557,319.05902 Z m 7.33641,-6.05594 c -0.81986,-0.81986 -3.32464,3.20695 -2.66186,4.27934 0.33576,0.54328 1.18452,-0.0848 1.88614,-1.39581 0.70161,-1.31098 1.05069,-2.60857 0.77572,-2.88353 z M 347.04966,302.47432 c 2.96651,-1.53404 3.17271,-2.07325 3.23182,-8.45122 0.0264,-2.84917 -0.40232,-3.5878 -2.37463,-4.09113 -1.32377,-0.33782 -3.53185,-0.0478 -4.90685,0.64448 -3.45844,1.74126 -10.53685,9.21699 -9.61547,10.15519 0.65263,0.66455 7.60055,2.88602 9.91513,3.17018 0.43981,0.054 2.12731,-0.58838 3.75,-1.4275 z M 497.98469,302.25 c -0.0363,-1.77777 -1.74659,-3.44427 -2.41871,-2.35676 -0.37621,0.60872 -0.4059,1.55676 -0.066,2.10676 0.72089,1.16642 2.50707,1.34614 2.48469,0.25 z m -14.10058,-9.69922 c -0.88654,-0.88655 -4.94362,2.54391 -4.27948,3.61851 0.38993,0.63092 1.44431,0.22622 2.71117,-1.04065 1.1402,-1.14019 1.84594,-2.30023 1.56831,-2.57786 z m -29.42682,-1.48168 c 0.73955,-1.1966 -1.14162,-2.38223 -2.4736,-1.55902 C 450.86533,290.20126 451.59952,292 453,292 c 0.48508,0 1.14086,-0.41891 1.45729,-0.9309 z M 586.82289,280.75 c 3.55291,-7.55497 6.4848,-15.16287 7.80383,-20.25 1.39992,-5.3991 -7.05908,8.09828 -10.65413,17 -5.34222,13.22788 -3.0638,15.82581 2.8503,3.25 z M 576.8,283.8 c 0.66,-0.66 1.2,-1.82949 1.2,-2.59887 0,-0.76938 0.63268,-2.81688 1.40595,-4.55 C 582.41492,269.90719 587,257.68769 587,256.41258 c 0,-0.73774 2.53372,-5.96987 5.63048,-11.62696 3.09676,-5.65709 6.42286,-12.08562 7.39134,-14.28562 0.96847,-2.2 3.85577,-8.44971 6.41622,-13.88823 2.56045,-5.43853 4.52185,-10.54233 4.35866,-11.34178 -0.16318,-0.79945 -2.94092,2.75025 -6.17273,7.88823 -3.23182,5.13798 -8.51932,13.27233 -11.75,18.07633 -3.23069,4.804 -5.87834,9.079 -5.88368,9.5 -0.005,0.421 -1.58033,2.74128 -3.5,5.15618 -1.91966,2.4149 -3.49029,4.71047 -3.49029,5.10126 0,1.01315 -18.91002,24.43991 -20.05186,24.84134 -1.65246,0.58095 -1.02475,-2.46621 1.05186,-5.1062 2.5559,-3.2493 2.53362,-3.37638 -0.73587,-4.19697 -2.52623,-0.63405 -2.5905,-0.76801 -0.83882,-1.7483 1.35487,-0.75822 2.41419,-0.73868 3.70651,0.0684 1.54111,0.96244 2.18461,0.57798 4.33883,-2.59224 2.99256,-4.40396 3.11655,-5.24612 0.77935,-5.29345 -2.40521,-0.0487 -6.73059,-2.5495 -5.60878,-3.24282 0.50128,-0.30981 2.80973,-0.0566 5.12989,0.56269 3.11388,0.83114 4.51178,0.83268 5.33859,0.006 1.91177,-1.91177 -4.94067,-4.60669 -15.1097,-5.94231 -3.52539,-0.46303 -20.02907,1.34774 -20.98364,2.30231 -0.28227,0.28227 0.27358,1.08854 1.23521,1.7917 2.35552,1.7224 2.20524,2.43382 -0.75157,3.558 -2.7915,1.06133 -3.17631,3.5225 -1.00023,6.39732 0.78989,1.04353 1.20135,2.27726 0.91435,2.74164 -0.99104,1.60353 5.79497,8.86104 8.28536,8.86104 1.30062,0 3.97311,0.67201 5.93887,1.49336 1.96577,0.82135 3.94537,1.26391 4.39913,0.98348 0.45375,-0.28044 2.45308,0.59496 4.44295,1.94532 1.98987,1.35036 5.28331,2.98716 7.31876,3.63732 2.03545,0.65017 4.12831,1.57776 4.65081,2.06132 1.31576,1.2177 2.93059,1.09861 4.35,-0.3208 z M 545.5,261 c 0.33992,-0.55 0.81648,-1 1.05902,-1 0.24254,0 0.44098,0.45 0.44098,1 0,0.55 -0.47656,1 -1.05902,1 -0.58246,0 -0.7809,-0.45 -0.44098,-1 z m 5,0 c 0.33992,-0.55 2.36492,-1 4.5,-1 2.13508,0 4.16008,0.45 4.5,1 0.38127,0.61691 -1.34262,1 -4.5,1 -3.15738,0 -4.88127,-0.38309 -4.5,-1 z m -219.78037,-1.25 c 3.60168,-1.7875 7.54588,-4.6 8.7649,-6.25 3.66329,-4.95846 7.6643,-16.45307 7.99832,-22.97864 0.16952,-3.31175 0.61524,-7.62853 0.99048,-9.59284 0.87045,-4.55653 -1.68159,-14.58123 -4.40544,-17.30508 l -2.03201,-2.032 -2.93703,2.81386 c -3.96704,3.80066 -4.62819,6.93797 -2.18232,10.35569 1.98262,2.77039 2.3949,4.884 2.19416,11.24863 -0.0873,2.76724 -1.19838,4.671 -5.25275,9 -5.62264,6.00352 -7.46972,5.50386 -3.41254,-0.92313 1.40973,-2.23316 2.69963,-4.95459 2.86644,-6.04762 0.16681,-1.09303 0.61488,-2.29893 0.99572,-2.67977 1.16668,-1.16667 0.76921,-6.87185 -0.61017,-8.75827 -1.18234,-1.61694 -1.42408,-1.63508 -2.61803,-0.19646 -0.72427,0.8727 -1.05171,2.59338 -0.72861,3.8289 0.38377,1.46752 -0.62566,4.69777 -2.91737,9.33583 C 324.23467,236.04278 320,252.46537 320,258.39668 c 0,2.24357 1.68425,4.60332 3.28557,4.60332 0.48706,0 3.83239,-1.4625 7.43406,-3.25 z m 246.28413,-11.25232 c 0.54793,-0.33864 0.99624,-1.03916 0.99624,-1.5567 0,-1.23776 -5.08348,-1.18378 -7,0.0743 -3.11379,2.04408 2.75164,3.49229 6.00376,1.48237 z M 539.5,245.98904 c 8.2002,-1.12105 15.53315,-1.90651 18.89908,-2.02438 3.99908,-0.14003 -0.1535,-1.78917 -5.89908,-2.34274 -3.3,-0.31794 -6.99007,-0.85956 -8.20015,-1.20359 -1.45688,-0.4142 -3.27509,0.13991 -5.38212,1.64025 -3.11696,2.21947 -3.28655,2.23224 -8.29985,0.62462 -9.966,-3.19579 -12.44797,-3.59286 -13.62125,-2.17914 -1.27998,1.54228 -0.7426,2.00252 5.9544,5.09973 2.50193,1.15709 5.44897,1.9632 6.54897,1.79136 1.1,-0.17184 5.6,-0.80459 10,-1.40611 z m -165.55952,-3.57255 c 0.79226,-0.75288 1.16091,-1.64843 0.81923,-1.99011 C 374.00126,239.66792 368,243.09182 368,244.283 c 0,1.14476 4.14077,-0.15627 5.94048,-1.86651 z m 203.3742,0.49397 c 4.50549,-1.20753 4.42691,-3.27263 -0.14169,-3.72382 C 572.16137,238.6917 573.48011,237 578.87756,237 c 3.24898,0 5.32045,-0.53366 6.20402,-1.5983 1.15893,-1.39642 1.0165,-1.56642 -1.12755,-1.3459 -1.34972,0.13882 -3.57903,-0.005 -4.95403,-0.31901 -1.375,-0.31427 -6.55,-1.34454 -11.5,-2.28948 -4.95,-0.94494 -9.4275,-2.10715 -9.95,-2.58269 -1.33139,-1.21174 -0.37876,-1.11126 9.95,1.04948 8.84611,1.85058 15.04792,2.07467 19,0.68654 2.57471,-0.90434 6.82227,-6.27018 6.00728,-7.58886 -0.76847,-1.24341 -5.18568,-1.34115 -5.93342,-0.13129 -0.29929,0.48426 -4.48394,1.20866 -9.29922,1.60977 -4.81527,0.40111 -9.65946,0.87203 -10.76484,1.04649 -5.11628,0.80747 -16.89203,1.51214 -16.35882,0.97893 0.32811,-0.3281 6.16586,-1.46568 12.97279,-2.52796 19.45521,-3.03614 31.89867,-5.61016 33.14475,-6.85624 1.84102,-1.84102 -1.08327,-3.86533 -7.14479,-4.94592 -4.93875,-0.88043 -5.8497,-0.72354 -11.19391,1.928 -3.1997,1.58754 -6.42788,2.88644 -7.17373,2.88644 -0.74585,0 -1.85044,0.49435 -2.45465,1.09856 -0.6042,0.6042 -5.0817,1.26362 -9.95,1.46538 -5.02958,0.20844 -13.38511,1.50484 -19.35144,3.00248 -5.775,1.44961 -12.3,2.8005 -14.5,3.00196 -7.07066,0.64751 -9.01096,1.11119 -8.5,2.03127 0.68203,1.22813 14.22675,0.4185 24.21448,-1.44741 4.45787,-0.83282 8.00375,-0.0371 6.50656,1.46005 -0.39657,0.39658 -2.40854,0.67589 -4.47104,0.62071 -2.0625,-0.0552 -5.775,0.29283 -8.25,0.77336 -2.475,0.48053 -7.875,1.1311 -12,1.4457 -4.125,0.3146 -9.075,0.93616 -11,1.38125 -3.76611,0.87077 -2.92938,1.49571 3.4866,2.60411 1.64263,0.28377 4.24456,1.03701 5.78207,1.67387 3.08984,1.27985 5.02123,0.37933 2.70237,-1.26 -1.20594,-0.85254 -1.14987,-0.93628 0.31111,-0.46467 7.77393,2.50945 17.07309,4.4061 25.21785,5.14341 13.24137,1.19868 17.37941,1.85607 16.87015,2.68007 -0.31485,0.50944 -1.18752,0.69022 -1.93928,0.40175 -1.55616,-0.59716 -2.74522,0.73202 -1.65368,1.84857 0.83588,0.85504 9.96013,-0.0551 15.53749,-1.54996 z m -15.28869,-5.05138 c -3.01071,-0.49891 -5.93571,-1.38132 -6.5,-1.96091 -0.71593,-0.73533 0.0317,-0.89247 2.47401,-0.51997 1.925,0.2936 5.6375,0.80619 8.25,1.13909 2.6125,0.33289 4.75,1.02768 4.75,1.54398 0,1.08273 -1.41213,1.05091 -8.97401,-0.20219 z M 549.5,235 c -0.35052,-0.56716 0.48962,-1 1.94098,-1 1.40746,0 2.55902,0.45 2.55902,1 0,0.55 -0.87344,1 -1.94098,1 -1.06754,0 -2.2191,-0.45 -2.55902,-1 z m -3.5,-1.05902 c 0,-0.58246 0.45,-0.7809 1,-0.44098 0.55,0.33992 1,0.81648 1,1.05902 0,0.24254 -0.45,0.44098 -1,0.44098 -0.55,0 -1,-0.47656 -1,-1.05902 z M 390,241 c 0,-0.55 -0.675,-1 -1.5,-1 -0.825,0 -1.5,0.45 -1.5,1 0,0.55 0.675,1 1.5,1 0.825,0 1.5,-0.45 1.5,-1 z m 70.50437,-0.007 c 0.34231,-0.55389 -0.10054,-1.28448 -0.98412,-1.62354 -1.91464,-0.73472 -2.98171,0.0749 -2.06137,1.56407 0.83038,1.34358 2.23491,1.37101 3.04549,0.0595 z m -89.38712,-3.45573 c 1.21039,0.38417 2.70177,0.0342 3.70441,-0.86917 0.92309,-0.83172 3.02834,-1.83449 4.67834,-2.22839 4.27257,-1.01996 4.74592,-1.4384 3.42611,-3.02868 C 381.95113,230.23618 382.42726,230 385.77057,230 c 5.0196,0 6.60167,-2.5397 2.18618,-3.5095 C 383.16334,225.43769 364,235.60732 364,239.2039 c 0,0.56437 1.14551,0.27555 2.54558,-0.64181 1.50076,-0.98333 3.37718,-1.40399 4.57167,-1.02488 z m 10.31249,1.57648 c 0.93447,-1.51201 -3.28804,-1.98935 -4.51542,-0.51046 -0.94106,1.13391 -0.6768,1.39677 1.40422,1.39677 1.40988,0 2.80992,-0.39884 3.1112,-0.88631 z M 390,234 c 0,-0.55 -0.675,-1 -1.5,-1 -0.825,0 -1.5,0.45 -1.5,1 0,0.55 0.675,1 1.5,1 0.825,0 1.5,-0.45 1.5,-1 z m -31.47293,-1.0438 C 359.22075,231.83381 357.32291,229 355.87756,229 c -1.02463,0 -1.18797,3.35626 -0.21089,4.33333 0.96949,0.9695 2.12206,0.81754 2.8604,-0.37713 z m 151.06583,-7.46046 c 1.32391,-0.27266 3.59719,-0.74565 5.05174,-1.0511 5.01628,-1.05338 0.76056,-2.64324 -8.29936,-3.1005 -4.8649,-0.24553 -12.59067,-1.14052 -17.16837,-1.98886 -4.5777,-0.84834 -8.57961,-1.28591 -8.89313,-0.97239 -0.70239,0.70239 -0.36457,0.83199 13.21622,5.07025 6.05,1.88807 11.60431,3.23159 12.3429,2.9856 0.7386,-0.246 2.4261,-0.67035 3.75,-0.943 z m -101.99087,-3.53453 2.73222,-1.03879 -2.16712,-1.51791 c -2.82819,-1.98094 -2.73858,-3.23675 0.31377,-4.39725 1.64901,-0.62695 2.28377,-1.45695 1.89301,-2.47525 -0.69306,-1.80608 -2.70364,-1.96109 -5.56614,-0.42913 -1.5016,0.80363 -2.71725,0.80376 -4.48022,5e-4 -2.06416,-0.94049 -2.77984,-0.742 -4.8735,1.35167 C 392.20283,216.70626 392.35824,218 396,218 c 2.29898,0 3,0.45182 3,1.93358 0,1.3417 0.84179,2.0611 2.75,2.35017 1.5125,0.22912 2.83321,0.48401 2.9349,0.56642 0.1017,0.0824 1.4144,-0.31763 2.91713,-0.88896 z m 122.11286,-0.60587 c 0.40335,-1.21005 -9.99671,-2.91723 -11.62838,-1.90881 -0.52157,0.32235 -1.21882,0.14841 -1.54944,-0.38654 -0.33061,-0.53496 -1.25912,-0.72014 -2.06335,-0.41153 C 511.79517,219.67631 514.06157,221 518.5,221 c 2.41008,0 4.64297,0.42231 4.96197,0.93847 0.78693,1.27328 5.78963,0.80674 6.25292,-0.58313 z m -92.52655,-0.97174 c 1.46146,-0.90323 -0.39719,-2.34972 -3.23251,-2.51569 -1.3507,-0.0791 -3.79058,0.39414 -5.42195,1.05158 -2.35694,0.94985 -2.66501,1.38343 -1.5,2.11115 1.47609,0.92203 8.3214,0.48585 10.15446,-0.64704 z M 510,219 c 0,-0.55 -0.45,-1 -1,-1 -0.55,0 -1,0.45 -1,1 0,0.55 0.45,1 1,1 0.55,0 1,-0.45 1,-1 z m 30.45,0.10182 c -1.46917,-1.38903 -11.45,-2.48139 -11.45,-1.25316 0,0.56999 1.9125,1.2086 4.25,1.41913 2.3375,0.21054 5.1275,0.46141 6.2,0.5575 1.18685,0.10634 1.57821,-0.1768 1,-0.72347 z m -60.24736,-4.28274 c 1.75423,-1.56617 4.95851,-3.32393 7.12064,-3.90613 2.9165,-0.78533 3.64019,-1.34948 2.80392,-2.18575 C 488.01349,206.61349 488.99716,206 494.5,206 c 3.025,0 5.5,-0.45 5.5,-1 0,-0.90787 -3.60926,-1.48249 -6.75,-1.07465 -0.6875,0.0893 -1.25,-0.23299 -1.25,-0.71614 0,-0.48316 3.55316,-0.67278 7.89591,-0.42138 5.98392,0.34641 9.01079,0.0313 12.5,-1.30123 5.19977,-1.98581 5.92711,-3.41332 1.85409,-3.63891 -1.5125,-0.0838 -3.2,-0.25687 -3.75,-0.38465 -0.55,-0.12779 -2.0125,-0.28425 -3.25,-0.34769 -1.2375,-0.0634 -2.25,-0.53951 -2.25,-1.05793 0,-0.51842 0.96936,-0.7559 2.15414,-0.52774 1.18478,0.22817 5.38623,0.70774 9.33655,1.06571 6.78677,0.615 7.59077,0.45827 14.59586,-2.84522 4.0774,-1.92284 8.38531,-3.79567 9.57314,-4.16185 1.18784,-0.36617 2.70544,-1.32335 3.37245,-2.12705 0.66701,-0.8037 2.17015,-1.47558 3.3403,-1.49307 2.74375,-0.041 5.42543,-2.10499 4.87158,-3.74945 -0.23734,-0.70469 -0.0518,-1.18769 0.41223,-1.07334 1.97381,0.48636 9.48114,-2.39013 12.19264,-4.67171 1.6169,-1.36054 3.64051,-2.4737 4.49691,-2.4737 0.8564,0 5.74144,-2.18514 10.85565,-4.85586 5.1142,-2.67072 10.87355,-5.14376 12.79855,-5.49563 4.14768,-0.75817 10.97223,-3.81994 10.98853,-4.92989 0.0296,-2.01393 -3.59157,-1.72112 -9.05903,0.73253 -4.20014,1.88491 -6.86015,2.50336 -8.86928,2.06208 -1.63481,-0.35907 -3.15136,-0.17478 -3.52404,0.42822 -0.35982,0.5822 -1.34569,1.05855 -2.19083,1.05855 -0.84513,0 -2.75852,0.87008 -4.25197,1.93351 -1.49346,1.06343 -4.03792,2.25749 -5.65437,2.65347 -1.61646,0.39597 -4.50735,1.55089 -6.4242,2.56649 -1.91686,1.01559 -4.20091,1.84653 -5.07567,1.84653 -2.81037,0 -20.77662,6.67836 -27.25434,10.13091 -2.21473,1.18042 -17.59699,6.92307 -19.69469,7.3526 -0.83043,0.17005 -3.75543,1.32166 -6.5,2.55916 -6.84611,3.08683 -8.45186,3.71076 -12.49011,4.85316 -1.925,0.54458 -7.55,2.49103 -12.5,4.32545 l -9,3.33531 0.20766,3.72171 c 0.11422,2.04693 -0.22328,3.7217 -0.75,3.7217 -1.70017,0 -1.01703,2.84501 1.0269,4.27663 2.90648,2.03578 4.65207,1.72618 8.21808,-1.45755 z m 88.58895,-0.31866 c 6.59816,-2.69188 4.80524,-3.97385 -5.87223,-4.19876 -5.17896,-0.10909 -10.21518,-0.40726 -11.19159,-0.6626 -1.23576,-0.32316 -1.6921,0.041 -1.50154,1.19834 0.15058,0.91443 -0.17623,1.59617 -0.72623,1.51498 -0.55,-0.0812 -9.1,-0.73531 -19,-1.45361 -18.77703,-1.36239 -30.37681,-1.54376 -33.05299,-0.51681 -2.69878,1.03562 -0.51557,2.61804 3.61201,2.61804 2.21762,0 3.94098,0.4847 3.94098,1.10841 0,0.64863 -0.93332,0.87624 -2.25,0.5487 -5.15338,-1.28195 -15.75,-1.90295 -15.75,-0.92301 0,0.55565 1.9125,1.35148 4.25,1.7685 6.76078,1.20614 20.75,1.509 20.75,0.44922 0,-0.5235 -1.4625,-0.9655 -3.25,-0.98223 -2.24727,-0.021 -2.7872,-0.28205 -1.75,-0.84601 0.825,-0.44858 5.1,-0.44274 9.5,0.013 29.47882,3.05325 35.33473,3.43532 42,2.74033 3.3,-0.34409 7.93122,-1.41351 10.29159,-2.37648 z m -139.03176,-0.72093 c -0.61657,-1.84971 -7.92893,-3.12392 -8.90102,-1.55105 -0.96172,1.55611 1.35569,2.60388 5.97452,2.70127 2.2019,0.0464 3.19524,-0.34399 2.9265,-1.15022 z m 37.4235,-0.99616 c -0.71756,-0.71756 -1.18333,-0.7766 -1.18333,-0.15 0,1.33478 1.18261,2.51739 1.85,1.85 0.28417,-0.28416 -0.0158,-1.04916 -0.66667,-1.7 z m -3.14151,-1.86147 c 1.62806,-3.04205 0.47899,-5.22281 -2.28689,-4.3402 -1.24021,0.39576 -3.94243,0.65503 -6.00493,0.57615 -4.74247,-0.18137 -4.9988,1.88549 -0.5,4.03173 4.68679,2.23592 7.49773,2.15034 8.79182,-0.26768 z M 603.46288,207.25 c 0.59814,-2.00302 0.30775,-2.26301 -2.64549,-2.36848 -1.82457,-0.0652 -3.94502,-0.0305 -4.71213,0.0771 -1.62982,0.22852 -7.25452,4.22548 -6.71107,4.76894 0.20328,0.20327 2.56025,0.94321 5.2377,1.6443 5.39258,1.41203 7.4677,0.44347 8.83099,-4.12183 z M 529.74845,209 c 2.42691,0 0.67053,-1.21264 -2.4657,-1.70237 -5.27677,-0.82399 -6.2012,-0.7943 -6.30082,0.20237 -0.1169,1.16943 3.91447,2.47782 5.84986,1.89858 C 527.56427,209.17936 528.87677,209 529.74845,209 Z m 55.39628,-2.10306 c 3.57213,-2.54358 3.63763,-3.89694 0.1886,-3.89694 -1.46666,0 -2.35616,-0.3105 -1.97666,-0.69 0.3795,-0.3795 2.817,-0.60137 5.41667,-0.49305 3.77948,0.15749 5.27773,-0.2958 7.47666,-2.26203 1.5125,-1.35244 2.75,-2.66982 2.75,-2.9275 0,-0.74291 -6.2052,-1.92504 -9.50515,-1.81078 -1.65283,0.0572 -3.67783,-0.34425 -4.5,-0.89216 -1.04243,-0.69471 0.16974,-0.83593 4.00515,-0.46662 13.34299,1.28478 14.98023,1.09417 17.54476,-2.04267 1.31082,-1.60336 2.3995,-3.18799 2.41928,-3.52141 0.0656,-1.1053 -44.39764,-4.25275 -47.84709,-3.387 -7.39199,1.85527 7.77829,3.83319 36.88305,4.80885 3.025,0.1014 5.60719,0.63437 5.73821,1.18437 0.13102,0.55 -0.76898,0.93514 -2,0.85587 -1.23102,-0.0793 -9.66321,-0.70663 -18.73821,-1.39413 -9.075,-0.68749 -17.85,-1.18644 -19.5,-1.10876 -1.65,0.0777 -4.26254,-0.37243 -5.80563,-1.00024 -2.08223,-0.84715 -3.09641,-0.8507 -3.93334,-0.0138 -1.49682,1.49682 -0.6496,2.19421 3.26795,2.69001 6.18833,0.78318 4.3749,1.57877 -3.05783,1.34153 -6.56905,-0.20966 -8.28618,0.14209 -14.22115,2.91322 -6.91441,3.22845 -8.07527,4.15819 -5,4.00454 2.0429,-0.10208 22.90714,1.12432 28.75,1.68991 2.2,0.21297 7.2625,0.51272 11.25,0.66612 3.9875,0.15341 7.25,0.69463 7.25,1.20272 0,1.07165 -34.50194,-0.4828 -56.5,-2.54555 -2.65881,-0.24932 -9.5,2.10987 -9.5,3.27608 0,0.50735 0.5625,0.95282 1.25,0.98994 0.6875,0.0371 2.825,0.24919 4.75,0.47127 11.50206,1.32694 23.46233,2.53535 29.98429,3.02947 4.11637,0.31186 7.57218,0.64909 7.67959,0.7494 0.10741,0.1003 5.24211,0.27914 11.41044,0.3974 9.88027,0.18944 11.555,-0.0269 14.07041,-1.81809 z m -17.09489,-13.63893 c -2.44759,-0.21591 -3.95336,-0.69979 -3.34617,-1.07529 1.5606,-0.9651 11.29633,-0.17755 11.29633,0.91379 0,0.49692 -0.7875,0.82487 -1.75,0.72878 -0.9625,-0.0961 -3.75257,-0.35136 -6.20016,-0.56728 z M 577,193.13751 c 0,-0.47436 1.16474,-0.73463 2.5883,-0.57836 C 583.41581,192.9793 583.82552,194 580.16667,194 578.425,194 577,193.61188 577,193.13751 Z m 151.71594,10.98198 c 8.38538,-4.33425 20.32001,-12.02656 25.88806,-16.68581 9.34501,-7.81976 21.58184,-20.44449 25.62147,-26.43368 2.04032,-3.025 6.42427,-8.98473 9.74211,-13.24385 3.31783,-4.25912 6.03242,-7.99801 6.03242,-8.30864 0,-0.93132 6.3661,-8.84082 8.25156,-10.25208 5.94197,-4.44751 20.01516,-20.90809 19.40377,-22.69543 -0.38968,-1.13916 -2.46251,-1.16145 -19.15533,-0.20591 -14.5749,0.83431 -20.43902,1.80214 -31.5,5.19886 -4.675,1.43565 -9.64573,2.76767 -11.04607,2.96003 -1.40033,0.19237 -4.23429,1.05515 -6.29768,1.91729 -3.57061,1.49189 -3.74126,1.77409 -3.53693,5.84863 0.36077,7.19384 -1.83745,13.97362 -6.01108,18.53951 -4.38352,4.7955 -6.85816,4.80591 -10.24957,0.0431 -2.92058,-4.10157 -4.33714,-2.28818 -4.44543,5.69075 l -0.0868,6.39243 3.08676,-0.5775 c 1.69772,-0.31763 4.97457,-1.41669 7.2819,-2.44236 2.30732,-1.02566 4.80482,-1.86484 5.55,-1.86484 0.74517,0 1.78236,-0.37175 2.30486,-0.82612 1.17473,-1.02154 7.04393,-2.66255 14.95,-4.17996 6.46423,-1.24068 15.76746,-3.72798 19,-5.07981 2.9032,-1.21411 8.36231,-1.55771 8.70556,-0.54794 0.4113,1.20994 -24.44667,9.32273 -31.20556,10.18443 -4.59162,0.58539 -11.13971,2.48077 -14.83884,4.29518 -2.01364,0.98769 -5.68616,2.37773 -8.16116,3.08899 -7.23645,2.07959 -8.8018,3.11768 -14.5166,9.62692 -5.24382,5.97279 -6.15724,8.40449 -2.40206,6.39478 3.75253,-2.00829 26.66688,-8.99656 32.91866,-10.03932 3.575,-0.59629 8.38677,-1.49658 10.69282,-2.00065 5.37636,-1.17521 9.30718,-1.17023 9.30718,0.0118 0,0.51056 -2.5875,1.43507 -5.75,2.05446 -16.2156,3.17593 -21.84091,4.41368 -22.75,5.00574 -0.55,0.3582 -3.025,1.22919 -5.5,1.93553 -2.475,0.70635 -5.51169,1.67739 -6.7482,2.15787 -5.18232,2.01374 -15.63759,3.93233 -16.53556,3.03436 -0.58093,-0.58093 -2.03154,-0.55369 -3.82597,0.0719 -3.26789,1.13919 -3.29214,1.19249 -1.80579,3.96975 0.59646,1.11449 1.23771,3.22241 1.42501,4.68425 0.1873,1.46185 0.79008,3.83474 1.33952,5.2731 l 0.99899,2.6152 5.826,-1.38773 c 7.13387,-1.69925 13.00994,-3.2946 16.326,-4.43248 2.88973,-0.9916 6.88107,-1.8266 12.36899,-2.58762 2.95378,-0.40961 3.76337,-0.21966 3.42248,0.80301 -0.68111,2.04334 -13.02668,5.46004 -30.27306,8.37823 -7.34186,1.24229 -7.52348,1.52785 -5.57872,8.77153 2.62285,9.76943 2.41379,9.68343 11.77625,4.84415 z m -330.81033,-0.83898 c 1.97691,-1.49572 4.37477,-3.69515 5.32857,-4.88762 0.95381,-1.19248 2.76063,-2.42576 4.01518,-2.74063 1.25454,-0.31487 3.76962,-2.10837 5.58906,-3.98555 l 3.30806,-3.41306 -3.47169,-2.14562 c -5.43933,-3.36169 -19.01281,-7.27366 -23.89381,-6.88636 -4.26154,0.33815 -4.26849,0.34511 -1.53098,1.53426 3.90218,1.69506 3.40822,2.97123 -1.32475,3.42259 -4.48971,0.42816 -6.14293,-0.81496 -3.57803,-2.69047 0.90903,-0.66469 1.65278,-1.49643 1.65278,-1.84829 0,-1.83146 -15.08806,1.12443 -15.7412,3.08383 -0.18847,0.56543 1.06072,2.20893 2.77599,3.65223 2.85395,2.40144 7.04551,3.36559 11.96521,2.75224 0.825,-0.10285 3.93848,-0.17412 6.91885,-0.15838 3.66294,0.0194 6.51678,-0.61917 8.80716,-1.97053 4.64099,-2.73825 6.36977,-2.46032 3.02234,0.4859 -3.74093,3.29257 -8.7119,4.50276 -18.5226,4.50937 l -8.27425,0.006 3.16635,3.47958 c 1.74149,1.91377 5.2399,4.46913 7.77425,5.67857 2.53434,1.20945 4.96776,2.79364 5.40759,3.52042 1.17364,1.93936 2.59138,1.63931 6.60592,-1.39806 z m 208.26565,-0.9355 c 1.91378,-1.73194 2.51168,-5.34501 0.8845,-5.34501 -1.84337,0 -6.37472,4.6749 -5.65699,5.83621 1.00101,1.61967 2.62467,1.45255 4.77249,-0.4912 z m 8.23829,-19.51934 c 2.61058,-3.72713 1.96763,-4.64342 -3.65955,-5.21536 -10.79116,-1.09678 -25.75,-1.3965 -25.75,-0.51593 0,0.49809 1.0125,0.91251 2.25,0.92093 1.81944,0.0124 1.96296,0.20082 0.75,0.98469 -0.825,0.53316 -3.975,0.90884 -7,0.83486 -3.25514,-0.0796 -4.27553,-0.30885 -2.5,-0.56164 4.13165,-0.58823 5.12975,-1.86582 2.5403,-3.25165 -1.72609,-0.92378 -2.64853,-0.85306 -4.47388,0.34296 -2.43001,1.59219 -3.95313,5.27844 -2.5415,6.15087 0.46045,0.28457 4.97622,0.71804 10.03506,0.96327 5.05884,0.24523 9.38296,0.63094 9.60915,0.85713 0.2262,0.22619 4.62747,0.48985 9.78062,0.58591 8.70871,0.16234 9.48149,0.0145 10.9598,-2.09604 z m 12.16062,-9.46095 c 5.51936,-6.84833 5.53646,-6.77983 -1.97245,-7.90373 l -4.90227,-0.73375 0.65227,3.26138 c 0.35876,1.79376 0.65228,4.55513 0.65228,6.13638 0,3.92745 2.01363,3.6526 5.57017,-0.76028 z m -7.63938,0.30428 c 2.32236,-6.24646 -4.32524,-9.19409 -15.33713,-6.80069 -2.62288,0.57008 -2.74479,0.76554 -1.25,2.00413 2.3835,1.97497 2.05259,3.47786 -0.59366,2.69627 -1.2375,-0.3655 -4.62915,-0.92266 -7.53701,-1.23812 -4.19755,-0.45538 -5.68665,-0.21191 -7.22642,1.18156 -2.65023,2.39843 -1.63134,3.49872 3.06934,3.31453 2.17214,-0.0851 4.13592,0.0316 4.36394,0.25928 0.22803,0.22772 5.65483,0.49009 12.05956,0.58304 11.10867,0.16122 11.6821,0.0691 12.45138,-2 z M 708,168.5 c 1.58851,-1.91404 2.98498,-1.9028 4.40223,0.0354 0.96353,1.3177 1.63986,0.99866 4.7698,-2.25 C 721.51374,161.779 727,151.90644 727,148.5999 c 0,-3.23831 -1.67938,-4.35584 -7.75746,-5.16212 C 713.64241,142.6949 709,144.54654 709,147.52305 709,148.33537 708.26875,149 707.375,149 c -1.84967,0 -1.44851,-3.75307 0.99725,-9.32984 0.76467,-1.74359 2.2647,-5.42016 3.33339,-8.17016 1.09613,-2.82062 2.67344,-5.14093 3.61872,-5.32332 2.18187,-0.42101 2.19318,2.47861 0.0266,6.82163 -2.12817,4.26601 -0.95174,6.21998 4.44408,7.38132 6.74307,1.45132 10.24159,-1.22088 3.95496,-3.02083 -3.30464,-0.94617 -6.37475,-5.28834 -5.44753,-7.70464 0.25841,-0.6734 2.26531,-2.46863 4.45979,-3.98941 2.97285,-2.06018 4.65884,-2.59716 6.61385,-2.10649 3.91961,0.98376 3.34493,3.44174 -0.80468,3.44174 -3.78217,0 -6.84277,2.34399 -6.36066,4.87138 0.23663,1.24047 1.91804,1.76696 7.05501,2.20906 5.19597,0.44718 7.32016,1.1214 9.25252,2.93675 3.29272,3.09335 4.13873,2.10984 6.09235,-7.08247 1.33768,-6.29418 1.40111,-8.94816 0.41348,-17.30018 -0.64163,-5.426 -1.76915,-11.276 -2.50559,-12.999997 C 740.94052,95.940446 738,83.170255 738,80.011289 c 0,-2.739518 -3.02997,-7.062175 -9.38682,-13.391544 l -4.90145,-4.880256 -10.10587,0.632269 c -11.43919,0.715687 -22.50779,2.196834 -23.44875,3.137802 -0.34738,0.347379 -0.63734,1.387338 -0.64436,2.311019 -0.009,1.149018 -0.85396,1.679421 -2.67627,1.679421 -2.98231,0 -7.57464,3.771957 -8.95915,7.35869 -0.73273,1.898228 -1.18807,2.128307 -2.33244,1.178565 -1.50543,-1.249394 -1.90671,-0.746314 -9.29623,11.654585 -2.64788,4.443598 -2.88524,5.364879 -1.64704,6.392501 0.79569,0.660363 1.5755,1.024035 1.73291,0.80816 0.15741,-0.215876 1.72619,-2.642501 3.48618,-5.392501 6.09921,-9.530098 8.31717,-11.158475 12.85081,-9.434787 1.80671,0.686908 2.98532,0.677951 3.69132,-0.02805 2.12537,-2.125376 2.47121,-0.906412 0.98246,3.462839 -1.49852,4.397918 -3.3453,6.03099 -3.3453,2.958187 0,-0.847998 -0.88085,-2.487298 -1.95745,-3.64289 -1.79681,-1.928651 -2.14631,-1.977332 -4.25877,-0.593197 -1.26572,0.829334 -2.91237,2.806134 -3.65922,4.39289 -0.74684,1.586755 -1.80317,3.742897 -2.34739,4.791426 -1.06461,2.051162 -1.97098,20.952512 -1.14336,23.843582 1.06157,3.7083 5.58469,0.75703 6.89669,-4.5 0.71628,-2.87007 2.4695,-3.80372 2.4695,-1.3151 0,2.92909 -2.0261,6.21548 -7.26418,11.78271 C 667.58902,128.68782 662,138.15941 662,141.41137 c 0,1.58677 4.79944,4.58863 7.3364,4.58863 0.78964,0 2.16199,-1.53051 3.04966,-3.40113 2.01248,-4.24098 2.04603,-5.70191 0.11394,-4.9605 -2.37639,0.91191 -1.85736,-0.31284 4.14531,-9.78168 l 5.64532,-8.90512 0.70142,-11.3233 C 683.66545,96.757468 684.24602,94 685.86139,94 c 0.40885,0 0.55949,6.8625 0.33477,15.25 -0.3946,14.72777 -0.51496,15.45547 -3.51459,21.25 -1.7083,3.3 -4.3605,7.56503 -5.89378,9.47784 -4.50884,5.62491 -3.7076,7.69592 3.80726,9.84079 2.75773,0.78711 6.07485,3.13027 10.15749,7.17509 3.33434,3.30345 6.74236,6.00628 7.57339,6.00628 0.83102,0 2.48435,1.575 3.67407,3.5 2.33978,3.78585 4.0459,4.35455 6,2 z m 2.5567,-63.72251 c -0.85618,-1.22237 -1.55484,-4.03487 -1.55256,-6.249996 0.005,-5.164424 5.48673,-14.652388 9.03703,-15.642448 5.20395,-1.451208 8.50309,-0.911163 11.93463,1.953608 3.04098,2.538724 3.4174,3.410413 3.56263,8.25 0.22363,7.452886 -0.54917,8.561836 -6.35532,9.119726 -2.68745,0.25823 -6.89514,1.44199 -9.35042,2.63057 -5.4864,2.65592 -5.37198,2.65689 -7.27599,-0.0615 z M 722.5,99.952265 c 8.4931,-2.001096 10.79406,-7.072482 5.86609,-12.92904 -3.50283,-4.162871 -7.52253,-3.938692 -8.10208,0.451852 C 719.78061,91.137136 718.32433,93 715.94494,93 c -1.78962,0 -2.63566,1.564031 -3.53811,6.540787 -0.66186,3.649923 0.32575,4.677763 2.89532,3.013263 1.20882,-0.78304 4.44785,-1.95385 7.19785,-2.601785 z M 729,80.652474 c -3.025,-1.183861 -6.89146,-2.914793 -8.59213,-3.846515 -2.33835,-1.281082 -4.47135,-1.551692 -8.75,-1.110097 -7.88527,0.813832 -7.23218,-2.481128 1.05659,-5.330673 6.02181,-2.070197 11.91779,0.102552 19.02802,7.012084 6.37069,6.190872 5.96022,6.681079 -2.74248,3.275201 z m -88.67856,76.293246 c 3.7518,-4.34803 6.54266,-8.35659 6.20192,-8.90792 -0.9116,-1.475 -8.40672,-0.44537 -13.90054,1.90955 -2.63375,1.12896 -5.3091,2.05265 -5.94522,2.05265 -1.58778,0 -9.66921,3.37263 -9.67385,4.0372 -0.002,0.29545 1.00875,0.6548 2.24625,0.79855 6.45504,0.7498 9.68495,0.64636 13.99735,-0.44828 5.27775,-1.33968 7.46109,-0.17868 2.75146,1.4631 -1.64934,0.57496 -2.99881,1.55118 -2.99881,2.16937 0,0.77595 -1.66546,0.91589 -5.37875,0.45194 -3.40964,-0.426 -6.16557,-0.25093 -7.52801,0.47822 -2.81457,1.50631 -1.83455,2.93721 1.93822,2.82994 1.64819,-0.0469 3.29037,0.20846 3.64929,0.56738 0.35892,0.35892 2.26508,0.61911 4.23592,0.5782 3.19913,-0.0664 4.31472,-0.92201 10.40477,-7.9799 z m -26.44332,4.15077 C 615.47394,160.08571 614.53763,158 612.48804,158 610.46825,158 606,160.17662 606,161.16052 c 0,1.10457 6.11154,1.0549 7.87812,-0.064 z M 595.5,158 c 0.33992,-0.55 0.14148,-1 -0.44098,-1 -0.58246,0 -1.05902,0.45 -1.05902,1 0,0.55 0.19844,1 0.44098,1 0.24254,0 0.7191,-0.45 1.05902,-1 z m 22.5,-5.90436 c 0,-0.46915 -1.30865,-1.39506 -2.90811,-2.05758 -2.43593,-1.00899 -3.32895,-0.92884 -5.5,0.49369 -3.28136,2.15003 -3.32133,3.33035 -0.0919,2.713 1.84581,-0.35285 2.5,-0.0482 2.5,1.16435 0,1.50281 0.25474,1.51053 3,0.0909 1.65,-0.85325 3,-1.93521 3,-2.40436 z m 13.5,-3.7737 c 1.39073,-1.07882 1.61731,-1.69482 0.74377,-2.0221 -3.03232,-1.13609 0.2529,-2.06515 5.59092,-1.58111 3.4681,0.31447 6.69051,0.0706 7.94622,-0.60148 1.72163,-0.92139 2.28924,-0.81432 3.06892,0.5789 0.80844,1.4446 1.2049,1.50332 2.55956,0.37905 0.88161,-0.73167 3.05163,-1.62661 4.82226,-1.98874 2.83432,-0.57968 3.32112,-1.17316 4.07049,-4.96246 0.46814,-2.36722 0.55293,-4.60102 0.18843,-4.96402 -0.95984,-0.95586 -4.49057,3.72298 -4.49057,5.9508 0,2.33432 -3.52068,2.5807 -4.39301,0.30743 -0.33385,-0.86998 -0.60699,-3.11998 -0.60699,-5 0,-3.93959 -1.49546,-4.56458 -2.39037,-0.99898 -0.46081,1.83599 -1.8683,2.8381 -5.83824,4.1567 -2.87707,0.95561 -7.33047,2.79196 -9.89644,4.08077 -2.56597,1.28882 -5.18048,2.3433 -5.81001,2.3433 -1.84251,0 -9.06494,3.9541 -9.06494,4.96283 0,0.92711 7.20123,1.80844 10,1.22387 0.825,-0.17232 2.4,-1.01146 3.5,-1.86476 z m 21.956,-20.89512 c 1.64715,-2.51388 1.63828,-2.54764 -0.38499,-1.46482 -1.13906,0.6096 -2.07101,1.76753 -2.07101,2.57318 0,2.07249 0.52793,1.83424 2.456,-1.10836 z m 21.81668,-52.757546 c 1.80997,-0.637036 3.38115,-3.348777 2.46886,-4.26107 -1.32533,-1.325327 -6.08472,1.202939 -8.24266,4.378636 -3.0007,4.415918 -2.17426,6.202481 1.36081,2.94175 1.45217,-1.339473 3.43802,-2.716165 4.41299,-3.059316 z m -26.63269,-1.722499 c 1.52361,-0.579273 7.2904,-1.687985 12.8151,-2.463803 9.99,-1.402869 30.19643,-6.797937 31.97824,-8.538114 1.88743,-1.843322 -0.432,-2.106891 -5.11855,-0.581647 -2.64813,0.861839 -5.93978,1.772593 -7.31478,2.023897 -1.375,0.251305 -5.2,1.147409 -8.5,1.991342 -3.3,0.843934 -8.21917,1.779434 -10.9315,2.078889 -7.4612,0.823758 -17.84778,4.281752 -16.99677,5.658717 0.68388,1.10655 0.7161,1.10521 4.06826,-0.169281 z M 662.5,65.384053 c 4.74841,-0.624632 14.4875,-2.858067 23.5,-5.389179 3.575,-1.00402 8.92121,-2.098332 11.88048,-2.431804 2.95926,-0.333473 5.72344,-0.818279 6.14262,-1.077349 0.41919,-0.259069 3.62297,-0.496158 7.11953,-0.526863 C 721.38861,55.868881 728,54.90736 728,53.507221 c 0,-2.989161 -2.45268,-3.386714 -12.02166,-1.948585 -24.41232,3.668948 -34.2619,5.423469 -43.97834,7.833929 -5.775,1.432665 -11.50162,2.605428 -12.72583,2.60614 -2.74534,0.0016 -8.54138,3.400755 -7.52752,4.414608 0.4067,0.406706 2.09259,0.459893 3.74641,0.118193 C 657.14688,66.189807 660.3,65.673453 662.5,65.384053 Z M 661,59.583015 c 0,0.268044 0.9,0.0057 2,-0.583015 2.51208,-1.344424 2.55713,-2.621045 0.11503,-3.259669 -1.45167,-0.379619 -1.76393,-1.126168 -1.35839,-3.247626 0.36632,-1.916261 0.027,-3.034313 -1.11502,-3.673389 -2.68192,-1.500878 -1.88151,-3.692242 1.93035,-5.28494 4.34177,-1.814108 3.78824,-3.90451 -0.62639,-2.36556 -3.25341,1.134145 -7.24332,5.817543 -8.37543,9.831184 -1.80768,6.408679 -2.41236,9.44629 -2.01001,10.097305 0.24056,0.389238 2.46294,0.0981 4.93862,-0.646969 C 658.97444,59.705265 661,59.314971 661,59.583015 Z M 702.5,60 c -0.33992,-0.55 -1.23992,-1 -2,-1 -0.76008,0 -1.66008,0.45 -2,1 -0.35191,0.569401 0.50929,1 2,1 1.49071,0 2.35191,-0.430599 2,-1 z m -6,-8.100116 c 3.3,-0.591842 6.9,-1.087737 8,-1.101989 1.1,-0.01425 4.025,-0.617284 6.5,-1.340069 2.475,-0.722786 6.69562,-1.5546 9.37915,-1.848475 2.68353,-0.293875 5.08128,-0.736445 5.32832,-0.98349 0.83338,-0.833381 -4.27111,-8.957535 -6.82717,-10.865905 -3.72814,-2.783458 -9.11373,-3.721389 -20.8803,-3.636419 -13.85298,0.100036 -15.50272,0.598963 -15.49023,4.684679 0.008,2.720927 -0.47206,3.354264 -3.23607,4.26647 -4.59638,1.516943 -5.22944,3.1387 -1.13605,2.910294 5.79742,-0.323487 6.2668,-0.177238 4.86235,1.51502 -0.68469,0.825 -0.95442,1.5 -0.59939,1.5 0.35502,0 -0.0931,1.127253 -0.99585,2.505006 -2.48399,3.791046 -0.60376,5.47459 4.8548,4.346952 C 688.5918,53.370158 693.2,52.491725 696.5,51.899884 Z M 671.75501,39.25 c 0.56018,-1.700999 -0.96337,-1.572545 -3.31388,0.279398 -1.87978,1.481064 -1.8646,1.520569 0.48054,1.25 1.33192,-0.153669 2.60692,-0.841898 2.83334,-1.529398 z m 220.76812,511.5 c -2.94449,-8.88829 -2.76093,-20.07797 0.45111,-27.5 1.58458,-3.66147 2.83994,-5.25 4.1489,-5.25 2.53562,0 2.36821,1.30802 -0.87314,6.82193 -2.61169,4.44279 -2.73808,5.24387 -2.51289,15.92807 0.21766,10.32745 -0.13718,13.25043 -1.21398,10 z M 935,513 c 0,-0.55 0.45,-1 1,-1 0.55,0 1,0.45 1,1 0,0.55 -0.45,1 -1,1 -0.55,0 -1,-0.45 -1,-1 z m 5,-2 c 0,-3.11732 1.38216,-4.05244 2.33184,-1.57762 0.33406,0.87053 1.34549,1.21325 2.60699,0.88337 2.99502,-0.78322 2.56197,1.55335 -0.50393,2.719 C 940.54353,514.50425 940,514.2561 940,511 Z m 3.02201,-4.47348 c -1.04608,-1.26045 -0.80175,-2.12652 1.42268,-5.0429 3.55136,-4.65607 5.10318,-3.49087 2.42495,1.8208 -1.16351,2.30757 -2.22104,4.31895 -2.35006,4.46975 -0.12902,0.15079 -0.80292,-0.41065 -1.49757,-1.24765 z M 443,503 c 0,-0.55 0.45,-1 1,-1 0.55,0 1,0.45 1,1 0,0.55 -0.45,1 -1,1 -0.55,0 -1,-0.45 -1,-1 z m 476.66667,-14.66667 c -1.29297,-1.29296 -0.63344,-2.14927 2.49549,-3.24001 3.91717,-1.36554 4.71418,-0.71914 2.34339,1.90055 -1.84862,2.0427 -3.63982,2.53853 -4.83888,1.33946 z m -77.13545,-3.62646 c -0.42806,-0.98622 -0.4977,-2.07372 -0.15476,-2.41666 1.01549,-1.0155 1.83409,0.41094 1.3667,2.38152 -0.41435,1.74695 -0.46826,1.74851 -1.21194,0.0351 z"/>
</svg>
