<?xml version="1.0" encoding="utf-8"?>
<!-- Created with Inkscape (http://www.inkscape.org/) -->
<svg xmlns="http://www.w3.org/2000/svg" xmlns:cc="http://creativecommons.org/ns#" xmlns:dc="http://purl.org/dc/elements/1.1/" xmlns:inkscape="http://www.inkscape.org/namespaces/inkscape" xmlns:rdf="http://www.w3.org/1999/02/22-rdf-syntax-ns#" xmlns:sodipodi="http://sodipodi.sourceforge.net/DTD/sodipodi-0.dtd" xmlns:svg="http://www.w3.org/2000/svg" height="671" id="svg2" version="1.1" viewBox="0 0 1159 671" width="1159" sodipodi:docname="illustration-limerick-68.svg" inkscape:version="0.92.4 (5da689c313, 2019-01-14)">
	<metadata id="metadata8">
		<rdf:RDF>
			<cc:Work rdf:about="">
				<dc:format>image/svg+xml</dc:format>
				<dc:type rdf:resource="http://purl.org/dc/dcmitype/StillImage"/>
				<dc:title/>
			</cc:Work>
		</rdf:RDF>
	</metadata>
	<defs id="defs6"/>
	<sodipodi:namedview bordercolor="#666666" borderopacity="1" gridtolerance="10" guidetolerance="10" id="namedview4" objecttolerance="10" pagecolor="#ffffff" showgrid="false" inkscape:current-layer="svg2" inkscape:cx="585.18644" inkscape:cy="335.5" inkscape:pageopacity="0" inkscape:pageshadow="2" inkscape:window-height="1010" inkscape:window-maximized="1" inkscape:window-width="1920" inkscape:window-x="0" inkscape:window-y="0" inkscape:zoom="0.99479702"/>
	<path d="m 809.5,651.69618 c -4.95,-0.44211 -9.38829,-1.1904 -9.86287,-1.66287 -1.22599,-1.22056 0.14838,-3.03331 2.29976,-3.03331 1.82049,0 6.36721,-1.86799 11.06311,-4.54522 2.25484,-1.28553 2.30387,-1.43811 0.5,-1.55592 -5.08395,-0.33204 -10.08004,0.14059 -13.38845,1.26654 -1.98635,0.67601 -4.06155,1.27857 -4.61155,1.33901 -0.55,0.0604 -1.675,0.369 -2.5,0.68568 -3.61106,1.38613 -14.82662,2.89153 -17.16675,2.30419 -1.41057,-0.35403 -4.45752,-0.134 -6.771,0.48896 -4.68463,1.26144 -42.33759,1.40395 -48.06225,0.18191 -2.32966,-0.49731 -3.5,-1.31396 -3.5,-2.44227 0,-1.76136 -0.4585,-1.72707 40.5,-3.02833 3.575,-0.11358 8.3,0.10379 10.5,0.48303 5.64875,0.97375 8.71867,0.0868 7.96109,-2.30018 -0.81006,-2.55226 2.66948,-3.7776 7.96641,-2.80541 5.39569,0.9903 38.99684,0.41195 40.72211,-0.70093 0.74271,-0.47908 3.60039,-0.93702 6.35039,-1.01764 2.75,-0.0806 14.225,-0.58807 25.5,-1.12767 11.275,-0.5396 30.85,-0.83444 43.5,-0.65521 12.65,0.17924 25.475,-0.0709 28.5,-0.55593 3.025,-0.485 10.675,-1.10279 17,-1.37287 20.2617,-0.86518 23.00275,-1.41528 27.25,-5.46874 2.0625,-1.96839 3.75,-4.14504 3.75,-4.83699 0,-0.69196 0.87021,-2.06882 1.9338,-3.05971 1.72802,-1.60989 5.99647,-10.15699 6.0124,-12.03917 0.003,-0.40542 0.28414,-2.59036 0.62381,-4.85542 0.71239,-4.75055 -0.68308,-7.98392 -5.81195,-13.46659 -1.84445,-1.97168 -5.09629,-5.71165 -7.2263,-8.31105 l -3.87275,-4.72618 -7.17097,0.40171 c -8.14757,0.45643 -16.42335,-1.29695 -20.22105,-4.28422 C 939.8718,569.89792 938.36095,569 937.90955,569 c -0.4514,0 -2.49174,-1.13398 -4.53408,-2.51995 -2.1206,-1.43908 -5.0349,-2.48422 -6.79441,-2.43665 -4.21115,0.11385 -15.71803,-1.60523 -23.58106,-3.52291 -3.575,-0.87189 -8.23948,-1.78535 -10.36551,-2.02991 -5.12757,-0.58984 -18.19634,-4.75921 -24.5345,-7.82733 -4.22539,-2.04539 -24.30313,-18.7776 -33.59999,-28.00127 -10.5073,-10.42457 -31.20529,-27.22307 -36.0224,-29.23579 -1.83746,-0.76774 -3.60556,-1.82421 -3.9291,-2.34771 -0.32354,-0.52351 -1.81681,-1.57179 -3.31838,-2.32951 -1.50157,-0.75772 -5.43012,-2.87005 -8.73012,-4.69406 -6.73109,-3.72047 -8.32074,-4.54893 -17.39261,-9.06422 -7.64819,-3.8067 -9.51647,-3.35473 -12.92574,3.127 -1.26776,2.41027 -4.10325,6.63231 -6.30109,9.38231 -2.19785,2.75 -5.88259,8.94937 -8.18832,13.77637 -3.0754,6.43828 -4.80247,8.93414 -6.48283,9.36859 -2.55909,0.66165 -10.5874,-1.27685 -13.80508,-3.33335 -2.14904,-1.3735 -9.06914,-1.23883 -25.18295,0.49009 -4.00325,0.42953 -7.82825,0.43175 -8.5,0.005 -0.67176,-0.42681 -2.15544,-0.78291 -3.29707,-0.79133 -2.92115,-0.0215 -6.76763,-4.35826 -6.00284,-6.76789 1.88474,-5.93829 11.57065,-11.80937 25.0327,-15.17347 8.29395,-2.07262 10.86264,-3.62006 21.24521,-12.79863 C 727.77526,466.01999 738,454.17067 738,452.22585 c 0,-0.5448 1.9125,-2.89356 4.25,-5.21944 4.39618,-4.37434 4.96035,-5.25845 10.64579,-16.68286 1.86768,-3.75295 4.02973,-7.94855 4.80455,-9.32355 0.77482,-1.375 2.11217,-4.075 2.97188,-6 1.75167,-3.92218 6.60449,-11.20076 10.01791,-15.02551 1.23964,-1.38903 2.39689,-3.46245 2.57165,-4.6076 0.17476,-1.14515 2.2865,-5.18367 4.69275,-8.97449 2.40625,-3.79082 4.94096,-7.83581 5.63269,-8.98887 2.01824,-3.36423 15.21378,-18.51129 20.27174,-23.26977 5.97463,-5.62088 16.87512,-14.66914 23.05054,-19.13376 2.66264,-1.925 7.93477,-5.72869 11.71583,-8.45265 12.0338,-8.66939 16.61945,-12.44844 27.68514,-22.81547 12.16659,-11.3984 21.06914,-22.55486 23.35762,-29.27116 1.48412,-4.35567 1.44981,-4.70347 -0.96066,-9.73885 -1.37486,-2.87203 -3.50581,-8.14687 -4.73545,-11.72187 -1.22964,-3.575 -3.02812,-8.075 -3.99662,-10 -0.96851,-1.925 -1.77072,-3.844 -1.78268,-4.26444 -0.012,-0.42044 -0.35941,-2.67044 -0.77208,-5 -1.72927,-9.76173 0.11083,-18.42061 5.04403,-23.73556 3.3467,-3.60567 7.50888,-12.38796 8.19151,-17.28424 0.32327,-2.31867 0.97785,-5.24431 1.45462,-6.50144 1.47788,-3.89675 -1.60478,-3.78696 -5.59086,0.19912 -1.97261,1.97261 -4.07993,3.58656 -4.68294,3.58656 -0.60301,0 -4.75051,-0.96437 -9.21667,-2.14305 -10.00671,-2.64089 -12.04247,-4.55597 -11.15242,-10.49126 0.51415,-3.42859 0.29716,-4.40124 -1.16822,-5.23632 -1.68977,-0.96298 -1.62354,-1.36594 1.08482,-6.60016 2.78543,-5.38318 2.82303,-5.64245 1.09501,-7.55189 -0.9842,-1.08752 -2.50721,-1.98009 -3.38447,-1.98348 -0.87725,-0.003 -2.88395,-0.67839 -4.45932,-1.5 C 853.06032,153.67223 851.20851,153 850.52055,153 848.62479,153 844,149.04757 844,147.42742 c 0,-2.4251 5.12511,-1.63518 12.52821,1.93094 3.83449,1.8471 8.20929,4.60846 9.72179,6.13636 2.4268,2.45151 2.75,3.53364 2.75,9.20739 0,3.53615 -0.47996,7.32618 -1.06657,8.42228 -2.54628,4.75777 1.40636,9.87561 7.62719,9.87561 1.35659,0 3.29131,0.51509 4.29938,1.14464 1.5384,0.96075 2.67526,0.47877 7.07623,-3 2.9185,-2.30694 6.33052,-4.14464 7.69527,-4.14464 2.45126,0 2.45172,0.002 1.75854,7.75 -0.38134,4.2625 -1.48061,10.45 -2.44281,13.75 -1.92193,6.59154 -8.42379,21.05846 -9.86444,21.94883 -0.49982,0.30891 -1.1993,2.28129 -1.55439,4.38307 -0.73806,4.36852 1.62308,12.2491 7.16527,23.91491 5.03,10.5877 5.32932,10.77736 11.37895,7.21037 2.75846,-1.62645 5.48862,-2.95718 6.06702,-2.95718 0.57839,0 2.47109,-1.0118 4.20599,-2.24845 1.7349,-1.23664 3.37937,-2.28801 3.65437,-2.33636 2.76506,-0.4862 11,-4.70037 11,-5.62917 0,-0.41755 -1.64508,-1.44654 -3.65574,-2.28665 -3.26504,-1.36422 -3.83454,-1.36565 -5.32874,-0.0134 -0.92015,0.83273 -2.19149,1.51405 -2.82521,1.51405 -3.28368,0 -2.49669,-13.48361 1.38961,-23.80857 1.34493,-3.57313 2.68764,-7.87204 2.9838,-9.55313 0.29617,-1.68109 0.90049,-3.52492 1.34295,-4.09741 0.44246,-0.57249 1.06523,-1.94089 1.38394,-3.04089 0.31871,-1.1 1.6786,-5.4218 3.02197,-9.60399 l 2.44249,-7.60399 -5.83542,-0.1751 c -5.23507,-0.15708 -6.00591,0.0851 -7.49255,2.35399 C 912.51569,187.86191 911.16964,189 910.43588,189 908.90066,189 904,182.938 904,181.03898 c 0,-0.77991 -0.77396,-1.06985 -2,-0.74923 -2.13847,0.55922 -2.83735,-0.84397 -0.7645,-1.53492 0.9781,-0.32603 0.97016,-1.69646 -0.0381,-6.57791 -1.48679,-7.19828 -0.87832,-9.05396 4.52143,-13.78925 l 3.54905,-3.11233 -5.03562,-11.88767 C 901.46269,136.84945 898.64098,129.7 897.96181,127.5 c -0.67916,-2.2 -2.23148,-6.025 -3.44958,-8.5 -2.95256,-5.99914 -4.75666,-13.62978 -3.72999,-15.77641 0.45339,-0.94798 0.77024,-4.903715 0.70411,-8.790533 -0.0992,-5.833356 -0.50131,-7.448012 -2.30329,-9.25 C 887.98238,83.982375 887,82.466503 887,81.814451 c 0,-0.652052 -1.0125,-2.263556 -2.25,-3.58112 -1.356,-1.443732 -2.25,-3.654671 -2.25,-5.564451 0,-1.742884 -0.45,-3.325755 -1,-3.517492 -2.77904,-0.968809 -4.49396,-2.352138 -3.96899,-3.201561 C 877.85387,65.427422 877.5837,65 876.93063,65 c -0.65308,0 -3.56266,2.511836 -6.46574,5.581857 -4.84606,5.12473 -5.20691,5.830887 -4.40623,8.622695 0.47966,1.67246 1.67518,4.151992 2.65672,5.51007 0.98154,1.358078 2.46055,3.665366 3.28668,5.127306 0.82613,1.461939 2.51363,4.077539 3.75,5.812442 2.20487,3.093937 2.98031,6.36734 1.49794,6.32339 -1.54882,-0.0459 -5.10673,-3.617992 -7.56189,-7.591997 -2.62476,-4.248532 -5.95257,-6.038159 -7.49849,-4.032528 -0.48615,0.630721 -1.90108,4.085611 -3.1443,7.677535 -1.83656,5.30621 -2.07468,7.20335 -1.26998,10.11775 0.85417,3.09353 0.62822,4.24696 -1.64246,8.38463 -2.61002,4.75601 -5.47158,7.46148 -6.64784,6.28522 -0.33599,-0.33599 0.0733,-3.91669 0.90956,-7.9571 0.83626,-4.04041 1.18988,-7.67679 0.78583,-8.08084 -0.40405,-0.40405 -3.78575,2.85506 -7.51489,7.24246 -3.72914,4.38741 -6.3256,7.97711 -5.7699,7.97711 0.55569,0 1.44153,1.4625 1.96852,3.25 0.52699,1.7875 2.07943,6.03628 3.44986,9.44173 2.12122,5.27114 2.29527,6.46034 1.17059,7.99842 -0.7266,0.99369 -1.49408,1.58241 -1.70551,1.30828 C 840.26271,140.73576 838.4079,136.85527 838,134 c -0.43479,-3.04356 -0.82603,-3.46001 -3,-3.19332 -5.33655,0.65464 -8.28757,0.18495 -9.58523,-1.52561 -2.44483,-3.22272 -1.50702,-5.03969 4.99648,-9.68049 8.71552,-6.21926 14.9019,-13.53606 19.62729,-23.213702 2.1788,-4.462217 3.96339,-8.512217 3.96574,-9 0.002,-0.487783 1.35789,-2.911878 3.0123,-5.386878 1.65441,-2.475 3.93518,-6.397119 5.06838,-8.71582 2.98714,-6.112148 19.90828,-18.808698 32.58905,-24.452744 3.64125,-1.620672 4.38886,-2.526217 5.8573,-7.094617 0.92581,-2.88025 4.12255,-10.272976 7.10387,-16.428279 5.79032,-11.954846 6.91951,-12.989865 12.93961,-11.860488 5.09578,0.955976 6.54883,4.789665 6.46304,17.051948 -0.0428,6.117822 -0.53319,9.999654 -2.72896,21.6021 -0.30627,1.618298 0.45666,4.475083 2.01789,7.556026 2.44779,4.83049 2.47543,5.120485 1.10914,11.638499 -0.77066,3.676514 -2.04571,8.2271 -2.83345,10.112412 -0.78773,1.885312 -1.22545,3.63463 -0.97271,3.887374 0.42617,0.42617 -2.97224,10.029343 -6.14477,17.363759 -2.46192,5.6916 -4.26449,17.63046 -4.41634,29.25044 -0.082,6.27583 -0.39577,11.80969 -0.69723,12.29747 -0.30146,0.48777 -0.0105,3.12765 0.64647,5.86641 1.72841,7.20484 0.69917,10.86093 -4.04562,14.37085 -2.66671,1.97267 -3.6498,3.27711 -2.97691,3.95 0.55256,0.55256 1.00466,2.01849 1.00466,3.25761 0,2.66112 1.98319,7.34705 3.10943,7.34705 0.85096,0 6.07994,-10.50275 8.31239,-16.69597 0.75417,-2.09222 3.66779,-8.86301 6.4747,-15.04621 C 927.70343,141.07463 930,135.65023 930,135.2036 c 0,-0.44662 1.26072,-2.81264 2.8016,-5.25782 1.54088,-2.44518 4.31301,-8.27078 6.16029,-12.94578 1.84728,-4.675 4.82667,-11.425 6.62086,-15 1.79419,-3.575 4.61168,-10.373126 6.26109,-15.106947 1.64941,-4.733821 3.93431,-10.352157 5.07755,-12.485191 C 958.06462,72.274828 959,70.113197 959,69.604237 c 0,-0.50896 1.9125,-3.777883 4.25,-7.264274 C 969.03132,53.717095 974,52.431735 974,59.559017 974,62.966535 974.04342,63 978.46482,63 c 5.6624,0 6.91928,2.013145 6.33137,10.140943 -0.52865,7.308491 -2.89571,10.041626 -13.35781,15.423679 -4.09111,2.104602 -7.46647,3.851036 -7.50079,3.880964 -0.0343,0.02993 -0.30678,2.304414 -0.60545,5.054414 -0.29867,2.75 -1.0785,5.675 -1.73295,6.5 -0.65445,0.825 -2.01555,3.975 -3.02465,7 -1.00911,3.025 -2.93351,8.31607 -4.27644,11.75793 -4.04462,10.36611 -2.46088,10.40544 5.19682,0.12904 3.84721,-5.16283 7.33471,-9.53697 7.75,-9.7203 0.4153,-0.18334 0.75508,-0.79358 0.75508,-1.3561 0,-1.07958 4.51615,-7.11061 9.40561,-12.56057 2.88971,-3.220983 5.90355,-4.176826 7.09439,-2.25 0.33992,0.55 1.47395,1 2.52006,1 3.34066,0 6.06212,3.97256 5.80128,8.46822 -0.31422,5.41553 -2.27292,9.16973 -7.52963,14.43182 -2.41754,2.42003 -5.10144,5.79503 -5.96421,7.5 -0.86277,1.70498 -2.1485,3.77496 -2.85716,4.59996 -0.70867,0.825 -2.39894,3.525 -3.75616,6 -7.51288,13.70036 -18.0286,32.50018 -22.08088,39.47579 -2.54831,4.38668 -4.6333,8.37192 -4.6333,8.85609 0,0.48417 -1.35,2.58483 -3,4.66812 -1.65,2.08329 -3,4.47232 -3,5.30895 0,0.83663 -0.89317,2.57188 -1.98481,3.8561 -3.01328,3.54484 -13.54772,18.06568 -14.76014,20.34559 -1.75326,3.29696 -0.40487,7.09374 3.21079,9.04089 3.52146,1.89644 6.20329,1.47428 7.2042,-1.13405 1.18079,-3.07709 7.16398,-8.76304 10.49499,-9.97359 1.83423,-0.6666 7.10443,-2.47338 11.71156,-4.01507 8.07394,-2.7018 8.42543,-2.73627 9.72847,-0.95426 0.74353,1.01685 1.13657,2.90106 0.87341,4.18713 -0.26316,1.28607 -0.72674,3.52188 -1.03019,4.96847 -0.49862,2.37703 -0.33021,2.55858 1.75,1.88648 5.33951,-1.72518 9.31501,-1.59434 12.52985,0.41237 4.02979,2.51539 3.5645,3.97639 -3.22813,10.13635 -6.14634,5.57387 -10.22587,8.27677 -13.5,8.94446 -3.31781,0.6766 -2.76652,2.29398 1.1257,3.30256 1.72429,0.44681 4.10766,1.44964 5.29639,2.22853 1.66981,1.0941 5.81753,1.37544 18.23919,1.23715 13.87182,-0.15443 16.44722,0.063 18.76952,1.58467 2.9789,1.95182 3.1869,5.23273 0.4408,6.95335 -1.2173,0.76273 -2.2804,0.50755 -4.2106,-1.01077 -2.0345,-1.60032 -3.70396,-1.95525 -7.87156,-1.67348 -2.90919,0.19669 -9.94986,0.32872 -15.64594,0.2934 -8.15026,-0.0505 -10.26375,0.21688 -9.92112,1.25528 0.23945,0.72572 5.34988,3.86819 11.35649,6.98327 17.42097,9.03464 18.81692,9.87708 20.82383,12.56709 1.5747,2.11054 1.6921,2.88767 0.6811,4.50652 -1.0378,1.66182 -0.7974,2.55133 1.5973,5.91094 1.5504,2.17511 3.2689,4.69479 3.8189,5.59928 0.55,0.9045 3.025,4.76593 5.5,8.58097 2.475,3.81503 5.4,8.36288 6.5,10.10634 1.1,1.74345 4.1113,5.7429 6.6918,8.88766 3.5901,4.37521 4.8425,6.82831 5.334,10.44758 0.9018,6.64054 1.2686,7.69923 3.7654,10.86886 2.1681,2.75223 3.3205,5.36785 6.3277,14.36098 0.8276,2.475 1.9483,5.31565 2.4904,6.31255 0.5422,0.9969 0.7127,2.67277 0.3791,3.72415 -0.3337,1.05138 0.1336,3.47178 1.0385,5.37866 1.0085,2.12532 1.3703,4.33328 0.9348,5.70533 -0.6711,2.11429 -1.6147,18.58341 -1.4679,25.61965 0.037,1.78219 -0.5425,4.48219 -1.2881,6 -0.7456,1.51781 -1.4448,4.33466 -1.5539,6.25966 -0.1091,1.925 -0.8629,6.74353 -1.6751,10.70784 -0.8122,3.96431 -1.4767,8.04011 -1.4767,9.05734 0,1.01722 -1.5689,4.96782 -3.4865,8.77912 -1.9176,3.8113 -4.6594,10.7605 -6.093,15.44267 -3.6735,11.99746 -4.5023,14.12548 -6.7963,17.44998 -1.1331,1.64206 -2.6214,6.49189 -3.3757,11 -1.8434,11.01754 -1.913,11.38923 -3.1959,17.06305 -0.6218,2.75 -1.5395,8.15 -2.0394,12 -0.4999,3.85 -1.8156,12.10637 -2.9237,18.3475 -1.1082,6.24112 -2.3055,13.83567 -2.6607,16.87678 -0.3552,3.04111 -1.4885,6.95738 -2.5183,8.70283 -1.8176,3.08063 -1.8189,3.27453 -0.045,6.62321 1.0052,1.89733 2.1183,5.6255 2.4735,8.28483 0.3552,2.65934 1.5812,6.14865 2.7243,7.75403 3.0394,4.26837 4.0757,8.5103 4.0701,16.66005 0,6.22823 0.2766,7.39995 1.9946,8.31939 1.4425,0.77202 2.3829,0.7521 3.3753,-0.0715 2.4135,-2.00311 6.85,-0.77332 8.3192,2.30614 1.1501,2.41048 1.1129,3.14611 -0.2657,5.25 -1.9601,2.99154 -4.197,3.1564 -5.08,0.3744 -0.3617,-1.13978 -1.1795,-1.88114 -1.8173,-1.64747 -0.6379,0.23367 -5.2097,1.63681 -10.1597,3.11808 -4.95,1.48127 -10.125,3.30662 -11.5,4.05632 -1.375,0.74971 -2.95,1.46141 -3.5,1.58157 -2.3176,0.5063 -4.09111,1.16487 -5.5,2.04234 -0.825,0.51381 -2.175,1.23491 -3,1.60243 -0.825,0.36753 -1.83871,1.22687 -2.25268,1.90964 -0.41398,0.68278 -2.70578,2.33303 -5.09289,3.66721 -5.35418,2.99251 -13.55602,3.99144 -35.56299,4.33135 -9.02471,0.1394 -19.82471,0.56609 -24,0.94822 -4.17529,0.38212 -11.86644,0.63266 -17.09144,0.55675 -32.06573,-0.46586 -43.24518,-0.0971 -45.75,1.50916 -6.43085,4.12383 -1.25626,4.73017 37.75,4.42338 10.175,-0.08 28.99052,-0.75431 41.81227,-1.49842 14.89456,-0.8644 24.46331,-1.01928 26.5,-0.42893 1.75325,0.50818 8.13773,0.90482 14.18773,0.8814 24.4801,-0.0948 36.4515,-0.0821 45.3477,0.0478 7.7722,0.11353 9.7104,-0.17452 11.5,-1.70909 6.5542,-5.62028 12.5284,-6.86832 37.1523,-7.76124 7.7,-0.27922 23.3451,-0.60784 34.767,-0.73027 18.4033,-0.19726 20.9605,-0.029 22.4679,1.47836 1.5469,1.54689 1.568,2.08555 0.233,5.94732 -1.3378,3.87016 -1.9552,4.4102 -6.9679,6.09548 -3.025,1.01701 -7.525,2.03749 -10,2.26773 -2.475,0.23024 -5.0481,0.61598 -5.718,0.85721 -0.6699,0.24123 -1.4143,0.12076 -1.6544,-0.26772 -0.24,-0.38848 -9.3669,-0.60056 -20.282,-0.47128 -18.2361,0.216 -61.0611,0.22689 -69.3456,0.0177 -1.925,-0.0486 -4.85,0.006 -6.5,0.12158 -1.65,0.1155 -7.5,-0.0359 -13,-0.33653 -5.5,-0.30059 -13.825,-0.50992 -18.5,-0.46518 -20.06151,0.19197 -26.1296,0.16151 -37,-0.18575 -13.21738,-0.42224 -40.90718,0.76434 -49,2.09978 -3.025,0.49918 -10.9,0.69046 -17.5,0.42508 -16.70583,-0.67172 -19.41335,-0.94165 -24.21342,-2.41396 -3.78263,-1.16024 -4.83108,-1.06717 -10.25449,0.91031 -6.43604,2.34669 -11.59172,2.47978 -30.53209,0.78815 z m 190.9822,-41.77539 c 4.4592,-1.6684 5.8294,-2.73071 6.9349,-5.37658 1.6781,-4.01627 0.3506,-10.93355 -3.7691,-19.6407 -1.4564,-3.07807 -2.648,-6.40086 -2.648,-7.38398 0,-3.09698 -2.26941,-9.51441 -3.40829,-9.63795 -1.31107,-0.14222 -1.59684,-0.082 -8.59171,1.80997 -4.77967,1.29281 -7.3683,1.94162 -8.90499,2.23194 -0.22274,0.0421 0.29342,0.86401 1.14704,1.82651 0.85361,0.9625 4.11407,6.025 7.24547,11.25 5.1493,8.59204 5.65272,9.93653 5.2673,14.06739 -0.23438,2.51207 -1.17509,6.0687 -2.09048,7.90364 -0.91539,1.83494 -1.66434,3.71711 -1.66434,4.18261 0,1.47493 4.7327,0.9183 10.4822,-1.23285 z M 969.5,563.30973 c 6.15017,-2.30587 9.04243,-2.61584 12.80891,-1.3728 3.02556,0.99853 4.15632,0.82316 9.01131,-1.39756 3.0534,-1.39665 5.96072,-2.53937 6.46072,-2.53937 2.71706,0 4.03446,-3.92881 4.69416,-14 0.5916,-9.03207 2.1695,-21.0091 3.9521,-30 0.2726,-1.375 0.7043,-4.075 0.9593,-6 0.2551,-1.925 1.1724,-5.70902 2.0386,-8.40893 0.8662,-2.69991 1.5749,-5.90173 1.5749,-7.11514 0,-1.21342 0.9,-3.35038 2,-4.7488 1.1,-1.39842 2,-3.4724 2,-4.60883 0,-1.13643 1.4033,-5.56545 3.1185,-9.84227 3.7207,-9.27757 7.8815,-24.98031 7.8815,-29.74478 0,-1.87727 0.4001,-3.66052 0.8892,-3.96278 0.4891,-0.30227 1.1757,-1.69081 1.5258,-3.08565 0.35,-1.39484 1.679,-4.88659 2.9532,-7.75945 1.2741,-2.87285 3.112,-9.04837 4.0841,-13.72337 0.972,-4.675 1.9766,-9.175 2.2324,-10 1.1788,-3.80166 0.4861,-25.11671 -1.0723,-33 -0.9243,-4.675 -1.8658,-9.71435 -2.0924,-11.19855 -0.9708,-6.35902 -3.764,-13.33013 -10.9514,-27.33167 -4.2073,-8.19602 -8.3064,-15.62757 -9.1091,-16.51455 -0.8027,-0.88699 -1.4595,-1.96286 -1.4595,-2.39081 0,-0.69445 -3.3173,-5.24403 -10.1991,-13.9878 -1.2655,-1.60786 -2.5259,-3.48662 -2.8009,-4.17501 -1.12213,-2.80894 -16.70988,-15.42738 -28.8139,-23.32511 -10.42933,-6.80502 -13.14092,-9.06265 -14.11268,-11.75 -1.37485,-3.80209 -1.77577,-3.90437 -6.85554,-1.74895 -2.04483,0.86766 -5.74288,1.80489 -8.21788,2.08274 -2.475,0.27785 -7.65,1.33138 -11.5,2.34117 -3.85,1.00978 -9.15471,2.12771 -11.78825,2.48427 -2.63354,0.35656 -6.33159,1.29313 -8.21788,2.08128 -1.8863,0.78814 -4.53694,1.43299 -5.89032,1.43299 -1.35338,0 -3.13569,0.675 -3.96069,1.5 -0.825,0.825 -1.89707,1.5 -2.38238,1.5 -0.48531,0 -1.48306,2.3625 -2.21721,5.25 -0.73416,2.8875 -2.7153,7.725 -4.40254,10.75 -3.91557,7.02013 -24.45624,27.51056 -36.44388,36.35477 -1.74079,1.28431 -4.10489,3.52989 -5.25354,4.99017 -1.14866,1.46028 -2.5251,2.65506 -3.05876,2.65506 -0.53366,0 -4.60452,2.7 -9.04634,6 -4.44183,3.3 -8.46328,6 -8.93656,6 -0.47328,0 -3.26621,2.3625 -6.20651,5.25 -2.9403,2.8875 -9.50325,9.075 -14.58433,13.75 -5.08109,4.675 -11.32143,11.3125 -13.86744,14.75 -3.35855,4.53455 -5.26467,6.25 -6.94471,6.25 -2.01205,0 -2.16243,0.24527 -1.14717,1.87097 0.94825,1.51839 0.78346,2.41353 -0.87444,4.75 -1.12359,1.58347 -2.95326,4.50488 -4.06593,6.49202 -1.11268,1.98715 -2.62787,4.68715 -3.36708,6 -0.73922,1.31286 -1.99884,3.19943 -2.79914,4.19239 -1.73638,2.15435 -5.26743,8.654 -12.05765,22.19462 -2.75809,5.5 -7.27702,12.6456 -10.04207,15.87912 -5.58034,6.52579 -8.32954,11.18995 -7.44208,12.62589 0.86244,1.39546 12.41968,7.58937 16.67863,8.93864 2.02495,0.64151 5.34933,2.49163 7.38751,4.11137 2.03817,1.61974 4.43139,2.9498 5.31826,2.95569 0.88688,0.006 5.65919,2.03089 10.60514,4.5 4.94595,2.46911 9.38566,4.48929 9.86602,4.48929 0.48036,0 2.95868,1.49712 5.50736,3.32692 2.54869,1.82981 6.30236,4.09185 8.3415,5.02676 2.03914,0.93491 3.97955,2.13998 4.31202,2.67793 0.33247,0.53796 3.16409,2.72699 6.29248,4.86452 3.12839,2.13753 9.96298,7.98417 15.18798,12.99253 5.225,5.00836 10.2875,9.36261 11.25,9.67611 0.9625,0.31351 1.75,0.9578 1.75,1.43177 0,0.82838 8.51473,7.00346 9.65697,7.00346 0.30619,0 2.81741,1.8 5.5805,4 2.76308,2.2 5.37573,4 5.80587,4 0.43015,0 3.18387,1.58917 6.11938,3.53149 2.9355,1.94231 6.46228,3.8135 7.83728,4.15818 1.375,0.34469 3.4,1.18032 4.5,1.85695 2.55278,1.57028 16.91996,4.27646 26,4.89733 10.32962,0.70631 14.59712,1.52733 18.5,3.55921 16.95435,8.82658 26.49788,10.43156 37.5,6.30657 z M 696.34763,504.4075 c 6.22712,-0.46994 10.29134,-1.31237 17.87425,-3.70497 4.6613,-1.47075 4.78161,-1.45199 9.37675,1.46215 5.24442,3.32592 6.56911,3.19645 8.60578,-0.84111 2.06177,-4.08732 7.86864,-14.45638 9.5341,-17.02461 1.61605,-2.49202 0.97715,-5.72942 -1.73647,-8.79896 -0.97245,-1.1 -2.50729,-3.4625 -3.41075,-5.25 -0.90346,-1.7875 -2.08766,-3.25 -2.63155,-3.25 -0.5439,0 -5.05304,3.80211 -10.02031,8.44913 -9.38043,8.77566 -13.90677,11.41364 -26.65081,15.53225 -3.96626,1.28181 -8.80376,3.64314 -10.75,5.2474 -5.30922,4.3763 -4.47805,10.13793 1.31225,9.09649 1.45702,-0.26206 5.28057,-0.67506 8.49676,-0.91777 z m 54.02608,-31.8551 c 0.88205,-1.34619 1.36468,-3.03369 1.07251,-3.75 -0.75721,-1.85647 -4.73451,-4.58567 -7.80629,-5.35664 -3.53295,-0.88671 -4.83104,2.10823 -1.92104,4.4322 1.11709,0.89212 2.81409,2.85954 3.7711,4.37204 2.13728,3.37783 2.8401,3.42135 4.88372,0.3024 z M 909,263 c 0,-0.55 -0.42344,-1 -0.94098,-1 -0.51754,0 -1.2191,0.45 -1.55902,1 -0.33992,0.55 0.0835,1 0.94098,1 0.85746,0 1.55902,-0.45 1.55902,-1 z m 8.8823,-2.55521 c 2.43451,-0.8478 5.88121,-1.28789 7.75469,-0.99014 2.57009,0.40845 3.87266,0.0357 5.47517,-1.56681 2.29451,-2.29451 14.06981,-6.0066 19.79718,-6.24093 3.70017,-0.15139 4.19979,-2.05939 0.59066,-2.25569 -1.1,-0.0598 -3.16061,-0.42681 -4.57914,-0.81552 -1.90083,-0.52088 -5.58276,0.51529 -14,3.93987 -6.28147,2.55564 -12.16128,4.80022 -13.06623,4.98796 -2.6736,0.55464 -9.48934,4.40542 -7.85463,4.43772 0.825,0.0163 3.47203,-0.6571 5.8823,-1.49646 z m 0.85649,-7.27859 c 14.32677,-7.077 16.7674,-8.47605 15.52659,-8.90039 -1.17579,-0.40211 -22.72347,9.90287 -24.71538,11.8199 -2.04383,1.96701 1.71267,0.77347 9.18879,-2.91951 z m 32.05105,-8.98699 c 2.04059,-1.00143 5.62266,-2.42345 7.96016,-3.16005 5.24936,-1.6542 5.62991,-3.12898 0.5,-1.93771 -2.0625,0.47896 -5.7975,0.88157 -8.3,0.89469 -5.32258,0.0279 -7.32552,1.45367 -5.86801,4.17706 1.2112,2.26314 1.14989,2.26286 5.70785,0.026 z m -6.99018,-9.599 c 1.48519,-0.78089 4.69097,-3.46503 7.12396,-5.96476 4.77931,-4.91041 4.38564,-6.10444 -1.78047,-5.40031 -5.98903,0.68391 -14.36756,9.76002 -10.98745,11.90225 1.84082,1.16667 2.52771,1.10129 5.64396,-0.53718 z M 941.24379,229.75 C 941.88103,227.80933 947,227.52794 947,229.43358 947,230.51679 946.04885,231 943.91667,231 c -2.01891,0 -2.94164,-0.43152 -2.67288,-1.25 z M 962,234.61663 c 0,-0.21085 -0.9,-0.61872 -2,-0.90638 -1.1,-0.28766 -2,-0.11514 -2,0.38337 0,0.49851 0.9,0.90638 2,0.90638 1.1,0 2,-0.17252 2,-0.38337 z m 12.96365,-2.07283 c 1.87465,-2.25882 0.3169,-3.54526 -4.27267,-3.52849 -7.38874,0.027 -8.33087,2.05332 -1.86264,4.00617 3.95258,1.19334 4.80347,1.12709 6.13531,-0.47768 z M 958,219 c 0,-0.55 -0.19844,-1 -0.44098,-1 -0.24254,0 -0.7191,0.45 -1.05902,1 -0.33992,0.55 -0.14148,1 0.44098,1 0.58246,0 1.05902,-0.45 1.05902,-1 z m -29.44323,-14.25 c 0.93679,-1.7875 2.8243,-5.49837 4.19446,-8.24638 1.37017,-2.74801 3.33667,-6.0712 4.36999,-7.38486 2.62958,-3.34296 2.36502,-4.45479 -0.87122,-3.66136 -4.10922,1.00745 -4.90357,2.23485 -7.68437,11.87363 -1.40127,4.85707 -2.80334,9.24457 -3.11571,9.75 -0.31238,0.50544 -0.12436,0.91897 0.41782,0.91897 0.54218,0 1.75224,-1.4625 2.68903,-3.25 z M 932.14908,171 c 1.18866,-3.575 3.70256,-10.1 5.58643,-14.5 5.76738,-13.47034 8.69673,-22.00977 10.29115,-30 0.6585,-3.3 1.62985,-6.81951 2.15856,-7.82113 0.5287,-1.00162 1.62019,-4.35083 2.42551,-7.4427 0.80533,-3.09187 1.8571,-6.09736 2.33727,-6.67887 1.81096,-2.1932 2.20121,-8.006751 0.67511,-10.0573 -0.96394,-1.29521 -1.80762,-1.647605 -2.39412,-1 -0.88982,0.982515 -6.36034,14.67529 -7.75801,19.41836 -0.39194,1.3301 -3.3058,7.8551 -6.47524,14.5 -9.35872,19.62107 -18.48404,41.02414 -20.07352,47.08164 -0.43296,1.65 -1.08813,3.98598 -1.45593,5.19107 -0.61671,2.02062 -0.29133,2.21511 4.18249,2.5 5.8022,0.36949 7.12538,-1.04074 10.5003,-11.19107 z m 11.11989,8.2037 c 8.04384,-10.75923 9.96924,-13.83096 14.3301,-22.86193 2.61381,-5.41297 6.1849,-12.09177 7.93577,-14.84177 4.35812,-6.8451 9.81328,-17.48521 9.25226,-18.04623 -0.25316,-0.25317 -2.58043,-0.16971 -5.17171,0.18547 -3.96539,0.54352 -4.96165,1.13782 -6.29178,3.75326 -1.57843,3.10367 -8.45919,11.71434 -13.42237,16.79693 -1.56457,1.60221 -2.89684,4.38157 -3.29559,6.87524 -0.36814,2.3022 -1.19587,5.14196 -1.8394,6.31057 -0.64354,1.16862 -1.26868,2.71649 -1.38921,3.43972 -0.12053,0.72322 -1.82967,5.33883 -3.79809,10.2569 -1.96842,4.91807 -3.57895,9.35584 -3.57895,9.86172 0,0.76579 1.72516,1.58702 4,1.90411 0.275,0.0383 1.74604,-1.59696 3.26897,-3.63399 z M 972,125 c 0,-0.55 0.47656,-1 1.05902,-1 0.58246,0 0.7809,0.45 0.44098,1 -0.33992,0.55 -0.81648,1 -1.05902,1 C 972.19844,126 972,125.55 972,125 Z m -64,4.96862 c 0,-1.93687 -2.50216,-3.79979 -3.61242,-2.68954 -0.65096,0.65097 1.80861,4.72092 2.85297,4.72092 0.4177,0 0.75945,-0.91412 0.75945,-2.03138 z m 0.065,-14.31645 C 908.35392,101.63568 907.50447,91.909985 904.3397,73 c -1.23662,-7.389021 -1.516,-9.643833 -1.74063,-14.048495 -0.32324,-6.338403 -1.10241,-7.267261 -5.41708,-6.457824 -5.68982,1.067416 -11.52683,4.38589 -10.3047,5.85846 0.5641,0.679697 0.95708,3.585337 0.87328,6.456979 -0.12681,4.346005 0.21657,5.47956 2.04854,6.762727 1.21049,0.847859 2.20089,2.478935 2.20089,3.624614 0,1.14568 0.75456,2.634802 1.6768,3.309162 1.83624,1.342693 2.87437,8.104966 4.17632,27.204177 0.8979,13.17204 2.26561,15.84198 7.22891,14.11176 2.367,-0.82514 2.93024,-1.6124 2.98295,-4.16939 z m 74.43619,0.9117 c 2.85385,-3.48274 3.56671,-5.14832 3.31695,-7.75 -0.17496,-1.82263 -0.84312,-3.31387 -1.48479,-3.31387 -0.64166,0 -1.45522,-0.28856 -1.8079,-0.64124 -2.46786,-2.46786 -8.27347,4.45842 -9.09131,10.84623 -0.3541,2.76574 -0.0322,3.52089 1.81779,4.26455 3.36534,1.3528 3.34049,1.36448 7.24926,-3.40567 z M 856,97.274316 c 0,-1.895065 -1.29356,-0.881834 -1.60783,1.259391 -0.11913,0.811701 0.1939,1.222118 0.69561,0.912039 C 855.5895,99.135667 856,98.158524 856,97.274316 Z m 59.52629,-1.818155 C 915.67108,93.830273 916.35604,91.15 917.04843,89.5 c 0.69238,-1.65 1.36963,-3.45 1.50499,-4 0.13536,-0.55 0.92467,-3.025 1.75403,-5.5 2.65041,-7.909438 3.8698,-15.272421 2.65375,-16.023981 -0.60087,-0.371359 -1.73486,-1.913358 -2.51997,-3.426666 -1.17153,-2.258121 -1.24123,-4.481558 -0.38871,-12.400411 0.57132,-5.306918 1.49614,-11.090278 2.05516,-12.851911 1.16419,-3.668779 1.43633,-10.60779 0.47689,-12.160189 -0.35674,-0.577222 -1.26369,-0.813469 -2.01544,-0.524994 -0.75176,0.288474 -1.6639,0.04382 -2.027,-0.543674 -1.12665,-1.822967 -2.53684,-1.185074 -3.71802,1.681826 -2.09273,5.079417 -5.07339,11.704518 -8.11214,18.030855 -2.52953,5.266195 -2.83012,6.639352 -1.86067,8.5 0.9961,1.911783 2.48855,8.211334 3.60563,15.219145 0.17535,1.1 0.55509,3.35 0.84387,5 0.28879,1.65 0.79829,6.15 1.13224,10 1.24559,14.359938 4.33774,23.43994 5.09325,14.956161 z M 967.65511,85 c 2.44483,-1.65 4.80285,-3 5.24003,-3 0.43719,0 1.63039,-0.923225 2.65157,-2.05161 1.82241,-2.013748 1.8022,-2.096132 -1.09502,-4.464037 -1.62343,-1.326835 -3.96419,-2.42861 -5.20169,-2.44839 C 968.0125,73.016183 967,72.55 967,72 c 0,-2.106584 -1.62018,-0.819788 -4.75,3.772584 C 960.4625,78.395379 959,81.219382 959,82.048145 959,83.611771 961.69971,88 962.66168,88 c 0.30155,0 2.54859,-1.35 4.99343,-3 z M 791.25877,595.93253 c -1.78267,-0.54184 -3.13267,-1.53582 -3,-2.20885 0.16567,-0.84036 -1.63827,-1.2803 -5.75877,-1.40443 -11.97624,-0.36077 -19.05097,-0.51976 -21.5,-0.48314 -5.16429,0.0772 -7.81384,-0.48411 -10.45557,-2.21504 -2.13302,-1.39761 -2.58954,-2.30521 -2.11351,-4.20187 0.55463,-2.2098 0.30769,-2.4192 -2.85285,-2.4192 -4.65323,0 -5.11432,-1.22741 -1.47254,-3.9199 2.87987,-2.12918 3.89508,-2.23394 20.88841,-2.15539 9.82378,0.0454 18.58799,0.36137 19.47601,0.70213 2.80703,1.07716 1.09214,2.79584 -5.28743,5.29911 -3.40039,1.33427 -6.18252,2.73065 -6.18252,3.10307 0,0.37242 4.3875,1.0118 9.75,1.42084 5.3625,0.40904 11.325,0.89115 13.25,1.07135 1.925,0.18021 6.2,0.40856 9.5,0.50745 3.3,0.0989 12.525,0.75555 20.5,1.45924 7.975,0.70369 15.57946,1.21929 16.89879,1.14577 2.91229,-0.16228 3.88144,1.83056 1.39347,2.86536 -0.98574,0.40999 -7.41726,0.87709 -14.29226,1.03801 -6.875,0.16091 -17.675,0.53738 -24,0.83661 -6.44312,0.30482 -12.92526,0.11084 -14.74123,-0.44112 z m -19.5296,-9.5367 c -0.33229,-0.33229 -1.1948,-0.36781 -1.91667,-0.0789 -0.79773,0.31922 -0.56078,0.55618 0.60417,0.60416 1.05416,0.0434 1.64479,-0.19293 1.3125,-0.52522 z m -55.74052,-4.39851 c -4.171,-0.98464 -3.61988,-3.66332 1.19836,-5.82448 2.37215,-1.06399 5.28485,-2.23058 6.47268,-2.59241 1.18784,-0.36184 2.66163,-1.26267 3.27509,-2.00185 0.89696,-1.08076 0.21285,-1.47931 -3.49318,-2.03507 -2.53472,-0.3801 -6.25851,-0.43162 -8.27509,-0.11448 -7.053,1.10919 -20.77384,1.71968 -33.66651,1.49794 -22.94374,-0.39459 -57.8164,-0.13929 -64,0.46855 -3.3,0.32439 -11.85,0.82883 -19,1.12099 -7.15,0.29216 -15.475,0.82345 -18.5,1.18064 -3.025,0.3572 -5.90412,0.54926 -6.39804,0.4268 -0.49392,-0.12245 -2.64053,0.47456 -4.77024,1.3267 -5.40869,2.16413 -8.83172,2.03547 -8.83172,-0.33196 0,-1.84039 6.12854,-7.35839 7.70357,-6.93612 1.20219,0.32231 17.52334,-1.20781 19.67856,-1.84487 3.40445,-1.00633 -0.32251,-2.1368 -4.23262,-1.28384 -2.00723,0.43786 -8.37451,1.09699 -14.14951,1.46473 -5.775,0.36775 -13.08227,1.31247 -16.23837,2.09938 -5.53353,1.37969 -11.67799,1.88816 -35.26163,2.91802 -6.05,0.26419 -13.25,0.74731 -16,1.0736 -4.33103,0.51387 -37.23812,1.27903 -52,1.20911 -2.75,-0.013 -7.925,-0.037 -11.5,-0.0533 -3.575,-0.0163 -9.875,0.2365 -14,0.56169 -10.24116,0.80733 -27.03849,0.9677 -27.74134,0.26485 -0.31605,-0.31605 -1.06605,-0.16881 -1.66665,0.3272 -0.60061,0.49601 -2.82866,1.22641 -4.95122,1.6231 -3.72411,0.69602 -3.83354,0.63789 -3.12578,-1.66051 0.92033,-2.98866 0.79361,-2.86347 3.408,-3.36695 11.19791,-2.15652 18.3886,-2.68602 20.57633,-1.51518 2.02348,1.08293 5.33087,0.93137 10.50066,-0.48121 3.58714,-0.98014 10.71905,-1.65065 20.81777,-1.95721 13.39193,-0.40653 14.7177,-0.91915 17.66697,-6.83109 2.27019,-4.5507 0.4716,-7.13772 -4.32084,-6.21492 -3.77086,0.72609 -12.22328,1.26452 -29.6639,1.88961 -5.5,0.19712 -11.575,0.61735 -13.5,0.93384 -1.925,0.31649 -10.475,0.84013 -19,1.16366 -15.61396,0.59255 -19.60575,1.07542 -21.57089,2.60935 -0.58899,0.45975 -2.38899,0.77745 -4,0.706 -1.61101,-0.0715 -12.15411,0.18506 -23.42911,0.57003 -18.44095,0.62964 -23.70304,0.98133 -32,2.13867 -1.375,0.1918 -8.35,0.61214 -15.5,0.93409 -7.15,0.32195 -14.575,0.78099 -16.5,1.02009 -1.925,0.2391 -7.55,0.69889 -12.5,1.02176 -4.95,0.32287 -9.9,0.78689 -11,1.03115 -1.1,0.24426 -5.6,0.66643 -10,0.93815 -4.4,0.27172 -10.68519,0.94407 -13.96709,1.49412 -3.2819,0.55004 -6.3356,0.63157 -6.786,0.18117 -0.4504,-0.4504 -2.74286,-0.52693 -5.09436,-0.17006 -2.3515,0.35687 -4.8103,0.47057 -5.464,0.25267 -1.29241,-0.43081 -1.65961,-3.18895 -0.43855,-3.29411 0.4125,-0.0355 3.225,-0.26791 6.25,-0.51641 3.025,-0.24849 12.14161,-1.11943 20.25913,-1.9354 8.11752,-0.81598 16.83477,-1.4836 19.37166,-1.4836 2.53689,0 9.17029,-0.65653 14.74087,-1.45895 5.57059,-0.80242 15.75334,-1.70178 22.62834,-1.99856 6.875,-0.29679 22.68156,-0.97489 35.12568,-1.5069 13.38228,-0.57211 23.89658,-0.6028 25.73652,-0.0751 1.87516,0.53779 3.33824,0.52422 3.68333,-0.0341 0.31488,-0.50948 1.55845,-0.92056 2.76349,-0.91351 1.20504,0.007 5.56598,-0.71231 9.69098,-1.59857 4.125,-0.88625 8.5309,-1.80521 9.7909,-2.04213 1.25999,-0.23691 2.05363,-0.81466 1.76364,-1.28387 -0.76286,-1.23433 -51.25998,-1.31626 -53.55707,-0.0869 -1.22138,0.65367 -2.08758,0.66186 -2.48213,0.0235 -0.3678,-0.59512 -4.22434,-0.75419 -9.81068,-0.40467 -10.7552,0.67294 -8.35085,0.63322 -22.64006,0.37395 -9.59572,-0.17412 -11.62798,0.0559 -12.63247,1.42959 -0.90755,1.24115 -3.46263,1.75956 -10.5646,2.14349 -5.15214,0.27852 -11.39253,0.77443 -13.86753,1.10202 -5.09161,0.67393 -5.88448,0.70064 -52.62152,1.77282 -25.01568,0.57387 -34.30767,0.48155 -34.8191,-0.34594 -0.38366,-0.62079 -1.18509,-0.82742 -1.78093,-0.45916 -0.59584,0.36825 -3.72729,0.82972 -6.95876,1.02549 -4.3263,0.2621 -6.01502,-0.008 -6.40492,-1.02393 -0.62125,-1.61896 -7.27423,-1.23484 -14.41477,0.83226 -2.475,0.71648 -7.875,1.24117 -12,1.16597 -7.27891,-0.13269 -7.50185,-0.21042 -7.56269,-2.63672 -0.0361,-1.44027 -0.58735,-2.38691 -1.3004,-2.2332 -2.98642,0.64375 -11.99419,1.47383 -15.9003,1.46524 -4.18683,-0.009 -7.685763,-1.69628 -6.72893,-3.24446 0.68097,-1.10184 20.33479,-2.0523 51.99232,-2.51436 46.32998,-0.6762 57.79494,-0.57828 58.87608,0.50286 0.69856,0.69856 0.18473,1.02392 -1.61706,1.02392 -1.45254,0 -2.94674,0.49471 -3.32043,1.09936 -0.6487,1.04963 18.0851,0.7837 27.56141,-0.39124 1.925,-0.23867 9.125,-0.75807 16,-1.15421 6.875,-0.39614 15.2,-1.12943 18.5,-1.62953 3.3,-0.5001 9.01094,-0.91267 12.69098,-0.91683 3.68004,-0.004 6.97032,-0.45953 7.31174,-1.01195 0.40386,-0.65347 8.02387,-0.78671 21.80902,-0.38135 48.98791,1.44052 92.85003,0.75732 105.96045,-1.65046 2.8753,-0.52806 9.22413,-1.10427 14.10852,-1.28046 9.51415,-0.3432 11.61929,-1.4738 11.61929,-6.2403 0,-1.1961 1.62099,-6.84759 3.6022,-12.55887 1.98121,-5.71129 4.84573,-14.00593 6.36561,-18.43254 1.51988,-4.42661 3.21895,-8.92661 3.77572,-10 C 457.11984,495.79826 460,489.0415 460,488.4661 c 0,-0.94126 -3.84428,-0.43322 -4.17249,0.55141 -0.18654,0.55962 -3.48654,1.1634 -7.33334,1.34173 -4.74136,0.2198 -10.45718,1.50257 -17.74557,3.98252 -12.28373,4.17966 -14.72745,4.45515 -15.43739,1.74034 -0.43946,-1.68049 -1.20158,-1.85919 -6.15638,-1.44347 -3.11016,0.26095 -7.45483,0.87363 -9.65483,1.3615 -8.39203,1.86103 -9.38777,1.97235 -12.34772,1.38036 -1.9872,-0.39744 -3.14877,-1.29182 -3.34768,-2.57763 -0.25251,-1.63229 -1.33066,-2.06129 -6.3046,-2.5086 -18.83129,-1.69349 -24.12647,-0.23587 -38.27833,10.53703 -4.45698,3.39281 -8.39811,6.16874 -8.75807,6.16874 -0.35996,0 -4.63387,2.5875 -9.49759,5.75 -13.82913,8.99202 -20.96112,13.24706 -22.26559,13.28393 -0.66023,0.0187 -3.00042,0.90339 -5.20042,1.96607 -2.2,1.06268 -4.68737,1.94741 -5.52749,1.96607 -2.7121,0.0602 -5.78859,-2.87729 -7.03701,-6.71917 -0.70664,-2.1746 -3.40525,-5.84663 -6.43101,-8.75071 -2.86739,-2.7521 -5.56458,-6.1271 -5.99375,-7.5 -1.02432,-3.27681 -1.79195,-3.6785 -6.07419,-3.17858 -3.89898,0.45519 -5.61586,2.80589 -3.34289,4.577 4.10667,3.19992 6.90634,7.91705 6.90634,11.63643 v 3.87758 l 6.75,0.29569 c 6.14454,0.26917 6.77881,0.4986 7.07114,2.55785 0.31671,2.23086 0.20603,2.25452 -8,1.71019 -9.45327,-0.62706 -32.44871,-0.62182 -35.71983,0.008 -1.19463,0.23006 -6.09363,0.48174 -10.88668,0.55929 -4.79305,0.0776 -16.36463,0.76378 -25.71463,1.52496 -32.46904,2.64331 -105.067884,3.72947 -138.181853,2.06736 -7.868309,-0.39494 -13.414711,-0.28487 -13.759528,0.27305 -0.317721,0.51409 0.551613,1.823 1.931853,2.9087 4.104842,3.22886 2.516083,6.705 -1.711224,3.74408 -3.047335,-2.13443 -3.974893,-1.95606 -3.598799,0.69207 0.315714,2.22299 0.499642,2.24911 15.319551,2.17558 8.25,-0.0409 22.65,-0.39734 32,-0.792 9.35,-0.39467 28.025,-0.73962 41.5,-0.76655 21.19351,-0.0424 30.28153,-0.58298 56,-3.33125 9.35154,-0.9993 12.15737,-1.79732 15.13815,-4.30548 2.31035,-1.94403 3.47568,-2.34019 4.7153,-1.60301 0.9056,0.53854 3.27075,0.69885 5.25588,0.35622 5.79294,-0.99982 51.07478,-0.8834 54.64067,0.14049 1.7875,0.51325 3.24979,1.48282 3.24953,2.15459 -3.4e-4,0.91234 3.35247,1.16158 13.25,0.98497 33.60557,-0.59966 121.21657,0.28844 122.76339,1.24443 0.54289,0.33552 0.98708,1.00531 0.98708,1.48842 0,0.49161 -18.8236,0.85557 -42.75,0.82658 -45.93198,-0.0557 -88.7321,0.73889 -90.24736,1.67538 -0.86995,0.53765 -52.0022,0.64769 -62.00264,0.13343 -2.475,-0.12728 -8.55,0.10353 -13.5,0.51291 -25.84963,2.13781 -53.19283,3.80534 -71.5,4.36044 -11.275,0.34187 -24.1,0.88656 -28.5,1.21042 -4.4,0.32386 -13.9625,0.58864 -21.25,0.58838 -12.063234,-4.1e-4 -13.25,0.1598 -13.25,1.78878 0,0.98408 -0.448308,2.06631 -0.996241,2.40495 -2.897091,1.7905 -12.822583,2.20483 -15.716466,0.65607 -1.185696,-0.63456 -4.997894,-1.16064 -8.471552,-1.16906 -7.693272,-0.0187 -9.314733,-0.86041 -8.432036,-4.37736 C 32.861434,546.70391 33.685812,546 35.437265,546 c 1.319538,0 3.12419,-0.27822 4.010338,-0.61827 1.477847,-0.5671 1.478444,-0.71532 0.0072,-1.79111 -1.418605,-1.03731 -1.306439,-1.33207 0.97061,-2.55071 C 41.841443,540.28208 43,539.36412 43,539 c 0,-1.23743 -4.772753,-3.22263 -8.142837,-3.38697 -2.832837,-0.13814 -3.405289,-0.57584 -3.665302,-2.80253 -0.397104,-3.40069 2.863952,-4.65918 6.277468,-2.42255 1.887252,1.23657 3.699714,1.39388 8.877577,0.77053 3.578397,-0.4308 8.001732,-0.62487 9.829635,-0.43128 8.698569,0.92127 17.642206,0.99746 18.914379,0.16113 1.1652,-0.76601 1.062926,-1.19677 -0.59092,-2.48885 -1.1,-0.85937 -3.691405,-2.30867 -5.758677,-3.22065 -6.324235,-2.78995 -5.975668,-4.64946 2.377098,-12.68122 4.059869,-3.90384 8.016055,-8.30524 8.791525,-9.78087 0.77547,-1.47564 2.347863,-3.68972 3.494206,-4.92017 C 85.587406,495.45312 90,489.22093 90,488.48082 c 0,-0.84636 14.09348,-29.0594 16.47517,-32.98082 1.33618,-2.2 2.75919,-4.675 3.16224,-5.5 0.40306,-0.825 2.52849,-4.425 4.72317,-8 4.85639,-7.91076 12.16448,-21.8856 14.64251,-28 1.00306,-2.475 3.92134,-9.45 6.48507,-15.5 2.56374,-6.05 5.01575,-12.13101 5.44891,-13.51335 0.43317,-1.38234 1.78364,-4.53234 3.00105,-7 2.04382,-4.14276 10.95192,-28.2322 12.56802,-33.98665 0.38616,-1.375 1.25907,-3.4 1.9398,-4.5 0.68073,-1.1 1.54796,-3.35 1.92719,-5 0.64605,-2.81089 5.90939,-14.25133 14.44461,-31.39694 2.02524,-4.06831 5.1629,-8.79331 6.97258,-10.5 1.80967,-1.70668 4.57098,-5.35306 6.13624,-8.10306 1.56526,-2.75 5.6001,-8.36606 8.96631,-12.48013 5.81182,-7.10302 7.04239,-9.93917 3.98213,-9.17776 -0.75625,0.18815 -2.95,0.3448 -4.875,0.3481 -1.925,0.003 -3.95,0.28796 -4.5,0.63258 -0.55,0.34461 -2.09032,0.77628 -3.42294,0.95926 -1.33261,0.18298 -3.32199,0.81385 -4.42083,1.40193 -1.58955,0.8507 -2.26957,0.69772 -3.32706,-0.7485 -0.73105,-0.99976 -1.32917,-2.66206 -1.32917,-3.694 0,-1.43613 0.48064,-1.72371 2.04896,-1.22594 1.21925,0.38698 3.07559,-0.0223 4.5842,-1.01083 2.38184,-1.56064 2.43493,-1.77199 0.87744,-3.493 -0.91178,-1.00751 -2.74967,-2.10588 -4.0842,-2.44083 C 180.53671,253.0966 180,252.30253 180,249.98095 180,247.53706 180.41438,247 182.3,247 c 1.265,0 2.7275,0.41997 3.25,0.93327 2.15268,2.11477 19.60848,3.05852 30.95,1.67332 2.2,-0.2687 4.3375,-0.5151 4.75,-0.54757 0.4125,-0.0325 0.75,-0.47412 0.75,-0.98147 0,-1.55734 -6.04553,-2.86957 -16,-3.47293 -8.97514,-0.54401 -9.65193,-0.74323 -12.25,-3.606 -4.47962,-4.93602 -3.80122,-6.27922 5.96521,-11.81087 1.94962,-1.10425 3.46347,-1.03621 9.55082,0.42927 3.97868,0.95784 8.35897,2.56095 9.73397,3.56247 1.375,1.00152 4.00305,2.25106 5.84012,2.77676 2.83084,0.81009 3.25014,0.72135 2.75,-0.582 C 227.26555,234.52845 227,233.65979 227,233.44389 c 0,-0.21589 -1.38427,-1.10836 -3.07615,-1.98327 -3.216,-1.66306 -7.89533,-9.99731 -7.91408,-14.09561 -0.0102,-2.23423 3.78564,-5.36501 6.50471,-5.36501 3.0013,0 7.13897,2.87794 9.69862,6.74583 1.41101,2.13218 4.43508,6.03685 6.72014,8.67703 2.28506,2.64019 4.08307,5.53762 3.99556,6.43874 -0.60879,6.26897 0.64733,5.41803 7.91449,-5.3616 3.33708,-4.95 7.91981,-10.98487 10.18384,-13.41083 2.26404,-2.42595 5.28987,-6.02595 6.72408,-8 C 270.87439,202.79043 292.14694,181 293.22033,181 c 0.41412,0 4.24647,-2.40398 8.51631,-5.34218 4.26985,-2.9382 9.319,-5.87226 11.22034,-6.52014 6.08608,-2.0738 10.1918,-7.69163 7.04341,-9.63744 C 318.93451,158.84149 311,142.7302 311,141.22465 c 0,-1.19097 -9.61693,-19.86813 -11.91736,-23.14486 -0.99613,-1.41888 -2.37978,-4.37979 -3.07478,-6.57979 -0.69501,-2.2 -1.65609,-5.03367 -2.13575,-6.29705 -1.57265,-4.14221 -0.91989,-7.836913 2.12789,-12.044253 1.65,-2.277758 3,-4.525531 3,-4.995051 C 299,86.824808 302.497,84 304.15443,84 c 0.82332,0 2.55382,-1.125 3.84557,-2.5 3.00223,-3.195722 4.5804,-3.1107 9.5,0.511806 2.2,1.619949 5.0125,3.393862 6.25,3.942027 1.2375,0.548166 2.25,1.468651 2.25,2.045523 0,0.576872 1.575,3.338505 3.5,6.136963 1.925,2.798458 3.5,5.882511 3.5,6.853451 0,3.88371 2.28866,4.17665 12.46206,1.59508 5.33557,-1.35393 10.70483,-3.119406 11.93169,-3.923273 2.50493,-1.641294 9.49988,-1.970978 11.25302,-0.530374 0.63072,0.518283 0.9216,1.803352 0.6464,2.855707 -0.58013,2.21842 2.33949,6.7547 8.12395,12.62238 l 4.05101,4.10929 3.68605,-2.43931 c 2.02732,-1.34162 4.7345,-2.2908 6.01593,-2.10929 3.2375,0.45858 3.96823,7.3444 1.00003,9.4234 -2.32138,1.62596 -4.35103,6.81931 -3.14486,8.04689 0.96768,0.98485 1.93855,10.8673 2.05953,20.96393 0.0849,7.08376 -1.12431,14.09624 -3.28856,19.0715 -2.30376,5.29597 -14.06135,22.3769 -16.68258,24.23575 -3.88281,2.7535 -13.36273,4.40196 -20.75938,3.60985 -4.85712,-0.52016 -6.47417,-0.36711 -6.85742,0.64902 -0.27582,0.73132 -1.57164,7.8734 -2.87959,15.87128 -1.84135,11.25955 -3.10375,15.97912 -5.59323,20.91077 -4.05799,8.03881 -11.85181,15.88006 -19.26846,19.38571 -6.18763,2.92472 -9.10384,6.23822 -8.58272,9.75198 0.60925,4.10787 2.84772,4.28782 10.32713,0.83019 3.85,-1.77981 7.45,-3.31456 8,-3.41057 3.85752,-0.67333 7.62567,-1.904 8.07983,-2.63884 0.29601,-0.47896 1.20787,-0.87084 2.02635,-0.87084 1.66476,0 30.21814,-13.87751 34.89382,-16.95909 1.65,-1.08745 4.37254,-2.60598 6.05009,-3.3745 4.12956,-1.89183 12.71355,-11.64926 17.67091,-20.08656 4.35141,-7.40596 8.09937,-18.91819 7.9746,-24.49476 -0.042,-1.8782 0.57178,-4.66835 1.364,-6.20034 0.79222,-1.53199 1.4404,-4.32768 1.4404,-6.21265 0,-1.88496 0.675,-3.98741 1.5,-4.6721 0.825,-0.68469 1.51595,-2.20229 1.53544,-3.37244 0.0195,-1.17016 0.67854,-3.25256 1.46456,-4.62756 0.78602,-1.375 1.44508,-3.6475 1.46456,-5.05 0.0195,-1.4025 0.45778,-2.9775 0.97398,-3.5 0.51619,-0.5225 2.28636,-4.96945 3.93369,-9.88212 C 419.18395,140.6917 420.94317,138 424.08621,138 c 1.83027,0 9.84595,3.61326 20.29866,9.1501 5.1601,2.73332 25.12019,22.9236 27.03809,27.3499 0.95325,2.2 2.66083,6.025 3.79463,8.5 1.1338,2.475 2.18683,5.4 2.34006,6.5 0.15322,1.1 0.8037,5.28575 1.44551,9.30167 1.64032,10.26392 -0.19666,33.1394 -3.18853,39.70582 -1.4184,3.11306 -0.38788,3.12826 -35.81463,-0.52823 -24.3252,-2.51068 -26.11124,-2.59983 -32.16038,-1.60535 -4.30925,0.70844 -4.71918,0.59136 -5.44078,-1.55387 -0.42922,-1.27602 -0.80705,-2.91962 -0.83962,-3.65245 -0.0326,-0.73282 -1.54918,-1.96014 -3.37023,-2.72738 -3.27329,-1.37908 -3.35575,-1.34681 -7.23754,2.83241 -3.75673,4.04458 -4.6114,6.60078 -4.08115,12.20612 0.30487,3.22285 1.65242,3.74752 5.4981,2.14069 3.19649,-1.33558 3.6316,-1.33951 3.6316,-0.0329 0,0.81648 -1.9125,2.31322 -4.25,3.32608 -2.52954,1.09607 -4.98246,3.10771 -6.05937,4.96927 -2.22282,3.84237 -6.88826,8.41134 -12.19063,11.93853 -2.2,1.46346 -4.225,2.92994 -4.5,3.25885 -0.275,0.3289 -3.875,2.90913 -8,5.73385 -4.125,2.82471 -8.8832,6.39952 -10.57377,7.94402 -3.47652,3.17612 -12.62983,9.22976 -14.01378,9.26815 -0.50185,0.0139 -4.42688,1.77413 -8.72229,3.91159 -4.77403,2.37562 -12.45117,4.98032 -19.75,6.70078 -6.56709,1.548 -11.94016,3.23998 -11.94016,3.75998 0,0.52 1.13303,3.77758 2.51785,7.23908 2.1608,5.40114 2.59372,8.39024 3.05291,21.07846 0.46265,12.78419 -0.32281,27.7306 -1.90683,36.28483 -0.82133,4.43546 -4.65094,24.4364 -5.07399,26.5 -1.79241,8.74317 -5.4747,23.17502 -6.72957,26.37495 -0.88604,2.25939 -0.20118,5.46733 5.15042,24.12505 0.55214,1.925 2.2381,4.95414 3.74656,6.73143 2.47634,2.91766 3.37379,3.26953 9.24265,3.62384 3.575,0.21583 7.175,0.64734 8,0.95892 0.825,0.31157 3.39403,0.75718 5.70895,0.99022 4.98593,0.50195 10.62011,-2.28332 9.66319,-4.77702 -0.32237,-0.84006 -0.088,-1.52739 0.52087,-1.52739 0.60885,0 1.10699,0.5051 1.10699,1.12244 0,0.7792 0.45534,0.74455 1.48899,-0.1133 2.22714,-1.84837 1.14743,-2.60247 -4.11624,-2.87494 C 322.74389,451.84282 322,451.47803 322,449.00908 322,446.65795 327.0146,443 330.2377,443 c 1.33593,0 2.74282,-0.31386 3.12643,-0.69746 1.06543,-1.06543 13.7541,-4.24649 17.05713,-4.27623 1.60669,-0.0145 3.63169,-0.62899 4.5,-1.3656 0.86831,-0.73661 4.72874,-2.63218 8.57874,-4.21238 7.49822,-3.07759 10.35592,-4.81085 17.63878,-10.69833 2.55133,-2.0625 5.0563,-3.75 5.56659,-3.75 0.5103,0 3.14785,-2.46424 5.86122,-5.47608 2.71338,-3.01185 5.40763,-5.48685 5.98724,-5.5 0.57961,-0.0132 2.58039,-1.59892 4.44617,-3.52392 1.94385,-2.00555 4.37604,-3.5 5.69617,-3.5 1.54613,0 2.30383,-0.58806 2.30383,-1.78804 0,-0.98342 2.74825,-4.69592 6.10722,-8.25 C 424.30143,382.34987 442,361.50552 442,360.64469 c 0,-0.67904 12.52037,-14.13756 21.51781,-23.13013 5.82783,-5.82467 15.92636,-14.77264 25.97385,-23.01456 2.68196,-2.2 6.706,-5.60539 8.94232,-7.56752 2.23631,-1.96214 6.76602,-5.63842 10.06602,-8.16952 3.3,-2.53109 8.925,-7.28921 12.5,-10.57359 l 6.5,-5.9716 -2.42431,-2.60888 c -3.2611,-3.50937 -5.66824,-3.29607 -13.73616,1.21723 -8.49855,4.75419 -16.66503,8.04338 -21.86351,8.80592 -2.18681,0.32077 -17.75889,0.71997 -34.60461,0.88712 -35.39869,0.35124 -35.18235,0.30329 -39.38189,8.72877 -2.85818,5.73432 -9.10876,12.66016 -11.48952,12.73077 -0.825,0.0245 -3.72075,2.28927 -6.435,5.03289 -5.44762,5.50657 -6.94831,6.00922 -8.61926,2.88702 -1.11912,-2.09109 -1.13852,-2.0881 -3.95393,0.60923 -1.89026,1.81099 -3.27113,2.42673 -4.16055,1.85523 -0.73219,-0.47048 -2.68126,-0.85714 -4.33126,-0.85924 -5.02183,-0.006 -4.70508,-2.60378 1.83345,-15.03438 1.93939,-3.68703 1.19379,-7.91841 -1.21487,-6.89455 -0.89022,0.37841 -4.88108,0.86116 -8.86858,1.07279 -6.56535,0.34843 -7.25,0.20724 -7.25,-1.4951 0,-1.03392 1.17263,-3.05249 2.60584,-4.4857 2.62302,-2.62302 27.45056,-15.2473 34.89416,-17.74294 2.2,-0.7376 4.60707,-1.78933 5.34904,-2.33717 1.38653,-1.02375 13.83192,-5.29176 17.97103,-6.16297 2.38956,-0.50296 13.15506,-4.47554 18.96386,-6.99785 1.80616,-0.78428 4.05811,-1.42596 5.00433,-1.42596 0.94622,0 4.86846,-1.17084 8.71607,-2.60186 3.84762,-1.43102 8.34567,-2.95888 9.99567,-3.39524 1.65,-0.43635 4.96908,-1.51551 7.37573,-2.39814 5.23499,-1.91989 7.43628,-2.04079 6.882,-0.37796 -0.22491,0.67474 -3.29991,2.3169 -6.83333,3.64925 -6.29483,2.37361 -33.96632,11.83625 -36.9244,12.6268 -2.00526,0.53592 -18.40426,6.6847 -18.85417,7.06935 -0.19479,0.16654 0.0673,1.56723 0.58245,3.11264 l 0.93661,2.80983 1.20274,-2.24733 c 1.58887,-2.96884 2.74238,-2.83515 4.33717,0.50266 0.73888,1.54644 2.29071,2.88935 3.54577,3.0684 1.22751,0.17512 2.88499,1.2509 3.68328,2.39062 1.62052,2.31362 2.43063,2.38395 17.06615,1.48167 5.5,-0.33908 17.2,-0.87094 26,-1.18191 13.7129,-0.48458 17.07208,-0.93671 23.5,-3.16302 4.125,-1.42869 7.95,-2.91765 8.5,-3.30881 0.55,-0.39116 3.78087,-1.72753 7.17971,-2.96971 3.39884,-1.24218 6.43918,-2.93468 6.75631,-3.7611 0.31713,-0.82642 -0.16936,-3.59589 -1.08107,-6.15436 -1.23124,-3.45513 -1.67607,-8.31754 -1.7292,-18.90178 -0.0455,-9.06297 -0.44541,-14.23676 -1.09865,-14.21363 -0.5649,0.02 -3.9521,2.26503 -7.5271,4.98894 C 501.43442,242.02784 491.15496,248 489.11002,248 488.49951,248 488,247.51786 488,246.92857 488,245.74513 490.46812,243 491.53215,243 c 0.37125,0 3.32646,-2.1375 6.56712,-4.75 3.24067,-2.6125 8.64772,-6.775 12.01568,-9.25 3.36796,-2.475 7.12204,-5.41919 8.34241,-6.54265 2.35553,-2.16848 5.04355,-8.66532 5.98161,-14.45735 0.76397,-4.71712 4.0263,-9.8462 6.97592,-10.96764 2.49328,-0.94794 4.18686,-4.24969 3.09008,-6.02432 -0.7754,-1.25463 -0.93327,-11.96887 -0.2064,-14.00804 0.29408,-0.825 0.80164,-3.40698 1.12791,-5.73773 0.62074,-4.43423 7.68536,-19.28027 10.14677,-21.32306 0.78471,-0.65126 1.42675,-1.60062 1.42675,-2.10969 0,-1.64486 7.10176,-12.12817 13.43322,-19.82952 6.08666,-7.40359 11.35874,-14.50424 14.86518,-20.02105 1.45029,-2.28177 1.8845,-5.61659 2.24315,-17.227732 0.52387,-16.960162 2.20363,-23.077607 8.10063,-29.501218 2.14587,-2.3375 4.39914,-4.25 5.00726,-4.25 0.60812,0 1.65429,-0.661041 2.32482,-1.468981 0.67053,-0.80794 5.10626,-2.654626 9.85719,-4.103748 9.59093,-2.925411 15.96758,-2.800243 19.61195,0.384965 1.13113,0.988614 3.73373,2.897793 5.78356,4.242622 2.28168,1.496943 4.84414,4.577981 6.60786,7.945142 3.00702,5.740759 5.68831,7.431437 6.8574,4.323907 1.03089,-2.740161 6.90147,-11.741808 8.54978,-13.109785 1.60042,-1.328231 11.9644,-2.9304 15.54286,-2.402774 1.33406,0.196699 3.38506,1.999397 4.92872,4.332029 2.59377,3.919453 2.73115,3.983132 7.25178,3.361387 3.72136,-0.511817 4.91752,-0.284639 6.217,1.180742 4.55892,5.140942 7.0477,24.501726 4.80007,37.340777 -0.62332,3.560547 -1.27757,7.373717 -1.45388,8.473717 -0.17632,1.1 -0.65453,3.75188 -1.06269,5.89308 l -0.74212,3.89307 2.88813,-0.73889 c 1.58847,-0.4064 6.17007,-0.92726 10.18132,-1.15748 4.01126,-0.23022 7.61126,-0.46539 8,-0.5226 2.12448,-0.31267 4.23299,0.30186 5.54814,1.61701 2.27712,2.27712 1.21379,13.07498 -2.39886,24.35982 C 706.83761,150.54266 704.84103,154 702.34501,154 c -0.73975,0 -1.34669,0.5625 -1.34874,1.25 -0.005,1.62999 -11.32495,10.76422 -15.92346,12.84872 -2.04591,0.92741 -6.13702,4.71432 -9.57281,8.86102 -11.30458,13.64364 -17.72489,20.48873 -22.02355,23.48065 -2.36609,1.64683 -4.98464,4.13395 -5.819,5.52692 -1.48948,2.48671 -8.98961,10.33419 -14.14249,14.79748 -3.02997,2.62447 -2.53973,4.2319 1.29406,4.24301 2.63236,0.008 5.19098,3.30589 5.19098,6.69156 0,1.6467 -0.12963,1.66492 4.67728,-0.65753 5.82684,-2.81522 18.35985,-5.84206 29.16393,-7.04337 10.28277,-1.14335 19.25835,-3.7876 26.15879,-7.70652 2.475,-1.40561 7.51958,-4.19995 11.21017,-6.20965 3.69059,-2.0097 10.84834,-6.94042 15.90611,-10.95716 5.05777,-4.01675 10.11528,-7.82561 11.23891,-8.46415 2.69999,-1.53436 3.36836,-2.01959 8.57532,-6.22565 2.43679,-1.96838 6.26179,-4.51185 8.5,-5.65216 2.23822,-1.14032 6.31176,-4.03302 9.05231,-6.42824 2.74056,-2.39521 5.83731,-4.35493 6.88167,-4.35493 1.63325,0 1.82493,0.55109 1.37039,3.93992 -0.29065,2.16695 -1.25185,5.39 -2.136,7.16233 -0.88415,1.77232 -1.38341,3.44656 -1.10945,3.72051 0.27396,0.27396 3.53841,-0.66533 7.25434,-2.0873 10.00603,-3.829 13.02237,-4.25707 15.32339,-2.17468 2.96356,2.68199 2.39191,3.90074 -3.54671,7.56147 -5.5621,3.42863 -7.17636,5.54404 -3.49625,4.58167 1.11332,-0.29114 3.58832,-0.0975 5.5,0.43037 4.50093,1.24277 4.61851,3.99752 0.25334,5.93524 -2.00539,0.8902 -3.43768,2.37468 -3.79229,3.93047 -0.31637,1.388 -1.79355,3.08954 -3.321,3.82539 -1.95858,0.94357 -2.58725,1.84186 -2.18218,3.11811 0.76532,2.41133 -4.7452,4.91294 -6.89395,3.12964 -0.98065,-0.81388 -1.61049,-0.84597 -2.06819,-0.10539 -0.36197,0.58568 -1.10697,0.78747 -1.65556,0.44842 -0.54859,-0.33904 -1.54246,0.12891 -2.20859,1.0399 -1.55711,2.12947 -11.76012,2.72529 -12.42777,0.72574 -0.24208,-0.72501 0.17009,-1.21104 0.91593,-1.08007 0.74583,0.13097 3.48946,-0.11382 6.09696,-0.54398 4.33112,-0.71452 4.69012,-0.98442 4.15345,-3.12269 -0.54415,-2.16805 -0.2118,-2.3904 4.5091,-3.01665 2.8031,-0.37184 5.09655,-1.13079 5.09655,-1.68654 0,-0.62484 -1.90813,-0.78447 -5,-0.41829 -3.92232,0.46454 -5,0.28734 -5,-0.82216 0,-1.44729 4.12723,-2.87995 11.75,-4.0787 2.3375,-0.36759 4.25,-1.02128 4.25,-1.45264 0,-0.43136 -1.9125,-1.10076 -4.25,-1.48755 -2.3375,-0.38678 -4.56785,-0.89075 -4.95633,-1.11992 -1.55396,-0.9167 0.63972,-3.42876 4.81528,-5.51414 4.84604,-2.42022 9.68614,-6.8658 5.89105,-5.41086 -1.1,0.42171 -4.25,1.44766 -7,2.27988 -2.75,0.83222 -6.66957,2.36348 -8.71016,3.40281 -7.17312,3.65347 -8.26717,2.19461 -4.6536,-6.20536 1.17492,-2.7312 1.92152,-5.18052 1.6591,-5.44294 -0.26242,-0.26243 -2.01123,0.64818 -3.88624,2.02357 -1.875,1.37538 -7.7966,5.43729 -13.1591,9.02646 -5.3625,3.58917 -9.75,6.97849 -9.75,7.53183 0,2.11779 7.08575,14.95688 8.26257,14.97144 2.05524,0.0254 4.03622,1.69222 3.34344,2.81316 -0.44354,0.71766 -1.55556,0.73648 -3.4984,0.0592 -4.42013,-1.54087 -10.99857,2.74005 -23.10761,15.03728 -5.775,5.86475 -15.41321,15.14335 -21.41823,20.61911 -6.00503,5.47577 -14.55503,13.34255 -19,17.48173 -8.40165,7.82366 -13.21734,11.2014 -25.16492,17.65072 -16.02397,8.64976 -29.54351,16.79842 -32.71583,19.71889 l -3.37234,3.1046 0.80614,7 c 1.15458,10.02559 0.83721,33.7102 -0.56949,42.5 -0.82352,5.14576 -2.7145,10.63136 -6.02419,17.47573 -5.17119,10.6939 -16.92793,31.02725 -18.50269,32.00051 -1.99744,1.23448 -17.52592,22.857 -17.27054,24.04824 0.14735,0.68734 -0.75265,1.52418 -2,1.85964 -2.80263,0.75373 -7.44456,4.27257 -6.66483,5.0523 0.66791,0.66791 6.89653,-0.55227 19.06803,-3.73541 l 8.67111,-2.2677 7.24441,-9.46666 c 10.79415,-14.10528 12.96616,-17.82957 29.07419,-49.85276 8.13397,-16.17055 15.41763,-30.1239 16.18592,-31.00744 0.76829,-0.88355 2.75565,-4.08145 4.41636,-7.10645 1.66071,-3.025 5.38721,-9.325 8.28111,-14 2.8939,-4.675 6.72874,-11.06159 8.52187,-14.19243 1.79313,-3.13083 6.11181,-9.012 9.59708,-13.06927 3.48526,-4.05726 6.98964,-8.34563 7.78751,-9.5297 0.79787,-1.18407 2.72305,-2.59641 4.27818,-3.13853 5.32248,-1.85543 7.45009,0.69481 5.77368,6.92053 -1.23027,4.56888 -3.257,6.43762 -6.15888,5.67877 -2.97485,-0.77795 -5.23792,0.63883 -7.7082,4.82563 l -2.09259,3.54668 3.59493,3.97916 c 1.97722,2.18854 4.21757,3.97916 4.97857,3.97916 0.761,0 1.38364,0.71834 1.38364,1.59632 0,0.87797 2.53974,4.48912 5.64388,8.02478 5.354,6.09829 5.73837,6.34295 7.48367,4.76347 1.01189,-0.91574 3.13946,-3.96787 4.72794,-6.7825 2.54088,-4.50219 12.22608,-16.37211 16.81016,-20.60207 5.93118,-5.47301 8.47514,-7.1184 10.55061,-6.82397 2.16347,0.30691 2.27289,0.71013 2.07773,7.65626 -0.22184,7.89572 -2.44559,13.38064 -5.67723,14.003 C 733.7506,311.38726 729,308.95109 729,306.9293 c 0,-1.00543 2.01484,-3.96099 4.47742,-6.56792 2.46258,-2.60693 4.25584,-4.96145 3.98502,-5.23227 -0.85822,-0.85822 -7.58133,6.16891 -11.11813,11.62089 -1.87317,2.8875 -4.06694,5.25 -4.87504,5.25 -0.8081,0 -1.5037,0.3375 -1.54578,0.75 -0.0421,0.4125 -0.21659,1.425 -0.38779,2.25 -0.48021,2.31407 -13.5624,29.16157 -15.66811,32.15437 -1.02717,1.4599 -1.86759,3.12742 -1.86759,3.70559 0,0.57818 -1.8,3.62081 -4,6.76142 -2.2,3.1406 -4,6.20805 -4,6.81656 0,0.6085 -1.28095,2.6714 -2.84656,4.58422 -1.56561,1.91281 -4.31469,6.17784 -6.10907,9.47784 -1.79438,3.3 -4.46437,7.575 -5.93331,9.5 -2.48441,3.25576 -14.71913,21.16547 -18.11106,26.51175 -0.825,1.30035 -4.46771,6.77966 -8.09491,12.17626 -10.44833,15.54515 -17.49995,27.60967 -17.65768,30.21024 -0.08,1.31903 0.55868,3.75987 1.41927,5.42408 0.8606,1.6642 1.71081,4.59773 1.88937,6.51895 0.17856,1.92122 0.58399,5.10539 0.90096,7.07593 0.58155,3.61541 0.82324,6.21811 2.09708,22.58279 0.38532,4.95 0.83378,10.125 0.99659,11.5 0.16282,1.375 0.38296,7.35241 0.48921,13.28313 0.27244,15.20784 -0.62877,14.53776 20.46011,15.2127 9.35,0.29924 24.74018,0.6476 34.2004,0.77412 17.66942,0.23632 21.01231,0.96144 18.4829,4.00919 -1.07997,1.30128 -17.66045,1.5012 -61.08145,0.73649 -10.5185,-0.18525 -11.71435,0.66629 -10.07555,7.17455 0.62454,2.48025 0.98661,5.81461 0.80461,7.40968 -0.3249,2.8475 -0.44888,2.90335 -6.83091,3.07691 -3.575,0.0972 -10.775,0.431 -16,0.74173 -5.225,0.31072 -14.7875,0.86238 -21.25,1.22589 -6.4625,0.36352 -11.75,0.99724 -11.75,1.40828 0,0.41103 1.575,0.80733 3.5,0.88066 1.925,0.0733 4.0625,0.17279 4.75,0.22102 0.6875,0.0482 8.225,-0.41247 16.75,-1.02376 13.7501,-0.98595 38.20944,-1.55881 55.5,-1.29986 64.37909,0.9642 68.5,1.19365 68.5,3.81414 0,1.90361 -4.03464,7.89567 -6.24649,9.27699 -3.97985,2.48546 -14.38818,5.63652 -16.76486,5.07546 z M 514.5,565.56619 c 4.95,-0.36874 10.8,-0.84801 13,-1.06504 9.08017,-0.89576 26.30029,-1.89764 30.5,-1.77452 3.97535,0.11655 11.31126,-0.44681 28.5,-2.18865 2.75,-0.27867 8.825,-0.74057 13.5,-1.02643 4.675,-0.28586 9.85,-0.69108 11.5,-0.90048 4.30485,-0.54633 23.58517,-2.02288 26.25,-2.01031 2.64242,0.0125 2.76055,-0.37913 0.7759,-2.57214 -0.81075,-0.89587 -1.84394,-3.4063 -2.29598,-5.57874 l -0.82188,-3.94988 -8.88457,0.3434 c -11.02434,0.4261 -12.94805,1.14174 -15.06584,5.60464 -2.16666,4.5659 -4.6646,4.56122 -7.36394,-0.0138 -1.4732,-2.49689 -2.62692,-3.41521 -3.84877,-3.06347 -0.95971,0.27627 -4.66992,0.7741 -8.24492,1.10629 -3.575,0.33219 -9.51325,1.03069 -13.19611,1.55221 -3.68286,0.52153 -12.8662,1.19552 -20.40742,1.49776 -7.54123,0.30225 -14.01035,0.73435 -14.37583,0.96023 -0.84906,0.52474 -19.94698,0.47754 -26.52064,-0.0656 -6.67196,-0.55121 -25.7725,-0.68572 -37.3598,-0.26309 l -9.3598,0.34139 -1.99543,5.34476 c -1.46725,3.93002 -1.70037,5.63984 -0.88068,6.45953 0.70098,0.70098 7.5143,1.25802 18.35524,1.50068 9.48226,0.21225 17.41574,0.55572 17.62995,0.76328 0.21421,0.20756 0.66421,0.21786 1,0.0229 0.33579,-0.19497 4.66052,-0.65619 9.61052,-1.02494 z M 408.26518,552.02704 c -1.77915,-0.42253 -4.66658,-0.60153 -6.41652,-0.39778 -5.7937,0.67458 -4.28933,1.37233 2.73467,1.26838 5.50339,-0.0815 6.2557,-0.25934 3.68185,-0.8706 z M 429,551.38337 C 429,551.17252 428.1,551 427,551 c -1.1,0 -2,0.40787 -2,0.90638 0,0.49851 0.9,0.67103 2,0.38337 1.1,-0.28766 2,-0.69553 2,-0.90638 z m 5.26903,-0.0393 c -0.67703,-0.27392 -2.02703,-0.29059 -3,-0.0371 -0.97297,0.25354 -0.41903,0.47766 1.23097,0.49804 1.65,0.0204 2.44606,-0.18706 1.76903,-0.46099 z M 442.5,551 c 1.60437,-0.68942 1.2582,-0.87333 -1.75,-0.92971 C 438.6875,550.03163 437,550.45 437,551 c 0,1.19413 2.72111,1.19413 5.5,0 z m 9.91247,0.39522 c 0.86682,-0.33264 1.38727,-0.91024 1.15654,-1.28356 -0.61067,-0.98808 -8.56901,-0.0655 -8.56901,0.99338 0,1.01244 5.01833,1.20889 7.41247,0.29018 z M 63.641258,549.30793 C 62.553886,548.22055 49,547.78736 49,548.83998 c 0,0.62344 2.812076,1.19183 6.75,1.36433 6.695945,0.29332 8.837681,0.05 7.891258,-0.89638 z M 48,549.55902 c 0,-1.05548 -1.919113,-1.49891 -2.489919,-0.57533 C 45.164618,549.54266 45.583524,550 46.440983,550 47.298442,550 48,549.80156 48,549.55902 Z m 446,-2.34485 c 9.625,-0.33096 20.875,-0.49504 25,-0.36462 4.125,0.13042 17.4,-0.43176 29.5,-1.24929 12.1,-0.81753 22.675,-1.49939 23.5,-1.51526 0.825,-0.0159 3.3,-0.22742 5.5,-0.47013 2.2,-0.24271 7.825,-0.72656 12.5,-1.07522 5.66134,-0.42222 8.87235,-1.12127 9.61494,-2.09321 1.17496,-1.53785 2.40955,-19.11427 2.52491,-35.94644 0.22497,-32.82365 0.53246,-31.02303 -5.14273,-30.11553 -2.18328,0.34912 -5.43829,1.25606 -7.23336,2.01542 -4.91542,2.07936 -19.17329,5.56259 -28.96432,7.07606 -4.7853,0.7397 -9.10775,1.59656 -9.60543,1.90415 -0.49769,0.30758 -4.68244,1.22989 -9.29945,2.04956 -4.61701,0.81968 -13.34456,2.3776 -19.39456,3.46205 -6.05,1.08444 -13.7,2.25904 -17,2.61021 -3.3,0.35116 -7.125,1.02652 -8.5,1.50078 -1.375,0.47427 -5.9875,1.15607 -10.25,1.51512 l -7.75,0.65282 v 5.29256 c 0,2.9109 -0.61567,6.81001 -1.36816,8.66468 -0.75248,1.85466 -1.6666,6.04624 -2.03136,9.31461 -0.36476,3.26837 -1.79796,10.41911 -3.1849,15.89054 -2.88075,11.36448 -2.67767,13.20534 1.34374,12.181 1.50737,-0.38396 10.61568,-0.96889 20.24068,-1.29986 z M 463.16714,544.098 C 464.20113,543.94611 466,534.44285 466,529.13228 c 0,-2.6231 0.65287,-6.98845 1.45082,-9.70078 2.04702,-6.95807 3.05459,-14.03368 2.90947,-20.4315 -0.13793,-6.08051 -1.2382,-12.00936 -2.22379,-11.98293 -0.7452,0.02 -4.45741,8.72252 -6.17795,14.48293 -1.22052,4.08635 -2.18427,6.46579 -6.88559,17 -4.26463,9.55572 -8.48161,22.9927 -7.78533,24.80718 0.53553,1.39556 1.82014,1.60256 7.92574,1.27717 4.00765,-0.21359 7.58684,-0.43244 7.95377,-0.48635 z m 165.41695,-5.50269 c 3.00277,-0.27735 5.87397,-0.76038 6.38045,-1.07339 0.88556,-0.54731 0.53482,-27.24008 -0.42733,-32.52192 -0.25047,-1.375 -0.73249,-8.125 -1.07114,-15 -0.59394,-12.05772 -1.81624,-19.17598 -3.72724,-21.7062 -0.50106,-0.6634 -0.62071,-1.6759 -0.2659,-2.25 0.37,-0.59867 -0.25166,-1.0438 -1.45775,-1.0438 -1.44487,0 -2.01091,0.54511 -1.80902,1.74211 0.23768,1.40914 -0.32734,1.68143 -2.95616,1.42464 -2.01318,-0.19666 -3.25,0.13248 -3.25,0.86487 0,0.6503 -0.66059,0.92887 -1.46797,0.61904 -0.80739,-0.30982 -1.73849,-0.12563 -2.0691,0.40933 -0.33062,0.53495 -0.98894,0.73295 -1.46293,0.44001 -0.47399,-0.29294 -1.16342,-0.0446 -1.53205,0.55186 -0.36864,0.59647 -1.23736,0.86687 -1.93049,0.60089 -0.99956,-0.38357 -1.21277,5.75586 -1.03076,29.68183 0.28087,36.92207 0.11027,34.28239 2.36113,36.53325 1.91805,1.91805 2.52316,1.94606 15.71626,0.72748 z m -410.85492,-1.19948 c -0.3323,-0.33229 -1.1948,-0.36781 -1.91667,-0.0789 -0.79773,0.31922 -0.56078,0.55618 0.60417,0.60416 1.05416,0.0434 1.64479,-0.19293 1.3125,-0.52522 z m 20,0 c -0.3323,-0.33229 -1.1948,-0.36781 -1.91667,-0.0789 -0.79773,0.31922 -0.56078,0.55618 0.60417,0.60416 1.05416,0.0434 1.64479,-0.19293 1.3125,-0.52522 z m 29,0 c -0.33229,-0.33229 -1.1948,-0.36781 -1.91667,-0.0789 -0.79773,0.31922 -0.56078,0.55618 0.60417,0.60416 1.05416,0.0434 1.64479,-0.19293 1.3125,-0.52522 z M 146.5,529.60536 c 12.65,-0.30004 29.75,-0.97877 38,-1.50829 8.25,-0.52953 21.75,-1.26455 30,-1.6334 8.25,-0.36885 16.19597,-0.81104 17.65772,-0.98265 1.46175,-0.17161 4.22854,0.0423 6.14844,0.47526 1.9199,0.43301 4.02979,0.45412 4.68865,0.0469 1.7948,-1.10924 -3.91467,-2.81535 -7.60768,-2.27333 -3.83607,0.56302 -4.39215,-0.63043 -3.37455,-7.24243 0.42217,-2.74309 0.60783,-5.25644 0.41257,-5.58521 -0.39193,-0.65993 -16.89038,-2.18527 -22.42515,-2.07329 -17.40776,0.3522 -40.82666,-0.18059 -62.5,-1.4219 -4.4,-0.252 -12.275,-0.64892 -17.5,-0.88205 -5.225,-0.23312 -13.05461,-0.98859 -17.39913,-1.67882 l -7.89912,-1.25496 -5.339203,5.9544 c -7.522657,8.38943 -8.90953,14.84729 -4.286564,19.96002 1.705909,1.88664 2.602921,1.96528 15.118757,1.32545 7.3179,-0.37411 23.65526,-0.92568 36.30526,-1.22572 z m 154.08893,-7.97812 c 7.33734,-5.35538 10.75698,-7.52561 15.3623,-9.74943 2.44817,-1.18218 6.65108,-3.88831 9.33979,-6.01362 2.68872,-2.1253 5.44473,-3.86419 6.12446,-3.86419 0.67974,0 2.29577,-1.12819 3.59117,-2.50708 l 2.35528,-2.50708 -2.18097,-2.03187 C 333.98143,493.83643 333,492.03351 333,490.94748 c 0,-3.59033 -2.00198,-5.6008 -5.12127,-5.14299 -3.03379,0.44527 -3.94079,-1.34243 -1.77826,-3.50496 0.80062,-0.80062 0.46004,-1.09985 -1.25,-1.09819 -1.29276,10e-4 -11.55142,-0.30349 -22.79703,-0.67722 -22.78456,-0.75719 -21.3427,-0.25023 -24.60238,-8.65023 C 276.41082,469.19325 275.22917,467 274.82517,467 c -0.404,0 -1.02721,1.6875 -1.38491,3.75 -0.67032,3.86502 -1.29937,6.59264 -3.81382,16.53705 -1.39327,5.51023 -1.36736,5.87641 0.54168,7.65495 2.4684,2.29967 6.59938,3.0636 13.99316,2.58771 C 290.01723,497.1528 294,495.68582 294,493.9058 c 0,-0.56311 0.46657,-0.73548 1.03682,-0.38304 0.57025,0.35243 2.70775,-0.22527 4.75,-1.28379 2.04225,-1.05852 4.20771,-1.75547 4.81214,-1.54879 0.60442,0.20669 4.25887,-0.76405 8.12098,-2.15719 C 320.35893,485.77745 322,485.49805 322,486.953 c 0,0.52414 -1.4625,1.39663 -3.25,1.93885 -5.32959,1.61668 -12.16379,4.21179 -13.24212,5.02835 -1.90353,1.44145 -10.01508,4.33033 -16.85694,6.00352 -5.69484,1.39267 -7.80138,1.48194 -12.5,0.52972 -5.92728,-1.20122 -7.28089,-0.66636 -6.44106,2.54513 0.75512,2.8876 8.30644,10.41444 11.60575,11.56812 3.51194,1.22803 4.3418,2.46599 5.18577,7.73595 0.42525,2.65541 1.27114,4.05917 2.80379,4.65294 2.33556,0.90483 3.49186,0.35881 11.28374,-5.32834 z m 28.22357,-31.31035 c 0.72187,-0.28887 1.58438,-0.25335 1.91667,0.0789 0.33229,0.33229 -0.25834,0.56864 -1.3125,0.52522 -1.16495,-0.048 -1.4019,-0.28494 -0.60417,-0.60416 z M 86.958091,519.64968 c 0.703772,-2.51362 3.121897,-6.56177 5.637174,-9.43711 C 95.017869,507.44317 97,504.9124 97,504.58865 97,504.26489 94.596328,504 91.658507,504 c -5.259918,0 -5.435544,0.0979 -11.5,6.41345 -7.06155,7.35387 -7.658312,9.8102 -2.908507,11.9717 3.513891,1.59907 6.883972,2.44115 7.862826,1.96468 0.337055,-0.16407 1.167424,-2.27914 1.845265,-4.70015 z m 171.854999,2.15682 3.54916,-2.1935 -2.89687,-2.0565 c -1.59328,-1.13108 -4.23258,-3.519 -5.86512,-5.3065 C 251.34953,509.78564 249.79851,509 247.18404,509 243.77862,509 237,512.34847 237,514.03067 c 0,1.20274 6.56106,6.09135 10.9029,8.12369 4.87643,2.28258 6.75075,2.22281 10.91019,-0.34786 z M 235.5,502.55908 c 25.06785,-1.12731 27.55986,-1.2856 28.05634,-1.78209 0.26948,-0.26948 0.70723,-2.69205 0.97276,-5.38348 0.50379,-5.10628 1.0527,-8.39974 1.87059,-11.2234 0.26607,-0.91856 0.72684,-3.24511 1.02393,-5.17011 0.29709,-1.925 0.77593,-4.625 1.06409,-6 0.28817,-1.375 1.02189,-5.425 1.6305,-9 0.60862,-3.575 1.25967,-7.4 1.44678,-8.5 0.64506,-3.79221 3.14929,-12.09761 4.29072,-14.23039 0.62936,-1.17597 1.14429,-3.08612 1.14429,-4.24477 0,-1.15866 0.86261,-4.90074 1.9169,-8.31574 2.9674,-9.6118 4.86732,-16.45816 7.13449,-25.7091 2.75011,-11.22157 2.61491,-10.49099 3.4167,-18.46306 0.38517,-3.82968 1.31596,-8.77968 2.06842,-11 2.00831,-5.92598 2.71132,-14.24524 2.58049,-30.53694 -0.13749,-17.12204 -0.60922,-20.97134 -3.30749,-26.9892 -4.79121,-10.6857 -7.17422,-14.74978 -10.8772,-18.55043 -5.89186,-6.04729 -8.32232,-13.81847 -7.45487,-23.8363 0.37509,-4.33176 0.90263,-8.45095 1.17233,-9.15376 0.27596,-0.71916 -1.43488,-2.60241 -3.91317,-4.30752 -2.42193,-1.66634 -5.94821,-4.52214 -7.83618,-6.34624 -9.797,-9.46558 -13.09151,-11.90284 -14.50437,-10.73028 -2.76114,2.29154 -1.48469,5.31584 4.36657,10.34573 3.15556,2.71259 6.80872,6.2336 8.11813,7.82446 1.30942,1.59086 3.45845,3.3022 4.77563,3.803 2.39519,0.91064 4.10102,3.51647 3.01373,4.60376 -1.0159,1.01591 -5.24636,-0.54294 -7.84053,-2.88909 -2.4999,-2.26089 -5.35954,-4.62195 -13.68223,-11.29674 -6.63282,-5.31951 -7.9093,-5.33095 -18.41623,-0.1651 -5.07712,2.49622 -11.19604,5.33912 -13.59761,6.31755 -2.7911,1.13713 -5.17964,3.05818 -6.62029,5.32456 -1.23959,1.95008 -3.22086,4.41071 -4.40282,5.46806 -2.86811,2.56575 -16.38545,23.16039 -18.10058,27.57754 -0.74746,1.925 -2.18044,4.69447 -3.18442,6.15437 -1.00397,1.4599 -1.8254,2.91186 -1.8254,3.22658 0,0.31471 -2.19938,5.19525 -4.8875,10.84563 -2.68813,5.65038 -5.45792,11.84842 -6.15509,13.77342 -0.69717,1.925 -2.77279,6.62299 -4.61249,10.43998 -1.83971,3.81699 -3.34492,7.52667 -3.34492,8.24373 0,0.71706 -2.01141,5.77916 -4.46981,11.24911 -2.45839,5.46995 -6.28013,14.58527 -8.49275,20.25627 -2.21262,5.671 -4.47621,11.0923 -5.03019,12.04734 -0.55399,0.95504 -1.00725,2.17696 -1.00725,2.71539 0,0.53843 -2.83775,6.73203 -6.30611,13.76357 -3.46836,7.03154 -7.02708,14.60306 -7.90828,16.82561 -0.88119,2.22254 -4.12133,8.05331 -7.20032,12.95726 -4.89025,7.78878 -5.51621,9.35303 -4.95017,12.37031 0.54954,2.9293 0.39969,3.35876 -0.98641,2.82687 -2.39063,-0.91737 -6.25367,3.47313 -5.76713,6.55456 0.0651,0.4125 -0.28862,0.75 -0.78612,0.75 -0.82653,0 -4.86923,6.49893 -9.207134,14.8011 -0.948657,1.8156 -1.977283,5.10597 -2.285834,7.31192 -0.656505,4.69362 -1.214009,5.75666 -4.305454,8.20956 -3.336507,2.64735 -2.883017,3.34203 2.661862,4.07758 2.727395,0.3618 5.21833,1.07758 5.5354,1.59062 0.32957,0.53325 1.52509,0.58062 2.7911,0.11059 1.21803,-0.45221 7.1646,-0.653 13.2146,-0.44619 6.05,0.2068 22.7,0.5698 37,0.80666 27.94982,0.46296 53.75098,1.45581 54.38808,2.09291 0.21623,0.21623 3.36737,0.22232 7.00253,0.0135 3.63517,-0.20878 12.90939,-0.66292 20.60939,-1.0092 z M 204.38883,347.57089 c -0.33673,-0.87749 -0.35516,-2.82741 -0.041,-4.33316 4.60259,-22.05755 5.4928,-24.641 10.83223,-31.43603 1.59833,-2.03406 3.59448,-5.71869 4.43588,-8.18805 1.76072,-5.16746 3.92201,-7.47566 5.5115,-5.88617 0.72362,0.72362 0.55764,1.98075 -0.54238,4.10796 -0.87181,1.68588 -1.5851,4.12628 -1.5851,5.42311 0,1.29682 -1.79332,5.93167 -3.98515,10.29966 -2.19183,4.36798 -3.99183,8.36221 -4,8.87607 -0.008,0.51385 -1.00605,2.98182 -2.21752,5.48438 -1.21147,2.50256 -2.90083,7.22025 -3.75415,10.48377 -1.55914,5.96297 -3.51572,8.13567 -4.65435,5.16846 z M 389,494 c 0,-0.55 -0.45,-1 -1,-1 -0.55,0 -1,0.45 -1,1 0,0.55 0.45,1 1,1 0.55,0 1,-0.45 1,-1 z m 12.63314,-8.72126 c 2.46611,0.16088 4.86911,0.91589 5.34001,1.67781 0.72271,1.16938 1.22017,1.14724 3.19151,-0.14206 1.47721,-0.96614 6.0655,-1.77033 12.48674,-2.18858 5.58326,-0.36366 11.55963,-1.15212 13.28082,-1.75213 1.72119,-0.60001 4.01511,-0.85931 5.09761,-0.57623 1.0825,0.28308 2.2482,0.0616 2.59045,-0.49217 0.34226,-0.55378 1.93339,-0.74465 3.53585,-0.42415 3.04841,0.60968 10.54192,-0.61942 17.34387,-2.84477 4.23411,-1.38525 15.6414,-4.04866 21.5,-5.0199 1.925,-0.31912 6.2,-1.01276 9.5,-1.54141 3.3,-0.52866 7.575,-1.59609 9.5,-2.37207 1.925,-0.77598 7.26538,-2.85483 11.86752,-4.61967 15.1269,-5.80092 23.30242,-11.30708 38.92395,-26.21502 8.40144,-8.01767 10.60524,-9.64122 12,-8.84051 1.3872,0.79638 2.7954,-0.17879 7.48743,-5.18497 3.1784,-3.39121 6.91307,-8.10113 8.29926,-10.46649 2.16667,-3.69714 6.89583,-10.4273 14.24789,-20.27642 5.5182,-7.3924 14.61925,-29.02902 16.19822,-38.50925 2.51163,-15.07997 2.95256,-24.4373 1.28309,-27.22936 -1.07592,-1.79939 -1.09479,-2.62891 -0.0962,-4.22793 1.00396,-1.60761 0.95898,-2.80908 -0.23441,-6.2614 -1.3911,-4.02424 -1.7088,-4.28083 -5.47677,-4.42322 -16.3324,-0.6172 -25.2338,-1.60656 -27.5,-3.05654 -1.375,-0.87976 -4.70179,-3.78043 -7.39286,-6.44593 -3.00101,-2.9725 -5.78226,-4.84637 -7.1931,-4.84637 -2.05325,0 -17.75987,-4.75794 -22.91404,-6.94125 -1.1,-0.46596 -4.11162,-1.59713 -6.69248,-2.51371 -4.39162,-1.55967 -4.85811,-1.55799 -7.27587,0.0262 -1.42086,0.93099 -3.50239,2.98332 -4.62561,4.56074 -1.12323,1.57742 -2.66276,2.86804 -3.42118,2.86804 -1.33636,0 -10.89664,6.71604 -18.90905,13.2835 -2.15831,1.76907 -5.79645,4.56982 -8.08477,6.22388 -2.28832,1.65406 -5.47243,4.41396 -7.07581,6.13311 -1.60338,1.71915 -4.34584,3.84839 -6.09436,4.73165 -1.74852,0.88326 -3.46635,2.51086 -3.81739,3.61689 -0.35104,1.10603 -1.08981,2.01097 -1.64171,2.01097 -1.95686,0 -15.08861,12.63908 -23.1173,22.25 -4.47969,5.3625 -8.51891,9.75 -8.97606,9.75 -0.45715,0 -1.11533,0.74048 -1.46262,1.64551 -0.34729,0.90502 -2.57554,3.71752 -4.95167,6.25 -2.37613,2.53247 -4.32786,4.92491 -4.33718,5.31653 -0.0604,2.54004 -26.26714,31.01119 -33.26667,36.14115 -2.06235,1.5115 -6.24066,4.92794 -9.28514,7.59209 -3.04447,2.66415 -8.5571,6.4495 -12.25027,8.41189 -9.23306,4.90603 -12.65752,7.88206 -13.00043,11.29804 -0.36243,3.6106 -1.39829,26.79291 -1.57799,35.3154 -0.13442,6.37464 -0.0919,6.48344 2.86356,7.33585 1.65,0.47588 4.44767,1.30038 6.21706,1.83221 2.18078,0.65549 3.87104,0.61695 5.24735,-0.11962 1.99689,-1.0687 1.97865,-1.18885 -1.10845,-7.30282 -1.72631,-3.41892 -3.97512,-9.1398 -4.99735,-12.71305 -2.02955,-7.09433 -2.48868,-19.95736 -0.82343,-23.06892 0.99932,-1.86724 3.89293,-2.71678 4.03372,-1.18426 0.0379,0.4125 0.22821,1.875 0.42293,3.25 0.19472,1.375 0.83999,6.34589 1.43393,11.04641 1.06508,8.42915 3.66192,17.50413 5.75606,20.11522 0.59037,0.7361 1.40033,2.46337 1.79992,3.83837 0.39958,1.375 1.38476,3.54261 2.18929,4.81692 1.21176,1.91934 1.72177,2.10197 2.97209,1.0643 1.00926,-0.83761 1.73254,-0.90946 2.1831,-0.21686 1.10584,1.69992 3.64959,2.12954 3.99843,0.6753 0.22676,-0.94532 1.67665,-1.26522 4.80849,-1.06092 z m 119.65592,-0.45398 c 2.39519,0.0855 3.98325,-0.37083 4.31694,-1.24039 0.36929,-0.96236 1.33389,-1.15997 3.21093,-0.65782 1.66063,0.44426 4.39789,0.10733 7.18307,-0.88416 2.475,-0.88107 7.2,-1.72874 10.5,-1.88371 3.81818,-0.17929 7.27108,-1.02705 9.49548,-2.33133 2.65844,-1.55877 5.24037,-2.04957 10.78212,-2.04957 6.45199,0 7.22376,-0.19813 6.73766,-1.72969 -0.4689,-1.47738 0.21932,-1.75399 4.71788,-1.89625 4.91936,-0.15557 9.77972,-1.27022 20.76686,-4.76257 16.00457,-5.08718 20.57327,-6.73783 21.14104,-7.63818 0.35258,-0.55909 -0.4206,-2.86931 -1.71816,-5.13381 -1.29757,-2.2645 -3.01621,-5.48797 -3.81921,-7.16325 C 612.6025,443.27906 603.55557,435 600.99453,435 c -1.15013,0 -3.9819,0.93464 -6.29284,2.07698 -2.31093,1.14234 -5.10169,2.24496 -6.20169,2.45026 -6.82382,1.27358 -18.21767,2.51835 -19.642,2.14588 -0.92535,-0.24199 -4.08445,1.27092 -7.02023,3.36202 -10.04473,7.15468 -21.33657,14.7359 -24.83777,16.67581 -9.26033,5.13087 -16.45205,8.49125 -27,12.61589 -10.25076,4.00844 -14.31212,5.20909 -24.25,7.16894 -4.21535,0.83131 -3.26677,2.48982 1.5,2.62264 2.3375,0.0651 4.7,0.0132 5.25,-0.11547 0.55,-0.12864 2.9125,-0.37482 5.25,-0.54707 3.33402,-0.24568 4.25,0.0264 4.25,1.26221 0,1.36731 1.02359,1.46946 7.75,0.77342 4.2625,-0.44108 9.45508,-0.74112 11.53906,-0.66675 z m -8.64958,-1.51861 C 511.5133,482.17996 511.95359,481 513.5,481 c 0.825,0 1.5,0.42344 1.5,0.94098 0,1.26098 -1.56159,2.1641 -2.36052,1.36517 z M 356.43463,471.22713 c 0.39965,-5.34992 0.90335,-13.90878 1.11936,-19.01968 0.43534,-10.30068 0.69985,-10.10715 -6.22229,-4.55237 -2.29256,1.83971 -4.46008,3.34492 -4.81672,3.34492 -1.49552,0 -7.34018,5.22356 -7.79631,6.96781 -0.30749,1.17584 0.41719,2.75065 1.91197,4.15492 1.33774,1.25674 2.67767,3.95314 3.01606,6.06933 0.60119,3.75963 1.6395,4.77192 2.86338,2.79163 1.28565,-2.08023 2.56,0.31548 2.18145,4.10099 -0.32839,3.28393 -0.0932,3.91532 1.45847,3.91532 1.33547,0 1.85,0.73842 1.85,2.65499 0,2.52196 0.0929,2.57092 1.85401,0.97713 1.44398,-1.30679 2.0147,-3.82906 2.58062,-11.40499 z m -29.91167,3.05785 c 1.25655,-2.62724 1.30867,-3.58172 0.28508,-5.22075 -1.91781,-3.07091 -5.25849,-3.91222 -18.41227,-4.63692 l -12.10424,-0.66689 -2.67256,-4.12171 c -1.46991,-2.26694 -2.94462,-5.82301 -3.27712,-7.90237 -0.33251,-2.07937 -0.99545,-4.02225 -1.4732,-4.31752 C 288.39089,447.12355 288,446.00242 288,444.92741 c 0,-1.075 -0.51994,-2.96094 -1.15543,-4.19098 -0.63548,-1.23004 -1.45513,-2.88465 -1.82144,-3.67691 -1.36127,-2.9442 -2.84935,-2.04481 -3.53965,2.13933 -0.39029,2.36563 -1.16742,4.86798 -1.72698,5.56077 -1.28252,1.58792 -1.12678,10.68 0.22626,13.20816 0.55948,1.0454 1.01724,3.28997 1.01724,4.98792 0,3.21291 4.16827,10.51116 6.51832,11.41296 0.74354,0.28532 3.74359,0.80133 6.66678,1.1467 2.9232,0.34536 7.7899,0.98609 10.8149,1.42385 3.025,0.43775 8.75919,0.74301 12.74264,0.67835 7.12548,-0.11566 7.26753,-0.16957 8.78032,-3.33258 z M 633.9856,449.02852 C 635.64352,445.7442 637,442.6171 637,442.07941 c 0,-0.5377 -1.58479,-2.18641 -3.52177,-3.66381 -3.3425,-2.54945 -3.6178,-2.59926 -5.40862,-0.9786 -2.72518,2.46626 -4.39797,7.11859 -3.64222,10.12971 0.59085,2.35414 4.69936,7.43329 6.01276,7.43329 0.29208,0 1.88754,-2.68717 3.54545,-5.97148 z M 343.817,444.82886 c 1.82435,-0.56551 3.09677,-1.24843 2.82759,-1.5176 -0.73858,-0.73858 -11.64997,1.88843 -12.31534,2.96502 -0.61606,0.99681 3.75251,0.33035 9.48775,-1.44742 z m 280.17907,-8.1146 2.49607,-4.66657 -2.16279,-2.16279 c -2.95755,-2.95754 -5.01572,-1.83799 -6.07898,3.3067 -0.94133,4.55469 0.22461,9.13091 2.17194,8.52471 0.59273,-0.18451 2.20092,-2.43544 3.57376,-5.00205 z m -8.69438,-5.90233 c 0.74947,-5.00313 -1.67158,-6.62825 -6.55169,-4.39779 -2.4464,1.11813 -2.18373,3.32843 0.87159,7.33416 2.16256,2.83527 2.84099,3.20199 3.87461,2.09439 0.68916,-0.73848 1.50163,-3.00232 1.80549,-5.03076 z m 27.79052,2.84093 c 0.53286,-1.18407 2.2712,-4.50184 3.86297,-7.37282 l 2.89413,-5.21997 -5.17466,-4.27909 c -2.84606,-2.35349 -6.97465,-6.21236 -9.17465,-8.57525 -5.49701,-5.90403 -8.33734,-6.23598 -12.20263,-1.42614 -3.78951,4.71553 -7.55233,11.99886 -6.81522,13.19153 0.30679,0.4964 3.06515,2.0887 6.12968,3.53846 3.06454,1.44976 7.66805,4.79737 10.23003,7.43914 6.36179,6.55994 8.28662,7.06772 10.25035,2.70414 z m 14.87987,-22.8517 C 660.18744,407.39181 662,403.99333 662,403.24899 c 0,-0.74434 -3.03836,-4.59236 -6.75191,-8.55117 -3.71356,-3.9588 -8.60779,-9.33532 -10.87608,-11.94782 -2.26828,-2.6125 -4.57451,-4.75 -5.12494,-4.75 -0.55043,0 -2.00302,2.3625 -3.22799,5.25 -1.22496,2.8875 -2.81064,6.6 -3.52373,8.25 -3.27302,7.57333 -3.86513,6.62126 9.68474,15.57229 2.14163,1.41476 5.01845,4.22726 6.39294,6.25 1.37449,2.02274 3.14528,3.67771 3.9351,3.67771 0.78981,0 3.24859,-2.78948 5.46395,-6.19884 z M 668.5,395 c 0.34913,-1.1 0.98719,-2 1.41791,-2 0.80035,0 7.07709,-9.5781 7.08825,-10.81645 0.003,-0.37595 0.63262,-1.88427 1.39829,-3.35182 0.76568,-1.46754 1.69655,-4.47009 2.06862,-6.67232 0.7287,-4.31315 1.55679,-2.94805 -11.84585,-19.528 -1.71997,-2.12772 -3.48708,-4.49022 -3.92691,-5.25 C 664.26048,346.62164 663.39591,346 662.77905,346 c -0.61686,0 -1.8887,-0.69424 -2.8263,-1.54276 -1.56305,-1.41454 -1.89756,-1.22753 -4.02473,2.25 -6.62086,10.8239 -12.92614,23.19118 -12.92723,25.35567 -4.3e-4,0.8596 1.38511,2.8846 3.079,4.5 1.69388,1.6154 5.59601,6.08709 8.67138,9.93709 3.07538,3.85 6.46433,7.7875 7.531,8.75 2.58363,2.33132 5.43494,2.21668 6.21783,-0.25 z m 20.60151,-34.75 c 1.78656,-3.1625 4.30309,-7.03213 5.59229,-8.59918 3.51873,-4.27711 10.4956,-19.49582 9.83347,-21.44983 -0.31702,-0.93554 -5.54548,-6.87599 -11.61879,-13.20099 -12.35784,-12.86996 -11.22057,-12.60229 -16.39795,-3.85951 -1.09421,1.84773 -2.89421,4.75305 -4,6.45626 -4.47844,6.89797 -5.88069,9.02495 -7.67314,11.63881 -4.46014,6.50404 -4.34657,7.17616 2.45348,14.51978 3.43499,3.70956 8.86281,9.78216 12.06184,13.49466 3.19903,3.7125 5.97034,6.75 6.15846,6.75 0.18813,0 1.80378,-2.5875 3.59034,-5.75 z M 386,314 c 0,-0.55 -0.19844,-1 -0.44098,-1 -0.24254,0 -0.7191,0.45 -1.05902,1 -0.33992,0.55 -0.14148,1 0.44098,1 0.58246,0 1.05902,-0.45 1.05902,-1 z m 11.7595,-6.11599 c 4.61948,-6.93805 7.02543,-9.05293 9.90028,-8.70255 1.59597,0.19451 2.88413,-0.26551 3.30837,-1.18146 0.38211,-0.825 1.43588,-2.98204 2.34171,-4.79342 1.58304,-3.16559 1.54664,-3.54399 -0.93779,-9.75 C 410.95046,279.90546 409.44449,277 409.02547,277 c -0.41902,0 -4.63269,2.025 -9.36372,4.5 -4.73103,2.475 -9.48878,4.5 -10.57279,4.5 -1.08401,0 -2.23157,0.42173 -2.55013,0.93718 C 385.65435,288.36829 373.26197,294 370.99733,294 369.8988,294 369,294.41058 369,294.9124 c 0,0.50182 3.55841,0.83932 7.90758,0.75 4.34918,-0.0893 8.27317,0.1991 8.72,0.64093 0.44682,0.44183 -0.18784,2.69183 -1.41036,5 -1.22253,2.30817 -2.22153,4.61124 -2.22,5.11793 0.002,0.50669 -0.78472,1.80994 -1.74722,2.8961 -0.99408,1.1218 -1.20406,1.80174 -0.4861,1.57411 0.69514,-0.22041 3.1741,-3.32365 5.50879,-6.8961 2.80849,-4.29744 5.00329,-6.6035 6.4861,-6.81492 3.0952,-0.44131 2.82385,0.9728 -1.41038,7.35001 -2.00837,3.02483 -3.38831,5.76297 -3.06653,6.08475 1.00289,1.00289 2.42885,-0.44434 5.2868,-5.36567 2.89074,-4.97778 4.11138,-6.20887 6.18132,-6.23423 2.0712,-0.0254 1.43434,1.98924 -2.25,7.11757 -3.77519,5.25479 -4.03511,5.86712 -2.4905,5.86712 0.55523,0 2.24273,-1.85219 3.75,-4.11599 z m 213.97977,-1.70197 c 2.6184,-0.99987 9.35813,-4.59987 14.97718,-8 C 632.33549,294.78192 637.20441,292 637.53627,292 c 0.33186,0 2.56554,-1.35 4.96373,-3 2.39819,-1.65 4.81941,-3 5.38049,-3 2.04008,0 2.89003,-3.21372 1.53877,-5.81827 -0.7243,-1.39608 -1.08838,-2.90809 -0.80906,-3.36003 0.27931,-0.45193 -0.39321,-0.8217 -1.49448,-0.8217 -2.31371,0 -5.10567,-3.51735 -5.13768,-6.47251 -0.0121,-1.11512 -0.91086,-3.98641 -1.99729,-6.38064 -1.08643,-2.39423 -2.43463,-7.22831 -2.99601,-10.74239 C 635.87742,245.4729 634.21769,241 632.75296,241 c -0.5093,0 -2.79957,1.34223 -5.08948,2.98274 -2.49181,1.78515 -5.80271,3.14035 -8.24618,3.37528 -4.95868,0.47676 -7.02894,1.53645 -10.85439,5.55592 -3.4758,3.65209 -4.83228,3.81669 -7.71307,0.9359 -1.71695,-1.71695 -2.4725,-1.91795 -3.75,-0.99762 -3.1885,2.29706 -6.66354,3.29929 -9.74041,2.80924 -1.72731,-0.27511 -4.86191,-0.11197 -6.96578,0.36253 -2.32164,0.52361 -4.27846,0.48657 -4.97829,-0.0942 -0.80598,-0.6689 -2.29612,0.70271 -4.95043,4.55665 -5.40534,7.84831 -6.54545,7.36956 -5.78967,-2.43122 0.67243,-8.71982 1.02127,-8.19373 -6.15014,-9.2751 -1.08619,-0.16379 -2.47603,-1.30299 -3.08854,-2.53156 -1.06309,-2.13235 -9.00409,-8.19213 -10.78537,-8.23032 -0.46683,-0.01 -2.10988,-1.3682 -3.65121,-3.0182 -1.54133,-1.65 -3.69451,-3 -4.78485,-3 -1.09033,0 -3.57565,-1.76351 -5.52292,-3.9189 -2.92878,-3.24182 -3.65463,-3.63056 -4.20112,-2.25 -1.27468,3.22013 -1.99063,11.7753 -1.93891,23.1689 0.0428,9.42215 0.46306,12.60061 2.32616,17.5914 l 2.27396,6.0914 9.95575,3.30373 c 5.47566,1.81706 11.17888,3.28585 12.67384,3.26399 1.49495,-0.0219 5.28034,-0.11931 8.41197,-0.21656 6.70173,-0.20811 8.96416,1.14375 15.79154,9.43587 4.08994,4.9674 4.83938,5.44496 8.5,5.4164 2.20802,-0.0172 6.32421,0.42966 9.14709,0.99306 7.13063,1.42317 10.73876,0.14822 18.02782,-6.37023 5.93436,-5.30699 9.37622,-6.88215 9.3064,-4.25906 -0.0501,1.88295 -2.758,4.68973 -10.20108,10.57365 C 604.88084,299.47572 600,304.69598 600,306.33795 c 0,0.29106 1.2375,0.71667 2.75,0.9458 1.5125,0.22912 3.08267,0.48401 3.48927,0.56642 0.4066,0.0824 2.8816,-0.66825 5.5,-1.66813 z M 305,298.54858 c 20.28941,-3.82 33.39596,-10.23884 53.18835,-26.04858 2.7542,-2.2 6.87605,-5.43198 9.15965,-7.18218 12.57557,-9.63816 15.852,-13.54614 15.852,-18.9076 0,-2.00134 -0.71073,-4.34952 -1.57939,-5.21818 -1.43919,-1.43919 -1.78095,-1.39331 -3.85,0.51678 -1.24884,1.15289 -3.84561,2.96268 -5.77061,4.02176 -8.98149,4.94134 -27.50476,13.95071 -36,17.50973 -1.925,0.80646 -5.975,2.49882 -9,3.76079 -3.025,1.26198 -7.33215,3.09252 -9.57144,4.06789 -2.23929,0.97536 -5.62842,2.06548 -7.5314,2.42248 -4.62782,0.86818 -7.02578,-1.77468 -7.66722,-8.45025 -0.442,-4.59993 0.035,-5.99025 6.26495,-18.26013 3.70886,-7.3046 7.74359,-16.20609 8.96608,-19.78109 2.89641,-8.47017 5.18936,-9.19353 5.71856,-1.80404 0.20892,2.91722 0.003,5.46274 -0.45786,5.65671 -0.46073,0.19397 -1.95958,2.88943 -3.33076,5.98991 -1.37118,3.10049 -3.31101,6.54178 -4.31074,7.64733 -0.99973,1.10555 -2.11032,3.24759 -2.46798,4.76009 -1.0437,4.41367 1.5952,3.423 8.77656,-3.29481 5.29484,-4.95307 7.04179,-7.43645 9.67254,-13.75 3.15948,-7.58248 4.75572,-14.84994 5.42631,-24.70519 0.52724,-7.74854 1.69361,-14.49396 2.60342,-15.05626 0.45416,-0.28068 4.72493,-0.0258 9.49059,0.5664 4.76567,0.59221 8.85197,0.88962 9.08067,0.66092 0.84461,-0.84462 -2.40701,-8.46983 -5.13944,-12.05223 C 349.73529,177.96417 339.21411,171 336.48035,171 c -0.77687,0 -2.95528,-0.7357 -4.8409,-1.63489 -1.97326,-0.94099 -4.45796,-1.37649 -5.8541,-1.02608 -1.33414,0.33484 -10.33219,5.90804 -19.99567,12.38489 -15.3263,10.27229 -18.92675,13.22477 -28.19493,23.1207 C 265.30243,216.96952 256,228.94378 256,231.64178 c 0,1.03242 -0.9,2.43919 -2,3.12615 -1.1,0.68696 -2,1.83921 -2,2.56055 0,1.89567 6.8966,9.67152 8.57792,9.67152 0.78215,0 1.42208,0.43581 1.42208,0.96846 0,0.53265 2.54522,2.84872 5.65605,5.14682 5.37641,3.97179 5.72352,4.08612 7.02046,2.31245 1.34062,-1.83342 2.77699,-6.33906 3.69337,-11.58549 0.25532,-1.46176 1.37662,-4.38676 2.49177,-6.5 1.11515,-2.11323 3.89359,-7.89224 6.1743,-12.84224 4.25266,-9.22987 7.30133,-13.5 9.63836,-13.5 2.24049,0 1.48674,3.51607 -2.17673,10.15393 -1.92633,3.49034 -3.96038,7.02107 -4.52011,7.84607 -1.09131,1.60853 -4.23478,8.01076 -4.54171,9.25 -0.10217,0.4125 -0.26795,0.8625 -0.36841,1 -0.10045,0.1375 -1.06669,3.4 -2.1472,7.25 -1.08051,3.85 -2.41472,8.575 -2.96493,10.5 -0.5502,1.925 -1.20937,9.27113 -1.46483,16.32473 -0.56006,15.46431 -0.0516,16.7995 8.59743,22.57508 6.84045,4.56788 7.3326,4.64065 17.91218,2.64877 z m 264,-6.98956 c 0,-0.79254 -0.47776,-1.73626 -1.06168,-2.09714 -0.58393,-0.36089 -1.46239,-1.71009 -1.95214,-2.99822 -1.45135,-3.81736 -4.14643,-4.65256 -7.81468,-2.42176 -4.3756,2.66096 -3.97811,4.36129 1.5785,6.7523 5.72044,2.4615 9.25,2.75334 9.25,0.76482 z m 99.67154,-18.58639 c 8.21517,-6.45704 15.7075,-13.11273 42.82846,-38.04601 2.75,-2.52818 8.04797,-7.25842 11.77327,-10.51165 17.93151,-15.65926 16.95363,-14.50499 15.58847,-18.40033 -0.67182,-1.91695 -2.15304,-4.25035 -3.29161,-5.18535 -1.83208,-1.5045 -2.30012,-1.53252 -4.07013,-0.2437 C 725.62993,204.85985 715.83941,211 714.89414,211 c -0.59697,0 -2.27987,0.84352 -3.73977,1.87449 -3.99513,2.82133 -16.96164,9.16551 -22.93423,11.22113 -2.90392,0.99946 -8.97892,2.29998 -13.5,2.89003 -10.25797,1.33879 -25.86206,4.67401 -31.45595,6.72339 -6.45287,2.36408 -6.81227,3.25067 -4.26241,10.51472 1.21171,3.45193 2.56659,7.85124 3.01084,9.77624 0.44425,1.925 1.66982,5.75 2.72349,8.5 1.56876,4.09435 2.31564,4.95577 4.12345,4.75583 2.5663,-0.28383 3.13483,0.97074 4.05821,8.95521 0.13986,1.20941 4.4413,4.83594 5.3691,4.52667 0.48255,-0.16085 5.15565,-3.65514 10.38467,-7.76508 z m 38.50891,-42.1443 C 707.65153,227.62683 710,227.28395 710,230.41667 710,232.09717 709.45147,233 708.43045,233 c -1.04234,0 -1.46221,-0.72946 -1.25,-2.17167 z m -81.45767,9.02652 c 3.49922,-2.27983 6.84154,-5.04077 7.42738,-6.13543 0.96051,-1.79472 0.81707,-1.92801 -1.45974,-1.35657 -1.59713,0.40086 -2.71595,0.17504 -3.04484,-0.61457 -0.37021,-0.88881 -0.96098,-0.7016 -2.0515,0.6501 -1.24235,1.53991 -1.81166,1.66593 -3.01484,0.66739 -2.53239,-2.1017 -5.43818,-0.30333 -6.6237,4.09935 -1.17341,4.35771 -0.7409,6.83488 1.19336,6.83488 0.66641,0 4.07466,-1.86532 7.57388,-4.14515 z M 209.5,242 c 0.33992,-0.55 -0.11008,-1 -1,-1 -0.88992,0 -1.33992,0.45 -1,1 0.33992,0.55 0.78992,1 1,1 0.21008,0 0.66008,-0.45 1,-1 z m 10.5,0.0352 c 0,-0.53065 -0.9,-1.44648 -2,-2.03518 -2.20261,-1.1788 -2.68759,-0.0876 -0.8,1.8 1.44583,1.44583 2.8,1.55957 2.8,0.23518 z m 253,-10.47616 c 0,-2.99254 0.45734,-5.72364 1.01631,-6.0691 0.55897,-0.34546 0.68841,-1.15867 0.28764,-1.80713 -0.40077,-0.64846 -0.8395,-4.10487 -0.97496,-7.68091 -0.59655,-15.74874 -1.3451,-22.09683 -2.88222,-24.44278 -0.88424,-1.34951 -1.53986,-2.58988 -1.45694,-2.75638 0.0829,-0.16649 -0.37036,-1.65272 -1.0073,-3.30272 -0.63694,-1.65 -1.41189,-4.575 -1.72212,-6.5 -0.31023,-1.925 -1.68024,-4.625 -3.04448,-6 -1.36424,-1.375 -3.53178,-4.15615 -4.81675,-6.18033 -2.12106,-3.34125 -7.50381,-7.74028 -13.01002,-10.63238 -1.90533,-1.00076 -2.47966,-0.55271 -5.89892,4.602 -2.08345,3.14089 -4.63454,6.94821 -5.6691,8.46071 -2.05795,3.00868 -1.79635,3.37598 1.11123,1.56016 1.49269,-0.9322 2.24522,-0.90766 3.47542,0.11331 0.8636,0.71673 1.32359,1.70216 1.02218,2.18984 -0.3014,0.48768 0.13119,0.88669 0.96132,0.88669 0.83013,0 1.93814,-0.76624 2.46224,-1.70276 0.80352,-1.43581 1.20326,-1.495 2.54969,-0.37756 2.29596,1.90547 2.09463,2.49735 -2.96057,8.70377 -2.50654,3.07735 -4.2678,5.8835 -3.91392,6.23587 0.35389,0.35237 1.52496,-0.48432 2.6024,-1.85932 4.38718,-5.59884 11.3505,-12 13.05387,-12 0.99825,0 1.80791,0.3375 1.79924,0.75 -0.009,0.4125 -4.73366,5.88282 -10.5,12.15626 -10.986,11.95214 -13.21757,15.38455 -6.48424,9.9735 2.2,-1.76797 4,-3.81418 4,-4.54712 0,-0.73295 0.51325,-1.33264 1.14055,-1.33264 0.6273,0 3.33846,-2.32884 6.0248,-5.1752 3.63319,-3.84961 5.17393,-4.88552 6.0152,-4.04425 0.84126,0.84126 0.0523,2.52911 -3.0803,6.58951 -2.31619,3.0022 -4.8187,5.69166 -5.56114,5.97656 -2.1127,0.81072 -7.87184,9.65338 -6.28715,9.65338 0.74142,0 1.77554,-0.37854 2.29804,-0.8412 0.91201,-0.80757 13.37031,-5.1588 14.7705,-5.1588 1.32244,0 0.65666,4.36775 -0.93364,6.12501 -1.5123,1.67108 -1.44099,1.76976 1.14079,1.57874 2.20945,-0.16347 2.94439,0.3523 3.7173,2.60875 0.52986,1.54688 0.77732,2.99857 0.5499,3.22598 -0.22742,0.22742 -3.31179,0.9868 -6.85417,1.6875 -4.49215,0.88857 -6.44068,1.7278 -6.44068,2.774 0,1.56906 0.59325,1.60097 8.75,0.47059 3.84283,-0.53255 4.75,-0.37262 4.75,0.83739 0,1.08393 -1.65123,1.68729 -5.99845,2.19184 -7.84154,0.91011 -6.8453,2.87393 1.16404,2.29458 4.93254,-0.35678 5.86123,-0.1722 5.61321,1.11566 -0.20165,1.04713 -2.62471,2.0143 -7.53799,3.0088 -7.43638,1.50521 -10.20947,3.53745 -3.49081,2.55822 8.79327,-1.28161 13.66154,-1.04288 14.01945,0.68748 0.48318,2.33607 -1.80963,2.82438 -13.9869,2.97887 -5.83797,0.0741 -11.2148,0.5152 -11.94852,0.9803 -1.45096,0.91977 -1.08145,1.04248 4.16597,1.38351 9.97781,0.64845 21.03055,2.18997 21.89414,3.05357 C 467.1357,236.80236 468.60833,237 470.16667,237 472.93062,237 473,236.86676 473,231.55902 Z m -238.41352,-1.11945 c -0.94408,-0.69032 -1.5792,-1.85913 -1.41137,-2.59735 0.40784,-1.79399 -3.88288,-8.61546 -6.19875,-9.85487 -2.73747,-1.46505 -3.78018,-1.22243 -5.06517,1.17859 -1.03419,1.9324 -0.65742,2.63328 3.49413,6.5 2.55932,2.38374 5.03501,4.33406 5.50155,4.33406 0.46653,0 1.40433,0.67005 2.08399,1.48899 0.67967,0.81894 1.70294,1.20025 2.27394,0.84736 0.64299,-0.3974 0.38479,-1.11941 -0.67832,-1.89678 z m 371.17709,1.66309 c 1.58997,-0.82166 4.51574,-1.97625 12.75395,-5.03305 3.79222,-1.40711 15.69964,-12.65509 17.89856,-16.90732 0.90799,-1.75586 4.44832,-6.83686 7.8674,-11.29111 3.41909,-4.45426 6.73914,-9.0099 7.3779,-10.12365 0.63876,-1.11375 4.53331,-5.45007 8.65456,-9.63626 7.84941,-7.97313 13.62115,-16.20164 15.50952,-22.11127 0.61512,-1.925 1.01593,-8.225 0.89069,-14 -0.20258,-9.34136 -0.54211,-11.10691 -3.07695,-16 -3.5439,-6.8409 -10.65114,-16.54362 -16.87862,-23.04251 -2.60668,-2.72028 -5.53652,-6.636061 -6.51075,-8.70173 -2.33906,-4.959524 -5.86395,-5.183778 -8.16337,-0.519355 -0.87255,1.769997 -2.1264,3.228396 -2.78633,3.240886 -0.65993,0.01249 -3.30195,-1.395973 -5.87117,-3.129917 -4.11339,-2.776091 -5.46302,-3.145192 -11.30013,-3.09039 -14.68836,0.137903 -16.74166,0.395828 -21.62883,2.716905 -2.75,1.306064 -6.125,2.617974 -7.5,2.915356 -3.96974,0.858566 -11.30901,8.503105 -15.39832,16.038795 -2.06776,3.81043 -5.24301,8.76043 -7.0561,11 -1.81309,2.23958 -4.09672,5.64696 -5.07473,7.57196 -0.97801,1.925 -2.29457,3.95 -2.92568,4.5 -0.63112,0.55 -2.73517,3.025 -4.67567,5.5 -19.40916,24.75528 -23.47217,43.73631 -13.02584,60.85234 4.30897,7.06013 20.82574,22.11733 24.2839,22.13795 0.89515,0.005 2.16053,0.65191 2.81194,1.43682 2.12031,2.55481 10.35199,4.65643 20.5605,5.24928 5.5,0.3194 10.1875,0.74788 10.41667,0.95217 0.59831,0.53337 0.90772,0.47621 2.8469,-0.5259 z M 589,216.684 c 0,-2.45486 0.844,-4.10043 3.25,-6.33658 6.27482,-5.83187 10.00298,-10.89519 11.78069,-15.9997 2.46,-7.06362 3.71565,-9.32602 7.24776,-13.05881 5.23282,-5.53013 6.76714,-1.22626 1.73794,4.87504 -3.42676,4.15725 -4.77708,7.31925 -6.09992,14.28401 -0.51688,2.72137 -1.76963,5.87137 -2.78388,7 -1.01426,1.12862 -2.65598,3.47212 -3.64828,5.20778 C 598.79339,215.6134 592.59929,220 590.11385,220 589.50123,220 589,218.5078 589,216.684 Z m -7,-6.10727 c 0,-0.78281 1.165,-2.80781 2.58889,-4.5 1.4239,-1.6922 2.2114,-3.10773 1.75,-3.14563 -0.46139,-0.0379 -2.12675,-0.23757 -3.70081,-0.44371 -2.20278,-0.28849 -3.43241,0.30317 -5.3389,2.5689 -3.47906,4.13463 -5.69321,3.80986 -7.30415,-1.07135 -1.019,-3.0876 -1.0749,-5.1084 -0.242,-8.74819 0.92792,-4.055 0.88886,-4.4675 -0.27259,-2.87911 -0.74563,1.0197 -2.14765,4.05639 -3.11561,6.74818 -1.77352,4.93201 -3.89247,6.37976 -4.60187,3.14418 -0.91456,-4.17133 4.36532,-14.25 7.46511,-14.25 1.11678,0 3.92274,-1.9125 6.23546,-4.25 2.31273,-2.3375 5.51705,-5.40684 7.12071,-6.82075 1.60367,-1.41391 4.18206,-4.45087 5.72975,-6.7488 l 2.814,-4.17805 6.91679,0.43439 c 3.80424,0.23892 7.177,0.0134 7.49503,-0.5012 0.31802,-0.51457 2.10932,-0.93559 3.98066,-0.93559 3.16048,0 3.48211,-0.30224 4.52271,-4.25 0.61615,-2.3375 2.16185,-6.05055 3.4349,-8.25122 2.37644,-4.10805 6.53374,-8.51894 6.50686,-6.90377 -0.0239,1.43361 -2.39763,7.60499 -4.27159,11.10533 -0.94234,1.76019 -1.71335,4.31839 -1.71335,5.6849 0,6.20094 -3.59205,9.98758 -9.31984,9.82473 -2.67409,-0.076 -2.85933,0.14417 -2.33341,2.77378 0.93841,4.69206 -8.94782,22.9928 -16.62022,30.76625 -6.3434,6.42695 -7.72653,7.29098 -7.72653,4.82673 z m -6,-11.63575 C 576,198.42344 575.55,198 575,198 c -0.55,0 -1,0.70156 -1,1.55902 0,0.85746 0.45,1.2809 1,0.94098 0.55,-0.33992 1,-1.04148 1,-1.55902 z m 24.00993,-17.4671 c 1.65485,-4.35259 1.87054,-7.2564 0.65924,-8.87536 -1.02236,-1.36642 -1.72774,-1.39599 -5.61755,-0.23545 -2.44661,0.72996 -4.61223,1.81876 -4.8125,2.41956 -0.36405,1.09215 6.5723,8.97664 8.03563,9.13404 0.42611,0.0458 1.20694,-1.05342 1.73518,-2.44279 z M 552,198.46731 c 0,-3.14685 5.74984,-11.42134 9.75143,-14.03311 5.24221,-3.4215 14.75667,-11.76546 16.35539,-14.3433 C 581.395,164.78892 586,162.50155 586,166.17024 c 0,1.78034 -8.08803,10.82392 -11.05021,12.35573 -3.91709,2.0256 -17.37101,15.37074 -19.05426,18.90019 C 554.01407,201.37122 552,201.90951 552,198.46731 Z m 41.66667,-36.13398 c -1.42137,-1.42136 -0.65253,-6.40112 1.08333,-7.01671 0.9625,-0.34134 2.425,-1.1625 3.25,-1.8248 0.825,-0.6623 4.65,-2.87776 8.5,-4.92325 3.85,-2.04549 7.929,-4.58521 9.06445,-5.64382 2.35532,-2.19594 4.44835,-2.51629 4.40849,-0.67475 -0.0582,2.69041 -7.12075,8.80425 -12.24442,10.59969 -4.04904,1.41886 -5.17502,2.26284 -4.99138,3.74124 0.58816,4.73496 -0.61066,6.40907 -4.58953,6.40907 -2.09785,0 -4.11428,-0.3 -4.48094,-0.66667 z m 49.14842,-3.47548 c -1.8233,-2.21619 -5.00259,-5.7217 -7.06509,-7.79003 -2.25901,-2.26539 -3.75,-4.72033 -3.75,-6.17443 0,-4.76983 9.7475,-12.19014 17.679,-13.45818 3.63755,-0.58156 4.51211,-0.33501 6.75,1.90288 2.95693,2.95693 3.27031,6.53013 1.25433,14.30196 -1.28079,4.93756 -7.26713,13.60252 -10.16608,14.71496 -0.81838,0.31404 -2.74626,-1.11979 -4.70216,-3.49716 z m 8.15096,-5.52489 c 2.96352,-5.02278 4.58145,-13.96834 2.89409,-16.00148 -1.74793,-2.10613 -7.13382,-1.10682 -11.92328,2.21228 -4.18812,2.90236 -5.54655,5.24655 -3.95983,6.83327 0.72346,0.72346 1.92859,0.51922 3.93707,-0.66722 4.54383,-2.6841 5.0859,-2.2446 5.0859,4.12352 0,4.95908 0.48297,7.16667 1.56789,7.16667 0.12901,0 1.20818,-1.65017 2.39816,-3.66704 z m 18.72443,-11.97582 C 669.31071,140.97738 669,139.84167 669,138.83333 669,137.825 668.59878,137 668.10841,137 c -0.49038,0 -1.15528,-1.05062 -1.47757,-2.33471 -0.32228,-1.28409 -2.93863,-4.68737 -5.8141,-7.56284 -4.02999,-4.02998 -5.69663,-5.08064 -7.27244,-4.58456 -5.55845,1.74988 -6.5443,1.73584 -6.5443,-0.0932 0,-2.10517 7.47844,-9.42471 9.62931,-9.42471 0.80388,0 2.59801,1.2375 3.98696,2.75 1.38895,1.5125 3.34345,3.65 4.34333,4.75 0.99989,1.1 2.60554,3.575 3.56812,5.5 0.96258,1.925 2.78679,4.54803 4.0538,5.82895 1.99095,2.01281 2.15065,2.69153 1.17651,5 -1.46249,3.46576 -3.19797,5.39778 -4.06755,4.52819 z m -58.88454,-7.29515 c -1.35508,-1.06591 -3.69161,-2.24617 -5.19228,-2.62282 -5.42766,-1.36226 -6.27614,-5.83966 -2.77457,-14.64127 1.71704,-4.31599 8.83673,-7.11918 13.82649,-5.44382 3.03746,1.01985 6.26884,7.95876 5.72988,12.30409 -0.55203,4.4508 -3.8221,10.90783 -5.93465,11.7185 -2.41985,0.92858 -2.9638,0.80212 -5.65487,-1.31468 z m 7.14148,-6.81199 c 0.57278,-2.0625 1.04394,-4.27797 1.047,-4.92327 C 619.00339,120.43984 613.97052,115 612.21583,115 609.49425,115 605,120.09919 605,123.18709 c 0,2.42023 0.39447,2.81291 2.82569,2.81291 1.72109,0 3.74378,0.97727 5.17431,2.5 3.12242,3.32366 3.71912,3.1729 4.94742,-1.25 z m 10.25624,-17.85323 C 628.46477,103.15694 626.87347,101 622.00887,101 c -1.43488,0 -3.10494,-0.49607 -3.71125,-1.102383 -0.80318,-0.803178 -2.14185,-0.396052 -4.93214,1.500003 -2.10636,1.43131 -4.40029,2.60238 -5.09761,2.60238 -2.30619,0 -1.31802,-3.14985 2.04241,-6.510276 5.85023,-5.850235 13.85228,-5.550895 21.90041,0.819248 4.06481,3.217328 4.06139,10.236228 -0.007,14.941028 -2.95319,3.41492 -4.25155,2.16413 -3.99975,-3.85323 z M 613,108 c 0,-0.55 0.9,-1 2,-1 1.1,0 2,0.45 2,1 0,0.55 -0.9,1 -2,1 -1.1,0 -2,-0.45 -2,-1 z M 445.91667,227.35932 c 1.00348,-0.86538 -3.5663,-0.22744 -4.91667,0.68637 -1.09546,0.74131 -0.69092,0.83408 1.5,0.34401 1.65,-0.36908 3.1875,-0.83275 3.41667,-1.03038 z M 448,219.55902 c 0,-0.24254 -0.45,-0.7191 -1,-1.05902 -0.55,-0.33992 -1,-0.14148 -1,0.44098 0,0.58246 0.45,1.05902 1,1.05902 0.55,0 1,-0.19844 1,-0.44098 z m 10.75,-10.54537 c 0.6875,-0.008 1.25,-0.47222 1.25,-1.0327 0,-1.20246 -5.01432,-0.21179 -6.5,1.2842 -0.67033,0.67498 -0.17582,0.80175 1.5,0.38455 1.375,-0.34232 3.0625,-0.62854 3.75,-0.63605 z M 368.14578,189.75 c 1.25509,-1.7875 2.63573,-3.4 3.0681,-3.58333 0.43237,-0.18334 0.78612,-0.76745 0.78612,-1.29804 0,-0.53059 1.60024,-3.46628 3.55609,-6.52376 5.47541,-8.55946 4.67578,-10.68519 -4.80609,-12.77645 -1.74221,-0.38425 -2.75,-1.25849 -2.75,-2.38559 0,-1.55652 0.96945,-1.77305 7.75,-1.73095 11.25878,0.0699 11.25614,0.0721 11.21728,-9.1705 -0.053,-12.60689 -1.48495,-21.13906 -3.9964,-23.81238 -1.20972,-1.28768 -3.61055,-4.47691 -5.33518,-7.08719 -3.53818,-5.35511 -6.45769,-7.20802 -5.14554,-3.26569 0.43639,1.31113 0.73803,4.18388 0.6703,6.38388 -0.0947,3.07695 -0.76204,4.51807 -2.8918,6.24503 -1.52276,1.23477 -3.10616,2.24727 -3.51866,2.25 -1.34662,0.009 -0.78815,-5.00717 0.83293,-7.48125 C 369.34423,122.8257 368.68929,119 366.4678,119 c -1.59439,0 -2.75242,1.89502 -4.81314,7.87631 -1.54086,4.47238 -5.66069,11.10552 -6.90466,11.11686 -1.60415,0.0146 -0.57138,-4.14761 3.86838,-15.59022 5.88141,-15.15814 6.32811,-17.40295 3.463,-17.40295 -1.18009,0 -3.66124,0.63327 -5.51368,1.40726 -2.55788,1.06876 -3.53921,2.21135 -4.07958,4.75 -1.09245,5.13227 -10.63396,23.76462 -12.41191,24.23757 -0.86692,0.2306 -2.78383,0.68718 -4.25982,1.01461 -1.47598,0.32744 -3.60688,1.89196 -4.73533,3.47673 l -2.05174,2.88139 2.14494,2.72685 c 2.2713,2.88749 2.70374,8.99651 0.87829,12.40741 -1.0937,2.04358 1.16017,6.09818 3.38985,6.09818 3.25602,0 13.36229,6.83515 18.15233,12.27693 4.07518,4.62965 5.28923,6.64643 7.80942,12.97307 1.83487,4.60623 3.7583,4.74888 6.74163,0.5 z M 421.96937,171 c 0,-1.33333 -0.1077,-1.33333 -0.96937,0 -0.53316,0.825 -0.96937,2.175 -0.96937,3 0,1.33333 0.1077,1.33333 0.96937,0 0.53316,-0.825 0.96937,-2.175 0.96937,-3 z M 424,166.88197 c 0,-0.55 -0.45,-0.72189 -1,-0.38197 -0.55,0.33992 -1,1.06803 -1,1.61803 0,0.55 0.45,0.72189 1,0.38197 0.55,-0.33992 1,-1.06803 1,-1.61803 z M 422.82127,157.75 c 3.1573,-5.17097 4.28246,-10.41902 2.54326,-11.86243 -2.16233,-1.79457 -3.37235,-0.0123 -4.93331,7.26634 -1.65248,7.70544 -1.66168,7.84609 -0.51278,7.84609 0.50514,0 1.81142,-1.4625 2.90283,-3.25 z m -94.6191,-1.45041 c 0.83577,-3.22531 -1.09251,-9.49575 -3.34897,-10.89032 -1.73822,-1.07427 -5.03437,3.44454 -4.26977,5.85358 1.17071,3.68859 4.65689,8.82371 5.74426,8.46125 0.59423,-0.19807 1.43775,-1.7391 1.87448,-3.42451 z m 106.75059,-0.9441 c 2.44633,-4.14622 2.07827,-7.8151 -0.52304,-5.21378 -1.44092,1.44092 -3.24901,8.85829 -2.15934,8.85829 0.29264,0 1.49971,-1.64003 2.68238,-3.64451 z M 322.63269,132.75477 c 4.40485,-8.7878 7.36627,-15.8657 7.33551,-17.53211 -0.0284,-1.53517 -0.1916,-1.51139 -1.5,0.21847 -0.80751,1.06762 -1.4682,2.68322 -1.4682,3.59023 0,0.90701 -1.34185,4.0835 -2.98188,7.05887 -1.64004,2.97537 -3.00005,6.08477 -3.02224,6.90977 -0.0222,0.825 -0.92034,2.625 -1.99588,4 -1.07554,1.375 -1.95553,2.95 -1.95553,3.5 0,1.48382 3.15187,-2.88465 5.58822,-7.74523 z m -6.23968,-0.33656 c 0.93873,-2.44628 0.7352,-2.7695 -0.89301,-1.41821 -1.66238,1.37965 -1.99022,3 -0.60699,3 0.49116,0 1.16616,-0.7118 1.5,-1.58179 z M 336.93587,130.25 c 3.47348,-1.96213 8.23179,-10.36078 6.24515,-11.02299 C 342.53146,119.01049 342,117.92269 342,116.80968 c 0,-1.47954 0.44904,-1.85135 1.67005,-1.3828 1.8248,0.70024 3.29056,-0.92572 3.31464,-3.67688 0.0125,-1.43261 -0.88081,-1.75 -4.92567,-1.75 -5.35766,0 -5.98991,0.49615 -6.76825,5.31129 -0.83044,5.13751 -2.22331,9.33283 -4.2912,12.92514 -2.35705,4.09463 0.52296,5.07151 5.9363,2.01357 z m -21.02303,-9.63461 c 1.1879,-3.23654 3.02919,-7.79301 4.09176,-10.12549 2.50099,-5.49002 3.56377,-12.020594 2.10312,-12.923322 C 321.49848,97.190041 321,96.096799 321,95.13715 c 0,-0.959649 -1.50133,-3.199963 -3.33629,-4.978475 -3.94996,-3.828451 -6.30756,-3.408087 -11.18578,1.994443 -6.76058,7.48719 -7.65817,9.456992 -6.42748,14.105412 0.61762,2.33281 2.15854,5.36647 3.42427,6.74147 1.26574,1.375 3.76252,5.3417 5.54842,8.81489 1.7859,3.47319 3.58071,5.94819 3.98848,5.5 0.40776,-0.44819 1.71331,-3.46297 2.90122,-6.6995 z M 671,80 c 1,-0.64625 1.08333,-0.974479 0.25,-0.984687 C 670.5625,79.006891 670,78.325 670,77.5 c 0,-1.72269 -1.57082,-2.003442 -2.5296,-0.452113 -0.75655,1.224125 0.11061,3.959094 1.24822,3.9368 C 669.14838,80.976265 670.175,80.533156 671,80 Z m 271.54549,131.48375 c -1.78141,-1.37018 -1.81456,-1.64325 -0.37431,-3.0835 1.44025,-1.44025 1.86251,-1.43419 4.76828,0.0684 1.75345,0.90675 3.01219,2.18474 2.7972,2.83997 -0.58451,1.7814 -4.96412,1.88804 -7.19117,0.17509 z" id="path12" style="fill:#000000" inkscape:connector-curvature="0"/>
</svg>
