<?xml version="1.0" encoding="utf-8"?>
<!-- Created with Inkscape (http://www.inkscape.org/) -->
<svg xmlns="http://www.w3.org/2000/svg" xmlns:cc="http://creativecommons.org/ns#" xmlns:dc="http://purl.org/dc/elements/1.1/" xmlns:inkscape="http://www.inkscape.org/namespaces/inkscape" xmlns:rdf="http://www.w3.org/1999/02/22-rdf-syntax-ns#" xmlns:sodipodi="http://sodipodi.sourceforge.net/DTD/sodipodi-0.dtd" xmlns:svg="http://www.w3.org/2000/svg" height="554" id="svg2" version="1.1" viewBox="0 0 1195 554" width="1195" sodipodi:docname="illustration-limerick-34.svg" inkscape:version="0.92.4 (5da689c313, 2019-01-14)">
	<metadata id="metadata8">
		<rdf:RDF>
			<cc:Work rdf:about="">
				<dc:format>image/svg+xml</dc:format>
				<dc:type rdf:resource="http://purl.org/dc/dcmitype/StillImage"/>
				<dc:title/>
			</cc:Work>
		</rdf:RDF>
	</metadata>
	<defs id="defs6"/>
	<sodipodi:namedview bordercolor="#666666" borderopacity="1" gridtolerance="10" guidetolerance="10" id="namedview4" objecttolerance="10" pagecolor="#ffffff" showgrid="false" inkscape:current-layer="svg2" inkscape:cx="603.00691" inkscape:cy="277" inkscape:pageopacity="0" inkscape:pageshadow="2" inkscape:window-height="1010" inkscape:window-maximized="1" inkscape:window-width="1920" inkscape:window-x="0" inkscape:window-y="0" inkscape:zoom="1.0272279"/>
	<path d="m 794.55664,28.107422 c -4.45564,-0.106425 -12.3282,2.047872 -14.21094,4.505859 -1.60364,2.093617 -6.90814,2.618689 -8.39258,0.830078 C 771.29446,32.649718 770.02191,32 769.125,32 c -1.92327,0 -10.85034,6.160496 -12.63672,8.720703 -1.5794,2.263584 -7.64104,17.084883 -9.92969,24.279297 -2.03901,6.409665 -4.27589,11.561664 -9.63671,22.193359 -2.13365,4.231465 -4.16725,9.486854 -4.51758,11.677735 -0.83244,5.205746 1.23369,10.028716 4.5957,10.728516 3.79488,0.7899 5.22543,1.77874 6.13672,4.24219 0.70341,1.90151 0.29792,2.56008 -2.65234,4.30078 -1.91608,1.13051 -3.48438,2.4116 -3.48438,2.84765 0,2.02227 -5.21304,1.99442 -8.07422,-0.043 -2.41379,-1.71876 -3.76521,-1.98418 -7.19922,-1.41602 -2.32514,0.3847 -4.67081,0.96496 -5.21289,1.28906 -0.54208,0.32413 -2.45458,0.46328 -4.25,0.3086 -2.42445,-0.20888 -3.26367,0.12398 -3.26367,1.29492 0,2.09946 -1.0334,1.99123 -5.92383,-0.61914 -3.61184,-1.9279 -4.29219,-2.0164 -5.57812,-0.73047 -1.168,1.168 -1.25487,2.22581 -0.42578,5.22851 0.89669,3.24756 0.72381,4.33179 -1.26563,7.89649 -1.26848,2.27287 -3.02267,4.23328 -3.89844,4.35547 -0.87577,0.12219 -3.85422,1.84759 -6.61914,3.83398 -2.76491,1.9864 -5.33014,3.61133 -5.69922,3.61133 -0.36909,0 -1.9822,0.97057 -3.58593,2.15625 l -2.91602,2.15625 -4.04687,-3.65625 c -4.46076,-4.03003 -7.35766,-4.52221 -10.84375,-1.83984 -1.97446,1.51924 -2.15715,2.15938 -1.27539,4.47851 1.16826,3.07278 0.96923,3.15677 -3.58008,1.51172 -2.97861,-1.07708 -3.54771,-0.96301 -5.82227,1.17383 -1.38624,1.3023 -2.51953,3.20322 -2.51953,4.22461 0,1.02139 -0.65256,2.10759 -1.45117,2.41406 -0.80039,0.30714 -1.75059,2.53705 -2.11524,4.96875 -0.64089,4.27377 -1.70535,5.13209 -5.64843,4.54297 -1.69167,-0.25275 -17.70489,8.28337 -22.20313,11.83594 -5.83351,4.60715 -6.96582,6.36619 -6.16015,9.57617 1.16849,4.65567 3.68453,4.84076 14.83593,1.08789 5.63365,-1.89594 14.29219,-5.31103 19.24219,-7.58789 12.5283,-5.76267 12.36722,-5.68856 18.5,-8.47266 3.025,-1.37326 7.51787,-3.63786 9.98438,-5.0332 5.13158,-2.90303 8.29323,-3.1635 12.40429,-1.01953 1.58829,0.82832 3.38829,1.42672 4,1.32812 0.6117,-0.0986 2.68633,0.10587 4.61133,0.45508 1.925,0.34921 6.65,0.9024 10.5,1.23047 3.85,0.32807 8.8,0.85453 11,1.16992 3.22719,0.46264 21.1913,0.48101 54.79688,0.0527 1.53827,-0.0196 7.83825,2.45122 14,5.49218 20.89616,10.31278 22.6888,11.00122 31.39257,12.05664 9.12827,1.10689 10.60966,0.71412 18.20899,-4.82617 3.91412,-2.85358 6.70899,-3.08528 11.75586,-0.97656 1.97451,0.825 4.79474,1.5 6.26758,1.5 3.25852,0 5.07812,1.65493 5.07812,4.61914 0,1.22058 0.65965,4.84386 1.46484,8.05078 0.80519,3.20692 1.67435,7.07067 1.9336,8.58789 0.70058,4.10014 1.57909,6.7969 3.6582,11.24219 1.02896,2.2 2.07509,5.575 2.32617,7.5 0.81559,6.25312 5.94744,23.27074 7.69922,25.53125 0.43946,0.56708 1.02728,2.29146 1.30664,3.83203 0.27936,1.54057 2.78231,7.26714 5.56055,12.72656 2.77823,5.45942 5.05078,10.3637 5.05078,10.89844 0,0.53475 1.61322,3.49343 3.58398,6.57422 1.97076,3.08079 3.7624,7.02714 3.98243,8.76953 0.38562,3.05374 1.63197,6.97229 3.55078,11.16797 1.19172,2.60584 4.85516,14.97502 5.82422,19.66211 0.41651,2.01455 1.72558,5.3042 2.9082,7.30859 1.18262,2.00439 2.1523,4.40488 2.1543,5.33594 0.002,0.93106 0.81372,3.04336 1.80273,4.69336 0.989,1.65 2.39979,4.575 3.13672,6.5 2.33337,6.0952 9.95135,20.98638 13.00976,25.43164 1.61987,2.35437 4.04305,6.763 5.38477,9.79688 1.34173,3.03388 2.94018,5.82453 3.55273,6.20312 0.61257,0.37858 2.43598,3.35468 4.05274,6.61328 l 2.93945,5.92578 -5.49804,8.76368 c -3.02403,4.82073 -5.92253,9.19234 -6.44141,9.71484 -0.51889,0.5225 -0.94336,1.5237 -0.94336,2.22461 0,0.70091 -2.1375,5.66601 -4.75,11.0332 -4.56674,9.38204 -5.45412,10.46218 -23,28.00391 -15.14383,15.14025 -18.25,18.73271 -18.25,21.10156 0,1.57011 0.29935,3.15482 0.66602,3.52148 1.23519,1.23519 8.26162,0.67924 12.56445,-0.99414 2.34863,-0.91339 7.95815,-4.06339 12.4668,-7 4.50865,-2.93662 8.48719,-5.33984 8.84179,-5.33984 0.3546,0 1.75031,0.86833 3.09961,1.92969 1.83038,1.43977 3.39235,1.78592 6.15625,1.36328 8.45151,-1.29236 10.56275,-4.2349 14.20117,-19.79297 2.76887,-11.83984 12.58673,-31.94024 18.47852,-37.83203 C 960.70825,415.4344 972,399.03576 972,397.12109 c 0,-0.64418 1.23014,-1.63902 2.73438,-2.21093 1.50423,-0.57191 4.09175,-1.64663 5.75,-2.38868 1.65826,-0.74204 4.81562,-1.89988 7.01562,-2.57226 6.5086,-1.98919 21.5,-11.04532 21.5,-12.98828 0,-0.35979 3.1249,-2.6348 6.9453,-5.05664 5.2192,-3.30851 6.8195,-4.83942 6.4336,-6.1543 -0.3412,-1.16247 0.035,-1.75 1.1211,-1.75 1.1587,0 1.4566,-0.56082 1.0234,-1.92578 -0.3515,-1.10721 -0.053,-2.27612 0.7032,-2.75 0.7232,-0.45332 1.9085,-2.16994 2.6328,-3.81445 1.247,-2.83153 1.3882,-2.89134 2.6855,-1.11719 1.9461,2.66144 6.5847,1.50175 10.6778,-2.67188 5.2877,-5.39163 8.0043,-6.75841 10.2168,-5.14062 1.4774,1.08032 6.3308,1.25254 23.957,0.85547 12.1572,-0.27387 23.8389,-0.96346 25.959,-1.53321 2.1202,-0.56973 4.515,-0.7824 5.3222,-0.47265 0.8072,0.30975 2.3488,0.092 3.4258,-0.48438 3.5435,-1.89645 20.0592,0.60302 26.9434,4.07813 3.2737,1.65257 5.9531,3.33905 5.9531,3.74609 0,0.40704 2.2686,2.98683 5.041,5.73438 5.1804,5.1338 6.5732,7.46787 7.459,12.49609 0.8085,4.58892 2.0863,7.29358 4.8418,10.25 2.2706,2.43621 2.8546,2.61805 5.1113,1.58984 2.617,-1.19239 2.8245,-1.98318 2.9805,-11.33984 0.037,-2.2 -0.7698,-7.15 -1.793,-11 -4.0299,-15.16416 -4.708,-19.2254 -4.5801,-27.45508 0.1384,-8.90367 -0.7413,-12.7062 -3.4628,-14.96484 -2.2019,-1.82743 -8.7082,0.0396 -18.5977,5.33594 l -7.5,4.01757 -12,-0.0351 c -11.7289,-0.0342 -15.7786,-0.38246 -28,-2.40821 -14.091,-2.33564 -13.974,-2.2924 -14.3223,-5.31835 -0.4149,-3.60476 -6.7618,-6.5855 -12.5429,-5.89063 -2.1257,0.25551 -4.1507,0.0256 -4.5,-0.50977 -0.3492,-0.53534 -2.6598,-2.23145 -5.1348,-3.76953 -2.475,-1.53808 -5.5669,-3.84889 -6.8711,-5.13476 -1.3042,-1.28586 -4.5948,-4.03078 -7.3125,-6.10157 -4.5389,-3.45848 -19.4852,-21.65197 -26.418,-32.1582 -8.4821,-12.85387 -9.9638,-15.59931 -14.0918,-26.10742 -3.98145,-10.13507 -4.12572,-10.89969 -4.13472,-22 -0.0103,-12.12516 -0.44737,-14.02206 -5.99805,-26 -3.67361,-7.92734 -9.45815,-15.77714 -15.30274,-20.76562 -6.99933,-5.97409 -9.69122,-7.61579 -19.37109,-11.81641 -3.00227,-1.30284 -14.56267,-3.65377 -16.1543,-3.28516 -0.46472,0.10763 -1.9707,-0.0923 -3.3457,-0.44336 -1.375,-0.35111 -5.65,-0.88912 -9.5,-1.19531 -15.82,-1.2582 -19.07338,-1.80266 -27.6875,-4.64062 -3.47232,-1.14397 -8.5625,-2.44368 -11.3125,-2.88868 -2.75,-0.44499 -7.025,-1.29744 -9.5,-1.89453 -2.475,-0.5971 -5.45941,-1.30342 -6.63281,-1.56836 -1.1734,-0.26494 -5.34323,-2.96157 -9.26563,-5.99218 C 859.17916,134.47911 855.6877,132 855.34375,132 c -0.34395,0 -2.47415,-0.86746 -4.73437,-1.92773 -2.26026,-1.06027 -6.60274,-3.09254 -9.6504,-4.51563 -4.00477,-1.87 -7.88664,-2.74479 -14,-3.15625 -12.43103,-0.83668 -21.01215,-3.67599 -26.46679,-8.75586 -5.01226,-4.66789 -5.23144,-5.75495 -3.50586,-17.453124 0.54288,-3.680354 1.14616,-12.651577 1.33984,-19.935547 C 798.70643,61.954963 798.3503,62.993692 805.61523,55 809.50055,50.724944 810.83559,45.591625 808.6875,43.183594 807.86186,42.258033 806.70472,39.7 806.11719,37.5 804.61578,31.877971 802.25197,28.785253 800,29.5 c -1.00696,0.319596 -2.12086,0.113389 -2.47461,-0.458984 -0.37721,-0.610336 -1.48353,-0.898119 -2.96875,-0.933594 z M 795.83789,32 c 2.76449,0 3.13763,0.374572 3.73438,3.75 0.40654,2.299552 2.02337,5.173395 4.17968,7.429688 2.30053,2.407204 3.29889,4.243535 2.88867,5.3125 C 805.92221,50.364379 804,49.599719 804,47.441406 c 0,-1.797049 -0.96304,-1.784367 -3.37891,0.04492 -1.23484,0.935038 -1.68598,2.154789 -1.31836,3.560547 0.39078,1.494356 -0.70175,3.91041 -3.62304,8.019531 -3.9,5.485775 -5.93218,6.989622 -7.00781,5.183594 -0.82152,-1.379348 -0.0601,-4.706741 2.23242,-9.75 2.97691,-6.548779 3.83542,-11.519793 1.97656,-11.445312 -1.97363,0.07908 -5.66886,5.092915 -7.42774,10.078124 -1.66835,4.728607 -4.25733,8.107022 -5.58398,7.28711 -0.47448,-0.293243 -0.26821,-1.745276 0.45703,-3.226563 C 781.05141,55.712074 782.25453,52.475 783,50 c 0.74547,-2.475 2.01323,-5.278286 2.81641,-6.230469 1.20295,-1.426125 1.23135,-2.006968 0.16406,-3.292969 -2.10526,-2.536682 0.30649,-4.196734 3.56445,-2.453124 3.07656,1.646523 4.43546,0.32477 3.6875,-3.587891 C 792.82087,32.282653 793.12284,32 795.83789,32 Z m -24.29297,24.380859 c 0.10253,-0.0083 0.18059,0.01066 0.23047,0.06055 0.39902,0.399098 0.64372,6.875989 0.54492,14.392578 -0.23233,17.669016 -0.18082,17.127819 -1.87109,19.541016 -2.31233,3.301312 -1.84736,4.750281 1.30078,4.054688 2.81702,-0.622433 9.25,-6.833961 9.25,-8.931641 0,-0.642451 1.2375,-2.325699 2.75,-3.742188 1.5125,-1.41649 4.09547,-4.191591 5.74023,-6.166015 C 791.13498,73.615416 792.82248,72 793.24023,72 c 1.08912,0 0.95317,6.709421 -0.41992,20.648438 -1.41725,14.387352 -0.623,18.350482 4.90625,24.470702 3.68901,4.08329 8.0592,6.50677 14.27344,7.91602 1.925,0.43654 4.625,1.05507 6,1.375 1.375,0.31993 4.075,0.86462 6,1.21093 6.60085,1.18747 18.50199,5.55142 23.08789,8.46485 2.52315,1.60296 5.0327,2.91406 5.57617,2.91406 0.54348,0 2.04419,1.125 3.33594,2.5 1.29175,1.375 2.99377,2.5 3.78125,2.5 0.78748,0 3.07007,1.29256 5.07422,2.87305 3.33851,2.63279 6.70119,3.87139 12.47265,4.59179 1.88733,0.23557 6.00817,1.74681 19.17188,7.03125 7.46524,2.99684 9.27637,3.52526 13.5,3.94336 2.475,0.245 4.5,0.51891 4.5,0.60743 0,0.0885 2.475,0.3312 5.5,0.53906 3.025,0.20785 7.975,0.6869 11,1.06445 3.025,0.37755 6.21501,0.59453 7.08984,0.48242 0.87483,-0.11211 2.89983,0.30974 4.5,0.93946 1.60017,0.62972 4.48516,1.37057 6.41016,1.64453 1.925,0.27397 5.27169,1.34959 7.4375,2.39062 2.16581,1.04104 4.67669,1.89258 5.58008,1.89258 2.47547,0 15.43775,11.81271 19.20312,17.5 3.93537,5.94405 5.17227,8.57009 6.7168,14.27344 1.20934,4.46562 1.78137,34.5242 0.75586,39.72656 -0.32525,1.65 -0.88037,7.49561 -1.23242,12.99023 -0.35205,5.49462 -0.83828,10.30993 -1.08008,10.70118 -0.24181,0.39125 -0.44673,5.98609 -0.45703,12.43359 -0.0168,10.47442 0.19768,11.93986 2.01758,13.75977 1.29456,1.29455 2.37923,1.68704 2.97656,1.07617 0.51688,-0.52861 1.16305,-6.36094 1.4375,-12.96094 0.57313,-13.78294 0.42944,-12.5 1.41601,-12.5 0.86287,0 3.85844,5.72472 7.32622,14 1.2676,3.025 2.7957,6.175 3.3964,7 0.6006,0.825 1.7477,2.83134 2.5489,4.45898 0.8013,1.62764 3.707,5.98674 6.457,9.6875 2.75,3.70076 6.575,9.33843 8.5,12.52735 3.5839,5.93708 12.1473,15.32617 13.9785,15.32617 1.9847,0 0.9839,-3.83257 -1.9961,-7.64258 C 1010.9876,294.95782 995,264.20086 995,249.36133 995,246.41281 995.40418,244 995.89844,244 c 0.49426,0 2.35251,2.8125 4.12886,6.25 6.6452,12.85873 12.3006,21.81926 21.3028,33.75 6.3784,8.45327 26.5051,28.47725 34.1699,33.99609 3.3,2.37607 6.123,4.41032 6.2734,4.51953 1.1462,0.83211 -2.391,4.58172 -10.8379,11.48829 -5.4337,4.4429 -11.5808,9.6814 -13.6582,11.64062 -2.0773,1.95921 -5.127,4.26057 -6.7773,5.11328 -3.5853,1.85249 -5.6089,4.27523 -5.0039,5.99219 0.2516,0.71409 -0.369,1.25 -1.4473,1.25 -1.0382,0 -4.5117,2.24664 -7.7187,4.99219 -3.6939,3.16235 -7.1129,5.19919 -9.3301,5.55664 -4.7684,0.76875 -15.95115,5.15244 -18.98828,7.44336 -3.24855,2.45039 -1.81413,3.77573 2.27734,2.10547 13.20634,-5.39119 16.50464,-5.32259 9.28321,0.1914 -2.70965,2.06897 -6.08487,4.00318 -7.5,4.29883 -4.31669,0.90184 -14.92408,4.45281 -17.83008,5.96875 -1.50846,0.78689 -3.48754,1.4345 -4.39844,1.4375 -0.9109,0.003 -6.9859,1.79833 -13.5,3.99024 -6.5141,2.19189 -12.35428,3.99199 -12.97852,4 -1.39661,0.0181 -3.01482,-2.41504 -8.89843,-13.38672 -2.52507,-4.70871 -6.0259,-10.94585 -7.7793,-13.86133 -9.15334,-15.21968 -19.19844,-39.77944 -28.32031,-69.23633 -3.55514,-11.48047 -6.75296,-19.07597 -14.94531,-35.5 -3.97798,-7.975 -8.15327,-17.425 -9.2793,-21 -3.28641,-10.43393 -6.84269,-23.0677 -8.16211,-29 -0.67279,-3.025 -1.81668,-7.75 -2.54102,-10.5 -0.72433,-2.75 -2.09265,-8.15 -3.04101,-12 -0.94836,-3.85 -2.11501,-7.78573 -2.59375,-8.74609 -0.65046,-1.30481 0.34704,-3.57937 3.94922,-9 C 867.9894,166.37062 869,163.91263 869,158.12695 c 0,-3.70208 -0.52141,-5.26864 -2.31445,-6.95312 -1.27295,-1.19587 -2.73545,-2.14779 -3.25,-2.11719 -0.51455,0.0306 -3.28308,4.98062 -6.15235,11 C 853.92778,167.09589 851.50823,171 850.50195,171 c -2.81712,0 -2.68582,-2.69154 0.43164,-8.86719 3.52013,-6.97335 3.81596,-9.13281 1.25196,-9.13281 -1.11532,0 -2.49859,1.44535 -3.58789,3.75 -5.13036,10.85435 -11.68059,18.05071 -23.39258,25.69922 -5.56105,3.63164 -7.93818,4.64187 -10,4.25 -13.2968,-2.52719 -31.1702,-10.82338 -46.70508,-21.67969 -1.65,-1.15308 -6.48255,-4.21724 -10.73828,-6.80859 -6.53864,-3.98142 -17.70024,-10.83045 -27.67188,-16.98047 l -2.41015,-1.48633 3.79101,-2.28711 3.79102,-2.28906 14.13281,4.86328 c 9.36832,3.22324 19.08449,7.55368 28.81836,12.8457 C 792.39141,160.58538 804,168.2242 804,169.8457 c 0,0.43079 1.59001,1.54211 3.5332,2.46875 3.0912,1.4741 3.94371,1.51312 6.8125,0.31446 4.30455,-1.79855 16.5451,-16.83011 20.05664,-24.62891 0.37147,-0.825 1.32773,-2.625 2.12305,-4 1.8099,-3.12906 1.90061,-7 0.16406,-7 -0.72129,0 -2.18379,0.89603 -3.25,1.99023 -1.06621,1.09421 -3.03767,3.10304 -4.38086,4.46485 C 826.52221,146.0266 814.9559,152 812.51367,152 c -0.76785,0 -1.64934,0.40915 -1.95898,0.91016 -1.35664,2.19509 -4.0614,0.33039 -4.35157,-3 -0.16344,-1.8758 -0.95092,-4.82743 -1.75,-6.56055 C 803.65406,141.61649 803,139.69753 803,139.08594 c 0,-2.21924 -9.87884,-10.87303 -14.36914,-12.58789 -4.87606,-1.86219 -6.99973,-1.80897 -22.88086,0.58398 -6.83525,1.02993 -9.01379,1.05457 -9.95703,0.11133 -1.57597,-1.57597 -0.10784,-2.95938 7.47461,-7.04102 3.17196,-1.70746 7.43921,-4.2405 9.48242,-5.6289 2.04322,-1.3884 4.12573,-2.52344 4.62891,-2.52344 0.50318,0 2.88052,-1.61127 5.2832,-3.58008 C 787.00071,104.86476 790,100.45229 790,97.623047 790,94.164184 781.51269,95.450925 774.3457,99.996094 771.74021,101.64845 769.02249,103 768.30664,103 c -2.064,0 -14.58442,6.07813 -16.98242,8.24414 -1.19679,1.081 -2.64253,1.67671 -3.21289,1.32422 -1.6015,-0.98979 -3.08015,-7.4723 -2.4375,-10.68555 0.91726,-4.586329 -2.26581,-3.765101 -3.36133,0.86719 -0.65229,2.75817 -1.40618,3.75 -2.84961,3.75 -3.21936,0 -3.07049,-5.39822 0.32422,-11.759766 1.59517,-2.989273 3.14933,-6.385197 3.45312,-7.546875 l 0.55079,-2.113281 4.05664,1.960938 c 5.88194,2.841848 7.71598,2.486229 13.74218,-2.66211 5.55023,-4.74171 6.68965,-7.563338 3.72461,-9.222656 -1.57994,-0.884176 -1.57994,-1.102386 0,-3.513672 C 766.91048,69.206733 767.58444,66 766.5,66 c -0.275,0 -1.2875,0.683124 -2.25,1.517578 -5.80659,5.034118 -8.98514,7.288268 -10.75,7.625 -1.24094,0.23677 -2.42843,1.705055 -3.12891,3.869141 -0.62092,1.9183 -1.84933,3.632775 -2.73047,3.808593 -1.39984,0.27932 -1.44334,-0.03625 -0.33593,-2.5 C 749.52468,75.381304 754.4617,68.06398 755.5957,68.03125 756.19796,68.013866 757.50451,67.1 758.5,66 c 0.99549,-1.1 2.36206,-2 3.03711,-2 0.67505,0 3.09096,-1.864392 5.36914,-4.142578 1.99342,-1.993413 3.92095,-3.418505 4.63867,-3.476563 z m 5.56641,18.121094 c 0.54949,-0.01865 1.49841,0.781181 2.26758,1.955078 0.87905,1.341596 1.20247,2.683463 0.71875,2.982422 -0.48373,0.298958 -1.59752,-0.554887 -2.47657,-1.896484 -0.87905,-1.341596 -1.20247,-2.683463 -0.71875,-2.982422 0.0605,-0.03737 0.13049,-0.05593 0.20899,-0.05859 z m 7.29883,25.203125 c 0.26685,-0.02802 0.48849,-0.02792 0.66015,0.002 0.18311,0.03187 0.30948,0.09832 0.37305,0.201172 0.27231,0.440617 -0.50406,1.734967 -1.72461,2.876957 C 780.88204,105.43928 766.78569,115 765.70898,115 c -0.44853,0 -4.95337,2.38656 -10.01171,5.30273 -14.13032,8.14622 -36.62981,18.93637 -38.21485,18.32813 -0.78033,-0.29944 -1.68469,-0.11387 -2.00976,0.41211 -0.86162,1.39412 -4.71227,1.17781 -4.24024,-0.23828 0.21917,-0.65751 1.49287,-1.49436 2.83203,-1.85938 4.78494,-1.30426 32.82769,-16.95675 43.93555,-24.52343 8.23239,-5.60794 22.40734,-12.29652 26.41016,-12.716802 z M 716.38281,126 c 0.825,0 1.77727,0.45 2.11719,1 0.33992,0.55 -0.0578,1 -0.88281,1 -0.825,0 -1.77727,-0.45 -2.11719,-1 -0.33992,-0.55 0.0578,-1 0.88281,-1 z m -10.94922,0.69727 c 1.2019,-0.0494 4.67894,1.44481 7.57422,3.38085 1.29768,0.86773 1.91171,1.85367 1.36524,2.19141 C 713.23123,132.97521 705,128.34082 705,126.99219 c 0,-0.18927 0.15623,-0.28353 0.43359,-0.29492 z m 45.82422,1.04296 c 0.84804,0.10386 1.78536,0.70577 3.53711,1.89454 3.86161,2.62056 5.54041,2.64119 16.5293,0.20117 6.59886,-1.46523 14.20631,-0.61075 20.13867,2.26172 5.30802,2.57018 9.81895,8.01452 9.33008,11.26172 -0.26165,1.73797 -1.22835,1.95926 -9.29297,2.12304 -4.95,0.10053 -10.125,0.46718 -11.5,0.81446 -2.53146,0.63931 -8.30469,-1.02238 -13.1543,-3.78516 C 765.38584,141.68006 763.62848,141 762.94141,141 c -0.68707,0 -3.54264,-1.08506 -6.34571,-2.41016 -2.80307,-1.3251 -6.69948,-2.70916 -8.66015,-3.07617 -1.96067,-0.36701 -4.21067,-1.09142 -5,-1.60937 -1.5444,-1.01344 -1.21078,-1.33054 5.31445,-5.07032 1.40058,-0.8027 2.15978,-1.1976 3.00781,-1.09375 z m -48.11719,4.42579 c 0.63099,-0.0477 1.38747,0.20999 2.56836,0.74804 l 2.78516,1.26758 -2.35742,1.91016 c -1.29664,1.04995 -2.99797,1.9082 -3.7793,1.9082 -2.18052,0 -2.82306,-2.96405 -1.03125,-4.75586 0.67867,-0.67866 1.18348,-1.03041 1.81445,-1.07812 z m 19.43946,9.70507 6.21094,4.14844 c 3.41543,2.28074 6.20898,4.31199 6.20898,4.51563 0,0.90507 -8.48666,2.57561 -20,3.93554 -26.58729,3.14041 -29.29693,2.75805 -19.3457,-2.73047 1.73486,-0.95685 4.08284,-1.74023 5.21875,-1.74023 1.13591,0 3.5676,-0.84254 5.40234,-1.87305 1.83475,-1.03051 6.25376,-2.85973 9.82031,-4.06445 z m -26.53125,1.03516 c 0.75103,0.0815 0.95117,0.82751 0.95117,2.19336 0,1.17258 -2.26647,2.92123 -6.75,5.20898 -3.7125,1.89433 -8.325,4.37299 -10.25,5.50977 -8.74608,5.16484 -23.43267,12.9987 -33.5,17.86719 -6.05,2.92574 -14.50473,7.11768 -18.78906,9.3164 -8.08567,4.14957 -9.71094,4.6588 -9.71094,3.03907 0,-2.07071 5.57745,-5.9246 15.80273,-10.91797 34.31825,-16.7588 43.5573,-21.58028 55.86719,-29.1543 3.53676,-2.17609 5.4133,-3.16734 6.37891,-3.0625 z m 99.71094,5.42578 c 1.58197,-0.0197 2.90861,0.0477 3.65234,0.23438 1.96112,0.4922 2.6649,1.56746 3.46094,5.27929 0.54962,2.5628 1.30104,5.44498 1.66992,6.40625 0.36887,0.96127 0.28579,1.7343 -0.18555,1.7168 -1.84658,-0.0685 -21.34246,-11.1842 -20.89258,-11.91211 0.50393,-0.81537 7.54901,-1.66565 12.29493,-1.72461 z m 29.02539,3.81055 c 1.08719,0.15174 -0.83252,2.71202 -5.87305,8.21289 -3.34873,3.65454 -6.38623,6.64172 -6.75,6.63672 -0.36378,-0.005 -1.65436,-1.83648 -2.86719,-4.07031 l -2.20508,-4.06055 3.42383,-1.43164 C 812.39633,156.64306 814.51911,156 815.23242,156 c 0.71331,0 2.97694,-0.9 5.0293,-2 2.11862,-1.13551 3.54438,-1.77451 4.26562,-1.85547 0.0992,-0.0111 0.18534,-0.0121 0.25782,-0.002 z m -84.82032,1.5 5.26758,3.56445 c 2.89739,1.96068 6.28008,4.08292 7.51758,4.71485 4.36909,2.23097 2.91389,2.99201 -8.75,4.57812 -1.375,0.18698 -4.47286,0.65132 -6.88477,1.03125 -4.52931,0.71347 -20.94954,1.16543 -27.11523,0.74609 -7.23834,-0.49229 -20.10877,-2.6448 -20.60352,-3.44531 C 689.11371,164.37449 687.36008,164 685.5,164 c -1.86008,0 -3.64589,-0.42681 -3.96875,-0.94922 -1.35114,-2.18619 4.01274,-3.08371 18.18555,-3.04101 10.37041,0.0312 16.20554,-0.39887 19.54687,-1.43946 2.61976,-0.81587 4.99131,-1.46561 5.26953,-1.44531 0.27821,0.0203 3.86412,-0.75499 7.96875,-1.72266 z m -82.25976,2.72656 c 0.28762,0.029 0.55301,0.23944 0.79492,0.63086 0.39915,0.64585 0.27656,1.62383 -0.27344,2.17383 -0.66667,0.66667 -1.24274,0.60901 -1.72656,-0.17383 -0.39915,-0.64585 -0.27656,-1.62383 0.27344,-2.17383 0.33333,-0.33333 0.64401,-0.48607 0.93164,-0.45703 z m -7.94922,3.65234 c 0.12183,-0.005 0.23773,-0.001 0.34766,0.0117 0.52764,0.063 0.89648,0.33711 0.89648,0.84961 0,0.48589 -1.12801,1.09952 -2.50781,1.36328 -2.03058,0.38817 -2.29449,0.2204 -1.37891,-0.88281 0.69107,-0.83267 1.78979,-1.3066 2.64258,-1.3418 z m 195.44922,14.0625 c 1.07403,0.0262 2.1067,0.60311 3.12695,1.73047 1.2661,1.39903 1.3702,2.08488 0.45508,3 -1.18357,1.18357 -3.72361,1.36201 -7.03711,0.4961 -2.23474,-0.58398 -2.2138,-1.58206 0.0781,-3.65625 1.18624,-1.07353 2.30293,-1.59652 3.37696,-1.57032 z m -229.82617,12.30469 c 0.36444,0.0123 0.62109,0.40964 0.62109,1.05274 0,1.75653 -0.5998,2.01399 -1.45703,0.62695 -0.31644,-0.512 -0.11758,-1.21313 0.44141,-1.55859 0.13973,-0.0864 0.27305,-0.12519 0.39453,-0.1211 z m -209.90235,74.24414 c -0.82956,0.0199 -1.99049,0.39412 -3.99414,1.13672 C 399.01687,262.68333 397,263.78347 397,264.21484 397,264.6462 396.50477,265 395.90039,265 c -2.47665,0 -9.184,3.35196 -15.00977,7.5 -4.01204,2.85664 -4.69664,3 -14.30273,3 -5.54848,0 -13.01289,-0.39117 -16.58789,-0.86914 -3.575,-0.47798 -7.5125,-0.8436 -8.75,-0.8125 -5.27856,0.13265 -7.25,0.48421 -7.25,1.29102 0,0.47232 -5.2875,0.81527 -11.75,0.76367 -6.4625,-0.0516 -12.425,0.14417 -13.25,0.43359 -0.825,0.28942 -2.175,0.52916 -3,0.53516 -3.65174,0.0255 -9.58606,1.50647 -10.5,2.61914 C 292.90504,282.62016 272.79552,289 265.43359,289 c -1.39565,0 -4.20236,0.86108 -6.23632,1.91406 -2.03397,1.05297 -6.3426,3.19047 -9.57618,4.75 -12.86883,6.20651 -17.19448,8.63106 -20.37304,11.42188 -1.82497,1.60235 -3.72826,2.91406 -4.23047,2.91406 -1.80478,0 -19.21639,18.57879 -23.40235,24.9707 -7.50561,11.461 -12.96896,25.92429 -14.17968,37.54297 -0.17271,1.65734 -0.79154,6.81944 -1.375,11.47266 -1.37905,10.99796 -1.3629,32.77188 0.0273,37.11523 1.55334,4.85276 1.84317,5.82506 1.97656,6.65821 0.0651,0.40672 0.79179,2.31523 1.61524,4.24023 2.79148,6.52572 4.3214,14.07276 4.3164,21.29883 -0.004,5.76043 -0.70386,9.07516 -3.49414,16.56836 -2.67596,7.18617 -3.34739,10.24894 -2.88281,13.15429 0.50882,3.18195 0.26907,3.96806 -1.50586,4.91797 -1.55667,0.83314 -2.66172,0.83831 -4.19531,0.0176 -1.14468,-0.61262 -4.37888,-1.19095 -7.1875,-1.28515 -4.77566,-0.16024 -5.15747,-0.36629 -5.89649,-3.17188 -0.7546,-2.86478 -5.36279,-6.5 -8.24023,-6.5 -0.68455,0 -2.28235,-1.1049 -3.55078,-2.45508 -1.86748,-1.98784 -2.33018,-3.65248 -2.42578,-8.75 -0.10437,-5.56381 -0.34677,-6.29492 -2.09375,-6.29492 -3.00657,0 -4.84147,9.12436 -3.03906,15.11328 1.4793,4.91536 0.2569,5.96646 -2.89258,2.48633 -2.06077,-2.27712 -2.26463,-6.06174 -0.64453,-11.97656 1.5138,-5.52672 0.10523,-7.62087 -3.02149,-4.49414 -2.37003,2.37003 -4.62473,13.45297 -3.58203,17.60742 1.69921,6.77018 14.48349,13.67868 29.15625,15.75586 3.85,0.54503 8.575,1.2444 10.5,1.55469 1.925,0.31026 6.40544,-0.0392 9.95703,-0.77735 5.81467,-1.2085 6.79677,-1.16989 9.86914,0.39649 1.8766,0.95675 4.14615,2.40259 5.04297,3.21289 0.89682,0.81029 3.88086,2.36106 6.63086,3.44531 6.05339,2.38668 11.46169,2.55787 21.91406,0.69531 4.35293,-0.77567 8.17793,-1.35326 8.5,-1.28515 2.43626,0.51542 25.61484,-1.66144 29.67774,-2.78711 4.50919,-1.24932 5.55938,-1.22749 9.1914,0.19921 2.25555,0.886 4.8035,1.34241 5.66016,1.01368 1.96091,-0.75247 2.04704,-5.5353 0.11328,-6.27735 -1.86983,-0.71752 -5.06759,-6.90226 -5.91016,-11.42969 -0.5325,-2.86131 -0.17721,-4.20143 1.84571,-6.94335 1.37889,-1.86898 2.50781,-3.92925 2.50781,-4.57813 0,-0.64887 1.11394,-3.17097 2.47461,-5.60547 6.2402,-11.16494 7.72165,-23.53731 3.61523,-30.18164 -1.22677,-1.98495 -1.98837,-4.0019 -1.6914,-4.48242 1.93404,-3.12933 3.59373,-20.32722 3.64844,-37.81836 0.0458,-14.64563 0.35826,-19.37564 1.25781,-19.07617 0.65789,0.21902 1.32386,1.485 1.48047,2.81445 0.53898,4.57538 1.18687,19.43245 1.20117,27.55078 0.0129,7.30898 0.2186,8.18809 2.03125,8.66211 2.90704,0.76021 6.07389,-3.93951 10.30664,-15.29492 15.76582,-42.29574 19.63593,-49.01985 31.11523,-54.05469 11.33819,-4.97295 23.34736,-11.19178 28.06055,-14.52929 2.75,-1.94733 7.1375,-4.64396 9.75,-5.99414 4.69208,-2.42499 6.22754,-5.38958 3.625,-6.99805 -0.73285,-0.45292 -0.0458,-1.78126 1.97266,-3.81055 7.35975,-7.39914 13.95681,-15.29045 14.64257,-17.51562 0.40717,-1.32123 1.9398,-4.47123 3.4043,-7 2.35871,-4.07281 4.2261,-8.187 7.21485,-15.89454 1.35397,-3.49173 1.06617,-7.88499 -0.62696,-9.57812 -0.67812,-0.67812 -1.1763,-1.01213 -2.00586,-0.99219 z M 398.90625,271 c 0.49851,0 0.67047,0.9 0.38281,2 -0.28766,1.1 -0.96702,2 -1.51172,2 -0.5447,0 -0.7186,-0.71204 -0.38476,-1.58203 0.33385,-0.86998 0.60742,-1.76998 0.60742,-2 C 398,271.18796 398.40774,271 398.90625,271 Z m -7.60547,4.50195 c 0.4732,0.0311 0.83886,0.19927 1.17774,0.48047 1.07533,0.89244 1.21129,1.72759 0.5,3.05664 -0.53845,1.00609 -1.00095,3.99587 -1.02735,6.64453 -0.08,8.02549 -7.42951,19.00263 -21.29883,31.80664 -11.36962,10.49631 -12.60628,11.27475 -24.65234,15.51758 -12.53979,4.41674 -18.84886,8.74936 -27.50195,18.88672 -4.24764,4.97624 -7.47161,13.0754 -8.99805,22.60547 -1.00105,6.24988 -7.55911,26.5 -8.58203,26.5 -0.50494,0 -0.97472,-1.6875 -1.04492,-3.75 -0.0702,-2.0625 -0.40772,-12.075 -0.75,-22.25 -0.59905,-17.80738 -0.70119,-18.51185 -2.72461,-18.80078 -1.33841,-0.19112 -2.67713,0.57721 -3.6836,2.11328 -1.59477,2.43393 -4.84799,12.91083 -4.87109,15.6875 -0.14625,17.58991 -4.14893,55.45279 -5.98242,56.58594 -0.47342,0.29259 -0.86133,1.18583 -0.86133,1.98437 0,0.79853 -0.8819,3.3599 -1.95898,5.69141 -1.07707,2.3315 -2.69298,6.48828 -3.5918,9.23828 -2.01867,6.1763 -9.59754,20.33495 -13.13672,24.54102 -3.9333,4.67446 -18.50387,16.57322 -21.33594,17.42382 -1.36194,0.40906 -4.50156,1.86367 -6.97656,3.23243 -5.79063,3.20241 -17.90371,4.08399 -22.43359,1.63281 -2.71853,-1.47104 -2.80468,-1.68227 -1.16016,-2.88477 1.16983,-0.85541 1.55697,-1.98255 1.13672,-3.30664 -0.75014,-2.36348 -3.13108,-3.09932 -6.34961,-1.96094 -2.86679,1.01397 -7.79014,-1.33007 -8.67969,-4.13281 -0.93112,-2.93369 0.99217,-11.87592 4.00195,-18.61328 2.33723,-5.23181 2.57303,-6.72856 2.00586,-12.68555 -0.35363,-3.71414 -1.28803,-7.98914 -2.07617,-9.5 -0.78815,-1.51087 -1.43645,-3.44437 -1.43945,-4.29687 -0.003,-0.8525 -0.56836,-2.14625 -1.25586,-2.875 -1,-1.06 -1,-1.41654 0,-1.7832 1.82098,-0.6677 1.53491,-4.4558 -0.81055,-10.72461 -2.79076,-7.45897 -3.11718,-9.55302 -3.20898,-20.56641 -0.0922,-11.05711 0.82014,-19.66947 2.75586,-26 0.7568,-2.475 1.67053,-6.40952 2.03125,-8.74414 0.36072,-2.33462 1.06817,-4.50021 1.57031,-4.81055 0.50215,-0.31034 0.91211,-1.64197 0.91211,-2.96093 0,-3.29794 8.32842,-18.89049 13.36328,-25.01758 4.30673,-5.241 13.60808,-14.07896 19.64258,-18.66602 C 238.01497,311.7533 253.55831,303 254.96094,303 c 0.51333,0 4.21969,-1.55462 8.23633,-3.45508 12.3993,-5.86671 21.09821,-7.6384 30.0625,-6.12109 5.12734,0.86785 8.88987,-0.67458 6.7832,-2.78125 -2.69533,-2.69533 0.0312,-6.38353 5.75,-7.77539 2.03844,-0.49612 7.90076,-1.11905 13.02539,-1.38477 8.85008,-0.4589 9.28543,-0.38711 8.70508,1.44141 -0.46142,1.45383 -0.0748,2.00437 1.58008,2.25 1.20526,0.17889 2.67228,1.0939 3.25976,2.03125 1.71235,2.73207 -0.80152,12.51214 -4.35156,16.92969 -1.65678,2.06164 -3.01458,4.33689 -3.01758,5.05664 -0.009,2.36532 -4.74434,7.40639 -5.89844,6.27929 -0.57928,-0.56572 -3.11763,-5.26937 -5.64062,-10.45312 -4.14813,-8.52281 -4.52372,-9.8835 -3.92774,-14.2168 0.54146,-3.93693 0.36221,-4.90621 -1.00195,-5.42969 -2.33563,-0.89626 -3.59502,0.73501 -4.23047,5.47266 -0.6382,4.75814 2.90891,16.84807 6.79492,23.15625 3.80114,6.17043 3.59902,9 -0.64257,9 -3.33328,0 -2.75126,2.30902 0.75585,3 1.39578,0.275 3.66539,1.85 5.04493,3.5 2.47013,2.95439 2.75195,3.51628 2.75195,5.5 0,0.55 0.675,1 1.5,1 1.64608,0 2.07405,-3.5264 0.54297,-4.47266 -1.32455,-0.81862 -0.42934,-2.80635 5.41797,-12.02734 2.79018,-4.4 5.58391,-9.125 6.20703,-10.5 4.81,-10.6138 5.33203,-12.36432 5.33203,-17.86719 0,-4.01423 -0.47743,-6.28415 -1.5,-7.13281 -2.42026,-2.00864 -1.77875,-2.73017 3.06836,-3.45703 7.56426,-1.13433 14.52886,-0.73853 22.33008,1.27148 8.8676,2.28478 12.35074,1.74126 22.29883,-3.48633 3.46028,-1.81832 5.35996,-2.67121 6.59179,-2.81054 0.18478,-0.0209 0.35399,-0.026 0.51172,-0.0156 z m 539.39258,2.63672 c -1.37747,0.012 -1.59324,1.21611 -2.10156,7.55664 -1.25217,15.61856 -0.68127,24.86556 2.86523,46.4336 3.65846,22.24893 7.71983,36.09448 11.96485,40.78515 2.12671,2.35 3.64599,2.61768 5.32421,0.93946 0.8612,-0.8612 0.63839,-2.13782 -0.89453,-5.14258 C 943.0803,359.35849 937.78829,340.22815 936.58789,328 c -0.29695,-3.025 -1.05917,-9.325 -1.69336,-14 -0.63419,-4.675 -1.20714,-14.575 -1.27344,-22 -0.11595,-12.9908 -0.20146,-13.51093 -2.26171,-13.80469 -0.24847,-0.0354 -0.46924,-0.0584 -0.66602,-0.0566 z M 581.03125,286 c -2.07994,0 -7.04506,5.73972 -10.34375,11.95703 -1.88406,3.55104 -3.82343,6.58828 -4.30859,6.75 -0.48517,0.16173 -1.99745,-1.80992 -3.36133,-4.38086 C 560.15574,294.93156 556.27416,291 553.81055,291 551.77428,291 543,296.73842 543,298.07031 543,298.58134 542.28395,299 541.4082,299 c -0.87575,0 -2.68793,0.86245 -4.02734,1.91602 -3.67166,2.88814 -23.50883,8.14712 -29.88086,7.92187 -1.65,-0.0583 -5.475,0.38641 -8.5,0.98828 -3.025,0.60186 -8.2,1.30442 -11.5,1.5625 -9.30806,0.72796 -19.48399,2.55432 -22.375,4.01563 -1.44344,0.72961 -5.1,1.90351 -8.125,2.60742 -6.54157,1.5222 -21.19793,7.80575 -27.21289,11.66797 -2.3582,1.5142 -4.51211,2.7799 -4.78711,2.8125 -0.74228,0.0879 -6.4852,3.55665 -14,8.45508 -4.43204,2.88896 -6.40337,4.36512 -14.43945,10.81054 -5.83698,4.68161 -5.76575,4.61582 -9.13672,8.3418 -1.69186,1.87004 -8.09111,8.19797 -14.22071,14.06055 -12.50662,11.96181 -22.18984,22.84973 -24.3125,27.33984 -1.36112,2.87924 -1.67887,3 -7.90429,3 H 334.5 l -1.35156,-4.27148 c -1.29517,-4.09311 -1.2402,-4.41912 1.32422,-7.78125 2.36625,-3.10231 3.05711,-3.43905 5.94922,-2.89649 3.87637,0.72721 5.94082,-0.93855 8.70312,-7.01953 2.41472,-5.31583 2.34274,-8.65286 -0.24609,-11.43164 -1.75123,-1.87972 -2.7546,-2.16016 -5.75,-1.61328 -6.74478,1.23143 -10.26234,4.9318 -13.79297,14.51367 -0.91196,2.475 -3.15967,6.09478 -4.9961,8.04297 -1.83643,1.94819 -3.33984,3.99501 -3.33984,4.54883 0,0.55383 1.55138,1.56639 3.44727,2.25195 3.97095,1.43592 4.90727,3.43287 3.65625,7.79492 -1.42073,4.9538 -0.4173,5.5149 8.66796,4.83985 7.30673,-0.5429 8.30689,-0.40015 10.16602,1.45898 1.13411,1.13411 2.0625,2.87328 2.0625,3.86328 0,0.99 0.43456,2.23339 0.96484,2.76367 1.15786,1.15786 4.03516,14.36119 4.03516,18.51563 0,4.19808 -11.19006,25.9832 -15.87695,30.91015 -2.16307,2.27386 -4.46586,5.56909 -5.11719,7.32227 -0.65134,1.75317 -1.75864,4.3125 -2.46289,5.6875 -0.70424,1.375 -2.0493,4.85725 -2.98828,7.73828 -0.93898,2.88103 -2.12291,5.49467 -2.63086,5.8086 -0.50795,0.31393 -0.92383,1.19867 -0.92383,1.96679 0,0.76811 -1.11566,3.04055 -2.47852,5.04883 -1.97728,2.91369 -2.26387,4.05222 -1.41796,5.63281 0.76261,1.42496 1.70624,1.81824 3.36328,1.40235 2.5345,-0.63612 5.51055,1.87495 3.9414,3.32617 -0.49919,0.46167 -11.7082,1.13638 -24.9082,1.49805 -13.2,0.36165 -28.725,0.86702 -34.5,1.12304 -5.775,0.25602 -16.35,0.68767 -23.5,0.96094 -7.15,0.27327 -19.3,0.7492 -27,1.05664 -34.53664,1.37891 -102.70431,0.59959 -110.5,-1.26367 -2.44111,-0.58346 -7.72616,-0.85176 -25,-1.26758 -8.595915,-0.20693 -14,0.54776 -14,1.95508 0,2.24064 3.421056,3.10684 11.666016,2.95703 4.858943,-0.0883 11.639594,0.35812 15.068359,0.99023 3.428765,0.6321 8.153755,1.12631 10.500005,1.09961 14.35831,-0.16326 48.37736,2.24454 49.64648,3.51368 0.21931,0.21929 0.81511,0.14081 1.32422,-0.17383 0.5091,-0.31465 14.05768,-0.7226 30.10937,-0.90821 16.05168,-0.1856 35.93555,-0.62858 44.18555,-0.98437 8.25,-0.35579 16.8,-0.62897 19,-0.60547 2.2,0.0235 7.28314,-0.42143 11.29492,-0.99023 6.61454,-0.93782 53.73864,-2.34848 65.58008,-1.96289 2.68168,0.0873 8.30668,-0.51157 12.5,-1.33008 6.1945,-1.20914 15.21971,-1.41965 48.125,-1.125 22.275,0.19946 43.05022,0.77098 46.16602,1.26953 3.1158,0.49856 6.4908,0.70808 7.5,0.46679 1.0092,-0.24126 6.51774,-0.58343 12.24218,-0.75976 5.72444,-0.17632 12.47444,-0.7777 15,-1.33789 2.52556,-0.56019 9.0918,-1.31535 14.5918,-1.67774 5.5,-0.3624 11.8,-0.80232 14,-0.97656 3.71097,-0.29391 6.7761,-0.38125 15.32617,-0.43945 4.04962,-0.0276 7.17383,-1.57222 7.17383,-3.54688 0,-1.14389 -1.58842,-1.48418 -7.25,-1.55078 -7.64261,-0.0899 -16.23564,0.16367 -21.25,0.625 -10.90145,1.00295 -25.37823,2.59523 -33.5,3.68555 -10.73244,1.4408 -15.50503,1.47394 -43,0.30078 -10.725,-0.45762 -20.175,-0.81873 -21,-0.80273 -6.35047,0.123 -25.0786,0.18568 -27.5,0.0918 -1.65,-0.064 -7.95,-0.0236 -14,0.0918 -6.05,0.11535 -11.32616,0.18444 -11.72461,0.15234 -0.39844,-0.0321 1.44059,-4.22109 4.08594,-9.30859 2.64535,-5.0875 6.08399,-12.30774 7.64258,-16.04492 1.66893,-4.00175 4.13783,-7.90685 6.00586,-9.5 1.74452,-1.48782 4.93691,-4.21597 7.09375,-6.0625 2.15683,-1.84652 5.53053,-4.32152 7.49609,-5.5 1.96557,-1.17847 5.43765,-3.38008 7.7168,-4.89258 2.27915,-1.5125 4.82813,-2.75 5.66406,-2.75 0.83593,-10e-6 1.51953,-0.40923 1.51953,-0.91016 0,-0.9439 7.8574,-5.08984 9.64648,-5.08984 1.66565,0 6.76288,7.85346 11.9668,18.43555 4.65568,9.46724 4.89578,10.35808 5.06836,18.89843 0.12422,6.14682 0.59163,9.21807 1.49024,9.77344 1.2373,0.7647 8.70144,1.93562 15.32812,2.40625 8.96453,0.63666 18.55061,1.88506 22.69922,2.95508 7.32296,1.88875 8.26072,0.0663 1.5039,-2.92187 C 451.53483,501.14569 448.08562,500 447.03711,500 c -4.89621,0 -6.81019,-1.71884 -7.5,-6.73438 -0.36776,-2.67387 -1.04588,-5.47058 -1.50586,-6.21484 -0.48968,-0.79232 -0.2187,-3.05116 0.65234,-5.45117 0.81821,-2.25443 1.63109,-6.9433 1.80664,-10.41992 0.17555,-3.47662 0.53229,-6.53425 0.79297,-6.79492 0.26067,-0.26068 4.10722,-1.34345 8.54883,-2.4043 4.44161,-1.06085 10.76733,-2.83527 14.05664,-3.94336 7.91019,-2.66475 24.24871,-12.64287 31.06641,-18.97266 3.00033,-2.78561 5.64032,-5.06445 5.86719,-5.06445 1.16433,0 8.54056,8.34352 8.66601,9.80273 0.0802,0.93312 0.70148,3.35092 1.38086,5.3711 1.06891,3.17844 0.94654,4.61999 -0.90234,10.70703 -1.17513,3.86884 -2.20968,9.16715 -2.30078,11.77344 l -0.16602,4.73828 4.98828,-0.28711 c 3.84468,-0.22059 6.07399,-1.0823 9.71875,-3.75781 3.9945,-2.93223 4.98548,-4.35614 6.375,-9.16016 0.90486,-3.12839 2.24168,-7.4875 2.9707,-9.6875 3.41407,-10.30275 4.06919,-16.02653 3.14454,-27.44727 -0.19457,-2.40323 -0.0438,-2.4528 8.30273,-2.68945 4.675,-0.13255 10.41514,-0.67114 12.75586,-1.19726 2.34073,-0.52613 4.4666,-0.61472 4.72461,-0.19727 0.258,0.41746 -0.44255,2.64527 -1.55664,4.95117 -1.58407,3.27865 -1.98372,5.9248 -1.83399,12.13672 0.12174,5.05111 0.59546,7.93588 1.30078,7.92188 2.49085,-0.0493 9.68572,-4.01591 10.3125,-5.68555 0.37001,-0.98564 2.13183,-3.88193 3.91602,-6.43555 8.93907,-12.79401 16.22176,-22.89747 20.07813,-27.85742 2.35195,-3.025 5.21598,-6.7375 6.36523,-8.25 1.29144,-1.69963 3.03685,-2.75 4.57031,-2.75 3.61342,0 11.5543,-2.09817 13.83985,-3.65625 1.08487,-0.73957 2.63086,-1.34375 3.43554,-1.34375 0.80467,0 2.3919,-0.87299 3.52735,-1.93945 3.8255,-3.59308 19.22587,-11.82812 23.45703,-12.54297 11.63083,-1.96502 23.65739,-14.41003 25.49804,-26.38672 0.80567,-5.24236 0.85599,-5.24968 -10.89062,1.79883 -8.30141,4.98123 -12.50209,6.79308 -12.49609,5.38867 0.003,-0.73693 13.94499,-10.20923 21.41406,-14.54883 5.08314,-2.95335 15.20679,-12.50519 21.35547,-20.14844 6.04389,-7.51299 8.67679,-13.78571 8.05859,-19.19531 -0.77386,-6.77168 -10.25018,-5.98315 -18.40234,1.53125 -4.85136,4.47183 -8.60534,5.43645 -20.42969,5.24414 -22.71515,-0.36943 -44.14535,-1.13957 -47.5,-1.70703 -2.2,-0.37215 -6.025,-1.56616 -8.5,-2.65234 -2.475,-1.08617 -6.75,-2.23257 -9.5,-2.54688 -6.92632,-0.79162 -8.03871,-1.57347 -9.46289,-6.66015 C 585.60337,291.51394 582.49012,286 581.03125,286 Z m -231.40234,2 c -2.9848,0 -10.71225,11.58269 -8.92188,13.37305 0.98086,0.98087 3.10829,0.73595 3.83594,-0.44141 0.3631,-0.58754 1.29443,-0.82508 2.07031,-0.52734 2.0662,0.79287 6.25175,-1.40335 6.9668,-3.65625 0.9763,-3.07607 -1.15936,-4.43905 -3.55664,-2.26953 -2.67296,2.41896 -2.60812,0.77371 0.082,-2.08985 C 352.21399,290.14428 351.9812,288 349.62891,288 Z m 229.32617,7 c 1.74215,0 3.32204,4.27801 3.64453,9.86523 0.17347,3.00563 0.83378,5.78457 1.4668,6.17579 0.63301,0.39123 3.92897,0.48738 7.32421,0.21484 4.3609,-0.35005 8.66174,0.12861 14.6504,1.62891 16.26266,4.07416 23.59459,4.82587 44.45898,4.55468 11.45019,-0.14883 21.21153,-0.72957 22.83398,-1.35742 3.32294,-1.28592 4.45152,-0.77747 5.72657,2.57617 1.17604,3.09323 2.5209,2.33371 3.35937,-1.89648 0.55384,-2.79417 3.61105,-7.76172 4.77735,-7.76172 0.96701,0 0.58301,4.97307 -0.72461,9.38867 -1.06794,3.60622 -2.8977,6.29159 -6.97657,10.24219 C 671.73442,336.14847 655.71601,348 653.31641,348 c -1.10391,0 -2.81019,0.88865 -3.79297,1.97461 -0.98278,1.08596 -2.74129,2.26966 -3.90625,2.63086 -1.16497,0.3612 -3.35469,1.52846 -4.86719,2.59375 -1.5125,1.06529 -2.75,1.62589 -2.75,1.24609 0,-0.3798 -0.5625,-0.24659 -1.25,0.29492 -1.61887,1.27509 -6.38436,2.52378 -10.51562,2.75586 -1.79562,0.10086 -4.27063,1.10927 -5.5,2.24219 -1.22939,1.13292 -4.82188,2.5881 -7.98438,3.23242 -5.49617,1.11979 -5.75,1.3073 -5.75,4.24024 v 3.06836 l 5.24414,-0.6211 c 6.64975,-0.78756 22.42474,-5.38542 39.75586,-11.58789 7.425,-2.65727 13.64444,-4.7051 13.82031,-4.54883 0.17587,0.15627 -0.62403,2.13387 -1.77734,4.39454 -2.87137,5.62835 -8.61327,9.54187 -16.18359,11.03125 -8.14698,1.60282 -15.74647,4.62877 -18.85938,7.50976 -2.71009,2.50818 -8.12911,5.48911 -10.97461,6.03711 -0.9784,0.18842 -3.83502,1.27919 -6.34766,2.42383 -2.51264,1.14464 -5.21199,2.08203 -6,2.08203 -0.78801,0 -3.17501,0.73095 -5.30468,1.625 -2.35885,0.99027 -8.03945,1.82689 -14.53321,2.13867 -10.16541,0.48806 -10.67943,0.6179 -11.10156,2.82617 -0.53663,2.80719 2.33979,3.71772 9.5293,3.01368 2.58651,-0.25329 4.92198,-0.1066 5.18945,0.32617 0.26747,0.43278 -1.28213,3.2121 -3.44141,6.17773 -15.30987,21.02718 -15.3083,21.02763 -16.73632,19.59961 -1.1677,-1.1677 -1.10469,-1.85747 0.42187,-4.56055 1.58194,-2.80112 1.61814,-3.30843 0.29883,-4.21679 -1.52748,-1.05168 -6.2255,-0.83401 -20.5,0.94922 -4.4,0.54967 -16.1,1.2712 -26,1.60547 -9.9,0.33424 -19.125,0.77494 -20.5,0.97851 -1.375,0.20358 -2.8375,0.40733 -3.25,0.45313 -0.4125,0.0458 -0.75,1.22365 -0.75,2.61718 0,1.57 -1.23615,3.68788 -3.25,5.56641 -1.7875,1.66739 -4.41315,4.12577 -5.83398,5.46484 -1.42084,1.33908 -2.8573,2.43555 -3.19336,2.43555 -0.33606,0 -2.32486,1.60095 -4.41797,3.55664 -4.87949,4.55914 -7.20237,5.76363 -19.60157,10.16602 -9.72973,3.45459 -10.82884,3.6254 -23.70312,3.69922 -7.63971,0.0438 -15.23638,-0.43149 -17.5,-1.09571 -21.83809,-6.40801 -27.49346,-6.72865 -34.83008,-1.97851 -2.84321,1.84086 -8.31992,5.03832 -12.16992,7.10742 -16.3927,8.8099 -29.09151,20.68176 -31.06836,29.04492 -0.39002,1.65 -1.19939,3.9 -1.79883,5 -0.59943,1.1 -1.78721,4.25 -2.64062,7 -1.31341,4.23225 -1.97009,5.04811 -4.27735,5.31641 -3.51398,0.40862 -4.1924,-1.42972 -2.24609,-6.08789 0.84224,-2.01576 1.53125,-4.50442 1.53125,-5.53125 0,-5.32858 4.6484,-15.32109 11.72266,-25.19727 14.23076,-19.86716 14.2197,-19.84127 14.64843,-29.81055 0.31313,-7.28118 0.088,-8.34495 -3.11328,-14.76757 -3.10587,-6.23125 -3.39223,-7.49798 -2.86719,-12.69727 0.32077,-3.17629 1.22819,-7.00129 2.01563,-8.5 1.78626,-3.39969 30.00799,-30.97625 38.60742,-37.72461 3.50433,-2.75 7.29837,-5.78829 8.42969,-6.75195 6.0647,-5.16589 15.70517,-12.48667 20.48242,-15.55274 7.7168,-4.9527 23.6956,-11.15869 28.79102,-11.18359 1.21884,-0.006 3.69384,-0.63792 5.5,-1.4043 4.6254,-1.96262 19.81394,-5.45098 29.2832,-6.72461 4.4,-0.59181 17.225,-1.23206 28.5,-1.42187 11.275,-0.18982 22.75,-0.79268 25.5,-1.33985 15.3397,-3.05212 17.78863,-3.18825 19.73633,-1.09765 3.00732,3.22799 5.31113,2.47319 7.65429,-2.51172 C 570.05121,313.04271 571,310.77127 571,310.46484 571,308.85136 578.12515,295 578.95508,295 Z m 115.11328,12.06055 c 0.22979,0.0295 0.50489,0.17646 0.86719,0.40039 0.74593,0.46098 0.75531,1.24678 0.0312,2.59961 -1.4493,2.70804 -3.26608,2.47397 -2.41016,-0.31055 0.55533,-1.80662 0.84297,-2.56092 1.29492,-2.67773 0.0678,-0.0175 0.1402,-0.0215 0.2168,-0.0117 z M 605.01367,321.5 l -2.50586,2.80664 c -2.93187,3.2814 -3.18699,6.73632 -0.79297,10.78906 2.16043,3.65736 3.47874,3.653 6.57227,-0.0234 2.90269,-3.44965 2.66164,-6.40012 -0.86719,-10.66407 z m 548.36523,3.10547 c 0.4672,0.0727 0.7753,0.81746 1.1328,2.44531 0.9463,4.30828 -0.9454,6.01303 -2.3144,2.08594 -0.8064,-2.31325 -0.7386,-3.27176 0.2871,-4.12305 0.2634,-0.21861 0.4866,-0.35466 0.6836,-0.39844 0.074,-0.0164 0.1442,-0.0201 0.2109,-0.01 z m -8.0957,3.34961 c 2.2386,0.10805 3.7168,1.80326 3.7168,4.81054 0,0.88138 0.8914,3.44357 1.9805,5.69336 1.0891,2.24978 2.2161,6.78005 2.5039,10.06641 0.7781,8.88429 -0.2865,9.42084 -5.8653,2.95899 -5.5137,-6.3866 -9.6417,-8.71644 -18.4316,-10.4004 -6.0558,-1.16016 -10.2058,-1.09994 -36.6875,0.52735 -11.4417,0.7031 -10.7353,0.68825 -20,0.41211 -7.4489,-0.22203 -15.1959,-1.72313 -16.0527,-3.10938 -0.8994,-1.45529 6.8708,-5.72343 11.2734,-6.19336 2.321,-0.24774 5.2689,-1.13927 6.5527,-1.98047 1.8052,-1.18279 3.4566,-1.34251 7.2813,-0.70117 2.7201,0.45613 9.6703,1.58081 15.4453,2.49805 5.775,0.91724 12.3,1.97659 14.5,2.35547 6.6709,1.14885 24.0395,-2.04955 29.0879,-5.35742 1.7361,-1.13752 3.3522,-1.64492 4.6953,-1.58008 z m -192.41211,5.13281 c -1.22485,-0.0589 -1.90259,1.88471 -1.32226,4.77734 0.40115,1.99951 0.82929,4.30977 0.95117,5.13477 0.12188,0.825 0.48107,2.175 0.79688,3 1.15566,3.01904 2.74144,15.7497 3.14257,25.22461 0.22646,5.34892 0.69661,10.18642 1.04493,10.75 0.34829,0.56359 1.78088,1.02539 3.18359,1.02539 2.38594,0 2.51214,-0.2418 1.95703,-3.75 -0.32636,-2.0625 -1.02274,-8.25 -1.54883,-13.75 -1.05613,-11.04127 -5.13596,-29.95822 -6.82422,-31.64648 -0.50369,-0.5037 -0.97257,-0.74599 -1.38086,-0.76563 z m -243.54882,17.98242 c -1.23356,0.0387 -2.76032,1.02963 -4.13477,2.88867 -1.20343,1.62773 -2.1875,3.25444 -2.1875,3.61524 0,0.36081 -2.04297,3.72972 -4.53906,7.48437 -4.8592,7.30929 -10.97494,19.82369 -12.84571,26.28516 -0.63029,2.17697 -1.81422,4.29817 -2.63085,4.71484 -0.81665,0.41667 -4.82186,2.43691 -8.9004,4.49024 -4.07854,2.05333 -8.57854,4.34171 -10,5.08398 -1.42146,0.74227 -5.96369,2.89695 -10.09375,4.78907 -4.13005,1.8921 -9.08005,4.48446 -11,5.75976 -1.91994,1.27529 -4.80179,2.99336 -6.40429,3.81836 -1.6025,0.825 -6.79675,5.325 -11.54297,10 -6.27046,6.17637 -9.48699,10.2769 -11.76758,15 -4.08613,8.46237 -6.65571,16.56831 -5.88672,18.57227 0.33653,0.877 -0.1496,6.00668 -1.08008,11.40039 -1.83694,10.64808 -1.17161,15.93672 2.42383,19.28711 2.4508,2.28376 5.95073,5.79909 8.56446,8.60156 3.80146,4.07599 16.37008,9.24673 26.06054,10.7207 4.87135,0.74096 9.14635,1.30917 9.5,1.26367 3.24863,-0.4181 4.25618,0.32143 3.95899,2.9043 -0.31473,2.73531 -0.35636,2.75023 -7.81641,2.67383 -4.125,-0.0422 -10.65,-0.36339 -14.5,-0.71289 -3.85,-0.34951 -11.95,-0.88765 -18,-1.19532 -6.05,-0.30766 -11.9,-0.80578 -13,-1.10742 -1.1,-0.30165 -7.0625,-0.75617 -13.25,-1.00976 -8.724,-0.35754 -11.24627,-0.17317 -11.23438,0.82031 0.0291,2.43503 1.72075,3.95878 4.09766,3.68945 1.31217,-0.14869 6.43635,0.0863 11.38477,0.52149 4.94843,0.43523 11.47343,0.91518 14.5,1.0664 19.17604,0.9581 39.45484,2.48773 45.21289,3.41016 3.69066,0.59124 10.21566,1.01717 14.5,0.94727 9.61676,-0.15691 24.2373,1.01759 26.17773,2.10351 0.79346,0.44402 2.62405,0.4689 4.06836,0.0547 1.44431,-0.41423 8.68206,-0.80655 16.08399,-0.87305 7.40194,-0.0665 14.35898,-0.29397 15.45898,-0.50586 10.12052,-1.94949 19.8976,-2.65068 26.5,-1.90039 6.27488,0.71306 8.45318,0.53849 13.33789,-1.0625 4.94515,-1.62081 6.20879,-1.71561 8.25391,-0.62109 1.75365,0.93852 7.95701,1.28145 22.66211,1.25195 17.78981,-0.0357 20.69381,0.1846 23.93164,1.81641 5.07048,2.55543 12.29591,1.7116 16.06445,-1.875 3.24794,-3.09112 3.4673,-4.78777 0.80078,-6.21485 -3.50861,-1.87775 -58.82656,-1.28096 -84.55078,0.91211 -7.15,0.60956 -24.475,1.34606 -38.5,1.63672 -14.025,0.29066 -27.525,0.70466 -30,0.92188 -5.06082,0.44416 -12,-1.04933 -12,-2.58399 0,-0.55537 0.88988,-2.85419 1.97852,-5.10742 2.28666,-4.73285 4.95036,-14.51806 4.69531,-17.24805 -0.20126,-2.15426 4.4407,-3.9135 8.06445,-3.05664 1.23085,0.29104 3.14335,0.0725 4.25,-0.48633 1.10664,-0.5588 2.84607,-1.42746 3.86524,-1.93164 1.01916,-0.50417 4.05666,-1.24282 6.75,-1.64062 2.69333,-0.3978 6.09178,-1.67347 7.55273,-2.83398 1.46094,-1.16053 5.12552,-3.60007 8.14453,-5.42188 6.69082,-4.03756 14.33465,-12.87913 17.69922,-20.47461 l 2.5,-5.64453 3.74219,0.5918 c 3.38498,0.53566 4.12297,0.21101 7.75,-3.41602 4.49455,-4.49454 4.69259,-5.61171 2.36914,-13.3125 -0.90133,-2.98732 -2.13883,-7.90444 -2.75,-10.92578 -1.0094,-4.98994 -1.38604,-5.53998 -4.10352,-6.00781 -2.37225,-0.40839 -3.10242,-1.13361 -3.52539,-3.50586 -1.10856,-6.21745 -0.0659,-8.00043 11.1582,-19.08594 6.02035,-5.946 11.83345,-12.24716 12.91797,-14.00195 1.08451,-1.75479 3.54057,-4.38591 5.45703,-5.84766 1.91648,-1.46176 3.48438,-3.2299 3.48438,-3.92773 0,-0.69782 1.07615,-2.2028 2.39062,-3.34571 3.27112,-2.84421 4.6075,-13.11128 2.1875,-16.80468 C 782.68505,355.1155 781.30988,354 780.52344,354 c -2.5657,0 -6.46322,2.25819 -8.03321,4.6543 -0.84539,1.29023 -2.44787,2.3457 -3.5625,2.3457 -1.11464,0 -3.24137,0.6113 -4.72656,1.35938 -3.39581,1.71044 -13.20444,2.87181 -14.63086,1.73242 -0.58917,-0.47061 -3.77031,-1.10417 -7.07031,-1.40821 -3.3,-0.30405 -8.3469,-1.22782 -11.21484,-2.05273 -2.86793,-0.82492 -7.74251,-1.71879 -10.83204,-1.98633 -5.62684,-0.48726 -7.59665,-1.77798 -8.99414,-5.89453 -0.39501,-1.16356 -1.17729,-1.70976 -2.13671,-1.67969 z m -0.5625,7.22657 c 0.4772,0.11318 0.78523,1.11145 1.46484,3.61523 0.4193,1.54473 0.21441,1.49521 10.27539,2.49219 3.85,0.3815 13.27799,1.84461 20.95117,3.25195 17.11087,3.13829 22.33863,2.74283 31.67578,-2.39648 0.34474,-0.18975 0.91079,0.39645 1.25782,1.30078 0.40846,1.06443 -0.71745,3.28199 -3.19141,6.29101 -2.10184,2.55642 -4.98485,6.67753 -6.4082,9.15821 -1.42336,2.48068 -7.84713,9.68068 -14.27539,16 L 738.82031,409.5 l 0.67578,18.05078 c 0.58384,15.62111 0.44051,18.78508 -1.06054,23.5 -0.95402,2.99666 -2.34113,6.15903 -3.08399,7.02734 -0.74286,0.86832 -1.35156,2.26582 -1.35156,3.10547 0,2.12609 -10.89293,13.80043 -16.15039,17.3086 -2.39179,1.59598 -5.47461,3.86185 -6.84961,5.0332 -2.74535,2.33873 -7.11219,3.75228 -17,5.50781 -3.575,0.63472 -7.07615,1.32823 -7.78125,1.54102 -0.70511,0.2128 -1.69098,-0.68502 -2.18945,-1.9961 -1.00704,-2.64873 -2.81284,-4.12662 -3.81641,-3.12304 -0.3601,0.3601 -0.7262,2.99596 -0.8125,5.85937 -0.1591,5.27833 -5.05858,20.98718 -7.89648,25.31836 -1.88035,2.86978 -3.86457,3.00653 -6.43164,0.43946 -1.80322,-1.80322 -1.83629,-2.27378 -0.51172,-7.25 1.57629,-5.92188 1.90124,-14.41832 0.58398,-15.23243 -0.46997,-0.29046 -2.29113,0.75495 -4.04883,2.32422 -4.01141,3.58139 -9.96252,5.2768 -18.75,5.3418 -12.34204,0.0914 -15.37554,-0.97921 -24.3457,-8.60156 -6.03113,-5.12492 -6.82841,-7.02599 -6.50977,-15.52344 0.48415,-12.91107 3.91385,-24.40856 10.26368,-34.41016 3.61521,-5.6943 17.23462,-17.28396 24.82812,-21.1289 2.98041,-1.50912 5.41797,-3.10299 5.41797,-3.54297 0,-0.43998 6.1875,-3.86093 13.75,-7.60156 15.49822,-7.66588 21.69037,-11.79856 23.14844,-15.44727 0.54946,-1.375 1.86835,-4.075 2.92968,-6 1.06135,-1.925 3.05501,-5.975 4.42969,-9 5.68944,-12.51969 10.05068,-21.01083 11.34375,-22.08398 0.52557,-0.43619 0.87188,-0.68707 1.15821,-0.61914 z m 19.76562,10.47851 c -0.88686,0.0409 -1.6218,0.73917 -3.00977,2.38867 -2.33767,2.77817 -2.40311,3.15206 -1.02734,5.8125 0.80866,1.56377 2.04117,3.03668 2.74024,3.27344 2.58413,0.87517 6.21362,-0.88955 6.81836,-3.31445 0.8061,-3.23236 -0.58425,-6.17231 -3.5879,-7.58789 -0.81525,-0.38422 -1.40147,-0.59683 -1.93359,-0.57227 z m -384.32227,4.81836 c 0.87462,-0.0458 1.52739,0.27933 2.26368,1.01563 0.8436,0.84359 1.51784,2.06467 1.49804,2.71289 -0.0198,0.64821 -1.11726,2.50007 -2.4375,4.11523 l -2.40039,2.93555 -1.30078,-2.93555 c -0.71577,-1.61516 -1.93732,-3.43161 -2.71484,-4.03516 -1.53515,-1.19163 -1.02103,-1.72499 3.21094,-3.33398 0.7518,-0.28584 1.3561,-0.44715 1.88085,-0.47461 z m 377.51954,23.43555 c -2.44801,0.12892 -2.42946,2.4779 2.02734,5.39648 3.41708,2.23768 6.25,3.21565 6.25,2.15625 0,-0.23002 0.2519,-1.07653 0.56055,-1.88086 0.35932,-0.93636 -0.67152,-2.22503 -2.86719,-3.58203 -2.2155,-1.36925 -4.10707,-2.00134 -5.44922,-2.08594 -0.18455,-0.0116 -0.35828,-0.0125 -0.52148,-0.004 z m 241.74804,0.39843 c 2.43096,-0.1139 1.9372,2.05407 -1.45312,5.78711 -4.88242,5.376 -6.01758,6.75722 -6.01758,7.32032 0,0.29415 -3.22211,5.13165 -7.16016,10.75 C 939.25313,434.96232 931,451.1681 931,456.31445 c 0,2.82737 -1.75761,4.59648 -4.54688,4.58008 -1.07464,-0.006 -5.68492,0.37116 -10.24609,0.83789 -4.56117,0.46674 -8.47878,0.66379 -8.70508,0.4375 -0.2263,-0.2263 2.59484,-3.73 6.26758,-7.78515 4.8815,-5.38977 7.73143,-9.72827 10.5957,-16.12891 2.15502,-4.8157 5.3567,-11.00586 7.11524,-13.75586 C 939.82866,411.44516 944,404.58192 944,403.90234 c 0,-0.40898 1.4625,-1.04045 3.25,-1.40429 3.99184,-0.81253 9.90174,-2.68722 11.25,-3.56836 0.55,-0.35944 2.2375,-0.94924 3.75,-1.31055 0.46678,-0.11151 0.87342,-0.17513 1.2207,-0.19141 z M 724,405 c -0.55,0 -1,0.675 -1,1.5 0,0.825 0.45,1.5 1,1.5 0.55,0 1,-0.675 1,-1.5 0,-0.825 -0.45,-1.5 -1,-1.5 z m -193.5,18.5 -0.28906,6.5 c -0.32649,7.31929 -1.81888,14.80465 -3.98633,20 -0.80309,1.925 -1.37824,3.62945 -1.27734,3.78711 0.30181,0.47165 -7.10477,13.5721 -8.74219,15.46289 -1.55455,1.79511 -2.48601,2.13704 -3.38281,1.24023 -0.28074,-0.28074 0.17291,-3.76824 1.00781,-7.75 2.43435,-11.60973 1.72353,-24.43161 -1.45508,-26.24023 -2.60636,-1.48301 -6.375,-5.26539 -6.375,-6.39844 0,-0.54433 1.0125,-2.15419 2.25,-3.57617 2.10942,-2.42386 2.87482,-2.5981 12.25,-2.80469 z m 190.80273,2.5 c -1.21285,0 -1.41321,0.6976 -0.91601,3.18359 0.35028,1.75141 1.3167,3.93641 2.14844,4.85547 1.88805,2.08627 2.99033,13.28141 1.76562,17.9336 -0.78267,2.97308 -1.54061,3.65361 -5.27344,4.73437 -5.55806,1.60921 -6.86132,0.58816 -6.86132,-5.37695 0,-7.74021 -3.46091,-7.83857 -4.68555,-0.13281 -0.65582,4.12658 2.48425,10.41726 5.91992,11.85937 3.01057,1.26368 8.5371,0.13602 11.68945,-2.38672 4.37274,-3.49939 6.60926,-14.4446 4.54102,-22.2168 C 727.52329,430.53321 724.49118,426 721.30273,426 Z m 26.33008,2.10547 c 1.82345,0.12984 3.26932,3.25437 3.99414,8.75586 0.91704,6.9605 0.62861,9.98751 -1.23047,12.88867 -1.49068,2.32625 -3.84226,2.95674 -4.86328,1.30469 -0.3212,-0.51975 -0.48823,-5.74012 -0.37304,-11.60157 0.16275,-8.28104 0.53334,-10.7814 1.66796,-11.21679 0.27491,-0.10549 0.5442,-0.14941 0.80469,-0.13086 z M 564.63867,429.5 c 0.47369,0 0.99686,1.38387 1.16211,3.07617 0.38038,3.89545 -3.22279,9.02814 -4.33398,6.17383 -0.742,-1.90597 1.77639,-9.25 3.17187,-9.25 z m -279.33594,9.30859 c 0.82821,0.10835 1.38418,2.157 1.14454,5.7793 -1.08499,16.4004 -15.4186,37.79309 -29.67383,44.28711 -2.56474,1.16837 -4.91357,2.125 -5.21875,2.125 -2.01533,0 0.69649,-3.45557 9.3125,-11.86719 12.13562,-11.84774 17.3376,-20.46872 22.2539,-36.88281 0.7295,-2.43557 1.53748,-3.52567 2.18164,-3.44141 z m 122.14063,18.5293 c 0.57814,-0.0498 2.40729,0.40331 4.41406,1.11133 2.29345,0.80918 4.3889,1.49002 4.65625,1.51172 0.26734,0.0217 0.59883,0.0731 0.73633,0.11523 0.72513,0.22193 3.87706,0.91004 9.25,2.01953 3.3,0.68144 6.26917,1.64094 6.59766,2.13282 1.19054,1.78272 -0.27701,11.26394 -1.97657,12.77148 -1.97947,1.75583 -1.32193,7.91358 1.52344,14.2832 1.22871,2.75059 1.38933,4.08334 0.58985,4.88282 C 431.7086,497.69178 429,496.44876 429,494.22266 c 0,-1.01214 -0.62004,-2.68875 -1.37891,-3.72657 -1.29414,-1.76985 -1.51378,-1.62682 -3.52148,2.3086 C 422.92231,495.11239 421.60851,497 421.17969,497 419.04338,497 418,494.05701 418,488.0293 c 0,-8.96737 -2.89522,-18.75343 -7.4082,-25.03516 -2.05064,-2.85434 -3.54341,-5.37652 -3.31641,-5.60352 0.0284,-0.0284 0.0854,-0.0456 0.16797,-0.0527 z M 635.61133,459 c -3.04806,0 -3.87403,1.21487 -4.00781,5.89258 -0.0945,3.30595 -0.37183,3.63318 -3.31836,3.91797 -2.73501,0.26434 -3.31273,-0.072 -3.85938,-2.25 -0.96413,-3.8414 -3.42578,-3.25486 -3.42578,0.8164 0,3.89151 1.28669,5.26871 5.5,5.88477 1.65,0.24126 3.46785,0.50549 4.03906,0.58789 0.57121,0.0824 2.80335,-0.74961 4.96094,-1.84961 2.15759,-1.1 4.47944,-2 5.16016,-2 1.41203,0 6.33984,-6.09652 6.33984,-7.84375 0,-1.8664 -2.41232,-1.32636 -3.76758,0.84375 -1.73499,2.77817 -2.86113,2.50226 -4.08203,-1 -0.78485,-2.25142 -1.66813,-3 -3.53906,-3 z m 0.44726,4 c 0.58246,0 0.78133,0.45 0.44141,1 -0.33992,0.55 -0.81605,1 -1.05859,1 C 635.19887,465 635,464.55 635,464 c 0,-0.55 0.47613,-1 1.05859,-1 z m 292.22852,1.64648 c 0.65227,0.004 1.09333,0.16033 1.28516,0.47071 0.68652,1.11082 -2.16358,5.88281 -3.51368,5.88281 -0.49233,0 -1.49408,0.17126 -2.22656,0.38086 -1.96398,0.56206 -5.09501,-0.37655 -7.05859,-2.11719 -2.27802,-2.01939 -1.57845,-2.90506 2.43359,-3.07812 1.81065,-0.0781 4.74921,-0.56848 6.5293,-1.08985 1.03529,-0.30321 1.89851,-0.45302 2.55078,-0.44922 z m -20.44922,1.64844 c 1.50998,-0.0193 3.14563,0.20587 5.03516,0.62305 0.20485,0.0452 -0.19761,0.76963 -0.89453,1.60937 C 909.30835,471.74469 894,480.93455 894,479.32031 c 0,-0.39617 -0.53922,-0.17953 -1.19922,0.48047 -0.66,0.66 -2.09455,1.19922 -3.1875,1.19922 -1.52639,0 -0.49528,-1.50666 4.44922,-6.49805 5.83402,-5.88936 9.24545,-8.14912 13.77539,-8.20703 z m -635.18555,19.15235 c 0.0874,0.004 0.1607,0.0337 0.2168,0.0898 1.44706,1.44705 0.87059,4.53195 -1.10547,5.91601 -2.61411,1.83101 -3.41724,1.91657 -4.31445,0.46485 -0.65545,-1.06054 3.89248,-6.5306 5.20312,-6.4707 z m -187.886715,4.42187 c -6.365385,0.0459 -12.754187,0.31224 -14.173828,0.76172 -1.048977,0.33212 -5.323977,0.74509 -9.5,0.91797 -10.342144,0.42812 -20.308824,1.33421 -20.873047,1.89844 -0.256041,0.25604 -0.201618,1.15512 0.121094,1.99609 0.441294,1.15005 1.648946,1.4165 4.873047,1.07422 8.166179,-0.86693 28.347701,-1.78688 41.771484,-1.90235 11.727011,-0.10087 13.528865,-0.33175 13.808595,-1.77929 0.19794,-1.02423 -0.56688,-1.95068 -1.986329,-2.40821 -1.332918,-0.42964 -7.675631,-0.60448 -14.041016,-0.55859 z m 58.068355,9.3457 c -1.73562,-0.008 -3.95428,0.0904 -6.71289,0.27735 -5.84141,0.39595 -14.13801,0.86204 -18.4375,1.03515 -4.2995,0.17311 -10.8245,0.8125 -14.5,1.42188 -4.179525,0.69292 -17.585066,0.98623 -35.787106,0.78125 -16.006989,-0.18024 -29.619489,-0.15549 -30.25,0.0547 C 36.515974,502.99532 36,504.53871 36,506.21484 c 0,3.00603 0.05103,3.03586 3.75,2.19727 7.141024,-1.61893 45.559522,-0.93063 47.957031,0.85937 0.663407,0.49531 1.649763,0.62503 2.19336,0.28907 1.432493,-0.88533 24.545979,-2.06991 39.099609,-2.00391 11.73439,0.0532 17.41341,0.93668 27.5,4.27734 3.93767,1.30415 5.26181,1.36106 5.94727,0.25196 0.83484,-1.3508 -5.22066,-4.75752 -10.94727,-6.15821 -6.056,-1.48125 -6.09319,-1.50795 -4.55664,-3.35937 1.95595,-2.35679 1.0975,-3.33024 -4.10938,-3.35352 z m 503.82422,5.84571 c 2.69078,0.0551 5.40569,0.34905 7.67188,0.875 4.75016,1.10244 5.28511,1.61836 3.68945,3.54101 -1.1279,1.35903 -8.93013,2.23371 -10.10351,1.13282 -0.22917,-0.21502 -2.21602,-0.61318 -4.41602,-0.88477 -7.65598,-0.94514 -9.85301,-3.00401 -4.375,-4.09961 2.17491,-0.43498 4.84242,-0.61956 7.5332,-0.56445 z M 61.205078,516.05664 c -1.455869,0.004 -3.6527,0.15353 -6.955078,0.41211 -5.3625,0.41989 -10.609971,0.73337 -11.660156,0.69727 -4.960817,-0.17069 -7.536926,4.17886 -3.384766,5.71484 1.213256,0.44918 3.800756,0.4458 5.75,-0.008 1.949245,-0.45341 5.471006,-0.83651 7.826172,-0.84961 C 58.258191,521.99311 64,519.62963 64,517.4043 c 0,-0.9589 -0.368474,-1.35465 -2.794922,-1.34766 z m 501.027342,0.0234 c -1.14063,0.085 -1.44879,0.91244 -0.86133,2.44336 0.39578,1.03141 1.52928,1.49602 3.1543,1.29297 3.38327,-0.42274 3.4736,-2.09218 0.17578,-3.25196 -0.76037,-0.2674 -1.40497,-0.42597 -1.92969,-0.47461 -0.19676,-0.0182 -0.37611,-0.0219 -0.53906,-0.01 z" id="path12" style="fill:#000000"/>
</svg>
