<?xml version="1.0" encoding="utf-8"?>
<svg xmlns="http://www.w3.org/2000/svg" version="1.1" viewBox="0 0 245.44 358.07999">
	<title>A flock of birds are flying towards a tree.</title>
	<path d="m 52.862403,351.91289 c -2.763056,-0.46765 -1.840592,-0.96823 2.035683,-1.10468 4.805805,-0.16915 7.42786,-0.10054 8.260964,0.2162 0.933686,0.355 2.228662,-0.47847 1.479392,-0.95216 -0.263143,-0.16634 -0.591508,-0.30468 -0.7297,-0.30736 -0.138192,-0.003 -0.09713,-0.2929 0.09126,-0.6449 0.256752,-0.47974 0.670022,-0.64 1.650442,-0.64 1.106396,0 1.248576,-0.0715 0.922755,-0.4641 -0.328839,-0.39622 -0.205872,-0.43593 0.840819,-0.27145 0.674291,0.10595 1.320954,0.35078 1.437024,0.54409 0.230182,0.38333 3.46896,0.28775 3.46896,-0.1024 0,-0.12764 -0.72,-0.19974 -1.6,-0.16019 -1.491062,0.067 -1.6,0.0202 -1.6,-0.68813 0,-0.72739 0.0927,-0.75897 2.16,-0.73532 1.188,0.0138 2.420499,0.01 2.738886,-0.009 0.715076,-0.0415 0.389892,-0.66775 -0.357772,-0.68896 -0.297613,-0.008 -1.045114,-0.28864 -1.661114,-0.6226 -0.616,-0.33395 -1.444,-0.75548 -1.84,-0.9367 -0.772598,-0.35357 -0.978272,-0.98611 -0.32,-0.98416 0.22,0 0.85601,0.27926 1.41335,0.6191 1.001389,0.6106 1.02769,0.6106 2.227661,0 1.701303,-0.86739 3.013261,-0.77491 5.492333,0.38711 1.180662,0.55341 2.761962,1.07651 3.514003,1.16243 0.752042,0.086 1.459664,0.30563 1.572493,0.48819 0.125866,0.20365 -6.4e-4,0.25296 -0.327347,0.12759 -1.07817,-0.41373 -0.491959,0.42326 0.734758,1.04908 1.378,0.70301 2.159245,0.79712 2.872173,0.34599 0.380749,-0.24093 0.387738,-0.37709 0.04082,-0.79511 -0.573709,-0.69126 0.205062,-0.6951 1.18912,-0.006 0.391469,0.27421 0.854733,0.41018 1.029475,0.30218 0.299539,-0.18512 3.950298,0.96109 4.641165,1.45715 0.316109,0.22698 1.7116,0.49632 4.114541,0.79408 0.678995,0.0841 1.369305,0.23629 1.534016,0.33808 0.164717,0.10179 0.473177,0.0531 0.685467,-0.10822 0.21229,-0.16135 1.60998,-0.47555 3.10598,-0.69824 1.496,-0.22269 3.1864,-0.56346 3.75644,-0.75722 0.77665,-0.26403 1.65897,-0.24694 3.52,0.0681 1.36596,0.23123 2.88866,0.48566 3.38378,0.56541 0.49512,0.0797 1.10712,-0.0269 1.36,-0.23661 0.35622,-0.29565 0.56444,-0.29475 0.92442,0.004 0.29238,0.24262 0.73729,0.29053 1.2,0.12915 0.61364,-0.21398 4.75133,-0.44122 7.13536,-0.39184 0.9761,0.0202 2.80448,-0.0307 3.52,-0.0983 0.352,-0.0332 1.396,-0.0346 2.32,-0.003 2.09517,0.0712 2.15713,0.49575 0.3195,2.1896 l -1.3605,1.25408 -7.5195,-0.0746 c -5.09813,-0.0506 -8.22483,-0.22448 -9.7099,-0.54006 -2.04057,-0.4336 -2.34701,-0.42151 -4.48,0.17702 -1.25928,0.35338 -2.46423,0.78359 -2.67766,0.95603 -0.42713,0.34509 -4.65753,0.27287 -5.721563,-0.0977 -0.368291,-0.12826 -1.304291,-0.30605 -2.08,-0.39507 -0.775709,-0.089 -2.490381,-0.3281 -3.810381,-0.5313 -1.32,-0.2032 -2.976,-0.43008 -3.68,-0.50416 -0.704,-0.0741 -1.82287,-0.21459 -2.486381,-0.31219 -2.195606,-0.32298 -8.956435,-0.58483 -14.263248,-0.55245 -4.903158,0.0298 -5.275792,0.0753 -5.969072,0.72659 -1.028797,0.9665 -2.513245,1.24781 -7.681299,1.45556 -2.464,0.0991 -4.624,0.2174 -4.8,0.263 -0.176,0.0456 -1.08392,-0.0464 -2.017597,-0.20444 z m -43.2959896,-3.0218 c -0.9134246,-2.40803 -0.3072006,-3.02889 2.5579916,-2.61968 0.772423,0.11034 1.924423,0.0844 2.56,-0.0576 0.635577,-0.14205 7.123698,-0.21632 14.418046,-0.16505 13.006999,0.0914 19.228032,-0.21255 22.417549,-1.09524 0.616,-0.17046 2.429968,-0.31075 4.031037,-0.31171 2.475168,0 3.024451,-0.10016 3.668486,-0.65872 0.482163,-0.41817 1.110538,-0.62541 1.728963,-0.57017 0.721408,0.0644 0.94082,-0.0342 0.852282,-0.38308 -0.167587,-0.66038 -0.306077,-2.47523 -0.499798,-6.54982 -0.09205,-1.936 -0.310036,-4.168 -0.484416,-4.96 -0.174381,-0.792 -0.615728,-3.80259 -0.980768,-6.69021 -0.510461,-4.03795 -0.815156,-5.46289 -1.319626,-6.17135 -0.360752,-0.50664 -0.576758,-1.12743 -0.480013,-1.37955 0.09675,-0.25211 0.02173,-0.55367 -0.166691,-0.67013 -0.196742,-0.12159 -0.272899,-0.73136 -0.178883,-1.43229 0.141664,-1.0562 0.07384,-1.23376 -0.503687,-1.31852 -0.401382,-0.0589 -0.931577,-0.60814 -1.330192,-1.37795 -0.697283,-1.3466 -0.534691,-1.28328 -3.919961,-1.52649 -0.562797,-0.0404 -1.203597,-0.25351 -1.424,-0.47351 -0.220403,-0.22 -0.609386,-0.4 -0.864407,-0.4 -0.25502,0 -0.935792,-0.48612 -1.512828,-1.08028 -1.364669,-1.40515 -2.947021,-1.70149 -3.355037,-0.62833 -0.292663,0.76976 -0.765687,0.97029 -1.081895,0.45865 -0.09856,-0.15948 -0.443404,-0.22086 -0.766316,-0.13642 -0.334714,0.0875 -0.98802,-0.18004 -1.51968,-0.62241 -1.323277,-1.10103 -2.641885,-1.47475 -3.74041,-1.0601 -0.659526,0.24894 -0.962317,0.24079 -1.129942,-0.0304 -0.125946,-0.20378 -1.439322,-0.78775 -2.918618,-1.2977 -2.440209,-0.8412 -2.693081,-1.00615 -2.726906,-1.77882 -0.0565,-1.29068 -0.95506,-1.82351 -4.355703,-2.58285 -0.450455,-0.10058 -1.314455,-0.5474 -1.92,-0.99293 -0.605545,-0.44553 -1.348222,-0.89723 -1.650393,-1.00376 -0.302171,-0.10654 -0.635075,-0.43016 -0.739788,-0.71916 -0.104712,-0.28901 -1.679313,-1.89346 -3.499112,-3.56546 -2.219802,-2.03951 -3.319088,-3.27695 -3.340212,-3.76 -0.01805,-0.41267 -0.236371,-0.72 -0.511486,-0.72 -0.264,0 -0.48,-0.12004 -0.48,-0.26675 0,-0.14672 -0.591368,-0.90272 -1.314152,-1.68 -0.722783,-0.77729 -1.786478,-2.14656 -2.363767,-3.04282 -0.9848256,-1.52898 -1.12716,-2.06144 -1.5746052,-5.89043 -0.1441747,-1.23376 -0.6650454,-4.10242 -1.0168089,-5.6 -0.2110634,-0.89857 -0.9329239,-2.01343 -2.2789815,-3.51974 -0.4551536,-0.50934 -0.5704457,-1.19424 -0.5656044,-3.36 0.00507,-2.26695 0.1560044,-3.06687 0.9057475,-4.80026 0.4948166,-1.144 1.1760803,-2.31908 1.513919,-2.61129 C 8.0435862,259.49649 8.32,258.97591 8.32,258.63186 c 0,-0.34406 0.2634886,-0.96898 0.5855306,-1.38871 0.3220419,-0.41974 0.6839395,-0.97916 0.8042166,-1.24316 C 9.9293437,255.518 11.401919,253.03417 12,252.13697 c 0.176,-0.26402 1.148,-1.18631 2.16,-2.04954 1.012,-0.86323 1.84,-1.72468 1.84,-1.91434 0,-0.18965 0.576,-1.04187 1.28,-1.8938 0.704,-0.85194 1.281594,-1.7853 1.283543,-2.07414 0.002,-0.28884 0.938332,-1.55638 2.080852,-2.81677 2.114797,-2.33296 2.347292,-3.07747 1.086043,-3.47777 C 21.394697,237.80405 21.12,237.51057 21.12,237.25843 c 0,-0.89428 -0.738931,-0.43188 -2.677252,1.67533 -5.942988,6.46081 -6.669874,7.0066 -8.223785,6.17498 -0.9425684,-0.50445 -0.7482158,-1.32531 0.661037,-2.79192 0.704,-0.73265 1.28,-1.54997 1.28,-1.81624 0,-0.26629 0.427731,-0.70534 0.950514,-0.97568 1.228486,-0.63527 1.793615,-1.63747 1.275434,-2.26184 -0.208155,-0.25081 -0.507437,-0.37631 -0.66507,-0.27889 -0.595064,0.36777 -1.59228,-0.27451 -2.520192,-1.62318 -1.182272,-1.71837 -1.197289,-2.17526 -0.09782,-2.97617 0.474872,-0.34592 1.014717,-1.16977 1.200568,-1.83217 0.402477,-1.43449 1.312757,-2.16682 1.780774,-1.43266 0.430747,0.67571 0.388571,0.96 -0.142419,0.96 -0.47339,0 -1.876708,1.71842 -1.616122,1.97901 0.299268,0.29926 4.47137,-0.10938 4.835627,-0.47363 0.120901,-0.12091 0.429573,-0.0457 0.685939,0.16702 0.626846,0.52024 1.578166,-0.63878 1.851083,-2.25523 0.339663,-2.01176 1.116266,-3.77125 2.161183,-4.8964 0.552026,-0.59442 1.246198,-1.52349 1.542604,-2.06459 0.296407,-0.5411 1.586895,-2.0891 2.867753,-3.44 2.129954,-2.24642 2.435775,-2.45618 3.581126,-2.45618 0.688762,0 1.748205,0.23533 2.354319,0.52295 1.05657,0.50137 1.132007,0.49478 1.828986,-0.16 0.817738,-0.76823 1.494326,-0.86633 2.061712,-0.29895 0.618202,0.61821 0.454822,1.19153 -0.736,2.58273 -0.616,0.71966 -1.12,1.63405 -1.12,2.03199 0,0.39793 -0.132922,0.80566 -0.295379,0.90607 -0.162461,0.1004 -0.393373,0.6287 -0.513139,1.17399 -0.614727,2.79884 -1.748197,4.47728 -5.40559,8.00458 -2.688009,2.5924 -3.674182,3.75552 -3.776758,4.45441 -0.07635,0.52023 -0.07857,1.00613 -0.0049,1.07977 0.07364,0.0736 0.734713,-0.32318 1.46905,-0.88182 0.734337,-0.55864 2.485266,-1.5846 3.890953,-2.2799 1.405687,-0.69529 2.629238,-1.36788 2.719001,-1.49463 0.08976,-0.12674 0.559124,-0.32981 1.043024,-0.45127 0.483898,-0.12145 0.959988,-0.35054 1.057978,-0.50908 0.197696,-0.31989 3.561126,-2.52084 3.852259,-2.52084 0.16592,0 3.417917,-2.06141 5.630576,-3.56917 0.476874,-0.32495 0.969533,-0.59083 1.094803,-0.59083 0.125268,0 0.455098,-0.19997 0.732957,-0.44438 0.679034,-0.5973 3.112899,-1.07757 4.588042,-0.90536 0.918793,0.10727 1.197155,0.28266 1.197155,0.75433 0,0.59079 0.03563,0.58823 0.920602,-0.0661 1.141126,-0.84367 2.129398,-0.71135 2.093046,0.28024 -0.01469,0.40098 0.126787,0.65337 0.32,0.57081 1.715226,-0.73289 2.801882,-0.90876 3.470451,-0.56168 0.559613,0.29052 0.995338,0.27057 1.995901,-0.0914 1.189386,-0.43024 1.310483,-0.41979 1.710611,0.14754 0.392368,0.55634 0.495651,0.56795 1.162941,0.13072 0.851622,-0.558 2.925232,-0.50643 3.416042,0.085 0.237254,0.28587 0.511612,0.31367 0.922969,0.0935 0.873136,-0.46729 1.943827,-0.37954 2.598538,0.21297 0.475184,0.43004 0.830819,0.47041 1.9452,0.22084 1.064064,-0.23831 1.854688,-0.17337 3.598281,0.29554 1.229018,0.33053 2.309018,0.71438 2.4,0.85301 0.09098,0.13863 0.741418,0.35566 1.445418,0.48229 0.704,0.12663 2.432,0.77643 3.84,1.444 1.408,0.66757 2.817808,1.30244 3.132909,1.41083 0.397577,0.13676 0.544477,0.46262 0.48,1.06479 -0.08172,0.76321 0.05858,0.91107 1.164816,1.22771 0.771376,0.22079 1.381421,0.63722 1.577613,1.07689 0.182499,0.409 0.712329,0.79539 1.233638,0.89965 0.502566,0.10051 1.057706,0.45173 1.233648,0.78048 0.270819,0.50603 0.706867,0.59772 2.842464,0.59772 3.233232,0 3.534912,0.12582 3.534912,1.47424 0,1.0022 0.07679,1.08576 0.997754,1.08576 1.129985,0 3.210775,1.6017 3.496065,2.69113 0.0956,0.36506 0.46113,0.80891 0.81227,0.98631 1.30163,0.65762 2.34371,1.6908 2.55518,2.53337 0.11973,0.47704 0.71713,1.39691 1.32756,2.04415 1.39807,1.48238 1.77342,2.1818 1.5495,2.88729 -0.11717,0.36917 0.20177,0.91544 0.94228,1.61391 1.65212,1.55833 1.444,1.99117 -0.56061,1.16591 -0.96196,-0.39602 -0.6165,0.35242 0.72,1.55987 1.49252,1.3484 1.70705,2.43806 0.48,2.43806 -1.04475,0 -1.00922,0.31982 0.16,1.44 1.28679,1.23283 1.27733,2.08 -0.0232,2.08 h -0.98323 l 0.63251,0.80411 c 0.52929,0.67288 0.60442,1.12981 0.46038,2.8 -0.21259,2.46499 -0.5304,3.11589 -1.52137,3.11589 -0.75719,0 -0.76327,0.0219 -0.30874,1.10972 0.94689,2.26622 0.44982,3.25917 -1.19172,2.38064 -1.02773,-0.55003 -1.28873,0.0795 -0.58068,1.40055 0.87027,1.62374 0.80478,2.00683 -0.40393,2.36277 -1.03969,0.30618 -1.07665,0.40915 -0.72733,2.02632 0.0985,0.45588 -0.0236,1.05177 -0.2837,1.3853 -0.38029,0.48757 -0.57399,0.52242 -1.16007,0.20876 -0.55636,-0.29776 -0.79516,-0.28493 -1.1414,0.0613 -0.34672,0.34672 -0.3725,0.83604 -0.12389,2.35124 0.37508,2.28596 -0.025,2.79747 -2.08361,2.66375 l -1.28,-0.0831 0.13446,1.4264 c 0.074,0.78451 0.14595,2.00239 0.16,2.70639 l 0.0255,1.28 -1.279995,-0.0466 c -0.704,-0.0257 -1.676,-0.15045 -2.16,-0.27731 -1.043149,-0.27341 -1.113818,0.0545 -0.355936,1.65162 0.41344,0.87126 0.448662,1.26987 0.166861,1.88836 -0.196461,0.43119 -0.532551,0.78398 -0.746864,0.78398 -0.214314,0 -0.937402,0.37959 -1.606861,0.84352 -1.02681,0.71158 -1.217968,1.02441 -1.222099,2 -0.0092,2.17456 -1.088883,2.70139 -2.677559,1.30652 -1.078211,-0.94668 -1.694915,-1.24064 -1.315772,-0.62717 0.109747,0.17757 0.108451,0.60985 -0.0029,0.96063 -0.153421,0.48339 -0.385943,0.59171 -0.960592,0.44748 -0.660532,-0.16578 -0.784282,-0.0525 -0.960932,0.87937 -0.276937,1.46098 -0.928073,2.25688 -1.936995,2.36763 -0.908982,0.0998 -2.380371,1.28597 -2.380371,1.91898 0,0.64808 -1.775581,1.18369 -3.15272,0.95103 -1.103741,-0.18647 -1.296874,-0.12791 -1.479904,0.44877 -0.271696,0.85604 -0.934627,0.84337 -1.75153,-0.0335 -0.763062,-0.81905 -0.930995,-0.7222 -1.078124,0.62176 -0.06014,0.54934 -0.280036,1.20446 -0.488656,1.45583 -0.502167,0.60507 -2.672167,0.95479 -2.966765,0.47812 -0.258755,-0.41867 -1.855917,1.23478 -1.872189,1.93817 -0.0151,0.65349 -3.853104,4.85981 -4.742944,5.19813 -0.567488,0.21575 -0.711475,0.44089 -0.543082,0.84915 0.126029,0.30555 0.272804,1.08016 0.326164,1.72135 0.05336,0.64119 0.407014,2.65719 0.7859,4.48 0.378887,1.82281 0.900256,5.11263 1.158599,7.31071 0.352249,2.99706 0.748109,4.7176 1.582944,6.88 0.612278,1.58592 1.236464,3.10423 1.387081,3.37399 0.150615,0.26979 0.371687,0.93596 0.491268,1.48041 0.242995,1.10637 -0.371988,1.99411 -1.4389,2.07709 -0.339427,0.0262 -0.774531,0.0624 -0.966892,0.08 -0.875284,0.0801 -2.97546,-8.82803 -3.315962,-14.06499 -0.04638,-0.71335 -0.230166,-1.57735 -0.408406,-1.92 -0.178244,-0.34266 -0.42089,-1.34301 -0.539213,-2.22301 -0.118327,-0.88 -0.586813,-3.57768 -1.041085,-5.99484 -0.772166,-4.10869 -0.792077,-4.44654 -0.305766,-5.18875 0.827164,-1.26241 0.657356,-1.45463 -1.212442,-1.37251 -1.342438,0.059 -1.658051,0.166 -1.401491,0.47529 0.182121,0.21955 0.385741,1.43184 0.45248,2.69396 0.06674,1.26212 0.264611,2.81049 0.439709,3.44081 0.175097,0.63032 0.319161,1.76267 0.32014,2.51632 9.6e-4,0.75365 0.201524,1.84831 0.445648,2.4326 0.44448,1.06378 0.72625,2.44032 0.990116,4.83712 0.225292,2.0464 0.427955,3.23472 0.774249,4.5399 0.178048,0.67104 0.400547,1.6521 0.494448,2.1801 0.0939,0.528 0.23609,1.28477 0.315978,1.6817 0.07989,0.39692 0.311545,2.15209 0.514793,3.90038 0.356576,3.06714 0.343911,3.22432 -0.360876,4.4783 -0.401732,0.71479 -0.914839,1.29962 -1.140237,1.29962 -0.225399,0 -0.567639,0.29488 -0.760531,0.65533 -0.192893,0.36041 -0.701959,0.78886 -1.131258,0.95206 -0.429299,0.16323 -0.780544,0.51632 -0.780544,0.78467 0,0.26839 -0.108,0.49863 -0.24,0.51172 -0.132,0.0131 -0.528,0.0696 -0.88,0.12563 -2.385658,0.37958 -3.677082,0.43421 -3.844963,0.16256 -0.288384,-0.46663 -2.518336,-0.37607 -3.518602,0.14288 -0.670118,0.34765 -1.057667,0.37241 -1.644553,0.10499 -0.565277,-0.25754 -1.293332,-0.24438 -2.759856,0.0499 -1.209034,0.24256 -5.576768,0.44512 -11.112026,0.51529 -5.016,0.0636 -9.336,0.12906 -9.6,0.14544 -0.264,0.0163 -1.685067,0.0272 -3.157926,0.0243 -1.47286,-0.003 -2.818276,0.0812 -2.989814,0.18717 -0.171538,0.10602 -0.906067,0.18458 -1.632286,0.17453 -0.726219,-0.01 -1.49482,0.12656 -1.708003,0.30349 -0.438549,0.36396 -2.253396,0.48537 -2.567036,0.17174 -0.113327,-0.11334 -0.363299,-0.077 -0.555492,0.0807 -0.192194,0.1577 -1.297635,0.37744 -2.456536,0.48832 l -2.107094,0.20163 -0.4593996,-1.21113 z M 65.592883,308.04081 c 0.0039,-0.15355 -0.244883,-0.0816 -0.552883,0.16 -0.796102,0.62434 -1.025274,1.00412 -0.813098,1.34743 0.18586,0.30073 1.352717,-0.98696 1.365981,-1.50743 z M 57.68,305.07831 c -1.628,-1.50423 -2.96,-2.98743 -2.96,-3.29599 0,-0.37728 0.419222,-0.68663 1.28,-0.94452 1.540643,-0.46159 1.695482,-1.25071 0.30016,-1.52978 -0.957078,-0.19141 -0.977517,-0.23396 -0.88,-1.832 0.09758,-1.59906 0.08083,-1.63382 -0.74121,-1.53823 -0.736528,0.0856 -0.867468,-0.043 -1.053657,-1.03552 -0.116935,-0.62332 -0.07251,-1.39508 0.09872,-1.71504 0.186294,-0.34809 0.196425,-0.76758 0.02522,-1.04448 -0.421111,-0.68113 -1.069008,0.11226 -1.712643,2.09724 -0.285341,0.88 -1.056071,2.176 -1.71273,2.88 -1.883517,2.01931 -2.077738,2.54865 -1.256163,3.42367 1.298643,1.38311 3.619478,3.12185 4.857353,3.63907 0.679645,0.28397 2.180541,1.48248 3.335328,2.66336 2.062864,2.10946 2.11081,2.13671 2.73961,1.55711 0.632912,-0.5834 0.607219,-0.62022 -2.32,-3.32489 z m -5.615603,-5.12059 c -0.362234,-0.36223 -0.257933,-1.29153 0.186336,-1.66024 0.596985,-0.49546 1.262697,0.0521 1.137264,0.93543 -0.105811,0.74515 -0.879559,1.16885 -1.3236,0.72481 z m 13.904333,3.89314 c 0.8188,-0.88598 1.5388,-1.89887 1.6,-2.25087 0.099,-0.56942 -0.0389,-0.62877 -1.250413,-0.53822 -1.612557,0.12054 -2.005175,-0.42545 -1.19505,-1.66186 0.71536,-1.09177 0.350803,-1.62183 -0.659955,-0.95956 -0.497011,0.32566 -0.783312,0.81587 -0.783312,1.34121 0,0.80648 -1.703203,2.93843 -2.347494,2.93843 -0.166074,0 -0.48952,-0.252 -0.718775,-0.56 -0.391177,-0.52554 -0.462253,-0.51419 -1.155277,0.18453 l -0.738454,0.74453 0.764806,0.53547 c 0.420644,0.29451 1.428644,1.21391 2.24,2.04312 l 1.475194,1.50765 0.64,-0.85678 c 0.352,-0.47123 1.309926,-1.58167 2.12873,-2.46765 z m -21.986893,-3.0157 c -0.227261,-0.22726 -1.106778,0.88987 -1.091191,1.38599 0.0059,0.18636 0.297456,-0.006 0.648,-0.42649 0.350548,-0.42093 0.549981,-0.85271 0.443191,-0.9595 z m 33.420601,-2.70991 c 0.266016,-0.32053 0.282058,-0.53415 0.05084,-0.67705 -0.185792,-0.11483 -0.437779,0.0523 -0.559978,0.37151 -0.122198,0.31916 -0.485619,0.79628 -0.8076,1.06028 -0.560723,0.45975 -0.561616,0.51375 -0.02115,1.28 l 0.564269,0.8 0.19249,-1.18323 c 0.105869,-0.65077 0.367376,-1.39396 0.581126,-1.65151 z m -7.976281,1.25142 c 0.473405,-0.57042 0.94983,-3.85776 0.633318,-4.36989 -0.401952,-0.65037 -0.983449,0.91339 -0.767568,2.06414 0.16985,0.90538 0.07599,1.14271 -0.636537,1.60957 -0.459671,0.30119 -0.750676,0.68529 -0.646682,0.85356 0.278195,0.45013 0.977744,0.37246 1.417469,-0.15738 z M 35.2,298.87999 c 0.188384,-0.352 0.544954,-0.64 0.792374,-0.64 0.687856,0 0.846743,-0.49544 0.47362,-1.47684 l -0.338589,-0.89055 -0.943703,1.65236 c -0.519036,0.9088 -0.943702,1.72946 -0.943702,1.8237 0,0.42647 0.651034,0.10864 0.96,-0.46867 z m 46.08,-1.30666 c 0,-1.22431 -0.753773,-1.11446 -0.901254,0.13134 -0.07176,0.60617 0.04476,0.85532 0.4,0.85532 0.346627,0 0.501254,-0.30437 0.501254,-0.98666 z m -20.907309,-0.7627 c -0.03852,-0.60206 -0.154566,-1.17918 -0.257888,-1.2825 -0.243398,-0.2434 -0.624608,2.08475 -0.400685,2.44707 0.348013,0.56309 0.726304,-0.10585 0.658573,-1.16457 z m 14.9312,0.5788 c 0.115805,-0.1158 0.04508,-0.40994 -0.157171,-0.65364 -0.491309,-0.59199 -0.636227,-3.9358 -0.170573,-3.9358 0.237946,0 0.227536,-0.12431 -0.03215,-0.384 -0.614746,-0.61474 -1.02831,0.0946 -1.075389,1.84445 -0.06061,2.25295 0.685264,3.87901 1.43528,3.12899 z m -12.209088,-1.27904 c 0.321859,-0.29127 0.585197,-0.94884 0.585197,-1.46125 0,-0.81721 -0.102813,-0.91922 -0.836947,-0.8304 -0.743264,0.0899 -0.844109,0.25348 -0.900938,1.46125 -0.06868,1.45968 0.224202,1.67067 1.152688,0.8304 z M 32.344,295.91199 c -0.03958,-0.38262 -0.478492,-0.30852 -0.616,0.104 -0.0704,0.2112 0.0448,0.3264 0.256,0.256 0.2112,-0.0704 0.3732,-0.2324 0.36,-0.36 z m 44.106643,-1.96696 c 0.176234,-1.29867 0.132947,-1.88628 -0.156649,-2.12662 -0.530711,-0.44045 -0.72473,0.33564 -0.60538,2.42158 0.110631,1.93354 0.106295,1.91176 0.334948,1.68311 0.10096,-0.10096 0.293145,-0.99109 0.427081,-1.97807 z m -35.953411,0.48284 c -0.338147,-0.54713 -0.771795,-0.40636 -0.653402,0.21212 0.05896,0.308 0.118221,0.6248 0.131687,0.704 0.01347,0.0792 0.184736,-0.0163 0.380601,-0.21212 0.195863,-0.19586 0.259367,-0.51266 0.141114,-0.704 z m 4.116045,-0.95925 c -0.243424,-0.24722 -1.41328,1.02977 -1.411687,1.54097 9.6e-4,0.34346 0.253344,0.19641 0.771316,-0.4496 0.42335,-0.528 0.711516,-1.01911 0.640371,-1.09137 z m -16.65684,-0.0188 c -0.176115,-0.17611 -0.74434,0.64907 -0.751537,1.09139 -0.0027,0.16564 0.199327,0.0219 0.448936,-0.31949 0.24961,-0.34136 0.385781,-0.68872 0.302601,-0.7719 z m 38.110737,-0.0305 c -0.100793,-0.16309 0.184858,-0.46425 0.634781,-0.66925 0.940464,-0.42851 1.030157,-0.75949 0.314365,-1.16007 -0.451872,-0.25288 -0.442048,-0.3922 0.09549,-1.3544 0.758698,-1.35807 1.368189,-1.59019 1.368189,-0.52108 0,0.44428 0.126,0.88565 0.28,0.98083 0.154,0.0952 0.28,-0.16632 0.28,-0.58111 0,-1.1421 1.917309,-2.75417 3.275658,-2.75417 0.460217,0 0.644342,-0.21167 0.644342,-0.74073 0,-0.53272 0.31729,-0.89204 1.129862,-1.27952 0.621421,-0.29634 1.221434,-0.79101 1.33336,-1.09927 0.111927,-0.30826 0.647488,-1.06927 1.190138,-1.69114 0.542653,-0.62186 1.85064,-2.327 2.90664,-3.7892 1.056,-1.4622 2.50319,-3.4014 3.215981,-4.30934 1.732777,-2.20718 3.754525,-5.2687 4.259942,-6.4508 0.225751,-0.528 0.618944,-1.28339 0.873763,-1.67865 0.397978,-0.61732 0.552634,-0.66287 1.09681,-0.32303 1.157923,0.72314 0.797187,2.2198 -1.773568,7.3584 -1.323888,2.64628 -2.821894,5.42608 -3.328902,6.17732 -0.507008,0.75124 -1.028743,1.70341 -1.159412,2.11593 -0.130665,0.41252 -0.944758,1.54203 -1.809091,2.51003 -1.919849,2.15011 -2.823821,4.06088 -2.603657,5.50346 0.207459,1.35934 1.263644,3.77654 1.65014,3.77654 0.374903,0 0.697994,-1.57381 0.697994,-3.4 0,-0.77 0.144,-1.4 0.32,-1.4 0.176,0 0.426022,-0.0102 0.555603,-0.0227 0.129584,-0.0125 0.530375,0.95952 0.890647,2.16 0.90518,3.01618 1.59375,2.99142 1.59375,-0.0573 0,-2.51289 0.395686,-2.87196 1.429002,-1.29676 l 0.618755,0.94323 0.341885,-0.89922 c 0.188035,-0.49458 0.303289,-1.12981 0.256121,-1.41164 -0.04717,-0.28182 0.140563,-0.55924 0.417187,-0.61648 0.575063,-0.119 1.25705,1.14831 1.25705,2.33593 0,0.43172 0.06022,0.78494 0.133827,0.78494 0.07361,0 0.332599,0.0763 0.575539,0.1695 0.346429,0.13294 0.458893,-0.33052 0.521367,-2.14853 0.04381,-1.27491 0.152646,-2.39101 0.241859,-2.48023 0.246595,-0.24659 0.756336,0.69613 0.767408,1.41926 0.01421,0.9286 0.458973,1.48938 1.012701,1.2769 0.424579,-0.16293 0.427821,-0.39568 0.02739,-1.96783 -0.34248,-1.3447 -0.363517,-1.8723 -0.08558,-2.14606 0.275565,-0.27142 0.481309,-0.21027 0.815469,0.24237 0.245805,0.33296 0.488109,0.70668 0.538458,0.83049 0.05035,0.12382 0.504925,0.3265 1.010176,0.45042 0.997664,0.24468 1.000723,0.2229 0.343449,-2.44629 -0.319571,-1.29778 0.664948,-1.15925 2.163946,0.30448 1.666371,1.62717 2.000515,1.21224 2.061786,-2.56027 0.05248,-3.23101 -0.136685,-3.00614 2.152946,-2.5593 0.69594,0.13582 0.88231,0.0717 0.76324,-0.2626 -0.0866,-0.24327 -0.023,-0.70351 0.14144,-1.02276 0.18453,-0.35827 0.18497,-0.72574 0.001,-0.96 -0.44006,-0.56073 -0.72244,-2.77955 -0.35384,-2.77955 0.17194,0 0.88289,0.29093 1.57988,0.6465 0.69699,0.35558 1.281,0.60758 1.2978,0.56 0.0168,-0.0476 0.0533,-1.10895 0.0811,-2.35862 0.0283,-1.27355 0.22636,-2.48399 0.45061,-2.75419 0.42059,-0.50679 0.22385,-2.36563 -0.28358,-2.67923 C 104.1254,267.23972 104,267.02672 104,266.86111 c 0,-0.35001 1.06672,-0.40773 1.39877,-0.0757 0.38236,0.38236 1.80123,0.4566 1.80123,0.0942 0,-0.18821 -0.1987,-0.66114 -0.44155,-1.05095 -0.24285,-0.3898 -0.52063,-1.24153 -0.61728,-1.89273 l -0.17574,-1.18399 1.09327,0.52135 c 1.66797,0.79539 1.75718,0.47733 0.62643,-2.23337 -0.1794,-0.43005 -0.0772,-0.56 0.44063,-0.56 0.84046,0 0.83961,-0.12224 -0.009,-1.26986 -0.77111,-1.04298 -0.61327,-1.93014 0.34341,-1.93014 0.61307,0 0.60667,-0.0497 -0.14995,-1.16465 -0.89059,-1.31235 -1.02802,-2.35535 -0.31036,-2.35535 0.68835,0 0.5947,-0.29766 -0.32,-1.01717 -0.44,-0.3461 -0.8,-0.87858 -0.8,-1.18328 0,-0.3047 -0.504,-1.0425 -1.12,-1.63955 -1.14975,-1.11437 -1.51334,-2.13941 -0.64,-1.80428 0.264,0.10131 0.48,0.067 0.48,-0.0762 0,-0.37551 -0.95845,-1.16055 -2.16,-1.76919 -1.22737,-0.62171 -1.29246,-0.88755 -0.32187,-1.31449 1.11217,-0.4892 1.02412,-1.21373 -0.22957,-1.88889 -0.62071,-0.33427 -1.12856,-0.74672 -1.12856,-0.91656 0,-0.19284 -0.1502,-0.18893 -0.4,0.0104 -0.22,0.17556 -0.76,0.27719 -1.2,0.22585 -0.44,-0.0514 -1.04095,-0.10535 -1.335446,-0.12002 -0.2945,-0.0147 -0.963287,-0.38667 -1.486196,-0.82667 -0.522912,-0.44 -1.217958,-0.80458 -1.544553,-0.81017 -0.326592,-0.006 -0.867171,-0.2171 -1.201287,-0.47 -0.488665,-0.36988 -0.531571,-0.55129 -0.219366,-0.92748 0.410166,-0.49422 1.517328,-0.42987 2.067357,0.12016 0.180121,0.18012 0.423801,0.32749 0.541517,0.32749 0.277324,0 0.0491,-1.97868 -0.263386,-2.28351 -0.226794,-0.22124 -4.752422,-0.58101 -7.687107,-0.6111 -1.376967,-0.0141 -4.210599,-1.36258 -4.464608,-2.12461 -0.153181,-0.45954 1.597216,-0.85876 2.503744,-0.57104 0.497792,0.15799 0.644576,0.0989 0.536973,-0.21616 -0.158893,-0.46525 -2.029434,-0.58558 -3.49626,-0.22491 -0.60118,0.14782 -1.13607,0.008 -1.83447,-0.48 -1.170416,-0.81759 -1.215677,-1.02907 -0.322557,-1.50705 0.478528,-0.2561 0.773677,-0.26158 1.016387,-0.0189 0.242708,0.2427 0.465044,0.23993 0.765645,-0.01 0.591367,-0.49079 0.528,-0.91374 -0.136387,-0.91032 -0.308,0.002 -0.930816,-0.44821 -1.384038,-0.99955 -0.664727,-0.80863 -1.07713,-1.00907 -2.133168,-1.03676 -0.828612,-0.0217 -1.532237,0.16758 -1.91696,0.51575 -0.756548,0.68467 -2.331709,0.99701 -2.953511,0.58565 -0.387251,-0.25619 -0.318461,-0.42677 0.4,-0.99191 1.970077,-1.54966 0.737856,-2.32533 -3.000512,-1.8888 -1.480496,0.17289 -2.835811,0.32583 -3.011811,0.33988 -0.176,0.014 -1.256,-0.12634 -2.4,-0.31197 -2.58737,-0.41984 -7.081027,-0.58536 -7.576605,-0.27907 -0.203677,0.12588 -1.030262,0.31932 -1.836857,0.42988 -1.198647,0.16431 -1.466538,0.11027 -1.466538,-0.2958 0,-0.85943 -0.758355,-0.8002 -1.946435,0.15202 -1.249047,1.00107 -2.253351,0.95907 -1.98088,-0.0829 0.169709,-0.64897 -0.365575,-0.86097 -0.721155,-0.28563 -0.254887,0.41242 -2.796912,0.21015 -2.945076,-0.23434 -0.235376,-0.70613 -4.361219,1.31788 -6.092563,2.98883 -1.649693,1.59214 -3.081824,2.43282 -4.296893,2.52234 -0.320275,0.0236 -0.90512,0.33803 -1.299657,0.69875 C 36.642803,232.91 35.888,233.42395 35.36,233.6914 c -0.528,0.26744 -1.536,0.94773 -2.24,1.51176 -0.704,0.56401 -1.568,1.15693 -1.92,1.31758 -0.352,0.16066 -1.288,0.71633 -2.08,1.23484 -0.792,0.51851 -1.948683,1.22257 -2.570406,1.56458 -0.621723,0.34201 -1.313596,0.96412 -1.537494,1.38248 -0.223899,0.41836 -0.719576,0.89941 -1.101504,1.069 -0.914301,0.40599 -2.964131,3.09995 -3.886935,5.10835 -0.465062,1.01217 -1.691475,2.54053 -3.338132,4.16 -1.431638,1.408 -2.685216,2.848 -2.78573,3.2 -0.100514,0.352 -0.631622,1.75673 -1.180241,3.12161 -0.952901,2.37067 -0.971391,2.50069 -0.413628,2.90853 0.527937,0.38604 0.533585,0.44623 0.05897,0.62836 -0.288693,0.11078 -0.524896,0.41027 -0.524896,0.66553 0,0.25526 -0.235101,0.87375 -0.522447,1.37442 -0.493162,0.85928 -0.483602,0.99558 0.170554,2.43154 0.797789,1.75126 0.910595,1.73756 3.394445,-0.4122 0.812005,-0.70278 1.740208,-1.27779 2.062674,-1.27779 0.972489,0 1.054677,0.95483 0.180805,2.10054 -0.443317,0.58122 -0.806031,1.1442 -0.806031,1.25107 0,0.10687 -0.313771,0.61871 -0.697269,1.13741 -0.383498,0.51871 -0.626982,1.0134 -0.541076,1.09931 0.172147,0.17214 2.993209,-0.83653 3.356968,-1.20028 0.365612,-0.36562 1.878511,-0.26291 2.297377,0.15595 0.631026,0.63103 0.441996,1.50136 -0.61055,2.81112 -1.192951,1.48446 -1.136928,2.27505 0.09268,1.30785 0.974956,-0.76691 1.861873,-0.86574 1.861873,-0.20748 0,0.25052 -0.503049,1.11452 -1.117886,1.92 -1.188722,1.55731 -0.829767,2.05645 0.477886,0.66451 0.776468,-0.82651 1.731508,-1.04387 2.08358,-0.47421 0.271427,0.43918 2.07642,-0.8621 2.07642,-1.49697 0,-0.26817 0.295722,-0.87037 0.65716,-1.33821 2.93573,-3.79993 3.036969,-4.02153 1.587309,-3.47434 -1.52163,0.57435 -1.823909,0.009 -1.199836,-2.24603 0.281688,-1.01763 0.634465,-2.35424 0.783948,-2.97024 0.217901,-0.89793 0.444715,-1.14012 1.143968,-1.22148 1.130017,-0.13148 1.67694,1.01584 0.996392,2.09023 -0.604598,0.95447 -0.587509,1.8158 0.03106,1.56549 0.264,-0.10683 0.664132,-0.26941 0.889182,-0.3613 0.552907,-0.22574 1.39632,0.47961 1.669257,1.396 0.188368,0.63246 -0.126298,1.09348 -2.023197,2.96425 -2.052157,2.02388 -3.062635,3.78609 -2.495954,4.35277 0.239671,0.23967 2.088071,-0.51598 3.043867,-1.24437 0.419735,-0.31988 1.247735,-0.58159 1.84,-0.58159 0.923226,0 1.076845,0.10952 1.076845,0.76772 0,0.42224 -0.567578,1.61024 -1.261283,2.64 -0.693705,1.02975 -1.123297,1.92109 -0.954648,1.98073 0.168649,0.0596 0.816459,-0.19235 1.439573,-0.56 2.132192,-1.25802 2.91806,-0.56424 1.655792,1.46178 -0.421405,0.67637 -0.859152,1.48177 -0.972768,1.78977 -0.344634,0.93424 0.855328,0.67372 2.428736,-0.52728 2.000544,-1.52705 2.579468,-1.79771 3.12184,-1.4595 0.325449,0.20294 0.367808,0.4169 0.142758,0.72109 -0.979402,1.32379 -2.4,3.58872 -2.4,3.82643 0,0.5942 2.068179,-0.99489 4.194134,-3.22256 1.229191,-1.28801 2.408362,-2.28473 2.620381,-2.21494 0.662471,0.21807 0.630656,1.56436 -0.05901,2.49718 -1.345107,1.81936 -1.890637,3.12177 -2.001616,4.77871 -0.145008,2.16496 0.376173,2.39913 1.472905,0.6618 0.9117,-1.44423 1.77321,-1.7187 1.77321,-0.56493 0,0.4048 -0.124346,0.8728 -0.276326,1.04 -0.491181,0.54038 -0.959911,2.32223 -0.785911,2.9876 0.158519,0.60619 0.217875,0.61539 0.935747,0.14502 0.421568,-0.27622 0.76649,-0.65432 0.76649,-0.84022 0,-0.18591 0.197501,-0.56534 0.438886,-0.8432 0.241389,-0.27786 0.687562,-1.26903 0.991498,-2.2026 0.403853,-1.24048 0.693885,-1.67019 1.077437,-1.59632 0.722877,0.13921 0.823094,0.98937 0.264182,2.24106 -0.641798,1.4373 -0.867187,2.91032 -0.529033,3.45747 0.228905,0.37037 0.404972,0.31172 0.949724,-0.31638 0.367799,-0.42408 0.600999,-0.94754 0.518221,-1.16326 -0.08278,-0.21571 0.04191,-0.46604 0.277079,-0.55628 0.235171,-0.0902 0.597248,-0.67816 0.804611,-1.30648 0.301005,-0.91206 0.541325,-1.14241 1.191837,-1.14241 0.89496,0 0.882684,-0.30899 0.201753,5.07843 -0.133849,1.059 -0.07625,1.36492 0.237325,1.2604 0.635469,-0.21182 1.585405,-2.2707 1.764691,-3.82476 0.159242,-1.38035 0.895383,-2.35323 1.498535,-1.98046 0.186249,0.11511 0.235552,1.14501 0.12206,2.54975 -0.200803,2.48545 0.09368,2.99795 0.802487,1.39664 0.684358,-1.54607 1.856601,-1.1808 2.310678,0.72 0.256295,1.07287 0.602749,1.11755 1.123299,0.1449 0.967613,-1.80801 2.59473,-1.73564 2.59473,0.1154 0,1.12238 0.41479,1.40306 1.286474,0.87054 0.579132,-0.35379 0.736444,-0.32459 1.133014,0.21032 0.253283,0.34164 0.460512,0.87227 0.460512,1.17917 0,0.94103 0.619866,2.24989 0.964621,2.03682 0.1792,-0.11075 0.24335,-0.33481 0.142553,-0.4979 z M 12.523511,265.55995 c -0.597245,-0.22606 -0.710579,-0.43722 -0.538396,-1.00314 0.119951,-0.39425 0.329992,-1.14882 0.466759,-1.67682 0.136766,-0.528 0.539056,-1.536 0.893976,-2.24 0.354921,-0.704 0.581718,-1.45874 0.503993,-1.67721 -0.582763,-1.63801 4.376891,-9.04279 6.056784,-9.04279 0.802335,0 0.733087,1.08567 -0.146627,2.29882 -0.512116,0.70621 -0.604509,1.03355 -0.32,1.1337 1.431497,0.50393 -1.606829,4.87587 -3.403636,4.89759 L 15.2,258.2602 l 0.88,0.77454 c 0.484,0.42599 0.88,0.9337 0.88,1.12824 0,0.19454 -0.648,1.2808 -1.44,2.4139 -0.792,1.13311 -1.44,2.18721 -1.44,2.34246 0,0.59395 -0.804721,0.92514 -1.556489,0.64059 z m 36.685286,27.0619 c 0.413606,-0.2897 0.711203,-0.83411 0.711203,-1.30104 0,-0.44159 0.153338,-1.08941 0.340752,-1.4396 0.187414,-0.35018 0.284598,-0.80517 0.215965,-1.01107 -0.06864,-0.2059 -0.653975,0.45288 -1.300755,1.46395 -1.589626,2.48499 -1.576279,3.41483 0.03283,2.28776 z m 42.615485,-0.26051 c 0.345052,-0.90756 0.226704,-2.35836 -0.229607,-2.81467 -0.36335,-0.36335 -1.180217,2.75894 -0.858147,3.28006 0.319421,0.51684 0.791024,0.31506 1.087754,-0.46539 z m -20.949178,-1.11291 c -0.281914,-0.28191 -0.79399,0.37826 -0.783763,1.01045 0.01094,0.67613 0.0271,0.67263 0.453814,-0.0984 0.24336,-0.43974 0.39184,-0.85016 0.329949,-0.91205 z M 31.84,290.87999 c -0.154824,-0.25051 -0.338902,-0.2691 -0.552235,-0.0558 -0.176,0.176 -0.215494,0.48909 -0.08777,0.69576 0.154824,0.25051 0.338902,0.2691 0.552235,0.0558 0.176,-0.176 0.215494,-0.4891 0.08777,-0.69577 z m 44.659584,-2.56 c 0.243187,-0.616 1.382269,-2.50005 2.53129,-4.18679 2.502428,-3.67351 2.979225,-4.46977 2.789852,-4.65915 -0.138268,-0.13827 -0.462006,0.27859 -3.251052,4.18616 -0.698679,0.97888 -1.372109,1.77978 -1.496516,1.77978 -0.124403,0 -0.682208,0.79704 -1.239564,1.7712 -0.833818,1.45736 -0.942442,1.85666 -0.613047,2.25356 0.468176,0.56412 0.678829,0.37558 1.279037,-1.14476 z M 31.04,286.78399 c 0,-0.3168 0.1602,-0.7362 0.356,-0.932 0.67712,-0.67712 0.133925,-1.02791 -0.660227,-0.42638 -0.630566,0.47764 -0.709486,0.68408 -0.402776,1.05365 0.209798,0.25279 0.2867,0.55437 0.170893,0.67018 -0.115806,0.1158 -0.04256,0.21055 0.162777,0.21055 0.205333,0 0.373333,-0.2592 0.373333,-0.576 z m 7.428259,-1.024 c -0.07749,-0.528 -0.268553,-0.96 -0.424579,-0.96 -0.330899,0 -0.345664,0.2161 -0.08199,1.2 0.283981,1.05968 0.670445,0.87658 0.506566,-0.24 z m -8.256705,-2.58455 c 0.455645,-0.5415 0.828446,-1.24208 0.828446,-1.55685 0,-0.31476 0.304417,-0.95929 0.676481,-1.43229 0.372066,-0.47301 0.618649,-0.91784 0.547967,-0.98853 -0.07069,-0.0707 -0.843101,0.19979 -1.716482,0.60105 l -1.587966,0.72957 -0.0041,1.8158 c -0.0023,0.99869 0.09293,1.8158 0.211554,1.8158 0.118624,0 0.58848,-0.44305 1.044125,-0.98455 z M 33.44,283.57333 c 0,-0.57877 -0.626336,-0.47311 -0.75056,0.12661 -0.06912,0.33367 0.05084,0.47996 0.32,0.39024 0.236806,-0.0789 0.43056,-0.31152 0.43056,-0.51685 z m 6.81657,-0.52191 c 0.225859,-0.49571 0.244713,-0.85939 0.05076,-0.97926 -0.24765,-0.15305 -0.94733,1.04984 -0.94733,1.62866 0,0.44806 0.591859,0.0194 0.89657,-0.6494 z M 26.4,279.46377 c 1.885469,-1.24627 3.037181,-2.35088 3.803223,-3.64769 0.498308,-0.84357 0.503882,-0.96112 0.05377,-1.13385 -0.821342,-0.31518 -4.016993,1.5565 -4.016993,2.35273 0,0.16081 -0.504,1.00127 -1.12,1.86768 -0.616,0.86642 -1.12,1.69226 -1.12,1.83521 0,0.29225 0.153998,0.21049 2.4,-1.27408 z m -8.8,-2.52266 c 0,-0.25362 -0.144,-0.46112 -0.32,-0.46112 -0.176,0 -0.32,0.2965 -0.32,0.65889 0,0.36239 0.144,0.56989 0.32,0.46111 0.176,-0.10877 0.32,-0.40527 0.32,-0.65888 z m 2.24,-0.84202 c 0,-0.4206 -0.72729,-0.15723 -0.886739,0.32112 -0.07795,0.23384 0.06835,0.30536 0.38,0.18576 0.278706,-0.10695 0.506739,-0.33504 0.506739,-0.50688 z m -4.258962,-2.5791 c 0.563018,-1.05034 0.790051,-2.48 0.393831,-2.48 -1.177376,0 -2.214869,0.47587 -2.214869,1.01589 0,0.6126 0.846008,2.50411 1.12,2.50411 0.07896,0 0.394428,-0.468 0.701038,-1.04 z M 12.16,267.77599 c 0,-0.51693 -0.09463,-0.60937 -0.356118,-0.34788 -0.195864,0.19586 -0.259366,0.51266 -0.141114,0.704 0.331005,0.53558 0.497232,0.41653 0.497232,-0.35612 z m 87.226173,-27.136 c 0.249603,0 0.453827,-0.12721 0.453827,-0.28269 0,-0.38982 -1.69593,-0.69015 -2.036118,-0.36057 -0.406618,0.39393 0.103344,1.03664 0.654659,0.82508 0.260592,-0.1 0.678025,-0.18182 0.927632,-0.18182 z m -81.012877,-3.0858 c 0.304872,-0.79448 -0.03116,-0.90296 -0.438628,-0.1416 -0.196576,0.3673 -0.223629,0.6674 -0.06016,0.6674 0.163362,0 0.387818,-0.23661 0.498791,-0.5258 z m 4.713328,-3.33798 c 0.71562,-0.36508 2.456337,-1.82835 3.86826,-3.25171 2.752964,-2.77525 4.139537,-5.16256 4.696364,-8.08589 0.167474,-0.87924 0.393008,-1.82754 0.501187,-2.10735 0.324691,-0.8398 -0.614981,-1.3375 -2.063253,-1.09282 -1.439306,0.24317 -2.739106,1.5921 -4.318342,4.48155 -0.480965,0.88 -1.059385,1.816 -1.285377,2.08 -0.512793,0.59904 -1.766228,3.0717 -2.10416,4.15089 -0.139347,0.44501 -0.53663,1.55663 -0.882851,2.47026 -0.853055,2.25111 -0.596795,2.46976 1.588172,1.35507 z m 4.764549,-10.68275 c -0.313311,-0.37752 -0.231974,-0.62176 0.426273,-1.28 0.447405,-0.44741 0.961265,-0.81347 1.141912,-0.81347 0.413609,0 0.790911,1.43897 0.545196,2.07929 -0.235812,0.61452 -1.607507,0.62372 -2.113381,0.0142 z M 47.04,349.15423 c 0,-0.32438 0.974653,-0.76624 1.197843,-0.54307 0.08044,0.0805 0.05132,0.29984 -0.06468,0.48755 -0.255299,0.41309 -1.133158,0.4561 -1.133158,0.0555 z m 97.25333,-95.83551 c -0.0733,-0.0667 -0.85333,-0.20509 -1.73333,-0.30753 -1.95283,-0.22734 -2.30027,-0.31469 -6.72,-1.68944 -4.04658,-1.25868 -3.86744,-1.15896 -5.10491,-2.84176 -0.51769,-0.704 -1.0708,-1.3691 -1.22913,-1.47801 -0.15832,-0.10891 -1.10194,0.29832 -2.09691,0.90496 -1.59549,0.97276 -1.99249,1.08244 -3.36293,0.92908 -0.85464,-0.0956 -1.74424,-0.33188 -1.9769,-0.52498 -0.23267,-0.19309 -1.11742,-0.41203 -1.96612,-0.48652 -3.21258,-0.28198 -3.53126,-0.40532 -3.73967,-1.44735 -0.16365,-0.81826 -0.0109,-1.15181 0.98548,-2.15273 0.64852,-0.65145 1.88261,-1.6403 2.74242,-2.19745 1.38627,-0.8983 1.75948,-0.99618 3.29598,-0.86442 2.09526,0.17967 2.34979,-0.40899 0.63507,-1.46875 -1.382,-0.85411 -2.86431,-2.53107 -3.72013,-4.20862 -0.69886,-1.36988 -2.00502,-6.0491 -1.75761,-6.29652 0.36502,-0.36501 2.70202,0.41492 5.23912,1.74847 1.52693,0.80258 3.07788,1.61493 3.44654,1.80523 0.36866,0.1903 0.84873,0.74911 1.06682,1.24181 0.21809,0.49269 0.59,0.8958 0.82648,0.8958 0.23647,0 0.73405,0.38661 1.10574,0.85913 1.70124,2.16278 3.19677,2.29921 6.35587,0.57981 1.56184,-0.85006 1.66595,-0.86523 2.44307,-0.35604 0.47624,0.31204 0.81172,0.83351 0.81172,1.26171 0,0.74891 -1.62811,2.52446 -2.64,2.87906 -0.38869,0.13621 -0.56,0.53745 -0.56,1.31163 0,0.95506 0.21849,1.28156 1.52,2.2714 0.836,0.63581 2.852,2.68182 4.48,4.54671 2.93889,3.36651 3.54048,4.59537 2.45383,5.01236 -0.59547,0.2285 -0.62639,0.23132 -0.8005,0.073 z m -5.48267,-4.96347 c -0.40186,-0.45577 -1.68175,-1.85258 -2.84419,-3.10401 -2.16312,-2.32872 -2.88473,-3.897 -2.01865,-4.38715 0.2487,-0.14074 0.45218,-0.47127 0.45218,-0.7345 0,-0.37394 -0.24568,-0.43251 -1.12351,-0.26783 -0.71274,0.13371 -1.29772,0.0662 -1.6,-0.18468 -0.26207,-0.2175 -0.47649,-0.27875 -0.47649,-0.13611 0,0.14263 -1.2086,-0.97399 -2.68577,-2.48139 -1.81505,-1.85219 -3.26102,-3.01286 -4.46018,-3.58015 -2.14926,-1.01676 -2.13683,-1.01607 -2.12271,-0.11944 0.0223,1.41585 2.0254,3.99617 5.50866,7.09604 0.484,0.43073 0.88,1.01537 0.88,1.2992 0,0.71343 -2.41493,1.74915 -4.0984,1.75774 l -1.3784,0.007 0.0984,1.34624 c 0.0942,1.28859 0.14746,1.35096 1.24397,1.45625 0.8375,0.0804 1.73183,-0.19557 3.32549,-1.02624 1.19896,-0.62494 2.3168,-1.13625 2.4841,-1.13625 0.1673,0 1.19083,0.80278 2.27451,1.78395 2.32336,2.10359 6.1953,4.13328 6.84935,3.59047 0.34194,-0.28379 0.28326,-0.50818 -0.30836,-1.17916 z m 7.28748,-14.18646 c -0.27397,-0.39116 -0.49814,-0.95983 -0.49814,-1.26371 0,-0.61449 1.87626,-2.18509 2.61034,-2.18509 0.75987,0 2.16071,-1.69251 2.39326,-2.89157 0.11823,-0.60964 0.52656,-1.42584 0.90741,-1.81379 0.38084,-0.38795 0.96225,-1.20637 1.29202,-1.81871 0.32977,-0.61234 0.87516,-1.18541 1.21199,-1.27349 1.43297,-0.37473 -0.60744,-1.85926 -3.09992,-2.25538 -0.67517,-0.1073 -1.62951,-0.48128 -2.12074,-0.83108 -0.49124,-0.34978 -1.02034,-0.63598 -1.17579,-0.63598 -0.40149,0 -3.29857,-2.99172 -3.29857,-3.40633 0,-0.1894 -0.35157,-0.86242 -0.78126,-1.49561 -0.92783,-1.36723 -1.72146,-4.88334 -1.21626,-5.38853 0.44157,-0.44158 1.6146,-0.0452 2.44748,0.827 0.65563,0.68659 2.23903,1.32852 6.75004,2.73654 1.232,0.38454 2.528,0.93942 2.88,1.23305 1.10806,0.92434 1.93819,1.27398 3.55297,1.4965 0.86187,0.11877 1.99903,0.359 2.52703,0.53385 0.82334,0.27264 1.25609,0.16218 3.04,-0.77601 3.1527,-1.65807 3.63912,-1.91673 4.16,-2.21223 1.50736,-0.85511 1.75602,-0.73005 2.08237,1.04732 0.21174,1.15315 0.0126,1.37707 -1.4957,1.68141 -0.11734,0.0237 -0.32134,0.15104 -0.45334,0.28304 -0.132,0.132 -0.45441,0.24 -0.71646,0.24 -0.26205,0 -0.92205,0.33563 -1.46667,0.74583 -0.54461,0.41021 -1.72983,1.00877 -2.63382,1.33014 l -1.64362,0.5843 -3.47638,-1.2062 c -1.91201,-0.66341 -4.19638,-1.53021 -5.07638,-1.92622 -2.26954,-1.02133 -3.3434,-1.39108 -4.7537,-1.63678 -1.22101,-0.21272 -1.22951,-0.20709 -0.82593,0.547 0.22428,0.41906 0.37697,0.803 0.33932,0.85319 -0.2741,0.36539 1.71769,2.01136 3.16031,2.6116 8.12304,3.37982 8.43692,3.61607 6.79579,5.11502 -1.23103,1.12438 -1.38554,2.16528 -0.31579,2.12753 0.58489,-0.0206 0.73882,0.16975 0.82028,1.01459 0.0551,0.572 0.20331,1.04 0.32924,1.04 0.12593,0 1.16081,-0.94175 2.29972,-2.09278 1.74653,-1.76511 2.19602,-2.06236 2.87076,-1.89841 1.08838,0.26445 2.99437,2.17025 3.72211,3.72174 0.49596,1.05734 0.95087,1.43649 2.66831,2.22392 1.77016,0.81159 2.48149,0.95386 4.90496,0.98101 2.15781,0.0242 2.95222,-0.0859 3.32744,-0.46116 0.61673,-0.61672 0.35941,-1.05979 -0.7798,-1.34273 -1.8068,-0.44876 -5.73461,-2.17 -7.28302,-3.19157 -0.88,-0.58058 -1.90845,-1.15136 -2.28545,-1.26841 -1.14291,-0.35483 -1.11753,-1.32785 0.0737,-2.82621 0.59704,-0.75097 1.08693,-1.56874 1.08863,-1.81728 0.004,-0.6495 1.56865,-3.22812 1.95816,-3.22812 0.18245,0 0.23791,-0.28408 0.12495,-0.64 -0.15842,-0.49912 -0.0575,-0.64 0.45844,-0.64 0.76807,0 1.94156,1.06209 1.94156,1.75724 0,0.26247 -0.504,1.1375 -1.12,1.9445 -0.616,0.80701 -1.12,1.61403 -1.12,1.79338 0,0.17934 -0.31313,0.76584 -0.69585,1.30332 l -0.69585,0.97722 0.67246,0.54452 c 0.36984,0.29949 1.72698,0.87628 3.01584,1.28177 1.28887,0.40549 2.57568,0.9354 2.85957,1.17759 0.2839,0.24218 0.79577,0.49418 1.1375,0.55999 1.04605,0.20145 2.85506,1.03554 5.13301,2.36672 2.88107,1.68361 3.93876,2.68384 3.72052,3.51838 -0.32353,1.23718 -1.12232,1.59535 -3.9472,1.76989 -1.67046,0.10321 -2.16436,0.077 -1.28,-0.0679 0.792,-0.12978 1.78703,-0.42675 2.21117,-0.65993 1.23663,-0.67986 0.12962,-1.02386 -2.08593,-0.64819 -2.94342,0.49909 -7.17145,0.39996 -8.61192,-0.2019 -0.68526,-0.28632 -1.7205,-0.52059 -2.30052,-0.52059 -0.58002,0 -1.12694,-0.11707 -1.21537,-0.26015 -0.0884,-0.14309 -0.73915,-0.35787 -1.44604,-0.4773 -1.35289,-0.22857 -1.89431,-0.88577 -2.37141,-2.87855 -0.2551,-1.06549 -1.04007,-2.08 -1.6094,-2.08 -0.20362,0 -0.68875,0.43084 -1.07806,0.95741 -0.38931,0.52657 -1.2444,1.22651 -1.90018,1.55541 -1.39586,0.70008 -5.25853,1.96718 -5.99681,1.96718 -0.28085,0 -1.33075,0.55414 -2.33309,1.23141 -1.80351,1.21862 -5.31969,3.24859 -5.627,3.24859 -0.0875,0 -0.38332,-0.32004 -0.6573,-0.7112 z m 9.34984,-6.67164 c 0.80928,-0.28212 0.9673,-0.49467 0.8921,-1.2 -0.0503,-0.47144 -0.21934,-0.80089 -0.37573,-0.73212 -0.98083,0.43132 -1.72435,1.15217 -1.72435,1.67177 0,0.7082 -0.0474,0.69798 1.20798,0.26035 z m -1.20798,3.86284 c 0,-0.176 0.216,-0.32 0.48,-0.32 0.264,0 0.48,0.144 0.48,0.32 0,0.176 -0.216,0.32 -0.48,0.32 -0.264,0 -0.48,-0.144 -0.48,-0.32 z M 51.68,217.98816 c -0.352,-0.0717 -0.761341,-0.24485 -0.909645,-0.38487 -0.443523,-0.41876 0.413117,-1.63083 1.394349,-1.97289 0.617866,-0.21539 0.968493,-0.59696 1.07943,-1.17471 0.800516,-4.16895 0.926026,-4.58927 1.422781,-4.76471 0.293197,-0.10355 0.752848,-0.37552 1.021443,-0.60439 0.832765,-0.70958 2.997172,-0.90649 3.486266,-0.31717 0.233059,0.28081 0.591661,0.51057 0.796896,0.51057 0.600288,0 2.920061,-1.27022 2.78743,-1.52629 -0.06658,-0.12854 -0.858576,-0.59371 -1.76,-1.03371 -1.940361,-0.94712 -3.23856,-2.62384 -2.745225,-3.54564 0.174925,-0.32685 0.999398,-0.98816 1.83216,-1.46958 0.832765,-0.48141 2.306115,-1.40268 3.274115,-2.04727 0.968,-0.64457 2.978192,-1.81922 4.467094,-2.61032 2.128733,-1.13106 2.838116,-1.69082 3.320333,-2.62004 0.53329,-1.02762 0.743568,-1.169 1.612906,-1.08441 2.066989,0.20111 1.064656,2.72964 -1.914467,4.82952 -2.156333,1.51992 -3.027229,4.74065 -1.728388,6.39186 0.528055,0.67131 1.008688,0.84724 2.8,1.0249 1.799616,0.17848 2.672682,0.0723 5.202522,-0.63268 1.672,-0.46593 3.76,-1.13833 4.64,-1.49422 1.639043,-0.66287 3.68,-2.32986 3.68,-3.00571 0,-0.85372 0.854534,-1.13492 1.966054,-0.64697 0.590669,0.25931 1.47361,0.55593 1.962087,0.65916 0.942355,0.19914 2.151859,1.21405 2.151859,1.80564 0,0.21451 -0.22089,0.26056 -0.56,0.11674 -0.308,-0.13062 -0.848,-0.25403 -1.2,-0.27423 -0.537514,-0.0308 -0.623494,0.1329 -0.536931,1.02267 0.05669,0.58268 -0.06894,1.26668 -0.279181,1.52 -0.447587,0.53931 -1.771597,0.61352 -2.078762,0.11652 -0.456518,-0.73866 -2.950636,2.27495 -3.350646,4.04854 l -0.247082,1.09552 3.086301,-0.002 c 1.697466,-9.6e-4 3.598109,-0.14396 4.223651,-0.31774 1.508333,-0.41902 4.14521,-0.48806 6.70265,-0.1755 2.71777,0.33216 3.52,0.65705 3.52,1.42554 0,0.67946 -0.37892,0.85285 -2.525613,1.15571 -0.773088,0.10906 -2.751398,0.68545 -4.396246,1.28086 -5.508653,1.99405 -10.811533,3.45348 -13.977424,3.84678 -2.901235,0.36042 -3.265191,0.34216 -4.799658,-0.24089 -0.913206,-0.347 -2.046838,-0.85919 -2.519184,-1.13821 -0.738758,-0.4364 -1.096659,-0.45181 -2.560342,-0.11026 -1.923715,0.44889 -5.043907,0.13257 -7.078775,-0.71766 -1.003577,-0.41932 -1.500464,-0.4416 -3.024102,-0.13561 -1.002765,0.20138 -2.314781,0.69974 -2.915587,1.10746 -0.60081,0.40772 -1.240944,0.74131 -1.422528,0.74131 -0.181581,0 -0.573645,0.22036 -0.871251,0.48969 -0.669005,0.60544 -2.175328,1.03232 -3.02929,0.85848 z m 33.68,-3.43188 c 0.924,-0.26196 2.457427,-0.69827 3.407616,-0.96958 0.950189,-0.27131 2.112141,-0.84966 2.582115,-1.28521 0.469975,-0.43556 0.985575,-0.71092 1.145773,-0.61192 0.349526,0.21602 1.584496,-0.39748 1.584496,-0.78713 0,-0.15128 -0.519264,-0.15793 -1.153917,-0.0148 -2.284509,0.51524 -8.553689,0.70699 -10.636211,0.32533 -2.801114,-0.51337 -4.262614,-1.24659 -4.14351,-2.07875 0.05692,-0.39765 0.376281,-0.69437 0.814339,-0.75658 0.396387,-0.0563 0.880064,-0.40012 1.074841,-0.76406 0.339901,-0.63511 0.290772,-0.65562 -1.222268,-0.51024 -0.867021,0.0833 -2.012848,0.3692 -2.546279,0.63531 -0.63128,0.31492 -2.020198,0.50037 -3.978435,0.5312 -2.892621,0.0455 -5.81919,0.52355 -6.563424,1.07205 -0.891245,0.65685 -3.288202,1.10809 -4.833197,0.90989 -0.896195,-0.11498 -1.967507,-0.0786 -2.380694,0.0809 l -0.751245,0.28993 0.724653,0.2801 c 0.39856,0.15406 0.862998,0.64397 1.03208,1.08869 0.206307,0.54262 0.550509,0.80859 1.046438,0.80859 0.406455,0 1.558423,0.288 2.559927,0.64 1.871481,0.65777 4.858131,0.84481 5.634672,0.35287 0.353414,-0.22389 0.307164,-0.40794 -0.24,-0.9551 -0.372772,-0.37278 -0.67777,-0.96578 -0.67777,-1.31778 0,-0.89099 1.724531,-0.85888 3.2,0.0596 0.616,0.38345 1.696,0.77969 2.4,0.88053 1.162963,0.16658 1.28,0.26975 1.28,1.12828 0,0.89206 0.112499,0.97355 2.01041,1.45621 2.23648,0.56875 5.565427,0.38038 8.62959,-0.48832 z m -27.917549,-2.97956 c -0.188681,-0.48651 -0.250934,-0.4786 -0.665305,0.0844 -0.6136,0.83375 -0.57617,1.38819 0.102854,1.52347 0.615309,0.12258 0.908512,-0.71562 0.562451,-1.60791 z m 9.168762,-7.27242 c -0.05085,-1.13228 0.02067,-2.23995 0.158909,-2.4615 0.373763,-0.59895 0.465388,-1.52281 0.151024,-1.52281 -0.151159,0 -0.618256,0.26149 -1.037991,0.58109 -0.419734,0.3196 -1.411155,0.90619 -2.203155,1.30354 -2.22079,1.11416 -2.442301,1.58088 -1.261994,2.65892 0.576125,0.52621 1.344567,0.89645 1.860583,0.89645 0.483497,0 1.158384,0.20423 1.499747,0.45384 0.34136,0.24961 0.68921,0.38529 0.772995,0.3015 0.08378,-0.0838 0.11073,-1.07875 0.05988,-2.21103 z M 120.96,213.43999 c 0,-0.176 0.144,-0.32 0.32,-0.32 0.176,0 0.32,0.144 0.32,0.32 0,0.176 -0.144,0.32 -0.32,0.32 -0.176,0 -0.32,-0.144 -0.32,-0.32 z m 0.19059,-0.9105 c -0.12915,-0.20897 -0.34717,-0.3105 -0.48448,-0.22563 -0.13732,0.0849 -0.55842,-0.20078 -0.93578,-0.63478 -0.37735,-0.434 -0.86705,-0.79921 -1.08821,-0.81158 -0.22117,-0.0123 -0.11412,-0.14124 0.23788,-0.28639 0.41264,-0.17015 0.89527,-0.10303 1.35859,0.18894 0.42733,0.26931 1.07583,0.37489 1.6,0.26051 0.52784,-0.11518 0.72735,-0.082 0.49735,0.0826 -0.21123,0.1512 -0.51152,0.61946 -0.6673,1.04059 -0.18764,0.50723 -0.3625,0.63743 -0.51805,0.38575 z m -1.66269,-3.1699 c -0.51532,-0.35067 -1.0879,-1.54296 -1.0879,-2.26535 0,-0.52711 1.54944,-4.24726 2.58641,-6.2099 0.16147,-0.30562 0.29359,-0.75598 0.29359,-1.00082 0,-0.24484 0.216,-0.62442 0.48,-0.84353 0.264,-0.2191 0.48,-0.67608 0.48,-1.01551 0,-0.39458 0.3774,-0.77483 1.0465,-1.0544 0.57557,-0.24049 1.33022,-0.75077 1.677,-1.13395 l 0.63051,-0.69671 -0.93556,-0.80473 c -0.96662,-0.83145 -1.37989,-0.85399 -4.58994,-0.25037 -0.57832,0.10875 -1.52571,0.0412 -2.10531,-0.15007 -0.91471,-0.30188 -3.94025,-2.10504 -6.20051,-3.69537 -1.15775,-0.8146 -3.60793,-4.84455 -4.10445,-6.7508 -0.60401,-2.31897 -0.57835,-2.92129 0.14089,-3.30621 0.91601,-0.49024 2.42281,0.0893 4.12731,1.58746 1.70609,1.49954 6.83753,3.80687 9.46132,4.25424 0.72463,0.12355 0.94673,0.19042 2.77224,0.83464 3.74657,1.32218 4.9807,1.80978 5.14589,2.03312 0.41218,0.55729 2.43602,1.41587 3.39319,1.43951 0.56048,0.0139 1.19012,-0.18094 1.39918,-0.43284 0.20906,-0.2519 0.64197,-0.45801 0.96204,-0.45801 0.32006,0 0.67357,-0.14828 0.78558,-0.32951 0.11201,-0.18123 1.18637,-0.97693 2.38747,-1.76822 1.2011,-0.79129 2.41727,-1.79501 2.70261,-2.23049 0.28534,-0.43547 0.71438,-0.79178 0.95344,-0.79178 0.23905,0 0.80119,-0.468 1.24919,-1.04 3.15405,-4.02701 5.4711,-5.13567 6.24729,-2.98918 0.3593,0.99363 0.32028,1.20033 -0.43792,2.32 -0.4578,0.67605 -2.31384,2.66918 -4.12454,4.42918 -3.89891,3.78974 -4.46539,4.59752 -4.02904,5.74523 0.17038,0.44813 0.49029,0.81477 0.71091,0.81477 0.22062,0 1.34019,0.34022 2.48792,0.75604 1.14773,0.41581 2.89751,0.99373 3.8884,1.28425 0.99088,0.29052 2.34908,0.89974 3.01823,1.35384 0.66914,0.45409 2.18344,1.31834 3.36512,1.92055 1.9518,0.99469 4.13504,2.77023 4.13504,3.36285 0,0.12981 -0.37661,0.53227 -0.83692,0.89434 -0.73442,0.5777 -1.15571,0.63913 -3.44,0.5016 -6.06322,-0.36506 -9.57718,-1.07376 -12.1492,-2.45026 -1.05649,-0.56541 -5.7848,-1.84959 -6.83559,-1.85649 -1.20972,-0.008 -2.85126,0.87944 -5.08243,2.74751 -1.59977,1.33942 -2.74254,1.95264 -6.21586,3.33549 -2.30326,0.91702 -2.82529,1.41756 -2.94271,2.82157 -0.0969,1.15817 -0.6636,1.59581 -1.40939,1.08831 z m 5.76854,-6.828 c 0.17876,-0.16673 0.0835,-0.51178 -0.24,-0.86923 -0.29504,-0.32602 -0.53644,-0.85808 -0.53644,-1.18237 0,-0.70261 0.88817,-1.76 1.47834,-1.76 0.54161,0 1.18237,1.19598 0.95634,1.78501 -0.30031,0.7826 0.25096,0.50852 2.30296,-1.14501 1.09207,-0.88 2.16882,-1.6 2.39277,-1.6 0.22395,0 0.73361,-0.22863 1.13257,-0.50807 0.82562,-0.57829 3.245,-0.41855 5.17702,0.34181 0.616,0.24243 1.948,0.68673 2.96,0.98733 1.012,0.3006 1.84,0.72935 1.84,0.95278 0,0.24374 0.24697,0.34165 0.61743,0.24478 0.33959,-0.0888 1.02359,0.0635 1.52,0.33838 1.5691,0.86899 6.96732,2.11451 7.98493,1.84236 1.07822,-0.28836 1.1634,-0.63334 0.27764,-1.12449 -0.352,-0.19518 -0.71649,-0.45638 -0.80997,-0.58045 -0.28973,-0.38452 -6.40572,-3.43318 -7.13777,-3.55799 -0.38074,-0.0649 -0.90826,-0.1971 -1.17226,-0.29374 -1.52659,-0.55881 -4.13167,-1.16229 -4.96,-1.149 -1.70815,0.0274 -2.00843,-0.0456 -2.19587,-0.53407 -0.21041,-0.54834 0.90058,-2.31537 2.57352,-4.09315 0.62808,-0.66744 1.06332,-1.29218 0.96719,-1.3883 -0.20665,-0.20665 -4.27784,1.68982 -4.54074,2.1152 -0.0994,0.16091 -0.8367,0.73521 -1.63831,1.27622 l -1.45749,0.98365 -2.29415,-1.42953 c -2.88784,-1.79947 -4.68137,-2.59283 -8.10606,-3.58568 -1.49418,-0.43318 -3.53376,-1.15539 -4.53239,-1.60491 -3.51533,-1.58236 -6.24301,-2.64458 -6.45485,-2.51365 -0.48782,0.30149 0.12149,2.10388 0.91429,2.70455 5.38971,4.08354 5.99415,4.42965 7.92375,4.53725 1.03461,0.0577 2.02511,0.0178 2.20111,-0.0887 0.64277,-0.38891 3.30444,0.68902 4.1331,1.67383 1.31462,1.56232 1.11134,2.52942 -0.92232,4.38807 -2.02758,1.8531 -2.98892,3.78527 -2.41599,4.8558 0.36367,0.67953 1.32234,0.67084 2.06165,-0.0187 z m 51.88642,-20.95445 c -0.27658,-0.27657 -0.5064,-0.81657 -0.51073,-1.2 -0.0102,-0.90307 -0.94584,-3.63288 -2.2132,-6.45714 -0.55285,-1.232 -1.31292,-2.93952 -1.68905,-3.79449 -0.66819,-1.51884 -0.71113,-1.55084 -1.87239,-1.39508 -0.65369,0.0877 -1.60004,0.45835 -2.10301,0.82371 -0.50296,0.36536 -1.40478,0.74713 -2.00404,0.84837 -0.59926,0.10124 -1.96017,0.47736 -3.02424,0.83582 -1.08374,0.36509 -2.99722,0.6904 -4.35044,0.73962 -1.32867,0.0483 -2.81681,0.19882 -3.30697,0.33441 -1.40777,0.38942 -2.21103,-0.53349 -2.0031,-2.30149 0.22117,-1.88054 0.59836,-2.48888 1.84208,-2.97091 0.57873,-0.22429 1.91623,-0.79978 2.97223,-1.27885 2.80237,-1.27136 3.80944,-1.53412 7.3365,-1.91422 3.39913,-0.3663 4.0235,-0.63887 4.0235,-1.75648 0,-0.71953 -0.89198,-1.77041 -1.50271,-1.77041 -0.18278,0 -0.98099,-0.72378 -1.7738,-1.6084 -1.05041,-1.17204 -1.4889,-1.96202 -1.6163,-2.91183 -0.0974,-0.72598 -0.46996,-1.57838 -0.84101,-1.92406 -0.3664,-0.34136 -0.66618,-0.7414 -0.66618,-0.889 0,-1.1464 3.34038,-1.45619 5.55308,-0.51499 2.15966,0.91864 4.23496,3.16493 5.1328,5.5557 0.44048,1.17291 0.84436,2.56458 0.8975,3.09258 0.0692,0.68763 0.2328,0.91481 0.57662,0.80071 0.264,-0.0876 1.39287,-0.1596 2.5086,-0.16 1.76095,-6.4e-4 2.11136,0.10155 2.65593,0.77442 0.93401,1.15404 0.67363,2.3266 -0.58878,2.65144 -0.56333,0.14496 -1.10228,0.38982 -1.19765,0.54414 -0.0954,0.15432 0.12973,1.19604 0.50024,2.31494 0.45335,1.36909 0.66122,2.76685 0.63566,4.27435 -0.0401,2.36667 -0.0398,5.54866 6.4e-4,6.87092 0.0159,0.51791 -0.37094,1.15306 -1.12052,1.84 -1.29874,1.19021 -1.54704,1.25045 -2.25128,0.54622 z m 1.25815,-9.68789 c -0.12398,-2.21966 -0.27933,-2.85396 -0.84703,-3.45824 -0.89886,-0.95679 -1.87413,-1.26536 -2.22903,-0.70526 -0.38052,0.60055 -0.35533,2.75298 0.0351,2.99425 0.176,0.10877 0.32,0.73246 0.32,1.38597 0,0.86254 0.27836,1.5259 1.01562,2.42033 0.94299,1.14401 1.04571,1.19097 1.43642,0.65665 0.30129,-0.41205 0.37768,-1.34742 0.26897,-3.2937 z M 164.48,169.10216 c 7.75449,-2.25167 8.64,-2.62881 8.64,-3.67978 0,-0.86405 -1.07973,-1.04599 -2.96188,-0.4991 -0.92296,0.26818 -2.83012,0.69568 -4.23812,0.95 -2.8525,0.51523 -6.75518,1.86475 -7.47537,2.58494 -0.38173,0.38173 -0.39392,0.56091 -0.0651,0.95711 0.46969,0.56595 3.63197,0.40361 6.10047,-0.31317 z M 176,164.16 c 0,-0.176 -0.216,-0.32 -0.48,-0.32 -0.264,0 -0.48,0.144 -0.48,0.32 0,0.176 0.216,0.32 0.48,0.32 0.264,0 0.48,-0.144 0.48,-0.32 z m -2.86138,-3.71959 c 0.29042,-0.78678 -0.83577,-3.47005 -1.82498,-4.34821 -0.55928,-0.49651 -2.6974,-1.5322 -3.1631,-1.5322 -0.51612,0 0.2987,2.50717 1.09048,3.35531 0.49531,0.53058 1.30463,1.51102 1.79849,2.17877 0.96766,1.30836 1.69944,1.4291 2.09911,0.34633 z m -22.91178,19.3783 c -0.29451,-0.47653 0.047,-0.73562 0.65964,-0.50051 0.28275,0.1085 0.42446,0.34229 0.31492,0.51954 -0.25939,0.41969 -0.70884,0.41091 -0.97456,-0.019 z M 200.96,153.90236 c -1.496,-0.88944 -2.84794,-1.74448 -3.00431,-1.90008 -0.16506,-0.16424 -0.69479,0.12758 -1.26298,0.69578 -1.7753,1.7753 -5.59946,2.86188 -7.52269,2.13747 -0.41249,-0.15537 -1.85249,-0.34265 -3.2,-0.41618 -2.82328,-0.15406 -4.21002,-0.58653 -4.21002,-1.31292 0,-0.59809 2.13954,-2.70643 2.74647,-2.70643 0.22932,0 0.92291,-0.29853 1.54131,-0.6634 0.9502,-0.56062 1.47579,-0.63685 3.39298,-0.4921 2.75878,0.20829 3.11589,-0.20602 1.63315,-1.89478 -0.54665,-0.62259 -0.99391,-1.2621 -0.99391,-1.42111 0,-0.15901 -0.432,-0.76209 -0.96,-1.34018 -1.72631,-1.89006 -1.09251,-2.28292 2.24,-1.38843 0.968,0.25982 2.192,0.48029 2.72,0.48994 0.6683,0.0122 1.48984,0.47522 2.70375,1.5238 3.38541,2.92432 7.24591,6.96108 7.8145,8.17131 0.55568,1.18276 0.55529,1.2404 -0.0113,1.66982 -0.3228,0.24462 -0.6589,0.44925 -0.7469,0.45472 -0.088,0.005 -1.384,-0.71779 -2.88,-1.60723 z M 192,152.43544 c 2.22594,-0.30831 2.97357,-1.10987 1.97067,-2.11278 -0.30781,-0.30781 -0.67768,-0.23966 -1.74077,0.32074 -1.03924,0.54784 -1.57083,0.65025 -2.3099,0.445 -0.9254,-0.257 -2.72543,0.10293 -2.7151,0.5429 0.0206,0.87959 1.08011,1.34668 2.5551,1.12648 0.616,-0.092 1.624,-0.23702 2.24,-0.32234 z m 3.52,-4.68424 c 0,-0.8048 -0.9607,-1.75867 -1.91187,-1.89827 -1.19718,-0.17571 -1.22908,0.23967 -0.10826,1.40956 0.89084,0.92984 2.02013,1.20304 2.02013,0.48871 z m 10.35049,-10.32484 c -0.54996,-1.43316 -4.20023,-2.08598 -8.75049,-1.56494 -3.38703,0.38785 -4.93344,-0.62854 -3.5866,-2.35731 1.1216,-1.43965 9.39841,-3.07523 11.50638,-2.27378 0.60958,0.23176 1.03559,0.14695 1.87839,-0.37392 0.59951,-0.37052 1.41217,-0.7248 1.80592,-0.78731 0.39375,-0.0625 1.75588,-0.29057 3.02695,-0.50682 2.7937,-0.47529 3.92896,-0.13804 3.92896,1.16719 0,0.63831 -0.25153,0.92828 -1.12,1.29115 -0.616,0.25738 -1.12,0.59203 -1.12,0.74367 0,0.15164 -0.396,0.35528 -0.88,0.45253 -1.24811,0.25079 -3.0938,1.5712 -3.23515,2.31443 -0.24188,1.27182 -1.32511,2.38875 -2.31668,2.38875 -0.55933,0 -1.02595,-0.20246 -1.13768,-0.49364 z m 1.95691,-3.96597 c 0.10067,-0.1629 0.0148,-0.40012 -0.19072,-0.52717 -0.35702,-0.22065 -1.23668,0.64658 -1.23668,1.2192 0,0.31072 1.1532,-0.24838 1.4274,-0.69203 z m -4.05431,0.1285 c 1.2792,-0.29255 0.4153,-0.78889 -1.37309,-0.78889 -1.50901,0 -2.33247,0.28743 -1.93485,0.67536 0.21649,0.21122 2.53311,0.29073 3.30794,0.11353 z M 203.52,128.32 c -0.44,-0.14092 -1.25037,-0.27056 -1.80082,-0.28811 -2.017,-0.0643 -2.16647,-1.64903 -0.21625,-2.29266 1.30623,-0.4311 3.03499,-0.22456 4.13092,0.49352 0.93298,0.61131 0.95624,0.93716 0.12615,1.76725 -0.68212,0.68211 -0.97752,0.72431 -2.24,0.32 z m -17.26217,-7.18493 c -0.60619,-0.44829 -1.27219,-0.81507 -1.48,-0.81507 -0.20781,0 -0.47131,-0.46739 -0.58556,-1.03865 -0.39703,-1.98517 1.34849,-2.24484 3.22324,-0.47951 l 1.01552,0.95624 1.44016,-1.4198 c 0.79937,-0.78806 2.04165,-1.6183 2.79197,-1.86592 1.28032,-0.42255 1.42964,-0.40271 2.82432,0.37541 2.64064,1.47325 1.85758,2.30887 -2.07869,2.21822 -1.94178,-0.0447 -1.95533,-0.0387 -2.80454,1.24454 -0.46933,0.7092 -1.10329,1.29143 -1.40879,1.29383 -0.3055,0.003 -0.84346,0.0812 -1.19546,0.17508 -0.39427,0.10516 -1.06319,-0.14225 -1.74217,-0.64437 z m 14.49968,-6.15045 c -0.17315,-0.68986 -0.0466,-0.98937 0.65369,-1.5478 1.04903,-0.83647 3.7251,-1.71558 6.02232,-1.97837 1.2918,-0.14778 1.96148,-0.43852 2.86156,-1.24235 0.85705,-0.76539 1.59321,-1.10075 2.72,-1.23908 0.84971,-0.10431 2.53176,-0.35672 3.73791,-0.5609 2.40682,-0.40743 3.17573,-0.18802 3.34643,0.95491 0.1169,0.7827 -0.94724,1.47848 -1.83184,1.19772 -0.41395,-0.13138 -0.63853,0.006 -0.75795,0.46227 -0.11071,0.42335 -0.43045,0.64559 -0.91967,0.63925 -0.6635,-0.009 -0.6854,-0.0473 -0.18996,-0.33591 0.9639,-0.56142 0.61611,-0.85221 -0.88487,-0.73984 -1.69386,0.12681 -2.71513,0.59952 -2.71513,1.25673 0,0.25781 -0.22052,0.46875 -0.49004,0.46875 -0.26953,0 -0.57942,0.252 -0.68864,0.56 -0.64725,1.82508 -2.67943,2.4657 -4.53242,1.42878 -1.05522,-0.5905 -1.28855,-0.61274 -2.39924,-0.22873 -0.67669,0.23397 -1.54997,0.72567 -1.94062,1.09267 -0.97637,0.91725 -1.73202,0.84588 -1.99153,-0.1881 z m -2.98625,-9.68359 c -0.51594,-0.96402 -0.41981,-1.23361 0.94709,-2.65614 0.70309,-0.73171 1.34948,-1.55451 1.43642,-1.82843 0.28928,-0.911442 1.55593,-1.426021 3.5481,-1.441432 1.46686,-0.01136 2.09154,-0.163712 2.54971,-0.621888 0.89113,-0.891136 2.93461,-1.722135 3.81908,-1.553056 1.08779,0.207942 1.87237,1.168019 1.61562,1.976982 -0.17852,0.562448 -0.47158,0.662931 -1.93347,0.662931 -1.6782,0 -1.74848,0.03694 -2.69912,1.418653 -1.14626,1.66602 -1.88956,1.9866 -3.12497,1.34774 -0.75302,-0.3894 -1.06423,-0.39849 -1.88124,-0.055 -0.89078,0.37455 -1.23373,0.89563 -1.84844,2.80857 -0.25529,0.79444 -1.99465,0.75221 -2.42878,-0.059 z m 16.09691,-0.52072 c -0.32733,-0.85299 0.18249,-1.41534 2.0416,-2.25194 1.67931,-0.75569 1.98325,-0.79854 3.29023,-0.46384 0.792,0.20282 1.77857,0.7307 2.19238,1.17307 0.41381,0.44237 0.70181,0.83087 0.64,0.86335 -1.86452,0.97965 -2.59989,1.14192 -5.16998,1.14085 -2.15497,-9.6e-4 -2.85914,-0.10943 -2.99423,-0.46149 z m -16.31665,-8.476789 c -1.31832,-1.318327 2.79001,-4.463524 5.83037,-4.463524 0.3232,0 1.0272,-0.426035 1.56443,-0.946745 0.82563,-0.800231 1.30759,-0.973965 3.11433,-1.122637 1.90099,-0.156429 2.23013,-0.09593 2.97436,0.546746 0.76335,0.659184 0.7955,0.778832 0.36612,1.362636 -0.37975,0.51633 -0.80022,0.629079 -2.17592,0.583482 -1.5285,-0.05067 -1.82128,0.05319 -2.82521,1.002163 -1.53757,1.453399 -2.42139,1.871056 -3.1426,1.485072 -0.92306,-0.494003 -3.24232,0.226064 -3.65658,1.135267 -0.36117,0.792682 -1.45191,1.014922 -2.0493,0.41754 z M 193.984,88.895998 c -0.57823,-0.578231 -0.46883,-1.850282 0.176,-2.046439 0.308,-0.0937 0.992,-0.35991 1.52,-0.591593 2.23979,-0.982807 3.58993,-1.231975 4.65803,-0.859636 0.66261,0.230989 1.16928,0.25138 1.40409,0.05651 0.20206,-0.16769 0.64874,-0.28849 0.99263,-0.268438 0.34389,0.02006 1.52525,-0.07282 2.62525,-0.206391 l 2,-0.242848 v 0.831418 c 0,0.457283 -0.15323,0.831421 -0.34051,0.831421 -0.18727,0 -1.12754,0.36 -2.08948,0.8 -0.96194,0.44 -1.95221,0.8 -2.20061,0.8 -0.2484,0 -0.54495,0.150992 -0.659,0.335539 -0.14177,0.229376 -0.35023,0.216979 -0.65889,-0.03918 C 201.16318,88.090257 200.96,88.0101 200.96,88.118225 c 0,0.108125 -0.57825,-0.03478 -1.28501,-0.317568 -1.08432,-0.433859 -1.44664,-0.450355 -2.32,-0.105619 -0.56924,0.224694 -1.33227,0.673232 -1.69561,0.996748 -0.77144,0.68688 -1.14694,0.73265 -1.67538,0.204212 z m -0.824,-10.216 c -0.36219,-1.810947 -0.30259,-1.907555 1.16,-1.880211 0.748,0.01398 2.62,-0.07031 4.16,-0.187312 2.70846,-0.20578 2.8,-0.1905 2.8,0.467395 0,0.546454 -0.19393,0.680128 -0.98669,0.680128 -0.54268,0 -2.06556,0.432 -3.38418,0.96 -3.07089,1.229641 -3.49611,1.225104 -3.74913,-0.04 z m 11,-2.84 c 0,-0.176 0.2245,-0.32 0.49889,-0.32 0.27438,0 0.40988,0.144 0.30111,0.32 -0.10877,0.176 -0.33327,0.32 -0.49889,0.32 -0.16561,0 -0.30111,-0.144 -0.30111,-0.32 z m -11.781,-2.45177 0.101,-1.22823 1.7503,-0.09916 c 0.96266,-0.05454 1.9097,-0.231452 2.10453,-0.393142 0.21825,-0.181133 0.73726,-0.149398 1.35207,0.08267 0.72401,0.27328 1.20029,0.282332 1.73548,0.03298 2.15077,-1.002051 2.53971,-1.07808 3.40364,-0.665344 0.46969,0.224397 0.89595,0.699783 0.94725,1.056413 0.0764,0.531462 -0.26132,0.776003 -1.87259,1.355747 -1.08122,0.389027 -2.08524,0.633543 -2.23116,0.54336 -0.14591,-0.09018 -0.3464,-0.03273 -0.44553,0.127664 -0.10792,0.174621 -0.72664,0.167891 -1.54211,-0.01677 -1.24361,-0.281619 -3.35736,-0.166771 -4.82288,0.262045 -0.5009,0.146563 -0.56708,6.4e-4 -0.48,-1.058227 z m 11.41842,-5.915302 c -0.76635,-0.602115 -0.99577,-0.629158 -2.5358,-0.29888 -1.33915,0.287194 -1.74909,0.27769 -1.96032,-0.04546 -0.4831,-0.739037 -0.11691,-1.933693 0.80217,-2.616941 1.15538,-0.858928 4.46305,-0.944429 5.59723,-0.144681 0.40739,0.287257 1.02412,0.448172 1.37052,0.357587 0.62061,-0.162291 1.88878,0.687526 1.88878,1.265702 0,0.160083 -0.44915,0.668995 -0.99811,1.130915 -1.30335,1.096701 -3.03065,1.242599 -4.16447,0.351758 z M 207.92,63.874542 c -0.81975,-0.622275 -0.68433,-0.938259 0.32,-0.746707 0.7304,0.139309 0.99444,-0.0089 1.55318,-0.871674 0.37025,-0.571734 0.76854,-1.419436 0.88508,-1.883791 0.11655,-0.464352 0.56962,-1.07866 1.00682,-1.365127 0.95423,-0.625238 1.04834,-1.22816 0.15524,-0.994608 -0.77625,0.202992 -1.03025,-0.157789 -1.117,-1.586534 -0.0748,-1.231882 0.11031,-1.417335 1.54117,-1.544141 0.55853,-0.0495 1.30351,-0.180061 1.65551,-0.290141 0.83585,-0.261392 1.36518,0.112391 1.55068,1.094995 0.0824,0.43625 0.37443,1.219965 0.64904,1.741584 0.45862,0.871133 0.45321,1.027559 -0.0664,1.92 -0.31111,0.534381 -0.95438,1.159456 -1.4295,1.389063 -0.47512,0.229603 -0.86386,0.621904 -0.86386,0.871782 0,0.569574 -1.56438,1.36183 -2.34268,1.186416 -0.39128,-0.08819 -0.64209,0.09585 -0.76354,0.560272 -0.14155,0.54129 -0.34526,0.650333 -0.93732,0.501734 -0.42461,-0.106569 -0.75646,-0.04681 -0.75646,0.136237 0,0.437146 -0.36156,0.395651 -1.04,-0.11936 z m 22.8,-6.452016 c -0.616,-0.239379 -1.372,-0.530169 -1.68,-0.646204 -0.308,-0.116032 -0.56,-0.482173 -0.56,-0.813645 0,-0.331472 -0.144,-0.602679 -0.32,-0.602679 -0.176,0 -0.32,0.144 -0.32,0.32 0,0.523373 -0.5943,0.365703 -1.30667,-0.346665 -0.36666,-0.366669 -0.7456,-0.587735 -0.84207,-0.491261 -0.0965,0.09648 -0.46153,0.02227 -0.81124,-0.164877 -0.5146,-0.275408 -0.60493,-0.570621 -0.47378,-1.548416 l 0.16204,-1.208128 -1.60803,-0.190448 c -0.88441,-0.104745 -1.8672,-0.424998 -2.18397,-0.711673 -0.31678,-0.286675 -0.72903,-0.426621 -0.91612,-0.310992 -0.38469,0.23775 -0.45385,-0.455568 -0.0953,-0.954931 0.42986,-0.598599 1.96334,-1.432608 2.63412,-1.432608 1.32634,0 2.78598,0.867097 3.13239,1.860784 0.29294,0.840345 1.66859,2.053331 1.66859,1.471292 0,-0.115744 0.23008,-0.01949 0.5113,0.213898 0.35746,0.296666 0.45979,0.741709 0.34011,1.479181 -0.19842,1.222758 0.028,1.302073 1.16462,0.407996 0.86821,-0.68294 2.93138,-1.48126 3.75014,-1.451075 0.26739,0.0099 0.89573,0.339498 1.3963,0.732535 1.006,0.789881 0.94985,1.632249 -0.12759,1.914006 -0.35303,0.09232 -0.72449,0.496995 -0.82546,0.899274 -0.10096,0.402281 -0.49538,1.019068 -0.8765,1.370646 -0.63088,0.581994 -0.7932,0.600256 -1.81292,0.20399 z m -17.38667,-5.155862 c -0.51707,-0.517069 -0.0868,-1.643181 1.08009,-2.826665 0.77164,-0.782631 1.26745,-1.590858 1.27598,-2.08 0.0103,-0.588026 0.38223,-1.033171 1.4038,-1.68 1.63269,-1.033776 1.739,-1.045037 3.21594,-0.340733 1.14664,0.54679 1.48581,1.060733 0.70002,1.060733 -0.66826,0 -2.44916,0.96854 -2.44916,1.33198 0,0.178807 -0.65041,0.957236 -1.44536,1.729837 -0.79495,0.772605 -1.58339,1.76776 -1.75208,2.211459 -0.29559,0.777447 -1.49456,1.128055 -2.02923,0.593389 z m 14.90518,-7.108912 C 227.84333,44.62324 227.52,44.05318 227.52,43.890946 c 0,-0.325011 2.40359,-1.024941 4.16,-1.211405 1.39388,-0.147974 2.62806,0.462663 2.76321,1.367159 0.13505,0.903769 -0.37618,1.267091 -2.12321,1.508924 -0.792,0.109632 -1.87267,0.283623 -2.40149,0.38665 -0.8091,0.157629 -1.07537,0.03329 -1.68,-0.784522 z M 221.92,42.89877 220.64,42.32501 221.84804,41.7394 C 223.00615,41.177999 224,39.807298 224,38.771458 c 0,-0.269616 0.2594,-0.787491 0.57644,-1.150835 0.31705,-0.363344 0.92154,-1.452624 1.34333,-2.420624 0.98887,-2.269501 1.07723,-2.360333 2.0568,-2.114474 1.06859,0.268199 1.08309,1.263786 0.0407,2.797748 -0.50003,0.735846 -0.74418,1.484982 -0.67604,2.074281 0.0695,0.601261 -0.15935,1.277127 -0.65731,1.941094 -0.42018,0.560256 -0.76463,1.136256 -0.76544,1.28 -0.003,0.435786 -1.9238,2.343031 -2.33474,2.31762 C 223.3727,43.483212 222.624,43.214341 221.92,42.89877 Z m 11.2,-5.1376 c -0.352,-0.151533 -1.02593,-0.358003 -1.49762,-0.458822 -0.88526,-0.189216 -1.86238,-0.966192 -1.86238,-1.480912 0,-0.408471 2.14346,-1.262125 3.15908,-1.258131 1.13689,0.0045 3.68897,1.316329 3.81293,1.95998 0.2391,1.241556 -1.9003,1.974759 -3.61201,1.237885 z m -2.4,-4.366989 c 0,-0.308313 0.25208,-0.43936 0.72,-0.374297 0.58136,0.08084 0.72,-0.05393 0.72,-0.699885 0,-0.44 0.1165,-0.98 0.25889,-1.2 0.19222,-0.297001 -0.0782,-0.4 -1.05005,-0.4 -2.339,0 -2.02758,-2.127838 0.42354,-2.893821 1.78215,-0.55693 2.29613,-1.189581 1.59545,-1.963823 -0.49027,-0.541752 -0.48664,-0.626978 0.0522,-1.222356 0.37909,-0.418893 0.98559,-0.64 1.75552,-0.64 2.43598,0 2.48128,2.906898 0.0777,4.984823 -1.14768,0.992174 -1.20142,1.735177 -0.12552,1.735177 1.46595,0 2.65533,2.096531 1.57232,2.771536 -0.22,0.13712 -1.66,0.278051 -3.2,0.313184 -2.28962,0.05223 -2.8,-0.02259 -2.8,-0.410538 z m -10.37494,-1.779516 c -1.48124,-0.315731 -2.16832,-0.812763 -2.03878,-1.474843 0.0852,-0.435367 3.58983,-1.605392 6.50856,-2.172878 1.09922,-0.213718 1.80297,0.370282 1.87847,1.558822 0.0585,0.921505 -0.33847,1.183302 -1.80358,1.189333 -0.65464,0.0027 -1.66264,0.266386 -2.24,0.58598 -0.81912,0.453423 -1.32543,0.522315 -2.30467,0.313586 z m 4.07007,-7.198518 c -1.53065,-0.296839 -1.12437,-2.610044 0.47613,-2.710882 0.47781,-0.0301 1.20464,-0.0661 1.61518,-0.08 0.41055,-0.0139 0.99251,-0.328124 1.29326,-0.698283 0.81391,-1.001782 1.83634,-1.446931 3.33718,-1.452945 0.73871,-0.003 2.02712,-0.202068 2.86312,-0.442462 0.836,-0.240394 1.51905,-0.336841 1.51789,-0.214328 -0.001,0.122514 -0.28821,0.654752 -0.63789,1.182752 -0.34968,0.528 -0.63673,1.189459 -0.63789,1.469909 -0.001,0.280449 -0.71194,1.108449 -1.57952,1.84 -1.79012,1.50945 -3.34391,1.804407 -3.63531,0.690091 -0.0921,-0.352 -0.33334,-0.64 -0.53621,-0.64 -0.20286,0 -0.27984,0.144 -0.17107,0.32 0.1117,0.180739 -0.15038,0.32 -0.60223,0.32 -0.44,0 -0.889,0.144 -0.99777,0.32 -0.19789,0.320198 -0.98109,0.352869 -2.30487,0.09615 z M 235.84,17.783463 c 0,-0.296843 0.2736,-0.503463 0.66667,-0.503463 0.77985,0 0.66962,0.747767 -0.13319,0.903463 -0.31576,0.06124 -0.53348,-0.102003 -0.53348,-0.4 z m -3.62667,-0.0768 c -0.40618,-0.406182 -0.21083,-1.352183 0.3652,-1.768521 0.3182,-0.22998 1.04511,-1.102145 1.61538,-1.938145 0.87614,-1.284426 1.19564,-1.519241 2.06146,-1.5151 1.63824,0.0078 1.92137,0.342856 1.31572,1.556898 -0.28491,0.571117 -0.45093,1.389352 -0.36893,1.818298 0.10097,0.528203 0.004,0.779904 -0.30199,0.779904 -0.2481,0 -1.04718,0.288 -1.77573,0.64 -1.33694,0.645937 -2.51864,0.819134 -2.91111,0.426666 z M 8.64,0.31999999 C 8.64,0.144 8.784,0 8.96,0 c 0.176,0 0.32,0.144 0.32,0.31999999 0,0.176 -0.144,0.31999999 -0.32,0.31999999 -0.176,0 -0.32,-0.14399999 -0.32,-0.31999999 z"/>
</svg>
