<?xml version="1.0" encoding="utf-8"?>
<!-- Created with Inkscape (http://www.inkscape.org/) -->
<svg xmlns="http://www.w3.org/2000/svg" xmlns:cc="http://creativecommons.org/ns#" xmlns:dc="http://purl.org/dc/elements/1.1/" xmlns:inkscape="http://www.inkscape.org/namespaces/inkscape" xmlns:rdf="http://www.w3.org/1999/02/22-rdf-syntax-ns#" xmlns:sodipodi="http://sodipodi.sourceforge.net/DTD/sodipodi-0.dtd" xmlns:svg="http://www.w3.org/2000/svg" height="112" id="svg2" version="1.1" viewBox="0 0 96 112" width="96" sodipodi:docname="illustration-nonsense-alphabet-6-1.svg" inkscape:version="0.92.4 (5da689c313, 2019-01-14)">
	<metadata id="metadata8">
		<rdf:RDF>
			<cc:Work rdf:about="">
				<dc:format>image/svg+xml</dc:format>
				<dc:type rdf:resource="http://purl.org/dc/dcmitype/StillImage"/>
				<dc:title/>
			</cc:Work>
		</rdf:RDF>
	</metadata>
	<defs id="defs6"/>
	<sodipodi:namedview bordercolor="#666666" borderopacity="1" gridtolerance="10" guidetolerance="10" id="namedview4" objecttolerance="10" pagecolor="#ffffff" showgrid="false" inkscape:current-layer="svg2" inkscape:cx="48.949153" inkscape:cy="56" inkscape:pageopacity="0" inkscape:pageshadow="2" inkscape:window-height="1004" inkscape:window-maximized="1" inkscape:window-width="1920" inkscape:window-x="0" inkscape:window-y="0" inkscape:zoom="4.2142857"/>
	<path d="M 53.5,100.59747 C 51.3,98.619721 48.9375,97.001212 48.25,97.000782 47.5625,97.000352 47,96.528277 47,95.951726 c 0,-1.55038 -5.803267,-3.71199 -8.553905,-3.186172 -3.058025,0.584578 -4.846688,2.748133 -4.030453,4.875208 0.579185,1.509332 0.77171,1.48699 2.044555,-0.237265 1.680328,-2.27625 3.961843,-0.747127 3.342595,2.240283 -0.369851,1.78426 -3.076357,2.14596 -6.552792,0.87572 -1.820948,-0.665346 -1.52954,-6.097103 0.432358,-8.059001 2.203799,-2.203799 9.659056,-1.296919 13.686028,1.664809 2.335662,1.717816 3.029278,1.855651 3.734687,0.742156 0.476466,-0.752105 0.873192,-2.110943 0.881614,-3.019639 0.0168,-1.813047 5.235021,-4.084482 7.439755,-3.238446 1.954499,0.750012 2.564354,5.15503 0.904416,6.532656 -1.080431,0.896678 -1.675489,0.766179 -2.662727,-0.58395 -1.064352,-1.455588 -1.457072,-1.514911 -2.411957,-0.364346 -2.877706,3.467423 0.979467,7.723681 7.045486,7.774461 7.157776,0.0599 12.049076,-3.926422 13.068347,-10.650494 0.76922,-5.074495 -0.233753,-7.95627 -4.4341,-12.740201 -3.80951,-4.338792 -3.250565,-5.778057 0.949375,-2.444609 4.074456,3.233852 6.320099,8.982662 5.669567,14.514003 C 76.525173,99.385015 72.700636,103.0217 63.818858,103.70631 57.686564,104.17899 57.3819,104.0872 53.5,100.59747 Z M 34.5,86 c -1.458868,-0.626897 -1.573673,-0.878446 -0.424314,-0.929715 2.472553,-0.110291 5.707491,-4.18891 6.797483,-8.570285 0.547312,-2.2 2.831552,-10.525 5.076088,-18.5 2.244536,-7.975 4.541517,-16.1875 5.104403,-18.25 1.207823,-4.42565 2.670649,-4.842876 3.506074,-1 0.726474,3.341714 7.300346,24.958666 8.438976,27.75 0.448707,1.1 1.345199,4.25 1.992204,7 1.677103,7.128286 2.766894,9.5 4.365202,9.5 0.769447,0 1.959195,0.675 2.643884,1.5 1.045613,1.259887 0.865119,1.512746 -1.127555,1.579628 C 55.24638,86.604094 53.623966,86.341982 58,84 60.247895,82.796963 60.497052,80.724291 58.933085,76.237893 57.93968,73.388209 57.484952,73.154006 52.333144,72.83867 46.142379,72.459741 45.250441,73.211578 44.850797,79.145736 44.584454,83.100548 45.482301,85 47.618034,85 c 0.825,0 1.221885,0.45 0.881966,1 -0.745719,1.206598 -11.192096,1.206598 -14,0 z M 54.769413,68.163672 c 1.010806,-0.641563 0.912541,-2.166354 -0.48235,-7.484687 C 53.323593,57.005543 52.249157,54 51.899426,54 51.261553,54 48,64.657884 48,66.74228 c 0,1.002699 1.803458,1.854895 4.5,2.126406 0.55,0.05538 1.571236,-0.261877 2.269413,-0.705014 z M 25.623207,82.460477 c -0.873453,-2.276183 -0.868214,-2.285171 1.539322,-2.640926 1.696486,-0.250685 2.671017,-1.828106 4.522018,-7.319551 2.726584,-8.089075 2.608034,-11.898776 -0.194488,-6.25 -2.333394,4.703199 -4.999306,4.953763 -5.879538,0.552605 -0.558445,-2.792224 -0.130767,-3.715736 3.375,-7.287852 C 31.193484,57.265002 33,54.87883 33,54.212148 33,53.545467 34.125,53 35.5,53 37.055556,53 38,52.433333 38,51.5 38,50.652335 37.104554,50 35.940983,50 34.799024,50 34.162113,49.546713 34.510963,48.982261 34.856911,48.422505 33.758469,46.220248 32.06998,44.088357 28.620784,39.733392 28.432993,37.675896 30.830172,30.504655 32.15351,26.545847 33.226252,25.155185 36,23.802687 c 1.925,-0.938643 4.968606,-1.728238 6.763569,-1.754655 3.1377,-0.04618 6.047348,-1.220465 9.238221,-3.728393 2.355015,-1.850969 11.36352,1.654708 16.075461,6.255794 3.779969,3.691041 3.922087,4.068763 3.904552,10.377515 -0.01556,5.598192 -0.450348,7.184811 -3,10.947533 -3.278931,4.838975 -3.519669,6.25815 -1.866183,11.001342 1.328419,3.810705 0.482051,5.124419 -1.818982,2.823386 C 64.090368,58.51894 63.619169,56.170763 63.560865,51.075151 63.5136,46.9443 62.97301,43.57301 62.240418,42.840418 61.558188,42.158188 61,40.556427 61,39.280948 c 0,-1.968043 0.3746,-2.225033 2.474914,-1.697888 2.002853,0.502684 2.701053,0.124841 3.660515,-1.980948 1.570776,-3.447478 -0.02951,-6.978857 -4.121442,-9.094879 C 59.93899,24.91709 57.429038,25.267148 58.577831,27.125934 59.725954,28.983636 58.026442,33 56.092239,33 54.738916,33 54.03692,32.010339 53.550297,29.416417 53.137235,27.214602 52.419552,26.022839 51.689007,26.325607 51.035053,26.596633 48.925,27.48884 47,28.30829 c -1.925,0.819449 -5.440394,1.392017 -7.811986,1.272372 -3.167181,-0.159781 -4.550164,0.227505 -5.2091,1.458738 -1.18723,2.218359 -1.555835,8.218105 -0.599918,9.764811 C 34.700139,42.941866 36,41.025937 36,36.940983 36,34.260241 36.440512,33 37.377555,33 c 1.974155,0 3.758518,2.481824 3.071524,4.272101 -0.321984,0.839079 -0.151901,1.793531 0.377963,2.121005 0.529863,0.327474 1.221418,-0.07701 1.536788,-0.89885 C 42.6792,37.672415 44.076354,37 45.468615,37 47.689533,37 48,37.424487 48,40.461045 48,43.612056 45.051035,48 42.933364,48 c -1.13496,0 -5.146818,11.680849 -4.693058,13.664217 0.352592,1.541168 0.633497,1.394451 1.750359,-0.914217 0.731701,-1.5125 1.708133,-2.75 2.16985,-2.75 1.161654,0 1.057896,2.74698 -0.131524,3.482083 -0.534055,0.330064 -1.268369,2.841722 -1.631808,5.581462 C 39.657549,72.639173 38,74.751222 38,70.118034 c 0,-4.232865 -1.553624,-4.685056 -2.938697,-0.855325 -2.072371,5.730112 -6.527667,14.11871 -7.688096,14.475435 -0.619736,0.190511 -1.407236,-0.384439 -1.75,-1.277667 z M 30,64.940983 C 30,63.808524 29.55,63.160081 29,63.5 28.45,63.839919 28,64.766476 28,65.559017 28,66.351558 28.45,67 29,67 c 0.55,0 1,-0.926558 1,-2.059017 z M 45,42.5 C 45,41.675 44.823145,41 44.606989,41 44.390833,41 43.954956,41.675 43.638374,42.5 43.321791,43.325 43.498646,44 44.031385,44 44.564123,44 45,43.325 45,42.5 Z" id="path12" style="fill:#000000" inkscape:connector-curvature="0"/>
</svg>
