<?xml version="1.0" encoding="utf-8"?>

<svg xmlns="http://www.w3.org/2000/svg" version="1.1" viewBox="0 0 691 403">











	<path d="m 252.5,390.93792 c -7.54397,-0.44128 -12.31022,-1.37664 -19.40634,-3.80843 -5.17348,-1.77292 -9.93045,-3.02236 -10.57103,-2.77655 C 219.57855,385.48269 206.11229,380.6466 201.5,376.80316 196.65336,372.76444 185.20228,365 184.09255,365 c -0.5622,0 -1.50385,-0.9 -2.09255,-2 -1.32248,-2.47109 -2.68605,-2.56452 -3.4255,-0.23474 -0.72554,2.28598 -10.6644,7.63077 -17.0745,9.1821 l -5,1.21006 -2.75,-3.29093 c -1.5125,-1.81002 -2.74563,-3.98294 -2.74029,-4.82872 0.009,-1.41937 4.88532,-8.40149 8.46585,-12.12166 2.06578,-2.14633 1.91617,-4.25162 -0.4546,-6.39714 C 156.93327,344.62963 153,335.20347 153,332.08961 153,327.24232 147.39958,318.28297 142.49283,315.28063 139.57106,313.49285 131.88509,310 130.87288,310 130.3928,310 130,309.55 130,309 c 0,-0.55 -0.72274,-1 -1.6061,-1 -3.7981,0 -14.25256,-10.79639 -14.77976,-15.26315 -0.1452,-1.23027 -0.79278,-3.50364 -1.43907,-5.05195 C 111.52878,286.1366 111,284.52292 111,284.09896 c 0,-0.42396 -3.24746,-3.88216 -7.21658,-7.6849 -3.969123,-3.80273 -7.906623,-8.13938 -8.750003,-9.63699 C 89.114263,256.26627 83.116848,243.94811 82.483187,241 c -0.413757,-1.925 -0.853635,-10.7 -0.977509,-19.5 -0.123873,-8.8 -0.728623,-17.8 -1.343888,-20 -0.745797,-2.66674 -2.959081,-5.80065 -6.640227,-9.40226 C 70.484703,189.12649 68,186.28397 68,185.78102 c 0,-0.50296 -1.125,-2.38941 -2.5,-4.19213 -1.375,-1.80272 -2.5,-4.42455 -2.5,-5.82629 0,-1.40174 -0.605552,-2.78099 -1.345671,-3.065 -1.114619,-0.42772 -1.137039,-2.03432 -0.130579,-9.35699 L 62.738842,154.5 59.268681,147.01289 c -1.908589,-4.1179 -4.346331,-8.71757 -5.417205,-10.22147 -1.070874,-1.50391 -2.415427,-5.33471 -2.987896,-8.5129 -0.57247,-3.17818 -1.438272,-8.00726 -1.924006,-10.73127 -0.485734,-2.72401 -0.951605,-7.89901 -1.035269,-11.5 -0.08366,-3.60099 -0.771359,-8.064706 -1.528211,-9.919374 C 45.619242,94.273208 45,91.737462 45,90.492886 45,89.182646 43.947545,87.540425 42.5,86.591957 40.803996,85.480692 40,84.039883 40,82.111806 40,80.548657 39.183623,78.196531 38.18583,76.884859 37.188036,75.573186 35.579014,72.7 34.610225,70.5 31.470926,63.371043 24.793335,50.542071 23.378303,48.921259 22.620236,48.052952 22,46.864967 22,46.281292 22,45.697617 19.525,42.705204 16.5,39.631485 13.475,36.557766 11,33.396065 11,32.605482 11,31.299734 17.952796,25 19.393904,25 19.727257,25 20,25.527067 20,26.171259 c 0,0.644193 0.62265,1.881693 1.383667,2.75 0.761017,0.868308 2.810685,4.953741 4.554817,9.078741 1.744132,4.125 4.271482,9.834173 5.616333,12.68705 C 32.899668,53.539928 34,56.091785 34,56.357844 c 0,0.266059 2.328182,4.231886 5.173739,8.812949 2.845556,4.581064 6.635628,11.486617 8.422382,15.345674 1.786754,3.859056 4.102901,8.134056 5.146992,9.5 2.784488,3.642834 4.287209,12.055413 4.720972,26.429093 0.303118,10.04446 0.732464,13.11414 2.035637,14.55413 0.908325,1.00369 1.774506,2.42686 1.924848,3.1626 0.503829,2.46564 1.904282,5.16315 5.330698,10.26783 l 3.403051,5.06988 -0.65969,9 c -0.362829,4.95 -0.698451,9.50351 -0.745826,10.1189 -0.335831,4.3624 2.879015,10.45146 8.803769,16.67473 10.188811,10.70217 10.749172,12.30242 10.927553,31.20637 0.179405,19.01243 1.4557,26.14937 6.699516,37.46319 3.299349,7.11852 5.304389,9.81956 12.619469,17 7.22631,7.0933 9.07735,9.57065 10.94689,14.65088 1.2375,3.36274 2.25,6.57288 2.25,7.13364 0,1.43401 7.34724,7.91034 9.88946,8.7172 1.16079,0.36843 2.11054,1.03413 2.11054,1.47933 0,0.44521 2.35648,1.8232 5.23663,3.06221 2.88014,1.239 6.68458,3.35715 8.45431,4.70699 C 150.3259,313.48595 157,324.89381 157,328.33442 c 0,1.24607 0.37175,2.69308 0.82612,3.21558 0.45437,0.5225 1.43295,2.975 2.17463,5.45 0.74169,2.475 2.28243,5.27749 3.42388,6.22776 2.96811,2.47098 7.89268,2.21397 11.24864,-0.58707 1.5547,-1.29761 4.40173,-3.15989 6.32673,-4.13839 1.925,-0.97849 6.93764,-4.3043 11.13921,-7.39069 4.20156,-3.08639 9.60156,-6.84047 12,-8.34241 2.39843,-1.50194 5.23456,-3.30194 6.30249,-4 1.06794,-0.69806 4.89294,-3.17279 8.5,-5.49939 6.58725,-4.24887 13.3738,-8.98059 21.5424,-15.01981 2.41775,-1.7875 4.68468,-3.25 5.03761,-3.25 0.35293,0 2.51743,-1.46651 4.80999,-3.2589 5.46931,-4.27608 10.90048,-6.96738 12.71353,-6.29993 0.84821,0.31225 3.35786,-1.25238 6.01912,-3.75259 2.51039,-2.35848 7.79789,-6.4378 11.75,-9.06516 3.95211,-2.62736 7.18565,-5.18641 7.18565,-5.6868 0,-0.50038 1.4625,-1.52111 3.25,-2.2683 1.7875,-0.74718 3.8676,-2.10322 4.62244,-3.01342 0.75485,-0.91019 2.03332,-1.6549 2.84104,-1.6549 0.80773,0 3.30862,-1.575 5.55755,-3.5 2.24893,-1.925 4.43751,-3.5 4.86351,-3.5 0.426,0 1.89955,-1.125 3.27455,-2.5 1.375,-1.375 3.42046,-2.5 4.54546,-2.5 1.125,0 2.04545,-0.63925 2.04545,-1.42054 0,-0.7813 1.35374,-1.71788 3.00832,-2.08129 1.65457,-0.3634 3.44294,-1.47285 3.97416,-2.46543 0.53121,-0.99258 2.43997,-2.713 4.24168,-3.82315 1.80171,-1.11014 7.55084,-5.00433 12.77584,-8.65375 15.02491,-10.49419 56.32037,-37.98216 58.25,-38.77362 0.9625,-0.39477 1.75,-1.18227 1.75,-1.75 0,-0.56772 0.52161,-1.03222 1.15913,-1.03222 0.63752,0 3.54322,-1.8 6.45709,-4 2.91388,-2.2 5.51972,-4 5.79074,-4 0.27103,0 2.58634,-1.4625 5.14514,-3.25 2.5588,-1.7875 5.39386,-3.7 6.30013,-4.25 0.90627,-0.55 4.69361,-3.14858 8.41629,-5.77461 3.72269,-2.62604 9.40636,-6.11506 12.63037,-7.75339 3.22401,-1.63832 6.44063,-3.67617 7.14805,-4.52856 0.70742,-0.85239 4.25142,-3.28157 7.87557,-5.39818 3.62414,-2.11662 7.44393,-4.79269 8.48841,-5.94683 1.04448,-1.15413 2.304,-2.09843 2.79894,-2.09843 0.49493,0 3.46269,-1.71481 6.59501,-3.81069 3.13232,-2.09588 7.94513,-5.09144 10.69513,-6.6568 2.75,-1.56535 10.73487,-6.60054 17.74415,-11.18931 7.00929,-4.58876 13.11194,-8.3432 13.56144,-8.3432 0.44951,0 1.72328,-0.84406 2.8306,-1.87568 1.10732,-1.03163 4.04539,-2.77457 6.52905,-3.87321 2.48366,-1.09864 5.49048,-2.84209 6.68183,-3.87432 1.19134,-1.03223 6.19518,-4.35179 11.11963,-7.37679 4.92445,-3.025 15.15899,-9.30205 22.74342,-13.948999 7.58443,-4.64695 17.83988,-11.073174 22.78988,-14.280498 4.95,-3.207324 10.28714,-6.605274 11.86031,-7.551001 1.57318,-0.945726 4.27318,-2.695974 6,-3.889441 1.72683,-1.193466 7.86469,-4.995466 13.63969,-8.448888 14.5944,-8.727382 24.71143,-15.52971 30,-20.170933 7.00254,-6.145391 8.53335,-6.573202 11.23424,-3.139587 1.24517,1.58298 2.11408,3.564665 1.93091,4.403746 -0.55689,2.551009 -5.34004,6.977373 -11.66515,10.795017 -3.3,1.991779 -9.825,6.170021 -14.5,9.284984 -4.675,3.114962 -10.40344,6.739525 -12.72986,8.054584 -3.55578,2.009985 -12.41044,7.358395 -33.88347,20.466387 -1.86989,1.141453 -4.42885,2.970126 -5.68659,4.063716 -1.25774,1.09359 -2.94229,2.304465 -3.74344,2.690832 -1.58056,0.762249 -4.20107,2.454311 -20.63781,13.325818 -5.95036,3.935655 -12.16883,8.255833 -13.81883,9.600403 -1.65,1.34456 -5.025,3.57637 -7.5,4.95956 -2.475,1.38319 -8.88153,5.38801 -14.23674,8.8996 -5.3552,3.51158 -12.73178,8.1847 -16.3924,10.3847 -12.5134,7.52045 -36.0593,23.53629 -43.3698,29.5 -2.35973,1.925 -5.97647,4.45867 -8.0372,5.63037 -2.06074,1.17171 -7.05813,4.57272 -11.10533,7.55781 -4.04719,2.98508 -8.09696,5.70596 -8.99948,6.04639 -1.4728,0.55554 -27.77113,18.1415 -41.85905,27.99156 -3.025,2.11504 -7.075,4.93692 -9,6.27086 -1.925,1.33394 -7.25354,5.03032 -11.84121,8.21418 -4.58766,3.18386 -10.0791,6.91383 -12.2032,8.28883 -2.1241,1.375 -8.42906,5.65 -14.01103,9.5 -5.58197,3.85 -13.59053,9.37212 -17.7968,12.27137 -4.20627,2.89925 -10.34776,7.04008 -13.64776,9.20185 -5.79072,3.79339 -7.97688,5.27883 -15.5,10.53185 -1.925,1.34413 -4.4,2.85372 -5.5,3.35464 -1.1,0.50092 -2.85724,1.86241 -3.90499,3.02553 -1.04774,1.16312 -2.47571,2.11476 -3.17327,2.11476 -0.69756,0 -2.60528,1.125 -4.23937,2.5 -1.6341,1.375 -3.26184,2.5 -3.61722,2.5 -0.35537,0 -1.86541,0.83299 -3.35564,1.85108 C 276.7301,291.64403 271.38159,295 270.62859,295 c -0.46976,0 -2.26586,1.15129 -3.99134,2.55841 -1.72549,1.40713 -5.83725,4.29953 -9.13725,6.42756 -3.3,2.12804 -6.9,4.71197 -8,5.74208 -1.1,1.03011 -2.675,2.20536 -3.5,2.61166 -2.76716,1.36279 -12.00171,7.43222 -25.31567,16.63878 -3.19861,2.21183 -6.04788,4.02151 -6.3317,4.02151 -0.28382,0 -2.39177,1.49993 -4.68433,3.33319 -2.29257,1.83325 -5.9683,4.21136 -8.1683,5.28469 -4.00643,1.95465 -18.5,14.89656 -18.5,16.51943 0,0.47448 0.48002,0.86269 1.06672,0.86269 0.5867,0 2.54167,1.125 4.34439,2.5 1.80272,1.375 3.70774,2.5 4.23338,2.5 0.52563,0 3.73681,2.24104 7.13593,4.98009 9.53579,7.68403 14.47391,9.87128 24.60448,10.89811 6.10154,0.61845 9.63076,1.49597 11.46506,2.85073 3.17361,2.34394 9.62831,3.3268 21.27459,3.23949 6.48233,-0.0486 8.75692,0.2803 9.15748,1.32415 0.64751,1.6874 -0.26394,3.20186 -2.28203,3.7918 -0.825,0.24117 -6,0.17527 -11.5,-0.14645 z" id="path12" inkscape:connector-curvature="0"/>
</svg>
