<?xml version="1.0" encoding="utf-8"?>

<svg xmlns="http://www.w3.org/2000/svg" version="1.1" viewBox="0 0 1159 755">











	<path d="m 859.33583,743.43278 c -0.33077,-0.86197 -0.20414,-1.95495 0.28139,-2.42886 1.36702,-1.33429 15.68565,-3.00503 29.63372,-3.45776 6.94417,-0.22539 13.61347,-0.93841 14.82067,-1.58448 1.285,-0.68772 3.79786,-0.91836 6.06165,-0.55636 3.50933,0.56116 5.21554,-0.45368 3.03181,-1.8033 -1.11809,-0.69102 -18.16272,-0.78888 -25.66507,-0.14735 -3.3,0.28218 -13.2,0.75883 -22,1.05921 -28.80525,0.98326 -38.07471,0.40144 -38.97864,-2.44658 -0.43955,-1.3849 -1.74265,-1.75625 -6.31396,-1.79931 C 813.55737,730.20535 807,727.83944 807,725.50273 c 0,-1.32208 0.73674,-1.48087 4.25,-0.916 2.3375,0.37583 10.55,0.59596 18.25,0.48917 7.7,-0.10679 25.025,-0.28137 38.5,-0.38795 21.693,-0.17159 24.80251,-0.3989 27.14033,-1.98402 1.79723,-1.21858 4.99037,-1.88894 10,-2.09937 6.56571,-0.27579 8.54401,-0.89145 18.33803,-5.70685 12.1287,-5.9633 22.02479,-14.13458 25.02364,-20.66222 0.94387,-2.05452 2.33015,-5.01829 3.08063,-6.58615 3.64348,-7.61174 2.61561,-12.82765 -2.46019,-12.48425 -8.45757,0.57219 -10.31524,-3.9688 -10.29475,-25.16509 8e-4,-0.825 -0.38961,-5.1 -0.86756,-9.5 -0.47795,-4.4 -1.14674,-11.15 -1.48619,-15 -0.33945,-3.85 -0.8669,-7.9 -1.17212,-9 C 934.65091,614.15409 929.16657,606.44606 923.5,599.91298 914.06691,589.03741 912.7377,587.32277 911.16419,584 c -0.9116,-1.925 -2.89647,-5.25502 -4.41082,-7.40004 C 905.23902,574.45494 904,572.16959 904,571.52141 904,570.46701 900.80397,565.0366 896.04205,558 893.01902,553.53292 878,522.92294 878,521.22885 c 0,-0.29123 -1.08593,-2.82436 -2.41318,-5.62918 -1.32725,-2.80482 -2.93508,-6.7809 -3.57296,-8.83574 -1.57341,-5.06856 -2.80328,-5.53519 -5.64395,-2.14141 -2.6788,3.20038 -6.36991,9.74965 -6.36991,11.30237 0,0.55251 -0.94019,2.03293 -2.08931,3.28983 -1.14912,1.25691 -4.86162,5.93027 -8.25,10.38527 -6.47735,8.51633 -16.59864,21.14539 -18.83945,23.50734 -0.72668,0.76597 -2.50451,2.96767 -3.95073,4.89267 -1.44623,1.925 -4.05183,5.075 -5.79023,7 -1.73841,1.925 -5.3964,5.975 -8.12888,9 C 802.80239,585.23549 792,599.71451 792,602.08229 c 0,0.44959 -1.2999,2.75251 -2.88866,5.11758 -1.58876,2.36507 -3.87553,6.55013 -5.08171,9.30013 -2.62186,5.97764 -2.80546,6.34489 -6.99908,14 -1.80781,3.3 -3.90424,6.71043 -4.65874,7.57874 -0.75449,0.86831 -1.37181,2.13818 -1.37181,2.82193 0,0.68375 -1.16776,3.23582 -2.59502,5.67126 -1.42726,2.43544 -2.25752,4.42807 -1.84501,4.42807 0.4125,0 0.0636,0.7875 -0.77536,1.75 -0.83895,0.9625 -2.63892,3.775 -3.99993,6.25 -11.15031,20.27685 -12.96215,22.99247 -16.91182,25.34777 -3.90047,2.32596 -4.90659,3.65876 -9.13292,12.09833 -1.54941,3.09402 -1.73285,4.33561 -0.84955,5.75 0.70731,1.13258 0.79467,2.45516 0.23476,3.5539 -4.42749,8.68813 -4.09969,9.33264 4.70299,9.24693 3.66952,-0.0357 8.86635,-0.0745 11.5485,-0.0862 2.82972,-0.0123 5.46659,-0.61114 6.28215,-1.4267 2.31581,-2.31581 7.30232,-2.70855 25.5071,-2.00895 23.72167,0.91162 75.72685,1.04694 84.58411,0.22011 5.93935,-0.55445 7.25,-0.41797 7.25,0.75497 0,2.25178 -1.41372,2.63608 -9.76479,2.65443 -7.68555,0.0169 -11.45852,1.00724 -9.87102,2.591 0.44345,0.4424 7.96792,0.74905 16.72104,0.68144 12.09312,-0.0934 15.91477,0.1759 15.91477,1.12151 0,0.84059 -2.67736,1.45105 -8.25,1.88108 -4.5375,0.35015 -8.7,0.68062 -9.25,0.73437 -0.55,0.0538 -3.86163,-0.18924 -7.35918,-0.53998 -4.01756,-0.4029 -6.83853,-0.23989 -7.66097,0.44267 -0.71599,0.59422 -1.54525,0.68648 -1.8428,0.20503 -0.29755,-0.48145 -5.62512,-0.71852 -11.83903,-0.52682 -33.95416,1.0475 -50.50764,0.92234 -56.736,-0.42899 -3.5409,-0.76825 -9.6159,-1.32339 -13.5,-1.23365 C 767.67791,720.12195 760,719.90179 754.5,719.5429 c -5.5,-0.35888 -20.125,-0.85586 -32.5,-1.1044 -12.375,-0.24853 -23.2875,-0.48584 -24.25,-0.52735 -0.9625,-0.0415 -5.6875,-0.0891 -10.5,-0.10582 -4.8125,-0.0167 -19.775,-0.0922 -33.25,-0.16786 -13.475,-0.0756 -27.875,0.14972 -32,0.50078 -4.125,0.35106 -7.85115,0.3149 -8.28034,-0.0803 -0.69138,-0.63671 -4.84911,-0.26248 -16.71966,1.5049 -1.925,0.28661 -15.2,0.43376 -29.5,0.32701 -36.03691,-0.26903 -39.75902,-0.38465 -41.74223,-1.29667 -0.95823,-0.44066 -4.59509,-0.3044 -8.08191,0.3028 -8.83484,1.53852 -10.74655,1.4518 -10.0151,-0.45432 0.49639,-1.29358 -0.23099,-1.52731 -4.28139,-1.37576 -2.68365,0.10041 -10.72937,-0.13033 -17.87937,-0.51275 -11.29596,-0.60416 -29.94234,-0.88181 -34.5,-0.51371 -0.825,0.0666 -2.625,-0.17612 -4,-0.53945 -1.375,-0.36333 -3.175,-0.58661 -4,-0.49619 -0.825,0.0904 -3.525,0.13132 -6,0.0909 -2.475,-0.0404 -5.175,0.21451 -6,0.56653 -2.66911,1.13892 -26.96895,1.42577 -28.99351,0.34226 -1.4559,-0.77918 -2.67858,-0.56536 -5.06464,0.88569 -2.45692,1.49414 -3.8295,1.71664 -6.2707,1.01652 -1.71891,-0.49298 -3.83422,-0.67132 -4.70068,-0.39632 -2.56836,0.81517 -5.32288,-1.82367 -4.52563,-4.33557 0.62055,-1.95518 3.72363,-3.24075 3.43674,-1.4238 -0.34804,2.20424 0.28054,2.46356 1.55635,0.64208 1.15445,-1.64821 2.34995,-2.00145 6.06407,-1.79178 2.54437,0.14363 5.24219,0.77243 5.99514,1.39733 1.04143,0.8643 1.98031,0.73564 3.9237,-0.53772 4.4655,-2.9259 36.98435,-3.6539 74.57916,-1.66959 12.375,0.65317 29.7,1.4235 38.5,1.71184 8.8,0.28834 21.625,0.76558 28.5,1.06053 17.11541,0.73427 26.4169,0.57305 33.5,-0.58065 3.3,-0.53751 9.85201,-0.95729 14.56001,-0.93285 4.70801,0.0244 10.56843,-0.40566 13.02315,-0.95577 2.45472,-0.55012 6.25272,-1.07448 8.43999,-1.16525 C 618.37881,708.72667 624,707.1512 624,705.99179 c 0,-0.46921 1.0125,-2.45211 2.25,-4.40644 2.60207,-4.10935 10.86377,-8.57234 15.93807,-8.6098 1.82156,-0.0134 5.29395,-0.48133 7.71641,-1.03974 4.30958,-0.99343 8.4192,-1.51552 18.68988,-2.37439 6.02863,-0.50413 17.5053,-3.32765 18.85564,-4.63891 0.5225,-0.50738 1.6475,-0.92954 2.5,-0.93813 0.8525,-0.009 3.44282,-1.69609 5.75627,-3.75 3.87151,-3.43718 4.09037,-3.88887 2.75,-5.67551 -1.68631,-2.24776 -1.88719,-5.82984 -0.46671,-8.32244 0.54425,-0.95504 4.1826,-8.48643 8.08521,-16.73643 3.90262,-8.25 10.65732,-22.21474 15.01045,-31.03276 C 725.43835,609.64923 729,602.09773 729,601.68613 c 0,-0.41159 2.925,-6.84614 6.5,-14.29899 3.575,-7.45284 6.5,-13.96995 6.5,-14.48245 0,-0.51251 0.427,-1.71322 0.94888,-2.66826 0.52188,-0.95504 2.14254,-4.66143 3.60145,-8.23643 3.61622,-8.86135 4.16463,-10.04733 6.24259,-13.5 5.11777,-8.50352 8.62328,-12.87384 17.73415,-22.10912 14.14952,-14.34275 33.4523,-36.65715 40.12982,-46.39088 3.29578,-4.80421 6.10982,-8.56723 11.09927,-14.8423 2.33629,-2.93826 4.01423,-5.7202 3.72876,-6.1821 -0.28546,-0.46189 -3.09885,-1.36802 -6.25197,-2.01361 -3.15312,-0.6456 -7.08295,-1.60987 -8.73295,-2.14282 -1.65,-0.53295 -3.95132,-1.15799 -5.11405,-1.38899 -1.16272,-0.23099 -4.66305,-1.54728 -7.77851,-2.92508 -3.11546,-1.37781 -6.15942,-2.5051 -6.76436,-2.5051 -0.60493,0 -4.16404,2.89057 -7.90912,6.42349 -3.74509,3.53292 -8.45724,7.20552 -10.47145,8.16133 -2.01422,0.9558 -5.25522,3.24023 -7.20224,5.0765 -1.94702,1.83628 -4.09698,3.33868 -4.7777,3.33868 -0.68073,0 -1.79788,0.675 -2.48257,1.5 -0.68469,0.825 -2.49659,1.5 -4.02644,1.5 -1.52986,0 -6.62056,2.025 -11.31268,4.5 -6.01309,3.17178 -9.71739,4.5 -12.5502,4.5 -3.62,0 -4.37846,0.47164 -7.63863,4.75 -6.99838,9.18408 -26.59111,28.38508 -32.88189,32.22445 -5.42921,3.31354 -13.22737,3.45363 -15.33907,0.27555 -0.82227,-1.2375 -2.27946,-2.25 -3.2382,-2.25 -0.95875,0 -2.81636,-0.8234 -4.12803,-1.82978 -1.31167,-1.00638 -3.18257,-2.12118 -4.15754,-2.47732 -3.11409,-1.13753 -2.94634,-3.30756 0.83765,-10.83649 3.40813,-6.78107 14.09,-24.67388 18.54613,-31.06592 1.0389,-1.49023 1.8889,-3.64812 1.8889,-4.79531 0,-1.88211 -0.36622,-2.00972 -3.75,-1.30667 -12.29338,2.5542 -23.56424,-3.02053 -17.51015,-8.66077 2.83471,-2.64094 15.80702,-9.53175 23.26015,-12.35566 3.575,-1.35453 7.85,-3.03467 9.5,-3.73364 1.65,-0.69897 3.225,-1.31064 3.5,-1.35926 3.8324,-0.67764 13.41508,-7.45382 21.7933,-15.41065 l 10.2933,-9.77559 -4.7933,-3.04255 c -2.63631,-1.6734 -7.70608,-4.79931 -11.26615,-6.94647 -3.56007,-2.14716 -8.96007,-6.22634 -12,-9.06485 -11.32169,-10.57154 -13.01287,-11.15882 -13.04509,-4.53005 -0.0215,4.42665 -2.49389,20.87409 -3.56122,23.69098 -0.4168,1.1 -5.99698,7.85 -12.4004,15 -13.75916,15.36335 -16.88225,19.81203 -20.00779,28.5 -1.28612,3.575 -2.76807,7.05991 -3.2932,7.74425 -0.52514,0.68434 -0.72316,2.45601 -0.44004,3.93704 0.39334,2.05762 -0.0838,3.16363 -2.02301,4.68898 C 642.19291,479.13982 628,506.01609 628,512.72862 c 0,1.26419 -0.4038,3.07991 -0.89734,4.03495 -0.49354,0.95504 -1.66772,3.76143 -2.60928,6.23643 -0.94156,2.475 -2.10311,5.5125 -2.58122,6.75 -0.58284,1.5086 -1.70013,2.25 -3.39072,2.25 C 616.39775,532 616,531.53607 616,529.05902 c 0,-4.10861 -1.87818,-4.84202 -3.22978,-1.26121 -0.61878,1.63932 -2.46979,3.77494 -4.11337,4.74582 -2.91229,1.72034 -3.0327,1.71044 -4.73288,-0.38919 C 602.074,529.86982 600,529.29155 600,531.06037 c 0,0.61382 -1.57921,0.92966 -3.75,0.75 -3.4111,-0.28232 -3.778,-0.59987 -4.05988,-3.51374 -0.17043,-1.76185 0.15487,-4.88654 0.7229,-6.94377 0.56802,-2.05722 0.84695,-3.92623 0.61983,-4.15335 -0.22712,-0.22712 -1.90243,0.983 -3.7229,2.68915 -3.54627,3.32356 -6.26452,3.9751 -7.13376,1.70988 -0.71232,-1.85627 1.98155,-12.00734 4.4928,-16.92978 2.21509,-4.34194 10.0949,-16.02173 12.97072,-19.22576 2.05232,-2.28655 0.94536,-4.443 -2.28069,-4.443 -2.78203,0 -3.12648,-1.73279 -1.29682,-6.52369 1.11868,-2.92923 2.31026,-4.47631 3.4477,-4.47631 2.68622,0 10.39221,-4.65692 15.89955,-9.6085 3.40244,-3.05908 5.60488,-6.12472 6.95712,-9.6838 1.08824,-2.86424 4.73381,-11.28239 8.10127,-18.70701 5.55347,-12.24438 8.22048,-17.43746 14.38029,-28.00069 1.12254,-1.925 3.06418,-5.46061 4.31475,-7.85692 l 2.27377,-4.35691 -2.13958,-4.14309 c -1.17678,-2.27869 -2.53667,-4.96314 -3.02199,-5.96544 -1.50519,-3.10854 -6.44935,-17.92093 -7.73637,-23.17764 -0.67329,-2.75 -1.58421,-5.9 -2.02425,-7 -0.99523,-2.48781 -3.16833,-16.89999 -3.42125,-22.69004 -0.44817,-10.25986 5.19274,-24.51183 15.30878,-38.67818 3.26816,-4.57669 4.90692,-7.72287 4.32549,-8.3043 -0.51484,-0.51484 -3.77705,-1.16117 -7.24936,-1.43628 -3.47231,-0.27511 -7.02537,-0.87893 -7.8957,-1.3418 -0.87033,-0.46288 -3.83242,-1.08209 -6.58242,-1.37603 -8.84531,-0.94543 -11.24844,-1.81862 -14.64246,-5.32035 -3.29053,-3.39496 -3.33252,-3.55656 -3.67518,-14.14361 -0.20095,-6.20881 0.14909,-12.60052 0.83293,-15.20941 0.64876,-2.475 1.61766,-8.91774 2.15311,-14.31721 0.83169,-8.38669 0.74326,-10.16867 -0.60684,-12.22919 -4.20161,-6.41247 -12.8862,-7.09453 -26.63736,-2.09201 -4.22673,1.53763 -10.9242,5.57308 -10.9242,6.5822 0,0.41043 0.94771,1.60348 2.10603,2.65122 4.42476,4.00236 16.25338,20.92867 20.42893,29.233 4.01726,7.98955 8.15824,22.70886 9.89491,35.17199 2.35506,16.90089 2.66128,21.82251 2.08435,33.5 -1.03966,21.04337 -1.64055,27.30843 -3.64462,38 -0.61857,3.3 -1.25971,7.0768 -1.42476,8.39288 -0.34447,2.74674 -3.08379,14.0711 -4.55099,18.81387 -0.54561,1.76371 -1.16349,4.09709 -1.37306,5.18529 -0.51461,2.67215 -5.44796,16.27891 -6.37141,17.5731 -0.40612,0.56917 -2.2735,4.63486 -4.14972,9.03486 -1.87623,4.4 -4.89369,10.07874 -6.70549,12.61943 -1.81179,2.54069 -3.29417,5.12819 -3.29417,5.75 0,0.62181 -0.49869,1.13057 -1.10821,1.13057 -0.60951,0 -3.88583,2.21022 -7.2807,4.9116 -6.22325,4.95199 -9.25303,6.55116 -17.76476,9.37651 -4.65047,1.54366 -6.4525,1.4036 -14.59231,-1.13418 -5.25035,-1.63692 -14.48086,-8.95893 -18.042,-14.31165 -5.82778,-8.75966 -7.02047,-10.64078 -8.45942,-13.34228 -1.67578,-3.1461 -4.36439,-9.25615 -7.0405,-16 -0.87301,-2.2 -2.09896,-8.725 -2.72433,-14.5 -0.62537,-5.775 -1.38652,-12.75 -1.69144,-15.5 -0.70545,-6.36236 -0.80253,-43.8083 -0.14825,-57.18441 0.27399,-5.60143 0.98353,-10.77643 1.57674,-11.5 0.59322,-0.72358 1.57953,-4.91559 2.1918,-9.31559 1.59484,-11.46114 3.12334,-16.76875 13.10321,-45.5 3.51134,-10.10887 8.405,-18.47387 15.70365,-26.8431 4.27709,-4.90446 10.17526,-12.68363 13.10706,-17.28705 9.17878,-14.41225 18.2392,-23.95952 31.90545,-33.61985 1.75066,-1.2375 3.53875,-2.25703 3.97352,-2.26563 0.43477,-0.009 6.02159,-2.64566 12.41515,-5.86013 6.39356,-3.21448 12.84345,-6.1504 14.33309,-6.52428 1.48963,-0.37387 4.35853,-1.72107 6.37534,-2.99377 2.0168,-1.27271 4.76096,-2.66096 6.09813,-3.085 1.33717,-0.42405 3.81217,-1.61311 5.5,-2.64236 1.68783,-1.02924 3.81433,-1.87304 4.72556,-1.87509 0.91123,-0.002 4.62373,-1.33492 8.25,-2.96192 6.26208,-2.8096 6.59322,-3.12991 6.59322,-6.37755 0,-1.88066 0.68893,-3.99114 1.53095,-4.68996 1.30003,-1.07892 1.71019,-0.79572 2.71924,1.87756 1.33115,3.52661 2.33131,3.79132 6.41877,1.69885 2.6964,-1.38035 7.00229,-2.73941 17.58104,-5.54907 2.6125,-0.69386 4.75,-1.58898 4.75,-1.98915 0,-0.40018 -2.63457,-1.00295 -5.8546,-1.33951 -7.67879,-0.8026 -10.67232,-2.02135 -12.74874,-5.19037 -1.59884,-2.44013 -1.60153,-2.8298 -0.0421,-6.09991 2.43865,-5.1139 6.42482,-6.46834 15.69846,-5.3341 4.09585,0.50096 8.50254,1.16433 9.79265,1.47417 1.29011,0.30984 2.91763,0.0886 3.61672,-0.49155 0.69908,-0.58018 2.11854,-0.93706 3.15434,-0.79306 2.08597,0.29001 36.17741,-18.391255 39.96064,-21.897436 1.31321,-1.217045 5.27634,-3.80016 8.80694,-5.740256 3.5306,-1.940096 8.10127,-4.668879 10.15704,-6.063963 C 755.5971,80.141432 757.88042,79 758.61538,79 c 0.73495,0 2.80966,-0.898318 4.61045,-1.996262 1.80079,-1.097944 4.29655,-1.997944 5.54613,-2 7.69951,-0.01267 29.8446,15.581976 31.97244,22.515089 0.63282,2.061921 0.69591,3.709043 0.15487,4.043423 C 799.83395,102.22066 794,98.305285 794,96.931906 794,96.419358 793.41211,96 792.69359,96 c -0.71853,0 -4.56611,-2.296579 -8.55018,-5.103509 -4.61753,-3.253225 -7.92555,-4.925221 -9.12426,-4.61175 -1.15436,0.301871 -2.73642,-0.419338 -4.09712,-1.867737 -1.21915,-1.297722 -2.93785,-2.22664 -3.81933,-2.06426 -2.3248,0.428255 -7.93195,3.205616 -13.1027,6.490098 -4.50088,2.858978 -12.48567,7.447104 -24.89716,14.306108 -3.63156,2.00692 -12.67784,6.67949 -20.10284,10.38348 -13.15418,6.56201 -13.70493,6.73692 -21.5,6.8281 -4.4,0.0515 -10.7,-0.1211 -14,-0.38348 -5.57867,-0.44355 -6.02182,-0.3238 -6.31068,1.70529 -0.49904,3.50539 3.11308,4.54364 20.7868,5.97483 3.58813,0.29056 7.23567,1.16279 8.10563,1.93829 0.86996,0.77549 2.66996,1.37504 4,1.33233 1.33004,-0.0427 10.69167,0.17412 20.80364,0.48185 21.33016,0.64913 20.17799,0.17715 32.70739,13.39816 6.82333,7.19996 7.31458,7.51438 12.93102,8.27655 8.91121,1.20928 8.43553,1.73744 17.18812,-19.08435 1.96517,-4.675 4.21407,-9.98154 4.99756,-11.79232 0.78348,-1.81077 2.00339,-4.96077 2.7109,-7 0.70751,-2.03922 1.91486,-3.71957 2.683,-3.73411 0.76814,-0.0145 2.00943,-0.40969 2.75842,-0.87812 1.93522,-1.2103 3.0894,1.12699 2.11771,4.28847 -2.11693,6.88762 -5.15266,14.7314 -6.49326,16.77741 -0.81744,1.24757 -1.48625,2.76095 -1.48625,3.36308 0,0.60212 -1.8,4.86614 -4,9.47559 -2.2,4.60945 -4,8.9531 -4,9.65256 0,0.69945 1.72811,3.08877 3.84023,5.30959 3.98993,4.19524 7.07782,11.06315 8.17209,18.17591 0.53003,3.44517 0.19852,4.7847 -1.97989,8 -1.59116,2.34853 -3.97162,4.32967 -6.07447,5.0555 -4.04288,1.39545 -17.12504,1.70331 -18.50796,0.43555 -0.5225,-0.47899 -2.15026,-1.15322 -3.61724,-1.49828 -4.68107,-1.10109 -4.26106,3.00038 0.87142,8.50948 1.57244,1.68781 2.06949,2.88154 1.37782,3.30901 -1.69791,1.04937 -1.27344,2.26736 0.99711,2.86112 2.74309,0.71733 2.2864,5.03613 -0.57911,5.47647 -2.84754,0.43758 -9.5,3.38565 -9.5,4.20998 0,1.21404 3.38463,3.63011 7,4.99685 7.43918,2.81228 21.714,10.03276 23.30054,11.78586 1.95044,2.15521 17.89853,26.55148 27.96919,42.78529 7.05077,11.3658 42.73698,46.27673 52.83278,51.68501 1.31862,0.70637 6.83712,4.65162 12.26334,8.76721 5.42623,4.11559 10.58531,7.93289 11.46463,8.48289 0.87932,0.55 4.03133,2.8 7.00445,5 2.97313,2.2 6.28944,4.51038 7.36957,5.13418 1.08013,0.62381 2.46599,1.63631 3.07968,2.25 0.6137,0.6137 1.9016,1.11582 2.86201,1.11582 0.9604,0 5.0329,1.73152 9.05,3.84782 6.3332,3.33647 10.43918,5.44802 18.04024,9.27738 0.95504,0.48114 2.66489,0.8748 3.79966,0.8748 1.13478,0 3.39088,0.68656 5.01357,1.52568 1.62269,0.83912 2.95034,1.23402 2.95034,0.87756 0,-0.35647 0.64434,-0.11338 1.43187,0.54021 0.78752,0.65359 5.85002,2.06628 11.25,3.13931 5.39997,1.07303 10.94313,2.43961 12.31813,3.03686 1.375,0.59724 3.59347,1.28813 4.92993,1.53532 1.33646,0.24719 2.86634,0.71915 3.39975,1.04881 0.5334,0.32966 2.41083,0.72869 4.17207,0.88673 1.76125,0.15804 5.02286,1.23629 7.24803,2.39612 2.22517,1.15982 5.27952,2.33249 6.78742,2.60593 4.9382,0.89546 9.2579,3.18664 9.9158,5.25931 0.8044,2.5344 -2.5292,9.28704 -6.8082,13.79106 C 993.22718,420.76608 979.62423,433 977.33823,433 c -0.48068,0 -2.52955,1.125 -4.55304,2.5 -2.0235,1.375 -4.27543,2.5 -5.00429,2.5 -0.72887,0 -2.89024,1.26419 -4.80306,2.80931 -1.91281,1.54513 -5.27784,3.61465 -7.47784,4.59894 -12.60349,5.63886 -12.53501,5.59026 -11.87806,8.42952 0.3388,1.46422 1.27342,3.71377 2.07693,4.99899 0.80351,1.28522 1.25245,2.54525 0.99764,2.80007 -0.25482,0.25481 -0.0487,2.12827 0.45794,4.16323 0.50669,2.03497 1.794,9.77494 2.86069,17.19994 1.0667,7.425 2.58955,16.875 3.38411,21 4.03371,20.94102 6.58779,35.79152 6.59392,38.33975 0.004,1.56187 1.37608,6.96187 3.04962,12 1.67353,5.03814 4.18897,12.76025 5.58985,17.16025 1.40089,4.4 2.92835,8.9 3.39436,10 0.46602,1.1 1.13636,3.125 1.48966,4.5 0.75566,2.94095 1.99467,5.76881 8.98195,20.5 2.86962,6.05 5.55643,12.125 5.97067,13.5 0.41425,1.375 1.35971,3.85 2.10102,5.5 1.62537,3.61775 5.11105,15.58226 7.13768,24.5 1.73754,7.64561 1.1632,18.67072 -1.27684,24.51056 -1.3447,3.21831 -1.4269,4.5951 -0.47417,7.94136 4.16483,14.62793 5.28293,18.32427 6.21603,20.54808 0.5769,1.375 1.2653,3.8281 1.5297,5.45134 1.2087,7.41902 2.6795,10.03789 5.7973,10.32287 5.7941,0.52959 7.5,1.23921 7.5,3.11984 0,2.16034 -5.544,3.72926 -7.4852,2.11826 -1.5656,-1.29932 -2.5148,-0.26837 -2.5148,2.73128 0,1.35035 -1.3332,3.7435 -3.0318,5.4421 -2.7535,2.75343 -3.4373,2.97105 -7.44681,2.36979 -4.20995,-0.63132 -4.49045,-0.51599 -6.04189,2.48416 -0.89483,1.73042 -1.39222,3.38098 -1.10529,3.6679 0.57072,0.57073 2.89271,0.57527 37.91639,0.0743 23.4286,-0.33513 23.7862,-0.30943 23.5,1.68893 -0.2629,1.83613 -0.9092,2.00183 -6.7906,1.74116 -17.9317,-0.79476 -29.1674,-0.82697 -35.5892,-0.10204 -9.08799,1.0259 -22.77664,-0.42265 -27.90151,-2.95256 -2.84019,-1.40207 -4.5016,-1.69661 -5.76282,-1.02162 -1.01926,0.54549 -13.131,0.86112 -28.50929,0.74294 -35.22612,-0.2707 -62.96278,0.71983 -72.78454,2.59926 -10.13476,1.93932 -13.35926,1.92902 -14.11681,-0.0451 z m 127.41403,-4.01625 c -0.95295,-0.95296 -2.86349,0.5906 -2.1533,1.7397 0.42212,0.683 0.98146,0.66575 1.69964,-0.0524 0.58876,-0.58876 0.79291,-1.34803 0.45366,-1.68727 z M 883.5,730.62105 c 6.05,-0.23593 11.3926,-0.47218 11.87244,-0.52501 0.47985,-0.0528 0.33011,-0.74952 -0.33274,-1.54821 -0.96886,-1.16739 -4.47367,-1.44182 -17.87245,-1.39942 -16.85542,0.0534 -22.1203,0.95031 -18.99439,3.23604 0.84521,0.61803 4.40397,1.01894 7.93022,0.89337 3.51831,-0.12529 11.34692,-0.42083 17.39692,-0.65677 z m -33.98157,-1.59123 C 848.88782,728.00947 842,728.10567 842,729.13483 c 0,0.77912 5.95684,1.65635 7.26631,1.07007 0.42147,-0.1887 0.53493,-0.71749 0.25212,-1.17508 z m 114.71718,0.69929 c 5.6469,-0.454 6.59414,-2.04841 3.14297,-5.29028 -1.58322,-1.48721 -4.22858,-3.32606 -5.87858,-4.08634 -1.65,-0.76028 -3.675,-1.77561 -4.5,-2.25629 -5.4228,-3.15958 -11.86974,-5.77318 -14,-5.67563 -1.375,0.063 -3.625,0.85696 -5,1.76445 -4.04503,2.6697 -12.95078,6.4157 -21,8.83317 -4.125,1.23889 -8.39076,2.57052 -9.47947,2.95918 -4.63872,1.65595 2.67493,2.99036 19.61664,3.57913 9.54571,0.33175 17.43389,0.67975 17.52929,0.77334 0.23156,0.22716 14.85559,-0.22177 19.56915,-0.60073 z m 34.84284,-1.7711 c 1.50705,-0.80654 1.72605,-1.45471 0.96945,-2.86851 -0.53764,-1.0046 -0.75749,-2.04658 -0.48855,-2.31552 0.26894,-0.26894 -0.14604,-1.016 -0.92218,-1.66014 -1.12836,-0.93646 -1.9348,-0.54884 -4.02416,1.93423 -1.43716,1.70796 -2.61301,3.74585 -2.61301,4.52866 0,1.68529 4.21741,1.91247 7.07845,0.38128 z M 989.25,716.72983 c 3.57857,-3.06682 5.75,-5.71342 5.75,-7.00828 0,-2.12238 -2.73272,-11.23626 -6.06325,-20.22155 -1.01933,-2.75 -2.23821,-6.575 -2.70862,-8.5 l -0.8553,-3.5 -11.67963,-0.059 c -10.16085,-0.0514 -11.75003,0.16273 -12.22094,1.64644 -0.29771,0.93802 -0.45002,2.08959 -0.33846,2.55905 0.44749,1.88313 -1.42958,8.35414 -2.73841,9.44038 -0.76746,0.63694 -1.39539,1.82774 -1.39539,2.64623 0,0.81848 -2.0209,4.37908 -4.49089,7.91243 -2.92512,4.18442 -4.05825,6.57166 -3.25,6.84698 0.68249,0.23249 4.12693,1.14817 7.65431,2.03484 6.55813,1.64853 17.631,6.84741 22.05862,10.35686 2.85867,2.26587 2.72198,2.32112 10.27796,-4.15433 z m -156.96749,2.43442 c 8.9601,-1.24448 4.51889,-2.66107 -8.78251,-2.80133 -12.01979,-0.12674 -35.98297,-1.19058 -37.39114,-1.65997 -0.33487,-0.11162 -0.73691,0.24705 -0.89342,0.79705 -0.79979,2.81059 33.81235,5.5052 47.06707,3.66425 z M 847.75,718.39207 c 5.01087,-0.60675 5.65667,-2.0096 1,-2.17227 -4.7208,-0.16491 -9.88265,0.75655 -9.32178,1.66406 0.62121,1.00514 3.01203,1.15115 8.32178,0.50821 z m -124.35721,-8.27361 c 2.42963,-2.6847 1.83014,-7.6837 -0.89198,-7.43804 -1.09955,0.0992 -2.38059,-0.50112 -2.84676,-1.33412 -0.5498,-0.98244 -1.65732,-1.31131 -3.15237,-0.93608 -1.37135,0.34419 -5.68587,-0.65446 -10.65323,-2.46583 -4.59165,-1.67437 -9.20187,-3.23368 -10.24494,-3.46514 -1.04307,-0.23146 -3.43464,-0.92847 -5.31461,-1.54892 -1.87996,-0.62044 -5.07654,-0.8877 -7.10351,-0.5939 -2.02696,0.2938 -8.18539,1.01916 -13.68539,1.61191 -5.5,0.59276 -12.925,1.55559 -16.5,2.13964 -3.575,0.58405 -7.4,1.03946 -8.5,1.01204 -4.17803,-0.10418 -8.54876,2.0936 -10.08975,5.07353 -2.27047,4.39062 -1.24154,5.94579 3.82631,5.78327 2.34489,-0.0752 7.63844,0.15663 11.76344,0.51518 14.69201,1.27704 46.60372,3.03978 60.56784,3.34564 9.86703,0.21612 11.25847,0.0318 12.82495,-1.69918 z m 4.92589,-13.91811 c 2.03019,-2.24333 4.83294,-9.98861 3.83722,-10.604 -0.40539,-0.25054 -3.86881,-1.17008 -7.69649,-2.04341 -3.82767,-0.87333 -9.08886,-2.34101 -11.69153,-3.26152 -4.63356,-1.63879 -4.78069,-1.62801 -7.06445,0.51747 C 704.42065,682.014 703.04438,683 702.64506,683 701.59191,683 696,687.25316 696,688.05417 c 0,1.22131 13.99673,6.96876 20.31859,8.34339 8.63518,1.87763 10.14484,1.85282 12.00009,-0.19721 z M 744.23095,674.5 c 1.38714,-1.65 4.08169,-5.925 5.98789,-9.5 1.9062,-3.575 4.44574,-8.075 5.64342,-10 1.19768,-1.925 3.3227,-5.975 4.72228,-9 3.92843,-8.4908 9.48949,-19.232 11.39009,-22 0.94413,-1.375 3.15227,-5.425 4.90699,-9 7.89376,-16.08244 16.10686,-28.41569 31.44959,-47.22644 3.20717,-3.93211 7.23851,-9.20225 8.95854,-11.71142 1.72003,-2.50918 3.9819,-5.46214 5.02637,-6.56214 1.04448,-1.1 2.92878,-3.575 4.18735,-5.5 1.25856,-1.925 3.91015,-5.24406 5.89241,-7.37569 1.98227,-2.13163 3.60412,-4.04057 3.60412,-4.24208 0,-0.20151 3.49296,-4.75745 7.76212,-10.12431 7.31756,-9.19905 8.93116,-11.4783 15.60904,-22.0482 1.49079,-2.35965 3.82868,-4.7154 5.19531,-5.23499 3.44672,-1.31044 4.05757,-3.66048 1.96263,-7.55056 -0.9818,-1.82308 -1.50225,-4.05175 -1.15657,-4.95259 1.69009,-4.40431 6.85944,2.85649 9.12482,12.81658 2.06708,9.08827 23.79593,55.9329 28.39306,61.21184 0.95793,1.1 3.28697,4.62185 5.17564,7.82634 3.06708,5.20387 8.14591,11.93938 18.18414,24.11565 9.33164,11.31918 14.94439,19.57387 16.35818,24.05801 1.61898,5.13497 4.11007,26.64701 5.03729,43.5 0.31157,5.66318 1.03719,10.03409 1.79664,10.82242 0.70069,0.72733 5.05031,1.74814 9.66584,2.26845 4.61552,0.52031 10.31997,1.21148 12.67654,1.53592 5.7497,0.79159 12.63707,-0.33797 15.32322,-2.51308 2.15615,-1.74594 2.17224,-1.94815 0.93075,-11.69518 -0.69484,-5.45519 -2.29259,-13.06853 -3.55057,-16.91853 -1.25799,-3.85 -2.57297,-8.35 -2.92219,-10 -0.34922,-1.65 -1.26124,-4.35 -2.02671,-6 -0.76547,-1.65 -2.16522,-5.66189 -3.11054,-8.91532 -0.94533,-3.25342 -2.32573,-7.07842 -3.06755,-8.5 -0.74182,-1.42157 -1.35154,-2.99925 -1.35493,-3.50594 -0.003,-0.50669 -0.61355,-1.63169 -1.35591,-2.5 -1.1588,-1.35539 -3.44697,-7.10571 -9.5814,-24.07874 -0.69574,-1.925 -1.64057,-5.075 -2.09961,-7 -0.45904,-1.925 -2.4109,-9.575 -4.33746,-17 -3.34268,-12.88273 -5.99585,-25.84412 -7.06208,-34.5 -0.271,-2.2 -1.14128,-7.375 -1.93397,-11.5 -0.79268,-4.125 -1.68323,-8.85 -1.97898,-10.5 -2.65214,-14.79621 -3.78689,-21.37391 -4.0541,-23.5 -0.48785,-3.88164 -3.84513,-15.35632 -4.90075,-16.75 -1.3587,-1.79382 -10.16176,-1.60575 -11.7019,0.25 -0.68469,0.825 -2.65229,1.50251 -4.37244,1.50558 -1.72016,0.003 -4.70256,0.40211 -6.62756,0.88676 -5.41101,1.36233 -19.59676,3.08247 -29,3.51651 -7.16609,0.33077 -11.37581,1.1247 -14,2.64033 -0.275,0.15883 -1.44514,-0.21705 -2.60032,-0.83528 -1.42952,-0.76505 -4.46362,-0.86485 -9.5,-0.31247 -4.06982,0.44638 -8.43515,0.42857 -9.70072,-0.0396 -1.26557,-0.46814 -4.11351,-1.07889 -6.32875,-1.35723 -2.21524,-0.27833 -5.00477,-0.74047 -6.19896,-1.02698 -1.69194,-0.40593 -2.71015,0.31167 -4.61245,3.25071 -1.34267,2.0744 -2.50801,4.60049 -2.58965,5.61352 -0.0816,1.01304 -0.78311,2.23412 -1.5588,2.71353 -0.77569,0.4794 -1.41518,1.22555 -1.42109,1.65812 -0.006,0.43256 -1.05042,1.91147 -2.32116,3.28647 -1.27073,1.375 -5.00783,5.875 -8.30467,10 -3.29684,4.125 -8.55232,10.41005 -11.67884,13.96678 -3.12653,3.55673 -7.03459,8.0046 -8.68459,9.88416 -1.65,1.87956 -6.69223,7.17686 -11.20497,11.77178 -11.65099,11.86317 -20.50398,25.37563 -31.0403,47.37728 -8.56452,17.88418 -11.47393,24.69287 -14.9558,35 -1.61725,4.78741 -5.45118,13.28143 -13.31538,29.5 -2.66689,5.5 -5.11009,10.675 -5.42934,11.5 -0.31924,0.825 -1.97491,3.975 -3.67926,7 -5.6387,10.00796 -8.00247,15.2253 -7.49597,16.54522 0.68652,1.78904 5.94922,3.97388 13.12102,5.44725 3.3,0.67796 7.09936,1.54845 8.44301,1.93443 1.34366,0.38597 4.99066,0.67282 8.10444,0.63744 5.02494,-0.0571 5.94497,-0.40162 8.1835,-3.06434 z m -140.38618,-157 c 1.06484,-1.1 2.27612,-3.125 2.69174,-4.5 0.41562,-1.375 1.71519,-4.075 2.88793,-6 1.17274,-1.925 3.00933,-5.1875 4.08131,-7.25 1.07198,-2.0625 2.52173,-3.75 3.22165,-3.75 1.91606,0 1.60312,1.19013 -2.36876,9.00839 C 610.32019,512.9577 608.85934,520 611.24878,520 c 0.8631,0 2.52738,-2.89015 4.17489,-7.25 4.69455,-12.42336 5.20239,-13.11042 7.57633,-10.25 1.98023,2.38603 2.734,1.81692 4.4546,-3.36332 0.88844,-2.67483 3.8496,-9.06593 6.58037,-14.20246 C 636.76574,479.7977 639,475.03775 639,474.35656 c 0,-0.68119 0.45,-1.51664 1,-1.85656 1.9437,-1.20127 0.95787,-3.36292 -2.51155,-5.50714 -1.93136,-1.19364 -5.40324,-3.75072 -7.71531,-5.6824 l -4.20375,-3.51213 -2.7706,3.10083 c -1.52383,1.70546 -3.04231,3.10084 -3.3744,3.10084 -0.33209,0 -1.35094,0.87153 -2.2641,1.93674 -0.91316,1.06521 -4.13529,3.24753 -7.16029,4.8496 -6.21726,3.29272 -7.61316,6.67787 -2.78739,6.7596 4.09599,0.0694 4.326,1.03929 1.16767,4.92384 -1.58416,1.94841 -4.05692,5.00229 -5.49503,6.78639 C 599.1613,493.87605 594,503.32753 594,505.52702 c 0,1.52621 0.64234,1.24274 3.53329,-1.55928 1.94331,-1.88353 4.98081,-5.5602 6.75,-8.17039 2.94883,-4.35056 5.71671,-6.20424 5.71671,-3.82853 0,0.53285 -1.92409,4.02035 -4.27577,7.75 -4.35779,6.91128 -7.01226,13.00612 -6.22165,14.28535 0.24171,0.3911 0.0156,2.18922 -0.50258,3.99583 -1.15165,4.01555 -0.19687,6.03651 1.60699,3.40149 0.71594,-1.04582 2.17294,-2.80149 3.23778,-3.90149 z m 18.57577,-0.5 c 0.31871,-1.65 0.83081,-4.30716 1.13801,-5.9048 0.3072,-1.59764 0.079,-3.20116 -0.50707,-3.56338 -1.33282,-0.82373 -1.78819,0.58735 -2.3294,7.21818 -0.45926,5.62698 0.73947,7.21498 1.69846,2.25 z m 76.41378,-11.9044 c 5.86612,-5.99742 13.77829,-14.34136 17.58258,-18.54209 l 6.9169,-7.63769 -4.03978,-4.20791 c -4.29139,-4.47 -10.39495,-16.15502 -13.3385,-25.53602 -2.01436,-6.41971 -2.89844,-6.69559 -10.1811,-3.17699 -2.28254,1.1028 -4.59348,2.0051 -5.13542,2.0051 -0.54194,0 -5.17593,2.025 -10.29776,4.5 -5.12184,2.475 -9.71381,4.5 -10.20439,4.5 -1.3876,0 -3.50734,2.96229 -2.70068,3.77417 0.39664,0.3992 5.52326,0.95083 11.3925,1.22583 10.49571,0.49177 10.67559,0.54114 10.9299,3 0.14222,1.375 -0.38641,3.625 -1.17474,5 -0.78832,1.375 -2.3072,4.3 -3.37529,6.5 -1.0681,2.2 -2.94708,5.125 -4.17552,6.5 -1.22844,1.375 -3.58625,5.16944 -5.23959,8.4321 -1.65333,3.26265 -4.14907,7.6593 -5.54609,9.77032 -3.96363,5.98947 -1.55378,5.89731 3.6058,-0.13788 9.17818,-10.73577 11.81905,-13.27408 13.44241,-12.92035 1.24782,0.27189 0.52108,1.55546 -3.0813,5.44224 -4.77861,5.15586 -11.64243,15.31873 -10.86861,16.09254 0.23236,0.23236 3.96214,-3.42181 8.28841,-8.12038 4.32627,-4.69856 8.42845,-8.54639 9.11595,-8.55072 2.39241,-0.0151 1.22582,3.73873 -2.5177,8.10134 -4.32217,5.03696 -6.86956,9.58687 -5.9066,10.54982 0.36412,0.36412 1.4523,-0.004 2.41817,-0.81793 0.96587,-0.81398 4.57265,-3.8822 8.01506,-6.81827 3.44241,-2.93607 6.57026,-5.02697 6.95078,-4.64645 0.38052,0.38051 -2.54108,3.93899 -6.49243,7.90773 -3.95135,3.96874 -7.4917,7.55339 -7.86744,7.96589 -0.37575,0.4125 0.10477,0.75 1.06781,0.75 0.96304,0 6.55054,-4.90698 12.41667,-10.9044 z m 34.25874,-29.70773 C 734.6714,473.48609 744.13055,469 746.56222,469 c 2.42816,0 12.4577,-5.27268 20.77945,-10.92407 9.02898,-6.13167 29.88492,-26.02851 35.15833,-33.54151 2.2,-3.13433 5.04397,-7.00166 6.31993,-8.59406 2.88727,-3.60333 4.16609,-13.04735 2.10331,-15.53285 -0.74399,-0.89645 -1.45779,-4.16737 -1.58623,-7.26871 -0.12844,-3.10134 -0.45701,-6.7638 -0.73015,-8.1388 -5.03317,-25.33716 -9.7136,-46.43471 -11.12704,-50.1563 -0.76375,-2.01097 -1.88799,-6.73597 -2.4983,-10.5 -2.30452,-14.21285 -9.04884,-39.89509 -12.60809,-48.01136 -0.76401,-1.74221 -1.66438,-5.17592 -2.00081,-7.63046 -0.51298,-3.74254 -0.2597,-4.8148 1.56933,-6.64383 1.20638,-1.20638 3.11811,-2.04184 4.27796,-1.86954 2.09156,0.31069 3.01747,2.79048 9.26415,24.81149 0.70209,2.475 2.00539,6.24246 2.89623,8.37212 0.89084,2.12967 1.61971,6.22019 1.61971,9.09004 0,2.86985 0.91099,8.7774 2.02442,13.12788 1.93405,7.55685 2.29294,9.16877 3.52353,15.8258 0.29646,1.60372 0.79054,3.32283 1.09796,3.82025 1.57985,2.55626 6.80532,26.30498 8.85932,40.26391 0.32373,2.2 1.06494,5.50057 1.64715,7.33459 1.26878,3.9968 1.60151,6.67181 2.40929,19.36967 l 0.61735,9.70425 -3.58951,5.81547 c -1.97423,3.1985 -3.58951,6.20668 -3.58951,6.68484 0,0.78166 -8.8345,11.32473 -13.25,15.81253 -2.05751,2.09119 -2.24636,3.688 -0.5,4.22778 11.96619,3.69863 17.22861,4.94213 27.75,6.55727 25.88313,3.97332 34.74231,4.54388 47.7509,3.07528 16.89504,-1.90736 24.55174,-3.23584 26.73218,-4.63821 2.17319,-1.3977 5.71522,-2.23408 23.51692,-5.55303 6.325,-1.17924 12.85,-2.70611 14.5,-3.39306 11.83814,-4.9286 27.35,-13.51064 33.09742,-18.31138 1.76862,-1.4773 6.41674,-5.13396 10.32915,-8.12592 3.91242,-2.99195 6.95414,-5.91695 6.75938,-6.5 -0.19476,-0.58304 -2.56627,-1.10496 -5.27003,-1.15981 -2.70375,-0.0549 -6.339,-0.41316 -8.07833,-0.79624 -3.80199,-0.83737 -5.59075,1.04334 -1.87849,1.97506 1.3975,0.35075 2.5409,1.24811 2.5409,1.99413 0,2.22785 -3.41289,3.45555 -6.85879,2.46728 -1.71283,-0.49124 -3.33101,-0.54241 -3.59596,-0.11372 -0.41955,0.67886 -10.07488,2.5194 -17.54525,3.34456 -1.48515,0.16404 -2.38158,0.82474 -2.20828,1.62756 C 947.27246,419.12597 943.89024,422 940.78864,422 937.30397,422 932,416.73573 932,413.27714 c 0,-1.95025 0.53832,-2.2888 3.75,-2.35838 2.0625,-0.0447 5.1,-0.19813 6.75,-0.341 1.65,-0.14287 3.77827,0.12958 4.72948,0.60544 2.26671,1.13396 7.53253,-0.0852 5.61554,-1.30014 -0.73976,-0.46884 -2.92002,-0.86547 -4.84502,-0.8814 -4.44216,-0.0368 -8,-0.97883 -8,-2.11829 0,-0.48585 0.675,-0.88337 1.5,-0.88337 2.31387,0 1.77677,-1.55287 -0.96997,-2.80436 -2.03648,-0.92789 -2.63375,-0.83272 -3.40322,0.54225 -0.74039,1.323 -1.23054,1.42092 -2.37176,0.47378 -0.79118,-0.65662 -2.97223,-1.36108 -4.84678,-1.56547 -3.9907,-0.43512 -5.00296,-2.85211 -1.79414,-4.28392 1.94001,-0.86566 1.41956,-1.23397 -4.48058,-3.17085 -8.51695,-2.79592 -8.70073,-2.77731 -7.98355,0.80857 0.73171,3.65857 -1.70021,4.1941 -4.01812,0.88483 C 909.92639,394.4499 904.60764,391 902.55916,391 c -0.76587,0 -1.65499,-0.5625 -1.97583,-1.25 -0.46578,-0.99811 -0.7013,-0.99685 -1.16874,0.006 -0.81543,1.74983 -2.45802,0.52051 -1.75443,-1.31302 0.43306,-1.12853 -0.12655,-1.45352 -2.29367,-1.33201 -3.62319,0.20314 -7.17816,-1.26431 -10.33255,-4.26517 -1.35633,-1.29032 -4.05633,-3.11865 -6,-4.06296 l -3.53394,-1.71693 4,0.60058 c 2.2,0.33032 5.2057,1.21055 6.67933,1.95606 1.57596,0.79729 3.94385,1.10258 5.75,0.74135 2.34872,-0.46974 3.07067,-0.25723 3.07067,0.90388 0,1.26388 1.7274,2.53871 4,2.95202 0.275,0.05 1.94805,0.69597 3.71788,1.43545 4.44522,1.85733 5.56721,1.74573 4.39875,-0.43755 C 906.19456,383.49503 898.34289,379 896.25548,379 c -1.27378,0 -4.62062,-4.96819 -3.85955,-5.72926 0.30566,-0.30566 1.23577,0.009 2.06692,0.69843 0.89598,0.7436 2.56807,0.9889 4.10734,0.60257 2.03809,-0.51153 2.70399,-0.23929 3.09774,1.26643 0.8215,3.14142 4.5094,4.24641 7.11921,2.13311 1.21707,-0.98552 2.21286,-2.08213 2.21286,-2.4369 0,-0.9319 -10.54668,-5.62249 -13.30274,-5.91633 -1.28244,-0.13673 -3.41409,-1.00673 -4.73699,-1.93333 C 891.63736,366.75813 890.01658,366 889.35853,366 c -0.65805,0 -2.47042,-0.64747 -4.02749,-1.43882 -1.55707,-0.79135 -4.45655,-2.13305 -6.44328,-2.98155 -3.92496,-1.67628 -6.57176,-4.22896 -5.49812,-5.3026 0.37105,-0.37106 2.69164,-0.13518 5.15685,0.52416 2.46522,0.65935 5.71325,1.21476 7.21786,1.23425 1.50461,0.0195 3.86065,0.67854 5.23565,1.46456 2.85928,1.63451 4,1.83862 4,0.71572 0,-0.43135 -2.67604,-2.05517 -5.94675,-3.60849 -3.27072,-1.55332 -7.72975,-4.3504 -9.90897,-6.21572 C 876.96507,348.52618 874.74621,347 874.21348,347 c -0.53272,0 -1.52879,-0.675 -2.21348,-1.5 -0.68469,-0.825 -2.05489,-1.5 -3.04489,-1.5 -1.14934,0 -2.19332,-1.19175 -2.88806,-3.29685 -1.67417,-5.07276 -10.56506,-15.37067 -26.03482,-30.15492 -18.60445,-17.78005 -27.03659,-27.00151 -31.13381,-34.04823 -1.27917,-2.2 -4.05661,-6.21208 -6.17211,-8.91573 -2.1155,-2.70366 -4.54145,-6.2599 -5.39101,-7.90277 -2.83117,-5.47488 -15.15517,-21.44253 -18.51789,-23.99278 -3.51008,-2.66202 -12.64385,-6.31722 -19.31741,-7.73055 -3.53664,-0.74899 -7.2064,-2.38872 -14.99713,-6.70103 -3.98681,-2.20677 -7.9136,0.0937 -12.46715,7.30372 -2.21964,3.51457 -4.03572,6.63562 -4.03572,6.93567 0,0.56004 -4.30641,10.12205 -8.55853,19.00347 C 715.69571,262.32379 714,267.03964 714,269.63302 c 0,1.31383 -0.84673,4.29637 -1.88163,6.62788 -3.43199,7.73191 -4.22467,10.37309 -4.60049,15.32865 -0.20482,2.70075 -0.80377,8.06045 -1.331,11.91045 -0.87057,6.3572 -0.79758,19.17224 0.14525,25.5 1.14715,7.69905 1.97789,11.61023 2.65501,12.5 0.41856,0.55 1.25091,3.84495 1.84967,7.32211 0.59876,3.47716 1.75919,7.66623 2.57873,9.30903 1.54886,3.10476 0.74448,7.53389 -1.63534,9.00471 -0.60208,0.3721 -1.17604,2.63126 -1.27547,5.02035 -0.37893,9.10483 -0.52139,9.8438 -1.89774,9.8438 -2.24865,0 -2.68465,-2.52876 -3.70692,-21.5 -0.53346,-9.9 -1.71127,-22.275 -2.61735,-27.5 -1.83171,-10.5627 -2.48896,-40.88454 -1.0296,-47.5 0.48531,-2.2 0.90586,-5.35 0.93455,-7 0.0287,-1.65 0.71113,-4.575 1.51654,-6.5 3.95622,-9.45573 6.8265,-15.64223 7.88731,-17 0.64455,-0.825 1.50304,-2.625 1.90775,-4 0.74994,-2.54794 7.00179,-14.5602 8.66719,-16.65308 0.50466,-0.6342 1.31189,-2.52804 1.79385,-4.20854 0.73845,-2.57483 0.57454,-3.15124 -1.04201,-3.66431 -1.05506,-0.33486 -1.9183,-1.04264 -1.9183,-1.57284 0,-2.45359 -3.31196,-1.70372 -8.69047,1.96761 -6.62717,4.52367 -17.95827,10.12918 -20.47774,10.13037 -7.62475,0.004 -8.39136,-8.38766 -1.44768,-15.84609 3.63566,-3.90518 7.46038,-5.70863 8.94924,-4.21977 0.67689,0.67689 -0.52548,2.43539 -3.66284,5.35704 -3.65495,3.40365 -4.67051,5.03549 -4.67051,7.50475 0,2.99317 0.13503,3.10402 2.62692,2.15661 4.77767,-1.81647 19.2999,-13.00066 24.12621,-18.58063 5.80146,-6.70739 7.10389,-11.12282 3.99004,-13.52682 -1.82181,-1.4065 -1.94544,-1.89565 -0.82143,-3.25 2.87529,-3.46451 8.07826,-0.16159 8.07826,5.12821 0,1.31631 0.60814,2.27749 1.44098,2.27749 2.79336,0 2.68267,-2.11919 -0.39555,-7.5735 -1.71089,-3.03153 -2.83255,-5.96193 -2.49258,-6.51202 0.33997,-0.55008 2.49216,-0.81439 4.78264,-0.58736 C 738.56926,189.94501 745,185.86613 745,181.2943 c 0,-3.26694 2.40264,-3.86742 7.06397,-1.76545 2.17603,0.98125 4.28295,1.45756 4.68205,1.05847 1.245,-1.245 -16.06381,-16.90183 -21.24602,-19.21826 -1.65,-0.73755 -4.8,-2.68445 -7,-4.32644 -5.39141,-4.02394 -6.86288,-5.00936 -15,-10.04521 -3.85,-2.38266 -9.25,-5.80929 -12,-7.61473 -8.11276,-5.32623 -9.51299,-5.36125 -23.5,-0.58785 -2.475,0.84466 -4.9275,1.91136 -5.45,2.37045 C 672.0275,141.62438 670.60231,142 669.38291,142 666.51163,142 658,145.6455 658,146.87526 c 0,0.52048 2.00422,1.91656 4.45383,3.10239 7.87819,3.81377 6.80969,8.28678 -2.84233,11.8987 -3.28466,1.22917 -5.69196,1.60458 -6.73563,1.0504 -1.13342,-0.60183 -2.16221,-0.26783 -3.40499,1.10543 -2.00796,2.21876 -5.08134,2.60292 -5.74288,0.71782 -0.39001,-1.11133 0.35578,-4.31225 2.67941,-11.5 0.57643,-1.78312 0.34454,-2.25 -1.11752,-2.25 -1.01468,0 -2.73251,0.6206 -3.81738,1.3791 -6.3888,4.46681 -33.0953,17.6209 -35.77537,17.6209 -0.71343,0 -1.72464,0.36783 -2.24714,0.81741 -0.5225,0.44957 -4.2125,2.09612 -8.2,3.65899 -3.9875,1.56287 -7.25,3.22003 -7.25,3.68259 0,0.46256 -0.79941,0.84101 -1.77647,0.84101 -1.9131,0 -13.80041,9.0633 -18.75304,14.29797 -7.99009,8.44509 -14.77381,16.97532 -18.79775,23.63735 -3.89934,6.45572 -4.40793,7.97426 -4.29773,12.832 0.1814,7.99624 1.87957,8.6759 9.16643,3.66871 3.15042,-2.16481 6.4299,-5.00309 7.28774,-6.30726 1.4252,-2.16674 1.41358,-2.47809 -0.13473,-3.61025 -2.3096,-1.68881 -2.15494,-6.7918 0.27241,-8.98853 2.45432,-2.22113 6.53343,-2.2922 8.89502,-0.15499 2.46735,2.23292 3.68959,2.06905 9.64767,-1.29348 6.15088,-3.47134 10.90612,-4.82219 18.94273,-5.38119 3.69056,-0.2567 6.11726,-0.90894 6.38645,-1.71652 0.26786,-0.80359 -0.11621,-1.09131 -1.00266,-0.75114 -0.79026,0.30325 -2.53916,-0.0591 -3.88645,-0.80522 -1.34729,-0.74612 -3.46212,-1.37253 -4.69962,-1.39201 -3.09706,-0.0488 -2.88002,-2.84541 0.3151,-4.06019 4.25529,-1.61786 10.44193,-1.13403 14.0554,1.09922 1.84611,1.14096 5.57097,2.31253 8.27746,2.60349 4.15922,0.44713 5.08081,0.23022 5.95403,-1.40141 0.81033,-1.51411 0.61421,-2.28913 -0.90943,-3.5937 C 620.85768,195.89772 620.31511,193 622.06574,193 c 2.21867,0 5.06566,2.21542 5.99787,4.6673 0.75864,1.99538 0.52555,3.26139 -1.07828,5.85644 -2.34192,3.78931 -7.66167,5.31021 -12.3453,3.5295 C 613.11641,206.47396 611.2241,206 610.4349,206 c -2.38913,0 -1.60708,1.91868 1.05431,2.58665 1.36907,0.34361 3.88176,2.21077 5.58375,4.14923 2.906,3.30975 3.07538,3.93912 2.78012,10.3303 -0.17292,3.7432 -0.0411,7.07917 0.29303,7.41326 0.99332,0.99332 8.28742,-7.93943 11.67906,-14.3028 1.7331,-3.25162 3.73402,-6.39584 4.4465,-6.98714 1.50747,-1.25109 3.40908,-0.3454 3.80139,1.8105 0.3239,1.77997 -2.05161,7 -3.18553,7 -0.4353,0 -2.21448,2.0683 -3.95373,4.59622 -1.73926,2.52792 -5.39963,6.91542 -8.13416,9.75 -2.73453,2.83458 -5.44901,6.27878 -6.03219,7.65378 -1.37901,3.25139 -1.69813,17.18736 -0.53148,23.20942 1.60682,8.29414 6.9069,12.19914 12.74607,9.39106 1.38488,-0.66599 3.86796,-1.12899 5.51796,-1.02888 4.97595,0.30189 14.37479,3.20306 17.43398,5.38139 3.48157,2.4791 5.80871,2.58985 8.23728,0.39202 1.70619,-1.54408 1.97385,-1.52733 3.99408,0.25 9.97123,8.77233 12.90017,11.45456 16.7841,15.37041 2.78942,2.81233 5.40102,4.52765 7,4.59765 3.53924,0.15493 3.58355,3.83053 0.0506,4.19444 -1.69428,0.17452 -3.78914,-0.898 -6.5,-3.32785 -7.00193,-6.27611 -9.94272,-8.22516 -12.1846,-8.0755 -3.23312,0.21584 -7.84605,7.69986 -11.28137,18.30291 -2.75868,8.5146 -2.89093,9.60208 -1.88506,15.5 1.13119,6.63269 4.73636,14.03859 10.77593,22.13637 4.32741,5.80214 14.45214,17.93509 18.5767,22.26136 1.65088,1.73162 3.60375,4.22768 4.33971,5.5468 0.73597,1.31912 4.26255,4.6484 7.83685,7.3984 3.5743,2.75 10.07793,8.2625 14.4525,12.25 4.37458,3.9875 8.34803,7.25 8.8299,7.25 0.48187,0 3.24848,2.025 6.14802,4.5 2.89953,2.475 5.80118,4.5 6.4481,4.5 1.05157,0 24.11974,-22.13639 27.18979,-26.09153 1.0128,-1.30477 0.72299,-2.65606 -1.60852,-7.5 -1.56414,-3.24966 -3.61946,-8.26568 -4.56738,-11.14671 -0.94792,-2.88103 -2.14551,-5.49906 -2.66132,-5.81785 -2.06129,-1.27395 -4.71221,-8.28883 -5.40035,-14.29046 -0.40023,-3.4906 -1.33043,-7.50833 -2.06711,-8.9283 -0.73669,-1.41996 -1.14005,-2.90436 -0.89636,-3.29866 0.2437,-0.39431 -0.18144,-0.95657 -0.94474,-1.24948 -0.76657,-0.29416 -1.60402,-2.46734 -1.87082,-4.85478 -0.26565,-2.37723 -1.23273,-6.79723 -2.14906,-9.82223 -1.97473,-6.51896 -2.20334,-8.18404 -3.06485,-22.32268 -0.36271,-5.95248 -1.02505,-13.13537 -1.47188,-15.96198 C 735.1985,273.3662 736.73216,269 739.45668,269 c 2.16053,0 9.58767,30.79622 11.93795,49.5 0.81138,6.45703 1.7433,10.02581 5.48378,21 1.68717,4.95 5.12272,15.75 7.63454,24 2.51182,8.25 5.01451,16.06777 5.56153,17.37283 1.34682,3.21321 -0.0255,5.12396 -11.768,16.38529 -5.30022,5.08304 -15.07495,14.45186 -21.72162,20.81961 -6.64667,6.36775 -14.39603,13.23089 -17.22079,15.25143 -2.82476,2.02054 -5.81629,4.71208 -6.64785,5.9812 -1.52148,2.32206 -1.28242,7.22167 0.40318,8.26343 0.48433,0.29934 0.8806,1.61613 0.8806,2.92621 0,1.31008 0.40868,2.63454 0.90817,2.94324 0.49949,0.30871 1.50104,2.87454 2.22565,5.70185 0.86877,3.38974 2.71354,6.70973 5.4164,9.74774 2.2544,2.53394 4.38874,5.39467 4.74296,6.35717 0.80722,2.19337 4.03038,2.26999 5.79988,0.13787 z M 750.97701,450.75 C 745.34633,445.13028 738,434.09731 738,431.26068 738,429.70172 738.59321,429 739.91111,429 c 2.24623,0 4.81615,3.01642 14.33889,16.83017 6.38593,9.26347 4.26836,12.44651 -3.27299,4.91983 z m 126.5911,-9.63979 c -0.94619,-1.53097 0.17551,-3.06224 3.04132,-4.15182 1.32833,-0.50503 2.93866,-2.0672 3.5785,-3.4715 1.06601,-2.33965 0.79946,-2.92403 -3.18592,-6.98484 -3.653,-3.72214 -4.07532,-4.53669 -2.63807,-5.08821 2.5354,-0.97293 8.63175,1.69979 10.94532,4.79856 2.96245,3.96788 2.61713,8.32274 -0.94217,11.88205 -3.15599,3.15599 -9.60009,4.9556 -10.79898,3.01576 z m -26.12785,-5.56104 c -2.83108,-4.32077 -1.32033,-6.6204 3.55974,-5.41858 1.17286,0.28884 1.42842,-0.44844 1.1718,-3.38059 -0.35757,-4.08552 0.6358,-4.72507 3.10361,-1.99817 3.635,4.01663 3.84856,10.27825 0.42478,12.45463 -2.56173,1.6284 -6.6437,0.80938 -8.25993,-1.65729 z M 907,435.25329 c 0,-1.10462 0.675,-2.5686 1.5,-3.25329 0.825,-0.68469 1.5,-1.80969 1.5,-2.5 0,-0.69031 -0.675,-1.81531 -1.5,-2.5 -2.44267,-2.02724 -1.79588,-4 1.31144,-4 3.96474,0 7.18856,3.32605 7.18856,7.41651 0,3.95798 -1.55214,5.47428 -6.41077,6.26272 -3.1209,0.50646 -3.58923,0.3204 -3.58923,-1.42594 z m -85.59501,-8.37225 c -1.87977,-2.09091 -1.8752,-2.13886 0.34501,-3.62197 1.2375,-0.82666 2.25,-2.29998 2.25,-3.27405 0,-1.8707 1.89706,-2.98502 5.08179,-2.98502 3.20779,0 3.05999,7.53546 -0.20104,10.25 -2.79292,2.32486 -5.15894,2.20809 -7.47576,-0.36896 z m 84.00977,-11.44607 c -1.33335,-0.93363 -5.48004,-1.61349 -11.5,-1.88545 C 884.8851,413.14159 877,411.36566 877,409.73988 c 0,-0.42391 4.55585,-0.48375 10.12411,-0.13298 7.96475,0.50173 10.0337,0.36654 9.70024,-0.63385 -0.48754,-1.46261 -12.8495,-8.69027 -16.37848,-9.57599 -1.30011,-0.32631 -2.88739,-1.22414 -3.5273,-1.99517 C 876.27867,396.63085 874.95836,396 873.98454,396 872.35414,396 871,394.14802 871,391.91821 c 0,-1.6859 2.81466,-0.94504 5.73029,1.5083 1.58606,1.33458 6.23309,4.05449 10.32673,6.04423 8.68832,4.22303 9.40342,4.64246 17.67513,10.36704 6.12818,4.24112 8.0177,7.21467 4.51785,7.10977 -0.9625,-0.0288 -2.68836,-0.70951 -3.83524,-1.51258 z m 4.14185,-7.37242 c -1.00121,-1.10632 -2.77353,-2.30287 -3.93849,-2.659 -1.16497,-0.35613 -3.91812,-2.10045 -6.11812,-3.87627 -2.2,-1.77582 -6.025,-4.20611 -8.5,-5.40066 -8.84286,-4.26794 -12.53243,-6.99419 -11.22926,-8.29736 1.22105,-1.22105 7.43075,1.065 9.33316,3.43592 0.88214,1.09939 2.17902,1.80718 2.88195,1.57287 0.70293,-0.23431 2.46539,0.61585 3.91658,1.88925 1.45119,1.27339 6.22931,4.44319 10.61805,7.04398 7.57909,4.49142 9.86271,7.33866 6.41801,8.00205 -0.85883,0.16539 -2.38067,-0.60446 -3.38188,-1.71078 z M 648.36223,455.21377 C 651.10597,448.38865 656.37329,441 658.49514,441 659.9404,441 665,435.45246 665,433.86782 c 0,-0.53831 3.41858,-4.89128 7.59685,-9.67328 4.17826,-4.782 8.23058,-10.14814 9.00515,-11.92475 0.77457,-1.77662 2.31844,-9.42355 3.43083,-16.99318 1.92365,-13.09019 1.93685,-13.82561 0.27,-15.04444 -3.92853,-2.87261 -13.8426,-13.05866 -17.42529,-17.90332 -2.10328,-2.84414 -6.76115,-10.86079 -10.35084,-17.81478 -5.99187,-11.60753 -6.52477,-13.15047 -6.50316,-18.82884 0.0129,-3.40188 0.91488,-9.53717 2.0043,-13.63399 1.08942,-4.09682 1.72351,-8.25932 1.40908,-9.25 C 654.07208,301.65174 654.3718,301 655.26525,301 656.61886,301 663,293.88283 663,292.37309 c 0,-0.4093 0.98404,-1.79165 2.18676,-3.07188 2.39817,-2.55275 1.8436,-3.6837 -2.28122,-4.65212 -3.06541,-0.71969 -5.98189,1.89605 -8.30004,7.44416 -0.81947,1.96128 -2.19095,4.14774 -3.04772,4.8588 -2.00825,1.6667 -2.00752,4.04795 10e-4,4.04795 0.85746,0 1.2809,0.45 0.94098,1 -0.33992,0.55 -1.38323,1 -2.31847,1 -0.93524,0 -2.34943,1.0125 -3.14265,2.25 -2.78992,4.35258 -5.03888,9.19039 -5.03888,10.83932 0,0.91654 -0.72129,3.39272 -1.60286,5.50263 -1.47978,3.5416 -1.55566,12.34106 -0.15012,17.40805 0.22885,0.825 1.00382,3.525 1.72215,6 0.71833,2.475 1.45205,5.625 1.6305,7 0.17844,1.375 0.52067,3.625 0.76052,5 0.64166,3.67863 4.2379,13.44411 5.94776,16.15099 0.81609,1.29196 1.80738,3.47401 2.20286,4.84901 0.39548,1.375 1.61946,3.48448 2.71994,4.68773 1.12219,1.22698 2.22624,4.18705 2.51403,6.74036 0.46881,4.15924 0.0359,5.3527 -5.0096,13.81226 C 646.20597,414.18745 636,434.31505 636,436.24444 c 0,0.74556 -0.44699,1.80255 -0.99331,2.34887 -0.54631,0.54631 -2.08462,3.778 -3.41845,7.18152 l -2.42514,6.18822 7.05987,6.09134 c 8.14091,7.02409 8.17697,7.01565 12.13926,-2.84062 z m -95.92699,-9.31855 C 552.13094,445.40285 551.51348,445 551.06311,445 c -1.30232,0 -7.2085,-2.83421 -11.56311,-5.54881 -5.13753,-3.20266 -6.47462,-3.8099 -7.07255,-3.21198 -0.69222,0.69223 4.62186,6.18747 7.43776,7.69132 5.82476,3.11075 14.07533,4.40031 12.57003,1.96469 z M 560,445.38337 C 560,445.17252 559.1,445 558,445 c -1.1,0 -2,0.40787 -2,0.90638 0,0.49851 0.9,0.67103 2,0.38337 1.1,-0.28766 2,-0.69553 2,-0.90638 z m -5.22005,-5.56332 c 0.64897,-0.64897 3.55147,-2.33647 6.45,-3.75 5.69267,-2.77615 14.07112,-12.07319 15.24431,-16.91567 0.3537,-1.45991 1.53307,-4.51781 2.62083,-6.79533 1.08776,-2.27752 2.17542,-5.16742 2.41703,-6.422 0.24161,-1.25457 1.36298,-5.24114 2.49193,-8.85904 3.4342,-11.00542 4.34521,-14.34191 5.48214,-20.07801 0.0545,-0.275 0.61635,-2.075 1.24854,-4 1.12609,-3.42894 3.67648,-16.57417 4.75339,-24.5 2.62634,-19.32928 3.82902,-59.15758 1.86131,-61.64007 -0.59286,-0.74796 -1.34108,-4.66119 -1.66272,-8.69606 -0.32163,-4.03488 -1.01181,-7.85988 -1.53372,-8.5 -0.52191,-0.64013 -1.61981,-3.43958 -2.43978,-6.221 -2.74395,-9.30774 -10.60873,-23.25801 -16.90963,-29.99369 l -5.98459,-6.39754 -8.40949,7.02395 c -4.62523,3.86318 -8.4095,6.7877 -8.4095,6.49894 0,-0.28877 -1.12293,-0.0981 -2.49539,0.42372 -2.10365,0.7998 -3.05848,0.45434 -6.0823,-2.20061 -2.94018,-2.58151 -3.76008,-2.89226 -4.54734,-1.72349 -2.74447,4.07441 -8.86982,17.27883 -10.86694,23.42585 -1.25083,3.85 -2.6048,7.45 -3.00882,8 -1.81368,2.46901 -5.31841,16.45033 -6.39216,25.5 -0.2284,1.925 -1.3387,8.45 -2.46732,14.5 -1.12862,6.05 -2.53634,15.53969 -3.12826,21.08819 -1.4994,14.05482 -0.0649,40.0393 2.97633,53.91181 0.60287,2.75 1.27891,6.40744 1.50232,8.12765 0.2234,1.7202 1.34198,5.9055 2.48573,9.30067 1.14375,3.39517 1.88104,6.49422 1.63841,6.8868 -1.08636,1.75778 6.56778,13.90675 13.55094,21.50861 9.57101,10.41898 16.16401,13.94706 19.61475,10.49632 z M 583.5197,424.25588 C 587.56239,415.73885 587.68156,415 585.01254,415 c -1.22079,0 -2.93188,1.49608 -4.43575,3.87835 -3.29069,5.2128 -5.6952,11.12165 -4.52576,11.12165 1.47676,0 1.11636,2.61619 -0.55103,4 -0.825,0.68469 -1.5,1.72398 -1.5,2.30954 0,2.64249 6.37609,-5.43079 9.5197,-12.05366 z M 527.90156,431.25 c -1.24385,-2.0625 -3.43782,-5.325 -4.87548,-7.25 -1.43766,-1.925 -3.14702,-4.7375 -3.79857,-6.25 -1.20269,-2.79193 -2.6432,-3.50445 -3.68313,-1.82181 -0.75425,1.2204 4.70685,9.46545 9.81722,14.82181 2.23015,2.3375 4.22282,4.25 4.42817,4.25 0.20534,0 -0.64435,-1.6875 -1.88821,-3.75 z m 60.35417,-19 c 0.86113,-0.9625 1.815,-3.1 2.1197,-4.75 0.30469,-1.65 1.62584,-6.375 2.93588,-10.5 5.73407,-18.05518 12.51669,-50.39989 11.25708,-53.68236 -0.33159,-0.86413 -0.0797,-2.20156 0.55979,-2.97209 1.71392,-2.06515 1.82587,-44.79113 0.12182,-46.49539 -1.44266,-1.44284 -1.32259,-2.38898 -1.73226,13.64984 -0.44521,17.43004 -2.20546,38.34421 -3.91369,46.5 -0.86399,4.125 -2.07711,9.975 -2.69582,13 -0.61872,3.025 -1.74079,7.525 -2.49348,10 -0.7527,2.475 -2.05339,7.425 -2.89043,11 -1.33413,5.6981 -5.77303,19.1943 -7.97582,24.25 -0.57922,1.3294 -0.29333,1.75 1.18952,1.75 1.0736,0 2.65657,-0.7875 3.51771,-1.75 z M 516.125,408.375 c -0.90426,-1.98463 -1.51242,-2.38758 -2.34575,-1.55425 -0.83333,0.83333 -0.80851,1.81962 0.0957,3.80425 0.90426,1.98463 1.51242,2.38758 2.34575,1.55425 0.83333,-0.83333 0.80851,-1.81962 -0.0957,-3.80425 z M 953,406.01921 c 0,-0.94546 -6.10189,-2.25065 -6.88076,-1.47178 -0.30873,0.30872 -0.0531,0.87435 0.56807,1.25694 1.59083,0.97984 6.31269,1.14054 6.31269,0.21484 z m 14.72712,-0.70058 c 0.47092,-1.41275 -6.41507,-2.23068 -7.72784,-0.91791 -0.5496,0.5496 -0.99928,1.35208 -0.99928,1.78328 0,1.20006 8.31343,0.37572 8.72712,-0.86537 z M 514.48732,398.75 c -0.36923,-3.4375 -1.07629,-8.275 -1.57124,-10.75 -4.29209,-21.46229 -5.01809,-27.87873 -4.80337,-42.45202 0.22605,-15.34171 1.2455,-28.09345 2.96183,-37.04798 0.5271,-2.75 1.21923,-6.35 1.53806,-8 0.31883,-1.65 0.70901,-4.125 0.86705,-5.5 0.15805,-1.375 0.79704,-4.3 1.41997,-6.5 0.62293,-2.2 1.81121,-7.22696 2.64063,-11.17101 1.46578,-6.97009 3.96965,-13.6729 10.30226,-27.57899 1.69061,-3.7125 2.65304,-6.75 2.13872,-6.75 -1.53585,0 -3.83337,4.21497 -6.38197,11.70817 -1.3207,3.88302 -3.15961,8.2174 -4.08646,9.63195 -0.92686,1.41456 -1.41406,3.01062 -1.08268,3.54681 0.33138,0.53618 0.14516,1.25753 -0.41381,1.60299 -0.55897,0.34546 -1.01631,1.42724 -1.01631,2.40394 0,0.97671 -0.95651,4.66265 -2.12559,8.19098 -2.2348,6.74479 -6.24017,27.71068 -7.95759,41.65364 -0.55813,4.53116 -0.83052,19.38116 -0.60532,33 0.33371,20.181 0.80009,26.63761 2.52114,34.90337 2.21842,10.65448 3.87446,15.35815 5.40719,15.35815 0.53201,0 0.63619,-2.63113 0.24749,-6.25 z m 473.50774,3.10941 c 0.0102,-1.32833 -7.08733,-1.45316 -8.17402,-0.14377 -0.88872,1.07083 -0.2139,1.272 3.53536,1.0539 2.54855,-0.14825 4.63595,-0.55781 4.63866,-0.91013 z m -11.57031,-0.73766 c 0.63837,-1.03289 -1.33934,-1.48958 -19.92475,-4.60097 -7.7,-1.28906 -14.45,-2.43687 -15,-2.55068 -2.08954,-0.43241 -5.80497,0.0583 -5.17924,0.68399 0.35975,0.35975 4.37225,1.94495 8.91666,3.52267 6.79524,2.35916 9.73186,2.83914 16.53609,2.70275 4.55043,-0.0912 8.56293,0.12359 8.91666,0.47733 0.95102,0.95102 5.10682,0.78065 5.73458,-0.23509 z M 998,395.15109 c 0,-0.99645 -7.96422,-3.5202 -8.7209,-2.76353 -0.2894,0.2894 -0.28866,1.14513 0.002,1.90163 0.57037,1.48635 8.71927,2.29187 8.71927,0.8619 z M 933.5,392 c 0.33992,-0.55 -0.11008,-1 -1,-1 -0.88992,0 -1.33992,0.45 -1,1 0.33992,0.55 0.78992,1 1,1 0.21008,0 0.66008,-0.45 1,-1 z m 22,-1 c 0.34913,-1.1 1.08101,-2 1.6264,-2 2.34605,0 -0.41517,-1.83159 -3.68637,-2.44527 -1.97013,-0.3696 -4.2251,-0.91876 -5.01104,-1.22035 C 947.64304,385.03278 947,385.1973 947,385.69997 c 0,0.50267 1.2375,1.40294 2.75,2.00061 l 2.75,1.08666 -3.19098,0.10638 C 947.55398,388.95213 945.83992,388.55 945.5,388 c -0.33992,-0.55 -1.47395,-1 -2.52006,-1 -1.04612,0 -2.70706,-0.83728 -3.69098,-1.86062 -0.98393,-1.02334 -3.81396,-2.15227 -6.28896,-2.50874 l -4.5,-0.64812 2.5,1.9865 c 1.375,1.09258 3.04014,1.99651 3.70031,2.00874 0.66017,0.0122 1.56017,0.63627 2,1.38676 1.35836,2.31778 7.10523,4.72239 9.71862,4.06647 1.33991,-0.33629 3.25629,-0.13453 4.25863,0.44837 2.73659,1.59144 4.1182,1.33951 4.82244,-0.87936 z M 930,390.05152 c 0,-1.77119 -4.58915,-5.9103 -7.31009,-6.59321 -1.48984,-0.37393 -2.95611,-1.08002 -3.25838,-1.56909 C 919.12927,381.40015 918.22495,381 917.42193,381 c -1.08323,0 -1.29276,0.70972 -0.81187,2.75 0.83046,3.52346 1.75234,4.48425 5.68402,5.92392 3.97357,1.45502 7.70592,1.63791 7.70592,0.3776 z m 53.45,0.15262 c -2.24939,-1.88442 -8.45029,-3.3033 -10.18368,-2.33022 -2.03656,1.14329 -0.98124,1.74981 4.23368,2.43325 5.5245,0.72401 6.90861,0.70005 5.95,-0.10303 z M 968,387 c 0,-0.55 -0.19844,-1 -0.44098,-1 -0.24254,0 -0.7191,0.45 -1.05902,1 -0.33992,0.55 -0.14148,1 0.44098,1 0.58246,0 1.05902,-0.45 1.05902,-1 z m -10,-4.97501 C 958,381.18667 950.1306,377 948.55486,377 c -1.82079,0 -0.0517,1.94373 2.69514,2.96127 1.7875,0.66214 3.925,1.59027 4.75,2.06251 1.97821,1.13233 2,1.13235 2,0.001 z M 925,380 c -2.4195,-1.89256 -4,-2.49787 -4,-1.53194 0,0.48286 5.11022,3.43799 6,3.46967 0.275,0.01 -0.625,-0.86219 -2,-1.93773 z m 8.91609,-3.30553 c -1.42115,-0.65696 -3.36579,-1.98197 -4.32143,-2.94447 -0.95563,-0.9625 -2.49287,-1.6978 -3.41609,-1.634 -1.49477,0.1033 -1.48695,0.16608 0.0714,0.57333 1.69574,0.44314 2.51422,2.32382 1,2.29777 -0.4125,-0.007 -3.60259,-0.9071 -7.08909,-2 -7.65826,-2.40061 -9.89121,-2.57198 -8.2843,-0.63578 1.59507,1.92194 13.91318,5.06023 21.12339,5.38161 3.45936,0.15419 3.47,0.14214 0.91609,-1.03846 z m -11.27884,-6.47239 c -0.80661,-1.30513 -13.67502,-7.51765 -14.29259,-6.90007 -0.28377,0.28377 0.53509,1.08712 1.81969,1.78523 13.01355,7.07203 13.90962,7.43949 12.4729,5.11484 z m -21.52891,-7.28035 c -1.31542,-1.09546 -2.61704,-1.76636 -2.8925,-1.4909 -0.85757,0.85757 1.94357,3.55092 3.6566,3.5159 1.25888,-0.0257 1.0858,-0.48444 -0.7641,-2.025 z M 904,361.16052 c 0,-0.80555 -4.3415,-3.16757 -5.79705,-3.15393 -0.61521,0.006 4.90009,3.96977 5.54705,3.98682 0.1375,0.004 0.25,-0.37118 0.25,-0.83289 z m -11.01494,-8.26995 C 886.61066,347.83058 873.69215,340 871.71881,340 c -2.05363,0 10.12112,10.05495 13.28119,10.96875 1.925,0.55665 4.83171,1.89719 6.45935,2.97899 3.69081,2.45306 4.89587,1.61807 1.52571,-1.05717 z M 886,343 c 0,-0.55 -0.49724,-1 -1.10498,-1 -0.60773,0 -3.1366,-1.37113 -5.6197,-3.04696 -4.55655,-3.07517 -5.98518,-3.24528 -4.96678,-0.59139 0.40981,1.06795 8.34001,4.93983 11.44146,5.58624 C 885.8875,343.97655 886,343.55 886,343 Z M 538.12756,231.25 c 1.24387,-1.58606 1.2085,-1.62143 -0.37756,-0.37756 -0.9625,0.75485 -1.75,1.54235 -1.75,1.75 0,0.82304 0.82119,0.29331 2.12756,-1.37244 z m 244.34061,-46.5 c 0.86986,-1.2375 2.58288,-2.25 3.8067,-2.25 1.62125,0 2.17401,-0.54279 2.03678,-2 -0.79171,-8.40699 -2.39438,-13.82895 -4.90903,-16.60761 -1.48433,-1.64016 -3.63152,-1.70643 -9.57433,-0.2955 -1.83056,0.43461 -3.72925,0.8156 -4.2193,0.84665 -0.49006,0.031 -1.31748,0.73254 -1.83871,1.55887 -0.67778,1.07449 0.21891,3.98088 3.14827,10.20437 5.1073,10.85057 8.27874,13.19648 11.54962,8.54322 z M 759,168 c 0,-0.55 -0.675,-1 -1.5,-1 -0.825,0 -1.5,0.45 -1.5,1 0,0.55 0.675,1 1.5,1 0.825,0 1.5,-0.45 1.5,-1 z m -1.5,-4.22167 c 0.67253,-0.6799 -0.0951,-0.86133 -2.34406,-0.55404 -2.85305,0.38984 -3.5108,0.0765 -4.47965,-2.13368 -0.62457,-1.42483 -1.37046,-2.81561 -1.65753,-3.09061 -0.28707,-0.275 -1.13623,-1.85 -1.88703,-3.5 -0.75079,-1.65 -1.76257,-3.78139 -2.2484,-4.73643 -0.48583,-0.95504 -0.88333,-2.41754 -0.88333,-3.25 0,-0.83246 -0.7875,-1.51525 -1.75,-1.51731 -0.9625,-0.002 -3.26771,-0.92901 -5.12268,-2.05991 -1.85498,-1.13089 -3.88713,-1.85876 -4.5159,-1.61748 -0.62876,0.24128 -4.06105,-0.22528 -7.62731,-1.03681 C 718.60025,138.82938 709,137.77539 709,138.5272 c 0,0.21152 3.2625,2.28538 7.25,4.60859 3.9875,2.3232 9.275,5.61238 11.75,7.30927 2.475,1.6969 6.22419,3.97844 8.33154,5.0701 2.10735,1.09166 6.10739,3.91936 8.88898,6.28377 4.35584,3.70256 5.48902,4.20816 8.16846,3.64465 1.71106,-0.35986 3.56102,-1.10922 4.11102,-1.66525 z M 661.5,155 c 0,-1.73323 -3.35437,-2.43025 -5.37812,-1.11753 -0.75796,0.49166 -1.05296,1.42002 -0.65556,2.06304 C 656.49711,157.61335 661.5,156.82937 661.5,155 Z m 416.1317,575.60091 c -2.6776,-0.74349 -5.7481,-1.12173 -6.8234,-0.84053 -1.7716,0.46329 -4.0152,-0.008 -13.3083,-2.79587 -1.65,-0.49498 -6.15,-1.11501 -10,-1.37785 -28.9949,-1.97947 -29.0671,-1.99345 -26.468,-5.12523 0.9648,-1.16252 3.3678,-1.35628 12.0883,-0.97469 5.9863,0.26195 11.8956,0.69379 13.1319,0.95965 3.3007,0.70981 19.7682,1.78145 31.2478,2.03347 12.7743,0.28045 14.5,0.81941 14.5,4.52851 0,1.58048 -0.3804,3.10871 -0.8454,3.39607 -2.139,1.32196 -9.1052,1.42317 -13.5229,0.19647 z m 24.2176,-9.80565 c -1.8421,-0.38761 -5.9368,-0.81987 -9.0993,-0.96058 -10.7476,-0.47819 -5.227,-5.20082 7.3445,-6.28302 15.37,-1.32308 25.1116,-1.51175 26.9606,-0.52215 2.0683,1.10691 2.536,4.48931 0.9638,6.97049 -0.7502,1.18394 -3.2545,1.5 -11.8854,1.5 -6.0142,0 -12.4421,-0.31713 -14.2842,-0.70474 z M 153.65799,319.32466 c -1.01596,-1.01597 -0.78018,-4.93114 0.48345,-8.02761 2.14597,-5.25858 6.08799,-13.79326 9.40176,-20.35529 1.82152,-3.60704 3.00697,-7.038 2.63433,-7.62437 -0.37264,-0.58637 -2.12074,-1.37918 -3.88467,-1.7618 -1.76393,-0.38262 -5.0326,-1.57764 -7.26371,-2.6556 -2.23112,-1.07795 -5.06291,-2.39808 -6.29286,-2.9336 -8.47855,-3.69156 -24.29025,-14.3378 -25.56962,-17.21639 -0.78888,-1.77497 -3.19483,-0.43554 -7.18499,4 -2.35018,2.6125 -6.79499,7.55394 -9.87736,10.98098 -5.55322,6.17416 -8.627673,7.67472 -9.747183,4.75732 -0.610854,-1.59186 3.728583,-7.08484 14.535993,-18.40008 6.84312,-7.16467 6.85507,-6.03471 -0.14313,-13.52466 -1.5125,-1.61878 -2.75,-3.24593 -2.75,-3.61589 0,-0.36996 -1.4137,-2.42204 -3.14156,-4.56017 -1.72785,-2.13812 -5.368188,-8.51177 -8.089631,-14.16366 l -4.948078,-10.27616 -3.278399,2.02616 C 86.739212,217.08823 84.677481,218 83.960707,218 c -0.716774,0 -2.013659,0.61732 -2.881966,1.37181 -1.715712,1.49083 -9.042581,5.61112 -18.709105,10.52111 -3.371699,1.71262 -6.6893,3.78732 -7.372444,4.61046 -2.451877,2.95433 -6.467896,1.19423 -5.250616,-2.30119 0.248579,-0.71379 3.89479,-2.88654 8.102692,-4.82834 4.207903,-1.9418 10.673715,-5.52029 14.368473,-7.9522 C 75.912499,216.98974 79.225048,215 79.578961,215 c 0.353913,0 2.794811,-1.8012 5.424218,-4.00266 l 4.78074,-4.00266 -0.21421,-11.23509 c -0.117815,-6.1793 0.141358,-13.0406 0.57594,-15.24734 0.434581,-2.20674 1.075504,-6.82475 1.424272,-10.26225 l 0.634124,-6.25 -2.852022,-0.0927 c -6.876098,-0.22358 -12.494447,0.35589 -21.690176,2.23712 -5.410985,1.10695 -10.084441,1.76636 -10.385459,1.46534 -0.301018,-0.30102 0.228417,-1.73121 1.176522,-3.1782 1.288517,-1.96652 2.337231,-2.51363 4.152902,-2.16654 1.335992,0.25539 4.912055,-0.11284 7.946807,-0.81829 3.034753,-0.70546 8.989403,-1.59081 13.232557,-1.96747 6.865344,-0.60941 13.219231,-2.80815 11.907016,-4.12036 -0.674332,-0.67433 4.500058,-15.15952 6.858078,-19.1985 4.1071,-7.03493 10.85317,-16.8135 14.08275,-20.41324 1.85184,-2.06409 3.36796,-4.08909 3.36916,-4.5 0.001,-0.41092 2.0163,-2.09712 4.47801,-3.74712 2.46171,-1.65 4.48573,-3.2975 4.49783,-3.66111 0.0199,-0.59914 -2.34649,-2.68706 -7.75109,-6.83889 -5.93154,-4.556633 -9.3292,-8.23046 -9.0332,-9.767452 0.60285,-3.130349 3.68762,-2.421872 8.52679,1.958341 2.62871,2.379401 6.72955,5.836242 9.11298,7.68187 l 4.33349,3.355691 3.91651,-1.766102 C 140.23757,97.490995 142,96.332806 142,95.888595 c 0,-1.353212 5.37981,-5.888348 6.98978,-5.892333 0.83062,-0.0021 2.9836,-0.902056 4.78439,-2 C 155.57496,86.898318 157.86772,86 158.86918,86 c 1.00147,0 2.62573,-0.889388 3.60948,-1.976419 0.98375,-1.08703 2.09083,-1.789649 2.46019,-1.561376 0.36935,0.228273 2.44671,-0.02648 4.61635,-0.566129 2.16964,-0.539644 7.52373,-1.529807 11.89798,-2.200362 l 7.95317,-1.219191 0.11583,-19.488261 C 189.58588,48.269718 189.24558,37.925 188.76596,36 c -1.39189,-5.586406 -1.35786,-6.404209 0.2807,-6.745849 3.09617,-0.645554 5.56352,6.437666 5.8332,16.745849 0.13669,5.225 0.67518,11.143645 1.19664,13.152544 0.52146,2.008899 0.60507,4.708899 0.1858,6 C 195.84304,66.443645 195.5,69.525 195.5,72 v 4.5 l 5.5,-0.208241 c 12.25385,-0.463957 20.08889,-1.268962 21.92743,-2.252918 C 223.99503,73.467478 226.193,73 227.81181,73 c 1.61882,0 3.53353,-0.711186 4.25493,-1.580413 0.77107,-0.929085 2.27381,-1.39648 3.64631,-1.134109 2.82764,0.540537 3.54881,-0.467442 3.68377,-5.148781 0.0789,-2.73645 0.67677,-3.864957 2.53929,-4.792933 2.38467,-1.188136 8.9936,-13.163009 9.02012,-16.343764 0.007,-0.825 1.11363,-3.75 2.45945,-6.5 1.34582,-2.75 2.68874,-5.7875 2.98425,-6.75 0.66614,-2.169641 4.17317,-2.304854 4.98389,-0.192154 0.3288,0.856816 -0.29806,3.313889 -1.39301,5.460162 C 258.89587,38.164282 258,40.777565 258,41.825303 c 0,1.047739 -0.9,3.049144 -2,4.447568 -1.1,1.398423 -2,2.847567 -2,3.220319 0,0.372752 -1.56334,3.851105 -3.4741,7.729673 -1.91075,3.878569 -3.28631,7.355777 -3.05681,7.727131 0.22951,0.371353 -1.35714,2.616393 -3.5259,4.988978 -4.18609,4.579518 -4.70324,5.49798 -2.69319,4.783173 0.6875,-0.244488 3.05,0.473591 5.25,1.59573 2.2,1.122139 4.675,2.118531 5.5,2.214204 3.96746,0.460093 11.02722,2.92147 15.92758,5.553127 C 270.91275,85.688343 273.84579,87 274.44545,87 c 0.59965,0 2.74587,1.125 4.76936,2.5 4.62147,3.140368 6.81992,3.131119 14.84558,-0.06245 3.54178,-1.40935 14.08961,-5.050043 23.43961,-8.090427 9.35,-3.040385 18.575,-6.146197 20.5,-6.901806 5.40767,-2.122641 7.38243,-2.164878 7.79259,-0.16667 0.28068,1.367393 -1.38259,2.58612 -7.19359,5.270969 -4.15728,1.920779 -8.90767,3.762122 -10.55642,4.091872 -1.64875,0.329751 -3.50304,1.208407 -4.12064,1.952569 -0.6176,0.744163 -2.76519,1.650073 -4.77242,2.013134 -2.00724,0.363061 -4.90183,1.294184 -6.43243,2.069163 -1.53061,0.774979 -5.61902,2.285034 -9.08536,3.355678 -3.46634,1.070643 -7.12127,2.851428 -8.12207,3.957299 C 294.50886,98.095197 293.04987,99 292.26747,99 c -0.83153,0 0.4443,2.1341 3.07079,5.13658 4.24812,4.85624 8.65663,14.25026 8.66593,18.46609 0.002,1.04353 1.1273,4.1111 2.5,6.81681 1.37269,2.70571 2.49581,5.94165 2.49581,7.19098 0,1.24933 0.5625,2.63556 1.25,3.08052 1.19728,0.7749 13.52595,3.91308 18.75,4.77269 1.375,0.22625 4.075,0.73355 6,1.12733 1.925,0.39378 4.4,0.75939 5.5,0.81248 1.1,0.0531 2,0.77152 2,1.59652 0,0.825 -0.48433,1.41356 -1.07628,1.30791 -0.59195,-0.10565 -4.9816,-0.43818 -9.75477,-0.73895 -4.77316,-0.30077 -10.41018,-0.82376 -12.5267,-1.1622 -3.09825,-0.49543 -3.97874,-0.27524 -4.51792,1.12984 -0.37141,0.96788 0.009,2.7803 0.85298,4.06912 0.83748,1.27815 1.52924,3.12725 1.53724,4.1091 0.008,0.98185 0.71148,3.78674 1.56327,6.2331 2.2681,6.51399 3.59132,29.7931 1.98175,34.8644 -1.01592,3.20089 0.79148,4.94316 7.00043,6.74815 2.91409,0.84715 6.34272,2.35115 7.61918,3.34222 2.20471,1.7118 7.2647,4.20681 11.07082,5.45886 0.9625,0.31663 1.75,1.2648 1.75,2.10707 0,0.84226 -0.7875,1.53115 -1.75,1.53088 -2.2431,-6.5e-4 -13.24903,-4.13271 -21.93254,-8.23434 -3.98747,-1.88347 -5.44376,-0.35388 -5.21106,5.47335 0.25985,6.5073 -1.34656,11.26065 -6.83867,20.23563 -2.34725,3.83577 -4.26773,7.53736 -4.26773,8.22574 0,0.68839 -1.575,2.68484 -3.5,4.43655 -1.925,1.75171 -3.5,4.01262 -3.5,5.02425 0,1.01163 -0.45,1.83932 -1,1.83932 -0.55,0 -0.9884,0.5625 -0.97421,1.25 0.0265,1.28616 8.85209,7.75 10.58165,7.75 1.54464,0 10.11292,9.27587 10.85368,11.75 1.00672,3.36245 -0.92701,2.78351 -5.84529,-1.75 -2.38672,-2.2 -4.65669,-4 -5.04438,-4 -0.38769,0 -2.17984,-1.125 -3.98256,-2.5 -1.80272,-1.375 -3.9676,-2.5 -4.81084,-2.5 -0.84324,0 -2.09336,-0.675 -2.77805,-1.5 -0.68469,-0.825 -1.81024,-1.5 -2.50123,-1.5 -0.69099,0 -4.79839,3.53678 -9.12756,7.85951 -4.32916,4.32273 -9.67121,8.8447 -11.87121,10.04883 -2.2,1.20412 -5.125,2.83544 -6.5,3.62515 -1.375,0.78971 -5.8728,2.98766 -9.9951,4.88434 -6.98708,3.21477 -7.61749,3.33776 -9.30069,1.81448 -1.67086,-1.5121 -2.00701,-1.51182 -4.5049,0.004 -2.68762,1.6307 -2.69988,1.69177 -2.83076,14.10454 -0.15625,14.81785 -0.93091,16.95418 -4.75951,13.12557 -1.08383,-1.08383 -1.28412,-2.1906 -0.68269,-3.77247 1.01463,-2.66868 0.71411,-19.8484 -0.37811,-21.61566 -0.52483,-0.84919 -2.21688,-1.04199 -5.40609,-0.61602 -2.55318,0.34102 -8.24215,0.7959 -12.64215,1.01084 -4.4,0.21494 -8.75234,0.68113 -9.67186,1.03597 -0.91952,0.35484 -2.57582,0.16138 -3.68066,-0.42991 -1.10484,-0.59129 -5.66791,-1.34994 -10.14016,-1.68589 -4.47225,-0.33595 -10.45961,-1.46182 -13.30523,-2.50193 C 177.85647,286.851 174.75431,286 173.80841,286 c -1.19247,0 -3.4088,3.40484 -7.22801,11.10404 -3.02951,6.10722 -5.9158,11.61972 -6.41398,12.25 -0.49818,0.63028 -1.43744,2.79746 -2.08725,4.81597 -1.24145,3.8563 -3.30899,6.26684 -4.42118,5.15465 z m 81.07118,-32.92883 c -0.3323,-0.33229 -1.1948,-0.36781 -1.91667,-0.0789 -0.79773,0.31922 -0.56078,0.55618 0.60417,0.60416 1.05416,0.0434 1.64479,-0.19293 1.3125,-0.52522 z m -28.87567,-3.40824 c 3.10557,0.10559 6.3215,0.22458 7.1465,0.26444 8.42625,0.40708 37.86565,-2.71768 39.32165,-4.17368 0.59309,-0.59309 1.81861,-1.07835 2.72336,-1.07835 0.90476,0 2.4595,-0.9 3.45499,-2 0.99549,-1.1 2.18149,-2 2.63557,-2 0.45408,0 3.34858,-1.61393 6.43223,-3.58652 4.06661,-2.60138 6.27021,-3.41997 8.02249,-2.98017 1.96993,0.49442 3.39696,-0.36641 7.73085,-4.66348 2.92324,-2.89841 6.53639,-6.08931 8.02923,-7.09089 1.49284,-1.00158 3.83261,-3.59264 5.19948,-5.75791 1.36688,-2.16527 3.82734,-5.13268 5.46769,-6.59424 1.64035,-1.46156 2.98246,-3.27383 2.98246,-4.02727 0,-0.75344 0.67488,-2.39988 1.49973,-3.65877 2.8105,-4.28936 6.55756,-17.12378 7.048,-24.14075 0.43672,-6.24838 0.98081,-13.65322 1.91043,-26 0.27243,-3.61833 -1.05788,-14.73141 -3.16247,-26.4186 -0.43763,-2.43024 -1.4299,-4.62914 -2.20504,-4.88645 -0.98745,-0.3278 -1.21302,0.0438 -0.75351,1.24125 0.4833,1.25945 0.20054,1.62141 -1.07477,1.37581 -1.34391,-0.25881 -1.99182,-2.11851 -2.89957,-8.32265 C 303.87927,138.34987 303.23857,134.92538 301.43582,127.5 299.86671,121.03694 296.21238,113 294.84278,113 294.37925,113 294,112.53079 294,111.9573 c 0,-0.57348 -1.76198,-3.4278 -3.9155,-6.34292 -2.71217,-3.67132 -5.55494,-6.114612 -9.25,-7.950126 C 277.90052,96.20681 272.575,93.447054 269,91.531464 258.77595,86.053114 250.91163,83.786181 233.70352,81.357058 220.77876,79.53258 221.90443,79.555621 211.5,80.902572 c -4.4,0.569621 -10.475,1.265286 -13.5,1.545923 -16.0034,1.484672 -29.25358,4.968199 -37.46136,9.84874 -2.77125,1.647853 -7.51364,4.344901 -10.53864,5.993438 -3.025,1.648538 -6.11049,3.477467 -6.85665,4.064297 -1.70483,1.34077 -4.77696,3.10758 -8.64335,4.97086 -4.81875,2.32224 -18.5,18.39182 -18.5,21.72954 0,0.57791 -1.125,2.70632 -2.5,4.72982 -1.375,2.02349 -2.5,4.19294 -2.5,4.82099 0,0.62805 -1.06978,3.11109 -2.37729,5.51787 -2.3033,4.23977 -2.98493,6.59991 -7.76205,26.87595 -3.159973,13.41222 -3.260796,32.76613 -0.21882,42.00515 6.96887,21.16571 20.07658,36.03644 46.32366,52.55429 11.36068,7.14952 25.45985,13.3662 32.62375,14.38462 3.80091,0.54034 8.71075,1.64719 10.91075,2.45965 2.2,0.81247 5.28407,1.23302 6.8535,0.93456 1.56942,-0.29845 5.39442,-0.45626 8.5,-0.35068 z M 211,217.30399 c -4.45126,-0.68939 -7.10908,-2.54621 -6.7943,-4.74668 0.32808,-2.29348 2.45571,-2.461 9.2943,-0.73178 5.57046,1.40855 14.39279,2.16115 26.47865,2.2588 8.77739,0.0709 10.69948,-0.20958 12.97748,-1.89378 1.92266,-1.42148 3.14751,-1.71205 4.35896,-1.03409 1.8733,1.04835 2.26452,4.36728 0.63362,5.37524 -1.15061,0.71111 -42.90853,1.39802 -46.94871,0.77229 z M 280.5,214 c -1.65,-1.09275 -3.97209,-1.98979 -5.1602,-1.99341 -1.18811,-0.004 -4.51719,-1.86968 -7.39796,-4.1468 -4.39159,-3.47135 -6.47439,-4.35481 -12.89247,-5.46858 -4.2101,-0.7306 -9.30407,-2.01751 -11.31993,-2.85979 -2.07204,-0.86575 -6.61321,-1.53028 -10.44732,-1.52881 -6.86116,0.003 -19.73521,-2.49728 -22.03212,-4.27827 -2.17321,-1.68507 -1.45711,-5.30895 1.29705,-6.56382 2.7394,-1.24816 6.74286,-1.53728 7.72244,-0.5577 0.33155,0.33156 0.21441,1.62442 -0.26031,2.87303 -1.38426,3.64089 0.57091,4.52415 10.01459,4.52415 6.17847,0 10.8713,0.67234 16.55,2.37111 4.35943,1.30411 9.80817,2.6885 12.10831,3.07642 2.4655,0.41581 6.77536,2.51661 10.5,5.11811 4.23615,2.95876 7.36936,4.41634 9.5089,4.42357 1.75504,0.006 3.49569,0.50382 3.86811,1.10641 0.64217,1.03903 1.6164,0.97512 11.19091,-0.73421 3.93946,-0.70331 4.05742,-1.96974 0.8161,-8.7615 -1.33864,-2.80495 -3.17182,-7.53588 -4.07372,-10.51319 -3.21309,-10.60689 -10.71835,-19.65774 -20.2793,-24.45551 -4.78684,-2.40209 -14.56663,-5.95205 -19.33663,-7.019 -3.12425,-0.69884 -7.6578,-4.15755 -6.70437,-5.11488 1.13289,-1.13752 24.95757,7.46755 31.30241,11.30591 9.46993,5.7289 15.43913,12.67936 19.66447,22.89705 2.00142,4.83984 4.45296,11.67097 5.44786,15.18028 l 1.8089,6.38058 -2.30864,1.86942 c -1.26976,1.02819 -3.4963,1.88538 -4.94786,1.90487 -1.45157,0.0195 -3.76422,0.67854 -5.13922,1.46456 -3.44042,1.96672 -5.97696,1.83322 -9.5,-0.5 z m -12.15623,-62.5981 c -1.41976,-2.16682 -1.49154,-2.93564 -0.43241,-4.63157 1.95618,-3.13235 -1.27447,-5.76557 -7.65663,-6.24073 -4.15125,-0.30907 -6.14677,0.16402 -10.73663,2.54539 -6.30362,3.27052 -8.75633,3.7094 -7.87353,1.40887 0.31999,-0.83388 3.77744,-3.11993 7.68324,-5.08011 6.06763,-3.04513 7.83447,-3.49694 12.13681,-3.10357 10.78934,0.98649 14.53538,4.07644 14.53538,11.98965 0,2.66136 -0.54695,3.63835 -2.54705,4.54965 -3.32319,1.51415 -3.14167,1.56522 -5.10918,-1.43758 z M 166,150.03154 c 0,-1.93919 6.41337,-7.21038 14.00542,-11.51116 7.53677,-4.26946 23.17321,-1.64115 24.62394,4.139 0.68647,2.73513 -1.91952,6.36095 -4.53435,6.30882 -2.76383,-0.0551 -5.50362,-2.88291 -5.55018,-5.72847 -0.0366,-2.23474 -0.55383,-2.79826 -2.80628,-3.05726 -1.5188,-0.17464 -4.17544,0.38786 -5.90364,1.25 -1.7282,0.86214 -3.81203,1.56753 -4.63073,1.56753 -0.81871,0 -3.85884,2.025 -6.75586,4.5 C 168.76559,152.35491 166,153.18362 166,150.03154 Z m 101.98113,125.4912 c 1.17641,-1.41748 1.01917,-1.47335 -1.47632,-0.52457 -3.9594,1.50536 -4.61515,2.01428 -3.96043,3.07363 0.68274,1.1047 3.50105,-0.21669 5.43675,-2.54906 z M 273.5,272 c 0.33992,-0.55 -0.057,-1 -0.88197,-1 -0.825,0 -1.77811,0.45 -2.11803,1 -0.33992,0.55 0.057,1 0.88197,1 0.825,0 1.77811,-0.45 2.11803,-1 z" id="path12" inkscape:connector-curvature="0"/>
</svg>
