<?xml version="1.0" encoding="utf-8"?>
<svg xmlns="http://www.w3.org/2000/svg" version="1.1" viewBox="0 0 521 674">
	<title>W is for pocket watch.</title>
	<path d="m 233,667.94784 c -1.925,-0.53826 -4.4,-1.23748 -5.5,-1.55383 -1.1,-0.31636 -3.8,-0.72615 -6,-0.91066 -6.13345,-0.5144 -13.52466,-2.38722 -15.85044,-4.01626 C 204.49754,660.66019 202.24482,660 200.64351,660 c -4.47289,0 -10.79054,-2.17445 -10.2687,-3.53435 0.30512,-0.79513 -0.81145,-1.19292 -3.34846,-1.19292 -2.37834,0 -5.81701,-1.12931 -9.16628,-3.01035 -2.94804,-1.6557 -6.71007,-3.32542 -8.36007,-3.7105 -1.65,-0.38508 -3.9,-1.51527 -5,-2.51154 -1.1,-0.99627 -5.57024,-3.68648 -9.93386,-5.97824 -4.36362,-2.29176 -8.95464,-5.26827 -10.20225,-6.61447 C 143.11627,632.10144 141.40577,631 140.56277,631 138.6962,631 129.07708,625.20975 127,622.83587 c -0.825,-0.94289 -5.10954,-4.10419 -9.5212,-7.02511 -5.58422,-3.69727 -11.29929,-8.90613 -18.810932,-17.14481 C 92.733511,592.15722 86.218049,585.41799 84.189064,583.68988 82.160079,581.96177 78.475,578.31796 76,575.59252 c -2.475,-2.72545 -5.735524,-6.25636 -7.24561,-7.84647 -1.510085,-1.59011 -5.734395,-7.24598 -9.387356,-12.56858 -3.65296,-5.32261 -7.448822,-10.7111 -8.435249,-11.97443 -0.986426,-1.26333 -2.084782,-3.62315 -2.440791,-5.24404 -0.356008,-1.6209 -1.174622,-3.28727 -1.819141,-3.70304 -1.270958,-0.81989 -4.147744,-6.38812 -5.172291,-10.01136 -0.350769,-1.24046 -1.666477,-3.49046 -2.923795,-5 -1.257318,-1.50953 -2.851157,-4.5446 -3.541865,-6.7446 -0.690708,-2.2 -2.353561,-5.9188 -3.695229,-8.26401 -1.341667,-2.3452 -2.173031,-4.69499 -1.847474,-5.22175 0.325557,-0.52676 -0.140569,-2.07567 -1.035834,-3.44202 -0.895266,-1.36635 -1.337411,-2.95406 -0.982544,-3.52824 C 27.827688,491.46979 27.712706,491 27.217305,491 c -1.457878,0 -3.397955,-7.90102 -2.709618,-11.035 0.459795,-2.09343 -0.199166,-4.62793 -2.404831,-9.24949 -2.660099,-5.57373 -2.912406,-6.82139 -2.027532,-10.02614 0.635563,-2.30182 0.66366,-4.31511 0.07571,-5.4248 -0.893981,-1.68728 -1.264598,-6.01344 -1.500449,-17.51457 -0.13634,-6.64853 1.212579,-26.38566 2.340789,-34.25 0.473415,-3.3 1.173574,-9.825 1.55591,-14.5 0.722716,-8.83698 5.010469,-28.11964 8.56098,-38.5 2.634363,-7.70189 7.94345,-20.67414 9.04837,-22.10885 0.46968,-0.60986 1.721644,-3.6308 2.782142,-6.71319 2.346388,-6.81989 9.044284,-18.51851 14.231772,-24.85737 C 59.276745,294.24692 61,291.67444 61,291.10397 c 0,-0.98869 5.262862,-7.49425 12.258366,-15.1529 1.782899,-1.9519 5.245203,-6.0019 7.694009,-9 5.406023,-6.61863 17.177643,-17.25319 26.229095,-23.69555 9.18147,-6.53488 18.74609,-14.17751 22.12272,-17.67717 1.55041,-1.60691 3.57873,-2.98739 4.50737,-3.06772 2.05158,-0.17748 7.61497,-3.02707 11.68844,-5.98686 1.65,-1.1989 7.275,-3.89206 12.5,-5.98481 5.225,-2.09274 10.85,-4.35412 12.5,-5.02528 1.65,-0.67116 5.25,-2.13592 8,-3.25503 14.17012,-5.76652 39.43341,-11.07157 60.89816,-12.78803 C 245.46938,188.98513 248,187.78096 248,185.37756 248,184.6199 248.7063,184 249.56955,184 c 3.06414,0 1.19571,-4.35751 -2.29593,-5.35451 -1.7745,-0.50669 -3.4703,-1.68983 -3.76845,-2.62919 -0.29814,-0.93936 -3.05184,-2.97776 -6.11934,-4.52977 -3.0675,-1.55202 -5.83887,-3.5339 -6.15861,-4.40419 -0.31974,-0.87029 -0.84955,-1.80734 -1.17738,-2.08234 -1.63648,-1.3728 -4.54225,-6.76728 -4.72569,-8.77312 -0.22597,-2.4709 -4.71186,-8.07937 -10.45092,-13.06625 -1.99473,-1.73328 -4.22269,-4.616 -4.95103,-6.40603 -0.72834,-1.79003 -2.71343,-5.5046 -4.41132,-8.2546 -8.2394,-13.34504 -8.56158,-14.66609 -10.60903,-43.5 -0.64908,-9.140864 2.10394,-22.953158 6.37812,-32 1.16932,-2.475 4.5686,-6.871013 7.55397,-9.768917 6.3856,-6.198525 24.6875,-18.606747 27.62475,-18.728882 C 239.37381,24.380986 243,23.010758 243,22.030437 c 0,-2.109587 7.42154,-3.030201 24.39922,-3.026631 22.23009,0.0047 34.03283,1.676055 39.96404,5.659288 2.27521,1.527964 8.94319,7.606606 14.81773,13.508093 9.01249,9.053815 11.24331,11.948346 14.28069,18.529395 1.97983,4.28968 4.03588,8.580812 4.569,9.535849 0.53313,0.955037 1.0039,5.230037 1.04617,9.5 0.0423,4.269963 0.62912,9.563569 1.30412,11.763569 0.97419,3.17516 0.9679,5.258339 -0.0305,10.102218 -0.69177,3.356222 -1.45468,7.181222 -1.69535,8.500002 -2.4078,13.19348 -7.08349,22.10148 -16.36653,31.18111 -4.0581,3.96917 -8.28682,7.44217 -9.39716,7.71777 -2.58431,0.64147 -4.47478,4.01351 -8.9695,15.9989 -1.70695,4.55167 -6.58998,10.67993 -9.01516,11.31413 -1.04872,0.27425 -1.90677,1.18544 -1.90677,2.02486 0,0.83943 -1.0125,1.83328 -2.25,2.20856 -1.2375,0.37527 -3.19936,1.54972 -4.35968,2.60988 -1.811,1.65465 -2.48735,1.75548 -4.77713,0.71219 -1.9653,-0.89545 -2.9616,-0.92121 -3.78496,-0.0978 -0.82336,0.82336 -0.42138,1.29224 1.52713,1.78128 2.91379,0.73132 3.13353,1.22475 1.53499,3.44695 -0.91077,1.26612 -0.99124,1.22714 -0.51607,-0.25 0.3628,-1.12781 0.0408,-1.75 -0.90566,-1.75 -2.22136,0 -1.78554,1.29617 1.60023,4.75921 2.26213,2.31376 4.29939,3.29697 7.75,3.74024 2.57463,0.33075 7.5031,1.47867 10.95215,2.55095 3.44905,1.07228 7.10645,1.9496 8.12755,1.9496 1.02111,0 2.36452,0.61205 2.98536,1.36011 0.62083,0.74807 2.14873,1.16515 3.39532,0.92684 4.92431,-0.94134 40.27393,9.9191 51.22077,15.73653 22.18824,11.79139 34.50074,19.81881 44.44435,28.97652 0.8958,0.825 4.87478,3.95072 8.84219,6.94604 6.66034,5.02845 7.67532,6.18332 7.32261,8.33179 -0.0702,0.4278 0.66397,1.06489 1.63157,1.41574 4.26528,1.54661 14.41161,10.79096 17.68362,16.11158 1.92619,3.13217 6.18363,8.3342 9.46099,11.56007 3.27736,3.22587 7.35937,8.49287 9.07112,11.70445 1.71175,3.21158 4.11995,6.64723 5.35155,7.63478 2.19293,1.75838 11.692,17.61896 11.692,19.52209 0,0.53068 0.6457,2.15931 1.4349,3.61917 6.7316,12.45219 15.75703,35.9854 15.78345,41.15429 0.007,1.375 0.56002,3.625 1.22887,5 0.66885,1.375 1.7682,6.325 2.44299,11 0.6748,4.675 1.84484,11.65 2.60011,15.5 2.81718,14.36074 3.96487,35.70229 2.375,44.16353 -0.49982,2.66006 -1.12897,6.86147 -1.39811,9.33647 -0.26914,2.475 -0.77583,6.3 -1.12597,8.5 -0.35014,2.2 -0.75745,5.03004 -0.90515,6.28897 -0.23523,2.00511 -1.95863,12.98746 -2.93621,18.71103 -0.66332,3.8836 -4.08716,12.18408 -12.08709,29.30297 -1.87703,4.01664 -3.41279,7.52575 -3.41279,7.79804 0,0.27228 -1.4798,2.83595 -3.28844,5.69703 -1.80864,2.86108 -4.75117,8.29635 -6.53894,12.07839 -1.78778,3.78203 -4.58298,8.81311 -6.21156,11.18017 -1.62858,2.36706 -2.96106,4.73007 -2.96106,5.25113 0,0.52106 -0.62077,1.46257 -1.37949,2.09225 -0.75871,0.62968 -1.63539,2.37228 -1.94816,3.87245 -0.31278,1.50016 -4.30451,7.02475 -8.87052,12.27686 -9.47747,10.9016 -34.90581,36.48885 -42.18704,42.45071 -2.68687,2.2 -5.83687,4.94407 -7,6.09794 -2.91574,2.89251 -11.93764,8.59419 -20.11479,12.71218 -1.65,0.83094 -6.825,2.94574 -11.5,4.69955 -4.675,1.75381 -8.95,3.5527 -9.5,3.99753 -0.92214,0.74581 -7.09281,3.09183 -17,6.46323 -2.2,0.74865 -6.925,2.09688 -10.5,2.99606 -3.575,0.89918 -8.525,2.24805 -11,2.99748 -9.27263,2.80775 -22.78275,5.38672 -31.18273,5.95252 -17.1173,1.15296 -60.30802,1.51257 -63.81727,0.53135 z m 16.28607,-13.21395 c 2.08233,-0.0229 4.02139,-0.42235 4.30901,-0.88774 C 253.88271,653.38077 253.22723,653 252.13847,653 c -2.81037,0 -3.85822,-5.25257 -1.7038,-8.54064 0.88629,-1.35265 1.26356,-2.51427 0.83838,-2.58138 -2.61252,-0.41237 -18.89536,0.37031 -19.46806,0.93579 -0.38226,0.37742 -0.83226,2.4458 -1,4.59639 l -0.30499,3.91015 6,2.24068 c 3.3,1.23238 6.675,2.00979 7.5,1.72759 0.825,-0.28221 3.20373,-0.53181 5.28607,-0.55469 z m 23.99389,-2.1965 c 1.99072,-0.94466 4.10116,-1.41988 4.68985,-1.05605 1.81065,1.11904 12.10034,0.73224 15.25231,-0.57335 2.78921,-1.15532 2.94012,-1.49193 2.34301,-5.22604 -0.88097,-5.50929 -1.31852,-5.9508 -5.17965,-5.22644 -2.67947,0.50267 -3.38548,0.3077 -3.38548,-0.93495 0,-1.83991 2.67154,-2.97945 9.25,-3.94554 3.86829,-0.56808 4.75,-0.41871 4.75,0.80469 0,0.82624 -0.45,1.78037 -1,2.12029 -1.40345,0.86738 -1.24652,4.85348 0.25,6.35 0.6875,0.6875 1.25,1.79 1.25,2.45 0,0.67241 1.70527,1.33983 3.87864,1.51803 C 309.37969,649.14611 315,647.42908 315,645.87868 315,645.39541 315.71075,645 316.57946,645 c 1.25241,0 1.43577,-0.65418 0.88554,-3.15936 -0.57304,-2.60904 -0.28465,-3.46807 1.6556,-4.93161 3.18278,-2.40078 1.82505,-3.37623 -2.64566,-1.90076 -2.69113,0.88815 -3.95404,0.91263 -4.77415,0.0925 -1.67164,-1.67164 0.97398,-3.72046 6.29921,-4.87823 2.475,-0.5381 5.21591,-1.27898 6.09092,-1.6464 1.31169,-0.5508 1.60276,0.11484 1.65835,3.79249 0.059,3.90507 -0.23247,4.53581 -2.34092,5.065 -2.40196,0.60285 -3.11211,2.9112 -1.61842,5.26069 0.54317,0.85437 1.89431,0.93933 4.74658,0.29846 5.16627,-1.16078 11.48751,-3.81085 11.34114,-4.75458 -0.063,-0.40602 -0.0469,-1.41322 0.0357,-2.23822 0.12028,-1.20097 0.42965,-1.13117 1.55189,0.35014 0.77091,1.01757 1.80657,1.59989 2.30146,1.29403 1.31474,-0.81255 0.26356,-6.95179 -1.41916,-8.2884 -1.6073,-1.27669 -5.34757,-0.66969 -5.34757,0.86785 0,0.5447 -0.69837,0.72237 -1.55194,0.39482 -0.85356,-0.32754 -1.29622,-0.18178 -0.98369,0.32392 0.31254,0.50569 0.15892,1.17243 -0.34138,1.48163 -1.00562,0.62151 -2.47952,-4.0381 -1.6843,-5.32479 0.27493,-0.44485 3.22318,-1.80179 6.55166,-3.01541 3.32849,-1.21363 5.85589,-2.52357 5.61645,-2.91098 -0.23943,-0.38741 0.17193,-3.04547 0.91415,-5.90678 1.57192,-6.05989 1.1174,-17.66923 -1.06013,-27.07808 -1.70229,-7.35541 -1.88787,-14.52148 -0.44585,-17.21593 1.60021,-2.99001 4.22416,-1.24532 10.14098,6.74284 12.45028,16.80881 15.14201,19.84738 19.06667,21.52345 3.40105,1.45245 3.84043,1.99362 3.22458,3.97164 -0.67886,2.18041 -0.62285,2.20967 1.1699,0.61131 1.03559,-0.92331 2.22512,-1.70169 2.64338,-1.72974 3.02641,-0.20295 14.12383,-9.03106 31.99477,-25.45217 8.75715,-8.04669 14.34455,-15.15062 12.71058,-16.16047 -0.58384,-0.36083 -0.95376,-1.40369 -0.82204,-2.31747 0.62793,-4.35602 -0.89721,-6.0018 -11.598,-12.51539 -3.80291,-2.31483 -10.93482,-8.10172 -15.02229,-12.18919 -2.61256,-2.61255 -3.69171,-3.03559 -6.81384,-2.6711 C 385.52947,531.157 385,530.93522 385,529.23185 c 0,-1.09283 0.7362,-2.59795 1.63601,-3.34473 0.8998,-0.74677 2.77136,-3.16437 4.15903,-5.37244 1.38766,-2.20807 3.35146,-4.6027 4.36399,-5.32138 1.01253,-0.71869 1.84097,-1.94705 1.84097,-2.72968 0,-1.62043 -5.91218,-4.87683 -10.75,-5.92104 -1.7875,-0.38582 -3.25,-1.33163 -3.25,-2.10181 0,-2.06164 -10.07074,-7.60604 -12.5,-6.88181 -6.11751,1.82379 -9.50063,2.06013 -12.34854,0.86268 -3.73569,-1.57074 -8.32021,-8.54416 -7.93428,-12.06865 0.19106,-1.74479 -0.3661,-2.94141 -1.71718,-3.68808 -1.1,-0.6079 -3.8,-2.2316 -6,-3.60821 -2.2,-1.37662 -6.025,-3.58072 -8.5,-4.898 -2.475,-1.31728 -5.4,-3.17948 -6.5,-4.13821 -1.1,-0.95873 -4.925,-3.42906 -8.5,-5.48962 -3.575,-2.06057 -10.71128,-6.73547 -15.85839,-10.38868 -9.86378,-7.0009 -13.96521,-9.38722 -23.48282,-13.66295 -5.28346,-2.37356 -6.00309,-2.47762 -7.5366,-1.08982 -5.57003,5.04081 -18.68403,5.54822 -24.83554,0.96095 -4.92063,-3.66939 -7.51854,-10.44869 -7.08828,-18.49698 0.35474,-6.63578 0.36418,-6.6545 5.79307,-11.5 9.75401,-8.70582 9.16489,-7.61827 9.03283,-16.67515 -0.0656,-4.49803 0.11681,-13.80324 0.40531,-20.67824 0.2885,-6.875 0.77757,-20.06279 1.08682,-29.30621 0.30925,-9.24341 0.76386,-22.2149 1.01025,-28.82552 0.48573,-13.03237 -0.49657,-19.61291 -3.57251,-23.93267 -1.29587,-1.81989 -2.05369,-4.70974 -2.21254,-8.43722 -0.22267,-5.22501 -0.007,-5.86044 2.7584,-8.10867 1.65,-1.34166 3.60691,-2.93743 4.34868,-3.54616 1.7325,-1.42174 0.75655,-6.68277 -1.69434,-9.13365 -1.07518,-1.07518 -3.58895,-1.90261 -6.25786,-2.05983 -2.45345,-0.14453 -4.97774,-0.58226 -5.60955,-0.97274 -0.6318,-0.39047 -1.43139,-0.25261 -1.77685,0.30636 -0.9595,1.5525 -5.49875,1.2094 -6.14096,-0.46416 -0.32066,-0.83562 0.89084,-3.32184 2.78138,-5.70792 1.84223,-2.32509 3.99752,-5.37138 4.78955,-6.76952 1.62458,-2.86783 2.36674,-19.11731 1.0263,-22.47078 -0.45536,-1.13922 -1.07555,-3.19631 -1.3782,-4.57131 -0.30265,-1.375 -2.10792,-4.13004 -4.01172,-6.12232 -2.79889,-2.92895 -3.99886,-3.52536 -6.26895,-3.1158 -1.54411,0.27858 -3.35155,0.93593 -4.01652,1.46077 -0.66497,0.52484 -2.47204,0.67685 -4.01571,0.33781 -1.54367,-0.33905 -6.3996,0.11864 -10.79096,1.01708 -4.39136,0.89844 -9.33429,1.84171 -10.98429,2.09614 -1.65,0.25443 -4.125,0.94215 -5.5,1.52826 -5.58501,2.38068 -10.10692,4.02126 -12.2387,4.44029 -2.37934,0.4677 -8.81097,3.97477 -8.27403,4.51171 0.23892,0.23891 -0.37024,1.76451 -1.35368,3.39022 -1.78228,2.94626 -1.77406,2.9879 2.53917,12.85048 2.37998,5.44205 4.32724,10.27834 4.32724,10.74733 0,0.46898 1.38273,3.77925 3.07274,7.35616 2.72096,5.75892 3.3377,6.43696 5.38719,5.92257 2.83383,-0.71124 6.15149,3.13766 4.46069,5.17495 -1.33349,1.60675 -9.98789,5.67042 -10.65518,5.00313 -0.65877,-0.65878 -16.62666,7.81222 -20.96817,11.12365 -1.8135,1.38322 -3.29727,3.13654 -3.29727,3.89626 0,2.20784 -1.94473,1.59671 -3.1188,-0.98008 -0.83293,-1.82808 -0.70936,-3.07023 0.54712,-5.5 0.89267,-1.72623 1.36412,-3.13861 1.04767,-3.13861 -0.31645,0 -0.17185,-0.72105 0.32133,-1.60232 0.8113,-1.4497 0.5851,-3.49757 -1.36937,-12.39768 -0.60684,-2.76339 -5.30808,-8.19212 -6.47159,-7.47303 -0.40568,0.25072 -1.43841,-0.61372 -2.29496,-1.92099 -1.78561,-2.72519 -10.38809,-7.85721 -11.13763,-6.64444 -0.92654,1.49918 -6.67773,1.80082 -7.22339,0.37886 C 131.72292,249.83555 128,249.48252 128,250.93261 c 0,0.51294 -0.81375,1.19089 -1.80834,1.50656 -1.9011,0.60339 -7.90234,5.85029 -18.59718,16.25958 C 99.880089,276.20717 85,292.4241 85,293.32314 c 0,0.3593 0.960542,0.54609 2.134539,0.41507 1.911622,-0.21333 2.17325,0.33617 2.50523,5.26179 0.203881,3.025 0.793059,5.64157 1.309284,5.81461 0.516226,0.17303 0.718393,0.88844 0.449261,1.58978 -0.269133,0.70135 0.211386,1.85673 1.06782,2.5675 0.856434,0.71078 2.406368,3.21212 3.444299,5.55853 1.528519,3.45547 2.524,4.39788 5.238357,4.95907 1.84317,0.38107 5.27944,1.32683 7.63616,2.10168 6.25076,2.05516 9.24477,1.70911 13.57632,-1.56913 3.64483,-2.75851 3.99518,-2.83459 6.25,-1.35717 2.60166,1.70467 3.14154,3.33513 1.10434,3.33513 -0.70642,0 -2.09497,1.3722 -3.08568,3.04933 -0.99071,1.67714 -3.50527,4.89473 -5.58791,7.15022 -3.33225,3.6088 -8.74803,13.00427 -10.40472,18.05045 -0.34619,1.05448 -1.58061,1.75 -3.10592,1.75 C 105.23795,352 105,351.61782 105,347.93426 c 0,-2.23616 -0.54086,-5.04866 -1.20191,-6.25 -0.66105,-1.20134 -1.30202,-2.78623 -1.42439,-3.52197 -0.12236,-0.73574 -0.9315,-2.12117 -1.79809,-3.07874 C 99.709025,334.12598 99,332.64386 99,331.78995 c 0,-2.91146 -6.136199,-6.43502 -12.486536,-7.17007 -3.292594,-0.38112 -6.420094,-1.12651 -6.95,-1.65642 C 77.790724,321.19072 74.308877,321.97309 70.5,325 c -2.076255,1.65 -4.786859,3 -6.023563,3 -2.349311,0 -3.920838,2.50971 -6.574885,10.5 -0.730749,2.2 -2.066919,5.125 -2.969266,6.5 -1.47365,2.24555 -3.089246,6.8333 -3.345469,9.5 -0.05285,0.55 -0.641133,1.95421 -1.307307,3.12046 -2.206317,3.86255 -5.556938,18.99451 -4.84911,21.89938 0.270695,1.11092 -0.145655,3.81092 -0.925221,6 -1.950076,5.47598 -1.951477,7.09544 -0.0047,5.4798 1.266005,-1.05069 1.594515,-0.77488 2.102553,1.76531 0.737839,3.6892 3.763351,6.00681 13.313353,10.19833 5.789596,2.54107 7.80653,3.01339 9.470009,2.21763 1.162506,-0.5561 4.588647,-1.79524 7.613647,-2.75364 3.861241,-1.22335 6.740216,-3.03638 9.662409,-6.08491 5.489313,-5.72663 9.806966,-5.6448 8.317786,0.15764 -0.409812,1.59679 -1.953119,10.63657 -2.56086,15 -0.711323,5.10713 -0.588952,23.12383 0.182168,26.82044 0.561463,2.69155 0.435492,2.80579 -2.756577,2.5 -2.371414,-0.22718 -3.348161,-0.8226 -3.35604,-2.04584 -0.02241,-3.47875 -2.959025,-4.92757 -11.110351,-5.48141 -4.333194,-0.29442 -9.562499,-0.0681 -11.620677,0.50297 -2.291579,0.63582 -3.965697,0.67657 -4.318866,0.10513 C 58.540505,432.4475 45,432.99975 45,434.49017 c 0,0.68041 -1.177907,2.41501 -2.617571,3.85467 -2.418209,2.41821 -2.567084,3.05694 -1.954683,8.38637 1.499641,13.05063 5.646727,33.35245 7.718706,37.78648 0.518566,1.10972 1.013603,2.957 1.100083,4.10505 0.139088,1.84644 0.739919,2.06653 5.205351,1.90681 2.776463,-0.0993 5.948114,-0.6647 7.048114,-1.25644 1.1,-0.59174 2.225,-1.09121 2.5,-1.10995 0.763923,-0.052 2.765858,-0.66983 12,-3.70316 9.390251,-3.0846 17.60919,-7.85754 18.339482,-10.65018 C 94.610591,472.7731 95.728886,472 96.957407,472 99.31655,472 102,477.00699 102,481.40886 c 0,1.36021 0.38466,2.71084 0.85481,3.00141 0.47015,0.29056 1.88438,3.35462 3.14275,6.80901 1.25837,3.4544 3.31367,7.63072 4.56734,9.28072 3.1271,4.11572 3.9448,7.8321 2.06629,9.39112 -1.2363,1.02604 -1.77398,0.82058 -3.08373,-1.17835 l -1.58635,-2.42106 -4.27581,2.10414 c -2.35169,1.15728 -7.180443,3.42245 -10.730554,5.0337 -3.55011,1.61125 -7.21389,3.56784 -8.141733,4.34796 -0.927842,0.78013 -2.114354,1.15428 -2.636693,0.83146 -0.522338,-0.32282 -1.459111,0.0268 -2.081717,0.77704 -0.622606,0.75019 -2.263505,1.36399 -3.646443,1.36399 -2.647841,0 -6.739962,2.96884 -5.920255,4.29515 0.264408,0.42782 1.822512,0.2714 3.462452,-0.34761 2.263562,-0.8544 3.272508,-0.83467 4.189084,0.0819 0.943165,0.94317 0.603499,1.83768 -1.552194,4.08774 -2.662015,2.77855 -2.707809,3.00424 -1.295441,6.38452 0.80527,1.92728 1.968248,3.81571 2.584397,4.19651 1.264829,0.78171 5.994618,-1.92303 14.083797,-8.05385 10.32747,-7.82723 11.50022,-10.74534 3.453507,-8.59317 C 89.533886,524.38445 87,524.31461 87,522.56821 c 0,-0.97901 2.45083,-1.94725 7.75,-3.06179 4.2625,-0.8965 8.875,-2.14605 10.25,-2.77678 1.375,-0.63072 2.95,-1.20891 3.5,-1.28486 0.55,-0.076 1.76121,-0.47015 2.69159,-0.87601 2.70958,-1.182 5.2835,-0.22227 5.61515,2.09371 0.21665,1.51289 -1.37725,3.78619 -5.42666,7.73978 -3.15337,3.07876 -6.13849,5.59774 -6.6336,5.59774 -0.49511,0 -3.45311,1.83055 -6.573337,4.06789 -3.92149,2.81188 -5.673143,4.74165 -5.673143,6.25 0,1.5622 -0.607208,2.18211 -2.137403,2.18211 C 87.67763,542.5 84,545.73451 84,548.09597 c 0,0.9823 -0.461128,2.07099 -1.024729,2.41931 -0.580715,0.35891 1.585781,3.6589 5,7.61598 C 91.288872,561.97173 94,565.4592 94,565.88121 c 0,0.422 1.843561,2.53387 4.096802,4.69303 2.253238,2.15917 4.840738,4.74456 5.749998,5.74531 0.90926,1.00076 4.47568,4.31007 7.92538,7.35404 5.22517,4.61061 6.52201,5.32715 7.76876,4.29243 1.21358,-1.00718 1.86768,-0.9062 3.45906,0.53398 1.58065,1.43047 2.25045,1.53704 3.44252,0.54771 0.81401,-0.67558 1.74422,-2.0607 2.06711,-3.07806 0.3229,-1.01735 4.84032,-7.56968 10.03873,-14.56074 C 143.96689,564.12182 148,557.73049 148,556.43074 c 0,-6.62453 3.58516,-7.16979 8.81771,-1.34108 2.01925,2.24931 6.28736,5.70435 9.4847,7.67786 4.62569,2.85514 5.49095,3.76862 4.23529,4.47132 -0.86793,0.48572 -2.41581,0.61723 -3.43974,0.29225 -2.03893,-0.64713 -5.25342,2.82919 -15.32317,16.57131 -7.09176,9.67807 -9.35535,13.8976 -7.45546,13.8976 1.90459,0 5.01888,-3.64375 4.21961,-4.93699 C 148.17761,592.47836 148.3282,592 148.8736,592 c 1.84519,0 2.16698,3.65862 0.64267,7.30682 -0.83395,1.99592 -1.51627,4.31236 -1.51627,5.14764 0,1.59662 6.61474,4.90168 8.04325,4.01881 C 156.85027,607.9745 164,586.82994 164,584.94203 c 0,-1.79625 -1.66865,-0.92968 -3,1.55797 -1.58562,2.96275 -4,3.30695 -4,0.57025 C 157,584.95703 172.66048,569 174.73443,569 c 2.16011,0 2.19153,-0.13436 -6.66415,28.5 -2.21126,7.15 -4.03168,13.80162 -4.04538,14.78138 -0.0137,0.97977 -0.6999,2.04041 -1.5249,2.35699 -0.825,0.31659 -1.5,0.96869 -1.5,1.44912 0,0.78756 12.01256,6.91251 13.55717,6.91251 0.35231,0 2.05858,0.63619 3.7917,1.41376 1.73312,0.77756 4.95113,1.96121 7.15113,2.63032 2.2,0.66911 4.45,1.53239 5,1.91841 0.55,0.38601 3.7,1.28735 7,2.00299 11.79124,2.55703 16.5,4.15672 16.5,5.60548 0,0.85764 -0.99962,1.42904 -2.5,1.42904 -1.72902,0 -2.5,0.54817 -2.5,1.77749 0,0.97763 -0.74678,2.84368 -1.65951,4.14678 -1.55966,2.22672 -1.54816,2.45071 0.19113,3.72251 1.01785,0.74427 2.63807,1.35322 3.60049,1.35322 0.96242,0 2.02797,0.45 2.36789,1 0.89195,1.4432 8.23512,1.23586 8.85385,-0.25 0.37556,-0.90191 0.92898,-0.74601 1.98733,0.55984 1.74494,2.15301 2.2012,1.56146 3.13136,-4.05984 0.53121,-3.21024 0.37594,-4.27822 -0.63464,-4.36535 -4.71263,-0.40631 -7.8379,-2.05161 -7.8379,-4.12628 0,-1.67631 0.47284,-1.9138 2.85979,-1.43641 1.57288,0.31457 5.15226,0.87606 7.95417,1.24775 4.76147,0.63163 5.29343,0.47675 8.14021,-2.37004 2.64275,-2.64274 3.04583,-3.7608 3.04583,-8.44843 0,-4.362 -0.43338,-5.77578 -2.25,-7.34001 -4.1124,-3.54105 -8.52313,-5.45727 -15.98568,-6.94488 -4.77156,-0.95118 -19.13462,-10.043 -24.14293,-15.28249 C 184.93603,582.86684 175,565.90082 175,556.84976 c 0,-1.49576 -0.47083,-3.95794 -1.04629,-5.47151 -2.58069,-6.78773 -1.56627,-25.13753 2.08706,-37.75292 0.61715,-2.13107 1.29345,-4.76448 1.50289,-5.85203 0.20944,-1.08754 0.94273,-2.65444 1.62953,-3.48198 0.6868,-0.82754 1.7163,-2.31936 2.28777,-3.31514 3.48771,-6.07729 10.90854,-15.98826 12.9946,-17.35511 1.34991,-0.88449 5.26607,-4.11699 8.70258,-7.18333 3.43652,-3.06635 9.30678,-7.00016 13.04504,-8.74181 4.63165,-2.15789 6.79682,-3.72878 6.79682,-4.93129 0,-1.87518 1.23119,-2.18167 7.28929,-1.81458 2.08412,0.12628 4.4374,-0.30827 5.22952,-0.96567 1.7047,-1.41478 28.38519,-2.66738 31.15311,-1.46258 1.00545,0.43764 2.26093,0.69248 2.78998,0.56632 1.36379,-0.32524 9.84931,2.0373 10.9881,3.0593 0.5225,0.46891 1.6475,0.84511 2.5,0.83598 0.8525,-0.009 5.375,1.88784 10.05,4.21547 7.22705,3.59826 10.22269,5.95945 20.00305,15.76658 13.33069,13.36718 17.56557,20.62966 20.98743,35.99178 1.98025,8.89017 2.98645,30.65303 1.52646,33.01535 -0.32794,0.53062 -1.43245,4.14977 -2.45447,8.04256 -1.02202,3.8928 -2.96502,8.7503 -4.31777,10.79445 -1.35276,2.04416 -2.81355,4.83574 -3.24621,6.20352 -1.64311,5.1945 -13.33157,18.01742 -24.71329,27.1119 -4.65855,3.72239 -18.83811,10.53917 -23.59374,11.34263 -5.67458,0.95872 -7.62353,3.42886 -6.79475,8.6118 0.36327,2.27177 1.37847,5.5189 2.25599,7.21583 1.51711,2.93379 1.49115,3.16982 -0.52861,4.80532 -1.16825,0.94599 -2.12409,1.99452 -2.12409,2.33006 0,0.33554 2.925,0.38704 6.5,0.11445 7.61472,-0.58062 8.42698,0.67002 2.77836,4.27791 -2.73811,1.74889 -4.14874,2.09511 -5.70767,1.40088 -1.13888,-0.50717 -5.44569,-0.87752 -9.57069,-0.82301 l -7.5,0.0991 -0.31794,4.46374 c -0.21356,2.99832 0.14675,4.80393 1.09753,5.5 2.15103,1.57475 11.92177,1.00907 16.00037,-0.92635 z M 150,603.55902 c 0,-0.79254 0.45,-1.7191 1,-2.05902 0.55,-0.33992 1,0.30852 1,1.44098 0,1.13246 -0.45,2.05902 -1,2.05902 -0.55,0 -1,-0.64844 -1,-1.44098 z m 54,40.02277 c 0,-1.33002 0.26913,-3.11956 0.59807,-3.97676 0.66423,-1.73095 -0.21999,-2.1838 -10.95225,-5.6091 -4.08106,-1.30251 -7.21969,-1.82206 -7.75761,-1.28414 -0.49689,0.49689 -1.01251,2.66101 -1.14583,4.80915 -0.23941,3.85783 -0.17494,3.93338 5.25762,6.16167 3.025,1.24077 7.4125,2.26977 9.75,2.28667 3.83681,0.0277 4.25,-0.20438 4.25,-2.38749 z M 365.5,642 c 0.33992,-0.55 0.14148,-1 -0.44098,-1 -0.58246,0 -1.05902,0.45 -1.05902,1 0,0.55 0.19844,1 0.44098,1 0.24254,0 0.7191,-0.45 1.05902,-1 z m -183.91186,-6.22434 c 1.12593,-3.25216 1.05035,-3.79284 -0.75898,-5.43027 -1.10517,-1.00017 -2.53135,-1.85026 -3.16928,-1.88909 -1.42998,-0.087 -4.13348,-1.13935 -8.48565,-3.30296 -3.23714,-1.60928 -3.37704,-1.59043 -5.25,0.70744 -3.24864,3.98567 -2.52635,6.67561 2.32577,8.66157 2.3375,0.95674 5.32631,1.87298 6.64179,2.03609 1.31549,0.16312 3.10344,1.00822 3.97322,1.878 2.1746,2.1746 3.26096,1.5626 4.72313,-2.66078 z M 267,639.35858 c 0,-0.21214 -0.41329,-1.16711 -0.91841,-2.12215 -0.50513,-0.95504 -1.44155,-4.97406 -2.08094,-8.93116 -1.17745,-7.28708 -2.80089,-9.97964 -5.41278,-8.97736 -1.86987,0.71753 -4.45397,9.58795 -3.54594,12.17209 0.38652,1.1 0.33927,2.97315 -0.10501,4.16255 -0.75676,2.02598 -1.28546,2.12816 -8.37234,1.61811 -5.02689,-0.36179 -7.56458,-0.187 -7.56458,0.52103 0,0.58601 1.2375,1.20786 2.75,1.38189 4.11373,0.47333 25.25,0.61983 25.25,0.175 z m -8.45729,-11.28948 c -0.31644,-0.512 -0.11799,-1.21356 0.44098,-1.55902 0.55897,-0.34546 1.01631,0.0734 1.01631,0.9309 0,1.75653 -0.60006,2.01516 -1.45729,0.62812 z M 357.5,631.65178 c 3.3,-1.39487 6.38504,-3.13782 6.85565,-3.87322 1.04902,-1.63927 -1.67301,-8.57938 -3.66476,-9.34368 -0.76968,-0.29536 -4.87571,1.11305 -9.12451,3.12979 -8.35241,3.96455 -8.27507,3.81093 -5.54015,11.00432 1.17303,3.0853 2.19857,3.00332 11.47377,-0.91721 z m -107.44254,0.24086 c 0.756,-1.4126 0.79632,-2.43886 0.12231,-3.11287 -1.48775,-1.48775 -3.17977,-0.009 -3.17977,2.77925 0,2.99919 1.5409,3.16733 3.05746,0.33362 z m -90.3337,-5.43955 1.69141,-3.54692 -2.95759,-2.41712 c -1.62667,-1.32942 -3.6926,-2.43331 -4.59095,-2.45309 -0.89835,-0.0198 -1.86872,-0.93596 -2.15638,-2.03596 -0.82824,-3.1672 -5.1554,-2.58796 -7.73552,1.03549 -2.44401,3.4323 -2.07136,5.52481 1.24964,7.01702 1.2516,0.56237 4.07563,2.12322 6.27563,3.46854 5.29974,3.24085 6.22642,3.12051 8.22376,-1.06796 z m 91.81014,-3.21751 C 251.5525,621.45601 251.21504,620 250.7839,620 c -0.43115,0 -1.08902,-0.1125 -1.46195,-0.25 -0.90713,-0.33446 -2.38554,5.33808 -1.68618,6.46969 1.31306,2.12457 3.86507,0.17095 3.89813,-2.98411 z m 129.33873,-4.30936 c 3.35529,-2.24058 6.31934,-4.42781 6.58677,-4.86052 0.26742,-0.43271 -1.13264,-2.40561 -3.11127,-4.38423 l -3.59749,-3.5975 -4.12532,2.21002 c -5.15474,2.76149 -8.02155,4.82845 -9.02868,6.50963 -1.0186,1.70032 3.36457,8.18046 5.53941,8.18955 0.89982,0.004 4.38129,-1.82637 7.73658,-4.06695 z m -244.27388,-2.69153 c 0.60431,-0.40408 1.09608,-1.40969 1.09282,-2.23469 -0.003,-0.825 0.32013,-2.5125 0.71864,-3.75 0.57851,-1.79645 0.34274,-2.25 -1.16963,-2.25 -1.54915,0 -1.81137,0.56432 -1.43951,3.09795 0.3836,2.61365 0.16111,3.0397 -1.42319,2.72535 -1.26229,-0.25046 -1.78024,-1.07305 -1.58003,-2.50936 0.16382,-1.17522 -0.17368,-2.42818 -0.75,-2.78437 C 131.47153,608.17339 131,607.08076 131,606.1015 131,604.48675 127.32859,602 124.9446,602 c -0.52871,0 -3.77713,-2.87183 -7.21872,-6.38184 -3.44158,-3.51002 -8.05033,-7.22606 -10.24165,-8.25787 -2.19133,-1.03182 -3.98423,-2.35492 -3.98423,-2.94023 0,-0.58532 -2.475,-3.65083 -5.5,-6.81227 -3.025,-3.16143 -5.65,-6.1665 -5.833333,-6.67792 C 91.983333,570.41844 91.195833,570 90.416667,570 89.6375,570 89,569.62057 89,569.15683 c 0,-0.46375 -2.474202,-4.17385 -5.498226,-8.24468 -3.024024,-4.07083 -5.66523,-7.8539 -5.869346,-8.40683 -0.233992,-0.63385 -1.153383,-0.54345 -2.488206,0.24468 -3.137905,1.85273 -3.432032,1.5977 -2.694071,-2.33598 0.583654,-3.11114 0.115079,-4.4419 -3.538677,-10.0499 -4.665589,-7.16102 -7.15822,-7.98497 -9.810876,-3.24306 -1.385369,2.47651 -1.259479,2.93257 2.282527,8.26882 2.06182,3.10627 5.081486,6.63308 6.710368,7.83736 1.628882,1.20429 2.84788,2.88332 2.708884,3.73119 -0.300215,1.83129 2.633096,5.52132 10.447623,13.14285 3.1625,3.08439 5.75,5.93882 5.75,6.34316 0,0.40435 1.2375,2.11274 2.75,3.79642 C 96.989895,588.30015 99.994848,591 101.72502,591 c 1.08226,0 2.70896,1.4265 3.82842,3.35728 1.92949,3.32783 7.94152,8.82684 14.9155,13.64272 1.99116,1.375 5.51272,3.93935 7.82568,5.69856 4.25989,3.24001 6.31348,3.86719 8.30413,2.53613 z M 159.5,615 c -0.33992,-0.55 -1.04148,-1 -1.55902,-1 -0.51754,0 -0.94098,0.45 -0.94098,1 0,0.55 0.70156,1 1.55902,1 0.85746,0 1.2809,-0.45 0.94098,-1 z m 91,-1 c 0.33992,-0.55 -0.11008,-1 -1,-1 -0.88992,0 -1.33992,0.45 -1,1 0.33992,0.55 0.78992,1 1,1 0.21008,0 0.66008,-0.45 1,-1 z m 7.5,0 c 0,-0.55 -0.45,-1 -1,-1 -0.55,0 -1,0.45 -1,1 0,0.55 0.45,1 1,1 0.55,0 1,-0.45 1,-1 z m -105,-1.83948 c 0,-0.81382 -4.37675,-3.18321 -5.79705,-3.13828 -0.91279,0.0289 4.06008,3.92626 5.04705,3.95552 0.4125,0.0122 0.75,-0.35553 0.75,-0.81724 z m 204.12922,-2.58066 c 1.51866,0.93859 3.45191,-1.24997 3.33396,-3.77425 -0.16029,-3.43017 -2.21493,-6.81054 -7.0272,-11.5614 -4.91838,-4.85561 -5.97221,-4.30594 -4.94018,2.57679 0.89069,5.94015 2.12845,8.26042 4.01945,7.53477 1.0118,-0.38826 1.48475,0.0754 1.48475,1.45545 0,2.78501 1.26046,5.90741 1.76893,4.38199 0.22104,-0.66312 0.83317,-0.93913 1.36029,-0.61335 z m -89.91316,-1.69549 c 1.2095,-0.64731 3.53129,-1.13905 5.15951,-1.09275 3.78692,0.10767 17.0722,-6.38579 22.99562,-11.23958 2.51115,-2.0577 4.50726,-4.0362 4.43579,-4.39666 -0.0715,-0.36046 0.41109,-1.97048 1.07235,-3.57783 0.66127,-1.60735 0.94128,-3.40735 0.62226,-4 -0.31902,-0.59265 -1.22753,-2.20255 -2.01892,-3.57755 -1.66055,-2.88511 -1.00882,-5.92775 1.67418,-7.81608 1.02846,-0.72385 2.77305,-3.08635 3.87686,-5.25 2.20638,-4.32485 3.51724,-4.82986 5.66887,-2.18392 1.03553,1.27343 1.56481,1.4096 1.94357,0.5 0.74319,-1.78474 1.99632,-1.55013 4.16737,0.78022 2.25021,2.41531 3.01312,1.71776 5.50151,-5.03022 1.35483,-3.67401 3.02166,-18.60304 2.79126,-25 -0.0297,-0.825 -0.0941,-3.18179 -0.14301,-5.23732 -0.0576,-2.41892 -0.7374,-4.19149 -1.92707,-5.02476 -1.01094,-0.70809 -2.00584,-2.4013 -2.21088,-3.76268 -0.23874,-1.58508 -0.90371,-2.33888 -1.84907,-2.09606 -0.81194,0.20854 -3.50461,0.59281 -5.98371,0.85392 -4.39065,0.46244 -4.56556,0.37135 -6.75,-3.51533 -1.2334,-2.19454 -2.24255,-5.0803 -2.24255,-6.41279 0,-2.74411 2.09002,-6.08932 3.53821,-5.66313 0.52898,0.15568 2.00306,-0.29378 3.27571,-0.99879 2.67535,-1.48207 5.44868,0.009 4.51965,2.43005 -0.30115,0.78479 -0.0494,1.42689 0.55944,1.42689 2.11469,0 1.12638,-4.83959 -1.39301,-6.82134 -1.375,-1.08158 -2.5,-2.46424 -2.5,-3.07258 C 312,497.49774 311.43116,497 310.7359,497 c -0.69525,0 -2.04392,-1.8 -2.99703,-4 -0.95311,-2.2 -2.09941,-4 -2.54734,-4 -0.44792,0 -1.68676,-0.7875 -2.75297,-1.75 C 291.74988,477.60099 278.20735,470.04041 272,470.25663 c -3.47057,0.12089 -3.5,0.16027 -3.5,4.68264 0,3.89406 -0.29235,4.56073 -2,4.56073 -1.44714,0 -2,-0.66667 -2,-2.41168 0,-1.32643 -0.56962,-2.6038 -1.26582,-2.83861 -0.88465,-0.29837 -1.18578,0.57512 -1,2.90074 0.20137,2.52084 -0.21909,3.54364 -1.73418,4.21844 -1.9252,0.85747 -2,1.85438 -2,26.65582 0,23.13474 0.17865,25.96245 1.75,27.6989 2.08551,2.30463 2.26628,5.61726 0.40794,7.4756 -2.78804,2.78803 -3.4674,5.5757 -3.5644,14.62601 -0.10626,9.91468 -1.18687,13.49785 -3.91101,12.96849 -1.34128,-0.26063 -1.69914,-1.54048 -1.76444,-6.31033 -0.11188,-8.17241 -1.38185,-20.25787 -2.41404,-22.97274 -0.61541,-1.61864 -0.28354,-3.16629 1.2032,-5.61104 1.80426,-2.96687 2.08908,-5.31997 2.35079,-19.42149 0.16378,-8.82507 0.38352,-16.48041 0.48829,-17.01185 0.10478,-0.53144 0.13722,-3.70715 0.0721,-7.05712 -0.11065,-5.69131 -0.38082,-6.35855 -4.11842,-10.17148 -4.65562,-4.74944 -4.94908,-6.95629 -1.47419,-11.08597 2.70362,-3.21306 2.42086,-3.89757 -1.52581,-3.69374 -3.11194,0.16073 -13.64866,3.28831 -17,5.04606 -1.375,0.72118 -4.98311,2.45983 -8.01802,3.86367 -7.96552,3.68455 -17.05181,11.09382 -23.43028,19.10585 -3.05343,3.83544 -5.5517,7.33151 -5.5517,7.76905 0,0.43754 1.125,0.51317 2.5,0.16806 2.07458,-0.52068 2.5,-0.26867 2.5,1.48095 0,2.26797 0.71637,2.57435 2.85325,1.22027 1.05048,-0.66566 1.101,-1.32883 0.22579,-2.96417 -3.30828,-6.18158 4.849,-12.23775 10.09222,-7.4927 2.65657,2.40416 2.24712,5.60111 -1.14348,8.92834 -1.65089,1.62004 -2.98457,3.99942 -3,5.35222 C 205.99437,512.86471 202.36387,517 199.82569,517 198.82156,517 198,516.30204 198,515.44897 c 0,-0.85306 -1.6258,-2.23032 -3.61288,-3.06058 -3.32461,-1.38911 -3.5646,-1.76405 -3.00774,-4.69898 l 0.60515,-3.18941 -1.96321,2.5 c -1.07977,1.375 -3.12723,6.12776 -4.54992,10.56168 -3.11266,9.70087 -3.74715,21.30928 -1.76689,32.32649 2.77371,15.43156 2.77184,15.4284 6.8724,11.62813 1.49332,-1.38396 3.49799,-2.5163 4.45481,-2.5163 5.63586,0 12.53237,8.08265 11.40964,13.37201 -0.87163,4.1064 -3.19096,6.62799 -6.09635,6.62799 -2.74731,0 -2.79988,0.21969 -0.92179,3.85153 1.47198,2.84648 6.60053,7.72628 15.39522,14.64847 2.79512,2.2 5.10442,4.47386 5.13179,5.05302 0.0274,0.57916 1.73727,1.09608 3.79977,1.14871 2.0625,0.0526 6.23614,1.01245 9.27474,2.13293 3.03861,1.12048 7.73797,2.30291 10.44301,2.62762 2.70504,0.32472 5.1689,0.85469 5.47525,1.17773 0.91005,0.95963 15.88853,-0.47948 18.27306,-1.75564 z M 243.75,605.31067 c -1.06026,-0.27707 -1.75,-1.41376 -1.75,-2.88399 0,-2.29079 0.86846,-2.8734 3.73403,-2.50499 0.68175,0.0876 0.99034,-0.4764 0.68952,-1.26033 -0.29949,-0.78044 -1.30458,-1.36101 -2.23355,-1.29017 -1.01253,0.0772 -1.81029,-0.71956 -1.99179,-1.98931 -0.2528,-1.76868 0.46834,-2.31229 4.37105,-3.295 4.01577,-1.01119 4.92757,-0.94723 6.47622,0.45428 1.6755,1.5163 2.01935,1.47078 4.88304,-0.64643 2.51489,-1.85934 3.58478,-2.10123 5.82605,-1.3172 2.3763,0.83128 2.78534,1.57036 3.04228,5.49702 0.22377,3.41971 -0.22495,5.19997 -1.82258,7.23103 -2.26161,2.87517 -6.63062,3.63807 -8.74217,1.52652 -0.89054,-0.89054 -2.09367,-0.89054 -5.06602,0 -4.0416,1.21089 -4.50048,1.2405 -7.41608,0.47857 z m 10.8586,-6.91927 c 0.36724,-3.44452 -1.23523,-1.88519 -2.16695,2.1086 -0.56594,2.4259 -0.45297,2.76824 0.59033,1.78891 0.70961,-0.6661 1.41909,-2.41998 1.57662,-3.89751 z m 8.89103,2.2495 c 2.58217,-3.94088 -0.47917,-7.78033 -3.39868,-4.26254 -0.80198,0.96634 -0.84599,2.16205 -0.1472,4 1.22336,3.21768 1.59173,3.24495 3.54588,0.26254 z m 134.46682,6.54649 c 1.54694,-1.54693 3.98732,-3.58231 5.42308,-4.52305 1.43576,-0.94075 2.59728,-2.03757 2.58116,-2.43739 -0.0161,-0.39982 -1.40378,-2.23869 -3.08368,-4.08638 l -3.05436,-3.35942 -4.66633,3.32972 c -8.62127,6.15184 -8.57735,6.07816 -6.11267,10.2555 2.6094,4.4226 5.08334,4.65049 8.9128,0.82102 z M 141.64863,588.69264 C 144.59189,584.45309 147,580.74965 147,580.46277 c 0,-0.28688 1.6875,-2.73764 3.75,-5.44612 5.12839,-6.7346 8.25,-11.87524 8.25,-13.58599 0,-2.39922 -2.98768,-1.59327 -4.00411,1.08014 -0.52503,1.38094 -3.10139,4.68255 -5.72525,7.33691 -4.64916,4.70322 -17.38352,21.07335 -18.15824,23.34257 -0.4409,1.29145 2.82102,3.99858 4.2458,3.52365 0.51649,-0.17216 3.34718,-3.78174 6.29043,-8.02129 z m 271.95408,2.71441 c -0.66177,-1.72454 2.79669,-4.57475 4.67598,-3.8536 0.97585,0.37447 1.9745,-0.15803 2.64462,-1.41015 C 422.34919,583.47901 422.28469,583 420.5,583 c -0.825,0 -1.50689,-0.5625 -1.51531,-1.25 -0.0503,-4.10905 -1.84056,-3.68747 -7.82464,1.84261 -3.38803,3.13098 -6.16005,6.06029 -6.16005,6.50958 0,0.44928 1.21767,1.94596 2.70594,3.32596 2.53608,2.35158 2.82077,2.40516 4.53526,0.85356 1.00614,-0.91053 1.61881,-2.20413 1.36151,-2.87466 z M 193.5,581 c -0.33992,-0.55 -1.06803,-1 -1.61803,-1 -0.55,0 -0.72189,0.45 -0.38197,1 0.33992,0.55 1.06803,1 1.61803,1 0.55,0 0.72189,-0.45 0.38197,-1 z M 434,571.8937 c 2.475,-2.8574 4.5,-5.68993 4.5,-6.29449 0,-1.75392 -3.61369,-0.68103 -8.78139,2.60717 -5.92263,3.76857 -7.38668,6.1768 -5.68645,9.35371 1.11555,2.08442 1.44302,2.17425 3.35208,0.9195 1.16367,-0.76484 4.14076,-3.72848 6.61576,-6.58589 z M 307.5,576 c -0.33992,-0.55 -1.26648,-1 -2.05902,-1 -0.79254,0 -1.44098,0.45 -1.44098,1 0,0.55 0.92656,1 2.05902,1 1.13246,0 1.7809,-0.45 1.44098,-1 z m -112.72934,-3.81197 c 0.21761,-0.65284 -0.33617,-1.46781 -1.23063,-1.81104 -2.08606,-0.8005 -2.75571,-0.10262 -1.94036,2.02215 0.70046,1.82537 2.53282,1.70338 3.17099,-0.21111 z m 1.53918,-6.62383 c 0.99541,-0.75471 1.44541,-1.58756 1,-1.85079 -1.32731,-0.78439 -5.49047,1.1853 -4.81507,2.27813 0.81818,1.32384 1.62449,1.23353 3.81507,-0.42734 z m 247.92579,-6.9928 c 1.5046,-1.88569 3.7507,-3.57318 4.99133,-3.74997 2.29827,-0.3275 2.80619,-1.14236 9.69917,-15.56066 1.77767,-3.71843 4.06134,-8.33577 5.07483,-10.26077 4.70628,-8.93905 15.41521,-33.98153 16.24995,-38 0.28563,-1.375 1.64445,-6.325 3.01961,-11 3.37607,-11.4773 4.90907,-21.09376 6.31549,-39.61684 0.51195,-6.74252 0.42273,-7.14761 -1.69636,-7.70177 -3.21223,-0.84001 -3.56848,-0.35371 -4.43597,6.05539 -0.895,6.61236 -0.66371,10.61615 0.64101,11.09655 1.4797,0.54483 1.03683,2.23441 -1.05013,4.00638 -1.26098,1.07064 -2.48269,4.32391 -3.44001,9.16029 -1.58942,8.02979 -2.59636,11.87942 -4.96976,19 -0.82496,2.475 -2.2282,7.65 -3.11831,11.5 -0.89011,3.85 -3.58754,11.05 -5.99428,16 -9.56517,19.67286 -11.25958,24.52356 -11.43997,32.75 -0.0651,2.96905 -0.47222,3.75 -1.95487,3.75 -3.16333,0 -13.98982,12.7955 -12.65454,14.95602 1.0325,1.67062 1.85619,1.25823 4.76281,-2.38462 z M 428,543.00793 c 0,-1.9702 -4.12837,-5.61295 -15.12699,-13.34759 -6.18381,-4.34868 -11.02128,-5.84748 -12.28317,-3.8057 -0.67089,1.08551 2.96737,4.43523 7.06542,6.50507 1.73539,0.87652 3.94987,2.39166 4.92107,3.36698 3.25071,3.26453 13.71077,10.21391 14.57231,9.68145 0.46825,-0.2894 0.85136,-1.36949 0.85136,-2.40021 z m 6.41821,-8.61492 c 3.03693,-1.16538 1.51637,-2.9316 -7.16986,-8.32822 -4.81159,-2.98936 -10.02038,-6.47686 -11.57508,-7.75 -2.81463,-2.30489 -7.08215,-3.08025 -8.0787,-1.46781 -0.58044,0.93917 3.43265,4.87651 7.60328,7.45976 1.65133,1.02282 2.93493,1.28743 3.30902,0.68214 1.05272,-1.70333 2.63355,-1.07822 2.30599,0.91186 -0.2181,1.32504 1.20155,2.97237 4.68714,5.43884 5.21366,3.68929 6.29573,4.05977 8.91821,3.05343 z M 53,525.94098 C 53,525.42344 52.55,525 52,525 c -0.55,0 -1,0.70156 -1,1.55902 0,0.85746 0.45,1.2809 1,0.94098 0.55,-0.33992 1,-1.04148 1,-1.55902 z m 4.400492,-1.54226 c 0.34754,-0.90568 -0.216742,-2.5347 -1.298976,-3.75 -1.052395,-1.1818 -3.310561,-3.68298 -5.018146,-5.55819 -2.655536,-2.91622 -2.913013,-3.63958 -1.779727,-5 1.780915,-2.13785 1.553263,-3.57061 -1.667226,-10.49292 -1.510293,-3.24632 -3.138992,-7.97132 -3.61933,-10.5 -0.480338,-2.52869 -1.398853,-5.94761 -2.041143,-7.59761 -2.130452,-5.47298 -3.727198,-12.88423 -4.95533,-23 -1.281235,-10.55317 -2.086101,-12.5 -5.16781,-12.5 -3.642207,0 -4.974163,7.46673 -2.854165,16 0.478245,1.925 1.139151,5.3 1.46868,7.5 0.329528,2.2 1.446297,6.925 2.481707,10.5 1.035411,3.575 2.177139,7.94395 2.537173,9.70878 0.360034,1.76484 1.693919,5.36484 2.96419,8 1.27027,2.63517 3.551264,8.2909 5.068874,12.56828 1.517611,4.27739 3.146617,8.01644 3.620015,8.30902 C 47.612675,518.87865 48,520.0056 48,521.0904 c 0,2.53305 2.708166,3.57295 5.219867,2.00436 1.743158,-1.08862 1.884002,-0.99738 1.300146,0.84218 -0.796019,2.50804 1.927698,2.94468 2.880479,0.46178 z M 400,523 c 0,-0.55 -0.675,-1 -1.5,-1 -0.825,0 -1.5,0.45 -1.5,1 0,0.55 0.675,1 1.5,1 0.825,0 1.5,-0.45 1.5,-1 z m 40,-1.15001 C 440,520.86521 434.45432,517 433.0414,517 c -0.63243,0 -2.51206,-1.27308 -4.17697,-2.82907 -1.66491,-1.55599 -5.44791,-4.13859 -8.40667,-5.7391 -4.44576,-2.40489 -5.60333,-2.68066 -6.66866,-1.58868 -1.05774,1.08419 -0.66771,1.84501 2.17313,4.2391 1.90422,1.60476 3.95172,2.91775 4.55,2.91775 0.59827,0 1.63531,0.54754 2.30452,1.21675 C 427.12974,519.52974 440,524.49804 440,521.84999 Z M 455.51251,514.75 c 0.95131,-2.3375 3.65771,-10.1 6.0142,-17.25 2.3565,-7.15 5.40997,-16.18136 6.7855,-20.06968 2.86591,-8.10131 3.98231,-22.5358 1.90374,-24.61437 -0.66877,-0.66877 -1.21946,-1.68845 -1.22375,-2.26595 -0.0104,-1.40182 -4.79275,-3.56377 -6.46433,-2.92232 -0.72906,0.27977 -1.62264,0.028 -1.98574,-0.55951 C 460.17904,446.48068 458.87352,446 457.64098,446 c -1.23254,0 -2.66887,-0.42789 -3.19186,-0.95088 -0.58423,-0.58423 -2.47157,-0.6079 -4.8948,-0.0614 -2.16915,0.48922 -4.37701,0.62183 -4.90635,0.29469 -0.52933,-0.32715 -2.91667,-0.5209 -5.3052,-0.43055 -2.38852,0.0903 -4.34277,-0.28655 -4.34277,-0.83754 0,-1.04842 -2.25097,-0.85399 -5.28725,0.4567 -1.13709,0.49086 -2.4103,0.20766 -3.5,-0.77851 -0.94201,-0.85251 -2.16275,-1.69459 -2.71275,-1.87128 -0.57854,-0.18586 -1.04106,-4.95733 -1.09742,-11.32126 -0.0536,-6.05 -0.27857,-14.15 -0.5,-18 l -0.40258,-7 3.25064,-0.31341 c 2.67215,-0.25763 3.41568,0.12066 4.17798,2.12566 0.73283,1.92749 1.83383,2.54647 5.24935,2.95117 5.37311,0.63665 10.05175,0.33067 11.83964,-0.7743 0.83735,-0.51751 1.51591,-0.38856 1.75671,0.33383 0.21579,0.64738 1.69072,1.17705 3.27763,1.17705 1.89738,0 2.72104,-0.42799 2.40561,-1.25 -0.28547,-0.74392 0.43574,-1.33477 1.78139,-1.45938 1.24358,-0.11516 3.90446,-0.49675 5.91308,-0.84797 2.91943,-0.51049 4.07289,-0.21773 5.75,1.45938 2.83321,2.83321 3.3769,2.64443 2.59797,-0.90203 -0.56881,-2.58978 -0.37189,-3 1.4401,-3 1.68951,0 2.01115,-0.48457 1.64863,-2.48373 -0.24771,-1.36606 -0.0512,-2.73047 0.43677,-3.03203 1.07049,-0.6616 0.21748,-3.34699 -1.81551,-5.71548 -1.12234,-1.30755 -1.20963,-2.06427 -0.35668,-3.09201 0.62114,-0.74842 0.89564,-1.59447 0.61,-1.8801 -0.28563,-0.28564 -0.74036,-2.26923 -1.01052,-4.40799 C 469.73444,378.70159 469.0389,377 467.43261,377 c -1.69882,0 -1.93856,-2.66468 -0.28921,-3.21447 0.84853,-0.28284 0.83425,-0.95878 -0.0554,-2.6211 -0.65934,-1.23199 -0.91155,-3.14501 -0.56047,-4.25117 0.37329,-1.17613 -0.0519,-3.06462 -1.02407,-4.54833 -0.91432,-1.39542 -2.33009,-4.86089 -3.14615,-7.70103 -0.81606,-2.84015 -2.43632,-7.1889 -3.60056,-9.6639 -1.9916,-4.23382 -2.38745,-5.36585 -3.13271,-8.95873 -0.16642,-0.8023 -1.45658,-2.32031 -2.86702,-3.37336 -2.48441,-1.85488 -2.73861,-1.85984 -8.1455,-0.15917 -3.06959,0.9655 -7.02534,2.82102 -8.79057,4.12336 -1.76523,1.30235 -3.7361,2.3679 -4.37972,2.3679 -0.64362,0 -2.69369,1.33727 -4.55572,2.97171 -1.86203,1.63444 -4.73551,3.52139 -6.38551,4.19322 -1.65,0.67184 -3.225,1.48246 -3.5,1.80139 -0.275,0.31893 -1.72167,1.35698 -3.21482,2.30678 C 410.1023,352.61579 407,352.52603 407,350.07678 c 0,-2.04597 -7.53586,-16.67189 -9.08255,-17.6278 -1.69532,-1.04776 -0.93739,-4.30788 1.15599,-4.97229 1.36565,-0.43344 2.48703,-0.0925 3.28504,0.99888 1.11429,1.52389 1.35688,1.49643 3.02052,-0.34186 0.9949,-1.09936 2.39608,-1.77351 3.11373,-1.49813 C 410.07452,327.24257 420,322.36713 420,320.98315 420,320.44242 420.8449,320 421.87756,320 c 1.03265,0 2.41533,-0.64798 3.07262,-1.43997 0.65728,-0.79198 2.17488,-1.57969 3.37244,-1.75048 1.28631,-0.18344 2.1285,-0.97871 2.05795,-1.94328 -0.0881,-1.20517 0.67822,-1.59787 2.92643,-1.49952 2.8817,0.12607 3.05545,-0.0823 3.22371,-3.86675 0.0978,-2.2 0.33257,-4.45 0.52169,-5 0.66792,-1.94246 -1.11617,-5.19617 -3.56897,-6.50887 -1.36589,-0.731 -2.48343,-1.83672 -2.48343,-2.45716 0,-0.62044 -1.77783,-2.86408 -3.95074,-4.98587 -2.17291,-2.12179 -4.08541,-4.80061 -4.25,-5.95295 -0.19416,-1.35935 -1.79987,-2.77345 -4.57213,-4.02655 -2.35007,-1.06227 -4.10174,-2.41227 -3.89258,-3 0.55682,-1.56468 -3.06714,-6.34895 -5.36053,-7.07685 C 407.88831,270.14716 407,269.30849 407,268.62803 407,266.99425 401.27501,261.13649 396.61288,258 392.57045,255.28043 382.10932,247.60831 380.5,246.18293 c -0.98058,-0.86849 -1.72906,-0.66915 -6.23643,1.66094 -1.23004,0.63587 -2.90171,1.15613 -3.71482,1.15613 -1.54018,0 -4.16908,3.83039 -3.70955,5.40494 0.14525,0.49772 -1.26394,2.52272 -3.13155,4.5 -1.8676,1.97729 -3.95696,5.02503 -4.64302,6.77277 -0.68606,1.74773 -2.10626,3.95498 -3.15601,4.90498 -1.04974,0.95001 -1.90862,2.27744 -1.90862,2.94985 0,0.67242 -0.66554,1.77492 -1.47899,2.45002 -1.10411,0.91633 -1.21956,1.71218 -0.45549,3.13986 0.74029,1.38324 0.65046,2.44499 -0.32464,3.83714 -1.31561,1.8783 -1.47462,1.85994 -6.59172,-0.76122 -4.67643,-2.39542 -5.17614,-2.95702 -4.61998,-5.19214 C 341.38504,273.56663 346.93414,264 348.07339,264 348.58303,264 349,263.18485 349,262.18856 c 0,-0.99629 0.9,-2.77747 2,-3.95819 1.1,-1.18071 2,-3.01308 2,-4.07193 0,-1.08417 0.87369,-2.15365 2,-2.44819 1.12989,-0.29547 2,-1.36401 2,-2.45612 0,-1.13644 1.12855,-2.4473 2.73845,-3.18082 l 2.73844,-1.24772 -2.37354,-1.27028 c -1.52978,-0.81871 -1.97004,-1.51967 -1.23845,-1.97181 0.62431,-0.38585 1.5851,-0.42342 2.1351,-0.0835 1.86044,1.14981 1.03065,-5.16228 -0.90944,-6.91804 -1.78107,-1.61185 -1.97254,-1.61527 -2.84809,-0.0508 -0.87514,1.56379 -1.16879,1.55783 -4.34056,-0.0882 -1.87105,-0.97099 -2.83941,-1.9554 -2.15191,-2.18757 1.87228,-0.63229 1.50565,-2.25547 -0.50945,-2.25547 -0.9677,0 -2.32152,-0.9 -3.00848,-2 -0.68696,-1.1 -2.0552,-2 -3.04054,-2 -0.98534,0 -2.28416,-0.49263 -2.88627,-1.09474 -1.59105,-1.59105 -16.96402,-7.64828 -22.80526,-8.98569 -2.75,-0.62964 -6.03367,-1.54412 -7.29705,-2.03218 C 309.93957,213.39932 307.63217,213 306.07539,213 c -1.55677,0 -3.34934,-0.62517 -3.98348,-1.38926 -1.67096,-2.01338 -5.53462,-2.49141 -7.6478,-0.94622 -1.0045,0.73452 -2.8388,1.33548 -4.07622,1.33548 -3.3091,0 -3.90555,1.46452 -4.88722,12 -0.28186,3.025 -0.9565,8.80356 -1.4992,12.84124 -0.5427,4.03769 -0.77358,7.68612 -0.51307,8.10763 0.26051,0.42151 0.0287,2.29295 -0.5151,4.15876 -0.89382,3.06667 -0.72976,3.60176 1.70876,5.57329 2.35028,1.90019 2.52108,2.39349 1.32689,3.83239 -1.17732,1.41858 -2.74347,1.5574 -11.1058,0.98439 l -9.7352,-0.66708 -0.71411,4.76201 c -0.64294,4.28744 -0.47591,4.93937 1.67603,6.54177 8.3323,6.20446 8.27749,6.10949 7.28892,12.6303 -0.53408,3.52295 -5.80134,9.72258 -7.41374,8.72606 -0.54178,-0.33484 -1.04506,-0.0197 -1.11842,0.70022 -0.56347,5.53063 -0.7565,9.4367 -1.25072,25.30902 -1.14898,36.90073 -1.6664,77.16008 -1.05387,82 0.56604,4.47249 1.0709,5.28912 4.78538,7.74039 9.95177,6.56741 11.59826,8.16111 11.63263,11.25961 0.0183,1.65 0.0954,4.125 0.17135,5.5 0.0759,1.375 0.0196,2.95 -0.12508,3.5 -1.03095,3.91761 0.27004,5.62351 8.22368,10.78316 4.5375,2.94355 8.925,5.65615 9.75,6.02801 2.02695,0.91362 4.4604,2.49583 10.67192,6.93883 2.88348,2.0625 5.64215,3.75 6.13039,3.75 0.48824,0 1.7022,0.9 2.69769,2 0.99549,1.1 2.43992,2 3.20986,2 0.76993,0 3.96269,1.73812 7.09501,3.86248 9.64891,6.54396 19.1609,12.13752 20.64016,12.13752 0.7754,0 2.29473,1.125 3.37631,2.5 2.37297,3.01674 2.67389,3.04221 5.90579,0.5 2.85735,-2.24759 6.44672,-2.53256 11.16815,-0.88666 3.44334,1.20035 9.07773,9.55201 9.09534,13.48167 0.012,2.6763 2.30527,4.72067 9.3193,8.30778 3.09203,1.58132 7.40913,4.29067 9.59355,6.02076 l 3.97168,3.14563 2.44256,-4.28459 c 1.34341,-2.35653 3.24945,-6.46613 4.23566,-9.13245 0.9862,-2.66632 2.39587,-5.07917 3.1326,-5.36188 1.8891,-0.72491 4.31098,1.55817 4.33037,4.08218 0.0115,1.49703 2.28517,3.75755 7.67191,7.62756 4.21056,3.025 8.48553,5.82571 9.49995,6.2238 1.01441,0.39809 4.51236,2.53559 7.77322,4.75 3.60816,2.45026 7.08271,4.0262 8.87672,4.0262 1.69785,0 3.19196,0.63607 3.52349,1.5 0.9864,2.57054 2.35436,1.66425 4.15088,-2.75 z M 74.811925,514.38489 C 77.940366,512.94657 83.425,510.45304 87,508.84371 c 12.312625,-5.5427 15.49297,-7.34838 15.79514,-8.96788 0.55202,-2.95858 -2.78171,-2.88287 -11.58901,0.26317 -4.788371,1.71045 -10.95613,3.91092 -13.70613,4.88994 -7.351228,2.61708 -14.504586,5.96324 -14.468197,6.76785 0.08041,1.77792 3.08587,4.44236 5.780122,5.12426 0.171559,0.0434 2.871559,-1.09785 6,-2.53616 z m 249.967445,-8.36657 c -1.53842,-2.4634 -3.10497,-1.49522 -1.7319,1.07038 0.57908,1.08202 1.47108,1.70885 1.98222,1.39295 0.54812,-0.33876 0.44543,-1.34925 -0.25032,-2.46333 z M 57,506.55902 c 0,-1.79236 -1.6522,-2.89201 -3.048558,-2.02901 -0.716805,0.44301 -0.678065,1.09446 0.122444,2.05902 C 55.584839,508.40961 57,508.3951 57,506.55902 Z m 13.5,-6.64062 c 4.4,-1.69089 10.236977,-3.90019 12.971061,-4.90956 2.734084,-1.00936 5.134084,-2.32427 5.333333,-2.92202 C 89.003644,491.48907 89.73503,491 90.429695,491 c 0.694666,0 2.724511,-0.72908 4.510767,-1.62019 2.975142,-1.48419 3.113637,-1.75428 1.650043,-3.21788 -1.375578,-1.37557 -2.04902,-1.41728 -4.8441,-0.29996 C 89.960882,486.57572 84.225,488.65168 79,490.47522 c -11.590735,4.04518 -21,8.2176 -21,9.31217 0,1.15928 2.208265,3.21327 3.45,3.20898 0.5775,-0.002 4.65,-1.38708 9.05,-3.07797 z m 136.82697,1.42129 c 0.36317,-0.36316 -0.26593,-1.30906 -1.398,-2.10199 -2.32148,-1.62603 -3.46809,-1.08502 -2.58389,1.21917 0.60602,1.57926 2.79921,2.06551 3.98189,0.88282 z m 160.626,-12.56385 2.41826,-1.72416 -2.93562,-2.52462 c -3.32134,-2.85634 -5.10433,-3.09284 -7.81944,-1.03716 -1.78402,1.35074 -1.79699,1.60928 -0.24478,4.88032 1.7972,3.78731 3.71161,3.87779 8.58158,0.40562 z m -62.49568,-7.70674 c 0.31644,-0.512 0.11799,-1.21356 -0.44098,-1.55902 -0.55897,-0.34546 -1.01631,0.0734 -1.01631,0.9309 0,1.75653 0.60006,2.01516 1.45729,0.62812 z M 279,465.55902 c 0,-1.05548 -1.91911,-1.49891 -2.48992,-0.57533 -0.34546,0.55897 0.0734,1.01631 0.9309,1.01631 0.85746,0 1.55902,-0.19844 1.55902,-0.44098 z m -34.27083,-2.16319 c -0.3323,-0.33229 -1.1948,-0.36781 -1.91667,-0.0789 -0.79773,0.31922 -0.56078,0.55618 0.60417,0.60416 1.05416,0.0434 1.64479,-0.19293 1.3125,-0.52522 z M 34.369714,438.75 C 35.29267,435.306 35.11268,428.42657 34.024751,425.5651 33.243843,423.51116 32.377141,423 29.675447,423 h -3.374055 l -0.129266,7 c -0.09516,5.15296 0.214707,7 1.174338,7 0.716983,0 2.16984,0.87326 3.228571,1.94057 2.518024,2.53843 3.070775,2.51067 3.794679,-0.19057 z m 435.676126,-3.83565 c 1.34022,-2.50423 0.8361,-3.14383 -2.7919,-3.54218 -1.51467,-0.1663 -6.57894,-0.82481 -11.25394,-1.46335 -4.675,-0.63853 -11.95389,-1.36245 -16.17532,-1.6087 -7.00417,-0.40857 -7.77306,-0.26509 -8.79312,1.64091 -1.38049,2.57947 -1.86391,2.41941 13.46844,4.45939 22.8882,3.04529 24.17722,3.07122 25.54584,0.51393 z M 253,434.55902 c 0,-1.79236 -1.6522,-2.89201 -3.04856,-2.02901 -0.7168,0.44301 -0.67806,1.09446 0.12245,2.05902 1.51095,1.82058 2.92611,1.80607 2.92611,-0.03 z m 8.01693,-7.57595 c 1.85645,-1.85645 1.8994,-2.24418 0.53988,-4.87321 -0.81238,-1.57096 -1.25107,-3.08227 -0.97488,-3.35846 1.22312,-1.22312 -4.74252,-1.32722 -6.47605,-0.11301 -1.46256,1.02442 -1.80924,2.14517 -1.42526,4.60765 0.93002,5.96436 4.50595,7.56739 8.33631,3.73703 z M 83.701535,424.6318 c 0.630334,-0.63034 -5.04066,-5.92868 -9.514636,-8.88942 -4.149932,-2.74629 -8.954061,-3.55738 -10.736899,-1.81273 -0.5225,0.51131 -4.520066,1.77911 -8.88348,2.81733 -8.271027,1.96798 -11.130827,4.08473 -8.74861,6.4755 0.754034,0.75674 5.025215,1.49948 10.477524,1.82201 9.364811,0.55397 26.700485,0.29292 27.406101,-0.41269 z M 247.7448,424.75 c -0.23203,-0.6875 0.14673,-3.414 0.84169,-6.05888 1.14516,-4.35831 1.10661,-4.77902 -0.41147,-4.49014 -2.20475,0.41955 -3.51023,11.79902 -1.3536,11.79902 0.73988,0 1.15541,-0.5625 0.92338,-1.25 z m 242.10798,-1.07261 c 0.62013,-0.74721 1.01072,-4.46611 0.89782,-8.54829 -0.1516,-5.48157 -0.62986,-7.61484 -1.98135,-8.83793 -0.97983,-0.88673 -2.11625,-1.25339 -2.52538,-0.8148 -0.40913,0.43859 -0.13045,1.01531 0.61928,1.28159 1.12663,0.40014 1.13265,0.6266 0.0347,1.30518 -0.8635,0.53367 -1.38787,3.20375 -1.49822,7.62894 -0.20455,8.20289 1.59479,11.42943 4.45316,7.98531 z m -24.03046,-0.68167 c 1.66881,-0.004 2.22804,-0.49714 1.98729,-1.75094 -0.38926,-2.02716 -8.72129,-3.57499 -25.67203,-4.76905 -8.20276,-0.57782 -10.53549,-0.44994 -11.1928,0.61362 -1.35084,2.1857 0.98974,3.90492 5.42766,3.98679 2.27016,0.0419 7.50256,0.68656 11.62756,1.43264 4.125,0.74607 9.3,1.16223 11.5,0.9248 2.2,-0.23744 5.04504,-0.43448 6.32232,-0.43786 z M 41,413.94098 C 41,412.87344 40.55,412 40,412 c -0.55,0 -1,1.15156 -1,2.55902 0,1.45136 0.432842,2.2915 1,1.94098 0.55,-0.33992 1,-1.49148 1,-2.55902 z m 228,1.29957 c 0,-1.0619 -4.07532,-3.49856 -4.73988,-2.834 C 263.44314,413.22352 266.04104,416 267.62244,416 268.3801,416 269,415.65825 269,415.24055 Z M 31.490449,410.82939 c 0.555253,-1.93067 1.518033,-3.33761 2.139511,-3.12653 1.293691,0.43939 2.008879,-3.83612 2.961251,-17.70286 0.358855,-5.225 0.996703,-10.175 1.417439,-11 0.420736,-0.825 0.648339,-2.625 0.505785,-4 -0.142554,-1.375 -0.316619,-3.0625 -0.386812,-3.75 -0.07019,-0.6875 -1.034237,-1.25 -2.142321,-1.25 -2.626269,0 -6.197476,5.70343 -5.6171,8.97083 0.241386,1.35896 -0.177948,4.05896 -0.931853,6 -0.753905,1.94104 -1.273,4.20417 -1.153543,5.02917 0.119457,0.825 -0.415671,6.09411 -1.189172,11.70913 -1.158737,8.41153 -1.176329,10.4863 -0.09992,11.7833 1.865312,2.24757 3.334729,1.37735 4.49673,-2.66304 z m 2.316423,0.64415 c -0.307887,-0.30789 -0.867048,0.24711 -1.242579,1.23333 -0.542685,1.4252 -0.427821,1.54006 0.559795,0.5598 0.683418,-0.67834 0.990671,-1.48524 0.682784,-1.79313 z m 52.093927,-1.85401 c 1.049097,-1.26408 0.790571,-1.47699 -1.707245,-1.40597 -2.388046,0.0679 -2.943554,0.52146 -2.943554,2.40335 0,1.87719 0.325652,2.14538 1.707244,1.40597 0.938985,-0.50253 2.263584,-1.58404 2.943555,-2.40335 z M 55.037235,407.5698 c -0.734337,-1.98684 -7.527794,-5.41257 -8.602431,-4.33794 -0.286183,0.28619 -0.777991,2.1081 -1.092907,4.0487 -0.67168,4.13908 0.853513,4.88228 6.809219,3.31801 3.131594,-0.82251 3.542264,-1.25348 2.886119,-3.02877 z M 79,411 c 0,-0.55 -0.45,-1 -1,-1 -0.55,0 -1,0.45 -1,1 0,0.55 0.45,1 1,1 0.55,0 1,-0.45 1,-1 z m -37.650663,-2.46797 c 0.309823,-0.80739 0.132968,-1.73395 -0.393011,-2.05902 C 40.430347,406.14793 40,406.80852 40,407.94098 c 0,2.41457 0.556111,2.65816 1.349337,0.59105 z M 488.39016,392.84628 C 488.28432,385.6642 486.94841,381 484.99717,381 c -1.14428,0 -1.00794,14.60518 0.16647,17.83128 0.46677,1.28221 1.4084,2.13727 2.09251,1.90014 0.85592,-0.29668 1.20959,-2.75592 1.13401,-7.88514 z M 485.39941,374.25 c -0.38018,-2.0625 -1.30057,-5.49408 -2.04532,-7.62573 C 482.60934,364.49262 482,361.90512 482,360.87427 482,359.84342 481.52641,359 480.94758,359 c -1.46158,0 -0.94267,11.45558 0.65874,14.5423 0.70129,1.35173 1.0502,2.4577 0.77536,2.4577 -0.27484,0 -0.2216,0.45 0.11832,1 0.33992,0.55 1.28687,1 2.10433,1 1.17371,0 1.34093,-0.78866 0.79508,-3.75 z M 42.76407,361.75 c 1.1229,-2.8875 2.358497,-6.0375 2.745772,-7 0.50347,-1.25128 0.22578,-1.75 -0.974419,-1.75 -1.202741,0 -1.587401,-0.69559 -1.356989,-2.45388 0.334679,-2.55395 -0.129678,-2.8858 -2.672646,-1.90997 -3.330206,1.27792 -6.679676,14.78996 -4.264855,17.20478 2.457342,2.45734 4.46667,1.19721 6.523137,-4.09093 z m 436.17526,-10.39154 c -1.09428,-2.55284 -1.77788,-4.85324 -1.51912,-5.112 0.25875,-0.25876 -0.85494,-2.81895 -2.47487,-5.68932 C 473.3254,337.68677 472,334.78547 472,334.1098 472,332.20213 463.81938,316 462.85618,316 c -1.70454,0 -0.7928,4.23995 2.21618,10.30609 1.6898,3.40665 3.67294,6.86891 4.40698,7.69391 0.73403,0.825 1.84937,3.525 2.47853,6 1.65783,6.52159 3.97871,12.24249 5.781,14.25 2.75824,3.07231 3.24957,1.88885 1.20046,-2.89154 z M 49.527073,343.9562 c 0.354809,-0.5741 0.105685,-1.69377 -0.553607,-2.48817 -0.955124,-1.15086 -0.863498,-1.573 0.450895,-2.07738 2.38515,-0.91527 4.360368,-5.48443 3.627219,-8.39065 -0.447237,-1.77286 -1.419026,-2.59203 -3.341126,-2.81642 -1.49075,-0.17403 -2.774536,0.051 -2.852859,0.5 -0.07832,0.44903 -0.267818,2.3715 -0.421101,4.27214 -0.153283,1.90065 -0.944469,3.94255 -1.75819,4.53756 -1.271937,0.93006 -2.156097,4.26938 -1.788995,6.75672 0.169181,1.14631 5.904623,0.89244 6.637764,-0.2938 z M 420.02299,334 c 0.908,0 4.97927,-2.03557 13.567,-6.78329 2.47633,-1.36904 6.94069,-7.01937 6.1616,-7.79845 -0.25662,-0.25663 -1.03581,0.21928 -1.73153,1.05757 -0.69572,0.8383 -1.8215,1.52417 -2.50174,1.52417 -1.431,0 -12.29767,5.61487 -14.51832,7.50169 -0.825,0.70099 -3.86633,2.49903 -6.7585,3.99566 -5.82403,3.01379 -6.68425,3.90649 -5.85265,6.07359 0.44821,1.16801 1.60969,0.74162 5.57836,-2.04789 C 416.72396,335.58537 419.44906,334 420.02299,334 Z m -307.06271,-0.45214 c 0.84868,-1.0226 0.21375,-1.77644 -2.83429,-3.36517 C 105.98534,328.02446 105,328.20406 105,331.11698 c 0,3.14621 5.87712,4.94094 7.96028,2.43088 z M 61.494582,321.01048 c 0.850268,-1.64424 1.424324,-3.17199 1.27568,-3.39501 -0.148644,-0.22302 0.557798,-1.32049 1.569871,-2.43882 3.365792,-3.71916 -0.285435,-8.28095 -5.343174,-6.67568 C 57.219128,309.06523 52,318.12474 52,320.64649 52,322.44395 54.400924,324 57.17432,324 c 2.069003,0 3.167345,-0.76003 4.320262,-2.98952 z m 5.994135,0.3664 c 0.945305,-1.44272 1.224479,-2.31766 0.620387,-1.94431 C 66.954709,320.14603 64.626427,324 65.349806,324 c 0.231096,0 1.193606,-1.18041 2.138911,-2.62312 z M 90,315.04608 C 90,314.47073 89.55,314 89,314 c -0.55,0 -1,-0.59081 -1,-1.31291 0,-0.7221 -1.271835,-2.5314 -2.8263,-4.02068 -2.67708,-2.5648 -2.906643,-2.61428 -4.348001,-0.93709 -2.364251,2.75109 -2.8656,5.08792 -1.404944,6.54858 C 81.038231,315.89537 90,316.5461 90,315.04608 Z m 366.07488,-10.8993 c -1.14794,-2.25014 -3.37199,-5.56618 -4.94235,-7.36898 -1.57035,-1.80279 -3.60415,-4.7403 -4.51954,-6.5278 -0.91539,-1.7875 -1.99656,-3.25 -2.4026,-3.25 -0.40604,0 -1.85072,-1.8 -3.21039,-4 -1.35967,-2.2 -3.04091,-4 -3.73607,-4 -3.46015,0 0.71966,7.93103 6.28689,11.92911 4.49026,3.22467 4.81338,3.78343 4.49465,7.77248 -0.10886,1.36244 1.43539,3.94964 4.05151,6.78779 5.02576,5.45231 7.08912,4.7559 3.9779,-1.3426 z M 73.633685,302.25 c 6.719825,-8.48916 7.677772,-14.30208 2.484056,-15.0735 -3.350919,-0.49771 -12.097427,9.13761 -12.111152,13.34188 -0.0055,1.69619 4.079659,5.36383 6.076046,5.45501 0.32045,0.0146 1.918422,-1.66089 3.55105,-3.72339 z M 78,304.44098 c 0,-0.85746 -0.45,-1.2809 -1,-0.94098 -0.55,0.33992 -1,1.04148 -1,1.55902 0,0.51754 0.45,0.94098 1,0.94098 0.55,0 1,-0.70156 1,-1.55902 z M 80,301 c 0,-0.55 -0.198442,-1 -0.440983,-1 -0.242541,0 -0.719098,0.45 -1.059017,1 -0.339919,0.55 -0.141476,1 0.440983,1 C 79.523442,302 80,301.55 80,301 Z m 185.90308,-15.38322 c 0.88953,-1.07182 0.78014,-1.52436 -0.48589,-2.01018 -1.49862,-0.57508 -1.48978,-0.84686 0.10675,-3.28348 1.66362,-2.539 1.65862,-2.71646 -0.11297,-4.01188 -1.01947,-0.74545 -2.4658,-1.12044 -3.21406,-0.83331 -0.74827,0.28714 -1.67666,0.52207 -2.06309,0.52207 -0.38643,0 -1.52404,1.39058 -2.52802,3.09019 -1.85678,3.14327 -1.21657,5.23437 1.68259,5.49589 0.66639,0.0601 2.02567,0.17783 3.02063,0.26161 0.99496,0.0838 1.5309,0.60231 1.19098,1.15231 -0.93867,1.5188 1.0935,1.19473 2.40308,-0.38322 z M 88.04923,282.75 c 2.153095,-1.7875 3.92283,-3.62902 3.932744,-4.09227 0.0099,-0.46325 0.874498,-1.9311 1.921298,-3.26189 2.345153,-2.98138 1.668164,-6.21431 -1.466026,-7.00095 -2.63658,-0.66174 -8.965405,3.54311 -9.936104,6.60151 -0.317502,1.00036 -1.235146,2.07129 -2.039209,2.37983 -2.196595,0.84292 -1.758597,4.5557 0.788067,6.68021 1.2375,1.03236 2.392765,1.89199 2.567256,1.91029 0.174491,0.0183 2.078879,-1.42923 4.231974,-3.21673 z m 83.4495,-5.74795 C 172.41999,275.51143 168.81841,270 166.92306,270 c -1.24435,0 -1.52933,0.67068 -1.1685,2.75 0.68013,3.91928 4.29573,6.59568 5.74417,4.25205 z M 429.23748,270.75 c -0.84466,-3.30361 -5.30618,-9.75 -6.74792,-9.75 -0.68457,0 -1.8207,-0.69407 -2.52473,-1.54238 -0.86687,-1.04451 -1.60805,-1.2144 -2.29613,-0.52632 -1.56403,1.56403 2.15321,8.28501 6.27927,11.35326 4.43231,3.29599 6.04961,3.4383 5.28951,0.46544 z m -326.59204,-4.5 c 0.252,-0.9625 2.02632,-2.77742 3.94292,-4.03315 1.9166,-1.25573 4.0146,-3.44609 4.66222,-4.86747 1.04016,-2.2829 0.89366,-2.81416 -1.25604,-4.55489 -2.35742,-1.90892 -2.48142,-1.91306 -3.96404,-0.13221 -0.84178,1.01109 -2.81213,2.41117 -4.37857,3.11128 -1.829747,0.8178 -2.64908,1.79148 -2.291532,2.72324 0.306094,0.79767 -0.03379,1.79971 -0.755298,2.22675 -3.145059,1.8615 -1.549914,7.27645 2.14351,7.27645 0.79124,0 1.64482,-0.7875 1.89683,-1.75 z m 76.6914,1.07983 c 0.3686,-0.3686 -0.0251,-1.73131 -0.87489,-3.02825 -0.84979,-1.29694 -1.29723,-2.75908 -0.99432,-3.24921 0.30291,-0.49012 -0.17209,-1.61397 -1.05557,-2.49745 -0.88347,-0.88347 -1.34346,-2.2913 -1.0222,-3.12851 0.32127,-0.8372 -1.18877,-5.27152 -3.35564,-9.85404 -3.11291,-6.58321 -4.48401,-8.46844 -6.53298,-8.9827 -3.92179,-0.98431 -4.47898,-0.0598 -4.0387,6.70136 0.63193,9.70436 2.44093,13.31539 9.66068,19.28413 6.74295,5.57457 7.15512,5.81316 8.21362,4.75467 z M 412.8,258.8 c 2.51731,-2.51731 1.30337,-5.55378 -3.68398,-9.21483 -4.77141,-3.50254 -8.42191,-4.51728 -9.56971,-2.66011 -0.6937,1.12245 1.43748,6.07494 2.61421,6.07494 0.46171,0 0.83948,0.68465 0.83948,1.52144 0,0.83679 1.125,2.03402 2.5,2.66051 1.375,0.6265 2.5,1.51685 2.5,1.97857 0,1.26517 3.43208,1.0074 4.8,-0.36052 z M 119.441,251 c 0.70258,0 3.34416,-1.81922 5.87019,-4.04271 3.7624,-3.31181 4.45069,-4.42678 3.80694,-6.16698 -1.52562,-4.12415 -7.59764,-3.13632 -6.73221,1.09523 0.29409,1.43795 0.29007,2.05196 -0.009,1.36446 -0.88282,-2.02985 -4.26372,-1.43817 -7.98029,1.3966 l -3.46987,2.6466 2.23859,2.38287 c 1.23123,1.31058 2.8595,2.14461 3.61838,1.8534 C 117.54267,251.23826 118.73842,251 119.441,251 Z M 159,250.13486 c 0,-0.47583 -0.86445,-1.96412 -1.921,-3.3073 -1.05656,-1.34319 -1.84406,-3.31638 -1.75,-4.38486 0.21808,-2.47754 -3.17204,-2.63865 -4.69569,-0.22315 -0.8814,1.3973 -0.4434,2.38117 2.33718,5.25 3.23583,3.33853 6.02951,4.57346 6.02951,2.66531 z M 252,250 c 0,-0.55 -0.45,-1 -1,-1 -0.55,0 -1,0.45 -1,1 0,0.55 0.45,1 1,1 0.55,0 1,-0.45 1,-1 z m 25.42984,-3.27886 c 1.65285,-8.09603 2.82143,-29.44973 1.7194,-31.41895 -0.66843,-1.19441 -1.3936,-0.55904 -3.34321,2.92918 -1.92476,3.44377 -2.62278,6.47537 -3.07649,13.36153 -0.32277,4.89891 -1.01713,10.0321 -1.54301,11.4071 -1.35883,3.55282 1.37816,8.30334 3.98127,6.9102 0.99472,-0.53236 2.01264,-1.96744 2.26204,-3.18906 z m 116.74142,-2.37613 c 2.85638,-2.58499 2.17882,-4.77997 -2.24258,-7.26494 -2.23923,-1.25851 -4.31138,-2.91379 -4.60478,-3.6784 -0.29341,-0.7646 -0.88533,-1.17272 -1.31538,-0.90694 -0.43005,0.26579 -1.33015,-0.17734 -2.00022,-0.98473 -1.91063,-2.30217 -5.0083,-0.10833 -5.0083,3.54699 0,2.56113 0.8769,3.55339 6.15504,6.96482 3.38527,2.188 6.38733,3.97819 6.67126,3.97819 0.28392,0 1.33915,-0.74474 2.34496,-1.65499 z M 261,239.44098 C 261,238.09844 260.55,237 260,237 c -0.55,0 -1,-0.47656 -1,-1.05902 0,-0.58246 0.47307,-0.76664 1.05127,-0.40929 0.5782,0.35734 2.0407,-0.41971 3.25,-1.72679 2.68665,-2.90388 3.47484,-11.48245 1.6229,-17.66366 l -1.24201,-4.14546 -2.78831,3.12311 c -3.25773,3.6489 -5.73743,10.24862 -5.32038,14.16023 0.16105,1.51057 0.99791,4.15986 1.85968,5.88732 0.86177,1.72746 1.56685,4.22326 1.56685,5.54622 0,1.34894 0.4392,2.13393 1,1.78734 0.55,-0.33992 1,-1.71648 1,-3.05902 z m -116.78344,-4.4417 c 4.96223,-2.67809 5.94517,-4.70936 4.24061,-8.76331 -1.47046,-3.4972 -3.47272,-4.12709 -5.4698,-1.72075 -0.69164,0.83337 -3.55924,2.66536 -6.37245,4.07109 -2.8132,1.40573 -5.53179,2.96325 -6.04129,3.46115 -1.29402,1.26456 2.22891,4.93342 4.83136,5.03149 1.15225,0.0434 1.52971,0.30685 0.83878,0.58541 -0.69093,0.27855 -0.98554,0.94444 -0.65471,1.47975 0.36058,0.58342 1.46462,0.34995 2.75623,-0.58287 1.18509,-0.85589 3.82716,-2.45877 5.87127,-3.56196 z m 228.74361,-3.45129 c 2.69515,-3.24746 -3.77422,-11.42541 -9.10318,-11.50735 -1.49606,-0.023 -2.91547,-0.75065 -3.27085,-1.67676 -0.57213,-1.49095 -0.80345,-1.47719 -2.60699,0.15499 -3.78004,3.42088 -2.58003,5.74898 5.27085,10.22585 8.37633,4.7765 8.13126,4.70575 9.71017,2.80327 z M 165,223.83674 c 1.925,-0.84781 4.2875,-1.81878 5.25,-2.15772 1.85605,-0.6536 2.45714,-3.67902 0.73095,-3.67902 -0.58048,0 -0.75595,-1.04829 -0.40772,-2.43574 0.55782,-2.22256 0.31881,-2.43183 -2.73095,-2.39102 -3.81407,0.051 -12.46953,3.69886 -13.26047,5.58861 -0.5749,1.37359 1.30962,6.33662 2.80853,7.39648 0.51208,0.36208 1.64624,0.33468 2.52035,-0.0609 0.87412,-0.39558 3.16431,-1.41289 5.08931,-2.26069 z M 173,225 c 0,-0.55 -0.47656,-1 -1.05902,-1 -0.58246,0 -0.7809,0.45 -0.44098,1 0.33992,0.55 0.81648,1 1.05902,1 0.24254,0 0.44098,-0.45 0.44098,-1 z m 179.41712,-6.64462 c 0.86731,-2.26018 -1.83332,-4.96701 -6.8777,-6.89348 -3.9876,-1.52288 -11.3286,-1.62243 -10.78942,-0.14632 0.1375,0.37643 0.25,1.34786 0.25,2.15874 0,2.003 5.70196,4.81581 8.62833,4.2564 1.55614,-0.29748 2.37167,0.0147 2.37167,0.90795 0,2.00338 5.63511,1.75461 6.41712,-0.28329 z M 190.75,212.82309 c 3.50608,-2.14271 4.05941,-4.33389 1.85555,-7.34785 -1.35005,-1.84631 -1.56946,-1.85186 -6.89161,-0.1742 -3.02343,0.95305 -6.05103,2.40021 -6.72799,3.21589 -0.67696,0.81569 -2.06162,1.48307 -3.07701,1.48307 -1.04437,0 -1.65554,0.54288 -1.40723,1.25 0.24142,0.6875 0.88401,2.46868 1.42797,3.95817 l 0.98901,2.70818 5.29066,-1.55352 c 2.90986,-0.85444 6.75315,-2.44732 8.54065,-3.53974 z M 254.15275,214.5 c 0.2401,-2.07432 -0.0862,-3 -1.05742,-3 -1.75508,0 -2.35129,3.48666 -0.89604,5.24013 1.36194,1.64103 1.52599,1.4529 1.95346,-2.24013 z M 327,209.85102 c 0,-1.7825 -6.12901,-7.27161 -9.80563,-8.78188 -4.41212,-1.81239 -5.95073,-0.30041 -3.22305,3.16727 1.11577,1.41848 2.02868,3.29557 2.02868,4.17132 0,0.87575 0.66088,1.59227 1.46862,1.59227 0.89459,0 1.24363,-0.58629 0.89301,-1.5 -0.78621,-2.04883 0.33741,-1.8819 3.3655,0.5 2.82106,2.21905 5.27287,2.61476 5.27287,0.85102 z m -117.97,-1.85995 c 6.18999,-1.84346 6.78243,-2.2597 7.19244,-5.05332 0.64852,-4.41861 -1.94406,-5.53835 -9.13575,-3.94573 -3.07268,0.68046 -6.27286,1.59723 -7.11152,2.03726 -2.95933,1.55275 -1.89306,8.97072 1.28946,8.97072 0.56086,0 4.05528,-0.90402 7.76537,-2.00893 z m 42.97,-0.9848 c 0,-0.54654 -0.8884,-0.85814 -1.97423,-0.69243 C 246.89393,206.79179 246.39777,208 249.33333,208 250.8,208 252,207.55282 252,207.00627 Z m 22,-0.61326 C 274,206.17686 273.325,206 272.5,206 c -0.825,0 -1.5,0.43588 -1.5,0.96862 0,0.53273 0.675,0.70959 1.5,0.39301 0.825,-0.31659 1.5,-0.75246 1.5,-0.96862 z m 31.16582,-0.62611 c 2.16135,-1.7175 3.18326,-6.43312 1.60543,-7.40827 -1.35716,-0.83878 -2.02671,-0.9613 -9.07769,-1.66112 -2.64354,-0.26238 -5.08104,-0.75166 -5.41667,-1.08728 -1.67419,-1.6742 -3.10186,-0.24276 -3.45541,3.46452 -0.42292,4.43473 -0.0427,4.90997 5.17852,6.47304 5.21322,1.56066 9.3748,1.64233 11.16582,0.21911 z m -66.79759,-2.44355 c 1.5689,-0.44775 1.78796,-1.24527 1.36727,-4.97766 -0.27553,-2.44447 -0.66623,-4.59084 -0.86823,-4.76972 -0.202,-0.17889 -4.27671,0.36625 -9.05492,1.21141 l -8.68766,1.53665 0.38004,3.58799 c 0.20902,1.97339 0.40597,3.97115 0.43765,4.43947 0.0561,0.82898 12.68928,0.0382 16.42585,-1.02814 z m 44.16389,0.22768 c 2.81284,-1.17528 3.49621,-2.02528 3.61788,-4.5 0.0825,-1.67807 0.195,-3.61353 0.25,-4.30103 0.0958,-1.19753 -0.79439,-1.33781 -12.84949,-2.0249 -3.66597,-0.20894 -3.99497,-0.006 -4.58296,2.8257 -0.95072,4.57867 0.25522,6.67851 4.60912,8.02561 5.24748,1.62358 5.0073,1.62426 8.95545,-0.0254 z m -22.25073,-1.70162 c 1.03945,-0.5563 1.67883,-1.22252 1.42086,-1.48049 -0.25798,-0.25798 -0.11285,-2.04837 0.3225,-3.97866 0.71024,-3.14913 0.54052,-3.60504 -1.65241,-4.4388 -1.34418,-0.51105 -4.11535,-0.64803 -6.15815,-0.30438 -2.04281,0.34364 -5.28101,0.69439 -7.19602,0.77943 -3.04904,0.13541 -3.50846,0.50098 -3.696,2.94099 -0.35182,4.57724 1.25612,7.45181 4.37592,7.82302 4.11451,0.48956 10.41795,-0.18226 12.5833,-1.34111 z m -7.83817,-40.44088 c 1.00687,-1.37697 1.76299,-1.42585 5.61025,-0.36267 4.91381,1.35793 4.69033,1.34791 10.74662,0.48163 6.05784,-0.86651 9.16031,-2.21369 9.81621,-4.26248 0.31078,-0.97076 0.98363,-2.66501 1.49522,-3.76501 1.72691,-3.71315 1.77733,-6.46829 0.14819,-8.09743 -1.49456,-1.49456 -1.49315,-1.69243 0.0181,-2.53819 1.78054,-0.99644 1.39147,-3.23013 -1.06029,-6.08724 -0.96254,-1.12168 -1.26878,-2.77108 -0.87763,-4.72682 0.53682,-2.68412 0.1095,-3.37909 -4.01338,-6.52714 -4.50489,-3.43974 -8.43649,-4.37381 -11.1552,-2.65025 -0.73075,0.46327 -2.75575,0.5386 -4.5,0.16741 -1.74425,-0.37119 -3.84636,-0.34378 -4.67136,0.0609 -0.825,0.4047 -4.15627,1.56645 -7.40281,2.58166 -3.86441,1.20842 -6.60147,2.7816 -7.92597,4.55563 -2.15659,2.88852 -3.91272,12.49416 -2.44954,13.39846 0.48149,0.29757 0.36462,1.15654 -0.25971,1.90881 -1.62787,1.96146 3.57213,11.25029 7.93591,14.17603 4.00109,2.68258 5.10212,2.83776 5.10212,0.71913 0,-0.85746 0.48068,-1.26194 1.06817,-0.89885 0.5875,0.3631 0.82662,1.28965 0.53139,2.05902 -0.72562,1.89094 0.40663,1.77265 1.84366,-0.19262 z M 224.76393,138.25 c -0.21049,-0.9625 -0.91848,-1.6375 -1.57332,-1.5 C 222.53577,136.8875 222,136.55144 222,136.0032 c 0,-0.54824 -2.20395,-3.13574 -4.89768,-5.75 -4.40626,-4.27629 -5.21712,-5.79415 -8.08144,-15.12798 -3.9853,-12.98667 -3.95156,-12.8161 -4.63839,-23.449651 C 203.59553,79.491654 205.36216,71.048824 210.1966,63.88955 213.81951,58.524425 222.12104,51 224.41736,51 c 0.59902,0 2.2796,-1.2375 3.73462,-2.75 1.45501,-1.5125 5.95355,-4.361396 9.99675,-6.330881 18.40603,-8.96577 39.62946,-9.578083 51.53675,-1.486875 C 291.76381,41.84451 293.8149,43 294.24344,43 c 0.42855,0 3.53445,1.880732 6.90201,4.179405 5.88619,4.017876 13.89313,13.368409 16.11625,18.820595 0.56065,1.375 1.5942,3.85 2.29678,5.5 0.70259,1.65 1.85438,5.8125 2.55955,9.25 C 323.34808,86.74614 325,89.182208 325,85 c 0,-1.111111 0.66667,-2 1.5,-2 1.04762,0 1.5,1.055556 1.5,3.5 0,1.925 0.48575,3.5 1.07946,3.5 0.7001,0 0.82432,-1.14215 0.35346,-3.25 -0.39929,-1.7875 -0.77255,-5.519828 -0.82945,-8.294062 -0.0608,-2.962562 -0.82563,-6.146186 -1.85347,-7.714817 -1.14047,-1.740528 -1.75,-4.621562 -1.75,-8.271679 0,-6.072505 -0.7133,-7.978024 -4.52672,-12.092776 -1.36989,-1.47813 -3.79961,-4.663594 -5.39938,-7.078809 -3.3826,-5.106801 -9.31001,-9.77527 -17.0739,-13.447529 -10.02914,-4.743704 -14.93368,-6.131265 -19.47279,-5.509112 -2.34724,0.321725 -4.56664,0.286017 -4.93201,-0.07935 -1.27723,-1.277231 -10.64077,-1.401931 -14.31116,-0.190591 -2.03625,0.672022 -4.39567,1.299074 -5.24316,1.393449 -0.84748,0.09437 -2.87332,0.728376 -4.50185,1.408892 -1.62853,0.680516 -4.01172,0.973577 -5.29599,0.651248 -2.8647,-0.718994 -5.05139,0.357515 -3.13369,1.54272 0.96341,0.595421 0.56714,1.104916 -1.45833,1.875 C 238.12135,31.524163 235.995,32 234.9258,32 c -1.0692,0 -3.35665,1.35 -5.08322,3 -1.72656,1.65 -3.69527,3 -4.37491,3 -0.67963,0 -2.75039,1.816382 -4.60168,4.036406 -1.8513,2.220023 -5.72849,6.604716 -8.61599,9.743764 -2.8875,3.139047 -5.25,6.02768 -5.25,6.419185 0,0.391505 -1.07013,2.288756 -2.37807,4.216113 -1.90172,2.802333 -2.5341,5.465372 -3.15697,13.294409 -0.76976,9.675438 -0.7597,32.385243 0.0156,35.290123 0.2202,0.825 0.8861,3.38133 1.47977,5.68074 0.79444,3.07699 1.98695,4.74162 4.51697,6.30525 1.91326,1.18247 4.40779,4.06725 5.62563,6.50574 1.20345,2.40967 3.44723,5.7598 4.98619,7.44474 3.10912,3.40406 7.31288,4.23131 6.67477,1.31353 z m 80.95399,-13.5 c 4.22887,-4.60426 10.11582,-15.63215 11.24283,-21.06092 1.45353,-7.001619 1.50355,-17.337676 0.10175,-21.024693 C 316.47812,81.127365 316,78.466171 316,76.750625 316,75.035078 315.11045,71.801873 314.02323,69.565724 311.36445,64.097302 302.26909,53 300.44594,53 c -0.80479,0 -3.32688,-1.35 -5.60464,-3 -2.27776,-1.65 -4.9473,-3 -5.93232,-3 -0.98502,0 -2.06906,-0.45 -2.40898,-1 -0.33992,-0.55 -3.26492,-1 -6.5,-1 -3.23508,0 -6.12319,-0.390312 -6.41802,-0.86736 -1.74429,-2.822317 -17.76509,-1.608365 -24.53814,1.85934 -1.94911,0.997917 -5.23581,2.52781 -7.30377,3.399763 C 233.83851,52.723424 225.35169,63.039614 220.67291,75 c -2.81417,7.1939 -3.30274,19.493484 -1.09792,27.64016 2.54467,9.40243 5.32431,14.28418 10.29833,18.08651 4.62417,3.53488 4.74701,3.51721 13.12668,-1.88876 2.46528,-1.59042 10.12523,-3.52703 15,-3.79235 14.93136,-0.81267 33.83708,4.2335 38.95217,10.3968 1.88541,2.27179 6.36851,1.91769 8.76575,-0.69236 z M 316,118.68643 c 0,-0.51223 -0.675,-0.37112 -1.5,0.31357 -0.825,0.68469 -1.48569,1.97729 -1.4682,2.87244 0.0267,1.36732 0.26656,1.31719 1.5,-0.31357 0.80751,-1.06762 1.4682,-2.36022 1.4682,-2.87244 z m 5,-6.74545 C 321,111.42344 320.55,111 320,111 c -0.55,0 -1,0.70156 -1,1.55902 0,0.85746 0.45,1.2809 1,0.94098 0.55,-0.33992 1,-1.04148 1,-1.55902 z m 3.44364,-12.251991 c 0.87944,-4.296056 1.33783,-8.233556 1.01865,-8.75 -1.28134,-2.073261 -2.29691,-0.698545 -2.81536,3.811011 -0.5708,4.964908 -1.29054,10.04603 -1.66438,11.75 -0.43872,1.9997 0.003,2.91534 0.93978,1.95 0.50728,-0.5225 1.64187,-4.46495 2.52131,-8.761011 z M 329,101.05902 c 0,-0.51754 -0.45,-1.219101 -1,-1.55902 -0.55,-0.339919 -1,0.08352 -1,0.94098 0,0.85746 0.45,1.55902 1,1.55902 0.55,0 1,-0.42344 1,-0.94098 z M 299,23 c 0,-0.55 -0.47656,-1 -1.05902,-1 -0.58246,0 -0.7809,0.45 -0.44098,1 0.33992,0.55 0.81648,1 1.05902,1 C 298.80156,24 299,23.55 299,23 Z"/>
</svg>
