<?xml version="1.0" encoding="utf-8"?>

<svg xmlns="http://www.w3.org/2000/svg" version="1.1" viewBox="0 0 73 109">











	<path d="m 22.54623,98.439606 c -6.044477,-3.135912 -7.332957,-8.743789 -3.003697,-13.073049 2.269542,-2.269541 3.06279,-2.47098 7.387981,-1.876114 3.270285,0.449779 5.51724,0.246878 6.911988,-0.624157 1.136598,-0.709817 2.322599,-1.034518 2.635558,-0.721559 1.058257,1.058257 -0.573884,3.577904 -3.0478,4.705095 -1.352844,0.616397 -2.97532,2.252349 -3.605503,3.63545 C 29.194574,91.868372 28.076202,93 27.339485,93 26.602768,93 26,93.464123 26,94.031385 c 0,1.538714 2.845726,2.337119 4.262735,1.195963 0.680496,-0.548021 2.715013,-1.312469 4.521149,-1.698773 3.598639,-0.769691 5.857413,-3.485061 6.793833,-8.167158 C 42.621174,80.144132 40.550212,79.144415 29.564485,79.562259 20.11429,79.9217 17.745276,79.216776 19.856071,76.673424 21.350774,74.872416 23.076292,70 22.219397,70 c -0.402105,0 -1.764725,2.253088 -3.028044,5.006862 L 16.89441,80.013724 14.47863,78.256862 C 11.363084,75.9911 11.342336,73.200542 14.432302,72.025739 16.636619,71.187659 26,58.384282 26,56.208205 26,55.714178 25.035027,54.452731 23.855616,53.404988 17.628212,47.872802 15.05186,32.885518 18.879664,24.45863 25.777568,9.2729325 52.263653,8.7793498 58.628879,23.717881 c 3.700132,8.683833 -0.262822,18.521071 -8.565068,21.26106 -2.992195,0.987513 -5.035094,2.579484 -7.003506,5.457627 -4.57611,6.691027 -6.344811,10.678926 -5.230501,11.793236 0.666666,0.666666 1.57777,-0.121634 2.733311,-2.364902 3.185647,-6.184341 6.62893,-9.980923 8.764689,-9.663993 2.919009,0.433159 3.220966,2.639116 0.503478,3.678175 -2.724577,1.04177 -4.661078,3.171664 -7.653376,8.417695 -1.999125,3.50482 -2.054706,4.062318 -0.722807,7.25 C 44.197882,76.111182 49,73.212459 49,64.992417 c 0,-3.336901 0.325374,-4.076404 1.678887,-3.815741 0.923388,0.177828 1.598388,0.660824 1.5,1.073324 C 52.080499,62.6625 52,66.853787 52,71.56397 v 8.56397 l -3.25,-0.31397 c -3.082664,-0.297804 -3.265628,-0.126795 -3.553528,3.321345 -0.246653,2.954125 0.200224,4.031566 2.384859,5.75 C 49.059943,90.048392 51.307473,91 52.575842,91 55.083004,91 57.08722,88.862407 55.177051,88.225684 54.529673,88.009891 54,86.745833 54,85.416667 54,83.534368 54.529137,83 56.393011,83 c 4.036356,0 4.96209,5.644899 1.494415,9.112574 -2.653238,2.653238 -7.997153,2.047319 -11.667999,-1.322973 -1.781255,-1.635414 -2.624776,-1.921893 -2.952253,-1.002654 -0.90666,2.545026 -5.64146,7.405375 -8.178507,8.395371 -4.372019,1.70603 -9.545429,1.812155 -12.542437,0.257288 z M 35.194009,66.794009 c -0.597465,-0.597465 -1.767693,0.202915 -3.164246,2.164193 -1.784617,2.506263 -1.97901,3.398025 -0.998317,4.579688 1.029435,1.240393 1.518937,0.905597 3.164246,-2.164193 1.226576,-2.288525 1.595782,-3.982223 0.998317,-4.579688 z m 3.224204,7.599002 c 1.84646,-0.708553 2.089472,-2.961211 0.430083,-3.986769 -0.633437,-0.391486 -1.758437,0.117965 -2.5,1.132112 -2.304527,3.151629 -1.520764,4.232531 2.069917,2.854657 z M 33.361626,53.5 c 0.316583,-0.825 0.187873,-1.5 -0.286022,-1.5 -0.473895,0 -1.120648,0.675 -1.43723,1.5 -0.316583,0.825 -0.187873,1.5 0.286022,1.5 0.473895,0 1.120648,-0.675 1.43723,-1.5 z m -1.808758,-5 C 33.003315,46.025 34.597284,44 35.095022,44 36.321344,44 36.24725,46.729157 35,47.5 c -0.55,0.339919 -1,1.366278 -1,2.280797 0,1.044597 0.882122,0.375392 2.372757,-1.800049 2.365363,-3.45202 2.366921,-3.473702 0.5,-6.956971 C 35.842741,39.10199 35,36.960454 35,36.264809 c 0,-1.674168 -1.082324,-1.595876 -3.747815,0.271107 -1.539263,1.078142 -2.389095,3.015445 -2.851337,6.5 C 28.038668,45.766162 27.398457,48 26.978158,48 25.558688,48 25,44.870188 25,36.918213 c 0,-8.579798 -0.163654,-8.371549 6.246875,-7.949137 1.510781,0.09955 3.933967,-0.752766 5.384858,-1.894037 3.319942,-2.611467 6.386252,-2.635333 9.641138,-0.07504 1.398423,1.1 3.484109,2 4.634858,2 2.832352,0 2.660689,2.19405 -0.629631,8.047385 -1.497046,2.663179 -2.430959,5.133088 -2.075361,5.488686 2.165349,2.165348 8.993513,-5.218632 9.015129,-9.748965 0.02504,-5.248321 -1.419867,-8.437594 -5.428528,-11.982112 -7.325117,-6.476978 -17.526951,-6.431271 -24.953541,0.1118 C 18.771169,28.021996 17.8479,40.316684 24.74673,48.735797 26.668537,51.081109 28.392747,53 28.578308,53 c 0.185561,0 1.524113,-2.025 2.97456,-4.5 z M 42.393011,38.418213 C 42.726855,37.548229 43,36.471374 43,36.025201 c 0,-1.177235 -2.761442,-2.053975 -4.440259,-1.409752 -1.143343,0.438742 -1.213329,1.050736 -0.339485,2.968615 1.2572,2.759253 3.278935,3.163406 4.172755,0.834149 z"/>
</svg>
