<?xml version="1.0" encoding="utf-8"?>
<!-- Created with Inkscape (http://www.inkscape.org/) -->
<svg xmlns="http://www.w3.org/2000/svg" xmlns:cc="http://creativecommons.org/ns#" xmlns:dc="http://purl.org/dc/elements/1.1/" xmlns:inkscape="http://www.inkscape.org/namespaces/inkscape" xmlns:rdf="http://www.w3.org/1999/02/22-rdf-syntax-ns#" xmlns:sodipodi="http://sodipodi.sourceforge.net/DTD/sodipodi-0.dtd" xmlns:svg="http://www.w3.org/2000/svg" height="390" id="svg2" version="1.1" viewBox="0 0 1117 390" width="1117" sodipodi:docname="illustration-the-story-of-the-four-little-children-who-went-round-the-world-16.svg" inkscape:version="0.92.4 (5da689c313, 2019-01-14)">
	<metadata id="metadata8">
		<rdf:RDF>
			<cc:Work rdf:about="">
				<dc:format>image/svg+xml</dc:format>
				<dc:type rdf:resource="http://purl.org/dc/dcmitype/StillImage"/>
				<dc:title/>
			</cc:Work>
		</rdf:RDF>
	</metadata>
	<defs id="defs6"/>
	<sodipodi:namedview bordercolor="#666666" borderopacity="1" gridtolerance="10" guidetolerance="10" id="namedview4" objecttolerance="10" pagecolor="#ffffff" showgrid="false" inkscape:current-layer="svg2" inkscape:cx="563.64747" inkscape:cy="195" inkscape:pageopacity="0" inkscape:pageshadow="2" inkscape:window-height="1010" inkscape:window-maximized="1" inkscape:window-width="1920" inkscape:window-x="0" inkscape:window-y="0" inkscape:zoom="1.0989592"/>
	<path d="m 847.94153,376.6082 c -1.30894,-1.30894 -13.68832,-2.45812 -33.94153,-3.1508 -7.425,-0.25394 -14.625,-0.61531 -16,-0.80303 -1.375,-0.18773 -4.58765,-0.41176 -7.13922,-0.49785 -4.96217,-0.16742 -9.71277,-2.96895 -8.46314,-4.9909 0.52383,-0.84758 1.57244,-0.71369 3.90911,0.49913 1.75629,0.91158 5.58614,1.79417 8.51078,1.96131 5.31486,0.30374 5.31639,0.30297 3.03265,-1.54629 -1.25668,-1.0176 -2.80293,-1.65139 -3.43611,-1.40842 -0.63317,0.24297 -1.37515,-0.41451 -1.64883,-1.46108 -0.39135,-1.49652 -1.73104,-2.03014 -6.27387,-2.49901 -3.17695,-0.32789 -6.21737,-1.03726 -6.75649,-1.57638 -0.64029,-0.64029 -1.77243,-0.61926 -3.26465,0.0606 -2.51627,1.14649 -9.72049,-1.05275 -13.79381,-4.21084 -1.19703,-0.92807 -3.30142,-1.93369 -4.67642,-2.23471 -1.375,-0.30102 -3.85,-1.01109 -5.5,-1.57794 -1.65,-0.56685 -5.39175,-1.56153 -8.315,-2.2104 -5.04289,-1.11937 -9.21607,-2.70811 -13.685,-5.20992 -2.05703,-1.15157 -4.68847,-2.44162 -12.5,-6.12806 -7.24003,-3.41673 -11.20365,-9.1264 -10.32145,-14.86823 0.33803,-2.20009 0.10165,-4.31534 -0.5731,-5.12836 -0.7078,-0.85285 -0.84399,-2.29376 -0.35495,-3.75542 1.08315,-3.23738 0.95842,-6.37818 -0.25182,-6.34077 -0.54927,0.017 -2.40628,0.37817 -4.12667,0.80266 -2.51003,0.61931 -3.87113,0.26748 -6.88955,-1.78087 C 693.4136,307.1487 691.3337,306 690.86045,306 690.3872,306 690,305.29667 690,304.43705 c 0,-1.78023 5.01756,-12.39824 5.91226,-12.51136 0.32326,-0.0409 1.71274,-0.25331 3.08774,-0.47209 8.24757,-1.31229 10.34143,-1.41513 11.37347,-0.55861 0.73552,0.61042 2.69692,0.54144 5.44257,-0.19141 3.57228,-0.9535 4.44876,-0.8989 5.22299,0.32532 1.66466,2.63222 1.03942,4.73459 -1.60547,5.39842 -1.71448,0.43031 -2.45713,1.21179 -2.23714,2.35412 0.28136,1.46093 1.85666,1.75209 10.81645,1.99913 10.01471,0.27612 10.71237,0.44012 15.48713,3.64056 2.75,1.84328 6.03981,3.88304 7.31068,4.5328 3.46882,1.77351 2.56683,5.23316 -1.47813,5.66949 -2.5315,0.27307 -3.86669,-0.35756 -6.65,-3.14087 -3.98833,-3.98833 -5.34255,-4.20463 -10.15973,-1.62278 -4.21678,2.26006 -3.60197,3.14023 2.19351,3.14023 2.41064,0 5.82314,0.74723 7.58333,1.66052 1.76019,0.91328 4.10034,1.79277 5.20034,1.95442 1.1,0.16165 3.0514,0.60208 4.33645,0.97872 2.03712,0.59708 2.29334,0.37873 2,-1.70442 -0.26624,-1.89066 0.17355,-2.46123 2.10752,-2.73421 1.34419,-0.18973 2.91919,0.26027 3.5,1 2.06509,2.63013 12.46004,9.99226 15.10872,10.70063 1.48063,0.39598 5.55843,0.2916 9.06177,-0.23197 4.85551,-0.72564 7.02531,-0.63576 9.12762,0.37811 3.92578,1.89326 4.56937,1.9963 16.51696,2.64443 7.78151,0.42213 11.16861,0.24374 12.23899,-0.64459 2.73573,-2.27046 0.38024,-3.09332 -8.33504,-2.91174 -7.05126,0.14691 -9.59323,-0.23306 -13.66299,-2.04237 -2.79741,-1.24365 -8.7444,-2.62487 -13.5,-3.13545 -18.6531,-2.00269 -23.15512,-2.87745 -23.73313,-4.61148 -0.3812,-1.1436 4.90331,-2.34622 12.37665,-2.81662 5.82282,-0.36651 6.64638,-1.05259 5.01078,-4.17424 -1.29815,-2.47762 -1.10446,-5.34844 0.96544,-14.30974 0.64874,-2.8086 0.65332,-2.99344 0.29703,-12 -0.14143,-3.575 -0.63005,-6.9955 -1.08583,-7.60111 -1.4052,-1.86714 -1.00415,-11.69158 0.58204,-14.25809 0.39386,-0.63728 0.45191,-1.99114 0.12899,-3.00857 -0.33747,-1.06326 0.0603,-2.38719 0.93545,-3.11349 C 782.34156,252.30157 783,250.14633 783,248.03497 v -3.72013 l -3.75,0.61749 c -2.0625,0.33962 -7.125,0.24389 -11.25,-0.21272 -4.125,-0.45662 -8.95425,-0.60995 -10.73168,-0.34075 -1.77742,0.2692 -3.51044,0.0384 -3.85115,-0.51288 -0.34071,-0.55128 -1.32548,-0.73141 -2.18837,-0.40028 -2.40668,0.92352 -3.2501,-1.52382 -1.61491,-4.68593 0.80731,-1.56118 1.20364,-3.26599 0.88073,-3.78847 -1.00841,-1.63164 1.4737,-4.9913 3.68757,-4.9913 1.16151,0 4.03391,1.575 6.38311,3.5 7.13606,5.84746 10.09679,4.68636 14.02471,-5.5 2.17643,-5.64417 1.71833,-5.20332 6.14895,-5.91746 3.17321,-0.51147 3.81049,-1.0341 4.07742,-3.3439 0.24417,-2.11292 -0.22161,-2.94221 -2.0411,-3.63398 -1.29661,-0.49297 -2.95658,-1.61819 -3.68882,-2.50048 C 778.28731,211.64127 776.21913,211 773.91274,211 c -2.79702,0 -4.12868,-0.53497 -4.89475,-1.96638 -1.2446,-2.32555 -0.2369,-10.05521 1.37352,-10.53578 0.60967,-0.18194 2.35007,-0.60298 3.86757,-0.93565 2.66277,-0.58374 2.70405,-0.68883 1.18258,-3.01089 -1.16357,-1.77583 -1.46913,-4.13571 -1.16657,-9.00958 0.33936,-5.46646 0.86754,-7.08116 3.06743,-9.37734 C 778.80413,174.63878 780,173.04765 780,172.62853 780,171.13284 789.40809,161 790.79681,161 c 0.77844,0 2.30027,-1.125 3.38185,-2.5 1.41422,-1.79789 2.92907,-2.5 5.39392,-2.5 1.88508,0 3.42742,0.47958 3.42742,1.06574 0,2.20198 -2.13457,4.93426 -3.85485,4.93426 -2.73719,0 -14.80849,13.12118 -15.98229,17.37233 -1.26125,4.5679 0.1944,4.76516 2.78695,0.37767 4.03087,-6.82162 7.67482,-10.99372 11.05019,-12.65178 1.925,-0.9456 4.4,-2.22736 5.5,-2.84835 1.1,-0.62098 3.24895,-1.39269 4.77544,-1.7149 1.52649,-0.32221 3.64025,-1.45066 4.69725,-2.50766 2.72871,-2.72871 9.74694,-4.50488 11.62887,-2.94302 2.19155,1.81882 -0.72851,4.52049 -5.75461,5.32419 -2.89899,0.46357 -5.18613,1.78573 -7.99266,4.62046 -2.16237,2.18408 -4.82383,3.97106 -5.91437,3.97106 -1.09632,0 -2.44948,1.02426 -3.02664,2.29098 -0.98203,2.15533 -3.16173,3.76742 -7.13016,5.27342 -1.69223,0.64218 -3.41422,4.13784 -2.49242,5.05963 1.06105,1.06106 5.67935,-0.95432 6.24085,-2.72344 0.33178,-1.04533 1.4178,-1.90059 2.41339,-1.90059 0.9956,0 2.37037,-0.675 3.05506,-1.5 0.68469,-0.825 2.26303,-1.5 3.50743,-1.5 1.3099,0 2.95226,-1.05263 3.90061,-2.5 0.90094,-1.375 2.52769,-2.5 3.61501,-2.5 C 815.11037,171 816,170.6404 816,170.20089 816,169.26402 821.88552,167 824.321,167 c 3.36377,0 1.7046,3.47927 -2.58117,5.4127 -3.52447,1.58998 -3.87447,1.97947 -2.07438,2.30847 3.53628,0.64631 3.64971,3.18201 0.28302,6.32697 -2.57009,2.40082 -3.46357,2.70652 -5.5699,1.90569 -3.28383,-1.24851 -8.09624,-1.21967 -8.88294,0.0532 -1.37062,2.21773 8.35986,3.18792 14.82652,1.4783 1.6142,-0.42675 3.75431,-0.28434 5,0.33272 1.19782,0.59335 3.07785,1.21837 4.17785,1.38892 1.33749,0.20738 2.10482,1.21821 2.31642,3.05155 0.29669,2.57047 0.0753,2.74145 -3.55,2.74145 -2.12653,0 -4.41765,-0.55123 -5.09138,-1.22496 -0.96661,-0.96661 -1.65008,-0.95947 -3.24068,0.0339 -1.10864,0.69236 -2.46712,0.97985 -3.01884,0.63887 -0.55172,-0.34098 -1.60138,-0.12347 -2.33258,0.48337 -0.73119,0.60684 -2.04427,0.82904 -2.91796,0.49378 -0.87368,-0.33527 -3.02485,0.10697 -4.78038,0.98274 -1.75553,0.87578 -4.48857,1.59232 -6.07342,1.59232 -2.40201,0 -2.73986,0.29123 -2.03015,1.75 0.46827,0.9625 0.76535,2.3125 0.66018,3 -0.10516,0.6875 -0.24746,1.72149 -0.31621,2.29775 -0.0688,0.57626 -1.25888,2.0986 -2.64474,3.38297 -2.14847,1.99113 -2.3717,2.72461 -1.51501,4.97787 1.19041,3.13102 1.74063,3.38318 9.48985,4.34911 5.22285,0.65103 6.02654,1.04506 6.53617,3.20456 0.49727,2.1071 1.50094,2.64843 6.95854,3.75303 3.5076,0.70993 6.61218,1.05606 6.89906,0.76917 1.35697,-1.35697 1.65266,-9.12281 0.42239,-11.09356 -0.72415,-1.16 -1.03328,-2.8475 -0.68696,-3.75 0.77344,-2.01553 4.00097,-2.16405 4.74756,-0.21846 0.30021,0.78234 1.58586,1.56984 2.85699,1.75 1.67554,0.23747 2.39817,1.08386 2.62757,3.07756 0.18111,1.574 0.92947,2.75 1.75,2.75 2.00006,0 1.78852,2.38036 -0.64858,7.29831 -1.14519,2.31093 -2.71032,6.24727 -3.47808,8.74743 -0.87273,2.842 -2.51335,5.37188 -4.37735,6.75 -3.29935,2.43931 -4.27371,2.62587 -6.82598,1.30692 -8.67051,-4.4807 -13.2642,-4.89158 -11.18155,-1.00012 0.58316,1.08965 1.07728,4.1742 1.09804,6.85456 0.03,3.86834 0.55029,5.3549 2.52298,7.20815 2.51738,2.36496 3.26235,2.53855 13.62168,3.17418 6.69319,0.41068 9.03874,1.87502 5.78911,3.61417 -1.17041,0.62639 -2.65066,0.81588 -3.28945,0.42109 -0.63878,-0.39479 -4.22051,-0.7531 -7.9594,-0.79625 l -6.79797,-0.0784 0.56852,7 c 0.31269,3.85 0.55745,7.77732 0.54392,8.72737 -0.0135,0.95006 1.27634,2.65373 2.86637,3.78593 2.92119,2.08007 3.0106,2.94311 0.78856,7.6117 -0.69709,1.46461 -0.66891,2.76496 0.0907,4.18426 1.60168,2.99276 1.34949,8.74052 -0.44899,10.23312 -0.94417,0.78359 -1.43326,2.49442 -1.25,4.37245 0.24999,2.56176 0.78492,3.14052 3.15307,3.41143 2.91889,0.33392 3.17755,1.66797 1.22004,6.29232 -0.77211,1.824 1.76202,2.84484 7.11894,2.86777 1.75504,0.008 3.46985,0.46487 3.81069,1.01635 0.83249,1.347 4.42509,-0.60019 5.19947,-2.81811 1.03959,-2.97755 6.62597,-8.1856 8.74503,-8.15279 2.31422,0.0358 5.55383,2.17953 5.55383,3.67504 0,0.5425 -1.62294,2.65745 -3.60654,4.69989 -1.98359,2.04244 -3.44609,3.84467 -3.25,4.00494 1.11239,0.9092 7.55972,2.58833 9.93838,2.58833 3.73054,0 4.27682,-2.21181 2.35586,-9.53868 -1.30786,-4.98843 -2.44809,-12.17546 -3.80148,-23.96132 -0.12632,-1.1 0.24361,-4.25 0.82205,-7 0.57845,-2.75 0.89967,-8.27205 0.71384,-12.27121 -0.33538,-7.21712 -0.36332,-7.28184 -3.755,-8.69898 C 848.22572,258.77854 847.9816,257 851.93261,257 c 3.16924,0 4.13221,-1.57523 4.2868,-7.01234 0.10931,-3.84447 -0.52871,-4.43596 -3.07179,-2.84778 -1.70451,1.06449 -2.64134,0.99511 -5.59738,-0.41453 -3.30141,-1.57434 -3.55024,-2.013 -3.55024,-6.25883 0,-2.51121 0.73728,-6.00599 1.63841,-7.76618 1.86037,-3.63391 8.77724,-12.40479 11.66316,-14.78939 1.87596,-1.55007 1.85575,-1.64204 -0.82408,-3.75 C 854.96653,212.97243 852.94607,212 851.98759,212 c -0.95849,0 -2.23436,-0.59241 -2.83528,-1.31647 -1.35236,-1.6295 -1.81569,-6.80114 -0.76206,-8.50595 0.43006,-0.69586 0.25601,-1.89888 -0.38678,-2.6734 -0.67042,-0.80781 -0.8677,-2.35659 -0.46271,-3.63261 0.3883,-1.22342 0.82677,-4.28251 0.97437,-6.79798 0.14761,-2.51548 0.31709,-4.86867 0.37662,-5.22933 0.21838,-1.32293 13.46778,-6.86492 15.14187,-6.33359 1.9462,0.6177 2.84603,4.07463 2.6002,9.98933 -0.11921,2.86838 0.37623,4.44748 1.7513,5.58175 1.83789,1.51605 1.84895,1.78306 0.26621,6.42814 -2.38993,7.01405 -2.15781,8.25165 1.86273,9.93154 1.93273,0.80754 3.75573,2.27608 4.05111,3.26342 0.29538,0.98733 1.24558,3.14515 2.11154,4.79515 1.20887,2.30336 1.65528,7.01788 1.92242,20.30266 0.19136,9.51646 0.61139,17.72896 0.93341,18.25 0.32202,0.52104 2.02441,0.94734 3.78308,0.94734 1.75867,0 4.61857,0.40753 6.35533,0.90563 2.66603,0.76461 3.48683,0.55532 5.27116,-1.34401 1.25797,-1.33905 2.05901,-3.42591 1.97898,-5.15563 -0.0739,-1.5983 0.42192,-5.47476 1.10192,-8.61436 1.1318,-5.22557 1.05625,-6.09159 -0.89332,-10.23911 -1.17133,-2.4919 -2.16132,-5.54813 -2.19998,-6.79162 -0.0386,-1.2435 -0.40159,-3.10414 -0.80653,-4.13476 -1.06158,-2.70188 0.84105,-14.81351 2.6511,-16.87614 0.84463,-0.9625 2.31781,-1.75 3.27372,-1.75 0.95591,0 2.00449,-0.69441 2.33017,-1.54312 0.46597,-1.21428 1.02153,-1.31333 2.60699,-0.46482 1.10816,0.59307 2.01484,1.57337 2.01484,2.17845 0,0.60508 1.1068,2.1259 2.45956,3.37959 1.35275,1.25369 2.72955,3.55529 3.05956,5.11467 1.98803,9.39413 6.15952,7.31414 6.94191,-3.46137 0.2298,-3.16501 0.83047,-6.86805 1.33482,-8.22898 0.50434,-1.36093 0.74513,-2.95883 0.53508,-3.55089 -0.43411,-1.2236 4.0613,-6.42353 5.55323,-6.42353 2.05849,0 5.19472,5.83755 4.53927,8.44908 -0.71189,2.83637 0.63787,3.38691 2.57657,1.05092 1.90203,-2.2918 3.29,-1.7916 2.60474,0.93871 -0.67303,2.68158 0.84028,4.44992 1.75909,2.05555 0.31537,-0.82184 1.48752,-1.49426 2.60479,-1.49426 3.76177,0 1.8045,7.30065 -3.8874,14.5 -2.40593,3.04313 -4.08122,6.30777 -4.08122,7.9531 0,0.81413 -1.51552,2.99575 -3.36783,4.84806 -3.7447,3.74471 -5.83501,8.95267 -5.8266,14.51686 0.007,4.48704 -1.41444,6.4409 -4.0716,5.59755 -2.90233,-0.92117 -3.42817,0.77007 -2.58824,8.32457 0.41336,3.71792 0.77468,10.40084 0.80292,14.85093 0.0282,4.45009 0.72148,10.30009 1.54053,13 2.14735,7.07856 1.97289,12.09127 -0.46626,13.39666 -2.93913,1.57298 -3.76878,3.76659 -4.4514,11.76961 -0.9033,10.59012 1.67976,13.75261 12.17848,14.91039 3.76739,0.41546 4.25,0.23644 4.25,-1.57647 0,-1.12484 1.125,-2.78228 2.5,-3.68322 1.375,-0.90093 2.5,-2.23475 2.5,-2.96403 0,-2.20089 2.01503,-2.74039 3.89175,-1.04197 0.97115,0.87888 2.00861,1.59796 2.30546,1.59796 0.29685,0 0.56435,-2.5875 0.59445,-5.75 0.0588,-6.1785 -1.59198,-9.25 -4.9714,-9.25 -1.11214,0 -2.28655,-1.09623 -2.89837,-2.70545 -0.88253,-2.32123 -0.7015,-2.95216 1.27475,-4.44264 1.26685,-0.95546 2.36185,-2.77551 2.43333,-4.04455 0.0715,-1.26905 0.68904,-5.79724 1.37235,-10.06264 1.06874,-6.67141 1.02866,-8.19656 -0.28682,-10.91272 -0.97244,-2.00786 -1.21321,-3.73536 -0.6613,-4.74473 C 941.48467,260.64227 945,252.10861 945,250.65351 945,249.74408 944.325,249 943.5,249 c -0.825,0 -1.5,-0.40588 -1.5,-0.90196 0,-0.49608 -1.6875,-1.79081 -3.75,-2.87719 -3.08442,-1.62464 -3.71288,-2.46783 -3.54083,-4.75069 0.23972,-3.18092 4.89734,-8.55839 6.78525,-7.83393 1.68402,0.64622 5.50558,-4.32098 5.50558,-7.15608 0,-1.32823 1.08117,-2.95854 2.63888,-3.97919 2.59443,-1.69994 2.78105,-1.65557 11.08232,2.63499 l 8.44346,4.36405 -0.45997,3.54717 c -0.25298,1.95094 -1.97753,5.70949 -3.83233,8.35232 l -3.37236,4.80516 3.7879,3.28641 c 4.07345,3.53417 5.60821,7.28684 5.66837,13.8599 0.0459,5.01282 -2.13826,18.65769 -3.26529,20.39904 -0.44496,0.6875 -0.46035,1.8125 -0.0342,2.5 0.42614,0.6875 0.94105,3.45008 1.14425,6.13907 0.28602,3.78486 -0.1015,5.52608 -1.71578,7.70951 -2.70126,3.65365 -2.62835,5.04256 0.41476,7.90142 1.45838,1.37008 2.5,3.46325 2.5,5.02383 0,1.47137 1.30553,4.61909 2.90117,6.99495 3.18914,4.74851 2.19073,4.47029 18.09883,5.04356 l 9.49999,0.34235 -0.1981,-8.45234 C 1000.193,311.30356 999.62517,304.8 999.04009,301.5 c -0.58507,-3.3 -1.29698,-8.02338 -1.58201,-10.4964 -0.63571,-5.51572 -3.99966,-12.72333 -6.27536,-13.44561 -0.92597,-0.29389 -2.80617,-2.90216 -4.17823,-5.79617 -2.102,-4.4336 -2.48724,-6.67843 -2.44755,-14.26182 0.0259,-4.95 0.43793,-12.375 0.9156,-16.5 1.25861,-10.86897 1.21784,-18.26768 -0.10309,-18.70917 -0.62912,-0.21027 -1.42538,1.19378 -1.79531,3.16565 -0.46884,2.49914 -1.19519,3.54352 -2.46447,3.54352 -2.84976,0 -4.97827,-3.11254 -4.44502,-6.5 1.07749,-6.84471 1.03376,-6.96777 -2.66465,-7.49811 -3.47299,-0.49802 -3.50665,-0.55153 -4.36147,-6.9338 -0.76445,-5.7075 -0.65182,-6.58532 1,-7.79405 3.01321,-2.20494 7.64132,-1.20648 9.15908,1.97596 1.59221,3.33855 2.7585,3.47441 4.29217,0.5 2.74394,-5.32163 9.10866,-9.75 14.01329,-9.75 2.29163,0 3.48583,4.03119 2.01063,6.78759 -0.91785,1.71497 -0.68324,2.0485 1.7887,2.54288 3.2638,0.65277 4.775,3.4277 2.8843,5.29645 -0.7077,0.69951 -2.8019,1.53532 -4.6539,1.85736 -1.85189,0.32204 -4.69623,1.27284 -6.32072,2.11289 -2.34622,1.21328 -2.71776,1.81155 -1.80673,2.90927 1.75201,2.11105 2.04131,23.18423 0.40489,29.49282 -0.75103,2.89526 -1.09291,5.70517 -0.75975,6.24423 0.33316,0.53906 -0.0106,1.36107 -0.76402,1.82667 -1.09088,0.67421 -1.11697,1.09934 -0.12811,2.0882 0.6829,0.6829 1.24164,3.12168 1.24164,5.41952 0,8.20602 5.07935,16.51193 9.5724,15.65304 1.5403,-0.29446 3.2436,0.19762 4.4439,1.28382 1.4509,1.31308 2.2823,1.48234 3.267,0.66512 0.7264,-0.60289 2.3099,-0.83751 3.5187,-0.52138 1.5655,0.40938 2.198,0.12897 2.198,-0.97446 0,-1.85912 -3.2432,-3.05899 -5.948,-2.20052 -3.5335,1.12149 -6.2847,-7.18153 -4.6746,-14.1078 0.8372,-3.60155 7.32,-9.31349 10.8228,-9.53586 1.2649,-0.0803 4.2123,0.39022 6.5498,1.04562 l 4.25,1.19163 v 5.8266 c 0,4.3124 -0.5198,6.48735 -2,8.36918 -1.1264,1.43198 -2,4.05678 -2,6.00913 0,1.9066 -0.6893,5.42032 -1.5319,7.80827 -1.2119,3.4351 -1.2924,4.9196 -0.3855,7.10906 0.6449,1.55704 0.8577,4.30536 0.4865,6.284 -0.6361,3.39089 -0.5518,3.51667 2.3571,3.51667 3.2931,0 13.4018,-4.10372 14.5048,-5.88836 0.3779,-0.6114 2.1455,-1.11164 3.928,-1.11164 4.1653,0 5.6324,-1.53776 5.6765,-5.95 0.02,-1.9525 0.6413,-7.54183 1.3818,-12.42074 1.2521,-8.24942 1.209,-9.26503 -0.6153,-14.5 -1.079,-3.09609 -2.3758,-6.05676 -2.8819,-6.57926 -0.506,-0.5225 -0.9201,-1.73448 -0.9201,-2.6933 0,-0.95881 -1,-2.44371 -2.2222,-3.29978 -1.7536,-1.22828 -2.2304,-2.55816 -2.2609,-6.30671 -0.038,-4.65057 -0.1002,-4.74355 -2.9673,-4.43265 -1.6108,0.17465 -3.8558,-0.11743 -4.9891,-0.64908 -1.1333,-0.53165 -3.5068,-1.50994 -5.2745,-2.17397 -3.5645,-1.339 -7.286,-6.72849 -7.286,-10.55167 0,-3.24559 1.805,-3.09111 6.8857,0.5893 4.6422,3.36283 9.4988,4.77282 10.5547,3.06432 0.3756,-0.60777 0.7677,-4.0181 0.8713,-7.57852 0.1586,-5.45349 0.5822,-6.85472 2.6883,-8.893 3.396,-3.28662 6.4202,-4.06191 8.3432,-2.13887 1.3982,1.39817 1.4013,1.97798 0.031,5.78394 -0.8378,2.32649 -1.7652,6.36331 -2.0608,8.9707 -0.4836,4.26572 -0.3088,4.82527 1.7442,5.58474 1.2549,0.46422 3.8929,0.56541 5.8622,0.22487 1.9693,-0.34055 4.1431,-0.54744 4.8306,-0.45975 0.6875,0.0877 2.375,0.21568 3.75,0.28443 1.9306,0.0965 2.5,0.6665 2.5,2.50256 0,3.31008 -2.2892,4.86802 -7.0564,4.80222 -7.3943,-0.10204 -9.7905,5.33422 -6.483,14.70841 0.8033,2.27681 1.4475,4.36526 1.4317,4.64101 -0.016,0.27575 0.533,3.01231 1.2198,6.08123 0.9757,4.35961 0.9906,6.8297 0.068,11.29492 -0.6492,3.14327 -1.1947,9.06295 -1.2122,13.15485 -0.038,8.86546 -1.353,11.1769 -6.594,11.58965 -2.0019,0.15766 -5.4925,1.26919 -7.757,2.47007 -2.2645,1.20088 -5.2422,2.78739 -6.6172,3.52559 -1.375,0.73819 -3.2431,1.34494 -4.1512,1.34833 -0.9082,0.003 -2.5805,1.58116 -3.7163,3.50616 -1.1358,1.925 -2.474,3.5 -2.9738,3.5 -1.2361,0 -2.1859,5.18008 -1.4593,7.95867 0.5117,1.95664 1.0584,2.18004 4.1195,1.68329 4.6478,-0.75423 14.5419,-6.92863 18.987,-11.84885 3.3243,-3.67967 7.9182,-6.79311 10.0231,-6.79311 1.8506,0 3.4192,6.18179 3.7423,14.74826 0.1816,4.81346 0.3523,9.08924 0.3794,9.50174 0.1133,1.72406 1.6512,0.54637 2.8637,-2.1929 0.7165,-1.61859 3.0763,-5.17051 5.2441,-7.89316 3.1774,-3.99062 3.9415,-5.76455 3.9415,-9.15072 0,-3.35946 -0.4004,-4.30518 -2,-4.72347 -3.1757,-0.83047 -2.376,-4.0042 1.5258,-6.05525 1.2852,-0.67558 2.6318,-0.72578 3.6834,-0.13733 1.052,0.58876 1.8864,0.5571 2.2843,-0.0867 0.3448,-0.55784 -0.5252,-1.45227 -1.9333,-1.98763 -3.1083,-1.18178 -3.1635,-2.14515 -0.4447,-7.76157 1.6446,-3.39728 2.5907,-4.30236 4.25,-4.06572 1.6269,0.23202 2.2124,1.12292 2.4622,3.74625 0.1802,1.89301 0.9677,4.35564 1.75,5.47251 0.7822,1.11686 1.4223,2.80398 1.4223,3.74914 0,2.77918 1.9801,3.20388 4.3885,0.94128 3.923,-3.68549 6.4297,-1.91053 3.9774,2.81633 -1.7891,3.44851 0.074,5.89586 2.6875,3.53053 0.9717,-0.87935 2.0375,-2.67771 2.3685,-3.99636 0.3309,-1.31865 1.5338,-2.8964 2.6731,-3.50611 4.464,-2.38908 7.8064,4.89119 4.4473,9.687 -0.8017,1.14464 -3.8392,3.13091 -6.75,4.41393 -5.2396,2.30953 -5.2624,2.33867 -2.2923,2.92477 2.8672,0.56579 2.9894,0.79923 2.7611,5.27292 -0.1787,3.50085 0.089,4.55505 1.0623,4.18161 2.4479,-0.93933 3.7758,3.73802 2.8042,9.87698 -0.2936,1.85538 -6.7557,6.69363 -8.9402,6.69363 -1.3017,0 -3.1706,0.99264 -4.153,2.20587 -1.5947,1.96936 -2.166,2.08929 -5.3289,1.11858 -1.9485,-0.598 -3.9168,-0.73212 -4.3741,-0.29805 -0.4573,0.43408 -3.3064,1.04073 -6.3314,1.34812 -3.025,0.30739 -6.85,0.76196 -8.5,1.01016 -4.2167,0.63431 -6.5,-0.20631 -6.5,-2.39305 0,-1.03048 -0.45,-2.15171 -1,-2.49163 -0.55,-0.33992 -1,-0.10398 -1,0.52432 0,0.62829 -0.5625,0.93138 -1.25,0.67354 -0.6875,-0.25784 -3.188,0.63858 -5.5567,1.99205 -3.4108,1.94893 -4.6043,2.21387 -5.7373,1.2736 -0.7868,-0.65299 -2.0731,-0.9407 -2.8584,-0.63934 -0.7853,0.30136 -4.2785,0.0952 -7.7627,-0.45823 -3.4842,-0.55339 -9.7099,-1.22661 -13.8349,-1.49606 -4.125,-0.26945 -8.8047,-0.9129 -10.3992,-1.42989 C 1002.7703,335.69806 996,335.73639 996,337 c 0,0.55 1.2375,1.03163 2.75,1.07029 2.8331,0.0724 7.5323,1.66464 5.75,1.94829 -0.55,0.0875 -3.1293,0.0862 -5.73178,-0.003 -5.16385,-0.17683 -8.76822,0.6339 -8.76822,1.97224 0,0.96515 3.50506,1.85091 9.73342,2.45973 2.32838,0.2276 4.60198,0.64158 5.05238,0.91995 0.4504,0.27838 6.1954,0.77207 12.7666,1.0971 11.5572,0.57164 18.4476,1.99683 18.4476,3.81563 0,0.48322 -1.2375,0.61273 -2.75,0.28781 -5.2152,-1.12035 -40.25,-1.46521 -40.25,-0.3962 0,0.55841 0.90948,1.25312 2.02108,1.54381 1.49411,0.39072 1.74819,0.85733 0.97447,1.7896 -0.75909,0.91465 -0.60273,1.4314 0.56917,1.8811 2.2537,0.86483 3.78938,-0.25493 2.49251,-1.8175 C 997.71143,351.94737 998.7137,351 1001.7751,351 c 2.0993,0 2.3545,0.34748 1.8199,2.47758 -0.5305,2.11345 -0.2157,2.56104 2.1416,3.04547 1.5199,0.31233 4.3906,0.99742 6.3794,1.52242 1.9888,0.52499 5.0263,0.95453 6.75,0.95453 1.7237,0 3.134,0.4125 3.134,0.91667 0,1.63074 -2.4208,1.79381 -5.794,0.39029 -1.8117,-0.75382 -3.7014,-1.11881 -4.1993,-0.81107 -1.0973,0.67815 -17.3148,0.69697 -21.5067,0.025 -1.65,-0.26452 -10.65,-0.5404 -20,-0.61308 -12.9285,-0.10049 -17.88857,-0.50639 -20.71011,-1.6948 -4.3416,-1.82863 -5.60189,-4.14604 -3.20709,-5.89716 1.36217,-0.99605 2.0978,-0.9525 3.77693,0.22361 2.74285,1.92117 6.64027,1.89804 6.64027,-0.0394 0,-0.825 -0.43179,-1.5 -0.95953,-1.5 -0.52774,0 -2.00791,-1.13063 -3.28926,-2.5125 -2.14587,-2.31423 -3.03686,-2.51636 -11.29047,-2.56126 -4.92841,-0.0268 -11.21074,-0.44233 -13.96074,-0.92337 -7.64292,-1.33692 -23.288,-3.1982 -29.8908,-3.55606 -5.42376,-0.29397 -8.19189,-1.69497 -7.03798,-3.56205 0.87431,-1.41466 8.04465,-1.92979 13.16919,-0.9461 5.24993,1.00776 8.25959,0.62674 8.25959,-1.04565 0,-0.49115 -1.6875,-0.90375 -3.75,-0.91687 -2.0625,-0.0131 -5.37736,-0.40216 -7.36635,-0.86454 -1.98899,-0.46238 -4.28719,-0.46527 -5.1071,-0.006 -2.47762,1.38655 -12.89836,1.18243 -19.27655,-0.37758 -3.3,-0.80713 -9.15407,-1.46539 -13.00905,-1.46279 -5.11721,0.003 -8.3238,-0.59422 -11.88005,-2.21428 -4.46559,-2.03431 -5.0042,-2.0858 -6.4714,-0.61859 -1.31765,1.31765 -1.38152,1.95089 -0.36148,3.58424 0.68141,1.0911 0.86997,1.98383 0.41902,1.98383 -0.45096,0 -1.69227,0.79109 -2.75848,1.75797 -5.89134,5.34251 -13.96167,7.43975 -18.12686,4.71061 -1.3393,-0.87755 -3.41983,-1.51716 -4.6234,-1.42137 -1.20356,0.0958 -2.4133,0.0869 -2.6883,-0.0198 -0.275,-0.10669 -4.62397,-0.33113 -9.66438,-0.49876 -5.04041,-0.16763 -9.76541,-0.67876 -10.5,-1.13585 -0.73459,-0.4571 -2.311,-0.70513 -3.50313,-0.55118 -1.19213,0.15395 -4.11713,-0.26406 -6.5,-0.9289 -5.55629,-1.55024 -10.80699,-1.24577 -13.01767,0.75488 -0.95718,0.86623 -2.46478,1.29697 -3.35022,0.9572 -1.15846,-0.44454 -1.51229,-0.12803 -1.2618,1.12872 0.2753,1.38128 1.38832,1.74649 5.32264,1.74649 H 779.5 l 0.30988,4.29872 c 0.33377,4.63013 0.76902,4.98196 8.69012,7.02439 6.26023,1.61418 14.4114,3.00749 21.5,3.67506 11.71801,1.10355 17.08307,2.47452 16.7763,4.28697 -0.22619,1.33636 0.50905,1.57963 4.05405,1.34137 2.71565,-0.18252 4.95293,0.24887 6,1.15691 0.91831,0.79638 3.01965,1.76831 4.66965,2.15986 4.15595,0.9862 13.66165,8.47173 13.28526,10.46185 -0.28289,1.49573 -5.70241,2.84439 -6.84373,1.70307 z M 973.5,350.38752 c 1.65,-0.31652 3.1875,-0.7582 3.41667,-0.98151 0.72867,-0.71004 -12.67444,-0.43624 -14.58488,0.29795 -1.61342,0.62004 -1.53377,0.79089 0.66821,1.43319 1.375,0.40108 3.625,0.52597 5,0.27754 1.375,-0.24842 3.85,-0.71065 5.5,-1.02717 z m 15.38044,-7.93463 c 1.04499,-1.04498 -1.1519,-1.70499 -7.32443,-2.20046 C 977.1083,339.89541 975,340.0826 975,340.8345 c 0,2.152 11.95316,3.54568 13.88044,1.61839 z M 968.597,340.79434 c -0.91291,-0.51089 -2.4332,-0.74216 -3.37842,-0.51393 -1.3836,0.33407 -1.2313,0.61667 0.78142,1.44986 2.91062,1.20489 5.04678,0.43504 2.597,-0.93593 z m -216.73639,-6.4623 C 751.25259,333.59942 749.74179,333 748.50328,333 c -1.2385,0 -4.19838,-0.68678 -6.5775,-1.52618 -7.32351,-2.58389 -15.92172,-4.28941 -16.5445,-3.28173 -1.81295,2.93343 6.91292,6.89296 18.3676,8.33465 2.88689,0.36335 5.54308,1.13664 5.90265,1.71843 0.41083,0.66474 1.14812,0.38173 1.98417,-0.76163 0.98238,-1.3435 1.04122,-2.1679 0.22491,-3.1515 z M 919,335 c 0,-0.55 -0.19844,-1 -0.44098,-1 -0.24254,0 -0.7191,0.45 -1.05902,1 -0.33992,0.55 -0.14148,1 0.44098,1 0.58246,0 1.05902,-0.45 1.05902,-1 z m 107,-1 c 0,-0.55 -1.0125,-0.99311 -2.25,-0.98469 -1.8194,0.0124 -1.963,0.20082 -0.75,0.98469 1.9388,1.25292 3,1.25292 3,0 z m -45,-4.01167 c 0,-1.28712 -5.66239,-2.22139 -9.00873,-1.48641 -1.6548,0.36345 -2.81754,0.96171 -2.58387,1.32945 0.62454,0.9829 11.5926,1.1314 11.5926,0.15696 z M 988,330 c 0,-0.55 -1.4625,-0.95514 -3.25,-0.90032 -3.07927,0.0944 -3.11867,0.14174 -0.75,0.90032 3.5288,1.13012 4,1.13012 4,0 z m 50.155,-2.63373 c -0.6864,-3.71244 -2.0751,-4.37026 -5.3564,-2.53712 -3.6547,2.04168 -3.8561,3.27197 -0.7918,4.83514 3.012,1.53648 6.6085,0.19218 6.1482,-2.29802 z m 38.0436,1.78807 c 3.1342,-0.39499 5.986,-1.00565 6.3374,-1.35703 2.6256,-2.62555 3.3248,-16.3274 0.9553,-18.7205 -1.2165,-1.22861 -1.5514,-1.04881 -2.4502,1.3151 -0.5726,1.50606 -1.0511,3.04649 -1.0633,3.42319 -0.012,0.37669 -0.9123,1.8099 -2,3.1849 l -1.9778,2.5 -1.8536,-2.38164 -1.8536,-2.38163 -3.1881,5.88163 c -1.7534,3.2349 -3.4342,6.8589 -3.7351,8.05333 -0.4835,1.91933 -0.2172,2.11527 2.2916,1.68624 1.5614,-0.26699 5.4032,-0.80861 8.5374,-1.20359 z M 1049.3697,327.75 c 1.1189,-4.17503 0.6407,-8.51558 -1.1867,-10.77234 -1.567,-1.93518 -2.1262,-2.07844 -4.0642,-1.04125 -1.8742,1.00305 -2.1356,1.73053 -1.5751,4.38312 0.7502,3.55013 4.1833,9.68047 5.4212,9.68047 0.441,0 1.0732,-1.0125 1.4048,-2.25 z m -331.11579,0 c 0.58662,-1.74348 -0.30074,-4.75 -1.40193,-4.75 -1.28246,0 -2.17871,2.70616 -1.49035,4.5 0.69939,1.82259 2.31614,1.96234 2.89228,0.25 z m 293.16349,-1.61635 c 0.2945,-0.4765 -0.3455,-1.6636 -1.4222,-2.63802 -1.6013,-1.44915 -2.2342,-1.54221 -3.4764,-0.5112 -2.1242,1.76287 -1.8941,2.80418 0.7312,3.30984 1.2375,0.23835 2.5609,0.49465 2.941,0.56955 0.38,0.0749 0.9319,-0.25368 1.2264,-0.73017 z m -130.52516,-5.37137 c 0.45528,-1.23075 0.48697,-2.91825 0.0704,-3.75 -2.0904,-4.17408 -3.90288,-10.02222 -4.49769,-14.51228 -0.76802,-5.79753 -2.13446,-8.82231 -3.58147,-7.92801 -0.55887,0.34541 -2.53589,0.62801 -4.39338,0.62801 -4.12941,0 -4.54333,1.52889 -2.89661,10.69925 0.63202,3.51958 1.07053,8.01967 0.97448,10.0002 l -0.17463,3.60095 4.98649,0.21869 c 2.8838,0.12647 5.63213,0.86433 6.5176,1.7498 1.96278,1.96278 2.01156,1.95126 2.99478,-0.70661 z m 82.92212,-1.53701 c 0.20797,-2.15148 -0.80778,-5.53645 -3.00138,-10.00209 -3.38392,-6.88883 -5.03916,-7.85401 -8.56298,-4.99313 -1.51924,1.23342 -1.67108,11.26359 -0.23297,15.38895 0.95101,2.72807 1.3567,2.91552 6.25,2.88788 5.16638,-0.0292 5.23697,-0.0709 5.54733,-3.28161 z M 891,320.98469 c -1.30251,-0.85505 -1.30942,-1.10727 -0.0525,-1.91576 1.25826,-0.80936 1.21391,-2.86829 -0.33932,-15.75 -1.8449,-15.3007 -1.75481,-17.18471 1.51185,-31.61467 1.71687,-7.58402 0.84524,-8.99764 -5.62041,-9.11524 l -4.89472,-0.089 0.14806,20.13415 c 0.12533,17.0445 0.4418,20.95755 2.0623,25.5 3.43393,9.6257 5.62927,13.86613 7.17065,13.85054 1.34264,-0.0136 1.34423,-0.12683 0.0141,-1 z M 908.40455,317.5 c -0.27676,-11.59905 -1.28443,-14.58752 -4.64146,-13.76537 -4.01381,0.98299 -4.59889,2.09799 -4.28722,8.17025 0.47073,9.17131 1.05927,10.2586 5.35907,9.90042 3.57686,-0.29795 3.66276,-0.40156 3.56961,-4.3053 z m -97.45389,-6.4377 c 3.65126,-4.61009 3.48047,-9.0623 -0.34763,-9.0623 -1.19908,0 -3.8529,-0.85282 -5.89737,-1.89515 -2.22934,-1.13658 -3.95821,-1.50523 -4.31929,-0.92099 -0.35091,0.56778 -2.61048,0.69792 -5.41667,0.31197 -4.38217,-0.6027 -4.9604,-0.43966 -6.43786,1.81523 -2.3012,3.51208 -3.07753,9.32649 -1.49918,11.22829 1.00584,1.21196 3.14293,1.51547 9.65951,1.37184 4.60236,-0.10144 8.6544,0.10205 9.00454,0.45219 1.21004,1.21004 2.14765,0.62093 5.25395,-3.30108 z m -101.38639,-8.16629 c 0.37526,-0.60719 -0.51206,-2.29469 -1.97184,-3.75 -2.24574,-2.23885 -2.80092,-2.4152 -3.60797,-1.14601 -1.50036,2.35946 -1.14698,4.81088 0.76554,5.31067 3.07857,0.80452 4.116,0.71516 4.81427,-0.41466 z m 102.61485,-12.12238 c 1.7347,-0.57824 1.21738,-5.67802 -0.80236,-7.90981 -1.41224,-1.56051 -3.06716,-1.74212 -13.08583,-1.43602 -6.30803,0.19272 -11.91476,0.79603 -12.4594,1.34067 -0.58225,0.58225 -0.70106,2.91878 -0.28836,5.67086 0.56937,3.79679 1.00921,4.55345 2.32937,4.00718 3.89298,-1.61086 5.28337,-1.61555 6.44877,-0.0218 1.12706,1.54135 1.42467,1.47456 3.56073,-0.79917 2.23576,-2.37986 5.11796,-2.57546 5.11796,-0.34732 0,0.58535 0.75971,1.90374 1.68825,2.92977 1.64036,1.81257 1.75233,1.79639 3.94674,-0.57017 1.24216,-1.33962 2.83702,-2.62852 3.54413,-2.86422 z m 100.23083,-5.61139 c -0.9133,-5.71147 -2.40036,-5.26352 -1.95123,0.58776 0.46786,6.09508 0.37307,5.81821 1.57904,4.61224 0.61422,-0.61422 0.76613,-2.73648 0.37219,-5.2 z M 806.5,276.12011 c 2.86124,-0.61351 3.00542,-0.8917 3.11728,-6.01441 0.0922,-4.2225 -0.33128,-5.8197 -1.98025,-7.46867 C 805.37649,260.37649 804.27447,256 805.96579,256 806.53461,256 807,255.325 807,254.5 c 0,-2.29769 -2.4386,-1.78868 -5.34241,1.11513 -1.50634,1.50635 -3.24973,2.37162 -4.11186,2.04079 -1.73644,-0.66633 -7.69332,1.61206 -9.31105,3.5613 -1.80295,2.17243 -2.68478,11.53552 -1.24932,13.26514 0.68269,0.82259 1.56632,1.29472 1.96363,1.04917 0.3973,-0.24555 2.03382,-0.0543 3.63669,0.42505 3.38423,1.01204 9.61557,1.08527 13.91432,0.16353 z M 912,275 c 0,-1.1 -0.45,-2 -1,-2 -0.55,0 -1,0.9 -1,2 0,1.1 0.45,2 1,2 0.55,0 1,-0.9 1,-2 z m 51.18333,-13.21667 c -0.71756,-0.71756 -1.18333,-0.7766 -1.18333,-0.15 0,1.33478 1.18261,2.51739 1.85,1.85 0.28417,-0.28416 -0.0158,-1.04916 -0.66667,-1.7 z M 798.64326,251.48727 c 0.31927,-0.83201 0.0329,-2.17255 -0.63639,-2.97899 -1.53231,-1.84633 -4.52642,-0.45351 -5.28834,2.46005 -0.44501,1.70175 -0.0542,2.03167 2.40647,2.03167 1.69985,0 3.18238,-0.63744 3.51826,-1.51273 z m 60.13896,-17.35799 C 859.85831,231.32469 866.79502,224 868.37495,224 c 0.75909,0 1.93625,0.67005 2.61591,1.48899 1.78082,2.14575 3.28317,0.74158 2.51226,-2.34808 C 872.66974,219.80089 870.17853,217 868.04118,217 c -2.03533,0 -7.25337,5.3809 -9.45491,9.75 -0.9007,1.7875 -2.06452,3.25 -2.58627,3.25 -0.52175,0 -1.64675,1.35 -2.5,3 l -1.55136,3 h 3.0579 c 2.06501,0 3.29097,-0.60742 3.77568,-1.87072 z m 47.75234,-9.71454 c 0.019,-1.60311 -0.52566,-4.32008 -1.21035,-6.03772 -0.6847,-1.71765 -1.02688,-3.34102 -0.76039,-3.6075 0.26648,-0.26649 -0.21224,-1.06277 -1.06382,-1.76952 -2.11231,-1.75306 -2.74949,-0.82039 -3.12077,4.56807 -0.24058,3.49169 0.20491,5.303 1.85231,7.53123 2.6115,3.53224 4.25613,3.2706 4.30302,-0.68456 z M 858,194.44098 C 858,193.64844 858.675,193 859.5,193 c 2.3897,0 1.85688,-4.73863 -0.68582,-6.09945 -1.89284,-1.01301 -2.496,-0.8092 -4.5,1.52058 -2.9449,3.42365 -2.97035,6.39533 -0.0642,7.49368 2.61833,0.98957 3.75,0.5448 3.75,-1.47383 z M 788.40804,189.5 c 0.90094,-1.375 1.20983,-2.5 0.68644,-2.5 -1.50793,0 -4.17152,3.06633 -3.54465,4.08062 0.81614,1.32055 1.03751,1.19813 2.85821,-1.58062 z m 267.38816,176.35288 c -0.7129,-0.45224 -2.6191,-0.82915 -4.236,-0.83757 -4.6692,-0.0243 -14.7407,-2.08372 -18.5602,-3.79517 -1.925,-0.86256 -4.2361,-1.47038 -5.1357,-1.35071 -0.8997,0.11966 -3.3747,-0.63436 -5.5,-1.67562 -2.1254,-1.04126 -4.9893,-2.40937 -6.3643,-3.04025 -2.0459,-0.93868 -1.1546,-1.04771 4.9064,-0.60019 4.0735,0.30077 11.0485,1.16896 15.5,1.9293 4.4515,0.76034 10.4814,1.63552 13.3999,1.94484 2.9185,0.30932 6.1578,1.0181 7.1985,1.57506 1.0407,0.55696 4.0246,1.22843 6.6308,1.49215 5.3134,0.53765 6.9231,1.60687 6.0083,3.99088 -0.4908,1.2791 -1.877,1.57474 -6.5866,1.40479 -3.2807,-0.11839 -6.5482,-0.58527 -7.2611,-1.03751 z M 822.39732,353.53529 c -1.46371,-1.08055 -1.62701,-1.67492 -0.71454,-2.60075 1.46665,-1.48813 4.31722,-0.51417 4.31722,1.47506 0,2.22541 -1.48461,2.68929 -3.60268,1.12569 z M 1009,354 c 0,-0.55 0.4234,-1 0.941,-1 0.5175,0 1.2191,0.45 1.559,1 0.3399,0.55 -0.083,1 -0.941,1 -0.8574,0 -1.559,-0.45 -1.559,-1 z m 34.2052,-0.36184 c -3.9273,-0.69305 -5.2183,-1.33151 -4.9987,-2.4721 0.2952,-1.53257 0.4484,-1.5438 16.5435,-1.21239 3.2125,0.0661 2.8192,2.88833 -0.5,3.58751 -4.9216,1.03672 -5.6818,1.04339 -11.0448,0.097 z M 1010,341 l -3.5,-0.73672 3.75,-0.13164 c 2.0625,-0.0724 3.75,0.31836 3.75,0.86836 0,0.55 -0.1125,0.94076 -0.25,0.86836 -0.1375,-0.0724 -1.825,-0.46317 -3.75,-0.86836 z M 116.53369,270.19885 c -0.16646,-0.16563 -4.51713,-0.52578 -9.66817,-0.80035 -16.922465,-0.902 -17.88717,-1.05185 -19.426365,-3.01749 C 84.74329,262.93824 83.545189,260.53658 82.509881,256.5 81.60646,252.97764 81.156535,252.52248 78.741977,252.68826 76.33209,252.85373 76,252.52066 76,249.93826 c 0,-3.28952 -1.451261,-3.74484 -4.15041,-1.30214 -1.673864,1.51483 -1.854436,1.51483 -2.43573,0 -0.801153,-2.08777 -4.306255,-2.10022 -7.267895,-0.0258 -1.828941,1.28104 -3.765865,1.48396 -9.472506,0.99238 -3.945402,-0.33986 -8.860617,-0.21197 -10.922699,0.2842 -3.100593,0.74606 -4.181892,0.56181 -6.25,-1.06496 C 34.125342,247.74003 33,245.9875 33,244.92742 c 0,-1.67055 0.766298,-1.938 5.75,-2.0068 11.946382,-0.16492 15.630386,-0.56178 16.018308,-1.72554 0.385115,-1.15535 -1.423925,-1.61041 -4.982722,-1.2534 -0.942928,0.0946 -3.297173,-0.26504 -5.231655,-0.79918 -2.474385,-0.68321 -4.940877,-0.59561 -8.318746,0.29546 -2.859576,0.75434 -5.698089,0.93495 -7.018346,0.44655 C 27.997578,239.43348 27,239.33005 27,239.65467 c 0,0.32462 -0.585916,0.10395 -1.302036,-0.49037 -0.71612,-0.59433 -2.29112,-0.82195 -3.5,-0.50582 C 20.639049,239.06615 20,238.78701 20,237.69842 20,234.47063 21.267033,233 24.047972,233 c 1.558697,0 3.115261,-0.4551 3.459031,-1.01133 0.754418,-1.22067 24.513559,-0.54532 37.280089,1.05968 4.792099,0.60247 10.962908,1.05866 13.712908,1.01378 2.75,-0.0449 8.238311,-0.15241 12.196247,-0.23893 4.617062,-0.10093 7.753122,0.30485 8.75,1.13219 0.952563,0.79056 2.037413,0.94979 2.803753,0.41152 0.6875,-0.48288 3.5,-0.83737 6.25,-0.78774 2.75,0.0496 8.825,0.16266 13.5,0.25119 16.05929,0.3041 36.83388,-0.3312 37.65432,-1.15149 0.45171,-0.45163 1.09838,-4.73973 1.43706,-9.52912 0.33868,-4.78939 1.2329,-9.69615 1.98716,-10.90391 1.98291,-3.17515 0.051,-4.9338 -3.77291,-3.43462 -1.54309,0.60498 -5.58614,1.29862 -8.98454,1.54142 -3.39841,0.2428 -6.6914,0.75819 -7.31777,1.14531 -2.02444,1.25117 -15.99816,-2.61979 -17.13669,-4.74716 -0.75299,-1.40697 -1.68066,-1.7633 -3.44063,-1.32157 -1.78241,0.44735 -2.95838,-0.0263 -4.51764,-1.8196 l -2.10798,-2.42439 -3.37633,1.99208 c -2.50861,1.48012 -4.2177,1.80739 -6.65019,1.27343 -3.67569,-0.80686 -14.100681,-5.5662 -14.594575,-6.66288 -0.176393,-0.39168 -1.863893,-1.66589 -3.75,-2.83156 -2.508315,-1.55023 -3.433397,-2.83606 -3.444598,-4.78786 -0.01165,-2.03095 -0.236981,-2.31795 -0.943188,-1.20135 -1.426621,2.25568 -9.136733,-5.88691 -8.365782,-8.83503 0.717022,-2.7419 -1.382273,-5.28892 -4.054291,-4.91898 -1.577303,0.21837 -2.856577,-1.01964 -5.354865,-5.18215 -1.805357,-3.00799 -4.147064,-5.93299 -5.203793,-6.5 -2.473635,-1.32728 -8.122556,-9.0234 -9.931646,-13.53093 -0.772596,-1.925 -1.607755,-5.975 -1.855908,-9 -0.248153,-3.025 -0.816594,-5.8825 -1.263201,-6.35 -0.446607,-0.4675 -2.433413,-0.85 -4.415125,-0.85 -2.806227,0 -4.044755,-0.62023 -5.6,-2.80437 C 35.8986,130.45323 35,128.84616 35,128.42437 c 0,-0.42179 -0.729577,-1.57306 -1.621281,-2.55838 -2.068177,-2.28531 -1.080503,-5.2235 1.48244,-4.41006 1.542206,0.48948 1.790542,0.17289 1.413113,-1.8015 -0.346537,-1.81279 0.537234,-3.38058 3.633915,-6.44647 4.606581,-4.56077 4.707954,-4.88328 2.517789,-8.01018 -1.831171,-2.61436 -1.150529,-7.625596 1.432957,-10.550159 1.599628,-1.810814 6.886552,-5.022394 8.405047,-5.105705 C 53.223336,89.489281 56,84.221282 56,82.453787 c 0,-0.724679 1.334788,-2.268051 2.966195,-3.429716 2.389302,-1.701333 2.862157,-2.638401 2.431262,-4.818094 C 60.935405,71.868673 61.376441,71.227512 64.634567,69.5 69.671192,66.829498 74,63.129272 74,61.494513 c 0,-0.730235 1.2375,-2.265611 2.75,-3.411946 2.506592,-1.899765 2.595104,-2.177082 1,-3.133097 C 76.7875,54.372603 76,53.299735 76,52.56532 76,50.668781 80.832909,47.744217 83.905591,47.781368 85.332516,47.798621 87.4,47.252559 88.5,46.567897 c 1.1,-0.684662 4.25,-2.070897 7,-3.080522 3.601874,-1.322379 6.88479,-3.775348 11.7404,-8.772346 5.68781,-5.853427 7.12273,-6.840706 9.18871,-6.322177 1.34658,0.337969 2.72746,0.162837 3.06862,-0.389182 0.35429,-0.573258 5.41942,-1.010237 11.81129,-1.018983 C 142.77199,26.969002 146.94336,25.98142 144,23.980064 143.175,23.419099 140.475,23.009086 138,23.068925 125.73453,23.365467 117.92081,22.937145 118.5,22 c 0.33992,-0.55 3.40398,-0.990472 6.80902,-0.978827 5.58261,0.01909 14.2586,-1.064814 33.81872,-4.225033 3.64525,-0.588944 7.92025,-1.044355 9.5,-1.012025 26.78627,0.548194 44.00065,1.492636 49.37226,2.708738 3.575,0.809359 8.525,1.87827 11,2.375359 4.24909,0.853403 4.12209,0.890302 -2.27783,0.661783 C 219.08683,21.257364 215,21.810511 215,23.116577 215,23.60246 216.1801,24 217.62244,24 c 2.23616,0 2.43612,0.224509 1.3575,1.524166 -0.69572,0.838291 -0.93902,1.850084 -0.54068,2.248428 0.39834,0.398344 1.34318,-0.122164 2.09964,-1.156683 1.19788,-1.638192 1.90033,-1.747698 5.44291,-0.848498 2.23713,0.567846 4.87536,0.821194 5.86271,0.562995 0.98736,-0.2582 2.38136,0.236832 3.09778,1.100069 C 235.65872,28.293715 237.29362,29 238.57539,29 c 3.39573,0 7.17378,1.968238 8.93364,4.654126 C 248.54037,35.228144 250.00618,36 251.96404,36 c 1.60486,0 3.15951,0.390891 3.45478,0.868648 0.29527,0.477756 2.45933,1.176004 4.80902,1.551661 C 268.90943,39.808283 277,46.54944 277,52.395077 c 0,3.19365 3.91923,8.574571 6.29047,8.636524 4.09809,0.10707 11.46245,11.832408 10.31158,16.417831 -0.49758,1.982505 0.0581,2.992007 2.89096,5.252384 2.45984,1.962712 3.50694,3.608216 3.50696,5.511164 5e-5,4.543166 3.85992,13.11267 7.33598,16.28702 3.50056,3.19672 6.47843,12.2778 5.39044,16.43828 -0.30349,1.16057 -0.10858,3.71538 0.43315,5.67735 0.81152,2.9391 0.67191,3.91314 -0.7929,5.53174 -1.45769,1.61072 -1.56074,2.31218 -0.57225,3.895 1.96113,3.14027 1.50524,11.307 -0.79439,14.2305 -1.1,1.39842 -2,2.97342 -2,3.5 0,0.52658 -0.90272,2.10504 -2.00605,3.50769 -1.1813,1.50178 -1.96107,3.92123 -1.89665,5.88486 0.0602,1.83402 -0.12768,4.23458 -0.41744,5.33458 -0.28976,1.1 -0.56127,2.24375 -0.60335,2.54166 -0.0792,0.56098 -4.88109,5.99929 -10.4029,11.78176 -1.74549,1.82788 -4.45394,4.07788 -6.01878,5 -1.56485,0.92212 -3.75478,3.47658 -4.86651,5.67658 -2.89774,5.73429 -4.61031,7.37498 -8.90527,8.53149 -2.69604,0.72597 -3.63678,1.4467 -3.23954,2.48189 0.34673,0.90358 -0.33526,1.86107 -1.79185,2.51566 -4.55623,2.04758 -7.36989,3.91566 -9.10166,6.0429 l -1.75,2.14963 -1.80736,-2.232 c -1.65061,-2.03841 -1.945,-2.09435 -3.39443,-0.64493 -2.18793,2.18794 -8.77697,4.58076 -11.79821,4.28454 -1.375,-0.13481 -3.03473,0.15053 -3.68829,0.63408 -0.65355,0.48356 -4.59228,1.07255 -8.75272,1.30888 -4.16044,0.23632 -7.90071,0.50725 -8.31172,0.60207 -0.88772,0.20479 -11.74009,-1.06863 -15.10156,-1.77203 -2.2734,-0.47571 -2.33399,-0.32787 -1.76339,4.30259 0.325,2.63738 0.79782,6.71169 1.05071,9.05402 0.25289,2.34234 0.73548,4.70484 1.0724,5.25 0.6753,1.09266 6.42115,1.34035 8.91278,0.38422 2.38947,-0.91692 1.89554,-2.57668 -0.66821,-2.24543 -1.2375,0.15989 -2.8125,-0.0595 -3.5,-0.48745 -1.49565,-0.93109 -1.61403,-4.56973 -0.21669,-6.66013 0.84458,-1.26347 1.41286,-1.03572 3.60387,1.44432 2.42894,2.74936 4.30699,3.54317 8.61282,3.64044 2.49087,0.0563 2.16778,1.57273 -0.48275,2.26586 -1.4448,0.37782 -1.88594,0.92181 -1.25,1.54145 1.14678,1.1174 39.02196,1.90205 40.09341,0.8306 1.2001,-1.20009 5.98456,-0.81407 8.94474,0.72169 2.184,1.13308 3.23235,1.1933 4.8643,0.27943 1.4181,-0.79411 11.47076,-1.25376 31.5803,-1.44397 16.225,-0.15346 39.77966,-0.39171 52.3437,-0.52942 12.56403,-0.13772 23.0644,0.1054 23.33415,0.54028 0.26976,0.43487 1.28588,0.53822 2.25805,0.22967 3.22279,-1.02288 21.6055,-0.87638 23.50623,0.18733 1.25612,0.70296 3.02654,0.72559 5.40423,0.0691 1.94487,-0.537 5.10911,-0.72111 7.03165,-0.40912 2.0364,0.33046 4.08438,0.0786 4.90617,-0.60348 0.82944,-0.68838 3.73959,-1.03719 7.06323,-0.84661 3.10893,0.17827 8.57759,0.27754 12.15259,0.22061 3.575,-0.0569 8.975,-0.0236 12,0.074 3.025,0.0976 8.61265,0.20232 12.417,0.23268 l 6.91699,0.0552 1.12324,-5.60539 c 1.49306,-7.45094 3.06889,-9.61383 11.72377,-16.09132 l 7.319,-5.4777 10,-0.0377 c 7.51778,-0.0283 10.99289,0.40683 14,1.75311 2.2,0.98493 5.8,2.37017 8,3.07831 3.74012,1.20388 6.15496,2.88297 10.25522,7.13066 2.04508,2.11861 3.09706,2.18784 5.16604,0.34 1.6643,-1.48643 12.84084,-7.78896 13.30671,-7.50376 1.02875,0.62979 18.04738,-11.16827 24.89179,-17.25608 1.44086,-1.28159 9.92017,-7.73016 18.8429,-14.33016 8.92274,-6.6 18.86163,-14.1375 22.08644,-16.75 3.22481,-2.6125 6.1594,-4.75 6.52131,-4.75 0.36191,0 3.25522,-2.25 6.42959,-5 3.17437,-2.75 6.16047,-5.00894 6.63579,-5.01986 0.47531,-0.0109 3.72968,-2.26093 7.23191,-5 3.50224,-2.73908 6.97391,-4.98014 7.71482,-4.98014 0.74091,0 1.80378,-0.8533 2.36194,-1.89622 0.55815,-1.04292 4.06148,-3.93257 7.78518,-6.42145 6.52687,-4.36249 11.25822,-8.0064 27.82823,-21.43233 C 702.91885,103.47548 705,102.70099 705,106.364 c 0,1.609 -1.21481,3.20586 -3.80375,5 -2.09206,1.4498 -4.32859,2.636 -4.97006,2.636 -0.64147,0 -2.12409,1.29546 -3.29471,2.87881 C 690.53443,120.12099 677.93755,130 676.20044,130 c -0.62154,0 -1.58035,0.84134 -2.13068,1.86965 -0.55033,1.02831 -2.59117,2.62442 -4.53518,3.54692 -1.94402,0.92249 -3.53458,2.05156 -3.53458,2.50903 0,0.45747 -1.34212,1.38768 -2.98249,2.06715 -1.64037,0.67946 -4.94581,3.09655 -7.34543,5.37132 C 650.21904,150.53339 642.36382,157 641.53751,157 c -0.3426,0 -2.98211,1.6875 -5.86559,3.75 -2.88347,2.0625 -5.95996,4.2 -6.83664,4.75 -7.43584,4.66499 -17.31761,11.55966 -22.04737,15.38281 -3.14166,2.53946 -8.21684,6.41719 -11.27819,8.61719 -3.06134,2.2 -6.7909,5.0434 -8.2879,6.31867 -1.497,1.27526 -4.74682,3.95197 -7.22182,5.94824 -8.1757,6.59429 -10.06672,8.57382 -8.88696,9.30296 0.61489,0.38002 3.65351,-0.73695 6.75247,-2.48217 3.09897,-1.74521 8.33449,-4.23656 11.63449,-5.53633 3.3,-1.29977 6.4275,-2.74305 6.95,-3.20729 0.5225,-0.46425 1.76611,-0.84408 2.76357,-0.84408 0.99746,0 2.59496,-0.4138 3.55,-0.91955 6.14937,-3.2565 10.56371,-5.08045 12.29574,-5.08045 1.09875,0 4.57239,-1.27481 7.71921,-2.8329 3.14681,-1.5581 8.42148,-3.61094 11.72148,-4.56188 3.3,-0.95093 7.575,-2.33079 9.5,-3.06634 7.98788,-3.0522 26.62522,-10.69827 28.23643,-11.58415 0.95504,-0.5251 2.43576,-0.95473 3.29049,-0.95473 0.85474,0 2.88893,-0.98691 4.52044,-2.19313 2.19874,-1.62561 3.25773,-1.90178 4.09229,-1.06722 1.65529,1.65529 0.26144,4.26035 -2.27952,4.26035 -1.21146,0 -2.91308,0.59057 -3.78139,1.31237 -0.86831,0.72181 -3.60374,2.13293 -6.07874,3.13582 -5.48203,2.22138 -8.74518,3.60965 -16.3453,6.95393 -3.21492,1.41467 -7.71492,3.05451 -10,3.6441 -4.7618,1.22862 -14.6078,4.96688 -16.28822,6.1842 -0.62344,0.45162 -7.59844,3.01785 -15.5,5.70272 -7.90156,2.68488 -17.96648,6.65878 -22.36648,8.8309 -4.4,2.17212 -9.125,4.46747 -10.5,5.10077 -1.375,0.63331 -4.01234,2.06651 -5.86075,3.18488 -4.53877,2.74618 -14.00179,5.12379 -17.43021,4.37939 -1.53503,-0.33329 -3.33503,-0.17486 -4,0.35208 -0.66497,0.52693 -2.78404,1.24836 -4.70904,1.60316 -5.69663,1.04998 -6.76722,2.11043 -4.57556,4.53219 1.39659,1.54321 1.71381,3.01609 1.3054,6.06105 -0.43935,3.27559 -0.23227,4.03665 1.11532,4.09895 0.91016,0.0421 2.55484,0.28097 3.65484,0.53086 1.1,0.2499 8.75,0.65118 17,0.89174 8.25,0.24057 16.8,0.76204 19,1.15883 2.2,0.39678 9.625,0.76624 16.5,0.82101 6.875,0.0548 20.30094,0.6778 29.83543,1.38452 9.53448,0.70672 17.99934,1.03018 18.8108,0.71879 0.81146,-0.31139 5.83552,0.14987 11.16457,1.02501 11.36448,1.86627 12.99843,1.9796 41.1892,2.85678 31.52148,0.98082 34,1.25334 34,3.73837 0,0.76367 -4.82623,0.87605 -16.31767,0.37996 -15.44959,-0.66695 -30.8931,0.54072 -29.1532,2.27977 0.35099,0.35082 3.41302,0.71 6.80452,0.79819 8.54329,0.22214 8.09249,0.22986 18.54214,-0.31758 5.31413,-0.27839 9.78766,-0.0793 10.32651,0.45954 0.58167,0.58167 2.47319,0.60865 4.87275,0.0695 3.2226,-0.72407 26.2007,-0.58268 27.92495,0.17182 0.44778,0.19595 3.95989,0.43275 12.25,0.82595 3.42725,0.16255 3.66907,2.13043 0.26179,2.13043 -1.7938,0 -2.42173,0.48839 -2.25,1.75 0.13102,0.9625 -0.10578,1.91989 -0.52622,2.12753 -1.51383,0.74765 -13.22782,-1.05598 -13.89769,-2.13985 -0.49037,-0.79343 -1.12448,-0.74471 -2.22804,0.17116 -0.84843,0.70413 -2.12023,1.07351 -2.82622,0.82083 -0.70599,-0.25268 -1.99905,-0.093 -2.87347,0.35493 -0.87442,0.44789 -5.82442,0.47576 -11,0.0619 -5.17558,-0.41384 -11.43515,-0.43933 -13.91015,-0.0567 -2.475,0.38267 -4.95,0.40494 -5.5,0.0495 -0.80682,-0.52144 -13.52305,-0.57908 -24,-0.10879 -1.1,0.0494 -6.725,-0.58378 -12.5,-1.40702 -7.1664,-1.02158 -15.10354,-1.34696 -25,-1.02487 -17.09045,0.55623 -13.73672,0.62964 -28.5,-0.62377 -6.6,-0.56034 -16.5,-1.22966 -22,-1.48738 -5.5,-0.25773 -11.8,-0.7015 -14,-0.98617 -7.88756,-1.0206 -28.5,-1.57397 -28.5,-0.76512 0,0.90491 -5.32703,3.29583 -8.5,3.81504 -9.89403,1.61902 -25.23809,1.21826 -39.5,-1.03169 -1.925,-0.30368 -10.99217,-0.67711 -20.14928,-0.82982 -17.10156,-0.28522 -20.21549,-0.99664 -19.61392,-4.4811 0.19969,-1.15666 -0.88069,-1.5956 -4.4771,-1.81898 -3.86061,-0.23978 -4.93421,0.0679 -5.78519,1.65795 C 464.74805,252.33929 461,252.68014 461,250.5 c 0,-0.825 0.525,-1.5 1.16667,-1.5 2.59422,0 -0.41727,-1.36363 -3.77139,-1.70773 -2.39387,-0.24558 -4.78974,0.33293 -7.15266,1.72709 -2.63589,1.55521 -3.7455,1.785 -4.29853,0.89018 -0.56838,-0.91966 -1.72403,-0.81463 -4.86501,0.44214 C 436.60496,252.54199 432.80332,252.43131 430,250 c -1.983,-1.71985 -3.86043,-2.01897 -13.40301,-2.13543 -24.50759,-0.29909 -52.54538,0.74497 -56.01487,2.08587 -4.69558,1.81476 -8.90807,1.98606 -10.06115,0.40913 -0.90397,-1.23626 -1.95405,-1.23803 -7.79738,-0.0132 -3.75662,0.78745 -6.99428,1.02462 -7.29717,0.53454 C 335.12697,250.39642 333.52894,250 331.87524,250 c -1.6537,0 -3.87308,-0.46366 -4.93195,-1.03035 -1.41646,-0.75807 -2.71638,-0.62123 -4.919,0.51779 -3.19043,1.64983 -10.86569,1.46643 -18.52429,-0.44264 -2.2,-0.5484 -5.66094,-1.00782 -7.69098,-1.02094 C 293.77898,248.01074 291.83992,247.55 291.5,247 c -0.33992,-0.55 -2.61648,-1 -5.05902,-1 -2.44254,0 -4.44098,0.45 -4.44098,1 0,1.76058 -3.95985,1.06975 -5.73203,-1 -0.94185,-1.1 -2.55281,-2 -3.57992,-2 -1.0271,0 -2.65422,-0.9716 -3.61581,-2.15911 C 267.31248,239.66767 265,239.98458 265,242.39896 c 0,0.70451 -1.9125,1.89543 -4.25,2.64651 -2.3375,0.75107 -6.55933,2.36891 -9.38185,3.5952 -3.68148,1.59947 -6.64901,2.14735 -10.5,1.93854 -4.28969,-0.23259 -5.82868,0.12481 -7.6605,1.77896 -1.92005,1.73383 -2.61029,1.87147 -4.25,0.84746 C 227.28331,252.15998 227,252.24651 227,253.80347 c 0,3.4203 -5.59157,6.36968 -12.84972,6.7778 -7.69984,0.43297 -10.29836,0.89243 -12.88926,2.27904 -1.03311,0.5529 -2.46795,0.62983 -3.20867,0.17204 -0.82051,-0.5071 -2.51656,-0.11251 -4.37547,1.01795 -1.66956,1.01533 -3.36534,1.64224 -3.76838,1.39315 -0.40305,-0.2491 -3.80984,0.17609 -7.57066,0.94487 -3.76081,0.76877 -9.53784,1.72264 -12.83784,2.11971 -8.52584,1.02586 -52.23239,2.42109 -52.96631,1.69082 z M 202,258.96227 C 202,258.43302 199.525,258 196.5,258 c -3.025,0 -5.5,0.40346 -5.5,0.89658 0,0.49311 2.475,0.92614 5.5,0.96227 3.025,0.0361 5.5,-0.36733 5.5,-0.89658 z M 216,256 c 0,-0.55 -1.37656,-1 -3.05902,-1 -1.7847,0 -2.80156,0.41658 -2.44098,1 0.33992,0.55 1.71648,1 3.05902,1 1.34254,0 2.44098,-0.45 2.44098,-1 z m 547,0 c 0,-0.55 -0.42344,-1 -0.94098,-1 -0.51754,0 -1.2191,0.45 -1.55902,1 -0.33992,0.55 0.0835,1 0.94098,1 0.85746,0 1.55902,-0.45 1.55902,-1 z m -248.49497,-5.63644 c 1.50407,0.57716 3.85068,-1.67452 2.81963,-2.70557 -0.3619,-0.36189 -2.04549,-0.68651 -3.74133,-0.72138 -2.97547,-0.0612 -2.99971,-0.0968 -0.69303,-1.01967 1.31467,-0.52596 8.96467,-1.05994 17,-1.18662 20.93913,-0.3301 18.20444,-2.20492 -3.3903,-2.32429 -9.35,-0.0517 -20.70199,-0.453 -25.22664,-0.89182 -6.11977,-0.59353 -8.61397,-0.47642 -9.73899,0.45727 -2.36753,1.96487 -0.86163,2.98945 4.26029,2.8986 10.25559,-0.18191 12.65342,0.0818 11.47327,1.26199 -0.62264,0.62264 -3.48679,1.18514 -6.36478,1.25 -3.20491,0.0722 -5.39491,0.60233 -5.65126,1.36793 -0.30267,0.9039 1.19659,1.25424 5.41478,1.26531 3.20833,0.008 6.48408,0.42703 7.27945,0.93023 0.89067,0.5635 2.16899,0.52804 3.32814,-0.0923 1.03511,-0.55397 2.48896,-0.77432 3.23077,-0.48966 z M 644,250.5 c 0,-0.825 -0.42344,-1.5 -0.94098,-1.5 -1.26098,0 -2.1641,1.56159 -1.36517,2.36052 C 642.82004,252.4867 644,252.04641 644,250.5 Z m 19.25,-0.40139 c 0.4125,-0.0542 3.02656,-0.0986 5.80902,-0.0986 7.06303,0 5.30218,-1.69504 -2.64497,-2.54611 -6.92867,-0.74199 -9.18193,0.10267 -8.06167,3.02202 0.45731,1.19172 1.07673,1.3648 2.38278,0.66583 0.97066,-0.51949 2.10234,-0.98889 2.51484,-1.04313 z m 19.5625,-1.03611 c 0.25,-0.75 -0.125,-1.125 -0.875,-0.875 -0.72187,0.24062 -1.50937,1.02812 -1.75,1.75 -0.25,0.75 0.125,1.125 0.875,0.875 0.72187,-0.24063 1.50937,-1.02813 1.75,-1.75 z M 485.80833,248.925 c -0.19708,-0.59125 -0.78583,-1.075 -1.30833,-1.075 -0.5225,0 -1.11125,0.48375 -1.30833,1.075 -0.19709,0.59125 0.39166,1.075 1.30833,1.075 0.91667,0 1.50542,-0.48375 1.30833,-1.075 z m 142.7461,-0.34114 c 1.73804,-1.27089 1.09238,-1.45039 -6.29466,-1.75 -8.60185,-0.34889 -14.04023,0.37388 -11.25977,1.49644 1.3335,0.53838 4.71111,0.92505 13.05887,1.49499 1.40738,0.0961 3.43038,-0.46255 4.49556,-1.24143 z m -379.11919,-3.47908 c 0.3043,-0.49236 -0.18355,-1.17796 -1.08411,-1.52353 -1.94685,-0.74708 -2.80894,-0.13102 -1.89225,1.35222 0.80368,1.30037 2.2279,1.38235 2.97636,0.17131 z M 392.6408,242 c 0.81248,0 1.23642,-0.38965 0.94208,-0.86589 C 392.87844,239.99429 388,240.94628 388,242.22357 c 0,0.54472 0.7118,0.71726 1.58179,0.38342 C 390.45177,242.27314 391.82833,242 392.6408,242 Z m 60.0452,-0.88408 c 1.54288,-0.89741 1.29089,-1.08692 -1.686,-1.26799 -4.91417,-0.29891 -15.33071,0.26426 -16.35676,0.88432 -0.47122,0.28476 -0.28969,0.86822 0.4034,1.29657 1.75053,1.08189 15.42665,0.3741 17.63936,-0.9129 z M 77,241 c 0,-0.55 -1.2375,-0.99311 -2.75,-0.98469 -2.142937,0.0119 -2.418875,0.22931 -1.25,0.98469 1.956534,1.26441 4,1.26441 4,0 z m 337.5,-0.44933 c 0,-1.4967 -17.1654,-0.90109 -18.11068,0.62842 -0.25863,0.41847 3.71047,0.66023 8.82022,0.53724 5.10975,-0.12299 9.29046,-0.64754 9.29046,-1.16566 z M 63.729167,240.39583 c -0.332292,-0.33229 -1.194792,-0.36781 -1.916667,-0.0789 -0.797733,0.31922 -0.560776,0.55618 0.604167,0.60416 1.054166,0.0434 1.644791,-0.19293 1.3125,-0.52522 z m 463.248883,-4.68356 c 5.76293,-0.24302 11.80813,-0.0604 13.43377,0.40584 3.89295,1.11648 4.25397,0.54376 1.70218,-2.70031 C 540.9513,231.93967 540,230.16259 540,229.46873 540,228.10303 533.49711,222 532.04193,222 c -0.48866,0 -2.16051,-1.06225 -3.7152,-2.36056 -1.5547,-1.29831 -4.17673,-2.60302 -5.82673,-2.89937 -1.65,-0.29634 -6.82693,-1.32647 -11.50428,-2.28918 l -8.50428,-1.75037 -6.25299,3.10243 c -8.79517,4.36374 -15.67995,12.54227 -15.05692,17.88632 0.4304,3.69174 2.00624,3.93776 20.09882,3.13779 8.37081,-0.37012 19.93477,-0.87178 25.6977,-1.11479 z m -332.65036,0.71548 c 1.18086,-0.45314 1.29342,-1.23368 0.54076,-3.75 -2.18108,-7.29191 -3.0154,-18.1008 -1.67327,-21.67775 0.51593,-1.375 1.89792,-3.52464 3.0711,-4.77699 2.02539,-2.16206 2.05052,-2.4167 0.49781,-5.04522 -1.06404,-1.80128 -1.32297,-3.2735 -0.74127,-4.21471 0.49168,-0.79556 0.62256,-2.52783 0.29084,-3.84951 -0.54889,-2.18693 -0.36528,-2.34334 2.04161,-1.73925 1.88145,0.47221 2.64473,0.27415 2.64473,-0.68629 0,-3.25129 -7.16296,-4.42426 -22.5,-3.68448 -4.8118,0.23209 -12.4602,-1.8957 -15.30716,-4.25847 -2.08054,-1.7267 -6.11726,-1.48608 -7.88763,0.47016 -1.83618,2.02895 -4.37852,2.31145 -6.02094,0.66903 -0.82097,-0.82097 -1.70575,-0.70246 -3.34909,0.44858 -1.97111,1.38062 -2.56232,1.39421 -5.03461,0.11573 C 139.35988,183.65186 137.51182,183 136.79377,183 c -0.71805,0 -1.88354,-1.30577 -2.58997,-2.90171 -0.73227,-1.65432 -2.34179,-3.16709 -3.74411,-3.51905 -3.05854,-0.76765 -3.1044,-2.73761 -0.20055,-8.61377 2.86868,-5.80497 9.21052,-12.23774 7.39152,-7.4975 -0.30982,0.80739 -0.12979,1.73591 0.40008,2.06339 0.52986,0.32747 1.23335,-0.10812 1.56331,-0.96798 0.74997,-1.9544 4.2634,-1.97065 6.82708,-0.0316 1.06762,0.80751 3.86725,1.4682 6.22141,1.4682 3.98989,0 4.33732,0.22049 5.12108,3.25 0.75366,2.91317 1.24891,3.27404 4.77859,3.48199 3.75311,0.22111 10.3734,-1.31273 11.43779,-2.65 0.275,-0.3455 1.7375,-1.41567 3.25,-2.37814 1.66931,-1.06226 2.75,-2.6359 2.75,-4.0044 0,-3.1321 2.71865,-6.69945 5.1056,-6.69945 1.37294,0 2.57311,1.29754 3.86111,4.17437 l 1.86892,4.17437 3.33218,-6.92437 L 197.5,148.5 l 6.25,-0.29772 c 6.37945,-0.30388 7.40736,-0.99686 4.75,-3.20228 -0.825,-0.68469 -1.5,-2.26494 -1.5,-3.51166 0,-1.24672 -0.83193,-3.29417 -1.84874,-4.54987 -1.72883,-2.13501 -2.1342,-2.20507 -6.25,-1.08017 -2.42069,0.66161 -7.1993,1.05193 -10.61912,0.86738 -4.476,-0.24155 -6.35976,0.0342 -6.72438,0.98439 -0.27858,0.72597 -1.71092,1.77786 -3.18298,2.33754 -2.17938,0.8286 -3.06635,0.65862 -4.77563,-0.91518 -1.15453,-1.06302 -2.99915,-2.09019 -4.09915,-2.2826 -1.1,-0.19241 -2.675,-1.80259 -3.5,-3.57819 -1.7082,-3.67645 -2.573,-3.83449 -9.4945,-1.73506 -3.05121,0.92549 -6.1639,1.23695 -8,0.8005 -1.65303,-0.39293 -3.61208,-0.59967 -4.35346,-0.45942 -1.84553,0.34913 -5.15204,-2.80217 -5.15204,-4.9102 0,-2.62587 -1.94421,-3.65341 -8.38823,-4.4333 -5.13393,-0.62132 -6.49939,-1.28428 -10.65901,-5.17512 -5.17816,-4.84355 -5.85874,-4.66337 -6.4937,1.71919 -0.35263,3.54453 0.0272,4.47466 3.06926,7.51675 1.90942,1.90943 3.47168,4.14665 3.47168,4.9716 0,0.82495 1.1632,3.79538 2.5849,6.60096 2.36016,4.65755 2.4854,5.4962 1.44047,9.64599 -0.62943,2.49971 -2.01764,5.77124 -3.0849,7.27007 -1.06726,1.49883 -1.94047,3.0246 -1.94047,3.3906 0,1.25225 -5.79144,9.08457 -9.13336,12.35192 -3.8927,3.80584 -3.20893,4.74828 4.13336,5.69695 6.95138,0.89817 9.36117,2.67074 10.40657,7.65478 0.49862,2.37718 1.01162,4.46015 1.14,4.62882 0.21396,0.28108 4.33233,0.843 11.91212,1.62532 1.84965,0.19091 3.94342,1.48494 5.58579,3.45223 l 2.62711,3.14685 6.66421,-1.74788 c 3.66531,-0.96134 6.68038,-2.20583 6.70016,-2.76554 0.0198,-0.55971 1.11369,-2.33605 2.43092,-3.94743 3.21385,-3.93155 5.03699,-2.3701 6.07258,5.20091 1.12509,8.22535 0.874,33.60406 -0.36771,37.16604 -0.74008,2.123 -0.73683,3.21359 0.011,3.67576 0.58479,0.36142 6.0582,0.84665 12.16312,1.07828 6.10492,0.23163 11.29957,0.62087 11.54367,0.86497 0.59776,0.59776 1.64799,0.55853 3.43818,-0.12843 z M 160,133.58333 C 160,132.7125 160.7125,132 161.58333,132 c 1.76593,0 1.45839,2.15276 -0.39583,2.77083 -0.65313,0.21771 -1.1875,-0.31666 -1.1875,-1.1875 z m 96.5691,67.30487 c 0.37792,-0.6115 0.0926,-1.47927 -0.63413,-1.92839 -1.03997,-0.64274 -1.07528,-1.35646 -0.16582,-3.35249 0.80297,-1.76233 0.83316,-2.73507 0.099,-3.18883 -0.58105,-0.35911 -0.85333,-1.71552 -0.60506,-3.01425 0.32124,-1.68046 -0.21814,-2.80001 -1.87065,-3.88278 C 252.11529,184.68466 250.60453,184 250.03518,184 c -1.50157,0 -1.21102,3.18343 0.49662,5.44113 2.06414,2.72903 1.83731,3.55887 -0.97278,3.55887 -1.34254,0 -2.72107,0.45318 -3.06339,1.00706 -0.93539,1.51351 2.32179,2.38936 3.92808,1.05626 1.82696,-1.51624 3.04823,0.32616 2.75624,4.15806 -0.21717,2.8502 1.98762,3.93454 3.38915,1.66682 z M 138.5,199 c 0.33992,-0.55 0.14148,-1 -0.44098,-1 -0.58246,0 -1.05902,0.45 -1.05902,1 0,0.55 0.19844,1 0.44098,1 0.24254,0 0.7191,-0.45 1.05902,-1 z m 87.21198,-2.63594 c 0.37197,-1.1159 -2.34801,-5.08896 -2.98658,-4.36249 -0.24096,0.27414 -0.71248,1.94078 -1.0478,3.70364 -0.5634,2.96186 -0.44534,3.14442 1.55486,2.4045 1.1905,-0.44039 2.30628,-1.22594 2.47952,-1.74565 z m -26.10781,-2.09323 c -1.01652,-1.01651 -1.85525,0.51389 -1.02122,1.86338 0.63003,1.01942 0.86558,1.02021 1.2043,0.004 0.2316,-0.69479 0.14921,-1.53513 -0.18308,-1.86742 z m 37.85312,1.79827 c 0.31644,-0.512 0.1586,-1.18846 -0.35074,-1.50325 -1.30427,-0.80608 -4.21062,0.45674 -3.54179,1.53893 0.72433,1.172 3.15995,1.14967 3.89253,-0.0357 z M 219.39915,189.5 c 0.60547,-1.1 1.18965,-2.1638 1.29819,-2.364 0.10853,-0.20021 1.40672,0.58729 2.88486,1.75 3.67755,2.89276 7.78552,2.73327 10.24849,-0.39789 1.93616,-2.46143 1.91873,-6.27394 -0.0346,-7.57288 -0.87463,-0.58161 -9.93603,-0.29366 -14.89292,0.47326 -3.99341,0.61785 -8.90313,3.48706 -8.90313,5.20293 0,0.84704 0.4799,2.43676 1.06644,3.53272 1.40006,2.61605 6.77065,2.21377 8.33271,-0.62414 z m 25.90933,-7.26507 c -2.469,-2.2882 -7.13969,-3.56622 -7.25418,-1.98493 -0.32137,4.43866 0.15826,5.89499 2.1957,6.66704 1.54283,0.58462 3.09769,0.3594 4.9471,-0.71658 l 2.6971,-1.56917 z M 276.15,181.5 c 0,-0.5225 -0.48375,-1.11125 -1.075,-1.30833 -0.59125,-0.19709 -1.075,0.39166 -1.075,1.30833 0,0.91667 0.48375,1.50542 1.075,1.30833 0.59125,-0.19708 1.075,-0.78583 1.075,-1.30833 z m -15.37251,-1.0567 c 3.05689,-2.14113 2.79759,-3.20142 -1.25562,-5.13426 -3.28429,-1.56617 -3.5908,-1.55663 -5.5,0.17117 -2.64422,2.39298 -2.56217,4.36706 0.22813,5.48863 3.20964,1.29012 4.02952,1.22411 6.52749,-0.52554 z m 14.26947,-4.06682 c 0.80251,-2.11076 0.65506,-2.87388 -0.75444,-3.90454 -1.46654,-1.07235 -2.20316,-0.9597 -4.52221,0.69162 -3.52929,2.51307 -3.53751,4.58737 -0.0203,5.12019 1.5125,0.22912 3.09864,0.48401 3.52475,0.56642 0.42611,0.0824 1.22361,-1.03075 1.77221,-2.47369 z m -82.71161,-0.84532 c 2.29056,-0.16891 5.00465,0.13641 6.03131,0.67848 1.38438,0.73096 2.28867,0.55853 3.5,-0.66738 1.51344,-1.53163 1.3764,-1.8672 -1.86666,-4.57111 -1.925,-1.60498 -5.075,-3.21374 -7,-3.57503 -1.925,-0.3613 -4.03373,-1.07945 -4.68608,-1.5959 -1.49115,-1.18053 -4.88358,0.52717 -6.29821,3.17042 -0.56656,1.05864 -2.37688,2.72035 -4.02291,3.69269 -4.25873,2.51569 -3.82519,4.2228 1.05532,4.15544 2.22646,-0.0307 4.31063,0.20665 4.63148,0.5275 0.32085,0.32085 1.46261,0.11281 2.53723,-0.46231 1.07463,-0.57513 3.82796,-1.18388 6.11852,-1.3528 z M 212,173.5 c 0,-0.825 -0.64844,-1.5 -1.44098,-1.5 -1.67065,0 -2.79841,1.42728 -1.86517,2.36052 C 209.88901,175.55568 212,175.00623 212,173.5 Z m 6,-3.5 c 0,-0.55 0.97707,-1 2.17126,-1 1.19419,0 2.98575,-0.73711 3.98124,-1.63801 1.41694,-1.28231 2.11902,-1.38154 3.23309,-0.45694 2.23251,1.85282 6.52992,0.27977 7.26785,-2.66038 0.34981,-1.39377 1.53937,-3.43748 2.64345,-4.54156 1.9214,-1.9214 2.06384,-1.93027 3.32401,-0.20688 1.07878,1.47532 1.58985,1.57376 2.82947,0.54496 1.3391,-1.11136 1.34269,-1.49855 0.0312,-3.37089 -1.88487,-2.69104 -1.87314,-5.0125 0.0441,-8.71996 2.01817,-3.90272 4.13567,-3.72836 6.15529,0.50683 0.90673,1.90145 2.0508,3.20861 2.54236,2.9048 1.22045,-0.75427 -0.0875,-6.30731 -2.20508,-9.36197 -3.50304,-5.0532 -2.98857,-8.30039 1.59092,-10.04151 2.26895,-0.86265 6.17102,-7.51163 5.06022,-8.62243 -1.0655,-1.0655 -14.8783,7.07128 -17.22342,10.14589 -3.39608,4.45249 -4.87735,4.86765 -10.5935,2.96905 -4.26698,-1.41727 -5.17691,-1.43563 -7.74153,-0.15623 -1.76327,0.87964 -3.43805,1.11278 -4.25857,0.59283 -0.7438,-0.47134 -2.36487,-0.86387 -3.60237,-0.87229 -2.40133,-0.0163 -2.90382,1.7871 -1.323,4.74826 0.50985,0.95504 1.17104,2.52475 1.46931,3.48824 0.38244,1.23538 1.50946,1.72063 3.823,1.64602 4.36312,-0.1407 13.68608,0.92566 14.9563,1.7107 0.557,0.34425 0.81434,1.66371 0.57186,2.93215 -0.3121,1.63267 0.0985,2.44728 1.40583,2.78916 1.03928,0.27178 1.8467,1.38075 1.8467,2.5364 0,2.75844 -7.18369,5.12465 -10.07544,3.31872 -2.87718,-1.79683 -4.89885,-1.42868 -5.81936,1.05971 -0.45736,1.23635 -1.6782,2.24706 -2.71778,2.25 -1.25074,0.004 -1.9254,0.75824 -2.00002,2.23731 -0.0619,1.22759 -0.64321,2.87133 -1.29174,3.65275 -0.91293,1.10002 -0.88751,1.53779 0.1126,1.93908 C 216.37351,171.19259 218,171.05369 218,170 Z m -1,-29.5 c 0,-0.825 0.675,-1.5 1.5,-1.5 0.825,0 1.5,0.675 1.5,1.5 0,0.825 -0.675,1.5 -1.5,1.5 -0.825,0 -1.5,-0.675 -1.5,-1.5 z m 59.9682,23.12756 c 0.0175,-0.47985 -0.6432,-0.31225 -1.4682,0.37244 -0.825,0.68469 -1.5,1.9508 -1.5,2.81357 0,1.2558 0.29285,1.18151 1.4682,-0.37244 0.8075,-1.06762 1.4825,-2.33373 1.5,-2.81357 z M 291,167 c 0,-0.55 -0.45,-1 -1,-1 -0.55,0 -1,0.45 -1,1 0,0.55 0.45,1 1,1 0.55,0 1,-0.45 1,-1 z m -22,-2.62244 c 0,-1.3288 -0.27149,-1.39713 -1.5,-0.37756 -0.825,0.68469 -1.5,1.41479 -1.5,1.62244 0,0.20766 0.675,0.37756 1.5,0.37756 0.825,0 1.5,-0.7301 1.5,-1.62244 z m -160.16052,-2.92461 c 2.6131,-5.73513 0.94284,-10.9867 -4.05745,-12.75728 -2.36331,-0.83683 -3.46728,1.33009 -1.43481,2.81628 1.06697,0.78018 1.65278,2.64685 1.65278,5.26651 0,7.1196 1.753,9.25383 3.83948,4.67449 z m -32.251083,-2.19789 c -1.092399,-1.0924 -1.841474,0.64486 -1.057177,2.45181 0.743676,1.71337 0.797586,1.71181 1.211936,-0.0351 0.238501,-1.00555 0.16886,-2.09305 -0.154759,-2.41667 z m 40.969133,-10.39098 c 1.47881,-4.27145 -0.2201,-12.53611 -2.88335,-14.02654 C 113.75338,134.32223 113,133.11298 113,132.15031 113,130.357 111.20267,128 109.83518,128 c -0.42065,0 -1.23282,0.87447 -1.80482,1.94327 -0.83063,1.55205 -0.56074,2.46042 1.34062,4.51202 2.01244,2.17146 2.29979,3.28599 1.85793,7.20621 -0.37883,3.3609 -0.0221,5.56697 1.29574,8.01413 2.18957,4.06579 3.41257,3.86859 5.03288,-0.81155 z M 249,150.88197 c 0,-0.55 -0.45,-0.72189 -1,-0.38197 -0.55,0.33992 -1,1.06803 -1,1.61803 0,0.55 0.45,0.72189 1,0.38197 0.55,-0.33992 1,-1.06803 1,-1.61803 z m 27.78159,-0.44155 c 1.72578,-1.20877 2.08418,-2.16473 1.5934,-4.25 -0.91634,-3.89343 -1.50864,-4.2016 -5.12499,-2.66653 -3.41758,1.4507 -4.37491,3.47611 -1.64301,3.47611 1.05812,0 1.39856,0.54315 0.99675,1.59024 -0.63643,1.65853 -0.003,3.40976 1.23277,3.40976 0.39516,0 1.72045,-0.70181 2.94508,-1.55958 z M 255.42856,139.75 c -0.40169,-1.7875 -0.73745,-3.8125 -0.74612,-4.5 -0.0199,-1.57587 -0.93808,-1.59436 -2.48244,-0.05 -1.66302,1.66302 -1.49929,3.81181 0.45499,5.97126 2.51248,2.77626 3.59248,2.22283 2.77357,-1.42126 z M 82.770691,133.5 c 0.135717,-1.63985 -0.305332,-2.5 -1.281893,-2.5 -1.603312,0 -1.840574,0.91971 -0.881809,3.41821 0.902455,2.35176 1.929129,1.91607 2.163702,-0.91821 z M 265,131.47617 c 0,-0.77319 0.9126,-1.89421 2.02801,-2.49116 2.21478,-1.18531 1.78053,-3.23251 -0.50004,-2.35737 -1.95619,0.75066 -4.74131,5.21815 -4.00043,6.41692 0.79876,1.29243 2.47246,0.23073 2.47246,-1.56839 z m 14.04159,0.98619 c 1.40178,-1.2686 2.16395,-1.32583 4.35587,-0.32713 1.94045,0.88413 2.95491,0.9124 3.76245,0.10486 1.69811,-1.69811 0.19497,-4.4875 -2.03656,-3.77924 -1.24204,0.39421 -2.10897,0.019 -2.53771,-1.09827 -0.49633,-1.29342 -0.9288,-1.41942 -1.81842,-0.5298 -0.64197,0.64197 -1.92212,1.16722 -2.84478,1.16722 -2.69081,0 -4.432,2.68109 -2.92244,4.5 1.55391,1.87235 1.935,1.8688 4.04159,-0.0376 z M 85.5,132 c 0.339919,-0.55 0.141476,-1 -0.440983,-1 C 84.476558,131 84,131.45 84,132 c 0,0.55 0.198442,1 0.440983,1 0.242541,0 0.719098,-0.45 1.059017,-1 z m 18.88123,-2.1427 c 1.53982,-4.37846 0.2721,-5.8573 -5.021105,-5.8573 -2.904932,0 -5.37764,-0.61086 -6.468371,-1.59796 -2.27893,-2.0624 -3.952207,-0.9909 -3.769285,2.4137 0.07932,1.47634 -0.171463,3.42624 -0.557298,4.33311 -1.358804,3.19373 1.591234,3.08825 4.29771,-0.15367 2.790242,-3.34226 6.538483,-3.88884 6.733009,-0.98183 0.316611,4.73145 0.48803,5.11714 2.13345,4.80026 0.95113,-0.18317 2.14448,-1.51351 2.65189,-2.95631 z m 96.35138,0.68786 c 0.12793,-0.0974 -0.30974,-1.61388 -0.9726,-3.37002 -1.02787,-2.72314 -0.92857,-3.70667 0.67486,-6.68406 3.39995,-6.31333 9.89436,-3.92331 8.15632,3.00163 -0.32418,1.2916 -0.31666,3.05912 0.0167,3.92783 0.75838,1.9763 3.39212,2.08382 3.39212,0.13848 0,-2.26268 2.16194,-3.02104 3.22041,-1.12964 0.89549,1.60014 1.04582,1.59309 2.33652,-0.10961 0.75871,-1.00087 1.39377,-2.75383 1.41127,-3.89546 0.0175,-1.14162 1.13189,-3.10916 2.47644,-4.3723 1.93948,-1.82205 3.02433,-2.13518 5.25,-1.51536 1.54295,0.42969 3.63077,0.67501 4.63961,0.54517 1.00884,-0.12985 3.58669,0.92363 5.72856,2.34105 4.56747,3.02261 7.61827,3.23556 11.84983,0.82713 3.10755,-1.76869 3.91995,-3.6174 2.08736,-4.75 -0.55,-0.33992 -1,-1.92564 -1,-3.52383 0,-3.09673 2.99227,-5.57685 5.54612,-4.59685 2.40476,0.9228 2.75378,-1.43118 0.55865,-3.7678 C 254.94715,102.37929 254,100.63377 254,99.732602 c 0,-0.901173 -0.5338,-2.810065 -1.18623,-4.241984 -1.06682,-2.341416 -1.56991,-2.538665 -4.9978,-1.959527 -2.96092,0.500245 -3.94691,0.291253 -4.41803,-0.93645 -0.40669,-1.059833 -1.34651,-1.39467 -2.85316,-1.016524 -1.46094,0.366672 -3.61037,-0.330376 -6.14574,-1.99303 -6.19869,-4.064983 -6.32461,-4.248474 -5.70865,-8.318325 C 229.43223,76.365147 231,74.633664 231,78.715971 c 0,2.427557 0.86204,3.798715 3.90184,6.206283 3.76085,2.978652 7.11556,3.319949 7.08451,0.720757 C 241.95476,82.999468 240.68399,80 239.59559,80 c -0.64412,0 -2.72914,-1.331712 -4.63336,-2.959359 -1.90423,-1.627648 -4.1864,-2.977648 -5.0715,-3 -0.8851,-0.02235 -3.53076,1.479887 -5.87924,3.338311 -3.39431,2.686012 -4.80743,3.235214 -6.89073,2.678053 -3.78092,-1.011173 -3.53106,-4.368094 0.37924,-5.095211 l 3,-0.557848 -3.20034,-1.701973 c -4.50752,-2.397143 -6.55579,-2.118107 -8.41227,1.146 -1.4815,2.604806 -2.25388,2.899205 -9.5,3.620993 -4.33806,0.432116 -8.92616,0.774342 -10.19577,0.760502 C 186.40784,78.199122 183,75.328547 183,73.013992 c 0,-0.921818 -1.12018,-2.275533 -2.48928,-3.008255 -2.1613,-1.156693 -2.96011,-1.080139 -6.06276,0.58102 -4.80446,2.572319 -7.4575,5.528067 -5.55603,6.189986 0.87429,0.30435 0.2235,0.975833 -1.75,1.805627 -2.96046,1.244781 -4.67142,3.941782 -1.80214,2.840736 0.73688,-0.282768 1.86553,0.119365 2.50811,0.893629 0.93163,1.122543 0.40694,2.259404 -2.58978,5.611367 -2.06697,2.311988 -4.43312,4.299132 -5.25812,4.415876 -0.825,0.116745 -2.02189,0.538568 -2.65976,0.937387 -1.6054,1.003757 -4.1982,-0.147442 -5.4032,-2.399014 -1.42933,-2.670719 0.39235,-5.575311 4.59903,-7.332974 C 158.44123,82.753349 160,81.629091 160,81.051027 c 0,-1.328785 -0.92519,-1.321669 -4.82294,0.03709 -2.83567,0.98852 -3.34202,0.831623 -5.53172,-1.714053 -2.16909,-2.521711 -2.67231,-2.682809 -5.02784,-1.609561 -2.18528,0.995681 -2.6175,1.84998 -2.6175,5.173584 0,3.058041 -0.63755,4.572137 -2.75,6.530914 -1.5125,1.402469 -2.76595,2.88318 -2.78544,3.290469 -0.0195,0.407289 -0.56615,1.693858 -1.21481,2.859042 -1.68786,3.031894 -0.42583,3.64305 2.79174,1.351938 3.76166,-2.678536 4.28845,-2.544855 7.34345,1.863516 2.73612,3.948224 2.76519,4.373704 1.02774,15.039144 -0.30222,1.85521 -1.05227,4.17818 -1.66678,5.16216 -0.9053,1.44961 -0.59041,2.47981 1.65966,5.4298 3.1744,4.16185 4.77849,4.15055 5.65469,-0.0398 0.74352,-3.55589 4.78503,-11.64642 6.32408,-12.65992 1.82985,-1.20498 6.98183,-0.80311 8.96492,0.69931 1.49789,1.13482 1.71987,2.1668 1.1683,5.4315 -0.88326,5.22795 -0.15671,6.35222 3.13563,4.85213 2.24442,-1.02262 2.8105,-0.89385 4.33231,0.9855 0.9628,1.18901 2.60893,2.09718 3.65806,2.01815 1.7906,-0.13488 8.45899,3.85411 9.18944,5.49708 0.26635,0.59907 11.02377,-0.0372 11.89962,-0.70382 z M 181,113.5 c 0,-0.83333 0.88889,-1.5 2,-1.5 1.11111,0 2,0.66667 2,1.5 0,0.83333 -0.88889,1.5 -2,1.5 -1.11111,0 -2,-0.66667 -2,-1.5 z m 5.35674,-7.01273 c -0.31927,-0.83201 -0.0403,-2.16358 0.61984,-2.95905 1.42777,-1.72035 0.52829,-6.864327 -1.49375,-8.542466 -1.1158,-0.926037 -1.74166,-0.417097 -3.18572,2.590587 C 178.44861,105.59201 174,104.41464 174,95.380423 c 0,-5.120655 0.153,-5.437117 3.23708,-6.695554 2.9428,-1.200788 3.39433,-1.132867 4.96673,0.747132 0.97216,1.162332 1.74422,1.52057 1.76292,0.817999 0.0732,-2.750609 3.75394,-1.091735 5.84913,2.636155 2.66132,4.735177 2.75693,9.847485 0.24058,12.863845 -2.20735,2.64597 -2.91328,2.78664 -3.6997,0.73727 z M 159.01365,102.75 c 0.0318,-2.910094 1.3174,-5.75 2.60298,-5.75 1.97692,0 1.80233,5.62525 -0.19842,6.39301 -2.19308,0.84157 -2.42011,0.78085 -2.40456,-0.64301 z M 170,84.559017 C 170,83.701558 170.45,83 171,83 c 0.55,0 1,0.423442 1,0.940983 0,0.517541 -0.45,1.219098 -1,1.559017 -0.55,0.339919 -1,-0.08352 -1,-0.940983 z m 3.66667,-3.225684 c -1.36472,-1.364715 -0.59747,-2.462252 1.505,-2.152884 C 177.91977,79.584819 178.84345,82 176.25,82 c -1.05417,0 -2.21667,-0.3 -2.58333,-0.666667 z M 85.70389,118.73093 C 87.13608,113.94365 87.414703,99.202775 86.111861,97.146755 85.443003,96.091227 84.786364,96.043967 83.127174,96.931939 81.186039,97.970802 81,98.903894 81,107.60093 c 0,5.2418 -0.485867,10.4384 -1.079704,11.548 -0.847939,1.58439 -0.702752,2.43397 0.676371,3.95789 2.185223,2.41464 3.382666,1.38867 5.107223,-4.37589 z M 279,119.58145 c 0,-1.5398 0.71846,-2.53607 2.08697,-2.89394 2.4791,-0.6483 2.2337,-4.337 -0.26075,-3.9195 -0.88071,0.1474 -2.88939,-0.22615 -4.46375,-0.83013 l -2.86247,-1.09813 2.5334,-1.33833 c 2.11976,-1.1198 2.52796,-2.03861 2.5,-5.62723 -0.0279,-3.58352 -0.47071,-4.535068 -2.69231,-5.785614 -2.44836,-1.378185 -3.01561,-1.313253 -7.16328,0.819974 -2.4774,1.27417 -4.94405,2.04494 -5.48144,1.71281 -1.11589,-0.689655 -1.9735,3.99481 -1.80852,9.87864 0.14275,5.09138 2.46178,5.37159 4.13796,0.5 1.01695,-2.9556 1.63302,-3.46813 3.9608,-3.29509 1.5161,0.1127 2.94368,0.39205 3.17241,0.62077 0.72595,0.72596 -2.08388,6.11232 -4.03574,7.73639 -1.31407,1.0934 -1.66899,2.21854 -1.18293,3.75 0.38194,1.20336 1.1141,2.18793 1.62704,2.18793 0.88571,0 1.012,-0.31255 1.30761,-3.2363 0.0688,-0.67997 0.8,-1.36088 1.625,-1.51314 1.64359,-0.30333 4.30321,4.44981 3.35153,5.98967 -0.32609,0.52762 0.36142,0.44858 1.52779,-0.17565 C 278.11593,122.40277 279,120.95072 279,119.58145 Z M 62.40895,119.14732 c 0.289841,-0.46897 -0.12505,-1.70647 -0.92198,-2.75 -1.236976,-1.61974 -1.589678,-1.68277 -2.410764,-0.43086 -0.628179,0.95779 -0.592298,1.91169 0.103441,2.75 1.231821,1.48425 2.475701,1.65022 3.229303,0.43086 z m 35.001294,-3.45869 C 100.42069,113.24628 100.29169,111 97.140983,111 96.183442,111 94.86,110.46 94.2,109.8 c -1.799517,-1.79952 -3.4,0.33463 -3.4,4.53369 0,4.36951 0.870375,5.99741 2.502864,4.68119 0.658425,-0.53086 2.506746,-2.02767 4.10738,-3.32625 z m 13.125146,-0.57712 C 109.28265,111.16447 103,113.003 103,117.31663 c 0,1.42399 0.51382,1.78227 1.999,1.39388 1.09946,-0.28751 2.2777,-0.0718 2.61833,0.47933 1.10334,1.78524 3.6496,-1.77346 2.91806,-4.07833 z m 24.9219,2.95759 c 0.31644,-0.512 0.11799,-1.21356 -0.44098,-1.55902 C 133.62686,115.65135 133.7268,112 135.13976,112 c 0.62686,0 1.72436,0.7875 2.43888,1.75 1.15413,1.55468 1.46426,1.58258 2.77864,0.25 1.84816,-1.87376 2.23173,-4.56363 1.24772,-8.75 -0.5955,-2.53353 -1.28452,-3.25 -3.12544,-3.25 -2.80687,0 -3.49808,0.93411 -5.49091,7.42052 -1.78988,5.8258 -3.98865,7.25746 -3.98865,2.59707 0,-1.73199 0.49169,-4.0678 1.09264,-5.19069 0.66973,-1.25139 0.73445,-2.39981 0.16722,-2.96704 -1.49923,-1.49923 -3.75632,-0.0322 -4.99354,3.24554 -0.63359,1.67857 -2.07771,3.29402 -3.20915,3.5899 -1.13144,0.29588 -2.05717,0.91795 -2.05717,1.38238 0,1.7408 4.4716,4.92288 6.93856,4.93763 1.40879,0.008 3.23644,0.45153 4.06144,0.98469 1.90849,1.23336 3.72038,1.26145 4.45729,0.0691 z M 69,117.03138 c 0,-0.53273 -0.675,-0.70959 -1.5,-0.39301 -0.825,0.31659 -1.5,0.75246 -1.5,0.96862 0,0.21615 0.675,0.39301 1.5,0.39301 0.825,0 1.5,-0.43588 1.5,-0.96862 z m 190.36408,-1.20097 c -1.17475,-0.56883 -2.72338,-2.22587 -3.44138,-3.68232 l -1.30547,-2.64809 -0.40358,2.44397 c -0.45769,2.77156 1.97734,5.09519 5.22748,4.98835 2.03351,-0.0669 2.03257,-0.0804 -0.077,-1.10191 z M 77.195848,100.62656 c 0.381091,-3.917461 -3.331596,-7.588715 -5.692701,-5.629172 -1.570491,1.303392 -1.742133,7.055222 -0.325215,10.898182 l 0.883259,2.39557 2.415252,-2.26901 c 1.328389,-1.24796 2.552122,-3.67596 2.719405,-5.39557 z M 95,106.14922 C 95,103.41337 92.942175,98 91.902175,98 c -1.270245,0 -1.128203,4.74227 0.165999,5.54213 0.587495,0.3631 0.843501,1.24566 0.568901,1.96125 C 92.10672,106.88547 92.789557,108 94.166667,108 94.625,108 95,107.16715 95,106.14922 Z m 27.92963,-3.01774 c 1.33341,-2.49149 0.11897,-3.562429 -1.54895,-1.36594 -1.5789,2.07926 -1.72743,3.23446 -0.41586,3.23446 0.53065,0 1.41481,-0.84083 1.96481,-1.86852 z m 170.51383,-1.06901 c 1.38552,-1.53098 1.6035,-2.842415 1.03886,-6.249999 -0.39302,-2.371859 -1.15625,-5.15247 -1.69607,-6.179136 -0.85293,-1.622164 -1.16956,-1.678599 -2.4173,-0.430861 -2.05995,2.059955 -2.58751,6.272157 -1.3576,10.839666 1.2018,4.46314 1.92362,4.79218 4.43211,2.02033 z m -191.68799,-1.56129 c -0.26272,-1.374356 0.12051,-3.286856 0.85162,-4.250003 2.22447,-2.930435 1.71946,-7.807196 -0.99247,-9.584119 -2.536147,-1.661747 -3.799004,-1.311131 -2.978545,0.826953 0.274051,0.714164 -0.43439,1.951743 -1.574312,2.750175 -1.670259,1.169895 -1.950824,2.1121 -1.445328,4.853755 C 96.433968,99.531986 98.638521,103 100.63963,103 c 1.16033,0 1.46367,-0.67929 1.11584,-2.49882 z m 10.54767,-2.52358 c 0.82304,-1.175063 2.04866,-1.77983 2.92528,-1.443442 1.00151,0.384317 1.71642,-0.196488 2.1265,-1.7276 1.01828,-3.801924 0.80881,-4.390661 -3.35492,-9.429343 -2.2,-2.662305 -4,-5.411302 -4,-6.108884 0,-1.679909 -1.02784,-1.600021 -5.01677,0.389923 l -3.32405,1.658253 2.5257,2.091747 c 2.61703,2.167392 4.42146,7.696653 4.35397,13.341746 -0.0443,3.70547 1.64324,4.25581 3.76429,1.2276 z M 92.249313,93.476133 c 0.565615,-2.958824 -0.744738,-4.139783 -2.748335,-2.476945 -1.12472,0.933435 -1.168524,1.560294 -0.215648,3.08609 1.60589,2.571439 2.38665,2.41098 2.963983,-0.609145 z M 123.5,95 c 0.33992,-0.55 0.14148,-1 -0.44098,-1 C 122.47656,94 122,94.45 122,95 c 0,0.55 0.19844,1 0.44098,1 0.24254,0 0.7191,-0.45 1.05902,-1 z m 160.51244,-7.513244 c 1.77553,-1.889961 2.07667,-2.797647 1.21428,-3.660034 -1.56466,-1.564662 -7.09234,-1.619851 -7.68438,-0.07672 -0.26376,0.6875 -0.0171,1.25 0.54806,1.25 0.5652,0 0.76874,0.418906 0.45231,0.930902 -0.31644,0.511996 -0.11065,1.21809 0.45729,1.569098 0.56794,0.351008 0.77373,1.057102 0.45729,1.569098 -1.2522,2.026108 2.33625,0.779572 4.55515,-1.582342 z M 258.07332,84 C 258.583,84 259,83.4949 259,82.877555 259,82.102049 258.53636,82.139896 257.5,83 c -0.825,0.684689 -1.4478,1.977289 -1.384,2.872445 0.0979,1.373157 0.18749,1.354019 0.57333,-0.122445 0.25152,-0.9625 0.87432,-1.75 1.38399,-1.75 z M 133.97776,79.356989 c 0.0122,-0.628656 -0.66645,-1.407286 -1.50818,-1.730289 -1.91007,-0.732964 -4.02587,3.481239 -3.03899,6.053005 0.63118,1.644846 0.86565,1.583181 2.60922,-0.68623 1.05364,-1.371411 1.92572,-3.00783 1.93795,-3.636486 z M 94.904028,79.5 C 94.681813,78.95 93.375,78.5 92,78.5 c -1.802036,0 -2.586121,-0.604562 -2.808471,-2.165449 -0.169659,-1.190996 -1.021567,-2.439089 -1.893128,-2.773538 -1.998262,-0.766805 -1.985047,-0.783738 -2.801934,3.589983 -0.618798,3.313127 -0.418833,3.785163 2.160815,5.100804 2.514503,1.282416 3.178012,1.264983 5.746746,-0.150996 1.597215,-0.880442 2.722215,-2.050804 2.5,-2.600804 z M 262.3768,76.460467 c 0.32492,-0.846743 0.0674,-2.377599 -0.5723,-3.401904 -0.92874,-1.487146 -0.80348,-2.411172 0.62169,-4.586262 1.04274,-1.591417 1.3874,-2.983408 0.82899,-3.348096 C 262.72951,64.780892 261.76621,63.4875 261.11452,62.25 260.46283,61.0125 259.00971,60 257.88536,60 c -1.75117,0 -1.9498,0.43013 -1.38536,3 0.51509,2.345191 0.31416,3 -0.92054,3 C 254.71075,66 254,65.55 254,65 c 0,-0.55 -0.675,-1 -1.5,-1 -0.825,0 -1.5,0.659167 -1.5,1.464816 0,0.805649 -0.90668,1.950055 -2.01484,2.543124 -1.58546,0.848515 -2.14102,0.74946 -2.60699,-0.464816 -0.83672,-2.180462 -1.73532,-1.946058 -5.29804,1.382022 -1.82026,1.700376 -2.69899,3.192379 -2.09869,3.563382 0.56798,0.35103 1.28502,-0.01935 1.59344,-0.823063 0.42286,-1.101963 2.08096,-1.402602 6.74294,-1.222597 3.4002,0.131286 6.72497,-0.178392 7.38838,-0.688173 1.85496,-1.425409 3.45468,0.148603 3.14561,3.095073 -0.47045,4.484995 3.0971,7.331709 4.52499,3.610699 z M 115,73.940983 C 115,73.423442 114.55,73 114,73 c -0.55,0 -1,0.701558 -1,1.559017 0,0.857459 0.45,1.280902 1,0.940983 0.55,-0.339919 1,-1.041476 1,-1.559017 z m 42.41821,1.452028 C 158.2882,75.059167 159,74.384167 159,73.893011 159,72.4622 156.35856,72.86303 155,74.5 c -1.31975,1.590206 -0.34077,1.951731 2.41821,0.893011 z m 40.55037,-5.468697 c 0.0173,-0.316627 -1.05141,-1.592949 -2.37486,-2.836269 l -2.40628,-2.260584 -2.09695,2.83627 c -2.7266,3.68793 -2.70755,4.712986 0.10049,5.406704 2.08096,0.514093 6.6947,-1.627583 6.7776,-3.146121 z M 280.75,72.056438 c 2.61723,-2.18338 2.85919,-3.608692 0.75,-4.418064 -2.50298,-0.960483 -3.98895,0.230797 -4.20974,3.374882 -0.24259,3.454412 0.35382,3.634241 3.45974,1.043182 z m -144.36057,-1.62888 c 0.33187,-0.864843 0.13918,-2.439843 -0.4282,-3.5 C 134.87249,64.893228 133,64.3067 133,66 c 0,0.55 -0.64844,1 -1.44098,1 -1.85213,0 -2.89123,1.691879 -2.17902,3.547887 0.75921,1.978454 6.24015,1.884364 7.00943,-0.120329 z M 97.384891,66.955635 c 0.70544,-2.179085 1.761351,-3.459529 2.858359,-3.466176 0.95682,-0.0058 1.79348,-0.350791 1.85926,-0.766653 0.29403,-1.85905 -1.3026,-9.728433 -2.07005,-10.202742 -2.552727,-1.577674 -5.132336,2.0546 -6.546872,9.218468 C 92.74762,65.475952 91,67.107487 91,64.059017 91,62.926558 90.55,62 90,62 c -1.46654,0 -1.223173,4.979441 0.25,5.115154 0.6875,0.06333 2.100157,0.02443 3.139238,-0.08645 1.472581,-0.15714 1.765612,0.271141 1.328686,1.94195 -0.929606,3.554818 1.444533,1.761041 2.666967,-2.015023 z M 236.1038,68.703799 c -1.28349,-1.283486 -2.58505,-0.291503 -1.63484,1.245982 0.36808,0.595563 1.12735,0.799712 1.68727,0.453663 0.683,-0.422119 0.66575,-0.981465 -0.0524,-1.699645 z M 119,69 c 0,-0.55 -0.42344,-1 -0.94098,-1 -0.51754,0 -1.2191,0.45 -1.55902,1 -0.33992,0.55 0.0835,1 0.94098,1 C 118.29844,70 119,69.55 119,69 Z m 107.50112,-2.998765 c -1.69507,-1.873028 -1.16425,-4.532789 1.0762,-5.392531 1.51582,-0.581677 1.9892,-6.140542 0.59622,-7.001449 -3.16197,-1.954206 -7.95751,4.008779 -5.33389,6.632397 0.79096,0.790959 0.34216,1.805494 -1.62321,3.669388 -2.66135,2.523923 -2.67228,2.582606 -0.53906,2.893599 1.19756,0.174586 2.71976,0.970963 3.38268,1.769727 0.92609,1.115876 1.52788,1.184578 2.59785,0.296583 1.18413,-0.982746 1.16067,-1.411937 -0.15679,-2.867714 z m -69.09001,-0.07796 c 3.11592,-3.703062 3.2153,-4.94244 0.57746,-7.201034 -2.54261,-2.177053 -3.6572,-2.170786 -4.9365,0.02776 -2.74714,4.721117 -3.80164,5.454392 -6.08581,4.231941 -1.7737,-0.949256 -2.11224,-0.916277 -1.75484,0.170953 0.24355,0.740909 1.64561,1.489496 3.1157,1.663528 C 149.7972,64.990456 151,65.740456 151,66.48309 c 0,1.207605 1.30844,2.216724 3.16111,2.437964 0.3636,0.04342 1.8261,-1.305579 3.25,-2.997779 z m -33.60078,-0.18867 c 0.31351,-1.616047 -3.49125,-4.387017 -4.55842,-3.319851 -0.31723,0.317236 -0.0472,1.739043 0.6,3.15957 1.24882,2.740855 3.44058,2.829602 3.95842,0.160281 z m 49.08646,-6.239011 c 1.54346,-6.129632 1.51912,-6.203226 -2.48885,-7.525978 -2.66021,-0.877946 -3.88384,-0.893718 -4.71676,-0.0608 -1.61446,1.614456 -1.02692,9.649142 0.92323,12.625455 1.53187,2.337922 1.79094,2.408867 3.41833,0.936096 0.96847,-0.876448 2.25729,-3.565098 2.86405,-5.974776 z m 36.51745,2.667187 c -0.39538,-2.101963 0.25917,-3.399929 3.10779,-6.162781 1.98476,-1.925 4.67643,-4.548192 5.98149,-5.829316 3.14354,-3.085879 2.25915,-5.497106 -1.69747,-4.628084 -2.08751,0.458493 -3.501,0.138454 -4.87321,-1.103381 -2.59313,-2.346748 -2.46086,-0.380206 0.20213,3.005238 1.97608,2.512182 2.01329,2.835851 0.5,4.349144 C 211.12168,53.306895 211,53.300992 211,51.714286 211,48.960756 207.10491,49.67618 204,53 c -4.39582,4.705736 -9.17249,3.269541 -7.42611,-2.232798 0.48081,-1.51492 0.20647,-1.872782 -1.22733,-1.600933 -1.2384,0.234802 -1.94677,1.377678 -2.15083,3.470124 -0.25556,2.620491 0.5016,3.900002 4.72925,7.991811 7.22334,6.991236 12.65205,7.716328 11.48926,1.534577 z m -21.70191,2.400879 c 0.11678,-0.08524 -0.43528,-1.403255 -1.2268,-2.928916 C 185.694,60.109082 185.08925,58.55463 185.14162,58.180407 185.43171,56.107596 184.81736,55 183.37756,55 c -1.21957,0 -1.35399,0.323475 -0.54132,1.302684 0.78515,0.94604 0.69362,2.049615 -0.3343,4.030933 -1.95631,3.77079 -0.99565,5.820312 2.35232,5.018591 1.45516,-0.348458 2.74129,-0.703305 2.85807,-0.788548 z M 139.3949,61.25 c -0.67276,-2.876394 -2.99395,-5.984288 -3.83861,-5.139623 -0.27023,0.270231 0.0196,2.155945 0.64397,4.190476 1.35038,4.399945 4.19976,5.246512 3.19464,0.949147 z m 99.42332,-2.868221 C 238.6432,56.2468 238.05763,54.5 237.51696,54.5 c -1.41193,0 -2.39616,7.220802 -1.15359,8.463372 1.68198,1.681977 2.79763,-0.400218 2.45485,-4.581593 z m 16.0111,-2.846439 c -0.12833,-1.905563 0.0515,-3.749511 0.39967,-4.097663 0.34815,-0.348151 2.97972,-0.129721 5.84793,0.4854 2.86822,0.615121 5.44651,0.886828 5.72954,0.603793 1.0502,-1.0502 -2.97404,-4.295806 -4.75042,-3.831274 -1.00668,0.263252 -2.13267,-0.01056 -2.5022,-0.608478 C 259.18431,47.489203 257.78352,47 256.44098,47 254.5217,47 254,47.520118 254,49.433578 c 0,1.906406 -0.59125,2.502122 -2.72941,2.75 -2.28223,0.26458 -2.77175,0.848892 -2.98786,3.566422 -0.24652,3.099956 -0.096,3.25 3.26073,3.25 3.39333,0 3.51085,-0.123915 3.28586,-3.46466 z M 111.30984,50.564197 c 1.27014,-0.962999 1.46371,-1.586115 0.64913,-2.089552 -0.63838,-0.394546 -2.11531,0.237253 -3.28206,1.403999 -2.46359,2.463589 -0.41553,2.996855 2.63293,0.685553 z M 125.8,50.8 c 1.85583,-1.855834 1.42594,-3.780462 -1.05,-4.700823 -4.12113,-1.531916 -6.99849,1.509479 -4.13608,4.371884 1.83875,1.83875 3.56667,1.948347 5.18608,0.328939 z M 159,50 c 0,-0.55 1.07622,-1 2.39159,-1 1.72856,0 2.56875,-0.705834 3.0306,-2.545989 C 165.24447,43.177765 164.46546,42 161.47617,42 c -2.8844,0 -5.17335,3.455023 -3.56936,5.387716 0.73435,0.884834 0.69547,1.610003 -0.1306,2.436078 C 156.8746,50.725402 156.88015,51 157.8,51 c 0.66,0 1.2,-0.45 1.2,-1 z m 19.61047,-6.572726 c -0.60569,-1.578405 -5.1633,-1.959835 -6.06104,-0.507254 -0.31273,0.50601 0.89821,2.073549 2.69098,3.483418 3.16656,2.490235 3.26898,2.504713 3.58867,0.507254 0.181,-1.130879 0.0826,-2.698417 -0.21861,-3.483418 z M 114.5,47 c 0.33992,-0.55 0.14148,-1 -0.44098,-1 C 113.47656,46 113,46.45 113,47 c 0,0.55 0.19844,1 0.44098,1 0.24254,0 0.7191,-0.45 1.05902,-1 z m 78.96969,-2.577367 c 2.78779,-5.874825 1.12403,-8.597301 -3.57642,-5.852254 -1.3163,0.768712 -3.18077,1.682334 -4.14327,2.030271 -1.08198,0.39113 -1.75,1.669642 -1.75,3.349315 0,3.436551 0.11925,3.534928 4.39252,3.623798 3.04477,0.06332 3.76349,-0.38275 5.07717,-3.15113 z M 207.77083,43.1875 c 0.59996,-1.799861 -1.467,-1.421654 -2.16452,0.39606 -0.37373,0.973914 -0.15024,1.431083 0.58051,1.1875 0.6535,-0.217833 1.3663,-0.930435 1.58401,-1.58356 z M 236,39.559017 c 0,-1.754604 -0.5872,-2.128047 -4.75,-3.020875 -3.46458,-0.743075 -4.46427,0.847586 -2.05,3.261858 1.72019,1.720194 6.8,1.540173 6.8,-0.240983 z M 134.23469,33.592752 C 135.49727,31.714827 135.08036,31 132.72251,31 c -2.72881,0 -6.98326,2.769079 -6.20047,4.035667 0.70449,1.139884 6.73464,0.01174 7.71265,-1.442915 z m 42.88473,-3.024851 C 178.84046,27.72258 178.79858,26 177.00837,26 c -0.48048,0 -1.13544,0.825 -1.45547,1.833333 -0.39496,1.244415 -1.55162,1.833334 -3.60072,1.833334 -3.44657,0 -6.15403,1.972517 -4.28931,3.124974 0.63038,0.389597 2.61694,0.708359 4.41458,0.708359 2.54486,0 3.66106,-0.649114 5.04197,-2.932099 z M 212,30.881966 c 0,-0.55 -0.45,-0.721885 -1,-0.381966 -0.55,0.339919 -1,1.068034 -1,1.618034 0,0.55 0.45,0.721885 1,0.381966 0.55,-0.339919 1,-1.068034 1,-1.618034 z m -14,-1.897279 c 1.33333,-0.875277 1.33333,-1.094097 0,-1.969374 -1.81213,-1.18959 -5,-1.326867 -5,-0.215313 0,0.914583 2.12411,3.207681 2.95,3.184687 0.3025,-0.0084 1.225,-0.458422 2.05,-1 z M 204.5,29 c 0.78218,-1.265597 -0.54163,-1.265597 -2.5,0 -1.29269,0.835399 -1.26629,0.971491 0.19098,0.984687 C 203.12102,29.993109 204.16008,29.55 204.5,29 Z m 635.43194,229.87283 c -0.88797,-1.65919 -0.84071,-2.31583 0.21481,-2.98469 2.7965,-1.77206 4.89558,-0.1742 3.75958,2.86186 -1.05708,2.82513 -2.50423,2.86986 -3.97439,0.12283 z m -92.37915,-8.78742 c -0.32198,-0.52097 -0.15917,-1.21065 0.3618,-1.53262 0.52097,-0.32198 1.21065,-0.15917 1.53262,0.3618 0.32198,0.52097 0.15917,1.21065 -0.3618,1.53262 -0.52097,0.32198 -1.21065,0.15917 -1.53262,-0.3618 z M 356.93693,226.63778 c -0.30969,-0.32849 -6.38469,-0.85337 -13.5,-1.1664 -18.75426,-0.82506 -17.56661,-0.58577 -17.22923,-3.47138 0.21367,-1.82752 0.83028,-2.44151 2.2923,-2.28256 5.18554,0.56378 18.36144,1.35259 32,1.91577 8.25,0.34066 15.7875,1.02839 16.75,1.52828 1.02407,0.53186 2.47593,0.54164 3.5,0.0236 1.81739,-0.91939 20.92793,-0.67473 32.25,0.41288 6.47943,0.62242 7.76141,0.97397 6.85545,1.87994 -0.71688,0.71687 -62.26647,1.85153 -62.91852,1.15989 z m 237.76258,-2.97846 c -0.28296,-0.73738 -0.20024,-1.84913 0.18383,-2.47056 1.31297,-2.12442 10.3783,-4.67377 20.46718,-5.75576 2.11779,-0.22712 5.49279,-0.85329 7.5,-1.39149 C 629.51591,212.25432 642.64709,210 646.39194,210 c 2.03081,0 6.93591,-0.64722 10.90022,-1.43826 3.96431,-0.79104 10.05306,-1.70191 13.53056,-2.02415 6.14644,-0.56955 6.31371,-0.52249 6,1.68826 -0.29289,2.06395 -1.01594,2.33515 -7.82272,2.93407 -4.125,0.36295 -9.75,1.15453 -12.5,1.75906 -5.57119,1.22471 -20.8419,3.2109 -27,3.51176 -2.2,0.10748 -5.575,0.49766 -7.5,0.86706 -1.925,0.3694 -5.525,0.87149 -8,1.11576 -8.49476,0.8384 -15.07129,2.72773 -16.29051,4.68002 -1.4019,2.2448 -2.30083,2.41375 -3.00998,0.56574 z m -163.83654,-7.12968 c -0.2587,-0.2587 -2.9212,-0.7588 -5.91666,-1.11134 -2.99547,-0.35255 -6.15674,-1.26588 -7.02505,-2.02964 C 417.05295,212.6249 415.24629,212 413.90645,212 c -3.16102,0 -9.56935,-3.40322 -13.55636,-7.19927 -2.28136,-2.17209 -3.72065,-2.81789 -5.21977,-2.34209 -1.4797,0.46964 -3.78918,-0.51063 -8.10009,-3.43811 C 383.7136,196.76825 381,194.50139 381,193.98306 c 0,-0.51833 -1.6875,-1.80392 -3.75,-2.85686 -2.0625,-1.05295 -5.46954,-3.5371 -7.5712,-5.52033 -2.10166,-1.98323 -4.80166,-3.61201 -6,-3.61952 -3.94357,-0.0247 -6.6788,-1.19312 -6.67883,-2.85298 C 356.99994,177.46735 350.93601,172 349.08823,172 347.49158,172 341,165.94475 341,164.45542 c 0,-3.96001 6.82854,-2.03299 12.72946,3.59227 2.6238,2.50122 7.24554,6.09066 10.27054,7.97653 3.025,1.88586 9.22517,6.2519 13.77815,9.70231 4.55298,3.45041 8.95162,6.27347 9.77475,6.27347 0.82313,0 1.92433,1.125 2.4471,2.5 0.52277,1.375 1.64274,2.5 2.48882,2.5 1.60815,0 3.02737,0.58817 8.01118,3.32007 1.65,0.90446 4.575,2.34622 6.5,3.2039 1.925,0.85769 5.075,2.40235 7,3.43258 1.925,1.03022 6.425,2.61959 10,3.53192 7.14388,1.82309 11.38813,4.07451 10.47285,5.55546 -0.61817,1.00023 -2.80158,1.294 -3.60988,0.48571 z m 105.47575,-2.08934 c -0.35007,-0.91227 0.42064,-2.67643 1.85671,-4.25 1.35037,-1.47966 3.86104,-4.9403 5.57928,-7.6903 1.71823,-2.75 5.17184,-7.00619 7.67467,-9.45821 2.50284,-2.45201 4.55062,-4.79406 4.55062,-5.20454 0,-0.41049 1.07386,-1.94293 2.38636,-3.40543 4.61579,-5.14331 7.01299,-8.53563 8.57139,-12.12952 0.52414,-1.20874 2.06637,-2.92722 3.42718,-3.81886 1.36081,-0.89164 3.37914,-3.4502 4.48517,-5.68569 2.70237,-5.46197 8.36335,-13.42797 15.6299,-21.99403 7.8031,-9.19858 10.58367,-12.69437 18.84455,-23.6918 3.76451,-5.01156 7.23304,-9.11192 7.70785,-9.11192 0.47481,0 2.09733,-2.1375 3.60561,-4.75 1.50827,-2.6125 3.3171,-5.104188 4.01962,-5.537084 0.70253,-0.432896 2.59267,-2.698883 4.20032,-5.035526 1.60766,-2.336644 5.13846,-6.482456 7.84625,-9.212917 2.70778,-2.73046 6.00025,-6.539473 7.3166,-8.464473 1.31636,-1.925 2.97069,-4.094643 3.67629,-4.821429 C 648.42269,69.451786 649,68.52641 649,68.12218 c 0,-0.404229 2.5875,-4.192967 5.75,-8.419417 3.1625,-4.22645 6.5781,-8.839551 7.59023,-10.251336 1.1969,-1.669527 2.59526,-2.459303 4,-2.259154 1.80454,0.257113 2.14041,0.931232 2.04209,4.09854 -0.0973,3.135562 -0.83196,4.40221 -4.25,7.327923 C 661.85954,60.564147 660,62.733305 660,63.439087 c 0,0.705782 -2.025,3.457751 -4.5,6.115488 -2.475,2.657736 -4.5,5.116771 -4.5,5.464522 0,0.347751 -1.125,1.689158 -2.5,2.980903 -1.375,1.291745 -2.5,2.91967 -2.5,3.61761 0,0.69794 -0.89615,1.896673 -1.99145,2.663851 -1.09531,0.767179 -3.33643,3.251551 -4.98029,5.520829 -1.64386,2.269277 -4.2352,4.810697 -5.75854,5.647599 -1.52335,0.836902 -4.02878,3.215546 -5.56763,5.285871 -8.80573,11.84699 -14.72194,20.34693 -17.23663,24.76424 -3.35528,5.89389 -12.71473,16.25809 -19.58894,21.69184 -2.68208,2.12007 -4.87652,4.34195 -4.87652,4.93751 0,0.59556 -1.32252,2.75266 -2.93893,4.79355 -1.61642,2.04089 -3.07892,4.35564 -3.25,5.1439 -0.17109,0.78826 -1.88607,3.51829 -3.81107,6.06673 -1.925,2.54844 -4.175,5.64854 -5,6.88911 -2.53821,3.81676 -6.15218,8.21392 -11.94682,14.53584 -5.87496,6.40954 -11.46151,13.4394 -11.67519,14.69152 -0.0704,0.4125 -0.18424,1.1528 -0.25299,1.6451 -0.15891,1.1379 -8.59456,10.1049 -9.50612,10.1049 -0.37491,0 -0.95098,-0.70186 -1.28016,-1.5597 z M 957,207.5 c 0,-1.55556 0.56667,-2.5 1.5,-2.5 1.61396,0 1.85324,0.91589 0.89301,3.41821 C 958.45881,210.8527 957,210.29295 957,207.5 Z M 869.5,204 c 0.33992,-0.55 1.04148,-1 1.55902,-1 0.51754,0 0.94098,0.45 0.94098,1 0,0.55 -0.70156,1 -1.55902,1 -0.85746,0 -1.2809,-0.45 -0.94098,-1 z m -428,-16.55443 C 429.69537,175.29544 420.57065,165.7869 406.87597,151.36517 404.19419,148.54101 402,145.9046 402,145.50647 c 0,-0.39812 -2.57599,-3.26245 -5.72443,-6.36517 -3.14843,-3.10271 -6.96352,-7.5538 -8.47797,-9.8913 C 386.28314,126.9125 384.58414,125 384.02202,125 383.45991,125 383,123.86088 383,122.46862 c 0,-1.51679 -0.70141,-2.77063 -1.75,-3.12828 -2.71347,-0.92551 -21.23416,-20.621295 -21.24255,-22.59034 -0.0113,-2.64481 5.1536,-2.271924 7.81824,0.564451 1.19587,1.272948 2.17431,2.832119 2.17431,3.464819 0,0.6327 0.9,1.63203 2,2.22073 1.1,0.5887 2,1.8666 2,2.83977 0,2.04557 4.8286,7.49893 10.2518,11.57826 2.0635,1.55215 6.24054,6.12885 9.28232,10.17043 3.04178,4.04158 6.08145,7.70005 6.75481,8.12994 0.67337,0.42988 2.79632,3.01294 4.71769,5.74013 1.92136,2.72719 5.63088,7.06667 8.24338,9.64328 2.6125,2.57662 4.75,4.97581 4.75,5.33153 0,0.35572 1.6875,2.33496 3.75,4.39831 7.59689,7.60001 13.25,14.29924 13.25,15.70194 0,0.79273 1.6875,2.5103 3.75,3.81683 6.07856,3.85057 18.45267,16.36017 18.08066,18.27863 -0.18186,0.93787 -0.78066,1.81587 -1.33066,1.95112 -0.55,0.13525 -6.85,-5.77532 -14,-13.1346 z m 60.61285,5.30443 c -0.46071,-1.2375 -1.15261,-7.05667 -1.53755,-12.93148 -0.676,-10.31688 -0.62515,-10.72147 1.48958,-11.85324 3.37962,-1.80872 3.90277,0.0977 3.91981,14.28472 0.0129,10.76535 -0.22203,12.75 -1.50944,12.75 -0.83861,0 -1.9017,-1.0125 -2.3624,-2.25 z M 832,183.5 c 0,-1.55556 0.56667,-2.5 1.5,-2.5 1.61396,0 1.85324,0.91589 0.89301,3.41821 C 833.45881,186.8527 832,186.29295 832,183.5 Z m -7.98469,-5.25 c 0.008,-0.4125 0.43969,-1.42124 0.95836,-2.24164 0.71284,-1.12751 1.22488,-1.20981 2.09756,-0.33713 0.63498,0.63498 0.85216,1.64371 0.48262,2.24164 -0.75706,1.22495 -3.56212,1.4922 -3.53854,0.33713 z M 687.67534,166.34201 c -0.9049,-0.9049 1.25412,-3.34201 2.96067,-3.34201 0.76512,0 2.17252,-0.39795 3.12756,-0.88434 0.95504,-0.48639 5.11143,-2.54384 9.23643,-4.57211 4.125,-2.02828 8.175,-4.04139 9,-4.4736 0.825,-0.4322 2.91943,-1.52475 4.65429,-2.42789 4.1669,-2.1692 6.34571,-2.08353 6.34571,0.24953 0,1.21804 -0.9552,2.13134 -2.68259,2.56488 -2.84019,0.71284 -5.56776,2.01024 -16.78422,7.9836 -4.13963,2.20457 -7.87301,3.53696 -9.1999,3.28331 -1.28809,-0.24623 -2.4526,0.14515 -2.7518,0.92487 -0.54432,1.41846 -2.78371,1.81619 -3.90615,0.69376 z m -188.18569,-2.35876 c -0.34562,-0.55922 -0.53027,-2.02172 -0.41033,-3.25 0.11993,-1.22829 -0.0358,-2.90825 -0.34617,-3.73325 -0.55741,-1.48192 -1.86457,-11.09391 -1.90389,-14 -0.0112,-0.825 -0.43824,-5.55 -0.94906,-10.5 -0.51082,-4.95 -1.06099,-11.72304 -1.2226,-15.0512 -0.16161,-3.32816 -0.55067,-6.47816 -0.86458,-7 -0.31391,-0.52184 -0.4795,-9.2738 -0.36798,-19.4488 0.11151,-10.175 -0.1877,-22.55 -0.66492,-27.5 -0.47721,-4.95 -1.00326,-10.575 -1.16898,-12.5 -0.16572,-1.925 -0.62814,-4.689033 -1.0276,-6.142296 -1.25987,-4.583494 3.97154,-11.722624 6.63695,-9.057218 0.47632,0.476328 1.10871,9.58686 1.40531,20.245627 0.29659,10.658767 0.74752,19.716556 1.00207,20.128419 0.43211,0.699172 0.99572,14.486044 1.91423,46.825468 0.21088,7.425 0.86459,17.27681 1.45269,21.89292 0.5881,4.6161 0.82289,9.16917 0.52177,10.11792 -0.30112,0.94875 -0.13391,2.8128 0.37158,4.14234 1.39784,3.67661 -2.46071,7.93311 -4.37849,4.83007 z" id="path12" style="fill:#000000" inkscape:connector-curvature="0"/>
</svg>
