<?xml version="1.0" encoding="utf-8"?>
<!-- Created with Inkscape (http://www.inkscape.org/) -->
<svg xmlns="http://www.w3.org/2000/svg" xmlns:cc="http://creativecommons.org/ns#" xmlns:dc="http://purl.org/dc/elements/1.1/" xmlns:inkscape="http://www.inkscape.org/namespaces/inkscape" xmlns:rdf="http://www.w3.org/1999/02/22-rdf-syntax-ns#" xmlns:sodipodi="http://sodipodi.sourceforge.net/DTD/sodipodi-0.dtd" xmlns:svg="http://www.w3.org/2000/svg" height="107" id="svg2" version="1.1" viewBox="0 0 69 107" width="69" sodipodi:docname="illustration-nonsense-alphabet-6-17.svg" inkscape:version="0.92.4 (5da689c313, 2019-01-14)">
	<metadata id="metadata8">
		<rdf:RDF>
			<cc:Work rdf:about="">
				<dc:format>image/svg+xml</dc:format>
				<dc:type rdf:resource="http://purl.org/dc/dcmitype/StillImage"/>
				<dc:title/>
			</cc:Work>
		</rdf:RDF>
	</metadata>
	<defs id="defs6"/>
	<sodipodi:namedview bordercolor="#666666" borderopacity="1" gridtolerance="10" guidetolerance="10" id="namedview4" objecttolerance="10" pagecolor="#ffffff" showgrid="false" inkscape:current-layer="svg2" inkscape:cx="35.40678" inkscape:cy="53.5" inkscape:pageopacity="0" inkscape:pageshadow="2" inkscape:window-height="1004" inkscape:window-maximized="1" inkscape:window-width="1920" inkscape:window-x="0" inkscape:window-y="0" inkscape:zoom="4.411215"/>
	<path d="m 19.781808,94.261073 c -1.501193,-0.930976 -3.655649,-3.864883 -4.812018,-6.552936 -2.705329,-6.288705 -1.951288,-13.768914 2.01907,-20.02952 1.51954,-2.396065 3.029672,-6.341462 3.35585,-8.767549 1.209732,-8.997906 1.971896,-12.479531 3.316621,-15.15059 0.758556,-1.506737 1.324314,-3.006012 1.257239,-3.331722 -0.341509,-1.658355 6.489865,-8.408448 9.522668,-9.409363 2.884096,-0.951837 4.100685,-0.856068 7.079049,0.557258 2.491999,1.182531 3.916115,1.386947 4.637413,0.665649 1.615047,-1.615047 -0.0022,-5.11052 -3.107387,-6.716282 -4.069649,-2.104497 -5.423159,-6.08153 -2.300313,-6.759033 2.57167,-0.557924 -4.469298,-4.758442 -7.984223,-4.763247 -3.613212,-0.0049 -9.349704,5.03219 -8.437646,7.408973 0.455489,1.186987 1.28749,1.526674 2.666943,1.088852 3.142246,-0.99731 2.799533,4.24583 -0.355943,5.445539 -1.905709,0.72455 -2.491786,1.884502 -3.039922,6.016558 -0.503921,3.798741 -1.534434,6.075456 -3.995672,8.827649 -2.756875,3.08278 -3.325777,4.523419 -3.370893,8.536173 -0.05812,5.169663 -0.690727,6.614435 -2.224575,5.080587 -0.578811,-0.578811 -0.636583,-2.995652 -0.145817,-6.100215 0.67779,-4.287677 0.527123,-5.386206 -0.907177,-6.614291 -1.129232,-0.966879 -1.548567,-2.36924 -1.220939,-4.083118 0.65555,-3.42929 3.824746,-3.504136 4.676508,-0.110445 0.871273,3.471426 2.431831,3.121259 4.122476,-0.925025 1.247541,-2.985785 1.240997,-3.963743 -0.05103,-7.625727 -3.033912,-8.599022 -1.021117,-13.864911 6.659853,-17.423556 4.216866,-1.953703 5.594455,-2.162899 8.684943,-1.318867 5.348292,1.460651 8.843549,3.768417 10.160366,6.708446 0.636725,1.421601 1.803279,3.586294 2.592344,4.810429 1.416814,2.198011 1.475006,2.203162 4.677531,0.414044 4.005563,-2.237742 4.205911,-4.52931 0.433809,-4.961865 -3.236048,-0.371085 -4.471272,-2.532711 -2.680371,-4.690614 3.300657,-3.977048 9.387263,0.258197 8.297568,5.773698 C 58.691678,23.381172 53.764297,28 51.052105,28 c -3.055157,0 -3.536307,8.279661 -0.871684,15 1.642311,4.142006 2.197896,7.722172 2.250168,14.5 0.06988,9.060898 -0.745989,11.755591 -5.668585,18.722476 -0.948783,1.3428 -0.951683,1.987845 -0.01316,2.926372 0.938526,0.938526 1.612203,0.834381 3.056264,-0.472477 C 52.083151,76.614774 53,76.552981 53,78.461045 53,82.674963 44.680432,85.729723 42,82.5 41.209774,81.547835 39.001734,81 35.954281,81 30.29491,81 26.08643,78.049902 22.935826,71.874209 21.848766,69.743394 20.534331,68 20.01486,68 18.722634,68 17.168179,71.215321 17.718461,72.75 17.964974,73.4375 17.669839,74 17.062606,74 15.119933,74 16.394007,85.708142 18.671619,88.786077 22.790325,94.352041 30,95.090096 30,89.945764 30,88.328982 29.537411,88.077998 27.5,88.589356 24.762607,89.276398 24.312468,88.153183 26.035184,84.934259 26.74704,83.604142 28.132344,83 30.470456,83 c 2.982901,0 3.556543,0.432668 4.675199,3.526257 0.935438,2.586908 1.685245,3.345476 2.814728,2.847617 6.09042,-2.684567 12.357509,-0.904188 11.849549,3.366266 -0.429952,3.614636 -2.591347,4.026362 -2.987789,0.569146 -0.454528,-3.963762 -3.496083,-4.074766 -10.065279,-0.367342 -6.238819,3.520972 -12.62444,4.017197 -16.975056,1.319129 z M 36.813108,76.25 c -0.183446,-0.9625 -1.341442,-1.893798 -2.573324,-2.069551 -2.880194,-0.410918 -2.87496,-2.001967 0.01022,-3.105434 1.629084,-0.623061 3.14548,-0.316563 5.494933,1.110652 l 3.244932,1.971188 1.162675,-2.828427 c 1.328567,-3.231996 2.40975,-22.42074 1.410073,-25.025858 -0.578459,-1.50744 -1.071504,-1.33004 -3.862854,1.389874 -1.759867,1.714828 -4.662259,4.475934 -6.449759,6.13579 -4.648166,4.316244 -4.372314,6.374866 0.744581,5.556642 2.592254,-0.414518 4.52307,-0.200153 5.5,0.610627 C 43.358312,61.542262 43.486068,66 41.666667,66 c -2.032551,0 -2.767663,-1.173381 -1.609433,-2.568963 0.689833,-0.831198 0.702394,-1.461561 0.03731,-1.872604 -1.687932,-1.043199 -6.057359,0.550387 -7.617876,2.778337 -0.812169,1.159533 -1.518023,1.670615 -1.568564,1.135736 C 30.857566,64.937628 30.745066,63.15 30.658107,61.5 30.556406,59.57027 29.964865,58.5 29,58.5 c -1.664696,0 -2.680835,7.45845 -1.412047,10.364404 0.392771,0.899578 0.846733,2.310596 1.008805,3.135596 0.388205,1.976089 5.10445,6 7.03233,6 0.905692,0 1.38308,-0.705586 1.18402,-1.75 z M 30.382903,55.189467 c 0.275515,-0.445793 0.610077,-3.202415 0.74347,-6.125826 0.156196,-3.423165 0.992002,-6.427431 2.347913,-8.439467 2.352304,-3.490583 5.799314,-4.157551 6.362884,-1.231166 0.287831,1.494586 -0.0774,1.777433 -1.735309,1.34388 -1.154928,-0.30202 -2.434174,-0.02887 -2.842769,0.606992 -1.695107,2.637972 -2.813601,7.311683 -2.285078,9.54837 0.535308,2.265396 0.842634,2.088784 5.795635,-3.330587 5.666097,-6.199613 5.978605,-7.048369 3.760942,-10.214526 C 39.669667,33.262596 35.159217,33.922689 31.236483,39 28.5734,42.446907 26.178165,52.861226 27.541229,55.06671 c 0.709909,1.148656 2.168686,1.211674 2.841674,0.122757 z M 43.2,20.8 C 42.558333,20.158333 41.701365,19.965301 41.295627,20.37104 40.889889,20.776778 41.206856,21.50981 42,22 c 1.867591,1.154235 2.710913,0.310913 1.2,-1.2 z" id="path12" style="fill:#000000" inkscape:connector-curvature="0"/>
</svg>
