<?xml version="1.0" encoding="utf-8"?>
<svg xmlns="http://www.w3.org/2000/svg" version="1.1" viewBox="0 0 1319 1003">
	<path d="m 1278.5,974.90933 c -1.65,-0.36998 -4.6324,-0.72594 -6.6276,-0.79102 -1.9951,-0.0651 -4.1271,-0.72025 -4.7377,-1.45596 -0.6105,-0.73571 -4.2642,-1.90132 -8.1192,-2.59024 -6.0112,-1.07426 -7.2501,-1.66062 -8.702,-4.11857 -1.2285,-2.07964 -2.995,-3.19968 -6.4385,-4.08222 -5.6593,-1.45044 -7.3056,-3.63306 -14.3075,-18.96914 -4.6566,-10.19933 -15.1068,-31.22922 -18.7101,-37.65218 -1.0028,-1.7875 -1.5615,-3.25 -1.2415,-3.25 0.3199,0 -0.3628,-1.60072 -1.5171,-3.55716 -1.1544,-1.95644 -2.0988,-3.94216 -2.0988,-4.41272 0,-0.47055 -1.575,-3.24707 -3.5,-6.17003 -1.925,-2.92297 -3.5,-5.83214 -3.5,-6.46484 0,-0.6327 -0.6802,-1.71491 -1.5116,-2.40491 -1.8078,-1.50033 -5.4884,-9.5329 -5.4884,-11.97791 0,-0.95334 -1.1533,-3.43288 -2.563,-5.51009 -1.4096,-2.07722 -6.2002,-10.57752 -10.6456,-18.88955 -11.6699,-21.82001 -11.5734,-21.64487 -14.9452,-27.11279 -1.6959,-2.75 -5.1208,-8.825 -7.6109,-13.5 -2.4902,-4.675 -5.3028,-9.625 -6.2503,-11 -0.9474,-1.375 -2.0241,-3.47186 -2.3925,-4.65969 -0.3685,-1.18784 -1.3275,-2.70544 -2.1312,-3.37245 -0.8037,-0.66701 -1.4613,-2.12767 -1.4613,-3.24591 0,-1.11824 -1.0306,-3.42564 -2.2903,-5.12756 -1.2597,-1.70191 -3.792,-6.40467 -5.6274,-10.45057 -1.8354,-4.04591 -4.8548,-9.66064 -6.7097,-12.4772 -1.8549,-2.81656 -3.3726,-5.53883 -3.3726,-6.0495 0,-0.51067 -2.1047,-4.12093 -4.6771,-8.02281 -2.5724,-3.90187 -6.1112,-9.34431 -7.8641,-12.09431 -1.7529,-2.75 -4.7639,-7.475 -6.6911,-10.5 -1.9272,-3.025 -5.6704,-9.55 -8.3182,-14.5 -5.3564,-10.01363 -8.8375,-15.09921 -12.1995,-17.82258 -1.2375,-1.00242 -2.25,-2.37384 -2.25,-3.0476 0,-1.82752 -6.5154,-14.202 -8.6473,-16.42366 -1.0349,-1.07842 -3.839,-2.18442 -6.3527,-2.50559 -3.8322,-0.48965 -5.1678,-1.32925 -9,-5.6576 -2.475,-2.79545 -5.0285,-5.07371 -5.6744,-5.0628 -0.6459,0.0109 -3.9621,-3.11688 -7.3693,-6.95063 -7.4715,-8.40677 -15.3234,-14.54946 -19.627,-15.35461 -2.3762,-0.44457 -4.0609,0.0109 -6.7236,1.81789 -5.6149,3.81042 -10.7004,4.97142 -16.3039,3.7222 -8.68109,-1.93533 -13.34373,-3.22628 -15.08559,-4.17677 -0.94392,-0.51506 -4.64121,-2.28817 -8.21621,-3.94024 -8.63402,-3.98992 -13.05497,-7.83211 -16.42041,-14.27075 -3.16728,-6.05951 -5.66016,-14.59881 -5.08609,-17.42225 1.60903,-7.91376 1.34098,-10.59638 -1.32587,-13.26909 C 954.56138,576.52176 946.34526,570 945.39838,570 944.59453,570 927.44207,560.02209 922.79049,556.84856 921.30026,555.83185 919.60382,555 919.02062,555 c -0.5832,0 -2.75085,-1.06716 -4.81699,-2.37146 -2.06615,-1.3043 -5.18608,-2.68541 -6.93317,-3.06914 -1.7471,-0.38372 -4.22993,-1.52628 -5.51741,-2.53901 -1.28749,-1.01274 -5.16313,-3.34412 -8.61255,-5.18086 -3.44943,-1.83674 -8.51735,-4.54283 -11.26206,-6.01353 -2.74471,-1.4707 -6.59069,-3.89462 -8.54663,-5.38648 -1.95593,-1.49187 -6.09325,-3.62443 -9.19403,-4.73903 -3.44264,-1.23748 -8.33823,-4.29924 -12.57334,-7.86351 C 847.74989,514.62664 843.86189,512 842.92445,512 c -0.93744,0 -4.40899,-1.99098 -7.71455,-4.4244 -10.36121,-7.62748 -15.65822,-10.88917 -26.2099,-16.13899 -13.20858,-6.57172 -37.40156,-19.70732 -40.5,-21.98952 -1.65,-1.21533 -6.22461,-3.86158 -10.16581,-5.88056 -3.94119,-2.01898 -8.21619,-4.70069 -9.5,-5.95936 -1.2838,-1.25866 -3.83036,-2.79851 -5.65901,-3.42189 -1.82865,-0.62337 -4.72828,-2.31434 -6.44363,-3.75771 -1.71535,-1.44337 -4.04418,-3.03672 -5.17518,-3.54079 -1.131,-0.50406 -3.40637,-1.79742 -5.05637,-2.87412 -1.65,-1.07671 -5.925,-3.48085 -9.5,-5.34254 -11.38215,-5.92729 -27.44779,-14.79182 -29,-16.00131 -0.825,-0.64285 -2.625,-1.81348 -4,-2.60141 -1.375,-0.78793 -7.13037,-4.27543 -12.78971,-7.75 C 665.55095,408.84283 660.68664,406 660.4007,406 659.37629,406 643,391.88144 643,390.99827 643,389.95907 634.62618,384 633.16589,384 c -0.53557,0 -3.82949,-1.63106 -7.31982,-3.62459 -3.49034,-1.99352 -8.59607,-4.85105 -11.34607,-6.35007 -2.75,-1.49901 -7.02724,-3.84666 -9.50497,-5.21699 -2.47773,-1.37033 -6.29461,-3.08215 -8.48197,-3.80404 -2.18735,-0.72189 -8.48511,-3.71844 -13.99503,-6.659 -5.50992,-2.94056 -11.14303,-5.8617 -12.51803,-6.49143 -4.50552,-2.06343 -30.4286,-14.97402 -33.53367,-16.70092 -1.66852,-0.92795 -6.18878,-3.76578 -10.04502,-6.30628 C 517.90827,323.23826 493.33546,310 491.43818,310 c -0.31439,0 -2.0041,-1.07539 -3.7549,-2.38975 -1.7508,-1.31436 -5.88328,-3.79973 -9.18328,-5.52304 -3.3,-1.72331 -7.37471,-3.96474 -9.0549,-4.98094 -1.6802,-1.01621 -4.1552,-2.18842 -5.5,-2.60492 -1.34481,-0.41649 -7.8451,-3.36918 -14.4451,-6.56152 -6.6,-3.19234 -12.225,-5.7581 -12.5,-5.70168 -0.275,0.0564 -2.3,-1.0178 -4.5,-2.38715 -3.38501,-2.10693 -15.60109,-8.23363 -57,-28.58708 -13.68526,-6.72825 -23.09008,-11.47489 -24.5,-12.36521 -0.825,-0.52096 -3.975,-2.09824 -7,-3.50507 -3.025,-1.40682 -10.9,-5.15464 -17.5,-8.32848 C 312.04459,220.11376 305.22044,217 304.44107,217 c -0.31939,0 -2.4618,-1.27946 -4.76089,-2.84324 -2.2991,-1.56379 -9.13018,-5.44483 -15.18018,-8.62454 -6.05,-3.17971 -11.675,-6.34598 -12.5,-7.03616 -0.825,-0.69019 -3.075,-2.04511 -5,-3.01095 -1.925,-0.96584 -3.85986,-2.3701 -4.29969,-3.12059 -0.43983,-0.75049 -1.56483,-1.36648 -2.5,-1.36888 -2.85648,-0.007 -14.7482,-4.50325 -24.47686,-9.25403 -16.45765,-8.03672 -23.16649,-11.37812 -26.22345,-13.06084 -1.65,-0.90825 -4.8,-2.49694 -7,-3.53041 -7.21666,-3.39011 -23.40318,-12.14493 -27.12872,-14.67315 C 173.36358,149.11475 171.16488,148 170.4853,148 c -1.27213,0 -14.04022,-5.77894 -18.4853,-8.36659 -1.375,-0.80044 -5.90766,-3.06996 -10.07257,-5.04338 -4.16492,-1.97342 -9.78848,-5.16348 -12.49681,-7.08903 -2.70832,-1.92555 -5.48024,-3.501 -6.15981,-3.501 -0.67957,0 -4.17644,-1.8 -7.77081,-4 -3.59437,-2.2 -6.76109,-4 -7.03714,-4 C 107.68737,116 88.935882,106.54637 85,104.17111 83.075,103.00939 80.15,101.37969 78.5,100.54955 76.85,99.719414 74.825,98.630692 74,98.130172 73.175,97.629653 70.7,96.383106 68.5,95.360068 66.3,94.337031 62.93497,92.2625 61.022156,90.75 59.109342,89.2375 57.076303,88 56.504291,88 55.932279,88 53.770805,86.849262 51.701016,85.442804 49.631227,84.036346 45.882997,82.267213 43.371615,81.511399 36.547697,79.457701 31.37064,75.371761 27.482362,68.970966 23.761017,62.84497 23.070913,57.878702 24.98515,51 26.17243,46.733578 28.803055,44.938253 36,43.482688 c 4.775426,-0.965819 5.754194,-1.57857 7.429505,-4.651188 6.334997,-11.618755 22.115709,-12.712831 39.794824,-2.758974 2.04838,1.153299 4.327649,2.185455 5.065041,2.293681 0.737393,0.108226 3.336445,1.798053 5.775672,3.75517 4.134141,3.317035 14.833838,8.868042 22.934958,11.898665 1.925,0.720141 4.175,1.871842 5,2.559335 0.825,0.687493 5.1,2.901939 9.5,4.920989 12.38757,5.684349 17.46161,8.194307 24.5,12.119335 3.575,1.993633 10.1,5.420028 14.5,7.61421 4.4,2.194182 9.35,4.97927 11,6.189084 1.65,1.209815 4.575,2.787325 6.5,3.505579 1.925,0.718254 4.91801,1.928156 6.65113,2.688671 1.73312,0.760515 3.98312,1.392638 5,1.404717 2.63446,0.03129 9.37607,3.367278 12.55424,6.212278 1.48796,1.33197 4.63796,3.27661 7,4.32144 2.36205,1.04482 4.88265,2.69722 5.60133,3.67199 0.71869,0.97478 1.99265,1.77233 2.83102,1.77233 0.83838,0 4.56767,1.52735 8.28731,3.39411 3.71964,1.86676 7.62069,3.82368 8.66898,4.3487 1.04829,0.52503 3.25599,1.71147 4.90599,2.63654 1.65,0.92506 7.275,3.92051 12.5,6.65654 5.225,2.73603 10.175,5.35582 11,5.82175 0.825,0.46594 3.525,1.79645 6,2.9567 10.90533,5.11229 31.88612,15.39553 36,17.64456 9.60398,5.25042 27.3441,13.5411 28.97482,13.5411 0.94276,0 3.02159,1.1445 4.61964,2.54332 2.71024,2.37237 32.09632,17.45109 34.02936,17.46131 1.93249,0.0102 12.49314,4.80442 16.12061,7.31826 2.12469,1.47241 4.16651,2.67711 4.53739,2.67711 0.80618,0 14.16705,6.34591 17.71818,8.41547 1.375,0.80134 4.75,2.43078 7.5,3.62099 6.03377,2.61144 25.16318,11.79717 35.5,17.0467 4.125,2.09487 15.825,7.92803 26,12.96256 10.175,5.03454 19.4,9.64266 20.5,10.24028 9.58321,5.20642 20.56402,10.55152 28.5,13.87289 5.225,2.18676 10.4,4.36059 11.5,4.83072 1.1,0.47014 3.15973,1.10386 4.57718,1.40827 1.41744,0.30441 5.91744,2.80384 10,5.55428 4.08255,2.75044 8.19052,5.01139 9.12881,5.02432 0.9383,0.0129 3.9073,1.32145 6.59778,2.90782 2.69048,1.58636 5.97278,3.20822 7.29401,3.60412 1.32122,0.39591 3.30222,1.27775 4.40222,1.95966 2.41654,1.49804 14.72668,6.98041 27,12.02455 4.95,2.03437 9.9,4.08199 11,4.55026 1.1,0.46827 3.125,1.16627 4.5,1.5511 4.31703,1.20824 15.41146,6.52004 17.5,8.37866 1.1,0.97891 6.69099,3.90893 12.42442,6.51115 5.73343,2.60223 12.10213,5.79042 14.15268,7.08487 2.05055,1.29445 8.38456,4.67748 14.07558,7.51784 5.69103,2.84036 12.14732,6.23834 14.34732,7.55107 2.2,1.31273 6.21232,3.05876 8.91626,3.88007 2.70394,0.82131 5.67431,2.17933 6.60082,3.01781 0.92651,0.83848 6.36419,3.90549 12.08374,6.81559 5.71955,2.91009 16.92418,8.89938 24.89918,13.30953 7.975,4.41016 15.4,8.48092 16.5,9.04615 1.1,0.56523 3.35,1.72461 5,2.5764 1.65,0.85179 4.35,2.19863 6,2.99298 5.79331,2.78903 27.1077,13.42165 37.5,18.70678 5.775,2.93694 11.4,5.79668 12.5,6.35497 1.1,0.5583 4.925,2.55574 8.5,4.43876 7.7959,4.10626 18.13674,8.3754 31,12.79812 6.12797,2.10696 10.8515,4.45169 13.30758,6.6058 3.74973,3.28872 11.67376,7.78669 19.30151,10.95624 2.14,0.88924 5.59368,2.35174 7.67484,3.25 2.08116,0.89827 4.28367,1.63322 4.89447,1.63322 1.09987,0 16.83903,6.98266 26.15376,11.60308 2.65769,1.31831 5.22539,2.39692 5.706,2.39692 0.4806,0 3.16343,1.35 5.96184,3 2.79841,1.65 5.51701,3 6.04134,3 0.90202,0 10.76756,4.28865 17.59341,7.64802 3.13437,1.5426 8.7126,10.59986 8.31414,13.49949 -0.60212,4.38169 0.15757,9.98286 1.30111,9.59302 1.46916,-0.50085 8.0874,2.75612 9.8043,4.82493 0.6548,0.789 2.0496,1.43454 3.0995,1.43454 1.0499,0 2.2045,0.7875 2.5656,1.75 0.8585,2.28787 3.3371,4.17833 5.5306,4.2182 2.1101,0.0383 2.1243,-0.13652 0.3553,-4.37044 -1.0924,-2.6144 -2.399,-3.68021 -6.0277,-4.91661 -5.595,-1.90641 -14.09822,-9.88204 -13.15536,-12.3391 0.50176,-1.30758 1.62445,-1.51383 5.86056,-1.07662 3.2542,0.33586 6.7515,0.0148 9.2286,-0.84726 8.5579,-2.97818 15.4886,-0.77878 15.4886,4.91516 0,3.61444 1.1222,3.92376 4.052,1.11688 2.197,-2.10492 3.4808,-2.52022 6.9986,-2.264 4.0261,0.29326 4.4877,0.64096 7.0548,5.31379 2.5221,4.59104 2.6174,5.14313 1.1657,6.75 -0.8696,0.9625 -2.5865,1.75 -3.8153,1.75 -5.2155,0 -9.023,7.01021 -7.0772,13.03038 0.9201,2.84671 2.1986,3.9924 7.1214,6.38151 3.3,1.60154 6.675,3.28077 7.5,3.73162 4.5967,2.51201 11.823,5.85649 12.654,5.85649 0.5285,0 2.3487,1.96873 4.0448,4.37496 2.6138,3.70823 3.0108,5.0417 2.6052,8.75 -0.3944,3.60543 0.1654,5.67162 3.1821,11.74581 4.1122,8.27997 4.6095,9.00355 9.5139,13.84327 5.9705,5.89183 14.3984,9.35412 23.5,9.65412 2.8004,0.0923 4.6678,0.84293 6.2268,2.50285 2.3365,2.48777 2.1359,2.48756 11.7732,0.012 7.8999,-2.02928 10.6088,-2.13762 13.8233,-0.55288 1.7472,0.86132 4.4028,1.82013 5.9014,2.13067 1.4986,0.31055 3.2986,1.58587 4,2.83406 0.7014,1.24818 6.3202,7.05679 12.4863,12.90803 6.166,5.85124 12.691,12.36178 14.5,14.46787 1.8089,2.10609 3.6087,3.97332 3.9994,4.14939 0.3907,0.17608 8.9407,9.38509 19,20.46447 10.0593,11.07938 19.3356,21.06032 20.614,22.17987 7.3878,6.46978 34.1662,34.04635 40.6756,41.88806 2.2,2.65027 5.35,6.25103 7,8.0017 1.65,1.75067 7.8539,8.68715 13.7864,15.4144 5.9325,6.72726 11.4335,12.23137 12.2243,12.23137 1.3877,0 4.4893,4.80187 4.4893,6.95034 0,2.46627 -3.0692,0.68432 -7.2499,-4.20927 -2.4711,-2.89241 -15.9132,-16.75014 -29.8715,-30.79496 -13.9582,-14.04481 -25.9315,-26.7533 -26.6072,-28.24107 -0.6757,-1.48777 -1.7682,-2.70504 -2.4278,-2.70504 -1.1824,0 -20.0746,-18.95825 -37.0378,-37.16726 -4.7818,-5.13301 -11.1943,-11.95091 -14.25,-15.1509 -3.0557,-3.19998 -5.5558,-6.20684 -5.5558,-6.6819 0,-0.47506 -1.4313,-1.88289 -3.1806,-3.12851 -1.7493,-1.24562 -2.7829,-1.61376 -2.297,-0.8181 1.6003,2.62029 15.7268,18.94667 16.3937,18.94667 0.359,0 1.4587,1.36442 2.4438,3.03205 2.015,3.41123 9.2419,12.14582 21.0716,25.46795 4.3956,4.95 9.5623,10.8 11.4817,13 1.9194,2.2 11.9492,12.36761 22.2883,22.59469 10.3392,10.22707 18.7985,19.11457 18.7985,19.75 0,2.20287 -2.8996,1.13658 -7.1892,-2.64372 -10.2511,-9.03412 -28.9486,-27.21816 -38.4527,-37.39672 -3.7144,-3.97797 -7.5218,-7.03319 -9.6331,-7.72999 -2.3894,-0.78858 -5.0163,-3.11233 -8.3237,-7.36323 -2.6579,-3.41607 -7.234,-8.68603 -10.1691,-11.71103 -2.935,-3.025 -7.2255,-7.95893 -9.5343,-10.96428 -2.3089,-3.00536 -4.9311,-6.21352 -5.8272,-7.12926 -2.0106,-2.05477 -9.9891,-12.4944 -11.4232,-14.94713 -1.452,-2.48334 -11.425,-14.72667 -14.3155,-17.57441 -2.1554,-2.12355 -2.557,-2.20066 -4.4725,-0.85896 -2.9295,2.05187 -8.3108,1.89704 -9.5915,-0.27596 -0.8612,-1.46114 -1.1842,-1.51738 -1.9572,-0.34068 -1.6119,2.45387 2.0158,8.63981 4.5063,7.6841 1.5456,-0.59308 9.3797,4.96471 9.3918,6.66285 0.01,1.15517 5.6678,8.26293 13.4455,16.88586 1.8068,2.00317 5.861,6.83029 9.0093,10.72693 6.1885,7.65937 10.9785,12.877 13.8492,15.08549 1.6692,1.28415 1.7596,1.18269 1.1416,-1.27992 -0.9358,-3.72825 1.456,-3.52717 4.5924,0.38611 1.3492,1.6834 7.2906,8.6101 13.2031,15.39265 5.9125,6.78256 10.75,12.84473 10.75,13.47149 0,0.62676 -0.9123,1.47704 -2.0273,1.88951 l -2.0273,0.74993 2.0663,2.21784 c 2.1299,2.2862 4.9883,2.98404 4.9883,1.21784 0,-2.03246 2.062,-0.88734 5.8523,3.25 2.1414,2.3375 10.9852,12.575 19.653,22.75 8.6678,10.175 17.2251,20.075 19.0162,22 1.7912,1.925 6.2058,6.76986 9.8103,10.76636 7.4576,8.26864 11.8972,12.23364 13.6979,12.23364 0.6825,0 2.2521,-1.09108 3.488,-2.42462 1.2359,-1.33355 4.2125,-2.95994 6.6147,-3.61421 2.4022,-0.65427 4.8661,-1.32451 5.4754,-1.48943 0.6093,-0.16491 1.396,-1.7408 1.7482,-3.50196 0.6369,-3.18452 0.6546,-3.19287 3.2091,-1.51908 4.0188,2.63324 6.8537,5.80783 7.1634,8.02175 0.156,1.11515 1.0093,4.95255 1.8962,8.52755 1.2698,5.11814 1.4746,9.15742 0.9632,19 -0.6599,12.70266 -1.4296,30.18368 -2.0501,46.55964 -0.1887,4.9828 -0.867,12.51479 -1.5071,16.73776 -0.6401,4.22296 -0.8944,8.11416 -0.565,8.6471 1.2856,2.08013 -0.7353,14.22877 -2.6662,16.02764 -1.5733,1.46577 -1.6506,1.87103 -0.445,2.33366 1.046,0.40136 1.3308,1.64039 1.0064,4.37702 -0.2489,2.09945 -0.6287,9.17322 -0.8441,15.71948 -0.2506,7.61499 -0.8129,12.16266 -1.5611,12.62508 -0.7504,0.46377 -0.9203,1.85727 -0.4741,3.88866 0.4114,1.87325 0.2468,3.70631 -0.4032,4.48949 -0.6042,0.72799 -1.0664,2.84706 -1.0271,4.70904 0.039,1.86199 -0.1417,5.41043 -0.4022,7.88543 -0.2604,2.475 -0.7809,8.07127 -1.1568,12.43616 -0.3758,4.36488 -1.0904,9.00668 -1.5878,10.3151 -0.4975,1.30842 -0.9045,3.8867 -0.9045,5.72951 0,2.6148 -0.8869,4.19257 -4.0389,7.1849 -4.3661,4.14498 -7.7547,5.29899 -12.4611,4.24366 z m 5.1392,-10.67401 c 2.4052,-6.44848 3.2577,-12.21332 3.9538,-26.73532 0.2636,-5.5 0.7194,-10.675 1.0128,-11.5 0.4621,-1.299 1.9217,-13.71491 3.8797,-33 0.3071,-3.025 0.996,-9.325 1.5309,-14 1.7316,-15.13338 3.2145,-33.26351 3.5579,-43.5 0.1845,-5.5 0.5761,-12.475 0.8702,-15.5 1.7811,-18.31897 2.6202,-41.27731 1.5707,-42.97535 -1.2276,-1.98632 -7.3828,2.62029 -6.4653,4.83866 1.6206,3.918 1.5308,5.21467 -0.5651,8.15809 l -2.2225,3.1211 2.6189,2.73347 c 1.4403,1.50341 2.6188,3.07314 2.6188,3.48829 0,1.53066 -7.4719,9.63574 -8.883,9.63574 -0.8027,0 -2.1921,-0.66302 -3.0876,-1.47337 -1.4476,-1.3101 -2.0381,-1.18159 -5.3287,1.15971 -3.1939,2.27246 -3.7007,3.17167 -3.7007,6.56564 0,2.30291 0.7617,4.90092 1.8381,6.26934 1.011,1.28522 1.7235,3.3812 1.5833,4.65773 -0.1401,1.27652 -0.2922,2.84892 -0.3381,3.49422 -0.046,0.64531 -1.1537,2.44538 -2.462,4.00016 -2.0944,2.48911 -2.3798,3.84249 -2.388,11.32673 -0.011,10.11711 -0.8534,22.95331 -1.5519,23.65177 -0.274,0.27398 -1.3269,0.61778 -2.3398,0.764 -1.5331,0.22131 -1.9442,1.50718 -2.4542,7.67496 -0.7763,9.38922 -1.3059,65.30867 -0.6601,69.70219 0.4265,2.90209 -0.8414,13.13646 -1.7405,14.04858 -1.1418,1.15832 -2.9997,-1.92298 -3.0701,-5.09166 -0.3175,-14.28436 -0.5268,-16.75 -1.4218,-16.75 -0.6287,0 -0.8872,3.83952 -0.6903,10.25 0.1733,5.6375 -0.01,11.45363 -0.4034,12.92473 -0.838,3.1201 -0.1271,4.25761 1.7088,2.73398 1.7495,-1.45196 5.1486,-0.24474 5.8902,2.09196 0.4676,1.47331 1.7666,1.98021 5.8012,2.26387 2.8592,0.20102 6.0986,0.44213 7.1986,0.5358 1.5734,0.13398 2.4563,-1.05308 4.1392,-5.56502 z m -9.6369,-13.73256 c -0.7643,-0.92091 -0.9959,-2.88944 -0.6163,-5.23899 0.3344,-2.07007 0.8572,-5.33877 1.1618,-7.26377 1.089,-6.8839 4.4455,-6.66712 6.4284,0.41517 1.2342,4.40793 1.172,4.76351 -1.5109,8.63483 -3.4622,4.99607 -3.9345,5.29454 -5.463,3.45276 z M 1279,815.55902 c 0,-0.85746 0.45,-1.55902 1,-1.55902 0.55,0 1,0.42344 1,0.94098 0,0.51754 -0.45,1.2191 -1,1.55902 -0.55,0.33992 -1,-0.0835 -1,-0.94098 z m 15.7292,133.83681 c -0.3323,-0.33229 -1.1948,-0.36781 -1.9167,-0.0789 -0.7977,0.31922 -0.5608,0.55618 0.6042,0.60416 1.0541,0.0434 1.6448,-0.19293 1.3125,-0.52522 z M 1253.3617,936.75 c 0.2781,-2.8875 0.4816,-6.15 0.452,-7.25 -0.1086,-4.05128 1.3206,-20.1788 2.3041,-26 0.5576,-3.3 1.1918,-8.7 1.4093,-12 0.6046,-9.17008 1.4065,-15.59565 2.4963,-20 0.5443,-2.2 0.9466,-4.9 0.894,-6 -0.1178,-2.46503 1.8577,-19.07776 2.6757,-22.5 0.3286,-1.375 1.0061,-6.1 1.5054,-10.5 1.9393,-17.08792 6.263,-40.36456 8.1899,-44.09083 1.8254,-3.52988 1.9891,-13.64567 0.2744,-16.95086 -1.3857,-2.67076 -5.8673,-6.5584 -10.0628,-8.72904 -2.7774,-1.43694 -22.948,-22.03759 -30.5773,-31.22927 -1.8261,-2.2 -7.1682,-8.05055 -11.8714,-13.00121 -12.5547,-13.21529 -24.3871,-26.50463 -25.7044,-28.86936 -1.4608,-2.62251 -5.0316,-6.549 -19.3589,-21.28723 -6.3316,-6.51321 -12.7975,-13.5297 -14.3687,-15.5922 -1.5712,-2.0625 -3.2922,-3.75 -3.8245,-3.75 -1.8035,0 12.7407,17.84471 26.4552,32.45871 3.7125,3.95599 6.75,7.94614 6.75,8.867 0,3.11345 -3.2619,1.6995 -8.2489,-3.57571 -2.7297,-2.8875 -6.5437,-6.90373 -8.4754,-8.92496 -1.9318,-2.02122 -4.2465,-4.78083 -5.144,-6.13245 -0.8974,-1.35162 -4.2556,-5.54789 -7.4626,-9.32504 -3.2069,-3.77715 -6.7081,-8.44255 -7.7804,-10.36755 -5.822,-10.45199 -7.7477,-13.12075 -11.3887,-15.78274 -4.2061,-3.07518 -6.9825,-5.94191 -7.6195,-7.86745 -0.441,-1.33302 -9.9689,-9.34981 -11.1122,-9.34981 -0.4226,0 -0.7683,-0.64844 -0.7683,-1.44098 0,-3.20073 -2.4347,-2.55567 -6.88,1.82282 -2.5788,2.53999 -5.0855,4.61816 -5.5705,4.61816 -0.4849,0 -1.5945,0.67988 -2.4656,1.51085 -0.8712,0.83097 -2.5939,2.29347 -3.8284,3.25 -2.6621,2.06278 -2.4126,2.6418 5.2445,12.17046 2.75,3.42214 6.2947,8.55006 7.877,11.39538 1.5824,2.84532 3.6637,6.07331 4.6251,7.17331 2.3862,2.73021 3.803,5.64009 4.4285,9.0953 0.7187,3.96953 3.3959,9.58213 7.5867,15.9047 1.0937,1.65 2.7209,5.025 3.616,7.5 3.9168,10.82978 6.1501,15.96875 9.9954,23 2.256,4.125 5.1749,9.84405 6.4865,12.70901 1.7668,3.8591 2.9362,5.21963 4.5124,5.25 2.7804,0.0536 3.9279,1.56955 5.3299,7.04099 2.1095,8.23264 7.3862,24 8.0319,24 0.35,0 0.05,-5.0625 -0.6678,-11.25 -2.5572,-22.05779 -4.6674,-50.59659 -4.443,-60.08984 0.1188,-5.02686 0.6345,-6.66016 2.1029,-6.66016 1.8067,0 2.8978,7.06234 3.5534,23 0.6566,15.96121 0.9041,19.54163 1.8666,27 0.5201,4.03071 2.4508,22.8972 3.1723,31 0.5137,5.76845 2.2376,14.07308 4.6731,22.51178 0.8355,2.89518 1.1185,5.85146 0.67,7 -0.427,1.09352 -0.808,3.19794 -0.8466,4.67648 -0.061,2.31484 0.3044,2.66212 2.627,2.5 2.4534,-0.17124 2.7688,0.21735 3.4883,4.29861 0.4642,2.63306 1.6291,5.11907 2.8196,6.01704 1.5538,1.17203 1.9979,2.57943 1.8975,6.01313 -0.072,2.46563 0.372,5.75451 0.9871,7.30862 1.8071,4.56638 7.1344,11.74773 9.3123,12.5534 1.3051,0.4828 2.7675,2.89643 4.1558,6.85897 2.2292,6.3627 10.7841,19.26197 12.7747,19.26197 0.818,0 0.9337,-1.92201 0.4064,-6.75 -1.095,-10.02548 -1.5715,-29.5814 -0.7529,-30.90005 0.3926,-0.63253 1.6139,-1.30753 2.7139,-1.5 1.4982,-0.26215 1.9476,0.15181 1.7912,1.65005 -0.74,7.08815 -0.3965,18.03575 1.2676,40.3907 0.5034,6.76347 4.1841,17.1093 6.0869,17.1093 0.3366,0 0.3105,-2.2726 -0.058,-5.05023 -0.3684,-2.77763 -0.9106,-8.62865 -1.2047,-13.00227 -0.4592,-6.82864 -0.2979,-8.04294 1.1421,-8.59549 2.4511,-0.94059 3.4353,1.34356 3.5109,8.14799 0.1292,11.62738 2.4375,24.60991 6.3952,35.96887 2.1493,6.16874 2.5292,8.36497 1.6815,9.72231 -1.4612,2.33968 0.5394,6.80882 3.0478,6.80882 2.2349,0 2.4352,2.56724 0.2939,3.7656 -1.3019,0.72857 -1.3771,1.61728 -0.4766,5.63554 1.2163,5.42702 4.615,12.59886 5.9706,12.59886 0.4992,0 1.1352,-2.3625 1.4133,-5.25 z m 42.2078,-5.17091 c 1.1808,-4.70462 -0.779,-7.77947 -2.8578,-4.48387 -1.136,1.80099 -0.1838,6.90478 1.2883,6.90478 0.529,0 1.2353,-1.08941 1.5695,-2.42091 z M 1236.4403,912.618 c -0.3614,-1.4399 -1.0442,-2.618 -1.5173,-2.618 -0.4731,0 -0.6494,0.675 -0.3916,1.5 0.2577,0.825 0.7042,2.23941 0.9921,3.14313 0.8379,2.62973 1.6402,0.85739 0.9168,-2.02513 z m -1.8902,-8.52757 c -0.1301,-3.65492 -0.8874,-5.84389 -2.9634,-8.56568 -1.5338,-2.01086 -3.0001,-3.44472 -3.2584,-3.18636 -0.6602,0.6602 2.7032,13.89452 3.9167,15.41161 1.8414,2.30198 2.4812,1.28616 2.3051,-3.65957 z m -14.1303,-25.72167 c -2.5033,-3.61224 -2.6363,-3.67951 -2.0052,-1.0146 0.9632,4.06812 3.9848,8.52582 4.3818,6.46445 0.1675,-0.8696 -0.902,-3.32204 -2.3766,-5.44985 z M 1201,862.12244 c 0,-0.48265 -0.6349,-1.4045 -1.411,-2.04855 -1.5671,-1.30056 -3.1699,0.17725 -2.089,1.92611 0.7616,1.23222 3.5,1.32803 3.5,0.12244 z m 7,0.43658 c 0,-0.24254 -0.45,-0.7191 -1,-1.05902 -0.55,-0.33992 -1,-0.14148 -1,0.44098 0,0.58246 0.45,1.05902 1,1.05902 0.55,0 1,-0.19844 1,-0.44098 z m 61.2799,-8.27194 c -0.5213,-1.35861 -0.8147,-1.11874 -1.4256,1.16543 -0.4231,1.58187 -0.4893,3.32912 -0.1471,3.88278 0.9216,1.49114 2.3377,-3.05458 1.5727,-5.04821 z m 12.1339,-53.1476 c 0.2925,-0.47329 0.2751,-1.11728 -0.039,-1.4311 -0.7803,-0.78038 -3.375,0.29485 -3.375,1.39861 0,1.14261 2.7118,1.16842 3.4138,0.0325 z m 4.9498,-9.77584 c 2.7499,-2.74989 3.0922,-3.57447 1.9557,-4.71097 -0.8805,-0.88054 -6.3193,4.31304 -6.3193,6.03442 0,2.01804 1.4671,1.57308 4.3636,-1.32345 z m -112.7566,-0.94543 c -0.3339,-0.86998 -0.607,-3.74513 -0.607,-6.38921 0,-3.18783 -0.5896,-5.44772 -1.75,-6.70797 -0.9625,-1.0453 -1.6365,-1.69417 -1.4978,-1.44194 0.1387,0.25223 -0.4875,1.27594 -1.3916,2.27489 -1.5263,1.68665 -1.5165,2.15639 0.1384,6.58115 0.9801,2.62068 2.2239,5.32737 2.764,6.01487 1.4007,1.7832 3.0652,1.5476 2.344,-0.33179 z M 1287,779 c 0,-0.55 -0.1984,-1 -0.441,-1 -0.2425,0 -0.7191,0.45 -1.059,1 -0.3399,0.55 -0.1415,1 0.441,1 0.5824,0 1.059,-0.45 1.059,-1 z m 8.794,-7.81939 c -0.1617,-0.83318 -0.8568,-1.70227 -1.5447,-1.9313 -0.7451,-0.24809 -1.0316,0.15454 -0.7087,0.99602 0.307,0.79983 -0.5602,2.2402 -1.9993,3.32091 -1.3977,1.04965 -2.5413,2.49955 -2.5413,3.222 0,0.82332 1.3226,0.30472 3.544,-1.3896 1.9492,-1.48673 3.4117,-3.38484 3.25,-4.21803 z m -126.6719,0.14439 c -0.8716,-1.49877 -1.0667,-1.54197 -1.0917,-0.24167 -0.032,1.68408 1.0192,3.2004 1.7279,2.49167 0.2338,-0.23375 -0.053,-1.24625 -0.6362,-2.25 z m -17.6437,-17.075 c -0.4046,-0.9625 -0.9552,-2.7625 -1.2236,-4 -0.2684,-1.2375 -0.8855,-2.25 -1.3714,-2.25 -1.1392,0 -1.1161,0.30587 0.2781,3.6849 0.6388,1.54831 1.0888,3.1526 1,3.5651 -0.089,0.4125 0.3366,0.75 0.9455,0.75 0.6678,0 0.8152,-0.69425 0.3714,-1.75 z m -1.0316,-16.03462 c -2.4973,-5.98176 -3.4468,-6.1421 -3.4468,-0.58205 0,5.78713 0.5321,6.68745 3.1304,5.29686 1.7521,-0.93767 1.7717,-1.22904 0.3164,-4.71481 z m -7.639,-0.70673 c -0.074,-1.98039 -0.9268,-4.21133 -1.9695,-5.15499 -1.7447,-1.57892 -1.8383,-1.51431 -1.8383,1.26885 0,2.5375 2.3134,7.37749 3.5263,7.37749 0.227,0 0.3537,-1.57111 0.2815,-3.49135 z m -5.1247,-13.69615 c -0.3192,-0.79773 -0.5562,-0.56078 -0.6042,0.60417 -0.043,1.05416 0.193,1.64479 0.5253,1.3125 0.3323,-0.33229 0.3678,-1.1948 0.079,-1.91667 z m -8.6536,-17.60969 c -1.1492,-4.56392 -2.3522,-6.15644 -4.6742,-6.1875 -2.1689,-0.029 0.1337,7.19715 3.5737,11.21471 2.1205,2.47654 2.5248,0.62937 1.1005,-5.02721 z m -23.116,-14.3645 c -0.7901,-1.47619 -1.4054,-1.86255 -1.6756,-1.05202 -0.4391,1.31725 1.7006,4.60858 2.4856,3.82352 0.2412,-0.24118 -0.1233,-1.48836 -0.81,-2.7715 z m 8.2046,-1.1647 c -1.4642,-1.46411 -2.1181,-1.68782 -2.1181,-0.72457 0,2.0018 3.3479,5.5074 3.8425,4.02352 0.2165,-0.64949 -0.5595,-2.13402 -1.7244,-3.29895 z M 1127,690.70552 C 1127,688.51457 1121.6433,672 1120.9327,672 c -1.1565,0 -1.7661,6.36062 -0.7888,8.22948 0.4975,0.95121 0.6377,2.79246 0.3116,4.09167 -0.4227,1.68423 0.1705,3.2694 2.067,5.5232 2.5383,3.01659 4.4775,3.38956 4.4775,0.86117 z m -15.0201,-12.22969 c -0.6957,-0.83829 -1.4708,-1.31823 -1.7225,-1.06653 -0.6935,0.6935 0.7155,2.5907 1.9241,2.5907 0.6631,0 0.5872,-0.57378 -0.2016,-1.52417 z M 1095,675.65364 c 0,-1.71956 -2.8335,-7.43272 -4.0633,-8.19278 -1.4541,-0.89865 -1.1098,1.50777 0.8133,5.68573 1.7674,3.8396 3.25,4.98328 3.25,2.50705 z M 1185,669.5 c -0.6847,-0.825 -1.6949,-1.5 -2.2449,-1.5 -0.5578,0 -0.4495,0.66326 0.2449,1.5 0.6847,0.825 1.6949,1.5 2.2449,1.5 0.5578,0 0.4495,-0.66326 -0.2449,-1.5 z m -74.9876,-3.98676 c -2.5566,-2.72144 -4.0124,-3.20315 -4.0124,-1.32769 0,2.08836 4.2749,5.93956 5.3735,4.84094 0.6667,-0.66667 0.213,-1.83775 -1.3611,-3.51325 z m -12.4163,-11.34572 c -1.4615,-1.46145 -1.5961,-1.42618 -1.5961,0.41819 0,2.79 2.369,5.16617 2.8461,2.85469 0.1903,-0.92224 -0.3722,-2.39504 -1.25,-3.27288 z M 1108.5,655 c 0.3399,-0.55 -0.1101,-1 -1,-1 -0.8899,0 -1.3399,0.45 -1,1 0.3399,0.55 0.7899,1 1,1 0.2101,0 0.6601,-0.45 1,-1 z m 46.0737,-10.77381 c -1.7278,-1.65022 -1.7546,-1.6234 -0.6095,0.60946 0.6588,1.2846 1.4721,2.06139 1.8073,1.72619 0.3352,-0.3352 -0.2038,-1.38624 -1.1978,-2.33565 z M 1101,638.1375 c 0,-0.47437 -1.35,-2.56124 -3,-4.6375 -3.6372,-4.57679 -4.0549,-2.57183 -0.4491,2.15561 2.5996,3.40823 3.4491,4.01953 3.4491,2.48189 z M 1085,634 c 0,-0.55 -0.4766,-1 -1.059,-1 -0.5825,0 -0.7809,0.45 -0.441,1 0.3399,0.55 0.8165,1 1.059,1 0.2426,0 0.441,-0.45 0.441,-1 z m -27.7376,-2.41252 c -1.7853,-2.9955 -8.0478,-9.58748 -9.1083,-9.58748 -1.7452,0 -1.3878,1.47851 0.8459,3.5 1.1,0.99549 2,2.41523 2,3.15499 0,0.73975 0.8697,1.34501 1.9326,1.34501 1.0629,0 2.2203,0.90653 2.572,2.01452 0.3517,1.10799 1.0626,1.75299 1.5798,1.43333 0.5172,-0.31965 0.5973,-1.15682 0.178,-1.86037 z m 30.831,-3.20002 c 1.1556,-1.39244 0.9012,-2.0031 -1.864,-4.47381 -1.9294,-1.72387 -3.8255,-2.62212 -4.7701,-2.25965 -1.3751,0.52768 -1.3337,0.8624 0.3374,2.72381 1.0479,1.1672 2.1832,2.90969 2.5229,3.87219 0.7699,2.18157 2.039,2.22779 3.7738,0.13746 z M 1003.9213,625 c 0.4167,0 1.2703,-1.125 1.8967,-2.5 1.4889,-3.26762 2.3068,-3.14646 4.4754,0.66294 2.6524,4.65936 4.4121,2.42855 2.7545,-3.49195 -0.9375,-3.34847 -0.9638,-4.95962 -0.1069,-6.56066 0.8537,-1.59527 0.8374,-3.1178 -0.066,-6.13193 -1.0259,-3.42402 -1.5062,-3.90938 -3.2884,-3.32281 -1.1478,0.37781 -3.3449,0.60115 -4.8823,0.49633 -2.2871,-0.15594 -2.9866,0.35834 -3.8478,2.82875 -2.37124,6.80213 -7.19253,1.30184 -6.98302,-7.96648 0.11156,-4.9353 -0.19345,-6.11485 -1.80407,-6.97683 C 991.00373,591.46681 989.9603,591 989.75107,591 c -0.87456,0 -0.60243,14.97383 0.28207,15.52048 C 991.47866,607.41386 991.19983,612 989.7,612 c -0.715,0 -1.8325,-0.5325 -2.48333,-1.18333 -1.35894,-1.35894 -2.74536,-0.48112 -1.7595,1.11404 0.63203,1.02263 9.03852,5.25262 12.91475,6.49845 1.45425,0.4674 1.74398,1.24124 1.29861,3.46818 -0.64342,3.21709 0.0557,4.42168 2.10907,3.63376 0.7612,-0.29211 1.7249,-0.5311 2.1417,-0.5311 z M 994,623 c 0,-0.55 -0.45,-1 -1,-1 -0.55,0 -1,0.45 -1,1 0,0.55 0.45,1 1,1 0.55,0 1,-0.45 1,-1 z m 40.3913,-0.42268 c -0.5954,-1.55146 -3.3913,-2.99089 -3.3913,-1.74594 0,0.99476 2.1739,3.16862 3.1686,3.16862 0.4228,0 0.523,-0.64021 0.2227,-1.42268 z M 982.5,617 c -0.33992,-0.55 -1.06803,-1 -1.61803,-1 -0.55,0 -0.72189,0.45 -0.38197,1 0.33992,0.55 1.06803,1 1.61803,1 0.55,0 0.72189,-0.45 0.38197,-1 z m 64.8603,-0.84567 c 1.5663,-1.73074 1.5403,-2.01095 -0.4176,-4.5 -1.1483,-1.45988 -2.6768,-2.65433 -3.3966,-2.65433 -0.7198,0 -2.5326,-1.60456 -4.0284,-3.56568 -1.4958,-1.96112 -2.9,-3.38532 -3.1205,-3.16488 -0.7837,0.78377 2.3988,9.63539 4.5512,12.65814 2.5162,3.53361 4.0574,3.82848 6.4119,1.22675 z m 14.3973,-3.31195 c 0.8768,-0.87682 1.5318,-0.84712 2.7,0.12245 1.2889,1.06966 1.5424,0.9954 1.5424,-0.45179 0,-1.39202 0.6901,-1.65128 3.5171,-1.32125 4.8116,0.56172 3.9135,-1.46287 -1.0992,-2.47789 -7.5738,-1.53359 -10.8357,-1.36384 -11.2243,0.58414 -0.3489,1.74871 1.3651,4.70196 2.7288,4.70196 0.3727,0 1.1985,-0.52093 1.8352,-1.15762 z M 973,608 c 0,-0.55 -0.47656,-1 -1.05902,-1 -0.58246,0 -0.7809,0.45 -0.44098,1 0.33992,0.55 0.81648,1 1.05902,1 0.24254,0 0.44098,-0.45 0.44098,-1 z m 59.9847,-2.75 c -0.035,-1.7116 -1.7021,-3.03105 -5.3205,-4.21095 -4.9482,-1.61354 -10.3523,-6.37923 -11.1478,-9.83096 -0.3433,-1.48945 -2.1252,-4.47045 -3.9598,-6.62445 l -3.3357,-3.91636 -3.5025,1.66204 c -2.2866,1.08508 -5.0956,1.51269 -8.09186,1.23182 -5.21817,-0.48915 -6.06055,0.12483 -4.01306,2.92494 1.20428,1.64695 1.75021,1.76789 3.38156,0.74909 1.64339,-1.02631 2.11076,-0.906 3.01036,0.77495 1.3043,2.43702 3.8243,2.62997 3.6335,0.27819 -0.3579,-4.41116 6.1508,-0.90187 10.3611,5.58636 3.8404,5.91813 7.5824,8.66721 11.1962,8.22527 0.933,-0.1141 2.6205,0.71674 3.75,1.84631 2.0595,2.05943 4.0671,2.70757 4.0385,1.30375 z m 56.5892,-3.33166 c 1.6035,-1.77184 1.5553,-1.92 -0.9419,-2.89291 -1.4476,-0.56399 -3.6893,-1.43857 -4.9817,-1.94352 -4.0779,-1.59338 -14.7235,-11.12782 -17.7459,-15.8937 -2.7191,-4.28751 -2.9044,-4.40484 -2.9044,-1.83854 0,1.59065 1.0493,3.79057 2.5,5.24124 1.375,1.375 2.5,3.29839 2.5,4.27421 0,0.97581 1.125,2.75238 2.5,3.94793 1.375,1.19555 2.5,2.75141 2.5,3.45748 0,0.70606 1.2503,2.65268 2.7785,4.32582 2.3059,2.52468 3.5716,3.0546 7.4419,3.11577 3.3505,0.053 5.1393,-0.45207 6.3535,-1.79378 z m 11.9305,1.0746 c 0.3423,-0.55389 -0.1006,-1.28448 -0.9841,-1.62354 -1.9147,-0.73472 -2.9818,0.0749 -2.0614,1.56407 0.8304,1.34358 2.2349,1.37101 3.0455,0.0595 z M 1062,596 c 0,-0.55 -0.4766,-1 -1.059,-1 -0.5825,0 -0.7809,0.45 -0.441,1 0.3399,0.55 0.8165,1 1.059,1 0.2426,0 0.441,-0.45 0.441,-1 z m -23.5,-1 c -0.3399,-0.55 -1.068,-1 -1.618,-1 -0.55,0 -0.7219,0.45 -0.382,1 0.3399,0.55 1.068,1 1.618,1 0.55,0 0.7219,-0.45 0.382,-1 z m 65.25,-0.94918 c 1.0567,-0.2148 -0.2009,-1.75263 -2.1858,-2.67278 -1.6242,-0.75292 -2.7514,-0.79084 -3.4269,-0.11529 -0.6756,0.67555 -2.3505,0.46897 -5.0922,-0.62804 -5.2322,-2.09348 -6.6861,-2.112 -4.986,-0.0635 2.794,3.36651 9.2279,4.79331 15.6909,3.47961 z m -123.32421,-2.71804 c 0.82022,-2.13743 -1.01057,-4.148 -2.45857,-2.7 C 976.87992,589.72008 977.65557,593 979,593 c 0.43231,0 1.07392,-0.75025 1.42579,-1.66722 z M 1030.3616,591.5 c 0.3166,-0.825 1.5211,-1.5 2.6766,-1.5 1.6045,0 2.0254,-0.52938 1.7814,-2.24063 -0.3707,-2.59869 -4.8758,-5.09056 -8.9918,-4.97354 -1.9947,0.0567 -3.3817,-0.75494 -4.8758,-2.85328 -3.4387,-4.82914 -3.8403,-3.32443 -0.7487,2.80474 4.4742,8.87014 8.7137,12.52725 10.1583,8.76271 z m -45.36174,-17.00038 c -0.58086,-1.52776 -2.16845,-4.0997 -3.52798,-5.71541 -3.30061,-3.92255 -3.26458,-8.37283 0.0891,-11.01088 l 2.56103,-2.0145 -2.20808,-2.35039 c -3.66724,-3.9036 -10.35076,-5.54439 -15.73492,-3.86291 -2.3183,0.72401 -2.31702,0.72897 1.12149,4.33965 1.89334,1.98815 3.72571,5.13577 4.07192,6.9947 0.34622,1.85893 2.20404,5.12273 4.12851,7.25288 1.92446,2.13015 3.49902,4.32832 3.49902,4.88482 0,1.01777 6.1262,5.18955 6.73167,4.58409 0.17836,-0.17836 -0.15096,-1.57428 -0.73181,-3.10205 z m -21.07375,-3.91059 c 0.83984,-1.01195 0.86093,-1.60261 0.0746,-2.08862 -1.59949,-0.98854 -4.00067,0.19276 -4.00067,1.96821 0,1.92082 2.37154,1.99355 3.92611,0.12041 z M 1033.0868,567 c 3.492,0 5.1618,-6.79845 2.7682,-11.27089 -1.0091,-1.8856 -0.6829,-2.54224 2.75,-5.53517 2.1423,-1.86767 4.8859,-3.78103 6.0971,-4.25189 1.2112,-0.47087 2.893,-2.19224 3.7375,-3.82526 1.5129,-2.92553 1.4861,-2.99957 -1.8201,-5.04296 -1.8456,-1.1406 -3.8392,-2.07383 -4.4304,-2.07383 -1.3896,0 -7.7217,-3.67345 -12.1891,-7.07128 -4.0754,-3.09965 -6.31,-4.0053 -7.6148,-3.0862 -0.5133,0.36161 -2.0906,2.92772 -3.505,5.70247 l -2.5717,5.04498 3.8457,4.33362 c 4.0492,4.56282 4.882,8.27707 2.5661,11.44428 -1.055,1.44276 -1.7689,1.56414 -4.0651,0.69113 -4.0534,-1.54111 -4.2538,-1.44796 -6.4554,3.00198 l -2.0092,4.06098 2.1547,0.98196 c 4.4854,2.04414 14.2946,8.50433 15.2429,10.03887 0.5426,0.87782 1.1663,0.60654 2.2061,-0.95948 0.7973,-1.20082 2.2789,-2.18331 3.2925,-2.18331 z m -77.43132,-2.45543 c -0.51321,-1.33739 -0.93398,-1.38777 -2.6497,-0.31722 -1.90066,1.18595 -1.92289,1.35807 -0.32644,2.5264 2.04261,1.49484 3.87543,0.13434 2.97614,-2.20918 z M 998.5,566 c -0.33992,-0.55 -1.04148,-1 -1.55902,-1 -0.51754,0 -0.94098,0.45 -0.94098,1 0,0.55 0.70156,1 1.55902,1 0.85746,0 1.2809,-0.45 0.94098,-1 z m 56.5,-10.12244 c 0,-1.74093 -1.7791,-0.83036 -2.3047,1.17959 -0.4414,1.68797 -0.2829,1.84546 0.8834,0.87756 0.7817,-0.64878 1.4213,-1.5745 1.4213,-2.05715 z m -6.1875,-1.81506 c 0.25,-0.75 -0.125,-1.125 -0.875,-0.875 -0.7219,0.24063 -1.5094,1.02813 -1.75,1.75 -0.25,0.75 0.125,1.125 0.875,0.875 0.7219,-0.24063 1.5094,-1.02813 1.75,-1.75 z m -121.59608,-3.84608 c -1.34348,-1.34348 -1.82218,-2.82791 -1.48343,-4.6 0.27509,-1.43903 0.11493,-2.61642 -0.35591,-2.61642 -1.48789,0 -9.36941,3.47158 -9.37333,4.12868 -0.002,0.34577 1.45875,1.21542 3.24625,1.93255 1.7875,0.71713 4.33959,2.13463 5.67132,3.15 3.1572,2.4072 5.05105,0.76114 2.2951,-1.99481 z m 34.20675,-3.39803 C 959.25437,543.98304 950.55396,538 948.59966,538 c -0.78203,0 -2.61222,1.41465 -4.0671,3.14367 -3.17755,3.77631 -2.12796,5.90427 1.98737,4.0292 4.11005,-1.87266 7.20382,-1.38553 11.64841,1.83412 4.64623,3.36571 5.91724,3.29206 3.25483,-0.1886 z M 1001,548 c 0,-0.55 -0.1984,-1 -0.441,-1 -0.2425,0 -0.71908,0.45 -1.059,1 -0.33992,0.55 -0.14148,1 0.44098,1 0.58242,0 1.05902,-0.45 1.05902,-1 z m -5.41371,-3.13962 c 0.41254,-0.6675 -1.0398,-2.58837 -3.50578,-4.63675 -3.89645,-3.23661 -4.16403,-3.76979 -3.59177,-7.15696 0.49228,-2.91383 0.20357,-4.03515 -1.41645,-5.50125 -1.66695,-1.50856 -2.30932,-1.61359 -3.55353,-0.58099 -0.83532,0.69325 -1.51876,1.7031 -1.51876,2.24409 0,0.541 -1.125,1.86856 -2.5,2.95014 -1.375,1.08158 -2.5,2.82347 -2.5,3.87087 0,1.0474 1.125,2.58974 2.5,3.42742 1.375,0.83768 3.7375,2.31055 5.25,3.27305 2.5414,1.61726 6.04324,2.84382 8.94098,3.13169 0.65504,0.0651 1.50793,-0.39452 1.89531,-1.02131 z m -59.03244,-0.94751 c 0.97178,-1.57237 -1.129,-3.28988 -3.09926,-2.53382 -1.36401,0.52342 -1.44763,0.92441 -0.44477,2.13278 1.46325,1.76311 2.62124,1.89415 3.54403,0.40104 z m 4.298,-8.80014 c 1.06073,-0.67218 0.85837,-1.20229 -0.93967,-2.46169 -1.26033,-0.88277 -2.32346,-1.50289 -2.3625,-1.37804 -0.039,0.12485 -0.92344,1.2395 -1.96532,2.477 l -1.89434,2.25 2.90499,-0.0153 c 1.59775,-0.008 3.51332,-0.40081 4.25684,-0.87196 z m 3.6374,-5.45793 c -0.66474,-3.34018 -6.15484,-8.97951 -7.77005,-7.98125 -0.52562,0.32485 0.43081,1.67571 2.12539,3.00193 1.93537,1.51465 3.32158,3.69338 3.72789,5.85915 0.35575,1.89633 1.07382,3.18397 1.59572,2.86142 0.52189,-0.32255 0.66636,-2.00611 0.32105,-3.74125 z M 964.5,528 c -0.48382,-0.78284 -1.05907,-0.84093 -1.72574,-0.17426 -0.55,0.55 -0.67341,1.52841 -0.27426,2.17426 0.48382,0.78284 1.05907,0.84093 1.72574,0.17426 0.55,-0.55 0.67341,-1.52841 0.27426,-2.17426 z m 11,2 c 0.33992,-0.55 0.14148,-1 -0.44098,-1 -0.58246,0 -1.05902,0.45 -1.05902,1 0,0.55 0.19844,1 0.44098,1 0.24254,0 0.7191,-0.45 1.05902,-1 z M 929,528 c 0,-0.55 -0.45,-1 -1,-1 -0.55,0 -1,0.45 -1,1 0,0.55 0.45,1 1,1 0.55,0 1,-0.45 1,-1 z m 83,-6.5 c 0,-2.14893 -4.0342,-4.06271 -5.0612,-2.40099 -0.4438,0.71802 -0.6809,1.55198 -0.527,1.85324 0.1539,0.30126 0.5675,1.35466 0.9192,2.34087 0.5187,1.45473 1.0196,1.58963 2.6542,0.71482 C 1011.0933,523.41487 1012,522.2863 1012,521.5 Z m -90.2619,-1.19048 c -0.92977,-0.92976 -1.97126,-1.4097 -2.31443,-1.06653 -0.98418,0.98419 0.52669,2.75701 2.34963,2.75701 1.52648,0 1.52374,-0.13153 -0.0352,-1.69048 z M 943.5,514.4863 c 0,-1.47355 -1.85792,-2.8898 -7.19725,-5.4863 -3.95849,-1.925 -8.23349,-4.42942 -9.5,-5.56538 -4.14189,-3.71495 -11.75318,-7.93285 -23.30275,-12.91356 -6.25232,-2.69628 -7.69001,-3.21659 -12.5,-4.52385 -2.475,-0.67265 -5.625,-2.00769 -7,-2.96675 -1.375,-0.95907 -7.225,-3.92498 -13,-6.59091 -5.775,-2.66594 -12.84311,-6.31246 -15.70692,-8.10338 -2.8638,-1.79091 -6.28101,-3.40005 -7.59379,-3.57586 -1.31278,-0.1758 -3.84169,-1.54379 -5.61981,-3.03998 C 840.30137,460.22415 838.05952,459 837.09759,459 c -0.96193,0 -2.80584,-1.125 -4.09759,-2.5 -1.29175,-1.375 -2.92582,-2.5 -3.63129,-2.5 -1.88101,0 -22.51705,-10.82127 -24.93316,-13.07462 C 803.3001,439.86642 801.63504,439 800.73541,439 c -0.89963,0 -4.02063,-1.37146 -6.93555,-3.0477 -2.91492,-1.67623 -6.84582,-3.74214 -8.73533,-4.59091 -1.88951,-0.84877 -6.08383,-3.30231 -9.32072,-5.45231 C 772.50693,423.75909 769.24195,422 768.4883,422 c -0.75365,0 -1.64838,-0.45 -1.9883,-1 -0.33992,-0.55 -1.49148,-1 -2.55902,-1 C 762.87344,420 762,419.61158 762,419.13685 c 0,-0.47474 -4.1625,-2.33646 -9.25,-4.13716 -5.0875,-1.8007 -9.7,-3.60538 -10.25,-4.0104 C 740.537,409.54372 727.93429,403 727.11324,403 c -0.46012,0 -6.63633,-2.79397 -13.72491,-6.20883 -7.08858,-3.41485 -13.38984,-6.23413 -14.00279,-6.26507 -0.61296,-0.0309 -1.73796,-0.53522 -2.5,-1.12063 -0.76205,-0.58541 -3.01105,-1.80783 -4.99778,-2.71647 -1.98673,-0.90865 -4.17933,-2.3354 -4.87244,-3.17055 C 686.3222,382.6833 685.19789,382 684.51684,382 683.0043,382 645.5902,363.42447 641.75,360.76691 c -1.5125,-1.0467 -2.75,-1.57771 -2.75,-1.18002 0,0.3977 -0.7875,0.0289 -1.75,-0.81961 -0.9625,-0.84849 -4.45,-2.94182 -7.75,-4.65185 -3.3,-1.71004 -8.7,-4.69978 -12,-6.64387 -3.3,-1.9441 -6.96879,-3.94275 -8.15286,-4.44146 -1.18407,-0.4987 -2.44886,-1.38568 -2.81065,-1.97105 -0.36178,-0.58537 -2.54299,-1.96231 -4.84713,-3.05986 -2.30415,-1.09755 -6.66436,-3.34626 -9.68936,-4.99714 -3.025,-1.65088 -6.4,-3.01639 -7.5,-3.03447 -2.96439,-0.0487 -11.48674,-3.17559 -15.61803,-5.73028 -1.98992,-1.23051 -4.36826,-2.2373 -5.28519,-2.2373 -0.91693,0 -2.75652,-0.71379 -4.08799,-1.5862 -1.33146,-0.8724 -3.00313,-1.25026 -3.71481,-0.83967 -0.71169,0.41059 -0.94735,0.36525 -0.5237,-0.10075 0.42366,-0.46601 -2.4051,-2.45065 -6.28614,-4.41033 -3.88103,-1.95968 -15.92766,-7.99529 -26.77028,-13.41247 -10.84262,-5.41718 -20.41241,-10.46893 -21.2662,-11.22611 -0.85379,-0.75718 -2.52304,-1.52483 -3.70945,-1.70589 -1.18641,-0.18106 -4.31285,-1.71667 -6.94766,-3.41248 -2.6348,-1.69581 -8.61555,-4.93679 -13.29055,-7.20219 -4.675,-2.26539 -10.975,-5.54382 -14,-7.28541 -3.025,-1.74159 -7.01874,-3.96838 -8.87497,-4.94843 -1.85623,-0.98004 -4.01925,-2.70174 -4.8067,-3.82598 C 448.53087,260.91984 446.96762,260 445.84443,260 443.31237,260 437.77025,257.48639 432.5,253.94767 428.68184,251.38396 412.61658,243 411.5222,243 411.23499,243 411,243.70532 411,244.56739 c 0,1.1668 -0.57505,1.38795 -2.25,0.8653 -3.6508,-1.13919 -6.12128,-3.24167 -8.25,-7.02106 -1.1,-1.95297 -3.35,-4.2623 -5,-5.13183 -1.65,-0.86954 -3.675,-1.93732 -4.5,-2.37285 -0.825,-0.43553 -4.425,-2.18592 -8,-3.88975 -3.575,-1.70383 -7.4,-3.61864 -8.5,-4.25515 C 366.56246,218.16909 356.44124,213 355.38563,213 c -0.69718,0 -1.51635,-0.40249 -1.82038,-0.89443 -0.30404,-0.49194 -5.3931,-3.28831 -11.30902,-6.21416 -5.91593,-2.92585 -12.32409,-6.37723 -14.24035,-7.66975 -1.91627,-1.29251 -4.84127,-2.94378 -6.5,-3.66948 -1.65874,-0.72571 -5.10372,-2.25079 -7.65553,-3.38907 -2.55181,-1.13829 -5.92681,-2.38494 -7.5,-2.77033 -3.30406,-0.80942 -4.32361,-2.0079 -4.34504,-5.1076 -0.008,-1.21815 -0.94863,-2.71431 -2.08936,-3.32481 -1.75592,-0.93974 -2.15728,-0.79175 -2.61664,0.96481 -0.5759,2.20224 -3.15367,2.69591 -6.07288,1.16301 -0.95504,-0.5015 -5.11143,-2.53733 -9.23643,-4.52407 -8.25269,-3.97477 -19.53785,-10.06893 -34.63743,-18.70478 C 241.93816,155.75698 233.225,151.09557 228,148.50065 c -5.225,-2.59492 -12.425,-6.26615 -16,-8.1583 -14.57881,-7.71614 -36.86414,-18.13449 -42.40797,-19.82564 -3.24938,-0.99123 -11.12438,-4.49087 -17.5,-7.77699 -6.37562,-3.28612 -13.84203,-7.0579 -16.59203,-8.38173 -2.75,-1.32383 -5.675,-2.84413 -6.5,-3.37844 -0.825,-0.53431 -6.45,-3.441933 -12.5,-6.461381 -6.05,-3.019448 -13.25,-6.781204 -16,-8.359459 -2.75,-1.578254 -6.620544,-3.789319 -8.601209,-4.913477 -1.980665,-1.124158 -6.930665,-4.057006 -11,-6.517441 C 76.829456,72.267357 71.025,69.020763 68,67.513137 64.975,66.005512 61.825,64.229499 61,63.566441 60.175,62.903384 56.8,61.511027 53.5,60.472315 50.2,59.433602 46.818352,58.028454 45.985227,57.349763 43.817587,55.583933 35.691483,53.9087 34.597874,55.002208 c -0.53614,0.536092 0.0724,1.312238 1.5,1.913143 8.759067,3.686855 18.846564,8.959813 21.90131,11.4483 0.825449,0.672435 2.850816,1.867991 4.500816,2.656791 1.65,0.7888 4.678558,2.456892 6.730128,3.70687 C 71.281699,75.97729 73.496265,77 74.151387,77 c 0.655123,0 1.901565,0.627017 2.769872,1.393371 0.868308,0.766354 5.178741,3.296085 9.578741,5.621625 4.4,2.325539 9.189268,5.069821 10.642819,6.098403 1.45355,1.028583 5.278551,3.130903 8.500001,4.671823 3.22145,1.540921 7.88218,4.111648 10.35718,5.712728 6.80129,4.39975 11.18946,6.50205 13.5719,6.50205 1.18195,0 3.80679,1.125 5.83296,2.5 2.02618,1.375 3.89792,2.5 4.15942,2.5 0.26151,0 2.37902,1.22555 4.70559,2.72345 2.32657,1.49789 6.4367,3.30635 9.13362,4.01878 2.69693,0.71244 5.39693,1.94163 6,2.73153 0.60308,0.7899 2.22151,1.90537 3.59651,2.47882 1.375,0.57346 3.175,1.43678 4,1.9185 0.825,0.48172 6.34196,3.2924 12.25992,6.24595 6.02841,3.00869 11.00505,6.14247 11.31739,7.12654 0.32672,1.02942 1.54613,1.75643 2.94607,1.75643 1.31373,0 4.67821,1.35 7.47662,3 2.79841,1.65 5.59528,3 6.21527,3 0.61998,0 1.87453,0.67628 2.78787,1.50284 3.09864,2.80423 49.06103,27.40462 56.99686,30.50635 1.925,0.75239 5.075,2.32432 7,3.49317 1.925,1.16885 9.8,4.91736 17.5,8.33003 7.7,3.41266 15.2375,6.85054 16.75,7.63972 2.55119,1.33113 2.75,1.29364 2.75,-0.51862 0,-2.38973 4.1219,-2.71646 5.98278,-0.47424 0.67522,0.81359 2.41782,2.11429 3.87244,2.89046 1.45463,0.77616 5.56978,3.01887 9.14478,4.98381 3.575,1.96493 7.41849,3.99235 8.5411,4.50537 1.1226,0.51302 2.6402,1.65464 3.37244,2.53693 0.73224,0.8823 1.69069,1.60418 2.12987,1.60418 0.76326,0 20.62523,11.39396 27.95659,16.03749 1.925,1.21926 6.875,4.02601 11,6.23723 4.125,2.21122 8.21043,4.629 9.07874,5.37284 0.86831,0.74384 1.94209,1.35244 2.38618,1.35244 0.44409,0 7.38366,3.5393 15.42126,7.86512 8.0376,4.32581 17.98882,9.56275 22.11382,11.63763 4.125,2.07489 9.3,4.67744 11.5,5.78346 2.2,1.10601 4.675,2.56584 5.5,3.24408 0.825,0.67823 2.625,1.56241 4,1.96483 1.97117,0.57691 21.53075,9.73 31.25,14.62374 0.9625,0.48463 2.5375,1.28062 3.5,1.76886 10.0129,5.07925 24.25719,10.88397 28.36271,11.55814 1.98699,0.32629 4.41924,1.48445 5.40499,2.5737 0.98575,1.08924 2.53253,1.98044 3.43729,1.98044 0.90475,0 2.07251,0.41943 2.59501,0.93206 0.81731,0.80188 5.01566,3.0693 20.95,11.3146 1.65,0.8538 6.81116,3.45045 11.46924,5.77032 4.65809,2.31988 11.63309,6.33102 15.5,8.91364 3.86692,2.58263 9.28076,5.72014 12.03076,6.97226 2.75,1.25212 8.21121,4.2612 12.13602,6.68685 3.92481,2.42565 7.58221,4.41027 8.12756,4.41027 0.54534,0 1.55173,0.675 2.23642,1.5 0.68469,0.825 1.84916,1.5 2.58772,1.5 0.73855,0 3.47155,1.35 6.07333,3 2.84759,1.80589 6.07351,3 8.10456,3 3.69738,0 11.47808,4.7183 13.25458,8.03772 0.71816,1.3419 2.09481,1.96228 4.35436,1.96228 2.57139,0 4.12497,0.88711 7.00512,4 2.03552,2.2 4.3203,4 5.0773,4 0.757,0 1.5468,0.51131 1.75511,1.13624 0.27629,0.82887 0.91647,0.80043 2.36649,-0.10512 1.69054,-1.05576 2.80512,-0.79995 7.45458,1.71098 15.54774,8.39648 18.61144,9.83243 20.23457,9.48395 1.05701,-0.22694 3.81432,1.46055 6.85815,4.19721 2.79974,2.51721 5.50457,4.57674 6.01073,4.57674 1.16262,0 23.42323,10.31243 28.8634,13.37123 1.375,0.77311 4.1034,2.18789 6.0631,3.14397 8.8858,4.33506 9.33931,7.09972 0.50151,3.05722 C 733.47148,417.15759 730.50227,416 729.96638,416 c -0.53589,0 -4.01006,-1.54158 -7.72037,-3.42574 C 702.84568,402.72245 696,399.56108 696,400.45371 c 0,0.22232 3.4875,2.50017 7.75,5.0619 4.2625,2.56173 8.425,5.07045 9.25,5.57494 0.825,0.50448 3.67576,2.15299 6.33503,3.66335 10.54288,5.98793 18.18952,10.59929 18.66497,11.25603 0.275,0.37987 1.5125,1.22386 2.75,1.87555 1.81886,0.95784 2.25,0.92042 2.25,-0.19531 0,-0.75911 0.82992,-2.13126 1.84426,-3.04923 1.67204,-1.51317 2.17925,-1.52906 5.43162,-0.17014 1.97305,0.82439 3.86969,1.95572 4.21476,2.51405 0.34506,0.55833 1.99387,1.01515 3.66401,1.01515 1.67013,0 4.23108,0.83886 5.69098,1.86413 1.4599,1.02527 5.57937,3.43477 9.15437,5.35443 3.575,1.91966 12.8,6.90026 20.5,11.068 31.14335,16.85681 34.53461,18.57866 37.47546,19.02747 0.84885,0.12954 2.65175,1.01188 4.00646,1.96075 1.3547,0.94887 2.87301,1.72522 3.37403,1.72522 1.72411,0 15.14604,7.13793 16.64405,8.85148 0.825,0.94371 2.9797,2.32491 4.78822,3.06933 1.80852,0.74442 3.73685,2.19177 4.28518,3.21634 0.92403,1.72657 1.17287,1.74759 3.40144,0.28738 1.32246,-0.86651 2.17595,-2.17099 1.89664,-2.89885 -0.2793,-0.72786 -0.0397,-1.61268 0.53239,-1.96627 1.4784,-0.9137 20.02297,8.43538 21.23893,10.70742 0.55582,1.03856 1.62235,1.65353 2.37007,1.36661 0.74771,-0.28693 2.4007,0.24755 3.67331,1.18773 1.2726,0.94017 4.11382,2.66805 6.31382,3.83972 2.2,1.17167 7.6,4.05486 12,6.40708 4.4,2.35222 9.575,5.11025 11.5,6.12896 1.925,1.0187 5.75,3.1669 8.5,4.77377 5.62266,3.28541 8,3.43863 8,0.5156 z M 976.81955,513.75 C 976.6438,512.5125 976.05,511.5 975.5,511.5 c -0.55,0 -1.1438,1.0125 -1.31955,2.25 -0.21988,1.54817 0.19173,2.25 1.31955,2.25 1.12782,0 1.53943,-0.70183 1.31955,-2.25 z m 18.34908,-0.036 2.66864,-2.21404 -2.35004,-1.74494 c -2.28463,-1.69638 -2.4076,-1.67176 -4.41863,0.88486 -4.07057,5.17489 -1.10876,7.3956 4.10003,3.07412 z M 896,514 c -1.95837,-1.2656 -3.28218,-1.2656 -2.5,0 0.33992,0.55 1.37898,0.99311 2.30902,0.98469 C 897.26629,514.97149 897.29269,514.8354 896,514 Z m 8.5,-1.03504 c 0,-1.47961 -7.20294,-6.87733 -9.25,-6.93174 -2.38172,-0.0633 -1.23616,1.77595 1.75573,2.81893 1.76301,0.61459 3.41936,2.13573 4.00616,3.67911 1.00999,2.65649 3.48811,2.96461 3.48811,0.4337 z m 127.7246,-1.52286 c 1.0661,-1.06609 -0.4513,-4.37929 -2.27,-4.95652 -1.0062,-0.31936 -2.7396,-0.0123 -3.852,0.68241 -1.8719,1.16905 -1.9023,1.39589 -0.4076,3.04754 1.5389,1.70037 5.3414,2.41469 6.5296,1.22657 z M 944,507 c 0,-0.55 -0.47656,-1 -1.05902,-1 -0.58246,0 -0.7809,0.45 -0.44098,1 0.33992,0.55 0.81648,1 1.05902,1 0.24254,0 0.44098,-0.45 0.44098,-1 z m -71,-9.96482 c 0,-0.53065 -1.0125,-1.49801 -2.25,-2.1497 -1.2375,-0.65169 -2.58061,-1.68002 -2.98469,-2.28518 -0.5218,-0.78148 -0.73912,-0.7618 -0.75,0.0679 -0.008,0.64252 -0.27568,1.84672 -0.5939,2.676 -0.41381,1.07836 0.22699,1.62858 2.25,1.93195 1.55572,0.2333 3.16609,0.4916 3.57859,0.57401 0.4125,0.0824 0.75,-0.28434 0.75,-0.81499 z M 896.5,497 c -0.33992,-0.55 -1.06803,-1 -1.61803,-1 -0.55,0 -0.72189,0.45 -0.38197,1 0.33992,0.55 1.06803,1 1.61803,1 0.55,0 0.72189,-0.45 0.38197,-1 z m -38.04271,-1.9309 c 0.31644,-0.512 0.11799,-1.21356 -0.44098,-1.55902 -0.55897,-0.34546 -1.01631,0.0734 -1.01631,0.9309 0,1.75653 0.60006,2.01516 1.45729,0.62812 z m 103.93572,-0.65089 c 1.44521,-3.76615 0.54457,-5.08031 -5.44299,-7.9421 -3.32748,-1.59039 -6.53258,-3.47313 -7.12244,-4.18387 C 948.3867,480.55609 947,480.65798 947,482.5 c 0,0.825 -0.32657,1.5 -0.72571,1.5 -0.39914,0 -6.68088,-2.925 -13.95941,-6.5 -13.03306,-6.40146 -16.59591,-7.78594 -12.97418,-5.04164 1.17531,0.89058 1.62197,2.08388 1.23563,3.30114 -0.44061,1.38824 0.0686,2.21333 1.87359,3.03573 1.48378,0.67606 2.70916,0.75638 3.05295,0.20013 0.56111,-0.9079 9.365,3.3714 14.6515,7.12163 1.4599,1.03566 3.13653,1.88301 3.72583,1.88301 0.5893,0 2.54484,0.89832 4.34563,1.99626 1.80079,1.09795 4.01182,1.99795 4.91339,2 0.90156,0.002 2.70156,0.88877 4,1.97047 2.88341,2.40212 4.45348,2.53705 5.25379,0.45148 z m -111.46338,-5.28673 c 0.55,-1.02768 0.73167,-2.13685 0.4037,-2.46481 C 850.37129,485.70462 847,487.9363 847,489.53518 c 0,2.09341 2.7441,1.8115 3.92963,-0.4037 z m 42.74043,-8.58064 c -4.14006,-2.80952 -6.40153,-3.48614 -6.85448,-2.05084 -0.37854,1.19951 5.905,4.49625 8.57397,4.49845 1.38372,0.001 0.92343,-0.65407 -1.71949,-2.44761 z m 78.30098,1.48822 c 1.95869,-1.23871 1.03141,-2.00122 -5.21795,-4.29074 C 959.01439,474.91316 958,474.67375 958,475.68245 c 0,0.76219 10.40501,7.02673 12,7.22482 0.275,0.0342 1.16197,-0.35654 1.97104,-0.86821 z m -28.9911,-3.56323 c -0.69572,-0.83829 -1.47088,-1.31823 -1.72258,-1.06653 -0.69349,0.6935 0.71555,2.5907 1.9241,2.5907 0.6631,0 0.58723,-0.57378 -0.20152,-1.52417 z m -101.42612,-3.38875 c -0.92843,-1.50224 -16.58676,-9.24277 -17.84726,-8.8226 -1.67214,0.55738 3.56956,3.79777 11.21522,6.9332 7.68557,3.15179 7.35383,3.05728 6.63204,1.8894 z M 937,475.55902 c 0,-0.24254 -0.45,-0.7191 -1,-1.05902 -0.55,-0.33992 -1,-0.14148 -1,0.44098 0,0.58246 0.45,1.05902 1,1.05902 0.55,0 1,-0.19844 1,-0.44098 z m 19.08969,-1.95096 C 954.72106,471.95897 951,470.81543 951,472.04393 c 0,1.06532 3.03026,2.88484 4.87244,2.92566 1.05962,0.0235 1.10913,-0.28687 0.21725,-1.36153 z M 891,472.11663 c 0,-0.48585 -0.92572,-1.12545 -2.05715,-1.42132 -1.68797,-0.44142 -1.84546,-0.28289 -0.87756,0.88336 1.32028,1.59084 2.93471,1.88678 2.93471,0.53796 z M 885,468.5 c -0.70675,-0.85158 -1.51,-1.32333 -1.785,-1.04833 -0.275,0.275 0.0782,1.19675 0.785,2.04833 0.70675,0.85158 1.51,1.32333 1.785,1.04833 0.275,-0.275 -0.0782,-1.19675 -0.785,-2.04833 z m -16,0.059 c 0,-0.24254 -0.45,-0.7191 -1,-1.05902 -0.55,-0.33992 -1,-0.14148 -1,0.44098 0,0.58246 0.45,1.05902 1,1.05902 0.55,0 1,-0.19844 1,-0.44098 z m -6.30576,-4.09062 c -2.78375,-2.44903 -4.71517,-3.15949 -4.67153,-1.7184 0.0202,0.66745 5.70988,4.05005 6.97729,4.14811 0.275,0.0213 -0.76259,-1.07209 -2.30576,-2.42971 z m 16.27434,1.7816 c -0.0579,-1.38084 -4.8334,-4.27775 -5.43832,-3.29896 -0.32428,0.5247 0.66125,1.63234 2.19007,2.46144 3.30974,1.79491 3.28813,1.78933 3.24825,0.83752 z M 906.5,465.41699 C 902.30157,462.28089 896.86923,459 895.87506,459 c -0.56987,0 -3.36239,-1.51615 -6.20559,-3.36922 -2.84321,-1.85308 -7.19447,-4.58226 -9.66947,-6.06486 -2.475,-1.4826 -9.45,-5.79003 -15.5,-9.57208 C 853.02265,432.81899 838.00421,425 835.70037,425 c -0.73683,0 -2.31787,-1.125 -3.51342,-2.5 -1.19555,-1.375 -3.19345,-2.5 -4.43979,-2.5 -1.24634,0 -2.793,-0.84375 -3.43702,-1.875 -0.66356,-1.06252 -2.31251,-1.875 -3.80536,-1.875 -1.52325,0 -3.86802,-1.18188 -5.55916,-2.8021 -1.60862,-1.54115 -3.19755,-2.5293 -3.53097,-2.19588 -0.33342,0.33342 -2.02562,-0.18172 -3.76043,-1.14476 -6.59824,-3.66283 -13.34962,-7.11667 -18.65422,-9.54303 -3.025,-1.38365 -6.175,-2.92307 -7,-3.42093 -1.73161,-1.04495 -17.91396,-8.84005 -26,-12.52429 -5.16619,-2.35387 -15.65765,-7.72416 -19,-9.72558 -0.825,-0.49401 -2.625,-1.35917 -4,-1.92258 -4.90598,-2.01022 -13.74471,-6.8345 -19.46101,-10.62205 -3.19481,-2.11684 -6.31055,-4.14108 -6.92387,-4.49831 C 704.5101,356.6244 691.34048,351 690.57461,351 c -0.42123,0 -1.96034,-0.84496 -3.42024,-1.87769 -1.4599,-1.03274 -6.92937,-3.99761 -12.15437,-6.58861 -8.67295,-4.3008 -12.97731,-6.5008 -20,-10.22223 -1.375,-0.72863 -5.06184,-2.44824 -8.19298,-3.82136 -3.13113,-1.37311 -5.97019,-2.94511 -6.30901,-3.49334 C 640.15918,324.44855 639.10859,324 638.16335,324 c -0.94524,0 -5.08119,-1.73752 -9.19099,-3.86115 -4.1098,-2.12363 -8.82236,-4.55451 -10.47236,-5.40196 -13.4903,-6.92867 -24.61,-11.39472 -21.95,-8.81587 1.27934,1.2403 23.68418,12.53327 24.95799,12.57985 0.55439,0.0203 2.57939,1.00438 4.5,2.18688 1.9206,1.18251 7.72492,4.20693 12.89848,6.72094 5.17356,2.514 9.62518,4.78963 9.8925,5.05695 0.26732,0.26731 -0.0902,1.18034 -0.79448,2.02895 -1.05678,1.27334 -0.97313,1.88258 0.47878,3.48692 0.97922,1.08203 1.48564,2.65711 1.14214,3.55228 -0.54517,1.42068 -0.96756,1.35876 -3.62128,-0.53085 -3.14406,-2.23877 -3.87624,-4.47412 -1.75413,-5.35535 1.70632,-0.70857 -2.68428,-4.48628 -6.12645,-5.27124 -1.44295,-0.32906 -7.34855,-2.89088 -13.12355,-5.69294 -5.775,-2.80206 -10.89382,-4.98335 -11.37516,-4.84731 -0.48134,0.13604 -1.60634,-0.38255 -2.5,-1.15241 -0.89366,-0.76985 -5.57169,-3.37613 -10.39561,-5.79171 -4.82393,-2.41559 -10.22393,-5.15842 -12,-6.09519 -1.77608,-0.93677 -6.60423,-3.13201 -10.72923,-4.87831 -4.125,-1.74631 -8.77203,-4.24237 -10.32673,-5.54679 -1.55469,-1.30443 -3.35469,-2.37389 -4,-2.37657 -1.07545,-0.004 -8.10472,-3.42939 -18.15846,-8.84746 C 543.32295,283.96645 541.04062,283 540.44295,283 c -0.59767,0 -2.85433,-1.33748 -5.01481,-2.97218 -2.16048,-1.6347 -4.62564,-2.9847 -5.47814,-3 -0.8525,-0.0153 -1.9775,-0.43681 -2.5,-0.93668 -0.5225,-0.49987 -8.15,-4.6025 -16.95,-9.11696 -8.8,-4.51446 -16.675,-8.78956 -17.5,-9.50022 -0.825,-0.71066 -3.525,-2.38498 -6,-3.72071 -2.475,-1.33572 -8.1,-4.37176 -12.5,-6.74674 -4.4,-2.37499 -10.55815,-6.04488 -13.68479,-8.15531 C 450.86145,232.13255 416.04814,215 412.34962,215 410.50733,215 409,214.56753 409,214.03896 c 0,-1.87575 -4.22595,-4.8587 -7.83653,-5.53154 -2.01491,-0.37548 -7.48847,-2.64252 -12.16347,-5.03786 -4.675,-2.39534 -9.72575,-4.65174 -11.22389,-5.01422 -1.49814,-0.36248 -5.32314,-2.01103 -8.5,-3.66344 -3.17686,-1.65242 -8.02611,-3.90247 -10.77611,-5.00011 -2.75,-1.09764 -6.125,-2.46897 -7.5,-3.04741 -1.375,-0.57843 -3.03521,-1.16372 -3.68936,-1.30065 -3.10193,-0.64931 -27.67213,-13.40522 -29.67093,-15.40402 C 317.06787,169.46787 315.94608,169 315.14684,169 c -2.26527,0 -13.19369,-5.42524 -20.77396,-10.31291 -3.78008,-2.43735 -9.74894,-5.95154 -13.26413,-7.80932 -7.58121,-4.00666 -9.44366,-5.09104 -11.2521,-6.55134 -0.74616,-0.60252 -2.93165,-1.40667 -4.85665,-1.787 -4.70228,-0.92905 -17.84319,-6.3207 -21.21132,-8.70289 -1.49123,-1.05471 -5.20316,-2.77497 -8.24873,-3.8228 -3.04557,-1.04783 -7.90048,-3.4262 -10.78868,-5.28527 C 215.70767,118.9073 214.10471,118 212.86392,118 c -0.66354,0 -1.91687,-0.60814 -2.78518,-1.35143 C 206.97364,113.99054 189.92325,106 187.35659,106 c -1.16143,0 -2.6719,-0.675 -3.35659,-1.5 -0.68469,-0.825 -1.8041,-1.5 -2.48759,-1.5 -0.68348,0 -2.39188,-0.90395 -3.79644,-2.00878 -1.40456,-1.104825 -3.93015,-2.284057 -5.61243,-2.620512 -1.68228,-0.336456 -3.57388,-1.232506 -4.20356,-1.991223 C 167.2703,95.620768 166.18457,95 165.48725,95 164.39722,95 156.63814,91.248957 148,86.545978 c -1.375,-0.748609 -9.25,-4.56892 -17.5,-8.48958 -8.25,-3.920659 -16.35,-7.869206 -18,-8.774548 -1.65,-0.905342 -4.87378,-2.630914 -7.16396,-3.834605 -2.29018,-1.20369 -5.440181,-3.094907 -7.000002,-4.202703 C 96.776217,60.136746 93.306469,58.007793 90.625487,56.513535 87.944504,55.019278 83.747536,52.267445 81.29889,50.398352 78.850245,48.529258 76.222108,47 75.458587,47 74.695066,47 73.644919,46.205042 73.124926,45.233427 72.214739,43.532726 62.788246,40 59.160397,40 57.199718,40 55,41.830917 55,43.462872 c 0,0.584579 0.866855,1.507079 1.926344,2.05 1.059489,0.54292 4.996989,3.065002 8.75,5.604626 C 69.429355,53.657122 74.525,56.855999 77,58.226114 c 8.545286,4.730515 12.510731,6.977895 15.5,8.784486 1.65,0.997192 4.418367,2.031537 6.151926,2.298544 1.733564,0.267007 4.875524,1.65668 6.982134,3.088162 C 107.74068,73.828788 110.18481,75 111.06547,75 c 0.88066,0 2.9137,1.3375 4.51786,2.972222 1.60417,1.634722 3.4632,2.984722 4.13119,3 0.66798,0.01528 3.3252,1.206161 5.90493,2.646407 4.48522,2.504073 9.39424,5.137929 24.88055,13.349264 3.85,2.041392 8.575,4.662237 10.5,5.824107 7.83326,4.7279 16,8.93257 16,8.23764 0,-0.40679 -2.03901,-2.02847 -4.53113,-3.60372 -2.69071,-1.70078 -4.41138,-3.48591 -4.23631,-4.39501 0.4146,-2.15282 2.45539,-1.90503 6.1203,0.7431 7.78714,5.62672 23.35458,15.13682 32.64714,19.94403 2.475,1.28037 5.175,2.74656 6,3.25822 0.825,0.51165 12.525,6.38469 26,13.0512 30.32187,15.00119 42.79258,21.48459 44.88461,23.33509 0.88846,0.78588 3.71648,2.13311 6.28449,2.99383 2.568,0.86073 7.068,3.06815 10,4.90539 2.93199,1.83724 8.4809,4.844 12.3309,6.6817 3.85,1.8377 10.6,5.14526 15,7.35012 4.4,2.20487 10.04328,5.02141 12.54062,6.25898 2.84275,1.40875 5.55665,2.05591 7.25783,1.73071 3.03973,-0.58108 7.69858,1.02969 12.20155,4.21861 1.65,1.16849 4.25267,2.65586 5.78372,3.30525 2.30304,0.97683 2.8827,0.92275 3.35699,-0.31322 0.72245,-1.88267 3.96861,-1.95439 4.67892,-0.10337 0.29348,0.7648 2.92912,2.60341 5.85698,4.0858 2.92787,1.48239 7.34839,3.99936 9.82339,5.59325 2.475,1.5939 5.175,3.15497 6,3.46905 2.29398,0.87333 5.16132,2.58771 11.60735,6.94003 3.24096,2.18827 7.69265,4.91871 9.89265,6.06765 12.19066,6.36651 24.88747,12.77499 31.5,15.89904 4.125,1.94884 9.525,4.7028 12,6.11992 5.86898,3.36042 11.22987,5.61566 10.48536,4.41103 -0.3238,-0.52393 -2.59047,-2.12569 -5.03704,-3.55948 C 461.06361,246.84723 459.53484,244 462.53984,244 c 1.91721,0 9.09989,3.60805 9.96308,5.00473 0.35124,0.56831 2.74427,2.16428 5.31785,3.54659 2.57358,1.38231 6.70423,3.83194 9.17923,5.44361 2.475,1.61168 5.85,3.63012 7.5,4.48542 4.63919,2.40481 8.47856,4.69515 14.5425,8.67518 3.06324,2.01054 7.11932,4.37455 9.01351,5.25336 1.8942,0.87882 7.49399,3.8055 12.44399,6.50375 16.57308,9.034 27.05797,14.08736 29.22896,14.08736 1.18416,0 2.4435,0.47003 2.79854,1.0445 0.35505,0.57448 8.94373,5.05529 19.08596,9.95736 12.74719,6.16114 19.47195,10.00661 21.78156,12.4555 1.83762,1.94845 3.9879,3.54264 4.7784,3.54264 0.79049,0 5.84308,2.25 11.22798,5 5.38489,2.75 10.44031,5 11.23426,5 0.79395,0 3.17841,1.76992 5.29881,3.93315 2.45096,2.50046 5.44167,4.35141 8.2104,5.0814 2.39532,0.63153 5.25513,1.70426 6.35513,2.38382 3.02595,1.8694 13.29554,4.84603 14.38855,4.17051 1.28059,-0.79145 5.79883,1.25205 10.11145,4.5732 1.925,1.48244 4.89464,3.51943 6.59919,4.52663 1.70456,1.00721 4.17956,2.54015 5.5,3.40654 3.73105,2.44806 13.92436,8.46849 18.90081,11.16329 2.475,1.34024 7.99315,4.33193 12.26255,6.6482 6.42491,3.48569 7.86499,3.94447 8.35699,2.66233 0.86837,-2.26293 2.48028,-1.91546 6.50532,1.40232 3.29975,2.71993 12.91413,7.83912 31.16772,16.59528 3.96408,1.90155 8.69112,4.41026 10.50452,5.57491 1.81341,1.16465 3.56466,1.84999 3.89167,1.52299 0.66599,-0.66599 -3.66431,-4.55947 -5.12866,-4.6113 -1.02314,-0.0362 -11.39032,-6.02428 -21.31011,-12.30868 -3.4375,-2.17773 -6.25,-4.58165 -6.25,-5.34205 0,-2.10645 1.34411,-1.70172 7.16272,2.1568 2.9355,1.94663 8.03728,4.91082 11.33728,6.58708 3.3,1.67625 7.575,3.94718 9.5,5.0465 1.925,1.09932 6.875,3.87808 11,6.17503 4.125,2.29695 9.3,5.19726 11.5,6.44513 3.61656,2.05137 37.88322,19.02684 41.5,20.55883 0.825,0.34945 2.175,1.02777 3,1.50739 0.825,0.47961 3.975,2.05883 7,3.50938 3.025,1.45054 9.775,4.92571 15,7.7226 15.25393,8.16527 16.85274,8.92927 20.00587,9.55989 1.64677,0.32936 2.99413,1.00711 2.99413,1.50612 0,0.49901 3.0375,2.29785 6.75,3.99742 3.7125,1.69957 7.425,3.66358 8.25,4.36447 1.38909,1.18012 4.10331,2.149 6.5,2.32028 0.55,0.0393 0.1,-0.60081 -1,-1.42247 z m 24.99445,-0.42312 c -0.99854,-1.10337 -2.03241,-1.78925 -2.29749,-1.52417 -0.67193,0.67194 1.82222,3.5303 3.08047,3.5303 0.5679,0 0.21556,-0.90276 -0.78298,-2.00613 z m -15.35523,-1.02714 c -1.29844,-1.0817 -3.09844,-1.95672 -4,-1.94449 -1.23442,0.0167 -1.02185,0.50514 0.86078,1.97776 3.39684,2.65704 6.33123,2.62595 3.13922,-0.0333 z M 770.55887,461.4682 c -1.06762,-0.80751 -2.64262,-1.43165 -3.5,-1.38698 -0.85738,0.0447 -0.20887,0.69937 1.44113,1.45489 3.87671,1.77512 4.46972,1.75556 2.05887,-0.0679 z M 927,461.74055 c 0,-0.6927 -1.0125,-1.9023 -2.25,-2.68799 -3.1778,-2.01761 -21.5486,-11.05212 -22.47867,-11.0547 -0.42423,-10e-4 -3.38513,-1.37992 -6.57976,-3.06386 -3.19464,-1.68394 -6.34464,-2.86161 -7,-2.61705 -0.65537,0.24456 -0.004,0.91815 1.44734,1.49687 1.4514,0.57871 4.1514,2.31985 6,3.86919 1.8486,1.54935 5.38609,3.76751 7.86109,4.92925 2.475,1.16174 8.1,3.93323 12.5,6.15887 8.67329,4.38719 10.5,4.90378 10.5,2.96942 z m -71,-0.18153 c 0,-0.24254 -0.45,-0.7191 -1,-1.05902 -0.55,-0.33992 -1,-0.14148 -1,0.44098 0,0.58246 0.45,1.05902 1,1.05902 0.55,0 1,-0.19844 1,-0.44098 z m 28,0 c 0,-0.24254 -0.45,-0.7191 -1,-1.05902 -0.55,-0.33992 -1,-0.14148 -1,0.44098 0,0.58246 0.45,1.05902 1,1.05902 0.55,0 1,-0.19844 1,-0.44098 z m -21.99849,-5.01263 c -1.37417,-0.7605 -2.71114,-1.17009 -2.97104,-0.91019 -0.67276,0.67276 2.18335,2.33701 3.96953,2.31305 0.86962,-0.0117 0.45,-0.60122 -0.99849,-1.40286 z m -67.90912,-4.3129 C 789.03159,448.02971 779.30159,442 777.57885,442 c -0.64837,0 -1.60635,-0.40826 -2.12885,-0.90725 -1.37466,-1.31281 -13.58331,-6.29277 -14.1175,-5.75859 -0.51736,0.51737 3.84113,3.14793 18.6675,11.26671 5.775,3.16233 12.04942,6.7839 13.94315,8.04793 5.09203,3.39881 5.19244,1.77385 0.14924,-2.41531 z M 839,452.93256 c -4.44028,-3.59301 -17,-8.84471 -17,-7.10836 0,0.52744 1.21005,1.26269 2.68901,1.63388 1.47895,0.37119 4.01473,1.6189 5.63507,2.77268 2.48725,1.77108 8.9757,4.62947 10.67592,4.70311 0.275,0.0119 -0.625,-0.88868 -2,-2.00131 z m -95.49563,-5.93962 c 0.34231,-0.55389 -0.10054,-1.28448 -0.98412,-1.62354 -1.91464,-0.73472 -2.98171,0.0749 -2.06137,1.56407 0.83038,1.34358 2.23491,1.37101 3.04549,0.0595 z M 857,447.0144 c 0,-1.24409 -11.78398,-7.25307 -13.2593,-6.7613 -1.35856,0.45285 5.43037,4.7469 7.50489,4.7469 0.83024,0 2.06972,0.675 2.75441,1.5 1.41719,1.70761 3,1.979 3,0.5144 z m -42.52749,-6.3797 c -2.92835,-2.0269 -6.89921,-3.13413 -5.99541,-1.67176 0.80945,1.30973 4.23111,2.8762 6.49541,2.97367 1.02513,0.0441 0.87322,-0.35141 -0.5,-1.30191 z M 830,440.09055 c -0.825,-0.46674 -2.62147,-1.19297 -3.99216,-1.61383 -2.23107,-0.68505 -2.3492,-0.59296 -1.12755,0.87903 0.75053,0.90434 2.547,1.63057 3.99215,1.61384 1.95867,-0.0227 2.24571,-0.24644 1.12756,-0.87904 z M 725,437 c 0,-0.55 -0.45,-1 -1,-1 -0.55,0 -1,0.45 -1,1 0,0.55 0.45,1 1,1 0.55,0 1,-0.45 1,-1 z m 80.573,-0.52147 c -1.05985,-0.80183 -2.17182,-1.21305 -2.47104,-0.91382 -0.62769,0.62769 1.9121,2.41268 3.39804,2.38817 0.55,-0.009 0.13285,-0.67253 -0.927,-1.47435 z m 30.427,0.0472 c 0,-0.26088 -1.35,-1.17243 -3,-2.02568 -1.65,-0.85325 -3,-1.15857 -3,-0.67849 0,0.48007 1.0125,1.36117 2.25,1.958 2.50904,1.21006 3.75,1.45699 3.75,0.74617 z m -78.86078,-4.61176 C 755.84078,430.86126 754.05348,430 753.16744,430 c -0.96335,0 -0.21527,0.9628 1.86078,2.3949 3.99431,2.75534 5.64034,2.38031 2.111,-0.48098 z m 43.90725,1.17291 c -0.87612,-1.63704 -1.77873,-1.83943 -5.04647,-1.13154 -0.98487,0.21335 3.41026,3.04471 4.72631,3.04471 1.01385,0 1.0925,-0.47003 0.32016,-1.91317 z M 824,430.60699 c 0,-0.21616 -0.69837,-0.661 -1.55194,-0.98855 -0.88992,-0.34149 -1.29132,-0.17385 -0.94098,0.39301 0.58726,0.95021 2.49292,1.40545 2.49292,0.59554 z m -20,-5.04797 c 0,-0.24254 -0.45,-0.7191 -1,-1.05902 -0.55,-0.33992 -1,-0.14148 -1,0.44098 0,0.58246 0.45,1.05902 1,1.05902 0.55,0 1,-0.19844 1,-0.44098 z m -1.55887,-6.02722 C 799.90154,417.61095 798.41617,417.5916 800,419.5 c 0.68469,0.825 1.9508,1.5 2.81357,1.5 1.2558,0 1.18151,-0.29285 -0.37244,-1.4682 z M 791,414.10699 c 0,-1.10907 -3.07642,-2.36391 -3.86417,-1.57616 -0.31785,0.31786 0.0841,0.99656 0.89313,1.50823 1.86986,1.18254 2.97104,1.20771 2.97104,0.0679 z m -7,-4.5 c 0,-0.21616 -0.69837,-0.661 -1.55194,-0.98855 -0.88992,-0.34149 -1.29132,-0.17385 -0.94098,0.39301 0.58726,0.95021 2.49292,1.40545 2.49292,0.59554 z m -99,-15.04797 c 0,-0.24254 -0.45,-0.7191 -1,-1.05902 -0.55,-0.33992 -1,-0.14148 -1,0.44098 0,0.58246 0.45,1.05902 1,1.05902 0.55,0 1,-0.19844 1,-0.44098 z m 32.77083,-2.74652 C 717.15276,389.95828 715,389.65074 715,391.41667 715,392.2875 715.7125,393 716.58333,393 c 0.87084,0 1.40521,-0.53438 1.1875,-1.1875 z M 666,391.60699 c 0,-0.21616 -0.69837,-0.661 -1.55194,-0.98855 -0.88992,-0.34149 -1.29132,-0.17385 -0.94098,0.39301 0.58726,0.95021 2.49292,1.40545 2.49292,0.59554 z m 5,-4.04797 c 0,-0.24254 -0.45,-0.7191 -1,-1.05902 -0.55,-0.33992 -1,-0.14148 -1,0.44098 0,0.58246 0.45,1.05902 1,1.05902 0.55,0 1,-0.19844 1,-0.44098 z m -20,-6.38471 c 0,-1.61391 -4.86587,-5.37524 -6.02609,-4.65818 -0.81946,0.50645 -0.46421,1.42609 1.17597,3.04432 2.35885,2.32728 4.85012,3.15624 4.85012,1.61386 z m 87.45729,-15.10521 c 0.31644,-0.512 0.11799,-1.21356 -0.44098,-1.55902 -0.55897,-0.34546 -1.01631,0.0734 -1.01631,0.9309 0,1.75653 0.60006,2.01516 1.45729,0.62812 z m -121.01616,-3.56966 c -1.06762,-0.8253 -3.74113,-2.39735 -5.94113,-3.49343 -2.2,-1.09608 -5.35,-2.86615 -7,-3.93349 -1.65,-1.06734 -6.15,-3.59987 -10,-5.62785 -3.85,-2.02797 -7.69324,-4.29209 -8.54054,-5.03137 -1.84793,-1.61236 -13.25562,-7.45047 -13.69659,-7.0095 -1.43643,1.43643 8.32102,8.5962 11.71504,8.5962 0.65074,0 3.50942,1.49547 6.35262,3.32328 2.84321,1.8278 9.44447,5.48151 14.66947,8.11936 5.225,2.63785 9.9275,5.19238 10.45,5.67672 0.5225,0.48435 1.62101,0.88064 2.44113,0.88064 1.12158,0 1.01006,-0.37189 -0.45,-1.50056 z m -46.67499,-25.70102 c -0.4168,-1.25041 -2.2611,-2.38169 -14.76614,-9.05746 -15.99923,-8.54114 -22,-11.58158 -22,-11.14685 0,0.2486 -1.08333,-0.25783 -2.4074,-1.12539 -1.47195,-0.96446 -2.64401,-1.19456 -3.01631,-0.59216 -0.3349,0.54189 -0.0391,1.34594 0.6574,1.78679 2.39318,1.51482 7.27503,4.15794 12.76631,6.91188 3.025,1.51708 5.77005,3.16319 6.10011,3.65803 0.33006,0.49484 1.23006,1.02682 2,1.18218 2.5393,0.51239 5.33416,1.88271 10.51368,5.15484 6.38961,4.03661 10.89988,5.47073 10.15235,3.22814 z m -13.30685,-53.86429 c -0.46665,-0.75505 -7.42647,-4.2614 -11.98103,-6.03602 -0.92629,-0.36092 -10.84395,-6.01561 -20.28801,-11.5675 -2.02964,-1.19316 -4.57418,-2.20566 -5.65454,-2.25 -3.60789,-0.14806 0.28945,2.32464 17.96429,11.39761 9.35,4.7996 17.40954,9.11252 17.91008,9.58425 1.13377,1.0685 2.82977,0.13464 2.04921,-1.12834 z m -42.02596,-21.8384 c -0.51333,-0.47902 -2.00218,-1.19473 -3.30856,-1.59047 -3.01703,-0.91395 -1.931,1.25206 1.22756,2.44826 2.40942,0.91249 3.49748,0.46399 2.081,-0.85779 z M 480,258.52568 c 0,-0.78722 -6.14785,-3.71116 -6.68134,-3.17768 -0.27251,0.27252 0.78181,1.18768 2.34293,2.0337 2.9393,1.5929 4.33841,1.96183 4.33841,1.14398 z m 29,0.0333 c 0,-0.24254 -0.45,-0.7191 -1,-1.05902 -0.55,-0.33992 -1,-0.14148 -1,0.44098 0,0.58246 0.45,1.05902 1,1.05902 0.55,0 1,-0.19844 1,-0.44098 z M 366,232.47525 c 0,-0.78831 -5.19996,-2.60862 -5.78387,-2.02471 -0.27857,0.27857 0.57134,0.93764 1.88869,1.46459 2.81724,1.12692 3.89518,1.28193 3.89518,0.56012 z M 358.5,229 c -0.33992,-0.55 -1.15398,-0.99311 -1.80902,-0.98469 -0.71561,0.009 -0.59227,0.40223 0.30902,0.98469 1.92112,1.24153 2.2673,1.24153 1.5,0 z m -11.9427,-7.58176 c -2.96413,-2.16743 -4.38241,-1.62244 -1.66564,0.64003 1.31542,1.09546 2.66471,1.71869 2.99843,1.38497 0.33372,-0.33372 -0.26604,-1.24497 -1.33279,-2.025 z M 339,217.55902 c 0,-0.24254 -0.45,-0.7191 -1,-1.05902 -0.55,-0.33992 -1,-0.14148 -1,0.44098 0,0.58246 0.45,1.05902 1,1.05902 0.55,0 1,-0.19844 1,-0.44098 z m -4,-2.45203 c 0,-0.49116 -0.7118,-1.16616 -1.58179,-1.5 -2.44628,-0.93873 -2.7695,-0.7352 -1.41821,0.89301 1.37965,1.66238 3,1.99022 3,0.60699 z m -17,-12.54797 c 0,-0.24254 -0.45,-0.7191 -1,-1.05902 -0.55,-0.33992 -1,-0.14148 -1,0.44098 0,0.58246 0.45,1.05902 1,1.05902 0.55,0 1,-0.19844 1,-0.44098 z m 40.54065,-1.52293 c -1.62764,-1.0729 -3.20193,-1.70814 -3.49843,-1.41165 -0.76537,0.76537 3.03206,3.37686 4.89891,3.36897 0.93827,-0.004 0.38073,-0.78319 -1.40048,-1.95732 z M 288.73882,194 c -4.72482,-2.53235 -5.61304,-2.54371 -2.5996,-0.0333 1.29843,1.0817 3.25412,1.9817 4.34597,2 1.36927,0.0229 0.82744,-0.58725 -1.74637,-1.96673 z M 281,190.55902 c 0,-0.24254 -0.45,-0.7191 -1,-1.05902 -0.55,-0.33992 -1,-0.14148 -1,0.44098 0,0.58246 0.45,1.05902 1,1.05902 0.55,0 1,-0.19844 1,-0.44098 z m -5.86078,-3.59229 c -1.29844,-1.0817 -2.87344,-1.95176 -3.5,-1.93346 -0.62657,0.0183 -0.0769,0.9183 1.22156,2 1.29844,1.0817 2.87344,1.95176 3.5,1.93346 0.62657,-0.0183 0.0769,-0.9183 -1.22156,-2 z M 350.9922,181.25 c -0.009,-0.89049 -5.16291,-3.41262 -5.75776,-2.81778 -0.22619,0.2262 0.86603,1.10346 2.42715,1.94948 3.3757,1.8294 3.34051,1.82023 3.33061,0.8683 z M 177.5,140.37901 c -1.65,-1.40199 -4.56409,-3.23429 -6.47575,-4.07178 -1.91166,-0.8375 -7.98666,-4.34586 -13.5,-7.79636 -11.0976,-6.94539 -28.19377,-15.78829 -29.60876,-15.31496 -1.29261,0.43239 8.31458,7.39074 15.5085,11.23259 13.01146,6.94865 20.09687,10.9378 20.57601,11.58449 0.84255,1.13718 13.40352,6.93658 15,6.9255 0.94691,-0.007 0.39382,-0.95032 -1.5,-2.55948 z M 26,39.118034 c 0,-0.55 0.45,-1.278115 1,-1.618034 0.55,-0.339919 1,-0.168034 1,0.381966 0,0.55 -0.45,1.278115 -1,1.618034 -0.55,0.339919 -1,0.168034 -1,-0.381966 z"/>
</svg>
