<?xml version="1.0" encoding="utf-8"?>
<!-- Created with Inkscape (http://www.inkscape.org/) -->
<svg xmlns="http://www.w3.org/2000/svg" xmlns:cc="http://creativecommons.org/ns#" xmlns:dc="http://purl.org/dc/elements/1.1/" xmlns:inkscape="http://www.inkscape.org/namespaces/inkscape" xmlns:rdf="http://www.w3.org/1999/02/22-rdf-syntax-ns#" xmlns:sodipodi="http://sodipodi.sourceforge.net/DTD/sodipodi-0.dtd" xmlns:svg="http://www.w3.org/2000/svg" height="141.75999" id="svg2" version="1.1" viewBox="0 0 366.39999 141.75999" width="366.39999" sodipodi:docname="illustration-limerick-188.svg" inkscape:version="0.92.4 (5da689c313, 2019-01-14)">
	<metadata id="metadata8">
		<rdf:RDF>
			<cc:Work rdf:about="">
				<dc:format>image/svg+xml</dc:format>
				<dc:type rdf:resource="http://purl.org/dc/dcmitype/StillImage"/>
				<dc:title/>
			</cc:Work>
		</rdf:RDF>
	</metadata>
	<defs id="defs6"/>
	<sodipodi:namedview bordercolor="#666666" borderopacity="1" gridtolerance="10" guidetolerance="10" id="namedview4" objecttolerance="10" pagecolor="#ffffff" showgrid="false" inkscape:current-layer="svg2" inkscape:cx="184.8" inkscape:cy="86.879997" inkscape:pageopacity="0" inkscape:pageshadow="2" inkscape:window-height="1004" inkscape:window-maximized="1" inkscape:window-width="1920" inkscape:window-x="0" inkscape:window-y="0" inkscape:zoom="5.0000001"/>
	<path d="M 4,4.9609375 3.9238281,6.8867188 3.8496094,8.8125 8.2441406,9.8808594 c 2.4175004,0.5877096 4.7553124,1.1844946 5.1953124,1.3261716 0.44,0.141677 1.953328,0.428898 3.361328,0.638672 1.408,0.209773 2.702906,0.469649 2.878907,0.578125 0.44039,0.271429 1.018699,0.388519 2.880859,0.578125 0.88,0.0896 1.888234,0.2909 2.240234,0.447266 0.352,0.156365 1.791219,0.512159 3.199219,0.791015 1.408,0.278856 3.208,0.639353 4,0.800782 2.060512,0.419984 5.75052,1.009058 6.917969,1.105468 0.548496,0.04529 1.123793,0.156294 1.279297,0.246094 0.233971,0.13511 1.699117,0.484187 3.162109,0.753906 0.176,0.03245 0.392469,0.09396 0.480469,0.136719 0.088,0.04276 0.448781,0.118106 0.800781,0.166016 0.352,0.04791 1.935531,0.402721 3.519531,0.789062 1.584,0.38634 3.528313,0.734688 4.320313,0.773438 0.792,0.03875 1.942596,0.227221 2.558593,0.419922 0.616,0.192701 1.337563,0.349456 1.601563,0.347656 0.95713,-0.0063 5.031121,0.691668 7.035156,1.205078 1.128384,0.289079 2.562485,0.562655 3.1875,0.609375 0.625014,0.04672 2.000641,0.340383 3.056641,0.652344 1.056,0.311961 2.200038,0.552666 2.542969,0.535156 0.342928,-0.01751 2.142928,0.393568 4,0.912109 1.857069,0.518541 3.882042,0.945066 4.498047,0.947266 0.615999,0.0022 1.482576,0.193454 1.927734,0.425781 0.445158,0.232327 2.102804,0.672343 3.68164,0.978516 1.578842,0.306171 3.446391,0.717332 4.150391,0.912109 1.325699,0.366783 1.510141,0.397172 4.132813,0.710938 0.865946,0.103598 2.984032,0.553608 4.705078,0.998047 2.871906,0.741636 5.271216,1.250592 7.322266,1.554687 1.6861,0.249986 5.7283,1.11365 8.79883,1.880859 4.67085,1.167077 8.35869,1.850169 10.7207,1.982422 1.144,0.06405 2.79969,0.279159 3.67969,0.478516 1.32781,0.300807 6.47321,1.285452 8.95898,1.714844 0.352,0.0608 2.00964,0.28268 3.68164,0.492187 4.52153,0.566563 8.16919,1.239359 14.39844,2.654297 3.08,0.699603 6.32117,1.39228 7.20117,1.541016 0.88,0.148736 2.31922,0.43259 3.19922,0.630859 0.88,0.198269 1.88349,0.359322 2.22852,0.357422 0.34503,-0.002 3.00895,0.507596 5.91992,1.132813 2.91097,0.625219 6.44357,1.345683 7.85156,1.599609 1.408,0.253926 3.49663,0.729053 4.64063,1.056641 1.144,0.32759 3.51929,0.848363 5.27929,1.158203 1.76,0.309843 4.24677,0.823879 5.52539,1.140625 1.27862,0.316741 2.54107,0.491787 2.80469,0.390625 0.26362,-0.101158 0.65724,-0.0428 0.875,0.128906 0.21776,0.171699 0.611,0.328006 0.875,0.347656 0.264,0.01965 1.20008,0.183057 2.08008,0.363281 0.88,0.18022 2.46353,0.410381 3.51953,0.511719 1.056,0.101341 2.20855,0.303686 2.56055,0.449219 0.94247,0.389657 5.2206,1.093742 6.88086,1.132812 0.792,0.01863 1.94259,0.196557 2.55859,0.394532 0.616,0.197974 1.82754,0.448848 2.69141,0.55664 0.86387,0.107789 1.81534,0.325832 2.11523,0.486328 0.53116,0.284269 0.8329,0.347571 3.83399,0.804688 0.792,0.120634 2.91424,0.564879 4.71679,0.986328 1.80255,0.421447 3.75553,0.765625 4.33789,0.765625 0.58237,0 2.3468,0.295699 3.92188,0.65625 1.57509,0.360553 3.87151,0.781061 5.10351,0.935547 1.232,0.154486 2.6371,0.432582 3.1211,0.617187 0.484,0.184619 0.8789,0.258093 0.8789,0.164063 0,-0.09403 0.17366,-0.06407 0.38477,0.06641 0.21112,0.130474 0.67818,0.270817 1.03906,0.310547 2.80503,0.308841 3.96396,0.498661 4.65625,0.763672 1.03442,0.395984 4.64063,1.264406 6.08008,1.464844 0.616,0.08578 1.62423,0.28935 2.24023,0.451171 0.616,0.161823 2.19954,0.539139 3.51954,0.837891 1.32,0.298749 2.85361,0.73913 3.4082,0.978516 0.5546,0.239385 1.27421,0.438059 1.59961,0.443359 0.32541,0.0053 1.88865,0.376453 3.47265,0.824219 3.76844,1.065261 5.10386,1.371807 7.03907,1.609375 0.88,0.108029 1.81602,0.305334 2.08008,0.439453 0.46834,0.237926 1.55335,0.434278 4.48046,0.810547 1.44105,0.185238 2.2309,0.79181 2.25,1.728516 0.0226,1.105359 1.55512,2.259765 3,2.259765 0.5894,0 0.75887,0.129662 0.625,0.478516 -0.31593,0.823296 0.59956,0.532333 1.70899,-0.542969 1.72253,-1.669546 1.19598,-2.973824 -0.62305,-1.542969 -0.44309,0.348531 -1.27975,0.673233 -1.85937,0.720703 -0.99226,0.08126 -1.08572,-0.0044 -1.61133,-1.451172 -0.88622,-2.439306 -0.88858,-2.44012 -4.95508,-2.958984 -0.90824,-0.115885 -3.46201,-0.559085 -5.41406,-0.939453 -0.528,-0.102883 -1.82486,-0.460071 -2.88086,-0.794922 -2.1368,-0.677568 -4.13691,-1.195421 -14.20703,-3.671875 -1.83003,-0.450045 -3.66764,-0.818359 -4.08399,-0.818359 -0.41636,0 -1.00689,-0.131568 -1.3125,-0.292969 -0.63641,-0.336099 -5.12699,-1.300056 -6.79687,-1.458984 -0.616,-0.05863 -2.84699,-0.488478 -4.95899,-0.955078 -2.112,-0.466609 -4.48925,-0.970861 -5.28125,-1.121094 -4.41558,-0.837597 -6.79374,-1.263922 -8.79883,-1.576172 -4.20909,-0.655478 -6.07636,-1.021566 -8,-1.56836 -3.72049,-1.05756 -9.15404,-2.218802 -10.56054,-2.257812 -0.88,-0.0244 -2.09773,-0.188283 -2.70508,-0.363281 -0.60735,-0.174998 -2.47951,-0.539949 -4.16016,-0.810547 -1.68065,-0.270602 -3.55978,-0.581653 -4.17578,-0.691406 -0.616,-0.109757 -1.33561,-0.226286 -1.59961,-0.259766 -1.94182,-0.2463 -7.76138,-1.297047 -11.75976,-2.123047 -0.748,-0.154524 -1.97075,-0.397455 -2.71875,-0.541015 -0.748,-0.143566 -1.67516,-0.432722 -2.0586,-0.640626 -0.38344,-0.207906 -1.2027,-0.442164 -1.82226,-0.521484 -0.61957,-0.07932 -1.74692,-0.315868 -2.50391,-0.52539 -0.757,-0.209531 -1.73578,-0.424083 -2.17578,-0.476563 -1.9147,-0.228346 -12.96507,-2.313644 -14.56055,-2.748047 -0.704,-0.191677 -2.07106,-0.460237 -3.03906,-0.595703 -0.968,-0.135466 -2.12055,-0.337107 -2.56055,-0.449219 -0.86782,-0.221116 -2.64695,-0.630293 -5.04101,-1.158203 -0.836,-0.184345 -1.99747,-0.400279 -2.58203,-0.480469 -0.58456,-0.08019 -1.30755,-0.276111 -1.60547,-0.435546 -0.29791,-0.159437 -0.89841,-0.286704 -1.33594,-0.283204 -0.43753,0.0035 -1.65884,-0.214327 -2.71484,-0.484375 -1.056,-0.270048 -3.21678,-0.585202 -4.80078,-0.699218 -2.64578,-0.190441 -5.10969,-0.572851 -9.75977,-1.517579 -0.968,-0.196663 -1.98224,-0.329308 -2.25391,-0.292968 -0.45584,0.06098 -2.77453,-0.405873 -5.90625,-1.191406 -0.704,-0.176587 -2.00087,-0.405967 -2.88085,-0.509766 -0.88,-0.103801 -2.31922,-0.39242 -3.19922,-0.640625 -4.36042,-1.229854 -10.71804,-2.740085 -12,-2.849609 -0.792,-0.06766 -2.29869,-0.355288 -3.34766,-0.640626 -1.04898,-0.285336 -2.24637,-0.519531 -2.66211,-0.519531 -0.41574,0 -2.366698,-0.373699 -4.333984,-0.830078 C 95.849119,26.233054 93.951609,25.809537 93.599609,25.748047 89.671686,25.061878 88.648733,24.84813 87.535156,24.476562 86.005421,23.966134 83.735277,23.488226 80,22.890625 c -1.496,-0.239343 -3.799141,-0.6611 -5.119141,-0.9375 -1.32,-0.276401 -3.192156,-0.655514 -4.160156,-0.841797 -0.968,-0.186282 -3.056625,-0.615278 -4.640625,-0.953125 -1.584,-0.337847 -3.384,-0.690596 -4,-0.785156 -0.616,-0.09456 -2.199531,-0.383864 -3.519531,-0.642578 -1.32,-0.258715 -3.477678,-0.631639 -4.794922,-0.828125 -1.317242,-0.196487 -2.494089,-0.419271 -2.615234,-0.494141 -0.121143,-0.07487 -0.916012,-0.273018 -1.765625,-0.441406 C 48.535154,16.79841 47.551219,16.591369 47.199219,16.505859 46.847219,16.420346 45.408,16.12182 44,15.84375 c -1.408,-0.27807 -3.424469,-0.711966 -4.480469,-0.964844 -1.056,-0.252878 -2.567375,-0.545193 -3.359375,-0.65039 -3.352349,-0.445274 -6.108935,-0.931688 -8.960937,-1.580078 -1.144,-0.260086 -2.871844,-0.639113 -3.839844,-0.841797 C 16.934507,10.461376 14.21447,9.8429247 13.927734,9.6621094 13.747106,9.548205 13.168625,9.4303746 12.640625,9.4003906 10.593737,9.2841583 5.7597656,8.0467058 5.7597656,7.6386719 c 0,-0.5319263 4.0703999,-0.1240765 6.8808594,0.6894531 0.528,0.1528374 2.472311,0.3737515 4.320313,0.4902344 1.847998,0.1164829 3.475132,0.2816262 3.617187,0.3671875 0.142056,0.085562 0.574994,0.1966379 0.960937,0.2480469 0.385945,0.051409 1.420782,0.2659554 2.300782,0.4765624 1.894182,0.4533278 2.563047,0.5977058 3.8125,0.8261718 0.513188,0.09384 1.027543,0.229681 1.142578,0.300781 0.115035,0.0711 0.919333,0.219893 1.787109,0.330079 0.867777,0.110184 3.233813,0.486754 5.257813,0.83789 3.709974,0.643629 4.545454,0.775334 6.880859,1.076172 0.704,0.09069 1.640078,0.241827 2.080078,0.335938 0.44,0.09411 2.167844,0.440247 3.839844,0.769531 3.402217,0.670033 4.232035,0.855316 9.919922,2.230469 5.428519,1.312439 9.665769,2.154911 12.160156,2.416015 1.144,0.119751 2.65411,0.364446 3.357422,0.544922 0.703315,0.180476 1.567237,0.382919 1.919922,0.449219 0.352688,0.0663 1.793172,0.397591 3.201172,0.736328 1.408,0.338737 4.001716,0.937902 5.761719,1.330078 1.76,0.392176 3.616691,0.837897 4.126953,0.990234 0.510266,0.152337 1.379803,0.275391 1.93164,0.275391 0.551837,0 1.797622,0.279496 2.769531,0.621094 0.971908,0.341599 2.479619,0.691244 3.34961,0.777343 0.86999,0.0861 2.660471,0.389813 3.980468,0.673829 2.82222,0.607239 3.62173,0.732171 6.40039,0.99414 1.98067,0.186737 9.18381,1.749423 10.88086,2.361328 0.44,0.158652 1.59255,0.366608 2.56055,0.460938 0.968,0.09433 2.5344,0.320185 3.48242,0.501953 0.94803,0.181767 2.53156,0.338356 3.51953,0.347656 2.23932,0.02114 5.39877,0.568818 10.75781,1.869141 6.49051,1.574861 6.78945,1.632812 8.50586,1.632812 0.88958,0 3.01095,0.352053 4.71485,0.78125 3.11929,0.785725 8.99803,2.011414 10.77929,2.248047 0.528,0.07014 1.39193,0.19685 1.91992,0.28125 0.52801,0.0844 1.82291,0.249873 2.87891,0.367188 1.056,0.117312 2.78384,0.405041 3.83985,0.640625 1.05599,0.235584 3.14462,0.597467 4.64062,0.802734 1.496,0.205264 3.44031,0.557244 4.32031,0.783203 0.88,0.225955 2.46348,0.585945 3.51953,0.800782 1.056,0.214838 2.28071,0.469576 2.72071,0.566406 0.44,0.09683 1.22915,0.232048 1.7539,0.298828 0.52476,0.06678 1.46084,0.261556 2.08008,0.433594 0.61925,0.172038 1.6593,0.313493 2.31055,0.314453 0.78111,0.0012 1.28713,0.187435 1.48828,0.546875 0.24224,0.432855 0.39987,0.465654 0.76562,0.162109 0.25322,-0.210173 0.53666,-0.305147 0.63086,-0.210937 0.26214,0.262134 1.96733,0.54394 6.65039,1.095703 4.16906,0.4912 6.72447,0.972569 8.48047,1.599609 0.88,0.314237 3.11099,0.822871 4.95899,1.128906 1.848,0.306036 3.648,0.61474 4,0.6875 2.03326,0.420275 3.83925,0.816202 6.40039,1.400391 4.52868,1.03297 12.21478,2.424876 19.4043,3.515625 2.22425,0.337459 5.13815,0.907481 6.4746,1.265625 1.33645,0.358141 2.85156,0.650391 3.36719,0.650391 0.51564,0 2.78531,0.418295 5.04492,0.929687 6.33529,1.433805 12.47744,2.600389 14.82813,2.814453 0.792,0.07212 2.30533,0.32904 3.36133,0.572266 1.056,0.243222 2.74652,0.53451 3.75781,0.646484 1.0113,0.111971 2.52463,0.277951 3.36133,0.369141 6.29364,0.685917 10.69924,-0.305611 12.87109,-2.896485 0.44476,-0.530568 0.77558,-1.073206 0.73438,-1.205078 -0.0412,-0.131869 0.84087,-1.058731 1.96093,-2.060546 2.39065,-2.138264 5.20176,-3.478254 6.36719,-3.035157 0.86629,0.329363 2.37562,2.009012 2.89063,3.216797 1.02943,2.414189 3.50344,5.616407 4.91601,6.361328 1.35566,0.714912 1.1665,-0.30271 -0.3418,-1.833984 -0.81277,-0.825203 -1.47851,-1.732502 -1.47851,-2.015625 0,-0.283123 -0.21647,-0.597911 -0.48047,-0.699219 -0.264,-0.101306 -0.47849,-0.429515 -0.47852,-0.730469 10e-6,-0.361088 0.59393,0.07041 1.7461,1.269532 1.63396,1.700535 2.41406,2.197742 2.41406,1.537109 0,-0.154448 -0.21647,-0.460586 -0.48047,-0.679688 -0.264,-0.219101 -0.48047,-0.622721 -0.48047,-0.896484 0,-0.274736 0.97895,0.531023 2.18555,1.798828 1.2022,1.263312 2.2826,2.296875 2.40039,2.296875 0.46909,0 0.17604,-0.829231 -0.42578,-1.205078 -0.352,-0.219827 -0.64062,-0.607798 -0.64062,-0.861328 0,-0.395132 0.17254,-0.389635 1.20117,0.03516 0.66,0.272547 1.4632,0.729257 1.78515,1.015625 0.56661,0.504137 0.56611,0.535816 -0.0156,1.007813 -0.33049,0.268109 -0.69576,0.738031 -0.8125,1.042969 -0.16627,0.434373 -0.43863,0.508365 -1.25196,0.345703 -0.57096,-0.114195 -1.40383,-0.397199 -1.85156,-0.63086 -1.3534,-0.706295 -2.13288,-0.435614 -1.25976,0.4375 0.25914,0.259139 0.18495,0.44504 -0.27539,0.691407 -0.50136,0.26832 -0.84359,0.179349 -1.67969,-0.4375 -1.09859,-0.810516 -1.68146,-0.740081 -2.55664,0.314453 -0.33367,0.401997 -0.34028,0.59445 -0.0332,0.898437 0.3054,0.302346 0.45982,0.264309 0.70703,-0.173828 0.17379,-0.308 0.45189,-0.560547 0.61914,-0.560547 0.47208,0 0.35759,3.090961 -0.16016,4.330078 -0.25498,0.610345 -0.39405,1.111328 -0.31055,1.111328 0.0835,0 -0.0736,0.434993 -0.34961,0.96875 -0.27602,0.533754 -0.64008,0.885391 -0.80859,0.78125 -0.39921,-0.246733 -0.39273,-1.313174 0.0137,-2.072265 0.20157,-0.37655 0.20892,-0.670746 0.0176,-0.789063 -0.69938,-0.432259 -1.28558,2.175204 -0.7832,3.484375 0.10683,0.278397 0.53781,0.50586 0.95898,0.50586 0.92656,0 0.92935,0.02048 0.12695,1.517578 C 312.28832,71.93408 312,72.652395 312,72.875 c 0,0.222608 0.11506,0.404297 0.25586,0.404297 0.39526,0 1.02344,-0.720445 1.02344,-1.173828 0,-0.223619 0.99572,-1.653284 2.21093,-3.175781 1.65424,-2.072542 2.25791,-3.098678 2.40625,-4.087891 0.10895,-0.726682 0.18211,-1.453101 0.16211,-1.613281 -0.0716,-0.574755 0.93332,-0.831474 1.83594,-0.46875 0.51476,0.206857 3.11426,0.39302 6.02539,0.43164 4.45488,0.05909 5.3839,-0.01859 7.14649,-0.601562 2.404,-0.795114 6.25102,-3.707003 6.75976,-5.117188 0.37894,-1.050349 0.4456,-3.173537 0.11133,-3.507812 -0.12189,-0.121869 -0.26456,-0.510565 -0.31836,-0.863282 -0.12397,-0.812201 -1.50527,-3.456662 -2.25195,-4.3125 -1.12173,-1.28567 -4.06186,-1.810763 -7.28711,-1.302734 -2.44336,0.38487 -6.72793,0.460016 -8.16016,0.144531 -0.792,-0.17446 -2.37553,-0.505602 -3.51953,-0.736328 -1.144,-0.230727 -2.33715,-0.524732 -2.65039,-0.654297 -0.74269,-0.307196 -0.55237,-0.995858 1.14258,-4.125 0.46405,-0.856717 1.94372,-1.958266 3.66797,-2.734375 0.74387,-0.334825 1.05414,-1.941406 0.375,-1.941406 -0.48432,0 1.71041,-2.509761 3.29883,-3.771484 0.728,-0.578282 1.5087,-0.979168 1.73437,-0.892578 0.67395,0.258627 0.89434,-0.518131 0.27539,-0.970703 -0.71011,-0.519256 -1.27811,-0.243942 -2.93555,1.423828 -1.52038,1.52983 -2.87241,2.417985 -3.10547,2.041015 -0.3528,-0.570896 0.27231,-1.830078 0.90821,-1.830078 0.35264,0 0.8057,-0.35141 1.02929,-0.798828 0.21988,-0.44 0.58523,-0.803894 0.81055,-0.808594 0.22534,-0.0047 0.62467,-0.147939 0.88867,-0.318359 2.29258,-1.479923 3.52892,-1.660568 4.41407,-0.642578 0.38887,0.447227 0.70507,1.017631 0.70507,1.265625 0,0.247997 0.15031,0.499317 0.33399,0.560547 0.18368,0.06123 0.0413,0.428373 -0.31836,0.814453 -0.7913,0.849341 -0.82267,1.242613 -0.12891,1.630859 0.80979,0.453181 1.71485,0.07435 1.71485,-0.716797 0,-0.384272 0.14339,-0.840649 0.31836,-1.015625 0.3309,-0.33096 0.36339,-0.825808 0.23632,-3.470703 l -0.0762,-1.582031 -1.91992,-0.576172 c -1.83187,-0.549615 -1.99189,-0.549027 -3.49023,-0.01758 -0.90336,0.320426 -1.6323,0.795053 -1.7168,1.117187 -0.0808,0.308 -0.35609,0.558594 -0.61133,0.558594 -0.77622,0 -2.66016,1.635442 -2.66016,2.308594 0,0.350577 -0.27001,0.701332 -0.60546,0.789062 -0.67189,0.175699 -1.36991,1.446388 -1.99024,3.623047 -0.22571,0.792 -0.74079,1.846246 -1.14648,2.34375 -0.4057,0.497501 -0.73828,1.303797 -0.73828,1.791016 0,0.487219 -0.28863,1.146287 -0.64063,1.464844 -0.352,0.318557 -0.63867,0.901699 -0.63867,1.294922 0,0.393225 -0.27623,1.055202 -0.61328,1.470703 l -0.61328,0.753906 -0.75196,-0.703125 c -1.05155,-0.986035 -2.9812,-1.741253 -3.68359,-1.441406 -1.24026,0.529459 -2.65425,1.521714 -2.65625,1.865234 -10e-4,0.198448 -0.20447,0.529633 -0.45117,0.734375 -0.24669,0.204739 -0.6416,1.034646 -0.87891,1.84375 -0.24163,0.823856 -0.76085,1.697445 -1.17773,1.986328 -1.82777,1.266547 -4.85263,3.8591 -6.61524,5.669922 -1.65088,1.696042 -2.22691,2.067033 -4.11718,2.644531 -1.20913,0.369398 -2.31224,0.601495 -2.45118,0.515625 -0.13894,-0.08587 -1.23748,-0.221921 -2.4414,-0.300781 -3.15497,-0.20666 -4.99427,-0.460988 -8.42969,-1.169922 -1.672,-0.345037 -3.472,-0.689985 -4,-0.765625 -0.528,-0.07564 -2.11153,-0.303248 -3.51953,-0.505859 -1.408,-0.202611 -2.94503,-0.408241 -3.41602,-0.457032 -0.47098,-0.0488 -0.98533,-0.168444 -1.14257,-0.265624 -0.15725,-0.09718 -0.99552,-0.262619 -1.86329,-0.369141 -0.86778,-0.106521 -3.01929,-0.537094 -4.77929,-0.955078 -1.76,-0.417984 -3.70236,-0.853556 -4.31836,-0.96875 -0.616,-0.115193 -1.55208,-0.333467 -2.08008,-0.486328 -2.43366,-0.70457 -5.14788,-1.261537 -9.28125,-1.902344 -2.464,-0.382 -4.98361,-0.820928 -5.59961,-0.976563 -0.616,-0.155632 -2.19953,-0.370715 -3.51953,-0.476562 -1.32,-0.105843 -2.90353,-0.321733 -3.51953,-0.480469 -0.616,-0.158736 -1.62424,-0.358279 -2.24024,-0.443359 -1.13547,-0.156822 -3.85013,-0.635666 -5.60156,-0.988282 -1.52218,-0.30646 -3.49081,-0.897556 -3.83984,-1.152343 -0.176,-0.128477 -1.35898,-0.318029 -2.62891,-0.421875 -1.26993,-0.10385 -2.92562,-0.386823 -3.67969,-0.628906 -0.75407,-0.242081 -2.59384,-0.678957 -4.08984,-0.970704 -1.496,-0.291744 -3.2258,-0.656929 -3.8418,-0.8125 -1.36099,-0.343715 -4.75725,-0.912623 -6.71875,-1.125 -1.89065,-0.204707 -9.30558,-1.579307 -13.6875,-2.537109 -1.28015,-0.279811 -2.86368,-0.577599 -3.51953,-0.662109 -0.65586,-0.08451 -1.91297,-0.304304 -2.79297,-0.488282 -2.40199,-0.502166 -9.51956,-1.565839 -12.96093,-1.9375 -3.15737,-0.340985 -7.30005,-1.027847 -10.87891,-1.800781 -2.30793,-0.498445 -6.04135,-1.26406 -7.51953,-1.542969 -0.528,-0.09963 -1.17741,-0.271622 -1.44141,-0.382812 -0.264,-0.11119 -0.8393,-0.240648 -1.2793,-0.28711 -0.86618,-0.09146 -3.95806,-0.595091 -5.75976,-0.9375 -0.616,-0.117066 -1.91286,-0.424321 -2.88086,-0.683593 -1.9255,-0.515733 -4.96183,-1.082883 -6.71875,-1.25586 -1.39082,-0.136932 -4.98242,-0.645586 -7.50391,-1.0625 -2.01311,-0.332857 -4.00016,-0.774995 -10.3164,-2.294921 -2.14419,-0.515976 -4.30985,-0.937501 -4.81446,-0.9375 -0.5046,0 -1.05545,-0.122557 -1.22265,-0.271485 -0.36293,-0.323266 -3.40391,-0.852873 -8.548831,-1.488281 -2.071414,-0.255825 -4.015726,-0.595604 -4.320312,-0.753906 -0.304582,-0.158302 -1.397261,-0.388638 -2.427735,-0.513672 -1.030472,-0.125034 -2.605029,-0.44574 -3.498046,-0.710938 -0.893015,-0.265198 -1.84976,-0.524745 -2.126954,-0.578125 -0.277197,-0.05338 -1.096848,-0.257791 -1.822265,-0.453125 -0.725418,-0.195335 -1.734336,-0.413498 -2.240235,-0.486328 -1.824899,-0.262717 -4.794603,-0.901767 -6.519531,-1.402344 -0.968,-0.280915 -2.262906,-0.535736 -2.878906,-0.566406 -1.69233,-0.08427 -3.709443,-0.421825 -4.644531,-0.777344 -0.459869,-0.174843 -1.871605,-0.40017 -3.136719,-0.5 -2.66736,-0.21048 -5.093166,-0.683202 -6.458984,-1.259765 -0.528,-0.222889 -2.041328,-0.582425 -3.361329,-0.798828 -1.319999,-0.216402 -3.190203,-0.586164 -4.158203,-0.820313 -2.95001,-0.713578 -6.21381,-1.379947 -6.720703,-1.373047 -0.264,0.0036 -1.560859,-0.232405 -2.880859,-0.523437 C 37.832804,10.923693 34.092156,10.289832 31.589844,10.041016 30.39616,9.922319 29.3427,9.7027315 29.25,9.5527344 29.157296,9.4027376 28.705259,9.2792969 28.244141,9.2792969 c -0.461117,0 -1.281771,-0.1342324 -1.822266,-0.2988281 C 25.415563,8.6740188 22.788072,8.0153174 20.076172,7.390625 19.237646,7.1974685 17.946775,7.0390625 17.208984,7.0390625 c -1.585061,0 -7.2235572,-0.838003 -9.0488278,-1.3457031 C 6.3668414,5.1945479 6.0480178,5.1286535 4.9609375,5.0390625 Z M 326.44141,34.685547 c -1.41098,-0.07096 -2.44814,0.885124 -1.95703,1.802734 0.41021,0.766503 0.23297,0.767957 1.875,-0.02539 1.67192,-0.807779 1.71315,-1.695314 0.082,-1.777344 z m -3.63868,2.242187 c -0.6999,0.0352 -1.07303,0.23027 -1.14453,0.601563 -0.12096,0.628118 0.60749,0.72986 1.5625,0.21875 0.93625,-0.501066 0.74373,-0.878743 -0.41797,-0.820313 z m -12.51367,8.275391 c 0.31355,0.03995 1.07027,0.714974 1.07032,1.013672 -10e-6,0.100578 -0.22072,0.183594 -0.49024,0.183594 -0.50976,0 -1.00535,-0.850115 -0.68359,-1.171875 0.0232,-0.02317 0.0587,-0.0311 0.10351,-0.02539 z m -1.61523,0.681641 c 0.0307,0.006 0.0579,0.02076 0.0801,0.04297 0.0729,0.0729 -0.21106,0.495008 -0.63086,0.9375 -0.94813,0.999392 -1.56591,1.08016 -0.73243,0.0957 0.64471,-0.761472 1.06814,-1.118216 1.28321,-1.076172 z m 3.4414,0.392578 c 0.40852,-0.0115 0.6413,0.314474 0.37696,0.742187 -0.21602,0.34952 -1.45313,0.317843 -1.45313,-0.03711 0,-0.132355 0.27978,-0.389597 0.6211,-0.572266 0.16339,-0.08745 0.3189,-0.128984 0.45507,-0.132812 z m 1.3086,1.433594 c 1.94506,0.0089 4.87379,0.427098 6.07226,1.052734 1.74958,0.913328 3.28294,2.570758 3.68946,3.988281 0.15765,0.549878 0.17339,1.068707 0.0352,1.154297 -0.36912,0.228128 -0.66015,-0.163113 -0.66015,-0.886719 0,-0.949178 -2.1529,-3.418975 -2.98243,-3.421875 -0.3842,-0.0013 -1.63334,-0.287407 -2.77734,-0.636718 -2.1376,-0.652699 -4.65422,-0.859764 -4.34375,-0.357422 0.0961,0.155427 0.99106,0.383217 1.98828,0.507812 1.92343,0.240317 3.31446,0.735627 3.31446,1.179688 0,0.397075 -0.4537,0.328956 -1.48243,-0.222657 -0.66252,-0.355253 -1.69101,-0.470745 -3.70703,-0.416015 -1.53401,0.04165 -2.87468,-0.0114 -2.98047,-0.117188 -0.10579,-0.105789 0.33085,-0.365 0.97071,-0.576172 0.69554,-0.229552 1.10272,-0.542237 1.01172,-0.779296 -0.12733,-0.331799 0.68452,-0.474097 1.85156,-0.46875 z M 310.73828,48 c 0.18641,0 0.25136,0.144315 0.14258,0.320312 -0.10877,0.176001 -0.26224,0.320313 -0.33984,0.320313 -0.0776,0 -0.14063,-0.144312 -0.14063,-0.320313 0,-0.176 0.1515,-0.320312 0.33789,-0.320312 z m -1.41601,0.15625 c 0.58831,-0.05011 0.91235,0.190189 0.39257,0.519531 -0.47372,0.300167 -1.875,0.387786 -1.875,0.117188 0,-0.09236 0.3714,-0.30952 0.82618,-0.482422 0.23348,-0.08877 0.46014,-0.137593 0.65625,-0.154297 z m 22.21679,1.123047 c 0.18642,0 0.2494,0.144312 0.14063,0.320312 -0.10877,0.175999 -0.26029,0.320313 -0.33789,0.320313 -0.0776,0 -0.14258,-0.144314 -0.14258,-0.320313 0,-0.176 0.15347,-0.320312 0.33984,-0.320312 z m 19.36914,0 c -0.24157,0 -0.52139,0.325274 -0.62109,0.722656 -0.22697,0.904445 0.2425,4.240321 0.77539,5.517578 l 0.40039,0.960938 0.19531,-0.960938 c 0.13149,-0.645041 0.27962,-0.826959 0.45118,-0.554687 0.14039,0.222873 0.37416,0.332037 0.51953,0.242187 0.40532,-0.250489 -0.32905,-2.726562 -0.8086,-2.726562 -0.63901,0 -0.88243,-0.611244 -0.45117,-1.13086 0.47488,-0.572202 0.14098,-2.070312 -0.46094,-2.070312 z m -38.03515,0.960937 0.92383,0.0059 c 1.08699,0.0083 3.64257,1.101874 3.64257,1.558594 0,0.572118 -0.53424,0.663174 -1.15234,0.195312 -0.33393,-0.252765 -0.87304,-0.465103 -1.19727,-0.470703 -0.32424,-0.0056 -0.95485,-0.296438 -1.40234,-0.648438 z m 11.91211,0.427735 c 0.14689,-0.0037 0.28874,0.024 0.39843,0.0918 0.20407,0.126112 0.16298,0.302036 -0.10937,0.474609 -0.55917,0.354275 -0.83306,0.355466 -1.05274,0 -0.16668,-0.269696 0.32299,-0.55535 0.76368,-0.566406 z m 5.9707,0.002 c 0.0383,0.0064 0.081,0.02359 0.125,0.05078 0.176,0.108775 0.31836,0.260281 0.31836,0.337891 0,0.07761 -0.14236,0.140625 -0.31836,0.140625 -0.176,0 -0.32031,-0.151504 -0.32031,-0.337891 0,-0.139788 0.0806,-0.210703 0.19531,-0.191406 z m -19.17774,0.273437 c 0.80811,-0.119328 2.66211,0.752936 2.66211,1.251953 0,0.186232 0.18039,0.27001 0.40039,0.1875 0.48361,-0.181367 2.80385,1.087359 4.5586,2.492188 1.79418,1.436381 2.8194,1.949991 2.97266,1.490234 0.14442,-0.433199 1.66796,-0.499203 1.66796,-0.07227 0,0.161607 -0.0865,0.522388 -0.19336,0.800781 -0.24662,0.642724 -1.33406,0.623122 -2.36718,-0.04297 -0.44,-0.283683 -1.37608,-0.8812 -2.08008,-1.328125 -0.704,-0.446924 -1.9064,-1.30975 -2.67188,-1.916015 -0.79739,-0.631539 -1.48031,-0.966258 -1.59961,-0.785157 -0.12223,0.185562 -0.99982,-0.157953 -2.12695,-0.830078 -1.54591,-0.921853 -1.78493,-1.165017 -1.22266,-1.248047 z m 25.32422,0.576172 c 0.39302,0 1.01758,0.726113 1.01758,1.183594 0,0.688019 -0.51341,0.470833 -0.90234,-0.382813 -0.20049,-0.439999 -0.25227,-0.800781 -0.11524,-0.800781 z m -16.2539,0.482422 c 0.31908,-0.03864 0.95117,0.472936 0.95117,0.837891 0,0.154451 -0.12679,0.279297 -0.28125,0.279297 -0.41709,0 -1.02532,-0.82625 -0.78516,-1.066407 0.03,-0.03002 0.0696,-0.04526 0.11524,-0.05078 z m 6.875,0.158203 c 0.0698,0.0022 0.17029,0.01768 0.30078,0.04297 0.33181,0.0643 0.66303,0.297578 0.73633,0.517578 0.19005,0.570845 -0.40453,0.494417 -0.91211,-0.117187 -0.27838,-0.335407 -0.33442,-0.449893 -0.125,-0.44336 z m -0.74219,1.009766 c 0.23689,0.100456 0.67662,0.655645 1.18164,1.605469 0.59109,1.111766 0.7189,1.704403 0.55273,2.589843 -0.11851,0.631792 -0.5034,1.484021 -0.85546,1.892578 L 327.01953,60 l 0.46875,-1.185547 c 0.4855,-1.230025 0.46609,-1.360138 -0.66601,-4.523437 -0.31038,-0.867286 -0.27801,-1.22155 -0.041,-1.121094 z m 9.09375,0.06055 c 0.0383,0.0064 0.081,0.02163 0.125,0.04883 0.176,0.108775 0.32031,0.262234 0.32031,0.339844 0,0.07761 -0.14431,0.140625 -0.32031,0.140625 -0.176,0 -0.32031,-0.151504 -0.32031,-0.337891 0,-0.139788 0.0806,-0.210698 0.19531,-0.191406 z m -31.53711,0.300781 c -0.14784,-7.02e-4 -0.30681,0.01604 -0.48242,0.05078 -0.96276,0.190477 -1.53969,0.743887 -1.25586,1.203125 0.22056,0.356871 0.56899,0.317728 0.99805,-0.111328 0.27493,-0.274923 0.61366,-0.264303 1.35546,0.04297 1.27306,0.527315 1.52863,0.25411 0.5879,-0.626953 -0.4136,-0.387343 -0.75962,-0.556488 -1.20313,-0.558594 z m 51.81445,1.066406 c -0.0596,0.01345 -0.10673,0.04942 -0.14257,0.107422 -0.11984,0.193909 -0.38703,0.325859 -0.59375,0.292969 -0.65363,-0.103997 -2.13672,0.647715 -2.13672,1.083984 0,0.461792 1.40751,0.527592 2.32226,0.107422 0.30842,-0.14165 0.9198,-0.16895 1.35938,-0.05859 1.00708,0.252752 1.01925,-0.132254 0.0332,-1.058593 -0.37822,-0.355313 -0.66304,-0.514971 -0.8418,-0.47461 z m -54.5,0.464844 c -0.15376,0.01796 -0.21096,0.256569 -0.0976,0.707031 0.12874,0.512938 -0.003,0.846266 -0.44336,1.121094 -0.48511,0.302679 -0.59408,0.647361 -0.48242,1.519531 0.0794,0.620003 0.2301,1.268214 0.33593,1.439453 0.21631,0.349987 1.53721,0.421784 1.85743,0.101563 0.1146,-0.114598 -0.0424,-0.393843 -0.34766,-0.621094 -0.5189,-0.386291 -0.50581,-0.461953 0.18555,-1.152344 l 0.73828,-0.738281 0.59179,0.720703 c 0.64143,0.780377 1.28907,0.950346 1.28907,0.337891 0,-0.524297 -1.62213,-2.177735 -2.13672,-2.177735 -0.22958,0 -0.59658,-0.288626 -0.81641,-0.640624 -0.26988,-0.432148 -0.52007,-0.635149 -0.67383,-0.617188 z m 32.21289,0.417969 c 0.22004,0.09753 0.41832,0.980301 0.28125,1.697265 -0.14934,0.781203 -0.67944,1.02475 -0.74414,0.341797 -0.0546,-0.575507 0.0418,-1.287119 0.24805,-1.839843 0.0662,-0.177313 0.1415,-0.231728 0.21484,-0.199219 z m 24.85547,0.199219 c -0.176,0 -0.32031,0.144312 -0.32031,0.320312 0,0.176 0.14431,0.320312 0.32031,0.320312 0.176,0 0.31836,-0.144312 0.31836,-0.320312 0,-0.176 -0.14236,-0.320312 -0.31836,-0.320312 z m -6.99414,1.205078 c -0.11926,-0.01513 -0.20757,-0.01009 -0.25195,0.01953 -0.17754,0.118483 -1.20704,1.383811 -2.28906,2.810547 -1.08201,1.426732 -2.58298,3.101356 -3.33594,3.722656 -0.75296,0.621299 -2.63675,2.351498 -4.18555,3.84375 -2.62445,2.528637 -2.92965,2.727458 -4.48047,2.919922 -0.9152,0.113581 -2.38367,0.340534 -3.26367,0.505859 -0.88,0.165325 -3.32745,0.395343 -5.43945,0.509766 -2.112,0.114422 -3.90131,0.265557 -3.97461,0.335937 -0.60375,0.579488 2.3882,0.733616 5.89453,0.304688 0.88,-0.107652 2.10275,-0.24808 2.71875,-0.3125 0.616,-0.06442 1.62422,-0.203981 2.24024,-0.310547 0.61599,-0.10657 1.50805,-0.255778 1.98046,-0.330078 1.33549,-0.210045 3.09575,-1.146226 3.77344,-2.007813 1.06106,-1.34889 3.32344,-2.98469 3.57227,-2.582031 0.35844,0.579949 1.28723,-0.365819 1.06054,-1.080078 -0.12918,-0.407063 -0.0307,-0.59375 0.3125,-0.59375 0.27587,0 0.50196,-0.134379 0.50196,-0.296875 0,-0.380538 1.5792,-2.263672 1.89843,-2.263672 0.13357,0 0.25915,0.467063 0.27735,1.039063 0.0262,0.82375 -0.23085,1.281922 -1.23242,2.203125 -0.74445,0.684742 -1.26368,1.45627 -1.26368,1.875 0,0.500708 -0.14251,0.657023 -0.48046,0.527343 -0.33658,-0.129156 -0.48229,0.02757 -0.48829,0.525391 -0.005,0.435328 -0.43603,1.019229 -1.11328,1.509766 -0.60746,0.44 -1.18641,1.044713 -1.28711,1.34375 -0.2362,0.701276 -1.66599,2.19213 -2.79101,2.910156 -0.92954,0.593257 -1.16245,1.185547 -0.46485,1.185547 0.49238,0 4.38477,-2.777422 4.38477,-3.128907 0,-0.133206 0.57268,-0.959162 1.27344,-1.835937 0.7008,-0.876774 1.6008,-2.003176 2,-2.503906 2.43434,-3.05334 2.71842,-3.112695 2.26562,-0.46875 -0.16001,0.934103 -0.26071,3.193273 -0.22461,5.021484 l 0.0645,3.324219 -1.15235,1.05664 c -1.07126,0.981404 -4.26636,2.180196 -6.77344,2.541016 -0.43263,0.06227 -1.47784,0.208078 -2.32226,0.324219 -0.84441,0.116138 -1.85704,0.496125 -2.25195,0.84375 l -0.71875,0.630859 1.43945,-0.220703 c 0.792,-0.12215 2.08886,-0.356059 2.88086,-0.519531 0.792,-0.163469 2.15906,-0.405812 3.03906,-0.539063 0.88,-0.133252 2.40564,-0.6301 3.39063,-1.103515 0.98499,-0.473414 1.95176,-0.861328 2.14648,-0.861328 0.52278,0 2.41208,-2.468315 2.51953,-3.291016 0.0855,-0.654889 0.034,-0.639076 -0.66211,0.205078 -0.41485,0.503078 -0.81929,0.791704 -0.90039,0.640625 -0.0811,-0.151075 -0.10378,-1.425984 -0.0488,-2.833984 0.0549,-1.408 0.14643,-3.963156 0.20313,-5.677735 0.11229,-3.397811 0.6985,-4.77547 2.12109,-4.986328 0.39786,-0.05897 0.83735,-0.451993 1.00782,-0.90039 0.41732,-1.097712 1.03429,-0.620554 0.76757,0.59375 -0.13178,0.599949 -0.0935,0.896674 0.0996,0.777343 0.17161,-0.106068 0.40917,-0.921726 0.52735,-1.8125 0.18192,-1.371363 0.37229,-1.715702 1.24218,-2.246093 1.12327,-0.684902 1.02175,-0.832043 -0.1914,-0.279297 -0.63076,0.287392 -1.04952,0.206707 -2.35547,-0.455078 -0.65532,-0.332074 -1.30238,-0.563986 -1.66016,-0.609375 z m -19.88672,1.035156 c 0.176,0 0.32032,0.135169 0.32032,0.300781 0,0.165613 -0.14432,0.391225 -0.32032,0.5 -0.176,0.108774 -0.32031,-0.02835 -0.32031,-0.302734 0,-0.274387 0.14431,-0.498047 0.32031,-0.498047 z m 21.05469,0.04883 c 0.3343,0.0681 0.99148,1.028456 0.81836,1.308594 -0.27651,0.447418 -0.70693,0.249235 -0.91992,-0.421875 -0.1159,-0.365264 -0.12557,-0.749581 -0.0195,-0.855469 0.0312,-0.03121 0.0733,-0.04098 0.12109,-0.03125 z m -27.18555,0.734375 c 0.0325,0.0088 0.0508,0.03413 0.0508,0.07813 0,0.176 -0.28863,0.579881 -0.64063,0.898438 -0.352,0.31855 -0.63867,0.435765 -0.63867,0.259765 0,-0.176 0.28667,-0.581834 0.63867,-0.900391 0.264,-0.238914 0.49234,-0.36245 0.58984,-0.335937 z m 25.66993,0.496094 c 0.18642,0 0.24939,0.144312 0.14062,0.320312 -0.10877,0.176 -0.26029,0.320313 -0.33789,0.320313 -0.0776,0 -0.14258,-0.144313 -0.14258,-0.320313 0,-0.176 0.15348,-0.320312 0.33985,-0.320312 z m -53.56641,3.574219 c -0.31895,0.05387 -0.2584,0.731834 0.17188,1.162109 0.21118,0.2112 0.58763,0.384765 0.83789,0.384765 0.3899,10e-7 0.39105,-0.101186 -0.01,-0.703124 -0.25653,-0.386356 -0.6349,-0.757862 -0.83984,-0.826172 -0.0611,-0.02035 -0.1146,-0.02527 -0.16016,-0.01758 z m 18.26172,0.265624 c 0.3002,10e-7 0.40247,0.186841 0.2793,0.507813 -0.10684,0.278394 -0.19336,0.765879 -0.19336,1.083984 0,0.318109 -0.29929,0.918484 -0.66602,1.333985 -0.52161,0.591021 -0.62714,0.627966 -0.48047,0.167968 0.10311,-0.323385 0.27856,-1.151229 0.38867,-1.839843 0.12817,-0.801513 0.36886,-1.253907 0.67188,-1.253907 z m -23.08984,0.04883 c -0.19638,-0.0186 -0.41427,-0.01228 -0.67579,0.0098 -0.67062,0.05607 -1.27495,0.274699 -1.34375,0.484375 -0.13641,0.415536 1.69551,1.501417 2.10547,1.248047 0.13878,-0.08577 0.67536,0.113642 1.19141,0.44336 1.99963,1.2776 2.28441,0.670212 0.50195,-1.070313 -0.79526,-0.776553 -1.1902,-1.059441 -1.77929,-1.115234 z m 60.86718,0.591797 c -0.1384,0 -0.26891,0.216468 -0.29101,0.480468 -0.0574,0.689453 -0.10532,0.836488 -0.67774,2.080078 -0.4537,0.985715 -0.70585,1.656765 -0.92969,2.482422 -0.0353,0.130151 -0.25475,0.872466 -0.48828,1.648438 -0.23354,0.775971 -0.42578,1.748128 -0.42578,2.160156 h 0.002 c 0,1.057594 0.81676,0.941316 1.38476,-0.197266 0.40452,-0.810941 0.40812,-1.001227 0.0234,-1.320312 -0.52189,-0.433126 -0.59105,-0.933594 -0.12891,-0.933594 0.176,0 0.32031,0.22366 0.32031,0.498047 0,0.274394 0.14432,0.411508 0.32032,0.302734 0.176,-0.108774 0.31836,-0.554429 0.31836,-0.990234 0,-0.435805 0.20996,-1.113907 0.46679,-1.505859 0.49114,-0.749587 0.57993,-4.705078 0.10547,-4.705078 z m -10.04492,3.861328 c -0.17046,-0.170442 -1.69624,1.590022 -1.71484,1.978515 -0.006,0.132 0.11862,0.240235 0.27734,0.240235 0.35574,0 1.65331,-2.002942 1.4375,-2.21875 z m -2.61914,3.267578 c -0.45896,0.107582 -1.66797,1.187071 -1.66797,1.566406 0,0.488586 0.52352,0.27128 1.2793,-0.533203 0.4127,-0.439306 0.65387,-0.896902 0.53515,-1.015625 -0.0292,-0.02922 -0.0809,-0.03295 -0.14648,-0.01758 z M 323.35938,72 c -0.26401,0 -0.47852,0.144312 -0.47852,0.320312 0,0.176001 0.21451,0.320313 0.47852,0.320313 0.264,0 0.48046,-0.144312 0.48046,-0.320313 C 323.83984,72.144313 323.62338,72 323.35938,72 Z m -26.7754,0.109375 c -0.0566,4.92e-4 -0.10976,0.0088 -0.1582,0.02734 -0.67857,0.260394 -0.49409,0.813088 0.38281,1.146484 0.44451,0.169004 0.89024,0.560454 0.99024,0.871094 0.1,0.310643 0.3289,0.961312 0.50976,1.445312 0.49411,1.32232 1.10935,1.114654 0.94922,-0.320312 -0.13823,-1.23867 -1.82483,-3.177301 -2.67383,-3.169922 z m 25.51368,0.0293 c -0.0931,0.0058 -0.19749,0.05108 -0.3086,0.136719 -0.19219,0.148128 -1.28573,0.453953 -2.42968,0.679687 -1.14401,0.225738 -2.73948,0.823517 -3.54688,1.328125 -0.80741,0.504611 -1.5842,0.916016 -1.72461,0.916016 -0.14041,0 -0.58831,-0.358828 -0.99609,-0.798828 -0.40778,-0.44 -0.87519,-0.800782 -1.03907,-0.800782 -0.53473,0 -0.67923,1.401243 -0.23632,2.289063 0.3966,0.795008 0.36669,0.9291 -0.35743,1.609375 -1.03082,0.96841 -3.82763,1.05909 -4.73242,0.154297 -0.32274,-0.32274 -0.89858,-0.704118 -1.28125,-0.84961 -0.87758,-0.333654 -5.28515,-0.283448 -5.28515,0.06055 0,0.140784 0.86803,0.25586 1.92968,0.25586 2.12401,0 4.15039,0.674251 4.15039,1.380859 0,0.249248 -0.29771,0.833599 -0.66211,1.296875 -0.56373,0.716672 -0.76297,0.788019 -1.33398,0.482422 -0.7301,-0.390736 -4.43659,-0.494865 -5.00976,-0.140625 -0.56383,0.348461 -0.41075,0.879871 0.20507,0.710937 1.95084,-0.535159 2.89921,-0.520377 3.60938,0.05469 0.70285,0.569133 0.7139,0.63099 0.20508,1.357422 -0.57366,0.819008 -0.70454,2.565002 -0.25782,3.439453 0.32147,0.62928 -0.40599,2.619145 -0.95703,2.61914 -0.24653,10e-7 -0.233,-0.150167 0.041,-0.480468 0.33516,-0.40384 0.27739,-0.47871 -0.36133,-0.47461 -0.41755,0.0027 -0.97428,0.147007 -1.23828,0.320313 -0.41924,0.275228 -0.42167,0.35279 -0.0137,0.615234 0.407,0.261738 0.40286,0.374066 -0.0312,0.878907 -0.27425,0.318745 -0.58668,0.830238 -0.69532,1.136718 -0.17506,0.493824 -2.43152,1.700788 -6.93945,3.710938 -0.792,0.353165 -2.43387,1.085088 -3.64648,1.626953 -3.57008,1.595328 -9.10749,2.359926 -11.06055,1.525391 l -1.10547,-0.472657 2.19531,-0.996093 c 1.2081,-0.547782 2.10983,-1.08353 2.00391,-1.189454 -0.1902,-0.190198 -2.62002,0.44365 -5.27148,1.375 -1.31553,0.462093 -1.41303,0.451197 -2.72071,-0.341796 -1.97607,-1.198319 -2.34198,-1.535523 -3.01562,-2.765626 -1.45906,-2.664319 -2.9278,-9.853447 -2.16797,-10.613281 0.53854,-0.538541 7.88057,2.936994 9.65039,4.56836 1.71095,1.577101 4.2773,2.770601 4.25,1.976562 -0.005,-0.132 -0.61787,-0.5134 -1.36133,-0.847656 -1.56675,-0.704403 -2.52197,-1.453132 -2.30469,-1.804688 0.0835,-0.135136 1.4128,0.04632 2.95313,0.402344 3.40803,0.787705 4.94098,0.89942 6.7207,0.488281 1.9887,-0.459415 1.66207,-0.829856 -0.4414,-0.5 -1.07181,0.168083 -2.20707,0.163319 -2.80079,-0.01172 -0.54898,-0.161834 -1.86196,-0.472044 -2.91796,-0.689454 -2.82224,-0.581023 -4.57529,-1.27746 -5.37305,-2.134765 -1.3673,-1.469347 -5.98633,-3.271762 -5.98633,-2.335938 0,0.301869 1.17862,0.623207 2.30859,0.628907 0.88485,0.0044 1.8147,1.069995 1.24219,1.423828 -0.49056,0.303181 -4.43837,-1.639723 -4.61914,-2.273438 -0.13698,-0.480291 -0.092,-2.00295 0.0664,-2.25 0.0225,-0.03502 0.54583,0.146796 1.16211,0.404297 0.61629,0.257497 2.13806,0.681934 3.38086,0.943359 1.24281,0.261434 3.04567,0.835305 4.00781,1.275391 0.96213,0.44009 1.95671,0.800781 2.20898,0.800781 0.25227,0 1.21987,0.301346 2.15039,0.669922 1.31599,0.521261 2.08218,0.627789 3.45118,0.476563 0.968,-0.106928 2.99945,-0.320959 4.51367,-0.47461 1.51421,-0.153655 3.05175,-0.438771 3.41797,-0.634765 0.36622,-0.195993 1.09592,-0.357422 1.62109,-0.357422 1.13567,0 1.9668,-0.281398 1.9668,-0.666016 0,-0.281868 -1.00679,-0.173924 -3.40821,0.363282 -4.78658,1.070774 -8.41938,1.32479 -10.51171,0.738281 -2.11051,-0.591606 -2.09016,-0.583427 -3.19922,-1.066407 -2.8889,-1.258069 -4.74882,-1.877581 -5.59961,-1.863281 -0.53874,0.0091 -2.18586,-0.395114 -4.80078,-1.177734 -0.968,-0.289712 -2.1507,-0.516836 -2.62891,-0.503906 -0.63736,0.01723 -1.22526,-0.361192 -2.20117,-1.419922 -1.27277,-1.380793 -2.54784,-1.87132 -2.99219,-1.152344 -0.32709,0.529241 0.19751,1.334795 0.75391,1.158203 0.33259,-0.105562 0.98444,0.252918 1.72265,0.949219 0.65325,0.616166 1.41234,1.121094 1.6875,1.121094 0.27516,0 0.78884,0.153521 1.14063,0.341797 0.51078,0.273358 0.56309,0.435293 0.25976,0.800781 C 267.29309,79.794664 266.79537,80 266.39648,80 c -0.47293,0 -0.71064,0.18025 -0.68164,0.517578 0.0549,0.638534 -2.52725,1.501713 -3.28906,1.09961 -0.27818,-0.146834 -1.53324,-0.207516 -2.78906,-0.134766 l -2.2832,0.132812 0.0976,-1.447265 0.0977,-1.447266 -1.33399,0.207031 c -2.09314,0.323325 -2.6726,0.636189 -3.02343,1.642578 -0.49066,1.407511 -0.061,1.790842 1.98437,1.769532 1.30885,-0.01363 1.78516,0.0976 1.78516,0.419922 0,0.241712 0.10628,0.452136 0.23828,0.466796 0.132,0.01467 0.56494,0.0635 0.96094,0.107422 0.76924,0.08532 0.98466,-0.292928 0.32031,-0.5625 -0.31071,-0.12606 -0.30277,-0.231748 0.0351,-0.46875 0.59249,-0.415206 1.64454,-0.09865 1.64454,0.494141 0,0.377449 0.0972,0.401522 0.44922,0.109375 0.24716,-0.205138 0.78824,-0.287722 1.20312,-0.183594 0.41488,0.104128 1.28911,-0.03409 1.94141,-0.30664 0.6523,-0.272551 1.7146,-0.496094 2.36132,-0.496094 h 1.17579 l -0.19727,1.890625 c -0.39349,3.764765 1.67114,10.091454 3.90039,11.951172 0.71126,0.593354 2.57744,1.312842 5.61719,2.167969 2.05772,0.578862 3.01395,0.676894 5.11914,0.52539 4.35718,-0.313577 7.2205,-1.256241 14.13672,-4.65625 3.29888,-1.621731 4.20771,-2.244703 6.18554,-4.238281 l 2.31836,-2.335938 1.49414,0.560547 c 0.82179,0.308346 1.92025,0.623922 2.43946,0.701172 0.51921,0.07725 1.23882,0.434035 1.59961,0.794922 0.60385,0.603958 0.65372,1.030996 0.63672,5.367188 -0.0222,5.631232 -0.47908,7.034802 -2.78125,8.533202 -0.484,0.31502 -0.87891,0.77657 -0.87891,1.02734 0,0.25077 -0.28863,1.02096 -0.64063,1.71094 -0.87888,1.72274 -0.80506,3.03029 0.34571,6.13867 2.57172,6.94658 3.23162,9.75672 3.14062,13.36133 -0.0495,1.96275 -0.15031,2.30622 -0.80078,2.73242 -1.29115,0.846 -3.68432,1.51072 -4.73047,1.31446 -1.75278,-0.32884 -13.43336,-0.26779 -14.30469,0.0742 -0.45634,0.17923 -1.72239,0.28808 -2.8125,0.24218 -1.09008,-0.0459 -2.06458,0.0507 -2.16601,0.21485 -0.3645,0.58978 0.54409,0.99538 2.07031,0.92578 0.85516,-0.039 2.63737,0.15239 3.96094,0.42578 3.07855,0.6359 8.89648,0.96715 8.89648,0.50586 0,-0.18411 -0.61137,-0.36203 -1.35937,-0.39453 -0.748,-0.0325 -1.72016,-0.0739 -2.16016,-0.0918 -0.44,-0.0179 -0.76575,-0.14904 -0.72265,-0.29102 0.12683,-0.41757 3.21104,-0.49182 6.48242,-0.15624 1.672,0.17151 5.19984,0.37457 7.83984,0.45117 2.64,0.0766 5.30392,0.20194 5.91992,0.27734 0.616,0.0754 1.99027,0.21334 3.05274,0.30664 3.27611,0.28776 6.94285,1.17128 8.83789,2.12891 0.99546,0.50305 2.36252,1.01651 3.03906,1.14258 0.67651,0.12608 2.20484,0.56894 3.39649,0.98437 1.21043,0.42197 2.49296,0.67355 2.90429,0.57031 0.40592,-0.10188 1.50208,0.1072 2.44336,0.46485 1.78429,0.67799 5.83449,1.3186 12.32617,1.95117 2.112,0.2058 4.12847,0.5037 4.48047,0.66211 0.63677,0.28657 2.93561,0.18939 3.26367,-0.13867 0.42535,-0.42534 -0.30659,-1.84974 -1.11328,-2.16602 C 356.74214,136.87891 353.26811,136 352.31445,136 c -0.53587,0 -1.45282,-0.19924 -2.03711,-0.44336 -0.58426,-0.24413 -1.69662,-0.54035 -2.4707,-0.6582 -1.37037,-0.20864 -1.98354,-0.41455 -3.9668,-1.32813 -0.528,-0.24322 -1.54268,-0.64251 -2.25586,-0.88867 -1.99818,-0.68968 -4.77098,-2.59908 -5.9746,-4.11328 -1.44214,-1.8142 -2.16993,-3.00542 -2.16993,-3.55664 0,-0.24829 -0.37811,-1.29813 -0.84179,-2.33203 -0.46365,-1.0339 -0.90025,-2.384 -0.96875,-3 -0.0684,-0.616 -0.35426,-1.69639 -0.63477,-2.40039 -0.28054,-0.704 -0.83973,-2.43185 -1.24414,-3.83985 -0.40445,-1.408 -1.03415,-3.42251 -1.39844,-4.47851 -1.30035,-3.76931 -2.23014,-7.06534 -2.43945,-8.64063 -0.46067,-3.46732 -1.60903,-7.366655 -2.45703,-8.341794 -0.31597,-0.363344 -0.57422,-0.830912 -0.57422,-1.039063 0,-0.20815 -0.48299,-0.917616 -1.07227,-1.578125 -1.51738,-1.700796 -3.08789,-3.946196 -3.08789,-4.414062 0,-0.40495 0.99656,-0.767949 2.71875,-0.988282 0.528,-0.06755 1.68055,-0.331041 2.56055,-0.585937 1.0233,-0.296396 2.4072,-0.410073 3.83984,-0.314453 2.45293,0.163722 5.03524,-0.297601 5.62305,-1.00586 0.20627,-0.248538 0.71829,-0.453125 1.13672,-0.453125 0.41846,0 0.75974,-0.15001 0.75977,-0.333984 0,-0.413658 -1.6926,-0.142117 -4.30079,0.691406 -2.42224,0.774099 -3.03517,0.364896 -1.44531,-0.966797 0.60819,-0.509414 1.61056,-1.188469 2.22656,-1.509765 0.616,-0.321296 1.68528,-1.056502 2.37696,-1.632813 0.69168,-0.57631 1.44511,-1.046875 1.67382,-1.046875 0.22875,0 0.98366,-0.228137 1.67774,-0.505859 1.1369,-0.454896 1.25703,-0.609811 1.20703,-1.566406 -0.045,-0.860592 -0.15217,-1.011247 -0.5625,-0.792969 -0.2785,0.148128 -0.69407,0.496579 -0.92383,0.773437 -0.96861,1.167085 -2.54884,1.553482 -6.68359,1.638672 -5.19283,0.106986 -7.84975,0.467299 -9.64649,1.304688 -2.5932,1.208595 -2.69277,1.202603 -3.46484,-0.169922 -0.39513,-0.702438 -0.33295,-0.846797 0.86719,-2 0.71142,-0.683606 1.49684,-1.242188 1.74609,-1.242188 0.24925,0 0.63698,-0.220306 0.85938,-0.488281 0.23344,-0.281285 0.65464,-0.405861 0.99804,-0.296875 0.43734,0.13881 0.59571,0.02729 0.59571,-0.419922 0,-0.585689 -0.18367,-0.913927 -0.46289,-0.896484 z m -59.3711,4.667969 c -0.10179,4.41e-4 -0.23036,0.08778 -0.39648,0.253906 -0.20827,0.208266 -0.67241,0.389284 -1.0332,0.402344 -0.36082,0.01305 -1.2335,0.304074 -1.9375,0.644531 l -1.2793,0.617187 1.2793,-0.210937 c 0.70398,-0.116157 1.85654,-0.234652 2.56054,-0.263672 1.07648,-0.0444 1.26282,-0.151468 1.16992,-0.671875 -0.0946,-0.530158 -0.19362,-0.772221 -0.36328,-0.771484 z m 64.69922,0.689453 c 0.40472,-0.01207 0.85042,-0.007 1.37305,0.01172 l 2.56055,0.0918 -1.75977,0.84961 c -0.968,0.466806 -3.13923,1.146207 -4.82617,1.509765 -1.68692,0.363559 -3.2931,0.747881 -3.56836,0.853516 -0.784,0.300845 -1.00939,-0.462756 -0.35547,-1.201172 0.58535,-0.66096 0.58198,-0.664962 -0.28906,-0.453125 -0.516,0.125491 -0.88086,0.08217 -0.88086,-0.105469 0,-0.476348 1.62883,-0.804471 1.89062,-0.380859 0.15497,0.250746 0.88855,0.115447 2.44531,-0.449219 1.36129,-0.493759 2.19599,-0.690343 3.41016,-0.726562 z m -16.0957,1.201172 c 0.25271,-0.07739 0.67521,0.257677 0.96094,0.761718 0.49269,0.869133 0.47964,0.924066 -0.38868,1.679688 -0.61893,0.538595 -1.28275,0.78125 -2.13476,0.78125 -0.67979,0 -1.43925,0.07782 -1.68946,0.173828 -0.68903,0.264407 -1.25481,-0.642406 -1.14062,-1.832031 0.10064,-1.048455 0.12597,-1.064263 2.02344,-1.244141 1.056,-0.100109 2.12133,-0.244422 2.36914,-0.320312 z m -228.113283,0.04102 c -0.887488,0.01717 -1.966279,0.132171 -2.736328,0.335938 -0.704,0.186288 -1.676157,0.414322 -2.160157,0.507812 -1.159266,0.223923 -1.109633,0.722173 0.230469,2.326172 1.084775,1.298391 1.098581,1.355056 0.664063,2.509766 -0.244557,0.649895 -0.622059,2.135309 -0.839844,3.300781 -0.328982,1.760515 -0.31966,2.308913 0.05469,3.240234 0.713757,1.775798 4.109115,5.147034 5.818359,5.777344 0.311994,0.11505 0.645327,0.46535 0.742187,0.777344 0.09686,0.31199 0.308453,0.812238 0.46875,1.113281 0.160258,0.30104 0.228987,0.733978 0.154297,0.960938 -0.125306,0.380768 -0.498856,5.841079 -0.630859,9.208989 -0.03097,0.79009 0.134721,1.8211 0.36914,2.29101 0.234426,0.46991 0.498018,2.05544 0.585938,3.52344 0.08793,1.468 0.226231,3.53189 0.306641,4.58789 0.08041,1.056 0.145171,2.20855 0.144531,2.56055 -0.0057,2.52562 0.01872,2.44628 -0.679688,2.22461 -0.367449,-0.11666 -0.831057,-0.24832 -1.029296,-0.29102 -0.19824,-0.0426 -0.575844,-0.16823 -0.839844,-0.28125 -0.264,-0.11302 -2.136161,-0.46888 -4.160156,-0.78906 L 76,122.04102 l -0.0957,-2.38086 c -0.130352,-3.25414 -0.808316,-5.26075 -1.919922,-5.68555 -0.475824,-0.18187 -1.224063,-0.30534 -1.664063,-0.27344 -0.756607,0.0548 -0.802406,-0.0346 -0.841796,-1.66015 -0.0374,-1.54347 0.0595,-1.81201 0.958984,-2.63086 0.550906,-0.50151 1.236987,-0.91493 1.523438,-0.91993 1.296222,-0.0233 1.926719,-2.32949 1.044921,-3.82226 -0.3209,-0.54324 -0.768086,-0.98828 -0.99414,-0.98828 -0.226051,0 -0.41211,-0.2333 -0.41211,-0.51953 0,-0.65122 -1.666753,-3.956791 -2.896484,-5.744144 -0.908909,-1.321053 -0.913303,-1.349982 -0.25,-1.523438 0.581844,-0.152154 0.65083,-0.339804 0.486328,-1.353516 -0.35809,-2.206653 -2.288192,-3.532651 -4.628906,-3.18164 -1.920169,0.287949 -2.630864,0.774334 -2.630859,1.802734 -10e-7,0.842851 -1.098505,1.878906 -1.992188,1.878906 -0.459296,10e-7 -1.854009,-2.714067 -1.849609,-3.599609 0.0015,-0.308 -0.178438,-0.575413 -0.398438,-0.595703 -0.22,-0.0203 -0.584691,-0.05637 -0.810547,-0.08008 -0.225856,-0.0237 -0.512528,-0.202832 -0.638672,-0.396484 -0.849226,-1.303714 -2.886085,-1.15497 -4.109375,0.298828 -0.746137,0.886733 -0.811531,1.167843 -0.630859,2.705078 0.166601,1.41752 0.08808,1.872011 -0.445312,2.621094 -0.355019,0.498575 -0.644532,1.284962 -0.644532,1.748046 0,0.684717 -0.253385,0.952054 -1.359375,1.431641 -1.616029,0.700752 -6.320312,5.249795 -6.320312,6.111325 0,0.69 1.141266,1.59766 2.009765,1.59766 0.323738,0 1.381271,-0.37588 2.34961,-0.83398 0.968336,-0.45812 1.8265,-0.76723 1.90625,-0.6875 0.145389,0.14539 -0.297504,2.6234 -0.84375,4.7207 -0.323162,1.24076 -0.184695,10.89104 0.1875,13.05469 0.293661,1.70713 1.212653,1.78575 1.373047,0.11718 0.07645,-0.79528 0.223877,-1.01588 0.585937,-0.87695 0.266189,0.10212 0.687894,0.18555 0.9375,0.18555 0.249604,0 0.453125,0.14431 0.453125,0.32031 0,0.176 -0.295816,0.31836 -0.658203,0.31836 -0.362387,0 -0.572099,0.14017 -0.466797,0.31055 0.283702,0.45904 2.440694,0.29243 2.630859,-0.20313 0.09012,-0.23486 0.364205,-0.42578 0.609376,-0.42578 0.553333,0 0.595941,-0.63232 0.04492,-0.66602 -0.22,-0.0135 -0.614907,-0.0763 -0.878906,-0.14062 -0.264,-0.0643 -1.127922,-0.23767 -1.919922,-0.38477 -1.4201,-0.26376 -1.441406,-0.28547 -1.441406,-1.53906 0,-1.07001 0.09632,-1.25383 0.605469,-1.16601 0.534499,0.0922 0.5734,-0.0204 0.33789,-0.96094 -0.478804,-1.9121 -0.275578,-9.5464 0.298828,-11.23828 0.285255,-0.8402 0.517579,-1.73825 0.517579,-1.9961 0,-0.72599 -0.538722,-0.5543 -0.783203,0.25 -0.137896,0.45364 -0.282371,0.56935 -0.388672,0.31055 -0.09279,-0.22591 -0.0065,-0.60534 0.191406,-0.84375 0.220878,-0.26615 0.278751,-0.93946 0.15039,-1.74219 -0.239865,-1.50003 0.434712,-3.908898 1.619141,-5.785154 0.504038,-0.798448 0.806152,-1.85965 0.914063,-3.207032 0.249417,-3.114172 1.402769,-3.716827 2.542968,-1.330078 0.220444,0.461453 0.722836,0.885171 1.117188,0.941406 0.394349,0.05624 0.716797,0.212781 0.716797,0.34961 0,0.136829 0.288625,0.582422 0.640625,0.988281 0.801366,0.923981 0.819438,2.242389 0.04492,3.236328 -0.94408,1.211558 -1.883877,4.325449 -2.404297,7.962889 -0.571049,3.9913 -0.579243,4.26108 -0.160157,5.93164 0.24214,0.96522 0.198871,2.01824 -0.175781,4.16016 -0.275885,1.57725 -0.503266,4.35886 -0.503906,6.17969 -8.73e-4,2.83502 0.09539,3.4424 0.662109,4.23828 0.37032,0.52007 0.968678,0.93862 1.359375,0.94922 0.384016,0.0104 1.346672,0.34119 2.138672,0.73437 1.344938,0.66767 1.431814,0.78708 1.320313,1.82031 -0.258256,2.39311 -0.202549,3.01313 0.279297,3.10743 0.38565,0.0755 0.480468,-0.30083 0.480468,-1.91407 0,-1.83865 0.05944,-2.01577 0.71875,-2.10937 0.745208,-0.10583 0.831312,0.0809 0.732422,1.60156 -0.03075,0.47295 0.09162,1.13657 0.271485,1.47266 0.230058,0.42987 0.216633,0.71891 -0.04297,0.97851 v 0.002 c -0.278697,0.27872 -0.16975,0.36914 0.445312,0.36914 0.447924,0 1.075303,-0.28984 1.394532,-0.64258 0.319225,-0.35274 1.134494,-0.79062 1.810547,-0.97266 1.62966,-0.43882 1.654534,-1.11193 0.0293,-0.79297 -2.286573,0.44875 -2.808357,0.388 -2.710937,-0.3125 0.270455,-1.94467 0.365079,-2.0552 2.234375,-2.58593 1.009712,-0.28668 2.052406,-0.77688 2.316406,-1.08985 0.264,-0.31297 0.803087,-0.73375 1.197266,-0.93554 0.394179,-0.20182 0.936688,-0.79558 1.207031,-1.31836 0.575724,-1.11333 1.725392,-1.29344 1.982422,-0.31055 0.200378,0.76625 0.686664,0.82484 1.185547,0.14258 0.310087,-0.42407 0.672251,-0.44825 2.451172,-0.16407 1.147952,0.18335 2.728371,0.30825 3.511718,0.27735 0.833917,-0.0328 1.93372,0.18796 2.652344,0.5332 0.992214,0.47668 2.018492,0.59256 5.359375,0.60156 2.272954,0.006 4.132813,0.1074 4.132813,0.22461 0,0.1172 1.040333,0.30949 2.3125,0.42774 2.063177,0.19175 3.183612,0.57823 2.787109,0.96094 -0.07627,0.0736 -1.154663,0.21078 -2.396484,0.30468 -1.241821,0.0939 -2.394368,0.19632 -2.560547,0.22852 -0.166179,0.0322 -0.91411,0.0423 -1.66211,0.0215 -1.134035,-0.0316 -1.359375,-0.14407 -1.359375,-0.67773 0,-0.42666 -0.213959,-0.64063 -0.640625,-0.64063 -0.352,0 -0.604546,0.18039 -0.560546,0.40039 0.05606,0.28031 -0.434484,0.40021 -1.640626,0.40039 -1.432558,2.1e-4 -1.801052,0.122 -2.201171,0.72461 -0.430589,0.6485 -0.425098,0.87098 0.06055,2.14258 0.482714,1.26398 0.619217,1.38952 1.242187,1.13867 1.056992,-0.42561 2.565308,-0.75928 3.054687,-0.67578 0.239644,0.0409 0.744736,-0.20678 1.121094,-0.55078 0.645309,-0.58983 1.680232,-1.04164 2.763672,-1.20508 0.264,-0.0398 0.982817,-0.23075 1.597656,-0.42382 1.541497,-0.48411 3.159585,-0.44003 3.701172,0.10156 0.359001,0.35905 1.640914,0.4487 6.166014,0.42968 3.14181,-0.0132 5.9157,0.10766 6.16406,0.26758 0.50819,0.32722 5.72847,0.40359 5.73047,0.084 0.002,-0.41078 -0.85434,-0.51483 -2.98437,-0.36133 -1.7887,0.12891 -2.24384,0.063 -2.56836,-0.38086 -0.30305,-0.41442 -0.79814,-0.51962 -2.14063,-0.44922 -3.39663,0.17807 -4.84385,0.007 -4.73047,-0.56055 0.0849,-0.42464 0.70947,-0.5471 3.46485,-0.68164 6.15323,-0.30046 11.61147,-0.0843 12.25,0.48633 0.45869,0.40992 1.17467,0.48709 3.67969,0.39649 5.21697,-0.1886 6.70232,-0.0994 8.36914,0.5 1.36184,0.48971 1.71763,0.51329 2.38476,0.15625 0.49862,-0.2668 1.17178,-0.33737 1.84961,-0.19336 2.06654,0.43904 4.7461,0.16104 4.7461,-0.49219 0,-0.21172 -0.50392,-0.25816 -1.37891,-0.12695 -1.05884,0.15878 -1.47647,0.0888 -1.80469,-0.30664 -0.50669,-0.61051 -0.17526,-1.10691 0.37305,-0.5586 0.74975,0.74975 1.38391,0.30953 2.36719,-1.64258 0.94306,-1.8723 1.05661,-1.97765 2.10156,-1.93945 0.84203,0.0308 1.17453,-0.11996 1.40234,-0.63867 0.33438,-0.76134 -0.18119,-0.70665 9.09961,-0.98438 10.67877,-0.31956 12.2892,-0.43283 13.26367,-0.93945 0.57886,-0.30095 1.07769,-0.37823 1.29102,-0.20117 0.19118,0.15866 0.52648,0.17678 0.74609,0.041 0.2196,-0.13601 1.20252,-0.13823 2.1836,-0.006 0.98108,0.13317 1.98506,0.16626 2.23047,0.0723 0.25938,-0.0995 0.44531,0.0296 0.44531,0.30859 0,0.64603 0.8632,0.94333 1.08203,0.37305 0.1287,-0.33535 0.59516,-0.41856 1.78711,-0.31836 1.69898,0.14282 2.35707,0.38335 2.11719,0.77149 -0.0795,0.12861 0.12653,0.40369 0.45898,0.61132 0.33246,0.20763 0.683,0.24987 0.7793,0.0937 0.0963,-0.15585 0.46532,-0.20753 0.81836,-0.11523 0.67831,0.17738 2.55664,-0.45838 2.55664,-0.86523 0,-0.52033 -4.27636,-1.28102 -10.08008,-1.79297 -1.408,-0.1242 -5.51643,-0.24935 -9.13086,-0.27735 -3.61444,-0.028 -6.7414,-0.15402 -6.94727,-0.28125 -0.20587,-0.12724 -0.29242,-0.44281 -0.19336,-0.70117 0.20308,-0.52922 -0.26231,-0.60946 -1.09179,-0.1875 -0.30561,0.15547 -0.95155,0.46708 -1.43555,0.69336 -0.484,0.22627 -0.88054,0.56755 -0.88086,0.75781 -5.4e-4,0.23322 -1.64358,0.34571 -5.04101,0.34571 h -5.03907 v -1.91993 c 0,-1.056 0.19644,-2.78384 0.43555,-3.83984 0.2391,-1.056 0.41167,-2.58823 0.38477,-3.4043 -0.0462,-1.40074 0.01,-1.50404 0.98437,-1.84375 1.13348,-0.39514 3.03247,-0.1684 3.39063,0.4043 0.1251,0.20005 0.25782,0.57975 0.29492,0.84375 0.30733,2.18883 0.92761,4.24745 1.32617,4.40039 0.2619,0.1005 1.11672,-0.0533 1.90039,-0.34375 1.3803,-0.51158 1.43064,-0.50884 1.5918,0.10742 0.21443,0.81993 0.61601,0.80869 1.06445,-0.0293 0.46924,-0.87677 0.17121,-1.57422 -0.67187,-1.57422 -0.63944,0 -0.67223,-0.13711 -0.57813,-2.39258 0.066,-1.58142 -0.0322,-2.5263 -0.29101,-2.78516 -0.2154,-0.21538 -0.39258,-0.70291 -0.39258,-1.08398 0,-0.38106 -0.31369,-1.09048 -0.69727,-1.57813 -0.69001,-0.8772 -0.72419,-0.88511 -3.2793,-0.66406 -1.42042,0.12289 -2.99788,0.2502 -3.50585,0.2832 l -0.92383,0.0606 -0.10938,-4.32031 c -0.0601,-2.376011 -0.14936,-4.967768 -0.19726,-5.759767 l -0.0859,-1.439453 1.2793,-0.08203 c 0.704,-0.04513 2.35968,-0.364924 3.67968,-0.708985 1.32,-0.34406 3.6168,-0.857418 5.10352,-1.140625 3.27534,-0.623913 3.79002,-0.877499 4.32031,-2.138671 0.78335,-1.86304 -0.11986,-2.835216 -1.42383,-1.53125 -0.37618,0.376186 -1.06838,0.641618 -1.67968,0.642578 -1.3566,0.0025 -7.60343,1.699491 -8.5918,2.333984 -0.42198,0.270893 -1.5759,0.589691 -2.5625,0.708984 -1.98631,0.240166 -2.56412,-0.210451 -1.71289,-1.333984 0.68204,-0.900205 0.55478,-2.028548 -0.37696,-3.373047 -0.73356,-1.058569 -1.00654,-1.216797 -2.0957,-1.216797 -1.55811,0 -2.88755,0.666138 -3.7539,1.882813 -0.83429,1.171616 -0.83458,1.652697 -0.006,2.542969 1.26589,1.358772 0.24091,2.419789 -3.22852,3.341796 -1.73425,0.46088 -4.23292,1.954213 -6.28711,3.757813 -1.99352,1.750332 -0.89427,2.175176 1.90625,0.736328 0.91815,-0.471724 2.82052,-1.250016 4.22852,-1.728516 3.02311,-1.027388 3.68164,-0.871518 3.68164,0.869141 0,1.054701 0.40171,2.265857 1.42187,4.27734 0.22315,0.44 0.78013,1.87922 1.23633,3.19922 0.76817,2.22263 0.81872,2.70798 0.68555,6.56055 -0.15995,4.62716 -0.24379,5.48597 -0.56446,5.80664 -0.12095,0.12092 -0.2207,0.99136 -0.2207,1.93555 0,2.04654 -0.31786,2.26376 -2.48633,1.6914 -1.37864,-0.36388 -6.03044,-0.74695 -7.59375,-0.625 -1.84693,0.14408 -5.5691,0.061 -6.47851,-0.14453 -1.22396,-0.27663 -2.97358,0.22686 -3.74219,1.07617 -0.64785,0.71587 -0.32914,0.98162 1.25195,1.04102 0.78328,0.0294 1.28119,-0.14522 1.58203,-0.55664 0.34983,-0.47842 0.53069,-0.52395 0.89844,-0.21875 0.50935,0.4227 4.60793,0.38527 5.31055,-0.0488 0.24428,-0.15097 0.64449,-0.0786 0.95898,0.17578 0.66171,0.53511 1.20365,0.53579 2.49805,-0.002 0.81973,-0.34039 1.53807,-0.34098 4,0.006 l 3.00195,0.42383 -0.10937,0.92382 c -0.0599,0.50891 -0.50867,1.66146 -0.9961,2.56055 -0.8761,1.61603 -0.90215,1.63398 -2.29101,1.54688 -3.90415,-0.24473 -6.95458,-0.19362 -7.35938,0.125 -0.64871,0.51061 -1.8554,0.7496 -2.0664,0.4082 -0.10033,-0.16236 -0.31441,-0.21424 -0.47461,-0.11524 -0.1602,0.099 -0.55096,0.0394 -0.86914,-0.13085 -0.31817,-0.17028 -1.77114,-0.39205 -3.22852,-0.49415 -1.45739,-0.10205 -2.92812,-0.33394 -3.26758,-0.51562 -1.0793,-0.57759 -3.92123,-0.94027 -5.09765,-0.65039 -0.99897,0.24614 -1.02782,0.27939 -0.25977,0.30859 0.47361,0.018 0.94711,0.17284 1.05274,0.34375 0.11091,0.17946 -0.25311,0.29379 -0.86133,0.27149 -0.57924,-0.0213 -1.38587,0.0675 -1.79297,0.19726 -0.68615,0.21869 -0.70961,0.18664 -0.32227,-0.43359 0.68271,-1.0932 -0.0116,-1.80602 -1.65234,-1.69727 l -1.3457,0.0898 0.16992,-1.73047 c 0.14992,-1.5269 0.082,-1.80467 -0.57617,-2.37695 -0.67631,-0.58805 -0.73125,-0.85102 -0.60352,-2.83985 0.0774,-1.20556 0.27793,-3.05533 0.44531,-4.11133 0.16743,-1.056 0.28131,-2.13639 0.25391,-2.40039 -0.15236,-1.4689 0.082,-2.92369 0.45117,-2.80078 0.22,0.0733 0.45062,0.40868 0.51172,0.7461 0.1273,0.70284 1.59898,2.36886 2.10742,2.38476 0.18707,0.006 0.68272,0.29531 1.09961,0.64258 0.65936,0.54925 0.71155,0.74604 0.41016,1.50976 -0.44546,1.12883 -1.31346,5.51084 -1.52149,7.67774 -0.13055,1.35981 -0.069,1.67969 0.32422,1.67969 0.73475,0 1.04636,-0.87003 1.29688,-3.61328 0.23269,-2.54804 0.99352,-5.20999 1.74804,-6.11915 0.45747,-0.55122 1.79307,-0.68871 2.08594,-0.21484 0.0996,0.16123 0.0521,0.63696 -0.10742,1.05664 -0.35855,0.94306 -0.0848,2.56226 0.4043,2.38867 0.19808,-0.0703 0.31727,-0.39936 0.26367,-0.73242 -0.0535,-0.33306 -0.12566,-1.5415 -0.16016,-2.68555 -0.0669,-2.22154 0.1749,-2.88306 2.16992,-5.91992 1.16778,-1.77762 2.94365,-4.98555 2.96875,-5.36328 0.009,-0.13398 0.12671,-1.14221 0.26172,-2.240232 0.13497,-1.098023 0.21323,-2.362672 0.17383,-2.810547 -0.0446,-0.50608 0.29893,-1.280704 0.90625,-2.044922 0.53747,-0.676326 0.97656,-1.439272 0.97656,-1.695313 0,-0.256039 0.28863,-0.831803 0.64063,-1.279297 0.77435,-0.984429 0.803,-1.723572 0.125,-3.152343 -0.73911,-1.557552 -2.39004,-2.500711 -3.89649,-2.222657 -0.65351,0.120621 -1.47612,0.485917 -1.82812,0.810547 -0.352,0.324627 -1.14572,0.63624 -1.76172,0.69336 -1.00912,0.09357 -1.129,0.21015 -1.2207,1.166015 -0.056,0.583498 0.0543,1.249375 0.24609,1.480469 0.50482,0.608269 -0.12229,2.148308 -0.77344,1.898438 -0.26963,-0.103471 -0.49023,-0.524763 -0.49023,-0.935547 0,-0.410784 -0.12605,-0.825202 -0.2793,-0.919922 -0.15325,-0.09472 -0.37828,-0.929752 -0.5,-1.857422 -0.51052,-3.891034 -0.55825,-4.062812 -1.19726,-4.265625 -0.84211,-0.267273 -1.43379,0.563085 -1.83594,2.578125 -0.48826,2.44656 -0.51049,4.927705 -0.0625,6.976562 0.36698,1.678339 0.35019,1.935378 -0.17969,2.6875 -0.32235,0.457545 -0.85376,1.27876 -1.18164,1.824219 -0.32789,0.545456 -0.75193,1.088029 -0.94141,1.207031 -0.18947,0.119002 -0.39819,0.612282 -0.46289,1.095701 -0.0647,0.48344 -0.26386,1.15484 -0.44335,1.49024 -0.17951,0.33538 -0.54455,1.35349 -0.81055,2.26367 -0.47143,1.6131 -1.80556,3.19355 -3.03125,3.58789 -0.78742,0.25335 -1.39397,2.02045 -1.32617,3.86523 0.06,1.63151 1.40151,5.5862 2.2207,6.54688 0.23693,0.27786 0.42969,1.02802 0.42969,1.66797 0,0.8567 0.17804,1.25899 0.67578,1.52539 0.58281,0.31191 0.64795,0.54524 0.46484,1.6914 -0.11681,0.73121 -0.33205,1.451 -0.47851,1.59766 -0.35009,0.35011 -3.25433,0.34486 -3.50586,-0.008 -0.10745,-0.15024 -0.59218,-0.44752 -1.07617,-0.66016 -0.5662,-0.24876 -0.89061,-0.64561 -0.91211,-1.11328 -0.0643,-1.39912 -0.23172,-2.99862 -0.72852,-6.9668 -0.88072,-7.03475 -1.198324,-9.04751 -1.962891,-12.48046 -1.108697,-4.978154 -1.234533,-6.0312 -0.787109,-6.570318 0.214052,-0.257908 0.623708,-0.470456 0.910156,-0.472656 0.286451,-0.0024 0.880313,-0.295629 1.320313,-0.65039 0.44,-0.354762 1.892301,-1.353291 3.226561,-2.21875 2.46605,-1.599581 4.21259,-3.713234 6.01172,-7.273438 0.37404,-0.74016 1.18436,-1.748394 1.80078,-2.240234 1.29149,-1.030486 1.40993,-1.82546 0.42578,-2.873047 -0.59082,-0.628896 -0.61511,-0.740235 -0.16015,-0.740235 0.56222,0 0.72929,-0.482968 0.26562,-0.769531 -0.14906,-0.09213 -0.67916,0.256954 -1.17773,0.777344 -0.83522,0.871785 -0.9501,0.907252 -1.46485,0.441406 -0.93978,-0.850493 -1.68372,-0.441025 -1.9414,1.06836 -0.42985,2.51801 -3.76994,7.358992 -5.86524,8.5 -2.521613,1.373161 -4.990049,1.908788 -5.439451,1.18164 -0.340761,-0.551371 0.163458,-1.034313 0.654297,-0.626953 0.482803,0.400691 1.224009,0.11759 0.931641,-0.355469 -0.101257,-0.163837 -0.456196,-0.296875 -0.789063,-0.296875 -0.332867,0 -0.72533,-0.214142 -0.871093,-0.474609 -0.489875,-0.87536 -2.443395,-2.085937 -3.365235,-2.085937 -1.731856,-10e-7 -4.082031,1.831608 -4.082031,3.18164 0,0.294627 -0.195147,0.806001 -0.435547,1.134766 -0.387158,0.529472 -0.551262,0.54974 -1.425781,0.1875 -1.364719,-0.565283 -1.902045,-1.526768 -2.339844,-4.177735 -0.469513,-2.84302 0.10882,-7.358663 1.052735,-8.21289 0.323931,-0.293152 0.589843,-0.654012 0.589843,-0.802735 0,-0.188869 -0.696496,-0.269121 -1.583984,-0.251953 z m 177.263673,0.441407 c -0.18769,-0.0028 -0.39294,0.02348 -0.60938,0.08008 -0.68422,0.178928 -0.83863,0.466059 -0.45703,0.847656 0.41058,0.410586 2.02539,0.225252 2.02539,-0.232422 0,-0.424295 -0.39592,-0.686768 -0.95898,-0.695312 z M 327.85938,80 C 327.937,80 328,80.144312 328,80.320312 c 0,0.176001 -0.15152,0.320313 -0.33789,0.320313 -0.18642,0 -0.25135,-0.144312 -0.14258,-0.320313 C 327.6283,80.144313 327.78177,80 327.85938,80 Z m -71.6211,0.06641 c 0.11989,-0.0065 0.0745,0.21777 -0.11328,0.707032 -0.10683,0.278395 -0.32135,0.505859 -0.47852,0.505859 -0.44264,0 -0.3386,-0.517496 0.19336,-0.958985 0.19539,-0.162154 0.32651,-0.250026 0.39844,-0.253906 z m 2.0586,0.121094 c -0.24985,-0.0087 -0.37696,0.09833 -0.37696,0.322266 0,0.510425 0.28439,0.564111 0.90625,0.169922 0.32469,-0.205816 0.26888,-0.312689 -0.23828,-0.445313 -0.11064,-0.02893 -0.20776,-0.04399 -0.29101,-0.04687 z m -176.625005,0.07617 c 0.178584,0.06681 0.261552,0.602485 0.121094,1.162109 -0.11249,0.448195 -0.349391,0.814453 -0.525391,0.814453 -0.281347,0 -0.107721,-1.518224 0.216797,-1.894531 0.03681,-0.04268 0.07228,-0.06767 0.105469,-0.08008 0.02904,-0.01086 0.05652,-0.0113 0.08203,-0.002 z m 242.859375,1.388672 c 0.18419,0.01847 0.21889,0.08253 0.10937,0.195312 -0.17599,0.18128 -0.94337,0.398702 -1.70507,0.482422 -1.79667,0.197466 -1.29785,-0.309785 0.58398,-0.59375 0.49274,-0.07435 0.82753,-0.102474 1.01172,-0.08398 z M 108.3125,82.054688 c 0.3478,0.0896 0.83197,1.013726 0.58203,1.263671 -0.36606,0.366051 -0.65834,0.211729 -0.82812,-0.4375 -0.092,-0.351827 -0.0432,-0.715493 0.10742,-0.808593 0.0415,-0.02566 0.089,-0.03038 0.13867,-0.01758 z m 212.09961,0.271484 c 0.0675,0.0039 0.12116,0.01959 0.15234,0.05078 0.0854,0.08533 0.0691,0.376847 -0.0352,0.648438 -0.2087,0.543904 -1.8086,0.690786 -1.8086,0.166015 0,-0.314798 1.21909,-0.892607 1.69141,-0.865234 z M 81.140625,83.84375 c 0.294323,0.02149 0.342203,0.644602 0.125,1.595703 -0.06029,0.264 7.98e-4,1.438879 0.134766,2.609375 0.202432,1.768675 0.428503,2.342213 1.335937,3.402344 0.600534,0.70159 1.451926,1.365963 1.892578,1.476562 0.834333,0.209405 1.35767,1.380135 1.015625,2.271485 -0.228185,0.594647 -0.434967,0.58812 -1.644531,-0.05469 -1.614759,-0.858138 -3.587487,-3.078794 -4.021484,-4.527343 -0.40359,-1.347066 -0.364677,-1.667503 0.763672,-6.386719 0.05376,-0.224841 0.233468,-0.398749 0.398437,-0.386719 z m 234.769535,0.162109 c 0.36313,0.04741 0.74252,0.192411 0.80859,0.390625 0.0633,0.190025 -0.003,0.418173 -0.14844,0.507813 -0.31487,0.194596 -1.37109,-0.350007 -1.37109,-0.707031 0,-0.189589 0.3478,-0.238818 0.71094,-0.191407 z m -14.45313,0.513672 c -0.1537,0.02567 -0.39568,0.140085 -0.75781,0.333985 -0.60431,0.323576 -1.32487,0.371386 -3.73828,0.248046 -0.96519,-0.04933 -6.67541,0.825791 -6.90821,1.058594 -0.13191,0.131913 0.9718,0.2444 2.45313,0.25 1.85949,0.007 2.8856,0.156104 3.31445,0.480469 0.70522,0.533398 1.7793,0.627834 1.7793,0.15625 0,-0.172647 -0.35883,-0.40519 -0.79883,-0.515625 -1.62117,-0.406887 -0.72406,-0.709063 1.96875,-0.664062 2.63768,0.04407 2.77279,0.01261 2.87695,-0.669922 0.0783,-0.51283 0.0667,-0.720513 -0.18945,-0.677735 z m 11.88672,0.31836 c 0.2451,0.113227 1.20111,1.366226 1.20898,1.642578 0.004,0.132 -0.11396,0.240234 -0.26171,0.240234 -0.26042,0 -1.01831,-1.400973 -1.00391,-1.855469 0.001,-0.03651 0.0216,-0.04352 0.0566,-0.02734 z m 2.46094,0.601562 c 0.66662,0 1.00247,0.139102 0.92187,0.380859 -0.19253,0.57758 -0.66005,0.609214 -1.34765,0.08984 -0.58674,-0.443148 -0.56398,-0.470703 0.42578,-0.470703 z M 140.0332,86.628906 c 0.43599,-0.08429 0.84558,0.275485 1.26368,1.083985 0.32221,0.623062 0.40527,1.334665 0.26171,2.232421 -0.18492,1.156409 -0.11029,1.401617 0.60743,2.00586 0.92235,0.776512 1.12769,1.9743 1.375,8.048828 0.0788,1.936 0.26145,3.95247 0.40625,4.48047 l 0.26367,0.95898 3.54297,-0.11718 c 4.29702,-0.14259 4.31033,-0.13046 4.07421,3.80664 -0.1398,2.33104 -0.1026,2.59022 0.32618,2.23437 0.41743,-0.34644 0.48636,-0.249 0.48632,0.69336 0,0.60235 -0.17356,1.26732 -0.38476,1.47852 -0.63289,0.63289 -0.8291,0.45271 -1.05469,-0.97461 -0.69056,-4.36918 -1.51331,-5.03265 -5.26172,-4.24414 -3.21195,0.67565 -3.55649,0.4746 -4.45898,-2.60157 -0.81767,-2.78704 -1.09384,-3.45258 -2.30469,-5.55859 -0.99821,-1.736173 -1.29889,-5.453016 -0.51367,-6.351562 0.75198,-0.860524 0.99126,-3.473223 0.40039,-4.375 -0.6476,-0.988355 -0.63526,-1.175557 0.14844,-2.171876 0.289,-0.367407 0.56067,-0.578331 0.82226,-0.628906 z m -18.64648,0.410156 c 0.7629,0 1.72821,1.634539 1.63281,2.763672 -0.0466,0.55112 -0.30582,1.432422 -0.57812,1.958985 -0.2723,0.526566 -0.41036,1.042759 -0.30664,1.146484 0.10373,0.103722 -0.17788,0.354872 -0.625,0.558594 -0.95107,0.433334 -1.15277,1.270692 -1.16797,4.833984 -0.008,1.978719 -0.17857,2.822399 -0.86914,4.318359 -0.47221,1.02295 -1.10575,2.148 -1.40625,2.5 -0.30051,0.352 -0.93851,1.36019 -1.41797,2.24024 -0.47945,0.87999 -1.21649,2.05766 -1.63867,2.61718 -0.63751,0.84493 -0.96475,1.00854 -1.92969,0.96094 -2.39237,-0.11803 -3.63419,-1.47124 -4.24805,-4.63281 -0.35488,-1.82772 -0.32687,-2.20165 0.28711,-4 0.83965,-2.459357 3.89086,-7.044488 5.24414,-7.880862 0.55469,-0.342819 1.39924,-0.579994 1.87891,-0.527344 1.05263,0.115549 1.76798,-0.570772 1.24804,-1.197265 -0.33973,-0.409341 -0.27307,-0.612262 1.28711,-3.925781 0.34672,-0.736379 1.84744,-1.734376 2.60938,-1.734376 z m -9.1836,0.06445 c 0.23136,0.07123 0.50509,0.729829 0.73633,2.095703 0.20113,1.188 0.5186,2.638865 0.70508,3.222656 0.18646,0.583792 0.28806,1.105816 0.22656,1.160156 -0.0615,0.05434 -0.4178,0.193487 -0.79297,0.308594 -0.85603,0.262665 -1.06455,-0.225077 -1.30468,-3.054687 -0.18834,-2.219263 0.0141,-3.588622 0.33398,-3.726563 0.0311,-0.01341 0.0627,-0.01588 0.0957,-0.0059 z M 295.25,87.771484 c -0.71724,-0.001 -0.72133,0.467158 0.18945,0.642578 1.36604,0.26311 3.28115,0.215564 3.75977,-0.09375 0.34732,-0.224455 0.0386,-0.319206 -1.11914,-0.341796 -0.88,-0.01717 -1.99647,-0.09623 -2.48047,-0.175782 -0.13103,-0.02154 -0.24715,-0.0311 -0.34961,-0.03125 z m 22.82617,0.148438 c 0.20117,-0.0049 0.25012,0.08276 0.32422,0.222656 0.088,0.166134 -0.30909,0.574274 -0.88086,0.908203 -1.50848,0.881002 -4.73421,1.796651 -5.23633,1.486328 -0.63005,-0.389392 -0.2281,-0.635021 2.67969,-1.644531 2.01779,-0.700528 2.778,-0.964501 3.11328,-0.972656 z m -200.77734,0.40039 c 0.0776,10e-7 0.14062,0.144313 0.14062,0.320313 0,0.176 -0.1515,0.320309 -0.33789,0.320313 -0.18641,-10e-7 -0.2494,-0.144313 -0.14062,-0.320313 0.10877,-0.176 0.26029,-0.320309 0.33789,-0.320313 z m -12.47461,0.04297 c 0.10413,0.0062 0.13672,0.148687 0.13672,0.404297 0,0.52625 -2.82166,3.392578 -3.33985,3.392578 -0.19484,0 -1.05126,0.638546 -1.90234,1.419922 -1.688151,1.549891 -3.274252,2.311528 -3.488281,1.675781 -0.329267,-0.978051 0.33032,-1.59887 3.154297,-2.972656 1.909804,-0.929069 3.393104,-1.903395 4.119144,-2.707031 0.77116,-0.853586 1.14675,-1.223168 1.32031,-1.212891 z m 178.10937,0.392578 c -0.15944,-0.0087 -0.28762,0.01223 -0.34961,0.07422 -0.0906,0.09059 0.0458,0.299157 0.30469,0.462891 0.59887,0.378747 1.27149,0.390462 1.27149,0.02344 0,-0.243414 -0.74824,-0.534447 -1.22657,-0.560547 z m 3.95508,0.3125 c -0.25346,-0.02357 -0.42811,0.02381 -0.54492,0.140625 -0.597,0.596998 0.0595,1.029725 1.5957,1.052735 0.82561,0.01237 1.78863,0.146465 2.14063,0.296875 0.91399,0.390547 8.69269,0.237189 9.10937,-0.179688 0.24229,-0.242399 -0.68318,-0.302738 -3.18359,-0.205078 -2.97744,0.116288 -3.52539,0.0643 -3.52539,-0.339844 0,-0.676416 -0.93015,-0.837809 -2.24024,-0.386718 -0.9163,0.315506 -1.34295,0.298874 -2.34179,-0.09375 -0.42545,-0.167234 -0.7563,-0.26159 -1.00977,-0.285157 z M 91.101562,89.279297 c 1.233171,0 1.819603,0.69363 1.925782,2.279297 l 0.08203,1.242187 h -2.041016 c -2.107737,0 -2.427734,-0.207691 -2.427734,-1.570312 0,-0.869497 1.363165,-1.951172 2.460937,-1.951172 z m 64.621098,0.203125 c 0.27627,-0.0074 0.47812,0.03086 0.5625,0.115234 0.16876,0.168755 -0.0273,0.353709 -0.47852,0.449219 -0.42146,0.0892 -2.06248,0.457921 -3.64648,0.818359 -1.584,0.360436 -3.23969,0.735727 -3.67969,0.835938 -0.70367,0.160265 -0.73012,0.138932 -0.2168,-0.1875 0.69963,-0.444912 2.15276,-0.922626 3.89649,-1.28125 0.704,-0.144788 1.85475,-0.41117 2.55859,-0.591797 0.37681,-0.0967 0.72763,-0.150822 1.00391,-0.158203 z m -99.525394,2.451172 c -0.272606,0.04575 -0.517581,0.385595 -0.517578,0.884765 0,0.407779 0.220447,0.621094 0.640624,0.621094 0.674907,0 0.816225,-0.50354 0.34961,-1.240234 -0.135865,-0.214505 -0.309093,-0.293074 -0.472656,-0.265625 z m 10.648437,0.429687 c 1.068692,0.0089 2.195725,0.707844 2.519531,1.636719 0.331593,0.951213 0.03684,2.07411 -0.371093,1.414062 -0.289114,-0.467793 -2.098344,-1.333984 -2.785157,-1.333984 -1.232554,0 -1.073519,-1.437049 0.185547,-1.677734 0.147858,-0.02827 0.298502,-0.04034 0.451172,-0.03906 z m 69.615237,0.4375 c 0.27439,0 0.5,0.14236 0.5,0.31836 0,0.176 -0.13712,0.320312 -0.30274,0.320312 -0.16561,0 -0.38927,-0.144312 -0.49804,-0.320312 -0.10878,-0.176 0.0264,-0.31836 0.30078,-0.31836 z m -44.615237,0.488281 c 0.24798,-0.0041 0.53962,0.09117 1.003906,0.285157 0.588956,0.24608 1.214625,0.460142 1.390625,0.476562 0.176,0.01642 0.340175,0.498707 0.365235,1.070313 0.02505,0.571603 0.147658,1.291609 0.273437,1.599609 0.196944,0.482269 0.03664,0.560253 -1.164062,0.564453 -0.766832,0.0027 -1.552484,0.11093 -1.746094,0.240235 -0.193609,0.129305 -0.43466,0.450843 -0.535156,0.714843 -0.10863,0.285375 -0.193975,0.319223 -0.208985,0.08398 -0.01748,-0.273642 -0.616075,-0.378327 -1.941406,-0.341797 -1.053888,0.02905 -2.01954,-0.05274 -2.146484,-0.179688 -0.219378,-0.219385 -0.18867,-1.95382 0.05859,-3.271484 0.06312,-0.336358 0.127156,-0.730966 0.140626,-0.876953 0.03639,-0.394548 2.043959,0.120649 2.419921,0.621094 0.224061,0.298247 0.473334,0.336439 0.804688,0.123047 0.263996,-0.170024 0.339131,-0.311854 0.167969,-0.314454 -0.171158,-0.0027 -0.0051,-0.218362 0.36914,-0.480468 0.294994,-0.206618 0.500067,-0.31033 0.748047,-0.314454 z m 43.734377,0.44336 c 0.0639,0.0039 0.0996,0.02151 0.0996,0.05859 0,0.176374 -0.49903,0.530135 -1.10938,0.785156 -1.15562,0.482851 -2.02988,0.61582 -1.66797,0.253906 0.41461,-0.414612 2.23041,-1.125075 2.67774,-1.097656 z m -69.683596,1.416016 c 0.348,0.0081 0.713903,0.05172 1.013672,0.128906 0.965481,0.248614 1.167334,0.497535 1.767578,2.18164 0.492323,1.381319 0.855872,1.92878 1.328125,2 0.465178,0.07015 0.7126,0.429217 0.869141,1.263676 0.120317,0.64135 0.423453,1.31722 0.673828,1.50195 0.487244,0.35951 0.618684,1.48626 0.515625,4.4043 -0.0675,1.91118 -0.692723,2.72089 -1.777344,2.30468 -0.634173,-0.24336 -0.824125,-0.75243 -1.480468,-3.97265 -0.495824,-2.43266 -0.503531,-2.78121 -0.07031,-3.28321 0.38704,-0.44851 0.411878,-0.72117 0.121094,-1.35937 -0.683645,-1.500447 -1.370204,-0.870471 -1.919922,1.76172 -0.512973,2.45622 0.280873,5.48233 1.886719,7.19922 0.738438,0.78949 0.985808,1.49992 1.394531,4 0.273344,1.672 0.785472,3.95268 1.138672,5.06836 1.082137,3.41823 0.799542,4.62408 -1.283203,5.45507 l -0.794922,0.31641 0.828125,0.0215 c 0.454668,0.0112 0.916224,0.10959 1.027344,0.22071 0.224976,0.22498 -0.612815,1.55855 -0.980469,1.56055 -0.128611,5.5e-4 -0.737516,0.3795 -1.353516,0.84374 -2.162377,1.62971 -7.927875,1.22833 -9.755859,-0.67968 -0.84028,-0.87697 -0.863137,-1.00681 -0.841797,-4.58789 0.01209,-2.02647 0.167863,-4.3334 0.345703,-5.12696 0.177843,-0.79356 0.310792,-3.5059 0.294922,-6.02734 -0.01613,-2.56441 0.139238,-5.2886 0.353516,-6.18359 0.780372,-3.25943 1.378527,-4.819146 2.121093,-5.533207 0.419213,-0.403123 0.761719,-0.958826 0.761719,-1.234375 0,-0.427117 1.40227,-1.819177 1.91211,-1.898437 0.0923,-0.01435 0.541585,-0.131901 0.998046,-0.261719 0.228231,-0.06491 0.55825,-0.09208 0.90625,-0.08398 z m 65.712896,0.228515 c 0.15295,0 0.1955,0.100234 0.0703,0.302735 -0.10878,0.175999 -0.44067,0.317053 -0.73828,0.314453 -0.46632,-0.0042 -0.47446,-0.04712 -0.0605,-0.314453 0.31333,-0.202496 0.57552,-0.302735 0.72852,-0.302735 z m -13.36524,0.462891 c -0.39051,0 -0.67187,0.247425 -0.73047,0.640625 -0.20364,1.367174 -1.15242,4.197271 -1.66211,4.958981 -0.80253,1.19936 -1.93164,4.13896 -1.93164,5.0293 0,0.89356 0.69791,0.85772 0.83008,-0.043 0.0468,-0.319 0.72563,-1.835 1.50977,-3.36914 0.78413,-1.53414 1.53141,-3.281491 1.66015,-3.882812 0.12875,-0.601319 0.34783,-1.238062 0.48633,-1.414062 0.13851,-0.176 0.30208,-0.679141 0.36328,-1.119141 0.0865,-0.622157 -0.0311,-0.800781 -0.52539,-0.800781 z m -63.205078,1.121094 c -0.351998,0 -0.638671,0.04959 -0.638671,0.111328 0,0.456838 0.812049,2.334221 1.091797,2.523437 0.573647,0.388003 1.46875,0.274965 1.46875,-0.185547 -10e-7,-0.236723 -0.288626,-0.691208 -0.640626,-1.009765 -0.351998,-0.318557 -0.640624,-0.773042 -0.640624,-1.009766 0,-0.23672 -0.288626,-0.429687 -0.640626,-0.429687 z m 257.958988,0.638671 c 0.17603,0 0.22987,0.144313 0.12109,0.320313 -0.10877,0.176 -0.34158,0.320312 -0.51758,0.320312 -0.17603,0 -0.22986,-0.144312 -0.12109,-0.320312 0.10878,-0.176 0.34158,-0.320313 0.51758,-0.320313 z M 93.625,98.560547 h 1.705078 l 0.19336,1.199219 c 0.106116,0.659994 0.284365,1.560004 0.394531,2.000004 0.110166,0.44 0.229285,1.01529 0.265625,1.27929 0.03634,0.264 0.359374,1.92164 0.71875,3.68164 0.359376,1.76 0.755357,4.06314 0.878906,5.11914 0.123546,1.056 0.348716,2.25181 0.5,2.65625 0.236716,0.63284 0.42939,2.36465 0.740234,6.62305 0.03854,0.528 0.11169,1.10525 0.16211,1.28125 0.05037,0.176 0.07552,0.49875 0.05469,0.71875 -0.02084,0.22 -0.385137,0.40039 -0.808593,0.40039 -0.630817,0 -0.861373,-0.26956 -1.279297,-1.49609 -0.280544,-0.82336 -0.509766,-1.76496 -0.509766,-2.0918 0,-0.32684 -0.222094,-0.93153 -0.492187,-1.34375 -0.591184,-0.90225 -1.078699,-2.46178 -1.300782,-4.1582 -0.186221,-1.4225 -0.801158,-2.75357 -1.566406,-3.38867 -0.345619,-0.28684 -0.506026,-0.87482 -0.472656,-1.73829 0.112455,-2.90994 0.01795,-3.39421 -0.716797,-3.66601 -0.741939,-0.27446 -1.925248,-0.10995 -1.732422,0.24023 0.06166,0.11199 0.01589,1.03589 -0.101563,2.05274 -0.117468,1.01686 -0.162534,1.89999 -0.09961,1.96289 0.06293,0.0629 0.176443,1.43521 0.251953,3.05078 0.07551,1.61557 0.223982,3.07833 0.330078,3.25 0.106093,0.17166 0.02538,1.35017 -0.179687,2.61914 -0.620496,3.83983 -0.586035,3.74805 -1.416016,3.74805 -1.111542,0 -1.501964,-1.40235 -1.652343,-5.91993 C 87.421869,114.52863 87.270801,112.44 87.158203,112 c -0.258051,-1.00836 -0.502956,-3.79021 -0.535156,-6.08008 -0.02684,-1.9085 0.366308,-6.774506 0.5625,-6.970701 0.0665,-0.0665 0.997656,0.01148 2.070312,0.173828 1.522256,0.230396 2.028782,0.200034 2.306641,-0.134766 0.216154,-0.260451 1.026433,-0.427734 2.0625,-0.427734 z m 225.91406,0.958984 c 0.0776,0 0.14063,0.144313 0.14063,0.320313 0,0.175996 -0.1515,0.320316 -0.33789,0.320316 -0.18641,0 -0.25135,-0.14432 -0.14258,-0.320316 0.10878,-0.176 0.26224,-0.320313 0.33984,-0.320313 z M 79.917969,100.52539 c -0.04536,3e-5 -0.08178,0.0115 -0.105469,0.0352 -0.400054,0.40006 -0.05781,6.87328 0.40625,7.67968 0.546788,0.95016 1.456404,-0.78199 1.019531,-1.9414 -0.153533,-0.40746 -0.277343,-1.72092 -0.277343,-2.91992 -10e-7,-1.56274 -0.138643,-2.29576 -0.488282,-2.58594 -0.201189,-0.16688 -0.41861,-0.26767 -0.554687,-0.26758 z m -28.832031,0.13086 c 0.290841,0.0496 0.315704,0.53449 0.203124,1.6582 -0.101644,1.01454 -0.376657,1.7213 -0.824218,2.10938 -0.653635,0.56672 -0.679404,0.56399 -0.914063,-0.0703 -0.231782,-0.62657 -0.280164,-0.61437 -1.191406,0.29687 -0.840899,0.8409 -2.279297,1.30667 -2.279297,0.73828 0,-0.32868 3.59538,-4.0639 4.3125,-4.48047 0.23063,-0.13397 0.411898,-0.22104 0.552734,-0.24804 0.05281,-0.0101 0.09908,-0.0106 0.140626,-0.004 z m 90.673832,0.46289 c -0.352,0 -0.64063,0.14431 -0.64063,0.32031 0,0.176 0.28863,0.32032 0.64063,0.32032 0.352,0 0.64062,-0.14432 0.64062,-0.32032 0,-0.176 -0.28862,-0.32031 -0.64062,-0.32031 z m 171.3789,0.96094 c 0.0776,0 0.14063,0.14431 0.14063,0.32031 0,0.176 -0.15151,0.32031 -0.33789,0.32031 -0.18642,0 -0.2494,-0.14431 -0.14063,-0.32031 0.10878,-0.176 0.26029,-0.32031 0.33789,-0.32031 z m -1.80664,0.35937 c 0.0967,-0.009 0.19134,0.0175 0.26758,0.0937 0.10856,0.10856 0.0439,0.35262 -0.14453,0.54102 -0.22982,0.22984 -0.40984,0.23428 -0.54492,0.0156 -0.17045,-0.27579 0.13193,-0.62288 0.42187,-0.65039 z M 315.8125,105 c 0.0967,-0.009 0.19134,0.0175 0.26758,0.0937 0.10856,0.10856 0.0439,0.35065 -0.14453,0.53906 -0.22982,0.22984 -0.40979,0.23604 -0.54493,0.0176 -0.17043,-0.27579 0.13193,-0.62288 0.42188,-0.65039 z m 1.99414,0.0508 c 0.11654,0.0117 0.23065,0.0588 0.32227,0.15039 0.20484,0.20484 0.14311,0.37885 -0.17774,0.50195 -0.27019,0.10372 -0.56951,0.0605 -0.66601,-0.0957 -0.19395,-0.31384 0.17186,-0.59185 0.52148,-0.55664 z m -4.08203,0.0996 c 0.1209,0.0175 0.19531,0.0661 0.19531,0.14063 0,0.4359 -0.47627,0.60743 -0.92187,0.33203 -0.30024,-0.18556 -0.23052,-0.30055 0.25586,-0.42774 0.18344,-0.048 0.3498,-0.0625 0.4707,-0.0449 z m -2.36523,0.12891 c 0.17599,0 0.32031,0.14431 0.32031,0.32031 0,0.176 -0.14433,0.32031 -0.32031,0.32031 -0.17602,0 -0.32032,-0.14431 -0.32032,-0.32031 0,-0.176 0.14432,-0.32031 0.32032,-0.32031 z m -237.439458,0.32031 c 0.176,0 0.320312,0.14431 0.320312,0.32031 0,0.176 -0.144312,0.32031 -0.320312,0.32031 -0.176,0 -0.320313,-0.14431 -0.320313,-0.32031 0,-0.176 0.144313,-0.32031 0.320313,-0.32031 z m 244.640628,1.23242 c 0.1672,0 0.35487,0.15455 0.41797,0.34375 0.0631,0.1892 -0.12463,0.34375 -0.41797,0.34375 -0.29333,0 -0.48301,-0.15455 -0.41993,-0.34375 0.0631,-0.1892 0.25273,-0.34375 0.41993,-0.34375 z m -266.740238,0.0488 c 0.186389,0 0.339844,0.14236 0.339844,0.31836 0,0.176 -0.06302,0.32031 -0.140625,0.32031 -0.07761,0 -0.231073,-0.14431 -0.339843,-0.32031 -0.108776,-0.176 -0.04576,-0.31836 0.140624,-0.31836 z m 268.677738,0 c 0.0776,0 0.14257,0.14236 0.14257,0.31836 0,0.176 -0.15347,0.32031 -0.33984,0.32031 -0.18642,0 -0.24939,-0.14431 -0.14062,-0.32031 0.10877,-0.176 0.26029,-0.31836 0.33789,-0.31836 z m -214.66016,1.14258 c 0.0629,-0.01 0.11534,-0.003 0.1543,0.0215 0.2513,0.15532 0.0598,5.1306 -0.25391,6.5957 -0.19165,0.895 -0.58367,1.13259 -0.93359,0.56641 -0.10649,-0.17231 -0.39233,-1.35455 -0.63477,-2.62695 -0.32068,-1.68294 -0.34657,-2.48755 -0.0977,-2.95313 0.37646,-0.70344 1.32538,-1.53574 1.76562,-1.60351 z m 208.10156,0.13672 c 0.16561,0 0.30078,0.14431 0.30078,0.32031 0,0.176 -0.22562,0.32031 -0.5,0.32031 -0.27442,0 -0.40955,-0.14431 -0.30078,-0.32031 0.10878,-0.176 0.33439,-0.32031 0.5,-0.32031 z m 2.08008,0 c 0.0776,0 0.14063,0.14431 0.14063,0.32031 0,0.176 -0.15346,0.32031 -0.33985,0.32031 -0.18641,0 -0.24939,-0.14431 -0.14062,-0.32031 0.10878,-0.176 0.26224,-0.32031 0.33984,-0.32031 z m -4.20312,0.0371 c 0.13125,0.0112 0.18304,0.12273 0.12304,0.30273 -0.077,0.231 -0.32759,0.48355 -0.55859,0.56055 -0.24,0.08 -0.36125,-0.0413 -0.28125,-0.28125 0.077,-0.231 0.32955,-0.4816 0.56055,-0.5586 0.06,-0.02 0.1125,-0.0272 0.15625,-0.0234 z m 11.50781,0.72461 c 0.11475,0.005 0.19531,0.13405 0.19531,0.33984 0,0.27438 -0.14431,0.49805 -0.32031,0.49805 -0.176,0 -0.31836,-0.13518 -0.31836,-0.30079 0,-0.16561 0.14236,-0.38926 0.31836,-0.49804 0.044,-0.0272 0.0867,-0.0408 0.125,-0.0391 z m -180.60352,0.55273 c 0.0847,0.004 0.17519,0.0362 0.27149,0.0957 0.50372,0.31131 0.45103,2.71435 -0.125,5.78907 -0.26378,1.408 -0.55203,3.06368 -0.64063,3.67968 -0.26926,1.87233 -1.12643,4.58251 -1.79687,5.67578 -0.34881,0.56879 -0.54436,1.18017 -0.4336,1.35938 0.30034,0.48596 -0.34058,0.39336 -0.75781,-0.10938 -0.27639,-0.33303 -0.19678,-0.64485 0.34375,-1.33203 0.66512,-0.84556 0.85467,-1.58673 1.50781,-5.93554 0.14731,-0.98086 0.41072,-2.06125 0.58594,-2.40039 0.17522,-0.33917 0.27802,-1.79371 0.22852,-3.23243 -0.08,-2.32561 0.2234,-3.62125 0.8164,-3.58984 z m 171.90039,0.28516 c 0.49385,0 0.663,0.95473 0.25586,1.44531 -0.42194,0.5084 -0.73384,0.59232 -1.04297,0.2832 -0.24963,-0.24964 0.42384,-1.72851 0.78711,-1.72851 z m 3.71094,0.0527 c 0.11191,-0.0274 0.26793,-0.0234 0.46875,0.006 0.5555,0.0797 0.69966,0.28531 0.63086,0.89648 -0.14055,1.24825 -0.64443,1.50221 -1.01953,0.51563 -0.36352,-0.95612 -0.4157,-1.3357 -0.0801,-1.41797 z m -1.7793,0.25391 c 0.13187,-0.0223 0.25169,0.0548 0.27149,0.24609 0.0132,0.1276 -0.14818,0.28897 -0.35938,0.35938 -0.2112,0.0704 -0.32821,-0.0447 -0.25781,-0.25586 0.0688,-0.20626 0.21384,-0.32735 0.3457,-0.34961 z m -4.28125,0.0273 c 0.19585,-0.0586 0.31547,0.19208 0.41797,0.77539 0.0682,0.3884 -0.0922,0.66873 -0.41992,0.73633 -0.75139,0.15493 -0.96627,-0.36568 -0.44531,-1.07813 0.18496,-0.25295 0.32976,-0.39841 0.44726,-0.43359 z m -2.11132,0.0488 c 0.0563,-0.0213 0.14472,0.0354 0.27539,0.16601 0.19584,0.1958 0.30187,0.52026 0.23437,0.72266 -0.15903,0.47709 -0.58984,0.0482 -0.58984,-0.58789 0,-0.1801 0.0237,-0.27947 0.0801,-0.30078 z m 10.81836,0.25781 c 0.18642,0 0.24939,0.14431 0.14062,0.32031 -0.10877,0.176 -0.26029,0.32032 -0.33789,0.32032 -0.0776,0 -0.14063,-0.14432 -0.14063,-0.32032 0,-0.176 0.15153,-0.32031 0.3379,-0.32031 z m -13.13868,0.95899 c 0.176,0 0.32032,0.21646 0.32032,0.48046 0,0.264 -0.14432,0.48047 -0.32032,0.48047 -0.176,0 -0.32031,-0.21647 -0.32031,-0.48047 0,-0.264 0.14431,-0.48046 0.32031,-0.48046 z m -256.761715,0.125 c 0.03887,-0.001 0.08223,0.0114 0.126953,0.0391 0.178873,0.11054 0.241886,0.3342 0.140625,0.49804 -0.274313,0.44386 -0.464844,0.36092 -0.464844,-0.20117 0,-0.20579 0.08064,-0.33202 0.197266,-0.33593 z M 92.146484,112 c 0.496931,0 1.220777,1.3258 1.398438,2.56055 0.188384,1.30928 1.136225,4.49552 1.474609,4.95898 0.464503,0.63619 1.08976,4.02045 0.794922,4.30274 -0.161482,0.15461 -1.41139,0.38155 -2.775391,0.50585 -3.024923,0.27578 -2.935004,0.44584 -1.771484,-3.36718 0.479821,-1.57243 0.625686,-2.92092 0.597656,-5.52149 C 91.842645,113.34327 91.952219,112 92.146484,112 Z m 222.857426,0.42773 c 0.11475,-0.0222 0.19531,0.0418 0.19531,0.17383 0,0.176 -0.14236,0.41076 -0.31836,0.51953 -0.176,0.10878 -0.32031,0.053 -0.32031,-0.12304 0,-0.176 0.14431,-0.4088 0.32031,-0.51758 0.044,-0.0272 0.0848,-0.0453 0.12305,-0.0527 z m 2.10547,0.21289 c 0.42844,0 0.57255,0.15398 0.44726,0.48047 -0.10131,0.264 -0.38568,0.47852 -0.63086,0.47852 -0.24516,0 -0.44531,-0.21452 -0.44531,-0.47852 0,-0.26411 0.28227,-0.48047 0.62891,-0.48047 z m 2.25,0.32032 c 0.17599,0 0.32031,0.14236 0.32031,0.31836 0,0.176 -0.14433,0.32031 -0.32031,0.32031 -0.17602,0 -0.32032,-0.14431 -0.32032,-0.32031 0,-0.176 0.14432,-0.31836 0.32032,-0.31836 z m -7.0586,1.27929 c 0.18638,0 0.33984,0.14432 0.33984,0.32032 0,0.176 -0.065,0.32031 -0.14257,0.32031 -0.0776,0 -0.22911,-0.14431 -0.33789,-0.32031 -0.10877,-0.176 -0.0458,-0.32032 0.14062,-0.32032 z m 4.19141,0.0762 c 0.33803,0.0135 0.63257,0.29875 0.45508,0.58593 -0.10125,0.16384 -0.31157,0.29688 -0.4668,0.29688 -0.44815,0 -0.68404,-0.57374 -0.32617,-0.79492 0.10656,-0.0659 0.22521,-0.0924 0.33789,-0.0879 z m 3.20703,0.24414 c 0.16561,0 0.30078,0.21647 0.30078,0.48047 0,0.49485 -0.3779,0.63577 -0.73828,0.27539 -0.25565,-0.25566 0.034,-0.75586 0.4375,-0.75586 z m -10.17969,0.0742 c 0.0424,-0.0264 0.12107,0.16349 0.27344,0.54492 0.34281,0.85811 0.26664,1.8187 -0.11328,1.43554 -0.13201,-0.13312 -0.22995,-0.68584 -0.21875,-1.22851 0.01,-0.48247 0.0162,-0.72556 0.0586,-0.75195 z m -236.42578,0.0918 c 0.178044,0.004 0.414108,0.20385 0.6875,0.6211 0.385289,0.58802 0.542219,1.61071 0.574219,3.74023 0.03139,2.08875 -0.07039,2.96781 -0.355469,3.06641 -0.494932,0.17127 -0.619853,-0.20805 -0.863281,-2.63477 -0.105929,-1.056 -0.264616,-2.52135 -0.353516,-3.25586 -0.121286,-1.00214 0.01381,-1.54325 0.310547,-1.53711 z m 250.88477,0.95703 c 0.10503,-0.0157 0.22459,-0.003 0.3496,0.0449 0.25735,0.0987 0.38842,0.30729 0.29102,0.46484 -0.20743,0.33558 -0.58767,0.37146 -0.87695,0.082 -0.25558,-0.25555 -0.0788,-0.54456 0.23633,-0.5918 z m -8.88282,0.0684 c 0.15142,-0.009 0.30437,0.0211 0.43555,0.10547 0.41108,0.26426 0.40863,0.34119 -0.0117,0.61719 -0.59921,0.3934 -0.87367,0.4036 -1.09765,0.041 -0.22004,-0.35599 0.21956,-0.73731 0.67382,-0.76367 z m -2.13476,0.0879 c 0.176,0 0.31836,0.14432 0.31836,0.32032 0,0.176 -0.14236,0.32031 -0.31836,0.32031 -0.176,0 -0.3203,-0.14431 -0.32032,-0.32031 0,-0.176 0.14432,-0.32032 0.32032,-0.32032 z m 4.33789,0.32032 c 0.27441,0 0.40956,0.14431 0.30078,0.32031 -0.10877,0.176 -0.33243,0.32031 -0.49805,0.32031 -0.16561,0 -0.30078,-0.14431 -0.30078,-0.32031 0,-0.176 0.22366,-0.32031 0.49805,-0.32031 z m 3.04101,0.32031 c 0.18642,0 0.2494,0.14431 0.14063,0.32031 -0.10877,0.176 -0.26221,0.31836 -0.33985,0.31836 -0.0776,0 -0.14062,-0.14236 -0.14062,-0.31836 0,-0.176 0.15347,-0.32031 0.33984,-0.32031 z m -204.17968,0.48047 c -0.19044,-0.11769 -0.32032,0.26168 -0.32032,0.93945 0,0.62638 0.14432,1.13867 0.32032,1.13867 0.176,0 0.32031,-0.42184 0.32031,-0.93945 0,-0.51761 -0.14431,-1.02989 -0.32031,-1.13867 z m 198.47265,0.78515 c 0.13186,-0.0223 0.25169,0.0548 0.27149,0.2461 0.0132,0.1276 -0.14818,0.28897 -0.35938,0.35937 -0.2112,0.0704 -0.32821,-0.0447 -0.25781,-0.25586 0.0688,-0.20626 0.21384,-0.32734 0.3457,-0.34961 z m 8.11328,0.6543 c 0.27869,0 0.45056,0.16991 0.38086,0.37891 -0.19776,0.59335 -0.88672,0.69204 -0.88672,0.12695 0,-0.27867 0.2272,-0.50586 0.50586,-0.50586 z m -2.30273,0.10742 c 0.11475,-0.0222 0.19731,0.0418 0.19726,0.17383 0,0.176 -0.14431,0.40881 -0.32031,0.51758 -0.176,0.10878 -0.32031,0.0549 -0.32031,-0.1211 0,-0.176 0.14431,-0.40879 0.32031,-0.51757 0.044,-0.0272 0.0848,-0.0454 0.12305,-0.0527 z m 4.33594,0.59961 c 0.12221,-0.009 0.2467,0.0319 0.35351,0.13867 0.23142,0.23142 0.1918,0.45097 -0.13086,0.71875 -0.34374,0.28533 -0.52344,0.29225 -0.68945,0.0234 -0.24192,-0.39142 0.10016,-0.85455 0.4668,-0.88086 z m -11.33985,0.57227 c 0.264,0 0.48047,0.13516 0.48047,0.30078 0,0.40355 -0.50021,0.69316 -0.75586,0.4375 -0.36038,-0.36038 -0.21946,-0.73828 0.27539,-0.73828 z m -196.25,0.0332 c -0.32952,0.0305 -0.63298,0.29144 -1.29883,0.92773 -0.98774,0.94393 -0.99227,0.95899 -0.24218,0.95899 0.41957,0 0.85242,-0.231 0.96094,-0.51367 0.14037,-0.3659 0.42674,-0.45687 0.99414,-0.31446 0.9073,0.22771 1.16361,-0.56164 0.29101,-0.89648 -0.29909,-0.11477 -0.50736,-0.18041 -0.70508,-0.16211 z m 209.60352,0.27344 c 0.13186,-0.0223 0.25168,0.0548 0.27148,0.24609 0.0132,0.1276 -0.15011,0.28898 -0.36133,0.35938 -0.21118,0.0704 -0.32625,-0.0447 -0.25585,-0.25586 0.0688,-0.20626 0.21384,-0.32735 0.3457,-0.34961 z m -225.58399,0.13476 c -0.0336,0.0337 -0.0567,0.14564 -0.0644,0.33203 -0.0139,0.3373 0.0616,0.52626 0.16797,0.41993 0.1063,-0.10634 0.11774,-0.38228 0.0254,-0.61328 -0.0511,-0.12764 -0.0953,-0.17232 -0.12891,-0.13868 z m 215.28907,0.19922 c 0.18641,0 0.25136,0.14432 0.14257,0.32031 -0.10876,0.17602 -0.26224,0.32032 -0.33984,0.32032 -0.0776,0 -0.14062,-0.14429 -0.14062,-0.32032 0,-0.17597 0.1515,-0.32031 0.33789,-0.32031 z m 4.92383,0.10547 c 0.0653,0.005 0.12662,0.0219 0.17968,0.0547 0.24962,0.15435 0.24238,0.34539 -0.0254,0.66797 -0.42906,0.51697 -0.82062,0.5783 -1.07422,0.16797 -0.2152,-0.34824 0.4627,-0.92701 0.91993,-0.89063 z m -123.87305,0.0117 c -0.067,0.0126 -0.10938,0.0607 -0.10938,0.14258 0,0.41935 -5.1862,0.69401 -5.67968,0.30078 -0.2675,-0.21317 -0.69016,-0.19799 -1.2793,0.0449 -0.48499,0.2001 -1.55035,0.28305 -2.37305,0.18555 -1.5773,-0.18689 -2.27424,0.22432 -1.31445,0.77539 0.3117,0.179 1.21581,0.25351 2.00781,0.16601 1.97739,-0.21846 16.04465,-0.33082 16.63867,-0.13281 0.32,0.10667 0.48047,-0.0538 0.48047,-0.48047 0,-0.60302 -0.22409,-0.64112 -3.87109,-0.66992 -2.12878,-0.0168 -4.03702,-0.13416 -4.24024,-0.25976 -0.10161,-0.0628 -0.19279,-0.0849 -0.25976,-0.0723 z m 125.54101,0.58203 c 0.0411,-0.0134 0.0875,-0.014 0.13477,0.002 0.18919,0.0631 0.34375,0.25077 0.34375,0.41797 0,0.1672 -0.15456,0.35682 -0.34375,0.41993 -0.18921,0.0631 -0.34375,-0.12659 -0.34375,-0.41993 0,-0.21999 0.0856,-0.37979 0.20898,-0.41992 z m 1.92578,0.63672 c 0.14155,-0.0278 0.33428,0.0452 0.48829,0.19922 0.20521,0.20534 0.30591,0.44008 0.22461,0.52148 -0.0814,0.0814 -0.35559,0.0201 -0.60938,-0.13672 -0.25391,-0.15686 -0.35443,-0.39164 -0.22461,-0.52148 0.0325,-0.0325 0.0739,-0.0532 0.12109,-0.0625 z m -104.8457,0.004 c -0.21821,0.0495 -0.48648,0.25045 -0.57617,0.51953 -0.0779,0.23386 0.0673,0.30514 0.37891,0.18554 0.27871,-0.10695 0.50781,-0.33401 0.50781,-0.50585 0,-0.10516 -0.0465,-0.16834 -0.11719,-0.19532 -0.053,-0.0202 -0.12062,-0.02 -0.19336,-0.004 z m 4.4961,0.0488 c -2.6266,-0.0269 -3.86524,0.0427 -3.86524,0.21485 0,0.47811 0.86037,0.74499 1.51953,0.4707 0.308,-0.12817 1.28016,-0.20954 2.16016,-0.18164 6.99269,0.22181 8.54661,0.30638 8.71484,0.47461 0.32229,0.32229 2.96485,0.21442 2.96485,-0.12109 0,-0.50836 -1.06961,-0.61031 -8.40039,-0.79883 -1.18951,-0.0306 -2.21822,-0.0496 -3.09375,-0.0586 z m -15.54688,0.0547 c -0.352,0.0257 -0.99263,0.0715 -1.42383,0.10156 -1.02238,0.0714 -0.49086,0.59958 0.78516,0.78125 1.81565,0.2585 2.08008,0.2317 2.08008,-0.21289 0,-0.50516 -0.50372,-0.73852 -1.44141,-0.66992 z m -167.324218,0.0215 c -0.175232,0.0166 -0.195313,0.1563 -0.195313,0.43359 0,0.63444 0.849128,0.96914 3.017579,1.18555 1.593384,0.15901 1.754742,0.33067 0.882812,0.9414 -0.978025,0.68503 -0.874076,1.03633 0.339844,1.1543 0.572,0.0556 1.586727,-0.0255 2.255859,-0.18164 0.966026,-0.22546 1.197794,-0.41711 1.121094,-0.92774 -0.06998,-0.46581 -0.582434,-0.79998 -1.857422,-1.21484 -0.968,-0.31497 -2.065581,-0.58205 -2.439453,-0.59375 -0.373872,-0.0116 -1.273872,-0.23209 -2,-0.48828 -0.619307,-0.2185 -0.949768,-0.32523 -1.125,-0.30859 z m 173.804688,0.29101 c -4.03394,0.12812 -4.40039,0.16966 -4.40039,0.4961 0,0.32998 5.16102,0.39206 6,0.0723 0.96767,-0.36909 0.24403,-0.62686 -1.59961,-0.56836 z m 100.93164,0.79883 c 0.0383,0.006 0.0733,0.0225 0.10352,0.0527 0.0619,0.0619 -0.0922,0.39302 -0.3418,0.73438 -0.37954,0.51908 -0.45313,0.53425 -0.45313,0.0977 0,-0.43275 0.42354,-0.92918 0.69141,-0.88477 z m 3.10352,0.40039 c 0.0564,0.0473 0.0449,0.22308 -0.004,0.55469 -0.0609,0.41779 -0.29172,0.81812 -0.51172,0.89062 -0.57574,0.18961 -0.49252,-0.7254 0.11133,-1.22656 0.22295,-0.18503 0.34795,-0.26605 0.4043,-0.21875 z m 1.95507,0.10742 c 0.26846,5.7e-4 0.46596,0.12149 0.55274,0.34766 0.27139,0.70723 -0.61674,1.50823 -1.11719,1.00781 -0.57942,-0.57944 -0.4665,-1.12295 0.27344,-1.3164 0.1036,-0.0271 0.20153,-0.0393 0.29101,-0.0391 z m -4.38086,0.25781 c 0.0337,-0.0336 0.0778,0.011 0.12891,0.13868 0.0925,0.231 0.0809,0.50694 -0.0254,0.61328 -0.10637,0.10633 -0.18187,-0.0826 -0.16797,-0.41992 0.008,-0.1864 0.0308,-0.29837 0.0645,-0.33204 z m -2.96875,0.19922 c 0.176,0 0.32032,0.14432 0.32032,0.32032 0,0.176 -0.14432,0.32031 -0.32032,0.32031 -0.176,0 -0.32031,-0.14431 -0.32031,-0.32031 0,-0.176 0.14431,-0.32032 0.32031,-0.32032 z m -3.19726,0.32813 c 0.27003,0.007 0.41944,0.55442 0.44531,1.63867 0.0175,0.73488 -0.12829,1.39043 -0.32422,1.45703 -0.44813,0.15236 -0.8413,-2.50881 -0.43164,-2.92187 0.11693,-0.11791 0.22054,-0.17607 0.31055,-0.17383 z m 12.56055,0.0215 c 0.11357,0.001 0.24916,0.0291 0.40234,0.0879 0.28271,0.1085 0.42595,0.34229 0.31641,0.51954 -0.25939,0.4197 -0.70888,0.41247 -0.97461,-0.0176 -0.2209,-0.35738 -0.0849,-0.59382 0.25586,-0.58985 z m -227.460942,1.13282 c 0.172648,0.0157 0.300922,0.0589 0.341797,0.125 0.08175,0.13228 -0.214103,0.30807 -0.65625,0.39257 -0.44215,0.0845 -0.869422,0.0463 -0.951172,-0.0859 -0.08175,-0.13227 0.21215,-0.31003 0.654297,-0.39453 0.221075,-0.0423 0.43868,-0.0529 0.611328,-0.0371 z m 231.820312,0.11718 c 0.176,0 0.40881,0.14432 0.51758,0.32032 0.10877,0.176 0.0529,0.32031 -0.12305,0.32031 -0.176,0 -0.40881,-0.14431 -0.51758,-0.32031 -0.10877,-0.176 -0.0529,-0.32032 0.12305,-0.32032 z m -131.98828,0.2461 c -0.10701,4.2e-4 -0.22382,0.0978 -0.4043,0.29101 -0.23165,0.24795 -0.66098,0.37681 -0.95508,0.28711 -1.18054,-0.35995 -6.56194,-0.34263 -6.68359,0.0215 -0.0823,0.24638 0.5338,0.37497 1.89258,0.39257 3.18588,0.0412 8.97062,0.36638 9.93555,0.5586 1.22696,0.24442 1.10386,0.82506 -0.16016,0.75586 -1.68556,-0.0923 -2.48047,-0.01 -2.48047,0.25976 0,0.22118 1.80705,0.2327 4.96094,0.0312 0.528,-0.0336 2.03937,-0.0421 3.35937,-0.0195 1.32,0.023 2.61686,0.0316 2.88086,0.0195 1.27953,-0.0586 14.03713,-0.0186 17.2793,0.0547 2.024,0.0458 4.32909,0.0524 5.12109,0.0137 2.28108,-0.11139 7.64063,-0.0613 14.45118,0.13672 4.46843,0.12989 6.35477,0.0801 6.51171,-0.17383 0.3697,-0.59818 -0.0198,-0.70593 -2.94726,-0.81445 -1.5487,-0.0574 -3.96897,-0.20335 -5.37695,-0.32422 -1.40801,-0.12087 -2.91938,-0.22447 -3.35938,-0.23047 -2.03758,-0.0288 -22.34562,0.47462 -23.16211,0.57422 -0.50714,0.0619 -1.1684,-0.0417 -1.4707,-0.23047 -0.33572,-0.20971 -0.9115,-0.24226 -1.47852,-0.084 -0.51056,0.1426 -0.99989,0.25219 -1.08789,0.24219 -1.23378,-0.1342 -10.549,-0.76474 -12.95703,-0.87696 -2.23124,-0.10399 -3.29462,-0.28472 -3.52344,-0.59765 -0.14046,-0.19189 -0.23869,-0.28753 -0.3457,-0.28711 z m 126.28516,0.39453 c 0.16563,0 0.30078,0.14431 0.30078,0.32031 0,0.176 -0.22563,0.32031 -0.5,0.32031 -0.27452,0 -0.40955,-0.14431 -0.30078,-0.32031 0.10877,-0.176 0.3344,-0.32031 0.5,-0.32031 z m -9.58008,0.4043 c 0.47648,0.009 0.99345,0.49965 0.7832,0.83984 -0.35987,0.58228 -1.52509,0.43502 -1.40625,-0.17774 0.0569,-0.29342 0.24783,-0.57906 0.42383,-0.63476 0.0642,-0.0203 0.13115,-0.0286 0.19922,-0.0273 z m 14.04101,0.23632 c 0.176,0 0.31836,0.14236 0.31836,0.31836 0,0.176 -0.14236,0.32032 -0.31836,0.32032 -0.176,-3e-5 -0.32031,-0.14432 -0.32031,-0.32032 0,-0.176 0.14431,-0.31836 0.32031,-0.31836 z m -9.28125,0.31836 c 0.176,0 0.32032,0.14431 0.32032,0.32032 0,0.17597 -0.14432,0.32031 -0.32032,0.32031 -0.176,0 -0.32031,-0.14432 -0.32031,-0.32031 0,-0.17602 0.14431,-0.32032 0.32031,-0.32032 z m 1.98243,0.082 c 0.63213,-0.0154 1.58572,0.54414 1.36914,0.89453 -0.32157,0.5203 -2.07032,0.36366 -2.07032,-0.18554 0,-0.26953 0.20483,-0.56806 0.45508,-0.66406 0.0729,-0.028 0.15576,-0.0427 0.2461,-0.0449 z m 2.48437,0.24805 c 0.16888,0.003 0.36838,0.10977 0.49609,0.31641 0.11053,0.17892 0.33687,0.24069 0.50196,0.13867 0.16505,-0.10203 0.38953,0.0473 0.49804,0.33008 0.1084,0.28274 0.14408,0.56596 0.0781,0.63086 -0.20598,0.2034 -1.88086,-0.78954 -1.88086,-1.11524 0,-0.2042 0.13776,-0.30402 0.30664,-0.30078 z m -59.32422,0.22266 c -4.92242,-0.001 -9.78125,0.12495 -9.78125,0.3789 0,0.61321 0.89039,0.91772 2.39844,0.82032 3.41272,-0.22041 6.1886,-0.23509 8.80078,-0.0469 1.496,0.10784 4.80737,0.2808 7.35938,0.38281 4.09408,0.16366 8.02664,0.66647 11.04101,1.41211 0.98525,0.24372 1.99553,-0.19002 1.5293,-0.65625 -0.14125,-0.14126 -1.44919,-0.33466 -2.90821,-0.42969 -1.45901,-0.095 -3.07158,-0.38838 -3.58203,-0.65234 -0.51044,-0.26396 -1.69713,-0.48047 -2.63867,-0.48047 -0.94154,0 -1.86728,-0.15439 -2.05664,-0.34375 -0.25401,-0.25399 -5.23968,-0.38352 -10.16211,-0.38476 z M 312.32031,128 c 0.33123,0 0.69006,0.14431 0.79883,0.32031 0.1157,0.1872 -0.21513,0.32031 -0.79883,0.32031 -0.58369,5e-5 -0.91647,-0.13311 -0.80078,-0.32031 0.10878,-0.176 0.46956,-0.32031 0.80078,-0.32031 z m 14.37305,0.32422 c 0.28765,-0.0212 0.72013,0.15581 0.98633,0.47656 0.33101,0.3988 0.29349,0.47852 -0.22657,0.47852 -0.66462,0 -1.05273,-0.25554 -1.05273,-0.69336 0,-0.16584 0.12038,-0.24903 0.29297,-0.26172 z m 2.46289,0.10547 c 0.0383,0.006 0.079,0.0236 0.12305,0.0508 0.176,0.10878 0.32031,0.26029 0.32031,0.33789 0,0.0776 -0.14431,0.14258 -0.32031,0.14258 -0.176,0 -0.31836,-0.15346 -0.31836,-0.33985 0,-0.1398 0.0806,-0.2107 0.19531,-0.1914 z m -240.279297,0.22265 c 0.471178,-0.003 1.007008,0.0773 1.269531,0.24414 0.284934,0.18108 0.242506,0.33658 -0.160156,0.5879 C 89.409921,129.84412 88,129.43596 88,128.91016 c 0,-0.1687 0.405775,-0.25448 0.876953,-0.25782 z m 30.742187,0.22071 c -0.56133,-0.016 -1.07668,0.14213 -1.14648,0.35156 -0.0941,0.28211 0.43972,0.32848 2.06054,0.18164 2.46827,-0.2236 3.02931,-0.43121 1.2793,-0.47461 -0.64533,-0.016 -1.63203,-0.0426 -2.19336,-0.0586 z m 190.46094,0.0879 c 0.176,0 0.32031,0.14236 0.32031,0.31836 0,0.176 -0.14431,0.32031 -0.32031,0.32031 -0.176,0 -0.32031,-0.14431 -0.32031,-0.32031 0,-0.176 0.14431,-0.31836 0.32031,-0.31836 z m 21.24023,0.12304 c 0.11663,0.004 0.19922,0.13211 0.19922,0.3379 0,0.56209 -0.19249,0.64503 -0.4668,0.20117 -0.10124,-0.16384 -0.0363,-0.38946 0.14258,-0.5 0.0447,-0.0276 0.0861,-0.0404 0.125,-0.0391 z m -17.38476,0.32422 c 0.64966,0.013 1.42382,0.23743 1.42383,0.54688 0,0.24013 -0.21452,0.4665 -0.47852,0.5039 -0.70768,0.10013 -1.98982,-0.48915 -1.78516,-0.82031 0.10567,-0.17096 0.45005,-0.23828 0.83985,-0.23047 z M 317,130.02344 c 0.31369,7.6e-4 0.71788,0.0123 1.22852,0.0332 2.53293,0.10346 2.93774,0.23034 2.58398,0.80274 -0.39523,0.63951 -4.03899,0.28005 -4.65234,-0.45899 -0.23079,-0.27808 -0.10122,-0.37923 0.83984,-0.37695 z m 17.54688,0.0332 c 0.12803,0.008 0.31935,0.13474 0.48632,0.33594 0.46163,0.55623 0.37273,0.60811 -0.30468,0.17969 -0.259,-0.16373 -0.38698,-0.38061 -0.28516,-0.48243 0.0255,-0.0255 0.0608,-0.0358 0.10352,-0.0332 z m -40.59961,0.69727 c 0.116,-0.0222 0.27712,-0.0128 0.45312,0.0332 0.352,0.0921 0.63867,0.22352 0.63867,0.29101 0,0.0675 -0.28667,0.1211 -0.63867,0.1211 -0.352,0 -0.64062,-0.12954 -0.64062,-0.28906 0,-0.0797 0.0715,-0.13401 0.1875,-0.15625 z m 36.7539,2.04687 c 0.27437,0 0.49805,0.14236 0.49805,0.31836 0,0.176 -0.13515,0.32031 -0.30078,0.32031 -0.1656,0 -0.38928,-0.14431 -0.49805,-0.32031 -0.10877,-0.176 0.0264,-0.31836 0.30078,-0.31836 z m 9.2793,2.5586 c 0.2536,0 0.55139,0.14431 0.66015,0.32031 0.10877,0.176 -0.0985,0.32031 -0.46093,0.32031 -0.36237,0 -0.66016,-0.14431 -0.66016,-0.32031 0,-0.176 0.20731,-0.32036 0.46094,-0.32031 z" id="path12" style="fill:#000000;stroke-width:0.31999999"/>
</svg>
