<?xml version="1.0" encoding="utf-8"?>
<svg xmlns="http://www.w3.org/2000/svg" version="1.1" viewBox="0 0 1173 543">
	<path d="m 951.40738,527.48701 c -0.35357,-1.40876 -0.11014,-3.14023 0.55401,-3.94049 1.18836,-1.43188 11.94835,-5.83469 17.50597,-7.16315 3.72796,-0.8911 9.96589,-6.81195 9.22124,-8.75249 -0.49044,-1.27806 4.99254,-10.8689 10.07938,-17.63088 3.61017,-4.79904 10.10547,-19.58853 13.67662,-31.14101 5.0955,-16.48364 4.6336,-19.74998 -4.40746,-31.17063 -3.68845,-4.65923 -7.43471,-10.00641 -8.32503,-11.88262 -0.89032,-1.87621 -2.58091,-4.28202 -3.75686,-5.34624 -7.53053,-6.81503 -19.05537,-37.5187 -21.00481,-55.9595 -3.30086,-31.22478 -3.45326,-46.37856 -0.57285,-56.9601 0.89233,-3.27805 1.62241,-6.6168 1.62241,-7.41943 0,-3.52582 7.74238,-22.05139 12.54613,-30.01974 4.38149,-7.26791 5.45641,-10.02044 6.43544,-16.47914 0.83951,-5.53825 1.99803,-8.97282 4.05447,-12.01988 l 2.87911,-4.26604 -1.98899,-4.02011 c -2.96648,-5.99579 -1.60538,-8.60124 5.6925,-10.8967 3.70461,-1.16524 7.52074,-3.37825 10.71014,-6.2109 2.7252,-2.42036 6.8036,-5.20306 9.0631,-6.18378 2.2594,-0.98072 5.1946,-2.95765 6.5226,-4.39318 2.2258,-2.40612 2.2899,-2.74764 0.8207,-4.37115 -1.1889,-1.31364 -1.3335,-2.22631 -0.5692,-3.59203 0.8842,-1.57991 2.1427,-1.79318 9.1793,-1.55558 7.4348,0.25104 8.7285,-0.006 14.6547,-2.91131 9.2089,-4.51472 11.7741,-4.83574 15.9764,-1.99942 2.7445,1.85234 3.6328,3.2622 4.219,6.69614 0.7857,4.60228 -0.3273,8.10235 -2.5765,8.10235 -0.8976,0 -1.2805,-1.39254 -1.2148,-4.419 0.1117,-5.14924 -3.1878,-9.581 -7.1333,-9.581 -2.7327,0 -11.2708,3.66087 -11.2708,4.83255 0,0.79828 6.927,4.16396 8.586,4.17173 1.9598,0.009 9.3243,5.72981 13.2683,10.30654 3.4469,3.99985 4.1431,5.51699 4.1304,9 -0.019,5.23705 -0.6586,6.23714 -5.2014,8.13524 -4.0946,1.71084 -4.712,2.43015 -5.4154,6.30964 -0.4879,2.69039 -6.5109,11.25376 -10.3747,14.75041 -3.5632,3.22467 -2.4574,-1.14587 1.4428,-5.70236 5.4264,-6.33955 7.064,-10.48503 7.064,-17.88217 0,-5.57064 -0.4596,-7.31746 -3,-11.40264 -4.6805,-7.5266 -9.1391,-10.58519 -16.3886,-11.24256 C 1031.5887,192.68492 1029.6558,191 1035.5,191 c 1.925,0 3.5,-0.47147 3.5,-1.04772 0,-0.65016 -2.3678,-0.93475 -6.24,-0.75 -4.8878,0.23321 -6.3089,0.65994 -6.5582,1.96933 -0.2428,1.27548 0.2287,1.55411 1.99,1.17578 2.6555,-0.57044 3.0684,-0.95146 -7.2829,6.72075 -4.4796,3.32024 -5.5047,4.59552 -5.1568,6.41531 0.4091,2.14038 0.7945,2.24237 6.6863,1.76943 5.3655,-0.43069 6.3496,-0.2478 6.9396,1.28985 0.9481,2.47077 -0.8708,4.12309 -2.7876,2.53227 -2.0651,-1.71389 -5.5138,-0.40658 -6.6229,2.51057 -1.4686,3.86273 -4.428,3.01082 -7.4491,-2.14441 -2.7615,-4.71215 -3.3866,-4.80034 -7.0184,-0.99024 -1.3493,1.41552 -10.21692,5.54908 -11.90431,5.54908 -0.74294,0 -1.9245,0.69127 -2.6257,1.53616 -1.06605,1.28451 -0.82012,2.01084 1.50126,4.43383 2.33956,2.44198 2.6735,3.4449 2.12338,6.37726 -0.63053,3.36105 0.37425,6.56574 5.01144,15.98379 1.78893,3.63327 1.75793,4.66896 -0.1398,4.66896 -0.84354,0 -2.46299,-1.575 -3.59877,-3.5 -1.13578,-1.925 -2.66904,-3.5 -3.40726,-3.5 -1.97951,0 -2.79805,-1.88804 -1.49777,-3.45478 0.78583,-0.94687 0.81012,-1.56773 0.079,-2.01957 -1.36668,-0.84465 -1.7711,0.58199 -2.38205,8.40298 -0.48418,6.1981 -0.38658,6.54424 2.72183,9.65265 2.87394,2.87394 11.32365,6.41872 15.30025,6.41872 0.7252,0 1.3185,0.49918 1.3185,1.1093 0,0.74697 -2.4375,0.98621 -7.4626,0.73246 -6.91903,-0.3494 -7.72115,-0.62749 -11.01322,-3.81829 -3.5211,-3.41279 -3.56669,-3.42514 -5.47331,-1.48246 -2.94191,2.99753 -9.58503,16.24225 -11.51548,22.95899 -0.94846,3.3 -2.08579,6.45 -2.52741,7 -1.7254,2.14885 -4.87755,22.13231 -4.49552,28.5 0.57923,9.65477 1.54299,21.96552 2.07458,26.5 2.77535,23.67392 12.98881,54.44014 20.80231,62.66317 3.29015,3.4626 16.61065,8.53604 16.61065,6.32657 0,-0.28064 -1.6118,-2.80339 -3.5818,-5.60612 -1.97002,-2.80273 -4.20429,-6.86011 -4.96508,-9.0164 -1.95489,-5.54076 -4.40874,-17.90051 -4.96361,-25.00112 -0.25904,-3.31488 -0.72567,-6.43915 -1.03695,-6.94282 -0.31129,-0.50367 -0.71998,-1.70495 -0.9082,-2.66952 -0.18823,-0.96457 -1.09955,-4.45376 -2.02517,-7.75376 -0.92562,-3.3 -2.0688,-8.13628 -2.54039,-10.74729 -0.4716,-2.61102 -1.17588,-5.26253 -1.56508,-5.89226 -0.80467,-1.30198 -0.78884,-33.0889 0.0178,-35.67181 0.29004,-0.92875 1.17849,-7.93303 1.97435,-15.56507 1.3424,-12.87335 2.50745,-17.04359 4.26927,-15.28177 0.38966,0.38966 0.15379,2.2424 -0.52415,4.11721 -2.01388,5.56929 -4.24776,35.76788 -3.70167,50.04099 0.4817,12.5905 1.1175,16.09267 6.44485,35.5 1.13232,4.125 2.06936,8.89716 2.0823,10.60479 0.0349,4.6058 4.38535,21.08734 7.24713,27.45583 1.7665,3.93098 4.2979,7.1254 8.6376,10.89996 6.0556,5.26703 7.6327,8.03942 4.5731,8.03942 -0.8612,0 -2.5444,-0.52372 -3.7404,-1.16382 -1.196,-0.64011 -5.2165,-1.68051 -8.9343,-2.31202 -8.00901,-1.36041 -8.35507,-0.80304 -3.50959,5.65269 6.86779,9.15014 8.93919,12.8151 9.46699,16.75007 0.3005,2.24019 0.8,4.07308 1.11,4.07308 1.0113,0 6.1719,-5.34585 6.214,-6.43709 0.061,-1.57408 7.5776,-9.611 8.3069,-8.88166 0.7332,0.73321 -2.1688,5.78911 -7.3579,12.81875 -4.7093,6.37978 -6.7452,10.87617 -12.4515,27.5 -2.5488,7.425 -6.18757,16.11975 -8.08628,19.32167 -1.89872,3.20192 -3.45221,5.98598 -3.45221,6.18679 0,0.20082 -1.99274,3.27582 -4.42832,6.83335 -2.43557,3.55752 -4.26255,6.63399 -4.05995,6.83659 0.28352,0.28351 18.01886,0.18601 21.70096,-0.1193 0.7227,-0.0599 8.7873,-11.50858 8.7873,-12.4746 0,-0.28887 1.1007,-2.93166 2.4461,-5.87285 1.3453,-2.94118 3.3549,-8.62733 4.4657,-12.63588 2.1954,-7.9223 2.5406,-8.52501 8.4909,-14.82577 2.2076,-2.3375 3.6874,-4.25 3.2887,-4.25 -2.1901,0 5.4942,-11.18018 12.8279,-18.66405 4.6644,-4.75982 8.4807,-9.07606 8.4807,-9.59164 0,-0.51557 1.6925,-2.86021 3.7611,-5.2103 2.0687,-2.35008 4.2563,-5.34414 4.8614,-6.65345 5.303,-11.47377 5.7517,-15.29733 1.996,-17.00853 -2.462,-1.12175 -2.2108,-1.24901 -16.5231,8.37284 -3.6033,2.42246 -19.4903,7.45456 -25.9446,8.21779 -9.132,1.07986 -5.6221,-1.6507 5.9289,-4.61241 5.7311,-1.4695 11.9953,-3.39514 13.9203,-4.27919 5.0954,-2.34004 15.3028,-8.90595 15.6565,-10.07106 0.167,-0.55 -1.7998,-2.35 -4.3705,-4 -6.7444,-4.32879 -20.184,-24.90684 -23.7625,-36.38393 -0.4088,-1.31117 -2.2916,-5.02565 -4.1839,-8.2544 -3.5552,-6.06606 -6.6525,-16.28375 -7.8394,-25.86167 -0.3749,-3.025 -1.7915,-7.88888 -3.1479,-10.80862 -2.8894,-6.2192 -5.531,-25.57946 -4.3362,-31.77932 0.4146,-2.15163 0.836,-3.46206 0.9364,-2.91206 0.2661,1.45817 0.8199,6.22854 1.4512,12.5 0.985,9.78492 2.3718,16.38303 4.624,22 2.3478,5.85548 5.9408,19.30114 5.9605,22.30486 0.011,1.72698 2.9119,9.10965 5.1382,13.0778 0.5809,1.03546 3.2881,6.21046 6.016,11.5 12.8363,24.89066 18.0018,31.64344 26.8576,35.1101 1.925,0.75356 5.8535,2.67633 8.73,4.27283 4.7748,2.65011 5.5447,2.79885 8.8466,1.70911 7.8773,-2.59974 14.979,-7.90586 15.739,-11.75955 0.6797,-3.44651 -2.864,-10.81627 -6.4921,-13.5016 -6.7621,-5.00491 -13.4285,-18.6774 -16.7537,-34.36073 -1.4106,-6.65297 -3.6453,-12.97248 -7.0057,-19.81104 -2.7139,-5.52298 -6.7837,-14.09178 -9.044,-19.04178 -4.1002,-8.97938 -7.6606,-14.99531 -11.3905,-19.24606 -1.0839,-1.23533 -1.6779,-2.53898 -1.3199,-2.89701 0.9952,-0.9952 10.6391,-4.3692 15.6903,-5.48941 18.8006,-4.16937 23.4365,-5.44731 30.5,-8.40757 4.4,-1.84401 12.95,-5.29982 19,-7.67956 l 11,-4.32681 0.3011,-4.63659 c 0.166,-2.55662 -0.3718,-6.24715 -1.199,-8.22679 -1.3155,-3.14847 -1.9297,-3.5902 -4.9921,-3.5902 -1.9206,0 -3.7701,0.45 -4.11,1 -0.3399,0.55 -1.829,1.01595 -3.309,1.03544 -1.4801,0.0195 -3.816,0.67854 -5.191,1.46456 -1.375,0.78602 -3.6424,1.44508 -5.0386,1.46456 -1.3962,0.0195 -4.2754,0.92097 -6.3983,2.00328 -3.3688,1.71751 -15.2315,6.06776 -18.0631,6.62405 -0.55,0.10805 -3.475,1.18676 -6.5,2.39714 -3.025,1.21038 -6.7167,2.35899 -8.2037,2.55247 -1.4871,0.19348 -3.7371,1.0175 -5,1.83116 -1.263,0.81366 -4.0963,1.79639 -6.2963,2.18384 -2.2,0.38744 -5.575,1.44189 -7.5,2.34321 -4.1854,1.95971 -11,2.70061 -11,1.19596 0,-0.58166 1.2375,-1.33086 2.75,-1.66489 1.5125,-0.33403 5.45,-1.46685 8.75,-2.51739 3.3,-1.05053 6.325,-1.94504 6.7222,-1.98778 0.3972,-0.0428 3.0972,-0.98434 6,-2.09242 2.9028,-1.10809 7.0778,-2.5935 9.2778,-3.30093 2.2,-0.70742 6.475,-2.50389 9.5,-3.99215 3.025,-1.48826 6.8046,-2.93122 8.3991,-3.20657 1.5945,-0.27534 5.1945,-1.56846 8,-2.87359 2.8055,-1.30512 8.2509,-3.07118 12.1009,-3.92457 10.9779,-2.43334 11.5,-2.87024 11.5,-9.62257 0,-10.00959 -1.1763,-10.82277 -8.1062,-5.60375 -2.4166,1.81999 -5.9688,3.92356 -7.8938,4.6746 -1.925,0.75104 -4.625,2.0964 -6,2.98969 -3.5756,2.32293 -7.2857,3.84861 -17.5,7.1963 -4.95,1.62235 -12.5017,4.72287 -16.7816,6.89004 -4.2798,2.16717 -8.0081,3.94031 -8.2851,3.94031 -0.277,0 -0.022,-0.9 0.5667,-2 0.5887,-1.1 1.6344,-2 2.3237,-2 0.6894,0 3.0361,-0.92395 5.2149,-2.05323 2.1788,-1.12928 8.2364,-3.88442 13.4614,-6.12255 5.225,-2.23812 17.1614,-7.95167 26.5254,-12.69677 18.5853,-9.41785 28.4353,-13.89987 31.9467,-14.53662 1.247,-0.22612 3.1521,-0.96368 4.2335,-1.63903 2.8864,-1.80262 7.4453,9.2e-4 8.5759,3.39274 1.3085,3.92538 -1.1687,7.12511 -7.0209,9.06891 -2.6483,0.87963 -6.4325,2.69835 -8.4093,4.04161 -1.9768,1.34326 -4.8129,2.74817 -6.3024,3.12203 -2.5474,0.63936 -4.8493,4.01398 -3.8711,5.67508 0.664,1.12762 8.0451,-0.26988 14.837,-2.80919 3.3082,-1.23682 7.3582,-2.49397 9,-2.79365 1.6419,-0.29969 4.5811,-0.8374 6.5316,-1.19491 2.6097,-0.47834 3.893,-0.23239 4.8587,0.93121 1.1298,1.36132 0.9147,1.73095 -1.5464,2.65782 -12.3555,4.65315 -21.0852,8.38826 -22.2992,9.54107 -1.7202,1.63354 -0.6647,3.14892 1.1663,1.67443 1.4275,-1.14948 20.2904,-7.25895 22.412,-7.25895 0.7492,0 1.3622,0.675 1.3622,1.5 0,0.825 -0.8637,1.5 -1.9192,1.5 -3.179,0 -14.442,3.14377 -16.5533,4.62042 -1.0849,0.75877 -2.7458,1.37958 -3.691,1.37958 -1.802,0 -3.4258,1.74403 -2.4926,2.67723 0.5081,0.5081 7.8943,-1.65905 17.1535,-5.03291 2.1985,-0.80112 4.3164,-1.25941 4.7063,-1.01842 1.3931,0.86098 -0.3939,3.20503 -2.9284,3.84113 -1.4189,0.35614 -3.8489,2.006 -5.3999,3.66637 -1.551,1.66037 -3.2817,2.73352 -3.846,2.38479 -0.5642,-0.34873 -2.0268,0.067 -3.2502,0.92388 -1.2233,0.85686 -3.4495,1.55793 -4.9471,1.55793 -1.9853,0 -3.0789,0.74499 -4.0369,2.75 -0.8082,1.69162 -2.2725,2.88131 -3.8046,3.09118 -1.3698,0.18764 -3.2249,0.99672 -4.1223,1.79795 -0.8975,0.80122 -3.3725,1.90641 -5.5,2.45597 -2.1276,0.54956 -4.7683,1.37087 -5.8683,1.82514 -19.3292,7.98231 -25.6131,9.79659 -43.5,12.5592 -3.2329,0.49932 -10,3.35115 -10,4.21426 0,0.6145 5.0195,8.78793 10.6611,17.36005 1.2864,1.95456 2.3389,4.07873 2.3389,4.72037 0,1.76322 5.0145,12.48165 6.7753,14.48201 0.8502,0.96587 1.2524,2.04947 0.8939,2.40799 -0.3585,0.35852 -0.2703,1.14327 0.1961,1.74387 1.4509,1.86853 5.9825,14.84326 7.0174,20.09201 3.0538,15.48824 6.7884,23.53847 13.8131,29.77485 10.3734,9.20928 11.298,22.82676 1.9187,28.25731 -1.713,0.99178 -4.3865,2.85278 -5.9412,4.13554 -2.0031,1.65275 -4.0947,2.3323 -7.1786,2.3323 -5.1295,0 -6.9981,1.53914 -7.9356,6.53642 -0.6345,3.38268 -8.8789,17.59161 -10.5976,18.26485 -0.423,0.1657 -3.9467,3.8204 -7.8304,8.12155 l -7.0613,7.82029 0.9691,6.37844 c 1.0982,7.22819 3.6921,16.40333 5.4785,19.37845 0.6605,1.1 1.7526,5.375 2.4269,9.5 0.6744,4.125 1.6429,9.525 2.1523,12 0.5094,2.475 0.6474,6.075 0.3066,8 -1.0265,5.79935 -0.5562,9.32976 1.5962,11.98198 1.1239,1.38491 2.5278,3.75552 3.1199,5.26802 1.2881,3.29098 3.2305,3.42366 18.3807,1.25555 20.0855,-2.87441 25.1165,-3.60888 31,-4.52566 17.2694,-2.69097 24.4338,-2.86328 36.4217,-0.87599 7.858,1.30265 8.485,1.58676 9.3661,4.24431 0.7303,2.20255 0.5804,3.21216 -0.6611,4.45367 -1.4133,1.41328 -2.714,1.46988 -10.8661,0.47285 -8.8589,-1.08347 -58.1993,-0.99492 -67.2606,0.12072 -6.372,0.78452 -16.736,1.89939 -20,2.15144 -1.65,0.1274 -7.05,0.75814 -12,1.40164 -4.95,0.64349 -10.575,1.37433 -12.5,1.62409 -1.925,0.24976 -5.5527,0.81388 -8.0615,1.2536 -5.6622,0.99242 -6.9426,0.59303 -6.9232,-2.15955 0.022,-3.10913 0.883,-4.09054 6.4544,-7.3572 6.2455,-3.6619 7.1208,-6.74089 4.4428,-15.62773 -1.0246,-3.39996 -2.2782,-7.08174 -2.7857,-8.18174 -3.2339,-7.00845 -4.2239,-9.75074 -4.0703,-11.27476 0.6062,-6.01707 -1.7019,-2.11702 -6.6487,11.23452 -1.2409,3.34934 -5.1081,9.21343 -9.424,14.29024 -0.5845,0.6875 -1.9449,1.25 -3.0232,1.25 -2.1942,0 -2.295,0.38686 -1.9979,7.66323 0.2533,6.20331 -2.10571,9.28607 -7.21269,9.4255 -5.1726,0.14121 -13.57299,0.84894 -22.75,1.91667 -4.675,0.54393 -10.85393,0.99023 -13.73095,0.99178 -4.75394,0.003 -5.28846,-0.22634 -5.86167,-2.51017 z m 43.40906,-14.01073 c 1.5063,-0.35617 2.20226,-1.14728 1.98996,-2.26201 -0.25783,-1.35376 -1.58617,-1.77118 -6.31644,-1.98488 -5.04132,-0.22775 -6.45103,0.10237 -8.90127,2.08449 -4.23016,3.42198 -2.80215,4.51524 4.62141,3.53807 3.45944,-0.45537 7.3323,-1.07442 8.60634,-1.37567 z m 51.07446,0.56359 c 6.484,-2.36996 6.4626,-2.3507 5.604,-5.05593 -0.5275,-1.66207 -1.1893,-2.0132 -2.8413,-1.50744 -1.1845,0.36263 -3.9536,1.10621 -6.1536,1.65239 -4.1933,1.04105 -8.8134,4.55505 -7.9102,6.01647 0.8827,1.42817 5.6434,0.96247 11.3011,-1.10549 z M 1043.5,503.73218 c 6.5972,-2.33815 7.6054,-3.58929 7.3531,-9.1253 -0.1279,-2.80878 -0.859,-7.58188 -1.6245,-10.60688 -0.7655,-3.025 -2.2099,-9.1 -3.2099,-13.5 -0.9999,-4.4 -2.3285,-10.025 -2.9526,-12.5 -0.624,-2.475 -1.2839,-5.52724 -1.4664,-6.78275 -0.1825,-1.25551 -0.6144,-2.56525 -0.9597,-2.91053 -1.0525,-1.05255 -4.489,2.72915 -5.1293,5.64466 -0.3315,1.5092 -2.8454,5.39642 -5.5865,8.63828 l -4.9838,5.89429 0.6706,6.50803 c 0.3689,3.57941 0.6504,7.59393 0.6255,8.92115 -0.025,1.32722 1.4867,4.64022 3.3591,7.36221 1.8724,2.722 3.4061,5.68609 3.4081,6.58687 0,0.90079 0.9205,3.14138 2.0409,4.97911 1.4972,2.45575 2.4901,3.15749 3.7462,2.64772 0.9401,-0.38148 3.0592,-1.17207 4.7092,-1.75686 z m 81.0275,-270.09874 c 1.0849,-0.7516 4.785,-2.3869 8.2225,-3.63399 3.4375,-1.24709 6.25,-2.65714 6.25,-3.13344 0,-1.15241 0.3315,-1.21733 -8.4926,1.66315 -8.915,2.91016 -11.5074,4.15056 -11.5074,5.50602 0,1.41292 3.249,1.17678 5.5275,-0.40174 z m 4.2225,-19.37193 c 1.7875,-0.89756 3.25,-2.02341 3.25,-2.50188 0,-1.34312 -12.3207,5.54938 -12.8377,7.18172 -0.3144,0.99263 0.6011,0.74255 2.9406,-0.80328 1.8684,-1.23454 4.8596,-2.979 6.6471,-3.87656 z m -6.0839,-0.83255 c 4.0336,-2.51407 7.3339,-4.94124 7.3339,-5.3937 0,-1.47144 -8.3437,1.00685 -12.9798,3.85534 -4.7158,2.89744 -6.5178,6.1094 -3.4275,6.1094 0.9567,0 5.0397,-2.05697 9.0734,-4.57104 z m -56.7073,1.14809 c 1.8121,-3.38602 0.6347,-7.01825 -3.8248,-11.79908 -4.7655,-5.10889 -6.7067,-4.7672 -4.102,0.72203 1.044,2.2 2.1968,6.1375 2.5619,8.75 0.7565,5.41399 3.1558,6.45468 5.3649,2.32705 z M 828,517.18332 c 0,-2.24433 0.79039,-3.60994 3,-5.18332 4.01615,-2.85975 3.90951,-4.87304 -0.25,-4.71998 -9.27765,0.34138 -12.04364,-3.38944 -11.0754,-14.93868 0.44183,-5.2701 0.20059,-7.68201 -1.00068,-10.00503 -1.30518,-2.52393 -1.66823,-8.34794 -2.06947,-33.19876 -0.26763,-16.57582 -0.70672,-30.49401 -0.97574,-30.9293 -0.26903,-0.43529 -0.78928,-7.74772 -1.15613,-16.24984 -1.31795,-30.54503 -0.99847,-32.67627 6.72624,-44.87087 3.78338,-5.97261 4.2111,-7.30798 4.58204,-14.30537 0.30257,-5.70778 -0.0497,-8.96332 -1.35258,-12.5 C 822.56605,325.22713 819.41536,321 817.50983,321 c -0.62785,0 -2.13692,-1.77103 -3.35349,-3.93562 -1.21657,-2.1646 -3.77129,-4.89935 -5.67715,-6.07724 -1.90586,-1.17789 -6.22205,-5.24356 -9.59153,-9.03484 -3.36949,-3.79127 -8.49891,-8.72365 -11.39873,-10.96084 -6.04664,-4.66495 -12.95469,-14.33017 -13.92002,-19.47585 -0.92362,-4.92328 -3.60562,-6.18445 -15.81891,-7.43859 C 757.3375,264.03466 757,263.1 757,262 c 0,-1.3481 0.66667,-2 2.04531,-2 1.81627,0 1.97006,-0.41994 1.37334,-3.75 -0.36958,-2.0625 -1.23675,-4.425 -1.92703,-5.25 -1.83188,-2.18939 -2.56819,-5.30547 -1.61291,-6.82583 0.45818,-0.7292 2.5854,-1.55884 4.72717,-1.84364 3.3347,-0.44343 4.48656,-0.0375 8.01811,2.82583 2.26819,1.839 5.57186,5.02494 7.34149,7.07986 2.69081,3.12461 3.53331,3.56721 5.14668,2.70375 2.5863,-1.38414 4.17756,-0.23045 3.48547,2.52705 -0.40254,1.60386 0.603,3.91537 3.50609,8.05967 5.13354,7.32837 21.7586,25.29484 24.09141,26.03524 0.96492,0.30625 3.21269,2.1029 4.99506,3.99255 3.25721,3.45327 9.13249,5.52284 10.83772,3.81761 0.48319,-0.48319 0.60786,-3.50105 0.27704,-6.70636 -0.56603,-5.48426 -0.8433,-5.98176 -4.70322,-8.43869 -2.25595,-1.43596 -6.19144,-3.6275 -8.74553,-4.87008 -4.36546,-2.12381 -4.82999,-2.74679 -7.75,-10.39353 C 806.16705,263.88532 805,258.99586 805,255.94975 c 0,-4.03831 -0.38784,-5.08597 -2.25,-6.07791 -1.2375,-0.65919 -2.81309,-1.91252 -3.50131,-2.78518 -1.83404,-2.32557 -1.19658,-8.22999 1.18297,-10.95718 2.43946,-2.79587 9.66561,-6.12948 13.28665,-6.12948 1.40388,0 7.03902,-1.8 12.52255,-4 8.4758,-3.4005 11.07246,-4 17.32564,-4 6.22291,0 7.66189,0.32877 9.34469,2.13504 7.32728,7.86492 6.62241,20.49295 -1.67113,29.93877 -3.26913,3.72333 -2.97741,1.54394 -3.60423,26.92619 -0.13378,5.41698 -0.0906,5.50421 2.86417,5.77923 1.65,0.15358 4.92349,0.98249 7.27442,1.84203 4.16507,1.52283 4.40738,1.49329 9.47134,-1.15458 5.82632,-3.0465 15.4784,-10.59818 17.6874,-13.83842 1.74577,-2.56078 3.13126,-3.59244 4.85202,-3.61295 2.42154,-0.0288 -0.60746,3.73795 -8.05202,10.01333 -9.02057,7.60388 -16.72645,12.08067 -20.97119,12.18337 -3.68327,0.0891 -4.72455,1.15267 -4.74666,4.84815 -0.0183,3.0542 -5.04492,8.53143 -9.44373,10.29023 -1.68937,0.67547 -5.68937,1.35043 -8.8889,1.49991 -5.04081,0.23551 -6.45407,-0.13681 -10.58755,-2.78925 C 824.47151,304.37747 821.96065,303 821.51544,303 c -0.4452,0 -2.6558,-1.49643 -4.91245,-3.3254 -2.25664,-1.82897 -5.45299,-4.1112 -7.10299,-5.07163 -1.65,-0.96043 -5.025,-4.43329 -7.5,-7.71746 -2.475,-3.28417 -5.50428,-6.63192 -6.73174,-7.43945 C 792.72296,277.77153 783,264.31403 783,262.46562 c 0,-0.6714 -0.61529,-1.73138 -1.36732,-2.35551 -1.84913,-1.53463 -3.92726,0.81031 -2.59079,2.92343 1.35794,2.14706 1.1591,3.96646 -0.43348,3.96646 -1.87017,0 -2.91456,-4.55944 -1.60492,-7.00652 0.90601,-1.69289 0.13956,-2.86886 -5.52657,-8.47948 -3.61815,-3.5827 -7.45561,-6.514 -8.52769,-6.514 -2.64034,0 -2.48016,0.62882 1.30077,5.10656 5.95644,7.05418 8.75,10.66178 8.75,11.29974 0,0.34749 -1.2375,0.34013 -2.75,-0.0164 -3.38492,-0.7978 -2.24111,0.60509 2.72194,3.33846 2.45903,1.3543 4.35534,3.70258 6.5,8.04921 3.20413,6.49391 8.42685,12.54573 15.02806,17.41375 2.2,1.62238 7.21697,6.56273 11.14881,10.97857 3.93185,4.41583 8.52251,8.86417 10.20146,9.88521 1.67895,1.02103 3.76203,3.22823 4.62907,4.9049 0.86704,1.67667 3.41903,4.26786 5.67108,5.7582 7.5075,4.96823 18.94096,2.99689 31.92591,-5.5046 C 860.23435,314.80074 862,313.27467 862,312.82237 862,312.37007 860.2,312 858,312 c -8.06527,0 -3.6753,-2.61931 7.5,-4.47493 2.2,-0.3653 5.8,-2.06814 8,-3.78409 12.62121,-9.84424 25.74402,-21.51132 27.95756,-24.85622 1.39992,-2.11542 4.59895,-5.7392 7.10896,-8.05284 6.15194,-5.67066 6.84049,-7.14416 5.00082,-10.70171 -0.82136,-1.58831 -2.08144,-3.11351 -2.80019,-3.38932 -0.71875,-0.27581 -3.93681,1.50824 -7.15124,3.96456 -3.63957,2.7812 -6.19836,4.1121 -6.78261,3.52785 -0.58425,-0.58425 0.93027,-2.36309 4.01456,-4.7152 2.72401,-2.07736 5.49294,-4.78637 6.15317,-6.02003 0.66024,-1.23366 2.95449,-3.22885 5.09835,-4.43377 2.14386,-1.20492 4.36437,-3.0623 4.93446,-4.12753 1.01433,-1.89529 3.96616,-2.73173 3.96616,-1.12386 0,0.4471 -1.35,2.10629 -3,3.68709 -3.29561,3.1574 -4.09337,8.62247 -1.73038,11.85405 1.17574,1.60792 1.46491,1.52961 3.9104,-1.05887 3.58779,-3.79757 7.16312,-10.95859 6.42792,-12.87448 -0.42531,-1.10836 -0.0905,-1.46872 1.14557,-1.23313 5.54429,1.05668 0.20886,10.4761 -14.36876,25.36728 -2.8134,2.8739 -6.38182,6.96225 -7.92983,9.08521 -2.98711,4.09656 -14.46428,15.34071 -15.67094,15.35278 -0.39381,0.004 -4.66881,3.3172 -9.5,7.36281 -4.83119,4.04561 -10.18768,8.07676 -11.90332,8.95811 -2.55886,1.31454 -3.03057,2.06676 -2.62535,4.18654 0.48248,2.52396 0.54341,2.54239 2.61933,0.79189 C 869.54359,314.30648 870.725,313.275 871,313 c 2.71223,-2.71223 12.90533,-5.97426 18.71482,-5.98918 3.24369,-0.008 4.4697,0.46544 5.32107,2.05624 1.54156,2.88043 -0.71233,6.03372 -7.56485,10.58353 -3.00907,1.99791 -5.47104,4.01272 -5.47104,4.47735 0,0.46462 2.70369,0.77026 6.0082,0.67918 5.11386,-0.14094 6.41633,0.20174 8.75,2.30213 2.47653,2.22897 3.32231,2.4098 8.7418,1.86907 3.3,-0.32925 11.77285,-0.51556 18.82856,-0.414 l 12.82857,0.18465 1.42143,2.73982 c 0.78179,1.5069 1.42144,2.88516 1.42144,3.06278 0,0.17763 -4.67432,0.29332 -10.38738,0.25708 -5.71307,-0.0362 -10.83473,0.21059 -11.38148,0.5485 -0.54676,0.33791 -4.80982,0.66803 -9.47347,0.7336 -11.24688,0.15813 -12.54347,1.21778 -4.08752,3.34054 3.75642,0.94301 8.17985,2.31793 9.82985,3.05539 5.79943,2.59202 10.06908,3.43432 17.36938,3.42657 8.10754,-0.009 9.07515,0.36413 7.48845,2.88471 -1.52517,2.42284 -23.43697,3.03543 -26.92096,0.75263 -2.89601,-1.89754 -19.41806,-6.40718 -29.7209,-8.11223 -4.59146,-0.75986 -9.58622,-2.34436 -12.17807,-3.86328 C 865.47478,334.6079 865,334.50495 865,336.37432 c 0,1.76608 6.38291,17.72611 9.50233,23.75992 1.31772,2.54883 2.18222,4.84788 1.9211,5.109 -0.26112,0.26112 1.82628,2.90071 4.63866,5.86576 5.22456,5.50817 10.93791,14.83438 10.93791,17.85456 0,0.92511 1.35,4.46893 3,7.87516 1.65,3.40623 3,6.80956 3,7.56297 0,0.75341 1.94852,5.13374 4.33005,9.73407 2.38153,4.60033 5.04346,10.38924 5.9154,12.86424 3.13378,8.89515 8.75455,27.65269 8.75455,29.21552 0,0.87739 1.575,3.48041 3.5,5.78448 1.925,2.30407 3.5,4.60156 3.5,5.10551 0,0.50396 0.84826,2.82388 1.88502,5.15539 1.03677,2.3315 2.88335,6.9391 4.10353,10.2391 3.32376,8.98922 5.17768,12.34399 8.7508,15.83505 1.78165,1.74072 3.24415,3.95245 3.25,4.91495 0.0123,2.01662 -0.60097,2.11921 -4.59013,0.76789 -3.69425,-1.25142 -15.00566,-1.87916 -16.55926,-0.91898 -0.8747,0.54059 -0.74949,1.39022 0.48178,3.26938 l 1.6636,2.53898 16.25733,-0.0352 C 959.60459,508.82795 959,508.79151 959,510.06286 c 0,0.58457 -0.7875,0.98275 -1.75,0.88484 -3.17919,-0.32339 -5.25,0.0398 -5.25,0.92077 0,0.47765 2.56494,0.9276 5.69987,0.99987 3.13493,0.0723 6.14993,0.58146 6.7,1.13153 1.24511,1.24511 4.96374,1.08661 -37.89987,1.61543 -61.0077,0.75266 -68.83452,0.93007 -74,1.67742 -2.75,0.39787 -6.8,0.91243 -9,1.14345 -2.2,0.23102 -6.5875,0.72924 -9.75,1.10716 l -5.75,0.68712 z m 62.52395,-7.79069 C 893.52467,508.30219 898,504.99079 898,503.86094 c 0,-0.9198 -11.90715,-0.64081 -22,0.51548 -1.925,0.22053 -5.6375,0.45106 -8.25,0.51228 -5.35808,0.12555 -6.29812,1.86948 -2.5,4.6379 1.87089,1.36369 4.02321,1.55106 12.77395,1.11207 5.78817,-0.29037 11.41317,-0.85109 12.5,-1.24604 z M 858.5,508.10899 c 0,-2.22381 -3.2026,-3.78635 -5.19048,-2.53243 -2.43285,1.5346 -2.70318,3.17937 -0.61486,3.74102 3.05971,0.82292 5.80534,0.25131 5.80534,-1.20859 z M 913.5,505 c 0,-1.04002 -1.07328,-1.51223 -3.5,-1.53987 -4.22114,-0.0481 -6.79304,1.40616 -4.79733,2.71259 C 907.3455,507.57547 913.5,506.70561 913.5,505 Z m -61.64434,-4.45682 c 6.29381,-1.62446 22.40448,-2.41861 56.64434,-2.79222 21.75742,-0.2374 22.98287,-0.35097 22.68293,-2.10213 -0.50664,-2.95796 -9.19567,-20.4677 -14.21669,-28.64883 -6.59464,-10.74515 -6.62162,-10.80148 -8.8594,-18.5 -6.17036,-21.2276 -9.28785,-30.3629 -11.43213,-33.5 -1.31578,-1.925 -2.70478,-4.49231 -3.08666,-5.70512 -0.38189,-1.21282 -2.40677,-5.71282 -4.49975,-10 -2.09298,-4.28719 -4.84064,-10.63832 -6.10592,-14.11364 -1.32129,-3.62917 -4.05713,-8.31135 -6.4274,-11 -5.76343,-6.53762 -7.06589,-8.8148 -11.69533,-20.44791 -3.09189,-7.76946 -4.19811,-12.09929 -4.59451,-17.98333 -0.32134,-4.76983 -0.95338,-7.74155 -1.64363,-7.72804 -0.61683,0.0121 -3.03144,0.88893 -5.36581,1.94856 -6.52526,2.96198 -15.54888,4.47153 -19.1744,3.20767 -1.6704,-0.58231 -3.21373,-0.74812 -3.42963,-0.36846 -0.21589,0.37965 -0.4117,3.16527 -0.43512,6.19027 -0.0556,7.1769 -2.41135,13.84337 -7.55309,21.37405 -3.78204,5.53925 -4.18856,6.74044 -4.43743,13.11192 -0.15069,3.85771 -0.29534,7.46403 -0.32144,8.01403 -0.0261,0.55 0.70541,8.425 1.62561,17.5 0.92019,9.075 1.67867,17.175 1.6855,18 0.007,0.825 0.43756,6.45 0.95716,12.5 0.51961,6.05 0.93702,19.87738 0.92757,30.72751 -0.0137,15.74573 0.30159,20.48895 1.56211,23.5 0.94784,2.26415 1.52548,6.30077 1.44473,10.09593 -0.074,3.47789 0.12316,6.74039 0.43812,7.25 0.90277,1.46072 19.07109,1.08009 25.31027,-0.53026 z m 69.55119,-152.39247 c 0.70454,-1.13996 -6.78616,-4.58883 -11.90685,-5.48215 -6.38794,-1.11441 -9.5854,-1.99773 -10.07006,-2.78192 C 899.12855,339.39899 897.24352,339 895.24098,339 c -3.76615,0 -3.57287,1.59336 0.28041,2.31156 7.37989,1.37553 10.10187,2.0386 10.97861,2.6744 0.55,0.39885 1.9,0.98559 3,1.30388 1.1,0.31829 3.8,1.26353 6,2.10054 4.75143,1.80772 5.22209,1.86831 5.90685,0.76033 z M 889.5,338 c -0.33992,-0.55 -1.04148,-1 -1.55902,-1 -0.51754,0 -0.94098,0.45 -0.94098,1 0,0.55 0.70156,1 1.55902,1 0.85746,0 1.2809,-0.45 0.94098,-1 z m 1.23762,-5.41645 c 1.78069,-1.14595 3.24319,-2.41248 3.25,-2.8145 0.0209,-1.23242 -5.74856,-2.15239 -11.48762,-1.83175 l -3,0.1676 2.25,1.56952 c 1.2375,0.86324 2.25,1.96464 2.25,2.44755 0,1.17194 -4.24269,1.11646 -7.4349,-0.0972 -2.68821,-1.02205 -3.45365,5.9e-4 -1.3151,1.75699 3.16255,2.59741 10.46789,2.03224 15.48762,-1.19819 z m 35.01238,0.40589 c 3.9875,-0.0836 7.25,-0.59355 7.25,-1.13333 0,-1.50606 -34.74599,-0.51306 -36.28171,1.03689 -0.96344,0.97237 1.18739,1.12695 10.28171,0.73897 6.325,-0.26984 14.7625,-0.55898 18.75,-0.64253 z M 867,330.5 c 0,-0.825 -0.7301,-1.5 -1.62244,-1.5 -1.3288,0 -1.39713,0.27149 -0.37756,1.5 0.68469,0.825 1.41479,1.5 1.62244,1.5 C 866.8301,332 867,331.325 867,330.5 Z m -21,-0.97252 c 1.925,-0.59132 5.075,-1.94072 7,-2.99866 1.925,-1.05794 4.175,-1.94722 5,-1.97617 0.84093,-0.0295 1.62169,-1.15109 1.77695,-2.55265 0.23962,-2.16302 0.13183,-2.26411 -0.79969,-0.75 -0.59215,0.9625 -1.97221,1.75 -3.06679,1.75 -1.09458,0 -3.65972,0.84607 -5.70031,1.88016 -4.01699,2.03566 -11.06689,3.57778 -15.46016,3.38182 -2.69822,-0.12035 -3.46556,0.68913 -2.02184,2.13285 0.98201,0.98201 8.94573,0.46156 13.27184,-0.86735 z m 34.57534,-7.60675 C 886.75549,318.42884 891,314.62029 891,312.5668 c 0,-2.23478 -4.72894,-3.05411 -9.79973,-1.69788 C 876.75141,312.05881 865,320.23596 865,322.14178 c 0,0.56369 0.3375,0.85154 0.75,0.63967 7.69347,-3.95156 16.56098,-7.8038 16.98579,-7.379 1.04935,1.04936 -1.67019,3.19846 -7.68581,6.07366 -3.32749,1.5904 -6.04998,3.29464 -6.04998,3.78721 0,1.48951 6.18346,-0.29608 11.57534,-3.34259 z m -32.70083,-18.82345 c 2.47649,-2.02521 3.29981,-3.61256 3.738,-7.20681 0.4585,-3.76082 0.24639,-4.73064 -1.15202,-5.26726 C 847.91917,289.64802 846,291.79898 846,295.62244 846,297.4801 845.60008,299 845.11129,299 c -1.20625,0 -2.22828,-5.91357 -1.55544,-9 0.29975,-1.375 0.81179,-6.8703 1.13788,-12.21178 0.56541,-9.26171 0.4588,-9.991 -2.30042,-15.73686 -1.59132,-3.31379 -3.43475,-6.03099 -4.09652,-6.03822 -0.66176,-0.007 -2.05143,-1.93069 -3.08814,-4.27436 -2.81986,-6.37477 -7.42756,-10.4991 -12.59535,-11.27406 -6.00512,-0.90052 -9.77578,1.2221 -12.51216,7.0435 -2.39528,5.09575 -2.10651,6.49178 1.34287,6.49178 2.76708,0 4.9884,3.06777 5.94231,8.20667 0.39993,2.15449 1.71936,4.51789 3.15086,5.64392 3.18963,2.50896 3.10529,3.14941 -0.41474,3.14941 -3.59045,0 -4.70719,-1.35361 -5.60461,-6.79341 -0.58351,-3.53699 -0.95579,-4.08801 -2.11306,-3.12755 -1.8077,1.50025 -1.79199,5.74997 0.0375,10.12844 2.36326,5.65607 3.67126,6.25394 10.50799,4.80309 6.30939,-1.33895 13.42975,-0.65046 12.80037,1.23769 -0.23693,0.71078 -2.49865,1.03531 -6.06421,0.87014 -6.02884,-0.27927 -6.8891,0.48317 -3.75026,3.32378 C 829.82232,284.95915 839,282.78332 839,278.34501 839,277.60526 839.45,277 840,277 c 1.40495,0 1.24607,3.30594 -0.25,5.20169 -0.6875,0.87117 -2.54417,2.23694 -4.12593,3.03505 -2.75545,1.39032 -2.88113,1.75937 -3,8.80935 -0.11729,6.9563 -0.25906,7.39024 -2.59535,7.94437 l -2.47128,0.58615 2.47128,1.7462 c 3.93656,2.78155 13.77173,2.10614 17.84579,-1.22553 z m -20.55189,-41.87833 c -3.67301,-0.57189 -4.81796,-2.81402 -2.91786,-5.71394 2.72964,-4.16596 8.59524,-2.83219 8.59524,1.95444 0,2.46291 -2.66608,4.22836 -5.67738,3.7595 z M 851.0685,245.25 c 3.06709,-6.70341 3.0776,-6.78451 1.52312,-11.75 -1.91689,-6.12313 -6.26096,-9.5109 -12.1535,-9.47804 C 836.45143,224.04419 828,227.22757 828,228.707 c 0,0.44263 1.29452,1.37779 2.87671,2.07813 4.86151,2.15192 9.68115,7.7012 12.69291,14.61451 1.58148,3.6302 3.22081,6.60036 3.64295,6.60036 0.42213,0 2.1573,-3.0375 3.85593,-6.75 z M 836.5,232 c -0.33992,-0.55 -0.14148,-1 0.44098,-1 0.58246,0 1.05902,0.45 1.05902,1 0,0.55 -0.19844,1 -0.44098,1 -0.24254,0 -0.7191,-0.45 -1.05902,-1 z m -27.05287,12.5 c 1.45045,-2.475 3.24177,-4.5 3.98072,-4.5 0.73894,0 2.63247,-0.67223 4.20784,-1.49384 3.83289,-1.99899 6.29923,-1.89163 11.92294,0.51897 5.38473,2.30817 6.6158,1.94107 3.85191,-1.14859 -7.15816,-8.00184 -24.76742,-7.31386 -29.775,1.16329 -0.89955,1.52282 -1.63554,3.38669 -1.63554,4.14196 0,1.69665 2.80641,5.81821 3.96168,5.81821 0.46655,0 2.03501,-2.025 3.48545,-4.5 z M 1013,512 c 0,-0.55 1.2375,-0.96837 2.75,-0.92971 2.4368,0.0623 2.5223,0.16815 0.75,0.92971 -2.7314,1.17371 -3.5,1.17371 -3.5,0 z M 36,501.34365 c 0,-0.50492 0.992604,-0.99281 2.205786,-1.0842 1.213182,-0.0914 3.582975,-0.90782 5.266207,-1.8143 2.559682,-1.37848 3.753144,-1.46161 7.294214,-0.5081 5.92932,1.5966 5.269792,2.80834 -1.516207,2.78571 -3.1625,-0.0105 -7.4375,0.3314 -9.5,0.75987 -2.175871,0.45203 -3.75,0.39369 -3.75,-0.13898 z m -7.5,-3.06289 c -3.522018,-0.85803 -5.436805,-3.34173 -5.303801,-6.87965 0.09971,-2.6522 0.880878,-3.87552 3.740018,-5.85691 3.138787,-2.17518 12.242879,-5.65 13.968078,-5.33129 C 42.517752,480.51098 47,477.8752 47,476.62834 c 0,-3.64806 10.228928,-9.56113 19.138809,-11.06362 2.707182,-0.45652 3.935867,-1.31143 4.79908,-3.33917 1.374388,-3.22852 8.473163,-7.79665 14.457445,-9.30351 5.309808,-1.33703 10.803299,-0.87018 11.408163,0.96949 0.341542,1.03878 -0.240793,1.25803 -2.29725,0.86491 -1.515124,-0.28963 -4.161353,-0.17199 -5.880509,0.26143 -1.719156,0.43341 -4.354985,1.0632 -5.857398,1.39953 C 79.877851,457.06445 73,462.53222 73,464.18305 c 0,0.55694 1.246977,0.70198 2.9048,0.33786 3.20739,-0.70446 5.109942,0.87429 2.339456,1.94129 -0.959341,0.36948 -3.711902,0.87553 -6.116803,1.12456 -6.055656,0.62707 -13.904552,3.29379 -18.441818,6.26575 -3.102094,2.03191 -3.705422,2.93252 -3.230948,4.82297 C 50.884734,480.38892 50.61386,481 49.424289,481 c -3.862824,0 -15.943051,4.50235 -18.487327,6.89031 -3.006683,2.82195 -5.267502,8.07456 -2.794096,6.49159 2.430497,-1.55552 9.269754,-2.8891 13.169114,-2.56784 4.889336,0.40282 4.386296,2.67341 -0.602395,2.71905 -2.32637,0.0213 -4.461778,0.82491 -5.978714,2.25 -2.409729,2.26382 -2.750095,2.34563 -6.230871,1.49765 z M 54,496.96944 c 0,-0.60551 0.451217,-1.94403 1.002704,-2.97449 0.670273,-1.25242 0.670273,-2.07903 0,-2.49328 -1.850523,-1.14368 -1.028153,-3.46774 2.679082,-7.57121 4.30572,-4.76591 11.058306,-8.59037 12.544094,-7.10458 0.650566,0.65057 0.01234,1.59498 -1.868978,2.76564 -6.490285,4.0386 -10.968762,10.2911 -10.454221,14.59538 0.11091,0.92779 -0.721821,2.18112 -1.850513,2.78518 C 54.560235,497.77054 54,497.76982 54,496.96944 Z m 11,-8.51126 c 0,-0.91098 2.557212,-2.74496 6.25,-4.48236 3.4375,-1.61729 7.149512,-3.51097 8.248915,-4.20818 13.794131,-8.74777 18.89965,-12.50606 23.847025,-17.55436 3.21527,-3.28085 6.36527,-6.83033 7,-7.88774 0.63473,-1.05742 2.05406,-3.4196 3.15406,-5.24931 3.96602,-6.59695 9.32089,-12.73871 15.35511,-17.61151 5.27951,-4.26334 5.92474,-5.12975 4.56726,-6.13289 -1.34324,-0.99261 -0.87353,-1.48102 3.12553,-3.25 2.58849,-1.145 5.10524,-2.08183 5.59279,-2.08183 0.48754,0 1.66784,-0.44981 2.62288,-0.99957 0.95504,-0.54976 3.08643,-1.5034 4.73643,-2.1192 4.80759,-1.79424 1.49024,-2.03788 -4.51404,-0.33154 -9.29754,2.64226 -10.33393,2.82236 -9.62312,1.67224 0.36305,-0.58743 2.11743,-1.37964 3.89863,-1.76047 1.78119,-0.38082 3.68853,-1.03177 4.23853,-1.44654 0.55,-0.41478 2.8,-1.06854 5,-1.4528 2.2,-0.38427 5.125,-0.96759 6.5,-1.29627 2.1568,-0.51556 2.32671,-0.38712 1.23767,0.9356 -2.53623,3.08043 0.49855,3.65645 14.26233,2.70704 7.15,-0.49319 14.35,-1.09835 16,-1.34479 1.65,-0.24644 6.825,-0.54257 11.5,-0.65807 4.675,-0.11549 9.85,-0.56375 11.5,-0.99613 1.65,-0.43238 5.25,-1.02936 8,-1.32662 2.75,-0.29726 7.58567,-0.81698 10.74594,-1.15493 3.16027,-0.33794 8.56027,-1.26359 12,-2.05698 7.65092,-1.76473 19.58815,-4.1024 25.13568,-4.92234 4.30902,-0.63688 15.63134,-5.12182 21.61838,-8.56335 1.925,-1.10655 5.975,-3.14304 9,-4.52553 4.98229,-2.27701 8.09505,-3.84626 15.14169,-7.63343 1.29707,-0.69711 4.18859,-2.50109 6.4256,-4.00886 2.23701,-1.50778 6.3662,-3.97352 9.17598,-5.47943 6.26395,-3.3572 21.60069,-13.74262 23.27663,-15.76201 0.67374,-0.81181 1.62883,-1.47602 2.12242,-1.47602 0.49358,0 2.80098,-1.21703 5.12755,-2.7045 6.07573,-3.88447 10.9186,-6.29299 12.69157,-6.31195 3.12674,-0.0334 21.34245,-12.68537 32.37248,-22.48471 2.84134,-2.52431 7.11262,-6.25673 9.49173,-8.29425 2.37911,-2.03752 5.09962,-4.37959 6.04557,-5.20459 0.94595,-0.825 4.3994,-3.73996 7.67434,-6.47769 3.27494,-2.73774 6.17944,-5.21892 6.45444,-5.51375 0.275,-0.29483 2.975,-2.51456 6,-4.93273 3.025,-2.41818 6.33782,-5.33699 7.36182,-6.48626 1.024,-1.14926 4.174,-4.71322 7,-7.9199 11.63864,-13.20645 29.68209,-25.41621 38.76577,-26.23228 5.5205,-0.49596 19.52784,-4.17179 22.095,-5.79821 1.25257,-0.79357 3.85241,-1.73824 5.77741,-2.09926 3.92549,-0.7362 4.34409,-0.8938 15.5,-5.83597 4.4,-1.94923 11.825,-4.50024 16.5,-5.6689 4.675,-1.16866 11.65,-3.64091 15.5,-5.49389 13.59522,-6.54327 18.48306,-8.4038 23.71356,-9.02643 2.90754,-0.34611 5.96144,-0.79902 6.78644,-1.00647 0.825,-0.20745 5.325,-0.65188 10,-0.98762 13.74958,-0.98747 20.40073,-1.59858 22,-2.02137 0.825,-0.21811 5.0802,-0.6754 9.456,-1.01621 4.37579,-0.34081 8.20079,-0.76779 8.5,-0.94885 0.2992,-0.18106 5.68713,-0.87039 11.97318,-1.53186 6.28605,-0.66147 14.61105,-2.2408 18.5,-3.50963 3.88895,-1.26883 13.37082,-4.16441 21.07082,-6.43463 7.7,-2.27021 14.9,-4.54079 16,-5.04572 1.1,-0.50494 3.8,-1.42353 6,-2.04131 2.2,-0.61778 5.35,-1.50792 7,-1.97808 1.65,-0.47016 6.45589,-1.73983 10.67975,-2.82148 4.22387,-1.08165 8.19305,-2.28387 8.8204,-2.67159 1.67362,-1.03436 12.79058,-3.33002 26.83091,-5.54061 6.78209,-1.06781 12.7331,-2.18993 13.22446,-2.49362 0.49137,-0.30368 7.99239,-0.73825 16.66894,-0.96571 8.67655,-0.22746 17.12554,-0.61175 18.77554,-0.85399 1.65,-0.24224 6.825,-0.74891 11.5,-1.12595 4.675,-0.37703 12.55,-1.31112 17.5,-2.07575 4.95,-0.76462 11.7,-1.634 15,-1.93193 3.3,-0.29794 7.575,-0.961 9.5,-1.47346 1.925,-0.51246 8,-2.10889 13.5,-3.54763 5.5,-1.43873 12.10955,-3.26284 14.6879,-4.05357 2.57834,-0.79073 5.31022,-1.43769 6.07085,-1.43769 4.09896,0 31.9845,-11.86564 46.74125,-19.88897 3.025,-1.64471 10.28016,-5.26484 16.12258,-8.04472 5.84243,-2.77988 11.15955,-5.70132 11.81582,-6.49209 1.19481,-1.43966 18.0559,-11.28485 25.5417,-14.9138 2.1891,-1.06121 6.0141,-3.57996 8.5,-5.59722 C 1023.1087,103.71295 1037.461,96 1039.5665,96 c 0.4862,0 3.8201,-1.092649 7.4087,-2.428109 9.1112,-3.390612 10.3224,-3.808793 12.0248,-4.151824 11.7691,-2.371421 17.8981,-3.178033 25,-3.290113 15.2066,-0.239986 18.8735,-0.984559 20.5189,-4.166414 2.0296,-3.924809 5.2652,-4.776608 24.5016,-6.450084 10.3514,-0.900518 22.0614,-2.678503 26.3884,-4.00668 2.6999,-0.828727 5.9143,-1.506776 7.143,-1.506776 1.2288,0 2.4931,-0.675 2.8097,-1.5 1.1691,-3.046543 2.5044,-1.365899 2.3629,2.973878 -0.1573,4.822655 -2.1285,6.723441 -4.1316,3.984051 -0.7437,-1.017076 -2.0298,-1.385802 -3.6229,-1.038722 -6.2629,1.364384 -19.1644,4.7925 -28.47,7.564872 -13.2892,3.959174 -20.2845,5.824323 -26,6.932386 -3.3,0.639765 -8.025,1.866091 -10.5,2.72517 -4.735,1.643514 -5.962,1.83736 -18,2.843626 -4.125,0.344812 -10.2,1.348324 -13.5,2.230027 -3.3,0.881703 -6.8793,1.552515 -7.9539,1.490693 -1.0747,-0.06182 -2.4247,0.276273 -3,0.751321 -0.5754,0.475049 -2.8461,1.190808 -5.0461,1.590588 -5.0267,0.91342 -20.272,7.69102 -26.0087,11.56264 -2.3854,1.6099 -6.0593,3.63172 -8.1642,4.49294 -5.103,2.08787 -29.3271,16.47712 -29.3271,17.42045 0,0.40855 -0.84204,0.96301 -1.87119,1.23214 -1.02916,0.26914 -6.48217,3.35912 -12.11781,6.86664 C 951.0853,153.90169 936.57092,161 931.41133,161 c -1.30979,0 -7.08894,1.575 -12.84256,3.5 -5.75361,1.925 -11.80878,3.5 -13.45592,3.5 -1.64715,0 -3.24873,0.41084 -3.55907,0.91299 -0.45223,0.73171 -6.88613,2.32718 -9.02084,2.23697 -0.27277,-0.0115 -1.96677,0.42225 -3.76444,0.96394 -3.8557,1.16185 -22.65289,4.89022 -23.60871,4.68273 -0.36288,-0.0788 -3.35979,0.21656 -6.65979,0.6563 -5.93354,0.79066 -7.62694,1.06033 -12.5,1.99057 -1.375,0.26248 -5.65,0.73184 -9.5,1.04302 -3.85,0.31119 -11.275,0.97137 -16.5,1.46707 -5.225,0.49571 -10.175,0.88661 -11,0.86868 -9.14488,-0.19875 -19.31029,0.82341 -27.74177,2.7895 C 775.62525,186.9253 769.2799,188 767.15745,188 c -2.12245,0 -5.16365,0.39393 -6.75823,0.87541 -1.59457,0.48147 -5.37422,1.43994 -8.39922,2.12993 -3.025,0.68998 -5.95,1.5209 -6.5,1.84647 -1.18427,0.70103 -1.5744,0.80648 -7.7643,2.09859 -2.62036,0.547 -5.62827,1.45692 -6.68425,2.02207 -1.05598,0.56514 -3.18705,1.02389 -4.73571,1.01944 -1.54866,-0.004 -6.19074,1.32166 -10.31574,2.94689 -9.02172,3.55453 -26.96221,9.0612 -29.52097,9.0612 -1.85599,0 -7.3003,1.55551 -10.97903,3.13685 -3.03412,1.30425 -28.758,4.85682 -39.5,5.4551 -18.83062,1.04879 -43.28507,4.40857 -50,6.86948 -13.54519,4.96407 -17.29167,6.49211 -18.99215,7.74614 C 553.75194,242.98315 550,246.9128 550,251.021 c 0,1.84387 0.37467,2.09068 2.25,1.48211 3.90692,-1.26784 9.75,-1.74986 9.75,-0.80431 0,0.49988 -1.4625,2.32695 -3.25,4.06016 -7.7332,7.49834 -8.62152,14.72285 -1.27752,10.38978 4.62482,-2.72871 5.51763,-1.07445 2.88069,5.33756 C 558.33342,276.39756 556,277.47696 556,273.5 c 0,-1.92188 -0.52031,-2.50316 -2.25,-2.51365 -8.01867,-0.0487 -9.02833,-4.11645 -2.78283,-11.21172 4.28057,-4.86297 4.34188,-6.22283 0.20973,-4.65179 -2.10331,0.79968 -2.86882,0.65138 -3.89718,-0.75497 -2.47633,-3.38659 -0.60909,-8.8458 4.23022,-12.36787 1.88925,-1.375 3.44739,-3.01511 3.46253,-3.64469 0.0348,-1.44871 -3.61521,-0.5559 -14.97247,3.6623 -4.675,1.73634 -11.875,4.27591 -16,5.64349 -4.125,1.36757 -10.2,3.39181 -13.5,4.4983 -7.94805,2.66498 -14.9877,4.46635 -20.53257,5.25404 -2.49292,0.35414 -6.05243,1.6435 -7.91002,2.86523 -1.8576,1.22173 -5.50743,3.57133 -8.11074,5.22133 -2.60332,1.65 -9.18067,7.725 -14.61634,13.5 -12.87796,13.68187 -18.23698,19 -19.14611,19 -0.40617,0 -2.19589,1.33112 -3.97714,2.95805 -1.78126,1.62692 -7.16905,5.98837 -11.97286,9.6921 -10.08314,7.77406 -21.02531,16.88363 -23.31642,19.41137 -2.48119,2.73744 -13.74148,11.9374 -14.62399,11.94819 -0.4366,0.005 -2.72854,1.54781 -5.09321,3.42773 -2.60644,2.07212 -6.31489,3.85027 -9.41785,4.51573 -5.27281,1.13082 -19.49906,9.10978 -25.86755,14.50812 -3.67267,3.1132 -7.60427,5.6318 -13.86479,8.88185 -1.95272,1.01373 -7.82541,4.44344 -13.05041,7.62159 -5.225,3.17814 -10.45955,6.07475 -11.63233,6.4369 -1.17278,0.36215 -5.67278,2.56574 -10,4.89687 -4.32722,2.33113 -11.69267,6.11544 -16.36767,8.40957 -7.58574,3.7225 -9.59687,4.57956 -12.23529,5.21414 -0.40441,0.0973 -2.87941,0.78267 -5.5,1.5231 -2.62059,0.74044 -7.17543,1.40312 -10.12186,1.47263 -2.94643,0.0695 -6.09643,0.50718 -7,0.97259 -0.90357,0.46542 -3.21785,1.13218 -5.14285,1.48168 -1.925,0.34951 -4.625,0.9047 -6,1.23378 -9.94253,2.37948 -25.48169,4.25092 -40.5,4.87755 -7.7,0.32128 -15.575,0.98743 -17.5,1.48032 -1.925,0.49289 -7.1,1.18646 -11.5,1.54126 -14.15295,1.14124 -17.07207,2.63054 -31.24751,15.94213 -3.48325,3.27099 -7.29956,7.51087 -8.48067,9.42196 -1.18112,1.91108 -6.00046,7.34791 -10.70965,12.08185 -7.5914,7.63127 -12.02397,10.99806 -27.56217,20.93501 -2.2,1.40693 -5.272026,3.58313 -6.826725,4.836 -1.554699,1.25286 -3.579699,2.28794 -4.5,2.30017 C 75.252974,486.03447 73.375,486.92446 72,488 c -3.034509,2.37363 -7,2.63318 -7,0.45818 z m 76.427,-61.97965 c 1.05985,-0.80183 1.62425,-1.76061 1.25423,-2.13064 -1.00532,-1.00531 -5.89235,1.5015 -5.1786,2.65636 0.81869,1.32467 1.62051,1.21726 3.92437,-0.52572 z M 73,475 c 0,-0.55 0.675,-1 1.5,-1 0.825,0 1.5,0.45 1.5,1 0,0.55 -0.675,1 -1.5,1 -0.825,0 -1.5,-0.45 -1.5,-1 z m 151.60065,-12.45502 c -0.49005,-1.95251 0.0195,-3.49141 2.02763,-6.12427 3.48414,-4.56795 7.37172,-6.82332 7.37172,-4.27669 0,0.62922 -1.65221,2.57225 -3.67159,4.31786 -2.31256,1.99905 -3.39004,3.62938 -2.91097,4.40454 0.48501,0.78475 1.18129,0.8951 1.92159,0.30453 0.63853,-0.5094 2.17347,-1.23657 3.41097,-1.61595 3.26445,-1.00077 2.99144,2.2126 -0.2941,3.46177 -6.14492,2.33629 -7.16586,2.27497 -7.85525,-0.47179 z M 168,458.62212 c 0,-0.20783 0.64126,-1.91262 1.42502,-3.78843 2.00259,-4.79287 9.68756,-11.29534 19.07498,-16.1399 9.2131,-4.75459 13.63663,-6.29968 18.56633,-6.48501 1.92781,-0.0725 5.13462,-0.81262 7.12625,-1.64478 5.05293,-2.11125 20.80742,-0.92854 20.80742,1.56204 0,0.66332 -0.68303,0.78688 -1.75,0.31658 -2.84108,-1.25228 -14.93983,-0.52422 -20.03372,1.20556 -2.59395,0.88086 -5.16628,1.68241 -5.71628,1.78124 -3.15877,0.56757 -10.10609,3.33066 -18.10328,7.20006 -8.7524,4.23481 -16.01387,10.24263 -17.67138,14.62052 C 171.17728,458.69755 168,459.86781 168,458.62212 Z M 24,454.02305 c 0,-4.10346 2.140758,-5.70458 3.364255,-2.5162 0.500472,1.30421 1.288122,1.22814 5.856989,-0.56563 C 36.12456,449.80136 39.175,448.726 40,448.55154 c 0.825,-0.17447 1.371711,-0.8673 1.214913,-1.53964 -0.156797,-0.67233 0.192188,-1.7975 0.775524,-2.50038 1.248096,-1.50386 -0.630566,-2.49416 -4.822224,-2.54193 -2.274756,-0.0259 -2.41321,-0.179 -0.938919,-1.0381 1.019227,-0.59392 5.125336,-0.76842 10,-0.42496 10.625642,0.74866 15.931316,0.60394 17.232082,-0.47003 0.571243,-0.47164 2.731094,-1.17381 4.799669,-1.56038 2.068575,-0.38656 4.007633,-1.10183 4.309017,-1.58948 0.301385,-0.48765 1.533914,-0.87975 2.738955,-0.87133 1.740803,0.0122 1.888729,0.20647 0.719943,0.94563 -0.809071,0.51167 -1.157446,1.24391 -0.774166,1.62719 0.383281,0.38328 1.270249,0.24519 1.97104,-0.30687 C 78.994395,436.88806 86,435.91525 86,437.06287 86,437.57829 85.38244,438 84.627645,438 c -0.754796,0 -4.917296,1.16509 -9.25,2.58909 -4.332705,1.42401 -8.77487,2.7693 -9.871478,2.98954 -2.552173,0.51259 -17.638431,5.0858 -23.506167,7.12561 -2.475,0.86038 -6.321315,2.06641 -8.547367,2.68005 -2.226052,0.61364 -5.263552,1.91358 -6.75,2.88876 L 24,458.04611 Z m 27.485962,-8.58163 c 2.051615,-0.85722 3.522238,-1.76655 3.268051,-2.02074 -0.716007,-0.71601 -10.664335,1.6252 -11.304033,2.66025 -0.899351,1.45518 3.945435,1.06963 8.035982,-0.63951 z M 278,453.90113 c 0,-3.79654 3.33255,-9.31745 8.84377,-14.65113 2.98362,-2.8875 5.96959,-5.25 6.6355,-5.25 0.66592,0 2.02524,-0.9 3.02073,-2 0.99549,-1.1 2.65435,-2 3.68637,-2 1.89713,0 3.58416,-2.5628 2.44012,-3.70684 -0.34132,-0.34132 -3.04226,0.5652 -6.00209,2.01449 -2.95982,1.44928 -7.57365,3.18649 -10.25295,3.86045 -2.6793,0.67397 -5.80045,2.03686 -6.9359,3.02865 -2.08493,1.82113 -5.43555,2.45646 -5.43555,1.03065 0,-0.98861 5.10424,-3.57002 11.5,-5.81597 2.75,-0.9657 5.45,-2.04472 6,-2.39781 3.21366,-2.06313 14.71919,-6.14349 15.96981,-5.66358 1.28665,0.49374 1.29845,0.93949 0.0889,3.35961 -0.76704,1.53469 -3.0667,6.34987 -5.11037,10.70039 -4.60675,9.80675 -10.1813,15.61825 -17.17606,17.90612 C 278.67004,456.47563 278,456.4374 278,453.90113 Z m 12.90963,-6.58172 C 296.88264,443.02594 303.89075,432 300.64669,432 c -4.11941,0 -19.5962,14.65465 -18.07545,17.11527 1.0256,1.65946 4.60341,0.8889 8.33839,-1.79586 z m 15.03146,6.10961 c -3.3699,-4.06048 -0.59529,-16.75333 5.19876,-23.78252 4.72976,-5.73801 5.84112,-3.25851 2.03222,4.53399 C 309.65247,441.38113 307.69286,448 309.08061,448 309.58627,448 310,447.33886 310,446.53079 310,444.40634 314.02568,437 315.18042,437 c 1.2005,0 0.13003,5.42108 -1.82654,9.25 -1.17095,2.2915 -1.17904,2.75 -0.0485,2.75 0.74619,0 1.86755,-1.0125 2.49191,-2.25 1.81703,-3.60136 6.06819,-16.55123 5.59029,-17.02912 -0.23973,-0.23973 0.26088,-1.01413 1.11246,-1.72088 2.24823,-1.86587 2.62076,-0.89376 1.56509,4.08412 -1.89952,8.95695 -5.52623,19.11927 -7.8213,21.91588 -0.81729,0.99589 -9.39693,0.5204 -10.3027,-0.57098 z M 200,451.54047 c 0,-3.51166 13.56703,-11.80957 23.5,-14.37313 14.40863,-3.71868 20.88997,-4.73193 27.25,-4.26008 1.93756,0.14375 1.4738,1.96857 -0.5,1.96743 -11.45481,-0.007 -44.36767,11.63736 -47.54969,16.82226 C 201.62666,453.4464 200,453.35213 200,451.54047 Z M 32,449.11546 c 0,-0.89777 3.004879,-2.44391 3.59765,-1.85114 0.171266,0.17126 -0.568142,0.86067 -1.643128,1.53201 C 32.879535,449.46767 32,449.61128 32,449.11546 Z m 200,-3.01763 c 0,-0.71577 3.48209,-2.48014 7,-3.54689 1.85234,-0.56169 10.59364,-4.93814 11,-5.5073 0.49314,-0.69071 2.14754,-1.58448 11,-5.94263 2.475,-1.21846 5.85,-2.92644 7.5,-3.79549 4.9197,-2.59122 14.80906,-6.32979 15.33979,-5.79906 0.66905,0.66905 1.00064,0.47563 -10.83979,6.32282 -5.775,2.85188 -11.85,6.05893 -13.5,7.12678 -4.5341,2.93439 -14.33107,7.7148 -20.5,10.00292 -6.17696,2.2911 -7,2.42501 -7,1.13885 z M 23.5,443 c -0.923305,-1.49394 0.361375,-3 2.559017,-3 1.067541,0 2.878483,-0.9375 4.024316,-2.08333 2.510306,-2.51031 2.904496,-2.27268 2.211785,1.33333 -0.346175,1.80207 -1.15715,2.75 -2.352678,2.75 -1.003423,0 -2.102521,0.45 -2.44244,1 -0.339919,0.55 -1.239919,1 -2,1 -0.760081,0 -1.660081,-0.45 -2,-1 z m 13.03268,-8.94712 c -0.323783,-0.52389 0.294324,-1.42511 1.37357,-2.00271 C 40.338094,430.74869 41,430.73043 41,431.96482 c 0,1.45942 -3.767507,3.22038 -4.46732,2.08806 z M 78,434.78913 c 0.275,-0.27072 2.064728,-1.02125 3.977174,-1.66785 1.912445,-0.64659 3.037445,-0.74524 2.5,-0.21922 -0.537446,0.52603 -2.327174,1.27656 -3.977174,1.66785 -1.65,0.3913 -2.775,0.48994 -2.5,0.21922 z m 16.543285,-0.71909 c -0.399527,-0.64645 6.888835,-3.43587 8.456715,-3.23657 0.275,0.035 2.31452,-0.99982 4.53226,-2.29951 3.55944,-2.08597 18.49988,-7.81068 23.96774,-9.18369 1.79711,-0.45127 1.76051,-0.29162 -0.36078,1.57376 -1.29844,1.14178 -3.44084,2.07597 -4.7609,2.07597 -1.32007,0 -4.39009,0.9354 -6.82227,2.07866 -2.43219,1.14326 -5.01478,2.19911 -5.7391,2.34634 -0.72432,0.14723 -2.44195,0.75447 -3.81695,1.34942 -8.9566,3.87547 -15.045191,5.96148 -15.456715,5.29562 z m -5.856574,-4.09436 c 0.652691,-0.687 4.915073,-2.5268 9.471959,-4.08843 4.55689,-1.56164 9.42287,-3.6732 10.81329,-4.69236 1.39042,-1.01917 3.42804,-2.11798 4.52804,-2.44181 1.1,-0.32383 6.5,-2.23621 12,-4.24973 5.5,-2.01353 11.35,-3.89508 13,-4.18123 1.65,-0.28615 3.675,-0.86817 4.5,-1.29338 1.33504,-0.68808 7.95894,-1.97816 13.5,-2.62928 1.1,-0.12926 6.275,-0.4765 11.5,-0.77166 9.69429,-0.54761 21.44799,-1.81578 32.91001,-3.55082 3.5255,-0.53367 6.6755,-0.91725 7,-0.8524 0.93033,0.18591 9.62748,-1.19556 21.58999,-3.4294 9.36091,-1.74803 11.44702,-2.49336 14,-5.00191 1.65,-1.62129 4.575,-3.95201 6.5,-5.1794 2.77781,-1.77113 3.47503,-2.83848 3.37898,-5.17273 -0.0666,-1.61763 -0.48041,-9.46614 -0.91967,-17.44114 -1.15876,-21.03794 -0.94365,-30.00565 0.8536,-35.58518 0.87072,-2.70315 1.79656,-7.61482 2.05741,-10.91482 0.26084,-3.3 1.70514,-10.42962 3.20954,-15.8436 2.29854,-8.2719 2.51053,-9.98803 1.32771,-10.74816 -1.81384,-1.16564 -9.16083,-0.1515 -14.90757,2.05776 -6.90894,2.65606 -10.88086,3.9894 -18.5,6.21032 -3.85,1.12224 -8.0356,2.53007 -9.30133,3.12851 -3.37911,1.59765 -13.64056,10.71061 -17.42034,15.47061 -3.67507,4.62813 -14.2264,13.34797 -23.27833,19.23768 -12.20227,7.93951 -13.46355,8.99512 -15.4871,12.9616 -1.68063,3.2943 -2.48104,3.95592 -4.28953,3.54574 -9.3405,-2.1185 -12.44633,-2.4744 -21.78224,-2.49601 -11.27569,-0.0261 -14.45709,-1.08506 -13.79132,-4.59055 0.4691,-2.46995 5.85019,-3.39006 5.85019,-1.00032 0,0.86153 0.48032,1.56642 1.06739,1.56642 0.61231,0 0.79675,-0.85269 0.43261,-2 -0.82574,-2.60168 0.98241,-2.57705 2.8143,0.0383 1.16971,1.67 2.76113,2.10305 8.8067,2.39645 4.05845,0.19697 8.91897,0.84552 10.80116,1.44124 3.30728,1.04676 6.07784,0.20071 6.07784,-1.85601 0,-0.9496 -10.98088,-2.42721 -17.75,-2.38848 -2.8875,0.0165 -5.25,-0.25381 -5.25,-0.60074 0,-1.59683 2.69684,-3.03079 5.7,-3.03079 2.08117,0 3.3,-0.49181 3.3,-1.33159 0,-0.73237 2.26015,-2.79611 5.02255,-4.58608 3.17501,-2.05734 5.54509,-4.50513 6.4431,-6.65435 0.84412,-2.02028 3.16973,-4.52144 5.73126,-6.16392 5.02419,-3.22155 16.42402,-15.11921 20.16557,-21.04621 1.42528,-2.2578 4.08381,-5.59748 5.90784,-7.4215 C 189.42036,291.64631 201.2331,284 202.94955,284 c 0.44341,0 2.54866,-0.7542 4.67833,-1.67601 4.11537,-1.7813 5.27984,-2.07888 12.37212,-3.16167 5.1963,-0.79334 5.63146,-2.00405 2.57433,-7.16232 -1.81002,-3.05404 -2.09753,-5.32094 -2.25644,-17.79099 -0.1416,-11.11198 -0.62287,-15.67219 -2.16349,-20.5 -2.80949,-8.80409 -3.46414,-18.07906 -1.74409,-24.71003 C 217.7942,203.66393 217.71465,202 216.0757,202 c -1.30288,0 -12.52418,11.96932 -17.60057,18.77382 -4.06643,5.45075 -4.50301,6.48781 -3.3278,7.90491 1.98299,2.39113 7.22624,4.32127 11.73876,4.32127 4.66081,0 7.3215,0.8551 6.54915,2.10478 -1.63854,2.65122 -18.02076,-0.0645 -21.86158,-3.6241 -2.77923,-2.5757 -3.43728,-6.9353 -1.17771,-7.80238 0.76777,-0.29462 2.12612,-2.70526 3.01855,-5.35699 0.89244,-2.65172 2.85177,-6.6606 4.35406,-8.90861 1.50229,-2.24802 4.52049,-6.74802 6.7071,-10 3.40945,-5.07061 8.11784,-14.64155 8.8121,-17.9127 0.11673,-0.55 1.92285,-3.22531 4.01361,-5.94514 l 3.80136,-4.94514 -2.76224,-1.44729 c -1.51924,-0.79601 -5.92985,-2.47886 -9.80137,-3.73967 -3.87152,-1.26081 -9.51412,-3.26903 -12.53912,-4.46272 -3.025,-1.19369 -7.06416,-2.75246 -8.97591,-3.46394 -4.23462,-1.57595 -5.62089,-2.8672 -14.52409,-13.52846 -3.85,-4.61024 -7.675,-9.09873 -8.5,-9.97443 -0.825,-0.8757 -2.70612,-3.32046 -4.18026,-5.4328 -1.90465,-2.72922 -4.07501,-4.33206 -7.5,-5.53884 -13.83294,-4.87397 -20.53811,-9.49667 -18.47635,-12.73803 0.93343,-1.46748 6.93091,-2.70484 11.82617,-2.4399 4.88802,0.26456 5.58391,-0.47305 4.38622,-4.64916 -1.90104,-6.628516 5.07948,-5.566532 9.94422,1.51287 1.375,2.00097 5.11645,6.37289 8.31434,9.71538 5.71966,5.9783 7.43668,8.12641 16.04807,20.07727 3.70765,5.14546 5.17033,6.32045 10.26995,8.25 3.27059,1.2375 6.68973,2.25 7.59807,2.25 0.90835,0 1.92965,0.45 2.26957,1 0.33992,0.55 1.60398,1.00387 2.80902,1.00861 1.20504,0.005 6.01598,1.85418 10.69098,4.10987 12.45035,6.00731 13.01694,6.17616 14.92639,4.44814 3.05776,-2.76724 10.77236,-5.53961 15.68797,-5.63774 8.61619,-0.172 11.91021,-2.41097 10.92953,-7.42888 -0.21498,-1.1 -0.4253,-2.27862 -0.46738,-2.61916 -0.0421,-0.34053 -1.60746,-0.86759 -3.47862,-1.17124 -1.87116,-0.30365 -5.80866,-1.74493 -8.75,-3.20285 -8.14375,-4.03656 -12.21908,-11.54868 -15.7362,-29.00675 l -1.61169,-8 -5.53932,0.330889 c -6.78546,0.405327 -9.73838,-1.562609 -10.62156,-7.0786 -0.83918,-5.241118 2.13033,-9.185906 11.68373,-15.521049 l 7.72808,-5.124724 -0.83191,-4.303258 c -1.52699,-7.898649 -1.15831,-11.356882 1.33098,-12.484734 3.92241,-1.777176 8.99994,-3.389419 17.75,-5.636074 8.02847,-2.061381 8.85006,-2.099007 14.81027,-0.678272 7.62023,1.81643 10.13475,4.478692 10.16749,10.764874 0.0203,3.904301 0.21448,4.226282 2.27224,3.768475 2.96495,-0.659637 11.84856,-1.010875 18.92327,-0.748182 4.50651,0.167331 6.32817,0.761711 8.85761,2.89009 2.86291,2.408985 3.12929,3.089732 2.6391,6.744397 -0.5343,3.983493 -4.45093,8.558917 -7.33707,8.571201 -0.64191,0.0027 -3.16049,0.859435 -5.59686,1.903785 l -4.42976,1.898817 0.30367,11.351183 c 0.27498,10.279092 -0.19989,14.318752 -3.06606,26.082252 -0.65356,2.68237 -6.40088,10.62202 -8.50365,11.74739 -3.6267,1.94095 -5.04025,4.1763 -5.04025,7.97052 0,2.09337 0.5625,4.2295 1.25,4.74694 1.38645,1.04351 16.45512,3.60371 21.41634,3.63868 3.38902,0.0239 14.7804,-5.08099 20.01694,-8.9703 1.7508,-1.30037 3.80248,-2.3643 4.55929,-2.3643 1.34784,0 13.20248,-6.56054 21.38906,-11.83704 12.43826,-8.01682 15.95732,-10.77695 22.43596,-17.59726 9.73872,-10.252342 13.41915,-11.377279 10.65188,-3.25579 -1.95581,5.73999 -1.23614,6.82259 3.80864,5.72929 9.65943,-2.09337 17.43297,-3.18129 18.41127,-2.57667 2.2237,1.37433 1.02831,5.35866 -2.55047,8.50087 -3.8439,3.37498 -6.75744,4.80708 -12.38891,6.08954 -8.78654,2.00097 -14.7371,3.80501 -17.5,5.30549 -1.65,0.89609 -3.37427,1.63202 -3.8317,1.63541 -0.45744,0.003 -2.74892,1.57718 -5.09219,3.49731 -2.34327,1.92013 -4.54211,3.20952 -4.88632,2.86531 C 352.02191,135.68858 358.68708,130 360.1375,130 c 0.47438,0 1.76856,-0.90606 2.87596,-2.01346 l 2.01346,-2.01346 -2.04353,-4.00563 c -2.35423,-4.61469 -1.544,-4.80727 -13.48339,3.20491 -7.4473,4.99767 -10.3389,6.65967 -24.25531,13.94111 -2.89042,1.51235 -6.4386,3.6805 -7.88486,4.81813 -1.44625,1.13762 -3.18052,2.0684 -3.85392,2.0684 -0.67341,0 -3.856,1.40431 -7.07243,3.1207 -5.63215,3.00548 -6.15528,3.09577 -14.16904,2.44554 l -8.32098,-0.67516 -1.5484,3.70584 c -1.09952,2.63153 -1.37947,5.42419 -0.96566,9.6332 0.96339,9.79902 3.97121,15.14704 15.29025,27.18664 5.64486,6.00422 11.16592,12.78114 12.26902,15.05983 2.23508,4.61707 8.01133,9.70547 8.01133,7.05733 0,-0.83928 -0.84911,-4.11525 -1.88691,-7.27994 C 314.07529,203.08929 312.45553,197.8 311.51363,194.5 307.27375,179.64544 300.57053,166.22346 296.91419,165.26731 295.86139,164.99199 295,164.17998 295,163.46282 c 0,-1.34228 3.8573,-2.5168 10,-3.04493 7.20395,-0.61936 15.87091,-2.27763 18.14648,-3.472 2.41259,-1.26628 9.2593,-6.36781 11.74383,-8.75039 0.76467,-0.7333 2.56467,-2.07351 4,-2.97825 1.43533,-0.90473 4.53362,-3.18731 6.88509,-5.07238 6.31432,-5.06194 6.50598,-2.85908 0.22934,2.636 -11.97691,10.48556 -22.83597,17.354 -29.00474,18.34574 -13.213,2.12422 -13.17356,2.11247 -12.63883,3.76571 0.44903,1.38829 6.66996,18.09663 11.396,30.60768 0.83105,2.2 2.57566,6.3748 3.87691,9.27734 1.30126,2.90253 2.36869,5.82753 2.37208,6.5 0.006,1.23912 0.94651,3.18358 4.83708,10.00308 3.04023,5.32899 2.87075,7.1146 -0.59324,6.25004 -4.17928,-1.04309 -9.00199,-4.33875 -11.8901,-8.12525 C 312.9314,217.53234 311.19924,216 310.51066,216 c -1.51415,0 -4.006,16.26208 -4.90338,32 -0.63219,11.08709 -2.68031,16.81013 -9.76922,27.29793 -2.88991,4.27553 -4.05924,7.16386 -4.45331,11 -0.55266,5.37989 -2.85636,13.36048 -4.39018,15.20861 -0.48183,0.58057 -1.09017,2.1666 -1.35186,3.52452 -0.26169,1.35792 -2.17802,6.06894 -4.2585,10.46894 l -3.7827,8 -0.16195,16 c -0.13191,13.03296 -0.56893,17.47701 -2.35664,23.96488 -1.20709,4.38069 -2.56759,8.43069 -3.02334,9 -1.37404,1.71643 -2.20391,7.11189 -1.51565,9.85414 0.35556,1.41664 1.72509,3.28245 3.0434,4.14625 2.28663,1.49825 2.91505,1.31467 13.6548,-3.98891 13.76713,-6.79857 18.61086,-9.7544 26.80534,-16.35758 3.49379,-2.81533 6.89858,-5.11878 7.5662,-5.11878 3.18186,0 14.26553,-6.99103 20.23426,-12.76278 3.65864,-3.53789 7.55207,-6.84337 8.65207,-7.34551 1.1,-0.50215 3.8,-2.02209 6,-3.37766 4.14239,-2.5524 16.0863,-8.51405 17.05753,-8.51405 2.91378,0 10.88349,-5.5909 19.50922,-13.68608 5.75142,-5.39765 12.53404,-11.62205 15.0725,-13.832 2.53845,-2.20994 6.10499,-6.25994 7.92564,-9 1.82064,-2.74005 7.78426,-9.38602 13.25247,-14.7688 5.46821,-5.38279 9.72576,-10.00334 9.4612,-10.26789 -0.26455,-0.26455 -1.78545,0.19928 -3.37978,1.03072 -1.59433,0.83145 -3.88472,1.5145 -5.08976,1.51789 -1.20504,0.003 -2.44784,0.42175 -2.76177,0.9297 -0.31392,0.50795 -2.92798,1.69885 -5.80901,2.64645 -2.88103,0.94761 -7.11932,3.00701 -9.41842,4.57646 -2.29909,1.56945 -4.59185,2.85355 -5.09501,2.85355 -0.50316,0 -1.71972,0.88939 -2.70347,1.97642 -0.98375,1.08703 -2.09395,1.78772 -2.46711,1.55709 -0.37317,-0.23062 -3.18501,1.91749 -6.24854,4.77359 -3.06353,2.85609 -6.63557,6.1742 -7.93787,7.37357 -2.81943,2.59658 -4.86782,5.02761 -4.86782,5.77712 0,0.29822 -0.9,1.44221 -2,2.54221 -1.1,1.1 -2,2.675 -2,3.5 0,0.825 -0.45,1.5 -1,1.5 -3.15559,0 1.77646,-8.74174 9.18459,-16.27909 C 394.1996,286.58355 405.89925,277 407.59757,277 c 0.63279,0 3.1197,-1.09509 5.52648,-2.43352 2.40677,-1.33844 7.97595,-3.63312 12.37595,-5.09928 4.4,-1.46616 8.45,-3.00125 9,-3.4113 0.55,-0.41006 3.15569,-1.32896 5.79043,-2.04201 4.94462,-1.33818 8.57461,-5.01389 4.95152,-5.01389 -3.13571,0 -19.50516,5.053 -24.57411,7.58565 -2.65769,1.32789 -5.41509,2.41435 -6.12756,2.41435 -0.71246,0 -1.85559,0.675 -2.54028,1.5 -1.42084,1.71201 -3,1.9779 -3,0.50512 0,-0.54718 2.1375,-1.95006 4.75,-3.11751 2.6125,-1.16745 6.63987,-2.96142 8.9497,-3.9866 2.30984,-1.02518 9.1524,-3.23864 15.20569,-4.9188 6.05329,-1.68016 12.26343,-3.71073 13.8003,-4.51236 1.53687,-0.80164 3.4088,-1.4603 4.15983,-1.46369 0.75104,-0.003 3.02734,-1.82415 5.05844,-4.04615 2.90466,-3.17765 4.53423,-4.11341 7.63447,-4.38398 4.44728,-0.38812 7.24589,-1.30982 9.44157,-3.10949 1.6232,-1.33045 10.63317,-3.68678 21,-5.49201 3.575,-0.62254 9.65,-2.38473 13.5,-3.91599 3.85,-1.53125 9.55463,-3.52386 12.67695,-4.42802 3.12233,-0.90416 10.92474,-3.8909 17.3387,-6.63722 6.41395,-2.74631 12.40932,-5.02675 13.32304,-5.06764 0.91372,-0.0409 5.24567,-1.28807 9.62656,-2.77152 l 7.96525,-2.69719 -0.28696,-4.6663 c -0.26834,-4.36365 -0.0135,-4.91338 3.92994,-8.476 2.31929,-2.09534 6.38028,-5.04527 9.02443,-6.5554 3.89774,-2.2261 5.28958,-2.56242 7.35481,-1.77723 1.57211,0.59772 2.54728,1.74361 2.54728,2.99323 0,2.36324 -1.52601,2.70232 -2.36163,0.52475 -1.12147,-2.9225 -4.71899,-1.66872 -12.38952,4.31789 -5.23625,4.08673 -6.84375,6.76037 -5.23215,8.70223 0.63551,0.76575 0.86518,1.86198 0.51037,2.43608 -0.87496,1.41572 0.72474,1.31364 6.81902,-0.43512 5.04184,-1.44676 16.66111,-3.07106 29.65391,-4.14544 3.575,-0.29562 8.075,-0.93685 10,-1.42497 1.925,-0.48812 5.28748,-1.17035 7.47217,-1.51607 2.18469,-0.34572 5.55969,-1.20096 7.5,-1.90053 1.94031,-0.69957 6.90283,-2.28497 11.02783,-3.52311 4.125,-1.23814 9.31572,-2.83391 11.53493,-3.54617 2.21921,-0.71226 7.39421,-1.9996 11.5,-2.86075 4.10579,-0.86115 10.7742,-2.92435 14.81868,-4.58489 C 690.8981,182.35862 694.8233,181 695.57628,181 c 0.75298,0 3.74385,-1.07703 6.64638,-2.39339 11.9943,-5.43968 31.53455,-11.67196 41.18001,-13.13419 1.15353,-0.17487 4.79733,-0.82519 8.09733,-1.44516 3.3,-0.61996 8.475,-1.52386 11.5,-2.00867 3.025,-0.4848 6.85,-1.1278 8.5,-1.42888 1.65,-0.30108 4.575,-0.75223 6.5,-1.00256 1.925,-0.25032 7.775,-1.12191 13,-1.93685 5.225,-0.81494 12.65,-1.80459 16.5,-2.19922 3.85,-0.39463 7.88763,-1.33257 8.97251,-2.0843 1.08487,-0.75173 4.0893,-1.36678 6.67649,-1.36678 5.72013,0 20.08748,-2.7728 39.12591,-7.55103 7.8238,-1.9636 15.32075,-3.79179 16.6599,-4.06265 1.33914,-0.27085 6.06414,-1.98287 10.5,-3.80448 4.43585,-1.82162 9.86519,-3.86081 12.06519,-4.53154 5.82945,-1.77726 16.77793,-7.32138 24.33761,-12.32414 2.06911,-1.36927 5.98961,-3.68515 8.71221,-5.14639 4.98165,-2.67369 7.91955,-4.6658 15.06786,-10.21706 2.13528,-1.65823 6.60541,-4.646468 9.93362,-6.640536 3.32822,-1.994067 6.81009,-4.464027 7.7375,-5.488799 1.62969,-1.80079 1.42692,-1.871777 -6.0513,-2.118514 -8.02648,-0.264826 -9.76299,-0.371842 -27.2375,-1.678568 -5.775,-0.431848 -18.15,-0.712349 -27.5,-0.623335 -9.35,0.08901 -23.075,0.169073 -30.5,0.177909 -7.425,0.0088 -18.675,0.459617 -25,1.001736 -6.325,0.542119 -15.55,1.258231 -20.5,1.591361 -9.73356,0.655058 -12.13645,0.905897 -17.5,1.826838 -1.925,0.330529 -8.45,1.290097 -14.5,2.132373 -6.05,0.842276 -13.475,2.160977 -16.5,2.930446 -3.025,0.769469 -8.65,2.113153 -12.5,2.985959 -3.85,0.87282 -12.66071,2.91671 -19.57936,4.542 -6.91864,1.62529 -14.29852,3.22829 -16.39973,3.56222 -2.10121,0.33394 -8.5905,2.15451 -14.42065,4.04571 -5.83014,1.8912 -15.32526,4.08326 -21.10026,4.87124 -22.16109,3.02381 -36.70724,4.80339 -42,5.1383 -3.025,0.19141 -7.59709,0.84062 -10.1602,1.44268 -2.56312,0.60207 -5.71312,1.24019 -7,1.41806 -11.53101,1.59374 -17.23183,2.83665 -27.47342,5.98984 -6.52651,2.00939 -13.34564,4.32981 -15.15362,5.15649 -1.80798,0.82668 -4.05798,1.66249 -5,1.85735 -1.5082,0.31198 -4.96379,1.62239 -11.71276,4.44164 -1.1,0.4595 -4.025,1.61285 -6.5,2.563 -2.475,0.95015 -5.64919,2.32729 -7.05375,3.06032 -3.14879,1.64333 -12.51631,5.04535 -16.10335,5.84827 -1.4614,0.32713 -3.44772,0.89816 -4.41404,1.26897 -1.18076,0.4531 -1.52533,0.29944 -1.05068,-0.46856 0.38844,-0.62852 2.59221,-1.65059 4.89725,-2.27128 2.30504,-0.62068 6.44854,-2.625 9.20778,-4.45405 2.75923,-1.82904 9.51679,-5.23377 15.01679,-7.56605 5.5,-2.33229 10.675,-4.79103 11.5,-5.46386 1.71265,-1.39677 14.60331,-6.67492 23.5,-9.6222 6.1972,-2.053 14.75881,-3.84799 29.54917,-6.19517 4.70205,-0.74619 9.42705,-1.83424 10.5,-2.41789 1.85881,-1.01112 12.17068,-2.68448 22.95083,-3.72435 2.75,-0.26527 7.7,-0.90885 11,-1.43017 3.3,-0.52133 10.5,-1.19619 16,-1.49969 5.5,-0.3035 11.73804,-1.03706 13.86232,-1.63013 2.12428,-0.59307 5.94928,-1.45182 8.5,-1.90834 9.70559,-1.73708 25.69957,-5.07236 27.13768,-5.65911 0.825,-0.33661 2.4,-0.73696 3.5,-0.88968 1.1,-0.15271 4.7,-0.961048 8,-1.796293 3.3,-0.835246 9.375,-2.263402 13.5,-3.173681 4.125,-0.910279 10.2,-2.262707 13.5,-3.005396 3.3,-0.742689 8.25,-1.628553 11,-1.968587 2.75,-0.340034 8.15,-1.042649 12,-1.561367 3.85,-0.518719 11.725,-1.39322 17.5,-1.943336 5.775,-0.550116 14.775,-1.655787 20,-2.457046 14.9089,-2.286295 44.59406,-2.323144 81,-0.100548 3.025,0.184678 11.125,0.63474 18,1.000139 6.875,0.365399 13.13518,0.875366 13.91151,1.13326 0.77633,0.257894 4.42343,0.725506 8.10467,1.039138 6.7301,0.573385 10.84207,-0.573226 14.98382,-4.178198 0.825,-0.718079 7.00921,-4.03365 13.74269,-7.367937 C 1009.1534,69.93976 1026.9181,63.371804 1046,57.873891 c 14.328,-4.128209 20.3267,-6.19829 34.4199,-11.878041 8.3725,-3.374179 15.7632,-5.52986 24.0801,-7.023536 6.6,-1.185324 12.9,-2.548198 14,-3.028607 1.1,-0.480409 5.6,-1.61847 10,-2.529023 4.4,-0.910554 9.575,-2.005972 11.5,-2.434263 1.925,-0.428291 5.975,-1.321713 9,-1.985383 3.025,-0.66367 7.075,-1.117235 9,-1.007922 1.925,0.109312 5.525,0.305808 8,0.436657 4.341,0.229504 4.4877,0.341023 4.1528,3.157067 -0.191,1.605538 -0.4925,3.070613 -0.6699,3.255721 -0.1775,0.185109 -3.3962,0.515755 -7.1528,0.734769 -7.9957,0.466162 -10.0209,0.786184 -10.9678,1.733059 C 1150.9797,37.686975 1148.7838,38 1146.4826,38 c -2.3013,0 -5.4888,0.450343 -7.0834,1.000762 -1.5945,0.55042 -6.9492,1.652682 -11.8992,2.449474 -4.95,0.796791 -11.7,2.178388 -15,3.070217 -3.3,0.891829 -9.15,1.746622 -13,1.89954 -4.9104,0.195037 -8.6418,1.031806 -12.5,2.803127 -3.025,1.388801 -7.975,3.323075 -11,4.298387 -3.025,0.975312 -6.4684,2.524531 -7.652,3.442709 -1.2386,0.960888 -4.3429,1.769386 -7.3142,1.904964 -2.8392,0.129552 -7.9458,1.05462 -11.348,2.055706 -3.4022,1.001087 -9.2285,2.603901 -12.9473,3.561808 -3.7189,0.957908 -7.008,2.140274 -7.3091,2.627479 C 1029.1283,67.601378 1027.9432,68 1026.7959,68 c -1.1473,0 -5.5083,1.603544 -9.691,3.563432 -4.1827,1.959887 -8.5049,3.912329 -9.6049,4.338759 -4.2252,1.637955 -16.22054,7.605841 -21,10.447847 -2.75,1.635232 -9.275,5.192243 -14.5,7.904468 -5.225,2.712226 -10.93248,6.014504 -12.68328,7.338404 -1.7508,1.3239 -3.48904,2.40709 -3.86276,2.40709 -0.73758,0 -11.70714,7.96051 -14.95396,10.85196 -3.45862,3.08007 -10.71033,7.71058 -19,12.13229 -4.4,2.34695 -8.45,4.57663 -9,4.95483 -1.8085,1.24358 -14.87282,5.89181 -21.5,7.64959 -3.575,0.94823 -7.01889,2.1226 -7.65308,2.6097 -2.00693,1.54146 -17.17237,5.36878 -29.34692,7.40632 -1.925,0.32217 -3.95,0.93075 -4.5,1.35239 -0.9041,0.6931 -6.93663,1.8089 -13.5,2.497 -1.375,0.14416 -4.50039,0.81697 -6.94531,1.49515 -6.98105,1.93641 -22.80935,4.82891 -30.93386,5.65292 -2.95855,0.30007 -6.47917,0.96379 -7.82361,1.47495 -1.34444,0.51115 -4.77381,1.1624 -7.62083,1.44722 -14.98318,1.49893 -24.93802,2.9806 -31.67639,4.7147 -4.125,1.06156 -9.3,2.27818 -11.5,2.70362 -8.27162,1.59956 -21.09169,5.14362 -23.54035,6.50764 -1.39719,0.77831 -4.54719,2.14277 -7,3.03214 -16.89643,6.12651 -28.61344,10.04549 -35.95965,12.0274 -4.675,1.26126 -12.55,3.49914 -17.5,4.97306 -4.95,1.47393 -11.35584,3.25763 -14.23521,3.96378 -2.87936,0.70614 -5.87054,1.81118 -6.64707,2.45564 -1.50214,1.24667 -10.23278,2.52073 -28.11772,4.10322 -12.84347,1.13641 -27.50746,4.2206 -36,7.57168 -3.3,1.30215 -8.78075,3.05907 -12.17944,3.90427 -3.3987,0.84519 -9.0237,2.88227 -12.5,4.52684 -3.47631,1.64456 -7.01806,2.99047 -7.87056,2.9909 -0.8525,4.3e-4 -1.9775,0.40869 -2.5,0.90724 -0.5225,0.49855 -3.875,1.83046 -7.45,2.9598 -3.575,1.12935 -8.525,2.80106 -11,3.71493 -5.78727,2.13689 -17.23883,5.30451 -23,6.36204 -5.75473,1.05635 -12.98913,3.72885 -22.23643,8.21448 -0.95504,0.46327 -3.09254,0.8423 -4.75,0.8423 -1.65746,0 -3.01357,0.41385 -3.01357,0.91966 0,0.50582 -4.28784,4.66832 -9.52852,9.25 -11.24778,9.83341 -25.21752,23.48678 -50.25354,49.11548 C 394.16281,319.57831 385.69528,328 385.40122,328 c -0.29407,0 -1.96714,1.07675 -3.71794,2.39277 -1.7508,1.31603 -5.06987,2.70121 -7.37571,3.07818 -2.30584,0.37696 -4.72344,1.32522 -5.37245,2.10722 -0.649,0.78201 -2.0785,1.42183 -3.17666,1.42183 -2.75575,0 -18.49913,10.13618 -24.1437,15.54463 -6.12606,5.8698 -10.93842,8.81942 -17.61957,10.79948 -3.61969,1.07275 -7.83149,3.51814 -12.34055,7.16497 -3.76494,3.04501 -8.48994,6.35077 -10.5,7.34613 -2.01005,0.99536 -6.57964,3.39515 -10.15464,5.33288 -3.575,1.93773 -7.74401,3.82332 -9.26446,4.1902 -1.52045,0.36689 -5.16532,2.8413 -8.09971,5.4987 l -5.33525,4.83163 -11.40029,0.16701 c -6.27016,0.0919 -15.00029,0.81459 -19.40029,1.60607 -4.4,0.79149 -11.825,1.94992 -16.5,2.57431 -4.675,0.62438 -10.18503,1.55889 -12.24451,2.07668 -2.05948,0.51779 -6.55948,1.17301 -10,1.45604 -3.44052,0.28304 -12.10549,1.11585 -19.25549,1.85071 -7.15,0.73485 -14.125,1.317 -15.5,1.29365 -5.00056,-0.0849 -17.54641,1.51171 -19.3421,2.46151 -1.01316,0.53589 -3.03816,1.14541 -4.5,1.35448 -7.42553,1.062 -19.98008,5.38298 -28.16143,9.6925 -5.62711,2.96408 -12.318438,5.47787 -21.99647,8.26361 -1.979616,0.56981 -2.252982,0.45959 -1.313289,-0.52951 z M 254.70633,392.59366 c 3.36841,-2.83433 4.81751,-3.1925 8.61689,-2.12977 3.97156,1.11088 5.45814,-0.62243 3.32543,-3.87736 -0.90676,-1.38389 -1.64865,-3.1519 -1.64865,-3.9289 0,-4.81934 -6.36417,-3.42364 -8.58094,1.88185 -0.8612,2.06115 -2.95651,4.43509 -4.95557,5.61456 -3.64887,2.15289 -4.28177,3.34911 -2.21349,4.18368 2.12529,0.85757 2.51096,0.7343 5.45633,-1.74406 z M 270.38797,368 c 2.65563,-6.78278 2.97836,-8.89668 3.37481,-22.10516 0.35805,-11.92885 0.15121,-15.16048 -1.12872,-17.6356 -1.46376,-2.83059 -1.43742,-3.17995 0.39942,-5.29784 1.08159,-1.24708 1.96652,-2.83619 1.96652,-3.53136 0,-0.69516 1.49014,-4.11381 3.31142,-7.59699 4.46596,-8.5411 9.03449,-24.17566 8.26416,-28.28187 -0.48436,-2.58186 -0.10608,-3.6418 2.00459,-5.61679 8.00963,-7.49478 14.30939,-21.37911 12.96117,-28.56574 -0.6769,-3.60818 -1.93807,-4.17826 -4.4626,-2.01722 -3.50653,3.00166 -9.97582,5.51754 -17.07874,6.64186 -4.125,0.65294 -8.4,1.49381 -9.5,1.8686 -1.1,0.37478 -4.7,0.38335 -8,0.019 -3.3,-0.36431 -10.32871,-1.14442 -15.61935,-1.73357 -9.82621,-1.09421 -13.28406,-2.12673 -18.12383,-5.41183 -1.50874,-1.02409 -3.15733,-1.60603 -3.66352,-1.29318 -0.50809,0.31402 -0.72582,4.93362 -0.48608,10.31323 0.71241,15.98554 5.68758,23.52336 17.56861,26.61798 3.07882,0.80193 6.88665,2.12452 8.46185,2.93909 1.57521,0.81457 4.8526,1.41496 7.2831,1.3342 3.77884,-0.12557 4.65426,-0.5715 6.04231,-3.07789 0.89277,-1.61208 2.1663,-3.11208 2.83007,-3.33334 1.85095,-0.61698 1.44087,3.25199 -0.73742,6.95723 -1.06934,1.81894 -2.45657,5.33216 -3.08274,7.80716 -3.6232,14.32118 -4.92805,21.04354 -4.94971,25.5 -0.0134,2.75 -0.87067,7.25 -1.90512,10 -1.03445,2.75 -1.77609,6.8 -1.64809,9 2.11792,36.40125 1.68983,34.62025 8.23501,34.26072 L 267.45153,375.5 Z M 161.70472,342.3271 c 0.97874,-2.55055 -3.0518,-5.25115 -6.95727,-4.66161 -8.0355,1.21298 -7.02609,5.99935 1.3048,6.18704 3.80295,0.0857 5.17647,-0.28499 5.65247,-1.52543 z m 10.56515,-4.97302 c 2.32657,-1.45526 6.25513,-4.30933 8.73013,-6.34238 2.475,-2.03306 5.21673,-4.10489 6.09273,-4.60408 1.70417,-0.97112 11.65809,-12.13032 18.69143,-20.9547 3.46368,-4.34571 4.99578,-5.47799 8,-5.91231 C 225.70467,297.81724 241,292.17253 241,289.49667 c 0,-0.64835 -2.3625,-2.44082 -5.25,-3.98328 -2.8875,-1.54246 -6.00573,-3.45498 -6.9294,-4.25003 -2.53056,-2.17819 -10.11681,-0.72546 -20.38632,3.90388 -2.23615,1.00802 -4.46007,1.83276 -4.94204,1.83276 -0.48197,0 -4.37444,2.29658 -8.64992,5.10352 -5.66995,3.72243 -8.505,6.36093 -10.4763,9.75 -1.48647,2.55556 -4.42316,6.67148 -6.52596,9.14648 -2.1028,2.475 -6.09346,7.3125 -8.86812,10.75 -2.77467,3.4375 -5.70345,6.25 -6.5084,6.25 -0.80495,0 -1.46354,0.1882 -1.46354,0.41821 0,0.23002 -0.25844,1.09171 -0.57432,1.91486 -0.47976,1.25024 5.79824,9.66693 7.21055,9.66693 0.22193,0 2.30707,-1.19066 4.63364,-2.64592 z M 276.5,251.83645 c 9.61853,-2.61102 19.8496,-6.31121 21.46307,-7.76237 5.11367,-4.59927 8.28214,-25.36881 5.92351,-38.8291 -0.29072,-1.65911 -7.59436,-10.1715 -12.18681,-14.20372 -10.65639,-9.35644 -15.78889,-22.38912 -13.792,-35.02132 0.68818,-4.35344 0.56058,-5.27854 -0.7939,-5.75556 C 274.40969,149.31201 272,146.78905 272,144.91011 c 0,-0.97895 -0.42646,-2.90158 -0.94769,-4.27252 -0.81037,-2.13143 -1.35057,-2.38486 -3.72811,-1.749 -2.80864,0.75114 -2.85577,0.8553 -4.8818,10.78892 -0.40198,1.97091 -0.94214,2.13845 -5.69326,1.76587 -5.47467,-0.42932 -7.69118,0.2924 -8.15924,2.65673 -2.23035,11.26615 -9.40944,24.54618 -18.4611,34.14971 -5.61554,5.9579 -9.60056,22.03598 -8.59278,34.66866 1.52496,19.11566 6.95093,24.8159 25.22773,26.50295 5.86244,0.54113 7.37095,0.39112 7.81942,-0.77757 1.52722,-3.97987 3.19173,-21.837 3.32245,-35.64386 0.15954,-16.84979 1.30414,-29.30437 3.76797,-41 1.76871,-8.39592 3.82923,-13.05516 2.8746,-6.5 -1.91057,13.1192 -2.48039,19.69633 -2.98896,34.5 -0.9156,26.65115 -1.80893,39.91288 -3.10474,46.09066 -0.34871,1.66247 0.01,3.0499 1.00105,3.87244 0.84945,0.70499 1.54446,1.82621 1.54446,2.49162 0,1.43983 9.28228,1.06957 15.5,-0.61827 z M 217.51487,196 c 10.70317,-9.40686 18.01027,-18.33727 22.60955,-27.6324 2.95177,-5.96551 4.92127,-14.3676 3.36785,-14.3676 -0.42409,0 -2.97902,1.35857 -5.67763,3.01904 -6.94321,4.2722 -12.94064,4.30559 -19.75931,0.11002 C 215.25837,155.40808 212.40755,154 211.72017,154 c -0.68738,0 -2.81812,-0.83381 -4.73498,-1.8529 -1.91685,-1.0191 -5.25667,-2.43171 -7.42181,-3.13915 -2.16515,-0.70743 -6.66515,-2.68612 -10,-4.39709 -5.1057,-2.61952 -7.11551,-4.52747 -12.72475,-12.07988 -8.72859,-11.75238 -12.12965,-14.54212 -13.47011,-11.04893 -0.91569,2.38623 6.22661,12.23404 21.13148,29.13611 2.11745,2.40118 5.8933,4.57575 12.83503,7.39191 5.40927,2.19446 10.64078,3.98993 11.62557,3.98993 0.9848,0 4.43403,1.1934 7.66497,2.652 3.23094,1.4586 8.03418,3.15979 10.67388,3.78043 4.95129,1.16413 6.19719,3.29285 1.62533,2.77701 -1.99087,-0.22463 -3.63597,0.84347 -7.25,4.70716 C 219.10365,178.66534 217,181.56849 217,182.36803 217,184.46294 207.89322,203 206.86405,203 206.38882,203 206,203.4875 206,204.08333 c 0,1.78748 1.41013,0.79759 11.51487,-8.08333 z m 54.02384,-60.87847 c 6.12112,-2.78047 11.8378,-9.92127 14.30522,-17.8689 2.85201,-9.1864 2.93516,-12.86793 0.43551,-19.281541 -1.17277,-3.009099 -2.40256,-7.505746 -2.73287,-9.99255 -0.77456,-5.831329 -5.28741,-9.614694 -14.45678,-12.119886 -8.34203,-2.279154 -9.68185,-2.278863 -12.93542,0.0028 -1.4599,1.023806 -4.31756,2.164636 -6.35035,2.535179 -4.16983,0.76009 -11.00762,7.607171 -13.53133,13.549725 -2.32074,5.464601 -0.39601,18.659623 4.39992,30.163793 2.24883,5.39437 9.50294,12.47713 13.99937,13.6687 6.00851,1.59227 12.46852,1.34051 16.86673,-0.65733 z m -15.62685,-7.72773 c -1.96642,-2.36939 0.75473,-4.22135 7.33814,-4.99417 5.29356,-0.62141 5.75,-0.51761 5.75,1.3077 0,1.09048 -0.7875,2.65149 -1.75,3.46891 -2.35544,2.0004 -9.7409,2.14212 -11.33814,0.21756 z M 257.25,110.28154 c -2.46139,-0.88257 -1.23527,-2.94821 1.75,-2.94821 1.65,0 3,0.35917 3,0.79815 0,1.1748 -3.3018,2.66933 -4.75,2.15006 z m -14,-3.27058 c -3.80795,-2.32175 -3.98821,-3.64546 -1.15122,-8.4538 2.31543,-3.924362 3.10212,-4.128486 8.91697,-2.313681 3.3309,1.039567 3.98425,1.678162 3.98425,3.894241 0,2.84401 -4.86046,8.86489 -7.15121,8.85854 -0.74183,-0.002 -2.81129,-0.89544 -4.59879,-1.9853 z m 6.36262,-4.52279 c 1.30714,-0.41488 1.37866,-0.79375 0.37756,-2 -1.52016,-1.831688 -2.11267,-1.850304 -4.45183,-0.13987 -2.04934,1.49851 -1.30619,3.82295 0.99368,3.10803 0.80738,-0.25098 2.19365,-0.68665 3.08059,-0.96816 z m 18.71,1.81561 c -2.98395,-0.58086 -4.12295,-2.20291 -4.88256,-6.953281 -0.6446,-4.031085 -0.62714,-4.058485 3.68571,-5.784146 l 4.33338,-1.733875 2.22246,2.583761 C 274.90396,93.837307 276.37565,95 276.95203,95 c 2.09585,0 0.97623,4.225587 -1.87511,7.07692 -1.60769,1.6077 -3.29519,2.8618 -3.75,2.7869 -0.4548,-0.0749 -1.80674,-0.32692 -3.0043,-0.56004 z m 5.47471,-5.157364 c 1.03738,-0.658053 0.98983,-1.078165 -0.23726,-2.096563 C 271.70466,95.509999 269,96.351492 269,98.468615 c 0,1.644495 2.67714,2.022735 4.79733,0.677801 z M 242,91.763396 c 0,-1.514621 4.70255,-3.394177 5.78467,-2.312064 C 248.08643,89.753099 247.73127,90 246.99541,90 c -0.73586,0 -2.16086,0.744744 -3.16667,1.654988 C 242.22544,93.10595 242,93.119315 242,91.763396 Z m 22.46512,-4.819831 c -0.77747,-1.257972 1.39425,-3.114184 3.03488,-2.593976 0.55,0.174393 1,0.948415 1,1.720049 0,1.769408 -3.07043,2.434442 -4.03488,0.873927 z M 379.49567,121.98806 C 387.38228,120.36284 397,115.48566 397,113.11156 c 0,-2.77808 -1.50299,-3.42015 -5.26955,-2.25114 -1.77675,0.55144 -6.94295,1.30527 -11.48045,1.67518 l -8.25,0.67256 v -2.80025 -2.80024 l -3.5476,3.43846 c -3.80707,3.68996 -3.96995,5.89969 -0.79631,10.80355 1.18548,1.83179 2.1073,2.21944 4.18228,1.75877 1.4639,-0.325 4.90968,-1.05417 7.6573,-1.62039 z m -220.92895,-4.60675 c 4.00728,-3.0565 4.17659,-3.96119 1.31198,-7.01043 -1.97776,-2.10522 -2.28154,-2.15304 -4.48916,-0.70655 -1.30232,0.85332 -4.73524,1.85861 -7.6287,2.23399 l -5.26084,0.6825 5.5,3.65895 c 3.025,2.01242 5.86752,3.68173 6.31672,3.70959 0.4492,0.0279 2.3617,-1.12777 4.25,-2.56805 z m 70.83993,-21.345819 c 1.48649,-0.565161 3.15852,-2.452371 4.03831,-4.558006 0.8258,-1.976424 2.41352,-4.874362 3.52825,-6.439862 1.11473,-1.5655 2.02679,-3.681151 2.02679,-4.701447 0,-4.572927 9.08312,-7.091317 28.46116,-7.891159 15.02061,-0.619987 15.87707,-0.557487 14.53415,1.060631 -1.27101,1.531472 -1.08967,2.020851 1.65879,4.476598 1.69719,1.516437 3.93182,2.669733 4.96585,2.562879 5.70452,-0.589489 16.15754,-8.07664 15.10509,-10.819279 -1.2812,-3.338738 -8.83981,-4.297243 -26.22504,-3.325586 -20.27955,1.133419 -25.19494,2.138936 -39.36415,8.05254 -7.12489,2.973614 -10.88873,5.380061 -16.38585,10.47646 -6.11031,5.664881 -4.32749,10.470656 4.4349,11.954739 0.3767,0.0638 1.82648,-0.318028 3.22175,-0.848508 z M 245.5,68.012785 c 8.24161,-2.320767 11.15811,-2.878276 17.05336,-3.259869 3.32936,-0.215505 6.59186,-0.72463 7.25,-1.131389 2.01896,-1.247784 1.47031,-9.063884 -0.77913,-11.099601 -1.64246,-1.486405 -3.20294,-1.703739 -9.25,-1.288281 -8.42869,0.579086 -22.74224,4.519406 -23.48932,6.466286 -0.28122,0.732845 -0.19734,3.845351 0.18639,6.91668 0.77132,6.173431 0.084,5.914911 9.0287,3.396174 z m 87.55628,360.092375 c -0.55775,-1.04217 -1.3065,-4.38283 -1.6639,-7.4237 -0.54458,-4.63357 -0.30183,-6.09191 1.49914,-9.00594 1.9896,-3.21924 3.91768,-4.67552 6.19027,-4.67552 1.48254,0 1.05454,4.92964 -0.72458,8.34571 -3.01616,5.79127 -3.35721,6.61827 -3.35721,8.14072 0,2.70092 1.72983,1.60395 3.52666,-2.23643 0.965,-2.0625 2.52882,-4.875 3.47514,-6.25 0.94632,-1.375 2.26795,-4.1875 2.93695,-6.25 0.66899,-2.0625 1.6049,-3.75 2.07979,-3.75 1.8518,0 1.98248,2.12109 0.42419,6.88528 -1.12465,3.43844 -1.32552,5.50174 -0.65266,6.70408 0.81842,1.46244 1.30685,0.97996 3.09097,-3.05335 1.16543,-2.63463 2.11896,-5.18915 2.11896,-5.6767 0,-0.48754 0.40708,-1.66784 0.90462,-2.62288 0.49754,-0.95504 1.5104,-4.62405 2.25081,-8.15337 1.50313,-7.16493 3.84457,-9.44768 3.84457,-3.74818 0,1.92585 0.27314,4.21335 0.60699,5.08333 0.70131,1.82758 3.39301,2.15326 3.39301,0.41053 0,-0.64419 0.60602,-1.88169 1.34672,-2.75 C 365.81788,396.35412 369,385.59085 369,382.33938 c 0,-1.11617 0.9,-2.84389 2,-3.83938 1.82715,-1.65355 2,-1.66423 2,-0.1236 0,2.21284 2.63559,3.17092 4.48977,1.63209 0.80536,-0.66839 2.64315,-3.62475 4.08398,-6.56969 3.10484,-6.34607 5.11608,-8.41066 5.9857,-6.14447 0.32071,0.83577 -0.50822,3.24895 -1.84208,5.36262 -1.33385,2.11368 -2.74254,4.84386 -3.13042,6.06707 -0.77174,2.43376 -4.99548,5.82997 -7.9709,6.40922 -1.29347,0.25181 -2.44371,2.13597 -3.6699,6.01153 -2.26636,7.16316 -4.1764,10.84864 -6.89971,13.3132 -1.80042,1.62936 -2.48357,1.75013 -4.11978,0.7283 -2.21928,-1.38596 -1.99813,-1.76918 -5.95209,10.31373 -2.22443,6.7976 -6.11878,12.5 -8.53666,12.5 -0.65335,0 -1.49141,-1.4625 -1.86235,-3.25 l -0.67444,-3.25 -1.93971,2.5 c -4.95266,6.38326 -6.30898,7.0876 -7.90513,4.10516 z M 47,427.125 c 0,-1.82809 18.310299,-4.04998 19.361301,-2.34942 0.390906,0.6325 -1.565787,1.04047 -5.238149,1.09217 -3.224181,0.0454 -7.075168,0.54371 -8.557749,1.10738 C 49.262384,428.23094 47,428.29186 47,427.125 Z m 76,-1.18402 c 0,-0.58246 0.45,-0.7809 1,-0.44098 0.55,0.33992 1,0.81648 1,1.05902 0,0.24254 -0.45,0.44098 -1,0.44098 -0.55,0 -1,-0.47656 -1,-1.05902 z m 3.90932,-0.0182 c -1.02567,-0.6493 -0.66071,-0.89633 1.34068,-0.90748 2.98623,-0.0166 3.52394,0.47372 1.40932,1.28518 -0.73738,0.28296 -1.97488,0.11299 -2.75,-0.3777 z M 59,414.66898 c 0,-1.5677 3.465403,-3.47345 7,-3.84954 3.642174,-0.38754 4.012148,1.48017 0.5,2.52411 -1.65,0.49044 -3.781394,1.28877 -4.736431,1.77408 C 59.428768,416.30406 59,416.23446 59,414.66898 Z m 12.542705,-1.59988 c -0.316431,-0.512 -0.117988,-1.21356 0.440983,-1.55902 C 73.177063,410.77253 75,411.70865 75,413.05902 c 0,1.2168 -2.706621,1.22469 -3.457295,0.0101 z M 78,412 c -1.173233,-0.7582 -0.913783,-0.97271 1.190983,-0.98469 1.480041,-0.008 2.969098,0.43469 3.309017,0.98469 0.789166,1.2769 -2.524143,1.2769 -4.5,0 z m 6,-4.93261 C 84,406.48032 84.81,406 85.8,406 c 0.99,0 2.254606,-0.45461 2.810235,-1.01024 1.227579,-1.22757 23.476465,-3.02778 28.707745,-2.3228 2.06208,0.27789 5.1682,0.0106 6.9025,-0.59398 1.97854,-0.68972 3.50512,-0.74738 4.09772,-0.15478 1.25252,1.25252 -12.75932,5.51915 -15.08215,4.59254 -2.88424,-1.15057 -22.721819,-0.4435 -27.170427,0.96843 C 84.858793,407.86221 84,407.691 84,407.06739 Z m 51,-6.01692 C 135,400.47271 136.33653,400 137.97006,400 c 2.16555,0 3.58764,-0.84058 5.25,-3.10319 C 146.45413,392.49496 162,385.04871 162,387.90149 c 0,0.51678 -1.4625,1.24963 -3.25,1.62856 -1.7875,0.37893 -4.68248,1.76468 -6.43328,3.07946 -1.7508,1.31477 -3.6082,2.39049 -4.12755,2.39049 -1.51019,0 -3.71386,3.16067 -3.41888,4.90362 0.21234,1.25467 -0.80442,1.6607 -4.75006,1.89685 -3.03164,0.18145 -5.02023,-0.11564 -5.02023,-0.75 z m 872.7522,-29.56661 c -0.5988,-3.13211 0.804,-6.20823 3.1741,-6.96047 2.934,-0.93121 4.0737,0.12939 4.0737,3.79094 0,2.76277 -0.4634,3.34134 -3.4169,4.26577 -3.1248,0.97804 -3.4523,0.88432 -3.8309,-1.09624 z m -6.1485,-28.0741 c -0.3356,-0.87464 -0.3693,-1.97998 -0.075,-2.45633 0.8993,-1.45515 3.4712,0.14046 3.4712,2.15356 0,2.2957 -2.5445,2.52254 -3.3963,0.30277 z M 328,334.47058 c 0,-1.42964 8.54596,-11.14189 10.85763,-12.33939 1.4533,-0.75284 3.76737,-2.40593 5.14237,-3.67352 1.375,-1.26759 5.65,-3.96933 9.5,-6.00386 3.85,-2.03454 8.10445,-4.30201 9.45434,-5.03882 1.34988,-0.73681 2.65962,-1.13436 2.91053,-0.88345 0.92634,0.92633 -3.16211,4.37483 -5.89946,4.97606 -1.55497,0.34153 -3.36341,1.26703 -4.01876,2.05668 -0.65535,0.78965 -1.74169,1.43572 -2.41411,1.43572 -0.67241,0 -2.07981,0.96579 -3.12755,2.1462 -1.04775,1.18041 -4.15499,3.6132 -6.90499,5.40621 -2.75,1.793 -7.00619,5.32722 -9.45821,7.8538 C 330.00173,334.56914 328,335.91572 328,334.47058 Z m 667.70677,-21.79235 c -0.77569,-2.0214 3.08763,-4.09375 4.87163,-2.6132 0.7819,0.64892 1.4216,1.79976 1.4216,2.55741 0,1.7951 -5.60673,1.8448 -6.29323,0.0558 z m -626.06588,-8.60092 c 1.72749,-1.05336 3.44155,-2.40168 3.80902,-2.99626 C 374.29044,299.72104 377,299.65918 377,301 c 0,2.1695 -4.10712,4.99988 -7.25,4.99626 l -3.25,-0.004 3.14089,-1.91521 z M 997.20015,289.94889 C 995.57721,287.35014 995.67218,287 998,287 c 1.31306,0 2,0.66667 2,1.94098 0,2.76038 -1.39238,3.26162 -2.79985,1.00791 z M 1008.989,220.75 c -2.1055,-3.45337 -2.4254,-4.98023 -1.2828,-6.12283 0.3884,-0.38839 1.4009,0.75565 2.25,2.54231 0.9139,1.92311 2.5335,3.48047 3.9697,3.81708 3.7053,0.86851 3.807,3.01344 0.1427,3.01344 -2.422,0 -3.5304,-0.70912 -5.0796,-3.25 z M 617.50333,197.0105 c -0.80542,-2.53766 1.14846,-5.30877 6.53751,-9.27192 4.06861,-2.99209 4.18183,-4.99848 0.16062,-2.8464 -1.05018,0.56204 -4.22513,1.93466 -7.05544,3.05026 -7.79839,3.07384 -6.74652,0.52739 4.09209,-9.90644 5.08097,-4.89121 8.94078,-9.19044 8.57737,-9.55385 -0.97138,-0.97139 -14.60291,7.25215 -15.83382,9.55212 -1.2803,2.39227 -2.55572,2.51811 -3.39352,0.33483 -0.76308,-1.98857 2.36007,-6.22569 12.14746,-16.48022 3.99542,-4.18612 7.2644,-7.87571 7.2644,-8.19908 0,-0.32338 -2.67476,0.73912 -5.94391,2.36112 -10.66985,5.29386 -11.52227,3.88562 -3.52023,-5.81563 3.04472,-3.69126 5.08406,-6.86198 4.53185,-7.04605 -0.89048,-0.29683 -6.43287,3.60225 -11.10271,7.81076 -4.19008,3.77615 -6.45382,5.2414 -11.64353,7.53654 -6.45528,2.85483 -8.87063,3.08071 -9.70455,0.90756 -0.67166,-1.75032 1.58383,-7.8321 3.29736,-8.89112 0.61509,-0.38015 0.85799,-1.11243 0.53979,-1.6273 -0.3182,-0.51486 -2.64757,0.52873 -5.17637,2.3191 -17.52935,12.41065 -27.35761,18.02991 -30.69943,17.55227 -1.52484,-0.21795 -2.16036,-1.14437 -2.38655,-3.47894 l -0.30828,-3.18189 -3.69172,2.14771 C 552.16127,165.46516 546.45,169.87045 541.5,174.07345 531.91671,182.21055 527.43017,185 523.92583,185 c -2.02039,0 -2.1417,-0.3834 -1.72212,-5.44288 0.53793,-6.48674 -0.34023,-6.37701 -6.8173,0.85184 -4.58901,5.12163 -5.81022,5.53617 -7.42434,2.52016 -1.50296,-2.80829 -0.27892,-5.98687 5.89651,-15.31211 2.77431,-4.18935 4.86225,-7.61701 4.63986,-7.61701 -0.22238,0 -1.55241,0.5231 -2.95561,1.16244 -1.40321,0.63934 -2.81284,0.90089 -3.13251,0.58121 -1.18373,-1.18373 3.94067,-10.1671 12.55924,-22.01706 1.42337,-1.95704 1.38698,-1.97663 -1.15769,-0.62357 -1.44498,0.76834 -5.15721,3.64698 -8.24939,6.39698 -5.99005,5.32719 -17.04352,12.5 -19.2628,12.5 -0.94054,0 -1.14447,-0.77024 -0.68675,-2.59393 0.64564,-2.57242 0.62714,-2.58156 -2.23095,-1.10221 -4.19736,2.17257 -12.78964,8.06204 -15.52116,10.6388 -1.29845,1.22488 -3.6064,2.87961 -5.12879,3.67717 -2.39556,1.25501 -2.8418,1.2577 -3.31676,0.0199 -0.77256,-2.01326 1.30356,-9.16154 3.09191,-10.64574 2.04095,-1.69384 1.87246,-3.27586 -0.50718,-4.76197 -2.60249,-1.62528 -2.56142,-5.46085 0.10935,-10.21285 2.21686,-3.94437 6.26726,-6.43644 12.30098,-7.56838 1.98647,-0.37266 3.85835,-1.07655 4.15973,-1.5642 0.30139,-0.48765 1.42142,-0.88664 2.48896,-0.88664 2.65406,0 2.45147,-0.72071 -1.14768,-4.08282 -1.69876,-1.58688 -2.90157,-3.45492 -2.6729,-4.15121 0.37547,-1.14334 3.25125,-3.32886 8.37572,-6.36534 1.64749,-0.9762 1.32491,-1.33399 -2.87941,-3.19377 C 488.83394,113.48135 488,112.65306 488,110.50421 c 0,-1.99899 0.70077,-2.85254 3,-3.65405 3.36028,-1.1714 3.69438,-2.02898 1.5,-3.85016 -0.825,-0.68469 -1.5,-2.52823 -1.5,-4.096765 0,-2.146669 0.72955,-3.229142 2.95034,-4.377555 1.62269,-0.839124 3.42269,-1.52568 4,-1.52568 1.98391,0 1.04756,2.0503 -1.3532,2.963068 -1.32157,0.502461 -2.71031,1.411035 -3.08609,2.019054 -1.78206,2.883438 6.97217,6.899998 10.6956,4.907288 1.3808,-0.73899 2.34842,-0.67363 3.44006,0.23235 1.28838,1.06926 0.70964,1.52499 -3.81392,3.00324 -2.93304,0.95849 -6.25928,1.77247 -7.39166,1.80885 -1.13238,0.0364 -2.88805,0.67246 -3.90149,1.41351 -1.5239,1.1143 -1.6002,1.50084 -0.44113,2.23468 0.77082,0.48804 1.62649,0.92911 1.90149,0.98018 5.34922,0.99326 8.48635,1.45906 13.2635,1.96938 3.16993,0.33863 5.53782,0.98086 5.26198,1.42717 -0.27584,0.44632 -4.57467,1.81793 -9.55296,3.04802 -4.97829,1.23009 -10.04618,3.05275 -11.26198,4.05036 -2.0097,1.64903 -2.06816,1.95882 -0.64348,3.40968 0.86188,0.87772 3.92645,1.96883 6.81016,2.42468 7.21046,1.13982 8.49206,2.70426 2.96868,3.62382 -6.54113,1.08901 -14.72313,4.35882 -20.62204,8.24128 -6.10722,4.01955 -7.95526,6.65718 -6.17081,8.80731 1.65756,1.99724 3.54012,1.79674 6.97514,-0.74289 4.41174,-3.26174 5.04349,-1.11874 0.74352,2.52214 -4.70833,3.98666 -10.25099,12.57755 -8.95251,13.87603 0.59662,0.59662 2.27435,-0.37942 4.5308,-2.63587 1.97083,-1.97083 4.03268,-3.58333 4.58187,-3.58333 0.5492,0 2.4767,-1.25254 4.28333,-2.78342 4.45928,-3.77862 10.78294,-7.77114 15.29375,-9.65587 C 506.15541,144.61929 507,144.60995 507,146.5 c 0,0.825 0.29346,1.5 0.65214,1.5 0.75209,0 7.08202,-4.61559 14.74281,-10.75 2.91913,-2.3375 5.76935,-4.25 6.33383,-4.25 0.56448,0 1.58653,-0.675 2.27122,-1.5 1.34679,-1.62278 7,-2.08921 7,-0.57755 0,0.50735 -2.1783,2.86985 -4.84067,5.25 -4.52413,4.04456 -14.85195,17.49334 -14.02996,18.26967 0.20385,0.19252 3.29563,-1.58011 6.87063,-3.93917 3.575,-2.35907 6.8375,-4.08575 7.25,-3.83706 1.88367,1.1356 0.37439,4.22456 -3.74771,7.67021 -4.10319,3.42984 -14.8464,16.70133 -17.4349,21.53798 -2.89887,5.41658 -0.69353,4.9086 6.82284,-1.57158 4.33962,-3.74137 9.29318,-7.61754 11.0079,-8.6137 2.7503,-1.59778 3.18739,-1.62951 3.70937,-0.26925 0.37202,0.96947 -0.53017,2.48594 -2.42999,4.08454 -3.88103,3.26567 -7.85435,11.21907 -6.3542,12.71922 0.76533,0.76533 1.84757,0.52832 3.76561,-0.82466 1.48039,-1.04426 3.41599,-2.34865 4.30135,-2.89865 0.88535,-0.55 3.23136,-2.35 5.21334,-4 15.86966,-13.21145 30.37956,-22.13464 33.04975,-20.32468 1.05558,0.71551 0.8063,1.27724 -1.15336,2.59893 -4.30264,2.90193 -9.17643,8.13126 -8.53927,9.16221 0.39987,0.64701 1.49799,0.64953 3.18713,0.007 3.1795,-1.20884 14.66796,-7.88444 15.35214,-8.92066 0.275,-0.4165 2.975,-2.34299 6,-4.2811 3.025,-1.9381 6.625,-4.51681 8,-5.73047 3.51977,-3.10677 9.48332,-6.01155 12.34179,-6.01155 2.15632,0 1.72268,0.71268 -3.96016,6.50851 -5.83221,5.94817 -7.68656,9.56696 -5.572,10.87384 1.53784,0.95043 12.35128,-5.32872 17.88271,-10.38414 3.05219,-2.78953 6.95754,-5.797 8.67855,-6.68326 1.72101,-0.88626 4.52159,-2.66968 6.2235,-3.96316 5.75441,-4.37345 8.071,-1.75292 2.65453,3.0028 C 628.67429,143.49317 619.44763,155 620.50563,155 c 1.60007,0 11.98255,-5.32603 18.39504,-9.43633 8.05061,-5.16031 9.37266,-5.50472 8.91888,-2.32344 -0.21536,1.50982 -2.92792,4.01562 -8.31955,7.68543 -7.78744,5.30051 -25.05055,21.85712 -23.94379,22.96389 0.3039,0.30389 0.86557,0.0623 1.24816,-0.53675 0.3826,-0.5991 2.49563,-1.958 4.69563,-3.01976 2.2,-1.06177 7.22851,-3.82106 11.17447,-6.13177 3.94596,-2.3107 7.65846,-4.20127 8.25,-4.20127 2.13508,0 0.99667,1.95056 -3.03111,5.19354 C 630.15861,171.42118 617.11493,185 618.86746,185 c 0.61954,0 4.6153,-1.87221 8.87948,-4.16047 4.26418,-2.28825 8.87806,-4.76048 10.25306,-5.49384 7.21215,-3.84659 6.52184,0.29702 -0.91902,5.51649 -3.25546,2.28357 -6.06796,4.49399 -6.25,4.91203 -0.18204,0.41805 -2.69348,2.47819 -5.58098,4.57811 C 620.48293,193.81913 618.44933,197 621,197 c 0.55,0 1,0.45 1,1 0,1.86308 -3.86095,1.01347 -4.49667,-0.9895 z M 613.5,120 c 0.33992,-0.55 1.04148,-1 1.55902,-1 0.51754,0 0.94098,0.45 0.94098,1 0,0.55 -0.70156,1 -1.55902,1 -0.85746,0 -1.2809,-0.45 -0.94098,-1 z m 14.23039,-3.25904 c 3.42672,-1.16243 6.54672,-1.79718 6.93334,-1.41057 1.35404,1.35405 -1.21543,2.41902 -7.16373,2.96916 l -6,0.55492 z m 9.48144,-0.61004 c -0.82424,-0.50941 0.66296,-1.44334 4.22819,-2.6552 3.02481,-1.02816 5.83769,-1.53134 6.25085,-1.11818 1.06493,1.06493 -1.72149,2.60902 -4.74087,2.62715 -1.4025,0.008 -2.98126,0.44657 -3.50836,0.97367 -0.5271,0.5271 -1.53051,0.60475 -2.22981,0.17256 z M 130,114.05902 c 0,-0.51754 0.44485,-1.21592 0.98855,-1.55194 0.56686,-0.35034 0.7345,0.0511 0.39301,0.94098 C 130.71677,115.18048 130,115.49745 130,114.05902 Z m 527.5,-3.48192 c 2.89772,-1.29145 22.59683,-4.00154 37,-5.09025 7.649,-0.57818 17.41899,-2.39797 19,-3.539 0.55,-0.39695 3.025,-1.03319 5.5,-1.41388 2.475,-0.38069 7.2,-1.523459 10.5,-2.539487 C 743.52323,93.676908 745.95621,93 747.45147,93 c 0.86662,0 2.35706,-0.402312 3.3121,-0.894027 1.727,-0.889171 10.46394,-2.891666 15.23643,-3.49217 11.37192,-1.430885 14.97094,-2.058738 18.10661,-3.158718 1.98364,-0.695852 6.59614,-1.585337 10.25,-1.976632 C 798.01047,83.087157 801,82.36943 801,81.883503 c 0,-0.485927 -0.1125,-0.886109 -0.25,-0.889295 -0.1375,-0.0032 -2.95,-0.448307 -6.25,-0.989159 -9.75428,-1.598674 -38.74752,-2.373102 -44.17292,-1.179887 C 747.67219,79.409057 741.225,80.135131 736,80.438659 722.67614,81.212662 715.73006,82.519153 709.30839,85.459092 702.8819,88.401234 702,88.531086 702,86.535184 c 0,-2.909932 9.73384,-6.188277 24,-8.083166 5.775,-0.767059 14.1,-1.949358 18.5,-2.62733 8.15864,-1.257121 10.02617,-1.280735 30.98245,-0.391752 17.91559,0.759995 26.1755,1.596889 28.18988,2.856198 0.64478,0.403092 3.11978,0.7499 5.5,0.770685 2.38022,0.02078 5.45267,0.07209 6.82767,0.114022 4.99576,0.152333 18.98907,-1.964373 27.5,-4.159803 12.33347,-3.18147 19.5353,-4.200912 33.5,-4.742031 8.525,-0.330336 16.85,-0.577346 18.5,-0.548912 1.65,0.02844 7.725,0.135398 13.5,0.237697 9.29838,0.164712 18.9136,0.864639 35.5,2.584176 2.75,0.285097 6.8,0.687438 9,0.894093 2.2,0.206654 6.42392,0.867406 9.38649,1.468337 C 965.84906,75.508329 968.43656,76 968.63649,76 968.83642,76 969,76.727484 969,77.616631 c 0,1.191664 -0.59146,1.455319 -2.25,1.002978 C 965.5125,78.2821 959.1,77.533102 952.5,76.95517 945.9,76.377237 937.21723,75.55944 933.20496,75.137842 923.72499,74.141715 874.52909,74.738239 861,76.013362 c -19.33226,1.822075 -27.47458,2.864878 -31,3.970231 -3.47201,1.088607 -10.17633,2.071187 -27.5,4.030381 -8.18018,0.925125 -25.8015,4.336842 -29.5,5.711585 -0.825,0.306655 -3.525,0.732186 -6,0.945626 -5.54647,0.478316 -10.87145,1.630139 -22.5,4.866866 -4.95,1.377799 -10.125,2.733392 -11.5,3.012429 -1.375,0.279037 -3.175,0.763135 -4,1.075773 -0.825,0.312638 -2.85,0.764667 -4.5,1.004517 -2.75097,0.39989 -9.05839,2.34816 -14,4.3244 -5.41635,2.1661 -29.76888,5.36026 -50.5,6.62375 -5.31066,0.32367 -5.39672,0.28918 -2.5,-1.00182 z M 505,89.318614 c 0,-7.335403 7.85723,-12.808677 22.5,-15.6733 9.81275,-1.919707 14.84442,-0.175089 11.41449,3.957721 -1.18572,1.428698 -1.4317,1.410127 -2.60671,-0.196797 -1.24191,-1.698418 -1.62937,-1.696832 -9.05261,0.03705 C 515.65413,80.15301 508,84.377895 508,88.071654 c 0,2.146438 1.90822,2.962011 4.18931,1.790514 1.04471,-0.536528 1.94147,-0.459579 2.35014,0.201659 0.98845,1.599349 0.0232,2.118428 -4.99005,2.683495 L 505,93.260105 Z m 63,-12.215022 c 0,-1.519262 6.45789,-6.66275 11.3215,-9.01718 2.88924,-1.39866 7.38676,-2.445467 12.00852,-2.79501 6.42467,-0.485896 7.76653,-0.287879 10.2796,1.51696 2.80695,2.015886 3.15017,2.032949 11.89038,0.59112 9.51763,-1.570076 13.5,-1.263119 13.5,1.040566 0,1.033377 -1.906,1.517163 -7.25,1.840211 -10.47131,0.632996 -21.90356,2.637982 -24.46482,4.290631 C 592.53911,76.342795 592,76.357502 592,74.660515 c 0,-0.736717 1.125,-1.852069 2.5,-2.478561 C 599.02074,70.122168 596.96387,68 590.44673,68 586.31616,68 577.62617,71.733339 573.35564,75.342558 570.17616,78.029686 568,78.745249 568,77.103592 Z"/>
</svg>
