<?xml version="1.0" encoding="utf-8"?>

<svg xmlns="http://www.w3.org/2000/svg" version="1.1" viewBox="0 0 1189 697">











	<path d="m 845.73633,36.171875 c -2.10582,0.09832 -3.41174,1.263265 -7.78321,5.484375 -6.44677,6.22511 -14.13546,10.118579 -25.42968,12.875 -3.31246,0.808424 -10.29844,2.765828 -15.52344,4.349609 -5.225,1.58378 -13.55,4.108534 -18.5,5.611329 -4.95,1.502791 -11.25,3.16604 -14,3.695312 -2.75,0.529273 -7.475,1.80442 -10.5,2.833984 -21.99624,7.486456 -21.74402,7.370706 -24.93945,11.396485 -3.00879,3.790693 -3.10445,4.215828 -2.91993,13 0.15393,7.327991 -0.25984,10.336891 -2.14453,15.582031 -1.45879,4.05984 -2.40923,9.12786 -2.53125,13.5 -0.10746,3.85 -1.3332,11.725 -2.72461,17.5 -4.5486,18.87879 -4.47276,19.5 2.41797,19.5 h 4.23242 l 2.35938,7 c 2.22733,6.60609 2.31861,8.12684 0.77734,13.00781 -0.48235,1.52753 0.75568,3.49837 5.16993,8.23438 3.19187,3.42454 7.54962,8.25876 9.68359,10.74219 3.42567,3.98661 4.36235,4.51815 8,4.53124 2.43906,0.009 7.79115,-1.46178 13.11914,-3.60351 4.95,-1.98979 10.8,-4.29659 13,-5.12695 8.97621,-3.38794 12.32369,-4.99836 19.73633,-9.49414 4.27055,-2.59009 7.76367,-4.286 7.76367,-3.76954 0,0.51646 -0.74186,2.7909 -1.64844,5.05664 -1.36611,3.41427 -1.41622,4.26329 -0.29687,4.95508 0.74281,0.45908 1.67736,0.63245 2.07812,0.38477 1.27676,-0.78909 1.99397,1.47377 1.04883,3.31055 -2.43651,4.73513 2.19867,5.66474 8.04492,1.61328 l 3.83594,-2.65625 2.71875,2.53515 c 1.49548,1.39439 3.64902,3.01236 4.78711,3.59571 1.97328,1.01144 2.05397,1.7234 1.71289,15.37109 -0.19671,7.87135 -0.81999,17.21834 -1.38477,20.76953 -0.56478,3.55119 -1.26032,9.17619 -1.54492,12.5 -0.28461,3.32381 -1.19785,9.19297 -2.02929,13.04297 -0.83144,3.85 -1.89314,9.025 -2.35938,11.5 -2.03114,10.7823 -4.93403,22.99755 -5.86523,24.67773 -0.97925,1.76686 -4.07825,11.93765 -4.76954,15.6543 -0.63058,3.39035 -5.61612,10.86027 -10.52343,15.76758 -5.60995,5.60995 -14.00303,11.51164 -23.01758,16.18359 C 764.01131,353.38621 759,357.24277 759,360.20508 c 0,2.87455 2.57196,3.22536 10.18164,1.38867 4.76476,-1.15004 7.38601,-1.36822 8.21094,-0.68359 1.93135,1.60288 1.79619,8.0325 -0.32422,15.39843 -2.09726,7.28548 -1.88219,9.69141 0.87109,9.69141 0.94949,0 2.01852,0.29195 2.375,0.64844 0.35649,0.35648 2.79529,0.81202 5.41797,1.01172 3.46684,0.26398 5.54256,-0.153 7.60742,-1.52735 2.29626,-1.52837 3.37027,-1.69013 5.60743,-0.8457 2.32144,0.87624 3.53212,0.61533 7.51953,-1.61328 2.61403,-1.46101 5.06091,-2.46517 5.4375,-2.23242 0.3766,0.23275 0.52853,4.6154 0.33789,9.74023 -0.47439,12.75237 0.13807,15.44693 3.96093,17.42383 4.351,2.24998 13.59742,3.35904 17.28516,2.07422 2.98964,-1.04159 5.93344,-4.04974 8.18555,-8.36524 1.01749,-1.94971 5.00125,-19.84056 6.75,-30.31445 0.32141,-1.925 0.82827,-4.625 1.12695,-6 0.50399,-2.32022 2.89846,-16.42124 4.01367,-23.63867 0.26668,-1.72586 1.52147,-4.20086 2.78907,-5.5 3.49449,-3.58145 8.09658,-22.91152 9.25195,-38.86133 0.29881,-4.125 0.96195,-9.134 1.47461,-11.13086 0.51266,-1.99687 1.19844,-5.82187 1.52344,-8.5 0.94935,-7.82323 1.07635,-8.54499 2.71875,-15.36914 0.86042,-3.575 1.88542,-7.85 2.27734,-9.5 0.39191,-1.65 0.82425,-3.45 0.95898,-4 0.13473,-0.55 1.16254,-5.43681 2.28516,-10.85938 1.12263,-5.4225 2.26329,-10.08164 2.53516,-10.35351 0.27187,-0.27187 3.9542,0.90247 8.18164,2.60937 4.22744,1.7069 8.46365,3.10352 9.41406,3.10352 0.95041,0 3.70753,1.07054 6.12695,2.37891 2.41942,1.30837 6.79736,3.67087 9.72852,5.25 2.93116,1.57913 7.12364,4.51765 9.3164,6.52929 3.23439,2.96723 3.80357,4.00526 3.01954,5.5 -0.53153,1.01336 -2.21477,4.9918 -3.74024,8.8418 -1.52546,3.85 -4.27018,10.24106 -6.09961,14.20312 -1.82942,3.96209 -3.32617,7.45529 -3.32617,7.76172 0,0.30643 -0.86078,2.46537 -1.91211,4.79688 -2.46684,5.47059 -6.14882,14.42 -9.5625,23.23828 -1.49038,3.85 -3.74717,9.25 -5.01367,12 -1.26651,2.75 -3.64863,8.825 -5.29297,13.5 -1.64434,4.675 -4.3903,11.39277 -6.10352,14.92773 C 882.40201,356.4627 881,359.8804 881,360.52344 c 0,0.64303 -0.78019,2.70026 -1.73438,4.57226 -0.95416,1.872 -2.25562,5.2043 -2.89257,7.4043 -0.63694,2.2 -3.86699,11.875 -7.17578,21.5 -5.74174,16.70223 -15.8187,49.16735 -16.63477,53.58984 -0.21208,1.14928 -1.53139,6.84382 -2.93164,12.6543 -1.40025,5.81048 -3.29132,14.99491 -4.20313,20.41016 -0.91182,5.41524 -2.06523,12.0957 -2.5625,14.8457 -0.49726,2.75 -1.5515,9.275 -2.34179,14.5 -0.79029,5.225 -1.71153,10.85 -2.04688,12.5 -0.67689,3.33048 -1.06435,7.36977 -2.08594,21.75391 -0.61095,8.60282 -0.4791,9.99043 1.11329,11.75 1.59407,1.76142 1.63566,2.20113 0.35156,3.74609 -0.79999,0.9625 -2.27628,3.3528 -3.28125,5.3125 -2.95675,5.76569 -4.31479,7.17046 -7.27539,7.51758 -1.53886,0.18042 -4.82141,1.04261 -7.29297,1.91601 -4.56997,1.61494 -16.06228,4.1902 -21.50586,4.82032 -1.65,0.19099 -6.6,1.1437 -11,2.11523 -4.4,0.97153 -9.04237,1.96269 -10.31641,2.20313 -3.58596,0.67675 -2.27867,3.47012 2.82032,6.02539 9.93511,4.9788 17.87531,6.48373 35.21093,6.66796 l 16.25391,0.17188 0.15039,3.81055 c 0.19621,5.02956 3.42417,8.37003 9.83398,10.16992 9.90166,2.78038 15.47411,1.93813 15.58985,-2.35352 0.0241,-0.89516 0.7184,-3.42695 1.54101,-5.62695 0.82261,-2.2 1.68531,-5.27383 1.91797,-6.83008 0.23265,-1.55625 1.13974,-5.60625 2.01563,-9 0.87589,-3.39375 2.23682,-9.76992 3.02344,-14.16992 1.9839,-11.09697 2.33082,-12.70387 2.85546,-13.22852 0.9749,-0.97489 32.55105,-0.37035 34.47657,0.66016 1.09777,0.5875 3.34825,1.06836 5.00195,1.06836 1.6537,0 3.28931,0.45668 3.63477,1.01562 0.34546,0.55899 1.05537,0.75277 1.57812,0.42969 0.52275,-0.32307 2.49639,-0.0783 4.38477,0.54492 1.88838,0.62322 5.36709,1.14947 7.73046,1.16797 2.60555,0.0204 7.41662,1.37326 12.22266,3.4375 4.35934,1.87238 8.46077,3.4043 9.11328,3.4043 2.00251,0 15.36041,5.79143 18.47852,8.01172 1.61782,1.15199 3.80577,2.26118 4.86328,2.46484 1.05752,0.20366 3.31769,1.0916 5.02148,1.97266 1.70378,0.88106 3.09766,1.33438 3.09766,1.00781 0,-0.32658 1.31231,0.34048 2.91602,1.48242 1.60372,1.14195 4.41622,2.36797 6.25,2.72266 1.83379,0.35468 6.65122,2.18456 10.70507,4.06836 4.61511,2.14458 8.20281,3.21724 9.59771,2.86719 1.225,-0.30748 6.6023,0.5499 11.9492,1.90625 5.3469,1.35635 12.6221,2.67528 16.1679,2.93164 7.4312,0.53727 8.7977,1.1288 7.9082,3.41601 -0.3526,0.90687 -0.6102,5.74991 -0.5742,10.76367 0.092,12.72509 -3.0347,20.27111 -11.1015,26.79102 -3.1254,2.52608 -6.0504,4.60579 -6.5,4.62109 -0.4495,0.0153 -2.5678,1.35133 -4.7051,2.96875 -2.1373,1.61741 -6.1873,3.62112 -9,4.45118 -2.8127,0.83006 -7.5953,3.01637 -10.6289,4.85937 -5.36011,3.25633 -5.78348,3.34368 -15.00002,3.07227 -5.21638,-0.1536 -13.53438,-0.51669 -18.48438,-0.80664 -4.95,-0.28996 -14.97537,-0.57567 -22.2793,-0.63477 -7.30394,-0.0591 -16.82948,-0.67643 -21.16797,-1.37109 C 911.84987,656.61251 891,657.55505 891,660.06055 c 0,0.49582 1.2375,1.15803 2.75,1.4707 3.22043,0.66573 9.11615,2.25733 14.75,3.98242 2.2,0.67361 6.025,0.9932 8.5,0.71094 7.38091,-0.84175 31.55232,-0.69073 46,0.28711 7.425,0.50253 15.75,0.83162 18.5,0.73242 18.5214,-0.66794 51.7256,0.91703 69,3.29297 2.2,0.30259 7.7184,0.68641 12.2637,0.85351 4.5453,0.16711 8.559,0.59819 8.9179,0.95704 1.3547,1.35473 4.3035,0.564 7.0118,-1.87891 l 2.8066,-2.53125 -2.2051,-1.56055 -2.2051,-1.56054 2.4551,-3.88868 c 4.6601,-7.38211 5.8656,-11.61442 4.5528,-15.99609 -0.6471,-2.15974 -2.0826,-4.77147 -3.1895,-5.80273 -1.7446,-1.6254 -2.0202,-3.18967 -2.0742,-11.75196 -0.14,-22.20254 0.4804,-36.9624 1.6562,-39.37695 1.0834,-2.22482 2.9625,-8.87781 4.0957,-14.5 0.3954,-1.96206 1.5815,-12.03241 1.6485,-14 0.193,-5.661 -1.5712,-44.85699 -2.2949,-50.98828 -0.9431,-7.99037 -1.2534,-46.46823 -0.4356,-54.01172 0.2385,-2.2 1.1751,-8.5 2.082,-14 0.9069,-5.5 1.7724,-11.35 1.9219,-13 0.3437,-3.79335 1.5521,-14.9873 2.0762,-19.23047 0.2195,-1.77667 0.8607,-5.29284 1.4258,-7.81445 0.57,-2.52161 0.8219,-4.91909 0.5703,-5.32617 -0.2516,-0.40708 -0.081,-2.40883 0.3789,-4.44922 1.0038,-4.45062 -0.4401,-37.03844 -1.8789,-42.39649 -0.5588,-2.0811 -1.2989,-5.57117 -1.6446,-7.75586 -0.3457,-2.18469 -1.2051,-5.55969 -1.9082,-7.5 -0.7031,-1.94031 -2.3008,-6.90234 -3.5507,-11.02734 -1.2499,-4.125 -3.1063,-9.33027 -4.125,-11.56641 -1.0186,-2.23615 -1.8516,-4.40091 -1.8516,-4.8125 0,-1.7432 -10.454,-21.70478 -19.25,-36.75586 -2.6125,-4.47031 -4.75,-8.57591 -4.75,-9.125 0,-0.54909 -2.1146,-5.01014 -4.6992,-9.91211 -5.8733,-11.13946 -16.0719,-21.96486 -24.8008,-26.32617 -3.3,-1.64881 -8.5131,-4.61477 -11.584,-6.59179 -6.8918,-4.43685 -12.3394,-7.32589 -16.916,-8.97071 -1.925,-0.69184 -4.625,-2.28336 -6,-3.53515 -1.375,-1.2518 -5.97383,-3.4066 -10.2207,-4.78907 -8.41511,-2.73936 -13.54276,-5.93268 -14.81055,-9.22461 -0.44673,-1.15996 -2.98504,-3.36219 -5.64063,-4.89453 -7.01184,-4.04604 -17.69322,-12.95488 -22.58398,-18.83593 -2.33423,-2.80685 -4.97696,-5.85006 -5.87305,-6.76172 -0.89609,-0.91165 -3.428,-4.07344 -5.62695,-7.02735 -5.37751,-7.22373 -8.33414,-9.6623 -23.79687,-19.62695 -2.48313,-1.60021 -9.41586,-4.94524 -11.69727,-5.64453 C 887.7875,127.30459 887,126.14852 887,125.03125 887,123.91399 886.55,123 886,123 c -0.55,0 -1,0.47858 -1,1.0625 0,1.22989 -4.14822,0.69812 -11.5,-1.47266 -2.75,-0.812 -8.375,-1.75816 -12.5,-2.10156 -4.125,-0.34339 -7.89454,-1.00968 -8.37695,-1.48242 -0.4973,-0.48731 1.29373,-3.06689 4.13672,-5.95508 5.46269,-5.54954 11.02291,-15.310957 13.79101,-24.214842 1.504,-4.837779 1.58971,-6.505538 0.59766,-11.445313 -0.63877,-3.180675 -2.05761,-7.636869 -3.1543,-9.902344 C 866.89744,65.222806 866,61.990648 866,60.306641 c 0,-1.684007 -0.62707,-3.583763 -1.39453,-4.220703 -0.76747,-0.636942 -1.70068,-2.777084 -2.07227,-4.757813 -0.60419,-3.220597 -7.81844,-14.25096 -9.40429,-14.378906 -0.34642,-0.02795 -2.54072,-0.295566 -4.87696,-0.59375 -1.02288,-0.130555 -1.81368,-0.216368 -2.51562,-0.183594 z m 0.23242,6.978516 c 0.0208,2.81e-4 0.0312,0.01 0.0312,0.03125 0,0.34067 -1.1206,3.026637 -2.49023,5.96875 -1.36963,2.942114 -2.495,5.912109 -2.5,6.599609 -0.0186,2.386247 2.50312,1.218389 4.86914,-2.255859 C 848.09176,50.245106 850,48.979882 850,50.763672 c 0,0.420264 -0.9,3.226857 -2,6.236328 -1.1,3.009471 -2,6.041064 -2,6.736328 0,2.700279 2.6519,0.990007 5.91016,-3.8125 2.35765,-3.475043 3.64968,-4.63433 4.1914,-3.757812 0.77381,1.252047 0.19182,2.380304 -3.28711,6.378906 -1.83691,2.111304 -6.80354,11.376172 -6.81054,12.705078 -0.002,0.4125 0.83417,0.75 1.85937,0.75 1.05034,0 3.09162,-1.770702 4.67578,-4.056641 3.01914,-4.356624 8.17223,-8.566054 9.21289,-7.52539 0.98617,0.986169 -1.50421,11.672923 -3.74414,16.066406 C 856.90368,82.650066 856,85.002229 856,85.710938 c 0,2.725035 3.17623,1.096651 6.18359,-3.169922 3.25433,-4.616948 5.41234,-5.24021 3.8418,-1.109375 -0.49387,1.298977 -0.64496,2.614809 -0.33594,2.923828 1.28607,1.28607 -11.60671,23.648311 -16.94726,29.394531 -3.71606,3.99834 -4.93566,2.45887 -2.2168,-2.79883 0.83901,-1.62269 1.22007,-2.95117 0.8457,-2.95117 -0.37436,0 0.005,-0.7875 0.8418,-1.75 1.87444,-2.15525 1.67277,-5.2487 -0.5625,-8.660156 C 845.85982,94.857096 844.52299,94.344773 843.5,96 c -0.91522,1.480852 -2.20438,1.214162 -2.90039,-0.599609 -0.33751,-0.879529 -1.10421,-5.942029 -1.70508,-11.25 C 837.45163,71.404109 837.42042,71.214446 836.01172,66 c -2.83418,-10.491088 -2.73885,-10.911532 3.92383,-17.46875 3.1271,-3.077609 5.72116,-5.38508 6.0332,-5.380859 z m -377.54687,9.207031 c -0.72918,-0.02674 -1.33965,0.0032 -1.79688,0.09766 -1.71849,0.354918 -5.30326,0.853129 -7.96484,1.107422 -2.66158,0.254293 -5.61131,0.875979 -6.55469,1.380859 -0.94337,0.504881 -4.61512,0.764466 -8.16016,0.576172 -6.40777,-0.340347 -8.50975,-0.03863 -20.94531,3.011719 -3.575,0.876922 -7.51809,1.752573 -8.76172,1.945312 -3.84883,0.5965 -21.49734,7.825803 -26.23828,10.748047 -2.475,1.525553 -6.0455,3.489511 -7.93555,4.365235 -1.89005,0.875723 -4.85884,2.677183 -6.5957,4.001953 C 371.73189,80.916551 369.94973,82 369.50781,82 c -0.44193,0 -4.90013,3.85508 -9.90625,8.566406 -5.00616,4.711326 -9.45176,8.873826 -9.88086,9.25 -3.93176,3.446824 -19.43674,20.445034 -21.14648,23.183594 -2.37386,3.80233 -4.27482,9.57155 -4.98633,15.12891 -0.24831,1.9394 -1.33327,5.0671 -2.41016,6.94921 -2.39173,4.18015 -4.67929,10.94209 -4.3164,12.76172 0.14703,0.73728 -0.87176,4.56228 -2.26563,8.5 -1.39386,3.93771 -2.43527,8.71112 -2.31445,10.60743 l 0.21875,3.44921 -12.24609,0.19532 c -10.84032,0.17289 -12.79182,0.477 -17,2.6582 -3.10167,1.60767 -9.4459,3.25137 -18.25391,4.72852 -7.425,1.24521 -15.87104,2.88057 -18.76953,3.63476 -2.8985,0.7542 -9.1985,1.83239 -14,2.39453 -4.80151,0.56214 -10.53047,1.4684 -12.73047,2.01563 -2.2,0.54724 -9.53554,2.10453 -16.30078,3.45898 -6.76524,1.35444 -12.65294,2.67891 -13.08399,2.94531 -0.43104,0.2664 -2.19314,0.73358 -3.91601,1.03711 -4.82475,0.85 -15.10208,3.1874 -21.19922,4.82227 -3.025,0.81111 -7.07659,1.75394 -9.00391,2.09375 -1.92733,0.33981 -7.55233,1.99372 -12.5,3.67578 -4.94768,1.68207 -11.92109,3.85995 -15.49609,4.83984 -8.2562,2.26297 -15.10012,5.29326 -16.91406,7.49024 -1.22034,1.47799 -1.2149,1.91226 0.0352,3.16211 1.48492,1.48492 11.43258,4.45117 14.92774,4.45117 2.62853,0 2.46897,1.6594 -0.29883,3.10742 -1.2375,0.64743 -4.16462,2.92385 -6.50586,5.06055 -2.34124,2.1367 -8.11388,6.39908 -12.82617,9.4707 C 97.417201,257.50554 92,263.56808 92,267.77344 c 0,2.38622 0.185836,2.45497 5.25,1.93359 2.8875,-0.29728 6.375,-0.86528 7.75,-1.26172 1.38481,-0.39926 -0.95708,1.84504 -5.25,5.03125 -4.560797,3.38504 -7.75,6.47816 -7.75,7.51563 0,2.15044 2.526766,4.41772 3.945312,3.54101 0.567786,-0.35091 3.13207,-0.89458 5.699218,-1.20898 l 4.66797,-0.57227 -2.25,3.16016 c -3.43504,4.82406 -2.19337,6.48349 4.3457,5.80859 2.95132,-0.3046 6.70001,-1.24299 8.33008,-2.08593 3.18549,-1.64728 5.5753,-0.61499 4.58008,1.97851 -0.90918,2.36929 2.48524,2.66332 5.55078,0.48047 1.61692,-1.15135 3.21168,-2.09375 3.54492,-2.09375 1.82687,0 25.08074,-18.07335 34.08594,-26.49219 2.75,-2.57094 6.48776,-5.30008 8.30664,-6.06445 3.51425,-1.47685 2.65185,-1.78592 21.43164,7.68164 2.61451,1.31807 9.93565,3.89238 12.73047,4.47656 4.54337,0.94966 5.17035,2.1988 3.13672,6.2461 -1.00929,2.00867 -2.4106,5.45234 -3.11328,7.65234 -0.70269,2.2 -1.88803,4.88778 -2.63477,5.97266 -0.74674,1.08487 -1.35742,2.68281 -1.35742,3.55078 0,2.46662 -2.34306,6.87941 -4,7.5332 -0.825,0.32553 -8.025,1.00186 -16,1.50391 -15.83776,0.99701 -24.84682,3.19534 -31.25977,7.62695 -3.55465,2.45641 -4.15449,2.55286 -11,1.76562 -11.49139,-1.3215 -39.76598,-1.15855 -41.640621,0.24024 -2.527252,1.88577 0.460172,6.33669 6.148441,9.16016 2.60796,1.29451 4.53073,2.695 4.27343,3.11132 -0.2573,0.41633 -3.29172,1.54311 -6.74414,2.50391 -3.452402,0.96081 -6.765794,2.1415 -7.363278,2.625 -0.597481,0.4835 -2.990051,1.5503 -5.316406,2.37109 -2.326355,0.82078 -5.565719,2.44428 -7.199218,3.60743 -1.6335,1.16315 -3.515932,2.19743 -4.183594,2.29882 -0.667662,0.10139 -1.664844,0.43084 -2.214844,0.73047 -0.55,0.29963 -2.906777,1.14415 -5.236328,1.87696 -8.214771,2.58413 -9.648773,8.35394 -2.152344,8.66015 5.62571,0.22979 5.888672,0.30834 5.888672,1.78321 0,0.78233 -1.541947,1.93231 -3.427734,2.55468 -5.583417,1.84269 -12.56386,8.06513 -12.56836,11.20508 -0.005,3.45235 1.810122,4.01894 13.794922,4.30078 6.155058,0.14475 9.663528,0.64641 10.16211,1.45313 0.900165,1.4565 13.229864,0.96843 19.539062,-0.77344 6.98964,-1.92973 18.40875,-4.29489 23.28516,-4.82227 2.59309,-0.28045 6.06484,-1.32839 7.71484,-2.33007 2.52728,-1.53428 3.86665,-1.67746 8.5,-0.9043 3.025,0.50477 11.8,1.09968 19.5,1.32226 7.7,0.22258 14.08808,0.44239 14.19531,0.48829 0.10724,0.0459 -0.83899,2.44648 -2.10156,5.33398 -2.42195,5.539 -5.95012,16.86803 -7.08594,22.75 -0.87398,4.52599 -4.34974,16.92018 -5.46875,19.5 -0.47713,1.1 -1.3235,3.8 -1.88086,6 -0.55737,2.2 -1.72543,5.93306 -2.5957,8.29492 -0.87027,2.36187 -2.04335,7.31187 -2.60547,11 -0.56211,3.68814 -1.22244,8.02899 -1.4668,9.64649 -0.57122,3.78113 -3.1768,9.27231 -4.87695,10.27734 -1.31032,0.77459 -4.08322,4.67287 -10.36328,14.57031 -1.78739,2.81693 -4.89377,7.01216 -6.90234,9.32227 -6.69596,7.70121 -11.98275,16.86009 -21.29297,36.88867 -7.26144,15.62119 -14.918238,31.05796 -18.353518,37 -4.433263,7.66826 -18.125933,24.47532 -30.144531,37 -18.066039,18.82677 -19.513544,22.10752 -20.072266,45.5 -0.281288,11.77692 -0.131282,12.93385 2.603516,20 1.59649,4.125 2.922385,8.175 2.947265,9 0.05736,1.90172 4.980811,7.69549 8.65625,10.1875 2.930464,1.98691 8.607398,1.91409 10.658203,-0.13672 0.562358,-0.56235 1.379988,-5.642 1.816407,-11.28711 0.978317,-12.65458 1.914049,-17.57201 4.810546,-25.26367 3.202146,-8.5033 4.273453,-9.42336 7.451172,-6.4082 1.396138,1.32472 2.545188,2.89274 2.554688,3.48437 0.02458,1.53039 4.876208,5.89723 5.669922,5.10352 0.363467,-0.36347 2.727704,-3.78593 5.253906,-7.60547 8.27442,-12.51071 30.96924,-37.47849 41.2832,-45.41797 2.37054,-1.82479 9.93555,-8.91122 16.81055,-15.74805 16.80808,-16.71477 29.58868,-24.12267 41.27344,-23.92578 2.3246,0.0392 8.95156,0.11447 14.72656,0.16797 5.775,0.0535 18.825,0.19891 29,0.32422 10.175,0.12532 22.55,-0.17216 27.5,-0.66211 17.91022,-1.77278 34.65136,-1.94351 41.5,-0.42383 3.575,0.79328 9.2,1.95682 12.5,2.58594 3.3,0.62913 7.125,1.53103 8.5,2.00391 1.375,0.47289 3.64574,1.10645 5.04492,1.4082 2.83142,0.61062 11.64596,7.01185 13.92578,10.11328 0.80859,1.1 2.38359,2.92689 3.5,4.06055 2.43122,2.46881 6.73058,8.78948 8.80274,12.93945 1.481,2.96605 7.1722,13.98542 11.41601,22.10156 1.20473,2.30401 3.34223,5.34028 4.75,6.74805 1.40777,1.40777 2.56055,3.22306 2.56055,4.0332 0,0.81013 1.29264,2.51756 2.87305,3.79492 1.58042,1.27736 4.3031,5.35977 6.05078,9.07227 1.74768,3.7125 3.78074,6.75 4.51758,6.75 1.69367,0 8.2178,-2.96944 11.76367,-5.35352 1.48832,-1.00069 3.1425,-1.55104 3.67383,-1.22265 0.53133,0.32838 1.95999,3.63137 3.17578,7.33789 3.19824,9.75032 7.68353,19.03326 9.69922,20.07422 0.96027,0.49591 4.67109,1.12787 8.24609,1.40429 7.70679,0.59588 19,3.59667 19,5.04883 0,0.69284 -5.75728,0.76025 -17.75,0.20703 -23.12003,-1.06653 -32.29439,-1.27776 -83.75,-1.91992 -57.72612,-0.72042 -97.48369,-1.87519 -119.95703,-3.48633 -6.02622,-0.43205 -12.47078,-0.44508 -14.32227,-0.0273 -5.93923,1.33951 -9.17116,6.0737 -5.96289,8.73633 0.81901,0.67972 7.19315,0.87374 18.25,0.55469 9.34528,-0.26966 48.04219,-0.6848 85.99219,-0.92383 37.95,-0.23904 77.28142,-0.62119 87.40234,-0.84766 14.01243,-0.31355 20.09481,-0.0478 25.5,1.11524 11.08891,2.38597 59.0017,3.44628 66.13672,1.46289 2.60242,-0.72342 5.98202,-0.82838 9.5,-0.29493 3.00332,0.45541 8.16094,0.65242 11.46094,0.43946 10.23006,-0.6602 52.42595,-0.5492 64,0.16797 6.66004,0.41268 15.93178,0.1964 23.5,-0.54688 6.875,-0.6752 13.625,-1.21898 15,-1.20898 3.61658,0.0258 28.58835,1.02918 42,1.6875 6.325,0.31046 18.85875,0.79934 27.85352,1.08593 8.99478,0.2866 16.86978,0.85015 17.5,1.25196 0.92477,0.5896 76.32548,1.36308 136.09765,1.39648 6.57304,0.004 12.73337,0.42387 13.68945,0.93555 1.10997,0.59403 1.96506,0.56282 2.36719,-0.0879 0.34638,-0.56048 0.9919,-0.79643 1.4336,-0.52344 0.44169,0.27298 9.86612,0.73086 20.94336,1.01563 11.07723,0.28478 21.82138,0.88572 23.87695,1.33593 4.55735,0.99816 8.73828,0.10854 8.73828,-1.85937 0,-2.97211 -7.45974,-5.44338 -17,-5.63281 -4.95,-0.0983 -26.775,-0.45696 -48.5,-0.79688 -58.72373,-0.91881 -92.06895,-1.60709 -105.5,-2.17578 -6.6,-0.27946 -15.15,-0.48293 -19,-0.45313 -14.77691,0.1144 -18.48899,0.0779 -34.5,-0.33593 -44.69675,-1.15541 -63.89649,-1.55728 -68,-1.42188 -14.98086,0.49434 -57.89833,-0.68724 -63.20312,-1.74023 -1.48672,-0.29511 -4.18673,0.15207 -6,0.99414 -2.58817,1.20192 -8.18827,1.59218 -26.04883,1.81836 l -22.75,0.28906 0.36523,-2.5 c 0.70314,-4.81408 -2.65609,-7.97739 -9.24219,-8.70312 -1.86814,-0.20588 -4.27069,-0.84096 -5.33789,-1.41211 -1.0672,-0.57114 -4.25998,-1.7282 -7.0957,-2.57032 -2.83571,-0.84211 -6.43478,-2.60647 -7.99805,-3.92187 C 463.12618,640.07705 461.2543,639 460.5293,639 c -1.80993,0 -16.08028,-10.30263 -21.2793,-15.36328 -4.81716,-4.68895 -5.93756,-7.10408 -4.24414,-9.14453 1.55332,-1.87163 0.30032,-7.44793 -1.84961,-8.23047 -2.83869,-1.03323 -6.15496,-3.98047 -8.70508,-7.73828 C 423.10297,596.53675 422,594.66255 422,594.35938 c 0,-0.30318 -0.83784,-1.74518 -1.86133,-3.20508 -1.0235,-1.4599 -4.92342,-8.7293 -8.66601,-16.1543 -3.74258,-7.425 -8.11104,-15.42736 -9.70899,-17.7832 -3.13967,-4.62875 -6.65026,-12.035 -7.29687,-15.39258 -0.22137,-1.14949 -1.26015,-3.7346 -2.3086,-5.7461 -1.04845,-2.01148 -2.24003,-5.21405 -2.64648,-7.11718 -1.619,-7.58054 -13.57673,-36.16599 -17.00977,-40.66211 -1.95325,-2.55809 -3.20127,-4.97362 -2.77539,-5.36914 0.42588,-0.39552 3.24844,-1.98106 6.27344,-3.52344 3.025,-1.54237 6.625,-3.56913 8,-4.50391 1.375,-0.93477 9.025,-5.98084 17,-11.21289 27.08473,-17.76909 32.41823,-21.77294 44,-33.0332 8.50721,-8.27106 13.37492,-13.40999 27.14453,-28.65625 6.99455,-7.74465 16.81444,-21.93527 22.08203,-31.91211 2.78414,-5.2732 5.38847,-10.03789 5.78906,-10.58789 0.4006,-0.55 2.22064,-5.725 4.04297,-11.5 3.12657,-9.90815 3.32285,-11.40114 3.47657,-26.48633 l 0.16211,-15.98633 2.63085,-0.20117 c 1.44674,-0.1112 2.89101,0.22063 3.21094,0.73828 0.35178,0.56915 1.24983,0.58417 2.27149,0.0391 0.92912,-0.49585 4.37881,-1.23689 7.66601,-1.64649 10.51604,-1.31034 22.83564,-8.1263 25.89258,-14.32617 1.25337,-2.54198 2.98619,-9.79253 4.11524,-17.21875 0.31983,-2.10362 2.04819,-5.34382 4.17968,-7.83399 3.95464,-4.62009 5.36015,-9.60036 4.23242,-15.00195 -0.48719,-2.33357 -0.25757,-4.12024 0.72071,-5.61328 0.7894,-1.20478 1.92611,-4.98327 2.52734,-8.39648 0.91612,-5.2009 1.49789,-6.36015 3.5918,-7.15625 1.37418,-0.52246 3.68309,-1.88252 5.13086,-3.02149 1.44777,-1.13896 4.06912,-2.67089 5.82422,-3.40429 2.06428,-0.86264 3.94898,-2.81852 5.33789,-5.54102 1.99379,-3.90814 2.05954,-4.6815 0.92382,-10.82617 -1.53534,-8.30707 -3.10617,-11.41477 -8.10156,-16.02735 l -3.9707,-3.66796 2.05859,-2.61915 C 577.07242,182.36228 578,180.77674 578,180.2793 c 0,-0.49744 0.9,-2.76624 2,-5.04297 4.72483,-9.77928 1.42823,-19.23627 -6.70508,-19.23633 -3.12783,-2e-5 -4.27865,-0.60698 -6.54492,-3.44727 -1.5125,-1.8956 -2.75,-3.81741 -2.75,-4.27148 C 564,146.43272 557.71909,140 555.91406,140 c -1.06742,0 -2.72269,-0.45024 -3.67773,-1 -0.95504,-0.54976 -2.94987,-1.4294 -4.4336,-1.95508 -4.63914,-1.64365 -6.11329,-5.17547 -6.21289,-14.88672 -0.0821,-8.01247 -0.34397,-9.09948 -3.29101,-13.68164 -1.76057,-2.7374 -4.82903,-6.77656 -6.81836,-8.97656 -1.98933,-2.2 -5.72373,-6.361577 -8.29883,-9.248047 -2.5751,-2.886471 -6.82242,-6.677232 -9.43945,-8.423828 -3.55171,-2.370391 -5.00821,-4.104859 -5.74414,-6.837891 -0.54226,-2.013803 -2.11734,-4.748037 -3.5,-6.076172 C 503.1154,67.585932 500.55533,65.0375 498.80859,63.25 497.06184,61.4625 494.84041,60 493.87305,60 c -0.96736,0 -3.24747,-0.873345 -5.06641,-1.941406 -4.39154,-2.578664 -15.28059,-5.514025 -20.38476,-5.701172 z m 356.95703,5.02539 c 1.03478,-0.04379 1.58512,0.222324 2.09179,0.779297 1.05636,1.161218 2.60891,7.972328 4.18164,18.337891 0.25034,1.65 0.85696,4.35 1.34766,6 0.94726,3.185229 1.83587,9.114997 2.47266,16.5 0.21341,2.475 0.86712,8.325 1.45117,13 1.49097,11.93447 1.43768,12.35448 -1.74805,14.23633 -5.01217,2.96076 -20.40386,18.11075 -23.83594,23.46094 C 808.32301,154.40014 802.46381,160 800.56055,160 c -0.4126,0 -2.75417,1.9125 -5.20508,4.25 -2.45092,2.3375 -5.22168,4.55585 -6.15625,4.92969 -2.34201,0.93686 -4.9932,0.97066 -5.52149,0.0703 -0.24205,-0.4125 -3.45414,-7.5 -7.13867,-15.75 -3.68452,-8.25 -8.20204,-18.0375 -10.03906,-21.75 -3.12523,-6.31587 -3.35115,-8.68543 -0.5,-5.25 1.57324,1.89561 4,1.94929 4,0.0879 0,-0.77719 -3.83072,-6.21148 -8.51367,-12.07617 -4.68294,-5.86468 -10.3659,-13.44227 -12.62891,-16.837892 -2.26301,-3.395622 -5.74478,-7.601011 -7.73633,-9.345703 -2.36424,-2.071193 -3.27402,-3.50208 -2.62109,-4.121094 1.23031,-1.16641 15.21727,-5.549945 30.5,-9.560547 3.025,-0.793842 10.9,-3.311301 17.5,-5.59375 6.6,-2.282449 13.35,-4.614081 15,-5.18164 1.65,-0.56756 5.25,-1.649346 8,-2.402344 2.75,-0.752997 7.6446,-2.105251 10.87695,-3.005859 2.44771,-0.681992 3.96717,-1.03629 5.00196,-1.080079 z m -90.72657,32.080079 c 0.29243,0.01585 0.55574,0.06369 0.77149,0.146484 C 737.35648,90.351003 752,110.57092 752,112.49805 c 0,0.29772 1.20715,2.44491 2.68359,4.77148 3.0232,4.76383 8.28344,14.85973 8.30274,15.93555 0.007,0.3883 1.31351,2.91081 2.90234,5.60547 1.58883,2.69466 3.1915,6.20287 3.5625,7.79492 0.371,1.59204 3.48498,8.51953 6.91797,15.39453 5.39538,10.80494 6.59562,12.54141 8.85938,12.80859 4.46601,0.52709 10.10074,-3.30394 21.625,-14.70703 6.1058,-6.0416 11.36157,-10.56085 11.68164,-10.04297 0.32009,0.51787 0.35274,1.31348 0.0723,1.76758 -0.28065,0.4541 -0.79569,4.37967 -1.14453,8.72461 -0.6231,7.75884 -1.71004,11.44922 -3.37305,11.44922 -0.46173,0 -4.15842,2.41763 -8.21484,5.37305 -11.86828,8.64695 -28.66433,16.30448 -39.76562,18.1289 -2.41446,0.39679 -6.23947,1.56131 -8.5,2.58789 -5.04517,2.29113 -7.0309,2.42198 -6.2168,0.41016 0.33385,-0.825 0.86945,-2.14464 1.18945,-2.93359 0.65937,-1.62559 -5.2537,-6.30837 -12.87891,-10.19922 -4.39611,-2.24318 -6.6793,-4.725 -5.46484,-5.93946 0.26714,-0.26713 3.11259,-0.62753 6.32227,-0.80078 3.20968,-0.17325 5.99455,-0.79224 6.18945,-1.37695 0.57715,-1.73145 -2.52759,-8.22652 -4.24805,-8.88672 -2.2729,-0.87219 -2.70388,-0.0234 -1.54101,3.03516 0.88429,2.32584 0.72883,2.78011 -1.18555,3.48828 -4.99345,1.8472 -7.75087,-1.36221 -9.16016,-10.66211 -0.50326,-3.32095 -0.30836,-4.40557 0.86915,-4.85742 0.8337,-0.31993 1.51562,-1.25625 1.51562,-2.08203 0,-1.16276 -0.62028,-1.32471 -2.75,-0.71289 -1.5125,0.43452 -4.31434,0.82177 -6.22656,0.85937 -4.64104,0.0913 -4.78673,-1.19518 -1.61328,-14.26562 1.4242,-5.86579 2.78325,-13.01933 3.01953,-15.89649 0.23628,-2.87716 0.67686,-5.63376 0.98047,-6.125 0.69303,-1.12135 8.75933,0.31994 11.55273,2.06445 1.13463,0.70859 3.5206,3.42505 5.30078,6.03711 3.48187,5.10897 4.2285,5.45367 7.10742,3.27344 1.47992,-1.12075 1.73208,-2.1596 1.20508,-4.96875 C 751.16787,125.37437 750.33456,124 749.42383,124 c -0.81734,0 -1.7301,-0.63359 -2.02735,-1.4082 -0.79371,-2.06838 -11.07266,-5.37288 -17.1582,-5.51563 -3.26147,-0.0765 -3.2614,-0.0766 -2.63086,-4.32617 0.34683,-2.3375 1.25059,-4.74907 2.00977,-5.35938 1.06258,-0.85415 1.23423,-2.84275 0.74414,-8.64062 -0.5861,-6.933459 -0.47336,-7.619287 1.42773,-8.636719 0.85185,-0.455898 1.98601,-0.697934 2.86328,-0.65039 z M 521.0332,121.16016 c 0.31452,0.0171 0.55597,0.095 0.70313,0.24218 0.95445,0.95445 -2.72514,4.42049 -7.56055,7.12305 C 508.69275,131.58992 505,132.63028 505,131.10938 505,130.49975 505.39945,130 505.88672,130 c 0.48728,0 2.39978,-1.48438 4.25,-3.29883 2.86478,-2.80938 8.69485,-5.66075 10.89648,-5.54101 z m 328.51758,1.1914 c 0.12588,-0.008 0.2276,0.0114 0.30078,0.0566 0.51743,0.31979 7.17508,1.88861 14.79492,3.48633 9.90183,2.07621 15.85052,3.93018 20.85352,6.5 3.85,1.97756 7.49345,3.59856 8.0957,3.60156 0.60226,0.003 1.90881,0.90391 2.9043,2.00391 0.99549,1.1 2.18512,2 2.64453,2 0.45941,0 3.87786,2.07014 7.5957,4.59961 6.75031,4.59262 12.7922,10.43798 21.23243,20.54492 2.45969,2.94542 8.48372,8.95547 13.38672,13.35547 13.06105,11.7212 12.68481,10.3036 5.88867,22.24219 -4.79627,8.42546 -18.47221,31.32144 -23.94727,40.09179 -1.37341,2.20004 -1.5643,2.23854 -3.31055,0.65821 -1.019,-0.92219 -3.19296,-2.42237 -4.83203,-3.33399 C 906.07558,233.10674 902,231.01377 902,231.40234 c 0,0.60496 -15.77711,-4.19743 -19.75,-6.01172 -1.79902,-0.82155 -3.25667,-2.24476 -3.26367,-3.1875 -0.014,-1.76857 3.11745,-15.00697 5.60742,-23.70312 0.7874,-2.75 1.62494,-8.375 1.86133,-12.5 0.23639,-4.125 1.13189,-9.17392 1.98828,-11.21875 0.8564,-2.04484 1.55664,-4.88744 1.55664,-6.31836 0,-2.12605 -0.41134,-2.54433 -2.25,-2.2832 -1.2375,0.17575 -2.25762,0.77031 -2.26562,1.32031 -0.008,0.55 -0.30715,1.45694 -0.66407,2.01562 -1.07749,1.68656 -10.51692,46.55361 -11.46289,54.48438 -0.22961,1.925 -0.82366,5.3 -1.32031,7.5 -0.49666,2.2 -1.38285,6.7 -1.96875,10 -0.5859,3.3 -1.78999,9.825 -2.67578,14.5 -2.04335,10.7843 -2.88989,16.17612 -4.39649,28 -1.71237,13.43876 -4.62753,29.08903 -7.25,38.92383 -1.23541,4.63308 -2.69609,8.49523 -3.24609,8.58203 -1.33778,0.21102 -7.42857,-0.4183 -10.34375,-1.06836 -2.18783,-0.48786 -2.3057,-0.86924 -1.76953,-5.73047 0.31589,-2.86409 0.98231,-9.25703 1.48047,-14.20703 0.85431,-8.48873 3.97215,-27.54833 6.13476,-37.5 0.53784,-2.475 1.24231,-6.075 1.56446,-8 1.88391,-11.25715 5.41387,-31.86692 5.82421,-34 0.26455,-1.375 0.74448,-4.25464 1.06446,-6.39844 0.31999,-2.14381 0.79816,-4.84381 1.06445,-6 0.2663,-1.1562 0.94149,-5.92656 1.5,-10.60156 0.55851,-4.675 1.43045,-10.75 1.9375,-13.5 3.39082,-18.3899 3.9776,-22.9616 3.61328,-28.16211 -0.2887,-4.12105 -0.84554,-5.92758 -1.89258,-6.14258 -1.61236,-0.33109 -1.9638,1.17866 -3.68164,15.80469 -1.55627,13.25044 -2.03758,16.31299 -2.98242,19 -0.4835,1.375 -1.16305,5.89717 -1.51172,10.04883 -0.9341,11.12265 -1.18116,11.25028 -9.17187,4.75781 -8.80937,-7.15763 -19.44606,-17.58248 -21.2168,-20.79297 -4.56878,-8.2836 -4.61554,-8.46527 -4.3418,-17.01367 0.3423,-10.68924 0.66678,-12.73898 3.49805,-22.14258 2.08375,-6.92086 2.91122,-8.22428 8.76563,-13.8164 7.99128,-7.63327 15.6275,-13.57323 17.51562,-13.68946 z m -117.15039,1.79492 c -1.21679,-0.0738 -2.38316,0.23472 -3.20117,1.05274 -2.67939,2.67939 -0.7173,11.19297 3.24219,14.06836 0.68908,0.50041 0.44842,1.129 -0.69141,1.80078 -0.9625,0.56726 -1.75,1.6828 -1.75,2.48047 0,1.7709 -0.0343,1.77096 4.12695,0.084 3.40844,-1.38187 12.27621,-1.47975 16.87305,-0.18554 l 2.5,0.70507 -2.36133,-2.07617 C 749.84023,140.93431 748.20472,140 747.50391,140 c -2.00552,0 -4.5836,-4.51991 -3.30664,-5.79688 0.75514,-0.75513 0.005,-1.50945 -2.56641,-2.58398 C 739.63348,130.78458 738,129.55116 738,128.87891 c 0,-2.55219 -2.92267,-4.57012 -5.59961,-4.73243 z M 507.9707,137 c 1.75371,0 2.10236,0.50226 1.84571,2.66016 -0.20592,1.7314 -0.99454,2.75783 -2.25782,2.93945 -1.06765,0.15349 -2.86765,0.47513 -4,0.71484 -1.13235,0.23972 -3.1309,0.14652 -4.4414,-0.20703 -1.89055,-0.51004 -2.09711,-0.84697 -1,-1.63476 C 501.52527,139.02548 505.98714,137 507.9707,137 Z m 21.85157,5.29102 c 0.0917,-0.007 0.1934,-0.005 0.30468,0.006 0.29676,0.0288 0.66535,0.11907 1.12305,0.25976 2.88973,0.88826 3.08539,1.09164 2.29102,2.37695 -1.2085,1.95539 -4.54102,1.21979 -4.54102,-1.00195 0,-1.10395 0.18055,-1.59334 0.82227,-1.64062 z M 484,143 c 1.1,0 2,0.35415 2,0.78711 0,0.43295 -0.9,0.8546 -2,0.9375 -1.1,0.0829 -2,-0.27129 -2,-0.78711 0,-0.51582 0.9,-0.9375 2,-0.9375 z m 8.41406,3.16797 c 0.41982,0.0221 0.9319,0.12413 1.52539,0.3125 1.14943,0.36482 1.83108,1.08139 1.51563,1.5918 -0.7773,1.2577 -3.18476,1.17409 -3.9961,-0.13868 -0.72966,-1.18061 -0.30436,-1.83193 0.95508,-1.76562 z M 500.05859,148 c 0.58246,0 0.78133,0.45 0.44141,1 -0.33992,0.55 -0.81605,1 -1.05859,1 C 499.19887,150 499,149.55 499,149 c 0,-0.55 0.47613,-1 1.05859,-1 z m 9,1 c 0.51754,0 0.94141,0.45 0.94141,1 0,0.55 -0.70113,1 -1.55859,1 -0.85748,0 -1.28133,-0.45 -0.94141,-1 0.33992,-0.55 1.04105,-1 1.55859,-1 z m -115.38867,19.98828 c 1.29112,-0.008 2.37908,0.28159 2.8086,0.97656 0.32774,0.53029 -1.26292,2.13787 -3.53516,3.57227 -4.84002,3.05537 -4.59044,4.16158 0.55664,2.46289 4.23109,-1.39638 5.42835,-0.71726 3.67773,2.08594 -0.68528,1.09735 -0.97271,2.43802 -0.63867,2.97851 1.18602,1.91902 -1.89456,6.83472 -4.47461,7.14063 -3.82701,0.45376 -4.41885,5.01587 -1.5625,12.04492 0.58577,1.44148 0.17011,1.75 -2.36328,1.75 -2.12212,0 -2.92049,-0.40623 -2.57422,-1.30859 0.9939,-2.59007 -2.41692,-14.07099 -4.68945,-15.78516 l -2.20117,-1.66016 4.16406,-4.9375 C 385.12755,175.59319 387,172.85345 387,172.2207 c 0,-1.75393 3.82946,-3.21384 6.66992,-3.23242 z m 421.84961,10.86133 c 0.71368,0.0674 2.05981,2.408 3.31836,6.13477 1.90949,5.65429 1.6035,8.48464 -0.62109,5.7539 -1.05093,-1.29005 -3.20094,-8.31444 -3.21094,-10.48828 -0.004,-0.99261 0.18927,-1.43105 0.51367,-1.40039 z M 308.23242,185.5 l 1.875,4.76758 c 1.0307,2.62268 2.10862,6.67268 2.39649,9 0.28787,2.32731 0.92691,5.58242 1.41992,7.23242 0.49301,1.65 1.15724,5.51843 1.47656,8.59766 0.31932,3.07923 1.24298,7.47215 2.05078,9.76172 0.80781,2.28953 1.68446,6.74614 1.94922,9.90234 0.26476,3.1562 0.976,9.11328 1.58008,13.23828 1.68687,11.519 0.30909,30.88814 -3.66406,51.5 -1.37824,7.15 -2.8761,16.15 -3.32813,20 -1.011,8.6109 -1.41265,10.91111 -2.78906,16 -0.59504,2.2 -1.6187,6.25 -2.27539,9 -0.65669,2.75 -1.81857,6.0125 -2.58203,7.25 -1.51599,2.4573 -3.85842,2.66341 -12.8418,1.12891 -2.75,-0.46974 -9.05,-1.31768 -14,-1.88477 -8.60364,-0.98566 -12.55804,-1.82387 -26,-5.50976 -6.3879,-1.75163 -13.0354,-3.45153 -15.5,-3.9629 -4.7865,-0.99313 -8.52222,-3.75326 -13.56445,-10.02148 -3.09699,-3.85 -7.36517,-9.1495 -9.48438,-11.77734 -2.11921,-2.62785 -5.2599,-7.63401 -6.97851,-11.125 -3.08933,-6.27532 -3.10767,-6.40307 -1.61328,-11.22266 2.21951,-7.15835 8.12652,-23.19488 8.7871,-23.85547 0.31347,-0.31347 2.54755,0.27735 4.9629,1.3125 5.11571,2.19245 22.14616,7.25899 26.12109,7.77149 1.50135,0.19357 4.36778,1.03796 6.37109,1.875 2.00332,0.83704 4.62248,1.52148 5.82032,1.52148 1.19783,0 2.74621,0.5625 3.4414,1.25 1.01378,1.00257 1.94529,0.51155 4.70117,-2.48438 3.79621,-4.12686 4.20756,-6.21835 1.87891,-9.54296 -2.07453,-2.9618 -5.92188,-2.83827 -8.63086,0.27734 -1.86126,2.14064 -3.02386,2.5 -8.0957,2.5 -3.32752,0 -9.49394,-1.05246 -14.07032,-2.40234 -4.48051,-1.32159 -10.05898,-2.91553 -12.39648,-3.54102 -2.42077,-0.64777 -4.25,-1.73616 -4.25,-2.5293 0,-0.76586 -0.9,-1.67821 -2,-2.02734 -2.3049,-0.73155 -2.34806,-1.2862 -0.98828,-12.5918 0.55627,-4.62495 1.48631,-12.4582 2.0664,-17.4082 1.37103,-11.69926 6.00263,-32.3951 7.95899,-35.56055 0.79282,-1.2828 6.352,-2.41285 17.46289,-3.54883 3.3,-0.33734 6.75472,-1.011 7.67773,-1.49804 0.92301,-0.48704 5.42301,-2.02628 10,-3.41992 4.57699,-1.39365 9.5418,-2.92495 11.03321,-3.40235 3.23926,-1.0369 4.48607,0.11504 5.4375,5.02539 0.36283,1.87258 2.11631,6.3293 3.89844,9.9043 1.78212,3.575 3.56648,7.625 3.96484,9 0.39836,1.375 1.27908,3.175 1.95703,4 1.38005,1.6794 4.29984,9.23687 7.33984,19 1.11316,3.575 2.9096,8.975 3.99219,12 1.86832,5.22051 4.5427,16.3744 5.75391,24 0.30576,1.925 0.9463,5.3 1.42383,7.5 0.47753,2.2 1.18627,9.0625 1.57421,15.25 0.53871,8.59242 1.03339,11.25 2.09375,11.25 1.13214,0 1.3656,-2.98846 1.26954,-16.19922 -0.0648,-8.91005 -0.53118,-17.29039 -1.03711,-18.62109 -0.50593,-1.3307 -0.93717,-4.72706 -0.95703,-7.54883 -0.0371,-5.26214 -5.4619,-29.22727 -7.07813,-31.26758 -1.52559,-1.92588 -5.7778,-10.673 -6.98242,-14.36328 -0.62838,-1.925 -2.36109,-6.2 -3.84961,-9.5 -4.7942,-10.62856 -8.01667,-18.95673 -8.01367,-20.70508 0.004,-2.13701 4.6204,-3.10154 15.36914,-3.21289 z m 648.61133,8.5 c 0.501,0 1.4887,0.69741 2.19531,1.54883 2.10643,2.5381 -0.83325,7.38782 -16.33789,26.95117 -1.30768,1.65 -3.57418,5.475 -5.03711,8.5 C 934.66606,237.19911 926,247.4409 926,244.78516 c 0,-0.91284 3.375,-6.36787 7.5,-12.12305 4.125,-5.75519 7.5,-10.78215 7.5,-11.16992 0,-0.38777 1.27223,-2.34351 2.82812,-4.34766 1.5559,-2.00414 4.91604,-8.03203 7.4668,-13.39453 2.55075,-5.3625 5.04783,-9.75 5.54883,-9.75 z m -636.7793,2.97461 c 1.98252,-0.22358 6.89173,3.03665 16.93555,11.14062 6.875,5.54717 14.525,11.0056 17,12.13086 2.475,1.12526 5.50597,2.50296 6.73438,3.06055 1.22838,0.55758 2.49522,1.84158 2.8164,2.85352 0.32696,1.03018 1.54551,1.85359 2.76758,1.87109 1.20043,0.0172 3.98164,1.13912 6.18164,2.49414 2.2,1.35501 4.53174,2.46575 5.18164,2.46875 0.64989,0.003 8.07489,2.97748 16.5,6.60938 8.4251,3.63189 19.81836,7.8968 25.31836,9.47851 16.88552,4.85601 17.5,5.10366 17.5,7.01953 0,0.97951 -0.44356,2.05518 -0.98633,2.39063 -1.07552,0.66471 -2.86204,6.6799 -5.58203,18.79687 -0.96165,4.28393 -2.06729,7.9857 -2.45703,8.22656 -0.38974,0.24087 -3.26923,-1.35484 -6.39844,-3.54687 -3.12922,-2.19202 -7.35146,-4.88138 -9.38281,-5.97656 -2.03134,-1.09517 -6.39336,-4.01443 -9.69336,-6.48633 -3.3,-2.4719 -7.8,-5.68132 -10,-7.13281 -2.2,-1.45148 -7.01411,-5.05414 -10.69727,-8.00586 C 378.11957,251.41547 374.82405,249 374.47852,249 372.77492,249 358.84365,239.11204 354,234.46484 c -3.025,-2.90231 -8.36159,-7.55053 -11.85938,-10.32812 -13.81711,-10.97233 -21.11919,-18.34033 -22.21874,-22.42383 -0.57971,-2.15276 -0.81874,-4.14805 -0.53321,-4.43359 0.17021,-0.17021 0.39257,-0.27275 0.67578,-0.30469 z m -99.72461,4.02344 c 1.02933,0.0513 1.60051,0.64291 1.26368,1.75195 -0.61214,2.01551 -1.21378,5.66183 -2.10157,12.75 -1.35124,10.78839 -4.65745,31.20614 -5.66797,35 -1.43364,5.38236 -1.66821,6.61489 -1.75781,9.25 -0.0421,1.2375 -0.53541,2.25 -1.09765,2.25 -0.9678,0 -0.62999,-20.99523 0.45898,-28.5 0.23942,-1.65 0.68084,-6.375 0.98047,-10.5 1.18641,-16.33363 1.68626,-18.96009 3.9043,-20.51367 1.50059,-1.05106 2.98825,-1.53957 4.01757,-1.48828 z m 745.67969,0.11133 3.74024,1.53906 c 2.05709,0.84569 4.16695,1.94438 4.68945,2.44336 0.5225,0.49898 1.63427,0.9082 2.46875,0.9082 2.11226,0 33.38233,15.52469 40.09183,19.9043 3.0301,1.97789 6.7164,4.22024 8.1933,4.98437 3.4009,1.75959 8.4113,7.8394 12.3828,15.02539 1.6978,3.07197 4.2289,6.14439 5.6231,6.82813 3.5768,1.7541 4.9381,3.68941 5.2949,7.52929 0.1705,1.83383 1.3088,5.11048 2.5313,7.28125 1.2224,2.17077 4.0135,7.32227 6.2011,11.44727 2.1876,4.125 4.5297,8.175 5.2051,9 3.071,3.75108 11.6297,23.5373 14.4902,33.5 1.737,6.05 3.5255,11.9 3.9746,13 0.9022,2.20675 5.2516,23.95997 5.8985,29.5 0.8463,7.24849 0.3056,32.92584 -0.7344,34.86914 -0.5883,1.09929 -1.0703,3.66088 -1.0703,5.69141 0,3.37845 -1.5712,14.47665 -4.0273,28.43945 -1.6779,9.53835 -2.7417,18.76306 -2.9043,25.19336 -0.038,1.48183 -1.0992,3.89428 -2.3594,5.35937 -1.9168,2.22846 -3.2166,2.7013 -7.9512,2.89258 -3.1127,0.12575 -6.2444,0.7105 -6.959,1.30078 -0.7145,0.59028 -4.4488,1.31279 -8.2988,1.60547 -3.85,0.29268 -9.025,0.79573 -11.5,1.11719 -2.5201,0.32731 -5.2555,0.11854 -6.2188,-0.47461 -0.9456,-0.58251 -6.5706,-1.28013 -12.5,-1.54883 -13.7966,-0.62522 -16.6784,-1.11888 -22.81245,-3.91992 -5.86899,-2.68003 -18.7489,-6.43114 -23.01172,-6.70117 -1.62662,-0.10303 -3.55506,-0.64074 -4.28711,-1.19531 -1.25607,-0.95153 -3.74121,-1.44291 -15.66992,-3.09571 -2.75,-0.38103 -5.9,-1.0871 -7,-1.57031 -1.1,-0.4832 -4.7,-1.07846 -8,-1.32227 -3.3,-0.24376 -8.7,-1.21996 -12,-2.16992 -4.52863,-1.30364 -10.16888,-1.75781 -23,-1.84961 -17.99359,-0.12869 -22.77478,0.29399 -36.67773,3.24414 -4.77276,1.01275 -9.13959,1.55728 -9.70313,1.20899 -0.65927,-0.40745 0.003,-4.18835 1.85742,-10.60352 1.58481,-5.48373 4.22203,-14.9207 5.86133,-20.9707 7.68444,-28.36023 12.99215,-44.01431 22.20313,-65.5 4.34966,-10.1461 8.56017,-20.96917 11.67382,-30 1.42221,-4.125 3.37702,-9.3 4.34375,-11.5 C 908.14276,307.75702 911,299.33968 911,297.94141 c 0,-0.54395 2.73695,-6.71553 6.08203,-13.71485 C 926.68053,264.14241 927,263.43338 927,262.21875 c 0,-0.63269 0.63852,-2.62939 1.41797,-4.43555 0.77944,-1.80616 1.9534,-4.7336 2.60937,-6.50586 0.65597,-1.77227 2.30197,-4.47227 3.65821,-6 1.35624,-1.52774 3.20789,-3.90234 4.11523,-5.27734 0.90734,-1.375 5.37282,-6.85806 9.92383,-12.18555 4.551,-5.32749 8.27539,-10.18373 8.27539,-10.79101 0,-0.60729 0.84332,-2.32423 1.87305,-3.81446 1.02974,-1.49023 3.05909,-4.82212 4.50976,-7.40429 z m -759.23437,2.78515 c 1.08708,-0.0528 1.64796,0.11665 1.78711,0.50586 0.50701,1.41824 -0.0497,23.84071 -1.07618,43.38477 -0.44154,8.40711 -1.07019,15.44163 -1.39843,15.63086 -0.32825,0.18923 -2.17266,-0.33103 -4.09766,-1.1543 -1.925,-0.82328 -4.97704,-2.11834 -6.7832,-2.87891 C 193.41064,258.62224 190.84439,258 189.51562,258 c -1.32875,0 -4.50387,-1.40997 -7.05664,-3.13281 -3.67056,-2.47723 -4.52935,-3.57536 -4.10742,-5.25 0.29344,-1.16466 1.23774,-4.81719 2.09961,-8.11719 0.86186,-3.3 2.51187,-10.27337 3.66602,-15.49609 2.53227,-11.45897 5.98462,-18.7909 9.14062,-19.41016 1.23297,-0.24193 5.09543,-1.08078 8.58203,-1.86523 2.24474,-0.50505 3.85823,-0.78117 4.94532,-0.83399 z m 625.71484,1.28906 7.20703,5.65821 c 3.96404,3.11208 8.39662,6.49997 9.84961,7.52929 2.61059,1.84936 2.63437,1.9736 1.94922,10.4336 -0.38134,4.70864 -1.04847,9.49536 -1.48242,10.63672 -0.43394,1.14136 -1.33034,6.34571 -1.99219,11.5664 -0.66185,5.2207 -1.82509,11.96719 -2.58398,14.99219 -1.21793,4.85473 -2.55718,11.94165 -9.07227,48 -0.84469,4.675 -1.83691,8.74709 -2.20508,9.04883 -1.01928,0.83535 -18.50475,-1.10765 -19.84375,-2.20508 -0.89485,-0.7334 -0.86198,-1.72071 0.14063,-4.15234 0.72353,-1.75479 1.57528,-4.99141 1.89258,-7.19141 0.73764,-5.11472 3.61378,-18.64979 4.14648,-19.51172 0.22349,-0.36161 0.64933,-2.03092 0.94531,-3.71094 0.29598,-1.68003 1.63069,-7.71732 2.96485,-13.41601 1.33415,-5.69869 2.6703,-11.93633 2.9707,-13.86133 0.3004,-1.925 1.02688,-5.975 1.61328,-9 1.54409,-7.96536 2.08197,-13.69851 2.83203,-30.1582 z m -507.36523,12.4336 c 1.10266,0.20397 7.09869,5.15063 13.92773,11.52343 12.54171,11.70385 15.38863,14.00745 27.48047,22.22852 2.77384,1.88589 5.64205,4.1485 6.37305,5.0293 0.731,0.88081 1.77365,1.60156 2.31836,1.60156 0.54466,0 2.40342,1.16146 4.1289,2.58203 6.926,5.70209 17.69282,13.41797 18.72461,13.41797 0.60284,0 2.29192,0.91921 3.75391,2.04297 1.46199,1.12375 7.53568,5.28625 13.49804,9.25 9.9119,6.58938 14.72407,9.4234 27.66016,16.29492 2.48518,1.3201 4.57442,3.1801 4.66602,4.15234 0.0913,0.96826 0.735,6.35359 1.42968,11.96875 1.11622,9.02246 1.06279,11.141 -0.45898,18.22266 -2.34163,10.89691 -9.48619,26.96441 -17.01172,38.25781 -5.43651,8.15847 -23.4987,28.3092 -30.64648,34.18946 l -6.88086,5.6582 -8.03516,-0.56055 c -4.41971,-0.30861 -8.82898,-0.1992 -9.79883,0.24219 -1.94748,0.88632 -2.26529,0.87344 -30.76367,-1.21094 -19.45458,-1.42292 -32.37647,-3.38746 -34.80664,-5.29101 -0.65679,-0.51447 -2.62212,-1.20656 -4.36914,-1.53711 -3.12685,-0.59161 -4.91081,-1.33079 -20.82422,-8.63281 -4.4,-2.01899 -8.98628,-4.09331 -10.19141,-4.60938 -3.30816,-1.41663 -23.85007,-21.04716 -29.75781,-28.4375 -5.95992,-7.45561 -12.65728,-17.22748 -12.15234,-17.73242 0.30898,-0.30898 5.40699,0.964 37.60156,9.39062 5.225,1.36759 13.02372,2.74575 17.33008,3.0625 7.19938,0.52953 8.00447,0.81182 10,3.51563 3.96745,5.37563 12.42622,7.05985 14.56054,2.89844 0.46121,-0.89923 1.12998,-4.78477 1.48438,-8.63477 0.782,-8.49512 3.3376,-26.33306 4.65625,-32.5 0.52922,-2.475 1.4085,-8.1 1.95508,-12.5 0.54657,-4.4 1.43443,-10.25 1.97265,-13 3.04843,-15.57563 3.86947,-26.76466 3.51954,-48 -0.19939,-12.1 -0.80721,-24.25 -1.34961,-27 -0.5424,-2.75 -0.60937,-5.38667 -0.14844,-5.85938 0.0288,-0.0295 0.0808,-0.037 0.1543,-0.0234 z m 634.65039,1.67383 c -0.50494,-0.0624 -1.1558,0.55286 -1.7461,2.10546 -2.60389,6.84875 -2.47378,15.43863 0.19336,12.77149 2.08042,-2.08042 3.53084,-1.24575 4.2207,2.43164 0.55093,2.93659 1.03313,3.50561 2.62305,3.08984 1.26015,-0.32954 2.31182,0.1656 2.97266,1.40039 0.63997,1.19579 2.08952,1.91016 3.8789,1.91016 1.61781,0 3.10775,0.65086 3.4336,1.5 0.36233,0.94422 1.89429,1.5 4.13281,1.5 2.87307,0 3.73793,0.4802 4.50586,2.5 0.63098,1.65961 1.71803,2.5 3.23438,2.5 1.2563,0 2.84624,0.9 3.5332,2 0.79293,1.26968 2.332,2 4.21484,2 2.25958,0 3.32316,0.68857 4.46289,2.89258 0.82279,1.5911 4.32159,4.99652 7.77539,7.56836 6.6968,4.98664 15.3197,14.41459 18.375,20.08789 1.0224,1.8985 2.431,3.45117 3.1309,3.45117 2.1681,0 1.4077,-4.39905 -1.5664,-9.05469 -2.8733,-4.49799 -16.8965,-18.93716 -21.6016,-22.24219 -1.4068,-0.98817 -2.5586,-2.61997 -2.5586,-3.62695 0,-2.69046 -2.4166,-4.26156 -5.4043,-3.51172 -2.65095,0.66538 -3.04635,0.0974 -2.64843,-3.81445 0.13405,-1.31778 -0.56424,-1.75 -2.82618,-1.75 -3.66073,0 -4.5991,-1.26042 -2.92968,-3.93359 1.83572,-2.93946 -0.3864,-5.09791 -2.91797,-2.83399 -0.9755,0.87237 -2.67344,1.7406 -3.77344,1.92774 -1.61255,0.27433 -2.05985,-0.28976 -2.3125,-2.91016 -0.37582,-3.89786 -1.10188,-4.03455 -4.1582,-0.78125 -1.27582,1.35805 -2.74993,2.20366 -3.27539,1.87891 -0.93359,-0.57699 -0.57048,-4.09858 0.7832,-7.59766 0.51496,-1.33111 0.16639,-1.75 -1.45508,-1.75 -1.35372,0 -2.47843,0.91242 -3.08203,2.5 -0.52277,1.375 -1.411,2.5 -1.97461,2.5 -1.47088,0 -1.28264,-1.21344 0.95313,-6.14062 1.08792,-2.39756 1.9879,-4.92188 2,-5.60938 0.0459,-2.61354 -3.05685,-1.08942 -5.59766,2.75 -1.45589,2.2 -3.01063,4 -3.45508,4 -1.59313,0 -1.88267,-1.82381 -0.78906,-4.96094 0.92703,-2.65929 0.49,-4.64407 -0.35156,-4.74804 z M 544.55859,244 c 0.24254,0 0.44141,0.45 0.44141,1 0,0.55 -0.47613,1 -1.05859,1 -0.58246,0 -0.78133,-0.45 -0.44141,-1 0.33992,-0.55 0.81605,-1 1.05859,-1 z m -93.13281,37.11328 c 0.41016,0.0352 0.57422,0.38672 0.38672,0.94922 -0.24063,0.72187 -1.02813,1.50937 -1.75,1.75 -0.75,0.25 -1.125,-0.125 -0.875,-0.875 0.24063,-0.72188 1.02812,-1.50937 1.75,-1.75 0.1875,-0.0625 0.35156,-0.0859 0.48828,-0.0742 z m -151.78125,0.75977 c -1.71421,0.004 -3.32334,0.46938 -4.39453,1.34765 -1.75045,1.43519 -1.55801,6.32676 0.32227,8.20703 3.64062,3.64062 9.42773,0.56188 9.42773,-5.01562 0,-2.50745 -0.5287,-3.45643 -2.25,-4.03711 -1.01043,-0.34086 -2.07694,-0.50408 -3.10547,-0.50195 z m 203.17578,23.02929 0.56641,2.79883 c 1.06386,5.24988 0.0461,21.78366 -1.77344,28.79883 -2.39066,9.21733 -5.74679,20.62104 -6.62109,22.5 -0.38388,0.825 -1.53974,3.3 -2.56836,5.5 -2.13423,4.56466 -14.43566,23.49884 -18.19141,28 -1.37675,1.65 -4.95513,5.65538 -7.95312,8.90039 -6.037,6.53443 -5.53441,6.34604 -25.2793,9.47852 -11.42606,1.81272 -35.94204,2.84701 -37.21875,1.57031 -0.36702,-0.36703 2.38799,-3.88116 6.12109,-7.8086 3.73309,-3.92736 8.22678,-8.71562 9.98633,-10.64062 1.75954,-1.925 4.72388,-5.09566 6.58789,-7.04688 C 432.96854,380.15746 449,352.48317 449,348.07227 c 0,-0.92008 0.3769,-2.10055 0.83789,-2.62305 0.46099,-0.5225 1.65451,-4.63982 2.65234,-9.15039 1.42114,-6.4241 1.68901,-10.59504 1.23243,-19.25 L 453.13867,306 l 5.18164,-0.11133 c 2.84927,-0.0607 7.87969,-0.28195 11.17969,-0.49219 3.3,-0.21023 6.675,-0.38657 7.5,-0.39257 0.825,-0.006 6.97222,-0.0318 13.66016,-0.0566 z m -307.11133,1.51954 c 1.93777,-0.13466 1.78025,2.13688 -0.62695,4.7207 -1.05542,1.13286 -3.56894,7.30233 -5.58398,13.70898 C 187.483,331.25821 185.43496,337.175 184.94727,338 182.68807,341.82174 180,348.43967 180,350.17773 c 0,1.0574 -0.68627,3.24841 -1.52539,4.8711 -1.29538,2.50498 -2.11713,2.95117 -5.44141,2.95117 -4.79861,0 -5.64037,-1.14241 -3.38281,-4.58789 1.38517,-2.11403 1.77742,-5.2803 1.96094,-15.7793 0.12628,-7.22353 0.5533,-16.41337 0.94726,-20.42187 0.8726,-8.87843 1.8021,-9.60461 12.44141,-9.72461 4.125,-0.0465 8.5125,-0.431 9.75,-0.85352 0.36191,-0.12357 0.68216,-0.19174 0.95898,-0.21093 z m 97.10547,0.68359 c -1.61039,-0.0529 -3.2223,0.62671 -4.73828,2.03906 -1.87867,1.75025 -2.20594,2.85844 -1.77929,6.03906 0.28737,2.14255 1.06953,4.55204 1.73632,5.35547 1.73992,2.09648 6.26629,1.80018 9.33203,-0.61133 3.44439,-2.70936 3.51992,-7.13242 0.17969,-10.47265 -1.51175,-1.51176 -3.12008,-2.29674 -4.73047,-2.34961 z m -126.62304,4.43945 c 0.48628,0.004 0.83849,0.0846 1.01367,0.25977 0.62401,0.62401 0.57637,4.29603 -0.13281,10.33203 -2.19934,18.71923 -3.0432,25.45935 -3.80079,30.36328 -0.74641,4.83163 -0.88996,5.00927 -4.30664,5.29688 -1.94466,0.16367 -3.7754,0.0586 -4.06836,-0.23438 -0.29295,-0.29296 -2.75245,-0.6025 -5.46484,-0.6875 -6.30207,-0.19751 -6.56784,-0.38596 -4.94922,-3.50586 0.74076,-1.42781 1.63337,-5.35705 1.98242,-8.73242 1.19932,-11.59757 3.68123,-25.13977 4.97657,-27.15234 1.39777,-2.17174 11.34601,-5.96406 14.75,-5.93946 z m 126.75781,1.57031 c 0.35111,0.007 0.79023,0.22383 1.26758,0.70118 0.90189,0.9019 0.90533,1.46193 0.0156,2.35156 -0.88962,0.88962 -1.32202,0.76061 -1.82226,-0.54297 -0.58246,-1.51787 -0.23339,-2.52494 0.53906,-2.50977 z m -88.20313,5.79688 c 1.13724,0.0203 3.21822,5.20447 3.64453,10.74805 0.52458,6.82095 10.52287,24.78308 18.54297,33.31445 0.78833,0.83858 7.97571,9.17539 15.97266,18.52539 16.42331,19.20204 17.67012,20.4205 20.94922,20.4668 1.29585,0.0183 3.99585,1.31895 6,2.89062 4.72738,3.70727 25.0724,17.14158 25.96094,17.14258 0.37575,5.3e-4 3.83359,1.56916 7.68359,3.48438 3.85,1.91521 7.69828,3.48904 8.55078,3.49804 0.8525,0.009 2.0522,0.52095 2.66797,1.13672 0.61576,0.61576 2.84443,1.47318 4.95117,1.9043 2.10673,0.43112 6.53008,1.52864 9.83008,2.43945 9.78866,2.70173 18.85182,4.43155 23.57227,4.49805 2.43473,0.0343 6.00273,0.11403 7.92773,0.17773 14.5357,0.48129 24.37465,-1.051 29,-4.51562 5.01485,-3.75636 7.42108,-4.3983 21,-5.61133 4.675,-0.41763 11.65,-1.2209 15.5,-1.7832 3.85,-0.56231 7.675,-1.05973 8.5,-1.10743 0.825,-0.0477 3.061,-0.38574 4.96875,-0.75 3.46414,-0.66143 3.46633,-0.66005 1.92383,1.73243 -2.49869,3.8756 -23.60253,20.40312 -33.89258,26.54296 -5.225,3.11764 -10.625,6.36269 -12,7.21094 -1.375,0.84825 -4.525,2.61701 -7,3.92969 -2.475,1.31268 -5.4,3.20844 -6.5,4.21289 -1.1,1.00445 -4.025,2.9036 -6.5,4.2207 -2.475,1.31709 -6.525,3.68928 -9,5.27149 -2.475,1.58222 -7.9875,4.58781 -12.25,6.67773 -7.28416,3.57145 -9.27038,5.77202 -6.66406,7.38281 1.10915,0.68549 7.00927,-1.9009 10.17383,-4.45898 1.55515,-1.25711 2.04843,-1.15414 4.21875,0.88477 1.35127,1.26946 3.1796,4.48831 4.06445,7.15234 0.88485,2.66403 2.66129,5.67204 3.94726,6.68359 2.51079,1.97498 5.68018,8.8979 9.92579,21.68555 1.46084,4.4 4.62754,12.05 7.0371,17 2.40959,4.95 5.37068,11.25 6.58008,14 1.83747,4.17817 19.38681,40.46413 24.75,51.17383 1.31836,2.63263 1.36685,3.44194 0.28125,4.75 -0.71969,0.86719 -2.03744,1.57617 -2.92773,1.57617 -1.41843,0 -11.01495,4.21474 -19.4668,8.54883 C 395.11285,622.34729 393.28776,623 392.61523,623 391.10463,623 385,616.81851 385,615.28906 c 0,-0.61323 -3.15105,-5.2753 -7.00195,-10.36133 -4.57413,-6.04123 -9.82477,-14.96278 -15.14649,-25.73046 -6.92511,-14.01192 -9.06216,-17.39728 -14.25,-22.58985 -6.25057,-6.25629 -11.27232,-8.82068 -23.92383,-12.2168 -12.48318,-3.3509 -41.33919,-3.62061 -74.67773,-0.69726 -4.125,0.36171 -7.85231,0.57361 -8.2832,0.4707 -0.43089,-0.10291 -13.81239,-0.41858 -29.73633,-0.70312 -34.03839,-0.60823 -35.20042,-0.38941 -50.29883,9.47461 -9.49134,6.20084 -13.06903,9.43444 -26.92383,24.33789 -5.60958,6.03416 -9.83838,9.59766 -13.54297,11.41015 -5.35318,2.61907 -8.20342,5.76672 -15.63086,17.26368 -1.58023,2.44603 -5.56628,7.84603 -8.857418,12 -3.291139,4.15397 -6.515451,7.68198 -7.166015,7.83984 -0.650565,0.15787 -2.031215,-0.65085 -3.068359,-1.79688 -1.037145,-1.14603 -3.260428,-2.75642 -4.939454,-3.57812 -1.679026,-0.82171 -4.265619,-3.24594 -5.748046,-5.38867 C 73.440728,611.60653 61.985072,603 59.800781,603 c -2.705961,0 0.316091,-3.5556 7.699219,-9.05859 4.675,-3.48449 8.5,-6.81692 8.5,-7.40625 0,-0.58934 1.772619,-3.21768 3.939453,-5.83985 C 83.553699,576.32157 96.1199,554.30264 105.44727,536 c 2.10218,-4.125 4.88677,-8.93279 6.1875,-10.68359 1.30073,-1.7508 2.36523,-3.47022 2.36523,-3.82032 0,-0.3501 1.40407,-2.67519 3.11914,-5.16797 1.71508,-2.49278 4.6568,-7.52335 6.53711,-11.17968 3.83368,-7.45468 3.9926,-7.71893 10.59375,-17.48047 2.6125,-3.86327 4.75,-7.61864 4.75,-8.3457 0,-0.72707 0.39939,-1.32227 0.88672,-1.32227 0.48733,0 1.59048,-1.48681 2.45312,-3.30469 0.86264,-1.81787 2.94737,-5.03979 4.63086,-7.1582 1.6835,-2.1184 4.02326,-5.46714 5.20118,-7.44336 1.17787,-1.97622 3.40422,-4.94857 4.94726,-6.60352 2.49838,-2.67957 6.00378,-12.32922 8.16992,-22.49023 0.29313,-1.375 0.78586,-3.4 1.09375,-4.5 0.30789,-1.1 0.99465,-3.575 1.52539,-5.5 3.64982,-13.23808 5.2339,-18.21494 7.48633,-23.5 1.40641,-3.3 2.56903,-6.75107 2.58203,-7.66797 C 177.98962,388.91512 178.9,386.0662 180,383.5 c 1.1,-2.5662 2,-5.61639 2,-6.7793 0,-6.18152 15.67556,-46.76236 19.39453,-50.20898 1.4944,-1.38497 2.60547,-3.50404 2.60547,-4.96484 0,-1.86105 0.30109,-2.64271 0.74609,-2.63477 z m 608.16407,5.5 c 0.20121,0.001 0.39626,0.0307 0.58984,0.0879 10.06445,2.97265 13.43816,3.72349 16.17383,3.5957 1.74612,-0.0816 3.43587,0.27252 3.7539,0.78711 0.31804,0.51459 -2.12217,4.57831 -5.42382,9.03125 -3.30165,4.45293 -6.00391,8.36762 -6.00391,8.69727 0,0.32965 -1.42771,2.68937 -3.17383,5.24414 -1.74612,2.55476 -5.28945,7.79453 -7.87305,11.64453 -2.5836,3.85 -7.6406,9.8125 -11.23828,13.25 -3.59768,3.4375 -7.25629,6.25 -8.1289,6.25 -2.11768,0 -2.0018,-0.73048 0.92578,-5.85156 1.36837,-2.39364 2.48828,-4.98114 2.48828,-5.75 0,-2.76875 -2.67714,-1.31557 -4.91602,2.66797 -2.79572,4.97431 -3.47569,4.59887 -2.14257,-1.1836 1.27673,-5.53786 1.29696,-6.88281 0.10547,-6.88281 -0.52428,0 -1.84854,2.025 -2.94336,4.5 -1.09481,2.475 -2.48177,4.5 -3.08204,4.5 -0.75013,0 -0.78461,-0.57646 -0.10742,-1.8418 1.1691,-2.18449 1.39376,-8.31681 0.47656,-13.04297 l -0.65624,-3.38281 -6.84571,0.57422 c -3.76471,0.31562 -7.06697,0.21375 -7.33789,-0.22461 -0.52282,-0.84594 7.85432,-5.81014 13.03125,-7.72265 5.38045,-1.98771 20.13316,-13.17065 25.625,-19.42383 3.58565,-4.08274 5.29463,-5.53127 6.70313,-5.52344 z M 435.5,325.5 c -3.05239,0 -4.28686,2.00538 -3.11523,5.05859 1.19062,3.10272 7.10898,0.2401 6.46093,-3.125 C 438.57711,326.03896 437.64369,325.5 435.5,325.5 Z m 401.19141,7.55469 c 0.31153,-0.0577 1.06687,0.32878 1.81445,0.94922 0.85437,0.70907 3.60041,1.39497 6.10352,1.52343 6.29556,0.32308 6.7887,1.11697 5.02929,8.08594 -1.48039,5.86378 -4.53107,22.72815 -5.3164,29.38672 -0.22704,1.925 -0.95569,6.2 -1.61915,9.5 -1.17258,5.83267 -1.29013,5.99295 -4.20507,5.72461 l -2.99805,-0.27734 -1.67188,8.64843 c -1.74836,9.04426 -3.24434,12.08777 -4.42773,9.00391 -0.71411,-1.86096 0.96661,-18.87908 2.16797,-21.95117 0.56646,-1.44857 0.31942,-1.77381 -1.13281,-1.49414 -2.13277,0.41074 -3.00578,3.65974 -3.99024,14.8457 -0.76373,8.67784 -1.27288,9.95684 -3.01367,7.57617 -0.9085,-1.24245 -1.10377,-4.37152 -0.69922,-11.15234 0.36711,-6.15337 0.20457,-9.42383 -0.4668,-9.42383 -1.31848,0 -3.24493,7.61933 -3.33593,13.19336 -0.0387,2.36895 -0.43645,5.20664 -0.88477,6.30664 -1.6005,3.92683 -2.32196,-3.16711 -1.58203,-15.56445 C 817.1528,376.37645 817.11124,376 815.14648,376 c -1.11579,0 -2.33836,0.50095 -2.71679,1.11328 -0.88955,1.43931 -9.4247,5.22568 -10.14844,4.50195 -0.80913,-0.80914 2.45618,-5.5917 6.60352,-9.67187 1.9884,-1.9562 5.36821,-6.4562 7.51171,-10 2.14351,-3.5438 4.89708,-7.56836 6.11914,-8.94336 1.22209,-1.375 4.80714,-6.325 7.96485,-11 3.15771,-4.675 5.90456,-8.67671 6.10547,-8.89258 0.0251,-0.027 0.061,-0.0445 0.10547,-0.0527 z M 291.75,334.13672 c -0.36199,-0.0251 -0.76047,0.0368 -1.18359,0.19922 -1.52066,0.58354 -2.23114,5.66535 -0.96875,6.92773 1.15183,1.15184 3.42473,-0.50734 4.03711,-2.94726 0.58359,-2.32523 -0.31615,-4.07107 -1.88477,-4.17969 z M 456.54883,339 C 455.28826,339 454,341.06263 454,343.08203 c 0,1.57631 3.7539,1.00266 4.39648,-0.67187 C 459.14044,340.47142 458.3437,339 456.54883,339 Z m -9.53516,28.5 c -2.58194,0 -3.71521,2.23188 -2.60351,5.12891 0.34021,0.88658 1.51375,1.37915 2.83593,1.1914 1.76716,-0.25094 2.25391,-0.96877 2.25391,-3.32031 0,-2.52893 -0.39044,-3 -2.48633,-3 z m -9.59961,11.61914 C 436.33884,379.18227 436,379.6557 436,380.76758 c 0,1.04487 0.31911,2.21755 0.70898,2.60742 1.44393,1.44392 4.79102,0.13416 4.79102,-1.875 0,-1.43844 -0.77214,-2.08883 -2.75,-2.31641 -0.5365,-0.0617 -0.97753,-0.0855 -1.33594,-0.0644 z M 429.05859,388 c -1.34235,0 -2.28779,1.82013 -1.55859,3 1.04512,1.69104 2.5,1.10908 2.5,-1 0,-1.1 -0.42387,-2 -0.94141,-2 z m -22.7832,3.92578 c -0.39875,-0.0412 -0.905,0.465 -1.125,1.125 -0.22,0.66 0.13883,1.01883 0.79883,0.79883 1.28914,-0.42971 1.52187,-1.80014 0.32617,-1.92383 z M 839.10547,393 c 0.47969,0 0.77682,1.15291 0.66015,2.5625 -0.22735,2.74717 -2.77685,5.81424 -2.75195,3.31055 0.0253,-2.53968 1.21243,-5.87305 2.0918,-5.87305 z m -416.23242,8.01562 c -1.34037,-0.0327 -3.06664,3.03481 -2.51563,4.47071 0.86859,2.26349 4.40143,1.8469 5.18164,-0.61133 0.60894,-1.9186 -0.69812,-3.81137 -2.66601,-3.85938 z M 895,452.7832 c 14.64036,-0.0192 28.14663,0.64486 28.61719,1.40625 C 923.89272,454.63526 926.31492,455 929,455 c 2.68508,0 5.16431,0.45669 5.50977,1.01562 0.34546,0.55899 1.04659,0.75785 1.55859,0.44141 0.51199,-0.31643 1.47114,-0.24171 2.13086,0.16602 0.65973,0.40773 2.12223,0.84624 3.25,0.97461 6.10638,0.69501 11.54306,1.78087 15.55078,3.10546 2.475,0.81807 5.4,1.61519 6.5,1.77149 1.1,0.1563 3.26614,0.78801 4.81445,1.4043 1.5483,0.6163 4.13195,1.12109 5.74024,1.12109 1.6083,0 5.29214,0.90027 8.18554,2 2.8934,1.09972 6.15977,1.99333 7.25977,1.98633 1.87884,-0.0114 14.4253,3.36148 24.5,6.58594 14.8657,4.75785 38.3311,5.22049 55.2637,1.08984 5.616,-1.37001 5.7735,-1.3508 6.1875,0.7168 0.2336,1.16697 0.7008,11.12109 1.039,22.12109 0.3382,11 0.8153,22.925 1.0586,26.5 3.2791,48.19011 1.754,59.9189 -8.5488,65.76562 -5.4056,3.06764 -13.9714,3.68508 -21.5,1.55079 -2.75,-0.77961 -9.6059,-1.58673 -15.2363,-1.79297 -17.3708,-0.63629 -30.111,-3.77252 -44.7637,-11.02344 -6.05,-2.99384 -16.625,-7.74732 -23.5,-10.5625 -6.875,-2.81518 -13.85,-5.72988 -15.5,-6.47656 -6.01621,-2.72256 -24.12972,-8.313 -29,-8.95117 -2.75,-0.36034 -6.8,-1.24095 -9,-1.95508 -6.89151,-2.23701 -31.61432,-2.86193 -45.09766,-1.14063 -6.54596,0.83566 -14.15234,1.42185 -16.90234,1.30274 l -5,-0.2168 0.0606,-9.5 c 0.0555,-8.67201 1.09581,-19.6148 2.00586,-21.10156 0.20256,-0.33092 0.84949,-5.7041 1.4375,-11.93946 0.74115,-7.85916 1.83499,-13.19653 3.5664,-17.39843 1.61797,-3.92657 3.18316,-11.14279 4.44336,-20.49024 1.06993,-7.93616 2.37573,-14.8601 2.90235,-15.38672 0.52661,-0.52661 4.61089,-1.10877 9.07617,-1.29492 4.46528,-0.18615 8.60185,-0.63759 9.1914,-1.00195 1.34275,-0.82987 10.28695,-1.59232 18.81641,-1.60352 z M 404,555 c -0.55,0 -1,0.70113 -1,1.55859 0,0.85748 0.45,1.28133 1,0.94141 0.55,-0.33992 1,-1.04105 1,-1.55859 C 405,555.42387 404.55,555 404,555 Z m 444.8457,4.55273 c 0.76772,-0.0123 1.60678,0.009 2.5293,0.0547 3.36849,0.16814 7.3625,0.32581 8.875,0.34961 2.38939,0.0376 2.75,0.44205 2.75,3.0918 0,1.67731 -0.74498,4.48981 -1.65625,6.25 -0.91127,1.76019 -1.92377,5.67617 -2.25,8.70117 -0.5676,5.26312 -0.72296,5.50631 -3.59375,5.66602 -1.65,0.0918 -4.35,-0.29509 -6,-0.86133 -5.57456,-1.91305 -16.5,-7.18586 -16.5,-7.96289 0,-0.42439 0.93028,-1.26892 2.06641,-1.87696 1.13613,-0.60803 2.95841,-3.21134 4.05078,-5.78515 2.47993,-5.84313 4.35449,-7.54082 9.72851,-7.62696 z m -25.31445,19.26954 c 2.02026,-0.0619 4.58973,0.72249 10.07422,2.84961 4.89155,1.8971 11.03424,4.24774 13.64844,5.2246 2.6142,0.97686 5.0215,2.04493 5.34961,2.37305 0.32812,0.32812 0.0688,2.1962 -0.57618,4.15039 -0.64494,1.95419 -1.47723,3.71279 -1.84961,3.91016 -0.37237,0.19737 -3.15273,-0.42276 -6.17773,-1.37891 -10.87896,-3.43864 -16.64621,-4.24398 -31.45508,-4.39258 -11.69429,-0.11735 -16.31535,-0.56806 -20.75,-2.02343 -6.0798,-1.99528 -6.72042,-3.52518 -1.48633,-3.55078 1.75504,-0.009 5.89141,-0.71209 9.19141,-1.56446 3.3,-0.85237 8.925,-2.1802 12.5,-2.94922 3.575,-0.76903 7.89702,-1.81526 9.60547,-2.32422 0.63852,-0.19021 1.25236,-0.3036 1.92578,-0.32421 z m 247.74605,18.50585 c 0.266,-0.0122 0.4686,0.0146 0.584,0.0859 0.462,0.2853 0.7077,2.67185 0.5469,5.30274 -0.1608,2.63089 -0.557,11.07424 -0.8809,18.76367 -0.3239,7.68944 -0.9129,14.30431 -1.3085,14.69922 -1.3581,1.35577 -8.9377,2.0842 -9.6524,0.92773 -0.4058,-0.6566 -3.8507,-1.10742 -8.459,-1.10742 -4.2758,0 -8.058,-0.28457 -8.4062,-0.63281 -0.3483,-0.34824 0.6895,-2.48574 2.3086,-4.75 2.8179,-3.941 2.9592,-4.64961 3.2968,-16.58203 l 0.3536,-12.46485 4.4199,-0.16211 c 5.3008,-0.19491 9.2933,-1.08482 13.6816,-3.05078 1.3452,-0.60265 2.7179,-0.99271 3.5156,-1.0293 z m -231.67574,3.44141 c 0.2936,0.003 0.60466,0.0152 0.9336,0.041 4.98304,0.39141 7.36499,2.39856 5.50586,4.63867 -1.60841,1.93802 -2.70023,1.91912 -6.83594,-0.11914 -4.40849,-2.1727 -4.00744,-4.60542 0.39648,-4.56055 z m -785.103513,8.70899 c 0.535318,0.0181 1.219528,0.39877 2.392578,1.15234 1.434871,0.92177 4.634375,3.79676 7.109375,6.38867 2.475,2.59191 5.286111,4.98322 6.248047,5.31445 1.585117,0.54582 1.617477,0.91046 0.337891,3.88477 -0.776528,1.80498 -2.499628,5.95543 -3.830079,9.22461 -1.33045,3.26918 -2.868444,6.09417 -3.417968,6.27734 -0.780245,0.26008 -3.642019,-6.1766 -3.876953,-8.7207 -0.118925,-1.28783 -2.870575,-9.10869 -5.181641,-14.72852 C 52.158947,613.11542 51.938804,611.77867 53,610.5 c 0.576361,-0.69447 0.962729,-1.03957 1.498047,-1.02148 z m 370.332033,7.10156 c 1.21173,0.0453 2.16992,0.51993 2.16992,1.35156 0,0.39502 2.00871,3.30575 4.46484,6.46875 4.88733,6.29391 16.03814,15.11655 24.30469,19.23047 2.89815,1.44228 5.51327,3.01975 5.8125,3.50391 0.88766,1.43627 6.52848,4.05819 9.83985,4.57421 1.69332,0.26388 3.57419,0.88525 4.17968,1.38282 0.60549,0.49758 3.20532,1.19433 5.77735,1.54687 4.95591,0.67928 6.52507,1.85774 4.78906,3.59375 -1.06579,1.06579 -8.39054,2.18576 -9.2207,1.41016 -0.24583,-0.22968 -3.49359,-0.68552 -7.2168,-1.01367 -12.11698,-1.06793 -19.30681,-2.56781 -26.46485,-5.51953 -3.8668,-1.59457 -8.47743,-3.21658 -10.24804,-3.60547 -1.77062,-0.38889 -5.59736,-1.79629 -8.50391,-3.12696 -4.90818,-2.24704 -5.44527,-2.84721 -7.52929,-8.41992 -1.23416,-3.30008 -2.64201,-6.24595 -3.12891,-6.54687 -0.48691,-0.30092 -1.5782,-2.2027 -2.42383,-4.22657 -1.46873,-3.51516 -1.43904,-3.75971 0.64258,-5.44531 1.19851,-0.97049 3.35978,-2.03569 4.80273,-2.36914 1.44295,-0.33346 3.61164,-1.22319 4.82032,-1.97656 0.78644,-0.49019 1.72897,-0.75077 2.59961,-0.80469 0.18137,-0.0112 0.36009,-0.0137 0.5332,-0.008 z m -376.968752,6.43164 c 0.35129,0.006 1.366628,1.69381 2.25586,3.75 0.889229,2.05619 2.351731,5.44032 3.25,7.52148 C 54.265452,636.36436 55,639.36789 55,640.95703 c 0,1.58914 1.063539,4.16211 2.363281,5.7168 3.06941,3.67151 3.715789,6.04165 2.806641,10.30273 -0.644365,3.02007 -1.168498,3.51189 -3.984375,3.74024 -3.460707,0.28065 -4.586211,-1.28712 -5.898438,-8.2168 -0.312449,-1.65 -0.940075,-3.73048 -1.394531,-4.62305 -0.454455,-0.89256 -1.117961,-4.94256 -1.472656,-9 -0.354695,-4.05743 -0.840019,-7.70623 -1.080078,-8.10937 -0.59841,-1.00494 0.728673,-7.77006 1.521484,-7.75586 z m 996.445272,17.75 c 0.6633,-0.0358 1.2838,0.0667 1.9981,0.25 1.7574,0.45087 6.2328,1.11715 9.9453,1.48242 5.6779,0.55864 6.75,0.96158 6.75,2.52734 0,1.02376 0.4721,2.1514 1.0488,2.50782 1.8954,1.17146 -1.084,3.42602 -6.6797,5.05273 -3.1145,0.90539 -5.3691,2.13435 -5.3691,2.92774 0,1.43064 -2.5553,1.91812 -15.8145,3.01757 -4.0225,0.33354 -9.1975,1.27137 -11.5,2.08399 -4.2512,1.50039 -14.5436,1.69834 -18.1855,0.34961 -1.8397,-0.68129 -1.7761,-0.82996 0.8145,-1.85156 1.5483,-0.6106 3.6596,-1.10938 4.6914,-1.10938 1.0317,0 2.1584,-0.45667 2.5039,-1.01562 0.3454,-0.55899 0.9341,-0.84897 1.3086,-0.64258 0.8345,0.4599 5.1578,-1.98411 17.6757,-9.9961 6.4486,-4.12739 8.8229,-5.47654 10.8125,-5.58398 z m 20.6192,13.3457 c 0.2783,-0.009 0.5682,0.009 0.8652,0.0586 1.945,0.3219 1.9331,0.40122 -0.3242,2.08593 -1.5857,1.1835 -2.5649,1.3977 -3.0195,0.66211 -0.8417,-1.36174 0.5302,-2.74529 2.4785,-2.80664 z m -932.5176,5.17969 c -16.93919,-0.0487 -31.83587,0.30515 -33.103512,0.78711 -2.810429,1.06852 -3.014735,3.72726 -0.361329,4.70703 1.069131,0.39478 15.477891,0.69446 32.019531,0.66406 26.32093,-0.0484 30.27809,-0.25856 31.69336,-1.67383 0.88944,-0.88944 1.37736,-2.24131 1.08398,-3.00586 -0.43839,-1.14242 -6.02031,-1.40581 -31.33203,-1.47851 z m 920.6758,2.2207 c 0.6164,-0.0563 1.1995,0.14067 1.4433,0.53516 0.3251,0.52598 -0.3362,0.95703 -1.4687,0.95703 -2.4145,0 -2.6571,-0.55638 -0.5898,-1.34961 0.2018,-0.0774 0.4097,-0.12381 0.6152,-0.14258 z m -881.50392,0.0918 c -0.37516,-0.005 -1.16709,0.53509 -2.44922,1.57422 -1.57851,1.27933 -2.70178,2.62282 -2.49609,2.98633 0.7373,1.303 3.73848,0.13371 4.47461,-1.74414 0.74565,-1.90228 0.95304,-2.81011 0.4707,-2.81641 z m 979.76372,0.67187 c -1.3488,0.0157 -2.925,0.11793 -4.7735,0.28711 -11.168,1.02215 -12.7274,1.10138 -37.9004,1.91797 -19.9097,0.64586 -23.9248,1.02323 -24.4121,2.29297 -0.9356,2.43828 2.6246,4.21436 8.1641,4.07227 7.6909,-0.19726 14.4419,0.22719 21.0195,1.32422 3.2676,0.54499 8.5515,1.15108 11.7422,1.3457 5.4949,0.33517 8.3647,0.96197 15.3164,3.3457 1.65,0.56581 5.025,0.82653 7.5,0.58008 11.1625,-1.11148 12.4696,-2.12447 11.457,-8.87695 -0.7196,-4.79864 -2.2696,-6.35725 -8.1132,-6.28907 z M 197.9082,663 c -0.46539,0 -0.58611,0.675 -0.26953,1.5 0.31659,0.825 1.25635,1.5 2.08985,1.5 1.23369,0 1.28491,-0.27889 0.27148,-1.5 -0.68469,-0.825 -1.62641,-1.5 -2.0918,-1.5 z m 954.6504,6 c 0.2426,0 0.4414,0.45 0.4414,1 0,0.55 -0.4762,1 -1.0586,1 -0.5825,0 -0.7813,-0.45 -0.4414,-1 0.3399,-0.55 0.8161,-1 1.0586,-1 z" id="path12"/>
</svg>
