<?xml version="1.0" encoding="utf-8"?>

<svg xmlns="http://www.w3.org/2000/svg" version="1.1" viewBox="0 0 367.04001 233.60001">











	<path d="m 279.04001,231.96284 c -1.31639,-0.18024 -8.18895,-0.34724 -17.11268,-0.41583 -3.07489,-0.0236 -3.52647,-0.0967 -3.62328,-0.58607 -0.17155,-0.86711 1.05385,-1.12956 4.41596,-0.94581 5.10768,0.27915 7.02756,0.33057 11.52,0.30849 2.376,-0.0117 7.78423,0.0129 12.0183,0.0547 6.69672,0.066 7.75307,0.01 8.11919,-0.43119 0.56011,-0.6749 1.93011,-0.64527 2.44481,0.0529 0.38731,0.52536 0.45548,0.51452 1.10188,-0.17517 0.58847,-0.62789 0.95368,-0.72129 2.50242,-0.64 l 1.8134,0.0952 0.0673,1.21494 c 0.0481,0.8691 -0.0805,1.27165 -0.45197,1.41417 -0.68111,0.26137 -20.95019,0.30909 -22.81528,0.0537 z m -29.45087,-0.91106 c -1.48596,-0.27403 -1.90913,-0.56133 -1.90913,-1.29615 0,-0.44613 -0.31748,-0.66841 -1.2,-0.84017 -2.38636,-0.46445 -6.34569,0.003 -7.76,0.91606 -1.10182,0.71136 -2.22417,0.78066 -3.36,0.20747 -0.60873,-0.30718 -1.31128,-0.40679 -1.92,-0.27222 -1.08231,0.23928 -2.2321,0.18396 -7.6,-0.36565 -2.068,-0.21174 -3.76,-0.49591 -3.76,-0.63148 0,-0.40972 -1.21294,-0.6659 -3.79141,-0.80076 -1.34673,-0.0704 -3.24059,-0.19787 -4.20859,-0.28319 -0.968,-0.0853 -3.39544,-0.22249 -5.3943,-0.30484 -1.99886,-0.0823 -4.42464,-0.31378 -5.39063,-0.51432 -1.94828,-0.40446 -2.97344,-0.51364 -5.45507,-0.58095 -1.31508,-0.0357 -1.68,-0.15794 -1.68,-0.56289 0,-0.37268 -0.19342,-0.46674 -0.69174,-0.33643 -0.38045,0.0995 -0.94098,0.0475 -1.24561,-0.11553 -1.0096,-0.54032 -15.48224,-0.40098 -18.80691,0.18106 -0.63439,0.11106 -1.25426,0.0286 -1.53467,-0.20408 -0.31617,-0.2624 -2.01322,-0.40742 -5.17574,-0.44229 -7.09572,-0.0782 -6.84688,-0.0455 -6.72759,-0.88541 0.10132,-0.71345 0.14299,-0.71902 4.58225,-0.61282 2.464,0.059 5.416,0.2361 6.56,0.39366 3.30371,0.45503 7.59085,0.37197 8.41126,-0.16294 0.40897,-0.26665 1.58854,-0.48098 2.78875,-0.50672 1.61849,-0.0347 22.33528,0.28739 23.04,0.35822 0.088,0.009 2.00263,0.0609 4.25473,0.11575 3.25483,0.0792 4.19017,0.004 4.56,-0.3656 0.2559,-0.2559 0.46527,-0.56383 0.46527,-0.68429 0,-0.70775 2.35347,-1.15525 6.4,-1.21693 4.68924,-0.0715 5.31203,-0.15473 6.63929,-0.88763 0.87386,-0.48253 4.21101,-1.40469 5.94288,-1.64219 0.97176,-0.13326 2.78343,-1.1441 3.41553,-1.90574 0.47493,-0.57226 2.16806,-1.44277 2.80615,-1.44277 0.35434,0 0.40659,-0.21019 0.21877,-0.88 -0.40241,-1.43509 -0.25219,-3.58853 0.2923,-4.19019 0.46519,-0.51403 0.41773,-0.60208 -0.62793,-1.16521 -1.8051,-0.97211 -1.7869,-0.89189 -1.63442,-7.2046 0.0446,-1.848 -0.10622,-4.584 -0.33525,-6.08 -0.22903,-1.496 -0.48845,-3.44 -0.57649,-4.32 -0.088,-0.88 -0.29399,-2.392 -0.45766,-3.36 -0.54516,-3.2244 -0.92392,-6.86193 -0.88296,-8.48 0.0223,-0.88 -0.0789,-3.77277 -0.22491,-6.42837 l -0.26541,-4.82836 1.03827,-3.01164 c 0.87564,-2.53991 1.98199,-5.29691 2.44544,-6.09402 0.0647,-0.11132 -0.20155,-0.60821 -0.59171,-1.10422 -1.18234,-1.50311 -2.23557,-4.04992 -2.30487,-5.57339 -0.0693,-1.52285 -0.50706,-2.57599 -1.52142,-3.65984 -0.33981,-0.36309 -0.85374,-1.16416 -1.14208,-1.78016 -0.28834,-0.616 -1.40803,-1.984 -2.48821,-3.04 -1.78619,-1.74622 -6.94332,-8.36669 -7.72736,-9.92 -5.83652,-11.56313 -8.78274,-18.99441 -9.19791,-23.20001 -0.0956,-0.968 -0.31798,-3.056 -0.49427,-4.64 -0.17629,-1.584 -0.3217,-4.12971 -0.32315,-5.65714 -0.002,-2.095374 -0.12607,-2.90059 -0.50548,-3.279998 -0.73362,-0.733623 -1.2596,-0.622474 -2.16907,0.458368 -1.00115,1.189798 -6.12539,5.43877 -6.55913,5.43877 -0.40271,0 0.1669,-2.20351 0.74449,-2.88 0.50695,-0.593765 2.05392,-5.04598 1.83079,-5.2691 -0.31731,-0.317315 -5.08481,2.973955 -5.60013,3.866083 -0.39966,0.691904 -1.1524,0.52073 -1.36076,-0.30944 -0.35524,-1.415385 0.78427,-4.360326 2.32419,-6.006621 0.78653,-0.84087 1.34868,-1.660541 1.24921,-1.821488 -0.0995,-0.16095 -0.93881,-0.247229 -1.86519,-0.191734 -1.24055,0.07431 -2.05153,-0.08249 -3.07804,-0.595155 -1.88146,-0.939645 -2.61203,-2.407303 -2.61822,-5.259793 -0.003,-1.195011 -0.1826,-2.477945 -0.4,-2.85096 -0.21741,-0.373017 -0.64303,-1.113638 -0.94583,-1.645827 -0.83186,-1.462035 -1.22157,-5.356259 -0.62173,-6.212653 0.42881,-0.612214 0.41569,-0.717414 -0.13668,-1.095571 -1.81006,-1.239172 -1.81928,-1.270925 -1.61833,-5.567738 0.24455,-5.229146 0.49915,-8.655594 0.66283,-8.920432 0.0724,-0.117063 0.0191,-1.97369 -0.11823,-4.125844 -0.22558,-3.533987 -0.33518,-4.036246 -1.13155,-5.185408 -0.48498,-0.699821 -1.06969,-2.103984 -1.29937,-3.120362 -0.22968,-1.016374 -0.64563,-2.465069 -0.92434,-3.219322 -0.44052,-1.19216 -0.44803,-1.484873 -0.0575,-2.24 0.79651,-1.539987 3.9199,-3.737897 5.8178,-4.093945 1.69224,-0.317466 3.97812,-1.363668 4.19087,-1.918074 0.0964,-0.251139 0.3471,-0.456615 0.55717,-0.456615 0.21007,0 0.77825,-0.626969 1.26263,-1.393264 0.48437,-0.766297 1.8154,-2.098296 2.95785,-2.960001 1.14245,-0.861704 2.27443,-1.866701 2.51552,-2.233326 0.38649,-0.587743 7.41771,-5.797387 8.38596,-6.213409 0.20481,-0.088 0.85281,-0.596993 1.44,-1.131095 0.58719,-0.534103 2.07562,-1.486924 3.30762,-2.11738 1.232,-0.630457 2.672,-1.367744 3.2,-1.638416 2.51894,-1.291304 5.08403,-2.220339 6.06875,-2.198005 0.0877,0.002 0.59625,-0.121671 1.13018,-0.274798 0.53392,-0.153128 1.7094,-0.372184 2.61216,-0.486792 1.10165,-0.139858 2.20883,-0.585139 3.36703,-1.354143 3.80372,-2.5255306 9.98021,-3.8890107 11.14188,-2.4596081 0.25092,0.3087531 0.8708,0.2606761 2.87156,-0.2227136 2.81186,-0.679352 4.32844,-0.5588227 4.32844,0.3440007 0,0.434639 0.18892,0.534084 0.79466,0.41829 0.43707,-0.08355 1.04907,-0.03785 1.36,0.101554 0.51662,0.231622 1.41395,0.326337 4.08534,0.431216 0.97327,0.03821 2.02654,0.509034 1.75073,0.782594 -0.0829,0.08223 -1.29746,0.235981 -2.69901,0.341675 -1.40155,0.105694 -2.69035,0.334247 -2.864,0.507896 -0.34763,0.347632 -0.46963,0.334652 4.50402,0.479208 2.20631,0.06413 3.54375,0.256239 4.16,0.597551 0.49954,0.276673 1.16723,0.597243 1.48375,0.712378 0.31653,0.115135 0.52714,0.442718 0.46804,0.727962 -0.0824,0.397779 -0.42508,0.498238 -1.47052,0.43113 -0.74968,-0.04812 -1.60829,0.06889 -1.90803,0.260024 -0.40685,0.259439 0.18497,0.311766 2.33502,0.206452 1.584,-0.07759 3.06,-0.0746 3.28,0.0066 0.63552,0.234683 0.46362,1.054377 -0.22112,1.054377 -0.34161,0 -0.71011,0.144 -0.81888,0.32 -0.10878,0.176 -0.54928,0.32 -0.97889,0.32 -0.42961,0 -0.78111,0.157318 -0.78111,0.349596 0,0.356961 2.32943,0.253498 4.36119,-0.193704 0.61479,-0.13532 1.0852,-0.08443 1.21888,0.13187 0.11974,0.193731 0.5692,0.352238 0.99881,0.352238 0.56778,0 0.78112,0.174793 0.78112,0.64 0,0.609165 -0.47634,0.806767 -1.57174,0.652007 -0.84978,-0.12006 -2.58826,0.336559 -2.58826,0.679815 0,0.193408 0.3003,0.264291 0.68903,0.162636 0.37896,-0.0991 1.09181,0.0281 1.58411,0.282679 0.49229,0.254574 1.4606,0.462863 2.15179,0.462863 1.28499,0 2.59912,0.907891 1.73507,1.198706 -0.22,0.07405 -0.4,0.266627 -0.4,0.427961 0,0.161333 0.18,0.296235 0.4,0.299782 0.46615,0.0075 4.08,3.427023 4.08,3.860594 0,0.161126 -0.216,0.292957 -0.48,0.292957 -0.8506,0 -0.51031,0.582492 0.46549,0.796814 0.54658,0.120048 1.03145,0.478484 1.14922,0.849541 0.29597,0.932507 0.0198,1.029567 -1.18497,0.416527 l -1.06974,-0.54431 0.72,0.781339 c 0.88159,0.956694 0.91856,1.32624 0.10693,1.068637 -0.66238,-0.21023 -1.20627,0.298123 -0.67215,0.628226 0.17887,0.110549 0.32522,0.480499 0.32522,0.822113 0,0.449187 -0.22144,0.621113 -0.8,0.621113 -0.99936,0 -1.00363,0.340999 -0.0231,1.846861 1.14057,1.751677 1.21507,2.95314 0.18311,2.95314 -0.7491,0 -0.77602,0.109222 -0.24,0.974105 0.32783,0.528983 0.31668,0.697258 -0.0618,0.932743 -0.38119,0.237161 -0.39306,0.438195 -0.068,1.151587 0.21659,0.475347 0.31728,0.940778 0.22377,1.034288 -0.22022,0.220221 -1.45394,-0.893158 -1.45394,-1.312115 0,-0.176109 -0.38235,-0.821479 -0.84966,-1.434151 -0.67397,-0.883625 -0.77796,-1.228749 -0.50293,-1.669139 0.24907,-0.398826 0.24885,-0.653056 -6.4e-4,-0.902691 -0.25,-0.250003 -0.24571,-0.47016 0.0153,-0.784679 0.26792,-0.322828 0.26902,-0.530973 0.004,-0.795785 -0.49665,-0.49649 -0.71629,-2.954164 -0.26418,-2.954164 0.21567,0 0.15936,-0.278097 -0.144,-0.711202 -0.27398,-0.391161 -0.49814,-1.02706 -0.49814,-1.41311 0,-0.622713 -0.35922,-0.987446 -2.87074,-2.914813 -0.0829,-0.06362 0.0571,-0.244097 0.31104,-0.40106 0.38917,-0.240523 0.37514,-0.318626 -0.0893,-0.496837 -1.11738,-0.428781 -0.4981,-0.782978 1.36897,-0.782978 2.64653,0 2.41516,-0.525318 -0.35385,-0.803399 -1.62961,-0.163656 -2.42007,-0.399127 -2.78994,-0.831098 -0.28384,-0.331508 -0.98735,-0.691153 -1.56335,-0.799211 -1.67321,-0.313896 -0.93421,-0.673349 1.09355,-0.531904 1.35984,0.09485 1.72573,0.03954 1.37359,-0.207646 -0.264,-0.185318 -0.97135,-0.339147 -1.57188,-0.341842 -1.24153,-0.0056 -4.50812,-0.960534 -4.50812,-1.317914 0,-0.325813 -1.76865,-0.684521 -3.27275,-0.663762 -1.77206,0.02446 -1.37872,-0.687903 0.53064,-0.961025 1.77031,-0.253231 2.30974,-0.582081 0.95544,-0.582461 -0.93947,-2.64e-4 -5.61599,-0.895725 -5.83815,-1.117892 -0.45555,-0.455551 0.62132,-0.711782 2.81802,-0.670518 1.41174,0.02652 2.5668,-0.06418 2.5668,-0.201557 0,-0.137374 -0.252,-0.250767 -0.56,-0.251984 -3.75275,-0.01483 -6.90799,-0.337391 -7.23011,-0.739139 -0.39769,-0.496009 -3.09311,-0.960124 -3.86216,-0.665012 -0.25703,0.09863 -0.40137,0.35121 -0.32075,0.561287 0.40881,1.065346 -4.28878,3.911276 -5.10644,3.093619 -0.466,-0.465998 0.58252,-1.782723 1.77467,-2.228633 2.27788,-0.852013 2.50479,-0.980541 2.50479,-1.418812 0,-0.491986 0.66713,-0.841097 1.60728,-0.841097 0.32722,0 0.6927,-0.158177 0.81219,-0.351504 0.26521,-0.429118 -2.51342,-0.111996 -3.46068,0.394964 -0.49567,0.265277 -0.71356,0.197985 -1.08748,-0.335858 -0.49698,-0.709538 -2.22455,-0.91769 -3.25235,-0.391869 -0.29643,0.151654 -0.94645,0.373281 -1.4445,0.492505 -0.77751,0.186125 -0.87932,0.134201 -0.72016,-0.367277 0.1566,-0.493411 0.024,-0.571163 -0.85447,-0.501011 -1.62637,0.129876 -4.57525,0.862641 -5.07087,1.260055 -0.95969,0.769535 -2.5127,1.386147 -3.01028,1.19521 -0.28702,-0.110141 -0.83614,-0.04748 -1.22027,0.139235 -0.73393,0.356755 -2.81217,0.824307 -3.89841,0.877043 -1.18953,0.05775 -3.65823,0.856691 -4.02951,1.304059 -0.20287,0.244446 -0.5526,0.444448 -0.77718,0.444448 -0.39247,0 -1.61871,0.61164 -5.74523,2.865669 -1.05156,0.57439 -2.62002,1.68099 -3.48548,2.45911 -0.86546,0.778119 -2.52509,1.943979 -3.68808,2.590799 -1.47355,0.819542 -3.27855,2.352565 -5.95452,5.057273 -5.04425,5.098414 -6.42544,6.170663 -8.70537,6.758199 -2.19201,0.56488 -4.42437,1.79025 -4.9081,2.694119 -0.2032,0.379677 -0.25904,1.264249 -0.13571,2.149961 0.11524,0.82768 0.2587,2.213185 0.31879,3.078903 0.0668,0.962765 0.4911,2.30249 1.09253,3.44984 0.60955,1.162855 1.1101,2.753847 1.31697,4.185968 0.18353,1.270589 0.43684,2.95816 0.56291,3.75016 0.22046,1.385079 0.12838,2.378996 -0.60776,6.560001 -0.18593,1.056 -0.40504,2.712 -0.48691,3.68 -0.0819,0.968 -0.21005,2.040682 -0.28482,2.383734 -0.0748,0.343056 0.15781,1.099056 0.51685,1.68 0.85504,1.383482 2.21326,1.415796 4.53092,0.107789 2.02334,-1.141904 3.71304,-3.318541 4.53072,-5.836384 0.49999,-1.539581 0.73417,-1.855946 1.498,-2.023709 1.10052,-0.241715 1.56098,0.0034 1.56098,0.830944 0,0.900829 -1.28256,3.497626 -1.72748,3.497626 -0.74794,0 -3.62487,4.000877 -4.14187,5.76 -0.0776,0.264 -0.79737,0.832976 -1.59952,1.264387 -1.4201,0.763764 -1.47553,0.768928 -2.10812,0.196442 -0.62343,-0.564202 -0.65859,-0.564694 -0.87061,-0.01219 -0.25302,0.659363 -0.25269,2.845927 6.4e-4,3.914279 0.0943,0.3976 0.69109,1.564883 1.32627,2.593964 1.00134,1.622301 1.17005,2.185629 1.26894,4.237095 0.0627,1.301319 0.12704,2.542717 0.14293,2.758659 0.0385,0.523876 1.25601,1.292084 2.36107,1.489792 1.15626,0.206871 5.33264,-0.891113 7.22782,-1.900217 0.81399,-0.433418 2.35716,-1.340051 3.42926,-2.014736 1.95709,-1.231626 3.13392,-1.699613 7.38775,-2.937866 1.26336,-0.367754 2.46899,-0.875856 2.67918,-1.12912 0.21019,-0.253261 0.73027,-0.460477 1.15573,-0.460477 1.82702,0 5.7641,-2.87057 7.46113,-5.44 0.63934,-0.968 1.49957,-2.552 1.91163,-3.52 0.41206,-0.968 0.95949,-2.246263 1.21652,-2.840583 0.25703,-0.59432 0.4967,-1.24232 0.5326,-1.44 0.24779,-1.364323 0.59598,-1.799418 1.44,-1.799418 0.48988,0 1.30817,-0.129824 1.81844,-0.288499 0.51026,-0.158675 2.00775,-0.612995 3.32775,-1.0096 1.32,-0.396601 2.62734,-0.914777 2.90519,-1.151497 0.27786,-0.236724 0.62578,-0.430404 0.77315,-0.430404 0.14737,0 1.28803,-0.631667 2.5348,-1.403709 1.24677,-0.772038 3.27486,-1.76727 4.50686,-2.211625 2.90196,-1.046672 6.85845,-3.137821 9.28,-4.904813 3.86585,-2.820893 7.22193,-4.965876 7.58194,-4.845872 0.20307,0.06769 -0.55579,0.827235 -1.68636,1.687875 -2.12489,1.617558 -2.49131,1.951801 -9.36242,8.540253 -2.25876,2.16584 -4.23876,3.985891 -4.4,4.044557 -0.16124,0.05867 -0.29316,-0.09043 -0.29316,-0.331331 0,-0.240899 0.9546,-1.338295 2.12134,-2.43866 1.16673,-1.100364 2.03032,-2.091686 1.91906,-2.202934 -0.11124,-0.111248 -0.88585,0.09555 -1.72133,0.459549 -0.83549,0.364 -2.16707,0.849901 -2.95907,1.079782 -2.13848,0.620695 -3.34738,1.372445 -3.46232,2.153024 -0.0811,0.550986 -0.25571,0.656397 -0.84297,0.509002 -0.72874,-0.182902 -3.12403,0.800403 -3.52325,1.446355 -0.10558,0.170826 -0.37496,0.240371 -0.59863,0.154541 -0.22366,-0.08583 -0.97505,0.08749 -1.66975,0.385158 -0.6947,0.297668 -2.27108,0.776976 -3.50308,1.065133 -1.95855,0.458087 -2.22814,0.60824 -2.14562,1.195015 0.0519,0.369104 -0.34408,1.362502 -0.88,2.207549 -0.53591,0.845049 -0.97533,1.904259 -0.97649,2.353801 -10e-4,0.449543 -0.28821,1.249351 -0.63789,1.777351 -0.34968,0.528 -0.63674,1.070928 -0.63789,1.206502 -0.004,0.511463 2.79469,-1.205033 4.72548,-2.89784 2.07156,-1.816237 3.13757,-2.084963 1.50306,-0.378902 -0.80845,0.843833 -4.27497,3.39736 -5.85135,4.31024 -1.14036,0.660384 -2.82752,1.927059 -4.2773,3.21127 -1.33695,1.184272 -5.08096,2.96114 -5.81666,2.760522 -0.15105,-0.04119 -0.75345,0.290304 -1.33864,0.736656 -0.5852,0.446355 -1.20551,0.811552 -1.37846,0.811552 -0.78974,0 -2.6305,3.049965 -4.16801,6.90601 -0.52947,1.327907 -0.62467,13.379358 -0.13882,17.573988 0.70914,6.12239 1.41774,8.49407 4.37776,14.6524 1.16645,2.42681 2.12083,4.47627 2.12083,4.55436 0,0.0781 0.576,1.08305 1.28,2.23325 0.704,1.15019 1.28,2.2389 1.28,2.41935 0,0.18045 1.188,1.53101 2.64,3.00126 1.452,1.47025 3.16403,3.3084 3.80451,4.08477 1.1137,1.35 1.28123,1.43188 3.84,1.87661 1.74649,0.30355 3.34216,0.38445 4.59549,0.233 2.92695,-0.35369 9.17997,-1.24878 10.08,-1.44291 0.44,-0.0949 1.376,-0.22228 2.08,-0.28305 1.76766,-0.1526 2.60276,-0.31963 4.64,-0.92807 0.968,-0.2891 2.336,-0.66216 3.04,-0.82902 0.704,-0.16686 1.568,-0.44578 1.92,-0.61983 1.15283,-0.57 7.3305,-2.603 8.64,-2.84333 0.704,-0.1292 1.748,-0.48023 2.32,-0.78006 0.572,-0.29984 1.04,-0.47239 1.04,-0.38345 0,0.19206 6.00525,-1.88079 7.84,-2.70615 1.66724,-0.75001 3.05092,-1.3467 5.6,-2.41489 3.88314,-1.62725 5.91396,-2.69125 8.89352,-4.65955 1.63544,-1.08037 3.04283,-1.895 3.12753,-1.8103 0.3821,0.3821 -0.37309,1.29003 -1.58052,1.90018 -0.72629,0.36702 -2.11623,1.26088 -3.08874,1.98637 -0.97252,0.72549 -2.41252,1.63371 -3.2,2.01827 -2.41127,1.17754 -4.91064,2.26477 -5.75179,2.50204 -0.44,0.12411 -1.448,0.58234 -2.24,1.01828 -0.792,0.43593 -2.448,1.12525 -3.68,1.53181 -1.232,0.40656 -2.6,0.88717 -3.04,1.06804 -1.14169,0.46929 -6.08092,1.93539 -7.09193,2.10508 -0.46857,0.0786 -1.1311,0.29239 -1.47229,0.47499 -0.3412,0.1826 -2.69383,0.99713 -5.22807,1.81007 -2.53424,0.81294 -5.10045,1.71936 -5.70269,2.01428 -0.60224,0.29491 -1.17824,0.54131 -1.28,0.54755 -0.10176,0.006 -0.49746,0.18511 -0.87933,0.3975 -0.38187,0.2124 -2.01279,0.45965 -3.62427,0.54946 -1.61147,0.0898 -3.96304,0.3788 -5.22569,0.64222 -1.26265,0.26342 -2.88808,0.47907 -3.61206,0.47921 -0.72397,1.5e-4 -2.01997,0.13351 -2.88,0.29636 -2.05736,0.38958 -5.57808,0.49949 -6.28367,0.19617 -0.34527,-0.14843 -0.56,-0.10187 -0.56,0.12142 0,0.19919 0.39536,0.51247 0.87858,0.69619 1.57858,0.60018 2.96142,1.86691 2.96142,2.71277 0,0.43454 0.36,1.36035 0.8,2.05736 0.44,0.697 0.8,1.35374 0.8,1.45941 0,0.10567 0.50004,0.94547 1.1112,1.86623 0.61117,0.92076 1.32525,2.18638 1.58686,2.8125 0.26161,0.62613 0.98557,1.80643 1.6088,2.6229 0.62322,0.81647 1.13314,1.63295 1.13314,1.8144 0,0.31947 2.43185,2.86456 2.73711,2.86456 0.0832,0 0.85909,-0.66806 1.72421,-1.48457 1.42069,-1.34094 4.51147,-3.31544 5.18974,-3.31544 0.14788,0 0.26888,0.1909 0.26888,0.42422 0,0.50478 -1.10072,1.51571 -2.30346,2.11557 -1.35806,0.67732 -2.30946,1.85843 -4.26941,5.30021 -1.40647,2.46983 -1.81394,3.48117 -1.78574,4.43224 0.0201,0.67773 -0.0642,1.3952 -0.18728,1.59437 -0.1231,0.19918 -0.25173,0.58067 -0.28584,0.84776 -0.0341,0.2671 -0.31779,2.06124 -0.63039,3.98699 -0.47978,2.95573 -0.5116,3.90319 -0.20419,6.08 0.20029,1.41825 0.27745,3.19614 0.17146,3.95087 -0.22352,1.59167 0.37289,6.47631 1.10227,9.02777 0.29814,1.04291 0.5784,3.71071 0.68786,6.54774 l 0.18472,4.78774 1.76,0.36244 c 0.968,0.19934 2.336,0.61762 3.04,0.92952 1.64067,0.72687 8.11486,1.05459 8.28184,0.41922 0.17839,-0.67877 1.11277,-3.79837 1.82242,-6.08449 0.36841,-1.18681 0.80401,-2.24076 0.96801,-2.34211 0.16399,-0.10136 0.2152,-0.31854 0.11379,-0.48262 -0.10141,-0.16408 0.18174,-1.48613 0.62921,-2.93789 0.44748,-1.45175 0.80887,-2.92755 0.80309,-3.27955 -0.0216,-1.31764 0.34316,-6.76083 0.52377,-7.81528 0.10318,-0.6024 0.24405,-2.68203 0.31304,-4.62141 0.10459,-2.9401 0.22721,-3.62792 0.73781,-4.13852 0.55581,-0.55581 3.98351,-2.13973 4.63824,-2.14331 0.44833,-0.003 7.64353,-2.55537 8.84728,-3.1391 1.67797,-0.81368 6.92258,-4.76831 7.75347,-5.8464 0.40042,-0.51955 1.3331,-1.68196 2.07262,-2.58314 0.73953,-0.90117 2.28766,-3.52723 3.44029,-5.83567 1.15264,-2.30845 3.26479,-6.42917 4.69367,-9.15717 1.42889,-2.728 2.87079,-5.824 3.20422,-6.88 0.33344,-1.056 0.70106,-2.136 0.81694,-2.4 0.11588,-0.264 0.24701,-0.77523 0.2914,-1.13606 0.0444,-0.36084 0.43982,-1.94484 0.87873,-3.52001 0.78978,-2.83436 1.4518,-7.85042 1.66025,-12.57947 0.0593,-1.34446 0.18512,-3.38046 0.27969,-4.52446 0.37563,-4.54395 0.16946,-14.15873 -0.46661,-21.760007 -0.16937,-2.024 -0.36009,-4.328 -0.42382,-5.12 -0.19533,-2.427139 -0.82707,-6.163684 -1.29846,-7.68 -0.24622,-0.792001 -0.54035,-2.016001 -0.65361,-2.720001 -0.11327,-0.704 -0.3302,-1.712 -0.48207,-2.24 -0.15186,-0.528 -0.44802,-1.752 -0.65812,-2.72 -0.2101,-0.968 -0.56712,-2.192 -0.79338,-2.72 -0.22625,-0.528 -0.78813,-2.184 -1.24861,-3.68 -0.91578,-2.975159 -2.6396,-7.241124 -3.23269,-8 -0.20632,-0.264 -0.4645,-0.732 -0.57373,-1.04 -0.23161,-0.653095 -0.51085,-0.688202 -1.19158,-0.149824 -0.50477,0.399209 -2.5471,3.318505 -2.5471,3.640803 0,0.09839 -1.46303,1.927174 -3.25117,4.063958 -2.95393,3.529876 -6.34013,6.889415 -8.17476,8.110414 -0.66219,0.440704 -1.37407,0.348908 -1.37407,-0.177184 0,-0.128736 1.476,-1.748541 3.28,-3.599565 5.49086,-5.633991 6.64,-6.953857 6.64,-7.626516 0,-0.704147 2.7706,-4.085674 6.06926,-7.407543 1.1499,-1.158003 2.88274,-2.960246 3.85074,-4.004985 1.8087,-1.952087 5.33401,-5.156701 8.16,-7.417681 2.08625,-1.669139 4.42857,-4.148054 6.65018,-7.037981 l 1.78817,-2.326099 -1.1173,-1.976698 c -1.60556,-2.840538 -3.00105,-6.489689 -3.00105,-7.847648 0,-0.982227 -0.33122,-1.683453 -0.79516,-1.683453 -0.22368,0 -1.25227,0.964869 -2.28576,2.144152 -1.0335,1.179284 -2.27508,2.579376 -2.75908,3.111316 -0.484,0.53194 -0.88,1.052331 -0.88,1.156425 0,0.104094 -1.836,1.467548 -4.08,3.029896 -2.244,1.562352 -4.64364,3.275911 -5.33252,3.807911 -0.68889,0.532003 -1.72281,1.219334 -2.2976,1.527401 -1.71527,0.919332 -9.93858,6.859156 -10.29168,7.433834 -0.13101,0.213232 -0.56794,0.61258 -0.97096,0.887444 -1.7499,1.193459 -6.43337,6.056605 -7.85632,8.157734 -0.85624,1.26433 -1.71029,1.911194 -2.06069,1.560791 -0.33656,-0.336567 1.85779,-3.191117 4.71281,-6.130717 2.27754,-2.345018 2.88003,-3.14048 2.54115,-3.355088 -0.75968,-0.481088 -2.49378,-0.319623 -3.81694,0.355404 -0.95235,0.485856 -1.26725,0.539789 -1.26725,0.217044 0,-0.375111 1.73029,-1.300148 3.67103,-1.962583 0.52112,-0.177875 0.55012,-0.265395 0.16652,-0.50248 -0.59479,-0.367597 -0.69772,-2.146922 -0.13666,-2.362224 0.41373,-0.158762 0.31206,-0.9072 -0.3418,-2.516259 -0.33121,-0.815053 0.46538,-0.694288 1.515,0.22968 0.48075,0.4232 1.31452,1.462649 1.85283,2.309888 l 0.97874,1.540432 -0.70406,0.572774 c -0.48626,0.395588 -0.60137,0.67546 -0.37211,0.904717 0.22925,0.229255 0.67889,0.02733 1.45347,-0.652774 0.61684,-0.541594 1.25742,-0.984717 1.4235,-0.984717 0.16609,0 0.65108,-0.372237 1.07776,-0.827194 0.92368,-0.984899 7.47314,-5.958826 8.61578,-6.543181 0.44,-0.225017 1.376,-0.875763 2.08,-1.446102 0.704,-0.57034 1.73217,-1.303952 2.28482,-1.63025 0.55265,-0.326301 1.81265,-1.071843 2.8,-1.656758 0.98735,-0.584917 1.79518,-1.196917 1.79518,-1.360001 0,-0.163083 0.20504,-0.296515 0.45566,-0.296515 0.47455,0 0.79702,-0.369802 3.38267,-3.879225 0.85876,-1.165574 2.53444,-3.037574 3.72372,-4.16 4.37358,-4.127731 5.87795,-5.81097 5.87795,-6.576845 0,-0.226981 0.61536,-1.054913 1.36745,-1.83985 0.8656,-0.903386 1.59141,-2.086009 1.97768,-3.222376 0.33561,-0.9873705 0.71,-1.8568896 0.83196,-1.9322649 0.12196,-0.075375 0.59635,-0.8958346 1.0542,-1.823243 1.16167,-2.3530705 3.14093,-4.5774278 3.83578,-4.3107906 1.60691,0.6166378 1.48867,4.0543432 -0.23722,6.8954518 -0.65619,1.0801767 -1.32166,2.4124387 -1.47888,2.9605827 -0.31856,1.110832 -0.44041,1.103842 2.24903,0.129029 1.57395,-0.570493 4.02598,-2.067899 7.12547,-4.3514146 2.72691,-2.0090097 3.95895,-2.6154193 5.83453,-2.8717969 0.88,-0.120289 2.07981,-0.4163812 2.66621,-0.6579828 1.03283,-0.4255155 1.09549,-0.4065398 2,0.6057732 1.03238,1.1553831 1.10672,1.5310164 0.56486,2.8541195 -0.20288,0.4954576 -0.41997,1.165935 -0.48243,1.4899495 -0.13482,0.6996581 -2.17725,3.3011981 -3.30483,4.2095171 -0.80557,0.648942 -1.86061,1.689052 -5.21245,5.138749 -3.17123,3.2638 -5.0072,4.611268 -8.43706,6.192198 -1.24729,0.574915 -2.61126,0.996952 -3.03107,0.93786 -0.59866,-0.08427 -0.78643,0.05667 -0.87088,0.653611 -0.10518,0.743765 -3.98011,6.92498 -4.7386,7.558948 -0.21057,0.176 -1.34312,1.760001 -2.51678,3.520001 -1.83358,2.749619 -3.23547,4.409427 -5.85014,6.926406 -0.30075,0.289524 -0.85003,0.865524 -1.2206,1.28 -0.37058,0.414477 -2.02658,1.998941 -3.68,3.521028 -1.65343,1.522089 -3.86058,3.556329 -4.90478,4.520534 l -1.89855,1.753095 0.57787,1.51311 c 0.62443,1.63506 2.23418,3.685828 2.8932,3.685828 0.22421,0 0.58693,-0.216 0.80603,-0.48 0.2191,-0.264 0.6825,-0.48 1.02978,-0.48 0.34728,0 1.01365,-0.259367 1.48082,-0.576368 0.90401,-0.613421 5.23441,-2.513994 7.8894,-3.46258 0.88,-0.314409 2.248,-1.014902 3.04,-1.556649 0.792,-0.541744 2.448,-1.595917 3.68,-2.342605 1.232,-0.746688 2.888,-1.833642 3.68,-2.415456 1.66134,-1.220439 6.31174,-3.726343 6.91526,-3.726343 0.22464,0 0.61293,0.291923 0.86282,0.64872 0.38009,0.542666 0.59382,0.595702 1.30736,0.324422 0.46912,-0.178361 1.2448,-0.69615 1.72374,-1.15064 0.47895,-0.454492 2.14775,-1.467558 3.70845,-2.251264 2.8752,-1.443766 3.12061,-1.604864 6.31475,-4.145546 1.79504,-1.427785 2.84762,-1.797596 2.84762,-1.000473 0,0.233872 -0.792,1.444525 -1.76,2.690339 -1.73658,2.234976 -2.36618,3.588106 -1.2,2.579104 1.00058,-0.865728 8.76678,-4.491379 9.95981,-4.649731 0.63811,-0.0847 1.42153,-0.292522 1.74096,-0.461837 1.03536,-0.548803 1.93401,-0.581501 2.67305,-0.09725 0.39802,0.260787 1.08874,0.47416 1.53492,0.47416 0.79385,0 1.03529,0.478748 0.56636,1.122995 -0.44694,0.614032 -2.80707,1.954272 -5.93961,3.372931 -2.07296,0.938784 -2.91808,1.458922 -2.48,1.52633 0.91046,0.140102 0.83321,0.647482 -0.24803,1.6292 -0.50189,0.455699 -1.00295,1.188544 -1.11348,1.628544 -0.4095,1.630215 -2.58326,3.63561 -5.53593,5.107127 -1.56093,0.777913 -3.37363,1.681773 -4.02823,2.008582 -0.99321,0.495869 -3.88048,1.401312 -5.24688,1.645424 -0.19638,0.03509 -0.6878,0.283399 -1.09206,0.551805 -0.6495,0.431258 -0.69552,0.601235 -0.39562,1.461536 0.42468,1.218224 0.22109,1.547571 -1.36646,2.210586 -0.69786,0.291433 -1.73783,0.94152 -2.31107,1.444637 -0.57328,0.503117 -1.93613,1.358237 -3.02858,1.900262 -1.09248,0.542026 -2.14787,1.119597 -2.34534,1.283488 -0.19751,0.163895 -0.96189,0.510682 -1.69869,0.77064 -0.7368,0.259959 -2.38039,0.972343 -3.65239,1.583072 -1.272,0.610733 -2.96073,1.322448 -3.75273,1.581594 -3.09425,1.012451 -4.73303,1.630451 -7.05422,2.660215 -1.32781,0.589068 -2.55317,1.071033 -2.72302,1.071033 -0.4346,0 -1.20206,1.295075 -1.30275,2.198336 -0.0465,0.417088 0.12812,1.082874 0.38801,1.479527 0.2599,0.396653 0.55971,1.495401 0.66624,2.441664 0.10654,0.946259 0.30865,1.868073 0.44915,2.048474 0.14049,0.1804 0.34847,1.1164 0.46217,2.08 0.1137,0.9636 0.48067,2.904 0.8155,4.312 0.962,4.045411 1.66274,14.971183 1.39562,21.759993 -0.12466,3.168 -0.25152,6.63025 -0.28192,7.69388 -0.0304,1.06364 -0.1446,2.0784 -0.25376,2.25503 -0.10917,0.17663 -0.29363,1.82639 -0.40991,3.66612 -0.11629,1.83974 -0.24247,3.63298 -0.28041,3.98498 -0.11425,1.06001 -1.18703,5.70733 -1.4993,6.49505 -0.16027,0.40428 -0.2914,1.08677 -0.2914,1.51664 0,0.42986 -0.33622,1.68309 -0.74715,2.78494 -1.09346,2.93196 -1.8221,5.07113 -2.10917,6.1922 -0.13926,0.54387 -0.68687,1.91187 -1.2169,3.04 -4.18675,8.91127 -4.12338,8.80295 -9.15957,15.65563 -1.99316,2.71208 -5.22822,6.47698 -5.73507,6.67437 -0.16782,0.0653 -1.1887,0.72346 -2.26863,1.46245 -2.68751,1.83905 -7.23448,4.15465 -10.12351,5.15552 -3.26182,1.13002 -5.71747,2.37625 -5.89672,2.99254 -0.0817,0.28086 -0.22839,1.77843 -0.326,3.32792 -0.0976,1.5495 -0.38299,3.7815 -0.63418,4.96 -0.25119,1.17851 -0.53022,3.97685 -0.62007,6.21853 -0.13629,3.40028 -0.29519,4.38146 -0.95871,5.92 -0.90312,2.09411 -2.0056,5.35555 -2.4882,7.36079 -0.39183,1.62803 -1.33832,2.44644 -3.45742,2.98955 -1.58156,0.40534 -2.22265,1.11738 -2.42545,2.69387 -0.0453,0.352 -0.26654,1.288 -0.49169,2.08 -0.50516,1.77697 -0.4999,1.75285 -0.77561,3.55694 -0.21362,1.39783 -0.17243,1.51486 0.769,2.18522 1.55866,1.10987 2.05272,2.38041 2.0715,5.32711 0.0119,1.87373 -0.14936,2.95708 -0.58367,3.92019 l -0.60015,1.33092 -3.23132,-0.05 c -1.77722,-0.0275 -3.7402,-0.14388 -4.36218,-0.25858 z m -28.20885,-4.99669 c 0.23115,-0.0718 0.33118,-0.27472 0.22229,-0.45092 -0.11091,-0.17945 -1.42176,-0.30236 -2.98028,-0.27945 -1.53026,0.0225 -4.87029,-0.0561 -7.42229,-0.17466 -2.89037,-0.13427 -4.81751,-0.0966 -5.11074,0.0998 -0.2589,0.17344 -0.4029,0.3824 -0.32,0.46434 0.0829,0.082 2.78734,0.21839 6.00985,0.30319 3.22251,0.0848 5.9412,0.23627 6.04152,0.33659 0.17712,0.17712 2.71267,-0.0358 3.55965,-0.29889 z m 33.27581,-3.30337 c 0.0645,-0.19344 -0.0337,-0.35171 -0.21817,-0.35171 -1.15492,0 -1.11008,-2.64248 0.15588,-9.18651 0.24541,-1.26858 0.4462,-2.38458 0.4462,-2.48 0,-0.0954 -0.49463,-0.17349 -1.09917,-0.17349 -0.60455,0 -1.48606,-0.1471 -1.95893,-0.32688 -1.18821,-0.45176 -1.73869,0.0895 -1.75534,1.72606 -0.007,0.72645 -0.26783,2.40082 -0.57876,3.72082 l -0.56532,2.4 -1.74124,0.87968 c -3.05923,1.54554 -4.46795,2.55562 -4.66627,3.34579 -0.10551,0.42039 -0.13843,0.81774 -0.0731,0.88302 0.0653,0.0653 0.82786,-0.0138 1.69464,-0.17574 1.15733,-0.21622 2.09232,-0.16889 3.51975,0.17816 3.48203,0.84656 6.47536,0.65436 6.83988,-0.4392 z m -18.09609,-0.51171 c -0.1181,-0.47238 -1.12368,-0.38896 -1.28898,0.10693 -0.0976,0.29269 0.0953,0.3933 0.61333,0.32 0.41561,-0.0588 0.71965,-0.25093 0.67565,-0.42693 z m 4.0614,-1.13595 c 1.0563,-0.53677 2.00214,-1.10797 2.10186,-1.26933 0.24453,-0.39566 3.29781,-1.91472 3.84853,-1.91472 0.25642,0 0.52762,-0.4994 0.65167,-1.2 0.11685,-0.66 0.41138,-1.98625 0.6545,-2.94723 0.72584,-2.869 0.60019,-3.41119 -0.75045,-3.23838 -0.21586,0.0276 -0.76176,-0.19175 -1.21311,-0.48748 -0.6725,-0.44065 -0.96909,-0.47005 -1.64321,-0.1629 -0.79663,0.36297 -0.81389,0.43255 -0.54689,2.20539 0.45507,3.02163 0.31833,5.3963 -0.35349,6.13866 -0.32451,0.35857 -0.78369,0.65194 -1.02041,0.65194 -0.58593,0 -0.54688,-0.84683 0.0496,-1.07572 0.264,-0.10131 0.48,-0.47671 0.48,-0.83424 0,-1.34021 -2.05016,-0.66148 -4.48,1.48315 -0.44,0.38835 -1.232,0.87119 -1.76,1.07297 l -0.96,0.36687 1.28,1.08872 c 0.704,0.5988 1.38369,1.09087 1.51043,1.09349 0.12673,0.003 1.09467,-0.43442 2.15097,-0.97119 z m 4.62597,-13.90405 c -0.11222,-4.40249 -0.76669,-12.62558 -1.06658,-13.40107 -0.1959,-0.50659 -0.49601,-2.37859 -0.66692,-4.16 -0.50666,-5.28114 -0.63855,-6.34761 -0.82161,-6.64381 -0.29554,-0.47819 -0.21037,-5.73201 0.13933,-8.59512 0.38563,-3.15722 1.27825,-6.12586 2.61635,-8.70135 0.52046,-1.00174 0.87107,-2.01736 0.77914,-2.25693 -0.0919,-0.23958 -0.63064,-0.70004 -1.19712,-1.02326 -0.56648,-0.32321 -1.48026,-1.01068 -2.03063,-1.52771 l -1.00066,-0.94004 -0.67735,0.95125 c -1.24055,1.7422 -1.50032,3.64064 -1.25689,9.18569 0.12344,2.81179 0.24634,5.40035 0.27312,5.75235 0.0268,0.352 0.009,3.16 -0.0393,6.24 -0.0484,3.08 0.0214,6.21238 0.15514,6.96086 0.13372,0.74847 0.30078,1.75647 0.37124,2.24 0.71601,4.91366 0.88345,7.05384 0.90746,11.59914 l 0.0279,5.28 1.12,0.2034 c 2.13436,0.38762 2.40354,0.25534 2.36737,-1.1634 z M 211.79548,97.423921 c 0.69422,-0.882547 1.81532,-3.919786 1.54621,-4.188896 -0.0899,-0.08994 -0.35854,0.243392 -0.59691,0.740729 -0.23837,0.497338 -0.57546,0.894596 -0.74908,0.882797 -0.43034,-0.02925 -1.29736,1.12608 -1.57707,2.101453 -0.60109,2.096119 -0.60617,2.000074 0.0863,1.629488 0.355,-0.189993 0.93576,-0.714499 1.29057,-1.165571 z m -1.95547,-4.192999 c 0.68339,-0.514835 1.04,-1.055744 1.04,-1.577481 0,-0.436695 0.216,-1.310954 0.48,-1.942794 0.61651,-1.475526 0.61324,-1.488547 -0.24,-0.95609 -0.396,0.24712 -1.14723,0.549018 -1.66939,0.67089 -1.77205,0.413584 -7.12132,6.557188 -6.36656,7.311946 0.20124,0.201242 5.45145,-2.523722 6.75595,-3.506471 z m 4.8751,-3.299491 c 0.004,-0.390691 -0.0812,-0.382499 -0.51297,0.04929 -0.28531,0.285312 -0.41105,0.690697 -0.28,0.902736 0.27691,0.448045 0.7847,-0.161607 0.79297,-0.952029 z m 91.68014,-18.891428 c 0.21704,0 1.45891,-0.48793 2.75969,-1.084291 1.30079,-0.596362 2.86907,-1.188419 3.48507,-1.315687 0.616,-0.127267 1.768,-0.563628 2.56,-0.969689 1.67294,-0.857725 6.2303,-2.74121 9.41411,-3.890701 1.21776,-0.439664 2.94576,-1.33049 3.84,-1.979613 0.89424,-0.64912 2.01207,-1.424557 2.48407,-1.723194 l 0.85817,-0.542976 -1.60122,-3.210723 c -1.36208,-2.731258 -1.59366,-3.461037 -1.55088,-4.886925 0.0769,-2.56266 0.0301,-2.946912 -0.43692,-3.5856 -0.41354,-0.565559 -0.51367,-0.545383 -2.26442,0.456291 -1.00746,0.576409 -1.8896,1.211162 -1.96029,1.41056 -0.28336,0.799056 -0.38301,2.942045 -0.15081,3.242547 0.13596,0.176 0.31606,1.073255 0.40016,1.993901 0.11891,1.301875 0.41241,2.00697 1.32048,3.172515 1.85785,2.384653 1.50828,2.855777 -0.50269,0.677489 -1.76954,-1.91674 -2.51536,-3.673092 -2.54746,-5.998942 -0.0202,-1.469747 -0.46358,-1.637488 -1.81289,-0.686003 -0.46717,0.329431 -1.59086,0.972483 -2.49708,1.429008 -0.90622,0.456528 -2.27422,1.243671 -3.04,1.749207 -0.76578,0.505539 -2.54433,1.376845 -3.95233,1.936237 -2.31431,0.919465 -3.376,1.483545 -7.15475,3.801325 -0.64089,0.393104 -1.49872,0.717104 -1.90629,0.72 -0.40757,0.0029 -1.01232,0.150454 -1.3439,0.327907 -0.56929,0.304675 -0.5757,0.407133 -0.11507,1.84 0.26829,0.834547 0.5443,1.805357 0.61335,2.157357 0.40291,2.053766 1.37346,5.895037 1.56968,6.212534 0.16374,0.264925 0.64985,0.137892 1.68389,-0.440044 0.79953,-0.446871 1.63128,-0.81249 1.84833,-0.81249 z m 28.96476,-14.925457 c 0.616,-0.11062 1.336,-0.367856 1.6,-0.571638 0.67318,-0.519622 2.28746,-1.219024 5.25027,-2.27472 1.72263,-0.613795 5.4056,-3.540653 5.57731,-4.432269 0.10132,-0.526112 0.0458,-0.528947 -0.88915,-0.04544 -0.54848,0.283622 -1.11577,0.442406 -1.26067,0.352851 -0.14493,-0.08955 -0.53066,0.03254 -0.85722,0.271325 -0.32656,0.238784 -0.77465,0.364726 -0.99577,0.279872 -0.22112,-0.08485 -0.82541,0.147165 -1.34282,0.515597 -0.51741,0.368432 -1.20864,0.669878 -1.53609,0.669878 -0.32743,0 -1.14032,0.292096 -1.80644,0.649104 -1.12217,0.601459 -1.81942,0.613709 -1.81942,0.03197 0,-0.24703 4.88496,-2.601072 5.39757,-2.601072 0.15622,0 0.44893,-0.198646 0.65043,-0.441437 0.30838,-0.371574 2.03203,-0.970473 2.60291,-0.9044 0.38205,0.04422 3.31392,-1.720422 3.42256,-2.05999 0.10375,-0.324135 -3.01453,0.61967 -4.87347,1.475056 -0.352,0.161971 -1.26867,0.390131 -2.03706,0.507021 -0.76838,0.116892 -1.99238,0.467683 -2.72,0.779539 -1.90486,0.816426 -3.08294,1.049344 -3.08294,0.609529 0,-0.201782 1.008,-1.554176 2.24,-3.005318 1.232,-1.451142 2.24,-2.739079 2.24,-2.862077 0,-0.123002 0.22285,-0.446496 0.49523,-0.718877 0.27239,-0.272381 0.4289,-0.5616 0.34778,-0.64271 -0.17037,-0.170355 -1.37421,0.561517 -3.34087,2.031075 -0.75782,0.566269 -1.77523,1.116861 -2.26092,1.223536 -0.4857,0.106679 -1.58464,0.773696 -2.44212,1.482266 -0.85747,0.708569 -2.03408,1.486797 -2.61468,1.729395 -0.96474,0.403082 -1.03914,0.532253 -0.86378,1.499239 0.33517,1.848035 0.70042,3.256396 1.22874,4.738153 0.2824,0.792 0.58211,1.636445 0.66601,1.876544 0.10355,0.296304 0.43399,0.372711 1.02858,0.237837 0.48182,-0.109289 1.38003,-0.289216 1.99603,-0.399837 z m 4.94115,-8.92472 c 0.61066,-0.461869 0.60995,-0.469824 -0.0408,-0.469824 -0.36409,0 -0.84125,0.216 -1.06035,0.48 -0.54074,0.651542 0.23578,0.644365 1.10115,-0.01018 z m 3.53885,-1.493782 c 0.22339,-0.236426 0.0301,-0.271056 -0.64,-0.114714 -0.528,0.123178 -1.104,0.376362 -1.28,0.56263 -0.22339,0.236426 -0.0301,0.271056 0.64,0.114714 0.528,-0.123178 1.104,-0.376362 1.28,-0.56263 z m 3.8217,-1.247536 c 0.53804,-0.317421 1.9863,-0.94833 3.2183,-1.40202 2.74384,-1.010432 3.68,-1.473568 3.68,-1.82056 0,-0.146259 -0.252,-0.253632 -0.56,-0.238608 -0.99808,0.04869 -9.4703,3.639572 -9.61088,4.073485 -0.18496,0.570947 1.94109,0.173162 3.27258,-0.612297 z m -67.65778,-1.241172 c -0.40402,-0.754918 -1.49705,-1.399152 -1.73116,-1.020349 -0.27944,0.452154 0.76423,1.653015 1.43664,1.653015 0.53151,0 0.57877,-0.101536 0.29452,-0.632666 z m 38.77296,-13.584287 1.65361,-2.856952 -0.35027,-2.044702 c -0.27814,-1.623887 -0.69736,-2.550647 -2.03695,-4.503048 -0.92769,-1.352091 -1.83154,-2.556518 -2.00854,-2.676506 -0.4372,-0.296367 -1.56021,0.971638 -2.40368,2.714007 -0.40248,0.831411 -0.97779,1.509723 -1.36675,1.611439 -0.59174,0.154743 -0.64896,0.33978 -0.4806,1.554185 0.46933,3.385334 1.13063,5.758226 1.92368,6.902598 0.46894,0.676682 0.85262,1.409743 0.85262,1.629023 0,0.21928 0.2349,0.852947 0.52201,1.408153 l 0.52201,1.009459 0.75963,-0.94535 c 0.4178,-0.519946 1.50375,-2.230982 2.41323,-3.802306 z m -3.39904,-1.43417 c -0.26977,-0.436515 0.16821,-1.353292 0.58159,-1.217337 0.57295,0.188438 0.64445,1.508459 0.0817,1.508459 -0.26585,0 -0.56434,-0.131005 -0.6633,-0.291122 z m 10.33147,-4.432875 c 2.67312,-1.368436 7.28503,-4.788344 6.93258,-5.140784 -0.20003,-0.200033 -2.40189,0.886365 -2.40189,1.185094 0,0.225572 -1.47623,0.947405 -3.93507,1.924139 -0.49226,0.195551 -1.14026,0.350968 -1.44,0.345371 -0.47309,-0.0088 -0.46058,-0.07394 0.0951,-0.493898 0.352,-0.266046 1,-0.568706 1.44,-0.672578 1.40909,-0.332645 7.77062,-4.813927 9.8999,-6.973831 2.21687,-2.248752 2.03696,-2.716874 -0.41897,-1.090126 -0.82986,0.549665 -1.59853,0.909665 -1.70819,0.8 -0.10967,-0.109665 -0.1394,-0.243774 -0.0661,-0.298021 5.18188,-3.8332013 6.08464,-4.6326336 6.47168,-5.7311217 0.10652,-0.3023635 0.0458,-0.6411347 -0.13488,-0.752825 -0.47639,-0.2944214 -4.3049,1.6587028 -6.41914,3.2747457 -1.7176,1.312838 -2.68822,1.746438 -2.45098,1.094892 0.0587,-0.161117 0.81722,-0.78082 1.6857,-1.3771185 0.86848,-0.5962983 1.63824,-1.2617412 1.71056,-1.4787623 0.18848,-0.5653751 -1.91856,0.6636426 -4.67568,2.7273068 -2.39501,1.792624 -2.93645,2.668584 -0.85392,1.381514 0.63453,-0.392152 1.24208,-0.624578 1.35018,-0.516502 0.2304,0.230427 0.33728,0.135891 -1.60621,1.420898 -1.73466,1.146916 -2.14397,1.24169 -2.14397,0.496421 0,-0.410653 -0.0944,-0.440851 -0.45152,-0.144461 -0.30864,0.256163 -0.51712,0.26856 -0.65888,0.03918 -0.43287,-0.70038 -2.972,-0.01232 -4.38944,1.189457 -0.54359,0.460895 -1.37735,0.268222 -1.06016,-0.244995 0.0937,-0.151678 0.0234,-0.366582 -0.15607,-0.477564 -0.19868,-0.122795 -0.0324,-0.601208 0.42471,-1.222112 0.96656,-1.312788 3.09136,-5.5669308 3.09136,-6.1892722 0,-1.617835 -3.008,1.6306231 -4.02381,4.3454722 -0.30117,0.804912 -0.96524,2.091908 -1.47571,2.859993 l -0.92812,1.396517 1.13382,1.646254 c 0.6236,0.905439 1.13382,1.888508 1.13382,2.184597 0,0.296089 0.14009,0.624923 0.3113,0.73074 0.3286,0.203095 0.95759,2.269486 1.14748,3.769723 0.24951,1.97164 0.70442,1.97081 4.57053,-0.0083 z m -67.9718,-10.919623 c 0.20222,-0.327197 -0.7448,-0.637059 -1.33751,-0.437632 -0.22,0.07402 -0.4,0.266585 -0.4,0.427918 0,0.376401 1.50568,0.384819 1.73751,0.0097 z M 340.09601,11.136 c 0.2112,-0.2112 0.384,-0.574519 0.384,-0.807377 0,-0.324288 -0.18723,-0.300696 -0.8,0.100804 -0.44,0.288299 -0.8,0.651618 -0.8,0.807377 0,0.410852 0.768,0.347187 1.216,-0.100804 z m -64.416,218.24256 c -0.704,-0.15091 -4.448,-0.33406 -8.32,-0.40698 -3.872,-0.0729 -7.292,-0.14137 -7.6,-0.15208 -0.308,-0.0107 -0.56,-0.14964 -0.56,-0.30872 0,-0.32102 1.60927,-0.40823 8,-0.43351 3.81764,-0.0151 19.93361,0.27225 20.56,0.36659 0.132,0.0199 0.24,0.25215 0.24,0.51615 0,0.38859 -0.5637,0.4892 -2.96,0.52832 -1.628,0.0266 -4.112,0.0745 -5.52,0.10647 -1.408,0.032 -3.136,-0.0653 -3.84,-0.21624 z M 123.42924,224.7651 c -0.0718,-0.0692 -6.50739,-0.46336 -10.14924,-0.62167 -1.144,-0.0497 -2.152,-0.11115 -2.24,-0.1365 -0.088,-0.0253 -1.312,-0.11653 -2.72,-0.20266 -1.408,-0.0861 -3.784,-0.2898 -5.28,-0.4526 -2.93935,-0.31988 -8.871597,-0.0736 -9.151914,0.37998 -0.09477,0.15334 -0.317591,0.18901 -0.495162,0.0793 -0.177571,-0.10975 -1.499619,-0.17122 -2.937888,-0.13661 -1.438269,0.0346 -2.759034,0.0589 -2.935034,0.0541 -0.176,-0.005 -1.508,-0.0266 -2.96,-0.0483 -2.595952,-0.0387 -3.488486,-0.42431 -1.76,-0.76033 0.484,-0.0941 2.752,-0.20668 5.04,-0.25018 4.436202,-0.0844 4.960001,-0.15424 4.960001,-0.66171 0,-0.21493 -2.928893,-0.25954 -8.720001,-0.13282 -15.201699,0.33267 -14.955559,0.31905 -15.280247,0.84493 -0.237212,0.3842 -1.240736,0.49899 -5.028057,0.57513 -2.602432,0.0523 -4.947696,0.0921 -5.211696,0.0884 -0.264,-0.004 -1.031735,-0.0194 -1.70608,-0.0348 -0.674343,-0.0154 -1.646343,0.0642 -2.160001,0.17706 -0.823315,0.18083 -0.933923,0.11684 -0.933948,-0.5403 -2.9e-5,-0.72926 0.05263,-0.74193 2.428077,-0.58402 1.895433,0.12601 2.484153,0.0613 2.683584,-0.29509 0.181849,-0.32495 1.257398,-0.52844 3.731923,-0.70608 4.379526,-0.3144 7.869821,-0.98037 8.05537,-1.53702 0.112512,-0.33753 -0.218554,-0.38289 -1.578276,-0.21625 -0.946358,0.11598 -3.611155,0.27303 -5.921772,0.34899 -2.310618,0.076 -4.326618,0.16101 -4.480001,0.18898 -0.751539,0.13704 -2.678284,-0.0539 -2.673977,-0.26494 0.01901,-0.93138 0.694985,-1.11046 4.674355,-1.23829 2.26641,-0.0728 5.229354,-0.27983 6.58432,-0.46005 3.24226,-0.43125 7.788135,-0.32552 9.325591,0.21689 0.676042,0.2385 1.635322,0.7754 2.131734,1.1931 0.754554,0.63492 1.232836,0.75363 2.916509,0.7239 l 2.013946,-0.0356 0.267424,-1.28 c 0.431897,-2.06722 0.126198,-2.71285 -1.245296,-2.63002 -1.15784,0.0699 -1.160055,0.0675 -1.712087,-1.86201 -0.304009,-1.06261 -0.736563,-3.43259 -0.961228,-5.2666 -0.224666,-1.83402 -0.613117,-3.82434 -0.863223,-4.42293 -0.250109,-0.59859 -0.809689,-2.90385 -1.243513,-5.12279 -0.433828,-2.21894 -1.205028,-5.40721 -1.71378,-7.08504 -0.508755,-1.67784 -1.020285,-3.55461 -1.136736,-4.17061 -0.275645,-1.45811 -1.127001,-3.83152 -1.661235,-4.63121 -0.231923,-0.34715 -0.42168,-0.8236 -0.42168,-1.05876 0,-0.51749 -1.909645,-2.95003 -2.315901,-2.95003 -0.158832,0 -0.94527,-0.45167 -1.747638,-1.00372 -0.802368,-0.55204 -2.092637,-1.19446 -2.867268,-1.42758 -0.77463,-0.23313 -1.800092,-0.62832 -2.278806,-0.8782 -0.478714,-0.24988 -1.662387,-0.79546 -2.630387,-1.21241 -0.968,-0.41695 -2.84,-1.58531 -4.16,-2.59636 -2.57762,-1.97431 -3.10433,-2.21882 -2.550506,-1.18399 0.193606,0.36175 0.290662,0.82975 0.215677,1.04 -0.07498,0.21024 0.15638,0.95826 0.514137,1.66226 1.873325,3.68634 2.449975,8.58683 1.328016,11.28575 -0.596835,1.43571 -2.925056,5.42029 -3.689472,6.31425 -0.300989,0.352 -0.959139,1.416 -1.462553,2.36445 -1.213994,2.2872 -1.524388,2.80563 -2.079559,3.47334 -0.257091,0.30922 -0.748307,1.13585 -1.09159,1.83697 -0.343283,0.70112 -1.169559,1.98089 -1.83617,2.84394 -0.666611,0.86305 -1.494234,2.18867 -1.839158,2.94583 -0.344925,0.75716 -0.768509,1.46403 -0.9413,1.57082 -0.17279,0.10679 -0.834473,1.08752 -1.470409,2.1794 -0.635936,1.09189 -1.465459,2.31927 -1.843386,2.72752 -0.377923,0.40825 -0.976621,1.54645 -1.330432,2.52934 -0.755437,2.09858 -1.386566,2.63114 -2.462464,2.07787 -1.00119,-0.51486 -2.020832,-0.30615 -2.020832,0.41364 0,0.58914 1.27008,1.01522 6.712823,2.25202 1.052054,0.23906 2.204054,0.56575 2.56,0.72597 2.841558,1.27906 3.209673,1.54724 3.3103,2.4117 0.05672,0.48724 -0.08312,1.1103 -0.310745,1.38457 -0.434727,0.52381 -0.296586,0.52785 -6.512378,-0.19009 -1.423779,-0.16445 -3.128109,-0.17719 -3.84,-0.0287 -1.614166,0.33668 -5.802203,0.17036 -6.948672,-0.27596 -0.506523,-0.19719 -0.943208,-0.21758 -1.047458,-0.0489 -0.09833,0.15911 -0.847245,0.38953 -1.664249,0.51205 -1.600166,0.23996 -3.397622,-0.4257 -3.770025,-1.39616 -0.108462,-0.28265 0.358989,-1.31457 1.105179,-2.43973 0.71123,-1.07244 1.471363,-2.22591 1.689185,-2.56327 0.217822,-0.33736 0.770185,-1.04612 1.227474,-1.57502 0.724092,-0.8375 0.787002,-1.07937 0.487275,-1.87343 -0.265341,-0.70297 -0.240736,-1.07512 0.107434,-1.62498 0.248377,-0.39226 0.663864,-1.14519 0.923306,-1.67319 0.259441,-0.528 0.720971,-1.32 1.025621,-1.76 0.304651,-0.44 1.010816,-1.664 1.569257,-2.72 0.55844,-1.056 1.800204,-3.216 2.759478,-4.8 0.95927,-1.584 1.882781,-3.204 2.052243,-3.6 0.169459,-0.396 0.440627,-0.72 0.602592,-0.72 0.161962,0 0.568166,-0.54 0.902675,-1.2 0.334509,-0.66 1.263728,-2.424 2.064931,-3.92 1.276589,-2.38364 2.71065,-5.91724 2.986954,-7.36001 0.399827,-2.08776 0.477178,-3.82364 0.202567,-4.54592 -0.178269,-0.46889 -0.350458,-1.54587 -0.38264,-2.3933 -0.03219,-0.84743 -0.174388,-2.18878 -0.316007,-2.98078 -0.141622,-0.792 -0.347232,-2.124 -0.456915,-2.96 -0.10968,-0.836 -0.298595,-1.51554 -0.419811,-1.5101 -0.545613,0.0245 -2.406781,3.02743 -3.511258,5.6653 -0.666285,1.59131 -1.371168,3.08939 -1.56641,3.32905 -0.702393,0.8622 -2.981385,5.56886 -2.982048,6.15863 -3.2e-4,0.33158 -0.167472,1.15958 -0.371331,1.84 -0.268227,0.89527 -0.545878,1.23713 -1.004768,1.23713 -0.577925,0 -0.617891,-0.15722 -0.451006,-1.77417 0.100711,-0.9758 0.466063,-2.8118 0.811894,-4.08 0.595694,-2.18449 1.228331,-4.73364 1.525243,-6.14583 0.07401,-0.352 0.332663,-1.576 0.574784,-2.72 0.26816,-1.26703 0.450682,-4.24289 0.466976,-7.61375 0.01472,-3.04357 0.08854,-5.63557 0.164042,-5.76 0.856784,-1.41197 0.64176,-21.09208 -0.273437,-25.02625 -0.225181,-0.968 -0.6508,-2.408 -0.945814,-3.2 -0.295018,-0.792 -0.684221,-1.944 -0.8649,-2.56 -0.180675,-0.616 -0.660096,-1.912 -1.065376,-2.88 -0.40528,-0.968 -0.961675,-2.48 -1.236433,-3.36 -1.089193,-3.48848 -2.817029,-8.36271 -3.2329,-9.12001 -0.241627,-0.44 -0.443151,-0.872 -0.447831,-0.96 -0.0097,-0.18204 -0.270924,-1.01383 -0.577896,-1.84 -0.11444,-0.308 -0.259113,-0.848 -0.321494,-1.2 -0.06238,-0.352 -0.329772,-1.60892 -0.594202,-2.79317 -0.264429,-1.18425 -0.452542,-2.26425 -0.418028,-2.4 0.03451,-0.13575 -0.133611,-1.32683 -0.373612,-2.64683 -0.24,-1.32 -0.447215,-3.932092 -0.460476,-5.804652 -0.02392,-3.37744 -0.01369,-3.424765 1.279772,-5.92 1.077673,-2.078954 1.258983,-2.681895 1.04507,-3.475344 -0.142349,-0.528 -0.179168,-1.212711 -0.08182,-1.521578 0.23117,-0.733466 -0.654441,-1.074528 -1.568722,-0.604131 -0.384127,0.197632 -1.418412,0.421443 -2.298412,0.49736 -1.837224,0.158499 -2.657187,0.414649 -3.419836,1.068336 -0.76989,0.659894 -1.267384,0.245872 -0.891749,-0.742122 0.272766,-0.717427 0.11746,-0.977261 -1.513242,-2.531721 l -1.817203,-1.732244 -0.08508,-2.614701 c -0.05193,-1.595696 0.10388,-3.317078 0.39979,-4.41695 0.266681,-0.991239 0.544221,-2.075344 0.616754,-2.409127 0.07253,-0.333782 0.290322,-1.086966 0.483976,-1.673744 0.670264,-2.030918 -0.118223,-2.199533 -2.987109,-0.638777 -2.038493,1.108998 -3.8254187,2.039526 -4.7494238,2.473225 -0.9639908,0.452471 -2.8368731,-0.3144 -2.8368731,-1.161584 0,-0.225165 0.8400833,-1.683533 1.8668516,-3.240816 1.0267684,-1.557286 2.3262958,-3.551427 2.8878383,-4.431427 1.505035,-2.358557 5.930917,-6.711623 7.831765,-7.702913 2.915815,-1.520595 3.23269,-1.884387 3.129645,-3.593017 -0.04989,-0.827239 -0.352137,-2.250436 -0.67166,-3.162663 -0.476808,-1.361267 -1.015593,-3.620026 -1.105531,-4.634743 -0.0104,-0.117331 -0.126908,-0.321331 -0.258908,-0.453331 -0.441874,-0.441875 -0.254302,-4.241629 0.262927,-5.326272 0.876488,-1.838013 4.106603,-3.593696 9.014006,-4.899431 1.67953,-0.44688 3.2853,-0.781052 3.568379,-0.742604 0.283078,0.03844 1.072275,-0.171959 1.753766,-0.467562 0.681495,-0.295606 1.428996,-0.537466 1.661117,-0.537466 0.232119,0 0.500403,-0.126806 0.596192,-0.281791 0.337168,-0.545554 1.690151,-0.567784 2.343776,-0.03851 0.922733,0.747185 2.8968,4.789169 3.320112,6.798071 0.194964,0.925226 0.475344,1.833376 0.623066,2.018106 0.240582,0.300854 0.368973,0.93273 0.744515,3.664125 0.07849,0.57089 0.282135,0.775216 0.711069,0.713459 0.330592,-0.0476 2.074093,-0.16087 3.874451,-0.251718 2.506676,-0.12649 3.443565,-0.05836 4,0.290877 0.399642,0.250828 1.230624,0.61664 1.846624,0.812908 0.682263,0.217386 1.422826,0.801866 1.894813,1.49546 1.113559,1.636396 0.703517,2.604797 -1.575293,3.72039 -0.967734,0.473754 -1.921216,0.869754 -2.118841,0.88 -0.795088,0.04121 -3.323389,1.355351 -3.149357,1.636944 0.102547,0.165923 0.66168,0.30168 1.242518,0.30168 1.627959,0 4.618954,1.758711 6.71362,3.94762 2.235222,2.335789 3.995072,5.801306 4.262672,8.394106 l 0.180592,1.749756 -2.400435,2.331354 c -1.32024,1.282243 -2.559728,2.628992 -2.75442,2.992772 -0.343174,0.641232 -0.873097,3.082374 -1.238304,5.704393 -0.09806,0.704 -0.520121,1.68705 -0.937926,2.184554 -0.428339,0.510051 -0.759639,1.321699 -0.759639,1.861037 0,1.249318 -0.490345,2.137197 -1.830441,3.31441 -0.601053,0.528 -1.479091,1.677817 -1.951194,2.555152 -0.912077,1.694969 -0.633923,1.55448 -4.538365,2.292198 -0.616,0.116387 -1.211043,0.350413 -1.32232,0.520052 -0.111277,0.169641 -0.01469,1.115593 0.214634,2.102118 0.229325,0.986525 0.355283,1.893469 0.279904,2.01543 -0.07538,0.121965 0.535065,0.629745 1.356537,1.128401 2.414308,1.465555 3.631245,2.777468 3.631245,3.914645 0,1.40356 -0.580499,1.24657 -2.156179,-0.583106 -0.861926,-1.000867 -2.028154,-1.891421 -3.2,-2.443578 -1.014102,-0.47783 -2.260349,-1.217078 -2.76944,-1.642771 -1.023802,-0.856093 -3.788419,-2.32792 -4.703789,-2.504205 -0.322717,-0.06215 -1.060122,-0.321219 -1.638675,-0.575712 -3.195492,-1.405622 -6.436945,-2.488647 -7.182652,-2.39984 -0.714446,0.08508 -0.965967,0.407283 -1.577818,2.021216 -0.400336,1.056 -0.673544,2.28 -0.60713,2.72 0.06642,0.44 0.202382,1.736 0.302149,2.88 0.09977,1.144 0.383454,2.799996 0.630415,3.679996 0.246961,0.88 0.618372,2.464 0.825358,3.52 0.386917,1.97398 1.812167,6.47044 2.231475,7.04 0.129571,0.176 0.45956,0.968 0.73331,1.76 0.27375,0.792 1.020071,2.88 1.658491,4.64001 2.162344,5.96116 4.002056,11.66872 5.028962,15.60195 0.999427,3.82799 1.02343,4.08353 1.04423,11.11805 0.01914,6.46819 -0.06465,8.96392 -0.62303,18.56 -0.08705,1.496 -0.225783,3.944 -0.308298,5.44 -0.08251,1.496 -0.244768,3.26 -0.360569,3.92 -0.132618,0.75584 -0.0867,1.2 0.124067,1.2 0.313584,0 2.629123,-2.91242 2.629123,-3.30683 0,-0.0996 0.414848,-0.80031 0.921885,-1.55713 0.507037,-0.75682 1.463306,-2.45604 2.12504,-3.77604 0.661734,-1.32 1.464358,-2.91954 1.78361,-3.55452 0.319251,-0.63499 0.645596,-1.49899 0.725216,-1.92 0.07962,-0.42102 0.441824,-1.45134 0.804899,-2.2896 0.363075,-0.83827 0.64775,-1.55827 0.632614,-1.6 -0.01514,-0.0417 0.135491,-0.65188 0.334736,-1.35588 0.455629,-1.60991 1.930813,-7.84792 2.308077,-9.76 0.156263,-0.792 0.490883,-3.6 0.7436,-6.24 0.252717,-2.64 0.547392,-5.16 0.654832,-5.6 0.24776,-1.01464 0.261312,-11.42608 0.01539,-11.82399 -0.100934,-0.16332 -0.243654,-1.20667 -0.317155,-2.31855 -0.216611,-3.2769 -0.499984,-5.16876 -0.891971,-5.95502 -0.311229,-0.62427 -0.542275,-0.71012 -1.50424,-0.55895 -0.625092,0.0982 -2.000532,0.26053 -3.056532,0.36068 -1.056,0.10014 -2.537033,0.38767 -3.291184,0.63895 -1.719536,0.57295 -2.308816,0.57704 -2.308816,0.0161 0,-0.75042 0.740701,-1.11187 3.02698,-1.4771 1.211232,-0.1935 2.329795,-0.43065 2.485702,-0.527 0.312522,-0.19315 2.669523,-0.59263 6.27576,-1.06365 2.598954,-0.33945 4.837882,-1.09675 8.135872,-2.7519 1.204989,-0.60474 2.36297,-1.11085 2.57329,-1.12468 0.210317,-0.0138 1.030397,-0.43511 1.822397,-0.93616 0.792,-0.50106 1.975411,-1.20504 2.629805,-1.5644 0.654393,-0.35937 1.806393,-1.04376 2.56,-1.52087 0.753606,-0.47711 2.7164,-1.56853 4.361766,-2.42537 1.645364,-0.856843 4.112256,-2.343179 5.481985,-3.302975 1.369728,-0.959792 2.633888,-1.745078 2.809248,-1.745078 0.175356,0 0.498096,-0.216 0.717196,-0.48 0.538407,-0.648743 1.35264,-0.612733 1.223463,0.05411 -0.09723,0.501952 -0.675703,0.932992 -2.983463,2.223094 -0.528,0.295168 -1.574428,1.07584 -2.325395,1.734826 -0.750966,0.658985 -2.169875,1.579063 -3.15313,2.044603 -0.983254,0.46555 -2.312825,1.25562 -2.954604,1.75572 -0.64178,0.50009 -2.102871,1.38958 -3.246871,1.97664 -1.144,0.58706 -2.521651,1.39369 -3.061443,1.79251 -0.539795,0.39882 -2.267795,1.32347 -3.84,2.05477 -1.572208,0.7313 -2.917674,1.38142 -2.98993,1.44472 -0.07225,0.0633 0.127958,0.40164 0.444912,0.75187 0.411741,0.45497 0.814726,0.58276 1.411373,0.44757 0.992745,-0.22493 10.018096,-3.22633 11.395088,-3.78945 0.528,-0.21593 1.536,-0.56825 2.24,-0.78294 0.704,-0.21469 1.568,-0.5116 1.92,-0.6598 0.352,-0.1482 1.616778,-0.64399 2.810615,-1.10175 1.19384,-0.45776 3.49784,-1.45706 5.12,-2.22067 1.622163,-0.7636 3.597386,-1.65241 4.389386,-1.97514 0.792,-0.32272 1.898393,-0.92065 2.458649,-1.328727 1.730861,-1.26071 2.631268,-0.795136 1.522813,0.787407 -0.274198,0.39147 -0.413584,0.84922 -0.309754,1.01722 0.268007,0.43364 1.086823,0.076 2.593671,-1.132745 1.128218,-0.905053 2.111792,-1.513965 4.294621,-2.658727 0.264,-0.138451 0.912,-0.484128 1.44,-0.768169 5.09064,-2.738554 6.56,-3.140301 6.56,-1.793626 0,0.753565 -2.03767,3.045616 -3.27765,3.686835 -1.53566,0.794125 -1.67349,0.330861 -0.27693,-0.930844 0.72302,-0.6532 1.31458,-1.275626 1.31458,-1.383165 0,-0.374711 -1.77019,0.24863 -3.20338,1.128016 -0.79386,0.487097 -1.960553,1.05632 -2.592662,1.264934 -0.632105,0.208611 -1.638585,0.821194 -2.236621,1.361293 -0.931977,0.841678 -2.00239,1.475298 -2.927337,1.732798 -0.132,0.0367 -0.312,0.10282 -0.4,0.14682 -0.088,0.044 -0.309251,0.098 -0.491671,0.12 -0.643616,0.0776 -0.938582,1.02216 -0.94343,3.02103 -0.0049,2.02266 0.422797,3.42795 0.945066,3.10517 0.556812,-0.34413 5.682316,-1.10623 6.435504,-0.95687 1.305747,0.25891 5.803461,-0.52601 7.494531,-1.30793 0.88,-0.40689 1.99009,-0.83529 2.46687,-0.952 0.47678,-0.11671 1.03948,-0.42017 1.25044,-0.67436 0.77227,-0.93053 -0.12657,-1.11872 -4.07052,-0.85225 -5.887945,0.39782 -8.728665,0.008 -8.761891,-1.20119 -0.0051,-0.18694 2.783143,-2.221602 3.044451,-2.221602 0.38441,0 0.0865,0.750812 -0.487507,1.228702 -0.439658,0.36604 -0.548442,0.67151 -0.349728,0.98208 0.244074,0.38147 0.920425,0.39341 4.398155,0.0777 6.94605,-0.63058 7.53243,-0.52224 7.94441,1.4678 0.19683,0.95078 0.11434,1.09539 -0.99987,1.75279 -0.66792,0.39408 -1.51512,0.67711 -1.88266,0.62894 -0.36754,-0.0482 -1.02013,0.18672 -1.45021,0.52197 -1.26015,0.9823 -2.96055,1.81179 -3.82194,1.86443 -0.44,0.0269 -3.06378,0.12479 -5.830618,0.21756 -2.766838,0.0928 -5.184697,0.2639 -5.373017,0.38028 -0.18832,0.11639 -0.260858,0.46853 -0.1612,0.78252 0.218752,0.68923 -0.950647,1.54605 -2.476535,1.81455 -1.554586,0.27354 -7.166183,2.01994 -8.165229,2.54112 -0.480371,0.25059 -1.192966,0.45651 -1.583549,0.4576 -0.390579,9.6e-4 -1.284729,0.30146 -1.987005,0.6675 -0.702272,0.36605 -2.002704,0.87005 -2.889853,1.12 -0.887148,0.24996 -2.368995,0.6798 -3.292995,0.9552 -1.827456,0.54469 -1.792013,0.53745 -4.489082,0.91585 -1.214889,0.17045 -1.948659,0.44549 -2.13942,0.80193 -0.311623,0.58228 0.944646,4.59216 2.301356,7.3457 0.645066,1.3092 0.726154,1.94537 0.718352,5.63579 -0.0076,3.60262 -0.112659,4.43869 -0.783984,6.24 -1.12736,3.02495 -2.478521,5.42152 -3.882041,6.88562 -0.677837,0.70708 -1.6313,1.87493 -2.118804,2.59522 -0.487507,0.72028 -1.498377,2.21608 -2.246377,3.32399 -0.748,1.10792 -1.36,2.28293 -1.36,2.61114 0,1.0387 1.49975,4.33681 2.587699,5.69062 1.351178,1.68136 3.85048,3.55951 6.417037,4.82221 1.119395,0.55072 2.395264,1.19465 2.835264,1.43096 0.44,0.23631 1.423747,0.61196 2.186106,0.83478 2.974358,0.86934 8.477546,5.2733 9.812102,7.85219 0.351015,0.6783 1.0949,2.05367 1.653072,3.05637 0.558176,1.00271 1.119703,2.15471 1.247837,2.56 0.128135,0.4053 0.57225,1.18249 0.986928,1.72711 0.414676,0.54461 0.753956,1.27181 0.753956,1.616 0,0.34418 0.147744,0.77353 0.328316,0.95411 0.404516,0.40451 1.605015,3.62497 3.086439,8.27968 0.616157,1.936 1.297337,3.808 1.513728,4.16 0.386784,0.62917 1.549901,4.19611 1.982586,6.08 0.121267,0.528 0.559888,1.63921 0.97471,2.46936 0.414822,0.83015 0.754221,1.7631 0.754221,2.07321 0,0.31012 0.382822,1.56569 0.85072,2.79016 l 0.85072,2.22631 -1.053623,0.8796 c -0.579494,0.48378 -1.610316,0.97366 -2.29072,1.08861 -1.835427,0.31009 -1.672537,1.29851 0.257712,1.56379 1.241767,0.17066 3.045255,0.83381 3.628007,1.33402 0.487325,0.4183 1.595325,0.72933 3.357184,0.94239 0.528,0.0639 1.392,0.20619 1.92,0.31632 0.528,0.11012 1.27686,0.19253 1.66414,0.18312 0.38727,-0.009 0.79177,0.1247 0.89888,0.29801 0.10711,0.17331 0.4814,0.3151 0.83175,0.3151 0.92711,0 2.58705,0.93452 2.44056,1.37399 -0.069,0.20704 -0.58681,0.50875 -1.15066,0.67046 -1.16681,0.33463 -1.17628,1.03844 -0.0123,0.9125 1.53514,-0.16608 10.92854,-0.0647 11.22933,0.1212 0.53864,0.33289 2.70719,0.49167 5.69828,0.41723 2.9314,-0.073 2.93366,-0.0722 2.82126,0.90462 -0.0913,0.79372 -0.25135,0.89725 -1.63202,1.05591 -0.84192,0.0967 -1.56192,0.14588 -1.6,0.10919 z m -27.749237,-2.68509 c 0,-0.40461 -0.653911,-0.40461 -1.28,0 -0.374039,0.24172 -0.285741,0.31128 0.4,0.3151 0.484,0.003 0.88,-0.1391 0.88,-0.3151 z m -62.629154,-5.868 c 0.192688,-0.58097 0.187946,-1.02121 -0.01318,-1.22232 -0.477792,-0.47779 -2.360157,0.004 -3.43768,0.8791 -0.804809,0.65394 -0.882404,0.83157 -0.48,1.09881 0.264,0.17533 1.188681,0.28135 2.054847,0.23559 1.414142,-0.0747 1.605578,-0.17584 1.876001,-0.99118 z m 3.896886,-2.14043 c 0.22945,-0.43536 0.614077,-1.22357 0.854724,-1.75157 0.240649,-0.528 0.761542,-1.29054 1.157542,-1.69454 0.396,-0.40401 0.72,-0.86172 0.72,-1.01715 0,-0.15543 0.196086,-0.47869 0.43575,-0.71835 0.239661,-0.23966 1.19842,-1.65395 2.13057,-3.14285 0.932151,-1.48891 2.225469,-3.35511 2.874042,-4.14711 1.128889,-1.37854 3.199638,-4.6096 3.199638,-4.9925 0,-0.10058 0.411866,-0.78242 0.915258,-1.51519 1.30384,-1.89796 3.040547,-4.66431 3.749402,-5.97231 0.33383,-0.616 0.846345,-1.408 1.138918,-1.76 0.717322,-0.86302 1.596003,-3.56689 1.609658,-4.95324 0.01181,-1.20009 -1.51296,-6.97186 -1.99546,-7.55343 -0.158185,-0.19066 -0.663702,-1.63066 -1.123372,-3.2 -0.774864,-2.64543 -0.823226,-3.17154 -0.663728,-7.22048 l 0.172028,-4.36714 1.828996,-3.47286 c 2.336256,-4.43603 3.094249,-5.59329 7.344784,-11.2135 1.241066,-1.64098 2.446774,-3.52264 2.679354,-4.18148 0.232579,-0.65883 0.602182,-1.41387 0.82134,-1.67787 0.484445,-0.58357 1.442823,-5.2781 1.442823,-7.06754 0,-0.712 -0.145875,-1.56711 -0.324167,-1.90025 -0.315196,-0.58895 -0.35726,-0.58662 -1.52,0.0842 -0.657708,0.37943 -1.641427,1.02147 -2.186038,1.42675 -0.544615,0.40528 -1.220115,0.73687 -1.501114,0.73687 -0.281001,0 -0.589747,0.12755 -0.686102,0.28346 -0.188013,0.30422 -2.932275,1.04169 -6.196279,1.66516 -1.473779,0.28151 -2.110323,0.56519 -2.374073,1.05801 -0.198205,0.37035 -0.324263,0.67337 -0.280125,0.67337 0.04414,0 0.0047,0.36 -0.08757,0.8 -0.0923,0.44 -0.244592,1.9241 -0.338425,3.29802 -0.09383,1.37391 -0.254829,2.6343 -0.357773,2.80086 -0.102944,0.16657 -0.316627,0.98646 -0.474851,1.82198 -0.401975,2.12266 -1.136048,5.43998 -1.539959,6.95914 -0.955677,3.59441 -1.721606,6.08533 -2.103232,6.84002 -0.233613,0.46199 -0.517456,1.35296 -0.630758,1.97994 -0.113303,0.62698 -0.704861,1.92298 -1.314576,2.88 -1.085034,1.70309 -1.108746,1.81263 -1.116762,5.15912 -0.0045,1.88049 0.196874,4.40049 0.447514,5.6 1.474345,7.05595 0.767033,11.22661 -3.24616,19.14092 -0.803216,1.584 -1.563546,2.952 -1.68962,3.04 -0.126073,0.088 -0.861635,1.35696 -1.634576,2.81992 -0.772944,1.46296 -1.931593,3.62296 -2.57478,4.8 -0.643188,1.17705 -1.39489,2.61538 -1.670452,3.1963 -0.312467,0.65873 -0.69575,1.02001 -1.018461,0.96 -0.566409,-0.10533 -2.857222,3.71318 -2.537743,4.23011 0.09775,0.15817 1.090155,0.20236 2.205346,0.0982 1.991924,-0.18601 2.049479,-0.16904 3.269182,0.96379 0.682857,0.63422 1.360934,1.11751 1.506835,1.07397 0.145904,-0.0436 0.453008,-0.43538 0.682457,-0.87075 z m 48.514111,-0.44059 c 0.980016,-0.23442 2.132016,-0.61362 2.56,-0.84267 0.427987,-0.22905 0.850156,-0.38905 0.938156,-0.35555 0.450884,0.17166 3.897889,-0.40453 4.335825,-0.72476 0.453622,-0.3317 0.415747,-0.55184 -0.361044,-2.09839 -0.477308,-0.9503 -0.896633,-1.95322 -0.93183,-2.22872 -0.150662,-1.17918 -0.586439,-2.60708 -0.844282,-2.76644 -0.153267,-0.0947 -0.278669,-0.39787 -0.278669,-0.67366 0,-0.27579 -0.482144,-1.74329 -1.07143,-3.26112 -0.589286,-1.51782 -1.460166,-3.98367 -1.935283,-5.47967 -1.120701,-3.52873 -2.068573,-5.91094 -3.883479,-9.76 -0.414934,-0.88 -1.127129,-2.392 -1.582656,-3.36 -3.957917,-8.41065 -6.617597,-11.46451 -11.847152,-13.60295 -1.232,-0.50379 -2.384,-1.01232 -2.56,-1.13008 -0.176,-0.11776 -0.787411,-0.37131 -1.358691,-0.56344 -1.565744,-0.52658 -5.036397,-3.12309 -6.734109,-5.03801 -0.82896,-0.93502 -1.953866,-2.53827 -2.499789,-3.56278 -0.545927,-1.02451 -1.193927,-1.8943 -1.44,-1.93287 -0.265539,-0.0416 -0.821264,0.72082 -1.367108,1.87565 -0.843616,1.78482 -0.921904,2.2578 -0.946374,5.71737 -0.02688,3.80002 0.230029,4.79711 1.236006,4.79711 0.226365,0 1.684733,1.05365 3.24082,2.34145 2.82216,2.33559 3.985238,2.94125 10.029245,5.22266 4.016016,1.51592 6.424982,4.29961 7.992608,9.23589 0.391251,1.232 0.765261,2.51568 0.831136,2.85262 0.06588,0.33694 0.343191,1.28526 0.616256,2.10738 0.273066,0.82212 0.554503,1.77044 0.625418,2.10738 0.07091,0.33694 0.585625,2.34062 1.143801,4.45262 0.558173,2.112 1.130519,4.56 1.271879,5.44 0.14136,0.88 0.414173,2.00335 0.606249,2.49633 0.192077,0.49298 0.419924,1.45896 0.50632,2.14661 0.0864,0.68765 0.299652,1.8683 0.473888,2.62367 0.17424,0.75536 0.32032,1.96139 0.324621,2.68005 0.01158,1.9335 0.0763,1.96207 2.909668,1.28432 z M 71.520002,176.12717 c -1.10824,-0.93488 -5.206698,-2.93169 -8,-3.89769 -2.670852,-0.92365 -4.028074,-1.5478 -4.95522,-2.27875 -1.251404,-0.98661 -0.530755,-1.12878 0.957965,-0.18899 0.738765,0.46636 2.660371,1.27382 4.270234,1.79436 4.840758,1.56521 9.167021,3.97061 9.167021,5.09686 0,0.49171 -0.412253,0.34118 -1.44,-0.52579 z m -15.838816,-8.6059 c -1.126513,-1.19912 -0.458973,-1.40674 0.722918,-0.22485 0.701264,0.70126 0.866749,1.02359 0.525523,1.02359 -0.273936,0 -0.835734,-0.35944 -1.248441,-0.79874 z m -0.382887,-34.11471 c 1.370643,-0.3226 2.670023,-0.9117 6.773447,-3.07091 1.671315,-0.87944 3.208256,-2.2668 3.208256,-2.89602 0,-0.24235 -0.339165,-1.18741 -0.753703,-2.10013 -0.414537,-0.91272 -0.934297,-2.21341 -1.155027,-2.89043 -0.220726,-0.67701 -0.600672,-1.61301 -0.844326,-2.08 -0.243652,-0.46698 -0.443888,-1.00212 -0.444973,-1.1892 -9.6e-4,-0.18707 -0.449242,-0.76307 -0.995907,-1.28 -0.546666,-0.51692 -1.637348,-2.0408 -2.423735,-3.38638 -0.78639,-1.34559 -1.771405,-2.76744 -2.188928,-3.15968 l -0.759126,-0.71317 -2.657136,0.71403 c -1.461428,0.39272 -2.756477,0.77372 -2.877892,0.84667 -0.121411,0.073 -0.02694,0.5975 0.209962,1.16565 0.560874,1.3452 1.34239,5.99804 1.6516,9.83302 0.134813,1.672 0.22633,3.11935 0.20337,3.21634 -0.02294,0.097 -0.143786,1.78899 -0.268506,3.76 l -0.226762,3.58366 h 1.02384 c 0.563114,0 1.69961,-0.15905 2.525546,-0.35345 z m 6.141703,-6.36655 c 0,-0.352 0.144,-0.64 0.32,-0.64 0.176,0 0.32,0.288 0.32,0.64 0,0.352 -0.144,0.64 -0.32,0.64 -0.176,0 -0.32,-0.288 -0.32,-0.64 z m -0.792381,-2.7581 c -0.284954,-0.28495 -0.45009,-0.5861 -0.366973,-0.66922 0.299942,-0.29994 1.479354,0.28115 1.479354,0.72888 0,0.60637 -0.471645,0.58108 -1.112381,-0.0597 z m -0.943872,-3.53542 c -0.272474,-0.71005 0.329235,-1.3215 0.818742,-0.832 0.391767,0.39177 0.164851,1.36552 -0.318211,1.36552 -0.162691,0 -0.387933,-0.24008 -0.500531,-0.53352 z m -3.815536,-4.09624 c -0.09914,-0.25836 -0.05554,-0.54683 0.09689,-0.64104 0.435383,-0.26908 1.294903,0.17235 1.294903,0.66503 0,0.59365 -1.162468,0.57361 -1.391789,-0.024 z m 13.255642,-0.19181 c 2.985712,-0.73934 6.267718,-1.78139 7.597974,-2.41236 1.288007,-0.61095 2.800007,-1.19751 3.36,-1.30347 0.559997,-0.10596 1.162173,-0.29613 1.338173,-0.42261 0.176,-0.12647 0.799498,-0.3209 1.385549,-0.43208 0.586048,-0.11117 1.522048,-0.40255 2.08,-0.64751 1.741853,-0.76472 2.899907,-1.13114 3.879357,-1.22747 l 0.944906,-0.0929 0.02861,-4.4 c 0.0327,-5.03177 0.05233,-5.00448 -2.589133,-3.6 -0.827527,0.44 -1.646448,0.8 -1.819824,0.8 -0.173376,0 -1.445693,0.576 -2.82737,1.28 -1.38168,0.704 -2.667296,1.28 -2.856928,1.28 -0.189632,0 -1.11256,0.36322 -2.05095,0.80715 -1.539498,0.7283 -4.43786,1.72259 -5.057556,1.73501 -0.133843,0.003 -0.698499,0.24024 -1.25479,0.52791 -0.556291,0.28767 -1.454781,0.5905 -1.996647,0.67295 -0.541865,0.0824 -1.122009,0.282 -1.289209,0.44345 -0.1672,0.16144 -0.544896,0.29353 -0.839322,0.29353 -0.294429,0 -1.167958,0.27985 -1.941178,0.62188 -1.349603,0.597 -3.912,1.30574 -5.217225,1.44307 -0.99106,0.10426 -0.921015,0.62765 0.285142,2.1306 0.930486,1.15944 3.393847,3.80446 3.543181,3.80446 0.02262,0 2.406374,-0.58571 5.297254,-1.30157 z M 41.405473,93.704135 c -0.112733,-0.182403 -0.248467,-0.96103 -0.301632,-1.730278 -0.119936,-1.735364 -0.257097,-1.959056 -1.525722,-2.488234 -2.235872,-0.932643 -4.290755,-1.244086 -5.523683,-0.837184 -0.694992,0.22937 -1.252528,0.266758 -1.372458,0.09204 -0.111088,-0.16184 -0.705977,-0.602838 -1.321977,-0.979993 -0.616,-0.377152 -1.390136,-1.050842 -1.720301,-1.497085 -0.733202,-0.990976 -1.159699,-0.795952 -1.159699,0.530294 0,0.547754 -0.235602,1.256253 -0.523558,1.574442 -0.429468,0.474557 -0.443845,0.607242 -0.08,0.738314 0.243956,0.08788 1.955558,0.680726 3.803558,1.317424 1.848,0.636697 4.224,1.552982 5.28,2.036185 3.566835,1.632109 4.159325,1.863357 4.405219,1.719341 0.134871,-0.07899 0.152986,-0.292857 0.04025,-0.475264 z m 4.482048,-4.411782 c 0.500951,-0.190461 1.125981,-0.93282 1.640851,-1.948868 0.457418,-0.902668 1.423002,-2.282739 2.145745,-3.066825 1.134131,-1.230384 1.251894,-1.487588 0.85998,-1.87824 -0.366454,-0.365277 -0.948188,-0.397306 -3.014096,-0.165959 -1.408,0.157671 -2.87167,0.381443 -3.252601,0.497267 -0.798436,0.242768 -1.520372,-0.716796 -1.077911,-1.432713 0.369603,-0.598032 2.857719,-1.044746 6.231261,-1.118752 1.573415,-0.03452 2.904506,-0.196746 2.957984,-0.360509 0.333258,-1.020512 1.133027,-5.652794 1.183283,-6.853591 0.05674,-1.355773 0.157616,-1.502947 1.809037,-2.639235 2.151124,-1.480125 3.829312,-3.329466 3.82785,-4.21824 -0.0016,-1.029565 -1.749498,-5.078372 -2.845206,-6.590951 -0.787223,-1.08673 -1.023636,-1.250061 -1.188295,-0.820963 -0.165235,0.430598 -0.652758,0.102643 -2.485478,-1.671975 -1.253959,-1.214201 -2.711924,-2.425024 -3.239924,-2.690713 -1.552339,-0.78114 -3.449337,-0.953901 -4.257635,-0.387748 -0.386301,0.270576 -0.702365,0.409364 -0.702365,0.30842 0,-0.100944 -0.684,0.16024 -1.52,0.580412 -0.836,0.42017 -1.88,0.871629 -2.32,1.003239 -0.44,0.131613 -1.016,0.422905 -1.28,0.647321 -0.692176,0.588394 -5.380566,3.081546 -9.431627,5.015476 -2.615866,1.248784 -5.095387,2.7212 -5.329065,3.16456 -0.132256,0.250931 -0.861205,1.752237 -1.619887,3.336237 -0.758682,1.584 -1.485255,2.959158 -1.614607,3.05591 -0.419236,0.313572 -1.500215,3.82409 -1.177536,3.82409 0.172044,0 0.403721,-0.252 0.514837,-0.56 0.111116,-0.308 0.493223,-0.979622 0.849127,-1.492496 0.355904,-0.512874 1.106817,-1.891766 1.668695,-3.064208 1.201725,-2.507581 2.609735,-4.803296 2.945961,-4.803296 0.506645,0 1.050472,1.83527 0.769774,2.597779 -0.496862,1.349712 -0.431561,3.482221 0.106631,3.482221 0.262733,0 0.477697,-0.150314 0.477697,-0.334029 0,-0.183715 0.244464,-0.291715 0.543254,-0.24 0.414799,0.07179 0.686197,-0.37888 1.147779,-1.905971 0.473574,-1.566762 0.740285,-2 1.231247,-2 0.5502,0 0.599713,0.146515 0.40553,1.2 -0.121655,0.66 -0.405719,1.728454 -0.631252,2.374339 -0.569339,1.63048 -0.284524,2.54737 0.748327,2.409053 0.900316,-0.120569 1.722516,-1.426739 2.306011,-3.663392 0.213114,-0.816912 0.541344,-1.36 0.821949,-1.36 0.761449,0 0.546368,1.386074 -0.528752,3.407504 -0.547748,1.029872 -1.20338,2.808496 -1.456957,3.952496 -0.253577,1.144 -0.511764,2.296 -0.573747,2.56 -0.06198,0.264 -0.162353,0.695232 -0.223043,0.958295 -0.06069,0.263065 -0.715683,1.403597 -1.45554,2.534515 -1.376878,2.104647 -1.539398,3.431008 -0.21723,1.772851 0.953042,-1.195229 1.255779,-0.860003 0.612886,0.678656 -0.498487,1.193047 -0.491861,1.232237 0.393273,2.325847 0.978846,1.209398 1.030432,1.228048 4.556265,1.647315 2.557389,0.304106 5.091632,0.999799 6.4,1.756909 0.923728,0.534531 3.110893,0.625315 4.28752,0.177962 z m 0.352736,-26.251858 c -0.397638,-0.768947 -0.436413,-1.228233 -0.181597,-2.1511 0.178199,-0.645373 0.256612,-1.240788 0.174256,-1.323143 -0.08235,-0.08235 -0.727168,0.04083 -1.432915,0.273751 -1.340083,0.442268 -1.984777,0.256777 -1.341907,-0.386093 0.526922,-0.526922 1.25921,-0.673655 3.086314,-0.618429 l 1.584406,0.04789 -1.104406,-1.149686 c -1.0421,-1.084826 -1.199188,-1.142109 -2.784407,-1.01536 -1.179011,0.09427 -1.68,0.01834 -1.68,-0.254676 0,-0.877001 3.040458,-1.047097 4.575891,-0.255996 1.142093,0.588441 1.801089,1.376224 2.359764,2.820928 0.632496,1.635593 0.498381,2.389945 -0.588845,3.31208 -2.091927,1.774278 -2.108666,1.778672 -2.666554,0.699833 z M 27.9405,86.483921 c 0.09586,-0.486154 0.220461,-1.127485 0.276894,-1.425178 0.164405,-0.867251 -0.373409,-0.811773 -0.923785,0.0953 -0.3263,0.537769 -0.429475,1.139184 -0.290454,1.693088 0.258007,1.027981 0.696539,0.858058 0.937345,-0.363206 z m -5.220499,-2.518154 c 0,-0.538426 -0.161942,-0.552871 -1.02427,-0.09137 -0.499571,0.26736 -0.560471,0.417264 -0.247981,0.610394 0.546502,0.337757 1.272251,0.04168 1.272251,-0.519027 z m -4.009194,-1.415923 c -0.331139,-0.365904 -0.984692,-1.413306 -1.452339,-2.327562 -0.917579,-1.793872 -1.681679,-2.149059 -1.832989,-0.852055 -0.180913,1.550749 2.725365,4.875284 3.59096,4.107754 0.175759,-0.155846 0.05134,-0.533693 -0.305632,-0.928137 z m 2.729194,0.158902 c 0,-0.257808 -0.1152,-0.468742 -0.256,-0.468742 -0.402956,0 -1.024,0.724912 -1.024,1.195257 0,0.328099 0.148535,0.347767 0.64,0.08474 0.352,-0.188384 0.64,-0.55345 0.64,-0.811258 z m 3.14,-0.768742 c 0.08,-0.240001 -0.04,-0.360001 -0.28,-0.280001 -0.231,0.077 -0.483,0.328999 -0.56,0.560001 -0.08,0.24 0.04,0.36 0.28,0.28 0.231,-0.077 0.483,-0.329002 0.56,-0.56 z m -4.1,-0.633828 c 0,-0.161606 0.08028,-0.50304 0.178403,-0.758739 0.09812,-0.255702 -0.05616,-0.699478 -0.342857,-0.986173 -0.618522,-0.618521 -1.145679,-0.684272 -0.972231,-0.121261 0.06778,0.22 0.210001,0.796 0.316054,1.28 0.177026,0.807904 0.820631,1.267626 0.820631,0.586173 z m 3.458116,-1.610909 c 0.451498,-0.610684 0.687514,-1.374444 0.66748,-2.16 -0.01705,-0.668393 0.193334,-1.827264 0.467511,-2.575264 0.274177,-0.748 0.431644,-1.36 0.349927,-1.36 -0.297866,0 -2.063034,1.714227 -2.063034,2.003498 0,0.163737 -0.269108,0.679936 -0.598018,1.147104 -0.913081,1.296902 -1.119373,2.272125 -0.661575,3.12753 0.538453,1.006108 0.992029,0.960976 1.837709,-0.182868 z m -5.178289,-0.506864 c -0.09009,-0.234777 -0.259692,-1.264211 -0.37689,-2.287632 -0.252512,-2.205056 -0.325867,-2.323968 -0.936067,-1.517408 -0.612084,0.80905 -0.608812,1.41664 0.0076,1.41664 0.392125,0 0.450865,0.232595 0.283729,1.123508 -0.13315,0.70975 -0.06621,1.297689 0.181758,1.596476 0.454457,0.547588 1.082117,0.299776 0.839841,-0.331584 z m 2.360173,-1.5884 c 0,-0.44 -0.128594,-0.8 -0.285764,-0.8 -0.373207,0 -0.727672,0.934653 -0.496389,1.308877 0.348569,0.563997 0.782153,0.281904 0.782153,-0.508877 z m 5.413901,-1.557769 c 0.991778,-1.604733 0.872942,-2.575194 -0.133901,-1.093492 -0.703849,1.035808 -1.052183,2.171261 -0.666099,2.171261 0.07364,0 0.433645,-0.484998 0.8,-1.077769 z m 3.930729,-0.545479 c 0.896981,-1.806301 0.633574,-2.168803 -0.39071,-0.537696 -1.05668,1.682695 -1.142316,1.955466 -0.55392,1.764365 0.22,-0.07145 0.645083,-0.623453 0.94463,-1.226669 z m -5.681913,-3.0544 c 0.828932,-0.31809 1.245508,-1.422563 1.34952,-3.577994 0.107353,-2.224694 -0.08257,-2.321801 -0.960009,-0.490854 -0.323275,0.674573 -0.791275,1.634166 -1.040001,2.132429 -0.823521,1.649731 -0.5699,2.404726 0.65049,1.936419 z m -6.025204,-1.002352 c 0.350829,-0.484 0.812732,-1.312 1.026452,-1.84 0.21372,-0.528 1.033759,-1.59535 1.822308,-2.371888 1.353841,-1.333223 1.732284,-1.948112 1.198993,-1.948112 -0.195799,0 -3.12115,1.327577 -4.885267,2.217024 -0.648078,0.326752 -1.158146,1.48641 -1.417608,3.222976 -0.172213,1.152618 -0.135247,1.360173 0.185229,1.04 0.537935,-0.537424 0.912379,-0.504592 0.912379,0.08 0,0.73136 0.450218,0.575779 1.157514,-0.4 z M 12.970345,68.708201 C 15.076655,67.689708 17.016,66.717744 17.28,66.548278 c 0.264,-0.169469 1.200001,-0.735136 2.080001,-1.25704 0.88,-0.521904 2.989664,-2.213939 4.688143,-3.760077 3.3563,-3.055264 5.743312,-4.843629 8.935345,-6.694426 5.593123,-3.242995 8.220221,-3.966669 9.89768,-2.726467 0.535978,0.396262 1.006055,0.552214 1.118093,0.370931 0.106323,-0.172035 0.975322,-0.540125 1.93111,-0.817981 0.955789,-0.277853 1.807767,-0.6184 1.893284,-0.756771 0.08552,-0.138368 1.312179,-0.580931 2.725917,-0.983475 2.444416,-0.696016 2.570428,-0.776781 2.570428,-1.647434 0,-0.503546 0.03194,-1.023536 0.07093,-1.155536 0.03901,-0.132 -0.572986,-0.548541 -1.36,-0.925648 -1.407402,-0.674374 -2.706394,-0.736266 -9.091537,-0.433168 -0.341331,0.01619 -0.819184,0.312976 -1.061894,0.659491 -0.24271,0.346519 -0.547245,0.564547 -0.676746,0.484512 -0.1295,-0.08004 -0.258809,-1.331094 -0.287353,-2.780134 -0.05566,-2.825437 -0.132576,-3.048474 -3.152701,-9.141975 l -1.455629,-2.936925 -1.437046,1.096925 c -0.845524,0.645401 -1.805556,1.096921 -2.332305,1.096921 -0.492391,0 -1.525361,0.225037 -2.295489,0.500087 -0.770128,0.275046 -2.181922,0.647094 -3.137322,0.826771 -1.760955,0.331175 -4.633492,1.640567 -5.063503,2.308103 -0.56355,0.874841 -0.668332,4.670653 -0.177912,6.44504 0.243222,0.88 0.725694,2.820406 1.072161,4.312016 0.592719,2.551776 0.599403,2.803949 0.113136,4.267962 -0.387707,1.167277 -0.833817,1.768787 -1.785884,2.407987 -0.697994,0.468618 -1.745252,1.248035 -2.327239,1.732035 -0.581988,0.484 -1.198573,0.88 -1.37019,0.88 -0.387737,0 -5.188062,5.461486 -5.844497,6.649476 -0.26456,0.478787 -0.726555,1.217994 -1.026655,1.642675 -0.300101,0.424682 -0.477294,0.882733 -0.393763,1.017888 0.08353,0.135155 0.0033,0.337536 -0.1781935,0.449731 -0.3438548,0.212516 -1.2803713,2.250295 -1.2803713,2.785978 0,0.169171 0.1126551,0.259587 0.2503447,0.200919 0.1376893,-0.05867 1.9736891,-0.939978 4.0800001,-1.958468 z M 24.640001,53.053506 c 0,-0.437798 1.876064,-1.533504 2.625659,-1.533504 0.200171,0 0.591285,-0.199206 0.869144,-0.442681 0.277858,-0.243476 1.441197,-0.775389 2.585197,-1.182029 1.144,-0.406643 2.534208,-0.989229 3.08935,-1.294637 0.55514,-0.305408 1.074621,-0.490016 1.1544,-0.410237 0.07978,0.07978 0.3272,-0.07443 0.549831,-0.342682 0.22263,-0.268256 0.557686,-0.487734 0.744569,-0.487734 0.186884,0 0.941242,-0.291158 1.676352,-0.647021 1.322666,-0.640291 2.387661,-0.586105 2.383181,0.121258 -0.0013,0.201168 -0.827881,0.63712 -1.836905,0.968777 -1.009024,0.331655 -2.159591,0.815962 -2.556813,1.076234 -1.372051,0.899002 -8.046211,3.842442 -9.205945,4.06001 -0.639908,0.120048 -1.369243,0.297232 -1.620745,0.393741 -0.264231,0.101395 -0.457275,-0.0166 -0.457275,-0.279495 z m 2.800271,7.986497 c 0.931785,-0.484 1.82045,-0.88 1.974812,-0.88 0.154362,0 1.195116,-0.56746 2.312787,-1.261021 1.117672,-0.693562 3.61613,-2.073044 5.55213,-3.06552 1.936,-0.992477 3.730858,-2.009018 3.988573,-2.25898 0.407533,-0.39528 0.320218,-0.45448 -0.67033,-0.45448 -1.522589,0 -4.311328,0.947044 -6.186217,2.100816 -0.839402,0.516551 -1.761501,1.083517 -2.049108,1.259924 -2.045229,1.254473 -5.064779,3.425155 -6.442918,4.631661 -1.327788,1.162425 -0.809465,1.13774 1.520271,-0.0724 z M 18.800001,221.89429 c -0.325807,-0.32709 -0.295488,-2.43126 0.04272,-2.96492 0.217755,-0.34359 0.543268,-0.25998 1.610386,0.41366 1.401006,0.88442 1.905614,1.62652 1.429382,2.10211 -0.393616,0.39309 -2.790466,0.74234 -3.08249,0.44915 z M 242.09595,147.5458 c -0.22826,-0.36932 0.68112,-1.30579 1.26803,-1.30579 0.74114,0 0.92652,0.71316 0.30375,1.16854 -0.68551,0.50126 -1.31295,0.55605 -1.57178,0.13725 z m 16.78744,-3.38172 c -0.51536,-0.62097 -0.23321,-1.30933 0.62911,-1.53483 0.84092,-0.21991 1.15573,0.42113 0.66089,1.34575 -0.42141,0.7874 -0.75309,0.83602 -1.29,0.18908 z M 45.555448,140.95929 c -0.329479,-0.85861 0.169907,-2.07928 0.850649,-2.07928 0.526221,0 0.633904,0.21743 0.633904,1.28 0,1.07325 -0.104992,1.28 -0.650041,1.28 -0.357527,0 -0.733056,-0.21633 -0.834512,-0.48072 z m 222.404012,-0.30956 c -0.22263,-0.58016 0.40102,-1.44972 1.03973,-1.44972 0.67714,0 0.5227,1.21366 -0.20393,1.60254 -0.50823,0.27199 -0.6852,0.23964 -0.8358,-0.15282 z m 8.92055,-1.69772 c -0.94761,-0.15335 -0.91188,-0.52185 0.095,-0.98064 1.13101,-0.51532 1.42495,-0.46697 1.42495,0.2344 0,0.68576 -0.46946,0.91625 -1.52,0.74624 z m 9.85613,-2.30204 c -0.23617,-0.14595 -0.34093,-0.49591 -0.2328,-0.77767 0.25043,-0.65262 1.81667,-0.69017 1.81667,-0.0435 0,0.6184 -1.03976,1.15751 -1.58387,0.82122 z m -51.95518,-1.81568 c -0.12153,-0.12152 -0.22095,-0.48495 -0.22095,-0.80762 0,-0.6383 0.78926,-0.80181 1.13898,-0.23596 0.25328,0.40982 -0.59149,1.37012 -0.91803,1.04358 z m -4.06095,-3.5951 c 0,-1.12181 0.59483,-1.67476 1.53665,-1.42847 0.96489,0.25233 0.8814,0.81729 -0.2437,1.64911 -1.21444,0.89787 -1.29295,0.88448 -1.29295,-0.22064 z M 44.069908,130.16001 c -0.196336,-0.54757 0.301383,-1.43931 1.017149,-1.82237 0.450506,-0.24111 0.723239,-0.17245 1.138701,0.28663 0.516995,0.57127 0.510573,0.63941 -0.119722,1.2697 -0.740905,0.74091 -1.81551,0.88131 -2.036128,0.26604 z m 184.650102,-5.18178 c -0.72373,-1.00626 -0.72809,-0.99095 0.4178,-1.4656 1.19589,-0.49535 1.67542,-0.12849 1.52721,1.16839 -0.13772,1.20516 -1.17769,1.36408 -1.94501,0.29721 z m 21.84,-0.20905 c -1.32,-0.33879 -2.79017,-0.90245 -3.26705,-1.25258 -0.47687,-0.35013 -1.03186,-0.63659 -1.2333,-0.63659 -0.20144,0 -1.17927,-0.8292 -2.17296,-1.84266 -0.99368,-1.01346 -2.74269,-2.5576 -3.88669,-3.43142 -2.45885,-1.87814 -4.48,-3.6941 -4.48,-4.02517 0,-0.13004 -0.49256,-0.96837 -1.09457,-1.86296 -1.2537,-1.86299 -3.01967,-6.22801 -3.22628,-7.97453 -0.077,-0.6508 -0.23666,-1.88176 -0.35481,-2.73549 -0.29343,-2.120029 0.36503,-5.579091 1.67796,-8.81481 1.17326,-2.89151 1.15326,-3.639753 -0.0568,-2.125472 -0.93857,1.174525 -1.46425,0.814995 -0.57232,-0.39143 0.35623,-0.481834 0.90597,-1.380064 1.22164,-1.996064 0.31568,-0.616 0.98164,-1.588055 1.47991,-2.160122 0.49828,-0.572067 1.63368,-2.084067 2.52312,-3.36 0.88945,-1.275933 2.12822,-2.967879 2.75284,-3.759879 2.5357,-3.215193 10.42761,-11.84 10.83389,-11.84 0.0965,0 0.17545,0.269661 0.17545,0.599245 0,0.329584 -0.612,1.166544 -1.36,1.85991 -1.32927,1.232179 -3.60209,3.871348 -4.24,4.923431 -0.69407,1.144701 -2.27418,3.40176 -3.23254,4.617414 -0.55499,0.704 -1.47371,2.180768 -2.04159,3.281706 -0.56788,1.100938 -1.17759,2.091373 -1.35492,2.200967 -0.17732,0.10959 -0.66613,0.936825 -1.08624,1.838294 -0.42011,0.901469 -0.88564,1.855034 -1.03453,2.119034 -0.7801,1.383216 -1.1217,2.197923 -1.98145,4.725674 -2.07406,6.097913 -2.17063,9.496022 -0.43861,15.434322 0.48612,1.66665 3.58073,5.33167 6.17967,7.31872 0.59939,0.45826 1.89539,1.6838 2.88,2.72342 1.69931,1.79424 4.75152,4.05028 5.79021,4.27984 2.44828,0.54109 9.76004,0.4046 21.6,-0.40322 0.704,-0.048 2.72,-0.17687 4.48,-0.2863 4.90271,-0.30483 8.2007,-0.73885 9.77236,-1.28607 0.7852,-0.27339 1.67661,-0.49917 1.98092,-0.50173 0.56995,-0.005 2.75614,-0.66233 7.76672,-2.33596 1.584,-0.52909 3.744,-1.54024 4.8,-2.24699 1.056,-0.70676 2.29516,-1.53867 2.75368,-1.84869 1.12601,-0.76134 2.04632,-0.89374 2.04632,-0.29441 0,1.11214 -6.73292,5.33822 -9.43872,5.92445 -0.61529,0.13331 -1.55129,0.42864 -2.08,0.6563 -1.26162,0.54325 -2.13393,0.85588 -2.7076,0.9704 -0.25647,0.0512 -0.76047,0.23705 -1.12,0.413 -0.35953,0.17596 -1.30168,0.46324 -2.09368,0.63839 -0.792,0.17516 -2.016,0.48403 -2.72,0.68637 -2.78595,0.80073 -5.2276,1.2695 -7.48764,1.43755 -1.30221,0.0968 -2.49855,0.25695 -2.65854,0.35584 -0.43397,0.2682 -16.85177,0.58782 -17.10656,0.33302 -0.0776,-0.0776 -0.80438,0.0585 -1.61504,0.30248 -1.76548,0.53134 -1.58096,0.54051 -4.57222,-0.22723 z m -24.32792,-4.95001 c -0.5998,-1.57758 -0.23938,-2.28235 0.97078,-1.89826 0.80814,0.2565 0.91029,2.22581 0.13096,2.52486 -0.73814,0.28325 -0.7607,0.27042 -1.10174,-0.6266 z m -182.392089,-0.1602 c 0,-0.63992 0.661555,-1.57896 1.112375,-1.57896 0.671155,0 0.881209,0.54457 0.491164,1.27338 -0.35838,0.66964 -1.603539,0.90693 -1.603539,0.30558 z m 258.460009,-1.78563 c -0.41731,-0.41731 -0.21808,-0.75333 0.44666,-0.75333 0.3724,0 0.61076,0.16773 0.54,0.38 -0.15587,0.46762 -0.69019,0.6698 -0.98666,0.37333 z m -78.09207,-6.11577 c -0.0824,-0.13334 -0.24716,-0.76124 -0.36611,-1.39532 -0.17472,-0.93134 -0.1079,-1.19447 0.34776,-1.36932 0.89737,-0.34435 1.42212,0.44696 1.20081,1.81077 -0.17617,1.0856 -0.79334,1.58347 -1.18246,0.95387 z M 46.058916,104.83931 c -0.0996,-0.10348 -0.707856,-0.25558 -1.351686,-0.33802 -0.64383,-0.0824 -1.452877,-0.30094 -1.797878,-0.48558 -0.345002,-0.18464 -1.500743,-0.33571 -2.568314,-0.33571 -1.682413,0 -1.941037,-0.0797 -1.941037,-0.59813 0,-0.84254 1.770538,-1.06943 3.899239,-0.49967 0.94712,0.2535 3.002419,0.44125 4.638236,0.4237 1.61561,-0.0173 3.08738,0.0611 3.270602,0.17437 0.40185,0.24836 1.850067,-0.46661 3.134746,-1.5476 0.516752,-0.43482 1.67647,-1.07059 2.577155,-1.41282 0.900685,-0.342233 2.295152,-1.161049 3.098816,-1.819593 0.803664,-0.658541 1.461207,-1.082899 1.461207,-0.943021 0,0.139882 0.324,-0.03515 0.72,-0.388953 0.396,-0.353805 1.584,-1.114423 2.64,-1.690263 1.056,-0.575837 2.352,-1.439814 2.88,-1.919949 1.106457,-1.006153 3.211098,-2.258067 3.796122,-2.258067 0.219747,0 0.895516,-0.370605 1.501708,-0.823565 2.365495,-1.767552 9.357949,-5.576435 10.237377,-5.576435 0.373644,0 1.020755,1.538204 0.798441,1.897917 -0.08301,0.134316 0.114807,1.166233 0.4396,2.293148 0.401325,1.392455 0.730899,2.011668 1.02864,1.932618 0.240964,-0.06397 1.662112,-0.307069 3.158112,-0.540208 1.496,-0.233142 3.584,-0.731373 4.640001,-1.107181 1.056,-0.375811 2.266278,-0.751571 2.689504,-0.835027 0.423228,-0.08346 1.071228,-0.305526 1.44,-0.493491 0.7455,-0.379987 3.710493,-3.167152 3.710493,-3.487956 0,-0.202556 -1.646685,0.02666 -4.879997,0.679274 -0.924,0.186502 -2.688,0.46088 -3.920001,0.609731 -1.232,0.148848 -2.384,0.301309 -2.56,0.3388 -0.700592,0.149235 -1.113062,-0.03674 -1.441152,-0.649779 -0.278,-0.519443 -0.127276,-1.081405 0.78874,-2.940794 1.083753,-2.199869 1.407516,-3.45479 0.892412,-3.459027 -0.132,-9.6e-4 -1.312438,1.114912 -2.6232,2.48 -1.777667,1.851344 -2.413353,2.341773 -2.501881,1.930183 -0.07306,-0.339655 0.832797,-1.631421 2.356201,-3.360001 1.361188,-1.544515 2.51633,-2.8615 2.56698,-2.92664 0.273696,-0.351961 1.710745,0.379175 1.896675,0.96498 0.254,0.800284 -0.362115,2.944832 -1.197018,4.166521 -0.790989,1.157437 -1.137885,2.890628 -0.538905,2.692522 0.24263,-0.08025 1.953148,-0.523392 3.801149,-0.984765 1.848,-0.461376 4.464336,-1.201849 5.814076,-1.645497 2.755101,-0.905578 3.675991,-0.893034 4.304441,0.05864 0.53793,0.814598 0.007,1.918281 -2.0917,4.350662 -1.475732,1.710115 -3.307787,2.722179 -6.229822,3.441485 -0.859655,0.211616 -2.116842,0.667302 -2.793751,1.012637 -0.803129,0.409725 -1.927805,0.638803 -3.236995,0.659325 -3.36152,0.05269 -4.032198,0.216505 -4.145379,1.012509 -0.07265,0.510931 -0.355252,0.738531 -1.010074,0.813488 -0.754269,0.08634 -0.878646,0.0045 -0.729882,-0.48 0.09863,-0.321242 0.03977,-1.124074 -0.130793,-1.784074 -0.170567,-0.66 -0.442928,-1.721607 -0.605245,-2.359123 -0.16232,-0.63752 -0.428122,-1.292122 -0.590669,-1.454669 -0.523373,-0.523373 -5.765424,2.255213 -11.914208,6.315206 -3.256,2.149911 -7,4.482365 -8.32,5.183229 -1.32,0.700864 -3.107661,1.661063 -3.972583,2.133783 -5.672506,3.10027 -6.552339,3.46454 -8.736941,3.61728 -1.193763,0.0835 -2.251965,0.0671 -2.351562,-0.0364 z m 174.842444,-0.39675 c -0.31884,-0.83088 0.31857,-2.19207 1.0776,-2.30121 0.80061,-0.11512 1.22808,0.8296 0.92384,2.04175 -0.22972,0.91527 -1.67775,1.10299 -2.00144,0.25946 z m 1.01476,-1.40884 c -0.17939,-0.29026 -0.29831,-0.28141 -0.495,0.0368 -0.33738,0.5459 -0.006,1.08224 0.41112,0.66521 0.176,-0.176 0.21375,-0.49192 0.0839,-0.70205 z m -0.41639,-6.791095 c 0.066,-0.683216 0.29146,-1.073597 0.66028,-1.143463 0.74728,-0.141564 0.79721,1.701341 0.0538,1.986605 -0.78647,0.301799 -0.82085,0.26121 -0.7141,-0.843142 z m 0.26028,-6.343658 c 0,-1.021485 0.59666,-1.898963 1.29125,-1.898963 0.70588,0 0.84622,0.915712 0.29749,1.941037 -0.45429,0.848841 -1.58874,0.818796 -1.58874,-0.04207 z m 26.40322,-25.584183 c 0.11055,-0.178871 0.33505,-0.242375 0.49889,-0.141114 0.44385,0.274314 0.36109,0.466333 -0.201,0.466333 -0.27439,0 -0.40843,-0.146349 -0.29789,-0.325219 z m -50.6665,-14.102859 c -0.2072,-0.331782 -0.37672,-0.864825 -0.37672,-1.184541 0,-0.319715 -0.45049,-1.193862 -1.00108,-1.942544 -0.86969,-1.182601 -0.96278,-1.49534 -0.70932,-2.383043 0.32895,-1.152061 1.20504,-1.461872 2.15978,-0.763754 0.5001,0.36568 0.60346,0.852247 0.59735,2.812077 -0.004,1.303434 0.1364,2.549882 0.31213,2.769882 0.46194,0.578323 2.32574,0.492986 2.84195,-0.130125 0.29976,-0.361824 0.43165,-1.377741 0.41546,-3.2 -0.0131,-1.468432 0.0726,-2.669875 0.1904,-2.669875 0.60449,0 1.27532,1.344544 1.4616,2.929498 0.20314,1.728419 0.17351,1.822406 -0.97543,3.09415 -1.1077,1.22609 -1.29427,1.310279 -2.86216,1.291549 -1.28239,-0.01533 -1.76591,-0.162038 -2.05396,-0.623274 z m 23.22226,-7.646963 c -0.44402,-0.349271 -1.26349,-1.580877 -1.82103,-2.736903 -0.55754,-1.156025 -1.18566,-2.158211 -1.39583,-2.227081 -1.23939,-0.406132 -3.41789,-0.571415 -7.02212,-0.532768 -2.244,0.02406 -4.08,-0.08081 -4.08,-0.233047 0,-0.43879 0.73175,-0.924093 1.57493,-1.044499 0.98235,-0.140282 1.21614,-0.757063 0.31276,-0.825111 -1.5689,-0.118182 -1.19047,-0.911536 1.21949,-2.55656 3.01236,-2.056213 3.49044,-2.213159 6.97282,-2.289043 1.76,-0.03835 3.776,-0.09903 4.48,-0.134839 0.95338,-0.0485 1.28,0.05737 1.28,0.41489 0,0.382125 -0.48938,0.484302 -2.4,0.501095 -3.08642,0.02713 -6.12472,0.619343 -8.22435,1.603062 -0.91539,0.428877 -2.04005,0.922624 -2.49925,1.09721 -0.4592,0.174589 -0.74575,0.461705 -0.63678,0.638035 0.30348,0.491027 1.68992,0.381517 2.58364,-0.20407 1.05946,-0.694183 3.74604,-0.821364 4.92514,-0.233152 0.51116,0.254998 1.11888,0.899481 1.35049,1.432185 0.40312,0.927178 0.48261,0.959447 1.86111,0.755508 0.792,-0.117172 1.68253,-0.342826 1.97896,-0.501456 0.78774,-0.421543 1.22104,-0.353559 1.22104,0.191584 0,0.264 -0.2592,0.48 -0.576,0.48 -0.58518,0 -1.344,0.569961 -1.344,1.0095 0,0.22992 2.13252,0.756084 2.31354,0.570829 0.0476,-0.04866 0.43625,0.09873 0.86377,0.32753 0.42752,0.228803 1.50752,0.505136 2.4,0.614073 1.74395,0.212871 2.3121,1.060679 0.84927,1.267322 -0.93752,0.132439 -5.63397,-1.150099 -6.74658,-1.842403 -0.70488,-0.438595 -0.67635,-0.354317 0.24,0.708816 0.572,0.663632 1.04,1.344688 1.04,1.513459 0,0.168775 0.5942,0.737296 1.32044,1.263389 1.04353,0.75592 1.21045,0.998739 0.79593,1.157805 -0.28849,0.110704 -0.73869,0.02355 -1.00045,-0.193703 -0.38797,-0.32199 -0.47592,-0.299036 -0.47592,0.124202 0,0.687395 -0.38109,0.654957 -1.36102,-0.115859 z m 0.3351,-1.52496 c -0.20471,-0.484 -0.56162,-1.090858 -0.79314,-1.348573 -0.73486,-0.818007 -0.51871,0.417971 0.24228,1.385418 0.84936,1.079782 1.01836,1.068476 0.55086,-0.03684 z m -4.48161,-5.569469 c 0.18387,-0.947296 -3.20558,-1.681312 -4.36664,-0.945632 -0.56937,0.360774 0.0634,0.779542 0.83703,0.553955 0.30643,-0.08935 1.06114,0.100861 1.67714,0.422691 1.26933,0.663171 1.71919,0.655639 1.85247,-0.03101 z m -3.93247,5.637914 c -0.528,-0.24177 -1.4126,-0.446074 -1.96577,-0.454013 -1.14577,-0.01645 -1.6992,-0.834512 -0.76512,-1.130976 0.77053,-0.24456 2.11947,0.100588 3.44138,0.880534 1.76999,1.04432 1.22084,1.588797 -0.71049,0.704455 z m 49.93617,-0.235204 c 0.0858,-0.223718 0.47379,-0.547718 0.8621,-0.72 0.3883,-0.172281 1.02543,-0.817241 1.41584,-1.433241 0.39041,-0.616 0.97631,-1.48 1.302,-1.92 0.32569,-0.44 0.78486,-1.592 1.02037,-2.560001 0.23551,-0.968 0.6338,-2.165561 0.88507,-2.661247 0.25127,-0.495685 0.41221,-1.287686 0.35765,-1.76 -0.0822,-0.711159 -0.2367,-0.840515 -0.8992,-0.75264 -1.21523,0.161188 -2.20836,0.925818 -2.79192,2.149551 -0.49145,1.030592 -1.68808,1.575319 -1.68808,0.768445 0,-0.730292 1.013,-2.230803 1.99966,-2.962004 1.10974,-0.822414 3.03232,-1.822105 3.50422,-1.822105 0.15706,0 0.6082,0.696376 1.00253,1.547502 0.60668,1.309458 0.79996,1.495154 1.25647,1.207193 0.39418,-0.248641 0.64962,-0.229846 0.94831,0.06977 0.3319,0.332931 0.27943,0.512193 -0.27883,0.952808 -0.82887,0.65418 -3.63236,6.353356 -3.63236,7.384147 0,0.445382 -0.15659,0.678188 -0.4,0.594684 -0.22,-0.07548 -1.03228,0.416525 -1.80506,1.093332 -0.92035,0.806061 -1.71721,1.23056 -2.30995,1.23056 -0.60047,0 -0.85239,-0.136845 -0.74882,-0.406759 z m 8.84868,-4.019654 c -0.33341,-0.216906 -0.32068,-0.348477 0.0646,-0.668272 0.55911,-0.464013 1.88502,-0.151162 1.70306,0.40184 -0.15338,0.466141 -1.21481,0.626121 -1.7677,0.266432 z m -7.3893,-10.649143 c -0.2123,-0.609026 -0.24543,-1.162563 -0.0795,-1.328489 0.16593,-0.165926 0.43609,0.150574 0.6484,0.7596 0.21231,0.609026 0.24544,1.162563 0.0795,1.328488 -0.16592,0.165926 -0.43609,-0.150573 -0.6484,-0.759599 z m -4.19555,-3.511112 c 0,-0.779854 0.74776,-0.669622 0.90346,0.133184 0.0612,0.315765 -0.102,0.533483 -0.4,0.533483 -0.29684,0 -0.50346,-0.273599 -0.50346,-0.666667 z m -4.59724,-2.486076 c -0.59336,-0.655664 -0.63657,-0.971911 -0.22225,-1.626681 0.40902,-0.6464 1.29949,0.120879 1.29949,1.119721 0,1.000243 -0.4424,1.208443 -1.07724,0.50696 z"/>
</svg>
