<?xml version="1.0" encoding="utf-8"?>
<svg xmlns="http://www.w3.org/2000/svg" version="1.1" viewBox="0 0 1217 882">
	<title>Both of the old man’s thumbs are falling through the air.</title>
	<path d="M 586.97266,26.238281 C 572.97683,26.143521 557.87197,27.988744 543,31.664062 c -3.575,0.883494 -7.76694,1.765137 -9.31445,1.958985 -1.54751,0.193848 -3.78529,1.033569 -4.97266,1.865234 C 527.52552,36.319946 525.78894,37 524.85352,37 c -0.93542,0 -2.97266,1.021844 -4.52735,2.271484 -1.5547,1.249641 -4.58945,3.079029 -6.74414,4.064454 -8.99329,4.112977 -36.53623,33.330865 -39.60156,42.009765 -0.83538,2.365208 -2.21185,5.391587 -3.06055,6.726563 -2.22242,3.495781 -7.65746,17.734014 -8.56054,22.427734 -0.4233,2.2 -0.82679,4.225 -0.89649,4.5 -0.0697,0.275 -0.45389,1.85 -0.85547,3.5 -0.40158,1.65 -1.87069,7.5 -3.26367,13 -1.39298,5.5 -2.70318,10.86113 -2.91211,11.91406 -0.20893,1.05294 -1.07841,4.0171 -1.93164,6.58594 -1.49874,4.51227 -1.925,6.5794 -5.15039,25 -0.81858,4.675 -1.73485,9.85 -2.03711,11.5 -0.71062,3.87927 -3.81205,7.23169 -7.42578,8.02539 -1.57463,0.34585 -3.1198,1.04309 -3.4336,1.55078 -0.31376,0.50768 -1.21377,0.92383 -1.99804,0.92383 -0.78428,0 -3.56866,1.31552 -6.18946,2.92383 -2.62074,1.6083 -5.99129,3.2306 -7.49023,3.60351 -1.49893,0.37292 -4.64893,2.36611 -7,4.43164 -2.35106,2.06553 -5.40039,4.10389 -6.77539,4.5293 -1.375,0.4254 -3.6944,1.61473 -5.1543,2.64258 -1.4599,1.02784 -3.08196,1.86914 -3.60547,1.86914 -0.5235,0 -2.98698,1.55323 -5.47265,3.45117 -2.48567,1.89795 -5.90392,4.26045 -7.5957,5.25 -1.69181,0.98956 -8.83393,5.65475 -15.87305,10.36719 C 348.06397,252.94538 343.25379,256 342.2168,256 c -0.51906,0 -5.17851,2.8125 -10.35547,6.25 -5.17697,3.4375 -10.12497,6.7 -10.9961,7.25 -4.13219,2.60891 -7.64697,5.15242 -10.65039,7.70703 -1.80663,1.53667 -3.7716,2.79297 -4.36718,2.79297 -1.00552,0 -8.84088,5.56561 -21.68946,15.4082 -2.93755,2.2503 -7.21255,5.38602 -9.5,6.9668 -2.28744,1.58079 -6.92798,5.29329 -10.3125,8.25 -3.38453,2.95672 -6.82455,5.375 -7.64453,5.375 -2.81502,0 -22.2023,8.2728 -27.36719,11.67773 -3.11011,2.05033 -5.56197,4.53769 -6.1582,6.24805 -0.54479,1.56277 -2.65145,4.13042 -4.68164,5.70703 -2.03019,1.57661 -5.5587,4.62595 -7.83984,6.77539 -2.28114,2.14945 -8.62669,7.77445 -14.10157,12.5 C 178.19382,374.75439 164,389.58148 164,392.91211 c 0,0.90023 3.15,5.4396 7,10.08789 3.85,4.64829 7,8.82685 7,9.28516 0,0.45832 0.39904,0.58655 0.88672,0.28515 0.48768,-0.30141 1.47137,0.15509 2.18555,1.01563 1.11781,1.34687 1.99347,19.30281 1.92187,39.38476 -0.0108,3.03434 2.79575,11.73293 4.76172,14.75977 1.15544,1.77894 1.8298,2.02572 3.33398,1.2207 1.03729,-0.55514 2.17978,-2.23385 2.53711,-3.73047 0.35733,-1.49663 1.09526,-3.28636 1.64063,-3.97851 0.54533,-0.69216 0.75313,-2.73268 0.46094,-4.53321 -0.30563,-1.88337 0.0479,-4.32046 0.83398,-5.74023 1.54866,-2.79717 1.59113,-2.6807 1.97852,5.53125 0.59347,12.58057 3.24981,18.75228 7.16992,16.6543 2.1058,-1.12699 3.28906,-5.0032 3.28906,-10.7793 0,-6.14725 1.72992,-3.49804 2.44336,3.74219 0.5658,5.74199 1.19415,7.61016 3.25,9.66601 l 2.54687,2.54883 1.85743,-2.41601 c 1.02149,-1.32879 1.86866,-3.28118 1.88086,-4.3379 0.0122,-1.05669 0.69242,-2.66109 1.51171,-3.5664 0.94317,-1.04218 1.6136,-4.29012 1.83008,-8.85352 0.32595,-6.8711 0.51774,-7.36691 4.0918,-10.64062 3.00913,-2.75629 3.6067,-3.88193 3.0293,-5.70117 -0.39565,-1.24658 -0.64359,-5.02599 -0.55079,-8.39844 0.17621,-6.40509 0.23498,-6.81762 2.08594,-14.91211 0.62806,-2.74658 1.04242,-6.57158 0.92188,-8.5 -0.30564,-4.88976 1.16705,-20.02963 2.21875,-22.80664 0.47938,-1.26577 1.10208,-3.60577 1.38281,-5.19922 1.04657,-5.94049 2.33578,-8 5.00977,-8 3.22061,0 7.25784,2.50167 14.12109,8.75 2.40821,2.19244 4.5638,2.7552 9.07812,2.37305 1.98725,-0.16823 7.08165,-2.79255 17.29102,-8.91016 1.925,-1.15349 4.78864,-2.3277 6.36328,-2.60937 1.57463,-0.28168 5.09268,-1.67831 7.81836,-3.10352 2.82439,-1.47684 5.75001,-2.33998 6.80274,-2.00586 1.01589,0.32243 2.11476,0.15546 2.4414,-0.37305 0.32664,-0.52851 4.97684,-3.11831 10.33399,-5.7539 5.35715,-2.63559 11.54023,-5.98544 13.74023,-7.44336 2.2,-1.45793 5.125,-2.99028 6.5,-3.40625 1.375,-0.41597 5.082,-2.50234 8.23828,-4.63672 3.15628,-2.13437 6.17946,-3.88086 6.71875,-3.88086 0.53928,0 2.68228,-0.8611 4.76172,-1.91406 2.07943,-1.05296 6.03125,-2.87762 8.78125,-4.05469 7.79575,-3.33679 9.88503,-4.35544 11.5,-5.60742 0.825,-0.63956 7.35,-4.19232 14.5,-7.89453 7.15,-3.70221 13.45,-7.07588 14,-7.4961 0.55,-0.42021 5.29308,-3.01956 10.54102,-5.77734 5.24795,-2.75778 12.04711,-6.61727 15.10937,-8.57617 l 5.56836,-3.56055 1.13477,3.68945 c 0.62424,2.02996 1.05749,8.19141 0.96289,13.69141 -0.24619,14.31415 0.92877,27.54002 3.18164,35.82227 1.0739,3.94801 2.15097,8.75273 2.39453,10.67773 0.24357,1.925 1.15538,5.17392 2.02539,7.21875 0.87002,2.04484 1.58203,4.45062 1.58203,5.34766 0,1.5143 1.93669,6.58093 4.08398,10.68359 0.50376,0.9625 1.28916,2.5375 1.7461,3.5 1.61271,3.397 6.63899,13.26373 8.27734,16.25 0.45262,0.825 2.00927,4.05118 3.45899,7.16992 1.44972,3.11874 3.71562,6.68615 5.03515,7.92578 1.31953,1.23963 2.39844,2.83736 2.39844,3.55274 0,1.54887 11.08023,12.30201 14.5625,14.13281 3.46163,1.81993 3.01629,3.23486 -2.26562,7.2168 -2.55235,1.92416 -7.37558,6.05226 -10.71876,9.17383 -3.34314,3.12153 -9.40564,8.52264 -13.47265,12.00195 -4.06702,3.47931 -11.43094,9.81367 -16.36524,14.07617 -4.9343,4.2625 -9.35516,7.75 -9.82226,7.75 -1.19527,0 -21.23235,17.33272 -33.32227,28.82422 -5.6108,5.33307 -5.89466,5.83558 -5.73242,10.125 0.24779,6.55105 1.69145,7.60505 8.14453,5.95117 5.16473,-1.32368 5.21542,-1.31369 7.17969,1.38281 2.45501,3.37018 7.19229,3.74264 8.82422,0.69336 0.7851,-1.46697 1.5198,-1.7784 2.66992,-1.13476 2.22183,1.2434 8.51244,-0.36592 10.36328,-2.65039 1.08413,-1.33813 2.42617,-1.77537 4.50196,-1.47071 2.56542,0.37653 3.11399,0.018 4.14257,-2.70703 1.16973,-3.09895 1.2192,-3.11863 3.74024,-1.46679 3.56216,2.33401 7.46611,1.18852 8.90039,-2.61133 0.78947,-2.09153 1.57554,-2.78218 2.64648,-2.32617 5.73183,2.4405 10.33446,0.58748 11.36719,-4.57618 0.60895,-3.04477 0.66679,-3.07201 3.08984,-1.48437 3.01145,1.97318 6.03742,1.18923 8.20899,-2.125 C 480.73183,511.76142 482.16023,511 484.19141,511 487.47476,511 493,506.30195 493,503.50977 c 0,-1.20833 0.54953,-1.46963 2.07227,-0.98633 3.4772,1.10362 6.79937,-0.36985 8.53711,-3.78711 0.90489,-1.77953 2.4958,-4.04848 3.53515,-5.04102 1.70925,-1.63228 2.0372,-1.65615 3.44336,-0.25 0.85504,0.85504 1.77322,1.55469 2.03906,1.55469 0.82765,0 13.7326,-7.75327 16.53125,-9.93164 1.46199,-1.13796 3.57084,-2.06836 4.68555,-2.06836 2.41386,0 7.4027,1.79442 8.13672,2.92773 0.78706,1.21475 8.7306,5.07227 10.44531,5.07227 3.84803,0 4.63145,8.33854 2.21094,23.5 -0.87806,5.5 -1.33943,11.41495 -1.02539,13.14453 0.31403,1.72959 0.0517,4.11681 -0.58399,5.30469 -1.0607,1.98194 -2.71796,10.19328 -3.54101,17.55078 -0.67233,6.0101 -3.4628,21.65416 -4.02539,22.56445 -0.31779,0.51419 -1.17872,5.77255 -1.91406,11.68555 -0.73542,5.91301 -1.59559,11.65 -1.91016,12.75 -0.31458,1.1 -1.30108,5.36844 -2.19336,9.48438 -0.89227,4.11593 -2.05651,8.29201 -2.58594,9.28124 -0.52942,0.98924 -1.59404,5.27275 -2.36523,9.51758 -0.77119,4.24483 -1.86006,10.1918 -2.41992,13.2168 -0.55986,3.025 -1.52906,8.875 -2.1543,13 -0.62523,4.125 -1.73779,10.61998 -2.47266,14.43359 -0.73484,3.81361 -1.10394,7.31061 -0.82031,7.76953 0.28363,0.45894 -0.35973,2.28894 -1.42969,4.06641 -1.06997,1.77747 -1.73475,3.80803 -1.47656,4.51367 0.25819,0.70564 0.13456,2.05564 -0.27539,3 -0.40996,0.94436 -0.85958,2.1668 -1,2.7168 -0.14043,0.55 -0.78868,3.025 -1.43945,5.5 -0.65076,2.475 -1.52922,7.25072 -1.95118,10.61328 -0.42196,3.36255 -1.15217,6.73812 -1.62304,7.5 -0.47087,0.76188 -1.18383,3.86116 -1.58399,6.88672 -0.40017,3.02557 -1.05058,6.85 -1.44726,8.5 -0.39669,1.65 -0.66104,4.32376 -0.58594,5.94141 0.12805,2.75995 -1.81244,9.76839 -3.71875,13.42773 -0.76339,1.4654 -1.34383,5.08025 -2.60156,16.19336 -1.06441,9.40492 -12.66365,35.50075 -23.67969,53.27344 -4.37553,7.05922 -8.84554,14.70922 -9.93164,17 -1.0861,2.29077 -2.88079,5.90164 -3.98828,8.02539 -1.1075,2.12374 -2.27782,6.09852 -2.60156,8.83203 -0.45272,3.82246 -1.07352,5.15107 -2.68946,5.75586 -2.39092,0.89485 -15.58481,2.54056 -17.10156,2.13281 -0.55,-0.14786 -12.19972,-0.46504 -25.88867,-0.70312 -13.68895,-0.23808 -25.37947,-0.73524 -25.97852,-1.10547 -0.59906,-0.37024 -7.62433,-1.02008 -15.61133,-1.44336 C 372.03449,854.4068 364.375,853.87756 363,853.65234 c -10.19281,-1.66954 -40.83588,-2.97903 -64,-2.73437 -5.225,0.0552 -14.45,-0.10447 -20.5,-0.35352 -37.40957,-1.53996 -42.09571,-1.56345 -47.61523,-0.23828 -4.13287,0.99225 -7.43307,1.10661 -12.5,0.43164 -3.78651,-0.5044 -7.44727,-0.89659 -8.13477,-0.87109 -0.6875,0.0254 -2.9375,-0.003 -5,-0.0644 -24.62718,-0.72942 -49.24308,0.38513 -70.25,3.17968 -4.125,0.54875 -18.075,1.22498 -31,1.50196 -25.347857,0.54319 -32.503225,1.28579 -36.296875,3.77148 -2.180518,1.42873 -2.600523,3.00541 -1.830078,6.86523 0.321928,1.61285 42.505483,2.41639 66.626953,1.26954 3.3,-0.1569 10.725,-0.50874 16.5,-0.78125 11.62293,-0.54845 24.46547,-2.19403 30.30859,-3.88477 2.76508,-0.80052 4.6836,-0.80256 7,-0.008 2.95456,1.01443 14.40957,0.92146 24.3125,-0.19727 2.26613,-0.256 4.44016,-0.14414 4.83203,0.24805 1.38474,1.38581 12.81692,1.08543 14.27735,-0.375 1.14441,-1.14441 6.45262,-1.34201 29.33398,-1.09766 16.73452,0.1787 27.93555,-0.0747 27.93555,-0.63086 0,-0.53718 0.52671,-0.5097 1.25,0.0645 3.42078,2.71488 14.11122,3.35586 59.75,3.58789 29.22221,0.14857 39.26222,0.51347 41.66016,1.51367 2.28726,0.95403 3.69872,1.02867 5.11718,0.26953 1.07758,-0.5767 2.23586,-0.77392 2.57227,-0.4375 0.68308,0.68307 6.01847,1.02983 28.65039,1.86133 21.09835,0.77521 32.91073,0.78304 64.42969,0.043 16.14112,-0.37904 29.9622,-0.23311 34.5,0.36523 4.16389,0.54904 11.84531,1.28318 17.07031,1.63086 5.225,0.34768 9.64983,0.77238 9.83398,0.94336 0.99728,0.92598 88.97136,-0.39917 91.41602,-1.37695 2.81931,-1.12764 3.73542,-3.09308 1.5,-3.21875 -0.6875,-0.0387 -4.4,-0.34812 -8.25,-0.6875 -3.85,-0.33939 -11.5,-0.59326 -17,-0.56446 -44.44948,0.23243 -67.59896,0.18012 -71,-0.16015 -2.2,-0.22011 -11.2,-0.65657 -20,-0.96875 -18.4946,-0.6561 -24.5,-1.29638 -24.5,-2.61133 0,-0.5163 1.4625,-0.98251 3.25,-1.03711 1.7875,-0.0546 6.625,-0.3921 10.75,-0.75 10.29805,-0.89349 64.42789,-0.7271 81.28516,0.25 7.58138,0.43945 17.03138,0.72487 21,0.63477 15.30245,-0.34747 28.39798,-0.9884 32.71484,-1.60157 5.84583,-0.83035 24.03564,-1.83952 52,-2.88476 6.875,-0.25696 14.525,-0.72202 17,-1.03321 10.37087,-1.3038 41.34869,-2.62419 57.5,-2.45117 26.70357,0.28607 85.58792,-0.47443 88,-1.13672 0.55,-0.15101 3.593,0.0812 6.76172,0.51563 3.62317,0.49677 6.77769,0.3931 8.5,-0.27734 5.94509,-2.31422 53.73966,-3.40064 82.73828,-1.88086 8.25,0.43237 20.625,1.00533 27.5,1.27343 20.0447,0.78164 45.3492,3.4821 50.3125,5.36914 1.4946,0.56822 5.6098,0.88635 9.1445,0.70704 3.5346,-0.1793 6.9767,0.0153 7.6504,0.43164 0.6737,0.41675 2.1627,0.41388 3.3086,-0.006 1.882,-0.68867 11.5484,-0.0985 23.584,1.4375 2.475,0.31585 7.875,0.97267 12,1.46093 4.125,0.48827 11.1,1.36512 15.5,1.94727 4.4,0.58215 9.8,1.27568 12,1.54102 2.2,0.26534 17.3875,0.69512 33.75,0.95703 l 29.75,0.47656 v -4.24805 c 0,-3.9651 -0.2555,-4.35977 -3.8359,-5.93945 -4.7609,-2.10072 -4.9739,-2.09891 -4.8028,0.0566 0.1486,1.87162 0.7294,1.83633 -14.3613,0.84961 -19.7947,-1.29429 -27.3754,-1.6284 -46,-2.02734 -11.275,-0.24151 -22.75,-0.72278 -25.5,-1.07032 -2.75,-0.34754 -6.575,-0.59262 -8.5,-0.54492 -3.2903,0.0816 -25.3393,-1.47802 -34.7891,-2.46094 -2.3593,-0.24541 -8.2093,-1.18921 -13,-2.09765 -4.7907,-0.90844 -14.3873,-1.75481 -21.3242,-1.88086 -6.937,-0.12605 -13.0684,-0.51225 -13.6269,-0.85742 -0.5585,-0.34518 -5.23416,-0.8641 -10.38871,-1.1543 -5.15455,-0.2902 -10.94609,-0.74524 -12.87109,-1.00977 -1.925,-0.26453 -8.9,-0.7166 -15.5,-1.00586 -6.6,-0.28926 -15.15,-0.71501 -19,-0.94531 -3.85,-0.2303 -9.025,-0.0391 -11.5,0.42578 -2.475,0.46485 -28.125,1.16221 -57,1.54883 -72.78136,0.97452 -88.81475,1.33725 -128.5,2.9043 -6.6,0.26062 -16.01255,1.17434 -20.91797,2.03125 -4.90542,0.85691 -17.95542,1.80299 -29,2.10156 -11.04458,0.29857 -27.95703,0.93233 -37.58203,1.4082 -17.62529,0.87143 -36.51991,1.24904 -60.5,1.21094 -40.46262,-0.0642 -44.80534,-0.18408 -46.125,-1.2793 -1.93881,-1.60908 -1.71354,-4.53978 0.81836,-10.64843 1.83125,-4.41822 2.01316,-5.82383 1.09961,-8.51953 -1.20771,-3.56373 -0.84308,-13.48866 0.78125,-21.22852 0.57713,-2.75 1.25629,-6.4977 1.50781,-8.32812 0.25152,-1.83044 1.10034,-4.86794 1.88672,-6.75 0.78638,-1.88207 1.2116,-3.42188 0.94531,-3.42188 -0.26629,0 0.0136,-0.9293 0.6211,-2.06445 0.78272,-1.46261 0.7934,-2.43664 0.0391,-3.34571 -0.76705,-0.92423 -0.49456,-3.21389 0.97266,-8.1875 3.49108,-11.83423 3.44668,-11.78754 10.95312,-11.55468 5.60819,0.17398 7.20602,-0.207 11.64648,-2.78321 4.87517,-2.82841 5.28718,-3.39729 7.81836,-10.77539 2.79678,-8.15225 5.59938,-17.73316 5.93555,-20.28906 0.10851,-0.825 0.701,-3.3 1.31641,-5.5 1.37759,-4.92465 3.93503,-17.51531 4.72851,-23.2832 0.32404,-2.35546 2.21716,-7.75546 4.20703,-12 1.98987,-4.24453 5.29747,-12.56489 7.34961,-18.49024 2.05214,-5.92535 4.46467,-11.58516 5.36328,-12.57812 0.89862,-0.99296 1.63477,-2.5026 1.63477,-3.35352 0,-0.85093 1.9557,-7.11416 4.3457,-13.91992 2.39,-6.80577 5.13434,-14.625 6.09961,-17.375 3.66369,-10.43752 9.56236,-21.46739 16.04102,-30 1.67042,-2.2 3.88111,-5.575 4.91406,-7.5 1.03296,-1.925 3.1201,-4.85 4.63867,-6.5 1.51858,-1.65 3.59406,-4.38545 4.61133,-6.07812 2.65818,-4.42305 11.1432,-15.09995 16.09961,-20.25977 2.3375,-2.43344 4.25,-4.7397 4.25,-5.125 0,-0.38531 3.39214,-4.26431 7.53906,-8.61914 4.14692,-4.35483 9.40577,-10.61797 11.68555,-13.91797 5.70886,-8.2636 10.81567,-14.29436 13.71484,-16.19531 1.34195,-0.87991 6.06695,-2.22891 10.5,-2.99805 4.43305,-0.76914 11.88555,-2.53889 16.56055,-3.93359 4.675,-1.39469 10.75,-3.20783 13.5,-4.0293 2.75,-0.82147 7.7,-2.75327 11,-4.29297 3.3,-1.5397 7.89939,-3.11833 10.2207,-3.50781 2.32131,-0.38948 5.31777,-1.57061 6.65821,-2.625 1.34044,-1.0544 3.04104,-1.92364 3.77929,-1.93164 0.73825,-0.008 3.31193,-0.70088 5.71875,-1.53906 3.96907,-1.38222 4.8383,-1.3695 9.36133,0.13281 2.74274,0.91099 6.17457,2.27445 7.625,3.03125 1.45044,0.75679 3.36719,1.37981 4.25977,1.38281 0.89259,0.003 3.68174,0.91765 6.19922,2.03125 2.51749,1.1136 7.17858,2.50416 10.35742,3.0918 3.17883,0.58764 6.95359,1.67586 8.38867,2.41797 5.19502,2.68645 20.73266,5.85248 34.43164,7.01562 3.85,0.3269 9.85341,1.28371 13.33984,2.12695 6.85207,1.65728 6.45533,1.60051 22.66016,3.31055 9.40761,0.99275 33.90358,2.09603 45.5,2.04883 10.82257,-0.0441 30.15727,-2.36916 37,-4.44922 2.475,-0.75235 7.0754,-2.13077 10.2227,-3.0625 3.1474,-0.93173 6.8188,-2.55579 8.1582,-3.60937 1.3394,-1.05357 2.7959,-1.91602 3.2382,-1.91602 1.5908,0 19.2145,-9.0952 20.4063,-10.53125 0.6704,-0.80786 1.5817,-1.46875 2.0254,-1.46875 1.4412,0 12.3724,-7.70689 15.25,-10.75195 1.9187,-2.03033 3.4353,-5.44807 4.8183,-10.85547 1.1102,-4.3409 2.4628,-9.46758 3.0059,-11.39258 2.0092,-7.12287 2.7449,-10.40309 2.5625,-11.4375 -0.103,-0.58386 0.9375,-1.18606 2.3125,-1.33594 1.7154,-0.18697 3.6953,0.83304 6.3066,3.25 2.0931,1.93738 4.3859,3.52344 5.0957,3.52344 1.6769,0 9.3947,8.34259 12.5977,13.61719 9.7936,16.12776 14.449,21.78267 20.1172,24.4375 4.2095,1.97162 5.1341,2.08326 7.8672,0.95117 4.7806,-1.98019 8.0133,-4.93039 8.0293,-7.32813 0.01,-1.19758 0.6751,-4.0695 1.4804,-6.38085 1.0094,-2.89725 1.4917,-8.79837 1.5547,-19 0.1256,-20.33887 -0.3188,-22.44504 -8.7109,-41.29688 -0.8569,-1.925 -1.9691,-4.175 -2.4727,-5 -0.5035,-0.825 -2.063,-3.75 -3.4648,-6.5 -1.4018,-2.75 -5.2236,-8.825 -8.4922,-13.5 -3.2687,-4.675 -7.472,-10.81379 -9.3418,-13.64062 -1.8698,-2.82683 -3.8888,-5.44047 -4.4844,-5.8086 -1.8075,-1.11706 -1.2293,-5.40192 0.8809,-6.53125 1.519,-0.81293 1.943,-2.04459 1.875,-5.44531 -0.078,-3.87262 -0.6566,-4.95591 -4.8691,-9.10547 -4.2274,-4.16351 -5.1695,-4.64902 -8.125,-4.18359 -3.9502,0.62197 -16.0172,4.82281 -20.4903,7.13281 -1.7302,0.89353 -5.1052,1.8327 -7.5,2.08789 -2.3947,0.25518 -5.4785,0.72221 -6.8535,1.03711 -1.375,0.31489 -5.2,0.73671 -8.5,0.9375 -3.3,0.20078 -7.2754,0.85285 -8.834,1.44922 -1.5587,0.59639 -3.1727,0.87381 -3.5879,0.61719 -0.4152,-0.25665 -0.1774,-3.27196 0.5293,-6.70118 1.0748,-5.21585 1.0474,-7.47036 -0.1621,-13.79101 -0.7951,-4.15559 -1.4452,-9.67571 -1.4453,-12.26758 -10e-5,-2.59187 -0.8578,-7.09187 -1.9062,-10 -1.049,-2.90813 -2.4583,-7.76211 -3.1309,-10.78711 -0.6726,-3.025 -1.8286,-6.625 -2.5703,-8 -1.1798,-2.18718 -4.5758,-11.22959 -6.086,-16.20703 -0.285,-0.93938 0.4298,-2.91443 1.5879,-4.38672 1.1581,-1.47229 2.1055,-3.28261 2.1055,-4.02344 0,-0.74082 1.4625,-2.90763 3.25,-4.8164 3.9247,-4.19094 6.6167,-7.89366 9.1348,-12.56641 1.0374,-1.925 3.9618,-6.19588 6.5,-9.49023 2.5383,-3.29435 5.6661,-7.56935 6.9511,-9.5 1.2849,-1.93065 2.8599,-3.95977 3.5,-4.50977 0.64,-0.55 2.3897,-2.8 3.8868,-5 1.4972,-2.2 5.449,-6.7 8.7832,-10 3.3341,-3.3 9.0836,-9.09983 12.7773,-12.88867 14.4804,-14.85321 16.4843,-16.72776 21.5137,-20.12695 7.9982,-5.40577 12.1825,-8.53692 12.4199,-9.29493 0.4472,-1.42793 -5.2273,-4.57538 -7.8828,-4.37304 -1.5209,0.1159 -4.2422,1.05592 -6.0488,2.08984 -1.8066,1.03392 -5.5352,2.19287 -8.2852,2.57422 -2.75,0.38135 -6.35,1.25829 -8,1.94922 -11.1016,4.64876 -14.4538,5.92105 -18,6.83593 -2.2,0.5676 -5.8924,1.85799 -8.2051,2.86719 -3.6413,1.58895 -13.4382,3.46554 -19.7949,3.79102 -1.1,0.0563 -6.275,0.32182 -11.5,0.58984 -5.225,0.26801 -13.325,1.1125 -18,1.87695 -6.85948,1.12167 -8.7895,1.14477 -10,0.125 -1.65324,-1.39276 -9.03922,-4.05302 -10.29102,-3.70703 -0.43478,0.12017 -1.78478,-0.31698 -3,-0.9707 -1.21522,-0.65373 -4.00898,-1.56714 -6.20898,-2.03125 -2.2,-0.46412 -4.45,-0.98311 -5,-1.15234 -0.55,-0.16924 -3.025,-0.91232 -5.5,-1.65039 -2.475,-0.73808 -4.92672,-1.7146 -5.44922,-2.17188 -0.5225,-0.45728 -2.42046,-0.83203 -4.2168,-0.83203 -1.79634,0 -4.74462,-0.62896 -6.55078,-1.39844 -7.40356,-3.15415 -11.44435,-4.73242 -12.82422,-5.00781 -1.50649,-0.30065 -3.78161,-1.0864 -7.75586,-2.67578 -1.26337,-0.50526 -3.51337,-0.93363 -5,-0.95313 -1.48667,-0.019 -3.82812,-0.67882 -5.20312,-1.46484 -1.375,-0.78602 -3.55471,-1.44534 -4.84375,-1.46484 -1.28903,-0.0195 -6.68903,-1.34093 -12,-2.9375 -5.31096,-1.59658 -12.58125,-3.43405 -16.15625,-4.08204 -3.575,-0.64796 -8.525,-1.6459 -11,-2.21874 -2.475,-0.57288 -6.07955,-1.14849 -8.00977,-1.27735 -7.16819,-0.47852 -18.23299,-7.39858 -22.69335,-14.19336 -1.24272,-1.89311 -1.23028,-2.55535 0.10156,-5.13086 0.84112,-1.62655 3.34673,-4.84797 5.5664,-7.1582 2.21967,-2.31024 4.03516,-4.54715 4.03516,-4.9707 0,-0.73769 0.95017,-1.84887 10.3418,-12.10938 2.28732,-2.49893 7.7582,-8.5648 12.1582,-13.478514 4.4,-4.913723 9.2375,-10.136914 10.75,-11.607422 C 882.76246,85.400837 884,83.883669 884,83.5 c 0,-0.383669 1.2375,-1.898584 2.75,-3.367188 3.75696,-3.647925 13.36935,-17.735882 15.44336,-22.632812 2.5988,-6.136037 2.31588,-8.127269 -1.3418,-9.402344 C 894.75759,45.973289 890.84823,46.540607 871,52.431641 861.90375,55.131444 857.28745,57.725392 855.45898,61.164062 854.4836,62.99839 852.61664,66.525 851.31055,69 c -1.30609,2.475 -3.96755,7.353498 -5.91407,10.841797 -1.94652,3.488299 -3.28944,6.994041 -2.98437,7.789062 0.30508,0.795021 -0.0815,1.689798 -0.85938,1.988282 C 840.33447,90.08663 833,101.25143 833,102.63867 c 0,0.27228 -1.125,1.96877 -2.5,3.77149 -1.375,1.80272 -2.5,3.81293 -2.5,4.46679 0,0.65387 -1.10296,3.36679 -2.45117,6.02735 -2.76946,5.46528 -5.56899,6.83443 -8.14649,3.98632 C 816.46085,119.8503 815.10001,119 814.37891,119 c -0.7211,0 -3.01455,-0.72541 -5.09571,-1.61133 -2.08116,-0.88592 -5.1332,-2.18036 -6.7832,-2.87695 -4.74271,-2.00227 -17.31364,-4.43437 -25.5,-4.9336 -12.85967,-0.78421 -22.60998,-2.97351 -28.95898,-6.5039 -1.35191,-0.75173 -3.15191,-1.4418 -4,-1.5332 -7.06221,-0.76076 -17.65347,-5.180773 -22.29883,-9.304692 -1.93401,-1.71692 -5.03417,-3.603737 -8.49024,-5.167969 -1.23622,-0.559515 -5.09526,-3.616367 -8.57617,-6.792968 C 701.19487,77.09879 693.94787,70.675 688.57227,66 c -5.37561,-4.675 -11.1896,-9.78133 -12.92188,-11.347656 -1.73227,-1.566326 -5.62625,-4.491326 -8.65234,-6.5 -3.02609,-2.008674 -7.07609,-4.816411 -9,-6.240235 -4.69973,-3.478112 -14.75818,-6.947767 -24.59961,-8.484375 -2.1438,-0.334726 -4.6362,-1.267745 -5.53906,-2.074218 -1.55224,-1.3865 -5.89284,-2.081581 -27.31055,-4.369141 -4.36912,-0.466652 -8.9109,-0.714507 -13.57617,-0.746094 z m 1.00976,9.4375 c 19.78019,0.14648 31.27155,1.435606 33.62696,3.791016 2.4234,2.423401 4.39004,3.232729 13.12304,5.40625 4.48502,1.116257 9.8673,3.077775 11.96094,4.357422 2.09363,1.279647 5.53951,3.214419 7.6582,4.298828 2.11869,1.084408 4.60277,2.912347 5.51953,4.0625 0.91676,1.150154 2.74548,2.669101 4.06446,3.375 1.31899,0.7059 4.76499,3.139257 7.6582,5.408203 2.89321,2.268947 8.38443,6.564608 12.20117,9.546875 3.81673,2.982266 7.43892,6.22339 8.05078,7.203125 1.39201,2.228956 -0.179,3.383298 -1.85547,1.363281 C 689.31057,83.669336 687.85875,83 686.76367,83 c -1.70169,0 -1.90493,0.472341 -1.39648,3.25 0.32719,1.7875 0.86365,5.725 1.1914,8.75 0.32776,3.025 1.00061,6.4 1.4961,7.5 1.31628,2.92212 3.94531,20.64408 3.94531,26.59766 0,5.10941 -0.005,5.11858 -2.75,4.33007 -4.43581,-1.27433 -9.78352,-1.09637 -9.50195,0.31641 0.13631,0.68392 0.42489,3.74457 0.64257,6.80274 0.24258,3.40692 1.06957,6.30363 2.13282,7.47851 1.51008,1.66862 1.57998,2.47182 0.54492,6.19531 -2.93014,10.5408 -3.19606,12.15562 -5.07422,30.7793 -0.5824,5.775 -1.50253,13.31064 -2.04492,16.74609 -0.54239,3.43546 -0.89971,9.56811 -0.79492,13.62696 0.15144,5.86607 -0.22904,8.08732 -1.84961,10.83398 -1.1213,1.90048 -2.5936,5.13543 -3.27149,7.18945 -0.67788,2.05401 -2.64995,5.2178 -4.38281,7.0293 -1.73287,1.8115 -6.52539,7.23718 -10.65039,12.05664 -4.125,4.81946 -9.18514,10.00692 -11.24414,11.52735 -2.059,1.52042 -5.659,4.39259 -8,6.38281 -9.32662,7.92908 -9.31031,7.91913 -32.56836,20.57031 -1.47831,0.80413 -6.2875,1.76928 -10.6875,2.14649 -4.4,0.3772 -8.69901,0.97203 -9.55273,1.32031 -0.85373,0.34828 -1.75373,0.43489 -2,0.19336 -0.24628,-0.24153 -6.1192,-0.67273 -13.05079,-0.95899 -6.9316,-0.28627 -16.8316,-1.21689 -22,-2.06836 -5.16841,-0.85146 -11.19648,-1.75049 -13.39648,-1.99609 -2.2,-0.24559 -5.8,-1.13542 -8,-1.97852 -2.2,-0.84311 -5.125,-1.55673 -6.5,-1.58593 -1.375,-0.0292 -4.75,-1.16091 -7.5,-2.51368 -2.75,-1.35277 -5.95058,-2.47303 -7.11133,-2.49023 -1.16075,-0.0172 -3.7668,-1.15625 -5.79297,-2.53125 -2.02618,-1.375 -4.07138,-2.5 -4.54492,-2.5 -0.91721,0 -7.90225,-5.32181 -12.04687,-9.17773 -1.37328,-1.27763 -4.07328,-3.48237 -6,-4.90039 -8.40213,-6.18379 -18.87504,-23.95533 -19.42579,-32.96485 -0.18349,-3.00182 -0.86814,-7.70703 -1.52148,-10.45703 -1.96004,-8.24997 -1.58478,-20.05232 1.20508,-37.93945 1.22676,-7.86538 1.26794,-7.94373 4.40625,-8.29688 2.48766,-0.27994 3.30671,0.0819 3.81445,1.68164 0.35563,1.12048 0.403,2.4307 0.10547,2.91211 -0.29753,0.48142 0.37303,1.70184 1.49023,2.71289 1.32099,1.19548 1.96225,2.90429 1.83204,4.88477 -0.4805,7.30829 1.45954,11.19692 5.02148,10.0664 1.68946,-0.53621 2.06073,-1.4402 1.98633,-4.83984 -0.0503,-2.29967 0.0316,-5.30664 0.18359,-6.68164 0.15204,-1.375 -0.0749,-3.99197 -0.50586,-5.81641 -0.56349,-2.38552 -0.37409,-3.7898 0.67578,-5 0.80295,-0.92556 1.75394,-2.92109 2.11329,-4.43359 0.69454,-2.92332 2.46198,-3.43666 5.75585,-1.67383 1.12242,0.6007 3.68478,0.79176 5.80469,0.4336 4.04284,-0.68303 6.05469,-3.3494 6.05469,-8.02149 0,-3.27315 3.08966,-4.74776 8.31055,-3.96484 4.65678,0.69832 6.77243,-0.72735 8.19336,-5.52344 0.92643,-3.12702 2.06409,-4.55603 5.67187,-7.125 l 2.85352,-2.0332 1.37695,3.27148 c 0.75661,1.79944 1.26797,4.19866 1.13672,5.33008 -0.32967,2.84211 -4.34578,15.81621 -7.13672,23.05664 -4.22973,10.97301 -4.54701,23.30269 -0.75,29.09766 0.8306,1.26766 1.25058,3.12233 0.93359,4.12109 -0.44423,1.39962 0.3406,2.21308 3.42383,3.54883 C 522.9133,210.39026 524,210.43194 524,208.5 c 0,-0.825 -0.45,-1.5 -1,-1.5 -0.55,0 -1,-0.48129 -1,-1.06836 0,-0.58709 0.80387,-0.81012 1.78711,-0.49805 2.55458,0.81079 18.28652,-5.92908 20.96289,-8.98047 2.86812,-3.27 2.97102,-7.99731 0.20703,-9.47656 -1.73863,-0.93048 -2.51908,-0.58594 -5.25,2.3125 -1.76428,1.87251 -4.01571,4.59933 -5.00391,6.0586 -1.12977,1.6684 -2.71245,2.65234 -4.26367,2.65234 -1.35679,0 -3.36668,0.56297 -4.46679,1.25 -1.75431,1.09558 -2.30214,0.88044 -4.45118,-1.75 -3.49594,-4.27907 -3.156,-9.46242 1.9336,-29.5 0.76836,-3.025 1.87478,-9.1 2.45898,-13.5 0.58421,-4.4 1.30577,-9.777 1.60156,-11.94922 0.60375,-4.43358 -1.40273,-7.87074 -11.125,-19.0664 -4.90406,-5.64732 -5.765,-6.18771 -14.05664,-8.79883 -4.85825,-1.52991 -11.42641,-3.64342 -14.5957,-4.69727 -3.16929,-1.05384 -6.35975,-1.68641 -7.08984,-1.40625 -0.73009,0.28016 -1.92522,-0.21096 -2.65625,-1.0918 -2.2292,-2.68602 0.0727,-14.215847 3.89062,-19.486324 C 483.5977,85.636573 485,83.258043 485,82.71875 c 0,-1.035075 5.87301,-9.545069 9.41016,-13.636719 8.21729,-9.505469 13.04487,-13.005635 28.30859,-20.521484 C 547.02294,36.593171 549.95658,35.921623 579,35.683594 c 3.16157,-0.02591 6.15668,-0.02877 8.98242,-0.0078 z m 301.91602,19.361328 c 1.55281,-0.0476 3.05676,0.405485 3.43554,1.392579 0.65767,1.713875 -3.13971,7.134946 -10.62695,15.166015 -3.02769,3.24761 -7.12496,7.655489 -9.10547,9.794922 -1.98051,2.139434 -3.60154,4.389434 -3.60156,5 -2e-5,0.610567 -1.57502,2.366396 -3.5,3.902344 -1.92498,1.535947 -3.5,3.223266 -3.5,3.75 C 863,95.409084 848.9668,113 847.87695,113 c -1.35881,0 -4.9512,6.31286 -4.41015,7.75 0.25882,0.6875 -0.17955,1.25 -0.97461,1.25 -0.79506,0 -2.21171,1.2375 -3.14844,2.75 -0.93673,1.5125 -2.9464,4.1 -4.46484,5.75 -3.14171,3.41391 -6.2406,7.58687 -11.50977,15.5 -2.01428,3.025 -5.62115,7.82244 -8.01562,10.66016 -2.39448,2.83772 -4.35352,5.43833 -4.35352,5.77929 0,0.86521 -7.15643,10.31053 -11.16797,14.74024 -1.83271,2.02375 -3.66953,3.7113 -4.08203,3.75 -1.5236,0.14314 -0.65039,-4.54067 1.51562,-8.12696 5.51798,-9.13613 28.76094,-43.58199 31.11719,-46.11523 1.43898,-1.54707 2.61719,-3.31225 2.61719,-3.92188 0,-0.60962 0.64472,-1.81992 1.43164,-2.68945 0.78692,-0.86953 2.03558,-2.70435 2.77539,-4.07812 2.40102,-4.45853 13.01118,-20.469734 14.24609,-21.49805 0.6605,-0.55 1.76241,-3.25 2.44922,-6 0.68681,-2.75 2.05998,-6.35 3.05078,-8 0.99082,-1.65 2.55719,-5.333179 3.48243,-8.185547 1.74851,-5.390374 5.22616,-8.444169 11.35742,-9.972656 1.4887,-0.371123 4.61195,-1.685416 6.93945,-2.919922 2.47852,-1.314612 5.1189,-2.012072 6.375,-1.683594 1.3942,0.364591 2.46819,-0.01545 3.06836,-1.08789 0.56866,-1.01614 2.16984,-1.565677 3.72266,-1.613282 z m -312.07227,0.53711 c -3.59068,0.102096 -6.29629,4.215931 -7.23437,11.375 -0.39267,2.99674 -1.3191,6.59674 -2.06055,8 -0.74146,1.40326 -2.50889,5.13669 -3.92578,8.296875 -2.37275,5.29207 -10.72726,16.797556 -12.77735,17.595706 -0.48257,0.18789 -1.57022,1.98789 -2.41601,4 -1.52529,3.62859 -1.51238,3.67826 1.51172,6.21875 1.67692,1.40875 3.5809,4.10875 4.23047,6 0.64958,1.89126 2.16082,5.01445 3.35937,6.93945 1.19854,1.925 2.70105,5.09256 3.33985,7.03906 0.65467,1.99484 2.36616,4.25094 3.92187,5.16992 2.72995,1.61262 17.60481,5.79102 20.61523,5.79102 1.82819,0 13.34286,5.21572 15.80665,7.16016 1.09157,0.86147 1.93465,3.52179 2.36328,7.45312 l 0.66601,6.11133 -3.63281,2.77148 c -2.57768,1.9661 -5.29594,2.9519 -9.35156,3.38868 -4.51916,0.48671 -5.79321,1.01 -6.07813,2.49609 -0.19826,1.0341 0.24666,2.25977 0.98828,2.72461 0.74161,0.46487 3.69299,0.68184 6.56055,0.48242 7.02414,-0.48849 12.19234,-4.59306 16.23242,-12.89453 2.74075,-5.63162 2.92051,-6.59952 1.98047,-10.66406 -0.56861,-2.45859 -1.89887,-5.86718 -2.95508,-7.57618 -2.43809,-3.94488 -10.33175,-8.2732 -16.61523,-9.10937 -2.67096,-0.35543 -5.21447,-1.25208 -5.6543,-1.99414 -0.43983,-0.74205 -1.45233,-1.34961 -2.25,-1.34961 -2.51225,0 -1.57944,-2.0254 1.75,-3.79688 C 593.38613,123.38027 604,111.39716 604,107.10742 c 0,-1.8292 -3.9504,-2.25658 -6.21289,-0.67187 -3.40657,2.38606 -4.82377,1.9519 -9.87109,-3.01953 l -4.6543,-4.582036 -4.93164,2.498046 C 573.27691,103.89266 571,107.06228 571,111.53516 c 0,1.93455 0.46559,2.39189 2.24609,2.20312 3.70748,-0.39308 3.57995,3.6777 -0.16406,5.22852 -2.79014,1.15572 -3.32319,1.01096 -6.99414,-1.89649 -3.75696,-2.97558 -3.96694,-3.42841 -3.85547,-8.32226 0.0825,-3.6237 0.81585,-6.20331 2.44336,-8.60157 C 565.95428,98.262526 567,96.163327 567,95.482422 c 0,-0.680905 0.6305,-1.759484 1.40039,-2.398438 0.76989,-0.638953 2.42094,-3.732156 3.66992,-6.873046 1.24897,-3.140896 3.02834,-6.835938 3.95508,-8.210938 0.92674,-1.375 1.96334,-4.302662 2.30273,-6.505859 0.33943,-2.203196 1.52956,-5.893437 2.64454,-8.201172 2.58182,-5.34375 2.55362,-5.73205 -0.5293,-7.136719 -0.91209,-0.415575 -1.78857,-0.605592 -2.61719,-0.582031 z m 47.19922,16.054687 -2.5293,2.375 c -6.60419,6.204312 -10.57333,19.027106 -6.84765,22.119141 0.7317,0.60728 1.08266,1.502553 0.78125,1.990234 C 616.12826,98.600962 616.16008,99.45 616.5,100 c 1.04244,1.6867 2.88448,1.13293 6.70898,-2.019531 2.80735,-2.314056 4.16182,-4.599263 5.79297,-9.767578 2.57845,-8.16988 2.23841,-11.945564 -1.3164,-14.59961 z m 69.68359,14.439453 c 1.00279,0.09138 5.38469,4.802463 10.14063,10.951172 2.25615,2.916856 2.28615,3.172979 0.75,6.410159 -0.88008,1.85463 -1.59961,3.66683 -1.59961,4.02539 0,0.35856 -1.10822,2.28174 -2.46289,4.27539 -2.00288,2.94751 -2.58316,3.31148 -3.10742,1.94531 -0.35464,-0.92406 -0.37609,-2.75454 -0.0469,-4.0664 0.63436,-2.52752 -0.16659,-7.3708 -2.8125,-17.001958 -0.89032,-3.24077 -1.34756,-6.164162 -1.01562,-6.496094 0.0359,-0.03592 0.0874,-0.04906 0.15429,-0.04297 z m 22.05664,12.404297 c 0.86537,0.03046 2.04748,0.880059 4.50586,2.894534 2.43869,1.99832 4.83869,3.63372 5.33204,3.63672 0.49336,0.003 2.62199,1.5909 4.73046,3.52734 4.20112,3.85836 4.22989,4.19233 1.48829,16.96875 -1.72518,8.03973 -9.13262,29.88181 -10.85743,32.01562 -1.99322,2.46586 -15.05562,44.59496 -16.48242,53.15821 -0.35062,2.10434 -0.9059,4.50117 -1.23242,5.32617 -0.32653,0.825 -0.6981,2.4 -0.82617,3.5 -1.17897,10.12588 -1.79369,14.53404 -3.41406,24.5 -1.02838,6.325 -2.29479,14.2 -2.81446,17.5 -1.55086,9.84826 -4.86974,19.81799 -7.23633,21.73438 -3.83261,3.10345 -6.47409,1.25511 -2.92773,-2.04883 1.9936,-1.85732 2.0049,-2.00486 0.28906,-3.72071 -1.33952,-1.33951 -1.85497,-3.68832 -2.0625,-9.37695 -0.15225,-4.17368 -0.53003,-8.26289 -0.83984,-9.08789 -0.30981,-0.825 -0.7815,-4.875 -1.04688,-9 -0.26537,-4.125 -0.85156,-8.64427 -1.30273,-10.04297 -1.48649,-4.60829 -1.22436,-24.32924 0.45898,-34.55273 0.89691,-5.44728 1.74989,-10.84744 1.89649,-12 0.14661,-1.15256 0.56936,-2.58207 0.9375,-3.17774 0.36815,-0.59568 0.8632,-3.70252 1.10156,-6.90429 0.23836,-3.20177 1.58288,-9.32402 2.98633,-13.60352 1.40344,-4.27949 2.55078,-8.64086 2.55078,-9.69141 0,-1.05055 0.39164,-2.15019 0.86914,-2.44531 0.47751,-0.29511 1.17633,-2.87038 1.55469,-5.72265 0.71563,-5.39466 3.01657,-11.47205 9.79101,-25.85938 2.20128,-4.675 4.84009,-10.3 5.86328,-12.5 1.02324,-2.2 2.29073,-5.97457 2.81641,-8.38867 0.52567,-2.41411 1.62751,-5.06306 2.44922,-5.884768 0.49701,-0.497011 0.90267,-0.772182 1.42187,-0.753906 z m 48.1543,18.314454 c 7.60429,-0.0129 16.51039,0.36019 17.48242,0.96094 0.55386,0.3423 2.37787,0.75531 4.05274,0.91601 9.4785,0.90943 22.37094,4.62388 26.02734,7.5 3.0597,2.40677 3.26553,6.32289 0.51758,9.83594 -1.07554,1.375 -1.96629,3.00679 -1.97852,3.62695 -0.0122,0.62015 -0.73169,1.7172 -1.5996,2.4375 -0.86794,0.7203 -2.62879,3.3635 -3.91211,5.87305 -1.28332,2.50954 -3.29216,5.57624 -4.46485,6.81641 -2.2664,2.39682 -3.41238,2.41033 -15.54492,0.17382 -6.63829,-1.2237 -16.69419,-1.54282 -18.25195,-0.58007 -1.849,1.14275 -1.51489,6.44529 0.78711,12.50195 2.97953,7.83925 3.15226,23.08146 0.30468,26.90625 -1.1238,1.50946 -3.2833,3.1858 -4.79687,3.72461 -2.39511,0.85262 -3.06125,0.61761 -5.14649,-1.80664 C 757.07873,194.14186 756,192.1944 756,191.3457 c 0,-1.67687 -1.56593,-5.45985 -6.21289,-15.00976 -3.54938,-7.29429 -8.42528,-12.53894 -9.7168,-10.44922 -0.92551,1.4975 0.79321,6.68515 5.83594,17.61328 9.45965,20.50005 9.36623,19.90696 4.02344,26.08008 -4.04316,4.6715 -7.92969,12.0504 -7.92969,15.05273 0,1.11627 1.15176,1.4135 4.82031,1.2461 5.61658,-0.25628 7.33566,0.51426 6.47071,2.90234 -1.2291,3.39349 -14.9485,16.48067 -22.79102,21.74023 -4.4,2.95084 -10.68083,7.64054 -13.95703,10.42188 -6.64421,5.64063 -8.03525,6.07865 -8.91211,2.80664 -0.88588,-3.30563 -0.75949,-7.75 0.2207,-7.75 0.46826,0 1.13664,-5.0625 1.48633,-11.25 0.3497,-6.1875 1.32438,-13.95 2.16406,-17.25 0.83968,-3.3 2.2047,-11.3151 3.03321,-17.81055 1.51695,-11.89262 5.22572,-24.77995 11.38867,-39.57617 1.69239,-4.06314 3.07617,-7.81875 3.07617,-8.3457 0,-0.52695 0.91891,-2.24954 2.04297,-3.82813 1.12406,-1.5786 2.71211,-5.11612 3.52734,-7.86133 0.81523,-2.74518 1.95172,-5.28291 2.52735,-5.63867 0.57563,-0.35576 2.57277,-3.99599 4.4375,-8.08789 1.86474,-4.0919 4.30739,-8.72545 5.42773,-10.29883 1.12034,-1.57337 2.03711,-3.7783 2.03711,-4.89843 0,-2.46061 0.64634,-2.90654 5.63281,-3.89063 1.63026,-0.32173 5.72454,-0.4688 10.28711,-0.47656 z m -282.02539,3.01172 c 2.02393,0.0308 4.1211,0.31593 6.40039,0.84765 3.34146,0.77951 6.77983,1.35024 7.64063,1.26954 4.13348,-0.38741 6.35345,0.43897 13.22656,4.92578 6.53728,4.26758 7.40269,5.18792 7.29101,7.75 -0.0879,2.01583 -0.71253,3.01525 -2.03906,3.25781 -1.05226,0.19241 -2.92656,1.28287 -4.16406,2.42383 -1.2375,1.14097 -2.25,1.78433 -2.25,1.42773 0,-0.3566 -2.29955,0.70656 -5.10938,2.36328 -2.80981,1.65672 -7.87229,3.62822 -11.25,4.38086 -13.58863,3.02794 -22.03518,5.76675 -23.10156,7.49219 -0.73657,1.19179 -2.85979,1.40974 -3.87304,0.39648 -1.216,-1.216 -0.67638,-13.79007 0.70507,-16.4375 0.74704,-1.43162 1.67541,-4.80662 2.06446,-7.5 1.18978,-8.23686 1.72161,-9.50382 4.4414,-10.59765 3.47393,-1.39712 6.64436,-2.0513 10.01758,-2 z M 831.76367,143 c 0.79736,0 7.58526,8.50199 9.95117,12.46484 0.66802,1.1189 1.2305,2.94266 1.25,4.05078 0.0195,1.10814 0.8943,3.61494 1.94336,5.57227 1.04907,1.95732 4.24215,10.05179 7.09766,17.98633 4.28649,11.91078 5.20835,15.64642 5.28125,21.42578 0.11414,9.04121 -2.44584,14.33609 -8.70117,18.00195 -2.42926,1.42364 -4.95904,3.24289 -5.62305,4.04297 -2.68258,3.23231 -3.96175,1.47349 -3.96875,-5.46094 -0.007,-6.56503 -1.26495,-11.7037 -4.55273,-18.58398 -1.3141,-2.75 -2.60989,-6.81287 -2.87891,-9.0293 -0.26902,-2.21643 -2.08013,-7.02967 -4.02539,-10.69531 C 825.59185,179.10975 824,175.40391 824,174.54102 c 0,-1.65627 -1.62823,-4.94551 -3.79883,-7.67383 -0.71488,-0.89856 -1.14643,-2.69856 -0.95703,-4 C 819.62711,160.23571 830.48833,143 831.76367,143 Z m -52.29687,18.74805 c 0.25258,-0.009 0.51666,-0.007 0.78906,0.006 7.96065,0.36702 12.95496,1.05652 13.80469,1.90625 0.55916,0.55916 -0.24662,3.05795 -2.05469,6.3789 -3.43368,6.30677 -5.11788,9.94804 -5.41016,11.68946 -0.1134,0.67567 -1.27332,2.36317 -2.57617,3.75 -4.53097,4.82299 -7.01953,2.26533 -7.01953,-7.2129 0,-3.22613 -0.3921,-6.2939 -0.87109,-6.8164 -1.71643,-1.87234 -2.00775,-5.95244 -0.56446,-7.89649 0.84985,-1.14471 2.13427,-1.74105 3.90235,-1.80468 z M 849.83594,162 l 2.33203,0.043 c 1.28236,0.024 4.35703,0.48459 6.83203,1.02344 2.475,0.53884 8.89424,1.64364 14.26562,2.45507 5.3714,0.81144 11.67143,1.95393 14,2.53907 2.32863,0.58513 6.25938,1.54048 8.73438,2.12304 2.475,0.58255 4.87318,1.70556 5.33008,2.49414 0.64333,1.11034 1.14903,1.16962 2.23828,0.26563 0.80503,-0.66812 2.15906,-0.84096 3.16797,-0.4043 2.25885,0.97763 2.60178,1.0767 9.76367,2.8418 3.3,0.81331 9.45488,2.86376 13.67773,4.55469 4.22285,1.69094 12.09785,4.21781 17.5,5.61718 5.40215,1.39937 10.72227,2.96899 11.82227,3.48829 3.34738,1.58025 10.5,3.8993 10.5,3.40429 0,-0.2559 2.3625,0.77712 5.25,2.29492 5.17589,2.72063 5.50793,2.75972 23.54688,2.76172 17.69362,0.002 29.26452,-0.58736 39.70312,-2.02343 2.75,-0.37832 6.35,-0.75194 8,-0.83204 1.65,-0.0801 7.725,-2.6146 13.5,-5.63086 9.0337,-4.71825 17.9421,-8.41276 18.623,-7.72265 0.7757,0.7861 -3.9833,4.85677 -5.832,4.98828 -3.701,0.2633 -7.5532,5.96536 -4.6777,6.92383 1.0891,0.36304 -1.5932,4.15603 -5.4102,7.65039 -0.9883,0.90476 -3.0133,2.95334 -4.5,4.55273 -1.4867,1.59938 -5.0656,5.15239 -7.9531,7.89649 -2.8875,2.74409 -5.25,5.43106 -5.25,5.9707 0,0.53964 -2.9145,4.07164 -6.4766,7.84766 -3.5621,3.77603 -7.3399,8.55524 -8.3964,10.62109 -1.0564,2.06586 -3.767,5.85076 -6.0235,8.41016 -2.2564,2.5594 -4.1035,5.06011 -4.1035,5.55859 0,0.49847 -1.9125,3.21843 -4.25,6.04297 -7.5959,9.17853 -14.675,19.12986 -16.19336,22.76367 -0.81683,1.95495 -2.79246,5.45043 -4.38867,7.76758 -1.59621,2.31716 -5.46315,8.35339 -8.59375,13.41406 -3.13059,5.06067 -6.56506,9.47946 -7.63281,9.81836 -1.84847,0.58668 -2.34515,1.58571 -2.04297,4.11328 0.30724,2.57 -32.24053,32.77211 -41.89844,38.87891 C 928.77159,358.44991 910.12836,368 908.66797,368 c -0.65936,0 -4.28016,1.8 -8.04492,4 -3.76476,2.2 -7.67887,4 -8.69922,4 -1.02035,0 -3.33447,0.64564 -5.14063,1.43359 -1.80616,0.78794 -9.3582,3.30236 -16.7832,5.58789 -7.425,2.28553 -15.975,5.21353 -19,6.50782 -3.26294,1.39609 -9.56738,2.82705 -15.5,3.51758 -5.5,0.64015 -11.14734,1.58287 -12.54883,2.0957 -1.4015,0.51283 -5.24396,1.13751 -8.53906,1.38672 -3.2951,0.24922 -8.22277,0.9269 -10.95117,1.50586 -2.72841,0.57897 -9.23594,1.2329 -14.46094,1.45312 -5.225,0.22022 -12.425,0.66738 -16,0.99414 -3.575,0.32677 -7.175,0.1846 -8,-0.31445 -0.825,-0.49905 -3.975,-1.20745 -7,-1.57617 -8.08259,-0.98518 -18.7559,-3.2588 -26.06836,-5.55078 -3.53744,-1.10876 -7.16983,-2.02035 -8.07226,-2.02735 -0.90243,-0.007 -3.60245,-0.90427 -6,-1.99219 -2.39756,-1.08792 -5.39414,-1.9879 -6.65821,-2 -1.26406,-0.0121 -4.16076,-0.92148 -6.4375,-2.02148 -2.27673,-1.1 -4.70545,-2 -5.39648,-2 -1.81425,0 -7.00134,-4.69386 -6.14063,-5.55664 0.39921,-0.40016 1.38927,-0.17773 2.20117,0.49609 0.81189,0.67381 2.39705,0.93368 3.52344,0.57617 1.55572,-0.49376 2.06574,-1.53654 2.11914,-4.33398 0.0725,-3.80117 1.72215,-9.2003 1.85938,-6.08594 0.0387,0.87726 0.9611,2.40057 2.05078,3.38672 2.59106,2.34488 4.09211,1.11422 7.02539,-5.76367 1.22408,-2.87018 2.38849,-5.39592 2.58594,-5.61133 0.19745,-0.21542 1.26942,0.68458 2.38281,2 1.95196,2.30615 2.0757,2.32652 3.4668,0.53125 0.79348,-1.02401 1.74384,-4.2697 2.11132,-7.21094 0.36749,-2.94123 1.22553,-6.10812 1.90625,-7.03906 1.1466,-1.56806 1.3949,-1.53479 3.38868,0.45899 3.58448,3.58448 7.35412,2.65626 8.51757,-2.09766 0.52661,-2.15175 1.26746,-2.7572 3.4043,-2.7832 4.18106,-0.0509 7.14431,-3.13496 7.76563,-8.08008 0.65904,-5.24529 0.98803,-5.64545 2.42578,-2.95899 1.51149,2.82425 4.55756,1.22975 5.36523,-2.80859 0.44476,-2.22383 1.03498,-2.83744 2.39258,-2.48242 2.35854,0.61677 7.21274,-4.44777 8.98242,-9.37305 0.7437,-2.06981 1.59868,-6.68867 1.90039,-10.26367 0.67637,-8.01454 -2.69027,-20.09203 -8.06836,-28.94531 -1.94351,-3.19936 -3.5332,-6.30546 -3.5332,-6.90235 0,-0.5969 -0.75629,-2.67279 -1.68164,-4.61328 l -1.68359,-3.52734 5.31835,-5.37305 c 2.92526,-2.95538 5.73524,-6.11797 6.24415,-7.02734 0.54057,-0.96592 1.41891,-1.33523 2.11328,-0.88867 1.82346,1.17269 9.86043,3.18292 12.91992,3.23242 2.06342,0.0333 2.88559,0.65722 3.36133,2.55273 0.37138,1.47967 1.56943,2.74504 2.91992,3.08399 2.49503,0.62621 14.38131,-2.08444 15.92969,-3.63282 0.52741,-0.52741 1.74038,-0.95898 2.69531,-0.95898 0.95494,0 4.57446,-2.475 8.04297,-5.5 3.46852,-3.025 6.5769,-5.5 6.9082,-5.5 1.61523,0 3.97305,4.13601 5.33203,9.35352 2.18389,8.38451 5.16748,12.83405 8.34766,12.45117 4.60277,-0.55417 6.31863,-4.39137 6.8789,-15.38672 0.5503,-10.79986 1.44406,-13.6823 4.7129,-15.17578 5.38373,-2.45974 13.94692,-10.70291 16.24609,-15.64063 2.663,-5.71909 3.23832,-16.8374 1.38281,-26.71484 -1.02255,-5.44331 -7.58671,-21.65033 -11.19336,-27.63672 z m -37.8125,8.27344 c 0.48115,0.0264 0.96661,0.31768 1.48633,0.85742 1.29402,1.34387 7.0877,11.36914 6.57031,11.36914 -0.37207,0 1.73649,5.2622 4.00781,10 2.26164,4.71764 2.61422,10.7068 0.58399,9.92773 -0.73082,-0.28045 -1.74316,0.41879 -2.25,1.55469 -0.84156,1.88597 -1.21575,1.61767 -4.29883,-3.0918 -1.8569,-2.83645 -4.43789,-7.86842 -5.73633,-11.18164 -1.29844,-3.31322 -3.04108,-6.77599 -3.87305,-7.69531 -1.91909,-2.12054 -1.90918,-3.91473 0.0488,-7.83984 1.36058,-2.72734 2.40241,-3.95839 3.46094,-3.90039 z m -187.72071,5.73828 c -1.21781,-0.0123 -23.01645,21.70761 -25.85742,25.76367 -1.13894,1.62607 -2.56738,2.22461 -5.30664,2.22461 -4.59904,0 -13.18386,4.1465 -16.88867,8.15625 -4.29935,4.65316 -7.49469,6.00325 -11.17383,4.7207 -3.20601,-1.11762 -3.89165,-0.9448 -14.57617,3.69922 -8.41909,3.65935 -11.93728,3.49455 -20.86523,-0.97656 -3.95403,-1.98018 -7.85195,-3.60723 -8.66211,-3.61523 -0.81015,-0.008 -3.27266,-0.66251 -5.47266,-1.45508 -4.13661,-1.49027 -12.14677,-1.98529 -14.91797,-0.92188 -0.86999,0.33384 -1.58203,1.63678 -1.58203,2.89649 0,2.16716 0.4439,2.31337 8.25,2.72265 6.97312,0.36561 9.4108,1.00323 15.75,4.11524 4.125,2.02503 9.525,4.93042 12,6.45703 4.00338,2.46933 6.24553,3.3322 16,6.1582 1.375,0.39831 3.84852,0.35538 5.49609,-0.0957 1.64757,-0.45106 4.45659,-0.41695 6.24219,0.0762 1.78561,0.49303 3.46428,0.54399 3.73047,0.11328 0.2662,-0.43071 1.62238,-0.5648 3.01367,-0.29883 1.39129,0.26596 3.16334,-0.043 3.9375,-0.68554 0.77416,-0.64249 2.68397,-1.37024 4.24414,-1.61719 C 589.63467,231.55438 593,230.66144 593,229.38086 c 0,-1.34938 8.35011,-11.33025 16.94336,-20.25391 5.46324,-5.67331 6.9575,-4.65519 5.31836,3.62305 -0.73262,3.7 -0.83246,7.58007 -0.2793,10.88281 1.09352,6.52905 -0.1312,11.97122 -3.4375,15.27539 -2.36109,2.35958 -3.31564,2.5918 -10.62695,2.5918 -7.28418,0 -8.19976,-0.22161 -9.82227,-2.37305 -1.76979,-2.34672 -1.81094,-2.35093 -3.69336,-0.43164 -2.32151,2.36697 -9.04845,6.30469 -10.77148,6.30469 -0.69062,0 -3.47792,1.05918 -6.19336,2.35352 -6.27438,2.99075 -10.1454,3.92889 -10.93555,2.65039 C 559.16078,249.45189 556.9398,249 554.56641,249 552.19302,249 548.3383,248.325 546,247.5 543.6617,246.675 540.52177,246 539.02344,246 535.91422,246 528,240.6884 528,238.60156 c 0,-0.76271 -0.675,-1.6463 -1.5,-1.96289 -0.825,-0.31658 -1.50186,-1.15265 -1.50586,-1.85742 -0.007,-1.2742 -5.83559,-5.78125 -7.47656,-5.78125 -0.47266,0 -1.67492,-0.73625 -2.66992,-1.63672 -2.10492,-1.90492 -12.75536,-2.6779 -13,-0.94336 -0.0838,0.59397 -0.20468,1.5622 -0.26758,2.15039 -0.0629,0.58819 -0.82152,2.16319 -1.6875,3.5 -1.76345,2.72223 -1.42269,9.95114 0.4668,9.89844 C 504.6261,241.84978 510.70012,231 506.5,231 c -0.825,0 -1.5,-0.45 -1.5,-1 0,-1.72465 4.61647,-1.08998 7.27344,1 1.39842,1.1 2.98234,2 3.51953,2 0.53719,0 4.03099,3.56535 7.76562,7.92383 3.73462,4.35847 7.72381,8.37932 8.86524,8.93359 1.14144,0.55428 4.77617,1.27422 8.07617,1.59961 3.3,0.3254 7.125,0.80244 8.5,1.06055 1.375,0.25811 3.99343,0.69248 5.81836,0.96484 1.82493,0.27235 4.07493,0.93164 5,1.4668 0.92507,0.53513 2.35664,0.7919 3.18164,0.57031 8.26486,-2.21995 16.67941,-4.94327 17.44922,-5.64844 0.5225,-0.47863 1.9589,-0.87109 3.1914,-0.87109 1.23255,0 2.51946,-0.45 2.85938,-1 0.75353,-1.21924 5.17761,-1.33055 5.9082,-0.14844 0.28969,0.46872 4.25332,-0.14359 8.8086,-1.36133 9.01205,-2.40914 17.23758,-7.22854 18.38867,-10.77343 0.39607,-1.21975 0.7921,-8.7418 0.87891,-16.7168 0.0935,-8.58918 0.62,-15.35514 1.29101,-16.59766 0.62303,-1.15368 1.59546,-4.97868 2.16211,-8.5 1.1079,-6.8848 3.12862,-9.45862 6.5625,-8.35742 1.1,0.35276 3.35,0.87657 5,1.16406 1.65,0.2875 4.19537,1.63938 5.65625,3.00391 1.87089,1.7475 3.27517,2.2845 4.75,1.81641 2.89891,-0.92008 2.61701,-3.1549 -0.65625,-5.20508 -1.5125,-0.94734 -3.55513,-2.5331 -4.53906,-3.52344 C 639.72702,181.81044 637.85993,181 636.5625,181 c -1.29744,0 -4.3173,-1.11991 -6.71094,-2.48828 -2.39364,-1.36838 -4.89086,-2.493 -5.54883,-2.5 z m 176.52735,11.09766 c 2.54741,0.12898 4.86897,2.3605 7.33203,6.89062 1.64472,3.025 4.0291,7.075 5.29883,9 1.26973,1.925 2.61323,4.85 2.98633,6.5 0.3731,1.65 1.73634,4.575 3.02734,6.5 1.74704,2.60497 2.35043,4.90648 2.36133,9 0.0294,11.06243 -0.10977,11.32821 -8.98242,17.17383 -4.44652,2.92953 -9.26981,6.1107 -10.71875,7.07031 -3.3773,2.23671 -4.13477,2.20334 -4.13477,-0.18555 0,-1.19336 2.31217,-3.72087 6,-6.55859 8.14008,-6.26365 8.26526,-9.79675 0.19727,-5.55469 -10.38979,5.46284 -12.86575,6.27399 -20.51172,6.72071 -7.17865,0.41942 -7.82668,0.30235 -7.50782,-1.35352 0.20927,-1.08673 1.94548,-2.33418 4.33594,-3.11523 C 784.82393,237.78896 791,232.48526 791,230.19141 c 0,-2.63702 -9.05786,-0.68829 -18.02148,3.8789 C 763.69127,238.8024 755,240.53364 755,237.65039 c 0,-0.88229 1.2375,-2.39741 2.75,-3.36719 1.5125,-0.96979 4.69654,-3.23054 7.07617,-5.02343 2.37962,-1.79289 4.86211,-3.25977 5.51563,-3.25977 0.65351,0 2.75699,-0.84052 4.67382,-1.86719 1.91688,-1.02668 5.05938,-2.20457 6.98438,-2.61914 4.98863,-1.07436 9,-3.32058 9,-5.03906 0,-2.10581 -2.40385,-1.84839 -12.5918,1.3457 C 769.11887,220.73267 767,220.84201 767,218.41602 767,217.63685 766.55,217 766,217 c -0.55,0 -1,0.45 -1,1 0,1.09219 -5.88048,1.36631 -8.41797,0.39258 -2.3043,-0.88424 -2.03404,-1.55732 2.66797,-6.64258 4.44898,-4.81162 21.1636,-16.75 23.45117,-16.75 0.72935,0 2.10746,-0.41226 3.0625,-0.91602 0.95504,-0.50377 3.31133,-1.65749 5.23633,-2.56445 1.925,-0.90696 4.70658,-2.39217 6.18164,-3.30078 1.28622,-0.79229 2.49052,-1.16804 3.64844,-1.10937 z m -182.3457,4.35546 c 0.25594,-0.002 0.47192,0.0911 0.65429,0.27344 1.53768,1.53768 -0.31982,4.42183 -4.88281,7.58399 -4.84651,3.35863 -7.46039,3.60574 -4.52734,0.42773 1.14211,-1.2375 3.48996,-3.78184 5.21875,-5.6543 1.64235,-1.77882 2.76921,-2.62632 3.53711,-2.63086 z m -175.66407,10.44336 0.53907,2.79492 c 0.2959,1.53777 1.06035,7.74688 1.69921,13.79688 0.63887,6.05 1.54847,11.47988 2.02149,12.06641 0.48108,0.59647 0.46964,2.57948 -0.0274,4.5 -0.48856,1.88847 -1.19332,7.93359 -1.56445,13.43359 -0.37112,5.5 -1.10762,12.25 -1.63672,15 -0.83981,4.36488 -2.05569,12.80177 -3.13281,21.72266 -0.18076,1.49712 -0.5289,2.84712 -0.77344,3 -2.92337,1.82755 -5.24918,2.77734 -6.79687,2.77734 -1.03329,0 -2.952,0.82667 -4.26367,1.83594 -2.26542,1.74313 -10.66819,6.36998 -13.88477,7.64648 -2.39339,0.94981 -5.83979,3.06548 -7.74219,4.75196 -0.96629,0.8566 -3.41925,2.39253 -5.44922,3.4121 -2.02997,1.01957 -6.54824,3.48169 -10.04101,5.47071 -3.49277,1.98901 -7.43074,3.95957 -8.75196,4.3789 -1.32119,0.41933 -4.60671,2.31146 -7.30078,4.20508 -2.69408,1.89362 -5.49563,3.21334 -6.22461,2.9336 -0.72898,-0.27973 -1.58376,0.16705 -1.90039,0.99218 -0.31663,0.82515 -1.05489,1.20381 -1.64062,0.8418 -0.58574,-0.36201 -5.13389,1.43918 -10.10742,4.00391 -4.97353,2.56474 -9.60122,4.4492 -10.28321,4.1875 -1.66886,-0.64041 -3.4942,0.59667 -4.89843,3.3164 -0.63776,1.23523 -2.7396,2.77977 -4.66993,3.4336 -1.93033,0.65382 -6.20533,3.01027 -9.5,5.23632 -6.08678,4.11254 -11.57802,6.86882 -28.36718,14.23829 -5.15696,2.26361 -9.432,4.11237 -9.5,4.10937 -2.50994,-0.10076 -16.3373,-19.36843 -17.85547,-24.88086 -0.5473,-1.98724 -1.78245,-4.73828 -2.7461,-6.11328 -0.96366,-1.375 -2.05332,-4.5491 -2.41992,-7.05469 -0.59282,-4.05175 -0.32625,-5.02477 2.40625,-8.79687 1.68977,-2.33265 3.8428,-4.53553 4.78321,-4.89453 0.9404,-0.35901 5.30898,-3.34621 9.70898,-6.63868 4.4,-3.29248 10.025,-7.45466 12.5,-9.24804 9.71558,-7.03986 12.27637,-8.98644 15.93945,-12.11719 2.09144,-1.7875 4.24176,-3.25 4.77735,-3.25 0.5356,0 1.78771,-0.9 2.7832,-2 0.99549,-1.1 2.22602,-2 2.73438,-2 0.50833,0 3.92676,-2.27589 7.5957,-5.05859 C 336.3536,268.23531 353.52677,257 354.72656,257 c 0.43294,0 3.16817,-1.95281 6.07813,-4.33984 C 366.08112,248.33192 373.2827,244 375.20117,244 c 0.55637,0 1.88529,-1.11121 2.95313,-2.46875 1.06784,-1.35754 3.01388,-3.04504 4.32422,-3.75 2.74578,-1.47723 20.21022,-12.58862 32.26367,-20.52734 4.53304,-2.98559 8.80804,-5.52177 9.5,-5.63672 0.69195,-0.11495 3.16171,-1.42699 5.48828,-2.91407 2.32657,-1.48702 4.66387,-2.70312 5.19336,-2.70312 0.52949,0 2.52255,-0.9216 4.42969,-2.04688 z m 162.80664,2.16211 c 1.47811,-0.0418 -0.0335,2.56686 -4.46484,7.18164 -5.21646,5.43241 -7.6728,7.13085 -13.99414,9.67383 -8.2703,3.32703 -9.71774,3.61005 -10.66211,2.08203 -1.75322,-2.83678 8.81608,-11.76184 16.19531,-13.67578 3.1895,-0.82725 7.26226,-2.40193 9.05078,-3.5 1.91393,-1.17506 3.20313,-1.74272 3.875,-1.76172 z m 221.26563,2.38867 c 0.0368,0.006 0.0748,0.0219 0.11523,0.0469 0.54557,0.33718 0.99219,1.06363 0.99219,1.61523 0,0.5516 1.07468,3.33796 2.38867,6.19141 1.61873,3.51519 2.56014,7.76707 2.91797,13.1875 0.64698,9.8002 -0.50686,24.60832 -1.55859,20 -0.37657,-1.65 -0.95167,-5.025 -1.27735,-7.5 -0.32569,-2.475 -1.28902,-8.55 -2.14062,-13.5 -1.954,-11.35777 -2.57773,-20.22547 -1.4375,-20.04102 z M 525,212 c -0.55,0 -1,0.45 -1,1 0,0.55 0.45,1 1,1 0.55,0 1,-0.45 1,-1 0,-0.55 -0.45,-1 -1,-1 z m 36.19531,11.45703 c 0.16197,6.4e-4 0.30985,0.0127 0.43946,0.0371 1.02627,0.19361 2.22886,0.38759 2.67382,0.42969 C 566.2232,224.10493 563.65956,226 561.5,226 c -1.31008,0 -2.66008,0.45 -3,1 -0.73768,1.1936 -5.5,1.35431 -5.5,0.18555 0,-1.19772 5.76585,-3.73816 8.19531,-3.72852 z m 110.73633,22.2168 c 0.36155,0.01 0.72244,0.14065 1.13477,0.36133 1.06338,0.56911 1.93359,1.50233 1.93359,2.07226 0,0.56994 0.56827,1.60343 1.26172,2.29688 0.96667,0.96667 1.07662,4.15712 0.47266,13.67773 -0.43327,6.82976 -0.88903,16.78984 -1.01172,22.13281 -0.24918,10.85095 -0.23553,10.82492 -8.38282,16.02344 -13.28602,8.47738 -21.83808,15.54069 -43.1875,35.67383 -7.34119,6.92295 -14.12513,12.88266 -15.07617,13.24219 -0.95104,0.35954 -3.04457,1.95635 -4.65234,3.54882 -4.03812,3.99971 -27.93022,23.14032 -33.42383,26.77735 -2.475,1.63857 -5.82254,4.22661 -7.43945,5.75 -1.61691,1.52338 -3.36657,2.76953 -3.88867,2.76953 -0.52211,0 -3.76933,2.475 -7.21485,5.5 -3.44552,3.025 -6.88307,5.5 -7.63867,5.5 C 542.75427,401 539,398.0811 539,396.47656 c 0,-0.77546 -1.99709,-3.65849 -4.4375,-6.40625 -3.01375,-3.39333 -4.97892,-6.85227 -6.12695,-10.7832 -0.92963,-3.1831 -2.36095,-7.81211 -3.18164,-10.28711 -2.68986,-8.11198 -3.91129,-19.70981 -3.70899,-35.23047 0.10946,-8.39781 0.47525,-16.39453 0.8125,-17.76953 0.33725,-1.375 0.86221,-4.075 1.16797,-6 1.65876,-10.44333 3.0084,-12.06589 9.97461,-11.99219 1.65,0.0175 3.9,-0.0394 5,-0.12695 1.1,-0.0875 5.825,0.40286 10.5,1.08984 4.675,0.68697 11.875,1.42006 16,1.62891 4.125,0.20885 8.67123,0.58511 10.10352,0.83594 1.43229,0.25083 3.00729,0.0569 3.5,-0.43164 0.49271,-0.48852 3.59648,-0.90072 6.89648,-0.91602 9.06658,-0.0421 10.83428,-0.0605 12.85938,-0.13086 2.92214,-0.10166 18.95225,-7.31035 24.82226,-11.16211 2.92464,-1.91908 6.04427,-3.89603 6.93164,-4.39258 1.92428,-1.0768 7.32705,-5.46942 13.15625,-10.69726 2.32704,-2.08698 5.38663,-4.41887 6.79883,-5.18164 2.44873,-1.32265 9.03264,-8.48169 17.26562,-18.77344 2.43087,-3.03874 3.513,-4.10511 4.59766,-4.07617 z m 80.66602,1.52539 c 2.33774,0.0441 4.69273,0.36402 5.60351,0.93359 0.95648,0.59815 0.09,2.0249 -3.27734,5.40235 -4.9824,4.99741 -5.4144,4.92313 -7.91602,-1.37696 -1.12168,-2.82484 -1.1092,-3.4809 0.082,-4.23437 0.8481,-0.5364 3.17007,-0.7687 5.50782,-0.72461 z M 454.03516,250 c 0.84351,0 2.96484,4.68433 2.96484,6.54688 0,0.79912 0.5904,1.45312 1.3125,1.45312 1.58181,0 6.6875,5.14742 6.6875,6.74219 0,1.50893 4.36282,5.51286 10.5,9.63672 6.994,4.6996 30.28397,16.26815 34.5,17.13671 5.77045,1.18883 6.62041,1.99492 6.51562,6.17188 -0.0528,2.10324 -0.37123,4.27137 -0.70898,4.81836 -0.33775,0.54699 -1.25994,3.46914 -2.04883,6.49414 -2.62854,10.07922 -0.6804,53.11769 2.63477,58.20898 0.82025,1.25971 1.71522,3.41602 1.99023,4.79102 0.744,3.71984 4.26621,12.3759 6.57813,16.16797 1.11738,1.83275 2.03315,3.92031 2.03515,4.63867 0.002,0.71836 2.25391,4.0857 5.00391,7.48438 2.75,3.39868 5,6.68793 5,7.30859 0,1.11711 -3.78095,3.91201 -11.47656,8.48242 -2.18755,1.29918 -8.43252,5.91064 -13.87696,10.24805 -5.44444,4.3374 -11.33163,8.73091 -13.08203,9.76367 l -3.18164,1.87891 -2.21093,-2.73633 c -3.99444,-4.94532 -12.73275,-18.63928 -15.14649,-23.73633 -1.30228,-2.75 -3.55852,-6.8 -5.01562,-9 -1.4571,-2.2 -4.26308,-6.9756 -6.23438,-10.61133 -1.97129,-3.63572 -4.05079,-7.46072 -4.62109,-8.5 -0.99701,-1.81691 -4.63189,-13.60195 -9.06446,-29.38867 -1.15822,-4.125 -2.23742,-9.31062 -2.39843,-11.52344 -0.16102,-2.21281 -0.53997,-4.46281 -0.8418,-5 -2.08267,-3.70666 -1.38908,-59.46219 0.8457,-67.97656 1.52049,-5.79298 1.80768,-7.66713 2.41407,-15.75 0.15471,-2.0625 0.5716,-3.75 0.92578,-3.75 z m 281.91601,3.79883 3.06641,3.0664 c 1.68663,1.68663 4.35997,6.1182 5.93945,9.84961 1.57947,3.73142 4.31315,9.71016 6.07617,13.28516 11.45987,23.23804 11.10011,22.31126 10.39063,26.74805 -1.09604,6.85431 -2.17299,7.673 -6.91406,5.25586 -4.67052,-2.38117 -5.8647,-2.12095 -7.68165,1.66992 -0.7386,1.54103 -2.24012,2.95782 -3.33593,3.14844 -3.42422,0.59567 -4.29077,2.80915 -3.74805,9.57031 0.6156,7.66899 -0.49644,8.7602 -4.7207,4.63086 C 733.32252,329.36074 731.32658,328 730.58789,328 c -2.33276,0 -3.82532,2.84651 -3.40039,6.48633 0.44197,3.78582 -0.21473,4.39071 -2.1875,2.01367 -2.95458,-3.56005 -7.61654,-0.42237 -8.17188,5.5 -0.33262,3.54746 -0.4079,3.57975 -5.11132,2.25195 -1.38169,-0.39006 -2.27081,0.65357 -3.95118,4.63086 -2.0783,4.9192 -2.30161,5.10709 -5.33984,4.53711 -2.88503,-0.54123 -3.27011,-0.30281 -4.29687,2.64258 -0.62053,1.78005 -1.12891,4.09826 -1.12891,5.15234 0,1.05409 -0.46293,2.78158 -1.0293,3.83985 -0.85602,1.5995 -1.34956,1.72459 -2.92578,0.74023 -3.08879,-1.92899 -6.58576,0.34068 -8.29687,5.38477 -1.33291,3.92921 -1.74083,4.29925 -4.51172,4.08008 -2.61885,-0.20714 -3.21139,0.21399 -4.2168,3 -0.64327,1.78254 -1.38761,4.36523 -1.6543,5.74023 -0.72246,3.72475 -1.92428,4.42206 -4.5039,2.61523 C 668.59261,385.72658 667.01543,385 666.35547,385 c -0.99573,0 -3.66234,5.73456 -3.8125,8.19922 -0.12664,2.07859 -2.2976,2.70646 -5.91016,1.70898 -3.25928,-0.89993 -3.99502,-0.79423 -5.11133,0.73242 -1.10477,1.51088 -1.55166,1.5799 -2.91406,0.44922 -2.25535,-1.87177 -4.2028,-0.0238 -4.95898,4.70508 -0.33044,2.06645 -1.25791,4.6448 -2.0625,5.73047 -1.44771,1.95347 -1.5112,1.94957 -6.06446,-0.43555 -5.19043,-2.71888 -6.76789,-2.10451 -7.10546,2.77149 -0.50307,7.26637 -2.26344,8.61976 -6.69141,5.13672 C 617.77556,410.89172 614,413.50719 614,419.35156 c 0,5.56916 -2.56793,7.2553 -6.13477,4.02735 -2.64831,-2.39668 -4.84416,-1.03683 -4.99023,3.08984 -0.18857,5.32735 -0.20719,5.37425 -2.68164,7.10742 -2.17705,1.52486 -2.52937,1.46643 -6.31836,-1.04101 -5.68153,-3.75985 -7.46387,-3.12567 -7.0293,2.49609 l 0.34571,4.4668 -2.72266,-2.9375 c -2.5808,-2.78473 -2.79097,-2.8412 -4.06445,-1.09961 -0.95133,1.30103 -1.16378,3.54382 -0.73047,7.68945 l 0.61133,5.85156 L 574.66211,446 c -3.09301,-1.65052 -6.02687,-3 -6.51953,-3 -1.27436,0 -5.38449,9.926 -4.77149,11.52344 0.28061,0.73128 -0.13216,1.86347 -0.91797,2.51562 -1.12144,0.93073 -1.55082,0.87089 -1.99218,-0.27929 -0.30926,-0.80593 -2.80253,-2.51425 -5.54102,-3.79688 -4.32464,-2.02556 -5.16643,-2.14463 -6.41015,-0.89844 -1.15491,1.1572 -1.25154,2.71298 -0.4961,8.03907 0.51515,3.63197 1.25653,7.45697 1.64649,8.5 0.46821,1.25233 -0.71352,0.62284 -3.47852,-1.85352 -6.59728,-5.90859 -14.30389,-4.85877 -11.48633,1.56445 0.52744,1.20243 0.63274,3.31055 0.23242,4.68555 -0.43583,1.49696 -0.76842,1.82112 -0.82812,0.80664 -0.0548,-0.93183 -1.11441,-2.8739 -2.35352,-4.31445 -2.93459,-3.41167 -5.40237,-2.48597 -6.7539,2.5332 -1.23093,4.57135 -2.57288,5.23756 -6.26563,3.11133 -4.12022,-2.37236 -6.02985,-0.7133 -6.13867,5.33008 -0.0527,2.92759 -0.5847,5.02568 -1.33789,5.27929 -0.6875,0.23149 -1.25,-0.24465 -1.25,-1.05664 0,-4.60343 -5.73517,-0.61429 -12.16602,8.46094 -1.43946,2.03137 -1.9414,2.18166 -3.70898,1.11523 -2.73341,-1.64906 -5.00312,-0.62951 -5.77148,2.59376 -1.09922,4.61115 -2.22232,5.29248 -5.19532,3.14843 -1.4623,-1.05457 -4.0082,-2.05061 -5.6582,-2.21289 -2.91091,-0.2863 -3.01718,-0.14643 -3.55273,4.70508 -0.41495,3.75902 -0.74323,4.50361 -1.32227,3 -1.54704,-4.01719 -2.37193,-5.00526 -4.43164,-5.3125 -1.77124,-0.26421 -2.35424,0.55688 -3.71289,5.23047 -1.84877,6.35955 -2.91363,7.40652 -5.32031,5.22851 -1.92017,-1.73773 -10.17831,-3.38745 -10.12891,-2.02343 0.0175,0.4828 0.66286,1.70923 1.43359,2.72656 1.07798,1.42288 1.1499,2.40356 0.3086,4.25 -1.45295,3.18888 -2.6578,3.02815 -3.89453,-0.51953 -1.42252,-4.08065 -3.53971,-4.54849 -6.43555,-1.42383 -1.34383,1.45006 -2.44336,2.12055 -2.44336,1.49023 0,-3.73663 -7.3168,1.34663 -9.63672,6.69532 -1.06123,2.4467 -1.75838,3.1616 -2.10547,2.1582 -0.8189,-2.36739 -3.43483,-5 -4.96875,-5 -0.77076,0 -2.72098,1.44494 -4.33398,3.21094 -2.29568,2.51346 -3.19664,2.94789 -4.14453,2 C 412.14455,523.54494 410.76731,523 409.75,523 c -1.01731,0 -3.17614,0.68627 -4.79883,1.52539 -2.25756,1.16743 -2.94593,1.22614 -2.92773,0.25 0.0131,-0.70162 3.01542,-3.30039 6.67187,-5.77539 3.65645,-2.475 9.76109,-7.0875 13.56641,-10.25 3.80533,-3.1625 7.32405,-5.75 7.81836,-5.75 0.49432,0 3.31889,-2.1919 6.27734,-4.87109 2.95845,-2.67918 7.80185,-6.67201 10.76172,-8.87305 2.95988,-2.20104 6.993,-5.58236 8.96289,-7.51367 1.96989,-1.93131 8.94489,-7.98477 15.5,-13.45117 6.55511,-5.4664 12.59297,-10.76189 13.41797,-11.76954 3.03378,-3.70543 18.32989,-15.77734 29,-22.88671 3.575,-2.38198 7.35655,-5.29887 8.4043,-6.48243 1.04774,-1.18356 2.61968,-2.15234 3.49218,-2.15234 1.77336,0 12.15802,-6.76947 13.40235,-8.73633 C 539.73866,415.56846 540.6732,415 541.375,415 c 0.70179,0 2.33325,-1.125 3.625,-2.5 1.29175,-1.375 2.89095,-2.5 3.55273,-2.5 0.66178,0 1.82003,-0.74359 2.57422,-1.65234 0.75419,-0.90874 3.73963,-3.40225 6.63477,-5.54102 5.04392,-3.72616 8.59516,-6.70225 21.64453,-18.13281 3.24891,-2.84588 7.29891,-6.18896 9,-7.42969 4.46229,-3.25467 8.10332,-6.2282 12.8457,-10.49414 2.29284,-2.0625 4.58481,-3.75 5.09375,-3.75 0.50895,0 1.93877,-1.0125 3.17774,-2.25 1.23898,-1.2375 5.28225,-4.725 8.98437,-7.75 3.70212,-3.025 9.94544,-8.425 13.875,-12 3.92956,-3.575 10.46459,-9.2 14.52149,-12.5 4.05689,-3.3 11.26057,-9.375 16.00781,-13.5 4.74725,-4.125 12.6195,-10.2 17.49414,-13.5 10.39639,-7.03808 20.34177,-15.36437 29.51172,-24.70312 3.61963,-3.68627 8.03171,-7.73627 9.80273,-9 1.77102,-1.26374 6.14636,-4.9304 9.72461,-8.14844 z M 713,258 c -0.55,0 -1,0.45 -1,1 0,0.55 0.45,1 1,1 0.55,0 1,-0.45 1,-1 0,-0.55 -0.45,-1 -1,-1 z m 296.4785,29.14648 c 0.4662,0.0658 0.8196,0.61675 1.125,1.60352 0.2979,0.9625 0.9038,2.4429 1.3457,3.28906 0.4418,0.84615 1.1208,3.54615 1.5078,6 0.387,2.45384 0.9004,5.70599 1.1407,7.22656 0.2402,1.52058 1.118,4.77065 1.9511,7.22461 1.5505,4.56687 1.9492,7.92657 2.9141,24.50977 0.3041,5.225 0.7936,10.95856 1.0879,12.74023 0.2944,1.78166 0.089,4.93166 -0.459,7 -2.6203,9.8983 -4.9605,20.18597 -5.5176,24.25977 -0.3385,2.475 -1.4414,6.75 -2.4512,9.5 -1.0098,2.75 -3.1005,9.05 -4.6445,14 -1.544,4.95 -4.0179,11.7 -5.498,15 -1.48,3.3 -3.29185,7.575 -4.02738,9.5 -1.43087,3.74505 -11.07952,21.85296 -13.85351,26 -4.74253,7.08995 -4.97472,10.02102 -0.79102,9.97852 3.15734,-0.032 6.08467,-2.79162 8.73438,-8.23243 1.27329,-2.61452 3.06621,-5.5594 3.98437,-6.54492 0.91815,-0.98553 3.12378,-5.59613 4.90236,-10.24609 1.7785,-4.64996 3.7836,-9.35508 4.4551,-10.45508 2.0369,-3.33706 7.3174,-16.51815 10.0156,-25 11.5274,-36.23676 12.0674,-37.59309 15.9961,-40.16211 4.0627,-2.6567 6.2765,-2.99062 9.9199,-1.49414 2.1294,0.87471 2.6704,1.62455 2.2109,3.07227 -0.3343,1.05329 -0.132,2.20904 0.4493,2.56836 0.5811,0.35928 0.8019,1.06452 0.4922,1.5664 -0.472,0.7634 0.7068,5.29171 3.3691,12.94922 0.2868,0.825 0.5984,2.175 0.6933,3 0.3035,2.62351 3.6928,16.21646 6.1094,24.5 1.2836,4.4 2.5903,9.8 2.9024,12 0.3122,2.2 1.0252,5.45372 1.584,7.23047 0.5588,1.77675 0.7521,3.65785 0.4296,4.17969 -0.3225,0.52184 -0.769,4.24312 -0.9921,8.26953 -0.5896,10.63947 -1.2868,14.13712 -4.0723,20.43554 -1.3704,3.09879 -2.4922,6.46239 -2.4922,7.47461 0,1.01221 -1.0125,2.3717 -2.25,3.02149 -1.2375,0.64978 -4.3374,2.91559 -6.8887,5.03515 -2.5513,2.11956 -5.3021,3.85352 -6.1133,3.85352 -0.8112,0 -2.5488,1.04177 -3.8613,2.31445 -4.9331,4.78336 -15.2716,9.89344 -26.8437,13.26953 -3.0011,0.87556 -6.36393,2.2273 -7.47269,3.00391 -1.10876,0.7766 -3.91835,1.41211 -6.24414,1.41211 -2.32578,0 -6.61301,0.62017 -9.52734,1.37891 -3.12654,0.81399 -11.03815,1.4309 -19.29883,1.5039 -7.7,0.0681 -16.33644,0.29961 -19.19141,0.51367 -2.85498,0.21408 -5.32998,0.25538 -5.5,0.0918 -0.17003,-0.16358 -8.63359,-0.5795 -18.80859,-0.92383 -10.175,-0.34434 -19.4,-0.76806 -20.5,-0.9414 -1.1,-0.17333 -4.7,-0.64714 -8,-1.05274 -3.3,-0.40561 -7.8,-1.3254 -10,-2.04297 -2.2,-0.71757 -6.475,-1.84119 -9.5,-2.49804 -3.025,-0.65685 -8.875,-2.24905 -13,-3.53711 -4.125,-1.28807 -13.7626,-3.97144 -21.41797,-5.96289 -7.65536,-1.99144 -14.30137,-3.8564 -14.76758,-4.14453 -0.46621,-0.28813 -1.95312,-0.72367 -3.30468,-0.96875 C 816.45801,482.86263 812,481.19915 812,480.61328 c 0,-0.88398 12.67988,-9.45264 16.10742,-10.88476 1.94641,-0.81326 5.07985,-2.82789 6.96485,-4.47657 1.885,-1.64867 5.10001,-3.8893 7.14453,-4.98047 9.29586,-4.9612 35.14333,-29.31276 38.98632,-36.73046 1.12838,-2.17794 12.39853,-14.32794 25.04493,-27 C 918.89446,383.86896 930.5997,371.475 932.25977,369 c 3.70857,-5.52909 5.46913,-7 8.375,-7 1.32929,0 4.63069,-2.18703 8.05859,-5.33789 3.19385,-2.93572 6.55327,-5.74822 7.4668,-6.25 2.48291,-1.36378 18.89617,-17.42352 22.33984,-21.85938 1.65,-2.1254 4.27801,-5.25745 5.83984,-6.95898 4.71504,-5.1368 16.57916,-21.68564 20.32036,-28.34375 2.2685,-4.03739 3.6597,-5.96113 4.6113,-6.10156 0.071,-0.0105 0.1404,-0.0113 0.207,-0.002 z m -759.52928,43.02344 c 1.90431,0.0255 2.69602,1.17593 5.8457,5.76563 2.31239,3.36959 4.20508,6.52482 4.20508,7.01172 0,0.4869 0.3768,1.03541 0.83789,1.21875 0.46109,0.18333 3.69773,4.08992 7.19141,8.67968 6.19009,8.13214 9.46031,11.67209 13.40039,14.50391 1.88537,1.35505 1.87927,1.41447 -0.32422,2.59375 -1.24076,0.66403 -3.12328,2.07445 -4.18164,3.13281 -1.05837,1.05837 -2.50418,1.92383 -3.21289,1.92383 -0.70871,0 -3.05335,0.9 -5.21094,2 -2.15759,1.1 -4.6569,2 -5.55469,2 -0.89779,0 -3.79847,-2.7 -6.44531,-6 -2.64684,-3.3 -5.19181,-6 -5.6543,-6 -1.36402,0 -8.9792,-7.24424 -9.94531,-9.46094 -0.48868,-1.12129 -3.14101,-5.18769 -5.89453,-9.03711 C 232.25235,344.65253 230,340.71937 230,339.76367 c 0,-1.04065 1.40389,-2.32341 3.5,-3.19922 1.925,-0.80432 3.5,-1.90013 3.5,-2.43554 0,-1.13308 4.7634,-2.80298 10.54492,-3.69532 1.01027,-0.15593 1.76953,-0.27216 2.4043,-0.26367 z m -27.83594,16.42774 c 1.60609,0.16473 3.23162,2.16346 6.38672,6.15039 7.36432,9.3059 10.00251,13.43014 9.6582,15.09765 -0.18798,0.91038 -1.98593,4.3543 -3.99609,7.6543 -2.01016,3.3 -4.25958,7.575 -4.99805,9.5 -2.42213,6.31387 -4.30262,17.41107 -3.72851,22 0.30963,2.475 0.77271,6.1875 1.02929,8.25 0.25658,2.0625 0.058,3.75 -0.4414,3.75 -0.49943,0 -1.04768,-1.87709 -1.2168,-4.17188 -0.33296,-4.51767 -1.7454,-5.74678 -4.00586,-3.48632 -1.59783,1.59783 -4.47936,23.67968 -4.75195,36.4082 -0.0874,4.07951 -2.04535,2.34077 -2.25195,-2 -0.11127,-2.3375 -0.31273,-6.05 -0.44922,-8.25 -0.53088,-8.55638 -0.49151,-17.36686 0.0957,-21.58789 0.33765,-2.42714 0.1646,-5.08711 -0.38281,-5.91211 -0.862,-1.29913 -1.25658,-1.23217 -2.94727,0.5 -1.51341,1.55055 -2.23294,4.58431 -3.20117,13.5 -1.63942,15.09622 -1.73227,16.06311 -1.8457,19 -0.0754,1.95323 -0.30099,2.17632 -1.03125,1.02148 -0.51408,-0.81296 -0.93555,-5.11132 -0.93555,-9.55273 0,-16.24795 -3.84938,-18.07416 -8.36523,-3.9668 -1.58406,4.94849 -3.53072,10.34805 -4.32618,11.99805 -1.3798,2.8621 -1.42972,2.66648 -1.0625,-4.23633 0.2117,-3.97946 0.92767,-7.88921 1.5918,-8.68945 0.66414,-0.80024 1.08739,-2.26838 0.93945,-3.26367 -0.41478,-2.7905 1.12707,-9.4795 2.70508,-11.73243 0.77955,-1.11295 1.41797,-2.86366 1.41797,-3.89062 0,-2.24436 -3.77476,-5.608 -6.3457,-5.6543 C 187.28059,404.99043 175,394.24508 175,392.21094 c 0,-1.84375 14.50373,-16.28082 21.31641,-21.21875 4.82268,-3.49556 13.26218,-11.34763 13.86328,-12.89844 0.17578,-0.4535 2.72612,-3.44405 5.66601,-6.64453 3.0753,-3.3479 4.66149,-5.0163 6.26758,-4.85156 z m 864.15432,6.00586 c 0.4997,0.04 1.0381,0.8326 1.5566,2.32031 1.218,3.49374 -0.1518,4.1994 -1.8808,0.96875 -0.7273,-1.35907 -0.7847,-2.45163 -0.1602,-3.07617 0.1562,-0.15614 0.3178,-0.22621 0.4844,-0.21289 z m -10.0488,2.86328 c 1.3867,-0.12376 2.4062,1.05323 4.9257,5.26367 1.8987,3.17275 4.1059,7.11582 4.9043,8.76172 0.7984,1.64591 4.0387,6.89018 7.2012,11.65429 3.1625,4.7641 5.7441,9.26783 5.7441,10.00782 0,0.73999 -1.0232,2.62027 -2.2695,4.17773 -2.1814,2.72594 -2.3283,2.76329 -3.9258,0.99805 -1.6449,-1.81761 -6.835,-12.68172 -8.3047,-17.38477 -0.4202,-1.3446 -1.0668,-2.67031 -1.4375,-2.94531 -0.3708,-0.275 -2.399,-3.65 -4.5058,-7.5 -2.1069,-3.85 -4.5219,-7.79794 -5.3672,-8.77344 -1.6745,-1.93251 -0.9879,-3.10941 2.4121,-4.13281 0.2186,-0.0658 0.4246,-0.10927 0.6231,-0.12695 z m -11.2266,2.66797 c 0.9445,0.0614 1.1266,0.69954 1.5566,2.11523 0.3759,1.2375 1.7552,3.68279 3.0664,5.43359 1.3111,1.7508 2.3848,3.87229 2.3848,4.71485 0,0.84256 1.2892,3.00977 2.8652,4.8164 3.309,3.79327 7.3142,11.27175 6.4825,12.10352 -0.3115,0.31144 0.2971,1.83084 1.3515,3.375 1.0544,1.54417 3.1749,5.83518 4.7129,9.53711 2.6055,6.27143 2.7144,7.07432 1.5918,11.75391 -0.6627,2.76224 -1.5622,5.24311 -2,5.51367 -1.668,1.03088 -5.1496,8.972 -5.2266,11.91992 -0.044,1.69494 -0.74,4.09453 -1.5449,5.33203 -0.8048,1.2375 -1.7484,2.19797 -2.0976,2.13477 -9.5625,-1.7318 -12.6597,-3.97217 -13.4375,-9.71875 -1.4568,-10.76319 -3.0433,-18.81154 -5.752,-29.16602 -1.6545,-6.325 -3.4175,-13.3 -3.918,-15.5 -0.5005,-2.2 -1.8432,-6.89024 -2.9824,-10.42188 -1.1392,-3.53163 -1.8259,-7.19586 -1.5254,-8.14257 0.5719,-1.80205 3.2817,-3.12653 9.9805,-4.87891 1.9894,-0.52043 3.226,-0.8458 4.0371,-0.91406 0.169,-0.0142 0.3202,-0.0162 0.4551,-0.008 z m -147.0547,14.51757 c 0.0409,-0.003 0.0625,0.004 0.0625,0.0215 0,0.61642 -3.9589,5.09107 -10,11.30469 -10.13855,10.42809 -28.50513,30.72645 -31.22656,34.51171 C 869.37323,428.78319 847.39947,450 844.13867,450 c -0.57533,0 -4.3289,2.45961 -8.34179,5.46484 C 828.8158,460.69285 815.95882,468 813.74219,468 c -0.57909,0 -2.52931,1.125 -4.33203,2.5 -1.80272,1.375 -3.54856,2.5 -3.88086,2.5 -0.3323,0 -5.42451,2.32964 -11.31641,5.17773 -5.8919,2.84808 -10.93789,5.24849 -11.21289,5.33399 -0.275,0.0855 -1.85,0.68911 -3.5,1.33984 -16.83723,6.64036 -26.30947,10.08161 -39,14.16992 -17.44097,5.61868 -17.29258,5.57944 -23,5.88868 -2.74971,0.14899 -6.79971,0.89899 -9,1.66601 -2.2003,0.76701 -5.35,1.40818 -7,1.42578 -1.65,0.0175 -6.14,0.69863 -9.97852,1.51172 -7.65624,1.62178 -21.729,2.99968 -22.52148,2.20508 -0.275,-0.27574 -9.5,-0.77547 -20.5,-1.10937 -11,-0.33392 -21.8,-0.79994 -24,-1.03516 -11.48627,-1.22812 -15.26858,-1.8676 -18,-3.04688 -1.65,-0.71238 -5.7,-2.05258 -9,-2.97656 -3.3,-0.92398 -7.125,-2.26753 -8.5,-2.98633 -1.375,-0.7188 -4.3,-1.87291 -6.5,-2.56445 -4.27754,-1.34458 -13.72721,-6.32363 -22.20117,-11.69922 C 557.43775,484.48581 554.77241,483 554.37695,483 552.8361,483 541,476.78566 541,475.97656 c 0,-1.41236 2.27287,-2.38036 5.08594,-2.16601 1.45375,0.11077 4.2798,-0.48291 6.27929,-1.31836 3.03001,-1.26602 3.63477,-2.01665 3.63477,-4.50586 0,-3.552 2.09652,-3.97821 4.17383,-0.84961 1.25452,1.88941 1.66632,1.98106 3.5625,0.79687 1.1789,-0.73623 2.94041,-3.10994 3.91601,-5.27343 3.10083,-6.87641 4.97318,-8.62726 8.22266,-7.69532 1.56541,0.44895 3.83701,1.3456 5.04883,1.99414 2.82394,1.51133 4.597,0.14862 5.5,-4.23046 0.57051,-2.76663 0.81069,-2.9786 1.67187,-1.47852 0.55256,0.9625 1.66167,1.75 2.4668,1.75 0.80513,0 2.24613,0.45118 3.20117,1.00195 4.65346,2.68366 15.38478,6.84567 19.32227,7.49414 2.42809,0.39988 7.58248,1.78152 11.45508,3.07032 3.8726,1.2888 8.8226,2.43761 11,2.55468 2.1774,0.11707 4.70132,0.58119 5.60937,1.0293 4.72932,2.33384 41.87818,3.70355 50.84961,1.875 12.75432,-2.59959 15.68906,-3.38877 19.21094,-5.16016 3.9401,-1.98174 8.31089,-2.44623 9.21679,-0.98046 0.60112,0.97263 -12.61465,13.9201 -17.10937,16.76171 -1.55018,0.98005 -5.96836,4.31298 -9.81836,7.40625 -3.85,3.09326 -9.025,6.64362 -11.5,7.89063 -10.70818,5.39526 -12,6.15167 -12,7.02148 0,1.84819 1.87568,1.97407 6.63281,0.44727 2.67645,-0.859 5.84252,-1.71005 7.03516,-1.89063 2.11128,-0.31967 10.23343,-4.47641 15.98047,-8.17968 5.53079,-3.56393 26.35068,-23.81732 26.35156,-25.63477 2.1e-4,-0.43635 2.52076,-3.36135 5.60156,-6.5 3.0808,-3.13865 6.89613,-7.57354 8.47852,-9.85547 1.5824,-2.28193 4.79913,-5.65435 7.14844,-7.49414 2.34932,-1.8398 5.1555,-4.47329 6.23632,-5.85156 1.08081,-1.37828 6.37473,-6.89595 11.76368,-12.26172 l 9.79882,-9.75586 6.55469,-0.92773 c 3.60532,-0.51058 7.08641,-1.35627 7.73633,-1.87891 0.64992,-0.52265 2.66774,-1.26959 4.48437,-1.6582 3.73317,-0.79859 3.81182,-3.12608 0.0957,-2.83399 -12.65539,0.99474 -35.50939,-0.89227 -34.31055,-2.83203 0.27501,-0.44498 1.94166,-0.57959 3.70508,-0.30078 3.17857,0.50253 19.95514,0.68645 39.20703,0.42969 9.67434,-0.12903 22.96418,-2.3638 32.63477,-5.48828 2.54882,-0.8235 6.37382,-1.50563 8.5,-1.51563 2.12619,-0.01 8.36523,-1.38318 13.86523,-3.05273 5.5,-1.66955 12.7,-3.85027 16,-4.84571 3.3,-0.99544 8.95997,-2.99685 12.57812,-4.44726 C 889.69633,385.1863 892.99273,384 893.4043,384 c 0.41157,0 6.11409,-2.66179 12.67187,-5.91602 6.14792,-3.05084 11.24785,-5.38182 11.86133,-5.43164 z M 662,385 c -0.55,0 -1,0.45 -1,1 0,0.55 0.45,1 1,1 0.55,0 1,-0.45 1,-1 0,-0.55 -0.45,-1 -1,-1 z m 20.52734,3.8418 c 0.71175,0.0588 1.72386,0.55439 3.1875,1.41797 2.01255,1.18743 5.35683,2.24492 7.43164,2.35156 2.07482,0.10664 5.02774,1.07559 6.5625,2.15234 1.53475,1.07675 5.25269,2.53944 8.26172,3.25 3.00903,0.71056 7.86015,2.34768 10.7793,3.63867 2.91916,1.29099 6.53249,2.36216 8.0293,2.38086 1.49682,0.0187 4.5207,0.90412 6.7207,1.9668 2.2,1.06268 5.44656,1.94814 7.21484,1.9668 1.76828,0.0187 5.14328,0.65789 7.5,1.42187 2.35672,0.76399 6.01996,1.6442 8.14063,1.95508 C 760.87929,412.00691 765,414.45058 765,416.4707 765,419.49148 726.75364,455 723.5,455 c -0.34879,0 -2.12606,1.13917 -3.95117,2.53125 -1.82511,1.39208 -4.84432,2.7261 -6.70899,2.96484 -1.86467,0.23874 -5.4042,1.1644 -7.86523,2.05664 -2.46102,0.89225 -8.29961,1.82071 -12.97461,2.0625 -4.675,0.2418 -10.62989,0.58528 -13.23242,0.76368 -2.60253,0.17845 -4.91388,0.1407 -5.13672,-0.082 -0.22283,-0.22283 -3.71794,-0.41002 -7.76758,-0.41602 -4.04964,-0.006 -9.61328,-0.62667 -12.36328,-1.37891 -2.75,-0.75224 -7.025,-1.59069 -9.5,-1.86523 -4.84848,-0.53783 -19.23201,-4.16378 -22.5,-5.67188 -3.78828,-1.7482 -7.78152,-3.0208 -11.17773,-3.56054 -6.79027,-1.07915 -12.83401,-4.75599 -15.25586,-9.28125 -1.7894,-3.34353 -0.44081,-3.86843 1.99218,-0.77539 2.40802,3.0613 4.35352,3.29176 8.85352,1.04687 2.12855,-1.06186 3.02684,-2.11079 2.65039,-3.0918 -0.89283,-2.32671 0.48366,-3.62214 1.85547,-1.74609 1.13746,1.55562 1.45437,1.56094 4.36719,0.0547 3.07749,-1.59144 3.49659,-2.45323 5.76757,-11.86133 0.80138,-3.3199 1.36983,-3.38503 4.95313,-0.56641 l 2.77734,2.1836 2.85742,-3.19922 c 1.98582,-2.2225 2.85938,-4.26331 2.85938,-6.68359 0,-4.15304 2.125,-4.70089 3.81836,-0.98438 2.04952,4.49821 9.15588,2.12 9.19726,-3.07812 0.008,-1.0567 0.39605,-2.52187 0.86133,-3.25586 0.64317,-1.01464 0.97618,-0.83486 1.39063,0.75 0.98905,3.78211 8.73242,1.95656 8.73242,-2.0586 0,-1.4687 0.4561,-1.89602 1.56445,-1.4707 2.0242,0.77676 9.19185,-3.34512 9.78907,-5.62891 0.25293,-0.96719 1.38522,-1.75781 2.51757,-1.75781 3.04484,0 8.63725,-5.33825 8.89844,-8.49414 0.21906,-2.6468 0.57157,-3.76208 1.75781,-3.66406 z m -27.16211,10.5039 c 0.091,0.0138 0.19866,0.16765 0.31836,0.4668 0.28891,0.72187 0.25231,1.58373 -0.0801,1.91602 -0.33229,0.33229 -0.5688,-0.25834 -0.5254,-1.3125 0.03,-0.7281 0.13554,-1.09327 0.28711,-1.07032 z m 449.68357,0.75782 c 0.6053,0.0426 1.1361,0.43493 1.7032,1.14648 0.7162,0.89864 -0.3818,2.93655 -3.9063,7.25 -2.6964,3.3 -6.3071,8.1375 -8.0234,10.75 -2.7689,4.21452 -4.8223,5.96495 -4.8223,4.11133 0,-1.97882 8.4953,-17.89805 10.8867,-20.40039 1.9371,-2.02703 3.1533,-2.92846 4.1621,-2.85742 z m 7.125,11.29687 c 0.4344,0.0393 0.8037,0.46469 1.3516,1.16406 2.905,3.70846 4.2948,7.01355 5.3476,12.70899 0.583,3.15334 1.6156,6.7449 2.295,7.98047 0.6794,1.23556 1.3926,2.92109 1.584,3.74609 0.7501,3.23275 0.7021,26.9082 -0.066,34.02539 -0.8127,7.51079 -0.8213,7.527 -4.373,8.63867 -3.4589,1.08261 -3.6776,0.98967 -7.8223,-3.33594 -2.8406,-2.96458 -4.6695,-6.01521 -5.4765,-9.13867 -1.8994,-7.35234 -4.0704,-10.8572 -9.7852,-15.79101 -5.9086,-5.10115 -5.9132,-5.13616 -1.4687,-13.89844 6.0332,-11.89413 7.885,-14.76307 14.5644,-22.56641 2.2194,-2.59283 3.1256,-3.59875 3.8496,-3.5332 z M 1108.5586,427 c -1.6723,0 -2.9105,1.6231 -2.1621,2.83398 0.9687,1.56733 3.6035,0.83617 3.6035,-1 0,-1.00833 -0.6488,-1.83398 -1.4414,-1.83398 z m -18.7891,1.3418 c 0.3525,-0.0849 -0.1077,1.46183 -1.3789,4.63867 -0.8847,2.21113 -2.0097,4.01953 -2.5,4.01953 -1.4084,0 -1.0591,-1.20858 1.584,-5.5 1.2562,-2.03946 2.0208,-3.09215 2.2949,-3.1582 z m -940.57028,60.52539 c -3.29668,0.0467 -8.16592,1.38796 -9.2461,2.68945 -2.12719,2.56311 -0.62851,4.73309 4.04688,5.85938 l 4.5,1.08398 0.71484,5.5 c 0.39333,3.025 0.98022,12.88546 1.30274,21.91211 0.32253,9.02664 0.91048,17.12664 1.30859,18 1.37096,3.00753 -0.1958,11.57828 -2.85937,15.63867 l -1.92188,2.92774 -0.67578,-3.38086 c -0.88437,-4.42186 -8.16135,-12.10281 -11.44726,-12.08204 -3.15075,0.0199 -4.06442,0.72171 -6.80665,5.23438 -1.36015,2.23831 -3.05218,3.75 -4.19726,3.75 -1.23233,0 -1.91797,0.6946 -1.91797,1.94141 0,1.06754 -0.51627,2.25893 -1.14648,2.64843 -0.81877,0.50602 -0.93478,-0.11979 -0.40625,-2.1914 0.40682,-1.59453 0.88403,-3.57344 1.05859,-4.39844 0.60756,-2.87152 2.3761,-6.80976 3.32226,-7.39453 2.26489,-1.39976 6.02391,-10.79033 7.64649,-19.10547 0.96592,-4.95 2.13565,-9.72342 2.59961,-10.60742 0.46395,-0.88401 1.0617,-3.80901 1.32812,-6.5 0.26642,-2.691 0.77793,-6.71487 1.13672,-8.94141 0.88558,-5.49562 -1.12992,-7.34609 -4.83008,-4.43555 -1.8752,1.47504 -2.8675,3.58062 -3.65234,7.75391 -0.59267,3.15145 -1.61245,7.30547 -2.26562,9.23047 -0.65316,1.925 -1.50366,5.975 -1.89063,9 -0.85533,6.68625 -3.14978,13.89963 -6.43945,20.25 -1.3535,2.61279 -2.46094,5.62416 -2.46094,6.69141 0,1.06726 -0.45854,2.2236 -1.01953,2.57031 -0.56832,0.35124 -0.9556,3.93715 -0.875,8.09766 0.11989,6.19258 0.70102,8.63017 3.41015,14.2832 3.18229,6.64029 6.879,10.43877 10.98438,11.28711 4.70934,0.97315 9.7242,-1.49711 17.34961,-8.54688 4.20813,-3.89045 7.80454,-7.98716 7.99219,-9.10351 0.18764,-1.11634 0.93256,-2.7043 1.65625,-3.5293 4.63892,-5.28834 5.10839,-32.80818 1.05664,-62 -0.72521,-5.225 -1.15824,-9.7782 -0.96094,-10.11719 0.57036,-0.98001 -2.89863,-3.67205 -5.09375,-3.95312 -0.39114,-0.0501 -0.82983,-0.0692 -1.30078,-0.0625 z m 414.94922,12.91406 c 0.69618,0.015 1.67233,0.30544 3.11914,0.70508 4.32632,1.19502 6.52684,2.03867 13.98633,5.35547 2.33573,1.03857 7.84609,2.67 12.24609,3.625 4.4,0.955 9.125,2.14503 10.5,2.64648 3.35356,1.22302 15.18091,3.03251 22.11133,3.38281 3.08669,0.15602 6.91169,0.53561 8.5,0.84375 2.31462,0.44906 24.83469,1.96251 28.88867,1.94141 6.4128,-0.0334 27.54724,-2.98036 34.73828,-4.84375 3.2084,-0.83136 6.26672,-1.24368 6.79688,-0.91602 1.93547,1.19619 0.87754,4.17441 -2.85547,8.03125 -2.10133,2.17104 -4.84048,5.42009 -6.08594,7.22071 -1.24546,1.80061 -4.76442,5.62561 -7.82031,8.5 -3.0559,2.87438 -7.62926,7.44367 -10.16406,10.15429 -2.53481,2.71062 -5.95938,6.31062 -7.60938,8 -1.65,1.68938 -4.93666,5.62096 -7.30469,8.73633 -2.36802,3.11537 -4.95552,5.91388 -5.75,6.21875 -0.79447,0.30487 -1.44531,1.17462 -1.44531,1.93164 0,0.75702 -0.96871,2.23351 -2.15234,3.28125 C 650.72212,579.36241 640,592.95158 640,594.14648 c 0,0.5589 -1.50763,2.89299 -3.34961,5.18555 -3.54334,4.41012 -13.99211,25.0965 -15.23828,30.16797 -0.40545,1.65 -1.74719,4.575 -2.98242,6.5 -1.23522,1.925 -2.54897,4.9625 -2.91797,6.75 -0.36899,1.7875 -0.99482,3.25 -1.39063,3.25 -0.78825,0 -3.12109,5.89357 -3.12109,7.88477 0,0.6837 -1.05524,3.57742 -2.3457,6.42968 -1.29045,2.85225 -3.15731,7.33828 -4.14844,9.96875 -0.99113,2.63046 -2.18588,5.0191 -2.6543,5.3086 -0.46842,0.2895 -0.85156,1.15402 -0.85156,1.92187 0,0.76784 -1.31023,4.22921 -2.91211,7.69141 -2.8812,6.22726 -5.69441,16.55017 -6.62109,24.29492 -0.81051,6.77377 -3.05792,18.02861 -3.85742,19.32227 -0.41733,0.67522 -0.86758,3.17433 -1.00196,5.55468 -0.28528,5.05354 -3.86273,11.64389 -9.51367,17.52539 -2.16487,2.2532 -4.41573,4.09766 -5.00195,4.09766 -0.58623,0 -2.2044,-1.80107 -3.59375,-4.00195 -1.38935,-2.20088 -5.96185,-7.40488 -10.16211,-11.56446 C 549.85167,732.03152 537.69078,725 531.64453,725 c -6.2175,0 -6.79391,-3.08235 -3.17969,-17 2.37778,-9.1564 2.47007,-9.58706 3.97461,-18.5 0.74274,-4.4 2.31328,-12.275 3.49024,-17.5 1.17697,-5.225 2.5978,-12.16792 3.15625,-15.42773 0.55844,-3.25981 1.25939,-6.32254 1.55859,-6.80665 0.63688,-1.03048 1.43373,-5.47236 1.45313,-8.09765 0.007,-1.00765 0.47329,-3.03265 1.03515,-4.5 0.56186,-1.46734 1.24913,-4.69297 1.52735,-7.16797 0.27821,-2.475 0.97916,-6.3 1.55664,-8.5 0.57748,-2.2 1.18489,-5.35 1.34961,-7 0.16471,-1.65 1.26875,-9.3 2.45312,-17 1.18436,-7.7 2.31212,-15.125 2.50781,-16.5 0.19568,-1.375 0.57188,-3.85 0.83399,-5.5 0.26212,-1.65 0.76644,-5.925 1.12109,-9.5 0.35465,-3.575 1.10678,-8.90537 1.67188,-11.8457 0.5651,-2.94033 1.17562,-7.89033 1.35742,-11 0.70769,-12.10498 2.49046,-27.82385 4.04297,-35.6543 0.88148,-4.44597 1.06214,-5.75185 2.59375,-5.71875 z M 135.00977,554 c 1.42986,0 3.16448,4.87563 2.49023,7 -0.83675,2.63634 -3.76229,4.69725 -6,4.22656 -2.94529,-0.61953 -3.89527,-1.87779 -2.55859,-3.39258 0.64695,-0.73316 2.04421,-2.79648 3.10351,-4.58398 1.0593,-1.7875 2.39316,-3.25 2.96485,-3.25 z m 240.72656,11.60352 c -2.55226,-0.0423 -5.77589,0.0448 -9.79492,0.25976 -3.46318,0.18523 -5.8924,2.12623 -6.42969,5.13867 -0.92534,5.1881 -1.62016,10.8089 -2.5332,20.49805 -0.51829,5.5 -1.18691,11.575 -1.48633,13.5 -0.29943,1.925 -0.74422,5.23769 -0.98828,7.36133 -0.24407,2.12365 -0.87283,4.37684 -1.39649,5.00781 -0.52366,0.63098 -1.26025,5.41829 -1.63867,10.63867 -0.54089,7.46151 -0.33452,10.70738 0.9707,15.17188 2.28836,7.82727 9.25527,16.79966 15.06055,19.39843 4.19051,1.87595 6.86303,1.73806 11.76172,-0.60937 5.38468,-2.58033 8.47282,-5.35628 12.22851,-10.98633 7.22038,-10.82389 8.18123,-17.29137 5.39844,-36.36719 -1.13256,-7.76365 -2.19761,-16.14023 -2.36523,-18.61523 -0.60019,-8.86201 -2.59053,-22.55062 -3.67383,-25.26367 -0.68302,-1.71059 -2.10222,-2.98387 -3.72656,-3.34571 -1.44288,-0.32137 -3.97305,-0.89297 -5.62305,-1.26953 -1.33081,-0.30371 -3.21141,-0.47523 -5.76367,-0.51757 z m 4.37695,5.43554 c 2.07211,0.084 3.3247,1.12234 4.37695,3.21094 0.90055,1.7875 2.51368,9.775 3.58399,17.75 4.48719,33.43467 4.81319,41.71377 1.85742,47.11914 -0.78766,1.44045 -2.50952,4.59045 -3.82617,7 -2.34704,4.2952 -5.81544,7.62165 -7.41016,7.10547 -0.44267,-0.14329 -1.78044,0.42275 -2.97265,1.25781 -3.42143,2.39646 -6.31222,1.97892 -5.80664,-0.83789 0.0844,-0.47039 -0.31738,-1.42371 -0.89454,-2.11914 -0.79732,-0.96072 0.57439,-2.19938 5.7129,-5.1582 5.12301,-2.94989 7.20041,-4.82187 8.56445,-7.71875 1.2068,-2.56296 1.47704,-4.21299 0.82226,-5.00196 -0.53736,-0.64747 -1.18926,-3.02821 -1.44921,-5.29101 C 381.9502,622.07399 378.25535,616 375.15625,616 c -2.60017,0 -8.06897,4.33421 -9.65234,7.65039 -1.71028,3.58197 -2.10725,6.8533 -0.5293,4.35742 0.71284,-1.12751 1.22302,-1.20862 2.0957,-0.33593 1.5696,1.5696 0.17921,3.54178 -2.00781,2.84765 -1.42373,-0.45187 -1.94465,0.26445 -2.66602,3.66797 l -0.89648,4.23047 -1.76953,-2.70313 c -2.42546,-3.70561 -2.68421,-7.36618 -1.04883,-14.8457 2.07182,-9.47567 4.37729,-22.70673 4.94141,-28.36914 0.27397,-2.75 0.64652,-6.35 0.82812,-8 0.1816,-1.65 0.37917,-4.6875 0.43945,-6.75 0.0931,-3.18492 0.44843,-3.75283 2.35938,-3.76562 1.2375,-0.008 4.05,-0.66251 6.25,-1.45508 2.89498,-1.04296 5.00164,-1.55558 6.61328,-1.49024 z m -3.99023,53.91211 c 0.065,-0.006 0.11684,0.01 0.15234,0.0488 0.24979,0.275 0.75574,2.86811 1.125,5.76172 0.63049,4.94064 0.52266,5.31676 -1.76758,6.1875 -1.34132,0.50997 -2.73286,1.40435 -3.09375,1.98828 -0.36088,0.58392 -1.02925,1.0625 -1.48437,1.0625 -1.16477,0 -1.82604,-5.41549 -0.9336,-7.64453 0.93875,-2.34472 5.02655,-7.3083 6.00196,-7.4043 z m -14.02344,18.15625 c 0.87973,0.12297 1.90039,1.2567 1.90039,2.45117 0,0.79254 -0.46399,1.44141 -1.03125,1.44141 -1.19717,0 -2.48084,-2.81994 -1.6582,-3.64258 0.21892,-0.21893 0.49582,-0.29099 0.78906,-0.25 z m 165.64062,89.25781 c 3.40291,-0.0756 7.8765,1.08885 12.20899,3.51954 8.02378,4.50164 12.05078,7.2755 12.05078,8.30273 0,0.545 2.47355,3.76417 5.49609,7.15234 3.02252,3.38818 5.498,6.88454 5.5,7.76954 0.002,0.88499 -1.34134,4.25999 -2.98437,7.5 -1.64304,3.24 -2.993,6.46893 -3,7.17578 -0.007,0.70685 -0.73121,2.38333 -1.61133,3.72656 -1.55214,2.36886 -3.31123,7.90513 -3.80859,11.98828 -0.13399,1.1 -0.71746,3.125 -1.29688,4.5 -0.57942,1.375 -1.22536,3.39459 -1.43554,4.48828 -0.49853,2.59403 -2.54397,2.74338 -6.85938,0.49805 -1.925,-1.00159 -7.93364,-3.26514 -13.35352,-5.0293 -8.20047,-2.66924 -10.76873,-3.10079 -15.29882,-2.56836 l -5.44336,0.64063 0.70117,-3.76563 c 0.38579,-2.07041 1.73497,-6.7282 2.99805,-10.35156 1.26308,-3.62336 2.59154,-8.79836 2.95312,-11.5 0.36158,-2.70164 0.932,-5.36211 1.26563,-5.91211 0.97739,-1.61125 6.09131,-21.79055 6.13671,-24.21484 0.0474,-2.52805 2.37835,-3.84428 5.78125,-3.91993 z m 43.46094,25.05274 C 571.65576,757.32985 572,757.9505 572,758.94141 572,760.07387 571.55,761 571,761 c -0.55,0 -1,-0.64887 -1,-1.44141 0,-0.79254 0.45,-1.71867 1,-2.05859 0.0688,-0.0425 0.13623,-0.0694 0.20117,-0.082 z m -62.25586,41.38672 c 3.48104,0.0651 7.52161,0.51403 10.49414,1.31445 4.40152,1.18521 5.88016,1.51851 12.30078,2.7832 2.33181,0.45931 4.80681,1.26959 5.5,1.80078 0.6932,0.53121 3.84727,1.52281 7.00977,2.20313 4.90962,1.05615 5.75,1.56222 5.75,3.46484 0,1.22555 -0.53922,2.76969 -1.19922,3.42969 -1.45217,1.45217 -0.59288,1.59987 -10.30078,-1.77148 -15.12068,-5.2511 -21.01458,-6.80936 -27.92188,-7.37696 -7.46424,-0.61337 -11.03501,-2.59389 -8.76562,-4.86328 0.73111,-0.73111 3.65177,-1.04951 7.13281,-0.98437 z m -9.05273,11.55469 c 0.27532,-0.007 0.57696,-0.006 0.90039,0.002 5.60601,0.14287 17.97886,2.4906 20.92187,4.28711 1.21815,0.7436 3.01815,1.35914 4,1.36914 0.98185,0.01 4.13577,1.31579 7.00977,2.90039 2.874,1.5846 7.70636,3.66157 10.73828,4.61523 7.15847,2.25161 8.12149,3.43515 6.05078,7.43946 -1.51299,2.92579 -7.18646,7.34315 -8.44336,6.57422 -0.31386,-0.19202 -2.99319,-0.60963 -5.95508,-0.92774 -4.19147,-0.45017 -7.02295,-0.0274 -12.77148,1.90234 -4.3657,1.46552 -9.72889,2.48786 -13.11523,2.50196 -3.15092,0.0131 -7.35672,0.40285 -9.34571,0.86523 -1.98899,0.46238 -4.23899,0.52511 -5,0.13867 C 494.1218,841.6408 490.8,840.72761 487.5,840 c -3.3,-0.72761 -6.34463,-1.61662 -6.76562,-1.97656 -1.15168,-0.98467 1.69271,-6.0234 5.93945,-10.52344 2.07617,-2.2 5.13646,-6.65175 6.80078,-9.89258 1.66431,-3.24083 3.78616,-6.37272 4.7168,-6.95898 0.28044,-0.17667 0.87519,-0.26816 1.70117,-0.28906 z M 529.00977,844.5 c 0.89747,0.0207 1.85572,0.19368 2.95703,0.49023 2.27253,0.61197 4.96156,0.8495 5.97656,0.52735 1.05142,-0.33371 2.53654,0.10491 3.45117,1.01953 1.93304,1.93305 1.98332,2.59569 0.35547,4.6875 -0.96141,1.23544 -3.62218,1.699 -11.52539,2.01172 -11.47004,0.45384 -13.79427,-0.46496 -9.96289,-3.94141 3.90013,-3.53884 6.05561,-4.85713 8.74805,-4.79492 z m -40.39454,2.63477 c 3.11023,0.13614 3.71792,1.23769 2.88086,3.875 -0.80816,2.5463 -3.29467,3.85789 -8.57617,4.52148 -2.31398,0.29074 -4.48101,0.6789 -4.81445,0.86328 C 476.80149,857.11558 475,855.74221 475,854.02734 c 0,-3.88703 3.23772,-6.14862 9.63281,-6.72851 1.63178,-0.14796 2.94568,-0.20945 3.98242,-0.16406 z m 21.61719,0.19921 c 0.14593,0.007 0.26878,0.0274 0.36524,0.0645 2.0907,0.80228 1.72192,5.36054 -0.53125,6.5664 -2.1693,1.16097 -7.37939,1.39014 -8.40039,0.36914 -1.57635,-1.57634 -0.39253,-3.43186 3.43164,-5.38281 1.97166,-1.00586 4.11327,-1.66619 5.13476,-1.61719 z"/>
</svg>
