<?xml version="1.0" encoding="utf-8"?>
<svg xmlns="http://www.w3.org/2000/svg" version="1.1" viewBox="0 0 72 104">
	<title>The letter K is decorated with vines.</title>
	<path d="m 18.94428,93.478823 c -6.0182,-4.405261 -7.542382,-11.156971 -3.862721,-17.110789 2.249807,-3.640263 5.839577,-4.95771 3.965084,-1.455187 -0.563049,1.052066 -1.438292,2.064566 -1.944984,2.25 -1.888693,0.691204 -1.854825,6.523489 0.06216,10.70507 2.16436,4.721179 4.807378,6.164357 11.536699,6.299429 4.635996,0.09306 7.700768,-1.769873 8.605903,-5.231115 C 37.912248,86.619544 36.27444,85.325556 34.712864,86.887132 34.10079,87.49921 33.24,88 32.8,88 c -1.405831,0 -0.856543,-4.708184 0.7,-6 2.804098,-2.327195 1.511116,-2.888691 -6,-2.605586 C 21.761262,79.610714 20,79.362761 20,78.338549 20,77.602347 20.605256,77 21.345012,77 c 0.739757,0 2.081335,-0.813626 2.981283,-1.808059 1.336812,-1.47716 1.734839,-5.051155 2.174853,-19.528623 0.579722,-19.07416 0.212646,-21.061236 -4.200638,-22.739164 -1.417838,-0.539061 -2.252607,-1.30502 -1.855044,-1.702132 0.673021,-0.672257 17.549732,-1.079974 17.553034,-0.424056 8.25e-4,0.163881 -1.161814,1.298607 -2.583643,2.521612 -2.394311,2.0595 -2.612091,2.946709 -2.950198,12.018767 -0.426102,11.433158 0.307229,11.895412 5.304291,3.343549 2.644296,-4.525391 3.101158,-6.056082 2.270692,-7.607823 -1.613972,-3.015734 -1.210558,-4.88003 0.557002,-2.574071 1.522031,1.98564 1.546828,1.983179 3.453683,-0.34286 1.471674,-1.795192 1.682053,-2.788675 0.899976,-4.25 C 44.388934,32.858213 43.420465,32 42.79815,32 c -0.622316,0 -0.838287,-0.293196 -0.479936,-0.651547 0.358351,-0.358351 3.801699,-0.726699 7.651884,-0.818551 3.850185,-0.09185 7.286032,-0.452699 7.635216,-0.801882 1.232471,-1.232471 -0.642382,-5.611242 -3.720521,-8.689381 C 48.855069,16.008916 43.923183,14 36.604938,14 c -8.141631,0 -10.742842,0.998098 -16.229719,6.227428 -6.484491,6.180115 -8.163918,14.346109 -4.448307,21.629308 2.533172,4.965428 4.827756,6.946163 5.628735,4.858846 0.318622,-0.830316 0.49563,-2.118497 0.39335,-2.862624 C 21.553304,40.974116 22.036596,37 22.782386,37 c 0.430313,0 0.833661,2.3625 0.896329,5.25 0.06267,2.8875 0.241219,6.6 0.396779,8.25 0.482914,5.122214 -0.97826,17.677914 -2.233254,19.190089 -0.76905,0.926648 -2.087798,1.214112 -3.706271,0.807901 -5.333012,-1.338501 -6.555303,-6.71335 -3.054195,-13.430374 1.144976,-2.196685 1.812636,-4.429447 1.483688,-4.961696 -0.328947,-0.532248 -0.140745,-1.250375 0.418226,-1.595839 0.558972,-0.345463 1.067979,0.185943 1.131128,1.180902 0.738828,11.640808 0.699923,12.166161 -0.948,12.801199 -1.523204,0.586976 -1.511526,0.729488 0.135542,1.654059 3.343164,1.876662 4.845946,-0.731346 4.52604,-7.854731 C 21.581739,52.799117 21.165236,51.586817 18.801239,49.480487 13.722694,44.955482 11.697395,39.473375 12.25015,31.747903 12.657438,26.055518 13.246307,24.259168 15.709882,21.193951 17.342778,19.162278 20.663558,16.375 23.089392,15 26.907167,12.836027 28.844107,12.479326 37.5,12.346187 c 5.5,-0.0846 11.537435,0.312532 13.416523,0.88251 2.893002,0.877524 3.61927,0.759048 4.739667,-0.773187 1.497483,-2.047929 2.899346,-1.345598 1.998733,1.001362 C 57.329239,14.305592 55.923646,15 54.531385,15 c -3.213354,0 -3.197285,1.029275 0.06363,4.075686 3.825045,3.573434 5.662141,7.749528 5.563823,12.64771 C 60.007153,39.280324 54.825409,45 48.130892,45 c -5.317748,0 -5.797733,2.908686 -1.776952,10.768238 1.894105,3.702469 4.646018,9.358378 6.115361,12.568686 1.713999,3.744847 3.719292,6.433006 5.594794,7.5 1.607793,0.914692 2.926105,1.96631 2.929582,2.336929 0.0068,0.719385 -15.931799,1.637686 -17.317121,0.997727 -0.452893,-0.209217 0.109607,-1.033929 1.25,-1.832692 C 46.06695,76.540125 47,74.986618 47,73.886651 47,71.52718 39.19178,56 38.005263,56 c -0.448371,0 -2.014023,2.045604 -3.479227,4.545786 -2.381098,4.063035 -2.576492,5.095593 -1.83992,9.723011 0.625498,3.929602 1.378714,5.453735 3.125601,6.324653 C 38.419309,77.893476 42,83.950901 42,87.062117 42,92.711791 36.939204,96 28.24394,96 23.562511,96 21.698012,95.494526 18.94428,93.478823 Z M 53.783205,41.439296 C 55.726607,40.078084 59,35.127558 59,33.54966 c 0,-0.808232 -4.326343,-0.640212 -5.552863,0.215653 -2.057038,1.4354 -6.426915,7.921575 -5.775686,8.572805 1.125017,1.125017 3.779709,0.734606 6.111754,-0.898822 z m 0.883462,50.894037 C 53.376898,91.043565 54.019161,89 55.714286,89 c 1.616677,0 1.617023,-0.09726 0.0061,-1.708213 -1.71701,-1.716983 -3.975799,-1.482701 -11.220386,1.163778 -1.603272,0.585682 -1.506633,0.328666 0.487176,-1.295682 4.945537,-4.029105 13.115875,-3.56128 14.509873,0.830821 1.0272,3.236419 -2.639838,6.533174 -4.830382,4.342629 z M 52.487171,61.144742 c -2.762626,-7.041469 -2.960553,-10.1549 -0.693555,-10.909748 0.923234,-0.307411 1.117901,0.269369 0.679903,2.014493 -0.386589,1.540293 0.337435,4.786024 1.956383,8.77028 C 57.357644,68.224984 57.304189,68 56.088369,68 55.586973,68 53.966433,64.915134 52.487171,61.144742 Z M 16.345983,32.49243 c 0.339807,-2.479164 1.338248,-5.607066 2.218758,-6.950893 4.185163,-6.387366 19.132833,-8.934872 23.980714,-4.086992 2.79765,2.797651 3.09945,4.765342 0.99835,6.5091 -2.026341,1.681714 -3.820429,0.27465 -3.134498,-2.458317 0.860775,-3.429604 -1.571942,-4.840247 -7.384106,-4.281771 C 24.77941,22.015873 18,28.286942 18,35.122124 18,36.154956 17.488834,37 16.864076,37 c -0.771273,0 -0.93759,-1.447007 -0.518093,-4.50757 z"/>
</svg>
