<?xml version="1.0" encoding="utf-8"?>

<svg xmlns="http://www.w3.org/2000/svg" version="1.1" viewBox="0 0 500 1582">











	<path d="M 34.759783,1562.25 C 33.115612,1561.5625 30.922045,1561 29.88519,1561 28.666667,1561 28,1560.2927 28,1559 c 0,-1.7145 0.677977,-2.0048 4.75,-2.0339 5.066683,-0.036 13.28406,-3.209 11.371902,-4.3908 -0.617046,-0.3813 -1.609745,-0.3918 -2.205998,-0.023 -0.683483,0.4224 -0.960635,-0.1468 -0.75,-1.5403 0.282298,-1.8676 2.349603,-2.8959 13.334096,-6.6325 8.54547,-2.907 13.985612,-4.2435 15.876389,-3.9005 2.104314,0.3818 4.788493,-0.5077 10,-3.3137 3.917986,-2.1096 9.598611,-4.5595 12.623611,-5.4443 3.025,-0.8848 8.875,-2.5756 13,-3.7572 4.125,-1.1817 8.21294,-2.3649 9.08432,-2.6293 1.11263,-0.3377 1.88866,0.5086 2.60657,2.8425 l 1.02226,3.3233 1.14342,-2.8151 c 0.62889,-1.5483 1.15032,-4.4733 1.15874,-6.5 0.0111,-2.6655 0.27283,-3.2777 0.94621,-2.2129 0.77862,1.2312 1.03631,1.1494 1.57536,-0.5 0.35446,-1.0846 1.10675,-2.9416 1.67175,-4.1266 0.56499,-1.1851 0.802,-2.5351 0.52666,-3 -0.27533,-0.465 -0.0995,-3.5454 0.39066,-6.8454 1.50701,-10.1453 1.9092,-35.7741 0.54362,-34.6406 -0.8889,0.7377 -1.13861,-6.3882 -1.04057,-29.6943 0.0955,-22.7022 -0.22525,-32.2231 -1.23522,-36.6651 -1.6983,-7.4693 -1.73039,-15.4739 -0.0708,-17.6556 1.26719,-1.6658 1.29339,-5.3588 0.27206,-38.3444 -0.40707,-13.1469 -1.11662,-24.457 -2.16439,-34.5 -0.31559,-3.025 -0.76125,-23.95 -0.99036,-46.5 -0.64013,-63.0071 -1.30044,-73.2278 -5.5422,-85.786 -1.15439,-3.4177 -2.25321,-7.0032 -2.44182,-7.9678 -0.73661,-3.7673 -2.18664,-28.4917 -1.92048,-32.7462 0.32887,-5.2572 -1.80258,-19.3057 -4.47995,-29.5276 -1.74782,-6.673 -4.16844,-12.1167 -11.918617,-26.8037 -1.692424,-3.2073 -3.372658,-7.4823 -3.733851,-9.5 -0.361193,-2.0178 -1.315184,-4.4238 -2.119978,-5.3468 -1.051233,-1.2056 -1.184458,-2.1763 -0.47313,-3.4474 0.603747,-1.0788 0.644623,-2.678 0.104745,-4.098 -1.08748,-2.8603 -1.913966,-6.6647 -2.449775,-11.2765 -0.223649,-1.925 -1.09789,-7.1 -1.942758,-11.5 -1.621616,-8.4452 -2.167883,-11.8851 -3.176136,-20 -0.341678,-2.75 -0.958507,-5.45 -1.370732,-6 -1.297962,-1.7318 -1.953148,-8.4676 -2.528978,-26 -0.307089,-9.35 -0.645713,-18.11096 -0.752497,-19.46879 -0.125766,-1.5992 0.388045,-2.58708 1.458721,-2.80462 1.257897,-0.25558 1.816111,0.69282 2.335977,3.96879 0.375706,2.36754 1.769412,8.4651 3.097125,13.55013 C 84.913689,987.83055 86,993.25852 86,994.80769 c 0,1.54916 0.913484,4.70735 2.029965,7.01821 1.116481,2.3108 2.452075,5.3118 2.967987,6.6687 0.589194,1.5497 1.47136,2.2625 2.372203,1.9169 1.019262,-0.3912 2.041097,1.0717 3.532013,5.0566 1.153807,3.0838 2.107715,6.3775 2.119794,7.3194 0.01208,0.9419 0.912079,3.6741 1.999998,6.0717 1.08792,2.3976 1.97804,6.3058 1.97804,8.6849 0,6.4729 1.34193,9.1323 4.8694,9.65 2.79702,0.4106 3.13341,0.1145 4.68819,-4.1259 1.304,-3.5565 1.62318,-7.4473 1.44119,-17.5682 -0.12857,-7.15 -0.41849,-14.575 -0.64428,-16.5 -0.63546,-5.4177 -1.24537,-101.70132 -0.65845,-103.94571 0.58234,-2.22684 4.21367,-3.81442 5.1788,-2.26412 0.34383,0.55231 0.39791,7.23797 0.12017,14.85701 -0.67635,18.55395 -0.36624,78.70609 0.43487,84.35282 0.35114,2.475 0.90171,5.175 1.22349,6 0.32178,0.825 0.71327,12.075 0.86997,25 0.1567,12.925 0.55871,31.15 0.89335,40.5 0.33465,9.35 0.849,23.75 1.14301,32 0.58714,16.4756 1.23104,29.7309 2.04024,42 0.63996,9.7032 0.62261,6.2197 0.14691,29.5 -0.21915,10.725 -0.0681,23.1 0.33576,27.5 0.40382,4.4 1.01926,15.65 1.36764,25 0.34837,9.35 1.07902,19.5579 1.62365,22.6842 0.54464,3.1264 1.15895,16.322 1.36513,29.3237 0.20619,13.0016 0.64175,23.9062 0.96792,24.2324 0.32617,0.3262 0.56452,1.7555 0.52965,3.1764 -0.0623,2.5405 -0.0784,2.546 -0.96777,0.3333 -1.61534,-4.0188 -2.05502,-2.3946 -1.08286,4 0.0627,0.4125 0.74335,0.75 1.51253,0.75 1.43346,0 3.02914,10.4322 2.75322,18 -0.0702,1.925 0.35005,7.325 0.93385,12 1.55505,12.4525 2.20915,48.3002 0.86618,47.4702 -0.58842,-0.3637 -0.99348,-1.6307 -0.90012,-2.8157 0.43044,-5.4634 -0.14409,-10.6545 -1.17919,-10.6545 -0.82568,0 -0.93331,6.4923 -0.40204,24.25 0.39903,13.3375 0.88345,36.4 1.07648,51.25 0.43428,33.4093 1.225,53.3277 2.17721,54.844 0.39929,0.6358 0.60318,1.9036 0.45309,2.8174 -0.3829,2.3312 1.71799,3.3451 3.13934,1.5152 0.65091,-0.838 3.43347,-2.7414 6.18347,-4.2298 11.47123,-6.2084 11.90986,-7.3646 11.19761,-29.5186 -0.35038,-10.8981 -0.19552,-18.0303 0.4045,-18.6303 0.62213,-0.6221 0.62912,-1.8746 0.0194,-3.4783 -1.38102,-3.6323 -1.68979,-33.4685 -0.36728,-35.4903 1.22627,-1.8747 6.21447,-2.7983 6.41427,-1.1877 0.94356,7.6064 1.1464,21.2909 0.35266,23.7917 -0.37752,1.1895 -0.21692,2.7284 0.3569,3.4198 1.19337,1.4379 2.78975,11.6666 3.53447,22.6469 0.27977,4.125 0.5264,7.6125 0.54807,7.75 0.0217,0.1375 0.56994,0.25 1.21839,0.25 0.64844,0 2.56094,1.5029 4.25,3.3399 1.68905,1.8369 3.69321,3.5443 4.4537,3.7942 0.92871,0.3052 1.15283,1.1786 0.68261,2.6601 -0.95537,3.0101 -4.30757,2.8269 -7.6973,-0.4207 l -2.74143,-2.6264 0.0648,3.3764 c 0.12757,6.6516 6.57837,10.9142 16.97424,11.2163 6.11618,0.1777 7.74242,-0.1454 10.64403,-2.1145 1.88369,-1.2783 3.65883,-2.0902 3.94476,-1.8043 0.28594,0.286 1.86004,-0.4344 3.49802,-1.6007 1.63798,-1.1664 3.93877,-2.2556 5.11288,-2.4206 1.17411,-0.165 3.48474,-0.714 5.13474,-1.2201 l 3,-0.9201 -2.63351,-0.7089 c -1.44842,-0.3899 -4.37342,-0.2258 -6.5,0.3647 -5.51942,1.5325 -6.11649,1.3888 -6.11649,-1.4725 v -2.5572 l 12.24005,0.4034 c 11.53232,0.38 12.45022,0.5637 15.875,3.1759 1.99922,1.5248 3.63495,3.2882 3.63495,3.9184 0,1.5564 -13.8183,7.9004 -15.66487,7.1918 -0.81075,-0.3111 -5.23678,1.2302 -9.83562,3.4251 -9.51831,4.5429 -18.80186,7.2096 -25.8026,7.4119 -3.80848,0.11 -4.48148,-0.097 -3.25,-0.9969 0.8542,-0.6246 1.55309,-1.3417 1.55309,-1.5936 0,-0.3816 -12.9783,2.682 -13.75,3.2458 -0.1375,0.1004 -0.5875,0.2787 -1,0.3962 -2.92978,0.8343 -12.06127,5.6041 -13.08104,6.8328 -0.68805,0.8291 -2.34185,1.7812 -3.67511,2.1158 -1.33326,0.3346 -4.44333,1.9712 -6.91126,3.6367 -2.46793,1.6656 -8.22113,4.1859 -12.78487,5.6007 -4.56375,1.4147 -9.64772,3.1373 -11.29772,3.8279 -1.65,0.6906 -5.475,2.0828 -8.5,3.0937 -3.025,1.0109 -6.21043,2.421 -7.07874,3.1334 -0.86831,0.7125 -2.019781,1.2954 -2.558829,1.2954 -0.539048,0 -3.610185,1.5838 -6.824749,3.5195 -3.214563,1.9357 -7.013091,3.7704 -8.441171,4.0772 L 81.5,1549.1544 84,1547.6201 c 1.375,-0.8438 3.468787,-1.9758 4.652861,-2.5155 2.342345,-1.0676 3.851019,-2.9341 3.032921,-3.7522 -0.282969,-0.2829 -1.4751,-3e-4 -2.649181,0.628 -1.17408,0.6284 -5.150084,1.3171 -8.835563,1.5306 -7.900633,0.4575 -10.475841,2.536 -9.696543,7.826 0.459961,3.1223 0.343601,3.2209 -9.039764,7.663 -8.489985,4.0192 -10.264919,4.5 -16.610633,4.5 -3.907702,0 -8.450143,-0.5625 -10.094315,-1.25 z M 186,1507 c 0,-0.55 -0.87344,-1 -1.94098,-1 -1.06754,0 -2.2191,0.45 -2.55902,1 -0.35052,0.5672 0.48962,1 1.94098,1 1.40746,0 2.55902,-0.45 2.55902,-1 z m -52,-131.441 c 0,-0.2425 -0.45,-0.7191 -1,-1.059 -0.55,-0.3399 -1,-0.1415 -1,0.441 0,0.5824 0.45,1.059 1,1.059 0.55,0 1,-0.1984 1,-0.441 z m -1.03041,-7.809 c -0.0242,-2.5852 -0.22908,-2.9096 -1.00159,-1.5859 -0.53416,0.9152 -0.69733,2.3777 -0.36261,3.25 0.94078,2.4516 1.3975,1.8945 1.3642,-1.6641 z M 132,1351.5 c 0,-3.025 -0.45,-5.5 -1,-5.5 -1.10166,0 -1.40056,9.2661 -0.33333,10.3333 1.20254,1.2026 1.33333,0.7285 1.33333,-4.8333 z m 0,-12 c 0,-0.7601 -0.45,-1.6601 -1,-2 -0.5694,-0.3519 -1,0.5093 -1,2 0,1.4907 0.4306,2.3519 1,2 0.55,-0.3399 1,-1.2399 1,-2 z m -0.83636,-14.224 c -0.55457,-4.7503 -2.73424,-3.5324 -2.37933,1.3294 0.15637,2.142 0.55582,4.5696 0.88765,5.3946 0.90208,2.2427 1.97426,-2.5903 1.49168,-6.724 z m -13.62337,-159.9716 c -0.97701,-3.8927 -2.39043,-1.6575 -1.86275,2.9458 0.26793,2.3374 0.7695,4.9248 1.11459,5.7498 0.84942,2.0307 1.51085,-5.6568 0.74816,-8.6956 z m -7.88202,-76.4748 c 1.4098,-4.7747 -0.57254,-16.639 -5.59614,-33.4928 -3.6105,-12.1129 -11.448555,-32.678 -13.976368,-36.6704 -2.362633,-3.7315 -3.202632,-1.6742 -1.982678,4.8559 0.499867,2.6756 0.597235,5.7902 0.216373,6.9213 -0.81906,2.4323 -0.459146,6.646 0.688152,8.0564 0.98023,1.205 2.396645,8.2234 2.214216,10.9715 -0.07198,1.0843 0.552529,2.7266 1.387804,3.6496 1.05546,1.1663 1.324743,2.7119 0.882851,5.0674 -0.717864,3.8265 1.925578,12.5276 6.77842,22.3115 7.77637,15.6781 7.33361,15.2853 9.38737,8.3296 z M 74.083333,1552.6355 C 74.3125,1552.435 75.625,1551.7351 77,1551.0803 c 2.357268,-1.1227 2.389176,-1.1018 0.55887,0.3645 -1.592998,1.2763 -4.847861,2.3913 -3.475537,1.1907 z M 122,1513 c 0,-0.55 0.47656,-1 1.05902,-1 0.58246,0 0.7809,0.45 0.44098,1 -0.33992,0.55 -0.81648,1 -1.05902,1 -0.24254,0 -0.44098,-0.45 -0.44098,-1 z m 57.57758,-18.6837 -2.92242,-0.4824 4.04248,-1.8099 c 6.5335,-2.9251 17.30236,-3.62 17.30236,-1.1165 0,2.0266 -12.63403,4.3643 -18.42242,3.4088 z M 123.19495,1428.5 c 0.0204,-1.65 0.2445,-2.2039 0.49804,-1.231 0.25354,0.973 0.23687,2.323 -0.037,3 -0.27393,0.6771 -0.48137,-0.119 -0.46099,-1.769 z M 156.75,1416.2479 c -0.9625,-0.217 -1.75905,-0.9241 -1.77011,-1.5712 -0.0111,-0.6472 -0.43453,-4.0434 -0.94106,-7.5471 -0.50652,-3.5037 -1.01254,-10.1785 -1.12448,-14.8328 -0.11194,-4.6544 -0.5777,-10.4654 -1.03503,-12.9134 -0.45733,-2.4479 -1.05786,-6.5731 -1.33453,-9.1671 -0.27666,-2.594 -0.71572,-5.8413 -0.97568,-7.2163 -1.10567,-5.8481 -1.37637,-14.4916 -0.50486,-16.1201 0.53773,-1.0047 0.56258,-1.9925 0.058,-2.3044 -0.48576,-0.3002 -1.19493,-4.49 -1.57594,-9.3107 -0.82625,-10.4539 -1.42309,-16.6952 -1.98566,-20.7648 -0.85962,-6.2184 -1.55555,-16.4659 -2.07133,-30.5 -0.29309,-7.975 -0.959,-18.1 -1.4798,-22.5 -1.0488,-8.8609 -1.11449,-16.5083 -0.14161,-16.4847 1.23846,0.03 2.78824,1.5124 3.448,3.2981 0.39867,1.079 1.15237,1.5152 1.86116,1.0772 0.80364,-0.4967 -0.10672,-1.9 -2.79823,-4.3134 -3.847,-3.4495 -4.03626,-3.9163 -5.30218,-13.0772 -0.72203,-5.225 -1.47031,-21.65 -1.66283,-36.5 -0.19253,-14.85 -0.53869,-35.7907 -0.76924,-46.5348 -0.33296,-15.5164 -0.11293,-20.4408 1.06964,-23.9392 1.37269,-4.0608 1.35166,-4.5047 -0.26951,-5.6901 -1.52458,-1.1148 -1.78294,-3.25 -1.94336,-16.0608 -0.18896,-15.09 -1.23588,-35.0653 -2.03991,-38.9215 -0.24615,-1.1806 -0.64339,-7.2556 -0.88275,-13.5 -0.23937,-6.2445 -0.88268,-12.5288 -1.42958,-13.9652 -1.1072,-2.908 -3.32649,-27.0787 -3.11886,-33.9681 0.15167,-5.03236 0.38146,-65.45554 0.39828,-104.72538 0.009,-22.02203 -0.22807,-26.47134 -1.45862,-27.32614 -1.11258,-0.77284 -1.16603,-1.14434 -0.21989,-1.52824 0.6875,-0.27897 1.25689,-1.93221 1.26531,-3.67387 0.008,-1.74167 0.42943,-3.82132 0.93558,-4.62144 0.61098,-0.96586 0.37948,-2.37024 -0.68883,-4.17875 -1.64914,-2.79177 -5.49852,-4.5859 -6.09539,-2.84096 -1.14438,3.34552 -5.30018,-1.87532 -6.65519,-8.36075 -0.3258,-1.55938 -1.62796,-3.80938 -2.89369,-5 -2.79067,-2.62508 -7.59905,-11.86122 -8.67576,-16.66477 -0.43149,-1.925 -1.45731,-5.30964 -2.2796,-7.52141 -0.82229,-2.21178 -1.930808,-7.16178 -2.46337,-11 C 98.666498,801.64036 97.329325,796.925 96.227564,795 c -1.101761,-1.925 -2.024165,-4.98288 -2.049787,-6.7953 -0.04883,-3.45402 -2.885299,-9.27387 -4.836943,-9.92442 -2.113447,-0.70448 -1.352658,7.02097 0.934057,9.4849 1.878949,2.02456 2.076328,3.29927 1.858111,12 -0.334576,13.34022 1.28532,26.01673 4.863947,38.06284 1.657149,5.57818 2.915157,10.48635 2.795573,10.90706 -0.322517,1.13464 2.133618,5.41723 4.740058,8.26492 1.25852,1.375 3.23745,4.34243 4.39763,6.5943 1.16017,2.25186 3.23031,5.14733 4.6003,6.43436 1.87113,1.75783 2.17721,2.55058 1.23019,3.18609 -0.72999,0.48987 -0.0338,0.55973 1.65372,0.16595 2.59396,-0.60527 2.82357,-0.47116 2.08816,1.21962 -1.39641,3.21051 -1.7549,9.1257 -0.59645,9.84166 2.30803,1.42644 1.11234,3.55802 -1.99584,3.55802 -2.84426,0 -6.78294,-3.03599 -6.87702,-5.30091 -0.0352,-0.84675 -9.862575,-21.74977 -13.026379,-27.7073 -1.024688,-1.92951 -2.608692,-6.65451 -3.520009,-10.5 C 91.575566,840.64631 90.438024,836.6 89.959011,835.5 c -1.09042,-2.50403 -2.889599,-13.0972 -3.56671,-21 -0.282744,-3.3 -1.158529,-7.68873 -1.94619,-9.75274 -1.129639,-2.96014 -1.29501,-6.92026 -0.782979,-18.75 C 84.020154,777.74877 84.700577,771 85.175183,771 c 0.474607,0 0.592885,1.07591 0.262842,2.39091 -0.860434,3.42824 0.889577,3.95373 3.590929,1.07827 2.585333,-2.75196 6.107708,-3.21436 7.913249,-1.03882 0.6529,0.7867 1.347031,3.92147 1.542513,6.96616 0.195482,3.04469 0.589319,5.91425 0.875193,6.37681 0.285875,0.46255 0.782431,3.02914 1.103471,5.70352 0.82008,6.8318 1.53122,9.51035 3.59031,13.52315 0.98778,1.925 2.1306,4.85 2.5396,6.5 0.409,1.65 0.83658,3.3375 0.95018,3.75 0.11359,0.4125 0.26278,1.3622 0.33153,2.11045 0.0687,0.74825 1.2116,2.96165 2.53967,4.91867 1.32807,1.95702 2.17897,3.7939 1.89091,4.08197 -0.28807,0.28807 0.36938,1.78717 1.46099,3.33133 1.09162,1.54417 2.30033,4.26492 2.68603,6.04611 1.38038,6.37469 2.54744,4.36465 2.57185,-4.42951 0.0134,-4.84496 0.47696,-10.77162 1.03005,-13.17035 0.6263,-2.71628 0.65266,-4.79082 0.0699,-5.5 -1.39812,-1.70134 -2.65687,-36.6502 -2.38212,-66.13867 0.32192,-34.55169 1.19767,-61.60014 2.03732,-62.92494 0.37475,-0.59128 0.76051,-5.80006 0.85723,-11.57506 0.0967,-5.775 0.4444,-13.1114 0.77261,-16.30311 0.45732,-4.44732 1.65733,-28.37048 1.7655,-35.19689 0.009,-0.55 -0.50387,-3.475 -1.13908,-6.5 -1.0942,-5.2108 -0.8415,-29.75234 0.51485,-50 0.27632,-4.125 0.75479,-13.125 1.06326,-20 0.30847,-6.875 0.68647,-15.2 0.83998,-18.5 0.15352,-3.3 0.5542,-7.8 0.89041,-10 0.3362,-2.2 0.86641,-9.625 1.17824,-16.5 0.31183,-6.875 1.42849,-19.475 2.48147,-28 1.05298,-8.525 2.17108,-18.2 2.48468,-21.5 0.31359,-3.3 0.99216,-8.7 1.50794,-12 1.54316,-9.87341 3.00384,-32.22231 2.91341,-44.57625 -0.077,-10.52571 0.24917,-15.35693 1.65856,-24.56356 0.31191,-2.03751 1.17415,-3.32117 2.45601,-3.65638 1.59383,-0.4168 2.00559,-1.45209 2.13188,-5.36019 0.0861,-2.66399 0.27806,-5.96862 0.42661,-7.34362 0.88623,-8.20332 1.44364,-12.90616 1.89642,-16 0.28172,-1.925 0.7355,-7.325 1.00839,-12 0.5392,-9.23724 6.51833,-42.38565 8.56779,-47.5 1.79056,-4.46827 9.34648,-31.64224 10.42714,-37.5 0.95013,-5.1502 5.67044,-20.34827 6.66207,-21.45 0.47028,-0.5225 0.85506,-1.895 0.85506,-3.05 0,-1.155 0.39083,-2.5275 0.86851,-3.05 0.47767,-0.5225 1.6532,-3.2 2.61228,-5.95 5.18367,-14.86335 23.11597,-50.93728 28.34276,-57.01641 1.47205,-1.71209 4.47645,-5.71133 6.67645,-8.88721 2.2,-3.17587 5.53193,-7.85413 7.4043,-10.39614 3.34888,-4.5466 3.38495,-4.70386 2.21585,-9.66104 -0.65365,-2.77156 -1.6251,-10.14066 -2.15878,-16.37578 -0.91075,-10.640477 -0.84725,-11.493042 1.03415,-13.884854 C 220.09798,88.87701 221,87.380499 221,86.952985 c 0,-0.427514 1.7658,-3.854327 3.924,-7.615141 C 227.08221,75.57703 229.64126,70.475 230.61078,68 c 3.32761,-8.494679 26.08197,-37 29.53524,-37 0.46969,0 0.87244,-0.5625 0.89499,-1.25 0.0539,-1.642127 7.40906,-9.75 8.84486,-9.75 1.38482,0 1.47758,3.65734 0.11413,4.5 -0.55,0.339919 -1,1.711742 -1,3.048496 0,1.336754 -1.16597,5.343008 -2.59105,8.902786 -1.42508,3.559778 -3.64038,10.877013 -4.9229,16.260521 C 260.20354,58.095311 258.63959,64.3 258.01062,66.5 c -1.88876,6.606386 -2.78171,11.5 -2.09845,11.5 0.35399,0 2.88106,-2.538443 5.61572,-5.640985 8.60433,-9.761834 15.86961,-16.846069 18.81777,-18.348838 1.56511,-0.797788 5.6841,-4.051445 9.15331,-7.23035 C 293.85318,42.789985 296.62489,41 298.44877,41 c 1.4719,0 3.72929,-1.087152 5.09668,-2.454545 L 306,36.090909 v 2.785546 c 0,2.149791 -1.68743,4.421753 -7.39342,9.954546 C 294.5402,52.77395 290.68691,56 290.04372,56 c -0.64319,0 -1.07309,0.7875 -0.95532,1.75 0.11776,0.9625 -0.97896,4.350331 -2.43715,7.528513 C 285.19306,68.456696 284,71.301697 284,71.600738 c 0,0.908131 -10.80893,22.288382 -12.45912,24.644362 -2.42842,3.467058 -2.03392,4.93667 0.95912,3.572946 1.375,-0.626492 2.5,-1.531345 2.5,-2.010785 0,-1.340198 4.32489,-2.673306 5.90056,-1.818793 0.8236,0.446658 3.50123,-0.267545 6.5,-1.733742 2.80469,-1.37131 6.11194,-2.889613 7.34944,-3.374008 1.2375,-0.484395 3.2625,-1.314819 4.5,-1.845387 2.70522,-1.15984 13.07159,-4.781804 17.25,-6.02707 6.3119,-1.881099 19.96462,-7.148973 21.2129,-8.18495 0.73003,-0.605874 3.07239,-0.847192 5.31005,-0.547059 2.7329,0.366559 5.17598,-0.03312 7.69653,-1.259141 2.031,-0.987891 4.22946,-1.590201 4.88547,-1.338465 0.65601,0.251736 1.4792,-0.0058 1.8293,-0.572262 0.40654,-0.657794 1.48996,-0.705497 2.99833,-0.132017 1.29898,0.49387 2.62027,0.639446 2.93622,0.323503 0.31594,-0.315944 2.27471,-0.721129 4.35282,-0.900412 2.07811,-0.179282 5.51092,-0.633241 7.62846,-1.008796 2.64839,-0.469703 4.09271,-0.290248 4.62743,0.574953 C 381.26435,72.04576 379.93067,75 377.70386,75 c -2.14347,0 -12.98314,3.284982 -18.20386,5.516717 -11.82422,5.054576 -22.3848,9.365225 -24.5,10.000491 -1.375,0.412958 -5.92719,2.490523 -10.11597,4.616812 -4.18878,2.126289 -8.46378,3.872871 -9.5,3.881293 -1.03622,0.0084 -2.49212,0.400656 -3.23534,0.871631 -2.23519,1.416426 3.31376,1.773786 26.2514,1.690616 18.89984,-0.0685 21.61495,-0.28128 23.32362,-1.82756 1.31085,-1.186281 3.58055,-1.75 7.04601,-1.75 5.66463,0 7.87703,1.601081 3.52118,2.54822 -1.535,0.33377 -5.4909,1.46275 -8.7909,2.50885 -11.67876,3.70214 -23.02213,6.07123 -30.96146,6.46635 -23.37902,1.16353 -24.9972,2.08339 -17.71038,10.06756 2.56951,2.81542 5.99566,6.98421 7.61367,9.26398 2.36964,3.33883 3.5459,4.14504 6.0476,4.14504 2.61329,0 14.3046,-5.11976 17.93299,-7.85306 0.59267,-0.44646 2.65258,-1.42196 4.57758,-2.16777 1.925,-0.74581 5.975,-3.06365 9,-5.15076 4.34473,-2.99765 8.12561,-4.44092 18,-6.87112 6.875,-1.69202 14.6375,-3.32078 17.25,-3.61947 4.2485,-0.48574 4.75,-0.33428 4.75,1.43455 0,1.85668 -0.54479,2.12472 -6.75481,3.32339 -0.40985,0.0791 -1.79081,0.54139 -3.0688,1.02728 -2.34092,0.89001 -8.7068,1.81273 -15.17639,2.19977 -1.925,0.11517 -4.61263,0.98964 -5.97251,1.94329 -1.35987,0.95364 -3.1174,1.7339 -3.90561,1.7339 -0.7882,0 -2.90805,1.125 -4.71077,2.5 -1.80272,1.375 -3.52395,2.5 -3.82497,2.5 -1.276,0 -11.58614,7.14629 -11.58614,8.03073 0,1.26062 2.70361,1.25786 3.48321,-0.004 0.33068,-0.53505 2.49473,-1.47691 4.80901,-2.09302 2.31428,-0.61611 4.88278,-1.67917 5.70778,-2.36234 0.825,-0.68318 3.72362,-2.25911 6.44138,-3.50206 2.71776,-1.24295 6.36024,-3.34213 8.09439,-4.66483 C 376.72799,116.97009 381,116.16602 381,118 c 0,0.55 -0.39264,1 -0.87254,1 -0.4799,0 -3.68725,2.25 -7.12746,5 -3.44021,2.75 -7.01155,5 -7.93633,5 -0.92478,0 -2.55492,0.7029 -3.62254,1.562 -1.81717,1.46224 -1.68617,1.52031 2.05125,0.90921 2.19582,-0.35903 4.40914,-0.91034 4.91849,-1.22514 0.50936,-0.3148 3.11039,-0.74748 5.78006,-0.9615 2.66968,-0.21402 6.74408,-1.056 9.05424,-1.87107 2.31016,-0.81507 8.9116,-1.72474 14.66987,-2.02149 5.75826,-0.29675 11.62053,-1.12183 13.02727,-1.83351 2.14567,-1.08553 4.40785,-0.98377 14.04295,0.63168 6.31689,1.05912 12.20233,2.5746 13.07874,3.36774 0.87642,0.79314 2.06545,1.44208 2.6423,1.44208 0.57684,0 1.66017,0.73664 2.40738,1.63697 1.23242,1.48498 0.98846,1.57119 -2.62756,0.92847 -11.92024,-2.11874 -32.80355,-2.27549 -38.11501,-0.28609 -2.2709,0.85056 -6.7709,1.8524 -10,2.22631 -8.43912,0.9772 -24.7691,3.55899 -25.19319,3.98308 -1.96301,1.96302 8.24282,11.86677 16.59644,16.10521 5.47711,2.77896 7.22564,2.99822 7.22564,0.90605 0,-0.825 0.52002,-1.5 1.15561,-1.5 0.63558,0 2.6549,-1.14356 4.48737,-2.54126 2.30714,-1.75974 4.48887,-2.50877 7.09439,-2.43562 8.40194,0.23586 25.92849,-1.37465 28.36538,-2.6065 2.41186,-1.21919 2.83357,-1.07754 5.75,1.93145 4.10128,4.23145 4.111,6.02038 0.0295,5.42134 -1.71478,-0.25168 -6.85386,0.59459 -11.42017,1.88059 -4.56631,1.286 -9.22671,2.47925 -10.35645,2.65166 -1.12973,0.17241 -2.36565,0.62506 -2.74649,1.0059 C 412.9783,158.6884 411.81515,159 410.77436,159 c -1.0408,0 -1.62487,0.43281 -1.29794,0.96179 0.37984,0.61458 1.50453,0.61577 3.11549,0.003 5.04716,-1.91892 19.41966,-1.383 27.21126,1.01466 4.01672,1.23604 7.54928,2.00119 7.85013,1.70034 1.01861,-1.0186 -0.88145,-2.87747 -4.47671,-4.37966 -3.10847,-1.2988 -3.3475,-1.62524 -1.81718,-2.48165 2.59983,-1.45494 4.03826,-0.53078 8.62069,5.5386 3.70282,4.90436 4.00059,5.70076 2.83144,7.57286 -1.86754,2.99041 -3.94144,3.33909 -8.40044,1.41233 -3.85837,-1.66723 -7.86535,-1.86718 -29.66106,-1.48016 -7.07808,0.12568 -7.75,0.31373 -7.75,2.16899 0,1.11727 0.69177,2.29684 1.53726,2.62129 0.84549,0.32445 2.17253,2.11032 2.94897,3.96862 0.77644,1.85829 1.84255,3.37871 2.36912,3.37871 0.52658,0 0.72143,0.9024 0.43301,2.00533 -0.28843,1.10293 -0.10235,2.56543 0.41349,3.25 0.51584,0.68457 1.563,3.22389 2.32702,5.64294 0.85442,2.7053 2.11105,4.58706 3.26466,4.88874 1.03155,0.26976 1.42767,0.76727 0.88027,1.10558 -1.1991,0.74108 0.0846,8.76577 1.65311,10.33432 0.75472,0.75472 0.95275,-0.21787 0.67811,-3.33043 -0.36156,-4.09764 -0.28573,-4.26054 1.11562,-2.39648 0.8666,1.15274 1.28834,3.10337 0.99554,4.60454 -0.2794,1.4325 0.15554,4.8075 0.96654,7.5 2.07901,6.90231 2.53322,9.83 2.89348,18.65043 0.17421,4.26523 -0.10852,8.01779 -0.62829,8.33902 -0.58196,0.35968 -0.54966,1.06046 0.0841,1.82406 0.56601,0.682 1.21281,3.59189 1.43734,6.46643 0.22453,2.87453 0.68329,5.50147 1.01946,5.83764 0.33616,0.33617 0.61121,2.13777 0.61121,4.00356 0,1.8658 0.41205,3.1377 0.91566,2.82645 0.50361,-0.31125 1.41116,1.74456 2.01678,4.56846 0.96291,4.48986 0.88632,5.29145 -0.6101,6.38566 -1.61333,1.1797 -1.61127,1.40385 0.0361,3.9181 0.96106,1.46675 1.49449,3.46356 1.18542,4.43737 -1.06817,3.3655 -0.76199,44.5647 0.36729,49.42146 0.61169,2.63075 1.3869,8.48075 1.72268,13 0.7374,9.92458 1.30374,11.13418 6.43987,13.75443 2.31746,1.18229 4.43281,3.16449 5.01712,4.70136 0.55565,1.46146 2.51651,4.12004 4.35746,5.90795 1.84096,1.78791 4.11045,5.41128 5.04333,8.05192 0.93287,2.64064 2.32888,5.99559 3.10224,7.45545 0.77337,1.45986 1.40956,3.48486 1.41376,4.5 0.004,1.01514 0.93327,4.77071 2.0646,8.34571 3.01075,9.51401 4.82642,21.97015 6.48654,44.5 0.81054,11 1.63393,21.575 1.82975,23.5 0.19582,1.925 0.69812,8 1.11622,13.5 0.4181,5.5 1.32206,11.125 2.00882,12.5 0.79699,1.59571 1.49319,9.91517 1.92473,23 0.5563,16.8678 0.40388,21.51326 -0.86027,26.2188 -2.20444,8.2056 -8.04657,19.83822 -13.43125,26.74378 -2.55573,3.27758 -5.37843,6.99993 -6.27267,8.2719 -1.00128,1.42421 -3.90018,2.99392 -7.54596,4.086 -5.88694,1.76342 -7.0941,1.68535 -12.82815,-0.82958 -1.65,-0.72368 -4.94103,-1.88663 -7.31339,-2.58432 -2.37237,-0.6977 -5.33599,-2.48383 -6.58583,-3.96918 -1.7223,-2.04684 -2.67533,-2.47518 -3.93661,-1.76933 -1.26004,0.70515 -1.66417,0.52525 -1.66417,-0.74082 0,-1.39485 -0.25629,-1.45943 -1.54551,-0.38948 -0.85003,0.70546 -1.3281,1.8492 -1.06239,2.54164 0.28697,0.74785 -1.28657,2.09084 -3.87577,3.30791 -2.39739,1.12691 -4.64587,2.51327 -4.99663,3.0808 -0.69557,1.12547 -6.40495,1.39688 -8.93791,0.42489 C 396.7118,578.05917 396,576.90761 396,575.83399 c 0,-1.17757 -0.4411,-1.67941 -1.1118,-1.26489 -0.6115,0.37792 -1.399,0.27293 -1.75,-0.23332 -0.78219,-1.12814 -12.1694,-6.54373 -17.6382,-8.38849 -2.2,-0.74211 -5.48749,-2.72134 -7.30554,-4.39829 -1.81805,-1.67695 -3.61805,-2.91868 -4,-2.75939 -0.38195,0.15929 -0.8241,-0.51571 -0.98254,-1.5 -0.15844,-0.98429 -1.73344,-3.4735 -3.5,-5.53159 L 356.5,548.01604 352,550.07448 c -5.14798,2.35484 -18.00677,5.04098 -19.5,4.07346 -0.55,-0.35637 0.99006,-0.87294 3.42235,-1.14794 5.14167,-0.58133 6.49035,-2.61507 2.39869,-3.61709 -3.24603,-0.79493 -4.28415,-2.0067 -4.30573,-5.02592 -0.0183,-2.56135 -3.03233,-4.0126 -4.48893,-2.16142 -1.38923,1.76558 -5.75678,1.61643 -6.36251,-0.21726 -0.65984,-1.99753 -3.42139,-3.93719 -4.5832,-3.21915 -0.51776,0.31999 -3.09328,0.48361 -5.72338,0.3636 -6.05446,-0.27626 -10.10246,2.05224 -9.27805,5.33694 0.4951,1.97262 -0.0144,2.40351 -4.25843,3.60126 -2.65144,0.74829 -7.05866,1.37819 -9.79381,1.39978 -4.21078,0.0332 -5.02444,-0.26729 -5.30855,-1.96074 -0.73806,-4.39911 -1.11026,-4.67871 -3.3949,-2.55024 -2.51649,2.34447 -3.77284,2.59971 -3.9389,0.80024 -0.0634,-0.6875 -0.17594,-1.925 -0.25,-2.75 -0.0741,-0.825 -1.25965,-1.63122 -2.63465,-1.7916 -1.375,-0.16038 -3.52159,-0.80379 -4.77021,-1.42979 -1.65413,-0.82932 -2.56938,-0.83902 -3.37267,-0.0357 -1.29097,1.29097 -5.12469,-0.0445 -8.42157,-2.93372 C 256.3001,535.81412 254.78819,535 254.07576,535 c -0.71244,0 -3.7572,-2.25 -6.76614,-5 -3.00894,-2.75 -5.84878,-5 -6.31075,-5 -0.71228,0 -2.07876,-4.21699 -2.18189,-6.73335 -0.0173,-0.42166 -0.83548,-2.34276 -1.81824,-4.26911 -0.98275,-1.92636 -2.31716,-7.00114 -2.96535,-11.27729 -1.32135,-8.717 -1.20459,-36.26296 0.16525,-38.98564 0.48851,-0.97097 1.05277,-3.22097 1.2539,-5 0.72012,-6.36941 1.88571,-11.26739 3.14952,-13.23461 0.70667,-1.1 1.7603,-4.8125 2.3414,-8.25 0.5811,-3.4375 1.544,-9.0625 2.13978,-12.5 1.21083,-6.98615 0.60932,-27.84275 -0.91808,-31.83309 -0.54381,-1.42071 -1.28726,-4.34571 -1.65211,-6.5 -0.36485,-2.1543 -0.87364,-5.04191 -1.13064,-6.41691 -0.257,-1.375 -0.4743,-3.312 -0.48289,-4.30444 -0.009,-0.99245 -1.33949,-4.04975 -2.95757,-6.79401 C 234.32388,366.15729 233,362.50472 233,360.78473 c 0,-1.71998 -0.70676,-3.90821 -1.57057,-4.86271 -3.01853,-3.33544 -4.49189,-12.11272 -3.96347,-23.61162 0.56516,-12.29814 0.87627,-14.98597 1.847,-15.9567 0.37787,-0.37787 0.68704,-1.49677 0.68704,-2.48644 0,-0.98967 0.73737,-3.50217 1.63861,-5.58333 1.80386,-4.16553 2.54576,-6.06434 4.40884,-11.28393 0.68711,-1.925 2.53265,-5.56459 4.1012,-8.08798 2.49578,-4.01507 3.30685,-4.60508 6.4952,-4.72495 2.00382,-0.0753 4.40271,-0.82422 5.33088,-1.6642 0.92816,-0.83998 1.94495,-1.26986 2.25952,-0.95529 0.31456,0.31457 2.39762,-0.35945 4.62901,-1.49782 2.23138,-1.13837 5.23032,-2.06976 6.66429,-2.06976 2.15215,0 2.49643,-0.34909 1.97245,-2 -0.36414,-1.14731 -0.1797,-2 0.43261,-2 0.58707,0 1.06739,0.45 1.06739,1 0,0.55 0.38521,1 0.85602,1 0.95989,0 0.73442,-50.23562 -0.23249,-51.80013 -0.33958,-0.54944 -0.86268,-4.30669 -1.16245,-8.34943 C 268.16131,211.8077 267.23884,203.1 266.41116,196.5 c -0.82769,-6.6 -1.63032,-17.85 -1.78363,-25 -0.3032,-14.14102 -1.39007,-31.62966 -2.19511,-35.32104 -1.02155,-4.68419 -2.9343,-1.49885 -3.54267,5.89969 -1.02441,12.45819 -3.34716,23.42762 -5.49432,25.94762 -0.71526,0.83945 -1.88629,3.31445 -2.60231,5.5 -0.71601,2.18555 -1.87879,3.97373 -2.58396,3.97373 -0.70516,0 -1.69123,0.66197 -2.19126,1.47104 -1.04883,1.69704 -2.48646,0.66888 -2.50515,-1.79162 -0.009,-1.14239 -0.73191,-1.6033 -2.26175,-1.44139 -1.31683,0.13938 -2.73777,-0.54461 -3.42823,-1.65022 -0.64858,-1.03854 -1.77403,-1.66001 -2.501,-1.38104 -1.75373,0.67297 -1.82118,-6.28789 -0.0718,-7.40708 2.78481,-1.78159 12.06504,-17.82581 11.59337,-20.04331 -0.21437,-1.00782 0.80595,-3.72164 3.6681,-9.75638 1.30426,-2.75 3.11293,-6.72768 4.01925,-8.83929 0.90632,-2.1116 2.54517,-4.7366 3.6419,-5.83333 5.16655,-5.16655 -3.21996,-3.02133 -12.52878,3.20478 -6.08307,4.06861 -8.71712,6.83418 -16.34308,17.1591 -5.00017,6.76981 -10.37586,13.74509 -11.94599,15.50063 -6.15286,6.87946 -8.43705,10.59823 -13.39524,21.80811 -1.21634,2.75 -2.99579,6.125 -3.95433,7.5 -0.95855,1.375 -2.07134,3.625 -2.47287,5 -0.40154,1.375 -1.81057,4.83463 -3.1312,7.68807 -1.32062,2.85345 -2.40113,5.71044 -2.40113,6.34888 0,0.63843 -0.612,2.5788 -1.35999,4.31192 -2.63498,6.1053 -4.79946,14.87968 -4.23013,17.14809 0.37422,1.491 0.0724,2.48773 -0.86182,2.84622 -0.79074,0.30344 -1.75813,2.26286 -2.14976,4.35426 -0.39162,2.09141 -1.64033,5.05934 -2.7749,6.5954 -2.4067,3.25835 -3.64776,16.0828 -1.74091,17.98965 0.82335,0.82335 1.11751,0.56849 1.11751,-0.96818 0,-1.14713 0.67223,-3.37463 1.49384,-4.95 l 1.49384,-2.86431 0.17721,2.5 c 0.0975,1.375 0.22948,3.17554 0.29337,4.0012 0.0639,0.82566 0.43625,2.0191 0.82747,2.6521 0.43004,0.69582 -0.6593,1.95958 -2.75492,3.19602 -3.52902,2.08218 -3.95425,3.04323 -5.03399,11.37737 -0.33681,2.59968 -1.03638,4.98874 -1.5546,5.30902 C 174.424,278.85599 174,280.66648 174,282.55902 174,285.54836 173.67693,286 171.53854,286 c -2.5021,0 -2.48117,-0.0415 -5.03979,10 -0.21021,0.825 -0.62257,3.075 -0.91636,5 -0.29378,1.925 -0.995,5.07203 -1.55827,6.9934 -1.45561,4.96528 -1.29071,5.55783 0.97588,3.5066 1.90431,-1.72338 2,-1.72494 2,-0.0325 0,1.48982 0.25009,1.56988 1.54551,0.49477 0.85003,-0.70546 1.3183,-1.87475 1.0406,-2.59842 -0.2777,-0.72368 0.10979,-3.35824 0.86108,-5.8546 1.28221,-4.26047 1.24319,-4.60455 -0.63638,-5.61046 -1.98756,-1.06371 -1.98638,-1.08652 0.15953,-3.08574 1.18904,-1.10776 2.35749,-1.81851 2.59656,-1.57944 0.23907,0.23906 0.41651,3.77181 0.39431,7.85055 -0.0222,4.07873 -0.007,8.75695 0.0326,10.39604 0.0856,3.49612 -1.77932,12.20199 -3.19266,14.90386 -0.71082,1.35886 -0.61141,2.12114 0.35664,2.73469 0.97954,0.62083 0.7607,0.8548 -0.80996,0.86598 -2.08524,0.0148 -2.11004,-0.12457 -0.79783,-4.48469 0.74486,-2.475 1.09572,-4.5 0.77968,-4.5 -0.31603,0 -0.0477,-0.63494 0.59639,-1.41097 0.73698,-0.88801 0.80798,-1.63534 0.19155,-2.01631 -0.53871,-0.33294 -1.24997,-0.16766 -1.58059,0.36729 -0.33061,0.53496 -1.26171,0.71915 -2.0691,0.40933 -0.88437,-0.33937 -1.46797,0.0269 -1.46797,0.92123 0,0.8165 -0.75304,2.10214 -1.67341,2.85699 -1.49066,1.22255 -1.6101,1.12671 -1.09362,-0.87756 0.31888,-1.2375 0.17192,-2.25 -0.32659,-2.25 -0.49851,0 -0.90638,1.35 -0.90638,3 0,1.92403 0.50898,3 1.41914,3 2.75653,0 1.86288,10.89626 -1.47198,17.9478 -1.62094,3.42748 -2.94716,7.22637 -2.94716,8.44199 0,1.21561 -0.54,2.75021 -1.2,3.41021 -0.66,0.66 -0.90496,1.2 -0.54436,1.2 0.3606,0 0.019,1.80456 -0.75922,4.01014 -1.81882,5.1551 -2.60444,14.46333 -2.95314,34.98986 -0.4124,24.27554 -0.32417,23.29806 -2.04328,22.63837 -1.11511,-0.4279 -1.48197,0.12198 -1.42971,2.14301 0.0618,2.3912 0.16845,2.47775 0.88541,0.71862 0.7451,-1.82815 0.87884,-1.75742 1.5565,0.82322 0.455,1.7327 0.30613,3.25845 -0.38542,3.95 -0.63025,0.63025 -1.14075,4.45374 -1.15849,8.67678 -0.0174,4.1525 -0.71607,12.05 -1.55252,17.55 -0.84955,5.58617 -1.70824,19.71042 -1.94547,32 -0.46741,24.21478 -1.39678,49.0624 -2.03845,54.5 -0.22716,1.925 -0.68159,5.96912 -1.00985,8.98692 -0.32825,3.01781 -0.78498,5.79138 -1.01496,6.16349 -0.22997,0.3721 -0.85009,7.12798 -1.37804,15.01307 -2.471,36.90521 -3.7479,72.51254 -4.54841,126.83652 -0.21477,14.575 -0.90726,33.25 -1.53885,41.5 -0.63159,8.25 -1.31769,29.625 -1.52466,47.5 -0.20697,17.875 -0.53677,34.9644 -0.73289,37.97645 -0.37836,5.8111 0.97149,13.02355 2.43745,13.02355 0.78579,0 1.31294,-2.24764 0.99678,-4.25 -0.0651,-0.4125 0.44408,-0.75557 1.13158,-0.76238 1.53901,-0.0152 5.75,-6.33956 5.75,-8.6357 0,-3.20512 3.37323,-12.35389 4.46273,-12.10369 0.60301,0.13847 1.08308,-0.0385 1.06682,-0.39324 -0.0163,-0.35476 0.66869,-1.47976 1.5221,-2.5 1.38986,-1.66156 10.58736,-20.3987 18.95004,-38.60499 2.73397,-5.95208 3.42647,-6.75 5.85826,-6.75 1.51679,0 3.59801,0.61439 4.62496,1.3653 1.7275,1.26318 1.78433,1.99248 0.75986,9.75 -1.76685,13.37898 -6.79228,35.5378 -10.51964,46.3847 -8.51795,24.78789 -12.31829,34.43931 -15.88906,40.3522 -2.10984,3.49372 -3.87031,7.09372 -3.91215,8 -0.16328,3.53654 -2.67525,8.64213 -4.12774,8.38968 -0.8939,-0.15536 -2.20462,1.33747 -3.29252,3.75 -0.99407,2.20447 -2.18907,4.00812 -2.65553,4.00812 -0.46647,0 -0.84124,1.0125 -0.83282,2.25 0.0121,1.77731 0.21076,1.94096 0.94563,0.77896 1.2497,-1.97606 1.66495,-1.30403 2.30829,3.73573 0.44456,3.48261 0.20261,4.44761 -1.31938,5.26215 -2.47819,1.32629 -2.78326,3.78795 -3.59051,28.97316 -0.37902,11.825 -0.77902,23.75 -0.88888,26.5 -0.10987,2.75 0.25611,5.57657 0.81328,6.28126 0.71474,0.90399 0.55059,1.64011 -0.55751,2.5 -1.31762,1.02247 -1.4165,2.16578 -0.614,7.09954 0.65863,4.04924 0.61274,6.92252 -0.14733,9.22556 -1.12133,3.39765 -0.86785,25.1364 0.62605,53.6921 0.62707,11.9862 0.96597,13.9292 2.5803,14.7932 1.34665,0.7207 1.97026,0.6385 2.26453,-0.2986 0.74407,-2.3693 2.71167,-14.3449 2.5181,-15.3262 -0.52849,-2.6793 0.20043,-5.4669 1.42949,-5.4669 1.75419,0 2.91713,-4.1962 1.41945,-5.1219 -1.37531,-0.85 0.43825,-5.9078 3.72483,-10.3881 1.21441,-1.6555 2.54445,-4.5805 2.95565,-6.5 0.41121,-1.91946 1.07211,-3.93996 1.46868,-4.48996 0.39656,-0.55 1.72625,-3.7 2.95486,-7 1.22862,-3.3 2.86152,-7.35 3.62867,-9 0.76716,-1.65 3.40774,-7.725 5.86796,-13.5 6.6264,-15.55448 13.75869,-28.41755 15.99244,-28.84232 1.49421,-0.28414 1.74081,0.0317 1.16391,1.4909 -1.01347,2.56334 -1.25187,3.91089 -2.00823,11.35142 -0.36342,3.575 -1.05039,8.975 -1.52662,12 -0.47622,3.025 -0.89102,8.70832 -0.92176,12.62959 -0.0307,3.92128 -0.78495,13.14628 -1.67601,20.5 -0.89105,7.35367 -1.79498,15.36247 -2.00871,17.79727 -0.21374,2.4348 -1.49577,7.8348 -2.84896,12 -3.87691,11.9334 -6.99187,22.4379 -7.13853,24.0731 -0.21868,2.4383 -4.48538,10.2537 -7.45972,13.6642 -1.51776,1.7404 -3.32082,4.8904 -4.0068,7 -0.68599,2.1097 -2.62692,5.5934 -4.31318,7.7415 l -3.06594,3.9056 0.20038,24.5944 c 0.11021,13.5269 0.40508,25.7193 0.65527,27.0943 0.25018,1.375 0.74816,12.175 1.10663,24 0.35847,11.825 0.78646,21.725 0.9511,22 0.16463,0.275 0.62095,6.8 1.01403,14.5 0.39308,7.7 0.89829,14.3104 1.1227,14.6897 0.2244,0.3793 0.61341,6.0043 0.86447,12.5 0.25106,6.4957 0.90785,21.9353 1.45955,34.3103 0.5517,12.375 1.2474,31.5 1.546,42.5 0.29861,11 0.7514,23.15 1.0062,27 0.2548,3.85 0.70122,14.65 0.99204,24 0.29082,9.35 0.72602,18.125 0.9671,19.5 0.24109,1.375 0.70345,8.125 1.02747,15 0.32402,6.875 1.04695,15.7407 1.60651,19.7016 1.02984,7.2897 0.54816,9.7926 -2.30021,11.9519 -0.71753,0.5439 -2.0921,0.8114 -3.0546,0.5944 z m -6.37212,-356.7613 c 1.99216,-0.8324 3.62212,-2.1127 3.62212,-2.845 0,-0.7324 0.87449,-2.123 1.94332,-3.0903 1.68403,-1.524 3.51891,-6.3862 3.05201,-8.0874 -0.0859,-0.3131 0.48473,-1.5581 1.26816,-2.7666 0.78343,-1.2085 1.73234,-5.3473 2.10868,-9.1973 0.37634,-3.85 2.02667,-11.95 3.66741,-18 5.80874,-21.41897 6.28303,-23.90187 6.01724,-31.5 -0.25576,-7.31148 -0.63721,-12.99103 -0.94028,-14 -0.26863,-0.89434 -7.07539,13.27566 -10.70896,22.29344 -3.26676,8.10746 -5.9234,16.28396 -6.89028,21.20656 -0.21605,1.1 -1.29061,5.15 -2.38791,9 -4.50775,15.8159 -8.12939,30.6457 -8.12939,33.2879 0,2.6263 1.52697,5.2121 3.07788,5.2121 0.37283,0 2.30783,-0.681 4.3,-1.5134 z M 144.66228,855.25 c 2.86168,-3.62168 5.62708,-9.86638 10.01271,-22.61021 2.48704,-7.22688 5.11005,-14.48979 5.82891,-16.13979 2.15241,-4.94039 5.09553,-14.85948 5.04413,-17 -0.0381,-1.5849 -0.65682,-1.95572 -2.98124,-1.78665 -3.32502,0.24185 -7.10505,4.22847 -8.09427,8.53665 -0.34728,1.5125 -1.04568,2.75 -1.55198,2.75 -0.50629,0 -0.92054,0.69083 -0.92054,1.53518 0,0.84435 -0.6323,2.53185 -1.40512,3.75 -0.77281,1.21815 -2.85406,6.48206 -4.625,11.69756 -2.3821,7.01545 -3.20507,11.17847 -3.16296,16 0.0313,3.5845 -0.39444,7.97096 -0.9461,9.74771 -1.48014,4.76713 0.17382,6.84504 2.80146,3.51955 z m -16.73825,-6.88055 c 1.13805,-1.4468 2.55007,-4.41642 3.13782,-6.59916 0.9004,-3.34381 0.79781,-4.26788 -0.65159,-5.86945 -3.86645,-4.27238 -7.41026,-0.37241 -7.41026,8.155 0,7.70501 1.33584,8.87525 4.92403,4.31361 z M 139.74814,839 c -0.10182,-2.75 -0.56337,-5 -1.02565,-5 -0.46229,0 -0.56241,0.45 -0.22249,1 0.35052,0.56716 -0.48962,1 -1.94098,1 -1.40746,0 -2.54471,0.3375 -2.52722,0.75 0.0658,1.55081 2.69838,4.18952 3.47641,3.48446 0.44575,-0.40395 0.54476,0.009 0.22002,0.91777 -0.32474,0.90873 -0.32143,1.92123 0.007,2.25 1.55402,1.55402 2.18224,0.17987 2.01257,-4.40223 z m -9.38431,-7.49426 c -0.31537,-0.82184 -0.98359,-1.24074 -1.48493,-0.9309 -1.04858,0.64806 -0.20682,2.42516 1.14873,2.42516 0.50028,0 0.65157,-0.67242 0.3362,-1.49426 z M 128.69078,817.75 c 0.44484,-0.6875 0.83869,-18.35 0.87522,-39.25 0.091,-52.05974 1.15925,-102.00985 2.96201,-138.5 0.28531,-5.775 0.74102,-19.275 1.01268,-30 0.27167,-10.725 0.74699,-20.73787 1.05626,-22.25083 0.40698,-1.99088 0.10736,-2.92541 -1.08453,-3.38278 -0.90577,-0.34757 -2.01854,-0.2347 -2.47282,0.25083 -0.95791,1.02381 -2.17087,31.49289 -2.06542,51.88278 0.0398,7.7 -0.40574,17.6 -0.99013,22 -0.58439,4.4 -1.27939,16.1 -1.54444,26 -1.19749,44.72797 -1.4692,51.5349 -2.395,60 -1.18537,10.83841 -2.6005,70.609 -1.72571,72.88865 0.73025,1.90302 5.20997,2.15706 6.37188,0.36135 z m 6.76244,-246.69381 c 0.43197,-5.44124 0.25051,-7.62284 -0.68238,-8.20378 -1.0192,-0.63468 -1.02359,-1.19034 -0.0222,-2.80621 1.48199,-2.39129 2.10674,-11.8803 2.73537,-41.5462 0.39785,-18.77509 2.397,-52.2666 3.93962,-66 0.24712,-2.2 0.71527,-8.5 1.04034,-14 0.32507,-5.5 0.79948,-11.8 1.05423,-14 0.25476,-2.2 0.72169,-6.925 1.03764,-10.5 0.31594,-3.575 1.19453,-11 1.95241,-16.5 0.75787,-5.5 1.89185,-14.275 2.51994,-19.5 0.62809,-5.225 1.58512,-11.525 2.12673,-14 0.54162,-2.475 1.14393,-5.72469 1.33848,-7.22153 0.19454,-1.49685 0.59034,-3.52185 0.87954,-4.5 0.44929,-1.51962 5.70625,-36.79895 7.04494,-47.27847 0.24591,-1.925 0.52878,-3.5 0.62861,-3.5 0.0998,0 0.32895,-1.2467 0.50915,-2.77045 0.4087,-3.45589 4.12454,-19.54624 6.05734,-26.22955 0.7953,-2.75 2.06123,-8.15 2.81318,-12 0.75195,-3.85 2.57989,-11.05 4.0621,-16 1.4822,-4.95 3.55606,-12.24791 4.60858,-16.21757 1.05252,-3.96967 3.30026,-11.16967 4.99498,-16 1.69472,-4.83034 3.71452,-11.0071 4.48845,-13.72615 0.77392,-2.71905 1.85996,-5.39655 2.41341,-5.95 0.55345,-0.55345 1.00905,-1.70378 1.01244,-2.55628 0.003,-0.8525 0.62257,-2.675 1.37595,-4.05 0.75339,-1.375 2.83451,-5.2 4.62471,-8.5 4.89297,-9.01954 12.12234,-19.47742 19.49008,-28.194 3.62894,-4.2933 8.21566,-10.3935 10.19272,-13.556 1.97706,-3.1625 3.98069,-5.75 4.45252,-5.75 0.47182,0 0.85786,-0.60969 0.85786,-1.35487 0,-0.74519 3.59693,-3.78269 7.99317,-6.75 7.1558,-4.82993 9.86841,-7.89513 6.98696,-7.89513 -1.72656,0 -9.08375,5.02332 -8.57139,5.85234 0.26537,0.42938 -0.95553,1.60585 -2.71312,2.61437 -1.75759,1.00852 -5.80754,4.46609 -8.99989,7.68348 -3.19235,3.2174 -6.21528,5.84981 -6.71761,5.84981 -0.50233,0 -2.81387,2.5875 -5.13675,5.75 -2.32288,3.1625 -5.89255,8 -7.93259,10.75 -2.04005,2.75 -4.58657,6.575 -5.65894,8.5 -1.07237,1.925 -3.73615,6.425 -5.91951,10 C 190.62192,180.34687 185,191.6973 185,193.87548 c 0,1.03019 -0.71391,3.84214 -1.58646,6.24879 -0.87256,2.40665 -1.70341,4.82573 -1.84635,5.37573 -0.14293,0.55 -0.77902,2.26679 -1.41353,3.8151 -0.63451,1.5483 -1.15454,3.1233 -1.15562,3.5 -0.001,0.37669 -2.28473,7.6599 -5.07479,16.1849 -6.15455,18.80517 -7.49489,23.80107 -8.38064,31.23746 -0.37586,3.15561 -1.40303,7.18002 -2.28259,8.94314 -0.87956,1.76312 -1.97559,5.03126 -2.43561,7.26254 -3.27114,15.86616 -4.61455,23.58841 -5.22887,30.05686 -0.26118,2.75 -1.20318,9.725 -2.09335,15.5 -0.89016,5.775 -2.24616,15.12123 -3.01331,20.7694 -0.76716,5.64818 -1.6039,10.60768 -1.85942,11.02113 -0.25553,0.41345 -0.7577,2.76722 -1.11594,5.2306 -0.35824,2.46338 -1.05856,6.33029 -1.55626,8.59315 -0.92292,4.1962 -2.76953,18.27157 -3.46165,26.38572 -0.21112,2.475 -0.64942,6.525 -0.97401,9 -0.78088,5.95423 -2.23925,22.29792 -2.98924,33.5 -0.33141,4.95 -0.80402,10.125 -1.05024,11.5 -0.99381,5.54984 -1.36839,8.91786 -2.00192,18 -0.36447,5.225 -0.80155,11.075 -0.97128,13 -0.46503,5.27412 -1.54818,38.04425 -1.96665,59.5 -0.20381,10.45 -0.69545,23.56771 -1.09252,29.15047 -0.67225,9.45175 -0.59212,10.17906 1.16415,10.56593 1.03736,0.2285 1.96817,0.37873 2.06847,0.33382 0.10031,-0.0449 0.44719,-3.41721 0.77085,-7.49403 z m 326.9808,-4.74485 c 0.42198,-1.09966 0.13757,-1.36092 -1.00447,-0.92268 C 460.55333,565.7249 459.64823,566 459.41821,566 459.1882,566 459,566.66088 459,567.46862 c 0,1.83776 2.62406,0.95344 3.43402,-1.15728 z m -15.30845,-0.69453 c 6.46143,-2.8652 7.6973,-4.20375 11.64895,-12.61681 6.89781,-14.68542 8.27425,-22.3755 6.1751,-34.5 -0.57134,-3.3 -1.24566,-8.25 -1.4985,-11 -0.25283,-2.75 -0.89773,-6.8 -1.43311,-9 -4.03822,-16.59409 -5.89173,-30.78827 -5.94557,-45.53117 -0.0311,-8.50786 -0.27165,-16.54574 -0.53462,-17.86197 -0.26296,-1.31623 -0.53589,-5.36623 -0.60651,-9 -0.0706,-3.63377 -0.71849,-9.75686 -1.43972,-13.60686 -0.72123,-3.85 -1.56835,-8.8 -1.88249,-11 -0.95848,-6.71256 -6.46113,-22.64918 -10.29608,-29.81923 -0.82934,-1.55058 -1.20076,-3.12558 -0.82538,-3.5 0.68124,-0.67951 2.65992,1.35413 7.6576,7.87027 3.76264,4.90586 4.62789,2.96907 1.21796,-2.72628 C 446.4925,368.53006 436.43353,358 434.72403,358 c -0.5012,0 -1.14662,0.9 -1.43428,2 -0.62481,2.38928 -1.60195,2.53368 -3.29998,0.48767 -0.86165,-1.03822 -1.63104,-1.20035 -2.45424,-0.51716 -1.84926,1.53475 -0.8495,42.23613 1.0643,43.32918 1.61104,0.92012 1.91792,5.70031 0.36596,5.70031 -0.56882,0 -0.88583,1.10798 -0.70448,2.46219 0.43531,3.25056 1.73869,4.48405 1.73869,1.64546 0,-1.22915 0.44774,-1.94896 1,-1.60765 0.55,0.33992 1,2.13992 1,4 0,1.86008 0.45,3.66008 1,4 0.55,0.33992 1,2.48893 1,4.77558 0,2.28666 0.64281,5.9726 1.42846,8.19099 0.78565,2.21839 2.43847,9.88343 3.67292,17.03343 2.12674,12.31817 2.44519,13.22173 6.07154,17.22766 3.5971,3.9736 3.82708,4.61226 3.82708,10.62787 0,3.60859 -0.69892,8.07297 -1.60237,10.23523 -1.8152,4.34438 -2.0663,22.96548 -0.40331,29.90924 1.06125,4.43127 1.34588,16.82647 0.40791,17.76443 C 446.1115,536.55517 444,534.64898 444,532.19301 c 0,-1.71179 -0.33656,-2.25645 -0.99033,-1.60268 -0.64347,0.64347 -0.65509,2.15923 -0.0332,4.32773 1.57137,5.47905 -1.63348,9.45991 -4.02234,4.99629 -1.27587,-2.384 -1.83354,-2.13696 -2.45448,1.0873 -0.24068,1.24975 -1.09524,2.99896 -1.89903,3.88714 -0.8038,0.88818 -1.94945,2.73905 -2.54589,4.11304 -0.59645,1.37399 -1.97299,3.84817 -3.05899,5.49817 -3.94765,5.99787 -4.38531,7.34963 -3.21279,9.92304 1.91714,4.20767 13.1313,4.83491 21.34259,1.19377 z m -45.94108,-1.47441 c 0.92647,-0.0783 5.10738,-2.86245 9.29092,-6.18695 10.4111,-8.27332 16.47339,-17.80104 18.08416,-28.4217 0.33084,-2.18144 0.98898,-4.6902 1.46252,-5.57502 1.12139,-2.09534 1.41467,-11.00515 0.59113,-17.95873 -0.35826,-3.025 -0.84681,-7.96957 -1.08566,-10.98793 -0.3877,-4.89938 -1.43895,-9.94633 -4.64136,-22.28264 -0.53834,-2.07381 -0.71015,-4.20527 -0.38179,-4.73656 0.32836,-0.5313 0.10102,-2.65955 -0.5052,-4.72943 -1.29413,-4.4187 -3.09081,-14.48586 -3.3487,-18.76344 -0.0995,-1.65 -0.52861,-3.54716 -0.95364,-4.21591 -0.42502,-0.66875 -0.97286,-4.71875 -1.21742,-9 -0.24457,-4.28125 -0.69104,-11.66556 -0.99216,-16.40959 -0.51967,-8.18718 -0.43922,-8.65381 1.58322,-9.18269 1.1719,-0.30646 1.84603,-1.01783 1.49808,-1.58083 -0.34795,-0.563 -1.29323,-0.77014 -2.10062,-0.46032 -1.75991,0.67534 -1.77851,0.40205 -1.63094,-23.95762 0.11165,-18.42936 -1.11472,-27.13243 -4.32283,-30.67734 -0.83281,-0.92025 -1.5142,-2.36647 -1.5142,-3.21381 0,-0.84735 -1.81854,-3.82462 -4.0412,-6.61617 -3.50669,-4.40422 -4.65281,-5.16725 -8.66538,-5.76897 -6.98544,-1.04753 -12.27785,2.23034 -11.34699,7.02781 0.1008,0.51951 -0.24078,1.86951 -0.75908,3 -2.04692,4.46468 -5.22514,23.06952 -5.39053,31.55544 -0.059,3.025 0.20895,9.55 0.59537,14.5 0.38641,4.95 0.87092,11.7 1.07669,15 0.20578,3.3 0.81972,8.025 1.36431,10.5 0.5446,2.475 1.28184,5.85 1.63831,7.5 0.67684,3.13286 2.3966,5.65371 2.69475,3.95 0.0914,-0.5225 0.20394,-6.8 0.25,-13.95 0.0633,-9.83167 0.3884,-12.93907 1.33375,-12.75 1.7615,0.3523 1.56252,-1.69284 -0.23169,-2.38135 -1.20332,-0.46175 -1.25932,-0.9725 -0.29809,-2.71861 1.87977,-3.41466 1.98225,-4.42743 1.8367,-18.15004 -0.13262,-12.50392 1.55163,-28.5 3.00081,-28.5 1.93639,0 2.735,3.63576 3.40462,15.5 0.40354,7.15 0.72665,13.675 0.71801,14.5 -0.009,0.825 0.39655,6.225 0.90042,12 2.37851,27.26109 2.12389,23.81343 1.99405,27 -0.15421,3.78449 1.03983,10.34748 2.12976,11.7062 0.53218,0.6634 0.70265,1.63487 0.37883,2.15882 -0.64994,1.05163 2.16123,13.04555 3.4302,14.63498 2.21392,2.77302 4.05052,22.13633 2.75823,29.07997 -0.63452,3.40934 -1.02043,15.25027 -0.90995,27.92003 0.13951,15.99874 -0.17456,23.22753 -1.15135,26.5 l -1.3432,4.5 -0.78811,-11.5 c -0.43346,-6.325 -0.91066,-13.3 -1.06044,-15.5 -0.14978,-2.2 -0.73408,-6.21457 -1.29845,-8.92127 -0.56438,-2.7067 -0.81018,-5.48404 -0.54624,-6.17186 0.59214,-1.54309 -1.58482,-5.82949 -2.49726,-4.91706 -0.3636,0.36361 -0.7464,5.99929 -0.85066,12.52374 -0.10425,6.52444 -0.6703,12.7609 -1.25787,13.8588 -0.58758,1.09789 -1.06832,3.15075 -1.06832,4.56191 0,2.99307 -1.59265,3.42455 -2.4674,0.66846 -0.97934,-3.08564 -3.54185,-1.55741 -12.29203,7.33078 -4.49988,4.57085 -9.75306,9.05634 -11.67373,9.96776 -3.23593,1.53555 -3.46388,1.94107 -3.10709,5.52753 0.21178,2.12872 1.12753,5.3062 2.035,7.06106 0.90748,1.75487 1.41468,3.80379 1.12711,4.55317 -1.10968,2.89178 10.6698,10.02043 18.87814,11.42458 3.57007,0.61071 6.08344,0.64831 11.68449,0.1748 z M 375,555.94098 c 0,-0.58246 0.45,-0.7809 1,-0.44098 0.55,0.33992 1,0.81648 1,1.05902 0,0.24254 -0.45,0.44098 -1,0.44098 -0.55,0 -1,-0.47656 -1,-1.05902 z m -26.57026,-5.82729 c 0.30127,-0.48747 -0.44002,-1.14462 -1.64732,-1.46034 -2.51997,-0.65898 -3.26746,-0.24717 -2.32354,1.28012 0.79932,1.29333 3.21515,1.40297 3.97086,0.18022 z m -5.34864,-13.82964 c 2.08604,0.2798 4.03732,0.26419 4.33619,-0.0347 0.29887,-0.29887 2.72889,-1.28326 5.40004,-2.18753 5.66179,-1.9167 15.39494,-7.90937 14.69242,-9.04606 -0.26537,-0.42939 0.41137,-1.91708 1.50388,-3.30597 1.0925,-1.3889 1.98637,-3.00642 1.98637,-3.59449 0,-0.58807 1.07748,-1.77521 2.3944,-2.63808 1.55432,-1.01843 2.22447,-2.21869 1.91006,-3.42098 -0.26638,-1.01866 0.2374,-2.95361 1.11951,-4.29989 1.73374,-2.64601 1.88555,-4.56862 1.91533,-24.25637 0.0148,-9.80279 -0.52519,-15.45939 -2.19575,-23 -1.21848,-5.5 -3.14773,-14.95 -4.28723,-21 -1.1395,-6.05 -2.42378,-11.9 -2.85396,-13 -0.43018,-1.1 -1.26274,-3.8 -1.85015,-6 -1.81733,-6.80647 -1.07912,-44.89953 0.94334,-48.67854 0.55894,-1.04439 1.15749,-6.1046 1.33009,-11.2449 0.17261,-5.1403 0.60621,-9.81908 0.96356,-10.39729 0.35736,-0.57821 0.61479,-5.91758 0.57207,-11.86528 -0.0427,-5.94769 -0.0334,-12.4988 0.0207,-14.558 0.0541,-2.05921 -0.44552,-5.65921 -1.11025,-8 -0.66473,-2.3408 -1.31509,-4.79879 -1.44525,-5.4622 -0.13015,-0.66342 -0.98839,-3.46951 -1.90719,-6.23577 -1.84394,-5.5516 -4.47787,-7.87922 -11.40109,-10.07525 -4.33654,-1.37554 -4.40568,-1.35996 -6.69182,1.50712 -2.11654,2.6544 -2.28164,3.69738 -1.97133,12.45357 0.18627,5.2561 0.0476,10.00654 -0.30818,10.55654 -0.92532,1.43051 -0.80252,16.48674 0.13453,16.49397 0.42977,0.003 1.04041,-0.66897 1.35699,-1.49397 0.31659,-0.825 0.87484,-1.5 1.24057,-1.5 0.85701,0 3.12106,11.89836 3.12106,16.40229 0,1.90017 0.675,4.12985 1.5,4.95485 0.825,0.825 1.5,2.159 1.5,2.96444 0,0.80544 -0.675,1.72346 -1.5,2.04005 -0.825,0.31658 -1.5,1.08787 -1.5,1.71397 0,0.62611 0.69203,0.87282 1.53785,0.54825 2.01145,-0.77187 2.27672,0.22504 2.82606,10.6209 0.46156,8.73453 -0.59897,12.51446 -1.8777,6.69247 -0.37209,-1.69413 -0.91947,-2.8373 -1.21639,-2.54037 -0.81105,0.81105 -0.97603,4.96279 -0.24252,6.10315 0.35377,0.55 0.37985,5.05 0.058,10 -0.32189,4.95 -0.23654,11.475 0.18968,14.5 0.42622,3.025 0.94947,13.15 1.16279,22.5 0.21331,9.35 0.83419,19.025 1.37973,21.5 0.54554,2.475 1.28685,8.97425 1.64735,14.44278 0.36049,5.46853 0.82924,10.22399 1.04166,10.56769 0.21241,0.34369 0.62841,5.15204 0.92444,10.68521 0.29602,5.53317 0.84829,10.86834 1.22727,11.85592 0.52642,1.37185 0.31131,1.65067 -0.91146,1.18145 -0.88027,-0.33779 -2.13849,0.0341 -2.79605,0.82639 -0.65756,0.79231 -1.49266,1.44056 -1.85578,1.44056 -0.51595,0 -2.66385,-13.43803 -3.31663,-20.75 -0.1185,-1.32733 -1.74268,-1.77123 -1.82946,-0.5 -0.0282,0.4125 -0.14511,5.25 -0.25989,10.75 -0.17743,8.50222 -0.65654,11.10191 -3.1988,17.35695 -3.31518,8.15674 -10.23987,16.16902 -16.97672,19.64305 -4.10626,2.1175 -5.7458,4.5 -3.09672,4.5 0.87083,0 1.58333,0.45 1.58333,1 0,0.55 -1.125,1 -2.5,1 -3.11185,0 -3.29291,1.78481 -0.25,2.46441 4.33973,0.96922 10.26802,1.06238 12.14416,0.19084 1.04178,-0.48396 3.60091,-0.65099 5.68694,-0.3712 z m -45.05361,-7.01586 c 1.35988,-0.9525 2.58973,-1.61838 2.73299,-1.47974 0.93086,0.90082 6.17083,-3.2084 7.17132,-5.62381 0.66744,-1.61133 2.571,-4.22005 4.23014,-5.79716 2.97368,-2.82667 6.26067,-7.91601 6.37297,-9.86748 0.0317,-0.55 0.59731,-1.9793 1.25701,-3.17621 0.65971,-1.19692 1.15326,-3.89692 1.09678,-6 -0.0565,-2.10309 0.44116,-7.87379 1.10586,-12.82379 0.66469,-4.95 1.17802,-11.89271 1.14072,-15.42824 -0.0829,-7.85755 -2.73538,-26.11988 -4.58559,-31.57176 -1.24502,-3.66858 -2.23151,-9.20334 -3.03794,-17.04441 -0.17221,-1.67442 -1.02981,-4.75973 -1.90579,-6.85623 -0.87597,-2.09651 -1.35228,-4.20081 -1.05845,-4.67623 0.29382,-0.47542 -0.10497,-2.11511 -0.8862,-3.64376 -0.87518,-1.71249 -1.3466,-5.27443 -1.2281,-9.27937 0.10578,-3.575 -0.16568,-7.24345 -0.60324,-8.1521 -0.43755,-0.90866 -0.33313,-7.20866 0.23206,-14 1.30641,-15.69783 1.98299,-24.42282 2.23704,-28.8479 0.11051,-1.925 0.58612,-4.0967 1.05691,-4.826 0.85776,-1.32873 0.90529,-18.6005 0.0693,-25.174 -0.24482,-1.925 -0.63179,-7.01309 -0.85995,-11.30687 -0.22815,-4.29378 -0.89477,-8.38518 -1.48139,-9.09201 -0.58661,-0.70683 -0.83539,-1.51632 -0.55283,-1.79887 0.28255,-0.28256 -1.07203,-1.59115 -3.01019,-2.90799 -1.93815,-1.31684 -3.78012,-3.1867 -4.09327,-4.15523 -1.08352,-3.35118 -12.81999,-7.34024 -14.3435,-4.87515 -1.1137,1.80199 -0.34084,15.12187 0.96898,16.70011 0.87965,1.05991 0.90008,1.78749 0.078,2.77802 -0.61257,0.7381 -0.84695,1.60882 -0.52085,1.93493 0.32611,0.32611 0.74113,7.0347 0.92227,14.90799 0.18113,7.87329 0.65837,16.34007 1.06051,18.81507 0.40215,2.475 0.64966,11.01843 0.55003,18.9854 -0.13921,11.13235 0.20846,15.76191 1.50198,20 0.92571,3.03303 2.00034,5.9646 2.38807,6.5146 3.17167,4.49911 4.33449,25.04508 2.15063,38 -1.48997,8.83869 -1.49036,8.95017 -0.11091,31.5 0.0505,0.825 0.76045,6.225 1.57772,12 0.81728,5.775 1.58936,13.25278 1.71573,16.61728 0.25931,6.90392 2.3681,11.06456 5.85907,11.55994 1.25104,0.17753 2.27463,0.98627 2.27463,1.79721 0,1.4555 -10.44411,4.90723 -15.09501,4.98882 -1.15226,0.0202 -2.92506,0.95394 -3.93955,2.07494 -1.56413,1.72834 -2.68985,1.96084 -7.40499,1.52933 -3.05825,-0.27987 -6.13001,-0.15364 -6.82613,0.28052 -0.69613,0.43416 -3.60167,0.4897 -6.45677,0.12342 -2.85509,-0.36627 -6.96347,-0.26772 -9.12972,0.219 -3.33463,0.74924 -4.27129,0.57246 -6.10769,-1.15275 C 253.34717,499.91697 251.41416,499 250.24457,499 c -1.1696,0 -2.44846,-0.52089 -2.84192,-1.15752 -0.49863,-0.8068 -0.002,-0.97098 1.63894,-0.54185 1.29489,0.33862 2.95432,0.11773 3.68763,-0.49087 1.00719,-0.83589 1.65519,-0.66631 2.64939,0.69335 0.92878,1.27018 1.52851,1.45619 2.03785,0.63207 0.39695,-0.64229 1.17259,-0.88916 1.72364,-0.5486 1.63309,1.00931 9.97987,-0.58345 9.24961,-1.76504 -0.36885,-0.59681 -2.31969,-0.82601 -4.51936,-0.53098 -6.44588,0.86458 -4.33161,-0.97706 2.62965,-2.29056 6.2211,-1.17384 7.71133,-2.13332 5.46738,-3.52016 -0.66171,-0.40896 -0.36664,-1.77715 0.82146,-3.80902 1.56264,-2.6724 1.84039,-5.21427 1.76699,-16.17082 -0.0862,-12.86594 -2.16306,-28.5 -3.78602,-28.5 -0.4621,0 -0.43515,-0.7875 0.0599,-1.75 1.23203,-2.39547 0.54171,-3.8786 -3.84892,-8.26923 -3.779,-3.779 -4.37604,-5.48532 -5.59168,-15.98077 -0.28666,-2.475 -0.67647,-5.85 -0.86624,-7.5 -0.59237,-5.15071 1.58022,-22.85375 3.19084,-26 0.84466,-1.65 2.25115,-4.35 3.12554,-6 2.01191,-3.79655 2.23935,-4.92439 2.16782,-10.75 -0.0321,-2.6125 0.011,-5.5375 0.0957,-6.5 0.31775,-3.61001 -0.15016,-25.9791 -0.66415,-31.75 -0.29392,-3.3 -0.69875,-9.73608 -0.89962,-14.30239 -0.20087,-4.56632 -0.63709,-9.01086 -0.96936,-9.87675 -0.33227,-0.8659 -0.0913,-2.19232 0.53556,-2.94761 0.79567,-0.95872 0.81109,-1.37325 0.0511,-1.37325 -0.66235,0 -1.00396,-1.8599 -0.87244,-4.75 0.18356,-4.03386 -0.0477,-4.7057 -1.53385,-4.45616 -0.9625,0.16161 -1.75,-0.19129 -1.75,-0.78421 0,-0.59632 1.21791,-0.91495 2.72553,-0.71305 2.17935,0.29185 2.87302,1.05018 3.46155,3.78421 0.86854,4.03485 2.49075,20.53321 3.33511,33.91921 0.32958,5.225 1.0141,13.1 1.52116,17.5 0.50706,4.4 0.90517,10.18843 0.88469,12.86317 -0.051,6.66534 0.95064,10.63683 2.6828,10.63683 2.37571,0 2.68917,-2.5638 1.50168,-12.28235 C 278.49306,348.64794 277.74771,338.65 277.45619,331.5 276.48,307.55784 274.95815,291 273.73378,291 c -0.57111,0 -0.51485,-0.55887 0.1351,-1.34201 0.61257,-0.7381 0.78017,-1.6756 0.37244,-2.08333 -0.40772,-0.40773 -0.79757,-1.60383 -0.86632,-2.65799 -0.0688,-1.05417 -0.18125,-2.35542 -0.25,-2.89167 -0.15138,-1.18074 -5.48678,-0.3417 -9.625,1.51363 -4.67369,2.0954 -9.84207,6.19723 -11.60987,9.21406 -0.88544,1.51102 -2.38597,2.67847 -3.33452,2.59433 -1.67397,-0.14848 -9.54797,10.60464 -9.56177,13.05802 -0.003,0.60223 -0.61506,2.26183 -1.35926,3.68799 -1.99092,3.81533 -2.94215,9.51208 -2.90656,17.40697 0.0323,7.15976 0.96727,15.81848 1.99767,18.5 0.68366,1.77916 0.6327,1.60482 3.06901,10.5 3.00634,10.97639 4.2053,16.3405 4.2053,18.81435 0,1.25711 0.495,2.78065 1.1,3.38565 0.605,0.605 1.08835,2.8325 1.0741,4.95 -0.0142,2.1175 0.64146,5.85392 1.45711,8.30315 1.18757,3.56602 1.38334,8.39764 0.9827,24.25358 -0.27516,10.89023 -0.85693,20.36131 -1.29282,21.04685 -0.43588,0.68553 -0.83297,2.59642 -0.88242,4.24642 -0.0495,1.65 -0.4588,5.025 -0.90967,7.5 -0.45087,2.475 -0.89952,6.44911 -0.997,8.83135 -0.0975,2.38225 -0.6423,4.63225 -1.21072,5 -1.07001,0.69228 -2.2033,8.73175 -2.87506,20.39544 -0.37371,6.48866 -0.27342,6.83593 2.83318,9.81004 2.63488,2.52251 2.85687,3.02686 1.2206,2.77321 -1.68324,-0.26094 -1.97566,0.21377 -1.84632,2.99721 0.0845,1.81899 1.32202,4.99318 2.75,7.05375 1.42797,2.06058 2.59632,4.2095 2.59632,4.77539 0,1.12398 7.37562,7.36361 8.70423,7.36361 0.45183,0 1.26572,0.98535 1.80864,2.18967 1.27334,2.82454 6.16117,5.63985 9.98713,5.75242 1.65,0.0485 5.025,0.72634 7.5,1.50619 6.62619,2.08788 18.93317,1.98726 22.02749,-0.18009 z m 39.93268,-28.367 c 2.98723,-10.7798 3.43144,-19.70136 1.68796,-33.90119 -0.84412,-6.875 -1.81542,-15.2 -2.15845,-18.5 -0.34302,-3.3 -1.01386,-7.575 -1.49076,-9.5 -0.4769,-1.925 -1.13597,-5.3 -1.4646,-7.5 -0.32863,-2.2 -1.03137,-5.61596 -1.56165,-7.59101 -2.60036,-9.68523 -4.54341,-27.1402 -4.21995,-37.90899 0.0909,-3.025 0.22262,-7.525 0.2928,-10 0.0702,-2.475 -0.15143,-6.82663 -0.49246,-9.67028 -0.37859,-3.15683 -0.21758,-5.41902 0.41344,-5.80902 0.56843,-0.3513 1.0335,-1.08873 1.0335,-1.63873 0,-0.55 -0.38644,-0.76117 -0.85876,-0.46926 -0.47232,0.29191 -0.81744,-5.86903 -0.76693,-13.69098 0.0505,-7.82195 -0.21447,-15.57173 -0.58884,-17.22173 -2.79278,-12.30902 -3.93468,-18.37999 -3.90288,-20.75 0.0249,-1.85866 -0.47676,-2.75 -1.54785,-2.75 -1.25691,0 -1.44792,0.67231 -0.92336,3.25 1.57737,7.75121 2.39382,22.73164 1.59416,29.25 -1.96412,16.01018 -3.11732,24.1142 -3.69982,26 -0.33977,1.1 -0.74341,5.375 -0.89697,9.5 -0.15356,4.125 -0.36208,7.725 -0.46338,8 -1.16333,3.15813 2.23523,31.35611 5.06205,42 2.9813,11.22556 6.09609,25.04926 6.53435,29 0.21354,1.925 0.8784,5.975 1.47747,9 0.59908,3.025 1.17732,11.8 1.28499,19.5 0.17373,12.42419 -0.07,14.76977 -2.16534,20.83889 -1.65888,4.80489 -2.04676,7.15324 -1.30417,7.89583 0.58132,0.58132 0.80163,2.33354 0.48957,3.89382 l -0.56737,2.83687 3.5916,-3.38731 c 2.77205,-2.61439 4.05254,-5.05068 5.61165,-10.67691 z m 57.14363,11.80261 c -1.28349,-1.28349 -2.58505,-0.2915 -1.63484,1.24598 0.36808,0.59556 1.12735,0.79971 1.68727,0.45366 0.683,-0.42212 0.66575,-0.98146 -0.0524,-1.69964 z m -3.26082,-17.57145 c 0.43308,-0.89779 0.89315,-7.35124 1.02237,-14.34099 0.18912,-10.22931 -0.0758,-13.18288 -1.35783,-15.13954 -2.06611,-3.15328 -7.38901,-19.85752 -8.1741,-25.65182 -0.33534,-2.475 -0.9477,-4.95 -1.3608,-5.5 -0.70625,-0.94032 -1.74981,-5.22666 -5.35611,-22 -0.82776,-3.85 -1.74826,-9.64564 -2.04555,-12.87921 -0.29729,-3.23356 -1.10988,-6.56924 -1.80575,-7.41262 -1.00869,-1.22252 -1.01178,-1.61871 -0.0152,-1.95412 0.6875,-0.2314 1.25,-1.19322 1.25,-2.13738 0,-0.94417 0.53542,-2.25209 1.18981,-2.90648 0.6544,-0.6544 1.25614,-4.06041 1.3372,-7.56891 0.14678,-6.35272 2.65934,-21.69788 4.74085,-28.95412 1.26559,-4.41194 -0.38523,-24.75732 -2.70338,-33.31746 -2.16385,-7.99038 -5.58292,-13.68459 -7.22868,-12.03884 -0.29212,0.29213 0.35195,2.92469 1.43128,5.85014 2.73344,7.40882 4.53752,17.92557 4.64328,27.06761 0.0493,4.262 0.42714,7.74961 0.83964,7.75024 0.4125,6.3e-4 0.75,1.12615 0.75,2.50115 0,1.42632 -0.57709,2.5 -1.34371,2.5 -0.89118,0 -1.92446,2.94679 -3.06816,8.75 -0.94844,4.8125 -2.00902,9.875 -2.35683,11.25 -0.92298,3.64885 -1.40471,25.52638 -0.77067,35 0.74111,11.07356 2.53233,24.62602 3.89899,29.5 2.81591,10.04254 7.83147,28.89535 8.22596,30.92025 1.24346,6.38271 3.64394,25.56932 3.56147,28.46621 -0.053,1.86256 0.13161,3.7554 0.4103,4.20633 0.72326,1.17026 3.35649,-0.0343 4.28563,-1.96044 z m -33.39577,-1.21776 c -0.32197,-0.52097 -1.01165,-0.68378 -1.53262,-0.3618 -0.52097,0.32197 -0.68378,1.01165 -0.3618,1.53262 0.32197,0.52097 1.01165,0.68378 1.53262,0.3618 0.52097,-0.32197 0.68378,-1.01165 0.3618,-1.53262 z M 467.5155,481.66131 C 466.76807,476.62259 465.85135,465.075 465.47835,456 c -0.373,-9.075 -0.89716,-16.85754 -1.16481,-17.29454 -0.26764,-0.43699 -0.61915,-2.23699 -0.78113,-4 -0.38769,-4.21966 -3.22062,-23.485 -4.66223,-31.70546 -0.62695,-3.575 -1.75421,-7.71515 -2.50504,-9.20034 C 455.61431,392.31447 455,390.17697 455,389.04966 455,387.92235 454.50186,387 453.89301,387 c -0.60884,0 -0.86023,0.64304 -0.55863,1.42899 0.30159,0.78594 0.83763,3.14844 1.19119,5.25 0.35357,2.10155 1.03814,5.17101 1.52127,6.82101 1.0146,3.46507 1.85966,10.23756 2.43318,19.5 0.22136,3.575 1.02299,9.2 1.78139,12.5 0.75841,3.3 1.47993,12.55981 1.60339,20.57736 0.23541,15.2882 0.65304,22.42419 1.60491,27.42264 0.31421,1.65 0.81923,4.35 1.12227,6 0.30304,1.65 1.04496,4.575 1.64871,6.5 l 1.09773,3.5 0.76803,-2.83869 c 0.43224,-1.59763 0.17389,-6.84395 -0.59095,-12 z m 2.48203,-20.04717 c -0.83947,-0.82714 -1.00081,0.0451 -0.62633,3.38586 0.74576,6.65299 0.93821,6.95049 1.36764,2.11414 0.2188,-2.4641 -0.10603,-4.87405 -0.74131,-5.5 z m -121.74522,-4.69713 c 0.25962,-1.92652 1.06861,-4.45802 1.79775,-5.62556 1.10341,-1.76685 1.09691,-2.8161 -0.0388,-6.25726 -0.75047,-2.27395 -1.74445,-4.36928 -2.20884,-4.65629 -1.50553,-0.93047 -4.09858,6.94985 -4.52005,13.73648 -0.33153,5.33853 -0.0732,6.95192 1.33909,8.36424 1.66647,1.66648 1.78342,1.65912 2.45432,-0.1545 0.38746,-1.04739 0.91689,-3.48059 1.17651,-5.40711 z m 79.33609,-1.66195 c -1.07549,-1.07549 -1.64645,0.43075 -0.89148,2.35181 0.7082,1.80207 0.76169,1.80519 1.11193,0.0649 0.20237,-1.00555 0.10317,-2.09305 -0.22045,-2.41667 z M 393.18979,428.5 c 0.22474,-1.925 0.049,-3.5 -0.39059,-3.5 -0.43956,0 -0.7992,1.575 -0.7992,3.5 0,1.925 0.17577,3.5 0.39059,3.5 0.21483,0 0.57447,-1.575 0.7992,-3.5 z m -109.68634,0.12114 c 1.68523,-1.23227 1.75822,-1.80441 0.68653,-5.38138 -1.326,-4.42578 -4.21324,-7.63699 -4.93593,-5.48976 -0.2314,0.6875 -1.17497,1.25 -2.09684,1.25 -0.92186,0 -2.23088,0.88831 -2.90892,1.97403 -1.06509,1.70549 -0.81165,2.45368 1.86305,5.5 3.39792,3.87001 4.57022,4.21052 7.39211,2.14711 z M 270.5,419 c -0.33992,-0.55 -1.06803,-1 -1.61803,-1 -0.55,0 -0.72189,0.45 -0.38197,1 0.33992,0.55 1.06803,1 1.61803,1 0.55,0 0.72189,-0.45 0.38197,-1 z m 9,-7 c 0.33992,-0.55 0.14148,-1 -0.44098,-1 -0.58246,0 -1.05902,0.45 -1.05902,1 0,0.55 0.19844,1 0.44098,1 0.24254,0 0.7191,-0.45 1.05902,-1 z m 114.19799,-2.76614 C 393.20108,405.52336 391,405.12862 391,408.75 c 0,1.60417 0.28777,3.20443 0.63948,3.55615 1.24374,1.24374 2.4045,-0.48868 2.05851,-3.07229 z m -58.13828,1.66952 c 0.7688,-1.24394 0.62631,-20.05069 -0.15785,-20.83485 -1.44404,-1.44405 -2.37068,3.46772 -2.29811,12.18147 0.0752,9.02351 0.75241,11.40978 2.45596,8.65338 z m -55.9304,-2.11262 c 1.08197,-1.75066 0.39565,-10.0453 -0.96803,-11.69916 -0.93095,-1.12907 -1.28768,-0.53406 -1.7986,3 -1.03292,7.14484 0.58438,12.23013 2.76663,8.69916 z m 8.04333,-11.13534 c -0.48442,-12.21359 -1.16319,-15.06489 -3.38347,-14.21289 C 283.49016,383.74914 282.64823,384 282.41821,384 282.1882,384 282,384.45 282,385 c 0,0.55 0.5625,0.8875 1.25,0.75 1.77453,-0.35491 2.30583,14.87534 0.59101,16.94157 -1.01612,1.22435 -0.93179,1.67812 0.45623,2.4549 0.93652,0.5241 1.70276,1.85711 1.70276,2.96224 0,1.15779 0.44818,1.73234 1.05754,1.35573 0.68533,-0.42356 0.90182,-4.57982 0.6151,-11.80902 z M 397.80926,401.25 c -0.18331,-3.40834 -0.7165,-5.54638 -1.30926,-5.25 -1.0098,0.5049 -1.07334,7.06352 -0.0932,9.61777 1.12534,2.93259 1.699,1.14598 1.40244,-4.36777 z M 270.5,403 c 0.33992,-0.55 -0.0835,-1 -0.94098,-1 -0.85746,0 -1.55902,0.45 -1.55902,1 0,0.55 0.42344,1 0.94098,1 0.51754,0 1.2191,-0.45 1.55902,-1 z M 392,402.5 c 0,-0.825 -0.45,-1.5 -1,-1.5 -0.55,0 -1,0.675 -1,1.5 0,0.825 0.45,1.5 1,1.5 0.55,0 1,-0.675 1,-1.5 z m 31.13825,-16.1364 c 0.67938,-1.34627 0.89767,-6.52408 0.59022,-14 -0.40158,-9.76473 -0.95147,-12.99983 -3.10818,-18.28601 C 419.17913,350.54527 418,346.91121 418,346.00191 c 0,-0.90931 -1.19706,-2.74422 -2.66013,-4.0776 -2.35811,-2.14906 -2.57262,-2.19724 -1.88937,-0.42431 5.26683,13.66659 5.73296,16.5492 5.65955,35 -0.0822,20.66356 0.74665,27.73491 2.10988,18 0.46211,-3.3 1.32536,-6.96138 1.91832,-8.1364 z M 270.92971,390.25 C 270.96837,389.5625 270.55,389 270,389 c -0.55,0 -0.96837,1.4625 -0.92971,3.25 0.0589,2.72353 0.2095,2.92602 0.92971,1.25 0.47269,-1.1 0.89106,-2.5625 0.92971,-3.25 z m 8.28741,-1 c 0.48678,-6.95876 0.12986,-7.87399 -2.23578,-5.73311 -1.46337,1.32433 -1.63054,2.19098 -0.85291,4.42169 0.53196,1.52598 0.8924,3.17657 0.80097,3.66797 -0.34381,1.84779 0.10168,3.39345 0.97805,3.39345 0.4991,0 1.08845,-2.5875 1.30967,-5.75 z M 397,391.5 c 0,-0.825 -0.45,-1.5 -1,-1.5 -0.55,0 -1,0.675 -1,1.5 0,0.825 0.45,1.5 1,1.5 0.55,0 1,-0.675 1,-1.5 z m -47.01506,-13.25 c -0.0181,-2.09924 -2.31357,-8.91197 -3.3531,-9.9515 -1.01666,-1.01666 -0.51724,7.78482 0.56468,9.9515 0.48061,0.9625 1.30801,1.75 1.83866,1.75 0.53065,0 0.95804,-0.7875 0.94976,-1.75 z M 354,371 c 0,-0.55 -0.45,-1 -1,-1 -0.55,0 -1,0.45 -1,1 0,0.55 0.45,1 1,1 0.55,0 1,-0.45 1,-1 z m 0,-4.55902 c 0,-0.85746 -0.45734,-1.27636 -1.01631,-0.9309 -0.55897,0.34546 -0.75742,1.04702 -0.44098,1.55902 0.85723,1.38704 1.45729,1.12841 1.45729,-0.62812 z M 288.3139,364.75 c 0.29189,-1.2375 0.31375,-3.6 0.0486,-5.25 -0.69256,-4.30943 -1.50435,-26.98189 -1.46586,-40.93998 0.0196,-7.1064 -0.40293,-12.46516 -1.04372,-13.23727 -0.59216,-0.7135 -0.74315,-2.09051 -0.33554,-3.06002 1.03204,-2.45474 0.52666,-10.49498 -0.75727,-12.04737 -0.58436,-0.70656 -1.02891,-2.50656 -0.98789,-4 0.0983,-3.57934 -2.18779,-6.6536 -4.33507,-5.82961 -1.4701,0.56413 -1.59044,2.08683 -1.05702,13.37543 0.33107,7.00635 0.84604,19.26382 1.14437,27.23882 0.29834,7.975 0.76034,17.425 1.02667,21 0.26632,3.575 0.69391,10.24356 0.95018,14.81903 0.53491,9.55012 0.77962,10.18097 3.94928,10.18097 1.59505,0 2.50038,-0.71141 2.86329,-2.25 z m 60.29258,-5.74772 c -0.11866,-3.34074 -0.76678,-3.71899 -2.59591,-1.51501 -1.46056,1.75986 -0.65867,4.51273 1.31453,4.51273 0.89885,0 1.35034,-1.05624 1.28138,-2.99772 z M 429,352.86024 c 0,-0.62686 0.71787,-1.66467 1.59527,-2.30624 1.45799,-1.06611 1.44889,-1.75014 -0.10578,-7.9492 -0.93557,-3.7305 -1.83489,-7.98019 -1.99849,-9.44376 -1.82073,-16.28842 -2.55009,-26.27461 -2.5238,-34.55501 0.0274,-8.63499 -3.3102,-39.73397 -4.46486,-41.60224 -0.23072,-0.37332 -0.67477,-3.3073 -0.98676,-6.51995 -0.312,-3.21266 -0.9818,-6.34067 -1.48844,-6.95114 -1.10601,-1.33266 -1.37492,-7.98878 -0.47283,-11.70358 0.60816,-2.50437 -2.42513,-12.74777 -4.53568,-15.31698 -0.4573,-0.55668 -1.15486,-3.1843 -1.55014,-5.83915 -0.6491,-4.35974 -0.93499,-4.77272 -2.95323,-4.26618 -3.92744,0.98573 -5.27329,-1.91672 -5.77866,-12.46219 -0.25185,-5.25546 -1.03909,-10.65546 -1.74941,-12 -2.20109,-4.16636 -11.13873,-13.38026 -14.25405,-14.69462 -5.66766,-2.39121 -6.01209,-2.00649 -5.22455,5.83552 0.71099,7.07975 1.05013,8.64973 5.92188,27.41448 1.42792,5.5 2.76743,10.91327 2.97667,12.0295 0.20925,1.11622 0.84454,3.81622 1.41175,6 2.54501,9.79824 3.05584,12.36368 3.67783,18.4705 0.36412,3.575 1.03956,8.075 1.50097,10 1.13353,4.72909 1.93199,15.69914 2.52377,34.67377 0.27147,8.70442 0.72226,17.62623 1.00176,19.82623 0.27951,2.2 0.61362,9.15855 0.74248,15.46344 l 0.2343,11.46343 3,1.51353 c 7.77269,3.92141 10.76086,6.65286 14.75588,13.48817 5.38019,9.2053 8.74412,12.83374 8.74412,9.43167 z M 346.98469,349.75 c -0.012,-1.75671 -0.21673,-1.9316 -0.93402,-0.79775 -0.50529,0.79874 -0.69684,1.81124 -0.42567,2.25 0.86737,1.40343 1.37543,0.86078 1.35969,-1.45225 z m 86.69842,0.0625 c -0.31922,-0.79773 -0.55618,-0.56078 -0.60416,0.60417 -0.0434,1.05416 0.19293,1.64479 0.52522,1.3125 0.33229,-0.33229 0.36781,-1.1948 0.0789,-1.91667 z m -86.02452,-7.36671 C 348.12454,339.72594 347.15479,336 345.98095,336 345.44143,336 345,338.0625 345,340.58333 c 0,3.03852 0.39186,4.45272 1.16263,4.19579 0.63944,-0.21314 1.31263,-1.26314 1.49596,-2.33333 z M 342,338 c 0,-0.55 -0.19844,-1 -0.44098,-1 -0.24254,0 -0.7191,0.45 -1.05902,1 -0.33992,0.55 -0.14148,1 0.44098,1 0.58246,0 1.05902,-0.45 1.05902,-1 z m -2.25,-7.33238 c 2.56271,-2.31018 3.32054,-6.80098 0.7938,-4.70397 -0.8009,0.66469 -1.81496,0.9868 -2.25347,0.71579 -0.62057,-0.38354 -0.78577,-6.69622 -0.33417,-12.76892 0.0241,-0.32422 1.13859,-1.08829 2.47663,-1.69794 2.23387,-1.01782 2.33797,-1.35964 1.27322,-4.18048 -0.66881,-1.7719 -1.6902,-2.86841 -2.41339,-2.59089 -0.95819,0.36769 -1.10955,-0.89933 -0.64192,-5.37335 0.33655,-3.21997 0.299,-7.52244 -0.0834,-9.56105 -0.60881,-3.24528 -0.9674,-3.62031 -2.8813,-3.01342 -1.20227,0.38124 -3.08595,0.78229 -4.18595,0.89123 -3.69572,0.36599 -6.5,1.73913 -6.5,3.18277 0,0.78793 0.45,1.43261 1,1.43261 0.55,0 1,1.26 1,2.8 0,1.54 0.38762,3.2275 0.86138,3.75 0.47376,0.5225 1.41798,4.55 2.09826,8.95 1.31368,8.49675 3.66015,21.34902 4.65559,25.5 0.56536,2.35753 0.66464,2.39161 1.74215,0.59796 0.62844,-1.04613 2.15512,-2.81478 3.39262,-3.93034 z M 161.3065,332.25 c 0.2968,-1.5125 0.12426,-3.1775 -0.38343,-3.7 -0.58299,-0.6 -0.94845,-0.6 -0.99197,0 -0.0379,0.5225 -0.2322,2.1875 -0.43178,3.7 -0.19958,1.5125 0.004,2.75 0.45232,2.75 0.44836,0 1.05805,-1.2375 1.35486,-2.75 z M 393,329.63845 c 2.49895,-0.13839 2.50005,-0.14307 2.62052,-11.13845 0.0663,-6.05 -0.27777,-13.475 -0.76458,-16.5 -0.4868,-3.025 -1.12613,-8.425 -1.42074,-12 -0.2946,-3.575 -1.1654,-10.1 -1.93511,-14.5 -2.59046,-14.80834 -2.74812,-15.98144 -3.04684,-22.6706 -0.16384,-3.66883 -0.82355,-7.65279 -1.46601,-8.85324 -0.64246,-1.20045 -1.33453,-5.84868 -1.53793,-10.3294 -0.44732,-9.85376 -1.7109,-18.10349 -3.39213,-22.14676 -1.34627,-3.23771 -1.78774,-5.71695 -2.67099,-15 -0.84146,-8.84391 -0.84331,-9.70648 -0.0281,-13.12321 0.59671,-2.50101 0.3915,-3.25892 -1.03007,-3.80442 -2.06493,-0.79239 -4.48185,1.86311 -3.65555,4.0164 0.29429,0.7669 -0.20982,1.68021 -1.12024,2.02957 -0.91042,0.34936 -3.05366,3.50316 -4.76277,7.00843 -4.11238,8.43426 -7.51226,8.6799 -9.50231,0.68653 -0.90105,-3.61924 -0.76151,-4.63578 1.0295,-7.5 1.1395,-1.82231 2.14418,-4.6633 2.23261,-6.3133 0.19359,-3.61196 4.41853,-15.66595 5.89758,-16.82613 0.71857,-0.56366 0.65605,-0.98728 -0.19681,-1.33333 -0.6875,-0.27897 -1.25,-1.87094 -1.25,-3.53772 0,-3.51887 -3.5891,-10.41619 -5.90811,-11.35385 -2.65512,-1.07356 -7.31308,-1.74623 -12.81218,-1.85024 -3.99412,-0.0755 -5.67608,0.37104 -7.16081,1.90127 -2.21958,2.2876 -1.98531,4.36695 2.2601,20.06081 3.36297,12.43177 4.60097,27.52059 4.67171,56.93919 0.0559,23.23308 -0.48582,50.68176 -1.04594,53 -0.47943,1.9843 0.0146,3.60605 0.92681,3.04229 0.51237,-0.31666 1.52487,0.21928 2.25,1.19098 1.4729,1.97374 4.53166,3.58191 9.9716,5.24266 4.26841,1.30309 6.49506,3.24026 14.75294,12.83492 4.084,4.74512 6.09388,7.93879 6.09388,9.68306 0,1.43149 0.93449,4.49346 2.07664,6.8044 1.14216,2.31093 2.06925,5.96941 2.06022,8.12995 -0.0213,5.08515 1.47968,7.94794 3.68983,7.03775 0.92032,-0.37901 2.79831,-0.75141 4.17331,-0.82756 z m -50.85882,-10.78584 c -0.76397,-2.0652 -2.94765,-2.55305 -2.24977,-0.50261 0.21527,0.6325 0.35318,1.97152 0.30645,2.97559 -0.0672,1.44419 0.20424,1.58559 1.29928,0.67678 0.87856,-0.72913 1.11383,-1.87979 0.64404,-3.14976 z m 0.58799,-21.45678 c -0.33229,-0.33229 -1.1948,-0.36781 -1.91667,-0.0789 -0.79773,0.31922 -0.56078,0.55618 0.60417,0.60416 1.05416,0.0434 1.64479,-0.19293 1.3125,-0.52522 z m 7.13971,-7.73784 C 351.17332,288.08623 350.37972,287 347.92695,287 c -1.24738,0 -1.5917,0.56599 -1.2167,2 0.6096,2.33112 1.599,2.53722 3.15863,0.65799 z M 173.14284,277.43423 C 175.27045,268.99514 175.38185,267 173.72544,267 c -0.80915,0 -1.69704,2.64734 -2.43156,7.25 -0.63635,3.9875 -1.48451,8.0989 -1.88479,9.13645 -0.52154,1.35184 -0.34332,1.75829 0.62888,1.43423 0.74616,-0.24872 2.14336,-3.57263 3.10487,-7.38645 z m 159.58862,6.44386 c 3.81039,0.1389 3.91713,-0.16241 4.73914,-13.37809 0.932,-14.98397 1.21206,-25.74522 1.41837,-54.5 0.23422,-32.64624 -1.02208,-44.00218 -5.78663,-52.30672 C 329.47522,157.37125 323.76788,151 321.73176,151 c -1.81381,0 -2.58469,2.61489 -1.76092,5.97316 0.87973,3.58641 -1.2345,10.82279 -3.65802,12.52029 -1.14636,0.80294 -2.36603,2.5824 -2.71036,3.95436 -0.83639,3.33243 -3.34062,4.46551 -7.42308,3.35869 -4.44086,-1.204 -6.59663,-6.13733 -5.65946,-12.9513 0.53299,-3.87532 1.05246,-4.8552 2.57392,-4.8552 1.10115,0 1.90616,-0.69362 1.90616,-1.6424 0,-0.90333 1.58609,-5.65336 3.52464,-10.55563 3.21747,-8.13645 3.72688,-11.69348 1.47536,-10.30197 -1.75095,1.08215 -2.13912,-1.68879 -0.4916,-3.50928 1.61147,-1.78066 1.58754,-2.04725 -0.43935,-4.89375 -1.17902,-1.65578 -3.18042,-3.82601 -4.44755,-4.82274 -1.26713,-0.99672 -2.84117,-2.81618 -3.49787,-4.04323 -0.6567,-1.22705 -2.0019,-2.231 -2.98934,-2.231 -0.98743,0 -4.0091,-1.12312 -6.71481,-2.49581 -3.86376,-1.96022 -6.42168,-2.49343 -11.91948,-2.48469 -8.60568,0.0137 -10.66184,0.98922 -7.05967,3.34945 1.40782,0.92243 2.55967,2.56678 2.55967,3.6541 0,2.13718 -1.46703,2.64832 -2.55385,0.88982 -4.00335,-6.47756 -3.48515,26.36029 0.62521,39.61937 2.42209,7.81308 3.67768,25.09148 4.24876,58.46776 0.25683,15.01063 0.94693,27.76241 1.67764,31 0.68273,3.025 1.30004,9.4 1.37179,14.16667 0.0718,4.76667 0.4704,9.00663 0.8859,9.42212 0.4155,0.4155 4.4655,0.82361 9,0.90691 4.5345,0.0833 9.81955,0.75408 11.74455,1.49062 1.925,0.73654 5.92281,2.27373 8.88402,3.41598 2.9612,1.14225 6.1112,3.11582 7,4.38571 1.45005,2.07181 2.12937,2.24026 6.61598,1.64058 2.75,-0.36756 6.45416,-0.61529 8.23146,-0.5505 z M 308,282.55902 c 0,-0.24254 -0.45,-0.7191 -1,-1.05902 -0.55,-0.33992 -1,-0.14148 -1,0.44098 0,0.58246 0.45,1.05902 1,1.05902 0.55,0 1,-0.19844 1,-0.44098 z m -31,-17.18146 c 0,-3.10657 -0.21362,-3.44516 -1.5,-2.37756 -0.825,0.68469 -1.5,2.31479 -1.5,3.62244 0,1.44672 0.58727,2.37756 1.5,2.37756 1.05728,0 1.5,-1.06916 1.5,-3.62244 z M 275.98899,253.25 c -0.0151,-6.52907 -1.06548,-12.32076 -2.11661,-11.67113 -0.98567,0.60918 -1.19676,12.41225 -0.26539,14.83934 1.19088,3.10338 2.39283,1.50471 2.382,-3.16821 z m -1.05928,-25 c -0.0387,-0.4125 -0.45702,-1.65 -0.92971,-2.75 -0.76156,-1.77225 -0.86743,-1.68684 -0.92971,0.75 -0.0387,1.5125 0.37971,2.75 0.92971,2.75 0.55,0 0.96837,-0.3375 0.92971,-0.75 z M 427,226 c 0,-1.1 -0.35424,-2 -0.7872,-2 -0.43295,0 -0.85499,0.9 -0.93785,2 -0.0829,1.1 0.27138,2 0.7872,2 0.51582,0 0.93785,-0.9 0.93785,-2 z m -153.31067,-7.75 c -0.25153,-0.9625 -0.45733,-0.175 -0.45733,1.75 0,1.925 0.2058,2.7125 0.45733,1.75 0.25152,-0.9625 0.25152,-2.5375 0,-3.5 z m -0.83723,-18.41545 c -0.42109,-3.941 -0.53927,-7.5317 -0.26262,-7.97934 0.27666,-0.44763 0.0769,-1.61068 -0.44381,-2.58454 -0.8416,-1.5739 -1.50929,-8.10005 -2.68774,-26.27067 -0.19618,-3.025 -0.628,-7.075 -0.95959,-9 -0.33158,-1.925 -0.73008,-4.51322 -0.88555,-5.7516 -0.4048,-3.22455 -1.59117,-4.02295 -1.73121,-1.16507 -0.0651,1.32917 -0.0351,2.84435 0.0668,3.36707 0.10187,0.52271 0.82528,7.72271 1.60757,16 0.7823,8.27728 1.8461,18.1996 2.36402,22.0496 0.51792,3.85 0.94083,7.675 0.93982,8.5 -10e-4,1.18712 0.82541,8.63406 1.08259,9.75 0.0317,0.1375 0.42161,0.25 0.86649,0.25 0.44487,0 0.46433,-3.22445 0.0432,-7.16545 z M 344,182.5 c 0,-0.825 -0.45,-1.5 -1,-1.5 -0.55,0 -1,0.675 -1,1.5 0,0.825 0.45,1.5 1,1.5 0.55,0 1,-0.675 1,-1.5 z m 57.44721,-11.41459 c 0.86369,-1.39748 -6.38541,-5.54721 -7.58856,-4.34406 -0.65993,0.65993 0.12234,1.68488 2.3232,3.04395 3.85672,2.38158 4.49897,2.54017 5.26536,1.30011 z m -91.11893,-2.64003 c -0.0944,-1.01166 0.5368,-2.35746 1.40277,-2.99067 0.87704,-0.64131 1.2472,-1.68088 0.83564,-2.34681 -0.40638,-0.65753 -0.18148,-1.86712 0.49977,-2.68798 C 314.34066,158.8846 315.57823,149 314.49624,149 c -0.33259,0 -1.9753,1.28093 -3.65047,2.84652 -2.30743,2.15648 -3.04577,3.72261 -3.04577,6.46054 0,1.98772 -0.58354,4.09833 -1.29677,4.69026 -2.14406,1.77941 0.41434,8.56069 2.89686,7.67836 0.60495,-0.21502 1.02264,-1.21865 0.92819,-2.2303 z M 243,167.55902 c 0,-0.24254 -0.45,-0.7191 -1,-1.05902 -0.55,-0.33992 -1,-0.14148 -1,0.44098 0,0.58246 0.45,1.05902 1,1.05902 0.55,0 1,-0.19844 1,-0.44098 z M 303.66228,160.75 c -0.27741,-0.6875 -0.50439,-0.125 -0.50439,1.25 0,1.375 0.22698,1.9375 0.50439,1.25 0.27741,-0.6875 0.27741,-1.8125 0,-2.5 z m 82.06689,0.64583 c -0.33229,-0.33229 -1.1948,-0.36781 -1.91667,-0.0789 -0.79773,0.31922 -0.56078,0.55618 0.60417,0.60416 1.05416,0.0434 1.64479,-0.19293 1.3125,-0.52522 z M 251.45729,160.0691 c 0.31644,-0.512 0.11799,-1.21356 -0.44098,-1.55902 -0.55897,-0.34546 -1.01631,0.0734 -1.01631,0.9309 0,1.75653 0.60006,2.01516 1.45729,0.62812 z m 154.64367,-4.69691 c 2.73721,-0.8953 4.789,-1.81556 4.55953,-2.04503 -0.64543,-0.64544 -9.62552,1.80724 -10.23651,2.79584 -0.74891,1.21177 -0.0343,1.11726 5.67698,-0.75081 z M 334,149.06809 c 0,-1.54481 -5.79303,-5.21199 -6.47929,-4.1016 -0.34084,0.55149 0.86507,1.90795 2.67979,3.01437 3.8086,2.32206 3.7995,2.31945 3.7995,1.08723 z m -10,-8.51632 c 0,-1.28161 -0.90687,-3.39255 -2.01527,-4.69099 l -2.01527,-2.36078 0.51527,2.75 c 1.26526,6.75269 1.63226,7.79573 2.54459,7.23188 0.53387,-0.32995 0.97068,-1.6485 0.97068,-2.93011 z m -67.41433,-1.57826 c -0.16792,-2.21456 -0.56345,-4.28462 -0.87896,-4.60013 -1.00707,-1.00708 -2.76942,0.7175 -1.98833,1.94572 0.41304,0.64949 0.81414,1.9684 0.89131,2.9309 0.27206,3.39316 0.39917,3.75 1.3358,3.75 0.52002,0 0.8081,-1.81192 0.64018,-4.02649 z m 96.16433,2.54645 c 4.5375,0.011 8.25,-0.09 8.25,-0.22432 0,-0.13435 -1.42583,-0.98161 -3.16852,-1.88279 -2.17718,-1.12586 -4.4455,-1.45359 -7.25,-1.04748 C 344.37334,139.26436 339,140.98132 339,142.06606 c 0,0.58018 1.10861,0.66202 2.75,0.20299 1.5125,-0.42298 6.4625,-0.76007 11,-0.74909 z M 317,139.5 c 0,-0.76008 -0.45,-1.66008 -1,-2 -0.5694,-0.35191 -1,0.50929 -1,2 0,1.49071 0.4306,2.35191 1,2 0.55,-0.33992 1,-1.23992 1,-2 z m -64.5,0.5 c 0.33992,-0.55 0.14148,-1 -0.44098,-1 -0.58246,0 -1.05902,0.45 -1.05902,1 0,0.55 0.19844,1 0.44098,1 0.24254,0 0.7191,-0.45 1.05902,-1 z M 224,123.55902 c 0,-0.24254 -0.45,-0.7191 -1,-1.05902 -0.55,-0.33992 -1,-0.14148 -1,0.44098 0,0.58246 0.45,1.05902 1,1.05902 0.55,0 1,-0.19844 1,-0.44098 z m 9.13689,-14.28375 c 2.67166,-3.85959 4.53687,-7.17314 13.01813,-23.126816 1.56474,-2.94335 2.84498,-6.121327 2.84498,-7.06217 0,-0.940844 0.85582,-3.482648 1.90183,-5.648455 1.04601,-2.165806 2.22318,-6.187829 2.61594,-8.937829 0.39275,-2.75 1.76545,-7.131714 3.05044,-9.737143 1.28499,-2.605429 2.64991,-6.430429 3.03315,-8.5 L 260.29818,42.5 l -4.41849,4 c -2.43017,2.2 -5.75976,5.717598 -7.39909,7.816884 -1.63933,2.099286 -3.6851,4.603783 -4.54615,5.565547 -4.14897,4.634267 -15.32957,25.669229 -14.42327,27.135662 0.25674,0.415411 -0.17226,1.285664 -0.95333,1.933896 -3.25326,2.699963 -4.8176,19.757621 -2.02454,22.075661 1.36283,1.13104 1.30622,1.51426 -0.50915,3.44663 -1.12335,1.19575 -1.73422,2.48233 -1.35749,2.85905 0.9125,0.9125 4.86064,-2.84352 8.47022,-8.05806 z m 74.73555,7.06304 C 306.46806,114.63794 296.88167,110 294.77149,110 c -2.06714,0 0.61905,1.9572 6.83601,4.98083 6.90055,3.35609 8.13693,3.62399 6.26494,1.35748 z M 246.15742,109 c 1.72656,-1.65 3.57001,-3 4.09654,-3 0.86243,0 4.66711,-2.70714 8.7792,-6.246646 0.84324,-0.725823 3.23204,-2.12585 5.30845,-3.11117 3.70895,-1.760013 4.52648,-4.276082 1.30076,-4.003295 -2.74535,0.232164 -1.83543,-1.739746 1.35922,-2.945592 2.48494,-0.937959 4.05856,-3.230961 9.14215,-13.321513 7.19589,-14.283295 7.36743,-17.528337 0.64522,-12.205291 -8.29682,6.56991 -18.48066,17.561018 -24.10953,26.020683 -3.15006,4.734255 -6.3916,9.15898 -7.20341,9.832724 -0.81181,0.67374 -1.48603,1.73239 -1.49826,2.35254 C 243.96553,102.9926 243.07554,104.625 242,106 c -2.3389,2.99011 -2.58516,6 -0.4909,6 0.83001,0 2.92175,-1.35 4.64832,-3 z M 332,106.07742 c 2.48702,-0.71946 2.48443,-0.72555 -0.5,-1.17409 -1.65,-0.24799 -5.25,0.0791 -8,0.7269 l -5,1.17778 5.5,-0.004 c 3.025,-0.002 6.625,-0.32913 8,-0.7269 z m -31.45888,-7.143951 c 1.22507,-1.982216 -0.54315,-2.295798 -3.80114,-0.674106 l -3.23998,1.612728 3.19098,0.06396 c 1.75504,0.03517 3.4876,-0.415985 3.85014,-1.002577 z M 311.5,96.375845 c 1.65,-0.316805 5.25,-1.608402 8,-2.870215 2.75,-1.261814 6.575,-2.83979 8.5,-3.506615 7.95802,-2.756677 10.21215,-3.769594 12.79054,-5.747576 l 2.70946,-2.078524 -4,1.022716 c -2.2,0.562494 -5.23432,1.125964 -6.74293,1.252156 -1.50861,0.126192 -3.53361,0.896894 -4.5,1.712671 -2.24966,1.899055 -12.76278,6.503587 -19.24274,8.427926 C 306.25645,95.407387 304,96.562532 304,97.155372 c 0,0.640984 0.912,0.818191 2.25,0.437186 1.2375,-0.352388 3.6,-0.899909 5.25,-1.216713 z M 349.5,81 c 0.33992,-0.55 0.14148,-1 -0.44098,-1 C 348.47656,80 348,80.45 348,81 c 0,0.55 0.19844,1 0.44098,1 0.24254,0 0.7191,-0.45 1.05902,-1 z M 139.96287,940.41667 c -0.0204,-1.60417 -0.10863,-6.06667 -0.19602,-9.91667 -0.18483,-8.14276 0.91455,-14.81494 2.29999,-13.95869 0.53118,0.32829 0.70204,1.02363 0.3797,1.5452 -0.32235,0.52157 -0.77061,6.18139 -0.99614,12.57739 -0.22553,6.39599 -0.64413,11.86316 -0.93022,12.14926 -0.2861,0.28609 -0.53689,-0.79233 -0.55731,-2.39649 z M 141,912 c 0,-0.55 0.45,-1 1,-1 0.55,0 1,0.45 1,1 0,0.55 -0.45,1 -1,1 -0.55,0 -1,-0.45 -1,-1 z M 386,574 c -0.79314,-0.49019 -1.21708,-1.11625 -0.94208,-1.39125 0.275,-0.275 1.14894,-0.0989 1.94208,0.39125 0.79314,0.49019 1.21708,1.11625 0.94208,1.39125 -0.275,0.275 -1.14894,0.0989 -1.94208,-0.39125 z M 327.34409,548.4922 C 326.70833,547.12149 326.43372,546 326.73384,546 c 0.7041,0 3.19281,3.27021 3.23436,4.25 0.0704,1.66052 -1.53854,0.58274 -2.62411,-1.7578 z m -57.99176,-3.48551 c -1.18122,-0.47659 -2.44528,-1.34807 -2.80902,-1.93661 -1.12294,-1.81697 2.79959,-1.14849 5.45669,0.92992 2.6511,2.07372 1.28462,2.59328 -2.64767,1.00669 z M 173.07895,289.41667 c 0.048,-1.16495 0.28494,-1.4019 0.60416,-0.60417 0.28887,0.72187 0.25335,1.58438 -0.0789,1.91667 -0.3323,0.33229 -0.56864,-0.25834 -0.52522,-1.3125 z m 19.94393,-60.8565 C 192.48752,227.15208 191.53326,226 190.90231,226 c -0.83848,0 -0.85155,-0.35624 -0.0486,-1.32379 0.80462,-0.96951 0.77048,-1.65525 -0.12755,-2.56228 -0.96949,-0.9792 -0.86641,-1.44153 0.49237,-2.20831 1.2316,-0.69502 1.56138,-1.75584 1.1638,-3.74374 -0.36918,-1.84588 -0.0284,-3.21079 1.01868,-4.07977 1.71789,-1.42572 5.09911,-0.70043 4.12002,0.88378 -0.98619,1.5957 -1.86128,8.22248 -1.67999,12.72205 0.19753,4.90235 -1.41971,6.55058 -2.81821,2.87223 z M 197,206.96795 c -1.33333,-0.8604 -1.33333,-1.0755 0,-1.9359 1.53807,-0.99252 2.49413,0.017 1.83333,1.9359 -0.21486,0.62394 -0.86644,0.62394 -1.83333,0 z M 198,201.5 c 0,-0.825 0.45,-1.5 1,-1.5 0.55,0 1,0.675 1,1.5 0,0.825 -0.45,1.5 -1,1.5 -0.55,0 -1,-0.675 -1,-1.5 z m 48.45623,-16.57082 c -0.37508,-0.60689 -0.24093,-1.54448 0.29812,-2.08353 0.64011,-0.64011 1.18443,-0.44756 1.56919,0.55511 0.69959,1.82308 -0.88407,3.11933 -1.86731,1.52842 z M 243,182.94098 c 0,-0.58246 0.45,-0.7809 1,-0.44098 0.55,0.33992 1,0.81648 1,1.05902 0,0.24254 -0.45,0.44098 -1,0.44098 -0.55,0 -1,-0.47656 -1,-1.05902 z m -14.55385,-2.02811 c -1.17657,-1.90373 0.92863,-2.74656 5.05385,-2.02335 3.77049,0.66103 3.87467,0.77038 1.81574,1.90587 -2.71757,1.49873 -5.98143,1.55454 -6.86959,0.11748 z m 185.76997,-73.9149 c -0.70613,-1.14363 -1.01707,-2.51102 -0.69098,-3.03865 1.06068,-1.71621 4.96082,-1.01207 6.3036,1.13806 1.52415,2.44055 1.46944,2.54094 -1.83079,3.35999 -1.87346,0.46495 -2.81892,0.1001 -3.78183,-1.4594 z M 383.55279,85.08541 c -0.32198,-0.520967 -0.15917,-1.210648 0.3618,-1.532624 0.52097,-0.321975 1.21065,-0.159164 1.53262,0.361804 0.32198,0.520967 0.15917,1.210648 -0.3618,1.532624 -0.52097,0.321975 -1.21065,0.159164 -1.53262,-0.361804 z" id="path12"/>
</svg>
