<?xml version="1.0" encoding="utf-8"?>
<svg xmlns="http://www.w3.org/2000/svg" version="1.1" viewBox="0 0 538 554">
	<title>Lionel is standing on one foot with his hands in the air.</title>
	<path d="m 474,535.79646 c -2.475,-0.43165 -8.67177,-0.98956 -13.7706,-1.23981 -6.46723,-0.31741 -9.72967,-0.91406 -10.78869,-1.97309 -1.0096,-1.00959 -2.50917,-1.31987 -4.47692,-0.92632 -1.68223,0.33645 -3.57185,0.083 -4.37966,-0.58742 -0.96716,-0.80267 -6.79529,-1.17898 -18.25249,-1.17853 -43.20849,0.002 -52.92148,0.0471 -68.11819,0.31817 -9.36452,0.16706 -16.58978,0.71556 -17,1.29054 -1.1429,1.60194 -4.19141,1.72101 -4.78018,0.1867 -0.44887,-1.16973 -1.54577,-1.05947 -6.50177,0.6536 -5.31782,1.83813 -6.67704,1.93822 -12.58309,0.92656 -5.62213,-0.96303 -6.9782,-0.90031 -8.98661,0.41565 -1.47688,0.96769 -3.20981,1.28719 -4.61357,0.8506 -4.05023,-1.25966 -42.95844,-1.60354 -44.41757,-0.39257 -0.869,0.72121 -1.76433,0.76939 -2.58066,0.13888 -0.6875,-0.53101 -8.49977,-1.03026 -17.36061,-1.10943 -11.75262,-0.10502 -16.85315,-0.5292 -18.85567,-1.56812 -2.06026,-1.06887 -3.47232,-1.17063 -5.66028,-0.40791 -2.08363,0.72636 -3.31412,0.6852 -4.3136,-0.1443 -0.76911,-0.6383 -4.24721,-1.15577 -7.72911,-1.14993 -3.4819,0.006 -16.45573,-0.14483 -28.83073,-0.33484 -19.70621,-0.30256 -22.54015,-0.54533 -22.82332,-1.95517 -0.17783,-0.88535 0.0799,-1.60972 0.57274,-1.60972 0.49284,0 1.882,-1.97413 3.08702,-4.38695 2.13025,-4.26542 4.1534,-5.56884 8.69132,-5.5994 1.11527,-0.008 2.75164,-0.80115 3.63639,-1.76365 2.27904,-2.47932 6.05612,-5.23713 7.28924,-5.3222 0.57564,-0.0397 2.34539,-1.63412 3.93278,-3.54313 3.27401,-3.93736 4.56157,-10.53779 2.53253,-12.98263 -0.80322,-0.96782 -1.38993,-5.42484 -1.58583,-12.04684 -0.17101,-5.78087 -0.5634,-10.9192 -0.87199,-11.4185 -0.30859,-0.4993 -0.50529,-3.05182 -0.43712,-5.67226 0.0682,-2.62044 -1.2334,-10.4743 -2.89239,-17.45302 -1.65898,-6.97871 -3.03767,-13.50371 -3.06376,-14.5 -0.45581,-17.4052 -0.83921,-24.41635 -1.36387,-24.94101 -0.35103,-0.35104 -1.66548,-0.76321 -2.92099,-0.91594 -6.34165,-0.77144 -19.21397,-4.32974 -25.28275,-6.98892 -1.65,-0.72299 -4.8,-1.86639 -7,-2.5409 -4.014,-1.23068 -15.89057,-7.17974 -18.27258,-9.15288 -0.69992,-0.57977 -1.01249,-1.87361 -0.6946,-2.87518 0.31789,-1.00157 0.0387,-2.82859 -0.6203,-4.06004 -1.46327,-2.73416 -2.06725,-31.43309 -0.8594,-40.83655 0.45919,-3.575 0.92996,-10.01161 1.04615,-14.30358 0.24475,-9.04108 1.71653,-16.28054 4.01959,-19.77173 1.95899,-2.96964 3.04026,-7.33896 4.50333,-18.19765 0.3537,-2.62513 1.0334,-5.01418 1.51045,-5.30902 1.13055,-0.69871 1.11889,-4.74787 -0.0172,-5.96802 -0.5127,-0.55064 -0.51275,-3.89264 -1.2e-4,-7.95 0.48644,-3.85 1.01758,-11.05 1.18031,-16 0.18952,-5.76444 0.86478,-10.07852 1.8783,-12 3.60408,-6.83277 8.28094,-20.95496 7.40763,-22.368 -0.31115,-0.50344 -6.75679,-0.87553 -14.32365,-0.82685 C 109.67702,216.36035 103.18297,215.92924 101,215.15947 96.709196,213.64644 90.848955,205.78759 85.967341,195 85.345124,193.625 81.552702,185.975 77.539737,178 73.526771,170.025 69.693367,161.781 69.02106,159.67999 68.348754,157.57898 67.168981,155.61834 66.399342,155.323 65.629704,155.02766 65,154.37452 65,153.87157 65,152.4246 59.961001,145.00207 54.904006,139 c -2.580639,-3.06292 -4.91526,-6.99499 -5.268771,-8.87389 -0.986612,-5.24381 -15.04176,-18.6072 -22.44829,-21.34344 -3.12782,-1.15553 -6.575961,-2.93086 -7.662535,-3.94519 -1.885039,-1.75969 -1.899118,-1.99302 -0.307159,-5.090848 C 20.134888,97.960984 21.042348,95.6 21.233829,94.5 c 0.23217,-1.333745 1.035437,-1.929255 2.411293,-1.787635 1.68967,0.173922 1.977936,-0.233378 1.592435,-2.25 C 24.894394,88.667224 25.204888,88 26.383423,88 27.27254,88 28,87.290385 28,86.423077 28,83.426832 33.566233,79 37.333666,79 c 2.871986,0 4.363794,0.894881 8.452441,5.070314 l 4.964929,5.070314 0.659222,-3.513952 c 0.758741,-4.044442 3.117232,-5.254719 6.890079,-3.535695 3.032762,1.381819 3.547793,2.985198 4.307189,13.409019 0.759958,10.43154 3.178878,15.73504 10.262226,22.5 3.167371,3.025 6.528264,7.16586 7.468652,9.20192 0.940387,2.03605 2.750579,4.96105 4.022647,6.5 1.272069,1.53894 5.356331,9.09808 9.076139,16.79808 3.719807,7.7 8.74318,16.83406 11.16305,20.29791 2.41987,3.46385 4.41187,6.61385 4.42666,7 0.0534,1.39418 5.56074,6.89501 9.53969,9.52845 3.80658,2.51935 4.41142,2.62604 9.45979,1.66864 3.03279,-0.57516 6.50496,-2.02236 7.93341,-3.30663 1.39712,-1.25611 3.66521,-2.78898 5.04021,-3.40638 11.82178,-5.30821 15.05271,-6.48426 18.81288,-6.84785 2.37208,-0.22937 4.99172,-1.09588 5.82142,-1.92559 1.49675,-1.49674 4.13309,-1.83752 11.90413,-1.53877 2.97191,0.11425 4.54285,-0.40211 5.94841,-1.95524 2.24925,-2.48539 2.49983,-3.57237 2.65445,-11.51454 0.24993,-12.83804 0.69473,-11.90055 -7.66875,-16.16333 -4.1401,-2.11017 -8.7526,-4.47713 -10.25,-5.25992 -1.4974,-0.78279 -5.45175,-3.54066 -8.78745,-6.12861 -3.3357,-2.58794 -7.6107,-5.48356 -9.5,-6.43471 -4.05907,-2.04349 -6.33353,-4.5668 -9.02591,-10.01343 -3.20421,-6.48208 -4.39757,-8.26514 -6.87352,-10.27004 -2.9149,-2.36034 -3.92798,-11.023533 -1.97255,-16.867895 C 132.77382,85.237929 133.4315,78.775 133.52463,73 c 0.0931,-5.775 0.49591,-11.520047 0.89506,-12.76677 0.39915,-1.246724 2.55643,-3.200723 4.79395,-4.34222 7.5247,-3.838817 11.87757,-8.393792 15.90263,-16.64101 2.47766,-5.076639 3.49974,-6.25 5.44419,-6.25 1.31664,0 5.44166,-1.157493 9.16671,-2.572208 3.72506,-1.414714 8.4853,-2.751695 10.57832,-2.971069 2.09302,-0.219374 4.90161,-1.261065 6.2413,-2.314869 1.3397,-1.053805 4.12723,-2.232092 6.19451,-2.618417 2.06729,-0.386325 4.31993,-1.166186 5.00588,-1.733025 0.68594,-0.566838 6.08594,-1.257648 12,-1.535134 L 220.5,18.75076 l 9,5.542455 c 23.63807,14.556995 27.48842,17.224168 34.25784,23.73075 C 267.74966,51.860784 271.27752,55 271.59755,55 c 0.78466,0 4.32742,4.296141 4.36918,5.298306 0.0183,0.439069 0.93327,2.661092 2.03327,4.93783 1.1,2.276737 2,4.867622 2,5.757522 0,0.889899 0.93135,4.375878 2.06967,7.746619 C 284.05156,84.608989 288.7941,90 291.97498,90 c 0.60963,0 3.90216,1.281689 7.31672,2.848198 3.41457,1.566508 8.4583,3.436335 11.2083,4.155171 2.75,0.718836 5.46398,1.66048 6.03106,2.092544 0.56708,0.432064 2.14208,1.016007 3.5,1.297657 5.65804,1.17355 8.37632,2.30516 9.38731,3.90791 2.61625,4.14761 -4.38015,7.46478 -20.41837,9.68091 -4.675,0.64597 -9.28139,1.5892 -10.23643,2.09606 C 297.80853,116.5853 295.70033,117 294.07867,117 290.07483,117 286,118.65853 286,120.28816 286,121.8572 280.87985,127 279.31773,127 c -0.59006,0 -1.65462,0.701 -2.36568,1.55778 -0.71106,0.85677 -2.67866,2.14466 -4.37244,2.86198 -5.38839,2.28197 -6.79473,4.66767 -5.67893,9.63369 1.23043,5.47627 -0.0325,8.36161 -3.21158,7.33743 -1.20401,-0.38788 -2.6391,-0.65443 -3.1891,-0.59233 -3.81113,0.43031 -11.29952,2.46153 -14.82642,4.02164 -2.77196,1.22617 -6.14196,1.78841 -9.92729,1.65624 -3.82419,-0.13353 -6.10675,0.25297 -6.86096,1.16174 -0.62162,0.749 -1.70126,1.36183 -2.3992,1.36183 -3.62291,0 -5.87368,19.77325 -2.37067,20.82666 0.7615,0.229 2.73454,0.98188 4.38454,1.67307 2.74117,1.14829 5.92463,1.73733 24,4.44075 3.3,0.49357 7.42863,1.34274 9.17473,1.88706 1.7461,0.54432 3.42272,0.74167 3.72583,0.43857 0.30311,-0.30311 1.14585,-0.0575 1.87276,0.54576 1.32355,1.09845 11.68542,3.34091 14.97668,3.24116 0.9625,-0.0292 2.65,-0.0297 3.75,-0.001 10.41767,0.27059 18.90645,-0.75338 21,-2.53315 2.60649,-2.21583 11.40747,-6.5188 13.3331,-6.5188 1.01695,0 4.39553,-1.72876 7.50795,-3.8417 3.11242,-2.11293 8.80895,-5.82141 12.65895,-8.24107 7.78494,-4.89269 15.67734,-10.65106 16.60769,-12.11713 0.33424,-0.52669 2.88111,-2.60968 5.65973,-4.62886 9.51825,-6.91677 17.73582,-14.0872 23.73258,-20.7084 3.3,-3.64364 7.31037,-7.82585 8.91194,-9.29381 1.60157,-1.46797 4.07657,-3.98738 5.5,-5.5987 1.42343,-1.61133 3.71306,-4.18276 5.08806,-5.71431 3.43515,-3.82625 7.58243,-4.74704 8.49076,-1.88514 0.42103,1.32655 0.0726,2.97471 -0.91638,4.33474 -7.17121,9.86171 -11.50362,20.12382 -8.91513,21.11712 0.74696,0.28663 2.36671,0.13769 3.59943,-0.33099 1.23273,-0.46868 2.69132,-0.96335 3.24132,-1.09927 1.85075,-0.45736 3.98037,-1.15478 7.5,-2.45616 4.23947,-1.56755 15.5908,-2.00743 16.43778,-0.637 0.3348,0.54172 1.07391,3.50135 1.64247,6.57695 1.00802,5.45288 0.95517,5.6912 -2.1243,9.57934 -1.73691,2.19304 -5.02506,5.2607 -7.30699,6.81703 -5.72671,3.90574 -19.06117,8.05803 -28.14896,8.76544 -4.64294,0.36142 -8.65045,0.87365 -14.29121,1.82664 -3.17309,0.5361 -4.27682,1.2853 -5.20905,3.5359 -0.65057,1.57062 -1.81665,3.09888 -2.5913,3.39614 C 376.6338,169.6941 376,170.76316 376,171.77253 c 0,1.87095 -3.7226,5.76659 -10,10.46482 -5.80392,4.34387 -9.25598,7.64652 -10.46922,10.01611 -0.78875,1.5405 -1.95679,2.19279 -3.7163,2.07537 -1.80195,-0.12026 -2.52856,0.30575 -2.44024,1.43073 0.0692,0.8811 -0.77424,1.85816 -1.87424,2.17126 -1.42905,0.40675 -2,1.42568 -2,3.56926 0,2.52629 -0.35961,2.96162 -2.27739,2.75694 -1.59218,-0.16993 -2.54358,0.45707 -3.16212,2.08397 -0.61901,1.6281 -2.66898,2.97759 -6.82528,4.49306 -3.26731,1.19132 -6.25007,2.16603 -6.62837,2.16603 -0.37831,0 -2.05611,1.01161 -3.72845,2.24803 -2.7797,2.05512 -4.2838,2.26866 -17.52764,2.48844 -7.96785,0.13222 -15.18027,0.62837 -16.02758,1.10255 -0.87685,0.49071 -3.5402,0.44981 -6.18187,-0.0949 -5.80071,-1.19618 -8.51193,-1.13219 -8.95982,0.21149 -0.45673,1.37018 -4.18148,1.35719 -4.18148,-0.0146 0,-0.58246 0.45,-0.7809 1,-0.44098 0.55,0.33992 1,0.14148 1,-0.44098 0,-0.58246 -0.3375,-1.11645 -0.75,-1.18664 -3.28105,-0.55832 -5.25,-0.46863 -5.25,0.23916 0,0.46115 -1.2375,0.61925 -2.75,0.35132 -3.32594,-0.58917 -6.25254,1.46864 -6.66961,4.68967 -0.16718,1.29111 -0.64783,3.61639 -1.06811,5.1673 -1.26375,4.66343 1.3421,17.51326 5.00495,24.68017 1.8271,3.575 4.09939,8.3 5.04953,10.5 0.95013,2.2 2.1113,4.78139 2.58038,5.73643 0.46907,0.95504 0.85286,2.46203 0.85286,3.34887 0,0.88684 0.74133,3.17468 1.6474,5.08409 1.17752,2.48144 1.87871,3.09738 2.45836,2.15948 0.64586,-1.04501 1.06374,-1.05937 2.0526,-0.0705 0.6829,0.6829 2.66802,1.24164 4.41137,1.24164 1.74335,0 5.98697,0.9 9.43027,2 3.4433,1.1 7.1827,2 8.30978,2 1.12707,0 4.89888,0.96256 8.38179,2.13903 4.69113,1.58458 6.65539,2.81581 7.57797,4.75 0.88347,1.85221 4.29458,4.12614 11.73793,7.8248 5.77089,2.86761 11.10992,6.13011 11.8645,7.25 0.75459,1.11989 2.21709,2.03617 3.25,2.03617 1.03292,0 1.8836,0.5625 1.89041,1.25 0.0128,1.29595 6.18932,5.75 7.9736,5.75 1.84416,0 1.05207,2.17729 -0.98598,2.71025 -1.1,0.28766 -2,1.06559 -2,1.72875 0,1.88476 7.86196,6.561 11.03073,6.561 1.56818,0 3.06858,0.35167 3.33423,0.7815 0.26565,0.42982 1.92324,0.89124 3.68354,1.02537 1.76031,0.13413 4.3302,1.13246 5.71089,2.2185 1.38068,1.08605 2.96967,1.97463 3.53108,1.97463 0.56141,0 2.42054,1.06768 4.1314,2.37261 1.71086,1.30494 4.96096,2.68522 7.22245,3.0673 4.76794,0.80554 11.35568,6.23737 11.35568,9.36317 0,1.11834 0.26029,2.71165 0.57842,3.54069 0.73371,1.91202 -3.32049,4.65715 -7.77261,5.26289 -1.8182,0.24737 -4.22253,0.64661 -5.34297,0.88719 -4.34057,0.932 -12.32735,-2.22345 -18.09095,-7.14745 -5.47707,-4.67921 -5.88956,-4.8464 -11.95667,-4.8464 -5.58654,0 -6.62336,0.32523 -9.34282,2.93064 l -3.05893,2.93064 -2.29976,-2.16051 c -1.26486,-1.18827 -3.74289,-2.66358 -5.50673,-3.27846 C 331.85391,344.10202 331,343.19322 331,341.50916 c 0,-1.26235 -0.7875,-2.59967 -1.75,-2.97182 -1.77883,-0.68778 -9.51369,-1.40666 -21.25,-1.97499 -3.575,-0.17312 -7.74971,-0.89826 -9.27713,-1.61143 -4.23472,-1.97724 -4.92505,-0.41648 -3.28429,7.42549 1.46237,6.98938 1.00124,11.33339 -2.43306,22.92029 -1.11491,3.7616 -1.1733,3.79678 -6.31542,3.80544 -13.85667,0.0233 -17.30985,-0.32189 -18.87484,-1.88688 -0.60881,-0.60881 -2.32898,-0.86252 -3.8226,-0.56379 -2.88971,0.57794 -8.91107,-1.93006 -10.29235,-4.28695 C 253.26048,361.61403 252.12311,361 251.17282,361 c -0.9503,0 -2.72872,-0.70107 -3.95207,-1.55793 -2.91043,-2.03855 -3.74571,-1.38835 -5.67381,4.41661 -1.25841,3.78871 -3.15091,6.22094 -8.74438,11.23824 -3.92611,3.52169 -7.95246,7.18021 -8.94742,8.13003 -0.99497,0.94982 -3.39441,2.38936 -5.33209,3.19897 -1.93768,0.80962 -3.52305,1.97138 -3.52305,2.58169 0,0.61032 -1.3817,2.829 -3.07044,4.93041 -3.36126,4.18264 -3.51389,5.77818 -2.66311,27.83811 0.21889,5.67565 -0.11931,10.6638 -0.87133,12.85128 -1.25499,3.65051 -1.69479,10.06389 -1.44244,21.0344 0.078,3.38899 -0.31727,6.44549 -0.87829,6.79222 -1.22194,0.75519 -3.04296,7.18546 -3.65629,12.91077 -0.24364,2.27436 -0.67519,5.16456 -0.959,6.42267 -0.46247,2.05014 0.65927,8.20448 2.22598,12.21253 0.78391,2.00546 0.70435,11.31226 -0.12496,14.61648 -0.47108,1.87695 -0.11521,3.25949 1.22626,4.76394 1.03947,1.16577 2.46736,3.58208 3.1731,5.36958 1.09704,2.77859 1.80949,3.2727 4.91184,3.40652 1.99577,0.0861 4.75368,0.26324 6.12868,0.39367 8.44909,0.80143 45.474,-0.0107 55,-1.20642 3.025,-0.3797 5.85108,-0.60786 6.28018,-0.50701 0.68562,0.16114 18.88405,-1.20042 33.21982,-2.48542 2.75,-0.2465 9.725,-0.61225 15.5,-0.81279 5.775,-0.20053 17.7,-0.6625 26.5,-1.02659 17.36532,-0.71847 42.01735,-0.82213 77.9148,-0.32762 17.21207,0.2371 23.01896,0.62674 23.33334,1.56566 0.2613,0.78041 -0.52979,1.25 -2.10579,1.25 -1.38837,0 -2.76694,0.39257 -3.06348,0.87238 -0.65994,1.06781 4.47398,2.09933 14.42113,2.89755 6.85495,0.55009 9.67353,0.59949 18.5,0.32428 6.39146,-0.19929 8.97299,0.3984 9.3105,2.15561 0.28542,1.48607 -0.34637,1.71217 -4.19162,1.5 -2.49792,-0.13783 -4.54711,0.19848 -4.571,0.75018 -0.0494,1.14114 14.22558,1.13047 26.20212,-0.0196 l 7.75,-0.7442 v 3.57287 c 0,1.96508 -0.42194,3.83364 -0.93765,4.15236 -0.51571,0.31873 -7.72521,0.64307 -16.02112,0.72076 -8.29591,0.0777 -16.98646,0.42426 -19.31235,0.77016 C 480.403,536.29827 476.475,536.22811 474,535.79646 Z M 327,530 c 0,-0.55 -0.42344,-1 -0.94098,-1 -0.51754,0 -1.2191,0.45 -1.55902,1 -0.33992,0.55 0.0835,1 0.94098,1 0.85746,0 1.55902,-0.45 1.55902,-1 z m 154.5,-2 c 0.56104,-0.90778 -0.80783,-1.25 -5,-1.25 -2.96906,0 -3.60801,0.26623 -3,1.25 0.33992,0.55 2.13992,1 4,1 1.86008,0 3.66008,-0.45 4,-1 z m -310.61428,-8.07063 c -1.60476,-0.99179 -2.33522,-0.46569 -1.41676,1.02041 0.36808,0.59556 1.13619,0.79425 1.7069,0.44153 0.67187,-0.41524 0.56959,-0.93059 -0.29014,-1.46194 z m 20.05618,-3.03793 c -1.02378,-1.91294 -4.79404,-3.92062 -7.257,-3.86438 -0.65169,0.0149 0.51596,1.60818 2.59479,3.54066 3.95796,3.67933 6.55457,3.85963 4.66221,0.32372 z m -7.61836,-10.49068 c -0.38476,-1.00267 -0.92908,-1.19522 -1.56919,-0.55511 -1.14518,1.14518 -0.0365,3.44675 1.27107,2.63864 0.48798,-0.30159 0.62213,-1.23918 0.29812,-2.08353 z M 196.09814,501 c -0.22102,-0.825 -0.59956,-4.2 -0.84121,-7.5 -0.24164,-3.3 -1.01074,-6.90118 -1.7091,-8.00261 -1.68615,-2.65935 -1.46786,-5.67702 1.69973,-23.49739 0.63546,-3.575 1.03732,-7.09588 0.89303,-7.82419 -0.14428,-0.7283 0.18808,-1.86691 0.73859,-2.53023 0.55051,-0.66333 1.06705,-4.34244 1.14786,-8.17581 0.0808,-3.83338 0.80547,-9.36706 1.61035,-12.29708 2.36529,-8.61036 2.44979,-29.41884 0.12889,-31.73974 -0.30133,-0.30133 -5.02782,0.29599 -10.50331,1.32738 -11.88655,2.239 -14.54456,4.0797 -14.30623,9.90716 0.25058,6.12685 0.59786,8.72234 1.39599,10.43331 0.41071,0.88044 0.6473,2.00544 0.52576,2.5 -0.2643,1.07552 0.75001,8.13814 2.64243,18.3992 0.76077,4.125 1.67248,11.1 2.02603,15.5 0.90255,11.2324 1.07965,12.37913 2.77991,18 1.97738,6.53702 2.76695,12.44847 2.77852,20.80245 l 0.009,6.80244 4.6926,-0.30244 c 3.59468,-0.23169 4.59858,-0.6534 4.29074,-1.80245 z M 185.7119,395.51277 c 4.28346,-1.36798 8.41381,-2.49298 9.17857,-2.5 1.2705,-0.0117 5.36444,-1.74631 13.77249,-5.83554 1.73963,-0.84606 7.34227,-5.54617 12.4503,-10.44468 7.7924,-7.47277 9.89896,-10.19403 13.08704,-16.90582 2.08984,-4.39968 3.7997,-8.23005 3.7997,-8.51194 0,-0.28189 0.65453,-1.93054 1.45452,-3.66366 C 242.01985,342.09349 245,333.96884 245,332.53275 c 0,-0.76627 1.28668,-4.23711 2.85929,-7.71298 4.08553,-9.03009 4.47205,-10.123 4.24354,-11.99894 -0.29457,-2.41817 1.63275,-4.58678 14.89717,-16.76217 3.025,-2.77664 6.9625,-5.59114 8.75,-6.25444 1.7875,-0.6633 3.25,-1.50443 3.25,-1.86918 0,-1.02266 -8.51482,-2.14417 -18.84279,-2.48183 -5.13853,-0.168 -9.58528,-0.54795 -9.88166,-0.84433 -0.29638,-0.29638 -2.45778,0.58568 -4.8031,1.96014 -2.34533,1.37445 -5.88922,2.62697 -7.87531,2.78339 -2.09028,0.16461 -4.17688,1.05817 -4.95457,2.12172 -0.91288,1.24844 -2.06753,1.648 -3.60244,1.24662 -3.81824,-0.9985 -14.693,5.51849 -26.3266,15.7769 -0.98257,0.86641 -1.53664,1.97955 -1.23127,2.47364 0.30536,0.49409 -1.10707,2.16518 -3.13875,3.71353 -2.03168,1.54835 -6.38907,5.40268 -9.6831,8.56518 -3.29403,3.1625 -6.14018,5.75 -6.32478,5.75 -0.1846,0 -0.33563,-1.24468 -0.33563,-2.76596 0,-3.4049 10.16446,-13.84863 14,-14.38466 1.79133,-0.25034 2.59279,-1.05805 2.82732,-2.84938 0.1807,-1.38011 2.86843,-5.12895 6,-8.36876 5.58657,-5.77968 13.60975,-10.39245 23.67268,-13.61014 2.2,-0.70347 5.125,-1.84988 6.5,-2.54759 3.62576,-1.83978 9.83484,-3.4537 15,-3.89892 5.05522,-0.43574 9.65682,-2.23789 10.35413,-4.05505 0.25528,-0.66525 -0.35929,-3.04876 -1.36572,-5.29669 -1.00643,-2.24792 -2.75759,-7.46873 -3.89148,-11.60179 -1.13389,-4.13306 -2.92139,-8.92844 -3.97224,-10.65642 -1.35079,-2.2212 -1.76077,-4.25896 -1.39921,-6.95463 0.4282,-3.19247 0.1546,-4.00382 -1.68154,-4.9865 -2.03949,-1.0915 -2.1552,-1.69715 -1.65332,-8.65422 1.28353,-17.79261 1.33359,-17.83395 20.31873,-16.78166 14.39404,0.79783 22.06701,0.95256 26.29065,0.53018 1.375,-0.13751 5.80506,0.0417 9.84458,0.39823 4.90166,0.43263 8.32479,0.24223 10.29155,-0.57243 1.62083,-0.67136 3.71576,-1.2847 4.65541,-1.36295 4.38601,-0.36528 13.40119,-6.50126 22.20846,-15.1157 5.225,-5.1106 15.33849,-14.89279 22.47443,-21.7382 12.3799,-11.87588 12.92167,-12.56199 11.82308,-14.97314 -2.03452,-4.46529 -7.5678,-2.9608 -15.3913,4.18486 -1.84356,1.68384 -3.8482,3.06152 -4.45476,3.06152 -0.60655,0 -2.1597,1.125 -3.45145,2.5 -1.29175,1.375 -2.78108,2.5 -3.30964,2.5 -0.52856,0 -2.00363,1.125 -3.27794,2.5 -1.27431,1.375 -2.9274,2.5 -3.67354,2.5 -0.74614,0 -2.23013,0.66069 -3.29775,1.4682 -1.06762,0.8075 -2.50567,1.4825 -3.19566,1.5 -0.68999,0.0175 -4.06499,1.98072 -7.5,4.36273 -6.37539,4.42102 -12.3039,7.66907 -13.99798,7.66907 -0.51988,0 -2.47574,0.675 -4.34636,1.5 -1.87062,0.825 -5.01469,2.21441 -6.98682,3.08758 -3.52977,1.56282 -4.46564,1.55911 -18.91431,-0.075 -2.2,-0.2488 -6.7,-0.75191 -10,-1.11801 -3.3,-0.36609 -6.47432,-1.03657 -7.05404,-1.48994 -1.83444,-1.43462 -9.97793,-1.56453 -9.69596,-0.15468 0.34449,1.72245 -2.80917,1.56606 -6.60501,-0.32756 -2.06327,-1.02929 -4.28878,-1.35087 -6.40364,-0.92529 -4.3844,0.88227 -13.67137,4.54118 -16.74135,6.5958 -1.375,0.92024 -4.67301,2.69203 -7.3289,3.93732 -2.6559,1.24529 -5.77803,3.54792 -6.93806,5.11695 -1.43868,1.9459 -2.99199,2.85278 -4.8863,2.85278 -3.70692,0 -9.40578,5.11388 -10.92101,9.79998 C 193.73498,226.57527 191.03921,231 189.10212,231 c -3.54102,0 -4.04424,-2.01426 -3.00619,-12.03314 1.33281,-12.86382 1.08869,-25.28961 -0.57401,-29.21777 -0.7564,-1.787 -3.37572,-5.1988 -5.82071,-7.58178 -3.50943,-3.42043 -5.33015,-4.41792 -8.64731,-4.73742 -2.35271,-0.22662 -5.37954,0.18777 -6.87789,0.94162 -1.4718,0.74049 -4.25101,1.61158 -6.17601,1.93574 -1.925,0.32416 -7.44932,2.75014 -12.27626,5.39107 -4.82694,2.64092 -10.5283,5.74938 -12.66968,6.90767 -4.99468,2.70168 -14.53432,2.32901 -17.33503,-0.6772 -0.98832,-1.06083 -2.11691,-1.94724 -2.50799,-1.96979 -0.39107,-0.0225 -2.73604,-2.76912 -5.21104,-6.10348 -2.475,-3.33437 -6.32242,-8.15342 -8.54983,-10.709 C 94.395146,167.3467 92,163.56376 92,161.37957 c 0,-0.92993 -1.120772,-3.1602 -2.490605,-4.95614 -1.369833,-1.79594 -3.957333,-6.11569 -5.75,-9.59945 -1.792667,-3.48375 -4.602355,-8.08756 -6.243749,-10.23068 -1.641395,-2.14313 -3.035354,-4.39085 -3.097686,-4.99495 -0.06233,-0.60409 -0.181873,-1.62415 -0.265646,-2.26679 -0.184284,-1.41369 -6.336754,-5.34845 -8.270348,-5.28923 C 64.47614,124.08538 60,130.2797 60,132.18209 c 0,0.57388 1.16317,2.45518 2.584823,4.18066 3.783666,4.59231 8.933639,13.77578 10.804685,19.26699 0.897806,2.63492 3.37316,7.73365 5.500787,11.33051 2.127627,3.59686 4.916065,9.01475 6.19653,12.03975 1.280464,3.025 3.808598,7.975 5.618075,11 1.809477,3.025 3.291115,5.84439 3.292529,6.26531 0.0014,0.42093 2.251462,3.85726 5.000108,7.63631 4.936473,6.78703 5.073943,6.8851 11.250003,8.02596 4.27384,0.78947 7.82959,0.85249 11.23619,0.19913 2.74106,-0.52571 5.29182,-0.76543 5.66836,-0.53271 1.01606,0.62796 11.11688,-2.1673 14.98475,-4.14682 1.84974,-0.94666 5.09267,-3.08064 7.20651,-4.74216 3.01682,-2.37128 4.02298,-2.73032 4.67859,-1.66951 0.5765,0.93279 -0.89153,3.22761 -4.73899,7.40796 -3.06583,3.33109 -6.1837,6.4164 -6.92861,6.85623 -2.01599,1.19035 -3.98891,5.62572 -4.75967,10.7003 -0.37592,2.475 -1.7695,7.875 -3.09683,12 -2.16307,6.72221 -2.81203,10.80828 -3.89118,24.5 -1.08934,13.82104 -1.91194,20.77008 -3.14198,26.54233 -0.76677,3.59828 -1.59562,8.16675 -1.84187,10.15217 -0.24625,1.98542 -1.00066,4.643 -1.67646,5.90575 -0.6758,1.26275 -1.34974,3.89427 -1.49765,5.84783 -0.33641,4.44347 -1.37461,10.9229 -2.17141,13.55192 -0.33339,1.1 -0.71255,3.35 -0.84259,5 -0.13004,1.65 -0.57618,5.25 -0.99142,8 -0.41525,2.75 -0.63379,8.6 -0.48564,13 0.14814,4.4 0.19526,12.14909 0.10471,17.22019 -0.0921,5.15731 0.32241,10.13023 0.94065,11.28542 0.6079,1.13587 3.03748,3.06179 5.39906,4.27981 2.36159,1.21802 6.58016,3.39598 9.37462,4.83992 2.79445,1.44394 6.64267,2.91835 8.55159,3.27647 1.90892,0.35811 4.02108,1.31421 4.69369,2.12465 0.67261,0.81045 2.40533,1.50975 3.85048,1.55402 1.44516,0.0443 4.65256,0.66049 7.12756,1.36939 7.81589,2.23867 18.94639,1.86228 27.7119,-0.9371 z M 347,334.02366 c 0,-0.99018 -4.8772,-0.0314 -5.57379,1.09574 -0.29934,0.48433 -0.26922,1.3256 0.0669,1.86948 0.63904,1.03399 5.50687,-1.58714 5.50687,-2.96522 z m -20.07701,-2.18381 C 328.80822,330.68308 335,321.94616 335,320.44277 c 0,-0.28995 -0.43435,-1.07069 -0.96522,-1.73498 -5.1051,-6.38807 -7.36747,-8.42494 -10.67813,-9.61377 -3.82264,-1.37268 -6.19342,-2.92646 -12.90486,-8.45766 -2.22213,-1.83136 -4.19151,-2.67618 -5.46323,-2.34362 -1.43595,0.37551 -1.98856,0.0243 -1.98856,-1.26391 0,-2.28709 -1.51256,-3.39676 -6.61602,-4.85375 -5.27128,-1.5049 -5.28261,-1.50345 -4.7313,0.60475 0.31172,1.19204 -1.69832,4.08172 -6.08646,8.75 -6.77003,7.20224 -7.17543,7.95834 -5.6015,10.44733 0.63177,0.99906 0.45639,2.00503 -0.54185,3.10807 -1.32379,1.46277 -0.98353,2.14404 3.30059,6.60842 2.6271,2.73763 6.12654,5.47431 7.77654,6.08151 6.76479,2.48946 19.54502,5.16629 22.1806,4.64576 1.55067,-0.30626 3.9444,-0.11135 5.3194,0.43314 2.95398,1.16974 5.9116,0.83357 8.92299,-1.01421 z M 344.5,331 c 0.33992,-0.55 -0.0835,-1 -0.94098,-1 -0.85746,0 -1.55902,0.45 -1.55902,1 0,0.55 0.42344,1 0.94098,1 0.51754,0 1.2191,-0.45 1.55902,-1 z M 272,308.82441 c 0,-1.07298 0.4592,-1.65865 1.02587,-1.30842 0.56423,0.34871 1.49112,-0.70057 2.05974,-2.33174 0.70921,-2.03442 1.56467,-2.83693 2.72413,-2.55551 0.98934,0.24014 3.46147,-1.24805 5.96153,-3.58875 3.81509,-3.57192 4.1365,-4.21481 3.00945,-6.0195 C 286.08672,291.90922 285.251,291 284.92356,291 c -1.2544,0 -9.86878,7.27962 -9.43841,7.97597 0.51504,0.83335 -3.4629,4.84073 -4.98515,5.02204 -0.55,0.0655 -0.93063,0.80896 -0.84585,1.65211 0.10484,1.0426 -0.455,1.37372 -1.75,1.03507 -1.93547,-0.50614 -2.42577,0.7919 -1.35405,3.58477 0.83753,2.18256 5.4499,0.95916 5.4499,-1.44555 z M 202.59439,203.34536 c 1.70192,-1.28995 3.61442,-2.34536 4.25,-2.34536 0.63559,0 2.14182,-0.98621 3.34718,-2.19157 2.35359,-2.35359 12.3956,-7.80843 14.37481,-7.80843 0.6602,0 1.43856,-0.91089 1.7297,-2.02421 0.78279,-2.99338 -6.01594,-6.29645 -11.08189,-5.38399 -2.04281,0.36794 -4.16419,0.99698 -4.71419,1.39788 -0.55,0.40089 -2.57158,1.02778 -4.4924,1.39309 -5.94003,1.12969 -8.94754,2.97088 -10.62417,6.50412 -1.82223,3.84006 -2.90711,10.30605 -2.08752,12.44185 0.75382,1.96444 5.39638,0.97418 9.29848,-1.98338 z m -1.99361,-20.31496 c 1.59457,-0.53327 4.02422,-1.10387 5.39922,-1.26798 1.375,-0.16411 3.95597,-1.59637 5.7355,-3.18278 2.79907,-2.49532 3.22346,-3.50456 3.14629,-7.48202 -0.14363,-7.40318 1.23315,-15.36162 3.23435,-18.696 1.81112,-3.01766 2.10086,-3.11464 11.12171,-3.72269 5.09418,-0.34338 11.73715,-1.25554 14.76215,-2.02703 3.025,-0.77149 6.68892,-1.68016 8.14205,-2.01926 2.51796,-0.5876 2.62061,-0.8612 2.18568,-5.8255 -0.57693,-6.58505 -2.58466,-8.14931 -10.78947,-8.40625 -3.32104,-0.10401 -9.58273,-0.64348 -13.91485,-1.19884 -5.36611,-0.68792 -8.81809,-0.68154 -10.83052,0.02 C 214.98499,130.54949 211,128.61938 211,125.4476 c 0,-2.56262 4.2775,-3.90464 7.29616,-2.2891 1.87313,1.00247 4.73537,1.0917 32.55424,1.0149 14.13166,-0.039 16.61295,-0.28275 18.28529,-1.7962 1.85636,-1.67998 1.86243,-1.82116 0.1496,-3.47832 -1.36339,-1.31908 -4.37387,-1.88639 -12.73904,-2.40059 -8.48251,-0.52142 -11.23902,-1.04839 -12.2182,-2.33581 -0.69544,-0.91436 -1.27875,-1.93539 -1.29625,-2.26896 -0.0312,-0.59448 12.59512,-0.36456 26.4682,0.48198 3.85,0.23493 8.8,-0.0434 11,-0.61855 2.2,-0.57514 6.925,-1.15462 10.5,-1.28774 18.77383,-0.69908 29.14176,-4.83099 18.75,-7.4724 -2.3375,-0.59415 -5.15,-1.48698 -6.25,-1.98407 -1.1,-0.49708 -4.59282,-1.4511 -7.76182,-2.120038 -3.16899,-0.668938 -6.26159,-1.818452 -6.87244,-2.554476 C 288.25489,95.602202 286.78967,95 285.60969,95 282.56592,95 276.12237,90.361171 275.50041,87.722144 275.21237,86.499965 274.82189,83.7 274.63267,81.5 273.65842,70.17254 272.00231,66.357643 264.7626,58.763984 260.95363,54.768793 257.53633,51.05 257.1686,50.5 c -0.73995,-1.106721 -3.80712,-3.335928 -15.62413,-11.355583 -7.46244,-5.064411 -8.34093,-5.402671 -14.17364,-5.457544 -3.41997,-0.03217 -6.81498,0.434702 -7.54448,1.037502 -0.96711,0.799156 -2.31826,0.754142 -4.98865,-0.166197 -6.00472,-2.06951 -14.54186,-2.771519 -15.12803,-1.243979 C 199.13642,34.808081 192.54978,37 188.63398,37 186.99021,37 186,37.549413 186,38.461456 c 0,0.875758 -1.70324,1.913501 -4.25,2.589416 -2.3375,0.620378 -5.15,1.93149 -6.25,2.913581 -1.1,0.982091 -2.99574,2.298719 -4.21276,2.925838 -1.21702,0.62712 -1.99231,1.714702 -1.72287,2.416849 0.26944,0.702146 -0.77919,2.214898 -2.33028,3.361669 -1.55109,1.146772 -5.46049,6.527923 -8.68755,11.958115 -4.47027,7.522159 -6.18103,11.539874 -7.18462,16.873076 -2.71076,14.405352 -3.59608,22.32143 -2.65947,23.77981 0.431,0.67111 0.83202,2.12019 0.89117,3.22019 0.22757,4.23236 2.44441,7.27573 9.31509,12.78812 3.91563,3.14153 7.33412,5.71188 7.59665,5.71188 0.26254,0 2.48428,1.53194 4.93722,3.40431 4.67344,3.56732 13.28501,7.98725 17.74091,9.10561 1.44038,0.36151 3.61626,1.5865 4.83529,2.72221 2.02803,1.8894 2.17908,2.77665 1.77694,10.43827 -0.24172,4.60535 -0.96964,8.90352 -1.6176,9.55148 -0.64797,0.64797 -1.18382,2.10062 -1.19079,3.22812 -0.007,1.1275 -1.36924,4.72524 -3.02727,7.99499 -2.29539,4.52665 -2.70988,6.12071 -1.73733,6.68153 0.7025,0.4051 2.17727,1.42805 3.27727,2.27321 2.33478,1.79389 5.05827,1.98262 9.10078,0.63067 z m 29.78059,-89.478957 c -0.92915,-2.421315 0.58921,-3.483474 5.66388,-3.962148 C 241.66594,89.059119 246,87.981476 246,87.114098 c 0,-0.367997 -0.70823,-1.680221 -1.57384,-2.916052 -1.46539,-2.092142 -2.08553,-2.205292 -9,-1.64214 C 230.40055,82.965218 228,82.811497 228,82.080366 228,81.486165 228.49774,81 229.1061,81 c 0.60835,0 2.81061,-1.35 4.8939,-3 2.08329,-1.65 4.28555,-3 4.8939,-3 0.60836,0 1.1061,-0.477573 1.1061,-1.061273 0,-0.687583 -1.54974,-0.828875 -4.40124,-0.401266 -5.85413,0.87788 -8.80395,-0.106684 -8.40706,-2.806032 0.19968,-1.358056 1.36525,-2.381521 3.3083,-2.904954 2.83792,-0.764499 12.03256,-0.412093 17.5,0.670728 1.375,0.272317 3.88786,0.757927 5.58413,1.079133 1.69627,0.321205 4.39627,1.662295 6,2.980199 2.46694,2.027271 2.68493,2.557434 1.41587,3.4435 -0.825,0.576021 -2.48995,0.87837 -3.6999,0.671887 -2.93598,-0.501039 -3.63761,1.712658 -1.23266,3.88911 1.06291,0.961919 1.93256,2.170721 1.93256,2.686226 0,0.515506 0.9,2.081448 2,3.479871 1.1,1.398424 2,3.327816 2,4.287539 0,1.896348 -3.22917,2.435282 -21.73585,3.627614 -8.07973,0.520554 -9.31683,0.384006 -9.88278,-1.090839 z m -41.34659,-2.304001 c -3.8179,-1.925289 -5.28468,-4.360005 -6.93523,-11.511793 -1.45959,-6.324396 -1.39327,-12.261104 0.15045,-13.468112 3.04849,-2.383561 7.49691,-3.111481 10.25863,-1.67868 1.49599,0.776129 3.45605,1.418034 4.35568,1.426456 2.67198,0.02501 4.06853,1.398872 4.71679,4.640167 0.56247,2.812373 0.3578,3.10674 -2.56681,3.691662 -1.74791,0.349581 -3.95292,0.220884 -4.90003,-0.285994 -4.37097,-2.339269 -5.19491,2.777235 -1.26013,7.825141 1.945,2.495229 5.09756,2.968252 10.50224,1.5758 3.01267,-0.776179 4.59843,0.482242 4.62832,3.672901 0.0414,4.420176 -12.80936,7.209008 -18.94991,4.112452 z m 77.4164,-17.59549 c -1.12685,-0.633574 -3.95626,-2.665655 -6.28757,-4.515736 -4.42703,-3.513205 -7.66557,-4.657049 -17.66361,-6.238751 -3.3,-0.522065 -6.83254,-1.41951 -7.8501,-1.994323 -1.01918,-0.57573 -3.55554,-0.756982 -5.64737,-0.403569 -2.30697,0.389759 -4.05695,0.221385 -4.45892,-0.429014 C 224.1797,59.481752 223.00852,59 221.94098,59 220.87344,59 220,58.6051 220,58.122445 c 0,-1.664179 2.90887,-3.286144 4.81083,-2.682485 1.12571,0.357286 2.42443,-0.0185 3.17043,-0.917382 1.86956,-2.252684 8.01329,-1.859999 13.37599,0.854945 2.58292,1.307637 6.82168,2.947567 9.41948,3.644288 2.5978,0.696721 6.24285,2.173816 8.10012,3.282432 3.16994,1.892165 11.22194,9.842157 11.95648,11.80502 0.44911,1.20011 -1.86357,0.958764 -4.38215,-0.457311 z m 140.90476,79.905538 c 2.12076,-0.92007 4.82207,-1.54625 6.00291,-1.39151 1.18084,0.15474 3.72067,-0.3818 5.64407,-1.19231 L 422.5,149.5 l -4,-0.5 -4,-0.5 3.75,-2.21627 c 2.0625,-1.21896 3.75,-2.68146 3.75,-3.25 0,-1.09762 -3.2621,-1.4383 -4.25592,-0.44447 C 416.7955,143.53783 406,144.04765 406,143.14387 c 0,-0.45256 1.18315,-1.36192 2.62923,-2.0208 3.75162,-1.70935 2.66731,-2.04864 -3.43253,-1.07406 -6.46868,1.03351 -8.1967,0.46696 -8.1967,-2.68738 0,-1.33342 -0.63984,-2.66993 -1.42186,-2.97002 C 393.21465,133.48466 390,135.85777 390,138.5095 c 0,1.67949 -0.90228,2.90573 -2.89712,3.9373 -2.4347,1.25903 -2.95437,2.21802 -3.25582,6.00822 -0.46432,5.83809 -0.24079,6.3429 2.57061,5.80547 1.29134,-0.24686 2.58263,-0.069 2.86953,0.39534 0.90423,1.46332 13.99885,0.66734 18.06874,-1.09834 z M 57.840813,120.57632 c 0.187447,-0.96687 1.187586,-2.60472 2.22253,-3.63966 1.842289,-1.84229 1.82991,-1.98487 -0.590813,-6.80442 C 58.112638,107.42476 57,104.47328 57,103.57339 c 0,-0.89989 -0.667759,-1.8924 -1.483908,-2.20559 -0.816149,-0.31318 -3.403649,-2.329677 -5.75,-4.481093 L 45.5,92.975042 45.185226,96.006505 C 45.0121,97.67381 44.4589,98.783616 43.955892,98.47274 43.452885,98.161864 42.102978,98.4097 40.9561,99.023495 c -1.628864,0.871741 -1.835063,1.417415 -0.942163,2.493295 0.628689,0.75753 1.028458,2.41364 0.888375,3.68026 -0.243126,2.19835 3.582324,9.7893 4.946464,9.81542 0.358173,0.007 2.607932,1.82962 4.999464,4.05058 4.477059,4.15775 6.399241,4.57374 6.992573,1.51327 z M 42.638374,101.5 C 42.954956,100.675 43.390833,100 43.606989,100 43.823145,100 44,100.675 44,101.5 c 0,0.825 -0.435877,1.5 -0.968615,1.5 -0.532739,0 -0.709594,-0.675 -0.393011,-1.5 z"/>
</svg>
