<?xml version="1.0" encoding="utf-8"?>
<svg xmlns="http://www.w3.org/2000/svg" version="1.1" viewBox="0 0 1132 330">
	<title>A young lady of Clare is being chased by a big bear.</title>
	<path d="m 1091.7639,295.43062 c -0.3131,-0.31317 -4.1006,-0.68402 -8.4166,-0.82413 -5.8544,-0.19004 -8.7362,-0.78677 -11.3473,-2.34969 -2.2399,-1.34069 -5.3002,-2.11818 -8.5,-2.15947 -9.59,-0.12375 -20.0568,0.0714 -28,0.522 -4.4,0.24961 -13.85,0.64342 -21,0.87513 -7.15,0.23171 -15.7,0.65618 -19,0.94326 -3.3,0.28709 -14.55,0.781 -25,1.09758 -21.11681,0.63972 -23.74488,0.11865 -24.31768,-4.8215 l -0.31768,-2.73985 8.31768,0.2016 c 12.21472,0.29605 48.07238,-0.89765 65.31768,-2.17442 21.6221,-1.60081 42.3553,-2.04428 43.0496,-0.9208 0.3237,0.52376 1.0163,0.68796 1.539,0.36488 0.5228,-0.32307 2.4042,-0.11026 4.181,0.47292 1.7767,0.58318 8.6304,1.24386 15.2304,1.46818 13.789,0.46866 17.5,1.65072 17.5,5.57421 0,1.45171 -0.54,3.17948 -1.2,3.83948 -1.2184,1.21844 -6.9949,1.67174 -8.0361,0.63062 z M 928.5,293.05637 c -2.2,-0.3629 -7.375,-0.46956 -11.5,-0.23703 -4.125,0.23253 -9.2212,-0.0547 -11.32489,-0.63835 -2.10369,-0.58362 -4.77107,-0.71112 -5.9275,-0.28333 -1.15644,0.4278 -4.16024,0.37869 -6.67511,-0.10913 -5.8954,-1.14354 -5.44361,-1.13891 -20.0725,-0.20581 -6.875,0.43853 -13.625,0.66988 -15,0.51413 -1.375,-0.15575 -11.275,-0.17468 -22,-0.0421 -19.06649,0.23576 -24.8878,0.24727 -33,0.0653 -2.2,-0.0494 -4.5625,-0.0433 -5.25,0.0134 -3.22515,0.26622 -48.11218,-1.23928 -48.75271,-1.63515 -1.20952,-0.74753 -14.42387,-1.54196 -34.49729,-2.07395 -22.89473,-0.60675 -25.97229,-0.57889 -39.73849,0.35975 -5.90617,0.40271 -11.75617,0.47287 -13,0.15592 C 660.51768,288.62309 645.1,288.52767 627.5,288.728 c -17.6,0.20032 -32.675,0.31692 -33.5,0.25911 -0.825,-0.0578 -10.275,-0.2917 -21,-0.51975 -24.07982,-0.51201 -22.49024,-0.48354 -28.5,-0.51052 -4.61534,-0.0207 -19.63744,-1.98283 -25.50337,-3.33111 -1.37686,-0.31647 -6.55186,0.13932 -11.5,1.01286 -14.00183,2.47188 -18.70645,2.15835 -23.20063,-1.54613 -3.95176,-3.25738 -7.10058,-3.85596 -10.1771,-1.93464 -2.47117,1.54327 -5.1189,0.40853 -5.1189,-2.19382 0,-1.68443 -0.41925,-1.96571 -2.12365,-1.42476 -3.78703,1.20196 -5.35059,1.22448 -6.76189,0.0974 -1.66818,-1.33223 -4.37378,-1.46758 -5.25012,-0.26264 -0.71864,0.98811 -16.26126,1.03348 -34.86434,0.10179 -6.875,-0.34432 -19.25,-0.14321 -27.5,0.44691 -8.25,0.59013 -33.675,1.27111 -56.5,1.51331 -22.825,0.24219 -41.95,0.49843 -42.5,0.56942 -0.55,0.071 -7.075,-0.17336 -14.5,-0.54298 -15.37599,-0.76543 -11.81756,-0.76753 -60,0.0352 -23.46614,0.39098 -38.46401,1.05519 -42,1.86007 -3.025,0.68856 -11.8,1.36781 -19.5,1.50945 -13.27562,0.24419 -23.39354,0.64422 -35.29484,1.39543 -3.42726,0.21633 -5.66677,-0.11394 -6.34931,-0.93635 -0.84563,-1.01892 -1.34602,-0.979 -2.52659,0.20157 -1.88798,1.88798 -18.141915,2.36307 -34.289506,1.00225 -3.352139,-0.28249 -5.055151,-1.78455 -3.272468,-2.8863 2.607986,-1.61183 17.742817,-2.22686 31.040324,-1.26139 1.81918,0.13209 3.50989,-0.0871 3.75712,-0.48718 0.24724,-0.40004 -1.3948,-2.53522 -3.64896,-4.74486 -4.35226,-4.26628 -4.46254,-4.27577 -11.555296,-0.99417 -4.29241,1.98596 -10.587637,2.01661 -12.543182,0.0611 -1.772911,-1.77291 0.167539,-3.29547 4.013804,-3.14941 3.458399,0.13133 12.704706,-1.73825 21.668904,-4.3814 2.2,-0.64869 4.225,-1.2 4.5,-1.22514 1.96831,-0.17993 10,-4.56855 10,-5.46413 0,-0.61338 -0.40783,-0.86319 -0.90628,-0.55513 -1.77079,1.09441 -21.16707,0.74193 -22.554913,-0.40987 -1.050829,-0.87211 -1.790095,-0.68053 -3.202505,0.82992 -1.009966,1.08007 -4.222184,2.86859 -7.138261,3.97449 -4.987797,1.89158 -5.471889,1.91319 -8.169783,0.36481 -2.236358,-1.28349 -3.013056,-2.61438 -3.527404,-6.0443 -0.362769,-2.41912 -0.286367,-4.73293 0.169783,-5.14181 C 78.891362,252.92112 87.400425,251 91.026153,251 c 3.585256,0 3.664522,1.90389 0.145428,3.49304 -1.227072,0.55412 -1.971969,1.58476 -1.685307,2.33179 C 89.768823,257.56114 90,258.57677 90,259.08179 c 0,1.32756 3.38964,1.12857 4.8,-0.28179 0.66,-0.66 1.2,-1.97 1.2,-2.91111 0,-0.9411 1.317043,-2.81932 2.926763,-4.17381 2.812557,-2.36662 3.502887,-2.465 17.691817,-2.52144 14.89602,-0.0592 24.04263,-0.81438 25.88142,-2.13672 C 144.0568,245.93737 155.52589,242 157.23023,242 c 0.83868,0 2.08508,-0.675 2.76977,-1.5 0.68469,-0.825 1.97729,-1.52656 2.87244,-1.55903 2.37052,-0.086 10.41448,-4.24112 10.85976,-5.60966 0.20914,-0.64278 -2.37873,-2.40685 -5.75083,-3.92016 -5.13219,-2.30319 -6.43349,-3.41617 -7.98716,-6.83131 -1.02083,-2.24391 -1.99965,-4.94146 -2.17514,-5.99455 -0.40179,-2.41108 -3.92425,-4.37472 -17.94986,-10.00641 -6.14848,-2.46879 -11.62732,-4.93699 -12.17522,-5.48489 -1.78418,-1.78418 -1.49258,-8.30855 0.60372,-13.50781 2.78246,-6.90108 7.74811,-12.85501 11.83008,-14.18453 1.85472,-0.60409 6.52221,-2.10509 10.37221,-3.33555 12.47031,-3.98554 28.37868,-10.30471 30.21223,-12.001 3.69742,-3.42064 15.2861,-11.02658 17.73817,-11.64201 1.40228,-0.35195 2.5496,-1.06431 2.5496,-1.58302 0,-0.51871 1.125,0.27078 2.5,1.75443 1.99998,2.15802 2.5,3.73706 2.5,7.89497 0,7.66278 -5.57833,22.3357 -11.38664,29.95079 -2.47225,3.24129 -2.60064,3.81556 -1.41134,6.3127 1.15554,2.42626 2.09595,2.85303 8.05315,3.6547 6.07446,0.81745 6.74483,1.13282 6.74483,3.17308 0,1.24598 -1.28036,3.54577 -2.84525,5.11066 -3.13776,3.13776 -4.92584,9.67456 -3.21145,11.74028 0.5843,0.70404 4.32359,1.54649 8.30953,1.87212 4.23316,0.34583 10.78222,1.87238 15.74717,3.67058 6.19115,2.24231 10.92149,3.21603 17.41465,3.58474 4.90306,0.27841 10.75306,0.89426 13,1.36855 14.09216,2.9746 32.52646,-3.2901 41.87165,-14.22962 8.16534,-9.55838 15.91241,-27.58973 13.66111,-31.79632 -0.4787,-0.89445 -1.13665,-3.15075 -1.46211,-5.014 -0.70496,-4.03579 -7.24075,-16.23998 -12.12116,-22.63366 -4.02716,-5.27586 -11.62285,-11.38606 -14.13789,-11.37293 -0.94944,0.005 -3.75125,0.0657 -6.22625,0.13494 -2.475,0.0693 -5.85,-0.11629 -7.5,-0.41234 -2.55483,-0.45841 -3.96454,0.27924 -9.5,4.971 -8.6914,7.36668 -13,8.35679 -13,2.9874 0,-2.50191 5.30837,-12.25141 9.23613,-16.96331 2.3168,-2.77935 2.75106,-2.89581 10.34111,-2.77338 8.57372,0.1383 13.42276,-0.51063 13.42276,-1.79633 0,-1.17479 -7.51372,-4.00308 -12.3535,-4.65006 -2.66228,-0.35589 -6.73945,0.16955 -11.39046,1.46793 -6.45199,1.80116 -7.4086,1.85759 -8.75,0.5162 C 247.67772,122.53486 247,121.02195 247,120.00115 247,117.78796 251.50356,114 254.13486,114 255.16069,114 256,113.61114 256,113.13586 256,111.62154 264.39728,109 269.24795,109 c 4.83414,0 5.43385,0.2685 22.39355,10.02594 8.95081,5.14967 12.21455,6.33656 13.80646,5.02087 1.67776,-1.38664 6.43049,-0.005 7.08583,2.05967 0.32918,1.03713 0.0364,3.44023 -0.65068,5.34022 -1.21772,3.36755 -1.13755,3.57706 3.18386,8.32028 9.29436,10.20159 15.32259,19.07734 16.95143,24.95871 0.87956,3.17587 2.07804,6.67431 2.66328,7.77431 1.38204,2.59761 2.28121,20.6512 1.26296,25.35785 -3.93682,18.19725 -5.47328,24.1488 -7.04026,27.27087 -1.00171,1.99579 -2.03547,4.80988 -2.29725,6.25353 -0.26178,1.44364 -1.35285,3.86072 -2.4246,5.37128 -1.07175,1.51056 -2.91436,4.80641 -4.09469,7.32411 -1.18033,2.5177 -3.59546,5.98062 -5.36695,7.69538 C 310.69174,255.67314 294.31608,268 293.16411,268 c -0.46978,0 -1.63608,0.86404 -2.59179,1.92009 -0.95572,1.05605 -3.95046,2.45094 -6.65499,3.09974 -2.70453,0.64881 -4.91733,1.47319 -4.91733,1.83196 0,0.35876 4.8375,0.54139 10.75,0.40583 22.74196,-0.52142 158.62958,-2.02364 180.25,-1.99265 15.40832,0.0221 18.00194,0.01 53.49967,-0.25034 20.91892,-0.1534 26.29286,-0.4687 27.5,-1.61349 0.82518,-0.78257 2.62533,-2.30299 4.00033,-3.37872 l 2.5,-1.95588 -2.5,-0.10978 c -1.375,-0.0604 -3.4,-0.30715 -4.5,-0.54839 -1.1,-0.24123 -2.9,-0.48752 -4,-0.54731 -1.1,-0.0598 -3.43761,-0.52968 -5.19469,-1.04419 -2.46016,-0.72038 -3.76949,-0.55883 -5.69474,0.70264 C 530.36699,267.95524 524,265.03503 524,259.19435 c 0,-2.92515 0.89836,-4.36579 5.50427,-8.82687 3.02735,-2.93216 7.18985,-6.23684 9.25,-7.34375 2.06015,-1.10691 5.54573,-3.13702 7.74573,-4.51135 2.2,-1.37434 4.675,-2.81205 5.5,-3.19491 0.825,-0.38287 3.6573,-1.96092 6.29401,-3.5068 C 560.93071,230.2648 563.72341,229 564.5,229 c 0.77659,0 3.64463,-1.31641 6.37341,-2.92536 6.83382,-4.02937 27.46559,-13.86824 32.51444,-15.50548 1.62686,-0.52755 1.06736,-1.47327 -4.04703,-6.84067 -3.26418,-3.42567 -7.02637,-8.02849 -8.36043,-10.22849 -3.69369,-6.09128 -5.62024,-7.28495 -10.91246,-6.76128 -2.51236,0.2486 -6.36793,0.93858 -8.56793,1.5333 -2.2,0.59471 -4.2527,1.03006 -4.56156,0.96745 -0.30886,-0.0626 -2.33386,0.31299 -4.5,0.83468 -2.16614,0.52168 -7.08844,1.20315 -10.93844,1.51438 -3.85,0.31122 -8.92823,1.20612 -11.28495,1.98866 -5.34738,1.77559 -6.67268,1.78125 -8.12219,0.0347 -0.90135,-1.08606 -0.58224,-2.06528 1.46645,-4.5 L 536.17779,186 h -2.41464 c -1.32805,0 -5.08055,2.00802 -8.33889,4.46227 -5.33423,4.01785 -6.04875,4.2976 -7.17426,2.80887 -1.98966,-2.63177 -1.46137,-5.87141 1.37244,-8.41618 1.44234,-1.29523 3.57984,-3.29648 4.75,-4.44722 2.58705,-2.54412 14.12721,-11.05499 15.87173,-11.7054 0.87834,-0.32747 0.5849,-1.16598 -0.97623,-2.78956 l -2.23206,-2.32134 -2.82266,2.70428 c -3.647,3.49405 -5.21322,3.42293 -5.21322,-0.2367 0,-1.61754 -0.43275,-3.20844 -0.96166,-3.53532 -1.06243,-0.65662 -5.03834,6.45327 -5.03834,9.00979 0,1.00004 -0.66513,1.48309 -1.75,1.27095 -1.37752,-0.26937 -1.70726,-1.24277 -1.54919,-4.57332 0.24556,-5.17399 -1.86104,-5.75573 -4.23297,-1.16893 -2.16036,4.17767 -4.92589,3.58796 -5.08974,-1.08533 C 510.02464,155.89499 510.04862,156 508.10034,156 505.9548,156 496,145.62116 496,143.38423 c 0,-0.80003 -0.70945,-2.53736 -1.57656,-3.86073 -1.36441,-2.08236 -2.37831,-5.31946 -5.09885,-16.27925 -0.93113,-3.75107 0.3163,-4.59638 20.67541,-14.01052 5.72499,-2.64726 12.07671,-4.55318 18.5,-5.55118 1.76059,-0.27355 9.16606,-3.778274 19.23012,-9.100878 1.77657,-0.939576 3.49062,-2.129824 3.80902,-2.644996 C 551.85753,91.421504 552.68967,91 553.38833,91 c 0.69866,0 4.83213,-2.029803 9.18549,-4.510673 4.35336,-2.48087 9.94268,-5.261276 12.42069,-6.178681 2.47802,-0.917405 6.75549,-3.055433 9.50549,-4.751175 2.75,-1.695741 5.75061,-3.527834 6.66802,-4.071318 5.63072,-3.335703 12.97905,-8.874222 15.0683,-11.357156 1.33939,-1.59178 3.48596,-5.534937 4.77014,-8.762571 1.28418,-3.227634 3.19597,-7.116114 4.24842,-8.641065 2.36728,-3.430068 8.84671,-6.900645 10.72081,-5.742387 0.74265,0.458985 3.21775,4.891217 5.50022,9.849405 2.28247,4.958188 4.57163,8.711302 5.08702,8.340254 C 637.07832,54.803585 638.85,51.8 640.5,48.5 c 1.65,-3.3 3.63505,-6.790599 4.41122,-7.756886 0.77617,-0.966287 1.91243,-2.766287 2.52503,-4 0.6126,-1.233713 2.10625,-2.385759 3.31923,-2.560103 1.76118,-0.253137 2.59213,0.552593 4.12523,4 7.65383,17.210826 9.08622,20.623718 9.66398,23.025971 1.13003,4.698488 0.56639,4.568136 27.45531,6.349551 4.125,0.273285 10.425,0.719085 14,0.990666 3.575,0.271581 8.075,0.424978 10,0.340881 4.43531,-0.193764 5.59469,-0.13638 10.5,0.519699 9.94744,1.330457 34.29578,3.036497 56,3.923807 8.25,0.337276 18.375,1.058554 22.5,1.60284 4.125,0.544287 14.25,1.6768 22.5,2.516697 21.69411,2.208583 43.59904,5.743507 52,8.391537 1.65,0.520089 6.375,1.919406 10.5,3.109592 8.60391,2.482488 12.8818,4.097695 22,8.306559 3.575,1.650183 10.07338,3.632749 14.44084,4.405699 4.36747,0.77296 8.44374,1.82274 9.05839,2.33285 1.87731,1.55803 23.72572,2.11631 33.69181,0.8609 11.87584,-1.49598 33.92916,-1.28387 34.93026,0.33596 0.3991,0.64574 1.024,2.76502 1.3888,4.70951 0.5413,2.88528 0.272,3.85229 -1.4644,5.25835 -3.2636,2.64267 -12.33618,5.71878 -18.56737,6.29534 -3.08266,0.28523 -8.38887,1.26439 -11.79158,2.17591 -3.40271,0.91152 -7.13861,1.60152 -8.30199,1.53334 -4.37593,-0.25645 -5.37059,2.56653 -5.78468,16.41773 -0.37671,12.60053 -1.56427,18.86493 -5.94726,31.37182 -1.26599,3.61253 -1.33251,4.93779 -0.35064,6.98639 1.34155,2.79905 14.04812,10.97323 17.19782,11.06341 2.92994,0.0839 11.49328,3.20045 15.83889,5.76442 2.07649,1.22516 4.43827,2.22756 5.2484,2.22756 0.81014,0 4.27192,1.18419 7.69284,2.63153 6.13747,2.59668 16.73917,4.54028 23.88877,4.37952 2.0179,-0.0454 3.957,0.38358 4.309,0.95323 0.3521,0.56964 1.937,1.03572 3.5221,1.03572 5.3263,0 5.1834,3.6014 -0.4688,11.81833 -1.9774,2.87458 -3.0702,5.34856 -2.5143,5.69208 0.5407,0.33419 0.9831,2.12542 0.9831,3.98051 0,2.60628 0.6819,3.85842 3,5.50908 1.65,1.1749 3,2.98264 3,4.0172 0,2.92937 -11.7783,10.9828 -16.0625,10.9828 -1.101,0 -3.6748,0.72805 -5.7196,1.61788 -3.0122,1.31077 -7.2101,1.59967 -22.11488,1.52194 -19.61589,-0.10229 -34.5189,-2.19267 -44.2884,-6.21212 -2.57696,-1.06023 -5.50196,-1.93047 -6.5,-1.93386 -0.99804,-0.003 -3.03128,-0.64089 -4.5183,-1.41667 -2.68355,-1.4 -9.50856,-1.70587 -30.79632,-1.38015 -17.09504,0.26157 -26.41724,0.12188 -31.5,-0.472 -2.75,-0.32131 -9.275,-0.83997 -14.5,-1.15256 -12.08457,-0.72298 -23.25022,-2.29301 -29,-4.07776 -4.56362,-1.41657 -10.74957,-0.80888 -15.5,1.52267 -3.02394,1.48418 -13.63477,5.08119 -16.76224,5.6823 -1.51923,0.29201 -3.00829,0.92904 -3.30902,1.41563 -0.30072,0.48658 -1.40495,0.8847 -2.45383,0.8847 -1.04888,0 -3.49732,0.675 -5.44098,1.5 -1.94366,0.825 -5.19135,2.20702 -7.21708,3.07116 -2.02574,0.86414 -6.86324,1.77677 -10.75,2.02807 -3.88677,0.2513 -7.74185,0.70175 -8.56685,1.00101 -0.825,0.29926 -3.75,0.72481 -6.5,0.94566 -2.75,0.22085 -7.58295,0.67356 -10.73988,1.00603 -8.37468,0.88196 -24.50768,1.34139 -47.59306,1.35532 -20.21324,0.0122 -20.37219,0.0293 -27,2.90696 -15.21185,6.60467 -20.02368,7.55482 -43.66706,8.6226 -7.97017,0.35995 -14.11141,1.99882 -25.25393,6.73934 -5.08966,2.16536 -9.6644,3.68334 -10.16608,3.37328 -0.50169,-0.31005 -2.18742,-0.0789 -3.74607,0.51373 -2.28492,0.86874 -2.53631,1.24403 -1.29766,1.93723 3.25338,1.82073 12.62353,2.11496 80.96374,2.54232 38.775,0.24248 77.925,0.72699 87,1.0767 15.18996,0.58534 87.70481,0.87807 113.5,0.45817 6.05,-0.0985 25.0625,-0.13403 42.25,-0.079 30.47556,0.0976 31.25,0.14927 31.25,2.08592 0,2.84412 -2.94213,6.94048 -4.86501,6.77358 -0.89924,-0.078 -3.43499,-0.43882 -5.63499,-0.80172 z M 497.8185,280.46126 c 2.84982,-0.84631 5.1815,-1.97131 5.1815,-2.5 C 503,277.4137 498.91142,277 493.5,277 c -5.66667,0 -9.5,0.40351 -9.5,1 0,0.55 1.36412,1 3.03138,1 1.77208,0 3.27051,0.62314 3.60699,1.5 0.71068,1.852 0.8152,1.85144 7.18013,-0.0387 z M 158.13757,279.6962 c 7.35096,-0.15396 13.2075,-0.72793 14,-1.37207 1.90393,-1.54749 11.30713,-3.27844 17.86243,-3.28811 3.025,-0.004 11.73855,0.25126 19.36345,0.56827 10.82023,0.44987 13.77233,0.30305 13.44838,-0.66881 -0.22829,-0.68487 -2.24871,-1.78662 -4.48983,-2.44834 -3.1941,-0.94311 -18.44889,-10.32882 -25.76841,-15.85434 -1.19845,-0.90472 -3.39826,-0.034 -21.05359,8.33339 -5.5,2.60661 -11.8,5.24633 -14,5.86604 -15.57782,4.38803 -18.48961,5.34194 -19.0439,6.2388 -0.34343,0.55568 -1.44867,0.74872 -2.4561,0.42897 -2.00736,-0.63711 -3.49454,0.8908 -2.47412,2.54188 0.39325,0.63629 2.8492,0.82332 6.30902,0.48044 3.1158,-0.30879 11.35201,-0.68055 18.30267,-0.82612 z M 546,278.87565 c 0,-1.61283 -2.39102,-1.9717 -11.08359,-1.66357 -7.31441,0.25929 -8.08907,0.45175 -5.91641,1.46994 2.96245,1.38831 17,1.5482 17,0.19363 z m 8,-1.31721 c 0,-0.20416 -0.9,-0.13585 -2,0.15181 -1.1,0.28766 -2,0.93636 -2,1.44157 0,0.50746 0.89508,0.43952 2,-0.15182 1.1,-0.5887 2,-1.23741 2,-1.44156 z m 20.66705,-4.38949 c 4.64096,-3.66847 6.99,-4.15424 8.55448,-1.76901 0.51569,0.78623 1.22892,0.74138 2.5,-0.1572 0.97816,-0.69149 2.90347,-1.791 4.27847,-2.44336 1.375,-0.65236 3.28933,-1.84549 4.25406,-2.65141 1.33583,-1.11592 2.30323,-1.21508 4.05724,-0.4159 1.69283,0.7713 3.15398,0.69165 5.51379,-0.30057 3.74227,-1.57351 13.9277,-3.65512 19.67491,-4.021 6.61577,-0.42117 18.59162,-2.21555 25.5,-3.82075 3.575,-0.83067 8.51542,-1.76199 10.97871,-2.06959 2.46329,-0.3076 7.48685,-2.08748 11.16347,-3.9553 l 6.68477,-3.39603 14.83652,1.00697 c 8.16009,0.55384 19.11153,0.69516 24.33653,0.31406 5.225,-0.3811 11.75,-0.82776 14.5,-0.99257 10.01154,-0.6 12.02222,-0.86802 13.2062,-1.76037 0.6634,-0.50001 1.59056,-0.67155 2.06035,-0.3812 0.46978,0.29034 2.62699,0.13852 4.7938,-0.33739 2.16681,-0.47591 7.31465,-1.4033 11.43965,-2.06086 7.2366,-1.15358 19.44037,-4.55135 21.5,-5.98603 0.55,-0.38311 3.3934,-0.96587 6.31868,-1.29502 2.92527,-0.32915 6.70691,-1.291 8.40364,-2.13744 1.69672,-0.84644 3.62196,-1.53898 4.27831,-1.53898 0.65634,0 2.21973,-0.89017 3.47418,-1.97816 1.46959,-1.27456 2.79903,-1.68816 3.73775,-1.16282 0.88855,0.49725 4.78694,-0.27582 9.99281,-1.98163 4.69474,-1.53833 8.81911,-2.7424 9.16526,-2.6757 0.34615,0.0667 1.97937,-0.45132 3.62937,-1.15115 1.65,-0.69983 4.8,-1.47008 7,-1.71168 5.67017,-0.62267 7.55585,-0.91782 11.29096,-1.7673 3.91409,-0.89018 6.20904,0.59759 6.20904,4.0252 0,2.87327 -3.80104,4.97981 -9.5,5.26491 -4.81891,0.24107 -7.5,0.98713 -7.5,2.087 0,3.01904 32.83003,5.01664 50.5,3.07276 22.29475,-2.45266 36.50844,-1.36893 52.5,4.00289 4.675,1.57041 10.3,3.14479 12.5,3.49864 2.2,0.35384 6.025,1.24076 8.5,1.97092 2.475,0.73017 7.425,1.60222 11,1.93791 3.575,0.33568 9.59251,0.9674 13.37225,1.40383 7.49015,0.86484 27.78785,-1.53427 32.87775,-3.88603 3.4268,-1.58334 3.5387,-3.53482 0.25,-4.36023 -2.9076,-0.72978 -3.2891,-3.45534 -0.9775,-6.9834 1.346,-2.05419 1.3502,-2.46673 0.036,-3.55721 -1.7004,-1.41124 -16.1202,-3.43776 -17.6656,-2.48268 -1.4047,0.86816 1.5115,3.94468 5.1792,5.46388 3.5553,1.47266 4.0143,5.31813 0.8377,7.01821 -1.7122,0.91637 -3.2256,0.57607 -8.3736,-1.88303 -7.15942,-3.41983 -9.3894,-6.1585 -11.94126,-14.66513 -0.98995,-3.3 -2.51118,-7.575 -3.38052,-9.5 -2.02591,-4.48605 -8.28833,-11.58432 -9.89475,-11.21542 -0.67903,0.15593 -4.3957,-1.3084 -8.25929,-3.25407 -3.86358,-1.94567 -7.82027,-3.67611 -8.79264,-3.84541 -4.20124,-0.73151 -10.48121,-4.54229 -11.85767,-7.19541 -0.81323,-1.5675 -1.74783,-5.42595 -2.07691,-8.57433 -0.5791,-5.5406 0.23066,-9.42405 5.73139,-27.48636 1.22817,-4.03285 1.19593,-17.78147 -0.0572,-24.38918 -0.95914,-5.05755 -4.35575,-10.4372 -7.88171,-12.48328 -0.89421,-0.51891 -3.42584,-1.27839 -5.62584,-1.68774 -4.86063,-0.9044 -22.85,-7.08284 -27,-9.27313 -1.65,-0.87084 -3.6975,-1.58612 -4.55,-1.58951 -0.8525,-0.003 -1.9775,-0.38009 -2.5,-0.83712 -0.5225,-0.45702 -3.875,-1.664677 -7.45,-2.683672 -3.575,-1.018995 -8.78285,-2.87182 -11.573,-4.117389 -2.79014,-1.245569 -6.16514,-2.477303 -7.5,-2.737187 -1.33485,-0.259884 -4.34017,-1.163403 -6.67848,-2.007819 -2.33832,-0.844416 -6.61332,-1.788658 -9.5,-2.098316 C 855.85323,86.999535 848.85959,85.761903 843,84.383782 840.1758,83.719556 839.15851,83.597947 824.81709,82.210146 819.14269,81.661042 813.15,81.203929 811.5,81.194341 c -1.65,-0.0096 -7.5,-0.248479 -13,-0.530867 -5.5,-0.282388 -19.675,-0.808452 -31.5,-1.16903 -24.04638,-0.733244 -31.65452,-1.162889 -32.76694,-1.850408 -0.41654,-0.257433 -7.27688,-0.766162 -15.2452,-1.130511 -7.96832,-0.364348 -18.26429,-1.065992 -22.87992,-1.559207 -4.61563,-0.493216 -8.70363,-0.704196 -9.08444,-0.468845 -0.3808,0.235352 -3.6493,-0.06207 -7.26333,-0.660932 C 672.55158,72.63004 668,73.259791 668,75.451664 c 0,1.956545 -3.78018,2.975661 -5.55963,1.498847 -2.21177,-1.835607 -5.17401,-9.183582 -5.8922,-14.615869 -0.82722,-6.257027 -3.57218,-15.45557 -5.13357,-17.202966 -1.57544,-1.76311 -3.02159,-0.833699 -3.8522,2.475734 -0.69319,2.761865 -10.10594,17.300817 -11.34287,17.520213 -1.82137,0.323058 -5.54946,0.721824 -16.21953,1.734882 -10.34383,0.982083 -11.72139,1.345491 -13.70203,3.614675 -2.42009,2.772636 -3.90892,3.189969 -4.54736,1.274664 C 601.20401,70.112017 592.60798,74.36398 580,82.510628 571.02273,88.311293 556.38622,96.645707 554.75,96.888644 554.3375,96.94989 553.42539,97 552.72309,97 c -0.7023,0 -3.62391,1.7635 -6.49246,3.91889 -2.86856,2.15539 -6.68145,4.2064 -8.47309,4.5578 -1.79165,0.3514 -6.63254,1.93206 -10.75754,3.51258 -4.125,1.58052 -10.34216,3.41889 -13.8159,4.08527 -9.96019,1.9107 -10.18832,2.30686 -9.07817,15.76506 0.98895,11.98899 2.07304,15.19217 6.7026,19.80428 3.28129,3.26892 12.86728,6.40329 18.19147,5.94813 11.29742,-0.9658 27.00434,-4.09319 31.21676,-6.21555 2.59421,-1.30705 5.84105,-2.37646 7.2152,-2.37646 2.31244,0 8.97083,4.76923 10.90137,7.80836 0.45833,0.72153 2.08146,2.74731 3.60694,4.50175 1.52549,1.75444 3.32853,4.8945 4.00677,6.97791 1.03569,3.18143 0.98829,4.16173 -0.29597,6.12177 -0.84103,1.28356 -2.56907,2.57941 -3.8401,2.87967 -1.27103,0.30026 -6.13597,1.67608 -10.81097,3.05738 -4.675,1.3813 -11.59226,3.3981 -15.37168,4.48177 -3.77943,1.08367 -7.82943,2.96451 -9,4.17965 l -2.12832,2.20935 3,-0.55934 c 1.65,-0.30764 7.275,-1.51363 12.5,-2.67999 18.09297,-4.03883 22.51247,-4.90494 25.2152,-4.94152 3.39009,-0.0459 9.57374,5.19504 10.41201,8.82466 1.07753,4.66565 5.14348,10.70976 9.73637,14.47328 2.46016,2.01592 4.77907,3.6653 5.15314,3.6653 0.37407,0 4.34834,1.73687 8.8317,3.85971 4.48337,2.12284 8.82658,4.14975 9.65158,4.50423 0.825,0.35449 3.75,1.98899 6.5,3.63224 2.75,1.64325 6.0125,3.4302 7.25,3.97102 2.75473,1.20387 2.85068,3.53543 0.31654,7.69141 -1.92346,3.15447 -6.29928,5.00776 -16.06654,6.80466 -3.23012,0.59426 -6.7261,1.81455 -14.5,5.06132 -1.65,0.68912 -4.12356,1.59357 -5.4968,2.0099 -1.37325,0.41632 -4.97325,2.11698 -8,3.77925 -8.47527,4.65453 -14.56051,7.53705 -17.43366,8.25816 -1.43855,0.36106 -3.84123,1.95508 -5.3393,3.54228 -1.49806,1.5872 -3.12479,2.88582 -3.61495,2.88582 -0.49016,0 -4.65412,2.52971 -9.25324,5.62157 -11.79581,7.93 -10.85659,9.89267 1.56553,3.27144 8.14734,-4.34269 10.99207,-3.52752 5.07242,1.45354 -6.20995,5.22532 -1.96374,5.06374 4.66705,-0.1776 z M 721,231.63486 c 0,-1.30083 -0.9,-3.50931 -2,-4.90773 -1.1,-1.39842 -2,-3.98534 -2,-5.7487 C 717,217.25707 720.75739,210 722.68414,210 c 1.74761,0 1.66575,1.55142 -0.38357,7.26901 -1.6108,4.49412 -1.61109,4.93532 -0.005,7.65429 2.16258,3.66095 2.28452,9.0767 0.20438,9.0767 -0.91053,0 -1.5,-0.92946 -1.5,-2.36514 z m -2.77714,-28.57849 c -1.77257,-1.619 -3.22224,-3.0815 -3.22149,-3.25 0.0121,-2.70414 3.24166,-17.4494 3.9846,-18.19234 2.35469,-2.35469 3.02665,0.97419 1.89461,9.38587 l -1.12914,8.39018 2.62428,2.09252 c 1.44335,1.15089 2.62428,2.63813 2.62428,3.30496 0,2.16958 -3.47948,1.28076 -6.77714,-1.73119 z M 858.73839,173.75 c -0.63921,-1.68006 0.93878,-5.75 2.22939,-5.75 1.95208,0 1.02905,-2.77206 -1.46778,-4.40804 -1.375,-0.90094 -2.5,-2.31682 -2.5,-3.1464 0,-2.24492 3.07865,-3.0564 4.17348,-1.10005 0.50925,0.90997 1.5025,1.65449 2.20723,1.65449 0.70473,0 1.8968,1.15002 2.64905,2.55561 1.22531,2.2895 1.11492,3.01837 -1.06014,7 -2.35637,4.31354 -5.2425,5.79309 -6.23123,3.19439 z M 717.6875,172.35417 C 717.30938,171.97604 717,171.01468 717,170.21782 c 0,-0.79687 -1.97305,-4.43437 -4.38456,-8.08334 -2.41151,-3.64896 -4.69992,-8.20948 -5.08536,-10.13448 -0.41797,-2.08747 -1.9425,-4.55193 -3.7775,-6.1065 -2.05246,-1.7388 -2.86674,-3.15362 -2.44602,-4.25 0.86945,-2.26576 2.03539,-2.0681 5.62685,0.95392 1.95569,1.64561 3.48974,4.19743 4.18631,6.96374 0.60469,2.40147 3.09558,7.40549 5.5353,11.12003 2.85115,4.34095 4.33031,7.63091 4.14042,9.20914 -0.29943,2.48856 -1.85223,3.71955 -3.10794,2.46384 z M 583.48667,125.2154 c -3.80078,-4.07914 -4.92276,-9.44825 -3.43722,-16.44842 0.67994,-3.20404 1.63578,-6.07244 2.12409,-6.37423 0.4883,-0.30179 0.59894,-2.08862 0.24585,-3.970731 C 581.82068,95.230602 581.95467,95 584.40776,95 c 2.30993,0 2.55352,-0.306095 1.99967,-2.512809 -0.34687,-1.382045 -0.33592,-4.478365 0.0243,-6.880711 0.6112,-4.07577 0.96948,-4.492922 5.35694,-6.237191 2.58607,-1.028109 5.04154,-2.019289 5.45662,-2.202622 0.41507,-0.183334 0.75468,0.325756 0.75468,1.131311 0,0.805554 -1.575,2.665955 -3.5,4.134224 -5.45016,4.15704 -4.30802,8.099487 2.66077,9.184469 1.83658,0.285939 7.16423,-0.238218 11.83923,-1.164793 15.03006,-2.978926 19.19112,-2.987592 23.84511,-0.04966 4.25418,2.685546 6.6726,5.951091 5.64212,7.618445 -0.98944,1.600942 -2.89227,1.134198 -6.54295,-1.604919 -3.12668,-2.345957 -4.02162,-2.527704 -9.70544,-1.971007 -3.44363,0.337284 -7.49363,1.091591 -9,1.676236 -1.50636,0.584646 -3.86384,1.289439 -5.23884,1.566207 -1.375,0.276769 -3.175,0.650946 -4,0.831505 -0.825,0.180558 -1.6753,0.362719 -1.88955,0.4048 -0.69981,0.137452 6.95376,5.076515 7.86657,5.076515 0.48851,0 1.16348,0.86732 1.49993,1.92739 0.33645,1.06006 2.16678,2.84488 4.06739,3.96627 5.38498,3.17721 4.60561,5.41541 -2.79434,8.02486 -3.4375,1.21218 -6.7671,2.30862 -7.39912,2.43655 -1.89259,0.38308 -4.35088,2.79419 -4.35088,4.26737 0,1.66927 -1.65508,1.74236 -5.90514,0.26078 -2.59603,-0.90498 -3.43035,-0.83665 -4.39923,0.36027 -2.27761,2.81368 -4.56943,2.80475 -7.20896,-0.0281 z m 20.43628,-9.62499 c 6.17042,-1.24071 7.61517,-3.09367 3.17288,-4.06936 C 602.20292,110.44638 596,107.06738 596,105.47666 c 0,-2.36551 -3.96247,-1.74331 -4.92499,0.77334 -0.62572,1.63605 -0.30946,3.15679 1.15903,5.5732 1.49788,2.46478 1.72849,3.61427 0.89276,4.45 -0.61974,0.61974 -1.1268,1.72336 -1.1268,2.45248 0,1.02715 0.73188,0.94617 3.25,-0.35959 1.7875,-0.92689 5.69033,-2.17595 8.67295,-2.77568 z M 131.57851,273.88915 c 13.71148,-3.04003 36.62815,-10.96342 37.1171,-12.83316 0.29133,-1.11405 1.56175,-1.69525 3.84718,-1.76004 1.92382,-0.0545 5.60958,-1.44877 8.44974,-3.19634 2.77063,-1.70478 5.39248,-3.09961 5.82633,-3.09961 0.43384,0 2.17818,-1.4625 3.8763,-3.25 C 193.99918,246.27208 197,237.65973 197,231.65511 c 0,-3.56207 -1.33308,-5.54322 -2.48059,-3.68651 -1.11264,1.80028 -14.31506,9.0314 -16.48934,9.0314 -1.16654,0 -3.33802,1.22146 -4.82552,2.71436 C 168.76068,244.17434 155.035,255 153.82413,255 c -0.61863,0 -3.41964,1.08075 -6.22446,2.40167 -13.95591,6.57248 -19.28076,8.85116 -21.58145,9.23544 -2.87421,0.48007 -11.77566,3.23715 -14.01822,4.34191 -1.46929,0.72383 -2.03348,2.7246 -1.22049,4.3282 0.6584,1.29865 12.04825,0.52209 20.799,-1.41807 z m 138.38178,-0.67523 c -0.0218,-0.39266 -2.03076,-2.8772 -4.46427,-5.52121 l -4.42457,-4.80728 -5.71938,1.05728 C 252.2064,264.52422 249.51374,265 249.36836,265 c -0.94459,0 2.17206,6.26314 3.61551,7.26563 1.88799,1.31124 17.04369,2.15782 16.97642,0.94829 z M 246,271.04705 c 0,-2.22535 -2.44433,-6.05299 -3.91052,-6.12356 -0.87421,-0.0421 -2.48948,-0.23832 -3.58948,-0.43608 -10.93113,-1.96527 -12.97809,-1.39804 -7.75,2.14758 5.21797,3.53875 15.25,6.44117 15.25,4.41206 z m 32.02433,-0.0601 c 1.84602,-0.98796 1.84195,-1.09929 -0.16451,-4.5 C 276.06901,263.45179 275.29698,263 271.90122,263 269.75555,263 268,263.25139 268,263.55864 c 0,1.05057 6.33291,8.44136 7.23311,8.44136 0.4941,0 1.75016,-0.45586 2.79122,-1.01302 z M 287,265.5 c 1.29175,-1.375 2.94519,-2.5 3.67431,-2.5 1.58667,0 1.71916,-1.20653 0.28947,-2.63622 -1.26148,-1.26148 -10.17012,0.75523 -10.72789,2.42856 -0.53566,1.60698 1.62502,5.20766 3.12498,5.20766 0.70978,0 2.34738,-1.125 3.63913,-2.5 z m -44.79579,-9.49579 c -0.16269,-2.47269 -0.61269,-4.80299 -1,-5.17846 -0.38732,-0.37547 -3.84932,-0.82736 -7.69334,-1.00421 l -6.98912,-0.32154 -0.0947,3 c -0.0521,1.65 0.11201,3.58426 0.36467,4.29836 0.75594,2.13652 6.40542,4.09926 11.20829,3.89398 l 4.5,-0.19234 -0.29579,-4.49579 z m 16.25377,-0.50171 c -0.36389,-2.75138 -1.01277,-5.37697 -1.44196,-5.83465 -0.42918,-0.45769 -2.74586,-0.44585 -5.14817,0.0263 -3.8097,0.74876 -4.40977,1.22194 -4.69593,3.70298 -0.18045,1.56449 -0.0531,3.94015 0.28299,5.27924 0.56781,2.26233 1.00241,2.41326 6.13788,2.13167 l 5.52681,-0.30305 z m 310.72794,0.11001 c 3.12726,-1.43688 5.95853,-2.61251 6.2917,-2.61251 0.33318,0 3.49325,-1.35 7.02238,-3 3.52913,-1.65 6.82243,-3 7.31845,-3 0.90119,0 16.45687,-6.8773 21.18155,-9.36454 1.375,-0.72385 5.2,-2.09341 8.5,-3.04347 3.3,-0.95005 7.03367,-2.14691 8.29705,-2.65968 1.26338,-0.51277 3.1152,-0.93231 4.11514,-0.93231 0.99995,0 3.02072,-0.94598 4.49059,-2.10219 2.1646,-1.70267 2.44413,-2.37735 1.47086,-3.55007 -0.66091,-0.79634 -2.14034,-1.33395 -3.28764,-1.19469 -1.1473,0.13926 -6.361,-1.80599 -11.586,-4.32278 -18.47094,-8.89712 -15.67464,-8.37366 -23.25176,-4.35267 -3.65068,1.93732 -7.22499,3.52282 -7.94291,3.52334 -1.23788,8.9e-4 -15.86846,7.23866 -27.80533,13.75533 -12.7459,6.95835 -24.22164,14.78304 -30.5,20.79632 -3.97712,3.8092 -4.63991,4.87165 -3.23984,5.19343 1.84705,0.42451 7.65801,-2.65424 11.50308,-6.09454 2.78662,-2.49327 5.06945,-1.07589 3.37288,2.09418 -0.92835,1.73464 -0.76938,1.90689 1.38055,1.4959 1.62749,-0.31111 3.41945,0.36835 5.42736,2.05789 2.84009,2.38978 3.22259,2.45411 7.27681,1.22396 2.35354,-0.71411 6.83783,-2.47402 9.96508,-3.9109 z m -295.72342,3.44816 c 0.68314,-1.10534 -0.33732,-8.24008 -1.43184,-10.01107 -0.75019,-1.21383 -9.52993,-1.88366 -10.60454,-0.80905 -0.96868,0.96868 1.64633,9.20409 3.33708,10.50945 1.89372,1.46205 7.85611,1.67498 8.6993,0.31067 z M 141,256.1575 c 7.06101,-1.88233 20.39899,-9.70291 19.37475,-11.36017 -0.31738,-0.51352 -1.31903,-0.62319 -2.2259,-0.2437 -0.90687,0.37949 -5.92385,2.13961 -11.14885,3.91138 -8.89134,3.01501 -13.01243,3.62646 -27,4.00605 -13.47282,0.36563 -15.72561,0.60781 -17.46165,1.87724 -4.057224,2.96671 -0.81651,3.55819 17.23942,3.1464 C 129.525,257.27241 139.075,256.67067 141,256.1575 Z M 286.91154,252 c -0.13271,-3.1251 -2.64709,-8.50226 -4.00076,-8.55587 -0.77593,-0.0307 -2.6893,0.81662 -4.25193,1.883 -2.86723,1.95667 -2.8705,1.97688 -1.34708,8.32199 0.15174,0.63201 0.85658,1.8488 1.5663,2.70397 1.1556,1.3924 1.646,1.32458 4.69379,-0.64912 1.87186,-1.21218 3.37472,-2.87897 3.33968,-3.70397 z m -65.27231,2.49776 c 0.31706,-0.82623 0.28439,-2.66594 -0.0726,-4.08825 -0.5204,-2.07341 -0.9253,-2.35675 -2.04268,-1.4294 -1.08026,0.89654 -1.46324,4.96045 -0.63799,6.76989 0.39131,0.85798 2.27167,0.003 2.75325,-1.25224 z m 80.68529,-5.11896 c 3.78586,-4.24497 4.61,-6.4019 2.42548,-6.34791 -2.00294,0.0495 -12.0905,10.60915 -11.32228,11.85215 0.99979,1.6177 4.44739,-0.51525 8.8968,-5.50424 z m -5.045,-4.25306 c 3.92256,-4.04356 4.4884,-5.07346 3.3201,-6.04306 -1.47065,-1.22053 -6.19734,-0.54259 -7.16809,1.0281 C 293.12927,240.59985 291.9944,241 290.9096,241 c -1.0848,0 -2.23449,0.68308 -2.55487,1.51796 -0.7412,1.93155 1.51559,7.48204 3.04215,7.48204 0.63483,0 3.28202,-2.19342 5.88264,-4.87426 z m -56.32971,0.43473 c 0.65709,-0.79174 1.04969,-2.70424 0.87245,-4.25 -0.29895,-2.60717 -0.72571,-2.86056 -5.89971,-3.50295 -3.0676,-0.38087 -6.17967,-0.83087 -6.9157,-1 -1.71168,-0.39333 -3.25487,6.18871 -1.84831,7.8835 0.55236,0.66556 3.33016,1.37411 6.17288,1.57456 2.84272,0.20045 5.45098,0.4477 5.79614,0.54944 0.34515,0.10174 1.16517,-0.46281 1.82225,-1.25455 z m 13.70024,-0.32578 c 0.63253,-0.40408 1.24835,-1.40969 1.36848,-2.23469 0.54539,-3.74526 0.0435,-4.1081 -5.25916,-3.80226 -5.37249,0.30986 -6.77629,1.70983 -5.37533,5.36067 0.58674,1.52903 7.17811,2.01009 9.26601,0.67628 z M 267.25,244.01365 c 1.33372,-0.0104 1.75,-0.85368 1.75,-3.54503 0,-4.0122 -1.21006,-4.8124 -5.5,-3.63711 -2.42951,0.66561 -3.01633,1.3778 -3.08588,3.74519 -0.11606,3.95058 0.43255,4.69925 2.94874,4.02407 1.17543,-0.3154 2.92464,-0.57961 3.88714,-0.58712 z m -44.33157,-4.82267 -0.0816,-3.69098 -1.44362,3.30472 c -1.44096,3.29862 -1.08608,5.74152 0.67587,4.65257 0.51199,-0.31643 0.89419,-2.23627 0.84933,-4.26631 z m 56.71354,1.72746 c 2.74259,-1.69501 3.36803,-2.7054 3.36803,-5.44098 0,-4.39984 -1.40895,-5.11054 -5.62848,-2.83909 -3.85328,2.07429 -5.11042,5.11246 -3.42137,8.26849 1.38085,2.58013 1.52534,2.58043 5.68182,0.0116 z m 36.21902,-1.39047 c 1.1267,-1.90961 1.66521,-3.70894 1.19668,-3.99851 -0.70824,-0.43772 -5.04767,5.60392 -5.04767,7.0277 0,1.57074 2.12163,-0.0981 3.85099,-3.02919 z m -2.68199,-4.60798 c 1.46794,-2.43099 2.95928,-5.99499 3.31408,-7.91999 0.55365,-3.00388 -2.6e-4,-2.43689 -3.90771,4 -2.50404,4.125 -4.55788,7.875 -4.56409,8.33333 -0.0269,1.99018 2.69996,-0.34318 5.15772,-4.41334 z m -18.26876,1.15526 2.35881,-1.77925 -1.70989,-5.148 c -1.88733,-5.6822 -3.93111,-6.59341 -7.0525,-3.14431 -1.75379,1.93792 -2.47536,9.60373 -1.11167,11.81022 0.79377,1.28435 4.70811,0.37877 7.51525,-1.73866 z m -52.08637,-4.90914 c 0.35666,-3.61332 0.11924,-3.7485 -8.06387,-4.59134 L 229,225.98253 v 2.97019 c 0,3.06441 0.38601,3.28176 9.5,5.34916 3.25996,0.73948 3.98326,0.21372 4.31387,-3.13577 z m 11.60374,2.51779 c 0.98993,-0.72385 1.63228,-2.18635 1.42744,-3.25 -0.52432,-2.72254 -8.14453,-2.83289 -8.66593,-0.12549 -0.8481,4.40385 3.23084,6.30596 7.23849,3.37549 z M 266.625,233 c 0.75625,0 1.375,-0.9 1.375,-2 0,-1.59596 -0.66667,-2 -3.3,-2 -3.5004,0 -5.7,1.47605 -5.7,3.825 0,1.06267 0.79459,1.26608 3.125,0.8 1.71875,-0.34375 3.74375,-0.625 4.5,-0.625 z m 41.49063,-5.24967 c 2.13652,-2.33733 3.73679,-4.69983 3.55615,-5.25 -0.56031,-1.70656 -4.63456,-1.7609 -5.28324,-0.0705 -0.98166,2.55817 -2.66317,1.78708 -2.13444,-0.97878 0.30033,-1.57108 -0.1978,-3.39332 -1.29847,-4.75 L 301.1699,214.5 l -2.58495,2.42431 c -2.9776,2.79257 -3.11622,3.78523 -1.15795,8.29176 0.78485,1.80616 1.67072,4.07143 1.96861,5.03393 0.93845,3.03218 4.63097,1.97368 8.72002,-2.49967 z m -30.26927,1.67643 c 3.99056,-1.99076 4.11063,-3.56161 0.18621,-2.4361 -3.71683,1.06597 -5.03257,1.86818 -5.03257,3.06836 0,1.33341 1.22694,1.17335 4.84636,-0.63226 z M 180,224.43896 c 8.58332,-2.62244 10.09126,-4.51429 5.01008,-6.2856 -2.19793,-0.7662 -2.82095,-1.48264 -2.35202,-2.70466 0.50608,-1.31882 1.38228,-1.51899 4.23992,-0.96859 8.05574,1.55157 9.76811,0.39462 11.00598,-7.43613 0.50913,-3.22073 1.4921,-5.68612 2.48969,-6.2444 2.46902,-1.38174 1.15282,-2.49054 -3.84627,-3.2402 -4.32363,-0.64837 -4.58665,-0.89372 -7.66784,-7.15251 -1.75485,-3.56461 -3.58057,-6.7221 -4.05715,-7.01664 -1.17318,-0.72507 -5.47965,9.07955 -6.32969,14.41092 -0.41278,2.58894 -1.14495,4.14275 -1.83924,3.90322 -0.82452,-0.28445 -1.05761,-4.83471 -0.81735,-15.95599 0.21359,-9.88683 -0.0581,-16.29469 -0.74539,-17.57887 -1.00497,-1.8778 -1.29045,-1.91658 -4.03373,-0.54805 -2.78002,1.38685 -2.95056,1.81999 -2.92375,7.42565 0.0157,3.27409 0.39394,5.95289 0.84063,5.95289 1.90809,0 1.92786,3.64672 0.047,8.67373 -2.59522,6.93634 -2.60115,10.00733 -0.0209,10.82627 1.1,0.34913 2,1.26741 2,2.04064 0,1.96175 -4.22409,10.45936 -5.19927,10.45936 -1.55638,0 -0.75935,2.26558 2.85981,8.12909 2.0133,3.2618 4.1508,5.71899 4.75,5.46041 0.5992,-0.25857 3.56446,-1.22632 6.58946,-2.15054 z m 4,-18.97945 C 184,204.44543 188.37359,199 189.18806,199 c 1.51957,0 0.81879,3.68383 -1.0168,5.34501 -1.75903,1.5919 -4.17126,2.23641 -4.17126,1.1145 z M 184,194 c 0,-1.1 0.40186,-2 0.89301,-2 1.12404,0 2.17254,2.60112 1.37142,3.40223 C 185.06067,196.606 184,195.94919 184,194 Z m 138.5,30 c 0.33992,-0.55 0.14148,-1 -0.44098,-1 -0.58246,0 -1.05902,0.45 -1.05902,1 0,0.55 0.19844,1 0.44098,1 0.24254,0 0.7191,-0.45 1.05902,-1 z m 699.823,-4.4328 c 3.2945,-2.51282 4.677,-4.48545 4.677,-6.67335 0,-0.52153 -3.4784,-0.87937 -7.7866,-0.80107 -6.2877,0.11427 -9.046,-0.36231 -14.3285,-2.47564 -3.598,-1.43943 -7.06901,-2.61714 -7.71336,-2.61714 -1.80411,0 -1.41678,8.00475 0.58001,11.98676 1.42382,2.83938 2.38305,3.53592 5.16665,3.7515 1.88,0.14561 3.5607,0.40728 3.7349,0.58148 0.1742,0.17421 2.983,0.002 6.2417,-0.38186 4.1228,-0.48612 6.9905,-1.51136 9.4282,-3.37068 z M 318.14717,216.25 c 0.86811,-1.5125 1.62469,-4.39116 1.68129,-6.39703 0.0566,-2.00587 0.23084,-4.25587 0.38722,-5 C 320.37982,204.07189 319.65461,203.5 318.5,203.5 c -1.47622,0 -2.86595,1.76883 -5.3065,6.75407 -1.81858,3.71473 -3.02952,7.20223 -2.69099,7.75 0.33854,0.54776 1.84194,0.99593 3.3409,0.99593 1.92383,0 3.18959,-0.80879 4.30376,-2.75 z m 8.26678,0.5 c 2.0825,-3.20922 4.98194,-14.27595 4.24403,-16.19889 -0.56767,-1.47933 -0.8859,-1.48461 -3.64001,-0.0604 -1.65989,0.85836 -3.0754,2.11159 -3.14559,2.78497 -0.44232,4.24328 -0.65568,5.75565 -1.28581,9.11454 -0.38711,2.06349 -0.9506,4.39485 -1.25219,5.18079 -0.91659,2.38858 3.45537,1.68194 5.07957,-0.82101 z m -16.52408,-7.2391 c 2.63584,-5.60751 2.66735,-7.5109 0.12432,-7.5109 -2.70646,0 -7.41614,7.15819 -6.53542,9.93311 1.13635,3.58031 4.11935,2.45329 6.4111,-2.42221 z M 161.4674,207.25 c -0.95151,-5.7253 -1.19483,-6.13404 -3.32061,-5.57814 -2.87197,0.75104 -4.40832,-2.74507 -3.59364,-8.17772 0.68619,-4.57582 2.57449,-7.15132 4.41101,-6.01629 0.57847,0.35751 0.85298,1.74625 0.61002,3.08609 -0.24295,1.33983 -0.13139,2.43606 0.24793,2.43606 1.27628,0 3.01067,-5.45496 3.67136,-11.54705 0.5492,-5.06413 0.34996,-6.42474 -1.22574,-8.37064 l -1.88153,-2.3236 -5.53959,2.62064 C 151.79983,174.82071 148.54882,176 147.62212,176 c -0.92669,0 -1.93657,0.7875 -2.24418,1.75 -1.17632,3.68064 -2.63662,6.97918 -6.01652,13.59016 -3.32535,6.50429 -3.40781,6.90783 -1.67924,8.2182 0.9998,0.75792 2.52123,1.39234 3.38096,1.40984 1.29872,0.0264 6.09759,2.58298 16.93686,9.02298 3.19098,1.89588 4.11646,1.16424 3.4674,-2.74118 z M 315.55103,195.53212 C 317.22146,191.53421 317.44166,188 316.02032,188 c -1.4278,0 -5.25469,7.94687 -4.62149,9.59695 0.92238,2.40368 2.64255,1.54826 4.1522,-2.06483 z m 5.90177,1.21788 c 1.04723,-4.79988 0.95004,-7.75 -0.25532,-7.75 -0.44139,0 -1.26343,2.25 -1.82676,5 -0.81389,3.97316 -0.75568,5 0.28347,5 0.71924,0 1.52861,-1.0125 1.79861,-2.25 z m 9.50444,-1.19848 c 1.20884,-1.45656 2.04155,-8.97172 1.25226,-11.30152 -0.60906,-1.79781 -2.92071,-1.53879 -5.02224,0.56274 -1.19836,1.19836 -1.89297,3.57086 -2.04944,7 -0.22312,4.88981 -0.0975,5.18726 2.1903,5.18726 1.33484,0 2.96795,-0.65182 3.62912,-1.44848 z M 160,195 c 0,-0.55 -0.19844,-1 -0.44098,-1 -0.24254,0 -0.7191,0.45 -1.05902,1 -0.33992,0.55 -0.14148,1 0.44098,1 0.58246,0 1.05902,-0.45 1.05902,-1 z m -23.21862,-8.95805 c 1.25476,-2.37189 2.04226,-4.55164 1.75,-4.8439 -0.29226,-0.29226 -0.66208,-0.34388 -0.82183,-0.11472 -0.15975,0.22917 -1.50975,2.07415 -3,4.09995 -1.49025,2.0258 -2.70955,4.2008 -2.70955,4.83333 0,2.34228 2.56967,0.20617 4.78138,-3.97466 z m 394.87633,-2.44262 c 4.67216,-2.31633 20.73862,-7.60424 24.84229,-8.17627 10.93811,-1.52473 24.5,-7.01349 24.5,-9.91563 0,-2.24024 -3.08767,-3.90925 -6.84132,-3.69801 -6.34346,0.35697 -21.45972,4.26918 -26.58739,6.88103 C 538.53897,173.29118 523.00049,186 526.40771,186 c 0.22425,0 2.58675,-1.0803 5.25,-2.40067 z M 317,181.44098 C 317,180.09844 316.55,179 316,179 c -0.55,0 -1,1.37656 -1,3.05902 0,1.7847 0.41658,2.80156 1,2.44098 0.55,-0.33992 1,-1.71648 1,-3.05902 z m -132.53677,-7.65429 c 1.32068,-3.45768 3.33173,-8.17745 4.469,-10.48838 3.67072,-7.45888 2.57903,-8.10728 -4.29046,-2.54831 -4.61785,3.73688 -4.63447,3.77274 -4.7497,10.25 -0.0636,3.575 -0.29334,8.06692 -0.51053,9.98204 -0.384,3.38593 -0.35245,3.42145 1.14278,1.2867 0.84573,-1.20744 2.61824,-5.02436 3.93891,-8.48205 z m 10.7104,0.66823 c 6.6008,-15.14407 7.29894,-25.56482 1.05806,-15.79316 -5.54282,8.67868 -9.35405,17.98894 -8.62015,21.0577 1.56273,6.53442 2.79246,5.67831 7.56209,-5.26454 z m 128.43135,2.14181 c 0.41405,-5.8161 -0.0336,-6.46621 -2.97285,-4.31701 -1.44276,1.05497 -1.56414,1.76892 -0.69113,4.0651 0.58245,1.53196 1.059,3.97108 1.059,5.42028 0,5.00985 2.18967,0.66546 2.60498,-5.16837 z m 6.0101,3.73591 c 2.21166,-1.44914 2.4571,-2.13625 1.87533,-5.25 -1.10594,-5.91917 -4.81302,-8.68932 -4.45981,-3.33264 0.0997,1.5125 0.0924,2.975 -0.0163,3.25 -0.61767,1.56312 -1.03298,7 -0.53472,7 0.32491,0 1.73586,-0.75031 3.13545,-1.66736 z M 312.66455,166.82601 C 311.5787,163.0756 309,160.28442 309,162.85951 309,163.9255 312.9414,171 313.53529,171 c 0.18576,0 -0.20608,-1.8783 -0.87074,-4.17399 z m 10.75124,-2.11316 c 0.67488,-1.88498 0.48911,-3.20905 -0.70617,-5.03328 -1.57589,-2.4051 -1.71934,-2.43128 -5.0497,-0.92177 -3.32269,1.50604 -3.38985,1.64848 -2.19147,4.64793 0.67995,1.70185 1.53324,3.93299 1.8962,4.95808 0.59925,1.69244 0.86569,1.72787 2.89764,0.38535 1.23074,-0.81315 2.64981,-2.62949 3.1535,-4.03631 z M 309,157.62212 c 0,-0.75783 -0.675,-2.99337 -1.5,-4.96788 -0.825,-1.9745 -1.5,-5.41858 -1.5,-7.65351 0,-4.77042 -2.04887,-6.17147 -5.05138,-3.45423 -2.34791,2.12483 -2.07496,3.25631 2.74419,11.37562 3.51069,5.91484 5.30719,7.5058 5.30719,4.7 z m 8.3622,-2.8977 c 1.62531,-1.18846 1.57006,-1.43943 -0.80887,-3.67432 C 315.149,149.7308 314,148.12456 314,147.48067 c 0,-0.64388 -0.9,-1.98518 -2,-2.98067 -1.96025,-1.774 -2,-1.74663 -2,1.37713 0,4.13786 2.51739,10.12287 4.25784,10.12287 0.74795,0 2.14491,-0.57401 3.10436,-1.27558 z m -47.47532,-19.61401 c 3.17071,1.10532 15.87055,0.77558 17.87646,-0.46415 C 288.4435,134.2259 289,133.16749 289,132.29425 c 0,-1.38387 -0.99505,-1.48301 -7.75,-0.77221 -4.2625,0.44854 -9.91122,0.85207 -12.55271,0.89674 -3.88846,0.0658 -5.16916,0.55712 -6.72776,2.58122 -3.20262,4.15912 -2.2757,5.47601 1.51297,2.14951 3.07275,-2.69791 3.82628,-2.93783 6.40438,-2.0391 z m 29.15089,0.9821 3.46223,-2.90749 -2.82374,-0.71943 C 296.12432,131.56064 292,133.35855 292,135.81189 c 0,4.08298 2.39617,4.17852 7.03777,0.28062 z M 285,121.06739 c 0,-0.51294 -1.0125,-1.24117 -2.25,-1.61828 -1.2375,-0.37712 -2.925,-1.24024 -3.75,-1.91804 -0.825,-0.6778 -3.94009,-2.00909 -6.92241,-2.95843 -4.46793,-1.42222 -5.83214,-1.50678 -7.75,-0.48037 -3.44705,1.84481 -2.83778,3.25221 1.12922,2.60845 2.38019,-0.38625 4.79352,0.0849 7.74876,1.51269 2.36057,1.1405 5.5518,2.18085 7.09162,2.31188 1.53982,0.13103 3.07787,0.51644 3.4179,0.85647 0.87062,0.87062 1.28491,0.76925 1.28491,-0.31437 z m 683.63569,-3.56123 c 1.57537,-0.82161 3.76431,-1.5035 4.86431,-1.51531 2.15974,-0.0232 5.2402,-1.61294 4.47104,-2.30739 -0.64655,-0.58375 -22.0217,1.03387 -22.70618,1.71835 -0.30242,0.30242 0.0194,1.23573 0.71508,2.07402 1.64164,1.97806 8.88786,1.99542 12.65575,0.0303 z M 631.94418,60.025424 C 631.75313,58.226975 623.12215,43.5 622.25919,43.5 621.2985,43.5 613,58.363589 613,60.084298 c 0,0.402767 4.275,0.67251 9.5,0.599428 5.225,-0.07308 9.47488,-0.369318 9.44418,-0.658302 z M 37.680407,286.51704 c -1.550777,-0.80886 -3.324051,-1.36858 -3.94061,-1.24384 -1.792956,0.36275 -1.987657,-2.88248 -0.275651,-4.59449 1.10557,-1.10557 3.00187,-1.46624 6.469057,-1.23039 5.627615,0.38281 7.413306,1.18889 6.35954,2.87078 -0.406935,0.64949 -0.795734,1.6309 -0.863998,2.1809 -0.06826,0.55 -0.192658,1.5625 -0.276431,2.25 -0.205633,1.68757 -4.017628,1.56872 -7.471907,-0.23296 z m 17.782106,-0.30886 c -3.810446,-0.22538 -5.352832,-0.80291 -6.332102,-2.37097 -2.043301,-3.27184 -0.198056,-3.8725 8.396092,-2.73308 4.385423,0.58143 9.464067,1.04549 11.285875,1.03125 2.844899,-0.0222 3.268291,0.28392 3,2.16936 -0.278324,1.95594 -0.911965,2.19559 -5.812378,2.19833 -3.025,0.002 -7.766869,-0.13102 -10.537487,-0.29489 z M 245,132 c 0,-0.55 0.42344,-1 0.94098,-1 0.51754,0 1.2191,0.45 1.55902,1 0.33992,0.55 -0.0835,1 -0.94098,1 C 245.70156,133 245,132.55 245,132 Z"/>
</svg>
