<?xml version="1.0" encoding="utf-8"?>
<svg xmlns="http://www.w3.org/2000/svg" version="1.1" viewBox="0 0 64 98">
	<title/>
	<path d="M 31.186254,89.285913 C 29.913693,89.042966 26.862931,86.918678 24.406782,84.565274 21.950633,82.211869 19.702761,80.671926 19.411511,81.143178 19.120261,81.61443 18.217691,82 17.405799,82 16.256234,82 16.158667,81.572046 16.964816,80.065741 17.534167,79.001899 18,75.387446 18,72.033623 18,66.067632 19.750869,60.106308 22.404698,57.036598 23.13533,56.191469 24.012487,52.125 24.353936,48 c 0.34145,-4.125 0.811538,-8.4 1.044641,-9.5 1.587299,-7.490372 6.363616,-13.5 10.729497,-13.5 3.852855,0 4.544214,-1.794622 1.1821,-3.068485 C 33.878982,20.631479 30,17.126243 30,15.325686 c 0,-1.904294 0.481916,-1.689924 3.91201,1.740171 3.858994,3.858993 5.654561,3.008729 3.032194,-1.435851 C 33.076428,9.0746142 25.717325,8.0826751 20.4,13.4 c -3.802497,3.802497 -3.93869,4.304289 -1.899452,6.998385 1.198631,1.583547 1.6949,1.684297 2.992362,0.607499 2.017852,-1.674668 2.451317,-1.134916 1.802208,2.244116 -0.29055,1.5125 -1.124255,2.75 -1.852678,2.75 -1.983774,0 -2.77038,1.89993 -1.44686,3.494674 1.971722,2.37578 1.558412,12.23569 -0.613499,14.635625 -1.49385,1.650686 -1.813669,3.293476 -1.552446,7.974338 C 18.039222,55.860254 17.766892,58 17.079317,58 16.092375,58 15.527964,52.672758 15.949539,47.336504 16.060053,45.93762 15.392343,44.941912 14.06023,44.519116 11.307728,43.645506 11.166979,39 13.893011,39 c 1.041156,0 2.171481,0.725681 2.511833,1.612624 0.501156,1.30599 0.901791,1.377781 2.106989,0.377555 2.250181,-1.867484 1.812283,-4.68023 -1.6785,-10.781482 C 9.6656558,17.680903 15.982134,6.5271122 29.237546,8.305036 33.610876,8.8916226 40,14.097148 40,17.073722 c 0,4.40971 5.571945,4.032119 8.604201,-0.583076 1.050915,-1.599527 1.07294,-2.501237 0.107988,-4.421031 C 47.118857,8.8996446 45,8.2415604 45,10.916667 45,12.333333 44.36,13 43,13 c -1.451892,0 -2,-0.666667 -2,-2.432612 0,-4.8020475 7.975719,-4.4544342 10.001361,0.435899 1.598699,3.8596 -1.094139,9.745393 -4.870444,10.645436 -1.447005,0.344879 -3.188462,1.065991 -3.869907,1.602471 -1.896906,1.493378 -0.343631,2.986359 2.392504,2.299633 2.430418,-0.609997 2.434731,-0.596723 2.140905,6.588981 C 46.604316,36.788902 46.057111,39.486463 45.25,39.753342 44.483167,40.006903 44,39.241999 44,37.774463 c 0,-1.315712 -0.610942,-3.227717 -1.357649,-4.248899 -1.254692,-1.715894 -1.408158,-1.587455 -2.023704,1.693684 -0.36633,1.952709 -1.997199,5.514713 -3.624154,7.915566 -1.626954,2.400852 -2.966287,5.377686 -2.976296,6.615186 -0.02145,2.65256 0.568575,2.806085 2.677877,0.696783 1.780012,-1.780012 5.441643,-1.57091 6.07347,0.346833 0.305343,0.926788 -0.278487,1.116751 -2.058867,0.669905 -1.890955,-0.4746 -2.870644,-0.07322 -4.097872,1.67889 C 35.725762,54.408842 35,56.244885 35,57.222506 35,58.200128 34.55,59 34,59 c -0.880208,0 -1.52701,-5.266403 -1.074646,-8.75 0.234292,-1.804247 -1.876794,-1.540121 -2.59225,0.324327 -0.965058,2.514902 1.398993,14.472162 3.270024,16.539628 C 34.541894,68.15128 36.160685,69 37.200442,69 39.225828,69 44,64.7971 44,63.01407 44,61.102936 40.97803,60.709908 39.131603,62.380901 37.085842,64.232289 35.441227,63.378207 37.131121,61.342009 37.743693,60.603904 39.550927,60 41.147196,60 43.322856,60 44.287476,59.374079 45,57.5 c 1.303129,-3.427489 3,-3.144677 3,0.5 0,1.70665 0.898144,3.898144 2.083298,5.083298 3.548433,3.548433 4.611497,7.392019 3.844244,13.89915 -0.597494,5.067397 -1.191717,6.372517 -3.978149,8.737396 -1.801654,1.529086 -4.214807,3.0728 -5.362564,3.430476 -2.344661,0.730668 -9.883979,0.806955 -13.400575,0.135593 z M 45.63688,85.47709 C 50.934626,82.0683 54.146192,71.29093 50.995514,67.494594 48.8533,64.913384 47.878227,65.829883 48.595964,69.75 c 0.674285,3.682791 0.651004,3.718384 -1.298948,1.985955 -1.822168,-1.618901 -2.283687,-1.639471 -5.609158,-0.25 C 39.694867,72.31868 37.013059,73 35.728285,73 32.747232,73 27.636064,67.65713 25.908818,62.73539 25.18218,60.664855 24.117934,59.124292 23.543829,59.311916 c -1.652902,0.540187 -3.678376,7.799008 -3.016757,10.811344 0.71921,3.274542 2.969708,5.499983 3.952999,3.908986 0.361969,-0.585678 1.125808,-0.775826 1.697419,-0.422551 0.606601,0.3749 -0.114799,1.56256 -1.732745,2.852665 l -2.772039,2.210346 4.095182,4.095182 C 30.060442,87.060442 33.416631,88.128002 40,87.294939 41.925,87.051348 44.461596,86.233316 45.63688,85.47709 Z M 32.218089,45.75 c 0.237637,-0.6875 0.545537,-3.5 0.684223,-6.25 0.251218,-4.981398 1.40789,-7.523132 2.793166,-6.137855 0.400847,0.400847 0.183347,1.602241 -0.483333,2.669765 C 33.835534,38.236214 33.574975,43 34.83102,43 36.495018,43 40.475147,32.680597 39.645266,30.51796 38.726815,28.124517 34.260499,28.672795 32.474743,31.398204 30.618507,34.231177 29.218756,47 30.764433,47 c 0.561874,0 1.216019,-0.5625 1.453656,-1.25 z"/>
</svg>
